<?xml version="1.0" encoding="UTF-8" standalone="no"?>
<!-- Created with Inkscape (http://www.inkscape.org/) -->
<svg
   xmlns:dc="http://purl.org/dc/elements/1.1/"
   xmlns:cc="http://web.resource.org/cc/"
   xmlns:rdf="http://www.w3.org/1999/02/22-rdf-syntax-ns#"
   xmlns:svg="http://www.w3.org/2000/svg"
   xmlns="http://www.w3.org/2000/svg"
   xmlns:sodipodi="http://sodipodi.sourceforge.net/DTD/sodipodi-0.dtd"
   xmlns:inkscape="http://www.inkscape.org/namespaces/inkscape"
   width="1060"
   height="1480"
   id="svg2"
   sodipodi:version="0.32"
   inkscape:version="0.44"
   version="1.0"
   sodipodi:docbase="C:\Documents and Settings\Clem\My Documents\Airplanes"
   sodipodi:docname="giant_planes_comparison.svg"
   inkscape:export-filename="C:\Documents and Settings\Clem\My Documents\Airplanes\giant_planes_comparison.png"
   inkscape:export-xdpi="90"
   inkscape:export-ydpi="90">
  <defs
     id="defs4" />
  <sodipodi:namedview
     id="base"
     pagecolor="#ffffff"
     bordercolor="#666666"
     borderopacity="1.0"
     gridtolerance="10000"
     guidetolerance="10"
     objecttolerance="10"
     inkscape:pageopacity="0.0"
     inkscape:pageshadow="2"
     inkscape:zoom="0.62905405"
     inkscape:cx="530"
     inkscape:cy="740"
     inkscape:document-units="px"
     inkscape:current-layer="layer2"
     width="1060px"
     height="1480px"
     showgrid="true"
     inkscape:window-width="1592"
     inkscape:window-height="1132"
     inkscape:window-x="0"
     inkscape:window-y="0"
     units="px" />
  <metadata
     id="metadata7">
    <rdf:RDF>
      <cc:Work
         rdf:about="">
        <dc:format>image/svg+xml</dc:format>
        <dc:type
           rdf:resource="http://purl.org/dc/dcmitype/StillImage" />
        <dc:title>Giant Aircraft Size Comparison</dc:title>
        <dc:date>26 August 2006</dc:date>
        <dc:creator>
          <cc:Agent>
            <dc:title>Clem Tillier (clem@tillier.net)</dc:title>
          </cc:Agent>
        </dc:creator>
        <dc:rights>
          <cc:Agent>
            <dc:title>Creative Commons Attribution Share Alike (by-sa) license</dc:title>
          </cc:Agent>
        </dc:rights>
        <dc:language>English</dc:language>
        <dc:subject>
          <rdf:Bag>
            <rdf:li>giant plane comparison Airbus A380 Boeing 747 Antonov 225 Hughes Spruce Goose</rdf:li>
          </rdf:Bag>
        </dc:subject>
        <cc:license
           rdf:resource="http://creativecommons.org/licenses/by-sa/2.5/" />
        <dc:description>A diagram showing four of the largest aircraft ever built, the Hughes H-4 Spruce Goose, the Antonov An-225 Mriya, the Boeing 747-8 Intercontinental, and the Airbus A380-800.  The diagram is scaled at 10 px units per meter.</dc:description>
      </cc:Work>
      <cc:License
         rdf:about="http://creativecommons.org/licenses/by-sa/2.5/">
        <cc:permits
           rdf:resource="http://web.resource.org/cc/Reproduction" />
        <cc:permits
           rdf:resource="http://web.resource.org/cc/Distribution" />
        <cc:requires
           rdf:resource="http://web.resource.org/cc/Notice" />
        <cc:requires
           rdf:resource="http://web.resource.org/cc/Attribution" />
        <cc:permits
           rdf:resource="http://web.resource.org/cc/DerivativeWorks" />
        <cc:requires
           rdf:resource="http://web.resource.org/cc/ShareAlike" />
      </cc:License>
    </rdf:RDF>
  </metadata>
  <g
     inkscape:groupmode="layer"
     id="layer5"
     inkscape:label="Annotations">
    <rect
       style="opacity:1;fill:white;fill-opacity:1;stroke:none;stroke-width:0.80000001;stroke-linejoin:round;stroke-miterlimit:4;stroke-dasharray:none;stroke-dashoffset:0;stroke-opacity:1"
       id="rect2935"
       width="1060"
       height="1480"
       x="0"
       y="0" />
    <g
       id="g2055">
      <g
         transform="translate(-451.3413,33.12955)"
         id="g6588">
        <rect
           style="opacity:1;fill:#f2f36c;fill-opacity:1;stroke:none;stroke-width:0.80000001;stroke-linejoin:round;stroke-miterlimit:4;stroke-dasharray:none;stroke-dashoffset:0;stroke-opacity:1"
           id="rect6590"
           width="100"
           height="4"
           x="590"
           y="48" />
        <rect
           style="opacity:1;fill:black;fill-opacity:1;stroke:none;stroke-width:0.80000001;stroke-linejoin:round;stroke-miterlimit:4;stroke-dasharray:none;stroke-dashoffset:0;stroke-opacity:1"
           id="rect6592"
           width="1"
           height="2"
           x="590"
           y="48" />
        <rect
           y="48"
           x="592"
           height="2"
           width="1"
           id="rect6594"
           style="opacity:1;fill:black;fill-opacity:1;stroke:none;stroke-width:0.80000001;stroke-linejoin:round;stroke-miterlimit:4;stroke-dasharray:none;stroke-dashoffset:0;stroke-opacity:1" />
        <rect
           y="48"
           x="594"
           height="2"
           width="1"
           id="rect6596"
           style="opacity:1;fill:black;fill-opacity:1;stroke:none;stroke-width:0.80000001;stroke-linejoin:round;stroke-miterlimit:4;stroke-dasharray:none;stroke-dashoffset:0;stroke-opacity:1" />
        <rect
           style="opacity:1;fill:black;fill-opacity:1;stroke:none;stroke-width:0.80000001;stroke-linejoin:round;stroke-miterlimit:4;stroke-dasharray:none;stroke-dashoffset:0;stroke-opacity:1"
           id="rect6598"
           width="1"
           height="2"
           x="596"
           y="48" />
        <rect
           y="48"
           x="597.96991"
           height="2"
           width="1"
           id="rect6600"
           style="opacity:1;fill:black;fill-opacity:1;stroke:none;stroke-width:0.80000001;stroke-linejoin:round;stroke-miterlimit:4;stroke-dasharray:none;stroke-dashoffset:0;stroke-opacity:1" />
        <rect
           style="opacity:1;fill:black;fill-opacity:1;stroke:none;stroke-width:0.80000001;stroke-linejoin:round;stroke-miterlimit:4;stroke-dasharray:none;stroke-dashoffset:0;stroke-opacity:1"
           id="rect6602"
           width="10"
           height="2"
           x="599.96991"
           y="48" />
        <rect
           style="opacity:1;fill:black;fill-opacity:1;stroke:none;stroke-width:0.80000001;stroke-linejoin:round;stroke-miterlimit:4;stroke-dasharray:none;stroke-dashoffset:0;stroke-opacity:1"
           id="rect6604"
           width="1"
           height="2"
           x="591.03009"
           y="50" />
        <rect
           y="50"
           x="593.03009"
           height="2"
           width="1"
           id="rect6606"
           style="opacity:1;fill:black;fill-opacity:1;stroke:none;stroke-width:0.80000001;stroke-linejoin:round;stroke-miterlimit:4;stroke-dasharray:none;stroke-dashoffset:0;stroke-opacity:1" />
        <rect
           y="50"
           x="595.03009"
           height="2"
           width="1"
           id="rect6608"
           style="opacity:1;fill:black;fill-opacity:1;stroke:none;stroke-width:0.80000001;stroke-linejoin:round;stroke-miterlimit:4;stroke-dasharray:none;stroke-dashoffset:0;stroke-opacity:1" />
        <rect
           style="opacity:1;fill:black;fill-opacity:1;stroke:none;stroke-width:0.80000001;stroke-linejoin:round;stroke-miterlimit:4;stroke-dasharray:none;stroke-dashoffset:0;stroke-opacity:1"
           id="rect6610"
           width="1"
           height="2"
           x="597.03009"
           y="50" />
        <rect
           y="50"
           x="599"
           height="2"
           width="1"
           id="rect6612"
           style="opacity:1;fill:black;fill-opacity:1;stroke:none;stroke-width:0.80000001;stroke-linejoin:round;stroke-miterlimit:4;stroke-dasharray:none;stroke-dashoffset:0;stroke-opacity:1" />
        <rect
           style="opacity:1;fill:black;fill-opacity:1;stroke:none;stroke-width:0.80000001;stroke-linejoin:round;stroke-miterlimit:4;stroke-dasharray:none;stroke-dashoffset:0;stroke-opacity:1"
           id="rect6614"
           width="10"
           height="2"
           x="610"
           y="50" />
        <rect
           style="opacity:1;fill:black;fill-opacity:1;stroke:none;stroke-width:0.80000001;stroke-linejoin:round;stroke-miterlimit:4;stroke-dasharray:none;stroke-dashoffset:0;stroke-opacity:1"
           id="rect6616"
           width="10"
           height="2"
           x="620"
           y="48" />
        <rect
           style="opacity:1;fill:black;fill-opacity:1;stroke:none;stroke-width:0.80000001;stroke-linejoin:round;stroke-miterlimit:4;stroke-dasharray:none;stroke-dashoffset:0;stroke-opacity:1"
           id="rect6618"
           width="10"
           height="2"
           x="630"
           y="50" />
        <rect
           style="opacity:1;fill:black;fill-opacity:1;stroke:none;stroke-width:0.80000001;stroke-linejoin:round;stroke-miterlimit:4;stroke-dasharray:none;stroke-dashoffset:0;stroke-opacity:1"
           id="rect6620"
           width="10"
           height="2"
           x="639.96991"
           y="48" />
        <rect
           style="opacity:1;fill:black;fill-opacity:1;stroke:none;stroke-width:0.80000001;stroke-linejoin:round;stroke-miterlimit:4;stroke-dasharray:none;stroke-dashoffset:0;stroke-opacity:1"
           id="rect6622"
           width="10"
           height="2"
           x="650"
           y="50" />
        <rect
           style="opacity:1;fill:black;fill-opacity:1;stroke:none;stroke-width:0.80000001;stroke-linejoin:round;stroke-miterlimit:4;stroke-dasharray:none;stroke-dashoffset:0;stroke-opacity:1"
           id="rect6624"
           width="10"
           height="2"
           x="660"
           y="48" />
        <rect
           style="opacity:1;fill:black;fill-opacity:1;stroke:none;stroke-width:0.80000001;stroke-linejoin:round;stroke-miterlimit:4;stroke-dasharray:none;stroke-dashoffset:0;stroke-opacity:1"
           id="rect6626"
           width="10"
           height="2"
           x="670"
           y="50" />
        <rect
           style="opacity:1;fill:black;fill-opacity:1;stroke:none;stroke-width:0.80000001;stroke-linejoin:round;stroke-miterlimit:4;stroke-dasharray:none;stroke-dashoffset:0;stroke-opacity:1"
           id="rect6628"
           width="10"
           height="2"
           x="680"
           y="48" />
      </g>
      <text
         sodipodi:linespacing="125%"
         id="text6630"
         y="92.167702"
         x="136.65749"
         style="font-size:8.40090561px;font-style:normal;font-variant:normal;font-weight:bold;font-stretch:normal;text-align:start;line-height:125%;writing-mode:lr-tb;text-anchor:start;fill:black;fill-opacity:1;stroke:none;stroke-width:1px;stroke-linecap:butt;stroke-linejoin:miter;stroke-opacity:1;font-family:Arial"
         xml:space="preserve"><tspan
           y="92.167702"
           x="136.65749"
           id="tspan6632"
           sodipodi:role="line">0 </tspan></text>
      <text
         sodipodi:linespacing="125%"
         id="text6634"
         y="71.455681"
         x="161.82584"
         style="font-size:20.53057289px;font-style:normal;font-weight:normal;line-height:125%;fill:black;fill-opacity:1;stroke:none;stroke-width:1px;stroke-linecap:butt;stroke-linejoin:miter;stroke-opacity:1;font-family:Bitstream Vera Sans"
         xml:space="preserve"><tspan
           style="font-size:17.10881042px;font-style:normal;font-variant:normal;font-weight:bold;font-stretch:normal;text-align:start;line-height:125%;writing-mode:lr-tb;text-anchor:start;font-family:Arial"
           y="71.455681"
           x="161.82584"
           id="tspan6636"
           sodipodi:role="line">SCALE</tspan></text>
      <text
         xml:space="preserve"
         style="font-size:8.40090561px;font-style:normal;font-variant:normal;font-weight:bold;font-stretch:normal;text-align:start;line-height:125%;writing-mode:lr-tb;text-anchor:start;fill:black;fill-opacity:1;stroke:none;stroke-width:1px;stroke-linecap:butt;stroke-linejoin:miter;stroke-opacity:1;font-family:Arial"
         x="156.64723"
         y="92.167702"
         id="text3786"
         sodipodi:linespacing="125%"><tspan
           sodipodi:role="line"
           id="tspan3788"
           x="156.64723"
           y="92.167702">2</tspan></text>
      <text
         sodipodi:linespacing="125%"
         id="text3790"
         y="92.167702"
         x="176.61922"
         style="font-size:8.40090561px;font-style:normal;font-variant:normal;font-weight:bold;font-stretch:normal;text-align:start;line-height:125%;writing-mode:lr-tb;text-anchor:start;fill:black;fill-opacity:1;stroke:none;stroke-width:1px;stroke-linecap:butt;stroke-linejoin:miter;stroke-opacity:1;font-family:Arial"
         xml:space="preserve"><tspan
           y="92.167702"
           x="176.61922"
           id="tspan3792"
           sodipodi:role="line">4</tspan></text>
      <text
         xml:space="preserve"
         style="font-size:8.40090561px;font-style:normal;font-variant:normal;font-weight:bold;font-stretch:normal;text-align:start;line-height:125%;writing-mode:lr-tb;text-anchor:start;fill:black;fill-opacity:1;stroke:none;stroke-width:1px;stroke-linecap:butt;stroke-linejoin:miter;stroke-opacity:1;font-family:Arial"
         x="196.34615"
         y="92.167702"
         id="text3794"
         sodipodi:linespacing="125%"><tspan
           sodipodi:role="line"
           id="tspan3796"
           x="196.34615"
           y="92.167702">6</tspan></text>
      <text
         sodipodi:linespacing="125%"
         id="text3798"
         y="92.167702"
         x="234.16757"
         style="font-size:8.40090561px;font-style:normal;font-variant:normal;font-weight:bold;font-stretch:normal;text-align:start;line-height:125%;writing-mode:lr-tb;text-anchor:start;fill:black;fill-opacity:1;stroke:none;stroke-width:1px;stroke-linecap:butt;stroke-linejoin:miter;stroke-opacity:1;font-family:Arial"
         xml:space="preserve"><tspan
           y="92.167702"
           x="234.16757"
           id="tspan3800"
           sodipodi:role="line">10 m</tspan></text>
      <text
         xml:space="preserve"
         style="font-size:8.40090561px;font-style:normal;font-variant:normal;font-weight:bold;font-stretch:normal;text-align:start;line-height:125%;writing-mode:lr-tb;text-anchor:start;fill:black;fill-opacity:1;stroke:none;stroke-width:1px;stroke-linecap:butt;stroke-linejoin:miter;stroke-opacity:1;font-family:Arial"
         x="216.31813"
         y="92.167702"
         id="text3802"
         sodipodi:linespacing="125%"><tspan
           sodipodi:role="line"
           id="tspan3804"
           x="216.31813"
           y="92.167702">8</tspan></text>
    </g>
  </g>
  <g
     inkscape:groupmode="layer"
     id="layer4"
     inkscape:label="Spruce Goose"
     style="display:inline">
    <path
       style="fill:#c5aa17;fill-opacity:0.70588235"
       d="M 529.74928,543.27254 C 528.94917,543.32611 528.1463,543.56695 527.34535,543.96058 C 522.92857,546.13122 519.16755,551.82901 514.95102,562.81902 C 508.90344,578.5815 505.34124,591.30663 501.62009,610.44987 C 498.50741,626.46292 495.69176,652.55232 494.09608,678.69052 L 494.09608,706.71234 L 492.78484,706.71234 L 492.53508,713.34251 L 488.53892,714.03054 C 486.34104,714.39692 481.05863,714.98825 476.80021,715.37534 L 469.05766,716.09465 L 469.05766,694.95318 C 469.05766,687.90124 469.0356,683.2604 468.93278,680.03532 L 468.4957,674.09319 C 468.43312,671.20938 465.06151,672.72625 465.06151,668.714 C 465.06149,668.71399 484.56808,668.51538 484.54277,667.27538 C 484.54279,666.20963 464.49955,666.3997 464.49955,666.3997 C 464.49955,666.39971 463.6817,663.69605 462.50147,662.08383 C 461.81306,661.14346 461.25438,661.08306 460.50339,661.08306 C 459.7524,661.08306 459.19374,661.14346 458.50531,662.08383 C 457.32508,663.69605 456.50725,666.39971 456.50723,666.3997 C 456.50723,666.3997 436.46402,666.20963 436.46401,667.27538 C 436.4387,668.51538 455.94526,668.71399 455.94527,668.714 C 455.94527,672.72625 452.57368,671.20938 452.51108,674.09319 L 452.16766,680.03532 C 452.07185,683.48539 452.07401,688.39114 452.074,695.79759 L 452.074,718.44023 L 431.84346,720.75453 C 420.71666,722.03416 410.37662,723.34381 408.86556,723.63177 L 406.1182,724.13216 L 406.1182,702.64668 C 406.1182,695.6566 406.08954,691.03797 405.99332,687.76008 L 405.58746,680.75463 C 405.52488,677.87082 402.15328,679.38769 402.15327,675.37544 C 402.15325,675.37543 421.65985,675.17682 421.63453,673.93682 C 421.63455,672.87107 401.59132,673.06113 401.59131,673.06113 C 401.59131,673.06114 400.77347,670.35749 399.59323,668.74527 C 398.90482,667.8049 398.34615,667.74449 397.59515,667.74449 C 396.84416,667.74449 396.28551,667.8049 395.59707,668.74527 C 394.41684,670.35749 393.59902,673.06114 393.59899,673.06113 C 393.59899,673.06113 373.55579,672.87107 373.55577,673.93682 C 373.53046,675.17682 393.03703,675.37543 393.03703,675.37544 C 393.03703,679.38769 389.66545,677.87082 389.60284,680.75463 L 389.2282,687.76008 C 389.14609,691.20001 389.13455,695.92488 389.13454,702.92815 L 389.13454,725.69588 L 380.89247,726.82176 C 376.35933,727.44181 365.90689,728.72595 357.66481,729.699 L 342.67922,731.48163 L 342.39824,709.8085 C 342.39464,709.51785 342.20543,697.37493 342.05482,694.17133 L 341.68018,687.72881 C 341.6176,684.845 338.24603,686.36187 338.24599,682.34962 C 338.24597,682.34961 357.7526,682.151 357.72725,680.911 C 357.72727,679.84525 337.68407,680.03532 337.68403,680.03532 C 337.68403,680.03533 336.86622,677.33167 335.68595,675.71945 C 334.99754,674.77908 334.4389,674.71868 333.68787,674.71868 C 332.93688,674.71868 332.37826,674.77908 331.68979,675.71945 C 330.50956,677.33167 329.69178,680.03533 329.69172,680.03532 C 329.69172,680.03532 309.64854,679.84525 309.64849,680.911 C 309.62318,682.151 329.12979,682.34961 329.12976,682.34962 C 329.12976,686.36187 325.7582,684.845 325.69556,687.72881 L 325.2897,694.17133 C 325.21216,697.02293 325.19604,709.84124 325.19604,710.37144 L 325.19604,733.57702 L 302.96742,736.26661 C 290.74168,737.74133 280.40164,738.93805 279.98952,738.92493 C 279.57742,738.91181 279.24025,728.76076 279.24024,716.37612 C 279.24024,713.30459 279.18614,701.2295 279.08414,698.9563 L 278.77194,694.35897 C 278.70936,691.47517 275.33774,692.99205 275.33775,688.97978 C 275.33773,688.97977 294.84431,688.78118 294.81901,687.54116 C 294.81903,686.47541 274.77578,686.66549 274.77579,686.66548 C 274.77579,686.66549 273.95793,683.96184 272.77771,682.34962 C 272.0893,681.40925 271.53061,681.34885 270.77963,681.34884 C 270.02864,681.34884 269.46997,681.40926 268.78155,682.34962 C 267.60132,683.96183 266.78349,686.6655 266.78348,686.66548 C 266.78348,686.66548 246.74025,686.47542 246.74025,687.54116 C 246.71494,688.78117 266.2215,688.97978 266.22152,688.97978 C 266.22152,692.99204 262.84991,691.47518 262.78732,694.35897 L 262.38146,698.9563 C 262.32635,700.83442 262.25658,713.40156 262.25658,716.59504 L 262.25658,740.80139 L 259.0097,741.36433 C 254.70861,742.10634 217.7156,746.58928 208.65189,747.46283 L 201.53374,748.15087 L 200.81568,744.77324 C 198.88745,735.43363 194.81549,727.88507 191.69945,727.88508 C 189.35569,727.88508 186.36198,733.67315 184.39397,741.92727 C 183.31342,746.45923 182.27706,750.28171 182.11492,750.4339 C 181.95278,750.58609 175.98956,751.40886 168.84643,752.27908 C 139.99111,755.79436 96.67123,760.99215 75.935845,763.41275 C 63.847472,764.82393 52.938777,766.20832 51.709148,766.47764 C 50.374868,766.76988 48.671743,768.57687 47.463232,770.94987 C 45.056602,775.67548 42.475047,788.42405 42.499257,795.4377 C 42.517635,800.7623 44.641819,815.21445 46.370533,821.64561 C 48.274309,828.728 48.718703,828.96373 62.292718,829.99586 C 69.053798,830.50996 80.273318,831.40762 87.237474,831.96615 C 100.50097,833.02992 158.53927,837.55909 202.81376,841.00444 C 231.35568,843.22551 262.14322,845.67235 272.24697,846.50872 C 275.81853,846.80436 296.04909,848.39916 317.20373,850.04273 C 384.35291,855.25977 465.85151,861.70858 481.23345,863.02158 C 487.64693,863.56905 493.74204,863.99108 494.78292,863.99109 C 496.567,863.99109 496.77842,866.15556 498.90395,901.77051 C 501.34319,942.64215 505.16219,989.5804 510.01826,1038.6271 C 511.7077,1055.6904 513.3696,1072.466 513.70222,1075.9062 C 514.03698,1079.3688 513.91603,1082.1605 513.42124,1082.161 C 512.50244,1082.1621 503.79486,1083.6843 443.58217,1094.2017 C 424.35066,1097.5609 402.0553,1101.3994 394.03607,1102.7396 C 372.75394,1106.2962 366.91395,1108.8831 360.78681,1117.5323 C 358.28338,1121.0663 357.87831,1122.4895 357.91457,1128.2907 C 357.968,1136.8392 360.21038,1141.8805 367.53032,1149.9013 C 375.63688,1158.784 386.01424,1164.0748 399.65567,1166.2578 C 406.79288,1167.4 410.3788,1167.7439 459.06727,1172.2937 C 519.43943,1177.9354 519.31573,1177.9433 522.28771,1176.8285 C 524.39035,1176.0398 525.2881,1176.0913 525.87801,1177.0474 C 526.30887,1177.7458 527.24851,1185.2655 527.96975,1193.7792 C 528.69096,1202.2929 529.60532,1209.26 529.99904,1209.26 C 530.39277,1209.26 531.30711,1202.293 532.02834,1193.7792 C 532.74957,1185.2655 533.68924,1177.7458 534.12008,1177.0474 C 534.70998,1176.0913 535.60775,1176.0398 537.71038,1176.8285 C 540.68238,1177.9433 540.55867,1177.9354 600.93082,1172.2937 C 649.61929,1167.7439 653.20517,1167.3999 660.34242,1166.2578 C 673.98384,1164.0748 684.3612,1158.784 692.46777,1149.9013 C 699.78772,1141.8805 701.9989,1136.8392 702.0523,1128.2907 C 702.08855,1122.4895 701.71467,1121.0663 699.21128,1117.5323 C 693.08413,1108.8831 687.24416,1106.2963 665.96201,1102.7396 C 657.94279,1101.3994 635.64743,1097.5609 616.41592,1094.2017 C 556.20324,1083.6842 547.49565,1082.1622 546.57685,1082.161 C 546.08207,1082.1605 545.9611,1079.3688 546.29587,1075.9062 C 546.62846,1072.466 548.29039,1055.6904 549.97982,1038.6271 C 554.83592,989.58041 558.6549,942.64214 561.09413,901.77051 C 563.21966,866.15557 563.43111,863.99108 565.21517,863.99109 C 566.25606,863.99109 572.35114,863.56906 578.76464,863.02158 C 594.14659,861.70857 675.64519,855.25978 742.79436,850.04273 C 763.94901,848.39915 784.17956,846.80436 787.75112,846.50872 C 797.85488,845.67235 828.64241,843.2255 857.18433,841.00444 C 901.45881,837.5591 959.4972,833.02993 972.76066,831.96615 C 979.72481,831.40761 990.94432,830.50997 997.70542,829.99586 C 1011.2795,828.96372 1011.7237,828.72799 1013.6276,821.64561 C 1015.3563,815.21446 1017.4805,800.76229 1017.4989,795.4377 C 1017.5231,788.42406 1014.9414,775.67547 1012.535,770.94987 C 1011.3254,768.57688 1009.6233,766.76987 1008.289,766.47764 C 1007.0583,766.20833 996.15071,764.82394 984.06229,763.41275 C 963.3269,760.99214 920.00698,755.79435 891.15166,752.27908 C 884.00853,751.40887 878.04528,750.5861 877.88317,750.4339 C 877.72103,750.2817 876.68468,746.45924 875.60411,741.92727 C 873.63611,733.67314 870.64241,727.88507 868.29864,727.88508 C 865.1826,727.88508 861.11061,735.43362 859.18241,744.77324 L 858.46435,748.15087 L 851.3462,747.46283 C 842.28248,746.58928 805.28949,742.10635 800.98838,741.36433 L 797.74151,740.80139 L 797.74151,716.59504 C 797.74151,708.08686 797.72392,702.61329 797.61663,698.9563 L 797.21077,694.35897 C 797.14819,691.47518 793.77657,692.99204 793.77657,688.97978 C 793.7766,688.97978 813.28315,688.78117 813.25783,687.54116 C 813.25784,686.47542 793.21461,686.66548 793.21461,686.66548 C 793.21461,686.6655 792.39677,683.96183 791.21653,682.34962 C 790.52813,681.40926 789.96944,681.34884 789.21846,681.34884 C 788.46749,681.34885 787.90879,681.40925 787.22038,682.34962 C 786.04016,683.96184 785.2223,686.66549 785.2223,686.66548 C 785.22232,686.66549 765.17906,686.47541 765.17908,687.54116 C 765.15378,688.78118 784.66036,688.97977 784.66034,688.97978 C 784.66036,692.99205 781.28872,691.47517 781.22614,694.35897 L 780.91394,698.9563 C 780.75962,702.39628 780.75784,707.66437 780.75784,716.37612 C 780.75784,728.76077 780.42068,738.91181 780.00856,738.92493 C 779.59646,738.93805 769.25642,737.74132 757.03067,736.26661 L 734.80205,733.57702 L 734.80205,710.37144 C 734.80205,702.75052 734.80448,697.70513 734.70839,694.17133 L 734.30253,687.72881 C 734.2399,684.845 730.86833,686.36187 730.86833,682.34962 C 730.86831,682.34961 750.37491,682.151 750.34959,680.911 C 750.34955,679.84525 730.30637,680.03532 730.30637,680.03532 C 730.30632,680.03533 729.48853,677.33167 728.30829,675.71945 C 727.61984,674.77908 727.0612,674.71868 726.31022,674.71868 C 725.5592,674.71868 725.00055,674.77908 724.31214,675.71945 C 723.13187,677.33167 722.31406,680.03533 722.31406,680.03532 C 722.31403,680.03532 702.27082,679.84525 702.27084,680.911 C 702.24549,682.151 721.75212,682.34961 721.7521,682.34962 C 721.75207,686.36187 718.38048,684.845 718.3179,687.72881 L 717.94326,694.17133 C 717.78691,697.49726 717.69193,702.37604 717.59984,709.8085 L 717.31886,731.48163 L 702.33328,729.699 C 694.09121,728.72595 683.63877,727.44181 679.10562,726.82176 L 670.86355,725.69588 L 670.86355,702.92815 C 670.86355,695.92488 670.852,691.20001 670.76989,687.76008 L 670.39525,680.75463 C 670.33265,677.87082 666.96105,679.38769 666.96105,675.37544 C 666.96106,675.37543 686.46763,675.17682 686.44231,673.93682 C 686.4423,672.87107 666.39909,673.06113 666.39909,673.06113 C 666.39907,673.06114 665.58125,670.35749 664.40102,668.74527 C 663.71259,667.8049 663.15392,667.74449 662.40294,667.74449 C 661.65195,667.74449 661.09327,667.8049 660.40486,668.74527 C 659.22462,670.35749 658.40678,673.06114 658.40678,673.06113 C 658.40678,673.06113 638.36354,672.87107 638.36356,673.93682 C 638.33824,675.17682 657.84484,675.37543 657.84482,675.37544 C 657.84482,679.38769 654.4732,677.87082 654.41062,680.75463 L 654.00476,687.76008 C 653.90856,691.03797 653.87989,695.6566 653.87989,702.64668 L 653.87989,724.13216 L 651.13253,723.63177 C 649.62148,723.34381 639.28144,722.03417 628.15463,720.75453 L 607.92409,718.44023 L 607.92409,695.79759 C 607.92409,688.39114 607.92624,683.48539 607.83043,680.03532 L 607.48701,674.09319 C 607.42442,671.20938 604.05281,672.72625 604.05281,668.714 C 604.05283,668.71399 623.55939,668.51538 623.53407,667.27538 C 623.53407,666.20963 603.49085,666.3997 603.49085,666.3997 C 603.49084,666.39971 602.67301,663.69605 601.49278,662.08383 C 600.80436,661.14346 600.24568,661.08306 599.4947,661.08306 C 598.74372,661.08306 598.18503,661.14346 597.49662,662.08383 C 596.31639,663.69605 595.49854,666.39971 595.49854,666.3997 C 595.49855,666.3997 575.4553,666.20963 575.45532,667.27538 C 575.43001,668.51538 594.9366,668.71399 594.93658,668.714 C 594.93659,672.72625 591.56496,671.20938 591.50238,674.09319 L 591.06531,680.03532 C 590.96249,683.2604 590.94043,687.90124 590.94043,694.95318 L 590.94043,716.09465 L 583.19787,715.37534 C 578.93947,714.98824 573.65706,714.39692 571.45916,714.03054 L 567.46301,713.34251 L 566.80739,696.36053 C 566.17898,679.94926 563.94361,650.80809 561.90585,632.46702 C 560.85504,623.009 556.68155,600.54517 554.44428,592.27947 C 545.2331,558.2479 537.48371,542.75474 529.74928,543.27254 z "
       id="path2040"
       sodipodi:nodetypes="csssccccccccccsccsssccsccccccccccscssssccsccccccccccscssssccscccccssccscssssccsccccccccsssssssssssssssssssssssssssssssssssssssssssssssssssssssssssssccccccccsccsssscsccsscccccsccsssscsccccccccccsccsssccsccccccccccsccsssscsccccccccssc" />
    <rect
       style="opacity:1;fill:#d6c35b;fill-opacity:1;stroke:none;stroke-width:0.80000001;stroke-linejoin:round;stroke-miterlimit:4;stroke-dasharray:none;stroke-dashoffset:0;stroke-opacity:1"
       id="rect22309"
       width="975"
       height="30"
       x="42.475868"
       y="1429.7787" />
    <path
       style="fill:none;fill-rule:evenodd;stroke:black;stroke-width:1.00277126px;stroke-linecap:butt;stroke-linejoin:miter;stroke-opacity:1"
       d="M 42.47587,794.78149 L 42.47587,1459.4625"
       id="path24081"
       sodipodi:nodetypes="cc" />
    <path
       sodipodi:nodetypes="cc"
       id="path24970"
       d="M 1017.5304,794.81016 L 1017.5304,1459.6792"
       style="fill:none;fill-rule:evenodd;stroke:black;stroke-width:1.00277126px;stroke-linecap:butt;stroke-linejoin:miter;stroke-opacity:1" />
    <text
       xml:space="preserve"
       style="font-size:12px;font-style:normal;font-weight:normal;fill:white;fill-opacity:1;stroke:none;stroke-width:1px;stroke-linecap:butt;stroke-linejoin:miter;stroke-opacity:1;font-family:Bitstream Vera Sans"
       x="609.02344"
       y="1450.5697"
       id="text24972"><tspan
         sodipodi:role="line"
         id="tspan24974"
         x="609.02344"
         y="1450.5697"
         style="font-size:20px;font-weight:bold;fill:white;fill-opacity:1;font-family:Arial">97.5 m</tspan></text>
    <path
       style="fill:#c5ab16;fill-opacity:0.70588235"
       d="M 635.03677,20.676686 C 631.49812,20.644786 627.93105,21.297586 624.77646,22.657486 C 615.67765,26.579786 609.62761,34.443086 594.52877,61.960486 C 593.16243,64.450686 590.58498,68.978386 588.78668,72.022086 C 584.4268,79.400786 558.77837,124.13379 554.17761,132.39129 C 552.17338,135.98829 547.7634,143.68539 544.38791,149.49599 C 541.01231,155.30649 537.13549,162.09809 535.75911,164.58829 L 533.24893,169.11599 L 515.08154,169.11599 C 505.08731,169.10889 457.03983,168.97019 408.30466,168.83309 L 319.69527,168.58149 L 315.67898,164.80839 C 308.18207,157.74629 306.07342,156.82209 290.20064,153.48919 C 284.23193,152.23589 276.87308,151.50829 270.02511,151.50829 C 260.19825,151.50829 258.02002,151.88739 245.29982,155.78439 L 231.33689,160.06059 L 206.23508,160.21789 C 192.42908,160.30569 179.66481,160.70839 177.87003,161.09819 L 174.6068,161.78999 L 174.32445,161.88429 C 174.23348,152.10639 173.94571,144.81109 173.60272,144.81109 C 173.25481,144.81109 172.96735,152.32639 172.8811,162.32439 L 166.82523,164.21099 C 166.73617,154.33649 166.44851,146.94909 166.10361,146.94919 C 165.75399,146.94919 165.46652,154.54159 165.38188,164.61979 L 159.79673,165.24859 C 159.68999,156.33219 159.42964,149.90469 159.10643,149.90479 C 158.78141,149.90479 158.52156,156.41149 158.41613,165.40579 L 152.5172,165.81459 C 152.38778,158.69059 152.13927,153.67789 151.85833,153.67789 C 151.57588,153.67789 151.32828,158.72999 151.19936,165.90889 L 150.25804,165.97179 C 145.70206,166.28299 134.97104,166.79259 126.41132,167.10369 C 104.7821,167.88989 86.319528,169.51919 83.832371,170.84539 C 82.680097,171.45969 79.693674,173.90659 77.211768,176.28479 C 73.751543,179.60029 70.590472,181.35209 63.65679,183.76809 C 58.683468,185.50089 50.642043,188.92029 45.771749,191.37719 C 28.011464,200.33669 25,203.17439 25,211.09159 C 25,217.45489 27.20426,222.09119 32.34228,226.49829 C 39.52673,232.66069 59.574261,241.32609 77.713804,246.08679 C 98.928459,251.65459 147.43549,257.83769 192.17806,260.67609 C 203.7751,261.41179 217.78191,261.83479 223.30431,261.61939 C 228.82671,261.40389 240.12252,260.95659 248.40612,260.64469 C 269.37146,259.85519 270.99775,259.55999 270.99775,256.55719 C 270.99775,254.49199 271.48433,254.14519 274.26099,254.13609 C 276.05577,254.13009 290.40145,253.22839 306.14029,252.15529 C 321.87912,251.08199 346.27808,249.49439 360.3602,248.63369 C 392.18096,246.68879 409.01344,245.31419 418.09437,243.91739 C 426.44644,242.63249 458.38418,235.88669 486.37129,229.48529 C 509.55061,224.18339 531.70888,219.22309 580.25207,208.45039 C 599.30434,204.22209 618.50723,199.89429 622.92515,198.82909 C 627.34307,197.76369 639.09071,195.06609 649.03103,192.85499 C 687.42967,184.31289 689.31944,183.79989 690.44902,181.31559 C 691.64367,178.68809 691.18932,173.91679 686.11896,138.42829 C 675.79217,66.148886 675.3308,63.486486 673.63081,61.960486 C 672.70606,61.130386 671.43671,58.640186 670.80685,56.426686 C 667.74152,45.654386 656.28536,29.739186 647.55635,24.135286 C 644.07965,21.903386 639.58653,20.717486 635.03677,20.676686 z "
       id="path11088" />
    <rect
       style="opacity:1;fill:#d6c35b;fill-opacity:1;stroke:none;stroke-width:0.80000001;stroke-linejoin:round;stroke-miterlimit:4;stroke-dasharray:none;stroke-dashoffset:0;stroke-opacity:1"
       id="rect8993"
       width="666"
       height="30"
       x="25"
       y="291.6756" />
    <text
       xml:space="preserve"
       style="font-size:12px;font-style:normal;font-weight:normal;fill:white;fill-opacity:1;stroke:none;stroke-width:1px;stroke-linecap:butt;stroke-linejoin:miter;stroke-opacity:1;font-family:Bitstream Vera Sans"
       x="499.02344"
       y="312.46661"
       id="text8995"><tspan
         sodipodi:role="line"
         id="tspan8997"
         x="499.02344"
         y="312.46661"
         style="font-size:20px;font-weight:bold;fill:white;fill-opacity:1;font-family:Arial">66.6 m</tspan></text>
    <text
       xml:space="preserve"
       style="font-size:12px;font-style:normal;font-weight:normal;fill:white;fill-opacity:1;stroke:none;stroke-width:1px;stroke-linecap:butt;stroke-linejoin:miter;stroke-opacity:1;font-family:Bitstream Vera Sans"
       x="387.52414"
       y="361.42169"
       id="text9011"><tspan
         sodipodi:role="line"
         id="tspan9013"
         x="387.52414"
         y="361.42169"
         style="font-size:20px;font-weight:bold;fill:white;fill-opacity:1;font-family:Arial">Airbus A380-800 - 79.6 m</tspan></text>
    <path
       style="fill:none;fill-rule:evenodd;stroke:black;stroke-width:1.00277126px;stroke-linecap:butt;stroke-linejoin:miter;stroke-opacity:1"
       d="M 691.00984,173.80909 L 691.00984,321.70729"
       id="path9040"
       sodipodi:nodetypes="cc" />
    <rect
       style="fill:#d6c35b;fill-opacity:1;stroke:none;stroke-width:0.80000001;stroke-linejoin:round;stroke-miterlimit:4;stroke-dasharray:none;stroke-dashoffset:0;stroke-opacity:1"
       id="rect1930"
       width="241"
       height="30"
       x="20.674999"
       y="-1040"
       transform="matrix(0,1,-1,0,0,0)" />
    <text
       xml:space="preserve"
       style="font-size:12px;font-style:normal;font-weight:normal;fill:white;fill-opacity:1;stroke:none;stroke-width:1px;stroke-linecap:butt;stroke-linejoin:miter;stroke-opacity:1;font-family:Bitstream Vera Sans"
       x="189.02344"
       y="-1018.624"
       id="text1932"
       transform="matrix(0,1,-1,0,0,0)"><tspan
         sodipodi:role="line"
         id="tspan1934"
         x="189.02344"
         y="-1018.624"
         style="font-size:20px;font-weight:bold;fill:white;fill-opacity:1;font-family:Arial">24.1 m</tspan></text>
    <text
       transform="matrix(0,1,-1,0,0,0)"
       id="text3866"
       y="-1018.624"
       x="31.222944"
       style="font-size:12px;font-style:normal;font-weight:normal;fill:white;fill-opacity:1;stroke:none;stroke-width:1px;stroke-linecap:butt;stroke-linejoin:miter;stroke-opacity:1;font-family:Bitstream Vera Sans"
       xml:space="preserve"><tspan
         style="font-size:20px;font-weight:bold;fill:white;fill-opacity:1;font-family:Arial"
         y="-1018.624"
         x="31.222944"
         id="tspan3868"
         sodipodi:role="line">Spruce Goose </tspan></text>
    <text
       id="text3870"
       y="312.46661"
       x="208.53516"
       style="font-size:12px;font-style:normal;font-weight:normal;fill:white;fill-opacity:1;stroke:none;stroke-width:1px;stroke-linecap:butt;stroke-linejoin:miter;stroke-opacity:1;font-family:Bitstream Vera Sans"
       xml:space="preserve"><tspan
         style="font-size:20px;font-weight:bold;fill:white;fill-opacity:1;font-family:Arial"
         y="312.46661"
         x="208.53516"
         id="tspan3872"
         sodipodi:role="line">Hughes H-4 Spruce Goose</tspan></text>
    <text
       id="text3898"
       y="1450.5697"
       x="313.53516"
       style="font-size:12px;font-style:normal;font-weight:normal;fill:white;fill-opacity:1;stroke:none;stroke-width:1px;stroke-linecap:butt;stroke-linejoin:miter;stroke-opacity:1;font-family:Bitstream Vera Sans"
       xml:space="preserve"><tspan
         style="font-size:20px;font-weight:bold;fill:white;fill-opacity:1;font-family:Arial"
         y="1450.5697"
         x="313.53516"
         id="tspan3900"
         sodipodi:role="line">Hughes H-4 Spruce Goose</tspan></text>
  </g>
  <g
     inkscape:groupmode="layer"
     id="layer3"
     inkscape:label="An225"
     style="display:inline">
    <path
       style="fill:#17c52b;fill-opacity:0.54901961"
       d="M 368.31848,1299.0571 C 367.17808,1295.8921 366.37603,1287.7884 365.58944,1271.4832 C 364.97676,1258.7829 363.89483,1239.1474 363.18515,1227.8488 C 361.96886,1208.4842 362.00488,1206.8716 363.81326,1199.7374 C 365.86067,1191.6601 367.51897,1189.0286 369.96851,1189.9698 C 373.04573,1191.152 374.51541,1195.2242 375.21224,1204.4989 C 375.59727,1209.6239 376.2294,1214.0132 376.61697,1214.253 C 377.00453,1214.4928 378.18906,1213.914 379.24926,1212.9668 C 380.30946,1212.0196 384.10052,1209.0027 387.67385,1206.2626 C 391.24718,1203.5227 397.78073,1198.4477 402.19285,1194.985 C 406.60497,1191.5223 416.98348,1183.4662 425.2562,1177.0825 C 433.52893,1170.6988 440.97438,1164.9213 441.80166,1164.2436 C 442.62893,1163.566 450.07438,1157.8437 458.34711,1151.5276 C 466.61984,1145.2114 473.90919,1139.5735 474.54567,1138.9989 C 475.18215,1138.4242 480.47098,1134.3398 486.29863,1129.9223 C 495.2628,1123.1272 496.89887,1121.4589 496.92376,1119.0882 C 496.93993,1117.5469 495.84561,1104.445 494.49194,1089.9728 C 490.93601,1051.956 489.77842,1017.4345 489.59485,943.93298 L 489.43251,878.92747 L 484.59075,878.61825 C 480.39269,878.35015 479.67643,878.58683 479.20322,880.39861 C 478.73405,882.19496 478.49884,882.27626 477.52708,880.97796 C 476.09698,879.06733 476.29287,879.08053 452.19684,879.27039 C 432.18236,879.42809 432.00245,879.44897 431.36345,881.68842 C 430.73082,883.90552 430.68966,883.89383 429.14123,881.05699 C 427.60978,878.25127 427.38292,878.182 421.39611,878.69211 C 418.00401,878.98114 412.40841,880.01703 408.96144,880.99411 C 403.56857,882.52276 402.69422,883.09781 402.69422,885.11595 C 402.69422,887.75717 399.9761,888.38253 399.04583,885.95533 C 398.72837,885.12705 397.64743,884.44936 396.64374,884.44936 C 395.15845,884.44936 377.63931,888.74554 355.38541,894.56704 C 352.37572,895.35435 351.47541,896.20259 350.49611,899.17351 L 349.29579,902.81497 L 347.68562,900.15803 C 346.79215,898.68372 345.17457,897.50629 344.0515,897.51277 C 339.97404,897.53632 314.12558,904.43589 313.31399,905.71735 C 312.85365,906.44419 312.4701,908.13994 312.46165,909.48567 L 312.4463,911.93246 L 309.68873,909.34665 L 306.93115,906.76085 L 291.74133,912.28667 C 277.23285,917.56462 276.52407,917.94989 275.93962,920.8757 L 275.32772,923.9389 L 273.01523,921.76376 C 271.74334,920.56743 269.82933,919.61355 268.76184,919.64402 C 267.69436,919.67448 260.27799,922.07274 252.28102,924.97349 C 237.79058,930.22962 237.73997,930.25888 237.41803,933.57035 L 237.09499,936.89313 L 234.27374,934.1869 L 231.4525,931.48069 L 216.5472,936.8518 C 202.45995,941.92813 201.62403,942.37803 201.31617,945.04908 C 201.00797,947.72304 200.8913,947.78543 199.14988,946.20754 C 197.42717,944.6466 196.64559,944.72936 186.94119,947.50049 C 175.84788,950.66821 140.44839,961.20002 135.4601,962.81678 C 131.92888,963.96129 109.96311,970.55367 104.87595,971.99574 C 102.94565,972.54292 98.71901,973.87376 95.483425,974.95317 C 92.24784,976.03258 89.436707,976.75169 89.236462,976.55119 C 89.036217,976.35071 88.572381,972.27903 88.205717,967.50303 C 87.319122,955.95467 89.490082,944.88964 93.413108,940.96182 C 94.104034,940.27005 94.822436,939.35379 95.009557,938.92568 C 95.559415,937.66768 103.56588,931.63637 104.686,931.63637 C 105.25007,931.63637 105.86199,931.25317 106.04583,930.7848 C 106.22967,930.31642 108.41066,928.79825 110.89247,927.41107 C 113.37429,926.02389 126.68586,918.43358 140.47387,910.54372 C 154.26175,902.65386 167.12207,895.31411 169.05238,894.23317 C 170.98268,893.15222 176.62318,889.91103 181.58681,887.03051 C 186.55045,884.14998 196.92896,878.26602 204.65017,873.95504 C 221.8904,864.3293 231.56285,858.77441 236.46613,855.68315 C 238.52249,854.38672 240.39691,853.32601 240.63151,853.32601 C 240.86611,853.32601 243.92165,851.68633 247.4216,849.68227 C 250.92155,847.67822 256.26697,844.68477 259.3003,843.03018 C 267.29718,838.66813 268.80753,837.0289 267.3471,834.29673 C 266.69847,833.08328 265.37299,831.2947 264.40159,830.32211 C 262.95048,828.86923 262.51745,825.97228 261.97427,814.08345 C 260.91452,790.88815 261.1528,781.82913 262.88305,779.53355 C 264.20334,777.78189 265.80097,777.48217 275.39955,777.18539 L 286.40256,776.84521 L 287.98831,780.64508 C 289.30699,783.80498 289.48092,787.32855 289.02102,801.56683 C 288.71684,810.98388 288.3354,820.0317 288.17339,821.6731 C 287.96837,823.75021 288.36001,824.75445 289.46171,824.97649 C 290.3323,825.15196 295.84689,822.11478 301.71636,818.22721 C 307.58583,814.33964 312.57541,811.15889 312.80432,811.15889 C 313.03323,811.15889 315.86657,809.42037 319.10063,807.2955 C 324.86946,803.50523 333.26081,798.15016 338.81665,794.71344 L 341.62227,792.97794 L 339.31803,789.26768 C 337.14441,785.76774 336.99397,784.38458 336.66402,764.86683 C 336.36645,747.26366 336.55733,743.70562 337.94321,741.02233 L 339.57218,737.86842 L 350.32604,737.89312 L 361.0799,737.91783 L 362.66315,741.15605 C 363.86464,743.61347 364.30806,748.2676 364.50215,760.45795 C 364.64281,769.29296 364.9027,776.66687 365.07967,776.84439 C 365.25665,777.02193 372.77704,772.54095 381.79164,766.88667 C 390.80625,761.23238 402.80703,753.71283 408.46006,750.17654 L 418.7383,743.74693 L 418.7383,720.77534 C 418.7383,705.48106 419.12723,696.94911 419.90202,695.24655 C 421.04843,692.72738 421.23301,692.68936 432.32112,692.68936 C 446.65958,692.68936 446.39395,692.37282 447.38587,710.64193 C 447.78091,717.918 448.39684,724.05227 448.75459,724.27364 C 449.11233,724.49502 450.51452,723.79522 451.87057,722.71853 C 453.2266,721.64185 462.4584,715.43922 472.38568,708.9349 L 490.43526,697.10888 L 490.52569,632.90342 C 490.63319,556.57407 491.46005,541.0137 496.52489,520.00497 C 502.82465,493.87388 510.97462,476.44114 521.1686,467.29216 C 526.48415,462.52151 529.34628,461.58473 533.41106,463.28518 C 537.25611,464.89371 545.90747,474.06251 549.81244,480.66755 C 553.46641,486.84803 558.80338,501.40643 562.76097,515.98905 C 568.50376,537.14962 569.37854,551.8725 569.52592,629.84535 L 569.65288,697.01661 L 590.44428,710.84632 C 601.87955,718.45265 611.41506,724.36882 611.63429,723.99337 C 611.85352,723.61791 612.36268,717.45683 612.76575,710.30208 C 613.77806,692.33296 613.47075,692.68936 627.9528,692.68936 C 639.31148,692.68936 639.40102,692.70793 640.37191,695.26467 C 640.90977,696.68108 641.34984,708.163 641.34984,720.78003 L 641.34984,743.72006 L 646.61431,747.02441 C 649.50976,748.8418 654.13497,751.7303 656.89254,753.4433 C 659.65012,755.15631 669.21429,761.16264 678.14626,766.79073 C 687.07823,772.41881 694.57965,777.0236 694.81609,777.0236 C 695.05253,777.0236 695.44108,769.13654 695.67952,759.49681 C 696.23236,737.14767 695.74954,737.86842 710.16821,737.86842 L 720.51596,737.86842 L 722.14493,741.02233 C 723.53082,743.70562 723.72169,747.26366 723.42412,764.86683 C 723.10289,783.86928 722.8988,785.8548 720.92275,789.20223 L 718.77116,792.84704 L 728.74312,799.24202 C 739.64662,806.23441 744.47182,809.34903 758.34278,818.34828 C 763.40103,821.62999 768.75704,824.53606 770.24503,824.80621 C 772.84025,825.27739 772.92133,825.16277 772.23525,821.99307 C 771.84189,820.17569 771.29993,810.92827 771.03091,801.44324 C 770.60768,786.52163 770.77486,783.70596 772.27152,780.54812 L 774.00128,776.89848 L 784.88397,777.13162 C 799.96231,777.45464 799.22495,775.92689 798.53114,805.40726 L 797.99006,828.3987 L 795.37793,831.12849 C 790.83174,835.87948 791.71229,837.52892 802.04129,843.61024 C 812.45399,849.74085 816.8784,852.25992 824.80608,856.5716 C 827.81308,858.20703 833.45358,861.36495 837.34052,863.5892 C 841.22746,865.81344 846.43825,868.76824 848.92007,870.15543 C 863.19275,878.13298 877.19017,886.09001 882.01097,888.96642 C 885.04431,890.7763 895.64844,896.89014 905.57571,902.55272 C 915.50298,908.21529 930.39389,916.7091 938.66661,921.42785 C 956.08035,931.36062 963.05981,936.24915 966.75778,941.10336 C 970.738,946.32807 972.55382,955.41728 971.8664,966.67495 C 971.54946,971.86536 971.13666,976.26574 970.94906,976.45357 C 970.63266,976.77035 950.48508,970.88422 940.17075,967.46166 C 937.68893,966.63813 919.28501,961.12156 899.27315,955.20263 C 864.66323,944.96601 862.79549,944.52471 860.99283,946.15809 C 859.17975,947.80091 859.08361,947.7529 858.77197,945.04908 C 858.46412,942.37803 857.62819,941.92813 843.54094,936.8518 L 828.63564,931.48069 L 825.8144,934.1869 L 822.99315,936.89313 L 822.67012,933.58148 C 822.34996,930.29944 822.22837,930.227 809.06979,925.47845 C 791.02133,918.96528 789.56594,918.74143 786.94637,922.07574 L 784.85811,924.73377 L 784.20682,921.25789 C 783.61019,918.07368 783.03742,917.59793 777.38106,915.58832 C 773.98509,914.3818 767.72403,912.07755 763.46758,910.46776 C 754.23883,906.97745 752.56102,906.87694 750.05346,909.66414 L 748.14322,911.7874 L 747.64184,908.42845 L 747.14047,905.06951 L 735.10741,901.80946 C 728.48923,900.01644 720.97292,898.26091 718.4045,897.90829 C 714.02097,897.30648 713.64419,897.44003 712.25919,900.0866 L 710.78374,902.90605 L 710.06757,899.64137 C 709.61423,897.57481 708.51763,896.05931 707.07951,895.51187 C 703.09436,893.99487 665.42889,884.44936 663.42813,884.44936 C 662.37018,884.44936 661.09034,885.19048 660.58405,886.09629 C 659.47236,888.0852 657.39392,887.05391 657.39392,884.51338 C 657.39392,883.06044 655.66204,882.25305 648.90679,880.55672 C 644.23887,879.38454 638.5766,878.42549 636.32395,878.42549 C 632.6531,878.42549 632.0859,878.76397 630.85616,881.68842 L 629.48408,884.95135 L 628.79035,882.19041 C 628.39362,880.61148 627.39189,879.41199 626.4505,879.38863 C 625.54515,879.36617 615.55398,879.36366 604.24792,879.38305 C 586.99265,879.41264 583.50992,879.6648 582.56106,880.95324 C 581.5812,882.28379 581.35801,882.20993 580.88492,880.39861 C 580.41171,878.58683 579.69545,878.35015 575.49739,878.61825 L 570.65564,878.92747 L 570.49157,942.42834 C 570.329,1005.3505 569.03707,1055.8078 567.11761,1074.2014 C 564.89673,1095.4834 563.13114,1115.0631 563.133,1118.3892 C 563.1345,1121.0571 563.79415,1122.4017 565.84196,1123.9111 C 567.33081,1125.0085 571.7304,1128.3942 575.61882,1131.4348 C 579.50725,1134.4755 587.42671,1140.5522 593.21762,1144.9387 C 603.11128,1152.4329 611.51906,1158.9263 617.28373,1163.5251 C 623.466,1168.457 625.50165,1170.0417 636.94375,1178.8296 C 661.12098,1197.3985 678.00024,1210.5389 680.38525,1212.6485 C 681.72443,1213.8331 683.16695,1214.4536 683.59087,1214.0274 C 684.01477,1213.6012 684.68089,1208.9604 685.07111,1203.7146 C 685.8353,1193.4418 687.42982,1189.745 691.11994,1189.6906 C 693.39767,1189.6569 693.41513,1189.6935 696.42897,1200.7959 C 698.10221,1206.9597 698.13353,1208.8926 696.88439,1228.9073 C 696.14666,1240.7281 695.06324,1260.3391 694.47682,1272.4872 C 693.73808,1287.7906 692.92305,1295.9188 691.8233,1298.9504 C 689.82419,1304.4613 688.90667,1303.1492 688.00228,1293.4863 C 687.1931,1284.8406 685.41349,1282.401 683.07147,1286.7268 L 681.54033,1289.5548 L 681.49862,1286.5429 C 681.47568,1284.8863 680.66795,1282.0143 679.70366,1280.1603 C 678.14578,1277.1653 675.88303,1275.8688 659.39943,1268.5262 C 649.1964,1263.9813 637.91541,1258.9035 634.33056,1257.2422 C 630.74571,1255.5808 621.94654,1251.6419 614.77684,1248.489 C 607.60715,1245.3362 600.88838,1242.287 599.84624,1241.7132 C 592.27287,1237.543 547.28206,1217.7703 545.36652,1217.7703 C 544.48242,1217.7703 544.08264,1219.4507 544.08264,1223.1667 C 544.08264,1232.1192 543.17464,1234.7491 539.17836,1237.3716 C 535.73361,1239.6321 532.68614,1239.9413 523.43145,1238.9693 C 522.82784,1238.9058 521.07899,1237.7742 519.54513,1236.4547 C 517.07119,1234.3263 516.70531,1233.221 516.3047,1226.6659 C 516.05633,1222.6016 515.6816,1218.7263 515.47197,1218.0542 C 515.02738,1216.6285 512.88575,1217.4258 497.0827,1224.8998 C 491.36304,1227.6049 486.54369,1229.8181 486.37305,1229.8181 C 486.2024,1229.8181 483.21105,1231.1241 479.72561,1232.7203 C 476.24016,1234.3165 470.68099,1236.8483 467.3719,1238.3464 C 449.15574,1246.5934 430.48529,1255.0673 424.75483,1257.689 C 414.23104,1262.5034 407.94179,1265.3313 395.17356,1270.9899 C 388.55538,1273.9229 382.37557,1277.1734 381.44065,1278.2131 C 380.50573,1279.2529 379.42831,1282.19 379.04638,1284.74 L 378.35197,1289.3762 L 376.91876,1286.6375 C 374.74609,1282.4857 372.87525,1284.9217 372.12437,1292.8799 C 371.77593,1296.5731 371.14044,1300.4823 370.71217,1301.5671 C 370.05656,1303.2277 369.67832,1302.8312 368.31848,1299.0571 z "
       id="path3851" />
    <rect
       style="opacity:1;fill:#80df8b;fill-opacity:1;stroke:none;stroke-width:0.80000001;stroke-linejoin:round;stroke-miterlimit:4;stroke-dasharray:none;stroke-dashoffset:0;stroke-opacity:1"
       id="rect1890"
       width="884"
       height="30"
       x="88"
       y="1389.7787" />
    <path
       style="fill:none;fill-rule:evenodd;stroke:black;stroke-width:1.00277126px;stroke-linecap:butt;stroke-linejoin:miter;stroke-opacity:1"
       d="M 88.048882,962.35877 L 88.048882,1419.4269"
       id="path1892"
       sodipodi:nodetypes="cc" />
    <path
       style="fill:none;fill-rule:evenodd;stroke:black;stroke-width:1.00277126px;stroke-linecap:butt;stroke-linejoin:miter;stroke-opacity:1"
       d="M 971.88908,962.40007 L 971.88908,1419.8101"
       id="path1894"
       sodipodi:nodetypes="cc" />
    <text
       id="text3894"
       y="1410.3871"
       x="441.54959"
       style="font-size:12px;font-style:normal;font-weight:normal;fill:white;fill-opacity:1;stroke:none;stroke-width:1px;stroke-linecap:butt;stroke-linejoin:miter;stroke-opacity:1;font-family:Bitstream Vera Sans"
       xml:space="preserve"><tspan
         style="font-size:20px;font-weight:bold;fill:white;fill-opacity:1;font-family:Arial"
         y="1410.3871"
         x="441.54959"
         id="tspan3896"
         sodipodi:role="line">An-225 Mriya </tspan></text>
    <text
       xml:space="preserve"
       style="font-size:12px;font-style:normal;font-weight:normal;fill:white;fill-opacity:1;stroke:none;stroke-width:1px;stroke-linecap:butt;stroke-linejoin:miter;stroke-opacity:1;font-family:Bitstream Vera Sans"
       x="609.02344"
       y="1410.3871"
       id="text1899"><tspan
         sodipodi:role="line"
         id="tspan1901"
         x="609.02344"
         y="1410.3871"
         style="font-size:20px;font-weight:bold;fill:white;fill-opacity:1;font-family:Arial">88.4 m</tspan></text>
    <path
       style="fill:#16c52b;fill-opacity:0.54901961"
       d="M 839.76233,80.676786 C 838.61274,80.685886 837.28363,80.724486 835.70081,80.833086 C 822.40447,81.745086 824.9403,79.704886 775.93406,129.88949 C 761.81923,144.34359 750.75266,156.45209 750.75266,157.46609 C 750.75266,159.08789 747.58183,159.68589 720.01012,163.12519 L 689.26758,166.93959 L 633.78103,165.72029 C 603.26343,165.04799 567.27216,163.80999 553.80043,162.96889 C 535.71176,161.83909 502.61055,161.29779 427.20613,160.93649 C 323.53794,160.43979 311.53344,160.73689 286.36529,164.21949 C 277.7083,165.41729 257.0003,165.90949 189.0139,166.59569 C 141.51266,167.07489 101.57521,167.74119 100.28542,168.06519 C 98.99563,168.38919 94.46522,171.32129 90.19412,174.56849 C 84.280301,179.06469 80.626711,180.99639 74.916571,182.66649 C 61.844704,186.48889 43.430414,195.71879 32.426883,203.98989 C 23.821669,210.45789 23.024113,213.92059 28.334125,221.81149 C 33.935646,230.13559 42.569834,234.07619 54.921424,233.94269 C 59.872714,233.88919 66.834211,234.84199 75.416451,236.78789 C 112.71389,245.24469 152.48081,247.82379 251.87366,248.23119 C 303.35918,248.44229 320.34984,248.84019 331.35438,250.07599 C 338.5838,250.88749 348.77235,251.58609 354.87992,251.67049 C 355.27591,251.67599 355.70794,251.67009 356.06714,251.67049 L 366.81453,251.67049 L 366.81453,251.70179 L 367.93926,251.70179 C 366.34358,252.78069 365.28366,254.60159 365.28365,256.67299 C 365.28365,258.76039 366.35411,260.59989 367.9705,261.67559 L 374.59389,261.67559 C 376.21028,260.59989 377.28074,258.76039 377.28074,256.67299 C 377.28074,254.60159 376.22082,252.78069 374.62514,251.70179 L 374.84383,251.70179 L 374.81259,251.67049 L 379.3115,251.67049 C 380.46197,251.67049 381.33159,251.68659 381.99835,251.73299 L 382.15456,251.73299 L 384.87265,251.73299 C 383.30874,252.81669 382.27952,254.62619 382.27953,256.67299 C 382.27953,258.76039 383.34999,260.59989 384.96638,261.67559 L 391.58977,261.67559 C 393.20616,260.59989 394.27663,258.76039 394.27662,256.67299 C 394.27662,254.63269 393.23891,252.84909 391.6835,251.76429 L 394.3391,251.76429 C 394.8046,251.70589 395.44414,251.67049 396.33862,251.67049 C 397.27764,251.67049 397.93215,251.69769 398.40062,251.76429 L 400.83753,251.76429 C 399.29368,252.85059 398.27566,254.64169 398.27565,256.67299 C 398.27565,258.76039 399.34611,260.59989 400.9625,261.67559 L 407.58589,261.67559 C 409.20228,260.59989 410.27275,258.76039 410.27274,256.67299 C 410.27274,254.65729 409.26596,252.88429 407.7421,251.79549 L 411.42871,251.79549 C 412.01729,251.72539 412.71167,251.67049 413.58444,251.67049 C 414.60482,251.67049 415.29228,251.69129 415.77141,251.79549 L 418.64571,251.79549 C 417.12184,252.88429 416.11506,254.65729 416.11507,256.67299 C 416.11507,258.76999 417.20431,260.60209 418.83316,261.67559 L 425.39407,261.67559 C 427.02292,260.60209 428.11215,258.76999 428.11216,256.67299 C 428.11216,254.67279 427.11672,252.91779 425.61277,251.82689 L 435.89153,251.82689 C 434.39904,252.91899 433.42339,254.68179 433.42338,256.67299 C 433.42338,258.76999 434.51262,260.60209 436.14147,261.67559 L 442.70238,261.67559 C 444.33122,260.60209 445.42047,258.76999 445.42047,256.67299 C 445.42047,254.69739 444.45625,252.95209 442.98356,251.85809 L 452.5125,251.88939 C 451.05954,252.98509 450.10682,254.71289 450.10683,256.67299 C 450.10683,258.76999 451.19607,260.60209 452.82492,261.67559 L 459.41707,261.67559 C 461.05373,260.60179 462.13517,258.76889 462.13516,256.67299 C 462.13516,254.71289 461.19138,252.98509 459.7295,251.88939 L 469.63334,251.92059 C 468.20004,253.01779 467.25892,254.72849 467.25892,256.67299 C 467.25892,258.76039 468.32938,260.59989 469.94577,261.67559 L 476.56916,261.67559 C 478.18556,260.59989 479.25602,258.76039 479.25601,256.67299 C 479.25601,254.73749 478.33483,253.01859 476.91283,251.92059 L 488.53501,251.95189 L 527.49431,247.29319 C 580.95898,240.89339 619.19762,234.76129 639.2797,229.37789 C 646.42797,227.46149 664.87349,222.64629 680.26976,218.68489 C 707.40484,211.70289 714.90123,209.34319 755.25157,195.07899 C 765.69904,191.38569 775.59664,188.34279 777.24624,188.32559 C 778.89584,188.30839 784.06958,190.06129 788.74345,192.20249 C 795.94904,195.50379 798.50291,196.13389 805.48939,196.45469 C 815.95264,196.93529 831.48971,193.64299 835.57584,190.07649 C 835.76445,189.91189 836.89901,183.35509 838.10648,175.50649 L 840.29345,161.24919 L 852.0406,159.56079 C 868.94291,157.14349 869.19574,156.32419 853.47775,154.49579 C 847.29545,153.77659 842.72895,152.79879 842.73036,152.18209 C 842.7317,151.59329 845.21661,136.73589 848.26027,119.16519 C 851.30395,101.59439 853.57949,86.621086 853.2903,85.866886 C 853.0011,85.112586 850.62587,83.540286 848.04157,82.396386 C 845.12192,81.103886 843.2111,80.649186 839.76233,80.676786 z M 131.59033,250.38859 C 128.23913,250.38859 125.49806,253.10039 125.49806,256.45419 C 125.49806,258.67979 126.71209,260.61739 128.49733,261.67559 L 134.65209,261.67559 C 136.43732,260.61739 137.65136,258.67979 137.65136,256.45419 C 137.65136,253.10039 134.94153,250.38859 131.59033,250.38859 z "
       id="path6570" />
    <rect
       style="opacity:1;fill:#80df8b;fill-opacity:1;stroke:none;stroke-width:0.80000001;stroke-linejoin:round;stroke-miterlimit:4;stroke-dasharray:none;stroke-dashoffset:0;stroke-opacity:1"
       id="rect8999"
       width="840"
       height="30"
       x="25"
       y="411.6756" />
    <text
       xml:space="preserve"
       style="font-size:12px;font-style:normal;font-weight:normal;fill:white;fill-opacity:1;stroke:none;stroke-width:1px;stroke-linecap:butt;stroke-linejoin:miter;stroke-opacity:1;font-family:Bitstream Vera Sans"
       x="499.02344"
       y="432.284"
       id="text9001"><tspan
         sodipodi:role="line"
         id="tspan9003"
         x="499.02344"
         y="432.284"
         style="font-size:20px;font-weight:bold;fill:white;fill-opacity:1;font-family:Arial">84.0 m</tspan></text>
    <path
       style="fill:none;fill-rule:evenodd;stroke:black;stroke-width:1.00277126px;stroke-linecap:butt;stroke-linejoin:miter;stroke-opacity:1"
       d="M 865.00701,156.67309 L 865.00701,441.64739"
       id="path9038"
       sodipodi:nodetypes="cc" />
    <rect
       style="fill:#80df8b;fill-opacity:1;stroke:none;stroke-width:0.80000001;stroke-linejoin:round;stroke-miterlimit:4;stroke-dasharray:none;stroke-dashoffset:0;stroke-opacity:1"
       id="rect1940"
       width="181"
       height="30"
       x="80.675003"
       y="-920"
       transform="matrix(0,1,-1,0,0,0)" />
    <text
       xml:space="preserve"
       style="font-size:12px;font-style:normal;font-weight:normal;fill:white;fill-opacity:1;stroke:none;stroke-width:1px;stroke-linecap:butt;stroke-linejoin:miter;stroke-opacity:1;font-family:Bitstream Vera Sans"
       x="91.759109"
       y="-898.2215"
       id="text1942"
       transform="matrix(0,1,-1,0,0,0)"><tspan
         sodipodi:role="line"
         id="tspan1944"
         x="91.759109"
         y="-898.2215"
         style="font-size:20px;font-weight:bold;fill:white;fill-opacity:1;font-family:Arial">An-225 </tspan></text>
    <path
       style="fill:none;fill-rule:evenodd;stroke:black;stroke-width:1.00277126px;stroke-linecap:butt;stroke-linejoin:miter;stroke-opacity:1"
       d="M 919.99801,80.678786 L 840.62808,80.678786"
       id="path2020"
       sodipodi:nodetypes="cc" />
    <text
       transform="matrix(0,1,-1,0,0,0)"
       id="text3848"
       y="-898.2215"
       x="189.02344"
       style="font-size:12px;font-style:normal;font-weight:normal;fill:white;fill-opacity:1;stroke:none;stroke-width:1px;stroke-linecap:butt;stroke-linejoin:miter;stroke-opacity:1;font-family:Bitstream Vera Sans"
       xml:space="preserve"><tspan
         style="font-size:20px;font-weight:bold;fill:white;fill-opacity:1;font-family:Arial"
         y="-898.2215"
         x="189.02344"
         id="tspan3850"
         sodipodi:role="line">18.1 m</tspan></text>
    <text
       id="text3882"
       y="432.284"
       x="335.625"
       style="font-size:12px;font-style:normal;font-weight:normal;fill:white;fill-opacity:1;stroke:none;stroke-width:1px;stroke-linecap:butt;stroke-linejoin:miter;stroke-opacity:1;font-family:Bitstream Vera Sans"
       xml:space="preserve"><tspan
         style="font-size:20px;font-weight:bold;fill:white;fill-opacity:1;font-family:Arial"
         y="432.284"
         x="335.625"
         id="tspan3884"
         sodipodi:role="line">An-225 Mriya</tspan></text>
  </g>
  <g
     inkscape:label="A380"
     inkscape:groupmode="layer"
     id="layer1"
     style="display:inline">
    <rect
       style="opacity:1;fill:#e49292;fill-opacity:1;stroke:none;stroke-width:0.80000001;stroke-linejoin:round;stroke-miterlimit:4;stroke-dasharray:none;stroke-dashoffset:0;stroke-opacity:1"
       id="rect9005"
       width="730"
       height="30"
       x="25"
       y="331.6756" />
    <path
       style="fill:#c51717;fill-opacity:0.47058824"
       d="M 528.73717,1219.1139 C 528.10157,1205.3798 527.68704,1202.847 524.5881,1193.762 C 522.69449,1188.2106 521.14518,1182.9467 521.14518,1182.0645 C 521.14518,1181.1822 520.70076,1180.1856 520.15757,1179.8498 C 519.61438,1179.5139 488.07374,1190.5587 450.06727,1204.3937 C 412.0608,1218.2287 380.70529,1229.2888 380.38837,1228.9718 C 379.64773,1228.2309 383.87772,1202.5332 385.81395,1196.0108 C 387.79302,1189.3441 391.10992,1184.3037 396.31064,1180.0602 C 400.79105,1176.4044 426.86507,1156.533 470.31454,1123.6607 C 484.24381,1113.1223 497.51298,1102.7604 499.80159,1100.6343 C 506.01156,1094.8651 506.16978,1092.4362 501.81147,1069.7807 C 496.12287,1040.2103 495.02769,1025.8867 494.50546,974.22751 C 494.25233,949.18857 493.60041,926.75034 493.05673,924.36477 C 491.47955,917.4443 489.22035,898.93557 488.49547,886.99604 C 487.85894,876.51189 487.73015,876.02057 485.73304,876.45824 C 480.92023,877.51298 440.5924,888.39417 439.89258,888.82685 C 439.47321,889.08612 439.12758,889.83451 439.12451,890.48992 C 439.11274,893.0042 436.99386,899.18574 436.14381,899.18574 C 435.65327,899.18574 434.9482,897.15961 434.57698,894.68323 C 434.20576,892.20685 433.84062,890.18844 433.76556,890.19787 C 430.6152,890.59367 416.15123,895.0594 408.96256,897.85575 L 399.2988,901.6149 L 398.16025,907.40421 C 397.53404,910.58834 396.64675,913.19353 396.1885,913.19353 C 395.21042,913.19353 394.15489,909.67837 394.13546,906.3564 C 394.12795,905.07234 393.7514,904.17184 393.29866,904.35528 C 392.84594,904.53872 385.20857,907.61543 376.32672,911.19242 L 360.17791,917.69604 L 359.6217,922.19855 C 358.47504,931.48078 355.80601,943.30124 355.0332,942.5198 C 354.59242,942.07408 353.916,937.09434 353.53004,931.4537 C 353.14409,925.81306 352.59663,921.19799 352.31347,921.19799 C 352.03031,921.19799 344.01101,924.18954 334.49279,927.84587 L 317.18695,934.49376 L 316.56923,939.10214 C 315.02602,950.61471 313.51105,957.71832 312.599,957.71832 C 312.0532,957.71832 311.21193,953.30213 310.72952,947.90458 C 310.14514,941.36586 309.47757,938.23073 308.72915,938.51005 C 308.11136,938.74062 300.14009,941.7719 291.01524,945.24625 L 274.42458,951.56324 L 273.3204,961.00257 C 271.75878,974.35236 270.63989,974.97163 269.17454,963.29715 C 268.67425,959.3114 268.05323,955.83855 267.79447,955.57971 C 267.25668,955.04172 262.42869,957.00242 238.59319,967.43866 C 229.24147,971.53326 203.13667,982.90438 180.58252,992.70786 C 158.02837,1002.5113 138.11219,1011.6168 136.32436,1012.9423 C 133.41941,1015.096 133.07376,1015.8788 133.07376,1020.3041 C 133.07376,1023.0276 132.62368,1025.256 132.07358,1025.256 C 130.62141,1025.256 130.82955,1019.8833 133.02666,1000.6543 C 135.25926,981.11476 137.28213,974.54556 143.10371,967.92944 C 145.28288,965.45284 157.08255,956.0473 169.32519,947.02823 C 181.56783,938.00915 200.81124,923.7794 212.08831,915.40656 C 223.36539,907.03371 240.04374,894.66832 249.1513,887.92792 L 265.71051,875.67265 L 264.61047,871.17014 C 263.78756,867.80194 262.98086,866.59054 261.40837,866.36162 C 259.8519,866.13505 259.01954,864.91633 258.20146,861.66619 C 256.72155,855.78676 256.86963,821.34893 258.41013,813.13784 L 259.63028,806.63421 L 275.87115,806.72208 C 284.80362,806.77041 292.44756,807.14449 292.85766,807.55336 C 294.0085,808.70072 294.33724,842.89815 293.26241,849.65817 C 292.73742,852.96 292.44269,855.80494 292.60744,855.98024 C 292.77218,856.15555 299.81489,851.16081 308.2579,844.88082 C 338.62723,822.29181 371.64339,797.96642 372.94046,797.22449 C 375.06356,796.01007 373.02839,789.7022 370.38873,789.31555 C 368.61696,789.05604 368.06407,787.85047 366.94721,781.81138 C 365.18569,772.2866 365.21597,741.40357 366.99373,734.34397 L 368.31654,729.09105 L 383.96968,729.10637 C 392.5789,729.11479 400.29794,729.54955 401.12309,730.07249 C 402.38059,730.86944 402.62337,734.50025 402.62337,752.50929 C 402.62337,773.92463 402.62995,773.9894 404.62374,772.20615 C 405.72394,771.22212 424.24416,755.73127 445.77977,737.78203 C 477.86559,711.03952 485.76643,703.95784 489.53782,698.5608 L 494.14021,691.97457 L 494.16829,673.76234 C 494.25115,620.02219 498.09716,575.89772 505.19636,547.23946 C 509.01011,531.84404 512.16934,523.3383 517.31255,514.61858 C 520.61693,509.01638 522.1612,507.40582 525.75192,505.81689 C 530.10442,503.89085 530.18925,503.89085 534.54175,505.81689 C 538.13247,507.40582 539.67674,509.01638 542.98112,514.61858 C 558.11655,540.27894 566.00318,594.50875 566.12537,673.76234 L 566.15346,691.97457 L 570.75585,698.5608 C 574.52724,703.95784 582.42808,711.03952 614.5139,737.78203 C 636.04951,755.73127 654.56973,771.22212 655.66993,772.20615 C 657.66372,773.9894 657.6703,773.92463 657.6703,752.50929 C 657.6703,734.50025 657.91308,730.86944 659.17057,730.07249 C 659.99573,729.54955 667.71477,729.11479 676.32399,729.10637 L 691.97713,729.09105 L 693.29993,734.34397 C 695.0777,741.40357 695.10798,772.2866 693.34646,781.81138 C 692.2296,787.85047 691.67671,789.05604 689.90494,789.31555 C 687.26528,789.7022 685.23011,796.01007 687.35321,797.22449 C 688.65028,797.96642 721.66644,822.29181 752.03577,844.88082 C 760.47877,851.16081 767.52149,856.15555 767.68623,855.98024 C 767.85098,855.80494 767.55625,852.96 767.03126,849.65817 C 765.95643,842.89815 766.28517,808.70072 767.436,807.55336 C 767.84611,807.14449 775.49005,806.77041 784.42252,806.72208 L 800.66339,806.63421 L 801.88354,813.13784 C 803.42404,821.34893 803.57212,855.78676 802.09221,861.66619 C 801.27413,864.91633 800.44177,866.13505 798.8853,866.36162 C 797.31281,866.59054 796.50611,867.80194 795.6832,871.17014 L 794.58316,875.67265 L 811.14237,887.92792 C 820.24993,894.66832 836.92828,907.03371 848.20536,915.40656 C 859.48243,923.7794 878.72583,938.00915 890.96847,947.02823 C 903.21112,956.0473 915.01079,965.45284 917.18996,967.92944 C 923.01154,974.54556 925.0344,981.11476 927.267,1000.6543 C 929.46412,1019.8833 929.67226,1025.256 928.22008,1025.256 C 927.66998,1025.256 927.21989,1023.0276 927.21989,1020.3041 C 927.21989,1015.8788 926.87426,1015.096 923.9693,1012.9423 C 922.18147,1011.6168 902.2653,1002.5113 879.71115,992.70786 C 857.157,982.90438 831.0522,971.53326 821.70048,967.43866 C 797.86498,957.00242 793.03699,955.04172 792.4992,955.57971 C 792.24044,955.83855 791.61941,959.3114 791.11913,963.29715 C 789.65378,974.97163 788.53489,974.35236 786.97327,961.00257 L 785.86909,951.56324 L 769.27843,945.24625 C 760.15357,941.7719 752.18231,938.74062 751.56451,938.51005 C 750.8161,938.23073 750.14853,941.36586 749.56415,947.90458 C 749.08174,953.30213 748.24047,957.71832 747.69467,957.71832 C 746.78261,957.71832 745.26765,950.61471 743.72444,939.10214 L 743.10672,934.49376 L 725.80087,927.84587 C 716.28266,924.18954 708.26336,921.19799 707.9802,921.19799 C 707.69704,921.19799 707.14958,925.81306 706.76363,931.4537 C 706.37767,937.09434 705.70125,942.07408 705.26046,942.5198 C 704.48766,943.30124 701.81863,931.48078 700.67197,922.19855 L 700.11576,917.69604 L 683.96695,911.19242 C 675.0851,907.61543 667.44773,904.53872 666.995,904.35528 C 666.54227,904.17184 666.16572,905.07234 666.15821,906.3564 C 666.13878,909.67837 665.08325,913.19353 664.10517,913.19353 C 663.64692,913.19353 662.75962,910.58834 662.13342,907.40421 L 660.99487,901.6149 L 651.33111,897.85575 C 644.14244,895.0594 629.67847,890.59367 626.52811,890.19787 C 626.45304,890.18844 626.08791,892.20685 625.71669,894.68323 C 625.34547,897.15961 624.6404,899.18574 624.14986,899.18574 C 623.2998,899.18574 621.18092,893.0042 621.16916,890.48992 C 621.16609,889.83451 620.82046,889.08612 620.40109,888.82685 C 619.70127,888.39417 579.37344,877.51298 574.56063,876.45824 C 572.56352,876.02057 572.43473,876.51189 571.7982,886.99604 C 571.07331,898.93557 568.81412,917.4443 567.23694,924.36477 C 566.69326,926.75034 566.04134,949.18857 565.78821,974.22751 C 565.26598,1025.8867 564.17079,1040.2103 558.4822,1069.7807 C 554.12389,1092.4362 554.28211,1094.8651 560.49208,1100.6343 C 562.78069,1102.7604 576.04986,1113.1223 589.97913,1123.6607 C 633.4286,1156.533 659.50262,1176.4044 663.98303,1180.0602 C 669.18375,1184.3037 672.50065,1189.3441 674.47972,1196.0108 C 676.41595,1202.5332 680.64594,1228.2309 679.9053,1228.9718 C 679.58838,1229.2888 648.23287,1218.2287 610.2264,1204.3937 C 572.21993,1190.5587 540.67929,1179.5139 540.1361,1179.8498 C 539.59291,1180.1856 539.14849,1181.1822 539.14849,1182.0645 C 539.14849,1182.9467 537.59918,1188.2106 535.70557,1193.762 C 532.60663,1202.847 532.1921,1205.3798 531.5565,1219.1139 C 531.16812,1227.506 530.53378,1234.3724 530.14683,1234.3724 C 529.75989,1234.3724 529.12555,1227.506 528.73717,1219.1139 z "
       id="path1937" />
    <path
       style="fill:black"
       d=""
       id="path1933" />
    <rect
       style="opacity:1;fill:#e49292;fill-opacity:1;stroke:none;stroke-width:0.80000001;stroke-linejoin:round;stroke-miterlimit:4;stroke-dasharray:none;stroke-dashoffset:0;stroke-opacity:1"
       id="rect1903"
       width="798"
       height="30"
       x="131"
       y="1349.7786" />
    <text
       id="text3890"
       y="1371.3322"
       x="410.55478"
       style="font-size:12px;font-style:normal;font-weight:normal;fill:white;fill-opacity:1;stroke:none;stroke-width:1px;stroke-linecap:butt;stroke-linejoin:miter;stroke-opacity:1;font-family:Bitstream Vera Sans"
       xml:space="preserve"><tspan
         style="font-size:20px;font-weight:bold;fill:white;fill-opacity:1;font-family:Arial"
         y="1371.3322"
         x="410.55478"
         id="tspan3892"
         sodipodi:role="line">Airbus A380-800</tspan></text>
    <text
       xml:space="preserve"
       style="font-size:12px;font-style:normal;font-weight:normal;fill:white;fill-opacity:1;stroke:none;stroke-width:1px;stroke-linecap:butt;stroke-linejoin:miter;stroke-opacity:1;font-family:Bitstream Vera Sans"
       x="609.02344"
       y="1371.3322"
       id="text1909"><tspan
         sodipodi:role="line"
         id="tspan1911"
         x="609.02344"
         y="1371.3322"
         style="font-size:20px;font-weight:bold;fill:white;fill-opacity:1;font-family:Arial">79.8 m</tspan></text>
    <path
       style="fill:none;fill-rule:evenodd;stroke:black;stroke-width:1.00277126px;stroke-linecap:butt;stroke-linejoin:miter;stroke-opacity:1"
       d="M 131.10728,1020.8704 L 131.10728,1379.6077"
       id="path1913"
       sodipodi:nodetypes="cc" />
    <path
       style="fill:none;fill-rule:evenodd;stroke:black;stroke-width:1.00277126px;stroke-linecap:butt;stroke-linejoin:miter;stroke-opacity:1"
       d="M 929.0154,1020.865 L 929.0154,1379.6023"
       id="path1916"
       sodipodi:nodetypes="cc" />
    <text
       xml:space="preserve"
       style="font-size:12px;font-style:normal;font-weight:normal;fill:white;fill-opacity:1;stroke:none;stroke-width:1px;stroke-linecap:butt;stroke-linejoin:miter;stroke-opacity:1;font-family:Bitstream Vera Sans"
       x="430"
       y="1339.5248"
       id="text1920"><tspan
         sodipodi:role="line"
         id="tspan1922"
         x="430"
         y="1339.5248"
         style="font-size:20px;font-weight:bold;fill:white;fill-opacity:1;font-family:Arial">Airbus A380-800 - 79.6 m</tspan></text>
    <path
       style="fill:#c51515;fill-opacity:0.47058824"
       d="M 755.00001,20.675586 L 734.68804,21.206886 C 705.06101,21.975686 709.1879,19.741786 678.12703,51.804586 C 663.98579,66.401986 585.78365,146.92039 583.81702,148.28589 C 575.71928,153.90789 582.85115,153.72399 359.88543,153.72409 C 184.24295,153.72409 152.87332,153.95669 139.67249,155.25559 C 94.20718,159.72859 71.419696,167.60339 50.799826,186.00959 C 47.208386,189.21539 41.730676,193.59189 38.612646,195.72949 C 28.043276,202.97609 23.138266,211.31359 25.644236,217.82619 C 28.807576,226.04689 46.318616,232.49949 73.767966,235.54719 C 98.57864,238.30189 109.99522,238.73899 176.29652,239.54769 C 215.35517,240.02429 248.28029,241.12239 249.57584,241.11039 C 252.07144,241.08759 251.60069,241.24689 251.82578,245.14229 C 251.99806,248.12379 252.16243,248.54719 255.07569,249.01779 C 256.86359,249.30629 259.45023,249.73779 260.82554,249.98659 C 266.61557,251.03309 297.48066,249.59869 303.82441,247.98629 C 309.20452,246.61869 319.09659,246.18869 361.0729,245.51729 C 390.45451,245.04709 419.68699,244.04069 430.57106,243.14199 C 455.53249,241.08109 461.07372,240.72149 482.91343,239.61019 C 497.58235,238.86379 505.77503,237.81969 521.94365,234.70339 C 533.19272,232.53529 549.35333,229.56149 557.8802,228.07749 C 578.26077,224.52999 638.91196,211.67099 658.97129,206.63729 C 667.68933,204.44939 681.93426,200.58439 690.6267,198.04229 C 699.31914,195.50029 712.06193,191.97459 718.93846,190.22879 L 731.43813,187.07219 L 731.71937,183.00919 L 732.03186,178.94619 L 740.71913,176.69589 C 745.50478,175.44939 749.8875,174.15309 750.43763,173.82049 C 750.98775,173.48739 744.46489,172.69729 735.93801,172.07029 C 720.58114,170.94059 688.65026,167.72289 688.15802,167.25709 C 687.84414,166.95989 744.58614,44.116986 747.5627,37.677786 C 750.5393,31.238586 753.41261,24.792186 753.96878,23.332086 L 755.00001,20.675586 z M 354.76056,248.70519 C 351.03898,248.70519 348.01073,251.73379 348.01074,255.45609 C 348.01074,258.17339 349.62864,260.48999 351.94814,261.55059 L 357.57299,261.55059 C 359.8835,260.48999 361.47912,258.17309 361.47913,255.45609 C 361.47913,251.73389 358.48215,248.70499 354.76056,248.70519 z M 370.51015,248.70519 C 366.78856,248.70519 363.76032,251.73379 363.76032,255.45609 C 363.76032,258.17339 365.37822,260.48999 367.69772,261.55059 L 373.32257,261.55059 C 373.6479,261.39829 373.96363,261.21959 374.26005,261.01929 C 374.55647,261.21959 374.87219,261.39829 375.19752,261.55059 L 380.82237,261.55059 C 383.14187,260.48999 384.75977,258.17309 384.75977,255.45609 C 384.75977,251.73389 381.73152,248.70499 378.00995,248.70519 C 376.61436,248.70519 375.33613,249.13429 374.26005,249.86159 C 373.18397,249.13429 371.90574,248.70499 370.51015,248.70519 z M 395.0095,248.70519 C 391.28792,248.70519 388.29093,251.73379 388.29093,255.45609 C 388.29093,258.17339 389.88657,260.48999 392.19707,261.55059 L 397.82193,261.55059 C 400.14143,260.48999 401.75932,258.17309 401.75932,255.45609 C 401.75932,251.73389 398.73107,248.70499 395.0095,248.70519 z M 412.00905,248.70519 C 408.28747,248.70519 405.29048,251.73379 405.29048,255.45609 C 405.29048,258.17339 406.88612,260.48999 409.19663,261.55059 L 414.82148,261.55059 C 417.14098,260.48999 418.75885,258.17309 418.75887,255.45609 C 418.75887,251.73389 415.73062,248.70499 412.00905,248.70519 z M 76.517896,249.14279 C 73.063646,249.14279 70.236826,251.93869 70.236816,255.39359 C 70.236816,258.84829 73.063646,261.67559 76.517896,261.67559 C 79.972146,261.67559 82.767736,258.84829 82.767736,255.39359 C 82.767736,251.93869 79.972156,249.14269 76.517896,249.14279 z "
       id="path1968" />
    <text
       xml:space="preserve"
       style="font-size:12px;font-style:normal;font-weight:normal;fill:white;fill-opacity:1;stroke:none;stroke-width:1px;stroke-linecap:butt;stroke-linejoin:miter;stroke-opacity:1;font-family:Bitstream Vera Sans"
       x="499.02344"
       y="353.22906"
       id="text9007"><tspan
         sodipodi:role="line"
         id="tspan9009"
         x="499.02344"
         y="353.22906"
         style="font-size:20px;font-weight:bold;fill:white;fill-opacity:1;font-family:Arial">73.0 m</tspan></text>
    <text
       xml:space="preserve"
       style="font-size:12px;font-style:normal;font-weight:normal;fill:white;fill-opacity:1;stroke:none;stroke-width:1px;stroke-linecap:butt;stroke-linejoin:miter;stroke-opacity:1;font-family:Bitstream Vera Sans"
       x="1513.6178"
       y="-970.25391"
       id="text1936"
       transform="matrix(0,1,-1,0,0,0)"><tspan
         sodipodi:role="line"
         id="tspan1938"
         x="1513.6178"
         y="-970.25391"
         style="font-size:20px;font-weight:bold;fill:white;fill-opacity:1;font-family:Arial">Airbus A380-800 - 79.6 m</tspan></text>
    <rect
       style="fill:#e49292;fill-opacity:1;stroke:none;stroke-width:0.80000001;stroke-linejoin:round;stroke-miterlimit:4;stroke-dasharray:none;stroke-dashoffset:0;stroke-opacity:1"
       id="rect1946"
       width="241"
       height="30"
       x="20.675602"
       y="-1000"
       transform="matrix(0,1,-1,0,0,0)" />
    <text
       xml:space="preserve"
       style="font-size:12px;font-style:normal;font-weight:normal;fill:white;fill-opacity:1;stroke:none;stroke-width:1px;stroke-linecap:butt;stroke-linejoin:miter;stroke-opacity:1;font-family:Bitstream Vera Sans"
       x="188.76572"
       y="-978.44653"
       id="text1948"
       transform="matrix(0,1,-1,0,0,0)"><tspan
         sodipodi:role="line"
         id="tspan1950"
         x="188.76572"
         y="-978.44653"
         style="font-size:20px;font-weight:bold;fill:white;fill-opacity:1;font-family:Arial">24.1 m</tspan></text>
    <path
       style="fill:none;fill-rule:evenodd;stroke:black;stroke-width:1.00277126px;stroke-linecap:butt;stroke-linejoin:miter;stroke-opacity:1"
       d="M 755.01891,20.501386 L 755.01891,361.68819"
       id="path9042"
       sodipodi:nodetypes="cc" />
    <path
       style="fill:none;fill-rule:evenodd;stroke:black;stroke-width:1.00277126px;stroke-linecap:butt;stroke-linejoin:miter;stroke-opacity:1"
       d="M 1040.0215,20.678186 L 634.88989,20.678186"
       id="path2026"
       sodipodi:nodetypes="cc" />
    <text
       transform="matrix(0,1,-1,0,0,0)"
       id="text3859"
       y="-978.44653"
       x="31.675602"
       style="font-size:12px;font-style:normal;font-weight:normal;fill:white;fill-opacity:1;stroke:none;stroke-width:1px;stroke-linecap:butt;stroke-linejoin:miter;stroke-opacity:1;font-family:Bitstream Vera Sans"
       xml:space="preserve"><tspan
         style="font-size:20px;font-weight:bold;fill:white;fill-opacity:1;font-family:Arial"
         y="-978.44653"
         x="31.675602"
         id="tspan3861"
         sodipodi:role="line">A380-800 </tspan></text>
    <text
       id="text3874"
       y="353.22906"
       x="304.55475"
       style="font-size:12px;font-style:normal;font-weight:normal;fill:white;fill-opacity:1;stroke:none;stroke-width:1px;stroke-linecap:butt;stroke-linejoin:miter;stroke-opacity:1;font-family:Bitstream Vera Sans"
       xml:space="preserve"><tspan
         style="font-size:20px;font-weight:bold;fill:white;fill-opacity:1;font-family:Arial"
         y="353.22906"
         x="304.55475"
         id="tspan3876"
         sodipodi:role="line">Airbus A380-800</tspan></text>
  </g>
  <g
     inkscape:groupmode="layer"
     id="layer2"
     inkscape:label="B748">
    <path
       style="fill:#164ac5;fill-opacity:0.39215686"
       d="M 529.60457,1222.2663 C 529.21445,1220.0538 528.89032,1216.1845 528.88425,1213.6679 C 528.87818,1211.1512 528.4857,1208.6622 528.01204,1208.1367 C 527.53838,1207.6113 526.32532,1203.9004 525.31632,1199.8903 C 524.30733,1195.8803 523.17557,1192.5993 522.80129,1192.5993 C 521.91151,1192.5993 492.05907,1200.6361 453.48965,1211.2593 C 436.53052,1215.9303 422.00209,1219.7521 421.20426,1219.7521 C 420.01624,1219.7521 419.75365,1217.5159 419.75365,1207.3984 L 419.75365,1195.0447 L 425.00941,1190.0003 C 427.90008,1187.2259 432.51764,1182.9731 435.27066,1180.5496 C 438.02368,1178.1262 449.06077,1167.6908 459.79753,1157.3598 C 470.5343,1147.0288 481.79664,1136.3507 484.82496,1133.6305 C 495.83887,1123.7376 505.4545,1113.5174 506.78553,1110.2894 C 507.99819,1107.3484 507.80185,1104.9283 504.99321,1088.1963 C 498.2849,1048.2328 497.88991,1040.1251 497.81724,940.89942 C 497.76936,875.51958 497.48379,856.64895 496.54599,856.89479 C 495.88075,857.06917 490.50704,858.79575 484.60436,860.73165 L 473.87224,864.25146 L 472.73969,869.88868 C 470.77066,879.68928 469.39046,880.24484 467.46526,872.01179 L 466.30466,867.04853 L 456.31555,870.33743 C 446.7702,873.48022 446.29074,873.77549 445.52263,876.98417 C 444.38062,881.75485 441.62631,887.88445 440.62466,887.88445 C 440.15766,887.88445 439.7756,885.39545 439.7756,882.35333 C 439.7756,875.88954 439.80131,875.89861 430.03592,878.91812 C 401.43963,887.76021 385.62527,894.97172 384.91968,899.49157 C 382.94654,912.13106 381.34476,915.05817 380.12731,908.24906 C 379.75646,906.17489 379.16556,903.93109 378.81422,903.26284 C 378.3802,902.43735 372.96357,905.12906 361.91815,911.65908 C 348.55881,919.55707 345.5626,921.74555 345.10963,923.93633 C 343.69798,930.76365 342.34271,935.15045 341.64508,935.15045 C 340.54592,935.15045 339.66589,932.43087 339.66589,929.03424 C 339.66589,927.42015 339.42778,926.09951 339.13679,926.09951 C 337.45517,926.09951 322.63225,934.62517 286.85373,956.17103 C 264.72033,969.49978 246.37109,980.40512 246.07762,980.40512 C 245.78417,980.40512 236.95541,985.60884 226.45816,991.96894 C 206.77621,1003.8939 198.52596,1009.7438 192.55849,1016.0057 C 190.66102,1017.9968 188.74643,1019.6259 188.30383,1019.6259 C 187.86125,1019.6259 187.50268,1017.4763 187.50704,1014.849 C 187.52459,1004.2628 204.32216,974.42625 217.9681,960.74275 C 221.85779,956.84236 231.12193,948.5745 238.55507,942.36975 C 245.98821,936.16498 255.6575,928.04255 260.04235,924.31989 C 264.42721,920.59722 275.4643,911.2409 284.56923,903.52804 C 293.67416,895.81519 301.60879,889.02698 302.20175,888.44315 C 302.79472,887.85931 304.97441,885.88953 307.04551,884.06586 L 310.81114,880.75011 L 309.56683,875.51776 C 308.07884,869.2607 306.70392,866.80011 305.05152,867.43708 C 301.73932,868.71389 300.37008,827.66187 303.47411,820.14352 L 304.66144,817.26762 L 319.20825,817.64786 C 335.64401,818.07747 335.18654,817.84496 336.23858,826.3035 C 336.84519,831.18076 335.05982,857.22487 333.99911,858.97174 C 332.44727,861.52749 336.45284,858.22345 348.6294,846.90383 C 360.79394,835.59539 376.62372,820.92999 397.7295,801.41532 C 401.30844,798.10621 403.72367,795.39089 403.09669,795.38126 C 402.4697,795.37165 401.64005,793.66673 401.25301,791.59256 C 400.12696,785.55819 397.78015,780.58071 396.80692,782.16262 C 395.48634,784.30909 394.94895,782.40049 393.72323,771.21064 C 392.39049,759.04376 392.6115,744.5392 394.22856,738.04785 C 395.27231,733.85786 395.64099,733.47603 399.29489,732.80074 C 405.02159,731.74236 423.62948,733.02743 425.1836,734.58863 C 427.23411,736.64848 427.87649,747.80375 426.71704,761.21752 C 426.1275,768.03801 425.41921,773.98565 425.14305,774.43449 C 423.38563,777.29104 427.93087,773.63433 439.48125,762.89924 C 446.7525,756.14122 459.87694,743.95546 468.64665,735.81976 C 486.87168,718.91235 489.59986,715.7376 494.09218,706.20923 L 497.33867,699.32331 L 497.43841,647.53184 C 497.5521,588.49968 498.46133,571.10602 503.40503,533.38949 C 505.97182,513.80677 512.7252,486.53094 517.75553,475.43012 C 521.16753,467.90056 526.62009,461.48484 529.60726,461.48484 C 539.04391,461.48484 548.59776,484.90719 555.24495,524.33856 C 561.20837,559.71375 562.86475,587.3777 562.89212,652.05731 L 562.91212,699.32331 L 565.98733,705.86009 C 570.21449,714.84551 575.60339,721.72679 584.17541,729.0851 C 588.17193,732.51575 597.52346,741.05131 604.95662,748.05302 C 612.38977,755.05472 621.98989,764.08667 626.29024,768.12401 C 630.5906,772.16135 634.355,775.21758 634.65558,774.91562 C 634.95617,774.61366 634.70378,770.6469 634.09471,766.10059 C 632.59982,754.94202 632.6972,739.18001 634.28048,736.02988 C 635.42312,733.75648 636.35638,733.44141 644.02642,732.73968 C 648.69169,732.31285 655.29943,732.23306 658.71029,732.56236 L 664.91187,733.16109 L 666.08587,738.43098 C 666.86082,741.90965 667.08679,749.66087 666.75068,761.23563 C 666.20432,780.05022 665.59647,784.02072 663.52669,782.29512 C 662.18459,781.17621 661.55406,782.40162 658.7551,791.56848 L 657.30392,796.32126 L 672.49117,810.67601 C 680.84415,818.57111 693.28005,830.07718 700.12648,836.24506 C 706.97293,842.41293 714.63498,849.4274 717.15329,851.83278 C 719.67158,854.23815 722.68622,857.04446 723.85248,858.06903 L 725.97294,859.93188 L 725.28032,853.54357 C 724.33729,844.84544 724.40227,819.84974 725.37044,818.87924 C 725.80093,818.44771 732.85993,817.90325 741.05709,817.66932 L 755.96102,817.24399 L 757.03716,821.13737 C 758.20536,825.36373 758.33309,859.28094 757.19955,864.25146 C 756.82113,865.9108 756.01665,867.16977 755.41182,867.04917 C 753.66233,866.70035 752.41012,868.86323 750.8286,874.96544 L 749.35503,880.65113 L 755.99222,886.56265 C 759.64268,889.81397 769.83731,898.5588 778.64696,905.99558 C 787.45662,913.43235 795.11501,920.04395 795.66561,920.688 C 796.21622,921.33205 800.49591,924.92659 805.17603,928.67585 C 815.20101,936.7069 834.96499,953.48557 840.84603,958.95798 C 849.3128,966.83644 859.65783,981.89999 866.62541,996.49566 C 870.66027,1004.9479 871.75009,1008.3475 872.0866,1013.5315 L 872.507,1020.0079 L 865.62087,1013.9842 C 854.14029,1003.9416 857.90356,1006.3023 778.21111,959.1523 C 772.94479,956.0365 761.20285,948.97805 752.11789,943.46687 C 734.91847,933.03322 722.03028,925.78383 721.59993,926.30101 C 721.46202,926.46674 720.93471,928.41253 720.42815,930.62498 C 719.92158,932.83743 719.09039,934.64762 718.58107,934.64762 C 718.07175,934.64762 716.94124,931.82054 716.0688,928.36522 C 715.19638,924.90991 714.00329,921.60137 713.41749,921.01291 C 711.53081,919.11762 683.83879,902.96935 682.47531,902.96935 C 681.72471,902.96935 680.79579,904.80835 680.31642,907.2434 C 679.85365,909.59413 679.03878,911.51745 678.50559,911.51745 C 677.9724,911.51745 676.93319,908.33094 676.19621,904.43631 L 674.85627,897.35517 L 666.62242,892.61306 C 659.09672,888.27878 653.8166,886.29805 629.23323,878.58721 L 620.97417,875.99667 L 620.85573,879.175 C 620.79058,880.92308 620.41144,883.71097 620.01318,885.37031 L 619.28908,888.38728 L 617.15032,883.86182 C 615.974,881.37281 615.00167,878.13193 614.98956,876.65988 C 614.96903,874.16066 614.27216,873.74946 604.46784,870.45139 C 598.69298,868.50879 593.79495,867.2242 593.58332,867.59674 C 593.37171,867.96929 592.88426,870.4508 592.50012,873.11123 C 591.56156,879.61135 589.81725,878.75124 587.92169,870.85363 L 586.40375,864.52942 L 574.9224,860.68797 C 568.60766,858.57517 563.34482,856.94319 563.22721,857.06133 C 563.1096,857.17949 562.92389,895.50188 562.81454,942.22223 C 562.58967,1038.2976 562.05285,1048.3002 554.82849,1091.0277 L 552.02287,1107.6211 L 554.42066,1111.7495 C 555.73945,1114.0202 564.15822,1122.796 573.12903,1131.2513 C 582.09985,1139.7067 590.85353,1148.0312 592.58165,1149.7502 C 599.66018,1156.7916 614.25663,1170.6824 626.49225,1182.0215 L 639.49447,1194.071 L 639.99502,1206.9136 C 640.43294,1218.1493 640.29808,1219.756 638.91726,1219.7542 C 638.0492,1219.753 632.64326,1218.43 626.9041,1216.8142 C 614.18078,1213.2319 565.80235,1199.9845 549.63009,1195.6542 C 543.15173,1193.9196 537.40794,1192.7756 536.86609,1193.112 C 536.32424,1193.4484 535.88092,1194.5273 535.88092,1195.5095 C 535.88092,1196.4918 534.98238,1200.045 533.88417,1203.4055 C 532.78598,1206.7661 531.53339,1213.2896 531.10067,1217.9022 C 530.38965,1225.4812 530.24558,1225.9015 529.60457,1222.2663 z "
       id="path2885" />
    <rect
       style="opacity:1;fill:#a4b8e8;fill-opacity:1;stroke:none;stroke-width:0.80000001;stroke-linejoin:round;stroke-miterlimit:4;stroke-dasharray:none;stroke-dashoffset:0;stroke-opacity:1"
       id="rect1918"
       width="685"
       height="30"
       x="187.5"
       y="1309.7787" />
    <text
       xml:space="preserve"
       style="font-size:12px;font-style:normal;font-weight:normal;fill:white;fill-opacity:1;stroke:none;stroke-width:1px;stroke-linecap:butt;stroke-linejoin:miter;stroke-opacity:1;font-family:Bitstream Vera Sans"
       x="286.38571"
       y="1332.027"
       id="text1926"><tspan
         sodipodi:role="line"
         id="tspan1928"
         x="286.38571"
         y="1332.027"
         style="font-size:20px;font-weight:bold;fill:white;fill-opacity:1;font-family:Arial">Boeing 747-8 Intercontinental </tspan></text>
    <path
       style="fill:none;fill-rule:evenodd;stroke:black;stroke-width:1.00277126px;stroke-linecap:butt;stroke-linejoin:miter;stroke-opacity:1"
       d="M 187.52265,1016.7184 L 187.52265,1339.6993"
       id="path1936"
       sodipodi:nodetypes="cc" />
    <path
       style="fill:none;fill-rule:evenodd;stroke:black;stroke-width:1.00277126px;stroke-linecap:butt;stroke-linejoin:miter;stroke-opacity:1"
       d="M 872.58904,1016.8732 L 872.58904,1339.854"
       id="path1938"
       sodipodi:nodetypes="cc" />
    <path
       style="fill:#154dc7;fill-opacity:0.39215686"
       d="M 748.65898,65.67559 L 742.14934,71.484868 C 738.5731,74.679971 733.71067,78.936202 731.32079,80.956518 C 728.93093,82.976732 724.66609,86.613845 721.83799,89.038992 C 719.00992,91.464037 715.89498,94.141053 714.9215,94.974558 C 712.20439,97.300897 703.18443,105.07321 694.89182,112.24459 C 665.96396,137.26025 640.59337,158.13293 636.77446,160.07637 C 626.93514,165.08346 619.60774,166.93192 606.2292,167.77997 C 599.06859,168.23391 553.47423,168.63449 504.89156,168.66399 C 429.48375,168.70966 415.70696,168.50538 410.78337,167.21167 C 403.40531,165.27299 395.36807,165.25925 392.85055,167.18015 C 389.96049,169.38535 371.67243,169.11995 354.95064,166.64338 C 339.7969,164.39907 323.91759,162.60931 295.26847,159.88693 C 279.29719,158.36925 264.65106,158.12223 189.11119,158.11889 C 83.918229,158.11455 86.714028,157.85934 73.627577,168.91657 C 68.791114,173.00297 61.362637,177.58169 50.562152,183.09252 C 27.932925,194.63884 21.433207,201.36558 26.745615,207.78196 C 31.313357,213.29855 46.916723,221.24342 61.421992,225.43075 C 75.297073,229.43612 78.632517,230.21234 90.965763,232.25033 C 120.93834,237.20327 127.79804,237.55415 209.6416,238.43848 C 252.60526,238.90271 289.67268,239.59033 292.01364,239.98556 L 296.26996,240.71167 L 296.26996,245.57379 L 296.26996,250.4359 L 301.027,251.06734 C 303.64338,251.41449 306.46005,251.83639 307.28627,252.01451 C 310.19298,252.6409 315.91969,252.5231 328.03577,251.5725 C 343.2251,250.38074 345.54661,249.93216 345.53044,247.27868 C 345.51653,245.06449 352.69761,243.63207 355.04454,243.01649 C 357.25885,242.43556 376.67564,241.86595 400.92502,241.40626 C 425.71174,240.93637 447.11846,240.2734 448.49549,239.92242 C 449.87254,239.57144 470.60325,238.91757 494.56375,238.4701 C 556.91634,237.30531 555.41118,237.52273 676.33307,210.65497 C 687.34939,208.2072 704.92543,204.39924 715.39094,202.16211 C 762.67632,192.05296 759.78083,192.8016 763.93161,189.21752 C 766.70454,186.82299 767.97095,184.80954 768.43829,182.01907 C 769.03577,178.45136 769.54968,177.93267 774.79145,175.70464 L 780.48739,173.30515 L 773.97775,172.26322 C 770.39744,171.69361 765.89076,170.22027 763.96291,168.97972 C 761.48212,167.38333 758.92111,166.70925 755.19992,166.70652 C 751.66223,166.70399 749.94073,166.2934 749.94213,165.44363 C 749.94405,164.27511 755.97591,149.10936 779.86146,90.017779 C 784.89586,77.562889 789,66.992427 789,66.528089 C 789,66.063347 779.93809,65.67559 768.84514,65.67559 L 748.65898,65.67559 z M 378.01607,249.33092 C 374.56261,249.33092 371.75679,252.16141 371.7568,255.64536 C 371.7568,258.47594 373.62262,260.87532 376.16959,261.67559 L 379.86256,261.67559 C 382.40951,260.87532 384.27534,258.47594 384.27535,255.64536 C 384.27535,252.16141 381.46953,249.33072 378.01607,249.33092 z M 392.25592,249.33092 C 388.80246,249.33092 386.02794,252.16141 386.02794,255.64536 C 386.02794,258.47594 387.87022,260.87532 390.40943,261.67559 L 394.10241,261.67559 C 396.64937,260.87532 398.51519,258.47594 398.51519,255.64536 C 398.51519,252.16141 395.70939,249.33072 392.25592,249.33092 z M 408.93689,249.33092 C 405.48342,249.33092 402.70891,252.16141 402.7089,255.64536 C 402.7089,258.47594 404.55118,260.87532 407.0904,261.67559 L 410.78337,261.67559 C 413.33034,260.87532 415.19617,258.47594 415.19616,255.64536 C 415.19616,252.16141 412.39035,249.33072 408.93689,249.33092 z M 423.20803,249.33092 C 419.75457,249.33092 416.94876,252.16141 416.94875,255.64536 C 416.94875,258.47594 418.81458,260.87532 421.36155,261.67559 L 425.05451,261.67559 C 427.59372,260.87532 429.43602,258.47594 429.43601,255.64536 C 429.43601,252.16141 426.66147,249.33072 423.20803,249.33092 z M 102.88968,249.74131 C 99.656658,249.74131 97.03726,252.38388 97.03726,255.64536 C 97.03726,258.90684 99.656658,261.5493 102.88968,261.5493 C 106.12271,261.5493 108.74211,258.90684 108.74211,255.64536 C 108.74211,252.38378 106.12271,249.74141 102.88968,249.74131 z "
       id="path2061" />
    <rect
       style="opacity:1;fill:#a4b8e8;fill-opacity:1;stroke:none;stroke-width:0.80000001;stroke-linejoin:round;stroke-miterlimit:4;stroke-dasharray:none;stroke-dashoffset:0;stroke-opacity:1"
       id="rect9015"
       width="764"
       height="30"
       x="25"
       y="371.6756" />
    <text
       xml:space="preserve"
       style="font-size:12px;font-style:normal;font-weight:normal;fill:white;fill-opacity:1;stroke:none;stroke-width:1px;stroke-linecap:butt;stroke-linejoin:miter;stroke-opacity:1;font-family:Bitstream Vera Sans"
       x="499.15039"
       y="393.92389"
       id="text9017"><tspan
         sodipodi:role="line"
         id="tspan9019"
         x="499.15039"
         y="393.92389"
         style="font-size:20px;font-weight:bold;fill:white;fill-opacity:1;font-family:Arial">76.4 m</tspan></text>
    <path
       style="fill:none;fill-rule:evenodd;stroke:black;stroke-width:1.00277126px;stroke-linecap:butt;stroke-linejoin:miter;stroke-opacity:1"
       d="M 25.082402,203.07319 L 25.082402,441.69789"
       id="path9032"
       sodipodi:nodetypes="cc" />
    <path
       style="fill:none;fill-rule:evenodd;stroke:black;stroke-width:1.00277126px;stroke-linecap:butt;stroke-linejoin:miter;stroke-opacity:1"
       d="M 789.04569,68.435786 L 789.04569,401.77899"
       id="path9036"
       sodipodi:nodetypes="cc" />
    <rect
       style="fill:#a4b8e8;fill-opacity:1;stroke:none;stroke-width:0.80000001;stroke-linejoin:round;stroke-miterlimit:4;stroke-dasharray:none;stroke-dashoffset:0;stroke-opacity:1"
       id="rect1952"
       width="196"
       height="30"
       x="65.675003"
       y="-960"
       transform="matrix(0,1,-1,0,0,0)" />
    <text
       xml:space="preserve"
       style="font-size:12px;font-style:normal;font-weight:normal;fill:white;fill-opacity:1;stroke:none;stroke-width:1px;stroke-linecap:butt;stroke-linejoin:miter;stroke-opacity:1;font-family:Bitstream Vera Sans"
       x="189.02344"
       y="-937.75171"
       id="text1954"
       transform="matrix(0,1,-1,0,0,0)"><tspan
         sodipodi:role="line"
         id="tspan1956"
         x="189.02344"
         y="-937.75171"
         style="font-size:20px;font-weight:bold;fill:white;fill-opacity:1;font-family:Arial">19.6 m</tspan></text>
    <path
       style="fill:none;fill-rule:evenodd;stroke:black;stroke-width:1.00277126px;stroke-linecap:butt;stroke-linejoin:miter;stroke-opacity:1"
       d="M 1039.8591,261.74679 L 219.89287,261.74679"
       id="path1977"
       sodipodi:nodetypes="cc" />
    <path
       style="fill:none;fill-rule:evenodd;stroke:black;stroke-width:1.00277126px;stroke-linecap:butt;stroke-linejoin:miter;stroke-opacity:1"
       d="M 959.99756,65.674614 L 769.9902,65.674614"
       id="path2024"
       sodipodi:nodetypes="cc" />
    <text
       transform="matrix(0,1,-1,0,0,0)"
       id="text3855"
       y="-937.75171"
       x="78.789063"
       style="font-size:12px;font-style:normal;font-weight:normal;fill:white;fill-opacity:1;stroke:none;stroke-width:1px;stroke-linecap:butt;stroke-linejoin:miter;stroke-opacity:1;font-family:Bitstream Vera Sans"
       xml:space="preserve"><tspan
         style="font-size:20px;font-weight:bold;fill:white;fill-opacity:1;font-family:Arial"
         y="-937.75171"
         x="78.789063"
         id="tspan3857"
         sodipodi:role="line">B747-8I </tspan></text>
    <text
       id="text3878"
       y="393.92389"
       x="179.96094"
       style="font-size:12px;font-style:normal;font-weight:normal;fill:white;fill-opacity:1;stroke:none;stroke-width:1px;stroke-linecap:butt;stroke-linejoin:miter;stroke-opacity:1;font-family:Bitstream Vera Sans"
       xml:space="preserve"><tspan
         style="font-size:20px;font-weight:bold;fill:white;fill-opacity:1;font-family:Arial"
         y="393.92389"
         x="179.96094"
         id="tspan3880"
         sodipodi:role="line">Boeing 747-8 Intercontinental</tspan></text>
    <text
       id="text3886"
       y="1332.027"
       x="609.02344"
       style="font-size:12px;font-style:normal;font-weight:normal;fill:white;fill-opacity:1;stroke:none;stroke-width:1px;stroke-linecap:butt;stroke-linejoin:miter;stroke-opacity:1;font-family:Bitstream Vera Sans"
       xml:space="preserve"><tspan
         style="font-size:20px;font-weight:bold;fill:white;fill-opacity:1;font-family:Arial"
         y="1332.027"
         x="609.02344"
         id="tspan3888"
         sodipodi:role="line">68.5 m</tspan></text>
  </g>
</svg>
