<?xml version="1.0" standalone="yes"?>
<svg width="612" height="816">
<path style="fill:#ffffff; stroke:none;" d="M0 0L0 795L1 795C8.24602 764.423 40.1968 746.719 69 739C55.5069 751.141 36.2883 753.58 22.3287 764.548C10.8589 773.559 0.73207 801.736 0 816L344 816C400.156 816 458.028 811.926 514 816L516 811C524.033 814.281 533.401 817.542 542 815L540 813L541 805L537 802C530.466 800.259 520.27 795.117 517 789L534 795L517 773L532 785L529 762L526 761C527.094 754.833 526.035 749.131 527.863 743.004C528.999 739.2 532.454 735.079 531.228 730.996C527.373 718.149 511.008 712.068 505.042 700.826C502.763 696.531 505.892 690.812 504.428 686.104C502.297 679.251 488.969 665.892 483 662L483 661L488 662L494 659L501 672L510.441 684.576L532 716L545.071 707.191L552.17 713.285L568 731L569 731C569.722 726.114 573.604 720.817 573.167 716C572.507 708.738 566.567 702.935 564.84 696C563.641 691.185 564.323 683.375 560.682 679.761C549.308 668.471 530.614 665.007 519.228 653.726C514.875 649.413 517.841 644.031 514.972 639.518C509.925 631.576 496.728 628.76 490.109 621.907C485.712 617.354 488.729 611.746 485.382 607.789C479.115 600.38 463.773 598.966 462 588L469 589L468 592L486 602.458L500 605.613L524 620L525 617C518.397 613.146 511.534 609.872 505.005 605.857C502.93 604.581 498.845 602.444 500.89 599.422C505.854 592.089 523.978 608.937 530 609.728C535.195 610.41 538.522 604.145 544 605.629C557.002 609.152 567.458 622.348 580 626.358C591.193 629.937 600.665 627.126 612 627C612 620.222 613.442 611.535 611.348 605.039C609.372 598.91 603.15 592.032 599.181 587C586.97 571.516 572.084 558.51 557 545.92C546.734 537.351 533.569 525.447 520 523C513.276 539.151 502.788 559.881 489 571C544.582 500.913 557.611 400.095 540 315L541 315C557.353 365.256 554.942 420.589 540.573 471C535.957 487.192 528.324 502.127 523 518C533.808 520.45 543.307 529.034 552 535.525C574.762 552.522 597.038 573.923 611 599L612 599L612 0L259 0C260.506 6.35339 265.364 11.4647 268.692 17C278.297 32.9727 290.962 48.6872 304 62L305 62L320 50.4637L335 55.6404L352 57C347.783 50.5414 338.069 47.4119 331 45.2801C315.027 40.4633 299.557 37.0925 283 35C287.595 25.6878 301.049 30.4525 309 32.885C320.802 36.4957 334.416 40.4309 345 46.6998C353.179 51.5443 363.919 62.1597 373 64.3032C378.21 65.5331 384.98 59.3469 389 56.6667C399.769 49.4873 414.48 34.3082 428 33.2823C436.732 32.6198 447.695 43.7414 456 46.6551C478 54.3734 500.659 59 524 59L524 60C500.998 60.9875 479.991 56.8713 458 49.8055C449.586 47.102 438.772 37.4071 430 38.3688C408.444 40.7322 392.016 64.9067 371 71C376.795 87.4426 395.633 76.5511 408 74L408 75C401.001 76.6191 390.975 78.5004 387 85C412.87 90.0169 438.753 90 465 90L465 91C434.308 91.3864 405.497 92.8943 376 83C382.001 100.768 398.946 109.007 413 120.199C419.72 125.55 427.334 132.755 436 134.38C443.263 135.741 450.073 132.614 457 130.873C468.137 128.076 479.591 125.539 491 124.155C523.315 120.236 553.79 123.335 586 124C570.841 105.588 546.485 94.1677 535 72L602 132C572.6 119.756 533.312 120.919 502 126.464C484.337 129.592 467.076 137.212 449 138C473.944 173.55 507.645 205.843 522 248L521 248C509.758 221.141 490.124 195.519 472.001 173C463.448 162.372 453.94 149.568 443 141.317C437.833 137.42 430.524 137.524 425 133.776C411.308 124.488 399.891 113.963 384 108.069C376.06 105.123 365.455 103.16 357 104.184C352.987 104.671 349.045 107.206 345 107.063C340.421 106.901 336.933 102.752 333 100.889C329.371 99.1699 324.874 99.2178 321 98C326.266 89.5275 336.799 102.403 344 102.602C350.961 102.794 361.288 97.2767 368 95C369.714 100.494 374.666 101.842 380 102C377.804 89.6346 371.234 71.7236 360.961 63.9282C355.259 59.6017 344.441 57.4435 339 63L352 76C343.15 69.0811 335.605 58.2871 324 55.6821C320.139 54.8154 311.183 59.0906 311.921 63.9413C312.572 68.2168 319.777 66.1605 321.987 69.3179C325.621 74.5104 324.789 85.7533 326 92L319 80L322 81C320.107 74.9077 317.39 70.682 311 69L319 80C300.564 66.9565 283.131 43.8654 269.67 25.8303C264.637 19.0867 259.447 5.53357 252.471 1.02777C247.095 -2.44507 234.27 0 228 0L163 0C164.65 12.2513 166.963 32.9412 174.43 42.9992C182.876 54.377 197.316 57.5356 210 61.6697C231.384 68.6397 253.18 75.65 275 81.1049C286.138 83.8893 300.628 85.064 310 92L230 107L230 106C243.943 105.401 255.14 97.9647 268 93.4954C273.059 91.7373 280.884 90.5524 284 86C270.441 85.991 256.441 83.0754 243 86.2361C226.273 90.1693 211.562 98.9597 197 107.692C152.024 134.663 116.109 177.469 100.029 228C93.9998 246.945 88.4546 267.084 87.0895 287C85.9215 304.041 88.1634 321.093 87 338C82.0892 327.798 84 314.054 84 303L83 303L77 347L76 347L92 244L91 244C81.2306 286.614 66.5147 329.838 70 374L69 374C63.1263 327.524 81.7059 280.496 92 236L95 237C107.806 199.147 126.572 161.843 156 134.043C184.22 107.384 221 89.597 258 80L258 79C239.469 76.2756 219.514 70.1854 202 63.5748C195.22 61.0159 184.169 52.6738 177 53.8936C156.45 57.3899 137.493 73.5134 121 84.9753C45.5591 137.404 7 243.774 7 333L6 333C6 229.523 48.901 118.784 143 66.1381C152.951 60.5707 162.1 53.7117 173 50C170.953 45.1334 166.523 41.1741 165.299 36C163.338 27.7077 165.547 6.68597 158.272 1.02777C155.633 -1.02484 150.13 0 147 0L117 0L0 0z"/>
<path style="fill:#000000; stroke:none;" d="M159 0C162.655 17.7057 163.511 34.6256 173 50C155.479 54.1617 137.777 68.0984 123 77.9992C41.0054 132.937 6 238.398 6 333L7 333C7 247.295 43.1717 148.093 111.015 93.196C128.749 78.8457 153.574 57.8898 177 54.3171C183.97 53.2542 194.436 61.0971 201 63.5748C218.369 70.1307 239.465 77.3837 258 79L258 80C181.25 94.8928 113.129 160.498 95 237L92 236C82.7399 264.458 76.2909 293.44 71.7253 323C69.1374 339.756 65.8558 357.064 69 374L70 374C68.0468 328.509 84.486 288.273 91 244L92 244C85.6533 277.685 76.7107 312.569 76 347L77 347L83 303L84 303C84 312.945 81.1739 329.474 87 338C88.0596 328.362 85.6159 318.671 86.0394 309C87.0556 285.792 90.0331 263.433 96.4275 241C112.372 185.064 148.202 137.554 198 107.692C212.562 98.9597 227.273 90.1693 244 86.2361C257.127 83.1494 270.752 85.9985 284 86L264 94.5085L230 106L230 107L310 92C302.615 84.2413 285.093 83.5038 275 80.8456C253.184 75.0999 231.491 68.2105 210 61.3441C197.222 57.2615 184.178 53.8254 175.228 42.9992C166.862 32.8801 165.602 12.6078 163 0L159 0M253 0C261.186 22.3599 281.68 40.8938 296.999 58.4244C303.178 65.4943 310.427 75.9744 319 80L311 69C316.869 71.3222 319.52 75.3842 322 81L319 80L326 92C325.178 85.6387 325.508 74.8981 322.436 69.3179C320.503 65.8056 313.369 68.2994 312.631 63.9413C311.886 59.5369 320.476 55.2221 324 56.0779C335.803 58.9445 341.929 70.5146 352 76C349.43 70.4882 344.512 65.5704 339 63C361.372 46.9076 375.674 86.8317 380 102C374.754 101.651 370.476 99.7775 368 95C361.118 96.7813 349.796 103.26 343 102.177C337.6 101.317 333.102 96.9249 328.004 95.1127C324.339 93.8098 322.405 94.5085 321 98C324.643 99.5355 328.832 99.2327 332.285 100.97C336.156 102.917 339.532 106.833 344 107.397C348.661 107.985 353.4 104.735 358 104.184C365.933 103.235 376.633 105.491 384.015 108.457C398.944 114.456 410.172 123.823 423 133.073C429.129 137.492 437.384 137.396 443 142.148C476.298 170.322 499.183 211.006 521 248L522 248C517.322 228.307 502.414 208.15 490.745 192C477.422 173.56 465.099 154.234 449 138C467.827 137.609 485.573 128.963 504 126.3C530.792 122.429 561.226 120.968 588 126.274C592.921 127.249 597.155 130.604 602 132L570 105.83L535 72L549.487 90.7538L586 124C553.483 122.604 522.571 120.205 490 124.155C478.591 125.539 467.137 128.076 456 130.873C449.826 132.424 443.477 135.452 437 134.366C428.38 132.92 420.637 125.484 414 120.199C399.346 108.529 384.075 100.34 376 83C402.573 95.6207 436.454 92.0679 465 91L465 90L387 85C392.486 79.0616 400.561 77.4199 408 75L408 74C394.484 75.82 378.914 86.7777 371 71C386.06 67.8499 398.486 56.6758 411 48.3333C416.733 44.5115 423.717 38.6417 431 38.5386C439.143 38.4233 449.054 47.2524 457 49.8055C478.995 56.8727 500.896 61.8235 524 60L524 59C500.789 59 477.79 54.2561 456 46.3048C447.61 43.243 437 32.1946 428 32.7994C414.504 33.7064 399.696 48.8367 389 55.9992C385.121 58.5969 378.02 65.2067 373 63.7878C363.57 61.1224 353.72 50.9366 345 46.1049C333.934 39.9733 320.21 35.8057 308 32.2971C300.788 30.2247 285.876 25.3157 283 35C304.882 39.0624 335.349 40.1198 352 57C347.686 56.2701 343.354 57.4094 339 56.4822C333.034 55.2116 327.036 49.8621 321 49.8326C314.738 49.8019 308.458 57.5011 305 62L304 62C289.838 41.6564 268.074 23.5965 259 0L253 0z"/>
<path style="fill:#ffffff; stroke:none;" d="M362 60L368 68L371 67L362 60z"/>
<path style="fill:#000000; stroke:none;" d="M350 65L363 92L364 92C363.774 81.4072 357.938 72.9941 353 64L350 65M352.333 76.6667L352.667 77.3333L352.333 76.6667M355 79L357 81L355 79z"/>
<path style="fill:#ffffff; stroke:none;" d="M259 100L298 91C291.191 85.0847 264.129 93.1642 259 100z"/>
<path style="fill:#000000; stroke:none;" d="M85 349L86 349L119 282L120 282L116 312C111.428 313.591 110.622 319.011 108.41 323C103.488 331.874 95.9725 348.849 85 351C81.8414 358.927 73.6879 360.759 71.6682 370C67.3527 389.746 76.086 401.143 81.3665 419C86.8729 437.62 89.7792 456.757 97 475L98 475L86 428L87 428L99 471L100 471L95 442C101.646 448.854 100.842 456.18 103.154 465C107.232 480.555 112.784 495.585 117 511L116 511L112 506L121.144 523L131 547C87.9974 503.091 44.5388 459.435 19.8727 402C14.4403 389.351 13.9258 375.92 10 363L9 363C9 416.164 43.5014 466.051 80 501.997C94.4377 516.216 110.391 528.683 123.718 544C130.951 552.313 137.471 558.413 138 570L140 570C139.909 558.956 136.165 547.699 131 538C142.834 546.358 157.519 569.934 174 568C165.314 554.098 153.882 540.345 150 524L151 524C153.7 534.711 161.219 544.813 167.142 554C180.65 574.951 196.421 602.383 217 617L198.039 592L177 553C210.102 589.051 238.7 631.27 289 645L266.09 629.975L228 596C242.993 606.52 258.879 626.32 277 631C272.025 624.125 260.85 618.629 254 613.349C237.005 600.248 218.95 586.069 207 568C199.37 565.806 194.172 553.299 190 547L189 547C197.694 575.012 227.512 600.282 248 620C208.465 595.603 172.018 550.982 159 506L166 513C158.88 496.927 146.182 483.533 139.452 467C123.424 427.627 121 381.967 121 340L120 340C120 381.491 122.963 423.343 136.205 463C140.072 474.58 147.194 484.002 151.94 495C156.789 506.236 159.701 518.583 164.309 530C170.048 544.222 177.463 557.729 183 572L182 572C177.124 561.692 169.182 552.854 163.425 543C154.69 528.048 148.048 512.165 141.975 496C116.561 428.359 108.205 352.774 122.449 282C127.156 258.613 135.816 238.061 144 216C130.058 226.359 128.883 250.564 123.971 266C116.617 289.117 100.811 309.061 93 332L92 332C117.797 241.094 163.711 155.522 254.715 116.405C275.442 107.496 296.089 104.128 318 100C316.235 89.4265 296.509 97.7212 290 99.5787C262.199 107.512 236.067 116.988 212 133.344C158.903 169.429 124.294 224.494 102.695 284C95.0208 305.143 90.7427 327.303 85 349z"/>
<path style="fill:#ffffff; stroke:none;" d="M381.333 99.6667L381.667 100.333L381.333 99.6667z"/>
<path style="fill:#000000; stroke:none;" d="M226 107L226 108L230 108L226 107z"/>
<path style="fill:#ffffff; stroke:none;" d="M258.667 113.333L259.333 113.667L258.667 113.333M256 114L257 115L256 114z"/>
<path style="fill:#000000; stroke:none;" d="M328 114L303 138L322.169 120.63L328 114M360 115C367.768 135.646 369 153.909 369 176L370 176C370 160.901 370.438 145.865 367.399 131C366.264 125.451 364.994 118.274 360 115M333 123C326.422 131.628 321.448 142.422 319 153L320 153L333 123M325 128C316.092 133.661 307.606 142.038 302 151L326 129L325 128M376 132C389.789 161.533 393.353 187.693 381.575 219C377.075 230.961 368.553 241.927 365 254L364 254L370 232L369 232L353.265 269L311 317C329.532 304.295 342.533 284.72 357 268C347.526 293.41 338.693 318.923 322.371 341C316.956 348.324 311.482 358.042 303 362L304 365L300 366L289 383L306 368.194L321 371C319.669 365.335 316.693 361.518 311 360C348.164 322.836 375.158 280.768 386.576 229C388.604 219.804 387.998 211.015 389.014 201.961C391.388 180.81 395.646 147.382 376 132z"/>
<path style="fill:#ffffff; stroke:none;" d="M208 139L209 140L208 139z"/>
<path style="fill:#000000; stroke:none;" d="M302 139L299 143L302 139M377 144L378 145L377 144M297 145L295 148L297 145M378 148C378 183.08 373.33 211.508 360 244L361 244C372.993 223.452 376.539 202.205 379.285 179C380.389 169.679 381.94 156.777 378 148M81 149L75 161L76 161L81 149M248 151C231.404 168.352 223.19 194.031 214.551 216C187.574 284.599 178.11 365.002 186.845 438C189.549 460.597 194.804 482.431 202 504C204.342 511.02 206.805 522.498 213 527C177.101 435.74 180.462 339.831 206.152 246C212.673 222.181 223.027 199.376 233.309 177C236.537 169.975 248.177 158.073 248 151M300 152L299 154L300 152M318 154L317 158L318 158L318 154M297 155L294 160L299 155L297 155M410 155C417.016 170.075 429.252 183.456 437.573 198C453.659 226.119 466.686 255.7 478 286L479 286C469.211 243.686 442.739 206.251 422 169C436.1 181.199 447.442 198.909 456.62 215C478.613 253.555 496.068 301.128 498 346L499 346C498.873 330.609 494.325 313.976 490.881 299C479.234 248.347 454.386 185.919 410 155M288 156L287 158L288 156M316.333 159.667L316.667 160.333L316.333 159.667M285 160L286 161L285 160M292 161L286 169L292 161M74 162C57.8389 199.698 44.3032 237.827 40.1705 279C32.5153 355.267 51.1671 438.171 97 500L98 500C91.2595 486.465 80.5921 474.921 74.3117 461C50.7297 408.727 35.6858 345.626 41.1698 288C44.0002 258.258 50.3413 229.32 59.8341 201C62.8988 191.857 66.3071 182.9 70.0116 174C71.5804 170.231 74.6849 166.112 74 162M315.333 162.667L315.667 163.333L315.333 162.667M442 163C457.78 183.633 477.961 199.52 490.691 223C520.909 278.733 525.51 339.751 523.985 402C523.651 415.67 521.113 429.323 521 443L522 443L525.546 400L525 333L526 333L526 338L527 338C525.952 287.239 508.879 241.264 478.884 201.004C469.281 188.114 457.026 169.697 442 163M282 164L283 165L282 164z"/>
<path style="fill:#ffffff; stroke:none;" d="M418 164L419 165L418 164z"/>
<path style="fill:#000000; stroke:none;" d="M314 165L313 170L314 170L314 165z"/>
<path style="fill:#ffffff; stroke:none;" d="M420 166L422 169L420 166z"/>
<path style="fill:#000000; stroke:none;" d="M280 167L278 170L280 167M277 171L276 173L277 171M312.333 171.667L312.667 172.333L312.333 171.667M282 173L283 174L282 173M274 175L275 176L274 175M280 175L281 176L280 175M311 175L312 176L311 175M273 177L272 179L273 177M368 177L363 205L364 205C366.418 197.437 371.188 184.669 368 177M278 178L279 179L278 178M271 180L272 181L271 180M309 181L310 182L309 181M272 186L273 187L272 186M271 188L272 189L271 188M266 189L267 190L266 189M265 191L266 192L265 191M269 191L268 193L269 191M323 192C317.168 238.149 302.314 286.83 278.548 327C269.978 341.485 260.221 355.513 250.171 369C245.025 375.907 237.618 382.195 234 390L235 390L275 336L276 336L245 385C260.21 373.804 270.614 351.39 279.298 335C303.644 289.05 315.575 242.738 325 192L323 192M267 194L258 209L259 209L267 194M100 196C73.9167 235.418 65 284.547 65 331L66 331C66 299.892 71.0656 267.246 82.0648 238C85.7971 228.076 90.401 218.417 95.2585 209C97.3069 205.029 101.253 200.583 100 196M283 198C275.18 206.225 271.948 218.746 267.573 229C257.406 252.826 245.797 281.293 242 307L243 307L269 231L283 198M261 199L262 200L261 199M260 201L261 202L260 201M362 206L363 207L362 206z"/>
<path style="fill:#ffffff; stroke:none;" d="M387 207C383.913 227.901 369.948 243.668 361.185 262C355.284 274.346 352.358 288.371 346.833 301C339.969 316.693 330.401 330.252 322 345C330.016 339.235 335.954 329.827 341.87 322C359.794 298.289 372.514 271.512 380.709 243C383.348 233.818 390.589 216.196 387 207z"/>
<path style="fill:#000000; stroke:none;" d="M417 207C422.969 254.229 411.155 306.638 385.456 347C374.849 363.659 360.256 377.006 349 393C388.992 364.829 412.908 308.174 419 261L420 261C419.919 290.524 404.377 320.602 391 346C396.674 341.299 400.021 333.538 403.244 327C412.018 309.199 419.375 287.891 421 268L422 268L436 332C421.193 333.871 415.532 337.27 409 351L437 337L438 360L439 360C439 336.972 435.445 316.518 430.35 294C427.677 282.19 422.548 268.994 422 257L420 258L420 248L421 248C428.44 280.452 440.556 312.372 442 346L443 346C442.704 310.264 429.211 277.201 421.459 243C419.367 233.769 425.375 213.375 417 207M257 210L254 216L255 216L257 210M211 217C185.707 278.651 172.512 346.157 177.09 413C178.364 431.606 182.523 449.605 185 468L186 468C184.429 448.254 179.174 428.953 178.3 409C176.751 373.618 179.953 337.851 186.084 303C189.695 282.476 196.048 262.636 202.861 243C205.264 236.073 212.248 224.121 211 217M253 217L247 230L248 230L253 217M302.333 228.667L302.667 229.333L302.333 228.667M369 229L370 230L369 229M246 231L244 237L245 237L246 231M301 231L302 232L301 231M300 233L266.988 300L236 350L235 350L237 345L238 335L237 335L228 361L228.167 370L224 397L227.803 385L233.569 356L251.333 330L282 275L283 275C273.466 305.717 249.562 330.847 237 360L238 360C257.39 329.082 282.677 294.407 291.022 258.424C292.872 250.447 301.758 241.374 300 233M435 234C440.599 263.373 456.434 289.68 452.715 321C451.532 330.958 449.58 341.488 446.304 351C445.219 354.15 441.792 359.152 444 362L430 373L429 373L426 371L427 365L425 365L422 374L425 373C427.368 376.654 431.279 375.419 435.015 377.075C445.046 381.52 446.512 387.987 445 398L452 385L448 386L449 383L457 383L455 404L460 392L461 392C464.464 412.117 474.535 431.566 478.389 452C481.786 470.013 479.555 485.169 478 503L479 503L480 498L481 498L480 507L481 507C487.405 475.953 483.996 449.029 480.285 418C475.396 377.12 467.911 337.043 455.129 297.911C449.169 279.665 451.177 247.11 435 234z"/>
<path style="fill:#ffffff; stroke:none;" d="M499 235L502 240L499 235z"/>
<path style="fill:#000000; stroke:none;" d="M243 238L238 256L239 256L243 238M388 240L389 241L388 240z"/>
<path style="fill:#ffffff; stroke:none;" d="M92.3333 241.667L92.6667 242.333L92.3333 241.667M502 242L504 247L505 247L502 242z"/>
<path style="fill:#000000; stroke:none;" d="M387 243C380.336 271.79 365.231 304.194 346.537 327C337.185 338.409 323.802 346.499 315 358C341.288 343.936 367.696 311.227 375 282L376 282C370.962 308.742 365.851 335.714 355.548 361C349.181 376.626 339.414 390.031 332 405C341.058 397.621 347.088 384.318 352.247 374C367 344.493 374.542 310.556 379.13 278C380.502 268.268 389.77 252.12 387 243M359 245L358 248L359 248L359 245z"/>
<path style="fill:#ffffff; stroke:none;" d="M505 248L507 254L508 254L505 248z"/>
<path style="fill:#000000; stroke:none;" d="M522 248L524 253L525 253L522 248z"/>
<path style="fill:#ffffff; stroke:none;" d="M508 255L510 262L511 262L508 255z"/>
<path style="fill:#000000; stroke:none;" d="M274 262L237 342L238 342L264.46 284L274 262z"/>
<path style="fill:#ffffff; stroke:none;" d="M288 263L283 275L284 275L288 263M511 263L512 269L513 269L511 263M513 270L513 273L514 273L513 270M514 274L514 277L515 277L514 274z"/>
<path style="fill:#000000; stroke:none;" d="M537 278C546.287 297.549 552.499 319.222 558.421 340C570.948 383.945 580.337 431.163 566 476L567 476C573.945 459.862 574.542 440.312 575.3 423C576.846 387.678 572.584 352.896 559.011 320C554.709 309.574 550.352 299.141 545.409 289C543.332 284.738 541.745 279.61 537 278M345 286C339.497 299.214 330.902 311.147 323 323C302.037 354.445 273.491 396.117 233 403L233 404L249 403L250 402L248 400C266.012 394.702 278.942 380.448 293 369L279 391L288 384C289.092 376.254 295.939 368.568 300.05 362C310.512 345.287 322.862 329.822 333.189 313C337.142 306.56 347.766 293.801 345 286M479.333 287.667L479.667 288.333L479.333 287.667M126 289C121.833 305.105 121 322.439 121 339L122 339L124.282 306L126 289M168 290C149.186 310.961 155.737 353.451 159.92 379C170.472 443.455 188.461 506.174 227.155 560C234.708 570.506 244.055 577.941 252.61 587.3C258.267 593.489 260.93 602.975 264.995 610.246C272.863 624.317 286.834 641.258 303 645C298.327 637.719 287.761 632.34 281.748 625.424C270.85 612.889 263.95 597.858 257 583C276.973 593.509 301.513 604.679 324 608L324 607C307.085 599.466 289.623 593.537 273 585.247C267.106 582.307 258.011 579.707 253.649 574.66C245.026 564.682 241.865 543.581 238.63 531C232.231 506.115 226.847 480.663 225.09 455C224.015 439.304 226 423.648 226 408L225 408C220.724 422.332 222.319 438.337 222.961 453C224.735 493.525 234.489 533.551 247 572C241.217 572.737 248.807 578.447 250 581C227.666 565.681 212.451 534.885 201.003 511C197.308 503.291 190.423 493.76 191 485C187.094 485 186.183 477.276 185 474C181.052 463.067 177.547 452.102 174 441C163.33 407.599 158 368.913 158 334C158 319.179 158.85 301.619 170 291L168 290M480 290L480 293L481 293L480 290M37 292C31.551 309.231 35.0652 331.34 36.831 349C40.6776 387.471 45.1492 426.728 62.0617 462C68.4207 475.262 76.7449 490.362 89 499C84.0334 487.27 73.3784 477.511 67.2978 466C54.9434 442.612 48.1731 417.919 43.615 392C39.7405 369.969 37.5617 346.329 37.0147 324C36.7945 315.013 40.2777 300.036 37 292M481 295L483 297L481 295M241 308L240 314L241 314L241 308z"/>
<path style="fill:#ffffff; stroke:none;" d="M456 308L456 317L459 317L456 308M551 309C557.076 335.248 568.853 360.835 571 388L572 388C571.987 368.437 566.847 348.231 560.05 330C557.478 323.1 555.471 314.907 551 309z"/>
<path style="fill:#000000; stroke:none;" d="M239 315L240 316L239 315M540 315C542.035 330.099 546.864 344.646 547.911 360C551.463 412.12 541.073 468.062 520.573 516C512.142 535.714 499.521 552.531 489 571C502.328 563.885 515.909 537.202 520 523C533.369 526.925 545.488 537.149 556 545.92C576.217 562.789 598.339 581.458 611 605L612 605C611.749 594.586 603.628 588.024 598.025 579.999C584.592 560.764 566.912 545.41 548 531.745C540.584 526.387 532.34 519.216 523 518C545.611 470.402 555.3 418.434 551.086 366C549.936 351.697 549.887 326.216 540 315z"/>
<path style="fill:#ffffff; stroke:none;" d="M114 318L109 355C115.303 352.466 115.595 324.64 114 318M455 318C454.988 336.117 448.209 356.377 438 371L459 367L459 368L449 373C455.287 380.124 464.972 372.676 459 367L459 366C464.558 360.948 454.967 343.035 453 337L462.438 358L478 410L479 410L457 318L455 318M459.333 318.667L459.667 319.333L459.333 318.667M284 320L285 321L284 320M283 322L276 336L277 336L283 322M460 322L461 328L462 328L460 322M109 326C103.533 337.695 95.6696 347.713 85 355L85 356C95.7499 355.279 112.535 337.497 109 326M524 328L524 331L525 331L524 328M462.333 330.667L462.667 331.333L462.333 330.667z"/>
<path style="fill:#000000; stroke:none;" d="M65 332L65 343L66 343L65 332z"/>
<path style="fill:#ffffff; stroke:none;" d="M463 333L463 336L464 336L463 333M426 335L423 339L426 335M419 337L416 342L421 337L419 337z"/>
<path style="fill:#000000; stroke:none;" d="M412 338L405 354L406 354L414 338L412 338z"/>
<path style="fill:#ffffff; stroke:none;" d="M107 341L93 357C104.067 361.577 111.015 351.287 107 341M465.333 342.667L465.667 343.333L465.333 342.667M466 346L467 347L466 346z"/>
<path style="fill:#000000; stroke:none;" d="M499 347L500 359L501 359L499 347M442 348L443 354L444 354L442 348M75.3333 350.667L75.6667 351.333L75.3333 350.667z"/>
<path style="fill:#ffffff; stroke:none;" d="M234 350L235 351L234 350M467.333 350.667L467.667 351.333L467.333 350.667z"/>
<path style="fill:#000000; stroke:none;" d="M226 354C210.617 401.291 219.223 450.014 224 498L225 498L219.09 410L223.08 372L226 354z"/>
<path style="fill:#ffffff; stroke:none;" d="M112 356C106.425 361.687 106.516 370.14 113 375L112 356M110 448C105.502 432.151 104 416.431 104 400C104 391.945 106.455 381.772 104.697 374C103.436 368.425 95.5905 361.011 89.9961 359.814C77.7041 357.184 72.0226 376.706 73.3403 386C76.404 407.608 89.9347 437.935 110 448M104 360L102 362L102 363L106 365L104 360z"/>
<path style="fill:#000000; stroke:none;" d="M500 360L501 361L500 360z"/>
<path style="fill:#ffffff; stroke:none;" d="M311 361L317 367L311 361z"/>
<path style="fill:#000000; stroke:none;" d="M445 361L446 362L445 361M235 362L236 363L235 362M319 362L323 370L324 370L319 362z"/>
<path style="fill:#ffffff; stroke:none;" d="M308 363L309 364L308 363z"/>
<path style="fill:#000000; stroke:none;" d="M234 364L233 366L234 364z"/>
<path style="fill:#ffffff; stroke:none;" d="M306 365L307 366L306 365M293 367L294 368L293 367M464.333 370.667L464.667 371.333L464.333 370.667z"/>
<path style="fill:#000000; stroke:none;" d="M418 372C410.662 376.603 403.557 381.47 399 389L408 382C403.717 389.391 393.236 397.841 395 407C401.718 398.885 407.445 390.644 415 383C417.294 380.679 422.422 376.168 417 375L417 374L418 372z"/>
<path style="fill:#ffffff; stroke:none;" d="M107 374C105.424 393.972 104.988 414.221 108.803 434C110.604 443.336 111.783 452.147 120 458C114.868 431.538 114 404.903 114 378L107 374M416 375L408 382L417 376L416 375M447.667 376.333L448.333 376.667L447.667 376.333M464 378C459.203 390.533 467.185 402.805 470.975 415C477.557 436.181 483 457.736 483 480L484 480C484 445.461 478.527 410.299 466 378L464 378M451 379L458 381L458 379L451 379z"/>
<path style="fill:#000000; stroke:none;" d="M422 380C415.8 384.879 412.088 392.148 413 400C408.739 397.795 408.986 395.366 410 391L409 391C405.827 395.967 405.455 398.999 411 402C407.976 413.389 424.912 412.146 423 400L429 396L420 421C426.99 417.651 439.978 392.504 428 389C427.518 395.245 420.365 398.935 418.551 390.995C417.475 386.284 422.978 383.936 422 380M296 385L283 396L293 396L293 397L284 397L284 398L312 419C309.923 411.042 303.113 405.131 297 400L310 404L310 403C303.869 399.37 304.406 396.035 310 392L310 391L291 394L296 385M273 387L272 395L256 398C253.615 402.346 248.984 405.128 244 405L242 411L248 407L249 410C242.978 412.999 235.059 417.842 232 424L248 431L240 421L240 420L279 397L279 396L273 394L277 395L273 387M491 388C491.421 408.308 497.867 428.31 496.961 449C495.604 479.972 483.92 503.809 471 531L470 531C473.088 506.461 461.739 486.192 457.923 463C455.275 446.906 457.339 427.403 457 411C449.54 416.359 454.068 434.989 454.83 443C456.785 463.536 449.266 480.809 440.92 499C437.157 507.202 431.176 515.972 430 525L464 513C464.895 524.323 467.514 532.836 464 544L488 508L495 479L496 479C496 508.269 489.62 535.141 476 561C485.769 555.203 489.662 539.232 492.579 529C501.671 497.103 501.307 459.835 498.17 427C497.085 415.644 498.583 397.254 491 388M401 389L402 390L401 389z"/>
<path style="fill:#ffffff; stroke:none;" d="M572 389L572 396L573 396L572 389z"/>
<path style="fill:#000000; stroke:none;" d="M232 391L233 392L232 391z"/>
<path style="fill:#ffffff; stroke:none;" d="M270 395L260 400L260 401C263.06 400.531 270.675 398.814 270 395M296.333 398.667L296.667 399.333L296.333 398.667z"/>
<path style="fill:#000000; stroke:none;" d="M224 399L225 400L224 399z"/>
<path style="fill:#ffffff; stroke:none;" d="M418 399L419 400L418 399M419 402L422 401L419 402z"/>
<path style="fill:#000000; stroke:none;" d="M447 401L447 402L450 402L447 401z"/>
<path style="fill:#ffffff; stroke:none;" d="M252 404L252 405L259 403L252 404z"/>
<path style="fill:#000000; stroke:none;" d="M267 413L266 413L263 411L266 418L259 417L261 410L260 410C256.605 418.055 260.283 420.002 268 421L268 422L265 423L265 425L273 424L273 425L270 428L275 426L273 431C278.04 428.356 284.455 420.767 285 415C291.663 423.795 281.826 432.788 278 440C290.672 436.433 295.821 411.175 283 405C283.483 407.713 285.181 411.245 283.408 413.767C280.333 418.143 273.444 414.876 273.345 409.999C273.286 407.121 276.468 404.222 278 402C272.476 402.947 270.057 408.722 267 413z"/>
<path style="fill:#ffffff; stroke:none;" d="M420 403L415 408L420 403z"/>
<path style="fill:#000000; stroke:none;" d="M399 404C396.343 412.992 400.472 418.246 407 424L404 425L408 431L409 431C408.438 421.373 403.555 412.503 399 404z"/>
<path style="fill:#ffffff; stroke:none;" d="M411 404L412 405L411 404M412 406L413 407L412 406M419 407L420 408L419 407M413 408L414 409L413 408M417 408L418 409L417 408M415 409L416 410L415 409M249 411L250 412L249 411z"/>
<path style="fill:#000000; stroke:none;" d="M441 412L445 414L445 413L441 412z"/>
<path style="fill:#ffffff; stroke:none;" d="M117 416C117.098 427.792 116.623 457.9 128 464L121.662 436L117 416z"/>
<path style="fill:#000000; stroke:none;" d="M252 416C247.106 427.602 253.902 437.213 265 441L256.086 430.996L252 416M433 419L440 425L433 419z"/>
<path style="fill:#ffffff; stroke:none;" d="M268 420L269 421L268 420M277 421L273 423L273 424L278 422L277 421M269 422L268 424L269 422z"/>
<path style="fill:#000000; stroke:none;" d="M413 425L413 426L424 432L421 424L413 425M297 436L302 440L297 436M248 441L252 438L248 441M286 441L285 444L292 449L286 441M271 442L275 446L276 452L277 452L277 443L271 442M258 443L257 450L258 450L260 443L258 443M520 445L520 448L521 448L520 445z"/>
<path style="fill:#ffffff; stroke:none;" d="M102 450C104.491 481.517 116.575 511.877 136.486 535.961C144.855 546.083 153.907 557.254 166 563L135 504L136 504L149 524L150 524C147.444 509.618 139.197 495.073 134.809 481C132.829 474.652 130.899 469.799 124 468L124 473L118 464L135 504L134 504C130.412 495.385 125.25 487.474 121.323 479C116.278 468.114 113.978 455.502 102 450z"/>
<path style="fill:#000000; stroke:none;" d="M381 452C381.026 460.96 384.935 469.91 394 473L381 452M503 455C503.682 484.082 505.235 517.517 493.572 545C487.513 559.278 475.279 569.532 469 583C498.446 563.112 502.131 522.911 505.17 491C506.092 481.311 509.236 463.221 503 455z"/>
<path style="fill:#ffffff; stroke:none;" d="M456 468L467 525L468 525C468 508.342 466.323 481.8 456 468z"/>
<path style="fill:#000000; stroke:none;" d="M186 470L187 474L188 474L186 470M188 476L188 480L189 480L188 476M98 477L99 478L98 477M402 478L399.415 489.961L389 504C396.144 500.286 414.754 484.865 402 478M101 484L102 488L103 488L101 484z"/>
<path style="fill:#ffffff; stroke:none;" d="M453 484L439 514L462 511L453 484M482 485L482 491L483 491L482 485M481 493L481 498L482 498L481 493z"/>
<path style="fill:#000000; stroke:none;" d="M225 499C223.605 512.014 229.9 532.043 235 544L236 544C234.78 530.846 230.668 510.794 225 499z"/>
<path style="fill:#ffffff; stroke:none;" d="M157 503L158 504L157 503z"/>
<path style="fill:#000000; stroke:none;" d="M366 507L376 505C372.384 502.307 368.462 503.289 366 507M448 509L449 510L448 509M486 512L487 513L486 512M167 514L173 521L167 514M175 523L180 528L180 527L175 523M402 525L397 537C401.772 535.111 408.609 528.855 402 525M340 611C349.558 617.529 364.708 608.37 374 605L375 606L371 630L372 630C381.805 603.694 388.252 580.829 405.475 558C409.723 552.369 416.194 540.163 423 538L427 528C413.294 533.062 401.59 557.348 393.656 569C386.519 579.483 376.786 596.009 365.985 602.787C357.765 607.946 348.889 608.367 340 611M383 529L374 534C377.58 534.287 383.108 533.439 383 529M338 551L338 552L392 540L376 541.79L338 551M307 549L332 552L332 551C325.356 550.71 315.525 549.196 312 543C308.089 543.652 307.3 545.136 307 549M236 545L242 564L243 564L236 545z"/>
<path style="fill:#ffffff; stroke:none;" d="M131 547L132 548L131 547M176 551L177 552L176 551z"/>
<path style="fill:#000000; stroke:none;" d="M385 554C378.142 561.598 366.607 563.018 357 565L352 568L352 569C364.163 569 383.835 569.062 387 554L385 554z"/>
<path style="fill:#ffffff; stroke:none;" d="M374 563L374 564L377 564L374 563M370 564L370 565L373 565L370 564z"/>
<path style="fill:#000000; stroke:none;" d="M243.333 565.667L243.667 566.333L243.333 565.667z"/>
<path style="fill:#ffffff; stroke:none;" d="M360 566L360 567L369 566L360 566z"/>
<path style="fill:#000000; stroke:none;" d="M488 571L487 574L488 571z"/>
<path style="fill:#ffffff; stroke:none;" d="M183 572L184 575L185 575L183 572z"/>
<path style="fill:#000000; stroke:none;" d="M484.667 575.333L485.333 575.667L484.667 575.333M176 578C176.919 598.066 193.786 622.696 187.44 643C179.523 668.33 148.522 681.133 136 703C143.567 700.074 149.332 693.603 155 688.004C166.189 676.952 184.394 663.792 189.058 648C192.183 637.418 189.645 624.654 188.285 614C187.138 605.012 187.36 579.878 176 578z"/>
<path style="fill:#ffffff; stroke:none;" d="M250.333 581.667L250.667 582.333L250.333 581.667z"/>
<path style="fill:#000000; stroke:none;" d="M462 588C462.934 599.83 479.389 600.425 485.307 608.529C488.193 612.481 485.408 617.612 489.228 621.907C496.006 629.526 508.102 631.674 514.397 639.518C517.971 643.973 514.495 650.232 519.228 654.505C531.064 665.188 549.667 668.954 560.682 680.518C564.296 684.312 563.608 692.068 564.84 696.999C566.483 703.575 572.194 709.075 572.681 716C573.023 720.88 569.439 725.978 569 731L568 731L552.17 712.425L545.071 706.632L532 716L510.441 683.714L501 672L494 659L488 662L483 661L483 662C489.123 667.85 500.952 678.336 504.11 686.104C506.156 691.136 502.341 697.031 505.029 701.7C511.059 712.176 528.557 719.331 531.049 731.985C531.791 735.755 527.994 741.269 527.015 745C525.632 750.269 526.569 755.62 526 761L529 762L532 785L517 773L534 795L517 789C519.084 795.346 530.785 801.015 537 802L541 805L540 813L542 813L541 816L612 816L612 638L603 639L612 633L612 627C601.252 627.037 590.431 630.246 580 625.887C567.998 620.87 557.611 609.599 545 605.589C538.864 603.637 535.054 610.504 529.714 609.333C522.014 607.645 515.487 600.537 508 597.973C505.363 597.07 500.916 596.742 499.89 600.185C498.847 603.689 503.713 605.647 506.001 607.061C511.414 610.406 522.347 613.498 524 620L500 605.095L487 602.383L468 592L469 589L462 588z"/>
<path style="fill:#ffffff; stroke:none;" d="M222 590L228 596L222 590M529 615L529 617L531 615L529 615M533 616L531 618L531 619L566 639L567 635L533 616z"/>
<path style="fill:#000000; stroke:none;" d="M218 618L221 620L221 619L218 618z"/>
<path style="fill:#ffffff; stroke:none;" d="M248 620C251.371 625.826 258.694 630.004 265 632L265 631L248 620z"/>
<path style="fill:#000000; stroke:none;" d="M279 632L280 633L279 632z"/>
<path style="fill:#ffffff; stroke:none;" d="M266.667 633.333L267.333 633.667L266.667 633.333M603 639L612 638L612 633C607.536 633.497 605.005 634.936 603 639M598 640L598 641L603 640L598 640z"/>
<path style="fill:#000000; stroke:none;" d="M181 645L182 646L181 645M217 647L223.997 668L241 714L242 714L225.333 665L217 647M352 658L329.907 705.999L318 721C323.427 719.116 327.102 714.25 330.816 710C340.563 698.848 354.364 679.78 357 665C351.442 668.152 348.392 676.256 346 682L345 682L354 658L352 658M221 673L227.139 692L246 733L247 733L231.452 696L221 673z"/>
<path style="fill:#ffffff; stroke:none;" d="M344 682L341 689L342 689L344 682z"/>
<path style="fill:#000000; stroke:none;" d="M242.333 715.667L242.667 716.333L242.333 715.667M79 735C90.3901 731.388 110.668 727.241 117 716C106.831 717.814 85.9948 727.341 79 735M571 716L572 717L571 716M106 718L107 719L106 718M568 719L569 720L568 719M244 720L245 721L244 720M245 722L246 725L247 725L245 722M314 724L312 734L311 734L312 725L301 746C310.466 744.946 317.967 733.202 316 724L314 724z"/>
<path style="fill:#ffffff; stroke:none;" d="M310.333 734.667L310.667 735.333L310.333 734.667z"/>
<path style="fill:#000000; stroke:none;" d="M0 811L1 811C5.49588 796.94 10.5213 775.07 22.3287 765.221C35.7165 754.053 57.9374 753.131 69 739C59.3566 740.64 50.4914 746.098 42 750.691C34.2326 754.893 24.2101 757.992 17.4282 763.638C3.77628 775.003 0 794.406 0 811M219 760L234 765L234 766L215 760C218.471 771.099 244.604 773.373 251 764C242.756 763.999 222.822 753.456 219 760M106 758C105.658 766.926 123.053 769.425 130 770.88C156.059 776.338 182.514 773.181 207 763L207 762C197.033 763.528 187.097 767.727 177 769.569C162.655 772.187 147.215 770.885 133 768C127.717 766.928 112.459 764.713 111 759L106 758z"/>
<path style="fill:#ffffff; stroke:none;" d="M235.667 766.333L236.333 766.667L235.667 766.333z"/>
<path style="fill:#000000; stroke:none;" d="M515.667 799.333L516.333 799.667L515.667 799.333M518 800L520 802L520 800L518 800M515 803L515 805L517 805L517 803L515 803M518 808L521 806L518 808M527.333 806.667L527.667 807.333L527.333 806.667M533 806L532 809L536 809L536 808L533 806M525 810L525 812L528 812L528 810L525 810M516 811L514 816L530 816L516 811M533 813L533 814L538 811L533 813M511 815L512 816L511 815z"/>
<path style="fill:#ffffff; stroke:none;" d="M520.667 815.333L521.333 815.667L520.667 815.333z"/>
</svg>
