<?xml version='1.0' encoding='ascii'?>
<svg xmlns="http://www.w3.org/2000/svg" height="1280" version="1.1" width="1280">
    <g id="RenderLayer_LineSet" inkscape:groupmode="lineset" inkscape:label="RenderLayer_LineSet" xmlns:inkscape="http://www.inkscape.org/namespaces/inkscape">
        <g id="strokes" inkscape:groupmode="layer" inkscape:label="strokes" xmlns:inkscape="http://www.inkscape.org/namespaces/inkscape">
            <path d=" M 680.030, 477.804 675.767, 479.093 671.897, 481.176 670.454, 482.495 667.124, 484.859 667.554, 485.454 669.693, 487.235 670.585, 487.203 671.360, 487.175 " fill="none" stroke="rgb(0, 0, 0)" stroke-linecap="butt" stroke-linejoin="round" stroke-opacity="1.0" stroke-width="3.0" />
            <path d=" M 528.716, 403.409 523.812, 402.801 522.671, 402.688 522.299, 402.651 520.062, 402.428 517.824, 402.586 517.720, 402.593 517.257, 402.626 517.077, 402.639 515.963, 402.718 515.744, 402.733 512.376, 403.234 510.682, 403.486 508.897, 404.205 " fill="none" stroke="rgb(0, 0, 0)" stroke-linecap="butt" stroke-linejoin="round" stroke-opacity="1.0" stroke-width="3.0" />
            <path d=" M 626.646, 862.668 629.722, 858.695 628.343, 857.461 626.365, 856.226 625.473, 853.556 624.781, 849.368 623.159, 847.858 621.501, 847.423 " fill="none" stroke="rgb(0, 0, 0)" stroke-linecap="butt" stroke-linejoin="round" stroke-opacity="1.0" stroke-width="3.0" />
            <path d=" M 577.281, 720.593 577.595, 719.002 578.169, 716.095 579.482, 710.522 581.730, 704.292 581.637, 702.267 581.563, 700.674 " fill="none" stroke="rgb(0, 0, 0)" stroke-linecap="butt" stroke-linejoin="round" stroke-opacity="1.0" stroke-width="3.0" />
            <path d=" M 869.225, 594.994 869.128, 594.668 867.011, 587.562 865.430, 581.455 864.503, 577.516 863.893, 574.928 " fill="none" stroke="rgb(0, 0, 0)" stroke-linecap="butt" stroke-linejoin="round" stroke-opacity="1.0" stroke-width="3.0" />
            <path d=" M 533.479, 372.037 534.212, 370.924 534.222, 369.931 534.219, 368.488 532.232, 367.210 529.374, 366.739 527.540, 367.323 522.464, 368.784 517.928, 370.089 " fill="none" stroke="rgb(0, 0, 0)" stroke-linecap="butt" stroke-linejoin="round" stroke-opacity="1.0" stroke-width="3.0" />
            <path d=" M 435.354, 872.170 438.580, 874.115 444.067, 877.600 451.209, 881.337 453.562, 882.662 " fill="none" stroke="rgb(0, 0, 0)" stroke-linecap="butt" stroke-linejoin="round" stroke-opacity="1.0" stroke-width="3.0" />
            <path d=" M 622.059, 840.666 624.806, 838.862 626.478, 835.870 626.820, 832.609 624.635, 828.920 621.833, 826.405 621.833, 823.422 " fill="none" stroke="rgb(0, 0, 0)" stroke-linecap="butt" stroke-linejoin="round" stroke-opacity="1.0" stroke-width="3.0" />
            <path d=" M 824.497, 808.233 825.717, 811.498 825.439, 813.353 825.024, 816.116 824.931, 816.737 824.849, 817.533 824.596, 820.000 828.491, 823.018 828.528, 823.021 829.167, 823.074 829.407, 823.093 831.049, 823.228 831.254, 823.245 832.475, 823.345 832.569, 823.353 " fill="none" stroke="rgb(0, 0, 0)" stroke-linecap="butt" stroke-linejoin="round" stroke-opacity="1.0" stroke-width="3.0" />
            <path d=" M 531.261, 699.909 531.412, 702.753 531.702, 705.212 531.807, 706.098 531.811, 706.138 532.342, 710.501 532.376, 710.782 533.582, 720.709 533.604, 720.896 " fill="none" stroke="rgb(0, 0, 0)" stroke-linecap="butt" stroke-linejoin="round" stroke-opacity="1.0" stroke-width="3.0" />
            <path d=" M 608.003, 1011.750 607.426, 1011.272 599.718, 1004.900 597.688, 1003.221 592.708, 1001.339 590.598, 1000.093 " fill="none" stroke="rgb(0, 0, 0)" stroke-linecap="butt" stroke-linejoin="round" stroke-opacity="1.0" stroke-width="3.0" />
            <path d=" M 816.028, 785.102 815.268, 787.047 812.630, 793.803 811.564, 797.588 811.317, 800.416 812.133, 801.266 812.221, 801.358 812.548, 801.698 812.600, 801.753 815.603, 802.899 " fill="none" stroke="rgb(0, 0, 0)" stroke-linecap="butt" stroke-linejoin="round" stroke-opacity="1.0" stroke-width="3.0" />
            <path d=" M 758.218, 711.370 762.116, 711.675 763.954, 711.367 769.378, 708.538 769.378, 708.538 769.552, 708.530 770.058, 708.506 775.264, 708.264 775.592, 708.248 776.633, 711.241 " fill="none" stroke="rgb(0, 0, 0)" stroke-linecap="butt" stroke-linejoin="round" stroke-opacity="1.0" stroke-width="3.0" />
            <path d=" M 757.349, 499.281 755.553, 499.013 753.268, 498.672 744.441, 495.352 741.401, 493.680 738.420, 490.379 " fill="none" stroke="rgb(0, 0, 0)" stroke-linecap="butt" stroke-linejoin="round" stroke-opacity="1.0" stroke-width="3.0" />
            <path d=" M 607.280, 859.982 607.329, 855.903 607.349, 854.185 607.349, 854.184 607.350, 854.127 607.350, 854.126 607.387, 850.972 606.930, 849.404 606.025, 846.303 606.017, 845.934 605.942, 842.360 605.934, 842.009 605.928, 841.722 605.786, 841.427 604.998, 839.794 604.611, 838.991 " fill="none" stroke="rgb(0, 0, 0)" stroke-linecap="butt" stroke-linejoin="round" stroke-opacity="1.0" stroke-width="3.0" />
            <path d=" M 553.398, 577.502 553.833, 577.260 553.835, 577.258 555.568, 576.295 556.046, 576.029 558.646, 575.923 562.505, 576.897 567.636, 576.852 568.405, 576.846 571.898, 575.253 573.325, 573.506 " fill="none" stroke="rgb(0, 0, 0)" stroke-linecap="butt" stroke-linejoin="round" stroke-opacity="1.0" stroke-width="3.0" />
            <path d=" M 783.287, 726.822 782.320, 730.931 780.999, 736.541 782.524, 739.554 785.656, 741.281 789.622, 741.099 790.643, 741.052 " fill="none" stroke="rgb(0, 0, 0)" stroke-linecap="butt" stroke-linejoin="round" stroke-opacity="1.0" stroke-width="3.0" />
            <path d=" M 471.431, 1031.350 472.040, 1034.289 474.035, 1044.088 474.657, 1047.142 476.261, 1052.854 " fill="none" stroke="rgb(0, 0, 0)" stroke-linecap="butt" stroke-linejoin="round" stroke-opacity="1.0" stroke-width="3.0" />
            <path d=" M 585.513, 1092.222 585.639, 1088.762 585.944, 1082.922 586.040, 1081.067 586.042, 1080.999 586.093, 1078.457 586.128, 1076.760 586.282, 1075.970 586.811, 1073.272 586.510, 1070.771 586.386, 1070.188 " fill="none" stroke="rgb(0, 0, 0)" stroke-linecap="butt" stroke-linejoin="round" stroke-opacity="1.0" stroke-width="3.0" />
            <path d=" M 611.801, 889.692 613.013, 884.163 612.941, 883.187 612.938, 883.142 612.934, 883.095 612.933, 883.079 612.879, 882.350 612.832, 881.714 612.821, 881.555 612.808, 881.378 612.788, 881.110 612.776, 880.948 612.771, 880.877 612.767, 880.827 612.767, 880.826 612.761, 880.740 612.722, 880.220 612.714, 880.109 612.706, 880.000 612.646, 879.176 612.543, 877.787 611.454, 875.753 611.064, 875.024 611.056, 874.593 611.030, 873.148 611.026, 872.913 611.026, 872.911 611.026, 872.911 611.012, 872.142 610.912, 871.921 610.733, 871.526 610.590, 871.210 609.227, 868.206 " fill="none" stroke="rgb(0, 0, 0)" stroke-linecap="butt" stroke-linejoin="round" stroke-opacity="1.0" stroke-width="3.0" />
            <path d=" M 856.438, 862.988 858.059, 863.679 861.008, 864.935 863.609, 864.777 866.979, 863.840 873.984, 860.136 874.808, 859.660 877.003, 858.391 " fill="none" stroke="rgb(0, 0, 0)" stroke-linecap="butt" stroke-linejoin="round" stroke-opacity="1.0" stroke-width="3.0" />
            <path d=" M 547.573, 618.440 549.230, 619.598 549.491, 619.780 550.891, 620.758 552.939, 622.823 550.185, 619.470 550.130, 619.403 550.113, 619.382 548.126, 616.963 547.809, 616.578 547.162, 615.791 546.910, 615.483 546.527, 615.017 546.195, 614.119 545.833, 613.142 545.182, 611.381 544.621, 609.863 " fill="none" stroke="rgb(0, 0, 0)" stroke-linecap="butt" stroke-linejoin="round" stroke-opacity="1.0" stroke-width="3.0" />
            <path d=" M 360.000, 433.420 359.695, 433.790 359.540, 433.978 359.189, 434.403 357.907, 435.955 357.339, 436.642 356.159, 438.070 355.873, 438.416 355.826, 438.490 355.095, 439.625 353.667, 441.845 352.659, 443.411 350.138, 446.822 349.352, 447.886 349.292, 448.280 349.126, 449.375 349.064, 449.782 348.987, 450.289 348.963, 450.444 348.661, 452.436 " fill="none" stroke="rgb(0, 0, 0)" stroke-linecap="butt" stroke-linejoin="round" stroke-opacity="1.0" stroke-width="3.0" />
            <path d=" M 885.355, 899.744 886.161, 901.360 885.509, 903.556 885.014, 904.287 884.383, 905.219 880.282, 908.404 878.632, 911.039 875.440, 918.607 " fill="none" stroke="rgb(0, 0, 0)" stroke-linecap="butt" stroke-linejoin="round" stroke-opacity="1.0" stroke-width="3.0" />
            <path d=" M 610.969, 915.275 610.786, 914.051 610.778, 913.994 610.230, 910.329 610.075, 907.832 609.668, 901.315 611.693, 894.631 611.849, 892.860 " fill="none" stroke="rgb(0, 0, 0)" stroke-linecap="butt" stroke-linejoin="round" stroke-opacity="1.0" stroke-width="3.0" />
            <path d=" M 592.380, 1067.403 597.538, 1068.875 600.722, 1068.601 607.508, 1066.767 608.921, 1065.300 610.244, 1063.403 610.596, 1062.120 609.359, 1061.172 " fill="none" stroke="rgb(0, 0, 0)" stroke-linecap="butt" stroke-linejoin="round" stroke-opacity="1.0" stroke-width="3.0" />
            <path d=" M 569.723, 535.690 568.420, 534.999 568.295, 534.933 568.154, 534.859 566.229, 533.840 563.933, 532.624 562.960, 532.109 562.603, 531.920 559.927, 530.504 556.768, 529.576 556.264, 529.428 552.948, 528.454 548.897, 527.265 548.634, 527.187 " fill="none" stroke="rgb(0, 0, 0)" stroke-linecap="butt" stroke-linejoin="round" stroke-opacity="1.0" stroke-width="3.0" />
            <path d=" M 319.884, 494.669 319.800, 494.975 318.176, 500.942 317.146, 506.535 317.213, 511.009 317.776, 515.065 317.907, 517.178 " fill="none" stroke="rgb(0, 0, 0)" stroke-linecap="butt" stroke-linejoin="round" stroke-opacity="1.0" stroke-width="3.0" />
            <path d=" M 583.344, 1144.220 579.169, 1135.134 578.999, 1134.762 576.611, 1130.041 573.821, 1123.318 " fill="none" stroke="rgb(0, 0, 0)" stroke-linecap="butt" stroke-linejoin="round" stroke-opacity="1.0" stroke-width="3.0" />
            <path d=" M 464.940, 789.023 466.096, 790.959 470.279, 797.964 473.421, 802.407 477.346, 808.451 " fill="none" stroke="rgb(0, 0, 0)" stroke-linecap="butt" stroke-linejoin="round" stroke-opacity="1.0" stroke-width="3.0" />
            <path d=" M 892.396, 936.302 891.078, 938.531 890.922, 938.795 887.608, 941.702 884.987, 944.577 884.612, 944.988 883.153, 946.589 881.409, 948.884 879.435, 952.482 879.496, 952.939 879.728, 953.238 880.690, 954.477 " fill="none" stroke="rgb(0, 0, 0)" stroke-linecap="butt" stroke-linejoin="round" stroke-opacity="1.0" stroke-width="3.0" />
            <path d=" M 553.072, 723.381 554.430, 718.604 554.873, 715.139 554.898, 714.945 555.015, 714.035 555.046, 713.788 555.143, 713.032 555.144, 713.026 556.606, 706.305 556.730, 705.736 556.272, 705.065 555.173, 704.864 552.060, 704.295 551.859, 704.258 " fill="none" stroke="rgb(0, 0, 0)" stroke-linecap="butt" stroke-linejoin="round" stroke-opacity="1.0" stroke-width="3.0" />
            <path d=" M 346.281, 460.542 345.508, 461.685 344.358, 463.387 342.389, 468.272 340.939, 472.588 340.152, 474.567 338.801, 477.921 336.207, 481.428 " fill="none" stroke="rgb(0, 0, 0)" stroke-linecap="butt" stroke-linejoin="round" stroke-opacity="1.0" stroke-width="3.0" />
            <path d=" M 367.710, 421.091 366.690, 422.193 365.396, 423.591 364.841, 424.520 364.752, 424.669 362.954, 427.677 360.760, 430.446 360.559, 430.700 360.392, 430.910 359.912, 431.517 358.378, 433.452 357.048, 434.745 354.278, 440.056 " fill="none" stroke="rgb(0, 0, 0)" stroke-linecap="butt" stroke-linejoin="round" stroke-opacity="1.0" stroke-width="3.0" />
            <path d=" M 587.423, 1135.788 591.936, 1136.374 599.046, 1135.195 600.092, 1134.595 601.602, 1133.690 604.791, 1131.361 606.390, 1128.898 606.446, 1127.984 606.476, 1126.989 " fill="none" stroke="rgb(0, 0, 0)" stroke-linecap="butt" stroke-linejoin="round" stroke-opacity="1.0" stroke-width="3.0" />
            <path d=" M 820.099, 782.026 820.300, 782.673 820.661, 783.840 822.700, 790.872 825.011, 796.077 825.409, 796.973 825.693, 797.614 830.175, 802.949 " fill="none" stroke="rgb(0, 0, 0)" stroke-linecap="butt" stroke-linejoin="round" stroke-opacity="1.0" stroke-width="3.0" />
            <path d=" M 879.728, 953.238 880.595, 955.479 880.685, 957.834 880.905, 958.375 882.590, 959.518 886.892, 959.121 887.689, 958.913 888.496, 958.702 888.498, 958.701 890.725, 958.120 895.760, 954.558 897.168, 954.365 897.332, 954.342 897.735, 954.287 897.849, 954.271 " fill="none" stroke="rgb(0, 0, 0)" stroke-linecap="butt" stroke-linejoin="round" stroke-opacity="1.0" stroke-width="3.0" />
            <path d=" M 592.222, 801.891 592.101, 801.611 591.651, 800.564 591.150, 799.400 590.330, 798.490 589.998, 798.122 589.493, 797.561 587.197, 795.013 586.852, 794.631 586.689, 794.206 586.643, 794.087 586.537, 793.810 586.409, 793.476 585.948, 792.278 585.665, 791.539 585.390, 790.824 585.091, 790.047 584.779, 789.233 581.773, 782.706 581.668, 782.477 581.458, 782.021 581.409, 781.916 581.360, 781.810 581.258, 781.588 581.224, 781.514 581.145, 781.342 580.920, 780.853 " fill="none" stroke="rgb(0, 0, 0)" stroke-linecap="butt" stroke-linejoin="round" stroke-opacity="1.0" stroke-width="3.0" />
            <path d=" M 501.346, 853.472 501.961, 854.653 505.212, 860.369 507.437, 866.438 509.132, 871.496 510.012, 872.617 510.200, 872.858 510.532, 873.280 510.629, 873.404 510.633, 873.409 510.634, 873.411 510.683, 873.472 512.219, 875.431 " fill="none" stroke="rgb(0, 0, 0)" stroke-linecap="butt" stroke-linejoin="round" stroke-opacity="1.0" stroke-width="3.0" />
            <path d=" M 777.496, 494.301 774.505, 493.890 770.094, 493.283 762.563, 493.236 759.931, 493.389 756.081, 496.833 755.553, 499.013 " fill="none" stroke="rgb(0, 0, 0)" stroke-linecap="butt" stroke-linejoin="round" stroke-opacity="1.0" stroke-width="3.0" />
            <path d=" M 716.111, 674.554 719.973, 675.080 722.143, 675.752 725.014, 676.113 726.421, 675.991 729.153, 675.572 734.714, 675.736 738.552, 676.053 740.167, 675.336 740.790, 675.059 " fill="none" stroke="rgb(0, 0, 0)" stroke-linecap="butt" stroke-linejoin="round" stroke-opacity="1.0" stroke-width="3.0" />
            <path d=" M 460.169, 381.163 458.928, 379.275 458.869, 379.187 458.773, 379.040 458.674, 378.889 458.277, 378.286 457.765, 377.507 457.123, 376.530 455.470, 373.876 451.322, 369.406 448.521, 366.216 446.513, 363.929 444.061, 361.694 444.028, 361.665 " fill="none" stroke="rgb(0, 0, 0)" stroke-linecap="butt" stroke-linejoin="round" stroke-opacity="1.0" stroke-width="3.0" />
            <path d=" M 320.058, 564.241 321.152, 568.749 320.694, 571.637 320.587, 579.261 320.573, 580.223 320.554, 581.581 321.585, 588.034 321.989, 589.378 " fill="none" stroke="rgb(0, 0, 0)" stroke-linecap="butt" stroke-linejoin="round" stroke-opacity="1.0" stroke-width="3.0" />
            <path d=" M 649.842, 684.930 652.676, 685.440 655.474, 685.686 663.229, 684.278 669.813, 682.372 674.411, 681.315 674.776, 681.231 " fill="none" stroke="rgb(0, 0, 0)" stroke-linecap="butt" stroke-linejoin="round" stroke-opacity="1.0" stroke-width="3.0" />
            <path d=" M 522.464, 368.784 512.580, 370.302 510.967, 370.549 507.661, 371.832 505.442, 372.693 504.852, 373.073 504.471, 373.318 498.721, 377.019 " fill="none" stroke="rgb(0, 0, 0)" stroke-linecap="butt" stroke-linejoin="round" stroke-opacity="1.0" stroke-width="3.0" />
            <path d=" M 825.409, 796.973 825.661, 798.136 825.035, 800.950 820.653, 806.321 820.225, 807.946 819.560, 812.843 819.753, 814.845 819.863, 815.119 820.148, 815.825 824.426, 817.515 824.849, 817.533 " fill="none" stroke="rgb(0, 0, 0)" stroke-linecap="butt" stroke-linejoin="round" stroke-opacity="1.0" stroke-width="3.0" />
            <path d=" M 941.162, 806.010 939.867, 801.295 938.022, 794.574 935.787, 787.290 933.861, 781.339 " fill="none" stroke="rgb(0, 0, 0)" stroke-linecap="butt" stroke-linejoin="round" stroke-opacity="1.0" stroke-width="3.0" />
            <path d=" M 552.557, 612.653 553.479, 612.658 553.827, 612.660 555.499, 612.669 557.650, 611.436 560.229, 608.665 561.021, 607.733 562.125, 602.803 561.533, 594.708 561.355, 592.281 " fill="none" stroke="rgb(0, 0, 0)" stroke-linecap="butt" stroke-linejoin="round" stroke-opacity="1.0" stroke-width="3.0" />
            <path d=" M 445.904, 690.009 445.763, 690.263 446.069, 695.999 448.258, 704.031 447.045, 709.876 447.097, 711.392 447.243, 715.690 " fill="none" stroke="rgb(0, 0, 0)" stroke-linecap="butt" stroke-linejoin="round" stroke-opacity="1.0" stroke-width="3.0" />
            <path d=" M 831.049, 823.228 830.348, 824.110 828.485, 826.500 828.292, 826.749 827.555, 827.857 827.500, 827.940 827.299, 828.243 827.577, 828.615 829.162, 830.741 830.962, 831.106 835.534, 829.599 841.608, 827.471 844.941, 827.336 845.010, 827.333 845.460, 827.315 " fill="none" stroke="rgb(0, 0, 0)" stroke-linecap="butt" stroke-linejoin="round" stroke-opacity="1.0" stroke-width="3.0" />
            <path d=" M 444.061, 361.694 441.283, 357.213 438.192, 353.270 434.591, 349.051 429.826, 346.323 426.802, 345.146 425.020, 344.870 424.717, 344.823 " fill="none" stroke="rgb(0, 0, 0)" stroke-linecap="butt" stroke-linejoin="round" stroke-opacity="1.0" stroke-width="3.0" />
            <path d=" M 948.512, 990.700 949.449, 986.093 950.731, 979.786 951.663, 973.332 952.377, 964.227 " fill="none" stroke="rgb(0, 0, 0)" stroke-linecap="butt" stroke-linejoin="round" stroke-opacity="1.0" stroke-width="3.0" />
            <path d=" M 740.970, 495.382 738.420, 490.379 734.453, 485.589 731.240, 480.785 730.024, 479.012 724.094, 473.600 " fill="none" stroke="rgb(0, 0, 0)" stroke-linecap="butt" stroke-linejoin="round" stroke-opacity="1.0" stroke-width="3.0" />
            <path d=" M 584.386, 380.235 583.812, 379.093 582.112, 375.712 578.881, 370.100 575.579, 368.815 569.851, 369.209 563.161, 371.351 " fill="none" stroke="rgb(0, 0, 0)" stroke-linecap="butt" stroke-linejoin="round" stroke-opacity="1.0" stroke-width="3.0" />
            <path d=" M 419.764, 693.082 428.966, 689.167 429.880, 688.778 438.696, 684.058 439.224, 683.776 444.936, 680.559 " fill="none" stroke="rgb(0, 0, 0)" stroke-linecap="butt" stroke-linejoin="round" stroke-opacity="1.0" stroke-width="3.0" />
            <path d=" M 946.065, 828.856 944.607, 818.963 943.848, 813.810 940.817, 804.281 939.867, 801.295 " fill="none" stroke="rgb(0, 0, 0)" stroke-linecap="butt" stroke-linejoin="round" stroke-opacity="1.0" stroke-width="3.0" />
            <path d=" M 619.320, 855.492 620.087, 852.824 620.160, 852.572 621.220, 848.114 621.501, 847.423 621.745, 846.827 623.753, 844.285 622.795, 841.313 622.059, 840.666 616.561, 835.837 615.203, 835.693 615.039, 835.676 613.357, 835.498 613.021, 835.462 612.974, 835.457 611.696, 835.322 " fill="none" stroke="rgb(0, 0, 0)" stroke-linecap="butt" stroke-linejoin="round" stroke-opacity="1.0" stroke-width="3.0" />
            <path d=" M 591.743, 418.955 592.499, 417.933 592.987, 417.398 595.289, 414.871 594.429, 412.373 593.002, 410.252 592.859, 410.039 591.755, 408.400 591.612, 408.305 587.808, 405.782 577.920, 404.291 576.941, 404.143 " fill="none" stroke="rgb(0, 0, 0)" stroke-linecap="butt" stroke-linejoin="round" stroke-opacity="1.0" stroke-width="3.0" />
            <path d=" M 382.775, 833.514 384.095, 841.663 387.298, 851.136 388.579, 854.922 389.813, 857.497 391.751, 860.544 " fill="none" stroke="rgb(0, 0, 0)" stroke-linecap="butt" stroke-linejoin="round" stroke-opacity="1.0" stroke-width="3.0" />
            <path d=" M 398.938, 368.524 398.032, 371.560 394.206, 379.406 393.032, 381.813 392.761, 382.369 392.576, 382.750 389.800, 386.950 387.642, 389.482 387.740, 391.430 387.766, 391.938 388.204, 394.195 " fill="none" stroke="rgb(0, 0, 0)" stroke-linecap="butt" stroke-linejoin="round" stroke-opacity="1.0" stroke-width="3.0" />
            <path d=" M 333.792, 655.080 335.121, 658.886 336.180, 661.921 336.558, 664.637 337.818, 669.551 339.589, 674.521 339.324, 679.187 340.691, 683.012 " fill="none" stroke="rgb(0, 0, 0)" stroke-linecap="butt" stroke-linejoin="round" stroke-opacity="1.0" stroke-width="3.0" />
            <path d=" M 530.248, 775.870 530.139, 775.459 529.753, 773.999 529.089, 771.492 525.849, 767.706 523.263, 766.516 519.297, 763.561 515.300, 759.676 512.302, 757.167 510.726, 755.434 " fill="none" stroke="rgb(0, 0, 0)" stroke-linecap="butt" stroke-linejoin="round" stroke-opacity="1.0" stroke-width="3.0" />
            <path d=" M 482.779, 1073.352 483.756, 1079.180 484.386, 1081.444 485.713, 1086.152 487.243, 1092.141 489.935, 1101.661 " fill="none" stroke="rgb(0, 0, 0)" stroke-linecap="butt" stroke-linejoin="round" stroke-opacity="1.0" stroke-width="3.0" />
            <path d=" M 581.621, 834.087 581.949, 831.596 581.997, 831.228 582.197, 829.708 582.170, 829.250 582.088, 827.873 582.015, 826.647 581.583, 824.445 581.579, 824.425 581.560, 824.329 580.743, 820.169 580.430, 819.373 580.278, 818.986 579.275, 816.434 579.223, 816.303 578.911, 815.507 578.831, 815.216 577.807, 811.469 577.728, 811.180 577.682, 811.013 577.438, 810.701 576.168, 809.086 574.366, 806.642 " fill="none" stroke="rgb(0, 0, 0)" stroke-linecap="butt" stroke-linejoin="round" stroke-opacity="1.0" stroke-width="3.0" />
            <path d=" M 587.609, 760.625 589.227, 758.162 589.712, 752.288 589.930, 750.373 590.129, 747.264 588.859, 744.736 587.810, 744.184 585.126, 743.958 582.155, 745.955 579.779, 749.604 579.430, 750.913 " fill="none" stroke="rgb(0, 0, 0)" stroke-linecap="butt" stroke-linejoin="round" stroke-opacity="1.0" stroke-width="3.0" />
            <path d=" M 785.368, 727.666 785.332, 727.639 784.749, 727.202 783.326, 726.134 783.057, 725.932 781.811, 724.997 779.844, 723.521 777.944, 721.734 781.766, 725.373 783.287, 726.822 784.210, 727.700 785.391, 728.825 785.565, 729.131 786.715, 731.161 786.888, 732.184 787.747, 737.265 787.755, 737.309 788.015, 738.849 " fill="none" stroke="rgb(0, 0, 0)" stroke-linecap="butt" stroke-linejoin="round" stroke-opacity="1.0" stroke-width="3.0" />
            <path d=" M 568.306, 370.954 563.161, 371.351 558.850, 371.683 555.261, 372.576 549.631, 374.323 548.436, 375.152 541.843, 378.943 541.155, 379.607 540.172, 380.556 " fill="none" stroke="rgb(0, 0, 0)" stroke-linecap="butt" stroke-linejoin="round" stroke-opacity="1.0" stroke-width="3.0" />
            <path d=" M 550.110, 806.163 548.497, 801.918 548.318, 795.653 547.126, 794.039 545.154, 793.190 543.954, 790.122 542.494, 787.211 542.437, 787.097 542.222, 786.669 542.212, 786.647 541.315, 785.678 540.905, 785.234 540.898, 785.227 540.292, 784.570 540.271, 784.548 540.054, 784.313 540.031, 784.288 539.784, 784.021 539.769, 784.005 539.366, 783.568 537.235, 781.916 535.612, 781.434 " fill="none" stroke="rgb(0, 0, 0)" stroke-linecap="butt" stroke-linejoin="round" stroke-opacity="1.0" stroke-width="3.0" />
            <path d=" M 363.331, 740.840 360.939, 744.401 356.024, 751.174 355.925, 751.281 355.838, 751.374 355.700, 751.523 353.483, 753.912 351.598, 758.107 350.162, 761.795 349.034, 767.399 349.015, 767.493 " fill="none" stroke="rgb(0, 0, 0)" stroke-linecap="butt" stroke-linejoin="round" stroke-opacity="1.0" stroke-width="3.0" />
            <path d=" M 566.984, 467.304 566.726, 467.561 564.864, 469.414 564.016, 469.234 563.895, 469.209 561.706, 468.745 560.461, 468.482 560.005, 467.885 559.320, 466.988 557.874, 466.008 557.604, 465.825 556.851, 467.710 556.957, 467.969 557.761, 469.932 557.655, 470.174 557.482, 470.571 557.348, 470.878 557.324, 470.935 557.196, 471.228 557.190, 471.242 557.159, 471.311 556.180, 473.557 556.000, 473.970 555.977, 474.022 555.920, 474.152 555.819, 474.384 555.635, 474.806 555.230, 475.735 555.191, 476.649 554.558, 480.083 554.276, 482.359 554.236, 482.684 554.047, 484.211 " fill="none" stroke="rgb(0, 0, 0)" stroke-linecap="butt" stroke-linejoin="round" stroke-opacity="1.0" stroke-width="3.0" />
            <path d=" M 349.034, 767.399 348.796, 768.083 348.662, 774.700 349.949, 781.351 353.974, 790.505 354.431, 791.545 355.295, 792.567 358.067, 795.842 " fill="none" stroke="rgb(0, 0, 0)" stroke-linecap="butt" stroke-linejoin="round" stroke-opacity="1.0" stroke-width="3.0" />
            <path d=" M 536.033, 955.026 536.272, 954.794 536.888, 954.195 539.265, 951.885 548.109, 949.172 552.377, 948.728 562.074, 948.110 564.695, 949.056 565.213, 949.243 565.311, 949.279 " fill="none" stroke="rgb(0, 0, 0)" stroke-linecap="butt" stroke-linejoin="round" stroke-opacity="1.0" stroke-width="3.0" />
            <path d=" M 591.612, 408.305 591.636, 406.009 591.422, 402.979 591.359, 399.039 591.301, 395.469 589.948, 389.197 588.446, 384.696 586.349, 381.040 583.814, 379.096 583.812, 379.093 " fill="none" stroke="rgb(0, 0, 0)" stroke-linecap="butt" stroke-linejoin="round" stroke-opacity="1.0" stroke-width="3.0" />
            <path d=" M 458.417, 379.047 458.419, 379.050 458.532, 379.187 458.625, 379.298 460.169, 381.163 460.820, 381.949 468.985, 386.499 471.092, 387.122 475.158, 389.280 475.810, 389.688 480.358, 392.525 480.912, 392.863 482.715, 393.965 481.950, 393.717 479.991, 393.644 " fill="none" stroke="rgb(0, 0, 0)" stroke-linecap="butt" stroke-linejoin="round" stroke-opacity="1.0" stroke-width="3.0" />
            <path d=" M 903.183, 984.955 903.101, 987.071 902.714, 987.792 902.128, 988.883 898.330, 993.671 895.649, 1000.767 894.021, 1004.502 891.361, 1009.086 890.909, 1010.079 889.520, 1013.138 " fill="none" stroke="rgb(0, 0, 0)" stroke-linecap="butt" stroke-linejoin="round" stroke-opacity="1.0" stroke-width="3.0" />
            <path d=" M 363.746, 427.274 364.716, 425.962 365.558, 424.043 365.617, 423.908 367.325, 422.011 368.386, 420.833 368.724, 420.458 368.870, 420.296 370.547, 418.433 371.446, 417.435 374.106, 415.223 374.224, 415.125 374.422, 414.961 375.082, 414.411 377.928, 412.044 379.566, 410.682 382.073, 408.618 383.722, 407.261 384.639, 406.506 382.467, 407.943 " fill="none" stroke="rgb(0, 0, 0)" stroke-linecap="butt" stroke-linejoin="round" stroke-opacity="1.0" stroke-width="3.0" />
            <path d=" M 604.982, 840.307 604.840, 839.804 604.611, 838.991 604.580, 838.880 604.569, 838.843 604.456, 838.439 604.216, 837.588 604.068, 837.063 604.055, 837.016 604.008, 836.850 603.867, 836.352 603.102, 833.637 603.075, 833.578 602.607, 832.523 602.539, 832.370 602.330, 831.899 602.176, 831.551 602.087, 831.352 602.064, 831.301 600.365, 827.473 599.128, 823.548 598.474, 822.405 598.408, 822.290 598.331, 822.122 598.194, 821.823 594.775, 814.366 594.722, 812.731 594.622, 809.672 " fill="none" stroke="rgb(0, 0, 0)" stroke-linecap="butt" stroke-linejoin="round" stroke-opacity="1.0" stroke-width="3.0" />
            <path d=" M 878.518, 626.351 878.233, 625.242 876.274, 617.613 874.447, 612.188 873.136, 608.185 872.879, 603.902 871.069, 598.011 869.128, 594.668 " fill="none" stroke="rgb(0, 0, 0)" stroke-linecap="butt" stroke-linejoin="round" stroke-opacity="1.0" stroke-width="3.0" />
            <path d=" M 611.361, 796.920 611.388, 796.787 611.540, 796.049 611.962, 794.005 612.608, 790.869 612.370, 788.234 612.325, 787.732 612.204, 787.544 610.807, 785.371 607.002, 784.132 601.168, 783.819 597.657, 784.283 596.787, 784.398 594.103, 785.572 591.600, 786.666 591.326, 786.860 590.337, 787.563 " fill="none" stroke="rgb(0, 0, 0)" stroke-linecap="butt" stroke-linejoin="round" stroke-opacity="1.0" stroke-width="3.0" />
            <path d=" M 574.811, 808.203 574.366, 806.642 573.683, 804.243 573.463, 803.468 573.410, 803.284 573.232, 802.657 573.264, 802.202 573.288, 801.859 573.589, 797.583 572.962, 795.367 572.343, 793.181 571.713, 790.957 571.357, 789.701 571.231, 789.599 570.957, 789.374 570.955, 789.373 570.808, 789.253 570.677, 789.147 570.622, 789.101 570.616, 789.097 566.817, 785.995 564.628, 784.310 564.052, 783.867 563.943, 783.783 563.218, 783.226 562.238, 782.471 559.380, 781.037 " fill="none" stroke="rgb(0, 0, 0)" stroke-linecap="butt" stroke-linejoin="round" stroke-opacity="1.0" stroke-width="3.0" />
            <path d=" M 847.189, 511.236 843.103, 505.878 842.824, 505.513 838.735, 501.504 836.903, 500.226 833.277, 498.557 831.712, 497.400 825.913, 494.078 821.614, 494.929 819.836, 494.833 " fill="none" stroke="rgb(0, 0, 0)" stroke-linecap="butt" stroke-linejoin="round" stroke-opacity="1.0" stroke-width="3.0" />
            <path d=" M 611.056, 874.593 611.345, 874.525 612.223, 874.320 614.448, 872.803 619.462, 872.054 619.583, 871.985 620.298, 871.575 624.209, 869.334 624.396, 868.998 625.040, 867.780 625.059, 867.744 625.063, 867.737 626.909, 864.247 626.646, 862.668 626.214, 860.073 625.839, 859.548 624.088, 857.101 623.308, 856.012 620.087, 852.824 " fill="none" stroke="rgb(0, 0, 0)" stroke-linecap="butt" stroke-linejoin="round" stroke-opacity="1.0" stroke-width="3.0" />
            <path d=" M 897.168, 954.365 898.663, 959.158 900.218, 969.036 900.756, 972.459 900.293, 977.971 901.661, 983.126 902.543, 987.149 902.714, 987.792 " fill="none" stroke="rgb(0, 0, 0)" stroke-linecap="butt" stroke-linejoin="round" stroke-opacity="1.0" stroke-width="3.0" />
            <path d=" M 536.284, 610.975 537.814, 610.930 537.838, 610.930 538.893, 610.899 538.917, 610.898 538.955, 610.897 539.186, 610.890 540.519, 610.852 540.552, 610.851 541.178, 610.833 542.315, 610.800 543.289, 610.771 543.482, 610.766 544.220, 610.181 544.344, 610.082 544.621, 609.863 545.274, 609.345 548.031, 607.159 548.125, 607.084 548.248, 606.867 548.249, 606.866 548.390, 606.617 548.495, 606.431 548.790, 605.910 548.849, 605.805 549.871, 604.002 549.986, 599.325 550.092, 597.041 550.094, 596.990 550.168, 595.395 550.181, 595.107 549.951, 591.503 549.946, 591.426 549.921, 591.022 549.916, 590.953 549.632, 586.496 " fill="none" stroke="rgb(0, 0, 0)" stroke-linecap="butt" stroke-linejoin="round" stroke-opacity="1.0" stroke-width="3.0" />
            <path d=" M 890.812, 657.799 888.207, 650.211 884.585, 640.890 883.816, 638.912 880.221, 630.631 878.233, 625.242 " fill="none" stroke="rgb(0, 0, 0)" stroke-linecap="butt" stroke-linejoin="round" stroke-opacity="1.0" stroke-width="3.0" />
            <path d=" M 885.896, 1019.298 882.774, 1021.791 881.381, 1022.904 879.496, 1025.333 879.100, 1026.831 878.426, 1031.060 878.635, 1032.342 879.339, 1034.816 882.497, 1036.469 886.680, 1036.335 892.278, 1035.869 895.541, 1034.719 " fill="none" stroke="rgb(0, 0, 0)" stroke-linecap="butt" stroke-linejoin="round" stroke-opacity="1.0" stroke-width="3.0" />
            <path d=" M 328.611, 624.350 328.653, 625.957 328.896, 630.347 330.424, 635.084 331.353, 640.690 331.433, 648.075 332.339, 651.962 332.701, 653.386 335.121, 658.886 " fill="none" stroke="rgb(0, 0, 0)" stroke-linecap="butt" stroke-linejoin="round" stroke-opacity="1.0" stroke-width="3.0" />
            <path d=" M 593.736, 995.451 598.285, 996.521 601.017, 997.163 610.040, 996.339 619.273, 992.498 620.276, 992.081 627.296, 988.362 " fill="none" stroke="rgb(0, 0, 0)" stroke-linecap="butt" stroke-linejoin="round" stroke-opacity="1.0" stroke-width="3.0" />
            <path d=" M 805.149, 712.987 805.203, 713.046 808.046, 716.119 809.545, 716.723 810.917, 717.276 811.584, 717.544 811.869, 717.659 812.153, 717.773 812.352, 717.854 813.015, 718.595 813.045, 718.630 813.243, 718.851 813.308, 718.923 813.335, 718.954 815.008, 720.826 815.879, 724.072 815.901, 724.156 818.553, 728.961 819.457, 730.599 819.856, 731.322 820.098, 731.760 823.873, 737.018 825.317, 741.009 " fill="none" stroke="rgb(0, 0, 0)" stroke-linecap="butt" stroke-linejoin="round" stroke-opacity="1.0" stroke-width="3.0" />
            <path d=" M 789.622, 741.099 789.705, 741.527 790.880, 743.095 793.102, 746.960 796.471, 750.145 796.796, 753.135 796.840, 753.538 796.450, 754.356 794.969, 757.464 794.162, 760.112 794.930, 765.631 795.258, 766.144 795.870, 766.924 798.233, 767.317 802.793, 767.243 803.130, 767.238 " fill="none" stroke="rgb(0, 0, 0)" stroke-linecap="butt" stroke-linejoin="round" stroke-opacity="1.0" stroke-width="3.0" />
            <path d=" M 809.710, 493.801 809.108, 493.756 805.883, 493.512 804.611, 493.416 803.887, 492.962 800.364, 490.751 797.037, 491.049 793.217, 490.778 786.799, 490.688 786.102, 490.717 784.236, 491.476 778.423, 493.463 774.505, 493.890 " fill="none" stroke="rgb(0, 0, 0)" stroke-linecap="butt" stroke-linejoin="round" stroke-opacity="1.0" stroke-width="3.0" />
            <path d=" M 615.297, 547.132 618.307, 549.605 619.475, 550.565 619.914, 550.926 620.352, 551.286 620.690, 551.563 629.070, 553.528 629.272, 553.575 629.309, 553.584 629.388, 553.603 633.243, 554.386 635.378, 553.671 635.396, 553.665 635.716, 553.557 635.845, 553.514 636.028, 553.453 636.798, 553.195 638.759, 552.537 641.501, 549.195 648.184, 546.387 648.272, 546.350 " fill="none" stroke="rgb(0, 0, 0)" stroke-linecap="butt" stroke-linejoin="round" stroke-opacity="1.0" stroke-width="3.0" />
            <path d=" M 948.844, 830.703 949.864, 832.669 951.116, 837.819 951.701, 840.226 948.844, 830.703 947.298, 825.552 945.068, 819.889 943.848, 813.810 " fill="none" stroke="rgb(0, 0, 0)" stroke-linecap="butt" stroke-linejoin="round" stroke-opacity="1.0" stroke-width="3.0" />
            <path d=" M 477.029, 1063.391 477.889, 1068.026 480.071, 1077.171 481.936, 1082.766 483.173, 1089.070 485.094, 1094.575 487.006, 1099.709 " fill="none" stroke="rgb(0, 0, 0)" stroke-linecap="butt" stroke-linejoin="round" stroke-opacity="1.0" stroke-width="3.0" />
            <path d=" M 547.146, 857.722 547.431, 854.723 547.661, 853.637 548.509, 849.628 548.597, 841.076 548.725, 836.602 549.080, 835.600 550.252, 832.284 552.561, 827.354 558.697, 824.359 " fill="none" stroke="rgb(0, 0, 0)" stroke-linecap="butt" stroke-linejoin="round" stroke-opacity="1.0" stroke-width="3.0" />
            <path d=" M 575.138, 757.020 574.923, 755.847 574.425, 745.942 574.747, 736.731 576.348, 726.860 576.617, 725.199 577.595, 719.002 " fill="none" stroke="rgb(0, 0, 0)" stroke-linecap="butt" stroke-linejoin="round" stroke-opacity="1.0" stroke-width="3.0" />
            <path d=" M 873.741, 921.912 867.562, 926.314 864.871, 928.688 864.116, 930.339 863.175, 932.399 862.734, 932.770 861.520, 933.788 861.480, 934.974 862.773, 938.955 865.988, 941.063 872.373, 940.550 877.547, 938.043 " fill="none" stroke="rgb(0, 0, 0)" stroke-linecap="butt" stroke-linejoin="round" stroke-opacity="1.0" stroke-width="3.0" />
            <path d=" M 890.086, 1035.064 895.500, 1034.725 895.541, 1034.719 895.654, 1034.701 901.705, 1033.768 905.677, 1032.344 907.480, 1031.828 907.559, 1031.805 910.516, 1030.958 911.475, 1030.684 913.790, 1028.887 916.380, 1026.877 916.394, 1026.865 916.675, 1026.647 917.136, 1026.289 917.551, 1025.833 917.555, 1025.828 917.568, 1025.814 918.015, 1025.321 918.334, 1024.970 918.626, 1024.648 918.948, 1024.295 919.231, 1023.982 923.019, 1018.286 " fill="none" stroke="rgb(0, 0, 0)" stroke-linecap="butt" stroke-linejoin="round" stroke-opacity="1.0" stroke-width="3.0" />
            <path d=" M 755.392, 686.189 749.615, 689.130 748.642, 690.419 747.512, 692.448 747.329, 693.151 746.446, 696.549 749.255, 699.403 749.966, 700.125 750.325, 701.204 750.446, 701.566 750.418, 701.977 750.072, 707.083 751.213, 710.464 755.709, 711.957 758.218, 711.370 759.695, 711.024 " fill="none" stroke="rgb(0, 0, 0)" stroke-linecap="butt" stroke-linejoin="round" stroke-opacity="1.0" stroke-width="3.0" />
            <path d=" M 826.791, 829.769 825.195, 831.166 823.276, 832.846 822.178, 833.806 821.312, 834.565 821.247, 834.622 819.889, 837.297 820.571, 838.684 820.241, 839.959 821.349, 841.963 826.526, 843.334 833.825, 844.016 838.268, 844.582 842.100, 846.734 845.271, 846.660 " fill="none" stroke="rgb(0, 0, 0)" stroke-linecap="butt" stroke-linejoin="round" stroke-opacity="1.0" stroke-width="3.0" />
            <path d=" M 619.822, 1105.459 614.294, 1102.816 605.664, 1097.763 603.092, 1096.257 599.829, 1094.015 597.687, 1092.271 590.208, 1085.986 585.944, 1082.922 " fill="none" stroke="rgb(0, 0, 0)" stroke-linecap="butt" stroke-linejoin="round" stroke-opacity="1.0" stroke-width="3.0" />
            <path d=" M 620.876, 825.108 621.833, 823.422 623.369, 820.717 624.497, 817.761 622.613, 815.077 617.898, 811.342 616.485, 810.954 613.804, 810.315 613.414, 808.521 616.060, 803.809 616.927, 800.515 616.389, 798.095 611.962, 794.005 " fill="none" stroke="rgb(0, 0, 0)" stroke-linecap="butt" stroke-linejoin="round" stroke-opacity="1.0" stroke-width="3.0" />
            <path d=" M 618.814, 550.631 620.828, 552.093 621.348, 552.451 624.112, 554.350 627.385, 559.802 627.382, 559.941 627.297, 564.828 627.100, 568.464 626.770, 571.751 625.212, 577.425 620.718, 583.956 618.184, 587.124 " fill="none" stroke="rgb(0, 0, 0)" stroke-linecap="butt" stroke-linejoin="round" stroke-opacity="1.0" stroke-width="3.0" />
            <path d=" M 612.370, 788.234 612.912, 786.766 611.466, 783.677 608.342, 781.912 605.968, 780.340 604.563, 779.654 596.928, 782.197 595.617, 782.053 593.778, 781.850 592.699, 778.467 592.667, 778.368 590.587, 775.517 589.164, 773.066 586.460, 767.437 585.556, 765.217 " fill="none" stroke="rgb(0, 0, 0)" stroke-linecap="butt" stroke-linejoin="round" stroke-opacity="1.0" stroke-width="3.0" />
            <path d=" M 482.415, 817.067 483.056, 818.979 486.931, 825.071 488.882, 830.102 490.669, 833.214 493.390, 838.366 495.912, 842.760 498.845, 848.893 498.872, 848.951 498.881, 848.968 498.949, 849.111 499.487, 850.237 499.605, 850.483 500.265, 851.863 501.346, 853.472 502.661, 855.430 " fill="none" stroke="rgb(0, 0, 0)" stroke-linecap="butt" stroke-linejoin="round" stroke-opacity="1.0" stroke-width="3.0" />
            <path d=" M 537.692, 437.609 536.348, 435.349 534.958, 433.013 534.638, 432.475 534.299, 431.904 533.870, 431.183 533.815, 431.091 533.761, 431.000 532.981, 429.689 532.959, 429.651 531.232, 428.175 530.090, 427.199 526.045, 422.954 523.948, 419.466 521.867, 417.327 520.919, 416.352 520.862, 416.293 520.838, 416.269 520.828, 416.258 520.717, 416.145 520.121, 415.722 518.558, 414.613 518.117, 414.305 517.150, 413.629 515.188, 412.258 514.565, 411.801 513.013, 410.660 512.773, 410.483 512.427, 410.229 512.055, 409.956 508.925, 409.221 507.834, 408.965 507.175, 408.811 506.865, 408.738 " fill="none" stroke="rgb(0, 0, 0)" stroke-linecap="butt" stroke-linejoin="round" stroke-opacity="1.0" stroke-width="3.0" />
            <path d=" M 584.050, 768.585 584.252, 768.132 584.360, 767.891 584.426, 767.744 585.173, 766.074 585.450, 765.452 585.556, 765.217 587.609, 760.625 588.075, 759.583 587.228, 757.052 587.190, 756.940 587.128, 756.755 586.686, 755.433 586.376, 754.507 583.006, 754.221 582.146, 754.782 580.355, 755.950 578.258, 757.318 577.886, 757.283 575.138, 757.020 574.066, 756.917 572.952, 757.612 572.090, 758.151 572.904, 762.697 573.124, 767.293 573.180, 768.471 572.881, 771.237 " fill="none" stroke="rgb(0, 0, 0)" stroke-linecap="butt" stroke-linejoin="round" stroke-opacity="1.0" stroke-width="3.0" />
            <path d=" M 523.944, 639.955 524.179, 639.370 524.280, 639.119 524.425, 638.760 525.360, 636.436 525.365, 636.423 525.373, 636.403 525.483, 635.491 525.574, 634.733 526.188, 629.634 530.038, 620.404 530.583, 619.098 530.207, 611.469 530.235, 609.766 528.350, 604.858 527.480, 600.535 527.422, 600.246 526.926, 597.777 526.843, 597.365 " fill="none" stroke="rgb(0, 0, 0)" stroke-linecap="butt" stroke-linejoin="round" stroke-opacity="1.0" stroke-width="3.0" />
            <path d=" M 848.127, 840.988 846.264, 845.405 845.271, 846.660 841.080, 851.955 836.790, 856.376 837.269, 860.209 840.081, 861.608 842.520, 861.875 844.055, 862.062 844.447, 862.109 844.469, 862.112 850.546, 862.850 853.717, 862.988 856.438, 862.988 858.037, 862.988 " fill="none" stroke="rgb(0, 0, 0)" stroke-linecap="butt" stroke-linejoin="round" stroke-opacity="1.0" stroke-width="3.0" />
            <path d=" M 552.219, 438.487 553.178, 438.308 554.381, 438.551 555.057, 438.687 555.686, 438.814 555.876, 438.852 557.159, 439.111 557.948, 439.270 558.116, 439.396 558.914, 439.994 558.927, 440.004 559.760, 440.628 560.683, 441.320 560.724, 441.351 560.905, 441.487 560.966, 441.533 561.182, 441.695 561.201, 441.709 561.229, 441.730 561.237, 441.736 561.422, 441.875 561.442, 441.890 562.028, 442.329 562.411, 442.617 562.500, 442.684 562.528, 442.704 562.585, 442.733 562.861, 442.869 563.070, 442.971 563.213, 443.042 563.293, 443.081 563.430, 443.149 563.701, 443.283 563.948, 443.404 565.674, 444.255 563.769, 443.497 563.678, 443.461 563.304, 443.312 563.115, 443.237 563.082, 443.224 563.038, 443.206 562.896, 443.150 562.481, 442.985 561.744, 442.692 561.102, 442.436 561.068, 442.422 561.034, 442.409 560.964, 442.381 560.921, 442.364 560.384, 442.151 559.972, 441.987 559.427, 441.770 559.002, 441.601 558.378, 441.315 558.120, 441.196 557.615, 440.964 556.722, 440.554 555.348, 439.923 554.169, 439.382 553.294, 438.980 552.219, 438.487 551.516, 438.164 550.133, 438.162 548.875, 438.160 542.750, 438.152 537.820, 437.007 536.348, 435.349 " fill="none" stroke="rgb(0, 0, 0)" stroke-linecap="butt" stroke-linejoin="round" stroke-opacity="1.0" stroke-width="3.0" />
            <path d=" M 527.480, 600.535 529.019, 598.315 529.720, 595.306 528.756, 590.448 529.025, 588.288 529.055, 588.050 529.063, 587.985 529.063, 587.985 529.079, 587.851 529.398, 585.290 529.057, 583.380 528.808, 581.984 528.786, 581.861 528.733, 581.565 528.730, 581.545 528.456, 580.013 527.765, 576.142 527.656, 568.230 525.313, 561.962 526.610, 558.416 526.571, 555.402 " fill="none" stroke="rgb(0, 0, 0)" stroke-linecap="butt" stroke-linejoin="round" stroke-opacity="1.0" stroke-width="3.0" />
            <path d=" M 400.356, 347.234 399.235, 348.490 397.326, 351.085 394.419, 356.129 391.653, 361.485 390.457, 364.435 389.614, 369.124 386.925, 376.126 386.028, 378.663 384.857, 381.038 382.811, 383.991 380.845, 386.879 380.369, 387.482 379.089, 389.105 " fill="none" stroke="rgb(0, 0, 0)" stroke-linecap="butt" stroke-linejoin="round" stroke-opacity="1.0" stroke-width="3.0" />
            <path d=" M 573.438, 573.466 575.698, 572.266 579.358, 570.322 579.624, 570.181 580.021, 569.970 580.590, 569.668 583.035, 568.441 590.646, 563.642 593.516, 561.090 600.598, 554.793 608.174, 548.266 608.568, 547.927 611.589, 544.933 611.765, 544.746 " fill="none" stroke="rgb(0, 0, 0)" stroke-linecap="butt" stroke-linejoin="round" stroke-opacity="1.0" stroke-width="3.0" />
            <path d=" M 851.481, 900.723 847.062, 903.803 841.651, 906.367 840.794, 908.311 840.881, 909.367 842.079, 911.291 844.025, 912.534 849.722, 913.406 855.354, 914.048 863.700, 914.893 869.849, 914.297 873.325, 914.391 " fill="none" stroke="rgb(0, 0, 0)" stroke-linecap="butt" stroke-linejoin="round" stroke-opacity="1.0" stroke-width="3.0" />
            <path d=" M 624.630, 953.226 628.846, 950.952 637.079, 945.906 637.090, 944.808 635.879, 939.515 634.752, 937.344 631.705, 934.559 628.087, 931.686 627.961, 930.271 624.800, 926.624 623.771, 923.379 620.005, 919.536 621.936, 917.766 " fill="none" stroke="rgb(0, 0, 0)" stroke-linecap="butt" stroke-linejoin="round" stroke-opacity="1.0" stroke-width="3.0" />
            <path d=" M 913.790, 1028.887 913.413, 1029.551 911.716, 1034.587 911.957, 1040.555 912.529, 1043.468 912.808, 1046.575 912.818, 1046.694 912.837, 1046.903 912.906, 1047.666 912.985, 1048.553 913.154, 1050.436 913.161, 1050.515 914.976, 1052.778 915.435, 1052.990 915.511, 1053.024 917.276, 1053.837 918.053, 1054.194 919.783, 1053.414 920.467, 1052.639 924.226, 1045.835 925.745, 1039.304 926.758, 1034.309 926.797, 1034.115 " fill="none" stroke="rgb(0, 0, 0)" stroke-linecap="butt" stroke-linejoin="round" stroke-opacity="1.0" stroke-width="3.0" />
            <path d=" M 556.134, 564.720 557.027, 564.213 557.809, 563.769 558.354, 563.460 558.849, 563.179 560.198, 562.414 560.804, 562.070 563.104, 560.765 563.136, 560.747 563.541, 560.517 564.242, 560.119 566.914, 559.758 573.238, 558.904 580.183, 556.738 581.990, 555.474 582.030, 555.447 582.169, 555.349 582.339, 555.231 583.268, 553.165 583.379, 552.919 583.430, 552.804 583.866, 551.835 584.919, 549.839 585.762, 546.306 584.297, 543.138 580.685, 539.241 576.093, 537.964 " fill="none" stroke="rgb(0, 0, 0)" stroke-linecap="butt" stroke-linejoin="round" stroke-opacity="1.0" stroke-width="3.0" />
            <path d=" M 800.193, 745.562 798.638, 747.448 797.857, 749.410 797.650, 750.018 797.537, 750.348 798.002, 752.037 799.040, 753.934 800.418, 757.275 804.364, 761.779 805.012, 765.225 804.228, 767.809 803.167, 771.300 802.983, 773.270 803.546, 777.223 805.743, 779.955 811.547, 780.422 811.772, 780.440 812.575, 780.505 812.584, 780.507 812.588, 780.508 813.863, 780.765 817.552, 781.511 820.099, 782.026 820.169, 782.040 " fill="none" stroke="rgb(0, 0, 0)" stroke-linecap="butt" stroke-linejoin="round" stroke-opacity="1.0" stroke-width="3.0" />
            <path d=" M 928.931, 1030.103 932.227, 1028.816 934.613, 1029.604 936.037, 1029.014 936.881, 1027.721 941.162, 1020.624 944.365, 1011.391 946.935, 1004.360 947.501, 999.689 948.510, 994.226 949.449, 986.093 " fill="none" stroke="rgb(0, 0, 0)" stroke-linecap="butt" stroke-linejoin="round" stroke-opacity="1.0" stroke-width="3.0" />
            <path d=" M 317.703, 510.729 317.907, 517.178 317.989, 519.765 316.992, 524.307 316.886, 530.479 316.920, 531.745 317.388, 536.312 316.758, 543.208 317.161, 549.927 318.045, 553.084 318.904, 558.456 319.240, 562.334 320.058, 564.241 320.407, 565.054 " fill="none" stroke="rgb(0, 0, 0)" stroke-linecap="butt" stroke-linejoin="round" stroke-opacity="1.0" stroke-width="3.0" />
            <path d=" M 666.690, 469.414 669.515, 471.475 673.449, 473.797 679.453, 477.341 680.030, 477.804 683.758, 480.795 686.457, 481.739 688.806, 484.035 690.300, 486.260 692.163, 489.033 693.584, 495.354 694.359, 501.575 692.905, 505.011 692.474, 506.029 692.281, 506.486 690.547, 510.581 " fill="none" stroke="rgb(0, 0, 0)" stroke-linecap="butt" stroke-linejoin="round" stroke-opacity="1.0" stroke-width="3.0" />
            <path d=" M 877.786, 913.789 875.872, 917.826 875.440, 918.607 874.669, 919.998 874.474, 920.350 873.741, 921.912 871.121, 927.497 869.709, 932.080 868.147, 932.832 866.364, 935.437 865.424, 937.121 867.176, 938.028 871.147, 939.155 876.821, 938.169 877.547, 938.043 878.663, 937.849 880.913, 937.670 881.404, 937.630 881.664, 937.610 884.084, 937.416 889.948, 935.411 890.810, 934.930 891.955, 934.292 892.921, 933.754 " fill="none" stroke="rgb(0, 0, 0)" stroke-linecap="butt" stroke-linejoin="round" stroke-opacity="1.0" stroke-width="3.0" />
            <path d=" M 619.009, 586.212 618.184, 587.124 615.434, 590.164 612.905, 591.503 608.987, 593.820 601.820, 597.235 599.941, 599.131 598.817, 599.423 595.431, 601.825 593.939, 603.410 591.063, 605.335 588.974, 607.209 585.622, 610.426 579.576, 614.133 577.687, 615.524 574.857, 616.833 573.752, 617.992 " fill="none" stroke="rgb(0, 0, 0)" stroke-linecap="butt" stroke-linejoin="round" stroke-opacity="1.0" stroke-width="3.0" />
            <path d=" M 844.055, 862.062 840.854, 865.487 836.917, 868.477 832.401, 870.630 829.647, 872.843 829.918, 874.127 830.878, 875.103 835.555, 876.186 839.981, 876.615 845.872, 877.545 855.404, 879.720 860.930, 880.273 865.281, 882.291 865.368, 882.622 " fill="none" stroke="rgb(0, 0, 0)" stroke-linecap="butt" stroke-linejoin="round" stroke-opacity="1.0" stroke-width="3.0" />
            <path d=" M 578.426, 744.927 578.721, 736.107 579.644, 730.578 579.864, 728.137 580.932, 721.275 581.427, 712.865 582.770, 704.188 583.836, 694.245 584.226, 690.616 583.935, 688.523 " fill="none" stroke="rgb(0, 0, 0)" stroke-linecap="butt" stroke-linejoin="round" stroke-opacity="1.0" stroke-width="3.0" />
            <path d=" M 610.747, 834.161 610.930, 833.876 613.205, 830.345 615.472, 824.590 616.193, 818.973 614.305, 816.955 613.349, 815.934 610.703, 813.629 609.047, 812.186 608.923, 811.902 608.008, 809.800 609.397, 806.186 609.377, 803.687 609.369, 802.734 609.363, 801.920 609.321, 801.527 609.310, 801.425 609.291, 801.249 607.392, 799.228 603.800, 797.890 602.989, 797.693 600.848, 797.172 598.486, 797.571 598.484, 797.571 597.232, 797.783 597.151, 797.827 595.695, 798.627 595.480, 798.745 595.236, 798.879 594.823, 799.106 594.511, 799.277 592.111, 800.596 591.651, 800.564 " fill="none" stroke="rgb(0, 0, 0)" stroke-linecap="butt" stroke-linejoin="round" stroke-opacity="1.0" stroke-width="3.0" />
            <path d=" M 455.269, 978.710 456.449, 982.676 459.407, 992.229 460.202, 994.796 461.573, 998.632 464.497, 1006.809 467.432, 1015.972 469.977, 1024.536 470.056, 1024.800 470.314, 1025.671 470.352, 1026.097 470.359, 1026.180 470.665, 1029.653 471.431, 1031.350 471.608, 1031.743 472.789, 1034.361 " fill="none" stroke="rgb(0, 0, 0)" stroke-linecap="butt" stroke-linejoin="round" stroke-opacity="1.0" stroke-width="3.0" />
            <path d=" M 507.661, 371.832 497.719, 372.493 492.954, 371.655 485.843, 369.575 483.906, 369.287 473.983, 368.050 470.947, 367.672 466.804, 366.836 456.833, 366.076 454.800, 365.921 448.521, 366.216 " fill="none" stroke="rgb(0, 0, 0)" stroke-linecap="butt" stroke-linejoin="round" stroke-opacity="1.0" stroke-width="3.0" />
            <path d=" M 674.411, 681.315 680.226, 680.176 688.659, 678.348 693.625, 676.856 697.552, 676.144 699.340, 675.846 704.828, 675.218 709.890, 675.209 711.992, 674.949 714.907, 674.590 715.885, 674.561 716.111, 674.554 721.161, 674.405 729.517, 674.340 733.647, 674.415 " fill="none" stroke="rgb(0, 0, 0)" stroke-linecap="butt" stroke-linejoin="round" stroke-opacity="1.0" stroke-width="3.0" />
            <path d=" M 438.566, 728.929 437.985, 729.316 435.881, 733.927 435.364, 736.752 437.065, 739.913 440.177, 745.015 442.735, 747.837 444.876, 754.408 446.355, 759.042 448.561, 763.978 450.599, 768.099 453.671, 772.527 459.189, 780.867 459.716, 781.664 " fill="none" stroke="rgb(0, 0, 0)" stroke-linecap="butt" stroke-linejoin="round" stroke-opacity="1.0" stroke-width="3.0" />
            <path d=" M 588.101, 1033.424 588.732, 1033.369 589.045, 1033.342 589.254, 1033.324 589.318, 1033.319 590.709, 1033.198 598.467, 1034.092 605.923, 1032.815 613.025, 1029.422 620.571, 1025.736 622.693, 1024.187 624.376, 1022.643 623.067, 1019.023 619.954, 1016.564 610.578, 1013.087 610.385, 1013.015 607.426, 1011.272 " fill="none" stroke="rgb(0, 0, 0)" stroke-linecap="butt" stroke-linejoin="round" stroke-opacity="1.0" stroke-width="3.0" />
            <path d=" M 355.295, 792.567 359.991, 801.396 360.126, 801.651 361.961, 803.847 367.352, 812.269 367.754, 812.897 373.143, 820.872 376.902, 825.688 382.775, 833.514 383.095, 833.940 383.863, 835.023 383.894, 835.066 386.813, 839.179 389.945, 844.007 " fill="none" stroke="rgb(0, 0, 0)" stroke-linecap="butt" stroke-linejoin="round" stroke-opacity="1.0" stroke-width="3.0" />
            <path d=" M 342.164, 691.336 342.142, 691.634 341.846, 695.670 342.870, 697.688 344.901, 704.397 348.147, 713.856 349.289, 717.183 351.551, 724.240 354.070, 733.918 354.410, 735.223 355.277, 745.185 355.711, 750.166 355.700, 751.523 " fill="none" stroke="rgb(0, 0, 0)" stroke-linecap="butt" stroke-linejoin="round" stroke-opacity="1.0" stroke-width="3.0" />
            <path d=" M 526.558, 403.640 528.716, 403.409 530.153, 403.256 540.026, 402.201 541.741, 402.257 543.738, 402.321 547.629, 402.447 557.616, 402.968 557.789, 402.977 560.690, 403.215 564.424, 403.522 567.768, 403.850 572.821, 404.012 576.941, 404.143 573.877, 404.410 570.758, 404.771 570.451, 404.807 563.659, 405.768 " fill="none" stroke="rgb(0, 0, 0)" stroke-linecap="butt" stroke-linejoin="round" stroke-opacity="1.0" stroke-width="3.0" />
            <path d=" M 563.933, 532.624 562.530, 531.835 561.864, 531.460 560.024, 529.829 558.042, 528.073 557.248, 527.369 556.660, 526.848 554.772, 525.175 553.654, 524.404 549.939, 521.841 542.354, 515.958 535.213, 510.078 531.036, 508.260 530.105, 507.776 528.421, 506.901 527.813, 506.584 527.791, 506.573 526.383, 505.841 523.356, 501.666 518.422, 500.089 516.625, 498.848 512.799, 496.204 512.412, 495.937 " fill="none" stroke="rgb(0, 0, 0)" stroke-linecap="butt" stroke-linejoin="round" stroke-opacity="1.0" stroke-width="3.0" />
            <path d=" M 619.924, 917.786 620.765, 917.777 621.259, 917.772 621.921, 917.766 621.936, 917.766 624.938, 917.735 627.952, 914.388 630.377, 912.184 630.362, 911.902 630.235, 909.504 628.307, 905.285 626.753, 900.769 626.365, 898.628 627.180, 897.273 627.296, 897.081 629.458, 893.489 630.480, 891.790 631.393, 889.383 631.549, 888.971 631.723, 886.736 627.697, 880.434 627.266, 879.501 626.529, 877.906 623.298, 877.142 616.726, 878.361 612.646, 879.176 " fill="none" stroke="rgb(0, 0, 0)" stroke-linecap="butt" stroke-linejoin="round" stroke-opacity="1.0" stroke-width="3.0" />
            <path d=" M 490.451, 437.856 489.046, 442.248 488.907, 445.279 490.417, 447.001 491.684, 450.081 492.520, 455.949 491.683, 458.608 492.969, 462.401 492.207, 466.488 492.156, 471.882 491.981, 481.881 491.969, 482.554 493.596, 489.623 494.164, 497.090 496.092, 500.505 " fill="none" stroke="rgb(0, 0, 0)" stroke-linecap="butt" stroke-linejoin="round" stroke-opacity="1.0" stroke-width="3.0" />
            <path d=" M 868.993, 876.629 868.720, 877.080 866.679, 880.455 866.538, 880.689 865.593, 882.251 865.368, 882.622 865.222, 882.863 861.081, 887.876 856.111, 891.147 852.110, 895.039 852.106, 897.656 853.408, 898.419 853.831, 898.667 860.362, 899.831 867.288, 899.907 869.734, 900.221 870.845, 900.364 875.288, 900.459 879.320, 901.218 883.398, 900.039 884.724, 899.839 885.355, 899.744 885.479, 899.725 886.551, 899.564 886.784, 899.529 888.676, 899.244 " fill="none" stroke="rgb(0, 0, 0)" stroke-linecap="butt" stroke-linejoin="round" stroke-opacity="1.0" stroke-width="3.0" />
            <path d=" M 578.971, 1161.630 579.541, 1161.847 580.567, 1162.240 580.753, 1162.311 584.960, 1163.918 587.709, 1164.968 588.696, 1165.346 589.055, 1165.305 589.215, 1165.288 589.265, 1165.282 589.620, 1165.242 590.868, 1165.103 590.966, 1165.092 591.060, 1165.081 592.721, 1164.895 593.022, 1164.862 596.881, 1164.430 598.350, 1163.628 598.368, 1163.618 598.836, 1163.363 599.147, 1163.193 599.165, 1163.183 599.193, 1163.168 600.359, 1162.531 600.678, 1162.357 604.209, 1160.994 606.285, 1158.390 605.171, 1153.724 602.488, 1152.274 598.171, 1151.404 593.759, 1149.218 591.464, 1148.201 590.560, 1147.800 590.551, 1147.797 589.141, 1147.172 588.409, 1146.847 584.443, 1145.090 583.344, 1144.220 583.306, 1144.190 583.303, 1144.188 581.791, 1142.991 580.442, 1142.046 578.527, 1141.688 578.195, 1141.626 578.118, 1141.612 577.562, 1141.508 577.534, 1141.503 " fill="none" stroke="rgb(0, 0, 0)" stroke-linecap="butt" stroke-linejoin="round" stroke-opacity="1.0" stroke-width="3.0" />
            <path d=" M 554.220, 570.470 555.819, 570.511 556.075, 570.517 556.186, 570.520 556.642, 570.532 557.268, 570.485 557.605, 570.460 558.457, 570.397 558.827, 570.370 559.548, 570.317 561.040, 570.206 561.377, 570.181 561.982, 570.137 562.264, 570.116 562.732, 570.081 563.159, 570.044 563.326, 570.030 564.009, 569.970 567.266, 568.809 571.527, 566.755 577.975, 563.581 583.913, 559.415 587.861, 556.454 587.986, 556.360 588.008, 556.343 588.276, 556.142 588.961, 555.629 596.961, 549.629 597.153, 549.485 603.828, 543.732 610.355, 537.721 " fill="none" stroke="rgb(0, 0, 0)" stroke-linecap="butt" stroke-linejoin="round" stroke-opacity="1.0" stroke-width="3.0" />
            <path d=" M 461.573, 998.632 462.513, 1002.303 464.633, 1012.076 466.334, 1019.915 468.493, 1029.679 470.036, 1036.658 471.025, 1041.783 473.476, 1051.478 474.450, 1055.330 477.029, 1063.391 477.263, 1064.122 " fill="none" stroke="rgb(0, 0, 0)" stroke-linecap="butt" stroke-linejoin="round" stroke-opacity="1.0" stroke-width="3.0" />
            <path d=" M 864.503, 577.516 863.978, 567.530 863.945, 566.895 863.954, 561.135 863.345, 555.921 863.144, 551.303 862.225, 546.468 861.627, 540.465 861.458, 537.079 860.515, 531.958 857.904, 523.427 854.397, 518.506 852.783, 515.701 850.507, 513.762 848.704, 511.664 843.103, 505.878 " fill="none" stroke="rgb(0, 0, 0)" stroke-linecap="butt" stroke-linejoin="round" stroke-opacity="1.0" stroke-width="3.0" />
            <path d=" M 506.954, 717.366 507.013, 717.121 507.822, 713.755 507.895, 713.450 508.248, 711.983 508.323, 711.669 508.375, 711.455 508.817, 709.618 508.923, 709.176 508.930, 709.146 509.038, 707.873 509.050, 707.721 509.606, 701.147 511.418, 693.320 513.111, 685.641 514.094, 679.703 514.553, 676.833 515.372, 671.715 515.600, 665.246 516.953, 661.590 518.458, 657.525 520.231, 653.667 521.173, 651.617 523.104, 646.865 523.203, 646.232 523.438, 644.734 523.664, 643.097 523.795, 642.147 523.823, 641.945 523.840, 641.823 524.179, 639.370 " fill="none" stroke="rgb(0, 0, 0)" stroke-linecap="butt" stroke-linejoin="round" stroke-opacity="1.0" stroke-width="3.0" />
            <path d=" M 494.164, 497.090 495.981, 499.312 496.092, 500.505 496.519, 505.094 496.475, 505.468 496.190, 510.375 496.027, 514.906 496.008, 518.330 495.462, 520.071 494.786, 523.549 494.101, 525.929 492.850, 528.848 489.933, 538.400 487.988, 542.322 487.451, 543.993 485.763, 549.865 484.116, 554.674 482.413, 558.019 479.330, 564.937 477.941, 569.941 475.488, 577.444 " fill="none" stroke="rgb(0, 0, 0)" stroke-linecap="butt" stroke-linejoin="round" stroke-opacity="1.0" stroke-width="3.0" />
            <path d=" M 559.697, 781.434 559.380, 781.037 557.713, 778.945 556.313, 778.112 553.349, 776.866 549.893, 775.529 549.523, 775.385 548.745, 774.915 547.957, 774.440 547.926, 774.421 547.231, 774.002 547.217, 773.993 547.106, 773.926 547.086, 773.914 547.083, 773.912 546.792, 773.709 543.656, 771.520 537.859, 769.320 532.999, 765.147 532.187, 764.271 529.287, 761.147 525.455, 757.060 521.213, 752.355 515.885, 744.409 512.450, 738.207 511.969, 735.580 510.449, 729.510 509.644, 724.869 508.620, 722.287 508.606, 722.253 507.818, 720.266 507.013, 717.121 " fill="none" stroke="rgb(0, 0, 0)" stroke-linecap="butt" stroke-linejoin="round" stroke-opacity="1.0" stroke-width="3.0" />
            <path d=" M 726.521, 477.634 722.848, 472.472 722.830, 472.447 722.646, 472.188 721.614, 470.738 716.407, 464.346 711.164, 459.173 707.419, 456.141 703.416, 454.860 699.781, 454.605 689.818, 453.748 689.146, 453.690 679.365, 454.356 673.288, 457.036 665.878, 460.989 663.063, 464.316 662.364, 465.510 662.613, 467.559 667.242, 471.951 669.286, 473.405 673.449, 473.797 " fill="none" stroke="rgb(0, 0, 0)" stroke-linecap="butt" stroke-linejoin="round" stroke-opacity="1.0" stroke-width="3.0" />
            <path d=" M 883.737, 978.945 878.833, 983.349 874.439, 986.593 869.881, 988.546 866.470, 991.339 859.488, 994.547 851.526, 996.297 845.583, 997.321 842.229, 998.784 841.318, 999.233 841.565, 1001.007 841.865, 1001.663 847.451, 1004.595 855.328, 1007.041 860.069, 1007.993 869.451, 1010.202 872.807, 1010.298 877.602, 1010.952 877.696, 1010.958 886.041, 1010.998 890.909, 1010.079 " fill="none" stroke="rgb(0, 0, 0)" stroke-linecap="butt" stroke-linejoin="round" stroke-opacity="1.0" stroke-width="3.0" />
            <path d=" M 376.831, 392.734 375.199, 393.394 372.375, 394.536 368.429, 399.917 366.136, 403.865 364.404, 407.492 362.035, 413.674 361.897, 414.035 357.428, 422.981 357.249, 423.340 355.746, 425.696 355.283, 426.422 351.944, 432.061 348.072, 440.105 345.266, 444.498 342.312, 448.702 339.087, 453.755 337.569, 455.474 336.073, 457.166 334.264, 459.727 330.006, 466.300 325.370, 471.759 324.302, 474.350 324.307, 477.065 " fill="none" stroke="rgb(0, 0, 0)" stroke-linecap="butt" stroke-linejoin="round" stroke-opacity="1.0" stroke-width="3.0" />
            <path d=" M 621.588, 518.076 622.233, 516.355 624.853, 506.705 625.359, 504.841 628.196, 495.252 629.184, 491.911 629.198, 491.710 629.201, 491.661 629.218, 491.420 629.641, 485.331 628.390, 477.950 626.709, 471.165 623.356, 463.091 620.944, 457.799 615.757, 449.249 614.205, 446.691 612.763, 444.477 609.088, 440.932 602.912, 432.979 599.027, 429.635 596.604, 427.848 596.197, 427.770 " fill="none" stroke="rgb(0, 0, 0)" stroke-linecap="butt" stroke-linejoin="round" stroke-opacity="1.0" stroke-width="3.0" />
            <path d=" M 586.042, 1080.999 592.461, 1082.332 598.886, 1083.138 607.360, 1083.435 612.171, 1083.103 619.631, 1082.798 626.078, 1081.683 633.921, 1079.871 641.914, 1077.736 645.216, 1076.835 650.776, 1074.626 651.719, 1073.231 652.304, 1071.255 649.445, 1068.391 648.738, 1067.818 638.787, 1066.835 637.216, 1066.680 630.198, 1064.922 626.544, 1064.158 618.553, 1061.226 616.076, 1060.255 " fill="none" stroke="rgb(0, 0, 0)" stroke-linecap="butt" stroke-linejoin="round" stroke-opacity="1.0" stroke-width="3.0" />
            <path d=" M 686.603, 513.309 684.180, 514.110 681.979, 514.837 677.809, 515.838 672.478, 516.767 670.358, 516.983 665.164, 517.828 657.076, 518.653 653.369, 517.704 647.232, 515.688 643.345, 514.373 635.227, 513.133 627.738, 514.928 625.779, 515.398 623.486, 516.770 621.588, 518.076 617.681, 520.766 612.363, 527.548 611.253, 530.442 610.165, 536.658 610.355, 537.721 611.349, 543.282 611.765, 544.746 612.759, 548.244 613.841, 549.584 615.234, 550.197 617.019, 550.811 618.814, 550.631 619.475, 550.565 " fill="none" stroke="rgb(0, 0, 0)" stroke-linecap="butt" stroke-linejoin="round" stroke-opacity="1.0" stroke-width="3.0" />
            <path d=" M 476.046, 576.788 475.488, 577.444 474.245, 578.908 469.440, 587.099 468.230, 590.057 468.229, 590.058 466.722, 593.742 463.477, 599.852 462.051, 603.423 460.643, 606.955 458.193, 613.195 455.575, 620.685 453.501, 630.467 453.163, 632.063 451.204, 641.870 451.175, 642.016 450.757, 645.383 449.559, 651.129 448.721, 656.122 447.678, 663.580 446.774, 665.229 445.233, 669.100 444.546, 676.387 444.301, 678.480 444.609, 679.489 444.936, 680.559 446.023, 684.115 445.980, 686.223 445.978, 686.355 445.904, 690.009 445.892, 690.625 " fill="none" stroke="rgb(0, 0, 0)" stroke-linecap="butt" stroke-linejoin="round" stroke-opacity="1.0" stroke-width="3.0" />
            <path d=" M 935.563, 788.908 933.861, 781.339 932.800, 776.615 929.429, 767.878 926.820, 761.663 924.905, 757.881 923.567, 755.356 922.059, 749.183 918.309, 739.913 918.075, 739.336 915.437, 732.578 913.771, 726.019 912.920, 722.589 910.011, 713.022 909.015, 709.743 907.942, 707.443 906.461, 702.139 903.328, 692.643 902.159, 689.099 900.170, 683.798 897.915, 677.994 895.991, 672.476 894.050, 666.986 " fill="none" stroke="rgb(0, 0, 0)" stroke-linecap="butt" stroke-linejoin="round" stroke-opacity="1.0" stroke-width="3.0" />
            <path d=" M 567.416, 1123.044 567.956, 1122.780 569.183, 1122.180 569.301, 1122.122 571.515, 1121.040 572.664, 1120.822 572.693, 1120.818 572.779, 1120.807 573.125, 1120.761 577.640, 1120.160 583.022, 1121.683 583.691, 1121.872 589.185, 1123.426 592.557, 1124.320 599.430, 1126.572 606.476, 1126.989 611.715, 1127.299 621.188, 1126.970 629.818, 1125.745 639.730, 1124.417 642.147, 1124.093 651.033, 1122.030 654.784, 1119.985 654.980, 1117.993 651.253, 1115.162 643.588, 1114.591 638.904, 1112.587 633.944, 1110.754 629.804, 1109.616 624.536, 1107.411 619.822, 1105.459 615.675, 1103.741 " fill="none" stroke="rgb(0, 0, 0)" stroke-linecap="butt" stroke-linejoin="round" stroke-opacity="1.0" stroke-width="3.0" />
            <path d=" M 391.436, 859.329 391.751, 860.544 392.612, 863.860 394.638, 866.606 399.323, 875.440 399.788, 876.317 404.059, 885.359 404.816, 886.959 409.238, 895.928 410.635, 898.762 415.678, 907.398 416.569, 908.924 421.526, 917.609 421.723, 917.954 425.047, 922.674 430.203, 931.243 432.144, 934.468 437.239, 943.073 438.758, 945.640 443.547, 954.501 447.829, 963.538 450.035, 968.194 454.491, 977.146 455.269, 978.710 455.778, 979.732 " fill="none" stroke="rgb(0, 0, 0)" stroke-linecap="butt" stroke-linejoin="round" stroke-opacity="1.0" stroke-width="3.0" />
            <path d=" M 495.134, 1113.622 498.102, 1116.627 502.775, 1121.359 508.022, 1125.273 510.503, 1127.501 515.245, 1131.137 522.573, 1135.319 530.637, 1141.232 531.718, 1142.025 538.449, 1146.178 543.979, 1152.472 548.345, 1157.519 552.344, 1161.018 554.509, 1162.763 557.915, 1165.395 560.065, 1167.050 561.795, 1167.883 565.275, 1169.559 572.021, 1174.832 572.067, 1174.868 572.191, 1174.965 572.794, 1175.436 576.771, 1176.061 578.597, 1176.348 578.866, 1176.515 584.151, 1179.801 591.810, 1182.380 592.911, 1182.650 601.148, 1181.507 602.184, 1181.066 602.454, 1179.874 602.228, 1178.996 602.157, 1178.793 602.091, 1178.606 601.913, 1178.099 601.417, 1176.684 600.720, 1175.219 600.345, 1174.431 600.280, 1174.348 599.489, 1173.335 598.496, 1172.065 " fill="none" stroke="rgb(0, 0, 0)" stroke-linecap="butt" stroke-linejoin="round" stroke-opacity="1.0" stroke-width="3.0" />
            <path d=" M 948.440, 985.894 949.267, 975.928 949.349, 974.934 952.070, 965.312 952.377, 964.227 952.605, 963.421 954.111, 954.578 954.921, 949.107 956.653, 940.436 957.655, 930.486 958.206, 925.021 958.622, 915.029 958.793, 910.902 960.038, 900.980 960.181, 899.834 960.471, 889.838 960.487, 889.271 959.707, 879.302 959.542, 877.197 959.367, 872.281 958.324, 869.009 956.829, 859.081 956.430, 852.545 954.543, 847.423 952.993, 841.596 951.116, 837.819 " fill="none" stroke="rgb(0, 0, 0)" stroke-linecap="butt" stroke-linejoin="round" stroke-opacity="1.0" stroke-width="3.0" />
            <path d=" M 574.239, 617.883 573.752, 617.992 571.740, 618.441 568.583, 618.688 565.207, 618.388 562.693, 618.352 557.821, 620.658 557.230, 623.268 557.188, 623.453 556.077, 628.362 555.876, 629.251 555.860, 629.322 555.615, 630.404 556.557, 640.360 556.635, 641.188 557.014, 645.796 559.243, 650.672 562.053, 656.291 564.787, 659.316 568.753, 663.595 570.670, 664.340 573.966, 668.169 575.215, 669.145 577.903, 671.247 579.613, 673.059 580.684, 673.698 581.028, 673.904 581.974, 674.468 584.658, 675.860 586.005, 676.232 590.878, 677.579 593.117, 678.877 597.440, 679.941 598.598, 679.887 601.433, 679.322 604.838, 680.570 608.634, 681.960 614.000, 682.524 618.548, 682.897 625.660, 683.862 633.913, 684.969 637.093, 684.994 641.045, 685.361 646.021, 685.829 649.842, 684.930 650.594, 684.753 " fill="none" stroke="rgb(0, 0, 0)" stroke-linecap="butt" stroke-linejoin="round" stroke-opacity="1.0" stroke-width="3.0" />
        </g>
    </g>
</svg>
