<?xml version='1.0' encoding='ascii'?>
<svg xmlns="http://www.w3.org/2000/svg" height="1280" version="1.1" width="1280">
    <g id="RenderLayer_LineSet" inkscape:groupmode="lineset" inkscape:label="RenderLayer_LineSet" xmlns:inkscape="http://www.inkscape.org/namespaces/inkscape">
        <g id="strokes" inkscape:groupmode="layer" inkscape:label="strokes" xmlns:inkscape="http://www.inkscape.org/namespaces/inkscape">
            <path d=" M 613.069, 834.796 613.201, 834.504 614.666, 831.270 616.781, 826.823 616.787, 825.517 616.797, 823.289 616.807, 820.999 616.813, 819.683 616.882, 823.777 " fill="none" stroke="rgb(0, 0, 0)" stroke-linecap="butt" stroke-linejoin="round" stroke-opacity="1.0" stroke-width="3.0" />
            <path d=" M 517.441, 399.350 515.688, 399.962 513.700, 400.345 508.904, 401.830 506.685, 402.012 505.297, 401.715 502.617, 402.398 501.028, 402.638 499.060, 403.323 498.031, 403.682 " fill="none" stroke="rgb(0, 0, 0)" stroke-linecap="butt" stroke-linejoin="round" stroke-opacity="1.0" stroke-width="3.0" />
            <path d=" M 578.923, 443.886 578.373, 443.495 577.003, 441.892 576.023, 440.712 575.271, 442.172 575.920, 444.449 573.489, 448.359 573.056, 451.750 572.417, 453.868 572.138, 455.454 " fill="none" stroke="rgb(0, 0, 0)" stroke-linecap="butt" stroke-linejoin="round" stroke-opacity="1.0" stroke-width="3.0" />
            <path d=" M 709.265, 595.234 708.750, 595.105 708.408, 595.019 708.379, 595.012 708.281, 594.987 701.290, 593.233 699.780, 592.854 689.871, 591.501 689.409, 591.438 " fill="none" stroke="rgb(0, 0, 0)" stroke-linecap="butt" stroke-linejoin="round" stroke-opacity="1.0" stroke-width="3.0" />
            <path d=" M 590.063, 710.760 592.241, 706.966 591.605, 702.945 591.046, 701.210 590.721, 700.204 590.417, 699.263 587.645, 697.209 585.871, 697.010 583.399, 698.845 " fill="none" stroke="rgb(0, 0, 0)" stroke-linecap="butt" stroke-linejoin="round" stroke-opacity="1.0" stroke-width="3.0" />
            <path d=" M 344.157, 562.288 344.035, 558.692 344.032, 558.594 344.006, 557.824 343.972, 556.817 343.923, 555.377 343.920, 555.280 343.905, 554.828 343.994, 555.366 344.002, 555.395 344.041, 555.536 344.136, 555.874 344.293, 556.433 344.839, 558.381 344.851, 558.425 344.872, 558.499 344.800, 558.878 344.793, 558.915 344.157, 562.288 343.863, 563.843 345.117, 567.575 " fill="none" stroke="rgb(0, 0, 0)" stroke-linecap="butt" stroke-linejoin="round" stroke-opacity="1.0" stroke-width="3.0" />
            <path d=" M 892.441, 1025.931 886.494, 1030.414 879.195, 1034.644 874.721, 1036.578 " fill="none" stroke="rgb(0, 0, 0)" stroke-linecap="butt" stroke-linejoin="round" stroke-opacity="1.0" stroke-width="3.0" />
            <path d=" M 616.813, 819.683 616.758, 819.182 616.448, 816.371 616.184, 813.973 615.733, 805.013 617.899, 799.312 617.904, 799.299 " fill="none" stroke="rgb(0, 0, 0)" stroke-linecap="butt" stroke-linejoin="round" stroke-opacity="1.0" stroke-width="3.0" />
            <path d=" M 424.387, 432.703 423.374, 433.087 423.057, 433.207 423.011, 433.225 419.305, 434.629 419.157, 434.684 418.450, 434.953 418.013, 435.119 417.594, 435.278 413.273, 436.920 406.913, 441.302 405.860, 442.027 " fill="none" stroke="rgb(0, 0, 0)" stroke-linecap="butt" stroke-linejoin="round" stroke-opacity="1.0" stroke-width="3.0" />
            <path d=" M 551.592, 589.022 551.651, 587.467 551.661, 587.203 551.703, 586.100 551.742, 585.074 550.123, 577.153 549.905, 574.145 549.863, 573.558 549.821, 572.979 549.798, 572.657 549.791, 572.624 549.309, 570.186 549.290, 570.088 548.939, 568.312 " fill="none" stroke="rgb(0, 0, 0)" stroke-linecap="butt" stroke-linejoin="round" stroke-opacity="1.0" stroke-width="3.0" />
            <path d=" M 902.481, 953.416 906.029, 959.684 907.239, 962.120 910.724, 969.139 911.783, 972.311 " fill="none" stroke="rgb(0, 0, 0)" stroke-linecap="butt" stroke-linejoin="round" stroke-opacity="1.0" stroke-width="3.0" />
            <path d=" M 911.239, 1045.032 911.762, 1044.982 915.151, 1044.656 923.216, 1040.937 923.964, 1040.380 929.668, 1035.593 " fill="none" stroke="rgb(0, 0, 0)" stroke-linecap="butt" stroke-linejoin="round" stroke-opacity="1.0" stroke-width="3.0" />
            <path d=" M 627.500, 763.709 628.008, 763.483 630.085, 761.490 629.067, 759.137 627.314, 757.339 622.247, 752.605 617.613, 753.254 616.975, 752.929 616.580, 752.727 " fill="none" stroke="rgb(0, 0, 0)" stroke-linecap="butt" stroke-linejoin="round" stroke-opacity="1.0" stroke-width="3.0" />
            <path d=" M 794.747, 799.282 794.748, 799.911 795.684, 803.689 795.320, 801.612 795.108, 800.748 794.747, 799.282 793.837, 795.583 794.080, 794.753 794.471, 793.415 796.101, 790.101 795.465, 787.629 " fill="none" stroke="rgb(0, 0, 0)" stroke-linecap="butt" stroke-linejoin="round" stroke-opacity="1.0" stroke-width="3.0" />
            <path d=" M 574.540, 677.871 573.239, 676.624 570.861, 674.345 569.387, 672.933 566.164, 669.406 563.685, 667.247 562.349, 666.083 559.176, 662.747 " fill="none" stroke="rgb(0, 0, 0)" stroke-linecap="butt" stroke-linejoin="round" stroke-opacity="1.0" stroke-width="3.0" />
            <path d=" M 475.033, 397.674 474.143, 397.037 471.114, 395.185 468.607, 393.887 465.316, 392.779 464.288, 393.140 459.766, 393.582 455.738, 394.759 454.959, 394.986 " fill="none" stroke="rgb(0, 0, 0)" stroke-linecap="butt" stroke-linejoin="round" stroke-opacity="1.0" stroke-width="3.0" />
            <path d=" M 887.600, 650.481 883.443, 642.471 879.442, 636.052 876.750, 631.735 " fill="none" stroke="rgb(0, 0, 0)" stroke-linecap="butt" stroke-linejoin="round" stroke-opacity="1.0" stroke-width="3.0" />
            <path d=" M 614.670, 731.380 615.284, 729.863 615.364, 725.551 608.591, 721.397 606.726, 721.137 605.703, 721.135 600.933, 722.186 " fill="none" stroke="rgb(0, 0, 0)" stroke-linecap="butt" stroke-linejoin="round" stroke-opacity="1.0" stroke-width="3.0" />
            <path d=" M 790.494, 511.345 788.367, 509.843 785.303, 508.547 779.886, 508.327 775.784, 507.501 772.499, 507.585 769.534, 507.651 " fill="none" stroke="rgb(0, 0, 0)" stroke-linecap="butt" stroke-linejoin="round" stroke-opacity="1.0" stroke-width="3.0" />
            <path d=" M 460.489, 1074.583 460.981, 1076.638 461.492, 1078.773 464.800, 1084.827 468.784, 1087.402 472.143, 1087.329 474.616, 1086.447 " fill="none" stroke="rgb(0, 0, 0)" stroke-linecap="butt" stroke-linejoin="round" stroke-opacity="1.0" stroke-width="3.0" />
            <path d=" M 826.757, 744.276 826.563, 744.698 824.578, 749.022 824.287, 751.000 824.641, 755.175 828.300, 760.174 832.296, 762.430 " fill="none" stroke="rgb(0, 0, 0)" stroke-linecap="butt" stroke-linejoin="round" stroke-opacity="1.0" stroke-width="3.0" />
            <path d=" M 521.445, 415.367 520.780, 416.652 520.164, 417.840 519.970, 418.216 519.945, 418.264 519.988, 418.476 520.008, 418.574 520.108, 419.061 520.182, 419.422 520.718, 422.035 520.381, 422.746 520.027, 423.494 519.932, 425.656 519.271, 432.495 519.246, 432.752 519.319, 432.975 519.372, 433.137 519.782, 434.391 520.623, 436.966 " fill="none" stroke="rgb(0, 0, 0)" stroke-linecap="butt" stroke-linejoin="round" stroke-opacity="1.0" stroke-width="3.0" />
            <path d=" M 585.077, 649.814 584.460, 646.106 584.089, 643.875 583.572, 640.771 583.773, 637.830 583.466, 636.352 583.439, 636.226 583.393, 636.003 583.364, 635.865 583.333, 635.718 583.283, 635.478 583.248, 635.305 583.223, 635.186 583.105, 634.621 582.720, 632.770 582.595, 632.173 582.439, 631.421 582.220, 630.780 582.094, 630.410 581.119, 627.548 " fill="none" stroke="rgb(0, 0, 0)" stroke-linecap="butt" stroke-linejoin="round" stroke-opacity="1.0" stroke-width="3.0" />
            <path d=" M 894.519, 894.025 891.601, 894.793 888.339, 895.652 887.522, 897.248 889.502, 898.347 892.274, 900.697 896.332, 901.390 900.723, 902.151 901.034, 902.205 " fill="none" stroke="rgb(0, 0, 0)" stroke-linecap="butt" stroke-linejoin="round" stroke-opacity="1.0" stroke-width="3.0" />
            <path d=" M 631.193, 919.248 629.317, 918.575 627.671, 917.985 624.365, 917.641 622.819, 917.398 622.187, 917.298 619.062, 916.806 616.794, 916.449 614.667, 915.985 611.031, 915.613 609.119, 915.417 609.021, 915.407 608.522, 915.356 " fill="none" stroke="rgb(0, 0, 0)" stroke-linecap="butt" stroke-linejoin="round" stroke-opacity="1.0" stroke-width="3.0" />
            <path d=" M 565.557, 1110.156 565.480, 1109.838 565.174, 1108.573 564.871, 1107.318 564.640, 1106.366 563.728, 1102.593 563.663, 1102.325 563.584, 1101.999 562.491, 1092.059 562.387, 1091.109 562.479, 1087.913 562.502, 1087.110 " fill="none" stroke="rgb(0, 0, 0)" stroke-linecap="butt" stroke-linejoin="round" stroke-opacity="1.0" stroke-width="3.0" />
            <path d=" M 719.465, 630.444 725.101, 631.606 725.686, 631.802 727.835, 632.522 729.166, 632.723 731.702, 633.453 732.814, 633.574 735.264, 633.840 738.489, 634.715 739.786, 634.512 739.796, 634.511 742.302, 634.120 " fill="none" stroke="rgb(0, 0, 0)" stroke-linecap="butt" stroke-linejoin="round" stroke-opacity="1.0" stroke-width="3.0" />
            <path d=" M 936.629, 963.162 933.445, 966.790 932.372, 968.686 929.873, 973.101 927.909, 979.129 926.667, 980.959 925.144, 983.283 " fill="none" stroke="rgb(0, 0, 0)" stroke-linecap="butt" stroke-linejoin="round" stroke-opacity="1.0" stroke-width="3.0" />
            <path d=" M 611.696, 893.170 612.196, 894.665 613.129, 898.702 613.221, 899.096 613.276, 899.338 613.710, 901.213 613.811, 897.585 613.817, 897.374 613.873, 895.348 611.729, 888.657 611.726, 888.647 611.635, 888.365 611.628, 888.353 611.476, 888.120 611.389, 887.985 610.373, 886.413 " fill="none" stroke="rgb(0, 0, 0)" stroke-linecap="butt" stroke-linejoin="round" stroke-opacity="1.0" stroke-width="3.0" />
            <path d=" M 628.880, 508.571 630.337, 514.632 630.365, 514.751 630.370, 514.772 631.381, 518.980 632.943, 526.013 633.832, 530.478 634.506, 532.371 " fill="none" stroke="rgb(0, 0, 0)" stroke-linecap="butt" stroke-linejoin="round" stroke-opacity="1.0" stroke-width="3.0" />
            <path d=" M 452.341, 423.535 450.562, 423.871 448.652, 424.178 448.287, 424.237 447.876, 424.303 447.749, 424.323 447.328, 424.391 447.248, 424.404 444.374, 424.867 441.096, 425.917 440.381, 426.146 438.800, 426.382 433.593, 427.160 431.950, 428.262 431.723, 428.414 431.698, 428.432 431.096, 428.835 429.664, 429.795 428.283, 430.721 " fill="none" stroke="rgb(0, 0, 0)" stroke-linecap="butt" stroke-linejoin="round" stroke-opacity="1.0" stroke-width="3.0" />
            <path d=" M 420.541, 433.604 414.025, 436.134 410.267, 438.737 405.098, 441.588 404.239, 442.240 400.980, 444.715 398.404, 446.671 " fill="none" stroke="rgb(0, 0, 0)" stroke-linecap="butt" stroke-linejoin="round" stroke-opacity="1.0" stroke-width="3.0" />
            <path d=" M 380.779, 467.577 380.174, 468.408 377.797, 471.671 376.702, 473.174 376.362, 473.642 376.200, 473.863 375.825, 474.892 375.002, 477.149 374.922, 477.368 374.865, 477.524 374.763, 477.805 374.735, 477.881 373.855, 479.544 373.167, 480.845 372.575, 483.307 372.513, 483.566 372.487, 483.674 371.750, 486.737 368.664, 490.243 " fill="none" stroke="rgb(0, 0, 0)" stroke-linecap="butt" stroke-linejoin="round" stroke-opacity="1.0" stroke-width="3.0" />
            <path d=" M 344.818, 531.100 344.742, 532.623 344.676, 533.940 344.537, 537.629 345.414, 540.309 344.688, 542.144 343.534, 548.621 343.507, 549.795 343.413, 553.912 343.382, 555.310 343.972, 556.817 " fill="none" stroke="rgb(0, 0, 0)" stroke-linecap="butt" stroke-linejoin="round" stroke-opacity="1.0" stroke-width="3.0" />
            <path d=" M 347.091, 646.095 347.145, 647.162 347.206, 648.372 347.283, 649.892 347.444, 653.085 348.047, 659.108 348.930, 662.593 349.918, 668.979 351.065, 672.048 " fill="none" stroke="rgb(0, 0, 0)" stroke-linecap="butt" stroke-linejoin="round" stroke-opacity="1.0" stroke-width="3.0" />
            <path d=" M 347.617, 589.745 347.576, 590.030 347.525, 590.377 347.397, 591.260 346.895, 594.728 347.459, 599.345 347.540, 599.637 349.227, 605.704 349.566, 607.809 350.476, 613.458 351.625, 615.413 " fill="none" stroke="rgb(0, 0, 0)" stroke-linecap="butt" stroke-linejoin="round" stroke-opacity="1.0" stroke-width="3.0" />
            <path d=" M 380.921, 465.325 377.466, 469.325 377.399, 469.467 377.156, 469.981 376.223, 471.948 376.178, 472.406 376.036, 473.859 372.997, 477.304 371.646, 479.536 370.312, 481.741 370.088, 482.112 368.671, 484.386 367.866, 485.677 367.114, 486.884 366.853, 487.302 " fill="none" stroke="rgb(0, 0, 0)" stroke-linecap="butt" stroke-linejoin="round" stroke-opacity="1.0" stroke-width="3.0" />
            <path d=" M 660.617, 743.388 664.879, 742.624 669.745, 741.752 679.060, 738.114 685.158, 735.733 686.018, 735.344 " fill="none" stroke="rgb(0, 0, 0)" stroke-linecap="butt" stroke-linejoin="round" stroke-opacity="1.0" stroke-width="3.0" />
            <path d=" M 594.016, 1169.317 595.813, 1167.925 596.061, 1165.265 596.020, 1164.002 595.100, 1163.010 591.450, 1159.423 584.872, 1156.877 579.370, 1154.413 578.253, 1153.892 " fill="none" stroke="rgb(0, 0, 0)" stroke-linecap="butt" stroke-linejoin="round" stroke-opacity="1.0" stroke-width="3.0" />
            <path d=" M 879.812, 911.006 878.892, 911.694 878.810, 911.755 875.511, 914.222 871.276, 919.379 867.866, 925.573 865.141, 928.997 862.650, 931.611 " fill="none" stroke="rgb(0, 0, 0)" stroke-linecap="butt" stroke-linejoin="round" stroke-opacity="1.0" stroke-width="3.0" />
            <path d=" M 840.940, 786.912 840.849, 787.016 836.744, 791.673 838.185, 794.658 840.741, 794.676 844.743, 793.149 847.835, 791.641 854.736, 788.320 " fill="none" stroke="rgb(0, 0, 0)" stroke-linecap="butt" stroke-linejoin="round" stroke-opacity="1.0" stroke-width="3.0" />
            <path d=" M 553.342, 585.052 553.637, 584.630 558.268, 577.240 558.344, 577.120 559.268, 575.645 561.944, 569.347 561.960, 569.322 562.019, 569.232 567.327, 561.100 " fill="none" stroke="rgb(0, 0, 0)" stroke-linecap="butt" stroke-linejoin="round" stroke-opacity="1.0" stroke-width="3.0" />
            <path d=" M 616.975, 752.929 619.035, 750.573 620.542, 747.351 621.442, 745.425 622.394, 739.020 617.068, 734.206 614.670, 731.380 613.571, 730.085 " fill="none" stroke="rgb(0, 0, 0)" stroke-linecap="butt" stroke-linejoin="round" stroke-opacity="1.0" stroke-width="3.0" />
            <path d=" M 826.475, 523.252 821.919, 517.595 821.710, 517.467 818.383, 515.683 815.201, 513.276 811.163, 511.808 805.638, 512.272 803.749, 512.271 802.652, 512.270 " fill="none" stroke="rgb(0, 0, 0)" stroke-linecap="butt" stroke-linejoin="round" stroke-opacity="1.0" stroke-width="3.0" />
            <path d=" M 554.596, 732.865 554.964, 730.270 555.343, 727.605 556.222, 724.080 556.863, 721.514 557.425, 712.803 557.708, 709.018 558.699, 706.825 559.457, 705.150 " fill="none" stroke="rgb(0, 0, 0)" stroke-linecap="butt" stroke-linejoin="round" stroke-opacity="1.0" stroke-width="3.0" />
            <path d=" M 480.827, 791.555 475.900, 791.715 468.443, 790.410 465.543, 789.902 465.426, 789.879 456.765, 788.162 452.886, 787.219 " fill="none" stroke="rgb(0, 0, 0)" stroke-linecap="butt" stroke-linejoin="round" stroke-opacity="1.0" stroke-width="3.0" />
            <path d=" M 842.902, 544.854 841.871, 541.657 839.078, 538.751 834.583, 532.557 831.573, 527.879 829.138, 525.325 826.475, 523.252 825.336, 522.365 " fill="none" stroke="rgb(0, 0, 0)" stroke-linecap="butt" stroke-linejoin="round" stroke-opacity="1.0" stroke-width="3.0" />
            <path d=" M 549.962, 566.802 553.553, 564.092 553.752, 563.942 553.987, 563.765 554.610, 563.295 555.066, 562.951 555.636, 562.521 559.318, 558.421 559.431, 558.294 560.484, 557.122 560.883, 556.513 560.905, 556.479 561.650, 555.340 562.907, 552.216 562.911, 552.206 562.716, 550.978 562.715, 550.977 562.697, 550.862 562.647, 550.550 562.487, 549.542 562.432, 549.195 562.235, 547.961 561.874, 545.694 561.426, 542.878 " fill="none" stroke="rgb(0, 0, 0)" stroke-linecap="butt" stroke-linejoin="round" stroke-opacity="1.0" stroke-width="3.0" />
            <path d=" M 753.341, 725.922 750.562, 725.786 750.372, 725.777 748.843, 725.702 748.385, 725.840 748.365, 725.846 743.529, 727.309 741.340, 729.718 741.186, 729.887 741.172, 729.925 739.886, 733.597 739.868, 733.714 739.315, 737.330 740.534, 740.328 744.666, 743.052 744.890, 743.200 " fill="none" stroke="rgb(0, 0, 0)" stroke-linecap="butt" stroke-linejoin="round" stroke-opacity="1.0" stroke-width="3.0" />
            <path d=" M 622.902, 790.781 623.657, 790.261 630.413, 786.120 633.221, 780.448 632.495, 776.724 629.363, 773.624 628.566, 772.836 627.041, 770.320 626.005, 768.612 625.756, 768.202 " fill="none" stroke="rgb(0, 0, 0)" stroke-linecap="butt" stroke-linejoin="round" stroke-opacity="1.0" stroke-width="3.0" />
            <path d=" M 348.500, 503.252 348.313, 503.643 347.083, 506.226 346.588, 508.970 345.937, 512.591 345.785, 516.158 344.562, 520.168 343.915, 526.210 344.476, 529.984 344.742, 532.623 " fill="none" stroke="rgb(0, 0, 0)" stroke-linecap="butt" stroke-linejoin="round" stroke-opacity="1.0" stroke-width="3.0" />
            <path d=" M 832.709, 766.406 832.152, 767.100 829.744, 770.099 827.783, 773.857 827.404, 779.963 828.310, 781.513 832.543, 783.013 837.192, 783.597 840.510, 785.855 " fill="none" stroke="rgb(0, 0, 0)" stroke-linecap="butt" stroke-linejoin="round" stroke-opacity="1.0" stroke-width="3.0" />
            <path d=" M 476.431, 416.763 472.805, 417.763 463.453, 421.092 456.264, 422.453 455.276, 422.511 454.724, 422.544 453.775, 422.600 452.394, 423.047 449.652, 423.936 448.670, 424.127 448.294, 424.200 447.930, 424.271 447.797, 424.297 447.339, 424.386 447.248, 424.404 " fill="none" stroke="rgb(0, 0, 0)" stroke-linecap="butt" stroke-linejoin="round" stroke-opacity="1.0" stroke-width="3.0" />
            <path d=" M 597.458, 902.097 596.942, 898.460 596.866, 897.922 596.860, 897.882 597.135, 896.065 597.183, 895.749 597.199, 895.645 597.388, 894.396 597.717, 892.993 597.929, 892.085 598.104, 891.339 598.785, 888.430 600.582, 884.756 601.383, 883.117 601.601, 882.672 601.895, 882.071 602.104, 881.643 602.136, 881.578 602.255, 881.334 603.094, 879.620 603.971, 877.694 604.919, 875.613 605.297, 874.785 606.140, 872.933 " fill="none" stroke="rgb(0, 0, 0)" stroke-linecap="butt" stroke-linejoin="round" stroke-opacity="1.0" stroke-width="3.0" />
            <path d=" M 879.442, 636.052 877.010, 631.530 872.224, 622.749 870.810, 620.156 869.457, 618.182 866.763, 614.248 862.814, 609.166 " fill="none" stroke="rgb(0, 0, 0)" stroke-linecap="butt" stroke-linejoin="round" stroke-opacity="1.0" stroke-width="3.0" />
            <path d=" M 615.215, 952.716 617.447, 950.964 621.368, 948.950 626.399, 945.360 626.981, 944.907 626.743, 940.087 625.943, 937.581 622.100, 933.597 618.095, 930.996 618.003, 930.936 " fill="none" stroke="rgb(0, 0, 0)" stroke-linecap="butt" stroke-linejoin="round" stroke-opacity="1.0" stroke-width="3.0" />
            <path d=" M 534.835, 861.378 534.983, 861.159 535.508, 860.384 537.683, 857.173 538.027, 856.665 539.612, 855.768 542.561, 854.101 546.098, 852.482 547.297, 852.276 553.088, 851.284 554.822, 851.491 554.937, 851.504 560.483, 852.165 560.506, 852.167 561.489, 852.284 561.737, 852.314 561.775, 852.318 561.977, 852.342 561.985, 852.344 563.139, 852.481 563.280, 852.498 " fill="none" stroke="rgb(0, 0, 0)" stroke-linecap="butt" stroke-linejoin="round" stroke-opacity="1.0" stroke-width="3.0" />
            <path d=" M 613.226, 541.400 620.213, 535.039 620.796, 534.278 625.053, 528.179 627.883, 522.365 630.370, 514.772 " fill="none" stroke="rgb(0, 0, 0)" stroke-linecap="butt" stroke-linejoin="round" stroke-opacity="1.0" stroke-width="3.0" />
            <path d=" M 571.809, 1145.965 574.146, 1145.346 574.454, 1145.264 575.122, 1145.087 576.077, 1144.834 576.390, 1144.860 579.235, 1145.094 589.222, 1144.585 589.693, 1144.561 595.633, 1142.392 597.339, 1140.476 598.972, 1138.426 598.579, 1135.393 " fill="none" stroke="rgb(0, 0, 0)" stroke-linecap="butt" stroke-linejoin="round" stroke-opacity="1.0" stroke-width="3.0" />
            <path d=" M 600.582, 884.756 601.662, 885.069 602.316, 885.258 603.013, 885.460 604.952, 886.022 605.520, 886.063 608.379, 886.269 608.389, 886.270 609.984, 886.385 610.203, 886.401 610.373, 886.413 611.103, 886.466 615.346, 886.441 624.633, 883.488 626.036, 881.953 626.830, 878.637 627.466, 876.737 627.197, 876.276 " fill="none" stroke="rgb(0, 0, 0)" stroke-linecap="butt" stroke-linejoin="round" stroke-opacity="1.0" stroke-width="3.0" />
            <path d=" M 815.076, 837.512 814.976, 837.878 814.699, 842.734 818.742, 846.226 826.469, 848.510 830.431, 847.976 834.959, 848.386 835.779, 851.215 836.449, 853.604 836.555, 853.981 " fill="none" stroke="rgb(0, 0, 0)" stroke-linecap="butt" stroke-linejoin="round" stroke-opacity="1.0" stroke-width="3.0" />
            <path d=" M 808.513, 703.442 804.106, 707.848 803.636, 708.703 803.588, 708.822 803.309, 709.508 803.280, 709.582 803.260, 709.631 803.076, 710.086 803.049, 710.151 802.333, 711.918 801.056, 716.660 801.184, 717.892 801.403, 721.547 802.482, 724.745 804.078, 727.783 808.909, 731.006 " fill="none" stroke="rgb(0, 0, 0)" stroke-linecap="butt" stroke-linejoin="round" stroke-opacity="1.0" stroke-width="3.0" />
            <path d=" M 619.062, 916.806 614.712, 915.720 607.789, 914.535 605.998, 910.972 605.012, 908.410 603.165, 905.748 602.712, 905.094 602.597, 904.929 601.041, 902.684 600.118, 901.354 598.376, 898.189 597.890, 897.138 597.199, 895.645 " fill="none" stroke="rgb(0, 0, 0)" stroke-linecap="butt" stroke-linejoin="round" stroke-opacity="1.0" stroke-width="3.0" />
            <path d=" M 796.412, 804.086 796.668, 805.554 798.447, 808.765 802.532, 810.277 807.411, 811.009 808.182, 812.560 808.742, 816.631 810.879, 822.924 812.026, 824.908 814.071, 827.777 814.492, 828.033 " fill="none" stroke="rgb(0, 0, 0)" stroke-linecap="butt" stroke-linejoin="round" stroke-opacity="1.0" stroke-width="3.0" />
            <path d=" M 808.466, 729.644 808.909, 731.006 809.372, 732.430 807.952, 737.670 807.797, 741.172 809.164, 745.319 811.134, 745.761 814.016, 746.039 823.780, 743.880 825.859, 743.420 " fill="none" stroke="rgb(0, 0, 0)" stroke-linecap="butt" stroke-linejoin="round" stroke-opacity="1.0" stroke-width="3.0" />
            <path d=" M 567.760, 691.471 566.964, 690.145 565.883, 685.049 563.670, 682.125 562.197, 678.778 562.193, 678.769 562.139, 678.647 561.548, 677.304 561.079, 676.237 561.048, 676.069 560.964, 675.607 560.439, 672.726 560.239, 671.625 560.160, 671.195 560.155, 671.163 560.021, 670.429 559.935, 669.957 559.988, 667.648 559.991, 667.519 560.034, 665.639 560.058, 664.610 560.060, 664.501 560.073, 663.949 559.176, 662.747 559.167, 662.736 559.035, 662.559 559.034, 662.557 558.706, 662.118 558.654, 662.048 557.528, 660.541 " fill="none" stroke="rgb(0, 0, 0)" stroke-linecap="butt" stroke-linejoin="round" stroke-opacity="1.0" stroke-width="3.0" />
            <path d=" M 752.300, 602.946 749.780, 602.568 749.734, 602.561 747.222, 602.185 743.268, 601.592 740.155, 600.818 735.709, 599.744 730.338, 598.737 725.687, 597.968 719.153, 596.852 " fill="none" stroke="rgb(0, 0, 0)" stroke-linecap="butt" stroke-linejoin="round" stroke-opacity="1.0" stroke-width="3.0" />
            <path d=" M 344.006, 557.824 341.853, 565.370 340.540, 575.284 340.501, 575.582 340.331, 585.580 340.308, 586.943 340.302, 587.320 341.997, 591.559 " fill="none" stroke="rgb(0, 0, 0)" stroke-linecap="butt" stroke-linejoin="round" stroke-opacity="1.0" stroke-width="3.0" />
            <path d=" M 588.544, 632.430 590.434, 631.059 592.806, 629.426 593.674, 628.830 598.877, 625.249 606.653, 618.962 607.293, 618.444 612.134, 613.875 615.042, 609.920 " fill="none" stroke="rgb(0, 0, 0)" stroke-linecap="butt" stroke-linejoin="round" stroke-opacity="1.0" stroke-width="3.0" />
            <path d=" M 617.895, 799.398 617.904, 799.299 618.108, 794.669 618.133, 794.120 619.262, 789.936 619.283, 789.859 619.315, 789.739 619.444, 789.262 619.200, 787.551 618.832, 784.974 617.382, 781.646 617.483, 777.868 615.214, 772.806 615.201, 772.734 614.499, 768.841 613.831, 765.337 " fill="none" stroke="rgb(0, 0, 0)" stroke-linecap="butt" stroke-linejoin="round" stroke-opacity="1.0" stroke-width="3.0" />
            <path d=" M 930.254, 1033.319 930.345, 1034.996 930.360, 1035.274 930.369, 1035.439 930.411, 1036.195 930.659, 1040.760 928.034, 1047.604 929.276, 1057.526 929.498, 1059.297 930.902, 1064.301 933.408, 1065.828 934.873, 1065.937 " fill="none" stroke="rgb(0, 0, 0)" stroke-linecap="butt" stroke-linejoin="round" stroke-opacity="1.0" stroke-width="3.0" />
            <path d=" M 743.520, 741.623 744.025, 742.204 744.890, 743.200 744.941, 743.259 744.937, 743.349 744.860, 744.998 745.320, 746.997 747.345, 748.756 749.079, 749.867 753.214, 750.945 758.223, 751.539 763.318, 749.634 767.596, 745.263 767.688, 744.776 767.716, 744.629 767.726, 744.575 767.828, 744.037 767.889, 743.717 768.107, 742.567 768.117, 742.510 768.162, 742.275 768.364, 741.207 768.561, 740.171 " fill="none" stroke="rgb(0, 0, 0)" stroke-linecap="butt" stroke-linejoin="round" stroke-opacity="1.0" stroke-width="3.0" />
            <path d=" M 757.330, 655.361 755.859, 656.566 749.101, 662.104 748.143, 665.140 749.158, 667.024 751.670, 669.000 751.943, 670.328 752.125, 671.219 751.945, 676.579 752.867, 678.629 753.131, 679.215 754.326, 680.234 759.821, 680.685 760.072, 680.705 " fill="none" stroke="rgb(0, 0, 0)" stroke-linecap="butt" stroke-linejoin="round" stroke-opacity="1.0" stroke-width="3.0" />
            <path d=" M 770.586, 743.376 770.548, 743.408 770.167, 743.725 769.632, 744.171 769.608, 744.195 768.630, 745.182 768.555, 745.257 768.538, 745.275 766.507, 747.323 764.350, 750.066 765.024, 753.450 765.106, 757.215 766.796, 762.119 769.271, 764.622 770.332, 765.536 775.213, 766.914 779.116, 770.773 " fill="none" stroke="rgb(0, 0, 0)" stroke-linecap="butt" stroke-linejoin="round" stroke-opacity="1.0" stroke-width="3.0" />
            <path d=" M 912.878, 998.908 908.925, 1003.924 908.162, 1006.337 902.888, 1014.834 902.357, 1015.689 897.728, 1020.797 896.673, 1021.952 894.593, 1024.229 893.048, 1025.451 892.441, 1025.931 889.959, 1027.893 " fill="none" stroke="rgb(0, 0, 0)" stroke-linecap="butt" stroke-linejoin="round" stroke-opacity="1.0" stroke-width="3.0" />
            <path d=" M 434.678, 942.516 434.317, 945.575 434.236, 946.258 434.646, 948.122 435.727, 955.047 436.153, 957.773 437.557, 966.763 438.970, 976.663 439.454, 980.055 " fill="none" stroke="rgb(0, 0, 0)" stroke-linecap="butt" stroke-linejoin="round" stroke-opacity="1.0" stroke-width="3.0" />
            <path d=" M 688.291, 734.547 689.523, 734.394 699.447, 733.161 699.879, 733.107 704.937, 732.435 709.258, 732.247 718.672, 732.038 726.185, 732.015 726.552, 732.014 " fill="none" stroke="rgb(0, 0, 0)" stroke-linecap="butt" stroke-linejoin="round" stroke-opacity="1.0" stroke-width="3.0" />
            <path d=" M 468.522, 423.037 464.555, 422.513 458.243, 423.667 456.821, 423.334 455.766, 423.088 454.916, 422.888 454.746, 422.849 453.685, 423.151 452.341, 423.535 450.797, 423.975 448.501, 424.604 448.045, 424.730 446.937, 425.033 446.699, 425.098 446.401, 425.179 446.010, 425.285 445.528, 425.416 444.655, 425.654 441.506, 426.509 438.051, 427.375 436.467, 427.771 435.368, 428.047 433.132, 428.961 432.318, 429.294 431.742, 429.529 430.909, 429.870 430.865, 429.888 430.447, 430.059 430.383, 430.085 " fill="none" stroke="rgb(0, 0, 0)" stroke-linecap="butt" stroke-linejoin="round" stroke-opacity="1.0" stroke-width="3.0" />
            <path d=" M 515.708, 742.915 515.607, 743.545 514.174, 749.658 513.320, 754.120 511.666, 760.060 510.752, 763.458 507.419, 770.827 502.924, 777.624 501.454, 779.846 " fill="none" stroke="rgb(0, 0, 0)" stroke-linecap="butt" stroke-linejoin="round" stroke-opacity="1.0" stroke-width="3.0" />
            <path d=" M 719.911, 463.919 715.045, 460.425 711.131, 456.914 707.633, 455.470 699.666, 452.482 696.609, 451.767 686.745, 450.124 685.376, 449.896 683.267, 449.545 " fill="none" stroke="rgb(0, 0, 0)" stroke-linecap="butt" stroke-linejoin="round" stroke-opacity="1.0" stroke-width="3.0" />
            <path d=" M 564.941, 1184.912 565.472, 1185.164 568.971, 1186.824 569.946, 1187.287 570.617, 1187.606 575.149, 1190.298 575.601, 1190.567 575.622, 1190.579 576.851, 1191.310 577.636, 1191.776 578.209, 1192.116 578.528, 1192.306 584.128, 1193.705 586.579, 1193.497 587.843, 1193.389 589.095, 1193.283 589.318, 1193.264 590.728, 1193.144 591.551, 1192.934 591.914, 1192.761 592.466, 1192.497 593.107, 1192.191 594.064, 1190.138 594.348, 1188.042 594.615, 1184.338 594.415, 1182.474 " fill="none" stroke="rgb(0, 0, 0)" stroke-linecap="butt" stroke-linejoin="round" stroke-opacity="1.0" stroke-width="3.0" />
            <path d=" M 685.970, 623.703 686.485, 623.959 689.970, 625.694 695.292, 627.202 697.517, 627.833 703.701, 629.159 709.070, 629.765 711.937, 630.359 719.465, 630.444 725.686, 631.802 " fill="none" stroke="rgb(0, 0, 0)" stroke-linecap="butt" stroke-linejoin="round" stroke-opacity="1.0" stroke-width="3.0" />
            <path d=" M 912.612, 913.622 911.855, 914.116 909.308, 915.774 905.778, 919.829 904.219, 923.329 904.057, 924.068 905.680, 927.206 906.036, 930.527 909.679, 932.679 917.481, 931.899 920.532, 930.543 922.047, 929.870 923.502, 931.161 923.798, 931.423 924.540, 932.082 " fill="none" stroke="rgb(0, 0, 0)" stroke-linecap="butt" stroke-linejoin="round" stroke-opacity="1.0" stroke-width="3.0" />
            <path d=" M 983.745, 976.250 983.738, 975.441 983.722, 973.476 983.714, 972.577 983.184, 962.591 983.047, 960.012 984.290, 952.171 984.741, 949.326 984.972, 939.329 984.982, 938.896 984.976, 936.715 984.971, 934.677 " fill="none" stroke="rgb(0, 0, 0)" stroke-linecap="butt" stroke-linejoin="round" stroke-opacity="1.0" stroke-width="3.0" />
            <path d=" M 581.917, 1023.209 589.611, 1024.260 594.727, 1023.837 601.112, 1022.027 608.857, 1018.409 613.608, 1015.921 613.774, 1015.206 613.263, 1010.943 611.194, 1009.002 610.436, 1008.708 " fill="none" stroke="rgb(0, 0, 0)" stroke-linecap="butt" stroke-linejoin="round" stroke-opacity="1.0" stroke-width="3.0" />
            <path d=" M 585.497, 705.776 585.862, 706.423 586.403, 707.694 586.405, 707.697 586.574, 708.094 587.269, 709.729 586.545, 708.114 586.401, 707.792 586.400, 707.789 585.497, 705.776 585.432, 705.631 585.255, 705.235 585.175, 704.965 585.041, 704.515 585.000, 704.377 584.976, 704.299 584.929, 704.139 583.541, 699.475 583.435, 699.002 583.431, 698.984 583.399, 698.845 582.210, 693.569 582.680, 689.443 581.561, 683.731 581.323, 683.466 578.914, 680.774 577.400, 679.081 573.239, 676.624 " fill="none" stroke="rgb(0, 0, 0)" stroke-linecap="butt" stroke-linejoin="round" stroke-opacity="1.0" stroke-width="3.0" />
            <path d=" M 606.377, 431.831 606.010, 430.925 604.235, 428.125 600.396, 422.232 598.338, 421.580 595.908, 420.904 593.074, 420.308 589.369, 419.625 586.496, 418.798 584.003, 418.970 579.139, 418.976 572.556, 419.494 569.769, 419.599 " fill="none" stroke="rgb(0, 0, 0)" stroke-linecap="butt" stroke-linejoin="round" stroke-opacity="1.0" stroke-width="3.0" />
            <path d=" M 629.844, 472.791 627.061, 464.811 622.013, 456.179 621.438, 455.197 616.673, 448.665 612.248, 443.079 608.072, 438.878 608.010, 438.816 606.652, 436.682 " fill="none" stroke="rgb(0, 0, 0)" stroke-linecap="butt" stroke-linejoin="round" stroke-opacity="1.0" stroke-width="3.0" />
            <path d=" M 620.542, 747.351 626.525, 747.835 632.801, 747.387 642.362, 747.056 651.668, 745.807 658.006, 744.661 664.879, 742.624 " fill="none" stroke="rgb(0, 0, 0)" stroke-linecap="butt" stroke-linejoin="round" stroke-opacity="1.0" stroke-width="3.0" />
            <path d=" M 694.036, 485.182 693.925, 485.208 690.108, 486.109 687.419, 486.796 685.249, 486.841 677.459, 485.660 668.803, 480.654 667.749, 480.045 661.060, 475.800 657.594, 473.768 652.185, 471.625 652.090, 471.588 " fill="none" stroke="rgb(0, 0, 0)" stroke-linecap="butt" stroke-linejoin="round" stroke-opacity="1.0" stroke-width="3.0" />
            <path d=" M 445.521, 1024.316 446.283, 1030.808 448.557, 1040.545 448.956, 1042.253 450.039, 1052.195 450.437, 1055.843 451.424, 1061.918 451.880, 1064.190 452.354, 1065.472 453.872, 1069.577 " fill="none" stroke="rgb(0, 0, 0)" stroke-linecap="butt" stroke-linejoin="round" stroke-opacity="1.0" stroke-width="3.0" />
            <path d=" M 536.101, 1155.412 539.902, 1164.661 540.207, 1165.402 543.015, 1170.738 547.531, 1179.661 547.615, 1179.825 547.677, 1179.947 547.972, 1180.098 552.681, 1182.497 555.883, 1185.492 564.165, 1185.320 565.472, 1185.164 " fill="none" stroke="rgb(0, 0, 0)" stroke-linecap="butt" stroke-linejoin="round" stroke-opacity="1.0" stroke-width="3.0" />
            <path d=" M 622.226, 1055.715 614.633, 1051.600 608.415, 1048.230 603.661, 1046.540 594.941, 1041.645 594.354, 1041.316 587.806, 1038.030 581.400, 1033.112 " fill="none" stroke="rgb(0, 0, 0)" stroke-linecap="butt" stroke-linejoin="round" stroke-opacity="1.0" stroke-width="3.0" />
            <path d=" M 863.524, 931.081 862.650, 931.611 855.688, 935.834 854.991, 936.966 855.106, 939.848 856.536, 943.163 858.792, 944.045 868.788, 944.304 871.096, 944.364 881.059, 943.500 882.149, 943.406 887.802, 941.146 " fill="none" stroke="rgb(0, 0, 0)" stroke-linecap="butt" stroke-linejoin="round" stroke-opacity="1.0" stroke-width="3.0" />
            <path d=" M 451.214, 396.236 448.896, 396.072 447.121, 396.075 444.688, 397.181 444.515, 397.251 439.628, 400.347 436.562, 406.824 435.657, 409.554 432.379, 414.331 429.460, 419.110 428.373, 422.403 425.624, 426.121 423.878, 430.513 423.236, 432.520 " fill="none" stroke="rgb(0, 0, 0)" stroke-linecap="butt" stroke-linejoin="round" stroke-opacity="1.0" stroke-width="3.0" />
            <path d=" M 467.243, 572.821 463.756, 579.210 460.138, 585.032 456.522, 590.570 455.845, 593.024 455.839, 597.002 452.688, 600.284 451.715, 603.972 452.860, 607.011 455.446, 611.489 460.364, 613.142 460.932, 613.357 " fill="none" stroke="rgb(0, 0, 0)" stroke-linecap="butt" stroke-linejoin="round" stroke-opacity="1.0" stroke-width="3.0" />
            <path d=" M 862.464, 604.252 862.119, 602.973 859.886, 596.846 857.382, 593.742 855.340, 589.252 853.312, 585.486 852.294, 582.357 851.364, 580.401 850.682, 575.881 850.241, 571.276 847.986, 562.977 847.197, 560.539 846.143, 557.286 " fill="none" stroke="rgb(0, 0, 0)" stroke-linecap="butt" stroke-linejoin="round" stroke-opacity="1.0" stroke-width="3.0" />
            <path d=" M 594.522, 928.977 594.784, 929.054 598.250, 930.068 598.916, 930.263 601.045, 930.887 601.847, 931.121 605.937, 931.205 606.152, 931.210 608.451, 930.825 608.785, 930.769 610.030, 930.561 610.488, 930.485 615.123, 929.709 616.808, 929.049 620.383, 927.648 629.940, 924.707 632.435, 923.939 634.370, 922.401 634.940, 921.464 634.249, 919.031 629.317, 918.575 " fill="none" stroke="rgb(0, 0, 0)" stroke-linecap="butt" stroke-linejoin="round" stroke-opacity="1.0" stroke-width="3.0" />
            <path d=" M 417.017, 909.758 421.345, 918.773 422.837, 921.880 426.877, 931.028 427.937, 933.428 431.083, 942.920 432.175, 946.217 433.582, 950.872 435.350, 956.723 " fill="none" stroke="rgb(0, 0, 0)" stroke-linecap="butt" stroke-linejoin="round" stroke-opacity="1.0" stroke-width="3.0" />
            <path d=" M 953.388, 1066.507 954.782, 1067.498 957.164, 1068.040 957.263, 1068.062 957.795, 1068.183 959.985, 1067.913 961.384, 1066.906 963.141, 1063.603 964.162, 1058.171 964.817, 1049.202 967.958, 1041.675 972.155, 1032.598 973.693, 1029.271 974.855, 1026.829 974.915, 1026.534 " fill="none" stroke="rgb(0, 0, 0)" stroke-linecap="butt" stroke-linejoin="round" stroke-opacity="1.0" stroke-width="3.0" />
            <path d=" M 371.641, 756.275 371.627, 757.790 371.556, 765.044 371.866, 775.039 371.869, 775.143 372.035, 785.142 372.083, 787.998 372.977, 792.222 374.736, 800.537 377.409, 807.738 " fill="none" stroke="rgb(0, 0, 0)" stroke-linecap="butt" stroke-linejoin="round" stroke-opacity="1.0" stroke-width="3.0" />
            <path d=" M 342.060, 594.856 341.742, 597.781 341.652, 598.609 342.145, 602.627 342.365, 608.473 342.544, 612.003 342.576, 619.883 343.086, 626.306 344.183, 631.537 345.764, 638.390 346.358, 644.453 347.019, 647.508 " fill="none" stroke="rgb(0, 0, 0)" stroke-linecap="butt" stroke-linejoin="round" stroke-opacity="1.0" stroke-width="3.0" />
            <path d=" M 882.600, 839.696 881.629, 840.661 879.137, 843.135 876.685, 845.060 872.824, 847.403 869.010, 851.005 869.165, 856.042 871.071, 857.562 874.793, 857.724 881.719, 858.892 884.937, 860.266 890.488, 861.856 896.427, 862.772 898.277, 863.058 " fill="none" stroke="rgb(0, 0, 0)" stroke-linecap="butt" stroke-linejoin="round" stroke-opacity="1.0" stroke-width="3.0" />
            <path d=" M 891.581, 936.258 892.376, 937.528 893.569, 940.550 893.571, 940.554 893.672, 940.812 893.885, 941.351 889.421, 945.361 883.618, 950.212 882.189, 953.978 880.515, 956.008 880.558, 958.377 882.464, 961.332 886.346, 963.285 894.200, 962.056 903.009, 957.499 " fill="none" stroke="rgb(0, 0, 0)" stroke-linecap="butt" stroke-linejoin="round" stroke-opacity="1.0" stroke-width="3.0" />
            <path d=" M 549.466, 410.131 548.134, 406.845 545.628, 403.236 542.259, 399.789 539.281, 397.658 535.248, 397.013 531.808, 395.344 528.482, 393.770 525.918, 393.494 521.805, 393.893 517.744, 398.224 517.596, 399.217 517.583, 399.300 517.511, 399.782 516.919, 403.732 514.937, 408.607 513.937, 411.066 " fill="none" stroke="rgb(0, 0, 0)" stroke-linecap="butt" stroke-linejoin="round" stroke-opacity="1.0" stroke-width="3.0" />
            <path d=" M 631.451, 660.216 629.552, 663.252 628.328, 665.208 622.820, 672.927 621.789, 673.888 616.636, 678.691 611.743, 681.769 606.232, 686.020 600.393, 691.030 593.041, 697.910 590.785, 700.149 590.721, 700.204 " fill="none" stroke="rgb(0, 0, 0)" stroke-linecap="butt" stroke-linejoin="round" stroke-opacity="1.0" stroke-width="3.0" />
            <path d=" M 571.929, 621.921 566.224, 615.500 562.467, 610.298 562.403, 610.209 562.364, 610.156 559.971, 606.052 558.270, 602.915 556.506, 600.026 555.644, 598.806 554.422, 597.078 553.220, 593.941 553.138, 593.727 553.008, 593.388 552.910, 593.132 552.893, 593.102 552.833, 592.994 552.643, 592.657 551.796, 589.727 551.592, 589.022 551.291, 587.981 551.253, 587.850 551.121, 587.396 551.055, 587.167 550.023, 585.021 548.709, 581.626 548.538, 581.185 547.850, 579.407 547.746, 579.138 547.736, 577.976 547.726, 576.793 547.719, 575.968 547.718, 575.805 547.713, 575.239 547.707, 574.505 547.706, 574.439 547.706, 574.372 547.705, 574.305 547.701, 573.836 547.679, 571.187 " fill="none" stroke="rgb(0, 0, 0)" stroke-linecap="butt" stroke-linejoin="round" stroke-opacity="1.0" stroke-width="3.0" />
            <path d=" M 625.848, 835.651 627.289, 834.971 629.847, 834.434 631.998, 832.170 636.407, 828.892 636.317, 825.776 634.305, 821.313 632.653, 817.042 632.229, 815.178 634.079, 811.906 636.816, 807.068 637.889, 804.384 637.988, 804.137 638.058, 803.175 635.435, 798.619 633.354, 792.966 627.669, 792.165 " fill="none" stroke="rgb(0, 0, 0)" stroke-linecap="butt" stroke-linejoin="round" stroke-opacity="1.0" stroke-width="3.0" />
            <path d=" M 631.031, 607.198 632.397, 607.539 637.337, 608.771 641.686, 610.548 643.919, 611.207 646.632, 612.046 651.582, 614.062 656.585, 615.414 662.978, 617.462 667.453, 619.139 670.213, 619.807 674.406, 621.082 679.403, 622.379 681.283, 622.926 681.380, 622.955 681.607, 623.021 683.724, 623.637 686.485, 623.959 " fill="none" stroke="rgb(0, 0, 0)" stroke-linecap="butt" stroke-linejoin="round" stroke-opacity="1.0" stroke-width="3.0" />
            <path d=" M 612.587, 754.023 612.587, 753.985 612.578, 753.495 612.571, 753.119 612.519, 750.205 611.684, 747.784 611.169, 746.449 610.493, 744.700 609.722, 742.702 609.350, 741.917 607.004, 736.970 605.023, 732.729 601.336, 726.379 600.938, 725.037 600.321, 723.193 599.907, 722.457 599.884, 722.417 599.597, 721.907 598.376, 719.738 591.779, 713.072 590.063, 710.760 589.278, 709.703 588.319, 708.254 587.773, 707.429 587.684, 707.295 586.801, 705.962 585.495, 704.690 584.929, 704.139 " fill="none" stroke="rgb(0, 0, 0)" stroke-linecap="butt" stroke-linejoin="round" stroke-opacity="1.0" stroke-width="3.0" />
            <path d=" M 749.753, 502.228 748.462, 500.256 747.437, 498.686 745.286, 495.389 741.914, 490.515 738.092, 486.847 733.634, 478.891 727.559, 473.004 724.488, 468.406 721.886, 465.796 719.911, 463.919 715.892, 461.261 715.714, 461.166 711.862, 459.123 " fill="none" stroke="rgb(0, 0, 0)" stroke-linecap="butt" stroke-linejoin="round" stroke-opacity="1.0" stroke-width="3.0" />
            <path d=" M 429.698, 921.991 429.818, 922.374 432.808, 931.917 433.411, 933.842 435.092, 940.314 437.324, 949.767 438.279, 952.772 441.113, 962.362 442.081, 965.636 444.375, 975.370 445.053, 978.246 " fill="none" stroke="rgb(0, 0, 0)" stroke-linecap="butt" stroke-linejoin="round" stroke-opacity="1.0" stroke-width="3.0" />
            <path d=" M 596.911, 446.095 594.036, 440.228 593.949, 440.051 592.579, 437.256 592.578, 437.255 592.559, 437.216 592.206, 436.495 592.127, 436.333 592.078, 436.233 591.031, 434.097 590.689, 433.623 590.687, 433.620 590.611, 433.515 587.831, 429.659 583.462, 425.412 580.481, 423.603 575.206, 421.067 569.769, 419.599 569.675, 419.574 565.864, 419.095 560.808, 418.162 556.348, 417.555 555.569, 417.449 555.396, 417.426 553.254, 417.134 550.365, 416.840 " fill="none" stroke="rgb(0, 0, 0)" stroke-linecap="butt" stroke-linejoin="round" stroke-opacity="1.0" stroke-width="3.0" />
            <path d=" M 452.354, 1065.472 453.046, 1068.117 454.946, 1073.789 456.912, 1083.594 456.957, 1083.816 458.499, 1088.055 461.149, 1094.279 463.477, 1101.656 465.823, 1109.043 468.804, 1113.005 471.891, 1114.495 475.798, 1114.105 477.500, 1113.935 " fill="none" stroke="rgb(0, 0, 0)" stroke-linecap="butt" stroke-linejoin="round" stroke-opacity="1.0" stroke-width="3.0" />
            <path d=" M 586.600, 1141.184 591.098, 1139.300 595.769, 1137.068 597.015, 1136.326 598.579, 1135.393 600.228, 1134.411 602.653, 1132.760 601.599, 1126.747 596.827, 1124.673 586.941, 1123.170 584.847, 1122.852 575.756, 1121.062 571.289, 1120.823 570.108, 1120.429 569.657, 1120.279 567.338, 1118.269 " fill="none" stroke="rgb(0, 0, 0)" stroke-linecap="butt" stroke-linejoin="round" stroke-opacity="1.0" stroke-width="3.0" />
            <path d=" M 569.497, 1174.960 570.028, 1175.296 570.113, 1175.349 571.556, 1176.260 574.042, 1177.829 575.021, 1178.348 576.926, 1179.360 576.929, 1179.361 577.163, 1179.485 577.469, 1179.648 578.231, 1180.052 578.424, 1180.155 578.666, 1180.246 578.684, 1180.253 579.799, 1180.675 583.865, 1182.215 584.357, 1182.401 584.461, 1182.440 584.561, 1182.478 586.088, 1183.056 586.895, 1183.362 589.577, 1183.559 590.686, 1183.640 593.549, 1183.502 594.415, 1182.474 595.086, 1180.683 595.645, 1177.298 594.619, 1171.442 594.016, 1169.317 593.470, 1167.392 585.606, 1162.561 578.590, 1157.844 578.183, 1157.570 578.036, 1157.472 577.937, 1157.405 " fill="none" stroke="rgb(0, 0, 0)" stroke-linecap="butt" stroke-linejoin="round" stroke-opacity="1.0" stroke-width="3.0" />
            <path d=" M 685.376, 449.896 684.939, 449.763 683.267, 449.545 680.872, 449.581 677.156, 450.806 672.844, 452.907 670.427, 455.296 667.916, 457.871 667.021, 461.325 667.294, 462.382 669.163, 465.619 671.137, 468.439 674.735, 470.516 679.426, 470.724 683.511, 472.125 688.145, 475.500 690.908, 478.776 693.918, 484.441 694.093, 485.025 " fill="none" stroke="rgb(0, 0, 0)" stroke-linecap="butt" stroke-linejoin="round" stroke-opacity="1.0" stroke-width="3.0" />
            <path d=" M 782.670, 674.468 782.272, 674.822 782.225, 674.864 782.022, 675.045 781.967, 675.094 779.495, 677.294 777.879, 678.731 777.829, 678.804 776.399, 680.871 775.862, 681.647 774.566, 685.711 775.550, 690.457 779.229, 694.807 780.117, 695.331 783.959, 697.460 785.139, 701.225 783.460, 709.040 785.074, 712.800 788.386, 714.031 793.101, 712.856 796.053, 711.589 800.700, 710.326 " fill="none" stroke="rgb(0, 0, 0)" stroke-linecap="butt" stroke-linejoin="round" stroke-opacity="1.0" stroke-width="3.0" />
            <path d=" M 876.114, 1036.197 874.721, 1036.578 868.892, 1038.176 865.666, 1039.375 864.640, 1040.935 865.098, 1043.207 868.654, 1044.386 873.326, 1046.416 879.668, 1047.030 885.229, 1046.859 889.363, 1047.873 899.389, 1048.044 906.439, 1046.720 911.762, 1044.982 " fill="none" stroke="rgb(0, 0, 0)" stroke-linecap="butt" stroke-linejoin="round" stroke-opacity="1.0" stroke-width="3.0" />
            <path d=" M 603.971, 877.694 608.819, 878.462 614.848, 881.621 617.040, 881.773 618.817, 881.897 620.575, 881.284 623.489, 878.199 623.542, 878.142 627.197, 876.276 634.019, 872.791 640.031, 870.043 643.014, 867.017 643.162, 866.545 641.925, 859.482 637.370, 854.744 633.618, 851.313 " fill="none" stroke="rgb(0, 0, 0)" stroke-linecap="butt" stroke-linejoin="round" stroke-opacity="1.0" stroke-width="3.0" />
            <path d=" M 954.782, 1007.321 954.032, 1008.016 953.846, 1008.188 952.438, 1009.492 952.423, 1009.506 952.410, 1009.518 951.529, 1013.184 951.490, 1013.344 951.297, 1014.151 950.641, 1016.879 951.172, 1019.775 951.808, 1023.242 952.905, 1025.780 954.678, 1033.976 955.114, 1035.519 955.170, 1035.717 955.279, 1035.892 955.421, 1036.121 955.424, 1036.126 955.568, 1036.358 956.045, 1037.126 957.807, 1039.961 958.504, 1040.186 960.739, 1040.905 961.117, 1040.960 963.221, 1040.121 963.471, 1039.416 966.439, 1031.051 966.500, 1030.342 966.514, 1030.171 966.517, 1030.137 966.520, 1030.102 967.145, 1022.804 967.338, 1020.002 967.508, 1017.526 " fill="none" stroke="rgb(0, 0, 0)" stroke-linecap="butt" stroke-linejoin="round" stroke-opacity="1.0" stroke-width="3.0" />
            <path d=" M 652.185, 471.625 649.057, 469.568 644.633, 469.730 637.095, 470.070 633.023, 471.131 629.844, 472.791 627.954, 473.778 625.317, 475.933 623.945, 479.276 623.131, 481.645 623.513, 487.747 624.467, 492.241 626.603, 501.987 628.880, 508.571 629.517, 510.411 " fill="none" stroke="rgb(0, 0, 0)" stroke-linecap="butt" stroke-linejoin="round" stroke-opacity="1.0" stroke-width="3.0" />
            <path d=" M 434.243, 950.709 434.946, 954.530 435.350, 956.723 437.159, 966.558 438.467, 973.664 439.408, 980.699 440.656, 990.621 441.904, 1000.542 442.131, 1002.343 443.101, 1010.482 444.090, 1015.920 " fill="none" stroke="rgb(0, 0, 0)" stroke-linecap="butt" stroke-linejoin="round" stroke-opacity="1.0" stroke-width="3.0" />
            <path d=" M 836.449, 853.604 834.885, 857.513 833.663, 862.163 832.688, 862.725 827.305, 866.835 826.149, 868.478 826.904, 871.253 826.563, 874.325 829.297, 876.268 836.074, 877.841 841.075, 878.652 846.737, 879.208 852.749, 880.879 856.221, 879.752 863.693, 876.775 865.932, 877.319 " fill="none" stroke="rgb(0, 0, 0)" stroke-linecap="butt" stroke-linejoin="round" stroke-opacity="1.0" stroke-width="3.0" />
            <path d=" M 411.547, 883.564 416.258, 892.385 416.342, 892.542 420.695, 901.545 422.200, 904.657 425.953, 913.926 426.011, 914.069 429.107, 923.578 429.164, 923.754 431.524, 932.329 433.805, 942.065 433.938, 942.633 434.317, 945.575 " fill="none" stroke="rgb(0, 0, 0)" stroke-linecap="butt" stroke-linejoin="round" stroke-opacity="1.0" stroke-width="3.0" />
            <path d=" M 539.425, 1172.926 540.376, 1174.138 544.203, 1179.011 546.148, 1181.541 547.182, 1184.368 554.200, 1188.113 556.238, 1188.754 563.084, 1189.575 568.649, 1192.954 573.537, 1196.172 578.368, 1198.511 584.319, 1198.468 588.629, 1198.159 591.701, 1196.890 592.922, 1194.605 592.466, 1192.497 " fill="none" stroke="rgb(0, 0, 0)" stroke-linecap="butt" stroke-linejoin="round" stroke-opacity="1.0" stroke-width="3.0" />
            <path d=" M 860.192, 791.687 860.241, 793.672 859.525, 798.329 859.177, 800.593 857.020, 803.599 854.133, 807.479 851.615, 810.644 849.200, 814.628 850.083, 817.527 850.195, 817.815 855.677, 819.744 861.647, 820.118 865.809, 820.799 872.246, 823.748 875.133, 825.048 877.118, 825.169 877.815, 825.143 883.117, 822.967 885.805, 822.625 886.666, 822.515 " fill="none" stroke="rgb(0, 0, 0)" stroke-linecap="butt" stroke-linejoin="round" stroke-opacity="1.0" stroke-width="3.0" />
            <path d=" M 562.720, 547.397 562.950, 545.281 562.959, 545.200 563.238, 542.633 563.370, 542.174 564.255, 539.083 564.498, 538.235 564.569, 537.988 564.921, 536.759 566.492, 531.479 567.138, 529.873 568.782, 525.792 569.285, 524.763 569.406, 524.515 569.764, 523.783 571.016, 521.222 571.063, 521.125 571.271, 520.699 571.378, 520.480 571.990, 519.228 572.107, 519.046 573.826, 516.368 575.168, 514.277 576.285, 512.980 576.444, 512.796 576.464, 512.773 578.817, 512.461 581.074, 512.162 584.180, 512.099 588.097, 512.019 591.752, 510.974 593.804, 509.851 595.769, 507.392 597.372, 503.929 598.109, 498.323 " fill="none" stroke="rgb(0, 0, 0)" stroke-linecap="butt" stroke-linejoin="round" stroke-opacity="1.0" stroke-width="3.0" />
            <path d=" M 930.784, 979.353 927.094, 982.476 925.144, 983.283 922.904, 984.210 919.765, 987.100 916.438, 989.822 916.032, 990.154 915.981, 990.196 915.314, 990.742 913.487, 994.456 913.193, 997.560 913.150, 998.345 913.138, 998.579 913.129, 998.733 913.043, 1000.323 913.414, 1002.757 914.573, 1004.025 916.841, 1006.074 919.987, 1007.152 927.755, 1008.776 932.497, 1008.545 935.220, 1008.914 939.035, 1008.430 943.967, 1007.504 946.936, 1006.068 950.220, 1005.807 950.801, 1005.761 " fill="none" stroke="rgb(0, 0, 0)" stroke-linecap="butt" stroke-linejoin="round" stroke-opacity="1.0" stroke-width="3.0" />
            <path d=" M 379.413, 812.629 379.935, 817.343 380.742, 824.633 382.999, 834.375 384.004, 838.710 387.697, 848.003 388.365, 849.684 390.093, 853.737 393.200, 861.050 396.032, 867.325 397.342, 870.765 399.347, 875.765 401.148, 880.257 " fill="none" stroke="rgb(0, 0, 0)" stroke-linecap="butt" stroke-linejoin="round" stroke-opacity="1.0" stroke-width="3.0" />
            <path d=" M 917.379, 714.771 914.646, 707.970 912.710, 703.555 909.450, 696.667 906.172, 687.220 905.032, 683.935 900.614, 674.964 899.346, 672.389 896.212, 665.899 892.951, 659.975 890.865, 655.214 887.600, 650.481 885.390, 647.277 " fill="none" stroke="rgb(0, 0, 0)" stroke-linecap="butt" stroke-linejoin="round" stroke-opacity="1.0" stroke-width="3.0" />
            <path d=" M 863.816, 880.107 863.217, 880.511 859.469, 883.043 857.179, 888.183 854.760, 891.914 852.965, 894.951 849.835, 897.933 842.857, 901.657 841.995, 902.095 839.466, 905.122 841.139, 908.234 846.702, 909.990 852.610, 910.389 858.281, 911.452 864.504, 912.654 865.263, 912.690 870.701, 912.416 876.539, 911.101 " fill="none" stroke="rgb(0, 0, 0)" stroke-linecap="butt" stroke-linejoin="round" stroke-opacity="1.0" stroke-width="3.0" />
            <path d=" M 475.798, 1114.105 479.755, 1118.772 486.412, 1124.190 493.333, 1129.373 500.927, 1135.879 503.835, 1138.371 511.905, 1144.276 518.250, 1148.919 521.350, 1151.935 527.082, 1160.130 527.535, 1160.779 531.016, 1165.134 533.441, 1167.437 " fill="none" stroke="rgb(0, 0, 0)" stroke-linecap="butt" stroke-linejoin="round" stroke-opacity="1.0" stroke-width="3.0" />
            <path d=" M 558.299, 662.873 558.116, 662.320 557.891, 661.638 557.768, 661.267 557.698, 661.055 557.528, 660.541 556.851, 658.492 556.215, 656.567 554.870, 651.510 553.670, 649.630 553.630, 649.568 553.399, 649.205 553.083, 648.711 552.996, 648.574 552.133, 647.221 552.115, 647.194 551.957, 646.946 548.731, 642.540 547.881, 641.379 547.676, 641.003 547.635, 640.927 546.620, 639.065 546.608, 639.044 544.303, 634.814 544.134, 634.161 544.092, 633.995 543.990, 633.604 543.344, 631.103 542.629, 629.508 541.998, 628.099 540.672, 626.727 538.134, 624.103 535.145, 620.217 533.437, 618.338 530.917, 615.567 527.880, 611.778 524.384, 605.935 520.282, 599.918 518.068, 595.244 518.007, 595.116 " fill="none" stroke="rgb(0, 0, 0)" stroke-linecap="butt" stroke-linejoin="round" stroke-opacity="1.0" stroke-width="3.0" />
            <path d=" M 972.539, 1026.139 973.449, 1026.290 974.915, 1026.534 975.354, 1026.607 977.580, 1026.006 978.169, 1025.573 981.218, 1019.114 983.271, 1010.715 984.969, 1004.330 984.833, 999.432 985.063, 993.459 984.778, 983.940 985.180, 977.424 985.163, 970.495 984.564, 960.513 984.476, 959.059 984.563, 953.752 984.290, 952.171 " fill="none" stroke="rgb(0, 0, 0)" stroke-linecap="butt" stroke-linejoin="round" stroke-opacity="1.0" stroke-width="3.0" />
            <path d=" M 399.347, 875.765 400.465, 879.073 403.368, 886.728 406.862, 895.259 408.629, 898.607 411.814, 903.791 415.689, 910.295 420.210, 919.215 421.510, 921.782 425.611, 930.903 427.207, 934.452 430.894, 943.748 431.404, 945.032 433.582, 950.872 " fill="none" stroke="rgb(0, 0, 0)" stroke-linecap="butt" stroke-linejoin="round" stroke-opacity="1.0" stroke-width="3.0" />
            <path d=" M 438.492, 972.277 439.454, 980.055 440.681, 989.979 441.033, 992.826 442.419, 1002.730 443.805, 1012.633 443.866, 1013.065 444.090, 1015.920 444.273, 1018.249 445.521, 1024.316 446.410, 1028.635 447.280, 1031.880 449.015, 1038.408 450.219, 1046.088 450.989, 1050.998 453.415, 1057.765 454.179, 1058.891 454.512, 1059.381 " fill="none" stroke="rgb(0, 0, 0)" stroke-linecap="butt" stroke-linejoin="round" stroke-opacity="1.0" stroke-width="3.0" />
            <path d=" M 581.177, 1036.430 581.393, 1033.215 581.398, 1033.139 581.400, 1033.112 581.470, 1032.074 581.872, 1025.880 581.917, 1023.209 581.930, 1022.467 582.776, 1018.985 582.300, 1015.434 583.078, 1012.769 583.170, 1012.451 583.440, 1012.458 585.513, 1012.516 587.531, 1012.572 590.121, 1013.506 595.282, 1015.367 602.785, 1014.887 606.909, 1013.413 608.528, 1011.798 609.355, 1010.973 610.081, 1010.249 610.436, 1008.708 610.593, 1008.025 608.964, 1006.429 610.526, 1003.142 607.883, 998.748 604.823, 995.848 596.154, 990.864 594.796, 990.084 589.680, 989.289 584.611, 988.458 583.808, 988.326 583.618, 988.295 " fill="none" stroke="rgb(0, 0, 0)" stroke-linecap="butt" stroke-linejoin="round" stroke-opacity="1.0" stroke-width="3.0" />
            <path d=" M 583.126, 977.501 584.176, 976.841 586.311, 975.499 586.867, 975.565 589.235, 975.847 589.969, 975.935 591.494, 976.117 592.232, 976.204 593.480, 976.353 594.501, 976.475 595.320, 976.573 595.432, 976.586 595.716, 976.620 595.717, 976.619 604.789, 975.292 605.526, 975.058 614.740, 971.172 618.313, 969.665 622.510, 967.911 626.865, 964.635 625.619, 958.632 624.253, 957.199 622.306, 955.749 615.215, 952.716 613.821, 952.120 613.383, 951.846 608.114, 948.550 602.160, 942.759 598.524, 939.917 598.206, 939.669 597.503, 939.119 595.844, 937.822 591.883, 937.005 " fill="none" stroke="rgb(0, 0, 0)" stroke-linecap="butt" stroke-linejoin="round" stroke-opacity="1.0" stroke-width="3.0" />
            <path d=" M 660.216, 632.883 657.876, 630.824 657.776, 630.687 657.752, 630.654 657.719, 630.608 654.446, 626.099 653.180, 621.174 650.299, 618.165 645.573, 615.216 643.002, 614.832 640.971, 614.931 637.754, 616.720 636.544, 617.678 635.388, 619.516 633.071, 623.257 631.836, 626.713 629.768, 629.898 626.277, 635.466 621.647, 642.443 618.126, 648.953 616.895, 653.085 615.642, 659.028 616.245, 664.192 620.145, 671.984 621.789, 673.888 " fill="none" stroke="rgb(0, 0, 0)" stroke-linecap="butt" stroke-linejoin="round" stroke-opacity="1.0" stroke-width="3.0" />
            <path d=" M 473.680, 1085.647 474.616, 1086.447 482.154, 1092.893 486.989, 1097.558 494.090, 1102.959 497.539, 1105.224 505.506, 1111.268 510.189, 1114.821 511.734, 1115.993 512.528, 1116.841 518.448, 1123.162 523.357, 1131.874 523.597, 1132.301 528.427, 1139.548 531.521, 1146.339 533.154, 1151.064 536.101, 1155.412 538.798, 1159.391 " fill="none" stroke="rgb(0, 0, 0)" stroke-linecap="butt" stroke-linejoin="round" stroke-opacity="1.0" stroke-width="3.0" />
            <path d=" M 598.060, 498.468 598.109, 498.323 599.386, 494.506 600.249, 491.819 599.411, 486.005 596.810, 482.214 596.680, 482.025 594.894, 478.183 594.298, 476.902 590.341, 470.739 587.642, 467.094 586.321, 465.767 585.359, 464.799 585.326, 464.766 582.928, 462.356 576.233, 457.811 572.138, 455.454 564.552, 451.089 559.353, 447.513 559.099, 447.338 558.935, 447.267 558.417, 447.040 556.162, 446.057 554.849, 445.484 553.771, 445.014 548.985, 443.989 546.402, 443.436 542.694, 442.641 541.321, 442.347 538.850, 440.918 538.001, 440.426 537.953, 440.399 537.376, 440.065 536.811, 439.738 536.603, 439.617 536.276, 439.428 536.234, 439.404 535.979, 439.256 535.690, 439.089 535.580, 439.025 535.402, 438.922 534.217, 438.236 533.372, 437.747 531.535, 436.527 531.074, 436.221 529.218, 434.988 " fill="none" stroke="rgb(0, 0, 0)" stroke-linecap="butt" stroke-linejoin="round" stroke-opacity="1.0" stroke-width="3.0" />
            <path d=" M 382.357, 817.183 384.351, 822.451 384.581, 823.059 387.252, 830.544 388.079, 832.857 391.447, 842.273 393.545, 848.137 397.802, 857.185 398.846, 859.404 403.064, 868.074 406.289, 873.634 406.577, 874.174 409.256, 879.675 411.547, 883.564 413.074, 886.158 417.326, 893.385 421.559, 902.535 425.764, 911.608 426.167, 912.475 429.627, 921.857 429.818, 922.374 " fill="none" stroke="rgb(0, 0, 0)" stroke-linecap="butt" stroke-linejoin="round" stroke-opacity="1.0" stroke-width="3.0" />
            <path d=" M 509.637, 449.496 508.732, 450.853 506.280, 454.530 499.619, 461.506 496.615, 466.025 491.882, 472.279 488.487, 478.708 484.483, 486.121 481.295, 495.391 478.694, 502.962 477.771, 507.288 477.710, 507.438 477.672, 507.533 477.658, 507.567 476.990, 509.210 476.357, 510.767 473.729, 520.416 473.478, 521.338 472.267, 523.988 470.295, 528.232 468.973, 534.550 468.246, 538.235 469.443, 542.879 468.605, 549.329 468.277, 550.486 468.053, 555.529 468.900, 561.718 469.270, 563.807 467.419, 569.812 467.243, 572.821 467.137, 574.644 " fill="none" stroke="rgb(0, 0, 0)" stroke-linecap="butt" stroke-linejoin="round" stroke-opacity="1.0" stroke-width="3.0" />
            <path d=" M 529.661, 611.753 529.216, 609.893 528.067, 605.088 528.167, 600.572 527.639, 597.694 527.587, 597.412 527.103, 594.770 527.001, 591.516 527.000, 591.495 526.907, 588.504 525.338, 584.908 525.073, 579.567 527.265, 572.752 527.346, 572.502 527.498, 572.028 527.631, 571.615 527.646, 571.567 528.878, 563.995 530.951, 558.385 533.217, 550.608 534.627, 544.754 536.217, 538.175 536.398, 537.428 536.450, 536.918 536.881, 532.739 540.108, 525.833 542.698, 521.933 542.920, 521.598 543.015, 521.431 544.967, 517.963 545.578, 514.905 546.615, 510.400 547.672, 506.987 548.258, 505.095 548.457, 504.401 548.937, 502.719 551.241, 499.778 553.364, 495.820 553.201, 491.024 553.487, 488.384 553.199, 487.403 552.181, 483.944 552.088, 483.627 551.650, 482.369 551.523, 482.003 551.516, 481.983 551.499, 481.935 551.463, 481.831 551.454, 481.806 551.120, 480.846 550.759, 479.807 " fill="none" stroke="rgb(0, 0, 0)" stroke-linecap="butt" stroke-linejoin="round" stroke-opacity="1.0" stroke-width="3.0" />
            <path d=" M 464.163, 617.259 465.897, 620.619 466.175, 620.917 468.748, 623.676 473.227, 628.266 474.405, 629.660 477.639, 634.288 480.530, 636.739 484.233, 642.670 486.919, 646.383 490.568, 653.230 493.657, 658.652 495.293, 662.823 498.630, 669.711 500.129, 675.334 501.453, 680.229 501.576, 680.575 502.427, 682.973 502.934, 684.404 503.681, 686.509 504.180, 687.781 504.192, 687.812 505.797, 691.905 507.108, 696.976 507.540, 698.454 509.381, 704.752 509.480, 705.214 510.372, 709.376 512.891, 717.650 513.981, 724.250 515.348, 734.156 515.951, 738.529 515.708, 742.915 515.537, 746.010 " fill="none" stroke="rgb(0, 0, 0)" stroke-linecap="butt" stroke-linejoin="round" stroke-opacity="1.0" stroke-width="3.0" />
            <path d=" M 621.526, 540.422 613.226, 541.400 612.709, 541.461 610.091, 541.807 607.260, 542.190 604.707, 542.581 602.782, 542.952 601.076, 543.667 598.250, 543.786 593.983, 543.689 591.349, 543.988 589.866, 543.995 587.995, 544.003 587.362, 543.950 585.090, 543.762 584.928, 543.749 584.485, 543.712 584.183, 543.544 579.856, 541.126 576.626, 540.805 572.879, 542.225 572.367, 542.958 572.068, 544.030 571.472, 546.166 570.454, 549.816 570.630, 551.621 570.698, 552.318 570.699, 552.331 570.754, 552.894 570.978, 555.192 571.050, 555.932 571.084, 556.281 571.087, 556.315 571.088, 556.322 571.161, 557.067 571.184, 557.304 571.418, 559.146 571.518, 559.938 572.482, 562.567 573.366, 564.732 575.695, 570.608 577.998, 574.799 581.531, 579.444 583.247, 580.908 586.659, 585.137 589.790, 588.149 591.327, 590.467 594.650, 593.220 598.764, 596.489 601.933, 598.238 603.757, 599.426 607.793, 601.438 614.765, 603.463 618.902, 604.932 620.048, 605.339 627.394, 606.502 631.031, 607.198 632.252, 607.432 " fill="none" stroke="rgb(0, 0, 0)" stroke-linecap="butt" stroke-linejoin="round" stroke-opacity="1.0" stroke-width="3.0" />
            <path d=" M 388.659, 640.166 388.545, 638.906 388.423, 637.557 388.337, 636.614 388.324, 636.463 388.242, 635.565 388.240, 635.537 388.238, 635.517 388.237, 635.510 387.867, 631.416 387.193, 629.316 385.042, 629.144 382.316, 631.152 378.906, 635.345 378.898, 635.355 378.584, 635.741 377.310, 637.307 371.092, 642.570 367.803, 645.599 367.642, 645.810 367.343, 646.203 363.641, 651.075 361.256, 655.140 360.332, 656.714 358.997, 658.990 358.592, 659.806 358.433, 660.127 358.270, 660.456 358.219, 660.560 356.329, 664.373 356.016, 665.005 355.958, 665.121 355.789, 665.554 355.351, 666.674 354.071, 669.954 353.166, 673.716 352.717, 676.318 352.712, 676.342 352.699, 676.420 352.642, 676.748 352.544, 677.314 352.116, 679.798 352.043, 688.557 354.003, 698.363 355.129, 704.002 356.429, 710.353 359.746, 719.787 360.027, 720.585 362.919, 728.141 366.581, 736.724 369.863, 743.308 370.210, 744.005 370.459, 744.504 371.025, 745.639 371.057, 745.703 371.492, 746.575 371.529, 746.651 373.574, 751.880 " fill="none" stroke="rgb(0, 0, 0)" stroke-linecap="butt" stroke-linejoin="round" stroke-opacity="1.0" stroke-width="3.0" />
            <path d=" M 563.428, 1082.946 565.096, 1081.287 565.533, 1080.852 567.961, 1078.436 568.979, 1078.575 575.332, 1079.444 585.054, 1081.015 588.399, 1081.556 594.392, 1081.761 602.404, 1081.654 612.377, 1080.925 613.766, 1080.824 623.730, 1079.969 627.484, 1079.646 637.255, 1077.520 637.679, 1077.428 644.119, 1075.632 653.047, 1073.647 658.572, 1071.127 663.071, 1068.097 663.192, 1066.721 661.111, 1063.715 658.756, 1063.200 649.693, 1062.110 639.837, 1060.421 638.409, 1060.177 628.838, 1057.280 625.815, 1056.365 620.754, 1053.651 614.633, 1051.600 " fill="none" stroke="rgb(0, 0, 0)" stroke-linecap="butt" stroke-linejoin="round" stroke-opacity="1.0" stroke-width="3.0" />
            <path d=" M 567.992, 1115.719 572.501, 1117.120 579.789, 1119.614 589.245, 1122.866 590.089, 1123.156 599.650, 1124.786 609.649, 1124.646 613.432, 1124.592 621.554, 1125.089 629.676, 1124.213 638.328, 1122.889 644.386, 1121.979 648.065, 1120.342 649.077, 1119.797 649.897, 1116.017 647.822, 1112.924 642.654, 1110.339 637.277, 1108.122 631.352, 1107.169 624.539, 1104.164 618.079, 1101.802 614.149, 1100.845 606.327, 1095.781 597.946, 1090.327 591.037, 1085.831 585.054, 1081.015 " fill="none" stroke="rgb(0, 0, 0)" stroke-linecap="butt" stroke-linejoin="round" stroke-opacity="1.0" stroke-width="3.0" />
            <path d=" M 984.976, 936.715 985.404, 930.526 985.009, 920.533 984.677, 912.124 983.729, 902.169 983.131, 895.881 982.885, 885.884 982.880, 885.674 981.628, 875.753 981.581, 875.376 979.353, 865.627 978.768, 863.065 977.835, 859.113 976.269, 855.333 973.547, 845.710 973.264, 844.711 971.913, 837.376 970.355, 833.460 967.201, 823.971 965.396, 818.541 961.430, 809.361 958.158, 801.785 954.885, 792.335 953.823, 789.271 950.381, 779.882 950.125, 779.186 945.885, 770.129 944.303, 766.751 940.306, 757.585 940.110, 757.137 936.042, 748.980 931.007, 740.340 930.567, 739.586 926.191, 731.031 923.073, 724.224 918.347, 716.378 914.323, 707.224 912.710, 703.555 " fill="none" stroke="rgb(0, 0, 0)" stroke-linecap="butt" stroke-linejoin="round" stroke-opacity="1.0" stroke-width="3.0" />
        </g>
    </g>
</svg>
