<?xml version='1.0' encoding='ascii'?>
<svg xmlns="http://www.w3.org/2000/svg" height="1280" version="1.1" width="1280">
    <g id="RenderLayer_LineSet" inkscape:groupmode="lineset" inkscape:label="RenderLayer_LineSet" xmlns:inkscape="http://www.inkscape.org/namespaces/inkscape">
        <g id="strokes" inkscape:groupmode="layer" inkscape:label="strokes" xmlns:inkscape="http://www.inkscape.org/namespaces/inkscape">
            <path d=" M 709.645, 735.953 704.324, 737.342 700.306, 738.489 694.710, 739.037 690.098, 740.186 " fill="none" stroke="rgb(0, 0, 0)" stroke-linecap="butt" stroke-linejoin="round" stroke-opacity="1.0" stroke-width="3.0" />
            <path d=" M 355.114, 700.138 355.277, 701.350 355.725, 704.687 355.790, 705.171 355.934, 706.246 355.481, 707.117 355.242, 707.577 354.490, 709.023 353.755, 710.437 353.543, 711.080 355.187, 717.288 355.713, 719.353 " fill="none" stroke="rgb(0, 0, 0)" stroke-linecap="butt" stroke-linejoin="round" stroke-opacity="1.0" stroke-width="3.0" />
            <path d=" M 997.398, 811.121 993.697, 804.608 991.659, 801.469 990.363, 799.304 989.748, 798.275 987.039, 793.749 " fill="none" stroke="rgb(0, 0, 0)" stroke-linecap="butt" stroke-linejoin="round" stroke-opacity="1.0" stroke-width="3.0" />
            <path d=" M 795.472, 607.497 788.732, 604.063 786.773, 603.065 786.046, 602.626 784.861, 601.909 780.956, 599.547 779.624, 598.742 777.794, 597.635 " fill="none" stroke="rgb(0, 0, 0)" stroke-linecap="butt" stroke-linejoin="round" stroke-opacity="1.0" stroke-width="3.0" />
            <path d=" M 636.207, 653.674 637.300, 652.756 634.870, 649.506 631.869, 644.781 629.597, 643.874 627.947, 643.215 622.989, 642.081 " fill="none" stroke="rgb(0, 0, 0)" stroke-linecap="butt" stroke-linejoin="round" stroke-opacity="1.0" stroke-width="3.0" />
            <path d=" M 465.224, 764.154 458.510, 771.565 451.796, 778.976 451.527, 779.273 " fill="none" stroke="rgb(0, 0, 0)" stroke-linecap="butt" stroke-linejoin="round" stroke-opacity="1.0" stroke-width="3.0" />
            <path d=" M 819.085, 841.374 818.651, 843.162 818.639, 844.727 818.631, 845.827 818.876, 846.665 820.959, 848.572 830.609, 851.195 832.904, 851.818 " fill="none" stroke="rgb(0, 0, 0)" stroke-linecap="butt" stroke-linejoin="round" stroke-opacity="1.0" stroke-width="3.0" />
            <path d=" M 921.976, 703.509 920.173, 701.279 915.882, 696.393 912.852, 693.921 910.485, 691.990 906.832, 689.677 " fill="none" stroke="rgb(0, 0, 0)" stroke-linecap="butt" stroke-linejoin="round" stroke-opacity="1.0" stroke-width="3.0" />
            <path d=" M 539.993, 683.985 540.530, 682.964 542.067, 680.039 542.591, 679.791 545.103, 678.600 548.186, 677.139 550.953, 676.634 552.861, 676.581 557.586, 676.449 " fill="none" stroke="rgb(0, 0, 0)" stroke-linecap="butt" stroke-linejoin="round" stroke-opacity="1.0" stroke-width="3.0" />
            <path d=" M 356.444, 688.818 356.061, 690.155 355.666, 691.531 355.986, 693.143 355.318, 695.451 355.052, 696.370 354.942, 696.751 354.492, 698.306 354.922, 700.341 355.152, 701.428 354.796, 702.583 354.265, 704.305 354.490, 709.023 " fill="none" stroke="rgb(0, 0, 0)" stroke-linecap="butt" stroke-linejoin="round" stroke-opacity="1.0" stroke-width="3.0" />
            <path d=" M 759.470, 674.847 762.188, 678.485 762.306, 678.642 762.582, 678.882 765.074, 679.013 766.378, 678.301 770.270, 676.044 775.221, 671.264 775.563, 670.933 " fill="none" stroke="rgb(0, 0, 0)" stroke-linecap="butt" stroke-linejoin="round" stroke-opacity="1.0" stroke-width="3.0" />
            <path d=" M 863.415, 731.663 861.972, 732.318 861.884, 732.358 861.718, 732.434 861.592, 732.491 861.524, 732.522 861.398, 732.579 861.180, 732.678 861.147, 732.693 861.130, 732.701 861.068, 732.729 859.892, 733.263 857.874, 734.179 855.954, 738.855 857.162, 741.068 860.803, 743.510 863.278, 744.090 863.710, 744.191 " fill="none" stroke="rgb(0, 0, 0)" stroke-linecap="butt" stroke-linejoin="round" stroke-opacity="1.0" stroke-width="3.0" />
            <path d=" M 594.778, 588.445 594.051, 584.482 591.088, 580.519 587.651, 578.867 582.375, 575.133 581.275, 573.869 581.159, 573.736 " fill="none" stroke="rgb(0, 0, 0)" stroke-linecap="butt" stroke-linejoin="round" stroke-opacity="1.0" stroke-width="3.0" />
            <path d=" M 638.879, 688.654 639.569, 688.277 643.376, 684.079 643.331, 682.204 641.538, 677.534 640.889, 675.842 640.873, 675.801 640.848, 675.737 640.414, 674.508 638.108, 670.480 " fill="none" stroke="rgb(0, 0, 0)" stroke-linecap="butt" stroke-linejoin="round" stroke-opacity="1.0" stroke-width="3.0" />
            <path d=" M 421.674, 826.736 423.184, 836.323 423.368, 837.486 423.417, 837.797 423.561, 838.712 423.691, 839.539 424.889, 847.144 425.025, 847.704 " fill="none" stroke="rgb(0, 0, 0)" stroke-linecap="butt" stroke-linejoin="round" stroke-opacity="1.0" stroke-width="3.0" />
            <path d=" M 739.461, 774.604 737.407, 778.688 736.973, 779.610 736.942, 779.676 736.961, 779.605 738.699, 773.188 742.261, 771.274 743.201, 770.768 743.396, 770.664 746.966, 770.565 " fill="none" stroke="rgb(0, 0, 0)" stroke-linecap="butt" stroke-linejoin="round" stroke-opacity="1.0" stroke-width="3.0" />
            <path d=" M 496.897, 489.311 494.892, 489.895 489.810, 489.016 484.440, 488.745 480.822, 488.867 475.773, 489.038 " fill="none" stroke="rgb(0, 0, 0)" stroke-linecap="butt" stroke-linejoin="round" stroke-opacity="1.0" stroke-width="3.0" />
            <path d=" M 795.400, 598.427 794.380, 598.003 792.050, 597.033 784.845, 596.282 780.450, 595.082 774.480, 594.593 " fill="none" stroke="rgb(0, 0, 0)" stroke-linecap="butt" stroke-linejoin="round" stroke-opacity="1.0" stroke-width="3.0" />
            <path d=" M 1000.417, 925.353 1002.901, 922.837 1003.896, 920.585 1007.548, 915.791 1008.634, 912.380 1009.351, 907.951 1009.577, 906.559 " fill="none" stroke="rgb(0, 0, 0)" stroke-linecap="butt" stroke-linejoin="round" stroke-opacity="1.0" stroke-width="3.0" />
            <path d=" M 368.623, 712.604 368.777, 721.604 368.785, 722.058 368.816, 723.880 369.878, 731.761 369.884, 731.808 370.196, 734.118 " fill="none" stroke="rgb(0, 0, 0)" stroke-linecap="butt" stroke-linejoin="round" stroke-opacity="1.0" stroke-width="3.0" />
            <path d=" M 936.809, 808.301 933.861, 807.482 933.408, 807.357 930.122, 806.444 925.774, 807.413 925.731, 807.441 922.543, 809.500 921.233, 810.285 921.110, 812.108 923.304, 814.614 " fill="none" stroke="rgb(0, 0, 0)" stroke-linecap="butt" stroke-linejoin="round" stroke-opacity="1.0" stroke-width="3.0" />
            <path d=" M 1006.478, 835.711 1004.980, 830.304 1001.865, 822.747 998.736, 815.155 " fill="none" stroke="rgb(0, 0, 0)" stroke-linecap="butt" stroke-linejoin="round" stroke-opacity="1.0" stroke-width="3.0" />
            <path d=" M 829.151, 701.558 829.003, 702.057 828.726, 702.994 828.517, 703.702 828.483, 703.815 828.039, 705.319 828.038, 705.321 828.035, 705.330 827.230, 708.052 827.057, 708.639 826.856, 710.110 827.149, 712.996 827.341, 714.740 829.499, 717.703 834.583, 719.446 " fill="none" stroke="rgb(0, 0, 0)" stroke-linecap="butt" stroke-linejoin="round" stroke-opacity="1.0" stroke-width="3.0" />
            <path d=" M 940.687, 834.824 934.692, 829.593 930.107, 826.112 923.988, 820.686 923.483, 820.238 " fill="none" stroke="rgb(0, 0, 0)" stroke-linecap="butt" stroke-linejoin="round" stroke-opacity="1.0" stroke-width="3.0" />
            <path d=" M 989.750, 941.045 991.617, 939.914 993.302, 939.477 993.303, 939.477 994.870, 939.072 994.880, 939.069 998.460, 935.104 1000.269, 932.902 1000.728, 930.039 1000.417, 925.353 1000.413, 925.298 1000.330, 924.055 1000.330, 924.048 " fill="none" stroke="rgb(0, 0, 0)" stroke-linecap="butt" stroke-linejoin="round" stroke-opacity="1.0" stroke-width="3.0" />
            <path d=" M 814.458, 606.794 810.033, 602.405 803.781, 600.175 801.259, 598.486 797.577, 598.579 794.380, 598.003 " fill="none" stroke="rgb(0, 0, 0)" stroke-linecap="butt" stroke-linejoin="round" stroke-opacity="1.0" stroke-width="3.0" />
            <path d=" M 353.938, 635.380 353.706, 636.522 353.208, 638.959 352.994, 642.443 353.326, 646.110 354.085, 650.226 354.207, 652.311 354.750, 655.108 355.362, 657.974 " fill="none" stroke="rgb(0, 0, 0)" stroke-linecap="butt" stroke-linejoin="round" stroke-opacity="1.0" stroke-width="3.0" />
            <path d=" M 495.874, 902.933 495.837, 903.036 495.192, 904.834 495.172, 904.891 494.986, 905.408 494.873, 905.622 494.075, 907.130 499.497, 906.936 503.307, 906.008 510.333, 900.294 " fill="none" stroke="rgb(0, 0, 0)" stroke-linecap="butt" stroke-linejoin="round" stroke-opacity="1.0" stroke-width="3.0" />
            <path d=" M 761.854, 776.049 760.423, 775.004 759.915, 774.366 758.336, 772.755 758.196, 772.612 757.239, 771.635 750.561, 768.951 749.480, 769.037 747.518, 769.643 746.966, 770.565 746.707, 770.999 746.330, 771.629 745.860, 772.416 745.784, 775.532 " fill="none" stroke="rgb(0, 0, 0)" stroke-linecap="butt" stroke-linejoin="round" stroke-opacity="1.0" stroke-width="3.0" />
            <path d=" M 447.751, 642.499 437.698, 642.001 430.799, 642.112 426.552, 643.601 425.406, 644.002 424.872, 644.189 " fill="none" stroke="rgb(0, 0, 0)" stroke-linecap="butt" stroke-linejoin="round" stroke-opacity="1.0" stroke-width="3.0" />
            <path d=" M 938.884, 955.699 941.668, 954.920 950.807, 950.861 951.924, 950.365 958.150, 946.171 959.652, 944.636 " fill="none" stroke="rgb(0, 0, 0)" stroke-linecap="butt" stroke-linejoin="round" stroke-opacity="1.0" stroke-width="3.0" />
            <path d=" M 894.665, 738.227 889.198, 733.431 884.767, 728.956 881.356, 727.409 876.926, 725.662 875.309, 725.024 " fill="none" stroke="rgb(0, 0, 0)" stroke-linecap="butt" stroke-linejoin="round" stroke-opacity="1.0" stroke-width="3.0" />
            <path d=" M 362.389, 601.826 360.864, 607.252 360.498, 608.555 360.003, 609.516 355.598, 618.069 354.484, 622.138 354.732, 624.020 354.733, 624.028 354.776, 624.352 " fill="none" stroke="rgb(0, 0, 0)" stroke-linecap="butt" stroke-linejoin="round" stroke-opacity="1.0" stroke-width="3.0" />
            <path d=" M 575.943, 465.303 576.338, 464.174 576.809, 460.174 575.107, 457.829 570.598, 454.033 562.801, 450.193 561.415, 449.511 " fill="none" stroke="rgb(0, 0, 0)" stroke-linecap="butt" stroke-linejoin="round" stroke-opacity="1.0" stroke-width="3.0" />
            <path d=" M 630.967, 737.051 629.805, 735.896 627.514, 733.619 627.309, 733.508 623.630, 731.513 619.977, 729.532 613.529, 729.175 610.913, 729.313 609.052, 729.410 " fill="none" stroke="rgb(0, 0, 0)" stroke-linecap="butt" stroke-linejoin="round" stroke-opacity="1.0" stroke-width="3.0" />
            <path d=" M 856.901, 643.948 851.104, 639.479 845.526, 635.647 844.157, 634.707 840.836, 632.269 839.930, 631.748 839.543, 631.526 837.736, 630.488 836.887, 630.000 " fill="none" stroke="rgb(0, 0, 0)" stroke-linecap="butt" stroke-linejoin="round" stroke-opacity="1.0" stroke-width="3.0" />
            <path d=" M 708.045, 623.426 713.829, 628.137 715.844, 628.691 719.356, 630.549 722.453, 630.948 728.666, 633.495 729.819, 633.967 " fill="none" stroke="rgb(0, 0, 0)" stroke-linecap="butt" stroke-linejoin="round" stroke-opacity="1.0" stroke-width="3.0" />
            <path d=" M 668.965, 749.260 666.019, 748.502 658.313, 745.569 656.396, 744.524 651.891, 742.070 647.430, 738.346 647.363, 738.290 647.315, 738.250 647.250, 738.196 647.108, 738.077 " fill="none" stroke="rgb(0, 0, 0)" stroke-linecap="butt" stroke-linejoin="round" stroke-opacity="1.0" stroke-width="3.0" />
            <path d=" M 833.555, 858.247 833.553, 858.251 834.493, 860.012 840.537, 862.812 847.071, 866.762 853.318, 867.899 855.544, 867.978 " fill="none" stroke="rgb(0, 0, 0)" stroke-linecap="butt" stroke-linejoin="round" stroke-opacity="1.0" stroke-width="3.0" />
            <path d=" M 468.921, 642.153 468.528, 642.131 468.307, 642.119 468.234, 642.115 466.781, 642.034 466.671, 642.028 466.464, 642.016 458.836, 643.248 449.166, 642.144 447.751, 642.499 444.266, 643.373 " fill="none" stroke="rgb(0, 0, 0)" stroke-linecap="butt" stroke-linejoin="round" stroke-opacity="1.0" stroke-width="3.0" />
            <path d=" M 837.963, 711.059 837.949, 712.941 837.945, 713.438 836.160, 717.967 835.523, 718.565 834.583, 719.446 833.367, 720.585 831.557, 723.843 831.467, 728.475 833.639, 730.393 835.512, 730.383 836.822, 730.376 " fill="none" stroke="rgb(0, 0, 0)" stroke-linecap="butt" stroke-linejoin="round" stroke-opacity="1.0" stroke-width="3.0" />
            <path d=" M 830.301, 622.344 829.630, 621.612 826.109, 617.766 822.365, 614.138 819.615, 609.945 814.458, 606.794 811.790, 605.164 " fill="none" stroke="rgb(0, 0, 0)" stroke-linecap="butt" stroke-linejoin="round" stroke-opacity="1.0" stroke-width="3.0" />
            <path d=" M 741.251, 801.043 743.080, 801.257 753.012, 802.415 754.492, 802.588 764.305, 804.514 765.240, 804.697 766.547, 804.961 " fill="none" stroke="rgb(0, 0, 0)" stroke-linecap="butt" stroke-linejoin="round" stroke-opacity="1.0" stroke-width="3.0" />
            <path d=" M 404.767, 526.657 401.132, 530.560 397.551, 534.373 395.682, 537.144 394.758, 538.513 390.892, 543.691 390.218, 544.594 390.158, 544.675 389.173, 545.994 388.727, 546.591 " fill="none" stroke="rgb(0, 0, 0)" stroke-linecap="butt" stroke-linejoin="round" stroke-opacity="1.0" stroke-width="3.0" />
            <path d=" M 728.666, 633.495 731.615, 635.323 738.895, 639.659 744.657, 643.281 750.667, 646.947 " fill="none" stroke="rgb(0, 0, 0)" stroke-linecap="butt" stroke-linejoin="round" stroke-opacity="1.0" stroke-width="3.0" />
            <path d=" M 466.127, 902.501 458.564, 895.959 456.546, 894.214 449.757, 889.163 449.509, 888.978 446.411, 886.674 446.363, 886.638 445.804, 886.222 " fill="none" stroke="rgb(0, 0, 0)" stroke-linecap="butt" stroke-linejoin="round" stroke-opacity="1.0" stroke-width="3.0" />
            <path d=" M 977.896, 947.292 978.046, 947.355 978.691, 947.630 978.856, 947.700 979.088, 947.799 982.308, 949.167 985.833, 951.361 989.569, 950.230 994.339, 946.153 994.937, 944.409 995.218, 941.645 994.870, 939.072 " fill="none" stroke="rgb(0, 0, 0)" stroke-linecap="butt" stroke-linejoin="round" stroke-opacity="1.0" stroke-width="3.0" />
            <path d=" M 577.528, 960.329 578.587, 959.598 581.308, 957.718 582.792, 956.693 584.312, 955.044 584.570, 945.047 584.593, 944.165 581.945, 941.699 579.726, 939.117 " fill="none" stroke="rgb(0, 0, 0)" stroke-linecap="butt" stroke-linejoin="round" stroke-opacity="1.0" stroke-width="3.0" />
            <path d=" M 764.101, 614.878 762.783, 614.438 755.526, 612.010 746.298, 608.157 745.594, 607.863 742.317, 607.041 741.193, 606.759 740.228, 606.517 739.763, 606.400 738.712, 606.136 " fill="none" stroke="rgb(0, 0, 0)" stroke-linecap="butt" stroke-linejoin="round" stroke-opacity="1.0" stroke-width="3.0" />
            <path d=" M 644.190, 556.326 644.105, 556.308 643.790, 556.242 643.561, 556.193 643.343, 556.147 639.889, 555.152 639.757, 555.114 637.308, 554.361 636.851, 554.220 635.258, 553.966 626.997, 552.644 618.347, 548.819 " fill="none" stroke="rgb(0, 0, 0)" stroke-linecap="butt" stroke-linejoin="round" stroke-opacity="1.0" stroke-width="3.0" />
            <path d=" M 811.744, 698.040 810.815, 700.358 810.104, 702.133 809.900, 702.640 809.899, 702.704 809.839, 706.198 811.404, 708.365 816.298, 708.758 816.814, 708.774 826.606, 708.294 827.230, 708.052 " fill="none" stroke="rgb(0, 0, 0)" stroke-linecap="butt" stroke-linejoin="round" stroke-opacity="1.0" stroke-width="3.0" />
            <path d=" M 826.583, 821.327 821.616, 822.515 821.584, 822.528 821.353, 822.624 821.306, 822.643 818.728, 823.708 818.110, 824.408 818.133, 826.240 818.135, 826.460 818.152, 827.855 818.466, 828.629 818.492, 828.694 818.891, 829.681 818.918, 830.077 819.134, 833.303 818.920, 837.154 819.085, 841.374 819.116, 842.183 " fill="none" stroke="rgb(0, 0, 0)" stroke-linecap="butt" stroke-linejoin="round" stroke-opacity="1.0" stroke-width="3.0" />
            <path d=" M 356.710, 665.486 356.765, 665.675 358.458, 671.510 358.644, 672.154 358.693, 672.408 358.805, 672.996 358.818, 673.064 358.949, 673.750 358.964, 673.828 358.995, 673.992 359.013, 674.087 359.017, 674.107 359.701, 677.689 359.733, 677.853 359.825, 678.333 359.982, 679.160 359.999, 679.248 360.024, 679.377 360.161, 680.097 360.212, 680.364 360.455, 681.634 361.000, 684.487 361.008, 684.528 361.039, 684.693 361.055, 684.773 361.649, 690.228 361.687, 690.577 361.879, 692.337 " fill="none" stroke="rgb(0, 0, 0)" stroke-linecap="butt" stroke-linejoin="round" stroke-opacity="1.0" stroke-width="3.0" />
            <path d=" M 987.465, 894.023 988.545, 898.847 988.677, 899.435 988.665, 899.589 988.650, 899.784 988.561, 900.947 988.537, 901.268 988.102, 906.958 987.540, 912.580 988.879, 916.447 988.884, 916.464 989.353, 917.819 988.592, 920.868 " fill="none" stroke="rgb(0, 0, 0)" stroke-linecap="butt" stroke-linejoin="round" stroke-opacity="1.0" stroke-width="3.0" />
            <path d=" M 641.538, 677.534 644.378, 674.720 645.103, 672.297 645.155, 671.341 640.331, 662.581 639.907, 661.811 639.799, 661.614 632.299, 658.491 632.275, 658.481 631.632, 658.213 631.503, 658.159 " fill="none" stroke="rgb(0, 0, 0)" stroke-linecap="butt" stroke-linejoin="round" stroke-opacity="1.0" stroke-width="3.0" />
            <path d=" M 530.418, 961.703 532.544, 962.700 532.632, 962.741 541.044, 966.685 542.966, 967.743 547.220, 967.766 548.799, 967.774 549.754, 968.429 551.449, 969.593 555.391, 972.020 " fill="none" stroke="rgb(0, 0, 0)" stroke-linecap="butt" stroke-linejoin="round" stroke-opacity="1.0" stroke-width="3.0" />
            <path d=" M 392.194, 546.050 390.951, 548.001 390.769, 548.288 390.041, 549.432 387.579, 552.704 385.298, 555.738 382.563, 557.614 382.559, 557.616 382.043, 557.970 382.018, 557.987 381.997, 558.001 381.874, 558.086 381.741, 558.323 380.944, 559.739 380.608, 560.337 378.615, 560.448 376.840, 560.548 376.152, 560.034 374.426, 558.745 374.127, 558.568 373.401, 558.140 372.749, 557.916 372.011, 558.280 " fill="none" stroke="rgb(0, 0, 0)" stroke-linecap="butt" stroke-linejoin="round" stroke-opacity="1.0" stroke-width="3.0" />
            <path d=" M 581.167, 573.774 581.159, 573.736 580.406, 570.264 578.938, 567.632 578.929, 567.616 578.628, 567.076 578.570, 566.973 578.212, 565.087 577.870, 563.289 577.857, 563.219 577.591, 561.819 577.577, 561.749 577.460, 561.130 577.269, 560.244 577.097, 559.449 576.079, 554.727 575.989, 554.310 575.246, 551.651 575.223, 551.568 575.143, 551.283 574.997, 550.761 574.626, 549.431 573.860, 546.691 " fill="none" stroke="rgb(0, 0, 0)" stroke-linecap="butt" stroke-linejoin="round" stroke-opacity="1.0" stroke-width="3.0" />
            <path d=" M 855.620, 695.702 855.117, 695.321 854.867, 695.130 854.511, 694.861 853.714, 694.255 847.320, 690.343 843.891, 689.389 839.388, 689.841 834.242, 692.135 833.990, 692.399 833.523, 692.885 830.920, 695.601 " fill="none" stroke="rgb(0, 0, 0)" stroke-linecap="butt" stroke-linejoin="round" stroke-opacity="1.0" stroke-width="3.0" />
            <path d=" M 786.300, 683.275 785.179, 687.190 784.226, 690.515 784.841, 692.191 785.913, 693.585 788.893, 695.348 792.278, 695.753 801.570, 692.057 801.713, 692.000 802.206, 691.703 " fill="none" stroke="rgb(0, 0, 0)" stroke-linecap="butt" stroke-linejoin="round" stroke-opacity="1.0" stroke-width="3.0" />
            <path d=" M 990.363, 799.304 985.891, 790.340 985.795, 790.140 981.463, 781.126 980.589, 779.309 980.367, 778.868 979.174, 776.505 977.800, 772.985 " fill="none" stroke="rgb(0, 0, 0)" stroke-linecap="butt" stroke-linejoin="round" stroke-opacity="1.0" stroke-width="3.0" />
            <path d=" M 968.477, 756.733 966.256, 753.386 963.797, 749.092 961.407, 745.798 957.141, 739.690 956.372, 738.901 951.048, 733.436 " fill="none" stroke="rgb(0, 0, 0)" stroke-linecap="butt" stroke-linejoin="round" stroke-opacity="1.0" stroke-width="3.0" />
            <path d=" M 714.572, 539.527 711.886, 539.072 708.090, 538.645 706.404, 538.133 700.425, 536.447 694.476, 534.237 687.642, 532.877 685.873, 532.896 " fill="none" stroke="rgb(0, 0, 0)" stroke-linecap="butt" stroke-linejoin="round" stroke-opacity="1.0" stroke-width="3.0" />
            <path d=" M 839.930, 631.748 838.563, 630.663 835.240, 628.078 833.385, 626.634 833.353, 626.609 833.246, 626.526 833.082, 626.398 832.893, 626.251 831.828, 625.425 825.648, 620.240 822.898, 619.005 822.597, 618.870 820.703, 618.020 819.671, 617.557 818.387, 616.980 818.242, 616.915 817.943, 616.781 816.891, 616.309 816.475, 616.122 816.303, 616.044 816.226, 616.010 816.145, 615.974 814.989, 615.455 " fill="none" stroke="rgb(0, 0, 0)" stroke-linecap="butt" stroke-linejoin="round" stroke-opacity="1.0" stroke-width="3.0" />
            <path d=" M 831.932, 817.532 830.048, 817.301 829.773, 817.268 829.751, 817.265 828.404, 817.100 827.902, 817.036 827.579, 816.995 825.080, 816.677 815.657, 815.664 814.132, 816.495 812.355, 817.796 812.221, 817.894 811.580, 818.364 811.492, 818.429 811.489, 818.431 811.141, 818.730 810.585, 819.207 810.577, 819.302 810.536, 819.742 810.434, 820.849 810.375, 821.498 810.302, 822.292 810.513, 822.776 811.593, 825.252 812.077, 826.295 " fill="none" stroke="rgb(0, 0, 0)" stroke-linecap="butt" stroke-linejoin="round" stroke-opacity="1.0" stroke-width="3.0" />
            <path d=" M 930.448, 785.978 923.244, 779.042 922.018, 777.862 919.925, 777.362 919.695, 777.307 919.172, 777.182 917.550, 776.795 917.217, 776.715 916.966, 776.655 916.852, 776.678 912.721, 777.502 909.007, 778.243 908.353, 778.509 908.189, 778.576 906.991, 779.130 906.468, 782.240 " fill="none" stroke="rgb(0, 0, 0)" stroke-linecap="butt" stroke-linejoin="round" stroke-opacity="1.0" stroke-width="3.0" />
            <path d=" M 987.513, 862.241 987.511, 862.241 987.456, 862.257 984.068, 863.244 982.227, 864.066 982.080, 864.132 981.747, 864.281 981.319, 866.247 980.675, 869.208 981.871, 874.907 985.143, 879.161 985.758, 879.960 987.339, 883.647 988.271, 884.280 988.284, 884.289 989.007, 884.780 989.876, 885.370 " fill="none" stroke="rgb(0, 0, 0)" stroke-linecap="butt" stroke-linejoin="round" stroke-opacity="1.0" stroke-width="3.0" />
            <path d=" M 500.895, 484.786 499.505, 486.020 497.611, 488.248 497.394, 488.571 496.897, 489.311 496.497, 489.906 496.410, 490.037 495.489, 491.408 495.018, 493.076 491.171, 497.762 487.333, 501.807 483.399, 505.882 482.410, 508.457 482.364, 508.793 " fill="none" stroke="rgb(0, 0, 0)" stroke-linecap="butt" stroke-linejoin="round" stroke-opacity="1.0" stroke-width="3.0" />
            <path d=" M 671.359, 811.573 672.774, 811.143 681.854, 806.952 683.037, 806.405 689.277, 804.446 698.879, 801.654 701.083, 801.013 " fill="none" stroke="rgb(0, 0, 0)" stroke-linecap="butt" stroke-linejoin="round" stroke-opacity="1.0" stroke-width="3.0" />
            <path d=" M 686.897, 734.960 684.491, 733.960 682.662, 732.891 681.624, 732.284 678.326, 731.422 676.104, 731.389 671.492, 730.160 666.223, 731.038 661.386, 732.203 656.598, 733.764 " fill="none" stroke="rgb(0, 0, 0)" stroke-linecap="butt" stroke-linejoin="round" stroke-opacity="1.0" stroke-width="3.0" />
            <path d=" M 640.462, 694.215 640.553, 692.179 638.879, 688.654 637.793, 686.367 636.341, 683.309 635.371, 681.266 635.230, 681.200 634.844, 681.021 633.750, 680.513 630.884, 679.181 624.766, 678.790 623.239, 678.693 623.225, 678.692 621.273, 678.567 621.157, 678.505 620.791, 678.308 620.539, 678.172 620.327, 678.059 619.731, 677.738 619.223, 677.464 618.512, 677.082 618.432, 677.039 " fill="none" stroke="rgb(0, 0, 0)" stroke-linecap="butt" stroke-linejoin="round" stroke-opacity="1.0" stroke-width="3.0" />
            <path d=" M 382.622, 717.423 382.893, 718.207 384.532, 722.951 386.287, 728.029 388.705, 734.215 389.591, 736.331 391.235, 740.258 391.829, 741.111 395.672, 746.626 " fill="none" stroke="rgb(0, 0, 0)" stroke-linecap="butt" stroke-linejoin="round" stroke-opacity="1.0" stroke-width="3.0" />
            <path d=" M 604.622, 838.028 603.480, 832.343 603.230, 832.223 600.189, 830.771 600.014, 830.687 598.681, 830.051 597.876, 829.666 597.741, 829.602 594.874, 829.358 591.185, 829.043 590.146, 829.154 581.363, 830.089 581.288, 830.097 580.765, 829.562 580.299, 829.084 580.020, 828.798 579.998, 828.776 579.236, 827.953 578.872, 827.561 " fill="none" stroke="rgb(0, 0, 0)" stroke-linecap="butt" stroke-linejoin="round" stroke-opacity="1.0" stroke-width="3.0" />
            <path d=" M 517.876, 896.531 517.873, 896.556 517.699, 897.932 517.197, 901.921 516.964, 903.775 518.139, 906.604 520.669, 908.584 521.495, 911.968 518.236, 919.240 518.231, 919.251 518.208, 919.302 513.318, 924.647 " fill="none" stroke="rgb(0, 0, 0)" stroke-linecap="butt" stroke-linejoin="round" stroke-opacity="1.0" stroke-width="3.0" />
            <path d=" M 414.659, 586.522 415.172, 580.404 415.175, 580.369 415.310, 578.764 415.498, 575.193 415.550, 574.216 415.562, 573.978 416.556, 565.182 416.726, 564.529 415.406, 561.760 412.180, 560.872 411.387, 558.257 411.330, 558.071 411.021, 557.049 " fill="none" stroke="rgb(0, 0, 0)" stroke-linecap="butt" stroke-linejoin="round" stroke-opacity="1.0" stroke-width="3.0" />
            <path d=" M 988.680, 884.136 988.995, 884.461 989.876, 885.370 990.152, 885.654 990.910, 886.435 991.258, 886.795 992.270, 887.216 992.568, 887.341 995.024, 888.365 997.226, 886.385 998.956, 882.491 999.001, 882.391 999.069, 882.137 999.428, 880.811 999.462, 880.686 999.635, 880.047 999.631, 879.965 999.622, 879.750 999.618, 879.668 999.615, 879.614 999.609, 879.474 999.503, 877.098 999.469, 876.341 999.463, 876.196 999.415, 875.122 999.394, 874.652 999.393, 874.640 999.390, 874.557 999.366, 874.351 999.363, 874.320 999.296, 873.742 999.173, 872.672 999.162, 872.578 999.145, 872.425 998.281, 870.919 997.856, 870.228 997.802, 870.139 997.299, 869.321 997.155, 869.087 995.923, 867.083 995.469, 866.344 995.221, 865.941 " fill="none" stroke="rgb(0, 0, 0)" stroke-linecap="butt" stroke-linejoin="round" stroke-opacity="1.0" stroke-width="3.0" />
            <path d=" M 576.079, 554.727 576.373, 552.128 575.583, 549.565 575.511, 549.332 575.113, 548.039 574.692, 547.141 574.528, 546.791 574.270, 546.242 572.125, 541.673 571.105, 539.168 570.049, 536.578 567.634, 533.166 566.487, 531.546 562.659, 525.015 " fill="none" stroke="rgb(0, 0, 0)" stroke-linecap="butt" stroke-linejoin="round" stroke-opacity="1.0" stroke-width="3.0" />
            <path d=" M 697.650, 766.735 697.413, 766.913 697.028, 767.203 696.862, 767.328 692.459, 770.639 689.082, 773.179 685.674, 775.742 683.170, 777.788 677.678, 782.355 670.783, 786.070 " fill="none" stroke="rgb(0, 0, 0)" stroke-linecap="butt" stroke-linejoin="round" stroke-opacity="1.0" stroke-width="3.0" />
            <path d=" M 557.341, 487.599 557.710, 488.886 559.776, 497.191 561.740, 506.564 562.652, 512.338 562.667, 512.427 562.718, 512.753 562.771, 513.088 562.776, 513.121 562.788, 513.195 562.793, 513.224 562.843, 513.543 562.859, 513.641 562.894, 513.864 562.949, 514.215 562.928, 515.259 562.889, 517.255 562.867, 518.320 562.865, 518.414 562.849, 519.213 562.845, 519.454 562.829, 520.248 " fill="none" stroke="rgb(0, 0, 0)" stroke-linecap="butt" stroke-linejoin="round" stroke-opacity="1.0" stroke-width="3.0" />
            <path d=" M 449.509, 888.978 447.591, 884.857 448.223, 880.404 451.879, 871.393 452.179, 870.653 456.036, 866.189 457.203, 864.838 459.860, 863.609 461.504, 862.849 461.829, 862.698 462.718, 862.287 " fill="none" stroke="rgb(0, 0, 0)" stroke-linecap="butt" stroke-linejoin="round" stroke-opacity="1.0" stroke-width="3.0" />
            <path d=" M 628.250, 553.709 619.284, 549.282 618.347, 548.819 617.371, 548.338 614.814, 547.075 613.700, 546.236 612.830, 545.580 612.739, 545.511 611.423, 544.519 610.669, 543.951 610.253, 543.637 608.599, 542.390 606.431, 541.157 601.807, 538.528 600.368, 537.709 598.845, 536.843 " fill="none" stroke="rgb(0, 0, 0)" stroke-linecap="butt" stroke-linejoin="round" stroke-opacity="1.0" stroke-width="3.0" />
            <path d=" M 616.016, 604.330 621.148, 602.473 624.162, 601.247 619.467, 603.342 610.067, 606.754 608.564, 607.300 600.273, 609.518 " fill="none" stroke="rgb(0, 0, 0)" stroke-linecap="butt" stroke-linejoin="round" stroke-opacity="1.0" stroke-width="3.0" />
            <path d=" M 842.973, 846.186 841.208, 846.765 840.816, 846.893 838.239, 847.738 834.613, 848.926 832.615, 850.762 832.904, 851.818 833.523, 854.081 833.270, 857.996 833.555, 858.247 835.054, 859.573 844.132, 863.767 846.675, 864.942 " fill="none" stroke="rgb(0, 0, 0)" stroke-linecap="butt" stroke-linejoin="round" stroke-opacity="1.0" stroke-width="3.0" />
            <path d=" M 508.344, 515.983 508.852, 516.448 509.064, 516.642 511.165, 518.564 511.697, 519.050 513.773, 520.728 516.374, 523.922 519.240, 528.026 519.499, 528.553 520.955, 531.523 521.333, 532.294 521.530, 532.697 522.478, 535.967 524.165, 540.027 526.056, 545.160 " fill="none" stroke="rgb(0, 0, 0)" stroke-linecap="butt" stroke-linejoin="round" stroke-opacity="1.0" stroke-width="3.0" />
            <path d=" M 736.942, 779.676 736.732, 780.836 736.389, 782.733 739.066, 787.102 746.292, 792.899 748.410, 793.800 752.850, 795.125 754.663, 794.823 755.483, 794.687 756.414, 794.532 758.423, 794.192 762.109, 792.531 763.037, 792.113 " fill="none" stroke="rgb(0, 0, 0)" stroke-linecap="butt" stroke-linejoin="round" stroke-opacity="1.0" stroke-width="3.0" />
            <path d=" M 582.793, 790.250 584.721, 790.250 588.151, 790.249 591.672, 790.248 598.404, 792.235 607.170, 790.800 609.310, 790.449 612.901, 789.012 613.560, 787.058 611.959, 784.661 611.958, 784.660 " fill="none" stroke="rgb(0, 0, 0)" stroke-linecap="butt" stroke-linejoin="round" stroke-opacity="1.0" stroke-width="3.0" />
            <path d=" M 510.749, 457.424 509.599, 458.454 507.652, 460.196 504.535, 464.280 501.894, 467.692 501.034, 468.902 499.505, 471.436 498.417, 474.644 499.298, 476.386 498.101, 479.705 497.552, 481.544 497.082, 483.625 497.000, 484.762 497.288, 488.042 497.394, 488.571 " fill="none" stroke="rgb(0, 0, 0)" stroke-linecap="butt" stroke-linejoin="round" stroke-opacity="1.0" stroke-width="3.0" />
            <path d=" M 1001.865, 822.747 1001.325, 821.116 999.868, 816.953 996.828, 809.366 993.021, 801.449 989.634, 796.586 985.795, 790.140 " fill="none" stroke="rgb(0, 0, 0)" stroke-linecap="butt" stroke-linejoin="round" stroke-opacity="1.0" stroke-width="3.0" />
            <path d=" M 846.545, 718.157 846.579, 719.639 846.598, 720.483 846.659, 723.151 845.814, 725.795 844.537, 727.576 844.010, 728.311 842.101, 730.974 842.062, 731.029 842.019, 731.089 841.707, 731.524 842.468, 733.867 843.295, 734.612 845.235, 735.624 852.826, 734.734 855.219, 733.822 860.382, 732.419 860.425, 732.407 860.505, 732.385 860.657, 732.344 860.702, 732.332 860.754, 732.318 860.861, 732.289 861.053, 732.237 861.476, 732.122 " fill="none" stroke="rgb(0, 0, 0)" stroke-linecap="butt" stroke-linejoin="round" stroke-opacity="1.0" stroke-width="3.0" />
            <path d=" M 600.368, 537.709 598.362, 536.061 597.221, 535.135 593.356, 531.998 591.320, 530.481 591.297, 530.464 589.464, 530.696 588.674, 530.904 587.602, 531.336 586.067, 534.436 585.518, 535.544 585.556, 536.061 585.564, 536.175 585.625, 537.009 585.711, 538.206 585.779, 539.139 585.895, 540.741 585.905, 540.875 587.058, 543.586 587.529, 544.693 588.303, 545.232 588.632, 545.461 588.884, 545.637 593.953, 549.635 " fill="none" stroke="rgb(0, 0, 0)" stroke-linecap="butt" stroke-linejoin="round" stroke-opacity="1.0" stroke-width="3.0" />
            <path d=" M 606.620, 873.496 606.030, 871.935 606.278, 871.577 606.326, 871.508 606.362, 871.457 606.831, 870.781 607.226, 870.213 607.973, 869.136 608.369, 866.893 608.786, 864.533 608.881, 863.997 610.233, 860.833 609.533, 858.983 608.715, 856.821 607.582, 856.220 607.540, 856.197 606.722, 855.763 606.627, 855.713 606.536, 855.664 605.520, 855.125 604.410, 854.536 604.222, 854.436 596.468, 852.619 591.901, 852.392 590.477, 852.804 590.093, 852.915 589.613, 853.053 " fill="none" stroke="rgb(0, 0, 0)" stroke-linecap="butt" stroke-linejoin="round" stroke-opacity="1.0" stroke-width="3.0" />
            <path d=" M 361.000, 684.487 361.129, 687.916 361.229, 690.545 361.235, 690.703 361.408, 695.301 361.762, 699.031 361.772, 699.132 362.112, 702.715 362.508, 706.885 363.623, 711.781 363.633, 711.823 363.852, 712.784 363.868, 712.853 364.199, 714.308 366.609, 722.526 " fill="none" stroke="rgb(0, 0, 0)" stroke-linecap="butt" stroke-linejoin="round" stroke-opacity="1.0" stroke-width="3.0" />
            <path d=" M 635.258, 553.966 633.473, 549.586 628.438, 540.946 628.224, 540.578 624.153, 533.906 619.982, 528.630 612.935, 522.386 " fill="none" stroke="rgb(0, 0, 0)" stroke-linecap="butt" stroke-linejoin="round" stroke-opacity="1.0" stroke-width="3.0" />
            <path d=" M 611.959, 784.661 613.668, 783.248 611.075, 778.675 609.079, 777.541 607.833, 776.833 607.448, 776.619 605.769, 775.689 605.240, 775.396 596.941, 770.799 593.819, 770.394 589.967, 770.253 587.131, 770.148 585.752, 769.163 584.879, 768.540 584.596, 768.337 584.478, 768.253 583.615, 767.636 582.960, 765.757 " fill="none" stroke="rgb(0, 0, 0)" stroke-linecap="butt" stroke-linejoin="round" stroke-opacity="1.0" stroke-width="3.0" />
            <path d=" M 913.091, 781.005 911.622, 781.374 910.441, 781.389 909.199, 781.405 908.651, 781.412 906.468, 782.240 902.312, 783.817 901.597, 784.387 904.234, 788.847 912.272, 794.795 914.799, 796.665 920.378, 798.905 922.607, 799.800 923.674, 800.228 " fill="none" stroke="rgb(0, 0, 0)" stroke-linecap="butt" stroke-linejoin="round" stroke-opacity="1.0" stroke-width="3.0" />
            <path d=" M 947.422, 728.852 944.384, 724.885 937.032, 718.107 934.870, 716.114 931.835, 713.326 926.606, 707.777 921.976, 703.509 918.716, 700.505 " fill="none" stroke="rgb(0, 0, 0)" stroke-linecap="butt" stroke-linejoin="round" stroke-opacity="1.0" stroke-width="3.0" />
            <path d=" M 912.852, 693.921 909.445, 689.959 906.138, 685.902 901.714, 681.320 897.428, 676.823 890.483, 670.305 886.271, 666.978 884.226, 665.363 " fill="none" stroke="rgb(0, 0, 0)" stroke-linecap="butt" stroke-linejoin="round" stroke-opacity="1.0" stroke-width="3.0" />
            <path d=" M 799.029, 805.373 798.342, 805.919 798.320, 805.937 798.283, 805.966 797.152, 806.866 796.608, 807.299 796.608, 807.299 796.598, 807.307 796.443, 807.430 796.072, 807.725 795.978, 807.870 795.914, 807.968 794.843, 809.604 795.251, 811.182 795.407, 811.786 795.460, 811.993 795.461, 811.997 795.472, 812.038 795.686, 812.868 795.692, 813.241 795.753, 817.075 796.785, 820.445 797.139, 823.357 797.205, 823.937 797.307, 824.824 797.492, 826.434 797.664, 827.929 798.399, 829.547 799.611, 831.163 802.113, 832.954 804.783, 834.808 810.148, 835.083 810.708, 834.767 " fill="none" stroke="rgb(0, 0, 0)" stroke-linecap="butt" stroke-linejoin="round" stroke-opacity="1.0" stroke-width="3.0" />
            <path d=" M 819.464, 726.229 813.443, 724.536 807.341, 726.561 798.564, 725.733 798.561, 725.733 798.560, 725.732 793.239, 723.125 790.752, 722.264 789.111, 722.725 784.870, 724.018 783.207, 723.983 780.868, 724.993 780.816, 725.015 779.709, 725.494 " fill="none" stroke="rgb(0, 0, 0)" stroke-linecap="butt" stroke-linejoin="round" stroke-opacity="1.0" stroke-width="3.0" />
            <path d=" M 938.010, 842.725 938.779, 844.307 946.064, 849.775 946.450, 850.065 949.193, 852.124 950.193, 852.991 954.054, 856.898 954.323, 857.170 955.073, 857.929 959.019, 861.511 960.139, 862.090 960.357, 862.203 960.625, 862.342 960.656, 862.357 961.376, 862.730 963.384, 863.769 965.195, 864.144 965.462, 864.199 969.424, 865.021 972.055, 866.130 " fill="none" stroke="rgb(0, 0, 0)" stroke-linecap="butt" stroke-linejoin="round" stroke-opacity="1.0" stroke-width="3.0" />
            <path d=" M 368.034, 773.567 365.577, 774.769 364.621, 775.236 363.512, 775.779 361.224, 776.898 358.016, 780.347 356.564, 784.136 355.911, 787.376 355.983, 790.591 357.412, 794.443 360.590, 798.589 365.470, 801.320 369.907, 802.105 369.994, 802.120 " fill="none" stroke="rgb(0, 0, 0)" stroke-linecap="butt" stroke-linejoin="round" stroke-opacity="1.0" stroke-width="3.0" />
            <path d=" M 679.157, 578.889 671.082, 572.989 666.796, 569.858 661.388, 565.482 655.586, 561.110 649.186, 557.996 644.271, 556.441 644.060, 556.374 644.051, 556.371 643.740, 556.273 643.556, 556.215 643.343, 556.147 " fill="none" stroke="rgb(0, 0, 0)" stroke-linecap="butt" stroke-linejoin="round" stroke-opacity="1.0" stroke-width="3.0" />
            <path d=" M 827.253, 620.504 824.060, 616.297 822.050, 614.265 817.413, 610.860 812.649, 607.367 809.364, 605.292 800.504, 600.656 799.767, 600.271 799.664, 600.218 799.566, 600.162 797.082, 598.758 795.400, 598.427 795.318, 598.411 794.326, 597.993 792.050, 597.033 " fill="none" stroke="rgb(0, 0, 0)" stroke-linecap="butt" stroke-linejoin="round" stroke-opacity="1.0" stroke-width="3.0" />
            <path d=" M 631.811, 723.794 632.539, 722.597 630.341, 717.698 630.754, 715.527 638.707, 712.076 647.495, 709.163 649.632, 707.312 649.942, 705.280 648.713, 701.438 641.724, 696.090 " fill="none" stroke="rgb(0, 0, 0)" stroke-linecap="butt" stroke-linejoin="round" stroke-opacity="1.0" stroke-width="3.0" />
            <path d=" M 963.518, 934.275 961.614, 937.735 961.134, 938.607 959.155, 942.203 959.557, 944.170 959.598, 944.372 959.652, 944.636 959.914, 945.920 962.096, 951.844 964.241, 954.891 967.236, 957.008 971.518, 956.591 974.196, 956.802 977.540, 955.711 978.416, 953.782 978.992, 950.614 978.875, 948.112 " fill="none" stroke="rgb(0, 0, 0)" stroke-linecap="butt" stroke-linejoin="round" stroke-opacity="1.0" stroke-width="3.0" />
            <path d=" M 356.384, 717.945 355.713, 719.353 354.870, 721.122 355.041, 723.816 356.136, 726.571 356.382, 727.914 355.903, 728.714 356.654, 734.938 356.657, 739.820 357.530, 744.902 358.745, 749.914 359.947, 752.898 360.324, 756.205 361.985, 761.444 " fill="none" stroke="rgb(0, 0, 0)" stroke-linecap="butt" stroke-linejoin="round" stroke-opacity="1.0" stroke-width="3.0" />
            <path d=" M 761.145, 650.034 758.478, 650.859 758.267, 650.924 758.213, 650.941 758.127, 650.968 756.639, 651.428 756.563, 651.452 755.920, 651.651 755.873, 651.682 751.779, 654.435 749.586, 656.175 748.704, 658.209 749.153, 660.699 750.782, 664.209 752.416, 667.585 751.575, 669.612 751.378, 673.667 752.251, 675.661 754.799, 675.924 759.490, 675.760 762.188, 678.485 " fill="none" stroke="rgb(0, 0, 0)" stroke-linecap="butt" stroke-linejoin="round" stroke-opacity="1.0" stroke-width="3.0" />
            <path d=" M 725.604, 735.944 721.302, 734.516 716.956, 731.754 714.753, 731.786 712.288, 732.725 710.114, 733.584 708.672, 734.590 707.166, 734.524 705.604, 735.104 704.210, 736.407 703.387, 736.510 699.043, 735.966 694.410, 734.207 692.846, 733.268 690.078, 732.278 686.173, 732.547 682.662, 732.891 " fill="none" stroke="rgb(0, 0, 0)" stroke-linecap="butt" stroke-linejoin="round" stroke-opacity="1.0" stroke-width="3.0" />
            <path d=" M 870.058, 861.433 869.073, 862.114 868.401, 862.579 865.075, 864.879 863.350, 866.072 856.276, 868.013 851.715, 869.265 849.670, 872.392 849.119, 873.754 851.660, 878.078 856.779, 879.714 866.484, 882.128 866.764, 882.198 " fill="none" stroke="rgb(0, 0, 0)" stroke-linecap="butt" stroke-linejoin="round" stroke-opacity="1.0" stroke-width="3.0" />
            <path d=" M 547.220, 967.766 549.216, 968.805 555.391, 972.020 563.164, 974.289 573.091, 973.089 574.724, 972.892 577.175, 970.448 577.966, 969.431 578.127, 968.935 579.165, 965.739 579.140, 964.892 578.996, 959.971 581.308, 957.718 " fill="none" stroke="rgb(0, 0, 0)" stroke-linecap="butt" stroke-linejoin="round" stroke-opacity="1.0" stroke-width="3.0" />
            <path d=" M 391.382, 800.459 392.353, 801.584 396.746, 806.676 397.196, 807.218 397.268, 807.305 398.034, 808.229 403.536, 814.864 409.423, 822.147 415.175, 829.817 421.526, 836.794 " fill="none" stroke="rgb(0, 0, 0)" stroke-linecap="butt" stroke-linejoin="round" stroke-opacity="1.0" stroke-width="3.0" />
            <path d=" M 585.316, 971.038 590.216, 972.352 597.032, 972.958 602.387, 973.946 612.254, 975.573 617.993, 976.519 627.969, 977.218 632.409, 977.529 632.531, 977.538 " fill="none" stroke="rgb(0, 0, 0)" stroke-linecap="butt" stroke-linejoin="round" stroke-opacity="1.0" stroke-width="3.0" />
            <path d=" M 509.763, 627.797 509.436, 628.036 509.394, 628.067 504.453, 631.684 502.281, 633.274 493.506, 638.070 492.323, 638.717 482.781, 641.707 481.244, 642.188 474.576, 641.776 474.327, 641.761 473.596, 641.716 469.831, 642.068 469.653, 642.085 469.342, 642.114 468.921, 642.153 468.558, 642.187 468.320, 642.209 468.252, 642.216 466.861, 642.346 466.663, 642.364 465.295, 642.492 " fill="none" stroke="rgb(0, 0, 0)" stroke-linecap="butt" stroke-linejoin="round" stroke-opacity="1.0" stroke-width="3.0" />
            <path d=" M 594.693, 893.916 595.110, 893.972 598.480, 893.959 600.856, 893.264 605.732, 891.649 613.721, 887.033 620.034, 883.822 620.052, 878.599 619.188, 877.301 616.558, 875.525 614.880, 874.867 608.856, 872.502 608.845, 872.497 608.701, 872.441 608.476, 872.352 606.694, 871.653 606.326, 871.508 " fill="none" stroke="rgb(0, 0, 0)" stroke-linecap="butt" stroke-linejoin="round" stroke-opacity="1.0" stroke-width="3.0" />
            <path d=" M 599.821, 610.682 600.182, 609.542 600.347, 609.019 600.858, 607.403 600.792, 605.878 600.646, 602.536 599.260, 598.437 598.497, 594.654 596.588, 590.246 594.778, 588.445 593.558, 587.232 593.121, 587.168 593.019, 587.153 592.915, 587.137 589.862, 586.687 589.553, 586.291 585.379, 580.949 582.793, 576.544 582.781, 576.523 581.254, 573.923 581.167, 573.774 581.115, 573.686 579.196, 570.417 " fill="none" stroke="rgb(0, 0, 0)" stroke-linecap="butt" stroke-linejoin="round" stroke-opacity="1.0" stroke-width="3.0" />
            <path d=" M 986.227, 839.992 979.730, 836.853 976.653, 835.677 976.556, 835.640 970.052, 833.154 962.066, 831.513 952.482, 829.247 948.855, 829.344 948.706, 829.348 946.307, 829.412 944.094, 830.584 942.349, 832.840 941.165, 834.371 " fill="none" stroke="rgb(0, 0, 0)" stroke-linecap="butt" stroke-linejoin="round" stroke-opacity="1.0" stroke-width="3.0" />
            <path d=" M 805.751, 799.381 803.189, 799.140 803.142, 799.136 802.430, 799.069 799.116, 798.757 798.904, 798.737 796.015, 798.630 791.146, 799.691 789.159, 800.710 788.328, 802.551 788.323, 802.562 787.384, 804.643 787.243, 806.719 787.088, 809.014 787.020, 810.011 787.014, 810.102 786.624, 814.349 786.612, 815.574 786.603, 816.530 788.948, 822.420 791.815, 824.637 796.845, 826.027 797.492, 826.434 " fill="none" stroke="rgb(0, 0, 0)" stroke-linecap="butt" stroke-linejoin="round" stroke-opacity="1.0" stroke-width="3.0" />
            <path d=" M 562.801, 450.193 554.999, 445.917 548.921, 444.223 544.743, 443.205 536.317, 443.099 531.140, 443.894 528.180, 444.937 523.207, 446.707 519.989, 448.357 516.856, 450.781 " fill="none" stroke="rgb(0, 0, 0)" stroke-linecap="butt" stroke-linejoin="round" stroke-opacity="1.0" stroke-width="3.0" />
            <path d=" M 423.556, 792.769 423.978, 797.378 424.889, 807.337 425.091, 809.548 426.178, 818.429 426.940, 821.623 427.913, 825.703 428.315, 827.389 429.254, 831.354 429.277, 831.449 430.743, 837.641 432.491, 841.881 " fill="none" stroke="rgb(0, 0, 0)" stroke-linecap="butt" stroke-linejoin="round" stroke-opacity="1.0" stroke-width="3.0" />
            <path d=" M 606.149, 747.725 611.751, 749.893 620.786, 748.954 620.842, 748.948 629.826, 748.358 633.763, 748.328 639.407, 746.690 640.215, 743.936 639.511, 742.547 636.537, 739.891 633.009, 737.316 629.805, 735.896 " fill="none" stroke="rgb(0, 0, 0)" stroke-linecap="butt" stroke-linejoin="round" stroke-opacity="1.0" stroke-width="3.0" />
            <path d=" M 690.609, 803.157 700.406, 801.152 701.083, 801.013 706.956, 799.811 709.913, 799.824 719.284, 799.185 729.224, 800.279 731.435, 800.523 735.444, 800.525 743.080, 801.257 " fill="none" stroke="rgb(0, 0, 0)" stroke-linecap="butt" stroke-linejoin="round" stroke-opacity="1.0" stroke-width="3.0" />
            <path d=" M 451.639, 493.404 442.434, 497.312 440.494, 498.136 438.037, 499.427 432.160, 502.905 426.933, 505.942 426.603, 506.134 419.323, 511.309 411.734, 517.821 410.400, 518.965 407.816, 522.806 " fill="none" stroke="rgb(0, 0, 0)" stroke-linecap="butt" stroke-linejoin="round" stroke-opacity="1.0" stroke-width="3.0" />
            <path d=" M 371.319, 767.639 371.500, 769.636 371.527, 769.933 371.554, 770.043 371.798, 771.049 371.810, 771.100 372.843, 775.358 372.851, 775.392 373.616, 778.546 372.986, 775.449 372.978, 775.411 372.271, 771.934 372.046, 770.916 371.975, 770.595 371.709, 769.399 371.707, 769.388 371.319, 767.639 370.286, 762.979 369.701, 752.996 369.582, 750.962 369.892, 742.209 370.015, 737.248 370.135, 735.437 370.198, 734.484 370.213, 734.250 370.248, 733.722 370.269, 733.414 " fill="none" stroke="rgb(0, 0, 0)" stroke-linecap="butt" stroke-linejoin="round" stroke-opacity="1.0" stroke-width="3.0" />
            <path d=" M 480.822, 488.867 476.707, 487.913 468.653, 488.265 460.076, 490.251 454.625, 491.859 448.940, 493.642 441.533, 497.348 437.113, 499.279 433.474, 501.819 428.069, 504.892 426.933, 505.942 " fill="none" stroke="rgb(0, 0, 0)" stroke-linecap="butt" stroke-linejoin="round" stroke-opacity="1.0" stroke-width="3.0" />
            <path d=" M 375.236, 667.451 374.417, 670.848 373.462, 677.748 372.739, 682.358 372.749, 685.996 373.110, 691.104 373.438, 695.709 373.438, 695.722 373.620, 698.281 373.696, 699.346 373.781, 700.536 374.598, 703.026 377.024, 708.337 379.196, 711.673 381.124, 715.718 381.902, 717.432 382.486, 718.717 384.351, 722.824 " fill="none" stroke="rgb(0, 0, 0)" stroke-linecap="butt" stroke-linejoin="round" stroke-opacity="1.0" stroke-width="3.0" />
            <path d=" M 725.378, 754.648 725.193, 754.651 724.948, 754.656 723.429, 754.682 720.527, 754.734 715.656, 754.721 707.888, 754.662 699.250, 754.179 690.662, 752.648 685.377, 751.513 678.686, 750.970 676.564, 750.596 676.385, 750.565 676.206, 750.533 671.496, 749.705 671.462, 749.699 669.552, 749.364 668.965, 749.260 667.711, 749.040 " fill="none" stroke="rgb(0, 0, 0)" stroke-linecap="butt" stroke-linejoin="round" stroke-opacity="1.0" stroke-width="3.0" />
            <path d=" M 895.868, 750.004 892.128, 751.351 892.033, 751.385 890.789, 751.833 890.439, 751.959 890.251, 752.026 890.242, 752.030 889.682, 752.231 885.638, 752.896 882.597, 753.397 879.125, 754.920 878.831, 756.048 879.301, 761.334 879.492, 762.589 885.155, 765.629 892.332, 769.276 895.739, 771.371 900.044, 773.126 905.097, 774.719 906.109, 775.068 908.731, 775.971 909.294, 776.165 " fill="none" stroke="rgb(0, 0, 0)" stroke-linecap="butt" stroke-linejoin="round" stroke-opacity="1.0" stroke-width="3.0" />
            <path d=" M 483.577, 506.027 482.705, 508.492 482.395, 508.765 482.364, 508.793 478.998, 511.758 477.724, 514.339 478.753, 518.805 479.621, 520.270 481.070, 521.316 482.564, 522.379 483.375, 522.386 483.787, 522.390 485.120, 522.402 490.678, 521.914 495.380, 521.973 497.391, 521.998 498.629, 522.067 498.706, 522.071 498.762, 522.074 501.926, 522.248 502.284, 522.340 503.669, 522.696 503.674, 522.697 507.163, 523.595 516.239, 526.954 519.499, 528.553 " fill="none" stroke="rgb(0, 0, 0)" stroke-linecap="butt" stroke-linejoin="round" stroke-opacity="1.0" stroke-width="3.0" />
            <path d=" M 1014.985, 895.898 1015.241, 895.614 1016.769, 891.415 1015.997, 888.981 1015.485, 885.700 1014.687, 880.724 1013.661, 873.362 1011.997, 864.987 1011.234, 859.079 1009.197, 851.792 1009.038, 851.225 1008.886, 850.681 1008.696, 849.712 1008.298, 847.687 1008.150, 846.931 1006.564, 838.858 " fill="none" stroke="rgb(0, 0, 0)" stroke-linecap="butt" stroke-linejoin="round" stroke-opacity="1.0" stroke-width="3.0" />
            <path d=" M 780.868, 724.993 780.650, 724.918 778.760, 724.315 772.823, 724.229 769.007, 725.134 761.650, 725.807 755.493, 726.263 750.134, 727.895 750.115, 727.900 750.096, 727.901 742.099, 728.356 738.539, 729.848 737.493, 732.569 736.285, 733.594 730.773, 735.291 728.397, 735.874 725.604, 735.944 725.524, 735.946 " fill="none" stroke="rgb(0, 0, 0)" stroke-linecap="butt" stroke-linejoin="round" stroke-opacity="1.0" stroke-width="3.0" />
            <path d=" M 730.080, 602.025 722.209, 597.978 717.947, 595.779 709.014, 591.283 706.448, 589.992 697.055, 586.561 693.960, 585.430 684.531, 582.099 676.587, 579.293 675.971, 579.075 675.558, 578.929 " fill="none" stroke="rgb(0, 0, 0)" stroke-linecap="butt" stroke-linejoin="round" stroke-opacity="1.0" stroke-width="3.0" />
            <path d=" M 912.867, 877.372 910.552, 880.797 909.803, 881.218 909.756, 881.244 906.412, 883.122 900.585, 887.106 900.536, 887.182 899.367, 888.958 897.712, 890.686 897.937, 893.436 899.910, 895.033 900.354, 895.393 906.967, 896.238 912.065, 896.475 919.544, 893.647 924.384, 894.326 927.301, 894.091 933.685, 896.272 " fill="none" stroke="rgb(0, 0, 0)" stroke-linecap="butt" stroke-linejoin="round" stroke-opacity="1.0" stroke-width="3.0" />
            <path d=" M 687.340, 783.545 679.598, 786.037 672.337, 788.743 670.852, 789.201 665.562, 790.996 656.437, 793.907 650.485, 795.379 643.585, 797.193 636.469, 798.668 634.061, 798.893 633.067, 798.986 627.024, 800.409 " fill="none" stroke="rgb(0, 0, 0)" stroke-linecap="butt" stroke-linejoin="round" stroke-opacity="1.0" stroke-width="3.0" />
            <path d=" M 590.682, 910.773 595.649, 909.780 600.395, 909.487 605.994, 907.437 605.958, 899.937 603.784, 897.625 595.039, 894.102 594.693, 893.916 588.716, 890.704 587.681, 890.148 587.378, 889.985 586.641, 889.590 586.497, 889.512 586.215, 889.361 585.834, 889.156 584.400, 888.385 584.048, 888.250 575.639, 885.020 570.485, 883.041 " fill="none" stroke="rgb(0, 0, 0)" stroke-linecap="butt" stroke-linejoin="round" stroke-opacity="1.0" stroke-width="3.0" />
            <path d=" M 923.988, 820.686 922.841, 819.489 914.829, 813.505 912.378, 811.674 909.083, 808.992 901.303, 802.710 899.341, 801.126 897.456, 799.567 890.981, 795.456 883.280, 790.162 877.504, 785.819 871.740, 782.260 871.085, 781.856 " fill="none" stroke="rgb(0, 0, 0)" stroke-linecap="butt" stroke-linejoin="round" stroke-opacity="1.0" stroke-width="3.0" />
            <path d=" M 797.044, 793.956 796.102, 791.371 795.674, 790.476 794.306, 787.616 789.957, 785.205 782.821, 782.950 775.109, 782.295 769.257, 783.056 769.185, 783.066 768.566, 783.403 768.489, 783.446 766.055, 784.875 765.879, 784.978 764.621, 785.716 762.448, 788.322 762.988, 791.796 763.037, 792.113 763.108, 792.570 763.118, 792.629 763.157, 797.856 764.940, 802.862 766.547, 804.961 767.477, 806.177 773.054, 808.047 773.650, 808.246 " fill="none" stroke="rgb(0, 0, 0)" stroke-linecap="butt" stroke-linejoin="round" stroke-opacity="1.0" stroke-width="3.0" />
            <path d=" M 813.690, 669.199 811.761, 667.849 811.428, 667.615 805.544, 663.484 803.688, 662.817 802.296, 662.317 795.137, 659.748 792.922, 658.954 789.586, 658.815 786.904, 658.703 782.863, 659.451 778.543, 663.200 778.206, 663.492 777.232, 665.870 776.152, 668.508 775.671, 670.490 775.663, 670.522 775.624, 670.682 775.612, 670.731 775.563, 670.933 775.490, 671.235 774.850, 673.873 775.455, 678.170 775.821, 679.347 778.306, 682.334 779.487, 683.651 784.869, 686.446 " fill="none" stroke="rgb(0, 0, 0)" stroke-linecap="butt" stroke-linejoin="round" stroke-opacity="1.0" stroke-width="3.0" />
            <path d=" M 839.270, 685.484 837.957, 684.281 834.218, 680.859 832.191, 679.003 831.950, 678.921 828.123, 677.626 827.595, 677.030 827.294, 676.692 827.182, 676.565 826.632, 675.945 825.657, 674.846 820.507, 672.950 817.412, 671.810 810.111, 673.184 807.574, 675.412 805.099, 678.256 803.362, 684.192 803.210, 684.924 803.189, 685.027 802.971, 686.075 802.948, 686.185 802.160, 689.988 802.206, 691.703 802.238, 692.873 802.541, 696.481 803.704, 699.293 805.430, 700.864 809.899, 702.704 " fill="none" stroke="rgb(0, 0, 0)" stroke-linecap="butt" stroke-linejoin="round" stroke-opacity="1.0" stroke-width="3.0" />
            <path d=" M 895.491, 869.103 894.550, 869.703 893.455, 870.401 889.318, 873.039 884.621, 876.208 883.034, 878.291 877.108, 882.637 874.476, 884.064 868.288, 887.417 868.571, 891.303 869.909, 894.228 870.331, 894.955 872.614, 896.547 882.596, 897.151 888.755, 897.524 896.563, 896.574 899.910, 895.033 " fill="none" stroke="rgb(0, 0, 0)" stroke-linecap="butt" stroke-linejoin="round" stroke-opacity="1.0" stroke-width="3.0" />
            <path d=" M 606.431, 541.157 607.421, 539.258 608.042, 538.065 609.313, 535.627 609.883, 532.474 610.094, 531.304 610.413, 529.537 610.484, 529.144 610.503, 529.042 610.568, 528.682 611.365, 526.561 611.413, 526.434 611.415, 526.427 611.449, 526.338 611.463, 526.299 611.473, 526.273 612.484, 523.585 612.540, 523.435 612.811, 522.716 612.935, 522.386 613.011, 522.183 612.764, 515.111 610.737, 510.091 609.016, 504.526 606.075, 496.837 603.925, 493.208 601.635, 490.394 594.187, 483.721 593.964, 483.522 593.571, 483.214 586.585, 478.904 " fill="none" stroke="rgb(0, 0, 0)" stroke-linecap="butt" stroke-linejoin="round" stroke-opacity="1.0" stroke-width="3.0" />
            <path d=" M 526.797, 962.530 531.748, 963.431 539.683, 966.689 544.184, 969.317 546.707, 969.790 553.659, 973.941 556.733, 975.007 561.110, 976.448 571.109, 976.560 573.360, 976.585 583.149, 974.542 584.842, 974.188 585.316, 971.038 585.385, 970.578 584.401, 968.175 579.140, 964.892 " fill="none" stroke="rgb(0, 0, 0)" stroke-linecap="butt" stroke-linejoin="round" stroke-opacity="1.0" stroke-width="3.0" />
            <path d=" M 632.409, 977.529 639.049, 978.295 644.989, 976.758 646.091, 972.641 645.141, 969.368 643.909, 967.964 639.572, 964.719 633.518, 962.128 624.386, 958.054 615.121, 953.920 606.358, 949.103 600.408, 945.832 597.968, 944.490 " fill="none" stroke="rgb(0, 0, 0)" stroke-linecap="butt" stroke-linejoin="round" stroke-opacity="1.0" stroke-width="3.0" />
            <path d=" M 605.240, 775.396 607.244, 774.998 610.046, 774.440 616.615, 773.134 621.503, 772.163 621.747, 772.114 621.861, 772.091 623.186, 771.833 626.460, 771.193 631.163, 768.583 630.847, 767.019 630.846, 767.013 630.651, 766.052 630.078, 763.217 628.780, 760.821 626.709, 759.741 626.642, 759.706 618.031, 755.217 617.978, 755.189 610.852, 750.371 606.149, 747.725 605.961, 747.619 598.948, 744.888 597.536, 744.885 594.298, 744.879 593.559, 744.878 593.242, 744.877 592.974, 744.727 592.798, 744.629 591.695, 744.011 591.667, 743.995 " fill="none" stroke="rgb(0, 0, 0)" stroke-linecap="butt" stroke-linejoin="round" stroke-opacity="1.0" stroke-width="3.0" />
            <path d=" M 424.669, 845.337 425.025, 847.704 426.361, 856.573 426.708, 858.906 428.058, 868.815 428.091, 869.058 428.966, 876.028 430.589, 879.991 431.432, 887.448 433.682, 894.651 436.180, 904.334 437.008, 907.542 438.824, 914.780 442.045, 918.941 445.634, 920.775 448.769, 922.376 " fill="none" stroke="rgb(0, 0, 0)" stroke-linecap="butt" stroke-linejoin="round" stroke-opacity="1.0" stroke-width="3.0" />
            <path d=" M 689.743, 584.763 680.491, 580.968 676.763, 579.439 676.055, 579.148 675.933, 579.098 675.558, 578.929 670.927, 576.840 667.147, 575.134 663.339, 573.416 656.968, 570.517 647.750, 566.642 645.724, 565.790 644.719, 565.368 644.701, 565.361 643.556, 564.879 638.148, 562.406 638.102, 562.385 629.008, 558.226 628.839, 558.148 619.826, 554.271 618.437, 553.503 618.410, 553.487 614.894, 551.543 611.958, 549.548 611.517, 549.248 610.634, 548.648 604.129, 544.227 " fill="none" stroke="rgb(0, 0, 0)" stroke-linecap="butt" stroke-linejoin="round" stroke-opacity="1.0" stroke-width="3.0" />
            <path d=" M 570.063, 885.287 570.019, 883.206 570.015, 883.011 570.010, 882.795 570.001, 882.362 569.979, 881.285 569.941, 879.500 572.141, 879.050 576.337, 878.192 576.465, 878.165 578.908, 878.092 578.919, 878.092 582.642, 877.980 586.265, 877.872 588.627, 877.001 591.542, 875.926 592.723, 875.491 593.741, 875.116 593.795, 875.096 594.333, 874.898 594.420, 874.866 594.747, 874.745 594.987, 874.657 595.299, 874.542 596.639, 873.086 597.077, 871.884 597.268, 871.360 597.338, 871.168 597.447, 870.867 597.095, 865.362 597.463, 864.916 599.650, 862.271 600.122, 862.095 600.955, 861.784 602.108, 861.355 602.253, 861.301 602.360, 861.261 602.167, 859.833 602.141, 859.640 601.839, 857.408 601.562, 856.471 601.434, 856.040 597.143, 854.069 590.517, 853.175 590.400, 853.160 589.613, 853.053 589.281, 853.009 589.165, 852.993 581.586, 851.971 581.174, 851.928 578.310, 851.629 577.943, 851.681 575.395, 852.038 570.705, 852.697 569.840, 852.818 565.837, 854.121 565.835, 854.122 561.571, 855.509 561.070, 855.672 560.115, 855.983 " fill="none" stroke="rgb(0, 0, 0)" stroke-linecap="butt" stroke-linejoin="round" stroke-opacity="1.0" stroke-width="3.0" />
            <path d=" M 525.812, 543.553 526.056, 545.160 526.533, 548.313 527.851, 552.322 528.739, 557.073 530.381, 564.355 530.903, 569.389 531.268, 579.383 531.387, 582.616 530.271, 589.196 528.104, 596.274 526.784, 600.609 524.483, 606.581 523.025, 610.214 522.362, 611.866 521.493, 613.029 515.862, 620.562 512.337, 624.180 505.094, 631.074 504.453, 631.684 " fill="none" stroke="rgb(0, 0, 0)" stroke-linecap="butt" stroke-linejoin="round" stroke-opacity="1.0" stroke-width="3.0" />
            <path d=" M 445.634, 920.775 447.650, 922.785 451.024, 925.843 455.347, 928.635 459.585, 930.870 468.275, 935.817 472.669, 938.318 477.600, 941.719 485.828, 947.401 486.992, 948.205 496.038, 952.467 498.464, 953.610 500.581, 955.073 506.020, 957.923 511.458, 960.026 521.248, 962.330 526.797, 962.530 532.632, 962.741 " fill="none" stroke="rgb(0, 0, 0)" stroke-linecap="butt" stroke-linejoin="round" stroke-opacity="1.0" stroke-width="3.0" />
            <path d=" M 557.159, 930.334 557.718, 930.548 562.113, 932.234 562.878, 932.527 567.170, 934.172 567.265, 934.208 567.281, 934.215 567.592, 934.334 569.178, 934.942 577.211, 938.373 578.352, 938.861 579.726, 939.117 583.427, 939.806 586.663, 937.647 587.234, 937.266 588.290, 929.068 588.752, 925.405 589.069, 922.886 589.154, 918.906 589.585, 916.604 590.652, 910.911 590.682, 910.773 591.588, 906.687 590.724, 901.080 589.954, 897.770 589.618, 897.243 586.354, 894.388 586.059, 894.129 585.319, 893.482 585.247, 893.419 585.191, 893.370 585.137, 893.322 584.807, 893.245 584.010, 893.060 581.590, 892.496 577.969, 891.653 575.907, 890.943 575.401, 890.768 575.070, 890.654 575.058, 890.650 574.278, 890.381 571.656, 889.479 571.424, 889.399 571.146, 889.303 569.812, 888.844 569.090, 888.595 568.641, 888.440 567.110, 887.913 566.951, 887.858 566.508, 887.706 566.500, 887.703 566.188, 887.596 " fill="none" stroke="rgb(0, 0, 0)" stroke-linecap="butt" stroke-linejoin="round" stroke-opacity="1.0" stroke-width="3.0" />
            <path d=" M 794.029, 606.585 790.793, 604.846 786.450, 602.514 786.374, 602.473 784.863, 601.470 782.906, 600.170 782.320, 599.780 781.874, 599.485 776.174, 596.072 776.052, 595.965 775.878, 595.813 774.480, 594.593 767.741, 588.708 760.097, 582.259 760.014, 582.189 756.761, 578.807 751.963, 574.286 746.510, 568.020 743.135, 563.617 738.627, 558.687 736.546, 555.001 730.633, 547.781 729.973, 547.050 727.330, 545.278 720.054, 540.631 " fill="none" stroke="rgb(0, 0, 0)" stroke-linecap="butt" stroke-linejoin="round" stroke-opacity="1.0" stroke-width="3.0" />
            <path d=" M 461.373, 832.799 463.430, 832.956 467.379, 834.726 470.003, 835.901 475.581, 839.018 475.913, 839.166 476.861, 839.589 478.338, 840.247 480.186, 841.071 480.393, 841.164 480.543, 841.231 481.535, 841.673 483.195, 842.413 483.273, 842.448 484.237, 842.878 484.756, 843.167 488.612, 845.312 490.571, 846.403 490.630, 846.437 490.690, 846.471 490.844, 846.560 492.458, 847.487 492.487, 847.504 492.628, 847.585 493.293, 847.967 499.307, 851.425 500.466, 852.091 500.482, 852.100 500.855, 852.314 500.983, 852.461 502.987, 854.750 503.600, 855.451 503.611, 855.463 505.370, 857.472 505.380, 857.483 505.678, 857.824 506.006, 858.199 506.023, 858.218 506.078, 858.281 506.163, 858.379 506.268, 858.499 506.281, 858.513 506.339, 858.579 506.704, 858.996 511.032, 866.949 511.999, 870.683 512.525, 872.714 512.780, 873.700 513.861, 876.555 514.069, 877.104 514.640, 878.612 514.990, 879.535 515.283, 880.308 516.250, 882.861 516.335, 883.103 517.334, 885.934 518.410, 888.985 518.543, 889.362 518.745, 889.935 518.777, 890.026 519.396, 891.782 519.687, 892.607 519.870, 893.397 520.664, 896.826 522.891, 906.448 523.832, 910.514 523.951, 911.025 524.904, 914.240 524.942, 914.369 " fill="none" stroke="rgb(0, 0, 0)" stroke-linecap="butt" stroke-linejoin="round" stroke-opacity="1.0" stroke-width="3.0" />
            <path d=" M 407.296, 550.189 406.141, 549.854 403.924, 549.210 400.085, 550.183 399.005, 550.877 398.517, 551.191 398.092, 551.465 398.011, 551.517 391.077, 556.688 386.338, 560.579 384.310, 562.197 384.232, 562.259 383.494, 562.848 383.335, 563.040 381.784, 564.914 381.757, 564.946 381.145, 565.685 380.953, 565.918 380.883, 566.003 380.821, 566.078 380.800, 566.103 380.419, 566.564 380.389, 566.600 380.347, 566.651 379.416, 567.775 379.342, 567.865 379.284, 567.935 379.160, 568.085 378.990, 568.290 378.445, 568.949 378.215, 569.227 377.967, 569.526 377.806, 569.721 377.784, 569.749 377.603, 569.987 377.504, 570.117 377.363, 570.303 377.110, 570.636 376.846, 570.982 376.411, 571.554 375.752, 572.420 375.636, 572.573 375.141, 573.222 374.504, 574.059 373.710, 575.708 373.701, 575.726 373.674, 575.782 373.315, 576.528 373.074, 577.027 372.263, 578.927 371.182, 581.459 369.871, 587.922 369.904, 589.180 369.921, 589.788 369.940, 590.538 369.947, 590.798 369.978, 591.943 370.005, 592.965 370.026, 593.755 370.163, 598.882 370.167, 598.924 370.168, 598.940 370.790, 605.992 372.685, 615.037 375.169, 622.159 376.940, 627.797 377.018, 627.996 378.383, 631.484 380.486, 636.856 380.919, 641.042 380.929, 641.135 380.940, 641.239 380.972, 641.555 381.120, 642.983 " fill="none" stroke="rgb(0, 0, 0)" stroke-linecap="butt" stroke-linejoin="round" stroke-opacity="1.0" stroke-width="3.0" />
            <path d=" M 591.685, 547.535 593.953, 549.635 594.939, 550.547 596.422, 552.103 599.434, 554.969 602.153, 557.893 606.427, 562.160 610.094, 565.172 615.363, 569.139 619.347, 571.011 622.207, 572.283 630.973, 577.094 632.396, 577.875 635.893, 579.953 639.270, 581.960 639.280, 581.966 640.956, 582.962 643.388, 584.382 646.472, 586.075 649.083, 587.508 651.123, 588.704 653.699, 590.471 659.788, 594.252 663.898, 596.549 668.494, 599.058 671.787, 601.109 674.791, 602.952 679.141, 605.539 683.327, 607.968 687.783, 610.267 690.577, 612.887 694.679, 615.225 " fill="none" stroke="rgb(0, 0, 0)" stroke-linecap="butt" stroke-linejoin="round" stroke-opacity="1.0" stroke-width="3.0" />
            <path d=" M 700.292, 543.344 699.745, 542.961 693.170, 538.359 687.826, 534.618 685.873, 532.896 681.363, 528.921 676.987, 523.012 670.980, 516.672 664.696, 509.717 661.505, 506.635 655.436, 502.557 645.513, 503.797 645.208, 503.836 644.075, 504.558 640.404, 507.909 637.925, 509.967 636.199, 511.470 634.179, 516.491 634.139, 522.457 634.450, 529.745 635.706, 539.666 636.383, 545.013 637.308, 554.361 " fill="none" stroke="rgb(0, 0, 0)" stroke-linecap="butt" stroke-linejoin="round" stroke-opacity="1.0" stroke-width="3.0" />
            <path d=" M 940.536, 905.798 938.530, 909.236 936.970, 911.910 933.322, 915.767 932.723, 917.041 927.313, 925.451 927.196, 925.632 922.530, 930.839 918.406, 935.968 910.503, 942.094 908.735, 943.464 899.980, 948.297 899.700, 948.452 894.008, 950.322 891.721, 952.033 888.163, 954.434 887.114, 956.661 887.816, 958.440 891.899, 960.478 897.349, 961.629 907.347, 961.815 910.813, 961.879 920.715, 960.483 923.801, 960.048 932.260, 957.928 938.884, 955.699 942.699, 954.416 " fill="none" stroke="rgb(0, 0, 0)" stroke-linecap="butt" stroke-linejoin="round" stroke-opacity="1.0" stroke-width="3.0" />
            <path d=" M 567.686, 828.754 568.863, 828.646 569.212, 828.614 574.474, 828.131 574.502, 828.129 576.045, 827.987 576.237, 827.970 577.831, 827.823 578.076, 827.762 578.222, 827.725 578.431, 827.672 578.872, 827.561 579.034, 827.520 579.117, 827.499 580.586, 827.129 580.654, 827.112 583.787, 826.322 586.396, 825.663 589.831, 825.267 593.949, 824.793 593.994, 824.788 594.023, 824.784 596.875, 824.456 599.056, 824.204 603.281, 823.717 603.775, 823.660 612.060, 822.236 615.425, 821.658 619.416, 821.770 621.707, 821.834 631.657, 820.841 631.901, 820.816 633.339, 820.540 643.158, 818.649 643.331, 818.616 650.494, 817.488 652.120, 817.661 654.907, 817.957 663.100, 816.104 668.247, 814.679 671.586, 812.474 671.566, 811.913 671.359, 811.573 669.457, 808.448 661.943, 807.058 653.031, 805.614 643.163, 803.993 641.386, 803.701 631.639, 801.467 631.480, 801.430 630.892, 801.296 627.024, 800.409 619.615, 798.711 610.081, 797.392 607.189, 796.992 597.407, 794.917 593.492, 794.087 592.570, 793.891 " fill="none" stroke="rgb(0, 0, 0)" stroke-linecap="butt" stroke-linejoin="round" stroke-opacity="1.0" stroke-width="3.0" />
        </g>
    </g>
</svg>
