<?xml version='1.0' encoding='ascii'?>
<svg xmlns="http://www.w3.org/2000/svg" height="1280" version="1.1" width="1280">
    <g id="RenderLayer_LineSet" inkscape:groupmode="lineset" inkscape:label="RenderLayer_LineSet" xmlns:inkscape="http://www.inkscape.org/namespaces/inkscape">
        <g id="strokes" inkscape:groupmode="layer" inkscape:label="strokes" xmlns:inkscape="http://www.inkscape.org/namespaces/inkscape">
            <path d=" M 729.494, 676.556 729.698, 676.611 736.945, 678.574 742.829, 680.168 745.253, 680.672 746.088, 680.846 748.306, 681.308 748.978, 681.448 748.989, 681.450 " fill="none" stroke="rgb(0, 0, 0)" stroke-linecap="butt" stroke-linejoin="round" stroke-opacity="1.0" stroke-width="3.0" />
            <path d=" M 384.135, 623.076 383.354, 624.883 380.052, 633.373 376.903, 640.932 376.517, 641.860 " fill="none" stroke="rgb(0, 0, 0)" stroke-linecap="butt" stroke-linejoin="round" stroke-opacity="1.0" stroke-width="3.0" />
            <path d=" M 766.489, 853.856 776.389, 855.271 777.174, 855.383 782.323, 857.003 786.368, 858.135 " fill="none" stroke="rgb(0, 0, 0)" stroke-linecap="butt" stroke-linejoin="round" stroke-opacity="1.0" stroke-width="3.0" />
            <path d=" M 817.522, 663.261 814.820, 666.318 813.067, 668.301 812.930, 668.456 812.585, 668.847 812.065, 670.459 812.039, 670.539 811.874, 671.052 811.869, 671.065 811.554, 672.043 811.317, 672.779 809.675, 675.949 809.550, 676.192 809.523, 678.326 809.966, 678.856 810.274, 679.223 811.368, 680.530 " fill="none" stroke="rgb(0, 0, 0)" stroke-linecap="butt" stroke-linejoin="round" stroke-opacity="1.0" stroke-width="3.0" />
            <path d=" M 665.829, 826.743 657.337, 829.616 647.542, 831.954 646.110, 832.296 " fill="none" stroke="rgb(0, 0, 0)" stroke-linecap="butt" stroke-linejoin="round" stroke-opacity="1.0" stroke-width="3.0" />
            <path d=" M 381.718, 636.306 381.038, 637.319 380.956, 637.441 377.900, 641.989 376.159, 644.917 379.080, 639.872 380.990, 637.291 381.071, 637.182 381.718, 636.306 " fill="none" stroke="rgb(0, 0, 0)" stroke-linecap="butt" stroke-linejoin="round" stroke-opacity="1.0" stroke-width="3.0" />
            <path d=" M 976.748, 708.022 978.346, 706.761 979.492, 705.857 981.341, 705.307 982.135, 705.070 983.769, 704.584 985.133, 704.178 986.016, 700.953 986.026, 699.577 986.044, 697.101 985.885, 701.174 " fill="none" stroke="rgb(0, 0, 0)" stroke-linecap="butt" stroke-linejoin="round" stroke-opacity="1.0" stroke-width="3.0" />
            <path d=" M 550.558, 836.226 550.547, 836.183 548.662, 828.427 547.593, 824.105 547.559, 823.968 547.099, 822.109 547.087, 822.062 546.919, 820.883 546.829, 820.251 546.778, 819.889 546.575, 818.465 546.360, 816.957 546.161, 816.060 " fill="none" stroke="rgb(0, 0, 0)" stroke-linecap="butt" stroke-linejoin="round" stroke-opacity="1.0" stroke-width="3.0" />
            <path d=" M 590.117, 512.726 590.230, 512.692 590.553, 512.594 590.643, 512.567 590.686, 512.554 592.133, 512.117 592.353, 512.050 592.470, 512.014 592.742, 511.932 592.745, 511.931 593.137, 511.813 598.097, 510.313 598.155, 510.267 599.163, 509.472 600.618, 508.323 602.555, 506.794 605.807, 504.092 608.277, 503.282 " fill="none" stroke="rgb(0, 0, 0)" stroke-linecap="butt" stroke-linejoin="round" stroke-opacity="1.0" stroke-width="3.0" />
            <path d=" M 462.128, 834.830 460.314, 836.897 458.327, 840.261 457.046, 842.091 456.316, 843.132 455.187, 844.314 452.272, 847.128 450.861, 848.236 448.997, 849.641 448.806, 849.785 448.709, 849.858 448.647, 849.905 448.639, 849.911 448.410, 850.083 448.247, 850.206 " fill="none" stroke="rgb(0, 0, 0)" stroke-linecap="butt" stroke-linejoin="round" stroke-opacity="1.0" stroke-width="3.0" />
            <path d=" M 790.178, 792.453 787.497, 790.094 784.083, 788.819 781.606, 788.187 778.210, 791.474 778.252, 793.694 778.337, 798.213 " fill="none" stroke="rgb(0, 0, 0)" stroke-linecap="butt" stroke-linejoin="round" stroke-opacity="1.0" stroke-width="3.0" />
            <path d=" M 815.016, 742.357 816.771, 743.980 819.694, 746.682 823.650, 747.052 828.497, 745.717 833.223, 743.777 834.167, 743.079 " fill="none" stroke="rgb(0, 0, 0)" stroke-linecap="butt" stroke-linejoin="round" stroke-opacity="1.0" stroke-width="3.0" />
            <path d=" M 1012.936, 715.153 1016.225, 707.772 1016.236, 707.744 1016.801, 706.302 1017.663, 704.101 1018.312, 700.916 1018.316, 700.286 1018.044, 699.279 1018.041, 699.268 1017.348, 696.696 1016.263, 694.970 " fill="none" stroke="rgb(0, 0, 0)" stroke-linecap="butt" stroke-linejoin="round" stroke-opacity="1.0" stroke-width="3.0" />
            <path d=" M 966.140, 688.271 965.784, 688.826 965.779, 688.833 962.371, 694.149 958.503, 699.277 956.883, 705.874 955.771, 707.172 " fill="none" stroke="rgb(0, 0, 0)" stroke-linecap="butt" stroke-linejoin="round" stroke-opacity="1.0" stroke-width="3.0" />
            <path d=" M 700.103, 644.668 700.402, 645.005 705.226, 651.485 706.221, 653.814 710.169, 659.829 712.241, 662.983 " fill="none" stroke="rgb(0, 0, 0)" stroke-linecap="butt" stroke-linejoin="round" stroke-opacity="1.0" stroke-width="3.0" />
            <path d=" M 715.242, 674.531 718.130, 674.851 724.072, 675.877 724.789, 676.027 729.107, 676.932 736.945, 678.574 " fill="none" stroke="rgb(0, 0, 0)" stroke-linecap="butt" stroke-linejoin="round" stroke-opacity="1.0" stroke-width="3.0" />
            <path d=" M 368.033, 698.554 367.646, 699.037 366.388, 700.607 366.087, 700.982 366.023, 701.061 363.992, 703.594 363.992, 703.595 363.935, 703.666 363.929, 703.673 363.915, 703.691 362.701, 705.205 362.440, 705.530 362.438, 705.533 362.241, 705.779 358.760, 710.610 358.602, 711.068 356.598, 717.325 " fill="none" stroke="rgb(0, 0, 0)" stroke-linecap="butt" stroke-linejoin="round" stroke-opacity="1.0" stroke-width="3.0" />
            <path d=" M 553.977, 885.156 554.470, 884.325 556.668, 880.622 563.336, 873.170 563.921, 872.515 564.683, 871.094 566.041, 868.558 566.625, 867.021 " fill="none" stroke="rgb(0, 0, 0)" stroke-linecap="butt" stroke-linejoin="round" stroke-opacity="1.0" stroke-width="3.0" />
            <path d=" M 648.162, 543.480 647.197, 542.373 643.581, 538.226 637.390, 534.266 630.337, 532.877 630.226, 532.871 629.665, 532.844 629.523, 532.836 " fill="none" stroke="rgb(0, 0, 0)" stroke-linecap="butt" stroke-linejoin="round" stroke-opacity="1.0" stroke-width="3.0" />
            <path d=" M 602.234, 613.429 605.170, 615.393 606.502, 616.284 614.449, 617.643 617.528, 617.166 618.475, 614.636 618.973, 610.612 " fill="none" stroke="rgb(0, 0, 0)" stroke-linecap="butt" stroke-linejoin="round" stroke-opacity="1.0" stroke-width="3.0" />
            <path d=" M 566.295, 719.782 567.220, 717.085 567.222, 717.080 567.515, 716.826 567.619, 716.736 567.769, 716.606 568.743, 715.762 569.152, 715.408 569.311, 715.270 569.523, 715.087 569.657, 714.971 569.697, 714.936 569.770, 714.873 571.486, 714.133 573.475, 713.127 574.340, 712.690 574.654, 712.531 574.709, 712.503 575.240, 712.199 575.255, 712.191 575.258, 712.189 575.265, 712.185 576.454, 711.505 577.570, 711.483 577.727, 711.479 577.750, 711.479 578.141, 711.471 578.385, 711.258 579.122, 710.610 579.149, 710.061 579.449, 703.854 579.453, 703.770 " fill="none" stroke="rgb(0, 0, 0)" stroke-linecap="butt" stroke-linejoin="round" stroke-opacity="1.0" stroke-width="3.0" />
            <path d=" M 421.563, 845.893 420.268, 841.049 420.561, 840.245 420.790, 839.619 420.809, 839.568 420.933, 839.227 420.933, 839.226 421.032, 838.957 421.057, 839.323 421.057, 839.324 421.083, 839.697 421.087, 839.753 421.156, 840.738 421.272, 842.410 421.512, 845.278 421.563, 845.893 421.623, 846.611 424.742, 852.604 425.023, 852.858 426.222, 853.946 " fill="none" stroke="rgb(0, 0, 0)" stroke-linecap="butt" stroke-linejoin="round" stroke-opacity="1.0" stroke-width="3.0" />
            <path d=" M 624.712, 500.238 628.175, 499.864 632.348, 499.414 636.548, 498.467 643.999, 496.701 648.056, 496.154 " fill="none" stroke="rgb(0, 0, 0)" stroke-linecap="butt" stroke-linejoin="round" stroke-opacity="1.0" stroke-width="3.0" />
            <path d=" M 582.333, 778.285 582.364, 778.256 582.495, 778.134 583.282, 778.129 583.822, 778.125 586.295, 778.107 588.948, 778.089 589.382, 778.086 591.929, 778.067 592.929, 777.702 593.545, 777.478 594.406, 777.163 596.251, 776.330 598.621, 774.760 599.196, 774.379 602.636, 772.101 602.801, 770.454 602.676, 769.956 " fill="none" stroke="rgb(0, 0, 0)" stroke-linecap="butt" stroke-linejoin="round" stroke-opacity="1.0" stroke-width="3.0" />
            <path d=" M 367.126, 679.671 366.291, 685.087 366.276, 685.184 364.814, 694.668 364.270, 700.201 364.124, 701.691 364.120, 701.734 363.929, 703.673 " fill="none" stroke="rgb(0, 0, 0)" stroke-linecap="butt" stroke-linejoin="round" stroke-opacity="1.0" stroke-width="3.0" />
            <path d=" M 798.986, 663.192 797.945, 662.987 788.264, 660.481 783.006, 659.120 776.198, 657.299 775.378, 657.080 " fill="none" stroke="rgb(0, 0, 0)" stroke-linecap="butt" stroke-linejoin="round" stroke-opacity="1.0" stroke-width="3.0" />
            <path d=" M 842.349, 794.734 842.206, 798.178 844.573, 800.993 849.909, 803.625 853.594, 804.499 855.927, 804.693 856.087, 804.623 860.043, 802.884 860.692, 802.599 860.757, 802.570 861.109, 802.416 " fill="none" stroke="rgb(0, 0, 0)" stroke-linecap="butt" stroke-linejoin="round" stroke-opacity="1.0" stroke-width="3.0" />
            <path d=" M 386.703, 612.982 384.877, 619.568 384.135, 623.076 383.831, 624.512 383.811, 624.608 383.363, 626.725 382.756, 629.431 382.268, 631.602 380.990, 637.291 " fill="none" stroke="rgb(0, 0, 0)" stroke-linecap="butt" stroke-linejoin="round" stroke-opacity="1.0" stroke-width="3.0" />
            <path d=" M 397.529, 817.751 402.805, 823.473 405.033, 826.004 405.340, 826.353 408.265, 829.676 413.719, 834.216 415.159, 835.391 " fill="none" stroke="rgb(0, 0, 0)" stroke-linecap="butt" stroke-linejoin="round" stroke-opacity="1.0" stroke-width="3.0" />
            <path d=" M 371.104, 674.501 370.084, 684.058 369.980, 692.856 367.646, 699.037 " fill="none" stroke="rgb(0, 0, 0)" stroke-linecap="butt" stroke-linejoin="round" stroke-opacity="1.0" stroke-width="3.0" />
            <path d=" M 603.505, 504.158 608.277, 503.282 615.250, 502.000 623.904, 500.800 628.175, 499.864 " fill="none" stroke="rgb(0, 0, 0)" stroke-linecap="butt" stroke-linejoin="round" stroke-opacity="1.0" stroke-width="3.0" />
            <path d=" M 778.252, 793.694 777.437, 794.178 772.336, 793.894 767.999, 794.538 765.007, 797.771 762.918, 800.902 761.975, 802.314 761.740, 802.667 761.679, 802.758 762.338, 807.068 " fill="none" stroke="rgb(0, 0, 0)" stroke-linecap="butt" stroke-linejoin="round" stroke-opacity="1.0" stroke-width="3.0" />
            <path d=" M 637.486, 834.516 633.958, 832.925 630.223, 830.598 628.645, 828.971 626.741, 828.117 624.921, 828.494 623.152, 832.203 620.302, 838.178 " fill="none" stroke="rgb(0, 0, 0)" stroke-linecap="butt" stroke-linejoin="round" stroke-opacity="1.0" stroke-width="3.0" />
            <path d=" M 839.520, 670.215 837.178, 669.752 835.902, 669.500 835.424, 669.600 834.038, 669.891 833.448, 670.015 831.545, 670.829 831.100, 674.088 831.080, 674.790 831.068, 675.183 831.313, 676.323 832.584, 677.935 835.294, 679.161 841.329, 681.818 " fill="none" stroke="rgb(0, 0, 0)" stroke-linecap="butt" stroke-linejoin="round" stroke-opacity="1.0" stroke-width="3.0" />
            <path d=" M 587.148, 776.073 587.453, 776.010 589.776, 775.530 590.323, 775.417 593.043, 774.856 594.585, 774.538 598.019, 773.070 599.201, 772.492 600.508, 771.853 602.676, 769.956 605.114, 767.823 603.921, 762.714 " fill="none" stroke="rgb(0, 0, 0)" stroke-linecap="butt" stroke-linejoin="round" stroke-opacity="1.0" stroke-width="3.0" />
            <path d=" M 869.763, 845.783 871.455, 845.466 872.083, 845.349 872.612, 845.250 876.612, 844.502 880.800, 842.585 889.432, 838.409 893.477, 836.396 " fill="none" stroke="rgb(0, 0, 0)" stroke-linecap="butt" stroke-linejoin="round" stroke-opacity="1.0" stroke-width="3.0" />
            <path d=" M 795.176, 680.557 792.670, 677.646 791.006, 676.126 785.920, 680.052 784.202, 684.328 784.271, 684.653 784.347, 685.013 784.355, 685.053 784.512, 685.797 784.812, 687.218 786.372, 689.778 788.358, 691.614 " fill="none" stroke="rgb(0, 0, 0)" stroke-linecap="butt" stroke-linejoin="round" stroke-opacity="1.0" stroke-width="3.0" />
            <path d=" M 847.977, 855.090 854.232, 852.301 857.409, 850.844 857.843, 850.690 864.746, 848.247 868.453, 847.153 871.879, 845.450 " fill="none" stroke="rgb(0, 0, 0)" stroke-linecap="butt" stroke-linejoin="round" stroke-opacity="1.0" stroke-width="3.0" />
            <path d=" M 502.489, 904.050 499.816, 902.665 497.455, 900.301 495.760, 898.514 494.815, 897.517 494.715, 897.047 494.310, 895.138 493.873, 894.449 491.871, 892.983 491.626, 892.804 491.622, 892.801 491.453, 892.677 491.452, 892.676 491.231, 892.514 491.162, 892.464 490.576, 892.034 490.325, 891.850 490.116, 891.568 488.509, 889.397 486.539, 884.818 " fill="none" stroke="rgb(0, 0, 0)" stroke-linecap="butt" stroke-linejoin="round" stroke-opacity="1.0" stroke-width="3.0" />
            <path d=" M 597.133, 762.589 598.379, 761.679 599.815, 760.629 599.838, 760.612 600.076, 760.438 600.542, 760.097 601.319, 759.451 606.013, 755.548 606.306, 755.304 607.338, 754.446 608.336, 752.170 608.082, 751.053 605.869, 746.532 605.396, 745.565 602.953, 743.318 " fill="none" stroke="rgb(0, 0, 0)" stroke-linecap="butt" stroke-linejoin="round" stroke-opacity="1.0" stroke-width="3.0" />
            <path d=" M 517.344, 493.223 517.372, 493.267 518.207, 494.601 519.098, 496.023 520.901, 501.434 520.940, 501.551 521.745, 503.964 522.383, 505.791 523.505, 509.005 524.004, 510.085 524.326, 510.781 524.365, 510.867 524.393, 510.926 525.275, 512.834 526.093, 514.604 526.107, 514.633 526.217, 515.237 526.353, 515.985 526.473, 516.646 526.493, 516.758 526.540, 517.014 526.547, 517.051 526.664, 517.699 " fill="none" stroke="rgb(0, 0, 0)" stroke-linecap="butt" stroke-linejoin="round" stroke-opacity="1.0" stroke-width="3.0" />
            <path d=" M 589.169, 623.185 590.051, 624.850 591.565, 625.333 594.900, 624.632 595.068, 624.597 595.171, 624.575 595.650, 624.475 596.210, 624.777 597.217, 625.319 597.244, 625.334 597.294, 625.361 597.375, 625.405 597.562, 625.505 599.071, 626.319 599.384, 626.487 601.632, 626.441 602.350, 625.943 602.599, 625.770 602.804, 625.628 603.297, 625.286 603.693, 624.567 604.594, 622.932 605.200, 615.717 605.170, 615.393 " fill="none" stroke="rgb(0, 0, 0)" stroke-linecap="butt" stroke-linejoin="round" stroke-opacity="1.0" stroke-width="3.0" />
            <path d=" M 940.106, 812.272 944.186, 809.845 952.060, 804.025 959.774, 797.661 961.403, 796.318 " fill="none" stroke="rgb(0, 0, 0)" stroke-linecap="butt" stroke-linejoin="round" stroke-opacity="1.0" stroke-width="3.0" />
            <path d=" M 737.916, 812.023 736.723, 812.437 734.837, 812.667 728.693, 814.190 718.861, 816.017 716.557, 816.445 711.814, 817.327 " fill="none" stroke="rgb(0, 0, 0)" stroke-linecap="butt" stroke-linejoin="round" stroke-opacity="1.0" stroke-width="3.0" />
            <path d=" M 440.638, 535.152 439.473, 537.415 438.980, 538.373 437.156, 543.198 437.026, 543.541 436.995, 543.624 436.508, 544.912 436.125, 545.925 436.098, 545.997 435.971, 546.332 435.934, 546.430 435.903, 546.647 435.805, 547.335 435.388, 550.265 434.605, 554.303 433.276, 560.631 " fill="none" stroke="rgb(0, 0, 0)" stroke-linecap="butt" stroke-linejoin="round" stroke-opacity="1.0" stroke-width="3.0" />
            <path d=" M 559.792, 788.991 564.329, 785.824 568.650, 784.924 569.973, 784.649 573.968, 784.494 575.675, 784.428 576.734, 784.257 579.393, 783.826 580.728, 783.297 581.118, 782.312 581.430, 781.525 581.542, 781.156 581.638, 780.841 581.912, 779.934 581.888, 778.921 " fill="none" stroke="rgb(0, 0, 0)" stroke-linecap="butt" stroke-linejoin="round" stroke-opacity="1.0" stroke-width="3.0" />
            <path d=" M 587.380, 627.242 587.529, 626.906 587.722, 626.343 588.924, 622.854 589.062, 622.454 589.068, 622.436 589.086, 622.382 589.259, 621.880 589.310, 621.735 589.350, 621.616 589.504, 621.171 590.032, 619.635 590.463, 618.385 590.500, 618.117 590.597, 617.419 591.424, 611.453 592.064, 608.552 592.562, 605.173 593.206, 603.629 593.560, 602.782 593.893, 601.983 593.918, 601.923 593.951, 601.844 594.125, 601.427 594.237, 601.159 " fill="none" stroke="rgb(0, 0, 0)" stroke-linecap="butt" stroke-linejoin="round" stroke-opacity="1.0" stroke-width="3.0" />
            <path d=" M 859.055, 667.527 859.342, 667.847 859.424, 667.938 862.195, 671.022 864.918, 673.156 867.502, 674.280 867.979, 674.487 869.624, 675.203 867.891, 673.576 866.735, 672.490 865.634, 670.525 863.393, 666.525 863.211, 666.199 863.086, 666.029 863.057, 665.991 861.870, 664.379 861.636, 664.061 " fill="none" stroke="rgb(0, 0, 0)" stroke-linecap="butt" stroke-linejoin="round" stroke-opacity="1.0" stroke-width="3.0" />
            <path d=" M 883.313, 839.885 892.771, 836.638 893.477, 836.396 895.447, 835.719 904.643, 831.786 908.536, 829.652 " fill="none" stroke="rgb(0, 0, 0)" stroke-linecap="butt" stroke-linejoin="round" stroke-opacity="1.0" stroke-width="3.0" />
            <path d=" M 635.711, 575.405 637.674, 572.044 639.520, 570.049 640.674, 569.816 641.922, 569.565 641.941, 569.561 641.970, 569.555 645.029, 568.939 646.953, 567.458 648.915, 565.949 651.708, 563.771 651.864, 561.512 649.314, 557.834 " fill="none" stroke="rgb(0, 0, 0)" stroke-linecap="butt" stroke-linejoin="round" stroke-opacity="1.0" stroke-width="3.0" />
            <path d=" M 954.545, 713.618 953.371, 713.824 951.615, 714.131 949.612, 714.481 949.511, 714.499 948.028, 714.758 947.180, 714.906 946.794, 714.974 945.484, 715.203 942.841, 716.064 935.321, 720.234 929.554, 724.289 " fill="none" stroke="rgb(0, 0, 0)" stroke-linecap="butt" stroke-linejoin="round" stroke-opacity="1.0" stroke-width="3.0" />
            <path d=" M 676.103, 669.129 675.945, 669.601 677.484, 672.462 679.296, 674.197 682.315, 677.047 687.623, 679.375 692.316, 680.943 695.004, 682.321 697.132, 682.467 698.731, 682.432 " fill="none" stroke="rgb(0, 0, 0)" stroke-linecap="butt" stroke-linejoin="round" stroke-opacity="1.0" stroke-width="3.0" />
            <path d=" M 579.581, 750.839 581.534, 750.725 581.962, 750.700 582.957, 750.642 583.799, 750.593 584.831, 750.533 591.634, 751.297 592.460, 751.193 593.447, 751.069 594.929, 750.839 595.052, 750.820 595.471, 750.755 597.078, 750.505 597.205, 750.485 597.236, 750.480 597.811, 749.759 598.241, 749.219 600.201, 746.761 600.765, 746.242 602.522, 744.625 602.792, 743.805 602.793, 743.803 602.953, 743.318 603.279, 742.330 " fill="none" stroke="rgb(0, 0, 0)" stroke-linecap="butt" stroke-linejoin="round" stroke-opacity="1.0" stroke-width="3.0" />
            <path d=" M 737.981, 797.855 735.866, 802.841 735.754, 803.104 734.621, 806.275 737.309, 810.815 738.113, 811.853 738.175, 811.933 738.348, 812.157 739.716, 813.925 743.783, 816.841 748.713, 818.302 " fill="none" stroke="rgb(0, 0, 0)" stroke-linecap="butt" stroke-linejoin="round" stroke-opacity="1.0" stroke-width="3.0" />
            <path d=" M 635.880, 580.752 634.896, 582.185 634.385, 582.928 633.711, 584.464 633.505, 584.932 633.407, 585.157 633.484, 584.926 633.613, 584.545 634.278, 582.570 634.436, 582.099 634.485, 581.953 636.433, 579.305 638.401, 576.629 638.613, 576.440 639.036, 576.064 642.688, 572.817 643.331, 572.245 643.516, 572.081 646.583, 570.225 647.312, 568.735 646.953, 567.458 " fill="none" stroke="rgb(0, 0, 0)" stroke-linecap="butt" stroke-linejoin="round" stroke-opacity="1.0" stroke-width="3.0" />
            <path d=" M 623.958, 529.827 623.424, 529.528 621.719, 528.574 616.424, 526.090 614.858, 525.356 613.852, 525.164 611.310, 524.680 609.756, 524.685 606.857, 524.694 602.659, 524.708 601.211, 524.861 601.108, 524.872 601.101, 524.873 599.866, 525.004 599.548, 525.037 599.283, 525.065 599.270, 525.067 599.033, 525.092 598.976, 525.098 598.578, 525.140 598.510, 525.147 598.435, 525.155 597.661, 525.237 597.454, 525.134 596.992, 524.906 596.510, 524.668 " fill="none" stroke="rgb(0, 0, 0)" stroke-linecap="butt" stroke-linejoin="round" stroke-opacity="1.0" stroke-width="3.0" />
            <path d=" M 811.420, 807.900 812.218, 810.436 813.399, 812.465 814.725, 814.744 818.465, 818.271 821.477, 819.096 824.799, 820.005 825.386, 819.997 828.243, 819.959 833.470, 818.285 834.022, 818.108 " fill="none" stroke="rgb(0, 0, 0)" stroke-linecap="butt" stroke-linejoin="round" stroke-opacity="1.0" stroke-width="3.0" />
            <path d=" M 979.463, 722.313 982.906, 720.410 984.976, 719.266 986.378, 718.492 986.820, 717.722 988.327, 715.099 987.672, 709.483 988.445, 707.469 988.522, 707.268 988.556, 707.256 990.680, 706.501 990.855, 706.438 991.117, 706.345 991.178, 706.323 991.500, 706.209 997.269, 707.337 " fill="none" stroke="rgb(0, 0, 0)" stroke-linecap="butt" stroke-linejoin="round" stroke-opacity="1.0" stroke-width="3.0" />
            <path d=" M 776.198, 657.299 766.616, 654.438 761.284, 652.846 751.627, 650.252 749.662, 649.724 748.290, 649.356 " fill="none" stroke="rgb(0, 0, 0)" stroke-linecap="butt" stroke-linejoin="round" stroke-opacity="1.0" stroke-width="3.0" />
            <path d=" M 570.866, 851.533 570.673, 850.411 570.944, 847.380 569.620, 844.265 568.467, 841.385 565.957, 840.105 565.557, 839.900 564.174, 839.759 560.615, 839.396 559.355, 839.131 554.496, 838.108 554.070, 838.019 553.874, 837.977 553.146, 837.824 552.885, 837.659 552.827, 837.623 551.092, 836.527 551.022, 836.483 550.547, 836.183 " fill="none" stroke="rgb(0, 0, 0)" stroke-linecap="butt" stroke-linejoin="round" stroke-opacity="1.0" stroke-width="3.0" />
            <path d=" M 507.124, 851.590 507.170, 851.528 509.723, 848.058 512.566, 844.831 515.735, 839.873 515.948, 839.540 516.441, 838.770 520.958, 832.547 524.635, 829.009 525.495, 827.944 " fill="none" stroke="rgb(0, 0, 0)" stroke-linecap="butt" stroke-linejoin="round" stroke-opacity="1.0" stroke-width="3.0" />
            <path d=" M 599.154, 745.028 600.578, 744.097 602.165, 743.058 602.184, 743.046 602.461, 742.865 602.466, 742.862 603.279, 742.330 605.475, 740.893 607.252, 739.221 608.792, 737.773 613.564, 734.617 613.941, 730.596 610.989, 727.929 607.357, 725.511 " fill="none" stroke="rgb(0, 0, 0)" stroke-linecap="butt" stroke-linejoin="round" stroke-opacity="1.0" stroke-width="3.0" />
            <path d=" M 376.159, 644.917 373.028, 654.414 372.890, 654.831 371.823, 662.439 371.279, 671.564 371.232, 672.345 371.104, 674.501 371.092, 674.703 " fill="none" stroke="rgb(0, 0, 0)" stroke-linecap="butt" stroke-linejoin="round" stroke-opacity="1.0" stroke-width="3.0" />
            <path d=" M 993.429, 654.430 993.163, 657.928 993.044, 659.481 992.603, 657.780 992.442, 657.160 992.371, 656.889 991.714, 654.360 991.300, 652.767 991.167, 652.254 991.465, 650.929 991.949, 648.783 994.784, 648.446 996.654, 651.180 1001.746, 657.949 1002.004, 658.291 " fill="none" stroke="rgb(0, 0, 0)" stroke-linecap="butt" stroke-linejoin="round" stroke-opacity="1.0" stroke-width="3.0" />
            <path d=" M 753.377, 683.304 752.323, 684.952 752.081, 685.330 751.938, 686.386 751.832, 689.129 752.673, 690.093 761.981, 692.859 763.718, 693.428 764.496, 693.669 772.149, 690.393 772.497, 690.244 772.607, 690.197 773.252, 689.921 774.743, 689.903 775.523, 689.893 " fill="none" stroke="rgb(0, 0, 0)" stroke-linecap="butt" stroke-linejoin="round" stroke-opacity="1.0" stroke-width="3.0" />
            <path d=" M 762.918, 800.902 759.154, 796.003 753.903, 790.565 750.644, 788.191 746.299, 788.241 744.702, 789.349 744.564, 793.046 743.833, 795.625 743.425, 797.064 " fill="none" stroke="rgb(0, 0, 0)" stroke-linecap="butt" stroke-linejoin="round" stroke-opacity="1.0" stroke-width="3.0" />
            <path d=" M 539.952, 814.268 542.576, 814.707 544.396, 815.012 544.611, 815.048 544.664, 815.057 545.239, 815.153 545.859, 814.749 545.870, 814.743 545.917, 814.712 546.567, 814.289 546.905, 814.069 549.691, 812.255 551.655, 810.855 553.343, 809.302 553.946, 808.747 554.554, 807.809 554.560, 807.800 554.653, 807.655 557.164, 803.780 557.039, 802.538 556.939, 801.551 556.668, 798.873 556.663, 798.824 556.498, 797.192 556.801, 795.560 557.143, 793.723 557.172, 793.567 " fill="none" stroke="rgb(0, 0, 0)" stroke-linecap="butt" stroke-linejoin="round" stroke-opacity="1.0" stroke-width="3.0" />
            <path d=" M 376.903, 640.932 373.641, 647.253 369.564, 652.267 369.143, 653.976 367.712, 656.869 367.582, 657.686 367.165, 660.301 365.568, 666.376 365.245, 671.101 " fill="none" stroke="rgb(0, 0, 0)" stroke-linecap="butt" stroke-linejoin="round" stroke-opacity="1.0" stroke-width="3.0" />
            <path d=" M 953.080, 662.202 952.692, 662.193 946.711, 661.054 942.395, 660.267 942.346, 660.228 935.979, 655.230 926.651, 652.977 924.424, 653.021 924.220, 653.485 923.518, 655.088 " fill="none" stroke="rgb(0, 0, 0)" stroke-linecap="butt" stroke-linejoin="round" stroke-opacity="1.0" stroke-width="3.0" />
            <path d=" M 826.778, 779.757 824.855, 779.196 821.947, 778.870 819.521, 779.663 819.604, 781.133 820.378, 783.254 820.409, 783.341 820.462, 783.873 820.722, 786.500 820.714, 786.713 820.567, 790.481 820.774, 793.295 820.850, 794.325 820.413, 798.656 820.414, 798.739 820.415, 798.854 820.415, 798.860 820.424, 799.732 820.703, 801.352 823.450, 804.019 " fill="none" stroke="rgb(0, 0, 0)" stroke-linecap="butt" stroke-linejoin="round" stroke-opacity="1.0" stroke-width="3.0" />
            <path d=" M 706.494, 679.020 706.586, 679.297 706.993, 680.525 707.148, 680.992 707.236, 681.257 707.293, 681.430 707.317, 681.502 708.740, 682.936 709.318, 683.211 709.356, 683.229 709.604, 683.348 713.542, 685.223 716.106, 687.322 718.972, 688.971 720.093, 689.825 724.158, 692.922 725.465, 695.209 723.642, 693.474 722.315, 692.511 721.032, 691.351 720.093, 689.825 " fill="none" stroke="rgb(0, 0, 0)" stroke-linecap="butt" stroke-linejoin="round" stroke-opacity="1.0" stroke-width="3.0" />
            <path d=" M 828.447, 668.564 828.318, 668.807 828.285, 668.869 828.275, 668.889 828.272, 668.895 827.507, 670.336 827.391, 670.821 827.383, 670.853 826.339, 675.231 826.691, 678.360 829.091, 680.891 833.099, 682.471 841.015, 684.066 845.545, 684.306 847.058, 684.915 848.369, 685.442 848.391, 685.451 " fill="none" stroke="rgb(0, 0, 0)" stroke-linecap="butt" stroke-linejoin="round" stroke-opacity="1.0" stroke-width="3.0" />
            <path d=" M 595.132, 490.100 594.892, 489.151 593.996, 487.934 588.835, 485.294 587.107, 484.410 587.020, 484.365 586.990, 484.350 582.496, 482.870 572.607, 482.630 568.560, 483.119 568.388, 483.140 567.820, 483.208 566.872, 483.323 566.541, 483.363 563.976, 483.673 " fill="none" stroke="rgb(0, 0, 0)" stroke-linecap="butt" stroke-linejoin="round" stroke-opacity="1.0" stroke-width="3.0" />
            <path d=" M 978.346, 706.761 971.911, 709.174 967.227, 714.790 968.208, 718.425 968.219, 718.464 968.284, 718.705 968.371, 719.029 969.312, 720.009 970.724, 721.116 970.873, 721.232 971.889, 722.028 971.930, 722.060 974.012, 723.691 978.166, 724.764 981.708, 724.453 " fill="none" stroke="rgb(0, 0, 0)" stroke-linecap="butt" stroke-linejoin="round" stroke-opacity="1.0" stroke-width="3.0" />
            <path d=" M 712.005, 675.116 713.351, 675.551 721.463, 678.172 726.910, 680.467 730.229, 681.874 732.831, 683.039 740.594, 686.188 742.134, 686.812 743.313, 687.290 743.581, 687.399 " fill="none" stroke="rgb(0, 0, 0)" stroke-linecap="butt" stroke-linejoin="round" stroke-opacity="1.0" stroke-width="3.0" />
            <path d=" M 525.303, 900.030 525.533, 899.925 530.835, 897.522 540.631, 895.511 542.495, 895.129 550.566, 889.225 550.803, 889.052 553.491, 886.830 554.470, 884.325 " fill="none" stroke="rgb(0, 0, 0)" stroke-linecap="butt" stroke-linejoin="round" stroke-opacity="1.0" stroke-width="3.0" />
            <path d=" M 487.521, 577.099 486.054, 577.497 486.008, 577.510 477.819, 578.099 475.045, 578.511 468.116, 578.986 463.021, 579.404 462.314, 579.462 458.191, 579.743 456.997, 579.825 456.912, 579.830 455.098, 579.954 453.246, 580.080 453.162, 580.086 " fill="none" stroke="rgb(0, 0, 0)" stroke-linecap="butt" stroke-linejoin="round" stroke-opacity="1.0" stroke-width="3.0" />
            <path d=" M 490.902, 915.201 496.063, 914.657 501.622, 913.779 501.793, 913.726 503.077, 913.333 506.211, 912.372 507.670, 911.282 507.899, 911.111 508.427, 910.008 508.464, 909.930 508.589, 909.668 508.752, 909.328 508.767, 909.298 508.896, 909.028 509.064, 908.677 509.074, 908.624 509.145, 908.256 509.146, 908.253 509.265, 907.638 509.341, 907.242 509.463, 906.612 509.365, 906.377 509.280, 906.172 508.842, 905.119 508.749, 904.894 508.692, 904.758 508.524, 904.353 508.063, 904.224 499.261, 901.770 " fill="none" stroke="rgb(0, 0, 0)" stroke-linecap="butt" stroke-linejoin="round" stroke-opacity="1.0" stroke-width="3.0" />
            <path d=" M 636.950, 557.454 638.600, 557.173 644.147, 556.231 645.738, 556.122 648.019, 555.966 649.671, 555.853 649.908, 555.837 653.365, 555.601 655.560, 552.685 655.991, 550.294 654.991, 548.331 647.197, 542.373 " fill="none" stroke="rgb(0, 0, 0)" stroke-linecap="butt" stroke-linejoin="round" stroke-opacity="1.0" stroke-width="3.0" />
            <path d=" M 609.006, 520.554 618.997, 520.148 619.359, 520.133 620.069, 519.829 619.936, 519.480 619.936, 519.480 619.892, 519.364 619.891, 519.362 618.590, 515.938 609.932, 510.934 607.094, 509.294 600.618, 508.323 " fill="none" stroke="rgb(0, 0, 0)" stroke-linecap="butt" stroke-linejoin="round" stroke-opacity="1.0" stroke-width="3.0" />
            <path d=" M 587.118, 525.749 588.297, 525.415 589.143, 525.176 589.720, 525.013 591.657, 524.914 592.295, 524.882 592.497, 524.872 592.643, 524.864 592.721, 524.860 592.878, 524.852 593.330, 524.829 594.415, 524.774 595.034, 524.743 595.108, 524.739 595.264, 524.731 595.363, 524.726 595.642, 524.712 595.860, 524.701 595.900, 524.699 596.510, 524.668 597.163, 524.635 597.251, 524.630 597.870, 524.599 597.978, 524.593 598.373, 524.573 598.634, 524.560 598.713, 524.556 598.808, 524.551 599.028, 524.540 599.167, 524.533 599.458, 524.518 600.484, 524.466 600.502, 524.465 600.526, 524.464 606.131, 524.179 606.777, 524.147 607.336, 523.964 612.256, 522.353 617.906, 522.139 620.297, 519.756 619.891, 519.362 " fill="none" stroke="rgb(0, 0, 0)" stroke-linecap="butt" stroke-linejoin="round" stroke-opacity="1.0" stroke-width="3.0" />
            <path d=" M 855.900, 654.819 847.040, 653.310 839.102, 653.633 838.048, 653.978 837.872, 654.399 837.160, 656.111 837.051, 656.878 837.143, 662.494 837.019, 662.985 836.631, 664.512 836.305, 665.801 835.481, 669.053 834.921, 669.379 834.038, 669.891 " fill="none" stroke="rgb(0, 0, 0)" stroke-linecap="butt" stroke-linejoin="round" stroke-opacity="1.0" stroke-width="3.0" />
            <path d=" M 449.904, 841.763 448.257, 841.605 443.551, 840.211 439.134, 838.641 435.598, 836.743 429.901, 833.617 424.544, 831.841 423.147, 834.544 421.032, 838.957 " fill="none" stroke="rgb(0, 0, 0)" stroke-linecap="butt" stroke-linejoin="round" stroke-opacity="1.0" stroke-width="3.0" />
            <path d=" M 601.759, 630.510 601.905, 630.566 602.593, 630.829 602.657, 630.854 602.792, 630.905 603.940, 631.508 604.365, 631.565 604.512, 631.584 605.849, 631.762 609.558, 632.255 610.257, 632.348 610.563, 632.344 610.614, 632.344 610.626, 632.344 610.868, 632.242 611.081, 632.153 612.500, 631.560 613.111, 631.305 613.565, 631.115 613.799, 630.792 613.932, 630.608 615.235, 628.813 616.165, 627.531 619.211, 622.286 620.867, 616.409 623.563, 611.750 623.605, 610.709 " fill="none" stroke="rgb(0, 0, 0)" stroke-linecap="butt" stroke-linejoin="round" stroke-opacity="1.0" stroke-width="3.0" />
            <path d=" M 596.675, 598.998 597.606, 598.841 598.536, 598.684 598.589, 598.675 598.669, 598.661 599.963, 598.443 601.235, 598.228 604.376, 599.314 604.424, 599.352 607.792, 602.018 609.973, 603.325 613.441, 604.796 617.414, 605.417 619.574, 605.755 619.889, 605.804 620.058, 605.831 620.183, 605.850 620.992, 605.875 622.994, 605.935 623.101, 605.938 623.700, 604.830 626.167, 600.274 626.344, 599.159 " fill="none" stroke="rgb(0, 0, 0)" stroke-linecap="butt" stroke-linejoin="round" stroke-opacity="1.0" stroke-width="3.0" />
            <path d=" M 493.317, 528.217 493.281, 528.357 493.272, 528.393 493.212, 528.625 493.210, 528.634 493.172, 528.781 492.518, 531.335 491.223, 532.891 489.700, 534.719 488.565, 537.038 489.701, 541.380 489.820, 541.835 489.660, 542.826 489.503, 543.798 489.018, 546.805 487.759, 549.168 486.049, 552.166 486.294, 554.403 486.321, 554.648 486.350, 554.910 486.424, 555.584 486.571, 556.924 486.585, 557.054 485.949, 557.738 485.494, 558.226 484.889, 558.877 484.549, 559.242 482.031, 558.663 " fill="none" stroke="rgb(0, 0, 0)" stroke-linecap="butt" stroke-linejoin="round" stroke-opacity="1.0" stroke-width="3.0" />
            <path d=" M 449.410, 551.434 443.056, 550.739 442.108, 550.793 440.693, 550.873 440.513, 550.883 440.461, 550.886 440.439, 550.888 439.884, 550.919 439.732, 551.063 437.885, 552.818 437.835, 552.866 437.777, 552.947 435.431, 556.250 433.276, 560.631 432.728, 561.746 431.865, 565.441 431.813, 565.665 431.296, 567.880 431.264, 568.016 431.146, 568.669 431.052, 569.190 429.815, 576.046 " fill="none" stroke="rgb(0, 0, 0)" stroke-linecap="butt" stroke-linejoin="round" stroke-opacity="1.0" stroke-width="3.0" />
            <path d=" M 744.129, 704.946 745.779, 707.410 746.299, 708.775 747.163, 710.587 749.173, 712.995 753.887, 714.949 760.121, 717.312 764.880, 719.715 768.604, 722.031 771.185, 722.892 774.574, 724.022 " fill="none" stroke="rgb(0, 0, 0)" stroke-linecap="butt" stroke-linejoin="round" stroke-opacity="1.0" stroke-width="3.0" />
            <path d=" M 550.367, 568.551 550.964, 568.476 551.011, 568.470 556.377, 567.797 559.765, 567.174 559.849, 567.158 560.038, 567.123 562.543, 566.662 562.910, 566.543 562.952, 566.529 568.452, 564.741 569.593, 564.370 575.219, 562.271 576.349, 557.301 578.081, 550.893 " fill="none" stroke="rgb(0, 0, 0)" stroke-linecap="butt" stroke-linejoin="round" stroke-opacity="1.0" stroke-width="3.0" />
            <path d=" M 878.503, 650.007 874.875, 649.252 871.425, 649.693 868.550, 650.869 864.111, 651.618 858.136, 651.023 856.870, 652.124 855.900, 654.819 855.137, 656.940 859.500, 662.313 859.518, 662.335 860.678, 663.280 860.953, 663.505 861.029, 663.567 861.636, 664.061 861.811, 664.203 " fill="none" stroke="rgb(0, 0, 0)" stroke-linecap="butt" stroke-linejoin="round" stroke-opacity="1.0" stroke-width="3.0" />
            <path d=" M 560.590, 667.775 560.731, 667.805 560.815, 667.822 562.484, 668.175 562.545, 668.188 562.799, 668.241 562.929, 668.269 562.943, 668.272 563.014, 668.287 563.447, 668.378 564.367, 668.572 564.975, 668.701 565.162, 668.740 566.384, 668.998 566.399, 669.001 566.432, 669.008 566.706, 669.066 566.792, 669.084 567.266, 669.184 567.975, 669.334 568.607, 669.467 569.240, 669.601 570.427, 669.800 571.867, 670.041 571.876, 670.043 571.887, 670.042 572.356, 670.031 572.388, 670.030 572.824, 670.019 572.837, 670.019 573.121, 669.984 575.195, 669.723 580.420, 669.067 581.721, 668.854 582.434, 668.737 584.738, 667.961 585.249, 667.789 585.471, 667.715 589.007, 666.525 589.545, 665.751 590.098, 664.954 589.760, 663.527 589.017, 660.393 588.143, 659.755 587.537, 659.313 " fill="none" stroke="rgb(0, 0, 0)" stroke-linecap="butt" stroke-linejoin="round" stroke-opacity="1.0" stroke-width="3.0" />
            <path d=" M 664.822, 887.896 668.174, 887.420 674.703, 887.442 680.504, 888.185 681.472, 888.700 681.512, 888.722 683.797, 889.938 684.218, 890.162 686.580, 891.419 687.032, 891.659 687.167, 891.728 687.184, 891.736 687.279, 891.785 687.298, 891.794 687.698, 891.997 688.712, 892.512 692.319, 893.606 686.111, 891.797 684.218, 890.162 " fill="none" stroke="rgb(0, 0, 0)" stroke-linecap="butt" stroke-linejoin="round" stroke-opacity="1.0" stroke-width="3.0" />
            <path d=" M 402.654, 609.507 398.144, 613.496 397.701, 614.118 397.251, 614.750 397.204, 614.815 395.230, 617.586 393.572, 620.401 391.901, 623.238 391.504, 623.912 391.453, 624.000 391.388, 624.110 390.986, 624.793 390.982, 624.800 390.677, 625.316 389.849, 626.667 389.830, 626.699 389.727, 626.867 389.517, 627.210 388.928, 628.171 388.481, 628.900 388.056, 629.594 388.014, 629.662 387.485, 630.526 387.102, 631.151 386.859, 631.547 386.800, 631.643 386.299, 632.460 385.678, 633.473 385.521, 633.731 385.515, 633.741 385.081, 634.448 384.889, 634.761 384.787, 634.880 383.688, 636.155 380.611, 640.658 " fill="none" stroke="rgb(0, 0, 0)" stroke-linecap="butt" stroke-linejoin="round" stroke-opacity="1.0" stroke-width="3.0" />
            <path d=" M 396.223, 711.177 396.249, 711.190 396.263, 711.197 396.290, 711.210 396.995, 711.555 397.542, 711.822 397.687, 711.893 401.674, 713.843 407.301, 714.931 413.076, 717.360 417.623, 718.240 423.425, 719.618 428.928, 720.233 433.245, 721.246 " fill="none" stroke="rgb(0, 0, 0)" stroke-linecap="butt" stroke-linejoin="round" stroke-opacity="1.0" stroke-width="3.0" />
            <path d=" M 418.295, 551.455 416.080, 552.946 415.954, 553.031 415.682, 553.214 414.418, 554.065 414.344, 554.115 411.693, 555.900 410.413, 556.762 409.396, 557.447 407.003, 559.653 406.129, 560.459 406.125, 560.463 405.239, 561.280 404.896, 561.596 402.900, 563.670 402.869, 563.702 402.377, 564.214 402.175, 564.424 400.606, 566.055 400.327, 566.345 400.322, 566.350 400.282, 566.392 399.214, 567.502 395.619, 573.642 393.078, 579.648 " fill="none" stroke="rgb(0, 0, 0)" stroke-linecap="butt" stroke-linejoin="round" stroke-opacity="1.0" stroke-width="3.0" />
            <path d=" M 816.363, 859.377 820.474, 858.987 820.591, 858.976 820.650, 858.970 822.286, 858.815 822.982, 858.749 832.820, 857.816 835.870, 857.688 838.353, 857.584 842.090, 856.778 843.966, 856.333 842.462, 856.469 842.448, 856.471 836.953, 856.968 833.111, 857.757 832.820, 857.816 " fill="none" stroke="rgb(0, 0, 0)" stroke-linecap="butt" stroke-linejoin="round" stroke-opacity="1.0" stroke-width="3.0" />
            <path d=" M 774.614, 672.465 770.079, 669.162 767.515, 668.058 763.464, 667.881 762.861, 667.855 762.663, 667.846 762.156, 667.824 758.680, 668.155 754.726, 670.142 752.484, 671.268 749.428, 674.338 749.601, 676.501 749.616, 676.684 749.618, 676.713 749.655, 677.166 749.722, 678.011 749.810, 679.101 750.300, 680.589 750.648, 681.647 750.680, 681.742 750.701, 681.806 750.835, 682.214 750.846, 682.247 750.849, 682.255 751.347, 683.766 752.323, 684.952 " fill="none" stroke="rgb(0, 0, 0)" stroke-linecap="butt" stroke-linejoin="round" stroke-opacity="1.0" stroke-width="3.0" />
            <path d=" M 853.596, 775.244 853.068, 775.151 845.726, 775.925 838.442, 775.997 836.893, 776.552 834.841, 777.531 835.346, 778.715 835.858, 779.914 835.757, 781.583 835.757, 781.592 835.677, 782.911 836.579, 784.897 836.043, 787.593 836.692, 789.120 837.082, 790.040 837.844, 790.719 842.349, 794.734 842.840, 795.172 " fill="none" stroke="rgb(0, 0, 0)" stroke-linecap="butt" stroke-linejoin="round" stroke-opacity="1.0" stroke-width="3.0" />
            <path d=" M 930.583, 747.654 939.854, 747.230 943.195, 746.959 951.961, 745.963 953.277, 745.734 954.265, 745.563 961.649, 744.284 970.223, 741.535 " fill="none" stroke="rgb(0, 0, 0)" stroke-linecap="butt" stroke-linejoin="round" stroke-opacity="1.0" stroke-width="3.0" />
            <path d=" M 605.026, 564.326 605.213, 564.444 606.260, 565.111 609.854, 567.397 611.071, 568.171 612.075, 568.737 612.133, 568.770 612.954, 569.233 613.303, 569.430 614.475, 570.091 614.876, 570.317 615.158, 570.476 615.222, 570.512 615.705, 570.785 616.242, 571.088 616.619, 571.300 616.773, 571.348 617.549, 571.588 618.142, 571.772 618.946, 572.020 619.017, 572.042 619.017, 572.043 619.612, 572.227 620.043, 572.360 620.182, 572.403 620.192, 572.406 620.559, 572.520 621.123, 572.694 622.761, 572.613 622.766, 572.613 625.252, 572.490 626.457, 572.430 630.445, 572.233 632.274, 572.143 634.369, 571.880 636.120, 568.700 636.273, 568.213 636.680, 566.916 637.149, 565.423 637.675, 563.748 " fill="none" stroke="rgb(0, 0, 0)" stroke-linecap="butt" stroke-linejoin="round" stroke-opacity="1.0" stroke-width="3.0" />
            <path d=" M 906.302, 830.748 908.536, 829.652 917.114, 825.443 922.321, 823.022 928.834, 819.184 937.359, 813.956 940.106, 812.272 942.295, 810.929 " fill="none" stroke="rgb(0, 0, 0)" stroke-linecap="butt" stroke-linejoin="round" stroke-opacity="1.0" stroke-width="3.0" />
            <path d=" M 1001.786, 642.209 1001.805, 642.132 1002.219, 640.468 999.931, 636.621 992.700, 631.430 989.609, 631.785 987.328, 633.962 987.297, 633.991 987.296, 633.993 985.999, 635.230 983.305, 637.525 982.582, 639.976 983.512, 644.534 983.996, 646.902 986.687, 653.236 " fill="none" stroke="rgb(0, 0, 0)" stroke-linecap="butt" stroke-linejoin="round" stroke-opacity="1.0" stroke-width="3.0" />
            <path d=" M 846.739, 733.097 853.388, 731.633 854.124, 731.516 856.736, 731.103 860.113, 730.736 867.169, 730.346 873.408, 730.875 876.193, 730.203 886.106, 729.763 889.627, 729.602 889.779, 729.569 " fill="none" stroke="rgb(0, 0, 0)" stroke-linecap="butt" stroke-linejoin="round" stroke-opacity="1.0" stroke-width="3.0" />
            <path d=" M 812.583, 790.333 811.665, 789.690 806.080, 788.270 800.718, 786.584 796.468, 787.121 795.333, 789.812 795.512, 790.754 796.114, 793.930 796.235, 794.568 796.329, 797.746 796.667, 798.742 796.750, 798.984 796.943, 799.553 797.383, 800.849 797.427, 800.977 797.476, 801.535 797.496, 801.753 797.507, 801.884 797.522, 802.048 797.549, 802.362 797.633, 803.302 797.633, 803.304 797.722, 804.307 797.781, 804.982 797.824, 805.459 798.407, 810.080 798.900, 812.021 799.044, 812.591 799.094, 812.786 799.198, 813.194 " fill="none" stroke="rgb(0, 0, 0)" stroke-linecap="butt" stroke-linejoin="round" stroke-opacity="1.0" stroke-width="3.0" />
            <path d=" M 478.442, 794.418 478.256, 797.404 477.262, 802.519 475.161, 808.146 475.156, 808.160 475.141, 808.202 474.471, 809.995 474.435, 810.093 474.381, 810.238 473.732, 811.976 473.141, 813.560 472.910, 813.997 472.811, 814.185 472.428, 814.910 471.317, 817.016 470.086, 820.218 468.333, 823.137 465.442, 829.447 462.669, 833.952 462.428, 834.343 462.128, 834.830 462.033, 834.985 " fill="none" stroke="rgb(0, 0, 0)" stroke-linecap="butt" stroke-linejoin="round" stroke-opacity="1.0" stroke-width="3.0" />
            <path d=" M 782.434, 861.153 792.208, 863.267 792.726, 863.379 795.479, 863.369 797.755, 863.362 798.276, 863.360 800.511, 863.352 800.523, 863.352 801.577, 863.348 802.225, 863.296 803.506, 863.192 807.179, 862.895 807.865, 862.839 808.705, 862.688 812.034, 862.407 813.362, 862.294 813.436, 862.288 817.243, 861.966 817.303, 861.961 822.959, 860.314 826.457, 859.469 " fill="none" stroke="rgb(0, 0, 0)" stroke-linecap="butt" stroke-linejoin="round" stroke-opacity="1.0" stroke-width="3.0" />
            <path d=" M 576.976, 519.097 582.378, 520.597 583.528, 520.916 584.529, 521.194 584.706, 521.243 584.954, 521.312 585.318, 520.830 585.966, 519.972 585.981, 519.952 586.056, 519.854 586.258, 519.586 587.806, 518.225 587.877, 518.163 587.993, 518.061 588.014, 518.042 588.043, 518.016 588.045, 518.015 588.218, 517.863 588.552, 517.569 588.728, 517.414 588.876, 517.285 589.009, 517.167 589.113, 517.076 589.141, 517.052 589.172, 517.025 589.189, 517.010 589.241, 516.767 589.332, 516.348 589.368, 516.180 589.421, 515.940 589.456, 515.777 589.647, 514.892 589.723, 514.543 589.956, 513.469 590.042, 513.072 590.117, 512.726 590.160, 512.527 590.337, 511.710 590.340, 511.699 590.743, 509.835 591.013, 508.592 591.082, 508.375 591.106, 508.302 591.109, 508.291 591.118, 508.263 591.150, 508.163 591.264, 507.807 591.484, 507.120 591.888, 505.858 592.224, 504.807 592.627, 501.735 593.956, 497.454 594.982, 494.594 595.011, 494.511 596.003, 491.797 596.007, 491.787 596.011, 491.775 595.132, 490.100 593.996, 487.934 " fill="none" stroke="rgb(0, 0, 0)" stroke-linecap="butt" stroke-linejoin="round" stroke-opacity="1.0" stroke-width="3.0" />
            <path d=" M 762.339, 806.496 762.338, 807.068 762.333, 811.388 763.555, 815.162 767.877, 819.121 771.858, 821.780 778.877, 823.048 786.801, 824.424 790.602, 823.651 791.993, 823.368 798.440, 822.390 " fill="none" stroke="rgb(0, 0, 0)" stroke-linecap="butt" stroke-linejoin="round" stroke-opacity="1.0" stroke-width="3.0" />
            <path d=" M 768.986, 865.090 770.667, 865.830 770.687, 865.839 775.536, 867.974 777.077, 868.652 780.557, 869.589 786.391, 869.814 788.524, 870.355 791.352, 870.870 796.521, 868.312 801.245, 866.769 801.844, 866.588 801.958, 866.562 803.436, 866.219 805.899, 865.647 808.863, 864.543 812.482, 862.633 813.436, 862.288 " fill="none" stroke="rgb(0, 0, 0)" stroke-linecap="butt" stroke-linejoin="round" stroke-opacity="1.0" stroke-width="3.0" />
            <path d=" M 621.741, 608.283 623.605, 610.709 626.003, 613.830 632.440, 621.483 633.818, 623.122 637.561, 627.980 640.932, 630.784 643.684, 633.302 645.310, 634.791 645.752, 635.210 647.826, 637.182 650.661, 641.499 650.695, 641.551 653.077, 645.178 " fill="none" stroke="rgb(0, 0, 0)" stroke-linecap="butt" stroke-linejoin="round" stroke-opacity="1.0" stroke-width="3.0" />
            <path d=" M 643.684, 633.302 643.933, 637.152 644.298, 647.145 644.599, 655.381 644.565, 665.381 644.562, 666.261 644.346, 674.162 645.013, 676.086 646.508, 677.572 649.582, 676.675 650.157, 676.507 " fill="none" stroke="rgb(0, 0, 0)" stroke-linecap="butt" stroke-linejoin="round" stroke-opacity="1.0" stroke-width="3.0" />
            <path d=" M 937.884, 621.031 941.614, 626.499 947.007, 634.919 947.676, 635.963 951.674, 644.315 954.244, 652.359 954.880, 653.767 957.031, 656.880 958.950, 659.657 959.560, 660.539 960.833, 662.382 961.039, 662.681 961.723, 663.670 " fill="none" stroke="rgb(0, 0, 0)" stroke-linecap="butt" stroke-linejoin="round" stroke-opacity="1.0" stroke-width="3.0" />
            <path d=" M 624.049, 907.208 630.380, 904.175 634.042, 902.373 641.397, 898.303 650.351, 893.851 652.001, 893.031 661.160, 889.018 661.881, 888.702 662.874, 888.429 664.822, 887.896 668.907, 886.776 " fill="none" stroke="rgb(0, 0, 0)" stroke-linecap="butt" stroke-linejoin="round" stroke-opacity="1.0" stroke-width="3.0" />
            <path d=" M 529.686, 524.092 528.952, 525.359 528.773, 525.668 528.527, 526.092 528.271, 526.534 527.682, 527.550 527.639, 527.624 527.468, 527.920 527.373, 528.084 527.154, 528.450 524.518, 532.853 523.067, 535.277 521.584, 537.754 521.364, 538.121 519.629, 541.336 517.492, 544.587 512.886, 551.591 507.396, 559.949 506.869, 560.751 506.527, 561.447 505.886, 562.751 505.848, 562.828 503.747, 567.101 " fill="none" stroke="rgb(0, 0, 0)" stroke-linecap="butt" stroke-linejoin="round" stroke-opacity="1.0" stroke-width="3.0" />
            <path d=" M 771.185, 722.892 771.577, 723.202 774.318, 724.641 780.259, 727.966 785.709, 729.283 790.234, 731.917 793.481, 733.421 796.709, 735.037 800.374, 735.938 803.638, 737.279 806.690, 739.361 812.139, 742.066 816.771, 743.980 " fill="none" stroke="rgb(0, 0, 0)" stroke-linecap="butt" stroke-linejoin="round" stroke-opacity="1.0" stroke-width="3.0" />
            <path d=" M 519.191, 850.064 518.249, 852.148 517.246, 854.367 516.959, 855.003 515.060, 858.202 512.573, 862.390 511.511, 863.889 507.936, 868.935 502.626, 876.520 500.874, 878.815 500.746, 878.982 496.640, 884.959 493.304, 889.086 490.576, 892.034 " fill="none" stroke="rgb(0, 0, 0)" stroke-linecap="butt" stroke-linejoin="round" stroke-opacity="1.0" stroke-width="3.0" />
            <path d=" M 795.512, 790.754 795.400, 790.761 791.477, 791.495 790.178, 792.453 789.838, 792.705 787.587, 798.462 787.442, 801.630 787.426, 801.979 787.218, 806.511 787.082, 808.234 786.820, 811.527 786.801, 812.564 789.276, 818.533 795.676, 821.894 798.373, 822.377 798.440, 822.390 798.789, 822.452 803.886, 822.515 804.369, 822.520 806.655, 821.529 " fill="none" stroke="rgb(0, 0, 0)" stroke-linecap="butt" stroke-linejoin="round" stroke-opacity="1.0" stroke-width="3.0" />
            <path d=" M 608.609, 726.496 607.357, 725.511 604.148, 722.988 601.062, 719.769 600.729, 719.422 600.252, 717.856 602.817, 714.776 603.840, 710.415 605.585, 705.358 604.274, 703.150 598.952, 699.995 597.737, 699.617 591.982, 697.829 591.194, 697.584 590.551, 697.510 588.434, 697.269 586.210, 697.799 583.000, 698.564 582.810, 698.609 " fill="none" stroke="rgb(0, 0, 0)" stroke-linecap="butt" stroke-linejoin="round" stroke-opacity="1.0" stroke-width="3.0" />
            <path d=" M 374.667, 778.819 375.381, 780.963 377.397, 786.662 379.816, 791.919 381.974, 796.402 383.831, 799.707 385.348, 802.454 386.772, 804.951 391.599, 810.702 394.735, 814.268 395.584, 815.199 400.100, 820.153 400.641, 820.817 400.750, 820.951 402.805, 823.473 " fill="none" stroke="rgb(0, 0, 0)" stroke-linecap="butt" stroke-linejoin="round" stroke-opacity="1.0" stroke-width="3.0" />
            <path d=" M 659.820, 672.401 661.668, 671.871 662.198, 671.719 664.208, 671.143 671.067, 669.177 676.103, 669.129 678.705, 669.104 681.207, 669.370 686.832, 670.121 691.621, 671.077 698.675, 672.553 698.953, 672.611 703.630, 673.555 706.169, 674.094 709.299, 674.757 713.042, 675.475 713.351, 675.551 " fill="none" stroke="rgb(0, 0, 0)" stroke-linecap="butt" stroke-linejoin="round" stroke-opacity="1.0" stroke-width="3.0" />
            <path d=" M 996.928, 758.375 997.998, 756.953 1000.765, 753.277 1003.079, 749.654 1006.977, 740.445 1007.408, 739.425 1008.788, 734.809 1009.355, 732.695 1012.051, 723.065 1014.201, 715.388 1016.271, 708.631 1016.236, 707.744 " fill="none" stroke="rgb(0, 0, 0)" stroke-linecap="butt" stroke-linejoin="round" stroke-opacity="1.0" stroke-width="3.0" />
            <path d=" M 608.010, 549.140 609.131, 549.913 609.132, 549.914 611.021, 551.216 611.160, 551.312 613.305, 552.405 613.992, 552.633 614.015, 552.641 614.292, 552.732 616.722, 553.537 619.880, 553.955 621.599, 554.182 623.890, 554.397 631.245, 554.305 631.303, 554.305 631.730, 554.299 631.741, 554.299 632.162, 554.294 632.390, 554.291 633.393, 554.279 633.803, 554.336 633.857, 554.344 634.724, 554.466 635.932, 554.636 635.987, 554.644 636.262, 554.682 636.808, 554.759 639.067, 555.078 644.729, 552.927 644.857, 552.542 644.872, 552.499 644.951, 552.262 645.022, 552.049 645.692, 550.035 644.466, 548.714 644.438, 548.684 643.366, 547.528 642.404, 546.492 641.886, 545.957 641.741, 545.824 637.330, 541.784 636.055, 540.472 " fill="none" stroke="rgb(0, 0, 0)" stroke-linecap="butt" stroke-linejoin="round" stroke-opacity="1.0" stroke-width="3.0" />
            <path d=" M 818.506, 659.668 811.773, 660.024 808.900, 661.160 807.032, 662.746 806.225, 664.124 805.962, 664.572 804.648, 666.813 803.660, 669.997 802.998, 672.131 802.642, 673.532 801.862, 676.602 801.968, 679.938 802.292, 682.068 803.460, 683.407 805.827, 684.917 805.829, 684.918 806.197, 685.152 807.457, 685.956 813.930, 688.553 818.463, 689.067 818.955, 689.122 819.696, 689.206 822.635, 690.159 " fill="none" stroke="rgb(0, 0, 0)" stroke-linecap="butt" stroke-linejoin="round" stroke-opacity="1.0" stroke-width="3.0" />
            <path d=" M 716.557, 816.445 709.783, 817.152 704.955, 817.395 699.211, 817.787 694.012, 819.074 690.321, 819.397 686.299, 820.828 680.417, 821.923 673.201, 824.000 669.746, 825.122 665.829, 826.743 662.634, 828.064 " fill="none" stroke="rgb(0, 0, 0)" stroke-linecap="butt" stroke-linejoin="round" stroke-opacity="1.0" stroke-width="3.0" />
            <path d=" M 1018.044, 699.279 1018.818, 699.278 1019.922, 697.775 1019.997, 697.673 1021.977, 693.856 1022.535, 691.925 1023.316, 689.934 1021.986, 684.909 1020.427, 678.214 1017.227, 670.639 1014.826, 665.029 1013.520, 661.691 1012.477, 659.361 1009.955, 654.172 1005.479, 648.776 1003.604, 648.285 " fill="none" stroke="rgb(0, 0, 0)" stroke-linecap="butt" stroke-linejoin="round" stroke-opacity="1.0" stroke-width="3.0" />
            <path d=" M 562.679, 524.464 565.389, 523.806 565.418, 523.798 568.783, 522.982 568.823, 522.972 568.876, 522.959 568.909, 522.951 569.564, 522.861 569.936, 522.810 570.007, 522.800 570.978, 522.666 571.508, 522.593 571.559, 522.586 573.944, 522.257 580.097, 521.410 581.691, 522.136 583.229, 522.836 583.486, 522.953 583.811, 523.101 583.956, 523.167 584.424, 523.380 585.906, 524.055 585.779, 525.132 585.069, 531.135 584.550, 535.528 584.122, 536.527 583.801, 537.273 583.765, 537.358 582.795, 539.617 582.744, 539.735 582.263, 540.856 581.205, 542.163 578.457, 545.557 578.081, 550.893 577.911, 548.333 577.406, 545.506 577.141, 544.018 577.079, 543.673 " fill="none" stroke="rgb(0, 0, 0)" stroke-linecap="butt" stroke-linejoin="round" stroke-opacity="1.0" stroke-width="3.0" />
            <path d=" M 903.185, 647.412 898.964, 645.671 890.738, 644.736 884.731, 643.961 879.424, 644.213 878.032, 644.995 877.807, 646.693 878.446, 649.541 878.503, 650.007 878.718, 651.780 886.310, 657.368 890.630, 662.278 890.707, 662.366 890.734, 662.397 891.131, 662.849 893.757, 665.834 894.980, 667.953 895.341, 668.239 898.717, 670.909 899.499, 671.527 " fill="none" stroke="rgb(0, 0, 0)" stroke-linecap="butt" stroke-linejoin="round" stroke-opacity="1.0" stroke-width="3.0" />
            <path d=" M 986.415, 632.505 979.549, 625.234 977.703, 623.280 969.709, 617.271 967.446, 615.570 958.647, 611.285 957.550, 611.044 950.962, 611.109 947.199, 611.451 942.106, 612.154 940.471, 612.918 937.798, 616.546 937.850, 619.243 937.853, 619.391 937.854, 619.446 937.884, 621.031 937.741, 619.549 937.850, 619.243 " fill="none" stroke="rgb(0, 0, 0)" stroke-linecap="butt" stroke-linejoin="round" stroke-opacity="1.0" stroke-width="3.0" />
            <path d=" M 611.219, 543.135 612.655, 543.061 613.034, 543.041 615.345, 542.922 617.411, 542.815 617.492, 542.811 617.747, 542.798 621.671, 542.595 621.751, 542.591 621.901, 542.583 622.030, 542.576 622.880, 542.532 622.936, 542.529 626.617, 542.548 627.622, 542.553 628.600, 542.558 628.805, 542.559 629.284, 542.562 629.638, 542.564 629.646, 542.564 630.668, 542.569 630.705, 542.569 631.412, 542.573 631.717, 542.574 631.812, 542.575 632.316, 542.577 633.130, 542.119 633.229, 542.063 633.235, 542.059 633.612, 541.848 633.670, 541.815 633.675, 541.812 634.352, 541.431 636.055, 540.472 636.692, 540.113 635.414, 536.432 633.944, 535.535 633.935, 535.530 631.329, 533.939 629.720, 532.957 629.523, 532.836 629.449, 532.791 625.294, 530.255 624.024, 529.463 622.877, 528.748 617.836, 525.604 614.562, 525.112 610.472, 524.497 609.237, 524.530 606.722, 524.598 602.659, 524.708 " fill="none" stroke="rgb(0, 0, 0)" stroke-linecap="butt" stroke-linejoin="round" stroke-opacity="1.0" stroke-width="3.0" />
            <path d=" M 876.652, 767.149 873.499, 767.106 863.531, 767.895 859.180, 768.239 856.531, 768.409 852.833, 771.134 852.319, 773.532 853.596, 775.244 855.116, 777.283 856.290, 778.245 860.742, 780.902 862.506, 781.955 863.067, 782.328 871.395, 787.865 871.552, 787.969 874.578, 789.568 877.019, 790.233 879.626, 789.890 880.642, 789.635 881.412, 789.442 883.369, 789.103 883.994, 788.994 887.588, 788.370 " fill="none" stroke="rgb(0, 0, 0)" stroke-linecap="butt" stroke-linejoin="round" stroke-opacity="1.0" stroke-width="3.0" />
            <path d=" M 439.473, 537.415 440.112, 535.460 438.622, 533.133 436.491, 531.530 433.750, 530.044 433.596, 529.972 430.098, 528.892 429.175, 528.612 425.270, 529.179 422.823, 529.477 420.101, 529.809 418.719, 529.931 413.615, 530.379 410.868, 530.790 407.159, 532.301 405.767, 532.904 400.719, 536.419 398.312, 539.954 396.989, 547.298 397.377, 551.681 398.737, 554.831 399.444, 556.356 401.044, 558.489 " fill="none" stroke="rgb(0, 0, 0)" stroke-linecap="butt" stroke-linejoin="round" stroke-opacity="1.0" stroke-width="3.0" />
            <path d=" M 559.777, 691.465 560.499, 690.545 560.671, 690.326 561.045, 689.850 561.505, 689.264 563.135, 688.804 564.462, 688.430 564.475, 688.427 564.623, 688.385 564.639, 688.380 564.750, 688.349 564.761, 688.346 564.763, 688.346 564.852, 688.369 565.087, 688.429 565.768, 688.601 565.978, 688.655 567.341, 689.000 567.359, 689.005 567.487, 689.037 567.535, 689.049 567.575, 689.059 567.701, 689.091 567.706, 689.093 567.763, 689.107 567.767, 689.108 567.778, 689.111 567.818, 689.121 567.907, 689.144 568.141, 689.203 568.641, 689.330 568.892, 689.394 571.077, 689.948 571.368, 690.022 571.636, 690.090 572.271, 690.153 573.692, 690.295 576.528, 690.579 578.025, 690.465 581.535, 690.197 581.698, 690.184 581.736, 690.181 582.634, 690.113 583.009, 690.084 587.145, 688.852 588.721, 688.150 598.702, 687.535 598.922, 687.522 600.446, 686.769 601.004, 680.260 600.521, 679.700 600.063, 679.170 599.414, 678.417 597.639, 676.361 593.062, 673.277 589.595, 671.193 588.591, 670.525 584.941, 668.096 584.858, 668.041 584.738, 667.961 " fill="none" stroke="rgb(0, 0, 0)" stroke-linecap="butt" stroke-linejoin="round" stroke-opacity="1.0" stroke-width="3.0" />
            <path d=" M 403.778, 560.304 402.699, 561.869 402.581, 562.040 402.387, 562.323 402.341, 562.388 402.337, 562.394 400.386, 565.226 395.869, 570.931 392.190, 577.733 389.077, 585.234 388.409, 588.898 388.041, 591.883 386.888, 601.816 386.725, 603.215 386.198, 609.493 386.703, 612.982 386.983, 614.915 387.007, 615.076 387.203, 616.434 387.322, 617.253 387.412, 617.877 387.425, 617.963 387.450, 618.138 387.535, 618.728 387.805, 620.590 387.874, 620.688 388.100, 621.012 388.392, 621.430 388.457, 621.524 388.956, 622.171 389.327, 622.653 389.425, 622.780 389.467, 622.834 389.526, 622.911 389.538, 622.927 389.590, 622.994 389.596, 623.001 389.618, 623.030 390.141, 623.708 390.949, 624.757 " fill="none" stroke="rgb(0, 0, 0)" stroke-linecap="butt" stroke-linejoin="round" stroke-opacity="1.0" stroke-width="3.0" />
            <path d=" M 647.542, 831.954 644.091, 832.709 637.486, 834.516 636.512, 834.782 634.236, 835.040 633.357, 835.239 633.248, 835.263 630.432, 835.900 625.533, 837.052 622.615, 837.674 620.599, 838.114 620.554, 838.123 620.302, 838.178 617.406, 838.810 610.621, 839.920 603.157, 842.050 602.623, 842.202 598.205, 843.355 593.291, 844.623 590.160, 845.907 587.066, 846.887 585.160, 847.491 585.062, 847.522 584.954, 847.556 584.873, 847.582 584.872, 847.582 584.725, 847.629 580.588, 848.939 579.453, 849.299 " fill="none" stroke="rgb(0, 0, 0)" stroke-linecap="butt" stroke-linejoin="round" stroke-opacity="1.0" stroke-width="3.0" />
            <path d=" M 602.430, 584.016 603.995, 585.094 604.414, 585.383 605.368, 586.040 605.658, 586.239 605.810, 586.345 605.873, 586.388 605.883, 586.395 605.951, 586.441 605.977, 586.460 606.056, 586.514 606.343, 586.711 606.442, 586.780 606.611, 586.896 607.417, 587.452 607.816, 587.726 607.893, 587.779 608.227, 588.009 608.747, 588.368 609.142, 588.640 609.827, 589.111 617.678, 591.978 619.512, 592.088 620.309, 592.136 622.898, 592.292 622.992, 592.297 623.155, 592.307 623.635, 592.336 623.705, 592.314 625.497, 591.757 626.682, 591.389 628.719, 587.796 628.825, 587.609 629.318, 586.907 629.781, 586.247 629.839, 586.156 631.059, 584.226 633.483, 580.395 633.827, 579.852 634.031, 579.529 634.923, 577.340 635.555, 575.788 635.711, 575.405 636.763, 569.600 638.982, 565.223 643.835, 562.259 646.131, 560.857 647.320, 559.976 648.679, 558.969 649.314, 557.834 650.037, 556.541 650.043, 556.249 649.908, 555.837 " fill="none" stroke="rgb(0, 0, 0)" stroke-linecap="butt" stroke-linejoin="round" stroke-opacity="1.0" stroke-width="3.0" />
            <path d=" M 909.627, 750.651 904.537, 751.552 902.284, 751.951 898.841, 752.204 895.549, 752.467 888.571, 753.598 882.110, 755.863 872.531, 758.734 872.297, 758.804 872.735, 761.768 874.291, 765.870 876.652, 767.149 877.215, 767.454 880.378, 768.907 884.312, 770.537 885.072, 770.852 885.097, 770.862 885.129, 770.875 885.158, 770.887 885.289, 770.942 885.312, 770.951 885.570, 771.058 885.594, 771.068 893.330, 774.273 895.337, 774.976 897.805, 775.003 " fill="none" stroke="rgb(0, 0, 0)" stroke-linecap="butt" stroke-linejoin="round" stroke-opacity="1.0" stroke-width="3.0" />
            <path d=" M 954.724, 801.504 961.403, 796.318 969.301, 790.184 975.889, 785.068 981.199, 779.759 986.180, 774.696 990.069, 769.898 995.011, 762.164 996.312, 759.694 991.972, 765.577 987.988, 770.697 " fill="none" stroke="rgb(0, 0, 0)" stroke-linecap="butt" stroke-linejoin="round" stroke-opacity="1.0" stroke-width="3.0" />
            <path d=" M 919.139, 729.963 918.611, 730.124 914.504, 731.381 914.196, 731.475 906.938, 734.346 900.010, 736.806 894.250, 740.454 893.093, 743.717 898.183, 747.967 907.809, 748.676 909.848, 748.826 911.903, 748.977 917.558, 748.809 923.127, 748.643 930.583, 747.654 935.775, 746.965 " fill="none" stroke="rgb(0, 0, 0)" stroke-linecap="butt" stroke-linejoin="round" stroke-opacity="1.0" stroke-width="3.0" />
            <path d=" M 806.225, 664.124 805.382, 663.516 800.733, 662.880 798.986, 663.192 794.325, 664.026 789.090, 663.876 784.681, 664.178 780.822, 666.652 780.154, 667.425 778.616, 670.073 778.296, 670.623 776.272, 675.681 775.831, 677.231 775.826, 677.251 774.978, 680.231 775.559, 684.606 777.079, 686.249 778.361, 687.635 779.607, 688.228 784.178, 690.402 788.724, 692.255 793.616, 693.827 796.220, 693.872 798.059, 693.499 799.329, 693.053 800.708, 692.569 802.668, 691.880 " fill="none" stroke="rgb(0, 0, 0)" stroke-linecap="butt" stroke-linejoin="round" stroke-opacity="1.0" stroke-width="3.0" />
            <path d=" M 541.217, 591.982 542.164, 592.508 543.220, 593.095 543.293, 593.135 543.751, 593.389 544.621, 593.872 544.761, 593.950 545.161, 594.172 545.178, 594.182 545.361, 594.283 547.465, 595.451 548.087, 595.797 548.369, 595.910 554.367, 598.320 556.184, 598.519 560.029, 598.942 561.231, 599.074 561.292, 599.081 561.507, 599.104 561.711, 599.127 562.035, 599.163 563.320, 599.304 563.441, 599.317 565.788, 599.575 566.982, 599.607 567.367, 599.617 571.294, 599.721 575.258, 599.827 575.799, 599.841 575.799, 599.841 575.977, 599.846 576.278, 599.854 579.024, 599.901 581.198, 597.924 581.733, 594.071 579.547, 590.651 578.435, 589.341 578.407, 589.308 578.142, 588.996 578.123, 588.973 576.180, 586.683 573.531, 584.731 566.549, 580.289 565.847, 579.843 559.578, 576.728 558.447, 576.166 " fill="none" stroke="rgb(0, 0, 0)" stroke-linecap="butt" stroke-linejoin="round" stroke-opacity="1.0" stroke-width="3.0" />
            <path d=" M 484.769, 482.720 481.640, 483.029 476.787, 484.691 470.705, 487.110 467.495, 488.782 461.701, 491.664 458.061, 496.056 456.751, 498.337 455.461, 501.884 453.802, 505.902 451.078, 510.260 448.862, 514.083 447.660, 517.115 447.008, 519.721 444.821, 523.714 441.354, 532.384 440.638, 535.152 439.961, 537.774 " fill="none" stroke="rgb(0, 0, 0)" stroke-linecap="butt" stroke-linejoin="round" stroke-opacity="1.0" stroke-width="3.0" />
            <path d=" M 953.151, 662.072 946.611, 660.418 937.761, 655.763 937.149, 655.441 931.991, 654.090 926.630, 647.774 918.876, 643.711 910.916, 640.997 907.119, 640.431 900.828, 641.994 902.165, 644.558 903.739, 647.578 903.787, 647.660 904.832, 649.437 906.848, 652.866 906.979, 653.090 908.227, 655.072 908.227, 655.073 910.335, 658.423 " fill="none" stroke="rgb(0, 0, 0)" stroke-linecap="butt" stroke-linejoin="round" stroke-opacity="1.0" stroke-width="3.0" />
            <path d=" M 609.320, 862.233 607.248, 866.355 603.045, 875.430 602.562, 876.475 601.047, 879.785 598.655, 884.593 595.603, 893.534 595.399, 896.853 595.948, 899.840 599.434, 905.577 603.617, 907.717 607.686, 911.296 613.081, 911.667 621.680, 908.736 624.049, 907.208 626.725, 905.483 " fill="none" stroke="rgb(0, 0, 0)" stroke-linecap="butt" stroke-linejoin="round" stroke-opacity="1.0" stroke-width="3.0" />
            <path d=" M 692.319, 893.606 696.407, 893.397 700.944, 891.254 703.316, 889.658 709.417, 886.363 712.000, 884.488 714.642, 883.598 718.077, 883.223 718.705, 882.894 726.341, 878.593 728.836, 877.189 735.942, 873.797 740.230, 871.987 744.270, 870.968 751.400, 867.812 756.654, 866.401 760.284, 864.913 760.560, 864.800 760.811, 864.697 760.856, 864.678 766.604, 863.253 " fill="none" stroke="rgb(0, 0, 0)" stroke-linecap="butt" stroke-linejoin="round" stroke-opacity="1.0" stroke-width="3.0" />
            <path d=" M 603.157, 842.050 606.566, 839.062 613.366, 831.730 613.976, 831.072 617.259, 825.746 618.062, 824.182 619.862, 819.442 620.606, 816.713 621.766, 809.623 622.246, 807.658 620.547, 802.954 618.625, 801.372 611.219, 794.579 607.018, 790.069 603.919, 786.462 602.184, 785.071 599.154, 782.659 599.083, 782.602 593.659, 778.283 " fill="none" stroke="rgb(0, 0, 0)" stroke-linecap="butt" stroke-linejoin="round" stroke-opacity="1.0" stroke-width="3.0" />
            <path d=" M 601.062, 719.769 606.723, 719.738 608.451, 719.628 615.183, 715.861 623.194, 712.690 628.141, 710.185 630.411, 708.993 636.415, 705.974 638.347, 704.906 641.576, 702.615 642.995, 700.460 644.579, 693.702 644.438, 684.795 642.704, 678.446 640.659, 673.967 637.941, 670.419 635.030, 666.502 " fill="none" stroke="rgb(0, 0, 0)" stroke-linecap="butt" stroke-linejoin="round" stroke-opacity="1.0" stroke-width="3.0" />
            <path d=" M 432.804, 720.826 433.245, 721.246 437.559, 725.363 445.788, 731.045 446.092, 731.255 450.654, 735.190 457.586, 740.834 459.397, 742.918 465.317, 749.732 468.982, 755.242 472.234, 760.989 474.641, 766.487 476.716, 773.441 477.151, 776.213 478.157, 784.539 478.255, 787.948 478.375, 792.086 478.442, 794.418 478.512, 796.854 " fill="none" stroke="rgb(0, 0, 0)" stroke-linecap="butt" stroke-linejoin="round" stroke-opacity="1.0" stroke-width="3.0" />
            <path d=" M 358.760, 710.610 354.440, 718.398 352.151, 723.901 348.954, 730.518 347.983, 734.595 346.552, 738.780 345.797, 743.520 346.175, 749.687 347.382, 755.337 350.060, 760.654 351.879, 764.740 354.035, 767.469 356.474, 770.467 360.406, 776.358 363.925, 779.998 366.471, 783.133 368.977, 783.163 372.872, 781.989 374.667, 778.819 374.874, 778.453 374.934, 778.348 374.942, 778.333 375.079, 778.091 375.158, 777.951 375.207, 777.866 375.388, 777.545 375.602, 777.302 375.833, 777.039 375.968, 776.885 376.038, 776.805 376.913, 775.808 378.248, 774.499 378.254, 774.494 379.449, 773.322 380.051, 772.732 " fill="none" stroke="rgb(0, 0, 0)" stroke-linecap="butt" stroke-linejoin="round" stroke-opacity="1.0" stroke-width="3.0" />
            <path d=" M 431.807, 876.112 431.332, 876.676 431.109, 878.360 431.079, 880.154 431.938, 881.587 432.201, 883.696 432.723, 885.787 433.141, 888.030 433.844, 890.250 435.799, 894.241 436.679, 896.863 439.546, 899.690 443.166, 903.889 448.128, 907.578 456.516, 913.023 456.705, 913.146 463.766, 916.016 469.064, 917.499 476.261, 918.589 479.992, 918.533 486.566, 918.232 495.214, 916.579 501.614, 915.403 505.743, 914.405 507.218, 913.397 509.104, 910.774 509.575, 909.489 509.388, 908.372 509.347, 908.131 509.347, 908.129 509.321, 907.974 509.265, 907.638 " fill="none" stroke="rgb(0, 0, 0)" stroke-linecap="butt" stroke-linejoin="round" stroke-opacity="1.0" stroke-width="3.0" />
            <path d=" M 642.460, 496.565 648.056, 496.154 655.614, 495.598 658.985, 494.346 667.091, 495.055 676.128, 493.854 676.188, 491.644 672.624, 489.206 662.892, 486.904 661.465, 486.567 651.622, 484.804 650.690, 484.638 642.923, 482.155 634.343, 480.756 624.409, 479.610 620.366, 479.144 610.372, 478.797 604.114, 478.580 " fill="none" stroke="rgb(0, 0, 0)" stroke-linecap="butt" stroke-linejoin="round" stroke-opacity="1.0" stroke-width="3.0" />
            <path d=" M 628.431, 595.558 631.379, 597.201 638.374, 602.357 644.314, 606.429 645.616, 607.398 648.338, 609.423 652.548, 611.766 657.945, 615.523 661.707, 617.547 665.597, 620.185 670.614, 623.613 676.162, 627.063 676.680, 627.494 679.466, 629.275 682.749, 631.780 688.119, 635.203 690.064, 636.892 694.140, 640.141 698.025, 643.464 700.103, 644.668 700.780, 645.061 701.289, 645.356 701.860, 645.687 702.153, 645.856 709.436, 651.860 715.857, 659.527 717.855, 661.912 " fill="none" stroke="rgb(0, 0, 0)" stroke-linecap="butt" stroke-linejoin="round" stroke-opacity="1.0" stroke-width="3.0" />
            <path d=" M 734.882, 641.967 726.797, 636.636 718.356, 631.275 715.915, 629.725 708.295, 623.761 700.436, 618.009 694.704, 613.933 686.406, 608.352 684.408, 607.009 678.286, 603.320 669.280, 598.974 668.298, 598.500 667.928, 598.322 661.502, 595.544 657.414, 593.777 652.265, 591.739 648.182, 590.182 640.417, 587.242 634.551, 585.234 633.505, 584.932 " fill="none" stroke="rgb(0, 0, 0)" stroke-linecap="butt" stroke-linejoin="round" stroke-opacity="1.0" stroke-width="3.0" />
            <path d=" M 627.503, 860.211 632.590, 860.322 636.190, 860.402 646.095, 859.022 647.927, 858.767 657.780, 857.062 659.013, 856.849 668.830, 854.946 670.436, 854.635 676.724, 854.003 681.065, 853.158 690.977, 851.834 691.911, 851.710 694.465, 851.369 701.263, 850.792 709.360, 850.105 713.836, 849.725 721.393, 849.446 724.846, 849.695 726.750, 849.832 731.449, 850.171 736.922, 851.386 744.529, 852.722 " fill="none" stroke="rgb(0, 0, 0)" stroke-linecap="butt" stroke-linejoin="round" stroke-opacity="1.0" stroke-width="3.0" />
            <path d=" M 603.140, 489.326 605.701, 487.265 607.214, 485.838 608.545, 483.485 608.287, 481.273 606.307, 479.723 604.114, 478.580 602.499, 477.739 592.932, 474.831 591.755, 474.474 582.902, 473.823 580.914, 474.371 574.164, 476.578 568.872, 478.307 566.492, 477.912 565.970, 477.895 562.959, 477.795 559.206, 478.555 559.075, 478.581 558.983, 478.600 555.778, 479.249 554.879, 479.430 554.138, 479.338 546.752, 478.414 543.052, 477.951 541.897, 477.794 541.889, 477.793 540.406, 477.593 538.741, 477.367 529.735, 476.712 523.913, 476.481 521.427, 476.637 511.621, 478.595 508.735, 479.172 507.319, 479.607 502.746, 481.179 499.818, 482.187 " fill="none" stroke="rgb(0, 0, 0)" stroke-linecap="butt" stroke-linejoin="round" stroke-opacity="1.0" stroke-width="3.0" />
            <path d=" M 580.588, 848.939 578.375, 849.477 577.668, 849.649 577.534, 849.682 576.172, 850.013 571.591, 851.307 570.866, 851.533 569.407, 851.988 568.939, 852.134 567.163, 852.687 561.912, 853.931 561.735, 853.973 558.573, 855.283 555.706, 856.055 553.481, 856.804 552.804, 857.276 552.282, 857.640 552.026, 857.845 549.738, 859.683 549.605, 860.107 549.267, 861.180 547.448, 866.955 548.372, 868.688 551.336, 870.191 553.439, 870.164 557.693, 869.408 558.360, 869.128 558.363, 869.127 559.769, 868.536 559.771, 868.535 560.309, 868.308 563.581, 867.951 566.625, 867.021 566.649, 867.013 568.655, 866.633 575.578, 865.318 581.917, 864.556 591.874, 863.636 593.721, 863.465 599.635, 863.120 608.724, 862.227 609.320, 862.233 609.641, 862.237 609.707, 862.237 612.113, 862.262 615.866, 861.876 615.925, 861.870 624.223, 861.018 632.590, 860.322 " fill="none" stroke="rgb(0, 0, 0)" stroke-linecap="butt" stroke-linejoin="round" stroke-opacity="1.0" stroke-width="3.0" />
            <path d=" M 552.597, 656.288 552.877, 656.139 552.937, 656.108 554.235, 655.418 554.356, 655.354 554.664, 655.191 554.703, 655.170 554.848, 655.093 554.896, 655.068 554.897, 655.067 554.975, 655.026 555.005, 655.010 555.158, 654.929 555.319, 654.843 555.396, 654.803 555.601, 654.808 555.604, 654.808 555.866, 654.816 556.467, 654.832 557.549, 654.862 557.673, 654.865 557.892, 654.871 558.270, 654.882 558.944, 654.900 559.497, 654.916 559.581, 654.918 559.723, 654.922 559.813, 654.924 559.993, 654.929 560.846, 654.953 560.873, 654.959 563.763, 655.624 565.649, 656.058 565.826, 656.099 565.844, 656.103 566.011, 656.141 566.531, 656.261 566.634, 656.284 566.775, 656.317 567.107, 656.393 567.737, 656.538 567.927, 656.582 568.065, 656.614 573.140, 657.781 573.600, 657.870 573.607, 657.871 575.860, 658.306 578.080, 658.735 578.109, 658.741 581.326, 659.362 582.432, 659.353 587.537, 659.313 587.672, 659.312 588.377, 659.429 592.920, 660.182 593.056, 660.205 593.126, 660.216 593.215, 660.231 593.229, 660.234 593.293, 660.244 593.317, 660.248 598.022, 661.028 601.939, 661.678 602.514, 661.773 602.638, 661.794 602.807, 661.822 603.434, 661.926 606.904, 662.501 616.807, 663.888 622.564, 664.695 623.764, 664.863 623.856, 664.876 624.188, 664.923 624.871, 665.018 632.382, 666.499 634.487, 666.502 634.502, 666.502 635.030, 666.502 637.329, 666.506 640.882, 662.587 640.180, 657.702 637.096, 655.323 628.788, 650.460 624.738, 648.056 624.415, 647.864 624.386, 647.846 621.120, 645.908 621.116, 645.905 616.128, 642.944 612.244, 640.714 606.593, 637.471 601.252, 634.586 599.171, 633.462 598.895, 633.313 598.745, 633.232 598.720, 633.219 595.481, 631.469 594.122, 630.760 592.170, 629.741 589.610, 628.406 587.380, 627.242 587.087, 627.089 586.718, 626.897 586.631, 626.852 584.742, 626.234 584.652, 626.204 584.575, 626.179 575.071, 623.070 570.786, 621.668 570.238, 621.491 569.404, 621.223 569.314, 621.194 566.882, 620.410 563.159, 619.211 559.271, 618.434 558.847, 618.349 557.487, 618.078 556.796, 617.939 556.782, 617.937 556.724, 617.925 556.721, 617.924 556.704, 617.921 555.448, 617.670 554.332, 617.447 554.244, 617.429 553.963, 617.373 " fill="none" stroke="rgb(0, 0, 0)" stroke-linecap="butt" stroke-linejoin="round" stroke-opacity="1.0" stroke-width="3.0" />
        </g>
    </g>
</svg>
