<?xml version='1.0' encoding='ascii'?>
<svg xmlns="http://www.w3.org/2000/svg" height="1280" version="1.1" width="1280">
    <g id="RenderLayer_LineSet" inkscape:groupmode="lineset" inkscape:label="RenderLayer_LineSet" xmlns:inkscape="http://www.inkscape.org/namespaces/inkscape">
        <g id="strokes" inkscape:groupmode="layer" inkscape:label="strokes" xmlns:inkscape="http://www.inkscape.org/namespaces/inkscape">
            <path d=" M 568.782, 773.167 568.767, 772.915 568.740, 772.452 568.561, 769.409 568.578, 769.067 568.644, 767.767 568.718, 766.312 568.991, 760.927 570.270, 757.560 570.474, 753.359 " fill="none" stroke="rgb(0, 0, 0)" stroke-linecap="butt" stroke-linejoin="round" stroke-opacity="1.0" stroke-width="3.0" />
            <path d=" M 460.826, 816.472 460.974, 814.342 461.923, 809.756 463.476, 804.848 465.927, 799.347 467.057, 797.326 " fill="none" stroke="rgb(0, 0, 0)" stroke-linecap="butt" stroke-linejoin="round" stroke-opacity="1.0" stroke-width="3.0" />
            <path d=" M 601.315, 361.124 599.592, 356.680 603.794, 354.219 604.589, 353.753 612.736, 348.104 " fill="none" stroke="rgb(0, 0, 0)" stroke-linecap="butt" stroke-linejoin="round" stroke-opacity="1.0" stroke-width="3.0" />
            <path d=" M 526.446, 296.744 519.146, 300.258 513.983, 303.606 510.560, 306.865 509.252, 308.110 " fill="none" stroke="rgb(0, 0, 0)" stroke-linecap="butt" stroke-linejoin="round" stroke-opacity="1.0" stroke-width="3.0" />
            <path d=" M 813.037, 746.173 814.703, 747.224 818.586, 748.872 819.750, 749.366 821.163, 749.498 824.577, 749.815 829.242, 751.706 829.665, 751.878 830.088, 752.450 831.483, 754.337 " fill="none" stroke="rgb(0, 0, 0)" stroke-linecap="butt" stroke-linejoin="round" stroke-opacity="1.0" stroke-width="3.0" />
            <path d=" M 606.447, 686.076 606.292, 682.299 606.080, 677.150 606.192, 675.730 605.780, 665.738 605.754, 665.116 " fill="none" stroke="rgb(0, 0, 0)" stroke-linecap="butt" stroke-linejoin="round" stroke-opacity="1.0" stroke-width="3.0" />
            <path d=" M 813.980, 776.409 812.792, 778.895 812.787, 779.094 812.763, 779.937 812.756, 780.173 812.924, 782.652 812.953, 783.082 812.665, 783.413 809.215, 787.374 806.257, 790.340 805.260, 794.605 " fill="none" stroke="rgb(0, 0, 0)" stroke-linecap="butt" stroke-linejoin="round" stroke-opacity="1.0" stroke-width="3.0" />
            <path d=" M 358.145, 763.573 357.007, 770.058 357.062, 773.088 357.040, 774.207 356.998, 776.337 361.120, 783.777 " fill="none" stroke="rgb(0, 0, 0)" stroke-linecap="butt" stroke-linejoin="round" stroke-opacity="1.0" stroke-width="3.0" />
            <path d=" M 605.150, 435.280 609.390, 434.094 609.412, 434.088 612.651, 433.182 614.051, 432.774 616.446, 432.078 624.578, 426.774 " fill="none" stroke="rgb(0, 0, 0)" stroke-linecap="butt" stroke-linejoin="round" stroke-opacity="1.0" stroke-width="3.0" />
            <path d=" M 773.974, 770.277 769.642, 770.242 766.469, 772.024 763.688, 775.475 760.827, 779.048 760.257, 781.012 760.738, 783.419 " fill="none" stroke="rgb(0, 0, 0)" stroke-linecap="butt" stroke-linejoin="round" stroke-opacity="1.0" stroke-width="3.0" />
            <path d=" M 794.888, 683.096 792.522, 682.533 791.248, 682.646 791.127, 682.656 791.081, 682.660 790.970, 682.670 790.648, 682.698 790.612, 682.702 790.540, 682.708 790.428, 682.718 790.197, 682.738 789.991, 682.756 787.234, 682.999 785.883, 684.911 784.125, 687.497 785.518, 694.548 785.546, 694.692 785.729, 695.618 " fill="none" stroke="rgb(0, 0, 0)" stroke-linecap="butt" stroke-linejoin="round" stroke-opacity="1.0" stroke-width="3.0" />
            <path d=" M 359.777, 809.309 360.352, 814.400 360.161, 817.022 360.024, 820.586 362.136, 830.360 362.179, 830.558 " fill="none" stroke="rgb(0, 0, 0)" stroke-linecap="butt" stroke-linejoin="round" stroke-opacity="1.0" stroke-width="3.0" />
            <path d=" M 501.670, 313.821 501.650, 313.820 497.076, 313.541 493.521, 316.015 492.136, 317.059 488.588, 323.128 487.364, 326.908 " fill="none" stroke="rgb(0, 0, 0)" stroke-linecap="butt" stroke-linejoin="round" stroke-opacity="1.0" stroke-width="3.0" />
            <path d=" M 671.232, 779.536 671.605, 779.139 673.399, 777.226 676.935, 774.363 684.712, 773.890 688.465, 774.911 690.631, 775.777 " fill="none" stroke="rgb(0, 0, 0)" stroke-linecap="butt" stroke-linejoin="round" stroke-opacity="1.0" stroke-width="3.0" />
            <path d=" M 371.767, 736.814 375.319, 739.128 377.870, 737.992 379.547, 732.249 381.398, 729.129 385.326, 725.797 " fill="none" stroke="rgb(0, 0, 0)" stroke-linecap="butt" stroke-linejoin="round" stroke-opacity="1.0" stroke-width="3.0" />
            <path d=" M 639.123, 791.493 639.085, 791.411 638.217, 789.541 635.792, 784.316 633.140, 779.401 633.035, 779.238 632.952, 779.109 632.476, 778.368 632.356, 778.181 632.042, 777.693 631.752, 777.242 630.219, 774.857 630.114, 774.694 628.845, 772.720 628.830, 772.696 628.772, 772.606 628.637, 772.395 628.629, 772.384 628.574, 772.299 628.555, 772.268 " fill="none" stroke="rgb(0, 0, 0)" stroke-linecap="butt" stroke-linejoin="round" stroke-opacity="1.0" stroke-width="3.0" />
            <path d=" M 794.836, 744.184 794.621, 745.243 794.597, 745.357 794.048, 745.515 790.686, 746.482 787.954, 749.235 785.706, 755.201 785.595, 757.535 785.397, 761.660 " fill="none" stroke="rgb(0, 0, 0)" stroke-linecap="butt" stroke-linejoin="round" stroke-opacity="1.0" stroke-width="3.0" />
            <path d=" M 854.637, 604.535 852.404, 603.557 851.932, 603.283 856.688, 610.611 858.331, 615.243 859.472, 618.460 860.133, 620.322 " fill="none" stroke="rgb(0, 0, 0)" stroke-linecap="butt" stroke-linejoin="round" stroke-opacity="1.0" stroke-width="3.0" />
            <path d=" M 889.100, 574.487 889.604, 575.454 892.117, 580.272 895.318, 583.673 902.352, 588.859 902.818, 589.400 903.790, 590.529 " fill="none" stroke="rgb(0, 0, 0)" stroke-linecap="butt" stroke-linejoin="round" stroke-opacity="1.0" stroke-width="3.0" />
            <path d=" M 414.403, 925.687 417.347, 927.896 421.667, 929.928 423.623, 931.136 429.608, 932.509 433.992, 935.386 " fill="none" stroke="rgb(0, 0, 0)" stroke-linecap="butt" stroke-linejoin="round" stroke-opacity="1.0" stroke-width="3.0" />
            <path d=" M 818.560, 720.101 813.781, 720.104 811.290, 723.022 809.896, 725.796 809.042, 728.584 808.739, 730.162 809.556, 733.415 808.545, 734.221 808.333, 734.389 808.041, 734.622 807.478, 735.071 " fill="none" stroke="rgb(0, 0, 0)" stroke-linecap="butt" stroke-linejoin="round" stroke-opacity="1.0" stroke-width="3.0" />
            <path d=" M 914.729, 456.469 914.628, 456.372 912.992, 454.115 914.729, 456.469 917.013, 459.564 921.663, 466.331 923.956, 470.070 " fill="none" stroke="rgb(0, 0, 0)" stroke-linecap="butt" stroke-linejoin="round" stroke-opacity="1.0" stroke-width="3.0" />
            <path d=" M 760.797, 782.546 760.738, 783.419 760.661, 784.547 760.629, 785.009 761.909, 789.138 764.256, 791.783 764.290, 791.822 765.493, 793.177 765.704, 793.355 766.465, 793.998 766.879, 794.301 768.717, 795.648 770.111, 796.670 771.455, 800.917 " fill="none" stroke="rgb(0, 0, 0)" stroke-linecap="butt" stroke-linejoin="round" stroke-opacity="1.0" stroke-width="3.0" />
            <path d=" M 528.817, 832.221 528.824, 832.186 530.382, 824.275 532.763, 818.648 534.611, 814.250 536.759, 811.433 " fill="none" stroke="rgb(0, 0, 0)" stroke-linecap="butt" stroke-linejoin="round" stroke-opacity="1.0" stroke-width="3.0" />
            <path d=" M 626.535, 763.620 626.253, 762.743 624.943, 758.657 624.589, 757.992 621.921, 754.880 618.985, 753.370 613.938, 751.270 612.902, 749.680 611.882, 748.114 " fill="none" stroke="rgb(0, 0, 0)" stroke-linecap="butt" stroke-linejoin="round" stroke-opacity="1.0" stroke-width="3.0" />
            <path d=" M 702.998, 973.137 703.530, 972.782 705.333, 971.578 709.188, 968.689 711.644, 967.191 714.413, 964.897 717.412, 963.464 720.844, 959.537 " fill="none" stroke="rgb(0, 0, 0)" stroke-linecap="butt" stroke-linejoin="round" stroke-opacity="1.0" stroke-width="3.0" />
            <path d=" M 612.283, 276.027 607.831, 273.201 598.438, 271.340 590.888, 273.284 " fill="none" stroke="rgb(0, 0, 0)" stroke-linecap="butt" stroke-linejoin="round" stroke-opacity="1.0" stroke-width="3.0" />
            <path d=" M 974.505, 471.180 974.526, 470.524 974.544, 469.982 974.547, 469.879 974.556, 469.616 974.559, 469.500 974.563, 469.391 974.602, 468.203 974.605, 468.092 974.609, 467.985 974.704, 465.063 974.706, 465.019 974.714, 464.765 974.551, 463.793 974.052, 460.820 973.070, 454.962 972.066, 453.938 971.839, 453.707 971.640, 453.504 970.846, 452.696 970.302, 452.141 970.166, 452.003 969.488, 452.192 967.410, 452.771 " fill="none" stroke="rgb(0, 0, 0)" stroke-linecap="butt" stroke-linejoin="round" stroke-opacity="1.0" stroke-width="3.0" />
            <path d=" M 601.164, 898.173 601.249, 898.296 604.615, 903.170 605.198, 904.047 606.147, 907.449 606.380, 910.251 606.360, 911.656 606.354, 912.033 606.354, 912.053 606.334, 913.400 605.446, 917.070 605.405, 917.238 605.376, 917.356 604.745, 919.964 " fill="none" stroke="rgb(0, 0, 0)" stroke-linecap="butt" stroke-linejoin="round" stroke-opacity="1.0" stroke-width="3.0" />
            <path d=" M 575.870, 603.468 575.721, 601.657 575.704, 601.438 575.513, 599.105 575.467, 598.550 575.445, 598.277 575.438, 598.191 575.308, 596.601 574.779, 595.060 574.278, 593.599 574.261, 593.550 574.231, 593.462 574.167, 593.277 573.947, 592.634 573.612, 591.659 573.555, 591.493 573.474, 591.256 573.262, 590.640 572.875, 589.511 572.979, 588.793 573.161, 587.541 573.666, 584.054 574.283, 580.406 " fill="none" stroke="rgb(0, 0, 0)" stroke-linecap="butt" stroke-linejoin="round" stroke-opacity="1.0" stroke-width="3.0" />
            <path d=" M 412.535, 819.653 412.013, 821.449 411.942, 825.764 410.787, 828.129 410.333, 830.574 409.154, 838.852 408.697, 839.838 408.190, 842.763 " fill="none" stroke="rgb(0, 0, 0)" stroke-linecap="butt" stroke-linejoin="round" stroke-opacity="1.0" stroke-width="3.0" />
            <path d=" M 612.249, 490.405 615.615, 490.693 615.677, 490.698 615.885, 490.790 625.039, 494.815 626.104, 495.284 629.583, 495.270 631.945, 495.774 632.018, 495.763 632.446, 495.698 633.335, 495.563 633.511, 495.537 633.600, 495.523 633.614, 495.521 634.452, 495.394 634.909, 495.325 " fill="none" stroke="rgb(0, 0, 0)" stroke-linecap="butt" stroke-linejoin="round" stroke-opacity="1.0" stroke-width="3.0" />
            <path d=" M 635.562, 584.666 636.793, 582.479 636.895, 582.407 640.980, 579.536 643.864, 576.977 642.541, 569.221 641.889, 568.285 640.628, 566.816 639.509, 565.642 " fill="none" stroke="rgb(0, 0, 0)" stroke-linecap="butt" stroke-linejoin="round" stroke-opacity="1.0" stroke-width="3.0" />
            <path d=" M 612.999, 282.482 612.859, 280.426 610.691, 278.036 602.767, 273.440 595.109, 272.776 592.897, 273.179 " fill="none" stroke="rgb(0, 0, 0)" stroke-linecap="butt" stroke-linejoin="round" stroke-opacity="1.0" stroke-width="3.0" />
            <path d=" M 737.573, 789.230 735.593, 789.805 735.544, 789.819 733.908, 791.358 732.606, 793.752 736.181, 800.803 738.297, 803.567 740.234, 806.098 740.144, 806.948 740.100, 807.366 740.020, 808.118 740.013, 808.193 739.946, 808.822 " fill="none" stroke="rgb(0, 0, 0)" stroke-linecap="butt" stroke-linejoin="round" stroke-opacity="1.0" stroke-width="3.0" />
            <path d=" M 785.595, 757.535 782.650, 755.237 779.482, 755.100 777.506, 756.854 776.611, 757.763 776.885, 766.250 775.769, 768.989 773.974, 770.277 773.892, 770.337 " fill="none" stroke="rgb(0, 0, 0)" stroke-linecap="butt" stroke-linejoin="round" stroke-opacity="1.0" stroke-width="3.0" />
            <path d=" M 554.526, 361.598 554.455, 360.142 554.521, 358.445 554.578, 356.977 554.584, 356.810 554.597, 356.490 554.838, 350.279 557.588, 340.665 558.496, 337.490 " fill="none" stroke="rgb(0, 0, 0)" stroke-linecap="butt" stroke-linejoin="round" stroke-opacity="1.0" stroke-width="3.0" />
            <path d=" M 612.902, 749.680 612.065, 745.932 611.983, 745.565 611.902, 745.200 612.130, 745.088 613.229, 744.549 613.492, 744.420 616.857, 743.905 618.612, 744.085 621.590, 742.777 624.390, 739.662 626.918, 736.072 627.720, 734.933 " fill="none" stroke="rgb(0, 0, 0)" stroke-linecap="butt" stroke-linejoin="round" stroke-opacity="1.0" stroke-width="3.0" />
            <path d=" M 532.060, 938.922 532.057, 939.160 532.103, 940.504 532.130, 941.286 534.115, 944.417 539.238, 945.379 541.185, 946.694 541.525, 947.643 542.630, 950.725 542.754, 951.581 542.997, 953.258 543.003, 953.300 543.049, 953.619 543.432, 956.263 543.442, 956.330 543.449, 956.383 543.480, 956.595 543.625, 957.599 " fill="none" stroke="rgb(0, 0, 0)" stroke-linecap="butt" stroke-linejoin="round" stroke-opacity="1.0" stroke-width="3.0" />
            <path d=" M 529.569, 742.973 529.519, 743.433 529.463, 743.945 529.304, 745.406 526.699, 754.257 524.621, 755.740 520.748, 758.505 514.621, 758.546 " fill="none" stroke="rgb(0, 0, 0)" stroke-linecap="butt" stroke-linejoin="round" stroke-opacity="1.0" stroke-width="3.0" />
            <path d=" M 818.960, 719.047 818.976, 719.486 818.998, 720.101 819.005, 720.296 819.006, 720.311 819.083, 722.421 812.603, 730.037 812.351, 730.333 810.865, 733.603 810.197, 735.073 810.189, 735.091 810.154, 735.242 810.135, 735.319 808.783, 741.068 " fill="none" stroke="rgb(0, 0, 0)" stroke-linecap="butt" stroke-linejoin="round" stroke-opacity="1.0" stroke-width="3.0" />
            <path d=" M 609.449, 579.798 609.962, 576.265 609.140, 574.134 605.226, 570.764 605.087, 570.644 604.956, 570.548 599.691, 566.698 599.537, 566.586 598.570, 565.795 597.976, 565.309 597.849, 565.206 597.698, 565.082 597.598, 565.001 597.460, 564.888 597.439, 564.870 597.087, 564.582 597.071, 564.573 596.258, 564.084 593.734, 562.567 " fill="none" stroke="rgb(0, 0, 0)" stroke-linecap="butt" stroke-linejoin="round" stroke-opacity="1.0" stroke-width="3.0" />
            <path d=" M 363.169, 838.537 363.480, 840.915 363.726, 842.794 363.732, 842.841 363.743, 842.927 363.827, 843.566 363.838, 843.675 363.927, 844.520 363.935, 844.598 364.297, 848.032 365.132, 851.257 365.184, 851.458 365.221, 851.600 365.332, 852.030 367.503, 861.792 367.827, 863.252 " fill="none" stroke="rgb(0, 0, 0)" stroke-linecap="butt" stroke-linejoin="round" stroke-opacity="1.0" stroke-width="3.0" />
            <path d=" M 470.896, 672.232 470.813, 672.336 467.614, 676.310 465.619, 680.966 463.650, 686.086 461.327, 690.536 459.809, 694.867 " fill="none" stroke="rgb(0, 0, 0)" stroke-linecap="butt" stroke-linejoin="round" stroke-opacity="1.0" stroke-width="3.0" />
            <path d=" M 399.686, 561.451 398.322, 564.237 396.671, 567.917 396.294, 568.784 393.058, 576.207 390.335, 583.292 390.229, 584.995 " fill="none" stroke="rgb(0, 0, 0)" stroke-linecap="butt" stroke-linejoin="round" stroke-opacity="1.0" stroke-width="3.0" />
            <path d=" M 594.154, 664.407 594.337, 661.883 594.401, 660.997 594.563, 660.914 594.565, 660.913 596.098, 660.120 597.301, 659.498 598.524, 657.945 598.567, 657.891 599.589, 656.594 599.236, 653.245 598.687, 649.657 597.009, 647.467 595.052, 644.913 594.812, 644.601 594.618, 644.283 593.970, 643.225 593.622, 642.658 " fill="none" stroke="rgb(0, 0, 0)" stroke-linecap="butt" stroke-linejoin="round" stroke-opacity="1.0" stroke-width="3.0" />
            <path d=" M 618.640, 684.401 618.720, 684.480 621.747, 687.524 625.551, 692.008 626.647, 693.301 627.318, 694.446 630.446, 699.786 631.611, 701.464 634.335, 705.389 " fill="none" stroke="rgb(0, 0, 0)" stroke-linecap="butt" stroke-linejoin="round" stroke-opacity="1.0" stroke-width="3.0" />
            <path d=" M 785.543, 760.762 785.397, 761.660 784.767, 765.557 784.893, 766.265 785.217, 766.799 786.446, 768.825 787.260, 770.169 788.120, 771.587 794.933, 774.716 797.707, 775.226 798.732, 775.414 798.749, 775.417 798.804, 775.427 800.616, 775.760 801.144, 775.856 801.303, 775.886 801.578, 775.936 802.308, 776.070 " fill="none" stroke="rgb(0, 0, 0)" stroke-linecap="butt" stroke-linejoin="round" stroke-opacity="1.0" stroke-width="3.0" />
            <path d=" M 394.071, 910.879 399.484, 914.887 402.346, 916.990 404.869, 918.922 406.189, 919.933 408.994, 922.081 409.759, 922.646 413.499, 925.411 414.403, 925.687 416.012, 926.179 " fill="none" stroke="rgb(0, 0, 0)" stroke-linecap="butt" stroke-linejoin="round" stroke-opacity="1.0" stroke-width="3.0" />
            <path d=" M 576.181, 257.067 568.569, 257.956 562.897, 258.913 556.230, 262.915 553.343, 267.880 " fill="none" stroke="rgb(0, 0, 0)" stroke-linecap="butt" stroke-linejoin="round" stroke-opacity="1.0" stroke-width="3.0" />
            <path d=" M 745.101, 951.908 749.837, 953.096 755.529, 951.830 761.505, 952.702 765.902, 952.867 769.700, 952.024 771.894, 952.099 " fill="none" stroke="rgb(0, 0, 0)" stroke-linecap="butt" stroke-linejoin="round" stroke-opacity="1.0" stroke-width="3.0" />
            <path d=" M 448.388, 614.151 450.450, 615.530 451.150, 615.999 452.262, 616.742 457.203, 619.047 459.717, 621.108 461.434, 622.515 467.517, 630.452 468.553, 631.804 " fill="none" stroke="rgb(0, 0, 0)" stroke-linecap="butt" stroke-linejoin="round" stroke-opacity="1.0" stroke-width="3.0" />
            <path d=" M 472.292, 880.677 472.287, 880.382 472.281, 879.998 472.267, 879.136 472.255, 878.444 472.220, 876.292 472.213, 875.880 472.202, 875.166 472.174, 873.519 468.437, 867.526 466.915, 861.772 465.834, 854.605 " fill="none" stroke="rgb(0, 0, 0)" stroke-linecap="butt" stroke-linejoin="round" stroke-opacity="1.0" stroke-width="3.0" />
            <path d=" M 930.808, 446.211 929.096, 445.403 928.599, 445.312 922.767, 444.244 917.800, 443.171 916.017, 443.494 913.916, 444.293 912.459, 448.104 912.980, 453.108 912.992, 454.115 " fill="none" stroke="rgb(0, 0, 0)" stroke-linecap="butt" stroke-linejoin="round" stroke-opacity="1.0" stroke-width="3.0" />
            <path d=" M 569.983, 753.962 570.474, 753.359 571.404, 752.215 571.725, 749.877 572.006, 747.833 571.685, 745.987 571.640, 745.725 571.617, 745.592 571.463, 744.706 571.449, 744.626 571.366, 744.145 570.930, 741.011 570.849, 740.430 570.738, 739.632 570.713, 739.454 570.675, 739.177 570.602, 738.655 570.378, 737.047 570.253, 736.145 570.226, 735.950 569.456, 730.623 568.953, 727.137 " fill="none" stroke="rgb(0, 0, 0)" stroke-linecap="butt" stroke-linejoin="round" stroke-opacity="1.0" stroke-width="3.0" />
            <path d=" M 467.441, 628.855 468.553, 631.804 469.639, 634.685 469.831, 635.193 471.466, 639.963 472.573, 647.278 472.579, 651.705 472.581, 653.028 472.554, 655.839 " fill="none" stroke="rgb(0, 0, 0)" stroke-linecap="butt" stroke-linejoin="round" stroke-opacity="1.0" stroke-width="3.0" />
            <path d=" M 706.194, 677.808 701.957, 674.664 699.952, 673.312 697.157, 671.739 691.188, 667.747 687.650, 665.946 684.108, 664.891 682.128, 664.301 " fill="none" stroke="rgb(0, 0, 0)" stroke-linecap="butt" stroke-linejoin="round" stroke-opacity="1.0" stroke-width="3.0" />
            <path d=" M 404.290, 794.810 406.744, 801.625 407.757, 804.425 410.203, 807.758 410.639, 811.584 411.213, 815.281 411.339, 815.616 412.535, 819.653 412.905, 820.904 " fill="none" stroke="rgb(0, 0, 0)" stroke-linecap="butt" stroke-linejoin="round" stroke-opacity="1.0" stroke-width="3.0" />
            <path d=" M 645.125, 532.954 649.541, 533.862 652.876, 533.062 653.554, 531.759 657.213, 527.260 657.440, 524.906 656.374, 522.666 652.423, 515.868 " fill="none" stroke="rgb(0, 0, 0)" stroke-linecap="butt" stroke-linejoin="round" stroke-opacity="1.0" stroke-width="3.0" />
            <path d=" M 503.669, 740.470 505.806, 738.287 505.878, 738.214 509.014, 735.011 512.011, 732.830 513.182, 729.868 515.348, 727.595 518.296, 726.661 520.672, 725.285 522.222, 721.133 " fill="none" stroke="rgb(0, 0, 0)" stroke-linecap="butt" stroke-linejoin="round" stroke-opacity="1.0" stroke-width="3.0" />
            <path d=" M 611.128, 565.667 611.153, 565.669 611.725, 565.733 614.141, 568.158 614.675, 568.694 617.868, 570.882 618.278, 571.062 618.925, 571.345 619.589, 571.636 623.053, 573.152 623.208, 573.220 623.760, 573.462 624.023, 573.577 625.578, 573.925 627.907, 574.448 628.002, 574.469 630.127, 573.070 631.341, 570.891 631.423, 570.743 632.033, 569.648 632.729, 567.375 " fill="none" stroke="rgb(0, 0, 0)" stroke-linecap="butt" stroke-linejoin="round" stroke-opacity="1.0" stroke-width="3.0" />
            <path d=" M 408.324, 779.613 407.242, 781.016 405.027, 783.077 404.979, 783.122 404.646, 786.603 404.321, 790.260 404.384, 791.040 404.514, 792.634 404.290, 794.810 404.072, 792.172 403.841, 789.363 403.738, 788.117 404.178, 786.344 404.979, 783.122 " fill="none" stroke="rgb(0, 0, 0)" stroke-linecap="butt" stroke-linejoin="round" stroke-opacity="1.0" stroke-width="3.0" />
            <path d=" M 839.747, 631.106 839.403, 631.015 839.082, 630.930 838.829, 630.862 835.555, 631.144 833.128, 631.152 832.854, 631.153 829.081, 631.164 827.289, 632.425 826.912, 635.961 827.210, 638.689 827.498, 640.939 829.663, 642.944 829.790, 643.062 829.817, 643.087 831.454, 644.604 831.851, 646.284 " fill="none" stroke="rgb(0, 0, 0)" stroke-linecap="butt" stroke-linejoin="round" stroke-opacity="1.0" stroke-width="3.0" />
            <path d=" M 364.626, 846.395 364.431, 845.151 364.422, 845.095 364.393, 844.908 364.357, 844.678 364.244, 843.961 364.230, 843.875 364.224, 843.831 363.374, 838.423 363.370, 838.398 363.353, 838.287 363.372, 838.395 363.377, 838.421 364.369, 844.049 364.401, 844.229 364.413, 844.296 364.489, 844.727 364.554, 845.094 364.568, 845.176 364.663, 845.714 364.668, 845.741 365.422, 850.015 365.813, 851.919 365.863, 852.167 365.878, 852.237 366.344, 854.512 366.632, 855.436 366.633, 855.441 367.518, 858.285 " fill="none" stroke="rgb(0, 0, 0)" stroke-linecap="butt" stroke-linejoin="round" stroke-opacity="1.0" stroke-width="3.0" />
            <path d=" M 776.276, 699.585 773.002, 696.664 767.174, 694.019 764.445, 693.930 760.178, 693.978 755.815, 695.966 755.665, 696.225 754.544, 698.647 754.723, 701.049 754.727, 701.106 754.756, 701.487 754.769, 701.664 754.788, 701.920 " fill="none" stroke="rgb(0, 0, 0)" stroke-linecap="butt" stroke-linejoin="round" stroke-opacity="1.0" stroke-width="3.0" />
            <path d=" M 570.929, 296.241 572.864, 293.490 573.737, 292.974 573.738, 292.973 575.928, 291.679 580.285, 289.103 582.335, 286.982 583.724, 283.964 583.746, 283.915 586.469, 276.984 587.075, 275.443 587.104, 275.367 587.155, 275.238 587.231, 275.046 587.242, 275.016 587.295, 274.883 587.344, 274.757 587.589, 274.134 587.667, 273.936 " fill="none" stroke="rgb(0, 0, 0)" stroke-linecap="butt" stroke-linejoin="round" stroke-opacity="1.0" stroke-width="3.0" />
            <path d=" M 850.959, 620.889 849.566, 620.472 843.618, 618.692 840.662, 619.638 836.618, 619.424 834.373, 619.918 832.545, 621.893 832.613, 624.427 832.973, 630.715 832.854, 631.153 " fill="none" stroke="rgb(0, 0, 0)" stroke-linecap="butt" stroke-linejoin="round" stroke-opacity="1.0" stroke-width="3.0" />
            <path d=" M 720.120, 959.981 720.844, 959.537 724.930, 957.037 729.799, 954.485 735.944, 952.440 741.758, 951.348 743.073, 951.102 743.742, 950.976 747.285, 950.311 " fill="none" stroke="rgb(0, 0, 0)" stroke-linecap="butt" stroke-linejoin="round" stroke-opacity="1.0" stroke-width="3.0" />
            <path d=" M 790.633, 682.490 786.789, 682.752 783.811, 684.042 781.659, 686.243 776.970, 695.075 775.844, 697.195 776.276, 699.585 776.361, 700.051 777.115, 700.804 777.671, 701.360 778.106, 701.794 778.185, 701.874 779.077, 702.765 " fill="none" stroke="rgb(0, 0, 0)" stroke-linecap="butt" stroke-linejoin="round" stroke-opacity="1.0" stroke-width="3.0" />
            <path d=" M 912.338, 571.881 910.998, 571.582 910.830, 571.545 910.701, 571.516 909.714, 571.296 909.495, 571.247 906.392, 570.555 903.951, 569.137 903.877, 569.094 902.963, 568.562 902.789, 568.461 899.581, 567.967 894.679, 567.211 891.039, 569.772 889.739, 571.912 888.848, 574.918 889.604, 575.454 " fill="none" stroke="rgb(0, 0, 0)" stroke-linecap="butt" stroke-linejoin="round" stroke-opacity="1.0" stroke-width="3.0" />
            <path d=" M 595.518, 624.035 596.068, 623.257 596.683, 622.386 596.703, 622.357 597.518, 621.202 597.525, 621.193 597.689, 620.959 597.893, 620.671 597.931, 620.642 598.308, 620.349 601.861, 617.589 603.374, 612.692 603.195, 610.612 603.185, 610.496 603.140, 610.451 602.885, 610.194 602.731, 610.038 601.015, 608.309 600.835, 608.138 598.664, 606.065 598.390, 605.725 598.260, 605.563 598.159, 605.438 597.139, 604.174 596.956, 603.946 595.962, 602.713 593.843, 601.297 593.842, 601.264 " fill="none" stroke="rgb(0, 0, 0)" stroke-linecap="butt" stroke-linejoin="round" stroke-opacity="1.0" stroke-width="3.0" />
            <path d=" M 536.827, 730.753 536.846, 730.869 540.075, 734.251 542.021, 734.103 543.193, 734.383 544.606, 732.792 544.855, 732.505 544.937, 732.410 544.968, 732.375 545.188, 732.121 545.703, 731.526 546.389, 721.550 546.407, 721.279 546.155, 716.921 546.200, 716.801 546.543, 715.898 546.560, 715.855 546.561, 715.853 546.714, 715.448 547.022, 714.637 547.104, 714.421 547.143, 714.320 547.766, 714.391 548.109, 714.431 " fill="none" stroke="rgb(0, 0, 0)" stroke-linecap="butt" stroke-linejoin="round" stroke-opacity="1.0" stroke-width="3.0" />
            <path d=" M 507.898, 872.303 503.865, 879.815 500.967, 885.203 494.793, 891.846 490.239, 896.637 " fill="none" stroke="rgb(0, 0, 0)" stroke-linecap="butt" stroke-linejoin="round" stroke-opacity="1.0" stroke-width="3.0" />
            <path d=" M 785.090, 955.538 785.604, 955.653 787.524, 956.082 792.654, 956.363 797.983, 955.037 801.944, 954.117 806.087, 951.513 809.593, 951.178 813.761, 948.834 " fill="none" stroke="rgb(0, 0, 0)" stroke-linecap="butt" stroke-linejoin="round" stroke-opacity="1.0" stroke-width="3.0" />
            <path d=" M 613.507, 755.435 611.781, 753.155 610.435, 751.576 607.742, 748.417 607.390, 748.005 604.439, 743.403 603.452, 742.341 599.927, 741.754 596.732, 741.762 596.702, 741.762 596.589, 741.762 595.917, 741.764 595.771, 741.764 595.700, 741.765 594.893, 741.764 594.529, 741.764 592.536, 741.762 592.207, 741.746 592.142, 741.743 591.951, 741.733 591.599, 741.716 590.002, 741.637 589.845, 741.629 589.577, 741.616 " fill="none" stroke="rgb(0, 0, 0)" stroke-linecap="butt" stroke-linejoin="round" stroke-opacity="1.0" stroke-width="3.0" />
            <path d=" M 808.559, 665.414 808.135, 665.669 806.352, 667.409 802.389, 673.908 801.840, 674.587 801.153, 675.437 801.267, 677.927 802.354, 678.808 806.305, 682.010 807.604, 683.063 810.085, 684.448 812.130, 685.589 813.970, 686.617 " fill="none" stroke="rgb(0, 0, 0)" stroke-linecap="butt" stroke-linejoin="round" stroke-opacity="1.0" stroke-width="3.0" />
            <path d=" M 925.919, 535.950 925.184, 538.850 924.314, 543.447 923.389, 547.475 920.939, 555.486 917.181, 563.822 916.341, 565.684 " fill="none" stroke="rgb(0, 0, 0)" stroke-linecap="butt" stroke-linejoin="round" stroke-opacity="1.0" stroke-width="3.0" />
            <path d=" M 586.950, 275.180 586.950, 275.171 586.951, 275.030 586.951, 275.014 586.954, 274.552 586.954, 274.532 586.955, 274.429 586.956, 274.297 586.967, 272.567 586.959, 272.547 586.612, 271.639 585.756, 271.507 583.642, 271.182 583.107, 271.284 582.750, 271.353 582.243, 271.450 581.338, 271.624 581.282, 271.635 571.564, 273.499 569.595, 274.411 560.839, 279.240 560.435, 279.463 " fill="none" stroke="rgb(0, 0, 0)" stroke-linecap="butt" stroke-linejoin="round" stroke-opacity="1.0" stroke-width="3.0" />
            <path d=" M 607.249, 582.637 608.952, 580.676 609.386, 579.910 609.449, 579.798 609.354, 579.921 607.249, 582.637 605.742, 584.581 605.644, 584.707 603.662, 587.265 600.094, 590.339 598.271, 594.737 596.814, 597.216 595.366, 599.678 593.842, 601.264 593.818, 601.288 593.587, 601.528 593.068, 602.069 " fill="none" stroke="rgb(0, 0, 0)" stroke-linecap="butt" stroke-linejoin="round" stroke-opacity="1.0" stroke-width="3.0" />
            <path d=" M 923.441, 468.655 923.956, 470.070 925.696, 474.846 928.391, 480.365 930.181, 485.254 932.589, 493.370 935.519, 497.718 " fill="none" stroke="rgb(0, 0, 0)" stroke-linecap="butt" stroke-linejoin="round" stroke-opacity="1.0" stroke-width="3.0" />
            <path d=" M 602.096, 258.228 599.706, 254.821 592.289, 252.944 591.934, 252.935 585.811, 252.778 584.973, 253.179 576.181, 257.067 573.921, 258.066 573.462, 258.269 " fill="none" stroke="rgb(0, 0, 0)" stroke-linecap="butt" stroke-linejoin="round" stroke-opacity="1.0" stroke-width="3.0" />
            <path d=" M 906.835, 522.846 906.401, 525.129 906.194, 525.451 904.673, 526.708 904.734, 527.774 906.383, 531.107 908.346, 534.586 912.635, 539.654 915.268, 542.782 916.795, 544.595 916.864, 544.677 916.855, 544.713 915.895, 548.480 915.870, 548.580 915.743, 549.077 915.421, 550.343 " fill="none" stroke="rgb(0, 0, 0)" stroke-linecap="butt" stroke-linejoin="round" stroke-opacity="1.0" stroke-width="3.0" />
            <path d=" M 536.479, 860.824 536.464, 860.316 536.265, 856.978 536.155, 848.582 534.393, 844.028 533.127, 840.756 532.455, 839.246 532.088, 838.419 530.874, 836.746 530.863, 836.732 530.744, 836.567 530.133, 835.726 530.035, 835.590 529.540, 834.908 529.266, 834.530 529.229, 834.479 528.852, 833.961 528.833, 833.934 528.703, 833.755 528.608, 833.624 528.607, 833.622 528.528, 833.513 526.526, 830.755 " fill="none" stroke="rgb(0, 0, 0)" stroke-linecap="butt" stroke-linejoin="round" stroke-opacity="1.0" stroke-width="3.0" />
            <path d=" M 754.723, 701.049 754.653, 701.094 751.225, 703.269 751.234, 703.394 751.234, 703.397 751.619, 708.552 753.103, 712.682 756.228, 715.377 757.669, 715.924 753.231, 712.173 753.308, 708.825 756.802, 706.368 " fill="none" stroke="rgb(0, 0, 0)" stroke-linecap="butt" stroke-linejoin="round" stroke-opacity="1.0" stroke-width="3.0" />
            <path d=" M 760.661, 784.547 760.517, 784.381 755.632, 779.120 754.116, 778.809 752.923, 778.957 748.900, 779.457 744.043, 779.221 742.958, 779.639 740.138, 780.725 739.358, 782.123 739.348, 782.141 739.078, 783.288 738.831, 784.334 738.844, 787.370 738.376, 788.054 737.573, 789.230 737.230, 789.732 " fill="none" stroke="rgb(0, 0, 0)" stroke-linecap="butt" stroke-linejoin="round" stroke-opacity="1.0" stroke-width="3.0" />
            <path d=" M 663.625, 962.303 661.807, 962.981 658.302, 963.036 651.413, 963.280 646.543, 965.087 643.493, 967.787 639.511, 968.585 638.816, 969.844 641.269, 972.245 642.300, 975.167 " fill="none" stroke="rgb(0, 0, 0)" stroke-linecap="butt" stroke-linejoin="round" stroke-opacity="1.0" stroke-width="3.0" />
            <path d=" M 689.092, 774.954 690.631, 775.777 698.160, 779.799 698.784, 780.132 700.162, 781.641 703.044, 784.797 708.335, 789.655 708.636, 789.931 708.967, 790.404 708.968, 790.406 710.702, 792.885 711.828, 794.496 712.230, 795.792 712.505, 796.676 712.828, 797.719 " fill="none" stroke="rgb(0, 0, 0)" stroke-linecap="butt" stroke-linejoin="round" stroke-opacity="1.0" stroke-width="3.0" />
            <path d=" M 574.699, 675.995 578.421, 675.792 579.099, 675.755 581.417, 675.628 582.250, 675.874 584.482, 676.533 584.701, 676.598 585.580, 676.857 587.787, 676.741 587.852, 676.738 588.955, 676.680 589.973, 675.960 590.217, 675.788 593.689, 673.334 595.302, 672.195 596.978, 670.692 597.276, 669.719 596.740, 665.855 594.337, 661.883 " fill="none" stroke="rgb(0, 0, 0)" stroke-linecap="butt" stroke-linejoin="round" stroke-opacity="1.0" stroke-width="3.0" />
            <path d=" M 543.362, 967.313 543.926, 967.572 549.706, 970.972 555.798, 972.934 563.599, 974.370 569.830, 974.820 572.744, 974.097 574.996, 972.052 575.246, 971.672 " fill="none" stroke="rgb(0, 0, 0)" stroke-linecap="butt" stroke-linejoin="round" stroke-opacity="1.0" stroke-width="3.0" />
            <path d=" M 830.302, 668.833 829.603, 670.681 829.598, 670.695 829.414, 671.181 829.710, 672.302 830.250, 674.339 830.322, 674.612 830.346, 674.706 830.584, 675.602 830.127, 678.215 831.362, 680.434 832.198, 681.936 832.243, 682.018 836.968, 687.618 837.072, 692.898 839.780, 696.662 840.684, 697.917 840.849, 698.147 840.876, 698.185 840.943, 698.278 841.368, 698.868 841.589, 699.175 " fill="none" stroke="rgb(0, 0, 0)" stroke-linecap="butt" stroke-linejoin="round" stroke-opacity="1.0" stroke-width="3.0" />
            <path d=" M 645.884, 558.245 644.997, 554.098 644.978, 554.012 644.990, 554.002 647.277, 552.253 647.560, 552.009 648.338, 551.339 649.784, 550.093 652.661, 546.884 653.340, 543.638 651.744, 538.104 644.881, 535.351 642.448, 533.342 " fill="none" stroke="rgb(0, 0, 0)" stroke-linecap="butt" stroke-linejoin="round" stroke-opacity="1.0" stroke-width="3.0" />
            <path d=" M 647.261, 823.873 647.842, 822.848 649.333, 817.162 649.727, 810.209 648.723, 805.785 643.663, 797.160 643.184, 796.343 640.005, 792.518 " fill="none" stroke="rgb(0, 0, 0)" stroke-linecap="butt" stroke-linejoin="round" stroke-opacity="1.0" stroke-width="3.0" />
            <path d=" M 573.309, 679.726 574.461, 677.781 574.699, 675.995 574.709, 675.924 574.717, 675.860 574.818, 675.103 574.832, 675.000 575.207, 672.183 575.239, 671.946 575.624, 669.052 575.643, 668.905 575.721, 664.310 575.749, 662.683 575.822, 662.391 575.869, 662.203 576.049, 661.489 576.459, 659.851 576.910, 658.326 577.200, 657.345 577.252, 657.172 578.141, 654.163 579.524, 649.532 579.544, 649.463 579.653, 649.099 579.654, 649.097 579.580, 648.539 579.579, 648.528 579.258, 646.082 " fill="none" stroke="rgb(0, 0, 0)" stroke-linecap="butt" stroke-linejoin="round" stroke-opacity="1.0" stroke-width="3.0" />
            <path d=" M 558.143, 370.184 558.161, 369.812 558.530, 362.047 559.936, 358.924 560.132, 358.490 560.321, 358.071 558.981, 348.161 558.738, 346.362 558.867, 340.495 559.049, 336.067 " fill="none" stroke="rgb(0, 0, 0)" stroke-linecap="butt" stroke-linejoin="round" stroke-opacity="1.0" stroke-width="3.0" />
            <path d=" M 530.863, 836.732 530.898, 836.652 532.044, 833.992 532.126, 833.732 532.137, 833.697 533.213, 830.302 534.052, 827.652 535.344, 823.114 536.930, 817.786 538.374, 814.703 540.137, 809.999 540.685, 806.795 540.698, 806.718 541.351, 802.896 " fill="none" stroke="rgb(0, 0, 0)" stroke-linecap="butt" stroke-linejoin="round" stroke-opacity="1.0" stroke-width="3.0" />
            <path d=" M 552.917, 706.128 554.063, 709.685 556.319, 712.913 559.185, 715.369 563.653, 716.321 566.962, 715.348 567.588, 714.967 568.272, 714.551 569.560, 713.767 571.674, 710.379 572.124, 704.297 571.875, 703.323 571.844, 703.205 571.793, 703.006 571.286, 701.029 " fill="none" stroke="rgb(0, 0, 0)" stroke-linecap="butt" stroke-linejoin="round" stroke-opacity="1.0" stroke-width="3.0" />
            <path d=" M 839.438, 697.369 833.726, 692.933 830.668, 690.846 827.465, 689.386 823.605, 689.162 821.655, 692.300 822.065, 697.726 821.341, 700.142 820.904, 701.602 817.714, 703.436 816.931, 704.149 " fill="none" stroke="rgb(0, 0, 0)" stroke-linecap="butt" stroke-linejoin="round" stroke-opacity="1.0" stroke-width="3.0" />
            <path d=" M 652.319, 492.281 653.026, 491.899 655.525, 490.547 657.983, 489.094 659.568, 486.763 660.513, 481.769 653.729, 476.408 645.985, 470.081 643.473, 468.029 " fill="none" stroke="rgb(0, 0, 0)" stroke-linecap="butt" stroke-linejoin="round" stroke-opacity="1.0" stroke-width="3.0" />
            <path d=" M 608.630, 539.137 610.564, 537.364 611.351, 536.643 614.227, 534.007 621.298, 538.351 628.412, 539.810 628.458, 539.819 628.512, 539.830 628.541, 539.836 631.695, 540.483 633.350, 538.918 634.271, 538.047 634.860, 537.490 637.327, 535.273 637.753, 534.890 638.586, 534.141 638.727, 534.014 638.932, 533.830 " fill="none" stroke="rgb(0, 0, 0)" stroke-linecap="butt" stroke-linejoin="round" stroke-opacity="1.0" stroke-width="3.0" />
            <path d=" M 601.643, 562.419 601.711, 562.387 603.077, 559.471 603.769, 557.996 601.959, 555.797 592.622, 552.218 591.140, 551.650 589.521, 551.029 589.429, 550.994 589.286, 550.939 588.504, 550.639 586.346, 550.716 576.358, 551.206 576.223, 551.213 574.591, 551.398 574.487, 551.410 574.405, 551.419 574.318, 551.429 " fill="none" stroke="rgb(0, 0, 0)" stroke-linecap="butt" stroke-linejoin="round" stroke-opacity="1.0" stroke-width="3.0" />
            <path d=" M 558.110, 704.315 559.345, 703.675 559.504, 703.592 559.937, 703.368 560.367, 703.145 560.414, 703.120 560.429, 703.113 560.517, 703.067 561.741, 702.432 562.090, 702.120 562.504, 701.750 562.535, 701.723 562.544, 701.715 562.899, 701.397 563.134, 701.187 564.020, 700.395 565.114, 699.416 566.839, 698.946 567.583, 699.295 567.630, 699.317 571.286, 701.029 571.844, 701.290 575.052, 701.805 583.200, 699.796 583.324, 699.588 583.913, 698.603 584.718, 697.258 584.765, 694.995 584.610, 690.529 " fill="none" stroke="rgb(0, 0, 0)" stroke-linecap="butt" stroke-linejoin="round" stroke-opacity="1.0" stroke-width="3.0" />
            <path d=" M 373.178, 878.696 374.100, 881.451 374.721, 883.306 377.136, 887.406 377.715, 888.390 379.571, 891.516 381.844, 895.050 384.277, 898.828 384.406, 899.029 384.544, 899.243 385.367, 900.521 386.572, 901.740 386.929, 902.102 388.240, 903.428 388.665, 903.858 388.889, 904.181 389.131, 904.530 390.580, 906.622 390.789, 906.923 393.159, 909.791 393.181, 909.807 " fill="none" stroke="rgb(0, 0, 0)" stroke-linecap="butt" stroke-linejoin="round" stroke-opacity="1.0" stroke-width="3.0" />
            <path d=" M 901.398, 597.852 899.228, 598.075 894.279, 598.583 891.308, 598.268 889.617, 598.089 887.795, 597.896 883.466, 598.413 878.175, 599.046 872.691, 599.270 864.257, 600.975 864.105, 601.005 " fill="none" stroke="rgb(0, 0, 0)" stroke-linecap="butt" stroke-linejoin="round" stroke-opacity="1.0" stroke-width="3.0" />
            <path d=" M 829.803, 644.858 828.402, 646.469 827.182, 647.883 825.706, 649.594 825.685, 649.618 825.405, 649.942 824.807, 650.636 823.672, 653.603 824.038, 655.686 827.042, 657.369 827.384, 657.528 828.918, 658.244 837.288, 661.819 837.500, 661.909 838.037, 662.314 843.973, 666.789 845.497, 668.541 " fill="none" stroke="rgb(0, 0, 0)" stroke-linecap="butt" stroke-linejoin="round" stroke-opacity="1.0" stroke-width="3.0" />
            <path d=" M 460.772, 692.950 459.809, 694.867 458.443, 697.586 454.962, 706.669 451.733, 712.034 449.241, 716.939 447.181, 720.550 444.898, 725.053 444.534, 726.883 444.328, 727.919 " fill="none" stroke="rgb(0, 0, 0)" stroke-linecap="butt" stroke-linejoin="round" stroke-opacity="1.0" stroke-width="3.0" />
            <path d=" M 807.450, 733.975 800.473, 730.708 795.220, 729.870 794.152, 729.786 792.815, 735.311 793.768, 739.539 793.732, 740.143 793.999, 740.543 794.792, 741.728 794.980, 743.474 795.144, 744.994 795.152, 745.070 795.241, 745.892 795.253, 746.000 795.789, 750.733 795.527, 756.128 " fill="none" stroke="rgb(0, 0, 0)" stroke-linecap="butt" stroke-linejoin="round" stroke-opacity="1.0" stroke-width="3.0" />
            <path d=" M 633.205, 655.442 629.246, 655.193 626.668, 655.155 623.666, 656.441 621.176, 656.926 619.592, 657.883 615.953, 658.601 613.719, 660.133 612.285, 662.187 611.096, 664.179 609.557, 672.924 609.671, 676.638 611.149, 679.443 " fill="none" stroke="rgb(0, 0, 0)" stroke-linecap="butt" stroke-linejoin="round" stroke-opacity="1.0" stroke-width="3.0" />
            <path d=" M 483.030, 917.196 484.180, 915.159 484.779, 913.596 484.886, 913.316 485.143, 912.644 485.158, 912.606 485.479, 911.767 486.526, 907.445 486.497, 907.108 486.290, 904.709 486.244, 904.176 485.841, 903.436 485.725, 903.294 484.009, 901.202 483.823, 900.976 482.825, 899.902 479.477, 896.371 476.820, 893.298 475.470, 888.225 474.690, 886.253 473.101, 882.129 473.002, 881.950 472.704, 881.416 472.694, 881.397 472.292, 880.677 472.164, 880.447 471.988, 880.131 471.832, 879.853 " fill="none" stroke="rgb(0, 0, 0)" stroke-linecap="butt" stroke-linejoin="round" stroke-opacity="1.0" stroke-width="3.0" />
            <path d=" M 588.234, 274.967 588.690, 274.413 588.713, 274.385 588.767, 274.320 589.278, 273.699 590.596, 272.097 591.214, 271.345 592.456, 268.852 593.079, 267.601 593.482, 266.792 594.633, 264.450 594.967, 263.770 595.431, 262.827 595.075, 262.201 594.570, 261.313 593.016, 260.201 589.034, 259.810 588.124, 259.720 584.740, 259.388 580.063, 260.358 577.988, 260.788 575.172, 262.713 573.402, 263.923 570.075, 266.197 " fill="none" stroke="rgb(0, 0, 0)" stroke-linecap="butt" stroke-linejoin="round" stroke-opacity="1.0" stroke-width="3.0" />
            <path d=" M 553.885, 913.765 554.576, 912.879 555.478, 911.720 558.364, 908.016 559.074, 904.422 558.754, 900.547 559.351, 897.841 558.256, 895.859 557.320, 893.736 556.403, 892.904 554.804, 892.318 546.248, 889.183 545.365, 888.860 541.528, 887.641 539.010, 885.286 " fill="none" stroke="rgb(0, 0, 0)" stroke-linecap="butt" stroke-linejoin="round" stroke-opacity="1.0" stroke-width="3.0" />
            <path d=" M 444.534, 726.883 442.107, 730.637 440.033, 735.170 436.516, 740.698 433.846, 745.529 431.235, 750.705 426.946, 757.066 423.539, 760.507 422.277, 762.140 421.173, 763.570 " fill="none" stroke="rgb(0, 0, 0)" stroke-linecap="butt" stroke-linejoin="round" stroke-opacity="1.0" stroke-width="3.0" />
            <path d=" M 600.369, 632.477 602.739, 632.295 605.985, 634.096 607.682, 634.800 608.007, 634.835 608.154, 634.850 609.813, 634.677 611.211, 631.195 612.307, 626.750 612.065, 617.099 612.328, 612.478 612.969, 608.008 611.900, 603.500 611.788, 603.029 611.566, 602.093 611.406, 601.421 611.307, 601.005 " fill="none" stroke="rgb(0, 0, 0)" stroke-linecap="butt" stroke-linejoin="round" stroke-opacity="1.0" stroke-width="3.0" />
            <path d=" M 986.708, 618.909 987.430, 616.050 988.035, 613.652 988.063, 613.446 988.114, 613.061 988.520, 610.028 988.651, 609.053 988.942, 606.876 990.339, 598.599 990.118, 593.243 991.040, 583.791 991.482, 574.754 " fill="none" stroke="rgb(0, 0, 0)" stroke-linecap="butt" stroke-linejoin="round" stroke-opacity="1.0" stroke-width="3.0" />
            <path d=" M 481.032, 775.011 486.999, 771.769 488.169, 769.783 489.947, 766.064 492.634, 762.048 494.080, 757.216 498.019, 751.093 501.365, 746.835 502.792, 743.404 505.878, 738.214 " fill="none" stroke="rgb(0, 0, 0)" stroke-linecap="butt" stroke-linejoin="round" stroke-opacity="1.0" stroke-width="3.0" />
            <path d=" M 586.177, 295.664 592.069, 292.581 601.608, 289.578 602.948, 289.157 607.369, 287.550 612.532, 287.044 616.677, 285.689 617.356, 284.467 617.799, 281.178 617.848, 280.762 616.163, 277.702 612.283, 276.027 611.887, 275.856 " fill="none" stroke="rgb(0, 0, 0)" stroke-linecap="butt" stroke-linejoin="round" stroke-opacity="1.0" stroke-width="3.0" />
            <path d=" M 631.611, 701.464 634.283, 705.965 638.084, 711.333 641.488, 715.693 644.898, 720.376 646.291, 722.303 648.100, 724.300 652.222, 728.527 653.343, 730.499 654.639, 732.778 657.125, 738.317 657.627, 739.436 " fill="none" stroke="rgb(0, 0, 0)" stroke-linecap="butt" stroke-linejoin="round" stroke-opacity="1.0" stroke-width="3.0" />
            <path d=" M 739.042, 808.515 736.654, 809.485 731.804, 814.504 726.046, 818.200 723.521, 818.660 719.743, 819.348 719.146, 819.457 718.750, 819.529 709.229, 820.096 706.745, 820.244 701.819, 819.644 696.336, 820.376 " fill="none" stroke="rgb(0, 0, 0)" stroke-linecap="butt" stroke-linejoin="round" stroke-opacity="1.0" stroke-width="3.0" />
            <path d=" M 971.097, 443.925 971.095, 443.893 968.139, 436.732 966.965, 435.240 965.233, 434.443 961.031, 435.166 958.073, 436.745 956.139, 443.919 955.192, 447.129 954.048, 453.379 955.284, 457.986 955.619, 459.232 956.060, 459.994 957.404, 462.709 957.477, 462.857 957.482, 462.865 " fill="none" stroke="rgb(0, 0, 0)" stroke-linecap="butt" stroke-linejoin="round" stroke-opacity="1.0" stroke-width="3.0" />
            <path d=" M 883.466, 598.413 879.043, 595.186 876.374, 594.337 870.071, 594.141 862.402, 593.076 856.226, 593.200 851.662, 592.925 850.617, 593.362 848.734, 594.727 847.928, 598.340 851.932, 603.283 " fill="none" stroke="rgb(0, 0, 0)" stroke-linecap="butt" stroke-linejoin="round" stroke-opacity="1.0" stroke-width="3.0" />
            <path d=" M 625.125, 380.365 626.766, 379.350 627.579, 378.847 626.479, 375.243 624.287, 374.015 618.211, 371.038 614.618, 370.562 607.189, 371.496 604.499, 370.912 603.296, 367.463 603.539, 365.089 602.975, 361.521 603.438, 357.052 603.794, 354.219 " fill="none" stroke="rgb(0, 0, 0)" stroke-linecap="butt" stroke-linejoin="round" stroke-opacity="1.0" stroke-width="3.0" />
            <path d=" M 521.624, 944.236 522.429, 943.852 524.567, 942.831 526.321, 941.992 526.884, 941.724 526.888, 941.722 530.698, 939.902 530.876, 939.774 532.060, 938.922 533.165, 938.127 534.612, 936.589 535.096, 936.075 536.339, 934.753 537.510, 932.581 538.018, 931.640 538.457, 930.825 538.481, 930.800 538.816, 930.452 540.040, 929.180 541.117, 928.061 547.742, 923.245 549.206, 922.181 549.214, 922.172 550.817, 920.289 551.914, 919.000 554.576, 912.879 " fill="none" stroke="rgb(0, 0, 0)" stroke-linecap="butt" stroke-linejoin="round" stroke-opacity="1.0" stroke-width="3.0" />
            <path d=" M 899.581, 567.967 896.588, 566.585 895.482, 566.165 889.574, 565.308 883.475, 564.257 879.414, 564.009 875.067, 563.673 868.612, 563.841 867.426, 565.673 867.284, 567.095 868.604, 569.383 875.856, 575.082 " fill="none" stroke="rgb(0, 0, 0)" stroke-linecap="butt" stroke-linejoin="round" stroke-opacity="1.0" stroke-width="3.0" />
            <path d=" M 820.423, 946.445 823.595, 944.601 827.448, 941.426 832.672, 937.683 835.227, 933.938 838.752, 930.482 840.284, 927.176 842.822, 922.838 843.589, 918.170 844.310, 912.768 845.115, 909.001 " fill="none" stroke="rgb(0, 0, 0)" stroke-linecap="butt" stroke-linejoin="round" stroke-opacity="1.0" stroke-width="3.0" />
            <path d=" M 659.320, 673.321 664.342, 675.840 667.886, 677.285 672.860, 679.397 677.616, 681.681 681.461, 683.607 685.084, 685.479 687.670, 686.904 692.779, 689.542 694.613, 690.760 697.801, 693.054 701.053, 695.927 " fill="none" stroke="rgb(0, 0, 0)" stroke-linecap="butt" stroke-linejoin="round" stroke-opacity="1.0" stroke-width="3.0" />
            <path d=" M 511.264, 946.196 520.550, 944.442 521.613, 944.238 521.624, 944.236 521.613, 944.239 511.904, 946.635 505.749, 948.154 505.551, 948.191 500.088, 949.236 495.211, 950.168 494.370, 950.302 488.936, 950.761 483.614, 950.294 483.570, 950.290 483.023, 950.242 " fill="none" stroke="rgb(0, 0, 0)" stroke-linecap="butt" stroke-linejoin="round" stroke-opacity="1.0" stroke-width="3.0" />
            <path d=" M 891.564, 813.463 892.513, 812.232 895.495, 808.366 900.482, 799.698 901.428, 798.053 905.962, 789.778 909.261, 784.040 913.223, 777.748 916.866, 770.475 " fill="none" stroke="rgb(0, 0, 0)" stroke-linecap="butt" stroke-linejoin="round" stroke-opacity="1.0" stroke-width="3.0" />
            <path d=" M 992.204, 599.031 992.407, 598.250 993.066, 595.711 993.243, 590.947 993.898, 580.969 994.356, 573.989 995.099, 564.017 995.365, 560.443 995.296, 550.443 995.287, 549.148 " fill="none" stroke="rgb(0, 0, 0)" stroke-linecap="butt" stroke-linejoin="round" stroke-opacity="1.0" stroke-width="3.0" />
            <path d=" M 471.228, 969.023 471.050, 969.616 470.883, 972.347 471.956, 976.111 477.277, 981.834 478.288, 982.657 481.352, 983.513 486.532, 985.357 490.878, 984.698 498.004, 982.442 499.822, 981.591 500.894, 981.053 504.169, 978.754 505.829, 976.606 508.015, 973.771 " fill="none" stroke="rgb(0, 0, 0)" stroke-linecap="butt" stroke-linejoin="round" stroke-opacity="1.0" stroke-width="3.0" />
            <path d=" M 597.931, 620.642 597.948, 621.341 597.956, 621.668 597.957, 621.746 597.998, 623.445 601.255, 627.284 602.753, 631.376 602.618, 631.439 600.369, 632.477 598.962, 633.127 597.703, 636.012 596.252, 641.121 595.556, 641.580 595.113, 641.872 594.037, 642.581 594.021, 642.584 593.622, 642.658 593.557, 642.670 593.555, 642.670 593.538, 642.674 593.271, 642.723 593.238, 642.729 593.014, 642.771 592.829, 642.805 592.566, 642.854 592.506, 642.866 589.084, 643.503 580.907, 644.909 580.767, 645.009 580.764, 645.011 580.735, 645.032 579.258, 646.082 579.251, 646.087 578.875, 646.355 579.253, 646.046 579.253, 646.046 580.041, 645.403 580.185, 645.285 580.664, 644.894 580.694, 644.870 580.694, 644.870 584.405, 641.840 " fill="none" stroke="rgb(0, 0, 0)" stroke-linecap="butt" stroke-linejoin="round" stroke-opacity="1.0" stroke-width="3.0" />
            <path d=" M 465.941, 856.125 465.834, 854.605 465.566, 850.779 465.776, 846.364 465.760, 842.233 462.591, 834.723 461.270, 830.460 461.135, 830.026 461.250, 829.504 462.454, 824.049 461.139, 818.174 460.826, 816.472 460.190, 813.014 460.732, 812.256 461.203, 806.904 " fill="none" stroke="rgb(0, 0, 0)" stroke-linecap="butt" stroke-linejoin="round" stroke-opacity="1.0" stroke-width="3.0" />
            <path d=" M 872.899, 671.687 870.155, 671.317 867.509, 670.959 860.104, 667.132 858.742, 666.581 856.100, 666.491 851.298, 667.924 850.941, 667.969 848.173, 668.319 847.672, 668.382 847.606, 668.391 846.793, 668.493 846.439, 668.538 845.978, 668.596 845.876, 668.584 845.497, 668.541 844.828, 668.464 844.817, 668.463 839.279, 667.827 832.902, 667.254 830.926, 668.061 830.302, 668.833 828.768, 670.544 829.497, 672.492 830.111, 674.136 830.250, 674.339 " fill="none" stroke="rgb(0, 0, 0)" stroke-linecap="butt" stroke-linejoin="round" stroke-opacity="1.0" stroke-width="3.0" />
            <path d=" M 641.831, 973.560 642.300, 975.167 643.283, 978.542 645.513, 981.826 650.846, 984.934 657.027, 986.981 659.754, 987.628 663.865, 987.537 668.960, 987.007 677.942, 985.573 684.188, 983.658 685.409, 982.881 " fill="none" stroke="rgb(0, 0, 0)" stroke-linecap="butt" stroke-linejoin="round" stroke-opacity="1.0" stroke-width="3.0" />
            <path d=" M 588.307, 283.537 589.489, 278.695 589.194, 277.086 588.857, 275.249 590.888, 273.284 594.756, 269.543 602.022, 264.774 605.115, 262.340 605.800, 259.878 606.187, 256.308 605.075, 254.854 604.272, 254.191 595.024, 252.089 591.934, 252.935 " fill="none" stroke="rgb(0, 0, 0)" stroke-linecap="butt" stroke-linejoin="round" stroke-opacity="1.0" stroke-width="3.0" />
            <path d=" M 588.495, 851.033 590.294, 850.952 597.587, 850.624 602.943, 850.220 609.025, 849.842 616.108, 849.465 625.808, 849.323 635.808, 849.363 639.495, 849.379 " fill="none" stroke="rgb(0, 0, 0)" stroke-linecap="butt" stroke-linejoin="round" stroke-opacity="1.0" stroke-width="3.0" />
            <path d=" M 684.108, 664.891 678.820, 662.559 674.268, 660.664 671.871, 659.949 665.593, 658.123 662.574, 657.872 659.636, 657.784 657.187, 656.921 653.526, 656.504 643.597, 655.315 643.044, 655.248 638.140, 655.186 633.205, 655.442 632.250, 655.492 " fill="none" stroke="rgb(0, 0, 0)" stroke-linecap="butt" stroke-linejoin="round" stroke-opacity="1.0" stroke-width="3.0" />
            <path d=" M 754.653, 701.094 747.125, 699.864 745.278, 699.308 739.898, 697.596 732.249, 694.964 726.652, 691.908 718.881, 686.387 713.330, 682.495 706.194, 677.808 705.384, 677.275 " fill="none" stroke="rgb(0, 0, 0)" stroke-linecap="butt" stroke-linejoin="round" stroke-opacity="1.0" stroke-width="3.0" />
            <path d=" M 452.624, 422.653 452.028, 427.326 450.807, 429.989 450.294, 431.110 449.187, 441.048 449.137, 441.494 447.336, 451.331 447.221, 451.958 445.202, 459.262 443.009, 466.984 440.306, 476.611 440.181, 477.055 " fill="none" stroke="rgb(0, 0, 0)" stroke-linecap="butt" stroke-linejoin="round" stroke-opacity="1.0" stroke-width="3.0" />
            <path d=" M 601.168, 604.058 601.885, 602.764 602.165, 602.259 602.291, 602.033 602.294, 602.026 602.541, 601.581 603.597, 599.676 606.183, 597.306 607.778, 598.277 611.168, 600.897 611.285, 600.988 611.307, 601.005 611.443, 601.110 611.588, 601.222 612.634, 602.030 612.636, 602.031 612.696, 602.079 612.799, 602.158 619.640, 605.008 623.090, 604.856 624.498, 603.859 625.837, 600.087 627.928, 596.172 631.191, 594.629 632.938, 593.779 634.969, 592.670 636.730, 591.230 637.267, 589.962 637.060, 587.134 636.895, 582.407 " fill="none" stroke="rgb(0, 0, 0)" stroke-linecap="butt" stroke-linejoin="round" stroke-opacity="1.0" stroke-width="3.0" />
            <path d=" M 504.556, 973.283 507.089, 972.184 510.360, 972.432 510.363, 972.432 510.860, 972.523 517.996, 973.828 519.186, 973.612 529.050, 971.802 535.219, 971.011 536.319, 970.890 539.643, 969.682 541.103, 969.065 543.362, 967.313 544.842, 966.165 548.430, 963.383 551.298, 961.159 551.485, 961.013 552.235, 960.719 556.657, 958.985 557.829, 958.525 " fill="none" stroke="rgb(0, 0, 0)" stroke-linecap="butt" stroke-linejoin="round" stroke-opacity="1.0" stroke-width="3.0" />
            <path d=" M 560.396, 327.106 560.745, 327.120 563.221, 327.214 563.367, 327.220 565.698, 326.477 567.429, 325.926 570.097, 325.889 578.916, 325.767 582.211, 325.676 586.595, 322.206 587.322, 319.128 586.276, 316.422 585.638, 314.773 580.852, 310.118 580.043, 309.810 578.873, 309.363 578.860, 309.359 578.860, 309.359 575.234, 308.364 575.229, 308.363 570.901, 307.175 570.346, 307.022 567.087, 307.066 567.078, 307.066 566.862, 307.069 566.309, 307.076 564.608, 307.099 " fill="none" stroke="rgb(0, 0, 0)" stroke-linecap="butt" stroke-linejoin="round" stroke-opacity="1.0" stroke-width="3.0" />
            <path d=" M 706.096, 792.461 704.880, 793.332 702.832, 793.994 697.158, 796.053 690.585, 798.467 686.024, 801.789 684.845, 803.082 683.149, 805.907 682.838, 807.391 683.849, 809.061 686.043, 811.306 693.206, 815.165 700.945, 817.674 706.961, 819.723 709.211, 820.089 709.229, 820.096 " fill="none" stroke="rgb(0, 0, 0)" stroke-linecap="butt" stroke-linejoin="round" stroke-opacity="1.0" stroke-width="3.0" />
            <path d=" M 628.770, 733.302 632.740, 729.550 633.072, 728.013 633.431, 724.988 631.944, 721.442 631.313, 719.186 629.116, 715.768 627.672, 713.425 623.532, 710.290 618.557, 706.726 613.222, 701.277 610.595, 697.771 608.640, 693.832 607.682, 690.560 606.447, 686.076 606.338, 685.677 " fill="none" stroke="rgb(0, 0, 0)" stroke-linecap="butt" stroke-linejoin="round" stroke-opacity="1.0" stroke-width="3.0" />
            <path d=" M 463.129, 353.793 462.050, 357.911 461.501, 359.790 459.898, 365.670 459.949, 369.195 458.513, 373.540 457.246, 383.139 456.198, 393.084 456.101, 393.998 455.027, 400.704 453.768, 410.624 453.603, 411.918 453.447, 413.149 " fill="none" stroke="rgb(0, 0, 0)" stroke-linecap="butt" stroke-linejoin="round" stroke-opacity="1.0" stroke-width="3.0" />
            <path d=" M 563.534, 455.347 564.196, 455.427 564.912, 455.514 568.319, 455.926 568.522, 455.950 570.956, 456.244 580.287, 452.647 581.558, 452.157 587.367, 450.399 589.959, 448.272 590.882, 446.916 590.228, 443.636 589.606, 441.677 585.925, 439.444 579.494, 436.506 577.502, 436.567 567.507, 436.876 566.891, 436.895 563.917, 436.986 " fill="none" stroke="rgb(0, 0, 0)" stroke-linecap="butt" stroke-linejoin="round" stroke-opacity="1.0" stroke-width="3.0" />
            <path d=" M 667.873, 857.642 677.844, 858.409 684.367, 858.911 694.309, 859.993 696.643, 860.247 706.569, 861.460 707.891, 861.622 713.867, 861.833 717.840, 862.245 718.094, 862.271 718.965, 862.362 728.607, 865.011 729.801, 865.339 " fill="none" stroke="rgb(0, 0, 0)" stroke-linecap="butt" stroke-linejoin="round" stroke-opacity="1.0" stroke-width="3.0" />
            <path d=" M 521.468, 311.210 519.859, 313.148 513.558, 320.737 505.388, 326.503 502.993, 328.194 498.544, 330.757 494.279, 333.696 491.215, 335.624 487.474, 337.978 481.492, 341.462 478.493, 343.627 474.849, 346.257 473.723, 347.353 471.141, 349.865 " fill="none" stroke="rgb(0, 0, 0)" stroke-linecap="butt" stroke-linejoin="round" stroke-opacity="1.0" stroke-width="3.0" />
            <path d=" M 560.482, 265.365 558.091, 265.892 555.028, 267.125 554.986, 267.141 553.842, 267.602 553.343, 267.880 550.908, 269.239 548.846, 274.023 545.677, 278.955 540.289, 285.840 537.195, 289.530 535.034, 292.108 534.595, 292.632 528.458, 300.527 528.365, 300.647 522.805, 308.958 522.342, 309.650 519.859, 313.148 " fill="none" stroke="rgb(0, 0, 0)" stroke-linecap="butt" stroke-linejoin="round" stroke-opacity="1.0" stroke-width="3.0" />
            <path d=" M 630.432, 455.174 634.827, 454.879 639.897, 454.538 643.994, 454.284 648.733, 453.443 649.614, 452.112 650.183, 450.351 646.971, 447.537 640.287, 443.661 636.134, 440.270 631.323, 437.692 622.240, 436.108 618.034, 436.690 614.339, 437.202 611.928, 436.151 " fill="none" stroke="rgb(0, 0, 0)" stroke-linecap="butt" stroke-linejoin="round" stroke-opacity="1.0" stroke-width="3.0" />
            <path d=" M 621.488, 428.210 624.578, 426.774 628.343, 425.024 637.565, 423.124 641.279, 420.744 641.849, 418.086 640.914, 415.864 637.034, 413.255 629.179, 408.734 624.974, 405.834 615.488, 403.402 608.199, 403.990 608.045, 403.905 606.062, 402.817 " fill="none" stroke="rgb(0, 0, 0)" stroke-linecap="butt" stroke-linejoin="round" stroke-opacity="1.0" stroke-width="3.0" />
            <path d=" M 915.268, 542.782 912.818, 540.526 906.655, 537.715 900.543, 535.459 892.524, 532.919 888.189, 533.668 886.190, 534.174 887.018, 535.870 888.933, 539.858 890.641, 541.258 891.512, 545.036 894.676, 552.668 897.011, 559.011 897.618, 560.632 899.213, 563.804 900.209, 564.839 " fill="none" stroke="rgb(0, 0, 0)" stroke-linecap="butt" stroke-linejoin="round" stroke-opacity="1.0" stroke-width="3.0" />
            <path d=" M 348.688, 770.343 349.052, 772.414 348.176, 775.594 348.573, 779.139 347.812, 782.573 347.647, 785.019 348.344, 788.369 347.472, 794.091 347.453, 798.680 347.262, 800.872 347.520, 803.110 347.273, 807.817 347.163, 812.641 347.100, 815.112 347.840, 819.489 347.817, 823.680 347.842, 827.349 350.139, 833.297 350.719, 836.236 351.620, 836.951 352.174, 837.391 352.223, 837.430 353.546, 838.480 " fill="none" stroke="rgb(0, 0, 0)" stroke-linecap="butt" stroke-linejoin="round" stroke-opacity="1.0" stroke-width="3.0" />
            <path d=" M 882.164, 504.573 880.047, 505.027 874.213, 507.244 873.327, 510.678 878.663, 513.560 886.346, 515.869 896.109, 518.031 896.267, 518.066 904.545, 521.448 906.835, 522.846 906.954, 522.919 908.132, 523.638 913.508, 525.808 918.414, 529.256 925.053, 534.844 925.667, 535.361 925.785, 535.460 " fill="none" stroke="rgb(0, 0, 0)" stroke-linecap="butt" stroke-linejoin="round" stroke-opacity="1.0" stroke-width="3.0" />
            <path d=" M 661.421, 329.073 668.347, 329.578 672.157, 329.794 664.191, 329.510 658.528, 331.273 653.184, 332.629 648.562, 333.420 642.655, 335.198 637.441, 336.743 631.188, 338.960 622.099, 343.131 619.402, 344.369 615.570, 346.411 612.736, 348.104 612.607, 348.181 " fill="none" stroke="rgb(0, 0, 0)" stroke-linecap="butt" stroke-linejoin="round" stroke-opacity="1.0" stroke-width="3.0" />
            <path d=" M 853.923, 875.988 855.866, 874.068 857.661, 871.736 860.026, 868.664 864.978, 860.215 868.070, 854.777 872.981, 846.066 875.609, 841.405 880.826, 832.873 884.177, 827.392 885.406, 825.105 889.771, 817.182 892.513, 812.232 " fill="none" stroke="rgb(0, 0, 0)" stroke-linecap="butt" stroke-linejoin="round" stroke-opacity="1.0" stroke-width="3.0" />
            <path d=" M 653.343, 730.499 653.040, 731.271 651.883, 735.620 651.284, 741.415 651.338, 750.621 650.971, 760.615 650.894, 762.724 650.218, 770.921 649.542, 777.214 650.145, 780.258 651.680, 782.224 653.731, 783.600 654.432, 784.066 658.218, 785.352 662.222, 784.838 664.609, 783.618 670.382, 781.018 671.605, 779.139 " fill="none" stroke="rgb(0, 0, 0)" stroke-linecap="butt" stroke-linejoin="round" stroke-opacity="1.0" stroke-width="3.0" />
            <path d=" M 581.158, 496.738 581.571, 496.535 588.843, 492.964 597.812, 490.077 599.260, 488.285 600.293, 486.659 599.543, 483.930 592.736, 479.851 592.445, 479.653 585.037, 474.599 579.673, 471.923 571.845, 470.031 570.158, 469.966 568.190, 469.891 565.458, 468.246 564.889, 467.904 564.815, 467.859 563.672, 467.171 563.192, 466.883 563.234, 466.527 563.736, 462.283 563.697, 461.527 563.538, 458.463 563.415, 456.101 " fill="none" stroke="rgb(0, 0, 0)" stroke-linecap="butt" stroke-linejoin="round" stroke-opacity="1.0" stroke-width="3.0" />
            <path d=" M 882.475, 635.090 881.668, 635.004 874.594, 634.250 867.243, 635.018 866.642, 635.080 866.589, 635.086 866.184, 635.129 866.167, 635.131 865.428, 635.210 864.619, 635.297 863.196, 635.449 863.092, 635.460 860.777, 635.707 851.322, 635.230 845.620, 636.669 844.360, 637.448 843.933, 639.661 847.047, 642.742 848.030, 643.514 852.313, 646.219 856.743, 649.627 856.868, 649.775 856.918, 649.834 858.148, 651.292 858.156, 651.301 860.579, 654.172 864.878, 660.148 865.316, 660.758 866.529, 662.022 870.818, 665.926 " fill="none" stroke="rgb(0, 0, 0)" stroke-linecap="butt" stroke-linejoin="round" stroke-opacity="1.0" stroke-width="3.0" />
            <path d=" M 594.908, 725.837 595.773, 725.913 601.591, 726.424 605.452, 726.678 607.728, 726.717 609.655, 725.413 609.887, 724.223 607.693, 721.605 606.593, 718.853 607.007, 715.997 606.472, 714.022 604.911, 711.496 604.088, 707.825 603.515, 706.433 603.647, 702.592 603.247, 701.139 602.753, 697.299 602.824, 694.516 602.387, 689.023 601.957, 680.926 602.425, 677.660 601.002, 673.125 599.562, 667.773 599.341, 667.285 597.442, 664.352 597.378, 664.275 " fill="none" stroke="rgb(0, 0, 0)" stroke-linecap="butt" stroke-linejoin="round" stroke-opacity="1.0" stroke-width="3.0" />
            <path d=" M 534.566, 867.622 532.122, 874.863 534.576, 878.825 534.651, 878.946 534.852, 879.076 535.562, 879.534 536.115, 879.774 536.168, 879.797 536.254, 879.834 538.167, 880.665 538.182, 880.671 538.282, 880.715 538.695, 880.894 545.826, 879.964 546.067, 879.932 549.971, 880.742 554.325, 881.668 558.305, 883.019 563.436, 884.243 566.630, 885.037 566.867, 885.096 566.896, 885.103 569.731, 885.808 572.289, 886.444 580.019, 887.590 587.057, 890.290 590.915, 891.770 594.196, 893.134 600.262, 897.677 600.306, 897.710 600.413, 897.768 600.585, 897.861 601.014, 898.092 601.078, 898.127 601.164, 898.173 601.340, 898.269 602.691, 898.999 " fill="none" stroke="rgb(0, 0, 0)" stroke-linecap="butt" stroke-linejoin="round" stroke-opacity="1.0" stroke-width="3.0" />
            <path d=" M 993.500, 558.920 994.949, 550.932 995.287, 549.148 996.808, 541.126 997.614, 532.542 997.369, 530.694 997.440, 524.065 997.049, 517.769 997.575, 509.247 997.365, 503.475 997.463, 498.441 995.142, 490.099 992.620, 480.422 992.285, 479.136 987.997, 470.618 985.947, 467.553 984.306, 466.603 " fill="none" stroke="rgb(0, 0, 0)" stroke-linecap="butt" stroke-linejoin="round" stroke-opacity="1.0" stroke-width="3.0" />
            <path d=" M 672.157, 329.794 676.084, 327.342 676.185, 325.204 672.067, 322.784 662.802, 319.706 653.016, 317.652 650.515, 317.127 647.970, 316.253 640.493, 314.603 630.557, 313.473 629.877, 313.396 619.882, 313.092 616.201, 312.980 608.598, 314.632 604.521, 315.291 594.670, 317.012 592.835, 317.332 590.417, 316.638 586.276, 316.422 " fill="none" stroke="rgb(0, 0, 0)" stroke-linecap="butt" stroke-linejoin="round" stroke-opacity="1.0" stroke-width="3.0" />
            <path d=" M 440.272, 476.832 440.181, 477.055 436.390, 486.308 434.939, 489.849 431.745, 497.835 427.357, 506.821 426.151, 509.291 421.418, 517.641 417.631, 523.468 414.020, 529.126 410.686, 535.415 407.274, 543.100 403.937, 551.032 400.837, 558.982 399.686, 561.451 398.189, 564.663 397.400, 566.354 396.671, 567.917 " fill="none" stroke="rgb(0, 0, 0)" stroke-linecap="butt" stroke-linejoin="round" stroke-opacity="1.0" stroke-width="3.0" />
            <path d=" M 960.121, 481.617 960.430, 479.871 961.087, 476.158 959.432, 467.488 959.383, 467.231 958.914, 466.479 958.654, 466.061 958.549, 465.893 958.162, 465.273 958.076, 465.135 957.941, 465.158 957.527, 465.229 957.241, 465.278 956.900, 465.337 951.668, 466.238 948.817, 468.314 945.940, 470.898 944.807, 472.920 944.322, 475.803 942.037, 484.368 944.922, 492.062 945.218, 492.852 944.320, 498.100 941.844, 499.058 939.806, 498.626 935.519, 497.718 930.648, 496.686 921.785, 495.956 919.956, 495.886 915.936, 496.391 910.063, 497.633 900.352, 500.017 898.451, 500.483 893.389, 501.405 885.517, 503.806 " fill="none" stroke="rgb(0, 0, 0)" stroke-linecap="butt" stroke-linejoin="round" stroke-opacity="1.0" stroke-width="3.0" />
            <path d=" M 465.825, 798.672 467.057, 797.326 467.616, 796.715 470.358, 791.425 476.312, 783.390 477.251, 782.122 483.794, 775.451 491.066, 768.587 491.680, 768.007 499.070, 761.407 506.003, 754.911 511.020, 751.104 515.264, 747.812 520.233, 744.197 526.512, 740.873 529.539, 739.535 533.582, 736.129 533.755, 735.914 533.780, 735.883 534.280, 735.162 534.556, 734.765 534.826, 734.376 536.342, 732.191 536.827, 730.753 537.098, 729.951 537.966, 727.380 539.206, 724.672 540.080, 722.765 540.412, 722.547 542.905, 720.917 543.994, 720.205 544.496, 718.997 544.498, 718.991 544.981, 717.831 545.572, 716.410 545.581, 716.387 545.620, 716.293 545.712, 716.073 545.763, 715.948 545.812, 715.831 546.518, 714.133 546.674, 713.757 546.873, 713.249 546.910, 713.152 546.978, 712.978 547.056, 712.779 547.849, 710.745 547.871, 710.688 547.949, 710.489 548.799, 707.089 548.793, 705.058 548.790, 704.237 548.784, 702.262 548.776, 699.714 548.775, 699.216 548.772, 698.339 548.772, 698.284 548.771, 697.887 " fill="none" stroke="rgb(0, 0, 0)" stroke-linecap="butt" stroke-linejoin="round" stroke-opacity="1.0" stroke-width="3.0" />
            <path d=" M 606.360, 911.656 601.508, 919.412 596.560, 927.019 595.278, 928.635 595.060, 928.910 588.805, 936.794 586.801, 939.338 583.183, 945.350 581.300, 951.305 581.202, 952.506 581.083, 953.966 582.510, 957.638 582.635, 957.960 584.338, 960.171 591.623, 965.158 595.922, 966.532 598.897, 967.050 604.112, 968.109 607.777, 967.622 612.272, 967.218 615.270, 965.599 621.722, 963.485 626.950, 961.833 636.222, 958.086 638.090, 957.330 642.436, 956.803 652.431, 957.109 654.122, 957.161 662.494, 959.574 663.230, 959.787 " fill="none" stroke="rgb(0, 0, 0)" stroke-linecap="butt" stroke-linejoin="round" stroke-opacity="1.0" stroke-width="3.0" />
            <path d=" M 409.154, 838.852 408.190, 842.763 407.812, 844.299 408.408, 847.699 408.310, 850.392 408.438, 854.567 408.425, 859.079 408.755, 862.511 408.885, 863.673 409.241, 866.854 409.241, 866.857 409.295, 867.333 409.937, 873.074 410.406, 876.511 412.876, 882.777 413.687, 888.453 415.783, 895.276 419.797, 904.435 420.299, 905.579 423.028, 911.168 426.107, 917.663 429.793, 923.497 434.207, 929.393 435.893, 931.317 436.090, 931.541 436.122, 931.578 436.448, 931.950 438.093, 933.827 438.103, 933.838 438.142, 933.882 438.332, 934.101 439.123, 935.011 440.833, 936.977 441.501, 937.745 441.862, 938.160 442.071, 938.400 443.207, 939.707 447.653, 943.045 451.514, 946.253 451.846, 946.411 452.068, 946.516 456.796, 948.756 456.821, 948.768 457.494, 949.076 457.701, 949.171 458.000, 949.308 458.123, 949.364 461.291, 950.579 462.014, 950.857 463.049, 951.020 465.575, 951.764 466.253, 951.765 468.201, 951.768 469.437, 951.770 470.007, 951.771 " fill="none" stroke="rgb(0, 0, 0)" stroke-linecap="butt" stroke-linejoin="round" stroke-opacity="1.0" stroke-width="3.0" />
            <path d=" M 587.113, 405.023 589.987, 404.263 595.215, 402.881 603.699, 401.177 604.171, 401.082 606.665, 400.957 607.569, 400.912 608.422, 400.869 617.118, 399.827 627.101, 400.413 630.775, 400.628 632.524, 399.505 636.044, 396.573 635.687, 393.587 633.017, 391.051 628.052, 388.391 623.093, 386.217 622.902, 386.139 622.110, 385.814 622.107, 385.813 613.070, 382.107 606.797, 379.396 599.526, 376.135 591.143, 374.427 584.043, 373.881 578.097, 372.779 568.098, 372.612 567.306, 372.599 560.961, 373.014 559.761, 373.093 558.158, 373.198 558.014, 373.207 557.842, 373.218 556.085, 372.807 554.697, 372.481 554.189, 372.362 553.655, 372.237 " fill="none" stroke="rgb(0, 0, 0)" stroke-linecap="butt" stroke-linejoin="round" stroke-opacity="1.0" stroke-width="3.0" />
            <path d=" M 991.670, 570.589 991.678, 570.653 991.482, 574.754 991.670, 570.589 991.849, 566.613 992.194, 556.619 992.300, 553.530 993.101, 545.410 993.350, 535.710 993.476, 525.711 993.532, 521.194 992.869, 516.363 993.272, 510.237 993.045, 506.850 993.265, 503.557 992.915, 500.828 992.750, 499.540 992.679, 498.990 991.505, 496.024 991.043, 494.856 989.094, 485.957 987.549, 481.810 987.180, 480.818 984.550, 475.964 981.444, 470.231 980.627, 468.398 980.226, 467.499 979.588, 466.069 979.258, 465.330 978.028, 462.571 977.581, 454.668 976.430, 449.014 974.375, 445.049 973.224, 444.552 971.097, 443.925 970.775, 443.830 970.536, 443.993 968.202, 445.578 967.490, 445.936 965.739, 446.902 964.009, 447.857 963.646, 449.323 963.463, 450.062 963.328, 450.610 963.303, 450.800 963.222, 451.435 962.613, 456.172 962.555, 456.623 " fill="none" stroke="rgb(0, 0, 0)" stroke-linecap="butt" stroke-linejoin="round" stroke-opacity="1.0" stroke-width="3.0" />
            <path d=" M 915.669, 772.450 916.866, 770.475 918.414, 767.919 922.212, 760.675 927.136, 751.971 928.259, 749.988 931.677, 742.222 932.964, 739.300 934.868, 735.622 937.235, 731.049 941.506, 722.057 946.257, 713.258 946.753, 712.339 950.923, 703.250 954.045, 696.447 958.476, 687.483 961.795, 680.769 965.887, 675.213 967.633, 671.335 970.288, 665.508 972.780, 659.611 974.004, 653.469 977.137, 646.800 979.004, 640.958 980.294, 637.233 982.390, 632.286 984.657, 629.135 985.240, 626.538 986.708, 618.909 987.205, 616.328 987.552, 614.527 " fill="none" stroke="rgb(0, 0, 0)" stroke-linecap="butt" stroke-linejoin="round" stroke-opacity="1.0" stroke-width="3.0" />
            <path d=" M 697.042, 820.546 696.336, 820.376 691.365, 819.180 685.700, 818.247 675.928, 818.644 668.244, 819.989 664.624, 820.995 656.891, 821.950 651.248, 823.473 647.261, 823.873 647.251, 823.874 647.242, 823.875 645.051, 824.094 639.283, 825.343 633.492, 826.460 629.029, 827.165 628.470, 827.287 627.726, 827.449 627.477, 827.503 626.246, 827.771 623.382, 828.394 619.567, 829.312 618.498, 829.570 616.577, 829.645 616.344, 829.655 614.220, 829.738 609.344, 831.103 604.651, 831.257 604.230, 831.271 597.033, 832.228 591.985, 833.268 591.143, 833.442 589.850, 833.708 589.039, 833.875 588.460, 833.994 588.371, 834.013 587.675, 834.156 587.614, 834.161 586.264, 834.259 580.259, 834.697 578.676, 835.229 578.546, 835.273 578.207, 835.387 575.509, 836.295 573.811, 836.476 573.794, 836.478 567.786, 837.120 564.263, 838.075 563.250, 838.393 563.136, 838.429 563.039, 838.459 562.000, 838.785 561.875, 838.825 561.511, 838.939 560.023, 839.406 559.372, 839.610 559.314, 839.628 558.359, 840.048 554.295, 842.324 553.775, 842.651 550.385, 844.783 546.366, 848.096 542.984, 852.391 539.021, 856.358 537.425, 858.085 536.479, 860.824 535.041, 864.989 534.735, 866.683 534.566, 867.622 534.393, 868.579 " fill="none" stroke="rgb(0, 0, 0)" stroke-linecap="butt" stroke-linejoin="round" stroke-opacity="1.0" stroke-width="3.0" />
            <path d=" M 396.294, 568.784 393.249, 575.187 389.780, 583.093 389.317, 584.419 386.798, 592.807 384.725, 602.590 382.652, 612.373 382.299, 614.037 380.224, 621.980 378.160, 626.157 372.017, 634.134 368.623, 638.463 366.440, 641.875 365.576, 644.173 362.464, 651.431 359.898, 658.305 356.550, 666.212 352.115, 674.708 349.533, 680.452 346.469, 689.810 345.656, 696.137 345.751, 702.044 346.602, 708.337 348.163, 716.074 349.724, 719.956 351.524, 724.060 352.126, 725.738 352.171, 725.865 352.186, 725.906 352.256, 726.102 352.257, 726.103 353.212, 728.766 355.610, 732.574 358.104, 738.146 359.010, 739.081 361.695, 741.285 365.507, 741.388 367.660, 738.537 369.296, 737.445 369.595, 737.245 370.582, 736.586 " fill="none" stroke="rgb(0, 0, 0)" stroke-linecap="butt" stroke-linejoin="round" stroke-opacity="1.0" stroke-width="3.0" />
        </g>
    </g>
</svg>
