<?xml version='1.0' encoding='ascii'?>
<svg xmlns="http://www.w3.org/2000/svg" height="1280" version="1.1" width="1280">
    <g id="RenderLayer_LineSet" inkscape:groupmode="lineset" inkscape:label="RenderLayer_LineSet" xmlns:inkscape="http://www.inkscape.org/namespaces/inkscape">
        <g id="strokes" inkscape:groupmode="layer" inkscape:label="strokes" xmlns:inkscape="http://www.inkscape.org/namespaces/inkscape">
            <path d=" M 586.691, 274.208 590.540, 270.082 592.064, 268.448 592.140, 268.367 592.211, 268.291 592.254, 268.245 595.020, 265.279 596.364, 263.157 597.776, 260.925 598.181, 260.285 597.493, 258.864 597.427, 258.728 597.359, 258.587 " fill="none" stroke="rgb(0, 0, 0)" stroke-linecap="butt" stroke-linejoin="round" stroke-opacity="1.0" stroke-width="3.0" />
            <path d=" M 443.811, 1043.834 453.093, 1040.113 453.926, 1039.779 461.694, 1037.849 462.771, 1037.581 " fill="none" stroke="rgb(0, 0, 0)" stroke-linecap="butt" stroke-linejoin="round" stroke-opacity="1.0" stroke-width="3.0" />
            <path d=" M 542.779, 636.947 543.649, 640.394 543.783, 640.740 543.879, 640.989 543.889, 641.014 544.693, 643.096 545.440, 645.028 545.749, 645.630 547.652, 648.842 550.233, 654.005 550.305, 654.149 550.861, 655.261 " fill="none" stroke="rgb(0, 0, 0)" stroke-linecap="butt" stroke-linejoin="round" stroke-opacity="1.0" stroke-width="3.0" />
            <path d=" M 542.228, 489.763 541.707, 490.136 541.196, 490.503 539.856, 491.463 535.274, 491.752 525.292, 492.358 523.291, 492.479 522.599, 492.521 " fill="none" stroke="rgb(0, 0, 0)" stroke-linecap="butt" stroke-linejoin="round" stroke-opacity="1.0" stroke-width="3.0" />
            <path d=" M 355.220, 780.383 353.057, 787.753 352.631, 791.133 352.048, 794.682 352.917, 798.012 353.470, 800.134 " fill="none" stroke="rgb(0, 0, 0)" stroke-linecap="butt" stroke-linejoin="round" stroke-opacity="1.0" stroke-width="3.0" />
            <path d=" M 605.190, 619.966 605.764, 609.982 605.781, 609.701 606.562, 599.682 " fill="none" stroke="rgb(0, 0, 0)" stroke-linecap="butt" stroke-linejoin="round" stroke-opacity="1.0" stroke-width="3.0" />
            <path d=" M 461.465, 875.978 461.839, 870.511 462.075, 867.094 463.314, 860.800 463.895, 855.812 " fill="none" stroke="rgb(0, 0, 0)" stroke-linecap="butt" stroke-linejoin="round" stroke-opacity="1.0" stroke-width="3.0" />
            <path d=" M 589.517, 1025.308 590.109, 1025.818 594.604, 1028.355 599.620, 1029.073 602.857, 1027.691 604.685, 1023.959 605.374, 1022.451 " fill="none" stroke="rgb(0, 0, 0)" stroke-linecap="butt" stroke-linejoin="round" stroke-opacity="1.0" stroke-width="3.0" />
            <path d=" M 731.445, 749.882 730.592, 749.693 726.492, 749.647 722.506, 749.497 719.337, 749.380 714.780, 748.797 711.170, 748.346 " fill="none" stroke="rgb(0, 0, 0)" stroke-linecap="butt" stroke-linejoin="round" stroke-opacity="1.0" stroke-width="3.0" />
            <path d=" M 611.996, 750.926 610.501, 743.417 609.020, 737.251 607.487, 733.384 606.841, 731.213 " fill="none" stroke="rgb(0, 0, 0)" stroke-linecap="butt" stroke-linejoin="round" stroke-opacity="1.0" stroke-width="3.0" />
            <path d=" M 398.287, 842.286 398.512, 843.140 400.616, 851.150 403.081, 858.137 404.987, 861.724 " fill="none" stroke="rgb(0, 0, 0)" stroke-linecap="butt" stroke-linejoin="round" stroke-opacity="1.0" stroke-width="3.0" />
            <path d=" M 564.722, 636.165 564.729, 636.167 567.944, 637.271 568.372, 637.418 571.646, 638.542 573.986, 639.346 576.027, 638.731 578.170, 636.859 580.311, 634.990 582.506, 634.648 582.544, 634.642 583.385, 634.510 " fill="none" stroke="rgb(0, 0, 0)" stroke-linecap="butt" stroke-linejoin="round" stroke-opacity="1.0" stroke-width="3.0" />
            <path d=" M 617.698, 597.452 618.331, 596.326 619.986, 596.261 623.377, 600.116 627.054, 602.071 629.769, 602.834 631.146, 602.754 634.018, 602.586 634.433, 602.234 634.513, 602.166 635.221, 601.566 " fill="none" stroke="rgb(0, 0, 0)" stroke-linecap="butt" stroke-linejoin="round" stroke-opacity="1.0" stroke-width="3.0" />
            <path d=" M 500.896, 329.231 499.081, 329.124 497.093, 330.388 494.509, 334.584 493.451, 340.815 492.664, 346.247 " fill="none" stroke="rgb(0, 0, 0)" stroke-linecap="butt" stroke-linejoin="round" stroke-opacity="1.0" stroke-width="3.0" />
            <path d=" M 348.221, 894.850 348.349, 896.832 348.939, 905.993 348.985, 907.695 349.040, 909.745 350.423, 915.975 " fill="none" stroke="rgb(0, 0, 0)" stroke-linecap="butt" stroke-linejoin="round" stroke-opacity="1.0" stroke-width="3.0" />
            <path d=" M 929.756, 366.024 928.157, 357.752 926.420, 352.613 924.195, 349.497 923.065, 348.860 920.973, 348.932 920.755, 349.029 " fill="none" stroke="rgb(0, 0, 0)" stroke-linecap="butt" stroke-linejoin="round" stroke-opacity="1.0" stroke-width="3.0" />
            <path d=" M 779.695, 692.902 780.102, 694.497 778.237, 695.869 775.441, 697.925 772.065, 701.006 771.804, 702.006 771.242, 704.156 769.710, 710.024 " fill="none" stroke="rgb(0, 0, 0)" stroke-linecap="butt" stroke-linejoin="round" stroke-opacity="1.0" stroke-width="3.0" />
            <path d=" M 735.285, 765.391 727.402, 768.195 718.164, 770.914 716.426, 771.425 714.921, 771.868 " fill="none" stroke="rgb(0, 0, 0)" stroke-linecap="butt" stroke-linejoin="round" stroke-opacity="1.0" stroke-width="3.0" />
            <path d=" M 414.326, 989.721 417.153, 991.285 419.773, 992.734 423.552, 995.690 427.399, 998.258 427.535, 998.249 427.601, 998.245 433.121, 997.886 " fill="none" stroke="rgb(0, 0, 0)" stroke-linecap="butt" stroke-linejoin="round" stroke-opacity="1.0" stroke-width="3.0" />
            <path d=" M 613.028, 632.877 613.164, 633.002 614.696, 634.408 614.732, 634.453 614.875, 634.630 616.573, 636.739 619.929, 638.413 619.987, 638.442 620.569, 638.564 620.752, 638.603 620.811, 638.615 621.321, 638.722 624.599, 639.411 628.736, 639.491 628.879, 639.494 629.281, 639.319 630.062, 638.981 630.236, 638.906 630.323, 638.868 631.741, 638.654 632.319, 638.567 " fill="none" stroke="rgb(0, 0, 0)" stroke-linecap="butt" stroke-linejoin="round" stroke-opacity="1.0" stroke-width="3.0" />
            <path d=" M 485.317, 1034.944 494.718, 1035.836 503.480, 1037.335 505.692, 1038.126 506.759, 1038.508 " fill="none" stroke="rgb(0, 0, 0)" stroke-linecap="butt" stroke-linejoin="round" stroke-opacity="1.0" stroke-width="3.0" />
            <path d=" M 397.217, 996.095 398.662, 997.882 399.553, 998.983 400.983, 1000.751 402.536, 1002.187 403.270, 1002.864 404.201, 1003.323 405.032, 1003.732 406.411, 1004.411 407.349, 1004.873 407.924, 1005.166 409.941, 1006.195 409.985, 1006.217 411.798, 1007.142 412.177, 1007.335 412.339, 1007.489 413.230, 1008.340 413.833, 1008.916 414.268, 1009.331 " fill="none" stroke="rgb(0, 0, 0)" stroke-linecap="butt" stroke-linejoin="round" stroke-opacity="1.0" stroke-width="3.0" />
            <path d=" M 658.782, 547.485 658.899, 547.177 660.235, 543.654 660.143, 541.137 658.451, 539.547 656.768, 537.407 652.773, 536.143 651.669, 535.065 653.746, 533.162 655.101, 531.921 " fill="none" stroke="rgb(0, 0, 0)" stroke-linecap="butt" stroke-linejoin="round" stroke-opacity="1.0" stroke-width="3.0" />
            <path d=" M 878.188, 409.194 883.360, 415.949 884.418, 418.410 889.636, 424.436 891.539, 426.633 " fill="none" stroke="rgb(0, 0, 0)" stroke-linecap="butt" stroke-linejoin="round" stroke-opacity="1.0" stroke-width="3.0" />
            <path d=" M 453.520, 800.251 454.092, 792.052 450.731, 784.556 450.705, 784.498 449.637, 778.983 " fill="none" stroke="rgb(0, 0, 0)" stroke-linecap="butt" stroke-linejoin="round" stroke-opacity="1.0" stroke-width="3.0" />
            <path d=" M 465.327, 463.292 461.352, 472.468 458.345, 479.409 456.462, 483.609 " fill="none" stroke="rgb(0, 0, 0)" stroke-linecap="butt" stroke-linejoin="round" stroke-opacity="1.0" stroke-width="3.0" />
            <path d=" M 404.201, 1003.323 407.038, 1006.082 410.632, 1008.425 412.219, 1010.882 413.704, 1012.358 415.096, 1013.741 416.426, 1016.232 419.658, 1018.917 " fill="none" stroke="rgb(0, 0, 0)" stroke-linecap="butt" stroke-linejoin="round" stroke-opacity="1.0" stroke-width="3.0" />
            <path d=" M 770.426, 734.804 768.663, 737.365 767.330, 738.505 765.855, 739.767 765.693, 739.900 764.919, 740.536 764.845, 740.597 763.361, 741.817 763.254, 741.904 762.933, 742.168 762.918, 742.181 762.213, 742.761 758.331, 745.951 752.543, 746.864 " fill="none" stroke="rgb(0, 0, 0)" stroke-linecap="butt" stroke-linejoin="round" stroke-opacity="1.0" stroke-width="3.0" />
            <path d=" M 555.221, 658.635 555.537, 657.159 556.378, 653.219 556.583, 651.966 556.810, 650.583 557.425, 646.826 557.464, 646.590 557.789, 646.076 557.828, 646.014 557.952, 645.818 559.161, 643.907 560.367, 640.800 560.478, 640.514 561.604, 637.102 " fill="none" stroke="rgb(0, 0, 0)" stroke-linecap="butt" stroke-linejoin="round" stroke-opacity="1.0" stroke-width="3.0" />
            <path d=" M 540.684, 839.129 543.176, 840.976 544.873, 842.233 549.206, 844.919 549.279, 844.964 550.322, 845.611 554.837, 848.441 559.751, 851.522 " fill="none" stroke="rgb(0, 0, 0)" stroke-linecap="butt" stroke-linejoin="round" stroke-opacity="1.0" stroke-width="3.0" />
            <path d=" M 940.530, 384.405 935.501, 375.761 934.739, 374.451 933.816, 373.208 929.756, 366.024 929.038, 364.754 " fill="none" stroke="rgb(0, 0, 0)" stroke-linecap="butt" stroke-linejoin="round" stroke-opacity="1.0" stroke-width="3.0" />
            <path d=" M 959.099, 460.282 959.139, 455.247 959.184, 449.528 958.596, 440.705 958.362, 440.289 957.033, 437.932 " fill="none" stroke="rgb(0, 0, 0)" stroke-linecap="butt" stroke-linejoin="round" stroke-opacity="1.0" stroke-width="3.0" />
            <path d=" M 546.871, 863.919 545.539, 862.643 544.774, 861.910 544.570, 861.715 544.273, 861.595 541.405, 860.439 537.597, 861.227 535.439, 861.626 534.858, 861.733 534.411, 861.816 533.528, 861.979 527.125, 863.162 525.471, 862.462 " fill="none" stroke="rgb(0, 0, 0)" stroke-linecap="butt" stroke-linejoin="round" stroke-opacity="1.0" stroke-width="3.0" />
            <path d=" M 567.164, 660.953 566.826, 655.343 567.241, 650.080 567.242, 650.067 567.427, 647.724 567.745, 643.685 568.167, 640.083 568.372, 637.418 " fill="none" stroke="rgb(0, 0, 0)" stroke-linecap="butt" stroke-linejoin="round" stroke-opacity="1.0" stroke-width="3.0" />
            <path d=" M 579.416, 861.797 583.063, 865.398 589.485, 873.064 590.270, 874.002 593.279, 879.293 593.871, 880.334 593.920, 880.421 593.946, 880.466 " fill="none" stroke="rgb(0, 0, 0)" stroke-linecap="butt" stroke-linejoin="round" stroke-opacity="1.0" stroke-width="3.0" />
            <path d=" M 848.411, 929.035 852.912, 923.728 853.644, 921.579 856.007, 914.257 856.219, 909.135 856.293, 907.345 " fill="none" stroke="rgb(0, 0, 0)" stroke-linecap="butt" stroke-linejoin="round" stroke-opacity="1.0" stroke-width="3.0" />
            <path d=" M 621.543, 302.441 621.366, 299.928 621.300, 298.992 618.446, 296.268 614.260, 294.898 607.147, 294.897 604.133, 295.358 601.783, 294.992 " fill="none" stroke="rgb(0, 0, 0)" stroke-linecap="butt" stroke-linejoin="round" stroke-opacity="1.0" stroke-width="3.0" />
            <path d=" M 536.408, 703.203 535.965, 705.685 534.870, 710.176 534.792, 710.496 533.989, 713.787 533.595, 715.288 533.815, 720.540 534.900, 724.083 535.444, 725.264 536.198, 726.900 " fill="none" stroke="rgb(0, 0, 0)" stroke-linecap="butt" stroke-linejoin="round" stroke-opacity="1.0" stroke-width="3.0" />
            <path d=" M 444.106, 996.039 443.621, 1000.063 443.443, 1001.551 444.052, 1007.145 444.213, 1008.621 447.259, 1014.119 449.267, 1018.576 449.571, 1019.251 " fill="none" stroke="rgb(0, 0, 0)" stroke-linecap="butt" stroke-linejoin="round" stroke-opacity="1.0" stroke-width="3.0" />
            <path d=" M 520.122, 908.507 526.883, 905.749 526.918, 905.735 527.234, 905.637 527.255, 905.630 527.270, 905.626 527.302, 905.616 528.819, 905.146 529.016, 905.085 529.195, 905.029 532.318, 904.061 532.436, 903.977 534.749, 901.439 536.213, 899.834 540.420, 895.557 " fill="none" stroke="rgb(0, 0, 0)" stroke-linecap="butt" stroke-linejoin="round" stroke-opacity="1.0" stroke-width="3.0" />
            <path d=" M 892.354, 428.944 892.349, 429.038 890.931, 434.743 891.159, 442.280 890.638, 445.410 889.707, 453.557 " fill="none" stroke="rgb(0, 0, 0)" stroke-linecap="butt" stroke-linejoin="round" stroke-opacity="1.0" stroke-width="3.0" />
            <path d=" M 787.816, 673.847 784.809, 678.688 784.807, 678.691 784.159, 679.492 779.745, 684.944 778.951, 686.742 778.027, 688.747 778.366, 690.960 779.695, 692.902 781.087, 694.934 " fill="none" stroke="rgb(0, 0, 0)" stroke-linecap="butt" stroke-linejoin="round" stroke-opacity="1.0" stroke-width="3.0" />
            <path d=" M 616.605, 667.249 614.877, 664.360 614.301, 663.398 614.254, 663.319 614.078, 663.025 614.043, 662.967 614.013, 662.917 613.959, 662.826 613.867, 662.673 613.090, 661.374 612.674, 660.058 611.693, 656.956 610.198, 647.069 609.806, 644.479 609.671, 643.584 " fill="none" stroke="rgb(0, 0, 0)" stroke-linecap="butt" stroke-linejoin="round" stroke-opacity="1.0" stroke-width="3.0" />
            <path d=" M 496.559, 918.591 500.373, 917.366 507.206, 914.221 510.905, 912.627 515.650, 909.752 518.935, 907.397 " fill="none" stroke="rgb(0, 0, 0)" stroke-linecap="butt" stroke-linejoin="round" stroke-opacity="1.0" stroke-width="3.0" />
            <path d=" M 656.765, 952.243 657.422, 959.091 656.774, 964.496 654.701, 970.543 651.602, 976.532 " fill="none" stroke="rgb(0, 0, 0)" stroke-linecap="butt" stroke-linejoin="round" stroke-opacity="1.0" stroke-width="3.0" />
            <path d=" M 461.787, 1037.496 462.771, 1037.581 464.554, 1037.736 471.004, 1037.088 480.883, 1035.536 484.815, 1034.919 485.317, 1034.944 487.268, 1035.043 " fill="none" stroke="rgb(0, 0, 0)" stroke-linecap="butt" stroke-linejoin="round" stroke-opacity="1.0" stroke-width="3.0" />
            <path d=" M 871.534, 403.436 876.509, 407.217 878.188, 409.194 884.662, 416.815 889.177, 422.131 " fill="none" stroke="rgb(0, 0, 0)" stroke-linecap="butt" stroke-linejoin="round" stroke-opacity="1.0" stroke-width="3.0" />
            <path d=" M 570.538, 668.774 571.293, 664.817 571.754, 656.420 571.735, 656.153 571.584, 654.050 571.434, 651.967 571.422, 651.809 570.793, 643.074 " fill="none" stroke="rgb(0, 0, 0)" stroke-linecap="butt" stroke-linejoin="round" stroke-opacity="1.0" stroke-width="3.0" />
            <path d=" M 709.555, 744.196 706.718, 743.104 703.928, 742.168 700.388, 741.033 695.242, 739.284 689.260, 737.926 686.836, 738.104 685.434, 738.338 684.468, 738.499 " fill="none" stroke="rgb(0, 0, 0)" stroke-linecap="butt" stroke-linejoin="round" stroke-opacity="1.0" stroke-width="3.0" />
            <path d=" M 828.416, 944.571 834.463, 941.762 834.809, 941.601 836.243, 940.935 836.246, 940.934 838.788, 939.082 841.812, 936.411 845.732, 933.225 848.411, 929.035 848.582, 928.767 " fill="none" stroke="rgb(0, 0, 0)" stroke-linecap="butt" stroke-linejoin="round" stroke-opacity="1.0" stroke-width="3.0" />
            <path d=" M 359.057, 705.016 357.921, 709.975 355.974, 714.921 354.813, 717.621 353.799, 721.654 353.104, 725.949 353.359, 729.002 353.479, 730.445 " fill="none" stroke="rgb(0, 0, 0)" stroke-linecap="butt" stroke-linejoin="round" stroke-opacity="1.0" stroke-width="3.0" />
            <path d=" M 511.388, 1026.516 511.536, 1026.532 515.470, 1026.957 516.217, 1027.038 516.432, 1027.061 516.669, 1027.087 519.376, 1027.379 519.769, 1027.422 521.718, 1027.633 525.692, 1027.568 525.704, 1027.568 525.817, 1027.566 528.469, 1027.523 529.917, 1027.499 533.303, 1027.715 535.503, 1027.855 536.194, 1027.899 537.980, 1027.659 " fill="none" stroke="rgb(0, 0, 0)" stroke-linecap="butt" stroke-linejoin="round" stroke-opacity="1.0" stroke-width="3.0" />
            <path d=" M 468.925, 1024.249 470.834, 1024.268 474.496, 1024.304 474.520, 1024.304 474.922, 1024.308 479.905, 1022.854 480.025, 1022.820 480.364, 1022.721 480.432, 1022.701 480.531, 1022.672 480.576, 1022.670 480.871, 1022.658 484.565, 1022.512 488.775, 1022.477 488.998, 1022.603 491.214, 1023.860 491.907, 1024.253 494.539, 1025.745 " fill="none" stroke="rgb(0, 0, 0)" stroke-linecap="butt" stroke-linejoin="round" stroke-opacity="1.0" stroke-width="3.0" />
            <path d=" M 597.427, 258.728 597.486, 257.201 595.605, 256.178 589.878, 256.837 584.913, 257.408 577.142, 262.061 575.615, 264.208 575.483, 264.394 575.110, 264.920 " fill="none" stroke="rgb(0, 0, 0)" stroke-linecap="butt" stroke-linejoin="round" stroke-opacity="1.0" stroke-width="3.0" />
            <path d=" M 354.607, 692.512 354.629, 692.600 355.518, 696.151 357.274, 701.764 358.853, 704.878 359.057, 705.016 363.969, 708.347 366.335, 707.621 366.677, 707.516 366.701, 707.508 367.142, 707.373 367.336, 707.313 367.819, 707.165 368.106, 707.077 371.246, 705.696 " fill="none" stroke="rgb(0, 0, 0)" stroke-linecap="butt" stroke-linejoin="round" stroke-opacity="1.0" stroke-width="3.0" />
            <path d=" M 598.029, 674.392 598.482, 671.638 598.514, 671.445 598.609, 670.864 599.565, 665.061 600.406, 657.659 599.546, 652.580 599.490, 652.250 599.481, 652.197 599.424, 651.857 599.411, 651.779 599.409, 651.767 598.947, 649.039 598.694, 647.542 " fill="none" stroke="rgb(0, 0, 0)" stroke-linecap="butt" stroke-linejoin="round" stroke-opacity="1.0" stroke-width="3.0" />
            <path d=" M 814.770, 574.613 814.966, 575.160 815.624, 576.988 815.453, 577.475 815.179, 578.263 816.838, 580.484 817.376, 581.205 819.083, 582.579 822.116, 585.019 822.217, 586.311 822.439, 589.179 824.531, 592.491 827.552, 597.273 " fill="none" stroke="rgb(0, 0, 0)" stroke-linecap="butt" stroke-linejoin="round" stroke-opacity="1.0" stroke-width="3.0" />
            <path d=" M 599.650, 774.238 597.510, 774.288 592.491, 774.403 591.863, 774.482 586.530, 775.159 580.918, 775.382 580.136, 775.551 575.856, 776.258 574.853, 776.423 572.397, 776.829 " fill="none" stroke="rgb(0, 0, 0)" stroke-linecap="butt" stroke-linejoin="round" stroke-opacity="1.0" stroke-width="3.0" />
            <path d=" M 554.837, 848.441 560.485, 852.550 569.695, 856.445 570.459, 856.769 579.179, 861.663 579.395, 861.784 " fill="none" stroke="rgb(0, 0, 0)" stroke-linecap="butt" stroke-linejoin="round" stroke-opacity="1.0" stroke-width="3.0" />
            <path d=" M 407.038, 1006.082 407.999, 1006.475 409.022, 1006.893 409.225, 1006.977 409.440, 1007.037 410.734, 1007.402 411.348, 1007.576 411.840, 1007.715 413.219, 1009.087 413.347, 1009.215 414.242, 1010.105 414.402, 1010.265 414.628, 1010.489 414.737, 1010.598 417.961, 1012.700 418.348, 1012.953 419.213, 1013.795 421.971, 1016.482 423.306, 1018.006 425.994, 1020.513 429.078, 1023.230 " fill="none" stroke="rgb(0, 0, 0)" stroke-linecap="butt" stroke-linejoin="round" stroke-opacity="1.0" stroke-width="3.0" />
            <path d=" M 840.824, 546.246 842.545, 549.043 845.578, 553.609 848.107, 559.596 851.697, 562.100 856.685, 567.100 857.133, 568.691 " fill="none" stroke="rgb(0, 0, 0)" stroke-linecap="butt" stroke-linejoin="round" stroke-opacity="1.0" stroke-width="3.0" />
            <path d=" M 545.287, 891.416 545.444, 891.123 546.461, 887.407 543.680, 883.765 535.964, 881.087 529.654, 879.359 527.188, 878.709 525.796, 878.343 525.771, 878.337 524.904, 878.109 524.792, 878.079 524.781, 878.076 " fill="none" stroke="rgb(0, 0, 0)" stroke-linecap="butt" stroke-linejoin="round" stroke-opacity="1.0" stroke-width="3.0" />
            <path d=" M 515.275, 945.110 514.250, 951.369 514.200, 955.353 516.055, 958.289 517.193, 959.223 523.476, 961.522 525.011, 967.993 " fill="none" stroke="rgb(0, 0, 0)" stroke-linecap="butt" stroke-linejoin="round" stroke-opacity="1.0" stroke-width="3.0" />
            <path d=" M 591.209, 589.804 591.348, 588.573 591.578, 586.532 591.733, 586.359 591.870, 586.206 593.721, 584.139 594.238, 583.562 594.271, 583.525 594.671, 582.734 594.900, 582.282 595.476, 581.147 595.496, 581.106 595.814, 580.479 596.436, 579.250 596.277, 576.855 596.195, 575.637 595.972, 574.424 594.624, 572.398 592.577, 570.810 588.347, 569.249 586.128, 568.430 " fill="none" stroke="rgb(0, 0, 0)" stroke-linecap="butt" stroke-linejoin="round" stroke-opacity="1.0" stroke-width="3.0" />
            <path d=" M 488.998, 1022.603 491.015, 1023.990 491.612, 1024.400 493.756, 1025.875 497.686, 1027.112 504.831, 1026.558 506.798, 1026.406 507.987, 1026.314 510.455, 1026.460 510.552, 1026.466 510.902, 1026.487 511.344, 1026.513 511.388, 1026.516 511.535, 1026.525 515.308, 1026.749 516.037, 1026.792 516.303, 1026.808 516.541, 1026.822 516.541, 1026.822 516.561, 1026.823 516.703, 1026.832 516.774, 1026.836 " fill="none" stroke="rgb(0, 0, 0)" stroke-linecap="butt" stroke-linejoin="round" stroke-opacity="1.0" stroke-width="3.0" />
            <path d=" M 813.315, 606.711 810.138, 609.208 808.376, 610.593 805.200, 613.337 804.231, 614.730 804.977, 620.642 805.048, 620.817 805.231, 621.267 807.465, 626.770 807.729, 627.421 808.178, 628.527 808.356, 630.615 808.376, 630.860 808.397, 631.107 " fill="none" stroke="rgb(0, 0, 0)" stroke-linecap="butt" stroke-linejoin="round" stroke-opacity="1.0" stroke-width="3.0" />
            <path d=" M 576.715, 531.688 576.854, 530.210 576.855, 530.199 576.984, 528.833 576.993, 528.734 577.002, 528.636 577.190, 526.643 577.440, 523.975 576.641, 520.201 576.154, 518.519 575.538, 516.393 575.455, 512.001 574.709, 508.729 574.639, 508.422 574.593, 508.223 574.288, 506.883 573.855, 504.988 573.354, 502.790 " fill="none" stroke="rgb(0, 0, 0)" stroke-linecap="butt" stroke-linejoin="round" stroke-opacity="1.0" stroke-width="3.0" />
            <path d=" M 348.764, 890.932 348.683, 888.631 348.639, 887.391 348.466, 879.188 348.440, 889.188 348.438, 890.108 348.298, 890.735 348.139, 891.452 347.821, 892.882 347.845, 893.064 347.854, 893.126 348.349, 896.832 " fill="none" stroke="rgb(0, 0, 0)" stroke-linecap="butt" stroke-linejoin="round" stroke-opacity="1.0" stroke-width="3.0" />
            <path d=" M 522.714, 1038.948 522.878, 1039.056 523.638, 1039.560 530.469, 1044.092 539.507, 1048.586 539.570, 1048.618 539.594, 1048.629 539.724, 1048.694 542.947, 1050.297 546.113, 1051.262 548.941, 1052.123 " fill="none" stroke="rgb(0, 0, 0)" stroke-linecap="butt" stroke-linejoin="round" stroke-opacity="1.0" stroke-width="3.0" />
            <path d=" M 578.170, 636.859 578.330, 636.887 581.712, 636.757 582.486, 636.727 584.643, 636.644 589.357, 635.583 591.734, 633.222 592.785, 630.068 592.461, 627.394 591.598, 621.534 590.145, 618.875 " fill="none" stroke="rgb(0, 0, 0)" stroke-linecap="butt" stroke-linejoin="round" stroke-opacity="1.0" stroke-width="3.0" />
            <path d=" M 350.307, 851.701 350.091, 852.382 349.857, 852.801 349.375, 853.661 348.703, 854.862 347.975, 860.495 348.463, 870.483 348.544, 872.129 347.694, 876.346 347.628, 881.081 " fill="none" stroke="rgb(0, 0, 0)" stroke-linecap="butt" stroke-linejoin="round" stroke-opacity="1.0" stroke-width="3.0" />
            <path d=" M 949.095, 406.898 949.081, 405.455 949.077, 405.115 947.736, 399.839 945.806, 396.585 943.437, 389.629 942.683, 387.416 941.887, 386.303 941.820, 386.210 940.550, 384.432 940.530, 384.405 937.020, 379.491 " fill="none" stroke="rgb(0, 0, 0)" stroke-linecap="butt" stroke-linejoin="round" stroke-opacity="1.0" stroke-width="3.0" />
            <path d=" M 647.218, 571.864 648.711, 571.871 648.813, 571.872 650.299, 571.879 650.407, 571.879 654.986, 572.270 658.120, 571.889 659.190, 571.175 660.628, 566.369 661.931, 563.798 661.310, 559.944 661.239, 559.499 660.638, 558.786 657.371, 554.914 " fill="none" stroke="rgb(0, 0, 0)" stroke-linecap="butt" stroke-linejoin="round" stroke-opacity="1.0" stroke-width="3.0" />
            <path d=" M 497.396, 844.632 496.913, 845.021 495.305, 846.319 488.974, 851.430 484.839, 854.498 481.836, 855.924 475.355, 859.336 472.444, 860.114 471.420, 860.218 " fill="none" stroke="rgb(0, 0, 0)" stroke-linecap="butt" stroke-linejoin="round" stroke-opacity="1.0" stroke-width="3.0" />
            <path d=" M 363.343, 954.277 363.360, 954.310 364.723, 956.803 365.140, 957.752 366.684, 961.260 369.688, 964.359 370.901, 965.611 376.074, 972.328 382.249, 978.053 " fill="none" stroke="rgb(0, 0, 0)" stroke-linecap="butt" stroke-linejoin="round" stroke-opacity="1.0" stroke-width="3.0" />
            <path d=" M 491.268, 930.873 491.411, 930.750 494.410, 928.160 494.414, 928.157 494.979, 927.669 502.712, 921.691 507.322, 918.470 509.780, 916.752 510.360, 916.347 515.863, 912.503 " fill="none" stroke="rgb(0, 0, 0)" stroke-linecap="butt" stroke-linejoin="round" stroke-opacity="1.0" stroke-width="3.0" />
            <path d=" M 926.313, 365.920 926.286, 365.704 925.398, 358.460 923.124, 351.353 922.909, 350.684 920.873, 349.119 920.755, 349.029 920.218, 348.617 918.204, 348.367 916.824, 349.203 914.045, 352.677 911.402, 354.187 911.098, 354.664 " fill="none" stroke="rgb(0, 0, 0)" stroke-linecap="butt" stroke-linejoin="round" stroke-opacity="1.0" stroke-width="3.0" />
            <path d=" M 782.712, 958.038 782.840, 958.062 789.191, 959.224 795.623, 960.454 802.164, 958.370 805.075, 958.381 809.604, 955.867 811.845, 954.307 " fill="none" stroke="rgb(0, 0, 0)" stroke-linecap="butt" stroke-linejoin="round" stroke-opacity="1.0" stroke-width="3.0" />
            <path d=" M 606.660, 1006.542 606.377, 1004.234 604.984, 1000.386 606.463, 1003.816 608.432, 1012.631 607.660, 1019.199 607.555, 1019.494 606.203, 1021.975 605.374, 1022.451 604.516, 1022.944 " fill="none" stroke="rgb(0, 0, 0)" stroke-linecap="butt" stroke-linejoin="round" stroke-opacity="1.0" stroke-width="3.0" />
            <path d=" M 601.452, 288.873 602.872, 286.308 608.852, 282.060 614.721, 278.082 615.103, 276.545 615.220, 275.052 615.454, 270.695 614.469, 268.241 612.622, 266.250 611.845, 266.268 " fill="none" stroke="rgb(0, 0, 0)" stroke-linecap="butt" stroke-linejoin="round" stroke-opacity="1.0" stroke-width="3.0" />
            <path d=" M 593.279, 879.293 593.668, 880.476 593.733, 880.674 593.890, 881.152 594.128, 881.879 594.194, 882.078 594.274, 882.321 594.668, 883.523 594.676, 883.563 595.580, 888.288 595.707, 891.704 595.470, 894.875 594.710, 897.357 594.519, 897.979 594.242, 898.884 593.368, 901.737 591.213, 904.348 590.530, 905.175 587.888, 907.321 " fill="none" stroke="rgb(0, 0, 0)" stroke-linecap="butt" stroke-linejoin="round" stroke-opacity="1.0" stroke-width="3.0" />
            <path d=" M 354.067, 815.211 353.340, 822.127 353.114, 827.255 352.411, 830.401 352.295, 830.919 352.253, 831.106 351.577, 841.083 351.561, 841.311 351.270, 845.126 351.232, 845.621 351.192, 846.049 " fill="none" stroke="rgb(0, 0, 0)" stroke-linecap="butt" stroke-linejoin="round" stroke-opacity="1.0" stroke-width="3.0" />
            <path d=" M 573.467, 480.380 575.803, 477.545 576.724, 476.428 579.248, 471.868 582.281, 467.898 583.080, 466.789 584.980, 464.635 587.085, 463.023 586.984, 461.550 582.615, 457.987 581.222, 457.036 " fill="none" stroke="rgb(0, 0, 0)" stroke-linecap="butt" stroke-linejoin="round" stroke-opacity="1.0" stroke-width="3.0" />
            <path d=" M 612.518, 378.550 615.041, 376.360 617.947, 373.838 623.172, 370.815 630.380, 366.226 634.105, 364.609 638.826, 361.693 " fill="none" stroke="rgb(0, 0, 0)" stroke-linecap="butt" stroke-linejoin="round" stroke-opacity="1.0" stroke-width="3.0" />
            <path d=" M 531.417, 762.664 530.137, 764.901 529.501, 766.010 526.298, 775.483 525.820, 776.896 520.300, 780.764 513.820, 780.637 509.483, 779.216 " fill="none" stroke="rgb(0, 0, 0)" stroke-linecap="butt" stroke-linejoin="round" stroke-opacity="1.0" stroke-width="3.0" />
            <path d=" M 520.087, 816.062 517.517, 824.280 517.713, 824.907 518.528, 827.516 519.469, 830.527 519.988, 832.189 524.054, 834.169 524.098, 834.189 524.118, 834.198 524.253, 834.260 524.814, 834.517 525.126, 834.661 530.847, 835.056 531.601, 835.108 535.892, 836.192 536.064, 836.235 " fill="none" stroke="rgb(0, 0, 0)" stroke-linecap="butt" stroke-linejoin="round" stroke-opacity="1.0" stroke-width="3.0" />
            <path d=" M 656.870, 522.909 657.501, 522.274 659.675, 520.087 663.271, 515.723 664.011, 509.798 656.526, 504.991 649.088, 500.928 648.344, 500.521 " fill="none" stroke="rgb(0, 0, 0)" stroke-linecap="butt" stroke-linejoin="round" stroke-opacity="1.0" stroke-width="3.0" />
            <path d=" M 593.690, 270.149 593.703, 270.141 594.159, 269.882 594.434, 269.726 595.818, 268.939 599.498, 266.845 601.914, 265.403 603.446, 263.537 605.350, 260.040 605.045, 259.194 604.619, 258.012 602.258, 256.214 600.494, 255.424 595.982, 255.386 592.232, 255.702 589.878, 256.837 " fill="none" stroke="rgb(0, 0, 0)" stroke-linecap="butt" stroke-linejoin="round" stroke-opacity="1.0" stroke-width="3.0" />
            <path d=" M 804.833, 956.966 805.597, 956.676 811.845, 954.307 814.133, 953.439 817.453, 952.065 820.767, 949.895 828.141, 947.047 833.183, 942.929 834.809, 941.601 " fill="none" stroke="rgb(0, 0, 0)" stroke-linecap="butt" stroke-linejoin="round" stroke-opacity="1.0" stroke-width="3.0" />
            <path d=" M 643.117, 533.038 643.190, 533.074 643.674, 533.316 643.710, 533.335 644.085, 533.522 646.725, 534.843 647.378, 535.170 647.482, 536.619 647.509, 536.990 645.288, 537.435 644.326, 537.627 643.602, 537.772 642.597, 537.973 642.435, 537.958 642.224, 537.938 642.097, 537.926 641.096, 537.832 636.731, 537.423 636.066, 537.683 629.682, 539.381 628.094, 539.331 627.743, 539.320 627.001, 539.296 623.855, 538.364 620.547, 537.876 " fill="none" stroke="rgb(0, 0, 0)" stroke-linecap="butt" stroke-linejoin="round" stroke-opacity="1.0" stroke-width="3.0" />
            <path d=" M 643.488, 515.132 646.698, 509.820 648.075, 506.994 647.524, 505.377 642.886, 501.022 641.705, 500.615 641.659, 500.599 639.159, 499.737 637.332, 499.510 635.595, 499.295 634.583, 499.170 634.269, 499.218 631.779, 499.600 627.064, 500.324 626.452, 500.418 626.385, 500.428 " fill="none" stroke="rgb(0, 0, 0)" stroke-linecap="butt" stroke-linejoin="round" stroke-opacity="1.0" stroke-width="3.0" />
            <path d=" M 575.352, 322.532 575.385, 322.049 577.558, 312.288 577.891, 310.791 579.812, 303.913 583.823, 296.335 587.587, 290.837 " fill="none" stroke="rgb(0, 0, 0)" stroke-linecap="butt" stroke-linejoin="round" stroke-opacity="1.0" stroke-width="3.0" />
            <path d=" M 796.495, 655.111 793.566, 657.280 789.062, 661.011 787.377, 663.769 787.155, 664.619 788.010, 670.067 787.986, 670.537 787.974, 670.773 787.914, 671.938 787.816, 673.847 787.811, 673.939 787.072, 676.217 786.723, 676.728 783.995, 680.724 781.661, 684.144 " fill="none" stroke="rgb(0, 0, 0)" stroke-linecap="butt" stroke-linejoin="round" stroke-opacity="1.0" stroke-width="3.0" />
            <path d=" M 569.211, 325.148 569.271, 324.046 569.292, 323.669 569.511, 323.080 571.360, 318.094 571.578, 317.508 571.625, 317.382 573.613, 312.023 577.375, 302.757 577.725, 301.895 580.199, 296.813 581.968, 292.002 " fill="none" stroke="rgb(0, 0, 0)" stroke-linecap="butt" stroke-linejoin="round" stroke-opacity="1.0" stroke-width="3.0" />
            <path d=" M 567.397, 268.886 561.530, 273.202 556.766, 277.388 548.907, 283.572 547.384, 284.770 543.337, 288.595 540.562, 292.548 " fill="none" stroke="rgb(0, 0, 0)" stroke-linecap="butt" stroke-linejoin="round" stroke-opacity="1.0" stroke-width="3.0" />
            <path d=" M 602.330, 590.702 600.229, 586.447 599.888, 579.464 599.886, 579.438 600.111, 573.384 599.896, 569.883 598.624, 564.373 597.121, 561.282 596.343, 555.676 " fill="none" stroke="rgb(0, 0, 0)" stroke-linecap="butt" stroke-linejoin="round" stroke-opacity="1.0" stroke-width="3.0" />
            <path d=" M 376.194, 969.459 382.328, 977.357 385.534, 981.485 390.648, 986.750 394.146, 991.163 397.821, 994.951 400.073, 997.273 " fill="none" stroke="rgb(0, 0, 0)" stroke-linecap="butt" stroke-linejoin="round" stroke-opacity="1.0" stroke-width="3.0" />
            <path d=" M 843.068, 389.937 843.346, 390.023 852.895, 392.993 853.334, 393.129 860.837, 396.306 867.664, 400.496 871.070, 403.183 871.534, 403.436 876.270, 406.023 " fill="none" stroke="rgb(0, 0, 0)" stroke-linecap="butt" stroke-linejoin="round" stroke-opacity="1.0" stroke-width="3.0" />
            <path d=" M 505.482, 1037.910 505.854, 1038.084 506.759, 1038.508 512.260, 1041.085 521.509, 1044.887 522.516, 1045.301 530.582, 1049.120 536.619, 1050.335 539.491, 1049.501 539.724, 1048.694 " fill="none" stroke="rgb(0, 0, 0)" stroke-linecap="butt" stroke-linejoin="round" stroke-opacity="1.0" stroke-width="3.0" />
            <path d=" M 766.929, 712.673 765.349, 713.367 760.833, 715.352 757.155, 718.955 755.852, 722.735 756.305, 724.518 756.607, 725.704 756.896, 726.169 757.541, 727.206 757.687, 727.441 759.211, 729.891 763.290, 736.447 763.243, 738.037 763.226, 738.584 762.377, 738.824 760.607, 739.325 760.808, 738.170 " fill="none" stroke="rgb(0, 0, 0)" stroke-linecap="butt" stroke-linejoin="round" stroke-opacity="1.0" stroke-width="3.0" />
            <path d=" M 597.710, 315.570 599.619, 313.941 601.625, 313.251 605.719, 312.659 612.918, 310.775 621.825, 308.845 625.349, 307.078 625.754, 304.455 625.671, 302.672 624.441, 301.435 621.366, 299.928 " fill="none" stroke="rgb(0, 0, 0)" stroke-linecap="butt" stroke-linejoin="round" stroke-opacity="1.0" stroke-width="3.0" />
            <path d=" M 525.687, 875.035 525.654, 874.016 525.559, 871.143 525.293, 865.270 525.464, 862.565 525.471, 862.462 525.740, 858.224 525.783, 854.083 526.004, 850.094 526.005, 850.082 526.005, 850.066 526.319, 844.402 526.327, 844.266 524.437, 835.148 524.253, 834.260 " fill="none" stroke="rgb(0, 0, 0)" stroke-linecap="butt" stroke-linejoin="round" stroke-opacity="1.0" stroke-width="3.0" />
            <path d=" M 352.276, 834.984 351.629, 843.406 351.554, 844.382 351.192, 846.049 351.081, 846.557 350.287, 850.209 350.307, 851.701 350.318, 852.513 350.355, 855.223 350.200, 855.902 349.435, 859.254 349.359, 860.466 349.120, 864.265 348.875, 874.262 348.832, 875.997 " fill="none" stroke="rgb(0, 0, 0)" stroke-linecap="butt" stroke-linejoin="round" stroke-opacity="1.0" stroke-width="3.0" />
            <path d=" M 372.532, 968.812 375.026, 973.010 378.015, 975.734 382.130, 981.078 386.908, 986.959 391.451, 990.877 393.685, 992.804 394.379, 993.403 397.217, 996.095 398.006, 996.843 400.372, 999.087 " fill="none" stroke="rgb(0, 0, 0)" stroke-linecap="butt" stroke-linejoin="round" stroke-opacity="1.0" stroke-width="3.0" />
            <path d=" M 536.332, 721.062 536.146, 723.921 536.237, 724.429 536.432, 724.709 537.834, 726.725 539.238, 728.427 539.785, 729.039 540.197, 728.821 541.253, 728.264 541.146, 727.566 541.413, 727.334 542.444, 726.437 543.304, 725.688 543.448, 725.563 543.465, 725.547 543.574, 725.453 543.754, 725.296 544.837, 722.363 545.729, 712.403 546.041, 708.928 546.013, 703.408 547.014, 700.731 547.021, 700.712 547.134, 700.410 547.139, 700.412 548.098, 700.864 " fill="none" stroke="rgb(0, 0, 0)" stroke-linecap="butt" stroke-linejoin="round" stroke-opacity="1.0" stroke-width="3.0" />
            <path d=" M 489.904, 999.752 494.865, 999.746 495.474, 999.745 495.715, 999.745 495.726, 999.745 496.949, 999.743 501.953, 999.424 505.959, 998.221 509.682, 997.006 512.178, 996.192 512.578, 996.055 514.747, 995.311 514.807, 995.290 517.774, 994.273 518.009, 994.192 518.511, 993.859 519.057, 993.496 521.006, 992.200 522.260, 991.367 524.339, 991.143 525.845, 990.981 526.697, 990.889 527.685, 990.783 531.075, 990.417 " fill="none" stroke="rgb(0, 0, 0)" stroke-linecap="butt" stroke-linejoin="round" stroke-opacity="1.0" stroke-width="3.0" />
            <path d=" M 461.694, 1037.849 462.089, 1037.884 471.732, 1038.577 480.525, 1039.144 487.135, 1039.024 491.998, 1038.814 501.997, 1038.664 503.722, 1038.638 505.692, 1038.126 " fill="none" stroke="rgb(0, 0, 0)" stroke-linecap="butt" stroke-linejoin="round" stroke-opacity="1.0" stroke-width="3.0" />
            <path d=" M 407.345, 680.657 406.853, 681.517 406.641, 681.888 405.288, 684.252 404.202, 687.397 403.000, 690.714 402.563, 691.921 401.655, 693.962 401.654, 693.964 401.311, 694.735 401.769, 698.010 402.162, 700.816 401.309, 702.945 399.449, 707.590 398.050, 711.626 397.985, 711.814 397.853, 712.047 397.754, 712.222 397.490, 712.687 396.218, 714.935 396.148, 717.106 396.103, 718.511 395.606, 722.207 " fill="none" stroke="rgb(0, 0, 0)" stroke-linecap="butt" stroke-linejoin="round" stroke-opacity="1.0" stroke-width="3.0" />
            <path d=" M 718.164, 770.914 717.282, 770.847 713.414, 770.553 708.891, 770.054 702.414, 770.206 695.901, 771.122 688.304, 770.959 679.570, 770.832 673.976, 771.322 " fill="none" stroke="rgb(0, 0, 0)" stroke-linecap="butt" stroke-linejoin="round" stroke-opacity="1.0" stroke-width="3.0" />
            <path d=" M 599.842, 976.010 602.690, 976.237 605.756, 976.482 612.271, 977.051 621.171, 975.466 626.818, 974.249 631.065, 973.401 632.606, 972.685 634.068, 970.111 634.752, 968.192 633.534, 965.956 633.417, 963.588 633.357, 962.373 " fill="none" stroke="rgb(0, 0, 0)" stroke-linecap="butt" stroke-linejoin="round" stroke-opacity="1.0" stroke-width="3.0" />
            <path d=" M 583.784, 569.286 582.830, 568.757 581.625, 568.213 581.459, 568.139 580.840, 567.860 578.582, 566.843 577.465, 565.908 578.830, 564.112 583.070, 562.591 588.000, 563.789 588.289, 563.681 591.174, 562.607 592.166, 561.882 593.751, 560.575 595.002, 556.731 596.288, 555.719 596.343, 555.676 598.447, 554.019 599.200, 551.863 599.904, 549.966 597.607, 546.751 597.468, 546.557 597.273, 546.284 597.078, 546.011 596.382, 545.037 " fill="none" stroke="rgb(0, 0, 0)" stroke-linecap="butt" stroke-linejoin="round" stroke-opacity="1.0" stroke-width="3.0" />
            <path d=" M 474.823, 575.034 473.875, 575.768 469.705, 578.994 467.365, 582.843 466.650, 583.993 463.525, 588.260 461.500, 590.763 458.815, 594.591 454.538, 601.744 450.936, 607.673 448.965, 610.874 " fill="none" stroke="rgb(0, 0, 0)" stroke-linecap="butt" stroke-linejoin="round" stroke-opacity="1.0" stroke-width="3.0" />
            <path d=" M 448.613, 701.508 450.960, 698.722 451.882, 697.097 453.747, 693.810 458.549, 689.553 462.017, 684.281 464.431, 682.766 464.933, 682.451 464.980, 682.422 469.686, 679.469 469.880, 679.157 472.424, 675.065 473.367, 674.373 478.964, 670.270 479.131, 670.147 " fill="none" stroke="rgb(0, 0, 0)" stroke-linecap="butt" stroke-linejoin="round" stroke-opacity="1.0" stroke-width="3.0" />
            <path d=" M 403.685, 858.560 404.987, 861.724 407.571, 868.007 410.206, 873.301 411.161, 875.222 412.373, 877.418 415.786, 883.604 416.200, 884.400 420.183, 892.055 421.797, 894.900 423.957, 898.710 " fill="none" stroke="rgb(0, 0, 0)" stroke-linecap="butt" stroke-linejoin="round" stroke-opacity="1.0" stroke-width="3.0" />
            <path d=" M 866.316, 523.329 866.183, 523.853 865.786, 525.418 860.813, 527.368 857.883, 527.447 852.030, 527.411 844.763, 529.637 838.699, 530.436 832.380, 530.759 826.568, 532.456 825.715, 534.015 825.018, 535.288 " fill="none" stroke="rgb(0, 0, 0)" stroke-linecap="butt" stroke-linejoin="round" stroke-opacity="1.0" stroke-width="3.0" />
            <path d=" M 741.839, 953.008 742.794, 955.281 743.096, 958.583 744.948, 959.026 749.024, 958.315 755.037, 959.594 762.713, 958.165 772.661, 959.187 775.009, 959.428 777.140, 958.852 782.840, 958.062 " fill="none" stroke="rgb(0, 0, 0)" stroke-linecap="butt" stroke-linejoin="round" stroke-opacity="1.0" stroke-width="3.0" />
            <path d=" M 632.452, 640.482 633.265, 640.992 636.778, 641.701 641.475, 639.696 643.758, 637.599 643.519, 633.814 643.642, 630.041 647.287, 625.589 650.060, 623.145 649.079, 617.244 648.275, 614.397 645.380, 609.981 646.406, 609.084 647.220, 608.371 " fill="none" stroke="rgb(0, 0, 0)" stroke-linecap="butt" stroke-linejoin="round" stroke-opacity="1.0" stroke-width="3.0" />
            <path d=" M 462.797, 847.820 462.458, 844.963 462.966, 843.735 463.879, 841.529 465.419, 835.324 465.444, 830.452 462.273, 823.879 459.162, 819.757 456.735, 816.334 455.811, 807.676 455.176, 806.830 453.302, 804.335 " fill="none" stroke="rgb(0, 0, 0)" stroke-linecap="butt" stroke-linejoin="round" stroke-opacity="1.0" stroke-width="3.0" />
            <path d=" M 653.146, 594.210 654.035, 592.838 655.351, 590.807 658.038, 587.442 658.651, 583.849 657.343, 580.093 651.899, 576.784 649.089, 576.515 649.034, 576.510 648.907, 576.498 648.121, 576.423 648.106, 576.421 646.701, 576.453 645.771, 576.474 645.755, 576.474 643.716, 575.269 642.674, 574.654 641.026, 574.543 640.632, 574.516 640.150, 574.484 638.783, 574.598 638.736, 574.602 637.834, 574.678 632.886, 575.092 627.134, 576.136 " fill="none" stroke="rgb(0, 0, 0)" stroke-linecap="butt" stroke-linejoin="round" stroke-opacity="1.0" stroke-width="3.0" />
            <path d=" M 458.567, 1027.155 459.513, 1026.668 460.670, 1026.073 461.132, 1025.836 461.425, 1025.685 461.548, 1025.622 461.654, 1025.567 462.668, 1025.046 463.894, 1024.416 467.948, 1023.878 470.457, 1023.486 470.534, 1023.474 470.867, 1023.422 473.323, 1021.585 474.802, 1020.423 474.832, 1020.398 476.841, 1018.744 482.130, 1014.386 484.456, 1011.003 484.487, 1010.959 484.492, 1010.952 485.417, 1009.608 490.407, 1007.070 490.980, 1006.470 491.062, 1006.384 492.609, 1004.761 494.457, 1001.889 495.726, 999.745 " fill="none" stroke="rgb(0, 0, 0)" stroke-linecap="butt" stroke-linejoin="round" stroke-opacity="1.0" stroke-width="3.0" />
            <path d=" M 955.998, 463.936 955.682, 458.991 955.265, 455.257 955.210, 454.237 955.012, 450.570 954.678, 444.377 953.551, 435.123 952.226, 425.211 951.752, 421.662 950.424, 416.609 950.306, 416.159 " fill="none" stroke="rgb(0, 0, 0)" stroke-linecap="butt" stroke-linejoin="round" stroke-opacity="1.0" stroke-width="3.0" />
            <path d=" M 884.528, 468.356 884.498, 468.343 884.180, 468.209 883.241, 467.811 874.930, 464.295 873.649, 464.083 866.502, 463.208 862.899, 465.227 861.448, 469.062 861.493, 471.027 863.349, 472.867 865.251, 476.944 871.741, 481.905 875.879, 484.877 " fill="none" stroke="rgb(0, 0, 0)" stroke-linecap="butt" stroke-linejoin="round" stroke-opacity="1.0" stroke-width="3.0" />
            <path d=" M 351.989, 737.239 351.041, 743.246 351.345, 749.452 350.823, 753.345 350.651, 758.231 350.321, 761.174 348.900, 765.839 348.984, 770.131 349.533, 772.320 347.970, 775.327 347.198, 779.814 346.793, 782.554 346.310, 786.014 " fill="none" stroke="rgb(0, 0, 0)" stroke-linecap="butt" stroke-linejoin="round" stroke-opacity="1.0" stroke-width="3.0" />
            <path d=" M 675.573, 771.456 673.976, 771.322 669.861, 770.976 664.796, 771.076 659.063, 771.274 649.064, 771.391 648.548, 771.397 643.955, 771.770 633.981, 772.491 632.474, 772.600 625.879, 773.555 625.814, 773.565 " fill="none" stroke="rgb(0, 0, 0)" stroke-linecap="butt" stroke-linejoin="round" stroke-opacity="1.0" stroke-width="3.0" />
            <path d=" M 445.867, 949.218 445.568, 950.777 445.595, 954.628 445.360, 964.625 445.328, 965.972 445.653, 975.371 444.739, 979.219 444.536, 984.747 444.143, 988.477 444.106, 996.039 444.091, 998.975 " fill="none" stroke="rgb(0, 0, 0)" stroke-linecap="butt" stroke-linejoin="round" stroke-opacity="1.0" stroke-width="3.0" />
            <path d=" M 575.775, 296.056 577.958, 294.581 578.370, 294.304 578.649, 294.115 581.968, 292.002 583.034, 291.324 586.849, 289.082 591.811, 286.672 595.145, 283.465 595.667, 281.575 594.887, 279.440 594.466, 278.882 590.886, 275.977 583.148, 274.809 579.962, 275.468 576.375, 276.211 574.243, 277.735 " fill="none" stroke="rgb(0, 0, 0)" stroke-linecap="butt" stroke-linejoin="round" stroke-opacity="1.0" stroke-width="3.0" />
            <path d=" M 582.126, 629.756 582.046, 629.587 581.946, 629.375 581.870, 629.214 580.076, 625.403 580.342, 622.961 583.918, 617.770 584.089, 616.698 584.267, 615.577 584.362, 614.981 584.349, 614.597 584.339, 614.315 584.244, 611.557 582.774, 608.223 582.433, 607.450 582.095, 606.684 581.820, 606.060 582.162, 604.513 585.667, 603.876 587.949, 602.210 587.996, 602.176 588.216, 602.015 592.126, 599.161 594.049, 596.001 593.829, 593.901 593.752, 593.170 591.418, 588.709 591.387, 588.648 591.348, 588.573 " fill="none" stroke="rgb(0, 0, 0)" stroke-linecap="butt" stroke-linejoin="round" stroke-opacity="1.0" stroke-width="3.0" />
            <path d=" M 349.150, 916.214 349.620, 917.564 349.825, 918.155 349.824, 918.169 349.802, 918.467 350.488, 921.680 352.582, 928.245 353.147, 930.017 353.174, 930.123 354.456, 935.259 354.796, 936.622 356.129, 940.553 359.062, 946.629 361.004, 951.301 363.343, 954.277 363.355, 954.293 363.494, 954.470 366.471, 958.260 367.930, 960.136 370.162, 962.882 " fill="none" stroke="rgb(0, 0, 0)" stroke-linecap="butt" stroke-linejoin="round" stroke-opacity="1.0" stroke-width="3.0" />
            <path d=" M 905.580, 727.829 907.054, 725.046 908.466, 722.380 911.393, 712.818 912.333, 709.747 913.345, 706.340 915.289, 699.775 917.823, 693.119 921.555, 683.842 921.727, 683.416 923.322, 678.388 " fill="none" stroke="rgb(0, 0, 0)" stroke-linecap="butt" stroke-linejoin="round" stroke-opacity="1.0" stroke-width="3.0" />
            <path d=" M 572.050, 398.045 574.289, 396.898 575.320, 396.370 580.130, 394.565 586.922, 389.978 594.263, 386.446 595.022, 384.315 594.152, 380.818 590.195, 379.273 585.784, 378.304 584.028, 378.084 574.975, 379.374 574.245, 379.478 573.975, 379.517 573.757, 379.548 573.721, 379.553 573.532, 379.580 572.897, 379.670 572.890, 379.671 572.867, 379.675 572.607, 379.712 572.506, 379.726 " fill="none" stroke="rgb(0, 0, 0)" stroke-linecap="butt" stroke-linejoin="round" stroke-opacity="1.0" stroke-width="3.0" />
            <path d=" M 611.997, 414.430 613.508, 413.989 614.078, 413.822 614.241, 413.774 619.220, 412.318 622.802, 411.744 630.485, 406.682 632.736, 404.299 634.145, 401.170 632.997, 398.553 633.834, 397.537 633.218, 395.952 633.041, 395.644 631.071, 393.327 627.724, 392.472 622.562, 391.991 616.980, 394.308 614.339, 394.422 613.873, 394.442 " fill="none" stroke="rgb(0, 0, 0)" stroke-linecap="butt" stroke-linejoin="round" stroke-opacity="1.0" stroke-width="3.0" />
            <path d=" M 610.173, 941.469 612.679, 941.534 613.739, 941.562 622.198, 941.781 629.567, 941.720 639.471, 941.693 645.859, 942.932 647.945, 944.045 652.334, 946.388 652.848, 947.079 656.543, 951.760 656.765, 952.243 658.339, 955.658 " fill="none" stroke="rgb(0, 0, 0)" stroke-linecap="butt" stroke-linejoin="round" stroke-opacity="1.0" stroke-width="3.0" />
            <path d=" M 856.842, 902.360 856.866, 902.333 858.062, 900.001 860.556, 893.270 861.468, 887.784 861.631, 884.588 862.210, 879.785 863.101, 875.105 863.297, 870.770 863.880, 865.130 863.873, 859.723 864.427, 849.739 864.483, 848.726 864.492, 848.564 " fill="none" stroke="rgb(0, 0, 0)" stroke-linecap="butt" stroke-linejoin="round" stroke-opacity="1.0" stroke-width="3.0" />
            <path d=" M 857.291, 568.639 857.177, 568.677 857.133, 568.691 854.538, 569.557 854.331, 569.627 854.038, 569.504 845.824, 566.078 843.068, 565.226 839.235, 565.186 835.563, 566.833 829.510, 567.920 821.397, 568.814 816.947, 570.148 815.608, 570.732 814.181, 572.514 814.770, 574.613 814.166, 576.691 815.594, 579.418 816.838, 580.484 " fill="none" stroke="rgb(0, 0, 0)" stroke-linecap="butt" stroke-linejoin="round" stroke-opacity="1.0" stroke-width="3.0" />
            <path d=" M 483.066, 398.533 482.173, 400.869 482.094, 401.077 480.092, 404.751 479.111, 409.046 477.804, 413.070 476.167, 422.935 476.041, 423.694 474.321, 432.296 472.585, 439.901 469.901, 449.534 469.766, 450.018 469.149, 452.233 " fill="none" stroke="rgb(0, 0, 0)" stroke-linecap="butt" stroke-linejoin="round" stroke-opacity="1.0" stroke-width="3.0" />
            <path d=" M 653.600, 776.831 644.949, 774.673 638.495, 773.366 633.795, 773.903 625.829, 773.566 625.814, 773.565 625.348, 773.545 621.600, 773.983 621.487, 773.979 620.357, 773.938 619.090, 773.893 614.650, 773.732 610.377, 773.690 606.199, 773.648 605.996, 773.646 604.692, 773.633 602.646, 773.613 599.650, 774.238 596.752, 774.843 596.137, 774.972 " fill="none" stroke="rgb(0, 0, 0)" stroke-linecap="butt" stroke-linejoin="round" stroke-opacity="1.0" stroke-width="3.0" />
            <path d=" M 449.675, 773.090 449.725, 771.094 449.859, 765.798 450.599, 761.758 451.039, 756.893 448.632, 747.359 447.867, 743.222 447.695, 742.291 448.020, 740.888 449.639, 733.898 449.112, 728.589 448.960, 727.062 448.632, 722.998 449.197, 720.175 450.271, 714.738 " fill="none" stroke="rgb(0, 0, 0)" stroke-linecap="butt" stroke-linejoin="round" stroke-opacity="1.0" stroke-width="3.0" />
            <path d=" M 541.385, 291.692 540.562, 292.548 534.447, 298.914 526.691, 305.227 522.932, 308.286 515.738, 315.233 514.784, 316.153 508.028, 321.837 503.787, 325.572 501.488, 328.347 500.896, 329.231 498.700, 332.504 " fill="none" stroke="rgb(0, 0, 0)" stroke-linecap="butt" stroke-linejoin="round" stroke-opacity="1.0" stroke-width="3.0" />
            <path d=" M 958.362, 440.289 957.389, 433.468 956.044, 426.958 955.090, 417.626 954.005, 411.729 953.356, 406.828 950.316, 400.204 946.858, 391.614 943.567, 386.274 941.745, 384.833 940.550, 384.432 " fill="none" stroke="rgb(0, 0, 0)" stroke-linecap="butt" stroke-linejoin="round" stroke-opacity="1.0" stroke-width="3.0" />
            <path d=" M 603.133, 653.993 603.296, 657.786 603.378, 659.694 603.592, 664.188 603.039, 669.294 603.173, 673.496 603.974, 674.023 604.870, 674.611 604.879, 674.617 605.235, 674.606 605.884, 674.586 607.009, 674.551 608.521, 674.504 609.546, 674.472 613.843, 677.310 616.145, 677.255 617.587, 676.089 618.807, 671.917 619.159, 666.279 619.647, 663.029 620.402, 658.774 620.309, 658.317 619.994, 656.758 619.891, 656.250 619.619, 654.909 619.300, 653.332 619.213, 652.901 619.094, 652.312 619.018, 651.936 618.989, 651.796 618.986, 651.780 618.981, 651.755 " fill="none" stroke="rgb(0, 0, 0)" stroke-linecap="butt" stroke-linejoin="round" stroke-opacity="1.0" stroke-width="3.0" />
            <path d=" M 455.654, 712.957 461.184, 704.625 461.251, 704.524 464.189, 701.291 467.312, 698.031 470.850, 694.340 475.887, 689.527 478.842, 687.306 480.450, 686.097 481.030, 685.662 488.909, 679.504 491.823, 677.228 497.879, 673.326 500.260, 671.792 " fill="none" stroke="rgb(0, 0, 0)" stroke-linecap="butt" stroke-linejoin="round" stroke-opacity="1.0" stroke-width="3.0" />
            <path d=" M 594.519, 897.979 593.916, 897.170 590.134, 892.098 589.727, 891.672 588.053, 889.920 583.619, 885.281 578.353, 880.460 573.462, 876.098 567.556, 871.888 558.757, 867.976 558.520, 867.871 557.662, 867.550 554.095, 866.219 552.035, 864.759 551.661, 864.596 551.129, 864.364 551.006, 864.311 549.788, 863.779 546.563, 863.388 545.494, 862.478 544.757, 861.851 543.641, 860.901 " fill="none" stroke="rgb(0, 0, 0)" stroke-linecap="butt" stroke-linejoin="round" stroke-opacity="1.0" stroke-width="3.0" />
            <path d=" M 549.751, 650.250 550.360, 653.000 550.391, 653.137 550.861, 655.261 552.171, 661.174 553.949, 667.410 554.135, 667.852 556.973, 674.605 557.599, 675.448 557.994, 675.981 559.762, 678.364 563.472, 680.258 567.079, 680.256 567.106, 680.256 567.961, 680.255 568.480, 679.933 570.223, 678.854 570.701, 676.703 570.964, 675.520 571.084, 671.762 570.637, 669.319 570.635, 669.308 570.538, 668.774 570.438, 668.230 570.326, 667.615 570.308, 667.517 570.060, 666.161 569.909, 665.364 569.147, 664.206 567.630, 661.904 567.460, 661.645 567.180, 661.220 566.808, 660.656 566.600, 660.340 564.661, 657.394 " fill="none" stroke="rgb(0, 0, 0)" stroke-linecap="butt" stroke-linejoin="round" stroke-opacity="1.0" stroke-width="3.0" />
            <path d=" M 421.797, 894.900 423.380, 898.903 426.516, 904.540 429.458, 909.394 429.973, 910.245 434.951, 917.476 438.610, 924.125 439.524, 928.441 441.912, 934.846 443.568, 940.591 444.661, 944.719 445.867, 949.218 446.063, 949.947 447.349, 953.755 " fill="none" stroke="rgb(0, 0, 0)" stroke-linecap="butt" stroke-linejoin="round" stroke-opacity="1.0" stroke-width="3.0" />
            <path d=" M 919.180, 376.122 916.446, 371.925 916.379, 371.823 915.920, 371.118 915.907, 371.098 915.888, 371.068 915.101, 369.789 913.334, 366.917 913.556, 362.084 913.099, 360.705 911.708, 356.504 911.098, 354.664 911.088, 354.635 909.864, 353.773 906.628, 353.549 901.926, 355.825 899.552, 357.392 898.773, 362.387 898.332, 372.378 898.282, 373.511 901.946, 380.450 902.073, 385.443 " fill="none" stroke="rgb(0, 0, 0)" stroke-linecap="butt" stroke-linejoin="round" stroke-opacity="1.0" stroke-width="3.0" />
            <path d=" M 497.879, 673.326 501.661, 672.128 505.853, 669.343 512.773, 665.584 516.946, 663.729 523.436, 658.691 528.519, 652.878 531.552, 650.186 533.435, 644.875 535.757, 639.509 539.726, 637.129 539.933, 636.611 540.103, 636.187 541.156, 633.554 541.236, 633.355 541.289, 633.221 541.914, 631.659 542.207, 630.925 542.256, 630.804 542.311, 630.666 542.677, 629.751 " fill="none" stroke="rgb(0, 0, 0)" stroke-linecap="butt" stroke-linejoin="round" stroke-opacity="1.0" stroke-width="3.0" />
            <path d=" M 628.047, 477.954 628.328, 478.107 629.107, 478.531 629.115, 478.535 629.174, 478.567 629.721, 477.713 629.823, 477.555 630.762, 476.091 631.084, 475.875 631.254, 475.761 632.956, 474.623 633.232, 474.438 633.328, 474.374 633.337, 474.373 633.370, 474.367 636.041, 473.911 642.372, 471.862 652.218, 470.112 653.151, 469.946 653.623, 467.914 651.202, 466.458 645.110, 464.136 638.175, 461.307 631.528, 459.900 628.208, 460.078 622.963, 461.751 622.715, 461.722 619.006, 461.276 " fill="none" stroke="rgb(0, 0, 0)" stroke-linecap="butt" stroke-linejoin="round" stroke-opacity="1.0" stroke-width="3.0" />
            <path d=" M 763.243, 738.037 763.153, 737.941 761.697, 736.862 759.751, 735.032 757.878, 732.492 757.655, 732.190 757.652, 732.186 756.726, 730.931 756.128, 730.057 756.041, 729.929 755.630, 729.329 754.361, 727.473 748.891, 726.541 746.476, 727.413 741.794, 727.342 737.279, 728.249 735.128, 729.771 734.706, 732.590 734.780, 735.715 733.206, 738.459 729.878, 740.609 728.717, 744.356 729.782, 747.856 730.993, 749.332 731.445, 749.882 731.740, 750.241 731.747, 750.250 732.097, 750.676 733.866, 752.830 736.472, 758.243 " fill="none" stroke="rgb(0, 0, 0)" stroke-linecap="butt" stroke-linejoin="round" stroke-opacity="1.0" stroke-width="3.0" />
            <path d=" M 896.059, 382.598 893.996, 381.874 887.837, 379.711 884.006, 379.755 879.319, 378.812 872.109, 377.937 862.423, 379.418 859.823, 380.364 854.370, 380.725 852.792, 381.025 846.526, 382.245 845.288, 382.788 838.435, 385.755 838.167, 388.025 839.266, 389.264 842.511, 389.905 843.346, 390.023 " fill="none" stroke="rgb(0, 0, 0)" stroke-linecap="butt" stroke-linejoin="round" stroke-opacity="1.0" stroke-width="3.0" />
            <path d=" M 496.947, 333.799 493.457, 343.171 493.345, 343.472 492.664, 346.247 490.992, 353.066 489.941, 361.178 488.948, 367.990 488.154, 373.442 487.057, 378.027 485.447, 384.761 484.147, 390.663 482.248, 400.481 482.173, 400.869 " fill="none" stroke="rgb(0, 0, 0)" stroke-linecap="butt" stroke-linejoin="round" stroke-opacity="1.0" stroke-width="3.0" />
            <path d=" M 402.536, 1002.187 404.223, 1004.552 410.408, 1011.340 411.942, 1014.689 415.662, 1020.529 415.534, 1022.232 416.256, 1025.211 416.371, 1028.803 415.887, 1030.495 414.720, 1036.413 413.621, 1040.998 413.462, 1045.340 413.617, 1048.408 414.615, 1053.046 414.601, 1056.832 413.698, 1060.686 414.754, 1062.408 417.687, 1063.129 418.527, 1063.370 " fill="none" stroke="rgb(0, 0, 0)" stroke-linecap="butt" stroke-linejoin="round" stroke-opacity="1.0" stroke-width="3.0" />
            <path d=" M 808.754, 687.744 808.419, 688.398 807.772, 689.664 807.611, 689.977 807.098, 690.981 806.142, 694.389 806.066, 694.830 806.844, 701.028 806.734, 701.224 803.467, 707.033 800.591, 710.039 800.232, 717.888 798.983, 720.329 798.909, 720.474 798.123, 722.011 798.095, 722.066 798.081, 722.074 794.101, 724.394 792.829, 725.136 791.924, 725.663 790.623, 726.422 789.358, 727.159 788.269, 727.793 788.126, 727.877 787.660, 728.148 785.308, 729.729 784.431, 730.171 784.082, 730.347 783.317, 730.733 782.968, 730.909 782.946, 730.920 782.804, 730.991 782.801, 730.993 782.616, 731.086 782.426, 731.182 781.680, 731.558 779.028, 733.102 776.787, 733.104 775.010, 733.106 773.062, 734.391 769.338, 736.909 768.663, 737.365 " fill="none" stroke="rgb(0, 0, 0)" stroke-linecap="butt" stroke-linejoin="round" stroke-opacity="1.0" stroke-width="3.0" />
            <path d=" M 570.882, 444.795 571.041, 444.638 572.923, 442.777 573.359, 442.536 580.953, 438.350 585.003, 435.444 588.420, 431.588 593.510, 427.331 600.850, 423.793 602.354, 422.140 601.714, 419.032 601.420, 418.305 592.391, 414.006 590.089, 412.911 588.638, 412.192 584.992, 410.971 580.400, 410.769 579.663, 410.737 574.516, 411.430 573.942, 411.507 " fill="none" stroke="rgb(0, 0, 0)" stroke-linecap="butt" stroke-linejoin="round" stroke-opacity="1.0" stroke-width="3.0" />
            <path d=" M 878.794, 780.386 879.302, 779.222 883.299, 770.055 883.828, 768.843 886.469, 759.198 886.851, 757.804 890.028, 748.322 890.393, 747.233 893.437, 737.708 893.730, 736.789 894.831, 733.372 898.452, 724.639 901.076, 714.990 901.223, 714.448 901.911, 711.921 " fill="none" stroke="rgb(0, 0, 0)" stroke-linecap="butt" stroke-linejoin="round" stroke-opacity="1.0" stroke-width="3.0" />
            <path d=" M 546.113, 1051.262 551.662, 1053.084 557.106, 1054.535 566.497, 1054.964 568.529, 1054.781 569.953, 1054.148 573.885, 1052.115 577.618, 1046.271 581.147, 1041.923 583.274, 1039.056 584.338, 1036.934 586.428, 1034.047 587.360, 1030.912 588.247, 1029.226 589.175, 1026.334 589.517, 1025.308 589.799, 1024.463 591.359, 1020.923 591.901, 1014.592 591.927, 1011.878 " fill="none" stroke="rgb(0, 0, 0)" stroke-linecap="butt" stroke-linejoin="round" stroke-opacity="1.0" stroke-width="3.0" />
            <path d=" M 618.033, 456.973 618.320, 456.792 618.675, 456.567 619.831, 455.836 620.420, 455.463 623.892, 454.275 629.328, 449.343 633.557, 444.724 637.606, 441.951 643.325, 439.583 644.953, 438.169 645.589, 437.399 645.921, 433.024 642.609, 430.345 636.177, 427.423 628.984, 424.744 621.924, 424.034 616.871, 424.593 616.169, 424.671 615.276, 424.769 613.289, 422.805 " fill="none" stroke="rgb(0, 0, 0)" stroke-linecap="butt" stroke-linejoin="round" stroke-opacity="1.0" stroke-width="3.0" />
            <path d=" M 574.853, 776.423 573.435, 776.466 568.680, 777.039 567.221, 777.215 567.154, 777.223 565.374, 777.438 564.879, 777.426 563.360, 777.389 563.278, 777.387 558.915, 777.282 553.606, 778.432 553.598, 778.433 553.365, 778.484 551.108, 778.973 547.129, 780.135 543.255, 782.396 538.622, 784.899 538.421, 785.008 537.455, 785.748 537.022, 786.080 534.995, 787.634 534.143, 788.286 530.324, 793.094 527.230, 796.060 526.702, 796.567 524.101, 799.060 522.220, 803.747 521.086, 807.096 520.087, 816.062 519.771, 818.904 " fill="none" stroke="rgb(0, 0, 0)" stroke-linecap="butt" stroke-linejoin="round" stroke-opacity="1.0" stroke-width="3.0" />
            <path d=" M 449.154, 610.659 448.965, 610.874 445.516, 614.796 442.948, 617.880 442.101, 621.088 439.943, 624.098 437.208, 629.261 433.203, 634.821 430.640, 639.672 426.992, 646.557 422.126, 654.868 418.456, 660.764 415.805, 665.102 411.546, 670.385 409.871, 674.624 407.615, 678.146 407.345, 680.657 407.118, 682.769 " fill="none" stroke="rgb(0, 0, 0)" stroke-linecap="butt" stroke-linejoin="round" stroke-opacity="1.0" stroke-width="3.0" />
            <path d=" M 878.249, 489.189 878.160, 489.238 876.365, 490.223 875.645, 490.188 870.964, 489.960 863.975, 488.603 854.332, 489.266 844.355, 489.944 841.470, 490.140 839.230, 491.401 837.938, 494.326 837.940, 496.457 838.865, 498.218 845.017, 501.120 849.277, 504.463 852.515, 508.271 856.795, 515.196 861.728, 520.392 866.183, 523.853 " fill="none" stroke="rgb(0, 0, 0)" stroke-linecap="butt" stroke-linejoin="round" stroke-opacity="1.0" stroke-width="3.0" />
            <path d=" M 685.434, 738.338 682.104, 737.584 681.752, 737.588 679.054, 737.772 675.772, 738.023 673.324, 737.977 667.578, 738.651 662.418, 739.266 658.809, 739.496 654.900, 739.827 650.575, 741.065 645.001, 741.413 642.101, 742.149 640.760, 743.119 636.731, 744.304 633.525, 746.390 632.744, 747.748 630.305, 750.024 627.940, 753.058 626.883, 753.553 624.500, 756.793 623.331, 758.988 622.002, 763.242 620.482, 767.607 620.167, 768.513 619.090, 773.893 " fill="none" stroke="rgb(0, 0, 0)" stroke-linecap="butt" stroke-linejoin="round" stroke-opacity="1.0" stroke-width="3.0" />
            <path d=" M 876.361, 808.160 876.902, 806.642 879.716, 798.754 883.272, 790.969 886.902, 781.651 887.546, 779.997 890.554, 771.839 894.052, 762.471 895.428, 758.787 897.319, 753.391 900.931, 744.066 901.517, 742.555 904.792, 733.107 904.859, 732.914 907.054, 725.046 " fill="none" stroke="rgb(0, 0, 0)" stroke-linecap="butt" stroke-linejoin="round" stroke-opacity="1.0" stroke-width="3.0" />
            <path d=" M 920.028, 684.477 923.022, 678.963 923.322, 678.388 925.506, 674.196 929.728, 665.131 930.225, 664.065 933.100, 655.732 934.125, 652.708 936.679, 644.513 939.727, 634.989 940.292, 633.223 943.133, 623.635 944.871, 617.769 946.532, 611.110 949.322, 604.726 951.059, 599.385 " fill="none" stroke="rgb(0, 0, 0)" stroke-linecap="butt" stroke-linejoin="round" stroke-opacity="1.0" stroke-width="3.0" />
            <path d=" M 585.485, 910.054 585.251, 909.949 585.063, 909.864 584.903, 909.792 584.866, 909.776 583.755, 909.277 582.963, 908.921 582.702, 908.804 580.384, 907.555 577.540, 907.472 576.666, 907.869 574.462, 909.316 573.096, 910.333 567.383, 915.935 564.897, 921.116 564.659, 922.905 564.582, 925.940 566.303, 930.457 570.059, 936.308 573.999, 939.857 575.991, 941.652 577.260, 942.794 577.877, 943.088 578.033, 943.163 578.137, 943.212 578.308, 943.294 578.428, 943.351 578.463, 943.368 578.508, 943.389 578.510, 943.390 578.523, 943.396 578.577, 943.422 578.673, 943.468 578.725, 943.492 579.660, 943.938 581.687, 944.905 581.968, 945.039 582.460, 945.273 583.347, 945.696 583.561, 945.798 583.628, 945.830 585.410, 946.322 586.823, 946.712 586.959, 946.750 589.382, 946.693 589.385, 946.693 589.531, 946.690 589.606, 946.688 589.998, 946.679 590.257, 946.673 590.874, 946.658 591.266, 946.649 591.957, 946.633 592.123, 946.629 592.439, 946.621 592.625, 946.617 593.779, 946.590 599.386, 946.458 604.543, 945.105 612.737, 941.861 613.280, 941.646 613.739, 941.562 " fill="none" stroke="rgb(0, 0, 0)" stroke-linecap="butt" stroke-linejoin="round" stroke-opacity="1.0" stroke-width="3.0" />
            <path d=" M 567.221, 777.215 567.318, 776.880 567.270, 776.221 565.850, 772.967 565.781, 767.925 566.435, 757.947 566.452, 757.685 566.542, 756.309 567.958, 751.670 568.143, 749.045 568.400, 745.415 569.220, 743.217 569.244, 743.031 569.977, 737.209 569.551, 733.571 568.851, 724.563 568.832, 724.314 568.747, 723.229 567.909, 713.265 567.883, 712.955 567.869, 702.955 567.864, 699.422 567.261, 689.558 567.917, 683.592 567.928, 683.517 567.994, 683.089 568.003, 683.031 568.045, 682.757 568.480, 679.933 " fill="none" stroke="rgb(0, 0, 0)" stroke-linecap="butt" stroke-linejoin="round" stroke-opacity="1.0" stroke-width="3.0" />
            <path d=" M 597.468, 546.557 597.267, 546.190 597.082, 545.850 595.823, 543.551 595.860, 540.700 596.212, 540.217 596.292, 540.107 597.453, 538.516 598.780, 536.697 599.435, 535.652 600.990, 530.960 600.885, 528.902 600.418, 528.613 596.964, 526.483 592.707, 522.100 592.720, 520.043 593.967, 517.906 596.905, 514.665 596.959, 514.570 598.357, 512.104 603.015, 508.309 607.250, 503.316 608.282, 499.090 607.449, 495.313 599.836, 490.530 596.946, 488.681 593.966, 486.709 591.042, 482.950 587.458, 481.607 582.765, 482.405 576.780, 483.098 575.804, 483.211 " fill="none" stroke="rgb(0, 0, 0)" stroke-linecap="butt" stroke-linejoin="round" stroke-opacity="1.0" stroke-width="3.0" />
            <path d=" M 456.522, 483.492 456.462, 483.609 451.907, 492.511 451.585, 493.140 446.979, 502.016 446.061, 503.783 443.302, 508.840 439.063, 517.495 436.829, 521.901 432.398, 530.866 432.280, 531.105 427.854, 540.072 424.946, 545.964 421.810, 552.379 417.652, 561.473 416.686, 563.588 413.901, 568.949 411.299, 575.432 " fill="none" stroke="rgb(0, 0, 0)" stroke-linecap="butt" stroke-linejoin="round" stroke-opacity="1.0" stroke-width="3.0" />
            <path d=" M 610.377, 773.690 612.063, 773.051 612.849, 771.068 613.158, 770.240 610.951, 766.328 609.984, 764.002 610.451, 760.271 610.019, 758.640 608.576, 756.441 607.802, 751.445 607.353, 750.984 607.558, 746.025 607.253, 745.068 606.911, 741.197 607.067, 738.052 606.853, 732.616 606.841, 731.213 606.787, 725.124 607.373, 721.824 606.164, 717.600 604.864, 711.061 603.147, 706.942 602.132, 702.640 600.821, 696.018 600.058, 692.163 599.619, 687.633 599.354, 684.909 598.389, 674.956 598.369, 674.745 " fill="none" stroke="rgb(0, 0, 0)" stroke-linecap="butt" stroke-linejoin="round" stroke-opacity="1.0" stroke-width="3.0" />
            <path d=" M 399.665, 736.433 399.757, 737.017 400.510, 741.784 398.863, 746.102 396.585, 751.510 394.223, 759.301 392.092, 764.879 392.218, 768.805 391.723, 770.834 391.258, 775.324 390.598, 780.217 390.433, 783.326 390.207, 793.324 390.140, 796.263 390.108, 798.918 391.749, 805.992 391.820, 815.992 391.821, 816.138 393.005, 823.633 395.715, 833.259 396.220, 835.054 398.269, 842.323 398.512, 843.140 " fill="none" stroke="rgb(0, 0, 0)" stroke-linecap="butt" stroke-linejoin="round" stroke-opacity="1.0" stroke-width="3.0" />
            <path d=" M 635.230, 983.150 633.540, 983.374 631.441, 984.930 630.585, 986.033 633.193, 988.096 634.799, 991.378 637.198, 993.758 640.242, 996.261 644.690, 998.321 649.868, 1000.485 654.863, 1001.576 663.809, 1000.627 672.280, 999.424 677.393, 997.136 682.645, 994.800 686.740, 991.071 692.733, 985.988 695.883, 982.841 702.561, 978.063 709.244, 970.624 710.538, 969.183 715.594, 962.754 " fill="none" stroke="rgb(0, 0, 0)" stroke-linecap="butt" stroke-linejoin="round" stroke-opacity="1.0" stroke-width="3.0" />
            <path d=" M 404.065, 591.513 402.021, 594.915 401.211, 596.058 398.635, 599.697 393.977, 605.523 389.906, 609.810 386.953, 612.664 383.785, 617.474 380.732, 622.208 378.349, 626.363 375.695, 631.640 372.715, 637.545 368.659, 645.124 364.847, 650.526 361.531, 654.396 359.297, 657.508 356.526, 661.760 355.206, 664.238 353.236, 669.955 352.420, 673.577 352.280, 680.437 352.589, 685.942 353.498, 689.193 354.393, 691.980 354.629, 692.600 " fill="none" stroke="rgb(0, 0, 0)" stroke-linecap="butt" stroke-linejoin="round" stroke-opacity="1.0" stroke-width="3.0" />
            <path d=" M 638.741, 361.728 638.826, 361.693 643.514, 359.771 647.387, 357.399 655.478, 354.556 664.747, 352.219 671.307, 351.127 673.453, 350.359 674.507, 348.285 674.635, 347.077 671.161, 345.013 666.774, 343.484 659.963, 342.446 655.071, 341.412 647.177, 340.335 637.180, 340.093 636.911, 340.086 627.930, 340.215 622.067, 340.452 617.113, 341.095 607.381, 343.396 606.806, 343.532 602.391, 344.437 601.179, 344.685 597.944, 342.841 597.879, 342.804 597.804, 342.761 " fill="none" stroke="rgb(0, 0, 0)" stroke-linecap="butt" stroke-linejoin="round" stroke-opacity="1.0" stroke-width="3.0" />
            <path d=" M 856.219, 909.135 856.707, 904.997 856.842, 902.360 857.166, 896.044 857.144, 892.112 856.777, 886.979 857.145, 882.976 856.369, 877.780 858.006, 867.915 858.385, 865.629 859.482, 855.689 859.800, 852.807 860.458, 847.628 862.053, 843.233 863.750, 834.542 864.321, 831.465 864.900, 828.347 865.434, 826.967 867.860, 820.702 868.252, 817.462 870.476, 810.101 872.818, 802.753 875.466, 793.110 875.697, 792.270 878.360, 782.631 879.302, 779.222 " fill="none" stroke="rgb(0, 0, 0)" stroke-linecap="butt" stroke-linejoin="round" stroke-opacity="1.0" stroke-width="3.0" />
            <path d=" M 527.231, 1023.593 530.710, 1025.795 531.067, 1026.021 532.442, 1026.551 532.754, 1026.671 537.044, 1027.482 537.980, 1027.659 539.336, 1027.915 541.522, 1027.831 542.264, 1027.803 544.154, 1027.731 544.225, 1027.728 545.247, 1027.689 555.247, 1027.581 558.094, 1027.550 558.319, 1027.548 558.363, 1027.549 558.926, 1027.568 559.011, 1027.571 561.158, 1027.643 562.634, 1026.680 564.431, 1023.555 566.190, 1021.139 567.508, 1016.942 566.279, 1015.818 566.272, 1015.811 564.983, 1014.632 564.178, 1013.128 564.137, 1013.051 563.247, 1011.387 563.267, 1009.970 565.105, 1008.726 565.565, 1008.416 566.735, 1007.625 568.135, 1006.678 569.370, 1005.690 572.099, 1003.508 578.376, 998.307 581.639, 995.357 585.471, 992.109 587.341, 990.279 589.499, 988.165 591.300, 986.403 591.328, 986.371 593.117, 984.370 593.276, 984.189 593.286, 984.178 593.604, 983.815 593.613, 983.805 593.777, 983.618 598.494, 978.241 599.727, 976.149 602.697, 971.107 602.715, 971.077 603.968, 968.951 605.149, 963.921 605.294, 963.303 605.348, 963.073 605.547, 962.224 605.849, 960.941 606.031, 960.162 607.675, 955.672 610.014, 952.125 612.240, 947.297 612.954, 943.076 612.737, 941.861 " fill="none" stroke="rgb(0, 0, 0)" stroke-linecap="butt" stroke-linejoin="round" stroke-opacity="1.0" stroke-width="3.0" />
            <path d=" M 574.232, 365.189 574.624, 363.709 574.859, 362.822 575.559, 362.024 576.107, 361.399 576.179, 361.317 576.359, 361.112 579.555, 357.468 582.150, 355.048 585.792, 351.651 593.830, 345.702 597.799, 342.765 597.804, 342.761 597.815, 342.754 598.551, 342.209 604.989, 337.432 607.747, 336.637 612.799, 334.421 618.514, 331.468 623.089, 330.551 627.183, 328.519 631.732, 325.915 632.831, 323.273 632.768, 323.103 631.585, 320.060 631.110, 319.473 627.564, 318.279 622.364, 317.478 615.354, 316.801 608.654, 316.323 602.452, 316.945 597.168, 317.169 590.698, 317.442 583.867, 319.003 575.352, 322.532 575.191, 322.599 569.827, 324.920 569.211, 325.148 568.977, 325.234 568.942, 325.247 568.508, 325.407 568.362, 325.461 568.261, 325.498 566.117, 326.290 565.688, 326.448 565.619, 326.474 565.519, 326.510 563.786, 327.151 563.784, 327.151 " fill="none" stroke="rgb(0, 0, 0)" stroke-linecap="butt" stroke-linejoin="round" stroke-opacity="1.0" stroke-width="3.0" />
            <path d=" M 948.208, 604.403 951.059, 599.385 952.693, 596.509 954.114, 591.267 956.710, 586.276 958.355, 580.194 960.625, 574.458 961.322, 567.220 963.025, 557.366 963.198, 556.362 964.467, 552.669 964.481, 547.777 965.711, 537.763 966.541, 531.491 966.073, 526.936 965.745, 517.156 965.026, 509.235 964.166, 499.272 963.542, 492.035 962.784, 482.063 962.531, 478.742 960.928, 468.872 959.464, 459.851 959.139, 455.247 " fill="none" stroke="rgb(0, 0, 0)" stroke-linecap="butt" stroke-linejoin="round" stroke-opacity="1.0" stroke-width="3.0" />
            <path d=" M 347.198, 779.814 346.123, 786.562 346.833, 789.710 345.414, 790.897 344.535, 794.492 344.681, 795.551 344.731, 800.243 343.329, 803.767 343.149, 809.959 341.813, 813.345 341.242, 817.125 341.392, 821.919 339.550, 828.205 338.759, 834.726 338.194, 836.896 338.079, 840.996 337.027, 846.459 336.091, 853.538 335.602, 856.586 335.610, 864.046 334.863, 869.652 334.253, 874.780 335.600, 884.752 335.692, 889.533 336.547, 891.523 336.415, 895.211 338.922, 904.329 341.915, 910.911 342.448, 911.770 343.932, 916.298 344.841, 919.615 347.387, 925.190 350.284, 929.765 352.151, 932.285 352.233, 932.396 " fill="none" stroke="rgb(0, 0, 0)" stroke-linecap="butt" stroke-linejoin="round" stroke-opacity="1.0" stroke-width="3.0" />
            <path d=" M 901.223, 714.448 903.560, 707.904 906.643, 700.299 909.158, 692.458 911.863, 682.831 913.990, 675.263 916.189, 667.542 919.050, 657.959 921.133, 650.978 922.615, 646.174 925.051, 636.475 925.561, 634.444 927.884, 624.717 929.240, 619.041 931.981, 609.424 932.250, 608.479 935.102, 598.895 936.898, 592.860 939.508, 583.207 939.952, 581.564 942.509, 572.635 945.604, 566.497 946.587, 561.407 948.501, 556.171 950.029, 549.697 950.186, 542.820 952.350, 536.039 953.465, 530.893 954.347, 528.067 955.828, 524.022 957.776, 522.101 958.097, 520.237 958.306, 518.691 959.195, 517.512 960.236, 514.633 959.998, 507.152 960.266, 499.645 959.220, 493.953 958.389, 483.988 958.192, 481.622 957.202, 471.671 956.904, 468.675 956.247, 466.623 " fill="none" stroke="rgb(0, 0, 0)" stroke-linecap="butt" stroke-linejoin="round" stroke-opacity="1.0" stroke-width="3.0" />
        </g>
    </g>
</svg>
