<?xml version='1.0' encoding='ascii'?>
<svg xmlns="http://www.w3.org/2000/svg" height="1280" version="1.1" width="1280">
    <g id="RenderLayer_LineSet" inkscape:groupmode="lineset" inkscape:label="RenderLayer_LineSet" xmlns:inkscape="http://www.inkscape.org/namespaces/inkscape">
        <g id="strokes" inkscape:groupmode="layer" inkscape:label="strokes" xmlns:inkscape="http://www.inkscape.org/namespaces/inkscape">
            <path d=" M 593.081, 571.247 594.528, 570.957 597.760, 568.866 598.321, 565.534 598.109, 562.130 599.094, 560.846 599.019, 558.733 597.797, 555.011 597.582, 554.482 " fill="none" stroke="rgb(0, 0, 0)" stroke-linecap="butt" stroke-linejoin="round" stroke-opacity="1.0" stroke-width="3.0" />
            <path d=" M 544.422, 635.177 545.972, 643.524 547.790, 647.595 550.833, 651.867 551.242, 654.064 " fill="none" stroke="rgb(0, 0, 0)" stroke-linecap="butt" stroke-linejoin="round" stroke-opacity="1.0" stroke-width="3.0" />
            <path d=" M 352.852, 796.813 351.591, 802.278 348.591, 811.235 348.085, 812.935 347.460, 815.039 347.334, 815.461 347.275, 817.001 " fill="none" stroke="rgb(0, 0, 0)" stroke-linecap="butt" stroke-linejoin="round" stroke-opacity="1.0" stroke-width="3.0" />
            <path d=" M 581.913, 979.558 583.312, 978.192 592.368, 975.195 593.013, 975.272 599.467, 976.044 602.172, 976.367 " fill="none" stroke="rgb(0, 0, 0)" stroke-linecap="butt" stroke-linejoin="round" stroke-opacity="1.0" stroke-width="3.0" />
            <path d=" M 437.549, 964.248 445.023, 963.165 447.125, 961.590 449.031, 957.804 449.071, 957.724 449.276, 957.319 449.922, 957.257 449.976, 957.252 455.715, 956.702 " fill="none" stroke="rgb(0, 0, 0)" stroke-linecap="butt" stroke-linejoin="round" stroke-opacity="1.0" stroke-width="3.0" />
            <path d=" M 349.881, 798.948 348.442, 802.129 347.573, 804.633 346.517, 807.195 347.344, 814.870 344.579, 818.791 " fill="none" stroke="rgb(0, 0, 0)" stroke-linecap="butt" stroke-linejoin="round" stroke-opacity="1.0" stroke-width="3.0" />
            <path d=" M 924.518, 481.652 924.133, 477.519 922.184, 472.391 918.632, 463.044 917.946, 461.240 " fill="none" stroke="rgb(0, 0, 0)" stroke-linecap="butt" stroke-linejoin="round" stroke-opacity="1.0" stroke-width="3.0" />
            <path d=" M 765.209, 961.123 767.967, 957.145 769.736, 954.594 773.356, 949.043 774.115, 946.884 775.531, 942.340 " fill="none" stroke="rgb(0, 0, 0)" stroke-linecap="butt" stroke-linejoin="round" stroke-opacity="1.0" stroke-width="3.0" />
            <path d=" M 604.821, 398.292 604.783, 397.288 603.152, 396.065 602.365, 395.693 600.180, 395.466 599.086, 395.357 593.002, 396.077 588.532, 399.013 586.907, 400.375 586.145, 401.013 " fill="none" stroke="rgb(0, 0, 0)" stroke-linecap="butt" stroke-linejoin="round" stroke-opacity="1.0" stroke-width="3.0" />
            <path d=" M 389.318, 681.126 386.558, 685.542 385.686, 686.938 384.714, 689.584 383.503, 692.509 382.957, 693.747 381.504, 701.221 " fill="none" stroke="rgb(0, 0, 0)" stroke-linecap="butt" stroke-linejoin="round" stroke-opacity="1.0" stroke-width="3.0" />
            <path d=" M 593.127, 557.125 596.793, 553.373 597.031, 553.128 597.155, 553.002 597.502, 552.647 597.998, 548.759 598.536, 545.977 595.611, 543.750 595.488, 543.657 595.133, 543.166 594.740, 542.623 592.578, 539.637 " fill="none" stroke="rgb(0, 0, 0)" stroke-linecap="butt" stroke-linejoin="round" stroke-opacity="1.0" stroke-width="3.0" />
            <path d=" M 498.857, 1075.693 504.436, 1075.668 507.697, 1075.654 512.534, 1075.633 513.479, 1075.628 517.961, 1075.609 518.776, 1075.605 520.758, 1075.596 " fill="none" stroke="rgb(0, 0, 0)" stroke-linecap="butt" stroke-linejoin="round" stroke-opacity="1.0" stroke-width="3.0" />
            <path d=" M 597.316, 510.071 593.107, 508.253 589.199, 506.622 589.172, 506.619 586.430, 506.366 582.283, 507.765 582.123, 507.819 578.940, 508.893 577.610, 508.506 577.515, 508.479 576.585, 508.209 " fill="none" stroke="rgb(0, 0, 0)" stroke-linecap="butt" stroke-linejoin="round" stroke-opacity="1.0" stroke-width="3.0" />
            <path d=" M 500.518, 508.274 496.225, 517.217 495.733, 518.528 492.221, 527.891 491.968, 528.567 " fill="none" stroke="rgb(0, 0, 0)" stroke-linecap="butt" stroke-linejoin="round" stroke-opacity="1.0" stroke-width="3.0" />
            <path d=" M 549.676, 1046.670 553.027, 1046.850 555.726, 1046.995 556.930, 1047.059 559.582, 1045.825 561.371, 1044.992 562.448, 1044.332 563.214, 1043.863 564.439, 1042.085 565.989, 1039.833 567.738, 1037.293 " fill="none" stroke="rgb(0, 0, 0)" stroke-linecap="butt" stroke-linejoin="round" stroke-opacity="1.0" stroke-width="3.0" />
            <path d=" M 879.516, 844.459 879.757, 839.805 879.084, 834.131 878.581, 826.397 878.291, 821.943 " fill="none" stroke="rgb(0, 0, 0)" stroke-linecap="butt" stroke-linejoin="round" stroke-opacity="1.0" stroke-width="3.0" />
            <path d=" M 327.457, 915.467 327.101, 917.640 329.094, 927.439 329.125, 927.593 329.217, 928.048 329.197, 929.023 329.096, 933.936 330.686, 937.290 330.772, 937.469 " fill="none" stroke="rgb(0, 0, 0)" stroke-linecap="butt" stroke-linejoin="round" stroke-opacity="1.0" stroke-width="3.0" />
            <path d=" M 350.831, 1001.543 352.804, 1005.274 354.328, 1008.157 359.266, 1016.853 360.241, 1018.570 361.686, 1021.468 " fill="none" stroke="rgb(0, 0, 0)" stroke-linecap="butt" stroke-linejoin="round" stroke-opacity="1.0" stroke-width="3.0" />
            <path d=" M 536.215, 781.295 534.914, 781.573 534.844, 781.588 533.171, 781.945 532.976, 781.960 531.335, 782.088 531.164, 782.101 529.624, 782.220 528.168, 782.333 527.799, 782.366 527.271, 782.413 527.190, 782.420 526.342, 782.496 525.177, 782.599 523.049, 782.789 522.390, 782.848 521.468, 782.930 515.516, 781.272 514.941, 781.112 514.893, 781.098 513.866, 780.641 " fill="none" stroke="rgb(0, 0, 0)" stroke-linecap="butt" stroke-linejoin="round" stroke-opacity="1.0" stroke-width="3.0" />
            <path d=" M 623.188, 831.966 624.236, 831.809 624.357, 831.791 624.385, 831.787 626.000, 831.544 629.641, 830.997 635.646, 832.545 640.957, 833.946 641.410, 834.065 642.077, 834.241 645.027, 836.085 " fill="none" stroke="rgb(0, 0, 0)" stroke-linecap="butt" stroke-linejoin="round" stroke-opacity="1.0" stroke-width="3.0" />
            <path d=" M 935.460, 510.751 933.887, 503.177 932.042, 496.318 930.811, 492.008 930.733, 491.824 929.421, 488.747 " fill="none" stroke="rgb(0, 0, 0)" stroke-linecap="butt" stroke-linejoin="round" stroke-opacity="1.0" stroke-width="3.0" />
            <path d=" M 363.829, 764.081 360.355, 773.107 358.963, 778.525 355.043, 785.040 " fill="none" stroke="rgb(0, 0, 0)" stroke-linecap="butt" stroke-linejoin="round" stroke-opacity="1.0" stroke-width="3.0" />
            <path d=" M 653.051, 688.543 653.121, 688.541 656.794, 688.398 658.666, 686.702 660.264, 683.970 661.149, 682.279 662.032, 680.330 660.656, 679.191 660.638, 679.176 660.546, 679.100 658.992, 678.782 657.292, 677.232 657.101, 676.416 656.437, 673.574 " fill="none" stroke="rgb(0, 0, 0)" stroke-linecap="butt" stroke-linejoin="round" stroke-opacity="1.0" stroke-width="3.0" />
            <path d=" M 492.243, 1086.580 494.057, 1085.348 497.766, 1082.821 504.411, 1079.726 510.185, 1077.044 512.534, 1075.633 " fill="none" stroke="rgb(0, 0, 0)" stroke-linecap="butt" stroke-linejoin="round" stroke-opacity="1.0" stroke-width="3.0" />
            <path d=" M 883.046, 397.514 882.513, 396.654 881.065, 394.890 880.097, 391.697 879.486, 389.680 876.474, 385.446 874.242, 384.405 873.451, 384.075 870.565, 383.678 868.741, 386.135 " fill="none" stroke="rgb(0, 0, 0)" stroke-linecap="butt" stroke-linejoin="round" stroke-opacity="1.0" stroke-width="3.0" />
            <path d=" M 527.018, 1067.604 526.940, 1066.831 526.935, 1066.782 526.801, 1065.458 526.797, 1065.417 526.716, 1064.620 526.710, 1064.555 526.684, 1064.298 526.478, 1062.256 526.406, 1061.804 526.392, 1061.714 526.356, 1061.493 526.165, 1060.288 525.984, 1059.150 525.677, 1057.223 525.677, 1057.223 525.396, 1055.450 524.546, 1052.195 522.849, 1047.473 522.000, 1044.968 " fill="none" stroke="rgb(0, 0, 0)" stroke-linecap="butt" stroke-linejoin="round" stroke-opacity="1.0" stroke-width="3.0" />
            <path d=" M 828.192, 519.464 819.689, 517.518 811.954, 520.362 807.734, 523.064 806.417, 523.907 " fill="none" stroke="rgb(0, 0, 0)" stroke-linecap="butt" stroke-linejoin="round" stroke-opacity="1.0" stroke-width="3.0" />
            <path d=" M 735.583, 939.818 735.264, 940.264 733.781, 942.341 733.626, 942.558 733.571, 942.635 733.131, 943.251 731.326, 946.831 729.934, 949.945 729.483, 954.328 727.169, 961.544 727.159, 961.576 " fill="none" stroke="rgb(0, 0, 0)" stroke-linecap="butt" stroke-linejoin="round" stroke-opacity="1.0" stroke-width="3.0" />
            <path d=" M 334.306, 953.298 334.469, 954.662 334.522, 955.103 335.073, 959.717 336.406, 963.396 339.457, 969.197 339.524, 969.325 339.661, 969.586 339.822, 969.892 340.025, 970.581 340.559, 972.397 340.651, 972.710 340.766, 973.101 340.812, 973.257 340.948, 973.717 342.104, 975.258 342.250, 975.453 " fill="none" stroke="rgb(0, 0, 0)" stroke-linecap="butt" stroke-linejoin="round" stroke-opacity="1.0" stroke-width="3.0" />
            <path d=" M 647.150, 688.027 645.795, 687.379 645.414, 687.197 645.234, 687.109 645.227, 687.106 644.819, 686.908 638.252, 683.727 635.945, 683.004 634.466, 682.938 632.566, 682.564 626.947, 683.896 624.829, 685.021 " fill="none" stroke="rgb(0, 0, 0)" stroke-linecap="butt" stroke-linejoin="round" stroke-opacity="1.0" stroke-width="3.0" />
            <path d=" M 750.818, 662.534 746.699, 659.524 740.935, 658.529 739.998, 658.708 734.921, 659.863 731.070, 662.070 729.043, 663.495 " fill="none" stroke="rgb(0, 0, 0)" stroke-linecap="butt" stroke-linejoin="round" stroke-opacity="1.0" stroke-width="3.0" />
            <path d=" M 629.122, 450.645 628.131, 449.616 627.604, 449.070 627.461, 448.921 627.136, 445.590 625.446, 443.947 624.669, 443.615 620.084, 442.967 615.233, 443.463 611.094, 443.967 609.971, 442.966 " fill="none" stroke="rgb(0, 0, 0)" stroke-linecap="butt" stroke-linejoin="round" stroke-opacity="1.0" stroke-width="3.0" />
            <path d=" M 526.145, 954.213 523.215, 956.724 522.638, 957.218 521.135, 957.789 520.332, 958.093 519.990, 958.223 519.637, 958.357 518.513, 958.783 514.446, 960.341 511.844, 961.337 510.116, 961.647 504.011, 962.744 " fill="none" stroke="rgb(0, 0, 0)" stroke-linecap="butt" stroke-linejoin="round" stroke-opacity="1.0" stroke-width="3.0" />
            <path d=" M 555.043, 641.204 555.946, 636.495 556.189, 635.225 556.894, 631.079 557.903, 626.450 558.911, 625.083 560.385, 622.097 561.131, 619.136 561.416, 618.000 561.469, 617.789 " fill="none" stroke="rgb(0, 0, 0)" stroke-linecap="butt" stroke-linejoin="round" stroke-opacity="1.0" stroke-width="3.0" />
            <path d=" M 508.284, 994.071 503.841, 996.258 497.599, 1002.288 492.317, 1005.987 491.703, 1007.702 492.504, 1009.587 492.849, 1010.398 " fill="none" stroke="rgb(0, 0, 0)" stroke-linecap="butt" stroke-linejoin="round" stroke-opacity="1.0" stroke-width="3.0" />
            <path d=" M 361.037, 1019.576 361.686, 1021.468 362.226, 1023.039 364.582, 1027.857 367.610, 1035.630 369.544, 1042.019 369.954, 1043.251 " fill="none" stroke="rgb(0, 0, 0)" stroke-linecap="butt" stroke-linejoin="round" stroke-opacity="1.0" stroke-width="3.0" />
            <path d=" M 343.939, 979.135 344.655, 980.443 344.788, 980.753 346.219, 984.092 346.754, 985.339 346.769, 985.373 346.879, 985.734 347.548, 987.930 350.198, 990.991 350.243, 991.043 350.255, 991.076 350.642, 992.196 352.361, 997.159 355.833, 1001.377 " fill="none" stroke="rgb(0, 0, 0)" stroke-linecap="butt" stroke-linejoin="round" stroke-opacity="1.0" stroke-width="3.0" />
            <path d=" M 625.953, 668.596 628.203, 671.302 629.312, 672.636 632.605, 675.961 635.182, 677.292 641.159, 681.942 644.713, 685.849 " fill="none" stroke="rgb(0, 0, 0)" stroke-linecap="butt" stroke-linejoin="round" stroke-opacity="1.0" stroke-width="3.0" />
            <path d=" M 357.732, 778.318 354.917, 784.134 353.775, 786.690 352.436, 788.500 350.861, 793.735 350.743, 794.361 349.881, 798.948 349.247, 802.324 " fill="none" stroke="rgb(0, 0, 0)" stroke-linecap="butt" stroke-linejoin="round" stroke-opacity="1.0" stroke-width="3.0" />
            <path d=" M 785.966, 586.533 784.810, 586.682 783.116, 586.900 781.225, 588.635 779.287, 589.302 774.967, 591.065 773.741, 594.900 774.015, 598.547 773.953, 599.741 773.525, 602.640 773.894, 604.444 " fill="none" stroke="rgb(0, 0, 0)" stroke-linecap="butt" stroke-linejoin="round" stroke-opacity="1.0" stroke-width="3.0" />
            <path d=" M 690.392, 950.287 692.872, 950.335 699.129, 950.380 704.498, 946.357 712.792, 940.770 713.213, 940.487 " fill="none" stroke="rgb(0, 0, 0)" stroke-linecap="butt" stroke-linejoin="round" stroke-opacity="1.0" stroke-width="3.0" />
            <path d=" M 914.326, 446.330 913.699, 443.604 911.896, 438.444 911.322, 436.905 911.319, 436.899 909.186, 431.183 907.298, 427.468 906.852, 425.800 906.691, 425.388 905.689, 422.828 905.601, 422.603 905.560, 422.498 905.443, 422.198 905.377, 422.030 " fill="none" stroke="rgb(0, 0, 0)" stroke-linecap="butt" stroke-linejoin="round" stroke-opacity="1.0" stroke-width="3.0" />
            <path d=" M 610.386, 437.411 612.078, 435.775 615.505, 433.321 619.346, 431.454 621.232, 429.095 621.587, 428.337 621.599, 426.540 621.719, 422.916 620.810, 420.617 618.695, 417.533 " fill="none" stroke="rgb(0, 0, 0)" stroke-linecap="butt" stroke-linejoin="round" stroke-opacity="1.0" stroke-width="3.0" />
            <path d=" M 603.300, 630.370 602.858, 627.294 602.820, 627.030 602.155, 622.410 601.494, 616.461 601.348, 611.928 600.588, 608.053 598.470, 604.518 " fill="none" stroke="rgb(0, 0, 0)" stroke-linecap="butt" stroke-linejoin="round" stroke-opacity="1.0" stroke-width="3.0" />
            <path d=" M 505.459, 493.787 503.311, 498.015 500.538, 502.975 499.700, 505.754 498.466, 510.153 496.263, 516.576 495.733, 518.528 " fill="none" stroke="rgb(0, 0, 0)" stroke-linecap="butt" stroke-linejoin="round" stroke-opacity="1.0" stroke-width="3.0" />
            <path d=" M 795.286, 564.070 793.523, 565.753 791.855, 567.346 791.175, 567.794 791.081, 567.856 790.987, 567.918 790.854, 568.006 789.843, 568.673 788.380, 569.638 786.524, 572.153 785.770, 574.699 784.706, 581.621 784.956, 586.146 784.810, 586.682 " fill="none" stroke="rgb(0, 0, 0)" stroke-linecap="butt" stroke-linejoin="round" stroke-opacity="1.0" stroke-width="3.0" />
            <path d=" M 624.146, 875.760 622.842, 868.916 621.410, 863.773 621.141, 862.806 619.644, 858.070 617.116, 849.881 " fill="none" stroke="rgb(0, 0, 0)" stroke-linecap="butt" stroke-linejoin="round" stroke-opacity="1.0" stroke-width="3.0" />
            <path d=" M 800.632, 550.702 798.371, 551.152 790.648, 553.560 787.093, 557.565 788.149, 561.885 788.541, 562.682 790.386, 566.440 790.677, 567.033 791.081, 567.856 " fill="none" stroke="rgb(0, 0, 0)" stroke-linecap="butt" stroke-linejoin="round" stroke-opacity="1.0" stroke-width="3.0" />
            <path d=" M 613.289, 893.362 612.622, 890.411 611.114, 881.951 609.462, 878.414 604.722, 875.266 601.534, 873.832 599.423, 873.104 " fill="none" stroke="rgb(0, 0, 0)" stroke-linecap="butt" stroke-linejoin="round" stroke-opacity="1.0" stroke-width="3.0" />
            <path d=" M 864.791, 710.524 866.571, 701.000 868.039, 695.660 869.248, 685.734 869.280, 685.468 869.478, 683.842 " fill="none" stroke="rgb(0, 0, 0)" stroke-linecap="butt" stroke-linejoin="round" stroke-opacity="1.0" stroke-width="3.0" />
            <path d=" M 523.329, 803.067 518.688, 801.536 517.531, 801.154 516.890, 800.943 512.546, 800.039 511.017, 799.721 508.410, 799.179 504.495, 798.062 497.042, 796.263 " fill="none" stroke="rgb(0, 0, 0)" stroke-linecap="butt" stroke-linejoin="round" stroke-opacity="1.0" stroke-width="3.0" />
            <path d=" M 569.043, 941.638 569.572, 941.434 570.449, 941.097 573.501, 939.923 580.483, 936.280 587.756, 929.417 589.022, 928.222 589.570, 927.705 589.686, 927.224 589.689, 927.212 590.085, 925.573 " fill="none" stroke="rgb(0, 0, 0)" stroke-linecap="butt" stroke-linejoin="round" stroke-opacity="1.0" stroke-width="3.0" />
            <path d=" M 567.909, 661.079 566.573, 658.151 564.581, 655.886 564.454, 655.673 564.288, 655.395 562.507, 652.404 562.233, 651.944 561.291, 650.362 559.516, 645.498 558.835, 643.656 555.946, 636.495 " fill="none" stroke="rgb(0, 0, 0)" stroke-linecap="butt" stroke-linejoin="round" stroke-opacity="1.0" stroke-width="3.0" />
            <path d=" M 549.827, 514.047 549.150, 514.109 548.398, 514.177 548.199, 514.195 547.305, 514.276 546.592, 514.341 546.445, 514.354 544.380, 514.542 541.883, 514.768 533.429, 516.664 530.822, 517.605 526.771, 519.600 524.917, 520.459 523.957, 520.905 523.357, 521.183 " fill="none" stroke="rgb(0, 0, 0)" stroke-linecap="butt" stroke-linejoin="round" stroke-opacity="1.0" stroke-width="3.0" />
            <path d=" M 917.550, 447.065 916.567, 444.352 914.712, 440.307 912.855, 434.079 911.308, 430.439 910.281, 427.557 907.660, 424.108 905.560, 422.498 " fill="none" stroke="rgb(0, 0, 0)" stroke-linecap="butt" stroke-linejoin="round" stroke-opacity="1.0" stroke-width="3.0" />
            <path d=" M 850.447, 458.338 850.109, 458.254 843.166, 456.522 835.893, 457.137 832.744, 459.559 831.568, 461.280 831.924, 463.584 833.777, 464.989 835.355, 466.830 " fill="none" stroke="rgb(0, 0, 0)" stroke-linecap="butt" stroke-linejoin="round" stroke-opacity="1.0" stroke-width="3.0" />
            <path d=" M 487.329, 536.266 487.213, 536.440 482.257, 543.892 478.553, 550.361 473.048, 558.710 472.494, 559.549 472.290, 559.856 " fill="none" stroke="rgb(0, 0, 0)" stroke-linecap="butt" stroke-linejoin="round" stroke-opacity="1.0" stroke-width="3.0" />
            <path d=" M 381.440, 672.068 378.339, 673.768 374.389, 675.934 371.262, 677.162 366.319, 678.964 363.335, 680.991 360.864, 684.994 360.264, 688.061 " fill="none" stroke="rgb(0, 0, 0)" stroke-linecap="butt" stroke-linejoin="round" stroke-opacity="1.0" stroke-width="3.0" />
            <path d=" M 810.380, 574.584 808.658, 577.708 808.170, 578.592 805.902, 585.119 802.544, 590.349 802.277, 590.765 801.151, 592.518 800.859, 592.799 800.457, 593.185 800.330, 593.308 800.262, 593.374 799.817, 593.801 799.811, 593.808 799.581, 594.622 799.364, 595.393 799.359, 595.410 798.176, 599.608 " fill="none" stroke="rgb(0, 0, 0)" stroke-linecap="butt" stroke-linejoin="round" stroke-opacity="1.0" stroke-width="3.0" />
            <path d=" M 878.720, 871.830 879.234, 870.146 879.883, 863.564 879.681, 860.242 879.329, 852.770 879.777, 848.133 879.516, 844.459 879.449, 843.517 " fill="none" stroke="rgb(0, 0, 0)" stroke-linecap="butt" stroke-linejoin="round" stroke-opacity="1.0" stroke-width="3.0" />
            <path d=" M 811.020, 926.573 814.056, 925.927 817.267, 925.243 820.834, 923.942 824.190, 923.379 828.037, 920.086 833.403, 919.653 833.444, 919.650 835.524, 920.488 833.403, 919.653 " fill="none" stroke="rgb(0, 0, 0)" stroke-linecap="butt" stroke-linejoin="round" stroke-opacity="1.0" stroke-width="3.0" />
            <path d=" M 530.989, 1078.073 535.508, 1078.922 541.074, 1079.968 544.505, 1080.703 549.435, 1077.909 551.307, 1076.530 551.742, 1075.702 552.958, 1073.934 553.446, 1071.937 553.469, 1071.845 553.662, 1071.056 553.489, 1070.695 553.247, 1070.191 " fill="none" stroke="rgb(0, 0, 0)" stroke-linecap="butt" stroke-linejoin="round" stroke-opacity="1.0" stroke-width="3.0" />
            <path d=" M 610.497, 458.984 614.169, 459.160 618.413, 458.826 627.796, 455.367 627.939, 455.315 630.929, 453.688 631.299, 452.149 631.120, 450.031 627.604, 449.070 " fill="none" stroke="rgb(0, 0, 0)" stroke-linecap="butt" stroke-linejoin="round" stroke-opacity="1.0" stroke-width="3.0" />
            <path d=" M 922.184, 472.391 920.122, 464.629 917.187, 455.069 916.270, 452.085 915.209, 448.815 914.326, 446.330 913.655, 444.442 " fill="none" stroke="rgb(0, 0, 0)" stroke-linecap="butt" stroke-linejoin="round" stroke-opacity="1.0" stroke-width="3.0" />
            <path d=" M 780.711, 924.206 781.807, 927.694 782.569, 928.108 783.030, 928.358 785.243, 929.560 785.496, 929.591 785.624, 929.607 786.173, 929.675 790.710, 930.237 797.353, 928.031 802.558, 926.332 806.304, 926.369 " fill="none" stroke="rgb(0, 0, 0)" stroke-linecap="butt" stroke-linejoin="round" stroke-opacity="1.0" stroke-width="3.0" />
            <path d=" M 750.433, 666.576 749.790, 666.965 743.858, 670.554 743.832, 670.570 740.696, 672.467 740.407, 672.642 739.184, 673.122 739.062, 673.170 738.028, 673.576 735.488, 674.573 734.601, 674.921 733.842, 675.219 733.452, 675.372 733.422, 675.384 729.781, 676.813 728.107, 677.444 723.858, 679.045 " fill="none" stroke="rgb(0, 0, 0)" stroke-linecap="butt" stroke-linejoin="round" stroke-opacity="1.0" stroke-width="3.0" />
            <path d=" M 404.134, 662.609 403.617, 663.928 401.970, 668.128 399.400, 670.042 399.126, 670.247 398.966, 670.366 398.959, 670.371 398.562, 670.666 398.092, 671.017 397.984, 671.097 397.697, 671.311 397.560, 671.413 397.175, 671.699 396.189, 672.434 395.439, 672.993 391.317, 677.525 386.749, 684.008 386.558, 685.542 " fill="none" stroke="rgb(0, 0, 0)" stroke-linecap="butt" stroke-linejoin="round" stroke-opacity="1.0" stroke-width="3.0" />
            <path d=" M 403.786, 1052.239 404.835, 1049.883 405.588, 1048.100 405.647, 1047.960 406.388, 1046.203 410.623, 1038.733 412.899, 1035.095 415.348, 1030.242 416.676, 1025.460 " fill="none" stroke="rgb(0, 0, 0)" stroke-linecap="butt" stroke-linejoin="round" stroke-opacity="1.0" stroke-width="3.0" />
            <path d=" M 457.070, 986.065 465.487, 985.990 466.529, 986.474 466.700, 986.554 471.628, 988.843 472.398, 989.139 475.217, 989.534 485.107, 988.057 486.139, 987.903 " fill="none" stroke="rgb(0, 0, 0)" stroke-linecap="butt" stroke-linejoin="round" stroke-opacity="1.0" stroke-width="3.0" />
            <path d=" M 340.707, 842.173 340.649, 842.319 339.699, 844.698 339.059, 846.299 337.921, 849.147 335.270, 858.789 334.771, 860.602 334.121, 862.751 333.925, 863.335 333.367, 868.318 333.041, 871.205 " fill="none" stroke="rgb(0, 0, 0)" stroke-linecap="butt" stroke-linejoin="round" stroke-opacity="1.0" stroke-width="3.0" />
            <path d=" M 521.486, 1038.238 525.482, 1039.164 527.548, 1039.643 534.791, 1042.628 535.205, 1042.799 536.675, 1043.404 545.550, 1045.634 548.907, 1046.477 549.676, 1046.670 549.168, 1046.561 548.907, 1046.477 " fill="none" stroke="rgb(0, 0, 0)" stroke-linecap="butt" stroke-linejoin="round" stroke-opacity="1.0" stroke-width="3.0" />
            <path d=" M 868.937, 390.275 868.614, 387.557 868.120, 386.878 868.078, 386.821 868.020, 386.741 865.401, 383.141 862.714, 382.799 861.125, 383.593 858.086, 384.042 856.222, 385.950 855.955, 389.102 856.709, 397.595 856.915, 397.820 " fill="none" stroke="rgb(0, 0, 0)" stroke-linecap="butt" stroke-linejoin="round" stroke-opacity="1.0" stroke-width="3.0" />
            <path d=" M 655.185, 690.203 652.704, 689.590 652.280, 689.486 652.217, 689.470 651.996, 689.416 651.749, 689.355 651.366, 689.260 651.191, 689.217 651.103, 689.195 650.880, 689.140 650.445, 689.033 650.353, 689.010 648.846, 688.696 648.785, 688.683 648.651, 688.655 648.505, 688.625 646.354, 688.177 645.659, 688.032 645.601, 688.020 643.358, 687.552 642.766, 687.429 632.976, 685.389 631.573, 685.097 625.173, 685.061 " fill="none" stroke="rgb(0, 0, 0)" stroke-linecap="butt" stroke-linejoin="round" stroke-opacity="1.0" stroke-width="3.0" />
            <path d=" M 652.187, 598.379 651.486, 597.375 651.782, 596.240 652.046, 595.228 651.523, 594.022 649.580, 591.087 648.672, 590.343 644.015, 589.921 638.661, 590.215 636.241, 591.198 636.019, 591.288 634.711, 591.820 633.781, 592.384 633.709, 592.428 633.699, 592.434 633.597, 592.495 630.745, 594.226 630.257, 594.522 630.168, 594.576 630.011, 594.671 628.674, 595.482 " fill="none" stroke="rgb(0, 0, 0)" stroke-linecap="butt" stroke-linejoin="round" stroke-opacity="1.0" stroke-width="3.0" />
            <path d=" M 531.851, 752.145 530.217, 755.796 527.519, 764.608 526.030, 768.722 525.619, 769.900 525.549, 770.169 524.162, 775.538 523.530, 776.242 519.989, 780.189 " fill="none" stroke="rgb(0, 0, 0)" stroke-linecap="butt" stroke-linejoin="round" stroke-opacity="1.0" stroke-width="3.0" />
            <path d=" M 608.271, 656.871 606.160, 651.996 605.841, 645.676 606.120, 640.827 605.873, 637.236 604.663, 632.218 604.625, 632.166 603.300, 630.370 603.032, 630.006 602.617, 629.443 601.163, 627.471 " fill="none" stroke="rgb(0, 0, 0)" stroke-linecap="butt" stroke-linejoin="round" stroke-opacity="1.0" stroke-width="3.0" />
            <path d=" M 537.156, 814.967 537.690, 814.007 537.692, 814.003 537.779, 813.845 538.853, 811.912 538.853, 811.882 538.841, 809.072 538.841, 808.951 538.834, 807.365 539.126, 806.652 539.370, 806.054 539.936, 804.669 540.631, 802.969 542.188, 799.161 544.281, 795.666 544.622, 794.353 545.170, 792.242 545.180, 792.205 547.091, 789.341 547.112, 789.310 547.091, 789.341 545.170, 792.242 " fill="none" stroke="rgb(0, 0, 0)" stroke-linecap="butt" stroke-linejoin="round" stroke-opacity="1.0" stroke-width="3.0" />
            <path d=" M 807.734, 523.064 803.155, 524.566 796.822, 527.780 795.835, 528.375 794.440, 529.923 795.408, 533.243 795.220, 536.346 797.478, 537.779 800.658, 539.069 804.668, 540.576 " fill="none" stroke="rgb(0, 0, 0)" stroke-linecap="butt" stroke-linejoin="round" stroke-opacity="1.0" stroke-width="3.0" />
            <path d=" M 495.574, 774.592 495.380, 774.574 491.033, 774.188 488.684, 773.803 486.466, 773.792 482.430, 772.800 479.766, 772.302 477.068, 771.570 474.665, 770.947 473.905, 770.750 473.858, 770.738 472.593, 770.410 470.895, 770.086 470.405, 769.993 467.376, 768.781 464.322, 767.831 " fill="none" stroke="rgb(0, 0, 0)" stroke-linecap="butt" stroke-linejoin="round" stroke-opacity="1.0" stroke-width="3.0" />
            <path d=" M 728.107, 677.444 722.557, 679.155 717.834, 680.611 708.308, 683.652 707.510, 683.906 698.246, 685.992 697.147, 686.240 " fill="none" stroke="rgb(0, 0, 0)" stroke-linecap="butt" stroke-linejoin="round" stroke-opacity="1.0" stroke-width="3.0" />
            <path d=" M 774.411, 594.542 774.527, 597.610 774.536, 597.838 774.566, 598.651 774.573, 598.833 774.719, 602.688 774.393, 603.516 774.243, 603.898 774.097, 604.270 773.894, 604.444 768.982, 608.672 767.639, 611.414 766.287, 616.532 766.864, 619.147 767.962, 621.792 768.687, 623.480 " fill="none" stroke="rgb(0, 0, 0)" stroke-linecap="butt" stroke-linejoin="round" stroke-opacity="1.0" stroke-width="3.0" />
            <path d=" M 568.683, 688.408 570.566, 681.491 572.791, 673.320 572.946, 671.763 573.466, 666.571 572.936, 656.585 572.913, 656.156 " fill="none" stroke="rgb(0, 0, 0)" stroke-linecap="butt" stroke-linejoin="round" stroke-opacity="1.0" stroke-width="3.0" />
            <path d=" M 370.901, 1023.750 370.947, 1023.875 371.089, 1024.262 371.098, 1024.285 372.675, 1028.575 373.512, 1030.870 374.912, 1033.611 375.157, 1033.810 375.307, 1033.931 377.749, 1035.910 379.463, 1039.532 379.591, 1039.803 380.106, 1040.797 380.189, 1040.957 380.203, 1040.985 380.708, 1041.958 380.717, 1041.976 380.959, 1042.442 380.960, 1042.444 381.530, 1043.544 381.544, 1043.568 381.913, 1044.207 382.560, 1045.329 382.892, 1045.903 384.213, 1047.831 384.515, 1048.544 386.231, 1052.604 " fill="none" stroke="rgb(0, 0, 0)" stroke-linecap="butt" stroke-linejoin="round" stroke-opacity="1.0" stroke-width="3.0" />
            <path d=" M 504.590, 624.461 507.801, 624.086 512.127, 622.577 515.029, 621.523 520.445, 618.954 522.650, 617.363 528.834, 611.367 530.618, 609.486 531.714, 608.934 532.794, 608.389 " fill="none" stroke="rgb(0, 0, 0)" stroke-linecap="butt" stroke-linejoin="round" stroke-opacity="1.0" stroke-width="3.0" />
            <path d=" M 789.300, 630.510 787.861, 631.533 787.312, 631.923 785.688, 633.076 785.477, 633.226 785.380, 633.295 781.626, 635.961 776.738, 639.363 773.548, 643.144 768.672, 647.290 764.614, 648.995 763.276, 649.557 762.532, 650.331 " fill="none" stroke="rgb(0, 0, 0)" stroke-linecap="butt" stroke-linejoin="round" stroke-opacity="1.0" stroke-width="3.0" />
            <path d=" M 593.330, 460.801 594.710, 459.789 598.198, 457.233 598.747, 456.489 598.830, 455.269 598.241, 454.169 595.548, 452.983 589.574, 453.437 586.239, 453.748 585.383, 453.828 584.484, 454.131 582.201, 454.902 581.315, 455.201 580.761, 455.527 580.734, 455.543 580.675, 455.578 580.565, 455.643 580.534, 455.661 578.584, 456.810 578.583, 456.811 578.021, 457.143 577.940, 457.190 577.438, 457.486 577.327, 457.365 577.285, 457.320 576.545, 456.517 575.757, 455.663 " fill="none" stroke="rgb(0, 0, 0)" stroke-linecap="butt" stroke-linejoin="round" stroke-opacity="1.0" stroke-width="3.0" />
            <path d=" M 559.642, 1067.096 562.974, 1066.795 567.014, 1067.179 569.263, 1068.263 573.047, 1070.088 576.381, 1072.374 580.590, 1073.858 583.286, 1074.267 587.300, 1074.877 590.379, 1074.663 591.783, 1074.502 " fill="none" stroke="rgb(0, 0, 0)" stroke-linecap="butt" stroke-linejoin="round" stroke-opacity="1.0" stroke-width="3.0" />
            <path d=" M 367.971, 706.518 366.284, 710.270 365.485, 714.371 363.308, 718.847 360.722, 725.404 359.312, 728.072 358.371, 730.098 356.942, 734.798 356.814, 735.672 356.484, 738.410 " fill="none" stroke="rgb(0, 0, 0)" stroke-linecap="butt" stroke-linejoin="round" stroke-opacity="1.0" stroke-width="3.0" />
            <path d=" M 500.301, 866.650 502.303, 863.918 503.176, 862.726 502.580, 863.850 501.907, 865.117 497.283, 873.826 496.999, 878.195 497.877, 880.162 501.750, 882.805 507.231, 885.178 " fill="none" stroke="rgb(0, 0, 0)" stroke-linecap="butt" stroke-linejoin="round" stroke-opacity="1.0" stroke-width="3.0" />
            <path d=" M 355.777, 795.663 354.964, 798.600 350.668, 807.630 350.411, 808.169 348.006, 814.943 347.275, 817.001 347.128, 817.415 346.008, 821.436 345.409, 823.587 345.210, 824.301 344.756, 828.464 " fill="none" stroke="rgb(0, 0, 0)" stroke-linecap="butt" stroke-linejoin="round" stroke-opacity="1.0" stroke-width="3.0" />
            <path d=" M 930.733, 491.824 929.009, 485.906 926.850, 478.130 923.508, 468.705 921.509, 463.068 920.370, 458.584 " fill="none" stroke="rgb(0, 0, 0)" stroke-linecap="butt" stroke-linejoin="round" stroke-opacity="1.0" stroke-width="3.0" />
            <path d=" M 910.715, 521.390 912.666, 514.728 914.768, 508.729 915.234, 506.600 916.538, 502.283 917.336, 498.093 917.047, 495.427 916.966, 494.684 916.943, 494.472 916.916, 494.223 918.440, 488.875 918.575, 488.400 918.923, 487.179 " fill="none" stroke="rgb(0, 0, 0)" stroke-linecap="butt" stroke-linejoin="round" stroke-opacity="1.0" stroke-width="3.0" />
            <path d=" M 594.042, 529.221 597.947, 526.349 601.546, 524.117 601.819, 523.947 601.912, 523.890 602.684, 523.411 604.823, 521.914 606.623, 520.169 607.650, 517.620 606.844, 514.079 606.655, 513.721 601.370, 511.331 597.316, 510.071 594.099, 509.071 " fill="none" stroke="rgb(0, 0, 0)" stroke-linecap="butt" stroke-linejoin="round" stroke-opacity="1.0" stroke-width="3.0" />
            <path d=" M 407.465, 1094.148 412.468, 1102.806 413.235, 1104.134 416.516, 1106.992 420.034, 1109.690 420.868, 1109.879 425.908, 1114.631 429.638, 1116.309 431.655, 1117.836 432.593, 1118.546 " fill="none" stroke="rgb(0, 0, 0)" stroke-linecap="butt" stroke-linejoin="round" stroke-opacity="1.0" stroke-width="3.0" />
            <path d=" M 493.182, 528.408 491.871, 530.493 488.528, 535.927 488.518, 535.942 485.806, 540.350 480.559, 548.863 477.041, 554.570 473.988, 559.114 " fill="none" stroke="rgb(0, 0, 0)" stroke-linecap="butt" stroke-linejoin="round" stroke-opacity="1.0" stroke-width="3.0" />
            <path d=" M 786.532, 849.855 787.006, 849.872 796.609, 850.212 802.610, 847.990 805.286, 846.030 810.291, 844.341 812.384, 841.678 815.009, 839.372 815.315, 839.097 817.979, 836.705 818.117, 836.581 818.266, 836.447 " fill="none" stroke="rgb(0, 0, 0)" stroke-linecap="butt" stroke-linejoin="round" stroke-opacity="1.0" stroke-width="3.0" />
            <path d=" M 402.857, 646.721 402.260, 647.170 398.702, 650.486 396.709, 653.429 391.009, 658.746 387.970, 663.439 384.530, 667.510 379.853, 672.738 378.339, 673.768 " fill="none" stroke="rgb(0, 0, 0)" stroke-linecap="butt" stroke-linejoin="round" stroke-opacity="1.0" stroke-width="3.0" />
            <path d=" M 591.220, 575.257 591.430, 574.805 591.431, 574.802 591.461, 574.738 591.648, 574.335 592.515, 572.467 593.081, 571.247 593.228, 570.930 594.836, 567.100 594.701, 564.744 593.364, 563.087 590.556, 560.825 585.449, 560.826 580.512, 560.101 580.204, 559.898 577.710, 558.248 577.692, 558.236 577.542, 558.137 577.529, 557.970 577.528, 557.948 577.493, 557.502 577.480, 557.332 577.479, 557.316 577.398, 556.276 577.278, 554.723 577.166, 554.174 576.726, 552.012 " fill="none" stroke="rgb(0, 0, 0)" stroke-linecap="butt" stroke-linejoin="round" stroke-opacity="1.0" stroke-width="3.0" />
            <path d=" M 762.592, 650.276 762.532, 650.331 762.121, 650.703 756.144, 656.115 753.099, 660.630 751.519, 661.949 750.818, 662.534 749.058, 664.004 744.635, 666.520 744.202, 666.752 740.536, 668.712 737.902, 671.025 735.386, 673.995 734.601, 674.921 " fill="none" stroke="rgb(0, 0, 0)" stroke-linecap="butt" stroke-linejoin="round" stroke-opacity="1.0" stroke-width="3.0" />
            <path d=" M 661.168, 621.087 662.215, 617.253 661.832, 614.028 666.972, 607.273 667.530, 602.259 666.907, 601.646 664.443, 599.893 660.127, 598.849 653.029, 597.179 651.782, 596.240 " fill="none" stroke="rgb(0, 0, 0)" stroke-linecap="butt" stroke-linejoin="round" stroke-opacity="1.0" stroke-width="3.0" />
            <path d=" M 409.815, 1013.540 409.098, 1014.387 408.467, 1015.564 407.704, 1020.110 404.537, 1025.253 404.491, 1025.327 402.823, 1028.036 402.820, 1028.040 402.307, 1030.829 402.385, 1035.781 402.046, 1036.993 400.445, 1042.722 400.324, 1043.156 397.868, 1048.980 " fill="none" stroke="rgb(0, 0, 0)" stroke-linecap="butt" stroke-linejoin="round" stroke-opacity="1.0" stroke-width="3.0" />
            <path d=" M 465.599, 769.858 464.322, 767.831 463.867, 767.108 462.976, 765.694 460.467, 763.136 459.244, 760.394 458.690, 759.831 456.906, 758.019 456.350, 755.617 455.961, 753.937 455.396, 749.764 455.175, 748.137 454.662, 745.775 452.569, 738.613 449.251, 736.584 " fill="none" stroke="rgb(0, 0, 0)" stroke-linecap="butt" stroke-linejoin="round" stroke-opacity="1.0" stroke-width="3.0" />
            <path d=" M 566.940, 630.351 567.008, 630.379 568.103, 630.832 569.588, 631.447 569.838, 631.550 570.551, 631.438 570.682, 631.417 571.458, 631.295 572.659, 631.106 573.335, 631.000 575.069, 630.727 581.179, 630.445 589.292, 628.176 591.376, 626.813 592.352, 624.579 592.145, 623.465 591.547, 620.254 591.119, 619.102 589.386, 614.432 589.241, 614.223 " fill="none" stroke="rgb(0, 0, 0)" stroke-linecap="butt" stroke-linejoin="round" stroke-opacity="1.0" stroke-width="3.0" />
            <path d=" M 441.846, 685.025 441.758, 683.726 442.619, 675.808 443.937, 672.428 444.800, 669.176 443.273, 662.451 443.023, 660.806 442.912, 660.073 442.891, 659.932 442.833, 659.551 443.725, 657.144 443.740, 657.105 444.433, 655.234 444.433, 655.232 444.476, 655.117 444.884, 654.015 445.387, 652.658 445.328, 648.221 445.454, 647.208 " fill="none" stroke="rgb(0, 0, 0)" stroke-linecap="butt" stroke-linejoin="round" stroke-opacity="1.0" stroke-width="3.0" />
            <path d=" M 661.282, 627.931 659.177, 626.390 658.282, 626.304 657.650, 626.243 657.374, 626.217 657.365, 626.216 656.216, 626.106 655.031, 625.993 650.134, 624.866 649.661, 624.757 649.450, 624.694 649.098, 624.588 648.169, 624.310 647.236, 624.031 641.520, 622.035 640.789, 621.780 637.665, 621.466 632.879, 623.373 629.504, 625.315 628.314, 626.000 627.758, 626.236 627.733, 626.247 627.188, 626.479 624.856, 627.471 " fill="none" stroke="rgb(0, 0, 0)" stroke-linecap="butt" stroke-linejoin="round" stroke-opacity="1.0" stroke-width="3.0" />
            <path d=" M 617.605, 1049.145 619.324, 1049.038 625.646, 1049.222 627.942, 1048.900 631.511, 1047.985 637.865, 1044.911 639.555, 1043.563 640.202, 1040.571 641.458, 1037.521 642.103, 1034.470 642.133, 1034.328 641.982, 1034.159 640.918, 1032.973 640.630, 1032.653 640.578, 1032.595 640.020, 1031.972 637.375, 1030.700 " fill="none" stroke="rgb(0, 0, 0)" stroke-linecap="butt" stroke-linejoin="round" stroke-opacity="1.0" stroke-width="3.0" />
            <path d=" M 469.108, 1122.922 472.317, 1122.380 477.160, 1120.907 483.050, 1118.952 485.503, 1118.399 490.704, 1114.370 493.927, 1111.576 498.174, 1107.365 501.934, 1103.139 502.171, 1102.874 " fill="none" stroke="rgb(0, 0, 0)" stroke-linecap="butt" stroke-linejoin="round" stroke-opacity="1.0" stroke-width="3.0" />
            <path d=" M 369.700, 1039.863 369.954, 1043.251 370.064, 1044.722 370.067, 1047.386 374.706, 1055.850 376.969, 1059.457 383.127, 1067.083 384.414, 1069.597 387.690, 1074.607 " fill="none" stroke="rgb(0, 0, 0)" stroke-linecap="butt" stroke-linejoin="round" stroke-opacity="1.0" stroke-width="3.0" />
            <path d=" M 902.553, 559.006 903.919, 553.397 905.650, 544.990 907.999, 535.270 909.579, 528.733 910.715, 521.390 911.030, 519.358 " fill="none" stroke="rgb(0, 0, 0)" stroke-linecap="butt" stroke-linejoin="round" stroke-opacity="1.0" stroke-width="3.0" />
            <path d=" M 698.246, 685.992 693.578, 686.745 683.684, 688.201 682.338, 688.399 677.075, 689.047 670.598, 689.258 660.609, 689.720 657.733, 689.853 " fill="none" stroke="rgb(0, 0, 0)" stroke-linecap="butt" stroke-linejoin="round" stroke-opacity="1.0" stroke-width="3.0" />
            <path d=" M 387.597, 744.740 390.234, 752.095 390.520, 752.893 393.400, 759.091 395.719, 763.299 397.810, 768.009 398.333, 769.204 398.384, 769.320 400.916, 775.106 401.305, 775.928 404.153, 781.949 " fill="none" stroke="rgb(0, 0, 0)" stroke-linecap="butt" stroke-linejoin="round" stroke-opacity="1.0" stroke-width="3.0" />
            <path d=" M 522.399, 825.094 528.289, 823.678 531.864, 820.545 532.429, 819.428 533.564, 817.183 533.687, 816.941 533.713, 816.889 533.933, 816.453 533.996, 816.134 533.999, 816.116 534.018, 816.020 534.082, 815.693 534.125, 815.473 535.018, 810.896 533.799, 809.729 532.675, 807.126 530.163, 805.004 529.995, 804.872 529.869, 804.774 528.974, 804.072 528.814, 803.946 528.030, 803.332 527.532, 802.940 521.017, 801.591 518.688, 801.536 " fill="none" stroke="rgb(0, 0, 0)" stroke-linecap="butt" stroke-linejoin="round" stroke-opacity="1.0" stroke-width="3.0" />
            <path d=" M 625.588, 901.221 631.240, 903.208 634.252, 904.537 634.906, 904.825 634.248, 904.410 630.343, 901.945 623.097, 897.725 619.494, 895.972 614.234, 893.732 613.289, 893.362 613.288, 893.361 612.729, 893.142 611.737, 892.937 607.332, 892.025 606.411, 891.853 " fill="none" stroke="rgb(0, 0, 0)" stroke-linecap="butt" stroke-linejoin="round" stroke-opacity="1.0" stroke-width="3.0" />
            <path d=" M 431.655, 1117.836 431.783, 1117.991 434.744, 1120.251 438.365, 1122.025 441.559, 1124.079 446.672, 1126.609 452.621, 1127.193 456.518, 1126.429 457.145, 1126.558 461.242, 1124.665 463.086, 1123.812 464.909, 1123.824 467.665, 1123.842 469.108, 1122.922 469.731, 1122.525 " fill="none" stroke="rgb(0, 0, 0)" stroke-linecap="butt" stroke-linejoin="round" stroke-opacity="1.0" stroke-width="3.0" />
            <path d=" M 449.967, 740.424 449.442, 737.533 449.374, 737.162 449.316, 736.842 449.251, 736.584 448.464, 733.450 448.259, 729.191 449.947, 725.692 452.012, 720.540 452.431, 716.456 449.783, 711.064 444.939, 705.878 444.903, 705.840 444.323, 702.214 " fill="none" stroke="rgb(0, 0, 0)" stroke-linecap="butt" stroke-linejoin="round" stroke-opacity="1.0" stroke-width="3.0" />
            <path d=" M 674.238, 892.164 673.788, 892.600 668.580, 897.642 666.874, 898.979 664.653, 902.595 663.379, 906.920 662.918, 908.942 663.493, 911.509 664.237, 914.079 668.200, 923.261 669.322, 925.859 669.442, 926.120 670.515, 928.456 " fill="none" stroke="rgb(0, 0, 0)" stroke-linecap="butt" stroke-linejoin="round" stroke-opacity="1.0" stroke-width="3.0" />
            <path d=" M 501.934, 1103.139 504.526, 1100.917 509.789, 1096.919 512.694, 1094.929 517.873, 1090.607 519.124, 1089.173 522.426, 1085.611 525.667, 1082.784 527.329, 1082.027 531.389, 1080.437 534.560, 1079.185 535.508, 1078.922 " fill="none" stroke="rgb(0, 0, 0)" stroke-linecap="butt" stroke-linejoin="round" stroke-opacity="1.0" stroke-width="3.0" />
            <path d=" M 517.531, 801.154 518.063, 797.081 516.949, 790.241 516.656, 788.439 516.287, 786.173 516.079, 784.895 516.075, 784.869 516.058, 784.769 513.866, 780.641 513.613, 780.163 513.503, 779.957 510.070, 776.787 506.370, 775.066 504.361, 774.840 504.194, 774.821 502.618, 774.644 502.542, 774.638 502.349, 774.623 502.189, 774.611 498.409, 774.322 496.439, 774.509 495.911, 774.560 495.574, 774.592 495.420, 774.606 495.251, 774.622 " fill="none" stroke="rgb(0, 0, 0)" stroke-linecap="butt" stroke-linejoin="round" stroke-opacity="1.0" stroke-width="3.0" />
            <path d=" M 640.957, 833.946 639.535, 836.079 637.214, 840.266 636.203, 841.609 633.868, 846.152 630.741, 853.884 629.349, 857.438 628.146, 864.542 628.336, 870.798 628.998, 872.992 " fill="none" stroke="rgb(0, 0, 0)" stroke-linecap="butt" stroke-linejoin="round" stroke-opacity="1.0" stroke-width="3.0" />
            <path d=" M 591.132, 413.729 593.731, 410.710 594.355, 410.090 596.540, 407.919 597.831, 406.637 597.890, 406.582 598.254, 406.243 598.452, 406.060 601.451, 403.272 601.859, 401.600 601.708, 401.154 601.660, 401.014 601.477, 400.478 601.143, 399.498 598.000, 399.118 593.140, 398.907 587.006, 400.729 586.476, 400.904 586.365, 400.941 586.145, 401.013 585.290, 401.295 584.357, 401.990 582.872, 403.095 580.250, 405.376 579.629, 405.916 " fill="none" stroke="rgb(0, 0, 0)" stroke-linecap="butt" stroke-linejoin="round" stroke-opacity="1.0" stroke-width="3.0" />
            <path d=" M 642.103, 1034.470 644.647, 1030.052 646.140, 1028.385 647.282, 1026.163 648.763, 1022.043 647.015, 1019.944 646.690, 1019.554 647.098, 1018.950 649.828, 1014.914 653.444, 1009.003 651.929, 1012.035 647.457, 1018.822 647.015, 1019.944 " fill="none" stroke="rgb(0, 0, 0)" stroke-linecap="butt" stroke-linejoin="round" stroke-opacity="1.0" stroke-width="3.0" />
            <path d=" M 595.611, 543.750 595.542, 543.036 598.024, 539.687 599.924, 534.340 599.991, 534.152 599.972, 533.512 599.957, 533.016 597.207, 531.791 597.153, 531.767 596.825, 531.621 595.276, 530.931 593.569, 529.642 592.766, 529.035 592.336, 528.710 592.082, 528.730 592.023, 528.735 591.368, 528.785 586.032, 529.894 583.789, 529.870 583.700, 529.869 579.690, 529.826 579.404, 529.707 578.499, 529.331 578.348, 529.268 578.387, 527.562 578.396, 527.167 578.348, 527.524 578.228, 528.416 577.953, 530.450 577.626, 532.869 577.611, 532.978 577.600, 533.062 " fill="none" stroke="rgb(0, 0, 0)" stroke-linecap="butt" stroke-linejoin="round" stroke-opacity="1.0" stroke-width="3.0" />
            <path d=" M 502.008, 894.823 502.000, 894.832 496.995, 899.991 492.553, 903.338 484.842, 906.134 476.953, 907.055 469.958, 907.778 469.035, 907.674 462.989, 906.518 " fill="none" stroke="rgb(0, 0, 0)" stroke-linecap="butt" stroke-linejoin="round" stroke-opacity="1.0" stroke-width="3.0" />
            <path d=" M 740.551, 845.127 741.341, 846.152 743.280, 851.094 743.564, 852.763 746.236, 852.928 751.446, 851.735 757.788, 852.239 759.035, 852.338 759.146, 852.346 760.521, 852.203 765.374, 851.696 765.998, 851.708 766.703, 851.722 766.913, 851.727 776.078, 851.911 776.174, 851.913 777.446, 851.939 778.489, 851.960 " fill="none" stroke="rgb(0, 0, 0)" stroke-linecap="butt" stroke-linejoin="round" stroke-opacity="1.0" stroke-width="3.0" />
            <path d=" M 400.445, 1042.722 397.296, 1046.482 397.185, 1049.696 396.451, 1052.861 396.235, 1053.792 396.185, 1053.985 395.700, 1055.868 393.908, 1061.868 393.582, 1063.167 392.616, 1067.012 392.580, 1067.116 392.301, 1067.926 392.195, 1068.233 391.732, 1069.581 391.699, 1069.675 391.692, 1069.695 391.688, 1069.709 391.684, 1069.718 391.033, 1071.610 390.932, 1071.904 390.281, 1073.796 390.095, 1074.198 390.045, 1074.309 389.001, 1076.578 388.233, 1078.230 386.810, 1081.290 386.771, 1081.373 386.163, 1082.682 385.939, 1083.163 385.866, 1083.319 " fill="none" stroke="rgb(0, 0, 0)" stroke-linecap="butt" stroke-linejoin="round" stroke-opacity="1.0" stroke-width="3.0" />
            <path d=" M 582.201, 454.902 582.597, 454.106 582.654, 453.991 582.661, 453.920 582.673, 453.800 582.706, 453.456 582.964, 450.767 585.584, 447.439 589.961, 442.734 592.021, 439.912 598.013, 434.970 604.026, 429.410 606.796, 426.849 606.820, 426.826 606.984, 426.675 607.087, 426.580 608.055, 425.685 610.977, 423.061 " fill="none" stroke="rgb(0, 0, 0)" stroke-linecap="butt" stroke-linejoin="round" stroke-opacity="1.0" stroke-width="3.0" />
            <path d=" M 669.442, 926.120 671.546, 934.564 672.900, 938.744 675.025, 944.961 678.053, 948.645 683.394, 950.897 690.392, 950.287 697.335, 949.682 " fill="none" stroke="rgb(0, 0, 0)" stroke-linecap="butt" stroke-linejoin="round" stroke-opacity="1.0" stroke-width="3.0" />
            <path d=" M 583.224, 986.632 583.208, 986.554 582.833, 984.778 582.528, 983.337 582.505, 983.228 582.034, 980.995 581.852, 980.133 581.762, 979.706 581.712, 979.471 581.339, 977.706 581.304, 977.540 581.265, 977.405 581.057, 976.697 578.240, 967.102 576.029, 959.571 573.127, 950.001 571.212, 943.687 " fill="none" stroke="rgb(0, 0, 0)" stroke-linecap="butt" stroke-linejoin="round" stroke-opacity="1.0" stroke-width="3.0" />
            <path d=" M 861.674, 793.616 861.987, 799.685 861.918, 802.437 862.403, 794.557 861.898, 785.566 861.249, 780.487 860.742, 778.153 860.699, 774.206 859.018, 767.200 858.931, 766.836 " fill="none" stroke="rgb(0, 0, 0)" stroke-linecap="butt" stroke-linejoin="round" stroke-opacity="1.0" stroke-width="3.0" />
            <path d=" M 593.836, 841.623 597.129, 843.719 605.327, 849.447 606.577, 850.320 608.881, 852.088 611.944, 852.828 615.089, 851.808 617.116, 849.881 619.388, 847.720 621.084, 843.700 621.275, 839.442 623.115, 834.152 " fill="none" stroke="rgb(0, 0, 0)" stroke-linecap="butt" stroke-linejoin="round" stroke-opacity="1.0" stroke-width="3.0" />
            <path d=" M 660.656, 679.191 660.017, 676.726 659.979, 675.980 661.857, 672.055 663.412, 668.312 663.962, 665.419 661.335, 661.473 657.412, 659.962 656.655, 659.670 655.856, 659.362 655.108, 659.073 652.574, 658.094 649.222, 656.313 648.200, 655.814 648.054, 655.743 647.445, 655.445 646.815, 655.138 646.784, 655.122 642.562, 653.060 637.317, 651.938 " fill="none" stroke="rgb(0, 0, 0)" stroke-linecap="butt" stroke-linejoin="round" stroke-opacity="1.0" stroke-width="3.0" />
            <path d=" M 612.928, 405.985 612.254, 406.058 612.006, 406.148 602.602, 409.550 599.886, 410.532 599.479, 410.632 596.444, 411.371 591.132, 413.729 589.696, 414.367 589.599, 414.410 582.543, 418.818 581.752, 419.313 578.541, 421.694 572.698, 425.414 572.439, 425.579 " fill="none" stroke="rgb(0, 0, 0)" stroke-linecap="butt" stroke-linejoin="round" stroke-opacity="1.0" stroke-width="3.0" />
            <path d=" M 383.906, 694.142 381.504, 701.221 380.825, 703.221 381.620, 707.433 381.529, 708.331 380.628, 717.240 380.913, 721.520 382.297, 726.424 384.041, 734.609 385.308, 739.519 " fill="none" stroke="rgb(0, 0, 0)" stroke-linecap="butt" stroke-linejoin="round" stroke-opacity="1.0" stroke-width="3.0" />
            <path d=" M 643.213, 494.673 647.370, 492.954 648.850, 492.340 639.880, 496.760 639.184, 497.103 637.377, 497.832 629.645, 502.283 624.320, 505.736 622.187, 507.536 622.904, 510.256 622.755, 511.257 621.304, 515.704 621.181, 517.112 " fill="none" stroke="rgb(0, 0, 0)" stroke-linecap="butt" stroke-linejoin="round" stroke-opacity="1.0" stroke-width="3.0" />
            <path d=" M 622.045, 532.435 622.839, 532.192 626.027, 531.215 627.959, 530.791 630.802, 529.536 635.915, 525.197 637.878, 523.067 638.991, 519.609 637.986, 518.019 638.638, 516.479 638.050, 515.064 636.218, 514.016 633.247, 513.529 628.903, 513.751 624.986, 515.733 621.181, 517.112 621.172, 517.115 621.095, 517.143 620.591, 517.326 620.133, 517.492 619.875, 517.305 618.996, 516.664 " fill="none" stroke="rgb(0, 0, 0)" stroke-linecap="butt" stroke-linejoin="round" stroke-opacity="1.0" stroke-width="3.0" />
            <path d=" M 610.262, 423.615 610.977, 423.061 614.416, 420.394 617.069, 418.620 618.695, 417.533 619.186, 417.205 624.255, 413.920 627.710, 411.748 630.015, 409.274 630.921, 407.671 630.777, 406.046 629.634, 403.300 626.323, 403.157 621.841, 403.683 612.928, 405.985 612.635, 406.061 " fill="none" stroke="rgb(0, 0, 0)" stroke-linecap="butt" stroke-linejoin="round" stroke-opacity="1.0" stroke-width="3.0" />
            <path d=" M 445.044, 654.383 448.500, 649.919 456.479, 643.892 457.066, 643.448 460.721, 641.049 461.313, 640.661 461.435, 640.581 461.868, 640.296 469.705, 636.005 474.871, 633.327 480.102, 631.048 483.031, 629.849 486.127, 628.581 " fill="none" stroke="rgb(0, 0, 0)" stroke-linecap="butt" stroke-linejoin="round" stroke-opacity="1.0" stroke-width="3.0" />
            <path d=" M 327.543, 912.684 327.722, 913.841 327.729, 913.887 327.731, 913.897 327.760, 914.088 329.262, 923.784 329.843, 932.789 330.590, 936.556 330.772, 937.469 330.796, 937.594 331.803, 942.667 332.686, 946.866 333.704, 951.704 334.710, 954.234 335.227, 955.534 335.970, 957.403 336.001, 957.483 336.212, 958.372 336.362, 959.005 336.511, 959.631 336.764, 960.698 337.409, 963.420 " fill="none" stroke="rgb(0, 0, 0)" stroke-linecap="butt" stroke-linejoin="round" stroke-opacity="1.0" stroke-width="3.0" />
            <path d=" M 772.092, 622.844 770.138, 623.012 769.413, 623.246 768.809, 623.440 768.787, 623.447 768.687, 623.480 767.217, 623.953 764.225, 626.499 760.676, 631.432 758.679, 634.208 755.922, 637.804 751.064, 640.509 749.811, 641.513 747.795, 644.929 747.058, 650.765 748.110, 655.164 748.317, 659.158 751.271, 661.770 751.519, 661.949 " fill="none" stroke="rgb(0, 0, 0)" stroke-linecap="butt" stroke-linejoin="round" stroke-opacity="1.0" stroke-width="3.0" />
            <path d=" M 840.859, 491.329 839.809, 491.226 839.031, 491.150 838.766, 491.124 838.725, 491.120 832.585, 490.519 831.236, 490.387 830.380, 490.304 824.829, 490.595 819.047, 493.008 813.086, 495.461 808.211, 497.105 803.722, 499.396 803.206, 499.915 802.169, 503.244 805.201, 506.316 810.630, 507.141 " fill="none" stroke="rgb(0, 0, 0)" stroke-linecap="butt" stroke-linejoin="round" stroke-opacity="1.0" stroke-width="3.0" />
            <path d=" M 502.542, 774.638 499.627, 772.391 494.629, 769.452 491.229, 767.126 485.522, 764.075 484.076, 763.302 483.546, 763.019 482.851, 762.648 477.176, 758.930 474.171, 757.586 472.844, 756.992 472.735, 756.943 464.161, 753.107 460.297, 751.379 459.994, 751.279 455.396, 749.764 " fill="none" stroke="rgb(0, 0, 0)" stroke-linecap="butt" stroke-linejoin="round" stroke-opacity="1.0" stroke-width="3.0" />
            <path d=" M 591.662, 489.075 597.532, 484.016 603.331, 480.275 604.588, 478.260 604.577, 478.213 604.449, 477.614 604.402, 477.395 603.592, 473.617 603.539, 473.599 599.195, 472.129 593.860, 471.818 591.293, 471.649 585.769, 472.513 585.630, 473.025 584.145, 473.745 580.541, 475.492 580.420, 475.551 580.368, 475.576 579.887, 475.810 579.211, 475.951 578.868, 476.022 578.842, 476.028 577.521, 476.304 577.299, 476.350 576.606, 476.495 575.617, 474.005 575.615, 474.000 575.464, 473.620 575.047, 473.054 574.854, 472.792 574.809, 472.731 574.774, 472.683 " fill="none" stroke="rgb(0, 0, 0)" stroke-linecap="butt" stroke-linejoin="round" stroke-opacity="1.0" stroke-width="3.0" />
            <path d=" M 553.279, 649.961 553.462, 650.622 553.821, 651.921 553.842, 651.996 553.875, 652.092 554.154, 652.896 556.754, 660.404 558.090, 664.207 560.805, 667.567 568.225, 670.752 570.014, 669.546 571.001, 668.780 571.092, 664.296 570.059, 658.381 567.752, 655.609 567.190, 654.933 567.029, 654.741 567.009, 654.712 564.835, 651.569 564.679, 651.280 564.615, 651.160 564.540, 651.021 562.247, 646.763 " fill="none" stroke="rgb(0, 0, 0)" stroke-linecap="butt" stroke-linejoin="round" stroke-opacity="1.0" stroke-width="3.0" />
            <path d=" M 508.555, 553.035 508.475, 553.048 505.619, 553.524 504.720, 553.647 503.792, 553.773 503.791, 553.774 503.564, 553.805 494.457, 555.048 488.498, 555.355 482.500, 555.705 476.361, 558.140 474.036, 559.095 473.988, 559.114 472.755, 559.620 472.290, 559.856 465.658, 563.227 459.657, 567.121 456.861, 569.514 " fill="none" stroke="rgb(0, 0, 0)" stroke-linecap="butt" stroke-linejoin="round" stroke-opacity="1.0" stroke-width="3.0" />
            <path d=" M 548.878, 966.224 553.258, 963.129 554.232, 961.570 555.075, 957.912 556.842, 954.039 560.951, 950.725 569.188, 945.056 570.006, 944.493 570.539, 944.137 571.212, 943.687 573.616, 942.079 581.321, 935.706 584.078, 933.425 588.519, 928.978 589.022, 928.222 " fill="none" stroke="rgb(0, 0, 0)" stroke-linecap="butt" stroke-linejoin="round" stroke-opacity="1.0" stroke-width="3.0" />
            <path d=" M 519.811, 464.336 516.783, 469.417 516.095, 470.657 514.973, 472.683 514.833, 472.936 511.089, 480.385 509.424, 484.340 508.413, 486.641 507.419, 488.906 505.459, 493.787 503.980, 497.471 500.928, 506.994 500.518, 508.274 500.513, 508.289 500.398, 508.649 496.945, 517.443 " fill="none" stroke="rgb(0, 0, 0)" stroke-linecap="butt" stroke-linejoin="round" stroke-opacity="1.0" stroke-width="3.0" />
            <path d=" M 522.757, 707.375 522.643, 707.423 515.955, 710.250 512.579, 713.260 511.387, 717.941 509.504, 727.762 509.419, 728.208 507.594, 732.949 506.977, 734.930 508.614, 742.265 511.187, 746.076 513.326, 746.997 522.610, 746.620 " fill="none" stroke="rgb(0, 0, 0)" stroke-linecap="butt" stroke-linejoin="round" stroke-opacity="1.0" stroke-width="3.0" />
            <path d=" M 572.698, 425.414 571.114, 424.910 569.858, 424.510 568.410, 425.013 566.570, 425.901 560.003, 431.484 558.192, 433.278 554.755, 435.982 549.848, 438.829 547.251, 441.106 539.316, 447.191 538.998, 447.435 533.081, 452.765 527.387, 459.167 " fill="none" stroke="rgb(0, 0, 0)" stroke-linecap="butt" stroke-linejoin="round" stroke-opacity="1.0" stroke-width="3.0" />
            <path d=" M 859.018, 767.200 859.742, 757.226 859.861, 755.600 859.964, 745.600 859.988, 743.318 859.876, 738.995 861.203, 733.415 862.344, 725.536 863.859, 715.651 863.978, 714.873 864.790, 711.908 864.791, 710.524 864.792, 708.572 " fill="none" stroke="rgb(0, 0, 0)" stroke-linecap="butt" stroke-linejoin="round" stroke-opacity="1.0" stroke-width="3.0" />
            <path d=" M 850.371, 465.924 850.333, 465.948 849.871, 466.245 848.250, 467.286 847.443, 467.804 844.013, 468.794 835.880, 466.798 835.355, 466.830 827.024, 467.339 817.256, 469.480 816.618, 469.620 814.082, 470.711 812.128, 471.586 811.387, 475.052 811.809, 478.186 820.719, 481.702 826.799, 485.641 " fill="none" stroke="rgb(0, 0, 0)" stroke-linecap="butt" stroke-linejoin="round" stroke-opacity="1.0" stroke-width="3.0" />
            <path d=" M 520.849, 745.963 522.610, 746.620 524.411, 747.293 528.276, 749.814 528.717, 750.101 528.751, 750.124 528.974, 750.269 531.851, 752.145 532.875, 752.813 533.461, 753.195 535.651, 754.662 542.839, 759.475 545.145, 761.183 545.807, 761.673 545.954, 761.782 546.004, 761.819 549.995, 764.774 558.942, 769.241 560.269, 769.904 560.275, 769.907 560.850, 770.220 560.850, 770.221 561.007, 770.306 561.111, 770.363 569.438, 774.903 576.623, 780.283 " fill="none" stroke="rgb(0, 0, 0)" stroke-linecap="butt" stroke-linejoin="round" stroke-opacity="1.0" stroke-width="3.0" />
            <path d=" M 812.384, 841.678 817.053, 838.554 822.916, 834.630 823.226, 834.537 823.635, 834.414 823.720, 834.389 832.708, 831.694 836.328, 830.364 841.773, 827.339 849.503, 820.994 850.346, 820.302 854.574, 815.259 857.329, 812.464 860.266, 809.071 861.033, 807.115 861.918, 802.437 " fill="none" stroke="rgb(0, 0, 0)" stroke-linecap="butt" stroke-linejoin="round" stroke-opacity="1.0" stroke-width="3.0" />
            <path d=" M 476.591, 988.727 486.139, 987.903 488.633, 987.688 494.608, 986.839 499.607, 985.317 505.311, 983.523 515.190, 981.969 516.433, 981.774 526.326, 980.318 528.890, 979.940 536.504, 978.792 537.089, 978.000 537.133, 977.940 537.368, 977.623 538.256, 976.420 540.314, 973.635 " fill="none" stroke="rgb(0, 0, 0)" stroke-linecap="butt" stroke-linejoin="round" stroke-opacity="1.0" stroke-width="3.0" />
            <path d=" M 625.252, 566.268 625.563, 563.144 625.712, 563.083 626.184, 562.889 631.219, 560.823 635.111, 557.561 638.814, 552.933 642.350, 549.687 648.729, 544.525 649.197, 543.063 649.329, 538.692 646.394, 537.446 642.976, 536.524 634.068, 535.028 627.285, 535.947 624.200, 537.695 623.762, 537.943 623.429, 538.022 621.781, 538.414 621.667, 538.441 620.886, 538.627 620.421, 538.738 " fill="none" stroke="rgb(0, 0, 0)" stroke-linecap="butt" stroke-linejoin="round" stroke-opacity="1.0" stroke-width="3.0" />
            <path d=" M 835.524, 920.488 837.679, 920.780 839.665, 919.112 841.725, 917.278 845.068, 916.668 849.148, 917.005 853.593, 914.161 856.754, 911.470 860.148, 908.957 865.079, 901.047 869.023, 895.132 871.659, 890.234 873.465, 886.632 874.713, 883.146 877.902, 878.264 878.720, 871.830 879.258, 867.608 " fill="none" stroke="rgb(0, 0, 0)" stroke-linecap="butt" stroke-linejoin="round" stroke-opacity="1.0" stroke-width="3.0" />
            <path d=" M 633.781, 592.384 635.140, 589.058 635.529, 588.105 635.597, 587.940 636.350, 585.404 638.712, 579.588 639.368, 575.827 641.359, 574.879 645.701, 573.687 650.081, 570.739 650.985, 570.221 652.969, 569.288 654.919, 567.600 656.348, 566.722 656.741, 565.044 655.664, 564.001 654.445, 563.450 645.796, 562.758 636.769, 562.739 631.979, 564.696 627.755, 566.497 627.251, 566.486 625.393, 566.445 625.304, 566.443 625.239, 566.399 625.232, 566.395 625.126, 566.323 622.099, 564.284 " fill="none" stroke="rgb(0, 0, 0)" stroke-linecap="butt" stroke-linejoin="round" stroke-opacity="1.0" stroke-width="3.0" />
            <path d=" M 673.669, 781.741 664.604, 785.964 658.173, 788.959 649.075, 792.512 639.145, 793.696 637.923, 793.842 630.713, 794.428 622.612, 794.687 622.310, 794.664 618.047, 794.332 617.201, 794.266 616.923, 794.244 616.502, 794.211 615.818, 794.121 615.702, 794.106 614.337, 793.927 613.746, 793.827 612.805, 793.668 612.739, 793.657 608.060, 792.867 606.992, 792.686 600.384, 791.570 " fill="none" stroke="rgb(0, 0, 0)" stroke-linecap="butt" stroke-linejoin="round" stroke-opacity="1.0" stroke-width="3.0" />
            <path d=" M 356.942, 734.798 355.822, 740.895 355.672, 745.222 353.970, 752.382 352.718, 757.594 351.885, 761.981 351.486, 769.308 350.501, 773.116 349.735, 777.631 349.073, 781.878 347.688, 785.212 347.129, 787.691 346.678, 791.592 346.947, 793.152 344.997, 795.896 342.902, 802.683 342.033, 808.268 341.810, 810.244 341.930, 810.787 " fill="none" stroke="rgb(0, 0, 0)" stroke-linecap="butt" stroke-linejoin="round" stroke-opacity="1.0" stroke-width="3.0" />
            <path d=" M 656.245, 886.085 657.031, 890.486 657.310, 890.693 647.311, 890.847 642.715, 890.918 632.722, 890.548 632.144, 890.526 630.810, 890.029 629.650, 889.596 626.193, 888.306 620.936, 885.102 623.355, 881.795 624.294, 879.679 624.412, 879.414 624.570, 878.806 625.159, 877.839 626.730, 875.260 628.998, 872.992 633.758, 868.232 640.716, 862.256 644.436, 855.921 646.771, 851.873 648.477, 848.915 " fill="none" stroke="rgb(0, 0, 0)" stroke-linecap="butt" stroke-linejoin="round" stroke-opacity="1.0" stroke-width="3.0" />
            <path d=" M 658.713, 487.358 663.196, 485.816 668.947, 483.839 673.155, 482.477 674.065, 479.626 671.760, 478.441 668.616, 477.872 667.161, 477.607 663.650, 477.372 661.253, 477.545 657.017, 477.346 650.155, 477.118 641.316, 478.189 633.496, 478.548 624.128, 479.913 620.375, 480.523 617.180, 480.914 610.806, 482.278 605.676, 479.450 604.600, 477.840 604.449, 477.614 " fill="none" stroke="rgb(0, 0, 0)" stroke-linecap="butt" stroke-linejoin="round" stroke-opacity="1.0" stroke-width="3.0" />
            <path d=" M 878.581, 826.397 879.234, 821.387 880.253, 815.893 881.212, 810.207 883.157, 806.222 884.307, 799.256 884.218, 796.060 885.086, 792.105 886.743, 784.814 887.800, 779.920 889.324, 772.943 892.200, 763.883 894.878, 754.249 895.146, 753.283 897.567, 745.188 898.338, 740.616 898.844, 737.620 " fill="none" stroke="rgb(0, 0, 0)" stroke-linecap="butt" stroke-linejoin="round" stroke-opacity="1.0" stroke-width="3.0" />
            <path d=" M 657.310, 890.693 660.093, 890.983 667.681, 889.249 670.617, 888.153 671.005, 888.009 672.009, 887.634 672.034, 887.625 676.296, 886.034 679.474, 883.131 684.665, 877.385 692.412, 871.062 693.578, 870.110 696.574, 868.909 699.463, 867.936 702.539, 865.528 706.101, 863.710 708.615, 861.180 711.274, 857.588 718.208, 851.315 722.680, 848.013 731.870, 844.177 736.105, 843.321 737.036, 843.133 " fill="none" stroke="rgb(0, 0, 0)" stroke-linecap="butt" stroke-linejoin="round" stroke-opacity="1.0" stroke-width="3.0" />
            <path d=" M 579.876, 404.832 579.180, 405.334 574.455, 408.745 570.695, 410.674 566.963, 411.697 560.836, 414.862 556.810, 417.821 551.831, 422.260 549.738, 424.395 543.834, 428.624 539.193, 433.366 535.163, 437.458 528.057, 443.567 524.888, 446.286 522.295, 448.787 519.769, 451.878 519.200, 452.776 518.326, 454.154 515.952, 458.603 514.836, 460.694 512.490, 468.351 511.358, 474.510 " fill="none" stroke="rgb(0, 0, 0)" stroke-linecap="butt" stroke-linejoin="round" stroke-opacity="1.0" stroke-width="3.0" />
            <path d=" M 407.364, 1091.942 409.582, 1092.476 409.776, 1092.523 413.889, 1095.088 418.077, 1095.431 423.764, 1096.592 425.857, 1096.428 428.218, 1093.295 429.315, 1092.972 430.704, 1092.563 431.820, 1092.234 432.395, 1092.065 432.820, 1091.939 438.529, 1091.255 441.016, 1090.894 442.999, 1090.607 447.519, 1089.951 452.071, 1089.516 452.238, 1089.500 457.679, 1088.980 467.451, 1086.856 469.578, 1086.394 476.435, 1084.258 486.194, 1082.078 488.012, 1081.672 495.532, 1077.555 500.295, 1075.955 504.436, 1075.668 " fill="none" stroke="rgb(0, 0, 0)" stroke-linecap="butt" stroke-linejoin="round" stroke-opacity="1.0" stroke-width="3.0" />
            <path d=" M 629.523, 685.563 625.173, 685.061 624.829, 685.021 618.888, 684.335 617.869, 684.218 617.681, 684.196 615.314, 683.923 607.683, 683.884 601.456, 684.117 596.194, 684.315 586.286, 685.673 584.630, 685.900 579.244, 686.432 576.929, 686.661 568.639, 688.641 568.618, 688.646 568.597, 688.651 568.375, 688.704 562.822, 690.031 561.756, 690.360 561.753, 690.361 561.633, 690.398 561.527, 690.430 560.677, 690.693 560.117, 690.865 559.780, 690.969 559.753, 690.978 559.314, 691.113 559.108, 691.177 559.067, 691.189 558.976, 691.218 557.781, 691.586 557.742, 691.598 557.721, 691.605 557.668, 691.621 557.606, 691.640 551.869, 693.410 547.053, 694.822 546.215, 695.200 546.177, 695.217 541.983, 697.108 539.661, 698.156 535.485, 700.348 534.585, 700.821 529.232, 702.947 525.165, 704.676 " fill="none" stroke="rgb(0, 0, 0)" stroke-linecap="butt" stroke-linejoin="round" stroke-opacity="1.0" stroke-width="3.0" />
            <path d=" M 727.169, 961.544 725.467, 964.016 721.376, 968.098 717.359, 970.309 712.381, 971.584 709.278, 973.782 707.631, 977.409 706.909, 979.729 706.578, 981.482 707.778, 982.859 711.618, 986.474 719.526, 989.974 724.044, 990.777 727.535, 990.651 732.668, 989.900 738.726, 988.628 744.237, 986.586 747.957, 984.112 749.604, 982.862 751.689, 981.265 753.291, 979.631 756.498, 976.116 761.308, 970.026 765.513, 963.255 767.967, 957.145 " fill="none" stroke="rgb(0, 0, 0)" stroke-linecap="butt" stroke-linejoin="round" stroke-opacity="1.0" stroke-width="3.0" />
            <path d=" M 584.244, 1072.973 591.783, 1074.502 592.702, 1074.688 596.364, 1074.750 598.416, 1074.374 602.199, 1072.720 604.135, 1066.539 606.034, 1060.799 607.283, 1057.664 607.715, 1054.375 607.833, 1050.818 607.857, 1050.093 607.867, 1049.768 608.009, 1045.488 607.939, 1045.131 606.272, 1036.665 605.574, 1033.119 605.461, 1032.038 605.414, 1031.596 605.209, 1029.644 602.858, 1022.832 602.232, 1021.017 600.785, 1017.749 600.698, 1017.542 600.392, 1016.810 600.319, 1016.638 599.205, 1013.977 596.096, 1008.566 595.837, 1008.147 595.667, 1007.873 595.662, 1007.865 595.647, 1007.840 595.568, 1007.712 594.636, 1006.208 592.568, 1003.526 591.635, 1002.316 590.361, 1000.664 589.611, 998.537 589.578, 998.443 589.531, 998.310 588.401, 995.105 586.608, 992.855 584.063, 989.661 583.635, 988.116 583.415, 987.323 583.314, 986.957 583.224, 986.632 583.021, 985.900 " fill="none" stroke="rgb(0, 0, 0)" stroke-linecap="butt" stroke-linejoin="round" stroke-opacity="1.0" stroke-width="3.0" />
            <path d=" M 653.444, 1009.003 657.482, 1000.686 660.724, 991.226 661.038, 990.311 661.598, 987.368 663.378, 977.527 663.467, 977.036 663.913, 971.062 664.205, 961.066 664.218, 960.639 662.438, 952.536 658.642, 943.284 657.116, 939.565 654.726, 933.645 651.347, 924.234 649.270, 918.451 646.908, 915.566 642.676, 910.646 635.850, 905.533 634.906, 904.825 " fill="none" stroke="rgb(0, 0, 0)" stroke-linecap="butt" stroke-linejoin="round" stroke-opacity="1.0" stroke-width="3.0" />
            <path d=" M 861.169, 400.028 860.800, 399.682 856.915, 397.820 853.866, 396.360 845.838, 394.450 837.396, 393.499 830.753, 393.341 824.411, 393.997 821.011, 394.420 811.239, 396.545 810.828, 396.634 807.103, 398.607 804.258, 400.610 804.206, 402.300 805.362, 403.765 808.366, 404.849 810.064, 405.305 814.920, 406.130 822.715, 408.558 831.463, 412.782 835.938, 416.516 840.734, 420.081 847.266, 426.619 848.363, 427.975 852.335, 430.879 856.605, 435.515 856.749, 435.671 " fill="none" stroke="rgb(0, 0, 0)" stroke-linecap="butt" stroke-linejoin="round" stroke-opacity="1.0" stroke-width="3.0" />
            <path d=" M 458.152, 568.863 456.861, 569.514 454.421, 570.746 448.613, 574.884 447.573, 577.030 445.303, 578.626 443.249, 580.895 438.162, 586.131 435.337, 588.973 433.639, 590.349 431.384, 594.587 429.430, 596.728 426.142, 601.257 422.245, 606.985 419.685, 609.731 414.911, 615.136 413.117, 618.781 410.558, 622.741 409.684, 626.845 407.876, 629.568 404.873, 636.998 403.203, 640.243 403.436, 645.061 402.857, 646.721 401.463, 650.714 399.360, 655.891 397.521, 659.169 396.556, 661.301 396.100, 664.438 395.274, 667.983 396.964, 671.286 " fill="none" stroke="rgb(0, 0, 0)" stroke-linecap="butt" stroke-linejoin="round" stroke-opacity="1.0" stroke-width="3.0" />
            <path d=" M 869.280, 685.468 872.182, 675.899 872.520, 674.786 874.670, 670.798 875.826, 667.010 877.317, 657.470 879.842, 648.836 880.169, 647.647 880.448, 646.632 882.481, 639.235 883.895, 634.131 886.728, 625.917 889.470, 616.800 890.117, 614.318 891.739, 608.707 894.281, 599.035 895.700, 593.638 897.372, 583.779 897.398, 583.623 899.940, 573.952 900.762, 570.826 901.421, 567.477 902.553, 559.006 902.777, 557.329 " fill="none" stroke="rgb(0, 0, 0)" stroke-linecap="butt" stroke-linejoin="round" stroke-opacity="1.0" stroke-width="3.0" />
            <path d=" M 589.689, 927.212 589.742, 927.141 591.184, 925.180 591.870, 924.249 595.131, 919.819 597.830, 915.185 599.042, 913.729 599.216, 913.519 600.046, 912.523 602.074, 910.799 602.724, 910.247 604.114, 907.754 606.584, 902.335 607.404, 897.810 606.411, 891.853 605.929, 888.963 601.568, 879.964 600.694, 878.161 599.423, 873.104 598.555, 869.650 596.547, 866.125 590.783, 857.953 589.930, 856.745 585.316, 852.715 582.154, 850.086 581.713, 849.719 580.384, 848.615 579.271, 847.883 579.230, 847.856 577.330, 846.608 574.811, 844.952 572.642, 843.526 572.252, 843.246 565.113, 838.111 565.089, 838.094 562.917, 836.532 561.137, 835.251 552.707, 830.171 543.722, 825.782 542.785, 825.325 542.644, 825.256 542.292, 825.080 541.416, 824.642 541.230, 824.550 539.493, 823.682 539.488, 823.679 539.481, 823.675 539.360, 823.615 535.639, 821.756 " fill="none" stroke="rgb(0, 0, 0)" stroke-linecap="butt" stroke-linejoin="round" stroke-opacity="1.0" stroke-width="3.0" />
            <path d=" M 611.405, 795.718 607.825, 794.370 606.602, 793.910 603.360, 792.689 600.384, 791.570 591.092, 789.382 587.069, 787.059 585.786, 786.317 582.714, 784.607 578.606, 782.320 578.428, 782.221 578.276, 782.137 575.594, 780.643 567.534, 778.585 559.823, 779.756 554.858, 784.948 554.151, 785.688 552.094, 789.903 549.436, 799.544 549.253, 800.209 549.289, 806.026 552.569, 815.473 552.884, 816.381 555.946, 820.601 559.135, 824.998 561.755, 827.939 563.893, 829.820 565.841, 831.533 571.392, 834.924 580.323, 839.422 581.219, 839.874 581.246, 839.887 582.029, 839.994 583.930, 840.252 583.933, 840.253 584.096, 840.275 587.990, 840.804 593.836, 841.623 601.519, 842.698 " fill="none" stroke="rgb(0, 0, 0)" stroke-linecap="butt" stroke-linejoin="round" stroke-opacity="1.0" stroke-width="3.0" />
            <path d=" M 336.177, 830.235 335.757, 830.774 333.885, 833.175 332.803, 837.058 332.317, 841.647 331.239, 843.214 329.548, 846.325 327.847, 852.609 326.951, 853.966 326.283, 858.635 324.419, 862.948 322.461, 869.980 321.516, 872.558 320.487, 880.740 318.533, 885.735 317.523, 890.803 317.520, 900.803 317.520, 901.596 316.931, 906.726 317.571, 910.116 316.909, 914.660 318.165, 924.581 318.276, 925.455 320.687, 935.160 321.024, 936.519 321.988, 942.813 322.496, 946.820 324.465, 954.399 326.742, 960.758 329.156, 966.788 331.115, 970.781 332.640, 975.132 335.220, 979.899 336.675, 985.696 339.015, 989.739 343.633, 994.181 348.253, 999.042 352.804, 1005.274 " fill="none" stroke="rgb(0, 0, 0)" stroke-linecap="butt" stroke-linejoin="round" stroke-opacity="1.0" stroke-width="3.0" />
            <path d=" M 401.305, 775.928 403.582, 783.217 405.045, 787.135 408.629, 796.471 409.472, 798.668 413.675, 807.742 414.078, 808.611 417.144, 818.129 417.438, 819.040 418.019, 824.163 420.013, 833.963 420.093, 834.357 421.481, 844.259 422.309, 849.775 422.415, 850.476 422.675, 852.188 423.382, 856.847 423.683, 860.728 423.136, 865.596 422.861, 871.033 422.181, 876.229 421.565, 884.751 421.031, 894.737 421.016, 895.020 419.695, 899.466 419.667, 899.559 419.550, 900.869 418.979, 907.247 418.732, 908.175 418.142, 910.389 417.193, 920.344 417.042, 921.936 416.580, 924.565 416.165, 926.925 416.298, 934.763 419.211, 943.337 420.876, 948.978 422.317, 958.874 422.508, 960.187 424.295, 962.341 424.941, 963.120 425.066, 963.271 425.069, 963.275 425.347, 963.609 426.378, 964.853 " fill="none" stroke="rgb(0, 0, 0)" stroke-linecap="butt" stroke-linejoin="round" stroke-opacity="1.0" stroke-width="3.0" />
            <path d=" M 898.338, 740.616 900.012, 736.064 901.262, 729.464 902.740, 724.365 904.687, 717.167 906.852, 707.606 907.521, 700.247 908.184, 696.172 910.301, 686.398 910.588, 685.075 910.954, 680.759 912.802, 670.832 915.913, 661.328 916.399, 659.843 917.131, 655.600 919.364, 646.876 922.212, 637.422 923.554, 632.345 924.866, 624.529 926.498, 616.407 928.214, 608.145 929.821, 598.203 930.240, 590.947 931.686, 583.430 933.594, 573.614 934.184, 570.581 935.570, 560.678 936.021, 557.458 937.231, 551.771 936.812, 545.322 937.050, 536.078 937.663, 532.623 937.234, 529.785 936.677, 519.793 936.082, 512.186 935.460, 510.751 935.122, 509.969 " fill="none" stroke="rgb(0, 0, 0)" stroke-linecap="butt" stroke-linejoin="round" stroke-opacity="1.0" stroke-width="3.0" />
        </g>
    </g>
</svg>
