<?xml version='1.0' encoding='ascii'?>
<svg xmlns="http://www.w3.org/2000/svg" height="1280" version="1.1" width="1280">
    <g id="RenderLayer_LineSet" inkscape:groupmode="lineset" inkscape:label="RenderLayer_LineSet" xmlns:inkscape="http://www.inkscape.org/namespaces/inkscape">
        <g id="strokes" inkscape:groupmode="layer" inkscape:label="strokes" xmlns:inkscape="http://www.inkscape.org/namespaces/inkscape">
            <path d=" M 879.978, 512.917 879.969, 512.915 879.340, 512.727 879.333, 512.725 871.918, 510.519 870.156, 510.084 866.093, 509.082 860.496, 509.665 " fill="none" stroke="rgb(0, 0, 0)" stroke-linecap="butt" stroke-linejoin="round" stroke-opacity="1.0" stroke-width="3.0" />
            <path d=" M 680.991, 849.831 677.761, 853.124 674.509, 856.439 668.464, 862.276 666.663, 864.015 " fill="none" stroke="rgb(0, 0, 0)" stroke-linecap="butt" stroke-linejoin="round" stroke-opacity="1.0" stroke-width="3.0" />
            <path d=" M 427.337, 912.102 436.308, 916.519 445.280, 920.937 445.468, 921.029 " fill="none" stroke="rgb(0, 0, 0)" stroke-linecap="butt" stroke-linejoin="round" stroke-opacity="1.0" stroke-width="3.0" />
            <path d=" M 844.847, 517.140 844.676, 517.198 843.329, 517.656 842.987, 517.772 842.100, 518.074 841.999, 518.108 841.872, 518.152 841.811, 518.172 840.154, 518.735 838.208, 519.397 837.284, 519.827 835.677, 520.574 833.596, 521.301 832.472, 521.694 832.263, 521.767 829.950, 522.575 829.502, 522.731 828.645, 523.031 825.819, 524.018 " fill="none" stroke="rgb(0, 0, 0)" stroke-linecap="butt" stroke-linejoin="round" stroke-opacity="1.0" stroke-width="3.0" />
            <path d=" M 596.511, 611.637 596.594, 610.934 596.776, 609.392 597.113, 605.997 597.171, 605.416 595.970, 604.883 595.092, 604.494 594.961, 604.436 594.495, 604.266 594.393, 604.229 593.443, 603.884 590.208, 602.709 588.286, 602.519 588.162, 602.521 588.152, 602.521 587.969, 602.523 587.955, 602.523 587.869, 602.524 585.736, 602.546 584.186, 602.908 583.682, 603.079 " fill="none" stroke="rgb(0, 0, 0)" stroke-linecap="butt" stroke-linejoin="round" stroke-opacity="1.0" stroke-width="3.0" />
            <path d=" M 465.642, 657.697 458.415, 655.869 457.971, 655.757 457.146, 655.381 456.374, 655.029 453.068, 653.520 452.798, 653.397 452.778, 653.388 450.398, 651.216 453.068, 653.520 " fill="none" stroke="rgb(0, 0, 0)" stroke-linecap="butt" stroke-linejoin="round" stroke-opacity="1.0" stroke-width="3.0" />
            <path d=" M 531.760, 983.397 541.083, 979.780 541.189, 979.739 547.489, 977.225 548.391, 975.386 547.888, 973.957 " fill="none" stroke="rgb(0, 0, 0)" stroke-linecap="butt" stroke-linejoin="round" stroke-opacity="1.0" stroke-width="3.0" />
            <path d=" M 627.165, 777.245 628.655, 780.145 629.988, 781.773 633.008, 785.457 636.082, 787.246 636.582, 787.538 637.286, 787.947 638.701, 789.805 639.293, 791.716 639.620, 792.772 " fill="none" stroke="rgb(0, 0, 0)" stroke-linecap="butt" stroke-linejoin="round" stroke-opacity="1.0" stroke-width="3.0" />
            <path d=" M 311.623, 884.975 311.454, 882.961 310.854, 875.802 311.832, 880.669 311.906, 881.042 313.063, 885.680 313.353, 886.846 " fill="none" stroke="rgb(0, 0, 0)" stroke-linecap="butt" stroke-linejoin="round" stroke-opacity="1.0" stroke-width="3.0" />
            <path d=" M 817.439, 656.173 816.026, 656.758 814.259, 657.489 811.092, 658.798 809.447, 659.342 808.214, 661.457 809.210, 664.226 810.025, 665.084 812.680, 667.261 814.452, 668.243 " fill="none" stroke="rgb(0, 0, 0)" stroke-linecap="butt" stroke-linejoin="round" stroke-opacity="1.0" stroke-width="3.0" />
            <path d=" M 320.291, 807.410 318.477, 811.742 317.671, 813.665 314.743, 819.238 313.101, 826.632 313.082, 826.729 " fill="none" stroke="rgb(0, 0, 0)" stroke-linecap="butt" stroke-linejoin="round" stroke-opacity="1.0" stroke-width="3.0" />
            <path d=" M 571.278, 929.074 570.943, 927.122 570.627, 925.281 569.944, 921.301 571.028, 914.481 571.410, 912.077 572.498, 910.779 573.133, 910.022 573.161, 909.989 573.818, 909.205 " fill="none" stroke="rgb(0, 0, 0)" stroke-linecap="butt" stroke-linejoin="round" stroke-opacity="1.0" stroke-width="3.0" />
            <path d=" M 554.305, 833.523 554.411, 833.458 554.911, 833.151 555.000, 833.096 555.009, 833.090 555.198, 832.974 555.412, 832.842 556.347, 832.268 564.500, 827.255 568.842, 821.437 569.385, 820.710 570.088, 819.767 570.255, 819.544 " fill="none" stroke="rgb(0, 0, 0)" stroke-linecap="butt" stroke-linejoin="round" stroke-opacity="1.0" stroke-width="3.0" />
            <path d=" M 591.986, 605.651 591.604, 605.392 589.792, 604.163 589.756, 604.139 589.257, 604.015 588.235, 603.763 588.183, 603.750 587.539, 603.592 587.511, 603.585 587.045, 603.470 586.999, 603.458 586.979, 603.453 584.606, 602.868 584.532, 602.850 584.389, 602.888 584.054, 602.979 583.682, 603.079 582.879, 603.295 581.978, 603.537 581.879, 603.564 581.186, 603.750 581.186, 603.750 581.095, 603.774 580.514, 603.840 580.436, 603.849 579.611, 603.943 578.231, 604.100 577.803, 604.149 576.929, 603.654 576.437, 603.376 576.381, 603.185 576.175, 602.487 576.146, 602.389 575.693, 600.857 574.815, 600.568 573.112, 600.008 " fill="none" stroke="rgb(0, 0, 0)" stroke-linecap="butt" stroke-linejoin="round" stroke-opacity="1.0" stroke-width="3.0" />
            <path d=" M 867.168, 510.281 865.436, 510.338 857.352, 510.603 857.219, 510.607 856.304, 510.637 855.543, 510.662 849.114, 512.606 847.819, 512.998 849.875, 512.229 " fill="none" stroke="rgb(0, 0, 0)" stroke-linecap="butt" stroke-linejoin="round" stroke-opacity="1.0" stroke-width="3.0" />
            <path d=" M 641.655, 761.846 640.059, 760.265 639.320, 759.213 638.155, 758.257 635.421, 758.984 632.799, 759.837 631.505, 760.343 629.383, 761.174 626.343, 763.201 623.670, 765.934 623.571, 766.035 623.556, 766.050 623.554, 766.052 " fill="none" stroke="rgb(0, 0, 0)" stroke-linecap="butt" stroke-linejoin="round" stroke-opacity="1.0" stroke-width="3.0" />
            <path d=" M 667.277, 734.283 668.155, 731.638 671.653, 726.612 671.869, 725.989 672.064, 723.570 671.342, 722.266 669.331, 721.481 668.893, 721.455 663.228, 721.275 662.833, 721.263 " fill="none" stroke="rgb(0, 0, 0)" stroke-linecap="butt" stroke-linejoin="round" stroke-opacity="1.0" stroke-width="3.0" />
            <path d=" M 538.379, 787.732 538.613, 787.096 538.646, 787.007 538.689, 786.891 538.729, 786.782 540.188, 782.812 543.561, 779.299 542.924, 777.648 539.340, 776.488 539.241, 776.456 539.169, 776.432 538.847, 776.328 537.871, 774.739 537.808, 774.637 535.698, 771.201 " fill="none" stroke="rgb(0, 0, 0)" stroke-linecap="butt" stroke-linejoin="round" stroke-opacity="1.0" stroke-width="3.0" />
            <path d=" M 564.350, 601.715 563.756, 601.812 558.423, 602.678 556.720, 602.565 554.686, 602.674 549.565, 602.949 542.560, 605.093 " fill="none" stroke="rgb(0, 0, 0)" stroke-linecap="butt" stroke-linejoin="round" stroke-opacity="1.0" stroke-width="3.0" />
            <path d=" M 841.927, 644.141 846.639, 642.192 851.660, 636.869 851.612, 632.317 851.611, 632.250 851.610, 632.132 851.594, 630.628 851.722, 629.953 851.802, 629.527 851.845, 629.298 851.719, 628.928 851.131, 627.201 " fill="none" stroke="rgb(0, 0, 0)" stroke-linecap="butt" stroke-linejoin="round" stroke-opacity="1.0" stroke-width="3.0" />
            <path d=" M 864.370, 509.682 860.496, 509.665 860.381, 509.664 856.664, 510.060 856.451, 510.082 855.320, 510.202 854.301, 510.311 847.098, 513.126 847.093, 513.128 845.529, 513.739 844.977, 513.955 843.677, 514.675 842.739, 515.193 " fill="none" stroke="rgb(0, 0, 0)" stroke-linecap="butt" stroke-linejoin="round" stroke-opacity="1.0" stroke-width="3.0" />
            <path d=" M 582.174, 875.998 581.526, 875.497 580.644, 874.816 578.475, 873.140 575.790, 871.066 574.755, 870.266 573.414, 869.230 573.401, 869.220 572.585, 868.590 573.338, 869.237 573.356, 869.252 574.918, 870.594 575.647, 871.221 575.764, 871.322 576.395, 871.864 579.057, 874.152 580.497, 875.641 " fill="none" stroke="rgb(0, 0, 0)" stroke-linecap="butt" stroke-linejoin="round" stroke-opacity="1.0" stroke-width="3.0" />
            <path d=" M 688.232, 636.849 687.590, 636.686 687.489, 636.660 687.361, 636.627 681.902, 635.237 679.762, 634.693 677.550, 634.477 672.103, 633.946 668.408, 633.063 665.893, 632.461 " fill="none" stroke="rgb(0, 0, 0)" stroke-linecap="butt" stroke-linejoin="round" stroke-opacity="1.0" stroke-width="3.0" />
            <path d=" M 845.800, 606.938 847.206, 601.017 847.315, 600.397 847.358, 600.152 847.908, 597.009 847.943, 596.811 847.943, 596.807 847.950, 596.768 847.959, 596.719 848.044, 596.234 848.109, 596.061 849.302, 592.921 849.813, 591.575 850.032, 590.236 850.142, 589.566 850.172, 589.383 850.253, 588.890 850.258, 588.859 850.306, 588.565 850.318, 588.491 850.425, 587.834 850.480, 587.503 850.948, 584.643 " fill="none" stroke="rgb(0, 0, 0)" stroke-linecap="butt" stroke-linejoin="round" stroke-opacity="1.0" stroke-width="3.0" />
            <path d=" M 374.547, 735.067 373.469, 736.732 373.264, 737.048 372.174, 738.732 372.158, 738.757 371.979, 738.902 371.967, 738.911 371.356, 739.406 370.500, 740.097 370.182, 740.354 369.978, 740.520 363.821, 745.497 361.774, 750.636 360.412, 752.649 " fill="none" stroke="rgb(0, 0, 0)" stroke-linecap="butt" stroke-linejoin="round" stroke-opacity="1.0" stroke-width="3.0" />
            <path d=" M 795.479, 553.956 793.400, 555.382 793.352, 555.415 791.291, 556.828 789.755, 557.881 789.130, 558.310 788.568, 558.695 788.131, 558.995 787.565, 559.383 786.909, 559.752 780.593, 563.303 780.276, 563.481 776.570, 565.565 776.509, 565.619 776.409, 565.707 775.965, 566.099 775.851, 566.201 775.845, 566.206 " fill="none" stroke="rgb(0, 0, 0)" stroke-linecap="butt" stroke-linejoin="round" stroke-opacity="1.0" stroke-width="3.0" />
            <path d=" M 309.582, 840.319 310.024, 846.680 310.080, 847.485 310.198, 849.186 309.986, 857.626 309.967, 858.366 309.837, 863.540 " fill="none" stroke="rgb(0, 0, 0)" stroke-linecap="butt" stroke-linejoin="round" stroke-opacity="1.0" stroke-width="3.0" />
            <path d=" M 620.640, 867.312 617.056, 867.278 617.020, 867.277 615.626, 867.264 614.147, 867.250 613.533, 867.245 610.884, 867.220 605.789, 867.172 602.253, 867.495 597.229, 867.955 " fill="none" stroke="rgb(0, 0, 0)" stroke-linecap="butt" stroke-linejoin="round" stroke-opacity="1.0" stroke-width="3.0" />
            <path d=" M 385.113, 735.534 382.190, 738.316 374.277, 742.952 366.216, 748.870 365.925, 749.084 " fill="none" stroke="rgb(0, 0, 0)" stroke-linecap="butt" stroke-linejoin="round" stroke-opacity="1.0" stroke-width="3.0" />
            <path d=" M 777.653, 563.123 776.793, 563.000 776.718, 562.989 774.431, 562.662 774.392, 562.656 772.618, 562.426 772.040, 562.350 770.409, 562.138 767.546, 561.765 766.816, 561.670 762.968, 563.121 760.994, 565.611 758.783, 569.294 758.349, 570.342 " fill="none" stroke="rgb(0, 0, 0)" stroke-linecap="butt" stroke-linejoin="round" stroke-opacity="1.0" stroke-width="3.0" />
            <path d=" M 785.226, 550.085 782.924, 550.007 781.676, 550.263 781.475, 550.304 778.812, 550.849 777.053, 551.728 776.467, 552.021 776.442, 552.033 774.791, 552.859 771.270, 554.619 769.910, 555.306 768.288, 556.767 767.698, 558.333 767.546, 561.765 " fill="none" stroke="rgb(0, 0, 0)" stroke-linecap="butt" stroke-linejoin="round" stroke-opacity="1.0" stroke-width="3.0" />
            <path d=" M 884.323, 779.830 885.048, 778.368 887.452, 772.613 889.531, 766.962 889.491, 764.837 889.346, 757.087 " fill="none" stroke="rgb(0, 0, 0)" stroke-linecap="butt" stroke-linejoin="round" stroke-opacity="1.0" stroke-width="3.0" />
            <path d=" M 778.251, 808.022 778.085, 810.578 778.079, 810.672 778.002, 811.854 777.996, 811.952 777.899, 813.428 777.897, 813.460 777.871, 813.872 777.722, 816.147 776.114, 822.789 772.622, 830.905 772.592, 830.973 " fill="none" stroke="rgb(0, 0, 0)" stroke-linecap="butt" stroke-linejoin="round" stroke-opacity="1.0" stroke-width="3.0" />
            <path d=" M 780.160, 630.947 775.143, 634.634 768.347, 639.629 759.336, 642.182 " fill="none" stroke="rgb(0, 0, 0)" stroke-linecap="butt" stroke-linejoin="round" stroke-opacity="1.0" stroke-width="3.0" />
            <path d=" M 603.471, 818.122 607.822, 814.216 611.794, 812.103 613.056, 811.432 618.852, 808.243 619.877, 805.223 619.420, 804.632 619.213, 804.654 617.700, 804.812 " fill="none" stroke="rgb(0, 0, 0)" stroke-linecap="butt" stroke-linejoin="round" stroke-opacity="1.0" stroke-width="3.0" />
            <path d=" M 594.942, 866.936 587.604, 865.151 587.112, 865.031 585.593, 864.162 584.943, 863.790 584.499, 863.536 579.411, 860.625 575.845, 856.988 575.777, 856.919 574.302, 855.416 " fill="none" stroke="rgb(0, 0, 0)" stroke-linecap="butt" stroke-linejoin="round" stroke-opacity="1.0" stroke-width="3.0" />
            <path d=" M 534.044, 846.999 533.075, 845.758 528.935, 840.894 527.779, 838.510 527.286, 837.493 527.194, 837.135 527.167, 837.028 526.886, 835.932 525.660, 831.150 525.562, 825.179 " fill="none" stroke="rgb(0, 0, 0)" stroke-linecap="butt" stroke-linejoin="round" stroke-opacity="1.0" stroke-width="3.0" />
            <path d=" M 584.943, 863.790 584.503, 863.448 579.282, 859.384 572.591, 851.951 572.167, 851.480 574.589, 855.067 575.845, 856.988 " fill="none" stroke="rgb(0, 0, 0)" stroke-linecap="butt" stroke-linejoin="round" stroke-opacity="1.0" stroke-width="3.0" />
            <path d=" M 656.668, 789.808 658.604, 788.630 659.182, 788.279 659.244, 788.227 661.090, 786.671 662.216, 784.787 662.405, 782.442 662.900, 780.527 662.519, 779.654 662.025, 778.521 661.419, 777.130 659.519, 775.761 658.744, 775.312 657.534, 774.612 655.446, 773.404 655.066, 773.184 654.795, 773.028 654.764, 773.010 653.902, 772.511 " fill="none" stroke="rgb(0, 0, 0)" stroke-linecap="butt" stroke-linejoin="round" stroke-opacity="1.0" stroke-width="3.0" />
            <path d=" M 478.583, 859.254 478.483, 860.400 478.483, 860.408 478.097, 864.846 477.585, 870.754 477.315, 871.576 477.310, 871.591 476.933, 872.738 476.906, 872.818 476.545, 873.918 476.537, 873.941 476.323, 874.594 473.508, 883.161 " fill="none" stroke="rgb(0, 0, 0)" stroke-linecap="butt" stroke-linejoin="round" stroke-opacity="1.0" stroke-width="3.0" />
            <path d=" M 658.562, 633.527 655.733, 635.526 655.255, 635.864 655.150, 635.938 654.979, 636.059 654.444, 636.437 653.687, 636.971 646.972, 637.741 644.125, 638.067 642.628, 638.239 634.681, 637.787 " fill="none" stroke="rgb(0, 0, 0)" stroke-linecap="butt" stroke-linejoin="round" stroke-opacity="1.0" stroke-width="3.0" />
            <path d=" M 649.410, 995.257 650.319, 994.492 650.488, 994.350 652.741, 992.452 655.129, 989.121 657.561, 986.468 657.692, 986.118 658.334, 984.399 660.058, 977.575 660.009, 977.516 658.488, 975.688 658.464, 975.660 658.443, 975.635 658.344, 975.515 658.297, 975.460 657.895, 974.976 657.894, 974.975 657.559, 974.572 657.536, 974.545 " fill="none" stroke="rgb(0, 0, 0)" stroke-linecap="butt" stroke-linejoin="round" stroke-opacity="1.0" stroke-width="3.0" />
            <path d=" M 528.465, 959.655 527.047, 956.728 522.688, 947.728 521.857, 946.013 516.965, 939.410 516.110, 937.532 " fill="none" stroke="rgb(0, 0, 0)" stroke-linecap="butt" stroke-linejoin="round" stroke-opacity="1.0" stroke-width="3.0" />
            <path d=" M 718.814, 847.974 712.291, 855.553 707.782, 860.791 701.218, 866.368 " fill="none" stroke="rgb(0, 0, 0)" stroke-linecap="butt" stroke-linejoin="round" stroke-opacity="1.0" stroke-width="3.0" />
            <path d=" M 357.315, 1005.517 356.121, 1004.533 355.723, 1004.204 355.703, 1004.188 355.256, 1003.819 354.409, 1003.121 354.191, 1002.941 354.088, 1002.856 353.827, 1002.640 352.537, 1001.577 348.729, 998.290 345.543, 995.666 343.276, 993.798 347.215, 999.897 " fill="none" stroke="rgb(0, 0, 0)" stroke-linecap="butt" stroke-linejoin="round" stroke-opacity="1.0" stroke-width="3.0" />
            <path d=" M 411.994, 718.245 411.043, 718.777 406.892, 720.337 403.422, 722.156 399.578, 723.911 396.749, 725.743 393.393, 727.518 391.299, 727.701 388.678, 728.098 " fill="none" stroke="rgb(0, 0, 0)" stroke-linecap="butt" stroke-linejoin="round" stroke-opacity="1.0" stroke-width="3.0" />
            <path d=" M 545.773, 613.442 545.514, 612.927 545.508, 612.916 545.473, 612.846 545.278, 612.459 545.194, 612.293 545.119, 612.144 544.320, 610.557 543.649, 609.955 543.271, 609.616 541.007, 607.587 540.718, 607.327 540.652, 607.269 540.471, 607.160 540.455, 607.151 540.171, 606.981 538.985, 606.273 535.189, 605.424 533.307, 605.392 528.202, 606.249 527.279, 606.537 523.720, 607.649 " fill="none" stroke="rgb(0, 0, 0)" stroke-linecap="butt" stroke-linejoin="round" stroke-opacity="1.0" stroke-width="3.0" />
            <path d=" M 577.533, 1060.012 578.093, 1060.889 583.001, 1064.121 585.376, 1064.335 593.694, 1062.871 596.641, 1061.851 598.922, 1058.402 598.926, 1057.273 " fill="none" stroke="rgb(0, 0, 0)" stroke-linecap="butt" stroke-linejoin="round" stroke-opacity="1.0" stroke-width="3.0" />
            <path d=" M 637.547, 856.453 638.347, 854.663 640.112, 850.712 640.158, 850.610 642.160, 847.940 642.255, 847.813 642.401, 847.618 643.831, 845.711 646.453, 843.088 648.151, 838.609 647.775, 835.101 647.683, 834.390 647.570, 833.527 647.568, 833.510 " fill="none" stroke="rgb(0, 0, 0)" stroke-linecap="butt" stroke-linejoin="round" stroke-opacity="1.0" stroke-width="3.0" />
            <path d=" M 903.077, 668.479 903.946, 665.164 904.236, 660.647 905.325, 656.380 906.445, 651.319 906.835, 647.042 906.998, 645.255 907.135, 643.758 907.228, 642.735 " fill="none" stroke="rgb(0, 0, 0)" stroke-linecap="butt" stroke-linejoin="round" stroke-opacity="1.0" stroke-width="3.0" />
            <path d=" M 317.376, 908.336 319.969, 910.818 320.051, 915.653 320.437, 917.863 322.118, 923.230 321.517, 928.252 322.308, 929.195 322.902, 931.554 323.051, 933.042 " fill="none" stroke="rgb(0, 0, 0)" stroke-linecap="butt" stroke-linejoin="round" stroke-opacity="1.0" stroke-width="3.0" />
            <path d=" M 546.375, 974.363 543.029, 971.687 542.496, 970.936 540.671, 968.362 540.420, 968.008 539.561, 966.796 531.161, 961.369 530.189, 960.741 527.047, 956.728 " fill="none" stroke="rgb(0, 0, 0)" stroke-linecap="butt" stroke-linejoin="round" stroke-opacity="1.0" stroke-width="3.0" />
            <path d=" M 796.447, 537.175 794.865, 537.045 794.696, 537.031 790.952, 537.363 790.480, 537.608 785.942, 539.960 781.996, 544.566 781.271, 545.413 776.731, 549.763 776.304, 551.735 776.313, 551.753 " fill="none" stroke="rgb(0, 0, 0)" stroke-linecap="butt" stroke-linejoin="round" stroke-opacity="1.0" stroke-width="3.0" />
            <path d=" M 352.251, 1007.244 353.554, 1008.504 355.896, 1010.769 358.791, 1016.438 363.960, 1021.388 367.796, 1023.723 370.570, 1023.219 371.152, 1022.511 371.225, 1022.447 " fill="none" stroke="rgb(0, 0, 0)" stroke-linecap="butt" stroke-linejoin="round" stroke-opacity="1.0" stroke-width="3.0" />
            <path d=" M 350.434, 975.853 350.768, 977.850 350.438, 983.556 350.975, 985.319 351.559, 987.234 351.570, 987.269 352.002, 988.687 352.810, 990.408 355.232, 993.820 357.692, 995.990 357.776, 996.064 358.828, 996.991 358.828, 996.991 359.069, 997.203 359.195, 997.314 359.552, 997.629 361.029, 998.932 " fill="none" stroke="rgb(0, 0, 0)" stroke-linecap="butt" stroke-linejoin="round" stroke-opacity="1.0" stroke-width="3.0" />
            <path d=" M 820.063, 678.380 814.421, 678.116 812.969, 678.481 805.322, 680.405 804.243, 680.754 800.001, 682.415 799.665, 684.608 800.833, 687.701 801.263, 688.222 " fill="none" stroke="rgb(0, 0, 0)" stroke-linecap="butt" stroke-linejoin="round" stroke-opacity="1.0" stroke-width="3.0" />
            <path d=" M 366.940, 714.412 366.518, 714.835 364.413, 719.702 364.140, 721.405 363.634, 722.693 363.313, 723.691 363.898, 726.877 365.107, 731.232 365.412, 731.875 368.472, 736.828 370.429, 738.577 " fill="none" stroke="rgb(0, 0, 0)" stroke-linecap="butt" stroke-linejoin="round" stroke-opacity="1.0" stroke-width="3.0" />
            <path d=" M 596.594, 610.934 597.945, 608.178 597.998, 607.875 597.999, 607.874 598.278, 606.276 598.450, 605.298 598.465, 605.207 598.490, 605.069 598.501, 605.002 598.508, 604.962 598.854, 602.989 597.906, 602.047 597.641, 601.782 597.523, 601.732 596.608, 601.342 595.810, 601.002 595.708, 600.958 595.274, 600.773 594.210, 600.319 593.431, 600.012 593.117, 599.889 593.026, 599.853 591.604, 599.294 591.004, 599.209 589.655, 599.020 582.335, 601.505 582.212, 601.547 581.551, 601.771 " fill="none" stroke="rgb(0, 0, 0)" stroke-linecap="butt" stroke-linejoin="round" stroke-opacity="1.0" stroke-width="3.0" />
            <path d=" M 711.648, 859.435 703.559, 865.315 703.011, 865.713 702.242, 865.994 701.218, 866.368 698.562, 867.337 693.051, 867.457 688.945, 866.551 688.660, 866.488 688.120, 866.369 688.043, 866.352 687.783, 866.294 686.576, 866.028 " fill="none" stroke="rgb(0, 0, 0)" stroke-linecap="butt" stroke-linejoin="round" stroke-opacity="1.0" stroke-width="3.0" />
            <path d=" M 740.704, 803.115 737.653, 812.639 737.474, 813.198 734.087, 820.371 729.758, 828.649 " fill="none" stroke="rgb(0, 0, 0)" stroke-linecap="butt" stroke-linejoin="round" stroke-opacity="1.0" stroke-width="3.0" />
            <path d=" M 451.263, 646.781 450.773, 644.623 449.881, 639.074 448.259, 636.457 445.789, 633.126 445.447, 632.664 444.873, 627.274 444.244, 625.936 444.227, 622.521 444.227, 622.475 446.046, 620.577 " fill="none" stroke="rgb(0, 0, 0)" stroke-linecap="butt" stroke-linejoin="round" stroke-opacity="1.0" stroke-width="3.0" />
            <path d=" M 524.982, 608.382 523.720, 607.649 520.073, 605.527 517.205, 604.167 515.731, 603.469 515.261, 603.417 513.921, 603.272 512.717, 603.141 511.186, 602.974 509.612, 602.500 508.298, 602.104 506.948, 601.698 499.099, 596.910 " fill="none" stroke="rgb(0, 0, 0)" stroke-linecap="butt" stroke-linejoin="round" stroke-opacity="1.0" stroke-width="3.0" />
            <path d=" M 790.211, 723.515 793.186, 719.346 793.916, 718.721 801.312, 712.723 801.931, 712.221 802.434, 711.099 802.460, 711.041 803.753, 708.158 804.154, 707.265 804.162, 707.247 804.176, 707.216 805.859, 703.463 805.981, 703.189 806.101, 702.922 806.292, 702.496 806.356, 702.353 806.250, 702.481 805.939, 702.857 805.599, 703.269 805.296, 703.635 " fill="none" stroke="rgb(0, 0, 0)" stroke-linecap="butt" stroke-linejoin="round" stroke-opacity="1.0" stroke-width="3.0" />
            <path d=" M 516.039, 1033.705 520.057, 1031.183 520.194, 1031.096 520.289, 1031.037 520.623, 1030.887 526.571, 1028.212 534.139, 1023.535 540.655, 1018.755 " fill="none" stroke="rgb(0, 0, 0)" stroke-linecap="butt" stroke-linejoin="round" stroke-opacity="1.0" stroke-width="3.0" />
            <path d=" M 615.655, 786.643 615.166, 786.770 614.949, 786.826 614.849, 786.852 614.728, 786.883 614.419, 786.963 614.029, 788.418 614.012, 788.482 614.311, 792.329 618.378, 794.285 619.298, 795.293 620.695, 796.597 622.405, 798.192 622.483, 798.264 622.758, 798.563 622.971, 798.795 623.055, 798.886 623.795, 799.690 623.815, 799.712 624.067, 799.985 625.215, 801.232 625.601, 801.739 627.425, 804.133 627.427, 804.135 627.434, 804.141 627.959, 804.597 628.149, 804.762 628.173, 804.783 628.790, 805.318 629.149, 805.422 629.497, 805.523 629.974, 805.661 630.201, 805.727 630.824, 805.908 631.587, 806.129 " fill="none" stroke="rgb(0, 0, 0)" stroke-linecap="butt" stroke-linejoin="round" stroke-opacity="1.0" stroke-width="3.0" />
            <path d=" M 856.859, 578.432 857.300, 577.864 859.053, 574.849 859.804, 573.557 860.201, 572.887 860.310, 572.701 860.661, 572.109 862.286, 569.365 865.468, 565.273 867.800, 560.393 869.512, 557.107 870.599, 553.936 871.044, 552.636 " fill="none" stroke="rgb(0, 0, 0)" stroke-linecap="butt" stroke-linejoin="round" stroke-opacity="1.0" stroke-width="3.0" />
            <path d=" M 321.833, 805.657 321.024, 807.302 319.219, 810.969 319.193, 811.023 317.859, 813.732 316.732, 816.024 314.361, 823.007 313.061, 826.835 312.877, 827.377 313.082, 826.729 314.745, 821.455 " fill="none" stroke="rgb(0, 0, 0)" stroke-linecap="butt" stroke-linejoin="round" stroke-opacity="1.0" stroke-width="3.0" />
            <path d=" M 321.964, 802.781 326.659, 793.951 329.007, 789.534 328.562, 790.448 323.846, 799.266 322.001, 802.715 " fill="none" stroke="rgb(0, 0, 0)" stroke-linecap="butt" stroke-linejoin="round" stroke-opacity="1.0" stroke-width="3.0" />
            <path d=" M 570.170, 737.765 563.798, 734.857 563.501, 734.721 563.352, 734.653 563.307, 734.632 562.330, 734.186 561.074, 733.618 560.061, 733.160 559.893, 733.084 558.807, 732.592 558.673, 732.532 558.308, 732.367 558.148, 732.294 556.742, 731.659 555.940, 731.296 552.369, 729.573 551.958, 729.374 551.579, 729.191 550.854, 728.732 549.467, 727.851 549.076, 727.603 546.580, 726.018 544.088, 725.511 543.946, 725.482 543.878, 725.468 543.854, 725.463 543.779, 725.448 543.601, 725.412 543.481, 725.404 543.175, 725.382 543.062, 725.375 " fill="none" stroke="rgb(0, 0, 0)" stroke-linecap="butt" stroke-linejoin="round" stroke-opacity="1.0" stroke-width="3.0" />
            <path d=" M 312.387, 889.835 312.443, 891.383 312.510, 893.224 312.680, 894.490 312.841, 895.679 312.915, 896.227 314.389, 899.975 314.394, 899.999 316.276, 909.702 316.724, 913.985 318.358, 918.333 318.698, 919.239 318.729, 919.320 " fill="none" stroke="rgb(0, 0, 0)" stroke-linecap="butt" stroke-linejoin="round" stroke-opacity="1.0" stroke-width="3.0" />
            <path d=" M 607.311, 837.117 608.147, 840.808 609.899, 848.543 610.605, 858.539 610.940, 862.490 610.884, 867.220 " fill="none" stroke="rgb(0, 0, 0)" stroke-linecap="butt" stroke-linejoin="round" stroke-opacity="1.0" stroke-width="3.0" />
            <path d=" M 832.070, 659.046 830.333, 660.981 828.445, 663.082 826.382, 665.750 826.263, 668.734 825.253, 670.738 822.817, 673.658 821.612, 675.774 821.325, 676.279 821.200, 676.500 821.144, 676.598 820.502, 677.726 820.063, 678.380 818.640, 680.504 818.477, 680.746 816.477, 683.512 816.357, 683.680 815.976, 684.206 815.901, 684.310 " fill="none" stroke="rgb(0, 0, 0)" stroke-linecap="butt" stroke-linejoin="round" stroke-opacity="1.0" stroke-width="3.0" />
            <path d=" M 584.503, 863.448 584.548, 862.541 585.379, 859.228 585.850, 854.967 586.515, 849.615 586.940, 846.431 588.122, 842.517 589.761, 839.631 589.841, 839.490 591.799, 837.287 589.761, 839.631 " fill="none" stroke="rgb(0, 0, 0)" stroke-linecap="butt" stroke-linejoin="round" stroke-opacity="1.0" stroke-width="3.0" />
            <path d=" M 491.622, 630.632 491.797, 632.341 491.313, 636.063 490.498, 639.156 489.103, 642.914 484.763, 651.799 482.957, 654.124 479.726, 658.550 " fill="none" stroke="rgb(0, 0, 0)" stroke-linecap="butt" stroke-linejoin="round" stroke-opacity="1.0" stroke-width="3.0" />
            <path d=" M 662.519, 779.654 663.732, 778.936 666.305, 776.926 667.501, 772.557 668.468, 769.636 667.641, 769.293 665.514, 768.410 665.446, 768.382 665.321, 768.330 665.218, 768.244 663.514, 766.827 663.328, 766.396 662.531, 764.546 662.199, 764.432 662.113, 764.403 661.496, 764.193 660.896, 763.989 660.367, 763.809 660.338, 763.799 659.605, 763.549 659.131, 763.059 658.690, 762.604 658.094, 761.989 658.028, 761.920 657.842, 761.729 657.690, 761.319 657.452, 760.675 657.410, 760.564 656.835, 759.012 656.763, 758.817 656.749, 758.780 656.731, 758.731 656.151, 757.166 656.146, 757.154 " fill="none" stroke="rgb(0, 0, 0)" stroke-linecap="butt" stroke-linejoin="round" stroke-opacity="1.0" stroke-width="3.0" />
            <path d=" M 444.227, 622.521 445.460, 621.437 448.683, 619.904 449.003, 617.623 447.282, 616.307 447.229, 616.266 446.014, 615.336 444.446, 614.137 441.845, 612.112 438.433, 610.494 437.024, 609.173 437.009, 609.174 433.722, 609.378 433.426, 609.397 432.149, 609.476 429.734, 609.626 429.521, 609.639 429.063, 609.700 428.017, 609.838 " fill="none" stroke="rgb(0, 0, 0)" stroke-linecap="butt" stroke-linejoin="round" stroke-opacity="1.0" stroke-width="3.0" />
            <path d=" M 669.475, 760.507 670.847, 759.382 672.772, 750.822 672.370, 750.264 671.571, 748.386 669.989, 747.550 668.075, 746.538 663.840, 745.812 662.053, 745.506 660.073, 743.263 660.019, 743.202 659.926, 743.096 659.599, 742.726 659.112, 741.891 657.423, 739.000 " fill="none" stroke="rgb(0, 0, 0)" stroke-linecap="butt" stroke-linejoin="round" stroke-opacity="1.0" stroke-width="3.0" />
            <path d=" M 597.635, 1058.750 598.926, 1057.273 601.422, 1054.418 606.714, 1050.544 608.295, 1045.815 609.166, 1039.598 610.020, 1036.624 611.654, 1032.793 611.712, 1032.657 611.803, 1032.445 611.885, 1032.251 " fill="none" stroke="rgb(0, 0, 0)" stroke-linecap="butt" stroke-linejoin="round" stroke-opacity="1.0" stroke-width="3.0" />
            <path d=" M 660.847, 882.241 658.669, 878.923 655.919, 876.075 654.583, 874.692 647.484, 869.509 642.582, 868.009 642.562, 868.003 642.329, 867.932 641.347, 867.632 640.886, 867.541 635.328, 866.447 635.267, 866.435 635.038, 866.389 " fill="none" stroke="rgb(0, 0, 0)" stroke-linecap="butt" stroke-linejoin="round" stroke-opacity="1.0" stroke-width="3.0" />
            <path d=" M 602.379, 716.669 600.492, 717.590 599.305, 717.843 602.379, 716.669 602.780, 716.515 604.118, 715.892 605.265, 715.358 606.418, 714.821 610.406, 709.355 612.594, 704.093 613.223, 701.304 613.250, 701.185 613.354, 700.726 613.992, 697.899 614.240, 696.265 " fill="none" stroke="rgb(0, 0, 0)" stroke-linecap="butt" stroke-linejoin="round" stroke-opacity="1.0" stroke-width="3.0" />
            <path d=" M 806.630, 701.947 805.120, 700.611 805.094, 700.589 804.699, 700.239 800.773, 698.855 799.030, 698.722 790.470, 698.069 787.464, 699.394 784.711, 701.912 784.234, 705.208 787.014, 708.835 " fill="none" stroke="rgb(0, 0, 0)" stroke-linecap="butt" stroke-linejoin="round" stroke-opacity="1.0" stroke-width="3.0" />
            <path d=" M 704.637, 623.152 694.871, 625.303 694.341, 625.420 691.690, 626.053 683.755, 628.660 678.477, 630.394 673.541, 631.891 " fill="none" stroke="rgb(0, 0, 0)" stroke-linecap="butt" stroke-linejoin="round" stroke-opacity="1.0" stroke-width="3.0" />
            <path d=" M 648.038, 833.344 649.025, 832.958 650.812, 829.626 651.670, 824.947 651.509, 821.821 651.164, 818.721 650.526, 814.242 649.273, 811.390 647.943, 806.268 647.855, 802.675 " fill="none" stroke="rgb(0, 0, 0)" stroke-linecap="butt" stroke-linejoin="round" stroke-opacity="1.0" stroke-width="3.0" />
            <path d=" M 647.484, 869.509 642.568, 867.759 642.553, 867.753 642.319, 867.670 640.565, 867.046 637.116, 865.818 635.417, 865.800 635.386, 865.800 631.187, 865.756 625.645, 865.929 621.612, 866.392 621.493, 866.406 619.164, 866.674 617.076, 866.914 617.068, 866.915 614.147, 867.250 " fill="none" stroke="rgb(0, 0, 0)" stroke-linecap="butt" stroke-linejoin="round" stroke-opacity="1.0" stroke-width="3.0" />
            <path d=" M 518.921, 653.795 521.605, 654.761 524.472, 655.791 530.587, 657.922 531.356, 658.190 533.226, 658.910 534.577, 659.430 535.707, 659.865 536.905, 660.325 536.996, 660.358 538.054, 660.741 538.816, 661.017 538.936, 661.060 540.678, 661.691 541.546, 662.005 545.896, 663.410 548.399, 664.219 551.083, 665.072 " fill="none" stroke="rgb(0, 0, 0)" stroke-linecap="butt" stroke-linejoin="round" stroke-opacity="1.0" stroke-width="3.0" />
            <path d=" M 817.704, 524.900 810.672, 523.802 809.413, 523.685 806.443, 523.762 803.463, 524.342 794.256, 528.246 791.108, 529.581 789.490, 531.958 789.171, 534.719 789.368, 535.450 " fill="none" stroke="rgb(0, 0, 0)" stroke-linecap="butt" stroke-linejoin="round" stroke-opacity="1.0" stroke-width="3.0" />
            <path d=" M 526.508, 822.962 526.779, 822.745 528.070, 821.712 528.113, 821.677 528.138, 821.657 532.644, 818.049 534.791, 816.035 537.339, 813.645 539.082, 808.790 542.832, 805.978 542.977, 805.869 543.945, 804.281 544.320, 803.666 544.728, 802.998 546.432, 800.202 546.929, 799.504 548.051, 797.929 548.385, 797.460 " fill="none" stroke="rgb(0, 0, 0)" stroke-linecap="butt" stroke-linejoin="round" stroke-opacity="1.0" stroke-width="3.0" />
            <path d=" M 506.235, 640.065 505.223, 641.575 504.865, 642.109 504.660, 642.414 502.805, 645.182 502.208, 647.644 503.652, 653.237 506.103, 656.168 509.784, 657.107 512.516, 656.173 512.564, 656.156 517.070, 654.615 521.605, 654.761 " fill="none" stroke="rgb(0, 0, 0)" stroke-linecap="butt" stroke-linejoin="round" stroke-opacity="1.0" stroke-width="3.0" />
            <path d=" M 532.114, 988.883 542.114, 988.768 542.723, 988.761 545.635, 988.972 546.103, 989.035 550.823, 989.669 556.852, 993.164 559.879, 994.920 563.975, 997.295 564.636, 997.677 " fill="none" stroke="rgb(0, 0, 0)" stroke-linecap="butt" stroke-linejoin="round" stroke-opacity="1.0" stroke-width="3.0" />
            <path d=" M 889.533, 537.912 889.863, 537.568 889.950, 537.478 890.297, 537.116 890.499, 536.905 890.622, 536.777 891.508, 535.853 893.369, 533.911 893.809, 529.361 892.304, 526.622 890.643, 523.409 890.114, 521.856 889.777, 521.159 886.919, 518.038 884.525, 515.760 882.700, 514.746 882.329, 514.577 882.011, 514.431 881.749, 514.312 881.291, 514.103 880.877, 513.914 878.501, 512.830 877.329, 512.296 " fill="none" stroke="rgb(0, 0, 0)" stroke-linecap="butt" stroke-linejoin="round" stroke-opacity="1.0" stroke-width="3.0" />
            <path d=" M 634.621, 662.162 634.205, 662.417 629.402, 665.362 629.252, 665.454 623.976, 669.636 623.944, 669.662 623.758, 669.809 623.741, 669.823 623.264, 670.201 620.210, 673.242 617.754, 675.688 616.633, 676.961 614.595, 680.858 614.392, 688.511 614.383, 688.854 " fill="none" stroke="rgb(0, 0, 0)" stroke-linecap="butt" stroke-linejoin="round" stroke-opacity="1.0" stroke-width="3.0" />
            <path d=" M 555.832, 670.217 555.869, 670.259 556.728, 671.231 557.276, 671.851 560.500, 675.500 560.571, 675.581 560.581, 675.593 560.730, 675.761 562.099, 677.310 562.343, 677.587 564.303, 679.805 564.342, 679.849 564.544, 680.078 564.731, 680.289 564.787, 680.353 564.817, 680.387 564.999, 680.593 565.518, 681.181 565.757, 681.451 566.342, 682.114 566.750, 682.543 566.807, 682.602 566.916, 682.717 567.157, 682.970 567.366, 683.190 567.671, 683.511 567.687, 683.528 567.741, 683.584 570.056, 686.019 571.339, 687.369 575.785, 691.528 578.765, 694.316 579.189, 694.713 580.020, 695.490 580.039, 695.508 580.722, 696.147 " fill="none" stroke="rgb(0, 0, 0)" stroke-linecap="butt" stroke-linejoin="round" stroke-opacity="1.0" stroke-width="3.0" />
            <path d=" M 322.729, 957.551 323.774, 959.522 324.467, 960.831 327.332, 964.628 331.340, 969.432 332.067, 970.304 332.261, 970.537 334.000, 972.622 336.079, 976.601 340.121, 984.373 341.307, 988.053 " fill="none" stroke="rgb(0, 0, 0)" stroke-linecap="butt" stroke-linejoin="round" stroke-opacity="1.0" stroke-width="3.0" />
            <path d=" M 702.012, 955.434 706.925, 956.754 708.738, 956.361 717.213, 954.269 718.629, 953.382 723.943, 948.737 726.443, 945.065 730.194, 938.926 " fill="none" stroke="rgb(0, 0, 0)" stroke-linecap="butt" stroke-linejoin="round" stroke-opacity="1.0" stroke-width="3.0" />
            <path d=" M 718.177, 618.108 714.981, 618.888 711.689, 619.692 702.412, 621.956 700.325, 622.447 699.966, 622.531 698.371, 622.906 694.080, 623.915 688.093, 626.401 683.755, 628.660 " fill="none" stroke="rgb(0, 0, 0)" stroke-linecap="butt" stroke-linejoin="round" stroke-opacity="1.0" stroke-width="3.0" />
            <path d=" M 911.214, 563.944 909.292, 557.246 908.112, 552.890 906.956, 551.613 904.278, 546.503 901.923, 542.957 900.352, 540.753 897.362, 539.355 896.756, 539.407 893.021, 539.723 890.379, 538.268 " fill="none" stroke="rgb(0, 0, 0)" stroke-linecap="butt" stroke-linejoin="round" stroke-opacity="1.0" stroke-width="3.0" />
            <path d=" M 478.056, 596.553 476.447, 596.648 469.698, 597.048 463.559, 597.919 459.239, 599.030 452.192, 600.928 451.703, 601.134 446.681, 603.244 444.962, 603.966 442.730, 605.081 " fill="none" stroke="rgb(0, 0, 0)" stroke-linecap="butt" stroke-linejoin="round" stroke-opacity="1.0" stroke-width="3.0" />
            <path d=" M 543.931, 725.667 543.880, 725.650 543.741, 725.603 543.405, 725.490 543.262, 725.442 543.062, 725.375 542.857, 725.305 541.939, 724.996 538.077, 723.696 538.071, 723.694 538.045, 723.685 537.001, 723.334 535.734, 721.710 532.546, 717.628 529.562, 714.401 522.327, 709.766 522.280, 709.759 521.900, 709.709 513.085, 708.549 " fill="none" stroke="rgb(0, 0, 0)" stroke-linecap="butt" stroke-linejoin="round" stroke-opacity="1.0" stroke-width="3.0" />
            <path d=" M 649.992, 994.450 650.026, 993.280 650.051, 992.413 650.053, 992.346 650.160, 988.686 650.184, 987.835 650.186, 987.774 650.214, 986.802 650.215, 986.767 650.999, 981.632 651.012, 981.545 651.012, 981.542 651.137, 980.722 651.226, 980.143 651.404, 979.149 651.406, 979.136 651.730, 977.331 651.846, 976.686 650.509, 975.499 650.170, 975.199 646.761, 972.175 646.675, 971.993 644.209, 966.775 643.737, 965.272 643.661, 965.029 643.633, 964.940 643.510, 964.547 644.158, 960.695 " fill="none" stroke="rgb(0, 0, 0)" stroke-linecap="butt" stroke-linejoin="round" stroke-opacity="1.0" stroke-width="3.0" />
            <path d=" M 522.231, 882.966 531.815, 884.197 541.402, 885.534 551.226, 883.667 553.100, 883.311 556.238, 880.808 557.566, 879.748 " fill="none" stroke="rgb(0, 0, 0)" stroke-linecap="butt" stroke-linejoin="round" stroke-opacity="1.0" stroke-width="3.0" />
            <path d=" M 655.667, 996.487 657.484, 994.566 662.662, 986.010 663.899, 983.966 665.440, 980.210 666.588, 975.435 667.141, 965.584 667.082, 962.363 " fill="none" stroke="rgb(0, 0, 0)" stroke-linecap="butt" stroke-linejoin="round" stroke-opacity="1.0" stroke-width="3.0" />
            <path d=" M 569.385, 820.710 570.335, 819.746 573.369, 816.667 573.414, 816.621 576.707, 813.279 577.613, 811.847 577.996, 811.242 578.612, 810.269 579.051, 809.574 579.064, 809.554 579.483, 808.892 584.829, 800.441 587.236, 796.636 588.729, 794.277 590.779, 791.036 591.074, 790.569 " fill="none" stroke="rgb(0, 0, 0)" stroke-linecap="butt" stroke-linejoin="round" stroke-opacity="1.0" stroke-width="3.0" />
            <path d=" M 400.333, 835.713 397.516, 843.442 397.030, 844.071 392.307, 850.189 390.889, 857.521 388.682, 864.342 387.171, 868.160 386.881, 870.052 " fill="none" stroke="rgb(0, 0, 0)" stroke-linecap="butt" stroke-linejoin="round" stroke-opacity="1.0" stroke-width="3.0" />
            <path d=" M 812.277, 528.304 809.766, 528.657 809.563, 528.685 808.616, 528.672 804.380, 528.609 799.153, 529.113 796.205, 530.514 789.368, 535.450 786.363, 537.619 782.699, 540.130 781.771, 544.097 781.996, 544.566 " fill="none" stroke="rgb(0, 0, 0)" stroke-linecap="butt" stroke-linejoin="round" stroke-opacity="1.0" stroke-width="3.0" />
            <path d=" M 416.983, 616.553 415.983, 616.579 415.896, 616.581 415.892, 616.581 414.975, 616.604 414.933, 616.605 414.347, 616.620 414.276, 616.622 413.983, 616.630 413.820, 616.634 413.809, 616.634 413.655, 616.638 411.216, 616.700 406.617, 617.873 399.088, 620.736 397.165, 621.673 388.454, 626.003 384.045, 629.227 383.026, 630.756 " fill="none" stroke="rgb(0, 0, 0)" stroke-linecap="butt" stroke-linejoin="round" stroke-opacity="1.0" stroke-width="3.0" />
            <path d=" M 618.940, 1034.912 620.521, 1036.120 620.917, 1036.424 621.815, 1036.482 624.274, 1035.318 629.755, 1031.929 636.995, 1025.031 638.328, 1023.760 640.676, 1020.407 643.221, 1016.770 646.204, 1012.657 " fill="none" stroke="rgb(0, 0, 0)" stroke-linecap="butt" stroke-linejoin="round" stroke-opacity="1.0" stroke-width="3.0" />
            <path d=" M 618.509, 1008.953 621.276, 1008.368 621.942, 1008.227 626.832, 1007.194 632.002, 1004.982 634.481, 1003.914 640.195, 1001.312 643.119, 1000.128 643.488, 999.979 643.715, 999.887 646.615, 998.714 648.513, 996.501 649.230, 995.506 649.410, 995.257 649.992, 994.450 650.214, 993.645 650.558, 992.397 650.604, 992.230 650.684, 991.938 650.889, 991.193 " fill="none" stroke="rgb(0, 0, 0)" stroke-linecap="butt" stroke-linejoin="round" stroke-opacity="1.0" stroke-width="3.0" />
            <path d=" M 406.110, 805.528 405.731, 807.337 404.863, 811.477 404.238, 815.750 403.391, 821.513 402.152, 827.871 400.086, 835.037 397.216, 842.878 397.030, 844.071 " fill="none" stroke="rgb(0, 0, 0)" stroke-linecap="butt" stroke-linejoin="round" stroke-opacity="1.0" stroke-width="3.0" />
            <path d=" M 516.276, 939.997 516.110, 937.532 515.441, 927.555 515.231, 924.413 514.124, 914.475 513.858, 912.094 512.931, 908.060 511.096, 902.691 509.836, 900.298 " fill="none" stroke="rgb(0, 0, 0)" stroke-linecap="butt" stroke-linejoin="round" stroke-opacity="1.0" stroke-width="3.0" />
            <path d=" M 363.258, 750.910 360.412, 752.649 358.017, 754.112 353.408, 758.116 346.087, 764.928 342.581, 768.190 336.809, 776.356 334.690, 779.354 " fill="none" stroke="rgb(0, 0, 0)" stroke-linecap="butt" stroke-linejoin="round" stroke-opacity="1.0" stroke-width="3.0" />
            <path d=" M 312.877, 827.377 312.690, 828.770 311.947, 834.286 311.319, 835.888 309.582, 840.319 309.279, 845.892 309.230, 847.844 309.220, 848.256 309.180, 849.829 308.573, 855.779 309.688, 862.416 308.913, 868.243 " fill="none" stroke="rgb(0, 0, 0)" stroke-linecap="butt" stroke-linejoin="round" stroke-opacity="1.0" stroke-width="3.0" />
            <path d=" M 738.974, 606.103 736.420, 606.836 736.290, 606.874 733.538, 607.664 731.451, 608.263 721.839, 611.022 721.549, 611.106 720.894, 611.294 719.395, 611.724 719.341, 611.740 714.575, 613.803 709.271, 616.692 705.958, 618.223 701.429, 621.479 700.858, 621.890 " fill="none" stroke="rgb(0, 0, 0)" stroke-linecap="butt" stroke-linejoin="round" stroke-opacity="1.0" stroke-width="3.0" />
            <path d=" M 655.309, 706.877 655.728, 706.501 657.120, 705.251 658.850, 702.882 660.045, 700.546 660.386, 699.523 659.216, 697.876 655.224, 697.923 652.854, 698.706 646.917, 700.089 643.969, 700.699 641.134, 701.286 634.953, 706.175 632.379, 707.760 632.084, 707.943 631.847, 708.088 631.209, 708.482 " fill="none" stroke="rgb(0, 0, 0)" stroke-linecap="butt" stroke-linejoin="round" stroke-opacity="1.0" stroke-width="3.0" />
            <path d=" M 386.602, 640.018 388.370, 641.025 389.250, 641.526 391.016, 642.990 392.693, 644.188 395.332, 647.841 397.249, 651.323 398.457, 655.155 402.046, 662.289 405.572, 669.680 407.788, 675.045 " fill="none" stroke="rgb(0, 0, 0)" stroke-linecap="butt" stroke-linejoin="round" stroke-opacity="1.0" stroke-width="3.0" />
            <path d=" M 810.348, 846.506 810.965, 845.412 814.025, 839.985 814.406, 839.308 815.260, 838.572 821.418, 833.264 829.965, 828.073 830.263, 827.892 837.011, 825.056 839.134, 822.906 839.247, 822.792 840.851, 822.010 839.134, 822.906 " fill="none" stroke="rgb(0, 0, 0)" stroke-linecap="butt" stroke-linejoin="round" stroke-opacity="1.0" stroke-width="3.0" />
            <path d=" M 663.228, 721.275 656.799, 720.512 656.013, 719.119 656.280, 715.329 655.759, 714.797 653.607, 711.065 652.792, 710.572 652.213, 710.221 648.206, 711.106 644.172, 712.021 642.996, 712.288 641.962, 712.523 639.328, 714.400 638.422, 715.165 636.863, 716.480 635.857, 717.329 633.328, 720.360 633.325, 720.364 631.727, 720.599 " fill="none" stroke="rgb(0, 0, 0)" stroke-linecap="butt" stroke-linejoin="round" stroke-opacity="1.0" stroke-width="3.0" />
            <path d=" M 599.269, 611.284 599.274, 611.114 600.413, 609.478 600.745, 609.000 601.124, 608.694 601.314, 608.542 602.132, 607.883 603.538, 606.751 605.086, 605.505 606.709, 603.245 606.650, 603.041 605.624, 599.497 604.256, 599.218 603.124, 598.987 601.673, 598.690 601.610, 598.677 600.584, 598.488 600.134, 598.404 599.595, 598.305 598.922, 598.180 594.202, 597.307 592.533, 596.998 591.054, 596.724 589.206, 596.730 587.254, 597.316 584.451, 598.158 581.941, 599.307 581.797, 599.372 578.694, 600.793 " fill="none" stroke="rgb(0, 0, 0)" stroke-linecap="butt" stroke-linejoin="round" stroke-opacity="1.0" stroke-width="3.0" />
            <path d=" M 847.819, 512.998 847.338, 513.205 847.297, 513.223 845.699, 513.911 843.745, 514.753 843.112, 515.026 842.739, 515.193 841.639, 515.687 840.250, 516.309 831.125, 520.401 830.856, 520.521 829.873, 520.920 828.715, 521.390 825.620, 522.645 823.503, 523.504 823.475, 523.515 823.352, 523.565 821.068, 524.492 816.968, 525.835 816.590, 526.034 812.277, 528.304 812.215, 528.337 811.794, 528.559 811.744, 528.632 811.733, 528.648 810.652, 530.250 809.198, 532.404 " fill="none" stroke="rgb(0, 0, 0)" stroke-linecap="butt" stroke-linejoin="round" stroke-opacity="1.0" stroke-width="3.0" />
            <path d=" M 399.534, 730.065 391.530, 732.001 391.078, 732.110 390.532, 732.242 390.209, 732.320 390.128, 732.339 390.010, 732.368 389.615, 732.592 389.389, 732.720 387.645, 733.708 386.129, 734.567 385.723, 734.797 385.113, 735.534 381.813, 739.519 373.484, 745.055 373.291, 745.183 365.925, 749.084 364.469, 749.855 363.258, 750.910 362.305, 751.742 " fill="none" stroke="rgb(0, 0, 0)" stroke-linecap="butt" stroke-linejoin="round" stroke-opacity="1.0" stroke-width="3.0" />
            <path d=" M 682.849, 921.118 684.857, 930.914 685.763, 935.333 687.463, 942.809 690.019, 949.484 692.673, 952.662 694.184, 953.589 696.130, 954.108 702.012, 955.434 703.394, 955.745 " fill="none" stroke="rgb(0, 0, 0)" stroke-linecap="butt" stroke-linejoin="round" stroke-opacity="1.0" stroke-width="3.0" />
            <path d=" M 677.550, 634.477 674.597, 633.961 669.546, 632.803 666.686, 632.148 663.017, 632.529 658.562, 633.527 665.893, 632.461 663.975, 633.013 659.496, 634.300 658.519, 635.217 658.272, 635.449 657.849, 635.847 657.239, 636.420 656.339, 637.265 653.949, 638.926 652.289, 640.078 651.834, 640.395 650.236, 641.504 " fill="none" stroke="rgb(0, 0, 0)" stroke-linecap="butt" stroke-linejoin="round" stroke-opacity="1.0" stroke-width="3.0" />
            <path d=" M 768.802, 724.745 769.364, 722.943 769.682, 722.668 768.802, 724.745 767.964, 726.721 763.059, 727.810 760.783, 728.864 760.664, 729.897 760.606, 731.094 760.824, 732.047 761.957, 734.940 763.300, 736.462 763.602, 736.804 763.433, 737.928 763.095, 740.174 762.394, 744.397 762.401, 746.681 764.004, 748.519 766.480, 749.415 771.596, 751.132 773.351, 751.179 " fill="none" stroke="rgb(0, 0, 0)" stroke-linecap="butt" stroke-linejoin="round" stroke-opacity="1.0" stroke-width="3.0" />
            <path d=" M 310.854, 875.802 310.570, 872.380 310.505, 871.602 309.875, 864.003 309.837, 863.540 308.913, 868.243 309.292, 871.964 309.866, 875.039 309.975, 875.622 309.976, 875.627 309.996, 875.735 310.060, 876.078 310.060, 876.081 310.964, 880.924 311.519, 890.908 311.613, 892.601 312.530, 895.155 312.786, 895.869 312.915, 896.227 " fill="none" stroke="rgb(0, 0, 0)" stroke-linecap="butt" stroke-linejoin="round" stroke-opacity="1.0" stroke-width="3.0" />
            <path d=" M 634.117, 637.130 626.773, 635.894 624.880, 635.575 623.992, 635.395 623.683, 635.333 623.511, 635.297 623.372, 635.269 613.572, 633.282 611.685, 632.899 610.267, 632.612 609.662, 632.461 600.808, 630.262 598.884, 629.851 595.540, 629.138 591.280, 628.230 591.138, 628.200 591.034, 628.178 590.603, 628.086 590.405, 628.044 589.965, 627.950 588.752, 627.692 588.547, 627.648 588.471, 627.632 588.274, 627.590 587.663, 627.459 585.851, 627.073 " fill="none" stroke="rgb(0, 0, 0)" stroke-linecap="butt" stroke-linejoin="round" stroke-opacity="1.0" stroke-width="3.0" />
            <path d=" M 549.153, 622.330 546.463, 623.161 546.168, 623.252 545.903, 623.334 543.480, 624.083 542.808, 624.290 542.206, 624.434 541.823, 624.525 541.027, 624.715 540.128, 624.930 539.107, 625.174 535.383, 626.564 534.472, 626.903 532.642, 627.587 532.574, 627.605 532.108, 627.729 531.865, 627.818 531.589, 627.920 531.540, 627.938 530.884, 628.180 530.784, 628.216 525.393, 630.200 524.038, 630.429 520.369, 631.048 519.750, 631.360 516.707, 632.893 512.583, 633.707 512.577, 633.709 512.479, 633.728 512.427, 633.738 512.422, 633.739 512.416, 633.740 509.720, 634.273 508.334, 634.903 507.741, 635.636 505.223, 641.575 " fill="none" stroke="rgb(0, 0, 0)" stroke-linecap="butt" stroke-linejoin="round" stroke-opacity="1.0" stroke-width="3.0" />
            <path d=" M 373.025, 1022.080 376.493, 1026.469 377.620, 1027.895 381.937, 1035.262 386.616, 1042.503 393.242, 1049.993 394.686, 1051.626 401.971, 1058.477 404.656, 1061.002 " fill="none" stroke="rgb(0, 0, 0)" stroke-linecap="butt" stroke-linejoin="round" stroke-opacity="1.0" stroke-width="3.0" />
            <path d=" M 611.745, 694.807 614.256, 695.837 616.280, 696.667 617.205, 697.047 619.961, 697.383 626.850, 697.531 627.123, 697.537 627.375, 697.543 628.136, 697.507 635.142, 697.180 642.688, 696.146 649.184, 692.582 652.433, 691.642 652.435, 691.641 657.020, 689.169 659.032, 686.853 " fill="none" stroke="rgb(0, 0, 0)" stroke-linecap="butt" stroke-linejoin="round" stroke-opacity="1.0" stroke-width="3.0" />
            <path d=" M 518.025, 1058.256 521.797, 1057.882 526.634, 1057.266 530.424, 1057.045 533.985, 1056.782 538.014, 1056.917 540.868, 1056.814 546.004, 1057.049 548.790, 1056.476 552.425, 1056.094 561.045, 1056.715 564.695, 1056.743 567.681, 1056.929 570.064, 1057.078 " fill="none" stroke="rgb(0, 0, 0)" stroke-linecap="butt" stroke-linejoin="round" stroke-opacity="1.0" stroke-width="3.0" />
            <path d=" M 410.191, 1064.791 406.889, 1062.649 404.656, 1061.002 411.497, 1066.221 414.890, 1069.741 422.082, 1076.688 422.883, 1077.461 430.981, 1079.644 433.073, 1079.929 436.410, 1080.347 440.343, 1079.828 443.561, 1078.524 443.614, 1078.502 " fill="none" stroke="rgb(0, 0, 0)" stroke-linecap="butt" stroke-linejoin="round" stroke-opacity="1.0" stroke-width="3.0" />
            <path d=" M 770.635, 758.301 767.902, 761.139 764.700, 764.462 760.172, 770.060 755.153, 775.772 750.271, 780.182 746.100, 783.279 743.138, 784.656 740.114, 787.270 738.164, 787.972 734.516, 792.881 732.896, 795.062 " fill="none" stroke="rgb(0, 0, 0)" stroke-linecap="butt" stroke-linejoin="round" stroke-opacity="1.0" stroke-width="3.0" />
            <path d=" M 408.922, 739.914 404.893, 745.777 403.462, 747.859 403.345, 748.209 403.009, 749.217 402.975, 749.318 402.544, 750.606 402.530, 750.650 402.419, 750.980 402.085, 751.982 401.455, 753.865 400.224, 758.887 399.764, 762.913 400.338, 766.339 402.223, 769.864 403.585, 774.457 404.555, 784.177 406.060, 787.841 406.914, 789.922 " fill="none" stroke="rgb(0, 0, 0)" stroke-linecap="butt" stroke-linejoin="round" stroke-opacity="1.0" stroke-width="3.0" />
            <path d=" M 405.973, 669.347 407.788, 675.045 408.686, 677.864 408.928, 680.981 410.394, 689.509 411.215, 698.390 411.699, 702.297 412.338, 707.371 412.522, 714.620 411.994, 718.245 411.372, 722.518 " fill="none" stroke="rgb(0, 0, 0)" stroke-linecap="butt" stroke-linejoin="round" stroke-opacity="1.0" stroke-width="3.0" />
            <path d=" M 615.263, 1028.657 616.896, 1028.189 619.688, 1027.614 619.748, 1027.582 625.482, 1024.573 630.444, 1021.559 637.158, 1017.606 640.725, 1014.931 641.200, 1014.575 641.429, 1014.403 643.076, 1013.168 645.478, 1011.449 646.685, 1010.053 646.753, 1009.975 647.493, 1009.117 647.654, 1008.932 650.077, 1006.280 651.017, 1004.743 652.372, 1002.525 654.432, 999.009 655.308, 997.513 655.521, 997.149 655.245, 997.889 654.432, 999.009 " fill="none" stroke="rgb(0, 0, 0)" stroke-linecap="butt" stroke-linejoin="round" stroke-opacity="1.0" stroke-width="3.0" />
            <path d=" M 794.540, 659.520 797.925, 659.957 799.847, 659.406 805.805, 659.531 808.252, 659.438 811.191, 657.302 816.812, 651.921 820.451, 650.463 827.480, 647.646 831.533, 647.979 831.812, 648.002 834.299, 648.206 835.483, 648.304 836.103, 647.903 841.096, 644.678 841.927, 644.141 844.061, 642.762 " fill="none" stroke="rgb(0, 0, 0)" stroke-linecap="butt" stroke-linejoin="round" stroke-opacity="1.0" stroke-width="3.0" />
            <path d=" M 669.989, 747.550 670.035, 747.373 670.243, 742.310 670.024, 740.843 666.861, 739.119 666.207, 738.763 665.818, 738.672 665.782, 738.663 661.258, 737.603 656.804, 735.681 653.490, 733.439 648.883, 728.998 647.965, 727.734 643.664, 726.978 642.186, 727.409 641.939, 727.481 641.639, 727.569 641.600, 727.580 641.056, 727.739 639.526, 728.185 639.442, 728.209 638.661, 728.437 638.421, 728.606 637.239, 729.434 634.942, 731.046 633.175, 732.298 632.201, 733.224 629.467, 735.821 628.936, 736.326 " fill="none" stroke="rgb(0, 0, 0)" stroke-linecap="butt" stroke-linejoin="round" stroke-opacity="1.0" stroke-width="3.0" />
            <path d=" M 494.316, 718.681 494.208, 718.768 490.425, 721.782 485.089, 725.937 479.480, 729.731 476.341, 731.319 475.583, 731.703 474.048, 732.479 467.848, 734.457 461.669, 735.932 459.123, 736.540 458.795, 736.618 457.921, 736.827 452.302, 739.961 447.985, 743.683 446.994, 745.925 " fill="none" stroke="rgb(0, 0, 0)" stroke-linecap="butt" stroke-linejoin="round" stroke-opacity="1.0" stroke-width="3.0" />
            <path d=" M 566.045, 1029.264 569.678, 1027.548 578.431, 1022.712 578.829, 1022.492 588.571, 1020.233 589.429, 1020.034 593.456, 1018.783 594.378, 1018.346 595.769, 1017.687 598.363, 1016.736 601.576, 1015.559 603.971, 1014.682 608.625, 1012.977 612.657, 1011.361 621.276, 1008.368 " fill="none" stroke="rgb(0, 0, 0)" stroke-linecap="butt" stroke-linejoin="round" stroke-opacity="1.0" stroke-width="3.0" />
            <path d=" M 521.900, 709.709 519.228, 707.802 514.210, 707.502 510.995, 708.303 510.835, 708.343 510.783, 708.356 509.195, 709.078 508.365, 709.455 508.243, 709.510 507.666, 709.773 507.521, 709.839 507.316, 709.900 507.226, 709.927 504.781, 710.659 503.325, 711.094 499.768, 712.159 495.021, 713.579 489.011, 714.276 479.993, 717.082 476.933, 719.603 472.757, 722.038 469.289, 725.096 469.285, 725.100 469.009, 725.343 467.683, 726.513 " fill="none" stroke="rgb(0, 0, 0)" stroke-linecap="butt" stroke-linejoin="round" stroke-opacity="1.0" stroke-width="3.0" />
            <path d=" M 537.847, 759.346 537.830, 759.062 537.666, 756.258 537.656, 756.078 537.630, 755.638 537.607, 755.255 536.877, 755.168 536.366, 755.107 533.256, 754.739 532.659, 755.104 531.086, 756.066 529.792, 756.857 527.599, 759.175 527.590, 759.184 526.920, 759.892 526.756, 760.014 526.687, 760.065 522.964, 762.826 521.255, 764.481 517.773, 767.874 517.577, 768.065 517.563, 768.078 517.519, 768.123 517.484, 768.157 517.263, 768.379 513.542, 772.113 513.294, 772.438 510.510, 776.091 505.109, 780.732 504.669, 781.110 504.342, 781.334 504.314, 781.353 503.977, 781.583 503.738, 781.746 497.953, 785.697 495.165, 787.601 494.508, 788.050 " fill="none" stroke="rgb(0, 0, 0)" stroke-linecap="butt" stroke-linejoin="round" stroke-opacity="1.0" stroke-width="3.0" />
            <path d=" M 389.542, 731.318 389.502, 730.613 389.485, 730.322 389.481, 730.249 389.469, 730.216 388.784, 728.383 388.777, 728.364 388.678, 728.098 388.530, 727.702 386.136, 723.715 382.247, 719.141 380.360, 717.655 373.248, 712.788 371.520, 712.331 368.713, 712.636 367.219, 713.618 366.940, 714.412 366.847, 714.677 366.278, 716.807 365.054, 722.270 368.017, 729.737 370.985, 734.559 370.845, 735.568 370.804, 735.866 370.429, 738.577 370.233, 739.987 370.182, 740.354 " fill="none" stroke="rgb(0, 0, 0)" stroke-linecap="butt" stroke-linejoin="round" stroke-opacity="1.0" stroke-width="3.0" />
            <path d=" M 522.280, 709.759 523.933, 708.484 525.050, 707.460 527.051, 705.141 527.536, 701.328 528.201, 696.851 526.860, 693.818 526.292, 690.097 523.669, 685.792 522.942, 684.599 515.795, 677.525 509.194, 672.385 500.575, 667.552 497.368, 665.272 " fill="none" stroke="rgb(0, 0, 0)" stroke-linecap="butt" stroke-linejoin="round" stroke-opacity="1.0" stroke-width="3.0" />
            <path d=" M 499.620, 667.438 497.368, 665.272 494.943, 662.940 485.338, 660.158 484.499, 659.915 479.972, 658.620 479.726, 658.550 476.438, 657.609 466.439, 657.690 465.642, 657.697 464.276, 657.708 461.005, 656.867 460.830, 656.821 456.806, 655.787 455.224, 655.380 454.884, 655.293 454.737, 655.255 449.715, 653.964 445.090, 651.881 441.993, 650.336 " fill="none" stroke="rgb(0, 0, 0)" stroke-linecap="butt" stroke-linejoin="round" stroke-opacity="1.0" stroke-width="3.0" />
            <path d=" M 667.641, 769.293 668.417, 767.993 669.948, 765.186 670.100, 761.092 669.475, 760.507 668.302, 759.409 667.370, 758.815 661.693, 756.771 661.057, 756.378 660.201, 755.850 660.146, 755.816 658.294, 754.672 652.034, 749.757 649.476, 746.877 649.398, 746.794 647.045, 744.298 646.637, 743.865 646.444, 743.661 644.837, 742.500 643.170, 741.877 642.577, 741.932 637.365, 743.589 635.543, 744.169 634.953, 744.356 629.192, 749.512 624.974, 749.701 " fill="none" stroke="rgb(0, 0, 0)" stroke-linecap="butt" stroke-linejoin="round" stroke-opacity="1.0" stroke-width="3.0" />
            <path d=" M 782.773, 910.927 783.798, 909.964 786.774, 905.179 789.781, 901.273 792.399, 895.881 795.557, 886.392 796.209, 884.434 798.759, 878.090 800.421, 870.619 802.456, 865.107 804.308, 858.652 806.129, 852.867 " fill="none" stroke="rgb(0, 0, 0)" stroke-linecap="butt" stroke-linejoin="round" stroke-opacity="1.0" stroke-width="3.0" />
            <path d=" M 907.377, 643.671 908.128, 640.535 910.654, 630.860 911.121, 629.070 911.571, 626.911 912.451, 619.864 912.871, 615.926 912.988, 608.343 912.628, 605.123 913.470, 595.158 913.810, 591.135 913.462, 582.285 913.350, 579.433 " fill="none" stroke="rgb(0, 0, 0)" stroke-linecap="butt" stroke-linejoin="round" stroke-opacity="1.0" stroke-width="3.0" />
            <path d=" M 733.634, 666.591 733.822, 666.821 736.206, 669.733 741.616, 670.297 751.339, 667.957 752.588, 667.656 760.507, 667.670 769.145, 665.642 778.958, 663.722 779.178, 663.679 784.855, 663.233 792.715, 660.767 794.540, 659.520 795.287, 659.008 795.971, 658.455 " fill="none" stroke="rgb(0, 0, 0)" stroke-linecap="butt" stroke-linejoin="round" stroke-opacity="1.0" stroke-width="3.0" />
            <path d=" M 723.114, 805.168 722.606, 805.651 719.755, 808.363 717.822, 811.302 714.186, 814.798 710.872, 818.078 707.430, 821.902 705.081, 824.483 702.558, 827.054 698.904, 830.611 695.619, 834.070 690.935, 839.207 689.068, 841.270 687.492, 842.901 682.944, 847.606 680.903, 849.679 677.761, 853.124 " fill="none" stroke="rgb(0, 0, 0)" stroke-linecap="butt" stroke-linejoin="round" stroke-opacity="1.0" stroke-width="3.0" />
            <path d=" M 840.851, 822.010 847.183, 819.568 853.036, 818.442 855.812, 815.687 859.229, 814.278 863.961, 812.949 865.705, 811.444 869.760, 807.261 871.484, 805.477 872.817, 804.355 875.889, 800.332 878.014, 794.870 881.262, 791.053 883.050, 785.690 884.323, 779.830 884.687, 778.155 " fill="none" stroke="rgb(0, 0, 0)" stroke-linecap="butt" stroke-linejoin="round" stroke-opacity="1.0" stroke-width="3.0" />
            <path d=" M 681.479, 869.964 681.024, 870.131 675.536, 872.150 671.816, 876.186 671.487, 878.846 671.869, 880.267 671.869, 880.268 673.402, 885.983 673.922, 887.736 673.948, 887.824 674.768, 890.589 676.692, 897.077 677.818, 900.876 680.250, 909.775 680.756, 911.625 681.874, 916.694 682.849, 921.118 684.929, 930.550 " fill="none" stroke="rgb(0, 0, 0)" stroke-linecap="butt" stroke-linejoin="round" stroke-opacity="1.0" stroke-width="3.0" />
            <path d=" M 768.383, 571.354 762.110, 575.001 759.580, 576.472 759.576, 576.475 759.530, 576.502 758.758, 576.951 756.673, 578.163 752.076, 580.484 743.149, 584.990 736.580, 588.306 730.715, 590.616 721.562, 594.643 712.408, 598.669 705.078, 601.894 704.710, 602.055 " fill="none" stroke="rgb(0, 0, 0)" stroke-linecap="butt" stroke-linejoin="round" stroke-opacity="1.0" stroke-width="3.0" />
            <path d=" M 515.261, 603.417 513.842, 602.826 512.015, 601.665 506.959, 599.032 505.430, 598.275 500.335, 595.998 491.342, 594.247 481.343, 594.386 479.999, 594.405 470.053, 595.443 465.408, 595.928 457.109, 597.476 451.846, 598.940 442.749, 601.660 " fill="none" stroke="rgb(0, 0, 0)" stroke-linecap="butt" stroke-linejoin="round" stroke-opacity="1.0" stroke-width="3.0" />
            <path d=" M 443.561, 1078.524 448.691, 1079.712 452.579, 1079.304 460.554, 1079.340 469.742, 1078.535 470.602, 1078.487 476.997, 1076.079 479.711, 1074.348 482.929, 1073.014 487.475, 1070.776 494.050, 1067.813 498.007, 1066.294 500.431, 1065.059 503.977, 1064.527 507.717, 1063.074 511.842, 1061.844 513.190, 1060.833 515.602, 1059.882 518.025, 1058.256 519.754, 1057.096 " fill="none" stroke="rgb(0, 0, 0)" stroke-linecap="butt" stroke-linejoin="round" stroke-opacity="1.0" stroke-width="3.0" />
            <path d=" M 445.789, 633.126 450.717, 632.473 455.548, 631.616 462.149, 629.960 467.674, 628.854 475.949, 628.347 479.674, 628.601 485.086, 628.792 490.336, 628.686 491.421, 628.664 491.427, 628.663 493.127, 628.629 497.600, 628.831 504.071, 628.713 508.794, 628.738 512.294, 628.653 515.830, 628.410 517.741, 627.812 518.466, 627.585 520.602, 626.916 520.844, 626.876 520.899, 626.867 523.224, 626.481 524.435, 626.280 524.538, 626.263 524.556, 626.260 526.428, 625.950 " fill="none" stroke="rgb(0, 0, 0)" stroke-linecap="butt" stroke-linejoin="round" stroke-opacity="1.0" stroke-width="3.0" />
            <path d=" M 576.699, 624.045 576.311, 623.906 576.233, 623.878 576.042, 623.809 573.939, 623.051 573.925, 623.046 572.580, 622.562 571.579, 622.201 571.283, 622.094 570.502, 621.813 569.554, 621.471 564.932, 619.807 559.884, 619.090 557.196, 618.709 556.434, 618.673 554.289, 618.574 550.792, 620.142 549.153, 622.330 547.892, 624.013 547.046, 625.142 544.459, 628.170 543.777, 629.541 543.771, 629.552 543.301, 630.498 542.788, 631.529 542.081, 632.951 541.896, 633.563 541.608, 634.520 541.042, 636.399 540.972, 636.633 540.912, 636.833 540.874, 636.960 540.806, 637.184 540.797, 637.215 540.624, 637.787 540.396, 638.545 540.204, 639.185 539.634, 641.076 539.648, 642.366 539.648, 642.370 539.690, 646.555 540.253, 648.194 540.288, 648.296 540.336, 648.436 540.370, 648.534 540.463, 648.805 540.540, 649.028 540.692, 649.470 541.036, 650.473 542.057, 652.600 543.240, 655.063 547.136, 660.798 548.870, 662.676 549.046, 662.866 551.083, 665.072 552.461, 666.566 552.576, 666.690 553.351, 667.530 554.167, 668.414 555.436, 669.788 555.832, 670.217 555.870, 670.258 556.691, 671.148 556.900, 671.374 " fill="none" stroke="rgb(0, 0, 0)" stroke-linecap="butt" stroke-linejoin="round" stroke-opacity="1.0" stroke-width="3.0" />
            <path d=" M 383.708, 877.966 379.627, 883.632 379.007, 884.493 378.372, 887.627 378.045, 891.949 375.836, 896.812 372.604, 905.828 368.979, 913.537 366.482, 921.103 363.981, 926.434 362.040, 931.525 361.358, 933.313 360.738, 935.499 358.292, 943.495 355.624, 952.272 353.414, 957.631 352.428, 959.855 352.289, 960.169 351.046, 962.975 350.908, 963.285 " fill="none" stroke="rgb(0, 0, 0)" stroke-linecap="butt" stroke-linejoin="round" stroke-opacity="1.0" stroke-width="3.0" />
            <path d=" M 649.110, 689.066 652.645, 688.197 652.876, 688.140 654.899, 687.643 655.183, 687.573 655.701, 687.446 657.935, 687.048 657.966, 687.043 659.032, 686.853 661.754, 686.369 667.359, 685.058 670.959, 682.523 672.977, 680.652 678.902, 676.333 684.506, 674.107 684.960, 673.927 686.291, 673.870 686.702, 674.072 688.791, 675.102 691.218, 675.264 693.393, 674.691 695.918, 675.625 699.579, 676.408 703.270, 676.599 706.312, 675.849 711.086, 670.594 716.174, 667.169 720.033, 666.304 723.413, 666.254 731.459, 665.879 733.822, 666.821 " fill="none" stroke="rgb(0, 0, 0)" stroke-linecap="butt" stroke-linejoin="round" stroke-opacity="1.0" stroke-width="3.0" />
            <path d=" M 588.729, 794.277 590.879, 791.042 591.312, 790.392 591.426, 790.220 591.631, 789.911 591.699, 789.810 594.982, 784.325 595.045, 784.220 597.153, 780.700 597.458, 780.190 598.125, 779.301 599.424, 777.571 599.488, 777.485 600.018, 776.781 600.078, 776.699 601.221, 775.177 602.955, 767.771 601.411, 762.327 596.012, 753.910 595.153, 752.571 591.169, 748.445 582.881, 742.849 581.291, 741.775 580.775, 741.427 578.959, 740.800 570.170, 737.765 568.065, 737.038 565.780, 736.620 565.467, 736.563 563.921, 736.281 563.398, 736.185 562.883, 736.091 561.107, 735.766 560.274, 735.614 559.861, 735.539 559.311, 735.438 556.632, 735.013 553.884, 734.577 551.851, 734.254 " fill="none" stroke="rgb(0, 0, 0)" stroke-linecap="butt" stroke-linejoin="round" stroke-opacity="1.0" stroke-width="3.0" />
            <path d=" M 600.560, 597.617 600.767, 597.469 602.944, 595.130 606.343, 591.480 613.540, 584.537 614.842, 583.281 622.087, 576.388 623.937, 574.628 626.487, 571.896 629.270, 568.787 628.970, 566.302 627.868, 564.539 626.306, 564.167 623.955, 564.396 615.011, 568.869 613.898, 569.425 606.546, 572.570 601.104, 575.827 593.061, 579.692 586.198, 584.570 578.560, 591.025 578.282, 591.260 " fill="none" stroke="rgb(0, 0, 0)" stroke-linecap="butt" stroke-linejoin="round" stroke-opacity="1.0" stroke-width="3.0" />
            <path d=" M 660.009, 977.516 663.489, 972.479 666.836, 963.056 666.959, 962.707 667.082, 962.363 667.095, 962.326 669.280, 954.127 671.530, 944.383 672.622, 939.658 673.617, 929.708 673.920, 926.677 674.289, 922.540 673.934, 912.546 673.847, 910.074 671.352, 900.391 671.145, 899.589 671.136, 899.554 671.101, 899.416 670.640, 897.628 667.848, 892.083 662.410, 883.691 662.047, 883.130 660.847, 882.241 656.549, 879.052 " fill="none" stroke="rgb(0, 0, 0)" stroke-linecap="butt" stroke-linejoin="round" stroke-opacity="1.0" stroke-width="3.0" />
            <path d=" M 837.890, 503.331 836.597, 502.910 832.896, 501.703 832.202, 501.477 830.346, 500.871 823.054, 499.758 814.405, 499.741 806.901, 499.948 796.988, 501.269 790.897, 502.080 781.967, 505.379 779.431, 508.053 779.484, 508.860 780.264, 510.036 785.198, 512.123 789.767, 512.178 797.953, 513.496 802.961, 515.596 805.723, 516.191 810.413, 518.138 814.139, 519.427 820.306, 522.733 822.219, 523.255 " fill="none" stroke="rgb(0, 0, 0)" stroke-linecap="butt" stroke-linejoin="round" stroke-opacity="1.0" stroke-width="3.0" />
            <path d=" M 572.585, 868.590 569.198, 865.949 565.821, 863.316 565.386, 862.977 562.682, 861.400 553.877, 856.659 547.080, 853.000 545.155, 852.114 544.739, 851.923 535.656, 847.741 534.044, 846.999 533.803, 846.888 524.177, 844.180 524.056, 844.146 523.697, 844.045 522.491, 843.706 512.784, 841.305 508.508, 840.247 504.874, 838.419 501.207, 837.999 494.973, 839.326 490.840, 840.881 489.248, 841.700 489.114, 841.769 488.865, 841.898 488.337, 842.170 488.060, 842.312 487.919, 842.385 487.824, 842.474 486.659, 843.562 486.550, 843.664 486.055, 844.126 486.048, 844.133 486.000, 844.178 482.898, 847.077 477.383, 854.675 477.401, 854.744 477.563, 855.362 477.597, 855.493 478.583, 859.254 478.637, 859.460 " fill="none" stroke="rgb(0, 0, 0)" stroke-linecap="butt" stroke-linejoin="round" stroke-opacity="1.0" stroke-width="3.0" />
            <path d=" M 306.636, 853.859 305.856, 854.237 302.995, 855.622 301.363, 860.002 300.151, 866.971 298.948, 870.253 299.243, 873.784 298.211, 875.737 298.020, 877.371 298.249, 885.200 299.858, 895.070 299.930, 895.512 300.248, 901.052 300.337, 904.026 302.018, 913.884 302.122, 914.496 302.908, 917.631 305.288, 922.397 306.243, 924.675 307.300, 930.245 308.150, 934.234 310.445, 939.112 311.396, 945.718 313.525, 948.460 317.383, 954.194 321.300, 957.458 323.774, 959.522 " fill="none" stroke="rgb(0, 0, 0)" stroke-linecap="butt" stroke-linejoin="round" stroke-opacity="1.0" stroke-width="3.0" />
            <path d=" M 751.868, 881.220 750.762, 882.267 750.516, 882.499 748.041, 885.187 746.338, 888.488 745.080, 891.630 744.977, 896.359 744.977, 896.386 744.929, 896.506 742.081, 903.750 740.869, 905.937 736.623, 912.102 733.548, 914.798 727.945, 918.417 726.116, 919.508 723.253, 925.842 722.584, 931.815 725.403, 936.167 729.411, 938.475 729.726, 938.656 730.194, 938.926 733.241, 940.680 736.893, 940.920 742.498, 940.148 745.262, 939.363 753.881, 934.290 754.825, 933.735 763.001, 927.976 766.635, 925.416 773.751, 919.952 774.601, 918.834 780.464, 913.823 782.773, 910.927 784.147, 909.203 " fill="none" stroke="rgb(0, 0, 0)" stroke-linecap="butt" stroke-linejoin="round" stroke-opacity="1.0" stroke-width="3.0" />
            <path d=" M 705.078, 601.894 701.490, 602.852 692.122, 606.350 688.582, 607.672 678.800, 609.748 673.379, 610.898 663.384, 611.231 653.894, 611.548 646.276, 611.292 636.337, 610.191 633.783, 609.908 626.658, 609.799 616.659, 609.636 616.134, 609.627 615.574, 609.671 607.789, 610.273 603.999, 610.722 599.269, 611.284 598.258, 611.404 597.402, 611.505 596.511, 611.637 596.490, 611.640 596.229, 611.679 592.822, 612.185 591.917, 612.319 591.652, 612.358 590.468, 612.601 586.934, 613.327 586.287, 613.460 585.969, 613.525 585.866, 613.546 585.547, 613.612 585.147, 613.694 585.127, 613.698 585.073, 613.709 585.047, 613.714 585.023, 613.719 583.852, 613.960 583.700, 613.991 582.524, 614.232 582.518, 614.234 581.858, 614.369 581.666, 614.409 581.514, 614.440 581.215, 614.501 579.346, 614.885 579.093, 614.932 579.090, 614.933 579.077, 614.935 578.785, 614.990 577.768, 615.180 577.736, 615.186 577.613, 615.209 576.520, 615.414 576.350, 615.445 576.100, 615.492 576.063, 615.499 572.550, 616.156 570.527, 616.535 567.814, 617.042 566.964, 617.249 561.927, 618.480 559.884, 619.090 " fill="none" stroke="rgb(0, 0, 0)" stroke-linecap="butt" stroke-linejoin="round" stroke-opacity="1.0" stroke-width="3.0" />
            <path d=" M 559.879, 994.920 561.811, 996.605 562.125, 997.164 563.949, 998.485 569.945, 998.650 576.508, 998.025 583.826, 995.594 590.952, 992.104 591.097, 991.968 591.482, 991.607 596.531, 986.879 599.226, 984.355 600.540, 982.628 601.398, 980.997 602.009, 979.836 604.102, 975.860 605.080, 972.290 606.871, 965.746 608.430, 955.868 609.376, 949.877 609.197, 939.879 609.128, 936.030 607.302, 927.879 607.048, 926.744 606.755, 925.435 606.258, 923.215 605.967, 921.916 605.505, 918.795 605.504, 918.792 604.431, 915.865 604.332, 915.593 604.191, 915.210 603.689, 913.839 602.601, 910.872 602.555, 910.746 601.886, 908.923 601.121, 907.406 600.761, 906.691 600.325, 905.826 600.195, 905.569 598.391, 902.256 595.593, 899.098 594.336, 897.071 591.900, 893.140 587.279, 884.271 584.243, 878.444 583.971, 877.647 582.763, 876.050 581.818, 875.408 580.630, 874.602 578.475, 873.140 " fill="none" stroke="rgb(0, 0, 0)" stroke-linecap="butt" stroke-linejoin="round" stroke-opacity="1.0" stroke-width="3.0" />
        </g>
    </g>
</svg>
