<?xml version='1.0' encoding='ascii'?>
<svg xmlns="http://www.w3.org/2000/svg" height="1280" version="1.1" width="1280">
    <g id="RenderLayer_LineSet" inkscape:groupmode="lineset" inkscape:label="RenderLayer_LineSet" xmlns:inkscape="http://www.inkscape.org/namespaces/inkscape">
        <g id="strokes" inkscape:groupmode="layer" inkscape:label="strokes" xmlns:inkscape="http://www.inkscape.org/namespaces/inkscape">
            <path d=" M 337.100, 750.251 338.731, 753.383 339.306, 755.964 340.932, 758.285 342.495, 762.238 347.062, 767.294 " fill="none" stroke="rgb(0, 0, 0)" stroke-linecap="butt" stroke-linejoin="round" stroke-opacity="1.0" stroke-width="3.0" />
            <path d=" M 690.469, 809.607 691.232, 807.470 692.110, 805.013 694.296, 800.637 694.740, 797.450 692.204, 790.619 692.179, 790.551 " fill="none" stroke="rgb(0, 0, 0)" stroke-linecap="butt" stroke-linejoin="round" stroke-opacity="1.0" stroke-width="3.0" />
            <path d=" M 419.589, 479.429 419.026, 478.963 416.628, 476.976 414.158, 478.034 407.988, 480.680 401.998, 484.710 " fill="none" stroke="rgb(0, 0, 0)" stroke-linecap="butt" stroke-linejoin="round" stroke-opacity="1.0" stroke-width="3.0" />
            <path d=" M 505.929, 988.972 506.458, 990.093 508.035, 992.528 511.730, 996.449 512.285, 997.037 512.389, 997.148 514.947, 1000.069 514.791, 999.809 513.548, 997.740 511.925, 995.271 511.559, 994.713 " fill="none" stroke="rgb(0, 0, 0)" stroke-linecap="butt" stroke-linejoin="round" stroke-opacity="1.0" stroke-width="3.0" />
            <path d=" M 680.463, 900.336 681.756, 898.471 684.294, 895.942 686.998, 893.247 688.023, 891.822 687.339, 887.288 686.798, 884.715 685.080, 883.390 " fill="none" stroke="rgb(0, 0, 0)" stroke-linecap="butt" stroke-linejoin="round" stroke-opacity="1.0" stroke-width="3.0" />
            <path d=" M 700.157, 660.821 701.276, 662.841 705.060, 669.665 705.358, 670.051 707.885, 673.323 711.544, 678.249 " fill="none" stroke="rgb(0, 0, 0)" stroke-linecap="butt" stroke-linejoin="round" stroke-opacity="1.0" stroke-width="3.0" />
            <path d=" M 684.801, 887.101 684.921, 885.201 685.080, 883.390 685.439, 879.313 685.891, 875.737 684.920, 873.852 680.122, 872.466 677.753, 872.308 " fill="none" stroke="rgb(0, 0, 0)" stroke-linecap="butt" stroke-linejoin="round" stroke-opacity="1.0" stroke-width="3.0" />
            <path d=" M 671.422, 910.779 674.959, 906.211 675.258, 905.825 675.393, 905.377 675.573, 904.777 675.861, 903.822 675.936, 903.574 675.463, 901.938 675.194, 901.457 675.184, 901.439 673.750, 898.871 673.296, 896.065 673.266, 895.874 672.947, 894.391 672.271, 892.508 672.049, 891.891 " fill="none" stroke="rgb(0, 0, 0)" stroke-linecap="butt" stroke-linejoin="round" stroke-opacity="1.0" stroke-width="3.0" />
            <path d=" M 884.766, 684.466 884.694, 683.884 883.864, 677.231 883.072, 667.262 882.924, 665.400 882.509, 663.547 " fill="none" stroke="rgb(0, 0, 0)" stroke-linecap="butt" stroke-linejoin="round" stroke-opacity="1.0" stroke-width="3.0" />
            <path d=" M 318.052, 699.121 319.123, 703.777 320.305, 709.312 320.490, 710.179 322.189, 716.051 322.247, 716.093 325.149, 718.227 " fill="none" stroke="rgb(0, 0, 0)" stroke-linecap="butt" stroke-linejoin="round" stroke-opacity="1.0" stroke-width="3.0" />
            <path d=" M 679.113, 890.642 679.087, 890.097 678.930, 886.783 676.822, 882.375 675.945, 881.002 675.773, 880.731 675.362, 880.088 674.917, 879.391 673.355, 876.730 673.126, 876.340 671.841, 874.608 671.039, 873.527 670.228, 872.433 669.865, 871.943 " fill="none" stroke="rgb(0, 0, 0)" stroke-linecap="butt" stroke-linejoin="round" stroke-opacity="1.0" stroke-width="3.0" />
            <path d=" M 333.193, 741.424 333.080, 742.089 333.633, 745.675 334.420, 747.396 337.100, 750.251 337.877, 751.079 340.190, 754.744 343.467, 759.191 343.710, 759.486 " fill="none" stroke="rgb(0, 0, 0)" stroke-linecap="butt" stroke-linejoin="round" stroke-opacity="1.0" stroke-width="3.0" />
            <path d=" M 322.820, 565.421 321.462, 568.608 319.600, 573.931 317.646, 582.422 317.348, 586.089 " fill="none" stroke="rgb(0, 0, 0)" stroke-linecap="butt" stroke-linejoin="round" stroke-opacity="1.0" stroke-width="3.0" />
            <path d=" M 606.769, 451.191 610.920, 453.506 616.375, 454.269 619.248, 453.576 619.487, 453.518 624.055, 452.414 627.554, 452.124 " fill="none" stroke="rgb(0, 0, 0)" stroke-linecap="butt" stroke-linejoin="round" stroke-opacity="1.0" stroke-width="3.0" />
            <path d=" M 672.255, 917.918 672.226, 917.768 672.182, 917.541 671.848, 915.829 671.367, 913.355 671.245, 912.732 670.968, 911.310 670.802, 910.457 670.703, 910.423 670.603, 910.387 670.049, 910.193 670.017, 910.182 670.010, 910.179 669.877, 910.133 669.872, 910.131 669.872, 910.131 669.660, 910.057 669.412, 909.970 669.359, 909.951 668.883, 909.784 668.443, 909.640 668.350, 909.610 668.015, 909.501 667.974, 909.488 667.764, 909.419 667.374, 909.292 666.344, 908.956 666.270, 908.932 664.592, 908.385 664.561, 908.304 663.926, 906.649 663.822, 906.378 662.937, 904.070 662.875, 903.908 662.724, 903.515 661.880, 901.315 " fill="none" stroke="rgb(0, 0, 0)" stroke-linecap="butt" stroke-linejoin="round" stroke-opacity="1.0" stroke-width="3.0" />
            <path d=" M 642.483, 984.536 642.702, 981.703 642.702, 981.703 642.750, 981.079 642.920, 980.561 643.335, 979.299 645.533, 977.738 648.351, 975.228 651.725, 971.433 653.044, 969.824 653.439, 969.342 654.002, 968.555 654.255, 968.201 654.438, 967.491 " fill="none" stroke="rgb(0, 0, 0)" stroke-linecap="butt" stroke-linejoin="round" stroke-opacity="1.0" stroke-width="3.0" />
            <path d=" M 637.555, 714.785 641.493, 723.034 643.247, 726.708 643.858, 727.988 644.946, 730.618 644.963, 730.659 646.581, 734.572 " fill="none" stroke="rgb(0, 0, 0)" stroke-linecap="butt" stroke-linejoin="round" stroke-opacity="1.0" stroke-width="3.0" />
            <path d=" M 778.049, 459.365 777.223, 458.799 773.748, 456.416 768.273, 454.537 766.474, 454.326 763.695, 452.924 760.096, 451.724 758.034, 451.232 " fill="none" stroke="rgb(0, 0, 0)" stroke-linecap="butt" stroke-linejoin="round" stroke-opacity="1.0" stroke-width="3.0" />
            <path d=" M 863.640, 801.653 868.294, 795.288 872.254, 789.754 872.973, 788.576 873.078, 788.404 876.055, 783.529 " fill="none" stroke="rgb(0, 0, 0)" stroke-linecap="butt" stroke-linejoin="round" stroke-opacity="1.0" stroke-width="3.0" />
            <path d=" M 655.108, 905.355 655.120, 905.296 655.131, 905.244 655.188, 904.973 655.230, 904.771 655.262, 904.619 655.399, 903.967 655.762, 902.232 655.953, 901.447 656.010, 901.210 656.244, 900.252 657.764, 894.007 658.810, 892.348 660.107, 889.285 661.935, 884.967 662.088, 884.607 662.110, 884.553 662.141, 884.482 " fill="none" stroke="rgb(0, 0, 0)" stroke-linecap="butt" stroke-linejoin="round" stroke-opacity="1.0" stroke-width="3.0" />
            <path d=" M 660.814, 885.997 661.721, 884.961 662.043, 884.594 662.084, 884.546 662.141, 884.482 662.578, 883.983 662.604, 883.953 662.724, 883.816 662.901, 883.614 663.477, 882.956 663.601, 882.815 664.196, 882.135 664.606, 881.365 664.607, 881.363 664.988, 880.648 665.000, 880.627 665.787, 879.150 666.040, 878.674 666.599, 877.627 666.730, 877.380 668.086, 874.836 668.337, 874.365 668.476, 874.104 668.476, 874.104 668.476, 874.104 668.827, 873.446 669.504, 872.618 669.629, 872.466 669.865, 871.943 670.228, 871.138 671.598, 868.101 671.980, 867.005 " fill="none" stroke="rgb(0, 0, 0)" stroke-linecap="butt" stroke-linejoin="round" stroke-opacity="1.0" stroke-width="3.0" />
            <path d=" M 572.559, 780.096 574.072, 778.712 574.124, 778.665 574.144, 778.646 574.167, 778.625 574.936, 777.922 574.962, 777.898 575.117, 777.756 575.272, 777.615 575.920, 777.022 576.250, 776.720 576.432, 776.554 576.635, 776.368 577.014, 776.021 577.615, 775.471 578.062, 775.063 578.206, 774.919 578.493, 774.632 578.768, 774.358 578.871, 774.255 578.984, 774.143 579.860, 773.268 580.474, 772.655 582.285, 770.848 584.315, 768.146 584.723, 767.601 584.857, 767.423 585.079, 767.127 585.163, 767.016 585.170, 767.006 587.561, 763.823 " fill="none" stroke="rgb(0, 0, 0)" stroke-linecap="butt" stroke-linejoin="round" stroke-opacity="1.0" stroke-width="3.0" />
            <path d=" M 651.492, 763.299 651.797, 764.316 654.344, 772.823 655.800, 779.314 657.356, 784.796 " fill="none" stroke="rgb(0, 0, 0)" stroke-linecap="butt" stroke-linejoin="round" stroke-opacity="1.0" stroke-width="3.0" />
            <path d=" M 797.282, 566.617 799.050, 568.808 797.901, 567.697 797.743, 567.544 793.898, 562.828 793.694, 562.578 793.395, 562.212 792.467, 561.160 790.551, 558.990 785.592, 556.406 784.604, 556.491 " fill="none" stroke="rgb(0, 0, 0)" stroke-linecap="butt" stroke-linejoin="round" stroke-opacity="1.0" stroke-width="3.0" />
            <path d=" M 401.209, 440.692 399.176, 439.064 398.666, 438.657 397.357, 436.043 395.965, 432.861 393.380, 431.075 389.293, 430.375 387.051, 430.208 385.673, 430.389 384.057, 431.263 " fill="none" stroke="rgb(0, 0, 0)" stroke-linecap="butt" stroke-linejoin="round" stroke-opacity="1.0" stroke-width="3.0" />
            <path d=" M 318.411, 680.014 321.167, 689.627 321.780, 691.765 322.419, 694.548 323.239, 698.119 323.252, 698.174 324.100, 701.866 " fill="none" stroke="rgb(0, 0, 0)" stroke-linecap="butt" stroke-linejoin="round" stroke-opacity="1.0" stroke-width="3.0" />
            <path d=" M 308.573, 601.580 307.720, 601.986 306.087, 603.093 304.948, 604.126 301.704, 610.180 300.130, 614.824 299.794, 617.849 299.369, 621.043 299.336, 621.295 " fill="none" stroke="rgb(0, 0, 0)" stroke-linecap="butt" stroke-linejoin="round" stroke-opacity="1.0" stroke-width="3.0" />
            <path d=" M 360.271, 513.916 353.961, 521.674 352.968, 522.894 346.715, 530.698 345.953, 531.649 " fill="none" stroke="rgb(0, 0, 0)" stroke-linecap="butt" stroke-linejoin="round" stroke-opacity="1.0" stroke-width="3.0" />
            <path d=" M 780.469, 721.163 780.470, 721.169 780.482, 721.298 780.194, 721.540 776.299, 724.811 774.122, 725.626 770.798, 729.148 768.701, 732.728 766.345, 736.663 765.682, 737.771 " fill="none" stroke="rgb(0, 0, 0)" stroke-linecap="butt" stroke-linejoin="round" stroke-opacity="1.0" stroke-width="3.0" />
            <path d=" M 433.525, 878.886 434.975, 882.646 437.629, 886.971 443.672, 894.938 444.432, 895.940 446.723, 894.866 " fill="none" stroke="rgb(0, 0, 0)" stroke-linecap="butt" stroke-linejoin="round" stroke-opacity="1.0" stroke-width="3.0" />
            <path d=" M 352.989, 551.256 352.697, 552.127 349.516, 561.608 349.265, 562.353 347.694, 567.573 346.016, 573.150 " fill="none" stroke="rgb(0, 0, 0)" stroke-linecap="butt" stroke-linejoin="round" stroke-opacity="1.0" stroke-width="3.0" />
            <path d=" M 704.060, 460.718 696.464, 462.122 689.356, 461.249 681.422, 459.533 " fill="none" stroke="rgb(0, 0, 0)" stroke-linecap="butt" stroke-linejoin="round" stroke-opacity="1.0" stroke-width="3.0" />
            <path d=" M 859.088, 540.637 861.606, 535.449 861.712, 535.184 861.834, 532.404 861.763, 529.290 861.418, 528.855 859.454, 526.377 858.820, 525.578 858.441, 525.100 856.682, 523.279 852.819, 522.661 " fill="none" stroke="rgb(0, 0, 0)" stroke-linecap="butt" stroke-linejoin="round" stroke-opacity="1.0" stroke-width="3.0" />
            <path d=" M 882.675, 664.602 882.509, 663.547 881.121, 654.725 880.806, 652.785 880.087, 649.543 878.890, 643.398 878.006, 641.181 " fill="none" stroke="rgb(0, 0, 0)" stroke-linecap="butt" stroke-linejoin="round" stroke-opacity="1.0" stroke-width="3.0" />
            <path d=" M 555.321, 800.763 558.263, 796.481 558.319, 796.399 560.822, 792.757 563.481, 789.822 564.010, 789.239 564.958, 788.193 567.747, 785.115 567.787, 785.070 568.041, 784.785 568.926, 783.792 569.276, 783.399 569.466, 783.186 569.611, 783.024 570.380, 782.161 " fill="none" stroke="rgb(0, 0, 0)" stroke-linecap="butt" stroke-linejoin="round" stroke-opacity="1.0" stroke-width="3.0" />
            <path d=" M 706.261, 679.498 703.869, 689.208 703.696, 689.910 700.984, 696.429 697.859, 701.880 " fill="none" stroke="rgb(0, 0, 0)" stroke-linecap="butt" stroke-linejoin="round" stroke-opacity="1.0" stroke-width="3.0" />
            <path d=" M 638.060, 611.565 638.651, 607.973 638.665, 607.888 638.690, 607.733 638.645, 607.564 638.163, 605.769 638.155, 605.738 637.951, 604.981 632.016, 601.630 628.737, 601.756 628.589, 601.762 625.289, 601.028 625.263, 601.023 624.988, 600.961 621.601, 600.208 " fill="none" stroke="rgb(0, 0, 0)" stroke-linecap="butt" stroke-linejoin="round" stroke-opacity="1.0" stroke-width="3.0" />
            <path d=" M 299.369, 621.043 297.530, 626.380 297.492, 632.433 297.490, 632.645 297.478, 634.544 297.715, 635.583 298.001, 636.834 299.575, 638.867 304.434, 641.613 " fill="none" stroke="rgb(0, 0, 0)" stroke-linecap="butt" stroke-linejoin="round" stroke-opacity="1.0" stroke-width="3.0" />
            <path d=" M 509.470, 1006.970 509.712, 1007.540 513.625, 1016.743 513.726, 1016.979 516.637, 1021.660 519.924, 1025.151 521.606, 1026.624 522.765, 1026.976 " fill="none" stroke="rgb(0, 0, 0)" stroke-linecap="butt" stroke-linejoin="round" stroke-opacity="1.0" stroke-width="3.0" />
            <path d=" M 427.852, 506.718 428.243, 506.782 428.379, 506.804 428.686, 506.855 435.522, 507.978 435.544, 507.982 435.768, 508.019 439.279, 508.596 440.713, 508.832 440.809, 508.848 450.562, 511.059 452.038, 511.394 " fill="none" stroke="rgb(0, 0, 0)" stroke-linecap="butt" stroke-linejoin="round" stroke-opacity="1.0" stroke-width="3.0" />
            <path d=" M 413.467, 474.457 410.845, 474.129 410.671, 474.108 410.266, 474.057 409.961, 474.019 409.740, 473.990 409.331, 473.935 406.464, 473.556 402.892, 473.872 397.595, 472.772 397.190, 472.688 397.100, 472.669 396.881, 472.624 396.423, 472.529 396.400, 472.524 394.459, 472.121 389.777, 468.970 " fill="none" stroke="rgb(0, 0, 0)" stroke-linecap="butt" stroke-linejoin="round" stroke-opacity="1.0" stroke-width="3.0" />
            <path d=" M 780.500, 753.806 779.966, 753.995 778.041, 755.903 774.356, 760.871 769.534, 765.413 765.946, 769.379 766.087, 771.940 766.867, 772.409 " fill="none" stroke="rgb(0, 0, 0)" stroke-linecap="butt" stroke-linejoin="round" stroke-opacity="1.0" stroke-width="3.0" />
            <path d=" M 676.789, 569.932 680.447, 569.439 680.867, 569.071 681.801, 568.250 682.490, 565.694 680.185, 560.740 678.343, 558.684 677.821, 558.102 677.597, 557.799 675.466, 554.925 674.243, 552.930 673.430, 551.602 " fill="none" stroke="rgb(0, 0, 0)" stroke-linecap="butt" stroke-linejoin="round" stroke-opacity="1.0" stroke-width="3.0" />
            <path d=" M 433.870, 457.267 433.341, 457.243 432.321, 457.197 431.697, 457.169 431.470, 457.159 431.197, 457.147 430.888, 457.133 427.630, 456.986 427.359, 456.974 422.497, 456.755 421.615, 456.504 411.995, 453.772 410.766, 453.423 410.716, 453.409 409.370, 453.027 " fill="none" stroke="rgb(0, 0, 0)" stroke-linecap="butt" stroke-linejoin="round" stroke-opacity="1.0" stroke-width="3.0" />
            <path d=" M 874.651, 783.917 878.208, 777.663 879.543, 773.776 881.245, 770.318 881.676, 769.441 883.656, 764.862 884.468, 761.008 " fill="none" stroke="rgb(0, 0, 0)" stroke-linecap="butt" stroke-linejoin="round" stroke-opacity="1.0" stroke-width="3.0" />
            <path d=" M 371.128, 736.566 372.576, 741.817 373.755, 747.044 373.363, 748.926 373.591, 751.582 373.616, 751.875 373.699, 752.034 374.311, 753.209 376.514, 757.437 376.736, 757.955 376.839, 758.194 377.278, 759.218 377.769, 760.363 " fill="none" stroke="rgb(0, 0, 0)" stroke-linecap="butt" stroke-linejoin="round" stroke-opacity="1.0" stroke-width="3.0" />
            <path d=" M 685.480, 625.802 685.531, 625.614 685.206, 615.619 685.118, 612.930 685.143, 612.742 685.264, 611.821 685.270, 611.781 685.582, 609.411 685.777, 607.923 685.836, 607.475 685.923, 606.818 685.972, 606.443 686.729, 600.696 " fill="none" stroke="rgb(0, 0, 0)" stroke-linecap="butt" stroke-linejoin="round" stroke-opacity="1.0" stroke-width="3.0" />
            <path d=" M 530.211, 964.499 536.499, 965.680 544.073, 966.267 548.186, 966.425 555.365, 966.510 " fill="none" stroke="rgb(0, 0, 0)" stroke-linecap="butt" stroke-linejoin="round" stroke-opacity="1.0" stroke-width="3.0" />
            <path d=" M 810.306, 747.561 807.746, 750.353 804.688, 754.324 803.617, 758.249 804.709, 760.952 805.519, 761.401 806.992, 762.175 809.344, 761.616 811.634, 760.940 812.509, 760.744 813.721, 760.473 " fill="none" stroke="rgb(0, 0, 0)" stroke-linecap="butt" stroke-linejoin="round" stroke-opacity="1.0" stroke-width="3.0" />
            <path d=" M 654.002, 968.555 660.131, 966.287 663.097, 964.513 667.578, 959.429 668.756, 956.897 670.759, 953.253 671.241, 952.164 671.542, 951.466 " fill="none" stroke="rgb(0, 0, 0)" stroke-linecap="butt" stroke-linejoin="round" stroke-opacity="1.0" stroke-width="3.0" />
            <path d=" M 683.244, 937.782 681.839, 941.611 682.686, 939.194 682.964, 938.194 683.244, 937.782 687.551, 931.449 687.126, 927.389 685.196, 925.479 682.157, 925.178 " fill="none" stroke="rgb(0, 0, 0)" stroke-linecap="butt" stroke-linejoin="round" stroke-opacity="1.0" stroke-width="3.0" />
            <path d=" M 304.175, 668.917 304.760, 670.781 307.274, 678.670 307.850, 683.200 308.559, 685.077 309.936, 687.345 311.570, 690.326 311.768, 690.687 314.237, 691.545 " fill="none" stroke="rgb(0, 0, 0)" stroke-linecap="butt" stroke-linejoin="round" stroke-opacity="1.0" stroke-width="3.0" />
            <path d=" M 460.660, 450.910 459.048, 449.118 456.699, 447.403 451.038, 443.961 446.693, 442.173 439.184, 442.974 437.367, 443.288 " fill="none" stroke="rgb(0, 0, 0)" stroke-linecap="butt" stroke-linejoin="round" stroke-opacity="1.0" stroke-width="3.0" />
            <path d=" M 371.202, 810.266 373.561, 814.920 376.793, 818.787 378.389, 821.563 381.075, 824.551 381.373, 824.881 383.593, 827.350 385.126, 829.055 386.541, 831.123 " fill="none" stroke="rgb(0, 0, 0)" stroke-linecap="butt" stroke-linejoin="round" stroke-opacity="1.0" stroke-width="3.0" />
            <path d=" M 382.448, 836.268 386.149, 841.742 390.524, 846.030 398.525, 852.030 399.834, 853.012 400.946, 854.416 " fill="none" stroke="rgb(0, 0, 0)" stroke-linecap="butt" stroke-linejoin="round" stroke-opacity="1.0" stroke-width="3.0" />
            <path d=" M 498.809, 983.447 502.790, 992.621 504.896, 997.472 507.054, 1001.933 509.470, 1006.970 509.719, 1007.487 " fill="none" stroke="rgb(0, 0, 0)" stroke-linecap="butt" stroke-linejoin="round" stroke-opacity="1.0" stroke-width="3.0" />
            <path d=" M 333.259, 543.772 329.310, 548.099 327.534, 553.049 327.358, 553.540 325.053, 557.690 324.447, 559.823 324.400, 559.987 323.598, 562.815 322.820, 565.421 322.255, 567.316 " fill="none" stroke="rgb(0, 0, 0)" stroke-linecap="butt" stroke-linejoin="round" stroke-opacity="1.0" stroke-width="3.0" />
            <path d=" M 410.766, 453.423 409.000, 451.336 408.555, 450.810 408.455, 450.691 408.272, 450.475 407.722, 449.825 407.024, 448.999 403.381, 446.648 397.878, 441.234 394.829, 433.205 " fill="none" stroke="rgb(0, 0, 0)" stroke-linecap="butt" stroke-linejoin="round" stroke-opacity="1.0" stroke-width="3.0" />
            <path d=" M 641.996, 693.421 641.034, 691.502 640.699, 690.835 640.339, 690.116 640.269, 689.977 640.128, 689.695 639.716, 688.872 639.714, 688.869 639.680, 688.803 639.306, 688.055 639.262, 687.967 639.174, 687.791 636.075, 681.610 635.124, 679.713 633.823, 677.116 633.604, 676.681 633.085, 675.165 633.082, 675.155 633.017, 674.965 631.102, 669.376 " fill="none" stroke="rgb(0, 0, 0)" stroke-linecap="butt" stroke-linejoin="round" stroke-opacity="1.0" stroke-width="3.0" />
            <path d=" M 311.570, 690.326 312.860, 693.940 314.080, 697.347 315.637, 700.571 316.262, 704.801 316.394, 705.587 318.211, 709.280 320.155, 714.155 320.573, 715.202 " fill="none" stroke="rgb(0, 0, 0)" stroke-linecap="butt" stroke-linejoin="round" stroke-opacity="1.0" stroke-width="3.0" />
            <path d=" M 457.369, 453.738 452.332, 453.090 451.008, 452.920 449.299, 453.185 445.426, 453.786 444.343, 453.954 438.957, 453.615 437.716, 453.137 436.985, 452.856 434.035, 451.720 433.949, 451.686 431.956, 450.919 431.446, 450.723 " fill="none" stroke="rgb(0, 0, 0)" stroke-linecap="butt" stroke-linejoin="round" stroke-opacity="1.0" stroke-width="3.0" />
            <path d=" M 614.333, 983.773 615.699, 983.160 622.812, 979.970 631.900, 975.797 634.226, 974.729 638.435, 972.451 " fill="none" stroke="rgb(0, 0, 0)" stroke-linecap="butt" stroke-linejoin="round" stroke-opacity="1.0" stroke-width="3.0" />
            <path d=" M 508.575, 959.200 512.177, 960.715 512.444, 960.821 514.533, 961.441 514.607, 961.463 519.930, 963.043 523.644, 963.700 530.211, 964.499 530.948, 964.568 534.484, 964.676 " fill="none" stroke="rgb(0, 0, 0)" stroke-linecap="butt" stroke-linejoin="round" stroke-opacity="1.0" stroke-width="3.0" />
            <path d=" M 391.352, 805.866 394.016, 810.942 394.462, 812.361 395.926, 817.024 396.228, 817.620 398.490, 822.074 404.615, 828.623 " fill="none" stroke="rgb(0, 0, 0)" stroke-linecap="butt" stroke-linejoin="round" stroke-opacity="1.0" stroke-width="3.0" />
            <path d=" M 339.763, 556.317 337.411, 564.091 337.421, 566.587 335.422, 575.424 333.330, 580.378 332.606, 582.087 " fill="none" stroke="rgb(0, 0, 0)" stroke-linecap="butt" stroke-linejoin="round" stroke-opacity="1.0" stroke-width="3.0" />
            <path d=" M 595.351, 1066.417 596.848, 1066.699 602.026, 1065.749 604.597, 1064.211 605.479, 1063.767 609.941, 1061.521 611.279, 1060.848 611.489, 1060.742 612.051, 1060.819 613.437, 1061.006 614.485, 1061.148 614.759, 1061.185 616.245, 1061.386 617.617, 1061.332 618.380, 1060.485 620.229, 1059.410 " fill="none" stroke="rgb(0, 0, 0)" stroke-linecap="butt" stroke-linejoin="round" stroke-opacity="1.0" stroke-width="3.0" />
            <path d=" M 857.870, 846.487 858.638, 845.596 859.530, 844.563 860.709, 842.859 862.030, 838.518 864.809, 830.158 867.507, 821.264 " fill="none" stroke="rgb(0, 0, 0)" stroke-linecap="butt" stroke-linejoin="round" stroke-opacity="1.0" stroke-width="3.0" />
            <path d=" M 381.306, 788.630 382.128, 790.293 383.429, 792.926 385.724, 795.585 387.332, 799.679 388.952, 803.803 390.211, 805.437 391.339, 808.551 394.462, 812.361 " fill="none" stroke="rgb(0, 0, 0)" stroke-linecap="butt" stroke-linejoin="round" stroke-opacity="1.0" stroke-width="3.0" />
            <path d=" M 806.649, 542.267 800.960, 542.934 799.102, 543.152 798.567, 543.630 797.107, 544.934 794.987, 550.737 794.808, 554.807 793.487, 560.144 792.467, 561.160 " fill="none" stroke="rgb(0, 0, 0)" stroke-linecap="butt" stroke-linejoin="round" stroke-opacity="1.0" stroke-width="3.0" />
            <path d=" M 835.755, 524.279 838.192, 523.165 843.888, 520.413 851.382, 522.282 852.819, 522.661 847.613, 521.177 845.586, 520.416 843.888, 520.413 " fill="none" stroke="rgb(0, 0, 0)" stroke-linecap="butt" stroke-linejoin="round" stroke-opacity="1.0" stroke-width="3.0" />
            <path d=" M 655.045, 983.060 655.785, 982.360 660.954, 976.278 663.619, 973.204 663.820, 971.167 663.928, 969.981 660.546, 968.761 655.137, 969.863 653.044, 969.824 " fill="none" stroke="rgb(0, 0, 0)" stroke-linecap="butt" stroke-linejoin="round" stroke-opacity="1.0" stroke-width="3.0" />
            <path d=" M 795.222, 513.508 796.566, 511.412 796.672, 511.137 797.825, 508.163 798.309, 499.952 798.823, 494.747 798.687, 488.199 798.427, 486.504 " fill="none" stroke="rgb(0, 0, 0)" stroke-linecap="butt" stroke-linejoin="round" stroke-opacity="1.0" stroke-width="3.0" />
            <path d=" M 644.345, 1007.119 644.809, 1006.824 648.789, 1003.818 649.686, 1003.112 651.295, 1001.497 652.305, 999.503 652.496, 999.127 652.693, 998.738 653.372, 997.398 651.041, 995.906 646.893, 996.411 642.499, 996.016 639.680, 996.561 " fill="none" stroke="rgb(0, 0, 0)" stroke-linecap="butt" stroke-linejoin="round" stroke-opacity="1.0" stroke-width="3.0" />
            <path d=" M 327.777, 566.161 326.143, 572.152 325.846, 576.288 323.031, 583.157 322.351, 586.723 320.181, 592.941 320.101, 593.066 " fill="none" stroke="rgb(0, 0, 0)" stroke-linecap="butt" stroke-linejoin="round" stroke-opacity="1.0" stroke-width="3.0" />
            <path d=" M 330.335, 719.020 330.626, 720.559 330.690, 720.893 331.331, 724.281 331.726, 725.335 333.773, 730.801 334.028, 731.410 334.042, 731.441 335.652, 735.278 335.681, 735.346 341.002, 740.177 341.371, 740.512 343.895, 742.575 " fill="none" stroke="rgb(0, 0, 0)" stroke-linecap="butt" stroke-linejoin="round" stroke-opacity="1.0" stroke-width="3.0" />
            <path d=" M 788.533, 618.766 789.334, 618.742 792.466, 618.651 794.970, 617.572 796.622, 615.468 800.654, 610.004 805.899, 601.490 806.374, 600.720 807.090, 599.557 " fill="none" stroke="rgb(0, 0, 0)" stroke-linecap="butt" stroke-linejoin="round" stroke-opacity="1.0" stroke-width="3.0" />
            <path d=" M 466.358, 451.446 467.797, 450.362 472.338, 446.942 475.574, 444.614 485.542, 443.811 486.739, 443.715 484.029, 445.278 481.577, 446.864 " fill="none" stroke="rgb(0, 0, 0)" stroke-linecap="butt" stroke-linejoin="round" stroke-opacity="1.0" stroke-width="3.0" />
            <path d=" M 322.705, 567.207 320.964, 570.648 319.120, 576.394 318.631, 580.197 318.270, 583.002 317.859, 584.378 317.348, 586.089 316.362, 589.622 315.762, 594.277 315.682, 595.126 " fill="none" stroke="rgb(0, 0, 0)" stroke-linecap="butt" stroke-linejoin="round" stroke-opacity="1.0" stroke-width="3.0" />
            <path d=" M 662.871, 671.764 668.555, 668.083 671.848, 666.286 674.025, 664.578 676.818, 659.581 677.057, 655.275 679.881, 649.495 " fill="none" stroke="rgb(0, 0, 0)" stroke-linecap="butt" stroke-linejoin="round" stroke-opacity="1.0" stroke-width="3.0" />
            <path d=" M 667.051, 956.052 668.419, 955.014 670.126, 953.718 670.240, 953.632 670.457, 953.257 671.343, 951.729 671.477, 951.499 671.647, 951.205 671.672, 951.161 672.908, 949.029 675.589, 944.504 676.159, 943.683 676.745, 939.509 678.333, 936.758 680.124, 931.279 680.284, 929.966 " fill="none" stroke="rgb(0, 0, 0)" stroke-linecap="butt" stroke-linejoin="round" stroke-opacity="1.0" stroke-width="3.0" />
            <path d=" M 784.495, 709.241 784.614, 709.188 784.812, 709.099 784.816, 709.097 786.160, 708.497 787.489, 707.915 788.441, 707.498 788.450, 707.494 788.485, 707.479 793.038, 705.484 794.526, 704.832 797.614, 703.722 799.673, 703.000 803.201, 701.765 805.323, 701.229 805.855, 701.095 805.940, 701.074 806.644, 700.896 810.110, 700.153 812.880, 699.560 " fill="none" stroke="rgb(0, 0, 0)" stroke-linecap="butt" stroke-linejoin="round" stroke-opacity="1.0" stroke-width="3.0" />
            <path d=" M 331.183, 584.354 327.198, 587.418 327.160, 587.446 322.794, 592.083 321.737, 592.519 321.599, 592.576 319.989, 593.242 319.427, 593.474 318.972, 593.662 317.831, 594.133 317.709, 594.183 315.895, 594.933 315.860, 594.965 315.682, 595.126 315.604, 595.196 315.000, 595.744 314.811, 595.915 313.068, 597.494 312.224, 598.982 311.730, 599.371 308.573, 601.580 307.464, 602.356 " fill="none" stroke="rgb(0, 0, 0)" stroke-linecap="butt" stroke-linejoin="round" stroke-opacity="1.0" stroke-width="3.0" />
            <path d=" M 667.178, 857.999 667.846, 857.039 667.947, 856.894 672.870, 849.819 672.872, 849.815 678.073, 841.274 680.586, 837.146 683.162, 832.258 " fill="none" stroke="rgb(0, 0, 0)" stroke-linecap="butt" stroke-linejoin="round" stroke-opacity="1.0" stroke-width="3.0" />
            <path d=" M 867.828, 609.792 867.920, 605.633 867.769, 602.633 867.748, 602.230 867.742, 602.152 867.411, 598.204 866.520, 589.886 865.317, 587.825 865.213, 585.372 863.660, 579.761 " fill="none" stroke="rgb(0, 0, 0)" stroke-linecap="butt" stroke-linejoin="round" stroke-opacity="1.0" stroke-width="3.0" />
            <path d=" M 594.338, 929.862 594.384, 929.923 595.517, 931.428 600.864, 938.634 604.174, 942.230 604.497, 942.584 605.981, 944.210 610.182, 947.228 615.288, 950.903 615.967, 951.391 " fill="none" stroke="rgb(0, 0, 0)" stroke-linecap="butt" stroke-linejoin="round" stroke-opacity="1.0" stroke-width="3.0" />
            <path d=" M 354.944, 781.651 354.823, 784.564 355.495, 791.885 356.330, 796.505 357.974, 802.669 359.964, 806.599 363.032, 810.851 " fill="none" stroke="rgb(0, 0, 0)" stroke-linecap="butt" stroke-linejoin="round" stroke-opacity="1.0" stroke-width="3.0" />
            <path d=" M 660.517, 691.328 655.130, 688.914 655.118, 688.908 653.433, 688.153 653.312, 688.099 653.089, 687.999 645.677, 685.666 644.759, 684.708 644.600, 684.542 644.461, 684.397 643.849, 683.759 643.578, 683.475 643.414, 683.305 640.616, 680.385 636.065, 676.949 635.962, 674.719 " fill="none" stroke="rgb(0, 0, 0)" stroke-linecap="butt" stroke-linejoin="round" stroke-opacity="1.0" stroke-width="3.0" />
            <path d=" M 439.117, 455.649 436.238, 454.547 435.608, 454.337 435.260, 454.221 432.910, 453.438 432.486, 453.565 429.300, 454.522 427.419, 454.325 427.383, 454.322 426.221, 454.201 426.155, 454.194 424.348, 454.005 424.159, 453.985 423.388, 453.905 423.097, 453.785 422.986, 453.739 422.950, 453.724 422.659, 453.605 422.640, 453.597 422.439, 453.514 418.730, 451.987 413.852, 451.452 409.012, 450.605 " fill="none" stroke="rgb(0, 0, 0)" stroke-linecap="butt" stroke-linejoin="round" stroke-opacity="1.0" stroke-width="3.0" />
            <path d=" M 296.648, 634.378 297.766, 637.225 297.574, 638.090 298.434, 642.386 298.455, 646.409 298.647, 648.500 298.883, 651.278 300.460, 656.140 302.527, 664.081 302.797, 665.116 " fill="none" stroke="rgb(0, 0, 0)" stroke-linecap="butt" stroke-linejoin="round" stroke-opacity="1.0" stroke-width="3.0" />
            <path d=" M 591.497, 912.394 590.360, 912.384 588.151, 912.365 584.162, 912.584 581.702, 914.972 582.370, 917.327 583.309, 920.640 583.622, 921.599 584.425, 922.340 586.082, 923.869 589.982, 927.054 594.338, 929.862 594.398, 929.901 595.210, 930.424 " fill="none" stroke="rgb(0, 0, 0)" stroke-linecap="butt" stroke-linejoin="round" stroke-opacity="1.0" stroke-width="3.0" />
            <path d=" M 671.419, 1030.133 680.099, 1025.167 680.400, 1024.995 686.921, 1020.773 688.479, 1018.623 688.088, 1016.984 685.567, 1016.836 682.547, 1017.471 678.360, 1019.226 " fill="none" stroke="rgb(0, 0, 0)" stroke-linecap="butt" stroke-linejoin="round" stroke-opacity="1.0" stroke-width="3.0" />
            <path d=" M 798.567, 543.630 798.081, 540.145 796.467, 530.890 796.002, 526.165 796.864, 518.691 797.204, 516.930 796.672, 511.137 " fill="none" stroke="rgb(0, 0, 0)" stroke-linecap="butt" stroke-linejoin="round" stroke-opacity="1.0" stroke-width="3.0" />
            <path d=" M 673.902, 554.863 673.573, 552.593 673.430, 551.602 672.880, 547.809 671.982, 544.164 671.826, 543.529 671.805, 543.442 671.803, 543.118 671.803, 543.096 671.802, 542.838 671.797, 542.017 671.790, 540.542 670.396, 538.388 667.055, 536.249 662.075, 536.687 654.681, 537.446 " fill="none" stroke="rgb(0, 0, 0)" stroke-linecap="butt" stroke-linejoin="round" stroke-opacity="1.0" stroke-width="3.0" />
            <path d=" M 505.593, 988.656 507.341, 992.799 510.881, 1002.152 511.933, 1004.933 513.147, 1007.891 517.325, 1016.977 518.995, 1020.608 " fill="none" stroke="rgb(0, 0, 0)" stroke-linecap="butt" stroke-linejoin="round" stroke-opacity="1.0" stroke-width="3.0" />
            <path d=" M 488.875, 976.341 495.875, 981.391 498.809, 983.447 501.561, 985.376 505.593, 988.656 505.766, 988.796 505.929, 988.972 505.943, 988.988 509.642, 992.992 511.448, 994.613 511.559, 994.713 511.868, 994.991 513.682, 996.618 515.609, 998.348 " fill="none" stroke="rgb(0, 0, 0)" stroke-linecap="butt" stroke-linejoin="round" stroke-opacity="1.0" stroke-width="3.0" />
            <path d=" M 630.618, 638.243 632.512, 636.466 638.935, 632.863 648.317, 629.404 649.600, 628.931 653.566, 627.005 661.521, 622.888 661.752, 622.769 " fill="none" stroke="rgb(0, 0, 0)" stroke-linecap="butt" stroke-linejoin="round" stroke-opacity="1.0" stroke-width="3.0" />
            <path d=" M 863.002, 562.129 863.041, 561.833 863.596, 557.545 864.121, 548.988 865.620, 543.162 864.915, 537.644 864.449, 535.451 864.202, 531.591 861.702, 528.199 " fill="none" stroke="rgb(0, 0, 0)" stroke-linecap="butt" stroke-linejoin="round" stroke-opacity="1.0" stroke-width="3.0" />
            <path d=" M 777.473, 830.436 785.089, 830.999 790.153, 831.363 794.875, 831.127 799.943, 830.044 801.004, 829.783 807.352, 827.099 808.418, 826.568 808.461, 826.547 808.743, 826.406 811.481, 825.044 " fill="none" stroke="rgb(0, 0, 0)" stroke-linecap="butt" stroke-linejoin="round" stroke-opacity="1.0" stroke-width="3.0" />
            <path d=" M 806.374, 600.720 808.374, 598.411 809.341, 593.042 808.614, 587.230 806.073, 579.519 804.593, 575.768 799.050, 568.808 " fill="none" stroke="rgb(0, 0, 0)" stroke-linecap="butt" stroke-linejoin="round" stroke-opacity="1.0" stroke-width="3.0" />
            <path d=" M 537.454, 556.979 532.294, 551.578 529.762, 549.009 529.496, 548.740 527.081, 546.290 522.879, 543.153 522.875, 543.150 520.612, 541.460 513.302, 535.293 510.579, 534.007 " fill="none" stroke="rgb(0, 0, 0)" stroke-linecap="butt" stroke-linejoin="round" stroke-opacity="1.0" stroke-width="3.0" />
            <path d=" M 773.033, 819.360 771.552, 819.918 766.255, 821.912 760.799, 824.650 759.217, 827.227 759.140, 828.106 760.371, 829.394 764.807, 830.188 768.261, 830.264 773.408, 830.623 777.473, 830.436 777.495, 830.435 " fill="none" stroke="rgb(0, 0, 0)" stroke-linecap="butt" stroke-linejoin="round" stroke-opacity="1.0" stroke-width="3.0" />
            <path d=" M 329.504, 564.706 329.221, 569.980 327.209, 573.555 326.582, 574.668 326.857, 577.667 326.892, 578.049 326.797, 582.310 326.327, 586.269 325.212, 588.212 321.777, 592.191 321.594, 592.403 320.101, 593.066 319.465, 593.349 319.006, 593.552 317.838, 594.071 317.721, 594.123 315.895, 594.933 " fill="none" stroke="rgb(0, 0, 0)" stroke-linecap="butt" stroke-linejoin="round" stroke-opacity="1.0" stroke-width="3.0" />
            <path d=" M 736.087, 453.177 735.766, 453.202 731.849, 453.504 727.507, 453.798 723.194, 454.755 718.000, 456.317 713.063, 455.765 708.184, 457.811 705.498, 458.329 704.065, 459.064 704.060, 460.718 704.059, 461.076 702.911, 462.702 " fill="none" stroke="rgb(0, 0, 0)" stroke-linecap="butt" stroke-linejoin="round" stroke-opacity="1.0" stroke-width="3.0" />
            <path d=" M 362.317, 809.592 363.032, 810.851 366.138, 816.329 372.178, 823.582 377.150, 830.333 382.448, 836.268 384.829, 838.935 " fill="none" stroke="rgb(0, 0, 0)" stroke-linecap="butt" stroke-linejoin="round" stroke-opacity="1.0" stroke-width="3.0" />
            <path d=" M 678.848, 644.134 681.557, 643.223 681.903, 643.107 682.278, 642.980 682.320, 642.949 684.497, 641.306 686.455, 635.283 686.166, 630.818 685.480, 625.802 685.479, 625.793 685.475, 625.764 685.318, 624.618 682.965, 614.899 682.201, 611.743 682.177, 611.645 682.155, 611.555 682.119, 611.405 682.106, 611.351 " fill="none" stroke="rgb(0, 0, 0)" stroke-linecap="butt" stroke-linejoin="round" stroke-opacity="1.0" stroke-width="3.0" />
            <path d=" M 804.078, 801.875 803.953, 801.957 799.405, 804.940 791.001, 810.361 787.754, 812.455 780.707, 815.768 776.158, 817.842 771.552, 819.918 " fill="none" stroke="rgb(0, 0, 0)" stroke-linecap="butt" stroke-linejoin="round" stroke-opacity="1.0" stroke-width="3.0" />
            <path d=" M 584.507, 764.944 585.231, 764.337 586.703, 763.102 588.020, 762.224 588.932, 761.616 593.711, 758.430 599.517, 754.414 601.709, 752.897 602.351, 752.453 605.896, 749.957 611.833, 744.633 612.383, 744.140 614.404, 742.327 " fill="none" stroke="rgb(0, 0, 0)" stroke-linecap="butt" stroke-linejoin="round" stroke-opacity="1.0" stroke-width="3.0" />
            <path d=" M 655.740, 537.607 654.681, 537.446 644.794, 535.947 642.690, 535.628 639.475, 534.455 631.141, 536.819 622.327, 541.543 621.444, 542.016 619.767, 542.915 " fill="none" stroke="rgb(0, 0, 0)" stroke-linecap="butt" stroke-linejoin="round" stroke-opacity="1.0" stroke-width="3.0" />
            <path d=" M 348.792, 551.788 348.296, 553.014 345.473, 559.994 342.252, 566.071 339.601, 570.382 338.249, 573.796 336.465, 576.381 334.841, 578.715 333.627, 580.458 332.606, 582.087 331.183, 584.354 330.370, 585.652 " fill="none" stroke="rgb(0, 0, 0)" stroke-linecap="butt" stroke-linejoin="round" stroke-opacity="1.0" stroke-width="3.0" />
            <path d=" M 344.522, 574.906 340.368, 584.002 340.156, 584.467 336.874, 588.216 333.957, 597.026 332.534, 602.622 330.746, 610.612 " fill="none" stroke="rgb(0, 0, 0)" stroke-linecap="butt" stroke-linejoin="round" stroke-opacity="1.0" stroke-width="3.0" />
            <path d=" M 594.305, 968.400 595.889, 968.429 602.836, 968.557 602.927, 968.558 602.996, 968.560 603.455, 968.568 603.613, 968.571 609.731, 968.141 614.211, 968.202 617.239, 968.243 619.637, 967.890 621.772, 968.068 625.941, 968.558 630.513, 969.204 632.300, 969.610 632.993, 969.913 " fill="none" stroke="rgb(0, 0, 0)" stroke-linecap="butt" stroke-linejoin="round" stroke-opacity="1.0" stroke-width="3.0" />
            <path d=" M 444.432, 895.940 446.835, 899.317 451.073, 908.375 451.727, 909.770 454.261, 918.359 456.162, 925.730 455.550, 928.233 454.777, 931.394 454.742, 931.536 454.541, 932.357 454.377, 933.031 454.278, 933.434 " fill="none" stroke="rgb(0, 0, 0)" stroke-linecap="butt" stroke-linejoin="round" stroke-opacity="1.0" stroke-width="3.0" />
            <path d=" M 619.870, 1059.387 620.229, 1059.410 624.852, 1059.706 627.690, 1059.888 634.160, 1057.588 639.965, 1053.243 641.774, 1051.338 642.960, 1049.348 642.538, 1047.635 641.577, 1046.311 637.853, 1045.089 635.930, 1045.408 634.075, 1045.714 631.851, 1045.259 " fill="none" stroke="rgb(0, 0, 0)" stroke-linecap="butt" stroke-linejoin="round" stroke-opacity="1.0" stroke-width="3.0" />
            <path d=" M 798.332, 488.541 798.427, 486.504 798.678, 481.140 797.961, 479.458 795.288, 474.512 794.249, 472.594 790.540, 468.507 788.410, 465.721 784.991, 463.478 780.355, 460.325 779.488, 459.964 778.049, 459.365 775.973, 458.500 " fill="none" stroke="rgb(0, 0, 0)" stroke-linecap="butt" stroke-linejoin="round" stroke-opacity="1.0" stroke-width="3.0" />
            <path d=" M 634.766, 537.794 631.025, 542.112 629.175, 543.282 619.509, 545.846 613.901, 547.333 608.210, 547.853 603.745, 547.070 601.201, 545.128 598.481, 543.051 " fill="none" stroke="rgb(0, 0, 0)" stroke-linecap="butt" stroke-linejoin="round" stroke-opacity="1.0" stroke-width="3.0" />
            <path d=" M 350.364, 635.121 349.199, 640.352 348.827, 645.211 348.906, 652.305 348.924, 659.924 349.407, 662.784 352.054, 670.009 356.236, 672.970 " fill="none" stroke="rgb(0, 0, 0)" stroke-linecap="butt" stroke-linejoin="round" stroke-opacity="1.0" stroke-width="3.0" />
            <path d=" M 833.110, 786.230 832.041, 788.632 828.792, 796.224 827.861, 798.400 827.542, 798.876 823.280, 805.246 823.648, 807.083 826.820, 809.431 831.081, 808.262 832.816, 807.721 834.130, 807.310 834.158, 807.302 834.422, 807.219 834.558, 807.148 836.515, 806.130 836.536, 806.119 836.632, 806.070 836.801, 805.982 836.814, 805.975 836.840, 805.961 836.985, 805.885 837.353, 805.695 837.594, 805.569 838.200, 805.253 840.600, 804.005 " fill="none" stroke="rgb(0, 0, 0)" stroke-linecap="butt" stroke-linejoin="round" stroke-opacity="1.0" stroke-width="3.0" />
            <path d=" M 461.845, 954.701 465.728, 957.974 470.199, 962.438 475.730, 967.555 480.441, 970.888 484.470, 973.860 488.875, 976.341 495.563, 980.108 " fill="none" stroke="rgb(0, 0, 0)" stroke-linecap="butt" stroke-linejoin="round" stroke-opacity="1.0" stroke-width="3.0" />
            <path d=" M 766.345, 736.663 762.601, 741.766 759.361, 745.457 758.241, 747.677 758.101, 748.946 759.060, 750.530 759.710, 750.894 764.060, 751.102 770.950, 749.344 774.983, 748.915 779.491, 748.280 783.956, 746.656 784.115, 746.599 " fill="none" stroke="rgb(0, 0, 0)" stroke-linecap="butt" stroke-linejoin="round" stroke-opacity="1.0" stroke-width="3.0" />
            <path d=" M 324.944, 697.299 325.287, 702.280 325.941, 707.730 326.606, 713.269 326.628, 713.449 326.682, 713.901 327.916, 719.789 328.517, 722.659 329.008, 725.133 333.026, 734.291 333.562, 735.512 334.341, 736.225 335.874, 737.630 " fill="none" stroke="rgb(0, 0, 0)" stroke-linecap="butt" stroke-linejoin="round" stroke-opacity="1.0" stroke-width="3.0" />
            <path d=" M 878.419, 643.789 878.006, 641.181 877.518, 638.100 874.520, 628.891 872.669, 619.711 870.279, 613.297 869.540, 609.989 869.300, 607.384 867.742, 602.152 " fill="none" stroke="rgb(0, 0, 0)" stroke-linecap="butt" stroke-linejoin="round" stroke-opacity="1.0" stroke-width="3.0" />
            <path d=" M 550.868, 804.997 552.082, 804.006 555.321, 800.763 550.868, 804.997 550.286, 805.551 548.524, 807.226 542.813, 813.637 537.603, 817.347 535.942, 818.530 533.411, 820.332 527.275, 825.340 " fill="none" stroke="rgb(0, 0, 0)" stroke-linecap="butt" stroke-linejoin="round" stroke-opacity="1.0" stroke-width="3.0" />
            <path d=" M 680.282, 1019.451 678.360, 1019.226 675.566, 1018.900 671.791, 1019.504 668.321, 1019.978 663.862, 1020.135 659.923, 1020.309 655.173, 1020.304 646.755, 1020.588 643.633, 1019.951 640.889, 1018.815 636.988, 1017.835 636.308, 1017.691 " fill="none" stroke="rgb(0, 0, 0)" stroke-linecap="butt" stroke-linejoin="round" stroke-opacity="1.0" stroke-width="3.0" />
            <path d=" M 495.097, 916.071 494.972, 915.469 493.893, 910.259 494.417, 908.264 495.712, 903.340 495.581, 902.149 492.248, 898.983 490.665, 897.082 486.443, 890.585 483.918, 880.909 483.741, 880.231 483.890, 875.490 " fill="none" stroke="rgb(0, 0, 0)" stroke-linecap="butt" stroke-linejoin="round" stroke-opacity="1.0" stroke-width="3.0" />
            <path d=" M 631.122, 669.509 631.102, 669.376 629.628, 659.485 628.892, 654.542 629.228, 649.897 629.295, 648.961 629.490, 646.265 630.636, 638.499 630.618, 638.243 630.057, 630.474 628.881, 625.319 " fill="none" stroke="rgb(0, 0, 0)" stroke-linecap="butt" stroke-linejoin="round" stroke-opacity="1.0" stroke-width="3.0" />
            <path d=" M 473.526, 945.411 473.566, 945.388 478.123, 942.765 480.261, 941.534 487.403, 937.201 489.796, 935.715 491.777, 934.226 494.206, 931.399 496.456, 927.420 497.772, 924.095 498.703, 919.823 497.384, 917.892 495.097, 916.071 495.013, 916.004 494.914, 915.925 493.472, 914.777 " fill="none" stroke="rgb(0, 0, 0)" stroke-linecap="butt" stroke-linejoin="round" stroke-opacity="1.0" stroke-width="3.0" />
            <path d=" M 327.534, 553.049 325.113, 556.536 323.313, 561.955 320.827, 568.289 318.977, 574.392 317.321, 582.737 315.456, 587.187 314.864, 592.431 314.977, 595.183 315.000, 595.744 " fill="none" stroke="rgb(0, 0, 0)" stroke-linecap="butt" stroke-linejoin="round" stroke-opacity="1.0" stroke-width="3.0" />
            <path d=" M 632.816, 1044.077 638.264, 1043.149 648.003, 1040.879 649.046, 1040.636 658.358, 1036.990 660.595, 1036.114 669.256, 1031.816 671.419, 1030.133 674.617, 1027.645 " fill="none" stroke="rgb(0, 0, 0)" stroke-linecap="butt" stroke-linejoin="round" stroke-opacity="1.0" stroke-width="3.0" />
            <path d=" M 808.247, 828.145 806.877, 829.878 805.046, 833.058 804.365, 838.926 804.585, 841.407 806.618, 842.647 810.482, 844.180 814.571, 843.332 815.215, 845.805 815.849, 846.427 819.905, 849.565 822.485, 851.003 824.103, 854.114 826.672, 856.420 828.007, 856.835 828.056, 856.850 828.419, 856.963 828.681, 857.044 " fill="none" stroke="rgb(0, 0, 0)" stroke-linecap="butt" stroke-linejoin="round" stroke-opacity="1.0" stroke-width="3.0" />
            <path d=" M 626.231, 576.289 628.654, 574.419 633.143, 570.954 636.914, 567.283 644.035, 562.281 650.055, 559.218 653.957, 559.216 657.455, 558.471 662.192, 559.782 662.540, 559.878 664.485, 560.416 665.043, 560.570 665.939, 560.818 " fill="none" stroke="rgb(0, 0, 0)" stroke-linecap="butt" stroke-linejoin="round" stroke-opacity="1.0" stroke-width="3.0" />
            <path d=" M 613.150, 1048.196 613.625, 1048.214 617.544, 1048.358 618.107, 1048.379 618.553, 1048.396 618.725, 1048.402 618.899, 1048.408 619.218, 1048.420 619.590, 1048.434 620.219, 1048.457 620.525, 1048.417 620.557, 1048.413 620.609, 1048.407 622.692, 1048.138 623.006, 1048.097 623.938, 1047.977 624.493, 1047.905 628.243, 1047.421 631.383, 1045.833 631.491, 1045.700 631.851, 1045.259 631.984, 1045.096 632.816, 1044.077 634.039, 1042.580 636.769, 1037.347 638.301, 1032.755 638.606, 1028.946 638.186, 1025.888 636.560, 1020.888 " fill="none" stroke="rgb(0, 0, 0)" stroke-linecap="butt" stroke-linejoin="round" stroke-opacity="1.0" stroke-width="3.0" />
            <path d=" M 601.709, 752.897 608.194, 749.064 615.537, 747.716 620.639, 747.983 620.654, 747.984 624.617, 748.192 628.031, 748.370 634.746, 750.039 639.086, 750.983 645.246, 754.189 " fill="none" stroke="rgb(0, 0, 0)" stroke-linecap="butt" stroke-linejoin="round" stroke-opacity="1.0" stroke-width="3.0" />
            <path d=" M 619.903, 832.776 619.619, 829.856 618.511, 824.700 618.068, 817.157 617.965, 815.404 617.910, 814.790 617.369, 808.807 617.858, 801.079 619.684, 791.327 620.599, 787.261 " fill="none" stroke="rgb(0, 0, 0)" stroke-linecap="butt" stroke-linejoin="round" stroke-opacity="1.0" stroke-width="3.0" />
            <path d=" M 507.848, 441.599 498.865, 445.994 498.202, 446.319 496.835, 446.988 495.579, 447.602 491.881, 449.850 491.034, 450.365 488.188, 452.450 487.700, 452.808 485.367, 454.118 475.750, 456.861 474.706, 457.159 471.227, 457.710 465.519, 458.613 " fill="none" stroke="rgb(0, 0, 0)" stroke-linecap="butt" stroke-linejoin="round" stroke-opacity="1.0" stroke-width="3.0" />
            <path d=" M 867.037, 822.254 867.507, 821.264 870.066, 815.875 871.413, 811.301 873.676, 803.320 874.793, 798.117 875.765, 791.662 877.248, 784.802 878.512, 780.407 878.947, 777.664 " fill="none" stroke="rgb(0, 0, 0)" stroke-linecap="butt" stroke-linejoin="round" stroke-opacity="1.0" stroke-width="3.0" />
            <path d=" M 795.741, 775.799 793.288, 777.161 790.601, 779.307 787.279, 783.804 785.100, 787.619 786.584, 790.566 789.870, 791.915 795.201, 790.091 801.802, 786.516 803.552, 787.462 804.542, 789.471 804.714, 789.821 804.863, 790.233 806.184, 793.881 806.289, 794.171 806.295, 794.187 806.554, 794.903 806.719, 795.358 " fill="none" stroke="rgb(0, 0, 0)" stroke-linecap="butt" stroke-linejoin="round" stroke-opacity="1.0" stroke-width="3.0" />
            <path d=" M 888.371, 745.245 888.438, 745.017 889.168, 742.540 889.635, 740.955 889.938, 736.810 890.136, 735.144 890.465, 730.320 890.209, 721.326 889.925, 718.143 889.452, 713.671 887.755, 704.341 886.493, 698.384 " fill="none" stroke="rgb(0, 0, 0)" stroke-linecap="butt" stroke-linejoin="round" stroke-opacity="1.0" stroke-width="3.0" />
            <path d=" M 842.157, 521.965 838.156, 523.384 835.755, 524.279 831.191, 525.980 826.896, 525.345 821.899, 527.365 819.144, 529.220 816.858, 531.081 814.741, 534.585 809.809, 538.733 806.720, 540.533 802.583, 542.727 800.960, 542.934 " fill="none" stroke="rgb(0, 0, 0)" stroke-linecap="butt" stroke-linejoin="round" stroke-opacity="1.0" stroke-width="3.0" />
            <path d=" M 679.204, 458.784 677.440, 456.976 674.652, 454.118 671.909, 451.500 664.824, 445.015 658.036, 441.134 654.153, 438.022 649.148, 434.727 645.548, 432.124 640.198, 431.229 " fill="none" stroke="rgb(0, 0, 0)" stroke-linecap="butt" stroke-linejoin="round" stroke-opacity="1.0" stroke-width="3.0" />
            <path d=" M 642.302, 431.935 640.198, 431.229 637.241, 430.237 628.744, 429.496 621.064, 430.091 618.672, 430.184 611.646, 433.820 605.144, 438.789 603.268, 443.106 603.791, 446.343 603.791, 446.968 " fill="none" stroke="rgb(0, 0, 0)" stroke-linecap="butt" stroke-linejoin="round" stroke-opacity="1.0" stroke-width="3.0" />
            <path d=" M 832.816, 807.721 831.365, 812.048 830.103, 817.105 828.614, 822.766 828.627, 826.622 829.658, 826.544 830.164, 826.504 830.551, 826.474 830.626, 826.469 831.168, 826.427 831.239, 826.421 833.486, 826.247 834.817, 825.500 834.881, 825.464 834.914, 825.446 835.163, 825.306 836.154, 824.750 840.661, 821.200 841.093, 820.860 844.024, 817.872 844.683, 817.199 844.845, 816.726 846.558, 811.724 848.712, 810.141 850.171, 809.068 " fill="none" stroke="rgb(0, 0, 0)" stroke-linecap="butt" stroke-linejoin="round" stroke-opacity="1.0" stroke-width="3.0" />
            <path d=" M 350.768, 746.139 354.503, 748.922 359.637, 757.050 360.212, 757.961 361.236, 759.794 361.690, 760.607 362.809, 762.611 365.829, 766.012 367.462, 767.850 371.424, 772.408 374.240, 777.080 377.237, 781.829 379.965, 786.345 " fill="none" stroke="rgb(0, 0, 0)" stroke-linecap="butt" stroke-linejoin="round" stroke-opacity="1.0" stroke-width="3.0" />
            <path d=" M 403.236, 831.961 404.931, 834.730 408.873, 842.019 414.101, 848.028 416.197, 851.918 421.069, 860.689 426.353, 869.179 426.481, 869.386 429.659, 874.369 " fill="none" stroke="rgb(0, 0, 0)" stroke-linecap="butt" stroke-linejoin="round" stroke-opacity="1.0" stroke-width="3.0" />
            <path d=" M 822.663, 770.317 821.828, 773.368 819.792, 779.443 818.986, 780.791 817.133, 786.210 817.033, 787.376 817.688, 789.066 820.653, 790.129 821.190, 790.173 824.751, 789.134 827.367, 788.185 827.371, 788.184 828.189, 787.887 833.110, 786.230 836.395, 785.125 836.757, 785.003 837.123, 784.879 837.284, 784.825 837.342, 784.806 838.461, 784.429 839.349, 784.130 838.465, 784.385 837.341, 784.708 837.270, 784.729 837.110, 784.775 836.775, 784.871 836.416, 784.975 836.270, 785.017 833.290, 785.827 831.429, 786.333 " fill="none" stroke="rgb(0, 0, 0)" stroke-linecap="butt" stroke-linejoin="round" stroke-opacity="1.0" stroke-width="3.0" />
            <path d=" M 808.837, 759.324 810.816, 758.580 811.963, 758.149 812.927, 759.423 813.469, 760.141 813.721, 760.473 813.949, 760.776 814.694, 764.046 815.687, 768.792 815.714, 769.486 815.727, 769.806 815.743, 770.228 818.141, 771.718 818.922, 771.614 821.901, 770.623 822.663, 770.317 824.562, 769.552 825.686, 769.029 825.689, 769.027 831.165, 766.478 834.832, 763.530 836.791, 759.321 837.631, 757.218 837.952, 756.414 840.458, 753.535 840.994, 752.919 842.355, 752.854 " fill="none" stroke="rgb(0, 0, 0)" stroke-linecap="butt" stroke-linejoin="round" stroke-opacity="1.0" stroke-width="3.0" />
            <path d=" M 782.445, 714.102 782.060, 715.886 782.415, 719.627 786.684, 722.577 792.407, 722.076 793.823, 724.372 794.901, 725.103 794.911, 725.109 798.352, 727.441 800.205, 728.696 804.951, 727.916 809.328, 727.641 812.793, 724.437 814.684, 720.629 815.770, 716.625 815.849, 716.332 816.061, 715.553 816.169, 715.152 816.188, 715.084 816.205, 715.021 816.529, 713.827 " fill="none" stroke="rgb(0, 0, 0)" stroke-linecap="butt" stroke-linejoin="round" stroke-opacity="1.0" stroke-width="3.0" />
            <path d=" M 560.350, 788.157 562.617, 786.816 562.675, 786.782 562.752, 786.736 562.903, 786.647 562.967, 786.609 562.999, 786.590 564.018, 785.988 564.577, 785.657 564.893, 785.470 565.151, 785.317 566.783, 784.352 567.565, 783.890 567.783, 783.760 568.895, 783.103 569.009, 783.036 569.299, 782.864 569.664, 782.648 569.665, 782.647 570.380, 782.161 571.005, 781.736 571.059, 781.699 571.757, 781.224 572.559, 780.096 573.542, 778.713 573.563, 778.683 573.574, 778.668 574.114, 777.909 574.766, 776.991 574.810, 776.930 574.842, 776.893 574.870, 776.861 574.879, 776.850 575.017, 776.691 575.023, 776.685 575.275, 776.395 575.812, 775.778 575.831, 775.755 576.998, 774.413 577.234, 774.142 577.606, 773.714 579.128, 771.964 579.993, 770.969 584.574, 766.644 584.644, 766.577 584.836, 766.395 584.874, 766.360 584.890, 766.345 587.561, 763.823 588.370, 763.059 589.111, 762.359 595.344, 758.055 599.517, 754.414 " fill="none" stroke="rgb(0, 0, 0)" stroke-linecap="butt" stroke-linejoin="round" stroke-opacity="1.0" stroke-width="3.0" />
            <path d=" M 643.247, 726.708 644.534, 730.226 644.547, 730.261 646.839, 736.523 646.947, 736.952 649.379, 746.652 650.422, 750.811 650.669, 752.910 650.939, 755.201 652.023, 759.844 652.350, 761.245 652.351, 761.250 653.276, 765.212 655.433, 774.092 656.311, 777.281 " fill="none" stroke="rgb(0, 0, 0)" stroke-linecap="butt" stroke-linejoin="round" stroke-opacity="1.0" stroke-width="3.0" />
            <path d=" M 459.380, 505.401 457.920, 504.849 450.992, 502.232 445.489, 500.319 439.006, 497.626 437.701, 497.464 436.201, 497.485 430.185, 497.569 430.155, 497.569 430.049, 497.571 426.443, 497.145 421.867, 496.604 421.392, 496.548 412.985, 495.370 408.522, 494.548 " fill="none" stroke="rgb(0, 0, 0)" stroke-linecap="butt" stroke-linejoin="round" stroke-opacity="1.0" stroke-width="3.0" />
            <path d=" M 404.352, 862.043 405.032, 863.942 408.215, 871.359 412.109, 880.569 413.217, 883.187 414.961, 887.195 416.724, 890.816 421.193, 897.604 423.731, 900.489 425.779, 902.477 430.520, 907.077 " fill="none" stroke="rgb(0, 0, 0)" stroke-linecap="butt" stroke-linejoin="round" stroke-opacity="1.0" stroke-width="3.0" />
            <path d=" M 615.446, 799.994 615.830, 799.153 618.554, 793.191 619.207, 790.412 620.476, 787.465 620.599, 787.261 623.098, 783.138 625.036, 779.666 626.131, 773.043 626.906, 767.794 625.981, 764.370 625.891, 760.007 625.070, 755.425 624.739, 749.318 624.617, 748.192 " fill="none" stroke="rgb(0, 0, 0)" stroke-linecap="butt" stroke-linejoin="round" stroke-opacity="1.0" stroke-width="3.0" />
            <path d=" M 488.188, 452.450 487.164, 452.828 482.504, 453.998 475.855, 454.985 468.142, 455.036 466.010, 455.050 464.264, 455.061 454.920, 455.263 450.342, 455.291 447.944, 455.305 447.817, 455.306 447.705, 455.306 443.095, 455.334 439.117, 455.649 438.536, 455.695 437.887, 455.746 437.340, 455.789 437.296, 455.793 436.206, 456.193 433.341, 457.243 " fill="none" stroke="rgb(0, 0, 0)" stroke-linecap="butt" stroke-linejoin="round" stroke-opacity="1.0" stroke-width="3.0" />
            <path d=" M 646.844, 831.758 646.384, 830.098 644.032, 820.379 643.752, 819.222 642.389, 815.896 639.013, 811.075 636.394, 810.875 634.092, 812.068 631.695, 815.008 626.062, 815.742 625.297, 818.218 625.063, 819.735 625.866, 824.320 625.850, 828.586 626.056, 833.808 626.092, 834.714 " fill="none" stroke="rgb(0, 0, 0)" stroke-linecap="butt" stroke-linejoin="round" stroke-opacity="1.0" stroke-width="3.0" />
            <path d=" M 355.151, 671.182 356.236, 672.970 358.058, 675.972 356.886, 684.323 357.542, 687.635 361.475, 693.006 362.487, 694.640 363.806, 696.770 364.743, 702.094 364.856, 705.073 365.777, 708.363 366.636, 713.755 367.996, 716.585 368.018, 716.630 368.315, 717.248 368.382, 717.386 369.335, 719.371 369.618, 719.959 371.004, 723.602 " fill="none" stroke="rgb(0, 0, 0)" stroke-linecap="butt" stroke-linejoin="round" stroke-opacity="1.0" stroke-width="3.0" />
            <path d=" M 686.343, 606.580 688.987, 600.301 690.980, 594.171 691.519, 587.795 691.591, 585.443 691.390, 578.536 689.713, 571.348 685.862, 563.772 682.492, 559.472 679.793, 556.450 677.247, 555.172 " fill="none" stroke="rgb(0, 0, 0)" stroke-linecap="butt" stroke-linejoin="round" stroke-opacity="1.0" stroke-width="3.0" />
            <path d=" M 692.204, 790.619 693.954, 790.200 695.593, 789.911 698.730, 788.690 707.740, 784.350 708.433, 784.016 714.904, 780.453 718.997, 778.400 724.456, 774.591 731.774, 768.936 736.070, 765.315 738.510, 762.580 740.932, 759.866 " fill="none" stroke="rgb(0, 0, 0)" stroke-linecap="butt" stroke-linejoin="round" stroke-opacity="1.0" stroke-width="3.0" />
            <path d=" M 335.591, 539.396 334.695, 540.482 333.259, 543.772 333.057, 544.235 332.236, 546.117 332.045, 546.554 332.355, 545.928 333.663, 543.287 333.694, 543.225 333.731, 543.150 335.591, 539.396 335.911, 538.750 337.462, 537.119 337.509, 537.069 338.215, 536.327 339.246, 535.243 341.803, 531.153 344.190, 527.337 348.961, 520.944 355.810, 513.657 357.693, 511.654 359.154, 509.990 359.491, 509.606 359.497, 509.599 359.627, 509.451 362.646, 506.012 " fill="none" stroke="rgb(0, 0, 0)" stroke-linecap="butt" stroke-linejoin="round" stroke-opacity="1.0" stroke-width="3.0" />
            <path d=" M 620.859, 469.664 619.170, 466.291 619.160, 466.269 617.724, 463.297 615.111, 462.377 613.582, 462.202 609.274, 462.104 602.205, 467.578 599.049, 472.415 598.016, 474.091 595.873, 477.347 595.808, 477.447 595.626, 477.723 594.589, 479.299 593.861, 480.405 593.198, 481.064 589.666, 484.567 589.324, 484.906 589.302, 484.928 587.524, 486.693 580.047, 487.651 578.534, 487.791 576.037, 488.021 " fill="none" stroke="rgb(0, 0, 0)" stroke-linecap="butt" stroke-linejoin="round" stroke-opacity="1.0" stroke-width="3.0" />
            <path d=" M 640.137, 845.081 637.646, 850.249 637.528, 850.432 637.432, 850.581 636.976, 851.289 636.006, 852.796 634.911, 854.498 633.144, 857.244 630.946, 863.657 627.897, 870.578 626.238, 873.956 624.820, 876.843 622.693, 882.362 618.094, 888.104 615.432, 890.716 613.648, 893.432 613.058, 895.090 613.425, 896.069 613.519, 896.317 613.781, 897.016 614.184, 898.091 " fill="none" stroke="rgb(0, 0, 0)" stroke-linecap="butt" stroke-linejoin="round" stroke-opacity="1.0" stroke-width="3.0" />
            <path d=" M 432.483, 903.044 435.298, 912.626 435.705, 914.013 439.695, 923.182 440.007, 923.900 444.165, 932.994 444.302, 933.295 444.827, 934.394 446.339, 937.118 447.895, 939.852 453.821, 947.907 454.229, 948.462 456.260, 949.960 458.546, 951.647 463.141, 954.781 " fill="none" stroke="rgb(0, 0, 0)" stroke-linecap="butt" stroke-linejoin="round" stroke-opacity="1.0" stroke-width="3.0" />
            <path d=" M 738.510, 762.580 740.998, 760.379 745.898, 754.273 749.527, 749.707 755.389, 741.606 758.172, 737.759 763.238, 730.411 766.004, 726.898 766.163, 726.695 766.175, 726.680 772.132, 719.112 773.947, 716.884 774.548, 716.147 775.604, 714.850 776.035, 714.322 776.990, 713.149 777.744, 712.224 " fill="none" stroke="rgb(0, 0, 0)" stroke-linecap="butt" stroke-linejoin="round" stroke-opacity="1.0" stroke-width="3.0" />
            <path d=" M 512.939, 535.419 510.579, 534.007 509.903, 533.603 509.484, 533.352 508.517, 532.319 505.714, 529.326 505.530, 529.130 504.345, 527.864 503.212, 526.855 497.692, 521.939 497.406, 521.710 496.326, 520.845 493.319, 518.438 492.095, 517.458 490.924, 516.989 487.760, 515.722 482.250, 513.516 480.977, 513.006 479.069, 512.242 478.728, 512.056 476.496, 510.840 474.993, 510.021 467.871, 506.882 458.074, 504.881 457.920, 504.849 " fill="none" stroke="rgb(0, 0, 0)" stroke-linecap="butt" stroke-linejoin="round" stroke-opacity="1.0" stroke-width="3.0" />
            <path d=" M 799.249, 730.564 798.796, 733.250 796.596, 738.302 796.888, 740.909 797.563, 741.711 799.233, 743.158 801.398, 744.109 803.616, 744.750 808.258, 745.684 808.686, 745.734 811.010, 746.009 811.081, 746.018 811.466, 746.063 811.606, 746.144 811.687, 746.191 815.222, 748.240 815.465, 748.357 819.943, 747.340 824.273, 746.794 826.756, 743.751 828.840, 738.173 829.856, 735.456 832.416, 730.959 835.120, 728.396 838.182, 725.493 " fill="none" stroke="rgb(0, 0, 0)" stroke-linecap="butt" stroke-linejoin="round" stroke-opacity="1.0" stroke-width="3.0" />
            <path d=" M 493.946, 462.901 487.790, 463.167 483.542, 463.578 483.289, 463.602 477.378, 464.174 476.804, 464.252 476.623, 464.276 474.129, 464.614 473.616, 464.684 473.475, 464.703 471.763, 464.935 466.172, 466.264 465.702, 466.376 465.025, 466.537 456.152, 468.646 447.600, 470.765 445.762, 471.282 436.136, 473.992 434.508, 474.451 433.597, 474.707 432.573, 474.996 430.447, 475.594 428.875, 476.037 " fill="none" stroke="rgb(0, 0, 0)" stroke-linecap="butt" stroke-linejoin="round" stroke-opacity="1.0" stroke-width="3.0" />
            <path d=" M 641.627, 972.167 642.449, 971.850 643.501, 971.444 644.955, 970.883 645.269, 970.762 645.480, 970.681 646.529, 969.793 646.530, 969.792 646.954, 969.434 650.035, 966.827 651.905, 964.910 651.913, 964.903 651.957, 964.857 653.708, 963.063 654.534, 962.218 654.542, 962.209 656.307, 960.401 656.345, 960.362 656.569, 960.132 660.136, 955.260 660.437, 954.736 663.750, 948.970 664.041, 948.002 666.054, 941.312 666.363, 940.284 666.753, 936.245 668.570, 930.520 668.588, 930.449 668.749, 929.779 668.771, 929.683 668.773, 929.675 668.890, 929.189 668.906, 929.122 669.316, 927.415 669.670, 926.396 669.670, 926.393 670.408, 924.266 670.932, 922.757 671.027, 922.484 671.939, 919.484 672.204, 918.611 672.231, 918.524 672.265, 918.023 672.295, 917.590 672.407, 915.943 672.440, 915.460 " fill="none" stroke="rgb(0, 0, 0)" stroke-linecap="butt" stroke-linejoin="round" stroke-opacity="1.0" stroke-width="3.0" />
            <path d=" M 655.115, 766.627 655.254, 767.710 656.035, 773.794 657.173, 780.373 658.323, 787.020 658.271, 789.991 658.253, 790.988 658.230, 792.282 657.629, 796.724 655.695, 806.535 655.102, 809.544 653.112, 818.051 649.183, 826.698 646.844, 831.758 646.361, 832.803 646.016, 833.549 " fill="none" stroke="rgb(0, 0, 0)" stroke-linecap="butt" stroke-linejoin="round" stroke-opacity="1.0" stroke-width="3.0" />
            <path d=" M 486.648, 868.110 492.647, 860.343 497.533, 854.708 504.853, 847.895 507.002, 845.895 514.489, 839.265 516.822, 837.199 519.548, 833.741 524.787, 828.590 532.356, 822.056 536.266, 818.680 536.463, 818.510 537.603, 817.347 " fill="none" stroke="rgb(0, 0, 0)" stroke-linecap="butt" stroke-linejoin="round" stroke-opacity="1.0" stroke-width="3.0" />
            <path d=" M 334.341, 736.225 334.383, 736.469 335.736, 738.947 337.614, 742.385 340.005, 749.954 343.054, 757.832 343.549, 759.112 343.710, 759.486 346.490, 765.960 346.697, 766.442 347.062, 767.294 347.067, 767.303 348.866, 770.364 350.978, 773.680 354.132, 780.325 354.944, 781.651 356.373, 783.981 357.796, 786.118 361.471, 793.983 364.702, 800.332 367.562, 804.702 368.222, 805.711 368.431, 806.032 369.812, 808.141 371.202, 810.266 371.350, 810.493 " fill="none" stroke="rgb(0, 0, 0)" stroke-linecap="butt" stroke-linejoin="round" stroke-opacity="1.0" stroke-width="3.0" />
            <path d=" M 598.587, 543.195 598.481, 543.051 596.678, 540.603 596.251, 540.023 595.795, 539.404 595.774, 539.375 595.878, 538.953 596.194, 537.670 596.213, 537.591 596.390, 536.873 596.516, 536.362 596.915, 536.242 597.409, 536.094 597.902, 535.947 602.924, 534.442 603.372, 534.308 604.633, 532.581 605.346, 531.152 607.296, 526.563 611.633, 519.207 615.879, 512.228 618.567, 505.024 619.123, 503.132 621.701, 493.470 622.431, 490.735 622.709, 482.784 622.678, 475.993 621.597, 469.565 621.358, 469.228 619.268, 466.284 619.160, 466.269 " fill="none" stroke="rgb(0, 0, 0)" stroke-linecap="butt" stroke-linejoin="round" stroke-opacity="1.0" stroke-width="3.0" />
            <path d=" M 562.486, 472.848 562.421, 472.615 562.320, 472.255 561.717, 470.099 559.428, 467.286 557.103, 463.066 555.314, 459.804 552.012, 457.938 551.577, 457.781 549.636, 457.084 549.633, 457.083 549.618, 457.078 547.726, 456.398 546.337, 455.899 541.669, 455.479 536.427, 451.765 536.249, 451.587 532.702, 448.056 532.446, 447.670 532.270, 447.403 531.452, 446.168 529.865, 438.371 528.672, 435.288 528.330, 435.137 527.352, 434.706 526.643, 434.393 523.997, 433.225 518.553, 434.594 510.368, 439.233 509.585, 439.690 506.190, 441.667 498.202, 446.319 " fill="none" stroke="rgb(0, 0, 0)" stroke-linecap="butt" stroke-linejoin="round" stroke-opacity="1.0" stroke-width="3.0" />
            <path d=" M 683.845, 748.662 687.230, 739.441 691.996, 730.718 694.929, 726.988 699.599, 720.824 700.615, 716.139 701.054, 714.306 699.803, 708.167 698.566, 705.105 698.029, 702.440 697.859, 701.880 696.791, 698.363 692.681, 695.417 690.368, 694.361 687.236, 692.372 684.035, 690.846 678.695, 687.642 674.910, 684.811 670.938, 682.807 666.789, 681.819 666.488, 681.934 " fill="none" stroke="rgb(0, 0, 0)" stroke-linecap="butt" stroke-linejoin="round" stroke-opacity="1.0" stroke-width="3.0" />
            <path d=" M 524.328, 1029.274 527.006, 1034.795 532.343, 1042.042 534.617, 1044.510 535.895, 1047.427 537.295, 1048.788 539.793, 1051.784 542.734, 1055.107 544.699, 1057.280 546.428, 1060.009 549.814, 1062.832 551.246, 1064.146 554.193, 1064.560 555.633, 1064.274 562.662, 1066.262 567.215, 1066.684 572.216, 1066.722 577.841, 1065.963 584.792, 1066.505 590.848, 1066.091 593.810, 1066.645 595.351, 1066.417 597.155, 1066.150 " fill="none" stroke="rgb(0, 0, 0)" stroke-linecap="butt" stroke-linejoin="round" stroke-opacity="1.0" stroke-width="3.0" />
            <path d=" M 740.341, 627.626 740.338, 627.626 740.125, 627.667 736.670, 628.322 729.665, 629.650 728.938, 629.787 728.801, 629.733 722.382, 627.179 722.227, 627.117 721.326, 626.589 721.199, 626.516 720.362, 626.026 720.064, 625.851 719.490, 625.516 715.775, 623.343 712.248, 622.681 710.018, 622.270 707.231, 621.755 706.236, 621.681 705.745, 621.644 702.653, 621.412 699.496, 621.463 699.427, 621.468 697.834, 621.592 693.897, 623.920 691.606, 625.439 689.636, 627.562 687.804, 629.575 686.810, 631.096 686.466, 634.945 686.500, 635.218 688.270, 641.024 692.438, 648.319 697.338, 657.037 697.886, 658.011 701.276, 662.841 " fill="none" stroke="rgb(0, 0, 0)" stroke-linecap="butt" stroke-linejoin="round" stroke-opacity="1.0" stroke-width="3.0" />
            <path d=" M 836.944, 835.206 836.291, 837.315 834.388, 843.455 833.966, 844.817 833.530, 847.668 832.908, 851.737 832.709, 853.036 832.696, 853.125 832.064, 857.295 831.887, 858.464 831.820, 858.902 831.661, 859.957 831.477, 860.623 829.346, 868.358 827.748, 873.233 827.547, 877.072 828.687, 879.084 831.118, 879.679 834.352, 878.127 837.885, 877.306 842.783, 875.414 846.504, 871.702 850.590, 865.194 853.925, 858.377 854.989, 856.137 857.131, 850.067 857.518, 848.193 857.870, 846.487 858.165, 845.056 " fill="none" stroke="rgb(0, 0, 0)" stroke-linecap="butt" stroke-linejoin="round" stroke-opacity="1.0" stroke-width="3.0" />
            <path d=" M 655.426, 896.290 656.336, 894.078 658.377, 889.115 658.868, 888.457 660.526, 886.242 661.489, 884.955 661.517, 884.918 661.811, 884.524 661.845, 884.479 662.213, 883.987 662.341, 883.815 662.448, 883.673 662.472, 883.641 662.529, 883.564 663.283, 882.556 663.590, 882.147 663.792, 881.876 664.578, 880.130 664.597, 880.087 665.053, 879.073 665.333, 878.452 665.790, 877.435 666.149, 876.786 666.253, 876.597 666.299, 876.513 667.206, 874.869 667.307, 874.685 667.552, 874.241 667.785, 873.819 668.605, 872.333 668.627, 872.293 669.381, 870.925 669.403, 870.886 670.581, 868.751 671.980, 867.005 675.972, 862.026 677.752, 859.787 679.723, 857.308 685.487, 850.953 689.818, 844.312 691.305, 840.992 691.562, 837.345 691.667, 833.267 693.089, 823.560 692.913, 819.888 692.976, 814.920 693.014, 811.958 " fill="none" stroke="rgb(0, 0, 0)" stroke-linecap="butt" stroke-linejoin="round" stroke-opacity="1.0" stroke-width="3.0" />
            <path d=" M 381.373, 824.881 381.434, 825.069 382.628, 828.716 388.360, 835.772 394.024, 843.428 398.776, 849.054 398.831, 849.121 399.374, 849.782 399.959, 850.494 401.127, 851.915 404.517, 856.043 404.672, 856.232 405.145, 856.978 410.494, 865.427 411.299, 866.699 416.415, 875.291 419.062, 879.737 422.517, 885.554 427.803, 894.043 428.844, 895.714 430.322, 898.691 430.323, 898.693 432.483, 903.044 434.841, 907.793 " fill="none" stroke="rgb(0, 0, 0)" stroke-linecap="butt" stroke-linejoin="round" stroke-opacity="1.0" stroke-width="3.0" />
            <path d=" M 631.050, 602.842 628.869, 602.174 628.174, 601.961 627.182, 601.697 627.175, 601.695 625.348, 601.208 625.318, 601.199 625.002, 601.115 621.601, 600.208 613.428, 595.246 605.175, 589.564 600.861, 587.669 591.248, 584.915 590.638, 584.740 584.982, 581.199 581.856, 578.893 576.900, 576.282 573.362, 574.410 566.206, 570.623 564.075, 569.681 557.537, 566.582 552.227, 564.065 551.901, 563.882 551.021, 563.388 547.477, 561.396 546.953, 561.102 546.260, 560.828 543.822, 559.863 538.821, 557.885 538.270, 557.667 " fill="none" stroke="rgb(0, 0, 0)" stroke-linecap="butt" stroke-linejoin="round" stroke-opacity="1.0" stroke-width="3.0" />
            <path d=" M 801.788, 575.643 799.866, 571.500 795.962, 566.628 795.948, 566.613 795.397, 566.045 794.576, 565.196 792.547, 563.099 792.213, 562.753 791.552, 562.071 790.994, 561.493 786.170, 557.742 784.604, 556.491 779.419, 552.349 773.429, 552.592 768.209, 555.981 766.167, 556.555 759.471, 560.422 750.711, 565.290 743.097, 571.773 742.948, 571.900 740.985, 576.351 741.817, 579.189 748.344, 583.147 753.432, 586.308 762.246, 588.574 763.208, 588.821 " fill="none" stroke="rgb(0, 0, 0)" stroke-linecap="butt" stroke-linejoin="round" stroke-opacity="1.0" stroke-width="3.0" />
            <path d=" M 709.803, 675.070 711.544, 678.249 711.825, 678.762 713.243, 681.351 718.124, 689.280 720.835, 691.769 727.853, 694.680 733.312, 698.702 737.121, 700.561 741.349, 702.005 745.527, 702.620 745.615, 702.633 747.895, 702.968 747.951, 702.977 748.083, 702.971 748.098, 702.970 748.681, 702.944 752.135, 701.352 753.799, 700.585 755.834, 698.354 756.785, 696.693 759.065, 688.485 760.774, 682.192 762.129, 675.226 762.465, 673.499 762.813, 671.714 762.954, 670.989 762.954, 670.987 764.825, 664.359 765.794, 660.221 769.593, 651.671 772.523, 646.921 772.610, 646.781 " fill="none" stroke="rgb(0, 0, 0)" stroke-linecap="butt" stroke-linejoin="round" stroke-opacity="1.0" stroke-width="3.0" />
            <path d=" M 387.051, 430.208 385.795, 430.627 384.442, 431.079 384.057, 431.263 381.643, 432.418 379.413, 435.112 377.248, 436.903 371.770, 440.673 369.507, 441.958 368.390, 444.096 368.061, 444.859 369.284, 450.296 369.165, 456.287 367.692, 463.819 367.795, 467.814 368.093, 474.282 369.417, 481.694 371.540, 491.466 371.876, 493.010 371.860, 497.119 371.854, 498.470 371.539, 500.288 371.473, 500.665 371.447, 500.815 371.436, 500.877 371.426, 500.937 371.116, 502.719 371.209, 504.071 371.218, 504.206 371.304, 505.450 368.261, 511.082 367.951, 511.657 366.849, 513.698 365.012, 518.633 358.649, 526.347 357.586, 527.635 354.827, 532.013 350.844, 538.857 349.120, 542.476 348.919, 545.136 348.918, 545.148 348.692, 548.130 348.296, 553.014 " fill="none" stroke="rgb(0, 0, 0)" stroke-linecap="butt" stroke-linejoin="round" stroke-opacity="1.0" stroke-width="3.0" />
            <path d=" M 595.434, 476.934 593.725, 474.585 591.857, 469.226 590.701, 466.516 589.842, 461.521 588.114, 453.768 585.954, 449.938 584.690, 447.443 583.493, 444.480 581.857, 442.130 580.769, 439.062 577.745, 435.656 576.577, 433.717 573.710, 430.583 569.020, 425.874 564.483, 420.159 559.345, 417.865 555.398, 417.545 553.131, 417.623 544.064, 418.492 534.262, 420.472 533.856, 420.554 527.221, 423.434 518.399, 428.143 513.732, 430.634 505.409, 436.177 504.416, 436.838 500.456, 440.859 493.440, 447.984 491.811, 449.637 491.881, 449.850 " fill="none" stroke="rgb(0, 0, 0)" stroke-linecap="butt" stroke-linejoin="round" stroke-opacity="1.0" stroke-width="3.0" />
        </g>
    </g>
</svg>
