<?xml version='1.0' encoding='ascii'?>
<svg xmlns="http://www.w3.org/2000/svg" height="1280" version="1.1" width="1280">
    <g id="RenderLayer_LineSet" inkscape:groupmode="lineset" inkscape:label="RenderLayer_LineSet" xmlns:inkscape="http://www.inkscape.org/namespaces/inkscape">
        <g id="strokes" inkscape:groupmode="layer" inkscape:label="strokes" xmlns:inkscape="http://www.inkscape.org/namespaces/inkscape">
            <path d=" M 709.781, 714.090 711.318, 716.338 712.478, 718.036 712.608, 718.434 714.453, 724.126 717.502, 726.666 720.317, 728.563 720.651, 728.788 721.685, 729.485 " fill="none" stroke="rgb(0, 0, 0)" stroke-linecap="butt" stroke-linejoin="round" stroke-opacity="1.0" stroke-width="3.0" />
            <path d=" M 544.709, 745.620 542.453, 743.861 540.551, 742.397 534.395, 737.901 531.104, 731.354 " fill="none" stroke="rgb(0, 0, 0)" stroke-linecap="butt" stroke-linejoin="round" stroke-opacity="1.0" stroke-width="3.0" />
            <path d=" M 397.042, 843.114 397.542, 844.499 397.792, 845.191 399.788, 850.718 402.009, 856.871 404.138, 861.431 404.492, 862.192 " fill="none" stroke="rgb(0, 0, 0)" stroke-linecap="butt" stroke-linejoin="round" stroke-opacity="1.0" stroke-width="3.0" />
            <path d=" M 841.778, 1008.879 842.207, 1009.307 843.024, 1010.121 843.364, 1010.401 843.525, 1010.534 847.022, 1013.413 848.499, 1013.437 851.259, 1011.719 852.760, 1010.856 854.305, 1008.191 854.520, 1005.440 854.573, 1004.064 " fill="none" stroke="rgb(0, 0, 0)" stroke-linecap="butt" stroke-linejoin="round" stroke-opacity="1.0" stroke-width="3.0" />
            <path d=" M 494.022, 1086.634 494.073, 1087.035 494.863, 1093.199 495.172, 1094.580 496.942, 1102.495 496.963, 1102.560 497.121, 1103.035 498.390, 1106.859 " fill="none" stroke="rgb(0, 0, 0)" stroke-linecap="butt" stroke-linejoin="round" stroke-opacity="1.0" stroke-width="3.0" />
            <path d=" M 676.976, 995.068 680.328, 992.344 681.810, 990.007 681.481, 987.947 679.754, 987.251 671.772, 986.743 669.779, 986.737 " fill="none" stroke="rgb(0, 0, 0)" stroke-linecap="butt" stroke-linejoin="round" stroke-opacity="1.0" stroke-width="3.0" />
            <path d=" M 495.172, 1094.580 495.817, 1099.241 496.628, 1106.380 498.745, 1114.600 498.992, 1115.238 " fill="none" stroke="rgb(0, 0, 0)" stroke-linecap="butt" stroke-linejoin="round" stroke-opacity="1.0" stroke-width="3.0" />
            <path d=" M 720.317, 728.563 720.396, 729.015 717.923, 731.677 716.855, 734.983 718.048, 737.790 723.415, 744.337 723.826, 745.450 724.109, 746.219 " fill="none" stroke="rgb(0, 0, 0)" stroke-linecap="butt" stroke-linejoin="round" stroke-opacity="1.0" stroke-width="3.0" />
            <path d=" M 644.733, 1079.006 649.631, 1079.695 653.967, 1078.652 660.421, 1073.770 660.441, 1070.342 660.194, 1070.162 " fill="none" stroke="rgb(0, 0, 0)" stroke-linecap="butt" stroke-linejoin="round" stroke-opacity="1.0" stroke-width="3.0" />
            <path d=" M 754.139, 477.584 757.844, 480.410 761.985, 484.107 763.984, 485.204 765.911, 487.603 768.816, 492.702 " fill="none" stroke="rgb(0, 0, 0)" stroke-linecap="butt" stroke-linejoin="round" stroke-opacity="1.0" stroke-width="3.0" />
            <path d=" M 699.951, 701.989 701.426, 702.772 705.139, 702.145 706.838, 701.859 709.026, 698.846 711.126, 695.531 711.255, 695.328 711.270, 695.304 711.417, 695.182 711.670, 694.973 713.223, 693.684 713.900, 692.782 714.646, 691.198 714.828, 690.810 715.157, 690.113 " fill="none" stroke="rgb(0, 0, 0)" stroke-linecap="butt" stroke-linejoin="round" stroke-opacity="1.0" stroke-width="3.0" />
            <path d=" M 494.296, 727.248 494.586, 723.867 497.554, 717.765 499.395, 715.167 504.432, 708.057 " fill="none" stroke="rgb(0, 0, 0)" stroke-linecap="butt" stroke-linejoin="round" stroke-opacity="1.0" stroke-width="3.0" />
            <path d=" M 743.147, 800.144 744.057, 801.092 745.690, 802.793 748.893, 806.344 750.721, 806.250 752.182, 805.460 753.267, 804.873 753.389, 804.807 753.460, 804.768 756.028, 802.285 756.117, 802.199 756.149, 802.167 759.026, 799.264 759.678, 798.606 " fill="none" stroke="rgb(0, 0, 0)" stroke-linecap="butt" stroke-linejoin="round" stroke-opacity="1.0" stroke-width="3.0" />
            <path d=" M 685.979, 428.235 687.726, 426.876 687.559, 424.329 686.892, 421.241 685.265, 419.269 682.977, 414.606 680.239, 410.175 679.562, 409.081 " fill="none" stroke="rgb(0, 0, 0)" stroke-linecap="butt" stroke-linejoin="round" stroke-opacity="1.0" stroke-width="3.0" />
            <path d=" M 660.178, 1070.207 660.194, 1070.162 661.297, 1066.986 660.777, 1065.022 658.691, 1063.033 651.064, 1059.030 645.726, 1059.157 " fill="none" stroke="rgb(0, 0, 0)" stroke-linecap="butt" stroke-linejoin="round" stroke-opacity="1.0" stroke-width="3.0" />
            <path d=" M 653.906, 842.670 652.420, 846.236 652.040, 847.149 649.524, 852.342 648.938, 853.553 644.777, 862.647 644.644, 862.936 " fill="none" stroke="rgb(0, 0, 0)" stroke-linecap="butt" stroke-linejoin="round" stroke-opacity="1.0" stroke-width="3.0" />
            <path d=" M 736.199, 684.939 736.805, 685.088 739.428, 685.275 744.528, 683.746 748.950, 681.754 751.184, 680.560 753.446, 679.523 756.503, 677.552 756.768, 677.381 " fill="none" stroke="rgb(0, 0, 0)" stroke-linecap="butt" stroke-linejoin="round" stroke-opacity="1.0" stroke-width="3.0" />
            <path d=" M 670.583, 976.455 670.796, 976.297 673.412, 974.362 674.534, 972.506 675.495, 970.691 677.688, 966.317 677.773, 966.149 677.798, 966.099 680.178, 961.353 680.767, 956.976 " fill="none" stroke="rgb(0, 0, 0)" stroke-linecap="butt" stroke-linejoin="round" stroke-opacity="1.0" stroke-width="3.0" />
            <path d=" M 380.179, 407.357 379.578, 408.325 377.307, 411.979 371.584, 420.180 369.742, 422.820 367.406, 426.392 " fill="none" stroke="rgb(0, 0, 0)" stroke-linecap="butt" stroke-linejoin="round" stroke-opacity="1.0" stroke-width="3.0" />
            <path d=" M 657.940, 1004.754 660.846, 1004.975 668.820, 1002.681 673.714, 998.990 676.976, 995.068 677.429, 994.523 " fill="none" stroke="rgb(0, 0, 0)" stroke-linecap="butt" stroke-linejoin="round" stroke-opacity="1.0" stroke-width="3.0" />
            <path d=" M 499.395, 715.167 504.395, 708.856 511.892, 702.237 514.087, 700.299 515.761, 698.821 " fill="none" stroke="rgb(0, 0, 0)" stroke-linecap="butt" stroke-linejoin="round" stroke-opacity="1.0" stroke-width="3.0" />
            <path d=" M 692.236, 920.459 696.026, 919.975 698.835, 916.471 699.358, 912.650 698.859, 908.359 697.781, 901.705 " fill="none" stroke="rgb(0, 0, 0)" stroke-linecap="butt" stroke-linejoin="round" stroke-opacity="1.0" stroke-width="3.0" />
            <path d=" M 693.612, 671.615 696.605, 662.074 696.684, 661.820 701.252, 652.924 701.387, 652.661 702.166, 650.015 " fill="none" stroke="rgb(0, 0, 0)" stroke-linecap="butt" stroke-linejoin="round" stroke-opacity="1.0" stroke-width="3.0" />
            <path d=" M 837.112, 911.866 837.673, 913.742 838.733, 914.398 840.892, 914.817 841.778, 914.989 842.496, 914.681 842.576, 914.646 842.634, 914.621 843.650, 914.184 846.351, 913.023 848.396, 912.151 852.068, 909.720 853.275, 908.458 853.566, 907.593 853.569, 907.583 854.466, 904.917 " fill="none" stroke="rgb(0, 0, 0)" stroke-linecap="butt" stroke-linejoin="round" stroke-opacity="1.0" stroke-width="3.0" />
            <path d=" M 882.894, 890.554 883.155, 888.479 884.405, 878.557 884.532, 877.547 884.531, 873.918 884.899, 867.052 " fill="none" stroke="rgb(0, 0, 0)" stroke-linecap="butt" stroke-linejoin="round" stroke-opacity="1.0" stroke-width="3.0" />
            <path d=" M 827.078, 814.304 826.617, 816.546 827.954, 821.232 825.787, 827.099 824.929, 832.941 823.751, 837.157 " fill="none" stroke="rgb(0, 0, 0)" stroke-linecap="butt" stroke-linejoin="round" stroke-opacity="1.0" stroke-width="3.0" />
            <path d=" M 865.812, 994.278 866.284, 992.168 867.271, 989.002 868.207, 988.097 870.736, 983.316 871.889, 976.466 872.685, 971.372 " fill="none" stroke="rgb(0, 0, 0)" stroke-linecap="butt" stroke-linejoin="round" stroke-opacity="1.0" stroke-width="3.0" />
            <path d=" M 750.589, 480.863 752.376, 487.751 752.322, 493.594 753.089, 496.398 754.333, 499.762 756.489, 503.244 756.872, 503.941 " fill="none" stroke="rgb(0, 0, 0)" stroke-linecap="butt" stroke-linejoin="round" stroke-opacity="1.0" stroke-width="3.0" />
            <path d=" M 653.181, 414.807 653.249, 414.310 653.265, 414.188 653.455, 412.790 653.762, 410.533 652.797, 405.874 651.049, 403.577 648.259, 399.912 644.917, 398.662 640.855, 397.195 " fill="none" stroke="rgb(0, 0, 0)" stroke-linecap="butt" stroke-linejoin="round" stroke-opacity="1.0" stroke-width="3.0" />
            <path d=" M 635.114, 790.987 635.454, 791.580 636.049, 792.617 638.754, 797.336 639.163, 797.788 639.244, 797.877 639.566, 798.231 639.839, 798.533 641.760, 800.649 644.431, 806.797 644.801, 807.413 644.861, 807.514 644.882, 807.549 646.824, 810.789 647.558, 812.015 " fill="none" stroke="rgb(0, 0, 0)" stroke-linecap="butt" stroke-linejoin="round" stroke-opacity="1.0" stroke-width="3.0" />
            <path d=" M 823.907, 837.017 823.751, 837.157 822.949, 837.873 821.728, 841.431 821.725, 841.921 821.725, 841.925 821.715, 843.949 822.611, 844.936 825.764, 846.082 833.234, 846.249 834.288, 846.172 834.667, 846.133 838.122, 845.784 " fill="none" stroke="rgb(0, 0, 0)" stroke-linecap="butt" stroke-linejoin="round" stroke-opacity="1.0" stroke-width="3.0" />
            <path d=" M 399.354, 486.697 400.832, 493.128 398.180, 496.685 397.412, 498.663 397.510, 506.278 400.307, 509.106 " fill="none" stroke="rgb(0, 0, 0)" stroke-linecap="butt" stroke-linejoin="round" stroke-opacity="1.0" stroke-width="3.0" />
            <path d=" M 674.923, 740.891 675.092, 740.118 676.769, 732.458 676.128, 727.026 676.041, 726.297 676.745, 720.871 678.157, 716.576 " fill="none" stroke="rgb(0, 0, 0)" stroke-linecap="butt" stroke-linejoin="round" stroke-opacity="1.0" stroke-width="3.0" />
            <path d=" M 812.000, 772.595 810.673, 773.431 807.399, 776.177 806.869, 778.633 806.977, 779.171 808.678, 783.166 811.503, 785.479 811.689, 788.280 809.051, 792.955 " fill="none" stroke="rgb(0, 0, 0)" stroke-linecap="butt" stroke-linejoin="round" stroke-opacity="1.0" stroke-width="3.0" />
            <path d=" M 384.374, 756.895 384.835, 761.490 386.418, 771.364 386.656, 772.849 388.306, 781.860 " fill="none" stroke="rgb(0, 0, 0)" stroke-linecap="butt" stroke-linejoin="round" stroke-opacity="1.0" stroke-width="3.0" />
            <path d=" M 811.026, 790.613 809.051, 792.955 806.520, 795.958 805.868, 798.437 805.200, 802.163 806.595, 804.887 810.168, 806.169 812.415, 806.087 812.636, 806.155 815.169, 806.943 " fill="none" stroke="rgb(0, 0, 0)" stroke-linecap="butt" stroke-linejoin="round" stroke-opacity="1.0" stroke-width="3.0" />
            <path d=" M 794.757, 894.003 796.668, 897.014 796.838, 898.791 796.912, 899.577 796.926, 899.716 796.929, 899.748 796.924, 899.755 795.570, 901.549 790.757, 906.395 788.132, 909.821 785.786, 915.151 " fill="none" stroke="rgb(0, 0, 0)" stroke-linecap="butt" stroke-linejoin="round" stroke-opacity="1.0" stroke-width="3.0" />
            <path d=" M 887.145, 792.258 886.631, 782.271 886.614, 781.938 884.328, 772.867 883.112, 766.899 " fill="none" stroke="rgb(0, 0, 0)" stroke-linecap="butt" stroke-linejoin="round" stroke-opacity="1.0" stroke-width="3.0" />
            <path d=" M 870.197, 979.842 870.535, 977.398 872.089, 973.606 872.685, 971.372 873.148, 969.640 873.928, 965.189 875.044, 958.644 875.709, 954.744 " fill="none" stroke="rgb(0, 0, 0)" stroke-linecap="butt" stroke-linejoin="round" stroke-opacity="1.0" stroke-width="3.0" />
            <path d=" M 405.761, 767.578 408.332, 777.241 409.488, 781.587 413.523, 790.736 414.097, 792.037 " fill="none" stroke="rgb(0, 0, 0)" stroke-linecap="butt" stroke-linejoin="round" stroke-opacity="1.0" stroke-width="3.0" />
            <path d=" M 628.810, 653.280 627.470, 651.532 625.991, 649.453 625.419, 648.894 624.085, 647.592 622.197, 645.748 617.674, 642.701 612.307, 634.263 611.969, 633.732 " fill="none" stroke="rgb(0, 0, 0)" stroke-linecap="butt" stroke-linejoin="round" stroke-opacity="1.0" stroke-width="3.0" />
            <path d=" M 815.271, 809.972 814.247, 810.990 813.250, 811.981 811.813, 814.587 812.339, 817.547 814.885, 818.425 820.145, 816.618 824.109, 815.682 827.078, 814.304 827.930, 813.908 828.332, 813.722 828.902, 813.457 " fill="none" stroke="rgb(0, 0, 0)" stroke-linecap="butt" stroke-linejoin="round" stroke-opacity="1.0" stroke-width="3.0" />
            <path d=" M 627.492, 676.714 627.888, 674.941 628.352, 672.862 628.703, 671.910 629.680, 669.257 629.888, 668.693 630.428, 665.624 630.474, 665.364 630.749, 663.807 630.885, 663.034 630.572, 659.617 630.425, 658.010 630.149, 654.577 628.810, 653.280 627.228, 651.748 " fill="none" stroke="rgb(0, 0, 0)" stroke-linecap="butt" stroke-linejoin="round" stroke-opacity="1.0" stroke-width="3.0" />
            <path d=" M 484.926, 789.662 486.581, 785.770 487.325, 784.022 487.402, 783.840 487.749, 783.536 492.691, 779.206 497.126, 774.494 501.853, 769.324 " fill="none" stroke="rgb(0, 0, 0)" stroke-linecap="butt" stroke-linejoin="round" stroke-opacity="1.0" stroke-width="3.0" />
            <path d=" M 651.326, 461.749 649.073, 453.997 648.857, 448.560 648.686, 447.508 648.377, 445.598 646.979, 436.960 646.965, 436.872 646.959, 436.840 646.958, 436.833 646.742, 435.494 646.714, 435.324 " fill="none" stroke="rgb(0, 0, 0)" stroke-linecap="butt" stroke-linejoin="round" stroke-opacity="1.0" stroke-width="3.0" />
            <path d=" M 365.912, 645.257 367.408, 655.145 367.495, 655.720 369.714, 665.471 369.910, 666.330 371.239, 671.801 " fill="none" stroke="rgb(0, 0, 0)" stroke-linecap="butt" stroke-linejoin="round" stroke-opacity="1.0" stroke-width="3.0" />
            <path d=" M 404.648, 554.195 403.131, 559.982 404.295, 565.329 402.269, 570.289 403.288, 575.076 406.370, 579.700 " fill="none" stroke="rgb(0, 0, 0)" stroke-linecap="butt" stroke-linejoin="round" stroke-opacity="1.0" stroke-width="3.0" />
            <path d=" M 505.902, 760.535 506.704, 758.978 508.565, 755.361 509.970, 752.855 511.271, 746.988 510.074, 743.806 507.290, 743.659 506.414, 743.722 505.892, 743.759 503.954, 743.899 500.796, 744.127 " fill="none" stroke="rgb(0, 0, 0)" stroke-linecap="butt" stroke-linejoin="round" stroke-opacity="1.0" stroke-width="3.0" />
            <path d=" M 842.606, 888.091 842.456, 888.425 840.562, 892.647 840.341, 893.138 839.387, 898.251 838.601, 902.789 837.945, 906.830 837.112, 911.866 837.527, 909.624 837.885, 908.810 " fill="none" stroke="rgb(0, 0, 0)" stroke-linecap="butt" stroke-linejoin="round" stroke-opacity="1.0" stroke-width="3.0" />
            <path d=" M 391.735, 383.397 391.316, 384.293 389.761, 387.624 387.362, 393.794 383.365, 401.758 380.287, 406.785 379.578, 408.325 " fill="none" stroke="rgb(0, 0, 0)" stroke-linecap="butt" stroke-linejoin="round" stroke-opacity="1.0" stroke-width="3.0" />
            <path d=" M 843.827, 573.980 843.865, 573.073 843.303, 564.414 843.374, 559.586 843.141, 554.205 842.998, 551.605 842.960, 550.898 842.665, 545.884 " fill="none" stroke="rgb(0, 0, 0)" stroke-linecap="butt" stroke-linejoin="round" stroke-opacity="1.0" stroke-width="3.0" />
            <path d=" M 697.311, 903.343 697.781, 901.705 699.486, 895.771 701.174, 890.282 700.871, 886.167 699.448, 880.953 697.373, 879.658 694.808, 879.387 " fill="none" stroke="rgb(0, 0, 0)" stroke-linecap="butt" stroke-linejoin="round" stroke-opacity="1.0" stroke-width="3.0" />
            <path d=" M 681.880, 766.668 681.623, 766.172 679.338, 761.770 678.553, 757.529 675.941, 751.407 675.261, 747.130 676.368, 743.634 675.092, 740.118 " fill="none" stroke="rgb(0, 0, 0)" stroke-linecap="butt" stroke-linejoin="round" stroke-opacity="1.0" stroke-width="3.0" />
            <path d=" M 683.265, 845.913 684.665, 843.383 685.596, 841.701 687.203, 838.670 687.586, 837.983 688.313, 836.678 688.466, 836.404 689.741, 834.115 690.434, 830.346 690.394, 829.623 690.114, 824.573 688.680, 822.610 687.948, 821.692 686.967, 820.462 " fill="none" stroke="rgb(0, 0, 0)" stroke-linecap="butt" stroke-linejoin="round" stroke-opacity="1.0" stroke-width="3.0" />
            <path d=" M 736.371, 777.275 736.760, 777.899 739.012, 781.519 738.476, 785.036 736.112, 792.502 736.645, 794.734 739.249, 797.882 744.057, 801.092 " fill="none" stroke="rgb(0, 0, 0)" stroke-linecap="butt" stroke-linejoin="round" stroke-opacity="1.0" stroke-width="3.0" />
            <path d=" M 733.375, 513.681 732.278, 512.864 731.155, 512.285 727.192, 510.242 720.667, 511.129 716.817, 509.641 714.769, 509.244 705.788, 510.105 " fill="none" stroke="rgb(0, 0, 0)" stroke-linecap="butt" stroke-linejoin="round" stroke-opacity="1.0" stroke-width="3.0" />
            <path d=" M 685.754, 509.949 688.182, 505.917 689.281, 498.433 690.123, 493.760 690.662, 490.772 690.776, 490.137 690.866, 488.084 691.059, 487.211 691.836, 483.710 692.146, 481.676 " fill="none" stroke="rgb(0, 0, 0)" stroke-linecap="butt" stroke-linejoin="round" stroke-opacity="1.0" stroke-width="3.0" />
            <path d=" M 782.747, 719.356 782.682, 722.442 781.001, 728.027 780.676, 729.964 781.316, 734.740 783.297, 735.424 786.144, 736.208 791.662, 735.687 791.750, 733.785 791.682, 732.073 " fill="none" stroke="rgb(0, 0, 0)" stroke-linecap="butt" stroke-linejoin="round" stroke-opacity="1.0" stroke-width="3.0" />
            <path d=" M 847.920, 598.740 844.874, 589.215 844.408, 587.758 841.958, 578.063 840.962, 574.125 840.612, 569.570 " fill="none" stroke="rgb(0, 0, 0)" stroke-linecap="butt" stroke-linejoin="round" stroke-opacity="1.0" stroke-width="3.0" />
            <path d=" M 684.567, 699.991 686.451, 694.989 688.048, 690.751 688.400, 689.817 688.450, 689.685 689.132, 687.875 690.014, 685.789 690.033, 685.742 691.754, 681.672 692.241, 679.035 692.593, 677.129 692.674, 676.692 692.693, 676.590 693.067, 674.568 693.612, 671.615 693.734, 670.957 " fill="none" stroke="rgb(0, 0, 0)" stroke-linecap="butt" stroke-linejoin="round" stroke-opacity="1.0" stroke-width="3.0" />
            <path d=" M 581.847, 361.577 582.134, 361.254 581.318, 358.111 580.273, 356.357 579.578, 355.221 577.566, 353.516 572.623, 350.220 569.006, 350.483 560.676, 350.978 557.580, 351.112 " fill="none" stroke="rgb(0, 0, 0)" stroke-linecap="butt" stroke-linejoin="round" stroke-opacity="1.0" stroke-width="3.0" />
            <path d=" M 391.080, 432.761 387.417, 436.008 386.590, 440.297 386.352, 444.189 385.591, 451.099 385.812, 453.353 387.474, 456.452 391.722, 459.358 " fill="none" stroke="rgb(0, 0, 0)" stroke-linecap="butt" stroke-linejoin="round" stroke-opacity="1.0" stroke-width="3.0" />
            <path d=" M 646.771, 1048.085 647.393, 1044.052 647.534, 1043.137 647.826, 1041.241 648.551, 1037.693 648.416, 1036.948 647.803, 1033.551 650.926, 1026.120 650.540, 1017.752 " fill="none" stroke="rgb(0, 0, 0)" stroke-linecap="butt" stroke-linejoin="round" stroke-opacity="1.0" stroke-width="3.0" />
            <path d=" M 660.696, 1040.269 664.184, 1036.887 669.594, 1032.253 672.408, 1029.473 672.723, 1024.231 672.690, 1024.179 670.978, 1022.775 663.297, 1020.604 " fill="none" stroke="rgb(0, 0, 0)" stroke-linecap="butt" stroke-linejoin="round" stroke-opacity="1.0" stroke-width="3.0" />
            <path d=" M 508.342, 1129.541 509.244, 1130.437 515.031, 1134.246 520.130, 1136.904 527.930, 1141.964 535.264, 1145.890 " fill="none" stroke="rgb(0, 0, 0)" stroke-linecap="butt" stroke-linejoin="round" stroke-opacity="1.0" stroke-width="3.0" />
            <path d=" M 855.492, 627.179 855.484, 627.143 854.561, 623.053 852.872, 617.478 852.809, 617.272 852.807, 617.252 852.423, 613.233 851.247, 609.486 850.752, 602.185 849.756, 599.859 847.991, 596.794 " fill="none" stroke="rgb(0, 0, 0)" stroke-linecap="butt" stroke-linejoin="round" stroke-opacity="1.0" stroke-width="3.0" />
            <path d=" M 444.197, 890.074 445.184, 893.324 447.079, 899.564 448.152, 902.907 450.115, 909.020 454.394, 918.058 455.002, 919.340 455.309, 919.990 " fill="none" stroke="rgb(0, 0, 0)" stroke-linecap="butt" stroke-linejoin="round" stroke-opacity="1.0" stroke-width="3.0" />
            <path d=" M 843.637, 572.637 843.827, 573.980 844.873, 581.373 846.514, 589.491 847.991, 596.794 847.638, 593.950 846.514, 589.491 " fill="none" stroke="rgb(0, 0, 0)" stroke-linecap="butt" stroke-linejoin="round" stroke-opacity="1.0" stroke-width="3.0" />
            <path d=" M 806.046, 546.343 804.854, 540.050 803.451, 533.638 801.854, 525.802 801.234, 521.155 800.067, 514.243 " fill="none" stroke="rgb(0, 0, 0)" stroke-linecap="butt" stroke-linejoin="round" stroke-opacity="1.0" stroke-width="3.0" />
            <path d=" M 474.881, 951.461 480.098, 959.992 482.526, 963.963 486.909, 971.097 491.107, 979.889 " fill="none" stroke="rgb(0, 0, 0)" stroke-linecap="butt" stroke-linejoin="round" stroke-opacity="1.0" stroke-width="3.0" />
            <path d=" M 635.324, 683.211 635.104, 688.039 633.661, 690.707 632.129, 693.802 631.792, 694.777 630.519, 698.459 630.465, 698.614 630.003, 705.125 629.955, 705.275 629.230, 707.516 627.257, 713.769 626.994, 714.602 " fill="none" stroke="rgb(0, 0, 0)" stroke-linecap="butt" stroke-linejoin="round" stroke-opacity="1.0" stroke-width="3.0" />
            <path d=" M 888.672, 822.477 888.679, 822.441 889.320, 819.185 889.062, 813.136 889.078, 807.987 888.722, 803.247 887.847, 795.000 887.145, 792.258 886.518, 789.811 " fill="none" stroke="rgb(0, 0, 0)" stroke-linecap="butt" stroke-linejoin="round" stroke-opacity="1.0" stroke-width="3.0" />
            <path d=" M 646.824, 810.789 647.263, 811.987 649.688, 818.607 651.029, 823.141 652.969, 830.627 653.413, 834.831 654.055, 842.089 654.071, 842.275 654.173, 843.433 " fill="none" stroke="rgb(0, 0, 0)" stroke-linecap="butt" stroke-linejoin="round" stroke-opacity="1.0" stroke-width="3.0" />
            <path d=" M 679.916, 958.533 680.767, 956.976 682.369, 954.050 685.342, 944.798 688.250, 936.650 688.958, 933.793 689.257, 930.023 689.532, 926.546 " fill="none" stroke="rgb(0, 0, 0)" stroke-linecap="butt" stroke-linejoin="round" stroke-opacity="1.0" stroke-width="3.0" />
            <path d=" M 676.128, 727.026 676.339, 725.803 677.359, 722.042 678.975, 717.502 682.064, 707.991 682.798, 705.730 684.652, 702.108 686.451, 694.989 " fill="none" stroke="rgb(0, 0, 0)" stroke-linecap="butt" stroke-linejoin="round" stroke-opacity="1.0" stroke-width="3.0" />
            <path d=" M 843.609, 932.169 843.310, 936.487 842.164, 945.726 842.848, 951.891 843.634, 957.841 845.007, 963.492 845.605, 965.655 " fill="none" stroke="rgb(0, 0, 0)" stroke-linecap="butt" stroke-linejoin="round" stroke-opacity="1.0" stroke-width="3.0" />
            <path d=" M 689.257, 930.023 690.981, 925.547 691.243, 924.487 691.261, 924.412 691.359, 924.013 692.236, 920.459 692.675, 918.679 693.003, 913.704 693.772, 907.638 694.972, 898.066 694.912, 896.116 " fill="none" stroke="rgb(0, 0, 0)" stroke-linecap="butt" stroke-linejoin="round" stroke-opacity="1.0" stroke-width="3.0" />
            <path d=" M 694.378, 461.919 694.379, 457.440 694.380, 452.516 692.923, 444.314 690.636, 437.779 686.360, 430.365 685.979, 428.235 685.972, 428.192 " fill="none" stroke="rgb(0, 0, 0)" stroke-linecap="butt" stroke-linejoin="round" stroke-opacity="1.0" stroke-width="3.0" />
            <path d=" M 648.938, 853.553 648.157, 855.017 642.601, 863.332 641.452, 865.052 636.480, 871.675 634.024, 874.466 632.920, 875.720 632.624, 876.056 631.299, 877.561 629.952, 878.880 627.238, 881.536 " fill="none" stroke="rgb(0, 0, 0)" stroke-linecap="butt" stroke-linejoin="round" stroke-opacity="1.0" stroke-width="3.0" />
            <path d=" M 542.103, 1150.736 542.153, 1150.766 542.283, 1150.846 545.502, 1152.825 549.912, 1151.885 556.934, 1156.798 561.572, 1160.716 566.367, 1163.426 570.362, 1165.078 572.962, 1166.152 " fill="none" stroke="rgb(0, 0, 0)" stroke-linecap="butt" stroke-linejoin="round" stroke-opacity="1.0" stroke-width="3.0" />
            <path d=" M 615.207, 762.105 618.179, 766.810 620.647, 771.978 622.594, 774.430 623.104, 775.073 624.068, 776.286 624.227, 776.503 626.867, 780.091 631.341, 785.933 631.999, 786.791 632.462, 787.433 635.454, 791.580 " fill="none" stroke="rgb(0, 0, 0)" stroke-linecap="butt" stroke-linejoin="round" stroke-opacity="1.0" stroke-width="3.0" />
            <path d=" M 522.282, 1120.621 522.416, 1121.045 524.193, 1126.649 528.289, 1132.055 532.071, 1138.223 534.605, 1141.389 536.460, 1144.299 538.401, 1147.299 538.696, 1147.721 538.703, 1147.732 538.961, 1148.099 540.298, 1150.009 542.153, 1150.766 " fill="none" stroke="rgb(0, 0, 0)" stroke-linecap="butt" stroke-linejoin="round" stroke-opacity="1.0" stroke-width="3.0" />
            <path d=" M 788.339, 912.486 786.695, 913.988 785.786, 915.151 787.636, 918.665 790.529, 920.237 795.730, 919.016 799.185, 916.301 802.694, 915.209 805.039, 917.250 806.782, 921.039 808.718, 926.039 " fill="none" stroke="rgb(0, 0, 0)" stroke-linecap="butt" stroke-linejoin="round" stroke-opacity="1.0" stroke-width="3.0" />
            <path d=" M 622.700, 360.504 616.248, 360.201 612.661, 360.613 612.377, 360.646 605.928, 362.473 602.933, 364.905 597.691, 367.055 596.764, 367.436 595.812, 367.356 592.163, 367.051 589.833, 366.653 586.883, 366.150 " fill="none" stroke="rgb(0, 0, 0)" stroke-linecap="butt" stroke-linejoin="round" stroke-opacity="1.0" stroke-width="3.0" />
            <path d=" M 464.768, 312.076 461.418, 314.065 457.310, 315.372 451.432, 319.755 450.573, 320.051 446.818, 322.079 443.112, 324.715 437.280, 332.839 437.085, 333.109 436.804, 333.501 435.892, 334.772 " fill="none" stroke="rgb(0, 0, 0)" stroke-linecap="butt" stroke-linejoin="round" stroke-opacity="1.0" stroke-width="3.0" />
            <path d=" M 851.871, 1000.711 852.343, 1000.584 852.844, 1000.449 853.413, 1000.296 853.648, 1000.233 854.696, 999.951 854.747, 999.938 854.926, 999.889 855.956, 999.612 862.054, 995.829 863.599, 994.868 865.502, 991.554 866.385, 989.401 866.446, 989.251 868.929, 983.196 870.177, 976.884 870.377, 975.874 870.499, 974.428 870.743, 971.547 " fill="none" stroke="rgb(0, 0, 0)" stroke-linecap="butt" stroke-linejoin="round" stroke-opacity="1.0" stroke-width="3.0" />
            <path d=" M 485.502, 1050.145 486.696, 1054.586 486.737, 1054.738 486.939, 1055.489 488.140, 1059.958 490.043, 1069.776 490.498, 1072.124 491.595, 1076.955 493.982, 1086.666 494.073, 1087.035 " fill="none" stroke="rgb(0, 0, 0)" stroke-linecap="butt" stroke-linejoin="round" stroke-opacity="1.0" stroke-width="3.0" />
            <path d=" M 643.650, 399.578 640.855, 397.195 640.320, 396.739 636.430, 392.431 636.302, 392.289 631.504, 389.323 629.747, 388.333 625.993, 386.217 624.991, 385.850 615.938, 382.529 610.602, 381.946 610.582, 381.944 " fill="none" stroke="rgb(0, 0, 0)" stroke-linecap="butt" stroke-linejoin="round" stroke-opacity="1.0" stroke-width="3.0" />
            <path d=" M 813.812, 984.295 812.483, 986.482 811.047, 990.313 810.923, 998.907 811.412, 1002.870 813.764, 1004.418 817.142, 1005.876 820.210, 1005.955 822.559, 1003.970 823.558, 1006.064 824.298, 1007.625 825.901, 1008.541 826.234, 1008.731 826.721, 1009.009 " fill="none" stroke="rgb(0, 0, 0)" stroke-linecap="butt" stroke-linejoin="round" stroke-opacity="1.0" stroke-width="3.0" />
            <path d=" M 497.017, 308.896 492.299, 306.423 491.556, 306.367 487.346, 305.311 480.734, 305.273 474.923, 307.340 471.279, 309.127 467.207, 310.622 464.768, 312.076 463.793, 312.782 461.280, 315.361 " fill="none" stroke="rgb(0, 0, 0)" stroke-linecap="butt" stroke-linejoin="round" stroke-opacity="1.0" stroke-width="3.0" />
            <path d=" M 577.019, 1169.737 578.267, 1172.958 578.681, 1174.337 578.757, 1174.587 580.235, 1179.505 582.555, 1185.439 582.591, 1185.507 586.322, 1192.613 587.785, 1195.397 594.264, 1198.130 598.814, 1198.262 " fill="none" stroke="rgb(0, 0, 0)" stroke-linecap="butt" stroke-linejoin="round" stroke-opacity="1.0" stroke-width="3.0" />
            <path d=" M 514.087, 700.299 517.819, 698.079 526.298, 692.778 527.063, 692.300 533.389, 686.124 534.811, 684.736 535.864, 684.016 536.051, 683.889 536.087, 683.864 536.823, 683.361 537.361, 682.993 537.879, 682.639 537.918, 682.613 537.981, 682.569 538.006, 682.552 541.284, 680.312 541.817, 679.948 541.903, 679.890 542.424, 679.533 542.823, 679.261 542.835, 679.252 543.496, 678.939 544.316, 678.551 545.257, 678.105 546.217, 677.650 " fill="none" stroke="rgb(0, 0, 0)" stroke-linecap="butt" stroke-linejoin="round" stroke-opacity="1.0" stroke-width="3.0" />
            <path d=" M 698.772, 680.521 703.960, 681.047 710.464, 682.342 713.968, 682.819 717.646, 683.111 722.080, 683.960 726.431, 684.933 728.683, 684.900 732.110, 685.188 733.409, 685.583 734.330, 685.454 736.199, 684.939 738.093, 684.417 " fill="none" stroke="rgb(0, 0, 0)" stroke-linecap="butt" stroke-linejoin="round" stroke-opacity="1.0" stroke-width="3.0" />
            <path d=" M 650.201, 1024.217 650.540, 1017.752 650.548, 1017.597 651.201, 1014.665 652.773, 1011.867 653.841, 1009.968 656.066, 1007.126 657.940, 1004.754 660.666, 1001.302 662.772, 995.124 663.515, 992.892 663.753, 992.179 663.892, 991.286 663.926, 991.069 664.106, 989.906 664.136, 989.715 664.315, 988.568 664.578, 987.153 " fill="none" stroke="rgb(0, 0, 0)" stroke-linecap="butt" stroke-linejoin="round" stroke-opacity="1.0" stroke-width="3.0" />
            <path d=" M 618.760, 978.737 620.804, 975.848 620.885, 975.733 624.855, 970.121 630.400, 965.900 639.616, 962.018 640.527, 961.635 644.090, 960.577 651.410, 958.832 652.531, 958.565 " fill="none" stroke="rgb(0, 0, 0)" stroke-linecap="butt" stroke-linejoin="round" stroke-opacity="1.0" stroke-width="3.0" />
            <path d=" M 854.747, 999.938 854.874, 1000.810 854.634, 1002.464 854.472, 1003.582 854.573, 1004.064 855.481, 1008.426 856.292, 1013.369 858.975, 1015.093 860.644, 1014.095 862.338, 1011.049 864.668, 1004.852 865.871, 998.292 865.812, 994.278 865.791, 992.829 " fill="none" stroke="rgb(0, 0, 0)" stroke-linecap="butt" stroke-linejoin="round" stroke-opacity="1.0" stroke-width="3.0" />
            <path d=" M 840.261, 855.271 839.870, 855.830 838.370, 857.971 836.821, 863.614 833.865, 871.412 833.730, 871.769 830.552, 875.901 829.836, 877.135 830.457, 878.520 831.223, 879.316 837.705, 879.673 839.583, 879.471 839.947, 879.431 839.961, 879.430 840.196, 879.404 840.565, 879.365 841.122, 879.304 841.646, 879.248 841.984, 879.211 841.999, 879.210 842.254, 879.182 842.570, 879.148 842.651, 879.139 843.276, 879.072 843.370, 879.061 843.406, 879.058 843.626, 879.034 843.635, 879.035 844.616, 879.123 845.141, 879.170 " fill="none" stroke="rgb(0, 0, 0)" stroke-linecap="butt" stroke-linejoin="round" stroke-opacity="1.0" stroke-width="3.0" />
            <path d=" M 415.137, 350.744 415.089, 350.805 410.638, 356.469 408.756, 359.384 401.843, 366.610 401.247, 367.234 398.343, 371.039 392.722, 379.309 392.168, 380.123 391.463, 383.543 391.316, 384.293 " fill="none" stroke="rgb(0, 0, 0)" stroke-linecap="butt" stroke-linejoin="round" stroke-opacity="1.0" stroke-width="3.0" />
            <path d=" M 761.976, 852.478 761.366, 853.119 758.962, 855.641 755.584, 858.623 754.669, 860.351 754.599, 861.198 754.851, 862.195 758.190, 862.888 764.035, 862.911 767.547, 863.300 770.740, 863.866 775.550, 864.437 779.542, 864.463 783.127, 865.803 783.440, 865.920 " fill="none" stroke="rgb(0, 0, 0)" stroke-linecap="butt" stroke-linejoin="round" stroke-opacity="1.0" stroke-width="3.0" />
            <path d=" M 694.459, 873.263 698.257, 871.115 699.391, 867.725 697.713, 861.812 695.995, 857.540 696.204, 852.587 696.332, 847.588 696.462, 845.974 695.382, 843.074 695.024, 842.498 691.876, 838.691 690.448, 838.072 688.985, 838.027 " fill="none" stroke="rgb(0, 0, 0)" stroke-linecap="butt" stroke-linejoin="round" stroke-opacity="1.0" stroke-width="3.0" />
            <path d=" M 677.688, 966.317 680.628, 967.104 684.101, 965.216 687.315, 960.808 693.779, 953.178 694.834, 951.933 698.712, 947.251 699.077, 946.435 698.414, 940.942 694.921, 936.524 " fill="none" stroke="rgb(0, 0, 0)" stroke-linecap="butt" stroke-linejoin="round" stroke-opacity="1.0" stroke-width="3.0" />
            <path d=" M 752.182, 805.460 751.608, 807.639 747.705, 814.379 748.150, 816.195 748.627, 818.139 748.186, 818.986 746.651, 821.936 745.631, 824.040 745.869, 824.727 746.887, 826.781 746.520, 829.997 748.382, 831.769 751.730, 832.694 757.365, 832.764 758.521, 832.810 761.374, 832.924 " fill="none" stroke="rgb(0, 0, 0)" stroke-linecap="butt" stroke-linejoin="round" stroke-opacity="1.0" stroke-width="3.0" />
            <path d=" M 439.424, 933.627 441.431, 937.364 445.988, 945.562 449.051, 951.167 452.688, 957.765 447.929, 948.970 445.551, 944.572 " fill="none" stroke="rgb(0, 0, 0)" stroke-linecap="butt" stroke-linejoin="round" stroke-opacity="1.0" stroke-width="3.0" />
            <path d=" M 569.153, 362.609 566.402, 361.037 562.833, 357.510 559.431, 353.370 557.882, 351.397 557.580, 351.112 552.339, 346.174 549.083, 343.590 543.437, 338.729 540.652, 336.028 537.693, 333.158 " fill="none" stroke="rgb(0, 0, 0)" stroke-linecap="butt" stroke-linejoin="round" stroke-opacity="1.0" stroke-width="3.0" />
            <path d=" M 476.431, 1013.261 477.611, 1017.286 479.503, 1025.540 481.468, 1035.345 481.564, 1035.821 483.189, 1045.688 483.376, 1046.824 484.398, 1049.148 485.180, 1052.376 486.939, 1055.489 " fill="none" stroke="rgb(0, 0, 0)" stroke-linecap="butt" stroke-linejoin="round" stroke-opacity="1.0" stroke-width="3.0" />
            <path d=" M 629.747, 388.333 631.303, 383.557 631.173, 373.558 631.169, 373.231 629.931, 367.747 628.912, 364.218 627.029, 360.631 623.526, 358.856 618.527, 358.553 612.661, 360.613 " fill="none" stroke="rgb(0, 0, 0)" stroke-linecap="butt" stroke-linejoin="round" stroke-opacity="1.0" stroke-width="3.0" />
            <path d=" M 367.613, 426.163 367.406, 426.392 362.168, 432.197 356.802, 436.834 351.555, 440.920 348.477, 445.250 346.870, 450.537 343.903, 454.984 342.632, 458.396 342.353, 459.147 341.322, 461.736 " fill="none" stroke="rgb(0, 0, 0)" stroke-linecap="butt" stroke-linejoin="round" stroke-opacity="1.0" stroke-width="3.0" />
            <path d=" M 337.775, 467.356 335.258, 473.072 332.614, 480.581 331.666, 484.772 330.269, 490.925 327.181, 500.436 326.895, 501.318 326.339, 505.858 326.043, 510.606 326.021, 510.958 " fill="none" stroke="rgb(0, 0, 0)" stroke-linecap="butt" stroke-linejoin="round" stroke-opacity="1.0" stroke-width="3.0" />
            <path d=" M 511.567, 1128.110 514.454, 1124.908 509.318, 1128.801 508.342, 1129.541 506.675, 1130.805 503.131, 1130.352 501.570, 1128.480 500.416, 1126.221 499.676, 1121.518 499.002, 1115.282 498.992, 1115.238 498.047, 1110.915 496.963, 1102.560 " fill="none" stroke="rgb(0, 0, 0)" stroke-linecap="butt" stroke-linejoin="round" stroke-opacity="1.0" stroke-width="3.0" />
            <path d=" M 453.026, 917.115 455.309, 919.990 457.950, 926.345 462.038, 935.472 463.545, 938.838 468.452, 947.552 468.616, 947.843 473.395, 956.628 474.024, 957.784 474.433, 958.535 " fill="none" stroke="rgb(0, 0, 0)" stroke-linecap="butt" stroke-linejoin="round" stroke-opacity="1.0" stroke-width="3.0" />
            <path d=" M 610.602, 381.946 606.898, 380.068 605.554, 378.977 600.569, 377.128 598.214, 376.783 596.116, 375.497 591.968, 372.741 586.873, 370.369 584.089, 369.036 582.463, 368.284 576.712, 366.274 573.063, 364.481 569.153, 362.609 568.465, 362.279 " fill="none" stroke="rgb(0, 0, 0)" stroke-linecap="butt" stroke-linejoin="round" stroke-opacity="1.0" stroke-width="3.0" />
            <path d=" M 490.074, 978.193 494.426, 987.197 495.265, 988.933 498.884, 998.255 500.272, 1001.833 502.099, 1008.786 503.052, 1013.590 505.544, 1023.195 " fill="none" stroke="rgb(0, 0, 0)" stroke-linecap="butt" stroke-linejoin="round" stroke-opacity="1.0" stroke-width="3.0" />
            <path d=" M 371.955, 716.947 373.188, 720.195 373.717, 721.587 373.827, 721.876 374.120, 722.648 376.320, 728.441 379.348, 736.414 379.553, 737.248 379.665, 737.702 379.792, 738.217 381.649, 745.749 381.992, 747.141 382.449, 748.996 382.989, 751.146 384.234, 756.100 384.374, 756.895 385.569, 763.662 " fill="none" stroke="rgb(0, 0, 0)" stroke-linecap="butt" stroke-linejoin="round" stroke-opacity="1.0" stroke-width="3.0" />
            <path d=" M 630.725, 688.258 630.385, 684.746 630.290, 680.468 630.010, 673.908 630.818, 667.901 631.852, 665.555 631.856, 665.393 631.894, 663.839 631.416, 659.689 631.868, 657.257 634.360, 652.866 633.703, 649.597 630.111, 648.191 625.830, 647.773 624.085, 647.592 " fill="none" stroke="rgb(0, 0, 0)" stroke-linecap="butt" stroke-linejoin="round" stroke-opacity="1.0" stroke-width="3.0" />
            <path d=" M 799.880, 516.308 800.067, 514.243 800.148, 513.351 798.592, 503.995 797.353, 500.434 796.608, 498.293 793.234, 490.899 789.917, 482.348 786.436, 476.685 781.685, 470.134 " fill="none" stroke="rgb(0, 0, 0)" stroke-linecap="butt" stroke-linejoin="round" stroke-opacity="1.0" stroke-width="3.0" />
            <path d=" M 680.239, 410.175 679.218, 403.589 675.484, 400.602 671.383, 398.710 668.277, 397.967 667.179, 397.826 657.563, 396.455 650.131, 395.130 640.314, 393.228 637.493, 392.681 636.430, 392.431 " fill="none" stroke="rgb(0, 0, 0)" stroke-linecap="butt" stroke-linejoin="round" stroke-opacity="1.0" stroke-width="3.0" />
            <path d=" M 347.194, 704.635 347.043, 706.966 348.256, 711.679 349.599, 716.040 350.628, 718.950 352.883, 724.267 354.955, 732.948 355.530, 735.358 356.463, 740.359 358.107, 748.581 358.762, 754.643 " fill="none" stroke="rgb(0, 0, 0)" stroke-linecap="butt" stroke-linejoin="round" stroke-opacity="1.0" stroke-width="3.0" />
            <path d=" M 724.180, 549.732 726.510, 550.177 726.821, 550.236 728.410, 550.539 734.475, 550.309 740.174, 551.602 747.709, 553.662 750.865, 554.030 756.478, 554.997 760.408, 553.356 762.477, 550.978 763.839, 546.810 764.788, 544.673 764.996, 543.492 765.025, 543.327 765.100, 542.901 765.152, 542.604 765.747, 539.218 " fill="none" stroke="rgb(0, 0, 0)" stroke-linecap="butt" stroke-linejoin="round" stroke-opacity="1.0" stroke-width="3.0" />
            <path d=" M 846.637, 959.984 845.783, 964.675 845.605, 965.655 844.705, 970.595 844.458, 978.782 844.333, 982.887 843.220, 989.659 841.914, 994.900 842.183, 999.975 843.528, 1001.826 843.569, 1001.884 843.594, 1001.918 843.699, 1002.063 844.847, 1002.747 845.537, 1003.157 847.526, 1002.514 851.346, 1001.300 852.353, 1000.728 852.844, 1000.449 " fill="none" stroke="rgb(0, 0, 0)" stroke-linecap="butt" stroke-linejoin="round" stroke-opacity="1.0" stroke-width="3.0" />
            <path d=" M 434.268, 691.190 436.841, 698.520 438.477, 702.479 440.231, 708.760 445.078, 717.507 445.809, 718.828 448.178, 721.189 451.860, 730.486 452.120, 731.144 455.572, 739.376 " fill="none" stroke="rgb(0, 0, 0)" stroke-linecap="butt" stroke-linejoin="round" stroke-opacity="1.0" stroke-width="3.0" />
            <path d=" M 677.186, 509.975 671.603, 503.302 670.051, 499.713 669.739, 498.992 668.501, 496.926 667.855, 495.849 667.722, 495.628 667.660, 495.524 664.973, 491.042 662.225, 484.285 659.430, 479.127 655.191, 470.070 652.060, 463.382 " fill="none" stroke="rgb(0, 0, 0)" stroke-linecap="butt" stroke-linejoin="round" stroke-opacity="1.0" stroke-width="3.0" />
            <path d=" M 540.652, 336.028 536.523, 330.790 532.118, 325.869 528.782, 322.621 523.247, 317.756 520.461, 316.828 514.110, 314.307 508.761, 312.178 505.563, 311.450 503.292, 310.934 500.265, 309.869 498.680, 309.311 497.017, 308.896 495.714, 308.571 " fill="none" stroke="rgb(0, 0, 0)" stroke-linecap="butt" stroke-linejoin="round" stroke-opacity="1.0" stroke-width="3.0" />
            <path d=" M 599.289, 1197.842 600.835, 1197.682 602.474, 1197.512 602.630, 1197.496 602.717, 1197.487 604.048, 1197.349 605.729, 1197.591 611.499, 1197.032 616.313, 1199.095 617.859, 1199.330 623.159, 1200.136 624.268, 1199.884 630.415, 1197.061 631.783, 1195.144 632.578, 1191.500 632.044, 1189.573 628.646, 1187.792 622.179, 1184.401 619.862, 1182.395 " fill="none" stroke="rgb(0, 0, 0)" stroke-linecap="butt" stroke-linejoin="round" stroke-opacity="1.0" stroke-width="3.0" />
            <path d=" M 800.279, 738.321 795.611, 743.408 794.100, 745.514 793.714, 747.697 794.546, 750.799 798.755, 755.113 798.440, 760.149 796.712, 765.772 797.202, 769.907 799.796, 771.903 806.182, 772.017 812.000, 772.595 812.465, 772.641 815.492, 772.942 " fill="none" stroke="rgb(0, 0, 0)" stroke-linecap="butt" stroke-linejoin="round" stroke-opacity="1.0" stroke-width="3.0" />
            <path d=" M 416.063, 652.002 417.609, 655.187 418.571, 657.167 420.032, 663.448 425.280, 671.960 425.669, 672.591 426.276, 673.546 428.483, 677.018 430.981, 683.334 434.006, 692.865 434.735, 695.163 438.477, 702.479 " fill="none" stroke="rgb(0, 0, 0)" stroke-linecap="butt" stroke-linejoin="round" stroke-opacity="1.0" stroke-width="3.0" />
            <path d=" M 881.942, 879.046 882.603, 875.602 883.429, 871.224 884.899, 867.052 885.002, 866.758 886.429, 858.815 886.785, 853.354 887.190, 849.564 887.778, 842.557 888.601, 836.530 888.473, 832.514 889.264, 828.467 888.668, 824.001 " fill="none" stroke="rgb(0, 0, 0)" stroke-linecap="butt" stroke-linejoin="round" stroke-opacity="1.0" stroke-width="3.0" />
            <path d=" M 842.998, 551.605 843.798, 542.591 841.687, 532.816 841.434, 531.647 840.802, 529.135 839.705, 526.326 839.728, 523.605 839.626, 520.629 837.222, 516.996 835.766, 511.688 834.781, 510.259 832.864, 508.540 831.926, 507.211 828.144, 504.473 826.796, 503.954 823.297, 504.378 " fill="none" stroke="rgb(0, 0, 0)" stroke-linecap="butt" stroke-linejoin="round" stroke-opacity="1.0" stroke-width="3.0" />
            <path d=" M 390.023, 392.596 389.554, 393.398 387.059, 397.664 381.803, 406.171 381.381, 406.855 377.706, 411.753 374.457, 418.885 374.035, 419.813 371.952, 425.760 371.066, 428.519 370.972, 428.813 370.536, 430.171 370.530, 430.189 370.484, 430.333 370.227, 431.135 369.988, 431.878 369.707, 432.756 369.257, 434.158 369.226, 434.254 369.158, 434.467 368.885, 435.152 367.820, 437.834 365.194, 444.447 " fill="none" stroke="rgb(0, 0, 0)" stroke-linecap="butt" stroke-linejoin="round" stroke-opacity="1.0" stroke-width="3.0" />
            <path d=" M 355.996, 590.631 357.485, 600.519 358.973, 610.408 359.027, 610.767 360.453, 620.664 360.556, 621.383 362.783, 631.131 363.473, 634.154 365.531, 643.447 365.912, 645.257 366.940, 650.133 " fill="none" stroke="rgb(0, 0, 0)" stroke-linecap="butt" stroke-linejoin="round" stroke-opacity="1.0" stroke-width="3.0" />
            <path d=" M 761.839, 529.590 759.211, 526.969 757.267, 525.032 757.241, 525.006 754.376, 522.151 753.980, 521.756 753.143, 521.186 753.123, 521.173 752.255, 520.581 751.839, 520.298 751.640, 520.163 750.725, 519.897 750.375, 519.796 749.683, 519.596 749.302, 519.486 748.788, 519.337 747.709, 519.024 747.253, 518.819 746.832, 518.631 737.708, 514.539 737.420, 514.410 735.786, 514.116 735.691, 514.099 733.375, 513.681 732.452, 513.515 731.968, 513.428 728.284, 514.372 724.557, 516.208 722.787, 517.207 718.750, 519.633 714.676, 523.372 713.604, 524.356 710.313, 527.320 " fill="none" stroke="rgb(0, 0, 0)" stroke-linecap="butt" stroke-linejoin="round" stroke-opacity="1.0" stroke-width="3.0" />
            <path d=" M 542.283, 1150.846 542.892, 1151.392 548.012, 1157.823 552.476, 1162.602 556.110, 1165.889 562.066, 1172.161 568.315, 1177.300 573.261, 1182.711 576.856, 1186.614 579.437, 1190.547 582.915, 1191.589 585.864, 1192.592 586.322, 1192.613 " fill="none" stroke="rgb(0, 0, 0)" stroke-linecap="butt" stroke-linejoin="round" stroke-opacity="1.0" stroke-width="3.0" />
            <path d=" M 781.778, 870.283 781.340, 870.642 779.329, 872.292 777.047, 876.611 772.011, 885.110 767.426, 889.261 764.079, 892.447 764.444, 895.426 766.184, 896.379 772.400, 896.501 776.505, 896.527 782.895, 896.446 788.530, 895.200 792.708, 894.797 793.750, 895.350 794.287, 895.635 " fill="none" stroke="rgb(0, 0, 0)" stroke-linecap="butt" stroke-linejoin="round" stroke-opacity="1.0" stroke-width="3.0" />
            <path d=" M 694.683, 898.051 694.912, 896.116 695.793, 888.681 695.570, 886.901 694.956, 881.985 694.808, 879.387 694.459, 873.263 694.384, 871.951 693.143, 868.041 692.344, 862.927 692.386, 853.948 692.395, 852.000 691.084, 847.880 691.024, 847.691 690.642, 843.181 689.292, 838.988 688.985, 838.027 688.466, 836.404 " fill="none" stroke="rgb(0, 0, 0)" stroke-linecap="butt" stroke-linejoin="round" stroke-opacity="1.0" stroke-width="3.0" />
            <path d=" M 452.688, 957.765 457.234, 966.672 459.089, 970.307 463.274, 979.389 464.619, 982.308 468.556, 991.501 470.818, 996.782 473.073, 1003.801 476.431, 1013.261 477.156, 1015.303 " fill="none" stroke="rgb(0, 0, 0)" stroke-linecap="butt" stroke-linejoin="round" stroke-opacity="1.0" stroke-width="3.0" />
            <path d=" M 637.309, 1131.873 640.554, 1124.770 642.453, 1119.902 642.455, 1119.895 643.766, 1115.520 645.421, 1109.227 645.594, 1104.837 645.062, 1101.429 644.983, 1100.921 643.448, 1094.612 642.831, 1088.819 642.753, 1080.827 643.158, 1079.567 643.233, 1079.334 644.338, 1075.892 644.603, 1075.325 646.726, 1070.790 " fill="none" stroke="rgb(0, 0, 0)" stroke-linecap="butt" stroke-linejoin="round" stroke-opacity="1.0" stroke-width="3.0" />
            <path d=" M 710.814, 543.170 711.787, 541.293 712.619, 538.705 712.553, 536.555 711.893, 535.262 709.672, 531.317 706.792, 528.851 702.035, 525.015 701.520, 524.599 695.101, 518.808 690.725, 515.489 688.943, 514.387 688.841, 514.324 688.750, 514.268 685.680, 512.370 684.206, 511.459 683.152, 510.733 681.894, 509.867 681.597, 509.662 681.092, 509.314 677.923, 507.131 673.647, 502.956 670.051, 499.713 " fill="none" stroke="rgb(0, 0, 0)" stroke-linecap="butt" stroke-linejoin="round" stroke-opacity="1.0" stroke-width="3.0" />
            <path d=" M 476.808, 963.277 477.101, 963.816 478.373, 966.158 480.562, 972.586 480.572, 972.614 480.573, 972.616 480.692, 972.968 483.771, 981.741 483.798, 981.819 486.012, 988.129 488.352, 996.686 490.789, 1006.385 491.127, 1007.731 492.741, 1014.369 494.448, 1024.222 495.268, 1028.957 495.331, 1029.316 " fill="none" stroke="rgb(0, 0, 0)" stroke-linecap="butt" stroke-linejoin="round" stroke-opacity="1.0" stroke-width="3.0" />
            <path d=" M 412.912, 880.583 413.372, 881.651 416.486, 888.385 420.738, 897.435 422.254, 900.661 426.748, 909.594 429.530, 915.124 431.992, 920.066 436.242, 929.118 436.317, 929.278 439.424, 933.627 440.550, 935.201 444.850, 941.386 " fill="none" stroke="rgb(0, 0, 0)" stroke-linecap="butt" stroke-linejoin="round" stroke-opacity="1.0" stroke-width="3.0" />
            <path d=" M 495.268, 1028.957 495.679, 1032.121 497.323, 1041.985 498.400, 1048.448 499.840, 1058.344 500.141, 1060.410 500.384, 1061.466 500.870, 1063.579 503.114, 1073.324 504.077, 1077.506 504.450, 1081.706 505.627, 1084.981 507.048, 1091.120 508.719, 1095.622 509.388, 1097.423 " fill="none" stroke="rgb(0, 0, 0)" stroke-linecap="butt" stroke-linejoin="round" stroke-opacity="1.0" stroke-width="3.0" />
            <path d=" M 875.044, 958.644 876.785, 951.453 877.413, 945.993 879.206, 939.812 879.989, 933.384 881.227, 923.937 881.657, 917.576 881.789, 907.691 882.338, 900.681 883.066, 893.185 883.155, 888.479 " fill="none" stroke="rgb(0, 0, 0)" stroke-linecap="butt" stroke-linejoin="round" stroke-opacity="1.0" stroke-width="3.0" />
            <path d=" M 690.377, 486.025 690.950, 483.945 691.012, 483.719 691.099, 483.401 691.417, 482.877 692.146, 481.676 692.997, 480.273 693.419, 478.773 694.648, 472.685 695.248, 469.711 694.900, 466.617 694.805, 465.766 694.378, 461.919 694.360, 461.758 693.622, 455.115 690.987, 448.497 687.510, 442.460 685.494, 440.565 679.751, 435.164 674.286, 432.173 671.245, 431.582 666.128, 431.089 " fill="none" stroke="rgb(0, 0, 0)" stroke-linecap="butt" stroke-linejoin="round" stroke-opacity="1.0" stroke-width="3.0" />
            <path d=" M 615.091, 1186.422 615.816, 1185.927 617.238, 1184.957 618.463, 1184.121 618.900, 1183.822 619.585, 1182.806 619.672, 1182.677 619.862, 1182.395 620.413, 1181.577 622.466, 1180.537 622.716, 1180.410 624.719, 1180.664 633.051, 1181.721 640.729, 1178.770 645.374, 1174.924 647.385, 1173.487 648.784, 1169.987 648.263, 1166.941 647.002, 1165.957 642.428, 1165.342 639.527, 1165.380 634.678, 1164.487 625.276, 1162.608 618.888, 1160.524 " fill="none" stroke="rgb(0, 0, 0)" stroke-linecap="butt" stroke-linejoin="round" stroke-opacity="1.0" stroke-width="3.0" />
            <path d=" M 627.257, 713.769 625.854, 715.616 622.078, 720.658 617.392, 723.739 612.701, 727.830 610.747, 729.662 607.561, 733.136 605.847, 735.506 602.649, 736.403 601.861, 737.189 601.201, 737.989 599.230, 740.377 600.718, 747.141 602.730, 750.877 608.973, 755.331 610.017, 756.076 610.146, 756.219 613.754, 760.218 615.207, 762.105 619.551, 767.746 " fill="none" stroke="rgb(0, 0, 0)" stroke-linecap="butt" stroke-linejoin="round" stroke-opacity="1.0" stroke-width="3.0" />
            <path d=" M 608.829, 627.340 610.693, 625.650 610.693, 625.650 613.634, 622.983 614.800, 622.051 619.262, 618.484 625.716, 613.210 634.362, 609.672 644.067, 609.574 652.280, 605.834 655.549, 602.752 658.376, 599.499 664.325, 593.441 664.452, 593.311 667.016, 590.700 670.296, 588.213 " fill="none" stroke="rgb(0, 0, 0)" stroke-linecap="butt" stroke-linejoin="round" stroke-opacity="1.0" stroke-width="3.0" />
            <path d=" M 326.895, 501.318 324.687, 511.071 324.342, 512.595 324.695, 517.252 324.023, 520.184 324.011, 525.832 322.899, 535.770 322.691, 537.632 323.380, 543.444 324.182, 549.724 324.405, 558.605 324.892, 561.944 326.038, 570.100 327.056, 576.012 " fill="none" stroke="rgb(0, 0, 0)" stroke-linecap="butt" stroke-linejoin="round" stroke-opacity="1.0" stroke-width="3.0" />
            <path d=" M 783.524, 473.910 781.685, 470.134 780.497, 467.694 776.672, 464.029 771.428, 459.934 768.080, 458.989 762.744, 457.841 755.931, 457.779 748.584, 460.550 739.890, 465.492 739.750, 465.572 739.005, 467.363 738.408, 470.437 739.537, 473.958 741.392, 475.409 741.788, 475.559 745.996, 476.686 749.293, 478.636 750.054, 479.597 750.361, 479.985 750.504, 480.165 751.944, 481.984 " fill="none" stroke="rgb(0, 0, 0)" stroke-linecap="butt" stroke-linejoin="round" stroke-opacity="1.0" stroke-width="3.0" />
            <path d=" M 533.389, 686.124 535.989, 684.404 536.150, 684.297 536.192, 684.269 536.959, 683.762 537.588, 683.345 538.176, 682.956 538.204, 682.938 538.693, 682.614 540.671, 681.970 540.679, 681.967 541.021, 681.856 541.182, 681.803 541.713, 681.630 541.745, 681.620 541.784, 681.607 543.360, 681.093 544.325, 680.779 548.860, 679.223 548.866, 679.221 554.953, 677.132 555.633, 676.898 557.473, 675.932 558.766, 674.968 561.380, 673.019 565.882, 669.214 566.164, 668.975 567.294, 668.020 570.800, 664.203 570.828, 664.172 571.034, 663.947 573.564, 661.193 578.716, 655.931 582.219, 652.802 588.814, 648.492 594.570, 642.911 597.719, 637.734 598.957, 635.956 601.673, 632.058 601.699, 632.021 602.498, 630.874 603.268, 629.769 " fill="none" stroke="rgb(0, 0, 0)" stroke-linecap="butt" stroke-linejoin="round" stroke-opacity="1.0" stroke-width="3.0" />
            <path d=" M 667.157, 882.162 668.157, 880.562 672.064, 874.307 677.362, 865.826 678.038, 864.744 678.850, 862.614 678.953, 862.345 679.186, 861.732 679.350, 861.302 679.405, 861.107 679.562, 860.554 680.271, 858.048 680.299, 857.951 680.956, 855.629 681.063, 855.251 682.376, 850.614 682.569, 849.592 683.265, 845.913 683.848, 842.834 684.032, 841.861 684.310, 836.889 684.327, 836.589 684.427, 834.790 685.033, 831.368 685.040, 831.329 685.596, 828.193 686.756, 821.641 686.928, 820.678 686.967, 820.462 687.317, 818.512 687.339, 818.392 687.483, 817.586 688.685, 810.891 690.055, 805.450 690.368, 800.090 689.728, 790.590 688.949, 788.884 " fill="none" stroke="rgb(0, 0, 0)" stroke-linecap="butt" stroke-linejoin="round" stroke-opacity="1.0" stroke-width="3.0" />
            <path d=" M 415.740, 794.234 419.594, 803.462 421.873, 808.919 424.778, 818.488 425.574, 821.111 427.531, 830.918 427.951, 833.027 429.544, 842.899 430.597, 849.426 431.530, 853.083 432.560, 857.950 435.293, 865.820 435.314, 865.881 435.468, 866.325 438.906, 875.716 439.106, 876.264 441.498, 881.071 442.327, 882.736 445.374, 888.862 " fill="none" stroke="rgb(0, 0, 0)" stroke-linecap="butt" stroke-linejoin="round" stroke-opacity="1.0" stroke-width="3.0" />
            <path d=" M 455.630, 738.178 455.572, 739.376 455.505, 740.746 456.177, 743.416 456.362, 744.152 458.804, 753.849 459.316, 755.883 460.314, 765.833 460.791, 770.585 462.074, 775.993 462.492, 777.754 462.090, 779.218 459.812, 787.518 457.717, 797.296 457.517, 798.230 456.632, 806.772 457.084, 816.762 457.141, 818.029 458.444, 824.692 459.341, 829.753 459.806, 832.029 460.804, 836.901 460.872, 837.237 " fill="none" stroke="rgb(0, 0, 0)" stroke-linecap="butt" stroke-linejoin="round" stroke-opacity="1.0" stroke-width="3.0" />
            <path d=" M 679.300, 551.926 679.034, 554.120 678.570, 557.168 678.555, 557.266 678.524, 557.472 678.493, 557.677 676.989, 567.563 676.918, 568.027 675.674, 574.607 674.983, 576.318 673.938, 578.900 673.901, 578.991 673.357, 580.336 673.339, 580.379 673.338, 580.384 673.154, 580.839 672.932, 581.388 671.744, 584.322 671.189, 585.815 670.296, 588.213 669.595, 590.096 668.746, 592.375 666.194, 596.953 662.941, 604.997 660.473, 611.574 656.433, 620.805 653.989, 630.384 651.082, 639.952 649.325, 645.733 647.462, 652.090 645.688, 658.570 " fill="none" stroke="rgb(0, 0, 0)" stroke-linecap="butt" stroke-linejoin="round" stroke-opacity="1.0" stroke-width="3.0" />
            <path d=" M 809.027, 931.674 808.393, 933.921 807.330, 937.282 807.491, 940.921 807.616, 941.313 808.063, 942.719 807.784, 943.692 807.591, 944.365 804.240, 948.082 801.164, 951.583 794.251, 958.362 790.166, 961.994 786.064, 964.453 781.806, 967.624 775.151, 971.650 768.091, 974.437 764.085, 976.170 761.067, 978.538 761.032, 980.191 766.804, 982.656 773.654, 983.791 778.033, 983.963 786.831, 984.589 790.338, 984.138 794.734, 984.018 797.086, 983.842 797.801, 983.564 800.027, 982.698 " fill="none" stroke="rgb(0, 0, 0)" stroke-linecap="butt" stroke-linejoin="round" stroke-opacity="1.0" stroke-width="3.0" />
            <path d=" M 354.295, 736.330 352.914, 739.599 351.546, 742.841 349.488, 749.263 348.595, 755.352 348.614, 762.679 348.997, 766.847 350.365, 771.301 350.963, 773.013 352.096, 775.881 354.730, 780.729 357.092, 784.092 360.371, 788.575 364.450, 794.435 368.779, 802.708 371.813, 809.477 374.935, 814.675 377.224, 819.891 380.647, 824.768 384.132, 829.861 387.369, 832.852 391.791, 837.505 396.143, 842.298 " fill="none" stroke="rgb(0, 0, 0)" stroke-linecap="butt" stroke-linejoin="round" stroke-opacity="1.0" stroke-width="3.0" />
            <path d=" M 700.757, 651.609 702.166, 650.015 706.203, 645.446 710.080, 640.361 711.485, 635.493 711.519, 626.345 712.369, 617.234 712.321, 608.633 711.801, 603.811 711.642, 602.752 710.732, 598.110 709.969, 595.395 711.045, 590.464 711.238, 589.892 712.982, 584.718 713.087, 584.054 712.917, 583.341 711.222, 576.257 711.058, 575.573 710.908, 574.943 709.586, 568.754 709.585, 568.751 708.803, 565.089 705.672, 558.637 702.545, 551.927 701.866, 549.490 701.655, 548.733 701.616, 548.592 701.612, 548.579 701.608, 548.563 701.473, 548.078 701.470, 548.067 701.457, 548.022 701.348, 547.631 699.521, 542.763 699.364, 542.343 698.671, 540.496 696.681, 537.044 " fill="none" stroke="rgb(0, 0, 0)" stroke-linecap="butt" stroke-linejoin="round" stroke-opacity="1.0" stroke-width="3.0" />
            <path d=" M 632.891, 1136.742 642.311, 1137.453 646.192, 1137.533 652.738, 1138.277 662.588, 1136.552 664.477, 1136.221 673.667, 1133.726 680.228, 1131.154 682.037, 1130.074 691.258, 1126.380 698.150, 1122.510 700.042, 1121.009 701.636, 1119.651 701.020, 1117.023 698.215, 1115.603 692.348, 1116.548 682.522, 1114.847 678.539, 1114.599 673.408, 1113.521 666.116, 1111.592 656.838, 1107.864 655.945, 1107.505 " fill="none" stroke="rgb(0, 0, 0)" stroke-linecap="butt" stroke-linejoin="round" stroke-opacity="1.0" stroke-width="3.0" />
            <path d=" M 883.212, 767.700 883.112, 766.899 881.879, 756.975 881.855, 756.779 880.919, 753.879 880.617, 750.519 880.207, 746.803 879.624, 743.454 878.332, 735.946 877.915, 729.571 877.368, 725.245 876.970, 721.066 876.023, 716.640 874.960, 709.748 874.102, 703.361 872.947, 696.107 871.046, 686.290 870.283, 682.349 868.521, 675.170 866.203, 665.443 866.013, 664.645 864.909, 660.262 863.022, 652.863 860.461, 644.906 859.943, 643.298 " fill="none" stroke="rgb(0, 0, 0)" stroke-linecap="butt" stroke-linejoin="round" stroke-opacity="1.0" stroke-width="3.0" />
            <path d=" M 326.615, 567.983 326.643, 572.124 327.056, 576.012 327.370, 580.945 327.868, 583.186 328.818, 590.657 330.682, 597.454 330.540, 602.957 331.284, 607.368 332.618, 610.966 333.067, 618.303 334.568, 622.178 334.455, 627.461 334.729, 629.128 335.690, 633.150 337.086, 634.253 335.934, 637.515 337.746, 645.708 338.940, 651.040 340.738, 654.431 340.034, 656.846 339.959, 661.707 341.763, 667.076 342.614, 670.673 342.856, 676.163 343.527, 680.547 343.561, 687.627 345.147, 696.306 345.272, 697.154 346.488, 702.637 347.194, 704.635 347.708, 706.087 " fill="none" stroke="rgb(0, 0, 0)" stroke-linecap="butt" stroke-linejoin="round" stroke-opacity="1.0" stroke-width="3.0" />
        </g>
    </g>
</svg>
