<?xml version='1.0' encoding='ascii'?>
<svg xmlns="http://www.w3.org/2000/svg" height="1280" version="1.1" width="1280">
    <g id="RenderLayer_LineSet" inkscape:groupmode="lineset" inkscape:label="RenderLayer_LineSet" xmlns:inkscape="http://www.inkscape.org/namespaces/inkscape">
        <g id="strokes" inkscape:groupmode="layer" inkscape:label="strokes" xmlns:inkscape="http://www.inkscape.org/namespaces/inkscape">
            <path d=" M 680.816, 918.802 689.100, 918.286 692.506, 916.617 692.132, 914.027 691.746, 913.726 690.358, 911.742 688.620, 910.667 688.318, 910.461 " fill="none" stroke="rgb(0, 0, 0)" stroke-linecap="butt" stroke-linejoin="round" stroke-opacity="1.0" stroke-width="3.0" />
            <path d=" M 654.335, 665.795 654.162, 665.684 646.737, 660.903 639.934, 656.077 637.665, 654.189 " fill="none" stroke="rgb(0, 0, 0)" stroke-linecap="butt" stroke-linejoin="round" stroke-opacity="1.0" stroke-width="3.0" />
            <path d=" M 555.760, 719.504 552.774, 717.204 547.344, 713.140 539.498, 707.267 " fill="none" stroke="rgb(0, 0, 0)" stroke-linecap="butt" stroke-linejoin="round" stroke-opacity="1.0" stroke-width="3.0" />
            <path d=" M 592.335, 357.754 592.112, 357.585 592.060, 357.546 590.478, 356.351 589.983, 355.977 589.034, 355.260 587.444, 354.273 586.824, 353.889 585.677, 353.177 585.220, 352.893 584.736, 352.593 583.583, 351.877 581.254, 350.796 581.039, 350.696 580.692, 350.536 578.003, 349.293 577.432, 349.029 574.618, 347.729 " fill="none" stroke="rgb(0, 0, 0)" stroke-linecap="butt" stroke-linejoin="round" stroke-opacity="1.0" stroke-width="3.0" />
            <path d=" M 752.924, 912.658 754.146, 913.853 760.919, 917.818 763.116, 918.530 766.254, 918.370 771.477, 917.360 771.482, 917.359 771.625, 917.331 " fill="none" stroke="rgb(0, 0, 0)" stroke-linecap="butt" stroke-linejoin="round" stroke-opacity="1.0" stroke-width="3.0" />
            <path d=" M 722.369, 635.186 719.845, 632.350 718.682, 630.542 715.747, 628.600 712.788, 627.969 708.604, 626.883 705.253, 625.023 " fill="none" stroke="rgb(0, 0, 0)" stroke-linecap="butt" stroke-linejoin="round" stroke-opacity="1.0" stroke-width="3.0" />
            <path d=" M 830.791, 1108.889 832.080, 1109.939 834.050, 1111.544 834.782, 1111.607 838.338, 1111.668 840.906, 1107.857 840.929, 1107.822 840.956, 1107.859 843.516, 1111.469 843.346, 1111.073 842.368, 1108.593 " fill="none" stroke="rgb(0, 0, 0)" stroke-linecap="butt" stroke-linejoin="round" stroke-opacity="1.0" stroke-width="3.0" />
            <path d=" M 809.228, 1052.304 805.024, 1055.834 800.189, 1059.894 795.761, 1061.940 792.736, 1064.727 " fill="none" stroke="rgb(0, 0, 0)" stroke-linecap="butt" stroke-linejoin="round" stroke-opacity="1.0" stroke-width="3.0" />
            <path d=" M 445.592, 396.758 444.454, 399.699 445.272, 403.235 443.417, 406.297 444.109, 412.284 443.950, 412.958 443.918, 413.810 443.807, 416.790 " fill="none" stroke="rgb(0, 0, 0)" stroke-linecap="butt" stroke-linejoin="round" stroke-opacity="1.0" stroke-width="3.0" />
            <path d=" M 505.724, 338.130 501.927, 338.157 501.417, 338.161 499.971, 338.358 499.263, 338.454 498.195, 338.600 495.655, 338.946 495.091, 339.588 495.036, 339.650 492.897, 340.354 492.832, 340.375 490.960, 340.990 489.541, 341.457 489.531, 341.460 488.745, 341.848 488.590, 341.925 486.921, 342.748 485.724, 343.339 " fill="none" stroke="rgb(0, 0, 0)" stroke-linecap="butt" stroke-linejoin="round" stroke-opacity="1.0" stroke-width="3.0" />
            <path d=" M 866.909, 1024.280 865.848, 1027.035 865.041, 1029.965 864.543, 1032.651 864.161, 1038.040 864.988, 1044.982 " fill="none" stroke="rgb(0, 0, 0)" stroke-linecap="butt" stroke-linejoin="round" stroke-opacity="1.0" stroke-width="3.0" />
            <path d=" M 586.824, 353.889 586.336, 353.393 586.115, 353.169 586.072, 353.125 584.935, 352.368 583.275, 351.261 577.326, 347.298 576.648, 346.846 572.906, 345.766 569.927, 345.659 569.868, 345.656 569.798, 345.654 569.777, 345.653 569.494, 345.643 567.995, 345.589 " fill="none" stroke="rgb(0, 0, 0)" stroke-linecap="butt" stroke-linejoin="round" stroke-opacity="1.0" stroke-width="3.0" />
            <path d=" M 830.985, 777.156 829.546, 772.220 829.183, 770.978 828.542, 768.961 828.201, 767.886 827.134, 766.330 825.414, 763.822 824.309, 758.628 823.676, 757.502 " fill="none" stroke="rgb(0, 0, 0)" stroke-linecap="butt" stroke-linejoin="round" stroke-opacity="1.0" stroke-width="3.0" />
            <path d=" M 524.287, 336.759 522.722, 336.526 520.700, 336.452 516.509, 336.298 515.503, 336.384 513.407, 336.660 511.618, 336.896 505.724, 338.130 503.299, 338.638 " fill="none" stroke="rgb(0, 0, 0)" stroke-linecap="butt" stroke-linejoin="round" stroke-opacity="1.0" stroke-width="3.0" />
            <path d=" M 458.538, 441.653 458.487, 436.919 458.086, 433.265 456.732, 428.601 453.729, 421.138 " fill="none" stroke="rgb(0, 0, 0)" stroke-linecap="butt" stroke-linejoin="round" stroke-opacity="1.0" stroke-width="3.0" />
            <path d=" M 762.435, 946.256 766.255, 948.640 770.411, 951.151 776.250, 952.498 782.277, 952.717 " fill="none" stroke="rgb(0, 0, 0)" stroke-linecap="butt" stroke-linejoin="round" stroke-opacity="1.0" stroke-width="3.0" />
            <path d=" M 578.833, 1156.568 579.667, 1158.417 582.957, 1161.908 583.311, 1162.381 583.445, 1162.560 585.134, 1164.813 586.635, 1165.099 587.040, 1165.176 591.111, 1165.950 591.399, 1166.005 596.040, 1166.314 " fill="none" stroke="rgb(0, 0, 0)" stroke-linecap="butt" stroke-linejoin="round" stroke-opacity="1.0" stroke-width="3.0" />
            <path d=" M 669.313, 614.334 670.114, 617.996 670.602, 622.820 670.797, 624.758 671.543, 629.148 672.615, 635.613 " fill="none" stroke="rgb(0, 0, 0)" stroke-linecap="butt" stroke-linejoin="round" stroke-opacity="1.0" stroke-width="3.0" />
            <path d=" M 865.476, 1041.852 865.165, 1044.306 865.058, 1044.715 865.053, 1044.735 864.988, 1044.982 864.371, 1047.338 865.258, 1052.244 867.169, 1055.901 868.984, 1057.453 869.515, 1057.866 869.843, 1058.121 872.542, 1060.222 " fill="none" stroke="rgb(0, 0, 0)" stroke-linecap="butt" stroke-linejoin="round" stroke-opacity="1.0" stroke-width="3.0" />
            <path d=" M 782.038, 952.628 782.277, 952.717 785.521, 953.927 786.285, 955.611 785.891, 956.034 782.030, 959.290 779.855, 963.276 776.555, 968.180 " fill="none" stroke="rgb(0, 0, 0)" stroke-linecap="butt" stroke-linejoin="round" stroke-opacity="1.0" stroke-width="3.0" />
            <path d=" M 494.011, 1039.195 494.180, 1038.761 494.826, 1037.106 497.023, 1031.474 500.592, 1028.242 500.701, 1028.143 501.994, 1026.972 503.422, 1025.831 507.264, 1022.760 " fill="none" stroke="rgb(0, 0, 0)" stroke-linecap="butt" stroke-linejoin="round" stroke-opacity="1.0" stroke-width="3.0" />
            <path d=" M 554.251, 1059.799 554.390, 1062.215 554.739, 1065.008 555.323, 1074.359 556.598, 1081.281 556.623, 1081.419 " fill="none" stroke="rgb(0, 0, 0)" stroke-linecap="butt" stroke-linejoin="round" stroke-opacity="1.0" stroke-width="3.0" />
            <path d=" M 703.806, 523.223 706.939, 517.403 707.931, 512.664 710.901, 503.264 711.077, 502.709 " fill="none" stroke="rgb(0, 0, 0)" stroke-linecap="butt" stroke-linejoin="round" stroke-opacity="1.0" stroke-width="3.0" />
            <path d=" M 806.252, 835.848 803.037, 826.379 802.767, 825.583 798.737, 816.431 798.298, 815.436 " fill="none" stroke="rgb(0, 0, 0)" stroke-linecap="butt" stroke-linejoin="round" stroke-opacity="1.0" stroke-width="3.0" />
            <path d=" M 795.062, 995.309 793.358, 996.799 792.383, 998.916 794.542, 994.118 796.041, 992.080 797.155, 991.065 800.427, 988.807 801.316, 988.211 801.351, 988.188 801.384, 988.166 801.990, 987.759 803.341, 986.002 " fill="none" stroke="rgb(0, 0, 0)" stroke-linecap="butt" stroke-linejoin="round" stroke-opacity="1.0" stroke-width="3.0" />
            <path d=" M 780.646, 719.535 777.299, 724.372 777.315, 726.546 777.433, 728.554 778.150, 731.523 781.265, 735.953 781.397, 739.380 " fill="none" stroke="rgb(0, 0, 0)" stroke-linecap="butt" stroke-linejoin="round" stroke-opacity="1.0" stroke-width="3.0" />
            <path d=" M 857.903, 948.693 856.434, 948.679 854.951, 948.665 854.633, 948.661 852.665, 948.643 852.630, 948.642 852.252, 948.639 851.476, 948.643 851.333, 948.644 851.174, 948.645 851.095, 948.645 850.847, 951.262 852.104, 952.969 853.601, 955.000 853.810, 955.254 854.915, 956.597 855.026, 956.732 856.429, 958.020 859.073, 958.810 860.026, 959.095 " fill="none" stroke="rgb(0, 0, 0)" stroke-linecap="butt" stroke-linejoin="round" stroke-opacity="1.0" stroke-width="3.0" />
            <path d=" M 775.888, 918.421 773.268, 920.746 771.894, 921.966 769.100, 923.551 767.308, 928.634 764.369, 933.005 762.442, 935.167 " fill="none" stroke="rgb(0, 0, 0)" stroke-linecap="butt" stroke-linejoin="round" stroke-opacity="1.0" stroke-width="3.0" />
            <path d=" M 852.104, 952.969 852.376, 954.496 853.096, 958.537 853.115, 959.149 853.152, 960.320 853.161, 960.606 853.169, 960.870 853.175, 961.069 853.180, 961.221 853.363, 967.076 853.389, 967.810 853.445, 969.363 853.539, 972.003 853.559, 972.562 853.597, 973.631 853.603, 973.798 853.633, 974.636 853.707, 974.974 " fill="none" stroke="rgb(0, 0, 0)" stroke-linecap="butt" stroke-linejoin="round" stroke-opacity="1.0" stroke-width="3.0" />
            <path d=" M 562.042, 345.214 558.467, 343.670 554.119, 341.792 551.230, 341.512 549.092, 341.305 542.684, 339.675 542.294, 339.576 540.800, 339.701 " fill="none" stroke="rgb(0, 0, 0)" stroke-linecap="butt" stroke-linejoin="round" stroke-opacity="1.0" stroke-width="3.0" />
            <path d=" M 664.312, 682.515 663.817, 681.821 661.998, 679.081 660.483, 678.254 658.519, 677.180 656.849, 676.391 656.678, 676.310 655.509, 676.895 654.663, 677.318 651.414, 678.946 650.966, 679.171 648.960, 680.176 645.843, 681.739 " fill="none" stroke="rgb(0, 0, 0)" stroke-linecap="butt" stroke-linejoin="round" stroke-opacity="1.0" stroke-width="3.0" />
            <path d=" M 585.769, 566.744 594.681, 562.209 595.564, 561.760 600.464, 559.381 605.516, 556.466 " fill="none" stroke="rgb(0, 0, 0)" stroke-linecap="butt" stroke-linejoin="round" stroke-opacity="1.0" stroke-width="3.0" />
            <path d=" M 627.421, 1128.591 630.180, 1129.240 639.568, 1130.844 644.058, 1129.679 648.027, 1126.354 648.070, 1126.224 " fill="none" stroke="rgb(0, 0, 0)" stroke-linecap="butt" stroke-linejoin="round" stroke-opacity="1.0" stroke-width="3.0" />
            <path d=" M 569.978, 1079.401 570.627, 1086.698 571.164, 1091.799 572.321, 1098.408 572.510, 1099.488 572.877, 1101.582 " fill="none" stroke="rgb(0, 0, 0)" stroke-linecap="butt" stroke-linejoin="round" stroke-opacity="1.0" stroke-width="3.0" />
            <path d=" M 813.501, 735.801 811.002, 730.698 809.304, 728.595 807.172, 725.954 807.154, 725.920 806.969, 725.576 802.226, 716.773 802.086, 716.513 " fill="none" stroke="rgb(0, 0, 0)" stroke-linecap="butt" stroke-linejoin="round" stroke-opacity="1.0" stroke-width="3.0" />
            <path d=" M 614.283, 374.421 607.108, 367.311 607.042, 367.253 606.938, 367.163 606.057, 366.397 605.028, 365.502 605.027, 365.501 604.951, 365.435 604.176, 364.940 604.046, 364.856 603.683, 364.625 602.555, 363.904 600.496, 362.589 597.369, 360.591 596.812, 360.235 " fill="none" stroke="rgb(0, 0, 0)" stroke-linecap="butt" stroke-linejoin="round" stroke-opacity="1.0" stroke-width="3.0" />
            <path d=" M 764.572, 934.445 764.504, 934.468 764.463, 934.482 762.442, 935.167 759.099, 936.301 756.619, 937.649 755.131, 938.619 754.936, 941.771 758.832, 944.723 762.435, 946.256 762.823, 946.421 " fill="none" stroke="rgb(0, 0, 0)" stroke-linecap="butt" stroke-linejoin="round" stroke-opacity="1.0" stroke-width="3.0" />
            <path d=" M 450.665, 348.887 448.780, 349.947 446.379, 350.893 443.038, 353.299 441.695, 354.734 437.336, 358.202 434.359, 361.284 432.735, 362.729 " fill="none" stroke="rgb(0, 0, 0)" stroke-linecap="butt" stroke-linejoin="round" stroke-opacity="1.0" stroke-width="3.0" />
            <path d=" M 853.678, 1114.081 855.276, 1114.946 856.037, 1115.359 858.658, 1116.550 861.865, 1116.836 863.818, 1116.248 864.979, 1114.402 865.910, 1112.199 866.139, 1108.575 866.425, 1104.719 " fill="none" stroke="rgb(0, 0, 0)" stroke-linecap="butt" stroke-linejoin="round" stroke-opacity="1.0" stroke-width="3.0" />
            <path d=" M 437.001, 439.272 434.268, 441.674 432.744, 443.792 427.036, 451.235 422.830, 457.198 " fill="none" stroke="rgb(0, 0, 0)" stroke-linecap="butt" stroke-linejoin="round" stroke-opacity="1.0" stroke-width="3.0" />
            <path d=" M 562.749, 318.186 560.164, 315.540 555.704, 312.434 555.020, 312.367 548.207, 310.011 542.117, 308.750 542.110, 308.749 " fill="none" stroke="rgb(0, 0, 0)" stroke-linecap="butt" stroke-linejoin="round" stroke-opacity="1.0" stroke-width="3.0" />
            <path d=" M 560.534, 582.742 562.725, 580.770 562.804, 580.698 562.995, 580.527 562.998, 580.524 568.232, 575.812 569.392, 574.454 571.392, 572.113 578.329, 567.891 " fill="none" stroke="rgb(0, 0, 0)" stroke-linecap="butt" stroke-linejoin="round" stroke-opacity="1.0" stroke-width="3.0" />
            <path d=" M 504.447, 1066.249 504.174, 1060.160 503.143, 1051.962 501.399, 1042.806 " fill="none" stroke="rgb(0, 0, 0)" stroke-linecap="butt" stroke-linejoin="round" stroke-opacity="1.0" stroke-width="3.0" />
            <path d=" M 662.544, 915.438 663.964, 916.313 666.865, 918.054 670.349, 919.240 676.736, 919.896 680.816, 918.802 685.221, 917.621 " fill="none" stroke="rgb(0, 0, 0)" stroke-linecap="butt" stroke-linejoin="round" stroke-opacity="1.0" stroke-width="3.0" />
            <path d=" M 844.160, 822.558 843.463, 819.685 842.727, 817.055 842.334, 815.648 841.865, 813.971 841.101, 811.237 840.976, 810.792 841.242, 807.205 840.872, 800.449 840.711, 799.059 " fill="none" stroke="rgb(0, 0, 0)" stroke-linecap="butt" stroke-linejoin="round" stroke-opacity="1.0" stroke-width="3.0" />
            <path d=" M 638.976, 641.823 638.963, 638.065 638.913, 637.913 638.910, 637.905 637.162, 632.686 636.166, 625.977 635.968, 624.639 635.862, 623.597 635.860, 623.581 635.838, 623.367 635.212, 617.222 " fill="none" stroke="rgb(0, 0, 0)" stroke-linecap="butt" stroke-linejoin="round" stroke-opacity="1.0" stroke-width="3.0" />
            <path d=" M 409.408, 389.469 408.623, 389.909 405.098, 391.884 400.748, 394.230 397.628, 397.291 394.512, 399.832 391.828, 405.789 391.703, 406.065 " fill="none" stroke="rgb(0, 0, 0)" stroke-linecap="butt" stroke-linejoin="round" stroke-opacity="1.0" stroke-width="3.0" />
            <path d=" M 357.208, 509.547 356.785, 513.925 357.129, 514.895 357.133, 520.572 358.022, 523.606 358.331, 524.532 357.556, 528.608 357.669, 532.349 358.685, 534.319 " fill="none" stroke="rgb(0, 0, 0)" stroke-linecap="butt" stroke-linejoin="round" stroke-opacity="1.0" stroke-width="3.0" />
            <path d=" M 359.957, 673.005 356.949, 675.343 356.510, 675.684 353.397, 678.101 350.834, 682.868 350.104, 688.194 351.655, 693.028 352.503, 694.038 " fill="none" stroke="rgb(0, 0, 0)" stroke-linecap="butt" stroke-linejoin="round" stroke-opacity="1.0" stroke-width="3.0" />
            <path d=" M 880.898, 1061.011 882.934, 1060.572 885.361, 1060.048 885.512, 1060.015 886.082, 1059.892 886.250, 1059.785 888.812, 1058.151 891.457, 1054.864 892.961, 1049.876 893.640, 1043.571 893.423, 1041.770 " fill="none" stroke="rgb(0, 0, 0)" stroke-linecap="butt" stroke-linejoin="round" stroke-opacity="1.0" stroke-width="3.0" />
            <path d=" M 762.910, 499.892 762.718, 498.225 762.626, 497.109 762.305, 493.220 762.180, 491.705 761.596, 489.186 759.550, 486.424 757.038, 483.663 752.182, 481.297 751.994, 481.206 751.887, 481.154 749.400, 479.942 " fill="none" stroke="rgb(0, 0, 0)" stroke-linecap="butt" stroke-linejoin="round" stroke-opacity="1.0" stroke-width="3.0" />
            <path d=" M 478.808, 1051.029 479.050, 1056.622 479.330, 1063.088 480.697, 1067.060 482.156, 1068.888 484.135, 1071.071 484.542, 1071.119 489.046, 1071.644 " fill="none" stroke="rgb(0, 0, 0)" stroke-linecap="butt" stroke-linejoin="round" stroke-opacity="1.0" stroke-width="3.0" />
            <path d=" M 709.683, 811.142 709.144, 807.786 710.981, 805.134 711.780, 803.280 712.082, 802.580 712.092, 801.483 712.173, 792.422 710.277, 790.358 708.434, 788.433 707.427, 787.356 " fill="none" stroke="rgb(0, 0, 0)" stroke-linecap="butt" stroke-linejoin="round" stroke-opacity="1.0" stroke-width="3.0" />
            <path d=" M 815.249, 791.441 814.893, 792.203 814.351, 793.362 814.017, 794.077 811.397, 796.200 809.151, 799.060 808.767, 801.619 808.801, 804.039 810.864, 807.260 813.862, 810.621 814.161, 813.908 " fill="none" stroke="rgb(0, 0, 0)" stroke-linecap="butt" stroke-linejoin="round" stroke-opacity="1.0" stroke-width="3.0" />
            <path d=" M 631.363, 839.481 635.798, 832.428 641.862, 827.836 649.309, 826.378 652.639, 825.726 " fill="none" stroke="rgb(0, 0, 0)" stroke-linecap="butt" stroke-linejoin="round" stroke-opacity="1.0" stroke-width="3.0" />
            <path d=" M 500.430, 328.652 492.433, 334.657 490.856, 335.841 485.663, 338.757 477.576, 342.732 " fill="none" stroke="rgb(0, 0, 0)" stroke-linecap="butt" stroke-linejoin="round" stroke-opacity="1.0" stroke-width="3.0" />
            <path d=" M 466.399, 340.392 466.170, 340.354 463.771, 339.954 462.937, 339.977 460.109, 341.282 454.857, 344.470 453.406, 345.951 450.665, 348.887 450.125, 349.467 450.044, 349.553 449.975, 349.627 444.324, 354.080 " fill="none" stroke="rgb(0, 0, 0)" stroke-linecap="butt" stroke-linejoin="round" stroke-opacity="1.0" stroke-width="3.0" />
            <path d=" M 890.715, 1072.936 890.900, 1072.642 892.203, 1070.566 893.000, 1068.636 894.601, 1061.914 894.986, 1056.504 895.408, 1047.970 895.479, 1046.513 " fill="none" stroke="rgb(0, 0, 0)" stroke-linecap="butt" stroke-linejoin="round" stroke-opacity="1.0" stroke-width="3.0" />
            <path d=" M 473.604, 840.347 475.541, 847.818 476.148, 850.521 476.703, 852.723 477.072, 854.189 478.437, 859.937 479.401, 863.565 479.663, 864.553 479.961, 865.676 480.252, 866.770 " fill="none" stroke="rgb(0, 0, 0)" stroke-linecap="butt" stroke-linejoin="round" stroke-opacity="1.0" stroke-width="3.0" />
            <path d=" M 781.424, 739.264 781.397, 739.380 779.838, 746.073 780.764, 750.196 782.693, 752.272 785.948, 752.513 790.810, 752.602 795.885, 752.973 " fill="none" stroke="rgb(0, 0, 0)" stroke-linecap="butt" stroke-linejoin="round" stroke-opacity="1.0" stroke-width="3.0" />
            <path d=" M 688.665, 910.804 688.318, 910.461 684.828, 907.018 679.632, 904.763 676.413, 902.300 676.220, 896.759 675.854, 893.217 675.267, 890.167 " fill="none" stroke="rgb(0, 0, 0)" stroke-linecap="butt" stroke-linejoin="round" stroke-opacity="1.0" stroke-width="3.0" />
            <path d=" M 552.541, 617.784 552.515, 617.490 552.489, 617.205 552.220, 614.177 552.185, 613.780 552.283, 611.068 552.464, 606.061 554.958, 599.822 557.020, 596.061 557.430, 595.312 560.111, 592.640 " fill="none" stroke="rgb(0, 0, 0)" stroke-linecap="butt" stroke-linejoin="round" stroke-opacity="1.0" stroke-width="3.0" />
            <path d=" M 701.264, 829.949 702.072, 829.970 707.790, 827.539 708.160, 826.961 709.006, 825.639 709.470, 824.914 710.803, 822.830 711.158, 820.165 710.412, 814.192 709.683, 811.142 708.967, 808.144 " fill="none" stroke="rgb(0, 0, 0)" stroke-linecap="butt" stroke-linejoin="round" stroke-opacity="1.0" stroke-width="3.0" />
            <path d=" M 558.466, 654.245 554.246, 648.738 553.973, 648.380 553.447, 647.694 549.620, 643.256 547.893, 641.252 546.483, 639.372 542.515, 634.080 541.366, 632.547 " fill="none" stroke="rgb(0, 0, 0)" stroke-linecap="butt" stroke-linejoin="round" stroke-opacity="1.0" stroke-width="3.0" />
            <path d=" M 893.637, 1056.024 893.779, 1051.652 895.091, 1046.747 895.839, 1041.134 896.104, 1038.158 896.757, 1028.639 " fill="none" stroke="rgb(0, 0, 0)" stroke-linecap="butt" stroke-linejoin="round" stroke-opacity="1.0" stroke-width="3.0" />
            <path d=" M 676.145, 884.571 676.410, 884.092 678.023, 881.178 679.850, 877.565 681.171, 875.494 681.189, 875.466 681.305, 875.285 683.300, 872.156 683.459, 871.978 684.172, 871.181 686.806, 868.236 687.726, 866.426 690.500, 860.967 " fill="none" stroke="rgb(0, 0, 0)" stroke-linecap="butt" stroke-linejoin="round" stroke-opacity="1.0" stroke-width="3.0" />
            <path d=" M 859.180, 967.986 857.552, 969.529 857.353, 969.717 857.105, 970.040 855.924, 971.569 855.786, 971.747 855.783, 971.751 854.907, 972.885 854.876, 972.926 854.732, 973.112 854.724, 973.123 854.699, 973.155 854.456, 973.470 854.414, 973.524 853.707, 974.974 853.447, 975.508 853.162, 977.690 853.977, 980.892 854.014, 983.484 854.237, 984.203 855.479, 985.936 855.528, 985.969 855.798, 986.157 855.823, 986.162 856.223, 986.247 856.656, 986.338 859.009, 986.837 860.540, 986.818 861.442, 986.358 862.205, 985.969 862.434, 985.852 " fill="none" stroke="rgb(0, 0, 0)" stroke-linecap="butt" stroke-linejoin="round" stroke-opacity="1.0" stroke-width="3.0" />
            <path d=" M 697.089, 870.714 702.446, 869.064 705.862, 867.757 710.567, 865.414 711.098, 862.705 710.134, 858.116 707.637, 852.767 " fill="none" stroke="rgb(0, 0, 0)" stroke-linecap="butt" stroke-linejoin="round" stroke-opacity="1.0" stroke-width="3.0" />
            <path d=" M 734.704, 861.906 734.496, 863.628 734.264, 865.554 733.322, 867.941 732.188, 871.422 733.085, 873.929 735.695, 876.844 743.955, 881.324 745.650, 881.635 745.923, 881.686 " fill="none" stroke="rgb(0, 0, 0)" stroke-linecap="butt" stroke-linejoin="round" stroke-opacity="1.0" stroke-width="3.0" />
            <path d=" M 561.758, 342.632 559.914, 342.013 557.292, 341.002 555.795, 340.424 551.285, 339.666 543.848, 337.196 541.041, 337.510 540.797, 337.537 540.405, 337.581 534.674, 338.222 " fill="none" stroke="rgb(0, 0, 0)" stroke-linecap="butt" stroke-linejoin="round" stroke-opacity="1.0" stroke-width="3.0" />
            <path d=" M 818.982, 1026.684 818.406, 1029.562 817.540, 1032.519 818.110, 1034.972 818.853, 1037.901 818.476, 1039.482 818.250, 1039.802 814.974, 1044.447 811.302, 1049.564 809.819, 1051.631 " fill="none" stroke="rgb(0, 0, 0)" stroke-linecap="butt" stroke-linejoin="round" stroke-opacity="1.0" stroke-width="3.0" />
            <path d=" M 616.566, 576.206 619.187, 579.834 619.217, 579.875 617.543, 575.830 616.450, 572.259 616.092, 568.195 616.375, 565.369 616.878, 560.479 617.206, 556.853 " fill="none" stroke="rgb(0, 0, 0)" stroke-linecap="butt" stroke-linejoin="round" stroke-opacity="1.0" stroke-width="3.0" />
            <path d=" M 616.208, 1076.072 618.219, 1070.843 618.699, 1069.594 620.188, 1067.700 623.741, 1064.013 628.526, 1061.041 632.275, 1060.113 632.953, 1059.945 636.491, 1059.070 " fill="none" stroke="rgb(0, 0, 0)" stroke-linecap="butt" stroke-linejoin="round" stroke-opacity="1.0" stroke-width="3.0" />
            <path d=" M 630.385, 694.853 630.212, 687.188 630.865, 678.497 630.927, 677.670 631.116, 676.643 632.599, 668.588 632.965, 666.596 " fill="none" stroke="rgb(0, 0, 0)" stroke-linecap="butt" stroke-linejoin="round" stroke-opacity="1.0" stroke-width="3.0" />
            <path d=" M 707.877, 854.909 707.637, 852.767 706.766, 845.004 708.085, 836.118 707.351, 834.682 706.117, 832.697 702.337, 830.695 701.264, 829.949 701.208, 829.910 701.122, 829.850 " fill="none" stroke="rgb(0, 0, 0)" stroke-linecap="butt" stroke-linejoin="round" stroke-opacity="1.0" stroke-width="3.0" />
            <path d=" M 668.872, 386.268 666.020, 382.094 665.360, 380.904 664.473, 376.836 664.490, 374.302 665.183, 369.634 664.495, 365.222 661.040, 361.515 660.328, 360.248 " fill="none" stroke="rgb(0, 0, 0)" stroke-linecap="butt" stroke-linejoin="round" stroke-opacity="1.0" stroke-width="3.0" />
            <path d=" M 761.824, 660.843 764.861, 666.632 767.139, 670.029 768.831, 674.094 770.399, 680.193 771.908, 687.760 " fill="none" stroke="rgb(0, 0, 0)" stroke-linecap="butt" stroke-linejoin="round" stroke-opacity="1.0" stroke-width="3.0" />
            <path d=" M 763.304, 709.072 764.488, 713.438 764.696, 714.208 766.673, 715.200 769.358, 716.430 771.182, 717.155 774.067, 716.461 779.031, 715.150 781.600, 715.935 780.917, 718.951 780.646, 719.535 779.422, 722.163 " fill="none" stroke="rgb(0, 0, 0)" stroke-linecap="butt" stroke-linejoin="round" stroke-opacity="1.0" stroke-width="3.0" />
            <path d=" M 866.278, 741.920 864.950, 737.185 864.240, 733.738 862.470, 728.125 860.934, 723.484 857.812, 713.984 857.767, 713.849 857.605, 713.354 " fill="none" stroke="rgb(0, 0, 0)" stroke-linecap="butt" stroke-linejoin="round" stroke-opacity="1.0" stroke-width="3.0" />
            <path d=" M 527.689, 1043.180 528.052, 1045.125 529.318, 1051.904 529.481, 1052.774 529.799, 1054.475 529.808, 1054.492 530.700, 1056.138 531.940, 1057.772 539.317, 1054.731 541.992, 1050.404 542.786, 1049.118 " fill="none" stroke="rgb(0, 0, 0)" stroke-linecap="butt" stroke-linejoin="round" stroke-opacity="1.0" stroke-width="3.0" />
            <path d=" M 814.815, 812.078 814.161, 813.908 813.780, 814.975 809.550, 819.614 808.637, 825.437 809.385, 827.675 812.105, 829.655 815.430, 831.443 818.448, 835.782 " fill="none" stroke="rgb(0, 0, 0)" stroke-linecap="butt" stroke-linejoin="round" stroke-opacity="1.0" stroke-width="3.0" />
            <path d=" M 616.097, 374.162 611.280, 370.208 610.280, 369.388 608.315, 367.661 607.494, 366.940 607.489, 366.935 602.779, 362.796 602.295, 361.965 600.933, 361.373 600.644, 361.248 600.625, 361.239 596.431, 359.417 594.228, 358.523 594.184, 358.504 594.163, 358.496 593.739, 358.324 593.076, 358.055 592.335, 357.754 592.259, 357.723 591.605, 357.457 " fill="none" stroke="rgb(0, 0, 0)" stroke-linecap="butt" stroke-linejoin="round" stroke-opacity="1.0" stroke-width="3.0" />
            <path d=" M 359.994, 582.534 359.990, 582.705 359.870, 588.216 359.419, 592.751 359.466, 596.736 358.260, 604.467 358.491, 611.390 358.539, 612.819 " fill="none" stroke="rgb(0, 0, 0)" stroke-linecap="butt" stroke-linejoin="round" stroke-opacity="1.0" stroke-width="3.0" />
            <path d=" M 631.932, 350.755 628.428, 350.221 625.263, 349.370 617.817, 347.940 614.823, 346.856 612.519, 345.657 608.154, 344.659 605.791, 343.946 602.902, 343.532 602.530, 343.479 " fill="none" stroke="rgb(0, 0, 0)" stroke-linecap="butt" stroke-linejoin="round" stroke-opacity="1.0" stroke-width="3.0" />
            <path d=" M 867.156, 1102.332 867.668, 1102.388 868.385, 1102.467 868.400, 1102.469 870.833, 1102.736 872.522, 1103.139 876.037, 1100.457 877.180, 1096.041 877.307, 1095.550 878.847, 1090.510 878.733, 1088.386 878.446, 1083.600 878.384, 1082.568 877.988, 1080.890 877.925, 1080.623 877.880, 1080.434 877.855, 1080.325 " fill="none" stroke="rgb(0, 0, 0)" stroke-linecap="butt" stroke-linejoin="round" stroke-opacity="1.0" stroke-width="3.0" />
            <path d=" M 586.268, 335.698 585.155, 334.296 582.035, 332.382 579.272, 330.293 576.540, 329.052 574.837, 327.750 571.970, 325.600 567.330, 321.918 564.182, 319.249 562.749, 318.186 561.925, 317.576 " fill="none" stroke="rgb(0, 0, 0)" stroke-linecap="butt" stroke-linejoin="round" stroke-opacity="1.0" stroke-width="3.0" />
            <path d=" M 849.564, 917.156 849.955, 919.609 850.566, 929.590 850.728, 932.250 850.579, 938.164 851.251, 948.129 " fill="none" stroke="rgb(0, 0, 0)" stroke-linecap="butt" stroke-linejoin="round" stroke-opacity="1.0" stroke-width="3.0" />
            <path d=" M 475.361, 349.586 476.249, 349.004 478.147, 347.759 479.962, 346.569 480.083, 346.490 480.799, 346.194 482.630, 345.440 483.255, 345.182 483.893, 344.919 484.698, 344.587 485.078, 344.431 486.717, 343.755 487.520, 343.424 488.148, 343.165 488.315, 343.097 488.367, 343.076 490.331, 342.280 491.791, 341.689 491.056, 341.889 490.188, 342.125 486.959, 343.003 485.736, 343.336 485.724, 343.339 483.765, 343.872 483.351, 343.985 482.474, 344.169 482.409, 344.183 481.874, 344.295 481.732, 344.323 481.577, 344.354 480.648, 344.539 480.578, 344.553 480.183, 344.632 479.939, 344.642 479.079, 344.681 " fill="none" stroke="rgb(0, 0, 0)" stroke-linecap="butt" stroke-linejoin="round" stroke-opacity="1.0" stroke-width="3.0" />
            <path d=" M 445.786, 478.181 444.300, 480.726 443.362, 482.580 444.287, 485.236 444.566, 486.038 444.785, 486.664 446.358, 489.613 450.124, 495.611 450.765, 498.462 455.487, 505.824 " fill="none" stroke="rgb(0, 0, 0)" stroke-linecap="butt" stroke-linejoin="round" stroke-opacity="1.0" stroke-width="3.0" />
            <path d=" M 556.792, 1078.442 556.631, 1081.276 556.623, 1081.419 556.605, 1081.734 556.391, 1085.523 556.383, 1085.651 556.088, 1090.862 557.070, 1095.480 557.107, 1095.655 557.140, 1095.810 557.337, 1096.736 559.911, 1102.025 559.661, 1105.469 557.898, 1108.943 " fill="none" stroke="rgb(0, 0, 0)" stroke-linecap="butt" stroke-linejoin="round" stroke-opacity="1.0" stroke-width="3.0" />
            <path d=" M 425.103, 369.648 423.539, 371.021 421.420, 372.880 419.506, 375.924 416.974, 379.134 414.801, 383.086 412.813, 385.821 412.277, 386.446 410.122, 388.955 406.830, 395.506 " fill="none" stroke="rgb(0, 0, 0)" stroke-linecap="butt" stroke-linejoin="round" stroke-opacity="1.0" stroke-width="3.0" />
            <path d=" M 752.182, 481.297 750.557, 479.594 748.305, 478.268 743.805, 476.735 739.649, 475.951 734.362, 476.076 733.804, 476.285 728.370, 478.329 723.888, 482.862 " fill="none" stroke="rgb(0, 0, 0)" stroke-linecap="butt" stroke-linejoin="round" stroke-opacity="1.0" stroke-width="3.0" />
            <path d=" M 859.274, 720.054 858.523, 716.995 857.605, 713.354 857.532, 712.989 856.877, 709.721 855.887, 706.988 853.006, 699.150 849.483, 689.792 849.402, 689.577 " fill="none" stroke="rgb(0, 0, 0)" stroke-linecap="butt" stroke-linejoin="round" stroke-opacity="1.0" stroke-width="3.0" />
            <path d=" M 689.194, 403.122 685.215, 398.683 680.470, 394.584 677.047, 391.571 673.065, 388.599 670.363, 387.089 668.872, 386.268 667.175, 385.334 664.770, 382.335 " fill="none" stroke="rgb(0, 0, 0)" stroke-linecap="butt" stroke-linejoin="round" stroke-opacity="1.0" stroke-width="3.0" />
            <path d=" M 480.995, 546.291 480.753, 547.853 480.629, 548.655 480.033, 552.506 480.158, 555.043 482.336, 564.802 482.571, 565.857 483.607, 575.803 483.864, 578.276 483.874, 578.397 " fill="none" stroke="rgb(0, 0, 0)" stroke-linecap="butt" stroke-linejoin="round" stroke-opacity="1.0" stroke-width="3.0" />
            <path d=" M 632.599, 668.588 634.257, 662.175 634.287, 662.057 634.370, 661.802 634.395, 661.726 634.404, 661.699 635.663, 657.827 637.319, 654.818 637.665, 654.189 638.292, 653.050 638.744, 651.600 639.562, 647.544 640.001, 645.405 640.098, 643.322 638.976, 641.823 637.786, 640.233 636.401, 639.602 635.146, 639.029 " fill="none" stroke="rgb(0, 0, 0)" stroke-linecap="butt" stroke-linejoin="round" stroke-opacity="1.0" stroke-width="3.0" />
            <path d=" M 694.665, 404.538 696.246, 405.458 697.966, 406.472 694.229, 403.805 690.631, 403.363 689.194, 403.122 688.954, 403.082 688.025, 402.681 683.105, 400.507 678.015, 397.128 675.729, 394.913 673.182, 393.714 672.152, 393.230 " fill="none" stroke="rgb(0, 0, 0)" stroke-linecap="butt" stroke-linejoin="round" stroke-opacity="1.0" stroke-width="3.0" />
            <path d=" M 455.160, 897.553 457.989, 907.145 458.696, 909.545 458.915, 910.287 459.169, 911.471 459.221, 911.714 461.319, 921.491 462.773, 928.264 463.139, 929.971 " fill="none" stroke="rgb(0, 0, 0)" stroke-linecap="butt" stroke-linejoin="round" stroke-opacity="1.0" stroke-width="3.0" />
            <path d=" M 827.650, 1080.280 828.052, 1080.686 829.141, 1081.789 829.136, 1081.905 829.095, 1082.923 828.988, 1085.530 827.644, 1088.478 826.360, 1092.616 827.011, 1102.340 827.366, 1105.148 827.925, 1107.205 828.977, 1108.984 832.080, 1109.939 " fill="none" stroke="rgb(0, 0, 0)" stroke-linecap="butt" stroke-linejoin="round" stroke-opacity="1.0" stroke-width="3.0" />
            <path d=" M 473.332, 543.254 471.065, 542.191 467.970, 535.683 467.742, 535.203 465.270, 528.945 464.484, 527.394 462.265, 523.010 466.349, 532.138 466.426, 532.312 " fill="none" stroke="rgb(0, 0, 0)" stroke-linecap="butt" stroke-linejoin="round" stroke-opacity="1.0" stroke-width="3.0" />
            <path d=" M 720.862, 836.816 723.037, 839.183 726.738, 840.622 727.606, 841.784 726.442, 845.622 725.564, 851.056 726.182, 854.060 727.534, 856.188 729.042, 857.531 732.680, 860.659 734.496, 863.628 " fill="none" stroke="rgb(0, 0, 0)" stroke-linecap="butt" stroke-linejoin="round" stroke-opacity="1.0" stroke-width="3.0" />
            <path d=" M 521.883, 544.390 521.388, 544.301 519.881, 544.030 519.642, 543.946 512.836, 541.535 509.226, 537.823 506.125, 534.199 503.983, 531.695 498.387, 527.952 494.956, 525.866 494.301, 525.468 " fill="none" stroke="rgb(0, 0, 0)" stroke-linecap="butt" stroke-linejoin="round" stroke-opacity="1.0" stroke-width="3.0" />
            <path d=" M 432.627, 669.215 434.249, 675.697 435.755, 685.211 435.930, 690.066 436.916, 700.017 436.927, 700.130 437.909, 702.815 437.909, 702.815 437.972, 702.988 " fill="none" stroke="rgb(0, 0, 0)" stroke-linecap="butt" stroke-linejoin="round" stroke-opacity="1.0" stroke-width="3.0" />
            <path d=" M 707.556, 780.382 707.744, 780.240 707.769, 780.221 707.776, 780.216 707.776, 780.216 707.979, 780.063 707.990, 780.055 707.993, 780.053 708.898, 779.372 709.167, 778.459 710.053, 775.451 709.804, 774.593 708.211, 769.096 706.435, 763.681 706.475, 762.561 706.479, 762.428 706.487, 762.212 706.504, 761.734 706.514, 761.429 706.646, 757.679 706.621, 757.097 706.404, 752.112 703.533, 748.129 " fill="none" stroke="rgb(0, 0, 0)" stroke-linecap="butt" stroke-linejoin="round" stroke-opacity="1.0" stroke-width="3.0" />
            <path d=" M 843.148, 672.881 843.087, 672.708 840.981, 666.705 838.860, 659.988 836.232, 652.766 835.777, 651.277 833.247, 642.990 832.631, 641.675 831.618, 639.515 " fill="none" stroke="rgb(0, 0, 0)" stroke-linecap="butt" stroke-linejoin="round" stroke-opacity="1.0" stroke-width="3.0" />
            <path d=" M 774.193, 686.461 772.210, 688.310 772.048, 688.461 771.310, 689.150 770.568, 689.841 764.616, 691.846 763.450, 692.517 761.865, 694.745 761.669, 695.021 761.421, 698.847 757.719, 704.291 757.554, 706.681 759.789, 708.773 762.916, 709.039 763.304, 709.072 764.025, 709.133 " fill="none" stroke="rgb(0, 0, 0)" stroke-linecap="butt" stroke-linejoin="round" stroke-opacity="1.0" stroke-width="3.0" />
            <path d=" M 411.160, 389.262 407.286, 394.756 406.830, 395.506 405.097, 398.357 400.922, 407.443 400.794, 407.720 399.934, 409.943 399.152, 411.963 396.941, 417.980 395.590, 421.657 " fill="none" stroke="rgb(0, 0, 0)" stroke-linecap="butt" stroke-linejoin="round" stroke-opacity="1.0" stroke-width="3.0" />
            <path d=" M 597.766, 1167.519 605.058, 1174.363 605.880, 1175.135 610.850, 1178.282 610.887, 1178.286 616.139, 1178.789 617.372, 1178.147 622.736, 1174.988 625.344, 1170.889 626.367, 1169.924 " fill="none" stroke="rgb(0, 0, 0)" stroke-linecap="butt" stroke-linejoin="round" stroke-opacity="1.0" stroke-width="3.0" />
            <path d=" M 768.065, 974.251 766.889, 975.939 767.501, 978.548 769.449, 979.911 778.609, 982.919 786.751, 984.429 793.613, 983.872 796.180, 984.107 798.125, 984.286 " fill="none" stroke="rgb(0, 0, 0)" stroke-linecap="butt" stroke-linejoin="round" stroke-opacity="1.0" stroke-width="3.0" />
            <path d=" M 503.112, 314.163 494.479, 319.211 494.084, 319.442 485.945, 325.316 481.076, 330.023 475.532, 335.659 473.955, 336.924 " fill="none" stroke="rgb(0, 0, 0)" stroke-linecap="butt" stroke-linejoin="round" stroke-opacity="1.0" stroke-width="3.0" />
            <path d=" M 526.956, 336.800 525.716, 336.820 524.793, 336.834 523.090, 336.861 516.979, 336.958 515.560, 336.980 515.034, 337.090 513.917, 337.322 513.382, 337.433 512.372, 337.643 511.572, 337.809 511.160, 337.861 511.134, 337.865 510.412, 337.957 509.261, 338.104 508.334, 338.223 507.783, 338.293 505.729, 338.556 503.193, 338.742 499.943, 338.981 499.053, 339.046 498.317, 339.100 498.257, 339.104 497.951, 339.127 497.510, 339.297 497.444, 339.323 496.243, 339.787 494.763, 340.358 494.694, 340.385 494.567, 340.434 493.719, 340.761 490.557, 341.982 490.188, 342.125 " fill="none" stroke="rgb(0, 0, 0)" stroke-linecap="butt" stroke-linejoin="round" stroke-opacity="1.0" stroke-width="3.0" />
            <path d=" M 660.246, 360.674 660.328, 360.248 660.585, 358.908 659.109, 355.459 656.248, 353.487 649.158, 350.506 646.636, 349.682 643.203, 350.794 640.305, 350.935 636.170, 350.229 635.022, 350.308 631.932, 350.755 628.573, 351.240 " fill="none" stroke="rgb(0, 0, 0)" stroke-linecap="butt" stroke-linejoin="round" stroke-opacity="1.0" stroke-width="3.0" />
            <path d=" M 664.705, 619.168 663.577, 616.969 661.783, 613.469 659.546, 611.617 656.716, 609.525 654.560, 607.114 651.352, 605.820 649.396, 603.807 646.577, 603.212 644.626, 602.388 640.581, 598.595 637.552, 594.915 637.074, 594.334 " fill="none" stroke="rgb(0, 0, 0)" stroke-linecap="butt" stroke-linejoin="round" stroke-opacity="1.0" stroke-width="3.0" />
            <path d=" M 850.020, 896.695 849.887, 896.895 849.025, 898.185 848.992, 898.235 847.947, 899.800 847.270, 900.072 846.858, 900.237 846.805, 900.259 846.526, 900.371 845.495, 900.785 843.050, 903.245 840.815, 906.052 840.159, 907.324 841.842, 909.491 842.585, 910.286 845.420, 912.753 846.725, 914.666 849.564, 917.156 849.774, 917.341 851.452, 918.233 855.266, 921.082 855.362, 921.153 858.149, 923.235 " fill="none" stroke="rgb(0, 0, 0)" stroke-linecap="butt" stroke-linejoin="round" stroke-opacity="1.0" stroke-width="3.0" />
            <path d=" M 538.422, 338.839 536.436, 338.512 534.716, 338.229 534.704, 338.227 534.674, 338.222 534.460, 338.187 534.418, 338.180 533.464, 338.023 531.143, 338.076 527.046, 338.170 526.643, 338.201 519.702, 338.737 517.725, 338.889 514.853, 338.595 513.266, 338.432 513.177, 338.451 513.172, 338.452 508.135, 339.562 506.986, 339.783 500.504, 341.028 500.247, 341.077 500.143, 341.097 499.229, 341.273 " fill="none" stroke="rgb(0, 0, 0)" stroke-linecap="butt" stroke-linejoin="round" stroke-opacity="1.0" stroke-width="3.0" />
            <path d=" M 660.625, 919.415 662.544, 915.438 662.760, 914.990 666.341, 910.073 671.279, 905.087 671.298, 905.068 671.815, 903.303 671.855, 903.166 671.880, 903.080 672.726, 900.194 673.731, 896.764 674.826, 893.071 674.841, 893.017 675.267, 890.167 675.430, 889.073 676.103, 884.799 676.410, 884.092 " fill="none" stroke="rgb(0, 0, 0)" stroke-linecap="butt" stroke-linejoin="round" stroke-opacity="1.0" stroke-width="3.0" />
            <path d=" M 692.974, 563.924 693.862, 560.685 693.893, 560.573 693.905, 560.528 693.916, 560.486 694.039, 560.038 692.805, 555.740 694.459, 548.536 694.507, 548.326 693.863, 541.855 694.461, 537.434 694.287, 533.738 694.401, 532.835 694.950, 528.464 695.312, 524.436 " fill="none" stroke="rgb(0, 0, 0)" stroke-linecap="butt" stroke-linejoin="round" stroke-opacity="1.0" stroke-width="3.0" />
            <path d=" M 849.661, 690.350 849.402, 689.577 846.438, 680.750 842.937, 671.383 841.956, 668.759 840.983, 663.902 838.742, 658.779 837.533, 656.256 836.531, 653.064 835.777, 651.277 " fill="none" stroke="rgb(0, 0, 0)" stroke-linecap="butt" stroke-linejoin="round" stroke-opacity="1.0" stroke-width="3.0" />
            <path d=" M 718.761, 489.443 722.434, 485.705 723.118, 484.914 723.888, 482.862 723.933, 482.742 724.260, 481.516 723.908, 476.240 724.147, 472.787 724.035, 464.660 723.171, 461.355 722.434, 455.647 722.280, 455.382 719.319, 450.305 " fill="none" stroke="rgb(0, 0, 0)" stroke-linecap="butt" stroke-linejoin="round" stroke-opacity="1.0" stroke-width="3.0" />
            <path d=" M 668.004, 678.626 667.712, 679.335 667.442, 679.990 665.928, 683.671 665.674, 684.291 665.659, 684.327 665.639, 684.374 665.636, 684.384 665.615, 684.433 665.269, 685.276 665.198, 685.425 662.034, 692.130 661.914, 692.385 660.360, 695.677 656.360, 703.530 652.129, 711.255 647.727, 716.960 " fill="none" stroke="rgb(0, 0, 0)" stroke-linecap="butt" stroke-linejoin="round" stroke-opacity="1.0" stroke-width="3.0" />
            <path d=" M 819.495, 835.750 818.437, 836.905 817.538, 837.886 816.288, 839.604 817.073, 842.234 819.796, 843.049 821.832, 842.549 828.271, 841.155 829.919, 840.798 830.431, 840.868 830.844, 840.925 832.092, 841.095 831.869, 843.466 831.571, 846.651 833.268, 852.873 831.431, 859.767 831.325, 861.133 " fill="none" stroke="rgb(0, 0, 0)" stroke-linecap="butt" stroke-linejoin="round" stroke-opacity="1.0" stroke-width="3.0" />
            <path d=" M 832.631, 641.675 832.186, 639.978 828.524, 630.673 828.248, 629.972 828.029, 629.416 826.416, 625.783 825.263, 620.903 824.026, 618.168 824.022, 618.160 823.948, 617.981 822.387, 614.236 821.572, 612.279 821.466, 611.918 819.156, 604.061 817.203, 600.837 " fill="none" stroke="rgb(0, 0, 0)" stroke-linecap="butt" stroke-linejoin="round" stroke-opacity="1.0" stroke-width="3.0" />
            <path d=" M 542.117, 308.750 539.304, 307.667 535.369, 307.568 533.063, 306.125 530.270, 304.990 527.592, 304.863 526.128, 304.558 519.561, 304.972 512.265, 309.371 509.206, 311.348 505.948, 312.853 503.112, 314.163 505.293, 313.111 505.948, 312.853 " fill="none" stroke="rgb(0, 0, 0)" stroke-linecap="butt" stroke-linejoin="round" stroke-opacity="1.0" stroke-width="3.0" />
            <path d=" M 713.613, 803.577 713.703, 803.958 714.125, 805.737 712.511, 807.916 711.671, 810.128 710.434, 814.027 711.722, 816.860 711.852, 817.128 715.560, 820.974 717.538, 824.531 717.737, 828.537 717.526, 831.633 718.376, 835.253 720.862, 836.816 722.290, 837.714 722.911, 838.013 727.593, 840.168 " fill="none" stroke="rgb(0, 0, 0)" stroke-linecap="butt" stroke-linejoin="round" stroke-opacity="1.0" stroke-width="3.0" />
            <path d=" M 878.762, 1078.918 878.758, 1079.016 878.677, 1080.917 878.672, 1081.044 878.651, 1081.533 878.588, 1083.034 878.758, 1083.457 880.350, 1087.404 881.862, 1093.052 883.531, 1094.487 885.167, 1094.558 885.985, 1094.197 886.961, 1093.466 888.535, 1089.990 890.445, 1083.026 891.009, 1075.842 890.731, 1073.091 890.715, 1072.936 890.699, 1072.780 890.594, 1071.739 890.477, 1070.584 890.289, 1068.728 " fill="none" stroke="rgb(0, 0, 0)" stroke-linecap="butt" stroke-linejoin="round" stroke-opacity="1.0" stroke-width="3.0" />
            <path d=" M 623.924, 1169.658 626.367, 1169.924 629.476, 1170.263 632.773, 1167.803 634.900, 1164.572 635.396, 1161.437 636.421, 1156.449 635.740, 1154.280 634.160, 1151.797 629.105, 1147.933 624.121, 1143.192 621.622, 1139.744 620.592, 1138.323 " fill="none" stroke="rgb(0, 0, 0)" stroke-linecap="butt" stroke-linejoin="round" stroke-opacity="1.0" stroke-width="3.0" />
            <path d=" M 651.733, 1033.036 651.800, 1032.739 653.525, 1025.160 653.766, 1024.436 653.893, 1024.052 654.519, 1022.171 655.230, 1020.033 655.184, 1017.326 654.308, 1014.282 652.589, 1005.985 651.712, 1000.782 651.699, 998.049 651.693, 996.710 651.666, 990.963 653.150, 987.585 " fill="none" stroke="rgb(0, 0, 0)" stroke-linecap="butt" stroke-linejoin="round" stroke-opacity="1.0" stroke-width="3.0" />
            <path d=" M 571.189, 1166.095 573.023, 1167.253 573.836, 1167.521 575.236, 1167.983 579.292, 1169.321 585.116, 1173.872 586.060, 1175.230 587.937, 1177.929 592.287, 1180.648 593.265, 1181.259 596.354, 1182.052 602.971, 1182.688 610.008, 1179.906 610.887, 1178.286 " fill="none" stroke="rgb(0, 0, 0)" stroke-linecap="butt" stroke-linejoin="round" stroke-opacity="1.0" stroke-width="3.0" />
            <path d=" M 510.354, 1017.535 512.975, 1019.612 513.226, 1019.812 513.343, 1019.973 513.732, 1020.511 519.592, 1028.613 519.952, 1029.111 520.376, 1029.620 525.380, 1035.621 527.528, 1038.305 529.779, 1041.117 530.233, 1041.581 531.197, 1042.567 535.235, 1046.695 537.240, 1047.116 538.544, 1047.390 543.903, 1046.909 " fill="none" stroke="rgb(0, 0, 0)" stroke-linecap="butt" stroke-linejoin="round" stroke-opacity="1.0" stroke-width="3.0" />
            <path d=" M 634.696, 618.978 635.212, 617.222 635.518, 616.178 637.150, 611.719 637.444, 610.298 637.480, 610.125 638.200, 606.648 637.914, 601.412 637.562, 599.614 636.000, 598.485 634.688, 598.082 630.810, 594.883 625.396, 590.512 625.161, 590.038 623.333, 586.341 621.772, 584.278 621.658, 584.082 619.217, 579.875 " fill="none" stroke="rgb(0, 0, 0)" stroke-linecap="butt" stroke-linejoin="round" stroke-opacity="1.0" stroke-width="3.0" />
            <path d=" M 523.824, 544.039 522.568, 544.513 522.520, 544.531 522.488, 544.543 519.168, 545.798 518.928, 545.889 516.336, 546.868 515.183, 547.559 514.849, 547.758 514.106, 548.203 513.060, 548.829 510.644, 550.275 506.463, 553.413 499.084, 557.691 496.439, 560.129 493.947, 562.426 487.856, 570.311 487.362, 570.951 488.266, 569.382 " fill="none" stroke="rgb(0, 0, 0)" stroke-linecap="butt" stroke-linejoin="round" stroke-opacity="1.0" stroke-width="3.0" />
            <path d=" M 814.505, 1046.294 809.963, 1051.467 809.819, 1051.631 809.228, 1052.304 809.213, 1052.322 804.263, 1057.959 795.690, 1063.107 794.808, 1063.637 792.736, 1064.727 788.753, 1066.823 781.184, 1069.180 774.639, 1070.536 " fill="none" stroke="rgb(0, 0, 0)" stroke-linecap="butt" stroke-linejoin="round" stroke-opacity="1.0" stroke-width="3.0" />
            <path d=" M 692.979, 732.168 693.145, 731.059 693.182, 730.809 694.337, 723.090 694.713, 722.256 694.792, 722.082 694.841, 721.973 694.847, 721.959 695.220, 721.134 698.477, 713.919 700.039, 711.368 702.764, 704.645 703.505, 699.916 703.242, 692.592 701.971, 688.342 699.293, 686.777 " fill="none" stroke="rgb(0, 0, 0)" stroke-linecap="butt" stroke-linejoin="round" stroke-opacity="1.0" stroke-width="3.0" />
            <path d=" M 792.383, 998.916 793.155, 1000.541 796.968, 1004.779 802.662, 1005.278 809.870, 1003.046 810.232, 1002.934 811.187, 1003.604 813.630, 1005.316 815.902, 1008.859 818.664, 1016.295 819.264, 1022.647 818.982, 1026.684 818.836, 1028.790 " fill="none" stroke="rgb(0, 0, 0)" stroke-linecap="butt" stroke-linejoin="round" stroke-opacity="1.0" stroke-width="3.0" />
            <path d=" M 361.959, 467.340 361.256, 469.020 360.256, 472.529 359.809, 474.097 357.431, 482.309 357.387, 487.175 357.517, 490.562 356.542, 497.785 356.682, 499.860 356.763, 506.082 357.208, 509.547 357.860, 503.645 358.102, 501.722 " fill="none" stroke="rgb(0, 0, 0)" stroke-linecap="butt" stroke-linejoin="round" stroke-opacity="1.0" stroke-width="3.0" />
            <path d=" M 687.919, 865.304 690.500, 860.967 692.712, 857.249 693.640, 849.770 695.316, 845.579 698.242, 836.017 698.387, 835.544 700.243, 830.392 700.265, 830.332 700.281, 830.288 700.311, 830.204 700.440, 829.846 700.480, 829.734 700.510, 829.652 701.152, 827.871 701.187, 827.773 701.328, 827.383 702.108, 823.515 702.146, 822.894 702.170, 822.509 702.180, 822.333 702.548, 816.311 " fill="none" stroke="rgb(0, 0, 0)" stroke-linecap="butt" stroke-linejoin="round" stroke-opacity="1.0" stroke-width="3.0" />
            <path d=" M 464.569, 939.034 464.756, 941.254 465.420, 949.166 466.775, 958.276 467.494, 968.210 468.014, 974.116 470.538, 980.860 472.276, 986.048 472.313, 986.213 473.237, 990.276 " fill="none" stroke="rgb(0, 0, 0)" stroke-linecap="butt" stroke-linejoin="round" stroke-opacity="1.0" stroke-width="3.0" />
            <path d=" M 358.978, 623.249 358.011, 627.559 358.109, 634.372 358.626, 639.622 359.597, 642.171 360.593, 645.290 361.625, 652.569 362.214, 656.160 362.127, 661.961 362.919, 668.389 362.971, 668.812 362.911, 670.062 362.903, 670.234 362.902, 670.255 362.900, 670.289 362.899, 670.315 362.889, 670.514 362.823, 671.891 361.765, 673.381 361.689, 673.486 360.630, 674.978 " fill="none" stroke="rgb(0, 0, 0)" stroke-linecap="butt" stroke-linejoin="round" stroke-opacity="1.0" stroke-width="3.0" />
            <path d=" M 800.770, 754.625 800.304, 755.078 799.917, 755.455 798.751, 756.588 795.514, 760.245 794.038, 763.525 793.710, 766.702 794.716, 770.022 799.167, 775.373 799.191, 779.817 797.877, 783.854 798.621, 788.133 802.890, 790.295 812.832, 791.371 813.369, 791.429 813.447, 791.469 814.893, 792.203 " fill="none" stroke="rgb(0, 0, 0)" stroke-linecap="butt" stroke-linejoin="round" stroke-opacity="1.0" stroke-width="3.0" />
            <path d=" M 651.699, 998.049 652.662, 998.552 657.198, 1001.495 663.276, 1002.692 667.340, 1002.209 670.536, 999.247 670.162, 995.734 671.352, 992.757 670.968, 987.902 668.671, 984.279 663.171, 977.682 656.787, 974.117 653.569, 972.687 " fill="none" stroke="rgb(0, 0, 0)" stroke-linecap="butt" stroke-linejoin="round" stroke-opacity="1.0" stroke-width="3.0" />
            <path d=" M 841.983, 939.425 837.804, 930.340 837.535, 929.753 834.599, 920.194 833.102, 915.322 830.322, 906.655 827.882, 898.198 824.384, 888.830 823.361, 886.092 " fill="none" stroke="rgb(0, 0, 0)" stroke-linecap="butt" stroke-linejoin="round" stroke-opacity="1.0" stroke-width="3.0" />
            <path d=" M 722.280, 455.382 723.629, 451.785 723.760, 449.958 720.828, 440.942 720.085, 438.836 716.800, 432.439 714.136, 427.740 712.549, 425.896 710.025, 421.125 704.340, 412.898 703.885, 412.241 697.966, 406.472 " fill="none" stroke="rgb(0, 0, 0)" stroke-linecap="butt" stroke-linejoin="round" stroke-opacity="1.0" stroke-width="3.0" />
            <path d=" M 692.752, 562.223 692.974, 563.924 693.572, 568.508 695.065, 573.650 695.819, 577.242 697.312, 586.500 698.722, 590.042 700.460, 595.061 701.916, 602.909 702.272, 604.153 704.269, 611.140 702.547, 604.968 702.272, 604.153 " fill="none" stroke="rgb(0, 0, 0)" stroke-linecap="butt" stroke-linejoin="round" stroke-opacity="1.0" stroke-width="3.0" />
            <path d=" M 642.972, 525.266 639.072, 527.454 637.730, 528.575 634.478, 531.292 631.878, 533.574 629.487, 535.526 627.592, 539.302 624.396, 540.920 620.869, 545.566 621.590, 548.745 622.173, 551.315 623.538, 553.414 632.030, 558.693 632.914, 559.243 636.095, 561.673 639.375, 563.880 " fill="none" stroke="rgb(0, 0, 0)" stroke-linecap="butt" stroke-linejoin="round" stroke-opacity="1.0" stroke-width="3.0" />
            <path d=" M 700.637, 669.401 702.133, 664.103 703.842, 654.250 703.915, 653.833 705.572, 644.599 706.018, 637.171 705.405, 627.190 705.379, 626.761 705.253, 625.023 704.972, 621.151 704.269, 611.140 " fill="none" stroke="rgb(0, 0, 0)" stroke-linecap="butt" stroke-linejoin="round" stroke-opacity="1.0" stroke-width="3.0" />
            <path d=" M 824.253, 602.486 823.610, 599.397 822.547, 594.811 822.507, 590.598 822.191, 588.620 819.812, 584.595 818.474, 578.205 816.304, 575.415 814.577, 572.906 813.243, 570.631 813.070, 570.370 809.931, 569.021 807.970, 568.002 806.206, 565.404 804.008, 563.937 802.038, 564.019 799.352, 562.924 797.185, 561.136 795.235, 558.278 793.112, 557.257 " fill="none" stroke="rgb(0, 0, 0)" stroke-linecap="butt" stroke-linejoin="round" stroke-opacity="1.0" stroke-width="3.0" />
            <path d=" M 706.964, 1061.060 700.180, 1057.106 698.833, 1056.321 698.463, 1056.106 697.471, 1055.453 689.116, 1049.957 688.708, 1049.689 687.879, 1049.143 682.884, 1045.258 674.990, 1039.119 674.052, 1038.389 669.533, 1035.589 661.986, 1029.028 660.998, 1028.169 658.456, 1026.231 " fill="none" stroke="rgb(0, 0, 0)" stroke-linecap="butt" stroke-linejoin="round" stroke-opacity="1.0" stroke-width="3.0" />
            <path d=" M 824.085, 888.426 823.361, 886.092 820.400, 876.541 819.663, 874.164 818.755, 870.715 815.230, 861.357 812.459, 854.004 809.580, 845.157 806.252, 835.848 804.443, 830.790 " fill="none" stroke="rgb(0, 0, 0)" stroke-linecap="butt" stroke-linejoin="round" stroke-opacity="1.0" stroke-width="3.0" />
            <path d=" M 682.719, 728.340 682.727, 728.319 683.538, 726.333 684.593, 723.752 685.056, 722.618 685.437, 721.685 685.733, 720.960 688.232, 714.362 688.781, 712.990 689.225, 711.882 689.268, 711.774 689.368, 711.524 689.477, 711.253 693.193, 701.970 694.501, 698.704 697.481, 689.158 697.941, 687.688 698.283, 686.591 698.288, 686.576 698.390, 686.248 698.612, 685.537 698.729, 685.162 698.997, 683.634 700.377, 675.752 700.637, 669.401 700.637, 669.401 " fill="none" stroke="rgb(0, 0, 0)" stroke-linecap="butt" stroke-linejoin="round" stroke-opacity="1.0" stroke-width="3.0" />
            <path d=" M 543.403, 1046.291 543.903, 1046.909 544.413, 1047.538 550.712, 1055.305 551.172, 1055.873 554.251, 1059.799 554.326, 1059.894 554.370, 1059.951 556.136, 1062.203 556.676, 1062.891 562.812, 1070.544 563.313, 1071.170 563.442, 1071.330 564.097, 1072.148 564.968, 1073.179 568.450, 1077.303 569.978, 1079.401 573.496, 1084.231 574.182, 1085.171 574.294, 1085.325 576.177, 1087.910 578.071, 1093.051 578.292, 1093.652 578.188, 1096.752 578.156, 1097.712 " fill="none" stroke="rgb(0, 0, 0)" stroke-linecap="butt" stroke-linejoin="round" stroke-opacity="1.0" stroke-width="3.0" />
            <path d=" M 780.929, 1070.260 774.639, 1070.536 773.824, 1070.572 770.235, 1070.968 768.576, 1072.156 768.619, 1074.362 770.460, 1076.069 774.044, 1078.877 779.471, 1080.716 783.100, 1081.546 787.265, 1083.379 796.900, 1085.620 802.339, 1085.712 807.379, 1085.176 810.853, 1085.608 816.219, 1084.240 " fill="none" stroke="rgb(0, 0, 0)" stroke-linecap="butt" stroke-linejoin="round" stroke-opacity="1.0" stroke-width="3.0" />
            <path d=" M 498.592, 643.261 495.960, 635.151 495.908, 634.327 495.893, 634.088 495.849, 633.398 495.847, 633.370 495.844, 633.318 495.843, 633.302 495.709, 631.187 495.702, 631.073 495.685, 630.797 495.290, 624.536 495.385, 624.030 495.738, 622.161 495.741, 622.145 495.779, 621.942 495.896, 621.321 495.909, 621.253 495.934, 621.120 495.962, 620.972 495.985, 620.850 496.007, 620.733 496.059, 620.458 496.770, 616.687 496.991, 609.643 499.502, 599.964 499.606, 599.563 503.657, 590.492 506.087, 584.566 507.068, 582.175 507.941, 580.047 " fill="none" stroke="rgb(0, 0, 0)" stroke-linecap="butt" stroke-linejoin="round" stroke-opacity="1.0" stroke-width="3.0" />
            <path d=" M 507.068, 582.175 507.703, 581.243 511.367, 576.933 512.917, 575.110 516.320, 571.947 516.489, 571.790 516.831, 571.472 516.839, 571.465 517.174, 571.153 517.491, 570.807 517.826, 570.440 520.292, 567.746 521.601, 566.104 521.619, 566.081 523.843, 563.292 527.963, 558.856 528.919, 557.154 529.146, 556.750 530.100, 555.052 530.758, 553.881 531.278, 552.956 532.421, 550.923 534.956, 546.338 536.392, 542.543 535.249, 539.195 532.810, 539.009 527.541, 541.511 526.244, 542.127 521.883, 544.390 521.866, 544.398 521.835, 544.415 519.168, 545.798 " fill="none" stroke="rgb(0, 0, 0)" stroke-linecap="butt" stroke-linejoin="round" stroke-opacity="1.0" stroke-width="3.0" />
            <path d=" M 487.362, 570.951 487.094, 571.524 483.874, 578.397 480.456, 585.695 478.411, 595.382 478.253, 596.141 476.741, 603.408 476.106, 613.388 475.954, 615.773 476.068, 621.025 476.247, 627.830 476.249, 627.900 476.379, 632.818 476.353, 633.185 476.035, 637.703 475.887, 639.794 475.855, 640.252 " fill="none" stroke="rgb(0, 0, 0)" stroke-linecap="butt" stroke-linejoin="round" stroke-opacity="1.0" stroke-width="3.0" />
            <path d=" M 656.828, 962.096 664.588, 962.972 672.604, 961.368 678.938, 959.765 682.240, 957.488 682.948, 956.829 683.329, 949.760 676.975, 942.339 673.331, 937.441 669.489, 930.217 664.801, 924.595 660.241, 921.677 " fill="none" stroke="rgb(0, 0, 0)" stroke-linecap="butt" stroke-linejoin="round" stroke-opacity="1.0" stroke-width="3.0" />
            <path d=" M 805.240, 594.911 802.300, 589.388 800.049, 582.251 797.020, 572.721 796.691, 571.685 795.585, 566.518 793.112, 557.257 792.589, 555.300 790.953, 545.665 790.319, 539.520 789.060, 532.580 789.309, 528.245 789.295, 528.174 788.515, 524.080 " fill="none" stroke="rgb(0, 0, 0)" stroke-linecap="butt" stroke-linejoin="round" stroke-opacity="1.0" stroke-width="3.0" />
            <path d=" M 791.545, 642.022 787.366, 639.905 782.258, 635.854 778.134, 631.787 775.883, 629.306 771.545, 624.866 769.161, 622.400 766.137, 619.780 760.620, 614.476 754.049, 609.711 749.918, 605.977 749.849, 605.915 748.787, 604.956 743.578, 596.420 741.983, 593.806 741.595, 593.171 738.967, 588.864 " fill="none" stroke="rgb(0, 0, 0)" stroke-linecap="butt" stroke-linejoin="round" stroke-opacity="1.0" stroke-width="3.0" />
            <path d=" M 472.127, 980.594 472.916, 987.474 473.013, 988.325 473.237, 990.276 474.056, 997.424 475.234, 1007.355 475.837, 1012.434 476.135, 1022.430 476.265, 1026.754 476.439, 1028.467 476.468, 1038.467 476.470, 1039.273 477.543, 1049.215 477.870, 1052.240 479.050, 1056.622 " fill="none" stroke="rgb(0, 0, 0)" stroke-linecap="butt" stroke-linejoin="round" stroke-opacity="1.0" stroke-width="3.0" />
            <path d=" M 694.317, 562.150 695.114, 565.114 696.744, 570.447 697.671, 574.355 699.511, 580.879 701.293, 585.404 703.658, 590.287 706.320, 593.886 709.730, 597.449 712.647, 601.002 714.928, 603.554 717.222, 606.699 718.262, 607.726 721.527, 612.458 722.518, 613.767 723.368, 614.749 726.227, 618.909 728.536, 622.343 730.859, 625.167 733.124, 627.992 733.578, 628.559 " fill="none" stroke="rgb(0, 0, 0)" stroke-linecap="butt" stroke-linejoin="round" stroke-opacity="1.0" stroke-width="3.0" />
            <path d=" M 895.408, 1047.970 896.169, 1041.384 897.294, 1032.658 897.408, 1024.419 898.630, 1018.187 898.707, 1011.505 898.860, 1003.355 898.529, 997.601 897.612, 987.643 897.509, 986.525 897.187, 981.626 897.128, 972.667 896.659, 968.936 " fill="none" stroke="rgb(0, 0, 0)" stroke-linecap="butt" stroke-linejoin="round" stroke-opacity="1.0" stroke-width="3.0" />
            <path d=" M 761.865, 694.745 761.323, 692.790 762.285, 688.101 761.698, 682.030 761.550, 677.128 760.458, 670.480 759.853, 665.769 759.051, 664.330 757.165, 661.525 754.128, 657.884 748.577, 651.939 743.780, 649.764 738.528, 646.917 733.190, 641.774 731.765, 639.759 729.982, 637.837 725.775, 636.935 722.369, 635.186 721.485, 634.732 720.286, 634.116 " fill="none" stroke="rgb(0, 0, 0)" stroke-linecap="butt" stroke-linejoin="round" stroke-opacity="1.0" stroke-width="3.0" />
            <path d=" M 351.957, 693.167 352.503, 694.038 353.256, 695.241 357.515, 698.813 359.941, 700.845 362.249, 702.970 364.451, 705.639 368.014, 712.662 370.744, 718.122 372.855, 724.280 377.983, 731.746 379.311, 735.762 382.506, 740.511 386.016, 744.360 392.079, 752.313 392.382, 752.711 393.679, 754.882 398.632, 762.641 " fill="none" stroke="rgb(0, 0, 0)" stroke-linecap="butt" stroke-linejoin="round" stroke-opacity="1.0" stroke-width="3.0" />
            <path d=" M 641.516, 1127.221 645.639, 1126.649 647.770, 1126.353 648.070, 1126.224 651.148, 1124.896 655.560, 1123.081 657.199, 1119.146 656.528, 1115.522 652.523, 1112.502 643.257, 1108.741 640.147, 1107.479 633.112, 1104.598 627.184, 1103.282 622.837, 1101.315 621.827, 1100.858 621.568, 1100.041 618.551, 1090.507 617.308, 1086.578 617.255, 1076.579 617.248, 1075.171 618.219, 1070.843 " fill="none" stroke="rgb(0, 0, 0)" stroke-linecap="butt" stroke-linejoin="round" stroke-opacity="1.0" stroke-width="3.0" />
            <path d=" M 789.295, 528.174 788.204, 518.451 787.696, 516.983 785.719, 511.313 782.567, 505.805 781.448, 502.350 779.772, 499.951 777.530, 496.540 773.877, 491.935 771.944, 489.631 770.011, 486.932 766.003, 482.409 759.833, 476.214 752.508, 469.547 750.514, 468.596 746.940, 468.162 739.890, 469.487 737.618, 470.941 734.740, 472.990 734.207, 473.422 733.804, 476.285 " fill="none" stroke="rgb(0, 0, 0)" stroke-linecap="butt" stroke-linejoin="round" stroke-opacity="1.0" stroke-width="3.0" />
            <path d=" M 703.821, 818.216 705.284, 813.414 705.584, 807.627 706.489, 798.893 706.651, 797.541 707.265, 792.423 707.283, 790.316 707.299, 788.493 707.427, 787.356 707.922, 782.949 707.556, 780.382 707.501, 780.000 707.491, 779.930 707.404, 779.320 707.140, 777.467 706.923, 775.942 706.602, 772.262 706.081, 766.290 705.414, 763.729 705.331, 763.412 705.147, 762.708 705.119, 762.600 704.845, 761.547 704.799, 761.371 704.740, 761.216 704.502, 760.596 703.930, 759.101 703.924, 759.085 703.677, 758.441 703.614, 753.918 703.614, 753.906 703.602, 753.020 703.572, 750.940 703.552, 749.493 703.533, 748.129 703.526, 747.617 702.081, 742.810 701.477, 739.845 700.553, 736.115 700.133, 734.420 697.318, 726.275 696.846, 725.119 696.767, 724.926 696.338, 723.875 695.220, 721.134 " fill="none" stroke="rgb(0, 0, 0)" stroke-linecap="butt" stroke-linejoin="round" stroke-opacity="1.0" stroke-width="3.0" />
            <path d=" M 632.275, 1060.113 637.820, 1062.287 647.117, 1065.972 650.571, 1067.340 657.097, 1068.936 663.628, 1070.456 673.521, 1071.917 674.818, 1072.109 684.722, 1073.494 686.456, 1073.737 695.861, 1073.671 701.426, 1073.202 709.191, 1073.067 714.556, 1071.757 718.476, 1069.680 717.768, 1065.017 709.632, 1061.753 " fill="none" stroke="rgb(0, 0, 0)" stroke-linecap="butt" stroke-linejoin="round" stroke-opacity="1.0" stroke-width="3.0" />
            <path d=" M 480.000, 865.137 480.252, 866.770 481.669, 875.962 483.237, 885.839 483.729, 888.944 484.976, 896.407 485.775, 902.859 486.404, 912.839 486.682, 917.253 487.500, 925.938 488.431, 935.816 488.636, 938.154 488.701, 938.889 489.562, 948.714 489.788, 950.299 491.201, 960.198 491.336, 961.146 492.567, 969.767 " fill="none" stroke="rgb(0, 0, 0)" stroke-linecap="butt" stroke-linejoin="round" stroke-opacity="1.0" stroke-width="3.0" />
            <path d=" M 798.691, 816.448 798.298, 815.436 794.676, 806.115 793.025, 801.865 789.499, 792.507 789.437, 792.343 785.428, 783.182 784.894, 781.963 783.707, 775.618 780.198, 766.623 777.832, 762.687 775.625, 758.086 773.025, 750.400 771.705, 745.712 768.866, 736.124 767.947, 733.020 766.665, 726.931 765.234, 721.927 764.160, 718.167 763.928, 716.467 762.916, 709.039 " fill="none" stroke="rgb(0, 0, 0)" stroke-linecap="butt" stroke-linejoin="round" stroke-opacity="1.0" stroke-width="3.0" />
            <path d=" M 650.501, 714.151 647.727, 716.960 642.763, 721.986 641.717, 723.046 634.491, 729.959 633.600, 730.812 633.070, 731.200 625.606, 736.659 616.408, 740.583 615.320, 741.048 605.544, 743.327 595.545, 743.169 594.943, 743.159 588.057, 741.022 579.788, 736.048 571.747, 731.799 570.240, 731.003 567.838, 729.974 566.697, 729.485 564.289, 728.453 559.567, 724.113 559.547, 724.094 558.480, 723.113 558.457, 723.092 556.864, 721.628 556.203, 721.117 556.200, 721.115 553.613, 719.114 552.334, 718.124 " fill="none" stroke="rgb(0, 0, 0)" stroke-linecap="butt" stroke-linejoin="round" stroke-opacity="1.0" stroke-width="3.0" />
            <path d=" M 692.657, 419.370 692.246, 419.860 691.925, 420.243 690.126, 422.386 690.085, 422.434 689.680, 423.067 689.054, 424.046 689.001, 424.128 688.673, 424.642 688.594, 424.765 688.010, 425.678 687.941, 425.786 687.833, 425.955 687.712, 426.144 687.052, 426.858 684.643, 429.466 681.811, 433.714 679.755, 437.228 678.637, 439.140 676.213, 443.284 675.933, 444.172 675.448, 445.711 674.058, 450.118 672.961, 452.745 670.032, 459.754 667.374, 467.435 664.188, 473.992 661.199, 477.759 659.518, 480.669 658.994, 482.839 656.753, 486.738 656.859, 487.604 656.965, 488.466 656.832, 490.882 656.687, 493.495 655.135, 497.319 653.778, 498.881 652.064, 503.825 651.461, 510.251 650.503, 514.103 648.487, 518.442 647.286, 520.246 642.972, 525.266 642.749, 525.526 " fill="none" stroke="rgb(0, 0, 0)" stroke-linecap="butt" stroke-linejoin="round" stroke-opacity="1.0" stroke-width="3.0" />
            <path d=" M 635.284, 559.426 639.320, 563.812 639.375, 563.880 641.821, 566.874 645.089, 570.862 647.816, 573.960 652.704, 580.656 658.452, 588.840 658.753, 589.269 661.666, 594.505 664.681, 600.251 666.730, 606.250 668.316, 610.406 669.313, 614.334 670.734, 619.933 671.369, 623.264 672.239, 627.835 672.342, 629.973 672.457, 632.349 672.615, 635.613 672.624, 635.806 673.018, 640.377 673.307, 643.743 673.357, 644.324 672.834, 645.848 672.999, 653.235 672.152, 658.574 671.322, 666.418 669.607, 673.522 669.300, 674.501 669.228, 674.727 669.228, 674.729 668.029, 678.545 668.004, 678.626 667.779, 679.350 667.564, 680.042 666.353, 683.947 666.135, 684.647 666.022, 685.012 666.005, 685.068 665.973, 685.169 665.942, 685.272 665.603, 686.362 664.161, 691.010 " fill="none" stroke="rgb(0, 0, 0)" stroke-linecap="butt" stroke-linejoin="round" stroke-opacity="1.0" stroke-width="3.0" />
            <path d=" M 404.261, 766.917 405.294, 769.127 406.186, 771.036 407.117, 773.101 409.019, 777.324 412.331, 786.759 413.151, 789.095 416.839, 798.391 419.167, 804.261 422.760, 813.593 424.110, 817.101 427.583, 826.478 429.607, 831.944 433.065, 841.327 436.523, 850.710 438.227, 855.333 441.252, 864.865 441.385, 865.284 444.661, 872.836 448.054, 882.243 449.084, 885.101 452.772, 894.396 453.403, 895.987 457.024, 905.308 457.070, 905.429 459.221, 911.714 " fill="none" stroke="rgb(0, 0, 0)" stroke-linecap="butt" stroke-linejoin="round" stroke-opacity="1.0" stroke-width="3.0" />
            <path d=" M 484.542, 1071.119 485.633, 1073.307 488.458, 1077.061 492.682, 1082.840 499.443, 1090.208 500.349, 1091.196 505.816, 1099.569 506.135, 1100.056 511.289, 1105.689 517.878, 1113.212 521.026, 1116.807 526.373, 1125.257 527.661, 1127.292 533.031, 1134.277 540.056, 1141.202 546.341, 1146.787 552.375, 1152.551 558.793, 1159.687 562.406, 1164.459 567.559, 1166.470 569.852, 1170.482 577.756, 1176.608 579.051, 1177.612 588.797, 1179.851 592.279, 1180.651 592.287, 1180.648 " fill="none" stroke="rgb(0, 0, 0)" stroke-linecap="butt" stroke-linejoin="round" stroke-opacity="1.0" stroke-width="3.0" />
            <path d=" M 896.651, 969.373 896.659, 968.936 896.850, 958.938 896.928, 954.846 896.529, 950.376 896.192, 940.794 896.455, 935.841 897.101, 926.537 896.808, 922.163 896.900, 915.543 896.691, 909.296 896.861, 903.523 896.307, 898.452 896.688, 894.156 896.035, 889.586 895.590, 882.648 895.817, 881.619 894.881, 875.352 894.409, 867.949 893.013, 860.970 891.760, 853.745 889.945, 845.525 889.112, 840.187 886.574, 830.515 886.139, 828.858 884.303, 822.005 882.151, 812.239 881.830, 810.784 879.542, 802.029 879.228, 799.442 878.409, 793.777 876.351, 787.035 874.334, 777.151 873.603, 771.613 872.327, 765.352 870.677, 757.591 868.208, 747.901 867.887, 746.640 866.278, 741.920 865.326, 739.128 " fill="none" stroke="rgb(0, 0, 0)" stroke-linecap="butt" stroke-linejoin="round" stroke-opacity="1.0" stroke-width="3.0" />
        </g>
    </g>
</svg>
