<?xml version='1.0' encoding='ascii'?>
<svg xmlns="http://www.w3.org/2000/svg" height="1280" version="1.1" width="1280">
    <g id="RenderLayer_LineSet" inkscape:groupmode="lineset" inkscape:label="RenderLayer_LineSet" xmlns:inkscape="http://www.inkscape.org/namespaces/inkscape">
        <g id="strokes" inkscape:groupmode="layer" inkscape:label="strokes" xmlns:inkscape="http://www.inkscape.org/namespaces/inkscape">
            <path d=" M 708.292, 665.149 710.451, 663.763 710.721, 663.589 712.276, 662.590 712.749, 661.565 712.838, 661.372 712.919, 661.197 713.115, 660.771 713.198, 660.591 714.341, 658.112 714.451, 657.873 714.690, 654.500 714.938, 652.706 715.344, 649.774 715.390, 649.444 715.609, 647.858 " fill="none" stroke="rgb(0, 0, 0)" stroke-linecap="butt" stroke-linejoin="round" stroke-opacity="1.0" stroke-width="3.0" />
            <path d=" M 870.231, 964.851 870.547, 967.623 871.138, 972.918 871.948, 978.764 872.802, 984.937 " fill="none" stroke="rgb(0, 0, 0)" stroke-linecap="butt" stroke-linejoin="round" stroke-opacity="1.0" stroke-width="3.0" />
            <path d=" M 714.472, 800.880 711.861, 797.423 709.216, 793.922 701.947, 787.054 701.501, 786.633 700.649, 785.829 " fill="none" stroke="rgb(0, 0, 0)" stroke-linecap="butt" stroke-linejoin="round" stroke-opacity="1.0" stroke-width="3.0" />
            <path d=" M 711.586, 631.286 711.420, 628.752 710.099, 625.231 707.926, 621.978 705.088, 616.614 702.743, 613.444 702.609, 613.188 " fill="none" stroke="rgb(0, 0, 0)" stroke-linecap="butt" stroke-linejoin="round" stroke-opacity="1.0" stroke-width="3.0" />
            <path d=" M 400.187, 497.210 400.063, 497.230 400.022, 497.237 399.097, 497.387 397.464, 497.651 397.405, 497.661 395.441, 500.484 395.015, 501.214 394.930, 501.360 392.903, 504.840 392.417, 505.484 392.148, 505.842 392.123, 505.922 391.681, 507.392 391.220, 508.925 390.759, 510.457 390.602, 510.980 390.515, 511.212 389.777, 513.175 390.033, 513.331 " fill="none" stroke="rgb(0, 0, 0)" stroke-linecap="butt" stroke-linejoin="round" stroke-opacity="1.0" stroke-width="3.0" />
            <path d=" M 725.057, 455.155 725.626, 454.753 725.713, 454.692 725.812, 454.622 726.678, 454.011 726.800, 453.925 726.803, 453.922 728.306, 452.862 728.926, 452.424 728.946, 452.410 729.098, 452.303 729.717, 451.354 730.438, 450.249 730.862, 447.535 730.047, 445.566 729.212, 443.551 729.178, 443.501 728.728, 442.845 728.671, 442.761 728.593, 442.604 726.350, 438.057 " fill="none" stroke="rgb(0, 0, 0)" stroke-linecap="butt" stroke-linejoin="round" stroke-opacity="1.0" stroke-width="3.0" />
            <path d=" M 707.856, 591.487 710.661, 591.914 714.637, 593.190 717.983, 595.322 718.487, 595.644 719.321, 596.519 721.138, 598.426 724.844, 602.314 " fill="none" stroke="rgb(0, 0, 0)" stroke-linecap="butt" stroke-linejoin="round" stroke-opacity="1.0" stroke-width="3.0" />
            <path d=" M 798.109, 666.681 796.033, 659.770 792.590, 651.825 792.494, 651.602 790.885, 647.142 " fill="none" stroke="rgb(0, 0, 0)" stroke-linecap="butt" stroke-linejoin="round" stroke-opacity="1.0" stroke-width="3.0" />
            <path d=" M 864.497, 908.639 864.517, 910.121 864.517, 910.129 864.529, 911.021 864.533, 913.736 864.533, 914.081 866.217, 919.895 869.206, 924.414 870.252, 928.418 " fill="none" stroke="rgb(0, 0, 0)" stroke-linecap="butt" stroke-linejoin="round" stroke-opacity="1.0" stroke-width="3.0" />
            <path d=" M 823.344, 1067.170 831.894, 1068.219 839.668, 1067.099 844.167, 1065.112 844.235, 1065.082 844.398, 1065.010 " fill="none" stroke="rgb(0, 0, 0)" stroke-linecap="butt" stroke-linejoin="round" stroke-opacity="1.0" stroke-width="3.0" />
            <path d=" M 453.590, 725.860 455.413, 735.692 455.432, 735.795 456.181, 739.888 456.297, 740.519 456.398, 741.289 456.399, 741.295 456.879, 744.942 457.186, 747.280 " fill="none" stroke="rgb(0, 0, 0)" stroke-linecap="butt" stroke-linejoin="round" stroke-opacity="1.0" stroke-width="3.0" />
            <path d=" M 833.950, 786.630 833.767, 785.875 832.878, 782.206 831.806, 776.484 831.617, 775.475 830.893, 773.172 828.566, 770.342 826.070, 767.868 825.462, 767.266 " fill="none" stroke="rgb(0, 0, 0)" stroke-linecap="butt" stroke-linejoin="round" stroke-opacity="1.0" stroke-width="3.0" />
            <path d=" M 719.223, 673.051 719.675, 672.764 719.963, 662.768 719.999, 661.543 716.947, 656.379 715.623, 654.140 714.938, 652.706 " fill="none" stroke="rgb(0, 0, 0)" stroke-linecap="butt" stroke-linejoin="round" stroke-opacity="1.0" stroke-width="3.0" />
            <path d=" M 715.872, 684.898 716.047, 683.895 716.334, 682.253 717.060, 678.103 715.537, 675.695 714.932, 674.738 714.861, 674.625 714.475, 674.015 714.350, 673.817 707.718, 668.136 707.065, 666.972 " fill="none" stroke="rgb(0, 0, 0)" stroke-linecap="butt" stroke-linejoin="round" stroke-opacity="1.0" stroke-width="3.0" />
            <path d=" M 767.833, 851.412 767.145, 850.070 762.576, 841.175 762.169, 840.383 758.924, 834.395 757.496, 831.759 " fill="none" stroke="rgb(0, 0, 0)" stroke-linecap="butt" stroke-linejoin="round" stroke-opacity="1.0" stroke-width="3.0" />
            <path d=" M 684.265, 696.440 684.483, 695.648 685.270, 692.788 685.964, 689.767 686.007, 689.583 687.055, 688.123 687.462, 687.556 689.760, 684.861 690.932, 684.258 695.250, 682.034 697.905, 680.794 " fill="none" stroke="rgb(0, 0, 0)" stroke-linecap="butt" stroke-linejoin="round" stroke-opacity="1.0" stroke-width="3.0" />
            <path d=" M 758.924, 834.395 757.790, 831.499 755.863, 823.881 755.598, 822.208 755.701, 819.356 754.434, 815.523 753.572, 812.918 " fill="none" stroke="rgb(0, 0, 0)" stroke-linecap="butt" stroke-linejoin="round" stroke-opacity="1.0" stroke-width="3.0" />
            <path d=" M 882.787, 917.285 881.244, 910.862 879.408, 907.764 877.339, 904.463 874.297, 903.108 871.816, 902.003 869.700, 901.559 " fill="none" stroke="rgb(0, 0, 0)" stroke-linecap="butt" stroke-linejoin="round" stroke-opacity="1.0" stroke-width="3.0" />
            <path d=" M 386.406, 544.101 385.625, 545.800 385.295, 547.691 383.223, 552.506 382.634, 556.870 382.005, 559.091 381.356, 566.009 " fill="none" stroke="rgb(0, 0, 0)" stroke-linecap="butt" stroke-linejoin="round" stroke-opacity="1.0" stroke-width="3.0" />
            <path d=" M 864.991, 858.198 864.946, 857.991 863.555, 851.515 861.924, 845.435 860.713, 842.538 858.414, 839.569 857.341, 838.184 857.327, 838.166 856.650, 837.291 " fill="none" stroke="rgb(0, 0, 0)" stroke-linecap="butt" stroke-linejoin="round" stroke-opacity="1.0" stroke-width="3.0" />
            <path d=" M 856.865, 770.769 856.461, 769.473 852.385, 761.693 849.549, 757.562 849.143, 756.971 848.576, 755.625 847.831, 753.857 847.186, 752.903 845.542, 750.470 " fill="none" stroke="rgb(0, 0, 0)" stroke-linecap="butt" stroke-linejoin="round" stroke-opacity="1.0" stroke-width="3.0" />
            <path d=" M 743.841, 926.880 744.138, 929.143 748.027, 936.480 752.316, 940.617 754.994, 942.038 758.740, 944.567 " fill="none" stroke="rgb(0, 0, 0)" stroke-linecap="butt" stroke-linejoin="round" stroke-opacity="1.0" stroke-width="3.0" />
            <path d=" M 381.593, 565.570 381.356, 566.009 379.936, 568.636 378.980, 574.300 378.776, 578.029 379.066, 581.717 379.551, 584.336 379.810, 588.147 380.049, 589.087 " fill="none" stroke="rgb(0, 0, 0)" stroke-linecap="butt" stroke-linejoin="round" stroke-opacity="1.0" stroke-width="3.0" />
            <path d=" M 819.390, 790.645 817.570, 792.118 816.843, 792.707 816.505, 792.980 816.311, 793.136 816.195, 793.231 815.798, 793.552 814.218, 794.831 813.690, 795.258 811.433, 798.871 811.293, 799.705 811.157, 800.517 811.223, 804.075 814.504, 808.117 815.860, 809.786 " fill="none" stroke="rgb(0, 0, 0)" stroke-linecap="butt" stroke-linejoin="round" stroke-opacity="1.0" stroke-width="3.0" />
            <path d=" M 723.944, 884.678 723.316, 886.618 723.280, 886.729 722.988, 887.633 722.677, 888.594 721.654, 894.932 722.345, 897.376 723.787, 899.660 730.123, 905.495 " fill="none" stroke="rgb(0, 0, 0)" stroke-linecap="butt" stroke-linejoin="round" stroke-opacity="1.0" stroke-width="3.0" />
            <path d=" M 729.718, 784.117 727.981, 782.246 726.711, 780.879 723.592, 776.247 722.074, 774.202 720.610, 773.722 716.261, 772.448 714.581, 771.439 711.365, 770.866 710.801, 770.766 " fill="none" stroke="rgb(0, 0, 0)" stroke-linecap="butt" stroke-linejoin="round" stroke-opacity="1.0" stroke-width="3.0" />
            <path d=" M 801.794, 779.276 801.188, 780.361 800.465, 781.654 800.338, 781.882 799.712, 783.003 799.373, 783.609 800.318, 786.422 803.082, 789.345 806.355, 791.551 807.982, 792.526 810.515, 794.041 814.218, 794.831 " fill="none" stroke="rgb(0, 0, 0)" stroke-linecap="butt" stroke-linejoin="round" stroke-opacity="1.0" stroke-width="3.0" />
            <path d=" M 921.705, 1004.995 922.369, 1001.404 921.795, 997.481 920.328, 991.013 918.006, 984.761 916.680, 981.194 " fill="none" stroke="rgb(0, 0, 0)" stroke-linecap="butt" stroke-linejoin="round" stroke-opacity="1.0" stroke-width="3.0" />
            <path d=" M 819.471, 808.549 817.806, 809.000 817.646, 809.044 816.893, 809.248 816.861, 809.257 816.501, 809.354 816.016, 809.681 815.921, 809.745 815.860, 809.786 815.498, 810.030 813.806, 811.170 812.834, 812.159 812.199, 815.130 812.364, 815.764 813.034, 817.883 813.437, 818.429 819.068, 823.135 821.100, 825.529 " fill="none" stroke="rgb(0, 0, 0)" stroke-linecap="butt" stroke-linejoin="round" stroke-opacity="1.0" stroke-width="3.0" />
            <path d=" M 698.604, 725.838 698.576, 725.641 697.929, 721.124 694.299, 713.602 693.321, 712.870 689.080, 709.693 685.615, 707.817 684.516, 707.221 " fill="none" stroke="rgb(0, 0, 0)" stroke-linecap="butt" stroke-linejoin="round" stroke-opacity="1.0" stroke-width="3.0" />
            <path d=" M 880.258, 941.289 878.237, 938.229 876.952, 936.579 873.777, 935.313 870.510, 935.443 870.247, 935.677 869.008, 937.060 868.803, 939.930 868.531, 943.729 870.234, 946.774 " fill="none" stroke="rgb(0, 0, 0)" stroke-linecap="butt" stroke-linejoin="round" stroke-opacity="1.0" stroke-width="3.0" />
            <path d=" M 780.612, 869.973 779.237, 866.875 775.740, 861.955 772.159, 857.676 767.833, 851.412 766.545, 849.547 " fill="none" stroke="rgb(0, 0, 0)" stroke-linecap="butt" stroke-linejoin="round" stroke-opacity="1.0" stroke-width="3.0" />
            <path d=" M 857.246, 898.203 857.383, 899.043 858.783, 907.638 859.811, 913.107 860.877, 916.837 862.565, 922.742 " fill="none" stroke="rgb(0, 0, 0)" stroke-linecap="butt" stroke-linejoin="round" stroke-opacity="1.0" stroke-width="3.0" />
            <path d=" M 517.955, 799.523 517.640, 799.708 517.571, 799.749 516.547, 800.351 521.453, 803.225 524.045, 804.269 529.542, 803.840 538.910, 801.941 " fill="none" stroke="rgb(0, 0, 0)" stroke-linecap="butt" stroke-linejoin="round" stroke-opacity="1.0" stroke-width="3.0" />
            <path d=" M 750.187, 885.231 747.975, 883.348 747.603, 883.031 747.334, 882.714 745.994, 881.128 744.211, 879.632 742.812, 878.457 739.162, 875.392 736.705, 875.101 732.463, 875.497 732.316, 875.673 732.313, 875.677 730.468, 877.876 730.126, 878.382 " fill="none" stroke="rgb(0, 0, 0)" stroke-linecap="butt" stroke-linejoin="round" stroke-opacity="1.0" stroke-width="3.0" />
            <path d=" M 887.596, 982.334 886.528, 983.162 885.539, 986.339 885.506, 991.568 885.497, 992.906 886.057, 996.365 886.706, 1000.623 887.659, 1006.879 " fill="none" stroke="rgb(0, 0, 0)" stroke-linecap="butt" stroke-linejoin="round" stroke-opacity="1.0" stroke-width="3.0" />
            <path d=" M 571.467, 535.146 570.367, 534.355 568.527, 533.031 565.920, 531.155 562.692, 528.831 556.033, 524.669 549.648, 522.908 548.878, 522.696 " fill="none" stroke="rgb(0, 0, 0)" stroke-linecap="butt" stroke-linejoin="round" stroke-opacity="1.0" stroke-width="3.0" />
            <path d=" M 879.032, 1081.934 881.209, 1081.953 881.580, 1082.059 885.140, 1083.068 888.975, 1082.080 891.237, 1081.080 892.002, 1080.558 893.344, 1077.688 893.261, 1076.313 893.247, 1071.938 893.245, 1071.280 893.244, 1070.876 893.241, 1069.990 893.241, 1069.950 893.236, 1068.269 " fill="none" stroke="rgb(0, 0, 0)" stroke-linecap="butt" stroke-linejoin="round" stroke-opacity="1.0" stroke-width="3.0" />
            <path d=" M 545.600, 392.475 537.197, 393.504 537.033, 393.540 534.464, 394.098 534.129, 394.171 528.977, 395.351 526.791, 395.852 526.666, 395.860 526.599, 395.864 526.292, 395.882 526.077, 395.894 525.723, 395.915 525.072, 395.954 521.682, 397.253 519.997, 397.899 " fill="none" stroke="rgb(0, 0, 0)" stroke-linecap="butt" stroke-linejoin="round" stroke-opacity="1.0" stroke-width="3.0" />
            <path d=" M 827.673, 1003.382 831.215, 1010.395 832.307, 1014.830 832.290, 1015.467 832.290, 1015.473 832.284, 1015.699 832.275, 1016.034 832.210, 1018.486 832.196, 1018.987 832.196, 1019.010 832.175, 1019.779 832.167, 1020.096 832.125, 1021.677 830.781, 1027.123 830.944, 1028.549 " fill="none" stroke="rgb(0, 0, 0)" stroke-linecap="butt" stroke-linejoin="round" stroke-opacity="1.0" stroke-width="3.0" />
            <path d=" M 592.125, 547.678 590.822, 546.689 582.842, 543.050 579.678, 540.578 579.316, 540.295 573.955, 536.107 571.467, 535.146 569.446, 534.366 569.380, 534.341 569.281, 534.303 " fill="none" stroke="rgb(0, 0, 0)" stroke-linecap="butt" stroke-linejoin="round" stroke-opacity="1.0" stroke-width="3.0" />
            <path d=" M 780.969, 753.523 780.770, 754.039 779.641, 756.974 779.650, 758.758 781.016, 761.714 783.511, 763.875 792.124, 765.664 794.000, 765.932 795.009, 765.785 795.129, 765.767 796.580, 765.555 798.035, 765.094 " fill="none" stroke="rgb(0, 0, 0)" stroke-linecap="butt" stroke-linejoin="round" stroke-opacity="1.0" stroke-width="3.0" />
            <path d=" M 863.401, 1080.554 864.135, 1081.415 866.713, 1084.436 868.791, 1088.061 872.292, 1088.964 877.195, 1088.512 879.190, 1088.192 880.803, 1087.112 881.451, 1082.225 881.580, 1082.059 " fill="none" stroke="rgb(0, 0, 0)" stroke-linecap="butt" stroke-linejoin="round" stroke-opacity="1.0" stroke-width="3.0" />
            <path d=" M 516.826, 856.647 521.257, 864.186 525.120, 870.996 527.283, 873.803 529.917, 874.620 533.800, 873.977 533.954, 873.951 " fill="none" stroke="rgb(0, 0, 0)" stroke-linecap="butt" stroke-linejoin="round" stroke-opacity="1.0" stroke-width="3.0" />
            <path d=" M 848.151, 873.434 850.456, 879.019 850.525, 879.186 851.996, 882.751 852.368, 883.976 853.351, 887.210 854.828, 890.354 855.476, 891.733 855.770, 892.862 856.301, 894.896 856.317, 894.956 857.383, 899.043 " fill="none" stroke="rgb(0, 0, 0)" stroke-linecap="butt" stroke-linejoin="round" stroke-opacity="1.0" stroke-width="3.0" />
            <path d=" M 423.075, 467.649 420.608, 470.502 420.479, 470.685 420.127, 471.182 420.110, 471.207 420.096, 471.235 419.450, 472.565 419.416, 472.634 419.349, 472.772 416.553, 478.525 415.497, 480.580 415.364, 480.839 414.632, 482.261 414.549, 482.423 414.315, 482.877 413.856, 483.771 413.742, 483.993 413.636, 484.198 413.021, 485.394 411.308, 492.030 " fill="none" stroke="rgb(0, 0, 0)" stroke-linecap="butt" stroke-linejoin="round" stroke-opacity="1.0" stroke-width="3.0" />
            <path d=" M 736.186, 858.733 733.118, 855.736 730.466, 853.170 730.327, 853.035 729.777, 852.503 728.808, 851.565 728.324, 851.097 726.816, 850.220 725.457, 849.429 725.217, 849.289 725.020, 849.206 724.031, 848.790 723.943, 848.753 721.719, 847.816 718.873, 847.449 715.102, 849.720 714.584, 850.139 713.681, 850.868 " fill="none" stroke="rgb(0, 0, 0)" stroke-linecap="butt" stroke-linejoin="round" stroke-opacity="1.0" stroke-width="3.0" />
            <path d=" M 491.190, 758.320 491.242, 757.086 491.289, 755.959 491.300, 755.689 491.723, 755.086 492.272, 754.304 493.437, 752.644 494.692, 750.856 499.921, 746.970 499.926, 746.967 501.674, 745.667 507.984, 743.199 508.656, 743.266 511.868, 743.586 " fill="none" stroke="rgb(0, 0, 0)" stroke-linecap="butt" stroke-linejoin="round" stroke-opacity="1.0" stroke-width="3.0" />
            <path d=" M 406.370, 490.695 403.089, 491.342 401.874, 491.581 400.749, 493.339 400.612, 493.553 399.271, 494.601 398.684, 495.060 398.303, 495.417 396.486, 497.117 394.233, 500.635 392.614, 503.112 392.383, 503.701 390.633, 508.164 390.680, 508.465 390.277, 510.770 390.515, 511.212 " fill="none" stroke="rgb(0, 0, 0)" stroke-linecap="butt" stroke-linejoin="round" stroke-opacity="1.0" stroke-width="3.0" />
            <path d=" M 836.720, 845.048 836.912, 845.768 837.568, 848.925 838.915, 852.562 845.117, 859.449 845.418, 859.773 845.474, 859.834 847.412, 861.925 847.415, 861.928 848.768, 863.388 848.880, 863.452 850.078, 864.144 850.977, 864.663 850.994, 864.673 851.215, 864.801 851.853, 865.169 853.749, 866.263 " fill="none" stroke="rgb(0, 0, 0)" stroke-linecap="butt" stroke-linejoin="round" stroke-opacity="1.0" stroke-width="3.0" />
            <path d=" M 896.074, 1060.661 896.621, 1060.505 900.107, 1059.510 900.671, 1059.349 900.725, 1059.333 903.972, 1058.406 904.293, 1057.963 904.441, 1057.759 904.663, 1057.454 905.334, 1056.528 905.330, 1056.099 905.329, 1055.983 905.304, 1053.412 905.299, 1052.952 905.299, 1052.921 905.277, 1050.566 906.822, 1041.620 906.241, 1040.642 905.458, 1039.326 " fill="none" stroke="rgb(0, 0, 0)" stroke-linecap="butt" stroke-linejoin="round" stroke-opacity="1.0" stroke-width="3.0" />
            <path d=" M 882.040, 832.239 881.666, 830.289 878.924, 823.699 877.084, 819.858 873.806, 810.478 872.829, 806.274 872.395, 805.497 872.340, 805.399 " fill="none" stroke="rgb(0, 0, 0)" stroke-linecap="butt" stroke-linejoin="round" stroke-opacity="1.0" stroke-width="3.0" />
            <path d=" M 860.560, 980.224 856.594, 978.738 853.153, 977.593 848.173, 975.028 846.042, 973.451 841.251, 969.935 839.167, 968.265 836.691, 966.281 836.103, 965.810 " fill="none" stroke="rgb(0, 0, 0)" stroke-linecap="butt" stroke-linejoin="round" stroke-opacity="1.0" stroke-width="3.0" />
            <path d=" M 828.450, 821.333 827.569, 821.670 826.769, 821.977 826.755, 821.983 823.364, 823.284 823.112, 823.381 822.561, 823.592 821.995, 823.809 821.100, 825.529 820.849, 826.013 822.120, 828.916 826.394, 831.187 828.052, 832.068 829.352, 832.338 831.270, 832.978 832.122, 833.262 837.162, 834.945 " fill="none" stroke="rgb(0, 0, 0)" stroke-linecap="butt" stroke-linejoin="round" stroke-opacity="1.0" stroke-width="3.0" />
            <path d=" M 916.383, 979.033 916.214, 977.695 915.382, 974.865 914.395, 964.914 914.346, 964.415 913.695, 961.090 913.360, 959.598 911.346, 950.635 " fill="none" stroke="rgb(0, 0, 0)" stroke-linecap="butt" stroke-linejoin="round" stroke-opacity="1.0" stroke-width="3.0" />
            <path d=" M 652.501, 641.174 652.332, 641.078 652.158, 640.979 646.987, 638.037 645.847, 635.894 645.026, 634.349 644.064, 632.539 644.194, 631.955 644.896, 628.797 644.979, 628.425 646.614, 627.416 647.307, 626.989 648.560, 626.215 649.933, 626.417 654.447, 627.081 656.218, 628.044 " fill="none" stroke="rgb(0, 0, 0)" stroke-linecap="butt" stroke-linejoin="round" stroke-opacity="1.0" stroke-width="3.0" />
            <path d=" M 439.101, 685.461 437.222, 687.121 431.156, 691.992 428.632, 694.453 425.461, 696.706 421.511, 698.860 418.927, 699.396 416.290, 700.121 414.558, 700.373 " fill="none" stroke="rgb(0, 0, 0)" stroke-linecap="butt" stroke-linejoin="round" stroke-opacity="1.0" stroke-width="3.0" />
            <path d=" M 810.889, 692.508 810.785, 692.332 810.768, 692.302 810.708, 692.200 810.703, 692.193 810.606, 692.028 810.512, 691.869 810.421, 691.714 808.423, 688.326 806.308, 684.739 806.266, 684.668 806.194, 684.522 805.047, 682.206 805.021, 682.154 803.778, 679.644 802.100, 676.257 801.619, 675.286 800.770, 673.571 800.299, 672.353 798.109, 666.681 797.894, 666.124 " fill="none" stroke="rgb(0, 0, 0)" stroke-linecap="butt" stroke-linejoin="round" stroke-opacity="1.0" stroke-width="3.0" />
            <path d=" M 685.180, 731.295 690.574, 734.448 693.124, 736.434 698.588, 738.164 701.129, 736.395 700.571, 731.044 699.312, 726.996 698.576, 725.641 " fill="none" stroke="rgb(0, 0, 0)" stroke-linecap="butt" stroke-linejoin="round" stroke-opacity="1.0" stroke-width="3.0" />
            <path d=" M 637.299, 422.905 635.073, 421.194 631.662, 419.550 627.421, 418.057 623.895, 414.329 620.273, 411.052 614.037, 406.833 613.284, 406.324 " fill="none" stroke="rgb(0, 0, 0)" stroke-linecap="butt" stroke-linejoin="round" stroke-opacity="1.0" stroke-width="3.0" />
            <path d=" M 420.411, 470.701 420.017, 470.796 418.493, 471.546 416.064, 473.420 414.249, 476.079 412.753, 477.526 411.337, 478.915 409.437, 481.427 408.450, 481.836 405.192, 484.020 403.314, 486.532 401.703, 489.590 400.148, 491.897 " fill="none" stroke="rgb(0, 0, 0)" stroke-linecap="butt" stroke-linejoin="round" stroke-opacity="1.0" stroke-width="3.0" />
            <path d=" M 626.759, 560.671 626.778, 560.100 626.856, 557.747 628.508, 551.918 628.821, 551.255 629.607, 549.592 631.943, 544.646 634.533, 542.146 634.810, 541.879 634.883, 541.809 635.460, 541.252 637.927, 538.872 641.374, 535.546 641.692, 535.239 642.084, 534.861 " fill="none" stroke="rgb(0, 0, 0)" stroke-linecap="butt" stroke-linejoin="round" stroke-opacity="1.0" stroke-width="3.0" />
            <path d=" M 877.310, 892.755 875.380, 884.523 874.367, 881.048 873.407, 877.994 873.402, 877.978 872.738, 875.869 871.388, 873.297 869.501, 870.923 864.581, 868.713 862.880, 868.728 862.225, 868.811 " fill="none" stroke="rgb(0, 0, 0)" stroke-linecap="butt" stroke-linejoin="round" stroke-opacity="1.0" stroke-width="3.0" />
            <path d=" M 581.807, 779.236 581.201, 781.663 580.972, 782.580 580.589, 784.114 578.494, 792.509 578.340, 793.141 577.860, 795.904 577.669, 797.005 576.895, 801.456 576.844, 801.750 576.792, 802.051 576.683, 802.675 576.173, 803.576 576.053, 803.789 575.596, 804.596 572.906, 809.347 " fill="none" stroke="rgb(0, 0, 0)" stroke-linecap="butt" stroke-linejoin="round" stroke-opacity="1.0" stroke-width="3.0" />
            <path d=" M 708.861, 556.990 708.880, 556.789 708.889, 556.694 709.626, 548.763 710.184, 546.807 710.234, 546.631 710.293, 546.425 711.708, 541.463 711.932, 540.677 712.188, 539.780 712.998, 537.086 714.183, 533.139 715.463, 527.270 715.870, 525.401 " fill="none" stroke="rgb(0, 0, 0)" stroke-linecap="butt" stroke-linejoin="round" stroke-opacity="1.0" stroke-width="3.0" />
            <path d=" M 416.825, 767.147 422.413, 771.835 431.197, 776.615 434.067, 778.177 428.618, 775.138 423.741, 772.059 " fill="none" stroke="rgb(0, 0, 0)" stroke-linecap="butt" stroke-linejoin="round" stroke-opacity="1.0" stroke-width="3.0" />
            <path d=" M 913.360, 959.598 912.290, 951.696 912.219, 942.404 912.098, 935.201 911.187, 931.082 910.240, 926.797 " fill="none" stroke="rgb(0, 0, 0)" stroke-linecap="butt" stroke-linejoin="round" stroke-opacity="1.0" stroke-width="3.0" />
            <path d=" M 382.605, 603.716 384.784, 606.444 385.068, 606.991 385.423, 607.678 386.312, 609.395 388.297, 612.156 391.270, 615.084 391.808, 615.794 393.270, 617.723 393.275, 617.728 396.437, 620.463 399.426, 624.062 401.973, 626.565 404.846, 629.125 " fill="none" stroke="rgb(0, 0, 0)" stroke-linecap="butt" stroke-linejoin="round" stroke-opacity="1.0" stroke-width="3.0" />
            <path d=" M 520.634, 721.005 525.451, 720.985 525.656, 720.984 525.795, 720.984 526.452, 720.981 526.490, 720.981 526.552, 721.001 526.889, 721.110 527.288, 721.240 532.232, 722.844 537.452, 724.537 537.741, 724.595 538.450, 724.736 538.741, 724.794 539.281, 724.902 542.035, 725.452 542.919, 725.629 543.348, 725.714 545.175, 726.079 547.280, 726.500 547.874, 726.561 548.277, 726.602 548.340, 726.609 548.593, 726.635 548.675, 726.643 552.661, 727.053 552.753, 727.063 552.828, 727.071 554.067, 727.198 " fill="none" stroke="rgb(0, 0, 0)" stroke-linecap="butt" stroke-linejoin="round" stroke-opacity="1.0" stroke-width="3.0" />
            <path d=" M 734.829, 895.548 732.918, 897.888 730.706, 900.595 729.503, 903.727 730.123, 905.495 730.462, 906.462 731.733, 908.348 736.286, 914.458 738.594, 916.898 743.137, 918.974 745.579, 919.126 746.827, 919.157 " fill="none" stroke="rgb(0, 0, 0)" stroke-linecap="butt" stroke-linejoin="round" stroke-opacity="1.0" stroke-width="3.0" />
            <path d=" M 844.952, 806.780 844.786, 804.464 844.745, 803.902 844.640, 802.431 844.634, 802.356 844.489, 800.326 844.332, 798.141 840.857, 791.435 837.928, 788.662 837.576, 788.460 834.569, 786.732 834.227, 786.676 833.950, 786.630 833.798, 786.605 833.119, 786.494 829.359, 785.877 828.616, 785.995 828.601, 785.998 828.220, 786.058 828.180, 786.065 827.792, 786.126 824.001, 786.729 " fill="none" stroke="rgb(0, 0, 0)" stroke-linecap="butt" stroke-linejoin="round" stroke-opacity="1.0" stroke-width="3.0" />
            <path d=" M 483.896, 409.250 483.812, 409.314 483.683, 409.413 483.622, 409.459 478.711, 413.209 476.252, 414.711 476.230, 414.724 467.696, 419.935 467.243, 420.212 459.214, 426.174 455.195, 429.159 " fill="none" stroke="rgb(0, 0, 0)" stroke-linecap="butt" stroke-linejoin="round" stroke-opacity="1.0" stroke-width="3.0" />
            <path d=" M 866.564, 948.555 866.538, 948.743 867.160, 953.863 866.991, 962.444 865.503, 972.420 862.377, 978.702 861.897, 979.665 861.835, 979.791 861.805, 979.851 860.619, 980.246 860.311, 980.348 858.705, 980.883 " fill="none" stroke="rgb(0, 0, 0)" stroke-linecap="butt" stroke-linejoin="round" stroke-opacity="1.0" stroke-width="3.0" />
            <path d=" M 564.216, 426.955 563.288, 425.647 562.240, 424.170 559.113, 422.837 556.880, 422.779 547.861, 422.904 542.311, 423.498 540.046, 424.055 539.107, 424.302 537.585, 424.704 535.088, 425.363 533.268, 426.112 530.937, 427.072 " fill="none" stroke="rgb(0, 0, 0)" stroke-linecap="butt" stroke-linejoin="round" stroke-opacity="1.0" stroke-width="3.0" />
            <path d=" M 462.361, 726.572 463.255, 730.677 463.777, 736.464 463.813, 736.862 463.933, 738.201 464.288, 742.140 464.303, 742.302 464.311, 742.750 464.360, 745.442 464.360, 745.449 464.362, 745.571 464.479, 752.027 464.566, 756.783 464.916, 758.825 465.207, 760.520 465.532, 761.987 " fill="none" stroke="rgb(0, 0, 0)" stroke-linecap="butt" stroke-linejoin="round" stroke-opacity="1.0" stroke-width="3.0" />
            <path d=" M 711.365, 770.866 709.605, 769.033 704.722, 765.721 701.420, 764.468 694.811, 760.972 689.935, 758.092 684.688, 756.529 680.309, 753.950 " fill="none" stroke="rgb(0, 0, 0)" stroke-linecap="butt" stroke-linejoin="round" stroke-opacity="1.0" stroke-width="3.0" />
            <path d=" M 698.942, 560.742 698.367, 562.453 698.171, 561.609 698.541, 561.192 698.942, 560.742 701.113, 558.299 703.267, 556.210 703.486, 555.997 704.491, 554.245 705.963, 551.678 706.117, 551.409 707.019, 549.019 707.481, 547.794 708.690, 545.693 708.958, 545.229 708.967, 545.212 709.304, 544.628 709.368, 544.516 709.405, 544.451 710.083, 543.274 710.843, 539.403 711.005, 538.575 711.759, 534.734 711.772, 534.466 711.871, 532.526 " fill="none" stroke="rgb(0, 0, 0)" stroke-linecap="butt" stroke-linejoin="round" stroke-opacity="1.0" stroke-width="3.0" />
            <path d=" M 433.842, 661.867 434.303, 665.517 434.648, 666.425 437.914, 675.877 438.754, 678.308 438.832, 678.540 439.768, 681.329 440.721, 684.030 440.771, 684.172 443.714, 692.513 445.114, 696.078 " fill="none" stroke="rgb(0, 0, 0)" stroke-linecap="butt" stroke-linejoin="round" stroke-opacity="1.0" stroke-width="3.0" />
            <path d=" M 549.648, 522.908 546.602, 521.721 540.888, 516.663 535.811, 510.298 531.257, 503.630 527.306, 495.759 527.069, 495.288 " fill="none" stroke="rgb(0, 0, 0)" stroke-linecap="butt" stroke-linejoin="round" stroke-opacity="1.0" stroke-width="3.0" />
            <path d=" M 814.589, 985.708 813.868, 985.735 813.822, 985.737 804.456, 986.087 803.568, 987.226 801.818, 987.867 801.789, 987.878 801.736, 987.897 801.267, 988.999 800.701, 990.328 801.275, 992.171 801.585, 993.164 807.063, 997.353 810.158, 999.943 815.213, 1000.915 815.263, 1000.924 815.402, 1000.951 815.855, 1001.038 816.697, 1001.200 " fill="none" stroke="rgb(0, 0, 0)" stroke-linecap="butt" stroke-linejoin="round" stroke-opacity="1.0" stroke-width="3.0" />
            <path d=" M 702.214, 603.621 703.354, 599.292 705.847, 594.389 707.589, 592.037 707.856, 591.487 711.859, 583.219 712.571, 580.083 712.330, 575.067 711.222, 570.759 710.107, 569.554 " fill="none" stroke="rgb(0, 0, 0)" stroke-linecap="butt" stroke-linejoin="round" stroke-opacity="1.0" stroke-width="3.0" />
            <path d=" M 510.344, 848.627 511.477, 850.081 514.779, 854.318 516.093, 856.005 516.826, 856.647 521.876, 861.068 529.817, 867.146 533.554, 870.006 536.075, 872.713 537.135, 873.850 537.204, 873.925 " fill="none" stroke="rgb(0, 0, 0)" stroke-linecap="butt" stroke-linejoin="round" stroke-opacity="1.0" stroke-width="3.0" />
            <path d=" M 708.860, 560.773 708.927, 560.987 712.360, 567.408 714.267, 571.798 714.666, 572.718 716.817, 577.669 720.143, 586.547 721.487, 589.139 723.581, 593.303 724.413, 594.958 " fill="none" stroke="rgb(0, 0, 0)" stroke-linecap="butt" stroke-linejoin="round" stroke-opacity="1.0" stroke-width="3.0" />
            <path d=" M 739.842, 632.945 741.049, 638.537 742.556, 642.683 743.048, 643.773 744.400, 646.835 744.578, 647.114 745.685, 650.288 745.848, 650.754 745.866, 650.805 746.048, 651.328 746.870, 653.684 746.977, 653.992 747.089, 654.311 747.379, 655.143 748.797, 663.416 749.281, 664.792 749.309, 665.086 750.243, 667.456 750.335, 667.688 750.509, 668.129 750.697, 668.314 750.811, 668.425 751.046, 668.655 " fill="none" stroke="rgb(0, 0, 0)" stroke-linecap="butt" stroke-linejoin="round" stroke-opacity="1.0" stroke-width="3.0" />
            <path d=" M 829.554, 719.579 827.544, 714.861 821.859, 706.634 820.690, 704.942 817.379, 699.202 814.305, 695.996 811.075, 691.783 810.323, 690.803 808.423, 688.326 " fill="none" stroke="rgb(0, 0, 0)" stroke-linecap="butt" stroke-linejoin="round" stroke-opacity="1.0" stroke-width="3.0" />
            <path d=" M 753.896, 807.349 752.633, 802.893 751.825, 801.245 749.140, 796.286 744.832, 792.912 740.660, 788.628 733.930, 786.852 727.981, 782.246 " fill="none" stroke="rgb(0, 0, 0)" stroke-linecap="butt" stroke-linejoin="round" stroke-opacity="1.0" stroke-width="3.0" />
            <path d=" M 434.067, 778.177 436.849, 779.617 446.194, 783.257 452.623, 785.265 461.097, 787.119 467.529, 787.137 470.686, 786.765 " fill="none" stroke="rgb(0, 0, 0)" stroke-linecap="butt" stroke-linejoin="round" stroke-opacity="1.0" stroke-width="3.0" />
            <path d=" M 680.765, 797.094 680.674, 797.160 677.693, 799.739 676.080, 802.100 675.669, 807.129 676.310, 809.038 680.078, 817.823 683.861, 821.507 686.064, 822.690 688.375, 823.595 690.525, 823.877 692.937, 824.192 " fill="none" stroke="rgb(0, 0, 0)" stroke-linecap="butt" stroke-linejoin="round" stroke-opacity="1.0" stroke-width="3.0" />
            <path d=" M 521.682, 397.253 517.799, 397.561 516.284, 397.946 513.151, 399.017 509.779, 400.147 509.544, 400.225 506.456, 400.628 502.269, 400.642 502.113, 400.643 501.951, 400.521 499.659, 398.796 498.958, 395.890 498.491, 393.947 498.400, 393.889 498.213, 393.769 496.463, 392.645 496.219, 392.655 496.104, 392.710 496.039, 392.741 494.744, 393.363 490.835, 396.691 490.641, 396.856 490.247, 397.835 " fill="none" stroke="rgb(0, 0, 0)" stroke-linecap="butt" stroke-linejoin="round" stroke-opacity="1.0" stroke-width="3.0" />
            <path d=" M 491.122, 654.317 492.310, 658.228 492.378, 659.313 492.416, 659.906 492.489, 661.074 492.574, 662.410 492.596, 662.770 492.866, 668.877 493.735, 677.521 494.385, 682.597 494.612, 686.900 494.689, 688.351 494.928, 692.895 " fill="none" stroke="rgb(0, 0, 0)" stroke-linecap="butt" stroke-linejoin="round" stroke-opacity="1.0" stroke-width="3.0" />
            <path d=" M 717.267, 505.133 717.289, 505.075 719.469, 499.394 721.468, 491.104 721.705, 486.858 721.699, 483.515 719.808, 473.696 719.723, 473.254 717.187, 466.845 " fill="none" stroke="rgb(0, 0, 0)" stroke-linecap="butt" stroke-linejoin="round" stroke-opacity="1.0" stroke-width="3.0" />
            <path d=" M 847.186, 752.903 843.652, 747.037 839.930, 739.832 837.863, 733.977 835.528, 729.900 833.827, 726.054 830.137, 720.510 829.554, 719.579 828.216, 717.445 " fill="none" stroke="rgb(0, 0, 0)" stroke-linecap="butt" stroke-linejoin="round" stroke-opacity="1.0" stroke-width="3.0" />
            <path d=" M 847.569, 1062.458 847.647, 1063.933 847.649, 1063.969 847.663, 1064.230 847.680, 1064.559 847.587, 1064.731 847.200, 1065.450 846.960, 1065.895 846.307, 1067.107 845.118, 1069.513 847.034, 1079.327 847.164, 1079.995 849.336, 1083.142 853.051, 1084.934 855.479, 1086.516 858.456, 1087.218 860.429, 1086.126 862.892, 1081.869 864.135, 1081.415 " fill="none" stroke="rgb(0, 0, 0)" stroke-linecap="butt" stroke-linejoin="round" stroke-opacity="1.0" stroke-width="3.0" />
            <path d=" M 780.693, 661.493 780.495, 661.154 778.944, 658.499 773.901, 649.864 773.843, 649.764 771.027, 643.610 767.009, 634.453 764.219, 628.097 762.293, 624.868 " fill="none" stroke="rgb(0, 0, 0)" stroke-linecap="butt" stroke-linejoin="round" stroke-opacity="1.0" stroke-width="3.0" />
            <path d=" M 628.299, 560.845 627.747, 560.783 626.759, 560.671 625.433, 560.521 625.238, 560.499 623.369, 560.289 622.991, 560.246 616.421, 559.505 613.679, 558.645 613.648, 558.635 613.582, 558.614 612.745, 558.352 612.603, 558.307 612.576, 558.299 612.182, 558.175 611.931, 558.096 611.866, 558.076 611.772, 558.047 611.459, 557.948 610.780, 557.735 610.582, 557.673 605.026, 555.930 597.714, 550.785 592.125, 547.678 590.045, 546.522 " fill="none" stroke="rgb(0, 0, 0)" stroke-linecap="butt" stroke-linejoin="round" stroke-opacity="1.0" stroke-width="3.0" />
            <path d=" M 679.828, 760.467 680.846, 760.047 680.612, 754.640 680.309, 753.950 679.074, 751.132 676.861, 746.083 673.198, 740.202 669.895, 737.913 665.102, 734.138 663.665, 730.094 662.531, 726.972 662.454, 726.761 662.333, 726.426 662.153, 725.930 " fill="none" stroke="rgb(0, 0, 0)" stroke-linecap="butt" stroke-linejoin="round" stroke-opacity="1.0" stroke-width="3.0" />
            <path d=" M 872.395, 805.497 871.582, 802.344 868.335, 794.028 864.663, 786.458 863.192, 783.608 860.477, 777.197 856.865, 770.769 854.730, 766.967 854.722, 766.953 " fill="none" stroke="rgb(0, 0, 0)" stroke-linecap="butt" stroke-linejoin="round" stroke-opacity="1.0" stroke-width="3.0" />
            <path d=" M 862.615, 922.936 862.919, 925.473 863.219, 927.989 863.961, 934.197 864.342, 935.826 866.284, 944.139 866.477, 944.968 866.582, 945.424 866.822, 946.457 866.842, 946.535 867.451, 948.939 868.686, 953.813 867.939, 949.930 867.641, 948.381 867.241, 945.514 866.729, 941.854 " fill="none" stroke="rgb(0, 0, 0)" stroke-linecap="butt" stroke-linejoin="round" stroke-opacity="1.0" stroke-width="3.0" />
            <path d=" M 710.762, 853.802 708.782, 855.904 708.778, 855.910 707.730, 857.022 706.840, 858.886 706.838, 858.889 706.430, 860.529 705.327, 864.965 706.771, 868.392 710.459, 872.832 712.729, 876.014 713.672, 881.406 714.811, 884.341 717.644, 886.332 719.885, 887.585 722.988, 887.633 " fill="none" stroke="rgb(0, 0, 0)" stroke-linecap="butt" stroke-linejoin="round" stroke-opacity="1.0" stroke-width="3.0" />
            <path d=" M 496.831, 800.472 496.892, 799.391 496.993, 797.587 497.148, 794.855 497.054, 792.426 497.040, 792.060 496.991, 790.793 496.988, 790.723 496.955, 789.846 496.954, 789.836 496.949, 789.707 496.949, 789.702 496.853, 787.215 496.533, 784.578 496.377, 783.289 496.258, 782.306 496.257, 782.296 496.207, 781.883 495.723, 777.892 495.506, 776.596 495.468, 776.363 495.347, 775.641 494.223, 768.902 493.206, 765.353 491.190, 758.320 491.013, 757.703 490.797, 756.947 490.591, 756.228 " fill="none" stroke="rgb(0, 0, 0)" stroke-linecap="butt" stroke-linejoin="round" stroke-opacity="1.0" stroke-width="3.0" />
            <path d=" M 544.364, 460.749 544.390, 460.721 546.322, 458.693 550.069, 454.761 554.754, 449.286 557.489, 446.090 559.266, 440.586 559.345, 440.341 559.662, 439.362 559.758, 439.064 559.765, 439.043 559.775, 439.010 560.624, 436.381 562.705, 433.685 562.788, 433.578 564.294, 431.626 564.699, 431.102 564.854, 430.900 565.157, 430.509 565.174, 430.487 565.280, 430.349 566.308, 429.017 565.988, 426.862 565.632, 425.595 563.288, 425.647 " fill="none" stroke="rgb(0, 0, 0)" stroke-linecap="butt" stroke-linejoin="round" stroke-opacity="1.0" stroke-width="3.0" />
            <path d=" M 723.581, 593.303 724.929, 596.837 725.938, 599.879 728.430, 606.355 730.586, 610.999 730.703, 611.251 730.839, 611.545 732.585, 615.172 732.948, 616.365 733.626, 618.598 734.915, 621.777 737.036, 626.359 738.641, 630.603 739.842, 632.945 740.881, 634.972 " fill="none" stroke="rgb(0, 0, 0)" stroke-linecap="butt" stroke-linejoin="round" stroke-opacity="1.0" stroke-width="3.0" />
            <path d=" M 827.756, 833.265 828.058, 833.910 832.275, 842.929 836.308, 850.857 838.752, 855.001 839.669, 856.556 841.076, 859.889 842.012, 862.107 846.600, 870.992 847.762, 873.242 848.470, 874.614 " fill="none" stroke="rgb(0, 0, 0)" stroke-linecap="butt" stroke-linejoin="round" stroke-opacity="1.0" stroke-width="3.0" />
            <path d=" M 771.115, 946.451 770.069, 946.124 769.828, 946.049 766.826, 945.112 761.075, 943.317 758.740, 944.567 756.629, 945.698 756.368, 950.584 759.539, 954.555 765.571, 962.531 765.971, 963.060 769.558, 966.633 774.239, 968.824 " fill="none" stroke="rgb(0, 0, 0)" stroke-linecap="butt" stroke-linejoin="round" stroke-opacity="1.0" stroke-width="3.0" />
            <path d=" M 688.753, 493.312 687.951, 496.989 687.868, 497.370 687.369, 499.659 687.189, 500.487 687.108, 500.858 687.098, 500.900 686.396, 505.017 686.226, 506.016 685.789, 507.608 685.688, 507.975 685.666, 508.055 685.591, 508.327 685.429, 508.918 684.347, 512.857 684.259, 513.090 684.128, 513.434 683.779, 514.356 683.751, 514.430 683.593, 514.848 683.186, 515.923 682.842, 516.831 682.824, 516.879 682.710, 517.180 682.633, 517.390 682.579, 517.539 682.196, 518.589 681.605, 520.209 679.491, 526.009 678.631, 528.369 673.674, 537.055 673.510, 537.342 " fill="none" stroke="rgb(0, 0, 0)" stroke-linecap="butt" stroke-linejoin="round" stroke-opacity="1.0" stroke-width="3.0" />
            <path d=" M 736.175, 841.004 734.739, 839.513 733.475, 838.200 728.937, 833.487 721.284, 827.050 718.398, 824.624 711.079, 817.810 710.680, 817.439 705.432, 812.968 700.899, 808.558 " fill="none" stroke="rgb(0, 0, 0)" stroke-linecap="butt" stroke-linejoin="round" stroke-opacity="1.0" stroke-width="3.0" />
            <path d=" M 911.913, 1055.622 914.793, 1050.274 914.835, 1050.178 917.174, 1044.806 919.098, 1038.992 920.966, 1032.971 922.197, 1023.675 922.050, 1023.090 921.758, 1021.927 921.742, 1021.862 921.723, 1021.788 921.595, 1021.279 920.542, 1017.088 920.299, 1012.077 920.666, 1010.657 920.819, 1010.062 921.023, 1009.271 921.321, 1008.119 " fill="none" stroke="rgb(0, 0, 0)" stroke-linecap="butt" stroke-linejoin="round" stroke-opacity="1.0" stroke-width="3.0" />
            <path d=" M 664.503, 819.926 672.137, 826.384 675.257, 829.023 681.239, 834.381 688.458, 841.300 695.709, 848.250 701.488, 854.524 " fill="none" stroke="rgb(0, 0, 0)" stroke-linecap="butt" stroke-linejoin="round" stroke-opacity="1.0" stroke-width="3.0" />
            <path d=" M 867.246, 870.127 862.837, 869.091 862.542, 868.956 862.487, 868.931 862.225, 868.811 861.036, 868.268 857.013, 866.431 854.147, 866.015 853.770, 866.250 853.749, 866.263 853.024, 866.715 852.946, 866.885 851.496, 870.014 851.324, 870.385 851.199, 870.654 850.714, 871.703 850.223, 872.257 850.096, 872.400 853.311, 879.554 855.473, 885.600 859.016, 891.287 859.110, 891.395 859.111, 891.395 862.548, 895.291 864.855, 898.586 " fill="none" stroke="rgb(0, 0, 0)" stroke-linecap="butt" stroke-linejoin="round" stroke-opacity="1.0" stroke-width="3.0" />
            <path d=" M 471.024, 758.153 470.856, 759.561 470.819, 759.865 470.812, 759.929 470.757, 760.387 470.732, 760.600 470.728, 760.633 470.684, 761.003 470.355, 763.755 470.077, 766.084 470.362, 776.079 470.366, 776.203 471.250, 779.668 473.186, 786.252 473.202, 786.304 473.247, 786.460 473.248, 786.463 473.391, 786.947 474.125, 789.446 476.765, 794.306 479.591, 799.284 482.095, 802.653 484.898, 806.425 " fill="none" stroke="rgb(0, 0, 0)" stroke-linecap="butt" stroke-linejoin="round" stroke-opacity="1.0" stroke-width="3.0" />
            <path d=" M 396.086, 704.149 395.971, 704.846 395.966, 704.881 395.952, 704.965 395.861, 705.346 395.459, 707.028 395.400, 707.275 395.392, 707.309 395.335, 707.548 394.933, 709.228 394.850, 709.438 394.050, 711.448 393.161, 713.681 393.687, 716.378 394.135, 722.207 394.960, 725.592 394.478, 728.149 395.618, 732.259 396.149, 734.556 398.930, 740.142 400.343, 742.908 402.221, 747.230 404.075, 751.412 405.614, 753.568 " fill="none" stroke="rgb(0, 0, 0)" stroke-linecap="butt" stroke-linejoin="round" stroke-opacity="1.0" stroke-width="3.0" />
            <path d=" M 552.689, 725.469 553.404, 726.366 553.453, 726.427 553.479, 726.461 554.067, 727.198 555.488, 728.983 555.542, 729.051 555.815, 729.394 555.829, 729.412 556.746, 730.562 557.224, 731.198 557.272, 731.262 557.410, 731.446 557.434, 731.477 557.594, 731.691 557.626, 731.733 557.857, 732.040 558.477, 732.865 559.414, 734.111 559.517, 734.248 559.663, 734.443 559.986, 734.871 560.386, 735.404 561.123, 736.384 565.995, 742.863 567.824, 745.253 567.826, 745.255 568.667, 746.354 568.693, 746.388 568.716, 746.422 571.494, 750.554 572.315, 751.775 572.794, 752.488 573.159, 753.031 573.608, 753.699 573.701, 753.836 573.735, 753.888 574.342, 754.791 575.258, 756.254 575.899, 757.279 576.228, 757.805 576.771, 758.674 576.834, 758.775 577.583, 759.972 578.905, 762.085 579.357, 762.809 581.119, 767.108 581.376, 767.737 581.885, 768.979 " fill="none" stroke="rgb(0, 0, 0)" stroke-linecap="butt" stroke-linejoin="round" stroke-opacity="1.0" stroke-width="3.0" />
            <path d=" M 905.693, 1029.712 905.785, 1031.909 905.860, 1033.684 905.974, 1034.776 906.667, 1035.496 908.265, 1037.157 910.035, 1039.119 912.322, 1041.654 912.680, 1042.051 913.721, 1041.866 915.506, 1041.550 915.990, 1040.821 915.996, 1040.811 918.456, 1037.109 919.582, 1032.713 919.537, 1029.969 919.535, 1029.828 919.531, 1029.580 919.524, 1029.204 919.512, 1028.447 918.517, 1021.898 916.772, 1019.472 914.080, 1016.401 913.959, 1016.264 913.757, 1016.139 912.466, 1015.342 910.016, 1014.605 907.277, 1014.209 " fill="none" stroke="rgb(0, 0, 0)" stroke-linecap="butt" stroke-linejoin="round" stroke-opacity="1.0" stroke-width="3.0" />
            <path d=" M 701.501, 786.633 695.748, 780.559 694.232, 779.249 694.223, 779.241 686.659, 772.700 682.008, 768.678 677.515, 764.603 676.250, 763.456 673.641, 761.090 666.625, 753.965 664.483, 751.789 664.357, 751.661 664.306, 749.730 664.296, 749.352 " fill="none" stroke="rgb(0, 0, 0)" stroke-linecap="butt" stroke-linejoin="round" stroke-opacity="1.0" stroke-width="3.0" />
            <path d=" M 483.482, 803.915 484.898, 806.425 488.941, 813.594 491.303, 817.782 492.740, 820.556 497.171, 829.108 497.704, 829.946 500.824, 834.851 506.031, 843.389 507.495, 845.789 511.477, 850.081 " fill="none" stroke="rgb(0, 0, 0)" stroke-linecap="butt" stroke-linejoin="round" stroke-opacity="1.0" stroke-width="3.0" />
            <path d=" M 823.106, 714.749 817.716, 708.111 816.983, 707.212 814.487, 704.148 814.487, 704.148 814.043, 703.603 813.791, 703.293 812.045, 701.151 811.959, 701.045 811.605, 700.611 809.898, 698.516 803.227, 692.132 796.819, 684.455 794.013, 681.092 791.098, 677.830 788.306, 674.705 788.082, 674.454 787.263, 673.537 " fill="none" stroke="rgb(0, 0, 0)" stroke-linecap="butt" stroke-linejoin="round" stroke-opacity="1.0" stroke-width="3.0" />
            <path d=" M 464.566, 756.783 464.946, 758.829 465.532, 761.987 467.359, 771.819 468.490, 777.910 470.698, 785.098 471.235, 786.392 471.248, 786.423 471.286, 786.517 471.356, 786.686 471.409, 786.814 475.237, 796.052 475.449, 796.564 480.542, 805.170 483.049, 809.407 " fill="none" stroke="rgb(0, 0, 0)" stroke-linecap="butt" stroke-linejoin="round" stroke-opacity="1.0" stroke-width="3.0" />
            <path d=" M 787.186, 968.133 786.049, 968.341 782.477, 968.995 781.957, 969.091 781.600, 969.078 774.239, 968.824 773.605, 968.802 773.242, 969.418 771.899, 972.187 770.889, 975.170 771.959, 978.497 779.856, 984.633 783.271, 987.286 790.309, 990.534 800.235, 991.751 800.897, 991.832 800.899, 991.832 " fill="none" stroke="rgb(0, 0, 0)" stroke-linecap="butt" stroke-linejoin="round" stroke-opacity="1.0" stroke-width="3.0" />
            <path d=" M 826.070, 767.868 825.377, 765.946 825.273, 765.657 823.946, 763.098 820.439, 758.767 817.278, 757.449 815.051, 756.520 815.006, 756.502 814.600, 756.332 813.766, 755.985 813.440, 755.849 808.971, 756.805 808.969, 756.805 808.964, 756.806 808.854, 756.830 806.712, 757.288 805.284, 758.436 803.278, 760.049 802.398, 760.761 801.912, 761.155 801.219, 761.817 800.975, 762.051 800.930, 762.093 800.826, 762.192 800.168, 762.821 800.100, 762.886 799.235, 763.713 799.035, 763.943 798.227, 764.873 798.194, 764.911 798.035, 765.094 797.888, 765.263 796.082, 767.503 796.020, 767.579 795.975, 767.680 794.596, 770.761 794.343, 773.768 796.078, 777.641 799.712, 783.003 " fill="none" stroke="rgb(0, 0, 0)" stroke-linecap="butt" stroke-linejoin="round" stroke-opacity="1.0" stroke-width="3.0" />
            <path d=" M 789.582, 643.140 789.276, 641.892 787.253, 635.416 785.730, 631.035 784.370, 626.764 783.817, 621.262 782.429, 614.568 782.744, 608.006 781.985, 603.579 781.539, 600.143 780.698, 598.319 778.958, 594.676 777.776, 591.286 775.416, 587.730 " fill="none" stroke="rgb(0, 0, 0)" stroke-linecap="butt" stroke-linejoin="round" stroke-opacity="1.0" stroke-width="3.0" />
            <path d=" M 587.882, 905.799 589.477, 905.223 589.486, 905.220 589.554, 905.195 591.316, 904.559 592.260, 902.277 593.415, 899.486 593.905, 899.500 595.655, 899.552 602.294, 899.749 603.782, 899.001 609.730, 892.436 611.466, 890.199 609.130, 886.344 608.343, 881.941 600.408, 877.266 598.890, 874.675 599.566, 871.650 601.908, 871.210 " fill="none" stroke="rgb(0, 0, 0)" stroke-linecap="butt" stroke-linejoin="round" stroke-opacity="1.0" stroke-width="3.0" />
            <path d=" M 918.033, 1011.153 918.422, 1007.686 919.338, 999.888 919.458, 998.396 918.236, 993.745 915.227, 987.760 910.411, 978.996 909.792, 977.871 904.133, 971.332 899.154, 968.327 896.885, 968.177 891.440, 970.272 " fill="none" stroke="rgb(0, 0, 0)" stroke-linecap="butt" stroke-linejoin="round" stroke-opacity="1.0" stroke-width="3.0" />
            <path d=" M 676.480, 532.881 673.510, 537.342 673.301, 537.657 670.589, 540.566 666.725, 543.969 663.585, 546.912 658.790, 550.675 656.193, 552.760 648.919, 556.884 641.092, 558.893 636.126, 559.683 629.900, 560.673 629.793, 560.690 629.148, 560.719 629.145, 560.719 627.747, 560.783 " fill="none" stroke="rgb(0, 0, 0)" stroke-linecap="butt" stroke-linejoin="round" stroke-opacity="1.0" stroke-width="3.0" />
            <path d=" M 481.765, 806.563 483.049, 809.407 487.160, 818.523 488.120, 820.649 493.268, 829.222 493.898, 830.270 494.924, 831.915 500.224, 838.294 506.361, 846.032 512.007, 852.027 514.779, 854.318 " fill="none" stroke="rgb(0, 0, 0)" stroke-linecap="butt" stroke-linejoin="round" stroke-opacity="1.0" stroke-width="3.0" />
            <path d=" M 848.256, 755.844 843.462, 747.067 841.579, 743.621 836.956, 736.395 836.236, 735.045 832.418, 728.424 826.790, 720.158 823.106, 714.749 825.864, 719.147 828.671, 723.621 " fill="none" stroke="rgb(0, 0, 0)" stroke-linecap="butt" stroke-linejoin="round" stroke-opacity="1.0" stroke-width="3.0" />
            <path d=" M 614.037, 406.833 612.544, 405.269 605.427, 400.661 597.276, 397.179 591.175, 395.073 585.208, 393.077 577.103, 391.750 573.211, 390.920 568.526, 390.798 565.525, 390.379 562.133, 390.074 560.641, 390.289 558.695, 390.568 558.625, 390.578 " fill="none" stroke="rgb(0, 0, 0)" stroke-linecap="butt" stroke-linejoin="round" stroke-opacity="1.0" stroke-width="3.0" />
            <path d=" M 693.321, 712.870 694.150, 712.116 694.746, 711.581 696.391, 706.451 698.093, 704.910 705.950, 706.322 714.048, 708.609 717.450, 708.406 719.192, 706.976 719.815, 703.668 716.709, 694.648 716.284, 689.695 715.872, 684.898 715.790, 683.947 715.477, 680.293 715.422, 679.654 " fill="none" stroke="rgb(0, 0, 0)" stroke-linecap="butt" stroke-linejoin="round" stroke-opacity="1.0" stroke-width="3.0" />
            <path d=" M 776.975, 707.985 773.504, 706.909 772.963, 706.742 772.350, 706.552 768.535, 706.719 765.134, 706.869 763.791, 708.166 761.767, 710.214 760.483, 713.830 760.258, 717.567 756.639, 722.121 756.493, 724.293 761.612, 728.175 763.369, 732.652 765.584, 734.183 771.627, 734.636 776.917, 733.637 777.870, 733.456 779.110, 733.222 " fill="none" stroke="rgb(0, 0, 0)" stroke-linecap="butt" stroke-linejoin="round" stroke-opacity="1.0" stroke-width="3.0" />
            <path d=" M 544.144, 873.307 549.502, 881.750 550.532, 883.374 552.326, 885.396 556.069, 887.664 556.670, 888.467 562.550, 896.322 568.968, 902.693 578.038, 906.828 580.367, 907.889 585.297, 907.267 589.486, 905.220 " fill="none" stroke="rgb(0, 0, 0)" stroke-linecap="butt" stroke-linejoin="round" stroke-opacity="1.0" stroke-width="3.0" />
            <path d=" M 637.927, 538.872 644.238, 535.162 644.966, 534.735 651.191, 533.405 655.061, 533.641 660.926, 532.536 664.237, 530.262 668.255, 527.548 669.619, 525.348 670.139, 524.510 670.978, 523.157 671.013, 523.101 671.057, 523.030 671.365, 522.533 671.469, 522.364 671.509, 522.300 671.522, 522.279 671.944, 521.599 673.629, 518.275 674.174, 517.197 674.205, 517.137 674.957, 515.652 675.374, 514.830 675.397, 514.784 675.457, 514.665 675.953, 513.687 676.974, 511.673 677.073, 511.477 677.079, 511.465 677.094, 511.435 677.735, 510.171 677.744, 510.153 677.753, 510.139 681.707, 504.059 682.248, 503.227 " fill="none" stroke="rgb(0, 0, 0)" stroke-linecap="butt" stroke-linejoin="round" stroke-opacity="1.0" stroke-width="3.0" />
            <path d=" M 745.866, 650.805 745.865, 650.823 745.843, 655.335 745.882, 659.238 745.902, 661.223 751.389, 669.583 751.761, 670.150 752.323, 671.007 752.545, 671.503 755.590, 678.324 758.081, 683.203 760.536, 688.026 763.849, 694.766 765.667, 699.536 766.916, 702.572 768.535, 706.719 " fill="none" stroke="rgb(0, 0, 0)" stroke-linecap="butt" stroke-linejoin="round" stroke-opacity="1.0" stroke-width="3.0" />
            <path d=" M 679.074, 751.132 682.704, 752.646 685.975, 754.191 691.091, 754.549 692.051, 751.322 692.448, 746.523 688.003, 737.565 687.839, 737.235 685.180, 731.295 683.669, 727.922 682.359, 726.272 679.124, 722.199 678.393, 721.288 677.336, 719.969 674.234, 716.099 670.092, 713.387 " fill="none" stroke="rgb(0, 0, 0)" stroke-linecap="butt" stroke-linejoin="round" stroke-opacity="1.0" stroke-width="3.0" />
            <path d=" M 537.135, 873.850 542.279, 881.057 546.895, 887.603 549.988, 894.806 555.165, 901.024 563.498, 906.552 565.158, 907.653 574.520, 911.169 575.905, 911.689 578.007, 908.815 578.038, 906.828 " fill="none" stroke="rgb(0, 0, 0)" stroke-linecap="butt" stroke-linejoin="round" stroke-opacity="1.0" stroke-width="3.0" />
            <path d=" M 583.052, 928.577 590.650, 935.078 594.791, 938.620 601.126, 940.565 603.609, 937.492 605.424, 934.387 602.379, 927.277 599.943, 923.374 594.979, 914.693 590.015, 906.012 589.722, 905.499 589.554, 905.195 " fill="none" stroke="rgb(0, 0, 0)" stroke-linecap="butt" stroke-linejoin="round" stroke-opacity="1.0" stroke-width="3.0" />
            <path d=" M 715.463, 527.270 715.533, 527.094 715.870, 525.401 716.330, 520.020 715.731, 510.555 715.518, 507.199 715.067, 498.123 713.115, 490.555 711.330, 484.643 709.065, 478.469 706.986, 471.457 706.069, 468.335 705.733, 467.189 705.373, 465.561 705.283, 465.153 704.981, 463.791 " fill="none" stroke="rgb(0, 0, 0)" stroke-linecap="butt" stroke-linejoin="round" stroke-opacity="1.0" stroke-width="3.0" />
            <path d=" M 589.192, 394.909 579.446, 392.669 578.028, 392.343 574.538, 391.763 568.431, 391.320 566.801, 391.151 565.565, 391.023 561.800, 390.631 561.585, 390.628 559.199, 390.588 558.625, 390.578 552.369, 390.474 552.009, 390.500 547.912, 390.788 539.894, 391.353 535.262, 392.960 531.638, 394.217 527.276, 395.371 527.219, 395.386 526.242, 395.644 525.072, 395.954 " fill="none" stroke="rgb(0, 0, 0)" stroke-linecap="butt" stroke-linejoin="round" stroke-opacity="1.0" stroke-width="3.0" />
            <path d=" M 381.533, 590.565 381.228, 590.613 381.228, 590.614 380.539, 590.724 379.708, 590.856 376.925, 591.301 373.485, 592.879 371.413, 594.356 367.651, 599.120 366.050, 601.975 365.026, 605.402 365.477, 609.225 366.746, 612.218 368.597, 617.763 369.336, 619.691 371.846, 622.973 375.091, 624.337 381.088, 623.340 390.172, 619.158 393.240, 617.745 393.275, 617.728 " fill="none" stroke="rgb(0, 0, 0)" stroke-linecap="butt" stroke-linejoin="round" stroke-opacity="1.0" stroke-width="3.0" />
            <path d=" M 730.047, 445.566 730.031, 445.451 727.986, 439.364 727.272, 438.116 725.657, 435.294 725.193, 433.169 724.776, 431.255 723.916, 428.631 719.786, 420.944 718.978, 419.776 715.411, 415.552 713.632, 413.897 709.091, 409.966 703.314, 406.656 702.824, 406.382 697.487, 404.804 695.414, 404.618 691.721, 405.191 689.022, 406.494 687.372, 407.180 685.725, 408.552 " fill="none" stroke="rgb(0, 0, 0)" stroke-linecap="butt" stroke-linejoin="round" stroke-opacity="1.0" stroke-width="3.0" />
            <path d=" M 441.460, 683.778 444.344, 693.315 445.114, 696.078 446.790, 702.091 450.170, 711.502 452.995, 719.367 453.889, 721.855 453.957, 722.057 453.985, 722.140 454.117, 722.531 457.320, 732.004 458.859, 736.559 460.324, 740.810 460.969, 742.682 460.971, 742.689 462.341, 746.664 462.378, 746.771 463.532, 750.119 464.479, 752.027 " fill="none" stroke="rgb(0, 0, 0)" stroke-linecap="butt" stroke-linejoin="round" stroke-opacity="1.0" stroke-width="3.0" />
            <path d=" M 814.600, 756.332 813.969, 754.057 813.901, 753.812 813.641, 752.875 813.400, 752.005 813.361, 751.866 813.219, 751.354 812.946, 748.650 810.630, 744.434 809.956, 743.261 809.388, 742.273 809.135, 741.832 809.114, 741.808 806.449, 738.750 802.013, 733.660 799.690, 731.869 797.581, 730.242 793.524, 728.556 787.529, 729.310 785.712, 730.417 782.775, 732.208 782.336, 732.605 782.248, 732.685 781.707, 733.175 781.037, 733.782 780.266, 734.481 779.484, 735.189 778.913, 735.707 778.728, 735.874 776.544, 739.647 776.691, 744.637 777.512, 746.496 779.609, 750.453 780.659, 752.112 780.770, 754.039 " fill="none" stroke="rgb(0, 0, 0)" stroke-linecap="butt" stroke-linejoin="round" stroke-opacity="1.0" stroke-width="3.0" />
            <path d=" M 532.192, 426.658 530.937, 427.072 527.021, 428.366 523.154, 430.991 523.048, 431.063 522.553, 431.399 522.272, 431.681 522.268, 431.685 522.235, 431.718 522.211, 431.743 521.800, 432.154 520.006, 433.955 519.344, 434.619 517.203, 436.769 514.316, 441.581 514.226, 441.779 513.858, 442.593 513.530, 443.317 513.143, 444.172 512.356, 445.909 511.775, 447.194 511.655, 447.459 511.624, 447.549 510.739, 450.112 509.309, 454.252 507.795, 460.622 507.033, 467.293 506.370, 474.874 504.699, 483.982 501.787, 488.949 " fill="none" stroke="rgb(0, 0, 0)" stroke-linecap="butt" stroke-linejoin="round" stroke-opacity="1.0" stroke-width="3.0" />
            <path d=" M 552.359, 747.487 552.445, 747.529 554.394, 748.477 554.630, 748.592 558.651, 750.548 558.941, 750.689 558.995, 750.776 559.739, 751.969 559.956, 752.316 560.118, 752.576 560.251, 752.788 560.521, 753.221 560.561, 753.285 560.739, 753.570 561.537, 754.850 563.222, 757.550 563.524, 758.035 563.984, 759.025 564.389, 759.898 564.390, 759.901 564.521, 760.182 565.082, 761.392 565.208, 761.663 565.246, 761.744 565.294, 761.848 566.519, 764.486 567.334, 766.242 567.391, 766.364 568.687, 767.170 571.381, 768.845 571.318, 769.382 571.243, 770.016 570.877, 773.134 571.266, 780.218 571.331, 781.400 571.360, 781.927 570.945, 785.845 570.131, 793.538 570.105, 793.782 571.089, 798.567 571.360, 800.689 571.401, 801.003 571.495, 801.739 571.528, 802.003 572.053, 806.103 572.415, 808.933 571.476, 814.478 571.246, 815.835 569.458, 818.311 " fill="none" stroke="rgb(0, 0, 0)" stroke-linecap="butt" stroke-linejoin="round" stroke-opacity="1.0" stroke-width="3.0" />
            <path d=" M 841.156, 963.584 837.085, 957.905 832.644, 949.806 827.187, 941.427 824.712, 937.626 821.567, 932.972 816.490, 925.457 814.925, 922.700 812.598, 918.601 809.401, 913.971 804.526, 905.240 804.350, 904.926 798.606, 896.740 797.946, 895.800 " fill="none" stroke="rgb(0, 0, 0)" stroke-linecap="butt" stroke-linejoin="round" stroke-opacity="1.0" stroke-width="3.0" />
            <path d=" M 533.800, 873.977 534.484, 874.746 539.944, 883.124 543.820, 889.071 549.795, 897.089 553.077, 901.493 559.321, 908.083 564.974, 912.300 568.036, 915.802 575.556, 922.394 580.114, 926.390 583.052, 928.577 591.074, 934.547 591.595, 934.935 " fill="none" stroke="rgb(0, 0, 0)" stroke-linecap="butt" stroke-linejoin="round" stroke-opacity="1.0" stroke-width="3.0" />
            <path d=" M 908.539, 911.488 907.735, 905.960 906.691, 899.157 904.594, 890.356 902.151, 881.423 898.589, 872.079 896.347, 866.442 895.410, 864.749 892.319, 857.588 889.693, 851.623 888.778, 847.669 887.739, 845.401 885.484, 839.746 882.040, 832.239 881.332, 830.694 " fill="none" stroke="rgb(0, 0, 0)" stroke-linecap="butt" stroke-linejoin="round" stroke-opacity="1.0" stroke-width="3.0" />
            <path d=" M 451.527, 738.076 449.321, 737.006 447.219, 735.630 438.853, 730.153 438.654, 730.023 434.773, 727.631 426.752, 723.847 423.279, 721.307 420.316, 717.876 416.999, 714.030 414.622, 710.132 411.666, 703.939 410.236, 700.317 409.040, 697.289 406.361, 691.857 402.623, 688.394 402.457, 688.362 400.128, 689.540 397.543, 689.675 395.224, 691.264 394.522, 694.122 394.181, 696.320 393.626, 697.928 " fill="none" stroke="rgb(0, 0, 0)" stroke-linecap="butt" stroke-linejoin="round" stroke-opacity="1.0" stroke-width="3.0" />
            <path d=" M 723.746, 846.693 724.786, 843.043 724.979, 842.369 724.573, 838.086 724.418, 836.928 722.818, 833.883 717.636, 828.073 711.845, 823.438 706.023, 820.772 702.769, 820.548 702.484, 820.528 700.178, 820.368 700.178, 820.368 699.620, 820.574 699.593, 820.584 697.536, 821.341 697.284, 821.433 696.139, 823.609 696.121, 823.643 695.788, 824.276 694.851, 826.056 692.621, 829.715 692.113, 831.117 691.833, 831.890 691.804, 832.997 691.755, 834.916 691.999, 839.019 694.635, 842.890 697.660, 847.860 700.950, 853.048 702.826, 855.874 703.068, 856.239 703.574, 857.002 704.012, 857.264 704.111, 857.324 706.721, 858.885 706.840, 858.886 " fill="none" stroke="rgb(0, 0, 0)" stroke-linecap="butt" stroke-linejoin="round" stroke-opacity="1.0" stroke-width="3.0" />
            <path d=" M 628.384, 826.012 634.624, 828.234 643.259, 833.384 652.158, 835.366 653.511, 834.734 655.941, 833.418 657.892, 828.393 661.039, 827.015 665.113, 827.923 666.624, 824.347 664.503, 819.926 663.981, 818.840 656.519, 812.183 652.578, 808.667 648.506, 806.236 644.311, 804.103 642.280, 803.200 641.098, 802.675 631.434, 800.103 630.664, 799.898 " fill="none" stroke="rgb(0, 0, 0)" stroke-linecap="butt" stroke-linejoin="round" stroke-opacity="1.0" stroke-width="3.0" />
            <path d=" M 650.828, 437.233 648.684, 437.458 646.613, 437.675 646.483, 437.689 646.225, 437.716 645.928, 437.747 643.873, 439.253 641.104, 443.318 641.520, 445.585 641.592, 445.983 641.601, 446.031 641.618, 446.121 641.632, 446.200 641.747, 446.828 642.140, 447.355 643.228, 448.813 644.116, 449.524 644.118, 449.526 645.071, 450.289 646.456, 451.054 650.610, 453.350 656.750, 457.563 661.107, 460.645 661.672, 461.229 663.494, 463.109 665.359, 465.036 671.466, 472.955 671.811, 473.403 675.543, 479.600 675.680, 479.944 675.801, 480.250 677.093, 483.504 677.222, 483.923 677.648, 485.304 679.547, 491.465 679.925, 493.301 680.131, 494.302 680.153, 494.408 680.205, 494.660 680.586, 496.513 680.643, 496.787 680.786, 497.312 680.824, 497.453 681.887, 501.355 682.089, 502.400 682.195, 502.954 682.248, 503.227 682.489, 504.478 682.734, 505.748 683.221, 508.272 " fill="none" stroke="rgb(0, 0, 0)" stroke-linecap="butt" stroke-linejoin="round" stroke-opacity="1.0" stroke-width="3.0" />
            <path d=" M 599.000, 867.929 601.764, 871.048 601.908, 871.210 604.608, 874.258 607.384, 878.395 610.316, 882.582 613.466, 885.987 615.622, 886.137 618.350, 885.934 624.806, 879.763 628.649, 874.877 631.029, 871.566 637.833, 865.842 640.396, 862.639 641.429, 857.115 642.508, 853.868 640.280, 847.339 638.674, 844.790 632.841, 839.610 626.591, 834.059 " fill="none" stroke="rgb(0, 0, 0)" stroke-linecap="butt" stroke-linejoin="round" stroke-opacity="1.0" stroke-width="3.0" />
            <path d=" M 763.521, 627.876 762.293, 624.868 760.666, 620.886 757.650, 616.473 756.618, 614.483 755.894, 613.087 752.544, 606.626 750.610, 603.196 749.346, 600.888 744.543, 592.117 744.239, 591.563 741.093, 585.662 735.899, 577.117 733.684, 573.472 731.246, 569.366 726.141, 560.767 725.387, 559.497 724.004, 557.312 720.067, 551.096 716.599, 544.788 716.400, 544.361 712.998, 537.086 " fill="none" stroke="rgb(0, 0, 0)" stroke-linecap="butt" stroke-linejoin="round" stroke-opacity="1.0" stroke-width="3.0" />
            <path d=" M 403.871, 627.332 404.846, 629.125 408.202, 635.294 409.021, 636.568 413.935, 642.170 416.923, 647.691 420.597, 656.992 420.812, 657.537 424.041, 662.446 429.509, 670.818 430.806, 672.805 432.364, 675.206 436.870, 682.134 439.101, 685.461 439.684, 686.331 441.974, 691.022 442.639, 697.373 446.150, 706.737 446.594, 707.920 450.218, 717.240 450.958, 719.144 451.465, 720.449 452.817, 723.892 452.944, 724.214 453.149, 724.737 453.590, 725.860 453.678, 726.084 " fill="none" stroke="rgb(0, 0, 0)" stroke-linecap="butt" stroke-linejoin="round" stroke-opacity="1.0" stroke-width="3.0" />
            <path d=" M 828.800, 1030.106 828.234, 1030.481 821.717, 1034.798 816.180, 1036.946 811.322, 1039.351 801.417, 1040.728 800.453, 1040.861 791.183, 1040.578 786.262, 1039.404 782.992, 1039.555 778.839, 1039.748 776.938, 1041.092 777.069, 1043.028 778.389, 1046.076 783.404, 1050.530 789.426, 1054.756 793.899, 1057.434 803.087, 1061.379 805.682, 1062.493 813.483, 1064.941 818.472, 1066.069 823.344, 1067.170 821.280, 1066.862 818.472, 1066.069 " fill="none" stroke="rgb(0, 0, 0)" stroke-linecap="butt" stroke-linejoin="round" stroke-opacity="1.0" stroke-width="3.0" />
            <path d=" M 767.105, 586.048 766.630, 585.148 764.749, 581.583 764.258, 579.602 761.856, 569.895 761.342, 567.819 760.343, 560.012 760.450, 552.501 760.120, 547.491 760.247, 540.938 759.987, 536.104 759.550, 531.330 759.174, 528.066 757.740, 524.240 748.868, 519.626 748.110, 519.232 741.428, 519.668 735.442, 520.014 730.827, 522.923 729.293, 524.108 725.740, 528.700 720.586, 537.269 719.360, 539.307 716.400, 544.361 " fill="none" stroke="rgb(0, 0, 0)" stroke-linecap="butt" stroke-linejoin="round" stroke-opacity="1.0" stroke-width="3.0" />
            <path d=" M 627.198, 780.737 633.749, 779.306 637.399, 777.996 638.017, 777.774 639.578, 778.567 639.719, 778.639 647.870, 782.777 654.974, 785.151 657.184, 785.889 666.171, 790.275 673.717, 793.957 680.765, 797.094 682.177, 797.723 683.995, 798.532 688.756, 802.029 689.819, 802.574 693.895, 804.664 693.938, 804.686 694.082, 804.760 697.049, 806.281 697.602, 806.564 697.996, 806.766 698.069, 806.804 698.155, 806.840 699.880, 807.566 700.888, 807.990 708.141, 811.042 714.062, 813.847 716.671, 816.457 723.761, 819.190 728.201, 820.654 731.232, 820.407 732.257, 820.096 731.449, 815.842 726.386, 810.692 720.047, 804.695 712.571, 798.053 711.861, 797.423 " fill="none" stroke="rgb(0, 0, 0)" stroke-linecap="butt" stroke-linejoin="round" stroke-opacity="1.0" stroke-width="3.0" />
        </g>
    </g>
</svg>
