<?xml version='1.0' encoding='ascii'?>
<svg xmlns="http://www.w3.org/2000/svg" height="1280" version="1.1" width="1280">
    <g id="RenderLayer_LineSet" inkscape:groupmode="lineset" inkscape:label="RenderLayer_LineSet" xmlns:inkscape="http://www.inkscape.org/namespaces/inkscape">
        <g id="strokes" inkscape:groupmode="layer" inkscape:label="strokes" xmlns:inkscape="http://www.inkscape.org/namespaces/inkscape">
            <path d=" M 423.356, 771.422 428.423, 775.906 430.958, 777.891 431.035, 777.951 431.230, 778.027 434.279, 779.211 440.462, 781.551 " fill="none" stroke="rgb(0, 0, 0)" stroke-linecap="butt" stroke-linejoin="round" stroke-opacity="1.0" stroke-width="3.0" />
            <path d=" M 743.135, 847.381 743.090, 847.324 741.334, 845.532 738.472, 844.593 737.251, 845.662 736.572, 847.937 734.725, 850.461 734.638, 850.579 733.540, 851.836 731.943, 853.666 729.846, 856.139 " fill="none" stroke="rgb(0, 0, 0)" stroke-linecap="butt" stroke-linejoin="round" stroke-opacity="1.0" stroke-width="3.0" />
            <path d=" M 418.523, 637.985 419.225, 640.321 420.710, 645.254 423.265, 653.990 424.394, 657.337 " fill="none" stroke="rgb(0, 0, 0)" stroke-linecap="butt" stroke-linejoin="round" stroke-opacity="1.0" stroke-width="3.0" />
            <path d=" M 537.474, 465.654 532.722, 467.310 532.484, 467.393 531.318, 467.799 530.599, 467.838 527.708, 467.997 525.436, 467.616 521.412, 466.940 518.791, 466.500 517.699, 466.317 " fill="none" stroke="rgb(0, 0, 0)" stroke-linecap="butt" stroke-linejoin="round" stroke-opacity="1.0" stroke-width="3.0" />
            <path d=" M 719.027, 841.584 718.228, 839.544 715.645, 835.887 714.400, 834.469 709.291, 834.998 708.335, 836.815 707.244, 838.891 706.182, 840.909 " fill="none" stroke="rgb(0, 0, 0)" stroke-linecap="butt" stroke-linejoin="round" stroke-opacity="1.0" stroke-width="3.0" />
            <path d=" M 754.358, 853.421 748.554, 849.437 748.241, 849.366 747.424, 849.183 744.860, 848.652 744.621, 849.227 743.881, 851.007 743.874, 851.023 743.869, 851.035 743.820, 851.080 741.493, 853.202 741.452, 855.121 741.431, 856.093 741.428, 856.238 741.409, 857.100 " fill="none" stroke="rgb(0, 0, 0)" stroke-linecap="butt" stroke-linejoin="round" stroke-opacity="1.0" stroke-width="3.0" />
            <path d=" M 593.533, 795.731 593.475, 795.166 593.178, 792.304 592.930, 789.908 591.641, 788.015 590.144, 787.347 581.355, 792.118 580.706, 792.470 " fill="none" stroke="rgb(0, 0, 0)" stroke-linecap="butt" stroke-linejoin="round" stroke-opacity="1.0" stroke-width="3.0" />
            <path d=" M 397.805, 684.015 397.564, 684.330 396.549, 685.657 396.069, 686.285 396.656, 688.591 399.066, 693.054 399.159, 693.225 399.601, 694.044 400.059, 694.891 400.663, 695.910 400.865, 696.250 402.023, 698.200 402.141, 698.399 404.206, 701.879 " fill="none" stroke="rgb(0, 0, 0)" stroke-linecap="butt" stroke-linejoin="round" stroke-opacity="1.0" stroke-width="3.0" />
            <path d=" M 931.398, 867.259 934.259, 862.192 934.726, 860.011 935.917, 853.608 936.257, 851.783 935.760, 847.656 " fill="none" stroke="rgb(0, 0, 0)" stroke-linecap="butt" stroke-linejoin="round" stroke-opacity="1.0" stroke-width="3.0" />
            <path d=" M 528.153, 736.207 529.823, 731.445 529.937, 731.078 532.248, 723.679 532.507, 721.215 531.823, 716.799 531.739, 716.255 " fill="none" stroke="rgb(0, 0, 0)" stroke-linecap="butt" stroke-linejoin="round" stroke-opacity="1.0" stroke-width="3.0" />
            <path d=" M 499.558, 791.074 501.528, 790.231 504.308, 789.040 514.082, 786.924 514.718, 786.787 515.050, 786.624 515.434, 786.438 518.664, 784.861 519.153, 784.464 " fill="none" stroke="rgb(0, 0, 0)" stroke-linecap="butt" stroke-linejoin="round" stroke-opacity="1.0" stroke-width="3.0" />
            <path d=" M 813.229, 766.581 812.063, 768.248 812.178, 771.546 814.718, 775.252 820.903, 781.415 822.717, 782.839 " fill="none" stroke="rgb(0, 0, 0)" stroke-linecap="butt" stroke-linejoin="round" stroke-opacity="1.0" stroke-width="3.0" />
            <path d=" M 604.961, 873.501 605.186, 874.086 605.605, 875.173 606.212, 876.751 609.209, 880.075 612.709, 882.355 617.433, 883.229 619.723, 883.404 621.524, 883.453 " fill="none" stroke="rgb(0, 0, 0)" stroke-linecap="butt" stroke-linejoin="round" stroke-opacity="1.0" stroke-width="3.0" />
            <path d=" M 684.985, 893.725 685.823, 894.866 685.857, 894.911 686.845, 896.257 687.042, 896.524 690.020, 899.809 690.310, 900.130 691.197, 900.974 691.230, 901.005 695.824, 905.379 699.533, 908.910 " fill="none" stroke="rgb(0, 0, 0)" stroke-linecap="butt" stroke-linejoin="round" stroke-opacity="1.0" stroke-width="3.0" />
            <path d=" M 834.069, 761.068 833.721, 761.444 832.350, 762.925 831.817, 763.500 830.218, 763.810 830.081, 763.836 830.041, 763.844 830.038, 763.845 830.033, 763.846 829.337, 764.025 829.184, 764.065 829.175, 764.067 828.616, 764.211 828.603, 764.214 828.167, 764.326 827.886, 764.399 827.060, 764.611 826.832, 764.670 826.066, 764.867 823.690, 765.479 823.401, 765.553 823.258, 765.958 823.185, 766.165 823.061, 766.519 823.023, 766.628 822.552, 767.967 822.346, 768.550 822.265, 768.782 823.449, 771.090 823.635, 771.452 823.814, 771.960 824.481, 773.856 824.529, 773.992 " fill="none" stroke="rgb(0, 0, 0)" stroke-linecap="butt" stroke-linejoin="round" stroke-opacity="1.0" stroke-width="3.0" />
            <path d=" M 915.764, 893.042 915.972, 892.880 916.021, 892.842 918.498, 890.920 920.804, 889.446 922.550, 887.188 924.151, 884.897 924.427, 884.243 926.522, 879.264 926.859, 878.461 927.796, 876.009 " fill="none" stroke="rgb(0, 0, 0)" stroke-linecap="butt" stroke-linejoin="round" stroke-opacity="1.0" stroke-width="3.0" />
            <path d=" M 798.977, 829.138 799.113, 829.743 800.416, 835.529 803.102, 838.006 807.533, 839.591 812.264, 840.621 813.955, 840.252 " fill="none" stroke="rgb(0, 0, 0)" stroke-linecap="butt" stroke-linejoin="round" stroke-opacity="1.0" stroke-width="3.0" />
            <path d=" M 480.938, 715.701 483.227, 715.795 488.912, 718.907 492.257, 719.492 492.853, 719.569 493.094, 719.600 493.216, 719.616 493.585, 719.663 493.901, 719.704 494.195, 719.742 495.743, 719.942 497.928, 719.736 500.961, 717.774 " fill="none" stroke="rgb(0, 0, 0)" stroke-linecap="butt" stroke-linejoin="round" stroke-opacity="1.0" stroke-width="3.0" />
            <path d=" M 689.722, 483.305 692.681, 484.835 696.122, 486.615 696.237, 486.657 699.520, 487.866 702.796, 489.050 703.108, 489.162 703.204, 489.197 703.234, 489.208 703.312, 489.236 704.553, 489.684 705.563, 490.049 705.603, 490.063 706.025, 490.216 706.835, 490.509 707.455, 490.807 709.119, 491.607 709.507, 491.793 709.570, 491.824 " fill="none" stroke="rgb(0, 0, 0)" stroke-linecap="butt" stroke-linejoin="round" stroke-opacity="1.0" stroke-width="3.0" />
            <path d=" M 670.534, 830.824 666.636, 829.279 657.583, 825.031 656.979, 824.747 650.652, 821.778 " fill="none" stroke="rgb(0, 0, 0)" stroke-linecap="butt" stroke-linejoin="round" stroke-opacity="1.0" stroke-width="3.0" />
            <path d=" M 522.378, 432.804 519.497, 430.387 519.464, 430.360 519.372, 430.283 519.263, 430.192 519.107, 430.061 519.016, 429.984 517.835, 428.993 517.735, 428.909 515.745, 427.637 511.463, 428.739 510.420, 429.258 505.656, 432.463 504.167, 434.016 " fill="none" stroke="rgb(0, 0, 0)" stroke-linecap="butt" stroke-linejoin="round" stroke-opacity="1.0" stroke-width="3.0" />
            <path d=" M 570.090, 680.038 570.229, 680.040 570.792, 680.044 570.839, 680.045 571.996, 680.055 572.538, 680.060 573.150, 680.065 573.973, 680.072 574.062, 680.073 574.063, 680.073 574.131, 680.073 574.362, 680.075 574.721, 680.078 574.807, 680.079 574.867, 680.080 575.032, 680.081 575.499, 680.085 576.852, 679.942 577.873, 678.440 578.657, 677.288 577.857, 673.499 577.780, 673.315 577.726, 673.184 577.639, 672.976 577.396, 672.392 577.361, 672.308 575.450, 667.724 574.757, 666.060 " fill="none" stroke="rgb(0, 0, 0)" stroke-linecap="butt" stroke-linejoin="round" stroke-opacity="1.0" stroke-width="3.0" />
            <path d=" M 716.453, 526.667 717.388, 528.013 718.565, 529.707 717.335, 528.105 716.487, 526.999 716.453, 526.667 716.234, 524.476 715.059, 522.606 712.230, 519.778 712.155, 519.704 711.559, 519.281 711.316, 519.109 710.968, 518.864 710.728, 518.693 710.561, 518.575 709.825, 518.047 707.116, 516.102 " fill="none" stroke="rgb(0, 0, 0)" stroke-linecap="butt" stroke-linejoin="round" stroke-opacity="1.0" stroke-width="3.0" />
            <path d=" M 672.254, 475.955 674.266, 476.803 676.633, 477.801 682.145, 480.125 688.333, 483.090 689.337, 483.571 692.681, 484.835 " fill="none" stroke="rgb(0, 0, 0)" stroke-linecap="butt" stroke-linejoin="round" stroke-opacity="1.0" stroke-width="3.0" />
            <path d=" M 882.812, 842.681 878.087, 843.901 877.985, 843.928 876.539, 844.302 873.597, 846.650 873.583, 846.662 873.465, 846.756 873.256, 846.923 873.224, 846.949 872.630, 847.422 872.622, 847.429 871.378, 848.422 871.059, 848.677 870.470, 848.910 869.949, 849.116 869.400, 849.334 868.994, 849.495 868.980, 849.500 868.342, 849.753 864.883, 851.122 862.711, 851.258 " fill="none" stroke="rgb(0, 0, 0)" stroke-linecap="butt" stroke-linejoin="round" stroke-opacity="1.0" stroke-width="3.0" />
            <path d=" M 731.052, 854.815 729.846, 856.139 729.776, 856.216 729.113, 856.942 728.918, 857.157 728.902, 857.174 726.324, 860.002 725.539, 861.944 725.302, 862.530 727.536, 871.204 727.377, 873.241 727.365, 873.405 727.354, 873.547 727.253, 874.847 " fill="none" stroke="rgb(0, 0, 0)" stroke-linecap="butt" stroke-linejoin="round" stroke-opacity="1.0" stroke-width="3.0" />
            <path d=" M 793.890, 816.503 795.224, 820.775 798.166, 825.696 801.154, 831.448 804.319, 836.198 " fill="none" stroke="rgb(0, 0, 0)" stroke-linecap="butt" stroke-linejoin="round" stroke-opacity="1.0" stroke-width="3.0" />
            <path d=" M 643.286, 453.285 643.329, 453.302 650.022, 455.935 658.673, 457.593 658.708, 457.622 659.505, 458.277 661.136, 457.368 662.124, 456.817 662.144, 456.800 663.189, 455.930 663.935, 455.308 " fill="none" stroke="rgb(0, 0, 0)" stroke-linecap="butt" stroke-linejoin="round" stroke-opacity="1.0" stroke-width="3.0" />
            <path d=" M 460.901, 488.589 460.418, 488.854 453.594, 493.448 460.901, 488.589 461.473, 488.208 465.075, 485.757 " fill="none" stroke="rgb(0, 0, 0)" stroke-linecap="butt" stroke-linejoin="round" stroke-opacity="1.0" stroke-width="3.0" />
            <path d=" M 732.297, 850.182 729.366, 846.754 724.907, 841.762 721.239, 839.761 720.950, 839.919 719.083, 841.455 719.027, 841.584 718.742, 842.240 717.976, 844.005 717.257, 845.662 " fill="none" stroke="rgb(0, 0, 0)" stroke-linecap="butt" stroke-linejoin="round" stroke-opacity="1.0" stroke-width="3.0" />
            <path d=" M 435.337, 780.731 436.480, 781.123 438.056, 781.664 438.959, 781.974 439.632, 782.205 440.478, 782.220 441.009, 782.229 441.815, 782.243 444.203, 779.984 444.738, 779.233 444.879, 776.747 438.933, 769.377 " fill="none" stroke="rgb(0, 0, 0)" stroke-linecap="butt" stroke-linejoin="round" stroke-opacity="1.0" stroke-width="3.0" />
            <path d=" M 895.302, 795.584 894.007, 803.102 893.857, 803.977 894.234, 811.328 894.301, 812.636 894.303, 812.674 894.304, 812.698 894.311, 812.840 894.346, 813.518 894.376, 814.099 894.479, 816.118 894.494, 816.411 894.577, 818.032 894.599, 818.459 " fill="none" stroke="rgb(0, 0, 0)" stroke-linecap="butt" stroke-linejoin="round" stroke-opacity="1.0" stroke-width="3.0" />
            <path d=" M 684.112, 586.545 686.334, 585.576 689.760, 584.082 691.029, 583.499 694.286, 582.001 694.710, 581.806 696.409, 580.362 697.268, 579.632 702.129, 577.525 702.454, 577.415 702.648, 577.350 703.479, 577.068 703.511, 577.057 703.986, 576.896 704.777, 576.628 " fill="none" stroke="rgb(0, 0, 0)" stroke-linecap="butt" stroke-linejoin="round" stroke-opacity="1.0" stroke-width="3.0" />
            <path d=" M 542.598, 675.519 543.470, 676.078 543.480, 676.084 545.503, 677.381 546.621, 678.098 547.536, 678.938 547.672, 679.063 547.776, 679.159 547.840, 679.218 549.266, 680.527 550.275, 681.453 551.301, 682.395 552.913, 683.195 552.976, 683.226 553.439, 683.456 553.459, 683.465 553.524, 683.498 553.844, 683.656 554.932, 684.196 554.959, 684.209 556.788, 685.116 558.045, 685.023 558.297, 685.004 558.317, 685.003 558.320, 685.003 558.395, 684.997 558.693, 684.911 560.579, 684.363 560.635, 684.347 561.468, 684.105 562.365, 683.615 " fill="none" stroke="rgb(0, 0, 0)" stroke-linecap="butt" stroke-linejoin="round" stroke-opacity="1.0" stroke-width="3.0" />
            <path d=" M 719.665, 541.092 719.045, 539.128 719.033, 539.100 717.794, 536.387 717.791, 536.381 716.589, 533.748 716.575, 533.717 716.451, 533.444 715.957, 532.362 715.382, 531.837 713.269, 529.906 713.224, 529.865 712.199, 528.928 711.957, 528.707 710.122, 527.030 710.065, 526.988 709.754, 526.756 709.706, 526.720 709.654, 526.682 709.584, 526.630 708.623, 525.914 708.623, 525.914 708.180, 525.584 707.039, 524.735 706.470, 524.311 706.460, 524.303 706.439, 524.288 705.528, 523.609 " fill="none" stroke="rgb(0, 0, 0)" stroke-linecap="butt" stroke-linejoin="round" stroke-opacity="1.0" stroke-width="3.0" />
            <path d=" M 489.808, 465.709 489.632, 466.793 489.519, 467.489 489.404, 468.195 489.379, 468.347 488.748, 472.224 488.474, 473.911 487.718, 477.474 487.607, 477.994 487.607, 477.997 487.048, 480.628 487.048, 481.677 487.048, 483.195 487.048, 483.946 487.048, 483.951 487.048, 484.032 487.048, 484.043 487.048, 484.668 487.048, 484.745 487.048, 488.259 487.048, 488.616 " fill="none" stroke="rgb(0, 0, 0)" stroke-linecap="butt" stroke-linejoin="round" stroke-opacity="1.0" stroke-width="3.0" />
            <path d=" M 584.862, 645.601 586.723, 642.683 587.688, 641.838 591.490, 637.880 594.783, 636.012 597.027, 633.185 600.210, 628.559 " fill="none" stroke="rgb(0, 0, 0)" stroke-linecap="butt" stroke-linejoin="round" stroke-opacity="1.0" stroke-width="3.0" />
            <path d=" M 877.574, 791.231 877.467, 791.177 876.027, 790.451 874.773, 792.077 874.763, 792.923 874.757, 793.423 874.707, 797.706 874.664, 801.354 874.662, 801.521 874.660, 801.638 874.656, 802.026 874.647, 802.768 874.665, 802.808 874.842, 803.193 875.432, 804.479 876.173, 806.095 876.320, 806.417 876.541, 806.898 876.573, 806.969 878.351, 810.845 " fill="none" stroke="rgb(0, 0, 0)" stroke-linecap="butt" stroke-linejoin="round" stroke-opacity="1.0" stroke-width="3.0" />
            <path d=" M 720.338, 607.943 721.576, 611.905 723.236, 617.216 725.380, 621.511 727.521, 627.569 728.338, 629.206 728.620, 629.771 " fill="none" stroke="rgb(0, 0, 0)" stroke-linecap="butt" stroke-linejoin="round" stroke-opacity="1.0" stroke-width="3.0" />
            <path d=" M 557.990, 634.730 558.349, 634.557 560.076, 633.720 560.780, 633.416 560.880, 633.373 560.983, 633.329 561.093, 633.281 561.487, 633.111 561.587, 633.067 561.676, 633.029 562.362, 632.732 562.715, 632.580 562.773, 632.555 562.894, 632.503 564.015, 632.018 564.285, 631.901 564.884, 631.643 565.174, 631.569 565.291, 631.540 565.416, 631.508 566.793, 631.159 567.072, 631.089 567.078, 631.087 567.409, 631.003 567.763, 630.914 567.656, 630.163 567.606, 630.084 567.592, 630.064 567.518, 629.948 567.287, 629.592 565.813, 627.313 565.210, 626.487 564.704, 625.794 564.685, 625.768 563.164, 623.685 563.070, 623.556 562.937, 623.375 562.817, 623.229 562.654, 623.032 562.624, 622.996 562.456, 622.792 562.447, 622.781 562.096, 622.356 561.214, 621.287 560.896, 620.902 560.642, 620.595 560.639, 620.549 560.616, 620.219 " fill="none" stroke="rgb(0, 0, 0)" stroke-linecap="butt" stroke-linejoin="round" stroke-opacity="1.0" stroke-width="3.0" />
            <path d=" M 568.177, 693.489 569.003, 692.365 570.728, 690.502 571.398, 689.778 571.440, 689.733 571.451, 689.721 571.465, 689.707 571.566, 689.597 571.896, 689.241 572.054, 689.012 572.686, 688.094 572.846, 687.862 574.153, 685.964 574.860, 684.938 574.917, 684.855 574.928, 684.840 574.930, 684.836 575.079, 684.620 575.374, 684.192 575.539, 683.953 575.841, 683.514 576.199, 682.995 576.930, 681.932 578.602, 680.001 578.697, 679.644 578.842, 679.096 580.280, 673.654 " fill="none" stroke="rgb(0, 0, 0)" stroke-linecap="butt" stroke-linejoin="round" stroke-opacity="1.0" stroke-width="3.0" />
            <path d=" M 588.182, 858.313 591.677, 860.164 593.018, 861.153 596.873, 863.996 597.533, 864.559 602.064, 868.420 605.035, 873.811 605.186, 874.086 " fill="none" stroke="rgb(0, 0, 0)" stroke-linecap="butt" stroke-linejoin="round" stroke-opacity="1.0" stroke-width="3.0" />
            <path d=" M 653.341, 475.129 654.370, 475.414 654.535, 475.459 655.384, 475.694 655.608, 475.756 655.845, 475.821 655.919, 475.842 656.443, 475.987 662.510, 477.663 663.587, 477.960 663.809, 478.021 664.810, 478.298 665.465, 478.253 665.470, 478.253 665.502, 478.250 667.370, 478.122 669.819, 477.953 670.683, 477.894 671.802, 477.747 671.962, 477.726 672.868, 477.608 674.737, 477.363 675.014, 477.427 676.633, 477.801 " fill="none" stroke="rgb(0, 0, 0)" stroke-linecap="butt" stroke-linejoin="round" stroke-opacity="1.0" stroke-width="3.0" />
            <path d=" M 800.736, 784.340 804.073, 788.780 805.656, 790.886 811.664, 798.880 815.196, 803.579 " fill="none" stroke="rgb(0, 0, 0)" stroke-linecap="butt" stroke-linejoin="round" stroke-opacity="1.0" stroke-width="3.0" />
            <path d=" M 419.367, 602.403 418.489, 606.257 417.921, 614.525 418.595, 618.555 418.819, 619.895 418.934, 620.585 419.871, 626.191 " fill="none" stroke="rgb(0, 0, 0)" stroke-linecap="butt" stroke-linejoin="round" stroke-opacity="1.0" stroke-width="3.0" />
            <path d=" M 716.948, 846.142 714.876, 848.393 714.084, 850.429 713.970, 850.721 713.690, 851.441 713.634, 851.585 711.470, 855.554 708.951, 859.562 707.972, 862.668 707.954, 863.430 707.942, 863.987 707.855, 867.818 " fill="none" stroke="rgb(0, 0, 0)" stroke-linecap="butt" stroke-linejoin="round" stroke-opacity="1.0" stroke-width="3.0" />
            <path d=" M 568.040, 696.617 569.429, 695.672 569.628, 695.601 570.858, 695.165 574.834, 693.757 575.958, 693.128 576.981, 692.554 577.570, 692.225 578.603, 691.646 580.314, 689.573 581.196, 686.275 580.048, 681.620 579.099, 680.232 " fill="none" stroke="rgb(0, 0, 0)" stroke-linecap="butt" stroke-linejoin="round" stroke-opacity="1.0" stroke-width="3.0" />
            <path d=" M 557.335, 696.133 557.442, 696.126 557.586, 696.116 557.776, 696.102 558.130, 696.077 559.401, 695.987 559.514, 695.979 559.933, 695.949 562.573, 695.762 564.538, 695.622 565.466, 695.556 565.492, 695.554 565.872, 695.527 566.362, 695.080 566.473, 694.979 567.016, 694.483 567.606, 693.944 567.722, 693.417 567.876, 692.716 567.949, 692.385 567.958, 692.346 568.040, 691.973 568.051, 691.923 568.160, 691.426 568.689, 689.026 568.700, 688.974 568.785, 688.590 568.932, 687.922 568.964, 687.777 569.131, 687.018 569.085, 686.531 569.002, 685.661 568.631, 681.727 568.554, 680.922 568.592, 680.875 568.593, 680.874 568.722, 680.714 568.735, 680.697 " fill="none" stroke="rgb(0, 0, 0)" stroke-linecap="butt" stroke-linejoin="round" stroke-opacity="1.0" stroke-width="3.0" />
            <path d=" M 521.412, 466.940 518.251, 465.039 516.284, 463.856 516.016, 463.695 515.886, 463.617 515.788, 463.558 514.728, 463.011 514.590, 462.940 514.458, 462.873 514.344, 462.814 513.754, 462.456 513.643, 462.389 511.929, 461.351 509.553, 459.912 509.182, 459.690 508.183, 459.094 507.465, 458.665 507.114, 458.456 506.803, 458.270 505.778, 457.658 500.467, 454.234 " fill="none" stroke="rgb(0, 0, 0)" stroke-linecap="butt" stroke-linejoin="round" stroke-opacity="1.0" stroke-width="3.0" />
            <path d=" M 643.027, 854.953 643.439, 855.319 644.049, 855.862 650.225, 861.359 655.001, 865.783 661.071, 871.647 " fill="none" stroke="rgb(0, 0, 0)" stroke-linecap="butt" stroke-linejoin="round" stroke-opacity="1.0" stroke-width="3.0" />
            <path d=" M 856.642, 857.868 854.576, 858.586 854.215, 858.711 853.922, 859.389 853.217, 861.024 852.424, 862.863 853.390, 866.310 854.479, 870.195 858.238, 873.971 862.404, 876.258 " fill="none" stroke="rgb(0, 0, 0)" stroke-linecap="butt" stroke-linejoin="round" stroke-opacity="1.0" stroke-width="3.0" />
            <path d=" M 699.153, 578.458 701.016, 576.067 701.427, 575.944 704.856, 574.917 707.235, 574.204 707.779, 574.042 709.405, 573.880 709.442, 573.876 711.429, 573.678 711.895, 573.632 713.729, 573.415 714.977, 573.268 715.713, 573.249 716.755, 573.221 717.973, 573.189 718.783, 572.100 719.855, 569.148 " fill="none" stroke="rgb(0, 0, 0)" stroke-linecap="butt" stroke-linejoin="round" stroke-opacity="1.0" stroke-width="3.0" />
            <path d=" M 661.493, 607.249 662.465, 607.587 662.855, 607.722 662.905, 607.740 663.594, 607.979 665.460, 608.628 665.577, 608.668 665.696, 608.662 665.704, 608.661 666.867, 608.596 668.373, 608.512 668.479, 608.506 668.510, 608.505 668.538, 608.506 668.612, 608.511 669.100, 608.541 670.120, 608.605 670.884, 608.653 671.746, 608.707 676.774, 608.116 680.340, 607.698 680.893, 607.633 680.993, 607.621 681.156, 607.602 682.292, 607.468 682.775, 607.470 684.072, 607.474 684.410, 607.475 685.677, 607.479 685.867, 607.479 685.903, 607.479 686.415, 607.481 " fill="none" stroke="rgb(0, 0, 0)" stroke-linecap="butt" stroke-linejoin="round" stroke-opacity="1.0" stroke-width="3.0" />
            <path d=" M 551.755, 697.759 556.694, 700.244 556.921, 700.359 556.993, 700.374 557.366, 700.452 558.743, 700.741 559.553, 700.911 561.404, 701.300 561.419, 701.303 562.131, 701.452 562.488, 701.527 562.528, 701.536 562.635, 701.558 563.128, 701.662 564.129, 701.685 564.977, 701.704 565.323, 701.712 565.345, 701.713 565.953, 701.727 566.110, 701.730 566.589, 700.286 566.846, 699.512 568.040, 696.617 568.214, 696.194 568.221, 696.177 568.227, 696.163 568.385, 695.779 568.332, 695.189 568.276, 694.569 568.177, 693.489 568.172, 693.423 568.090, 692.527 568.066, 692.261 568.061, 692.211 568.040, 691.973 " fill="none" stroke="rgb(0, 0, 0)" stroke-linecap="butt" stroke-linejoin="round" stroke-opacity="1.0" stroke-width="3.0" />
            <path d=" M 744.931, 708.821 745.959, 712.603 746.130, 713.111 746.684, 714.760 746.933, 715.500 746.959, 715.577 747.043, 715.829 747.226, 716.374 747.415, 716.937 747.415, 716.937 747.461, 717.072 747.498, 717.183 747.603, 717.494 748.027, 718.756 749.344, 722.190 749.429, 722.357 749.924, 723.323 754.485, 732.222 754.675, 732.593 " fill="none" stroke="rgb(0, 0, 0)" stroke-linecap="butt" stroke-linejoin="round" stroke-opacity="1.0" stroke-width="3.0" />
            <path d=" M 796.679, 757.117 796.421, 757.438 794.879, 759.356 794.631, 760.967 796.436, 765.397 797.190, 766.424 797.199, 766.436 801.001, 771.616 803.996, 774.318 805.240, 775.440 805.902, 776.236 806.431, 776.873 807.428, 778.071 " fill="none" stroke="rgb(0, 0, 0)" stroke-linecap="butt" stroke-linejoin="round" stroke-opacity="1.0" stroke-width="3.0" />
            <path d=" M 546.033, 610.806 547.914, 610.049 547.943, 610.037 548.365, 609.867 549.304, 610.179 549.995, 610.408 551.217, 610.813 551.826, 611.545 553.503, 613.561 553.651, 613.738 553.717, 613.818 553.868, 614.000 554.147, 614.335 554.263, 614.474 554.822, 615.146 554.837, 615.165 555.450, 615.900 555.483, 615.934 557.313, 617.791 558.104, 618.593 558.197, 618.654 559.642, 619.589 559.907, 619.760 559.957, 619.792 560.274, 619.998 560.616, 620.219 560.734, 620.295 560.946, 620.432 561.341, 620.688 561.985, 621.104 562.063, 621.155 562.617, 621.337 565.033, 622.130 565.161, 622.172 565.374, 622.242 566.309, 622.549 567.338, 622.694 " fill="none" stroke="rgb(0, 0, 0)" stroke-linecap="butt" stroke-linejoin="round" stroke-opacity="1.0" stroke-width="3.0" />
            <path d=" M 416.912, 684.262 415.432, 681.263 413.713, 677.199 411.963, 672.155 408.809, 667.804 406.290, 669.181 401.930, 671.357 " fill="none" stroke="rgb(0, 0, 0)" stroke-linecap="butt" stroke-linejoin="round" stroke-opacity="1.0" stroke-width="3.0" />
            <path d=" M 614.229, 735.880 614.575, 735.608 615.425, 734.942 617.982, 730.371 623.131, 724.522 629.334, 720.275 631.829, 719.103 633.238, 718.441 " fill="none" stroke="rgb(0, 0, 0)" stroke-linecap="butt" stroke-linejoin="round" stroke-opacity="1.0" stroke-width="3.0" />
            <path d=" M 538.176, 795.577 541.075, 797.726 543.997, 799.893 552.643, 804.917 554.155, 805.796 555.563, 806.645 559.782, 809.191 560.044, 809.349 560.500, 809.624 " fill="none" stroke="rgb(0, 0, 0)" stroke-linecap="butt" stroke-linejoin="round" stroke-opacity="1.0" stroke-width="3.0" />
            <path d=" M 712.746, 918.453 712.853, 918.518 713.467, 918.891 722.017, 924.077 726.224, 926.628 728.232, 927.565 729.029, 927.937 729.333, 928.117 735.481, 931.752 735.501, 931.764 735.575, 931.808 " fill="none" stroke="rgb(0, 0, 0)" stroke-linecap="butt" stroke-linejoin="round" stroke-opacity="1.0" stroke-width="3.0" />
            <path d=" M 613.830, 462.712 614.221, 463.172 617.928, 467.529 618.985, 468.771 621.134, 468.104 623.955, 467.162 629.926, 462.024 630.632, 461.416 634.118, 459.528 634.570, 459.283 " fill="none" stroke="rgb(0, 0, 0)" stroke-linecap="butt" stroke-linejoin="round" stroke-opacity="1.0" stroke-width="3.0" />
            <path d=" M 924.762, 883.025 925.496, 881.328 926.895, 878.092 926.899, 878.083 927.796, 876.009 929.847, 871.265 931.398, 867.259 932.034, 865.617 934.774, 858.538 934.843, 858.361 " fill="none" stroke="rgb(0, 0, 0)" stroke-linecap="butt" stroke-linejoin="round" stroke-opacity="1.0" stroke-width="3.0" />
            <path d=" M 437.482, 769.796 435.990, 766.172 435.309, 763.614 435.295, 763.559 434.946, 762.248 435.024, 759.719 435.033, 759.444 435.049, 758.918 434.056, 756.832 432.957, 754.526 432.191, 751.255 432.179, 744.104 " fill="none" stroke="rgb(0, 0, 0)" stroke-linecap="butt" stroke-linejoin="round" stroke-opacity="1.0" stroke-width="3.0" />
            <path d=" M 399.066, 693.054 399.138, 693.420 399.342, 694.467 399.927, 697.474 399.961, 697.698 400.163, 699.068 400.211, 699.393 401.675, 709.286 403.138, 719.178 403.184, 719.488 " fill="none" stroke="rgb(0, 0, 0)" stroke-linecap="butt" stroke-linejoin="round" stroke-opacity="1.0" stroke-width="3.0" />
            <path d=" M 451.154, 724.719 453.749, 723.690 454.851, 723.253 455.476, 722.983 455.649, 722.908 455.658, 722.904 457.968, 721.905 462.193, 720.019 463.738, 719.000 470.277, 716.567 470.492, 716.487 473.975, 715.790 474.699, 715.462 474.742, 715.448 475.601, 715.164 475.993, 715.035 " fill="none" stroke="rgb(0, 0, 0)" stroke-linecap="butt" stroke-linejoin="round" stroke-opacity="1.0" stroke-width="3.0" />
            <path d=" M 726.224, 926.628 728.446, 928.072 729.322, 928.641 731.331, 929.946 735.377, 931.749 743.056, 934.136 751.300, 935.348 " fill="none" stroke="rgb(0, 0, 0)" stroke-linecap="butt" stroke-linejoin="round" stroke-opacity="1.0" stroke-width="3.0" />
            <path d=" M 459.462, 641.492 458.124, 644.578 454.664, 650.693 449.477, 659.243 448.515, 660.829 446.794, 664.470 446.482, 665.128 " fill="none" stroke="rgb(0, 0, 0)" stroke-linecap="butt" stroke-linejoin="round" stroke-opacity="1.0" stroke-width="3.0" />
            <path d=" M 823.061, 766.519 822.888, 766.368 820.508, 764.291 819.508, 763.868 819.136, 763.711 818.511, 763.447 818.321, 763.367 817.995, 763.229 817.003, 763.043 816.095, 762.873 815.646, 763.401 814.686, 764.529 814.396, 764.870 813.858, 765.503 813.210, 766.264 813.229, 766.581 813.413, 769.677 814.553, 771.174 820.093, 778.714 " fill="none" stroke="rgb(0, 0, 0)" stroke-linecap="butt" stroke-linejoin="round" stroke-opacity="1.0" stroke-width="3.0" />
            <path d=" M 596.249, 419.653 594.977, 421.179 592.351, 424.740 589.876, 428.096 591.781, 424.172 592.221, 423.266 593.524, 420.051 595.485, 416.715 596.357, 415.230 596.717, 414.618 597.200, 413.796 597.458, 413.357 " fill="none" stroke="rgb(0, 0, 0)" stroke-linecap="butt" stroke-linejoin="round" stroke-opacity="1.0" stroke-width="3.0" />
            <path d=" M 655.045, 586.312 654.878, 588.135 653.956, 590.380 653.695, 592.215 655.094, 593.628 656.001, 593.997 656.338, 594.135 658.663, 595.083 660.976, 598.966 663.003, 600.241 664.733, 600.101 667.071, 598.867 669.843, 595.691 " fill="none" stroke="rgb(0, 0, 0)" stroke-linecap="butt" stroke-linejoin="round" stroke-opacity="1.0" stroke-width="3.0" />
            <path d=" M 540.938, 705.455 541.253, 705.386 543.136, 704.974 543.178, 704.965 543.221, 704.956 543.299, 704.939 543.586, 705.145 544.523, 705.819 549.942, 709.716 550.292, 709.968 551.890, 710.473 553.839, 711.089 555.175, 711.204 555.498, 711.215 555.735, 711.224 555.964, 711.232 555.989, 711.233 561.122, 711.419 562.843, 711.481 563.968, 710.273 564.299, 708.849 564.329, 708.721 564.334, 708.701 564.345, 708.654 564.435, 708.267 " fill="none" stroke="rgb(0, 0, 0)" stroke-linecap="butt" stroke-linejoin="round" stroke-opacity="1.0" stroke-width="3.0" />
            <path d=" M 935.840, 850.541 935.825, 850.018 935.777, 848.244 935.760, 847.656 935.601, 841.848 935.752, 836.442 935.646, 829.677 934.295, 827.608 933.497, 826.384 932.972, 823.752 " fill="none" stroke="rgb(0, 0, 0)" stroke-linecap="butt" stroke-linejoin="round" stroke-opacity="1.0" stroke-width="3.0" />
            <path d=" M 746.349, 680.285 746.801, 684.356 746.635, 686.997 746.604, 688.599 746.537, 691.987 746.417, 698.053 746.379, 703.255 746.359, 705.819 746.359, 705.877 746.359, 705.933 746.404, 706.111 746.694, 707.242 746.829, 707.771 " fill="none" stroke="rgb(0, 0, 0)" stroke-linecap="butt" stroke-linejoin="round" stroke-opacity="1.0" stroke-width="3.0" />
            <path d=" M 526.838, 771.301 522.943, 769.717 521.783, 769.300 518.790, 768.224 518.272, 768.073 516.102, 767.438 515.754, 767.336 511.495, 765.594 508.893, 765.111 506.414, 764.188 505.764, 764.085 505.753, 764.084 505.433, 764.033 503.679, 763.871 500.742, 765.375 " fill="none" stroke="rgb(0, 0, 0)" stroke-linecap="butt" stroke-linejoin="round" stroke-opacity="1.0" stroke-width="3.0" />
            <path d=" M 786.512, 804.937 787.356, 807.176 789.522, 812.921 791.803, 815.720 793.806, 818.782 794.947, 822.231 798.053, 827.755 799.113, 829.743 " fill="none" stroke="rgb(0, 0, 0)" stroke-linecap="butt" stroke-linejoin="round" stroke-opacity="1.0" stroke-width="3.0" />
            <path d=" M 898.584, 910.987 899.148, 910.102 901.456, 906.478 902.269, 904.876 902.277, 904.858 902.339, 904.736 902.941, 903.548 903.387, 902.876 906.862, 898.295 907.375, 897.674 909.739, 894.013 909.830, 893.872 910.082, 893.482 910.437, 892.863 910.612, 892.558 910.730, 892.352 910.916, 892.028 911.014, 891.857 912.332, 889.288 912.744, 887.043 " fill="none" stroke="rgb(0, 0, 0)" stroke-linecap="butt" stroke-linejoin="round" stroke-opacity="1.0" stroke-width="3.0" />
            <path d=" M 820.050, 748.977 816.926, 746.971 815.238, 746.563 814.767, 746.449 814.706, 746.435 813.708, 746.194 811.353, 746.493 811.291, 746.524 808.110, 748.093 807.676, 748.307 807.136, 748.573 804.366, 750.475 804.331, 750.499 803.784, 750.874 802.286, 751.903 798.210, 754.758 796.421, 757.438 " fill="none" stroke="rgb(0, 0, 0)" stroke-linecap="butt" stroke-linejoin="round" stroke-opacity="1.0" stroke-width="3.0" />
            <path d=" M 710.033, 681.122 712.996, 682.100 714.465, 682.584 714.938, 682.741 720.476, 684.568 725.955, 688.488 727.930, 690.157 731.491, 693.707 732.643, 695.024 733.393, 695.882 " fill="none" stroke="rgb(0, 0, 0)" stroke-linecap="butt" stroke-linejoin="round" stroke-opacity="1.0" stroke-width="3.0" />
            <path d=" M 732.168, 529.459 732.277, 529.446 732.711, 529.396 733.195, 529.192 733.698, 528.979 734.049, 528.831 734.080, 528.285 734.194, 526.232 734.956, 524.058 735.306, 523.062 735.497, 517.406 736.042, 513.716 734.651, 509.364 731.585, 504.506 731.122, 503.883 " fill="none" stroke="rgb(0, 0, 0)" stroke-linecap="butt" stroke-linejoin="round" stroke-opacity="1.0" stroke-width="3.0" />
            <path d=" M 571.983, 434.574 572.755, 436.627 572.583, 437.800 572.577, 437.840 572.544, 438.066 569.848, 440.050 566.456, 440.957 566.306, 440.997 566.063, 441.062 565.640, 441.175 565.482, 441.217 565.251, 441.354 563.983, 442.102 563.299, 442.505 562.647, 444.051 562.644, 444.057 562.492, 444.417 562.480, 444.445 561.414, 446.972 558.575, 450.803 557.296, 452.608 555.708, 454.848 " fill="none" stroke="rgb(0, 0, 0)" stroke-linecap="butt" stroke-linejoin="round" stroke-opacity="1.0" stroke-width="3.0" />
            <path d=" M 531.929, 772.991 532.023, 772.782 532.916, 771.727 533.139, 771.464 533.213, 771.376 533.829, 770.648 533.945, 770.512 534.003, 770.343 534.133, 769.965 534.144, 769.934 534.149, 769.919 534.598, 768.618 535.139, 766.543 535.373, 765.648 535.688, 764.442 534.451, 761.696 533.185, 760.552 530.960, 758.540 530.932, 758.510 530.880, 758.457 529.496, 757.022 529.469, 756.994 527.649, 755.106 526.933, 754.363 526.741, 754.165 525.868, 753.260 525.456, 752.833 525.366, 752.604 525.322, 752.491 525.205, 752.194 524.096, 749.380 " fill="none" stroke="rgb(0, 0, 0)" stroke-linecap="butt" stroke-linejoin="round" stroke-opacity="1.0" stroke-width="3.0" />
            <path d=" M 679.011, 819.376 676.510, 820.935 674.193, 822.379 671.036, 824.133 670.344, 829.301 670.534, 830.824 670.710, 832.240 670.741, 832.483 670.855, 833.400 672.684, 838.252 676.126, 842.455 " fill="none" stroke="rgb(0, 0, 0)" stroke-linecap="butt" stroke-linejoin="round" stroke-opacity="1.0" stroke-width="3.0" />
            <path d=" M 915.902, 837.188 916.223, 836.817 916.230, 836.808 916.398, 836.615 916.461, 836.542 916.497, 836.500 916.526, 836.466 917.173, 835.718 918.255, 834.466 917.818, 828.646 918.663, 822.743 918.950, 819.769 916.513, 818.465 916.348, 818.377 914.904, 819.515 913.339, 820.749 911.867, 824.563 " fill="none" stroke="rgb(0, 0, 0)" stroke-linecap="butt" stroke-linejoin="round" stroke-opacity="1.0" stroke-width="3.0" />
            <path d=" M 851.247, 853.143 850.457, 852.774 849.873, 852.502 849.869, 852.500 849.548, 852.351 848.699, 851.955 847.969, 851.615 840.812, 848.279 839.133, 847.791 838.500, 847.607 828.611, 846.120 828.454, 846.096 822.881, 846.023 " fill="none" stroke="rgb(0, 0, 0)" stroke-linecap="butt" stroke-linejoin="round" stroke-opacity="1.0" stroke-width="3.0" />
            <path d=" M 485.305, 473.894 476.415, 478.474 476.106, 478.634 471.927, 481.463 471.725, 481.600 470.092, 482.389 469.409, 482.719 467.046, 483.927 465.075, 485.757 463.656, 487.075 463.368, 487.343 460.412, 490.087 " fill="none" stroke="rgb(0, 0, 0)" stroke-linecap="butt" stroke-linejoin="round" stroke-opacity="1.0" stroke-width="3.0" />
            <path d=" M 741.632, 868.499 741.193, 869.332 740.443, 870.755 740.506, 871.498 740.520, 871.663 740.761, 874.491 740.996, 874.829 741.011, 874.852 746.648, 882.971 749.438, 884.944 753.558, 885.885 754.613, 886.126 758.114, 889.235 " fill="none" stroke="rgb(0, 0, 0)" stroke-linecap="butt" stroke-linejoin="round" stroke-opacity="1.0" stroke-width="3.0" />
            <path d=" M 890.613, 808.495 890.545, 808.305 889.947, 806.647 889.331, 804.939 889.107, 804.317 889.033, 804.112 887.629, 800.218 885.324, 797.928 882.501, 795.122 881.004, 793.634 880.698, 793.330 879.623, 792.264 879.531, 792.172 877.834, 790.988 877.577, 791.228 877.574, 791.231 877.480, 791.318 876.318, 792.401 876.250, 792.553 876.012, 793.080 875.985, 793.814 875.895, 796.290 875.875, 796.813 875.872, 796.908 875.851, 797.486 875.826, 798.164 " fill="none" stroke="rgb(0, 0, 0)" stroke-linecap="butt" stroke-linejoin="round" stroke-opacity="1.0" stroke-width="3.0" />
            <path d=" M 746.359, 705.819 745.518, 708.120 745.429, 708.365 745.313, 708.682 745.278, 708.777 745.207, 708.970 745.538, 709.506 747.355, 712.453 748.648, 714.025 748.681, 714.065 748.811, 714.223 748.920, 714.355 750.420, 716.179 752.122, 718.053 753.288, 719.337 753.734, 719.942 755.289, 722.047 757.927, 725.620 758.154, 725.927 759.169, 727.120 761.257, 729.575 761.709, 730.191 " fill="none" stroke="rgb(0, 0, 0)" stroke-linecap="butt" stroke-linejoin="round" stroke-opacity="1.0" stroke-width="3.0" />
            <path d=" M 704.763, 513.783 704.497, 513.073 703.306, 509.887 701.000, 506.304 698.564, 501.717 696.370, 498.344 695.299, 496.701 695.256, 496.635 695.070, 496.349 695.036, 496.297 694.915, 496.111 694.431, 495.368 694.313, 495.188 693.833, 494.451 692.802, 493.299 692.730, 493.218 691.668, 492.032 688.496, 488.490 " fill="none" stroke="rgb(0, 0, 0)" stroke-linecap="butt" stroke-linejoin="round" stroke-opacity="1.0" stroke-width="3.0" />
            <path d=" M 696.498, 834.334 696.820, 830.008 695.387, 822.351 693.793, 818.370 689.899, 815.738 688.160, 815.802 685.851, 818.723 684.570, 820.724 683.833, 821.877 " fill="none" stroke="rgb(0, 0, 0)" stroke-linecap="butt" stroke-linejoin="round" stroke-opacity="1.0" stroke-width="3.0" />
            <path d=" M 538.274, 407.247 535.782, 408.937 528.456, 415.735 523.324, 421.738 519.320, 428.552 517.835, 428.993 " fill="none" stroke="rgb(0, 0, 0)" stroke-linecap="butt" stroke-linejoin="round" stroke-opacity="1.0" stroke-width="3.0" />
            <path d=" M 660.229, 581.502 660.781, 582.084 660.923, 582.234 661.321, 582.653 661.728, 583.082 663.023, 586.934 663.862, 588.706 663.928, 588.847 663.975, 588.945 664.304, 589.640 664.744, 590.570 664.766, 590.616 665.198, 591.530 669.843, 595.691 670.522, 596.300 671.719, 597.372 672.043, 597.571 674.119, 598.529 674.155, 598.518 674.216, 598.498 675.003, 598.246 677.567, 596.473 677.756, 596.342 678.288, 595.974 678.298, 595.967 678.464, 595.852 678.560, 595.758 678.586, 595.733 680.474, 593.888 680.747, 593.622 " fill="none" stroke="rgb(0, 0, 0)" stroke-linecap="butt" stroke-linejoin="round" stroke-opacity="1.0" stroke-width="3.0" />
            <path d=" M 498.152, 717.402 500.961, 717.774 502.227, 717.942 504.333, 717.572 508.912, 715.599 511.085, 714.487 512.860, 712.964 513.226, 712.594 513.769, 711.309 514.776, 708.926 515.842, 706.402 518.263, 704.321 523.254, 701.908 " fill="none" stroke="rgb(0, 0, 0)" stroke-linecap="butt" stroke-linejoin="round" stroke-opacity="1.0" stroke-width="3.0" />
            <path d=" M 650.526, 431.706 649.673, 431.330 642.906, 427.314 634.484, 421.922 633.242, 421.127 624.201, 416.853 623.371, 416.460 622.190, 416.182 " fill="none" stroke="rgb(0, 0, 0)" stroke-linecap="butt" stroke-linejoin="round" stroke-opacity="1.0" stroke-width="3.0" />
            <path d=" M 882.010, 846.371 878.371, 847.742 878.364, 847.745 873.978, 849.397 873.764, 849.478 873.708, 849.499 873.423, 849.606 871.207, 850.441 870.371, 850.756 869.616, 851.040 869.443, 851.105 869.021, 851.264 868.579, 851.264 868.160, 851.263 867.402, 851.262 867.307, 851.262 862.711, 851.258 857.487, 851.252 853.393, 851.839 851.160, 852.449 850.637, 852.691 " fill="none" stroke="rgb(0, 0, 0)" stroke-linecap="butt" stroke-linejoin="round" stroke-opacity="1.0" stroke-width="3.0" />
            <path d=" M 435.148, 546.776 435.282, 546.969 436.026, 548.040 436.245, 548.356 436.488, 548.704 437.164, 549.679 437.193, 549.721 437.204, 549.736 437.692, 550.439 437.695, 550.442 437.813, 550.613 437.820, 550.631 437.829, 550.655 437.853, 550.717 438.182, 551.589 438.391, 552.143 438.449, 552.297 439.555, 555.229 442.408, 558.431 442.493, 558.526 442.839, 558.914 443.851, 560.644 443.897, 560.723 444.444, 561.657 444.452, 561.671 445.720, 563.838 448.145, 566.727 450.979, 570.570 453.905, 573.369 " fill="none" stroke="rgb(0, 0, 0)" stroke-linecap="butt" stroke-linejoin="round" stroke-opacity="1.0" stroke-width="3.0" />
            <path d=" M 757.301, 741.572 758.829, 745.330 760.954, 750.556 761.575, 752.062 764.707, 758.794 764.924, 759.504 765.491, 761.366 766.559, 763.859 766.888, 766.655 767.998, 770.102 768.877, 772.540 " fill="none" stroke="rgb(0, 0, 0)" stroke-linecap="butt" stroke-linejoin="round" stroke-opacity="1.0" stroke-width="3.0" />
            <path d=" M 631.829, 719.103 632.995, 719.045 634.859, 718.054 637.015, 717.136 638.162, 716.595 639.692, 716.174 641.585, 715.313 642.508, 714.330 643.999, 712.444 644.314, 712.036 645.729, 709.502 647.068, 706.386 649.437, 696.621 649.901, 693.702 " fill="none" stroke="rgb(0, 0, 0)" stroke-linecap="butt" stroke-linejoin="round" stroke-opacity="1.0" stroke-width="3.0" />
            <path d=" M 469.110, 786.671 470.433, 786.961 475.259, 788.021 484.363, 792.157 485.684, 792.757 495.544, 792.648 498.569, 792.272 501.528, 790.231 " fill="none" stroke="rgb(0, 0, 0)" stroke-linecap="butt" stroke-linejoin="round" stroke-opacity="1.0" stroke-width="3.0" />
            <path d=" M 927.179, 869.947 928.563, 864.130 930.834, 854.588 931.715, 848.191 933.208, 842.001 934.036, 839.166 934.535, 837.459 934.854, 836.364 " fill="none" stroke="rgb(0, 0, 0)" stroke-linecap="butt" stroke-linejoin="round" stroke-opacity="1.0" stroke-width="3.0" />
            <path d=" M 687.137, 902.040 688.765, 905.004 688.773, 905.020 689.887, 907.048 691.293, 909.606 693.652, 912.476 698.664, 916.309 699.772, 917.886 701.811, 920.010 707.161, 920.847 711.603, 922.269 712.617, 922.651 " fill="none" stroke="rgb(0, 0, 0)" stroke-linecap="butt" stroke-linejoin="round" stroke-opacity="1.0" stroke-width="3.0" />
            <path d=" M 707.317, 580.119 709.814, 584.076 710.327, 585.424 710.833, 586.756 712.829, 590.275 713.404, 591.497 716.435, 597.756 719.358, 605.945 719.858, 607.289 721.576, 611.905 " fill="none" stroke="rgb(0, 0, 0)" stroke-linecap="butt" stroke-linejoin="round" stroke-opacity="1.0" stroke-width="3.0" />
            <path d=" M 718.224, 479.957 717.947, 478.412 717.946, 478.406 717.939, 478.367 717.701, 477.036 716.819, 472.112 713.228, 462.779 712.036, 459.679 708.186, 452.775 707.011, 451.576 704.688, 449.203 704.112, 448.614 " fill="none" stroke="rgb(0, 0, 0)" stroke-linecap="butt" stroke-linejoin="round" stroke-opacity="1.0" stroke-width="3.0" />
            <path d=" M 418.132, 632.332 417.574, 637.988 418.616, 644.022 418.973, 647.105 419.165, 650.333 420.969, 657.937 422.132, 664.616 422.611, 667.365 " fill="none" stroke="rgb(0, 0, 0)" stroke-linecap="butt" stroke-linejoin="round" stroke-opacity="1.0" stroke-width="3.0" />
            <path d=" M 764.924, 759.504 764.959, 761.000 764.405, 764.494 765.145, 767.852 767.631, 772.086 771.425, 777.665 773.762, 782.336 775.185, 786.292 778.507, 790.574 779.259, 791.543 " fill="none" stroke="rgb(0, 0, 0)" stroke-linecap="butt" stroke-linejoin="round" stroke-opacity="1.0" stroke-width="3.0" />
            <path d=" M 701.462, 550.887 701.946, 551.103 702.560, 551.375 703.060, 551.598 703.181, 551.652 703.251, 551.683 703.421, 551.758 703.440, 551.767 703.542, 551.812 703.867, 551.957 704.165, 552.089 704.901, 552.417 705.942, 552.880 705.951, 552.884 707.407, 553.532 707.511, 553.578 707.612, 553.623 707.697, 553.661 708.136, 553.856 708.520, 554.027 708.993, 554.237 709.383, 554.461 711.540, 555.693 712.217, 556.081 712.475, 556.228 712.629, 556.316 713.587, 556.864 715.747, 558.098 716.981, 558.803 718.873, 558.112 719.582, 557.810 719.741, 557.742 720.263, 557.520 721.088, 557.024 721.255, 556.924 721.389, 556.844 721.480, 556.788 721.935, 555.856 721.975, 555.774 721.979, 555.763 722.052, 555.541 722.141, 555.270 722.213, 555.053 722.638, 553.761 722.643, 553.747 722.636, 553.726 721.632, 550.549 721.369, 549.718 721.240, 549.309 721.223, 549.255 720.080, 545.639 720.008, 545.409 719.962, 545.264 719.917, 545.123 719.769, 544.655 719.499, 543.801 719.444, 543.626 719.412, 543.525 " fill="none" stroke="rgb(0, 0, 0)" stroke-linecap="butt" stroke-linejoin="round" stroke-opacity="1.0" stroke-width="3.0" />
            <path d=" M 612.486, 704.037 612.255, 696.379 612.252, 696.274 612.202, 694.618 612.189, 694.183 612.145, 692.733 612.592, 691.680 612.691, 691.447 613.937, 688.514 616.250, 685.364 620.342, 682.761 621.849, 681.802 624.318, 681.892 626.501, 681.971 626.678, 681.978 626.961, 682.006 627.407, 682.050 629.082, 682.216 631.800, 682.485 " fill="none" stroke="rgb(0, 0, 0)" stroke-linecap="butt" stroke-linejoin="round" stroke-opacity="1.0" stroke-width="3.0" />
            <path d=" M 791.444, 748.911 784.704, 749.146 783.405, 749.929 780.616, 751.609 780.586, 751.627 780.016, 753.247 779.676, 754.213 779.589, 754.458 779.594, 757.574 779.930, 758.304 780.980, 760.590 781.178, 760.917 782.197, 762.600 784.889, 765.830 785.657, 766.363 787.265, 767.479 788.199, 767.895 789.146, 768.175 790.219, 768.492 791.062, 768.742 792.533, 769.176 793.645, 769.505 " fill="none" stroke="rgb(0, 0, 0)" stroke-linecap="butt" stroke-linejoin="round" stroke-opacity="1.0" stroke-width="3.0" />
            <path d=" M 496.977, 439.909 494.474, 441.621 493.661, 442.177 492.536, 442.992 490.532, 445.816 490.431, 451.237 488.447, 454.906 488.799, 459.976 489.695, 464.147 489.897, 465.086 489.904, 465.121 489.941, 465.294 490.052, 465.810 490.084, 465.960 490.192, 466.458 490.365, 467.264 490.377, 467.322 490.412, 467.484 490.967, 469.873 491.263, 471.145 491.309, 471.346 491.321, 471.396 491.322, 471.403 491.382, 471.660 491.562, 472.435 491.606, 472.625 491.640, 472.770 491.649, 472.809 491.798, 473.450 491.803, 473.474 " fill="none" stroke="rgb(0, 0, 0)" stroke-linecap="butt" stroke-linejoin="round" stroke-opacity="1.0" stroke-width="3.0" />
            <path d=" M 660.267, 569.203 661.756, 569.867 662.957, 570.403 663.483, 570.638 664.121, 570.923 664.974, 571.303 666.408, 573.302 666.427, 573.328 666.463, 573.379 666.826, 573.884 667.181, 575.012 667.183, 575.019 667.272, 575.303 667.523, 576.101 667.525, 576.106 668.790, 580.127 670.021, 581.641 670.483, 582.209 670.594, 582.345 671.282, 583.192 671.597, 583.578 671.849, 583.833 672.373, 584.362 674.440, 586.446 674.478, 586.485 674.497, 586.504 675.020, 587.031 675.157, 587.170 675.905, 587.924 678.891, 589.875 679.904, 589.450 680.835, 589.059 680.934, 589.017 681.621, 588.729 682.232, 588.472 684.938, 587.041 686.334, 585.576 " fill="none" stroke="rgb(0, 0, 0)" stroke-linecap="butt" stroke-linejoin="round" stroke-opacity="1.0" stroke-width="3.0" />
            <path d=" M 656.167, 488.680 656.938, 488.925 658.722, 489.494 658.839, 489.531 659.262, 489.781 667.872, 494.867 668.105, 495.004 671.263, 496.870 672.668, 497.699 673.001, 497.896 673.172, 497.997 673.280, 498.025 673.503, 498.084 673.946, 498.199 674.526, 498.350 675.148, 498.512 675.158, 498.515 675.176, 498.520 675.363, 498.568 675.393, 498.576 676.221, 498.792 676.421, 498.844 676.728, 498.924 677.274, 499.067 677.775, 499.197 678.100, 499.282 678.286, 499.330 678.299, 499.338 682.712, 502.086 685.803, 501.327 685.747, 499.001 685.262, 496.762 " fill="none" stroke="rgb(0, 0, 0)" stroke-linecap="butt" stroke-linejoin="round" stroke-opacity="1.0" stroke-width="3.0" />
            <path d=" M 626.112, 630.130 628.180, 632.166 630.185, 634.140 631.555, 635.489 634.092, 637.986 635.427, 639.020 638.803, 641.835 639.164, 642.265 643.104, 646.959 647.657, 650.968 649.063, 651.663 649.783, 650.765 649.536, 649.840 647.847, 646.013 " fill="none" stroke="rgb(0, 0, 0)" stroke-linecap="butt" stroke-linejoin="round" stroke-opacity="1.0" stroke-width="3.0" />
            <path d=" M 725.041, 861.551 724.406, 861.897 724.039, 862.097 720.973, 863.768 719.503, 864.865 719.092, 865.512 718.107, 867.064 718.051, 867.151 716.787, 871.829 718.104, 875.782 718.121, 875.835 718.210, 876.102 718.374, 876.593 718.679, 877.508 719.340, 878.310 720.109, 879.243 721.276, 880.658 722.780, 882.481 724.984, 884.208 731.625, 886.473 733.220, 887.668 " fill="none" stroke="rgb(0, 0, 0)" stroke-linecap="butt" stroke-linejoin="round" stroke-opacity="1.0" stroke-width="3.0" />
            <path d=" M 567.156, 489.785 570.838, 491.765 570.875, 491.785 573.323, 492.846 575.370, 493.734 577.904, 494.476 577.943, 494.487 580.145, 495.132 583.326, 496.063 587.506, 496.767 589.911, 494.244 590.091, 494.054 590.647, 493.472 591.259, 492.829 591.575, 492.497 598.473, 485.258 599.021, 484.683 " fill="none" stroke="rgb(0, 0, 0)" stroke-linecap="butt" stroke-linejoin="round" stroke-opacity="1.0" stroke-width="3.0" />
            <path d=" M 682.775, 607.470 683.937, 607.762 684.114, 607.806 684.682, 607.948 685.946, 608.266 686.157, 608.319 687.414, 610.864 687.139, 611.988 687.448, 612.867 687.880, 614.092 688.541, 615.968 688.555, 616.010 688.775, 616.634 689.881, 617.671 689.991, 617.775 690.147, 617.921 690.300, 618.065 693.094, 620.687 693.638, 620.972 693.766, 621.040 695.187, 621.314 695.742, 621.422 696.046, 621.481 696.749, 621.617 697.277, 621.417 697.500, 621.333 697.761, 621.235 698.554, 620.936 699.064, 620.744 699.917, 620.422 699.943, 620.412 699.957, 620.407 700.826, 620.079 706.138, 617.386 710.906, 613.759 " fill="none" stroke="rgb(0, 0, 0)" stroke-linecap="butt" stroke-linejoin="round" stroke-opacity="1.0" stroke-width="3.0" />
            <path d=" M 670.755, 696.862 671.943, 697.036 680.070, 698.228 683.463, 697.952 684.070, 697.757 686.098, 697.093 689.247, 694.682 691.464, 692.536 696.633, 686.075 698.760, 681.415 699.568, 679.331 699.627, 679.086 " fill="none" stroke="rgb(0, 0, 0)" stroke-linecap="butt" stroke-linejoin="round" stroke-opacity="1.0" stroke-width="3.0" />
            <path d=" M 605.049, 624.405 606.099, 624.355 607.936, 622.889 612.189, 619.098 613.742, 617.383 613.836, 617.287 614.360, 616.749 614.536, 616.569 616.195, 614.868 617.553, 613.476 618.859, 612.744 619.119, 612.598 620.954, 611.569 626.477, 609.207 630.497, 607.873 630.808, 607.770 631.708, 607.472 631.753, 607.457 631.928, 607.399 632.263, 607.288 632.484, 607.214 632.559, 607.190 637.423, 606.515 637.904, 606.448 " fill="none" stroke="rgb(0, 0, 0)" stroke-linecap="butt" stroke-linejoin="round" stroke-opacity="1.0" stroke-width="3.0" />
            <path d=" M 566.784, 622.364 567.338, 622.694 569.866, 624.201 570.141, 624.365 570.864, 624.796 572.150, 625.562 572.242, 625.617 572.271, 625.635 575.652, 627.650 576.840, 627.718 576.902, 627.722 577.087, 627.542 580.497, 624.232 580.690, 624.045 581.720, 623.045 581.644, 622.337 581.532, 621.276 581.412, 620.148 581.184, 618.004 580.277, 615.616 580.229, 615.490 579.277, 612.983 579.131, 612.679 579.046, 612.500 578.767, 611.914 578.490, 611.333 578.460, 611.270 578.026, 610.360 578.025, 610.358 577.866, 610.026 577.686, 609.648 577.629, 609.528 577.530, 609.320 575.733, 605.114 575.227, 603.929 " fill="none" stroke="rgb(0, 0, 0)" stroke-linecap="butt" stroke-linejoin="round" stroke-opacity="1.0" stroke-width="3.0" />
            <path d=" M 785.828, 738.854 783.497, 733.290 781.536, 730.698 779.597, 729.029 778.203, 727.830 775.308, 726.184 775.057, 726.148 771.794, 725.687 768.328, 725.197 766.701, 725.441 763.758, 725.882 762.524, 728.477 761.709, 730.191 761.698, 730.214 761.466, 731.048 761.013, 732.680 760.366, 735.008 760.270, 735.870 " fill="none" stroke="rgb(0, 0, 0)" stroke-linecap="butt" stroke-linejoin="round" stroke-opacity="1.0" stroke-width="3.0" />
            <path d=" M 677.292, 593.856 677.758, 593.824 678.647, 593.764 678.805, 593.753 679.212, 593.726 679.428, 593.711 680.301, 593.652 680.747, 593.622 680.880, 593.613 683.162, 592.625 684.875, 590.498 685.480, 589.747 690.354, 586.676 694.754, 583.904 695.920, 583.506 697.335, 583.023 701.993, 580.536 702.840, 580.462 703.011, 580.447 703.273, 580.424 704.392, 580.326 705.441, 580.234 705.521, 580.227 705.897, 580.194 705.993, 580.186 706.667, 580.127 707.317, 580.119 707.435, 580.117 708.290, 580.107 709.820, 580.089 710.284, 578.243 710.656, 576.761 " fill="none" stroke="rgb(0, 0, 0)" stroke-linecap="butt" stroke-linejoin="round" stroke-opacity="1.0" stroke-width="3.0" />
            <path d=" M 701.490, 655.279 701.898, 650.837 702.295, 646.512 704.151, 639.386 704.730, 635.296 706.324, 631.298 707.941, 625.550 707.633, 624.527 706.161, 622.884 702.765, 622.612 701.479, 622.508 699.398, 621.616 " fill="none" stroke="rgb(0, 0, 0)" stroke-linecap="butt" stroke-linejoin="round" stroke-opacity="1.0" stroke-width="3.0" />
            <path d=" M 674.840, 495.369 675.158, 495.561 677.402, 496.917 683.515, 500.610 684.668, 500.903 684.904, 499.259 684.996, 498.617 685.262, 496.762 685.267, 496.732 685.245, 496.682 684.093, 494.046 683.933, 493.681 683.547, 492.797 683.538, 492.777 681.379, 487.838 680.269, 485.296 675.409, 480.772 672.451, 479.291 669.875, 478.002 " fill="none" stroke="rgb(0, 0, 0)" stroke-linecap="butt" stroke-linejoin="round" stroke-opacity="1.0" stroke-width="3.0" />
            <path d=" M 634.752, 683.310 637.578, 685.599 640.515, 688.497 642.000, 689.521 646.780, 692.817 647.800, 693.518 649.901, 693.702 655.203, 694.167 663.094, 695.931 669.193, 696.954 670.916, 697.061 671.943, 697.036 " fill="none" stroke="rgb(0, 0, 0)" stroke-linecap="butt" stroke-linejoin="round" stroke-opacity="1.0" stroke-width="3.0" />
            <path d=" M 689.758, 902.181 690.288, 902.789 690.492, 903.023 694.991, 908.181 696.593, 910.018 697.312, 910.552 697.425, 910.636 697.813, 910.925 697.924, 911.007 698.728, 911.605 698.865, 911.707 698.945, 911.767 701.750, 913.852 703.416, 915.091 703.753, 915.307 705.506, 916.428 706.273, 916.920 708.005, 918.028 708.166, 918.131 708.794, 918.422 709.659, 918.824 711.207, 919.763 711.358, 919.854 712.773, 920.713 716.979, 923.264 717.257, 923.433 721.712, 924.971 723.064, 925.524 " fill="none" stroke="rgb(0, 0, 0)" stroke-linecap="butt" stroke-linejoin="round" stroke-opacity="1.0" stroke-width="3.0" />
            <path d=" M 866.303, 934.190 867.806, 933.619 871.635, 932.164 880.216, 928.482 881.891, 927.197 887.028, 923.204 893.410, 917.620 894.872, 916.170 898.373, 913.179 899.124, 910.524 899.148, 910.102 " fill="none" stroke="rgb(0, 0, 0)" stroke-linecap="butt" stroke-linejoin="round" stroke-opacity="1.0" stroke-width="3.0" />
            <path d=" M 831.383, 753.043 830.935, 752.499 828.087, 749.182 820.642, 748.568 820.050, 748.977 818.192, 750.263 818.184, 750.268 817.957, 750.425 817.307, 750.875 816.959, 751.116 816.335, 751.548 813.525, 752.100 810.409, 752.713 809.754, 752.842 808.369, 753.115 806.435, 754.916 805.981, 755.339 801.665, 757.340 801.493, 757.499 800.553, 758.369 799.808, 759.057 800.873, 762.666 800.968, 762.988 801.301, 764.119 801.350, 764.286 801.531, 764.899 " fill="none" stroke="rgb(0, 0, 0)" stroke-linecap="butt" stroke-linejoin="round" stroke-opacity="1.0" stroke-width="3.0" />
            <path d=" M 536.574, 580.987 538.725, 583.142 539.139, 583.557 540.097, 584.517 543.209, 585.846 547.365, 586.371 549.532, 587.824 552.691, 591.296 556.573, 595.561 560.818, 597.801 561.122, 597.962 561.540, 598.182 564.091, 599.529 565.193, 600.084 570.843, 601.654 570.991, 601.695 571.542, 601.848 572.665, 601.406 " fill="none" stroke="rgb(0, 0, 0)" stroke-linecap="butt" stroke-linejoin="round" stroke-opacity="1.0" stroke-width="3.0" />
            <path d=" M 717.216, 645.630 711.477, 653.820 707.980, 658.810 702.097, 666.897 701.541, 667.663 701.255, 668.045 696.788, 674.010 696.437, 675.423 696.904, 678.156 699.627, 679.086 700.607, 679.420 701.064, 679.576 " fill="none" stroke="rgb(0, 0, 0)" stroke-linecap="butt" stroke-linejoin="round" stroke-opacity="1.0" stroke-width="3.0" />
            <path d=" M 809.015, 866.845 811.164, 868.241 815.604, 871.125 817.562, 872.218 817.612, 872.245 819.494, 873.296 827.536, 877.754 836.565, 882.052 837.816, 882.648 837.842, 882.660 839.034, 883.061 839.102, 883.084 839.443, 883.199 843.309, 884.500 843.532, 884.575 848.152, 886.129 " fill="none" stroke="rgb(0, 0, 0)" stroke-linecap="butt" stroke-linejoin="round" stroke-opacity="1.0" stroke-width="3.0" />
            <path d=" M 446.794, 664.470 446.037, 665.321 441.560, 668.013 439.221, 669.895 436.978, 671.895 434.140, 673.829 432.034, 675.944 429.963, 677.666 426.267, 680.682 426.164, 680.766 426.092, 680.825 425.274, 681.493 422.599, 682.960 420.259, 684.268 418.417, 685.056 417.836, 685.507 417.661, 685.642 415.919, 686.990 413.213, 688.324 411.738, 689.328 411.206, 689.690 " fill="none" stroke="rgb(0, 0, 0)" stroke-linecap="butt" stroke-linejoin="round" stroke-opacity="1.0" stroke-width="3.0" />
            <path d=" M 785.657, 766.363 791.576, 774.423 793.623, 777.211 798.930, 784.146 799.015, 784.258 804.882, 791.926 806.156, 793.378 806.412, 793.670 806.543, 793.819 806.617, 793.903 806.759, 794.065 809.886, 797.629 812.999, 801.177 " fill="none" stroke="rgb(0, 0, 0)" stroke-linecap="butt" stroke-linejoin="round" stroke-opacity="1.0" stroke-width="3.0" />
            <path d=" M 453.594, 493.448 451.318, 495.645 449.394, 498.156 445.034, 503.880 440.170, 511.823 435.922, 518.967 431.345, 525.476 427.936, 528.321 427.225, 528.914 " fill="none" stroke="rgb(0, 0, 0)" stroke-linecap="butt" stroke-linejoin="round" stroke-opacity="1.0" stroke-width="3.0" />
            <path d=" M 869.785, 771.552 867.815, 769.895 863.471, 765.843 858.539, 762.829 857.258, 762.822 856.123, 764.144 854.776, 765.845 854.191, 766.584 853.233, 768.683 855.989, 776.107 856.896, 778.552 856.925, 778.675 856.931, 778.699 857.323, 780.367 857.420, 780.779 858.760, 786.474 858.765, 786.495 858.874, 786.959 859.271, 788.643 859.273, 788.654 859.444, 789.381 859.485, 789.552 " fill="none" stroke="rgb(0, 0, 0)" stroke-linecap="butt" stroke-linejoin="round" stroke-opacity="1.0" stroke-width="3.0" />
            <path d=" M 574.426, 659.308 578.647, 658.461 579.001, 658.390 579.558, 657.842 581.367, 656.064 582.093, 655.350 586.140, 652.139 586.975, 649.885 584.862, 645.601 584.282, 644.426 584.193, 644.246 584.190, 644.238 583.574, 643.418 579.556, 638.063 577.275, 636.172 567.948, 632.567 567.163, 632.263 566.954, 632.182 566.940, 632.177 566.523, 632.016 565.461, 631.606 " fill="none" stroke="rgb(0, 0, 0)" stroke-linecap="butt" stroke-linejoin="round" stroke-opacity="1.0" stroke-width="3.0" />
            <path d=" M 931.688, 825.101 931.436, 822.527 931.506, 822.244 932.083, 819.907 932.145, 819.659 932.405, 818.321 932.507, 815.574 931.137, 811.621 930.597, 810.061 929.072, 806.295 927.968, 804.310 925.462, 802.925 923.702, 803.432 921.576, 804.242 919.672, 805.418 917.743, 807.056 915.889, 811.434 915.465, 814.057 914.904, 819.515 " fill="none" stroke="rgb(0, 0, 0)" stroke-linecap="butt" stroke-linejoin="round" stroke-opacity="1.0" stroke-width="3.0" />
            <path d=" M 672.106, 539.391 672.133, 539.461 672.407, 540.165 672.484, 540.362 674.580, 545.744 676.320, 549.970 676.801, 551.139 677.068, 551.429 679.882, 554.483 680.395, 555.039 681.745, 555.879 682.404, 556.279 686.596, 558.822 688.683, 560.088 688.772, 560.142 689.445, 560.550 689.585, 560.627 689.800, 560.745 690.705, 561.240 691.297, 560.889 691.959, 560.497 692.144, 560.387 692.338, 560.273 693.320, 559.690 694.680, 558.884 694.895, 558.791 696.604, 558.055 696.648, 558.036 696.947, 557.907 697.341, 557.738 697.450, 557.691 697.661, 557.600 698.492, 557.242 698.894, 556.013 699.223, 555.010 699.335, 554.669 700.168, 552.128 700.275, 551.804 700.504, 551.626 701.462, 550.887 701.468, 550.882 701.953, 550.508 " fill="none" stroke="rgb(0, 0, 0)" stroke-linecap="butt" stroke-linejoin="round" stroke-opacity="1.0" stroke-width="3.0" />
            <path d=" M 586.590, 444.199 584.335, 443.846 583.571, 443.726 583.534, 443.720 582.834, 443.611 581.577, 443.414 579.607, 444.279 579.366, 444.386 578.362, 444.844 578.356, 444.847 576.524, 445.683 576.420, 445.731 576.212, 445.826 576.072, 445.890 575.887, 445.978 575.297, 446.259 575.164, 446.321 574.982, 446.405 573.810, 446.948 573.722, 446.989 573.711, 446.994 571.780, 447.890 570.792, 448.348 569.325, 449.149 569.278, 449.174 568.489, 449.605 567.321, 450.243 567.224, 450.296 566.541, 450.668 565.262, 451.367 565.230, 451.384 565.174, 451.415 565.056, 451.479 562.165, 453.057 562.073, 453.099 561.995, 453.135 561.616, 453.308 561.484, 453.368 554.117, 456.739 549.923, 458.658 549.871, 458.682 549.759, 458.733 548.517, 459.301 547.941, 459.706 545.488, 461.429 544.443, 462.163 " fill="none" stroke="rgb(0, 0, 0)" stroke-linecap="butt" stroke-linejoin="round" stroke-opacity="1.0" stroke-width="3.0" />
            <path d=" M 761.442, 653.712 761.473, 652.556 761.213, 646.640 761.409, 637.905 761.215, 632.315 760.859, 625.918 760.533, 623.297 759.014, 620.405 756.775, 618.990 754.449, 618.013 749.837, 616.455 746.083, 616.820 744.462, 617.457 " fill="none" stroke="rgb(0, 0, 0)" stroke-linecap="butt" stroke-linejoin="round" stroke-opacity="1.0" stroke-width="3.0" />
            <path d=" M 718.742, 842.240 717.973, 841.875 715.743, 841.828 710.854, 845.366 709.368, 847.249 707.635, 849.445 705.333, 852.360 704.448, 853.328 701.690, 856.343 699.844, 862.527 701.283, 865.005 701.872, 865.981 704.604, 870.503 705.047, 871.237 704.372, 870.386 703.433, 869.201 701.543, 865.686 699.844, 862.527 " fill="none" stroke="rgb(0, 0, 0)" stroke-linecap="butt" stroke-linejoin="round" stroke-opacity="1.0" stroke-width="3.0" />
            <path d=" M 738.517, 654.499 739.981, 659.237 740.147, 659.839 741.022, 663.003 742.160, 667.848 743.543, 672.833 745.441, 677.097 746.349, 680.285 748.041, 686.221 748.426, 689.265 748.907, 693.065 749.243, 695.712 749.487, 697.638 749.730, 699.558 749.725, 701.801 749.722, 703.294 " fill="none" stroke="rgb(0, 0, 0)" stroke-linecap="butt" stroke-linejoin="round" stroke-opacity="1.0" stroke-width="3.0" />
            <path d=" M 541.750, 849.167 550.578, 850.944 553.931, 851.379 562.272, 852.479 572.125, 854.186 573.847, 854.484 583.596, 856.710 584.581, 856.935 588.182, 858.313 591.539, 859.598 " fill="none" stroke="rgb(0, 0, 0)" stroke-linecap="butt" stroke-linejoin="round" stroke-opacity="1.0" stroke-width="3.0" />
            <path d=" M 629.926, 462.024 630.272, 461.832 634.340, 459.570 635.025, 459.190 635.065, 459.160 635.241, 459.025 635.492, 458.833 638.369, 456.633 638.408, 456.603 638.921, 456.211 640.841, 454.743 641.091, 454.552 643.276, 453.291 643.286, 453.285 643.857, 452.955 644.023, 452.860 647.669, 450.918 648.054, 450.469 648.855, 449.140 646.235, 442.447 645.756, 441.225 641.948, 437.227 636.199, 432.974 635.183, 432.222 634.115, 431.675 634.087, 431.661 628.978, 429.045 " fill="none" stroke="rgb(0, 0, 0)" stroke-linecap="butt" stroke-linejoin="round" stroke-opacity="1.0" stroke-width="3.0" />
            <path d=" M 811.291, 746.524 808.922, 744.172 803.454, 741.654 799.903, 738.807 795.915, 736.457 793.727, 736.401 792.896, 736.380 792.890, 736.380 792.048, 736.358 791.374, 736.341 787.576, 738.449 782.779, 741.420 778.684, 744.301 776.515, 748.116 776.463, 748.208 776.466, 748.295 776.467, 748.328 776.600, 752.166 779.557, 757.724 779.930, 758.304 " fill="none" stroke="rgb(0, 0, 0)" stroke-linecap="butt" stroke-linejoin="round" stroke-opacity="1.0" stroke-width="3.0" />
            <path d=" M 854.776, 765.845 854.048, 765.670 848.692, 763.219 843.426, 758.991 842.198, 759.303 842.083, 759.333 841.004, 759.910 839.174, 760.890 839.155, 760.900 837.587, 762.280 838.237, 767.638 838.465, 769.518 839.193, 772.384 839.318, 773.446 839.438, 774.472 839.558, 775.496 839.564, 775.553 839.572, 775.619 839.950, 778.848 840.019, 779.436 840.021, 779.448 840.071, 781.740 840.077, 782.006 840.097, 782.908 842.597, 787.578 842.829, 787.965 843.012, 788.171 843.271, 788.463 845.311, 790.763 845.801, 791.314 846.565, 793.625 " fill="none" stroke="rgb(0, 0, 0)" stroke-linecap="butt" stroke-linejoin="round" stroke-opacity="1.0" stroke-width="3.0" />
            <path d=" M 582.597, 393.281 580.050, 391.910 575.376, 390.783 567.541, 389.997 560.843, 389.133 558.229, 390.573 554.447, 392.460 552.356, 395.018 548.808, 397.408 545.550, 400.037 542.833, 402.434 539.881, 404.134 538.274, 407.247 537.004, 409.708 " fill="none" stroke="rgb(0, 0, 0)" stroke-linecap="butt" stroke-linejoin="round" stroke-opacity="1.0" stroke-width="3.0" />
            <path d=" M 647.664, 649.011 647.665, 646.409 647.847, 646.013 648.067, 645.536 648.304, 643.770 647.784, 641.149 647.466, 637.613 647.976, 634.709 648.374, 632.119 648.784, 630.739 648.937, 630.081 649.405, 628.074 649.461, 627.833 649.631, 627.104 650.641, 624.708 651.202, 623.376 651.380, 622.953 651.409, 621.440 652.468, 619.721 652.822, 617.885 652.410, 615.964 651.995, 611.752 650.399, 609.615 649.840, 608.539 649.685, 608.241 649.682, 608.235 649.486, 607.858 649.140, 607.191 649.090, 607.093 648.555, 606.064 648.373, 605.658 647.641, 604.023 647.152, 602.462 645.930, 599.758 645.805, 599.482 644.914, 597.512 644.517, 596.864 " fill="none" stroke="rgb(0, 0, 0)" stroke-linecap="butt" stroke-linejoin="round" stroke-opacity="1.0" stroke-width="3.0" />
            <path d=" M 590.518, 493.047 590.983, 492.612 591.303, 492.313 595.231, 488.639 599.021, 484.683 604.605, 482.834 608.811, 479.451 615.774, 472.274 616.307, 471.725 616.976, 471.035 614.041, 465.871 610.490, 464.182 609.240, 463.588 609.155, 463.548 608.507, 463.240 608.427, 463.202 607.500, 462.761 607.378, 462.703 607.370, 462.699 607.341, 462.685 607.333, 462.682 604.030, 461.111 599.603, 459.600 " fill="none" stroke="rgb(0, 0, 0)" stroke-linecap="butt" stroke-linejoin="round" stroke-opacity="1.0" stroke-width="3.0" />
            <path d=" M 705.441, 580.234 706.515, 583.557 707.444, 586.433 709.002, 596.311 709.154, 597.273 710.024, 604.636 710.620, 611.784 710.906, 613.759 712.342, 623.655 712.403, 624.072 712.869, 630.236 715.008, 636.951 715.312, 637.904 " fill="none" stroke="rgb(0, 0, 0)" stroke-linecap="butt" stroke-linejoin="round" stroke-opacity="1.0" stroke-width="3.0" />
            <path d=" M 656.979, 824.747 649.757, 820.732 641.297, 815.400 640.768, 815.067 635.152, 812.802 631.348, 810.645 627.054, 809.376 621.392, 806.728 614.385, 804.228 611.046, 803.172 606.314, 802.029 603.363, 801.317 " fill="none" stroke="rgb(0, 0, 0)" stroke-linecap="butt" stroke-linejoin="round" stroke-opacity="1.0" stroke-width="3.0" />
            <path d=" M 788.489, 854.410 782.640, 852.636 773.175, 849.409 772.816, 849.287 770.942, 851.795 769.817, 856.121 769.849, 856.201 770.971, 859.026 776.688, 867.231 779.204, 870.842 782.138, 875.053 782.783, 875.627 784.843, 877.459 786.706, 878.881 790.651, 879.619 791.035, 879.675 792.931, 879.951 " fill="none" stroke="rgb(0, 0, 0)" stroke-linecap="butt" stroke-linejoin="round" stroke-opacity="1.0" stroke-width="3.0" />
            <path d=" M 496.148, 736.065 488.515, 741.811 488.173, 742.069 484.199, 744.683 476.772, 748.130 470.728, 750.296 470.545, 750.361 469.540, 750.721 468.859, 750.958 468.688, 751.017 467.763, 751.338 467.549, 751.412 467.490, 751.433 461.033, 753.674 461.028, 753.675 451.500, 756.710 451.253, 756.788 446.445, 758.201 442.297, 759.023 " fill="none" stroke="rgb(0, 0, 0)" stroke-linecap="butt" stroke-linejoin="round" stroke-opacity="1.0" stroke-width="3.0" />
            <path d=" M 680.140, 533.820 682.653, 536.416 682.892, 536.663 684.689, 537.992 685.038, 538.251 685.274, 538.409 692.284, 543.107 694.430, 545.034 695.645, 546.125 696.478, 546.872 697.665, 547.132 699.476, 547.527 699.511, 547.535 699.528, 547.538 700.926, 547.844 701.606, 547.992 701.897, 548.056 701.963, 548.045 704.470, 546.210 704.278, 543.707 704.128, 541.748 704.118, 541.612 704.092, 541.507 704.064, 541.393 703.851, 540.523 703.842, 540.487 703.672, 539.793 703.597, 539.485 702.469, 534.879 702.424, 534.488 702.376, 534.058 701.994, 530.680 699.263, 524.734 699.078, 524.331 698.958, 524.070 698.737, 523.590 698.231, 522.489 696.059, 520.985 695.845, 520.837 693.674, 519.334 " fill="none" stroke="rgb(0, 0, 0)" stroke-linecap="butt" stroke-linejoin="round" stroke-opacity="1.0" stroke-width="3.0" />
            <path d=" M 458.242, 587.528 458.375, 588.102 458.895, 590.339 459.952, 594.891 461.081, 599.749 462.149, 604.407 462.559, 614.399 462.601, 615.429 462.583, 621.889 462.360, 628.679 462.314, 630.080 461.673, 632.515 459.943, 639.086 459.462, 641.492 458.420, 646.716 " fill="none" stroke="rgb(0, 0, 0)" stroke-linecap="butt" stroke-linejoin="round" stroke-opacity="1.0" stroke-width="3.0" />
            <path d=" M 708.335, 836.815 705.724, 834.675 702.114, 832.793 697.900, 833.738 696.498, 834.334 695.714, 834.667 695.697, 834.675 693.108, 835.775 692.632, 836.020 690.616, 839.303 687.382, 843.135 686.279, 846.608 686.362, 850.523 688.943, 856.679 689.200, 857.277 693.797, 862.284 695.323, 864.254 698.638, 867.731 703.418, 869.900 704.233, 870.315 704.372, 870.386 " fill="none" stroke="rgb(0, 0, 0)" stroke-linecap="butt" stroke-linejoin="round" stroke-opacity="1.0" stroke-width="3.0" />
            <path d=" M 795.769, 942.312 796.832, 942.426 799.949, 942.760 806.991, 943.024 811.636, 942.780 820.278, 942.545 825.392, 942.400 832.595, 941.406 839.419, 940.214 849.360, 939.128 853.316, 938.696 857.342, 937.319 " fill="none" stroke="rgb(0, 0, 0)" stroke-linecap="butt" stroke-linejoin="round" stroke-opacity="1.0" stroke-width="3.0" />
            <path d=" M 815.238, 746.563 809.343, 739.296 802.876, 731.669 802.744, 731.514 798.047, 725.709 791.755, 717.936 790.832, 716.796 785.337, 710.199 781.321, 703.722 781.320, 703.719 781.295, 703.679 777.376, 697.356 " fill="none" stroke="rgb(0, 0, 0)" stroke-linecap="butt" stroke-linejoin="round" stroke-opacity="1.0" stroke-width="3.0" />
            <path d=" M 769.849, 856.201 763.262, 852.286 761.128, 850.927 756.147, 850.856 754.421, 852.582 754.358, 853.421 754.075, 857.147 756.952, 863.086 758.237, 865.741 758.374, 866.051 758.547, 866.445 758.697, 866.784 758.788, 866.990 762.017, 874.317 762.948, 876.429 765.423, 879.949 767.759, 882.261 770.007, 883.482 773.099, 884.759 774.518, 885.458 775.693, 886.037 776.655, 886.512 778.244, 887.295 " fill="none" stroke="rgb(0, 0, 0)" stroke-linecap="butt" stroke-linejoin="round" stroke-opacity="1.0" stroke-width="3.0" />
            <path d=" M 905.229, 906.347 908.525, 905.881 910.032, 904.842 912.553, 903.023 915.112, 900.269 915.918, 899.402 918.450, 896.678 918.906, 896.057 922.906, 890.620 926.265, 886.054 928.113, 882.294 930.597, 876.243 932.377, 872.481 934.471, 864.800 935.741, 858.986 935.917, 853.608 " fill="none" stroke="rgb(0, 0, 0)" stroke-linecap="butt" stroke-linejoin="round" stroke-opacity="1.0" stroke-width="3.0" />
            <path d=" M 912.866, 823.482 911.867, 824.563 907.233, 829.582 904.520, 832.108 904.231, 832.377 904.214, 832.393 904.141, 832.461 904.057, 832.540 903.915, 832.671 903.175, 835.316 902.119, 839.089 899.773, 840.855 899.077, 840.910 897.093, 841.554 892.336, 845.816 890.431, 847.795 890.430, 847.796 890.312, 847.918 890.073, 848.167 888.141, 850.174 880.694, 852.643 880.612, 852.670 879.277, 853.639 879.165, 853.720 879.077, 853.784 877.266, 855.099 876.168, 855.896 876.097, 855.948 875.187, 856.608 875.148, 856.636 874.895, 856.820 874.523, 857.245 873.969, 857.877 872.823, 859.183 872.811, 859.197 872.768, 859.245 872.664, 859.209 872.543, 859.167 872.521, 859.160 872.350, 859.100 871.621, 858.847 871.619, 858.846 866.413, 857.039 864.027, 857.472 863.580, 857.553 " fill="none" stroke="rgb(0, 0, 0)" stroke-linecap="butt" stroke-linejoin="round" stroke-opacity="1.0" stroke-width="3.0" />
            <path d=" M 672.496, 518.625 672.615, 518.695 675.094, 520.147 680.250, 523.168 681.102, 523.667 681.580, 523.948 681.767, 524.057 681.903, 524.137 682.752, 524.634 684.320, 525.705 684.362, 525.734 685.540, 526.539 685.576, 526.563 686.400, 527.126 686.475, 527.177 688.123, 528.303 690.138, 529.680 691.821, 529.776 693.364, 529.865 694.934, 529.956 696.047, 528.853 696.446, 526.782 694.458, 521.439 694.193, 520.728 693.674, 519.334 692.477, 516.118 690.836, 512.833 690.766, 512.694 689.905, 510.970 688.176, 507.510 682.713, 502.965 680.311, 501.548 679.195, 500.890 678.565, 500.519 678.485, 500.471 676.647, 499.387 676.482, 499.290 676.206, 499.127 675.424, 498.666 675.341, 498.617 675.176, 498.520 " fill="none" stroke="rgb(0, 0, 0)" stroke-linecap="butt" stroke-linejoin="round" stroke-opacity="1.0" stroke-width="3.0" />
            <path d=" M 640.912, 850.505 642.798, 852.511 647.094, 857.077 647.717, 857.739 649.146, 859.258 649.743, 859.893 651.973, 861.881 659.226, 868.765 659.425, 868.954 663.176, 872.514 667.557, 877.047 669.509, 879.066 676.034, 885.490 683.394, 892.261 684.985, 893.725 686.563, 895.177 686.909, 895.495 688.338, 896.809 " fill="none" stroke="rgb(0, 0, 0)" stroke-linecap="butt" stroke-linejoin="round" stroke-opacity="1.0" stroke-width="3.0" />
            <path d=" M 589.239, 795.830 586.318, 794.568 580.706, 792.470 578.880, 791.788 577.076, 790.756 573.602, 789.282 572.947, 789.012 569.330, 787.519 566.398, 786.234 563.782, 785.101 561.826, 784.254 561.704, 784.193 559.359, 783.023 555.918, 781.306 552.857, 780.204 550.888, 779.495 550.879, 779.492 548.194, 778.525 544.308, 777.039 543.144, 776.587 539.738, 775.264 536.680, 774.568 532.972, 773.338 531.929, 772.991 526.838, 771.301 525.796, 770.956 " fill="none" stroke="rgb(0, 0, 0)" stroke-linecap="butt" stroke-linejoin="round" stroke-opacity="1.0" stroke-width="3.0" />
            <path d=" M 495.844, 771.119 495.828, 771.061 496.230, 769.223 496.482, 769.008 496.758, 768.772 496.949, 768.610 500.198, 765.839 500.742, 765.375 500.241, 765.864 497.105, 768.929 496.880, 769.148 496.722, 769.303 496.189, 769.823 495.844, 771.119 495.678, 771.745 495.618, 772.439 496.746, 774.153 501.144, 776.248 501.837, 776.370 503.269, 776.624 505.245, 777.859 507.768, 778.680 515.167, 782.169 518.239, 783.938 519.153, 784.464 519.824, 784.851 526.872, 789.100 529.133, 790.463 533.720, 793.453 541.075, 797.726 " fill="none" stroke="rgb(0, 0, 0)" stroke-linecap="butt" stroke-linejoin="round" stroke-opacity="1.0" stroke-width="3.0" />
            <path d=" M 488.771, 468.809 486.183, 471.318 485.305, 473.894 485.119, 474.438 484.272, 475.826 483.579, 480.056 483.445, 480.907 483.351, 481.499 483.247, 482.156 483.247, 482.159 482.697, 485.631 482.691, 485.666 482.181, 488.893 482.176, 488.998 482.171, 489.137 482.116, 490.446 482.114, 490.499 482.105, 490.717 482.061, 491.773 481.647, 501.681 480.049, 508.874 479.991, 509.137 479.084, 513.219 478.686, 521.910 478.682, 522.001 478.640, 522.912 479.358, 532.886 479.722, 537.945 " fill="none" stroke="rgb(0, 0, 0)" stroke-linecap="butt" stroke-linejoin="round" stroke-opacity="1.0" stroke-width="3.0" />
            <path d=" M 551.447, 505.776 551.657, 506.355 552.059, 507.468 552.107, 507.599 552.176, 507.790 552.387, 508.375 553.438, 511.282 553.747, 512.136 557.566, 517.651 563.926, 523.093 564.052, 523.201 565.931, 524.810 566.721, 525.399 566.745, 525.417 574.758, 531.400 575.326, 531.823 578.280, 531.435 580.554, 528.462 580.750, 527.690 579.870, 519.295 576.547, 509.863 576.034, 508.406 575.127, 506.793 572.497, 502.119 572.225, 501.635 572.097, 501.408 " fill="none" stroke="rgb(0, 0, 0)" stroke-linecap="butt" stroke-linejoin="round" stroke-opacity="1.0" stroke-width="3.0" />
            <path d=" M 555.563, 806.645 554.165, 807.456 545.278, 812.041 540.880, 814.310 536.569, 816.909 530.899, 820.718 526.825, 824.646 525.379, 827.342 524.815, 831.062 524.658, 833.835 524.747, 834.253 525.689, 837.500 526.865, 842.708 531.029, 846.183 540.030, 849.069 541.750, 849.167 545.877, 849.402 " fill="none" stroke="rgb(0, 0, 0)" stroke-linecap="butt" stroke-linejoin="round" stroke-opacity="1.0" stroke-width="3.0" />
            <path d=" M 894.007, 803.102 890.409, 799.199 889.269, 790.551 885.102, 782.552 879.524, 775.401 876.395, 772.593 869.975, 770.155 869.785, 771.552 869.105, 776.561 869.338, 783.427 869.492, 788.281 869.546, 789.973 869.546, 789.994 869.549, 790.064 869.549, 790.076 869.550, 790.121 869.554, 790.164 869.637, 791.277 869.847, 794.096 870.245, 795.010 871.462, 797.807 871.715, 798.390 871.759, 798.490 872.773, 800.822 " fill="none" stroke="rgb(0, 0, 0)" stroke-linecap="butt" stroke-linejoin="round" stroke-opacity="1.0" stroke-width="3.0" />
            <path d=" M 666.889, 557.408 667.069, 557.823 667.218, 558.167 667.225, 558.183 668.082, 560.161 668.482, 561.084 668.553, 561.247 668.636, 561.440 669.509, 563.455 670.553, 565.863 671.573, 567.288 671.623, 567.358 671.720, 567.494 672.090, 568.011 672.099, 568.023 673.752, 570.333 673.800, 570.400 674.213, 570.977 675.327, 572.534 675.405, 572.592 676.863, 573.670 677.527, 574.161 678.526, 574.899 678.622, 574.970 678.626, 574.974 678.895, 575.172 679.266, 575.447 679.909, 575.922 679.921, 575.931 680.212, 576.147 680.371, 576.264 682.273, 576.809 682.382, 576.840 683.127, 577.053 687.110, 575.156 692.221, 572.948 695.926, 571.347 698.056, 569.728 698.129, 569.673 699.137, 568.906 699.346, 568.747 700.024, 568.522 701.325, 568.090 702.724, 567.626 703.581, 567.341 706.978, 567.011 707.781, 567.340 708.468, 567.621 708.732, 567.730 712.720, 569.365 715.206, 569.366 717.208, 569.368 718.448, 569.369 719.855, 569.148 721.466, 568.895 722.238, 567.661 722.643, 567.013 723.188, 560.472 722.391, 556.489 722.197, 555.542 " fill="none" stroke="rgb(0, 0, 0)" stroke-linecap="butt" stroke-linejoin="round" stroke-opacity="1.0" stroke-width="3.0" />
            <path d=" M 412.315, 537.107 411.123, 537.938 407.382, 541.485 402.300, 545.407 397.722, 550.152 394.212, 554.553 392.838, 557.111 391.543, 559.775 389.749, 565.014 389.254, 570.776 389.536, 577.084 390.010, 584.986 390.096, 589.299 391.608, 594.394 392.295, 598.420 394.182, 599.788 398.086, 601.084 398.512, 601.061 402.203, 598.844 404.718, 598.465 408.333, 597.941 409.053, 597.836 " fill="none" stroke="rgb(0, 0, 0)" stroke-linecap="butt" stroke-linejoin="round" stroke-opacity="1.0" stroke-width="3.0" />
            <path d=" M 572.947, 789.012 576.921, 788.517 582.334, 787.247 586.353, 785.900 592.570, 783.075 593.289, 782.584 596.976, 779.598 604.028, 772.508 604.978, 771.553 605.272, 771.308 606.133, 766.338 605.800, 764.091 603.665, 754.342 603.218, 748.554 603.210, 748.448 603.189, 748.362 603.162, 748.245 603.052, 747.774 600.779, 738.036 600.131, 735.261 597.542, 728.190 597.316, 727.775 593.836, 721.388 " fill="none" stroke="rgb(0, 0, 0)" stroke-linecap="butt" stroke-linejoin="round" stroke-opacity="1.0" stroke-width="3.0" />
            <path d=" M 392.783, 713.750 392.124, 715.347 391.864, 717.489 391.486, 719.711 391.104, 721.974 391.400, 726.108 391.291, 729.454 392.087, 733.725 395.031, 741.637 397.453, 747.055 402.216, 755.401 404.593, 758.930 410.219, 766.165 415.372, 771.034 418.528, 773.345 424.225, 777.022 432.130, 780.749 438.026, 783.576 440.857, 784.729 " fill="none" stroke="rgb(0, 0, 0)" stroke-linecap="butt" stroke-linejoin="round" stroke-opacity="1.0" stroke-width="3.0" />
            <path d=" M 823.422, 846.118 822.881, 846.023 813.599, 844.391 806.371, 843.441 801.296, 841.750 793.820, 839.959 786.660, 837.934 778.915, 837.220 776.376, 839.398 777.965, 845.889 785.737, 852.182 788.489, 854.410 789.373, 855.125 797.773, 860.551 799.978, 861.976 803.923, 864.102 804.244, 864.274 809.015, 866.845 810.770, 867.791 " fill="none" stroke="rgb(0, 0, 0)" stroke-linecap="butt" stroke-linejoin="round" stroke-opacity="1.0" stroke-width="3.0" />
            <path d=" M 931.137, 811.621 931.146, 811.228 930.826, 805.206 928.389, 795.508 927.400, 791.570 924.027, 782.156 922.816, 778.778 921.093, 775.483 917.511, 769.290 910.973, 765.111 907.941, 763.351 901.820, 760.397 900.505, 760.308 898.105, 761.014 896.041, 761.805 894.096, 765.926 894.949, 773.137 895.345, 783.129 895.424, 785.119 895.307, 795.118 895.302, 795.584 895.276, 797.857 " fill="none" stroke="rgb(0, 0, 0)" stroke-linecap="butt" stroke-linejoin="round" stroke-opacity="1.0" stroke-width="3.0" />
            <path d=" M 635.025, 847.999 636.662, 849.421 638.254, 850.805 640.133, 852.438 643.022, 854.949 643.027, 854.953 642.852, 854.838 635.860, 850.255 634.206, 849.269 633.728, 848.983 630.372, 846.980 621.785, 841.855 621.363, 841.603 618.613, 839.962 617.518, 839.376 608.700, 834.660 606.277, 833.364 601.819, 831.307 595.662, 827.833 586.589, 823.627 584.582, 822.696 575.601, 818.299 574.497, 817.758 565.657, 813.083 563.880, 812.143 560.500, 809.624 560.086, 809.315 559.838, 809.131 556.769, 806.843 " fill="none" stroke="rgb(0, 0, 0)" stroke-linecap="butt" stroke-linejoin="round" stroke-opacity="1.0" stroke-width="3.0" />
            <path d=" M 662.144, 456.800 663.131, 457.095 663.515, 457.209 669.664, 456.508 671.093, 455.247 671.625, 454.777 672.407, 453.032 671.295, 451.170 671.284, 451.151 671.277, 451.139 670.810, 450.357 668.842, 446.695 667.113, 444.659 661.574, 438.137 657.490, 434.775 655.640, 433.252 652.747, 432.267 650.526, 431.706 647.159, 430.856 646.575, 430.708 645.580, 430.457 645.567, 430.454 641.600, 429.452 639.391, 427.669 636.445, 425.644 630.754, 423.409 623.112, 416.960 622.298, 416.274 622.244, 416.228 622.190, 416.182 621.828, 415.877 620.257, 414.042 614.858, 408.987 610.654, 405.596 601.351, 401.926 599.539, 401.211 595.000, 400.107 591.083, 399.154 " fill="none" stroke="rgb(0, 0, 0)" stroke-linecap="butt" stroke-linejoin="round" stroke-opacity="1.0" stroke-width="3.0" />
            <path d=" M 705.228, 489.397 705.234, 489.400 705.549, 489.576 707.324, 490.568 709.125, 491.575 709.507, 491.788 709.570, 491.824 709.586, 491.832 711.449, 492.874 711.738, 493.035 713.044, 493.765 716.380, 495.629 719.342, 496.208 721.431, 497.876 721.497, 497.928 721.956, 498.295 722.552, 498.771 722.828, 498.991 724.615, 500.416 725.565, 501.175 726.744, 501.749 726.877, 501.814 727.548, 502.141 731.122, 503.883 733.105, 504.849 734.121, 502.924 732.634, 498.984 725.715, 491.764 724.608, 490.609 721.881, 487.834 719.615, 485.529 719.492, 485.404 717.605, 483.484 716.178, 481.742 715.553, 480.978 714.556, 479.760 714.319, 479.471 714.285, 479.430 714.002, 479.084 713.901, 478.961 713.239, 478.152 713.063, 477.938 712.417, 477.148 706.213, 471.387 699.358, 465.527 696.042, 462.692 690.716, 458.879 690.654, 458.835 689.859, 458.266 681.728, 452.445 681.608, 452.359 675.959, 449.196 674.830, 448.563 672.393, 447.199 670.507, 446.291 667.113, 444.659 " fill="none" stroke="rgb(0, 0, 0)" stroke-linecap="butt" stroke-linejoin="round" stroke-opacity="1.0" stroke-width="3.0" />
            <path d=" M 780.523, 701.982 776.515, 692.820 772.685, 684.066 768.486, 674.990 767.054, 671.897 764.129, 662.607 761.442, 653.712 761.403, 653.584 758.554, 646.785 754.757, 637.534 753.780, 635.153 750.731, 628.616 745.886, 619.868 745.280, 618.775 744.462, 617.457 739.336, 609.196 736.579, 604.774 734.495, 601.373 730.078, 594.750 726.732, 589.974 726.159, 589.248 722.595, 584.728 720.951, 582.611 717.814, 578.256 716.211, 576.392 " fill="none" stroke="rgb(0, 0, 0)" stroke-linecap="butt" stroke-linejoin="round" stroke-opacity="1.0" stroke-width="3.0" />
            <path d=" M 540.344, 568.254 542.628, 570.319 542.982, 570.638 545.473, 572.890 549.581, 577.947 552.339, 581.343 553.351, 582.581 555.425, 585.115 555.932, 585.547 556.067, 585.662 557.556, 586.931 561.428, 589.869 561.464, 589.905 562.453, 590.920 562.702, 591.176 563.001, 591.484 563.209, 591.696 564.844, 593.375 564.854, 593.386 571.086, 599.785 571.554, 600.265 572.665, 601.406 573.702, 602.471 573.734, 602.503 575.227, 603.929 576.702, 605.338 580.376, 608.847 581.157, 609.593 581.434, 609.857 581.488, 609.909 581.674, 610.087 582.305, 610.689 583.285, 611.625 584.234, 612.532 585.917, 614.139 587.852, 616.178 591.202, 619.709 594.672, 622.079 600.168, 621.035 602.349, 616.659 601.272, 613.815 600.923, 612.894 600.850, 612.701 600.732, 612.391 599.569, 609.333 599.316, 608.667 599.245, 608.479 599.228, 608.435 599.151, 608.233 599.103, 608.106 599.103, 608.106 599.007, 607.854 598.971, 607.759 598.927, 607.644 598.569, 606.702 597.797, 604.672 596.541, 602.035 596.238, 601.398 591.939, 592.370 591.485, 591.418 588.326, 584.313 588.292, 584.236 584.229, 575.098 580.166, 565.961 578.836, 562.970 578.749, 562.844 574.674, 556.934 570.343, 550.653 566.774, 544.986 564.448, 542.471 563.970, 541.954 562.665, 540.544 " fill="none" stroke="rgb(0, 0, 0)" stroke-linecap="butt" stroke-linejoin="round" stroke-opacity="1.0" stroke-width="3.0" />
        </g>
    </g>
</svg>
