<?xml version='1.0' encoding='ascii'?>
<svg xmlns="http://www.w3.org/2000/svg" height="1280" version="1.1" width="1280">
    <g id="RenderLayer_LineSet" inkscape:groupmode="lineset" inkscape:label="RenderLayer_LineSet" xmlns:inkscape="http://www.inkscape.org/namespaces/inkscape">
        <g id="strokes" inkscape:groupmode="layer" inkscape:label="strokes" xmlns:inkscape="http://www.inkscape.org/namespaces/inkscape">
            <path d=" M 513.739, 671.065 517.962, 666.981 521.814, 664.872 525.890, 663.555 531.528, 663.468 " fill="none" stroke="rgb(0, 0, 0)" stroke-linecap="butt" stroke-linejoin="round" stroke-opacity="1.0" stroke-width="3.0" />
            <path d=" M 650.672, 996.462 651.866, 992.966 657.917, 988.169 661.115, 987.745 662.755, 987.528 662.769, 987.526 663.602, 987.415 666.815, 986.989 " fill="none" stroke="rgb(0, 0, 0)" stroke-linecap="butt" stroke-linejoin="round" stroke-opacity="1.0" stroke-width="3.0" />
            <path d=" M 696.700, 820.228 702.113, 816.125 707.806, 813.823 709.930, 810.564 711.345, 807.122 " fill="none" stroke="rgb(0, 0, 0)" stroke-linecap="butt" stroke-linejoin="round" stroke-opacity="1.0" stroke-width="3.0" />
            <path d=" M 637.809, 841.363 639.606, 841.560 642.130, 841.837 642.211, 841.846 643.871, 842.029 644.367, 842.718 645.218, 843.901 645.260, 843.958 645.295, 844.142 645.704, 846.277 646.178, 848.757 649.307, 848.028 652.608, 845.518 " fill="none" stroke="rgb(0, 0, 0)" stroke-linecap="butt" stroke-linejoin="round" stroke-opacity="1.0" stroke-width="3.0" />
            <path d=" M 427.909, 1006.769 430.055, 1010.202 431.652, 1013.653 437.034, 1022.043 438.058, 1023.656 438.803, 1024.572 " fill="none" stroke="rgb(0, 0, 0)" stroke-linecap="butt" stroke-linejoin="round" stroke-opacity="1.0" stroke-width="3.0" />
            <path d=" M 516.405, 881.651 513.383, 882.757 510.073, 882.313 505.418, 883.061 505.350, 883.072 505.035, 883.123 504.951, 882.972 503.681, 880.699 503.897, 880.447 504.204, 880.090 504.513, 879.730 505.335, 878.772 505.602, 878.461 507.932, 875.746 " fill="none" stroke="rgb(0, 0, 0)" stroke-linecap="butt" stroke-linejoin="round" stroke-opacity="1.0" stroke-width="3.0" />
            <path d=" M 494.838, 971.721 495.914, 972.955 498.245, 975.629 499.201, 976.833 504.864, 983.962 507.154, 988.746 " fill="none" stroke="rgb(0, 0, 0)" stroke-linecap="butt" stroke-linejoin="round" stroke-opacity="1.0" stroke-width="3.0" />
            <path d=" M 805.922, 432.739 805.919, 433.640 805.918, 433.917 805.901, 439.022 805.886, 443.466 806.279, 451.783 806.509, 454.125 " fill="none" stroke="rgb(0, 0, 0)" stroke-linecap="butt" stroke-linejoin="round" stroke-opacity="1.0" stroke-width="3.0" />
            <path d=" M 656.020, 496.606 655.709, 496.417 654.162, 494.914 652.615, 492.076 652.154, 488.450 652.966, 484.940 653.821, 480.923 654.895, 476.711 " fill="none" stroke="rgb(0, 0, 0)" stroke-linecap="butt" stroke-linejoin="round" stroke-opacity="1.0" stroke-width="3.0" />
            <path d=" M 777.883, 378.779 772.328, 385.739 766.982, 390.376 761.819, 392.470 " fill="none" stroke="rgb(0, 0, 0)" stroke-linecap="butt" stroke-linejoin="round" stroke-opacity="1.0" stroke-width="3.0" />
            <path d=" M 772.564, 722.610 772.547, 723.196 772.542, 723.370 772.515, 724.260 772.257, 733.001 771.718, 739.706 771.252, 743.902 771.226, 744.138 " fill="none" stroke="rgb(0, 0, 0)" stroke-linecap="butt" stroke-linejoin="round" stroke-opacity="1.0" stroke-width="3.0" />
            <path d=" M 468.061, 1056.243 467.215, 1061.497 467.125, 1062.057 466.938, 1063.221 466.875, 1063.611 468.897, 1069.303 471.116, 1073.279 472.124, 1075.826 472.423, 1076.582 " fill="none" stroke="rgb(0, 0, 0)" stroke-linecap="butt" stroke-linejoin="round" stroke-opacity="1.0" stroke-width="3.0" />
            <path d=" M 729.802, 359.797 733.085, 360.103 734.723, 360.255 739.653, 361.812 744.756, 363.135 750.439, 365.998 " fill="none" stroke="rgb(0, 0, 0)" stroke-linecap="butt" stroke-linejoin="round" stroke-opacity="1.0" stroke-width="3.0" />
            <path d=" M 783.171, 818.435 784.833, 821.121 784.893, 821.218 785.155, 821.640 785.159, 821.693 785.196, 822.173 785.974, 832.143 786.087, 833.603 786.832, 839.577 " fill="none" stroke="rgb(0, 0, 0)" stroke-linecap="butt" stroke-linejoin="round" stroke-opacity="1.0" stroke-width="3.0" />
            <path d=" M 673.798, 585.836 670.524, 591.007 669.749, 594.963 670.995, 597.803 674.207, 602.048 675.711, 603.687 675.528, 604.659 " fill="none" stroke="rgb(0, 0, 0)" stroke-linecap="butt" stroke-linejoin="round" stroke-opacity="1.0" stroke-width="3.0" />
            <path d=" M 519.697, 882.011 517.092, 883.385 512.529, 884.267 511.985, 884.372 511.083, 884.547 510.581, 884.644 509.487, 884.960 509.096, 885.178 508.791, 885.349 508.488, 885.518 506.754, 886.486 506.719, 886.505 506.688, 886.523 506.546, 886.602 506.526, 886.613 502.914, 889.408 502.380, 889.889 500.584, 891.503 " fill="none" stroke="rgb(0, 0, 0)" stroke-linecap="butt" stroke-linejoin="round" stroke-opacity="1.0" stroke-width="3.0" />
            <path d=" M 482.365, 942.173 480.476, 947.115 478.096, 952.896 477.953, 953.186 477.928, 953.237 475.376, 958.412 473.007, 961.405 472.678, 961.820 " fill="none" stroke="rgb(0, 0, 0)" stroke-linecap="butt" stroke-linejoin="round" stroke-opacity="1.0" stroke-width="3.0" />
            <path d=" M 758.651, 969.970 762.926, 965.795 764.152, 964.597 766.598, 962.207 768.461, 958.601 769.506, 954.923 769.134, 953.671 768.855, 952.732 768.717, 952.268 768.635, 951.993 " fill="none" stroke="rgb(0, 0, 0)" stroke-linecap="butt" stroke-linejoin="round" stroke-opacity="1.0" stroke-width="3.0" />
            <path d=" M 852.645, 443.423 851.679, 433.470 851.506, 431.685 849.348, 421.920 849.272, 421.576 " fill="none" stroke="rgb(0, 0, 0)" stroke-linecap="butt" stroke-linejoin="round" stroke-opacity="1.0" stroke-width="3.0" />
            <path d=" M 586.105, 558.995 587.540, 554.123 587.758, 553.659 588.026, 553.090 588.147, 552.833 589.133, 550.735 589.116, 549.024 587.619, 546.146 587.577, 546.065 586.971, 546.017 586.919, 546.013 585.197, 545.876 583.930, 545.776 582.258, 545.643 580.339, 545.828 580.291, 545.833 579.282, 545.930 " fill="none" stroke="rgb(0, 0, 0)" stroke-linecap="butt" stroke-linejoin="round" stroke-opacity="1.0" stroke-width="3.0" />
            <path d=" M 777.531, 894.535 778.193, 903.292 779.394, 905.907 780.909, 909.205 780.972, 909.342 780.622, 910.562 780.530, 910.882 780.383, 912.648 780.372, 912.784 780.095, 916.125 " fill="none" stroke="rgb(0, 0, 0)" stroke-linecap="butt" stroke-linejoin="round" stroke-opacity="1.0" stroke-width="3.0" />
            <path d=" M 784.285, 630.322 780.889, 636.354 780.435, 639.838 781.399, 643.052 783.561, 646.175 787.392, 649.226 " fill="none" stroke="rgb(0, 0, 0)" stroke-linecap="butt" stroke-linejoin="round" stroke-opacity="1.0" stroke-width="3.0" />
            <path d=" M 688.886, 538.374 685.877, 538.806 679.725, 540.408 678.087, 541.660 674.962, 544.048 673.843, 546.750 673.424, 547.762 672.230, 550.643 " fill="none" stroke="rgb(0, 0, 0)" stroke-linecap="butt" stroke-linejoin="round" stroke-opacity="1.0" stroke-width="3.0" />
            <path d=" M 678.087, 541.660 678.204, 540.790 678.507, 538.669 680.857, 537.064 682.674, 534.640 684.233, 529.992 685.250, 526.404 684.698, 522.844 684.088, 521.743 684.010, 521.602 " fill="none" stroke="rgb(0, 0, 0)" stroke-linecap="butt" stroke-linejoin="round" stroke-opacity="1.0" stroke-width="3.0" />
            <path d=" M 662.580, 899.511 660.393, 895.947 658.978, 891.530 657.077, 886.145 656.041, 880.854 656.334, 878.124 " fill="none" stroke="rgb(0, 0, 0)" stroke-linecap="butt" stroke-linejoin="round" stroke-opacity="1.0" stroke-width="3.0" />
            <path d=" M 758.496, 377.605 758.942, 379.438 759.279, 382.560 759.401, 383.690 759.487, 384.491 759.452, 384.669 759.161, 386.163 756.572, 391.517 753.781, 396.438 752.549, 398.610 " fill="none" stroke="rgb(0, 0, 0)" stroke-linecap="butt" stroke-linejoin="round" stroke-opacity="1.0" stroke-width="3.0" />
            <path d=" M 445.570, 773.921 445.225, 774.245 442.371, 776.933 441.533, 778.123 438.026, 782.850 436.325, 788.329 437.312, 790.615 439.077, 792.849 " fill="none" stroke="rgb(0, 0, 0)" stroke-linecap="butt" stroke-linejoin="round" stroke-opacity="1.0" stroke-width="3.0" />
            <path d=" M 424.677, 718.060 423.575, 720.268 421.805, 723.817 421.745, 723.936 421.582, 724.264 420.884, 725.739 417.140, 733.657 414.767, 738.815 " fill="none" stroke="rgb(0, 0, 0)" stroke-linecap="butt" stroke-linejoin="round" stroke-opacity="1.0" stroke-width="3.0" />
            <path d=" M 684.088, 521.743 684.290, 519.807 681.944, 518.406 679.563, 519.049 678.601, 519.560 675.990, 520.945 673.965, 524.155 670.905, 527.315 670.863, 527.358 668.323, 529.980 " fill="none" stroke="rgb(0, 0, 0)" stroke-linecap="butt" stroke-linejoin="round" stroke-opacity="1.0" stroke-width="3.0" />
            <path d=" M 807.654, 890.299 810.097, 889.899 810.146, 889.891 810.978, 889.755 811.001, 889.751 811.291, 889.764 812.450, 889.817 812.618, 889.824 813.128, 889.344 815.582, 887.034 819.703, 884.270 821.376, 883.148 823.114, 879.091 824.920, 877.137 " fill="none" stroke="rgb(0, 0, 0)" stroke-linecap="butt" stroke-linejoin="round" stroke-opacity="1.0" stroke-width="3.0" />
            <path d=" M 792.599, 588.728 792.667, 589.449 792.953, 592.502 790.586, 596.518 788.972, 599.742 789.508, 602.511 790.327, 604.877 793.218, 607.590 794.868, 608.363 " fill="none" stroke="rgb(0, 0, 0)" stroke-linecap="butt" stroke-linejoin="round" stroke-opacity="1.0" stroke-width="3.0" />
            <path d=" M 735.950, 1016.602 737.805, 1014.679 739.516, 1010.999 741.140, 1007.373 742.315, 1002.793 742.777, 997.233 742.779, 997.206 743.100, 995.971 743.360, 994.969 " fill="none" stroke="rgb(0, 0, 0)" stroke-linecap="butt" stroke-linejoin="round" stroke-opacity="1.0" stroke-width="3.0" />
            <path d=" M 848.340, 756.829 848.387, 756.661 850.456, 749.278 850.382, 742.414 851.090, 737.241 851.238, 733.764 " fill="none" stroke="rgb(0, 0, 0)" stroke-linecap="butt" stroke-linejoin="round" stroke-opacity="1.0" stroke-width="3.0" />
            <path d=" M 766.037, 958.048 768.565, 952.157 768.599, 952.079 768.635, 951.993 768.662, 951.932 768.735, 951.761 769.008, 951.125 769.012, 951.116 769.134, 950.831 769.818, 949.237 770.277, 945.876 770.450, 942.137 770.450, 941.985 770.454, 939.880 769.679, 937.761 769.099, 936.179 768.669, 935.568 " fill="none" stroke="rgb(0, 0, 0)" stroke-linecap="butt" stroke-linejoin="round" stroke-opacity="1.0" stroke-width="3.0" />
            <path d=" M 427.454, 1000.108 429.436, 1007.261 432.222, 1012.069 434.102, 1015.429 434.486, 1016.115 436.151, 1019.090 437.758, 1021.635 " fill="none" stroke="rgb(0, 0, 0)" stroke-linecap="butt" stroke-linejoin="round" stroke-opacity="1.0" stroke-width="3.0" />
            <path d=" M 427.365, 762.435 428.661, 762.205 431.655, 760.468 432.316, 759.822 434.493, 757.092 434.946, 753.466 436.152, 746.889 437.189, 742.464 " fill="none" stroke="rgb(0, 0, 0)" stroke-linecap="butt" stroke-linejoin="round" stroke-opacity="1.0" stroke-width="3.0" />
            <path d=" M 590.227, 1085.058 585.931, 1083.200 584.793, 1082.434 582.068, 1080.601 580.440, 1079.505 574.282, 1075.908 569.430, 1072.756 " fill="none" stroke="rgb(0, 0, 0)" stroke-linecap="butt" stroke-linejoin="round" stroke-opacity="1.0" stroke-width="3.0" />
            <path d=" M 450.611, 1025.483 452.527, 1028.464 453.989, 1030.535 456.188, 1033.577 458.263, 1036.718 459.990, 1038.708 463.385, 1042.988 464.960, 1044.974 " fill="none" stroke="rgb(0, 0, 0)" stroke-linecap="butt" stroke-linejoin="round" stroke-opacity="1.0" stroke-width="3.0" />
            <path d=" M 795.651, 889.201 794.843, 893.617 795.653, 896.101 796.145, 896.810 797.093, 898.049 803.571, 897.051 808.651, 894.394 810.936, 893.323 " fill="none" stroke="rgb(0, 0, 0)" stroke-linecap="butt" stroke-linejoin="round" stroke-opacity="1.0" stroke-width="3.0" />
            <path d=" M 711.921, 454.696 710.342, 456.817 707.567, 460.544 705.410, 464.180 706.627, 468.204 711.227, 469.651 714.876, 468.531 " fill="none" stroke="rgb(0, 0, 0)" stroke-linecap="butt" stroke-linejoin="round" stroke-opacity="1.0" stroke-width="3.0" />
            <path d=" M 422.484, 775.680 422.799, 774.765 426.272, 765.388 427.365, 762.435 427.902, 760.986 428.116, 760.167 429.534, 754.747 429.672, 754.222 430.065, 752.700 430.145, 752.390 " fill="none" stroke="rgb(0, 0, 0)" stroke-linecap="butt" stroke-linejoin="round" stroke-opacity="1.0" stroke-width="3.0" />
            <path d=" M 417.209, 950.971 416.576, 953.494 415.818, 956.517 415.716, 960.276 415.733, 963.698 416.790, 969.649 417.876, 975.233 " fill="none" stroke="rgb(0, 0, 0)" stroke-linecap="butt" stroke-linejoin="round" stroke-opacity="1.0" stroke-width="3.0" />
            <path d=" M 737.951, 951.818 737.623, 948.030 735.635, 944.967 733.587, 941.879 733.348, 941.598 726.879, 933.972 724.857, 931.588 " fill="none" stroke="rgb(0, 0, 0)" stroke-linecap="butt" stroke-linejoin="round" stroke-opacity="1.0" stroke-width="3.0" />
            <path d=" M 500.674, 686.063 501.001, 685.866 502.445, 684.995 504.376, 683.831 507.632, 679.842 510.249, 676.080 510.605, 675.568 513.739, 671.065 516.309, 667.370 " fill="none" stroke="rgb(0, 0, 0)" stroke-linecap="butt" stroke-linejoin="round" stroke-opacity="1.0" stroke-width="3.0" />
            <path d=" M 760.648, 826.703 759.052, 835.607 759.036, 835.695 758.050, 841.193 756.544, 849.139 756.537, 849.179 756.510, 849.321 756.504, 849.352 756.444, 849.667 756.144, 851.248 " fill="none" stroke="rgb(0, 0, 0)" stroke-linecap="butt" stroke-linejoin="round" stroke-opacity="1.0" stroke-width="3.0" />
            <path d=" M 847.219, 805.672 847.245, 802.655 846.242, 794.144 845.698, 789.271 845.226, 780.900 845.204, 780.517 " fill="none" stroke="rgb(0, 0, 0)" stroke-linecap="butt" stroke-linejoin="round" stroke-opacity="1.0" stroke-width="3.0" />
            <path d=" M 716.605, 924.861 715.563, 923.469 715.262, 923.066 709.903, 915.906 708.977, 915.056 706.819, 913.194 705.929, 912.426 705.655, 912.189 704.430, 911.133 702.057, 909.538 700.393, 908.419 698.760, 907.322 " fill="none" stroke="rgb(0, 0, 0)" stroke-linecap="butt" stroke-linejoin="round" stroke-opacity="1.0" stroke-width="3.0" />
            <path d=" M 473.007, 961.405 469.510, 963.282 468.000, 964.092 467.884, 964.153 466.146, 965.059 465.628, 965.367 461.659, 967.722 461.122, 968.829 460.517, 974.208 460.065, 975.261 459.514, 976.545 458.564, 978.760 458.162, 979.699 " fill="none" stroke="rgb(0, 0, 0)" stroke-linecap="butt" stroke-linejoin="round" stroke-opacity="1.0" stroke-width="3.0" />
            <path d=" M 730.215, 441.887 727.333, 442.961 721.532, 445.121 717.891, 447.505 714.586, 450.402 710.342, 456.817 " fill="none" stroke="rgb(0, 0, 0)" stroke-linecap="butt" stroke-linejoin="round" stroke-opacity="1.0" stroke-width="3.0" />
            <path d=" M 480.398, 835.846 474.385, 836.563 470.262, 837.185 467.034, 837.437 461.720, 838.060 461.132, 838.129 460.905, 838.156 460.676, 838.182 460.650, 838.185 460.639, 838.187 460.600, 838.191 460.566, 838.195 460.353, 838.220 460.258, 838.231 458.998, 838.379 455.096, 838.960 454.843, 838.997 454.604, 839.033 " fill="none" stroke="rgb(0, 0, 0)" stroke-linecap="butt" stroke-linejoin="round" stroke-opacity="1.0" stroke-width="3.0" />
            <path d=" M 809.129, 487.604 807.238, 490.809 806.383, 493.564 804.273, 498.184 802.601, 502.461 803.428, 503.332 806.146, 506.517 808.799, 507.186 810.632, 507.138 " fill="none" stroke="rgb(0, 0, 0)" stroke-linecap="butt" stroke-linejoin="round" stroke-opacity="1.0" stroke-width="3.0" />
            <path d=" M 713.155, 498.699 713.657, 494.524 713.595, 497.724 713.590, 497.935 711.564, 505.404 711.557, 505.431 711.194, 506.767 710.057, 509.826 707.978, 514.036 707.250, 515.511 " fill="none" stroke="rgb(0, 0, 0)" stroke-linecap="butt" stroke-linejoin="round" stroke-opacity="1.0" stroke-width="3.0" />
            <path d=" M 705.660, 484.217 703.499, 486.858 703.301, 487.100 699.968, 491.089 698.204, 498.009 697.750, 499.792 697.608, 500.678 697.608, 500.681 697.590, 500.791 697.844, 502.627 702.016, 506.445 702.032, 506.479 " fill="none" stroke="rgb(0, 0, 0)" stroke-linecap="butt" stroke-linejoin="round" stroke-opacity="1.0" stroke-width="3.0" />
            <path d=" M 598.277, 923.228 598.365, 920.327 598.252, 918.102 598.171, 916.515 597.606, 914.795 596.496, 911.411 595.795, 907.861 595.524, 905.799 594.964, 901.529 594.276, 899.796 593.932, 898.930 593.352, 897.468 " fill="none" stroke="rgb(0, 0, 0)" stroke-linecap="butt" stroke-linejoin="round" stroke-opacity="1.0" stroke-width="3.0" />
            <path d=" M 847.405, 826.147 847.621, 824.080 848.660, 814.134 848.778, 813.004 847.219, 805.672 846.018, 800.020 " fill="none" stroke="rgb(0, 0, 0)" stroke-linecap="butt" stroke-linejoin="round" stroke-opacity="1.0" stroke-width="3.0" />
            <path d=" M 689.122, 538.102 689.002, 538.240 688.886, 538.374 682.467, 545.764 681.462, 548.498 681.218, 551.810 683.681, 558.091 685.262, 561.114 " fill="none" stroke="rgb(0, 0, 0)" stroke-linecap="butt" stroke-linejoin="round" stroke-opacity="1.0" stroke-width="3.0" />
            <path d=" M 795.419, 611.879 786.005, 615.252 785.853, 615.306 782.008, 618.329 781.964, 622.579 783.766, 625.898 784.359, 629.777 " fill="none" stroke="rgb(0, 0, 0)" stroke-linecap="butt" stroke-linejoin="round" stroke-opacity="1.0" stroke-width="3.0" />
            <path d=" M 612.184, 502.189 611.243, 501.148 610.997, 500.875 610.711, 500.560 610.580, 500.415 609.051, 498.723 607.592, 496.321 606.865, 494.222 606.825, 494.107 606.224, 492.371 605.646, 487.865 606.259, 481.895 606.031, 477.825 605.983, 476.979 " fill="none" stroke="rgb(0, 0, 0)" stroke-linecap="butt" stroke-linejoin="round" stroke-opacity="1.0" stroke-width="3.0" />
            <path d=" M 818.318, 927.168 818.362, 927.038 820.959, 919.416 821.972, 912.673 822.246, 909.781 821.431, 900.883 821.403, 900.573 " fill="none" stroke="rgb(0, 0, 0)" stroke-linecap="butt" stroke-linejoin="round" stroke-opacity="1.0" stroke-width="3.0" />
            <path d=" M 491.184, 1035.662 497.657, 1033.869 500.670, 1035.502 505.340, 1035.162 514.480, 1031.103 515.565, 1030.621 516.533, 1030.191 516.649, 1030.140 516.685, 1030.123 516.776, 1030.083 " fill="none" stroke="rgb(0, 0, 0)" stroke-linecap="butt" stroke-linejoin="round" stroke-opacity="1.0" stroke-width="3.0" />
            <path d=" M 816.758, 396.916 817.027, 394.876 817.124, 394.133 817.147, 393.961 817.331, 392.557 817.297, 392.282 817.237, 391.811 816.894, 389.083 815.436, 385.043 812.809, 375.394 812.460, 374.110 812.205, 373.175 812.157, 372.617 812.099, 371.940 812.092, 371.860 812.093, 371.840 812.119, 371.201 812.157, 370.264 " fill="none" stroke="rgb(0, 0, 0)" stroke-linecap="butt" stroke-linejoin="round" stroke-opacity="1.0" stroke-width="3.0" />
            <path d=" M 771.912, 666.589 772.271, 668.840 772.955, 673.134 770.833, 678.383 770.574, 681.538 771.430, 685.933 776.136, 690.783 776.894, 691.563 " fill="none" stroke="rgb(0, 0, 0)" stroke-linecap="butt" stroke-linejoin="round" stroke-opacity="1.0" stroke-width="3.0" />
            <path d=" M 809.165, 522.136 808.066, 523.309 807.523, 524.114 804.821, 528.607 800.911, 535.177 799.249, 537.992 798.711, 539.769 799.107, 542.702 803.009, 544.596 " fill="none" stroke="rgb(0, 0, 0)" stroke-linecap="butt" stroke-linejoin="round" stroke-opacity="1.0" stroke-width="3.0" />
            <path d=" M 418.969, 732.661 416.110, 736.566 414.767, 738.815 410.396, 746.974 406.967, 756.368 406.896, 756.564 406.778, 757.584 " fill="none" stroke="rgb(0, 0, 0)" stroke-linecap="butt" stroke-linejoin="round" stroke-opacity="1.0" stroke-width="3.0" />
            <path d=" M 793.412, 567.099 793.249, 567.483 793.173, 567.661 791.010, 572.763 788.131, 575.498 785.789, 577.933 785.524, 580.479 787.311, 585.476 792.214, 588.700 792.667, 589.449 " fill="none" stroke="rgb(0, 0, 0)" stroke-linecap="butt" stroke-linejoin="round" stroke-opacity="1.0" stroke-width="3.0" />
            <path d=" M 585.197, 545.876 585.877, 544.644 586.096, 544.398 586.175, 544.309 587.539, 542.777 588.567, 540.701 588.611, 539.810 587.162, 539.299 586.542, 539.080 586.535, 539.077 583.640, 538.056 582.333, 537.595 582.286, 537.578 581.790, 537.075 581.742, 537.027 581.704, 536.988 581.345, 536.624 581.333, 536.612 580.738, 536.009 580.175, 535.437 580.165, 535.432 577.192, 533.907 577.106, 534.158 577.093, 534.198 577.067, 534.274 576.960, 534.586 576.770, 535.144 576.676, 535.420 576.512, 535.903 576.495, 535.954 576.482, 535.993 576.449, 536.088 575.840, 537.880 575.622, 538.520 574.272, 541.263 " fill="none" stroke="rgb(0, 0, 0)" stroke-linecap="butt" stroke-linejoin="round" stroke-opacity="1.0" stroke-width="3.0" />
            <path d=" M 667.956, 1048.344 667.785, 1048.121 667.287, 1047.470 667.093, 1047.216 666.403, 1046.316 666.198, 1046.049 665.870, 1045.621 662.752, 1041.550 656.533, 1035.905 653.337, 1032.867 650.618, 1027.962 650.012, 1026.869 " fill="none" stroke="rgb(0, 0, 0)" stroke-linecap="butt" stroke-linejoin="round" stroke-opacity="1.0" stroke-width="3.0" />
            <path d=" M 793.036, 435.891 793.089, 435.794 797.968, 427.066 798.819, 425.544 801.294, 422.066 802.168, 420.838 802.499, 420.374 802.920, 419.781 803.074, 419.565 803.319, 419.221 803.886, 418.424 804.075, 418.233 804.102, 418.206 804.103, 418.205 809.405, 412.825 " fill="none" stroke="rgb(0, 0, 0)" stroke-linecap="butt" stroke-linejoin="round" stroke-opacity="1.0" stroke-width="3.0" />
            <path d=" M 705.381, 514.786 700.953, 516.234 698.200, 517.389 694.251, 521.305 688.526, 529.182 688.135, 532.200 689.324, 534.646 " fill="none" stroke="rgb(0, 0, 0)" stroke-linecap="butt" stroke-linejoin="round" stroke-opacity="1.0" stroke-width="3.0" />
            <path d=" M 722.681, 855.003 724.053, 858.727 725.496, 861.771 726.485, 866.139 728.262, 869.749 729.158, 871.248 730.872, 873.728 731.365, 878.103 731.658, 878.992 732.904, 881.520 " fill="none" stroke="rgb(0, 0, 0)" stroke-linecap="butt" stroke-linejoin="round" stroke-opacity="1.0" stroke-width="3.0" />
            <path d=" M 579.648, 636.239 581.413, 635.926 581.454, 635.919 582.809, 635.679 587.564, 633.483 591.346, 629.837 592.465, 627.033 590.982, 620.650 590.724, 619.244 588.168, 615.891 " fill="none" stroke="rgb(0, 0, 0)" stroke-linecap="butt" stroke-linejoin="round" stroke-opacity="1.0" stroke-width="3.0" />
            <path d=" M 787.068, 652.593 785.997, 652.897 780.009, 654.598 774.878, 655.410 771.860, 656.481 770.426, 659.059 769.934, 663.230 772.271, 668.840 " fill="none" stroke="rgb(0, 0, 0)" stroke-linecap="butt" stroke-linejoin="round" stroke-opacity="1.0" stroke-width="3.0" />
            <path d=" M 553.502, 1086.942 561.938, 1090.952 565.755, 1092.545 570.347, 1094.461 564.945, 1092.513 560.344, 1091.219 " fill="none" stroke="rgb(0, 0, 0)" stroke-linecap="butt" stroke-linejoin="round" stroke-opacity="1.0" stroke-width="3.0" />
            <path d=" M 818.553, 487.864 818.920, 491.749 819.855, 501.656 819.918, 505.780 818.430, 510.005 818.209, 510.633 817.798, 511.797 817.734, 511.937 815.742, 516.257 " fill="none" stroke="rgb(0, 0, 0)" stroke-linecap="butt" stroke-linejoin="round" stroke-opacity="1.0" stroke-width="3.0" />
            <path d=" M 776.136, 690.783 776.189, 690.864 777.343, 693.827 774.999, 695.117 769.674, 694.658 766.510, 694.452 761.915, 697.249 760.219, 698.636 760.005, 699.465 759.545, 704.279 759.380, 706.000 " fill="none" stroke="rgb(0, 0, 0)" stroke-linecap="butt" stroke-linejoin="round" stroke-opacity="1.0" stroke-width="3.0" />
            <path d=" M 676.042, 604.479 675.528, 604.659 672.112, 605.858 669.024, 609.420 665.467, 618.766 664.623, 620.983 662.737, 627.193 662.225, 628.879 " fill="none" stroke="rgb(0, 0, 0)" stroke-linecap="butt" stroke-linejoin="round" stroke-opacity="1.0" stroke-width="3.0" />
            <path d=" M 843.948, 395.797 843.058, 389.377 842.167, 386.013 841.293, 383.075 839.945, 378.544 835.765, 369.460 835.391, 368.650 834.988, 367.773 " fill="none" stroke="rgb(0, 0, 0)" stroke-linecap="butt" stroke-linejoin="round" stroke-opacity="1.0" stroke-width="3.0" />
            <path d=" M 786.872, 838.449 786.832, 839.577 786.479, 849.551 784.465, 858.413 781.776, 867.577 " fill="none" stroke="rgb(0, 0, 0)" stroke-linecap="butt" stroke-linejoin="round" stroke-opacity="1.0" stroke-width="3.0" />
            <path d=" M 422.391, 924.371 420.297, 931.474 418.188, 938.712 417.717, 942.377 416.704, 949.297 416.576, 953.494 " fill="none" stroke="rgb(0, 0, 0)" stroke-linecap="butt" stroke-linejoin="round" stroke-opacity="1.0" stroke-width="3.0" />
            <path d=" M 724.458, 467.933 722.474, 471.024 721.028, 473.278 720.398, 474.260 719.678, 476.178 719.534, 476.562 719.484, 476.695 718.895, 478.265 715.686, 485.742 713.745, 488.692 713.065, 491.407 712.613, 494.963 " fill="none" stroke="rgb(0, 0, 0)" stroke-linecap="butt" stroke-linejoin="round" stroke-opacity="1.0" stroke-width="3.0" />
            <path d=" M 595.688, 496.190 595.926, 495.517 598.373, 488.615 597.413, 486.674 594.468, 486.764 591.639, 488.468 586.772, 491.475 585.070, 494.464 582.561, 498.485 " fill="none" stroke="rgb(0, 0, 0)" stroke-linecap="butt" stroke-linejoin="round" stroke-opacity="1.0" stroke-width="3.0" />
            <path d=" M 685.339, 562.003 684.461, 562.368 683.075, 562.943 681.790, 563.477 680.597, 563.972 679.824, 564.692 677.890, 566.928 677.743, 567.097 675.869, 569.263 675.383, 571.992 675.231, 581.231 673.798, 585.836 673.243, 587.619 " fill="none" stroke="rgb(0, 0, 0)" stroke-linecap="butt" stroke-linejoin="round" stroke-opacity="1.0" stroke-width="3.0" />
            <path d=" M 759.545, 704.279 756.523, 705.108 754.620, 707.658 755.276, 710.082 760.112, 715.020 761.188, 718.885 763.585, 721.110 765.155, 721.507 771.399, 722.587 771.425, 722.604 " fill="none" stroke="rgb(0, 0, 0)" stroke-linecap="butt" stroke-linejoin="round" stroke-opacity="1.0" stroke-width="3.0" />
            <path d=" M 736.218, 971.203 735.025, 967.018 734.932, 966.691 734.925, 966.665 734.905, 966.596 734.781, 966.161 733.477, 961.587 729.870, 954.151 729.826, 954.059 729.534, 953.458 727.922, 950.134 723.298, 943.224 " fill="none" stroke="rgb(0, 0, 0)" stroke-linecap="butt" stroke-linejoin="round" stroke-opacity="1.0" stroke-width="3.0" />
            <path d=" M 442.361, 1029.413 446.999, 1037.381 449.650, 1040.393 454.350, 1046.924 454.948, 1047.603 460.835, 1054.299 " fill="none" stroke="rgb(0, 0, 0)" stroke-linecap="butt" stroke-linejoin="round" stroke-opacity="1.0" stroke-width="3.0" />
            <path d=" M 559.221, 853.273 559.785, 854.595 560.697, 856.732 560.868, 857.132 560.900, 857.206 561.035, 857.522 561.106, 857.688 562.187, 860.222 562.787, 865.836 562.798, 865.942 561.973, 869.006 561.153, 872.050 560.049, 875.234 559.891, 875.691 559.886, 875.705 559.856, 875.791 559.426, 877.030 558.442, 879.869 558.064, 881.079 558.031, 881.188 557.962, 881.408 557.308, 883.505 " fill="none" stroke="rgb(0, 0, 0)" stroke-linecap="butt" stroke-linejoin="round" stroke-opacity="1.0" stroke-width="3.0" />
            <path d=" M 651.404, 1053.219 651.617, 1053.694 651.987, 1054.519 652.155, 1054.894 652.596, 1055.877 652.919, 1056.402 652.924, 1056.410 653.022, 1056.570 654.085, 1058.299 654.335, 1058.707 654.949, 1059.706 656.672, 1068.349 656.714, 1068.558 656.690, 1068.629 655.846, 1071.177 655.212, 1073.090 655.550, 1076.011 655.563, 1076.127 655.583, 1076.296 655.584, 1076.309 655.803, 1078.194 655.890, 1078.942 656.297, 1080.546 656.429, 1081.068 657.714, 1083.587 " fill="none" stroke="rgb(0, 0, 0)" stroke-linecap="butt" stroke-linejoin="round" stroke-opacity="1.0" stroke-width="3.0" />
            <path d=" M 738.314, 959.760 737.344, 958.816 736.796, 958.282 735.859, 957.370 733.801, 952.083 730.951, 946.793 728.516, 943.835 728.390, 943.681 728.289, 943.329 727.663, 941.123 726.406, 937.724 725.447, 935.794 724.633, 934.156 724.229, 933.343 723.993, 932.866 723.677, 932.353 723.213, 931.599 " fill="none" stroke="rgb(0, 0, 0)" stroke-linecap="butt" stroke-linejoin="round" stroke-opacity="1.0" stroke-width="3.0" />
            <path d=" M 769.195, 316.754 768.752, 316.707 767.877, 316.613 765.148, 313.711 763.474, 313.260 761.135, 314.170 759.545, 315.822 756.880, 317.741 755.880, 320.707 756.117, 323.819 756.634, 329.881 758.292, 331.955 759.819, 333.724 " fill="none" stroke="rgb(0, 0, 0)" stroke-linecap="butt" stroke-linejoin="round" stroke-opacity="1.0" stroke-width="3.0" />
            <path d=" M 634.588, 429.677 634.640, 429.540 635.674, 426.807 634.621, 425.529 629.464, 423.199 624.192, 425.295 622.321, 423.135 620.362, 422.771 618.336, 423.088 615.079, 424.156 609.669, 427.906 " fill="none" stroke="rgb(0, 0, 0)" stroke-linecap="butt" stroke-linejoin="round" stroke-opacity="1.0" stroke-width="3.0" />
            <path d=" M 583.857, 573.541 585.081, 573.164 585.283, 573.101 585.664, 572.984 585.899, 572.911 590.779, 571.404 593.199, 569.928 595.328, 568.017 599.071, 562.751 599.982, 559.694 598.956, 556.343 596.594, 555.167 592.295, 554.639 " fill="none" stroke="rgb(0, 0, 0)" stroke-linecap="butt" stroke-linejoin="round" stroke-opacity="1.0" stroke-width="3.0" />
            <path d=" M 557.461, 554.677 556.103, 558.249 554.675, 560.286 552.738, 564.980 552.491, 565.581 551.067, 568.950 550.594, 572.562 548.726, 576.405 548.122, 581.426 547.760, 584.434 547.750, 584.522 547.742, 584.586 547.721, 584.762 547.597, 585.793 " fill="none" stroke="rgb(0, 0, 0)" stroke-linecap="butt" stroke-linejoin="round" stroke-opacity="1.0" stroke-width="3.0" />
            <path d=" M 596.815, 1056.080 597.326, 1055.644 599.850, 1053.487 600.885, 1052.604 604.057, 1048.536 606.130, 1045.762 607.356, 1044.328 609.826, 1041.436 614.224, 1036.215 614.352, 1036.063 614.703, 1035.646 614.791, 1035.542 614.872, 1035.446 614.888, 1035.427 616.378, 1033.658 618.771, 1030.467 " fill="none" stroke="rgb(0, 0, 0)" stroke-linecap="butt" stroke-linejoin="round" stroke-opacity="1.0" stroke-width="3.0" />
            <path d=" M 454.761, 839.033 454.604, 839.033 450.775, 839.021 446.522, 839.258 440.385, 836.611 434.083, 831.018 432.442, 824.882 430.738, 821.718 430.369, 821.032 " fill="none" stroke="rgb(0, 0, 0)" stroke-linecap="butt" stroke-linejoin="round" stroke-opacity="1.0" stroke-width="3.0" />
            <path d=" M 521.363, 976.709 520.150, 981.073 517.946, 985.907 515.859, 992.662 514.824, 996.014 514.800, 996.397 514.668, 998.468 513.025, 1001.955 512.829, 1002.208 511.451, 1003.982 510.624, 1004.549 507.481, 1006.705 " fill="none" stroke="rgb(0, 0, 0)" stroke-linecap="butt" stroke-linejoin="round" stroke-opacity="1.0" stroke-width="3.0" />
            <path d=" M 436.127, 679.020 435.746, 679.469 432.922, 682.800 432.601, 685.529 430.402, 689.862 427.473, 697.851 425.864, 702.231 425.015, 705.805 423.897, 710.512 " fill="none" stroke="rgb(0, 0, 0)" stroke-linecap="butt" stroke-linejoin="round" stroke-opacity="1.0" stroke-width="3.0" />
            <path d=" M 762.078, 804.227 761.960, 806.888 761.516, 816.878 761.425, 818.925 761.394, 819.610 761.392, 819.674 761.303, 821.675 760.811, 825.451 760.648, 826.703 760.167, 830.395 760.144, 830.569 759.485, 835.626 759.120, 838.422 " fill="none" stroke="rgb(0, 0, 0)" stroke-linecap="butt" stroke-linejoin="round" stroke-opacity="1.0" stroke-width="3.0" />
            <path d=" M 780.509, 915.157 780.095, 916.125 779.356, 917.853 779.026, 918.703 777.762, 921.955 776.544, 928.602 777.833, 935.464 777.839, 935.496 777.589, 938.121 776.917, 945.185 776.746, 947.373 776.608, 949.147 " fill="none" stroke="rgb(0, 0, 0)" stroke-linecap="butt" stroke-linejoin="round" stroke-opacity="1.0" stroke-width="3.0" />
            <path d=" M 812.119, 371.201 812.486, 368.882 812.778, 367.038 812.963, 365.869 813.105, 360.637 812.254, 357.953 812.233, 357.886 812.200, 357.784 812.163, 357.666 812.121, 357.535 812.051, 357.313 811.939, 356.959 811.784, 356.470 811.893, 355.582 812.179, 353.266 812.121, 352.952 811.792, 351.177 811.712, 350.751 811.516, 349.693 811.376, 347.293 811.351, 346.873 810.801, 344.692 810.521, 343.846 809.623, 341.137 809.522, 340.832 809.478, 340.700 809.473, 340.683 809.244, 339.429 808.870, 337.383 808.812, 337.065 " fill="none" stroke="rgb(0, 0, 0)" stroke-linecap="butt" stroke-linejoin="round" stroke-opacity="1.0" stroke-width="3.0" />
            <path d=" M 472.456, 752.312 471.662, 753.338 467.350, 758.911 462.021, 763.927 456.985, 766.952 451.510, 769.923 450.297, 770.685 445.505, 773.726 445.225, 774.245 " fill="none" stroke="rgb(0, 0, 0)" stroke-linecap="butt" stroke-linejoin="round" stroke-opacity="1.0" stroke-width="3.0" />
            <path d=" M 635.244, 508.282 635.172, 508.275 633.564, 508.104 631.436, 508.631 628.745, 507.772 627.889, 507.499 625.947, 506.879 625.522, 506.284 624.349, 504.642 624.173, 500.742 623.727, 495.138 624.373, 485.159 624.435, 484.200 624.501, 483.171 624.526, 482.782 624.618, 481.361 " fill="none" stroke="rgb(0, 0, 0)" stroke-linecap="butt" stroke-linejoin="round" stroke-opacity="1.0" stroke-width="3.0" />
            <path d=" M 746.985, 920.344 748.864, 921.779 752.671, 925.220 753.344, 925.763 756.172, 928.043 758.466, 929.892 759.212, 930.350 765.330, 934.105 768.669, 935.568 769.416, 935.896 769.479, 935.923 772.355, 936.618 775.437, 936.389 777.833, 935.464 " fill="none" stroke="rgb(0, 0, 0)" stroke-linecap="butt" stroke-linejoin="round" stroke-opacity="1.0" stroke-width="3.0" />
            <path d=" M 786.816, 902.920 788.050, 907.623 788.339, 908.726 789.365, 912.637 789.809, 915.084 789.825, 915.175 789.858, 915.358 790.238, 917.451 791.821, 924.884 792.108, 927.365 793.030, 929.919 793.729, 931.854 795.197, 938.879 " fill="none" stroke="rgb(0, 0, 0)" stroke-linecap="butt" stroke-linejoin="round" stroke-opacity="1.0" stroke-width="3.0" />
            <path d=" M 558.698, 986.793 559.161, 986.470 565.993, 981.111 573.838, 974.909 574.815, 974.136 576.267, 972.989 576.700, 972.646 578.414, 971.158 580.461, 969.381 580.770, 969.113 582.003, 968.043 583.413, 966.818 587.480, 963.287 " fill="none" stroke="rgb(0, 0, 0)" stroke-linecap="butt" stroke-linejoin="round" stroke-opacity="1.0" stroke-width="3.0" />
            <path d=" M 496.976, 908.117 493.773, 910.977 493.355, 912.494 493.046, 913.617 493.013, 913.736 492.743, 914.719 491.735, 916.483 490.117, 919.313 489.266, 923.340 488.420, 927.341 487.027, 931.051 485.722, 934.531 483.043, 939.183 482.365, 942.173 482.344, 942.266 " fill="none" stroke="rgb(0, 0, 0)" stroke-linecap="butt" stroke-linejoin="round" stroke-opacity="1.0" stroke-width="3.0" />
            <path d=" M 557.734, 882.702 557.308, 883.505 557.282, 883.555 554.249, 889.280 552.088, 894.282 550.874, 897.450 548.956, 903.553 549.510, 906.138 550.234, 908.912 552.714, 910.909 554.314, 911.996 555.174, 912.431 558.859, 914.299 " fill="none" stroke="rgb(0, 0, 0)" stroke-linecap="butt" stroke-linejoin="round" stroke-opacity="1.0" stroke-width="3.0" />
            <path d=" M 846.479, 774.224 846.917, 771.684 847.823, 763.385 849.276, 755.758 849.844, 751.969 850.748, 748.791 852.095, 741.992 852.041, 736.235 " fill="none" stroke="rgb(0, 0, 0)" stroke-linecap="butt" stroke-linejoin="round" stroke-opacity="1.0" stroke-width="3.0" />
            <path d=" M 847.516, 753.835 846.779, 760.929 846.385, 764.719 845.716, 771.157 845.287, 778.996 845.245, 779.776 845.204, 780.517 845.153, 780.186 845.115, 779.933 845.100, 779.837 845.097, 779.819 844.654, 776.929 844.632, 776.786 843.404, 768.874 " fill="none" stroke="rgb(0, 0, 0)" stroke-linecap="butt" stroke-linejoin="round" stroke-opacity="1.0" stroke-width="3.0" />
            <path d=" M 418.188, 809.771 419.004, 806.878 419.014, 806.845 419.098, 806.546 419.135, 806.415 419.414, 805.426 419.469, 805.229 421.868, 799.961 421.160, 797.771 419.514, 793.925 418.798, 792.291 418.425, 790.994 419.289, 785.050 420.170, 782.445 422.398, 777.176 422.484, 775.680 422.628, 773.178 " fill="none" stroke="rgb(0, 0, 0)" stroke-linecap="butt" stroke-linejoin="round" stroke-opacity="1.0" stroke-width="3.0" />
            <path d=" M 775.521, 952.499 772.302, 954.555 770.810, 956.865 771.096, 961.289 773.406, 966.554 779.801, 968.935 781.811, 969.680 787.518, 970.547 788.563, 970.700 791.246, 970.071 792.984, 969.546 793.321, 968.980 793.882, 968.035 " fill="none" stroke="rgb(0, 0, 0)" stroke-linecap="butt" stroke-linejoin="round" stroke-opacity="1.0" stroke-width="3.0" />
            <path d=" M 760.031, 765.858 760.426, 769.796 758.546, 778.759 758.374, 780.624 759.210, 783.426 759.365, 788.652 759.403, 793.334 759.429, 796.415 761.932, 803.844 762.048, 804.190 " fill="none" stroke="rgb(0, 0, 0)" stroke-linecap="butt" stroke-linejoin="round" stroke-opacity="1.0" stroke-width="3.0" />
            <path d=" M 724.257, 1048.959 724.595, 1048.684 725.063, 1048.303 726.122, 1047.441 726.679, 1046.893 728.507, 1045.094 729.552, 1044.065 729.592, 1044.025 729.651, 1043.967 731.998, 1041.658 732.073, 1041.474 733.393, 1037.224 736.063, 1031.707 737.203, 1027.718 737.425, 1026.939 738.369, 1024.608 738.712, 1021.642 737.053, 1018.088 736.058, 1017.450 735.487, 1017.083 734.613, 1016.522 734.086, 1016.184 " fill="none" stroke="rgb(0, 0, 0)" stroke-linecap="butt" stroke-linejoin="round" stroke-opacity="1.0" stroke-width="3.0" />
            <path d=" M 759.711, 343.808 756.882, 349.040 754.980, 358.857 754.940, 359.066 754.881, 363.060 755.300, 368.309 755.314, 368.488 755.320, 368.555 755.642, 372.587 757.789, 376.846 759.279, 382.560 " fill="none" stroke="rgb(0, 0, 0)" stroke-linecap="butt" stroke-linejoin="round" stroke-opacity="1.0" stroke-width="3.0" />
            <path d=" M 705.929, 912.426 704.664, 910.675 703.304, 909.243 699.583, 905.893 697.773, 904.263 694.163, 902.649 691.461, 901.529 685.824, 900.593 676.555, 901.043 672.030, 900.224 669.285, 901.588 " fill="none" stroke="rgb(0, 0, 0)" stroke-linecap="butt" stroke-linejoin="round" stroke-opacity="1.0" stroke-width="3.0" />
            <path d=" M 489.421, 803.362 491.550, 803.463 492.675, 803.517 499.518, 806.564 507.058, 809.824 512.682, 812.836 519.444, 814.362 521.176, 814.753 524.170, 815.722 528.095, 816.992 " fill="none" stroke="rgb(0, 0, 0)" stroke-linecap="butt" stroke-linejoin="round" stroke-opacity="1.0" stroke-width="3.0" />
            <path d=" M 498.140, 700.381 496.512, 705.204 494.634, 708.106 493.895, 709.838 491.467, 717.227 488.943, 720.605 486.772, 724.169 484.481, 728.523 481.628, 732.857 479.303, 737.655 479.293, 737.675 " fill="none" stroke="rgb(0, 0, 0)" stroke-linecap="butt" stroke-linejoin="round" stroke-opacity="1.0" stroke-width="3.0" />
            <path d=" M 582.416, 611.481 583.641, 612.679 588.168, 615.891 583.331, 612.521 582.416, 611.481 579.996, 608.731 578.703, 607.681 577.320, 606.557 575.731, 605.267 574.111, 603.159 573.714, 602.142 571.279, 600.077 567.981, 599.110 563.809, 600.949 560.787, 601.776 560.476, 601.861 560.411, 601.879 " fill="none" stroke="rgb(0, 0, 0)" stroke-linecap="butt" stroke-linejoin="round" stroke-opacity="1.0" stroke-width="3.0" />
            <path d=" M 586.425, 606.666 586.493, 606.636 586.493, 606.635 588.040, 605.947 590.107, 605.027 590.912, 604.576 593.653, 602.140 595.735, 597.567 594.490, 591.279 593.950, 589.770 592.207, 586.738 589.716, 584.304 585.698, 580.702 582.353, 577.218 581.094, 575.906 580.136, 574.908 580.027, 574.594 " fill="none" stroke="rgb(0, 0, 0)" stroke-linecap="butt" stroke-linejoin="round" stroke-opacity="1.0" stroke-width="3.0" />
            <path d=" M 443.844, 793.216 440.645, 792.972 439.077, 792.849 442.951, 794.026 446.009, 795.479 450.601, 797.498 452.361, 801.452 452.743, 803.614 450.152, 810.249 451.223, 814.497 451.294, 816.223 452.011, 819.295 452.132, 820.190 452.330, 821.661 " fill="none" stroke="rgb(0, 0, 0)" stroke-linecap="butt" stroke-linejoin="round" stroke-opacity="1.0" stroke-width="3.0" />
            <path d=" M 824.478, 539.968 822.802, 547.309 822.652, 547.967 822.060, 550.560 821.804, 551.683 821.569, 552.713 821.474, 553.353 821.419, 553.722 820.739, 558.314 820.290, 561.347 819.800, 564.651 819.263, 574.637 818.848, 582.362 " fill="none" stroke="rgb(0, 0, 0)" stroke-linecap="butt" stroke-linejoin="round" stroke-opacity="1.0" stroke-width="3.0" />
            <path d=" M 750.628, 984.090 750.781, 983.853 755.217, 979.166 761.486, 971.375 761.611, 971.220 765.428, 965.577 768.456, 960.475 770.645, 955.902 770.951, 955.264 772.855, 952.037 770.645, 955.902 " fill="none" stroke="rgb(0, 0, 0)" stroke-linecap="butt" stroke-linejoin="round" stroke-opacity="1.0" stroke-width="3.0" />
            <path d=" M 601.611, 433.432 601.543, 433.503 599.041, 436.098 597.481, 438.073 593.408, 443.229 592.582, 444.759 589.832, 447.687 586.655, 452.696 583.074, 460.510 580.411, 467.635 579.824, 469.206 579.501, 469.761 579.146, 470.372 " fill="none" stroke="rgb(0, 0, 0)" stroke-linecap="butt" stroke-linejoin="round" stroke-opacity="1.0" stroke-width="3.0" />
            <path d=" M 736.234, 837.245 735.171, 844.313 734.083, 850.953 733.243, 854.864 733.834, 862.095 734.327, 867.064 736.480, 871.869 738.717, 875.062 741.216, 875.134 742.123, 874.346 742.546, 873.614 " fill="none" stroke="rgb(0, 0, 0)" stroke-linecap="butt" stroke-linejoin="round" stroke-opacity="1.0" stroke-width="3.0" />
            <path d=" M 738.520, 415.341 731.030, 416.919 723.554, 421.296 716.388, 427.733 714.168, 430.051 713.842, 433.026 715.294, 434.797 717.052, 437.579 724.229, 437.347 " fill="none" stroke="rgb(0, 0, 0)" stroke-linecap="butt" stroke-linejoin="round" stroke-opacity="1.0" stroke-width="3.0" />
            <path d=" M 640.206, 1013.513 634.910, 1005.030 634.320, 1004.083 630.834, 995.123 627.182, 985.814 625.857, 982.435 623.712, 972.668 623.542, 971.897 " fill="none" stroke="rgb(0, 0, 0)" stroke-linecap="butt" stroke-linejoin="round" stroke-opacity="1.0" stroke-width="3.0" />
            <path d=" M 819.026, 776.668 817.958, 786.611 817.360, 792.183 817.103, 797.847 815.879, 807.772 815.737, 808.924 815.708, 809.153 815.551, 810.428 813.227, 819.257 812.653, 821.436 " fill="none" stroke="rgb(0, 0, 0)" stroke-linecap="butt" stroke-linejoin="round" stroke-opacity="1.0" stroke-width="3.0" />
            <path d=" M 748.662, 792.593 749.066, 788.110 749.284, 781.461 748.037, 773.469 746.538, 763.582 746.511, 763.405 745.770, 760.312 745.149, 758.017 743.577, 753.016 742.447, 748.388 742.072, 747.070 " fill="none" stroke="rgb(0, 0, 0)" stroke-linecap="butt" stroke-linejoin="round" stroke-opacity="1.0" stroke-width="3.0" />
            <path d=" M 614.703, 1035.646 615.175, 1035.574 615.236, 1035.565 615.447, 1035.538 620.114, 1034.931 625.533, 1033.411 627.492, 1033.201 631.452, 1033.518 634.276, 1034.304 640.228, 1039.441 644.379, 1043.639 648.584, 1049.374 650.359, 1051.794 651.374, 1053.178 651.404, 1053.219 651.675, 1053.589 651.960, 1053.977 " fill="none" stroke="rgb(0, 0, 0)" stroke-linecap="butt" stroke-linejoin="round" stroke-opacity="1.0" stroke-width="3.0" />
            <path d=" M 691.624, 558.076 690.130, 562.472 689.937, 562.932 689.315, 564.415 687.738, 568.172 686.861, 572.097 686.283, 574.003 686.148, 574.449 686.049, 574.776 685.750, 576.124 685.222, 578.500 685.035, 578.957 684.548, 580.148 684.522, 580.211 684.492, 580.286 684.443, 580.404 684.354, 580.622 682.358, 585.506 682.877, 587.621 683.191, 590.055 681.763, 595.818 679.735, 600.548 679.803, 602.418 " fill="none" stroke="rgb(0, 0, 0)" stroke-linecap="butt" stroke-linejoin="round" stroke-opacity="1.0" stroke-width="3.0" />
            <path d=" M 427.094, 1002.871 425.818, 1000.742 424.043, 997.779 422.574, 992.692 419.477, 986.076 422.525, 992.238 424.311, 997.199 425.331, 998.775 425.478, 999.003 426.670, 1000.845 427.090, 1002.854 427.094, 1002.871 427.909, 1006.769 426.056, 1001.706 425.818, 1000.742 " fill="none" stroke="rgb(0, 0, 0)" stroke-linecap="butt" stroke-linejoin="round" stroke-opacity="1.0" stroke-width="3.0" />
            <path d=" M 679.753, 1067.148 683.202, 1066.774 684.316, 1066.653 690.620, 1062.855 692.946, 1062.390 697.529, 1061.475 699.449, 1060.602 700.284, 1060.073 705.194, 1056.958 706.106, 1056.526 714.702, 1052.453 719.403, 1050.583 723.820, 1049.573 724.595, 1048.684 " fill="none" stroke="rgb(0, 0, 0)" stroke-linecap="butt" stroke-linejoin="round" stroke-opacity="1.0" stroke-width="3.0" />
            <path d=" M 432.499, 984.392 432.467, 986.093 432.415, 988.814 432.592, 993.996 433.622, 999.628 435.156, 1004.031 439.605, 1011.962 444.543, 1020.658 445.057, 1021.564 446.338, 1023.001 450.611, 1025.483 452.664, 1026.676 " fill="none" stroke="rgb(0, 0, 0)" stroke-linecap="butt" stroke-linejoin="round" stroke-opacity="1.0" stroke-width="3.0" />
            <path d=" M 486.154, 769.114 483.231, 771.591 479.434, 775.636 478.862, 778.210 478.344, 788.085 477.718, 795.164 478.740, 798.535 480.892, 803.769 484.919, 805.661 485.785, 806.066 491.550, 803.463 " fill="none" stroke="rgb(0, 0, 0)" stroke-linecap="butt" stroke-linejoin="round" stroke-opacity="1.0" stroke-width="3.0" />
            <path d=" M 578.834, 667.348 581.124, 666.132 584.437, 664.372 588.636, 658.768 589.272, 656.277 589.399, 655.775 589.329, 654.889 589.080, 651.768 587.552, 649.480 584.721, 646.059 581.716, 642.910 578.591, 640.985 574.133, 637.649 573.837, 637.474 573.802, 637.454 573.394, 637.213 570.555, 635.535 567.452, 632.788 567.068, 632.448 " fill="none" stroke="rgb(0, 0, 0)" stroke-linecap="butt" stroke-linejoin="round" stroke-opacity="1.0" stroke-width="3.0" />
            <path d=" M 546.797, 1131.619 547.169, 1131.315 549.153, 1129.692 552.095, 1128.229 553.309, 1127.668 557.831, 1125.581 562.672, 1123.234 564.067, 1122.487 569.439, 1119.613 578.122, 1114.653 578.842, 1114.242 586.949, 1108.388 587.295, 1108.138 587.888, 1107.710 589.832, 1106.306 " fill="none" stroke="rgb(0, 0, 0)" stroke-linecap="butt" stroke-linejoin="round" stroke-opacity="1.0" stroke-width="3.0" />
            <path d=" M 793.321, 968.980 798.404, 965.366 800.622, 963.187 805.014, 957.135 808.389, 952.842 810.077, 948.040 812.230, 944.079 814.910, 938.342 815.707, 935.844 818.097, 929.872 818.362, 927.038 " fill="none" stroke="rgb(0, 0, 0)" stroke-linecap="butt" stroke-linejoin="round" stroke-opacity="1.0" stroke-width="3.0" />
            <path d=" M 709.001, 512.573 708.116, 514.058 707.250, 515.511 706.799, 516.268 703.647, 521.557 703.570, 522.802 700.648, 529.385 700.345, 533.832 697.943, 538.076 694.992, 543.292 693.198, 549.971 691.794, 553.389 691.624, 558.076 691.574, 559.450 " fill="none" stroke="rgb(0, 0, 0)" stroke-linecap="butt" stroke-linejoin="round" stroke-opacity="1.0" stroke-width="3.0" />
            <path d=" M 809.239, 474.476 809.261, 483.433 809.234, 487.427 809.209, 491.065 810.333, 501.002 810.619, 503.534 810.660, 503.896 810.828, 505.383 810.632, 507.138 810.045, 512.379 809.936, 516.507 809.806, 521.453 809.703, 525.377 " fill="none" stroke="rgb(0, 0, 0)" stroke-linecap="butt" stroke-linejoin="round" stroke-opacity="1.0" stroke-width="3.0" />
            <path d=" M 533.789, 580.683 532.821, 584.340 532.496, 585.567 532.276, 586.398 532.109, 587.029 530.959, 590.347 530.656, 591.219 530.575, 591.355 530.286, 591.840 529.399, 593.324 525.465, 599.911 522.191, 604.845 517.419, 610.698 509.545, 616.863 508.575, 617.623 506.256, 619.048 504.907, 620.020 504.066, 620.625 " fill="none" stroke="rgb(0, 0, 0)" stroke-linecap="butt" stroke-linejoin="round" stroke-opacity="1.0" stroke-width="3.0" />
            <path d=" M 518.591, 1026.912 520.799, 1024.328 524.867, 1021.534 524.944, 1021.482 525.916, 1020.814 534.995, 1016.624 535.298, 1016.484 544.380, 1013.370 549.365, 1010.678 550.719, 1008.828 550.723, 1008.822 554.841, 1003.194 555.890, 1000.848 556.138, 999.080 556.139, 999.073 556.161, 998.916 555.521, 996.132 555.501, 996.049 " fill="none" stroke="rgb(0, 0, 0)" stroke-linecap="butt" stroke-linejoin="round" stroke-opacity="1.0" stroke-width="3.0" />
            <path d=" M 656.242, 474.920 660.835, 472.845 664.317, 470.911 670.912, 463.393 671.263, 462.992 671.695, 461.435 672.081, 459.724 671.149, 458.317 670.833, 457.947 667.970, 458.396 666.776, 458.583 665.200, 455.708 662.839, 454.823 658.464, 456.196 655.542, 458.400 652.375, 460.524 651.302, 459.937 650.010, 456.488 649.818, 455.979 " fill="none" stroke="rgb(0, 0, 0)" stroke-linecap="butt" stroke-linejoin="round" stroke-opacity="1.0" stroke-width="3.0" />
            <path d=" M 610.586, 1100.593 611.419, 1100.587 619.314, 1100.532 620.288, 1100.525 624.136, 1100.474 632.134, 1094.471 632.855, 1093.930 635.254, 1089.176 641.010, 1084.188 645.681, 1082.671 650.536, 1082.082 650.649, 1082.068 650.848, 1082.044 654.569, 1083.186 655.979, 1083.618 " fill="none" stroke="rgb(0, 0, 0)" stroke-linecap="butt" stroke-linejoin="round" stroke-opacity="1.0" stroke-width="3.0" />
            <path d=" M 835.391, 368.650 834.820, 366.407 830.893, 357.210 829.562, 354.093 823.984, 345.775 823.636, 345.257 822.121, 344.268 821.362, 343.088 819.122, 339.606 817.813, 335.961 817.763, 335.824 817.755, 335.800 816.744, 333.861 818.295, 336.625 818.932, 337.760 819.814, 339.332 820.594, 340.541 820.777, 340.826 823.636, 345.257 " fill="none" stroke="rgb(0, 0, 0)" stroke-linecap="butt" stroke-linejoin="round" stroke-opacity="1.0" stroke-width="3.0" />
            <path d=" M 650.010, 456.488 650.782, 454.367 653.981, 448.637 655.941, 446.070 656.268, 445.417 656.733, 441.732 656.018, 439.535 654.788, 436.789 653.152, 435.099 650.850, 433.950 648.662, 433.469 646.978, 432.098 645.491, 430.748 644.403, 429.874 640.611, 427.585 638.784, 427.508 637.402, 428.390 636.356, 429.908 635.021, 432.953 634.440, 434.391 634.322, 434.682 633.147, 437.715 632.541, 437.795 631.062, 437.990 " fill="none" stroke="rgb(0, 0, 0)" stroke-linecap="butt" stroke-linejoin="round" stroke-opacity="1.0" stroke-width="3.0" />
            <path d=" M 832.042, 872.046 834.600, 870.533 834.720, 870.507 838.362, 869.739 840.823, 867.992 842.219, 865.473 843.781, 861.730 845.778, 857.151 846.141, 850.174 848.215, 844.656 848.074, 841.641 847.194, 836.734 847.542, 831.211 847.621, 824.080 " fill="none" stroke="rgb(0, 0, 0)" stroke-linecap="butt" stroke-linejoin="round" stroke-opacity="1.0" stroke-width="3.0" />
            <path d=" M 496.472, 1141.389 499.580, 1142.458 502.956, 1142.041 508.595, 1140.117 517.628, 1136.686 522.994, 1135.151 532.101, 1133.713 535.624, 1133.718 539.425, 1135.335 540.173, 1135.243 542.105, 1135.003 544.492, 1135.338 546.364, 1134.799 547.169, 1131.315 " fill="none" stroke="rgb(0, 0, 0)" stroke-linecap="butt" stroke-linejoin="round" stroke-opacity="1.0" stroke-width="3.0" />
            <path d=" M 476.286, 1096.033 477.285, 1102.691 477.245, 1110.748 478.655, 1117.256 479.036, 1120.522 479.031, 1120.775 480.077, 1124.834 480.679, 1126.702 482.903, 1130.342 484.694, 1132.220 486.314, 1134.645 487.631, 1138.115 487.729, 1138.417 488.462, 1140.118 491.657, 1141.517 493.427, 1141.519 496.472, 1141.389 497.063, 1141.364 " fill="none" stroke="rgb(0, 0, 0)" stroke-linecap="butt" stroke-linejoin="round" stroke-opacity="1.0" stroke-width="3.0" />
            <path d=" M 751.825, 785.432 751.250, 786.561 750.040, 789.021 748.811, 792.183 748.662, 792.593 747.536, 795.679 747.319, 796.231 746.859, 797.307 745.157, 801.527 744.814, 802.087 743.948, 804.414 743.264, 805.799 743.188, 805.954 741.629, 808.976 739.690, 812.013 738.226, 815.192 737.538, 819.006 737.023, 822.760 736.787, 828.193 736.875, 831.288 736.234, 837.245 736.155, 837.982 " fill="none" stroke="rgb(0, 0, 0)" stroke-linecap="butt" stroke-linejoin="round" stroke-opacity="1.0" stroke-width="3.0" />
            <path d=" M 585.127, 970.987 591.097, 966.274 591.111, 966.263 593.261, 964.566 594.695, 962.596 595.398, 957.446 597.294, 952.244 598.265, 946.047 598.428, 944.829 598.913, 934.840 598.919, 934.716 599.260, 928.542 598.992, 922.507 598.252, 918.102 " fill="none" stroke="rgb(0, 0, 0)" stroke-linecap="butt" stroke-linejoin="round" stroke-opacity="1.0" stroke-width="3.0" />
            <path d=" M 781.999, 312.540 783.995, 311.301 786.994, 311.342 788.915, 311.731 790.040, 312.273 791.463, 314.152 792.139, 315.523 793.438, 319.140 796.356, 321.422 794.429, 320.430 793.018, 320.219 789.317, 320.066 787.257, 319.981 784.977, 317.808 783.963, 316.806 782.577, 313.796 782.356, 313.316 782.222, 313.026 781.999, 312.540 780.521, 309.330 779.153, 308.823 777.305, 308.746 773.857, 309.518 771.948, 310.303 771.181, 310.709 770.205, 313.829 768.752, 316.707 " fill="none" stroke="rgb(0, 0, 0)" stroke-linecap="butt" stroke-linejoin="round" stroke-opacity="1.0" stroke-width="3.0" />
            <path d=" M 654.249, 1082.034 654.930, 1082.657 655.979, 1083.618 657.921, 1085.398 662.548, 1086.050 665.670, 1085.897 669.785, 1084.907 673.262, 1082.482 676.724, 1079.133 678.687, 1075.701 679.840, 1072.699 680.045, 1069.039 679.753, 1067.148 679.686, 1066.715 679.040, 1062.536 676.921, 1056.536 675.569, 1054.574 675.386, 1054.309 674.802, 1053.670 674.799, 1053.667 673.867, 1052.649 673.395, 1052.184 673.032, 1052.019 672.919, 1051.968 670.354, 1050.802 " fill="none" stroke="rgb(0, 0, 0)" stroke-linecap="butt" stroke-linejoin="round" stroke-opacity="1.0" stroke-width="3.0" />
            <path d=" M 864.508, 577.002 865.195, 568.859 865.298, 558.859 865.317, 556.963 865.693, 549.922 866.483, 539.953 866.766, 536.376 866.215, 529.848 865.374, 519.884 865.130, 516.987 " fill="none" stroke="rgb(0, 0, 0)" stroke-linecap="butt" stroke-linejoin="round" stroke-opacity="1.0" stroke-width="3.0" />
            <path d=" M 565.623, 548.078 563.568, 547.983 559.844, 550.729 559.346, 551.097 559.110, 551.271 558.506, 551.632 554.910, 553.783 550.855, 558.487 546.984, 566.001 541.860, 568.801 541.858, 568.802 541.702, 568.887 541.407, 569.048 541.152, 569.187 540.216, 569.699 535.841, 574.054 533.012, 578.695 530.944, 588.479 530.805, 589.137 529.399, 593.324 " fill="none" stroke="rgb(0, 0, 0)" stroke-linecap="butt" stroke-linejoin="round" stroke-opacity="1.0" stroke-width="3.0" />
            <path d=" M 416.733, 911.769 416.979, 912.318 421.076, 921.441 422.391, 924.371 422.707, 925.074 422.713, 925.088 422.771, 925.216 424.658, 929.958 426.032, 932.988 426.229, 933.424 426.714, 934.493 428.320, 938.582 429.586, 944.144 430.776, 951.531 432.139, 961.438 432.201, 961.884 432.801, 968.158 433.197, 970.542 " fill="none" stroke="rgb(0, 0, 0)" stroke-linecap="butt" stroke-linejoin="round" stroke-opacity="1.0" stroke-width="3.0" />
            <path d=" M 588.490, 534.504 588.533, 534.425 588.769, 533.989 589.889, 531.921 594.027, 524.278 594.916, 522.664 597.181, 518.553 599.364, 512.213 599.953, 510.175 599.587, 508.541 598.959, 506.596 597.295, 505.360 596.652, 504.882 592.862, 505.192 592.205, 505.550 592.051, 505.634 591.264, 506.063 590.658, 506.319 588.790, 507.108 588.073, 507.412 587.801, 507.682 586.209, 509.262 584.782, 510.678 583.990, 513.111 583.950, 513.411 583.727, 515.057 583.675, 515.446 583.585, 516.107 583.506, 516.693 582.754, 518.657 581.235, 522.628 581.165, 522.809 579.690, 525.916 " fill="none" stroke="rgb(0, 0, 0)" stroke-linecap="butt" stroke-linejoin="round" stroke-opacity="1.0" stroke-width="3.0" />
            <path d=" M 792.386, 630.385 791.773, 633.103 791.563, 635.301 790.956, 639.109 789.973, 643.317 789.940, 645.720 787.564, 648.055 787.549, 648.155 787.392, 649.226 787.324, 649.687 787.726, 651.930 787.924, 653.034 786.008, 656.605 787.068, 660.836 785.885, 666.045 785.216, 668.991 784.540, 675.790 784.522, 675.969 783.708, 684.149 782.937, 685.399 779.864, 690.383 779.687, 690.672 " fill="none" stroke="rgb(0, 0, 0)" stroke-linecap="butt" stroke-linejoin="round" stroke-opacity="1.0" stroke-width="3.0" />
            <path d=" M 738.294, 882.036 736.454, 881.745 733.101, 881.214 732.904, 881.520 731.344, 883.951 728.999, 889.061 725.943, 893.011 724.604, 894.564 724.025, 896.203 721.936, 902.120 722.525, 906.657 725.477, 911.366 729.387, 915.292 732.493, 916.275 736.280, 917.474 744.851, 919.771 744.988, 919.808 746.985, 920.344 747.556, 920.497 " fill="none" stroke="rgb(0, 0, 0)" stroke-linecap="butt" stroke-linejoin="round" stroke-opacity="1.0" stroke-width="3.0" />
            <path d=" M 605.521, 1151.112 608.313, 1150.610 610.278, 1150.256 610.634, 1149.666 614.358, 1148.040 619.208, 1145.710 623.619, 1142.868 626.383, 1141.834 630.686, 1137.056 632.830, 1133.858 634.802, 1130.887 637.733, 1127.041 642.091, 1121.636 646.255, 1116.836 649.093, 1114.331 652.173, 1110.404 653.103, 1109.218 " fill="none" stroke="rgb(0, 0, 0)" stroke-linecap="butt" stroke-linejoin="round" stroke-opacity="1.0" stroke-width="3.0" />
            <path d=" M 803.065, 425.362 802.978, 427.469 802.882, 429.789 803.263, 431.908 803.600, 433.779 803.639, 433.994 803.684, 434.244 803.830, 435.057 804.118, 436.755 804.205, 437.270 804.248, 437.524 804.255, 437.565 804.338, 438.055 805.046, 442.233 805.018, 451.195 805.892, 458.653 806.256, 461.757 806.476, 462.696 806.647, 463.426 806.858, 464.324 806.866, 464.359 807.004, 464.946 807.006, 464.953 807.196, 465.763 807.448, 466.836 808.781, 476.747 808.901, 477.636 809.129, 487.604 809.209, 491.065 " fill="none" stroke="rgb(0, 0, 0)" stroke-linecap="butt" stroke-linejoin="round" stroke-opacity="1.0" stroke-width="3.0" />
            <path d=" M 748.655, 1013.831 748.825, 1013.398 750.119, 1010.106 751.272, 1003.598 752.011, 1000.829 752.041, 991.256 751.883, 988.080 750.628, 984.090 749.392, 980.158 746.324, 975.668 745.474, 973.430 745.327, 969.628 741.275, 960.485 741.181, 960.274 738.708, 952.828 737.951, 951.818 735.530, 948.590 " fill="none" stroke="rgb(0, 0, 0)" stroke-linecap="butt" stroke-linejoin="round" stroke-opacity="1.0" stroke-width="3.0" />
            <path d=" M 689.172, 585.734 687.769, 588.830 686.239, 592.206 680.907, 600.666 679.803, 602.418 679.422, 603.023 678.675, 604.209 678.147, 605.046 677.690, 606.144 677.131, 607.489 676.651, 608.645 672.637, 617.804 671.076, 621.368 666.354, 630.182 663.841, 634.872 661.744, 639.079 658.617, 645.354 657.089, 647.855 " fill="none" stroke="rgb(0, 0, 0)" stroke-linecap="butt" stroke-linejoin="round" stroke-opacity="1.0" stroke-width="3.0" />
            <path d=" M 597.602, 480.272 598.049, 479.084 598.163, 478.781 600.562, 472.405 600.944, 469.347 603.674, 463.472 604.806, 458.064 607.615, 448.467 607.916, 447.440 608.454, 445.663 608.845, 444.371 610.357, 439.380 611.184, 436.650 612.450, 430.467 609.669, 427.906 609.529, 427.777 608.802, 427.344 605.046, 429.334 601.611, 433.432 601.579, 433.470 599.245, 436.255 " fill="none" stroke="rgb(0, 0, 0)" stroke-linecap="butt" stroke-linejoin="round" stroke-opacity="1.0" stroke-width="3.0" />
            <path d=" M 863.784, 641.569 864.389, 631.588 864.560, 628.758 864.692, 619.864 864.854, 612.459 864.517, 606.055 864.372, 596.056 864.363, 595.430 864.993, 588.222 864.824, 581.468 864.508, 577.002 864.198, 572.630 864.139, 569.237 " fill="none" stroke="rgb(0, 0, 0)" stroke-linecap="butt" stroke-linejoin="round" stroke-opacity="1.0" stroke-width="3.0" />
            <path d=" M 540.173, 1135.243 543.495, 1137.146 547.501, 1140.629 551.213, 1142.539 552.750, 1143.544 554.661, 1144.561 558.833, 1146.219 566.276, 1149.687 570.512, 1150.502 574.054, 1151.985 577.155, 1153.085 581.023, 1154.050 584.873, 1155.321 590.091, 1156.453 591.015, 1156.649 597.432, 1156.041 600.144, 1154.710 601.674, 1154.621 604.558, 1152.430 606.173, 1151.480 608.313, 1150.610 " fill="none" stroke="rgb(0, 0, 0)" stroke-linecap="butt" stroke-linejoin="round" stroke-opacity="1.0" stroke-width="3.0" />
            <path d=" M 724.025, 896.203 720.039, 892.338 716.375, 888.570 712.219, 884.815 708.112, 882.611 703.754, 880.777 698.669, 880.572 694.005, 880.413 686.984, 878.149 681.861, 874.880 677.949, 871.858 672.274, 867.561 667.737, 864.535 664.220, 862.321 664.081, 862.233 663.927, 862.070 663.860, 861.998 662.016, 860.044 660.915, 858.876 " fill="none" stroke="rgb(0, 0, 0)" stroke-linecap="butt" stroke-linejoin="round" stroke-opacity="1.0" stroke-width="3.0" />
            <path d=" M 710.691, 808.045 711.345, 807.122 716.607, 799.700 722.621, 794.938 723.053, 794.595 726.765, 792.022 726.779, 792.012 729.519, 790.112 734.917, 781.695 735.803, 780.312 739.559, 774.039 740.170, 772.369 741.894, 767.649 742.191, 760.556 742.202, 760.308 742.387, 750.439 742.072, 747.070 741.744, 743.564 741.721, 743.323 " fill="none" stroke="rgb(0, 0, 0)" stroke-linecap="butt" stroke-linejoin="round" stroke-opacity="1.0" stroke-width="3.0" />
            <path d=" M 722.621, 794.938 722.624, 795.457 722.176, 799.838 721.438, 804.102 719.525, 808.646 717.097, 813.313 715.851, 815.707 714.696, 817.420 712.365, 820.876 709.061, 824.049 707.146, 826.145 707.102, 826.183 702.425, 830.294 701.176, 831.529 700.320, 835.016 700.410, 837.360 703.424, 840.371 705.945, 841.101 707.894, 843.445 709.587, 844.571 711.576, 846.408 715.123, 848.924 718.446, 850.529 721.469, 853.824 722.681, 855.003 723.639, 855.933 " fill="none" stroke="rgb(0, 0, 0)" stroke-linecap="butt" stroke-linejoin="round" stroke-opacity="1.0" stroke-width="3.0" />
            <path d=" M 576.874, 909.251 578.690, 908.896 583.848, 905.411 585.285, 904.435 592.060, 899.833 593.334, 897.501 593.352, 897.468 593.511, 897.177 594.019, 896.247 595.513, 891.916 598.767, 885.623 601.438, 882.054 603.441, 879.378 604.674, 878.610 605.583, 878.043 609.617, 876.157 610.022, 875.967 612.094, 872.820 616.808, 869.756 620.314, 865.013 624.559, 860.763 627.280, 857.606 627.935, 855.396 627.943, 855.368 628.427, 853.735 628.592, 853.177 629.154, 851.281 629.311, 850.750 629.312, 850.747 629.357, 850.595 " fill="none" stroke="rgb(0, 0, 0)" stroke-linecap="butt" stroke-linejoin="round" stroke-opacity="1.0" stroke-width="3.0" />
            <path d=" M 558.256, 819.476 554.787, 820.876 548.959, 823.494 541.157, 826.260 535.587, 827.593 534.930, 827.751 530.135, 828.621 520.243, 830.082 518.688, 830.312 517.638, 830.384 511.159, 830.830 505.761, 829.950 504.693, 829.775 495.050, 827.487 489.855, 827.573 484.604, 830.684 482.914, 833.557 483.113, 835.122 483.217, 835.936 483.839, 840.810 " fill="none" stroke="rgb(0, 0, 0)" stroke-linecap="butt" stroke-linejoin="round" stroke-opacity="1.0" stroke-width="3.0" />
            <path d=" M 656.512, 1104.593 657.805, 1103.064 659.918, 1100.122 662.098, 1098.981 665.719, 1096.636 668.725, 1094.769 673.035, 1092.408 674.713, 1091.708 677.021, 1090.321 681.403, 1087.892 683.696, 1085.652 686.508, 1083.890 688.217, 1083.303 692.364, 1081.292 693.852, 1080.381 696.973, 1078.498 701.159, 1077.421 703.698, 1076.424 704.971, 1075.880 709.969, 1073.609 712.230, 1072.504 718.995, 1069.048 723.834, 1064.577 725.974, 1062.028 728.765, 1058.153 729.173, 1056.321 " fill="none" stroke="rgb(0, 0, 0)" stroke-linecap="butt" stroke-linejoin="round" stroke-opacity="1.0" stroke-width="3.0" />
            <path d=" M 759.870, 335.711 757.437, 335.225 753.854, 334.510 747.005, 334.446 739.983, 336.183 732.261, 339.213 726.331, 342.174 717.978, 347.672 717.694, 347.859 710.437, 354.438 707.702, 358.069 707.183, 359.110 706.658, 361.077 706.880, 362.788 708.628, 363.589 711.986, 363.150 714.619, 362.545 718.397, 361.305 725.885, 360.095 733.085, 360.103 " fill="none" stroke="rgb(0, 0, 0)" stroke-linecap="butt" stroke-linejoin="round" stroke-opacity="1.0" stroke-width="3.0" />
            <path d=" M 483.217, 835.936 482.361, 845.899 482.265, 847.010 484.060, 853.454 485.894, 856.355 485.971, 856.477 486.823, 857.823 486.842, 857.854 487.309, 858.592 488.172, 859.958 488.873, 861.066 492.844, 865.952 500.156, 871.892 504.805, 874.292 506.675, 875.259 507.082, 875.416 507.932, 875.746 508.190, 875.846 511.925, 876.890 512.892, 877.015 513.777, 877.129 514.262, 877.192 518.115, 877.690 519.227, 877.834 519.371, 877.852 520.055, 877.892 525.015, 878.178 534.203, 876.656 540.062, 875.706 546.869, 874.602 548.631, 874.317 " fill="none" stroke="rgb(0, 0, 0)" stroke-linecap="butt" stroke-linejoin="round" stroke-opacity="1.0" stroke-width="3.0" />
            <path d=" M 504.907, 620.020 501.610, 620.838 499.048, 622.271 491.759, 626.435 482.858, 630.992 481.497, 631.688 479.899, 632.487 474.046, 636.194 468.983, 639.581 462.212, 645.170 457.660, 649.727 455.005, 652.387 453.036, 654.678 450.658, 657.054 444.683, 665.073 444.368, 665.496 440.914, 670.849 437.559, 675.277 435.746, 679.469 " fill="none" stroke="rgb(0, 0, 0)" stroke-linecap="butt" stroke-linejoin="round" stroke-opacity="1.0" stroke-width="3.0" />
            <path d=" M 531.324, 663.376 531.528, 663.468 535.606, 665.318 539.100, 667.858 542.807, 670.979 546.799, 675.800 548.070, 678.399 549.938, 683.131 553.317, 689.602 555.921, 694.442 558.244, 697.760 560.553, 701.058 561.758, 702.531 565.370, 705.883 568.888, 707.368 574.536, 707.602 574.599, 707.604 576.776, 707.695 578.172, 707.021 579.727, 704.751 578.318, 696.986 578.129, 695.940 578.994, 691.613 579.711, 688.324 580.869, 683.017 " fill="none" stroke="rgb(0, 0, 0)" stroke-linecap="butt" stroke-linejoin="round" stroke-opacity="1.0" stroke-width="3.0" />
            <path d=" M 852.653, 731.618 854.075, 721.719 854.238, 720.585 854.775, 718.332 855.630, 711.210 857.298, 701.350 858.085, 696.693 859.418, 688.396 860.264, 679.405 861.327, 669.462 861.424, 668.551 861.939, 663.175 862.512, 656.718 862.820, 652.369 863.584, 642.889 863.780, 640.458 863.819, 639.978 863.784, 641.569 863.584, 642.889 " fill="none" stroke="rgb(0, 0, 0)" stroke-linecap="butt" stroke-linejoin="round" stroke-opacity="1.0" stroke-width="3.0" />
            <path d=" M 429.534, 754.747 430.366, 753.335 435.388, 744.801 437.189, 742.464 441.998, 736.224 448.665, 728.771 451.235, 725.897 458.085, 718.611 462.346, 714.079 468.197, 709.180 471.883, 706.655 476.824, 702.786 480.277, 700.210 483.113, 698.766 484.913, 697.483 488.731, 695.455 491.476, 693.233 494.424, 690.807 498.344, 688.668 501.001, 685.866 " fill="none" stroke="rgb(0, 0, 0)" stroke-linecap="butt" stroke-linejoin="round" stroke-opacity="1.0" stroke-width="3.0" />
            <path d=" M 580.411, 467.635 579.637, 467.747 576.366, 469.340 574.444, 472.779 573.445, 476.978 571.266, 482.651 568.149, 486.837 566.554, 489.364 561.869, 497.810 559.695, 501.869 556.453, 511.425 553.651, 518.961 550.241, 528.361 549.681, 529.907 548.408, 535.031 546.503, 542.954 544.598, 551.867 544.275, 555.361 543.400, 559.631 542.688, 563.864 " fill="none" stroke="rgb(0, 0, 0)" stroke-linecap="butt" stroke-linejoin="round" stroke-opacity="1.0" stroke-width="3.0" />
            <path d=" M 658.649, 645.760 657.089, 647.855 655.629, 649.817 655.585, 649.876 655.436, 650.076 649.465, 658.097 646.100, 662.618 639.860, 670.432 638.916, 671.614 631.593, 678.424 630.331, 679.597 625.400, 685.106 622.060, 687.912 620.498, 689.199 614.070, 694.540 605.817, 700.188 604.691, 700.958 599.239, 703.754 591.757, 707.591 588.897, 709.058 587.308, 709.524 577.653, 712.361 " fill="none" stroke="rgb(0, 0, 0)" stroke-linecap="butt" stroke-linejoin="round" stroke-opacity="1.0" stroke-width="3.0" />
            <path d=" M 579.905, 712.117 577.653, 712.361 575.513, 712.593 574.211, 712.766 574.068, 712.785 564.155, 714.104 562.968, 714.262 559.266, 715.779 549.583, 718.275 548.071, 718.664 543.185, 720.804 535.309, 724.589 527.871, 729.394 522.766, 732.328 514.766, 738.329 513.015, 739.643 509.430, 742.814 503.295, 748.507 500.315, 751.951 496.170, 756.884 492.768, 760.918 487.278, 767.258 486.154, 769.114 485.074, 770.898 " fill="none" stroke="rgb(0, 0, 0)" stroke-linecap="butt" stroke-linejoin="round" stroke-opacity="1.0" stroke-width="3.0" />
            <path d=" M 629.197, 732.425 628.745, 733.150 628.712, 733.202 628.448, 733.625 627.054, 735.859 625.131, 738.940 620.724, 747.150 618.401, 750.191 614.209, 759.270 614.110, 759.485 612.827, 761.288 612.294, 762.037 612.259, 762.086 611.606, 763.004 611.570, 763.055 611.543, 763.092 611.325, 763.399 611.286, 763.453 609.120, 766.497 606.016, 771.182 603.493, 774.988 599.846, 781.315 595.458, 787.231 590.638, 793.185 587.184, 796.632 584.324, 799.486 584.021, 799.788 583.971, 799.838 583.205, 800.602 582.608, 801.198 582.601, 801.205 582.508, 801.298 582.299, 801.507 582.204, 801.601 580.463, 803.338 580.421, 803.380 580.322, 803.479 580.237, 803.563 580.111, 803.689 579.583, 804.216 579.020, 804.778 573.170, 809.917 572.602, 810.298 565.559, 815.022 560.779, 818.288 558.256, 819.476 556.075, 820.504 " fill="none" stroke="rgb(0, 0, 0)" stroke-linecap="butt" stroke-linejoin="round" stroke-opacity="1.0" stroke-width="3.0" />
            <path d=" M 548.566, 1026.562 547.380, 1026.607 545.176, 1026.854 543.150, 1027.081 543.019, 1027.160 538.613, 1029.794 534.026, 1033.454 532.079, 1035.008 529.834, 1039.307 528.221, 1043.583 528.178, 1047.557 535.465, 1054.405 535.848, 1054.765 537.469, 1056.225 537.597, 1056.340 537.765, 1056.492 537.839, 1056.558 539.453, 1058.012 539.501, 1058.056 539.581, 1058.128 539.702, 1058.237 545.456, 1062.172 554.428, 1066.590 557.837, 1068.269 560.605, 1069.446 561.586, 1069.753 562.208, 1069.948 562.277, 1069.966 562.289, 1069.969 565.118, 1070.686 565.209, 1070.709 566.874, 1071.131 567.588, 1071.312 567.775, 1071.359 568.750, 1071.607 569.515, 1071.801 578.945, 1072.507 579.977, 1072.326 584.028, 1071.549 589.088, 1068.497 591.489, 1063.406 595.722, 1058.356 597.326, 1055.644 " fill="none" stroke="rgb(0, 0, 0)" stroke-linecap="butt" stroke-linejoin="round" stroke-opacity="1.0" stroke-width="3.0" />
            <path d=" M 677.688, 515.795 677.496, 513.975 677.688, 513.678 681.315, 508.064 686.578, 500.836 692.340, 493.661 698.269, 485.608 699.202, 484.341 703.544, 479.073 706.537, 475.637 708.898, 472.832 708.837, 469.766 706.353, 469.632 703.913, 470.286 703.268, 470.468 700.096, 471.712 698.924, 472.655 695.851, 474.055 690.584, 476.483 685.804, 479.810 684.528, 480.799 678.330, 484.217 670.130, 489.941 669.892, 490.107 664.898, 493.048 659.871, 496.866 656.046, 496.611 656.026, 496.610 654.478, 496.507 653.976, 496.473 " fill="none" stroke="rgb(0, 0, 0)" stroke-linecap="butt" stroke-linejoin="round" stroke-opacity="1.0" stroke-width="3.0" />
            <path d=" M 866.078, 511.084 866.159, 508.171 865.172, 500.069 864.728, 494.089 863.624, 490.604 863.065, 487.114 863.066, 480.842 861.672, 477.037 861.191, 471.861 859.641, 467.159 857.613, 457.367 857.070, 454.746 855.466, 448.237 853.081, 438.526 852.565, 436.420 850.966, 426.942 850.454, 422.745 848.915, 415.955 847.453, 410.948 846.898, 407.621 845.115, 399.929 843.948, 395.797 842.924, 392.172 " fill="none" stroke="rgb(0, 0, 0)" stroke-linecap="butt" stroke-linejoin="round" stroke-opacity="1.0" stroke-width="3.0" />
            <path d=" M 809.936, 516.507 809.165, 522.136 808.415, 527.614 806.649, 535.645 806.194, 539.192 805.434, 545.739 805.397, 546.054 804.693, 552.117 804.322, 553.845 802.887, 560.523 802.375, 562.907 802.366, 562.948 801.976, 564.764 801.318, 570.246 800.864, 574.036 800.741, 575.056 800.374, 577.674 799.242, 585.762 797.880, 595.484 797.845, 596.102 797.671, 599.225 796.267, 603.404 794.868, 608.363 794.707, 608.933 795.419, 611.879 795.610, 612.671 794.808, 617.062 793.722, 620.755 792.386, 630.385 792.107, 632.399 791.891, 633.957 791.558, 636.355 " fill="none" stroke="rgb(0, 0, 0)" stroke-linecap="butt" stroke-linejoin="round" stroke-opacity="1.0" stroke-width="3.0" />
            <path d=" M 403.353, 770.355 398.918, 776.281 394.208, 783.495 389.484, 792.308 388.289, 794.537 385.670, 800.543 383.705, 809.067 382.418, 816.683 381.648, 825.581 381.322, 830.064 381.097, 835.922 381.128, 840.121 382.600, 846.817 383.553, 850.636 385.442, 856.851 389.167, 864.354 391.716, 869.685 392.228, 870.818 395.237, 876.178 399.428, 882.597 405.051, 890.055 " fill="none" stroke="rgb(0, 0, 0)" stroke-linecap="butt" stroke-linejoin="round" stroke-opacity="1.0" stroke-width="3.0" />
            <path d=" M 739.669, 729.131 740.427, 720.723 739.415, 716.165 738.932, 708.633 738.926, 698.633 738.922, 692.659 740.069, 682.725 740.342, 680.361 741.493, 672.239 742.883, 662.336 744.273, 652.433 744.462, 651.081 746.367, 641.264 746.911, 638.461 748.868, 632.172 751.242, 626.803 753.677, 617.104 754.179, 615.108 754.751, 607.483 757.504, 597.870 758.573, 594.136 760.719, 584.369 761.227, 582.061 763.695, 572.371 765.717, 564.437 768.399, 554.804 768.906, 552.983 770.139, 547.263 771.963, 537.430 773.416, 529.596 775.462, 520.301 777.639, 510.541 779.749, 501.077 780.317, 497.967 782.080, 488.124 782.960, 483.212 785.041, 474.100 786.551, 464.215 788.061, 454.330 788.146, 453.779 788.657, 451.036 790.491, 441.206 790.654, 440.333 " fill="none" stroke="rgb(0, 0, 0)" stroke-linecap="butt" stroke-linejoin="round" stroke-opacity="1.0" stroke-width="3.0" />
        </g>
    </g>
</svg>
