<?xml version='1.0' encoding='ascii'?>
<svg xmlns="http://www.w3.org/2000/svg" height="1280" version="1.1" width="1280">
    <g id="RenderLayer_LineSet" inkscape:groupmode="lineset" inkscape:label="RenderLayer_LineSet" xmlns:inkscape="http://www.inkscape.org/namespaces/inkscape">
        <g id="strokes" inkscape:groupmode="layer" inkscape:label="strokes" xmlns:inkscape="http://www.inkscape.org/namespaces/inkscape">
            <path d=" M 823.596, 572.515 823.607, 572.395 823.612, 572.329 823.625, 572.192 823.629, 572.150 823.738, 570.939 823.749, 570.819 823.814, 570.093 824.713, 560.134 824.727, 559.979 825.984, 555.507 826.423, 553.948 826.662, 552.630 " fill="none" stroke="rgb(0, 0, 0)" stroke-linecap="butt" stroke-linejoin="round" stroke-opacity="1.0" stroke-width="3.0" />
            <path d=" M 507.478, 957.751 505.086, 959.853 503.930, 960.869 503.776, 961.004 503.502, 961.245 503.398, 961.336 503.375, 961.357 503.180, 961.527 502.018, 966.466 502.210, 970.030 504.146, 973.775 504.189, 973.858 504.163, 974.230 504.072, 975.510 " fill="none" stroke="rgb(0, 0, 0)" stroke-linecap="butt" stroke-linejoin="round" stroke-opacity="1.0" stroke-width="3.0" />
            <path d=" M 397.344, 834.839 395.599, 838.215 393.606, 847.821 393.023, 851.398 392.622, 854.510 " fill="none" stroke="rgb(0, 0, 0)" stroke-linecap="butt" stroke-linejoin="round" stroke-opacity="1.0" stroke-width="3.0" />
            <path d=" M 570.410, 639.144 570.768, 636.605 569.615, 632.553 569.582, 632.435 569.502, 632.155 569.498, 632.140 569.477, 632.068 569.488, 632.148 569.490, 632.165 569.532, 632.482 569.537, 632.525 569.549, 632.613 570.408, 639.128 570.410, 639.144 570.496, 639.799 570.188, 641.676 570.055, 642.483 570.054, 642.491 569.798, 644.050 569.626, 645.099 " fill="none" stroke="rgb(0, 0, 0)" stroke-linecap="butt" stroke-linejoin="round" stroke-opacity="1.0" stroke-width="3.0" />
            <path d=" M 496.590, 670.076 493.388, 673.072 488.420, 681.751 487.938, 682.592 487.160, 684.608 486.778, 685.598 486.424, 686.513 486.099, 687.355 " fill="none" stroke="rgb(0, 0, 0)" stroke-linecap="butt" stroke-linejoin="round" stroke-opacity="1.0" stroke-width="3.0" />
            <path d=" M 830.945, 691.413 831.522, 691.261 831.704, 691.213 832.325, 691.049 834.008, 691.237 834.033, 691.240 834.044, 691.233 836.788, 689.324 839.065, 683.292 840.282, 676.587 840.180, 675.618 " fill="none" stroke="rgb(0, 0, 0)" stroke-linecap="butt" stroke-linejoin="round" stroke-opacity="1.0" stroke-width="3.0" />
            <path d=" M 613.706, 1044.620 620.921, 1044.854 623.335, 1045.208 624.141, 1045.326 624.675, 1045.404 625.534, 1045.529 626.383, 1045.654 626.921, 1045.619 629.559, 1045.449 629.609, 1045.446 630.437, 1045.393 630.986, 1045.358 631.210, 1045.343 632.596, 1045.254 633.353, 1045.205 634.243, 1045.148 634.571, 1045.127 " fill="none" stroke="rgb(0, 0, 0)" stroke-linecap="butt" stroke-linejoin="round" stroke-opacity="1.0" stroke-width="3.0" />
            <path d=" M 592.872, 1066.777 594.419, 1067.407 596.887, 1068.411 597.265, 1068.499 599.185, 1068.943 602.653, 1069.747 604.603, 1067.235 604.737, 1066.741 604.333, 1065.325 603.695, 1063.092 603.668, 1062.997 603.510, 1062.443 602.795, 1059.941 " fill="none" stroke="rgb(0, 0, 0)" stroke-linecap="butt" stroke-linejoin="round" stroke-opacity="1.0" stroke-width="3.0" />
            <path d=" M 834.374, 906.984 834.350, 906.892 834.276, 906.609 833.614, 904.086 833.003, 901.754 832.757, 896.597 832.030, 893.545 832.020, 890.096 829.987, 886.795 " fill="none" stroke="rgb(0, 0, 0)" stroke-linecap="butt" stroke-linejoin="round" stroke-opacity="1.0" stroke-width="3.0" />
            <path d=" M 440.283, 981.908 442.637, 977.892 442.479, 974.213 442.022, 973.524 442.011, 973.508 438.421, 968.096 439.737, 969.520 439.895, 969.445 442.847, 968.058 " fill="none" stroke="rgb(0, 0, 0)" stroke-linecap="butt" stroke-linejoin="round" stroke-opacity="1.0" stroke-width="3.0" />
            <path d=" M 413.110, 739.958 413.120, 740.223 413.155, 741.189 413.207, 742.602 413.210, 742.704 413.211, 742.724 413.229, 743.211 413.234, 743.362 413.249, 743.755 413.256, 743.959 413.269, 744.302 413.270, 744.345 413.312, 744.981 413.346, 745.484 413.402, 746.328 417.094, 749.850 417.891, 749.906 418.803, 749.970 418.951, 749.981 419.913, 750.048 422.828, 751.137 426.480, 750.790 " fill="none" stroke="rgb(0, 0, 0)" stroke-linecap="butt" stroke-linejoin="round" stroke-opacity="1.0" stroke-width="3.0" />
            <path d=" M 648.547, 471.068 646.371, 474.536 645.718, 475.407 644.896, 476.505 643.592, 478.245 641.832, 480.595 640.293, 485.243 638.452, 489.378 " fill="none" stroke="rgb(0, 0, 0)" stroke-linecap="butt" stroke-linejoin="round" stroke-opacity="1.0" stroke-width="3.0" />
            <path d=" M 449.696, 782.569 449.235, 783.413 449.038, 783.775 447.103, 787.324 447.607, 789.604 449.218, 792.233 451.554, 799.290 451.832, 800.163 452.254, 801.487 452.271, 801.542 452.332, 801.733 452.460, 802.134 " fill="none" stroke="rgb(0, 0, 0)" stroke-linecap="butt" stroke-linejoin="round" stroke-opacity="1.0" stroke-width="3.0" />
            <path d=" M 601.802, 1045.337 605.329, 1043.540 615.329, 1043.542 616.988, 1043.542 622.259, 1041.536 " fill="none" stroke="rgb(0, 0, 0)" stroke-linecap="butt" stroke-linejoin="round" stroke-opacity="1.0" stroke-width="3.0" />
            <path d=" M 465.996, 976.287 464.123, 972.940 461.313, 969.148 459.291, 966.928 458.892, 966.251 457.111, 963.234 459.865, 967.936 " fill="none" stroke="rgb(0, 0, 0)" stroke-linecap="butt" stroke-linejoin="round" stroke-opacity="1.0" stroke-width="3.0" />
            <path d=" M 753.932, 614.829 754.108, 617.444 754.152, 619.226 754.271, 624.050 755.534, 629.124 757.331, 635.385 757.476, 635.985 " fill="none" stroke="rgb(0, 0, 0)" stroke-linecap="butt" stroke-linejoin="round" stroke-opacity="1.0" stroke-width="3.0" />
            <path d=" M 425.795, 984.167 424.802, 986.650 424.712, 986.874 424.804, 987.061 425.181, 987.823 425.662, 988.798 427.604, 990.147 430.510, 992.168 430.976, 992.492 432.617, 994.507 434.380, 995.725 438.910, 996.436 439.705, 996.261 " fill="none" stroke="rgb(0, 0, 0)" stroke-linecap="butt" stroke-linejoin="round" stroke-opacity="1.0" stroke-width="3.0" />
            <path d=" M 763.501, 693.645 762.550, 697.664 763.569, 703.292 763.959, 704.314 767.522, 713.658 767.806, 714.401 " fill="none" stroke="rgb(0, 0, 0)" stroke-linecap="butt" stroke-linejoin="round" stroke-opacity="1.0" stroke-width="3.0" />
            <path d=" M 749.162, 896.263 749.433, 896.279 753.210, 896.495 753.509, 896.512 753.512, 896.512 753.556, 896.515 754.830, 896.588 758.357, 896.723 759.563, 896.769 759.955, 896.725 761.854, 896.512 764.724, 896.191 764.845, 896.177 765.009, 896.244 768.194, 897.551 768.293, 897.592 768.305, 897.597 768.645, 897.736 769.198, 897.963 769.706, 898.171 770.517, 898.504 " fill="none" stroke="rgb(0, 0, 0)" stroke-linecap="butt" stroke-linejoin="round" stroke-opacity="1.0" stroke-width="3.0" />
            <path d=" M 460.353, 1002.004 462.705, 1004.109 466.364, 1007.383 467.150, 1008.084 468.035, 1008.671 470.743, 1010.468 478.223, 1015.225 " fill="none" stroke="rgb(0, 0, 0)" stroke-linecap="butt" stroke-linejoin="round" stroke-opacity="1.0" stroke-width="3.0" />
            <path d=" M 837.821, 665.236 839.241, 670.794 840.216, 676.260 840.180, 675.618 839.814, 669.233 839.582, 665.170 " fill="none" stroke="rgb(0, 0, 0)" stroke-linecap="butt" stroke-linejoin="round" stroke-opacity="1.0" stroke-width="3.0" />
            <path d=" M 584.934, 524.983 580.799, 524.259 578.417, 524.289 577.508, 524.387 568.359, 527.280 563.206, 529.731 " fill="none" stroke="rgb(0, 0, 0)" stroke-linecap="butt" stroke-linejoin="round" stroke-opacity="1.0" stroke-width="3.0" />
            <path d=" M 762.998, 630.767 762.694, 630.966 760.736, 632.247 759.431, 633.099 759.426, 633.103 757.476, 635.985 754.745, 640.020 753.699, 643.919 753.633, 645.414 754.473, 649.508 754.903, 649.933 " fill="none" stroke="rgb(0, 0, 0)" stroke-linecap="butt" stroke-linejoin="round" stroke-opacity="1.0" stroke-width="3.0" />
            <path d=" M 436.132, 761.752 435.371, 763.101 435.366, 763.110 431.360, 770.208 427.467, 777.106 427.359, 777.298 424.843, 781.756 " fill="none" stroke="rgb(0, 0, 0)" stroke-linecap="butt" stroke-linejoin="round" stroke-opacity="1.0" stroke-width="3.0" />
            <path d=" M 463.255, 1001.951 463.504, 1002.059 464.364, 1002.431 465.706, 1003.013 467.332, 1003.717 470.581, 1005.124 475.300, 1006.314 478.817, 1005.342 481.339, 1002.970 482.144, 1002.491 482.422, 1002.326 483.977, 1001.401 " fill="none" stroke="rgb(0, 0, 0)" stroke-linecap="butt" stroke-linejoin="round" stroke-opacity="1.0" stroke-width="3.0" />
            <path d=" M 793.859, 543.773 793.361, 549.762 793.412, 550.493 794.110, 560.434 794.956, 567.043 " fill="none" stroke="rgb(0, 0, 0)" stroke-linecap="butt" stroke-linejoin="round" stroke-opacity="1.0" stroke-width="3.0" />
            <path d=" M 566.216, 723.352 566.481, 723.129 573.608, 717.117 575.612, 715.407 576.241, 714.870 583.184, 708.946 583.986, 708.140 " fill="none" stroke="rgb(0, 0, 0)" stroke-linecap="butt" stroke-linejoin="round" stroke-opacity="1.0" stroke-width="3.0" />
            <path d=" M 799.141, 592.455 797.493, 599.149 797.143, 600.569 796.252, 610.314 796.204, 610.835 796.162, 611.295 796.183, 611.369 796.306, 611.806 796.359, 611.992 796.848, 613.729 796.852, 613.745 797.196, 614.966 797.353, 615.525 " fill="none" stroke="rgb(0, 0, 0)" stroke-linecap="butt" stroke-linejoin="round" stroke-opacity="1.0" stroke-width="3.0" />
            <path d=" M 796.988, 599.171 796.518, 601.728 796.051, 604.273 796.028, 604.732 795.769, 610.071 795.620, 613.144 795.573, 614.295 795.572, 614.326 795.566, 614.464 795.546, 614.970 795.420, 618.069 795.418, 618.117 795.353, 619.707 795.352, 619.731 795.235, 622.623 " fill="none" stroke="rgb(0, 0, 0)" stroke-linecap="butt" stroke-linejoin="round" stroke-opacity="1.0" stroke-width="3.0" />
            <path d=" M 706.474, 1020.917 711.747, 1017.709 716.560, 1012.893 722.501, 1006.672 722.850, 1006.306 724.197, 1004.895 " fill="none" stroke="rgb(0, 0, 0)" stroke-linecap="butt" stroke-linejoin="round" stroke-opacity="1.0" stroke-width="3.0" />
            <path d=" M 437.804, 758.934 438.578, 760.395 440.479, 763.857 440.500, 763.895 443.277, 769.090 443.885, 770.279 443.886, 770.281 445.184, 772.819 445.229, 772.906 445.251, 772.949 445.391, 773.224 446.994, 777.471 446.997, 777.481 447.056, 777.638 447.614, 779.117 448.320, 780.986 " fill="none" stroke="rgb(0, 0, 0)" stroke-linecap="butt" stroke-linejoin="round" stroke-opacity="1.0" stroke-width="3.0" />
            <path d=" M 626.251, 703.360 625.915, 702.933 623.129, 699.393 618.527, 694.159 616.033, 693.132 613.123, 691.309 608.633, 688.919 607.404, 688.745 " fill="none" stroke="rgb(0, 0, 0)" stroke-linecap="butt" stroke-linejoin="round" stroke-opacity="1.0" stroke-width="3.0" />
            <path d=" M 793.856, 914.397 802.571, 915.921 805.779, 917.487 810.084, 920.330 812.874, 922.095 813.450, 922.459 813.491, 922.485 813.612, 922.562 813.814, 922.681 814.771, 923.246 815.799, 923.853 816.232, 924.109 " fill="none" stroke="rgb(0, 0, 0)" stroke-linecap="butt" stroke-linejoin="round" stroke-opacity="1.0" stroke-width="3.0" />
            <path d=" M 723.553, 515.620 722.733, 513.529 722.672, 513.373 721.729, 510.965 721.071, 509.641 721.007, 509.512 720.776, 509.046 720.776, 509.046 720.758, 509.009 717.735, 504.288 715.307, 501.379 714.991, 501.067 713.233, 499.197 711.707, 497.786 709.265, 495.850 " fill="none" stroke="rgb(0, 0, 0)" stroke-linecap="butt" stroke-linejoin="round" stroke-opacity="1.0" stroke-width="3.0" />
            <path d=" M 766.918, 852.706 763.822, 848.631 762.562, 847.443 760.623, 845.614 758.233, 843.685 756.584, 842.353 753.646, 839.982 753.294, 839.698 751.864, 833.946 " fill="none" stroke="rgb(0, 0, 0)" stroke-linecap="butt" stroke-linejoin="round" stroke-opacity="1.0" stroke-width="3.0" />
            <path d=" M 792.482, 913.493 793.856, 914.397 798.986, 914.902 797.199, 914.571 794.668, 914.102 792.482, 913.493 788.045, 912.255 787.730, 912.014 783.003, 908.403 782.334, 907.892 " fill="none" stroke="rgb(0, 0, 0)" stroke-linecap="butt" stroke-linejoin="round" stroke-opacity="1.0" stroke-width="3.0" />
            <path d=" M 453.140, 798.770 452.990, 799.515 452.622, 801.332 452.460, 802.134 452.401, 802.427 453.590, 808.260 453.537, 808.948 453.049, 815.213 455.452, 821.018 456.216, 822.787 456.569, 823.213 " fill="none" stroke="rgb(0, 0, 0)" stroke-linecap="butt" stroke-linejoin="round" stroke-opacity="1.0" stroke-width="3.0" />
            <path d=" M 646.338, 1046.694 646.501, 1046.680 650.284, 1046.340 652.422, 1046.148 652.531, 1046.138 652.598, 1046.132 653.907, 1046.015 654.388, 1045.911 654.875, 1045.807 659.849, 1044.740 669.176, 1041.133 670.878, 1040.475 " fill="none" stroke="rgb(0, 0, 0)" stroke-linecap="butt" stroke-linejoin="round" stroke-opacity="1.0" stroke-width="3.0" />
            <path d=" M 772.058, 706.778 771.877, 708.435 771.825, 708.919 771.782, 709.313 771.771, 709.413 771.505, 711.854 770.688, 715.796 770.284, 717.748 769.295, 720.304 769.294, 720.305 766.537, 727.432 766.460, 727.536 764.098, 730.751 " fill="none" stroke="rgb(0, 0, 0)" stroke-linecap="butt" stroke-linejoin="round" stroke-opacity="1.0" stroke-width="3.0" />
            <path d=" M 501.351, 1034.309 501.387, 1034.347 504.820, 1037.803 507.595, 1039.650 509.220, 1039.483 512.218, 1041.584 513.461, 1041.749 523.443, 1042.355 524.585, 1042.424 " fill="none" stroke="rgb(0, 0, 0)" stroke-linecap="butt" stroke-linejoin="round" stroke-opacity="1.0" stroke-width="3.0" />
            <path d=" M 423.896, 799.481 420.426, 804.053 416.742, 813.349 413.057, 822.646 412.938, 822.947 " fill="none" stroke="rgb(0, 0, 0)" stroke-linecap="butt" stroke-linejoin="round" stroke-opacity="1.0" stroke-width="3.0" />
            <path d=" M 435.353, 961.058 435.076, 960.869 430.238, 957.567 429.874, 957.319 431.164, 959.591 434.525, 964.649 437.491, 968.473 438.381, 970.767 438.527, 971.142 439.661, 974.065 " fill="none" stroke="rgb(0, 0, 0)" stroke-linecap="butt" stroke-linejoin="round" stroke-opacity="1.0" stroke-width="3.0" />
            <path d=" M 796.993, 584.011 795.540, 590.315 795.675, 596.942 795.598, 603.213 795.597, 603.233 795.582, 604.519 795.769, 610.071 " fill="none" stroke="rgb(0, 0, 0)" stroke-linecap="butt" stroke-linejoin="round" stroke-opacity="1.0" stroke-width="3.0" />
            <path d=" M 782.906, 986.184 780.038, 986.807 779.023, 986.848 773.660, 988.320 768.065, 989.476 767.956, 989.499 762.955, 991.087 762.846, 991.121 762.825, 991.128 763.243, 991.152 768.065, 989.476 " fill="none" stroke="rgb(0, 0, 0)" stroke-linecap="butt" stroke-linejoin="round" stroke-opacity="1.0" stroke-width="3.0" />
            <path d=" M 747.571, 969.585 752.318, 964.615 759.407, 959.387 760.337, 955.661 759.176, 948.977 " fill="none" stroke="rgb(0, 0, 0)" stroke-linecap="butt" stroke-linejoin="round" stroke-opacity="1.0" stroke-width="3.0" />
            <path d=" M 420.564, 952.349 421.868, 954.689 427.424, 963.004 427.503, 963.121 431.674, 972.175 431.741, 972.296 433.525, 975.530 " fill="none" stroke="rgb(0, 0, 0)" stroke-linecap="butt" stroke-linejoin="round" stroke-opacity="1.0" stroke-width="3.0" />
            <path d=" M 542.138, 1046.197 544.883, 1046.874 550.430, 1048.242 560.145, 1050.611 568.152, 1052.563 " fill="none" stroke="rgb(0, 0, 0)" stroke-linecap="butt" stroke-linejoin="round" stroke-opacity="1.0" stroke-width="3.0" />
            <path d=" M 477.573, 734.305 476.095, 735.776 472.494, 739.361 471.838, 740.453 468.444, 746.103 468.141, 746.606 464.893, 752.012 461.693, 755.963 " fill="none" stroke="rgb(0, 0, 0)" stroke-linecap="butt" stroke-linejoin="round" stroke-opacity="1.0" stroke-width="3.0" />
            <path d=" M 827.597, 641.729 826.374, 639.217 824.414, 636.210 823.530, 634.727 822.290, 632.646 821.268, 630.930 819.824, 627.580 818.012, 623.375 817.248, 620.870 816.136, 617.224 " fill="none" stroke="rgb(0, 0, 0)" stroke-linecap="butt" stroke-linejoin="round" stroke-opacity="1.0" stroke-width="3.0" />
            <path d=" M 813.814, 922.681 818.038, 927.318 818.182, 927.475 818.184, 927.478 818.284, 927.588 818.400, 927.715 819.127, 928.513 820.215, 929.636 820.340, 929.765 820.549, 929.980 821.390, 930.849 825.753, 935.354 831.159, 943.521 " fill="none" stroke="rgb(0, 0, 0)" stroke-linecap="butt" stroke-linejoin="round" stroke-opacity="1.0" stroke-width="3.0" />
            <path d=" M 667.634, 775.600 667.628, 775.599 667.208, 775.516 663.503, 774.784 661.463, 773.319 661.440, 773.303 661.112, 773.067 656.931, 770.067 656.795, 769.898 654.505, 767.054 652.711, 764.826 652.034, 763.985 651.071, 762.790 651.065, 762.781 651.043, 762.755 650.914, 762.595 649.672, 761.052 649.401, 760.716 648.455, 759.541 648.415, 759.491 647.501, 758.356 " fill="none" stroke="rgb(0, 0, 0)" stroke-linecap="butt" stroke-linejoin="round" stroke-opacity="1.0" stroke-width="3.0" />
            <path d=" M 819.037, 603.024 820.479, 598.999 823.201, 589.377 823.391, 588.709 823.625, 585.899 825.501, 578.534 824.658, 575.763 " fill="none" stroke="rgb(0, 0, 0)" stroke-linecap="butt" stroke-linejoin="round" stroke-opacity="1.0" stroke-width="3.0" />
            <path d=" M 394.051, 865.481 394.091, 875.481 394.092, 875.741 394.232, 878.358 393.977, 882.413 395.721, 891.624 396.283, 893.537 " fill="none" stroke="rgb(0, 0, 0)" stroke-linecap="butt" stroke-linejoin="round" stroke-opacity="1.0" stroke-width="3.0" />
            <path d=" M 646.039, 1047.885 652.044, 1046.647 653.949, 1046.254 657.800, 1045.460 654.387, 1046.048 653.429, 1046.212 650.995, 1046.631 650.335, 1046.729 646.359, 1047.319 642.919, 1047.830 641.894, 1047.982 641.619, 1048.023 641.563, 1048.031 " fill="none" stroke="rgb(0, 0, 0)" stroke-linecap="butt" stroke-linejoin="round" stroke-opacity="1.0" stroke-width="3.0" />
            <path d=" M 493.186, 598.857 489.516, 601.185 481.619, 607.319 480.951, 607.839 479.443, 609.636 476.593, 613.469 475.816, 615.204 476.048, 619.530 " fill="none" stroke="rgb(0, 0, 0)" stroke-linecap="butt" stroke-linejoin="round" stroke-opacity="1.0" stroke-width="3.0" />
            <path d=" M 404.149, 920.183 405.672, 926.396 406.087, 928.090 409.736, 934.946 409.992, 935.427 412.322, 939.071 412.331, 939.088 415.875, 946.057 " fill="none" stroke="rgb(0, 0, 0)" stroke-linecap="butt" stroke-linejoin="round" stroke-opacity="1.0" stroke-width="3.0" />
            <path d=" M 733.379, 896.039 737.144, 895.857 739.750, 895.731 742.765, 895.531 744.357, 895.426 746.844, 894.740 748.874, 894.180 750.275, 894.132 752.353, 894.060 752.719, 894.047 758.349, 893.852 761.846, 893.731 " fill="none" stroke="rgb(0, 0, 0)" stroke-linecap="butt" stroke-linejoin="round" stroke-opacity="1.0" stroke-width="3.0" />
            <path d=" M 729.021, 609.519 731.744, 611.760 735.209, 613.127 736.952, 612.716 737.935, 612.178 739.751, 612.564 742.133, 615.544 747.068, 617.825 749.586, 618.387 752.730, 619.838 753.624, 619.802 754.152, 619.226 " fill="none" stroke="rgb(0, 0, 0)" stroke-linecap="butt" stroke-linejoin="round" stroke-opacity="1.0" stroke-width="3.0" />
            <path d=" M 532.199, 661.635 532.186, 661.558 533.169, 657.794 533.057, 657.712 533.051, 657.708 532.389, 657.222 531.472, 656.549 529.996, 655.817 526.863, 655.623 526.800, 655.619 526.795, 655.619 522.884, 655.376 521.959, 655.319 519.244, 655.265 519.181, 655.263 518.015, 655.240 517.859, 655.237 516.458, 655.209 513.463, 657.128 510.372, 660.060 " fill="none" stroke="rgb(0, 0, 0)" stroke-linecap="butt" stroke-linejoin="round" stroke-opacity="1.0" stroke-width="3.0" />
            <path d=" M 681.091, 603.245 681.190, 604.551 681.742, 605.970 682.864, 607.128 684.946, 608.010 690.385, 604.208 694.766, 601.126 695.043, 600.931 699.343, 596.823 700.726, 595.203 701.374, 594.444 701.751, 594.002 702.069, 593.629 " fill="none" stroke="rgb(0, 0, 0)" stroke-linecap="butt" stroke-linejoin="round" stroke-opacity="1.0" stroke-width="3.0" />
            <path d=" M 823.530, 634.727 822.088, 631.740 821.574, 630.675 818.690, 621.798 816.088, 615.745 815.589, 614.584 815.091, 612.030 815.042, 611.779 815.039, 611.761 814.152, 607.218 814.126, 607.082 " fill="none" stroke="rgb(0, 0, 0)" stroke-linecap="butt" stroke-linejoin="round" stroke-opacity="1.0" stroke-width="3.0" />
            <path d=" M 786.209, 862.956 787.521, 861.984 791.288, 858.173 794.024, 848.555 794.110, 848.252 796.874, 838.641 797.050, 838.030 797.478, 836.541 " fill="none" stroke="rgb(0, 0, 0)" stroke-linecap="butt" stroke-linejoin="round" stroke-opacity="1.0" stroke-width="3.0" />
            <path d=" M 699.916, 910.918 705.658, 907.910 713.631, 904.041 719.135, 901.102 720.499, 900.373 721.073, 900.067 722.559, 899.493 723.540, 899.115 726.481, 897.980 " fill="none" stroke="rgb(0, 0, 0)" stroke-linecap="butt" stroke-linejoin="round" stroke-opacity="1.0" stroke-width="3.0" />
            <path d=" M 698.934, 481.811 698.994, 481.644 699.026, 481.554 699.098, 481.353 699.249, 480.932 699.708, 479.645 699.773, 479.463 701.342, 475.068 702.592, 471.570 702.780, 470.725 703.288, 466.576 703.197, 462.388 703.462, 460.576 702.912, 455.723 700.770, 453.971 " fill="none" stroke="rgb(0, 0, 0)" stroke-linecap="butt" stroke-linejoin="round" stroke-opacity="1.0" stroke-width="3.0" />
            <path d=" M 649.824, 781.107 647.718, 779.456 647.715, 779.453 643.185, 775.901 640.101, 774.197 632.509, 773.866 623.368, 774.482 622.238, 774.559 " fill="none" stroke="rgb(0, 0, 0)" stroke-linecap="butt" stroke-linejoin="round" stroke-opacity="1.0" stroke-width="3.0" />
            <path d=" M 459.583, 688.145 458.020, 689.533 450.543, 696.173 450.238, 696.443 448.912, 699.114 446.193, 704.676 446.084, 705.975 444.070, 709.864 443.035, 712.259 " fill="none" stroke="rgb(0, 0, 0)" stroke-linecap="butt" stroke-linejoin="round" stroke-opacity="1.0" stroke-width="3.0" />
            <path d=" M 681.278, 771.076 681.219, 771.722 680.273, 773.398 678.776, 776.052 678.360, 776.427 677.223, 777.452 675.672, 778.850 675.339, 779.150 673.386, 780.910 672.343, 781.851 671.023, 782.420 667.413, 783.978 661.167, 784.968 656.814, 784.321 " fill="none" stroke="rgb(0, 0, 0)" stroke-linecap="butt" stroke-linejoin="round" stroke-opacity="1.0" stroke-width="3.0" />
            <path d=" M 553.383, 680.122 549.727, 677.146 548.081, 675.433 548.027, 675.393 543.576, 672.072 539.968, 670.442 536.999, 668.472 534.862, 666.030 534.370, 665.468 534.317, 665.408 534.103, 665.164 533.868, 664.895 532.911, 663.802 532.199, 661.635 532.180, 661.576 531.622, 659.882 " fill="none" stroke="rgb(0, 0, 0)" stroke-linecap="butt" stroke-linejoin="round" stroke-opacity="1.0" stroke-width="3.0" />
            <path d=" M 541.641, 990.401 543.635, 985.875 547.028, 982.669 548.184, 980.792 549.613, 975.499 549.032, 971.213 549.024, 971.153 548.674, 968.572 548.895, 962.276 " fill="none" stroke="rgb(0, 0, 0)" stroke-linecap="butt" stroke-linejoin="round" stroke-opacity="1.0" stroke-width="3.0" />
            <path d=" M 675.136, 600.652 675.128, 600.701 675.946, 602.123 676.720, 603.312 678.215, 604.257 681.091, 603.245 681.771, 603.006 682.774, 601.838 689.467, 594.408 690.174, 593.623 692.652, 590.063 695.296, 585.599 " fill="none" stroke="rgb(0, 0, 0)" stroke-linecap="butt" stroke-linejoin="round" stroke-opacity="1.0" stroke-width="3.0" />
            <path d=" M 839.814, 669.233 839.790, 666.075 839.156, 662.767 834.453, 653.942 834.100, 653.280 831.326, 647.160 827.597, 641.729 827.346, 641.365 " fill="none" stroke="rgb(0, 0, 0)" stroke-linecap="butt" stroke-linejoin="round" stroke-opacity="1.0" stroke-width="3.0" />
            <path d=" M 789.864, 885.055 789.864, 885.001 789.844, 879.014 790.986, 871.362 789.789, 868.669 786.209, 862.956 785.139, 861.249 785.031, 861.076 784.707, 860.559 784.440, 860.132 783.990, 859.424 782.986, 856.147 " fill="none" stroke="rgb(0, 0, 0)" stroke-linecap="butt" stroke-linejoin="round" stroke-opacity="1.0" stroke-width="3.0" />
            <path d=" M 667.524, 923.886 670.641, 922.752 670.756, 922.710 670.765, 922.707 670.844, 922.678 675.814, 920.870 682.373, 917.364 686.247, 915.219 686.667, 914.987 687.601, 914.470 692.294, 912.009 693.946, 911.143 695.538, 910.401 " fill="none" stroke="rgb(0, 0, 0)" stroke-linecap="butt" stroke-linejoin="round" stroke-opacity="1.0" stroke-width="3.0" />
            <path d=" M 569.477, 632.068 569.390, 631.812 568.779, 630.025 568.738, 629.906 568.592, 629.480 567.379, 625.931 566.040, 623.469 564.842, 621.266 562.589, 619.009 557.637, 615.691 554.166, 616.521 546.697, 618.391 " fill="none" stroke="rgb(0, 0, 0)" stroke-linecap="butt" stroke-linejoin="round" stroke-opacity="1.0" stroke-width="3.0" />
            <path d=" M 375.532, 787.193 376.886, 791.529 378.757, 794.043 382.577, 798.419 384.298, 800.467 386.490, 802.276 388.419, 804.055 390.158, 805.626 391.258, 807.239 392.625, 808.369 394.566, 809.230 395.667, 809.180 395.897, 809.169 396.179, 809.156 397.011, 809.119 " fill="none" stroke="rgb(0, 0, 0)" stroke-linecap="butt" stroke-linejoin="round" stroke-opacity="1.0" stroke-width="3.0" />
            <path d=" M 822.088, 631.740 820.752, 625.753 818.683, 615.969 818.517, 615.184 818.028, 612.874 818.060, 610.335 818.060, 610.330 818.102, 607.002 818.072, 606.643 818.071, 606.635 818.055, 606.433 818.048, 606.351 818.037, 606.215 818.015, 605.953 818.010, 605.895 818.010, 605.892 818.006, 605.839 818.001, 605.785 817.993, 605.678 817.974, 605.450 817.948, 605.135 817.910, 604.678 817.909, 604.665 817.732, 602.505 817.509, 599.789 " fill="none" stroke="rgb(0, 0, 0)" stroke-linecap="butt" stroke-linejoin="round" stroke-opacity="1.0" stroke-width="3.0" />
            <path d=" M 756.324, 547.060 754.055, 546.821 752.954, 545.892 752.460, 541.073 750.095, 538.563 746.673, 536.504 743.129, 534.804 741.439, 533.497 740.406, 532.559 738.099, 532.197 736.136, 530.964 734.560, 529.858 732.852, 528.109 " fill="none" stroke="rgb(0, 0, 0)" stroke-linecap="butt" stroke-linejoin="round" stroke-opacity="1.0" stroke-width="3.0" />
            <path d=" M 407.753, 811.674 406.759, 813.275 406.756, 813.280 406.420, 813.821 406.369, 813.902 405.818, 814.791 405.779, 814.854 402.996, 819.334 399.821, 826.506 398.732, 829.137 397.344, 834.839 395.699, 841.602 " fill="none" stroke="rgb(0, 0, 0)" stroke-linecap="butt" stroke-linejoin="round" stroke-opacity="1.0" stroke-width="3.0" />
            <path d=" M 782.748, 536.973 782.351, 536.835 782.279, 536.810 781.714, 536.615 780.123, 537.137 776.606, 540.676 775.459, 541.831 774.889, 542.566 774.657, 542.864 774.433, 543.153 774.266, 543.368 774.126, 543.647 774.104, 543.690 773.929, 544.039 773.002, 545.888 771.729, 550.377 772.475, 555.878 773.289, 558.468 773.440, 558.949 773.459, 559.009 773.595, 559.442 774.860, 563.469 775.018, 563.974 775.032, 564.019 " fill="none" stroke="rgb(0, 0, 0)" stroke-linecap="butt" stroke-linejoin="round" stroke-opacity="1.0" stroke-width="3.0" />
            <path d=" M 754.980, 760.385 750.696, 759.534 748.197, 759.106 747.468, 758.969 739.706, 757.543 735.057, 757.978 729.583, 759.678 726.350, 763.205 724.599, 765.190 " fill="none" stroke="rgb(0, 0, 0)" stroke-linecap="butt" stroke-linejoin="round" stroke-opacity="1.0" stroke-width="3.0" />
            <path d=" M 625.469, 1050.637 626.727, 1050.652 626.779, 1050.652 626.933, 1050.654 629.383, 1050.682 629.837, 1050.687 633.701, 1050.732 636.774, 1049.501 637.345, 1049.272 637.470, 1049.222 637.843, 1049.072 639.460, 1048.620 641.307, 1048.103 641.411, 1048.074 641.563, 1048.031 641.580, 1048.026 641.704, 1047.992 641.849, 1047.951 642.745, 1047.700 645.929, 1046.809 646.338, 1046.694 642.143, 1047.250 641.055, 1047.394 640.384, 1047.482 633.570, 1048.384 " fill="none" stroke="rgb(0, 0, 0)" stroke-linecap="butt" stroke-linejoin="round" stroke-opacity="1.0" stroke-width="3.0" />
            <path d=" M 633.064, 940.397 637.941, 938.172 642.932, 935.975 649.710, 932.992 650.714, 932.460 651.899, 931.831 652.887, 931.307 659.118, 928.003 661.311, 926.841 664.049, 925.389 664.055, 925.386 " fill="none" stroke="rgb(0, 0, 0)" stroke-linecap="butt" stroke-linejoin="round" stroke-opacity="1.0" stroke-width="3.0" />
            <path d=" M 603.558, 1066.134 603.494, 1065.617 603.461, 1065.346 603.403, 1064.876 603.395, 1064.815 603.376, 1064.657 603.372, 1064.626 603.335, 1064.329 603.170, 1062.989 603.158, 1062.888 602.795, 1059.941 602.786, 1059.871 602.752, 1059.597 602.953, 1059.231 604.746, 1055.962 607.667, 1055.047 607.716, 1055.032 607.800, 1055.006 607.849, 1054.990 608.716, 1054.719 610.547, 1054.145 611.976, 1053.555 612.262, 1053.436 614.067, 1052.691 614.374, 1052.645 614.393, 1052.642 614.724, 1052.593 617.139, 1052.233 617.151, 1052.231 617.595, 1052.165 617.841, 1052.128 618.306, 1052.059 618.690, 1052.001 618.806, 1051.986 622.044, 1051.551 622.768, 1051.454 622.962, 1051.395 625.469, 1050.637 626.134, 1050.436 627.034, 1050.164 627.080, 1050.150 627.565, 1050.004 627.570, 1050.002 627.720, 1049.957 " fill="none" stroke="rgb(0, 0, 0)" stroke-linecap="butt" stroke-linejoin="round" stroke-opacity="1.0" stroke-width="3.0" />
            <path d=" M 674.934, 596.310 674.995, 596.392 675.729, 597.375 676.078, 597.843 677.427, 598.200 678.101, 597.646 678.470, 597.342 679.841, 596.214 680.359, 594.963 682.315, 589.902 684.333, 585.750 686.581, 581.125 688.266, 576.492 688.867, 576.059 689.679, 575.473 691.598, 574.088 691.702, 574.013 692.122, 573.710 694.037, 572.328 " fill="none" stroke="rgb(0, 0, 0)" stroke-linecap="butt" stroke-linejoin="round" stroke-opacity="1.0" stroke-width="3.0" />
            <path d=" M 586.479, 520.623 585.425, 520.985 584.534, 521.291 581.806, 522.154 577.264, 523.111 573.918, 525.051 570.424, 525.560 563.859, 528.570 561.035, 531.031 558.745, 533.255 556.529, 536.541 " fill="none" stroke="rgb(0, 0, 0)" stroke-linecap="butt" stroke-linejoin="round" stroke-opacity="1.0" stroke-width="3.0" />
            <path d=" M 776.509, 781.495 774.647, 776.691 774.615, 776.611 773.942, 774.875 771.021, 771.439 770.317, 770.611 769.972, 770.205 769.766, 769.962 769.400, 769.532 768.974, 769.031 768.025, 767.915 767.986, 767.858 763.867, 761.934 762.627, 760.526 758.913, 759.109 756.562, 759.872 754.980, 760.385 752.988, 761.032 " fill="none" stroke="rgb(0, 0, 0)" stroke-linecap="butt" stroke-linejoin="round" stroke-opacity="1.0" stroke-width="3.0" />
            <path d=" M 780.678, 984.148 782.451, 985.768 782.884, 986.163 782.888, 986.167 782.906, 986.184 782.936, 986.211 785.071, 987.735 786.323, 988.400 789.886, 989.173 792.905, 989.364 793.450, 990.679 796.862, 991.305 801.119, 990.698 805.173, 989.583 809.714, 987.904 813.235, 986.511 " fill="none" stroke="rgb(0, 0, 0)" stroke-linecap="butt" stroke-linejoin="round" stroke-opacity="1.0" stroke-width="3.0" />
            <path d=" M 688.744, 608.045 684.902, 611.870 679.812, 617.965 674.997, 625.213 675.199, 629.151 677.073, 630.039 680.948, 628.425 684.529, 626.174 685.146, 625.787 " fill="none" stroke="rgb(0, 0, 0)" stroke-linecap="butt" stroke-linejoin="round" stroke-opacity="1.0" stroke-width="3.0" />
            <path d=" M 701.688, 594.156 701.592, 594.388 699.330, 599.897 698.994, 602.364 698.956, 602.642 699.134, 604.384 700.806, 605.314 701.012, 605.387 703.470, 605.400 708.757, 601.619 711.416, 598.448 712.992, 596.568 713.403, 596.078 713.487, 595.978 714.811, 595.818 715.011, 595.794 715.347, 595.753 715.369, 595.750 716.336, 595.633 721.656, 594.370 " fill="none" stroke="rgb(0, 0, 0)" stroke-linecap="butt" stroke-linejoin="round" stroke-opacity="1.0" stroke-width="3.0" />
            <path d=" M 400.093, 828.110 398.036, 833.289 397.906, 833.753 395.699, 841.602 393.402, 850.416 392.622, 854.510 393.288, 864.487 393.301, 864.670 " fill="none" stroke="rgb(0, 0, 0)" stroke-linecap="butt" stroke-linejoin="round" stroke-opacity="1.0" stroke-width="3.0" />
            <path d=" M 658.987, 719.202 654.567, 718.611 644.979, 715.770 643.191, 715.239 634.654, 710.032 632.906, 708.966 627.058, 703.366 625.915, 702.933 " fill="none" stroke="rgb(0, 0, 0)" stroke-linecap="butt" stroke-linejoin="round" stroke-opacity="1.0" stroke-width="3.0" />
            <path d=" M 668.207, 598.831 669.204, 599.465 669.858, 598.956 671.359, 597.474 672.173, 596.670 672.863, 595.249 673.466, 594.006 673.599, 593.732 673.699, 593.526 673.899, 593.116 674.996, 590.856 675.189, 590.458 675.238, 590.348 676.668, 587.082 676.668, 587.081 677.132, 586.022 677.509, 585.161 677.597, 584.830 677.730, 584.329 678.082, 583.002 678.088, 582.977 678.289, 582.219 678.416, 581.740 678.521, 577.288 680.106, 575.369 682.370, 574.313 683.010, 574.015 683.957, 573.573 684.456, 573.096 684.775, 572.791 686.010, 571.610 686.633, 571.014 686.906, 570.753 686.936, 570.724 686.948, 570.713 687.434, 570.248 687.667, 570.025 " fill="none" stroke="rgb(0, 0, 0)" stroke-linecap="butt" stroke-linejoin="round" stroke-opacity="1.0" stroke-width="3.0" />
            <path d=" M 552.411, 957.992 556.033, 956.812 562.517, 957.069 569.366, 957.341 574.540, 956.753 578.702, 955.599 583.781, 952.865 585.349, 951.883 586.737, 951.040 588.358, 950.056 " fill="none" stroke="rgb(0, 0, 0)" stroke-linecap="butt" stroke-linejoin="round" stroke-opacity="1.0" stroke-width="3.0" />
            <path d=" M 680.969, 734.798 679.445, 744.681 679.397, 744.991 677.656, 749.785 678.849, 755.690 679.144, 757.152 679.167, 757.265 681.056, 766.617 681.278, 771.076 681.323, 771.974 " fill="none" stroke="rgb(0, 0, 0)" stroke-linecap="butt" stroke-linejoin="round" stroke-opacity="1.0" stroke-width="3.0" />
            <path d=" M 545.719, 1033.210 546.890, 1036.206 550.277, 1040.868 551.521, 1043.528 552.698, 1044.562 555.887, 1047.226 558.010, 1048.186 559.136, 1048.694 562.134, 1050.048 565.503, 1050.938 568.009, 1051.823 568.584, 1052.026 571.448, 1053.037 571.800, 1053.107 575.085, 1053.763 " fill="none" stroke="rgb(0, 0, 0)" stroke-linecap="butt" stroke-linejoin="round" stroke-opacity="1.0" stroke-width="3.0" />
            <path d=" M 395.883, 882.549 395.782, 889.050 396.283, 893.537 396.537, 895.810 397.115, 900.318 399.902, 909.921 401.420, 915.152 401.893, 916.178 403.612, 919.905 " fill="none" stroke="rgb(0, 0, 0)" stroke-linecap="butt" stroke-linejoin="round" stroke-opacity="1.0" stroke-width="3.0" />
            <path d=" M 676.717, 600.674 678.220, 600.060 681.933, 595.345 684.592, 592.494 687.431, 589.449 689.005, 585.561 689.690, 584.087 689.710, 584.026 691.401, 578.920 692.478, 577.638 694.694, 576.731 694.778, 576.697 695.810, 576.275 695.964, 576.212 696.179, 576.124 697.941, 575.403 701.696, 573.836 " fill="none" stroke="rgb(0, 0, 0)" stroke-linecap="butt" stroke-linejoin="round" stroke-opacity="1.0" stroke-width="3.0" />
            <path d=" M 429.145, 965.416 423.765, 956.986 421.639, 953.654 420.564, 952.349 418.659, 950.033 415.875, 946.057 417.659, 947.366 417.669, 947.373 420.562, 949.495 423.420, 952.391 427.274, 956.148 " fill="none" stroke="rgb(0, 0, 0)" stroke-linecap="butt" stroke-linejoin="round" stroke-opacity="1.0" stroke-width="3.0" />
            <path d=" M 489.035, 671.508 484.979, 671.389 476.837, 671.876 473.621, 672.572 469.673, 674.866 467.531, 676.275 465.116, 679.292 462.907, 683.517 462.010, 684.721 461.867, 684.913 461.852, 684.933 459.783, 687.713 458.020, 689.533 " fill="none" stroke="rgb(0, 0, 0)" stroke-linecap="butt" stroke-linejoin="round" stroke-opacity="1.0" stroke-width="3.0" />
            <path d=" M 651.001, 611.696 652.768, 614.021 655.790, 616.007 657.251, 615.829 660.217, 612.089 660.683, 607.724 659.879, 600.071 659.703, 599.691 658.231, 596.529 657.497, 593.720 657.441, 593.505 657.514, 593.340 658.311, 591.540 658.430, 591.271 658.636, 590.808 658.940, 590.120 659.436, 589.002 660.308, 587.033 660.312, 587.025 660.379, 586.872 660.396, 586.835 660.401, 586.823 " fill="none" stroke="rgb(0, 0, 0)" stroke-linecap="butt" stroke-linejoin="round" stroke-opacity="1.0" stroke-width="3.0" />
            <path d=" M 702.237, 455.277 700.770, 453.971 696.466, 450.142 695.023, 449.163 692.235, 448.554 689.818, 448.540 685.209, 447.696 680.363, 448.828 677.885, 449.282 672.479, 450.409 669.332, 450.977 666.585, 454.231 665.925, 454.820 " fill="none" stroke="rgb(0, 0, 0)" stroke-linecap="butt" stroke-linejoin="round" stroke-opacity="1.0" stroke-width="3.0" />
            <path d=" M 821.714, 525.760 820.540, 523.099 818.009, 518.206 811.760, 515.145 808.373, 515.180 802.054, 518.496 798.993, 520.491 798.135, 523.028 797.369, 525.798 797.321, 526.637 797.289, 527.196 797.172, 529.254 797.026, 531.827 " fill="none" stroke="rgb(0, 0, 0)" stroke-linecap="butt" stroke-linejoin="round" stroke-opacity="1.0" stroke-width="3.0" />
            <path d=" M 639.715, 487.689 638.452, 489.378 636.232, 492.346 632.584, 497.838 628.279, 501.527 624.612, 505.543 617.713, 509.733 609.058, 514.743 608.755, 514.918 " fill="none" stroke="rgb(0, 0, 0)" stroke-linecap="butt" stroke-linejoin="round" stroke-opacity="1.0" stroke-width="3.0" />
            <path d=" M 663.745, 597.852 665.279, 599.415 667.767, 598.985 668.207, 598.831 668.521, 598.721 670.118, 598.163 671.033, 596.319 671.093, 596.198 671.095, 596.195 671.158, 596.068 671.545, 594.573 671.633, 594.235 671.647, 594.182 672.007, 592.792 672.259, 591.188 672.399, 590.295 672.428, 590.115 672.436, 590.063 673.053, 586.143 673.260, 584.828 672.539, 580.046 672.314, 578.555 673.335, 577.707 673.420, 577.636 673.826, 577.299 674.182, 576.870 674.538, 576.441 674.543, 576.435 674.899, 576.006 675.403, 575.398 676.717, 575.015 678.178, 574.218 678.554, 573.993 678.720, 573.894 678.749, 573.865 679.478, 573.137 679.506, 573.109 679.718, 572.897 680.695, 571.921 681.355, 571.261 681.371, 571.245 681.398, 571.218 681.483, 571.134 683.735, 568.884 683.811, 568.808 " fill="none" stroke="rgb(0, 0, 0)" stroke-linecap="butt" stroke-linejoin="round" stroke-opacity="1.0" stroke-width="3.0" />
            <path d=" M 759.004, 955.015 759.176, 948.977 759.216, 947.564 759.922, 942.712 760.744, 937.057 762.748, 930.017 763.178, 928.806 763.382, 928.233 763.531, 927.813 763.533, 927.807 763.535, 927.801 763.703, 927.328 767.049, 917.904 767.606, 916.335 770.564, 911.168 " fill="none" stroke="rgb(0, 0, 0)" stroke-linecap="butt" stroke-linejoin="round" stroke-opacity="1.0" stroke-width="3.0" />
            <path d=" M 646.109, 1049.935 650.111, 1051.502 654.177, 1052.121 655.941, 1052.369 660.892, 1051.736 668.138, 1050.301 671.808, 1048.624 675.407, 1047.005 678.098, 1045.685 682.519, 1043.352 684.369, 1042.198 686.424, 1039.255 687.029, 1035.933 " fill="none" stroke="rgb(0, 0, 0)" stroke-linecap="butt" stroke-linejoin="round" stroke-opacity="1.0" stroke-width="3.0" />
            <path d=" M 512.336, 657.616 512.114, 657.633 511.336, 657.694 509.262, 659.290 508.191, 660.954 506.681, 663.381 505.783, 664.824 504.665, 669.171 502.753, 677.937 499.597, 687.426 499.135, 688.814 499.122, 688.854 498.923, 689.450 498.592, 690.447 498.499, 690.727 498.100, 691.862 498.027, 692.070 497.748, 692.863 497.286, 694.176 497.269, 694.226 497.245, 694.294 496.879, 695.333 496.630, 695.888 496.601, 695.952 494.084, 701.561 " fill="none" stroke="rgb(0, 0, 0)" stroke-linecap="butt" stroke-linejoin="round" stroke-opacity="1.0" stroke-width="3.0" />
            <path d=" M 766.261, 631.904 765.811, 632.971 765.808, 632.978 765.725, 633.175 765.680, 633.281 765.535, 633.625 765.018, 634.852 764.409, 636.297 764.376, 636.390 764.108, 637.154 763.689, 638.351 763.649, 638.466 763.513, 638.855 762.689, 641.207 762.688, 641.211 762.686, 641.214 762.410, 642.004 762.376, 642.101 761.782, 643.797 761.590, 644.345 761.246, 645.327 759.810, 647.081 759.742, 647.163 759.703, 647.211 759.689, 647.228 759.624, 647.265 756.608, 648.969 754.903, 649.933 751.283, 651.979 749.777, 653.477 749.177, 655.915 749.349, 657.065 746.095, 664.218 747.273, 666.157 748.645, 667.102 753.607, 667.088 " fill="none" stroke="rgb(0, 0, 0)" stroke-linecap="butt" stroke-linejoin="round" stroke-opacity="1.0" stroke-width="3.0" />
            <path d=" M 797.321, 526.637 794.916, 532.683 794.482, 536.164 794.426, 536.610 794.420, 536.658 794.388, 536.912 794.374, 537.022 794.372, 537.045 794.363, 537.114 794.344, 537.265 794.322, 537.442 794.277, 537.802 794.271, 537.853 794.268, 537.870 794.258, 537.957 794.258, 537.958 794.258, 537.959 794.251, 538.013 794.215, 538.297 793.894, 540.867 793.894, 540.873 793.853, 541.197 793.854, 541.378 793.854, 541.487 793.859, 543.773 793.859, 544.027 793.861, 544.949 793.862, 545.491 793.869, 548.799 794.760, 558.759 794.773, 558.909 795.672, 565.529 796.439, 568.842 796.547, 569.309 797.114, 571.756 797.137, 571.855 797.145, 571.967 797.491, 576.767 " fill="none" stroke="rgb(0, 0, 0)" stroke-linecap="butt" stroke-linejoin="round" stroke-opacity="1.0" stroke-width="3.0" />
            <path d=" M 539.158, 573.143 535.344, 577.136 527.058, 582.734 526.109, 583.375 518.818, 586.678 509.602, 590.560 504.267, 592.806 499.315, 594.968 494.996, 597.708 " fill="none" stroke="rgb(0, 0, 0)" stroke-linecap="butt" stroke-linejoin="round" stroke-opacity="1.0" stroke-width="3.0" />
            <path d=" M 480.135, 728.111 480.937, 725.054 481.581, 722.602 481.596, 722.545 481.688, 722.196 483.588, 718.427 484.548, 716.522 484.704, 716.213 484.722, 716.192 485.525, 715.281 486.173, 714.547 488.450, 711.966 489.059, 711.275 489.190, 711.127 489.625, 710.633 490.124, 710.068 490.997, 708.192 492.436, 705.102 494.084, 701.561 492.442, 704.975 492.389, 705.071 490.592, 708.327 490.108, 709.204 489.418, 710.060 488.747, 710.891 486.099, 714.174 485.135, 715.369 485.132, 715.372 483.919, 716.415 482.893, 717.297 481.016, 718.911 " fill="none" stroke="rgb(0, 0, 0)" stroke-linecap="butt" stroke-linejoin="round" stroke-opacity="1.0" stroke-width="3.0" />
            <path d=" M 684.529, 626.174 688.713, 623.823 691.172, 622.090 696.619, 619.423 700.619, 617.338 704.471, 615.539 710.532, 612.359 711.331, 611.934 714.184, 609.333 714.196, 609.321 714.438, 609.101 717.437, 606.366 717.508, 606.313 718.779, 605.353 718.878, 605.279 719.864, 604.534 720.003, 604.523 720.293, 604.501 720.468, 604.487 720.909, 604.452 722.072, 604.361 726.960, 603.148 730.283, 602.324 730.956, 602.157 " fill="none" stroke="rgb(0, 0, 0)" stroke-linecap="butt" stroke-linejoin="round" stroke-opacity="1.0" stroke-width="3.0" />
            <path d=" M 822.501, 634.473 822.487, 634.446 822.476, 634.425 820.568, 630.788 819.590, 628.925 819.177, 628.137 817.939, 624.165 817.142, 621.610 816.986, 620.929 816.136, 617.224 815.941, 616.375 815.659, 615.146 815.483, 614.379 815.339, 614.140 815.048, 613.657 814.852, 613.331 814.598, 612.910 814.563, 612.853 814.561, 612.849 814.425, 612.624 813.991, 611.904 813.851, 610.263 813.784, 609.485 813.756, 609.165 813.264, 603.423 812.948, 599.737 814.205, 589.816 814.487, 587.589 817.676, 579.822 " fill="none" stroke="rgb(0, 0, 0)" stroke-linecap="butt" stroke-linejoin="round" stroke-opacity="1.0" stroke-width="3.0" />
            <path d=" M 815.048, 613.657 814.742, 612.653 814.706, 612.534 814.703, 612.525 813.938, 610.017 813.932, 609.717 813.725, 599.719 813.681, 597.590 815.023, 588.696 818.606, 581.850 819.026, 581.203 819.182, 580.963 820.163, 579.450 820.594, 578.786 821.012, 578.141 821.852, 576.840 821.885, 576.788 822.270, 576.192 822.474, 575.875 822.547, 575.763 822.587, 575.701 822.651, 575.601 822.697, 575.530 822.799, 575.372 822.820, 575.340 822.846, 575.299 822.895, 575.224 823.253, 574.669 823.360, 574.502 823.699, 573.977 823.885, 573.689 823.946, 573.596 823.981, 573.540 823.998, 573.514 824.133, 573.305 824.331, 572.998 825.428, 571.299 825.412, 567.576 825.679, 563.036 825.985, 555.547 825.984, 555.507 " fill="none" stroke="rgb(0, 0, 0)" stroke-linecap="butt" stroke-linejoin="round" stroke-opacity="1.0" stroke-width="3.0" />
            <path d=" M 580.856, 649.555 587.829, 645.297 590.803, 643.361 596.947, 638.887 601.749, 634.412 605.627, 631.724 608.856, 627.897 613.891, 623.366 616.782, 620.518 621.030, 615.189 622.179, 613.903 627.647, 607.787 " fill="none" stroke="rgb(0, 0, 0)" stroke-linecap="butt" stroke-linejoin="round" stroke-opacity="1.0" stroke-width="3.0" />
            <path d=" M 766.500, 944.698 766.516, 945.639 766.565, 948.574 766.566, 948.594 766.574, 949.116 766.571, 949.141 765.696, 955.363 763.279, 964.044 761.245, 968.733 758.594, 972.311 754.739, 977.768 750.949, 981.995 749.844, 984.327 749.293, 985.781 750.078, 988.994 754.136, 992.572 756.620, 992.584 761.291, 991.000 762.719, 991.111 " fill="none" stroke="rgb(0, 0, 0)" stroke-linecap="butt" stroke-linejoin="round" stroke-opacity="1.0" stroke-width="3.0" />
            <path d=" M 452.921, 708.131 448.304, 712.059 443.386, 712.246 443.035, 712.259 442.791, 712.269 436.732, 713.115 433.092, 714.883 427.238, 717.054 424.021, 719.272 419.632, 723.080 415.906, 727.420 413.527, 730.425 413.471, 730.495 413.031, 731.288 412.606, 732.054 412.256, 732.685 412.160, 732.858 412.131, 732.910 412.151, 733.596 412.152, 733.624 412.161, 733.930 412.249, 736.955 412.254, 737.151 412.257, 737.228 412.259, 737.316 412.265, 737.536 412.291, 738.406 412.297, 738.849 412.301, 739.117 412.308, 739.589 412.346, 742.260 412.356, 742.964 412.358, 743.080 412.361, 743.280 412.363, 743.461 412.365, 743.578 412.365, 743.589 412.370, 743.906 413.402, 746.328 " fill="none" stroke="rgb(0, 0, 0)" stroke-linecap="butt" stroke-linejoin="round" stroke-opacity="1.0" stroke-width="3.0" />
            <path d=" M 462.010, 684.721 458.189, 683.533 453.870, 684.027 444.262, 686.802 441.734, 687.532 434.136, 694.033 430.577, 697.079 425.809, 699.762 418.704, 702.065 415.424, 704.460 413.721, 705.754 407.932, 711.383 406.974, 712.315 406.834, 712.451 405.943, 713.316 405.745, 713.509 405.727, 713.527 405.715, 713.538 405.693, 713.560 405.575, 713.674 " fill="none" stroke="rgb(0, 0, 0)" stroke-linecap="butt" stroke-linejoin="round" stroke-opacity="1.0" stroke-width="3.0" />
            <path d=" M 829.171, 884.864 827.538, 877.445 827.289, 867.617 825.132, 857.852 824.428, 854.665 822.819, 850.603 820.288, 846.369 813.953, 838.632 813.697, 838.319 808.795, 833.286 804.713, 828.343 802.883, 826.592 801.493, 825.789 " fill="none" stroke="rgb(0, 0, 0)" stroke-linecap="butt" stroke-linejoin="round" stroke-opacity="1.0" stroke-width="3.0" />
            <path d=" M 791.700, 669.599 791.861, 666.770 792.040, 663.607 792.069, 663.094 792.084, 662.838 792.076, 662.269 791.978, 655.045 792.349, 651.991 792.367, 651.844 792.416, 651.442 793.109, 645.732 791.979, 651.444 791.814, 652.276 791.793, 652.382 791.508, 653.822 791.495, 653.888 791.034, 656.217 790.170, 660.586 789.690, 665.647 789.411, 668.597 788.677, 676.346 788.979, 684.717 789.112, 688.410 789.115, 688.479 789.171, 690.052 789.252, 692.301 " fill="none" stroke="rgb(0, 0, 0)" stroke-linecap="butt" stroke-linejoin="round" stroke-opacity="1.0" stroke-width="3.0" />
            <path d=" M 468.035, 1008.671 475.956, 1014.774 477.916, 1016.283 484.400, 1021.232 492.859, 1026.589 500.259, 1033.316 501.351, 1034.309 505.264, 1037.865 510.975, 1039.592 512.000, 1039.981 515.667, 1040.862 525.540, 1042.446 525.809, 1042.489 525.813, 1042.490 525.903, 1042.504 528.714, 1042.955 529.922, 1043.149 " fill="none" stroke="rgb(0, 0, 0)" stroke-linecap="butt" stroke-linejoin="round" stroke-opacity="1.0" stroke-width="3.0" />
            <path d=" M 746.607, 842.085 747.237, 840.965 748.394, 838.907 748.468, 838.776 750.924, 834.410 752.090, 832.336 753.286, 830.209 753.485, 829.731 753.500, 829.695 753.552, 829.572 756.375, 822.805 758.613, 816.625 761.446, 809.671 761.979, 808.569 762.093, 808.333 764.105, 804.174 766.915, 796.269 768.209, 794.711 769.511, 793.143 771.006, 791.679 771.980, 790.726 774.650, 788.111 776.137, 784.376 776.408, 784.013 778.642, 781.364 779.798, 779.471 779.913, 779.282 780.139, 777.414 780.202, 776.891 780.265, 776.374 780.268, 776.344 " fill="none" stroke="rgb(0, 0, 0)" stroke-linecap="butt" stroke-linejoin="round" stroke-opacity="1.0" stroke-width="3.0" />
            <path d=" M 683.684, 1034.549 684.704, 1034.035 687.162, 1032.799 687.815, 1032.470 692.576, 1030.074 701.416, 1025.296 706.474, 1020.917 698.135, 1026.435 693.906, 1029.234 689.407, 1031.392 687.766, 1032.297 687.098, 1032.665 684.654, 1034.014 683.684, 1034.549 674.928, 1039.379 674.700, 1039.505 665.368, 1043.098 664.670, 1043.367 657.800, 1045.460 " fill="none" stroke="rgb(0, 0, 0)" stroke-linecap="butt" stroke-linejoin="round" stroke-opacity="1.0" stroke-width="3.0" />
            <path d=" M 433.934, 756.008 434.527, 761.144 434.606, 761.831 433.758, 763.482 430.659, 769.514 430.657, 769.517 430.643, 769.544 430.195, 770.417 430.134, 770.511 430.124, 770.525 426.375, 776.314 426.368, 776.325 426.104, 776.732 426.093, 776.749 424.194, 779.680 418.027, 787.552 416.899, 788.991 409.822, 794.539 408.026, 796.910 408.065, 803.178 406.161, 812.420 405.274, 814.129 405.208, 814.256 402.884, 818.732 399.821, 826.506 " fill="none" stroke="rgb(0, 0, 0)" stroke-linecap="butt" stroke-linejoin="round" stroke-opacity="1.0" stroke-width="3.0" />
            <path d=" M 621.529, 773.866 620.093, 773.127 611.202, 768.550 609.817, 767.837 603.649, 765.740 600.061, 763.129 593.395, 755.675 587.972, 749.611 581.361, 743.689 581.261, 743.599 581.201, 743.546 579.765, 742.259 579.632, 742.188 577.711, 741.157 576.413, 740.460 574.377, 739.694 570.035, 739.621 568.836, 737.443 568.701, 737.197 568.570, 736.891 567.734, 734.940 566.677, 732.473 565.540, 729.819 565.618, 729.072 566.108, 724.385 566.216, 723.352 566.246, 723.065 566.312, 722.438 " fill="none" stroke="rgb(0, 0, 0)" stroke-linecap="butt" stroke-linejoin="round" stroke-opacity="1.0" stroke-width="3.0" />
            <path d=" M 554.746, 956.058 557.608, 954.042 557.868, 954.003 561.941, 953.391 567.781, 953.130 572.689, 952.842 580.036, 951.156 584.024, 950.974 585.038, 950.760 587.004, 950.345 588.200, 950.093 588.358, 950.056 593.030, 948.973 602.005, 947.739 603.512, 947.532 605.242, 947.634 606.026, 947.680 607.642, 947.776 617.642, 947.795 618.095, 947.796 621.424, 946.362 624.639, 944.977 624.746, 944.931 628.619, 943.262 633.064, 940.397 635.384, 938.901 " fill="none" stroke="rgb(0, 0, 0)" stroke-linecap="butt" stroke-linejoin="round" stroke-opacity="1.0" stroke-width="3.0" />
            <path d=" M 798.891, 686.913 798.997, 691.355 798.503, 695.114 796.863, 701.279 796.857, 704.684 798.886, 710.402 802.655, 714.838 809.262, 716.705 811.013, 716.527 818.194, 714.675 821.836, 711.095 826.052, 703.980 829.284, 696.869 830.273, 691.206 830.379, 690.601 830.524, 689.770 830.638, 689.119 830.686, 688.845 830.826, 688.379 832.151, 683.984 833.376, 679.917 " fill="none" stroke="rgb(0, 0, 0)" stroke-linecap="butt" stroke-linejoin="round" stroke-opacity="1.0" stroke-width="3.0" />
            <path d=" M 476.476, 617.755 476.048, 619.530 474.771, 624.818 477.562, 631.856 480.294, 634.545 486.739, 637.838 494.204, 639.592 500.651, 641.416 510.531, 642.961 516.725, 643.930 526.507, 646.005 527.074, 646.125 530.678, 647.058 531.089, 647.164 531.110, 647.169 536.033, 648.443 539.676, 649.061 547.433, 650.376 549.157, 650.668 549.201, 650.675 " fill="none" stroke="rgb(0, 0, 0)" stroke-linecap="butt" stroke-linejoin="round" stroke-opacity="1.0" stroke-width="3.0" />
            <path d=" M 402.111, 713.523 401.777, 713.606 399.834, 714.089 391.644, 719.828 391.474, 719.948 386.559, 724.860 382.079, 729.394 376.085, 737.399 375.796, 737.786 373.814, 741.118 372.406, 744.016 370.772, 747.872 369.796, 753.652 368.896, 759.349 369.086, 764.640 369.748, 769.248 370.394, 773.424 372.662, 781.685 374.767, 786.392 375.532, 787.193 376.908, 788.636 " fill="none" stroke="rgb(0, 0, 0)" stroke-linecap="butt" stroke-linejoin="round" stroke-opacity="1.0" stroke-width="3.0" />
            <path d=" M 809.958, 986.198 813.235, 986.511 813.383, 986.525 817.122, 984.943 821.985, 981.994 827.674, 977.719 833.229, 972.397 838.807, 964.097 839.329, 963.320 843.636, 954.215 846.036, 946.576 846.540, 940.979 846.834, 933.079 847.201, 923.086 847.312, 920.094 846.324, 914.451 844.843, 911.115 843.820, 910.623 " fill="none" stroke="rgb(0, 0, 0)" stroke-linecap="butt" stroke-linejoin="round" stroke-opacity="1.0" stroke-width="3.0" />
            <path d=" M 561.247, 535.224 559.235, 536.677 557.332, 538.269 556.816, 538.700 556.722, 538.779 556.406, 539.043 556.302, 539.130 556.162, 539.247 555.681, 539.650 555.199, 540.053 551.449, 544.784 544.871, 552.315 543.648, 553.716 540.741, 558.735 538.009, 567.192 538.872, 572.781 539.158, 573.143 542.430, 577.284 545.450, 581.965 545.504, 584.778 547.016, 585.192 551.867, 581.955 554.768, 581.702 559.920, 579.382 566.443, 573.247 569.567, 570.047 572.268, 567.508 572.688, 567.135 573.977, 565.984 " fill="none" stroke="rgb(0, 0, 0)" stroke-linecap="butt" stroke-linejoin="round" stroke-opacity="1.0" stroke-width="3.0" />
            <path d=" M 598.557, 684.404 597.699, 674.441 597.558, 672.803 597.036, 670.036 596.322, 667.682 594.005, 663.672 593.583, 663.079 584.703, 658.479 579.965, 656.024 577.804, 654.756 575.835, 653.477 575.551, 653.324 575.541, 653.319 572.608, 651.736 571.214, 651.584 562.396, 650.621 557.228, 650.140 553.170, 650.411 549.958, 650.625 549.247, 650.672 549.201, 650.675 549.147, 650.679 547.090, 650.816 542.639, 651.113 537.138, 652.164 537.000, 652.190 536.953, 652.199 533.019, 652.951 529.349, 653.711 527.982, 654.021 527.958, 654.027 527.885, 654.043 523.628, 655.009 522.884, 655.376 " fill="none" stroke="rgb(0, 0, 0)" stroke-linecap="butt" stroke-linejoin="round" stroke-opacity="1.0" stroke-width="3.0" />
            <path d=" M 669.933, 1040.745 674.140, 1038.918 681.040, 1035.921 681.571, 1035.690 682.939, 1034.924 684.603, 1033.991 687.071, 1032.608 687.748, 1032.229 687.809, 1032.195 689.397, 1031.305 694.839, 1028.057 700.613, 1024.612 703.101, 1022.987 708.870, 1019.218 712.830, 1014.238 715.264, 1012.764 716.668, 1011.915 717.334, 1011.511 717.661, 1011.313 720.340, 1008.407 721.997, 1006.609 723.507, 1005.433 724.197, 1004.895 724.466, 1004.686 726.748, 1002.224 733.352, 994.714 737.010, 990.555 740.348, 984.421 743.058, 978.893 745.226, 973.395 745.806, 971.924 746.086, 971.139 747.195, 968.036 748.207, 965.203 " fill="none" stroke="rgb(0, 0, 0)" stroke-linecap="butt" stroke-linejoin="round" stroke-opacity="1.0" stroke-width="3.0" />
            <path d=" M 458.550, 834.153 458.707, 836.307 458.708, 836.309 458.745, 836.822 458.860, 838.401 458.864, 841.237 460.581, 847.963 460.695, 848.374 463.993, 857.815 464.028, 857.915 467.084, 866.792 468.868, 873.700 469.620, 878.593 469.828, 885.039 472.273, 888.284 476.767, 892.263 481.789, 899.057 484.325, 904.558 487.981, 910.300 492.369, 915.849 493.358, 916.820 499.625, 922.970 502.759, 925.769 502.804, 925.810 502.904, 925.899 508.590, 930.977 509.086, 931.693 509.100, 931.714 509.696, 932.574 511.482, 935.151 511.686, 935.445 " fill="none" stroke="rgb(0, 0, 0)" stroke-linecap="butt" stroke-linejoin="round" stroke-opacity="1.0" stroke-width="3.0" />
            <path d=" M 608.030, 688.927 607.404, 688.745 603.617, 687.644 599.113, 687.081 593.454, 686.373 583.480, 687.084 573.505, 687.795 570.879, 687.983 565.216, 689.733 563.957, 690.260 554.663, 693.951 553.135, 694.558 552.433, 695.091 549.719, 697.150 548.247, 698.267 540.790, 704.023 533.713, 711.088 532.824, 711.976 526.948, 719.600 523.062, 727.198 521.258, 732.340 521.509, 741.611 525.487, 745.193 531.226, 753.382 532.060, 754.573 535.507, 763.960 536.099, 765.570 536.437, 766.492 " fill="none" stroke="rgb(0, 0, 0)" stroke-linecap="butt" stroke-linejoin="round" stroke-opacity="1.0" stroke-width="3.0" />
            <path d=" M 682.035, 822.954 682.714, 822.790 684.185, 822.437 684.339, 822.400 684.411, 822.383 687.766, 821.576 688.250, 821.459 688.462, 821.408 690.222, 820.985 690.275, 820.988 695.322, 821.259 696.312, 821.633 696.385, 821.660 696.386, 821.661 697.164, 821.954 699.502, 822.836 703.050, 819.911 703.681, 819.391 706.483, 817.081 709.437, 810.229 710.709, 805.154 712.425, 795.303 712.512, 794.803 712.618, 784.804 712.663, 780.562 712.646, 780.440 712.273, 777.822 711.348, 771.336 708.780, 761.671 708.053, 758.937 703.587, 749.989 701.231, 745.270 698.545, 741.199 693.038, 732.852 691.889, 731.112 688.826, 726.921 685.046, 723.674 680.487, 721.035 677.727, 720.039 674.007, 719.670 670.910, 719.814 668.473, 719.586 664.158, 719.294 660.902, 718.690 658.987, 719.202 657.860, 719.503 " fill="none" stroke="rgb(0, 0, 0)" stroke-linecap="butt" stroke-linejoin="round" stroke-opacity="1.0" stroke-width="3.0" />
            <path d=" M 800.570, 827.953 801.386, 826.252 801.493, 825.789 801.967, 823.735 801.999, 820.641 802.123, 818.285 801.455, 816.820 795.238, 808.988 793.865, 807.258 789.705, 802.411 787.504, 799.846 787.176, 799.464 786.431, 796.817 785.870, 794.823 785.673, 793.275 784.444, 787.924 783.995, 785.971 783.975, 785.885 783.961, 785.822 783.951, 785.782 783.524, 783.921 782.411, 779.080 782.309, 778.635 781.765, 776.270 780.115, 772.423 780.102, 772.394 779.200, 770.290 776.629, 765.048 773.473, 759.579 768.108, 751.153 767.580, 750.324 767.092, 749.557 763.515, 745.201 756.030, 738.570 755.569, 738.161 754.880, 737.551 754.634, 737.333 754.453, 737.172 746.134, 731.623 745.624, 731.283 739.798, 728.619 732.737, 726.714 731.286, 726.663 728.479, 726.675 725.019, 727.725 720.200, 729.613 712.560, 733.463 703.611, 737.926 703.483, 737.990 698.545, 741.199 " fill="none" stroke="rgb(0, 0, 0)" stroke-linecap="butt" stroke-linejoin="round" stroke-opacity="1.0" stroke-width="3.0" />
            <path d=" M 782.411, 779.080 783.987, 780.236 784.713, 780.769 785.035, 781.005 785.177, 781.109 786.233, 781.884 789.195, 784.448 793.103, 787.830 799.184, 792.217 807.277, 798.092 808.572, 799.032 817.476, 803.312 827.462, 803.831 830.596, 803.994 835.728, 803.053 842.033, 796.738 843.938, 793.998 844.824, 792.409 843.948, 782.447 843.916, 782.088 842.453, 776.308 839.467, 766.764 838.500, 763.673 835.578, 754.109 835.216, 752.921 831.527, 743.626 831.164, 742.714 829.043, 732.942 828.994, 732.718 827.936, 722.774 826.878, 712.831 826.718, 711.327 827.589, 702.820 830.930, 693.395 831.193, 692.654 831.704, 691.213 " fill="none" stroke="rgb(0, 0, 0)" stroke-linecap="butt" stroke-linejoin="round" stroke-opacity="1.0" stroke-width="3.0" />
        </g>
    </g>
</svg>
