<?xml version='1.0' encoding='ascii'?>
<svg xmlns="http://www.w3.org/2000/svg" height="1280" version="1.1" width="1280">
    <g id="RenderLayer_LineSet" inkscape:groupmode="lineset" inkscape:label="RenderLayer_LineSet" xmlns:inkscape="http://www.inkscape.org/namespaces/inkscape">
        <g id="strokes" inkscape:groupmode="layer" inkscape:label="strokes" xmlns:inkscape="http://www.inkscape.org/namespaces/inkscape">
            <path d=" M 550.228, 488.524 546.058, 495.413 541.563, 503.774 541.045, 506.223 " fill="none" stroke="rgb(0, 0, 0)" stroke-linecap="butt" stroke-linejoin="round" stroke-opacity="1.0" stroke-width="3.0" />
            <path d=" M 602.733, 392.738 596.901, 400.861 595.586, 402.694 593.485, 406.147 592.551, 407.684 592.247, 408.182 591.529, 409.364 " fill="none" stroke="rgb(0, 0, 0)" stroke-linecap="butt" stroke-linejoin="round" stroke-opacity="1.0" stroke-width="3.0" />
            <path d=" M 784.976, 794.755 789.613, 787.730 790.878, 783.687 791.230, 780.463 791.451, 778.432 791.660, 776.223 " fill="none" stroke="rgb(0, 0, 0)" stroke-linecap="butt" stroke-linejoin="round" stroke-opacity="1.0" stroke-width="3.0" />
            <path d=" M 745.719, 878.207 741.677, 883.979 740.616, 889.370 740.006, 892.465 739.935, 892.825 739.933, 892.837 739.442, 893.551 739.217, 893.876 738.599, 894.775 737.599, 896.227 " fill="none" stroke="rgb(0, 0, 0)" stroke-linecap="butt" stroke-linejoin="round" stroke-opacity="1.0" stroke-width="3.0" />
            <path d=" M 760.094, 809.506 757.874, 808.072 752.199, 807.326 752.086, 807.349 750.017, 807.770 749.826, 807.809 749.657, 807.843 749.137, 807.949 749.017, 807.974 746.557, 808.373 746.296, 808.664 745.081, 810.017 742.384, 812.816 " fill="none" stroke="rgb(0, 0, 0)" stroke-linecap="butt" stroke-linejoin="round" stroke-opacity="1.0" stroke-width="3.0" />
            <path d=" M 628.431, 813.698 629.327, 809.449 628.143, 806.308 627.342, 804.951 626.150, 804.101 622.592, 805.124 621.548, 805.846 618.184, 808.173 617.687, 807.932 " fill="none" stroke="rgb(0, 0, 0)" stroke-linecap="butt" stroke-linejoin="round" stroke-opacity="1.0" stroke-width="3.0" />
            <path d=" M 469.158, 612.455 469.340, 612.011 470.427, 609.360 470.447, 609.310 470.650, 608.815 471.941, 605.664 472.572, 600.247 474.918, 593.194 475.008, 592.986 " fill="none" stroke="rgb(0, 0, 0)" stroke-linecap="butt" stroke-linejoin="round" stroke-opacity="1.0" stroke-width="3.0" />
            <path d=" M 509.043, 602.761 511.800, 604.942 514.476, 610.516 516.794, 612.820 518.551, 614.784 520.991, 616.068 521.570, 616.079 522.052, 616.088 522.089, 616.089 523.235, 616.110 " fill="none" stroke="rgb(0, 0, 0)" stroke-linecap="butt" stroke-linejoin="round" stroke-opacity="1.0" stroke-width="3.0" />
            <path d=" M 756.451, 837.674 756.251, 837.695 754.171, 836.757 751.855, 835.860 751.415, 835.690 750.171, 835.209 749.874, 835.094 749.833, 835.078 749.801, 835.065 749.623, 834.997 747.396, 834.134 746.793, 834.578 746.727, 834.626 744.637, 836.162 743.967, 839.015 743.955, 839.069 743.918, 839.464 743.901, 839.647 743.855, 840.138 743.837, 840.326 743.690, 841.901 743.558, 843.688 " fill="none" stroke="rgb(0, 0, 0)" stroke-linecap="butt" stroke-linejoin="round" stroke-opacity="1.0" stroke-width="3.0" />
            <path d=" M 577.564, 565.549 577.541, 566.456 577.516, 567.440 578.591, 568.003 579.274, 567.914 580.629, 567.736 580.941, 567.683 583.994, 567.161 586.992, 567.663 591.993, 568.592 594.071, 569.330 594.443, 569.463 594.465, 569.147 594.497, 568.678 594.536, 567.969 " fill="none" stroke="rgb(0, 0, 0)" stroke-linecap="butt" stroke-linejoin="round" stroke-opacity="1.0" stroke-width="3.0" />
            <path d=" M 678.573, 437.168 678.634, 438.017 678.901, 441.745 679.123, 444.834 679.315, 444.888 681.320, 445.454 683.080, 445.756 686.248, 445.379 687.465, 445.234 687.551, 445.224 687.849, 445.188 690.378, 444.887 690.868, 444.829 691.293, 444.778 691.623, 444.739 692.099, 444.682 " fill="none" stroke="rgb(0, 0, 0)" stroke-linecap="butt" stroke-linejoin="round" stroke-opacity="1.0" stroke-width="3.0" />
            <path d=" M 465.927, 537.879 465.406, 538.152 464.834, 538.451 464.069, 541.440 463.291, 543.763 462.826, 546.762 463.216, 549.281 463.651, 551.626 464.389, 556.264 464.425, 556.489 464.529, 557.147 464.585, 557.498 464.601, 557.599 464.602, 557.607 464.625, 557.749 " fill="none" stroke="rgb(0, 0, 0)" stroke-linecap="butt" stroke-linejoin="round" stroke-opacity="1.0" stroke-width="3.0" />
            <path d=" M 764.061, 595.732 764.919, 596.358 765.434, 596.734 765.584, 596.844 765.812, 597.010 766.078, 597.204 767.731, 598.411 769.988, 600.059 771.586, 601.098 772.261, 601.537 772.414, 601.637 773.401, 602.279 773.449, 602.285 773.551, 602.298 774.375, 602.403 774.559, 602.426 776.205, 602.636 777.064, 602.068 778.240, 601.292 778.378, 601.201 778.825, 600.905 778.987, 600.799 779.086, 600.733 779.172, 600.676 779.233, 600.636 780.214, 599.988 780.326, 599.914 780.629, 599.714 780.878, 599.549 781.833, 598.918 781.870, 598.894 781.943, 598.846 " fill="none" stroke="rgb(0, 0, 0)" stroke-linecap="butt" stroke-linejoin="round" stroke-opacity="1.0" stroke-width="3.0" />
            <path d=" M 600.070, 920.799 600.331, 921.804 600.385, 922.013 602.472, 930.048 602.506, 930.179 602.631, 930.662 602.642, 930.692 602.671, 930.770 602.800, 931.121 603.387, 932.721 603.389, 932.726 603.902, 934.124 603.932, 934.205 603.886, 934.091 603.282, 932.583 603.280, 932.579 602.590, 930.857 602.454, 930.518 602.425, 930.444 601.957, 929.275 601.172, 927.316 " fill="none" stroke="rgb(0, 0, 0)" stroke-linecap="butt" stroke-linejoin="round" stroke-opacity="1.0" stroke-width="3.0" />
            <path d=" M 630.903, 716.680 638.170, 717.928 638.963, 718.064 641.799, 717.477 643.605, 716.928 645.254, 716.780 648.700, 714.472 650.968, 712.802 " fill="none" stroke="rgb(0, 0, 0)" stroke-linecap="butt" stroke-linejoin="round" stroke-opacity="1.0" stroke-width="3.0" />
            <path d=" M 612.655, 885.189 614.411, 886.674 616.449, 888.397 618.115, 890.483 618.544, 891.021 618.585, 891.072 619.514, 892.236 619.667, 892.645 621.885, 898.597 620.590, 903.343 " fill="none" stroke="rgb(0, 0, 0)" stroke-linecap="butt" stroke-linejoin="round" stroke-opacity="1.0" stroke-width="3.0" />
            <path d=" M 845.006, 499.798 844.278, 498.893 842.055, 498.846 839.410, 497.283 836.467, 496.346 835.722, 496.193 833.117, 496.109 827.760, 496.861 827.378, 496.914 824.478, 497.298 " fill="none" stroke="rgb(0, 0, 0)" stroke-linecap="butt" stroke-linejoin="round" stroke-opacity="1.0" stroke-width="3.0" />
            <path d=" M 751.722, 500.075 753.231, 503.710 753.582, 504.555 753.666, 504.758 753.810, 505.060 754.277, 506.038 754.400, 506.296 754.497, 506.500 754.897, 507.338 756.182, 510.031 756.466, 510.626 756.549, 510.800 757.463, 512.508 757.953, 513.423 759.076, 514.959 759.783, 515.925 762.027, 518.992 " fill="none" stroke="rgb(0, 0, 0)" stroke-linecap="butt" stroke-linejoin="round" stroke-opacity="1.0" stroke-width="3.0" />
            <path d=" M 525.196, 705.399 525.430, 706.090 527.488, 712.172 531.377, 721.385 531.830, 722.458 533.157, 725.590 " fill="none" stroke="rgb(0, 0, 0)" stroke-linecap="butt" stroke-linejoin="round" stroke-opacity="1.0" stroke-width="3.0" />
            <path d=" M 626.672, 881.411 627.088, 889.545 629.661, 895.842 630.879, 897.085 631.311, 897.526 632.633, 898.875 634.138, 900.217 634.622, 900.648 " fill="none" stroke="rgb(0, 0, 0)" stroke-linecap="butt" stroke-linejoin="round" stroke-opacity="1.0" stroke-width="3.0" />
            <path d=" M 605.606, 553.616 605.788, 552.826 607.534, 545.262 607.510, 545.055 607.506, 545.018 606.585, 537.070 606.264, 535.234 606.224, 535.002 605.714, 532.082 " fill="none" stroke="rgb(0, 0, 0)" stroke-linecap="butt" stroke-linejoin="round" stroke-opacity="1.0" stroke-width="3.0" />
            <path d=" M 768.917, 838.766 767.866, 836.539 767.375, 835.498 766.733, 834.135 766.112, 832.819 764.665, 829.752 761.971, 829.186 761.701, 829.129 759.981, 830.812 758.663, 831.462 758.616, 831.486 758.524, 831.531 757.438, 832.067 756.775, 832.395 756.549, 832.515 756.397, 832.597 755.481, 833.085 754.949, 833.369 754.210, 833.763 " fill="none" stroke="rgb(0, 0, 0)" stroke-linecap="butt" stroke-linejoin="round" stroke-opacity="1.0" stroke-width="3.0" />
            <path d=" M 827.760, 496.861 823.911, 495.859 821.586, 495.161 819.886, 494.890 818.023, 495.435 815.955, 496.648 815.058, 497.556 813.899, 499.420 815.380, 503.069 816.730, 504.823 " fill="none" stroke="rgb(0, 0, 0)" stroke-linecap="butt" stroke-linejoin="round" stroke-opacity="1.0" stroke-width="3.0" />
            <path d=" M 733.371, 876.644 733.032, 877.603 732.220, 880.357 731.518, 886.045 730.217, 892.380 730.358, 894.083 730.721, 898.466 " fill="none" stroke="rgb(0, 0, 0)" stroke-linecap="butt" stroke-linejoin="round" stroke-opacity="1.0" stroke-width="3.0" />
            <path d=" M 730.970, 409.268 729.529, 404.287 726.751, 394.681 726.529, 393.913 726.253, 392.958 726.145, 392.584 726.097, 392.420 726.043, 392.233 725.793, 391.933 723.731, 389.463 723.525, 389.217 723.148, 388.765 " fill="none" stroke="rgb(0, 0, 0)" stroke-linecap="butt" stroke-linejoin="round" stroke-opacity="1.0" stroke-width="3.0" />
            <path d=" M 578.562, 475.594 578.172, 479.256 578.171, 479.268 578.205, 480.264 578.271, 482.247 578.291, 482.836 578.298, 483.028 578.299, 483.061 578.426, 486.844 578.592, 487.593 578.651, 487.859 579.743, 492.774 581.523, 496.963 581.770, 497.216 " fill="none" stroke="rgb(0, 0, 0)" stroke-linecap="butt" stroke-linejoin="round" stroke-opacity="1.0" stroke-width="3.0" />
            <path d=" M 652.132, 373.239 651.215, 371.325 650.043, 368.880 645.155, 367.245 638.312, 367.844 632.782, 368.505 " fill="none" stroke="rgb(0, 0, 0)" stroke-linecap="butt" stroke-linejoin="round" stroke-opacity="1.0" stroke-width="3.0" />
            <path d=" M 561.737, 621.636 564.556, 623.290 566.771, 624.590 568.306, 625.491 568.359, 625.522 569.070, 625.939 570.502, 625.268 570.576, 625.213 572.336, 623.929 573.174, 623.097 574.087, 622.191 574.235, 622.044 575.735, 620.556 576.793, 619.183 578.210, 617.345 578.765, 616.624 579.102, 616.187 " fill="none" stroke="rgb(0, 0, 0)" stroke-linecap="butt" stroke-linejoin="round" stroke-opacity="1.0" stroke-width="3.0" />
            <path d=" M 606.623, 803.601 605.122, 800.387 603.736, 797.057 599.920, 789.336 597.253, 782.977 " fill="none" stroke="rgb(0, 0, 0)" stroke-linecap="butt" stroke-linejoin="round" stroke-opacity="1.0" stroke-width="3.0" />
            <path d=" M 778.378, 601.201 779.117, 600.883 779.325, 600.793 779.424, 600.751 779.492, 600.721 780.115, 600.453 780.336, 600.358 780.377, 600.341 780.796, 600.160 781.004, 600.071 781.105, 600.027 781.271, 599.831 781.742, 599.270 783.728, 596.905 783.802, 596.402 783.832, 596.195 783.947, 595.412 784.049, 594.711 784.061, 594.630 784.681, 590.396 784.956, 585.858 785.046, 584.378 785.092, 583.611 785.295, 583.387 785.363, 583.312 785.448, 583.219 785.517, 583.143 786.769, 581.762 " fill="none" stroke="rgb(0, 0, 0)" stroke-linecap="butt" stroke-linejoin="round" stroke-opacity="1.0" stroke-width="3.0" />
            <path d=" M 790.704, 592.443 791.151, 591.503 794.181, 584.906 794.215, 583.995 794.410, 578.855 794.269, 577.656 793.644, 572.351 792.422, 570.527 792.322, 570.378 " fill="none" stroke="rgb(0, 0, 0)" stroke-linecap="butt" stroke-linejoin="round" stroke-opacity="1.0" stroke-width="3.0" />
            <path d=" M 731.907, 415.277 730.970, 409.268 729.779, 404.266 729.409, 402.711 726.637, 394.074 726.169, 392.615 " fill="none" stroke="rgb(0, 0, 0)" stroke-linecap="butt" stroke-linejoin="round" stroke-opacity="1.0" stroke-width="3.0" />
            <path d=" M 489.606, 541.829 489.927, 541.101 491.647, 536.259 491.614, 531.109 488.968, 530.896 484.139, 530.212 481.483, 531.767 479.463, 532.817 " fill="none" stroke="rgb(0, 0, 0)" stroke-linecap="butt" stroke-linejoin="round" stroke-opacity="1.0" stroke-width="3.0" />
            <path d=" M 740.420, 607.871 743.380, 608.425 745.485, 608.818 746.640, 609.034 752.470, 610.079 755.515, 609.569 759.393, 610.357 761.254, 610.735 762.111, 610.973 764.108, 611.526 " fill="none" stroke="rgb(0, 0, 0)" stroke-linecap="butt" stroke-linejoin="round" stroke-opacity="1.0" stroke-width="3.0" />
            <path d=" M 627.242, 430.161 627.343, 430.656 628.248, 435.110 628.270, 435.190 628.977, 437.846 629.042, 438.090 629.058, 438.149 629.078, 438.223 629.083, 438.244 629.307, 439.085 630.637, 442.593 633.322, 445.779 637.471, 450.704 637.702, 450.978 637.719, 450.998 637.886, 451.197 " fill="none" stroke="rgb(0, 0, 0)" stroke-linecap="butt" stroke-linejoin="round" stroke-opacity="1.0" stroke-width="3.0" />
            <path d=" M 518.229, 610.211 520.125, 612.947 520.977, 613.880 522.853, 615.935 523.235, 616.110 524.687, 616.779 529.845, 617.892 531.046, 617.720 533.497, 617.251 537.491, 613.488 537.798, 613.200 " fill="none" stroke="rgb(0, 0, 0)" stroke-linecap="butt" stroke-linejoin="round" stroke-opacity="1.0" stroke-width="3.0" />
            <path d=" M 763.046, 858.081 761.891, 856.330 760.430, 857.850 759.917, 858.385 759.839, 858.466 757.759, 860.631 757.731, 860.660 757.323, 861.085 756.932, 861.844 756.283, 863.106 756.027, 863.601 754.311, 866.935 754.172, 867.206 754.146, 867.252 751.396, 872.146 750.877, 873.071 750.791, 873.294 750.786, 873.307 750.153, 874.947 " fill="none" stroke="rgb(0, 0, 0)" stroke-linecap="butt" stroke-linejoin="round" stroke-opacity="1.0" stroke-width="3.0" />
            <path d=" M 771.683, 853.138 772.048, 852.564 772.285, 852.193 772.314, 852.148 772.744, 851.472 773.176, 848.499 773.276, 845.662 771.452, 836.808 771.267, 835.910 771.200, 835.742 770.856, 834.880 770.765, 834.774 769.652, 833.471 766.112, 832.819 " fill="none" stroke="rgb(0, 0, 0)" stroke-linecap="butt" stroke-linejoin="round" stroke-opacity="1.0" stroke-width="3.0" />
            <path d=" M 750.371, 722.259 751.351, 724.412 752.130, 726.122 752.338, 726.579 752.791, 729.185 753.828, 735.143 753.740, 740.157 753.410, 744.472 753.361, 746.087 " fill="none" stroke="rgb(0, 0, 0)" stroke-linecap="butt" stroke-linejoin="round" stroke-opacity="1.0" stroke-width="3.0" />
            <path d=" M 548.355, 705.567 553.617, 708.848 559.907, 714.202 566.238, 719.955 567.389, 721.001 " fill="none" stroke="rgb(0, 0, 0)" stroke-linecap="butt" stroke-linejoin="round" stroke-opacity="1.0" stroke-width="3.0" />
            <path d=" M 559.017, 593.500 559.352, 596.262 559.482, 597.341 559.614, 598.431 560.008, 601.682 560.990, 605.703 564.048, 610.757 564.251, 611.092 566.206, 612.133 568.953, 613.031 569.088, 613.076 569.687, 613.104 569.914, 613.115 " fill="none" stroke="rgb(0, 0, 0)" stroke-linecap="butt" stroke-linejoin="round" stroke-opacity="1.0" stroke-width="3.0" />
            <path d=" M 553.674, 666.789 554.724, 665.867 558.277, 662.748 560.618, 660.997 561.136, 660.610 562.943, 659.260 563.002, 659.216 563.235, 659.042 563.658, 658.726 563.875, 658.563 564.226, 658.313 564.528, 658.097 564.553, 658.079 566.276, 656.849 567.543, 655.478 570.035, 652.572 572.009, 651.133 572.179, 650.484 " fill="none" stroke="rgb(0, 0, 0)" stroke-linecap="butt" stroke-linejoin="round" stroke-opacity="1.0" stroke-width="3.0" />
            <path d=" M 759.374, 947.891 760.491, 944.920 761.662, 941.805 763.733, 936.266 764.564, 934.043 765.035, 932.616 765.901, 929.342 766.178, 928.292 765.877, 926.277 765.705, 925.123 765.671, 924.894 765.653, 924.774 765.617, 924.534 765.569, 924.209 " fill="none" stroke="rgb(0, 0, 0)" stroke-linecap="butt" stroke-linejoin="round" stroke-opacity="1.0" stroke-width="3.0" />
            <path d=" M 592.738, 565.526 593.627, 567.449 593.689, 567.514 594.168, 568.018 594.217, 568.011 594.238, 568.008 594.536, 567.969 600.498, 567.181 600.568, 567.171 600.988, 567.116 601.182, 567.090 601.249, 567.081 601.553, 566.610 602.138, 565.701 602.408, 565.283 603.651, 562.682 605.033, 557.587 605.788, 552.826 " fill="none" stroke="rgb(0, 0, 0)" stroke-linecap="butt" stroke-linejoin="round" stroke-opacity="1.0" stroke-width="3.0" />
            <path d=" M 751.321, 878.884 751.258, 878.742 751.051, 878.278 750.958, 878.069 750.943, 878.034 750.599, 877.262 749.948, 875.800 749.882, 875.651 749.828, 875.531 749.646, 875.570 748.204, 875.871 747.208, 876.079 746.978, 876.127 745.719, 878.207 743.415, 882.011 740.538, 891.589 740.365, 892.164 740.329, 892.282 739.999, 893.381 " fill="none" stroke="rgb(0, 0, 0)" stroke-linecap="butt" stroke-linejoin="round" stroke-opacity="1.0" stroke-width="3.0" />
            <path d=" M 611.055, 870.277 610.835, 870.701 610.668, 871.019 610.452, 871.433 610.283, 871.758 610.242, 873.011 610.200, 874.293 610.164, 875.383 610.067, 878.339 610.009, 880.123 610.283, 881.633 610.285, 881.643 610.386, 882.201 612.375, 885.832 612.852, 886.380 614.094, 887.806 616.155, 890.174 616.606, 890.927 617.043, 891.655 617.851, 893.005 " fill="none" stroke="rgb(0, 0, 0)" stroke-linecap="butt" stroke-linejoin="round" stroke-opacity="1.0" stroke-width="3.0" />
            <path d=" M 532.000, 475.766 533.233, 478.046 535.328, 479.329 540.790, 477.308 545.015, 476.750 549.428, 477.861 554.260, 478.173 554.280, 478.174 554.436, 478.185 555.025, 478.223 555.041, 478.224 555.048, 478.224 555.176, 478.232 555.291, 478.240 555.405, 478.247 " fill="none" stroke="rgb(0, 0, 0)" stroke-linecap="butt" stroke-linejoin="round" stroke-opacity="1.0" stroke-width="3.0" />
            <path d=" M 781.600, 497.685 779.979, 494.568 775.152, 485.910 771.205, 478.667 770.814, 477.950 772.827, 481.161 " fill="none" stroke="rgb(0, 0, 0)" stroke-linecap="butt" stroke-linejoin="round" stroke-opacity="1.0" stroke-width="3.0" />
            <path d=" M 649.983, 712.860 650.968, 712.802 651.479, 712.771 656.065, 710.458 663.511, 708.578 671.192, 708.718 674.078, 709.217 675.470, 709.458 " fill="none" stroke="rgb(0, 0, 0)" stroke-linecap="butt" stroke-linejoin="round" stroke-opacity="1.0" stroke-width="3.0" />
            <path d=" M 807.574, 684.169 813.137, 684.479 815.076, 684.639 805.318, 682.455 804.654, 682.307 797.857, 683.163 796.546, 683.605 " fill="none" stroke="rgb(0, 0, 0)" stroke-linecap="butt" stroke-linejoin="round" stroke-opacity="1.0" stroke-width="3.0" />
            <path d=" M 729.133, 474.543 732.975, 480.746 733.754, 481.702 733.782, 481.736 739.162, 488.341 742.496, 490.195 742.631, 490.270 744.356, 491.229 746.453, 492.249 746.506, 492.275 746.854, 492.444 747.428, 492.722 " fill="none" stroke="rgb(0, 0, 0)" stroke-linecap="butt" stroke-linejoin="round" stroke-opacity="1.0" stroke-width="3.0" />
            <path d=" M 655.427, 940.813 655.552, 941.505 655.707, 942.360 655.711, 942.375 655.785, 942.666 658.272, 952.352 658.339, 952.613 660.518, 959.920 660.910, 961.060 661.708, 966.483 " fill="none" stroke="rgb(0, 0, 0)" stroke-linecap="butt" stroke-linejoin="round" stroke-opacity="1.0" stroke-width="3.0" />
            <path d=" M 762.111, 610.973 766.735, 614.359 766.956, 614.521 769.127, 614.838 769.295, 614.956 772.665, 617.341 773.773, 618.125 774.682, 618.031 777.593, 614.739 780.789, 611.560 780.833, 611.318 781.163, 609.508 781.346, 608.506 " fill="none" stroke="rgb(0, 0, 0)" stroke-linecap="butt" stroke-linejoin="round" stroke-opacity="1.0" stroke-width="3.0" />
            <path d=" M 617.860, 399.574 623.916, 391.616 624.458, 390.905 624.576, 390.750 625.119, 390.036 626.900, 387.695 629.166, 383.650 630.416, 381.416 630.790, 380.748 632.789, 377.179 " fill="none" stroke="rgb(0, 0, 0)" stroke-linecap="butt" stroke-linejoin="round" stroke-opacity="1.0" stroke-width="3.0" />
            <path d=" M 755.506, 794.465 755.345, 793.153 755.324, 792.983 755.317, 792.930 755.310, 792.874 755.224, 792.172 755.213, 792.082 755.193, 791.922 755.190, 791.896 755.157, 791.629 755.139, 791.479 754.465, 785.996 754.284, 785.543 753.901, 784.585 753.839, 784.430 753.677, 784.024 753.292, 783.060 752.475, 782.284 752.349, 782.164 748.218, 778.236 745.527, 776.899 743.868, 776.074 740.797, 778.130 " fill="none" stroke="rgb(0, 0, 0)" stroke-linecap="butt" stroke-linejoin="round" stroke-opacity="1.0" stroke-width="3.0" />
            <path d=" M 574.366, 612.927 574.831, 613.265 575.181, 613.519 575.381, 613.665 575.929, 614.062 576.000, 614.114 576.179, 614.244 577.432, 615.155 578.342, 615.816 578.554, 615.920 579.102, 616.187 579.490, 616.377 579.633, 616.446 579.684, 616.471 580.186, 616.716 580.211, 616.728 580.367, 616.804 580.762, 616.706 581.794, 616.449 581.915, 616.419 582.716, 615.706 582.902, 615.540 582.946, 615.501 583.115, 615.129 583.125, 615.107 583.181, 614.983 583.270, 614.788 583.637, 613.980 584.525, 612.023 586.199, 603.513 586.777, 602.236 586.947, 601.862 587.653, 600.304 587.985, 599.572 588.145, 599.217 " fill="none" stroke="rgb(0, 0, 0)" stroke-linecap="butt" stroke-linejoin="round" stroke-opacity="1.0" stroke-width="3.0" />
            <path d=" M 648.191, 404.817 638.282, 403.473 635.958, 403.158 632.927, 403.301 631.109, 403.387 624.435, 403.261 621.950, 402.722 621.311, 402.583 621.097, 402.537 620.837, 402.480 " fill="none" stroke="rgb(0, 0, 0)" stroke-linecap="butt" stroke-linejoin="round" stroke-opacity="1.0" stroke-width="3.0" />
            <path d=" M 857.010, 551.454 856.531, 548.482 856.294, 547.007 855.228, 542.137 852.911, 534.381 850.786, 528.641 849.548, 525.860 849.116, 524.888 " fill="none" stroke="rgb(0, 0, 0)" stroke-linecap="butt" stroke-linejoin="round" stroke-opacity="1.0" stroke-width="3.0" />
            <path d=" M 759.418, 608.189 766.607, 610.449 769.088, 611.742 773.309, 613.943 774.846, 615.042 775.090, 615.217 775.191, 615.289 775.957, 614.717 776.616, 614.225 780.633, 611.223 780.641, 611.196 781.086, 609.498 781.346, 608.506 781.550, 607.728 " fill="none" stroke="rgb(0, 0, 0)" stroke-linecap="butt" stroke-linejoin="round" stroke-opacity="1.0" stroke-width="3.0" />
            <path d=" M 703.660, 395.885 701.222, 396.118 700.722, 396.166 699.701, 396.263 699.493, 396.283 696.352, 396.583 692.678, 397.861 692.000, 398.096 691.701, 398.200 691.492, 398.273 691.490, 398.274 691.427, 398.295 691.089, 398.413 690.963, 398.457 690.406, 398.650 690.361, 398.666 690.127, 398.747 689.465, 398.978 686.991, 399.838 682.459, 400.552 676.971, 403.107 " fill="none" stroke="rgb(0, 0, 0)" stroke-linecap="butt" stroke-linejoin="round" stroke-opacity="1.0" stroke-width="3.0" />
            <path d=" M 771.425, 954.352 773.070, 950.901 773.868, 948.726 774.243, 943.727 774.466, 940.762 774.589, 938.462 774.736, 935.693 774.659, 933.903 774.572, 931.885 774.557, 931.550 774.457, 929.248 774.453, 929.142 774.360, 927.006 " fill="none" stroke="rgb(0, 0, 0)" stroke-linecap="butt" stroke-linejoin="round" stroke-opacity="1.0" stroke-width="3.0" />
            <path d=" M 769.949, 642.869 769.830, 643.417 769.380, 645.489 769.215, 646.246 767.563, 652.029 768.362, 657.649 769.081, 658.472 771.062, 660.570 775.198, 661.542 775.578, 661.587 776.652, 661.713 776.705, 661.719 777.034, 661.757 777.056, 661.760 777.447, 661.806 778.773, 661.962 779.283, 662.021 779.403, 662.036 779.446, 662.041 779.743, 662.075 " fill="none" stroke="rgb(0, 0, 0)" stroke-linecap="butt" stroke-linejoin="round" stroke-opacity="1.0" stroke-width="3.0" />
            <path d=" M 588.266, 883.607 588.971, 890.374 589.514, 895.587 591.643, 903.030 594.489, 911.061 " fill="none" stroke="rgb(0, 0, 0)" stroke-linecap="butt" stroke-linejoin="round" stroke-opacity="1.0" stroke-width="3.0" />
            <path d=" M 834.649, 562.597 835.760, 562.412 840.168, 559.781 840.269, 559.666 840.429, 559.483 840.455, 559.453 843.049, 556.495 845.610, 554.244 846.394, 553.014 846.414, 552.982 847.330, 551.544 847.582, 551.006 847.731, 550.687 848.878, 548.228 849.580, 546.374 849.717, 546.013 850.089, 545.030 850.274, 544.013 850.377, 543.448 850.549, 542.497 850.679, 541.783 850.811, 541.054 850.819, 541.014 850.821, 541.002 " fill="none" stroke="rgb(0, 0, 0)" stroke-linecap="butt" stroke-linejoin="round" stroke-opacity="1.0" stroke-width="3.0" />
            <path d=" M 717.524, 622.717 717.606, 622.459 717.608, 622.455 717.655, 622.305 718.102, 620.902 718.808, 618.688 718.733, 618.128 718.716, 618.004 718.713, 617.980 718.573, 616.928 718.473, 616.178 718.293, 614.829 718.322, 611.702 718.341, 610.916 718.378, 609.398 718.379, 609.361 718.419, 608.447 718.456, 607.631 718.560, 604.523 718.588, 603.716 718.593, 603.567 718.599, 603.374 718.646, 601.972 718.285, 599.104 718.250, 594.882 718.224, 594.525 " fill="none" stroke="rgb(0, 0, 0)" stroke-linecap="butt" stroke-linejoin="round" stroke-opacity="1.0" stroke-width="3.0" />
            <path d=" M 703.167, 916.689 694.330, 914.327 686.329, 908.329 685.582, 907.769 685.402, 907.634 683.396, 906.404 680.105, 905.084 677.784, 905.048 " fill="none" stroke="rgb(0, 0, 0)" stroke-linecap="butt" stroke-linejoin="round" stroke-opacity="1.0" stroke-width="3.0" />
            <path d=" M 630.303, 846.809 630.645, 846.090 631.466, 837.843 631.837, 834.252 631.192, 832.177 626.942, 829.766 626.474, 829.501 622.448, 831.793 622.310, 831.871 622.253, 831.903 621.365, 832.409 620.063, 833.440 619.960, 833.521 619.492, 833.892 " fill="none" stroke="rgb(0, 0, 0)" stroke-linecap="butt" stroke-linejoin="round" stroke-opacity="1.0" stroke-width="3.0" />
            <path d=" M 661.685, 683.803 664.261, 678.425 664.443, 678.047 666.475, 673.805 667.084, 673.422 670.350, 671.370 674.177, 670.155 679.049, 670.350 682.789, 671.879 " fill="none" stroke="rgb(0, 0, 0)" stroke-linecap="butt" stroke-linejoin="round" stroke-opacity="1.0" stroke-width="3.0" />
            <path d=" M 678.455, 364.089 677.467, 364.154 670.412, 366.136 664.977, 366.966 661.850, 368.881 658.493, 369.841 654.589, 372.332 651.215, 371.325 " fill="none" stroke="rgb(0, 0, 0)" stroke-linecap="butt" stroke-linejoin="round" stroke-opacity="1.0" stroke-width="3.0" />
            <path d=" M 747.078, 627.565 748.183, 628.935 748.568, 629.413 749.987, 631.171 752.916, 632.847 753.668, 633.365 754.397, 633.868 754.546, 633.971 754.721, 634.091 754.818, 634.158 755.342, 634.519 755.410, 634.566 755.666, 634.742 755.888, 634.895 755.895, 634.900 756.255, 635.148 760.875, 637.531 760.896, 637.542 761.105, 637.650 761.124, 637.660 762.794, 638.521 765.914, 640.131 768.532, 641.827 769.187, 642.252 769.568, 642.499 769.664, 642.561 769.794, 642.646 769.817, 642.660 769.874, 642.750 769.915, 642.815 769.949, 642.869 769.952, 642.873 770.477, 643.703 770.919, 644.400 " fill="none" stroke="rgb(0, 0, 0)" stroke-linecap="butt" stroke-linejoin="round" stroke-opacity="1.0" stroke-width="3.0" />
            <path d=" M 713.140, 916.644 706.883, 914.126 700.581, 914.767 694.039, 913.051 685.582, 907.769 " fill="none" stroke="rgb(0, 0, 0)" stroke-linecap="butt" stroke-linejoin="round" stroke-opacity="1.0" stroke-width="3.0" />
            <path d=" M 801.885, 626.763 802.392, 625.881 803.946, 622.512 802.736, 618.372 800.374, 616.346 795.427, 618.196 795.363, 618.225 794.743, 618.504 793.325, 619.142 793.077, 620.008 792.924, 620.545 792.906, 620.606 792.834, 620.857 792.442, 622.228 792.347, 622.560 792.527, 624.401 792.092, 627.121 791.573, 629.320 " fill="none" stroke="rgb(0, 0, 0)" stroke-linecap="butt" stroke-linejoin="round" stroke-opacity="1.0" stroke-width="3.0" />
            <path d=" M 588.778, 617.580 590.930, 617.172 592.312, 616.549 597.493, 614.215 601.783, 612.931 602.619, 612.681 603.741, 611.172 603.836, 611.044 604.006, 610.815 604.009, 610.813 604.460, 610.205 605.111, 609.330 605.371, 608.981 605.684, 608.560 605.694, 608.408 605.836, 606.317 605.861, 605.949 605.982, 604.168 606.130, 601.980 605.734, 599.631 605.462, 598.024 " fill="none" stroke="rgb(0, 0, 0)" stroke-linecap="butt" stroke-linejoin="round" stroke-opacity="1.0" stroke-width="3.0" />
            <path d=" M 610.797, 618.209 610.644, 620.748 609.702, 627.099 609.662, 627.332 608.987, 631.248 609.019, 632.753 609.035, 633.484 609.036, 633.526 609.043, 633.880 609.051, 634.225 609.051, 634.260 609.098, 636.439 609.500, 636.848 611.909, 639.299 613.653, 640.470 613.878, 640.337 614.023, 640.251 615.127, 639.598 615.844, 637.865 615.845, 637.862 616.026, 637.426 616.063, 637.338 616.372, 636.590 616.380, 636.571 616.781, 635.602 " fill="none" stroke="rgb(0, 0, 0)" stroke-linecap="butt" stroke-linejoin="round" stroke-opacity="1.0" stroke-width="3.0" />
            <path d=" M 556.519, 488.611 553.393, 495.046 553.380, 495.072 551.506, 498.930 548.644, 507.122 547.392, 510.427 546.551, 512.646 544.940, 516.900 " fill="none" stroke="rgb(0, 0, 0)" stroke-linecap="butt" stroke-linejoin="round" stroke-opacity="1.0" stroke-width="3.0" />
            <path d=" M 560.135, 774.160 562.272, 778.752 562.330, 778.877 562.376, 778.976 562.594, 779.444 566.485, 787.806 570.182, 797.098 572.298, 802.418 " fill="none" stroke="rgb(0, 0, 0)" stroke-linecap="butt" stroke-linejoin="round" stroke-opacity="1.0" stroke-width="3.0" />
            <path d=" M 736.044, 782.481 735.554, 782.339 733.401, 781.716 731.546, 781.266 730.023, 781.893 728.249, 783.250 729.256, 791.079 728.733, 794.948 729.588, 796.484 729.989, 796.970 735.584, 802.978 " fill="none" stroke="rgb(0, 0, 0)" stroke-linecap="butt" stroke-linejoin="round" stroke-opacity="1.0" stroke-width="3.0" />
            <path d=" M 801.095, 499.797 799.591, 497.832 798.577, 496.769 805.900, 500.674 811.404, 502.898 815.586, 504.551 816.730, 504.823 821.263, 505.904 821.394, 505.935 823.756, 506.496 " fill="none" stroke="rgb(0, 0, 0)" stroke-linecap="butt" stroke-linejoin="round" stroke-opacity="1.0" stroke-width="3.0" />
            <path d=" M 545.276, 690.969 546.684, 690.211 547.111, 689.981 550.071, 688.924 552.169, 687.986 552.562, 687.613 553.714, 686.517 555.157, 685.145 555.964, 682.350 555.152, 677.942 554.423, 674.270 554.314, 673.726 554.281, 673.560 554.266, 673.484 554.235, 673.324 554.173, 673.014 554.170, 673.001 554.084, 672.565 554.025, 672.269 553.953, 671.905 553.908, 671.679 553.599, 670.122 553.685, 669.796 554.724, 665.867 " fill="none" stroke="rgb(0, 0, 0)" stroke-linecap="butt" stroke-linejoin="round" stroke-opacity="1.0" stroke-width="3.0" />
            <path d=" M 547.116, 590.619 546.858, 594.451 545.419, 598.085 544.962, 604.483 544.915, 605.135 544.905, 606.234 544.884, 608.671 544.883, 609.499 544.881, 611.165 544.880, 612.294 544.880, 612.375 544.880, 612.474 544.880, 612.549 544.880, 612.791 544.879, 613.151 544.879, 613.399 544.878, 614.396 546.385, 617.835 546.941, 618.169 547.743, 618.651 547.831, 618.704 547.947, 618.774 548.185, 618.917 549.751, 619.859 " fill="none" stroke="rgb(0, 0, 0)" stroke-linecap="butt" stroke-linejoin="round" stroke-opacity="1.0" stroke-width="3.0" />
            <path d=" M 609.500, 636.848 609.280, 637.676 608.862, 642.885 610.174, 644.349 610.288, 644.448 610.912, 644.994 611.818, 646.222 616.151, 647.339 618.166, 646.380 620.414, 642.843 620.697, 641.732 621.592, 638.230 623.538, 632.985 " fill="none" stroke="rgb(0, 0, 0)" stroke-linecap="butt" stroke-linejoin="round" stroke-opacity="1.0" stroke-width="3.0" />
            <path d=" M 845.805, 538.625 847.663, 530.775 847.845, 530.005 848.143, 528.745 848.167, 528.646 848.271, 528.234 848.616, 526.868 848.639, 526.776 849.031, 525.223 849.116, 524.888 849.987, 521.441 851.215, 513.855 851.005, 508.698 850.808, 507.069 " fill="none" stroke="rgb(0, 0, 0)" stroke-linecap="butt" stroke-linejoin="round" stroke-opacity="1.0" stroke-width="3.0" />
            <path d=" M 454.619, 613.454 454.906, 618.481 455.113, 621.410 455.398, 624.740 456.688, 630.295 456.696, 630.330 456.860, 631.035 457.044, 631.829 458.429, 635.083 460.210, 637.841 460.715, 638.499 462.590, 640.941 462.959, 641.422 463.427, 642.031 463.522, 642.155 463.715, 642.406 464.483, 643.408 " fill="none" stroke="rgb(0, 0, 0)" stroke-linecap="butt" stroke-linejoin="round" stroke-opacity="1.0" stroke-width="3.0" />
            <path d=" M 748.670, 974.945 751.701, 969.649 751.992, 969.141 752.018, 969.102 752.143, 968.911 753.706, 965.846 755.282, 962.560 758.154, 952.981 759.474, 948.579 760.491, 944.920 " fill="none" stroke="rgb(0, 0, 0)" stroke-linecap="butt" stroke-linejoin="round" stroke-opacity="1.0" stroke-width="3.0" />
            <path d=" M 491.536, 666.444 492.128, 667.068 495.921, 671.060 500.832, 679.771 501.265, 680.540 508.854, 685.847 511.070, 687.074 514.607, 687.036 " fill="none" stroke="rgb(0, 0, 0)" stroke-linecap="butt" stroke-linejoin="round" stroke-opacity="1.0" stroke-width="3.0" />
            <path d=" M 734.033, 585.490 733.755, 586.253 733.700, 586.406 733.355, 587.351 732.173, 590.599 731.587, 592.210 731.432, 592.636 731.005, 593.811 730.995, 593.839 731.043, 594.186 731.068, 594.370 731.204, 595.354 731.212, 595.411 732.439, 604.273 734.378, 607.793 738.649, 608.782 741.222, 608.907 743.380, 608.425 " fill="none" stroke="rgb(0, 0, 0)" stroke-linecap="butt" stroke-linejoin="round" stroke-opacity="1.0" stroke-width="3.0" />
            <path d=" M 631.909, 694.983 632.348, 693.849 632.617, 693.153 632.764, 692.225 633.729, 686.150 634.840, 682.872 635.615, 680.586 636.843, 679.396 636.848, 679.391 639.414, 676.904 641.994, 675.426 644.073, 674.651 651.287, 674.307 " fill="none" stroke="rgb(0, 0, 0)" stroke-linecap="butt" stroke-linejoin="round" stroke-opacity="1.0" stroke-width="3.0" />
            <path d=" M 618.174, 802.323 617.315, 802.276 612.702, 802.022 608.821, 801.470 606.623, 803.601 605.041, 805.136 603.426, 808.883 602.063, 814.524 601.974, 818.924 602.018, 819.113 602.817, 822.538 " fill="none" stroke="rgb(0, 0, 0)" stroke-linecap="butt" stroke-linejoin="round" stroke-opacity="1.0" stroke-width="3.0" />
            <path d=" M 736.680, 612.604 737.137, 612.880 737.194, 612.914 737.212, 612.925 737.343, 613.003 739.440, 614.267 741.354, 614.503 743.719, 613.904 743.828, 613.876 743.905, 613.856 745.207, 613.526 745.488, 613.528 748.708, 613.553 750.052, 613.564 755.629, 613.607 758.579, 614.442 760.197, 614.612 763.937, 615.004 767.518, 616.905 768.172, 617.252 " fill="none" stroke="rgb(0, 0, 0)" stroke-linecap="butt" stroke-linejoin="round" stroke-opacity="1.0" stroke-width="3.0" />
            <path d=" M 573.993, 437.881 572.300, 444.708 572.105, 447.379 572.102, 447.419 571.952, 449.474 571.947, 449.539 571.928, 449.803 571.927, 449.812 571.919, 449.921 571.865, 450.663 571.796, 451.606 571.799, 451.690 571.801, 451.753 571.803, 451.799 571.812, 452.077 571.813, 452.105 571.816, 452.188 571.826, 452.475 571.834, 452.698 571.844, 452.974 571.877, 453.899 571.885, 454.126 571.917, 455.045 571.918, 455.084 571.918, 455.085 571.925, 455.288 571.926, 455.302 571.955, 456.118 571.957, 456.179 571.961, 456.309 571.970, 456.545 571.970, 456.564 572.014, 457.793 572.033, 458.347 572.045, 458.696 572.120, 460.808 572.125, 460.950 572.132, 461.142 572.132, 461.150 572.170, 462.222 572.115, 461.146 572.114, 461.138 572.106, 460.971 572.098, 460.823 571.993, 458.766 571.974, 458.385 571.973, 458.357 571.897, 456.870 571.883, 456.599 571.875, 456.437 571.872, 456.384 571.837, 455.691 571.817, 455.310 571.814, 455.252 571.821, 455.099 571.821, 455.098 571.822, 455.082 571.877, 453.899 " fill="none" stroke="rgb(0, 0, 0)" stroke-linecap="butt" stroke-linejoin="round" stroke-opacity="1.0" stroke-width="3.0" />
            <path d=" M 585.672, 744.909 586.512, 742.856 587.675, 740.012 588.199, 736.669 586.895, 734.805 576.963, 733.639 575.863, 733.509 565.935, 732.313 564.914, 732.190 " fill="none" stroke="rgb(0, 0, 0)" stroke-linecap="butt" stroke-linejoin="round" stroke-opacity="1.0" stroke-width="3.0" />
            <path d=" M 674.078, 709.217 675.164, 709.913 677.260, 710.166 680.074, 710.863 681.669, 711.220 683.590, 711.926 685.930, 712.424 687.838, 712.391 691.045, 711.715 693.858, 710.528 696.400, 708.594 703.667, 702.705 " fill="none" stroke="rgb(0, 0, 0)" stroke-linecap="butt" stroke-linejoin="round" stroke-opacity="1.0" stroke-width="3.0" />
            <path d=" M 609.439, 855.960 606.583, 856.900 606.462, 856.939 606.396, 856.979 606.032, 857.195 605.878, 857.287 605.362, 857.595 605.186, 857.700 605.073, 857.767 604.726, 857.974 604.123, 858.333 601.951, 859.628 601.560, 860.371 601.454, 860.748 601.375, 861.026 600.619, 863.710 600.169, 865.311 600.694, 869.782 600.961, 872.047 600.986, 872.264 601.123, 873.428 601.233, 874.365 601.459, 874.732 601.690, 875.105 601.839, 875.348 603.502, 878.048 606.114, 881.288 606.977, 882.358 " fill="none" stroke="rgb(0, 0, 0)" stroke-linecap="butt" stroke-linejoin="round" stroke-opacity="1.0" stroke-width="3.0" />
            <path d=" M 663.968, 989.502 668.473, 990.637 669.394, 990.871 678.151, 993.092 679.944, 992.916 682.828, 992.379 688.484, 992.021 694.139, 991.729 696.724, 990.211 " fill="none" stroke="rgb(0, 0, 0)" stroke-linecap="butt" stroke-linejoin="round" stroke-opacity="1.0" stroke-width="3.0" />
            <path d=" M 461.032, 565.621 460.250, 567.369 458.305, 572.272 456.355, 579.363 455.500, 584.544 454.924, 590.898 454.861, 591.585 454.734, 594.823 455.049, 596.471 455.469, 598.667 " fill="none" stroke="rgb(0, 0, 0)" stroke-linecap="butt" stroke-linejoin="round" stroke-opacity="1.0" stroke-width="3.0" />
            <path d=" M 747.343, 418.965 745.365, 416.611 743.800, 414.864 743.787, 414.850 743.670, 414.719 742.965, 413.933 736.291, 406.487 735.486, 405.590 734.478, 404.178 733.568, 402.905 727.755, 394.768 726.240, 392.647 726.097, 392.420 " fill="none" stroke="rgb(0, 0, 0)" stroke-linecap="butt" stroke-linejoin="round" stroke-opacity="1.0" stroke-width="3.0" />
            <path d=" M 681.562, 597.975 686.421, 598.406 690.460, 599.240 690.662, 599.282 690.752, 599.300 692.220, 599.603 692.746, 599.712 697.985, 601.241 698.173, 601.296 698.214, 601.308 698.638, 601.432 699.545, 601.697 704.595, 604.108 704.599, 604.110 705.233, 604.412 705.242, 604.417 705.365, 604.573 705.728, 605.032 706.488, 605.993 707.062, 606.718 707.183, 606.871 707.670, 607.488 708.339, 612.177 708.355, 612.292 708.502, 613.326 " fill="none" stroke="rgb(0, 0, 0)" stroke-linecap="butt" stroke-linejoin="round" stroke-opacity="1.0" stroke-width="3.0" />
            <path d=" M 754.742, 744.443 753.361, 746.090 753.345, 746.109 751.515, 748.292 748.859, 752.785 748.651, 754.774 748.059, 756.108 746.973, 766.049 746.775, 767.863 745.607, 775.558 745.527, 776.899 " fill="none" stroke="rgb(0, 0, 0)" stroke-linecap="butt" stroke-linejoin="round" stroke-opacity="1.0" stroke-width="3.0" />
            <path d=" M 574.362, 807.382 575.310, 813.078 575.317, 813.121 575.400, 813.621 576.119, 817.938 578.045, 827.751 578.100, 828.031 580.025, 837.844 580.781, 841.695 " fill="none" stroke="rgb(0, 0, 0)" stroke-linecap="butt" stroke-linejoin="round" stroke-opacity="1.0" stroke-width="3.0" />
            <path d=" M 591.357, 900.122 594.110, 909.736 594.489, 911.061 594.627, 911.542 596.236, 918.315 595.931, 916.712 595.340, 913.614 595.278, 913.286 595.246, 913.121 594.886, 911.232 593.766, 905.088 593.745, 904.975 593.272, 902.376 " fill="none" stroke="rgb(0, 0, 0)" stroke-linecap="butt" stroke-linejoin="round" stroke-opacity="1.0" stroke-width="3.0" />
            <path d=" M 717.146, 377.204 716.343, 374.082 714.890, 369.945 710.803, 364.909 707.977, 362.687 702.644, 358.346 699.654, 358.162 696.896, 358.292 693.294, 359.731 691.841, 360.310 " fill="none" stroke="rgb(0, 0, 0)" stroke-linecap="butt" stroke-linejoin="round" stroke-opacity="1.0" stroke-width="3.0" />
            <path d=" M 558.040, 625.050 558.533, 627.675 558.886, 629.551 559.290, 631.699 561.543, 634.086 561.675, 634.226 563.128, 635.764 564.072, 636.282 564.424, 636.475 565.173, 636.886 566.111, 637.400 567.218, 638.007 568.139, 638.512 570.008, 636.653 570.784, 635.854 573.609, 632.946 576.116, 631.460 576.767, 631.075 578.016, 630.245 580.330, 628.707 580.961, 628.288 581.563, 627.888 581.572, 627.882 582.036, 627.574 " fill="none" stroke="rgb(0, 0, 0)" stroke-linecap="butt" stroke-linejoin="round" stroke-opacity="1.0" stroke-width="3.0" />
            <path d=" M 620.768, 866.907 620.339, 871.001 620.084, 872.600 620.068, 872.707 619.842, 874.122 619.829, 874.204 619.156, 878.431 619.143, 878.518 618.482, 882.670 618.482, 883.318 618.682, 885.965 618.783, 887.293 618.788, 887.358 618.812, 887.671 619.909, 889.745 620.236, 890.525 620.688, 891.601 620.791, 891.846 621.161, 892.726 621.256, 892.954 621.307, 893.075 621.316, 893.097 621.362, 893.160 623.860, 896.622 625.044, 898.980 625.189, 899.269 625.581, 900.050 625.895, 900.674 625.992, 900.868 " fill="none" stroke="rgb(0, 0, 0)" stroke-linecap="butt" stroke-linejoin="round" stroke-opacity="1.0" stroke-width="3.0" />
            <path d=" M 634.306, 897.734 634.528, 898.181 635.994, 901.133 636.972, 903.102 637.791, 904.753 637.820, 904.811 639.842, 908.882 644.955, 917.476 646.069, 919.349 648.310, 922.765 651.531, 926.548 653.453, 928.803 " fill="none" stroke="rgb(0, 0, 0)" stroke-linecap="butt" stroke-linejoin="round" stroke-opacity="1.0" stroke-width="3.0" />
            <path d=" M 625.431, 837.885 625.158, 837.684 624.273, 837.715 619.627, 837.876 619.596, 837.877 617.434, 838.391 610.827, 840.183 610.180, 840.332 605.773, 841.348 603.997, 842.577 603.843, 842.683 603.773, 842.732 600.840, 844.761 600.353, 845.098 600.314, 845.242 599.807, 847.071 599.622, 847.740 599.194, 852.992 599.034, 854.961 599.412, 856.032 " fill="none" stroke="rgb(0, 0, 0)" stroke-linecap="butt" stroke-linejoin="round" stroke-opacity="1.0" stroke-width="3.0" />
            <path d=" M 572.105, 447.379 572.099, 447.417 571.801, 449.403 571.787, 449.493 571.756, 449.703 571.755, 449.710 571.734, 449.844 571.510, 451.338 571.495, 451.435 571.483, 451.715 571.459, 452.267 571.401, 453.580 571.390, 453.818 571.369, 454.298 571.331, 455.169 571.331, 455.176 571.326, 455.275 571.320, 455.411 571.251, 456.989 571.185, 458.482 571.182, 458.537 571.179, 458.615 571.179, 458.620 571.121, 459.943 571.112, 460.133 571.106, 460.268 571.033, 461.934 571.022, 462.175 570.909, 464.743 570.900, 464.959 570.899, 464.982 570.901, 466.072 570.901, 466.075 570.905, 467.689 570.905, 467.707 570.905, 467.885 570.907, 468.652 570.912, 470.922 571.419, 478.428 571.427, 478.543 571.517, 479.875 571.666, 480.819 571.682, 480.920 572.374, 485.279 " fill="none" stroke="rgb(0, 0, 0)" stroke-linecap="butt" stroke-linejoin="round" stroke-opacity="1.0" stroke-width="3.0" />
            <path d=" M 746.557, 808.373 744.065, 806.742 744.016, 806.710 743.730, 806.522 740.785, 804.595 737.112, 804.288 737.091, 804.286 736.520, 804.239 735.813, 804.180 734.904, 804.908 733.527, 806.011 731.896, 808.659 731.651, 810.614 731.310, 814.410 733.766, 822.547 737.125, 826.452 737.184, 826.520 737.857, 827.303 " fill="none" stroke="rgb(0, 0, 0)" stroke-linecap="butt" stroke-linejoin="round" stroke-opacity="1.0" stroke-width="3.0" />
            <path d=" M 758.947, 581.120 759.534, 582.034 759.683, 582.266 763.602, 588.372 764.566, 590.385 766.030, 593.443 766.369, 594.150 766.925, 595.312 766.970, 595.405 766.991, 595.449 766.994, 595.456 767.097, 595.671 767.196, 595.878 767.265, 596.020 767.306, 596.107 767.519, 596.552 767.551, 596.618 769.110, 597.094 769.710, 597.277 769.985, 597.360 770.305, 597.458 770.581, 597.542 770.748, 597.593 770.783, 597.596 771.116, 597.627 772.291, 597.734 772.301, 597.735 772.479, 597.752 772.490, 597.753 772.496, 597.753 772.542, 597.757 772.572, 597.760 772.950, 597.795 773.049, 597.804 773.267, 597.824 773.417, 597.837 773.434, 597.817 773.467, 597.778 773.845, 597.319 774.376, 596.676 775.267, 595.596 775.653, 594.468 775.674, 594.407 776.033, 593.360 776.066, 593.264 776.326, 592.506 776.363, 592.396 776.459, 592.118 776.490, 592.027 776.521, 591.937 776.631, 591.615 776.735, 591.312 776.875, 590.905 776.879, 590.891 776.909, 590.805 776.920, 590.773 776.925, 590.757 776.951, 590.683 777.149, 590.104 777.212, 590.036 777.838, 589.361 778.099, 589.080 778.266, 588.900 778.345, 588.815 778.501, 588.646 779.016, 588.091 779.051, 588.053 779.104, 587.996 779.203, 587.889 779.468, 587.604 779.999, 587.031 780.072, 586.953 780.771, 586.199 781.238, 585.695 " fill="none" stroke="rgb(0, 0, 0)" stroke-linecap="butt" stroke-linejoin="round" stroke-opacity="1.0" stroke-width="3.0" />
            <path d=" M 511.648, 670.128 512.031, 671.707 512.190, 672.363 512.737, 674.357 513.812, 676.226 515.554, 679.912 516.980, 682.835 518.312, 687.222 518.334, 687.281 518.682, 688.238 521.714, 696.576 523.286, 701.379 525.430, 706.090 " fill="none" stroke="rgb(0, 0, 0)" stroke-linecap="butt" stroke-linejoin="round" stroke-opacity="1.0" stroke-width="3.0" />
            <path d=" M 521.670, 529.307 520.760, 529.764 515.251, 533.065 508.231, 536.398 505.312, 538.102 501.875, 540.675 496.600, 540.415 494.347, 540.919 492.192, 541.605 489.606, 541.829 489.429, 541.844 486.827, 542.725 486.322, 542.896 " fill="none" stroke="rgb(0, 0, 0)" stroke-linecap="butt" stroke-linejoin="round" stroke-opacity="1.0" stroke-width="3.0" />
            <path d=" M 763.061, 810.887 762.352, 806.200 760.392, 801.907 756.921, 799.249 754.182, 799.117 753.250, 799.071 753.154, 799.065 751.193, 798.935 750.719, 798.903 750.570, 798.893 747.458, 798.686 742.081, 798.541 737.628, 800.191 735.584, 802.978 735.164, 803.551 734.904, 804.908 " fill="none" stroke="rgb(0, 0, 0)" stroke-linecap="butt" stroke-linejoin="round" stroke-opacity="1.0" stroke-width="3.0" />
            <path d=" M 762.209, 471.190 762.769, 468.488 762.745, 467.462 762.741, 467.302 762.738, 467.188 762.738, 467.165 762.723, 466.535 762.674, 464.476 762.623, 462.305 762.573, 460.152 760.864, 455.162 760.056, 453.650 756.799, 447.552 756.291, 446.601 755.732, 445.554 753.276, 440.957 750.795, 434.309 " fill="none" stroke="rgb(0, 0, 0)" stroke-linecap="butt" stroke-linejoin="round" stroke-opacity="1.0" stroke-width="3.0" />
            <path d=" M 696.645, 623.317 696.995, 625.368 697.236, 626.778 697.265, 626.947 697.906, 630.705 698.614, 635.590 698.667, 636.036 699.074, 639.508 699.274, 645.970 700.167, 651.599 700.890, 652.947 701.918, 652.582 702.704, 651.871 703.235, 646.804 703.634, 644.437 " fill="none" stroke="rgb(0, 0, 0)" stroke-linecap="butt" stroke-linejoin="round" stroke-opacity="1.0" stroke-width="3.0" />
            <path d=" M 705.396, 445.259 708.188, 445.399 709.826, 445.481 712.646, 445.932 713.992, 446.147 713.997, 446.148 714.183, 446.178 715.298, 446.356 716.631, 446.526 716.778, 446.544 716.783, 446.540 716.872, 446.458 716.887, 446.444 717.068, 446.279 717.721, 445.684 718.859, 442.942 718.862, 442.934 718.865, 442.929 718.866, 442.927 719.063, 442.451 719.077, 442.418 719.079, 442.413 719.327, 441.561 719.495, 440.982 719.509, 440.936 719.563, 440.749 719.810, 439.901 720.437, 437.743 719.995, 435.889 719.830, 435.195 719.829, 435.192 719.810, 435.111 719.781, 434.990 719.742, 434.830 719.718, 434.729 719.628, 434.350 719.607, 434.263 719.551, 434.027 719.326, 433.083 718.725, 430.565 717.511, 425.473 717.341, 424.808 715.612, 419.480 " fill="none" stroke="rgb(0, 0, 0)" stroke-linecap="butt" stroke-linejoin="round" stroke-opacity="1.0" stroke-width="3.0" />
            <path d=" M 798.978, 662.056 800.267, 661.405 803.911, 658.976 808.149, 656.682 814.272, 652.597 816.583, 650.373 818.308, 648.009 818.773, 647.242 822.741, 639.679 824.601, 633.263 " fill="none" stroke="rgb(0, 0, 0)" stroke-linecap="butt" stroke-linejoin="round" stroke-opacity="1.0" stroke-width="3.0" />
            <path d=" M 758.684, 921.271 758.733, 921.187 760.956, 917.358 760.964, 917.346 760.979, 917.320 761.031, 917.230 761.148, 917.027 761.915, 914.098 761.095, 907.211 759.883, 905.660 758.964, 903.831 756.752, 902.996 756.332, 903.222 754.047, 904.450 752.857, 905.371 752.417, 905.712 748.289, 908.910 748.106, 909.018 746.142, 910.183 745.196, 910.743 745.120, 910.789 745.014, 911.010 743.893, 913.353 743.833, 913.478 742.969, 915.285 742.941, 915.344 " fill="none" stroke="rgb(0, 0, 0)" stroke-linecap="butt" stroke-linejoin="round" stroke-opacity="1.0" stroke-width="3.0" />
            <path d=" M 783.644, 654.256 783.361, 654.783 781.845, 657.603 779.910, 661.719 779.743, 662.075 779.401, 662.802 778.436, 664.856 778.237, 665.279 778.029, 665.721 777.304, 667.263 774.956, 672.258 774.757, 672.682 773.761, 674.518 771.975, 680.369 771.431, 682.153 771.389, 682.290 770.824, 684.237 770.591, 685.041 770.488, 685.394 768.694, 691.575 768.602, 691.892 " fill="none" stroke="rgb(0, 0, 0)" stroke-linecap="butt" stroke-linejoin="round" stroke-opacity="1.0" stroke-width="3.0" />
            <path d=" M 729.853, 592.945 729.974, 593.711 730.008, 593.926 730.042, 594.140 730.047, 594.170 730.193, 595.088 728.630, 598.825 728.490, 600.271 728.485, 600.321 728.350, 601.702 728.214, 603.109 728.204, 603.286 728.168, 603.992 728.705, 606.456 729.265, 609.030 729.309, 609.233 729.989, 612.355 730.062, 612.688 730.988, 613.875 731.017, 613.913 731.753, 614.856 733.255, 615.364 736.237, 615.473 738.037, 615.538 739.211, 615.319 739.415, 615.281 743.385, 614.538 744.115, 614.478 744.205, 614.470 749.566, 614.026 " fill="none" stroke="rgb(0, 0, 0)" stroke-linecap="butt" stroke-linejoin="round" stroke-opacity="1.0" stroke-width="3.0" />
            <path d=" M 790.219, 766.741 790.377, 758.734 791.831, 752.285 795.789, 743.101 798.444, 736.942 803.039, 728.453 803.084, 728.369 " fill="none" stroke="rgb(0, 0, 0)" stroke-linecap="butt" stroke-linejoin="round" stroke-opacity="1.0" stroke-width="3.0" />
            <path d=" M 835.526, 588.145 833.591, 589.828 830.711, 591.835 827.992, 594.261 822.228, 597.370 818.271, 599.905 810.596, 604.012 805.419, 606.015 802.580, 607.245 800.728, 608.048 799.838, 608.433 " fill="none" stroke="rgb(0, 0, 0)" stroke-linecap="butt" stroke-linejoin="round" stroke-opacity="1.0" stroke-width="3.0" />
            <path d=" M 548.709, 517.908 547.772, 520.818 547.772, 520.819 547.758, 520.862 544.962, 529.543 543.503, 539.436 543.470, 539.663 541.010, 549.040 539.203, 558.040 539.096, 558.474 " fill="none" stroke="rgb(0, 0, 0)" stroke-linecap="butt" stroke-linejoin="round" stroke-opacity="1.0" stroke-width="3.0" />
            <path d=" M 737.143, 498.146 741.223, 507.276 742.884, 510.994 743.695, 512.807 746.648, 516.502 748.287, 521.037 749.580, 521.487 750.992, 521.978 752.292, 520.984 753.117, 520.353 753.126, 520.346 754.352, 516.526 754.510, 516.033 755.045, 514.367 755.142, 514.065 756.185, 510.816 756.182, 510.031 " fill="none" stroke="rgb(0, 0, 0)" stroke-linecap="butt" stroke-linejoin="round" stroke-opacity="1.0" stroke-width="3.0" />
            <path d=" M 681.720, 906.958 678.335, 905.740 677.784, 905.048 672.286, 898.135 668.301, 892.636 667.108, 891.175 659.779, 884.372 658.936, 883.590 651.879, 878.247 " fill="none" stroke="rgb(0, 0, 0)" stroke-linecap="butt" stroke-linejoin="round" stroke-opacity="1.0" stroke-width="3.0" />
            <path d=" M 755.332, 441.052 754.991, 439.084 754.014, 432.787 752.464, 429.638 748.138, 420.622 747.343, 418.965 741.980, 411.986 740.825, 410.483 735.546, 404.745 " fill="none" stroke="rgb(0, 0, 0)" stroke-linecap="butt" stroke-linejoin="round" stroke-opacity="1.0" stroke-width="3.0" />
            <path d=" M 733.150, 863.990 733.299, 868.792 733.371, 876.644 733.395, 879.202 732.892, 886.719 731.505, 895.664 731.333, 896.697 730.958, 898.954 730.602, 901.099 729.770, 906.110 " fill="none" stroke="rgb(0, 0, 0)" stroke-linecap="butt" stroke-linejoin="round" stroke-opacity="1.0" stroke-width="3.0" />
            <path d=" M 626.818, 367.180 623.008, 367.252 622.386, 367.213 617.906, 366.936 615.039, 366.434 612.125, 367.811 609.946, 370.043 608.540, 373.127 606.075, 376.388 604.076, 382.539 602.771, 392.453 602.733, 392.738 602.698, 393.010 " fill="none" stroke="rgb(0, 0, 0)" stroke-linecap="butt" stroke-linejoin="round" stroke-opacity="1.0" stroke-width="3.0" />
            <path d=" M 598.992, 622.466 596.836, 624.069 594.812, 624.879 591.611, 626.268 587.131, 628.212 591.939, 626.372 592.884, 626.010 601.171, 624.734 603.460, 623.116 603.861, 621.145 604.489, 618.059 604.685, 617.098 604.463, 615.043 604.194, 612.552 604.070, 611.404 604.006, 610.815 " fill="none" stroke="rgb(0, 0, 0)" stroke-linecap="butt" stroke-linejoin="round" stroke-opacity="1.0" stroke-width="3.0" />
            <path d=" M 626.942, 829.766 626.539, 828.351 625.126, 824.903 622.722, 823.874 622.618, 823.829 622.585, 823.815 621.395, 823.306 616.454, 822.206 612.440, 823.620 607.308, 824.696 603.755, 826.570 601.263, 829.645 599.959, 836.187 600.171, 840.876 " fill="none" stroke="rgb(0, 0, 0)" stroke-linecap="butt" stroke-linejoin="round" stroke-opacity="1.0" stroke-width="3.0" />
            <path d=" M 768.491, 855.905 768.424, 855.558 767.875, 852.691 766.067, 848.653 765.423, 847.213 764.771, 846.623 764.068, 846.751 763.896, 846.782 760.772, 847.351 759.303, 847.618 757.421, 848.851 756.624, 851.811 755.762, 855.015 754.716, 858.902 754.640, 859.183 752.998, 863.863 752.709, 864.689 751.490, 868.161 751.327, 868.628 750.955, 869.688 750.831, 870.040 750.791, 873.294 " fill="none" stroke="rgb(0, 0, 0)" stroke-linecap="butt" stroke-linejoin="round" stroke-opacity="1.0" stroke-width="3.0" />
            <path d=" M 532.824, 682.796 529.690, 677.916 525.844, 671.334 524.257, 667.909 523.129, 666.352 522.425, 664.167 520.831, 662.938 517.846, 662.584 513.213, 662.751 511.145, 663.350 509.183, 664.397 509.115, 665.072 508.965, 667.033 511.792, 671.375 512.031, 671.707 " fill="none" stroke="rgb(0, 0, 0)" stroke-linecap="butt" stroke-linejoin="round" stroke-opacity="1.0" stroke-width="3.0" />
            <path d=" M 798.577, 496.769 795.797, 495.070 791.825, 492.843 784.258, 486.305 784.052, 486.127 778.638, 481.767 771.607, 474.657 770.429, 473.466 765.460, 468.007 " fill="none" stroke="rgb(0, 0, 0)" stroke-linecap="butt" stroke-linejoin="round" stroke-opacity="1.0" stroke-width="3.0" />
            <path d=" M 776.562, 779.334 777.383, 775.207 778.286, 769.319 779.574, 761.995 780.084, 759.098 780.579, 756.280 781.135, 753.119 781.555, 750.601 781.789, 749.194 781.917, 748.324 783.371, 738.430 783.780, 735.652 " fill="none" stroke="rgb(0, 0, 0)" stroke-linecap="butt" stroke-linejoin="round" stroke-opacity="1.0" stroke-width="3.0" />
            <path d=" M 735.822, 571.276 735.643, 572.094 735.331, 573.520 733.697, 580.984 733.829, 582.536 734.168, 586.512 734.189, 586.763 734.373, 588.929 734.400, 589.011 734.678, 589.872 735.576, 592.645 736.012, 593.991 736.463, 594.548 738.168, 596.652 739.252, 596.812 742.561, 597.299 750.948, 598.835 751.843, 598.962 752.963, 598.848 753.869, 598.756 755.809, 598.559 " fill="none" stroke="rgb(0, 0, 0)" stroke-linecap="butt" stroke-linejoin="round" stroke-opacity="1.0" stroke-width="3.0" />
            <path d=" M 726.910, 417.813 726.913, 417.739 726.938, 417.122 726.966, 416.425 727.721, 407.063 727.792, 404.434 727.816, 403.558 727.677, 400.087 726.768, 395.940 726.732, 395.778 726.611, 395.225 724.882, 392.000 724.400, 391.101 723.362, 389.164 723.148, 388.765 723.072, 388.623 722.027, 386.672 720.311, 384.482 717.146, 377.204 716.007, 374.586 " fill="none" stroke="rgb(0, 0, 0)" stroke-linecap="butt" stroke-linejoin="round" stroke-opacity="1.0" stroke-width="3.0" />
            <path d=" M 571.106, 638.957 575.696, 637.105 579.357, 635.323 582.895, 634.672 588.270, 634.850 593.739, 636.322 597.315, 636.702 597.775, 636.750 598.061, 636.781 598.169, 636.792 598.350, 636.712 599.048, 636.403 599.138, 636.363 599.823, 636.060 600.252, 635.870 600.336, 635.787 602.054, 634.093 602.116, 634.015 602.489, 633.544 602.941, 632.000 602.954, 631.954 602.997, 631.806 603.815, 629.010 603.825, 628.976 604.037, 625.941 604.043, 625.732 604.157, 621.966 603.861, 621.145 " fill="none" stroke="rgb(0, 0, 0)" stroke-linecap="butt" stroke-linejoin="round" stroke-opacity="1.0" stroke-width="3.0" />
            <path d=" M 679.115, 916.236 673.974, 909.643 669.995, 907.831 669.938, 907.805 669.672, 907.684 669.564, 907.635 669.041, 907.397 669.016, 907.385 667.844, 906.852 667.746, 906.815 666.076, 906.186 664.689, 906.474 663.283, 906.764 661.568, 909.227 661.148, 910.955 660.705, 912.771 660.360, 914.189 660.144, 916.183 660.703, 918.549 661.073, 920.113 661.791, 923.156 666.996, 931.480 " fill="none" stroke="rgb(0, 0, 0)" stroke-linecap="butt" stroke-linejoin="round" stroke-opacity="1.0" stroke-width="3.0" />
            <path d=" M 554.376, 624.646 555.509, 625.107 556.208, 625.392 556.984, 628.287 558.254, 633.022 558.822, 633.639 560.454, 635.412 560.519, 635.482 561.792, 636.865 564.695, 639.043 565.200, 639.422 567.763, 641.345 569.379, 641.009 571.106, 638.957 571.226, 638.814 575.359, 634.943 576.120, 633.857 577.575, 631.783 577.895, 631.326 580.822, 630.045 582.970, 629.105 587.131, 628.212 " fill="none" stroke="rgb(0, 0, 0)" stroke-linecap="butt" stroke-linejoin="round" stroke-opacity="1.0" stroke-width="3.0" />
            <path d=" M 587.985, 599.572 589.463, 598.488 591.046, 599.159 594.221, 600.504 598.162, 599.633 600.821, 599.353 600.835, 599.351 601.083, 599.325 601.110, 599.322 601.215, 599.311 601.473, 599.284 602.189, 599.209 602.834, 599.141 602.862, 599.138 602.930, 599.131 605.462, 598.024 605.491, 598.011 606.470, 593.775 606.457, 592.889 606.328, 584.369 605.933, 583.182 605.923, 583.153 605.374, 581.503 600.069, 573.026 599.444, 572.026 598.983, 571.290 " fill="none" stroke="rgb(0, 0, 0)" stroke-linecap="butt" stroke-linejoin="round" stroke-opacity="1.0" stroke-width="3.0" />
            <path d=" M 745.367, 828.661 745.348, 828.666 744.520, 828.891 744.509, 828.894 744.023, 829.025 741.115, 829.813 740.807, 830.561 739.813, 832.975 739.766, 833.203 739.458, 834.701 740.044, 839.618 740.113, 840.196 740.132, 840.360 740.162, 840.614 740.220, 841.101 740.477, 843.259 740.811, 846.063 741.129, 848.734 741.188, 849.229 741.324, 850.370 741.575, 852.479 743.210, 859.499 742.959, 860.786 742.870, 861.243 742.848, 861.358 742.841, 861.393 742.827, 861.463 742.819, 861.508 742.587, 862.699 741.540, 864.386 741.526, 864.410 740.910, 865.402 737.681, 871.311 " fill="none" stroke="rgb(0, 0, 0)" stroke-linecap="butt" stroke-linejoin="round" stroke-opacity="1.0" stroke-width="3.0" />
            <path d=" M 853.124, 602.280 855.383, 599.908 855.597, 599.675 856.911, 598.241 858.711, 593.077 860.475, 589.935 861.757, 585.458 861.488, 581.302 861.365, 579.400 860.013, 570.881 859.963, 570.565 859.063, 564.901 858.893, 563.729 858.505, 559.749 858.484, 559.537 858.318, 557.826 858.053, 556.099 " fill="none" stroke="rgb(0, 0, 0)" stroke-linecap="butt" stroke-linejoin="round" stroke-opacity="1.0" stroke-width="3.0" />
            <path d=" M 752.963, 598.848 753.703, 598.852 756.190, 598.868 756.493, 598.869 757.328, 599.092 757.394, 599.110 760.777, 600.011 760.957, 600.104 764.155, 601.745 764.479, 601.911 764.846, 602.419 764.914, 602.512 765.989, 603.999 768.353, 607.265 770.722, 608.777 773.108, 610.300 773.196, 610.356 773.841, 610.767 773.918, 610.804 775.353, 611.495 776.030, 611.820 776.886, 611.340 777.840, 610.805 778.223, 610.487 778.785, 610.021 779.781, 609.195 779.879, 609.114 781.477, 607.788 781.550, 607.728 783.403, 606.191 784.637, 601.418 784.653, 601.356 784.684, 601.235 784.961, 600.163 784.989, 600.058 785.048, 599.827 784.992, 596.188 784.990, 596.098 784.990, 596.056 784.985, 595.748 784.978, 595.322 784.973, 594.991 784.962, 594.266 784.955, 593.816 " fill="none" stroke="rgb(0, 0, 0)" stroke-linecap="butt" stroke-linejoin="round" stroke-opacity="1.0" stroke-width="3.0" />
            <path d=" M 766.978, 694.254 764.247, 695.190 763.895, 695.311 760.555, 696.465 760.446, 696.503 760.390, 696.522 760.159, 696.602 759.205, 696.932 757.850, 697.419 757.842, 697.423 757.409, 697.578 753.799, 698.878 753.522, 698.977 753.166, 699.105 751.942, 699.546 750.046, 700.228 747.746, 701.056 747.665, 701.085 747.598, 701.109 741.722, 703.059 739.984, 703.636 738.687, 704.522 737.968, 707.243 741.088, 711.002 742.778, 714.963 743.175, 715.893 745.888, 718.736 748.358, 720.040 " fill="none" stroke="rgb(0, 0, 0)" stroke-linecap="butt" stroke-linejoin="round" stroke-opacity="1.0" stroke-width="3.0" />
            <path d=" M 584.486, 419.685 583.754, 420.676 583.115, 421.540 578.843, 427.318 576.172, 432.050 573.993, 437.881 577.866, 430.472 579.158, 428.055 583.523, 421.199 584.024, 420.412 584.486, 419.685 585.012, 418.859 585.048, 418.803 585.086, 418.744 588.247, 413.779 588.769, 413.006 " fill="none" stroke="rgb(0, 0, 0)" stroke-linecap="butt" stroke-linejoin="round" stroke-opacity="1.0" stroke-width="3.0" />
            <path d=" M 644.375, 449.467 642.305, 450.280 638.748, 451.018 638.672, 451.034 638.523, 451.065 638.389, 451.092 638.317, 451.107 638.240, 451.123 637.886, 451.197 638.249, 451.100 638.329, 451.079 638.388, 451.063 638.617, 451.002 638.672, 450.987 638.740, 450.969 644.375, 449.467 653.284, 447.091 653.603, 447.172 654.408, 447.376 654.500, 447.399 656.881, 448.002 658.586, 448.434 659.208, 448.320 663.180, 447.595 668.700, 446.462 673.045, 445.570 674.998, 445.169 675.013, 445.166 675.139, 444.384 675.317, 443.278 675.464, 442.367 675.927, 439.487 " fill="none" stroke="rgb(0, 0, 0)" stroke-linecap="butt" stroke-linejoin="round" stroke-opacity="1.0" stroke-width="3.0" />
            <path d=" M 769.908, 704.698 769.740, 705.206 768.339, 709.454 767.315, 713.300 765.027, 717.797 763.312, 722.739 763.068, 723.746 763.046, 723.839 762.211, 727.281 759.001, 736.311 755.219, 743.530 754.742, 744.443 754.726, 744.472 754.335, 745.219 753.306, 747.898 753.073, 748.503 751.617, 751.892 " fill="none" stroke="rgb(0, 0, 0)" stroke-linecap="butt" stroke-linejoin="round" stroke-opacity="1.0" stroke-width="3.0" />
            <path d=" M 599.315, 788.863 597.944, 785.393 597.141, 783.361 596.763, 782.404 596.749, 782.368 596.598, 781.987 595.489, 779.180 591.739, 773.896 589.376, 769.741 586.532, 766.202 583.349, 760.759 581.164, 757.370 580.754, 756.735 580.002, 755.698 579.508, 755.018 579.466, 754.960 579.332, 754.775 577.404, 752.118 575.671, 750.144 572.207, 746.198 " fill="none" stroke="rgb(0, 0, 0)" stroke-linecap="butt" stroke-linejoin="round" stroke-opacity="1.0" stroke-width="3.0" />
            <path d=" M 738.519, 553.516 741.048, 553.915 741.913, 555.828 741.736, 556.296 739.984, 560.951 738.451, 567.861 739.232, 573.096 739.421, 574.369 742.719, 581.904 743.498, 583.682 748.235, 583.968 752.319, 584.712 754.197, 583.318 757.028, 581.218 757.857, 581.176 758.070, 581.165 758.947, 581.120 759.173, 581.108 759.249, 581.105 " fill="none" stroke="rgb(0, 0, 0)" stroke-linecap="butt" stroke-linejoin="round" stroke-opacity="1.0" stroke-width="3.0" />
            <path d=" M 707.495, 982.503 711.147, 990.004 714.910, 991.980 719.318, 992.451 725.542, 992.241 726.919, 992.809 736.480, 989.881 737.302, 989.629 745.170, 983.457 745.453, 983.236 747.001, 980.779 748.275, 978.758 " fill="none" stroke="rgb(0, 0, 0)" stroke-linecap="butt" stroke-linejoin="round" stroke-opacity="1.0" stroke-width="3.0" />
            <path d=" M 617.270, 852.360 612.527, 853.398 612.289, 853.450 611.672, 853.585 611.021, 854.116 610.995, 854.137 610.983, 854.147 610.880, 854.231 610.478, 854.559 609.723, 855.175 609.439, 855.960 609.332, 856.257 609.248, 856.487 609.222, 856.561 609.055, 857.022 608.898, 857.511 608.047, 860.168 607.357, 862.322 607.353, 862.334 607.313, 862.459 607.226, 862.731 606.924, 863.675 606.889, 863.848 606.885, 863.864 606.781, 864.377 606.539, 865.569 606.372, 866.394 606.349, 866.506 606.217, 867.161 605.883, 870.764 605.858, 871.027 605.825, 871.384 605.820, 871.436 605.717, 872.557 605.712, 872.608 605.680, 872.956 605.618, 873.622 606.014, 875.947 606.281, 876.895 607.167, 880.032 609.088, 882.200 612.735, 886.315 612.559, 886.878 611.909, 888.954 610.410, 890.331 608.564, 894.304 " fill="none" stroke="rgb(0, 0, 0)" stroke-linecap="butt" stroke-linejoin="round" stroke-opacity="1.0" stroke-width="3.0" />
            <path d=" M 771.452, 836.808 771.516, 836.670 772.190, 835.208 771.943, 831.979 771.634, 827.941 771.139, 827.531 770.109, 826.677 770.074, 826.648 768.416, 825.273 765.645, 822.975 764.924, 822.953 760.081, 822.804 759.221, 822.417 758.826, 822.240 752.165, 819.246 751.409, 819.293 749.434, 819.417 748.531, 819.473 748.471, 819.477 748.459, 819.478 748.417, 819.480 747.601, 819.313 747.400, 819.272 747.207, 819.233 746.895, 819.169 746.477, 819.084 745.656, 818.916 743.285, 818.431 741.299, 818.994 740.710, 821.192 740.707, 821.205 740.687, 821.280 740.684, 821.290 740.502, 821.968 740.371, 822.456 740.037, 823.703 739.833, 824.464 739.736, 824.825 739.692, 824.991 739.083, 829.122 " fill="none" stroke="rgb(0, 0, 0)" stroke-linecap="butt" stroke-linejoin="round" stroke-opacity="1.0" stroke-width="3.0" />
            <path d=" M 803.039, 728.453 807.317, 723.369 811.865, 716.178 817.597, 707.984 817.752, 707.762 820.087, 703.840 822.956, 698.129 823.567, 694.921 822.581, 692.483 821.160, 690.319 818.575, 686.535 815.076, 684.639 " fill="none" stroke="rgb(0, 0, 0)" stroke-linecap="butt" stroke-linejoin="round" stroke-opacity="1.0" stroke-width="3.0" />
            <path d=" M 558.448, 620.548 558.568, 620.778 558.702, 621.020 558.796, 621.190 558.857, 621.301 559.000, 621.560 561.163, 625.483 561.320, 625.768 561.395, 625.845 565.075, 629.622 565.279, 629.831 565.422, 629.978 565.794, 630.360 566.315, 630.737 566.744, 631.047 567.167, 631.354 567.788, 631.803 567.926, 631.903 567.947, 631.918 568.172, 632.081 570.393, 630.857 574.185, 628.882 576.002, 625.378 576.691, 624.049 578.021, 622.431 578.382, 621.992 578.563, 621.771 579.680, 620.944 580.762, 620.142 581.662, 619.476 582.080, 619.166 583.925, 618.540 585.146, 618.126 585.169, 618.118 587.835, 617.721 588.076, 617.685 588.218, 617.664 588.778, 617.580 589.179, 617.398 589.294, 617.346 589.569, 617.221 590.684, 616.714 592.066, 616.086 600.039, 612.460 " fill="none" stroke="rgb(0, 0, 0)" stroke-linecap="butt" stroke-linejoin="round" stroke-opacity="1.0" stroke-width="3.0" />
            <path d=" M 630.686, 848.831 630.593, 848.472 630.303, 846.809 629.604, 842.801 627.428, 837.766 626.585, 837.500 625.431, 837.885 625.157, 837.976 624.435, 838.217 624.125, 838.321 620.517, 839.704 619.149, 840.229 617.386, 841.070 615.868, 841.932 614.302, 842.821 610.433, 844.836 607.357, 845.944 607.067, 846.049 605.841, 846.491 604.789, 847.387 604.432, 847.691 603.863, 848.176 603.466, 848.514 602.851, 849.512 601.910, 851.038 601.409, 851.852 601.332, 851.976 601.315, 852.003 600.186, 853.836 599.412, 856.032 599.122, 856.853 599.588, 861.469 600.619, 863.710 " fill="none" stroke="rgb(0, 0, 0)" stroke-linecap="butt" stroke-linejoin="round" stroke-opacity="1.0" stroke-width="3.0" />
            <path d=" M 731.863, 461.823 733.549, 463.542 736.893, 465.206 738.056, 465.784 738.284, 465.898 738.563, 466.037 738.636, 466.073 739.032, 466.271 739.531, 466.195 741.629, 465.879 742.513, 464.546 743.048, 461.314 742.802, 457.112 742.348, 449.353 741.471, 445.077 741.223, 443.868 741.212, 443.815 740.259, 439.172 737.819, 436.355 737.761, 436.289 736.438, 434.762 735.702, 433.913 735.662, 433.867 734.565, 432.601 734.304, 432.299 733.443, 431.305 733.087, 430.895 731.113, 428.617 730.690, 427.652 730.584, 427.409 729.872, 425.786 " fill="none" stroke="rgb(0, 0, 0)" stroke-linecap="butt" stroke-linejoin="round" stroke-opacity="1.0" stroke-width="3.0" />
            <path d=" M 800.466, 515.584 795.711, 509.582 792.694, 505.944 786.525, 498.074 785.653, 496.961 781.177, 491.171 775.632, 482.849 774.365, 480.948 769.384, 473.719 767.031, 471.181 " fill="none" stroke="rgb(0, 0, 0)" stroke-linecap="butt" stroke-linejoin="round" stroke-opacity="1.0" stroke-width="3.0" />
            <path d=" M 535.616, 639.179 527.272, 639.630 526.832, 639.636 523.059, 639.690 522.277, 639.562 521.768, 639.479 519.279, 639.071 517.073, 638.710 515.529, 638.457 515.323, 638.403 512.347, 637.616 508.551, 636.612 500.230, 634.292 490.584, 631.300 486.190, 629.852 481.177, 627.667 480.450, 627.157 " fill="none" stroke="rgb(0, 0, 0)" stroke-linecap="butt" stroke-linejoin="round" stroke-opacity="1.0" stroke-width="3.0" />
            <path d=" M 769.059, 850.778 766.617, 847.367 765.086, 845.229 765.015, 845.130 764.624, 843.975 763.944, 841.964 763.434, 840.456 763.406, 840.374 762.717, 838.336 762.448, 838.237 762.276, 838.173 761.821, 838.005 759.554, 837.590 759.505, 837.581 758.709, 837.435 758.200, 837.342 757.733, 837.257 756.490, 837.661 756.451, 837.674 756.248, 837.740 756.224, 837.761 755.611, 838.269 755.006, 839.605 753.212, 843.562 753.142, 843.736 751.779, 847.102 748.884, 853.674 747.837, 857.179 747.734, 857.979 747.586, 859.134 747.381, 860.739 747.344, 861.030 747.223, 861.975 747.792, 863.637 748.706, 866.310 748.728, 866.373 749.530, 868.717 749.604, 868.934 749.651, 869.070 749.463, 869.335 749.426, 869.386 749.165, 869.754 748.607, 870.540 748.229, 871.072 747.945, 871.473 " fill="none" stroke="rgb(0, 0, 0)" stroke-linecap="butt" stroke-linejoin="round" stroke-opacity="1.0" stroke-width="3.0" />
            <path d=" M 861.488, 581.302 862.592, 575.444 862.033, 568.059 861.354, 561.075 859.584, 551.233 859.222, 549.216 856.141, 539.703 855.169, 536.702 852.386, 530.544 849.716, 526.066 849.548, 525.860 " fill="none" stroke="rgb(0, 0, 0)" stroke-linecap="butt" stroke-linejoin="round" stroke-opacity="1.0" stroke-width="3.0" />
            <path d=" M 534.220, 728.762 532.188, 728.458 527.691, 728.263 520.572, 727.895 515.370, 728.826 512.790, 730.193 509.340, 732.449 507.182, 734.820 506.077, 737.927 504.048, 742.727 504.549, 744.930 505.403, 747.861 511.217, 755.411 513.899, 757.611 515.529, 758.948 " fill="none" stroke="rgb(0, 0, 0)" stroke-linecap="butt" stroke-linejoin="round" stroke-opacity="1.0" stroke-width="3.0" />
            <path d=" M 768.416, 825.273 766.907, 820.919 765.286, 819.098 764.622, 818.353 762.686, 817.299 759.658, 816.857 759.609, 816.850 758.214, 816.646 751.959, 816.428 751.573, 816.412 749.127, 816.311 749.102, 816.310 748.896, 816.301 748.858, 816.299 748.597, 816.289 748.473, 816.283 747.963, 816.262 747.761, 816.254 747.335, 816.236 746.461, 816.200 743.410, 817.076 740.554, 817.841 740.304, 817.996 739.982, 818.195 739.840, 818.282 738.951, 818.830 737.733, 823.492 737.974, 827.616 738.001, 828.068 738.033, 828.620 738.100, 829.143 738.281, 830.559 738.406, 831.536 738.651, 832.992 739.332, 837.041 739.697, 839.693 739.768, 840.209 739.821, 840.596 738.229, 842.674 " fill="none" stroke="rgb(0, 0, 0)" stroke-linecap="butt" stroke-linejoin="round" stroke-opacity="1.0" stroke-width="3.0" />
            <path d=" M 616.230, 953.646 617.648, 955.880 618.762, 957.634 619.717, 959.139 620.932, 961.053 623.796, 964.599 625.818, 966.564 631.217, 971.353 633.799, 973.770 638.158, 976.804 642.336, 979.360 646.523, 981.616 654.982, 986.949 656.108, 987.660 663.029, 989.809 663.237, 989.724 " fill="none" stroke="rgb(0, 0, 0)" stroke-linecap="butt" stroke-linejoin="round" stroke-opacity="1.0" stroke-width="3.0" />
            <path d=" M 615.983, 628.650 616.035, 628.533 618.187, 623.745 618.188, 623.743 619.079, 621.760 620.093, 619.612 620.858, 618.232 621.480, 617.533 623.525, 615.235 623.526, 615.234 624.702, 613.913 626.033, 612.845 626.065, 612.819 627.343, 611.793 627.422, 611.730 627.673, 611.529 628.288, 611.196 628.302, 611.189 629.595, 610.488 632.844, 608.729 634.814, 607.517 640.709, 604.877 647.116, 603.517 650.629, 603.851 650.825, 603.802 654.452, 602.814 659.772, 600.767 660.901, 600.752 664.780, 599.367 664.789, 599.364 " fill="none" stroke="rgb(0, 0, 0)" stroke-linecap="butt" stroke-linejoin="round" stroke-opacity="1.0" stroke-width="3.0" />
            <path d=" M 578.100, 828.031 579.497, 837.933 580.549, 845.386 581.475, 852.120 581.589, 852.947 581.785, 854.371 581.791, 854.413 581.945, 855.533 581.945, 855.537 581.973, 855.740 582.713, 860.220 583.064, 861.789 585.247, 871.548 585.364, 872.072 587.268, 881.890 587.822, 884.744 588.971, 890.374 " fill="none" stroke="rgb(0, 0, 0)" stroke-linecap="butt" stroke-linejoin="round" stroke-opacity="1.0" stroke-width="3.0" />
            <path d=" M 584.303, 482.063 583.371, 487.002 583.189, 487.967 583.165, 488.095 582.552, 491.350 582.462, 491.828 582.436, 492.029 582.423, 492.125 581.770, 497.216 581.765, 497.252 581.743, 497.424 581.739, 497.457 581.728, 497.925 581.714, 498.505 581.706, 498.859 581.471, 508.856 581.354, 513.790 582.839, 521.436 583.033, 530.709 584.283, 537.021 584.607, 539.516 584.622, 539.636 584.997, 542.523 585.058, 542.995 586.035, 550.527 " fill="none" stroke="rgb(0, 0, 0)" stroke-linecap="butt" stroke-linejoin="round" stroke-opacity="1.0" stroke-width="3.0" />
            <path d=" M 737.690, 525.758 737.746, 532.155 742.066, 541.174 742.844, 542.800 743.516, 544.779 743.546, 544.864 744.116, 546.544 745.584, 550.867 745.856, 551.080 746.410, 551.515 749.084, 553.613 751.627, 553.731 751.648, 553.732 751.701, 553.735 753.440, 552.339 753.457, 552.324 753.562, 551.938 754.232, 549.478 754.351, 549.041 754.377, 548.947 754.696, 547.772 754.996, 546.670 755.069, 546.402 755.145, 546.125 756.452, 541.320 757.297, 536.716 757.429, 536.001 757.446, 535.898 757.456, 535.833 757.573, 535.124 757.983, 532.645 758.106, 531.896 755.308, 524.765 753.117, 520.353 " fill="none" stroke="rgb(0, 0, 0)" stroke-linecap="butt" stroke-linejoin="round" stroke-opacity="1.0" stroke-width="3.0" />
            <path d=" M 457.858, 563.581 455.527, 567.289 453.585, 571.333 451.181, 578.264 450.447, 585.452 450.396, 595.452 450.371, 600.504 450.458, 604.963 450.980, 612.432 451.590, 616.260 452.475, 619.822 455.927, 629.207 456.090, 629.650 456.860, 631.035 " fill="none" stroke="rgb(0, 0, 0)" stroke-linecap="butt" stroke-linejoin="round" stroke-opacity="1.0" stroke-width="3.0" />
            <path d=" M 742.386, 471.776 746.273, 477.790 748.057, 480.715 749.210, 482.607 751.217, 486.136 751.371, 486.408 753.026, 489.270 753.422, 489.954 753.618, 490.294 754.448, 491.728 755.005, 492.692 755.156, 492.953 756.325, 498.652 757.581, 501.590 757.954, 502.463 759.465, 505.995 759.588, 506.281 759.623, 506.365 759.650, 506.427 760.365, 508.021 760.635, 508.623 760.868, 509.142 761.402, 510.331 762.257, 512.236 762.469, 512.943 762.602, 513.383 763.651, 516.880 763.808, 517.402 764.038, 517.888 766.518, 523.130 766.555, 523.510 766.581, 523.782 766.812, 526.151 767.018, 528.274 767.855, 530.402 768.217, 531.322 770.035, 535.943 " fill="none" stroke="rgb(0, 0, 0)" stroke-linecap="butt" stroke-linejoin="round" stroke-opacity="1.0" stroke-width="3.0" />
            <path d=" M 766.451, 939.846 767.623, 942.586 768.756, 948.173 768.709, 954.665 768.446, 957.343 765.872, 962.055 765.463, 962.804 765.450, 962.828 765.397, 962.926 764.231, 965.061 762.809, 966.195 762.632, 966.336 761.330, 967.374 755.516, 973.943 761.024, 968.460 765.789, 963.976 767.700, 960.464 769.291, 957.540 769.785, 956.802 771.425, 954.352 770.836, 955.522 769.105, 958.961 767.700, 960.464 " fill="none" stroke="rgb(0, 0, 0)" stroke-linecap="butt" stroke-linejoin="round" stroke-opacity="1.0" stroke-width="3.0" />
            <path d=" M 612.682, 441.026 612.652, 441.100 612.594, 441.248 612.175, 442.303 609.576, 448.846 609.645, 455.420 610.738, 461.534 610.841, 462.110 611.423, 465.366 614.127, 474.994 614.363, 475.836 616.977, 477.104 621.232, 475.423 624.402, 467.739 628.701, 458.711 629.221, 457.620 631.467, 452.801 631.520, 452.689 631.650, 452.411 631.672, 452.362 631.803, 452.082 631.965, 451.735 632.481, 450.628 632.537, 450.507 632.620, 450.431 633.698, 449.442 " fill="none" stroke="rgb(0, 0, 0)" stroke-linecap="butt" stroke-linejoin="round" stroke-opacity="1.0" stroke-width="3.0" />
            <path d=" M 794.044, 624.712 793.954, 624.864 793.674, 625.340 792.970, 626.534 792.807, 626.811 792.605, 627.154 791.573, 629.320 790.943, 630.641 789.799, 633.814 787.812, 638.971 786.533, 645.822 785.369, 650.067 784.820, 652.067 784.760, 652.286 783.630, 656.409 783.411, 657.068 783.048, 658.160 781.710, 662.190 780.642, 665.405 780.629, 665.443 780.539, 665.715 780.268, 667.453 780.064, 668.764 779.948, 669.507 779.934, 669.598 779.928, 669.634 779.795, 670.488 777.839, 676.651 777.250, 678.397 776.818, 679.770 775.241, 684.785 773.719, 690.705 773.432, 692.041 773.354, 692.407 772.936, 694.354 " fill="none" stroke="rgb(0, 0, 0)" stroke-linecap="butt" stroke-linejoin="round" stroke-opacity="1.0" stroke-width="3.0" />
            <path d=" M 571.510, 451.338 571.299, 451.739 570.963, 452.378 569.814, 454.562 569.358, 455.454 569.326, 455.517 569.245, 455.674 568.863, 456.420 568.796, 456.552 568.643, 456.850 568.213, 457.691 568.206, 457.703 564.134, 466.836 564.077, 466.963 560.866, 474.813 558.940, 480.570 558.936, 480.582 557.922, 483.615 557.907, 483.661 557.697, 484.288 557.342, 485.631 557.266, 485.920 557.206, 486.145 557.176, 486.259 557.049, 486.741 555.459, 493.246 555.277, 493.825 555.260, 493.877 553.479, 499.542 551.356, 507.185 549.042, 514.317 548.724, 515.937 548.652, 516.304 547.766, 520.824 547.765, 520.825 547.758, 520.862 " fill="none" stroke="rgb(0, 0, 0)" stroke-linecap="butt" stroke-linejoin="round" stroke-opacity="1.0" stroke-width="3.0" />
            <path d=" M 744.116, 546.544 743.526, 550.562 743.867, 555.062 743.941, 556.038 744.364, 557.251 744.528, 557.722 747.549, 566.392 748.735, 571.793 749.855, 573.066 752.078, 575.594 752.469, 575.748 755.267, 575.626 755.385, 575.448 757.964, 571.593 759.460, 568.027 760.389, 565.039 761.316, 563.580 761.335, 563.549 761.371, 563.494 761.441, 563.383 761.734, 562.921 762.705, 561.395 763.166, 559.479 764.200, 555.190 764.437, 554.208 764.502, 552.574 763.159, 549.294 762.370, 547.369 762.206, 546.968 761.811, 546.003 761.274, 544.691 760.186, 542.034 760.033, 541.544 759.019, 538.295 " fill="none" stroke="rgb(0, 0, 0)" stroke-linecap="butt" stroke-linejoin="round" stroke-opacity="1.0" stroke-width="3.0" />
            <path d=" M 513.899, 757.611 519.312, 763.255 521.084, 765.239 527.065, 770.873 534.028, 778.051 534.985, 779.037 541.633, 786.506 542.258, 787.208 546.364, 793.371 549.050, 800.367 551.302, 808.846 550.671, 813.633 550.688, 813.740 551.722, 820.270 " fill="none" stroke="rgb(0, 0, 0)" stroke-linecap="butt" stroke-linejoin="round" stroke-opacity="1.0" stroke-width="3.0" />
            <path d=" M 554.786, 426.982 550.180, 427.798 544.217, 429.343 540.155, 431.118 537.374, 432.739 531.968, 437.695 531.749, 437.952 528.540, 442.472 525.911, 447.944 522.307, 454.696 520.451, 458.389 519.317, 463.113 518.348, 467.350 519.039, 469.429 521.610, 472.617 522.253, 472.941 525.793, 472.872 528.328, 474.034 532.000, 475.766 532.265, 475.891 " fill="none" stroke="rgb(0, 0, 0)" stroke-linecap="butt" stroke-linejoin="round" stroke-opacity="1.0" stroke-width="3.0" />
            <path d=" M 559.876, 468.267 559.825, 468.737 559.650, 470.355 559.625, 470.585 559.586, 470.947 559.510, 471.645 559.508, 471.656 558.992, 473.972 557.303, 475.327 557.215, 475.398 556.960, 475.603 556.447, 476.014 556.153, 476.645 555.534, 477.970 555.529, 477.983 555.463, 478.123 555.416, 478.224 555.405, 478.247 555.243, 478.596 555.214, 478.657 555.168, 478.755 555.023, 479.065 554.810, 479.523 552.740, 483.959 552.347, 484.819 551.461, 486.760 550.268, 489.375 549.132, 491.864 547.648, 495.114 546.726, 497.290 546.277, 498.351 545.816, 499.045 541.713, 505.218 541.405, 505.682 541.045, 506.223 539.623, 508.362 536.193, 513.626 531.465, 520.090 525.008, 526.232 521.670, 529.307 519.343, 531.451 " fill="none" stroke="rgb(0, 0, 0)" stroke-linecap="butt" stroke-linejoin="round" stroke-opacity="1.0" stroke-width="3.0" />
            <path d=" M 689.601, 676.541 690.724, 682.073 691.690, 685.070 692.326, 687.047 693.899, 691.029 694.143, 691.649 695.341, 694.684 700.728, 699.292 703.667, 702.705 705.643, 705.001 710.964, 709.949 715.475, 714.203 718.214, 716.547 720.561, 718.008 722.159, 718.606 723.439, 718.896 728.325, 719.088 732.497, 718.509 739.843, 716.405 742.778, 714.963 " fill="none" stroke="rgb(0, 0, 0)" stroke-linecap="butt" stroke-linejoin="round" stroke-opacity="1.0" stroke-width="3.0" />
            <path d=" M 570.902, 743.946 566.354, 736.724 565.825, 735.818 563.995, 732.683 563.616, 732.033 563.271, 731.442 562.479, 730.276 558.883, 724.981 558.229, 723.216 556.421, 720.121 554.394, 716.452 550.397, 709.654 548.355, 705.567 548.061, 704.978 548.054, 704.964 547.605, 704.065 543.120, 697.529 542.052, 695.717 541.219, 694.304 540.560, 693.265 539.967, 692.332 538.726, 690.376 536.900, 688.194 534.544, 685.074 532.824, 682.796 530.036, 679.103 " fill="none" stroke="rgb(0, 0, 0)" stroke-linecap="butt" stroke-linejoin="round" stroke-opacity="1.0" stroke-width="3.0" />
            <path d=" M 760.056, 453.650 761.317, 450.217 766.262, 447.582 770.800, 447.878 771.481, 447.540 772.650, 445.687 772.848, 445.169 772.615, 441.967 772.980, 438.838 772.202, 434.993 771.261, 433.409 769.146, 430.100 768.147, 428.631 766.462, 425.549 763.905, 422.570 760.758, 418.083 758.960, 415.534 755.697, 412.492 753.607, 410.716 747.625, 406.970 740.005, 404.662 736.459, 404.486 735.028, 404.263 " fill="none" stroke="rgb(0, 0, 0)" stroke-linecap="butt" stroke-linejoin="round" stroke-opacity="1.0" stroke-width="3.0" />
            <path d=" M 777.960, 853.753 778.072, 851.892 778.389, 846.600 778.641, 836.603 778.688, 834.744 779.161, 827.710 778.454, 817.735 778.311, 815.716 777.656, 808.715 777.618, 808.318 777.618, 808.289 777.614, 808.121 777.595, 807.160 777.570, 805.875 777.569, 805.816 777.563, 805.503 777.516, 803.156 777.500, 802.302 777.498, 802.220 777.458, 800.192 777.416, 798.048 777.298, 796.287 777.154, 794.131 777.069, 792.858 777.062, 792.760 776.942, 789.534 776.570, 779.541 776.562, 779.334 776.513, 778.011 776.900, 774.396 " fill="none" stroke="rgb(0, 0, 0)" stroke-linecap="butt" stroke-linejoin="round" stroke-opacity="1.0" stroke-width="3.0" />
            <path d=" M 741.211, 915.962 741.564, 915.331 741.613, 915.243 742.422, 913.799 742.631, 913.427 742.523, 913.186 741.446, 910.775 739.489, 910.809 739.027, 910.817 737.372, 910.845 734.204, 912.309 732.549, 912.556 732.058, 912.629 731.759, 912.674 731.621, 912.694 731.148, 912.765 730.981, 912.790 730.674, 912.836 730.665, 912.837 730.650, 912.839 730.500, 912.861 730.480, 912.865 730.453, 912.869 730.430, 912.872 730.247, 912.899 729.844, 912.959 729.642, 912.982 729.616, 912.984 729.343, 913.015 729.234, 913.027 729.209, 913.029 727.256, 913.245 727.170, 913.254 727.155, 913.256 727.122, 913.260 727.046, 913.268 726.930, 913.281 726.845, 913.290 726.814, 913.294 726.388, 913.341 725.535, 913.435 725.249, 913.466 724.944, 913.500 722.964, 913.719 720.273, 914.016 715.984, 917.158 714.713, 918.089 711.450, 918.003 710.114, 917.310 709.196, 916.982 707.891, 916.516 707.398, 916.339 703.167, 916.689 702.774, 916.721 700.760, 916.887 695.621, 918.324 688.557, 916.104 680.544, 915.682 679.115, 916.236 678.526, 916.465 678.483, 916.482 678.008, 916.666 673.807, 910.923 672.106, 910.047 " fill="none" stroke="rgb(0, 0, 0)" stroke-linecap="butt" stroke-linejoin="round" stroke-opacity="1.0" stroke-width="3.0" />
            <path d=" M 585.446, 541.328 585.494, 542.068 585.533, 542.679 586.035, 550.527 586.622, 559.701 588.136, 563.529 588.146, 563.554 591.211, 564.870 591.216, 564.872 592.340, 565.355 592.364, 565.365 592.738, 565.526 593.206, 565.727 593.269, 565.754 593.390, 565.806 594.640, 565.084 597.541, 563.407 600.572, 553.877 601.346, 551.444 603.328, 542.518 603.761, 540.568 604.570, 536.928 604.775, 536.006 605.201, 534.086 605.714, 532.082 608.192, 522.394 610.671, 512.706 611.356, 510.028 611.858, 508.063 " fill="none" stroke="rgb(0, 0, 0)" stroke-linecap="butt" stroke-linejoin="round" stroke-opacity="1.0" stroke-width="3.0" />
            <path d=" M 563.430, 716.997 566.217, 719.815 567.389, 721.001 568.450, 722.074 568.531, 722.156 568.618, 722.244 568.633, 722.259 568.979, 722.609 573.847, 726.353 582.629, 731.136 583.229, 731.463 588.241, 733.494 591.101, 734.212 598.430, 735.780 601.365, 735.213 601.783, 734.982 602.340, 734.795 612.188, 733.056 613.371, 732.847 616.378, 730.225 618.205, 725.979 622.249, 718.734 624.433, 714.310 626.603, 709.912 629.236, 704.736 629.635, 703.722 629.701, 703.555 630.226, 702.222 630.232, 702.208 630.884, 700.555 631.909, 694.983 632.156, 693.639 632.450, 692.043 " fill="none" stroke="rgb(0, 0, 0)" stroke-linecap="butt" stroke-linejoin="round" stroke-opacity="1.0" stroke-width="3.0" />
            <path d=" M 768.217, 531.322 770.066, 538.071 772.355, 542.853 773.358, 544.949 775.000, 543.774 775.734, 543.165 775.893, 541.928 775.942, 541.542 775.989, 541.181 776.008, 541.031 776.053, 540.676 776.126, 540.109 776.169, 539.776 776.177, 539.715 774.954, 529.790 774.323, 524.669 773.851, 520.840 773.612, 518.900 772.922, 510.754 771.344, 502.656 770.897, 500.609 768.766, 490.838 768.613, 490.138 767.387, 485.218 764.074, 475.783 763.460, 474.034 762.209, 471.190 759.094, 464.103 757.953, 461.909 757.532, 461.101 757.085, 460.240 756.137, 458.417 " fill="none" stroke="rgb(0, 0, 0)" stroke-linecap="butt" stroke-linejoin="round" stroke-opacity="1.0" stroke-width="3.0" />
            <path d=" M 653.373, 879.987 651.879, 878.247 647.627, 873.298 641.203, 867.901 637.651, 863.211 634.422, 859.121 634.378, 859.065 633.225, 857.605 631.764, 855.649 630.355, 853.761 630.230, 853.594 630.108, 853.431 630.092, 853.410 629.183, 852.193 628.969, 851.905 628.189, 851.249 628.179, 851.240 627.272, 850.477 626.335, 849.688 626.333, 849.686 622.615, 846.556 620.582, 846.862 619.181, 847.073 617.270, 852.360 616.999, 853.110 617.441, 854.727 617.506, 854.965 618.042, 856.927 618.849, 859.883 620.761, 866.886 620.768, 866.907 620.922, 867.346 621.574, 868.941 622.559, 871.351 622.894, 872.171 623.770, 874.311 624.101, 875.121 624.659, 876.486 624.747, 876.701 626.672, 881.411 627.218, 882.745 627.233, 882.784 627.309, 882.969 627.375, 883.129 627.434, 883.274 630.177, 889.985 633.704, 896.604 633.862, 896.900 634.306, 897.734 634.552, 898.195 636.038, 900.984 " fill="none" stroke="rgb(0, 0, 0)" stroke-linecap="butt" stroke-linejoin="round" stroke-opacity="1.0" stroke-width="3.0" />
            <path d=" M 532.812, 724.560 533.157, 725.590 534.220, 728.762 535.601, 732.883 540.091, 741.818 541.708, 745.036 546.362, 753.731 551.522, 762.297 552.360, 763.690 553.690, 766.163 553.703, 766.187 555.889, 770.252 558.650, 774.617 561.223, 779.697 564.969, 787.094 569.037, 796.229 571.761, 802.347 573.126, 805.412 575.210, 812.916 572.820, 804.268 " fill="none" stroke="rgb(0, 0, 0)" stroke-linecap="butt" stroke-linejoin="round" stroke-opacity="1.0" stroke-width="3.0" />
            <path d=" M 781.917, 748.324 784.376, 738.631 786.835, 728.938 787.145, 727.718 790.175, 718.188 790.412, 717.442 791.632, 709.994 793.758, 700.223 794.342, 697.536 795.591, 690.341 796.546, 683.605 797.171, 679.195 797.456, 676.293 798.473, 666.345 798.770, 663.447 798.978, 662.056 799.433, 659.025 800.006, 651.166 800.409, 645.463 800.421, 641.529 800.429, 638.925 " fill="none" stroke="rgb(0, 0, 0)" stroke-linecap="butt" stroke-linejoin="round" stroke-opacity="1.0" stroke-width="3.0" />
            <path d=" M 765.202, 924.799 765.243, 924.734 765.569, 924.209 765.631, 924.111 765.648, 924.084 765.690, 924.015 765.858, 923.745 765.904, 923.672 767.230, 921.543 767.231, 921.541 769.059, 918.606 771.738, 911.811 771.879, 911.453 772.983, 908.655 773.024, 908.550 773.755, 906.698 775.031, 901.501 776.112, 897.104 777.301, 892.262 777.311, 892.221 777.821, 890.145 777.950, 889.622 778.625, 886.873 779.821, 882.006 780.414, 874.677 778.611, 870.840 778.194, 869.953 778.070, 869.688 777.225, 867.890 776.953, 867.312 776.823, 867.035 776.330, 865.458 776.306, 865.383 776.164, 864.928 776.164, 864.928 776.100, 864.724 775.966, 864.298 775.871, 863.993 775.212, 863.029 773.007, 859.802 772.659, 859.293 772.642, 859.268 772.240, 858.680 772.143, 858.537 772.125, 858.511 772.076, 858.439 771.731, 857.934 771.516, 857.620 771.495, 857.590 771.454, 857.529 771.450, 857.524 771.364, 857.398 770.928, 856.802 770.272, 856.560 769.776, 856.378 768.491, 855.905 768.199, 855.798 767.753, 855.634 766.443, 855.437 764.928, 855.886 764.792, 856.041 764.524, 856.349 764.412, 856.478 764.356, 856.542 763.147, 857.931 763.089, 857.998 763.046, 858.081 762.617, 858.918 761.532, 861.037 761.382, 861.330 759.637, 864.737 759.142, 865.702 759.067, 865.832 758.981, 865.980 758.939, 866.052 757.567, 868.409 757.346, 868.788 756.375, 870.456 756.290, 870.603 752.424, 877.245 751.908, 878.012 751.606, 878.460 751.487, 878.638 751.321, 878.884 751.280, 878.945 751.189, 879.081 750.419, 880.224 750.279, 880.433 750.140, 880.640 749.976, 880.884 749.231, 881.990 749.113, 882.166 747.938, 883.911 746.811, 885.586 746.703, 885.747 746.697, 885.756 746.481, 886.078 746.356, 886.276 745.731, 887.268 745.633, 887.424 744.015, 889.994 743.943, 890.108 743.921, 890.144 743.704, 890.489 743.701, 890.494 743.698, 890.497 743.565, 890.710 743.180, 891.321 742.307, 892.708 741.962, 893.256 " fill="none" stroke="rgb(0, 0, 0)" stroke-linecap="butt" stroke-linejoin="round" stroke-opacity="1.0" stroke-width="3.0" />
        </g>
    </g>
</svg>
