<?xml version='1.0' encoding='ascii'?>
<svg xmlns="http://www.w3.org/2000/svg" height="1280" version="1.1" width="1280">
    <g id="RenderLayer_LineSet" inkscape:groupmode="lineset" inkscape:label="RenderLayer_LineSet" xmlns:inkscape="http://www.inkscape.org/namespaces/inkscape">
        <g id="strokes" inkscape:groupmode="layer" inkscape:label="strokes" xmlns:inkscape="http://www.inkscape.org/namespaces/inkscape">
            <path d=" M 759.916, 453.316 759.714, 452.857 759.254, 451.812 758.676, 450.496 757.180, 447.429 756.398, 443.330 755.730, 439.833 755.708, 439.751 755.618, 439.412 754.984, 437.035 754.592, 434.067 " fill="none" stroke="rgb(0, 0, 0)" stroke-linecap="butt" stroke-linejoin="round" stroke-opacity="1.0" stroke-width="3.0" />
            <path d=" M 545.599, 798.233 545.568, 798.268 543.961, 802.043 542.911, 804.173 541.942, 805.026 539.179, 808.090 538.821, 809.003 536.907, 814.896 536.780, 816.150 " fill="none" stroke="rgb(0, 0, 0)" stroke-linecap="butt" stroke-linejoin="round" stroke-opacity="1.0" stroke-width="3.0" />
            <path d=" M 747.744, 626.878 749.686, 624.930 752.365, 622.213 752.800, 621.661 755.468, 618.235 756.685, 616.654 756.742, 616.580 756.770, 616.543 757.073, 616.149 757.133, 616.072 757.640, 615.412 760.150, 613.786 761.499, 612.561 761.947, 612.160 " fill="none" stroke="rgb(0, 0, 0)" stroke-linecap="butt" stroke-linejoin="round" stroke-opacity="1.0" stroke-width="3.0" />
            <path d=" M 763.570, 773.858 763.548, 773.196 763.540, 772.961 763.532, 772.700 763.506, 771.896 763.367, 767.638 763.346, 767.001 763.293, 765.351 763.277, 764.854 763.273, 764.761 763.233, 763.522 763.183, 761.987 763.169, 761.560 763.121, 761.292 763.078, 761.060 763.024, 760.759 762.989, 760.568 762.674, 758.837 762.073, 755.532 761.794, 754.000 761.687, 753.407 " fill="none" stroke="rgb(0, 0, 0)" stroke-linecap="butt" stroke-linejoin="round" stroke-opacity="1.0" stroke-width="3.0" />
            <path d=" M 848.470, 676.269 847.417, 679.961 844.439, 689.496 842.254, 695.958 " fill="none" stroke="rgb(0, 0, 0)" stroke-linecap="butt" stroke-linejoin="round" stroke-opacity="1.0" stroke-width="3.0" />
            <path d=" M 760.267, 931.757 761.714, 929.144 762.948, 926.648 763.036, 926.471 763.326, 925.884 763.536, 925.419 763.910, 924.591 765.673, 920.687 766.507, 918.959 767.296, 916.269 768.175, 913.275 768.309, 912.792 " fill="none" stroke="rgb(0, 0, 0)" stroke-linecap="butt" stroke-linejoin="round" stroke-opacity="1.0" stroke-width="3.0" />
            <path d=" M 522.022, 714.137 517.940, 715.617 515.495, 718.009 514.983, 721.180 516.451, 726.833 516.804, 727.811 517.763, 730.473 " fill="none" stroke="rgb(0, 0, 0)" stroke-linecap="butt" stroke-linejoin="round" stroke-opacity="1.0" stroke-width="3.0" />
            <path d=" M 633.392, 644.033 632.961, 644.487 632.276, 649.538 632.323, 650.616 632.692, 659.006 634.727, 663.223 635.010, 664.085 " fill="none" stroke="rgb(0, 0, 0)" stroke-linecap="butt" stroke-linejoin="round" stroke-opacity="1.0" stroke-width="3.0" />
            <path d=" M 773.837, 877.891 774.217, 876.705 774.604, 875.497 774.706, 875.178 774.863, 874.686 774.938, 874.073 774.957, 873.921 775.396, 870.335 775.798, 867.049 775.967, 865.671 775.923, 866.328 775.898, 866.693 775.760, 868.751 775.555, 871.799 775.016, 873.709 774.957, 873.921 " fill="none" stroke="rgb(0, 0, 0)" stroke-linecap="butt" stroke-linejoin="round" stroke-opacity="1.0" stroke-width="3.0" />
            <path d=" M 777.046, 477.538 775.325, 473.388 775.283, 473.286 774.076, 470.375 773.428, 467.897 771.092, 463.901 766.830, 459.889 " fill="none" stroke="rgb(0, 0, 0)" stroke-linecap="butt" stroke-linejoin="round" stroke-opacity="1.0" stroke-width="3.0" />
            <path d=" M 766.004, 644.363 765.223, 641.409 765.080, 640.870 764.817, 639.875 763.669, 635.535 761.506, 629.911 759.880, 624.414 " fill="none" stroke="rgb(0, 0, 0)" stroke-linecap="butt" stroke-linejoin="round" stroke-opacity="1.0" stroke-width="3.0" />
            <path d=" M 639.956, 692.347 640.587, 702.044 639.789, 704.312 638.873, 706.918 636.806, 712.794 " fill="none" stroke="rgb(0, 0, 0)" stroke-linecap="butt" stroke-linejoin="round" stroke-opacity="1.0" stroke-width="3.0" />
            <path d=" M 754.442, 747.023 754.519, 745.916 754.400, 743.967 754.251, 741.507 754.242, 741.374 754.074, 738.604 753.792, 733.968 753.666, 731.314 753.573, 729.352 753.521, 728.255 753.520, 728.236 753.482, 727.433 753.448, 726.719 753.408, 725.883 " fill="none" stroke="rgb(0, 0, 0)" stroke-linecap="butt" stroke-linejoin="round" stroke-opacity="1.0" stroke-width="3.0" />
            <path d=" M 596.008, 741.665 594.015, 748.105 591.827, 755.833 591.891, 757.358 592.029, 760.668 592.055, 761.269 592.112, 762.644 " fill="none" stroke="rgb(0, 0, 0)" stroke-linecap="butt" stroke-linejoin="round" stroke-opacity="1.0" stroke-width="3.0" />
            <path d=" M 778.726, 816.225 778.670, 812.890 778.651, 811.765 778.635, 810.813 778.623, 810.080 778.623, 810.073 778.622, 810.025 778.620, 809.941 778.613, 809.485 778.613, 809.484 778.612, 809.404 778.602, 808.839 778.602, 808.837 778.591, 808.182 778.589, 808.065 778.559, 807.804 778.500, 807.294 778.473, 807.070 778.467, 806.894 778.314, 803.012 777.971, 794.299 " fill="none" stroke="rgb(0, 0, 0)" stroke-linecap="butt" stroke-linejoin="round" stroke-opacity="1.0" stroke-width="3.0" />
            <path d=" M 766.240, 756.581 765.251, 752.164 765.687, 749.697 765.774, 749.207 765.977, 748.057 766.077, 747.491 766.139, 747.143 766.175, 746.941 766.053, 746.514 765.999, 746.324 763.256, 736.708 762.829, 735.207 " fill="none" stroke="rgb(0, 0, 0)" stroke-linecap="butt" stroke-linejoin="round" stroke-opacity="1.0" stroke-width="3.0" />
            <path d=" M 554.886, 742.449 553.391, 739.561 551.589, 737.646 549.356, 734.212 548.492, 733.114 548.146, 732.675 545.545, 729.374 543.756, 727.919 543.696, 727.870 543.143, 727.421 543.004, 727.307 541.476, 726.065 540.938, 725.627 " fill="none" stroke="rgb(0, 0, 0)" stroke-linecap="butt" stroke-linejoin="round" stroke-opacity="1.0" stroke-width="3.0" />
            <path d=" M 619.666, 692.342 619.235, 695.058 618.841, 697.536 618.918, 698.430 619.016, 699.559 619.194, 701.623 619.164, 701.749 618.835, 703.152 618.712, 703.673 618.686, 703.783 618.168, 705.991 617.534, 708.689 617.420, 709.175 617.371, 709.371 617.066, 710.599 616.778, 711.753 616.737, 711.918 616.578, 712.555 616.547, 712.682 616.539, 712.712 616.190, 714.113 " fill="none" stroke="rgb(0, 0, 0)" stroke-linecap="butt" stroke-linejoin="round" stroke-opacity="1.0" stroke-width="3.0" />
            <path d=" M 564.927, 811.602 565.072, 812.366 565.207, 813.083 565.923, 816.866 566.937, 822.222 567.157, 823.460 567.287, 824.190 567.353, 824.559 567.356, 824.574 567.758, 826.828 568.736, 832.316 568.966, 833.569 " fill="none" stroke="rgb(0, 0, 0)" stroke-linecap="butt" stroke-linejoin="round" stroke-opacity="1.0" stroke-width="3.0" />
            <path d=" M 739.417, 309.960 745.465, 313.677 748.184, 315.931 751.227, 318.455 748.715, 316.413 748.242, 316.050 744.921, 313.503 " fill="none" stroke="rgb(0, 0, 0)" stroke-linecap="butt" stroke-linejoin="round" stroke-opacity="1.0" stroke-width="3.0" />
            <path d=" M 545.203, 600.492 547.777, 599.856 550.244, 599.247 553.486, 598.943 560.519, 600.343 565.849, 602.736 566.737, 603.493 " fill="none" stroke="rgb(0, 0, 0)" stroke-linecap="butt" stroke-linejoin="round" stroke-opacity="1.0" stroke-width="3.0" />
            <path d=" M 842.096, 740.118 845.555, 737.327 846.667, 736.324 840.840, 742.152 839.147, 745.778 837.048, 749.744 " fill="none" stroke="rgb(0, 0, 0)" stroke-linecap="butt" stroke-linejoin="round" stroke-opacity="1.0" stroke-width="3.0" />
            <path d=" M 795.678, 888.996 798.432, 882.625 799.215, 879.989 799.843, 875.049 799.927, 872.877 800.062, 868.214 799.284, 867.304 " fill="none" stroke="rgb(0, 0, 0)" stroke-linecap="butt" stroke-linejoin="round" stroke-opacity="1.0" stroke-width="3.0" />
            <path d=" M 750.596, 687.868 752.567, 682.732 753.353, 679.273 753.812, 677.250 754.267, 675.247 755.287, 669.004 754.456, 665.900 " fill="none" stroke="rgb(0, 0, 0)" stroke-linecap="butt" stroke-linejoin="round" stroke-opacity="1.0" stroke-width="3.0" />
            <path d=" M 590.754, 784.463 589.494, 786.334 589.463, 786.381 589.342, 786.560 589.128, 787.769 589.083, 788.021 589.065, 788.121 588.730, 790.011 588.605, 790.717 587.494, 793.338 587.337, 795.643 587.699, 798.683 587.721, 798.870 587.844, 799.905 587.940, 800.709 588.058, 801.701 588.105, 802.100 588.577, 806.068 588.618, 806.412 " fill="none" stroke="rgb(0, 0, 0)" stroke-linecap="butt" stroke-linejoin="round" stroke-opacity="1.0" stroke-width="3.0" />
            <path d=" M 570.948, 453.975 570.309, 455.265 568.647, 458.625 565.138, 463.375 561.937, 468.951 560.652, 474.031 " fill="none" stroke="rgb(0, 0, 0)" stroke-linecap="butt" stroke-linejoin="round" stroke-opacity="1.0" stroke-width="3.0" />
            <path d=" M 561.706, 714.142 559.645, 716.447 555.839, 719.449 548.403, 723.086 542.159, 725.771 " fill="none" stroke="rgb(0, 0, 0)" stroke-linecap="butt" stroke-linejoin="round" stroke-opacity="1.0" stroke-width="3.0" />
            <path d=" M 756.347, 564.430 754.154, 560.461 753.975, 560.137 753.947, 560.087 753.505, 559.287 749.961, 557.918 747.193, 558.854 745.420, 561.565 745.258, 561.813 744.384, 563.149 743.089, 565.128 741.480, 567.589 " fill="none" stroke="rgb(0, 0, 0)" stroke-linecap="butt" stroke-linejoin="round" stroke-opacity="1.0" stroke-width="3.0" />
            <path d=" M 609.490, 506.898 610.621, 506.676 612.721, 503.210 613.198, 496.399 612.504, 493.967 606.659, 487.702 " fill="none" stroke="rgb(0, 0, 0)" stroke-linecap="butt" stroke-linejoin="round" stroke-opacity="1.0" stroke-width="3.0" />
            <path d=" M 798.113, 881.988 798.261, 879.120 798.805, 873.651 799.284, 867.304 799.509, 864.313 799.551, 863.918 799.419, 862.010 797.337, 860.344 796.999, 860.075 " fill="none" stroke="rgb(0, 0, 0)" stroke-linecap="butt" stroke-linejoin="round" stroke-opacity="1.0" stroke-width="3.0" />
            <path d=" M 761.216, 435.494 758.799, 428.994 754.720, 419.853 751.844, 414.286 " fill="none" stroke="rgb(0, 0, 0)" stroke-linecap="butt" stroke-linejoin="round" stroke-opacity="1.0" stroke-width="3.0" />
            <path d=" M 584.784, 962.811 584.617, 965.523 584.501, 967.422 584.553, 968.588 584.653, 970.004 587.156, 972.729 588.989, 974.725 589.780, 975.587 590.020, 975.848 592.589, 980.536 593.843, 982.824 593.943, 982.886 " fill="none" stroke="rgb(0, 0, 0)" stroke-linecap="butt" stroke-linejoin="round" stroke-opacity="1.0" stroke-width="3.0" />
            <path d=" M 759.429, 731.397 760.580, 730.573 761.467, 729.939 763.714, 727.529 764.408, 725.506 765.197, 723.210 763.788, 717.484 759.316, 712.400 759.120, 712.055 " fill="none" stroke="rgb(0, 0, 0)" stroke-linecap="butt" stroke-linejoin="round" stroke-opacity="1.0" stroke-width="3.0" />
            <path d=" M 687.759, 689.716 688.157, 688.795 689.549, 685.572 689.879, 684.806 690.987, 684.950 693.075, 685.222 693.093, 685.224 693.416, 685.266 695.388, 692.330 696.168, 699.494 " fill="none" stroke="rgb(0, 0, 0)" stroke-linecap="butt" stroke-linejoin="round" stroke-opacity="1.0" stroke-width="3.0" />
            <path d=" M 597.892, 768.539 597.432, 769.172 595.439, 771.306 595.029, 772.429 594.909, 772.760 594.599, 773.611 594.199, 774.709 594.104, 774.969 593.216, 777.407 591.730, 780.493 591.648, 780.829 590.754, 784.463 590.012, 787.476 590.011, 787.480 589.730, 788.621 589.623, 789.055 589.608, 789.120 589.372, 790.078 " fill="none" stroke="rgb(0, 0, 0)" stroke-linecap="butt" stroke-linejoin="round" stroke-opacity="1.0" stroke-width="3.0" />
            <path d=" M 860.698, 660.747 860.179, 655.838 859.423, 650.083 859.346, 649.519 858.267, 641.653 857.165, 637.347 " fill="none" stroke="rgb(0, 0, 0)" stroke-linecap="butt" stroke-linejoin="round" stroke-opacity="1.0" stroke-width="3.0" />
            <path d=" M 541.436, 693.559 540.633, 694.988 538.513, 697.646 537.263, 699.212 537.035, 699.497 536.872, 699.906 535.831, 702.503 535.720, 702.780 534.812, 705.046 533.910, 707.295 535.370, 702.569 535.842, 701.732 535.989, 701.471 536.100, 701.274 536.872, 699.906 " fill="none" stroke="rgb(0, 0, 0)" stroke-linecap="butt" stroke-linejoin="round" stroke-opacity="1.0" stroke-width="3.0" />
            <path d=" M 524.418, 729.780 524.803, 730.616 525.466, 732.053 525.775, 732.773 528.268, 738.581 528.495, 739.348 531.743, 745.993 532.464, 747.704 532.801, 748.506 533.661, 750.548 533.710, 750.665 534.089, 751.566 " fill="none" stroke="rgb(0, 0, 0)" stroke-linecap="butt" stroke-linejoin="round" stroke-opacity="1.0" stroke-width="3.0" />
            <path d=" M 518.334, 780.415 521.862, 781.040 522.129, 781.127 522.487, 781.243 522.580, 781.273 522.610, 781.283 526.936, 782.687 529.550, 783.535 532.987, 784.687 534.627, 784.430 541.445, 782.762 " fill="none" stroke="rgb(0, 0, 0)" stroke-linecap="butt" stroke-linejoin="round" stroke-opacity="1.0" stroke-width="3.0" />
            <path d=" M 590.302, 373.383 589.672, 379.220 589.258, 383.054 588.818, 390.115 588.683, 393.843 588.795, 395.169 588.980, 397.355 " fill="none" stroke="rgb(0, 0, 0)" stroke-linecap="butt" stroke-linejoin="round" stroke-opacity="1.0" stroke-width="3.0" />
            <path d=" M 752.675, 968.545 754.465, 967.597 756.126, 966.315 759.676, 960.972 760.865, 952.507 761.142, 947.434 " fill="none" stroke="rgb(0, 0, 0)" stroke-linecap="butt" stroke-linejoin="round" stroke-opacity="1.0" stroke-width="3.0" />
            <path d=" M 597.257, 364.343 597.841, 370.734 597.061, 375.003 596.806, 376.385 597.004, 382.997 597.014, 384.174 597.172, 384.410 597.340, 384.660 599.416, 387.748 599.467, 387.824 " fill="none" stroke="rgb(0, 0, 0)" stroke-linecap="butt" stroke-linejoin="round" stroke-opacity="1.0" stroke-width="3.0" />
            <path d=" M 765.997, 587.705 767.209, 587.773 767.342, 587.852 769.427, 589.089 769.677, 589.237 769.780, 589.298 769.956, 589.402 771.310, 589.126 771.391, 589.109 772.163, 588.951 772.657, 588.851 774.669, 587.293 775.406, 586.370 776.678, 584.778 777.706, 583.491 778.443, 580.862 778.451, 575.278 778.259, 573.815 " fill="none" stroke="rgb(0, 0, 0)" stroke-linecap="butt" stroke-linejoin="round" stroke-opacity="1.0" stroke-width="3.0" />
            <path d=" M 754.172, 669.634 754.456, 665.900 754.655, 663.278 754.175, 655.880 753.150, 652.455 749.417, 648.930 747.774, 650.155 " fill="none" stroke="rgb(0, 0, 0)" stroke-linecap="butt" stroke-linejoin="round" stroke-opacity="1.0" stroke-width="3.0" />
            <path d=" M 834.446, 622.010 836.077, 625.443 839.433, 634.863 840.197, 637.007 842.520, 645.162 842.532, 645.207 " fill="none" stroke="rgb(0, 0, 0)" stroke-linecap="butt" stroke-linejoin="round" stroke-opacity="1.0" stroke-width="3.0" />
            <path d=" M 753.747, 609.420 755.660, 610.084 756.705, 610.447 758.025, 610.905 759.817, 611.527 759.958, 611.576 760.982, 611.877 761.947, 612.160 762.711, 612.385 765.216, 611.534 766.395, 610.189 768.948, 608.492 770.529, 606.234 771.234, 604.826 771.755, 602.600 771.868, 602.115 771.872, 602.101 771.998, 601.562 " fill="none" stroke="rgb(0, 0, 0)" stroke-linecap="butt" stroke-linejoin="round" stroke-opacity="1.0" stroke-width="3.0" />
            <path d=" M 617.883, 613.679 616.647, 623.602 616.173, 627.414 616.237, 628.251 616.765, 635.138 617.172, 637.716 617.251, 638.214 " fill="none" stroke="rgb(0, 0, 0)" stroke-linecap="butt" stroke-linejoin="round" stroke-opacity="1.0" stroke-width="3.0" />
            <path d=" M 577.067, 526.699 579.943, 524.938 580.586, 524.545 581.643, 523.787 581.659, 523.776 583.935, 522.146 586.525, 520.793 587.008, 520.291 589.518, 517.683 589.776, 517.180 590.923, 514.945 591.527, 513.769 593.847, 509.246 " fill="none" stroke="rgb(0, 0, 0)" stroke-linecap="butt" stroke-linejoin="round" stroke-opacity="1.0" stroke-width="3.0" />
            <path d=" M 486.703, 580.964 485.951, 590.935 485.831, 592.522 484.897, 596.056 483.779, 600.286 483.426, 602.398 482.861, 605.778 " fill="none" stroke="rgb(0, 0, 0)" stroke-linecap="butt" stroke-linejoin="round" stroke-opacity="1.0" stroke-width="3.0" />
            <path d=" M 617.938, 274.621 616.456, 280.046 614.196, 289.296 613.935, 291.302 612.901, 299.264 " fill="none" stroke="rgb(0, 0, 0)" stroke-linecap="butt" stroke-linejoin="round" stroke-opacity="1.0" stroke-width="3.0" />
            <path d=" M 739.987, 481.495 737.864, 484.902 736.980, 486.320 736.745, 486.698 736.486, 487.238 734.978, 492.254 736.212, 497.750 739.287, 501.288 740.609, 501.366 742.203, 501.459 " fill="none" stroke="rgb(0, 0, 0)" stroke-linecap="butt" stroke-linejoin="round" stroke-opacity="1.0" stroke-width="3.0" />
            <path d=" M 751.449, 717.274 750.888, 713.870 750.054, 708.808 749.055, 702.485 748.775, 700.715 747.447, 692.310 " fill="none" stroke="rgb(0, 0, 0)" stroke-linecap="butt" stroke-linejoin="round" stroke-opacity="1.0" stroke-width="3.0" />
            <path d=" M 786.451, 694.632 786.390, 694.336 784.533, 689.449 781.443, 682.273 780.729, 680.058 780.458, 679.534 776.788, 671.179 " fill="none" stroke="rgb(0, 0, 0)" stroke-linecap="butt" stroke-linejoin="round" stroke-opacity="1.0" stroke-width="3.0" />
            <path d=" M 771.755, 602.600 772.864, 601.573 774.388, 599.706 775.223, 598.684 777.529, 595.555 778.363, 594.424 780.313, 592.003 780.957, 590.277 781.465, 588.914 782.478, 586.196 783.284, 580.706 " fill="none" stroke="rgb(0, 0, 0)" stroke-linecap="butt" stroke-linejoin="round" stroke-opacity="1.0" stroke-width="3.0" />
            <path d=" M 775.282, 837.571 775.109, 834.362 775.074, 833.707 774.827, 829.130 774.770, 828.083 774.683, 826.459 774.400, 821.227 774.234, 820.506 774.230, 820.492 772.882, 814.662 772.364, 812.424 " fill="none" stroke="rgb(0, 0, 0)" stroke-linecap="butt" stroke-linejoin="round" stroke-opacity="1.0" stroke-width="3.0" />
            <path d=" M 759.119, 729.646 758.973, 727.317 758.675, 722.550 757.598, 716.815 756.075, 708.707 754.523, 707.044 753.003, 705.415 " fill="none" stroke="rgb(0, 0, 0)" stroke-linecap="butt" stroke-linejoin="round" stroke-opacity="1.0" stroke-width="3.0" />
            <path d=" M 639.406, 240.973 637.563, 242.891 634.591, 248.203 634.552, 248.272 632.258, 254.594 626.237, 259.698 625.157, 261.759 " fill="none" stroke="rgb(0, 0, 0)" stroke-linecap="butt" stroke-linejoin="round" stroke-opacity="1.0" stroke-width="3.0" />
            <path d=" M 778.314, 803.012 779.335, 798.938 780.022, 792.863 780.155, 791.682 780.422, 790.430 780.696, 789.139 780.700, 789.123 780.702, 789.112 780.737, 788.950 780.741, 788.928 781.072, 787.372 781.253, 786.520 781.648, 784.663 781.837, 783.775 781.859, 783.675 781.926, 783.358 782.120, 782.445 782.779, 779.349 783.134, 777.678 " fill="none" stroke="rgb(0, 0, 0)" stroke-linecap="butt" stroke-linejoin="round" stroke-opacity="1.0" stroke-width="3.0" />
            <path d=" M 714.690, 823.131 713.203, 828.612 712.960, 830.917 712.869, 831.781 713.175, 834.086 713.369, 835.548 713.458, 836.047 714.205, 840.224 716.039, 846.029 716.791, 848.410 " fill="none" stroke="rgb(0, 0, 0)" stroke-linecap="butt" stroke-linejoin="round" stroke-opacity="1.0" stroke-width="3.0" />
            <path d=" M 501.242, 770.659 502.696, 773.089 505.472, 777.727 508.105, 779.352 512.095, 781.697 516.946, 781.700 522.129, 781.127 " fill="none" stroke="rgb(0, 0, 0)" stroke-linecap="butt" stroke-linejoin="round" stroke-opacity="1.0" stroke-width="3.0" />
            <path d=" M 591.891, 757.358 588.746, 760.487 587.122, 766.600 587.413, 772.714 587.435, 773.166 587.635, 774.424 589.706, 777.729 590.361, 778.775 591.648, 780.829 " fill="none" stroke="rgb(0, 0, 0)" stroke-linecap="butt" stroke-linejoin="round" stroke-opacity="1.0" stroke-width="3.0" />
            <path d=" M 694.878, 812.001 697.041, 817.297 697.472, 819.641 697.754, 820.014 700.335, 823.440 701.591, 826.077 703.450, 827.466 704.189, 828.018 704.469, 828.227 707.425, 830.436 709.933, 832.572 709.974, 832.607 " fill="none" stroke="rgb(0, 0, 0)" stroke-linecap="butt" stroke-linejoin="round" stroke-opacity="1.0" stroke-width="3.0" />
            <path d=" M 760.774, 738.989 760.589, 737.946 759.429, 731.397 759.332, 730.850 759.119, 729.646 759.092, 731.070 759.081, 731.646 759.026, 734.579 759.023, 734.752 759.008, 735.537 759.001, 735.903 758.953, 738.471 758.940, 739.160 758.891, 740.383 758.806, 742.469 758.803, 742.545 758.798, 742.682 758.781, 743.091 758.781, 743.102 758.780, 743.123 758.733, 744.282 758.709, 744.877 758.663, 746.016 758.641, 746.579 " fill="none" stroke="rgb(0, 0, 0)" stroke-linecap="butt" stroke-linejoin="round" stroke-opacity="1.0" stroke-width="3.0" />
            <path d=" M 605.345, 317.594 603.019, 319.786 600.800, 321.940 600.028, 323.061 598.022, 325.227 597.568, 325.718 596.958, 326.827 594.770, 331.460 594.236, 332.592 594.070, 334.510 593.941, 335.996 593.650, 339.361 593.961, 340.491 " fill="none" stroke="rgb(0, 0, 0)" stroke-linecap="butt" stroke-linejoin="round" stroke-opacity="1.0" stroke-width="3.0" />
            <path d=" M 505.461, 618.878 505.837, 618.608 508.696, 616.559 512.655, 614.712 515.030, 614.018 520.261, 612.261 523.751, 611.894 526.511, 612.100 530.957, 611.693 " fill="none" stroke="rgb(0, 0, 0)" stroke-linecap="butt" stroke-linejoin="round" stroke-opacity="1.0" stroke-width="3.0" />
            <path d=" M 708.171, 251.462 709.281, 250.763 709.497, 250.627 710.106, 250.244 710.160, 250.210 711.223, 249.542 711.621, 249.291 711.841, 248.724 712.788, 246.277 712.830, 246.168 711.424, 240.992 709.398, 238.777 707.660, 237.105 704.109, 235.873 702.641, 235.752 701.560, 235.878 700.437, 236.009 698.454, 237.368 " fill="none" stroke="rgb(0, 0, 0)" stroke-linecap="butt" stroke-linejoin="round" stroke-opacity="1.0" stroke-width="3.0" />
            <path d=" M 608.605, 436.731 609.987, 435.885 612.140, 432.302 612.372, 431.766 614.366, 427.178 615.710, 422.303 615.354, 416.007 614.776, 412.607 614.452, 410.703 " fill="none" stroke="rgb(0, 0, 0)" stroke-linecap="butt" stroke-linejoin="round" stroke-opacity="1.0" stroke-width="3.0" />
            <path d=" M 775.898, 866.693 776.464, 864.677 777.139, 862.274 777.520, 860.918 778.723, 853.133 778.489, 851.004 778.482, 850.943 777.761, 844.376 777.487, 841.568 777.393, 840.601 777.358, 840.241 777.245, 839.072 777.226, 838.877 " fill="none" stroke="rgb(0, 0, 0)" stroke-linecap="butt" stroke-linejoin="round" stroke-opacity="1.0" stroke-width="3.0" />
            <path d=" M 771.421, 521.756 773.293, 521.799 774.354, 520.319 774.409, 520.243 774.876, 519.591 774.926, 519.521 775.090, 519.293 776.056, 517.947 776.097, 517.890 776.691, 517.061 777.099, 516.492 777.339, 515.620 778.177, 509.461 777.835, 505.312 775.336, 497.863 775.107, 497.180 " fill="none" stroke="rgb(0, 0, 0)" stroke-linecap="butt" stroke-linejoin="round" stroke-opacity="1.0" stroke-width="3.0" />
            <path d=" M 782.461, 872.594 782.438, 870.416 782.436, 870.248 782.546, 865.068 782.555, 864.658 781.957, 859.423 781.943, 859.298 781.897, 858.900 781.527, 852.045 781.456, 850.721 781.266, 849.279 780.831, 845.962 780.602, 844.372 " fill="none" stroke="rgb(0, 0, 0)" stroke-linecap="butt" stroke-linejoin="round" stroke-opacity="1.0" stroke-width="3.0" />
            <path d=" M 862.479, 692.785 862.735, 691.274 863.367, 687.538 864.398, 681.441 863.637, 674.571 862.740, 669.787 861.669, 665.667 861.452, 664.832 " fill="none" stroke="rgb(0, 0, 0)" stroke-linecap="butt" stroke-linejoin="round" stroke-opacity="1.0" stroke-width="3.0" />
            <path d=" M 575.487, 895.985 575.505, 899.943 575.803, 906.004 577.308, 911.379 577.959, 918.285 578.989, 922.428 579.025, 922.571 579.277, 923.588 579.382, 924.008 " fill="none" stroke="rgb(0, 0, 0)" stroke-linecap="butt" stroke-linejoin="round" stroke-opacity="1.0" stroke-width="3.0" />
            <path d=" M 857.259, 637.945 857.165, 637.347 856.083, 630.430 854.570, 622.647 852.284, 612.912 851.689, 610.379 851.597, 609.993 " fill="none" stroke="rgb(0, 0, 0)" stroke-linecap="butt" stroke-linejoin="round" stroke-opacity="1.0" stroke-width="3.0" />
            <path d=" M 753.875, 708.150 753.150, 705.876 753.003, 705.415 752.425, 703.600 752.114, 701.079 751.200, 693.671 750.596, 687.868 750.580, 687.714 750.548, 687.410 750.370, 685.705 749.951, 679.877 " fill="none" stroke="rgb(0, 0, 0)" stroke-linecap="butt" stroke-linejoin="round" stroke-opacity="1.0" stroke-width="3.0" />
            <path d=" M 568.785, 606.599 568.364, 607.472 565.945, 616.292 565.444, 618.205 565.110, 619.478 563.909, 623.725 563.699, 624.470 563.134, 626.467 561.820, 631.566 561.327, 634.917 " fill="none" stroke="rgb(0, 0, 0)" stroke-linecap="butt" stroke-linejoin="round" stroke-opacity="1.0" stroke-width="3.0" />
            <path d=" M 621.051, 942.834 621.005, 938.620 620.928, 931.520 622.398, 921.629 622.798, 918.934 622.715, 913.386 " fill="none" stroke="rgb(0, 0, 0)" stroke-linecap="butt" stroke-linejoin="round" stroke-opacity="1.0" stroke-width="3.0" />
            <path d=" M 766.394, 821.428 766.494, 817.707 767.312, 813.147 767.291, 812.930 766.915, 809.078 766.885, 808.768 766.861, 808.526 766.767, 807.564 766.745, 807.332 766.670, 806.565 766.658, 806.440 766.577, 805.610 766.570, 805.538 766.505, 804.868 766.524, 803.578 766.535, 802.883 766.537, 802.735 766.537, 802.720 766.538, 802.656 766.539, 802.611 766.556, 801.486 766.565, 800.867 766.615, 797.609 766.606, 797.380 766.529, 795.311 766.466, 793.601 766.461, 793.474 766.449, 793.154 766.447, 793.094 766.445, 793.052 766.430, 792.625 766.374, 791.141 " fill="none" stroke="rgb(0, 0, 0)" stroke-linecap="butt" stroke-linejoin="round" stroke-opacity="1.0" stroke-width="3.0" />
            <path d=" M 842.520, 645.162 843.847, 651.585 845.809, 658.664 847.872, 666.755 848.701, 670.643 849.275, 673.338 849.288, 673.401 849.303, 673.470 849.478, 674.291 849.615, 674.934 " fill="none" stroke="rgb(0, 0, 0)" stroke-linecap="butt" stroke-linejoin="round" stroke-opacity="1.0" stroke-width="3.0" />
            <path d=" M 764.707, 768.076 764.707, 768.074 764.633, 766.810 764.630, 766.754 764.579, 765.883 764.485, 764.283 764.384, 762.541 764.361, 762.151 764.361, 762.150 764.328, 761.578 764.307, 761.222 764.304, 761.173 764.293, 760.983 764.038, 756.621 763.993, 756.407 763.351, 753.345 763.315, 753.174 762.488, 750.705 762.470, 750.444 762.438, 749.981 762.318, 748.245 762.269, 747.537 762.216, 746.767 762.209, 746.660 762.174, 746.146 762.045, 744.273 761.809, 740.860 761.289, 739.618 760.589, 737.946 " fill="none" stroke="rgb(0, 0, 0)" stroke-linecap="butt" stroke-linejoin="round" stroke-opacity="1.0" stroke-width="3.0" />
            <path d=" M 699.937, 879.371 701.810, 879.905 702.480, 880.171 705.342, 880.646 710.902, 875.929 713.965, 872.492 718.078, 868.770 721.028, 864.797 722.492, 862.327 " fill="none" stroke="rgb(0, 0, 0)" stroke-linecap="butt" stroke-linejoin="round" stroke-opacity="1.0" stroke-width="3.0" />
            <path d=" M 797.337, 860.344 797.329, 851.848 798.774, 845.277 803.088, 836.255 805.293, 831.643 805.552, 831.102 " fill="none" stroke="rgb(0, 0, 0)" stroke-linecap="butt" stroke-linejoin="round" stroke-opacity="1.0" stroke-width="3.0" />
            <path d=" M 696.552, 238.349 695.142, 238.119 692.638, 233.021 692.119, 232.604 689.794, 230.732 686.346, 229.619 685.545, 229.983 681.156, 231.974 678.609, 235.542 677.919, 238.109 677.918, 238.113 677.824, 238.460 677.530, 239.446 676.815, 241.843 " fill="none" stroke="rgb(0, 0, 0)" stroke-linecap="butt" stroke-linejoin="round" stroke-opacity="1.0" stroke-width="3.0" />
            <path d=" M 748.184, 315.931 747.188, 313.885 740.358, 307.132 732.060, 301.751 725.882, 297.034 725.760, 296.941 725.711, 296.903 724.641, 296.087 724.627, 296.076 " fill="none" stroke="rgb(0, 0, 0)" stroke-linecap="butt" stroke-linejoin="round" stroke-opacity="1.0" stroke-width="3.0" />
            <path d=" M 543.756, 727.919 543.433, 727.485 543.317, 727.328 542.159, 725.771 539.497, 722.190 537.514, 720.606 535.774, 718.257 535.760, 718.239 535.657, 718.099 535.626, 718.058 534.475, 716.504 533.615, 715.572 533.385, 715.323 533.072, 715.044 531.790, 713.903 531.592, 713.726 530.129, 712.953 529.207, 712.839 526.886, 712.235 524.602, 712.374 522.931, 713.052 522.022, 714.137 520.741, 715.665 " fill="none" stroke="rgb(0, 0, 0)" stroke-linecap="butt" stroke-linejoin="round" stroke-opacity="1.0" stroke-width="3.0" />
            <path d=" M 646.099, 304.959 648.344, 295.751 648.756, 294.883 649.659, 292.977 653.945, 283.942 654.055, 283.710 657.878, 280.046 659.683, 280.426 660.310, 280.557 660.422, 281.358 " fill="none" stroke="rgb(0, 0, 0)" stroke-linecap="butt" stroke-linejoin="round" stroke-opacity="1.0" stroke-width="3.0" />
            <path d=" M 837.966, 704.234 835.860, 705.886 833.152, 708.261 829.827, 710.612 824.306, 713.194 816.487, 716.089 809.830, 717.072 " fill="none" stroke="rgb(0, 0, 0)" stroke-linecap="butt" stroke-linejoin="round" stroke-opacity="1.0" stroke-width="3.0" />
            <path d=" M 589.776, 517.180 591.066, 516.044 592.632, 514.666 597.054, 512.215 597.576, 511.925 599.401, 510.913 600.936, 509.967 602.850, 508.787 605.182, 506.222 608.701, 507.021 609.490, 506.898 605.993, 505.349 605.237, 505.791 601.365, 508.051 " fill="none" stroke="rgb(0, 0, 0)" stroke-linecap="butt" stroke-linejoin="round" stroke-opacity="1.0" stroke-width="3.0" />
            <path d=" M 729.841, 954.700 729.361, 956.378 729.039, 962.163 729.131, 963.025 731.202, 966.400 732.673, 967.437 737.247, 971.789 738.644, 972.319 742.874, 972.135 743.326, 972.115 745.016, 971.317 748.540, 968.561 " fill="none" stroke="rgb(0, 0, 0)" stroke-linecap="butt" stroke-linejoin="round" stroke-opacity="1.0" stroke-width="3.0" />
            <path d=" M 603.905, 742.215 602.839, 745.506 602.406, 746.844 601.231, 750.929 600.962, 752.404 599.166, 762.241 598.946, 763.450 598.703, 764.778 598.501, 765.884 598.369, 766.610 597.892, 768.539 597.805, 768.891 597.785, 768.972 597.662, 769.467 597.552, 769.911 596.406, 774.548 " fill="none" stroke="rgb(0, 0, 0)" stroke-linecap="butt" stroke-linejoin="round" stroke-opacity="1.0" stroke-width="3.0" />
            <path d=" M 767.661, 798.017 767.785, 799.356 767.872, 802.073 767.758, 799.874 767.757, 799.859 767.661, 798.017 767.407, 793.137 767.398, 792.957 767.381, 792.626 767.333, 792.417 767.328, 792.398 767.254, 792.077 766.828, 790.231 766.788, 790.061 765.871, 786.091 765.863, 786.057 765.244, 783.375 764.989, 781.817 764.844, 780.930 764.831, 780.855 764.587, 779.363 764.281, 777.488 764.172, 776.826 763.966, 775.563 763.540, 772.961 " fill="none" stroke="rgb(0, 0, 0)" stroke-linecap="butt" stroke-linejoin="round" stroke-opacity="1.0" stroke-width="3.0" />
            <path d=" M 487.188, 562.711 486.020, 564.217 485.790, 567.275 485.459, 570.252 485.301, 574.371 485.449, 581.277 485.573, 590.331 484.897, 596.056 " fill="none" stroke="rgb(0, 0, 0)" stroke-linecap="butt" stroke-linejoin="round" stroke-opacity="1.0" stroke-width="3.0" />
            <path d=" M 747.118, 378.689 747.390, 376.666 747.374, 369.476 746.990, 364.459 748.027, 354.513 748.118, 353.646 750.356, 345.079 " fill="none" stroke="rgb(0, 0, 0)" stroke-linecap="butt" stroke-linejoin="round" stroke-opacity="1.0" stroke-width="3.0" />
            <path d=" M 803.514, 694.233 798.424, 690.103 798.135, 689.868 797.276, 689.171 797.232, 689.135 795.902, 688.844 793.799, 690.132 792.568, 690.961 790.525, 693.598 789.212, 698.126 789.105, 698.385 787.957, 701.180 787.734, 701.724 787.718, 701.764 787.677, 701.863 787.666, 701.890 787.445, 702.428 787.274, 702.845 787.146, 703.156 786.262, 705.310 784.101, 709.980 " fill="none" stroke="rgb(0, 0, 0)" stroke-linecap="butt" stroke-linejoin="round" stroke-opacity="1.0" stroke-width="3.0" />
            <path d=" M 845.236, 582.810 845.064, 574.155 846.086, 565.626 846.297, 558.836 846.233, 558.092 845.830, 554.854 845.247, 551.055 843.997, 548.497 843.978, 548.464 " fill="none" stroke="rgb(0, 0, 0)" stroke-linecap="butt" stroke-linejoin="round" stroke-opacity="1.0" stroke-width="3.0" />
            <path d=" M 520.920, 525.082 517.345, 526.614 515.270, 528.011 512.162, 530.576 508.683, 533.370 507.690, 534.575 502.669, 539.318 497.051, 545.574 496.002, 547.370 495.499, 548.230 " fill="none" stroke="rgb(0, 0, 0)" stroke-linecap="butt" stroke-linejoin="round" stroke-opacity="1.0" stroke-width="3.0" />
            <path d=" M 528.691, 856.314 530.558, 859.014 535.855, 866.671 539.812, 875.759 541.088, 880.490 542.480, 887.913 " fill="none" stroke="rgb(0, 0, 0)" stroke-linecap="butt" stroke-linejoin="round" stroke-opacity="1.0" stroke-width="3.0" />
            <path d=" M 775.179, 861.449 775.729, 855.998 776.507, 846.028 776.666, 843.990 776.185, 839.651 776.111, 838.991 776.101, 838.894 776.069, 838.611 776.066, 838.579 776.024, 838.200 775.525, 833.706 775.142, 830.249 774.683, 826.459 " fill="none" stroke="rgb(0, 0, 0)" stroke-linecap="butt" stroke-linejoin="round" stroke-opacity="1.0" stroke-width="3.0" />
            <path d=" M 595.095, 343.445 595.068, 344.241 594.903, 349.046 594.811, 351.712 596.088, 355.566 597.133, 357.107 600.461, 357.659 602.952, 356.917 603.410, 356.721 605.412, 355.842 606.895, 353.724 607.714, 352.574 609.236, 350.439 612.788, 345.456 " fill="none" stroke="rgb(0, 0, 0)" stroke-linecap="butt" stroke-linejoin="round" stroke-opacity="1.0" stroke-width="3.0" />
            <path d=" M 740.609, 501.366 742.331, 502.064 745.917, 504.758 754.125, 508.425 754.315, 508.509 754.784, 508.999 757.699, 512.041 758.023, 512.351 759.635, 513.891 762.462, 517.123 763.041, 517.823 766.133, 521.570 765.826, 522.422 765.701, 522.769 765.608, 523.028 765.299, 523.885 " fill="none" stroke="rgb(0, 0, 0)" stroke-linecap="butt" stroke-linejoin="round" stroke-opacity="1.0" stroke-width="3.0" />
            <path d=" M 611.079, 712.039 609.855, 714.331 608.943, 716.739 608.850, 721.107 608.150, 723.459 607.785, 724.686 607.575, 725.391 607.314, 730.832 607.243, 732.306 607.098, 733.389 606.915, 734.754 606.838, 735.326 606.772, 735.818 606.726, 736.163 606.336, 739.064 606.086, 739.855 606.031, 740.027 605.843, 740.620 604.817, 743.853 604.370, 745.262 603.876, 746.820 " fill="none" stroke="rgb(0, 0, 0)" stroke-linecap="butt" stroke-linejoin="round" stroke-opacity="1.0" stroke-width="3.0" />
            <path d=" M 722.258, 279.058 722.591, 279.283 723.107, 279.634 724.342, 280.472 728.885, 281.476 731.071, 281.045 732.372, 278.874 731.964, 271.761 730.907, 266.414 728.048, 262.565 726.827, 261.928 722.382, 260.774 722.168, 260.719 722.140, 260.711 721.758, 260.612 " fill="none" stroke="rgb(0, 0, 0)" stroke-linecap="butt" stroke-linejoin="round" stroke-opacity="1.0" stroke-width="3.0" />
            <path d=" M 724.076, 866.609 725.514, 875.380 727.500, 885.147 728.324, 889.544 729.518, 894.291 730.200, 895.811 730.360, 896.758 731.221, 901.858 " fill="none" stroke="rgb(0, 0, 0)" stroke-linecap="butt" stroke-linejoin="round" stroke-opacity="1.0" stroke-width="3.0" />
            <path d=" M 758.564, 551.716 760.176, 552.588 763.205, 554.229 765.454, 555.825 765.710, 556.007 767.127, 557.012 769.901, 559.786 771.297, 560.615 771.909, 560.979 772.007, 561.037 774.746, 560.410 775.086, 560.017 775.231, 559.849 775.464, 559.579 776.003, 558.956 776.356, 558.548 776.455, 558.433 777.861, 556.806 778.596, 555.956 779.508, 552.746 779.563, 552.553 779.777, 551.802 779.858, 551.516 779.938, 548.229 779.926, 544.916 " fill="none" stroke="rgb(0, 0, 0)" stroke-linecap="butt" stroke-linejoin="round" stroke-opacity="1.0" stroke-width="3.0" />
            <path d=" M 522.676, 781.480 526.018, 788.746 527.014, 791.743 527.314, 792.645 527.284, 793.156 526.994, 798.187 527.724, 803.014 530.312, 809.005 531.278, 811.331 532.355, 813.899 533.403, 815.618 " fill="none" stroke="rgb(0, 0, 0)" stroke-linecap="butt" stroke-linejoin="round" stroke-opacity="1.0" stroke-width="3.0" />
            <path d=" M 602.909, 410.203 602.620, 410.698 598.724, 417.369 598.594, 417.592 598.219, 418.888 596.547, 424.668 596.680, 429.598 597.102, 431.809 597.319, 432.945 597.470, 433.291 597.971, 434.437 598.855, 435.699 601.402, 436.415 601.944, 436.568 602.027, 436.591 602.391, 436.694 602.576, 436.746 604.503, 437.287 602.173, 436.747 601.402, 436.415 " fill="none" stroke="rgb(0, 0, 0)" stroke-linecap="butt" stroke-linejoin="round" stroke-opacity="1.0" stroke-width="3.0" />
            <path d=" M 732.854, 383.254 737.686, 387.589 742.194, 389.618 744.770, 388.406 744.875, 388.356 744.876, 388.356 745.739, 386.958 745.755, 386.932 746.013, 386.513 746.304, 386.042 746.406, 385.877 746.652, 385.479 747.041, 384.849 747.152, 384.669 747.451, 382.528 747.573, 379.332 747.118, 378.689 746.586, 377.934 746.175, 377.352 746.355, 374.813 746.225, 374.423 745.640, 372.670 745.638, 372.668 745.344, 372.382 743.946, 371.018 743.238, 370.447 741.409, 368.971 " fill="none" stroke="rgb(0, 0, 0)" stroke-linecap="butt" stroke-linejoin="round" stroke-opacity="1.0" stroke-width="3.0" />
            <path d=" M 734.179, 428.545 736.162, 430.782 736.766, 431.339 741.498, 433.075 744.308, 433.150 746.540, 431.865 747.717, 430.630 749.912, 425.372 750.037, 423.659 750.354, 419.318 747.937, 412.814 747.810, 412.472 746.873, 410.777 " fill="none" stroke="rgb(0, 0, 0)" stroke-linecap="butt" stroke-linejoin="round" stroke-opacity="1.0" stroke-width="3.0" />
            <path d=" M 800.196, 720.645 801.392, 718.649 801.704, 718.129 802.804, 716.426 804.633, 713.597 807.585, 707.019 807.968, 703.814 806.906, 697.041 804.964, 692.843 802.003, 690.358 799.086, 689.613 " fill="none" stroke="rgb(0, 0, 0)" stroke-linecap="butt" stroke-linejoin="round" stroke-opacity="1.0" stroke-width="3.0" />
            <path d=" M 615.165, 588.742 615.546, 589.669 617.561, 594.580 618.600, 596.310 618.621, 596.344 619.775, 598.265 623.924, 607.364 626.271, 612.511 626.398, 612.791 626.541, 613.032 626.550, 613.047 629.200, 617.524 632.023, 622.296 " fill="none" stroke="rgb(0, 0, 0)" stroke-linecap="butt" stroke-linejoin="round" stroke-opacity="1.0" stroke-width="3.0" />
            <path d=" M 634.591, 248.203 630.632, 251.273 626.457, 255.279 624.147, 259.143 620.435, 265.227 619.817, 267.393 619.144, 269.749 619.157, 276.704 619.479, 281.305 " fill="none" stroke="rgb(0, 0, 0)" stroke-linecap="butt" stroke-linejoin="round" stroke-opacity="1.0" stroke-width="3.0" />
            <path d=" M 760.040, 780.871 758.821, 775.777 758.353, 773.823 757.900, 771.930 757.643, 770.348 757.627, 770.252 757.593, 770.043 757.183, 767.526 757.076, 766.869 756.801, 765.182 756.586, 763.861 755.905, 760.173 755.713, 757.847 755.704, 757.730 755.549, 755.847 755.285, 752.638 755.141, 750.881 755.133, 750.835 754.868, 749.377 754.442, 747.023 753.916, 744.123 753.773, 743.332 753.750, 743.206 753.660, 742.712 " fill="none" stroke="rgb(0, 0, 0)" stroke-linecap="butt" stroke-linejoin="round" stroke-opacity="1.0" stroke-width="3.0" />
            <path d=" M 553.817, 500.541 551.836, 502.258 544.239, 508.854 538.866, 513.009 532.038, 517.183 526.042, 520.838 522.425, 523.925 " fill="none" stroke="rgb(0, 0, 0)" stroke-linecap="butt" stroke-linejoin="round" stroke-opacity="1.0" stroke-width="3.0" />
            <path d=" M 593.684, 332.909 592.171, 337.065 591.290, 347.026 591.059, 349.645 590.817, 358.352 590.696, 362.696 591.044, 372.584 " fill="none" stroke="rgb(0, 0, 0)" stroke-linecap="butt" stroke-linejoin="round" stroke-opacity="1.0" stroke-width="3.0" />
            <path d=" M 741.626, 462.306 741.851, 462.974 742.573, 465.112 745.870, 467.032 748.415, 466.877 750.906, 463.932 752.366, 462.494 753.104, 460.722 755.385, 458.109 756.779, 455.855 757.051, 455.414 757.146, 455.261 757.167, 453.344 755.088, 449.312 753.368, 446.183 750.079, 442.028 749.479, 441.403 " fill="none" stroke="rgb(0, 0, 0)" stroke-linecap="butt" stroke-linejoin="round" stroke-opacity="1.0" stroke-width="3.0" />
            <path d=" M 772.882, 814.662 772.399, 811.715 772.156, 810.233 772.138, 810.123 772.132, 810.089 771.902, 808.687 771.792, 808.011 771.785, 807.970 771.766, 807.854 771.627, 807.008 771.479, 806.107 771.441, 805.871 771.421, 805.749 771.337, 805.238 771.057, 801.107 771.038, 800.834 770.733, 796.340 771.140, 793.806 771.375, 792.346 771.471, 791.747 771.534, 791.352 771.609, 790.883 771.705, 790.291 771.743, 790.054 772.677, 784.237 772.333, 781.865 772.202, 780.964 772.173, 780.765 771.845, 778.503 771.664, 777.256 771.658, 777.247 770.271, 775.315 " fill="none" stroke="rgb(0, 0, 0)" stroke-linecap="butt" stroke-linejoin="round" stroke-opacity="1.0" stroke-width="3.0" />
            <path d=" M 623.769, 978.595 623.817, 978.066 624.203, 973.754 624.361, 970.292 625.202, 966.179 624.439, 959.392 624.486, 956.320 623.070, 949.165 621.715, 943.487 621.005, 938.620 " fill="none" stroke="rgb(0, 0, 0)" stroke-linecap="butt" stroke-linejoin="round" stroke-opacity="1.0" stroke-width="3.0" />
            <path d=" M 628.602, 260.688 627.988, 260.778 627.166, 260.898 627.027, 260.919 627.005, 260.922 626.296, 261.026 625.157, 261.759 623.339, 262.929 621.217, 266.263 620.906, 267.145 620.586, 273.464 621.975, 277.562 623.915, 281.069 624.735, 281.046 625.135, 281.035 627.334, 280.975 627.550, 280.969 628.453, 280.347 628.792, 280.246 628.845, 280.230 629.824, 279.938 629.981, 279.891 630.327, 279.788 630.631, 279.708 630.634, 279.707 633.439, 278.969 635.596, 278.504 636.300, 278.472 639.197, 278.340 " fill="none" stroke="rgb(0, 0, 0)" stroke-linecap="butt" stroke-linejoin="round" stroke-opacity="1.0" stroke-width="3.0" />
            <path d=" M 622.784, 909.161 624.191, 907.099 624.365, 906.844 626.873, 899.734 627.663, 897.321 628.341, 891.592 630.208, 886.279 630.684, 884.009 631.000, 882.497 632.081, 876.888 633.994, 869.478 " fill="none" stroke="rgb(0, 0, 0)" stroke-linecap="butt" stroke-linejoin="round" stroke-opacity="1.0" stroke-width="3.0" />
            <path d=" M 735.159, 523.076 733.661, 526.173 732.006, 531.114 732.633, 538.872 732.997, 539.720 733.001, 539.729 734.678, 543.641 739.089, 547.768 744.970, 548.223 745.043, 548.229 749.313, 548.746 753.287, 549.227 " fill="none" stroke="rgb(0, 0, 0)" stroke-linecap="butt" stroke-linejoin="round" stroke-opacity="1.0" stroke-width="3.0" />
            <path d=" M 660.869, 865.189 664.349, 864.579 670.768, 864.013 675.869, 864.868 679.469, 865.830 684.966, 868.944 689.999, 873.677 691.217, 874.995 694.557, 877.937 695.685, 878.487 697.546, 879.003 698.001, 879.129 " fill="none" stroke="rgb(0, 0, 0)" stroke-linecap="butt" stroke-linejoin="round" stroke-opacity="1.0" stroke-width="3.0" />
            <path d=" M 604.489, 713.738 603.092, 715.038 600.469, 720.443 596.755, 725.980 595.416, 733.168 595.495, 735.090 595.723, 740.647 596.008, 741.665 597.540, 747.147 600.962, 752.404 " fill="none" stroke="rgb(0, 0, 0)" stroke-linecap="butt" stroke-linejoin="round" stroke-opacity="1.0" stroke-width="3.0" />
            <path d=" M 757.598, 716.815 758.639, 714.880 759.120, 712.055 759.581, 709.345 760.696, 705.959 761.757, 699.883 761.738, 697.767 760.752, 691.387 758.206, 683.886 757.651, 681.654 755.229, 677.337 753.812, 677.250 " fill="none" stroke="rgb(0, 0, 0)" stroke-linecap="butt" stroke-linejoin="round" stroke-opacity="1.0" stroke-width="3.0" />
            <path d=" M 778.723, 853.133 778.670, 850.222 779.126, 843.302 779.145, 843.014 779.162, 842.754 779.192, 842.288 779.541, 836.989 780.145, 831.859 779.610, 825.005 779.508, 823.711 779.507, 823.689 779.318, 821.271 779.237, 820.243 778.726, 816.225 778.299, 812.874 778.205, 812.140 778.122, 811.485 778.004, 810.563 " fill="none" stroke="rgb(0, 0, 0)" stroke-linecap="butt" stroke-linejoin="round" stroke-opacity="1.0" stroke-width="3.0" />
            <path d=" M 754.471, 345.514 755.330, 347.125 756.088, 348.546 758.123, 350.513 760.902, 350.083 761.158, 345.656 759.397, 337.826 758.896, 333.450 757.695, 330.085 755.662, 325.893 751.227, 318.455 " fill="none" stroke="rgb(0, 0, 0)" stroke-linecap="butt" stroke-linejoin="round" stroke-opacity="1.0" stroke-width="3.0" />
            <path d=" M 586.401, 782.050 585.378, 779.285 582.774, 775.902 579.998, 770.868 576.432, 766.730 574.738, 765.228 571.486, 761.648 570.279, 760.320 570.042, 760.059 570.006, 760.019 569.583, 759.604 569.337, 759.361 568.719, 758.753 568.065, 758.109 567.927, 757.974 567.586, 757.638 564.828, 753.970 562.797, 751.493 560.682, 749.338 559.691, 748.327 " fill="none" stroke="rgb(0, 0, 0)" stroke-linecap="butt" stroke-linejoin="round" stroke-opacity="1.0" stroke-width="3.0" />
            <path d=" M 542.556, 887.639 542.480, 887.913 541.375, 891.936 541.471, 894.816 540.398, 898.140 541.109, 905.290 542.294, 908.869 545.344, 913.998 547.414, 916.479 551.560, 921.113 556.879, 924.298 556.879, 924.298 " fill="none" stroke="rgb(0, 0, 0)" stroke-linecap="butt" stroke-linejoin="round" stroke-opacity="1.0" stroke-width="3.0" />
            <path d=" M 561.465, 471.381 560.652, 474.031 557.719, 483.591 556.770, 486.686 554.372, 495.528 553.817, 500.541 553.521, 503.221 553.510, 503.315 553.507, 503.341 553.255, 505.628 553.247, 505.693 552.942, 508.455 552.770, 510.005 552.479, 513.670 " fill="none" stroke="rgb(0, 0, 0)" stroke-linecap="butt" stroke-linejoin="round" stroke-opacity="1.0" stroke-width="3.0" />
            <path d=" M 793.745, 741.150 794.999, 736.671 795.092, 736.339 795.106, 736.288 795.123, 736.227 796.431, 731.556 797.583, 727.082 798.639, 722.983 799.831, 718.570 799.859, 718.465 800.286, 716.179 801.288, 710.805 802.680, 704.132 803.194, 700.380 803.951, 697.866 " fill="none" stroke="rgb(0, 0, 0)" stroke-linecap="butt" stroke-linejoin="round" stroke-opacity="1.0" stroke-width="3.0" />
            <path d=" M 585.570, 412.542 582.732, 418.381 579.125, 427.708 577.814, 431.100 576.002, 438.654 572.898, 448.160 572.478, 449.445 570.309, 455.265 " fill="none" stroke="rgb(0, 0, 0)" stroke-linecap="butt" stroke-linejoin="round" stroke-opacity="1.0" stroke-width="3.0" />
            <path d=" M 659.683, 280.426 659.518, 281.625 659.570, 290.771 658.865, 295.052 658.562, 296.890 657.736, 305.171 657.602, 306.590 655.155, 316.286 654.787, 317.742 653.313, 320.415 651.545, 321.136 648.939, 322.199 " fill="none" stroke="rgb(0, 0, 0)" stroke-linecap="butt" stroke-linejoin="round" stroke-opacity="1.0" stroke-width="3.0" />
            <path d=" M 582.275, 448.419 582.665, 445.741 582.704, 442.270 581.840, 446.035 580.222, 451.156 578.701, 455.868 578.649, 456.031 577.674, 457.962 577.302, 458.699 575.805, 461.663 572.540, 466.392 568.780, 471.548 567.424, 475.433 567.182, 476.127 566.558, 477.915 " fill="none" stroke="rgb(0, 0, 0)" stroke-linecap="butt" stroke-linejoin="round" stroke-opacity="1.0" stroke-width="3.0" />
            <path d=" M 572.279, 475.444 569.927, 481.950 569.890, 482.052 569.842, 482.184 568.617, 485.570 568.408, 486.255 568.360, 486.412 567.704, 488.560 567.669, 488.676 565.261, 496.560 565.159, 496.894 563.115, 501.417 561.788, 505.914 561.772, 505.968 560.473, 510.373 559.176, 514.904 558.787, 519.278 " fill="none" stroke="rgb(0, 0, 0)" stroke-linecap="butt" stroke-linejoin="round" stroke-opacity="1.0" stroke-width="3.0" />
            <path d=" M 786.356, 705.595 784.205, 709.764 784.101, 709.980 783.115, 712.027 782.814, 712.651 781.753, 715.220 781.100, 716.636 780.374, 718.013 779.645, 719.394 777.546, 723.510 776.739, 725.366 775.426, 728.582 773.825, 731.926 772.860, 733.827 771.840, 735.835 770.210, 739.491 769.279, 742.070 766.756, 745.716 766.409, 746.518 766.343, 746.671 766.139, 747.143 " fill="none" stroke="rgb(0, 0, 0)" stroke-linecap="butt" stroke-linejoin="round" stroke-opacity="1.0" stroke-width="3.0" />
            <path d=" M 781.491, 683.045 781.321, 682.619 777.611, 673.332 776.853, 671.435 776.788, 671.179 775.189, 664.904 772.328, 658.253 769.534, 652.073 768.278, 647.511 764.817, 639.875 " fill="none" stroke="rgb(0, 0, 0)" stroke-linecap="butt" stroke-linejoin="round" stroke-opacity="1.0" stroke-width="3.0" />
            <path d=" M 612.179, 681.275 609.633, 681.473 607.910, 683.004 607.315, 685.845 605.326, 692.810 605.289, 692.940 603.283, 699.964 603.279, 703.363 603.883, 710.467 604.489, 713.738 604.507, 713.833 604.550, 714.063 604.695, 714.849 604.845, 715.657 606.723, 720.649 608.150, 723.459 " fill="none" stroke="rgb(0, 0, 0)" stroke-linecap="butt" stroke-linejoin="round" stroke-opacity="1.0" stroke-width="3.0" />
            <path d=" M 717.105, 586.804 717.287, 586.392 718.433, 583.789 718.812, 583.020 718.823, 582.998 718.969, 582.702 720.654, 579.282 720.750, 579.087 720.757, 579.048 720.777, 578.944 721.556, 574.748 721.636, 570.810 722.006, 568.688 719.491, 564.985 718.692, 564.659 715.444, 563.334 711.920, 561.548 708.885, 560.923 705.897, 559.979 702.481, 561.207 699.337, 562.338 697.323, 563.063 " fill="none" stroke="rgb(0, 0, 0)" stroke-linecap="butt" stroke-linejoin="round" stroke-opacity="1.0" stroke-width="3.0" />
            <path d=" M 572.537, 867.763 572.679, 869.422 573.369, 876.189 574.596, 886.114 574.683, 886.815 574.752, 887.368 575.482, 894.844 576.086, 901.027 575.487, 895.985 574.740, 889.695 574.683, 886.815 " fill="none" stroke="rgb(0, 0, 0)" stroke-linecap="butt" stroke-linejoin="round" stroke-opacity="1.0" stroke-width="3.0" />
            <path d=" M 568.442, 826.194 568.453, 826.344 568.560, 827.859 568.703, 829.871 568.752, 830.559 568.758, 830.638 568.966, 833.569 569.354, 839.017 569.743, 846.303 569.877, 848.812 570.065, 850.110 570.217, 851.159 570.258, 851.448 570.399, 852.420 570.549, 853.460 570.697, 854.482 570.730, 854.710 570.731, 854.716 570.910, 855.953 571.061, 857.003 571.073, 857.083 571.114, 857.367 571.235, 858.205 571.284, 858.545 571.560, 860.453 571.919, 862.940 572.332, 866.159 572.537, 867.763 573.338, 874.020 " fill="none" stroke="rgb(0, 0, 0)" stroke-linecap="butt" stroke-linejoin="round" stroke-opacity="1.0" stroke-width="3.0" />
            <path d=" M 511.912, 726.619 504.351, 724.309 502.920, 723.900 497.374, 720.085 494.530, 717.573 491.623, 714.092 488.883, 709.441 486.485, 704.331 484.778, 699.236 482.761, 691.482 482.633, 691.016 " fill="none" stroke="rgb(0, 0, 0)" stroke-linecap="butt" stroke-linejoin="round" stroke-opacity="1.0" stroke-width="3.0" />
            <path d=" M 703.510, 767.998 706.765, 777.453 707.288, 778.973 709.684, 788.682 710.067, 790.233 710.917, 797.919 711.361, 801.933 711.397, 802.261 711.509, 803.275 711.608, 804.169 711.608, 804.171 711.634, 804.408 711.679, 804.809 711.762, 805.561 711.807, 805.973 711.887, 806.692 712.124, 808.839 712.428, 809.950 712.706, 810.968 712.832, 811.432 712.844, 811.473 713.580, 814.171 714.090, 816.036 714.192, 816.410 714.314, 816.858 714.691, 818.239 " fill="none" stroke="rgb(0, 0, 0)" stroke-linecap="butt" stroke-linejoin="round" stroke-opacity="1.0" stroke-width="3.0" />
            <path d=" M 786.929, 770.534 786.958, 770.533 787.136, 770.529 787.248, 770.526 787.444, 770.550 793.500, 771.302 796.971, 771.980 799.654, 772.101 800.592, 772.313 803.201, 772.903 803.766, 772.752 805.114, 772.391 805.169, 772.370 809.108, 770.834 818.024, 768.641 820.284, 768.093 824.492, 765.927 825.580, 764.792 829.222, 761.055 831.017, 756.901 831.844, 754.986 " fill="none" stroke="rgb(0, 0, 0)" stroke-linecap="butt" stroke-linejoin="round" stroke-opacity="1.0" stroke-width="3.0" />
            <path d=" M 742.874, 972.135 744.330, 972.417 747.434, 971.159 747.819, 971.002 751.896, 969.158 752.675, 968.545 755.597, 966.246 759.064, 957.736 759.937, 951.806 759.975, 951.548 760.344, 949.037 761.142, 947.434 761.929, 945.852 764.370, 937.915 765.330, 935.278 763.550, 928.446 " fill="none" stroke="rgb(0, 0, 0)" stroke-linecap="butt" stroke-linejoin="round" stroke-opacity="1.0" stroke-width="3.0" />
            <path d=" M 588.876, 804.967 588.703, 805.939 588.652, 806.226 588.618, 806.412 588.199, 808.761 588.130, 809.149 588.007, 809.840 587.807, 810.961 587.800, 810.997 587.797, 811.013 587.706, 811.524 587.396, 813.260 587.374, 813.386 587.357, 813.460 587.052, 814.761 586.813, 815.781 585.764, 820.267 585.711, 820.492 585.423, 821.720 584.884, 824.024 584.780, 824.471 584.666, 824.958 584.308, 826.485 583.777, 828.755 584.293, 826.528 584.651, 824.982 584.762, 824.507 584.844, 824.151 585.411, 821.705 585.684, 820.524 585.737, 820.295 586.467, 817.145 586.699, 815.924 586.862, 815.067 587.098, 813.821 587.301, 812.751 587.464, 811.889 587.535, 811.515 587.626, 811.039 587.630, 811.016 587.801, 810.116 588.062, 808.735 588.086, 808.612 588.187, 808.078 588.013, 805.303 587.981, 804.794 587.866, 802.956 587.824, 802.276 587.775, 801.501 587.740, 800.191 587.704, 798.866 587.699, 798.683 " fill="none" stroke="rgb(0, 0, 0)" stroke-linecap="butt" stroke-linejoin="round" stroke-opacity="1.0" stroke-width="3.0" />
            <path d=" M 698.718, 562.956 697.323, 563.063 691.994, 563.471 689.853, 560.637 687.842, 557.233 685.419, 556.130 683.561, 554.452 677.222, 555.593 674.964, 556.400 671.403, 558.267 669.237, 557.669 665.487, 556.587 661.882, 557.402 658.292, 558.988 656.532, 561.185 656.518, 562.354 656.509, 563.176 656.504, 563.616 656.475, 566.073 656.455, 567.801 " fill="none" stroke="rgb(0, 0, 0)" stroke-linecap="butt" stroke-linejoin="round" stroke-opacity="1.0" stroke-width="3.0" />
            <path d=" M 558.450, 521.039 556.568, 526.520 556.561, 526.619 555.793, 536.590 555.524, 540.081 555.190, 544.221 554.828, 554.215 554.716, 557.325 556.037, 565.181 556.130, 565.674 557.048, 570.505 557.731, 576.438 " fill="none" stroke="rgb(0, 0, 0)" stroke-linecap="butt" stroke-linejoin="round" stroke-opacity="1.0" stroke-width="3.0" />
            <path d=" M 656.222, 562.838 653.214, 559.289 645.956, 557.381 643.335, 557.961 642.141, 558.648 641.277, 561.881 640.116, 571.813 639.987, 572.923 639.945, 574.010 639.770, 578.611 641.060, 585.075 641.694, 586.537 643.178, 589.964 643.552, 590.825 643.731, 591.240 644.678, 597.884 " fill="none" stroke="rgb(0, 0, 0)" stroke-linecap="butt" stroke-linejoin="round" stroke-opacity="1.0" stroke-width="3.0" />
            <path d=" M 564.460, 583.031 565.163, 584.893 565.851, 586.718 567.130, 590.111 568.437, 591.497 568.473, 591.527 569.382, 592.278 571.651, 594.153 571.847, 594.315 573.326, 594.216 573.411, 594.210 573.785, 594.185 575.332, 594.082 575.361, 594.069 575.798, 593.807 576.506, 593.381 576.518, 593.374 583.074, 589.438 588.097, 587.038 588.402, 586.892 589.695, 586.274 590.747, 585.772 597.055, 585.102 602.273, 584.548 603.899, 584.185 605.938, 583.391 608.088, 581.014 608.182, 580.911 608.761, 580.271 609.433, 578.382 " fill="none" stroke="rgb(0, 0, 0)" stroke-linecap="butt" stroke-linejoin="round" stroke-opacity="1.0" stroke-width="3.0" />
            <path d=" M 578.166, 614.938 580.665, 617.087 582.063, 617.235 585.091, 620.386 588.899, 626.076 590.941, 627.916 591.798, 628.689 592.404, 629.235 596.419, 632.955 596.425, 632.959 597.969, 633.935 600.827, 635.376 603.205, 636.005 605.704, 635.951 607.749, 635.726 610.859, 632.850 611.470, 624.560 610.860, 618.520 " fill="none" stroke="rgb(0, 0, 0)" stroke-linecap="butt" stroke-linejoin="round" stroke-opacity="1.0" stroke-width="3.0" />
            <path d=" M 781.645, 785.395 782.009, 784.347 782.017, 784.324 782.070, 784.171 782.568, 782.826 782.581, 782.793 784.711, 777.036 786.200, 772.671 786.392, 772.108 786.423, 772.017 786.807, 770.893 786.865, 770.721 786.922, 770.555 786.929, 770.534 787.080, 770.092 787.089, 770.064 787.250, 769.595 788.101, 767.100 788.128, 767.021 788.313, 766.477 788.397, 766.231 788.539, 765.815 789.906, 758.988 790.855, 754.254 792.650, 748.294 793.745, 741.150 793.784, 740.894 794.913, 736.631 795.017, 736.240 795.035, 736.171 795.045, 736.131 796.481, 730.712 " fill="none" stroke="rgb(0, 0, 0)" stroke-linecap="butt" stroke-linejoin="round" stroke-opacity="1.0" stroke-width="3.0" />
            <path d=" M 631.906, 621.779 632.023, 622.296 632.801, 625.719 631.207, 629.260 631.348, 632.740 631.456, 635.403 633.392, 644.033 633.700, 645.406 634.040, 648.230 635.092, 656.983 635.140, 663.677 635.146, 664.498 635.172, 668.059 635.556, 671.793 635.722, 673.408 635.736, 673.535 635.807, 674.224 635.851, 674.658 635.962, 675.734 636.205, 678.094 " fill="none" stroke="rgb(0, 0, 0)" stroke-linecap="butt" stroke-linejoin="round" stroke-opacity="1.0" stroke-width="3.0" />
            <path d=" M 730.360, 896.758 731.865, 906.587 731.756, 908.961 732.554, 915.193 732.609, 919.077 732.698, 922.183 731.692, 929.927 731.090, 936.981 729.523, 944.411 729.420, 947.682 729.841, 954.700 729.948, 956.481 " fill="none" stroke="rgb(0, 0, 0)" stroke-linecap="butt" stroke-linejoin="round" stroke-opacity="1.0" stroke-width="3.0" />
            <path d=" M 784.467, 488.568 784.285, 488.019 783.948, 487.003 782.440, 482.462 780.960, 478.002 779.641, 472.212 777.435, 467.073 774.503, 461.108 770.390, 454.129 765.770, 445.260 764.502, 442.825 761.216, 435.494 760.101, 433.006 " fill="none" stroke="rgb(0, 0, 0)" stroke-linecap="butt" stroke-linejoin="round" stroke-opacity="1.0" stroke-width="3.0" />
            <path d=" M 696.542, 302.882 696.637, 309.047 696.679, 311.723 696.631, 313.323 696.601, 314.334 696.576, 315.185 696.547, 316.153 696.508, 317.437 696.478, 318.463 696.478, 318.467 696.461, 319.042 696.120, 320.272 694.727, 325.305 692.029, 326.920 691.731, 327.099 691.673, 327.134 691.475, 327.081 690.778, 326.896 689.169, 326.469 688.368, 324.583 687.696, 323.000 687.123, 321.649 687.118, 321.639 686.534, 320.263 686.357, 319.710 686.356, 319.706 684.908, 315.189 683.833, 311.833 683.865, 302.993 683.343, 297.681 682.432, 293.342 " fill="none" stroke="rgb(0, 0, 0)" stroke-linecap="butt" stroke-linejoin="round" stroke-opacity="1.0" stroke-width="3.0" />
            <path d=" M 841.408, 543.620 839.657, 538.601 839.634, 538.536 835.676, 532.172 833.291, 529.199 827.307, 522.980 821.921, 518.666 817.759, 516.720 813.220, 513.599 809.885, 511.162 803.851, 507.141 796.200, 501.423 " fill="none" stroke="rgb(0, 0, 0)" stroke-linecap="butt" stroke-linejoin="round" stroke-opacity="1.0" stroke-width="3.0" />
            <path d=" M 747.483, 625.006 751.402, 615.806 752.534, 613.149 753.413, 610.447 753.581, 609.931 753.747, 609.420 754.389, 607.448 755.961, 602.617 756.891, 599.363 756.956, 599.136 757.187, 598.330 757.552, 597.052 757.922, 595.757 758.317, 594.373 758.343, 594.282 758.400, 594.085 760.686, 586.085 760.856, 585.062 760.881, 584.908 760.989, 584.257 761.491, 581.234 761.566, 580.781 761.655, 580.246 761.695, 580.004 761.738, 579.751 762.188, 576.257 762.227, 575.950 762.398, 574.622 762.418, 574.465 761.827, 573.230 761.657, 572.873 758.888, 567.503 758.849, 567.427 756.347, 564.430 755.822, 563.801 " fill="none" stroke="rgb(0, 0, 0)" stroke-linecap="butt" stroke-linejoin="round" stroke-opacity="1.0" stroke-width="3.0" />
            <path d=" M 619.193, 301.622 611.943, 307.354 609.591, 309.118 606.120, 311.721 600.733, 315.910 596.231, 322.302 594.286, 327.662 593.684, 332.909 593.620, 333.461 593.609, 333.563 593.524, 334.296 593.427, 336.606 593.391, 337.465 593.258, 340.620 594.005, 350.592 594.115, 352.065 595.430, 356.588 " fill="none" stroke="rgb(0, 0, 0)" stroke-linecap="butt" stroke-linejoin="round" stroke-opacity="1.0" stroke-width="3.0" />
            <path d=" M 666.660, 246.557 669.750, 244.868 671.598, 243.984 672.056, 243.765 672.427, 243.588 674.413, 242.638 674.493, 242.600 675.317, 242.206 675.333, 241.438 675.428, 236.759 673.926, 235.197 673.170, 234.546 669.290, 231.201 669.284, 231.195 666.688, 230.256 662.976, 230.711 660.515, 231.681 660.396, 231.781 658.719, 233.200 655.629, 238.401 651.209, 236.801 651.202, 236.798 650.180, 236.428 650.062, 236.386 646.864, 235.910 644.549, 236.661 641.087, 239.019 640.133, 239.957 639.406, 240.973 636.884, 244.493 636.348, 246.765 636.321, 246.879 636.208, 247.358 " fill="none" stroke="rgb(0, 0, 0)" stroke-linecap="butt" stroke-linejoin="round" stroke-opacity="1.0" stroke-width="3.0" />
            <path d=" M 662.399, 759.159 662.984, 759.027 663.138, 758.992 668.416, 757.802 670.401, 757.384 670.691, 757.324 670.742, 757.313 673.786, 756.672 674.165, 756.593 677.178, 756.033 679.326, 754.490 682.167, 748.899 684.668, 748.021 687.018, 749.107 690.706, 754.913 690.827, 755.155 693.563, 760.635 699.852, 763.745 700.901, 764.199 701.625, 764.512 701.719, 764.552 703.405, 765.282 707.591, 768.014 710.295, 772.774 712.254, 773.687 712.750, 773.919 713.907, 774.459 " fill="none" stroke="rgb(0, 0, 0)" stroke-linecap="butt" stroke-linejoin="round" stroke-opacity="1.0" stroke-width="3.0" />
            <path d=" M 777.175, 681.039 776.201, 678.808 776.109, 678.598 775.474, 677.142 773.787, 670.804 772.782, 668.520 771.136, 665.997 768.853, 660.168 766.290, 653.286 763.905, 644.513 763.896, 644.480 763.746, 643.927 763.810, 642.334 763.835, 641.737 763.835, 641.717 763.964, 638.546 763.966, 638.483 763.968, 638.442 763.984, 638.043 763.984, 638.036 764.005, 637.509 762.216, 634.159 761.930, 633.623 761.809, 633.266 759.722, 627.070 758.925, 621.149 757.073, 616.149 " fill="none" stroke="rgb(0, 0, 0)" stroke-linecap="butt" stroke-linejoin="round" stroke-opacity="1.0" stroke-width="3.0" />
            <path d=" M 481.577, 685.806 482.169, 682.998 484.234, 673.214 485.100, 669.110 487.011, 659.294 487.642, 656.049 489.840, 646.294 489.993, 645.615 493.630, 636.299 494.917, 633.003 499.385, 625.168 503.869, 620.440 505.837, 618.608 " fill="none" stroke="rgb(0, 0, 0)" stroke-linecap="butt" stroke-linejoin="round" stroke-opacity="1.0" stroke-width="3.0" />
            <path d=" M 563.619, 557.502 565.590, 559.412 567.314, 561.082 568.901, 562.619 569.561, 563.259 572.855, 564.226 578.232, 562.719 579.026, 562.318 585.939, 557.572 589.736, 555.950 589.826, 555.912 591.640, 555.137 591.849, 555.048 591.937, 555.011 592.196, 554.900 592.937, 554.728 593.592, 554.576 596.676, 553.859 600.303, 553.016 600.346, 553.014 604.177, 552.868 606.453, 551.307 608.579, 549.723 611.292, 545.051 611.651, 543.844 612.531, 540.423 611.936, 534.548 607.923, 528.136 607.025, 527.203 " fill="none" stroke="rgb(0, 0, 0)" stroke-linecap="butt" stroke-linejoin="round" stroke-opacity="1.0" stroke-width="3.0" />
            <path d=" M 633.461, 669.646 633.358, 669.447 630.187, 665.161 625.047, 659.066 620.999, 654.925 620.282, 654.191 619.864, 653.764 618.101, 653.404 617.938, 653.371 617.870, 653.357 617.862, 653.356 617.854, 653.355 617.808, 653.348 613.965, 652.817 611.436, 656.667 611.251, 666.665 611.069, 676.520 612.179, 681.275 612.369, 682.092 613.056, 685.034 613.310, 685.541 615.567, 688.274 616.206, 689.047 616.659, 689.597 618.828, 698.765 619.016, 699.559 " fill="none" stroke="rgb(0, 0, 0)" stroke-linecap="butt" stroke-linejoin="round" stroke-opacity="1.0" stroke-width="3.0" />
            <path d=" M 738.611, 712.021 738.553, 708.286 738.535, 707.178 738.471, 703.024 739.570, 693.085 739.662, 692.249 740.912, 682.327 741.289, 679.334 741.419, 678.301 741.425, 678.255 741.874, 674.685 741.920, 674.321 742.053, 673.268 742.120, 672.733 742.350, 670.912 742.630, 669.699 744.837, 660.137 744.948, 659.494 745.398, 656.891 745.788, 654.636 745.820, 654.448 746.354, 651.358 746.383, 651.193 746.446, 650.826 747.180, 646.578 747.424, 636.581 747.429, 636.377 " fill="none" stroke="rgb(0, 0, 0)" stroke-linecap="butt" stroke-linejoin="round" stroke-opacity="1.0" stroke-width="3.0" />
            <path d=" M 517.416, 729.052 517.763, 730.473 518.743, 734.488 520.954, 736.869 523.653, 740.593 526.307, 744.900 529.189, 750.053 532.684, 755.686 536.378, 762.818 539.761, 770.085 540.892, 774.044 541.933, 777.691 542.143, 778.425 542.176, 778.540 542.192, 778.598 542.195, 778.606 542.211, 778.664 542.248, 778.794 542.676, 780.292 543.423, 783.051 543.561, 783.561 544.067, 785.429 544.099, 785.551 544.206, 785.946 545.581, 791.025 547.364, 795.213 547.662, 795.912 547.682, 795.960 547.934, 796.553 547.964, 796.657 548.100, 797.143 548.214, 797.547 549.289, 801.374 " fill="none" stroke="rgb(0, 0, 0)" stroke-linecap="butt" stroke-linejoin="round" stroke-opacity="1.0" stroke-width="3.0" />
            <path d=" M 639.945, 574.010 635.305, 570.177 629.175, 566.455 626.946, 565.058 624.053, 563.245 618.881, 559.231 615.616, 557.143 612.659, 555.000 607.970, 553.002 604.577, 553.178 603.353, 554.940 602.009, 558.273 604.779, 567.652 605.087, 568.375 609.017, 577.593 609.433, 578.382 611.186, 581.710 612.525, 584.251 615.131, 588.925 615.546, 589.669 " fill="none" stroke="rgb(0, 0, 0)" stroke-linecap="butt" stroke-linejoin="round" stroke-opacity="1.0" stroke-width="3.0" />
            <path d=" M 532.508, 745.631 532.854, 746.930 533.191, 748.196 533.686, 750.052 533.740, 750.255 534.089, 751.566 534.430, 752.845 538.703, 761.684 540.892, 765.557 541.082, 765.894 542.887, 769.088 543.513, 770.299 543.933, 771.113 545.691, 774.517 546.847, 776.755 547.528, 778.074 548.217, 779.409 548.494, 780.149 549.123, 781.833 549.188, 782.005 549.380, 782.517 550.178, 784.652 551.167, 787.296 551.272, 787.523 551.749, 788.557 551.753, 788.566 551.940, 788.972 551.991, 789.082 552.497, 790.177 552.517, 790.221 552.711, 790.641 552.726, 790.673 553.287, 791.889 553.565, 792.491 553.831, 793.107 553.937, 793.353 557.907, 802.531 558.218, 803.251 561.012, 809.856 561.107, 810.079 562.305, 812.912 562.368, 813.061 562.560, 813.516 562.618, 813.653 562.721, 813.895 562.775, 814.023 562.805, 814.095 562.868, 814.243 563.045, 814.651 564.413, 817.799 565.816, 821.030 " fill="none" stroke="rgb(0, 0, 0)" stroke-linecap="butt" stroke-linejoin="round" stroke-opacity="1.0" stroke-width="3.0" />
            <path d=" M 851.729, 728.824 852.819, 727.521 855.488, 724.330 857.130, 721.527 859.227, 717.258 861.578, 709.042 863.951, 699.952 865.279, 692.432 865.755, 683.284 864.739, 674.855 863.692, 667.532 862.025, 659.362 860.947, 654.736 859.346, 649.519 " fill="none" stroke="rgb(0, 0, 0)" stroke-linecap="butt" stroke-linejoin="round" stroke-opacity="1.0" stroke-width="3.0" />
            <path d=" M 770.688, 465.074 768.512, 462.199 766.830, 459.889 763.004, 454.633 759.960, 449.362 759.132, 447.927 759.079, 447.836 759.027, 447.745 758.364, 446.597 758.020, 445.751 756.586, 442.226 756.533, 441.828 756.447, 441.180 754.677, 434.129 753.135, 427.068 751.935, 421.654 751.594, 416.691 751.499, 415.319 751.377, 413.540 751.357, 413.249 751.332, 412.885 751.236, 411.876 750.770, 406.966 750.145, 401.954 749.012, 397.489 747.573, 388.809 747.041, 384.849 " fill="none" stroke="rgb(0, 0, 0)" stroke-linecap="butt" stroke-linejoin="round" stroke-opacity="1.0" stroke-width="3.0" />
            <path d=" M 737.802, 606.422 738.280, 602.696 739.237, 595.235 739.992, 592.335 740.772, 589.335 741.352, 587.105 742.030, 582.248 741.804, 579.991 741.064, 572.596 740.397, 569.354 740.380, 569.271 740.334, 569.047 739.930, 567.082 739.901, 566.940 739.878, 566.830 739.753, 566.220 739.347, 564.242 739.297, 564.001 733.982, 560.753 733.204, 560.940 733.187, 560.944 733.018, 560.984 732.248, 561.169 729.122, 561.918 725.823, 570.452 725.116, 572.398 724.201, 574.916 724.008, 575.447 723.867, 575.834 723.613, 576.533 722.912, 582.655 722.081, 588.325 722.034, 588.645 718.311, 589.767 " fill="none" stroke="rgb(0, 0, 0)" stroke-linecap="butt" stroke-linejoin="round" stroke-opacity="1.0" stroke-width="3.0" />
            <path d=" M 562.464, 590.131 564.741, 591.695 564.996, 594.780 565.370, 600.223 565.751, 601.577 566.737, 603.493 566.975, 603.957 568.603, 605.833 568.785, 606.599 568.847, 606.859 569.030, 607.631 569.617, 610.109 570.226, 610.878 570.424, 611.128 572.075, 613.214 574.796, 615.102 577.261, 615.015 578.101, 614.938 578.166, 614.938 579.622, 614.955 583.681, 613.665 586.275, 612.841 592.475, 612.690 592.531, 612.688 596.119, 613.642 600.400, 614.779 602.553, 614.565 603.574, 613.854 603.676, 613.782 607.453, 611.115 609.891, 604.285 610.252, 599.952 609.611, 598.125 608.760, 595.701 608.679, 595.600 608.159, 594.959 608.062, 594.839 607.627, 594.303 607.262, 593.853 607.196, 593.772 606.740, 593.208 606.411, 592.802 606.253, 592.608 605.985, 592.277 605.326, 591.464 604.359, 590.271 " fill="none" stroke="rgb(0, 0, 0)" stroke-linecap="butt" stroke-linejoin="round" stroke-opacity="1.0" stroke-width="3.0" />
            <path d=" M 538.728, 693.453 537.500, 697.791 537.945, 696.560 538.397, 694.768 538.728, 693.453 540.233, 688.143 540.362, 687.582 541.773, 681.461 543.816, 677.108 546.512, 670.602 548.095, 664.951 549.504, 660.413 550.357, 657.698 550.520, 657.241 552.962, 650.388 553.084, 650.018 555.013, 644.125 557.232, 639.083 558.985, 634.034 560.393, 627.785 562.194, 623.043 563.404, 621.135 564.845, 618.997 565.444, 618.205 " fill="none" stroke="rgb(0, 0, 0)" stroke-linecap="butt" stroke-linejoin="round" stroke-opacity="1.0" stroke-width="3.0" />
            <path d=" M 542.958, 816.656 542.952, 816.657 542.148, 816.676 540.411, 816.719 538.296, 816.387 536.780, 816.150 533.455, 815.629 533.403, 815.618 524.555, 813.688 518.039, 814.379 516.189, 814.948 509.891, 815.057 506.305, 815.445 505.127, 816.022 503.128, 817.531 500.981, 822.289 501.747, 826.783 503.954, 831.149 508.222, 837.773 511.328, 841.756 514.205, 845.447 514.935, 846.079 517.188, 848.031 522.306, 852.527 526.164, 855.662 529.563, 858.001 530.558, 859.014 " fill="none" stroke="rgb(0, 0, 0)" stroke-linecap="butt" stroke-linejoin="round" stroke-opacity="1.0" stroke-width="3.0" />
            <path d=" M 479.172, 617.531 478.150, 621.586 475.051, 630.991 473.374, 637.267 472.745, 643.554 471.796, 649.524 471.531, 651.092 471.261, 652.680 471.292, 658.437 470.738, 663.147 470.615, 666.983 470.023, 670.324 469.712, 674.800 468.890, 680.409 468.194, 684.463 467.985, 688.632 467.804, 692.806 468.417, 702.149 469.308, 706.591 471.132, 711.501 " fill="none" stroke="rgb(0, 0, 0)" stroke-linecap="butt" stroke-linejoin="round" stroke-opacity="1.0" stroke-width="3.0" />
            <path d=" M 805.293, 831.643 809.073, 826.618 810.731, 824.965 816.239, 818.699 819.369, 814.527 825.283, 806.765 827.626, 803.455 830.721, 796.419 830.870, 793.556 828.883, 789.591 825.466, 787.315 822.447, 786.412 820.168, 786.110 814.516, 786.090 807.159, 784.410 802.091, 785.206 801.334, 785.401 796.776, 786.575 793.543, 787.408 786.819, 788.391 785.276, 788.573 " fill="none" stroke="rgb(0, 0, 0)" stroke-linecap="butt" stroke-linejoin="round" stroke-opacity="1.0" stroke-width="3.0" />
            <path d=" M 633.610, 870.831 633.994, 869.478 635.047, 865.768 636.420, 860.930 636.717, 859.313 636.924, 858.180 638.091, 851.811 638.395, 850.151 639.053, 846.561 640.753, 840.259 641.052, 838.694 641.123, 838.326 642.138, 833.022 642.894, 829.075 645.376, 819.388 645.432, 819.170 647.645, 809.418 647.779, 808.826 649.223, 801.579 650.761, 793.277 653.560, 783.677 654.814, 779.378 657.555, 772.016 663.054, 763.664 663.819, 762.502 " fill="none" stroke="rgb(0, 0, 0)" stroke-linecap="butt" stroke-linejoin="round" stroke-opacity="1.0" stroke-width="3.0" />
            <path d=" M 471.531, 651.092 469.884, 655.996 467.992, 664.960 466.668, 674.872 465.939, 680.330 465.369, 688.056 464.844, 697.235 465.317, 704.004 466.045, 710.967 467.301, 716.646 469.541, 724.856 472.594, 732.174 476.193, 739.421 479.911, 745.207 482.966, 749.688 484.432, 751.272 489.506, 756.293 493.804, 764.941 494.900, 765.936 502.348, 772.685 502.696, 773.089 " fill="none" stroke="rgb(0, 0, 0)" stroke-linecap="butt" stroke-linejoin="round" stroke-opacity="1.0" stroke-width="3.0" />
            <path d=" M 782.684, 583.323 782.887, 582.436 783.284, 580.706 784.766, 574.246 784.689, 565.945 785.748, 562.963 785.988, 559.277 786.220, 555.711 787.543, 548.055 788.647, 540.006 788.458, 530.234 787.365, 520.294 787.330, 519.977 785.844, 515.087 785.798, 510.212 785.114, 506.981 783.148, 500.388 781.043, 494.572 779.642, 490.961 778.176, 487.205 778.168, 487.185 777.907, 486.517 777.890, 486.447 777.676, 485.593 776.950, 482.699 775.979, 479.802 772.911, 474.258 772.910, 474.256 772.830, 474.110 772.523, 473.557 771.294, 471.334 771.281, 471.312 771.253, 471.261 768.668, 468.582 766.435, 463.755 764.589, 461.004 762.883, 458.219 761.337, 455.477 760.770, 454.562 760.078, 453.446 759.714, 452.857 " fill="none" stroke="rgb(0, 0, 0)" stroke-linecap="butt" stroke-linejoin="round" stroke-opacity="1.0" stroke-width="3.0" />
        </g>
    </g>
</svg>
