<?xml version='1.0' encoding='ascii'?>
<svg xmlns="http://www.w3.org/2000/svg" height="1280" version="1.1" width="1280">
    <g id="RenderLayer_LineSet" inkscape:groupmode="lineset" inkscape:label="RenderLayer_LineSet" xmlns:inkscape="http://www.inkscape.org/namespaces/inkscape">
        <g id="strokes" inkscape:groupmode="layer" inkscape:label="strokes" xmlns:inkscape="http://www.inkscape.org/namespaces/inkscape">
            <path d=" M 534.591, 818.602 530.500, 819.801 524.294, 822.354 522.851, 822.947 518.286, 824.579 515.474, 825.285 " fill="none" stroke="rgb(0, 0, 0)" stroke-linecap="butt" stroke-linejoin="round" stroke-opacity="1.0" stroke-width="3.0" />
            <path d=" M 531.935, 759.502 530.174, 760.459 527.458, 762.357 526.508, 763.547 526.007, 764.364 524.372, 767.418 523.721, 769.625 523.009, 772.123 522.842, 772.704 522.152, 775.095 521.859, 776.110 " fill="none" stroke="rgb(0, 0, 0)" stroke-linecap="butt" stroke-linejoin="round" stroke-opacity="1.0" stroke-width="3.0" />
            <path d=" M 619.985, 446.080 620.186, 452.258 620.222, 453.333 619.547, 456.606 618.518, 461.593 618.468, 461.834 618.220, 463.038 618.126, 463.490 617.569, 466.192 " fill="none" stroke="rgb(0, 0, 0)" stroke-linecap="butt" stroke-linejoin="round" stroke-opacity="1.0" stroke-width="3.0" />
            <path d=" M 773.261, 866.547 774.195, 861.997 774.249, 861.155 774.290, 860.519 774.318, 860.076 774.329, 859.908 774.481, 857.537 774.817, 852.319 774.811, 852.043 774.810, 851.979 774.809, 851.906 774.777, 850.300 774.748, 848.885 774.733, 848.100 774.701, 846.511 774.695, 846.228 " fill="none" stroke="rgb(0, 0, 0)" stroke-linecap="butt" stroke-linejoin="round" stroke-opacity="1.0" stroke-width="3.0" />
            <path d=" M 509.609, 904.251 512.952, 906.851 518.562, 908.755 521.045, 909.789 523.987, 910.648 528.713, 912.028 " fill="none" stroke="rgb(0, 0, 0)" stroke-linecap="butt" stroke-linejoin="round" stroke-opacity="1.0" stroke-width="3.0" />
            <path d=" M 625.724, 841.803 623.972, 841.902 623.273, 841.942 621.494, 842.042 618.554, 842.831 617.484, 841.207 615.593, 840.047 610.035, 839.674 607.488, 839.504 607.251, 839.500 606.153, 839.485 " fill="none" stroke="rgb(0, 0, 0)" stroke-linecap="butt" stroke-linejoin="round" stroke-opacity="1.0" stroke-width="3.0" />
            <path d=" M 559.097, 795.248 559.108, 795.401 559.369, 798.947 559.444, 800.612 559.568, 803.337 559.582, 803.666 559.766, 807.742 559.820, 808.924 559.821, 808.949 560.150, 816.228 " fill="none" stroke="rgb(0, 0, 0)" stroke-linecap="butt" stroke-linejoin="round" stroke-opacity="1.0" stroke-width="3.0" />
            <path d=" M 618.145, 464.994 617.808, 465.694 617.569, 466.192 617.542, 466.249 615.852, 469.765 612.762, 476.194 611.008, 478.785 610.004, 480.269 609.981, 480.303 609.908, 480.411 607.940, 483.319 " fill="none" stroke="rgb(0, 0, 0)" stroke-linecap="butt" stroke-linejoin="round" stroke-opacity="1.0" stroke-width="3.0" />
            <path d=" M 770.182, 938.450 772.351, 941.100 773.427, 942.987 773.860, 943.748 774.189, 944.325 774.260, 944.450 774.290, 944.502 774.396, 944.621 775.368, 945.715 775.530, 945.896 775.582, 945.954 778.490, 949.224 781.026, 950.884 782.244, 951.681 784.448, 953.123 784.951, 953.452 785.156, 953.586 " fill="none" stroke="rgb(0, 0, 0)" stroke-linecap="butt" stroke-linejoin="round" stroke-opacity="1.0" stroke-width="3.0" />
            <path d=" M 514.031, 822.410 507.827, 819.368 502.039, 815.067 498.745, 810.149 497.542, 808.665 " fill="none" stroke="rgb(0, 0, 0)" stroke-linecap="butt" stroke-linejoin="round" stroke-opacity="1.0" stroke-width="3.0" />
            <path d=" M 570.594, 530.354 570.504, 530.717 569.166, 536.105 567.821, 540.995 566.706, 550.933 566.588, 551.984 " fill="none" stroke="rgb(0, 0, 0)" stroke-linecap="butt" stroke-linejoin="round" stroke-opacity="1.0" stroke-width="3.0" />
            <path d=" M 664.337, 427.245 665.978, 426.791 667.946, 426.247 669.607, 431.033 670.158, 435.721 669.708, 444.309 " fill="none" stroke="rgb(0, 0, 0)" stroke-linecap="butt" stroke-linejoin="round" stroke-opacity="1.0" stroke-width="3.0" />
            <path d=" M 636.271, 558.791 636.281, 558.749 638.672, 549.039 639.666, 545.001 641.337, 539.444 642.093, 536.929 " fill="none" stroke="rgb(0, 0, 0)" stroke-linecap="butt" stroke-linejoin="round" stroke-opacity="1.0" stroke-width="3.0" />
            <path d=" M 568.101, 944.850 568.132, 944.980 568.368, 945.994 568.475, 946.449 569.173, 949.441 569.564, 951.115 570.509, 955.168 571.165, 957.021 571.923, 958.314 573.961, 959.565 574.515, 959.906 575.172, 960.309 576.502, 961.126 576.585, 961.083 579.340, 959.655 " fill="none" stroke="rgb(0, 0, 0)" stroke-linecap="butt" stroke-linejoin="round" stroke-opacity="1.0" stroke-width="3.0" />
            <path d=" M 713.301, 476.116 713.272, 475.945 713.269, 475.928 712.962, 474.131 711.936, 468.138 711.927, 468.081 711.921, 468.047 711.563, 462.801 711.397, 460.367 710.933, 453.548 " fill="none" stroke="rgb(0, 0, 0)" stroke-linecap="butt" stroke-linejoin="round" stroke-opacity="1.0" stroke-width="3.0" />
            <path d=" M 641.337, 539.444 645.016, 530.145 646.744, 525.778 649.469, 518.172 " fill="none" stroke="rgb(0, 0, 0)" stroke-linecap="butt" stroke-linejoin="round" stroke-opacity="1.0" stroke-width="3.0" />
            <path d=" M 520.892, 777.051 519.416, 779.425 518.619, 782.160 519.815, 791.667 521.377, 799.287 " fill="none" stroke="rgb(0, 0, 0)" stroke-linecap="butt" stroke-linejoin="round" stroke-opacity="1.0" stroke-width="3.0" />
            <path d=" M 528.365, 935.945 528.228, 937.574 528.618, 943.361 530.930, 951.136 532.684, 956.132 534.332, 957.545 " fill="none" stroke="rgb(0, 0, 0)" stroke-linecap="butt" stroke-linejoin="round" stroke-opacity="1.0" stroke-width="3.0" />
            <path d=" M 823.769, 817.866 822.970, 817.421 819.349, 815.408 814.097, 813.982 807.468, 811.470 802.359, 809.279 " fill="none" stroke="rgb(0, 0, 0)" stroke-linecap="butt" stroke-linejoin="round" stroke-opacity="1.0" stroke-width="3.0" />
            <path d=" M 722.547, 481.479 721.916, 478.634 721.522, 476.857 721.163, 475.240 721.125, 475.070 720.690, 473.108 718.525, 463.345 717.574, 459.059 717.524, 458.835 " fill="none" stroke="rgb(0, 0, 0)" stroke-linecap="butt" stroke-linejoin="round" stroke-opacity="1.0" stroke-width="3.0" />
            <path d=" M 799.397, 814.515 801.783, 810.336 801.817, 810.276 802.359, 809.279 804.002, 806.258 804.963, 804.617 807.270, 801.755 808.524, 799.721 810.153, 797.537 811.297, 796.313 812.314, 795.225 " fill="none" stroke="rgb(0, 0, 0)" stroke-linecap="butt" stroke-linejoin="round" stroke-opacity="1.0" stroke-width="3.0" />
            <path d=" M 747.488, 605.901 746.646, 601.558 746.505, 600.832 746.441, 600.503 746.440, 600.497 745.917, 597.807 745.808, 596.711 745.566, 594.298 745.529, 593.934 745.402, 592.661 745.088, 589.529 744.706, 587.860 744.703, 587.847 744.665, 587.680 744.624, 587.502 744.506, 586.986 743.505, 582.609 " fill="none" stroke="rgb(0, 0, 0)" stroke-linecap="butt" stroke-linejoin="round" stroke-opacity="1.0" stroke-width="3.0" />
            <path d=" M 746.001, 601.635 745.989, 601.575 745.872, 600.971 745.806, 600.629 745.804, 600.617 745.502, 599.050 745.374, 598.390 745.348, 598.255 745.066, 596.794 745.025, 596.590 744.563, 594.278 744.496, 593.941 743.637, 589.645 743.633, 589.623 743.625, 589.582 743.606, 589.486 743.568, 589.295 742.669, 584.800 740.899, 580.740 740.138, 578.994 740.062, 578.820 " fill="none" stroke="rgb(0, 0, 0)" stroke-linecap="butt" stroke-linejoin="round" stroke-opacity="1.0" stroke-width="3.0" />
            <path d=" M 685.202, 1016.003 685.470, 1016.103 690.008, 1017.812 694.592, 1018.159 700.552, 1016.841 703.781, 1014.698 705.719, 1013.251 707.128, 1012.084 " fill="none" stroke="rgb(0, 0, 0)" stroke-linecap="butt" stroke-linejoin="round" stroke-opacity="1.0" stroke-width="3.0" />
            <path d=" M 756.883, 640.421 759.156, 640.041 760.826, 640.722 764.073, 641.749 767.085, 639.725 768.624, 638.013 770.695, 634.508 771.263, 627.849 " fill="none" stroke="rgb(0, 0, 0)" stroke-linecap="butt" stroke-linejoin="round" stroke-opacity="1.0" stroke-width="3.0" />
            <path d=" M 540.022, 772.046 541.865, 775.760 541.923, 775.878 543.193, 778.436 544.637, 781.347 545.459, 782.920 546.496, 784.906 546.986, 786.149 548.202, 788.135 548.231, 788.182 550.036, 791.129 551.444, 793.428 " fill="none" stroke="rgb(0, 0, 0)" stroke-linecap="butt" stroke-linejoin="round" stroke-opacity="1.0" stroke-width="3.0" />
            <path d=" M 778.120, 828.671 777.244, 821.095 776.948, 818.533 775.109, 811.493 775.256, 804.605 " fill="none" stroke="rgb(0, 0, 0)" stroke-linecap="butt" stroke-linejoin="round" stroke-opacity="1.0" stroke-width="3.0" />
            <path d=" M 767.819, 908.585 768.008, 907.652 768.082, 907.289 768.984, 902.849 769.361, 897.577 770.083, 890.644 770.732, 884.411 " fill="none" stroke="rgb(0, 0, 0)" stroke-linecap="butt" stroke-linejoin="round" stroke-opacity="1.0" stroke-width="3.0" />
            <path d=" M 559.766, 807.742 559.804, 808.929 559.805, 808.955 559.907, 812.193 560.150, 816.228 560.373, 822.445 560.518, 826.470 560.574, 828.024 560.599, 828.708 560.600, 828.747 560.725, 832.217 " fill="none" stroke="rgb(0, 0, 0)" stroke-linecap="butt" stroke-linejoin="round" stroke-opacity="1.0" stroke-width="3.0" />
            <path d=" M 861.009, 770.673 860.743, 775.073 861.477, 779.824 859.505, 785.613 859.546, 788.663 859.351, 790.007 858.661, 794.773 " fill="none" stroke="rgb(0, 0, 0)" stroke-linecap="butt" stroke-linejoin="round" stroke-opacity="1.0" stroke-width="3.0" />
            <path d=" M 785.634, 550.031 785.538, 549.633 785.471, 549.349 785.181, 548.138 784.661, 545.961 782.767, 541.021 779.552, 531.552 778.301, 527.867 777.665, 526.363 " fill="none" stroke="rgb(0, 0, 0)" stroke-linecap="butt" stroke-linejoin="round" stroke-opacity="1.0" stroke-width="3.0" />
            <path d=" M 666.362, 322.322 664.785, 319.961 662.953, 316.301 662.015, 312.330 658.993, 310.891 658.937, 310.867 656.804, 310.773 653.072, 312.037 651.401, 314.012 650.147, 315.495 " fill="none" stroke="rgb(0, 0, 0)" stroke-linecap="butt" stroke-linejoin="round" stroke-opacity="1.0" stroke-width="3.0" />
            <path d=" M 671.065, 282.663 671.817, 281.342 673.175, 278.954 673.212, 274.586 671.828, 271.833 665.293, 271.158 661.360, 272.704 659.845, 275.124 " fill="none" stroke="rgb(0, 0, 0)" stroke-linecap="butt" stroke-linejoin="round" stroke-opacity="1.0" stroke-width="3.0" />
            <path d=" M 802.834, 575.888 799.106, 570.283 798.083, 568.745 792.404, 561.366 789.363, 557.206 788.133, 554.724 " fill="none" stroke="rgb(0, 0, 0)" stroke-linecap="butt" stroke-linejoin="round" stroke-opacity="1.0" stroke-width="3.0" />
            <path d=" M 525.964, 805.280 527.066, 806.711 528.910, 809.105 530.710, 812.327 532.591, 815.371 534.591, 818.602 534.713, 818.798 534.832, 818.990 538.683, 825.372 539.957, 827.183 " fill="none" stroke="rgb(0, 0, 0)" stroke-linecap="butt" stroke-linejoin="round" stroke-opacity="1.0" stroke-width="3.0" />
            <path d=" M 794.123, 868.221 793.476, 866.903 793.471, 866.893 793.470, 866.891 793.430, 866.810 793.234, 866.411 793.049, 866.035 793.021, 865.976 792.988, 865.909 792.986, 865.905 792.981, 865.896 792.969, 865.871 792.623, 865.167 792.599, 865.118 790.944, 861.749 790.848, 861.547 790.700, 861.238 790.022, 859.822 789.899, 859.566 789.678, 859.105 789.425, 858.575 788.557, 856.762 788.300, 856.120 788.258, 856.014 788.220, 855.919 787.897, 855.111 787.826, 854.933 787.530, 854.194 787.499, 853.417 786.403, 845.673 785.847, 843.786 " fill="none" stroke="rgb(0, 0, 0)" stroke-linecap="butt" stroke-linejoin="round" stroke-opacity="1.0" stroke-width="3.0" />
            <path d=" M 747.414, 967.946 749.641, 969.480 751.105, 970.488 752.364, 971.355 752.423, 971.397 752.489, 971.441 752.792, 971.650 752.868, 971.703 752.932, 971.747 753.380, 971.900 757.645, 973.358 764.592, 979.740 764.593, 979.741 764.809, 979.906 768.591, 982.787 " fill="none" stroke="rgb(0, 0, 0)" stroke-linecap="butt" stroke-linejoin="round" stroke-opacity="1.0" stroke-width="3.0" />
            <path d=" M 791.643, 640.022 795.685, 644.721 798.777, 654.230 799.465, 656.345 802.260, 661.381 803.372, 663.385 " fill="none" stroke="rgb(0, 0, 0)" stroke-linecap="butt" stroke-linejoin="round" stroke-opacity="1.0" stroke-width="3.0" />
            <path d=" M 568.859, 904.030 569.252, 908.207 569.261, 908.297 569.278, 908.474 570.019, 910.890 570.685, 913.058 570.523, 916.932 570.485, 917.843 570.473, 918.137 570.454, 918.578 570.320, 921.774 569.199, 926.317 569.176, 926.410 569.001, 927.120 569.091, 929.428 569.126, 930.319 " fill="none" stroke="rgb(0, 0, 0)" stroke-linecap="butt" stroke-linejoin="round" stroke-opacity="1.0" stroke-width="3.0" />
            <path d=" M 688.959, 275.329 686.008, 272.198 682.825, 271.414 679.499, 270.927 676.875, 271.587 675.200, 273.677 675.141, 276.819 675.349, 277.684 674.595, 280.673 675.257, 282.451 675.368, 282.749 675.482, 283.054 675.736, 283.735 " fill="none" stroke="rgb(0, 0, 0)" stroke-linecap="butt" stroke-linejoin="round" stroke-opacity="1.0" stroke-width="3.0" />
            <path d=" M 819.227, 891.787 823.745, 890.496 825.692, 889.939 829.847, 888.821 833.943, 883.427 834.679, 882.459 838.649, 875.484 " fill="none" stroke="rgb(0, 0, 0)" stroke-linecap="butt" stroke-linejoin="round" stroke-opacity="1.0" stroke-width="3.0" />
            <path d=" M 625.196, 663.504 625.282, 664.645 623.951, 674.556 623.153, 680.507 623.353, 686.166 623.811, 690.261 623.845, 690.568 " fill="none" stroke="rgb(0, 0, 0)" stroke-linecap="butt" stroke-linejoin="round" stroke-opacity="1.0" stroke-width="3.0" />
            <path d=" M 597.788, 521.935 596.214, 522.737 593.656, 526.445 592.580, 528.005 592.432, 528.620 591.869, 530.950 591.486, 532.535 591.584, 534.352 591.618, 534.972 591.659, 535.727 591.709, 536.650 592.034, 542.641 592.661, 546.382 592.922, 547.225 " fill="none" stroke="rgb(0, 0, 0)" stroke-linecap="butt" stroke-linejoin="round" stroke-opacity="1.0" stroke-width="3.0" />
            <path d=" M 589.881, 956.449 591.141, 955.734 591.699, 955.226 592.000, 954.951 594.336, 952.825 599.049, 948.443 600.206, 947.367 600.749, 946.989 604.401, 944.448 606.213, 941.403 607.247, 936.262 " fill="none" stroke="rgb(0, 0, 0)" stroke-linecap="butt" stroke-linejoin="round" stroke-opacity="1.0" stroke-width="3.0" />
            <path d=" M 736.991, 369.859 738.257, 363.425 739.080, 360.496 740.206, 356.490 741.679, 352.216 742.551, 347.547 743.154, 344.687 743.111, 342.825 " fill="none" stroke="rgb(0, 0, 0)" stroke-linecap="butt" stroke-linejoin="round" stroke-opacity="1.0" stroke-width="3.0" />
            <path d=" M 622.211, 341.318 620.993, 340.205 615.582, 338.271 612.662, 337.522 609.039, 336.855 606.381, 337.286 603.671, 340.281 604.246, 343.152 604.384, 345.422 604.514, 347.548 " fill="none" stroke="rgb(0, 0, 0)" stroke-linecap="butt" stroke-linejoin="round" stroke-opacity="1.0" stroke-width="3.0" />
            <path d=" M 716.859, 349.805 717.002, 349.638 717.491, 349.070 719.724, 346.475 720.960, 345.379 722.486, 344.025 724.856, 341.723 728.038, 338.761 731.509, 336.754 733.618, 335.135 736.264, 334.622 737.540, 334.737 737.179, 335.354 737.218, 336.786 " fill="none" stroke="rgb(0, 0, 0)" stroke-linecap="butt" stroke-linejoin="round" stroke-opacity="1.0" stroke-width="3.0" />
            <path d=" M 570.906, 672.398 569.586, 674.266 567.731, 677.320 563.903, 684.399 562.390, 691.046 563.580, 694.149 564.903, 695.011 566.206, 695.689 567.923, 695.416 " fill="none" stroke="rgb(0, 0, 0)" stroke-linecap="butt" stroke-linejoin="round" stroke-opacity="1.0" stroke-width="3.0" />
            <path d=" M 546.817, 852.543 547.001, 854.657 547.302, 858.107 546.854, 862.131 546.216, 865.439 544.703, 867.986 544.690, 868.006 543.333, 870.291 540.486, 873.149 539.649, 873.740 539.475, 873.863 539.425, 873.898 538.828, 874.320 538.819, 874.326 536.629, 875.872 536.496, 875.966 535.395, 876.744 " fill="none" stroke="rgb(0, 0, 0)" stroke-linecap="butt" stroke-linejoin="round" stroke-opacity="1.0" stroke-width="3.0" />
            <path d=" M 651.401, 314.012 648.606, 316.054 646.512, 313.202 645.533, 313.287 642.854, 313.519 640.369, 315.248 637.291, 317.017 635.755, 318.945 635.741, 319.470 635.741, 319.472 635.613, 324.425 635.764, 326.178 635.786, 326.440 635.729, 326.456 635.614, 326.488 634.084, 326.915 " fill="none" stroke="rgb(0, 0, 0)" stroke-linecap="butt" stroke-linejoin="round" stroke-opacity="1.0" stroke-width="3.0" />
            <path d=" M 623.724, 709.657 621.987, 719.505 621.772, 720.725 620.946, 726.709 623.028, 729.650 624.438, 735.876 624.830, 737.608 " fill="none" stroke="rgb(0, 0, 0)" stroke-linecap="butt" stroke-linejoin="round" stroke-opacity="1.0" stroke-width="3.0" />
            <path d=" M 656.619, 1019.726 657.253, 1019.650 662.956, 1018.963 670.080, 1016.580 678.855, 1016.029 685.470, 1016.103 " fill="none" stroke="rgb(0, 0, 0)" stroke-linecap="butt" stroke-linejoin="round" stroke-opacity="1.0" stroke-width="3.0" />
            <path d=" M 538.460, 969.803 541.124, 971.764 543.197, 973.290 547.992, 974.509 553.946, 973.673 556.948, 971.889 558.408, 970.801 559.055, 968.333 559.168, 967.900 558.917, 966.893 558.358, 964.658 558.182, 963.954 558.148, 963.816 558.162, 963.610 " fill="none" stroke="rgb(0, 0, 0)" stroke-linecap="butt" stroke-linejoin="round" stroke-opacity="1.0" stroke-width="3.0" />
            <path d=" M 539.621, 825.960 539.957, 827.183 541.692, 833.499 542.728, 836.584 543.188, 837.952 543.716, 840.022 543.791, 840.317 545.486, 846.962 545.808, 848.222 547.001, 854.657 " fill="none" stroke="rgb(0, 0, 0)" stroke-linecap="butt" stroke-linejoin="round" stroke-opacity="1.0" stroke-width="3.0" />
            <path d=" M 695.682, 350.583 695.589, 350.510 694.223, 349.441 693.413, 348.807 691.914, 347.634 689.444, 346.540 689.421, 346.530 689.361, 346.503 686.579, 345.271 682.672, 343.664 682.519, 343.727 680.361, 344.615 674.150, 346.949 673.062, 347.266 672.330, 347.480 671.247, 351.361 " fill="none" stroke="rgb(0, 0, 0)" stroke-linecap="butt" stroke-linejoin="round" stroke-opacity="1.0" stroke-width="3.0" />
            <path d=" M 605.827, 939.261 607.247, 936.262 608.625, 933.348 608.861, 931.431 608.391, 924.961 608.903, 918.179 608.913, 911.895 608.916, 909.646 " fill="none" stroke="rgb(0, 0, 0)" stroke-linecap="butt" stroke-linejoin="round" stroke-opacity="1.0" stroke-width="3.0" />
            <path d=" M 775.775, 800.932 776.012, 799.889 776.546, 797.537 777.671, 791.501 777.746, 791.098 777.807, 790.769 777.907, 790.235 778.435, 787.399 778.445, 787.350 778.449, 787.285 778.865, 781.289 778.757, 780.324 778.738, 780.149 778.715, 779.947 778.681, 779.647 778.627, 779.164 778.616, 779.067 778.536, 778.353 778.519, 778.198 778.465, 777.717 778.345, 776.646 778.342, 776.615 778.198, 775.336 777.199, 770.826 " fill="none" stroke="rgb(0, 0, 0)" stroke-linecap="butt" stroke-linejoin="round" stroke-opacity="1.0" stroke-width="3.0" />
            <path d=" M 703.207, 295.028 703.149, 292.724 703.049, 288.727 703.937, 284.333 702.852, 281.701 700.694, 278.730 698.099, 275.985 693.104, 274.023 689.223, 275.410 " fill="none" stroke="rgb(0, 0, 0)" stroke-linecap="butt" stroke-linejoin="round" stroke-opacity="1.0" stroke-width="3.0" />
            <path d=" M 661.181, 502.408 663.183, 502.791 664.038, 504.286 668.851, 512.703 664.117, 504.697 658.978, 503.319 656.638, 504.569 " fill="none" stroke="rgb(0, 0, 0)" stroke-linecap="butt" stroke-linejoin="round" stroke-opacity="1.0" stroke-width="3.0" />
            <path d=" M 837.952, 613.405 834.420, 606.200 830.732, 599.671 824.526, 592.348 820.230, 588.684 " fill="none" stroke="rgb(0, 0, 0)" stroke-linecap="butt" stroke-linejoin="round" stroke-opacity="1.0" stroke-width="3.0" />
            <path d=" M 609.230, 478.870 605.785, 480.162 602.637, 481.712 599.836, 486.316 598.709, 493.911 599.469, 497.587 600.238, 501.304 601.470, 502.364 602.738, 503.455 " fill="none" stroke="rgb(0, 0, 0)" stroke-linecap="butt" stroke-linejoin="round" stroke-opacity="1.0" stroke-width="3.0" />
            <path d=" M 548.664, 905.303 548.624, 905.563 548.535, 906.138 548.251, 907.986 547.986, 909.715 547.578, 910.921 545.875, 915.958 545.661, 916.445 545.617, 916.544 541.813, 925.173 541.747, 925.323 541.861, 924.002 542.829, 920.210 545.661, 916.445 " fill="none" stroke="rgb(0, 0, 0)" stroke-linecap="butt" stroke-linejoin="round" stroke-opacity="1.0" stroke-width="3.0" />
            <path d=" M 608.847, 791.713 609.499, 786.784 610.751, 777.332 610.805, 776.983 611.849, 770.194 612.113, 764.456 612.294, 760.497 " fill="none" stroke="rgb(0, 0, 0)" stroke-linecap="butt" stroke-linejoin="round" stroke-opacity="1.0" stroke-width="3.0" />
            <path d=" M 617.185, 428.802 616.861, 428.662 615.647, 428.134 612.512, 428.178 610.182, 429.750 609.433, 430.383 609.429, 430.385 608.672, 431.025 606.290, 435.560 606.249, 437.919 606.312, 443.157 606.834, 446.719 607.138, 448.389 607.153, 448.468 607.179, 448.612 607.232, 448.902 607.596, 450.902 608.206, 452.061 " fill="none" stroke="rgb(0, 0, 0)" stroke-linecap="butt" stroke-linejoin="round" stroke-opacity="1.0" stroke-width="3.0" />
            <path d=" M 729.295, 503.264 731.102, 498.133 732.493, 494.141 733.219, 487.882 731.658, 483.814 732.162, 479.959 732.146, 478.696 729.277, 476.004 727.112, 475.640 " fill="none" stroke="rgb(0, 0, 0)" stroke-linecap="butt" stroke-linejoin="round" stroke-opacity="1.0" stroke-width="3.0" />
            <path d=" M 720.960, 345.379 720.619, 345.171 717.426, 342.897 716.270, 341.708 715.220, 340.629 712.779, 335.062 712.406, 333.844 713.646, 327.207 713.697, 324.467 713.769, 320.597 714.169, 317.158 " fill="none" stroke="rgb(0, 0, 0)" stroke-linecap="butt" stroke-linejoin="round" stroke-opacity="1.0" stroke-width="3.0" />
            <path d=" M 504.134, 655.843 502.420, 661.971 502.320, 662.326 502.117, 663.055 501.870, 663.935 500.309, 668.473 498.118, 676.480 496.823, 684.791 496.505, 686.832 " fill="none" stroke="rgb(0, 0, 0)" stroke-linecap="butt" stroke-linejoin="round" stroke-opacity="1.0" stroke-width="3.0" />
            <path d=" M 732.573, 531.064 731.659, 523.358 731.631, 523.126 731.503, 522.044 731.503, 522.040 731.476, 521.814 731.336, 520.637 730.907, 518.530 729.809, 513.130 728.168, 506.076 728.155, 506.019 728.090, 505.739 727.548, 503.410 727.479, 503.113 726.902, 500.633 726.637, 499.494 " fill="none" stroke="rgb(0, 0, 0)" stroke-linecap="butt" stroke-linejoin="round" stroke-opacity="1.0" stroke-width="3.0" />
            <path d=" M 604.959, 429.403 603.996, 432.144 603.986, 432.185 603.924, 432.439 603.294, 435.048 602.668, 444.144 602.020, 449.361 599.915, 459.137 599.631, 460.457 599.581, 461.183 " fill="none" stroke="rgb(0, 0, 0)" stroke-linecap="butt" stroke-linejoin="round" stroke-opacity="1.0" stroke-width="3.0" />
            <path d=" M 746.378, 594.739 746.625, 593.769 746.698, 593.484 747.840, 589.000 747.886, 588.819 747.951, 588.564 748.261, 587.345 748.514, 579.885 748.573, 575.735 748.265, 575.056 748.107, 574.709 747.941, 574.343 747.798, 574.029 745.708, 569.432 741.930, 564.920 741.666, 564.722 " fill="none" stroke="rgb(0, 0, 0)" stroke-linecap="butt" stroke-linejoin="round" stroke-opacity="1.0" stroke-width="3.0" />
            <path d=" M 731.399, 514.295 730.251, 509.453 729.295, 503.264 728.881, 500.592 728.529, 497.818 727.487, 489.608 727.282, 487.177 726.544, 483.198 726.153, 482.280 725.911, 481.713 725.848, 481.564 " fill="none" stroke="rgb(0, 0, 0)" stroke-linecap="butt" stroke-linejoin="round" stroke-opacity="1.0" stroke-width="3.0" />
            <path d=" M 606.291, 386.466 605.581, 390.804 605.430, 396.611 605.073, 406.604 605.030, 407.804 605.041, 413.051 605.102, 419.762 " fill="none" stroke="rgb(0, 0, 0)" stroke-linecap="butt" stroke-linejoin="round" stroke-opacity="1.0" stroke-width="3.0" />
            <path d=" M 739.897, 1004.373 741.281, 1004.281 741.651, 1004.256 744.288, 1003.526 746.444, 1002.903 748.901, 1000.267 749.684, 998.750 751.501, 996.113 753.081, 993.916 755.515, 990.817 757.730, 988.291 759.731, 986.682 761.691, 984.113 763.541, 982.303 " fill="none" stroke="rgb(0, 0, 0)" stroke-linecap="butt" stroke-linejoin="round" stroke-opacity="1.0" stroke-width="3.0" />
            <path d=" M 739.078, 548.285 740.580, 544.036 741.239, 539.735 741.511, 537.954 741.581, 537.496 741.728, 536.536 742.278, 532.947 740.955, 525.328 740.063, 523.731 739.383, 522.515 737.173, 520.357 734.176, 518.623 732.667, 518.580 " fill="none" stroke="rgb(0, 0, 0)" stroke-linecap="butt" stroke-linejoin="round" stroke-opacity="1.0" stroke-width="3.0" />
            <path d=" M 876.264, 790.344 876.605, 783.951 876.634, 783.410 876.649, 783.140 876.650, 783.114 876.996, 776.646 876.463, 774.021 875.810, 770.802 874.571, 766.462 872.979, 761.921 871.555, 756.908 871.255, 755.850 " fill="none" stroke="rgb(0, 0, 0)" stroke-linecap="butt" stroke-linejoin="round" stroke-opacity="1.0" stroke-width="3.0" />
            <path d=" M 853.687, 807.486 852.408, 809.753 849.270, 813.294 841.973, 817.771 835.839, 819.529 829.535, 819.772 826.032, 818.599 822.970, 817.421 " fill="none" stroke="rgb(0, 0, 0)" stroke-linecap="butt" stroke-linejoin="round" stroke-opacity="1.0" stroke-width="3.0" />
            <path d=" M 642.624, 303.523 641.298, 302.174 641.045, 301.917 640.449, 301.310 639.408, 300.377 637.960, 299.078 636.324, 298.175 634.214, 298.306 631.919, 299.530 630.133, 302.236 629.417, 303.961 629.363, 305.475 629.216, 310.471 631.244, 314.373 631.891, 315.167 632.252, 315.611 633.727, 317.244 633.826, 317.353 635.741, 319.472 " fill="none" stroke="rgb(0, 0, 0)" stroke-linecap="butt" stroke-linejoin="round" stroke-opacity="1.0" stroke-width="3.0" />
            <path d=" M 804.078, 664.257 804.641, 665.632 807.033, 667.813 811.898, 670.326 812.940, 671.530 817.978, 675.574 821.114, 678.953 822.808, 680.870 826.071, 684.992 828.077, 687.789 828.086, 687.801 828.301, 688.100 828.871, 688.896 829.132, 689.259 " fill="none" stroke="rgb(0, 0, 0)" stroke-linecap="butt" stroke-linejoin="round" stroke-opacity="1.0" stroke-width="3.0" />
            <path d=" M 673.875, 521.206 675.383, 524.848 675.941, 526.198 679.765, 535.438 680.571, 537.387 681.081, 539.295 682.504, 544.619 684.440, 551.867 685.360, 555.306 " fill="none" stroke="rgb(0, 0, 0)" stroke-linecap="butt" stroke-linejoin="round" stroke-opacity="1.0" stroke-width="3.0" />
            <path d=" M 703.855, 687.127 704.465, 689.454 705.302, 692.645 705.316, 692.700 705.506, 693.425 705.932, 695.048 705.968, 695.185 706.655, 697.808 707.227, 702.307 708.489, 712.228 708.573, 712.888 709.688, 717.324 710.553, 720.768 710.980, 722.465 " fill="none" stroke="rgb(0, 0, 0)" stroke-linecap="butt" stroke-linejoin="round" stroke-opacity="1.0" stroke-width="3.0" />
            <path d=" M 529.413, 923.823 528.559, 926.574 528.492, 926.787 528.484, 926.815 528.119, 927.989 528.248, 935.502 528.365, 935.945 530.924, 945.612 531.085, 946.219 533.617, 952.948 534.573, 955.100 536.121, 958.587 " fill="none" stroke="rgb(0, 0, 0)" stroke-linecap="butt" stroke-linejoin="round" stroke-opacity="1.0" stroke-width="3.0" />
            <path d=" M 733.649, 411.518 736.182, 409.160 737.361, 406.343 737.451, 404.859 737.609, 402.244 736.484, 400.464 736.288, 400.153 736.086, 395.672 733.956, 393.014 732.610, 391.668 729.959, 391.193 729.055, 391.165 727.099, 392.247 726.911, 392.351 726.380, 394.272 726.162, 395.060 725.739, 396.587 725.514, 397.401 724.903, 399.609 " fill="none" stroke="rgb(0, 0, 0)" stroke-linecap="butt" stroke-linejoin="round" stroke-opacity="1.0" stroke-width="3.0" />
            <path d=" M 581.032, 987.164 581.915, 987.193 589.361, 986.303 591.131, 985.584 592.841, 984.889 596.560, 983.703 599.402, 981.405 600.303, 980.676 603.154, 979.336 603.420, 979.211 603.659, 978.885 603.698, 978.831 603.759, 978.748 605.831, 975.916 607.853, 973.154 607.973, 972.989 608.075, 972.850 608.085, 972.836 608.289, 972.557 609.872, 970.395 610.632, 969.356 " fill="none" stroke="rgb(0, 0, 0)" stroke-linecap="butt" stroke-linejoin="round" stroke-opacity="1.0" stroke-width="3.0" />
            <path d=" M 769.026, 612.500 767.913, 611.020 767.835, 610.918 767.793, 610.862 767.256, 610.148 766.901, 609.675 766.417, 609.033 766.368, 608.967 766.416, 608.910 766.691, 608.581 766.736, 608.528 767.167, 608.013 769.968, 607.234 773.321, 604.077 774.604, 602.019 775.182, 599.839 774.847, 593.724 773.671, 589.799 773.663, 589.772 773.609, 589.594 773.597, 589.554 773.545, 589.381 773.543, 589.131 773.543, 589.118 773.543, 589.086 773.539, 588.654 773.525, 587.095 773.519, 586.422 773.519, 586.400 773.495, 583.760 773.471, 582.834 773.438, 581.592 773.434, 581.436 773.432, 581.357 " fill="none" stroke="rgb(0, 0, 0)" stroke-linecap="butt" stroke-linejoin="round" stroke-opacity="1.0" stroke-width="3.0" />
            <path d=" M 784.448, 953.123 785.292, 954.226 785.533, 955.822 785.166, 957.225 785.212, 957.384 785.357, 957.877 785.381, 957.957 785.415, 958.073 785.929, 959.825 786.206, 960.766 792.506, 963.598 797.573, 962.659 800.064, 960.924 802.977, 956.434 805.836, 950.045 806.160, 948.561 " fill="none" stroke="rgb(0, 0, 0)" stroke-linecap="butt" stroke-linejoin="round" stroke-opacity="1.0" stroke-width="3.0" />
            <path d=" M 739.416, 424.152 739.401, 422.980 739.886, 413.481 739.905, 408.278 739.748, 398.280 739.745, 398.088 739.714, 392.883 738.809, 387.035 " fill="none" stroke="rgb(0, 0, 0)" stroke-linecap="butt" stroke-linejoin="round" stroke-opacity="1.0" stroke-width="3.0" />
            <path d=" M 567.606, 963.688 567.570, 963.732 566.240, 965.348 565.024, 966.827 565.055, 967.785 565.318, 969.482 565.435, 970.243 565.253, 973.041 565.846, 975.572 568.490, 981.865 569.682, 983.966 572.461, 986.040 576.370, 987.360 579.988, 987.450 581.032, 987.164 584.008, 986.351 " fill="none" stroke="rgb(0, 0, 0)" stroke-linecap="butt" stroke-linejoin="round" stroke-opacity="1.0" stroke-width="3.0" />
            <path d=" M 609.793, 901.314 610.080, 899.176 609.006, 889.233 608.200, 881.770 606.731, 871.879 606.628, 871.185 605.532, 863.801 " fill="none" stroke="rgb(0, 0, 0)" stroke-linecap="butt" stroke-linejoin="round" stroke-opacity="1.0" stroke-width="3.0" />
            <path d=" M 604.557, 965.183 604.892, 964.616 605.820, 963.051 612.162, 957.350 615.282, 954.478 620.201, 949.952 627.142, 942.753 630.944, 938.810 631.738, 937.986 " fill="none" stroke="rgb(0, 0, 0)" stroke-linecap="butt" stroke-linejoin="round" stroke-opacity="1.0" stroke-width="3.0" />
            <path d=" M 711.705, 318.600 711.935, 318.466 712.115, 318.361 712.271, 318.269 712.300, 318.252 714.169, 317.158 714.640, 316.882 718.200, 313.866 719.913, 310.245 720.408, 307.517 720.401, 306.240 719.694, 302.226 717.831, 300.122 714.430, 300.412 711.446, 298.803 709.296, 298.897 707.175, 300.152 707.091, 300.202 707.050, 300.226 705.431, 301.184 705.387, 301.227 703.761, 302.775 " fill="none" stroke="rgb(0, 0, 0)" stroke-linecap="butt" stroke-linejoin="round" stroke-opacity="1.0" stroke-width="3.0" />
            <path d=" M 499.980, 734.219 501.123, 730.880 501.309, 730.339 501.326, 730.289 501.672, 729.278 501.702, 729.190 501.800, 728.969 501.890, 728.766 502.259, 727.933 506.264, 718.894 507.717, 715.613 512.101, 706.625 516.021, 698.586 " fill="none" stroke="rgb(0, 0, 0)" stroke-linecap="butt" stroke-linejoin="round" stroke-opacity="1.0" stroke-width="3.0" />
            <path d=" M 548.136, 656.940 548.946, 654.986 552.250, 647.010 555.548, 641.915 558.272, 639.716 561.898, 637.509 566.512, 636.872 570.327, 637.621 574.588, 639.703 575.679, 640.619 " fill="none" stroke="rgb(0, 0, 0)" stroke-linecap="butt" stroke-linejoin="round" stroke-opacity="1.0" stroke-width="3.0" />
            <path d=" M 773.727, 868.326 773.522, 869.334 773.500, 869.443 771.502, 879.313 770.732, 884.411 769.799, 890.582 768.891, 896.596 769.377, 892.884 769.677, 890.556 770.295, 885.752 " fill="none" stroke="rgb(0, 0, 0)" stroke-linecap="butt" stroke-linejoin="round" stroke-opacity="1.0" stroke-width="3.0" />
            <path d=" M 630.967, 710.740 631.040, 707.293 631.195, 699.878 633.685, 690.193 634.590, 686.672 640.238, 679.574 640.728, 678.959 641.594, 678.271 642.321, 677.694 642.853, 677.272 642.990, 677.164 644.302, 676.122 645.218, 675.395 " fill="none" stroke="rgb(0, 0, 0)" stroke-linecap="butt" stroke-linejoin="round" stroke-opacity="1.0" stroke-width="3.0" />
            <path d=" M 750.125, 475.374 748.175, 472.995 747.944, 472.713 747.589, 472.280 747.492, 472.161 747.268, 471.888 745.575, 469.518 746.363, 468.356 746.377, 468.335 746.576, 468.040 746.825, 467.673 747.305, 466.965 747.778, 466.340 747.985, 466.067 747.993, 466.056 748.104, 465.909 748.171, 465.821 748.179, 465.810 748.287, 465.667 748.280, 464.626 748.278, 464.294 748.142, 464.114 747.300, 462.996 747.288, 462.980 747.177, 462.833 747.035, 462.644 746.410, 461.814 746.350, 461.750 744.408, 459.672 744.343, 459.603 744.339, 459.599 744.322, 459.581 743.612, 458.821 737.253, 457.837 736.567, 458.229 733.783, 459.822 731.914, 462.400 731.797, 467.461 731.921, 468.732 " fill="none" stroke="rgb(0, 0, 0)" stroke-linecap="butt" stroke-linejoin="round" stroke-opacity="1.0" stroke-width="3.0" />
            <path d=" M 635.614, 326.488 632.436, 323.886 632.413, 323.867 631.832, 323.391 631.752, 323.326 631.668, 323.256 631.538, 323.150 628.971, 323.930 626.656, 324.526 625.631, 326.676 624.342, 328.185 622.911, 334.302 622.258, 339.253 622.211, 341.318 622.089, 346.655 622.875, 349.478 623.097, 349.923 623.152, 350.032 623.186, 350.100 623.666, 351.058 625.087, 353.899 " fill="none" stroke="rgb(0, 0, 0)" stroke-linecap="butt" stroke-linejoin="round" stroke-opacity="1.0" stroke-width="3.0" />
            <path d=" M 726.955, 384.745 729.088, 381.568 731.974, 377.049 732.759, 368.134 731.924, 365.847 727.027, 362.143 722.831, 360.332 721.993, 360.183 719.828, 359.798 719.709, 359.777 717.450, 359.376 719.694, 359.638 719.805, 359.651 721.451, 359.843 721.993, 360.183 " fill="none" stroke="rgb(0, 0, 0)" stroke-linecap="butt" stroke-linejoin="round" stroke-opacity="1.0" stroke-width="3.0" />
            <path d=" M 643.595, 1017.443 644.750, 1016.434 645.616, 1015.678 645.738, 1015.571 645.981, 1015.332 646.960, 1014.368 647.172, 1014.047 648.538, 1011.984 650.772, 1008.935 654.122, 1004.773 658.357, 999.504 659.208, 998.444 661.041, 996.162 661.588, 995.477 662.088, 994.850 662.851, 994.511 663.019, 994.436 663.049, 994.423 663.102, 994.399 663.240, 994.339 663.568, 994.193 663.573, 994.190 664.812, 993.641 664.915, 993.595 664.997, 993.558 665.243, 993.449 665.507, 993.332 668.200, 992.137 673.240, 990.708 673.648, 990.619 " fill="none" stroke="rgb(0, 0, 0)" stroke-linecap="butt" stroke-linejoin="round" stroke-opacity="1.0" stroke-width="3.0" />
            <path d=" M 804.214, 952.328 805.323, 950.182 806.160, 948.561 806.808, 947.306 807.062, 946.815 807.544, 945.882 808.271, 943.700 808.316, 943.566 808.505, 942.999 809.278, 940.680 809.309, 940.584 810.170, 938.002 810.674, 935.882 810.800, 935.349 810.806, 935.326 811.285, 933.309 811.347, 933.049 812.100, 929.878 813.267, 921.387 813.255, 920.350 813.183, 913.999 812.437, 912.852 811.496, 912.203 " fill="none" stroke="rgb(0, 0, 0)" stroke-linecap="butt" stroke-linejoin="round" stroke-opacity="1.0" stroke-width="3.0" />
            <path d=" M 624.438, 735.876 624.290, 738.795 623.209, 746.686 621.602, 755.040 620.615, 761.325 622.233, 765.322 623.589, 769.451 625.783, 770.354 627.495, 772.963 628.935, 775.157 " fill="none" stroke="rgb(0, 0, 0)" stroke-linecap="butt" stroke-linejoin="round" stroke-opacity="1.0" stroke-width="3.0" />
            <path d=" M 609.704, 359.473 608.658, 359.557 606.231, 359.750 606.184, 359.754 604.984, 360.128 601.018, 362.522 599.381, 364.065 596.690, 366.812 594.721, 370.516 593.368, 376.235 595.547, 378.212 598.673, 379.497 602.652, 383.025 605.985, 386.202 606.291, 386.466 606.413, 386.570 606.559, 386.696 606.648, 386.772 " fill="none" stroke="rgb(0, 0, 0)" stroke-linecap="butt" stroke-linejoin="round" stroke-opacity="1.0" stroke-width="3.0" />
            <path d=" M 663.674, 271.924 659.845, 275.124 658.303, 276.413 655.055, 275.331 653.023, 275.178 648.962, 277.521 645.153, 281.588 643.398, 283.934 642.771, 287.969 642.556, 293.924 639.408, 300.377 " fill="none" stroke="rgb(0, 0, 0)" stroke-linecap="butt" stroke-linejoin="round" stroke-opacity="1.0" stroke-width="3.0" />
            <path d=" M 837.495, 876.685 838.649, 875.484 843.435, 870.501 846.008, 865.666 845.908, 862.101 843.618, 858.600 842.291, 857.552 840.950, 857.059 836.966, 857.430 833.330, 857.826 830.654, 858.335 823.345, 859.803 822.478, 859.977 " fill="none" stroke="rgb(0, 0, 0)" stroke-linecap="butt" stroke-linejoin="round" stroke-opacity="1.0" stroke-width="3.0" />
            <path d=" M 520.213, 876.988 520.105, 876.944 510.844, 873.172 510.115, 872.875 508.110, 872.213 502.955, 871.754 501.576, 872.239 501.030, 872.430 498.651, 873.266 497.414, 873.701 494.800, 877.553 494.690, 878.642 494.941, 880.852 495.436, 882.421 496.891, 886.983 500.699, 890.822 " fill="none" stroke="rgb(0, 0, 0)" stroke-linecap="butt" stroke-linejoin="round" stroke-opacity="1.0" stroke-width="3.0" />
            <path d=" M 672.128, 990.558 673.648, 990.619 676.186, 990.721 679.285, 990.565 684.902, 991.439 687.315, 992.432 689.502, 993.333 689.581, 993.365 689.593, 993.370 689.593, 993.370 690.131, 993.592 690.718, 994.081 690.725, 994.087 691.316, 994.581 691.347, 994.607 692.731, 995.762 693.105, 996.074 698.016, 1000.172 702.099, 1005.861 705.943, 1010.663 707.021, 1011.928 707.143, 1012.071 707.289, 1012.242 " fill="none" stroke="rgb(0, 0, 0)" stroke-linecap="butt" stroke-linejoin="round" stroke-opacity="1.0" stroke-width="3.0" />
            <path d=" M 599.469, 497.587 595.905, 495.670 592.524, 495.173 592.463, 495.164 592.261, 495.134 592.241, 495.131 591.963, 495.090 591.802, 495.067 591.595, 495.036 587.660, 497.676 587.288, 498.389 585.681, 501.467 584.768, 503.217 583.249, 507.358 582.987, 508.253 582.984, 508.264 582.806, 508.880 582.771, 509.003 581.935, 511.909 581.807, 512.355 581.599, 513.080 581.583, 513.133 581.376, 513.854 580.088, 518.335 579.530, 520.275 579.846, 524.684 581.188, 527.430 581.415, 527.742 " fill="none" stroke="rgb(0, 0, 0)" stroke-linecap="butt" stroke-linejoin="round" stroke-opacity="1.0" stroke-width="3.0" />
            <path d=" M 588.731, 489.158 584.159, 494.797 581.626, 498.518 580.256, 500.531 577.596, 509.042 577.553, 509.178 577.536, 509.233 576.760, 511.716 574.728, 515.804 574.509, 516.275 571.991, 524.525 570.664, 529.417 570.504, 530.717 " fill="none" stroke="rgb(0, 0, 0)" stroke-linecap="butt" stroke-linejoin="round" stroke-opacity="1.0" stroke-width="3.0" />
            <path d=" M 567.401, 546.552 566.588, 551.984 565.733, 557.689 565.059, 567.667 564.776, 571.844 565.706, 580.740 566.125, 584.303 566.132, 584.366 566.486, 587.378 566.823, 592.930 " fill="none" stroke="rgb(0, 0, 0)" stroke-linecap="butt" stroke-linejoin="round" stroke-opacity="1.0" stroke-width="3.0" />
            <path d=" M 746.378, 460.047 745.852, 458.416 744.668, 454.211 743.828, 446.451 743.368, 443.247 742.517, 437.777 741.108, 431.670 739.887, 426.870 739.416, 424.152 738.975, 421.606 738.915, 420.909 738.880, 420.502 738.875, 420.447 738.847, 420.118 738.328, 414.087 " fill="none" stroke="rgb(0, 0, 0)" stroke-linecap="butt" stroke-linejoin="round" stroke-opacity="1.0" stroke-width="3.0" />
            <path d=" M 727.211, 905.117 727.508, 910.857 728.021, 919.157 727.740, 920.856 727.622, 921.566 727.570, 925.394 727.565, 925.798 727.512, 929.634 727.509, 929.860 727.525, 930.021 727.558, 930.366 727.606, 930.866 727.624, 931.051 727.702, 931.850 727.801, 932.883 729.313, 935.444 729.453, 935.681 730.179, 936.911 730.483, 937.377 730.701, 937.713 730.980, 938.141 732.663, 940.724 733.855, 943.426 736.620, 945.742 737.560, 946.531 738.359, 947.199 739.230, 947.930 740.207, 948.748 " fill="none" stroke="rgb(0, 0, 0)" stroke-linecap="butt" stroke-linejoin="round" stroke-opacity="1.0" stroke-width="3.0" />
            <path d=" M 689.444, 346.540 691.706, 342.863 692.550, 341.492 693.276, 338.539 693.296, 335.262 693.443, 332.128 689.518, 327.347 687.472, 326.063 679.703, 321.081 677.269, 322.297 673.992, 323.934 672.976, 323.659 667.686, 322.228 666.362, 322.322 664.529, 322.453 664.140, 322.481 " fill="none" stroke="rgb(0, 0, 0)" stroke-linecap="butt" stroke-linejoin="round" stroke-opacity="1.0" stroke-width="3.0" />
            <path d=" M 512.828, 704.443 516.021, 698.586 518.785, 693.518 520.500, 690.469 520.875, 689.802 520.886, 689.783 520.888, 689.780 520.889, 689.778 521.199, 689.226 521.220, 689.190 521.483, 688.723 525.242, 682.041 527.817, 678.736 530.257, 676.194 533.216, 672.638 534.179, 671.854 535.958, 670.651 537.585, 668.977 539.875, 667.421 542.315, 664.204 " fill="none" stroke="rgb(0, 0, 0)" stroke-linecap="butt" stroke-linejoin="round" stroke-opacity="1.0" stroke-width="3.0" />
            <path d=" M 728.430, 861.194 728.214, 871.191 728.139, 874.662 728.031, 884.661 728.008, 886.850 727.356, 896.829 727.035, 901.735 727.151, 904.856 727.211, 905.117 728.731, 911.814 " fill="none" stroke="rgb(0, 0, 0)" stroke-linecap="butt" stroke-linejoin="round" stroke-opacity="1.0" stroke-width="3.0" />
            <path d=" M 490.594, 787.741 490.378, 786.193 490.373, 786.033 490.209, 779.887 490.574, 776.900 490.603, 772.135 490.606, 771.767 491.373, 768.597 493.230, 760.920 495.791, 751.700 498.015, 741.951 498.628, 739.264 499.083, 737.269 " fill="none" stroke="rgb(0, 0, 0)" stroke-linecap="butt" stroke-linejoin="round" stroke-opacity="1.0" stroke-width="3.0" />
            <path d=" M 501.533, 729.916 503.020, 727.782 505.803, 723.788 508.102, 719.324 511.158, 715.756 513.101, 713.759 513.595, 713.627 517.845, 710.847 520.336, 707.004 522.876, 705.609 524.972, 704.244 526.714, 702.901 528.405, 700.488 528.982, 698.859 527.814, 696.838 523.040, 691.973 " fill="none" stroke="rgb(0, 0, 0)" stroke-linecap="butt" stroke-linejoin="round" stroke-opacity="1.0" stroke-width="3.0" />
            <path d=" M 791.577, 967.192 791.662, 967.196 794.788, 967.333 801.692, 965.247 804.775, 963.577 809.442, 961.088 810.804, 960.357 814.847, 956.891 817.509, 953.900 820.051, 950.528 821.470, 942.417 822.201, 937.626 822.921, 931.276 " fill="none" stroke="rgb(0, 0, 0)" stroke-linecap="butt" stroke-linejoin="round" stroke-opacity="1.0" stroke-width="3.0" />
            <path d=" M 577.596, 509.042 575.759, 510.384 571.298, 519.334 570.818, 520.298 568.342, 528.732 566.605, 538.581 566.158, 541.119 565.763, 545.177 563.356, 554.524 562.251, 557.601 561.454, 559.819 " fill="none" stroke="rgb(0, 0, 0)" stroke-linecap="butt" stroke-linejoin="round" stroke-opacity="1.0" stroke-width="3.0" />
            <path d=" M 828.077, 687.789 824.900, 690.927 822.367, 693.928 822.097, 697.125 824.352, 700.535 828.473, 701.966 831.969, 706.235 835.393, 709.182 839.067, 712.116 844.103, 720.014 844.958, 722.475 846.515, 725.531 848.712, 730.060 " fill="none" stroke="rgb(0, 0, 0)" stroke-linecap="butt" stroke-linejoin="round" stroke-opacity="1.0" stroke-width="3.0" />
            <path d=" M 774.685, 846.650 774.688, 846.501 774.695, 846.228 774.696, 846.203 774.742, 844.441 774.775, 843.152 774.785, 842.781 774.797, 842.319 774.800, 842.215 774.800, 842.213 774.838, 840.734 774.653, 831.471 774.972, 824.338 774.992, 814.650 774.709, 808.467 775.256, 804.605 775.620, 802.027 775.726, 801.284 775.734, 801.222 775.775, 800.932 775.928, 799.855 775.942, 799.753 777.293, 792.264 777.452, 791.383 " fill="none" stroke="rgb(0, 0, 0)" stroke-linecap="butt" stroke-linejoin="round" stroke-opacity="1.0" stroke-width="3.0" />
            <path d=" M 705.335, 924.789 707.635, 930.278 707.922, 930.986 712.116, 933.922 712.213, 933.980 712.360, 934.067 712.708, 934.274 712.820, 934.341 719.840, 938.518 727.278, 945.202 730.454, 948.055 734.956, 951.391 738.064, 953.973 739.255, 954.962 739.492, 955.158 740.409, 955.920 745.624, 961.706 " fill="none" stroke="rgb(0, 0, 0)" stroke-linecap="butt" stroke-linejoin="round" stroke-opacity="1.0" stroke-width="3.0" />
            <path d=" M 777.779, 693.554 784.588, 694.224 785.276, 694.146 786.892, 692.900 786.809, 690.457 786.306, 686.472 786.697, 685.653 785.922, 683.149 784.802, 679.924 780.331, 674.193 778.706, 671.687 775.007, 666.850 772.011, 661.422 767.754, 655.944 765.235, 653.679 " fill="none" stroke="rgb(0, 0, 0)" stroke-linecap="butt" stroke-linejoin="round" stroke-opacity="1.0" stroke-width="3.0" />
            <path d=" M 848.253, 664.285 848.444, 654.286 848.466, 653.162 848.004, 646.187 847.210, 640.706 845.806, 634.425 845.173, 631.852 842.735, 623.815 840.214, 617.677 837.952, 613.405 836.135, 609.972 " fill="none" stroke="rgb(0, 0, 0)" stroke-linecap="butt" stroke-linejoin="round" stroke-opacity="1.0" stroke-width="3.0" />
            <path d=" M 603.757, 447.247 602.606, 452.565 600.814, 459.866 599.436, 463.645 599.407, 463.725 598.903, 465.108 598.487, 466.997 597.081, 472.583 594.821, 478.682 594.574, 479.349 593.648, 480.121 590.401, 485.367 584.355, 493.333 582.260, 496.094 581.626, 498.518 " fill="none" stroke="rgb(0, 0, 0)" stroke-linecap="butt" stroke-linejoin="round" stroke-opacity="1.0" stroke-width="3.0" />
            <path d=" M 811.297, 796.313 813.344, 796.229 813.982, 795.296 815.417, 793.077 816.022, 791.494 818.060, 786.024 818.099, 781.377 816.274, 771.545 816.215, 771.229 814.064, 764.925 812.655, 760.920 812.369, 759.581 811.362, 757.428 810.131, 753.346 809.629, 752.282 807.763, 749.671 806.378, 747.983 804.199, 746.059 804.123, 746.021 " fill="none" stroke="rgb(0, 0, 0)" stroke-linecap="butt" stroke-linejoin="round" stroke-opacity="1.0" stroke-width="3.0" />
            <path d=" M 644.302, 676.122 647.555, 674.519 653.364, 672.662 657.840, 672.084 660.136, 673.610 662.632, 674.799 663.858, 674.239 665.877, 671.658 670.606, 670.327 674.749, 668.631 678.456, 671.165 683.046, 671.866 684.663, 671.626 686.709, 670.400 688.055, 669.594 688.757, 669.581 692.188, 669.517 697.761, 670.576 " fill="none" stroke="rgb(0, 0, 0)" stroke-linecap="butt" stroke-linejoin="round" stroke-opacity="1.0" stroke-width="3.0" />
            <path d=" M 753.142, 654.188 753.118, 652.949 753.052, 649.609 752.907, 647.437 752.717, 644.608 751.602, 640.506 751.573, 640.076 751.515, 639.208 751.504, 639.052 751.496, 638.927 751.249, 635.253 751.038, 632.119 751.022, 631.880 750.646, 626.275 750.303, 622.650 750.221, 621.774 750.215, 621.715 749.599, 615.193 749.422, 613.328 749.378, 612.857 749.339, 612.443 748.655, 610.069 748.437, 609.312 748.163, 608.361 748.101, 608.146 748.089, 608.106 747.958, 607.650 747.874, 607.357 747.488, 605.901 747.087, 604.383 746.551, 602.359 746.341, 601.566 746.167, 600.906 746.079, 600.575 746.077, 600.566 745.410, 598.045 745.393, 597.980 745.025, 596.590 " fill="none" stroke="rgb(0, 0, 0)" stroke-linecap="butt" stroke-linejoin="round" stroke-opacity="1.0" stroke-width="3.0" />
            <path d=" M 615.916, 386.242 614.929, 389.571 613.953, 395.727 613.965, 396.257 613.996, 397.670 614.018, 398.629 614.047, 399.194 614.238, 402.844 614.339, 404.799 616.113, 414.641 616.260, 415.456 616.305, 415.710 616.369, 416.361 616.518, 417.882 617.255, 425.401 617.189, 428.621 617.185, 428.802 617.177, 429.211 617.056, 435.073 617.667, 442.795 617.790, 444.343 " fill="none" stroke="rgb(0, 0, 0)" stroke-linecap="butt" stroke-linejoin="round" stroke-opacity="1.0" stroke-width="3.0" />
            <path d=" M 739.312, 963.720 739.530, 963.993 739.901, 964.455 740.442, 965.131 741.351, 966.266 741.747, 966.760 741.833, 966.861 743.227, 968.493 743.381, 968.673 743.429, 968.730 746.632, 972.478 747.805, 973.851 749.708, 975.473 749.814, 975.563 749.848, 975.592 750.336, 976.008 751.375, 976.893 754.752, 979.144 761.829, 982.033 763.541, 982.303 769.250, 983.203 776.172, 983.825 780.311, 981.925 782.432, 980.114 783.943, 978.663 785.392, 977.159 785.845, 974.134 " fill="none" stroke="rgb(0, 0, 0)" stroke-linecap="butt" stroke-linejoin="round" stroke-opacity="1.0" stroke-width="3.0" />
            <path d=" M 806.049, 861.678 801.648, 859.281 799.856, 858.305 798.385, 857.504 797.739, 856.575 794.943, 852.555 794.065, 849.640 793.388, 846.482 793.358, 839.926 795.384, 831.703 796.251, 828.354 796.271, 828.275 796.351, 827.966 797.367, 824.041 797.391, 823.947 798.233, 820.695 798.236, 820.682 798.237, 820.678 798.289, 820.480 798.354, 820.260 798.414, 820.055 799.085, 817.778 799.397, 814.515 799.870, 809.577 799.913, 809.126 " fill="none" stroke="rgb(0, 0, 0)" stroke-linecap="butt" stroke-linejoin="round" stroke-opacity="1.0" stroke-width="3.0" />
            <path d=" M 566.904, 710.172 566.345, 714.494 565.044, 724.409 564.554, 728.147 563.565, 738.098 563.506, 738.688 562.942, 748.672 562.661, 753.640 562.487, 756.712 561.817, 761.917 561.744, 762.483 561.743, 762.496 561.734, 762.618 561.402, 766.956 561.401, 766.976 561.136, 770.438 561.128, 770.542 560.943, 772.969 " fill="none" stroke="rgb(0, 0, 0)" stroke-linecap="butt" stroke-linejoin="round" stroke-opacity="1.0" stroke-width="3.0" />
            <path d=" M 740.141, 579.293 740.094, 579.012 740.062, 578.820 739.769, 577.081 739.763, 577.048 739.371, 574.716 738.549, 571.177 737.913, 568.437 736.552, 562.577 736.310, 561.536 735.817, 559.411 735.456, 557.856 734.753, 554.645 734.715, 554.474 734.426, 553.153 733.925, 549.876 733.554, 547.449 732.849, 542.839 732.590, 541.152 731.482, 531.213 731.094, 527.739 730.903, 526.805 730.807, 526.339 730.552, 525.094 730.279, 523.767 730.246, 523.603 730.213, 523.442 729.409, 519.525 729.195, 518.481 728.926, 517.166 728.838, 516.738 " fill="none" stroke="rgb(0, 0, 0)" stroke-linecap="butt" stroke-linejoin="round" stroke-opacity="1.0" stroke-width="3.0" />
            <path d=" M 789.817, 882.863 788.822, 872.924 788.758, 867.136 788.298, 863.770 788.200, 863.056 788.182, 862.922 787.726, 859.591 787.719, 859.537 787.241, 856.041 786.814, 850.401 785.847, 843.786 785.479, 841.274 781.765, 832.925 778.195, 823.584 777.244, 821.095 " fill="none" stroke="rgb(0, 0, 0)" stroke-linecap="butt" stroke-linejoin="round" stroke-opacity="1.0" stroke-width="3.0" />
            <path d=" M 715.008, 446.206 715.089, 445.523 716.257, 435.592 716.523, 433.336 717.351, 425.081 717.755, 416.185 718.542, 409.840 718.839, 402.908 718.781, 399.638 718.633, 391.365 717.187, 382.845 " fill="none" stroke="rgb(0, 0, 0)" stroke-linecap="butt" stroke-linejoin="round" stroke-opacity="1.0" stroke-width="3.0" />
            <path d=" M 708.914, 359.543 711.080, 353.574 711.471, 347.585 711.566, 346.112 710.604, 338.800 708.854, 331.411 703.961, 326.103 702.620, 325.209 699.007, 326.185 696.964, 334.992 695.223, 341.107 694.748, 346.781 694.223, 349.441 " fill="none" stroke="rgb(0, 0, 0)" stroke-linecap="butt" stroke-linejoin="round" stroke-opacity="1.0" stroke-width="3.0" />
            <path d=" M 736.628, 454.953 738.949, 451.133 739.944, 449.494 740.507, 444.865 740.691, 443.350 740.765, 442.004 740.925, 439.088 741.082, 434.520 739.811, 430.753 739.554, 430.317 739.493, 430.214 739.489, 430.207 739.306, 429.896 739.296, 429.879 739.291, 429.871 739.291, 429.870 739.290, 429.869 739.223, 429.754 739.214, 429.740 738.200, 428.017 737.066, 425.835 736.855, 425.430 736.394, 424.964 733.771, 423.678 732.358, 423.300 730.341, 423.361 729.952, 423.373 728.580, 423.562 726.963, 424.617 725.595, 426.373 724.910, 427.768 724.973, 432.960 726.306, 437.780 727.476, 444.946 728.221, 446.776 729.359, 448.457 " fill="none" stroke="rgb(0, 0, 0)" stroke-linecap="butt" stroke-linejoin="round" stroke-opacity="1.0" stroke-width="3.0" />
            <path d=" M 738.594, 428.665 738.487, 426.432 738.419, 424.996 738.353, 423.616 737.764, 421.270 737.547, 413.908 737.546, 413.867 738.298, 407.907 738.306, 407.843 738.305, 407.820 738.126, 402.268 737.563, 397.423 738.151, 388.011 739.146, 383.212 740.729, 375.577 740.631, 368.597 740.591, 365.977 739.329, 361.351 739.080, 360.496 " fill="none" stroke="rgb(0, 0, 0)" stroke-linecap="butt" stroke-linejoin="round" stroke-opacity="1.0" stroke-width="3.0" />
            <path d=" M 760.816, 683.316 761.689, 679.914 761.104, 676.244 761.217, 673.406 760.398, 671.078 760.809, 661.086 760.843, 660.266 760.859, 659.860 760.817, 659.604 759.777, 653.359 759.362, 650.866 757.824, 646.515 757.748, 646.026 756.883, 640.421 756.621, 638.725 755.384, 634.885 755.034, 633.799 754.457, 632.010 754.304, 631.535 754.076, 630.827 752.699, 626.635 752.571, 626.245 750.767, 620.751 749.599, 615.193 " fill="none" stroke="rgb(0, 0, 0)" stroke-linecap="butt" stroke-linejoin="round" stroke-opacity="1.0" stroke-width="3.0" />
            <path d=" M 609.119, 980.139 608.976, 980.232 606.091, 982.118 605.724, 982.358 605.461, 982.530 604.900, 984.040 604.847, 984.182 604.431, 985.300 604.282, 985.701 605.230, 992.658 606.110, 994.879 607.608, 998.658 610.059, 1003.499 610.274, 1003.924 610.474, 1004.320 615.166, 1010.617 617.375, 1013.484 620.473, 1016.341 623.390, 1019.011 629.579, 1022.866 634.550, 1025.069 637.514, 1025.896 641.046, 1023.920 641.819, 1020.794 " fill="none" stroke="rgb(0, 0, 0)" stroke-linecap="butt" stroke-linejoin="round" stroke-opacity="1.0" stroke-width="3.0" />
            <path d=" M 711.028, 1016.496 711.968, 1018.859 712.871, 1021.427 717.696, 1023.537 718.878, 1023.010 721.017, 1021.394 724.813, 1018.495 729.880, 1015.669 736.878, 1008.525 737.622, 1007.765 739.582, 1004.842 739.897, 1004.373 739.966, 1004.270 742.379, 1000.672 745.212, 993.262 747.019, 985.993 747.256, 982.598 747.326, 981.596 747.040, 979.889 746.280, 979.034 746.155, 978.894 745.596, 978.265 745.495, 978.151 745.442, 978.092 745.133, 977.842 743.720, 976.698 " fill="none" stroke="rgb(0, 0, 0)" stroke-linecap="butt" stroke-linejoin="round" stroke-opacity="1.0" stroke-width="3.0" />
            <path d=" M 774.944, 776.203 773.915, 768.730 773.224, 763.712 773.187, 763.443 772.789, 760.918 772.781, 760.863 772.776, 760.836 772.758, 760.721 772.737, 760.583 772.639, 759.959 772.614, 759.800 772.587, 759.633 772.586, 759.623 772.469, 758.881 772.456, 758.799 772.426, 758.607 772.416, 758.545 772.411, 758.515 771.921, 755.397 771.881, 755.145 771.851, 754.955 771.010, 749.608 770.379, 745.972 769.858, 742.965 768.526, 733.055 768.408, 732.179 766.890, 722.295 766.688, 720.982 765.381, 711.068 764.731, 706.144 764.603, 705.168 764.458, 704.074 " fill="none" stroke="rgb(0, 0, 0)" stroke-linecap="butt" stroke-linejoin="round" stroke-opacity="1.0" stroke-width="3.0" />
            <path d=" M 741.645, 950.451 742.096, 951.447 747.319, 957.020 756.094, 959.313 759.462, 958.106 763.254, 954.827 765.256, 951.413 764.987, 947.124 765.844, 942.091 766.250, 939.711 768.007, 934.692 768.574, 933.071 768.599, 932.999 768.653, 932.845 768.773, 932.504 769.186, 928.424 770.106, 925.408 767.586, 916.750 768.057, 911.397 768.082, 907.289 " fill="none" stroke="rgb(0, 0, 0)" stroke-linecap="butt" stroke-linejoin="round" stroke-opacity="1.0" stroke-width="3.0" />
            <path d=" M 871.555, 756.908 871.075, 754.123 869.741, 747.628 867.957, 739.610 866.615, 735.695 864.714, 727.345 862.498, 718.991 859.990, 709.311 859.712, 708.239 857.027, 698.607 855.947, 694.731 854.128, 688.079 852.248, 679.582 " fill="none" stroke="rgb(0, 0, 0)" stroke-linecap="butt" stroke-linejoin="round" stroke-opacity="1.0" stroke-width="3.0" />
            <path d=" M 560.518, 826.470 560.481, 827.127 560.531, 828.173 560.725, 832.217 560.624, 838.509 560.683, 847.639 562.021, 855.127 562.203, 860.665 562.205, 860.726 562.237, 861.710 562.290, 863.333 562.926, 867.541 562.986, 867.940 563.202, 869.369 563.392, 870.629 563.554, 871.703 563.532, 872.281 563.365, 876.708 564.817, 882.281 564.959, 882.826 565.657, 888.026 565.836, 889.352 566.100, 891.923 567.592, 897.307 567.814, 898.110 567.843, 898.347 568.398, 902.939 568.859, 904.030 569.898, 906.487 " fill="none" stroke="rgb(0, 0, 0)" stroke-linecap="butt" stroke-linejoin="round" stroke-opacity="1.0" stroke-width="3.0" />
            <path d=" M 606.628, 871.185 605.957, 863.098 605.781, 853.099 605.715, 849.368 605.692, 848.027 606.111, 840.274 606.153, 839.485 606.380, 835.283 606.781, 827.868 606.795, 827.611 607.178, 820.514 607.220, 819.749 607.248, 817.248 607.303, 812.412 607.327, 810.282 607.435, 808.977 608.005, 802.090 608.145, 800.403 608.529, 795.645 608.570, 795.137 608.847, 791.713 609.318, 785.877 " fill="none" stroke="rgb(0, 0, 0)" stroke-linecap="butt" stroke-linejoin="round" stroke-opacity="1.0" stroke-width="3.0" />
            <path d=" M 748.437, 609.312 748.277, 607.374 748.194, 606.361 747.952, 603.418 747.624, 601.535 747.506, 600.856 746.674, 596.079 746.378, 594.739 746.210, 593.977 746.148, 593.696 745.796, 592.101 745.396, 590.291 745.039, 586.965 745.024, 586.825 744.910, 585.766 744.439, 581.377 744.352, 580.573 743.987, 577.172 743.788, 575.316 743.524, 572.859 741.909, 566.263 741.666, 564.722 741.589, 564.234 741.068, 560.923 739.513, 551.045 739.078, 548.285 738.767, 546.305 738.431, 542.471 738.421, 542.355 738.420, 542.343 738.305, 541.025 737.737, 538.299 737.504, 537.180 737.013, 534.821 735.636, 528.209 735.234, 526.274 733.964, 522.674 733.942, 522.612 733.832, 522.298 733.830, 522.292 733.426, 521.147 " fill="none" stroke="rgb(0, 0, 0)" stroke-linecap="butt" stroke-linejoin="round" stroke-opacity="1.0" stroke-width="3.0" />
            <path d=" M 827.557, 686.602 828.192, 687.674 828.195, 687.679 828.392, 688.012 828.884, 688.841 829.132, 689.259 832.257, 694.531 836.776, 703.452 837.205, 704.298 839.569, 708.694 843.528, 716.995 843.583, 717.111 844.637, 719.772 848.319, 729.069 848.712, 730.060 849.459, 731.948 852.405, 741.504 853.531, 745.157 856.443, 754.724 856.628, 755.332 859.134, 763.220 861.009, 770.673 861.068, 770.908 " fill="none" stroke="rgb(0, 0, 0)" stroke-linecap="butt" stroke-linejoin="round" stroke-opacity="1.0" stroke-width="3.0" />
            <path d=" M 552.071, 894.951 552.072, 894.933 552.075, 894.878 552.085, 894.676 552.562, 884.687 552.739, 880.996 552.776, 880.227 552.866, 878.338 552.875, 878.148 552.893, 877.781 552.898, 877.730 553.038, 876.265 553.993, 866.311 554.214, 864.012 555.083, 854.049 555.287, 851.707 555.901, 845.816 555.622, 847.079 554.633, 854.995 553.672, 857.568 553.593, 857.779 551.322, 863.133 550.471, 865.716 549.858, 868.950 549.062, 870.837 548.289, 872.668 548.191, 872.901 546.479, 876.497 546.078, 877.059 545.260, 878.205 545.135, 878.380 545.118, 878.405 545.055, 878.492 542.824, 881.618 542.652, 881.807 541.965, 882.559 541.934, 882.593 541.437, 883.139 541.377, 883.204 541.034, 883.579 540.741, 883.901 540.728, 883.914 540.065, 884.641 " fill="none" stroke="rgb(0, 0, 0)" stroke-linecap="butt" stroke-linejoin="round" stroke-opacity="1.0" stroke-width="3.0" />
            <path d=" M 765.338, 713.518 764.659, 706.227 764.566, 705.229 764.458, 704.074 763.531, 694.117 763.483, 693.598 761.176, 685.312 760.816, 683.316 760.017, 678.875 759.554, 676.304 758.952, 672.960 758.722, 672.021 757.442, 666.785 757.152, 664.566 757.092, 664.105 756.721, 661.270 756.545, 660.514 756.537, 660.481 754.913, 653.507 753.164, 646.001 752.340, 641.565 751.929, 639.353 751.740, 638.333 751.639, 635.973 751.480, 632.279 751.463, 632.135 751.438, 631.933 750.303, 622.650 " fill="none" stroke="rgb(0, 0, 0)" stroke-linecap="butt" stroke-linejoin="round" stroke-opacity="1.0" stroke-width="3.0" />
            <path d=" M 545.481, 578.710 540.930, 581.332 533.438, 587.094 527.103, 594.560 522.520, 599.972 518.795, 605.126 515.624, 610.579 513.438, 615.033 511.426, 618.382 508.334, 626.753 507.028, 631.114 505.545, 635.770 504.345, 640.650 503.405, 643.700 502.954, 648.733 502.488, 658.722 502.398, 660.661 " fill="none" stroke="rgb(0, 0, 0)" stroke-linecap="butt" stroke-linejoin="round" stroke-opacity="1.0" stroke-width="3.0" />
            <path d=" M 475.097, 779.781 474.786, 780.995 472.931, 790.821 472.365, 793.818 471.970, 802.815 472.053, 812.073 472.817, 820.434 474.184, 827.739 477.044, 837.321 477.383, 838.455 481.307, 847.652 481.675, 848.516 486.561, 857.241 487.099, 858.201 493.259, 866.079 493.411, 866.273 493.478, 866.359 493.498, 866.385 497.802, 871.929 498.651, 873.266 " fill="none" stroke="rgb(0, 0, 0)" stroke-linecap="butt" stroke-linejoin="round" stroke-opacity="1.0" stroke-width="3.0" />
            <path d=" M 766.511, 528.613 769.531, 525.272 769.621, 525.173 770.181, 519.980 770.084, 519.235 769.549, 515.095 769.101, 513.840 768.657, 512.598 768.266, 511.505 768.124, 511.109 766.611, 506.876 766.105, 503.303 765.874, 502.894 763.910, 499.425 761.707, 495.532 757.715, 492.514 755.674, 492.531 755.265, 492.712 754.266, 493.155 754.125, 493.217 753.743, 493.386 749.785, 495.141 747.527, 497.544 744.161, 497.772 744.018, 497.752 741.032, 497.318 737.881, 497.296 736.152, 497.765 733.504, 499.160 730.662, 503.045 730.372, 506.965 731.456, 510.315 732.351, 511.589 734.706, 514.122 737.227, 514.793 740.537, 516.806 748.128, 521.287 750.017, 522.987 750.418, 523.347 755.135, 526.852 " fill="none" stroke="rgb(0, 0, 0)" stroke-linecap="butt" stroke-linejoin="round" stroke-opacity="1.0" stroke-width="3.0" />
            <path d=" M 496.823, 684.791 495.221, 689.865 493.257, 697.247 492.825, 700.498 491.111, 706.779 490.184, 709.760 487.358, 719.196 485.997, 723.188 484.828, 730.131 483.418, 738.005 482.558, 740.213 482.184, 745.977 480.545, 754.421 479.626, 757.512 478.896, 762.414 477.493, 767.134 476.382, 770.758 475.755, 774.943 475.139, 778.751 475.097, 779.781 474.778, 787.585 475.207, 791.874 475.727, 796.229 " fill="none" stroke="rgb(0, 0, 0)" stroke-linecap="butt" stroke-linejoin="round" stroke-opacity="1.0" stroke-width="3.0" />
            <path d=" M 584.736, 582.661 584.338, 584.061 584.300, 584.196 584.265, 584.319 584.132, 584.788 583.083, 588.477 582.899, 591.199 582.624, 595.253 581.758, 599.804 581.085, 603.340 581.027, 603.646 580.817, 604.752 580.810, 604.788 580.322, 607.353 580.311, 607.409 579.972, 609.190 579.936, 609.381 579.552, 611.398 579.539, 611.469 579.182, 613.341 578.811, 615.882 578.413, 618.603 578.399, 618.701 578.395, 618.726 578.183, 620.176 577.833, 622.571 577.615, 624.062 577.445, 625.229 577.117, 628.082 577.112, 628.124 576.686, 631.837 575.679, 640.619 575.344, 643.533 575.280, 644.093 575.188, 644.543 573.794, 651.373 572.424, 661.279 571.210, 670.055 570.906, 672.398 569.618, 682.315 569.053, 686.659 567.923, 695.416 567.370, 699.700 566.926, 709.690 566.904, 710.172 566.877, 710.786 " fill="none" stroke="rgb(0, 0, 0)" stroke-linecap="butt" stroke-linejoin="round" stroke-opacity="1.0" stroke-width="3.0" />
            <path d=" M 617.667, 442.795 616.485, 452.724 616.207, 455.058 613.778, 464.759 612.803, 468.652 612.770, 468.743 611.696, 471.733 610.830, 474.143 609.776, 477.076 609.710, 477.291 609.230, 478.870 608.323, 481.856 607.940, 483.319 606.821, 487.690 606.742, 487.998 606.631, 488.431 605.578, 492.540 603.734, 499.627 603.114, 502.012 602.738, 503.455 602.169, 505.640 601.497, 508.224 598.885, 517.877 598.241, 520.257 597.788, 521.935 596.412, 527.019 595.935, 528.783 594.801, 535.265 594.491, 537.034 594.401, 537.551 594.277, 538.258 592.922, 547.225 592.743, 548.411 592.631, 549.154 592.463, 549.805 590.375, 557.892 589.565, 562.590 589.266, 564.326 588.909, 566.399 588.891, 566.504 588.648, 567.914 588.567, 568.381 588.068, 571.276 588.031, 571.490 587.961, 571.896 587.875, 572.399 587.832, 572.645 587.802, 572.821 587.642, 573.750 " fill="none" stroke="rgb(0, 0, 0)" stroke-linecap="butt" stroke-linejoin="round" stroke-opacity="1.0" stroke-width="3.0" />
            <path d=" M 684.440, 551.867 686.361, 561.680 688.282, 571.494 689.016, 575.244 690.111, 585.184 691.206, 595.124 692.217, 604.309 694.126, 614.125 695.141, 619.345 696.151, 629.294 696.363, 631.386 696.795, 641.376 696.881, 643.372 696.846, 643.976 696.808, 644.608 696.620, 647.801 696.068, 657.153 696.456, 659.595 697.690, 669.519 697.805, 670.448 697.823, 670.588 697.825, 670.607 697.866, 670.934 700.631, 680.607 701.227, 682.680 702.338, 685.397 703.035, 687.102 704.266, 690.113 705.302, 692.645 " fill="none" stroke="rgb(0, 0, 0)" stroke-linecap="butt" stroke-linejoin="round" stroke-opacity="1.0" stroke-width="3.0" />
            <path d=" M 710.553, 720.768 711.520, 730.721 711.626, 731.810 711.628, 731.822 712.767, 739.854 713.140, 742.483 713.658, 746.140 714.056, 748.944 714.128, 749.451 714.314, 750.541 716.000, 760.398 716.584, 763.813 717.009, 766.299 718.205, 775.042 718.214, 775.108 718.496, 777.164 718.755, 779.064 719.458, 783.070 720.011, 786.226 720.032, 786.345 720.698, 790.141 721.151, 792.726 721.165, 792.808 721.600, 795.286 721.884, 796.907 723.258, 806.812 724.632, 816.717 724.945, 818.971 725.222, 825.086 726.440, 835.012 726.713, 837.235 726.929, 839.970 726.943, 840.153 727.414, 846.122 727.789, 850.882 728.015, 854.523 728.430, 861.194 728.853, 868.003 " fill="none" stroke="rgb(0, 0, 0)" stroke-linecap="butt" stroke-linejoin="round" stroke-opacity="1.0" stroke-width="3.0" />
            <path d=" M 781.065, 614.426 780.975, 607.650 780.973, 607.522 780.941, 605.074 781.562, 598.795 781.087, 592.428 781.010, 591.398 780.783, 588.362 781.467, 584.098 781.475, 576.491 782.141, 567.582 782.522, 558.564 782.542, 558.095 781.885, 548.921 780.357, 539.509 778.650, 534.219 778.321, 529.278 777.665, 526.363 777.388, 525.129 775.320, 519.460 773.011, 513.256 771.424, 508.825 769.793, 505.977 768.577, 501.109 767.660, 499.227 762.883, 490.479 760.496, 488.559 758.297, 484.302 756.513, 481.744 754.875, 479.286 753.329, 476.404 751.845, 473.419 750.597, 470.635 749.090, 467.627 748.179, 465.810 " fill="none" stroke="rgb(0, 0, 0)" stroke-linecap="butt" stroke-linejoin="round" stroke-opacity="1.0" stroke-width="3.0" />
            <path d=" M 822.882, 931.395 822.921, 931.276 824.554, 926.219 825.820, 920.173 826.331, 915.437 825.435, 911.940 826.668, 908.404 829.860, 903.320 831.685, 900.067 835.788, 892.018 839.812, 886.621 841.504, 883.737 847.238, 875.544 847.815, 874.720 852.526, 869.764 858.894, 862.054 859.913, 860.820 863.169, 856.681 866.030, 852.710 868.542, 848.726 871.870, 843.065 874.857, 835.570 877.531, 826.631 878.781, 821.485 880.427, 811.859 880.890, 802.139 880.306, 792.156 880.158, 789.631 878.588, 782.298 877.141, 776.484 876.463, 774.021 " fill="none" stroke="rgb(0, 0, 0)" stroke-linecap="butt" stroke-linejoin="round" stroke-opacity="1.0" stroke-width="3.0" />
            <path d=" M 612.084, 761.569 612.294, 760.497 614.219, 750.684 614.430, 749.605 614.425, 747.788 614.407, 742.388 614.404, 741.446 615.569, 733.487 615.675, 732.441 616.555, 723.751 617.184, 717.535 617.953, 709.944 619.222, 700.025 620.491, 690.106 620.953, 686.496 621.585, 676.516 622.217, 666.536 622.302, 665.188 623.427, 656.701 623.863, 653.408 624.551, 645.758 624.818, 642.779 625.160, 638.895 626.037, 628.934 626.117, 628.024 626.120, 627.981 626.122, 627.966 626.691, 621.495 628.125, 611.599 629.559, 601.702 630.266, 596.823 631.746, 587.495 633.099, 577.587 634.231, 569.301 634.295, 568.830 " fill="none" stroke="rgb(0, 0, 0)" stroke-linecap="butt" stroke-linejoin="round" stroke-opacity="1.0" stroke-width="3.0" />
        </g>
    </g>
</svg>
