<?xml version='1.0' encoding='ascii'?>
<svg xmlns="http://www.w3.org/2000/svg" height="1280" version="1.1" width="1280">
    <g id="RenderLayer_LineSet" inkscape:groupmode="lineset" inkscape:label="RenderLayer_LineSet" xmlns:inkscape="http://www.inkscape.org/namespaces/inkscape">
        <g id="strokes" inkscape:groupmode="layer" inkscape:label="strokes" xmlns:inkscape="http://www.inkscape.org/namespaces/inkscape">
            <path d=" M 892.682, 545.478 892.944, 544.833 893.423, 543.652 894.307, 541.473 894.330, 541.417 894.715, 540.467 894.995, 539.777 895.012, 539.735 895.221, 539.220 895.432, 538.701 895.446, 538.666 895.672, 538.108 896.683, 535.584 896.235, 535.141 896.187, 535.094 895.837, 534.748 895.805, 534.717 895.703, 534.616 893.951, 534.097 893.823, 534.102 893.616, 534.110 891.173, 534.205 887.948, 535.179 " fill="none" stroke="rgb(0, 0, 0)" stroke-linecap="butt" stroke-linejoin="round" stroke-opacity="1.0" stroke-width="3.0" />
            <path d=" M 535.612, 648.953 531.808, 655.956 529.515, 659.443 528.793, 660.541 527.041, 663.951 526.971, 664.086 526.872, 664.279 526.559, 664.889 526.414, 665.170 525.755, 666.454 " fill="none" stroke="rgb(0, 0, 0)" stroke-linecap="butt" stroke-linejoin="round" stroke-opacity="1.0" stroke-width="3.0" />
            <path d=" M 715.960, 457.358 715.953, 457.335 713.560, 454.315 710.181, 451.971 706.900, 451.093 702.932, 451.261 702.347, 451.569 701.802, 451.857 699.861, 452.880 699.804, 452.911 698.731, 453.477 " fill="none" stroke="rgb(0, 0, 0)" stroke-linecap="butt" stroke-linejoin="round" stroke-opacity="1.0" stroke-width="3.0" />
            <path d=" M 915.422, 798.456 916.201, 797.032 918.174, 793.426 918.550, 792.738 918.627, 792.598 919.051, 791.822 920.647, 788.905 923.251, 783.629 924.739, 780.617 " fill="none" stroke="rgb(0, 0, 0)" stroke-linecap="butt" stroke-linejoin="round" stroke-opacity="1.0" stroke-width="3.0" />
            <path d=" M 774.875, 747.785 781.260, 743.989 784.150, 738.100 785.232, 731.749 " fill="none" stroke="rgb(0, 0, 0)" stroke-linecap="butt" stroke-linejoin="round" stroke-opacity="1.0" stroke-width="3.0" />
            <path d=" M 571.569, 753.149 576.455, 759.863 576.424, 759.811 574.022, 755.845 571.078, 750.058 570.520, 748.960 " fill="none" stroke="rgb(0, 0, 0)" stroke-linecap="butt" stroke-linejoin="round" stroke-opacity="1.0" stroke-width="3.0" />
            <path d=" M 580.945, 766.892 581.525, 768.006 582.978, 770.799 583.148, 771.125 583.534, 771.867 584.161, 773.073 584.178, 773.106 586.020, 776.647 587.657, 779.795 588.819, 782.027 589.185, 782.463 589.471, 782.803 591.180, 784.836 " fill="none" stroke="rgb(0, 0, 0)" stroke-linecap="butt" stroke-linejoin="round" stroke-opacity="1.0" stroke-width="3.0" />
            <path d=" M 930.101, 576.869 930.105, 576.688 930.206, 572.011 929.960, 567.762 928.651, 557.848 928.414, 556.050 " fill="none" stroke="rgb(0, 0, 0)" stroke-linecap="butt" stroke-linejoin="round" stroke-opacity="1.0" stroke-width="3.0" />
            <path d=" M 640.254, 879.043 645.296, 887.535 650.313, 896.185 650.847, 897.107 " fill="none" stroke="rgb(0, 0, 0)" stroke-linecap="butt" stroke-linejoin="round" stroke-opacity="1.0" stroke-width="3.0" />
            <path d=" M 659.292, 1079.387 659.994, 1084.108 661.192, 1087.310 665.613, 1092.658 670.138, 1096.313 " fill="none" stroke="rgb(0, 0, 0)" stroke-linecap="butt" stroke-linejoin="round" stroke-opacity="1.0" stroke-width="3.0" />
            <path d=" M 949.675, 664.525 945.970, 655.237 945.015, 652.844 941.370, 645.028 941.311, 644.942 " fill="none" stroke="rgb(0, 0, 0)" stroke-linecap="butt" stroke-linejoin="round" stroke-opacity="1.0" stroke-width="3.0" />
            <path d=" M 942.649, 721.536 945.518, 712.606 945.688, 712.077 945.999, 711.109 948.775, 701.502 948.876, 701.150 " fill="none" stroke="rgb(0, 0, 0)" stroke-linecap="butt" stroke-linejoin="round" stroke-opacity="1.0" stroke-width="3.0" />
            <path d=" M 891.588, 581.586 889.128, 578.587 888.999, 578.430 888.180, 577.431 885.211, 571.505 882.933, 563.732 882.581, 562.533 " fill="none" stroke="rgb(0, 0, 0)" stroke-linecap="butt" stroke-linejoin="round" stroke-opacity="1.0" stroke-width="3.0" />
            <path d=" M 876.095, 720.408 875.809, 719.943 870.971, 712.069 867.213, 705.004 867.427, 703.768 867.832, 701.431 " fill="none" stroke="rgb(0, 0, 0)" stroke-linecap="butt" stroke-linejoin="round" stroke-opacity="1.0" stroke-width="3.0" />
            <path d=" M 593.182, 580.023 591.735, 579.583 584.753, 580.304 582.847, 580.501 581.495, 581.161 580.959, 581.246 580.466, 581.324 580.421, 581.331 580.184, 581.369 575.414, 582.125 573.820, 582.378 573.008, 582.506 572.061, 582.656 " fill="none" stroke="rgb(0, 0, 0)" stroke-linecap="butt" stroke-linejoin="round" stroke-opacity="1.0" stroke-width="3.0" />
            <path d=" M 905.875, 758.736 904.931, 756.566 902.659, 751.346 901.790, 748.098 897.145, 741.922 895.639, 739.920 " fill="none" stroke="rgb(0, 0, 0)" stroke-linecap="butt" stroke-linejoin="round" stroke-opacity="1.0" stroke-width="3.0" />
            <path d=" M 538.758, 729.307 541.897, 728.637 542.164, 728.580 542.205, 728.571 546.363, 727.664 551.673, 727.339 552.699, 727.321 560.322, 727.188 " fill="none" stroke="rgb(0, 0, 0)" stroke-linecap="butt" stroke-linejoin="round" stroke-opacity="1.0" stroke-width="3.0" />
            <path d=" M 508.261, 624.835 508.681, 624.850 510.718, 624.919 518.815, 624.283 526.235, 621.145 529.169, 619.904 " fill="none" stroke="rgb(0, 0, 0)" stroke-linecap="butt" stroke-linejoin="round" stroke-opacity="1.0" stroke-width="3.0" />
            <path d=" M 552.089, 697.096 557.488, 703.727 558.799, 708.210 559.048, 710.264 559.634, 715.101 560.426, 716.845 " fill="none" stroke="rgb(0, 0, 0)" stroke-linecap="butt" stroke-linejoin="round" stroke-opacity="1.0" stroke-width="3.0" />
            <path d=" M 873.918, 558.465 874.250, 557.295 874.254, 557.282 876.785, 548.373 877.702, 545.255 877.742, 545.122 877.743, 545.118 877.781, 544.989 878.164, 543.687 878.170, 543.665 878.327, 543.134 878.349, 543.057 878.369, 542.991 878.424, 542.897 878.441, 542.868 878.449, 542.855 878.463, 542.832 878.824, 542.222 879.861, 540.469 880.395, 539.565 880.406, 539.546 880.409, 539.541 880.508, 539.374 880.511, 539.369 880.523, 539.349 880.553, 539.299 880.852, 538.792 880.931, 538.659 881.519, 537.664 " fill="none" stroke="rgb(0, 0, 0)" stroke-linecap="butt" stroke-linejoin="round" stroke-opacity="1.0" stroke-width="3.0" />
            <path d=" M 892.666, 918.713 895.458, 913.570 898.829, 910.817 900.503, 905.038 901.483, 903.004 901.430, 901.021 900.514, 899.422 " fill="none" stroke="rgb(0, 0, 0)" stroke-linecap="butt" stroke-linejoin="round" stroke-opacity="1.0" stroke-width="3.0" />
            <path d=" M 871.950, 554.837 874.319, 549.588 874.381, 549.451 874.688, 548.771 874.773, 547.871 874.871, 546.826 874.968, 545.795 875.149, 543.877 875.220, 543.124 875.272, 542.579 875.299, 542.291 875.373, 541.500 875.532, 539.818 875.557, 539.549 875.910, 538.850 876.213, 538.252 876.234, 538.210 876.390, 537.901 876.409, 537.863 876.562, 537.561 876.589, 537.506 877.399, 535.903 877.431, 535.841 877.556, 535.593 878.442, 533.840 " fill="none" stroke="rgb(0, 0, 0)" stroke-linecap="butt" stroke-linejoin="round" stroke-opacity="1.0" stroke-width="3.0" />
            <path d=" M 613.075, 574.691 607.073, 576.763 599.147, 578.627 595.990, 579.366 595.481, 579.485 595.116, 579.570 594.963, 579.606 593.182, 580.023 591.514, 580.413 " fill="none" stroke="rgb(0, 0, 0)" stroke-linecap="butt" stroke-linejoin="round" stroke-opacity="1.0" stroke-width="3.0" />
            <path d=" M 927.077, 621.047 925.941, 618.087 925.886, 617.957 924.810, 615.419 923.871, 613.205 923.412, 612.764 921.855, 611.267 921.776, 611.191 921.733, 611.150 918.354, 607.902 916.424, 606.005 916.060, 605.647 916.038, 605.625 913.813, 603.438 " fill="none" stroke="rgb(0, 0, 0)" stroke-linecap="butt" stroke-linejoin="round" stroke-opacity="1.0" stroke-width="3.0" />
            <path d=" M 909.290, 777.774 909.717, 775.655 910.991, 769.323 909.902, 765.440 908.874, 762.439 904.931, 756.566 " fill="none" stroke="rgb(0, 0, 0)" stroke-linecap="butt" stroke-linejoin="round" stroke-opacity="1.0" stroke-width="3.0" />
            <path d=" M 928.268, 844.287 930.487, 842.567 930.805, 842.321 930.863, 842.276 932.062, 840.603 933.884, 833.676 936.381, 826.375 937.089, 823.729 " fill="none" stroke="rgb(0, 0, 0)" stroke-linecap="butt" stroke-linejoin="round" stroke-opacity="1.0" stroke-width="3.0" />
            <path d=" M 913.945, 898.396 913.956, 898.332 915.167, 891.246 912.373, 889.222 906.293, 891.944 900.534, 890.967 " fill="none" stroke="rgb(0, 0, 0)" stroke-linecap="butt" stroke-linejoin="round" stroke-opacity="1.0" stroke-width="3.0" />
            <path d=" M 691.106, 490.427 684.781, 483.959 680.856, 479.910 678.549, 477.139 676.961, 474.982 675.308, 473.675 675.047, 473.509 " fill="none" stroke="rgb(0, 0, 0)" stroke-linecap="butt" stroke-linejoin="round" stroke-opacity="1.0" stroke-width="3.0" />
            <path d=" M 591.023, 567.381 590.439, 569.293 588.862, 574.462 585.713, 575.847 582.755, 576.499 581.520, 576.960 578.216, 578.193 575.414, 582.125 " fill="none" stroke="rgb(0, 0, 0)" stroke-linecap="butt" stroke-linejoin="round" stroke-opacity="1.0" stroke-width="3.0" />
            <path d=" M 630.949, 893.886 630.914, 894.362 630.894, 894.630 630.884, 894.773 630.870, 894.959 630.764, 896.398 630.438, 900.808 630.005, 901.790 629.664, 902.561 627.388, 907.719 627.192, 908.162 626.249, 910.299 625.602, 911.766 625.550, 912.106 625.516, 912.336 625.447, 912.790 625.303, 913.741 623.832, 916.310 " fill="none" stroke="rgb(0, 0, 0)" stroke-linecap="butt" stroke-linejoin="round" stroke-opacity="1.0" stroke-width="3.0" />
            <path d=" M 565.108, 695.568 563.755, 698.968 563.600, 699.357 562.485, 702.161 561.749, 704.010 561.729, 704.059 561.480, 704.687 561.453, 704.753 561.340, 705.038 561.198, 705.396 560.837, 707.316 560.745, 707.807 560.113, 711.171 560.011, 711.712 560.199, 712.453 560.800, 714.821 561.272, 716.681 561.362, 717.038 561.573, 717.870 561.705, 718.388 " fill="none" stroke="rgb(0, 0, 0)" stroke-linecap="butt" stroke-linejoin="round" stroke-opacity="1.0" stroke-width="3.0" />
            <path d=" M 597.469, 799.530 599.308, 803.836 599.326, 803.878 602.224, 808.769 602.387, 809.045 602.447, 809.146 602.864, 809.850 605.775, 814.763 608.760, 820.850 " fill="none" stroke="rgb(0, 0, 0)" stroke-linecap="butt" stroke-linejoin="round" stroke-opacity="1.0" stroke-width="3.0" />
            <path d=" M 677.983, 971.088 679.079, 964.059 680.626, 961.319 683.824, 958.940 685.327, 956.395 686.997, 954.572 687.046, 954.518 687.826, 953.667 688.133, 953.332 688.293, 953.157 690.117, 951.166 " fill="none" stroke="rgb(0, 0, 0)" stroke-linecap="butt" stroke-linejoin="round" stroke-opacity="1.0" stroke-width="3.0" />
            <path d=" M 937.012, 823.964 937.089, 823.729 939.261, 817.102 941.039, 813.417 944.317, 806.041 946.449, 800.794 " fill="none" stroke="rgb(0, 0, 0)" stroke-linecap="butt" stroke-linejoin="round" stroke-opacity="1.0" stroke-width="3.0" />
            <path d=" M 633.226, 982.420 633.686, 983.187 633.699, 983.209 633.748, 983.291 634.004, 983.718 634.020, 983.744 634.094, 983.867 634.262, 984.148 637.333, 989.267 639.302, 991.206 643.434, 995.277 650.411, 999.243 651.383, 999.796 " fill="none" stroke="rgb(0, 0, 0)" stroke-linecap="butt" stroke-linejoin="round" stroke-opacity="1.0" stroke-width="3.0" />
            <path d=" M 820.953, 547.801 819.155, 547.526 818.985, 547.500 815.182, 546.920 806.239, 547.312 805.969, 547.282 805.313, 547.210 804.760, 547.149 803.260, 546.984 802.067, 546.852 801.470, 546.786 801.291, 546.803 797.924, 547.104 796.898, 547.196 795.220, 547.347 " fill="none" stroke="rgb(0, 0, 0)" stroke-linecap="butt" stroke-linejoin="round" stroke-opacity="1.0" stroke-width="3.0" />
            <path d=" M 702.667, 484.691 698.617, 485.120 694.078, 487.549 691.561, 489.832 691.106, 490.427 690.569, 491.130 687.108, 495.659 682.807, 497.987 681.548, 498.669 " fill="none" stroke="rgb(0, 0, 0)" stroke-linecap="butt" stroke-linejoin="round" stroke-opacity="1.0" stroke-width="3.0" />
            <path d=" M 945.972, 682.010 945.815, 673.961 945.248, 667.052 943.988, 661.326 942.414, 656.552 942.404, 656.520 942.206, 655.921 " fill="none" stroke="rgb(0, 0, 0)" stroke-linecap="butt" stroke-linejoin="round" stroke-opacity="1.0" stroke-width="3.0" />
            <path d=" M 928.661, 620.466 925.900, 614.170 925.738, 613.801 924.164, 612.098 921.654, 609.382 918.697, 605.074 914.225, 601.615 914.278, 601.711 915.181, 603.376 915.470, 603.908 " fill="none" stroke="rgb(0, 0, 0)" stroke-linecap="butt" stroke-linejoin="round" stroke-opacity="1.0" stroke-width="3.0" />
            <path d=" M 535.411, 746.385 536.554, 747.397 538.628, 747.790 540.856, 747.331 543.017, 746.027 545.038, 744.382 546.254, 742.093 546.884, 740.475 549.182, 734.565 551.022, 729.835 " fill="none" stroke="rgb(0, 0, 0)" stroke-linecap="butt" stroke-linejoin="round" stroke-opacity="1.0" stroke-width="3.0" />
            <path d=" M 622.330, 527.001 620.864, 525.937 616.460, 522.739 612.032, 522.606 602.420, 519.849 602.297, 519.814 598.393, 517.938 597.483, 517.500 " fill="none" stroke="rgb(0, 0, 0)" stroke-linecap="butt" stroke-linejoin="round" stroke-opacity="1.0" stroke-width="3.0" />
            <path d=" M 882.578, 723.770 885.500, 726.816 886.741, 728.312 886.987, 728.609 888.886, 730.900 888.986, 731.020 887.417, 730.233 882.493, 727.764 875.996, 720.162 875.809, 719.943 " fill="none" stroke="rgb(0, 0, 0)" stroke-linecap="butt" stroke-linejoin="round" stroke-opacity="1.0" stroke-width="3.0" />
            <path d=" M 949.900, 697.579 950.244, 687.584 950.315, 685.505 949.590, 690.491 948.434, 698.441 948.001, 700.670 " fill="none" stroke="rgb(0, 0, 0)" stroke-linecap="butt" stroke-linejoin="round" stroke-opacity="1.0" stroke-width="3.0" />
            <path d=" M 883.800, 563.389 885.158, 554.817 887.303, 549.372 888.537, 546.455 889.397, 544.422 889.634, 543.861 890.521, 541.767 890.736, 541.336 891.392, 540.019 892.480, 537.838 892.608, 537.581 " fill="none" stroke="rgb(0, 0, 0)" stroke-linecap="butt" stroke-linejoin="round" stroke-opacity="1.0" stroke-width="3.0" />
            <path d=" M 913.953, 606.013 913.899, 605.917 913.837, 605.803 911.175, 600.996 905.893, 596.848 905.792, 596.769 904.547, 595.792 901.977, 593.774 899.283, 591.139 894.669, 586.671 " fill="none" stroke="rgb(0, 0, 0)" stroke-linecap="butt" stroke-linejoin="round" stroke-opacity="1.0" stroke-width="3.0" />
            <path d=" M 642.159, 542.242 641.419, 542.091 636.805, 539.601 630.145, 532.141 625.593, 527.042 620.864, 525.937 " fill="none" stroke="rgb(0, 0, 0)" stroke-linecap="butt" stroke-linejoin="round" stroke-opacity="1.0" stroke-width="3.0" />
            <path d=" M 572.792, 539.002 573.432, 540.000 575.517, 543.251 571.987, 550.101 570.209, 553.143 565.229, 561.659 564.866, 562.279 564.844, 562.317 564.640, 562.665 564.359, 563.146 " fill="none" stroke="rgb(0, 0, 0)" stroke-linecap="butt" stroke-linejoin="round" stroke-opacity="1.0" stroke-width="3.0" />
            <path d=" M 565.093, 732.790 566.091, 734.608 570.784, 743.154 572.170, 746.225 573.485, 749.138 574.996, 752.115 576.121, 754.332 577.813, 757.664 " fill="none" stroke="rgb(0, 0, 0)" stroke-linecap="butt" stroke-linejoin="round" stroke-opacity="1.0" stroke-width="3.0" />
            <path d=" M 754.008, 465.275 750.833, 467.057 748.699, 468.810 743.760, 474.865 741.329, 478.071 739.317, 480.794 735.520, 485.934 " fill="none" stroke="rgb(0, 0, 0)" stroke-linecap="butt" stroke-linejoin="round" stroke-opacity="1.0" stroke-width="3.0" />
            <path d=" M 741.926, 1093.523 743.992, 1094.071 745.621, 1094.259 747.500, 1093.476 749.947, 1089.194 752.015, 1086.027 752.546, 1079.891 753.703, 1071.982 " fill="none" stroke="rgb(0, 0, 0)" stroke-linecap="butt" stroke-linejoin="round" stroke-opacity="1.0" stroke-width="3.0" />
            <path d=" M 514.262, 741.495 515.858, 740.662 518.621, 739.220 527.356, 734.350 527.626, 734.200 527.801, 734.102 531.091, 732.386 531.122, 732.370 531.221, 732.318 531.942, 731.942 532.507, 731.647 538.758, 729.307 539.982, 728.849 " fill="none" stroke="rgb(0, 0, 0)" stroke-linecap="butt" stroke-linejoin="round" stroke-opacity="1.0" stroke-width="3.0" />
            <path d=" M 559.992, 521.892 560.092, 520.188 560.107, 519.929 560.134, 519.462 560.143, 519.314 560.490, 513.404 558.574, 506.615 557.662, 505.857 554.407, 503.179 551.237, 499.387 548.951, 498.567 548.348, 498.350 " fill="none" stroke="rgb(0, 0, 0)" stroke-linecap="butt" stroke-linejoin="round" stroke-opacity="1.0" stroke-width="3.0" />
            <path d=" M 939.650, 640.387 935.462, 633.041 935.047, 632.313 932.148, 626.668 931.067, 624.562 930.883, 624.203 929.733, 621.965 929.615, 621.735 929.605, 621.715 929.240, 621.236 928.781, 620.633 928.677, 620.497 924.810, 615.419 " fill="none" stroke="rgb(0, 0, 0)" stroke-linecap="butt" stroke-linejoin="round" stroke-opacity="1.0" stroke-width="3.0" />
            <path d=" M 545.286, 524.792 546.272, 524.755 546.989, 524.260 548.281, 523.369 549.513, 522.264 549.791, 521.914 550.890, 520.527 552.209, 515.632 552.769, 512.820 552.754, 512.765 552.586, 512.141 552.095, 510.316 550.143, 508.407 548.614, 506.912 547.440, 505.388 546.301, 503.910 546.143, 503.704 546.064, 503.601 545.765, 503.213 545.397, 502.736 544.683, 501.808 544.642, 501.755 " fill="none" stroke="rgb(0, 0, 0)" stroke-linecap="butt" stroke-linejoin="round" stroke-opacity="1.0" stroke-width="3.0" />
            <path d=" M 940.170, 737.099 940.284, 736.776 943.627, 727.352 944.083, 726.066 946.359, 720.438 947.608, 710.516 947.814, 708.881 " fill="none" stroke="rgb(0, 0, 0)" stroke-linecap="butt" stroke-linejoin="round" stroke-opacity="1.0" stroke-width="3.0" />
            <path d=" M 710.356, 929.235 710.782, 928.720 714.240, 924.542 717.823, 921.702 721.502, 919.176 722.841, 916.771 722.790, 913.095 726.119, 909.746 727.839, 906.921 " fill="none" stroke="rgb(0, 0, 0)" stroke-linecap="butt" stroke-linejoin="round" stroke-opacity="1.0" stroke-width="3.0" />
            <path d=" M 823.907, 602.836 824.512, 597.842 824.549, 597.537 824.553, 597.498 824.590, 597.196 824.594, 597.163 825.109, 592.912 826.311, 589.483 827.822, 581.869 832.095, 574.530 " fill="none" stroke="rgb(0, 0, 0)" stroke-linecap="butt" stroke-linejoin="round" stroke-opacity="1.0" stroke-width="3.0" />
            <path d=" M 927.843, 774.903 928.532, 772.924 931.821, 763.480 932.209, 762.364 933.054, 759.737 933.518, 758.294 934.936, 752.946 935.364, 751.548 936.829, 746.762 937.056, 746.094 " fill="none" stroke="rgb(0, 0, 0)" stroke-linecap="butt" stroke-linejoin="round" stroke-opacity="1.0" stroke-width="3.0" />
            <path d=" M 837.150, 596.965 837.479, 596.187 840.667, 588.643 842.378, 585.069 843.894, 579.070 845.926, 572.032 846.976, 568.391 " fill="none" stroke="rgb(0, 0, 0)" stroke-linecap="butt" stroke-linejoin="round" stroke-opacity="1.0" stroke-width="3.0" />
            <path d=" M 722.918, 781.523 721.596, 787.105 720.721, 790.804 720.620, 790.965 719.853, 792.188 718.315, 794.639 717.557, 795.631 713.861, 800.465 713.554, 800.868 713.510, 800.924 712.002, 804.931 711.421, 809.986 " fill="none" stroke="rgb(0, 0, 0)" stroke-linecap="butt" stroke-linejoin="round" stroke-opacity="1.0" stroke-width="3.0" />
            <path d=" M 654.614, 932.023 649.206, 935.164 644.741, 937.340 639.572, 938.130 632.450, 937.129 630.604, 939.070 629.822, 943.643 629.677, 944.496 " fill="none" stroke="rgb(0, 0, 0)" stroke-linecap="butt" stroke-linejoin="round" stroke-opacity="1.0" stroke-width="3.0" />
            <path d=" M 946.605, 659.535 945.866, 657.800 942.691, 648.724 941.311, 644.942 940.120, 641.674 939.650, 640.387 936.450, 635.640 936.323, 635.466 934.991, 633.638 934.756, 633.316 934.588, 633.085 933.358, 631.397 932.896, 630.762 " fill="none" stroke="rgb(0, 0, 0)" stroke-linecap="butt" stroke-linejoin="round" stroke-opacity="1.0" stroke-width="3.0" />
            <path d=" M 633.440, 1018.868 633.132, 1020.802 630.626, 1026.707 630.166, 1032.083 630.628, 1036.074 630.931, 1038.694 632.626, 1044.180 634.000, 1046.277 636.447, 1049.026 " fill="none" stroke="rgb(0, 0, 0)" stroke-linecap="butt" stroke-linejoin="round" stroke-opacity="1.0" stroke-width="3.0" />
            <path d=" M 545.569, 500.558 545.892, 497.395 545.919, 497.133 546.001, 496.329 545.167, 493.926 543.446, 492.812 543.071, 492.795 543.069, 492.795 542.437, 492.766 542.223, 492.756 542.059, 492.749 536.887, 492.511 534.572, 493.417 532.222, 494.417 532.158, 494.444 528.502, 496.000 528.442, 496.026 528.365, 496.058 528.125, 496.472 526.318, 499.576 526.115, 499.923 525.778, 500.504 525.359, 501.223 524.416, 502.843 " fill="none" stroke="rgb(0, 0, 0)" stroke-linecap="butt" stroke-linejoin="round" stroke-opacity="1.0" stroke-width="3.0" />
            <path d=" M 570.209, 553.143 569.873, 543.921 569.865, 538.089 570.267, 532.055 570.962, 522.080 571.069, 520.534 " fill="none" stroke="rgb(0, 0, 0)" stroke-linecap="butt" stroke-linejoin="round" stroke-opacity="1.0" stroke-width="3.0" />
            <path d=" M 832.585, 637.670 833.503, 632.079 833.862, 627.387 833.930, 626.494 833.936, 626.425 833.939, 626.384 833.909, 626.295 833.736, 625.763 833.700, 625.655 833.616, 625.396 832.896, 623.191 832.076, 621.273 830.717, 618.093 827.378, 613.153 823.689, 607.993 823.433, 607.635 " fill="none" stroke="rgb(0, 0, 0)" stroke-linecap="butt" stroke-linejoin="round" stroke-opacity="1.0" stroke-width="3.0" />
            <path d=" M 651.063, 899.260 654.736, 908.562 655.901, 911.511 658.457, 921.097 658.502, 921.264 658.306, 931.033 " fill="none" stroke="rgb(0, 0, 0)" stroke-linecap="butt" stroke-linejoin="round" stroke-opacity="1.0" stroke-width="3.0" />
            <path d=" M 901.598, 829.759 903.862, 825.486 904.852, 823.618 909.346, 816.786 910.380, 815.082 912.634, 811.341 914.932, 802.108 915.506, 799.800 " fill="none" stroke="rgb(0, 0, 0)" stroke-linecap="butt" stroke-linejoin="round" stroke-opacity="1.0" stroke-width="3.0" />
            <path d=" M 570.830, 521.746 571.069, 520.534 572.899, 511.259 573.711, 501.292 573.751, 500.795 573.513, 499.614 572.376, 496.058 570.701, 490.578 570.686, 490.530 570.684, 490.525 570.124, 488.692 " fill="none" stroke="rgb(0, 0, 0)" stroke-linecap="butt" stroke-linejoin="round" stroke-opacity="1.0" stroke-width="3.0" />
            <path d=" M 599.326, 803.878 602.028, 808.816 602.144, 809.029 602.193, 809.117 602.608, 809.876 606.885, 817.693 609.150, 823.581 614.048, 831.542 614.133, 831.680 614.474, 832.234 614.679, 832.567 615.465, 833.845 " fill="none" stroke="rgb(0, 0, 0)" stroke-linecap="butt" stroke-linejoin="round" stroke-opacity="1.0" stroke-width="3.0" />
            <path d=" M 899.169, 850.722 899.777, 847.886 899.736, 845.107 899.618, 846.275 899.169, 850.722 898.620, 856.153 895.969, 861.220 894.184, 865.148 892.918, 867.935 892.724, 869.435 892.571, 870.623 892.368, 872.191 " fill="none" stroke="rgb(0, 0, 0)" stroke-linecap="butt" stroke-linejoin="round" stroke-opacity="1.0" stroke-width="3.0" />
            <path d=" M 662.195, 558.784 657.098, 560.780 656.623, 560.819 656.396, 560.837 651.501, 561.238 651.141, 561.268 651.033, 561.275 642.161, 561.877 641.609, 562.093 640.260, 562.620 640.244, 562.626 634.962, 567.040 633.313, 567.355 630.832, 567.829 630.761, 567.843 630.181, 567.953 " fill="none" stroke="rgb(0, 0, 0)" stroke-linecap="butt" stroke-linejoin="round" stroke-opacity="1.0" stroke-width="3.0" />
            <path d=" M 516.227, 571.034 514.555, 573.457 512.729, 576.104 505.883, 582.361 503.022, 585.613 500.330, 588.665 496.942, 591.317 495.145, 597.431 495.112, 597.545 " fill="none" stroke="rgb(0, 0, 0)" stroke-linecap="butt" stroke-linejoin="round" stroke-opacity="1.0" stroke-width="3.0" />
            <path d=" M 759.113, 1060.133 759.363, 1059.842 760.469, 1058.558 761.761, 1057.059 764.790, 1053.364 765.070, 1053.022 767.944, 1049.516 772.759, 1040.752 773.699, 1039.041 775.317, 1036.060 776.514, 1033.130 777.140, 1030.506 " fill="none" stroke="rgb(0, 0, 0)" stroke-linecap="butt" stroke-linejoin="round" stroke-opacity="1.0" stroke-width="3.0" />
            <path d=" M 701.706, 451.597 700.965, 451.628 694.865, 453.077 691.741, 454.853 688.420, 456.623 683.724, 457.940 681.169, 460.120 680.081, 461.048 677.189, 464.045 676.185, 465.085 673.615, 470.163 " fill="none" stroke="rgb(0, 0, 0)" stroke-linecap="butt" stroke-linejoin="round" stroke-opacity="1.0" stroke-width="3.0" />
            <path d=" M 581.326, 535.497 581.756, 535.805 583.135, 536.794 583.543, 537.087 584.752, 537.954 586.030, 539.395 587.924, 541.530 589.718, 546.036 590.944, 551.830 591.318, 555.763 590.493, 564.213 590.439, 569.293 " fill="none" stroke="rgb(0, 0, 0)" stroke-linecap="butt" stroke-linejoin="round" stroke-opacity="1.0" stroke-width="3.0" />
            <path d=" M 721.529, 560.295 726.931, 562.721 727.296, 562.885 728.289, 563.331 730.669, 563.962 734.698, 565.031 736.998, 565.641 739.859, 568.162 740.822, 568.716 742.916, 569.922 743.488, 570.286 744.910, 571.191 745.806, 571.761 746.351, 572.108 747.135, 572.607 747.204, 572.650 747.507, 572.843 747.566, 572.881 749.762, 574.278 750.097, 574.491 750.857, 574.975 750.861, 574.978 750.915, 575.012 752.257, 575.866 753.335, 576.552 753.599, 576.720 752.766, 576.301 " fill="none" stroke="rgb(0, 0, 0)" stroke-linecap="butt" stroke-linejoin="round" stroke-opacity="1.0" stroke-width="3.0" />
            <path d=" M 706.373, 819.802 704.832, 821.991 704.428, 822.565 704.344, 822.684 702.085, 832.426 701.406, 835.352 700.895, 839.904 701.202, 842.372 703.124, 846.920 702.598, 852.046 702.187, 856.048 " fill="none" stroke="rgb(0, 0, 0)" stroke-linecap="butt" stroke-linejoin="round" stroke-opacity="1.0" stroke-width="3.0" />
            <path d=" M 739.317, 480.794 732.342, 476.269 728.673, 473.728 723.836, 468.264 721.382, 464.203 719.579, 463.041 717.200, 461.510 717.184, 461.500 715.642, 460.507 712.705, 459.631 711.963, 459.757 709.322, 460.203 " fill="none" stroke="rgb(0, 0, 0)" stroke-linecap="butt" stroke-linejoin="round" stroke-opacity="1.0" stroke-width="3.0" />
            <path d=" M 892.370, 862.968 893.432, 860.525 894.999, 856.923 896.032, 854.239 897.432, 848.686 899.349, 844.260 899.409, 844.147 899.616, 843.751 900.110, 842.810 901.076, 840.970 901.089, 838.476 901.116, 833.480 899.498, 826.620 " fill="none" stroke="rgb(0, 0, 0)" stroke-linecap="butt" stroke-linejoin="round" stroke-opacity="1.0" stroke-width="3.0" />
            <path d=" M 565.009, 477.116 563.552, 471.202 562.454, 469.471 562.247, 469.143 562.142, 468.978 562.015, 468.779 561.732, 468.333 560.798, 468.085 560.748, 468.072 560.270, 467.945 556.524, 465.211 553.411, 464.914 551.938, 464.812 551.159, 464.944 551.041, 464.964 550.071, 465.129 549.877, 465.162 549.412, 465.240 549.145, 465.453 548.565, 465.915 547.911, 466.436 547.189, 467.011 546.808, 467.175 545.204, 467.868 545.106, 467.911 545.076, 467.953 544.926, 468.159 543.978, 469.459 543.422, 470.223 542.342, 473.045 541.980, 476.772 541.792, 478.704 " fill="none" stroke="rgb(0, 0, 0)" stroke-linecap="butt" stroke-linejoin="round" stroke-opacity="1.0" stroke-width="3.0" />
            <path d=" M 584.443, 775.670 583.360, 773.967 580.250, 769.087 580.250, 769.087 580.009, 768.709 579.537, 767.967 576.628, 764.552 574.679, 762.263 571.456, 756.850 570.763, 755.685 571.486, 756.975 576.376, 765.698 576.445, 765.822 576.646, 765.994 579.882, 768.771 580.250, 769.087 580.250, 769.087 " fill="none" stroke="rgb(0, 0, 0)" stroke-linecap="butt" stroke-linejoin="round" stroke-opacity="1.0" stroke-width="3.0" />
            <path d=" M 531.808, 655.956 528.849, 659.802 525.180, 664.572 525.020, 664.770 524.929, 664.883 524.888, 664.934 523.654, 666.462 523.526, 666.621 520.731, 670.084 520.713, 670.106 519.714, 671.344 513.975, 678.796 510.516, 682.682 506.321, 688.154 " fill="none" stroke="rgb(0, 0, 0)" stroke-linecap="butt" stroke-linejoin="round" stroke-opacity="1.0" stroke-width="3.0" />
            <path d=" M 788.402, 614.601 786.831, 622.569 787.443, 629.790 785.722, 639.183 785.623, 640.458 785.605, 640.690 785.584, 640.970 786.598, 644.670 786.854, 645.603 792.548, 653.824 792.637, 653.951 " fill="none" stroke="rgb(0, 0, 0)" stroke-linecap="butt" stroke-linejoin="round" stroke-opacity="1.0" stroke-width="3.0" />
            <path d=" M 525.435, 500.257 524.401, 501.054 522.006, 504.711 519.353, 509.742 516.965, 515.633 514.380, 523.215 514.010, 526.537 514.697, 534.850 516.138, 538.192 516.462, 538.943 " fill="none" stroke="rgb(0, 0, 0)" stroke-linecap="butt" stroke-linejoin="round" stroke-opacity="1.0" stroke-width="3.0" />
            <path d=" M 630.892, 863.531 633.190, 868.575 635.107, 872.290 635.490, 873.033 638.152, 878.065 642.049, 885.432 644.607, 888.735 649.836, 897.259 651.063, 899.260 651.562, 900.073 " fill="none" stroke="rgb(0, 0, 0)" stroke-linecap="butt" stroke-linejoin="round" stroke-opacity="1.0" stroke-width="3.0" />
            <path d=" M 569.162, 582.034 568.653, 581.908 568.623, 581.901 568.614, 581.899 568.600, 581.895 568.592, 581.893 568.574, 581.889 568.465, 581.862 564.986, 581.005 561.268, 580.646 561.214, 580.641 560.462, 580.568 559.551, 580.366 559.353, 580.322 557.729, 579.960 557.096, 579.957 555.768, 579.949 554.388, 580.482 553.856, 580.688 548.843, 585.235 547.823, 586.433 546.274, 588.254 545.332, 589.361 544.811, 589.973 544.727, 590.072 544.499, 590.339 544.244, 590.640 544.093, 591.097 543.339, 593.378 542.999, 594.671 542.003, 598.456 541.274, 602.996 " fill="none" stroke="rgb(0, 0, 0)" stroke-linecap="butt" stroke-linejoin="round" stroke-opacity="1.0" stroke-width="3.0" />
            <path d=" M 843.796, 536.582 842.558, 535.458 841.060, 534.725 840.746, 534.571 833.493, 531.020 823.900, 528.476 821.411, 527.816 818.530, 526.513 809.419, 522.392 808.722, 522.077 808.456, 521.957 804.968, 520.158 " fill="none" stroke="rgb(0, 0, 0)" stroke-linecap="butt" stroke-linejoin="round" stroke-opacity="1.0" stroke-width="3.0" />
            <path d=" M 557.653, 561.581 558.914, 556.918 560.485, 547.042 560.501, 546.940 560.737, 541.495 560.675, 536.499 561.109, 528.165 560.222, 520.243 560.134, 519.462 " fill="none" stroke="rgb(0, 0, 0)" stroke-linecap="butt" stroke-linejoin="round" stroke-opacity="1.0" stroke-width="3.0" />
            <path d=" M 659.598, 560.655 659.185, 560.692 657.935, 560.802 657.869, 560.808 656.569, 560.981 656.532, 560.986 653.848, 561.345 653.657, 561.399 650.886, 562.180 649.008, 563.049 646.491, 564.214 642.963, 565.368 642.471, 565.529 641.851, 565.731 641.338, 565.899 640.754, 566.090 638.536, 566.815 634.652, 567.834 634.236, 567.943 633.590, 568.112 628.991, 569.734 628.700, 569.836 626.597, 570.578 626.108, 570.612 620.016, 573.240 618.763, 573.781 " fill="none" stroke="rgb(0, 0, 0)" stroke-linecap="butt" stroke-linejoin="round" stroke-opacity="1.0" stroke-width="3.0" />
            <path d=" M 560.800, 714.821 560.477, 716.566 560.477, 716.566 560.426, 716.845 559.664, 720.964 560.322, 727.188 560.583, 729.654 563.291, 736.209 563.686, 741.088 567.191, 747.563 570.763, 755.685 " fill="none" stroke="rgb(0, 0, 0)" stroke-linecap="butt" stroke-linejoin="round" stroke-opacity="1.0" stroke-width="3.0" />
            <path d=" M 598.393, 517.938 596.253, 516.272 590.993, 514.709 586.420, 515.417 581.756, 517.992 579.672, 520.358 578.744, 521.615 576.832, 528.310 574.336, 531.982 573.867, 535.287 573.793, 535.889 573.634, 537.181 573.663, 536.145 573.709, 534.513 574.336, 531.982 " fill="none" stroke="rgb(0, 0, 0)" stroke-linecap="butt" stroke-linejoin="round" stroke-opacity="1.0" stroke-width="3.0" />
            <path d=" M 541.643, 601.485 541.274, 602.996 540.448, 606.383 540.438, 606.423 539.494, 610.291 539.470, 610.386 539.048, 612.117 539.039, 612.628 538.932, 618.453 538.928, 618.713 539.113, 620.077 540.536, 629.409 539.114, 636.509 536.405, 646.135 535.612, 648.953 535.399, 649.709 " fill="none" stroke="rgb(0, 0, 0)" stroke-linecap="butt" stroke-linejoin="round" stroke-opacity="1.0" stroke-width="3.0" />
            <path d=" M 776.071, 1029.606 776.254, 1029.526 776.354, 1029.482 776.476, 1029.429 777.504, 1028.978 780.218, 1027.789 784.292, 1025.062 784.439, 1024.968 788.961, 1022.074 793.406, 1018.987 801.301, 1012.849 804.172, 1010.618 811.556, 1004.626 814.561, 1001.769 815.819, 1000.492 " fill="none" stroke="rgb(0, 0, 0)" stroke-linecap="butt" stroke-linejoin="round" stroke-opacity="1.0" stroke-width="3.0" />
            <path d=" M 495.145, 597.431 492.686, 601.996 489.229, 609.933 487.474, 616.282 487.672, 621.225 491.311, 626.625 495.701, 628.025 500.115, 627.666 503.842, 627.077 508.681, 624.850 " fill="none" stroke="rgb(0, 0, 0)" stroke-linecap="butt" stroke-linejoin="round" stroke-opacity="1.0" stroke-width="3.0" />
            <path d=" M 633.710, 1034.810 634.272, 1040.013 634.292, 1040.195 634.294, 1040.218 634.297, 1040.239 634.527, 1042.371 634.545, 1042.535 635.274, 1045.164 636.485, 1049.069 636.508, 1049.143 637.280, 1051.635 639.166, 1055.079 642.343, 1059.797 648.645, 1065.491 651.861, 1067.731 654.851, 1069.813 656.169, 1071.587 657.043, 1072.762 657.263, 1073.057 659.133, 1075.574 659.220, 1075.691 659.252, 1075.734 659.290, 1075.786 " fill="none" stroke="rgb(0, 0, 0)" stroke-linecap="butt" stroke-linejoin="round" stroke-opacity="1.0" stroke-width="3.0" />
            <path d=" M 753.599, 576.720 755.478, 577.875 760.407, 580.887 764.740, 583.924 771.176, 587.324 775.269, 589.867 776.273, 591.066 776.734, 591.617 776.765, 591.653 778.618, 593.868 783.414, 599.145 783.541, 599.454 783.636, 599.685 783.737, 599.929 785.132, 603.317 785.743, 607.191 787.877, 611.756 " fill="none" stroke="rgb(0, 0, 0)" stroke-linecap="butt" stroke-linejoin="round" stroke-opacity="1.0" stroke-width="3.0" />
            <path d=" M 947.964, 796.388 949.970, 794.144 952.623, 791.175 956.192, 786.575 959.817, 781.113 964.015, 775.580 967.032, 769.632 969.622, 762.972 971.033, 758.112 972.722, 752.290 " fill="none" stroke="rgb(0, 0, 0)" stroke-linecap="butt" stroke-linejoin="round" stroke-opacity="1.0" stroke-width="3.0" />
            <path d=" M 629.822, 943.643 628.947, 944.503 628.929, 944.522 627.425, 946.000 627.176, 946.244 626.599, 946.812 626.331, 947.076 626.078, 947.324 624.370, 948.807 619.555, 949.974 618.768, 951.339 618.511, 952.066 618.505, 952.082 618.083, 953.274 618.018, 953.457 617.984, 953.552 617.554, 954.767 617.071, 956.128 617.009, 956.304 617.123, 958.737 618.513, 962.690 619.267, 964.834 619.541, 965.615 619.648, 965.786 619.947, 966.265 620.052, 966.432 621.332, 968.481 622.690, 970.657 622.821, 970.866 623.674, 971.964 623.674, 971.964 623.681, 971.973 625.635, 974.486 626.320, 975.368 627.256, 976.478 628.722, 978.216 632.204, 981.703 633.686, 983.187 " fill="none" stroke="rgb(0, 0, 0)" stroke-linecap="butt" stroke-linejoin="round" stroke-opacity="1.0" stroke-width="3.0" />
            <path d=" M 859.593, 530.078 858.030, 531.041 857.785, 531.192 856.340, 532.082 856.176, 532.211 853.910, 533.981 853.288, 534.688 852.716, 535.338 850.766, 536.649 848.543, 538.145 848.430, 538.221 847.537, 538.822 847.332, 538.960 847.012, 539.175 846.805, 539.314 846.670, 539.405 846.651, 539.418 845.266, 540.350 843.978, 541.216 835.508, 546.532 834.180, 547.365 830.681, 548.971 830.562, 549.026 828.779, 549.845 827.702, 550.339 827.405, 550.476 827.137, 550.564 827.024, 550.601 826.996, 550.611 817.500, 553.745 815.417, 554.432 814.666, 554.680 " fill="none" stroke="rgb(0, 0, 0)" stroke-linecap="butt" stroke-linejoin="round" stroke-opacity="1.0" stroke-width="3.0" />
            <path d=" M 916.500, 605.485 915.922, 604.741 915.553, 604.266 915.288, 603.924 914.506, 602.919 913.377, 601.466 913.298, 601.364 912.538, 600.387 912.347, 600.141 910.931, 598.319 910.923, 598.309 909.991, 597.110 909.989, 597.107 905.489, 592.524 905.006, 592.032 904.848, 591.871 904.382, 591.000 903.199, 588.788 903.152, 588.700 902.545, 587.567 902.439, 587.368 901.620, 585.837 901.579, 585.722 901.271, 584.871 900.158, 581.789 898.162, 580.418 897.354, 579.863 896.114, 579.010 895.551, 578.624 894.847, 578.140 894.638, 577.996 894.439, 577.553 894.122, 576.847 893.789, 576.108 891.517, 571.056 891.283, 570.535 889.341, 568.677 888.502, 567.875 887.839, 567.334 887.620, 567.156 886.657, 566.370 886.249, 566.037 884.447, 564.567 " fill="none" stroke="rgb(0, 0, 0)" stroke-linecap="butt" stroke-linejoin="round" stroke-opacity="1.0" stroke-width="3.0" />
            <path d=" M 535.366, 918.428 536.272, 918.032 538.420, 917.091 543.477, 912.706 551.810, 908.266 556.092, 906.590 559.403, 904.156 557.461, 899.016 553.682, 895.629 548.773, 893.044 545.703, 891.047 544.172, 890.051 543.555, 889.649 543.455, 889.584 541.795, 888.504 541.698, 888.441 541.140, 888.078 " fill="none" stroke="rgb(0, 0, 0)" stroke-linecap="butt" stroke-linejoin="round" stroke-opacity="1.0" stroke-width="3.0" />
            <path d=" M 576.455, 759.863 576.494, 759.943 580.476, 768.124 580.617, 768.414 580.860, 768.912 581.443, 770.111 581.794, 770.832 584.443, 775.670 588.465, 783.016 592.272, 792.371 592.462, 792.630 592.780, 793.064 594.301, 795.136 596.612, 798.284 597.469, 799.530 599.341, 802.252 602.896, 807.417 " fill="none" stroke="rgb(0, 0, 0)" stroke-linecap="butt" stroke-linejoin="round" stroke-opacity="1.0" stroke-width="3.0" />
            <path d=" M 624.803, 997.467 623.082, 995.319 620.758, 993.740 618.042, 993.911 615.298, 996.374 615.228, 998.943 618.582, 1008.364 618.900, 1009.258 620.242, 1014.757 622.113, 1018.900 622.530, 1019.643 625.283, 1027.871 630.628, 1036.074 " fill="none" stroke="rgb(0, 0, 0)" stroke-linecap="butt" stroke-linejoin="round" stroke-opacity="1.0" stroke-width="3.0" />
            <path d=" M 899.567, 827.709 899.498, 826.620 899.091, 820.137 901.494, 817.816 902.417, 813.306 905.052, 808.614 906.698, 801.569 907.607, 798.425 908.120, 796.651 908.428, 795.586 911.547, 787.767 911.403, 783.877 910.480, 779.660 910.211, 778.575 909.710, 776.555 909.717, 775.655 " fill="none" stroke="rgb(0, 0, 0)" stroke-linecap="butt" stroke-linejoin="round" stroke-opacity="1.0" stroke-width="3.0" />
            <path d=" M 533.306, 934.272 534.743, 936.207 537.066, 936.689 538.722, 936.939 543.904, 939.639 549.092, 942.006 551.519, 942.906 552.517, 943.185 556.352, 944.279 559.744, 945.293 562.205, 946.260 565.940, 945.603 571.625, 948.435 578.248, 950.158 585.999, 952.623 " fill="none" stroke="rgb(0, 0, 0)" stroke-linecap="butt" stroke-linejoin="round" stroke-opacity="1.0" stroke-width="3.0" />
            <path d=" M 848.436, 688.393 846.924, 682.539 844.993, 678.094 844.394, 677.581 839.948, 673.771 839.357, 671.886 837.535, 666.074 836.844, 663.719 835.447, 658.964 833.753, 655.054 833.718, 654.972 832.644, 652.493 832.642, 652.488 832.576, 652.337 832.239, 651.557 832.237, 651.427 832.176, 646.493 832.171, 646.053 832.166, 645.645 832.159, 645.065 832.158, 644.981 832.585, 637.670 832.717, 635.420 " fill="none" stroke="rgb(0, 0, 0)" stroke-linecap="butt" stroke-linejoin="round" stroke-opacity="1.0" stroke-width="3.0" />
            <path d=" M 900.197, 533.640 901.060, 532.261 901.313, 531.857 904.182, 530.712 908.239, 531.233 909.570, 531.341 910.648, 531.707 910.732, 531.735 914.215, 532.917 917.854, 534.640 920.532, 536.910 923.620, 540.015 925.328, 542.927 927.858, 552.602 928.028, 553.254 928.414, 556.050 926.266, 546.546 925.328, 542.927 " fill="none" stroke="rgb(0, 0, 0)" stroke-linecap="butt" stroke-linejoin="round" stroke-opacity="1.0" stroke-width="3.0" />
            <path d=" M 795.912, 1012.560 799.760, 1010.581 808.596, 1005.898 810.436, 1004.923 815.819, 1000.492 820.505, 996.636 828.091, 990.120 834.300, 984.787 836.077, 983.838 843.793, 980.289 " fill="none" stroke="rgb(0, 0, 0)" stroke-linecap="butt" stroke-linejoin="round" stroke-opacity="1.0" stroke-width="3.0" />
            <path d=" M 615.778, 834.751 617.652, 838.965 618.685, 840.583 622.056, 845.867 622.727, 846.918 623.613, 848.308 623.626, 848.337 623.768, 848.651 624.136, 849.467 624.305, 849.841 624.576, 850.442 626.099, 853.817 626.228, 854.104 627.137, 855.949 627.400, 856.483 629.345, 860.430 630.808, 863.398 630.892, 863.531 632.892, 866.691 634.970, 869.963 635.475, 870.491 637.428, 872.529 640.863, 875.837 648.335, 882.483 649.148, 883.206 " fill="none" stroke="rgb(0, 0, 0)" stroke-linecap="butt" stroke-linejoin="round" stroke-opacity="1.0" stroke-width="3.0" />
            <path d=" M 556.888, 577.460 557.412, 576.954 557.652, 576.721 557.788, 576.590 557.858, 576.522 559.282, 575.145 559.391, 574.947 559.443, 574.852 559.760, 574.272 561.245, 571.555 563.330, 565.926 564.359, 563.146 564.203, 564.150 563.789, 566.807 563.119, 571.112 563.071, 571.418 560.703, 573.972 560.195, 574.519 559.666, 575.090 558.172, 576.700 558.115, 576.761 557.946, 576.858 557.811, 576.934 557.502, 577.110 556.888, 577.460 556.447, 577.711 556.126, 577.894 554.300, 578.932 550.323, 581.195 545.192, 582.993 544.331, 583.350 544.048, 583.466 544.041, 583.469 544.018, 583.490 544.000, 583.507 542.135, 585.232 542.112, 586.073 542.105, 586.325 542.100, 586.532 542.077, 586.702 541.636, 589.990 542.397, 593.073 542.939, 594.543 542.999, 594.671 " fill="none" stroke="rgb(0, 0, 0)" stroke-linecap="butt" stroke-linejoin="round" stroke-opacity="1.0" stroke-width="3.0" />
            <path d=" M 524.018, 852.921 523.712, 852.447 518.283, 844.049 515.650, 839.977 511.680, 830.799 510.603, 828.310 506.927, 819.011 504.757, 813.522 500.925, 804.286 498.470, 798.369 " fill="none" stroke="rgb(0, 0, 0)" stroke-linecap="butt" stroke-linejoin="round" stroke-opacity="1.0" stroke-width="3.0" />
            <path d=" M 860.461, 519.797 858.160, 516.324 855.282, 511.977 851.044, 505.115 850.109, 502.200 847.277, 498.315 845.507, 495.771 842.383, 493.575 840.041, 491.585 830.853, 487.638 830.529, 487.499 824.844, 487.891 820.038, 488.916 817.812, 490.240 815.549, 492.577 " fill="none" stroke="rgb(0, 0, 0)" stroke-linecap="butt" stroke-linejoin="round" stroke-opacity="1.0" stroke-width="3.0" />
            <path d=" M 591.934, 952.357 587.926, 952.723 585.999, 952.623 592.041, 955.097 599.890, 959.645 601.337, 960.484 604.770, 962.940 607.508, 964.899 614.761, 970.005 614.866, 970.079 619.052, 973.025 620.019, 973.706 620.497, 974.042 620.851, 974.291 621.135, 974.491 621.344, 974.638 622.264, 975.289 623.229, 975.972 628.208, 979.494 628.243, 979.519 628.459, 979.671 628.520, 979.715 632.868, 983.031 634.012, 983.811 634.029, 983.823 634.094, 983.867 " fill="none" stroke="rgb(0, 0, 0)" stroke-linecap="butt" stroke-linejoin="round" stroke-opacity="1.0" stroke-width="3.0" />
            <path d=" M 943.967, 722.487 946.070, 715.787 947.814, 708.881 950.006, 699.124 950.253, 698.025 950.151, 691.153 950.977, 684.119 950.814, 674.120 950.802, 673.434 949.995, 665.118 949.675, 664.525 947.063, 659.693 " fill="none" stroke="rgb(0, 0, 0)" stroke-linecap="butt" stroke-linejoin="round" stroke-opacity="1.0" stroke-width="3.0" />
            <path d=" M 497.718, 802.874 496.971, 795.872 497.023, 795.234 497.047, 794.938 497.402, 790.555 497.610, 787.991 498.477, 778.028 498.520, 777.530 499.596, 770.445 501.374, 762.922 503.930, 756.111 507.047, 750.785 510.181, 746.680 515.858, 740.662 " fill="none" stroke="rgb(0, 0, 0)" stroke-linecap="butt" stroke-linejoin="round" stroke-opacity="1.0" stroke-width="3.0" />
            <path d=" M 565.229, 561.659 563.653, 554.609 563.072, 548.829 562.496, 544.085 562.063, 534.094 562.011, 532.895 562.142, 524.276 562.759, 514.295 562.773, 514.070 562.906, 511.053 563.610, 503.599 564.058, 502.065 564.288, 501.279 564.711, 499.830 564.374, 496.252 564.427, 493.211 " fill="none" stroke="rgb(0, 0, 0)" stroke-linecap="butt" stroke-linejoin="round" stroke-opacity="1.0" stroke-width="3.0" />
            <path d=" M 831.444, 575.331 832.095, 574.530 836.205, 569.473 839.032, 566.637 839.495, 566.172 839.663, 565.944 839.666, 565.940 843.972, 560.085 844.454, 559.430 844.480, 559.396 846.756, 556.391 847.225, 555.772 847.735, 555.099 850.050, 553.010 853.138, 548.364 853.398, 548.169 854.209, 547.564 854.602, 547.271 855.441, 546.645 857.304, 545.254 858.135, 544.634 859.388, 543.699 861.103, 542.219 861.437, 541.930 862.670, 540.866 863.253, 540.363 863.588, 540.074 863.969, 539.746 864.062, 539.665 867.097, 537.046 868.291, 536.020 868.570, 535.780 869.016, 535.398 869.337, 535.122 869.585, 534.908 870.250, 534.338 870.305, 534.290 870.503, 534.120 870.543, 534.072 870.622, 533.978 874.568, 529.249 876.271, 526.811 875.732, 524.984 874.435, 523.315 " fill="none" stroke="rgb(0, 0, 0)" stroke-linecap="butt" stroke-linejoin="round" stroke-opacity="1.0" stroke-width="3.0" />
            <path d=" M 599.890, 959.645 603.541, 966.641 605.723, 971.113 610.449, 976.961 616.087, 982.729 616.473, 983.124 616.859, 983.760 621.283, 991.055 624.803, 997.467 626.390, 1000.360 629.414, 1007.137 631.484, 1010.459 632.742, 1012.478 632.779, 1012.538 632.978, 1012.857 633.663, 1013.956 633.947, 1014.411 633.958, 1014.430 634.556, 1015.390 634.663, 1015.560 636.514, 1018.531 638.156, 1020.582 639.421, 1022.161 639.722, 1022.537 641.726, 1025.040 " fill="none" stroke="rgb(0, 0, 0)" stroke-linecap="butt" stroke-linejoin="round" stroke-opacity="1.0" stroke-width="3.0" />
            <path d=" M 495.446, 849.427 497.155, 855.123 500.774, 862.772 505.874, 871.373 506.496, 872.422 508.733, 876.870 511.111, 881.622 515.949, 890.373 518.517, 895.019 521.088, 903.185 522.675, 913.028 524.045, 922.332 525.518, 925.812 525.868, 926.253 " fill="none" stroke="rgb(0, 0, 0)" stroke-linecap="butt" stroke-linejoin="round" stroke-opacity="1.0" stroke-width="3.0" />
            <path d=" M 577.553, 783.288 575.220, 790.156 573.714, 796.859 572.606, 804.153 571.864, 810.061 571.057, 819.879 571.022, 822.401 571.628, 827.006 572.656, 828.724 574.103, 830.102 576.209, 829.774 578.218, 827.392 579.244, 825.259 581.475, 821.357 582.286, 819.421 584.989, 815.289 585.535, 814.312 587.053, 811.594 590.412, 805.456 591.952, 802.641 592.956, 800.807 594.301, 795.136 " fill="none" stroke="rgb(0, 0, 0)" stroke-linecap="butt" stroke-linejoin="round" stroke-opacity="1.0" stroke-width="3.0" />
            <path d=" M 673.759, 479.355 674.670, 473.868 674.606, 473.642 674.462, 473.136 674.130, 471.971 673.615, 470.163 672.898, 467.641 669.382, 466.259 665.350, 467.198 658.907, 471.522 651.935, 478.692 650.290, 480.384 646.872, 484.942 645.472, 487.223 642.836, 491.673 640.242, 499.312 637.802, 506.073 636.039, 515.156 635.912, 519.542 636.203, 529.538 636.295, 532.691 637.484, 535.651 642.264, 537.543 643.447, 539.592 643.714, 540.055 " fill="none" stroke="rgb(0, 0, 0)" stroke-linecap="butt" stroke-linejoin="round" stroke-opacity="1.0" stroke-width="3.0" />
            <path d=" M 766.307, 561.443 764.069, 560.509 759.421, 558.569 753.418, 557.550 749.660, 555.578 749.093, 555.280 748.808, 555.130 748.801, 555.128 741.140, 552.350 737.809, 551.971 736.903, 551.867 734.665, 551.551 729.275, 550.789 721.951, 548.861 713.248, 547.271 710.591, 547.023 700.634, 546.095 692.210, 545.309 692.183, 545.312 691.842, 545.349 686.873, 545.892 681.138, 547.162 675.735, 548.059 672.127, 549.719 667.192, 555.484 667.007, 555.751 665.336, 557.701 665.305, 557.737 664.483, 558.696 663.164, 559.040 663.069, 559.065 662.414, 559.236 660.522, 560.190 659.598, 560.655 658.561, 561.178 " fill="none" stroke="rgb(0, 0, 0)" stroke-linecap="butt" stroke-linejoin="round" stroke-opacity="1.0" stroke-width="3.0" />
            <path d=" M 818.797, 522.939 819.407, 521.722 819.727, 521.086 824.610, 518.426 825.117, 516.182 825.136, 514.936 823.192, 507.396 822.849, 506.069 822.226, 504.819 818.946, 498.244 818.886, 498.123 818.558, 497.466 818.542, 497.436 818.474, 497.304 817.542, 495.514 815.549, 492.577 813.445, 489.478 813.160, 489.057 811.191, 486.196 810.875, 485.737 810.844, 485.692 810.138, 484.666 807.234, 481.032 800.763, 474.544 792.833, 468.452 788.324, 464.989 782.056, 462.419 776.053, 458.818 770.173, 455.422 766.291, 456.832 763.682, 459.017 759.359, 461.870 756.598, 462.448 754.008, 465.275 752.256, 467.186 " fill="none" stroke="rgb(0, 0, 0)" stroke-linecap="butt" stroke-linejoin="round" stroke-opacity="1.0" stroke-width="3.0" />
            <path d=" M 841.106, 981.211 843.793, 980.289 848.806, 978.570 856.552, 975.360 861.605, 972.985 866.313, 970.468 870.895, 968.617 877.577, 964.168 881.757, 962.331 889.775, 956.355 893.782, 953.368 899.393, 946.378 902.575, 942.328 905.113, 937.443 909.150, 929.155 910.728, 925.065 912.378, 920.603 913.793, 915.727 915.730, 909.007 916.376, 906.213 915.960, 901.188 913.956, 898.332 " fill="none" stroke="rgb(0, 0, 0)" stroke-linecap="butt" stroke-linejoin="round" stroke-opacity="1.0" stroke-width="3.0" />
            <path d=" M 823.900, 528.476 819.236, 526.128 813.020, 523.000 810.081, 521.287 806.848, 519.404 804.251, 517.060 804.140, 516.959 801.981, 515.010 801.318, 514.411 801.102, 514.216 799.672, 512.925 799.302, 512.591 799.239, 512.535 799.035, 512.350 797.461, 510.930 797.346, 510.818 796.810, 510.298 793.876, 507.452 790.444, 503.522 790.323, 503.383 785.885, 498.302 785.534, 497.900 784.560, 496.277 784.427, 496.057 781.265, 490.791 781.227, 490.727 780.855, 490.108 780.468, 489.514 776.694, 483.716 775.795, 483.121 774.327, 482.148 772.830, 481.287 772.271, 480.965 769.672, 479.863 760.698, 478.574 756.469, 480.139 755.636, 480.536 749.688, 484.061 745.281, 484.976 741.863, 485.685 735.520, 485.934 729.451, 486.172 719.761, 483.700 718.411, 483.355 708.806, 482.721 702.667, 484.691 697.856, 486.234 " fill="none" stroke="rgb(0, 0, 0)" stroke-linecap="butt" stroke-linejoin="round" stroke-opacity="1.0" stroke-width="3.0" />
            <path d=" M 971.033, 758.112 974.223, 748.634 974.566, 747.613 976.783, 739.376 978.759, 729.573 979.388, 726.449 980.862, 716.679 981.476, 708.296 981.606, 705.352 981.631, 695.352 981.636, 693.266 980.613, 683.318 980.573, 682.923 978.725, 673.095 977.755, 667.933 975.386, 660.573 973.158, 655.922 969.856, 648.264 967.337, 644.860 964.657, 640.746 960.691, 636.465 955.000, 630.991 948.789, 623.759 945.080, 620.168 939.904, 613.015 " fill="none" stroke="rgb(0, 0, 0)" stroke-linecap="butt" stroke-linejoin="round" stroke-opacity="1.0" stroke-width="3.0" />
            <path d=" M 520.045, 877.110 515.497, 874.029 515.461, 874.004 512.715, 872.144 505.891, 864.835 505.153, 864.044 500.655, 858.382 495.727, 849.910 495.701, 849.867 495.446, 849.427 490.417, 840.784 489.786, 839.700 485.855, 830.505 485.093, 828.721 481.983, 819.217 478.873, 809.713 478.425, 808.345 475.768, 798.623 473.351, 788.919 472.747, 786.492 471.658, 777.021 470.894, 767.809 471.166, 760.036 471.965, 750.068 472.116, 748.190 474.162, 738.401 474.382, 737.346 477.083, 727.717 477.420, 726.513 481.049, 717.549 484.134, 710.484 485.615, 708.103 491.248, 699.840 491.353, 699.686 494.013, 690.047 494.878, 686.914 500.897, 678.928 504.089, 674.694 504.292, 674.425 509.275, 665.755 509.577, 665.230 506.205, 668.605 504.089, 674.694 " fill="none" stroke="rgb(0, 0, 0)" stroke-linecap="butt" stroke-linejoin="round" stroke-opacity="1.0" stroke-width="3.0" />
        </g>
    </g>
</svg>
