<?xml version='1.0' encoding='ascii'?>
<svg xmlns="http://www.w3.org/2000/svg" height="1280" version="1.1" width="1280">
    <g id="RenderLayer_LineSet" inkscape:groupmode="lineset" inkscape:label="RenderLayer_LineSet" xmlns:inkscape="http://www.inkscape.org/namespaces/inkscape">
        <g id="strokes" inkscape:groupmode="layer" inkscape:label="strokes" xmlns:inkscape="http://www.inkscape.org/namespaces/inkscape">
            <path d=" M 653.964, 674.433 657.133, 677.819 658.679, 679.471 660.275, 681.176 660.296, 681.198 665.900, 689.480 666.380, 690.189 " fill="none" stroke="rgb(0, 0, 0)" stroke-linecap="butt" stroke-linejoin="round" stroke-opacity="1.0" stroke-width="3.0" />
            <path d=" M 836.994, 947.606 840.008, 938.071 842.103, 931.447 843.089, 928.327 " fill="none" stroke="rgb(0, 0, 0)" stroke-linecap="butt" stroke-linejoin="round" stroke-opacity="1.0" stroke-width="3.0" />
            <path d=" M 824.961, 992.133 825.677, 990.164 827.611, 984.847 830.323, 975.222 831.008, 972.791 " fill="none" stroke="rgb(0, 0, 0)" stroke-linecap="butt" stroke-linejoin="round" stroke-opacity="1.0" stroke-width="3.0" />
            <path d=" M 770.260, 1152.534 776.026, 1160.704 776.916, 1161.964 780.010, 1162.079 780.946, 1160.715 783.299, 1157.098 " fill="none" stroke="rgb(0, 0, 0)" stroke-linecap="butt" stroke-linejoin="round" stroke-opacity="1.0" stroke-width="3.0" />
            <path d=" M 670.856, 875.973 670.489, 877.145 667.233, 886.600 666.774, 887.934 663.113, 893.373 662.201, 894.728 " fill="none" stroke="rgb(0, 0, 0)" stroke-linecap="butt" stroke-linejoin="round" stroke-opacity="1.0" stroke-width="3.0" />
            <path d=" M 626.339, 1123.668 626.835, 1124.228 630.506, 1128.371 633.997, 1130.509 637.278, 1131.806 640.616, 1132.991 644.017, 1133.368 " fill="none" stroke="rgb(0, 0, 0)" stroke-linecap="butt" stroke-linejoin="round" stroke-opacity="1.0" stroke-width="3.0" />
            <path d=" M 639.621, 1053.924 639.605, 1054.020 639.722, 1055.966 640.015, 1060.830 639.761, 1061.166 638.710, 1063.695 638.211, 1064.895 638.214, 1065.010 638.993, 1070.565 639.446, 1073.795 639.520, 1074.323 " fill="none" stroke="rgb(0, 0, 0)" stroke-linecap="butt" stroke-linejoin="round" stroke-opacity="1.0" stroke-width="3.0" />
            <path d=" M 532.517, 667.339 532.188, 670.999 531.661, 676.847 531.662, 685.960 531.758, 688.346 " fill="none" stroke="rgb(0, 0, 0)" stroke-linecap="butt" stroke-linejoin="round" stroke-opacity="1.0" stroke-width="3.0" />
            <path d=" M 890.689, 757.627 886.949, 766.901 886.521, 767.962 883.998, 777.646 " fill="none" stroke="rgb(0, 0, 0)" stroke-linecap="butt" stroke-linejoin="round" stroke-opacity="1.0" stroke-width="3.0" />
            <path d=" M 917.883, 648.305 918.505, 644.356 918.715, 643.026 918.096, 637.128 917.355, 635.203 917.322, 635.117 917.273, 634.990 917.266, 634.972 917.199, 634.799 916.849, 633.890 916.591, 633.219 914.883, 628.375 914.729, 627.842 " fill="none" stroke="rgb(0, 0, 0)" stroke-linecap="butt" stroke-linejoin="round" stroke-opacity="1.0" stroke-width="3.0" />
            <path d=" M 539.259, 650.775 538.965, 654.556 538.794, 658.620 538.531, 660.386 538.914, 662.689 539.153, 663.113 539.276, 663.321 539.411, 663.549 540.799, 665.897 540.881, 666.022 542.637, 666.949 542.875, 667.025 544.221, 667.454 542.508, 667.026 " fill="none" stroke="rgb(0, 0, 0)" stroke-linecap="butt" stroke-linejoin="round" stroke-opacity="1.0" stroke-width="3.0" />
            <path d=" M 729.318, 614.053 729.231, 614.203 729.161, 614.323 724.827, 621.800 727.894, 631.318 728.365, 632.781 728.383, 632.835 728.411, 633.672 728.423, 634.051 " fill="none" stroke="rgb(0, 0, 0)" stroke-linecap="butt" stroke-linejoin="round" stroke-opacity="1.0" stroke-width="3.0" />
            <path d=" M 632.008, 708.210 631.959, 708.341 629.282, 715.433 627.331, 725.241 626.970, 727.055 626.531, 729.259 " fill="none" stroke="rgb(0, 0, 0)" stroke-linecap="butt" stroke-linejoin="round" stroke-opacity="1.0" stroke-width="3.0" />
            <path d=" M 917.528, 727.678 923.920, 719.988 926.029, 717.450 919.396, 714.119 918.288, 713.563 " fill="none" stroke="rgb(0, 0, 0)" stroke-linecap="butt" stroke-linejoin="round" stroke-opacity="1.0" stroke-width="3.0" />
            <path d=" M 928.948, 586.826 929.501, 585.183 931.113, 579.889 933.198, 571.728 934.192, 565.418 " fill="none" stroke="rgb(0, 0, 0)" stroke-linecap="butt" stroke-linejoin="round" stroke-opacity="1.0" stroke-width="3.0" />
            <path d=" M 728.842, 1146.725 730.573, 1145.624 731.574, 1144.986 733.554, 1143.726 735.837, 1143.301 740.119, 1142.503 740.367, 1142.415 744.424, 1138.313 744.767, 1135.068 744.793, 1134.824 744.816, 1134.606 744.822, 1134.546 " fill="none" stroke="rgb(0, 0, 0)" stroke-linecap="butt" stroke-linejoin="round" stroke-opacity="1.0" stroke-width="3.0" />
            <path d=" M 622.691, 988.157 622.903, 988.755 623.008, 989.051 623.023, 989.093 623.527, 990.514 623.678, 990.937 624.959, 994.545 626.298, 998.991 626.798, 1000.064 628.209, 1003.097 628.332, 1003.362 630.553, 1009.176 " fill="none" stroke="rgb(0, 0, 0)" stroke-linecap="butt" stroke-linejoin="round" stroke-opacity="1.0" stroke-width="3.0" />
            <path d=" M 556.962, 586.704 555.197, 589.979 554.710, 590.993 554.174, 592.109 554.074, 592.316 553.524, 593.462 553.454, 593.609 552.379, 595.907 550.691, 599.328 548.761, 602.674 546.855, 606.834 " fill="none" stroke="rgb(0, 0, 0)" stroke-linecap="butt" stroke-linejoin="round" stroke-opacity="1.0" stroke-width="3.0" />
            <path d=" M 587.920, 700.727 589.312, 698.962 589.629, 699.090 592.282, 700.160 594.585, 700.021 595.786, 699.607 596.326, 694.552 596.224, 693.603 595.354, 691.486 592.131, 687.345 " fill="none" stroke="rgb(0, 0, 0)" stroke-linecap="butt" stroke-linejoin="round" stroke-opacity="1.0" stroke-width="3.0" />
            <path d=" M 829.772, 976.854 831.008, 972.791 832.687, 967.276 834.775, 957.497 835.323, 954.931 " fill="none" stroke="rgb(0, 0, 0)" stroke-linecap="butt" stroke-linejoin="round" stroke-opacity="1.0" stroke-width="3.0" />
            <path d=" M 675.197, 1195.482 673.262, 1200.047 673.667, 1202.509 675.890, 1205.578 679.787, 1208.071 682.785, 1208.496 685.191, 1207.601 686.130, 1206.768 " fill="none" stroke="rgb(0, 0, 0)" stroke-linecap="butt" stroke-linejoin="round" stroke-opacity="1.0" stroke-width="3.0" />
            <path d=" M 744.767, 1135.068 745.253, 1134.762 745.822, 1134.405 746.281, 1134.625 754.489, 1138.551 757.673, 1139.086 759.257, 1139.353 759.838, 1139.868 764.034, 1143.592 764.542, 1144.042 " fill="none" stroke="rgb(0, 0, 0)" stroke-linecap="butt" stroke-linejoin="round" stroke-opacity="1.0" stroke-width="3.0" />
            <path d=" M 524.417, 507.416 524.026, 507.565 520.464, 508.925 516.056, 511.573 513.590, 512.417 510.973, 516.620 509.244, 522.389 " fill="none" stroke="rgb(0, 0, 0)" stroke-linecap="butt" stroke-linejoin="round" stroke-opacity="1.0" stroke-width="3.0" />
            <path d=" M 858.258, 366.556 856.688, 364.330 856.227, 363.934 854.779, 362.691 853.005, 361.168 850.410, 357.349 849.112, 353.354 844.583, 348.556 " fill="none" stroke="rgb(0, 0, 0)" stroke-linecap="butt" stroke-linejoin="round" stroke-opacity="1.0" stroke-width="3.0" />
            <path d=" M 864.521, 409.483 858.107, 402.943 853.764, 398.702 849.969, 392.265 849.724, 391.849 " fill="none" stroke="rgb(0, 0, 0)" stroke-linecap="butt" stroke-linejoin="round" stroke-opacity="1.0" stroke-width="3.0" />
            <path d=" M 560.736, 666.282 561.391, 666.422 562.259, 666.606 564.951, 667.180 565.223, 667.238 566.355, 667.479 567.148, 667.382 567.399, 667.352 567.741, 667.378 567.832, 667.384 568.164, 667.409 568.400, 667.386 568.437, 667.382 569.236, 667.303 572.474, 666.982 574.966, 665.915 575.464, 665.646 577.328, 662.540 577.612, 661.037 578.118, 658.358 578.165, 658.108 " fill="none" stroke="rgb(0, 0, 0)" stroke-linecap="butt" stroke-linejoin="round" stroke-opacity="1.0" stroke-width="3.0" />
            <path d=" M 542.683, 577.861 542.715, 577.870 542.724, 577.872 543.906, 578.185 549.308, 580.482 554.293, 582.649 556.586, 583.645 558.613, 584.526 559.079, 584.663 559.657, 584.832 560.632, 585.118 560.735, 585.148 560.868, 585.188 562.005, 585.521 562.164, 585.567 563.914, 586.081 564.417, 586.228 " fill="none" stroke="rgb(0, 0, 0)" stroke-linecap="butt" stroke-linejoin="round" stroke-opacity="1.0" stroke-width="3.0" />
            <path d=" M 694.832, 854.232 693.292, 857.696 692.156, 860.252 691.293, 862.193 690.596, 863.488 688.447, 867.488 686.640, 871.648 686.130, 872.821 684.926, 875.592 " fill="none" stroke="rgb(0, 0, 0)" stroke-linecap="butt" stroke-linejoin="round" stroke-opacity="1.0" stroke-width="3.0" />
            <path d=" M 746.960, 463.226 745.248, 465.261 744.789, 465.808 742.557, 468.462 738.349, 475.371 737.037, 481.208 736.896, 483.878 " fill="none" stroke="rgb(0, 0, 0)" stroke-linecap="butt" stroke-linejoin="round" stroke-opacity="1.0" stroke-width="3.0" />
            <path d=" M 599.850, 577.064 603.727, 585.207 607.768, 591.298 608.824, 593.144 612.371, 597.277 " fill="none" stroke="rgb(0, 0, 0)" stroke-linecap="butt" stroke-linejoin="round" stroke-opacity="1.0" stroke-width="3.0" />
            <path d=" M 832.610, 354.228 832.766, 351.721 832.590, 347.256 831.391, 344.249 826.857, 339.603 825.553, 338.876 825.264, 338.523 821.666, 334.123 821.640, 334.091 " fill="none" stroke="rgb(0, 0, 0)" stroke-linecap="butt" stroke-linejoin="round" stroke-opacity="1.0" stroke-width="3.0" />
            <path d=" M 538.831, 579.219 540.052, 589.144 541.041, 597.178 542.106, 603.442 " fill="none" stroke="rgb(0, 0, 0)" stroke-linecap="butt" stroke-linejoin="round" stroke-opacity="1.0" stroke-width="3.0" />
            <path d=" M 561.452, 948.926 560.459, 951.531 559.476, 954.109 556.952, 963.785 556.921, 963.904 556.712, 964.901 556.016, 968.496 555.459, 972.741 " fill="none" stroke="rgb(0, 0, 0)" stroke-linecap="butt" stroke-linejoin="round" stroke-opacity="1.0" stroke-width="3.0" />
            <path d=" M 560.040, 926.781 559.966, 929.946 559.803, 936.925 559.256, 942.741 559.438, 948.474 560.459, 951.531 " fill="none" stroke="rgb(0, 0, 0)" stroke-linecap="butt" stroke-linejoin="round" stroke-opacity="1.0" stroke-width="3.0" />
            <path d=" M 925.227, 610.927 927.949, 612.613 928.105, 612.709 928.529, 614.820 929.066, 617.491 929.114, 617.752 929.562, 620.191 930.213, 623.740 932.378, 626.895 936.080, 633.376 " fill="none" stroke="rgb(0, 0, 0)" stroke-linecap="butt" stroke-linejoin="round" stroke-opacity="1.0" stroke-width="3.0" />
            <path d=" M 596.365, 941.536 598.807, 946.315 598.818, 946.358 599.993, 950.793 602.790, 958.990 607.228, 965.268 " fill="none" stroke="rgb(0, 0, 0)" stroke-linecap="butt" stroke-linejoin="round" stroke-opacity="1.0" stroke-width="3.0" />
            <path d=" M 566.708, 687.625 567.003, 687.803 568.109, 688.470 568.519, 693.018 568.664, 694.622 570.539, 699.167 572.483, 701.823 576.782, 704.934 579.116, 704.500 579.753, 704.382 579.851, 704.364 580.223, 704.295 580.236, 704.293 582.332, 703.904 " fill="none" stroke="rgb(0, 0, 0)" stroke-linecap="butt" stroke-linejoin="round" stroke-opacity="1.0" stroke-width="3.0" />
            <path d=" M 640.841, 1054.601 640.846, 1054.663 640.919, 1055.457 641.372, 1060.366 641.388, 1060.546 641.717, 1064.122 641.594, 1070.034 641.574, 1070.970 641.576, 1071.033 641.608, 1072.403 641.610, 1072.476 641.881, 1074.568 641.989, 1075.404 642.437, 1078.864 642.676, 1080.713 642.810, 1081.749 " fill="none" stroke="rgb(0, 0, 0)" stroke-linecap="butt" stroke-linejoin="round" stroke-opacity="1.0" stroke-width="3.0" />
            <path d=" M 513.406, 626.073 513.997, 621.205 515.251, 611.283 515.445, 609.745 516.789, 602.748 517.693, 600.717 518.383, 599.164 " fill="none" stroke="rgb(0, 0, 0)" stroke-linecap="butt" stroke-linejoin="round" stroke-opacity="1.0" stroke-width="3.0" />
            <path d=" M 740.653, 1197.077 741.769, 1196.639 744.087, 1195.730 747.158, 1193.571 753.294, 1188.930 759.436, 1183.145 761.667, 1179.878 " fill="none" stroke="rgb(0, 0, 0)" stroke-linecap="butt" stroke-linejoin="round" stroke-opacity="1.0" stroke-width="3.0" />
            <path d=" M 604.892, 993.362 607.655, 992.218 609.762, 990.677 612.902, 988.456 613.964, 986.243 614.044, 984.255 613.806, 981.619 612.895, 978.995 610.686, 975.433 610.296, 972.233 610.985, 971.779 " fill="none" stroke="rgb(0, 0, 0)" stroke-linecap="butt" stroke-linejoin="round" stroke-opacity="1.0" stroke-width="3.0" />
            <path d=" M 562.164, 585.567 563.736, 586.261 565.583, 587.075 565.601, 587.083 565.705, 587.129 565.722, 587.136 566.939, 587.646 567.404, 587.841 567.409, 587.843 573.114, 590.233 576.813, 591.961 577.914, 592.475 584.961, 596.188 587.346, 597.445 " fill="none" stroke="rgb(0, 0, 0)" stroke-linecap="butt" stroke-linejoin="round" stroke-opacity="1.0" stroke-width="3.0" />
            <path d=" M 570.239, 763.966 570.633, 763.995 571.159, 764.035 571.163, 764.035 571.404, 764.053 571.931, 764.092 572.946, 764.168 575.296, 764.229 575.824, 764.142 577.494, 763.866 579.313, 762.511 580.025, 760.412 580.344, 755.605 579.373, 746.090 579.757, 744.404 " fill="none" stroke="rgb(0, 0, 0)" stroke-linecap="butt" stroke-linejoin="round" stroke-opacity="1.0" stroke-width="3.0" />
            <path d=" M 644.783, 395.351 644.664, 395.397 641.816, 396.488 637.661, 398.081 634.844, 398.366 632.013, 400.134 631.779, 400.623 630.970, 402.311 628.511, 407.445 625.188, 412.469 " fill="none" stroke="rgb(0, 0, 0)" stroke-linecap="butt" stroke-linejoin="round" stroke-opacity="1.0" stroke-width="3.0" />
            <path d=" M 575.539, 728.337 576.697, 728.827 578.172, 729.451 580.889, 730.600 585.220, 729.655 585.837, 728.719 587.212, 725.866 587.201, 722.854 585.922, 718.019 584.815, 712.709 " fill="none" stroke="rgb(0, 0, 0)" stroke-linecap="butt" stroke-linejoin="round" stroke-opacity="1.0" stroke-width="3.0" />
            <path d=" M 837.538, 943.423 837.938, 942.256 838.014, 942.034 838.106, 941.767 838.163, 941.601 838.205, 941.478 838.466, 940.717 838.536, 940.514 839.344, 938.161 840.157, 935.793 843.089, 928.327 845.962, 921.012 846.765, 918.967 847.599, 917.268 " fill="none" stroke="rgb(0, 0, 0)" stroke-linecap="butt" stroke-linejoin="round" stroke-opacity="1.0" stroke-width="3.0" />
            <path d=" M 512.543, 514.616 509.244, 522.389 509.158, 522.593 508.087, 525.116 507.762, 525.434 503.701, 529.410 501.674, 535.907 501.853, 538.793 502.446, 539.419 " fill="none" stroke="rgb(0, 0, 0)" stroke-linecap="butt" stroke-linejoin="round" stroke-opacity="1.0" stroke-width="3.0" />
            <path d=" M 667.326, 1144.602 669.471, 1149.146 670.017, 1150.302 670.019, 1150.307 670.735, 1151.824 670.829, 1152.418 672.393, 1162.295 672.502, 1162.987 672.580, 1165.528 672.611, 1166.513 672.626, 1167.003 672.576, 1167.941 672.517, 1169.047 672.499, 1169.386 672.371, 1171.796 " fill="none" stroke="rgb(0, 0, 0)" stroke-linecap="butt" stroke-linejoin="round" stroke-opacity="1.0" stroke-width="3.0" />
            <path d=" M 569.146, 904.408 568.999, 905.675 569.083, 906.362 569.245, 907.690 569.449, 909.357 570.262, 912.320 572.062, 914.972 573.547, 916.749 575.361, 917.030 576.351, 916.572 576.976, 916.282 578.974, 912.308 579.605, 909.954 579.860, 905.836 " fill="none" stroke="rgb(0, 0, 0)" stroke-linecap="butt" stroke-linejoin="round" stroke-opacity="1.0" stroke-width="3.0" />
            <path d=" M 559.496, 901.734 559.354, 910.569 559.370, 920.569 559.370, 920.674 559.966, 929.946 " fill="none" stroke="rgb(0, 0, 0)" stroke-linecap="butt" stroke-linejoin="round" stroke-opacity="1.0" stroke-width="3.0" />
            <path d=" M 556.395, 969.133 555.459, 972.741 555.436, 972.828 555.224, 974.530 555.046, 977.741 554.878, 981.719 555.742, 983.277 556.800, 984.965 560.349, 985.298 560.806, 985.158 564.561, 983.237 564.751, 983.052 565.521, 982.302 567.034, 980.828 " fill="none" stroke="rgb(0, 0, 0)" stroke-linecap="butt" stroke-linejoin="round" stroke-opacity="1.0" stroke-width="3.0" />
            <path d=" M 503.506, 650.337 504.676, 653.083 504.745, 653.246 507.283, 659.208 510.679, 667.183 513.272, 673.273 514.491, 676.354 " fill="none" stroke="rgb(0, 0, 0)" stroke-linecap="butt" stroke-linejoin="round" stroke-opacity="1.0" stroke-width="3.0" />
            <path d=" M 564.751, 983.052 565.539, 982.607 567.801, 981.330 568.811, 980.671 570.507, 979.564 572.429, 977.629 575.676, 973.211 577.942, 967.720 579.447, 962.144 579.447, 962.144 579.876, 960.555 " fill="none" stroke="rgb(0, 0, 0)" stroke-linecap="butt" stroke-linejoin="round" stroke-opacity="1.0" stroke-width="3.0" />
            <path d=" M 846.765, 918.967 847.035, 918.354 847.808, 916.599 847.876, 916.446 848.262, 915.567 851.838, 907.448 856.455, 898.578 857.402, 896.760 857.442, 896.683 857.615, 896.350 857.696, 896.194 857.722, 896.144 857.807, 895.982 857.921, 895.763 859.220, 893.267 " fill="none" stroke="rgb(0, 0, 0)" stroke-linecap="butt" stroke-linejoin="round" stroke-opacity="1.0" stroke-width="3.0" />
            <path d=" M 541.695, 613.156 539.745, 622.091 539.216, 624.512 537.598, 634.381 537.301, 636.189 538.506, 640.362 538.896, 641.714 " fill="none" stroke="rgb(0, 0, 0)" stroke-linecap="butt" stroke-linejoin="round" stroke-opacity="1.0" stroke-width="3.0" />
            <path d=" M 584.961, 596.188 586.673, 597.293 592.037, 599.966 599.615, 603.843 609.117, 606.961 609.218, 606.994 611.823, 606.980 " fill="none" stroke="rgb(0, 0, 0)" stroke-linecap="butt" stroke-linejoin="round" stroke-opacity="1.0" stroke-width="3.0" />
            <path d=" M 704.837, 775.080 705.205, 770.454 705.206, 770.440 705.319, 769.018 705.330, 768.879 705.825, 762.666 706.004, 760.416 706.223, 757.660 706.682, 756.136 709.565, 746.560 709.655, 746.260 " fill="none" stroke="rgb(0, 0, 0)" stroke-linecap="butt" stroke-linejoin="round" stroke-opacity="1.0" stroke-width="3.0" />
            <path d=" M 534.430, 626.981 534.370, 627.958 533.759, 637.939 533.404, 643.734 532.866, 650.539 532.766, 653.822 532.667, 657.093 " fill="none" stroke="rgb(0, 0, 0)" stroke-linecap="butt" stroke-linejoin="round" stroke-opacity="1.0" stroke-width="3.0" />
            <path d=" M 833.632, 960.668 834.429, 957.742 834.898, 956.022 835.069, 955.549 835.148, 955.329 835.367, 954.725 835.394, 954.650 836.741, 950.924 839.395, 941.282 842.103, 931.447 " fill="none" stroke="rgb(0, 0, 0)" stroke-linecap="butt" stroke-linejoin="round" stroke-opacity="1.0" stroke-width="3.0" />
            <path d=" M 814.095, 1021.392 814.353, 1020.701 816.656, 1014.537 820.015, 1005.118 821.671, 1000.475 821.877, 999.706 823.832, 992.414 " fill="none" stroke="rgb(0, 0, 0)" stroke-linecap="butt" stroke-linejoin="round" stroke-opacity="1.0" stroke-width="3.0" />
            <path d=" M 584.046, 678.690 583.740, 676.066 581.877, 666.241 581.611, 664.842 581.010, 659.128 580.723, 654.999 580.792, 649.812 580.935, 647.355 " fill="none" stroke="rgb(0, 0, 0)" stroke-linecap="butt" stroke-linejoin="round" stroke-opacity="1.0" stroke-width="3.0" />
            <path d=" M 919.601, 432.868 917.303, 428.127 910.738, 420.584 908.646, 418.180 905.426, 414.091 901.414, 410.715 899.255, 408.898 " fill="none" stroke="rgb(0, 0, 0)" stroke-linecap="butt" stroke-linejoin="round" stroke-opacity="1.0" stroke-width="3.0" />
            <path d=" M 936.726, 544.658 935.192, 554.539 934.526, 558.834 934.576, 561.907 934.579, 562.092 934.592, 562.879 934.596, 563.138 934.599, 563.299 934.606, 563.737 934.606, 563.754 935.008, 562.107 935.072, 560.868 935.152, 559.324 935.684, 556.895 936.915, 551.274 " fill="none" stroke="rgb(0, 0, 0)" stroke-linecap="butt" stroke-linejoin="round" stroke-opacity="1.0" stroke-width="3.0" />
            <path d=" M 669.580, 1169.009 666.232, 1168.931 662.676, 1168.856 659.644, 1168.639 656.266, 1169.042 654.810, 1171.431 656.811, 1178.499 658.973, 1182.315 662.446, 1185.978 " fill="none" stroke="rgb(0, 0, 0)" stroke-linecap="butt" stroke-linejoin="round" stroke-opacity="1.0" stroke-width="3.0" />
            <path d=" M 713.499, 1208.696 715.080, 1210.210 723.862, 1209.071 727.824, 1206.025 731.643, 1202.915 735.471, 1201.522 740.755, 1197.793 741.769, 1196.639 " fill="none" stroke="rgb(0, 0, 0)" stroke-linecap="butt" stroke-linejoin="round" stroke-opacity="1.0" stroke-width="3.0" />
            <path d=" M 559.757, 872.351 559.687, 876.193 557.970, 879.016 557.643, 879.594 557.432, 884.051 557.368, 885.407 557.308, 887.123 558.054, 890.286 558.129, 890.603 558.299, 891.325 558.664, 891.902 558.812, 892.137 560.767, 895.227 560.970, 895.406 562.231, 896.522 564.525, 897.927 566.172, 897.285 566.959, 896.978 567.124, 896.914 568.419, 895.668 " fill="none" stroke="rgb(0, 0, 0)" stroke-linecap="butt" stroke-linejoin="round" stroke-opacity="1.0" stroke-width="3.0" />
            <path d=" M 606.308, 962.731 607.228, 965.268 607.855, 966.997 608.196, 967.940 608.307, 968.245 608.341, 968.339 608.986, 969.179 609.049, 969.260 609.911, 970.381 610.439, 971.068 610.611, 971.292 610.985, 971.779 614.928, 976.908 617.807, 980.652 620.828, 985.297 622.687, 988.154 622.691, 988.157 623.082, 988.532 623.247, 988.690 623.322, 988.761 623.365, 988.802 623.785, 989.204 625.030, 990.395 " fill="none" stroke="rgb(0, 0, 0)" stroke-linecap="butt" stroke-linejoin="round" stroke-opacity="1.0" stroke-width="3.0" />
            <path d=" M 498.298, 654.097 498.479, 655.169 499.377, 660.473 500.779, 664.420 503.077, 674.152 503.365, 675.372 503.803, 680.730 504.114, 682.940 505.784, 686.929 " fill="none" stroke="rgb(0, 0, 0)" stroke-linecap="butt" stroke-linejoin="round" stroke-opacity="1.0" stroke-width="3.0" />
            <path d=" M 534.432, 472.799 534.061, 473.876 533.334, 477.817 530.171, 484.850 526.874, 493.146 524.246, 502.795 523.940, 503.918 524.026, 507.565 " fill="none" stroke="rgb(0, 0, 0)" stroke-linecap="butt" stroke-linejoin="round" stroke-opacity="1.0" stroke-width="3.0" />
            <path d=" M 628.260, 1000.316 629.006, 1003.201 629.635, 1005.632 630.553, 1009.176 630.707, 1009.774 630.948, 1010.212 632.433, 1012.912 632.476, 1012.994 634.587, 1016.992 634.815, 1017.424 635.298, 1018.999 637.303, 1025.542 639.515, 1032.893 640.099, 1034.834 " fill="none" stroke="rgb(0, 0, 0)" stroke-linecap="butt" stroke-linejoin="round" stroke-opacity="1.0" stroke-width="3.0" />
            <path d=" M 614.267, 872.894 614.021, 872.676 612.937, 871.712 612.488, 871.313 609.639, 868.781 604.294, 861.804 598.212, 853.866 598.100, 853.720 598.009, 853.622 595.300, 850.677 595.231, 850.602 594.894, 850.235 593.642, 848.874 593.573, 848.800 593.504, 848.725 592.585, 847.726 591.130, 846.145 591.123, 846.137 589.953, 844.865 " fill="none" stroke="rgb(0, 0, 0)" stroke-linecap="butt" stroke-linejoin="round" stroke-opacity="1.0" stroke-width="3.0" />
            <path d=" M 627.253, 1104.716 624.864, 1103.768 621.284, 1103.626 617.970, 1103.743 615.409, 1104.545 613.808, 1107.891 613.898, 1109.777 617.824, 1115.217 620.467, 1118.615 622.736, 1121.201 625.659, 1123.229 626.835, 1124.228 " fill="none" stroke="rgb(0, 0, 0)" stroke-linecap="butt" stroke-linejoin="round" stroke-opacity="1.0" stroke-width="3.0" />
            <path d=" M 517.693, 600.717 519.683, 596.533 521.765, 593.879 526.143, 587.315 533.355, 581.931 538.625, 579.321 538.831, 579.219 540.066, 578.607 541.959, 577.670 542.755, 577.275 542.799, 577.253 542.842, 577.232 544.032, 576.643 544.659, 576.332 " fill="none" stroke="rgb(0, 0, 0)" stroke-linecap="butt" stroke-linejoin="round" stroke-opacity="1.0" stroke-width="3.0" />
            <path d=" M 556.081, 461.521 555.860, 461.301 553.189, 460.272 546.310, 457.410 543.176, 457.563 539.780, 458.896 537.576, 462.109 534.534, 471.705 534.432, 472.799 533.957, 477.902 " fill="none" stroke="rgb(0, 0, 0)" stroke-linecap="butt" stroke-linejoin="round" stroke-opacity="1.0" stroke-width="3.0" />
            <path d=" M 708.046, 749.258 709.655, 746.260 711.609, 742.619 714.787, 735.650 719.137, 727.892 720.294, 726.364 720.307, 726.347 720.553, 726.021 721.395, 724.911 721.525, 724.710 722.556, 723.128 724.077, 720.792 724.877, 715.901 " fill="none" stroke="rgb(0, 0, 0)" stroke-linecap="butt" stroke-linejoin="round" stroke-opacity="1.0" stroke-width="3.0" />
            <path d=" M 785.733, 1135.151 787.190, 1131.841 788.867, 1125.730 791.892, 1119.113 793.451, 1116.912 793.899, 1112.373 796.883, 1102.829 797.300, 1101.494 797.842, 1099.760 " fill="none" stroke="rgb(0, 0, 0)" stroke-linecap="butt" stroke-linejoin="round" stroke-opacity="1.0" stroke-width="3.0" />
            <path d=" M 674.050, 708.982 674.069, 708.761 674.321, 705.842 671.806, 706.697 670.656, 707.609 667.618, 709.579 666.015, 715.295 665.583, 725.286 665.453, 728.284 665.659, 734.749 665.282, 736.840 " fill="none" stroke="rgb(0, 0, 0)" stroke-linecap="butt" stroke-linejoin="round" stroke-opacity="1.0" stroke-width="3.0" />
            <path d=" M 491.603, 617.608 491.565, 617.797 491.275, 622.992 492.206, 632.949 492.285, 633.791 493.341, 638.470 494.344, 643.746 496.046, 648.249 498.479, 655.169 " fill="none" stroke="rgb(0, 0, 0)" stroke-linecap="butt" stroke-linejoin="round" stroke-opacity="1.0" stroke-width="3.0" />
            <path d=" M 890.415, 438.711 889.840, 438.050 885.736, 433.333 880.217, 426.869 880.021, 426.466 879.794, 426.000 878.682, 423.719 877.118, 421.458 875.448, 419.444 873.284, 417.167 870.978, 414.742 869.779, 413.765 869.699, 413.700 868.859, 413.016 864.521, 409.483 864.056, 409.104 " fill="none" stroke="rgb(0, 0, 0)" stroke-linecap="butt" stroke-linejoin="round" stroke-opacity="1.0" stroke-width="3.0" />
            <path d=" M 542.078, 845.592 544.619, 851.392 547.800, 857.120 548.168, 857.783 551.681, 862.933 557.185, 869.363 559.757, 872.351 559.908, 872.527 565.221, 878.702 " fill="none" stroke="rgb(0, 0, 0)" stroke-linecap="butt" stroke-linejoin="round" stroke-opacity="1.0" stroke-width="3.0" />
            <path d=" M 573.517, 996.173 573.637, 997.562 574.755, 998.957 576.819, 999.942 578.677, 1000.607 580.474, 1000.051 582.392, 998.741 584.374, 999.982 584.815, 1000.253 589.079, 1001.187 590.777, 999.203 592.398, 998.040 593.672, 995.366 594.952, 993.167 599.337, 992.640 603.832, 994.023 604.892, 993.362 606.140, 992.582 " fill="none" stroke="rgb(0, 0, 0)" stroke-linecap="butt" stroke-linejoin="round" stroke-opacity="1.0" stroke-width="3.0" />
            <path d=" M 857.605, 310.329 857.602, 310.309 857.535, 309.901 857.020, 306.763 856.465, 304.020 854.476, 301.331 850.476, 299.204 847.795, 298.925 845.693, 299.232 842.680, 299.759 840.361, 300.033 837.113, 300.433 834.330, 301.295 831.232, 301.242 823.505, 303.210 " fill="none" stroke="rgb(0, 0, 0)" stroke-linecap="butt" stroke-linejoin="round" stroke-opacity="1.0" stroke-width="3.0" />
            <path d=" M 923.500, 447.123 922.742, 441.553 922.368, 440.126 917.167, 432.471 912.603, 426.092 908.492, 419.220 901.406, 412.453 " fill="none" stroke="rgb(0, 0, 0)" stroke-linecap="butt" stroke-linejoin="round" stroke-opacity="1.0" stroke-width="3.0" />
            <path d=" M 939.526, 776.677 941.739, 769.418 942.672, 766.540 943.293, 762.062 944.128, 756.876 944.311, 754.888 943.029, 751.128 940.505, 747.602 940.546, 740.673 938.109, 738.887 937.372, 738.907 936.687, 739.087 " fill="none" stroke="rgb(0, 0, 0)" stroke-linecap="butt" stroke-linejoin="round" stroke-opacity="1.0" stroke-width="3.0" />
            <path d=" M 657.279, 676.326 658.597, 678.282 658.740, 678.495 660.445, 681.026 660.970, 681.804 664.896, 687.631 666.380, 690.189 669.890, 696.239 675.234, 702.230 677.980, 707.078 678.133, 707.347 678.214, 707.490 678.256, 707.564 680.398, 711.346 680.418, 711.381 " fill="none" stroke="rgb(0, 0, 0)" stroke-linecap="butt" stroke-linejoin="round" stroke-opacity="1.0" stroke-width="3.0" />
            <path d=" M 538.237, 585.968 538.011, 587.656 537.977, 587.916 537.331, 592.754 536.854, 597.590 536.362, 602.250 535.673, 608.781 535.080, 613.984 535.255, 617.672 534.450, 623.899 534.370, 627.958 " fill="none" stroke="rgb(0, 0, 0)" stroke-linecap="butt" stroke-linejoin="round" stroke-opacity="1.0" stroke-width="3.0" />
            <path d=" M 519.338, 658.546 518.499, 655.576 516.541, 648.643 515.345, 644.408 512.626, 636.065 511.301, 627.575 511.221, 627.063 511.219, 627.052 511.180, 626.800 510.468, 622.242 509.449, 617.236 " fill="none" stroke="rgb(0, 0, 0)" stroke-linecap="butt" stroke-linejoin="round" stroke-opacity="1.0" stroke-width="3.0" />
            <path d=" M 924.227, 741.813 924.845, 740.411 925.362, 739.236 925.446, 739.044 927.247, 734.954 927.467, 733.453 927.476, 733.387 928.013, 729.700 928.693, 725.040 927.608, 717.378 925.980, 712.241 926.053, 708.526 927.931, 703.903 926.333, 700.554 " fill="none" stroke="rgb(0, 0, 0)" stroke-linecap="butt" stroke-linejoin="round" stroke-opacity="1.0" stroke-width="3.0" />
            <path d=" M 521.422, 753.548 522.170, 763.520 522.393, 766.485 523.522, 772.207 525.853, 781.889 529.045, 791.366 530.459, 795.565 " fill="none" stroke="rgb(0, 0, 0)" stroke-linecap="butt" stroke-linejoin="round" stroke-opacity="1.0" stroke-width="3.0" />
            <path d=" M 700.359, 1169.002 701.521, 1169.678 704.730, 1171.544 706.874, 1171.480 706.883, 1171.480 709.413, 1170.092 710.976, 1168.321 713.057, 1165.962 717.877, 1160.500 722.442, 1155.189 728.474, 1147.213 728.842, 1146.725 730.883, 1144.027 " fill="none" stroke="rgb(0, 0, 0)" stroke-linecap="butt" stroke-linejoin="round" stroke-opacity="1.0" stroke-width="3.0" />
            <path d=" M 849.969, 392.265 849.787, 391.640 847.563, 389.034 845.170, 385.826 842.718, 382.539 840.814, 379.143 839.757, 377.257 837.789, 372.628 837.670, 372.349 837.200, 371.243 833.629, 365.455 832.961, 358.730 832.610, 354.228 832.471, 352.444 " fill="none" stroke="rgb(0, 0, 0)" stroke-linecap="butt" stroke-linejoin="round" stroke-opacity="1.0" stroke-width="3.0" />
            <path d=" M 777.251, 421.175 773.396, 423.972 772.285, 424.779 771.355, 425.564 770.588, 426.212 769.197, 427.387 766.207, 429.911 764.632, 431.241 762.528, 433.378 762.463, 433.442 756.884, 438.936 756.776, 439.042 756.666, 439.151 756.533, 439.282 754.698, 441.110 754.353, 443.259 754.215, 444.116 753.429, 449.011 749.853, 454.729 " fill="none" stroke="rgb(0, 0, 0)" stroke-linecap="butt" stroke-linejoin="round" stroke-opacity="1.0" stroke-width="3.0" />
            <path d=" M 688.122, 817.318 689.379, 821.012 692.797, 830.011 693.420, 836.931 693.605, 840.205 694.541, 850.161 694.603, 850.816 694.809, 853.899 694.832, 854.232 694.856, 854.604 694.910, 855.402 694.953, 856.049 695.043, 857.394 695.045, 857.415 695.445, 862.474 " fill="none" stroke="rgb(0, 0, 0)" stroke-linecap="butt" stroke-linejoin="round" stroke-opacity="1.0" stroke-width="3.0" />
            <path d=" M 957.424, 704.845 958.885, 701.302 958.933, 697.489 962.063, 692.888 966.103, 684.474 969.586, 675.100 970.101, 673.715 971.293, 668.188 972.019, 664.714 972.638, 661.752 " fill="none" stroke="rgb(0, 0, 0)" stroke-linecap="butt" stroke-linejoin="round" stroke-opacity="1.0" stroke-width="3.0" />
            <path d=" M 547.246, 773.958 547.577, 773.283 549.106, 770.166 549.108, 770.162 549.125, 770.128 549.238, 769.898 549.840, 768.670 550.305, 767.721 554.402, 761.306 554.915, 760.504 556.287, 758.354 556.301, 758.332 557.195, 756.933 558.508, 754.876 558.582, 754.761 558.639, 754.706 558.759, 754.590 565.957, 747.648 567.842, 745.829 567.855, 745.817 567.916, 745.758 572.497, 741.118 571.248, 742.282 567.834, 744.953 567.817, 744.966 566.527, 745.975 " fill="none" stroke="rgb(0, 0, 0)" stroke-linecap="butt" stroke-linejoin="round" stroke-opacity="1.0" stroke-width="3.0" />
            <path d=" M 640.290, 842.802 640.156, 847.728 639.962, 848.256 639.541, 849.404 638.766, 851.517 638.672, 851.774 635.228, 861.163 635.123, 861.449 634.682, 865.874 634.666, 866.032 634.635, 866.344 633.082, 869.555 625.901, 873.893 621.199, 873.865 617.551, 872.915 612.937, 871.712 " fill="none" stroke="rgb(0, 0, 0)" stroke-linecap="butt" stroke-linejoin="round" stroke-opacity="1.0" stroke-width="3.0" />
            <path d=" M 572.088, 881.523 567.943, 880.498 565.221, 878.702 572.625, 884.048 572.776, 884.157 573.990, 885.034 582.659, 890.018 582.929, 890.172 583.025, 890.228 584.500, 891.076 584.609, 891.139 585.138, 891.443 587.788, 892.966 587.854, 893.006 588.158, 893.192 588.209, 893.224 588.225, 893.233 588.244, 893.245 588.249, 893.248 590.121, 894.395 593.745, 896.616 595.738, 897.836 595.745, 897.841 595.778, 897.861 596.348, 898.210 596.711, 898.433 596.764, 898.465 598.172, 899.327 598.456, 899.501 598.658, 899.625 601.561, 901.404 " fill="none" stroke="rgb(0, 0, 0)" stroke-linecap="butt" stroke-linejoin="round" stroke-opacity="1.0" stroke-width="3.0" />
            <path d=" M 645.592, 658.174 645.447, 658.643 643.378, 663.912 641.368, 673.708 641.047, 675.273 639.374, 680.070 637.349, 686.917 636.328, 692.512 633.614, 701.334 631.959, 708.341 " fill="none" stroke="rgb(0, 0, 0)" stroke-linecap="butt" stroke-linejoin="round" stroke-opacity="1.0" stroke-width="3.0" />
            <path d=" M 547.800, 857.120 548.912, 863.703 551.320, 873.409 552.773, 879.265 555.266, 885.139 557.896, 890.590 558.164, 891.144 558.220, 891.261 558.943, 892.758 559.271, 893.438 559.451, 894.320 561.111, 902.434 560.934, 908.370 " fill="none" stroke="rgb(0, 0, 0)" stroke-linecap="butt" stroke-linejoin="round" stroke-opacity="1.0" stroke-width="3.0" />
            <path d=" M 938.378, 540.241 938.576, 539.276 938.629, 539.019 939.272, 535.887 939.363, 535.443 940.497, 529.924 941.207, 523.142 943.439, 516.649 943.008, 507.831 943.586, 499.262 943.200, 496.055 942.818, 492.219 941.959, 487.573 " fill="none" stroke="rgb(0, 0, 0)" stroke-linecap="butt" stroke-linejoin="round" stroke-opacity="1.0" stroke-width="3.0" />
            <path d=" M 580.515, 645.037 580.613, 642.344 580.914, 634.153 581.503, 624.952 580.867, 616.231 579.553, 608.293 577.346, 598.539 577.258, 598.147 576.813, 591.961 " fill="none" stroke="rgb(0, 0, 0)" stroke-linecap="butt" stroke-linejoin="round" stroke-opacity="1.0" stroke-width="3.0" />
            <path d=" M 630.948, 1010.212 631.992, 1012.944 632.195, 1013.548 635.388, 1023.025 635.561, 1023.538 636.858, 1029.697 637.545, 1037.853 637.648, 1039.073 637.970, 1041.766 638.563, 1046.728 638.502, 1048.537 638.469, 1049.503 639.128, 1050.937 639.621, 1053.924 639.937, 1055.841 640.373, 1058.485 640.457, 1060.710 640.504, 1061.969 640.537, 1062.842 " fill="none" stroke="rgb(0, 0, 0)" stroke-linecap="butt" stroke-linejoin="round" stroke-opacity="1.0" stroke-width="3.0" />
            <path d=" M 789.460, 309.807 785.040, 308.536 782.051, 307.677 780.962, 307.364 779.693, 306.442 773.630, 302.034 765.168, 296.707 764.693, 296.408 756.541, 292.662 750.686, 290.078 744.651, 288.265 739.650, 288.408 " fill="none" stroke="rgb(0, 0, 0)" stroke-linecap="butt" stroke-linejoin="round" stroke-opacity="1.0" stroke-width="3.0" />
            <path d=" M 585.281, 893.234 586.749, 903.125 587.127, 905.669 587.366, 907.023 587.368, 907.035 587.795, 909.454 588.201, 911.755 588.215, 911.837 588.291, 912.269 588.398, 912.873 588.557, 913.717 588.721, 914.580 588.755, 914.763 589.077, 916.464 589.306, 917.678 589.373, 917.911 590.405, 921.551 591.264, 924.576 593.768, 934.258 595.221, 939.873 598.818, 946.358 " fill="none" stroke="rgb(0, 0, 0)" stroke-linecap="butt" stroke-linejoin="round" stroke-opacity="1.0" stroke-width="3.0" />
            <path d=" M 729.397, 549.753 729.241, 559.539 729.785, 569.524 729.822, 570.206 729.779, 580.206 729.771, 581.859 731.127, 587.672 731.048, 591.232 731.009, 593.016 731.005, 593.178 730.946, 595.834 730.945, 595.870 730.945, 595.883 730.854, 600.001 731.376, 603.869 731.530, 605.010 " fill="none" stroke="rgb(0, 0, 0)" stroke-linecap="butt" stroke-linejoin="round" stroke-opacity="1.0" stroke-width="3.0" />
            <path d=" M 865.758, 364.709 865.823, 360.673 865.857, 358.553 864.986, 354.503 864.736, 346.239 863.799, 340.760 862.834, 332.407 862.613, 327.788 862.124, 322.768 860.090, 316.615 859.621, 314.046 858.408, 310.872 857.535, 309.901 " fill="none" stroke="rgb(0, 0, 0)" stroke-linecap="butt" stroke-linejoin="round" stroke-opacity="1.0" stroke-width="3.0" />
            <path d=" M 921.939, 698.612 922.050, 697.147 922.060, 697.024 922.188, 695.327 922.253, 694.469 922.262, 692.621 919.288, 688.811 916.300, 683.149 918.344, 677.849 916.792, 670.650 917.567, 664.439 918.785, 660.076 917.788, 653.925 917.603, 652.710 916.999, 648.752 914.927, 645.034 " fill="none" stroke="rgb(0, 0, 0)" stroke-linecap="butt" stroke-linejoin="round" stroke-opacity="1.0" stroke-width="3.0" />
            <path d=" M 665.959, 1184.530 667.813, 1187.128 667.942, 1187.308 667.983, 1187.366 668.832, 1188.555 673.850, 1192.703 675.197, 1195.482 676.976, 1199.150 678.027, 1200.959 679.371, 1203.272 680.094, 1204.261 681.058, 1204.880 683.016, 1206.137 685.938, 1206.729 686.127, 1206.768 686.130, 1206.768 688.365, 1207.221 689.882, 1207.500 690.080, 1207.536 690.154, 1207.549 694.002, 1208.255 698.783, 1210.414 699.550, 1210.543 702.813, 1211.093 707.447, 1210.815 708.367, 1210.538 708.747, 1210.423 708.949, 1210.362 711.187, 1209.687 " fill="none" stroke="rgb(0, 0, 0)" stroke-linecap="butt" stroke-linejoin="round" stroke-opacity="1.0" stroke-width="3.0" />
            <path d=" M 763.911, 1175.876 767.357, 1173.711 767.414, 1173.676 770.035, 1171.992 772.396, 1169.422 775.456, 1167.805 777.808, 1165.284 780.048, 1163.447 781.579, 1161.659 784.409, 1155.632 785.521, 1149.845 785.587, 1139.845 785.599, 1138.080 785.733, 1135.151 786.063, 1127.965 " fill="none" stroke="rgb(0, 0, 0)" stroke-linecap="butt" stroke-linejoin="round" stroke-opacity="1.0" stroke-width="3.0" />
            <path d=" M 657.137, 677.939 657.334, 683.096 656.959, 687.671 654.634, 696.966 652.856, 700.315 654.268, 708.145 656.413, 717.912 656.522, 718.408 657.907, 728.311 658.092, 729.630 659.138, 735.607 659.171, 736.337 " fill="none" stroke="rgb(0, 0, 0)" stroke-linecap="butt" stroke-linejoin="round" stroke-opacity="1.0" stroke-width="3.0" />
            <path d=" M 625.301, 733.973 625.129, 734.179 622.476, 737.359 621.118, 738.536 620.044, 741.146 618.342, 748.789 617.591, 753.584 617.081, 758.865 615.865, 765.675 614.460, 775.034 611.737, 784.656 611.687, 784.833 610.441, 790.073 610.202, 791.065 " fill="none" stroke="rgb(0, 0, 0)" stroke-linecap="butt" stroke-linejoin="round" stroke-opacity="1.0" stroke-width="3.0" />
            <path d=" M 917.554, 634.851 918.718, 632.799 920.135, 629.701 922.726, 623.724 924.792, 614.117 925.227, 610.927 925.262, 610.671 925.267, 610.639 925.487, 609.022 925.548, 608.483 925.680, 607.304 926.490, 600.104 927.408, 592.545 928.948, 586.826 929.586, 584.457 929.184, 585.491 926.040, 593.049 " fill="none" stroke="rgb(0, 0, 0)" stroke-linecap="butt" stroke-linejoin="round" stroke-opacity="1.0" stroke-width="3.0" />
            <path d=" M 947.419, 768.828 947.559, 768.450 949.020, 764.508 949.552, 754.522 949.673, 752.232 950.842, 742.301 951.388, 737.653 952.342, 727.699 952.409, 727.000 954.337, 718.830 956.493, 709.065 957.424, 704.845 957.047, 705.143 956.858, 705.286 956.620, 705.465 955.951, 705.969 " fill="none" stroke="rgb(0, 0, 0)" stroke-linecap="butt" stroke-linejoin="round" stroke-opacity="1.0" stroke-width="3.0" />
            <path d=" M 553.638, 651.223 553.541, 645.568 553.124, 640.580 553.319, 636.280 553.402, 634.452 553.412, 634.236 553.595, 630.202 553.600, 630.099 553.636, 629.294 553.623, 628.602 553.428, 618.604 553.331, 613.601 553.285, 612.699 553.125, 609.494 552.281, 608.568 550.888, 607.039 550.373, 606.788 548.427, 606.363 547.606, 606.715 546.400, 607.478 543.540, 609.289 540.995, 613.736 539.745, 622.091 " fill="none" stroke="rgb(0, 0, 0)" stroke-linecap="butt" stroke-linejoin="round" stroke-opacity="1.0" stroke-width="3.0" />
            <path d=" M 595.922, 457.442 592.510, 464.809 591.492, 468.216 590.921, 470.129 590.904, 470.188 590.806, 470.515 589.977, 473.294 585.095, 482.021 584.355, 483.346 583.788, 485.967 583.744, 486.173 583.237, 488.518 583.743, 494.941 583.581, 495.846 583.232, 497.805 583.175, 498.124 582.723, 500.656 582.035, 504.512 582.088, 505.643 582.132, 506.549 582.169, 507.330 582.283, 509.738 582.298, 510.050 582.401, 512.209 582.546, 515.259 583.765, 521.626 " fill="none" stroke="rgb(0, 0, 0)" stroke-linecap="butt" stroke-linejoin="round" stroke-opacity="1.0" stroke-width="3.0" />
            <path d=" M 527.116, 679.519 526.523, 677.897 523.757, 668.287 523.657, 667.942 519.975, 658.756 518.029, 650.494 517.095, 646.098 514.661, 636.399 513.993, 633.738 513.406, 626.073 512.642, 616.102 512.482, 614.003 " fill="none" stroke="rgb(0, 0, 0)" stroke-linecap="butt" stroke-linejoin="round" stroke-opacity="1.0" stroke-width="3.0" />
            <path d=" M 629.810, 620.687 630.878, 623.380 631.149, 624.062 631.151, 624.068 633.374, 629.671 636.464, 637.459 640.197, 646.736 641.566, 650.139 641.751, 650.539 645.592, 658.174 646.907, 660.788 650.716, 668.795 653.964, 674.433 657.137, 677.939 658.669, 679.631 659.134, 680.145 660.275, 681.176 " fill="none" stroke="rgb(0, 0, 0)" stroke-linecap="butt" stroke-linejoin="round" stroke-opacity="1.0" stroke-width="3.0" />
            <path d=" M 528.558, 777.305 529.593, 787.251 530.459, 795.565 530.463, 795.611 531.475, 805.560 532.486, 815.509 532.550, 816.133 534.731, 825.893 534.796, 826.187 537.164, 833.718 540.185, 842.406 542.078, 845.592 542.673, 846.592 " fill="none" stroke="rgb(0, 0, 0)" stroke-linecap="butt" stroke-linejoin="round" stroke-opacity="1.0" stroke-width="3.0" />
            <path d=" M 862.983, 369.864 863.606, 370.094 865.523, 370.800 865.750, 370.916 867.023, 371.566 867.949, 372.857 869.617, 375.182 871.227, 377.427 871.706, 377.831 877.223, 382.486 877.947, 383.228 882.077, 387.788 882.198, 387.933 883.152, 389.077 884.071, 390.180 889.094, 396.203 890.462, 397.999 890.705, 398.318 891.502, 399.365 892.500, 400.676 894.453, 403.242 898.254, 407.719 899.255, 408.898 896.926, 405.679 895.510, 402.378 894.217, 399.364 888.621, 395.366 " fill="none" stroke="rgb(0, 0, 0)" stroke-linecap="butt" stroke-linejoin="round" stroke-opacity="1.0" stroke-width="3.0" />
            <path d=" M 736.973, 483.496 736.896, 483.878 735.378, 491.467 731.118, 500.514 730.568, 501.682 729.005, 511.559 728.364, 515.607 728.315, 516.475 728.289, 516.927 728.285, 517.005 727.943, 523.027 730.406, 531.456 729.988, 540.599 729.901, 542.517 729.679, 543.110 728.991, 544.950 729.397, 549.753 729.958, 556.376 " fill="none" stroke="rgb(0, 0, 0)" stroke-linecap="butt" stroke-linejoin="round" stroke-opacity="1.0" stroke-width="3.0" />
            <path d=" M 741.333, 289.025 739.650, 288.408 735.957, 287.054 733.915, 286.976 729.941, 287.377 727.495, 288.147 720.191, 290.413 717.032, 291.448 711.550, 293.168 705.675, 294.158 704.052, 294.543 699.455, 296.912 695.915, 298.483 694.388, 300.500 691.159, 302.434 687.678, 305.461 686.383, 306.965 682.091, 314.237 681.718, 316.177 680.873, 320.563 " fill="none" stroke="rgb(0, 0, 0)" stroke-linecap="butt" stroke-linejoin="round" stroke-opacity="1.0" stroke-width="3.0" />
            <path d=" M 505.594, 685.752 505.784, 686.929 507.300, 696.315 508.976, 705.563 510.872, 710.874 511.427, 713.994 514.446, 723.441 515.212, 727.354 517.535, 735.682 518.008, 739.976 520.264, 749.634 521.422, 753.548 523.080, 759.148 " fill="none" stroke="rgb(0, 0, 0)" stroke-linecap="butt" stroke-linejoin="round" stroke-opacity="1.0" stroke-width="3.0" />
            <path d=" M 919.158, 524.716 920.371, 518.521 921.482, 509.954 921.247, 508.338 920.792, 505.196 918.138, 497.343 917.969, 496.843 917.996, 496.116 918.368, 486.095 916.823, 481.170 912.189, 473.222 908.371, 463.979 908.249, 463.685 908.119, 463.493 905.249, 459.288 900.015, 450.768 899.768, 450.366 " fill="none" stroke="rgb(0, 0, 0)" stroke-linecap="butt" stroke-linejoin="round" stroke-opacity="1.0" stroke-width="3.0" />
            <path d=" M 929.562, 620.191 929.488, 621.111 930.387, 625.664 931.923, 629.077 932.341, 634.440 930.602, 642.410 929.741, 646.785 930.319, 650.017 931.091, 654.795 931.226, 657.178 929.950, 663.134 929.120, 668.571 929.041, 671.256 927.074, 681.060 927.051, 681.176 926.766, 688.277 924.841, 698.090 924.705, 698.785 " fill="none" stroke="rgb(0, 0, 0)" stroke-linecap="butt" stroke-linejoin="round" stroke-opacity="1.0" stroke-width="3.0" />
            <path d=" M 797.300, 1101.494 799.197, 1097.498 802.962, 1088.234 805.082, 1083.015 807.312, 1073.267 807.847, 1070.926 808.448, 1067.149 809.411, 1057.195 810.375, 1047.242 810.633, 1044.577 811.880, 1034.655 812.201, 1032.104 814.056, 1022.278 814.353, 1020.701 " fill="none" stroke="rgb(0, 0, 0)" stroke-linecap="butt" stroke-linejoin="round" stroke-opacity="1.0" stroke-width="3.0" />
            <path d=" M 572.497, 741.118 574.883, 738.349 574.012, 736.052 571.121, 732.627 569.924, 731.471 569.263, 730.833 567.629, 729.900 567.550, 729.855 561.991, 726.683 561.739, 726.539 561.485, 726.120 558.774, 721.643 555.853, 719.854 554.599, 719.087 552.528, 717.819 551.449, 717.641 548.983, 715.338 548.756, 715.160 548.700, 715.117 548.405, 714.885 543.736, 709.979 542.309, 706.821 540.825, 703.768 538.409, 700.187 534.187, 693.056 531.758, 688.346 531.190, 687.244 527.116, 679.519 527.077, 679.444 523.596, 672.191 " fill="none" stroke="rgb(0, 0, 0)" stroke-linecap="butt" stroke-linejoin="round" stroke-opacity="1.0" stroke-width="3.0" />
            <path d=" M 580.789, 542.697 581.369, 544.606 584.969, 551.596 585.609, 552.840 589.999, 561.024 590.449, 561.863 591.276, 563.436 592.102, 565.007 593.741, 568.121 596.520, 573.405 599.143, 576.287 599.621, 576.813 599.850, 577.064 600.934, 578.255 601.126, 578.650 603.086, 582.672 606.394, 587.313 608.331, 590.684 610.994, 595.320 612.371, 597.277 613.456, 598.819 615.880, 602.264 617.702, 605.126 620.583, 609.652 621.112, 610.358 624.572, 614.970 626.476, 619.566 " fill="none" stroke="rgb(0, 0, 0)" stroke-linecap="butt" stroke-linejoin="round" stroke-opacity="1.0" stroke-width="3.0" />
            <path d=" M 681.718, 316.177 679.613, 319.666 675.803, 324.164 674.225, 325.598 671.201, 328.806 667.664, 331.592 661.991, 335.804 658.175, 339.267 655.914, 341.789 653.490, 343.617 649.603, 346.335 645.113, 349.354 639.595, 354.591 637.789, 357.144 634.771, 360.333 632.914, 361.964 631.049, 364.624 623.045, 370.619 622.943, 370.695 618.770, 373.122 611.961, 376.320 611.250, 376.654 " fill="none" stroke="rgb(0, 0, 0)" stroke-linecap="butt" stroke-linejoin="round" stroke-opacity="1.0" stroke-width="3.0" />
            <path d=" M 639.446, 1073.795 640.199, 1080.165 639.246, 1089.525 636.783, 1099.217 636.171, 1101.628 636.102, 1102.839 635.961, 1105.343 635.953, 1105.488 635.694, 1110.081 636.796, 1118.982 638.742, 1124.067 640.632, 1129.740 643.825, 1133.162 643.842, 1133.181 644.017, 1133.368 645.484, 1134.940 652.586, 1138.672 658.512, 1142.294 666.620, 1147.770 669.328, 1150.605 671.224, 1156.586 671.406, 1157.158 " fill="none" stroke="rgb(0, 0, 0)" stroke-linecap="butt" stroke-linejoin="round" stroke-opacity="1.0" stroke-width="3.0" />
            <path d=" M 589.546, 900.070 589.867, 901.404 590.378, 903.528 590.517, 904.498 591.026, 908.042 591.675, 912.569 591.774, 913.711 592.197, 918.553 594.133, 928.364 594.498, 930.215 596.643, 938.216 598.660, 943.481 598.682, 943.540 599.827, 946.529 604.370, 955.438 605.957, 958.550 608.937, 961.356 611.823, 963.462 615.799, 965.411 616.294, 965.747 619.558, 967.963 622.442, 970.152 626.238, 974.422 627.301, 975.989 631.133, 981.634 633.970, 986.679 634.132, 986.967 " fill="none" stroke="rgb(0, 0, 0)" stroke-linecap="butt" stroke-linejoin="round" stroke-opacity="1.0" stroke-width="3.0" />
            <path d=" M 641.983, 758.231 640.921, 757.872 636.064, 758.434 632.486, 760.580 632.086, 760.820 631.748, 761.236 630.991, 762.167 629.281, 764.271 629.218, 764.349 628.278, 765.506 624.499, 770.364 621.525, 776.644 618.337, 781.296 616.186, 782.921 613.044, 786.984 610.202, 791.065 609.220, 792.477 604.265, 799.889 601.254, 802.895 596.847, 805.706 593.243, 806.870 592.949, 806.964 592.571, 806.945 588.314, 806.731 584.500, 804.445 581.966, 802.256 578.722, 796.591 577.761, 793.573 577.734, 793.488 576.276, 788.906 575.277, 783.234 574.940, 782.885 574.200, 782.120 " fill="none" stroke="rgb(0, 0, 0)" stroke-linecap="butt" stroke-linejoin="round" stroke-opacity="1.0" stroke-width="3.0" />
            <path d=" M 882.228, 868.275 887.870, 863.428 892.418, 860.362 899.392, 853.412 905.743, 845.688 907.316, 843.774 909.372, 841.409 912.670, 837.833 918.084, 829.426 918.932, 828.110 921.921, 824.089 926.055, 818.341 928.400, 814.193 932.099, 808.254 934.183, 805.006 935.203, 801.888 936.849, 798.866 939.025, 795.774 941.446, 790.572 943.213, 786.018 945.449, 779.414 946.525, 775.731 948.160, 772.310 947.559, 768.450 " fill="none" stroke="rgb(0, 0, 0)" stroke-linecap="butt" stroke-linejoin="round" stroke-opacity="1.0" stroke-width="3.0" />
            <path d=" M 915.302, 649.450 914.927, 645.034 914.517, 640.212 914.516, 640.208 914.500, 640.014 914.482, 639.800 914.226, 637.374 913.794, 633.263 914.690, 629.066 914.763, 628.729 914.729, 627.842 914.488, 621.457 915.538, 613.885 916.152, 610.479 916.718, 600.495 916.728, 600.319 916.977, 598.702 917.960, 592.336 919.150, 587.716 918.193, 577.762 918.106, 576.858 917.776, 574.792 915.815, 566.089 914.302, 556.204 914.282, 556.079 916.263, 550.910 916.322, 549.044 916.470, 544.399 916.518, 542.871 918.301, 538.371 918.898, 528.389 919.074, 525.434 " fill="none" stroke="rgb(0, 0, 0)" stroke-linecap="butt" stroke-linejoin="round" stroke-opacity="1.0" stroke-width="3.0" />
            <path d=" M 972.019, 664.714 972.967, 661.448 974.185, 651.522 974.723, 647.144 975.404, 638.196 975.577, 628.197 975.637, 624.739 975.344, 614.860 974.487, 606.958 972.901, 599.205 972.102, 595.130 969.382, 586.708 966.186, 577.232 965.570, 575.405 964.287, 572.055 962.027, 566.589 960.902, 565.087 958.099, 559.693 953.849, 552.251 951.637, 548.959 947.915, 544.312 941.695, 537.891 939.363, 535.443 " fill="none" stroke="rgb(0, 0, 0)" stroke-linecap="butt" stroke-linejoin="round" stroke-opacity="1.0" stroke-width="3.0" />
            <path d=" M 860.604, 891.361 864.190, 886.143 864.879, 885.141 870.567, 876.805 875.272, 870.028 881.192, 861.969 881.689, 861.292 887.394, 853.902 890.946, 848.556 894.880, 842.454 899.337, 835.658 905.014, 827.426 906.124, 825.816 912.452, 818.073 914.642, 815.392 921.074, 807.735 922.424, 806.129 928.876, 798.489 929.201, 798.104 933.613, 791.344 936.243, 785.950 938.044, 782.529 939.526, 776.677 940.813, 771.594 " fill="none" stroke="rgb(0, 0, 0)" stroke-linecap="butt" stroke-linejoin="round" stroke-opacity="1.0" stroke-width="3.0" />
            <path d=" M 684.505, 725.180 683.407, 726.778 683.256, 726.999 683.074, 727.263 682.162, 728.590 682.152, 728.605 681.521, 729.524 681.516, 729.530 681.110, 730.121 679.799, 732.030 678.148, 732.883 671.964, 736.080 671.876, 736.125 671.760, 736.151 670.612, 736.407 670.376, 736.460 670.226, 736.493 669.575, 736.638 668.677, 736.839 668.298, 736.923 667.993, 736.991 667.987, 736.993 667.760, 737.044 667.710, 737.039 665.282, 736.840 660.892, 736.479 659.171, 736.337 656.791, 736.142 653.481, 738.191 652.748, 743.065 649.499, 744.728 645.279, 744.121 642.534, 745.098 641.628, 746.603 640.083, 750.932 641.983, 758.231 642.297, 759.436 642.956, 761.748 647.954, 770.410 648.982, 772.190 649.257, 772.668 652.969, 777.559 658.002, 784.284 658.491, 784.938 658.525, 784.983 658.905, 785.490 662.610, 789.556 664.233, 791.319 664.529, 791.640 664.531, 791.642 664.955, 792.103 667.396, 794.753 667.401, 794.759 667.558, 794.930 667.602, 794.977 667.810, 795.203 667.959, 795.365 667.989, 795.398 669.165, 796.675 669.736, 797.218 670.035, 797.502 673.640, 800.929 674.774, 802.007 677.066, 804.185 684.068, 811.324 684.945, 812.218 688.122, 817.318 690.628, 821.339 " fill="none" stroke="rgb(0, 0, 0)" stroke-linecap="butt" stroke-linejoin="round" stroke-opacity="1.0" stroke-width="3.0" />
            <path d=" M 516.789, 517.993 510.421, 525.703 509.364, 526.982 504.503, 535.722 502.446, 539.419 502.296, 539.689 498.384, 548.892 496.430, 553.489 493.626, 563.088 492.369, 567.392 491.221, 575.823 490.468, 582.078 490.059, 587.274 489.943, 597.273 489.915, 599.687 490.411, 609.675 490.506, 611.588 491.603, 617.608 492.330, 621.601 494.196, 628.125 497.425, 637.399 501.259, 646.371 505.507, 655.424 507.283, 659.208 " fill="none" stroke="rgb(0, 0, 0)" stroke-linecap="butt" stroke-linejoin="round" stroke-opacity="1.0" stroke-width="3.0" />
            <path d=" M 611.961, 376.320 606.248, 377.876 600.520, 380.299 597.613, 381.745 594.585, 382.651 587.390, 384.848 579.589, 391.105 576.980, 393.197 569.141, 399.407 567.718, 400.535 566.277, 405.313 563.700, 414.621 563.194, 422.696 564.394, 432.583 562.721, 441.175 562.635, 441.616 560.663, 448.500 558.701, 455.349 556.081, 461.521 554.824, 464.483 554.467, 465.023 554.203, 465.421 554.181, 465.455 552.645, 467.777 551.864, 468.958 548.837, 474.642 547.655, 476.595 546.044, 479.256 543.111, 482.323 542.094, 483.386 538.543, 488.404 532.787, 496.539 526.476, 504.297 525.779, 505.155 524.417, 507.416 524.047, 508.031 522.517, 510.573 519.223, 514.846 " fill="none" stroke="rgb(0, 0, 0)" stroke-linecap="butt" stroke-linejoin="round" stroke-opacity="1.0" stroke-width="3.0" />
        </g>
    </g>
</svg>
