<?xml version='1.0' encoding='ascii'?>
<svg xmlns="http://www.w3.org/2000/svg" height="1280" version="1.1" width="1280">
    <g id="RenderLayer_LineSet" inkscape:groupmode="lineset" inkscape:label="RenderLayer_LineSet" xmlns:inkscape="http://www.inkscape.org/namespaces/inkscape">
        <g id="strokes" inkscape:groupmode="layer" inkscape:label="strokes" xmlns:inkscape="http://www.inkscape.org/namespaces/inkscape">
            <path d=" M 921.874, 556.072 928.629, 550.201 921.896, 542.807 921.129, 541.964 " fill="none" stroke="rgb(0, 0, 0)" stroke-linecap="butt" stroke-linejoin="round" stroke-opacity="1.0" stroke-width="3.0" />
            <path d=" M 795.152, 300.244 793.715, 299.003 792.950, 298.690 792.552, 298.528 791.789, 298.215 791.534, 298.111 791.306, 298.018 791.112, 297.939 791.078, 297.925 790.258, 297.589 790.057, 297.507 789.907, 297.446 786.549, 296.072 784.794, 296.532 784.019, 296.734 780.187, 297.736 779.937, 297.860 777.311, 299.159 777.287, 299.171 776.659, 299.395 " fill="none" stroke="rgb(0, 0, 0)" stroke-linecap="butt" stroke-linejoin="round" stroke-opacity="1.0" stroke-width="3.0" />
            <path d=" M 564.310, 732.218 565.377, 734.245 566.208, 735.473 566.478, 735.873 567.943, 738.037 568.996, 739.591 570.832, 741.119 570.901, 741.177 571.927, 741.511 571.942, 741.516 573.973, 742.179 574.738, 742.428 575.202, 742.327 579.648, 741.354 " fill="none" stroke="rgb(0, 0, 0)" stroke-linecap="butt" stroke-linejoin="round" stroke-opacity="1.0" stroke-width="3.0" />
            <path d=" M 563.072, 835.298 563.148, 835.171 564.253, 833.311 565.612, 831.024 566.344, 826.894 564.868, 824.291 564.456, 823.565 560.239, 820.416 560.209, 818.331 " fill="none" stroke="rgb(0, 0, 0)" stroke-linecap="butt" stroke-linejoin="round" stroke-opacity="1.0" stroke-width="3.0" />
            <path d=" M 563.417, 858.910 563.912, 855.299 566.897, 850.956 568.139, 847.751 566.424, 844.291 566.262, 844.101 563.762, 841.173 563.722, 841.126 " fill="none" stroke="rgb(0, 0, 0)" stroke-linecap="butt" stroke-linejoin="round" stroke-opacity="1.0" stroke-width="3.0" />
            <path d=" M 677.153, 549.208 679.414, 550.339 680.904, 551.084 681.834, 551.550 684.256, 552.761 685.641, 553.455 686.534, 553.902 687.852, 554.427 688.485, 554.679 689.330, 555.016 690.149, 555.343 690.640, 555.538 691.979, 556.072 693.652, 556.576 696.193, 557.342 696.260, 557.362 " fill="none" stroke="rgb(0, 0, 0)" stroke-linecap="butt" stroke-linejoin="round" stroke-opacity="1.0" stroke-width="3.0" />
            <path d=" M 531.607, 684.717 530.403, 691.763 530.427, 694.641 529.088, 701.632 528.783, 705.366 " fill="none" stroke="rgb(0, 0, 0)" stroke-linecap="butt" stroke-linejoin="round" stroke-opacity="1.0" stroke-width="3.0" />
            <path d=" M 742.433, 301.256 739.485, 300.727 736.414, 300.175 735.329, 300.190 734.029, 300.208 729.693, 300.268 728.907, 300.370 725.898, 300.761 724.003, 301.320 721.954, 301.874 721.807, 301.914 " fill="none" stroke="rgb(0, 0, 0)" stroke-linecap="butt" stroke-linejoin="round" stroke-opacity="1.0" stroke-width="3.0" />
            <path d=" M 539.866, 647.098 539.147, 648.859 539.131, 648.917 538.210, 652.154 536.752, 657.707 535.076, 662.074 534.737, 667.347 " fill="none" stroke="rgb(0, 0, 0)" stroke-linecap="butt" stroke-linejoin="round" stroke-opacity="1.0" stroke-width="3.0" />
            <path d=" M 829.603, 308.537 828.634, 306.016 828.057, 304.645 823.236, 301.615 820.537, 300.084 817.719, 297.395 814.247, 295.115 " fill="none" stroke="rgb(0, 0, 0)" stroke-linecap="butt" stroke-linejoin="round" stroke-opacity="1.0" stroke-width="3.0" />
            <path d=" M 558.862, 1127.681 560.452, 1130.693 563.018, 1132.165 564.473, 1132.304 565.431, 1132.194 567.218, 1131.325 569.545, 1127.836 571.116, 1124.892 572.181, 1123.341 572.660, 1122.643 " fill="none" stroke="rgb(0, 0, 0)" stroke-linecap="butt" stroke-linejoin="round" stroke-opacity="1.0" stroke-width="3.0" />
            <path d=" M 721.812, 478.614 719.004, 483.285 715.495, 489.169 713.277, 490.504 711.179, 492.933 709.716, 495.689 " fill="none" stroke="rgb(0, 0, 0)" stroke-linecap="butt" stroke-linejoin="round" stroke-opacity="1.0" stroke-width="3.0" />
            <path d=" M 605.315, 404.824 605.269, 405.011 604.851, 406.705 603.994, 409.382 603.948, 409.524 603.938, 409.555 603.508, 410.897 603.211, 411.827 602.595, 414.927 602.436, 415.727 601.232, 421.795 601.180, 422.056 600.937, 423.281 600.502, 425.472 " fill="none" stroke="rgb(0, 0, 0)" stroke-linecap="butt" stroke-linejoin="round" stroke-opacity="1.0" stroke-width="3.0" />
            <path d=" M 519.295, 516.618 518.701, 518.296 517.857, 520.994 520.239, 526.807 521.476, 528.470 525.517, 531.474 527.416, 534.117 " fill="none" stroke="rgb(0, 0, 0)" stroke-linecap="butt" stroke-linejoin="round" stroke-opacity="1.0" stroke-width="3.0" />
            <path d=" M 762.189, 998.085 764.575, 997.625 764.601, 997.620 766.541, 997.246 766.586, 997.237 766.658, 997.224 767.332, 997.094 768.838, 996.803 772.033, 995.866 772.354, 995.548 772.402, 995.500 772.731, 995.174 775.201, 992.730 776.199, 990.368 776.243, 990.264 776.923, 988.654 777.025, 985.844 777.027, 985.794 " fill="none" stroke="rgb(0, 0, 0)" stroke-linecap="butt" stroke-linejoin="round" stroke-opacity="1.0" stroke-width="3.0" />
            <path d=" M 571.021, 799.981 571.763, 796.677 572.174, 794.346 572.941, 789.203 571.120, 785.853 570.060, 785.039 566.694, 782.451 565.924, 781.860 565.471, 781.511 " fill="none" stroke="rgb(0, 0, 0)" stroke-linecap="butt" stroke-linejoin="round" stroke-opacity="1.0" stroke-width="3.0" />
            <path d=" M 774.023, 299.648 773.991, 299.642 772.332, 299.338 771.771, 299.205 769.024, 298.553 765.661, 297.873 765.425, 297.825 764.650, 297.668 761.639, 298.019 761.146, 298.076 756.281, 298.171 753.484, 298.225 753.038, 298.233 752.610, 298.242 752.735, 298.271 752.854, 298.300 753.137, 298.367 753.161, 298.373 " fill="none" stroke="rgb(0, 0, 0)" stroke-linecap="butt" stroke-linejoin="round" stroke-opacity="1.0" stroke-width="3.0" />
            <path d=" M 532.445, 992.762 533.025, 993.825 533.331, 994.384 535.104, 997.633 536.957, 1003.313 537.600, 1009.944 537.713, 1011.108 538.010, 1014.165 " fill="none" stroke="rgb(0, 0, 0)" stroke-linecap="butt" stroke-linejoin="round" stroke-opacity="1.0" stroke-width="3.0" />
            <path d=" M 651.322, 941.867 652.290, 949.440 652.484, 950.952 652.470, 951.394 652.466, 951.539 652.345, 955.596 652.264, 958.299 652.221, 959.770 651.980, 964.403 " fill="none" stroke="rgb(0, 0, 0)" stroke-linecap="butt" stroke-linejoin="round" stroke-opacity="1.0" stroke-width="3.0" />
            <path d=" M 760.015, 299.841 758.461, 299.409 754.879, 298.413 754.665, 298.353 754.662, 298.352 754.498, 298.307 753.161, 298.373 753.117, 298.375 753.028, 298.379 752.770, 298.392 752.622, 298.399 752.569, 298.402 751.530, 298.453 751.444, 298.458 751.074, 298.476 747.995, 298.628 746.052, 298.639 745.485, 298.642 745.036, 298.644 739.706, 298.674 737.482, 298.686 " fill="none" stroke="rgb(0, 0, 0)" stroke-linecap="butt" stroke-linejoin="round" stroke-opacity="1.0" stroke-width="3.0" />
            <path d=" M 766.586, 997.237 766.907, 997.974 768.171, 1000.876 766.964, 1003.113 766.759, 1003.492 767.768, 1005.283 767.915, 1005.454 769.646, 1007.476 770.648, 1006.663 770.804, 1006.536 770.848, 1006.501 770.902, 1006.457 772.047, 1005.527 772.770, 1004.940 778.240, 1006.044 779.517, 1006.302 779.860, 1006.371 779.910, 1006.381 779.964, 1006.392 780.179, 1006.436 " fill="none" stroke="rgb(0, 0, 0)" stroke-linecap="butt" stroke-linejoin="round" stroke-opacity="1.0" stroke-width="3.0" />
            <path d=" M 561.022, 817.641 565.888, 815.137 568.702, 813.688 571.436, 811.094 571.762, 808.303 571.871, 807.035 571.021, 799.981 570.985, 799.689 " fill="none" stroke="rgb(0, 0, 0)" stroke-linecap="butt" stroke-linejoin="round" stroke-opacity="1.0" stroke-width="3.0" />
            <path d=" M 534.638, 1036.840 534.654, 1037.707 534.839, 1047.705 534.844, 1047.994 534.728, 1051.678 534.314, 1054.093 534.096, 1061.046 " fill="none" stroke="rgb(0, 0, 0)" stroke-linecap="butt" stroke-linejoin="round" stroke-opacity="1.0" stroke-width="3.0" />
            <path d=" M 630.660, 1092.913 633.604, 1091.478 636.998, 1089.281 638.211, 1086.457 639.223, 1080.958 638.776, 1078.022 635.519, 1075.225 634.481, 1074.829 " fill="none" stroke="rgb(0, 0, 0)" stroke-linecap="butt" stroke-linejoin="round" stroke-opacity="1.0" stroke-width="3.0" />
            <path d=" M 746.786, 398.802 746.429, 400.410 744.957, 407.024 741.216, 412.137 743.879, 419.029 744.710, 421.178 " fill="none" stroke="rgb(0, 0, 0)" stroke-linecap="butt" stroke-linejoin="round" stroke-opacity="1.0" stroke-width="3.0" />
            <path d=" M 561.046, 957.391 560.089, 951.512 559.557, 945.119 558.703, 936.135 558.390, 932.847 " fill="none" stroke="rgb(0, 0, 0)" stroke-linecap="butt" stroke-linejoin="round" stroke-opacity="1.0" stroke-width="3.0" />
            <path d=" M 601.036, 851.560 602.255, 861.318 603.709, 865.542 603.974, 866.171 604.186, 866.676 604.253, 866.835 606.400, 871.936 608.687, 874.302 609.164, 874.488 " fill="none" stroke="rgb(0, 0, 0)" stroke-linecap="butt" stroke-linejoin="round" stroke-opacity="1.0" stroke-width="3.0" />
            <path d=" M 952.278, 658.303 952.952, 652.043 953.617, 647.263 954.161, 639.255 954.657, 637.351 955.122, 635.564 954.666, 633.341 " fill="none" stroke="rgb(0, 0, 0)" stroke-linecap="butt" stroke-linejoin="round" stroke-opacity="1.0" stroke-width="3.0" />
            <path d=" M 541.991, 958.269 539.052, 960.186 538.533, 961.814 537.943, 968.591 539.392, 975.351 541.795, 978.870 543.350, 980.377 " fill="none" stroke="rgb(0, 0, 0)" stroke-linecap="butt" stroke-linejoin="round" stroke-opacity="1.0" stroke-width="3.0" />
            <path d=" M 769.692, 300.606 767.885, 299.980 767.839, 299.964 767.235, 299.756 764.385, 298.947 761.630, 299.511 760.015, 299.841 758.923, 300.065 758.768, 300.097 758.441, 300.163 758.277, 300.197 752.261, 299.290 751.915, 299.238 752.243, 299.309 755.792, 300.081 757.393, 300.429 759.245, 301.028 " fill="none" stroke="rgb(0, 0, 0)" stroke-linecap="butt" stroke-linejoin="round" stroke-opacity="1.0" stroke-width="3.0" />
            <path d=" M 710.078, 495.338 709.716, 495.689 704.890, 500.364 701.993, 502.601 699.852, 504.544 696.033, 509.157 692.859, 514.277 692.848, 514.294 " fill="none" stroke="rgb(0, 0, 0)" stroke-linecap="butt" stroke-linejoin="round" stroke-opacity="1.0" stroke-width="3.0" />
            <path d=" M 646.075, 922.022 646.135, 923.370 646.202, 924.865 646.214, 925.144 646.222, 925.314 646.445, 930.330 646.637, 933.369 646.668, 933.868 646.752, 935.195 646.969, 938.611 647.298, 942.445 648.092, 946.929 648.241, 947.772 " fill="none" stroke="rgb(0, 0, 0)" stroke-linecap="butt" stroke-linejoin="round" stroke-opacity="1.0" stroke-width="3.0" />
            <path d=" M 537.285, 844.611 536.371, 850.449 538.034, 858.314 540.493, 862.241 544.352, 865.882 544.475, 865.998 545.043, 866.534 545.203, 866.685 545.995, 867.432 " fill="none" stroke="rgb(0, 0, 0)" stroke-linecap="butt" stroke-linejoin="round" stroke-opacity="1.0" stroke-width="3.0" />
            <path d=" M 667.258, 662.831 667.212, 663.074 666.362, 667.557 667.623, 673.248 669.218, 680.061 669.569, 688.658 " fill="none" stroke="rgb(0, 0, 0)" stroke-linecap="butt" stroke-linejoin="round" stroke-opacity="1.0" stroke-width="3.0" />
            <path d=" M 948.254, 609.008 949.761, 605.898 949.743, 604.460 949.808, 603.873 948.045, 599.268 944.198, 595.954 939.645, 594.186 935.551, 591.983 934.459, 591.395 " fill="none" stroke="rgb(0, 0, 0)" stroke-linecap="butt" stroke-linejoin="round" stroke-opacity="1.0" stroke-width="3.0" />
            <path d=" M 917.788, 472.617 918.547, 466.707 918.677, 465.696 918.800, 464.732 918.965, 463.449 919.151, 462.005 919.110, 460.618 919.083, 459.680 918.906, 457.881 918.886, 457.682 918.803, 456.841 918.565, 454.421 918.985, 446.451 " fill="none" stroke="rgb(0, 0, 0)" stroke-linecap="butt" stroke-linejoin="round" stroke-opacity="1.0" stroke-width="3.0" />
            <path d=" M 915.589, 493.491 915.692, 490.190 915.701, 489.872 915.706, 489.731 915.731, 488.911 915.585, 486.998 915.578, 486.907 914.958, 478.780 914.907, 478.111 914.890, 477.885 914.882, 477.789 914.688, 475.243 913.915, 467.042 " fill="none" stroke="rgb(0, 0, 0)" stroke-linecap="butt" stroke-linejoin="round" stroke-opacity="1.0" stroke-width="3.0" />
            <path d=" M 603.974, 866.171 603.638, 867.913 602.829, 874.602 601.081, 884.448 601.016, 884.812 599.734, 892.461 " fill="none" stroke="rgb(0, 0, 0)" stroke-linecap="butt" stroke-linejoin="round" stroke-opacity="1.0" stroke-width="3.0" />
            <path d=" M 662.633, 328.273 657.344, 330.640 657.164, 330.721 656.571, 331.274 655.041, 332.700 654.442, 333.259 650.218, 337.196 643.770, 342.496 642.702, 343.417 641.479, 344.472 " fill="none" stroke="rgb(0, 0, 0)" stroke-linecap="butt" stroke-linejoin="round" stroke-opacity="1.0" stroke-width="3.0" />
            <path d=" M 782.253, 298.561 782.013, 298.611 779.602, 299.113 777.491, 299.316 776.659, 299.395 774.023, 299.648 773.961, 299.654 772.045, 299.838 771.278, 300.094 770.774, 300.262 770.572, 300.329 770.142, 300.472 770.072, 300.496 769.692, 300.606 769.385, 300.694 768.564, 300.931 768.555, 300.934 768.525, 300.943 768.436, 300.968 768.392, 300.981 765.443, 301.833 764.079, 302.296 763.998, 302.323 763.801, 302.390 763.452, 302.508 762.549, 302.815 761.263, 303.251 759.784, 304.801 759.754, 304.833 759.654, 305.424 759.216, 307.997 " fill="none" stroke="rgb(0, 0, 0)" stroke-linecap="butt" stroke-linejoin="round" stroke-opacity="1.0" stroke-width="3.0" />
            <path d=" M 805.000, 290.839 804.382, 290.742 804.125, 290.702 804.060, 290.691 800.538, 290.137 800.374, 290.111 799.529, 289.810 794.232, 287.924 791.460, 286.742 785.225, 285.767 783.956, 286.169 781.544, 285.584 780.128, 285.344 778.656, 285.094 " fill="none" stroke="rgb(0, 0, 0)" stroke-linecap="butt" stroke-linejoin="round" stroke-opacity="1.0" stroke-width="3.0" />
            <path d=" M 736.803, 1057.143 736.442, 1051.378 735.994, 1041.388 735.612, 1032.866 735.472, 1029.055 " fill="none" stroke="rgb(0, 0, 0)" stroke-linecap="butt" stroke-linejoin="round" stroke-opacity="1.0" stroke-width="3.0" />
            <path d=" M 909.919, 682.849 909.695, 683.121 903.339, 690.841 900.961, 693.728 896.274, 698.632 891.894, 702.494 890.755, 703.486 " fill="none" stroke="rgb(0, 0, 0)" stroke-linecap="butt" stroke-linejoin="round" stroke-opacity="1.0" stroke-width="3.0" />
            <path d=" M 646.416, 973.419 645.238, 974.279 643.371, 978.086 642.873, 979.689 642.202, 981.845 640.898, 987.914 640.921, 988.051 641.027, 988.678 641.300, 990.303 641.393, 990.854 642.885, 993.786 643.410, 994.818 643.512, 995.018 645.580, 996.172 647.896, 996.517 648.040, 996.497 " fill="none" stroke="rgb(0, 0, 0)" stroke-linecap="butt" stroke-linejoin="round" stroke-opacity="1.0" stroke-width="3.0" />
            <path d=" M 661.711, 544.906 664.614, 546.203 665.263, 546.493 669.824, 548.530 671.757, 549.393 673.746, 550.282 676.302, 551.409 677.304, 551.850 677.742, 552.044 679.366, 552.508 679.688, 552.601 679.836, 552.643 680.015, 552.694 688.485, 554.679 " fill="none" stroke="rgb(0, 0, 0)" stroke-linecap="butt" stroke-linejoin="round" stroke-opacity="1.0" stroke-width="3.0" />
            <path d=" M 951.655, 646.587 952.186, 656.573 952.278, 658.303 952.588, 664.132 952.539, 663.292 952.209, 658.945 951.973, 655.831 951.760, 653.018 " fill="none" stroke="rgb(0, 0, 0)" stroke-linecap="butt" stroke-linejoin="round" stroke-opacity="1.0" stroke-width="3.0" />
            <path d=" M 671.573, 721.819 669.033, 722.867 664.906, 724.569 661.283, 728.730 661.085, 728.957 657.209, 730.472 654.980, 731.642 653.546, 732.395 652.805, 732.639 652.751, 732.657 651.614, 733.031 651.077, 733.208 650.714, 733.328 649.644, 733.681 648.946, 733.911 647.006, 734.550 646.889, 734.589 646.225, 734.807 " fill="none" stroke="rgb(0, 0, 0)" stroke-linecap="butt" stroke-linejoin="round" stroke-opacity="1.0" stroke-width="3.0" />
            <path d=" M 545.120, 817.466 544.728, 817.696 543.508, 818.412 540.878, 819.929 539.406, 820.779 538.992, 821.180 536.505, 824.448 535.346, 828.945 535.448, 834.744 537.236, 841.863 " fill="none" stroke="rgb(0, 0, 0)" stroke-linecap="butt" stroke-linejoin="round" stroke-opacity="1.0" stroke-width="3.0" />
            <path d=" M 918.091, 424.522 917.817, 421.854 917.107, 417.150 915.468, 411.723 914.979, 410.105 914.245, 408.449 913.398, 406.541 913.339, 406.407 912.556, 404.642 912.528, 404.579 912.497, 404.510 910.852, 400.802 908.281, 397.068 " fill="none" stroke="rgb(0, 0, 0)" stroke-linecap="butt" stroke-linejoin="round" stroke-opacity="1.0" stroke-width="3.0" />
            <path d=" M 551.247, 488.457 553.418, 489.026 553.709, 489.057 557.121, 489.422 560.480, 491.874 563.756, 493.970 570.539, 498.283 577.121, 501.936 " fill="none" stroke="rgb(0, 0, 0)" stroke-linecap="butt" stroke-linejoin="round" stroke-opacity="1.0" stroke-width="3.0" />
            <path d=" M 730.580, 1042.201 730.846, 1047.785 731.486, 1057.764 731.980, 1065.455 732.015, 1072.117 " fill="none" stroke="rgb(0, 0, 0)" stroke-linecap="butt" stroke-linejoin="round" stroke-opacity="1.0" stroke-width="3.0" />
            <path d=" M 918.318, 475.599 918.450, 475.226 919.413, 465.272 919.436, 465.032 920.226, 458.902 919.896, 455.543 919.876, 455.343 919.785, 454.416 919.727, 453.826 919.599, 452.528 919.517, 451.698 919.160, 445.630 " fill="none" stroke="rgb(0, 0, 0)" stroke-linecap="butt" stroke-linejoin="round" stroke-opacity="1.0" stroke-width="3.0" />
            <path d=" M 726.747, 531.237 729.552, 521.639 730.188, 519.462 734.424, 510.848 736.386, 507.860 739.030, 503.835 " fill="none" stroke="rgb(0, 0, 0)" stroke-linecap="butt" stroke-linejoin="round" stroke-opacity="1.0" stroke-width="3.0" />
            <path d=" M 581.995, 744.080 584.758, 750.009 588.944, 759.091 590.393, 762.233 591.421, 764.420 591.451, 764.484 592.231, 766.565 592.276, 766.687 594.194, 771.805 " fill="none" stroke="rgb(0, 0, 0)" stroke-linecap="butt" stroke-linejoin="round" stroke-opacity="1.0" stroke-width="3.0" />
            <path d=" M 615.265, 1019.871 616.017, 1019.485 616.130, 1019.427 616.572, 1019.587 619.904, 1020.790 623.820, 1020.081 625.877, 1018.947 626.476, 1017.318 626.674, 1014.978 627.927, 1011.786 626.803, 1008.447 624.755, 1005.970 623.764, 1005.094 622.970, 1004.556 622.966, 1004.553 622.836, 1004.465 621.763, 1003.737 621.505, 1003.562 621.378, 1003.476 621.373, 1003.472 621.331, 1003.444 621.081, 1003.274 620.484, 1002.869 " fill="none" stroke="rgb(0, 0, 0)" stroke-linecap="butt" stroke-linejoin="round" stroke-opacity="1.0" stroke-width="3.0" />
            <path d=" M 686.669, 1122.719 686.862, 1122.901 687.004, 1123.036 687.771, 1123.762 689.499, 1125.398 691.743, 1130.392 692.832, 1133.877 690.139, 1141.706 688.428, 1147.796 688.988, 1151.589 " fill="none" stroke="rgb(0, 0, 0)" stroke-linecap="butt" stroke-linejoin="round" stroke-opacity="1.0" stroke-width="3.0" />
            <path d=" M 857.603, 855.062 859.070, 846.428 859.747, 842.698 859.747, 842.697 861.531, 832.858 863.128, 824.047 " fill="none" stroke="rgb(0, 0, 0)" stroke-linecap="butt" stroke-linejoin="round" stroke-opacity="1.0" stroke-width="3.0" />
            <path d=" M 570.833, 991.870 569.080, 987.543 568.697, 986.599 568.626, 986.424 568.559, 986.257 567.812, 984.415 567.649, 984.011 567.620, 983.940 567.441, 983.387 567.375, 983.185 567.303, 982.963 567.019, 982.084 566.713, 981.139 565.719, 978.070 564.058, 972.940 562.002, 963.154 561.927, 962.796 561.759, 961.763 " fill="none" stroke="rgb(0, 0, 0)" stroke-linecap="butt" stroke-linejoin="round" stroke-opacity="1.0" stroke-width="3.0" />
            <path d=" M 727.740, 1032.572 729.521, 1035.714 730.580, 1042.201 730.821, 1043.678 731.428, 1053.659 731.490, 1054.679 732.266, 1063.580 " fill="none" stroke="rgb(0, 0, 0)" stroke-linecap="butt" stroke-linejoin="round" stroke-opacity="1.0" stroke-width="3.0" />
            <path d=" M 776.093, 298.825 774.270, 299.421 771.912, 298.951 769.576, 298.485 766.377, 297.530 763.610, 296.798 759.382, 297.273 754.516, 297.802 754.117, 297.845 752.360, 298.036 748.631, 297.806 747.044, 297.862 745.036, 298.644 " fill="none" stroke="rgb(0, 0, 0)" stroke-linecap="butt" stroke-linejoin="round" stroke-opacity="1.0" stroke-width="3.0" />
            <path d=" M 730.406, 578.060 728.056, 570.666 727.741, 569.677 725.516, 562.675 725.289, 562.178 722.620, 556.337 721.587, 553.506 721.550, 553.407 721.544, 553.388 721.270, 552.637 721.248, 552.579 719.667, 548.247 " fill="none" stroke="rgb(0, 0, 0)" stroke-linecap="butt" stroke-linejoin="round" stroke-opacity="1.0" stroke-width="3.0" />
            <path d=" M 723.526, 301.607 722.469, 301.796 721.807, 301.914 719.424, 302.339 717.651, 302.560 715.322, 302.851 713.652, 303.618 713.518, 303.680 712.779, 304.020 710.632, 305.007 707.087, 305.990 706.226, 306.305 703.213, 307.407 702.167, 307.644 701.978, 307.687 701.945, 307.694 701.398, 307.818 701.134, 307.877 700.130, 308.104 698.948, 308.371 694.410, 310.611 693.791, 310.917 693.457, 311.082 " fill="none" stroke="rgb(0, 0, 0)" stroke-linecap="butt" stroke-linejoin="round" stroke-opacity="1.0" stroke-width="3.0" />
            <path d=" M 614.881, 1052.474 615.142, 1046.008 614.808, 1037.949 614.253, 1028.771 615.076, 1021.794 615.623, 1020.451 " fill="none" stroke="rgb(0, 0, 0)" stroke-linecap="butt" stroke-linejoin="round" stroke-opacity="1.0" stroke-width="3.0" />
            <path d=" M 535.370, 664.545 534.737, 667.347 534.263, 669.444 533.874, 671.868 533.269, 675.635 532.556, 679.530 531.607, 684.717 532.202, 682.148 532.466, 681.008 533.259, 677.588 534.353, 673.341 " fill="none" stroke="rgb(0, 0, 0)" stroke-linecap="butt" stroke-linejoin="round" stroke-opacity="1.0" stroke-width="3.0" />
            <path d=" M 539.790, 624.898 539.792, 625.664 539.510, 634.695 539.801, 644.691 539.841, 646.072 539.867, 646.973 539.866, 647.098 539.864, 647.194 539.741, 655.615 539.730, 656.358 539.717, 657.268 " fill="none" stroke="rgb(0, 0, 0)" stroke-linecap="butt" stroke-linejoin="round" stroke-opacity="1.0" stroke-width="3.0" />
            <path d=" M 541.930, 914.240 539.213, 916.380 539.032, 916.523 538.162, 917.209 536.912, 920.801 536.737, 922.425 536.311, 927.104 535.762, 931.214 536.478, 936.568 537.321, 939.954 537.394, 940.250 537.604, 941.092 538.484, 944.225 " fill="none" stroke="rgb(0, 0, 0)" stroke-linecap="butt" stroke-linejoin="round" stroke-opacity="1.0" stroke-width="3.0" />
            <path d=" M 675.710, 626.889 674.296, 632.063 674.218, 633.951 674.195, 634.503 674.195, 634.518 673.834, 643.290 674.173, 648.003 673.393, 652.453 675.257, 656.102 676.428, 658.494 " fill="none" stroke="rgb(0, 0, 0)" stroke-linecap="butt" stroke-linejoin="round" stroke-opacity="1.0" stroke-width="3.0" />
            <path d=" M 784.180, 925.152 783.434, 917.037 783.419, 916.878 783.216, 914.672 782.810, 910.258 782.806, 910.217 782.948, 907.257 782.956, 907.105 782.967, 906.871 782.970, 906.801 783.276, 900.461 783.516, 895.461 783.656, 892.558 " fill="none" stroke="rgb(0, 0, 0)" stroke-linecap="butt" stroke-linejoin="round" stroke-opacity="1.0" stroke-width="3.0" />
            <path d=" M 922.145, 653.363 922.067, 653.996 921.441, 659.082 919.340, 666.760 914.552, 674.626 909.695, 683.121 " fill="none" stroke="rgb(0, 0, 0)" stroke-linecap="butt" stroke-linejoin="round" stroke-opacity="1.0" stroke-width="3.0" />
            <path d=" M 662.176, 632.174 661.709, 632.675 659.781, 634.748 660.380, 637.887 661.185, 641.376 662.999, 646.743 663.252, 647.490 663.601, 648.523 664.999, 653.948 665.450, 655.699 665.790, 656.849 666.634, 659.703 666.810, 660.726 667.212, 663.074 " fill="none" stroke="rgb(0, 0, 0)" stroke-linecap="butt" stroke-linejoin="round" stroke-opacity="1.0" stroke-width="3.0" />
            <path d=" M 566.214, 532.118 565.586, 529.578 564.094, 526.400 562.514, 523.956 562.384, 523.756 562.216, 523.496 558.579, 517.058 556.031, 512.008 554.894, 509.689 554.799, 509.495 553.326, 506.492 551.510, 504.845 550.247, 503.700 " fill="none" stroke="rgb(0, 0, 0)" stroke-linecap="butt" stroke-linejoin="round" stroke-opacity="1.0" stroke-width="3.0" />
            <path d=" M 517.771, 494.331 517.180, 496.692 515.632, 502.879 515.368, 504.755 516.325, 512.482 517.873, 514.634 518.683, 515.862 519.295, 516.618 521.004, 518.729 522.626, 522.018 524.648, 524.369 524.652, 524.377 " fill="none" stroke="rgb(0, 0, 0)" stroke-linecap="butt" stroke-linejoin="round" stroke-opacity="1.0" stroke-width="3.0" />
            <path d=" M 582.338, 682.845 581.719, 680.399 580.786, 670.442 580.588, 668.322 580.616, 666.956 580.745, 660.689 580.610, 654.628 580.042, 649.101 " fill="none" stroke="rgb(0, 0, 0)" stroke-linecap="butt" stroke-linejoin="round" stroke-opacity="1.0" stroke-width="3.0" />
            <path d=" M 596.785, 702.603 596.541, 702.222 592.291, 695.580 590.080, 689.767 589.211, 687.720 587.072, 678.819 586.026, 672.101 585.768, 670.444 " fill="none" stroke="rgb(0, 0, 0)" stroke-linecap="butt" stroke-linejoin="round" stroke-opacity="1.0" stroke-width="3.0" />
            <path d=" M 920.174, 450.479 921.427, 443.930 920.397, 437.869 919.551, 433.413 919.143, 431.260 918.762, 428.821 918.091, 424.522 917.406, 420.134 916.974, 418.913 915.965, 416.068 " fill="none" stroke="rgb(0, 0, 0)" stroke-linecap="butt" stroke-linejoin="round" stroke-opacity="1.0" stroke-width="3.0" />
            <path d=" M 743.374, 1170.120 745.333, 1171.163 754.531, 1168.389 758.734, 1166.478 762.796, 1161.828 765.163, 1158.939 766.963, 1155.212 769.196, 1149.771 " fill="none" stroke="rgb(0, 0, 0)" stroke-linecap="butt" stroke-linejoin="round" stroke-opacity="1.0" stroke-width="3.0" />
            <path d=" M 929.112, 581.199 929.232, 579.663 930.484, 575.001 931.518, 572.503 931.612, 569.349 931.653, 567.721 931.781, 563.226 929.998, 553.457 929.036, 549.019 927.865, 545.169 927.838, 545.078 " fill="none" stroke="rgb(0, 0, 0)" stroke-linecap="butt" stroke-linejoin="round" stroke-opacity="1.0" stroke-width="3.0" />
            <path d=" M 630.247, 1049.004 627.872, 1052.297 623.691, 1057.773 621.040, 1061.185 619.068, 1063.724 614.390, 1067.876 612.417, 1073.105 613.752, 1076.073 615.988, 1077.119 617.076, 1077.086 " fill="none" stroke="rgb(0, 0, 0)" stroke-linecap="butt" stroke-linejoin="round" stroke-opacity="1.0" stroke-width="3.0" />
            <path d=" M 579.328, 1123.024 582.965, 1125.350 587.515, 1123.026 589.977, 1121.750 591.369, 1120.896 593.771, 1118.713 594.862, 1117.185 595.065, 1116.129 595.130, 1114.474 594.864, 1111.776 593.784, 1109.345 593.047, 1107.831 591.322, 1104.775 591.127, 1103.339 591.121, 1103.300 590.885, 1101.555 591.585, 1101.189 592.262, 1100.836 592.386, 1100.771 " fill="none" stroke="rgb(0, 0, 0)" stroke-linecap="butt" stroke-linejoin="round" stroke-opacity="1.0" stroke-width="3.0" />
            <path d=" M 732.296, 1070.190 732.015, 1072.117 731.130, 1078.176 729.578, 1081.284 726.873, 1081.811 723.579, 1079.255 720.023, 1071.942 716.890, 1062.446 716.662, 1061.755 " fill="none" stroke="rgb(0, 0, 0)" stroke-linecap="butt" stroke-linejoin="round" stroke-opacity="1.0" stroke-width="3.0" />
            <path d=" M 541.830, 1087.928 541.433, 1090.906 541.263, 1092.179 541.201, 1092.649 541.117, 1093.280 540.347, 1095.385 539.526, 1100.057 539.773, 1103.900 541.292, 1113.358 542.981, 1117.181 546.285, 1118.678 547.644, 1117.670 549.660, 1116.176 " fill="none" stroke="rgb(0, 0, 0)" stroke-linecap="butt" stroke-linejoin="round" stroke-opacity="1.0" stroke-width="3.0" />
            <path d=" M 685.545, 1064.320 687.296, 1071.204 687.106, 1081.203 687.091, 1082.024 684.199, 1089.702 683.016, 1096.630 682.290, 1099.274 681.760, 1101.203 " fill="none" stroke="rgb(0, 0, 0)" stroke-linecap="butt" stroke-linejoin="round" stroke-opacity="1.0" stroke-width="3.0" />
            <path d=" M 564.709, 982.598 563.047, 974.978 562.422, 968.574 561.759, 961.763 561.617, 960.310 561.046, 957.391 559.748, 950.748 559.557, 945.119 " fill="none" stroke="rgb(0, 0, 0)" stroke-linecap="butt" stroke-linejoin="round" stroke-opacity="1.0" stroke-width="3.0" />
            <path d=" M 597.441, 799.068 597.998, 807.134 597.999, 807.145 598.024, 807.508 598.027, 807.547 598.127, 808.991 598.815, 813.503 599.014, 814.807 599.279, 816.547 599.391, 817.281 599.563, 818.412 600.379, 820.943 604.099, 830.225 604.990, 832.449 606.418, 836.012 " fill="none" stroke="rgb(0, 0, 0)" stroke-linecap="butt" stroke-linejoin="round" stroke-opacity="1.0" stroke-width="3.0" />
            <path d=" M 662.999, 646.743 660.110, 650.073 658.409, 651.234 656.224, 654.891 652.541, 659.456 650.828, 663.708 650.485, 668.979 649.785, 678.101 649.784, 678.104 649.782, 678.117 649.130, 681.509 649.094, 681.756 " fill="none" stroke="rgb(0, 0, 0)" stroke-linecap="butt" stroke-linejoin="round" stroke-opacity="1.0" stroke-width="3.0" />
            <path d=" M 681.228, 316.118 678.606, 316.626 671.863, 320.760 668.162, 322.459 662.476, 325.957 659.881, 327.530 657.436, 330.260 656.408, 331.407 653.338, 333.358 647.532, 337.047 646.828, 338.119 " fill="none" stroke="rgb(0, 0, 0)" stroke-linecap="butt" stroke-linejoin="round" stroke-opacity="1.0" stroke-width="3.0" />
            <path d=" M 944.449, 641.460 943.820, 641.179 942.906, 640.770 939.981, 641.485 937.714, 644.640 935.981, 647.704 934.700, 654.211 932.218, 661.886 931.480, 665.767 929.778, 670.349 927.048, 675.726 " fill="none" stroke="rgb(0, 0, 0)" stroke-linecap="butt" stroke-linejoin="round" stroke-opacity="1.0" stroke-width="3.0" />
            <path d=" M 544.475, 865.998 544.485, 866.913 544.492, 867.528 542.800, 868.055 541.524, 868.453 540.552, 869.444 539.400, 870.618 536.266, 876.751 535.612, 879.888 535.424, 886.350 535.610, 892.545 536.685, 896.473 536.708, 900.014 537.336, 901.400 537.341, 901.411 538.300, 903.527 " fill="none" stroke="rgb(0, 0, 0)" stroke-linecap="butt" stroke-linejoin="round" stroke-opacity="1.0" stroke-width="3.0" />
            <path d=" M 553.709, 489.057 555.118, 490.185 558.305, 492.779 563.492, 497.945 563.991, 498.443 565.300, 499.418 569.169, 502.301 569.660, 502.667 577.651, 508.120 578.428, 508.417 583.460, 510.146 585.302, 510.202 588.614, 511.059 " fill="none" stroke="rgb(0, 0, 0)" stroke-linecap="butt" stroke-linejoin="round" stroke-opacity="1.0" stroke-width="3.0" />
            <path d=" M 743.031, 358.550 743.353, 366.311 744.175, 373.947 744.470, 382.438 745.003, 384.247 745.534, 386.050 745.719, 386.676 745.816, 387.005 745.914, 390.380 746.010, 393.687 746.429, 400.410 " fill="none" stroke="rgb(0, 0, 0)" stroke-linecap="butt" stroke-linejoin="round" stroke-opacity="1.0" stroke-width="3.0" />
            <path d=" M 595.763, 550.274 597.472, 547.278 600.269, 544.013 604.304, 537.763 605.240, 533.026 604.507, 530.650 601.963, 527.700 600.343, 526.486 591.098, 522.673 587.232, 521.078 " fill="none" stroke="rgb(0, 0, 0)" stroke-linecap="butt" stroke-linejoin="round" stroke-opacity="1.0" stroke-width="3.0" />
            <path d=" M 586.026, 672.101 585.816, 668.652 585.657, 666.133 583.519, 656.364 583.371, 655.687 582.106, 651.337 581.246, 648.377 580.086, 644.287 578.814, 637.364 576.880, 630.842 576.816, 630.596 " fill="none" stroke="rgb(0, 0, 0)" stroke-linecap="butt" stroke-linejoin="round" stroke-opacity="1.0" stroke-width="3.0" />
            <path d=" M 922.889, 530.300 922.873, 529.840 922.749, 526.430 920.231, 521.849 916.065, 516.859 917.382, 512.878 917.054, 510.051 915.280, 505.010 915.353, 499.891 916.057, 495.183 915.589, 493.491 915.190, 492.048 915.114, 491.775 915.077, 491.639 914.756, 490.478 " fill="none" stroke="rgb(0, 0, 0)" stroke-linecap="butt" stroke-linejoin="round" stroke-opacity="1.0" stroke-width="3.0" />
            <path d=" M 542.964, 1066.465 541.998, 1063.368 540.021, 1061.413 539.853, 1061.321 539.850, 1061.320 538.491, 1060.573 536.465, 1060.501 535.627, 1060.472 534.176, 1061.101 534.151, 1061.112 534.104, 1061.132 534.093, 1061.137 534.088, 1061.139 533.972, 1061.189 533.178, 1061.534 531.297, 1064.194 530.313, 1071.464 530.819, 1076.306 532.956, 1080.705 534.086, 1082.828 532.169, 1079.876 530.819, 1076.306 " fill="none" stroke="rgb(0, 0, 0)" stroke-linecap="butt" stroke-linejoin="round" stroke-opacity="1.0" stroke-width="3.0" />
            <path d=" M 723.823, 1165.657 723.876, 1169.134 725.837, 1172.326 729.587, 1173.647 736.321, 1173.513 742.933, 1170.764 743.374, 1170.120 746.737, 1165.203 747.904, 1162.014 748.535, 1160.291 748.704, 1160.053 750.577, 1157.418 750.889, 1156.978 753.785, 1156.253 754.239, 1156.139 754.544, 1156.063 " fill="none" stroke="rgb(0, 0, 0)" stroke-linecap="butt" stroke-linejoin="round" stroke-opacity="1.0" stroke-width="3.0" />
            <path d=" M 551.510, 504.845 550.771, 503.785 550.239, 502.553 548.548, 498.639 546.880, 494.779 545.618, 490.424 545.348, 489.492 542.617, 481.588 540.170, 477.376 538.742, 467.585 536.194, 463.234 536.043, 462.976 " fill="none" stroke="rgb(0, 0, 0)" stroke-linecap="butt" stroke-linejoin="round" stroke-opacity="1.0" stroke-width="3.0" />
            <path d=" M 570.772, 778.083 570.880, 778.084 571.509, 778.086 575.618, 778.102 579.072, 776.554 580.675, 773.061 580.639, 771.246 578.632, 762.561 578.691, 759.487 579.920, 756.231 580.416, 752.332 578.893, 749.150 576.016, 744.419 574.889, 743.183 573.973, 742.179 " fill="none" stroke="rgb(0, 0, 0)" stroke-linecap="butt" stroke-linejoin="round" stroke-opacity="1.0" stroke-width="3.0" />
            <path d=" M 526.941, 532.772 527.158, 533.387 527.416, 534.117 529.026, 538.679 529.483, 542.047 530.619, 548.022 531.755, 552.507 532.345, 557.658 532.846, 560.457 534.319, 563.983 535.299, 568.826 537.138, 577.309 " fill="none" stroke="rgb(0, 0, 0)" stroke-linecap="butt" stroke-linejoin="round" stroke-opacity="1.0" stroke-width="3.0" />
            <path d=" M 712.163, 1075.300 713.246, 1070.631 716.193, 1063.154 716.448, 1062.393 716.467, 1062.337 716.662, 1061.755 717.990, 1057.791 720.497, 1051.502 723.012, 1044.857 726.604, 1035.524 727.740, 1032.572 727.918, 1032.111 " fill="none" stroke="rgb(0, 0, 0)" stroke-linecap="butt" stroke-linejoin="round" stroke-opacity="1.0" stroke-width="3.0" />
            <path d=" M 903.253, 392.027 903.617, 389.428 903.631, 388.953 903.636, 388.757 903.663, 387.845 903.663, 387.838 903.751, 384.769 903.818, 382.422 902.770, 379.589 899.588, 373.945 898.924, 367.423 897.159, 364.315 892.505, 359.460 890.350, 356.082 889.792, 355.429 886.085, 351.087 884.657, 349.617 " fill="none" stroke="rgb(0, 0, 0)" stroke-linecap="butt" stroke-linejoin="round" stroke-opacity="1.0" stroke-width="3.0" />
            <path d=" M 759.182, 1036.666 759.966, 1038.187 762.143, 1046.464 761.825, 1056.459 761.698, 1060.443 762.438, 1065.296 762.016, 1073.594 759.172, 1082.651 757.792, 1084.694 " fill="none" stroke="rgb(0, 0, 0)" stroke-linecap="butt" stroke-linejoin="round" stroke-opacity="1.0" stroke-width="3.0" />
            <path d=" M 642.255, 923.469 642.221, 923.513 639.307, 927.286 636.602, 933.481 636.563, 933.613 633.801, 942.894 633.293, 949.704 632.775, 951.569 632.641, 954.117 633.560, 955.102 634.508, 955.762 638.300, 956.836 641.371, 957.429 642.380, 957.303 648.212, 956.578 648.712, 956.484 " fill="none" stroke="rgb(0, 0, 0)" stroke-linecap="butt" stroke-linejoin="round" stroke-opacity="1.0" stroke-width="3.0" />
            <path d=" M 591.682, 523.551 591.202, 523.284 591.066, 523.209 587.232, 521.078 582.583, 518.496 574.057, 513.271 573.443, 512.895 570.875, 511.003 567.078, 508.205 558.605, 502.894 556.927, 501.842 552.708, 499.955 550.274, 498.867 548.548, 498.639 " fill="none" stroke="rgb(0, 0, 0)" stroke-linecap="butt" stroke-linejoin="round" stroke-opacity="1.0" stroke-width="3.0" />
            <path d=" M 856.007, 324.166 851.599, 321.627 848.154, 319.857 844.560, 317.997 841.689, 316.324 836.989, 313.683 833.345, 311.465 829.603, 308.537 825.039, 304.966 823.474, 303.911 822.158, 303.094 820.308, 301.948 817.967, 300.051 816.409, 298.788 813.824, 296.694 " fill="none" stroke="rgb(0, 0, 0)" stroke-linecap="butt" stroke-linejoin="round" stroke-opacity="1.0" stroke-width="3.0" />
            <path d=" M 529.214, 702.068 528.783, 705.366 527.487, 715.282 527.058, 718.566 526.209, 724.185 525.242, 732.244 524.181, 739.739 523.517, 745.187 522.987, 752.417 " fill="none" stroke="rgb(0, 0, 0)" stroke-linecap="butt" stroke-linejoin="round" stroke-opacity="1.0" stroke-width="3.0" />
            <path d=" M 845.517, 897.587 847.791, 892.591 851.702, 884.409 853.634, 878.164 855.751, 868.776 856.384, 862.374 857.603, 855.062 858.630, 848.903 " fill="none" stroke="rgb(0, 0, 0)" stroke-linecap="butt" stroke-linejoin="round" stroke-opacity="1.0" stroke-width="3.0" />
            <path d=" M 557.778, 918.227 558.734, 908.273 559.029, 905.199 558.857, 899.559 559.674, 889.592 559.879, 887.091 560.121, 878.194 560.899, 868.224 560.970, 867.318 " fill="none" stroke="rgb(0, 0, 0)" stroke-linecap="butt" stroke-linejoin="round" stroke-opacity="1.0" stroke-width="3.0" />
            <path d=" M 528.771, 985.856 530.239, 995.748 530.498, 997.489 533.411, 1007.056 533.547, 1007.502 534.496, 1017.457 534.945, 1022.168 534.597, 1032.162 534.538, 1033.859 534.654, 1037.707 " fill="none" stroke="rgb(0, 0, 0)" stroke-linecap="butt" stroke-linejoin="round" stroke-opacity="1.0" stroke-width="3.0" />
            <path d=" M 727.428, 1032.666 727.651, 1032.414 727.918, 1032.111 728.684, 1031.244 729.087, 1030.787 729.262, 1030.589 729.366, 1030.568 731.719, 1030.103 735.158, 1029.423 735.411, 1029.126 735.472, 1029.055 739.909, 1023.862 744.647, 1018.866 750.422, 1010.702 752.149, 1008.262 758.362, 1000.426 758.903, 999.745 762.189, 998.085 764.393, 996.971 764.420, 996.957 764.490, 996.922 " fill="none" stroke="rgb(0, 0, 0)" stroke-linecap="butt" stroke-linejoin="round" stroke-opacity="1.0" stroke-width="3.0" />
            <path d=" M 689.077, 1149.849 688.988, 1151.589 688.800, 1155.249 693.070, 1160.212 697.027, 1163.831 700.444, 1163.916 703.716, 1162.840 708.907, 1169.962 712.396, 1171.323 720.170, 1171.280 723.180, 1167.599 723.823, 1165.657 724.435, 1163.806 724.436, 1163.477 724.436, 1163.196 " fill="none" stroke="rgb(0, 0, 0)" stroke-linecap="butt" stroke-linejoin="round" stroke-opacity="1.0" stroke-width="3.0" />
            <path d=" M 682.290, 1099.274 677.316, 1102.947 674.608, 1104.753 671.948, 1108.438 668.636, 1112.362 666.567, 1114.891 664.676, 1119.516 666.698, 1124.440 671.453, 1128.527 675.418, 1128.913 679.716, 1127.656 684.229, 1124.811 685.437, 1124.039 " fill="none" stroke="rgb(0, 0, 0)" stroke-linecap="butt" stroke-linejoin="round" stroke-opacity="1.0" stroke-width="3.0" />
            <path d=" M 680.574, 305.895 676.666, 308.045 673.038, 311.399 669.723, 314.883 667.474, 316.784 665.720, 318.502 662.414, 320.708 658.818, 322.692 653.957, 326.342 652.168, 330.228 649.528, 332.983 646.335, 335.957 639.389, 341.392 " fill="none" stroke="rgb(0, 0, 0)" stroke-linecap="butt" stroke-linejoin="round" stroke-opacity="1.0" stroke-width="3.0" />
            <path d=" M 757.635, 311.560 757.245, 311.682 756.900, 311.789 755.003, 312.379 754.375, 312.575 749.376, 316.520 747.843, 318.198 747.158, 320.874 746.404, 324.044 746.403, 324.048 746.125, 325.218 743.264, 329.627 742.338, 331.738 741.114, 338.101 740.957, 343.231 743.090, 347.201 743.437, 347.847 743.484, 353.191 743.487, 353.654 743.388, 354.010 742.652, 356.660 743.031, 358.550 743.963, 363.198 " fill="none" stroke="rgb(0, 0, 0)" stroke-linecap="butt" stroke-linejoin="round" stroke-opacity="1.0" stroke-width="3.0" />
            <path d=" M 615.875, 1077.044 617.076, 1077.086 621.537, 1077.242 629.381, 1075.930 634.481, 1074.829 636.426, 1074.409 645.925, 1071.933 651.962, 1068.776 656.837, 1065.423 660.605, 1063.040 667.097, 1056.503 669.648, 1053.186 " fill="none" stroke="rgb(0, 0, 0)" stroke-linecap="butt" stroke-linejoin="round" stroke-opacity="1.0" stroke-width="3.0" />
            <path d=" M 628.572, 731.713 625.611, 730.305 625.121, 730.072 624.965, 729.997 623.041, 729.083 622.279, 728.720 622.069, 728.620 621.986, 728.581 621.092, 728.156 618.969, 727.004 617.437, 726.173 617.121, 726.001 616.899, 725.881 615.941, 725.361 614.208, 724.421 611.083, 721.944 610.063, 720.876 610.022, 720.833 604.554, 715.106 601.467, 712.163 595.459, 704.169 593.633, 701.739 587.928, 693.526 585.781, 690.434 585.211, 689.613 " fill="none" stroke="rgb(0, 0, 0)" stroke-linecap="butt" stroke-linejoin="round" stroke-opacity="1.0" stroke-width="3.0" />
            <path d=" M 889.792, 355.429 888.340, 353.270 885.437, 350.304 881.753, 345.056 879.009, 342.378 875.592, 339.542 871.424, 334.071 865.156, 328.466 858.303, 324.562 856.007, 324.166 853.756, 323.778 848.032, 320.735 845.413, 321.021 840.690, 321.536 " fill="none" stroke="rgb(0, 0, 0)" stroke-linecap="butt" stroke-linejoin="round" stroke-opacity="1.0" stroke-width="3.0" />
            <path d=" M 656.320, 695.532 656.836, 688.931 655.865, 686.647 654.225, 684.899 652.941, 684.562 649.168, 681.810 649.168, 681.810 649.094, 681.756 647.118, 680.315 642.241, 679.538 636.576, 681.804 631.581, 686.339 629.623, 688.935 626.453, 692.134 623.034, 694.920 619.719, 698.843 617.593, 701.017 613.719, 704.087 610.587, 705.964 " fill="none" stroke="rgb(0, 0, 0)" stroke-linecap="butt" stroke-linejoin="round" stroke-opacity="1.0" stroke-width="3.0" />
            <path d=" M 772.451, 995.513 782.093, 998.144 782.113, 998.150 782.246, 998.186 782.741, 998.321 791.554, 1003.046 793.966, 1004.339 794.167, 1004.447 794.397, 1004.847 794.437, 1004.917 798.902, 1012.686 798.917, 1012.744 798.973, 1012.952 799.164, 1013.674 800.039, 1016.970 800.098, 1017.194 801.086, 1020.914 801.154, 1021.173 801.710, 1022.893 802.143, 1024.234 802.178, 1024.342 802.213, 1024.452 802.289, 1024.688 802.313, 1024.763 805.507, 1033.222 806.314, 1034.870 808.442, 1044.641 808.507, 1044.938 " fill="none" stroke="rgb(0, 0, 0)" stroke-linecap="butt" stroke-linejoin="round" stroke-opacity="1.0" stroke-width="3.0" />
            <path d=" M 668.202, 551.393 668.906, 552.411 671.747, 559.634 673.160, 565.456 674.655, 569.847 674.188, 574.299 673.366, 577.849 672.884, 582.085 672.539, 585.113 671.581, 586.282 667.829, 590.862 664.388, 593.175 662.931, 596.607 662.898, 596.714 661.095, 600.143 661.275, 603.389 663.678, 613.096 663.980, 614.315 " fill="none" stroke="rgb(0, 0, 0)" stroke-linecap="butt" stroke-linejoin="round" stroke-opacity="1.0" stroke-width="3.0" />
            <path d=" M 639.120, 341.555 632.603, 343.857 629.285, 344.947 624.844, 346.870 619.903, 348.828 617.385, 349.867 613.346, 351.731 609.330, 351.183 601.772, 355.217 594.557, 359.424 590.854, 362.234 589.426, 365.321 587.819, 368.892 587.167, 374.188 588.091, 379.258 " fill="none" stroke="rgb(0, 0, 0)" stroke-linecap="butt" stroke-linejoin="round" stroke-opacity="1.0" stroke-width="3.0" />
            <path d=" M 582.106, 651.337 582.729, 645.653 582.635, 636.249 581.550, 630.078 580.264, 620.161 580.072, 618.677 580.018, 609.072 580.495, 599.083 580.795, 592.802 580.889, 592.046 581.784, 582.045 581.776, 579.385 " fill="none" stroke="rgb(0, 0, 0)" stroke-linecap="butt" stroke-linejoin="round" stroke-opacity="1.0" stroke-width="3.0" />
            <path d=" M 541.979, 907.260 543.964, 907.184 547.645, 907.337 548.380, 906.942 551.664, 905.181 552.676, 901.511 554.954, 899.501 557.008, 896.033 559.196, 890.074 559.296, 887.068 558.437, 883.974 556.014, 877.436 554.007, 874.796 552.498, 869.397 553.052, 867.793 556.078, 867.854 560.970, 867.318 561.353, 867.276 564.005, 866.013 564.715, 864.628 563.417, 858.910 562.896, 856.620 " fill="none" stroke="rgb(0, 0, 0)" stroke-linecap="butt" stroke-linejoin="round" stroke-opacity="1.0" stroke-width="3.0" />
            <path d=" M 600.243, 890.437 599.734, 892.461 598.154, 898.744 595.939, 905.833 594.313, 911.298 591.889, 921.000 591.417, 922.888 589.330, 932.668 587.769, 939.984 585.936, 947.392 582.664, 956.841 581.258, 960.904 " fill="none" stroke="rgb(0, 0, 0)" stroke-linecap="butt" stroke-linejoin="round" stroke-opacity="1.0" stroke-width="3.0" />
            <path d=" M 593.370, 1102.126 593.746, 1102.670 594.957, 1104.420 596.015, 1105.950 596.648, 1109.769 597.541, 1114.170 598.520, 1121.059 598.832, 1122.774 600.102, 1123.287 602.130, 1123.873 608.232, 1119.055 608.835, 1116.822 609.701, 1110.855 610.741, 1105.663 609.876, 1100.765 608.091, 1096.468 607.502, 1095.231 606.652, 1093.874 605.973, 1092.792 606.695, 1092.756 608.139, 1092.684 614.274, 1094.151 621.763, 1094.767 " fill="none" stroke="rgb(0, 0, 0)" stroke-linecap="butt" stroke-linejoin="round" stroke-opacity="1.0" stroke-width="3.0" />
            <path d=" M 874.111, 787.327 874.723, 784.629 875.216, 782.453 877.474, 773.848 878.648, 769.197 879.494, 763.514 880.625, 759.107 882.244, 752.210 882.549, 748.432 883.021, 745.443 885.079, 735.657 885.133, 735.398 885.469, 730.889 884.689, 724.234 885.046, 720.199 887.567, 712.135 " fill="none" stroke="rgb(0, 0, 0)" stroke-linecap="butt" stroke-linejoin="round" stroke-opacity="1.0" stroke-width="3.0" />
            <path d=" M 642.641, 342.458 642.468, 342.606 635.897, 348.219 633.844, 351.646 630.323, 355.999 628.611, 359.131 627.044, 361.998 625.540, 364.045 623.640, 366.633 622.500, 368.184 620.615, 372.726 616.483, 377.860 612.867, 382.357 612.549, 382.753 610.708, 384.653 610.636, 384.727 607.789, 387.667 606.947, 389.240 606.944, 396.154 606.310, 398.458 606.102, 399.215 605.317, 402.070 605.315, 404.283 605.315, 404.824 605.314, 404.947 605.314, 405.422 605.310, 409.622 " fill="none" stroke="rgb(0, 0, 0)" stroke-linecap="butt" stroke-linejoin="round" stroke-opacity="1.0" stroke-width="3.0" />
            <path d=" M 556.323, 746.015 555.137, 748.283 552.541, 753.432 549.202, 761.051 548.821, 765.469 548.679, 767.126 548.461, 769.655 550.354, 773.878 552.398, 776.520 552.839, 777.090 553.206, 777.564 553.121, 779.009 547.336, 782.161 545.387, 784.531 544.715, 786.210 543.748, 788.719 543.436, 789.608 542.830, 796.376 540.832, 801.678 540.312, 807.121 541.133, 809.397 542.156, 812.231 542.198, 812.348 545.314, 816.321 545.120, 817.466 545.074, 817.738 545.056, 817.841 " fill="none" stroke="rgb(0, 0, 0)" stroke-linecap="butt" stroke-linejoin="round" stroke-opacity="1.0" stroke-width="3.0" />
            <path d=" M 809.019, 1076.130 812.111, 1070.636 815.443, 1064.715 818.223, 1057.129 820.227, 1052.585 822.244, 1042.791 823.174, 1038.276 823.895, 1030.765 824.115, 1028.465 823.830, 1024.556 823.586, 1021.216 823.140, 1015.097 822.653, 1005.109 822.278, 997.419 " fill="none" stroke="rgb(0, 0, 0)" stroke-linecap="butt" stroke-linejoin="round" stroke-opacity="1.0" stroke-width="3.0" />
            <path d=" M 774.078, 1142.243 776.056, 1138.485 776.545, 1137.555 777.678, 1135.401 777.717, 1135.347 782.915, 1128.300 782.938, 1128.269 783.597, 1127.375 784.435, 1126.374 784.485, 1126.315 790.904, 1118.647 791.931, 1117.420 796.753, 1108.659 799.067, 1104.456 802.755, 1097.940 806.613, 1088.714 807.213, 1087.280 810.256, 1077.754 811.356, 1074.314 812.111, 1070.636 " fill="none" stroke="rgb(0, 0, 0)" stroke-linecap="butt" stroke-linejoin="round" stroke-opacity="1.0" stroke-width="3.0" />
            <path d=" M 868.024, 822.315 870.502, 818.863 874.438, 813.781 879.681, 810.662 884.248, 806.684 892.673, 801.296 901.044, 795.943 908.304, 790.119 912.643, 786.942 917.922, 780.768 921.543, 776.393 925.890, 770.203 928.951, 764.610 " fill="none" stroke="rgb(0, 0, 0)" stroke-linecap="butt" stroke-linejoin="round" stroke-opacity="1.0" stroke-width="3.0" />
            <path d=" M 537.213, 575.210 537.138, 577.309 537.043, 579.974 538.701, 589.836 539.451, 594.300 539.496, 594.566 539.488, 594.899 539.245, 604.896 539.103, 610.731 539.301, 620.269 539.790, 624.898 540.336, 630.074 541.073, 634.038 541.890, 638.434 542.025, 639.226 542.929, 644.547 542.935, 644.580 543.333, 646.922 544.358, 652.824 547.409, 662.009 " fill="none" stroke="rgb(0, 0, 0)" stroke-linecap="butt" stroke-linejoin="round" stroke-opacity="1.0" stroke-width="3.0" />
            <path d=" M 861.097, 815.333 862.403, 806.006 864.304, 796.188 865.425, 790.397 865.556, 789.717 865.565, 789.671 866.986, 782.332 868.880, 772.513 869.396, 769.837 869.431, 769.658 869.571, 768.928 872.424, 759.344 872.943, 757.597 874.268, 747.685 874.819, 743.558 876.639, 738.564 880.302, 732.533 881.570, 729.117 " fill="none" stroke="rgb(0, 0, 0)" stroke-linecap="butt" stroke-linejoin="round" stroke-opacity="1.0" stroke-width="3.0" />
            <path d=" M 593.414, 514.206 594.649, 515.563 596.529, 517.629 601.027, 521.509 605.732, 525.633 612.892, 531.238 620.667, 534.021 628.650, 534.277 634.047, 533.387 637.418, 534.704 642.074, 536.204 649.062, 540.590 654.439, 544.443 663.365, 548.950 668.202, 551.393 671.362, 552.988 671.534, 553.075 " fill="none" stroke="rgb(0, 0, 0)" stroke-linecap="butt" stroke-linejoin="round" stroke-opacity="1.0" stroke-width="3.0" />
            <path d=" M 714.795, 639.897 710.483, 646.908 706.339, 652.504 702.683, 659.053 699.498, 664.717 694.908, 672.632 693.259, 675.276 691.882, 677.484 691.687, 677.796 690.477, 679.736 689.378, 680.827 684.926, 685.248 681.139, 689.101 681.138, 689.102 675.393, 694.946 675.167, 695.176 671.705, 697.473 664.495, 704.403 662.568, 706.256 662.018, 706.784 659.862, 709.689 659.702, 709.905 659.509, 710.189 " fill="none" stroke="rgb(0, 0, 0)" stroke-linecap="butt" stroke-linejoin="round" stroke-opacity="1.0" stroke-width="3.0" />
            <path d=" M 622.805, 879.712 623.200, 880.575 624.507, 883.424 626.648, 888.094 626.755, 888.473 628.187, 893.542 628.343, 894.086 629.992, 899.837 632.301, 905.569 633.164, 907.709 635.751, 909.621 640.686, 918.138 641.167, 918.970 642.255, 923.469 642.366, 923.929 642.531, 924.611 643.514, 928.564 645.019, 932.138 645.047, 932.303 645.963, 937.688 646.282, 939.566 646.105, 945.940 647.444, 951.904 647.561, 952.423 649.088, 954.256 648.712, 956.484 648.016, 960.615 648.223, 961.346 648.908, 963.762 " fill="none" stroke="rgb(0, 0, 0)" stroke-linecap="butt" stroke-linejoin="round" stroke-opacity="1.0" stroke-width="3.0" />
            <path d=" M 914.871, 491.664 914.756, 490.478 914.724, 490.154 914.711, 490.020 914.655, 489.451 914.495, 487.804 913.333, 484.547 913.205, 484.385 913.083, 484.232 912.477, 483.468 912.386, 483.353 911.945, 482.798 910.166, 477.161 908.901, 471.935 909.355, 467.579 908.385, 462.126 908.617, 455.361 908.811, 453.345 908.350, 445.144 908.677, 438.838 909.265, 435.840 907.274, 428.300 906.824, 425.738 904.272, 419.386 901.957, 412.959 903.227, 408.577 902.750, 402.668 902.719, 402.290 " fill="none" stroke="rgb(0, 0, 0)" stroke-linecap="butt" stroke-linejoin="round" stroke-opacity="1.0" stroke-width="3.0" />
            <path d=" M 548.885, 661.822 549.175, 664.010 549.204, 664.228 549.220, 664.349 549.380, 665.563 549.424, 665.896 550.150, 671.375 550.588, 673.969 550.661, 674.397 550.808, 675.269 552.287, 684.022 554.454, 693.784 554.875, 695.679 557.158, 701.177 558.066, 703.362 561.399, 711.389 565.393, 718.321 567.877, 722.633 573.251, 731.066 574.485, 733.002 575.324, 734.432 575.678, 735.035 575.734, 735.131 576.648, 736.689 578.820, 740.392 579.648, 741.354 581.995, 744.080 584.181, 746.618 " fill="none" stroke="rgb(0, 0, 0)" stroke-linecap="butt" stroke-linejoin="round" stroke-opacity="1.0" stroke-width="3.0" />
            <path d=" M 756.999, 1074.779 757.020, 1073.780 757.218, 1064.051 758.971, 1055.300 759.205, 1049.982 758.927, 1039.986 758.880, 1038.281 759.182, 1036.666 759.346, 1035.792 759.399, 1035.510 759.480, 1035.074 760.737, 1028.360 762.653, 1023.404 764.515, 1021.409 770.151, 1014.990 771.235, 1013.754 772.000, 1013.963 772.053, 1013.978 774.794, 1014.725 776.378, 1015.954 777.170, 1016.569 777.204, 1016.596 777.336, 1016.698 778.085, 1017.279 779.155, 1018.109 781.983, 1019.413 782.086, 1019.479 785.784, 1021.863 786.032, 1022.023 786.251, 1022.119 786.479, 1022.219 787.218, 1022.543 789.236, 1021.375 792.516, 1021.296 795.583, 1023.308 797.962, 1023.071 801.980, 1024.377 " fill="none" stroke="rgb(0, 0, 0)" stroke-linecap="butt" stroke-linejoin="round" stroke-opacity="1.0" stroke-width="3.0" />
            <path d=" M 575.969, 625.912 575.344, 621.375 574.257, 612.863 574.262, 605.010 573.656, 598.833 574.009, 594.641 575.047, 588.652 577.350, 581.500 580.744, 574.742 584.096, 568.702 584.471, 568.197 587.451, 564.190 593.555, 556.270 593.770, 555.992 596.425, 551.595 595.763, 550.274 595.611, 549.970 591.236, 545.117 590.646, 544.448 586.485, 541.174 586.137, 541.039 583.780, 540.251 582.170, 539.712 " fill="none" stroke="rgb(0, 0, 0)" stroke-linecap="butt" stroke-linejoin="round" stroke-opacity="1.0" stroke-width="3.0" />
            <path d=" M 954.657, 637.351 956.298, 634.398 959.742, 625.908 962.114, 618.457 962.314, 616.369 963.176, 611.547 962.964, 601.581 962.432, 596.027 960.900, 588.047 959.354, 582.354 957.545, 578.217 955.078, 574.890 952.409, 571.130 948.712, 567.808 945.373, 563.246 941.097, 557.673 938.074, 555.547 936.707, 553.835 932.737, 549.184 930.550, 547.629 930.501, 547.595 " fill="none" stroke="rgb(0, 0, 0)" stroke-linecap="butt" stroke-linejoin="round" stroke-opacity="1.0" stroke-width="3.0" />
            <path d=" M 780.128, 285.344 778.674, 285.012 770.787, 281.332 763.543, 276.449 760.077, 274.522 757.843, 273.557 754.967, 272.355 746.237, 270.262 738.845, 269.010 734.451, 267.698 732.763, 267.385 729.584, 267.906 726.164, 269.862 718.850, 273.958 714.327, 275.964 709.447, 277.669 704.521, 280.037 701.374, 281.977 698.964, 284.469 697.442, 285.280 694.524, 288.093 691.377, 292.000 689.899, 294.661 689.246, 296.974 689.050, 297.670 " fill="none" stroke="rgb(0, 0, 0)" stroke-linecap="butt" stroke-linejoin="round" stroke-opacity="1.0" stroke-width="3.0" />
            <path d=" M 926.336, 768.712 928.951, 764.610 931.461, 760.673 935.242, 754.128 937.489, 749.387 938.432, 747.345 939.346, 744.697 942.300, 739.247 944.002, 735.023 945.238, 729.955 947.693, 724.562 949.454, 718.669 950.643, 713.386 952.065, 704.422 952.246, 703.023 953.870, 695.409 952.721, 691.116 953.759, 686.014 952.983, 676.044 952.842, 674.232 952.591, 664.235 952.588, 664.132 " fill="none" stroke="rgb(0, 0, 0)" stroke-linecap="butt" stroke-linejoin="round" stroke-opacity="1.0" stroke-width="3.0" />
            <path d=" M 890.992, 702.599 895.027, 693.449 895.939, 691.381 900.762, 682.621 901.362, 681.531 905.700, 672.520 906.382, 671.102 909.543, 664.651 912.627, 658.349 916.926, 649.321 918.155, 646.740 922.068, 640.833 923.371, 638.867 924.880, 636.589 930.852, 628.567 931.698, 627.430 938.777, 622.255 940.842, 621.127 945.038, 616.275 947.638, 611.141 948.254, 609.008 948.612, 607.764 948.755, 607.270 948.818, 607.053 949.176, 605.813 949.295, 605.398 " fill="none" stroke="rgb(0, 0, 0)" stroke-linecap="butt" stroke-linejoin="round" stroke-opacity="1.0" stroke-width="3.0" />
            <path d=" M 648.838, 967.732 648.206, 968.623 646.624, 970.854 646.379, 973.192 646.416, 973.419 647.801, 981.994 648.961, 987.585 648.040, 996.497 648.033, 996.568 645.608, 1006.112 644.148, 1013.549 643.728, 1021.895 644.251, 1024.339 645.313, 1029.302 647.730, 1034.081 650.032, 1039.733 655.818, 1046.252 658.586, 1048.496 661.271, 1049.720 666.382, 1051.999 668.682, 1052.835 668.800, 1052.878 669.648, 1053.186 670.449, 1053.477 676.524, 1056.006 681.317, 1059.329 685.102, 1063.123 " fill="none" stroke="rgb(0, 0, 0)" stroke-linecap="butt" stroke-linejoin="round" stroke-opacity="1.0" stroke-width="3.0" />
            <path d=" M 591.421, 764.420 591.151, 766.113 591.194, 770.857 590.007, 776.656 589.811, 778.058 588.450, 787.221 588.300, 788.318 588.632, 798.313 588.656, 799.035 589.236, 802.195 590.607, 812.101 590.914, 814.317 592.771, 824.143 593.289, 826.884 595.096, 831.281 597.282, 841.039 598.866, 848.108 601.036, 851.560 602.864, 854.468 603.932, 858.425 605.081, 861.405 607.034, 866.467 610.317, 870.299 613.324, 873.807 613.574, 873.952 613.781, 874.073 617.683, 876.341 620.032, 877.807 621.571, 879.152 623.200, 880.575 " fill="none" stroke="rgb(0, 0, 0)" stroke-linecap="butt" stroke-linejoin="round" stroke-opacity="1.0" stroke-width="3.0" />
            <path d=" M 587.914, 380.814 587.068, 382.718 585.529, 386.181 582.826, 392.260 579.042, 397.693 576.465, 400.911 573.782, 403.470 571.282, 405.675 567.632, 408.497 559.905, 414.844 559.140, 415.473 556.331, 417.447 553.975, 419.306 552.665, 420.435 549.880, 423.039 544.186, 425.898 539.822, 427.962 536.220, 430.296 531.916, 433.399 529.089, 436.530 527.012, 438.731 523.755, 445.868 522.058, 450.742 520.046, 455.709 518.321, 464.203 517.581, 470.215 516.877, 480.116 516.884, 483.921 517.620, 487.608 517.939, 489.204 " fill="none" stroke="rgb(0, 0, 0)" stroke-linecap="butt" stroke-linejoin="round" stroke-opacity="1.0" stroke-width="3.0" />
            <path d=" M 823.895, 1030.765 827.537, 1021.452 828.758, 1018.330 830.115, 1014.467 832.174, 1004.682 834.081, 995.624 836.005, 988.383 838.539, 978.709 839.294, 975.828 840.808, 965.943 841.249, 963.065 841.850, 953.172 841.970, 943.173 842.090, 933.173 842.136, 929.341 842.558, 919.350 842.636, 917.482 843.814, 907.552 844.079, 905.317 845.517, 897.587 846.164, 894.113 " fill="none" stroke="rgb(0, 0, 0)" stroke-linecap="butt" stroke-linejoin="round" stroke-opacity="1.0" stroke-width="3.0" />
            <path d=" M 524.285, 744.026 522.987, 752.417 522.411, 756.134 521.626, 766.103 521.556, 766.993 521.085, 776.929 520.812, 786.925 520.786, 787.857 520.326, 792.097 520.458, 795.132 519.668, 805.101 519.660, 805.203 519.577, 807.577 519.397, 814.225 519.176, 824.223 518.954, 834.220 518.875, 837.822 518.699, 847.821 518.680, 848.845 518.506, 858.208 518.381, 865.878 518.554, 875.876 518.581, 877.429 518.414, 887.428 518.296, 894.526 518.707, 898.648 518.752, 907.842 519.354, 912.434 519.995, 922.173 520.821, 932.139 521.272, 937.576 522.475, 947.503 523.495, 955.925 525.231, 964.446 526.210, 971.880 527.495, 980.469 528.771, 985.856 529.589, 989.309 " fill="none" stroke="rgb(0, 0, 0)" stroke-linecap="butt" stroke-linejoin="round" stroke-opacity="1.0" stroke-width="3.0" />
            <path d=" M 680.798, 518.778 678.231, 518.188 672.123, 516.860 670.390, 517.260 669.915, 517.370 668.510, 517.694 667.898, 517.835 665.146, 518.470 664.248, 520.177 663.785, 521.543 663.713, 521.758 663.687, 521.834 663.854, 522.362 663.890, 522.476 663.895, 522.492 665.833, 528.618 667.734, 531.874 671.193, 535.905 673.762, 538.899 680.233, 545.184 684.738, 548.462 691.840, 553.739 695.223, 556.253 695.497, 556.546 696.260, 557.362 696.291, 557.395 696.436, 557.550 699.123, 560.424 700.506, 561.903 703.586, 565.199 707.607, 570.607 710.980, 577.863 714.154, 587.346 715.251, 590.625 715.932, 600.602 716.209, 604.659 716.616, 608.929 716.690, 609.707 716.693, 609.742 717.641, 619.697 718.047, 623.963 716.089, 633.769 715.555, 636.444 714.795, 639.897 714.352, 641.908 713.710, 644.341 712.204, 650.056 708.998, 657.653 705.669, 667.083 705.490, 667.590 701.403, 675.337 698.083, 680.455 697.573, 681.241 697.171, 681.860 696.945, 682.143 696.464, 682.745 696.376, 682.855 695.774, 683.608 695.393, 684.084 694.822, 684.799 693.941, 685.901 693.638, 686.387 692.129, 688.808 689.065, 694.663 688.341, 696.001 688.297, 696.080 684.687, 702.748 682.095, 708.249 682.034, 708.377 681.863, 708.740 678.715, 714.472 678.251, 715.007 674.673, 719.136 669.033, 722.867 " fill="none" stroke="rgb(0, 0, 0)" stroke-linecap="butt" stroke-linejoin="round" stroke-opacity="1.0" stroke-width="3.0" />
        </g>
    </g>
</svg>
