<?xml version='1.0' encoding='ascii'?>
<svg xmlns="http://www.w3.org/2000/svg" height="1280" version="1.1" width="1280">
    <g id="RenderLayer_LineSet" inkscape:groupmode="lineset" inkscape:label="RenderLayer_LineSet" xmlns:inkscape="http://www.inkscape.org/namespaces/inkscape">
        <g id="strokes" inkscape:groupmode="layer" inkscape:label="strokes" xmlns:inkscape="http://www.inkscape.org/namespaces/inkscape">
            <path d=" M 654.339, 435.448 652.252, 437.327 651.328, 438.160 649.445, 439.678 647.579, 440.692 646.772, 442.872 647.770, 444.730 648.247, 445.619 648.672, 447.269 649.079, 448.422 649.503, 449.407 649.472, 450.050 649.427, 450.989 649.408, 451.376 " fill="none" stroke="rgb(0, 0, 0)" stroke-linecap="butt" stroke-linejoin="round" stroke-opacity="1.0" stroke-width="3.0" />
            <path d=" M 659.410, 676.737 655.602, 681.094 658.711, 676.473 659.985, 675.134 661.796, 673.230 661.167, 674.155 661.066, 674.303 659.410, 676.737 " fill="none" stroke="rgb(0, 0, 0)" stroke-linecap="butt" stroke-linejoin="round" stroke-opacity="1.0" stroke-width="3.0" />
            <path d=" M 773.966, 678.781 774.194, 679.341 774.279, 679.552 774.569, 680.263 774.572, 680.271 774.742, 680.690 775.947, 681.050 776.030, 680.893 777.367, 678.363 777.508, 678.095 779.941, 673.719 780.632, 672.153 780.848, 668.242 780.617, 665.417 " fill="none" stroke="rgb(0, 0, 0)" stroke-linecap="butt" stroke-linejoin="round" stroke-opacity="1.0" stroke-width="3.0" />
            <path d=" M 795.834, 897.239 798.631, 896.022 798.857, 895.924 799.174, 895.786 799.214, 895.769 799.307, 895.728 799.522, 895.635 801.482, 894.782 810.335, 890.131 812.626, 888.927 813.414, 888.513 814.058, 888.175 " fill="none" stroke="rgb(0, 0, 0)" stroke-linecap="butt" stroke-linejoin="round" stroke-opacity="1.0" stroke-width="3.0" />
            <path d=" M 766.658, 249.880 762.356, 247.661 758.026, 247.140 753.405, 246.953 749.648, 247.678 749.016, 247.800 746.626, 248.260 " fill="none" stroke="rgb(0, 0, 0)" stroke-linecap="butt" stroke-linejoin="round" stroke-opacity="1.0" stroke-width="3.0" />
            <path d=" M 604.222, 533.958 602.731, 539.308 600.652, 546.925 598.954, 551.021 598.495, 553.923 " fill="none" stroke="rgb(0, 0, 0)" stroke-linecap="butt" stroke-linejoin="round" stroke-opacity="1.0" stroke-width="3.0" />
            <path d=" M 780.070, 427.378 778.416, 427.886 776.410, 429.783 772.627, 433.934 769.018, 443.312 768.809, 443.958 " fill="none" stroke="rgb(0, 0, 0)" stroke-linecap="butt" stroke-linejoin="round" stroke-opacity="1.0" stroke-width="3.0" />
            <path d=" M 666.543, 782.558 666.574, 782.061 666.675, 780.450 666.698, 780.084 666.721, 779.715 666.722, 779.696 666.740, 779.412 666.919, 776.532 665.281, 770.691 664.222, 768.363 659.021, 765.067 658.929, 765.009 " fill="none" stroke="rgb(0, 0, 0)" stroke-linecap="butt" stroke-linejoin="round" stroke-opacity="1.0" stroke-width="3.0" />
            <path d=" M 830.480, 515.102 830.363, 514.819 830.081, 514.135 830.081, 514.134 830.048, 514.057 829.846, 513.567 829.364, 512.401 827.344, 507.511 826.191, 504.712 825.106, 502.876 825.091, 502.851 823.498, 500.155 823.272, 499.281 823.256, 499.217 822.388, 495.854 " fill="none" stroke="rgb(0, 0, 0)" stroke-linecap="butt" stroke-linejoin="round" stroke-opacity="1.0" stroke-width="3.0" />
            <path d=" M 904.590, 689.562 909.670, 698.200 912.656, 703.649 913.999, 707.998 914.085, 708.278 " fill="none" stroke="rgb(0, 0, 0)" stroke-linecap="butt" stroke-linejoin="round" stroke-opacity="1.0" stroke-width="3.0" />
            <path d=" M 777.226, 256.303 775.137, 253.767 774.190, 252.618 768.789, 248.145 765.280, 246.530 764.780, 246.300 761.230, 242.769 " fill="none" stroke="rgb(0, 0, 0)" stroke-linecap="butt" stroke-linejoin="round" stroke-opacity="1.0" stroke-width="3.0" />
            <path d=" M 855.147, 485.357 854.889, 484.162 854.283, 481.357 853.152, 476.123 853.150, 476.113 853.132, 476.033 852.188, 471.665 850.900, 466.746 850.310, 464.664 " fill="none" stroke="rgb(0, 0, 0)" stroke-linecap="butt" stroke-linejoin="round" stroke-opacity="1.0" stroke-width="3.0" />
            <path d=" M 472.515, 821.199 473.481, 824.632 475.999, 830.718 478.370, 835.211 478.485, 835.382 479.120, 836.323 479.428, 836.780 481.847, 840.367 " fill="none" stroke="rgb(0, 0, 0)" stroke-linecap="butt" stroke-linejoin="round" stroke-opacity="1.0" stroke-width="3.0" />
            <path d=" M 552.100, 639.763 552.201, 639.134 552.521, 637.129 552.534, 637.045 552.553, 636.924 552.833, 635.175 552.946, 633.312 552.955, 633.167 553.094, 630.886 553.337, 626.907 554.439, 622.040 553.526, 618.258 " fill="none" stroke="rgb(0, 0, 0)" stroke-linecap="butt" stroke-linejoin="round" stroke-opacity="1.0" stroke-width="3.0" />
            <path d=" M 611.478, 564.164 611.068, 566.421 611.059, 566.468 611.039, 566.578 610.999, 569.506 612.517, 573.216 614.208, 574.966 617.017, 576.428 620.964, 577.636 623.323, 576.339 " fill="none" stroke="rgb(0, 0, 0)" stroke-linecap="butt" stroke-linejoin="round" stroke-opacity="1.0" stroke-width="3.0" />
            <path d=" M 765.280, 246.530 765.148, 246.421 761.712, 242.911 757.589, 239.341 748.300, 237.308 746.707, 238.252 " fill="none" stroke="rgb(0, 0, 0)" stroke-linecap="butt" stroke-linejoin="round" stroke-opacity="1.0" stroke-width="3.0" />
            <path d=" M 896.905, 721.252 897.040, 718.579 897.187, 715.689 896.083, 709.353 894.486, 701.713 894.047, 699.563 " fill="none" stroke="rgb(0, 0, 0)" stroke-linecap="butt" stroke-linejoin="round" stroke-opacity="1.0" stroke-width="3.0" />
            <path d=" M 533.545, 908.957 533.893, 908.112 535.829, 903.412 537.152, 896.946 536.818, 887.277 " fill="none" stroke="rgb(0, 0, 0)" stroke-linecap="butt" stroke-linejoin="round" stroke-opacity="1.0" stroke-width="3.0" />
            <path d=" M 458.549, 568.900 457.645, 571.184 456.738, 581.143 456.285, 586.111 455.834, 591.234 " fill="none" stroke="rgb(0, 0, 0)" stroke-linecap="butt" stroke-linejoin="round" stroke-opacity="1.0" stroke-width="3.0" />
            <path d=" M 613.663, 600.935 615.755, 597.631 617.734, 594.506 619.626, 591.517 622.286, 587.500 623.995, 584.842 626.185, 581.999 " fill="none" stroke="rgb(0, 0, 0)" stroke-linecap="butt" stroke-linejoin="round" stroke-opacity="1.0" stroke-width="3.0" />
            <path d=" M 853.603, 487.312 852.272, 477.401 851.685, 473.037 851.633, 472.645 851.632, 472.641 851.444, 471.238 851.441, 471.217 851.191, 469.357 851.707, 471.974 851.713, 472.007 852.007, 473.499 852.008, 473.505 852.108, 474.012 " fill="none" stroke="rgb(0, 0, 0)" stroke-linecap="butt" stroke-linejoin="round" stroke-opacity="1.0" stroke-width="3.0" />
            <path d=" M 790.374, 622.514 790.594, 622.986 791.454, 624.832 791.995, 625.984 792.664, 627.410 794.173, 628.247 794.256, 628.294 795.159, 628.795 796.263, 628.976 797.943, 629.253 797.993, 629.261 802.389, 626.810 803.402, 625.883 804.162, 625.186 804.723, 624.673 805.788, 623.698 807.098, 622.499 807.116, 622.482 807.343, 622.274 " fill="none" stroke="rgb(0, 0, 0)" stroke-linecap="butt" stroke-linejoin="round" stroke-opacity="1.0" stroke-width="3.0" />
            <path d=" M 897.244, 669.608 901.859, 672.791 906.661, 677.408 910.089, 678.384 912.052, 679.076 915.461, 681.155 915.467, 681.158 916.363, 681.591 " fill="none" stroke="rgb(0, 0, 0)" stroke-linecap="butt" stroke-linejoin="round" stroke-opacity="1.0" stroke-width="3.0" />
            <path d=" M 894.575, 791.579 896.649, 786.621 898.067, 782.421 898.329, 781.646 898.594, 780.108 899.512, 774.776 898.912, 778.713 898.594, 780.108 " fill="none" stroke="rgb(0, 0, 0)" stroke-linecap="butt" stroke-linejoin="round" stroke-opacity="1.0" stroke-width="3.0" />
            <path d=" M 844.516, 444.326 844.373, 443.579 843.158, 437.239 840.521, 427.594 839.985, 425.637 838.458, 422.186 " fill="none" stroke="rgb(0, 0, 0)" stroke-linecap="butt" stroke-linejoin="round" stroke-opacity="1.0" stroke-width="3.0" />
            <path d=" M 769.479, 442.526 768.809, 443.958 767.441, 446.887 767.117, 449.205 770.263, 454.334 773.339, 455.555 777.970, 455.062 778.041, 455.054 778.401, 455.016 779.984, 454.847 " fill="none" stroke="rgb(0, 0, 0)" stroke-linecap="butt" stroke-linejoin="round" stroke-opacity="1.0" stroke-width="3.0" />
            <path d=" M 473.102, 512.980 470.688, 513.426 469.086, 513.852 467.889, 514.171 465.213, 519.855 464.433, 526.641 464.866, 528.038 465.712, 530.766 465.839, 531.173 " fill="none" stroke="rgb(0, 0, 0)" stroke-linecap="butt" stroke-linejoin="round" stroke-opacity="1.0" stroke-width="3.0" />
            <path d=" M 917.395, 769.909 915.875, 771.809 913.881, 775.577 913.125, 778.750 912.744, 781.384 912.603, 782.355 911.065, 786.249 910.674, 787.236 911.058, 787.592 913.949, 790.273 " fill="none" stroke="rgb(0, 0, 0)" stroke-linecap="butt" stroke-linejoin="round" stroke-opacity="1.0" stroke-width="3.0" />
            <path d=" M 513.929, 932.818 514.875, 933.394 518.204, 933.383 522.734, 932.397 527.232, 931.049 529.070, 929.279 529.419, 927.479 529.738, 925.682 529.756, 925.580 529.789, 925.393 530.261, 922.732 530.340, 922.288 " fill="none" stroke="rgb(0, 0, 0)" stroke-linecap="butt" stroke-linejoin="round" stroke-opacity="1.0" stroke-width="3.0" />
            <path d=" M 735.022, 238.204 732.617, 236.864 731.361, 235.912 728.966, 234.096 724.260, 233.584 719.016, 235.583 716.967, 238.307 716.616, 238.773 716.551, 238.860 716.524, 238.896 716.328, 239.156 715.445, 240.330 " fill="none" stroke="rgb(0, 0, 0)" stroke-linecap="butt" stroke-linejoin="round" stroke-opacity="1.0" stroke-width="3.0" />
            <path d=" M 617.245, 538.456 615.504, 542.990 612.026, 546.216 611.040, 548.216 610.963, 548.422 610.116, 550.695 609.927, 551.200 609.938, 551.280 610.096, 552.461 610.194, 553.194 610.212, 553.330 610.315, 554.098 611.559, 557.925 612.070, 558.670 612.509, 559.310 " fill="none" stroke="rgb(0, 0, 0)" stroke-linecap="butt" stroke-linejoin="round" stroke-opacity="1.0" stroke-width="3.0" />
            <path d=" M 669.484, 971.737 672.001, 970.477 674.446, 965.815 676.589, 963.073 678.416, 960.733 681.999, 956.960 682.906, 955.674 684.329, 953.656 " fill="none" stroke="rgb(0, 0, 0)" stroke-linecap="butt" stroke-linejoin="round" stroke-opacity="1.0" stroke-width="3.0" />
            <path d=" M 633.661, 779.028 633.467, 778.164 633.399, 777.859 633.396, 777.845 632.287, 772.881 631.868, 771.004 631.865, 770.992 631.836, 770.863 631.613, 769.866 627.997, 765.286 625.888, 763.202 623.966, 761.302 623.747, 761.070 621.862, 759.071 " fill="none" stroke="rgb(0, 0, 0)" stroke-linecap="butt" stroke-linejoin="round" stroke-opacity="1.0" stroke-width="3.0" />
            <path d=" M 498.163, 530.780 497.714, 530.435 496.648, 526.931 494.878, 523.147 491.280, 521.254 490.981, 521.026 487.931, 518.699 484.373, 518.153 482.666, 518.260 480.877, 518.947 480.482, 519.099 " fill="none" stroke="rgb(0, 0, 0)" stroke-linecap="butt" stroke-linejoin="round" stroke-opacity="1.0" stroke-width="3.0" />
            <path d=" M 764.857, 323.716 764.857, 323.707 765.194, 313.712 765.208, 313.279 764.993, 309.213 763.494, 301.944 763.457, 299.648 763.455, 299.513 " fill="none" stroke="rgb(0, 0, 0)" stroke-linecap="butt" stroke-linejoin="round" stroke-opacity="1.0" stroke-width="3.0" />
            <path d=" M 690.362, 640.381 691.822, 634.725 692.666, 631.459 694.238, 630.184 695.669, 629.024 696.006, 628.751 696.652, 628.227 698.902, 626.403 702.837, 624.981 705.610, 623.912 " fill="none" stroke="rgb(0, 0, 0)" stroke-linecap="butt" stroke-linejoin="round" stroke-opacity="1.0" stroke-width="3.0" />
            <path d=" M 658.371, 801.816 658.413, 799.418 664.877, 795.479 666.979, 793.607 668.492, 792.258 669.747, 790.964 669.922, 790.783 670.378, 789.448 671.081, 787.388 671.226, 786.963 671.502, 786.156 671.517, 786.112 671.548, 786.021 671.558, 785.992 671.666, 785.676 671.462, 782.949 " fill="none" stroke="rgb(0, 0, 0)" stroke-linecap="butt" stroke-linejoin="round" stroke-opacity="1.0" stroke-width="3.0" />
            <path d=" M 874.303, 789.604 871.422, 788.196 862.437, 783.805 862.079, 783.630 857.620, 781.333 852.277, 777.485 " fill="none" stroke="rgb(0, 0, 0)" stroke-linecap="butt" stroke-linejoin="round" stroke-opacity="1.0" stroke-width="3.0" />
            <path d=" M 896.367, 791.518 895.538, 791.546 894.575, 791.579 894.383, 791.585 893.420, 791.618 892.210, 791.659 892.115, 791.663 891.507, 791.683 891.422, 791.686 881.566, 790.936 871.912, 788.328 871.422, 788.196 " fill="none" stroke="rgb(0, 0, 0)" stroke-linecap="butt" stroke-linejoin="round" stroke-opacity="1.0" stroke-width="3.0" />
            <path d=" M 583.525, 631.147 583.224, 631.904 582.453, 633.840 579.793, 641.302 578.579, 651.251 578.806, 655.929 " fill="none" stroke="rgb(0, 0, 0)" stroke-linecap="butt" stroke-linejoin="round" stroke-opacity="1.0" stroke-width="3.0" />
            <path d=" M 654.581, 338.308 656.704, 338.600 666.280, 341.483 666.565, 341.569 667.765, 342.287 672.232, 344.959 677.242, 349.108 " fill="none" stroke="rgb(0, 0, 0)" stroke-linecap="butt" stroke-linejoin="round" stroke-opacity="1.0" stroke-width="3.0" />
            <path d=" M 779.259, 527.558 779.119, 529.561 778.829, 533.682 778.635, 534.673 777.532, 540.283 780.891, 546.327 783.172, 547.800 783.189, 547.811 783.841, 548.232 785.386, 549.055 786.162, 549.468 " fill="none" stroke="rgb(0, 0, 0)" stroke-linecap="butt" stroke-linejoin="round" stroke-opacity="1.0" stroke-width="3.0" />
            <path d=" M 935.089, 633.212 934.056, 628.711 933.690, 627.111 932.395, 625.423 929.647, 620.669 928.112, 617.965 924.951, 613.457 922.576, 610.795 " fill="none" stroke="rgb(0, 0, 0)" stroke-linecap="butt" stroke-linejoin="round" stroke-opacity="1.0" stroke-width="3.0" />
            <path d=" M 900.303, 756.171 900.278, 755.916 899.693, 750.100 899.730, 748.479 899.737, 748.185 899.763, 747.010 899.806, 745.120 899.300, 739.017 899.258, 734.631 898.709, 730.010 " fill="none" stroke="rgb(0, 0, 0)" stroke-linecap="butt" stroke-linejoin="round" stroke-opacity="1.0" stroke-width="3.0" />
            <path d=" M 919.977, 606.264 920.660, 603.553 920.458, 601.370 919.741, 595.991 919.351, 591.928 918.469, 588.471 916.730, 580.794 916.656, 580.464 " fill="none" stroke="rgb(0, 0, 0)" stroke-linecap="butt" stroke-linejoin="round" stroke-opacity="1.0" stroke-width="3.0" />
            <path d=" M 701.946, 812.036 699.893, 810.388 699.501, 810.073 699.337, 809.942 697.518, 808.481 696.554, 808.262 694.096, 807.702 694.040, 807.689 693.925, 807.663 693.851, 807.244 693.457, 804.989 695.367, 799.306 695.503, 798.902 695.514, 798.869 695.716, 798.270 695.777, 798.086 695.907, 797.701 695.909, 797.693 695.959, 797.547 696.052, 797.269 696.014, 797.061 695.259, 792.950 694.177, 791.203 " fill="none" stroke="rgb(0, 0, 0)" stroke-linecap="butt" stroke-linejoin="round" stroke-opacity="1.0" stroke-width="3.0" />
            <path d=" M 703.642, 290.445 702.440, 293.582 699.501, 296.095 691.661, 300.523 683.423, 304.325 682.128, 304.922 " fill="none" stroke="rgb(0, 0, 0)" stroke-linecap="butt" stroke-linejoin="round" stroke-opacity="1.0" stroke-width="3.0" />
            <path d=" M 649.636, 488.480 654.420, 492.211 654.725, 492.268 655.881, 492.482 656.845, 492.595 660.405, 491.428 664.257, 487.856 666.256, 482.358 667.683, 479.253 " fill="none" stroke="rgb(0, 0, 0)" stroke-linecap="butt" stroke-linejoin="round" stroke-opacity="1.0" stroke-width="3.0" />
            <path d=" M 809.896, 335.257 804.924, 329.936 803.784, 328.886 803.069, 328.227 802.777, 327.958 802.280, 327.501 801.555, 326.833 800.263, 325.643 798.299, 323.834 792.543, 315.657 792.049, 314.955 " fill="none" stroke="rgb(0, 0, 0)" stroke-linecap="butt" stroke-linejoin="round" stroke-opacity="1.0" stroke-width="3.0" />
            <path d=" M 677.945, 809.372 678.676, 807.295 680.326, 804.796 680.516, 804.507 680.619, 804.352 681.135, 803.569 681.199, 803.472 681.200, 803.471 681.300, 803.320 683.831, 799.484 684.390, 795.397 684.454, 794.928 684.657, 793.447 683.896, 791.605 683.621, 791.002 681.349, 790.086 677.245, 788.432 " fill="none" stroke="rgb(0, 0, 0)" stroke-linecap="butt" stroke-linejoin="round" stroke-opacity="1.0" stroke-width="3.0" />
            <path d=" M 648.899, 755.780 648.976, 754.863 649.068, 753.777 649.467, 749.024 649.784, 744.873 650.882, 738.255 650.181, 736.475 649.676, 736.145 649.129, 735.788 648.620, 735.456 648.133, 735.494 647.823, 735.518 646.873, 735.592 646.813, 735.597 646.111, 735.652 643.802, 736.161 642.840, 735.911 " fill="none" stroke="rgb(0, 0, 0)" stroke-linecap="butt" stroke-linejoin="round" stroke-opacity="1.0" stroke-width="3.0" />
            <path d=" M 568.486, 653.601 568.751, 652.223 574.423, 646.099 576.869, 641.126 578.454, 636.606 579.229, 632.510 578.270, 631.660 576.961, 630.357 " fill="none" stroke="rgb(0, 0, 0)" stroke-linecap="butt" stroke-linejoin="round" stroke-opacity="1.0" stroke-width="3.0" />
            <path d=" M 525.979, 791.031 528.349, 795.435 532.642, 800.936 534.864, 805.964 537.421, 810.944 539.503, 814.767 " fill="none" stroke="rgb(0, 0, 0)" stroke-linecap="butt" stroke-linejoin="round" stroke-opacity="1.0" stroke-width="3.0" />
            <path d=" M 694.897, 792.644 694.177, 791.203 692.542, 787.930 691.927, 786.786 689.680, 782.603 687.190, 780.102 684.353, 780.150 680.550, 783.260 678.706, 783.880 678.389, 783.987 675.764, 784.799 675.616, 784.845 " fill="none" stroke="rgb(0, 0, 0)" stroke-linecap="butt" stroke-linejoin="round" stroke-opacity="1.0" stroke-width="3.0" />
            <path d=" M 895.151, 705.430 894.058, 699.712 894.047, 699.563 893.505, 692.073 893.489, 684.740 892.928, 680.359 892.043, 677.958 " fill="none" stroke="rgb(0, 0, 0)" stroke-linecap="butt" stroke-linejoin="round" stroke-opacity="1.0" stroke-width="3.0" />
            <path d=" M 784.149, 642.600 784.324, 642.769 788.702, 646.987 789.134, 647.394 789.283, 647.534 791.346, 649.474 793.024, 651.156 799.096, 650.768 801.251, 649.887 801.745, 649.392 804.099, 647.031 804.857, 645.995 805.200, 645.524 805.224, 645.491 805.239, 645.471 805.389, 645.265 805.813, 644.684 806.250, 644.086 " fill="none" stroke="rgb(0, 0, 0)" stroke-linecap="butt" stroke-linejoin="round" stroke-opacity="1.0" stroke-width="3.0" />
            <path d=" M 507.117, 916.545 507.178, 917.394 507.507, 921.924 508.226, 923.153 508.471, 926.022 509.310, 927.700 510.828, 930.735 510.912, 930.902 512.911, 932.534 513.929, 932.818 515.436, 933.239 518.616, 932.838 523.871, 932.040 " fill="none" stroke="rgb(0, 0, 0)" stroke-linecap="butt" stroke-linejoin="round" stroke-opacity="1.0" stroke-width="3.0" />
            <path d=" M 723.456, 322.401 723.441, 322.194 723.535, 320.637 723.720, 317.541 724.019, 316.121 724.724, 312.763 726.509, 304.419 729.086, 294.757 729.264, 294.090 " fill="none" stroke="rgb(0, 0, 0)" stroke-linecap="butt" stroke-linejoin="round" stroke-opacity="1.0" stroke-width="3.0" />
            <path d=" M 491.653, 515.191 492.820, 512.583 491.649, 506.665 489.028, 505.832 485.303, 506.625 482.760, 506.787 476.058, 512.298 474.503, 514.318 " fill="none" stroke="rgb(0, 0, 0)" stroke-linecap="butt" stroke-linejoin="round" stroke-opacity="1.0" stroke-width="3.0" />
            <path d=" M 680.712, 677.559 678.301, 687.264 678.189, 687.715 679.037, 690.923 679.131, 691.281 679.543, 694.087 682.072, 695.979 684.063, 697.854 686.791, 699.560 689.888, 700.204 " fill="none" stroke="rgb(0, 0, 0)" stroke-linecap="butt" stroke-linejoin="round" stroke-opacity="1.0" stroke-width="3.0" />
            <path d=" M 706.813, 942.509 707.881, 942.072 712.245, 940.286 719.491, 938.118 726.082, 937.336 729.135, 937.760 729.185, 937.767 731.178, 938.043 736.599, 938.795 " fill="none" stroke="rgb(0, 0, 0)" stroke-linecap="butt" stroke-linejoin="round" stroke-opacity="1.0" stroke-width="3.0" />
            <path d=" M 783.284, 508.572 778.713, 509.886 773.734, 512.263 773.145, 512.661 770.138, 515.485 768.720, 517.680 766.248, 522.131 765.768, 524.627 767.099, 526.557 770.904, 527.867 " fill="none" stroke="rgb(0, 0, 0)" stroke-linecap="butt" stroke-linejoin="round" stroke-opacity="1.0" stroke-width="3.0" />
            <path d=" M 766.747, 310.303 766.927, 318.264 766.238, 322.726 766.424, 327.124 766.456, 327.863 766.570, 330.554 766.647, 332.351 766.663, 332.738 766.690, 333.367 766.554, 333.776 764.829, 338.965 764.560, 339.375 764.452, 339.541 763.144, 341.533 " fill="none" stroke="rgb(0, 0, 0)" stroke-linecap="butt" stroke-linejoin="round" stroke-opacity="1.0" stroke-width="3.0" />
            <path d=" M 875.296, 668.219 881.583, 671.360 883.119, 672.127 886.822, 674.593 890.311, 676.818 890.386, 676.865 891.136, 677.344 892.043, 677.958 895.570, 680.346 897.288, 681.865 901.967, 686.002 " fill="none" stroke="rgb(0, 0, 0)" stroke-linecap="butt" stroke-linejoin="round" stroke-opacity="1.0" stroke-width="3.0" />
            <path d=" M 715.149, 236.820 712.925, 235.732 709.412, 235.804 705.387, 238.142 701.418, 242.789 701.576, 245.521 703.376, 249.437 705.852, 251.089 705.923, 251.137 707.087, 251.930 708.238, 252.714 710.596, 254.320 " fill="none" stroke="rgb(0, 0, 0)" stroke-linecap="butt" stroke-linejoin="round" stroke-opacity="1.0" stroke-width="3.0" />
            <path d=" M 819.563, 319.279 819.742, 314.780 820.468, 304.807 820.530, 303.955 819.815, 298.627 817.377, 292.891 815.869, 291.204 812.781, 288.380 " fill="none" stroke="rgb(0, 0, 0)" stroke-linecap="butt" stroke-linejoin="round" stroke-opacity="1.0" stroke-width="3.0" />
            <path d=" M 784.464, 582.188 784.574, 583.474 784.600, 583.772 784.701, 584.957 784.969, 588.073 788.111, 594.372 790.090, 596.493 791.954, 598.787 794.268, 599.048 798.082, 597.214 799.575, 596.497 800.969, 595.932 801.304, 595.796 801.405, 595.755 801.499, 595.717 801.947, 595.535 802.231, 595.420 802.700, 595.230 804.891, 594.343 805.084, 594.264 805.480, 594.104 805.535, 594.082 " fill="none" stroke="rgb(0, 0, 0)" stroke-linecap="butt" stroke-linejoin="round" stroke-opacity="1.0" stroke-width="3.0" />
            <path d=" M 715.879, 623.996 716.571, 624.904 719.201, 628.354 720.903, 628.740 723.198, 626.864 727.201, 626.929 729.558, 626.601 731.257, 626.365 731.342, 626.510 732.478, 628.454 734.941, 630.640 740.306, 632.891 743.913, 631.617 " fill="none" stroke="rgb(0, 0, 0)" stroke-linecap="butt" stroke-linejoin="round" stroke-opacity="1.0" stroke-width="3.0" />
            <path d=" M 780.226, 899.829 781.565, 901.611 783.000, 904.889 787.951, 907.210 792.175, 907.663 798.095, 907.229 800.510, 906.021 803.060, 904.612 805.404, 900.805 805.472, 900.543 806.036, 898.388 " fill="none" stroke="rgb(0, 0, 0)" stroke-linecap="butt" stroke-linejoin="round" stroke-opacity="1.0" stroke-width="3.0" />
            <path d=" M 622.013, 759.427 621.862, 759.071 621.800, 758.926 621.009, 757.061 620.955, 756.934 620.364, 755.542 620.082, 754.878 619.785, 753.546 621.672, 751.340 624.103, 748.499 625.204, 747.592 625.230, 747.571 625.349, 747.473 626.462, 746.556 629.502, 743.484 629.817, 743.166 629.886, 742.908 629.939, 742.709 629.950, 742.670 629.967, 742.605 630.155, 741.903 630.276, 741.451 630.276, 741.449 631.000, 739.868 631.100, 739.650 632.024, 737.633 632.310, 737.008 632.424, 736.760 633.119, 735.242 634.024, 730.641 " fill="none" stroke="rgb(0, 0, 0)" stroke-linecap="butt" stroke-linejoin="round" stroke-opacity="1.0" stroke-width="3.0" />
            <path d=" M 767.753, 695.689 768.693, 695.300 768.958, 695.191 769.017, 695.166 769.136, 695.117 769.734, 694.869 769.759, 694.859 771.063, 694.320 771.203, 694.262 771.236, 694.162 771.306, 693.947 771.338, 693.852 771.734, 692.647 771.817, 692.396 771.860, 692.264 771.957, 691.970 772.188, 690.218 772.337, 689.085 772.362, 688.899 773.499, 681.727 773.545, 681.434 773.788, 679.901 773.836, 679.599 773.966, 678.781 774.021, 678.432 774.232, 677.104 774.785, 673.781 775.856, 671.176 775.883, 671.108 775.896, 671.064 776.938, 667.485 777.773, 664.613 " fill="none" stroke="rgb(0, 0, 0)" stroke-linecap="butt" stroke-linejoin="round" stroke-opacity="1.0" stroke-width="3.0" />
            <path d=" M 576.669, 633.506 576.894, 631.076 576.961, 630.357 577.222, 627.535 574.683, 626.744 571.213, 626.851 566.814, 629.109 562.392, 633.027 558.107, 637.653 557.539, 638.266 557.216, 638.054 556.161, 637.362 554.460, 635.136 " fill="none" stroke="rgb(0, 0, 0)" stroke-linecap="butt" stroke-linejoin="round" stroke-opacity="1.0" stroke-width="3.0" />
            <path d=" M 617.990, 960.632 618.651, 964.978 620.651, 970.364 624.415, 975.326 630.515, 977.936 632.625, 979.074 637.109, 979.791 638.711, 980.175 642.485, 980.525 643.568, 980.626 " fill="none" stroke="rgb(0, 0, 0)" stroke-linecap="butt" stroke-linejoin="round" stroke-opacity="1.0" stroke-width="3.0" />
            <path d=" M 657.802, 610.134 659.332, 613.964 660.705, 617.401 664.153, 621.040 666.770, 621.947 667.682, 622.255 669.613, 621.638 671.621, 620.419 672.780, 616.616 675.056, 612.534 674.431, 608.011 674.853, 605.344 " fill="none" stroke="rgb(0, 0, 0)" stroke-linecap="butt" stroke-linejoin="round" stroke-opacity="1.0" stroke-width="3.0" />
            <path d=" M 644.710, 802.807 644.776, 801.948 644.789, 801.775 644.820, 801.361 644.838, 801.135 644.849, 800.994 644.964, 799.480 645.186, 796.580 642.989, 791.441 642.100, 787.874 641.932, 787.202 641.795, 786.651 641.735, 786.410 641.637, 786.015 641.636, 786.011 641.552, 785.676 641.550, 785.667 641.540, 785.628 641.499, 785.534 641.494, 785.523 640.664, 783.632 639.245, 780.402 638.707, 779.483 638.629, 779.349 636.290, 775.355 636.244, 775.275 636.042, 775.032 636.037, 775.025 635.271, 774.102 633.691, 772.199 633.420, 771.871 632.639, 770.639 632.635, 770.632 632.604, 770.584 632.539, 770.481 632.322, 770.137 631.370, 768.634 " fill="none" stroke="rgb(0, 0, 0)" stroke-linecap="butt" stroke-linejoin="round" stroke-opacity="1.0" stroke-width="3.0" />
            <path d=" M 808.939, 811.770 810.270, 810.205 810.593, 809.825 812.522, 807.558 812.729, 807.315 813.908, 805.928 816.170, 804.012 818.679, 801.887 819.016, 801.601 819.100, 801.530 820.267, 800.541 821.014, 799.909 821.851, 799.200 823.839, 797.516 828.004, 793.782 830.445, 791.731 834.964, 788.649 837.258, 786.774 " fill="none" stroke="rgb(0, 0, 0)" stroke-linecap="butt" stroke-linejoin="round" stroke-opacity="1.0" stroke-width="3.0" />
            <path d=" M 794.600, 890.392 804.195, 887.576 805.040, 887.328 814.686, 884.689 816.857, 884.095 817.007, 884.054 817.489, 883.931 817.492, 883.930 817.519, 883.923 817.916, 883.822 818.064, 883.784 818.637, 883.638 820.584, 882.714 823.051, 881.543 823.375, 881.390 824.157, 880.844 828.518, 877.796 829.865, 876.702 " fill="none" stroke="rgb(0, 0, 0)" stroke-linecap="butt" stroke-linejoin="round" stroke-opacity="1.0" stroke-width="3.0" />
            <path d=" M 676.589, 963.073 677.884, 962.561 681.667, 957.895 688.133, 952.006 694.085, 947.741 696.092, 946.303 700.091, 945.155 703.461, 944.187 707.881, 942.072 " fill="none" stroke="rgb(0, 0, 0)" stroke-linecap="butt" stroke-linejoin="round" stroke-opacity="1.0" stroke-width="3.0" />
            <path d=" M 683.085, 643.055 680.709, 649.029 680.353, 650.054 680.122, 650.800 679.804, 651.826 679.761, 651.964 678.784, 655.114 678.679, 655.452 677.971, 657.734 676.797, 662.667 677.605, 666.826 679.174, 671.714 679.714, 672.766 680.684, 676.506 680.832, 677.077 680.842, 677.115 680.941, 677.498 681.406, 680.145 " fill="none" stroke="rgb(0, 0, 0)" stroke-linecap="butt" stroke-linejoin="round" stroke-opacity="1.0" stroke-width="3.0" />
            <path d=" M 802.093, 843.280 800.700, 842.266 800.658, 842.235 800.616, 842.205 800.533, 842.144 800.391, 842.040 798.160, 840.416 796.951, 836.604 796.759, 834.798 797.244, 832.176 797.290, 831.929 797.722, 829.597 799.347, 826.470 800.709, 823.851 800.862, 823.630 805.227, 817.367 806.036, 816.257 807.338, 814.471 807.492, 814.259 810.270, 810.205 " fill="none" stroke="rgb(0, 0, 0)" stroke-linecap="butt" stroke-linejoin="round" stroke-opacity="1.0" stroke-width="3.0" />
            <path d=" M 772.608, 353.031 772.131, 353.966 771.777, 354.661 770.669, 356.832 770.407, 357.111 769.884, 357.667 768.074, 359.591 767.500, 361.057 766.282, 364.168 765.145, 367.510 764.635, 371.474 766.618, 372.982 767.953, 373.098 771.565, 370.744 776.583, 368.062 780.015, 367.250 780.887, 367.044 780.913, 367.038 781.161, 366.979 781.351, 366.935 " fill="none" stroke="rgb(0, 0, 0)" stroke-linecap="butt" stroke-linejoin="round" stroke-opacity="1.0" stroke-width="3.0" />
            <path d=" M 624.937, 501.364 623.542, 503.480 622.721, 504.726 620.124, 507.380 619.795, 507.715 618.473, 510.512 618.509, 514.296 619.480, 519.703 618.936, 521.107 618.055, 524.823 618.132, 525.346 618.145, 525.436 618.567, 528.290 618.729, 529.387 619.405, 531.062 621.493, 532.160 621.560, 532.195 622.004, 532.429 622.646, 532.683 623.957, 533.203 624.468, 533.405 624.584, 533.451 626.192, 534.088 " fill="none" stroke="rgb(0, 0, 0)" stroke-linecap="butt" stroke-linejoin="round" stroke-opacity="1.0" stroke-width="3.0" />
            <path d=" M 757.710, 781.101 754.020, 782.121 751.879, 782.713 745.984, 785.397 744.690, 786.205 739.305, 789.133 732.411, 793.165 731.898, 793.450 729.580, 794.737 727.412, 796.124 726.938, 796.773 726.865, 796.874 726.852, 796.891 724.796, 799.707 723.486, 800.692 " fill="none" stroke="rgb(0, 0, 0)" stroke-linecap="butt" stroke-linejoin="round" stroke-opacity="1.0" stroke-width="3.0" />
            <path d=" M 803.743, 282.423 802.860, 280.921 801.766, 279.572 796.113, 272.598 794.635, 270.161 788.436, 263.578 781.943, 258.081 778.708, 255.490 775.137, 253.767 " fill="none" stroke="rgb(0, 0, 0)" stroke-linecap="butt" stroke-linejoin="round" stroke-opacity="1.0" stroke-width="3.0" />
            <path d=" M 782.694, 393.197 779.428, 394.264 776.533, 400.380 775.953, 403.212 776.666, 405.230 777.767, 406.046 777.023, 409.420 779.157, 412.193 782.864, 413.177 786.232, 414.501 787.965, 413.830 791.219, 412.151 791.253, 412.110 794.052, 408.731 " fill="none" stroke="rgb(0, 0, 0)" stroke-linecap="butt" stroke-linejoin="round" stroke-opacity="1.0" stroke-width="3.0" />
            <path d=" M 641.494, 785.523 643.296, 783.642 646.088, 780.727 650.630, 777.962 653.986, 775.919 655.800, 772.410 656.073, 771.883 656.201, 771.635 656.404, 770.975 657.977, 765.855 657.710, 763.570 655.605, 761.347 653.273, 758.906 648.976, 754.863 " fill="none" stroke="rgb(0, 0, 0)" stroke-linecap="butt" stroke-linejoin="round" stroke-opacity="1.0" stroke-width="3.0" />
            <path d=" M 736.038, 240.714 734.239, 241.068 732.673, 241.376 730.997, 243.258 730.952, 246.892 732.478, 249.236 732.861, 249.825 738.971, 253.498 741.854, 254.197 742.310, 254.264 745.767, 253.999 746.869, 255.088 748.616, 256.813 750.991, 259.768 751.512, 260.167 752.843, 261.184 754.030, 262.093 756.295, 263.825 " fill="none" stroke="rgb(0, 0, 0)" stroke-linecap="butt" stroke-linejoin="round" stroke-opacity="1.0" stroke-width="3.0" />
            <path d=" M 479.414, 837.124 481.921, 843.951 484.186, 850.992 487.653, 856.714 489.379, 862.545 491.957, 867.003 492.561, 869.505 494.043, 871.201 496.958, 874.537 " fill="none" stroke="rgb(0, 0, 0)" stroke-linecap="butt" stroke-linejoin="round" stroke-opacity="1.0" stroke-width="3.0" />
            <path d=" M 673.834, 364.975 672.999, 365.291 668.903, 366.844 668.268, 367.085 663.504, 370.267 659.740, 375.481 658.887, 379.933 660.433, 381.935 662.961, 381.964 667.459, 382.780 669.551, 382.822 671.557, 382.863 672.062, 382.718 672.086, 382.711 672.962, 382.460 674.288, 382.081 674.411, 382.045 677.073, 381.282 " fill="none" stroke="rgb(0, 0, 0)" stroke-linecap="butt" stroke-linejoin="round" stroke-opacity="1.0" stroke-width="3.0" />
            <path d=" M 619.398, 500.734 616.428, 503.404 612.761, 508.469 608.369, 517.189 607.034, 520.982 606.445, 523.042 604.449, 532.841 604.222, 533.958 603.189, 539.027 " fill="none" stroke="rgb(0, 0, 0)" stroke-linecap="butt" stroke-linejoin="round" stroke-opacity="1.0" stroke-width="3.0" />
            <path d=" M 853.763, 488.458 852.473, 479.918 851.502, 472.613 851.450, 472.227 851.450, 472.223 851.242, 470.663 851.240, 470.644 850.833, 467.586 850.656, 466.257 850.310, 464.664 848.668, 457.106 847.444, 451.621 845.457, 446.819 " fill="none" stroke="rgb(0, 0, 0)" stroke-linecap="butt" stroke-linejoin="round" stroke-opacity="1.0" stroke-width="3.0" />
            <path d=" M 480.877, 518.947 480.222, 518.501 476.728, 516.444 475.250, 515.574 474.925, 515.556 474.707, 515.544 473.605, 515.483 473.507, 515.478 471.156, 516.006 471.065, 516.109 469.764, 517.580 468.932, 519.701 468.272, 524.798 468.254, 524.930 468.393, 530.343 469.245, 538.144 469.182, 541.226 469.181, 541.255 469.179, 541.382 469.131, 543.736 469.099, 545.297 469.094, 545.532 469.062, 547.123 " fill="none" stroke="rgb(0, 0, 0)" stroke-linecap="butt" stroke-linejoin="round" stroke-opacity="1.0" stroke-width="3.0" />
            <path d=" M 771.718, 921.343 771.139, 920.572 771.031, 920.428 770.298, 919.451 769.432, 917.130 769.718, 913.484 770.241, 912.620 773.550, 907.148 780.226, 899.829 780.245, 899.808 780.272, 899.778 781.095, 898.875 782.679, 897.666 784.293, 896.434 785.866, 895.511 786.216, 895.306 789.383, 893.446 790.185, 892.975 790.826, 892.598 794.533, 890.422 " fill="none" stroke="rgb(0, 0, 0)" stroke-linecap="butt" stroke-linejoin="round" stroke-opacity="1.0" stroke-width="3.0" />
            <path d=" M 540.324, 916.964 542.888, 913.555 544.495, 909.382 546.944, 904.945 550.273, 899.170 551.424, 894.508 554.913, 888.826 555.250, 885.610 554.646, 882.944 555.526, 877.896 " fill="none" stroke="rgb(0, 0, 0)" stroke-linecap="butt" stroke-linejoin="round" stroke-opacity="1.0" stroke-width="3.0" />
            <path d=" M 872.712, 515.111 871.547, 513.388 868.175, 508.401 864.843, 502.345 861.082, 494.756 860.130, 492.947 856.324, 483.699 854.054, 478.182 853.205, 476.239 " fill="none" stroke="rgb(0, 0, 0)" stroke-linecap="butt" stroke-linejoin="round" stroke-opacity="1.0" stroke-width="3.0" />
            <path d=" M 845.386, 877.949 845.472, 877.981 847.891, 879.635 850.635, 880.619 855.608, 880.746 858.782, 878.407 861.526, 877.334 865.447, 875.571 867.387, 874.692 870.940, 868.404 874.815, 859.538 875.938, 857.273 " fill="none" stroke="rgb(0, 0, 0)" stroke-linecap="butt" stroke-linejoin="round" stroke-opacity="1.0" stroke-width="3.0" />
            <path d=" M 586.054, 882.918 587.882, 885.809 593.582, 894.025 594.152, 894.847 597.233, 900.507 599.098, 902.530 602.615, 908.327 605.725, 911.957 607.815, 918.639 608.286, 920.147 " fill="none" stroke="rgb(0, 0, 0)" stroke-linecap="butt" stroke-linejoin="round" stroke-opacity="1.0" stroke-width="3.0" />
            <path d=" M 899.847, 831.998 903.496, 830.603 910.801, 827.314 918.593, 822.790 923.627, 819.078 925.408, 817.709 929.556, 813.625 933.399, 808.448 935.629, 805.215 " fill="none" stroke="rgb(0, 0, 0)" stroke-linecap="butt" stroke-linejoin="round" stroke-opacity="1.0" stroke-width="3.0" />
            <path d=" M 779.832, 613.728 779.008, 614.539 777.808, 615.094 776.345, 615.950 775.214, 616.612 771.723, 618.935 768.783, 623.425 767.610, 625.386 766.702, 628.923 767.410, 632.864 769.034, 636.106 773.332, 639.806 773.448, 639.876 773.651, 639.919 773.956, 639.985 774.473, 640.095 774.557, 640.113 774.557, 640.113 774.575, 640.117 774.756, 640.156 775.505, 640.316 775.738, 640.366 776.117, 640.447 776.136, 640.451 776.483, 640.525 778.252, 640.903 778.757, 641.011 778.868, 641.046 781.285, 641.809 784.324, 642.769 " fill="none" stroke="rgb(0, 0, 0)" stroke-linecap="butt" stroke-linejoin="round" stroke-opacity="1.0" stroke-width="3.0" />
            <path d=" M 664.042, 682.663 656.843, 687.698 654.472, 688.513 654.468, 688.515 652.500, 689.191 652.389, 689.229 650.195, 689.984 649.198, 690.156 644.439, 690.978 637.644, 691.707 631.222, 691.982 624.809, 690.529 622.208, 689.764 620.650, 688.962 620.568, 688.920 " fill="none" stroke="rgb(0, 0, 0)" stroke-linecap="butt" stroke-linejoin="round" stroke-opacity="1.0" stroke-width="3.0" />
            <path d=" M 638.212, 464.856 637.737, 465.148 636.219, 466.085 636.216, 466.087 632.800, 468.281 628.561, 474.374 626.087, 478.987 624.239, 484.780 623.251, 492.546 623.156, 495.772 623.109, 497.351 623.103, 497.559 623.605, 498.793 624.420, 500.792 624.422, 500.795 624.937, 501.364 624.984, 501.416 626.234, 502.799 626.577, 504.029 626.629, 504.216 626.765, 504.704 " fill="none" stroke="rgb(0, 0, 0)" stroke-linecap="butt" stroke-linejoin="round" stroke-opacity="1.0" stroke-width="3.0" />
            <path d=" M 597.690, 587.835 596.880, 591.076 595.489, 598.383 594.219, 601.224 593.420, 603.358 593.206, 606.478 590.612, 614.052 589.258, 616.866 588.234, 619.926 585.834, 625.596 584.091, 628.982 583.224, 631.904 " fill="none" stroke="rgb(0, 0, 0)" stroke-linecap="butt" stroke-linejoin="round" stroke-opacity="1.0" stroke-width="3.0" />
            <path d=" M 464.212, 538.250 463.780, 544.534 463.459, 549.199 460.393, 555.860 460.349, 555.956 459.842, 557.453 458.719, 567.390 458.549, 568.900 458.511, 569.234 457.910, 579.216 457.569, 584.885 " fill="none" stroke="rgb(0, 0, 0)" stroke-linecap="butt" stroke-linejoin="round" stroke-opacity="1.0" stroke-width="3.0" />
            <path d=" M 670.080, 396.528 669.943, 396.581 669.787, 396.640 668.519, 397.125 668.377, 397.180 667.313, 397.587 663.515, 399.040 660.860, 400.414 655.409, 405.398 653.465, 409.138 651.101, 412.310 649.377, 417.114 649.735, 418.188 653.269, 420.519 657.325, 420.860 658.133, 420.818 658.708, 420.788 658.904, 420.777 659.140, 420.765 660.950, 421.213 661.540, 421.359 661.540, 421.360 662.025, 421.480 665.009, 422.219 " fill="none" stroke="rgb(0, 0, 0)" stroke-linecap="butt" stroke-linejoin="round" stroke-opacity="1.0" stroke-width="3.0" />
            <path d=" M 737.308, 282.340 738.067, 283.355 739.821, 285.699 740.022, 285.969 741.341, 291.292 741.271, 301.291 741.248, 304.444 741.049, 307.496 741.034, 307.727 740.574, 314.764 740.468, 316.377 740.405, 317.341 740.390, 317.624 740.154, 322.106 740.147, 322.238 740.146, 322.251 739.909, 326.749 739.907, 326.773 739.853, 327.803 739.852, 327.815 739.815, 328.521 739.741, 329.934 739.724, 330.247 " fill="none" stroke="rgb(0, 0, 0)" stroke-linecap="butt" stroke-linejoin="round" stroke-opacity="1.0" stroke-width="3.0" />
            <path d=" M 783.172, 547.800 781.223, 548.181 780.022, 548.416 778.723, 548.671 773.892, 550.928 769.946, 554.242 767.614, 558.029 766.816, 560.762 765.755, 565.863 766.464, 569.821 770.211, 575.260 774.604, 577.561 779.368, 580.299 779.415, 580.327 780.794, 581.119 780.886, 581.172 " fill="none" stroke="rgb(0, 0, 0)" stroke-linecap="butt" stroke-linejoin="round" stroke-opacity="1.0" stroke-width="3.0" />
            <path d=" M 600.028, 659.265 601.040, 657.288 601.474, 656.443 601.719, 655.964 603.601, 653.369 604.973, 646.551 603.563, 646.623 601.803, 646.592 598.696, 646.538 598.499, 646.534 591.445, 649.557 583.108, 652.797 583.072, 652.823 582.881, 652.962 582.106, 653.527 578.806, 655.929 575.030, 658.678 570.727, 660.250 " fill="none" stroke="rgb(0, 0, 0)" stroke-linecap="butt" stroke-linejoin="round" stroke-opacity="1.0" stroke-width="3.0" />
            <path d=" M 761.350, 723.647 761.644, 724.554 761.878, 725.273 762.220, 726.328 763.520, 728.513 764.086, 729.464 764.371, 729.943 764.385, 729.944 764.687, 729.973 766.197, 730.119 766.747, 730.171 766.912, 730.187 766.918, 730.188 767.264, 730.221 767.269, 730.218 768.854, 729.334 769.444, 728.947 770.996, 728.637 773.030, 727.164 773.554, 725.117 773.946, 723.586 773.907, 720.650 773.566, 717.231 773.862, 712.898 773.864, 711.880 773.868, 708.782 772.954, 704.380 772.881, 703.570 772.866, 703.408 772.829, 702.994 772.739, 701.999 772.186, 695.875 772.096, 694.881 772.061, 694.486 772.056, 694.434 772.041, 694.267 771.860, 692.264 " fill="none" stroke="rgb(0, 0, 0)" stroke-linecap="butt" stroke-linejoin="round" stroke-opacity="1.0" stroke-width="3.0" />
            <path d=" M 768.255, 278.103 767.188, 279.302 764.821, 281.965 764.019, 284.086 764.089, 286.510 764.062, 287.598 764.038, 288.589 765.293, 290.229 767.756, 292.306 767.830, 292.369 767.853, 292.443 769.240, 296.890 771.556, 298.765 775.199, 299.130 782.270, 295.729 784.096, 292.447 786.144, 288.484 784.997, 280.402 " fill="none" stroke="rgb(0, 0, 0)" stroke-linecap="butt" stroke-linejoin="round" stroke-opacity="1.0" stroke-width="3.0" />
            <path d=" M 786.785, 465.433 785.523, 467.569 782.999, 468.823 777.508, 471.939 774.998, 474.394 771.764, 480.353 769.400, 484.125 767.274, 487.306 766.751, 490.288 767.485, 492.151 769.645, 492.751 773.754, 490.792 777.115, 490.106 779.665, 488.823 780.487, 488.443 780.842, 488.279 784.195, 486.730 " fill="none" stroke="rgb(0, 0, 0)" stroke-linecap="butt" stroke-linejoin="round" stroke-opacity="1.0" stroke-width="3.0" />
            <path d=" M 633.230, 723.623 633.458, 725.618 633.507, 726.051 633.650, 727.302 633.894, 729.476 634.024, 730.641 633.980, 729.450 633.873, 726.522 633.861, 726.210 633.768, 723.682 633.409, 716.233 634.972, 709.178 634.968, 707.752 631.552, 704.298 629.351, 704.572 623.362, 707.115 615.174, 712.254 " fill="none" stroke="rgb(0, 0, 0)" stroke-linecap="butt" stroke-linejoin="round" stroke-opacity="1.0" stroke-width="3.0" />
            <path d=" M 601.803, 646.592 603.673, 636.768 603.740, 636.416 606.560, 627.802 608.353, 623.280 609.556, 615.922 611.913, 610.531 614.190, 603.932 615.411, 599.907 617.734, 594.506 " fill="none" stroke="rgb(0, 0, 0)" stroke-linecap="butt" stroke-linejoin="round" stroke-opacity="1.0" stroke-width="3.0" />
            <path d=" M 699.612, 256.920 699.309, 256.886 695.066, 256.418 691.536, 257.942 686.984, 260.566 683.828, 264.630 680.001, 271.746 681.952, 274.382 685.393, 275.144 689.729, 275.206 694.311, 275.471 700.612, 275.841 701.907, 275.946 702.411, 275.987 703.088, 276.041 704.873, 276.186 705.739, 276.370 705.742, 276.371 707.836, 276.816 " fill="none" stroke="rgb(0, 0, 0)" stroke-linecap="butt" stroke-linejoin="round" stroke-opacity="1.0" stroke-width="3.0" />
            <path d=" M 743.332, 262.320 750.251, 266.166 751.161, 267.576 756.401, 275.695 756.881, 276.756 758.723, 281.089 759.335, 286.206 759.649, 287.627 759.859, 288.578 759.983, 289.138 760.262, 289.963 760.383, 290.320 760.578, 290.897 762.969, 297.958 763.046, 298.206 763.052, 298.225 763.455, 299.513 763.518, 299.714 764.549, 303.011 766.747, 310.303 766.963, 311.019 " fill="none" stroke="rgb(0, 0, 0)" stroke-linecap="butt" stroke-linejoin="round" stroke-opacity="1.0" stroke-width="3.0" />
            <path d=" M 780.749, 583.070 778.168, 584.156 777.744, 584.334 777.680, 584.361 777.673, 584.364 772.764, 586.428 772.250, 586.965 771.947, 587.282 770.621, 588.667 768.414, 591.149 766.207, 595.169 765.611, 598.710 765.640, 599.906 765.693, 601.129 765.709, 601.496 765.725, 601.876 765.802, 603.670 769.373, 608.218 770.070, 608.646 772.827, 609.926 774.032, 609.923 774.244, 609.922 776.146, 611.957 778.694, 613.197 779.832, 613.728 779.932, 613.774 783.038, 615.222 784.308, 616.122 784.310, 616.124 785.103, 616.687 785.186, 616.746 785.276, 616.809 785.458, 616.939 786.119, 617.408 786.552, 617.715 787.692, 619.065 787.832, 619.230 788.090, 619.536 " fill="none" stroke="rgb(0, 0, 0)" stroke-linecap="butt" stroke-linejoin="round" stroke-opacity="1.0" stroke-width="3.0" />
            <path d=" M 500.896, 747.229 502.064, 753.376 504.724, 756.055 506.960, 762.767 509.068, 769.145 512.216, 775.026 516.165, 780.449 519.024, 782.658 525.413, 790.351 525.979, 791.031 526.863, 792.097 528.677, 794.897 " fill="none" stroke="rgb(0, 0, 0)" stroke-linecap="butt" stroke-linejoin="round" stroke-opacity="1.0" stroke-width="3.0" />
            <path d=" M 834.061, 789.113 837.258, 786.774 840.982, 784.050 844.946, 781.646 848.131, 780.918 849.095, 780.183 849.570, 779.821 850.931, 778.782 852.277, 777.485 853.762, 776.054 855.229, 773.332 855.849, 771.148 855.625, 763.222 854.376, 759.709 853.492, 757.262 849.883, 753.721 848.716, 752.947 843.933, 750.340 842.486, 750.305 " fill="none" stroke="rgb(0, 0, 0)" stroke-linecap="butt" stroke-linejoin="round" stroke-opacity="1.0" stroke-width="3.0" />
            <path d=" M 521.848, 566.025 520.674, 565.049 519.226, 563.846 520.000, 559.311 522.732, 555.331 524.448, 551.540 524.947, 547.783 525.243, 544.617 523.502, 541.440 518.250, 538.158 515.405, 535.303 513.834, 533.912 509.955, 531.771 503.962, 532.350 503.814, 532.365 503.744, 532.345 498.163, 530.780 497.491, 530.592 " fill="none" stroke="rgb(0, 0, 0)" stroke-linecap="butt" stroke-linejoin="round" stroke-opacity="1.0" stroke-width="3.0" />
            <path d=" M 827.852, 747.915 826.669, 747.740 826.501, 747.716 825.922, 747.630 822.923, 748.437 820.995, 749.177 817.371, 751.185 813.757, 752.820 807.489, 756.685 802.098, 759.426 799.228, 761.298 794.619, 762.885 794.471, 762.936 792.567, 763.858 790.767, 764.809 789.449, 765.295 786.531, 766.372 782.453, 768.510 780.325, 769.328 776.360, 771.365 " fill="none" stroke="rgb(0, 0, 0)" stroke-linecap="butt" stroke-linejoin="round" stroke-opacity="1.0" stroke-width="3.0" />
            <path d=" M 555.153, 837.689 556.460, 839.590 560.707, 845.065 566.462, 852.890 566.548, 853.031 567.437, 854.483 571.593, 861.269 573.994, 865.189 576.137, 870.758 580.325, 875.523 586.054, 882.918 587.342, 884.582 " fill="none" stroke="rgb(0, 0, 0)" stroke-linecap="butt" stroke-linejoin="round" stroke-opacity="1.0" stroke-width="3.0" />
            <path d=" M 448.980, 663.622 448.438, 665.606 447.552, 675.566 446.927, 682.589 446.184, 688.826 445.565, 694.473 445.578, 704.473 445.580, 706.601 445.583, 709.213 445.594, 706.544 445.598, 705.685 445.637, 697.404 " fill="none" stroke="rgb(0, 0, 0)" stroke-linecap="butt" stroke-linejoin="round" stroke-opacity="1.0" stroke-width="3.0" />
            <path d=" M 748.982, 633.956 749.664, 634.617 753.636, 638.468 758.537, 644.388 761.063, 648.889 762.466, 651.389 762.636, 652.144 764.608, 660.855 764.619, 660.906 764.628, 661.111 764.665, 661.985 765.042, 670.917 765.120, 672.769 765.149, 673.457 765.267, 676.276 765.237, 676.882 765.214, 677.343 765.160, 678.408 764.711, 687.312 764.708, 687.380 " fill="none" stroke="rgb(0, 0, 0)" stroke-linecap="butt" stroke-linejoin="round" stroke-opacity="1.0" stroke-width="3.0" />
            <path d=" M 625.638, 578.310 626.743, 579.544 626.942, 580.871 626.985, 581.161 627.714, 586.030 629.004, 588.577 630.967, 589.286 633.453, 589.847 636.028, 590.630 640.565, 590.543 645.301, 592.361 648.248, 594.964 648.903, 595.543 648.997, 595.626 650.212, 596.699 651.042, 596.925 651.244, 596.980 652.246, 597.251 655.556, 596.172 661.224, 592.084 662.923, 590.859 665.709, 586.869 665.943, 586.654 666.765, 585.896 666.913, 585.760 667.081, 585.605 669.480, 583.394 " fill="none" stroke="rgb(0, 0, 0)" stroke-linecap="butt" stroke-linejoin="round" stroke-opacity="1.0" stroke-width="3.0" />
            <path d=" M 764.527, 690.781 762.166, 695.097 759.080, 700.738 756.330, 706.374 754.873, 709.220 753.154, 713.775 750.797, 719.663 748.938, 722.686 747.356, 726.027 746.739, 728.449 745.980, 732.167 745.709, 733.144 748.268, 734.732 751.618, 731.872 753.945, 730.143 756.083, 729.326 756.312, 729.239 " fill="none" stroke="rgb(0, 0, 0)" stroke-linecap="butt" stroke-linejoin="round" stroke-opacity="1.0" stroke-width="3.0" />
            <path d=" M 455.094, 770.003 456.130, 773.833 457.180, 778.327 458.422, 784.059 461.979, 792.827 464.697, 800.438 467.650, 808.565 469.351, 813.450 471.814, 819.906 472.515, 821.199 475.332, 826.400 " fill="none" stroke="rgb(0, 0, 0)" stroke-linecap="butt" stroke-linejoin="round" stroke-opacity="1.0" stroke-width="3.0" />
            <path d=" M 942.016, 702.712 941.940, 702.325 941.695, 701.071 941.519, 700.174 941.438, 697.407 941.435, 697.300 941.435, 697.294 941.328, 693.657 939.885, 683.762 939.772, 682.988 939.258, 678.139 938.677, 668.156 938.612, 667.048 938.558, 657.048 938.552, 656.058 939.350, 650.347 940.278, 644.174 939.539, 642.636 " fill="none" stroke="rgb(0, 0, 0)" stroke-linecap="butt" stroke-linejoin="round" stroke-opacity="1.0" stroke-width="3.0" />
            <path d=" M 820.584, 882.714 824.714, 882.380 830.555, 883.573 836.225, 884.259 838.259, 883.743 839.162, 883.115 841.562, 881.614 844.604, 878.672 845.386, 877.949 845.397, 877.939 847.198, 876.275 848.680, 874.717 849.023, 874.357 850.417, 872.893 850.691, 870.148 850.845, 868.604 850.779, 866.974 850.716, 865.424 850.022, 862.185 849.952, 861.857 849.808, 860.568 849.582, 858.552 849.268, 856.058 847.303, 851.691 848.231, 846.756 " fill="none" stroke="rgb(0, 0, 0)" stroke-linecap="butt" stroke-linejoin="round" stroke-opacity="1.0" stroke-width="3.0" />
            <path d=" M 445.580, 706.601 445.368, 707.449 445.617, 717.446 445.756, 722.992 446.141, 729.079 447.408, 738.999 447.461, 739.419 449.681, 749.170 450.202, 751.457 452.032, 759.924 454.939, 769.492 455.094, 770.003 455.643, 771.809 " fill="none" stroke="rgb(0, 0, 0)" stroke-linecap="butt" stroke-linejoin="round" stroke-opacity="1.0" stroke-width="3.0" />
            <path d=" M 619.760, 553.590 619.573, 554.415 619.118, 556.425 619.676, 560.805 620.350, 562.748 621.235, 564.976 622.702, 566.320 622.978, 566.573 623.399, 566.959 623.668, 567.012 624.070, 567.090 624.533, 567.181 624.714, 567.216 624.718, 567.217 625.276, 567.326 625.345, 567.339 625.345, 567.339 626.271, 567.520 626.596, 567.583 626.785, 567.620 627.004, 567.663 627.108, 567.636 627.888, 567.440 627.949, 567.425 628.207, 567.360 628.843, 567.200 628.902, 567.185 629.806, 566.958 633.096, 566.130 633.458, 566.039 633.484, 566.032 633.494, 566.030 634.417, 565.797 634.422, 565.797 634.837, 565.734 634.970, 565.714 635.299, 565.664 635.968, 565.562 636.654, 565.458 637.174, 565.379 639.655, 565.002 641.299, 564.753 646.777, 566.139 647.593, 566.346 648.433, 566.559 652.090, 567.484 653.277, 567.616 654.533, 567.399 657.281, 565.294 659.878, 563.138 664.314, 558.073 664.972, 555.088 664.982, 555.041 665.108, 554.472 665.163, 554.224 665.743, 551.593 " fill="none" stroke="rgb(0, 0, 0)" stroke-linecap="butt" stroke-linejoin="round" stroke-opacity="1.0" stroke-width="3.0" />
            <path d=" M 618.132, 525.346 618.115, 525.369 617.682, 525.961 617.651, 526.003 617.588, 526.089 617.579, 526.102 617.545, 526.149 617.240, 531.927 617.867, 533.179 618.414, 534.271 618.800, 535.042 618.881, 535.118 619.468, 535.669 619.834, 536.012 621.619, 537.027 622.338, 537.087 622.644, 537.112 624.018, 537.226 626.234, 537.409 627.655, 537.527 629.745, 536.826 629.805, 536.806 631.231, 536.328 635.018, 535.059 642.276, 534.765 648.667, 535.359 652.708, 536.572 654.295, 536.185 654.496, 536.136 655.464, 535.900 661.198, 531.526 664.440, 528.389 667.991, 522.556 " fill="none" stroke="rgb(0, 0, 0)" stroke-linecap="butt" stroke-linejoin="round" stroke-opacity="1.0" stroke-width="3.0" />
            <path d=" M 827.296, 877.858 829.865, 876.702 830.596, 876.373 832.921, 875.327 834.340, 874.473 837.694, 872.454 838.295, 871.908 838.297, 871.905 840.102, 870.263 840.220, 869.854 840.918, 867.430 841.141, 866.655 841.451, 865.579 841.537, 865.038 841.592, 864.691 841.800, 863.376 842.106, 861.446 840.006, 858.103 839.860, 857.973 839.639, 857.775 838.167, 856.463 833.794, 854.235 833.723, 854.199 833.471, 854.070 830.996, 852.128 830.582, 851.803 830.440, 851.692 829.600, 851.033 829.505, 850.958 827.654, 849.506 827.298, 849.226 827.223, 849.167 827.174, 849.152 826.747, 849.022 826.513, 848.951 825.769, 848.723 825.554, 848.658 825.306, 848.582 823.044, 847.951 821.728, 847.584 819.128, 847.094 818.708, 847.015 818.698, 847.013 818.682, 847.010 818.414, 846.960 818.280, 846.935 816.016, 846.508 815.348, 846.383 815.111, 846.338 812.714, 845.887 804.350, 843.429 " fill="none" stroke="rgb(0, 0, 0)" stroke-linecap="butt" stroke-linejoin="round" stroke-opacity="1.0" stroke-width="3.0" />
            <path d=" M 916.730, 580.794 916.163, 577.472 914.658, 573.566 913.013, 569.484 910.222, 564.716 905.439, 557.799 901.991, 553.160 900.246, 550.964 894.708, 543.896 890.585, 538.124 888.000, 534.667 886.488, 532.297 885.577, 530.935 883.412, 527.920 879.739, 524.132 " fill="none" stroke="rgb(0, 0, 0)" stroke-linecap="butt" stroke-linejoin="round" stroke-opacity="1.0" stroke-width="3.0" />
            <path d=" M 538.756, 578.091 539.327, 576.993 540.797, 574.167 541.102, 573.582 541.341, 573.121 541.631, 572.564 543.299, 569.358 544.682, 562.570 543.471, 555.511 542.464, 547.604 541.070, 544.940 536.779, 542.157 532.528, 541.561 531.434, 541.493 528.255, 542.396 527.365, 545.908 526.526, 553.589 525.541, 562.614 " fill="none" stroke="rgb(0, 0, 0)" stroke-linecap="butt" stroke-linejoin="round" stroke-opacity="1.0" stroke-width="3.0" />
            <path d=" M 913.999, 707.998 915.272, 713.867 916.491, 723.792 916.580, 724.517 916.665, 732.756 917.588, 740.830 917.636, 747.123 918.559, 753.597 918.325, 756.086 917.325, 760.658 916.591, 763.727 917.221, 768.647 917.395, 769.909 918.191, 775.674 917.319, 779.930 " fill="none" stroke="rgb(0, 0, 0)" stroke-linecap="butt" stroke-linejoin="round" stroke-opacity="1.0" stroke-width="3.0" />
            <path d=" M 456.515, 588.114 455.834, 591.234 455.429, 593.085 454.849, 601.221 452.872, 609.935 451.130, 619.782 450.355, 624.161 450.662, 634.157 450.779, 637.941 450.195, 647.924 449.924, 652.571 449.073, 662.535 448.980, 663.622 448.961, 663.840 " fill="none" stroke="rgb(0, 0, 0)" stroke-linecap="butt" stroke-linejoin="round" stroke-opacity="1.0" stroke-width="3.0" />
            <path d=" M 729.211, 937.783 732.517, 939.882 740.064, 941.666 747.845, 943.421 752.819, 945.727 757.421, 945.385 762.385, 941.926 770.219, 935.711 771.405, 934.771 773.865, 932.288 776.490, 928.707 778.562, 924.696 779.549, 921.309 778.498, 918.506 777.205, 916.292 772.304, 913.163 770.241, 912.620 " fill="none" stroke="rgb(0, 0, 0)" stroke-linecap="butt" stroke-linejoin="round" stroke-opacity="1.0" stroke-width="3.0" />
            <path d=" M 711.780, 851.086 713.017, 849.962 720.024, 843.601 720.650, 843.033 720.864, 842.839 721.814, 841.976 724.314, 840.015 724.372, 839.969 724.691, 839.719 728.236, 836.938 728.862, 836.536 729.152, 836.350 729.396, 836.193 733.816, 833.355 738.844, 830.232 741.651, 828.400 743.633, 827.106 743.923, 826.916 743.972, 826.884 744.047, 826.835 747.158, 824.804 747.200, 824.777 747.342, 824.684 748.075, 824.206 751.570, 822.040 756.922, 818.159 763.233, 814.032 764.751, 812.849 765.913, 811.943 770.285, 808.534 772.998, 806.146 773.244, 805.929 778.203, 801.563 " fill="none" stroke="rgb(0, 0, 0)" stroke-linecap="butt" stroke-linejoin="round" stroke-opacity="1.0" stroke-width="3.0" />
            <path d=" M 679.331, 308.204 677.785, 308.437 675.530, 308.613 672.038, 308.886 666.841, 309.217 664.238, 309.870 658.230, 311.405 654.403, 313.231 651.982, 315.177 644.610, 319.035 640.989, 320.927 638.421, 323.369 632.412, 327.428 626.932, 332.987 625.907, 335.211 628.068, 338.719 630.323, 339.996 634.678, 340.219 639.674, 340.068 644.080, 338.767 644.768, 338.564 " fill="none" stroke="rgb(0, 0, 0)" stroke-linecap="butt" stroke-linejoin="round" stroke-opacity="1.0" stroke-width="3.0" />
            <path d=" M 913.850, 598.981 911.393, 595.676 907.136, 589.948 901.047, 583.226 896.834, 579.635 893.582, 576.499 888.542, 570.791 886.408, 567.590 882.164, 561.974 877.714, 555.901 877.151, 554.423 872.620, 546.659 870.037, 540.885 867.158, 534.365 865.377, 528.462 865.112, 526.774 865.106, 526.737 865.088, 526.619 865.072, 526.520 865.060, 526.440 865.057, 526.421 865.052, 526.392 864.994, 526.022 " fill="none" stroke="rgb(0, 0, 0)" stroke-linecap="butt" stroke-linejoin="round" stroke-opacity="1.0" stroke-width="3.0" />
            <path d=" M 601.808, 729.945 601.641, 729.085 601.641, 729.084 601.296, 727.305 600.703, 724.245 600.653, 723.988 600.963, 723.432 601.307, 722.815 602.402, 720.851 604.373, 719.245 608.055, 716.246 609.365, 714.059 611.400, 710.662 613.664, 705.788 615.713, 701.253 619.202, 691.881 619.334, 691.525 620.531, 688.998 620.568, 688.920 620.575, 688.906 621.886, 686.137 623.195, 681.392 622.853, 680.114 617.706, 677.447 615.802, 677.208 610.751, 679.768 610.299, 679.997 605.092, 682.576 602.789, 683.716 599.275, 684.602 597.783, 685.257 595.636, 686.198 594.720, 686.600 594.534, 686.724 591.541, 688.716 586.801, 691.189 585.772, 691.726 " fill="none" stroke="rgb(0, 0, 0)" stroke-linecap="butt" stroke-linejoin="round" stroke-opacity="1.0" stroke-width="3.0" />
            <path d=" M 647.882, 445.388 644.630, 449.423 640.522, 453.492 639.767, 454.339 633.272, 461.635 630.059, 468.827 629.073, 472.248 625.539, 477.567 623.176, 487.284 622.768, 488.959 620.720, 494.697 620.091, 497.099 619.398, 500.734 618.718, 504.309 617.262, 514.036 616.052, 519.536 615.565, 528.939 616.554, 531.587 617.227, 533.388 617.399, 533.848 617.419, 533.902 617.597, 534.378 " fill="none" stroke="rgb(0, 0, 0)" stroke-linecap="butt" stroke-linejoin="round" stroke-opacity="1.0" stroke-width="3.0" />
            <path d=" M 822.917, 812.754 820.558, 815.186 818.138, 817.896 818.125, 817.911 817.997, 818.055 816.963, 819.213 816.329, 819.923 815.817, 820.497 816.624, 824.477 818.265, 825.556 818.452, 825.678 819.105, 826.107 819.631, 826.453 822.677, 828.455 825.383, 829.765 826.269, 830.422 826.744, 830.707 829.615, 832.428 831.003, 833.260 831.270, 833.454 834.007, 835.440 834.661, 835.921 836.770, 837.273 837.314, 837.622 837.321, 837.626 837.456, 837.713 839.062, 838.743 839.621, 839.101 840.870, 839.222 840.937, 839.229 842.771, 839.407 842.878, 839.417 843.304, 839.459 843.535, 839.481 844.335, 839.559 844.695, 839.594 844.887, 839.612 846.188, 839.739 855.990, 841.718 857.344, 841.991 859.564, 842.465 859.567, 842.466 860.973, 842.766 867.814, 842.993 873.991, 841.867 882.348, 839.620 887.529, 838.687 890.950, 837.223 894.611, 835.658 899.847, 831.998 901.113, 831.113 902.727, 830.368 903.115, 830.189 907.151, 828.327 " fill="none" stroke="rgb(0, 0, 0)" stroke-linecap="butt" stroke-linejoin="round" stroke-opacity="1.0" stroke-width="3.0" />
            <path d=" M 838.432, 426.665 838.083, 423.532 838.014, 422.908 837.452, 417.870 837.066, 414.410 836.606, 404.420 836.547, 403.150 836.395, 393.151 836.242, 383.063 836.005, 380.757 834.482, 370.874 834.270, 369.492 831.126, 359.999 829.640, 355.511 828.509, 352.717 826.215, 342.984 825.640, 340.545 825.582, 335.997 824.170, 334.291 821.648, 328.096 820.481, 322.065 819.563, 319.279 818.546, 316.194 " fill="none" stroke="rgb(0, 0, 0)" stroke-linecap="butt" stroke-linejoin="round" stroke-opacity="1.0" stroke-width="3.0" />
            <path d=" M 778.252, 640.903 778.057, 645.227 778.525, 650.915 777.848, 652.337 777.845, 652.342 777.575, 652.910 777.164, 653.772 777.161, 653.779 777.148, 653.807 775.632, 656.990 775.421, 661.702 775.845, 662.227 777.773, 664.613 777.917, 664.791 780.617, 665.417 783.494, 666.085 784.053, 666.111 789.250, 665.569 798.040, 660.802 798.247, 660.689 800.392, 658.093 804.030, 655.716 805.898, 654.846 806.403, 653.682 808.066, 652.480 810.716, 650.101 815.226, 646.446 821.244, 644.111 825.334, 643.215 829.537, 642.375 830.141, 642.255 830.885, 642.404 839.481, 644.129 842.950, 647.550 845.282, 651.359 846.168, 656.848 848.171, 661.067 849.123, 661.381 851.992, 662.328 " fill="none" stroke="rgb(0, 0, 0)" stroke-linecap="butt" stroke-linejoin="round" stroke-opacity="1.0" stroke-width="3.0" />
            <path d=" M 939.487, 798.120 936.912, 803.191 935.629, 805.215 939.487, 798.120 941.023, 795.295 942.567, 792.054 945.195, 785.055 947.955, 775.443 948.255, 774.397 949.795, 764.516 950.133, 762.349 950.714, 754.141 950.959, 744.144 951.133, 737.089 950.666, 727.936 949.898, 723.989 948.955, 717.063 946.470, 708.589 943.396, 700.613 941.435, 697.294 " fill="none" stroke="rgb(0, 0, 0)" stroke-linecap="butt" stroke-linejoin="round" stroke-opacity="1.0" stroke-width="3.0" />
            <path d=" M 551.888, 619.824 552.958, 617.993 553.315, 617.383 553.526, 617.021 558.570, 608.387 558.943, 607.749 565.022, 599.809 566.688, 597.634 573.099, 589.960 574.532, 588.245 581.387, 580.965 582.453, 579.833 588.613, 572.788 589.463, 568.209 588.028, 562.708 588.389, 555.851 587.708, 553.783 586.150, 551.541 581.677, 551.160 579.260, 551.804 571.383, 554.832 568.317, 555.874 562.917, 558.636 556.141, 560.638 547.960, 566.389 546.125, 567.679 541.999, 572.373 " fill="none" stroke="rgb(0, 0, 0)" stroke-linecap="butt" stroke-linejoin="round" stroke-opacity="1.0" stroke-width="3.0" />
            <path d=" M 492.543, 570.830 487.593, 572.418 485.604, 577.210 484.683, 584.390 484.093, 588.986 481.407, 594.423 480.206, 597.333 480.620, 601.734 480.746, 610.650 480.455, 619.156 481.022, 626.242 480.791, 629.196 480.058, 633.513 479.974, 634.010 479.775, 635.182 479.324, 644.212 479.498, 652.368 480.973, 659.913 480.321, 665.085 480.946, 669.360 481.424, 672.629 481.774, 676.572 481.456, 679.365 481.078, 682.692 480.335, 689.223 480.343, 698.979 479.247, 703.691 479.139, 704.155 479.121, 704.231 479.043, 704.571 478.507, 706.873 478.701, 712.694 480.715, 718.736 484.260, 723.915 487.687, 727.914 487.849, 728.103 488.400, 728.746 488.700, 729.097 489.813, 730.395 490.842, 733.338 495.448, 739.555 496.632, 742.299 500.896, 747.229 501.816, 748.292 " fill="none" stroke="rgb(0, 0, 0)" stroke-linecap="butt" stroke-linejoin="round" stroke-opacity="1.0" stroke-width="3.0" />
        </g>
    </g>
</svg>
