<?xml version='1.0' encoding='ascii'?>
<svg xmlns="http://www.w3.org/2000/svg" height="1280" version="1.1" width="1280">
    <g id="RenderLayer_LineSet" inkscape:groupmode="lineset" inkscape:label="RenderLayer_LineSet" xmlns:inkscape="http://www.inkscape.org/namespaces/inkscape">
        <g id="strokes" inkscape:groupmode="layer" inkscape:label="strokes" xmlns:inkscape="http://www.inkscape.org/namespaces/inkscape">
            <path d=" M 736.036, 1085.246 736.560, 1085.844 740.698, 1090.572 743.815, 1093.278 748.519, 1098.283 750.399, 1099.018 " fill="none" stroke="rgb(0, 0, 0)" stroke-linecap="butt" stroke-linejoin="round" stroke-opacity="1.0" stroke-width="3.0" />
            <path d=" M 703.541, 640.763 701.826, 647.199 701.216, 649.633 701.996, 653.663 700.353, 656.065 696.860, 657.834 " fill="none" stroke="rgb(0, 0, 0)" stroke-linecap="butt" stroke-linejoin="round" stroke-opacity="1.0" stroke-width="3.0" />
            <path d=" M 526.699, 559.947 523.472, 557.242 523.268, 557.022 518.710, 552.075 514.428, 548.369 513.906, 547.918 511.760, 546.551 " fill="none" stroke="rgb(0, 0, 0)" stroke-linecap="butt" stroke-linejoin="round" stroke-opacity="1.0" stroke-width="3.0" />
            <path d=" M 964.736, 952.222 963.957, 942.283 962.121, 932.453 962.079, 932.230 " fill="none" stroke="rgb(0, 0, 0)" stroke-linecap="butt" stroke-linejoin="round" stroke-opacity="1.0" stroke-width="3.0" />
            <path d=" M 632.885, 1002.166 634.095, 1007.862 635.896, 1013.767 638.779, 1019.629 639.754, 1021.173 " fill="none" stroke="rgb(0, 0, 0)" stroke-linecap="butt" stroke-linejoin="round" stroke-opacity="1.0" stroke-width="3.0" />
            <path d=" M 748.239, 435.301 748.095, 433.900 747.022, 430.086 743.335, 425.669 739.427, 423.379 737.415, 422.596 735.292, 423.489 735.208, 423.934 " fill="none" stroke="rgb(0, 0, 0)" stroke-linecap="butt" stroke-linejoin="round" stroke-opacity="1.0" stroke-width="3.0" />
            <path d=" M 546.270, 940.716 546.297, 939.466 546.346, 937.185 546.355, 936.791 547.554, 932.973 550.074, 924.644 550.314, 923.852 551.220, 920.856 " fill="none" stroke="rgb(0, 0, 0)" stroke-linecap="butt" stroke-linejoin="round" stroke-opacity="1.0" stroke-width="3.0" />
            <path d=" M 654.255, 898.410 651.999, 900.920 649.772, 903.397 648.121, 904.940 646.031, 907.734 643.865, 910.112 640.333, 913.988 " fill="none" stroke="rgb(0, 0, 0)" stroke-linecap="butt" stroke-linejoin="round" stroke-opacity="1.0" stroke-width="3.0" />
            <path d=" M 589.626, 493.121 587.945, 490.799 586.443, 488.723 584.392, 485.805 584.336, 485.725 581.793, 482.105 581.316, 479.995 580.661, 477.096 580.062, 474.447 " fill="none" stroke="rgb(0, 0, 0)" stroke-linecap="butt" stroke-linejoin="round" stroke-opacity="1.0" stroke-width="3.0" />
            <path d=" M 716.652, 418.812 715.630, 418.388 710.167, 420.493 708.943, 421.789 708.613, 423.737 708.788, 425.780 710.306, 427.523 711.562, 430.112 714.230, 432.575 714.291, 432.631 " fill="none" stroke="rgb(0, 0, 0)" stroke-linecap="butt" stroke-linejoin="round" stroke-opacity="1.0" stroke-width="3.0" />
            <path d=" M 552.407, 679.074 553.642, 674.224 554.399, 670.325 553.144, 668.127 552.287, 666.982 548.701, 666.031 543.692, 666.686 " fill="none" stroke="rgb(0, 0, 0)" stroke-linecap="butt" stroke-linejoin="round" stroke-opacity="1.0" stroke-width="3.0" />
            <path d=" M 878.992, 685.317 886.256, 689.411 890.873, 692.272 896.176, 695.860 897.917, 697.100 " fill="none" stroke="rgb(0, 0, 0)" stroke-linecap="butt" stroke-linejoin="round" stroke-opacity="1.0" stroke-width="3.0" />
            <path d=" M 629.186, 586.732 628.514, 585.992 627.454, 584.826 626.867, 581.319 626.826, 578.239 626.825, 578.167 626.810, 577.069 626.358, 576.432 625.567, 575.315 623.792, 572.811 623.310, 571.058 622.114, 569.469 620.684, 567.801 620.065, 567.080 " fill="none" stroke="rgb(0, 0, 0)" stroke-linecap="butt" stroke-linejoin="round" stroke-opacity="1.0" stroke-width="3.0" />
            <path d=" M 797.031, 668.788 795.475, 673.057 793.193, 679.254 788.615, 684.095 787.157, 685.637 786.783, 686.032 786.505, 686.326 785.335, 687.563 " fill="none" stroke="rgb(0, 0, 0)" stroke-linecap="butt" stroke-linejoin="round" stroke-opacity="1.0" stroke-width="3.0" />
            <path d=" M 723.396, 1086.426 729.528, 1084.843 733.828, 1084.859 733.839, 1084.858 734.789, 1084.804 735.343, 1084.773 736.703, 1084.695 738.724, 1085.013 738.775, 1085.021 744.700, 1088.721 " fill="none" stroke="rgb(0, 0, 0)" stroke-linecap="butt" stroke-linejoin="round" stroke-opacity="1.0" stroke-width="3.0" />
            <path d=" M 676.823, 1077.057 679.967, 1078.251 683.015, 1079.155 686.501, 1079.956 689.015, 1080.930 693.363, 1082.290 697.974, 1083.049 698.528, 1083.140 " fill="none" stroke="rgb(0, 0, 0)" stroke-linecap="butt" stroke-linejoin="round" stroke-opacity="1.0" stroke-width="3.0" />
            <path d=" M 676.090, 638.914 674.123, 635.756 673.775, 635.196 673.682, 635.047 673.382, 634.565 673.194, 634.264 673.092, 634.100 672.848, 633.739 672.714, 633.541 670.186, 629.812 666.374, 626.192 663.310, 625.067 661.107, 625.238 660.589, 625.278 660.065, 625.288 " fill="none" stroke="rgb(0, 0, 0)" stroke-linecap="butt" stroke-linejoin="round" stroke-opacity="1.0" stroke-width="3.0" />
            <path d=" M 752.729, 586.375 752.066, 590.689 753.508, 593.892 757.860, 597.337 761.578, 598.854 764.899, 599.257 765.181, 599.291 765.340, 599.310 765.353, 599.312 766.749, 599.482 " fill="none" stroke="rgb(0, 0, 0)" stroke-linecap="butt" stroke-linejoin="round" stroke-opacity="1.0" stroke-width="3.0" />
            <path d=" M 659.752, 553.218 660.775, 556.463 663.997, 562.705 665.535, 564.959 666.798, 566.779 669.282, 569.025 670.586, 570.375 672.039, 571.880 " fill="none" stroke="rgb(0, 0, 0)" stroke-linecap="butt" stroke-linejoin="round" stroke-opacity="1.0" stroke-width="3.0" />
            <path d=" M 554.540, 383.597 557.240, 381.982 560.641, 380.012 563.221, 378.228 565.897, 376.914 570.922, 375.250 575.068, 374.284 " fill="none" stroke="rgb(0, 0, 0)" stroke-linecap="butt" stroke-linejoin="round" stroke-opacity="1.0" stroke-width="3.0" />
            <path d=" M 734.753, 423.602 732.143, 420.162 726.019, 416.650 723.942, 415.872 721.509, 415.901 720.252, 416.538 717.465, 418.625 716.652, 418.812 715.585, 419.059 " fill="none" stroke="rgb(0, 0, 0)" stroke-linecap="butt" stroke-linejoin="round" stroke-opacity="1.0" stroke-width="3.0" />
            <path d=" M 910.234, 1063.107 910.281, 1061.937 910.405, 1058.881 910.485, 1058.271 910.546, 1057.811 910.799, 1055.878 910.745, 1053.250 910.610, 1050.177 910.999, 1043.673 911.064, 1042.429 911.183, 1040.164 " fill="none" stroke="rgb(0, 0, 0)" stroke-linecap="butt" stroke-linejoin="round" stroke-opacity="1.0" stroke-width="3.0" />
            <path d=" M 964.998, 945.445 964.990, 944.313 965.043, 940.800 963.320, 934.591 962.658, 928.422 961.056, 922.915 " fill="none" stroke="rgb(0, 0, 0)" stroke-linecap="butt" stroke-linejoin="round" stroke-opacity="1.0" stroke-width="3.0" />
            <path d=" M 770.192, 522.109 769.458, 522.762 768.759, 523.384 768.120, 523.904 766.923, 524.876 766.910, 524.887 766.906, 524.880 764.344, 520.667 761.684, 517.523 760.211, 516.707 758.235, 515.613 758.088, 515.532 758.017, 515.527 757.055, 515.470 756.204, 515.419 755.737, 515.391 755.362, 515.369 754.840, 515.337 754.492, 515.317 754.050, 515.290 753.798, 515.275 752.483, 515.196 752.384, 515.190 " fill="none" stroke="rgb(0, 0, 0)" stroke-linecap="butt" stroke-linejoin="round" stroke-opacity="1.0" stroke-width="3.0" />
            <path d=" M 518.671, 902.119 518.930, 903.491 519.330, 910.841 520.470, 916.116 522.169, 919.493 522.488, 920.128 523.887, 924.883 " fill="none" stroke="rgb(0, 0, 0)" stroke-linecap="butt" stroke-linejoin="round" stroke-opacity="1.0" stroke-width="3.0" />
            <path d=" M 570.318, 709.767 567.764, 708.018 564.733, 705.943 560.927, 703.786 555.286, 703.549 551.487, 705.554 549.457, 707.119 " fill="none" stroke="rgb(0, 0, 0)" stroke-linecap="butt" stroke-linejoin="round" stroke-opacity="1.0" stroke-width="3.0" />
            <path d=" M 647.383, 624.003 647.555, 621.042 647.352, 620.191 645.887, 616.645 645.639, 616.045 645.528, 615.777 645.359, 615.369 645.137, 614.830 645.132, 614.819 644.874, 614.194 644.585, 613.495 644.513, 613.321 643.627, 611.176 641.951, 605.739 639.995, 601.836 " fill="none" stroke="rgb(0, 0, 0)" stroke-linecap="butt" stroke-linejoin="round" stroke-opacity="1.0" stroke-width="3.0" />
            <path d=" M 837.426, 795.361 841.136, 793.798 842.738, 792.717 846.349, 790.358 852.423, 788.113 854.243, 787.243 857.026, 786.584 857.950, 785.936 859.008, 785.194 " fill="none" stroke="rgb(0, 0, 0)" stroke-linecap="butt" stroke-linejoin="round" stroke-opacity="1.0" stroke-width="3.0" />
            <path d=" M 639.150, 914.803 639.729, 911.738 640.329, 909.011 642.648, 904.294 643.816, 899.827 644.633, 896.913 645.443, 893.654 645.899, 891.823 " fill="none" stroke="rgb(0, 0, 0)" stroke-linecap="butt" stroke-linejoin="round" stroke-opacity="1.0" stroke-width="3.0" />
            <path d=" M 493.170, 368.923 491.779, 371.635 491.181, 372.800 491.062, 373.144 491.054, 373.167 489.703, 377.067 489.367, 377.558 488.250, 382.966 487.345, 387.623 487.473, 391.993 " fill="none" stroke="rgb(0, 0, 0)" stroke-linecap="butt" stroke-linejoin="round" stroke-opacity="1.0" stroke-width="3.0" />
            <path d=" M 761.576, 485.818 759.373, 481.730 756.406, 478.814 755.547, 478.345 753.237, 477.182 752.381, 476.751 748.213, 475.272 747.174, 475.446 745.482, 476.452 747.270, 479.275 " fill="none" stroke="rgb(0, 0, 0)" stroke-linecap="butt" stroke-linejoin="round" stroke-opacity="1.0" stroke-width="3.0" />
            <path d=" M 786.441, 541.312 786.112, 540.634 786.111, 540.633 786.082, 540.573 785.772, 539.934 785.713, 539.814 785.681, 539.748 785.556, 539.490 785.512, 539.400 785.552, 539.488 785.666, 539.737 785.695, 539.799 785.740, 539.898 786.040, 540.551 786.065, 540.606 786.065, 540.607 786.314, 541.150 787.350, 543.408 789.211, 546.871 791.460, 550.618 793.495, 555.580 793.715, 556.115 793.855, 556.459 794.271, 559.524 " fill="none" stroke="rgb(0, 0, 0)" stroke-linecap="butt" stroke-linejoin="round" stroke-opacity="1.0" stroke-width="3.0" />
            <path d=" M 572.953, 454.512 575.843, 454.138 578.201, 452.807 579.709, 451.047 581.840, 448.959 583.805, 446.504 586.218, 443.819 586.381, 442.267 586.468, 441.446 586.240, 441.097 584.042, 437.741 " fill="none" stroke="rgb(0, 0, 0)" stroke-linecap="butt" stroke-linejoin="round" stroke-opacity="1.0" stroke-width="3.0" />
            <path d=" M 549.219, 412.142 548.514, 410.700 546.921, 404.226 548.341, 396.555 548.759, 393.067 548.450, 391.625 547.920, 389.148 547.849, 388.820 547.728, 388.254 " fill="none" stroke="rgb(0, 0, 0)" stroke-linecap="butt" stroke-linejoin="round" stroke-opacity="1.0" stroke-width="3.0" />
            <path d=" M 641.587, 605.873 639.995, 601.836 638.796, 598.796 637.431, 595.335 635.204, 592.238 632.874, 588.396 631.469, 587.384 629.995, 586.323 628.514, 585.992 " fill="none" stroke="rgb(0, 0, 0)" stroke-linecap="butt" stroke-linejoin="round" stroke-opacity="1.0" stroke-width="3.0" />
            <path d=" M 713.243, 877.005 713.746, 879.157 714.256, 881.338 714.176, 886.876 713.265, 892.673 709.211, 900.547 " fill="none" stroke="rgb(0, 0, 0)" stroke-linecap="butt" stroke-linejoin="round" stroke-opacity="1.0" stroke-width="3.0" />
            <path d=" M 764.118, 565.064 762.935, 567.983 762.901, 568.067 762.830, 568.242 760.329, 572.303 755.351, 578.256 752.787, 582.377 752.729, 586.375 752.725, 586.589 " fill="none" stroke="rgb(0, 0, 0)" stroke-linecap="butt" stroke-linejoin="round" stroke-opacity="1.0" stroke-width="3.0" />
            <path d=" M 853.431, 981.640 858.518, 978.127 860.365, 975.497 861.417, 970.361 863.114, 966.198 866.790, 961.573 " fill="none" stroke="rgb(0, 0, 0)" stroke-linecap="butt" stroke-linejoin="round" stroke-opacity="1.0" stroke-width="3.0" />
            <path d=" M 632.829, 572.756 634.891, 568.438 635.936, 562.642 634.806, 559.321 627.769, 552.217 627.359, 551.803 627.352, 551.796 627.352, 551.796 627.121, 551.563 " fill="none" stroke="rgb(0, 0, 0)" stroke-linecap="butt" stroke-linejoin="round" stroke-opacity="1.0" stroke-width="3.0" />
            <path d=" M 639.898, 1020.882 639.867, 1021.354 639.863, 1021.418 639.794, 1022.492 637.507, 1023.792 637.436, 1026.120 637.429, 1026.334 639.029, 1029.606 640.581, 1032.780 640.727, 1034.411 642.662, 1039.457 644.865, 1043.078 " fill="none" stroke="rgb(0, 0, 0)" stroke-linecap="butt" stroke-linejoin="round" stroke-opacity="1.0" stroke-width="3.0" />
            <path d=" M 851.618, 977.586 848.930, 972.142 847.125, 967.002 844.450, 962.499 842.757, 959.869 841.951, 958.747 841.177, 958.488 841.103, 958.464 838.113, 957.464 " fill="none" stroke="rgb(0, 0, 0)" stroke-linecap="butt" stroke-linejoin="round" stroke-opacity="1.0" stroke-width="3.0" />
            <path d=" M 822.540, 571.886 821.727, 570.140 819.537, 567.023 816.520, 563.001 814.700, 560.912 811.148, 556.355 807.449, 551.609 " fill="none" stroke="rgb(0, 0, 0)" stroke-linecap="butt" stroke-linejoin="round" stroke-opacity="1.0" stroke-width="3.0" />
            <path d=" M 832.339, 1116.807 841.634, 1120.496 844.703, 1121.714 846.524, 1122.777 846.823, 1123.387 847.927, 1125.648 850.353, 1126.427 851.893, 1126.143 854.670, 1125.633 " fill="none" stroke="rgb(0, 0, 0)" stroke-linecap="butt" stroke-linejoin="round" stroke-opacity="1.0" stroke-width="3.0" />
            <path d=" M 728.918, 885.013 727.544, 892.435 725.126, 897.289 724.852, 897.839 722.188, 901.892 719.517, 905.648 718.664, 906.588 718.663, 906.590 718.662, 906.590 717.518, 907.852 " fill="none" stroke="rgb(0, 0, 0)" stroke-linecap="butt" stroke-linejoin="round" stroke-opacity="1.0" stroke-width="3.0" />
            <path d=" M 712.722, 434.190 710.651, 429.937 710.252, 428.571 708.878, 425.981 706.644, 424.130 705.173, 424.031 700.217, 426.855 698.658, 430.523 697.711, 432.664 697.423, 433.316 " fill="none" stroke="rgb(0, 0, 0)" stroke-linecap="butt" stroke-linejoin="round" stroke-opacity="1.0" stroke-width="3.0" />
            <path d=" M 541.433, 642.556 542.102, 641.567 543.335, 639.696 544.443, 636.422 543.854, 634.173 539.568, 631.269 531.075, 628.710 528.227, 627.852 " fill="none" stroke="rgb(0, 0, 0)" stroke-linecap="butt" stroke-linejoin="round" stroke-opacity="1.0" stroke-width="3.0" />
            <path d=" M 529.961, 590.941 529.904, 589.867 530.580, 586.982 531.175, 585.527 531.946, 582.337 530.313, 580.595 526.875, 579.571 516.877, 579.370 515.576, 579.344 515.426, 579.341 " fill="none" stroke="rgb(0, 0, 0)" stroke-linecap="butt" stroke-linejoin="round" stroke-opacity="1.0" stroke-width="3.0" />
            <path d=" M 473.731, 776.613 473.588, 781.316 473.473, 785.111 474.045, 793.612 474.214, 796.116 474.148, 797.854 473.959, 802.900 " fill="none" stroke="rgb(0, 0, 0)" stroke-linecap="butt" stroke-linejoin="round" stroke-opacity="1.0" stroke-width="3.0" />
            <path d=" M 656.323, 497.277 658.727, 501.174 662.187, 504.255 668.567, 511.986 671.876, 516.340 671.933, 516.717 672.027, 517.339 672.192, 518.431 " fill="none" stroke="rgb(0, 0, 0)" stroke-linecap="butt" stroke-linejoin="round" stroke-opacity="1.0" stroke-width="3.0" />
            <path d=" M 527.719, 625.736 531.792, 623.243 532.959, 620.809 533.656, 618.022 532.809, 614.120 528.026, 609.552 527.915, 607.919 530.339, 604.868 530.685, 604.432 " fill="none" stroke="rgb(0, 0, 0)" stroke-linecap="butt" stroke-linejoin="round" stroke-opacity="1.0" stroke-width="3.0" />
            <path d=" M 552.676, 862.089 552.733, 859.626 552.837, 855.173 552.945, 850.508 553.385, 841.591 553.836, 836.588 553.837, 836.570 553.838, 836.570 553.848, 836.453 553.848, 836.450 553.912, 835.741 553.958, 835.235 554.028, 834.453 " fill="none" stroke="rgb(0, 0, 0)" stroke-linecap="butt" stroke-linejoin="round" stroke-opacity="1.0" stroke-width="3.0" />
            <path d=" M 649.372, 882.413 651.556, 879.673 652.800, 875.245 654.397, 870.779 655.828, 867.485 656.630, 865.143 658.056, 862.340 658.665, 859.870 658.717, 858.218 658.762, 856.767 " fill="none" stroke="rgb(0, 0, 0)" stroke-linecap="butt" stroke-linejoin="round" stroke-opacity="1.0" stroke-width="3.0" />
            <path d=" M 610.463, 961.365 610.384, 963.854 612.535, 968.550 617.585, 973.805 621.647, 976.917 627.838, 981.660 " fill="none" stroke="rgb(0, 0, 0)" stroke-linecap="butt" stroke-linejoin="round" stroke-opacity="1.0" stroke-width="3.0" />
            <path d=" M 813.979, 1107.493 819.540, 1110.644 828.652, 1114.765 831.294, 1115.960 835.812, 1117.874 839.246, 1119.330 " fill="none" stroke="rgb(0, 0, 0)" stroke-linecap="butt" stroke-linejoin="round" stroke-opacity="1.0" stroke-width="3.0" />
            <path d=" M 955.974, 992.994 956.397, 992.265 956.406, 992.250 956.562, 991.982 956.583, 991.945 958.250, 989.073 958.515, 988.616 958.812, 986.957 959.271, 984.397 961.109, 981.477 962.828, 978.749 963.015, 972.685 964.007, 970.147 963.824, 966.873 " fill="none" stroke="rgb(0, 0, 0)" stroke-linecap="butt" stroke-linejoin="round" stroke-opacity="1.0" stroke-width="3.0" />
            <path d=" M 681.591, 666.391 679.640, 664.545 678.676, 663.633 675.337, 660.473 672.717, 657.994 667.491, 652.023 666.913, 651.362 665.783, 650.278 665.778, 650.273 665.364, 649.876 665.337, 649.849 665.205, 649.722 664.773, 649.308 664.697, 649.235 661.704, 646.363 " fill="none" stroke="rgb(0, 0, 0)" stroke-linecap="butt" stroke-linejoin="round" stroke-opacity="1.0" stroke-width="3.0" />
            <path d=" M 517.676, 900.618 518.671, 902.119 518.910, 902.479 519.252, 902.995 522.222, 905.216 522.239, 905.229 522.787, 905.639 526.705, 906.932 530.820, 909.316 532.242, 909.671 534.407, 906.748 536.396, 903.951 536.054, 900.164 " fill="none" stroke="rgb(0, 0, 0)" stroke-linecap="butt" stroke-linejoin="round" stroke-opacity="1.0" stroke-width="3.0" />
            <path d=" M 697.711, 432.664 695.312, 432.909 694.628, 433.861 692.540, 436.279 692.050, 437.041 690.594, 439.892 692.015, 445.998 694.010, 450.017 696.598, 454.606 696.376, 456.216 " fill="none" stroke="rgb(0, 0, 0)" stroke-linecap="butt" stroke-linejoin="round" stroke-opacity="1.0" stroke-width="3.0" />
            <path d=" M 750.104, 881.447 753.731, 884.689 758.146, 890.734 761.579, 896.286 764.229, 897.162 764.236, 897.165 764.598, 897.284 767.777, 898.337 770.860, 899.357 " fill="none" stroke="rgb(0, 0, 0)" stroke-linecap="butt" stroke-linejoin="round" stroke-opacity="1.0" stroke-width="3.0" />
            <path d=" M 673.810, 605.916 672.578, 602.842 672.531, 602.724 670.832, 598.485 667.388, 596.055 661.142, 593.480 659.682, 593.879 659.334, 593.974 656.786, 596.354 654.894, 597.359 654.373, 597.635 653.106, 599.300 " fill="none" stroke="rgb(0, 0, 0)" stroke-linecap="butt" stroke-linejoin="round" stroke-opacity="1.0" stroke-width="3.0" />
            <path d=" M 537.445, 666.011 537.835, 665.083 544.037, 658.966 545.150, 655.128 543.382, 649.914 540.553, 645.902 541.433, 642.556 541.859, 640.937 " fill="none" stroke="rgb(0, 0, 0)" stroke-linecap="butt" stroke-linejoin="round" stroke-opacity="1.0" stroke-width="3.0" />
            <path d=" M 701.548, 682.047 697.679, 678.985 690.452, 673.267 684.492, 668.547 679.561, 664.381 678.676, 663.633 " fill="none" stroke="rgb(0, 0, 0)" stroke-linecap="butt" stroke-linejoin="round" stroke-opacity="1.0" stroke-width="3.0" />
            <path d=" M 910.813, 1041.428 911.183, 1040.164 912.054, 1037.188 912.142, 1036.691 912.746, 1033.271 912.971, 1031.644 913.067, 1030.953 913.193, 1030.048 913.358, 1028.990 913.694, 1026.851 913.873, 1024.125 915.756, 1017.839 916.572, 1014.711 916.740, 1012.680 916.766, 1012.358 " fill="none" stroke="rgb(0, 0, 0)" stroke-linecap="butt" stroke-linejoin="round" stroke-opacity="1.0" stroke-width="3.0" />
            <path d=" M 530.791, 562.365 532.271, 566.895 534.286, 573.065 537.501, 582.534 539.227, 587.619 540.728, 590.554 " fill="none" stroke="rgb(0, 0, 0)" stroke-linecap="butt" stroke-linejoin="round" stroke-opacity="1.0" stroke-width="3.0" />
            <path d=" M 783.704, 561.831 782.404, 561.287 782.283, 561.237 781.739, 561.009 781.685, 560.986 779.137, 559.920 777.720, 559.327 772.888, 556.964 771.697, 556.381 770.998, 556.707 768.935, 557.669 768.118, 558.049 766.091, 558.786 765.531, 559.829 765.474, 559.936 765.445, 559.991 765.351, 560.165 764.766, 561.256 764.092, 562.583 764.113, 564.549 764.114, 564.621 764.118, 565.064 764.159, 568.972 " fill="none" stroke="rgb(0, 0, 0)" stroke-linecap="butt" stroke-linejoin="round" stroke-opacity="1.0" stroke-width="3.0" />
            <path d=" M 756.053, 515.950 755.754, 515.888 755.617, 515.859 755.375, 515.809 754.738, 515.676 753.997, 515.522 753.647, 515.449 752.562, 515.223 752.472, 515.207 752.384, 515.190 751.096, 514.952 748.025, 514.385 744.159, 514.405 742.444, 515.768 743.456, 520.007 745.792, 522.113 748.614, 526.163 749.473, 527.396 749.705, 527.729 749.863, 527.834 750.091, 527.984 750.330, 528.143 750.935, 528.543 " fill="none" stroke="rgb(0, 0, 0)" stroke-linecap="butt" stroke-linejoin="round" stroke-opacity="1.0" stroke-width="3.0" />
            <path d=" M 492.938, 360.141 491.769, 361.031 490.935, 361.665 488.873, 366.009 484.040, 374.763 483.941, 374.942 479.475, 383.890 479.322, 384.194 478.683, 386.305 " fill="none" stroke="rgb(0, 0, 0)" stroke-linecap="butt" stroke-linejoin="round" stroke-opacity="1.0" stroke-width="3.0" />
            <path d=" M 778.753, 956.104 783.000, 959.045 784.136, 959.832 791.914, 965.220 800.461, 970.412 804.071, 972.605 " fill="none" stroke="rgb(0, 0, 0)" stroke-linecap="butt" stroke-linejoin="round" stroke-opacity="1.0" stroke-width="3.0" />
            <path d=" M 777.042, 861.231 776.990, 859.083 776.937, 856.906 776.727, 848.226 777.500, 844.290 778.557, 840.234 779.004, 838.522 779.428, 835.911 779.281, 835.016 777.879, 833.651 775.567, 833.072 " fill="none" stroke="rgb(0, 0, 0)" stroke-linecap="butt" stroke-linejoin="round" stroke-opacity="1.0" stroke-width="3.0" />
            <path d=" M 645.014, 1040.535 644.865, 1043.078 644.722, 1045.498 645.359, 1047.062 652.759, 1052.022 656.432, 1053.799 657.189, 1054.137 657.954, 1054.479 657.987, 1054.493 658.661, 1054.794 658.791, 1054.835 659.005, 1054.902 659.055, 1054.918 659.513, 1055.061 662.188, 1055.899 664.054, 1056.030 667.468, 1055.856 " fill="none" stroke="rgb(0, 0, 0)" stroke-linecap="butt" stroke-linejoin="round" stroke-opacity="1.0" stroke-width="3.0" />
            <path d=" M 548.822, 705.993 551.116, 704.121 554.783, 701.237 556.770, 695.631 557.820, 692.116 555.867, 688.076 552.826, 684.803 552.283, 679.833 " fill="none" stroke="rgb(0, 0, 0)" stroke-linecap="butt" stroke-linejoin="round" stroke-opacity="1.0" stroke-width="3.0" />
            <path d=" M 611.869, 506.871 611.743, 505.604 610.984, 503.901 609.591, 500.779 603.906, 495.862 597.514, 491.841 590.585, 491.347 587.945, 490.799 " fill="none" stroke="rgb(0, 0, 0)" stroke-linecap="butt" stroke-linejoin="round" stroke-opacity="1.0" stroke-width="3.0" />
            <path d=" M 782.967, 590.967 782.585, 590.825 778.547, 589.327 778.403, 589.274 777.703, 589.015 777.325, 589.151 773.558, 590.503 772.368, 594.285 770.854, 596.242 769.110, 598.465 765.234, 604.072 762.449, 607.239 761.697, 608.095 " fill="none" stroke="rgb(0, 0, 0)" stroke-linecap="butt" stroke-linejoin="round" stroke-opacity="1.0" stroke-width="3.0" />
            <path d=" M 739.881, 467.778 740.155, 469.693 740.171, 469.810 740.312, 470.797 740.735, 473.761 740.505, 476.066 741.859, 483.407 741.578, 485.447 741.288, 487.543 741.177, 488.345 740.240, 490.684 739.543, 491.443 738.741, 493.375 736.494, 494.883 736.264, 495.038 736.002, 495.214 735.952, 495.247 735.676, 495.432 734.453, 496.253 " fill="none" stroke="rgb(0, 0, 0)" stroke-linecap="butt" stroke-linejoin="round" stroke-opacity="1.0" stroke-width="3.0" />
            <path d=" M 775.341, 1071.004 779.153, 1073.187 780.926, 1075.557 781.978, 1076.964 781.066, 1078.997 775.490, 1080.163 768.462, 1078.593 764.648, 1078.763 763.557, 1078.375 763.538, 1078.368 761.170, 1077.526 " fill="none" stroke="rgb(0, 0, 0)" stroke-linecap="butt" stroke-linejoin="round" stroke-opacity="1.0" stroke-width="3.0" />
            <path d=" M 960.396, 920.645 960.284, 920.259 958.344, 915.034 955.369, 908.470 955.142, 907.969 955.106, 907.798 954.575, 905.251 953.065, 902.531 952.621, 901.732 951.861, 900.362 950.159, 897.296 948.672, 894.491 948.544, 894.249 947.190, 891.697 " fill="none" stroke="rgb(0, 0, 0)" stroke-linecap="butt" stroke-linejoin="round" stroke-opacity="1.0" stroke-width="3.0" />
            <path d=" M 792.980, 1096.218 797.541, 1097.618 804.973, 1102.396 805.134, 1102.500 809.064, 1105.026 813.979, 1107.493 818.603, 1109.815 821.561, 1111.300 " fill="none" stroke="rgb(0, 0, 0)" stroke-linecap="butt" stroke-linejoin="round" stroke-opacity="1.0" stroke-width="3.0" />
            <path d=" M 507.831, 533.054 507.855, 531.977 507.857, 531.880 507.976, 526.596 508.034, 525.430 507.929, 520.416 508.257, 510.618 508.308, 509.111 508.666, 499.854 " fill="none" stroke="rgb(0, 0, 0)" stroke-linecap="butt" stroke-linejoin="round" stroke-opacity="1.0" stroke-width="3.0" />
            <path d=" M 629.526, 829.779 628.739, 832.543 627.698, 835.733 627.132, 837.470 627.198, 840.066 627.306, 844.319 626.108, 847.301 626.000, 847.571 625.792, 848.089 625.526, 848.750 623.233, 856.335 622.014, 860.147 621.202, 861.911 " fill="none" stroke="rgb(0, 0, 0)" stroke-linecap="butt" stroke-linejoin="round" stroke-opacity="1.0" stroke-width="3.0" />
            <path d=" M 878.614, 801.492 875.866, 801.467 874.484, 801.454 874.254, 801.385 874.227, 801.377 871.703, 800.621 864.792, 798.550 861.017, 798.643 851.261, 800.839 848.128, 801.545 845.345, 802.171 " fill="none" stroke="rgb(0, 0, 0)" stroke-linecap="butt" stroke-linejoin="round" stroke-opacity="1.0" stroke-width="3.0" />
            <path d=" M 627.442, 548.835 628.067, 547.295 630.069, 544.109 629.371, 541.931 626.890, 539.852 624.429, 537.509 620.343, 534.267 615.300, 530.455 611.867, 530.100 609.238, 529.837 608.544, 529.321 607.140, 528.276 " fill="none" stroke="rgb(0, 0, 0)" stroke-linecap="butt" stroke-linejoin="round" stroke-opacity="1.0" stroke-width="3.0" />
            <path d=" M 709.157, 859.089 701.089, 864.998 700.884, 865.149 696.423, 869.840 690.924, 875.082 686.306, 877.859 682.235, 880.646 " fill="none" stroke="rgb(0, 0, 0)" stroke-linecap="butt" stroke-linejoin="round" stroke-opacity="1.0" stroke-width="3.0" />
            <path d=" M 645.427, 939.274 644.646, 940.594 640.338, 945.779 634.606, 951.159 634.653, 953.372 632.341, 957.960 630.803, 965.193 631.536, 969.478 " fill="none" stroke="rgb(0, 0, 0)" stroke-linecap="butt" stroke-linejoin="round" stroke-opacity="1.0" stroke-width="3.0" />
            <path d=" M 567.314, 421.560 567.738, 420.229 566.661, 418.516 563.326, 416.578 560.866, 415.518 554.565, 415.616 552.858, 414.091 549.219, 412.142 548.481, 411.747 545.892, 406.977 546.065, 399.895 " fill="none" stroke="rgb(0, 0, 0)" stroke-linecap="butt" stroke-linejoin="round" stroke-opacity="1.0" stroke-width="3.0" />
            <path d=" M 541.426, 355.501 543.083, 354.893 545.019, 351.828 545.090, 346.950 544.792, 344.211 544.698, 340.959 543.534, 338.685 537.692, 335.908 535.342, 336.395 533.300, 338.943 531.819, 343.662 531.726, 343.960 531.690, 344.075 " fill="none" stroke="rgb(0, 0, 0)" stroke-linecap="butt" stroke-linejoin="round" stroke-opacity="1.0" stroke-width="3.0" />
            <path d=" M 781.031, 623.229 779.159, 624.517 777.090, 626.730 772.779, 629.112 772.332, 629.184 772.112, 629.220 767.291, 630.004 766.775, 629.843 765.169, 629.341 762.448, 628.492 760.708, 627.155 756.344, 623.623 760.584, 627.152 762.448, 628.492 " fill="none" stroke="rgb(0, 0, 0)" stroke-linecap="butt" stroke-linejoin="round" stroke-opacity="1.0" stroke-width="3.0" />
            <path d=" M 722.933, 474.938 723.022, 475.839 723.027, 475.886 723.073, 476.350 723.094, 476.568 723.216, 477.808 723.225, 477.897 723.323, 478.893 723.694, 482.653 724.175, 492.030 724.496, 499.899 722.738, 502.397 722.686, 502.426 718.984, 504.483 715.410, 504.004 714.864, 503.931 714.490, 503.881 " fill="none" stroke="rgb(0, 0, 0)" stroke-linecap="butt" stroke-linejoin="round" stroke-opacity="1.0" stroke-width="3.0" />
            <path d=" M 682.003, 552.466 679.761, 550.736 677.859, 549.269 676.762, 548.685 676.731, 548.668 675.330, 547.921 673.035, 546.698 669.561, 545.789 664.721, 545.424 660.475, 544.744 657.524, 545.525 656.357, 546.843 656.781, 548.613 659.752, 553.218 660.575, 554.494 " fill="none" stroke="rgb(0, 0, 0)" stroke-linecap="butt" stroke-linejoin="round" stroke-opacity="1.0" stroke-width="3.0" />
            <path d=" M 959.178, 866.612 960.712, 864.699 962.543, 862.183 968.008, 854.848 971.092, 850.439 972.897, 846.814 973.211, 846.284 976.073, 840.011 977.785, 835.544 978.143, 834.610 " fill="none" stroke="rgb(0, 0, 0)" stroke-linecap="butt" stroke-linejoin="round" stroke-opacity="1.0" stroke-width="3.0" />
            <path d=" M 910.648, 1065.272 911.715, 1064.635 914.721, 1059.134 916.833, 1056.374 917.373, 1055.669 917.503, 1055.540 921.238, 1051.840 924.328, 1047.856 929.433, 1040.272 930.786, 1037.715 931.961, 1035.829 932.584, 1034.828 " fill="none" stroke="rgb(0, 0, 0)" stroke-linecap="butt" stroke-linejoin="round" stroke-opacity="1.0" stroke-width="3.0" />
            <path d=" M 756.390, 543.095 756.368, 543.099 755.999, 543.166 751.913, 543.910 751.866, 543.927 751.073, 544.212 749.659, 544.721 748.009, 545.314 747.798, 545.501 747.170, 546.055 747.140, 546.103 746.477, 547.203 746.374, 549.451 747.931, 552.215 751.901, 558.341 755.701, 560.812 762.299, 562.965 762.723, 563.103 762.953, 563.355 764.114, 564.621 " fill="none" stroke="rgb(0, 0, 0)" stroke-linecap="butt" stroke-linejoin="round" stroke-opacity="1.0" stroke-width="3.0" />
            <path d=" M 709.870, 904.048 707.573, 903.307 707.008, 903.125 704.193, 902.217 701.890, 902.189 700.521, 902.413 699.043, 902.655 697.581, 902.568 693.591, 902.331 684.943, 902.284 678.191, 903.977 675.016, 905.173 672.372, 906.635 " fill="none" stroke="rgb(0, 0, 0)" stroke-linecap="butt" stroke-linejoin="round" stroke-opacity="1.0" stroke-width="3.0" />
            <path d=" M 682.736, 880.552 682.235, 880.646 677.050, 881.622 671.489, 882.257 670.218, 882.610 663.580, 886.477 659.229, 891.326 656.173, 895.214 652.999, 899.153 651.999, 900.920 " fill="none" stroke="rgb(0, 0, 0)" stroke-linecap="butt" stroke-linejoin="round" stroke-opacity="1.0" stroke-width="3.0" />
            <path d=" M 940.837, 779.992 940.463, 780.670 939.859, 781.147 937.910, 782.684 937.607, 784.456 939.261, 787.362 939.438, 787.673 939.219, 787.808 934.633, 790.639 930.893, 794.644 930.143, 800.239 929.060, 805.018 928.673, 805.802 928.583, 805.984 926.924, 809.347 925.300, 811.793 " fill="none" stroke="rgb(0, 0, 0)" stroke-linecap="butt" stroke-linejoin="round" stroke-opacity="1.0" stroke-width="3.0" />
            <path d=" M 737.634, 438.592 738.477, 441.903 739.903, 444.944 740.713, 446.451 740.848, 446.702 741.982, 448.813 742.716, 450.424 745.196, 455.268 747.593, 460.421 748.465, 462.297 747.999, 463.940 747.039, 467.322 747.198, 470.326 747.840, 471.928 747.885, 472.040 748.914, 474.607 " fill="none" stroke="rgb(0, 0, 0)" stroke-linecap="butt" stroke-linejoin="round" stroke-opacity="1.0" stroke-width="3.0" />
            <path d=" M 614.773, 884.825 615.101, 885.342 617.968, 886.505 620.645, 886.493 622.143, 885.853 623.586, 881.314 622.751, 871.349 622.459, 867.866 622.310, 867.160 622.193, 866.608 622.039, 865.876 621.494, 863.297 621.202, 861.911 620.702, 859.547 619.464, 855.509 " fill="none" stroke="rgb(0, 0, 0)" stroke-linecap="butt" stroke-linejoin="round" stroke-opacity="1.0" stroke-width="3.0" />
            <path d=" M 899.904, 835.182 889.931, 835.919 884.560, 836.316 876.469, 836.300 875.278, 836.280 874.872, 836.274 873.397, 836.249 871.276, 836.213 868.399, 836.405 863.859, 837.105 860.555, 836.934 " fill="none" stroke="rgb(0, 0, 0)" stroke-linecap="butt" stroke-linejoin="round" stroke-opacity="1.0" stroke-width="3.0" />
            <path d=" M 745.650, 971.617 743.711, 977.139 741.297, 984.159 737.871, 993.554 736.493, 997.331 732.957, 1006.685 732.128, 1008.878 " fill="none" stroke="rgb(0, 0, 0)" stroke-linecap="butt" stroke-linejoin="round" stroke-opacity="1.0" stroke-width="3.0" />
            <path d=" M 486.649, 400.912 486.348, 401.895 486.114, 402.656 483.414, 412.285 483.196, 413.064 482.442, 416.188 479.699, 423.493 478.644, 429.631 479.417, 434.323 480.526, 435.528 482.497, 437.671 482.898, 438.106 " fill="none" stroke="rgb(0, 0, 0)" stroke-linecap="butt" stroke-linejoin="round" stroke-opacity="1.0" stroke-width="3.0" />
            <path d=" M 657.189, 1054.137 656.326, 1056.781 656.612, 1060.648 658.021, 1064.311 659.530, 1066.306 661.807, 1068.016 665.034, 1069.870 668.262, 1071.927 676.650, 1077.372 678.156, 1078.350 683.015, 1079.155 " fill="none" stroke="rgb(0, 0, 0)" stroke-linecap="butt" stroke-linejoin="round" stroke-opacity="1.0" stroke-width="3.0" />
            <path d=" M 579.018, 976.422 578.900, 975.090 578.370, 969.092 576.807, 966.807 575.020, 965.498 572.946, 963.694 570.174, 958.292 569.593, 955.617 569.396, 953.848 568.939, 949.736 570.193, 943.460 568.924, 941.736 568.850, 941.636 567.743, 940.133 " fill="none" stroke="rgb(0, 0, 0)" stroke-linecap="butt" stroke-linejoin="round" stroke-opacity="1.0" stroke-width="3.0" />
            <path d=" M 928.673, 805.802 929.017, 802.745 929.052, 794.916 928.071, 789.840 927.310, 787.533 925.597, 785.271 923.620, 781.549 923.461, 780.154 924.277, 776.212 926.321, 774.371 928.082, 772.567 932.215, 770.571 " fill="none" stroke="rgb(0, 0, 0)" stroke-linecap="butt" stroke-linejoin="round" stroke-opacity="1.0" stroke-width="3.0" />
            <path d=" M 844.942, 665.691 852.001, 672.037 855.195, 674.120 857.636, 676.239 862.322, 678.702 865.906, 679.674 869.559, 680.664 873.524, 683.164 878.992, 685.317 880.020, 685.721 " fill="none" stroke="rgb(0, 0, 0)" stroke-linecap="butt" stroke-linejoin="round" stroke-opacity="1.0" stroke-width="3.0" />
            <path d=" M 813.865, 988.944 813.902, 989.022 814.227, 989.706 814.404, 990.076 814.665, 990.626 814.944, 990.912 815.404, 991.383 815.431, 991.410 820.204, 996.299 829.327, 1000.520 839.071, 1002.768 842.301, 1003.513 849.881, 1006.086 " fill="none" stroke="rgb(0, 0, 0)" stroke-linecap="butt" stroke-linejoin="round" stroke-opacity="1.0" stroke-width="3.0" />
            <path d=" M 482.619, 869.535 483.630, 874.343 486.764, 878.652 488.572, 881.964 491.888, 884.254 494.640, 886.270 497.994, 889.834 501.255, 890.990 507.507, 892.623 510.517, 895.036 511.399, 895.743 " fill="none" stroke="rgb(0, 0, 0)" stroke-linecap="butt" stroke-linejoin="round" stroke-opacity="1.0" stroke-width="3.0" />
            <path d=" M 680.680, 531.253 679.238, 529.974 678.911, 529.685 678.893, 529.668 678.494, 529.314 673.520, 524.905 673.006, 524.696 670.138, 523.527 666.338, 522.912 664.378, 525.324 663.845, 526.246 664.684, 529.539 665.775, 531.927 668.178, 536.486 670.071, 538.993 673.681, 541.431 674.959, 542.294 " fill="none" stroke="rgb(0, 0, 0)" stroke-linecap="butt" stroke-linejoin="round" stroke-opacity="1.0" stroke-width="3.0" />
            <path d=" M 804.087, 669.349 806.183, 666.783 808.107, 662.838 813.412, 656.548 817.936, 653.328 822.921, 651.323 825.920, 651.288 830.173, 651.097 831.948, 651.680 836.659, 654.597 " fill="none" stroke="rgb(0, 0, 0)" stroke-linecap="butt" stroke-linejoin="round" stroke-opacity="1.0" stroke-width="3.0" />
            <path d=" M 573.478, 768.607 568.839, 762.301 568.207, 761.443 566.437, 758.273 563.148, 749.024 563.315, 742.186 562.068, 737.113 561.871, 735.649 561.510, 732.967 561.857, 729.802 " fill="none" stroke="rgb(0, 0, 0)" stroke-linecap="butt" stroke-linejoin="round" stroke-opacity="1.0" stroke-width="3.0" />
            <path d=" M 586.381, 442.267 588.886, 441.294 589.592, 440.582 587.995, 436.638 586.039, 435.257 580.738, 432.852 574.223, 430.197 570.594, 429.375 565.996, 429.556 563.132, 428.097 562.761, 427.908 559.857, 425.779 558.381, 424.732 558.087, 424.523 557.130, 423.844 " fill="none" stroke="rgb(0, 0, 0)" stroke-linecap="butt" stroke-linejoin="round" stroke-opacity="1.0" stroke-width="3.0" />
            <path d=" M 758.853, 500.921 758.436, 500.335 758.421, 500.315 758.044, 499.784 758.042, 499.782 756.978, 498.288 756.856, 498.118 756.843, 498.110 756.565, 497.954 753.812, 496.408 752.913, 496.315 752.893, 496.313 751.989, 496.220 746.267, 495.034 743.792, 494.736 743.048, 494.951 742.850, 495.008 742.846, 495.009 742.145, 495.212 741.939, 495.271 741.350, 495.441 741.053, 495.527 741.125, 498.696 744.092, 502.730 744.396, 503.143 746.407, 506.378 746.769, 506.960 746.984, 507.305 750.366, 513.584 751.096, 514.952 " fill="none" stroke="rgb(0, 0, 0)" stroke-linecap="butt" stroke-linejoin="round" stroke-opacity="1.0" stroke-width="3.0" />
            <path d=" M 610.879, 933.205 613.527, 932.177 617.963, 930.453 621.616, 927.780 622.498, 926.823 622.633, 926.677 623.629, 925.597 624.427, 924.361 624.471, 924.294 625.270, 923.056 625.301, 923.009 625.358, 922.920 625.368, 922.906 626.476, 921.190 627.110, 919.252 626.830, 914.742 625.965, 912.558 623.805, 908.575 621.748, 905.501 617.927, 902.605 " fill="none" stroke="rgb(0, 0, 0)" stroke-linecap="butt" stroke-linejoin="round" stroke-opacity="1.0" stroke-width="3.0" />
            <path d=" M 561.871, 735.649 563.795, 733.905 570.450, 731.208 571.687, 729.999 573.688, 727.992 573.475, 724.726 571.665, 721.747 572.071, 719.995 575.956, 713.591 575.840, 709.513 573.758, 708.250 569.602, 708.024 567.764, 708.018 " fill="none" stroke="rgb(0, 0, 0)" stroke-linecap="butt" stroke-linejoin="round" stroke-opacity="1.0" stroke-width="3.0" />
            <path d=" M 463.782, 728.167 464.324, 731.162 466.048, 740.674 467.650, 750.545 467.912, 752.162 470.200, 760.518 471.942, 770.365 471.993, 770.658 " fill="none" stroke="rgb(0, 0, 0)" stroke-linecap="butt" stroke-linejoin="round" stroke-opacity="1.0" stroke-width="3.0" />
            <path d=" M 583.512, 838.217 582.711, 833.277 582.229, 826.922 582.262, 822.174 582.263, 821.894 582.286, 818.588 582.289, 818.175 582.422, 816.827 582.712, 813.890 581.798, 804.679 581.798, 804.679 581.440, 801.080 581.418, 796.366 581.409, 794.580 " fill="none" stroke="rgb(0, 0, 0)" stroke-linecap="butt" stroke-linejoin="round" stroke-opacity="1.0" stroke-width="3.0" />
            <path d=" M 817.583, 1148.842 819.040, 1148.734 822.039, 1148.511 826.825, 1146.442 831.765, 1143.804 837.949, 1139.887 844.380, 1134.221 849.559, 1128.911 854.070, 1126.181 " fill="none" stroke="rgb(0, 0, 0)" stroke-linecap="butt" stroke-linejoin="round" stroke-opacity="1.0" stroke-width="3.0" />
            <path d=" M 577.909, 364.750 576.370, 361.987 573.314, 358.498 566.915, 355.549 560.181, 353.416 555.588, 352.892 547.951, 353.475 547.447, 353.514 541.426, 355.501 541.344, 355.527 540.518, 355.800 538.618, 356.427 " fill="none" stroke="rgb(0, 0, 0)" stroke-linecap="butt" stroke-linejoin="round" stroke-opacity="1.0" stroke-width="3.0" />
            <path d=" M 724.752, 1073.407 722.871, 1068.554 722.019, 1063.537 721.901, 1062.841 721.827, 1062.407 721.820, 1062.368 721.784, 1062.152 721.591, 1061.017 721.535, 1060.688 722.021, 1059.631 722.366, 1058.881 722.688, 1058.180 722.716, 1058.119 722.719, 1058.113 723.913, 1055.514 726.080, 1050.945 727.104, 1047.938 727.700, 1046.843 727.811, 1046.639 727.837, 1046.591 728.242, 1045.848 729.733, 1043.110 734.334, 1038.602 739.385, 1039.544 " fill="none" stroke="rgb(0, 0, 0)" stroke-linecap="butt" stroke-linejoin="round" stroke-opacity="1.0" stroke-width="3.0" />
            <path d=" M 583.099, 776.401 582.428, 775.278 581.240, 773.425 584.946, 777.821 586.863, 781.761 587.740, 784.157 588.607, 786.748 590.066, 790.240 591.621, 792.829 593.469, 796.271 594.375, 798.820 596.195, 801.514 597.243, 803.423 598.434, 805.528 599.576, 808.209 600.136, 809.523 " fill="none" stroke="rgb(0, 0, 0)" stroke-linecap="butt" stroke-linejoin="round" stroke-opacity="1.0" stroke-width="3.0" />
            <path d=" M 977.785, 835.544 978.944, 834.069 981.161, 826.264 983.254, 816.405 984.469, 810.801 984.478, 808.468 984.502, 801.959 984.503, 801.719 984.509, 800.147 984.676, 803.859 984.478, 808.468 " fill="none" stroke="rgb(0, 0, 0)" stroke-linecap="butt" stroke-linejoin="round" stroke-opacity="1.0" stroke-width="3.0" />
            <path d=" M 571.999, 953.689 578.085, 956.132 579.535, 956.715 581.006, 957.086 583.793, 956.146 589.002, 952.823 595.711, 947.143 601.535, 940.989 603.925, 938.899 608.451, 934.941 " fill="none" stroke="rgb(0, 0, 0)" stroke-linecap="butt" stroke-linejoin="round" stroke-opacity="1.0" stroke-width="3.0" />
            <path d=" M 735.092, 1014.255 728.600, 1021.862 725.483, 1025.515 723.206, 1029.693 718.516, 1037.424 711.980, 1044.269 707.844, 1051.213 707.464, 1051.852 " fill="none" stroke="rgb(0, 0, 0)" stroke-linecap="butt" stroke-linejoin="round" stroke-opacity="1.0" stroke-width="3.0" />
            <path d=" M 666.533, 649.679 666.584, 649.638 667.006, 648.494 668.103, 645.517 668.019, 639.044 665.951, 635.729 665.570, 635.193 662.183, 630.432 660.065, 625.288 657.601, 619.307 654.782, 616.454 647.537, 614.345 647.496, 613.680 647.447, 612.878 647.416, 612.367 " fill="none" stroke="rgb(0, 0, 0)" stroke-linecap="butt" stroke-linejoin="round" stroke-opacity="1.0" stroke-width="3.0" />
            <path d=" M 522.712, 924.741 522.747, 926.854 523.219, 930.976 525.074, 937.279 529.127, 946.421 529.192, 946.569 530.600, 949.710 533.760, 955.262 536.212, 959.375 539.146, 963.171 540.350, 965.580 541.531, 967.100 " fill="none" stroke="rgb(0, 0, 0)" stroke-linecap="butt" stroke-linejoin="round" stroke-opacity="1.0" stroke-width="3.0" />
            <path d=" M 594.239, 478.272 596.347, 477.208 600.611, 477.143 603.245, 476.377 604.377, 475.294 604.013, 473.188 601.980, 470.737 598.341, 466.851 594.158, 463.726 591.770, 461.650 586.250, 458.595 580.542, 457.008 577.281, 456.709 574.508, 456.165 " fill="none" stroke="rgb(0, 0, 0)" stroke-linecap="butt" stroke-linejoin="round" stroke-opacity="1.0" stroke-width="3.0" />
            <path d=" M 779.728, 698.753 780.168, 699.796 781.997, 701.521 784.369, 701.112 786.724, 696.873 786.778, 696.775 788.167, 696.086 789.585, 695.382 790.327, 694.907 794.861, 689.997 797.461, 686.949 797.694, 686.540 800.476, 681.651 802.908, 675.449 803.681, 670.965 804.087, 669.349 805.158, 665.088 " fill="none" stroke="rgb(0, 0, 0)" stroke-linecap="butt" stroke-linejoin="round" stroke-opacity="1.0" stroke-width="3.0" />
            <path d=" M 668.695, 909.938 670.719, 908.119 672.372, 906.635 670.721, 908.119 668.713, 909.925 668.695, 909.938 666.167, 911.828 660.460, 916.091 655.747, 921.446 651.436, 929.078 650.560, 930.630 649.891, 932.086 649.798, 932.289 647.900, 936.425 645.781, 940.833 " fill="none" stroke="rgb(0, 0, 0)" stroke-linecap="butt" stroke-linejoin="round" stroke-opacity="1.0" stroke-width="3.0" />
            <path d=" M 531.760, 344.022 531.690, 344.075 528.520, 346.495 527.577, 346.931 527.480, 346.906 524.749, 346.186 520.556, 346.128 519.985, 345.967 518.949, 345.674 518.909, 345.662 518.138, 345.445 517.037, 345.133 513.060, 345.340 512.699, 345.430 508.104, 346.579 507.291, 347.005 502.844, 349.331 502.436, 349.635 501.983, 349.972 501.558, 350.288 500.544, 351.042 499.448, 352.791 498.417, 354.435 495.729, 356.802 494.388, 359.995 494.201, 360.895 493.465, 364.451 " fill="none" stroke="rgb(0, 0, 0)" stroke-linecap="butt" stroke-linejoin="round" stroke-opacity="1.0" stroke-width="3.0" />
            <path d=" M 647.447, 612.878 647.821, 612.562 649.424, 611.208 651.604, 607.000 651.743, 605.639 651.863, 604.474 651.752, 603.751 651.597, 602.742 650.593, 600.848 649.638, 599.253 648.273, 596.973 646.817, 594.541 645.496, 590.122 645.345, 580.506 641.441, 576.246 638.320, 575.006 633.363, 573.627 632.524, 573.394 632.340, 573.342 " fill="none" stroke="rgb(0, 0, 0)" stroke-linecap="butt" stroke-linejoin="round" stroke-opacity="1.0" stroke-width="3.0" />
            <path d=" M 896.568, 695.987 897.917, 697.100 905.628, 703.468 907.028, 704.624 913.755, 711.627 920.193, 717.898 920.739, 718.430 921.704, 719.875 925.627, 725.747 928.851, 731.816 929.620, 733.772 " fill="none" stroke="rgb(0, 0, 0)" stroke-linecap="butt" stroke-linejoin="round" stroke-opacity="1.0" stroke-width="3.0" />
            <path d=" M 540.522, 965.372 541.531, 967.100 543.872, 971.106 547.251, 975.490 549.982, 978.450 553.660, 981.986 559.215, 983.292 564.920, 982.961 571.071, 981.974 574.785, 980.724 578.987, 978.381 579.262, 978.023 579.880, 976.797 578.900, 975.090 " fill="none" stroke="rgb(0, 0, 0)" stroke-linecap="butt" stroke-linejoin="round" stroke-opacity="1.0" stroke-width="3.0" />
            <path d=" M 820.926, 1054.276 823.107, 1053.067 825.085, 1051.971 829.829, 1048.669 837.239, 1042.880 837.594, 1042.562 838.040, 1042.162 844.159, 1036.677 848.491, 1030.609 848.039, 1028.435 846.817, 1024.697 844.627, 1022.749 842.665, 1021.378 842.198, 1021.051 842.171, 1021.032 841.770, 1020.752 840.453, 1019.831 840.013, 1019.523 839.713, 1019.314 " fill="none" stroke="rgb(0, 0, 0)" stroke-linecap="butt" stroke-linejoin="round" stroke-opacity="1.0" stroke-width="3.0" />
            <path d=" M 540.083, 588.727 540.728, 590.554 544.059, 599.983 545.119, 602.985 547.165, 608.177 549.962, 617.777 550.303, 618.948 554.283, 628.122 554.353, 628.284 555.921, 631.667 559.297, 638.144 559.312, 638.173 " fill="none" stroke="rgb(0, 0, 0)" stroke-linecap="butt" stroke-linejoin="round" stroke-opacity="1.0" stroke-width="3.0" />
            <path d=" M 619.782, 857.070 619.464, 855.509 618.709, 851.801 616.453, 845.121 614.227, 835.900 612.968, 832.783 611.886, 830.587 610.034, 827.562 609.612, 826.126 609.024, 824.570 608.295, 823.664 606.877, 820.070 605.029, 816.740 602.576, 813.100 600.791, 809.427 599.576, 808.209 " fill="none" stroke="rgb(0, 0, 0)" stroke-linecap="butt" stroke-linejoin="round" stroke-opacity="1.0" stroke-width="3.0" />
            <path d=" M 620.684, 567.801 620.792, 563.122 619.245, 557.511 619.203, 557.361 618.434, 554.568 618.403, 554.456 618.294, 554.135 617.263, 551.099 616.124, 549.822 614.664, 548.188 613.244, 546.598 612.029, 543.817 611.287, 542.120 611.180, 541.876 611.069, 541.623 610.085, 539.371 609.449, 537.917 608.348, 535.679 605.971, 531.306 605.963, 531.290 605.946, 531.259 605.776, 530.946 605.706, 530.818 605.091, 529.686 601.961, 526.384 599.050, 521.411 598.053, 519.706 598.039, 519.683 598.004, 519.622 " fill="none" stroke="rgb(0, 0, 0)" stroke-linecap="butt" stroke-linejoin="round" stroke-opacity="1.0" stroke-width="3.0" />
            <path d=" M 895.626, 943.931 894.660, 943.187 891.262, 940.570 887.071, 935.842 883.596, 930.381 880.289, 925.125 879.947, 924.274 879.142, 922.271 878.480, 920.625 878.371, 920.355 878.235, 920.017 878.154, 919.814 876.657, 911.897 876.533, 911.658 873.043, 904.943 872.447, 903.796 872.418, 903.739 872.221, 903.361 871.154, 902.677 870.917, 902.525 869.003, 901.298 868.044, 900.894 867.618, 900.714 867.021, 900.463 866.346, 900.178 865.126, 899.664 " fill="none" stroke="rgb(0, 0, 0)" stroke-linecap="butt" stroke-linejoin="round" stroke-opacity="1.0" stroke-width="3.0" />
            <path d=" M 714.988, 1090.764 715.441, 1091.303 717.552, 1093.814 719.889, 1095.261 722.935, 1097.820 725.719, 1100.180 730.298, 1104.055 734.640, 1106.352 738.241, 1108.381 740.139, 1109.661 742.787, 1111.780 746.752, 1114.547 751.532, 1117.587 755.331, 1119.819 758.067, 1122.292 760.574, 1124.067 761.092, 1124.434 " fill="none" stroke="rgb(0, 0, 0)" stroke-linecap="butt" stroke-linejoin="round" stroke-opacity="1.0" stroke-width="3.0" />
            <path d=" M 707.844, 1051.213 706.761, 1052.242 702.676, 1056.687 700.407, 1063.030 699.521, 1066.531 699.276, 1067.500 699.394, 1069.598 699.517, 1071.763 699.525, 1071.914 699.539, 1072.160 699.598, 1073.210 700.157, 1076.734 702.277, 1080.623 708.487, 1086.001 713.125, 1087.361 718.292, 1087.743 721.898, 1087.065 723.396, 1086.426 726.655, 1085.036 " fill="none" stroke="rgb(0, 0, 0)" stroke-linecap="butt" stroke-linejoin="round" stroke-opacity="1.0" stroke-width="3.0" />
            <path d=" M 830.007, 584.917 826.826, 580.241 822.967, 572.323 822.540, 571.886 821.070, 570.377 815.003, 564.172 814.167, 563.495 814.052, 563.402 812.319, 561.999 807.820, 559.174 803.675, 557.113 800.161, 552.592 795.418, 546.400 791.538, 543.441 789.176, 542.199 788.431, 541.808 " fill="none" stroke="rgb(0, 0, 0)" stroke-linecap="butt" stroke-linejoin="round" stroke-opacity="1.0" stroke-width="3.0" />
            <path d=" M 926.090, 811.285 925.300, 811.793 920.000, 815.198 916.356, 816.893 916.308, 816.916 910.451, 819.640 903.508, 818.644 901.683, 818.382 899.771, 818.108 894.646, 816.610 888.396, 816.435 880.618, 815.592 873.937, 814.487 865.615, 813.129 864.311, 813.063 " fill="none" stroke="rgb(0, 0, 0)" stroke-linecap="butt" stroke-linejoin="round" stroke-opacity="1.0" stroke-width="3.0" />
            <path d=" M 477.699, 389.171 474.886, 394.683 473.207, 397.974 470.497, 403.782 469.329, 405.901 466.951, 412.188 465.154, 417.860 463.694, 422.528 461.858, 430.140 459.365, 439.825 458.941, 441.471 457.102, 449.997 " fill="none" stroke="rgb(0, 0, 0)" stroke-linecap="butt" stroke-linejoin="round" stroke-opacity="1.0" stroke-width="3.0" />
            <path d=" M 742.798, 1086.366 744.700, 1088.721 745.894, 1090.200 747.643, 1092.520 751.902, 1095.438 753.612, 1096.313 762.553, 1098.245 765.788, 1098.191 773.681, 1097.417 773.698, 1097.415 775.883, 1097.201 778.808, 1096.189 783.373, 1094.611 786.207, 1094.188 786.406, 1094.158 788.104, 1093.905 789.157, 1094.171 797.587, 1096.299 797.832, 1096.360 798.978, 1096.599 803.452, 1097.532 " fill="none" stroke="rgb(0, 0, 0)" stroke-linecap="butt" stroke-linejoin="round" stroke-opacity="1.0" stroke-width="3.0" />
            <path d=" M 631.996, 967.475 631.536, 969.478 630.632, 973.419 630.502, 975.460 629.076, 979.539 628.195, 985.321 627.929, 987.067 628.027, 990.603 626.973, 993.772 625.812, 996.623 626.277, 1004.011 626.731, 1008.119 628.972, 1014.941 630.286, 1018.560 632.848, 1022.670 635.139, 1025.145 639.029, 1029.606 " fill="none" stroke="rgb(0, 0, 0)" stroke-linecap="butt" stroke-linejoin="round" stroke-opacity="1.0" stroke-width="3.0" />
            <path d=" M 698.978, 451.663 697.121, 455.232 696.520, 456.386 696.007, 457.373 694.859, 458.219 694.200, 458.705 693.675, 458.762 690.326, 457.124 684.512, 454.273 680.421, 454.586 677.650, 455.888 676.893, 459.034 678.508, 461.541 681.348, 464.960 684.338, 467.848 686.661, 470.273 688.779, 471.517 692.621, 473.705 694.375, 477.155 695.659, 480.849 697.620, 484.065 698.265, 488.133 " fill="none" stroke="rgb(0, 0, 0)" stroke-linecap="butt" stroke-linejoin="round" stroke-opacity="1.0" stroke-width="3.0" />
            <path d=" M 475.278, 806.760 474.728, 808.678 474.699, 808.776 474.688, 808.817 471.964, 818.317 472.469, 822.465 472.541, 823.061 472.291, 825.720 472.214, 826.535 473.361, 830.068 473.607, 830.828 473.484, 831.379 472.560, 835.520 473.035, 845.509 473.061, 846.049 474.621, 854.380 475.029, 858.296 478.086, 861.331 478.977, 862.205 480.075, 866.781 482.619, 869.535 483.479, 870.467 " fill="none" stroke="rgb(0, 0, 0)" stroke-linecap="butt" stroke-linejoin="round" stroke-opacity="1.0" stroke-width="3.0" />
            <path d=" M 760.574, 1124.067 763.444, 1126.995 765.502, 1129.914 766.177, 1131.475 770.243, 1137.318 771.877, 1138.564 775.333, 1140.899 777.820, 1142.224 779.864, 1143.900 782.548, 1144.887 786.910, 1146.558 788.787, 1146.805 794.044, 1147.176 798.971, 1148.196 801.492, 1148.783 808.274, 1150.141 810.930, 1150.646 813.454, 1150.557 815.824, 1150.393 819.040, 1148.734 " fill="none" stroke="rgb(0, 0, 0)" stroke-linecap="butt" stroke-linejoin="round" stroke-opacity="1.0" stroke-width="3.0" />
            <path d=" M 552.648, 713.032 550.798, 709.603 550.646, 709.321 550.628, 709.287 550.545, 709.134 550.004, 708.132 549.457, 707.119 548.924, 706.131 548.822, 705.993 548.173, 705.120 546.504, 703.228 543.599, 699.552 542.569, 694.623 541.352, 688.186 540.224, 682.274 539.331, 678.387 538.350, 677.501 537.069, 675.345 535.289, 668.578 535.089, 667.882 534.703, 666.545 534.066, 664.546 533.713, 663.439 531.945, 655.536 531.313, 652.542 530.999, 648.231 " fill="none" stroke="rgb(0, 0, 0)" stroke-linecap="butt" stroke-linejoin="round" stroke-opacity="1.0" stroke-width="3.0" />
            <path d=" M 764.236, 897.165 764.120, 899.315 763.841, 904.536 763.814, 911.272 764.270, 917.924 764.200, 923.907 765.428, 929.795 766.672, 939.717 767.354, 945.153 769.435, 949.797 773.237, 954.683 775.026, 957.794 777.425, 959.248 780.944, 962.093 " fill="none" stroke="rgb(0, 0, 0)" stroke-linecap="butt" stroke-linejoin="round" stroke-opacity="1.0" stroke-width="3.0" />
            <path d=" M 743.123, 782.011 736.765, 775.396 736.131, 774.736 729.598, 767.165 728.734, 766.164 725.795, 762.176 723.084, 757.447 719.648, 753.226 716.778, 750.070 715.070, 746.045 712.594, 743.647 712.253, 743.317 711.849, 742.810 710.730, 741.405 705.555, 734.908 700.204, 727.082 699.878, 726.605 " fill="none" stroke="rgb(0, 0, 0)" stroke-linecap="butt" stroke-linejoin="round" stroke-opacity="1.0" stroke-width="3.0" />
            <path d=" M 648.300, 922.895 645.671, 921.956 645.010, 921.721 643.136, 921.052 637.714, 920.533 636.809, 920.446 636.140, 920.382 631.897, 921.591 630.188, 922.388 626.460, 924.127 626.113, 924.289 626.034, 924.326 625.771, 924.449 625.595, 924.531 625.528, 924.591 625.439, 924.671 623.950, 926.014 623.598, 926.351 623.352, 926.585 618.419, 931.298 615.057, 934.833 612.323, 939.283 610.555, 941.379 608.910, 943.267 608.042, 946.456 607.557, 949.642 607.395, 950.639 606.915, 953.592 606.699, 955.442 608.771, 958.998 610.463, 961.365 610.781, 961.809 610.861, 961.921 611.360, 962.619 611.373, 962.636 611.553, 962.888 611.796, 963.228 " fill="none" stroke="rgb(0, 0, 0)" stroke-linecap="butt" stroke-linejoin="round" stroke-opacity="1.0" stroke-width="3.0" />
            <path d=" M 763.570, 457.285 763.348, 456.847 762.585, 455.339 762.005, 454.298 758.107, 447.299 752.164, 439.516 748.239, 435.301 746.946, 433.912 743.740, 430.899 741.628, 428.963 740.193, 428.224 737.856, 426.204 737.740, 426.104 737.170, 425.612 736.350, 424.903 736.340, 424.894 735.335, 424.026 735.208, 423.934 734.753, 423.602 731.128, 420.962 728.644, 420.252 727.794, 421.552 730.484, 426.690 731.109, 427.396 732.049, 428.458 732.418, 428.875 733.249, 429.815 734.196, 432.529 734.199, 432.535 735.882, 435.478 735.889, 435.491 736.005, 435.693 737.459, 438.237 " fill="none" stroke="rgb(0, 0, 0)" stroke-linecap="butt" stroke-linejoin="round" stroke-opacity="1.0" stroke-width="3.0" />
            <path d=" M 650.560, 930.630 650.128, 931.893 650.057, 932.102 649.268, 934.409 648.907, 935.466 646.084, 941.805 644.064, 946.342 643.535, 947.530 642.628, 949.389 641.284, 952.146 640.781, 953.179 640.666, 953.414 640.581, 953.589 640.233, 954.816 640.093, 955.307 638.860, 959.654 636.998, 969.028 636.500, 974.641 636.166, 978.412 634.881, 988.330 634.708, 989.665 634.702, 990.550 634.686, 992.889 634.657, 997.053 634.620, 1002.383 " fill="none" stroke="rgb(0, 0, 0)" stroke-linecap="butt" stroke-linejoin="round" stroke-opacity="1.0" stroke-width="3.0" />
            <path d=" M 782.234, 621.688 782.178, 621.774 781.485, 622.834 781.387, 622.984 781.275, 623.155 778.753, 627.016 776.824, 628.994 771.653, 634.913 768.813, 638.149 766.103, 641.123 762.406, 646.956 761.388, 653.709 763.725, 658.355 767.257, 660.751 769.025, 661.306 775.078, 662.757 777.398, 662.900 783.631, 660.032 783.883, 659.891 790.813, 653.854 790.997, 653.748 791.243, 653.608 " fill="none" stroke="rgb(0, 0, 0)" stroke-linecap="butt" stroke-linejoin="round" stroke-opacity="1.0" stroke-width="3.0" />
            <path d=" M 758.805, 1028.242 759.851, 1029.301 760.290, 1029.747 762.443, 1031.929 763.053, 1032.546 765.413, 1036.137 769.381, 1040.608 771.418, 1042.596 773.411, 1044.470 776.941, 1047.912 779.993, 1050.044 783.834, 1055.190 787.171, 1059.859 794.780, 1061.848 803.980, 1059.660 810.322, 1058.283 811.763, 1057.970 812.818, 1057.849 814.647, 1057.639 814.666, 1057.637 814.913, 1057.608 815.496, 1057.315 819.629, 1055.236 820.926, 1054.276 824.526, 1051.610 " fill="none" stroke="rgb(0, 0, 0)" stroke-linecap="butt" stroke-linejoin="round" stroke-opacity="1.0" stroke-width="3.0" />
            <path d=" M 588.762, 772.017 589.007, 775.113 589.478, 781.055 591.004, 788.071 593.346, 795.109 596.324, 801.520 601.510, 806.791 605.539, 811.357 612.119, 815.431 615.401, 818.319 620.579, 822.249 626.322, 827.383 627.756, 828.590 627.788, 828.617 628.978, 829.618 629.526, 829.779 629.647, 829.815 632.164, 830.555 632.180, 830.560 633.228, 830.868 640.845, 835.159 645.602, 837.788 645.993, 838.005 " fill="none" stroke="rgb(0, 0, 0)" stroke-linecap="butt" stroke-linejoin="round" stroke-opacity="1.0" stroke-width="3.0" />
            <path d=" M 689.734, 499.489 689.681, 499.453 689.435, 499.281 688.789, 498.832 688.765, 498.815 688.162, 498.396 688.101, 498.353 688.078, 498.338 687.403, 497.868 682.804, 493.304 682.314, 492.871 676.734, 488.465 672.594, 485.310 666.630, 482.220 663.634, 480.778 660.062, 479.419 654.169, 477.950 648.606, 475.805 642.080, 474.014 638.043, 474.069 636.493, 474.806 636.120, 477.122 637.763, 479.808 638.281, 480.610 643.540, 484.764 648.622, 489.709 653.243, 494.272 656.323, 497.277 657.394, 498.322 " fill="none" stroke="rgb(0, 0, 0)" stroke-linecap="butt" stroke-linejoin="round" stroke-opacity="1.0" stroke-width="3.0" />
            <path d=" M 879.030, 1126.728 881.166, 1127.166 883.480, 1127.640 889.879, 1128.390 892.288, 1127.869 894.582, 1128.220 897.312, 1128.167 899.147, 1128.006 901.662, 1128.030 903.257, 1127.822 905.626, 1127.339 908.013, 1125.534 908.699, 1124.709 910.141, 1121.989 910.102, 1119.048 910.177, 1115.588 910.647, 1114.672 911.296, 1111.403 911.198, 1108.484 912.113, 1101.882 911.904, 1096.836 911.435, 1092.030 911.247, 1083.563 911.383, 1077.872 910.516, 1069.409 910.648, 1065.272 910.666, 1064.713 910.281, 1061.937 " fill="none" stroke="rgb(0, 0, 0)" stroke-linecap="butt" stroke-linejoin="round" stroke-opacity="1.0" stroke-width="3.0" />
            <path d=" M 453.553, 632.955 453.761, 638.892 454.112, 648.885 454.188, 651.049 454.970, 655.879 455.548, 661.762 456.463, 671.720 456.703, 674.341 457.821, 681.620 458.717, 691.579 458.933, 693.984 459.967, 703.931 460.624, 710.255 461.755, 720.191 462.090, 723.136 463.421, 727.095 463.782, 728.167 464.042, 728.939 464.273, 729.626 " fill="none" stroke="rgb(0, 0, 0)" stroke-linecap="butt" stroke-linejoin="round" stroke-opacity="1.0" stroke-width="3.0" />
            <path d=" M 767.777, 898.337 768.573, 898.839 774.280, 901.294 777.938, 902.215 780.908, 902.962 786.427, 904.069 792.845, 904.249 798.259, 902.359 798.614, 901.953 800.780, 899.484 801.848, 898.266 802.649, 894.572 800.431, 888.084 796.930, 881.640 793.484, 876.593 791.691, 873.967 791.313, 873.413 790.209, 871.148 787.091, 864.136 786.885, 863.671 785.678, 860.957 783.451, 854.540 783.097, 849.081 784.927, 845.242 784.933, 845.230 784.957, 845.179 785.050, 844.984 785.224, 844.618 785.323, 844.462 785.587, 844.043 785.962, 843.449 787.714, 840.676 " fill="none" stroke="rgb(0, 0, 0)" stroke-linecap="butt" stroke-linejoin="round" stroke-opacity="1.0" stroke-width="3.0" />
            <path d=" M 795.047, 707.595 793.591, 706.956 789.513, 705.164 786.665, 704.674 782.557, 703.964 780.103, 703.761 779.930, 703.747 779.858, 703.741 777.918, 703.581 775.402, 703.120 770.894, 702.939 769.893, 702.899 769.213, 702.872 768.658, 702.850 759.189, 701.945 756.408, 701.585 751.394, 701.132 744.501, 700.990 734.767, 698.699 732.432, 698.149 724.329, 694.880 720.221, 693.065 715.299, 690.899 715.255, 690.880 713.408, 689.629 706.759, 685.128 699.164, 680.034 697.679, 678.985 " fill="none" stroke="rgb(0, 0, 0)" stroke-linecap="butt" stroke-linejoin="round" stroke-opacity="1.0" stroke-width="3.0" />
            <path d=" M 934.453, 756.959 932.918, 755.148 931.351, 753.669 927.813, 749.713 923.076, 746.193 920.776, 745.342 913.922, 742.008 906.747, 735.754 900.019, 729.039 893.986, 721.185 890.881, 717.021 887.437, 712.714 882.388, 705.857 880.895, 703.920 877.261, 699.470 872.195, 691.983 869.683, 686.983 868.791, 685.853 865.962, 679.937 865.906, 679.674 " fill="none" stroke="rgb(0, 0, 0)" stroke-linecap="butt" stroke-linejoin="round" stroke-opacity="1.0" stroke-width="3.0" />
            <path d=" M 984.509, 800.147 983.487, 790.873 981.491, 782.832 978.560, 773.271 977.493, 769.793 975.187, 764.906 972.813, 760.115 969.005, 754.037 962.964, 746.067 960.420, 742.711 959.404, 741.413 956.094, 734.834 953.738, 728.470 951.679, 724.490 948.275, 717.054 944.701, 709.989 944.068, 708.630 942.424, 705.099 " fill="none" stroke="rgb(0, 0, 0)" stroke-linecap="butt" stroke-linejoin="round" stroke-opacity="1.0" stroke-width="3.0" />
            <path d=" M 528.341, 639.550 527.360, 634.949 525.144, 629.782 523.549, 623.339 521.954, 619.567 521.931, 614.568 519.835, 604.790 519.697, 604.147 518.996, 594.410 517.296, 585.955 516.356, 583.219 515.099, 579.344 514.906, 578.748 514.902, 578.737 514.651, 577.962 514.283, 576.828 513.006, 569.303 512.963, 569.049 512.046, 563.645 511.872, 562.623 511.842, 561.805 511.681, 557.456 510.823, 550.256 509.140, 543.153 508.659, 541.122 507.990, 534.609 507.831, 533.054 507.751, 532.278 " fill="none" stroke="rgb(0, 0, 0)" stroke-linecap="butt" stroke-linejoin="round" stroke-opacity="1.0" stroke-width="3.0" />
            <path d=" M 811.148, 556.355 809.372, 551.642 807.712, 545.398 805.567, 535.630 805.213, 534.015 804.877, 532.485 803.180, 525.452 800.583, 518.492 796.356, 509.429 795.788, 508.211 792.210, 500.063 789.754, 494.795 786.324, 488.464 783.300, 484.068 777.643, 475.822 776.701, 474.448 773.764, 469.800 769.415, 460.778 768.068, 459.272 766.785, 457.960 764.245, 457.137 763.348, 456.847 " fill="none" stroke="rgb(0, 0, 0)" stroke-linecap="butt" stroke-linejoin="round" stroke-opacity="1.0" stroke-width="3.0" />
            <path d=" M 645.602, 837.788 650.668, 843.235 655.993, 845.976 659.416, 846.885 662.657, 848.068 668.076, 848.814 671.156, 848.521 672.336, 848.540 675.190, 848.586 679.918, 850.472 681.640, 850.695 685.524, 853.488 687.487, 854.955 690.687, 855.257 695.536, 852.359 699.279, 848.757 703.041, 847.231 710.322, 848.332 710.821, 848.685 710.925, 848.759 711.279, 849.009 717.170, 853.176 717.572, 853.676 717.600, 853.712 717.741, 853.887 717.977, 854.181 718.035, 854.253 718.311, 854.597 723.695, 861.299 729.873, 866.692 734.233, 871.551 739.512, 875.821 748.343, 880.512 750.104, 881.447 750.174, 881.484 750.438, 881.624 " fill="none" stroke="rgb(0, 0, 0)" stroke-linecap="butt" stroke-linejoin="round" stroke-opacity="1.0" stroke-width="3.0" />
            <path d=" M 863.075, 785.918 867.173, 788.008 871.177, 787.130 873.226, 783.915 873.901, 776.845 871.536, 767.232 867.690, 760.349 861.905, 754.005 857.795, 749.140 851.602, 743.419 844.356, 736.527 842.703, 734.955 839.250, 732.132 834.995, 728.972 826.709, 723.372 824.881, 722.136 819.848, 719.183 814.667, 715.769 811.536, 713.817 806.110, 711.215 801.722, 709.349 797.677, 708.081 793.591, 706.956 " fill="none" stroke="rgb(0, 0, 0)" stroke-linecap="butt" stroke-linejoin="round" stroke-opacity="1.0" stroke-width="3.0" />
            <path d=" M 935.241, 677.159 933.199, 671.460 931.997, 668.626 931.115, 667.064 928.376, 662.257 925.655, 657.785 923.029, 653.874 920.791, 650.492 917.299, 646.746 915.861, 644.189 911.712, 638.987 906.897, 634.294 905.011, 632.121 897.958, 625.344 891.397, 619.816 885.229, 616.311 876.447, 612.089 867.188, 608.312 862.993, 606.600 858.169, 604.681 853.242, 602.916 849.814, 602.148 845.151, 598.715 838.745, 594.559 837.250, 593.589 " fill="none" stroke="rgb(0, 0, 0)" stroke-linecap="butt" stroke-linejoin="round" stroke-opacity="1.0" stroke-width="3.0" />
            <path d=" M 488.299, 434.841 488.682, 436.622 488.909, 437.678 488.920, 437.731 491.773, 441.085 491.806, 442.077 491.906, 445.064 491.926, 445.674 493.825, 449.137 493.914, 449.703 493.984, 450.157 494.103, 450.918 494.470, 453.264 494.689, 454.671 494.848, 455.687 496.023, 462.251 499.454, 471.644 500.804, 475.340 503.713, 481.688 505.219, 484.975 505.492, 486.697 506.119, 490.649 507.358, 495.148 507.578, 495.945 507.619, 496.097 507.620, 496.098 508.526, 499.389 508.631, 499.770 508.666, 499.854 509.741, 502.443 512.447, 509.169 514.434, 516.124 514.942, 518.450 515.039, 518.896 515.043, 518.911 516.296, 524.650 517.285, 528.871 517.332, 529.070 517.788, 531.018 518.642, 534.659 520.797, 541.657 521.859, 547.793 525.459, 557.123 526.244, 559.157 526.686, 559.923 526.699, 559.947 526.709, 559.964 526.840, 560.191 528.752, 563.508 531.525, 566.136 532.271, 566.895 " fill="none" stroke="rgb(0, 0, 0)" stroke-linecap="butt" stroke-linejoin="round" stroke-opacity="1.0" stroke-width="3.0" />
            <path d=" M 559.297, 638.144 559.584, 640.912 560.444, 644.268 561.608, 648.620 564.473, 654.485 568.070, 663.816 568.686, 665.414 571.913, 674.879 575.141, 684.344 576.064, 687.051 578.725, 696.103 578.836, 699.891 580.932, 708.389 583.896, 717.940 584.537, 720.006 586.071, 726.500 587.251, 736.430 587.474, 738.305 587.014, 748.113 587.115, 757.517 587.061, 764.897 588.932, 774.720 589.007, 775.113 " fill="none" stroke="rgb(0, 0, 0)" stroke-linecap="butt" stroke-linejoin="round" stroke-opacity="1.0" stroke-width="3.0" />
            <path d=" M 916.740, 1012.680 919.323, 1009.914 920.223, 1008.734 922.940, 1003.359 923.706, 1002.109 923.718, 1002.090 930.501, 995.149 932.814, 990.390 934.967, 980.625 935.072, 980.146 935.121, 979.925 935.157, 979.805 936.046, 976.817 936.882, 974.008 937.299, 972.607 938.171, 962.645 938.301, 961.158 938.307, 957.445 938.365, 951.697 938.270, 946.906 938.131, 943.473 937.994, 941.672 937.698, 937.769 936.412, 935.096 936.379, 935.026 936.171, 934.594 936.225, 934.332 937.367, 928.848 939.077, 922.341 940.056, 915.959 942.079, 906.933 943.218, 901.522 944.503, 898.391 945.449, 896.087 946.481, 893.572 947.158, 891.779 947.190, 891.697 947.605, 890.596 947.734, 890.255 947.832, 889.996 947.856, 889.934 947.898, 889.823 949.837, 884.691 952.596, 878.201 957.514, 869.883 959.178, 866.612 959.210, 866.550 " fill="none" stroke="rgb(0, 0, 0)" stroke-linecap="butt" stroke-linejoin="round" stroke-opacity="1.0" stroke-width="3.0" />
            <path d=" M 459.473, 443.314 457.102, 449.997 456.279, 452.318 454.670, 458.784 453.220, 468.451 451.762, 478.246 451.131, 488.226 450.499, 498.206 450.306, 501.252 449.459, 511.216 449.325, 512.801 448.805, 522.788 448.542, 527.849 448.605, 537.849 448.657, 546.069 448.663, 556.069 448.664, 557.694 448.934, 565.763 449.534, 575.613 449.714, 585.612 449.730, 586.526 449.760, 592.097 450.538, 601.017 451.406, 609.354 452.367, 618.408 452.751, 628.401 452.864, 631.339 453.761, 638.892 " fill="none" stroke="rgb(0, 0, 0)" stroke-linecap="butt" stroke-linejoin="round" stroke-opacity="1.0" stroke-width="3.0" />
            <path d=" M 797.769, 858.693 801.998, 858.285 802.158, 858.294 812.116, 858.874 819.156, 859.226 824.488, 858.854 828.637, 858.556 833.580, 857.291 833.703, 857.260 836.753, 856.479 837.444, 856.303 837.556, 856.249 837.607, 856.224 838.074, 856.000 838.151, 855.963 838.188, 855.945 838.622, 855.736 840.303, 854.928 842.411, 853.914 843.704, 853.292 844.135, 853.085 844.231, 853.039 844.276, 853.017 844.407, 852.954 846.404, 851.994 851.877, 848.095 856.987, 843.192 857.670, 842.454 860.105, 837.795 860.555, 836.934 861.621, 834.894 863.743, 829.238 864.180, 828.183 866.081, 823.593 866.438, 819.274 864.311, 813.063 864.122, 812.514 862.562, 809.672 857.770, 806.666 853.706, 806.652 848.156, 810.445 841.624, 811.757 834.383, 812.954 828.678, 813.529 828.398, 813.557 823.584, 814.042 813.585, 814.148 813.420, 814.149 812.811, 814.156 805.840, 813.031 799.060, 811.937 798.725, 811.831 794.871, 810.605 794.764, 810.571 793.065, 810.031 792.954, 809.999 787.966, 808.556 786.961, 808.265 786.881, 808.242 786.513, 808.135 786.449, 808.117 786.128, 808.024 784.991, 807.695 784.796, 807.610 783.043, 806.852 782.871, 806.778 781.885, 806.351 780.300, 805.665 779.684, 805.399 777.318, 804.375 777.041, 804.255 776.960, 804.220 776.926, 804.206 776.440, 803.996 776.381, 803.970 775.582, 803.624 770.513, 801.431 770.261, 801.322 764.243, 797.874 763.953, 797.708 763.683, 797.553 762.651, 796.962 761.407, 796.249 758.017, 794.307 750.058, 788.252 747.259, 786.122 " fill="none" stroke="rgb(0, 0, 0)" stroke-linecap="butt" stroke-linejoin="round" stroke-opacity="1.0" stroke-width="3.0" />
        </g>
    </g>
</svg>
