<?xml version='1.0' encoding='ascii'?>
<svg xmlns="http://www.w3.org/2000/svg" height="1280" version="1.1" width="1280">
    <g id="RenderLayer_LineSet" inkscape:groupmode="lineset" inkscape:label="RenderLayer_LineSet" xmlns:inkscape="http://www.inkscape.org/namespaces/inkscape">
        <g id="strokes" inkscape:groupmode="layer" inkscape:label="strokes" xmlns:inkscape="http://www.inkscape.org/namespaces/inkscape">
            <path d=" M 864.978, 766.993 864.927, 766.980 864.887, 766.970 862.633, 766.398 862.523, 766.370 862.520, 766.370 860.657, 765.897 856.419, 765.551 855.125, 765.446 852.338, 766.385 845.463, 768.703 " fill="none" stroke="rgb(0, 0, 0)" stroke-linecap="butt" stroke-linejoin="round" stroke-opacity="1.0" stroke-width="3.0" />
            <path d=" M 616.829, 973.148 616.503, 973.154 615.070, 974.078 613.315, 977.788 612.331, 981.001 612.376, 984.632 613.732, 988.855 614.368, 991.567 " fill="none" stroke="rgb(0, 0, 0)" stroke-linecap="butt" stroke-linejoin="round" stroke-opacity="1.0" stroke-width="3.0" />
            <path d=" M 740.268, 657.499 739.182, 656.766 739.107, 656.715 739.049, 656.676 738.415, 656.248 736.224, 654.768 730.593, 650.966 727.239, 649.544 722.534, 647.550 " fill="none" stroke="rgb(0, 0, 0)" stroke-linecap="butt" stroke-linejoin="round" stroke-opacity="1.0" stroke-width="3.0" />
            <path d=" M 519.111, 516.189 519.366, 517.225 519.954, 519.606 523.455, 526.589 529.677, 533.265 " fill="none" stroke="rgb(0, 0, 0)" stroke-linecap="butt" stroke-linejoin="round" stroke-opacity="1.0" stroke-width="3.0" />
            <path d=" M 574.809, 501.872 574.506, 501.453 573.643, 500.382 571.476, 497.692 568.129, 494.935 566.199, 493.775 561.730, 491.089 558.963, 489.005 " fill="none" stroke="rgb(0, 0, 0)" stroke-linecap="butt" stroke-linejoin="round" stroke-opacity="1.0" stroke-width="3.0" />
            <path d=" M 811.463, 861.613 811.923, 861.580 814.320, 861.410 814.417, 861.461 820.829, 864.854 822.133, 865.513 822.944, 865.923 826.803, 867.872 830.251, 869.613 " fill="none" stroke="rgb(0, 0, 0)" stroke-linecap="butt" stroke-linejoin="round" stroke-opacity="1.0" stroke-width="3.0" />
            <path d=" M 794.191, 776.110 793.572, 774.282 793.104, 772.897 793.775, 767.933 793.781, 767.789 793.850, 766.179 793.581, 764.516 792.105, 763.421 791.832, 763.293 791.693, 763.228 790.752, 762.788 790.036, 762.452 789.906, 762.392 788.808, 761.878 788.797, 761.872 788.733, 761.842 788.229, 761.606 788.163, 761.576 788.016, 761.507 787.919, 761.461 787.912, 761.458 787.589, 761.307 787.570, 761.307 787.142, 761.311 786.924, 761.313 786.857, 761.314 786.743, 761.315 786.348, 761.319 785.278, 761.330 " fill="none" stroke="rgb(0, 0, 0)" stroke-linecap="butt" stroke-linejoin="round" stroke-opacity="1.0" stroke-width="3.0" />
            <path d=" M 642.301, 829.971 642.291, 830.011 641.442, 833.593 641.329, 834.068 640.338, 838.245 640.647, 839.869 640.650, 839.885 641.396, 843.809 641.773, 845.663 642.515, 847.064 642.681, 847.377 643.966, 849.802 644.102, 850.058 " fill="none" stroke="rgb(0, 0, 0)" stroke-linecap="butt" stroke-linejoin="round" stroke-opacity="1.0" stroke-width="3.0" />
            <path d=" M 725.966, 616.355 721.005, 614.216 718.090, 614.385 716.950, 615.194 713.529, 618.597 711.887, 619.597 709.751, 621.048 708.244, 622.384 " fill="none" stroke="rgb(0, 0, 0)" stroke-linecap="butt" stroke-linejoin="round" stroke-opacity="1.0" stroke-width="3.0" />
            <path d=" M 615.770, 901.517 617.160, 904.030 619.066, 908.445 619.984, 912.107 620.500, 914.259 621.927, 918.233 622.594, 921.371 " fill="none" stroke="rgb(0, 0, 0)" stroke-linecap="butt" stroke-linejoin="round" stroke-opacity="1.0" stroke-width="3.0" />
            <path d=" M 626.198, 553.413 626.845, 551.083 626.755, 549.852 625.667, 548.122 620.838, 543.066 617.963, 540.395 616.533, 539.651 615.646, 539.190 614.932, 538.956 614.237, 538.728 613.845, 538.600 " fill="none" stroke="rgb(0, 0, 0)" stroke-linecap="butt" stroke-linejoin="round" stroke-opacity="1.0" stroke-width="3.0" />
            <path d=" M 782.319, 645.598 778.310, 644.087 778.125, 644.018 777.745, 643.875 776.733, 643.244 776.398, 643.035 775.957, 642.778 775.662, 642.607 775.543, 642.538 771.769, 640.347 771.273, 640.367 770.924, 640.380 770.908, 640.381 770.494, 640.397 769.351, 640.919 768.451, 641.329 767.584, 641.725 767.099, 641.947 766.935, 642.261 766.262, 643.547 766.273, 644.106 766.314, 646.161 " fill="none" stroke="rgb(0, 0, 0)" stroke-linecap="butt" stroke-linejoin="round" stroke-opacity="1.0" stroke-width="3.0" />
            <path d=" M 761.286, 1057.576 763.906, 1060.101 767.898, 1061.807 769.431, 1062.463 774.019, 1067.001 778.046, 1070.248 " fill="none" stroke="rgb(0, 0, 0)" stroke-linecap="butt" stroke-linejoin="round" stroke-opacity="1.0" stroke-width="3.0" />
            <path d=" M 514.401, 558.970 514.944, 554.474 514.960, 554.338 515.321, 551.356 515.368, 550.970 515.915, 542.845 517.471, 538.261 517.555, 538.013 " fill="none" stroke="rgb(0, 0, 0)" stroke-linecap="butt" stroke-linejoin="round" stroke-opacity="1.0" stroke-width="3.0" />
            <path d=" M 569.278, 573.331 569.378, 577.522 569.609, 579.648 572.368, 584.763 573.742, 587.309 576.698, 592.878 " fill="none" stroke="rgb(0, 0, 0)" stroke-linecap="butt" stroke-linejoin="round" stroke-opacity="1.0" stroke-width="3.0" />
            <path d=" M 645.476, 808.149 645.326, 808.304 642.081, 811.668 640.245, 815.247 639.346, 817.006 638.541, 818.702 638.910, 824.279 639.356, 826.548 639.804, 827.075 " fill="none" stroke="rgb(0, 0, 0)" stroke-linecap="butt" stroke-linejoin="round" stroke-opacity="1.0" stroke-width="3.0" />
            <path d=" M 556.099, 486.900 557.003, 486.703 562.779, 486.484 570.045, 486.682 574.142, 487.124 575.248, 486.309 576.445, 484.620 " fill="none" stroke="rgb(0, 0, 0)" stroke-linecap="butt" stroke-linejoin="round" stroke-opacity="1.0" stroke-width="3.0" />
            <path d=" M 515.321, 551.356 515.832, 551.723 519.969, 552.868 521.110, 552.334 521.484, 551.095 522.014, 548.076 520.846, 542.988 517.743, 537.975 " fill="none" stroke="rgb(0, 0, 0)" stroke-linecap="butt" stroke-linejoin="round" stroke-opacity="1.0" stroke-width="3.0" />
            <path d=" M 798.446, 775.395 798.356, 771.647 798.325, 770.349 798.229, 766.291 797.082, 762.570 794.379, 758.460 793.716, 758.336 792.961, 758.195 791.703, 758.993 791.271, 759.267 791.266, 759.270 790.957, 759.466 " fill="none" stroke="rgb(0, 0, 0)" stroke-linecap="butt" stroke-linejoin="round" stroke-opacity="1.0" stroke-width="3.0" />
            <path d=" M 562.100, 721.031 567.059, 720.135 568.010, 719.725 572.867, 714.455 572.551, 710.666 570.691, 706.487 570.663, 706.422 570.580, 706.235 " fill="none" stroke="rgb(0, 0, 0)" stroke-linecap="butt" stroke-linejoin="round" stroke-opacity="1.0" stroke-width="3.0" />
            <path d=" M 749.901, 996.550 749.154, 994.613 746.851, 988.647 743.798, 980.234 743.340, 979.407 742.650, 978.161 742.556, 977.991 742.280, 977.493 741.615, 976.292 " fill="none" stroke="rgb(0, 0, 0)" stroke-linecap="butt" stroke-linejoin="round" stroke-opacity="1.0" stroke-width="3.0" />
            <path d=" M 947.331, 703.593 946.307, 703.903 946.064, 703.977 946.002, 703.995 945.569, 704.127 945.471, 704.156 945.391, 704.200 945.074, 704.372 945.072, 704.373 943.980, 704.966 943.936, 704.990 943.872, 705.025 942.312, 707.542 942.174, 707.764 941.753, 708.445 940.779, 710.016 939.910, 710.623 936.307, 713.140 935.572, 714.794 935.421, 715.519 934.943, 719.944 " fill="none" stroke="rgb(0, 0, 0)" stroke-linecap="butt" stroke-linejoin="round" stroke-opacity="1.0" stroke-width="3.0" />
            <path d=" M 971.452, 763.348 973.894, 759.611 975.819, 757.011 977.567, 755.007 982.925, 747.376 984.354, 745.341 " fill="none" stroke="rgb(0, 0, 0)" stroke-linecap="butt" stroke-linejoin="round" stroke-opacity="1.0" stroke-width="3.0" />
            <path d=" M 584.079, 503.661 583.889, 503.115 582.018, 500.844 577.068, 496.779 571.136, 493.667 565.410, 492.936 " fill="none" stroke="rgb(0, 0, 0)" stroke-linecap="butt" stroke-linejoin="round" stroke-opacity="1.0" stroke-width="3.0" />
            <path d=" M 997.748, 985.641 999.230, 982.433 999.923, 980.931 1002.207, 975.757 1002.850, 971.692 1003.557, 969.832 1005.504, 964.701 " fill="none" stroke="rgb(0, 0, 0)" stroke-linecap="butt" stroke-linejoin="round" stroke-opacity="1.0" stroke-width="3.0" />
            <path d=" M 578.534, 612.268 580.012, 618.144 582.483, 624.640 586.174, 628.912 591.141, 629.956 " fill="none" stroke="rgb(0, 0, 0)" stroke-linecap="butt" stroke-linejoin="round" stroke-opacity="1.0" stroke-width="3.0" />
            <path d=" M 1003.557, 969.832 1004.010, 968.994 1005.504, 964.701 1008.051, 956.108 1009.004, 947.506 1009.078, 946.840 " fill="none" stroke="rgb(0, 0, 0)" stroke-linecap="butt" stroke-linejoin="round" stroke-opacity="1.0" stroke-width="3.0" />
            <path d=" M 755.453, 1022.073 756.283, 1022.132 762.852, 1022.599 769.564, 1024.148 775.661, 1024.603 775.864, 1024.618 779.209, 1024.868 " fill="none" stroke="rgb(0, 0, 0)" stroke-linecap="butt" stroke-linejoin="round" stroke-opacity="1.0" stroke-width="3.0" />
            <path d=" M 550.660, 483.819 549.922, 483.170 549.689, 482.966 549.407, 482.718 548.804, 482.187 546.551, 480.208 545.069, 478.940 544.739, 478.658 544.567, 478.558 544.159, 478.323 544.079, 478.277 543.888, 478.166 543.532, 477.961 543.399, 477.884 540.820, 476.396 539.832, 475.826 539.213, 475.468 539.049, 475.373 538.823, 475.243 538.244, 474.909 538.202, 474.906 538.098, 474.899 537.514, 474.861 534.648, 474.672 534.606, 474.670 534.194, 474.643 533.891, 474.665 533.881, 474.666 533.281, 474.711 533.278, 474.711 532.846, 474.744 531.360, 474.855 531.299, 474.859 531.030, 474.880 530.214, 474.941 529.566, 474.989 " fill="none" stroke="rgb(0, 0, 0)" stroke-linecap="butt" stroke-linejoin="round" stroke-opacity="1.0" stroke-width="3.0" />
            <path d=" M 625.216, 553.496 624.993, 553.271 622.821, 551.081 621.290, 549.864 619.464, 548.414 619.054, 548.002 618.945, 547.893 618.760, 547.707 617.769, 546.713 617.391, 545.159 617.116, 544.029 617.027, 541.962 617.015, 541.674 615.812, 540.553 614.134, 538.991 613.910, 538.687 613.845, 538.600 612.512, 536.795 611.403, 536.065 610.594, 535.533 " fill="none" stroke="rgb(0, 0, 0)" stroke-linecap="butt" stroke-linejoin="round" stroke-opacity="1.0" stroke-width="3.0" />
            <path d=" M 517.630, 539.072 517.743, 537.975 518.231, 533.210 516.905, 525.698 516.971, 522.536 517.184, 521.888 517.467, 520.058 517.820, 517.784 517.843, 517.636 517.889, 517.341 518.247, 515.031 " fill="none" stroke="rgb(0, 0, 0)" stroke-linecap="butt" stroke-linejoin="round" stroke-opacity="1.0" stroke-width="3.0" />
            <path d=" M 642.160, 776.047 641.040, 778.937 640.994, 779.055 641.041, 781.193 641.584, 782.656 642.536, 784.918 643.501, 787.134 647.186, 793.041 647.771, 793.981 649.453, 798.119 " fill="none" stroke="rgb(0, 0, 0)" stroke-linecap="butt" stroke-linejoin="round" stroke-opacity="1.0" stroke-width="3.0" />
            <path d=" M 782.359, 635.573 781.362, 636.447 780.391, 637.491 780.325, 637.562 779.915, 638.003 779.831, 638.094 778.414, 637.634 776.810, 637.112 774.941, 635.666 774.819, 635.572 774.600, 635.402 773.974, 634.917 773.839, 634.813 773.231, 634.343 773.113, 634.251 772.874, 634.066 770.543, 633.278 770.462, 633.251 769.796, 633.026 769.646, 633.031 768.232, 633.076 768.113, 633.080 768.062, 633.081 763.619, 633.225 761.991, 633.277 761.878, 633.427 761.822, 633.500 761.784, 633.551 761.007, 634.580 " fill="none" stroke="rgb(0, 0, 0)" stroke-linecap="butt" stroke-linejoin="round" stroke-opacity="1.0" stroke-width="3.0" />
            <path d=" M 575.248, 486.309 575.548, 485.595 576.060, 484.377 576.085, 482.342 576.596, 480.257 576.821, 479.340 575.969, 478.154 574.583, 476.165 572.441, 471.969 573.838, 475.418 575.986, 478.242 576.002, 478.263 576.821, 479.340 " fill="none" stroke="rgb(0, 0, 0)" stroke-linecap="butt" stroke-linejoin="round" stroke-opacity="1.0" stroke-width="3.0" />
            <path d=" M 605.193, 528.088 604.882, 527.229 604.306, 523.945 602.992, 522.322 599.522, 518.373 596.955, 517.118 593.827, 515.588 587.280, 514.150 " fill="none" stroke="rgb(0, 0, 0)" stroke-linecap="butt" stroke-linejoin="round" stroke-opacity="1.0" stroke-width="3.0" />
            <path d=" M 542.124, 653.220 543.214, 652.707 544.563, 650.214 542.753, 646.687 538.982, 644.221 535.033, 640.831 532.749, 640.045 528.358, 638.534 " fill="none" stroke="rgb(0, 0, 0)" stroke-linecap="butt" stroke-linejoin="round" stroke-opacity="1.0" stroke-width="3.0" />
            <path d=" M 653.870, 739.869 652.742, 741.085 652.369, 741.487 652.318, 741.531 649.589, 743.897 648.697, 744.171 647.459, 744.550 645.307, 744.118 642.392, 743.532 641.981, 743.449 638.242, 744.517 637.739, 744.661 637.557, 746.674 637.832, 750.446 638.276, 751.419 " fill="none" stroke="rgb(0, 0, 0)" stroke-linecap="butt" stroke-linejoin="round" stroke-opacity="1.0" stroke-width="3.0" />
            <path d=" M 593.872, 513.421 593.149, 512.492 589.046, 507.221 588.598, 506.688 586.436, 505.030 584.079, 503.661 583.581, 503.372 581.636, 502.242 581.316, 502.168 580.404, 501.956 573.643, 500.382 " fill="none" stroke="rgb(0, 0, 0)" stroke-linecap="butt" stroke-linejoin="round" stroke-opacity="1.0" stroke-width="3.0" />
            <path d=" M 560.529, 935.559 563.884, 939.085 562.439, 937.487 558.470, 933.098 555.240, 928.058 554.978, 927.470 553.366, 922.126 " fill="none" stroke="rgb(0, 0, 0)" stroke-linecap="butt" stroke-linejoin="round" stroke-opacity="1.0" stroke-width="3.0" />
            <path d=" M 992.235, 733.412 992.550, 733.285 994.001, 732.700 994.155, 732.638 994.255, 732.374 994.583, 731.511 994.657, 731.315 994.567, 730.685 994.426, 729.709 993.442, 725.893 990.847, 721.369 986.313, 715.234 985.634, 714.514 983.935, 712.965 " fill="none" stroke="rgb(0, 0, 0)" stroke-linecap="butt" stroke-linejoin="round" stroke-opacity="1.0" stroke-width="3.0" />
            <path d=" M 971.164, 1029.253 972.792, 1027.596 973.638, 1026.735 973.927, 1026.442 974.214, 1026.149 974.569, 1025.788 975.188, 1025.159 976.644, 1023.678 976.809, 1023.241 977.750, 1020.754 978.300, 1019.051 978.460, 1018.555 978.914, 1017.150 979.090, 1016.606 979.193, 1016.287 979.930, 1014.007 981.155, 1012.154 982.573, 1010.008 982.834, 1009.613 983.875, 1008.039 " fill="none" stroke="rgb(0, 0, 0)" stroke-linecap="butt" stroke-linejoin="round" stroke-opacity="1.0" stroke-width="3.0" />
            <path d=" M 704.892, 830.524 703.242, 836.988 704.101, 840.164 705.896, 841.329 707.436, 842.679 711.321, 843.842 711.361, 843.854 711.369, 843.860 717.148, 848.068 " fill="none" stroke="rgb(0, 0, 0)" stroke-linecap="butt" stroke-linejoin="round" stroke-opacity="1.0" stroke-width="3.0" />
            <path d=" M 682.540, 693.148 681.304, 691.920 678.138, 688.777 673.318, 685.907 670.326, 685.089 669.608, 685.135 668.138, 686.025 667.760, 686.254 667.326, 687.355 668.431, 691.430 669.521, 693.460 " fill="none" stroke="rgb(0, 0, 0)" stroke-linecap="butt" stroke-linejoin="round" stroke-opacity="1.0" stroke-width="3.0" />
            <path d=" M 592.412, 521.668 592.293, 521.560 592.196, 521.480 590.715, 520.268 590.581, 520.159 590.171, 519.823 589.956, 519.647 588.597, 518.535 586.789, 517.056 584.874, 515.171 584.800, 515.098 582.897, 513.226 582.570, 512.997 582.570, 512.997 576.175, 508.536 576.088, 508.475 575.745, 508.236 575.716, 508.219 575.591, 508.143 575.491, 508.084 572.264, 506.147 " fill="none" stroke="rgb(0, 0, 0)" stroke-linecap="butt" stroke-linejoin="round" stroke-opacity="1.0" stroke-width="3.0" />
            <path d=" M 573.101, 752.054 568.981, 742.943 566.420, 737.282 563.848, 730.308 562.922, 728.501 " fill="none" stroke="rgb(0, 0, 0)" stroke-linecap="butt" stroke-linejoin="round" stroke-opacity="1.0" stroke-width="3.0" />
            <path d=" M 590.293, 791.730 589.720, 788.694 588.669, 785.126 586.380, 778.183 584.203, 773.415 583.304, 769.783 581.816, 767.559 " fill="none" stroke="rgb(0, 0, 0)" stroke-linecap="butt" stroke-linejoin="round" stroke-opacity="1.0" stroke-width="3.0" />
            <path d=" M 835.442, 870.678 828.739, 878.099 828.355, 878.525 827.375, 879.610 826.243, 880.863 823.421, 885.528 817.784, 888.976 " fill="none" stroke="rgb(0, 0, 0)" stroke-linecap="butt" stroke-linejoin="round" stroke-opacity="1.0" stroke-width="3.0" />
            <path d=" M 637.083, 901.988 637.882, 907.494 638.464, 911.476 639.994, 915.951 640.841, 920.293 642.201, 927.359 " fill="none" stroke="rgb(0, 0, 0)" stroke-linecap="butt" stroke-linejoin="round" stroke-opacity="1.0" stroke-width="3.0" />
            <path d=" M 767.530, 891.078 764.961, 894.807 762.834, 898.568 760.885, 901.401 758.648, 906.679 755.369, 912.083 754.772, 913.596 " fill="none" stroke="rgb(0, 0, 0)" stroke-linecap="butt" stroke-linejoin="round" stroke-opacity="1.0" stroke-width="3.0" />
            <path d=" M 721.430, 968.726 717.422, 970.231 712.415, 967.819 706.141, 966.039 696.303, 964.232 " fill="none" stroke="rgb(0, 0, 0)" stroke-linecap="butt" stroke-linejoin="round" stroke-opacity="1.0" stroke-width="3.0" />
            <path d=" M 746.565, 625.673 745.534, 625.502 743.083, 624.957 742.890, 624.914 742.678, 624.867 742.654, 624.862 742.475, 624.822 741.809, 624.674 741.505, 624.607 741.485, 624.602 741.327, 624.567 741.128, 624.523 740.597, 624.451 739.391, 624.287 737.403, 624.018 735.960, 625.746 736.000, 625.868 736.143, 626.308 736.153, 626.340 736.943, 628.767 737.361, 630.053 737.839, 630.607 737.866, 630.639 738.278, 631.118 739.898, 632.999 742.601, 636.968 742.663, 637.060 742.725, 637.152 742.742, 637.177 742.829, 637.303 743.653, 638.515 743.813, 638.748 " fill="none" stroke="rgb(0, 0, 0)" stroke-linecap="butt" stroke-linejoin="round" stroke-opacity="1.0" stroke-width="3.0" />
            <path d=" M 733.003, 609.521 731.023, 608.091 730.477, 607.697 728.777, 608.192 728.485, 610.792 728.299, 611.971 726.284, 612.331 725.299, 613.691 725.390, 614.067 725.966, 616.355 726.609, 618.911 728.339, 622.231 729.384, 625.465 730.063, 627.567 730.072, 627.593 " fill="none" stroke="rgb(0, 0, 0)" stroke-linecap="butt" stroke-linejoin="round" stroke-opacity="1.0" stroke-width="3.0" />
            <path d=" M 773.799, 817.714 774.309, 827.701 774.395, 829.370 773.500, 834.535 773.454, 834.803 773.076, 836.985 773.026, 837.275 772.816, 837.694 772.516, 838.295 771.203, 840.919 770.822, 841.681 770.438, 842.449 770.408, 842.510 770.368, 842.590 770.366, 842.593 770.357, 842.611 769.537, 844.252 " fill="none" stroke="rgb(0, 0, 0)" stroke-linecap="butt" stroke-linejoin="round" stroke-opacity="1.0" stroke-width="3.0" />
            <path d=" M 867.149, 817.015 865.977, 814.984 865.189, 813.483 863.215, 809.720 861.536, 807.281 861.055, 806.851 860.644, 806.484 859.764, 805.696 859.684, 805.625 857.443, 802.943 850.577, 802.700 850.514, 802.698 849.993, 802.679 849.874, 802.675 848.036, 804.716 " fill="none" stroke="rgb(0, 0, 0)" stroke-linecap="butt" stroke-linejoin="round" stroke-opacity="1.0" stroke-width="3.0" />
            <path d=" M 838.779, 954.668 838.765, 954.691 838.707, 954.780 835.188, 960.265 834.245, 961.253 833.466, 962.070 829.328, 966.407 825.648, 974.813 824.297, 977.899 " fill="none" stroke="rgb(0, 0, 0)" stroke-linecap="butt" stroke-linejoin="round" stroke-opacity="1.0" stroke-width="3.0" />
            <path d=" M 986.313, 715.234 983.935, 712.965 976.701, 706.061 974.207, 703.681 969.018, 701.614 965.913, 701.055 965.823, 701.038 965.477, 700.976 965.456, 700.972 965.381, 700.959 963.115, 700.551 " fill="none" stroke="rgb(0, 0, 0)" stroke-linecap="butt" stroke-linejoin="round" stroke-opacity="1.0" stroke-width="3.0" />
            <path d=" M 825.579, 845.059 825.915, 845.600 829.954, 850.462 831.085, 857.523 834.199, 863.468 834.233, 863.532 834.780, 864.578 835.051, 867.072 835.064, 867.194 835.065, 867.206 835.121, 867.717 835.124, 867.747 835.190, 868.355 835.339, 869.725 835.442, 870.678 835.455, 870.794 " fill="none" stroke="rgb(0, 0, 0)" stroke-linecap="butt" stroke-linejoin="round" stroke-opacity="1.0" stroke-width="3.0" />
            <path d=" M 964.585, 700.108 963.883, 699.546 961.801, 697.882 959.976, 696.422 955.998, 692.215 953.522, 689.596 948.481, 688.129 944.200, 689.906 942.788, 691.240 942.086, 691.904 942.085, 691.905 941.919, 692.061 941.699, 692.269 " fill="none" stroke="rgb(0, 0, 0)" stroke-linecap="butt" stroke-linejoin="round" stroke-opacity="1.0" stroke-width="3.0" />
            <path d=" M 577.754, 607.254 578.335, 611.397 578.534, 612.268 576.437, 607.372 576.237, 603.447 576.447, 602.068 576.561, 598.908 577.205, 595.325 576.698, 592.878 575.948, 589.255 " fill="none" stroke="rgb(0, 0, 0)" stroke-linecap="butt" stroke-linejoin="round" stroke-opacity="1.0" stroke-width="3.0" />
            <path d=" M 598.876, 847.695 594.372, 838.767 591.895, 833.857 589.617, 825.263 588.454, 824.419 587.783, 823.950 587.768, 823.940 587.315, 823.623 586.962, 823.377 586.839, 823.291 585.878, 822.620 " fill="none" stroke="rgb(0, 0, 0)" stroke-linecap="butt" stroke-linejoin="round" stroke-opacity="1.0" stroke-width="3.0" />
            <path d=" M 967.094, 837.326 966.748, 830.390 966.714, 830.211 966.592, 829.573 965.983, 826.407 965.202, 822.260 964.577, 819.873 963.728, 816.284 963.672, 816.154 962.095, 812.503 960.976, 811.708 960.619, 811.455 959.184, 810.436 " fill="none" stroke="rgb(0, 0, 0)" stroke-linecap="butt" stroke-linejoin="round" stroke-opacity="1.0" stroke-width="3.0" />
            <path d=" M 653.295, 759.566 650.508, 761.694 649.675, 761.703 649.525, 761.705 649.280, 761.708 648.493, 761.716 647.723, 761.725 647.317, 761.730 645.462, 761.751 644.731, 761.759 642.936, 761.930 641.929, 762.680 641.896, 762.705 641.866, 762.727 640.952, 763.408 640.647, 763.635 639.904, 764.189 639.898, 764.289 639.800, 766.063 639.713, 767.644 639.594, 769.807 639.798, 772.540 639.993, 772.829 640.031, 772.886 642.160, 776.047 642.169, 776.060 643.066, 777.391 " fill="none" stroke="rgb(0, 0, 0)" stroke-linecap="butt" stroke-linejoin="round" stroke-opacity="1.0" stroke-width="3.0" />
            <path d=" M 514.960, 554.338 518.718, 559.087 522.815, 560.188 524.096, 558.392 523.995, 553.905 522.777, 549.319 521.644, 544.442 520.839, 541.846 " fill="none" stroke="rgb(0, 0, 0)" stroke-linecap="butt" stroke-linejoin="round" stroke-opacity="1.0" stroke-width="3.0" />
            <path d=" M 1006.015, 887.174 1005.059, 884.221 1003.405, 879.115 999.592, 871.129 995.527, 861.993 994.452, 859.576 " fill="none" stroke="rgb(0, 0, 0)" stroke-linecap="butt" stroke-linejoin="round" stroke-opacity="1.0" stroke-width="3.0" />
            <path d=" M 644.182, 979.726 649.401, 988.293 649.466, 988.398 649.749, 988.863 651.988, 993.186 654.707, 996.221 658.701, 999.767 661.899, 1001.542 662.358, 1001.796 662.953, 1002.044 663.164, 1002.132 " fill="none" stroke="rgb(0, 0, 0)" stroke-linecap="butt" stroke-linejoin="round" stroke-opacity="1.0" stroke-width="3.0" />
            <path d=" M 846.267, 660.475 842.965, 660.021 835.884, 657.135 835.383, 656.931 830.968, 655.441 826.924, 655.100 825.120, 655.524 823.001, 656.022 820.806, 657.034 819.098, 657.821 817.673, 658.477 " fill="none" stroke="rgb(0, 0, 0)" stroke-linecap="butt" stroke-linejoin="round" stroke-opacity="1.0" stroke-width="3.0" />
            <path d=" M 769.287, 768.362 765.351, 766.856 765.072, 766.749 764.810, 766.649 764.597, 766.568 764.410, 766.496 763.702, 766.225 762.917, 767.222 763.414, 768.318 763.503, 768.516 763.589, 768.705 763.731, 768.866 764.167, 769.363 768.954, 774.817 770.687, 776.334 770.691, 776.338 775.085, 780.185 778.364, 783.979 " fill="none" stroke="rgb(0, 0, 0)" stroke-linecap="butt" stroke-linejoin="round" stroke-opacity="1.0" stroke-width="3.0" />
            <path d=" M 517.179, 578.325 518.824, 579.159 521.969, 578.350 523.996, 577.363 521.681, 570.110 520.399, 565.154 518.187, 560.319 516.421, 557.382 515.640, 556.082 " fill="none" stroke="rgb(0, 0, 0)" stroke-linecap="butt" stroke-linejoin="round" stroke-opacity="1.0" stroke-width="3.0" />
            <path d=" M 527.415, 612.570 527.742, 612.519 529.965, 611.960 529.718, 610.203 529.314, 608.766 526.037, 603.919 523.272, 598.858 521.444, 596.882 521.421, 596.856 521.122, 596.522 516.893, 591.797 514.034, 589.871 " fill="none" stroke="rgb(0, 0, 0)" stroke-linecap="butt" stroke-linejoin="round" stroke-opacity="1.0" stroke-width="3.0" />
            <path d=" M 646.784, 663.791 651.443, 668.816 658.467, 675.934 659.686, 677.170 662.401, 680.702 666.120, 684.233 668.138, 686.025 " fill="none" stroke="rgb(0, 0, 0)" stroke-linecap="butt" stroke-linejoin="round" stroke-opacity="1.0" stroke-width="3.0" />
            <path d=" M 979.699, 840.558 978.384, 837.800 976.988, 834.868 976.643, 833.245 975.417, 827.470 973.675, 822.704 970.418, 820.391 966.865, 818.801 963.672, 816.154 " fill="none" stroke="rgb(0, 0, 0)" stroke-linecap="butt" stroke-linejoin="round" stroke-opacity="1.0" stroke-width="3.0" />
            <path d=" M 462.305, 670.169 460.789, 666.112 460.845, 665.457 461.005, 663.580 462.305, 670.169 462.782, 672.587 463.991, 677.030 464.146, 677.501 464.917, 679.846 465.438, 681.989 466.718, 687.252 " fill="none" stroke="rgb(0, 0, 0)" stroke-linecap="butt" stroke-linejoin="round" stroke-opacity="1.0" stroke-width="3.0" />
            <path d=" M 657.360, 769.438 656.424, 770.269 654.824, 771.691 653.813, 772.589 653.765, 772.632 653.696, 772.660 649.893, 774.221 648.039, 774.648 646.739, 775.091 646.535, 775.160 646.302, 775.240 646.219, 775.268 644.767, 775.763 643.066, 777.391 642.815, 777.631 642.587, 782.136 642.729, 784.185 645.645, 788.348 648.200, 789.927 " fill="none" stroke="rgb(0, 0, 0)" stroke-linecap="butt" stroke-linejoin="round" stroke-opacity="1.0" stroke-width="3.0" />
            <path d=" M 585.117, 796.812 583.384, 789.983 582.969, 780.346 581.516, 773.305 579.991, 767.317 579.869, 766.837 579.728, 766.287 579.534, 765.524 " fill="none" stroke="rgb(0, 0, 0)" stroke-linecap="butt" stroke-linejoin="round" stroke-opacity="1.0" stroke-width="3.0" />
            <path d=" M 740.523, 788.040 743.215, 786.442 745.444, 786.320 745.653, 786.309 746.445, 786.266 746.826, 785.718 749.236, 782.245 750.671, 781.801 755.596, 778.459 757.998, 775.950 760.317, 774.786 761.372, 774.074 762.797, 773.113 763.328, 772.465 763.818, 771.867 764.167, 769.363 " fill="none" stroke="rgb(0, 0, 0)" stroke-linecap="butt" stroke-linejoin="round" stroke-opacity="1.0" stroke-width="3.0" />
            <path d=" M 837.903, 923.529 840.626, 929.979 841.153, 935.930 839.938, 945.856 839.879, 946.336 838.707, 954.780 " fill="none" stroke="rgb(0, 0, 0)" stroke-linecap="butt" stroke-linejoin="round" stroke-opacity="1.0" stroke-width="3.0" />
            <path d=" M 1010.500, 915.699 1010.773, 909.908 1010.261, 902.474 1008.346, 895.608 1006.414, 887.349 1005.059, 884.221 " fill="none" stroke="rgb(0, 0, 0)" stroke-linecap="butt" stroke-linejoin="round" stroke-opacity="1.0" stroke-width="3.0" />
            <path d=" M 521.421, 596.856 523.924, 596.978 525.223, 595.555 525.377, 592.015 524.309, 590.223 519.331, 581.549 518.776, 580.581 517.179, 578.325 515.318, 575.696 511.764, 571.469 " fill="none" stroke="rgb(0, 0, 0)" stroke-linecap="butt" stroke-linejoin="round" stroke-opacity="1.0" stroke-width="3.0" />
            <path d=" M 868.204, 723.994 869.327, 725.080 871.211, 725.294 875.253, 724.552 876.983, 722.170 876.892, 717.385 874.351, 712.988 869.374, 708.962 863.951, 705.608 " fill="none" stroke="rgb(0, 0, 0)" stroke-linecap="butt" stroke-linejoin="round" stroke-opacity="1.0" stroke-width="3.0" />
            <path d=" M 758.354, 623.553 758.029, 623.449 757.392, 623.245 757.348, 623.231 757.125, 623.159 757.002, 623.119 756.994, 623.117 756.787, 623.051 750.567, 621.055 748.308, 621.174 746.999, 622.501 746.936, 622.770 746.927, 622.810 746.856, 623.112 746.839, 623.183 746.835, 623.201 746.363, 625.220 746.537, 625.609 746.565, 625.673 748.673, 630.381 749.222, 632.135 749.235, 632.176 749.241, 632.195 749.370, 632.607 749.441, 632.833 749.893, 634.276 750.073, 634.851 750.097, 634.927 750.140, 635.064 750.172, 635.167 750.186, 635.211 750.219, 635.316 750.231, 635.354 749.899, 635.670 749.896, 635.673 749.856, 635.710 749.441, 636.105 749.165, 636.367 749.128, 636.402 749.121, 636.409 749.024, 636.501 748.511, 636.656 748.086, 636.784 747.857, 636.853 747.796, 636.872 747.594, 636.933 744.807, 637.774 744.787, 637.780 744.746, 637.862 744.216, 638.927 " fill="none" stroke="rgb(0, 0, 0)" stroke-linecap="butt" stroke-linejoin="round" stroke-opacity="1.0" stroke-width="3.0" />
            <path d=" M 780.779, 1001.550 780.467, 1001.598 776.017, 1002.289 772.699, 1001.985 762.780, 1001.075 756.849, 999.346 754.542, 998.673 749.154, 994.613 " fill="none" stroke="rgb(0, 0, 0)" stroke-linecap="butt" stroke-linejoin="round" stroke-opacity="1.0" stroke-width="3.0" />
            <path d=" M 621.312, 867.396 616.628, 863.084 616.488, 862.955 608.066, 857.563 607.108, 856.950 602.530, 852.530 598.876, 847.695 598.105, 846.676 598.097, 846.665 596.657, 844.760 " fill="none" stroke="rgb(0, 0, 0)" stroke-linecap="butt" stroke-linejoin="round" stroke-opacity="1.0" stroke-width="3.0" />
            <path d=" M 801.757, 648.141 797.930, 646.907 792.925, 643.323 792.425, 642.512 792.288, 642.290 791.103, 640.368 789.379, 637.573 787.751, 634.794 787.514, 634.469 785.794, 633.088 785.350, 632.985 780.729, 631.906 778.046, 632.411 777.702, 632.476 777.597, 632.496 776.613, 632.681 776.531, 632.697 776.511, 632.724 776.366, 632.928 775.839, 633.667 775.824, 633.687 775.471, 634.181 " fill="none" stroke="rgb(0, 0, 0)" stroke-linecap="butt" stroke-linejoin="round" stroke-opacity="1.0" stroke-width="3.0" />
            <path d=" M 473.091, 741.639 474.056, 746.154 476.789, 750.257 477.771, 753.399 478.778, 756.622 482.579, 761.242 484.986, 763.121 488.150, 766.747 490.992, 769.660 " fill="none" stroke="rgb(0, 0, 0)" stroke-linecap="butt" stroke-linejoin="round" stroke-opacity="1.0" stroke-width="3.0" />
            <path d=" M 778.686, 785.573 775.864, 788.741 775.276, 789.402 774.535, 790.234 774.511, 790.261 772.351, 792.686 772.025, 799.298 773.156, 809.234 773.589, 813.036 774.427, 817.483 " fill="none" stroke="rgb(0, 0, 0)" stroke-linecap="butt" stroke-linejoin="round" stroke-opacity="1.0" stroke-width="3.0" />
            <path d=" M 530.584, 644.568 530.446, 643.456 529.952, 642.291 529.532, 641.302 529.530, 641.295 528.358, 638.534 528.028, 637.755 527.189, 634.023 526.139, 631.940 526.046, 631.756 526.030, 631.723 525.951, 631.565 524.110, 627.914 522.227, 622.854 522.381, 620.995 520.979, 616.261 520.427, 614.396 519.687, 611.897 " fill="none" stroke="rgb(0, 0, 0)" stroke-linecap="butt" stroke-linejoin="round" stroke-opacity="1.0" stroke-width="3.0" />
            <path d=" M 604.368, 527.537 600.412, 523.727 597.101, 521.583 595.467, 520.524 594.133, 519.840 591.389, 518.433 588.716, 516.233 585.787, 513.822 583.809, 512.194 583.601, 512.022 583.313, 511.768 579.607, 508.502 579.463, 508.375 579.449, 508.362 579.246, 508.183 579.211, 508.153 578.732, 507.730 578.707, 507.708 577.084, 506.278 " fill="none" stroke="rgb(0, 0, 0)" stroke-linecap="butt" stroke-linejoin="round" stroke-opacity="1.0" stroke-width="3.0" />
            <path d=" M 806.314, 913.764 806.614, 914.047 810.584, 917.793 813.124, 919.173 817.930, 921.608 823.054, 922.118 828.872, 922.564 837.779, 923.424 837.862, 923.432 838.274, 923.472 838.485, 923.492 " fill="none" stroke="rgb(0, 0, 0)" stroke-linecap="butt" stroke-linejoin="round" stroke-opacity="1.0" stroke-width="3.0" />
            <path d=" M 570.691, 706.487 571.038, 705.716 574.938, 701.199 574.843, 699.037 572.661, 695.895 569.058, 694.990 559.142, 693.696 554.955, 693.149 554.017, 692.786 553.822, 692.711 551.986, 692.000 550.989, 691.845 " fill="none" stroke="rgb(0, 0, 0)" stroke-linecap="butt" stroke-linejoin="round" stroke-opacity="1.0" stroke-width="3.0" />
            <path d=" M 645.945, 1038.177 646.489, 1038.475 647.536, 1039.048 649.897, 1040.091 651.505, 1040.647 653.217, 1041.004 660.387, 1043.840 664.086, 1045.176 666.069, 1046.085 668.052, 1047.168 671.219, 1049.463 674.581, 1052.925 675.929, 1055.320 " fill="none" stroke="rgb(0, 0, 0)" stroke-linecap="butt" stroke-linejoin="round" stroke-opacity="1.0" stroke-width="3.0" />
            <path d=" M 540.347, 475.558 540.343, 475.554 539.303, 474.516 539.158, 474.370 538.900, 474.113 538.765, 473.979 538.367, 473.581 538.144, 473.358 537.127, 472.343 537.038, 472.254 536.638, 471.938 536.495, 471.825 536.012, 471.443 536.499, 471.825 536.640, 471.936 537.105, 472.300 538.326, 473.259 538.689, 473.543 540.907, 475.283 541.409, 475.619 541.595, 475.744 541.627, 475.765 544.437, 477.647 547.406, 479.754 548.688, 480.866 549.182, 481.295 550.212, 482.189 550.260, 482.231 554.700, 486.084 554.911, 486.290 555.510, 486.876 555.638, 487.001 555.642, 487.005 558.917, 490.204 " fill="none" stroke="rgb(0, 0, 0)" stroke-linecap="butt" stroke-linejoin="round" stroke-opacity="1.0" stroke-width="3.0" />
            <path d=" M 956.641, 864.351 957.457, 863.468 960.097, 860.608 963.053, 857.406 964.746, 850.440 965.430, 844.739 965.687, 843.593 967.094, 837.326 967.153, 839.653 965.687, 843.593 " fill="none" stroke="rgb(0, 0, 0)" stroke-linecap="butt" stroke-linejoin="round" stroke-opacity="1.0" stroke-width="3.0" />
            <path d=" M 667.992, 809.587 668.663, 809.691 669.298, 809.837 670.549, 810.123 671.209, 810.275 676.152, 810.374 677.387, 810.363 679.627, 810.028 682.806, 809.070 687.464, 806.565 688.696, 805.903 690.004, 804.556 691.219, 803.307 691.257, 803.268 691.585, 802.930 692.307, 802.187 693.591, 800.856 694.670, 799.299 694.869, 797.149 694.481, 795.977 694.243, 795.260 694.013, 794.565 693.359, 792.590 " fill="none" stroke="rgb(0, 0, 0)" stroke-linecap="butt" stroke-linejoin="round" stroke-opacity="1.0" stroke-width="3.0" />
            <path d=" M 1009.738, 943.953 1010.961, 938.030 1011.875, 929.799 1011.432, 923.262 1010.500, 915.699 1010.099, 911.465 1008.589, 906.381 " fill="none" stroke="rgb(0, 0, 0)" stroke-linecap="butt" stroke-linejoin="round" stroke-opacity="1.0" stroke-width="3.0" />
            <path d=" M 555.523, 813.840 552.004, 804.480 551.463, 803.041 549.799, 793.181 549.675, 792.444 549.890, 788.061 550.061, 785.706 550.113, 784.989 550.137, 784.661 550.223, 783.481 550.360, 781.591 550.413, 780.860 550.595, 779.811 551.205, 776.296 " fill="none" stroke="rgb(0, 0, 0)" stroke-linecap="butt" stroke-linejoin="round" stroke-opacity="1.0" stroke-width="3.0" />
            <path d=" M 687.627, 778.373 687.441, 778.332 686.883, 778.212 686.625, 777.727 686.527, 777.545 685.544, 775.702 685.328, 775.296 685.186, 775.030 684.972, 774.629 682.582, 772.545 679.213, 767.215 678.996, 767.017 677.650, 765.783 676.461, 764.693 671.497, 762.277 671.306, 762.184 671.184, 762.278 671.082, 762.358 670.777, 762.595 670.410, 762.879 669.676, 763.450 669.535, 763.654 669.449, 763.780 669.162, 764.200 664.986, 770.298 664.964, 770.340 662.860, 774.423 " fill="none" stroke="rgb(0, 0, 0)" stroke-linecap="butt" stroke-linejoin="round" stroke-opacity="1.0" stroke-width="3.0" />
            <path d=" M 588.716, 516.233 587.968, 514.799 587.280, 514.150 585.438, 512.411 583.079, 510.503 582.055, 508.738 581.780, 508.422 581.727, 508.361 581.671, 508.297 580.285, 506.706 579.969, 506.343 579.819, 506.170 579.235, 505.499 578.902, 505.241 576.883, 503.674 575.689, 502.747 574.809, 501.872 574.671, 501.736 574.562, 501.627 573.296, 500.368 572.991, 500.065 571.245, 498.329 569.171, 496.267 566.370, 494.498 563.685, 492.802 563.139, 492.543 559.568, 490.849 " fill="none" stroke="rgb(0, 0, 0)" stroke-linecap="butt" stroke-linejoin="round" stroke-opacity="1.0" stroke-width="3.0" />
            <path d=" M 887.280, 695.616 890.543, 696.523 897.544, 698.469 904.887, 701.750 909.565, 704.205 914.591, 707.119 921.390, 712.086 923.241, 713.438 " fill="none" stroke="rgb(0, 0, 0)" stroke-linecap="butt" stroke-linejoin="round" stroke-opacity="1.0" stroke-width="3.0" />
            <path d=" M 715.710, 639.823 713.768, 637.437 711.631, 635.765 711.135, 635.377 710.132, 634.592 708.594, 633.100 707.137, 631.687 706.303, 630.879 702.754, 628.240 701.990, 627.671 697.162, 625.199 696.059, 624.635 687.539, 619.399 686.334, 618.659 686.111, 618.521 685.566, 618.187 684.671, 617.636 682.440, 616.265 " fill="none" stroke="rgb(0, 0, 0)" stroke-linecap="butt" stroke-linejoin="round" stroke-opacity="1.0" stroke-width="3.0" />
            <path d=" M 520.427, 614.396 520.125, 610.488 519.966, 609.662 519.907, 609.360 519.856, 609.096 519.274, 606.084 515.602, 596.782 515.357, 596.160 515.076, 594.846 515.056, 594.751 515.052, 594.735 514.059, 590.086 514.034, 589.871 513.514, 585.333 511.622, 578.305 511.401, 576.632 511.329, 576.091 511.293, 575.820 511.204, 575.150 511.185, 575.009 511.165, 574.856 511.137, 574.646 511.104, 574.397 511.061, 574.075 511.039, 573.906 511.034, 573.870 " fill="none" stroke="rgb(0, 0, 0)" stroke-linecap="butt" stroke-linejoin="round" stroke-opacity="1.0" stroke-width="3.0" />
            <path d=" M 458.119, 611.401 456.616, 621.288 456.375, 622.875 456.168, 624.604 456.783, 634.116 457.524, 638.424 457.926, 643.291 458.818, 653.086 " fill="none" stroke="rgb(0, 0, 0)" stroke-linecap="butt" stroke-linejoin="round" stroke-opacity="1.0" stroke-width="3.0" />
            <path d=" M 871.918, 731.289 867.647, 733.419 864.623, 736.602 863.080, 738.101 856.507, 744.483 851.767, 752.716 851.869, 760.875 854.291, 763.365 855.352, 764.455 " fill="none" stroke="rgb(0, 0, 0)" stroke-linecap="butt" stroke-linejoin="round" stroke-opacity="1.0" stroke-width="3.0" />
            <path d=" M 647.386, 1013.147 651.063, 1018.556 651.503, 1019.203 652.795, 1021.104 652.796, 1021.107 653.800, 1023.173 658.183, 1032.189 665.772, 1038.700 666.044, 1038.934 669.271, 1042.160 672.547, 1045.565 673.799, 1046.867 " fill="none" stroke="rgb(0, 0, 0)" stroke-linecap="butt" stroke-linejoin="round" stroke-opacity="1.0" stroke-width="3.0" />
            <path d=" M 582.450, 512.887 577.724, 508.521 577.146, 507.987 577.053, 507.901 576.209, 507.122 576.070, 506.994 575.927, 506.861 574.661, 505.692 572.753, 503.930 568.946, 499.530 566.929, 497.470 566.401, 496.931 564.990, 495.489 563.340, 493.805 563.208, 493.669 562.292, 492.733 561.735, 492.350 559.646, 490.913 559.568, 490.849 555.024, 487.135 554.140, 486.412 553.973, 486.275 553.395, 485.847 553.194, 485.698 552.343, 485.067 550.660, 483.819 550.253, 483.517 " fill="none" stroke="rgb(0, 0, 0)" stroke-linecap="butt" stroke-linejoin="round" stroke-opacity="1.0" stroke-width="3.0" />
            <path d=" M 654.058, 667.395 655.624, 668.583 661.632, 671.285 668.348, 674.956 675.700, 680.022 682.058, 684.119 685.936, 684.109 688.518, 683.659 689.774, 682.544 689.909, 682.425 689.931, 682.406 690.500, 681.901 691.333, 681.161 691.563, 680.958 692.120, 680.464 " fill="none" stroke="rgb(0, 0, 0)" stroke-linecap="butt" stroke-linejoin="round" stroke-opacity="1.0" stroke-width="3.0" />
            <path d=" M 508.549, 788.567 509.131, 790.932 509.441, 793.300 510.297, 800.152 511.708, 810.052 511.733, 810.234 512.047, 818.248 513.013, 827.919 513.130, 831.520 514.195, 833.656 " fill="none" stroke="rgb(0, 0, 0)" stroke-linecap="butt" stroke-linejoin="round" stroke-opacity="1.0" stroke-width="3.0" />
            <path d=" M 815.723, 773.614 805.760, 774.475 802.646, 774.744 800.262, 775.113 798.446, 775.395 796.152, 775.750 795.982, 775.776 794.523, 776.002 794.191, 776.110 792.970, 776.505 792.927, 776.519 792.727, 776.584 792.519, 776.652 791.744, 776.903 790.791, 777.212 790.144, 777.421 788.996, 777.793 788.903, 777.823 788.869, 777.834 787.686, 778.218 784.131, 779.573 782.216, 780.304 778.364, 783.979 777.461, 784.840 775.276, 789.402 " fill="none" stroke="rgb(0, 0, 0)" stroke-linecap="butt" stroke-linejoin="round" stroke-opacity="1.0" stroke-width="3.0" />
            <path d=" M 531.859, 531.004 534.831, 535.986 535.830, 537.465 536.472, 538.415 539.149, 540.683 545.118, 548.706 545.802, 549.626 551.984, 557.486 552.404, 558.019 554.292, 560.675 557.196, 564.035 560.275, 567.398 " fill="none" stroke="rgb(0, 0, 0)" stroke-linecap="butt" stroke-linejoin="round" stroke-opacity="1.0" stroke-width="3.0" />
            <path d=" M 554.017, 692.786 555.881, 687.551 556.811, 683.242 554.827, 679.125 551.747, 675.095 551.336, 673.056 552.812, 670.585 553.493, 666.608 551.476, 664.596 548.850, 663.155 543.649, 662.218 541.920, 661.907 536.926, 661.691 " fill="none" stroke="rgb(0, 0, 0)" stroke-linecap="butt" stroke-linejoin="round" stroke-opacity="1.0" stroke-width="3.0" />
            <path d=" M 871.555, 767.330 870.401, 766.555 866.895, 765.594 864.125, 764.834 863.834, 764.754 863.673, 764.710 863.448, 764.648 862.765, 764.461 859.649, 763.971 855.432, 764.433 855.352, 764.455 853.151, 765.070 847.880, 766.544 841.869, 768.603 840.860, 768.523 835.907, 770.240 830.475, 770.153 825.552, 771.485 " fill="none" stroke="rgb(0, 0, 0)" stroke-linecap="butt" stroke-linejoin="round" stroke-opacity="1.0" stroke-width="3.0" />
            <path d=" M 771.336, 728.464 775.078, 737.737 775.680, 739.229 776.904, 744.316 777.372, 745.532 777.409, 745.629 778.006, 747.179 778.135, 747.513 778.155, 747.567 778.428, 748.275 778.466, 748.373 778.506, 748.480 778.511, 748.492 779.664, 751.488 780.324, 754.054 780.846, 756.085 781.341, 758.009 784.036, 758.516 785.804, 757.962 787.643, 756.875 787.665, 756.862 787.886, 756.731 788.262, 756.508 788.305, 756.483 789.878, 755.552 790.056, 755.447 790.190, 755.368 790.235, 755.341 790.243, 755.336 790.279, 755.315 790.694, 755.070 793.563, 753.372 796.459, 751.659 " fill="none" stroke="rgb(0, 0, 0)" stroke-linecap="butt" stroke-linejoin="round" stroke-opacity="1.0" stroke-width="3.0" />
            <path d=" M 741.336, 620.338 740.263, 618.402 738.241, 614.752 737.050, 612.729 737.035, 612.706 734.684, 609.213 730.756, 602.608 729.586, 599.006 725.725, 592.170 724.932, 590.589 724.647, 590.021 724.227, 589.484 721.716, 586.274 720.703, 584.946 722.845, 588.654 724.932, 590.589 " fill="none" stroke="rgb(0, 0, 0)" stroke-linecap="butt" stroke-linejoin="round" stroke-opacity="1.0" stroke-width="3.0" />
            <path d=" M 832.455, 776.496 822.465, 776.036 816.086, 775.743 808.311, 775.384 801.471, 776.413 798.261, 776.896 798.155, 776.912 797.040, 777.215 796.572, 777.343 794.774, 777.832 794.205, 777.986 794.150, 778.002 792.933, 778.333 792.329, 778.497 792.287, 778.508 792.251, 778.518 792.147, 778.547 790.802, 778.912 790.679, 778.946 790.502, 779.019 788.987, 779.642 788.918, 779.670 788.868, 779.691 785.526, 781.067 784.938, 781.308 " fill="none" stroke="rgb(0, 0, 0)" stroke-linecap="butt" stroke-linejoin="round" stroke-opacity="1.0" stroke-width="3.0" />
            <path d=" M 653.959, 632.069 647.565, 624.388 647.382, 624.318 643.794, 622.947 637.599, 617.826 633.992, 616.172 627.352, 613.467 620.745, 609.381 614.780, 606.895 613.869, 606.515 " fill="none" stroke="rgb(0, 0, 0)" stroke-linecap="butt" stroke-linejoin="round" stroke-opacity="1.0" stroke-width="3.0" />
            <path d=" M 512.955, 741.489 509.220, 732.213 507.526, 728.005 505.572, 720.133 503.597, 710.799 499.952, 701.487 498.356, 697.411 498.225, 697.076 497.652, 695.612 " fill="none" stroke="rgb(0, 0, 0)" stroke-linecap="butt" stroke-linejoin="round" stroke-opacity="1.0" stroke-width="3.0" />
            <path d=" M 529.188, 461.222 528.253, 460.979 528.101, 460.939 528.032, 460.921 525.412, 460.239 525.071, 460.150 524.966, 460.123 523.848, 459.831 522.812, 459.562 521.763, 459.586 521.002, 459.603 517.919, 459.674 514.462, 460.470 509.010, 461.947 506.576, 463.176 499.612, 466.406 496.656, 469.008 493.017, 472.036 493.863, 471.340 496.151, 469.974 497.485, 469.178 498.966, 468.294 500.265, 467.573 501.075, 467.124 501.551, 466.861 " fill="none" stroke="rgb(0, 0, 0)" stroke-linecap="butt" stroke-linejoin="round" stroke-opacity="1.0" stroke-width="3.0" />
            <path d=" M 675.902, 1056.098 674.720, 1060.456 675.371, 1065.809 677.518, 1071.390 679.410, 1075.109 680.193, 1075.891 682.938, 1078.983 687.439, 1080.664 694.399, 1082.060 703.537, 1083.731 707.297, 1081.343 " fill="none" stroke="rgb(0, 0, 0)" stroke-linecap="butt" stroke-linejoin="round" stroke-opacity="1.0" stroke-width="3.0" />
            <path d=" M 572.441, 471.969 568.601, 469.652 566.014, 468.526 557.971, 465.565 554.266, 464.373 549.882, 463.321 546.735, 463.075 542.574, 463.152 542.225, 463.159 542.047, 463.009 539.768, 461.097 536.623, 460.931 534.463, 460.911 532.879, 460.896 526.697, 460.167 523.848, 459.831 " fill="none" stroke="rgb(0, 0, 0)" stroke-linecap="butt" stroke-linejoin="round" stroke-opacity="1.0" stroke-width="3.0" />
            <path d=" M 976.809, 1023.241 979.884, 1019.828 981.640, 1017.914 983.529, 1016.470 984.687, 1012.323 988.892, 1005.035 992.747, 1000.721 995.754, 994.447 996.365, 991.452 996.534, 990.624 997.085, 987.922 997.748, 985.641 998.222, 984.012 998.648, 982.145 998.691, 981.955 998.779, 981.567 999.379, 978.938 999.433, 978.699 " fill="none" stroke="rgb(0, 0, 0)" stroke-linecap="butt" stroke-linejoin="round" stroke-opacity="1.0" stroke-width="3.0" />
            <path d=" M 616.800, 988.013 615.472, 990.531 614.789, 992.314 614.782, 992.333 614.612, 992.778 613.576, 995.481 613.780, 998.238 616.272, 1006.129 618.268, 1010.809 621.360, 1018.339 622.012, 1019.679 626.755, 1027.798 632.579, 1034.472 " fill="none" stroke="rgb(0, 0, 0)" stroke-linecap="butt" stroke-linejoin="round" stroke-opacity="1.0" stroke-width="3.0" />
            <path d=" M 589.617, 825.263 586.958, 816.792 584.542, 809.238 582.811, 800.467 582.270, 795.307 582.250, 787.831 582.396, 786.541 582.654, 784.258 581.398, 775.896 581.516, 773.305 " fill="none" stroke="rgb(0, 0, 0)" stroke-linecap="butt" stroke-linejoin="round" stroke-opacity="1.0" stroke-width="3.0" />
            <path d=" M 960.976, 811.708 961.328, 809.087 961.928, 802.591 962.348, 799.685 962.991, 791.906 963.337, 787.520 965.339, 779.879 967.540, 773.057 969.343, 767.403 971.452, 763.348 973.106, 760.164 " fill="none" stroke="rgb(0, 0, 0)" stroke-linecap="butt" stroke-linejoin="round" stroke-opacity="1.0" stroke-width="3.0" />
            <path d=" M 652.473, 577.553 650.802, 576.153 646.532, 572.576 638.616, 566.467 638.297, 566.221 635.948, 564.408 635.785, 564.264 635.738, 564.222 631.615, 560.565 630.309, 559.407 625.708, 555.053 623.658, 553.114 620.875, 550.480 619.336, 549.024 619.033, 548.741 618.977, 548.689 618.537, 548.279 616.386, 546.271 611.508, 541.720 " fill="none" stroke="rgb(0, 0, 0)" stroke-linecap="butt" stroke-linejoin="round" stroke-opacity="1.0" stroke-width="3.0" />
            <path d=" M 552.882, 694.862 552.353, 694.019 551.428, 692.544 551.394, 692.490 550.989, 691.845 550.858, 691.637 547.392, 684.939 544.956, 681.713 542.057, 677.953 541.112, 674.694 539.932, 669.220 539.434, 667.179 538.888, 664.947 536.926, 661.691 535.886, 659.966 534.702, 656.301 534.664, 656.182 533.651, 653.048 532.503, 650.857 530.375, 646.795 530.366, 646.777 530.310, 646.669 529.564, 645.247 " fill="none" stroke="rgb(0, 0, 0)" stroke-linecap="butt" stroke-linejoin="round" stroke-opacity="1.0" stroke-width="3.0" />
            <path d=" M 464.975, 699.735 464.790, 700.661 464.222, 703.493 463.817, 705.514 464.011, 715.512 464.044, 717.252 465.286, 723.535 465.604, 728.042 467.243, 730.252 469.652, 734.729 470.542, 736.973 472.233, 741.047 473.245, 748.507 477.771, 753.399 " fill="none" stroke="rgb(0, 0, 0)" stroke-linecap="butt" stroke-linejoin="round" stroke-opacity="1.0" stroke-width="3.0" />
            <path d=" M 514.812, 812.025 512.922, 803.135 512.267, 800.058 512.189, 795.635 511.807, 795.152 511.614, 794.907 510.440, 792.472 510.393, 792.375 508.571, 788.592 508.549, 788.567 504.073, 783.358 499.222, 776.591 495.645, 773.175 490.992, 769.660 495.734, 769.928 498.691, 769.971 " fill="none" stroke="rgb(0, 0, 0)" stroke-linecap="butt" stroke-linejoin="round" stroke-opacity="1.0" stroke-width="3.0" />
            <path d=" M 905.087, 860.124 898.589, 852.723 895.281, 849.557 894.704, 849.005 894.377, 848.692 894.332, 848.649 893.895, 848.231 893.874, 848.211 893.221, 847.586 889.983, 845.602 889.903, 845.554 885.470, 841.779 882.950, 839.615 882.890, 839.563 882.561, 839.281 882.254, 838.999 876.468, 833.686 873.968, 828.972 870.620, 821.149 867.149, 817.015 866.952, 816.781 " fill="none" stroke="rgb(0, 0, 0)" stroke-linecap="butt" stroke-linejoin="round" stroke-opacity="1.0" stroke-width="3.0" />
            <path d=" M 689.894, 1019.277 696.290, 1025.827 700.653, 1032.869 703.926, 1035.497 710.398, 1039.491 714.111, 1042.738 717.652, 1049.325 724.649, 1056.470 725.725, 1057.568 726.913, 1059.245 726.984, 1059.344 727.220, 1059.678 729.094, 1062.320 " fill="none" stroke="rgb(0, 0, 0)" stroke-linecap="butt" stroke-linejoin="round" stroke-opacity="1.0" stroke-width="3.0" />
            <path d=" M 682.130, 745.471 681.734, 744.723 680.855, 743.065 677.952, 737.586 673.327, 732.833 671.640, 731.778 671.431, 731.648 669.893, 731.124 665.925, 731.028 665.504, 731.130 665.053, 731.238 663.260, 732.359 662.329, 732.793 662.260, 732.825 660.017, 733.869 659.034, 734.327 651.810, 736.716 646.855, 736.488 645.037, 735.998 644.214, 736.028 643.437, 736.057 643.434, 736.057 642.997, 736.073 640.097, 736.179 638.651, 738.520 638.242, 744.517 " fill="none" stroke="rgb(0, 0, 0)" stroke-linecap="butt" stroke-linejoin="round" stroke-opacity="1.0" stroke-width="3.0" />
            <path d=" M 933.031, 687.025 929.167, 684.791 925.654, 682.382 921.135, 679.284 917.189, 676.310 910.556, 672.196 905.321, 669.723 898.687, 666.560 896.640, 665.914 891.080, 663.887 890.681, 663.742 890.355, 663.623 880.708, 660.989 879.923, 660.774 " fill="none" stroke="rgb(0, 0, 0)" stroke-linecap="butt" stroke-linejoin="round" stroke-opacity="1.0" stroke-width="3.0" />
            <path d=" M 773.802, 811.650 774.427, 817.483 774.857, 821.489 774.976, 822.603 775.777, 826.031 777.591, 833.793 778.714, 838.201 778.802, 838.545 778.805, 838.558 778.810, 838.577 779.922, 842.944 780.932, 845.810 786.324, 853.675 786.324, 853.676 786.335, 853.691 786.511, 853.948 788.491, 856.836 788.872, 857.391 791.388, 863.563 791.966, 864.180 792.278, 864.512 792.293, 864.528 792.322, 864.560 792.606, 864.862 794.370, 866.742 794.424, 866.800 " fill="none" stroke="rgb(0, 0, 0)" stroke-linecap="butt" stroke-linejoin="round" stroke-opacity="1.0" stroke-width="3.0" />
            <path d=" M 687.473, 704.500 686.401, 704.512 686.257, 704.514 685.820, 704.518 683.993, 702.607 681.429, 699.925 681.359, 699.851 681.197, 699.726 677.458, 696.820 676.465, 696.049 676.237, 695.969 672.690, 694.730 670.552, 693.847 669.521, 693.460 667.327, 692.638 663.955, 692.137 661.208, 693.472 660.141, 694.564 660.623, 695.927 663.378, 701.060 665.157, 705.444 668.557, 710.218 671.472, 713.409 675.029, 716.518 675.632, 718.082 " fill="none" stroke="rgb(0, 0, 0)" stroke-linecap="butt" stroke-linejoin="round" stroke-opacity="1.0" stroke-width="3.0" />
            <path d=" M 680.558, 757.887 680.503, 757.749 680.464, 757.648 680.247, 757.098 678.783, 753.385 675.517, 750.539 675.441, 750.472 674.267, 749.422 672.972, 748.264 669.646, 746.454 669.059, 746.571 664.582, 747.461 664.524, 747.473 663.918, 747.820 663.836, 747.867 660.087, 750.013 656.628, 751.264 651.471, 753.462 647.103, 753.985 645.568, 753.972 644.816, 753.965 643.130, 753.951 643.090, 753.951 643.073, 753.951 642.469, 753.946 639.934, 755.180 639.871, 755.210 639.372, 755.453 638.475, 757.689 637.871, 759.195 638.178, 761.219 638.676, 764.002 639.100, 766.354 639.139, 766.434 639.713, 767.644 " fill="none" stroke="rgb(0, 0, 0)" stroke-linecap="butt" stroke-linejoin="round" stroke-opacity="1.0" stroke-width="3.0" />
            <path d=" M 976.924, 1037.710 979.113, 1036.585 984.482, 1030.488 988.715, 1022.796 990.399, 1016.561 991.910, 1014.118 992.946, 1012.398 994.244, 1009.418 995.790, 1003.293 997.270, 999.846 998.389, 993.455 1000.500, 988.207 1000.689, 985.238 999.230, 982.433 " fill="none" stroke="rgb(0, 0, 0)" stroke-linecap="butt" stroke-linejoin="round" stroke-opacity="1.0" stroke-width="3.0" />
            <path d=" M 871.745, 931.890 873.181, 921.994 873.220, 921.725 874.300, 916.130 876.546, 912.643 877.802, 911.275 879.391, 908.546 876.139, 899.445 875.633, 898.979 871.574, 895.248 864.813, 890.024 859.555, 888.185 855.188, 887.647 852.056, 888.259 " fill="none" stroke="rgb(0, 0, 0)" stroke-linecap="butt" stroke-linejoin="round" stroke-opacity="1.0" stroke-width="3.0" />
            <path d=" M 825.648, 974.813 821.604, 979.184 818.795, 981.105 818.587, 981.247 815.010, 983.695 812.572, 985.364 807.129, 990.694 801.245, 994.935 791.889, 998.467 790.776, 998.888 781.112, 1001.461 780.779, 1001.550 780.458, 1001.635 777.343, 1002.464 774.500, 1002.730 773.485, 1002.890 771.751, 1003.162 771.122, 1003.261 " fill="none" stroke="rgb(0, 0, 0)" stroke-linecap="butt" stroke-linejoin="round" stroke-opacity="1.0" stroke-width="3.0" />
            <path d=" M 640.647, 839.869 639.690, 842.851 639.451, 843.751 640.230, 847.135 639.671, 851.746 637.379, 861.480 636.117, 866.843 635.420, 873.353 635.001, 876.226 634.844, 880.981 635.292, 889.320 635.696, 892.864 636.076, 895.580 636.057, 898.494 637.083, 901.988 637.116, 902.100 " fill="none" stroke="rgb(0, 0, 0)" stroke-linecap="butt" stroke-linejoin="round" stroke-opacity="1.0" stroke-width="3.0" />
            <path d=" M 929.043, 730.787 928.191, 730.469 927.197, 730.097 926.192, 729.722 926.089, 729.684 924.391, 729.050 920.640, 727.648 910.938, 725.225 908.227, 724.548 902.731, 724.147 895.648, 725.011 888.663, 725.710 881.554, 727.465 875.548, 728.938 871.918, 731.289 868.042, 733.798 " fill="none" stroke="rgb(0, 0, 0)" stroke-linecap="butt" stroke-linejoin="round" stroke-opacity="1.0" stroke-width="3.0" />
            <path d=" M 552.400, 922.852 552.441, 924.934 554.927, 931.990 555.795, 933.761 558.546, 936.857 563.117, 938.963 567.794, 943.585 573.159, 945.716 581.093, 945.691 585.952, 943.987 589.273, 940.792 594.915, 932.536 596.719, 929.897 " fill="none" stroke="rgb(0, 0, 0)" stroke-linecap="butt" stroke-linejoin="round" stroke-opacity="1.0" stroke-width="3.0" />
            <path d=" M 760.085, 622.564 757.264, 622.563 756.571, 622.222 753.627, 617.115 748.013, 608.840 747.184, 607.619 743.634, 603.602 738.112, 597.299 734.747, 593.593 731.420, 590.678 724.216, 583.743 721.854, 581.470 719.478, 580.560 718.766, 581.370 719.379, 582.675 720.703, 584.946 " fill="none" stroke="rgb(0, 0, 0)" stroke-linecap="butt" stroke-linejoin="round" stroke-opacity="1.0" stroke-width="3.0" />
            <path d=" M 678.657, 728.722 678.397, 728.050 678.395, 728.046 678.104, 727.293 676.815, 723.964 675.569, 720.745 675.569, 720.745 675.475, 720.502 675.013, 719.310 674.085, 718.147 669.831, 714.814 669.500, 714.554 669.493, 714.551 669.468, 714.542 669.425, 714.525 665.947, 713.152 665.026, 712.873 663.447, 712.691 661.304, 715.960 658.737, 718.024 657.667, 720.481 656.441, 720.736 653.021, 720.262 649.166, 719.102 645.315, 718.445 644.194, 718.535 642.520, 719.705 642.621, 723.862 642.738, 727.839 643.278, 734.400 642.997, 736.073 " fill="none" stroke="rgb(0, 0, 0)" stroke-linecap="butt" stroke-linejoin="round" stroke-opacity="1.0" stroke-width="3.0" />
            <path d=" M 651.153, 973.595 646.929, 975.224 647.097, 979.622 647.867, 980.782 648.030, 981.029 649.559, 983.332 650.773, 985.163 650.876, 985.318 650.892, 985.342 650.928, 985.596 651.094, 986.778 651.128, 987.025 651.220, 987.212 653.539, 991.918 658.265, 997.571 659.066, 998.347 660.351, 999.591 662.030, 1001.107 662.980, 1001.966 663.164, 1002.132 663.544, 1002.475 665.112, 1003.609 666.457, 1004.582 672.397, 1008.878 677.174, 1012.122 681.842, 1014.385 683.447, 1015.148 683.857, 1015.343 684.215, 1015.514 684.937, 1015.857 685.719, 1016.229 686.336, 1016.523 687.706, 1017.174 688.462, 1017.534 " fill="none" stroke="rgb(0, 0, 0)" stroke-linecap="butt" stroke-linejoin="round" stroke-opacity="1.0" stroke-width="3.0" />
            <path d=" M 770.445, 668.754 770.453, 668.217 770.454, 668.132 770.461, 667.618 770.468, 667.149 769.841, 666.620 769.405, 666.252 768.593, 665.567 767.803, 664.900 767.070, 664.598 766.986, 664.563 765.539, 663.966 761.279, 662.208 760.698, 661.969 760.608, 661.944 759.395, 661.609 758.665, 661.408 756.908, 660.923 756.894, 660.919 753.654, 660.025 753.628, 660.018 750.381, 659.122 748.714, 658.647 744.745, 657.515 740.908, 657.617 740.268, 657.499 738.990, 657.264 738.978, 657.261 738.887, 657.244 737.286, 656.949 735.636, 656.645 735.415, 656.604 735.372, 656.596 735.215, 656.515 734.239, 656.010 731.775, 654.733 729.003, 653.297 725.786, 652.304 724.268, 651.555 720.221, 649.558 718.068, 648.495 710.724, 641.708 710.582, 641.577 " fill="none" stroke="rgb(0, 0, 0)" stroke-linecap="butt" stroke-linejoin="round" stroke-opacity="1.0" stroke-width="3.0" />
            <path d=" M 614.865, 902.911 617.131, 908.096 618.221, 912.568 620.264, 917.764 622.302, 923.385 624.282, 925.593 628.663, 926.588 630.930, 925.462 631.988, 924.237 633.469, 920.511 632.059, 910.611 632.029, 910.404 630.001, 904.227 628.850, 900.951 627.514, 895.800 624.916, 888.931 " fill="none" stroke="rgb(0, 0, 0)" stroke-linecap="butt" stroke-linejoin="round" stroke-opacity="1.0" stroke-width="3.0" />
            <path d=" M 723.424, 885.904 721.537, 885.371 721.297, 885.303 717.666, 884.277 712.274, 883.261 702.887, 879.813 701.416, 879.273 698.564, 878.226 696.370, 877.420 694.124, 876.884 691.000, 876.474 685.157, 875.266 684.104, 875.128 678.598, 875.211 673.156, 876.011 667.207, 877.940 665.466, 879.243 662.784, 882.376 662.561, 882.653 661.964, 883.396 662.603, 882.875 662.877, 882.651 666.747, 880.352 " fill="none" stroke="rgb(0, 0, 0)" stroke-linecap="butt" stroke-linejoin="round" stroke-opacity="1.0" stroke-width="3.0" />
            <path d=" M 642.956, 952.234 641.901, 955.660 641.653, 956.491 641.057, 958.491 640.414, 960.652 638.724, 966.324 637.998, 975.519 637.974, 975.826 637.964, 975.955 637.888, 976.921 636.836, 980.498 636.048, 983.934 636.017, 984.070 635.764, 985.174 636.079, 988.005 636.399, 990.880 637.100, 995.552 638.185, 998.409 639.924, 1002.738 641.576, 1006.624 641.936, 1007.161 644.715, 1011.321 647.948, 1014.346 651.063, 1018.556 " fill="none" stroke="rgb(0, 0, 0)" stroke-linecap="butt" stroke-linejoin="round" stroke-opacity="1.0" stroke-width="3.0" />
            <path d=" M 616.628, 863.084 616.163, 860.973 614.520, 856.442 612.813, 851.696 610.454, 844.560 607.562, 838.432 605.456, 833.219 604.612, 831.277 602.621, 826.105 601.204, 822.551 600.025, 820.245 597.753, 813.657 596.748, 811.185 593.159, 801.852 592.720, 800.711 590.293, 791.730 590.261, 791.610 " fill="none" stroke="rgb(0, 0, 0)" stroke-linecap="butt" stroke-linejoin="round" stroke-opacity="1.0" stroke-width="3.0" />
            <path d=" M 590.826, 629.751 591.141, 629.956 598.124, 634.504 605.038, 638.274 609.846, 640.159 613.687, 642.643 617.744, 646.189 623.393, 649.468 628.040, 652.237 634.599, 655.307 641.242, 661.050 646.784, 663.791 650.045, 665.404 653.740, 667.314 654.058, 667.395 657.166, 668.180 " fill="none" stroke="rgb(0, 0, 0)" stroke-linecap="butt" stroke-linejoin="round" stroke-opacity="1.0" stroke-width="3.0" />
            <path d=" M 514.082, 833.287 514.195, 833.656 516.170, 840.093 516.065, 844.293 516.971, 851.670 517.017, 855.970 518.032, 862.448 523.074, 871.084 523.288, 871.449 528.946, 878.631 534.068, 884.473 535.967, 888.378 540.157, 894.239 545.512, 902.140 " fill="none" stroke="rgb(0, 0, 0)" stroke-linecap="butt" stroke-linejoin="round" stroke-opacity="1.0" stroke-width="3.0" />
            <path d=" M 595.872, 931.083 596.719, 929.897 602.526, 921.755 605.623, 917.414 610.109, 910.672 611.678, 907.823 613.832, 903.910 614.748, 902.597 615.652, 901.303 616.081, 900.688 616.130, 900.617 616.748, 899.732 616.844, 899.594 616.888, 899.532 617.451, 898.725 619.222, 896.188 619.296, 896.082 620.332, 894.597 622.012, 892.191 624.916, 888.931 625.287, 888.516 631.257, 880.494 632.100, 879.361 631.767, 876.539 630.715, 873.997 626.194, 870.663 624.945, 869.885 621.312, 867.396 619.493, 866.151 " fill="none" stroke="rgb(0, 0, 0)" stroke-linecap="butt" stroke-linejoin="round" stroke-opacity="1.0" stroke-width="3.0" />
            <path d=" M 712.997, 625.368 708.244, 622.384 704.635, 620.118 696.822, 613.877 695.179, 612.565 687.605, 605.948 680.011, 599.945 672.683, 593.365 664.944, 587.031 661.448, 584.170 653.399, 578.236 652.473, 577.553 652.133, 577.302 651.550, 576.872 645.612, 572.494 " fill="none" stroke="rgb(0, 0, 0)" stroke-linecap="butt" stroke-linejoin="round" stroke-opacity="1.0" stroke-width="3.0" />
            <path d=" M 661.964, 883.396 660.204, 885.212 658.098, 887.383 654.860, 890.722 653.908, 892.139 650.863, 896.671 648.495, 901.074 645.782, 908.707 644.056, 918.557 644.036, 918.671 643.756, 926.351 643.632, 929.761 643.549, 930.679 643.065, 936.055 642.527, 942.033 642.740, 947.094 642.928, 951.554 642.933, 951.695 642.956, 952.234 642.977, 952.730 643.207, 958.200 643.541, 964.212 643.541, 964.217 643.552, 964.417 " fill="none" stroke="rgb(0, 0, 0)" stroke-linecap="butt" stroke-linejoin="round" stroke-opacity="1.0" stroke-width="3.0" />
            <path d=" M 928.263, 819.021 928.195, 817.896 928.186, 817.753 928.175, 817.569 927.944, 813.757 927.445, 811.949 927.437, 811.920 927.315, 811.480 927.246, 811.383 926.114, 809.816 918.637, 804.185 914.694, 801.019 912.559, 798.786 912.504, 798.728 910.988, 797.143 908.343, 794.377 906.854, 792.821 906.172, 792.107 903.453, 789.444 901.528, 787.246 898.847, 784.464 897.717, 783.276 896.633, 782.137 894.243, 779.626 893.492, 778.987 891.529, 777.317 889.490, 773.492 888.065, 772.031 885.103, 770.477 881.103, 768.810 876.534, 769.215 875.907, 769.271 874.973, 769.353 874.574, 769.487 871.356, 770.566 871.125, 770.640 870.798, 770.744 868.892, 771.353 868.836, 771.371 868.594, 771.448 867.688, 771.738 867.575, 771.774 867.414, 771.825 866.433, 772.139 " fill="none" stroke="rgb(0, 0, 0)" stroke-linecap="butt" stroke-linejoin="round" stroke-opacity="1.0" stroke-width="3.0" />
            <path d=" M 856.397, 888.619 852.056, 888.259 843.138, 887.519 838.017, 887.049 830.433, 887.649 826.238, 887.981 818.545, 889.045 816.508, 889.326 812.098, 889.654 802.299, 891.651 799.451, 892.232 799.414, 892.239 789.640, 894.352 788.492, 894.600 786.647, 895.130 784.025, 895.884 782.548, 896.309 780.332, 897.011 780.117, 897.079 775.555, 898.526 775.349, 898.591 772.272, 899.566 770.425, 900.243 " fill="none" stroke="rgb(0, 0, 0)" stroke-linecap="butt" stroke-linejoin="round" stroke-opacity="1.0" stroke-width="3.0" />
            <path d=" M 650.802, 576.153 646.924, 572.805 639.248, 566.396 636.785, 564.339 636.766, 564.323 636.639, 564.217 635.882, 563.585 635.862, 563.568 630.567, 559.146 630.526, 559.112 625.830, 554.739 624.145, 553.171 622.365, 551.514 621.055, 550.213 619.048, 548.219 618.954, 548.127 618.696, 547.870 617.220, 546.405 610.124, 539.359 609.370, 538.610 607.732, 536.867 605.052, 534.014 603.600, 532.469 601.599, 530.338 600.991, 529.652 600.273, 528.843 597.048, 525.205 594.129, 522.978 592.412, 521.668 592.158, 521.475 590.791, 520.431 590.691, 520.355 589.751, 519.638 588.709, 518.843 587.241, 517.723 586.379, 517.065 " fill="none" stroke="rgb(0, 0, 0)" stroke-linecap="butt" stroke-linejoin="round" stroke-opacity="1.0" stroke-width="3.0" />
            <path d=" M 693.452, 682.228 699.408, 685.226 705.231, 687.630 705.581, 687.774 705.581, 687.774 705.588, 687.777 706.003, 687.948 714.521, 693.187 714.764, 693.337 714.883, 693.422 718.563, 696.057 720.708, 696.833 720.874, 696.882 720.916, 696.894 724.420, 697.924 725.163, 698.143 725.802, 698.438 725.853, 698.461 726.078, 698.565 726.091, 698.571 726.168, 698.606 726.535, 698.776 727.683, 699.305 728.796, 699.818 729.282, 700.042 729.863, 700.211 730.842, 700.496 732.130, 700.871 736.602, 701.302 740.853, 702.177 742.182, 702.450 744.923, 703.014 746.237, 703.654 747.149, 704.098 748.232, 704.625 748.785, 704.894 749.130, 705.062 750.588, 705.771 750.614, 705.784 750.642, 705.798 755.880, 710.747 756.544, 711.555 756.581, 711.600 759.410, 715.039 760.974, 716.150 761.000, 716.168 764.297, 718.510 766.198, 720.057 766.954, 720.672 767.058, 720.757 770.379, 723.458 773.518, 725.786 " fill="none" stroke="rgb(0, 0, 0)" stroke-linecap="butt" stroke-linejoin="round" stroke-opacity="1.0" stroke-width="3.0" />
            <path d=" M 929.688, 1086.720 934.058, 1083.233 939.484, 1081.543 939.848, 1081.430 943.443, 1080.311 944.034, 1079.943 944.292, 1079.782 944.440, 1079.690 944.529, 1079.635 947.038, 1078.074 950.071, 1075.439 951.614, 1074.102 954.288, 1071.785 960.465, 1063.921 960.746, 1063.562 963.643, 1058.403 966.540, 1055.122 971.927, 1048.499 972.487, 1042.466 972.603, 1041.213 972.640, 1040.813 972.764, 1039.481 972.826, 1038.804 971.598, 1031.990 971.528, 1031.551 971.417, 1030.849 971.284, 1030.014 971.164, 1029.253 971.149, 1029.159 971.147, 1029.147 971.126, 1029.014 970.958, 1027.956 970.946, 1027.582 970.673, 1018.618 969.849, 1014.316 969.269, 1011.295 " fill="none" stroke="rgb(0, 0, 0)" stroke-linecap="butt" stroke-linejoin="round" stroke-opacity="1.0" stroke-width="3.0" />
            <path d=" M 925.654, 682.382 923.860, 680.520 916.308, 674.567 909.950, 670.535 905.260, 667.877 896.325, 663.387 895.117, 662.779 885.824, 659.086 880.356, 656.913 871.495, 654.842 866.295, 654.293 862.212, 654.555 852.459, 656.765 851.751, 656.926 849.020, 657.400 845.414, 658.231 840.569, 657.652 838.437, 657.339 835.884, 657.135 " fill="none" stroke="rgb(0, 0, 0)" stroke-linecap="butt" stroke-linejoin="round" stroke-opacity="1.0" stroke-width="3.0" />
            <path d=" M 706.724, 1081.280 707.297, 1081.343 711.451, 1081.801 714.425, 1082.006 720.623, 1082.455 726.150, 1083.007 730.185, 1083.027 736.921, 1082.954 737.569, 1082.947 738.683, 1083.374 747.246, 1086.657 751.487, 1088.762 755.299, 1090.933 759.011, 1094.933 765.470, 1097.257 769.922, 1098.104 774.355, 1099.410 777.216, 1100.875 780.062, 1102.109 785.120, 1104.986 790.603, 1107.635 795.658, 1108.602 795.817, 1108.633 799.256, 1110.083 " fill="none" stroke="rgb(0, 0, 0)" stroke-linecap="butt" stroke-linejoin="round" stroke-opacity="1.0" stroke-width="3.0" />
            <path d=" M 643.756, 926.351 643.446, 926.384 642.201, 927.359 640.687, 928.543 637.901, 929.908 636.704, 930.742 632.883, 934.111 627.484, 942.528 627.225, 942.932 623.883, 949.935 621.034, 959.228 620.622, 960.571 620.094, 961.441 617.814, 965.193 616.907, 968.131 616.829, 973.148 616.828, 973.234 616.633, 976.414 616.614, 976.732 616.220, 983.159 616.167, 984.021 620.237, 993.156 621.052, 994.984 621.478, 998.799 621.551, 1005.324 621.979, 1007.355 626.520, 1016.264 626.766, 1016.745 " fill="none" stroke="rgb(0, 0, 0)" stroke-linecap="butt" stroke-linejoin="round" stroke-opacity="1.0" stroke-width="3.0" />
            <path d=" M 542.836, 897.611 545.512, 902.140 545.977, 902.928 549.826, 908.847 550.527, 909.358 555.847, 913.234 562.121, 915.993 569.080, 915.175 575.501, 913.259 579.093, 913.777 579.738, 912.169 578.467, 907.312 577.530, 897.973 575.024, 893.020 573.520, 890.206 572.030, 887.571 569.400, 882.706 568.116, 880.161 567.256, 876.900 566.527, 871.446 567.934, 866.547 565.397, 863.873 563.618, 856.908 563.589, 855.892 563.487, 852.348 " fill="none" stroke="rgb(0, 0, 0)" stroke-linecap="butt" stroke-linejoin="round" stroke-opacity="1.0" stroke-width="3.0" />
            <path d=" M 477.986, 489.419 477.682, 489.751 472.644, 495.245 469.601, 499.502 468.604, 500.832 465.687, 507.106 464.036, 511.392 462.336, 516.165 460.631, 521.452 460.066, 523.215 458.711, 533.123 458.420, 535.254 457.163, 541.754 456.005, 548.874 455.322, 558.850 455.082, 562.367 454.535, 567.956 454.513, 574.659 454.542, 576.765 454.175, 582.850 453.890, 584.541 454.348, 592.936 454.734, 595.623 " fill="none" stroke="rgb(0, 0, 0)" stroke-linecap="butt" stroke-linejoin="round" stroke-opacity="1.0" stroke-width="3.0" />
            <path d=" M 746.237, 703.654 746.816, 704.450 747.900, 705.940 748.569, 708.389 749.744, 711.744 749.761, 711.767 749.764, 711.771 751.371, 714.001 751.839, 714.645 753.095, 716.370 754.503, 716.862 755.484, 717.205 755.670, 717.270 755.768, 717.304 758.766, 718.352 763.888, 724.006 769.491, 727.116 771.336, 728.464 775.890, 731.790 779.223, 733.848 781.808, 735.443 789.155, 737.583 795.736, 737.786 797.108, 737.653 800.959, 733.844 801.669, 731.449 803.080, 725.950 803.597, 723.314 800.369, 716.190 798.198, 713.354 797.962, 713.046 796.776, 711.496 795.374, 709.664 795.311, 709.581 794.256, 708.204 794.046, 707.930 793.583, 707.325 792.958, 706.508 792.379, 705.752 790.535, 703.855 786.245, 699.443 785.699, 698.882 " fill="none" stroke="rgb(0, 0, 0)" stroke-linecap="butt" stroke-linejoin="round" stroke-opacity="1.0" stroke-width="3.0" />
            <path d=" M 827.176, 679.183 824.887, 677.650 824.167, 677.169 822.516, 676.063 821.960, 675.691 821.892, 675.645 821.499, 675.382 820.518, 674.725 820.031, 674.398 815.144, 671.396 815.121, 671.382 809.480, 667.850 801.019, 662.518 800.307, 662.069 799.419, 661.510 799.209, 661.378 793.002, 657.884 791.704, 657.153 791.201, 656.870 789.815, 656.090 789.768, 656.063 789.408, 655.861 788.336, 655.257 788.328, 655.253 788.263, 655.216 787.978, 655.085 787.669, 654.942 786.651, 654.471 786.153, 654.241 782.742, 652.665 781.824, 652.241 780.680, 651.786 780.009, 651.518 777.891, 650.676 777.402, 650.481 777.401, 650.481 777.304, 650.442 777.239, 650.417 777.162, 650.386 777.101, 650.362 776.778, 650.233 776.591, 650.159 775.916, 649.890 773.695, 649.006 772.987, 648.725 772.843, 648.667 772.768, 648.637 772.466, 648.517 772.290, 648.447 771.916, 648.298 770.425, 647.705 766.599, 646.268 766.314, 646.161 764.660, 645.540 763.276, 645.072 763.151, 645.030 763.065, 645.001 762.301, 644.743 761.389, 644.435 761.339, 644.418 760.283, 644.061 760.142, 644.013 760.140, 644.013 760.027, 643.975 759.483, 643.791 758.297, 643.390 757.255, 643.038 757.253, 643.038 757.063, 642.974 756.006, 642.616 755.760, 642.533 753.928, 641.914 753.724, 641.845 752.604, 641.502 750.554, 640.872 750.198, 640.763 748.306, 640.182 748.209, 640.153 745.750, 639.397 744.237, 638.933 744.216, 638.927 744.049, 638.875 743.834, 638.781 743.796, 638.764 743.516, 638.640 742.767, 638.309 742.279, 638.094 742.276, 638.093 742.263, 638.087 742.232, 638.073 742.064, 637.999 732.916, 633.962 732.804, 633.912 723.569, 630.074 721.499, 629.214 715.222, 626.605 " fill="none" stroke="rgb(0, 0, 0)" stroke-linecap="butt" stroke-linejoin="round" stroke-opacity="1.0" stroke-width="3.0" />
            <path d=" M 808.801, 1116.091 809.931, 1118.284 812.723, 1120.954 817.512, 1124.368 821.987, 1126.664 824.193, 1127.099 827.805, 1129.161 832.320, 1130.338 838.989, 1131.322 845.472, 1131.549 851.612, 1132.271 861.386, 1134.386 861.940, 1134.506 866.755, 1135.590 870.740, 1135.028 872.565, 1133.972 877.232, 1130.698 885.440, 1126.391 893.993, 1121.208 894.784, 1120.729 897.632, 1118.249 899.924, 1116.061 903.047, 1112.734 909.066, 1104.748 909.475, 1104.205 916.627, 1097.513 916.838, 1097.315 " fill="none" stroke="rgb(0, 0, 0)" stroke-linecap="butt" stroke-linejoin="round" stroke-opacity="1.0" stroke-width="3.0" />
            <path d=" M 969.849, 1014.316 968.864, 1004.365 968.506, 1000.748 967.186, 994.841 965.431, 988.135 963.498, 978.726 962.433, 971.944 959.711, 962.538 959.313, 959.944 959.294, 959.820 958.547, 954.942 957.526, 951.979 956.764, 946.609 956.715, 943.868 956.079, 940.684 955.419, 937.951 954.175, 928.029 954.051, 927.043 953.791, 924.964 953.591, 918.231 953.279, 911.988 952.878, 905.627 952.497, 901.444 951.960, 897.273 952.291, 887.279 952.296, 887.121 952.403, 882.567 952.241, 881.352 951.999, 879.537 951.920, 878.947 951.793, 877.992 951.783, 877.921 951.703, 877.318 " fill="none" stroke="rgb(0, 0, 0)" stroke-linecap="butt" stroke-linejoin="round" stroke-opacity="1.0" stroke-width="3.0" />
            <path d=" M 784.025, 895.884 781.768, 895.959 779.313, 896.708 779.212, 896.739 773.276, 898.551 768.986, 900.555 768.186, 901.520 766.936, 902.752 762.048, 907.569 761.541, 908.069 759.193, 909.985 754.772, 913.596 747.595, 919.455 742.512, 925.500 742.261, 925.798 740.765, 928.507 737.974, 933.415 737.266, 934.660 736.562, 935.898 734.991, 938.086 730.372, 946.955 725.752, 955.824 725.555, 956.203 722.408, 965.695 721.474, 968.515 721.430, 968.726 720.628, 972.589 718.730, 981.721 717.645, 990.480 718.762, 999.532 720.377, 1005.335 723.277, 1011.242 727.192, 1016.434 734.116, 1021.760 743.655, 1024.760 743.774, 1024.797 747.826, 1023.294 753.258, 1022.720 756.283, 1022.132 " fill="none" stroke="rgb(0, 0, 0)" stroke-linecap="butt" stroke-linejoin="round" stroke-opacity="1.0" stroke-width="3.0" />
            <path d=" M 793.563, 753.372 802.242, 748.406 807.304, 745.509 807.544, 745.365 814.329, 741.291 823.380, 737.038 824.920, 736.315 831.022, 733.679 839.737, 728.775 840.800, 728.176 847.471, 724.885 854.882, 720.786 855.424, 720.486 855.892, 720.048 856.428, 719.546 857.336, 718.696 857.795, 718.149 859.158, 716.527 859.221, 716.452 859.249, 716.418 859.398, 716.242 859.533, 716.081 863.389, 709.882 863.951, 705.608 864.400, 702.190 865.713, 692.843 864.715, 690.406 861.872, 683.467 860.628, 681.437 860.576, 681.353 860.499, 681.227 860.472, 681.182 860.465, 681.171 860.100, 680.576 855.874, 678.318 851.892, 677.553 845.456, 678.077 839.626, 678.266 839.069, 678.284 835.921, 678.649 832.134, 679.089 827.176, 679.183 818.485, 679.349 818.344, 679.352 816.826, 679.380 816.407, 679.388 816.388, 679.389 816.309, 679.390 816.291, 679.391 815.812, 679.400 813.680, 679.440 805.856, 678.407 805.811, 678.401 805.606, 678.374 804.550, 678.235 804.526, 678.232 802.535, 677.969 802.423, 677.954 802.415, 677.953 802.129, 677.915 802.075, 677.908 799.562, 677.576 798.958, 677.496 798.897, 677.488 797.867, 677.292 797.434, 677.210 797.241, 677.174 794.788, 676.707 793.019, 676.371 792.929, 676.354 792.850, 676.339 792.386, 676.250 789.824, 675.763 789.784, 675.755 787.660, 675.351 787.192, 675.263 780.572, 674.003 778.526, 673.412 778.520, 673.410 777.344, 673.070 777.155, 673.015 775.765, 672.614 775.134, 672.431 773.368, 671.921 773.321, 671.907 " fill="none" stroke="rgb(0, 0, 0)" stroke-linecap="butt" stroke-linejoin="round" stroke-opacity="1.0" stroke-width="3.0" />
        </g>
    </g>
</svg>
