<?xml version='1.0' encoding='ascii'?>
<svg xmlns="http://www.w3.org/2000/svg" height="1280" version="1.1" width="1280">
    <g id="RenderLayer_LineSet" inkscape:groupmode="lineset" inkscape:label="RenderLayer_LineSet" xmlns:inkscape="http://www.inkscape.org/namespaces/inkscape">
        <g id="strokes" inkscape:groupmode="layer" inkscape:label="strokes" xmlns:inkscape="http://www.inkscape.org/namespaces/inkscape">
            <path d=" M 860.021, 591.239 858.518, 590.388 856.019, 590.187 852.823, 589.279 848.346, 590.206 845.065, 591.061 844.311, 591.258 844.042, 592.027 843.882, 592.485 843.019, 594.951 " fill="none" stroke="rgb(0, 0, 0)" stroke-linecap="butt" stroke-linejoin="round" stroke-opacity="1.0" stroke-width="3.0" />
            <path d=" M 652.402, 828.936 650.633, 834.611 649.951, 836.796 649.724, 837.874 649.700, 837.988 649.494, 838.966 649.424, 839.298 649.353, 839.636 649.078, 841.063 649.052, 841.197 648.978, 841.582 648.960, 841.675 648.902, 841.978 648.789, 842.562 648.502, 844.055 648.565, 844.162 649.806, 846.246 649.847, 846.314 649.972, 846.525 650.190, 846.890 650.224, 846.935 650.376, 847.133 651.210, 848.224 " fill="none" stroke="rgb(0, 0, 0)" stroke-linecap="butt" stroke-linejoin="round" stroke-opacity="1.0" stroke-width="3.0" />
            <path d=" M 995.406, 690.929 994.563, 690.015 992.950, 688.268 992.013, 687.252 991.791, 687.012 989.889, 684.951 989.512, 684.852 981.109, 679.431 979.310, 678.271 " fill="none" stroke="rgb(0, 0, 0)" stroke-linecap="butt" stroke-linejoin="round" stroke-opacity="1.0" stroke-width="3.0" />
            <path d=" M 475.365, 659.527 477.950, 663.110 478.959, 664.509 479.041, 664.621 479.277, 664.949 479.533, 665.303 479.637, 665.447 480.023, 665.983 480.051, 666.022 480.062, 666.033 484.131, 670.180 484.771, 670.833 484.857, 670.920 484.894, 670.958 487.800, 673.919 487.927, 674.049 488.248, 674.375 489.017, 675.159 " fill="none" stroke="rgb(0, 0, 0)" stroke-linecap="butt" stroke-linejoin="round" stroke-opacity="1.0" stroke-width="3.0" />
            <path d=" M 618.172, 868.039 618.576, 868.872 619.808, 871.415 623.008, 876.277 624.622, 879.019 625.636, 880.699 627.906, 883.186 628.886, 885.734 " fill="none" stroke="rgb(0, 0, 0)" stroke-linecap="butt" stroke-linejoin="round" stroke-opacity="1.0" stroke-width="3.0" />
            <path d=" M 542.380, 675.569 541.267, 674.356 540.735, 673.775 538.819, 670.395 536.888, 666.987 535.136, 661.303 532.502, 657.482 " fill="none" stroke="rgb(0, 0, 0)" stroke-linecap="butt" stroke-linejoin="round" stroke-opacity="1.0" stroke-width="3.0" />
            <path d=" M 1000.825, 888.777 1001.342, 886.950 1001.348, 886.929 1001.376, 886.830 1001.408, 886.716 1001.540, 886.250 1003.544, 879.170 1003.081, 874.719 1002.897, 873.297 1003.261, 868.116 " fill="none" stroke="rgb(0, 0, 0)" stroke-linecap="butt" stroke-linejoin="round" stroke-opacity="1.0" stroke-width="3.0" />
            <path d=" M 595.138, 620.204 595.747, 620.787 596.143, 621.167 598.140, 623.081 599.192, 624.089 599.290, 624.183 599.435, 624.322 599.671, 624.548 599.758, 624.614 601.540, 625.970 603.603, 626.091 604.531, 625.568 606.264, 624.273 606.149, 620.378 606.423, 617.016 " fill="none" stroke="rgb(0, 0, 0)" stroke-linecap="butt" stroke-linejoin="round" stroke-opacity="1.0" stroke-width="3.0" />
            <path d=" M 777.580, 978.586 782.265, 982.593 784.088, 983.439 789.900, 986.139 796.264, 988.123 " fill="none" stroke="rgb(0, 0, 0)" stroke-linecap="butt" stroke-linejoin="round" stroke-opacity="1.0" stroke-width="3.0" />
            <path d=" M 558.682, 711.567 557.907, 710.452 555.478, 706.957 555.394, 706.828 555.161, 706.471 552.386, 702.221 548.795, 700.170 548.374, 699.929 543.927, 696.941 543.798, 696.854 " fill="none" stroke="rgb(0, 0, 0)" stroke-linecap="butt" stroke-linejoin="round" stroke-opacity="1.0" stroke-width="3.0" />
            <path d=" M 626.640, 957.089 627.580, 963.015 629.031, 967.033 630.430, 969.982 634.497, 975.033 635.573, 975.937 " fill="none" stroke="rgb(0, 0, 0)" stroke-linecap="butt" stroke-linejoin="round" stroke-opacity="1.0" stroke-width="3.0" />
            <path d=" M 984.779, 939.795 985.630, 939.345 992.449, 934.766 984.779, 939.795 982.152, 941.519 " fill="none" stroke="rgb(0, 0, 0)" stroke-linecap="butt" stroke-linejoin="round" stroke-opacity="1.0" stroke-width="3.0" />
            <path d=" M 1028.654, 878.628 1029.976, 879.410 1035.474, 875.659 1038.983, 870.944 1039.966, 868.152 1040.827, 865.711 1041.458, 863.921 " fill="none" stroke="rgb(0, 0, 0)" stroke-linecap="butt" stroke-linejoin="round" stroke-opacity="1.0" stroke-width="3.0" />
            <path d=" M 465.736, 596.039 467.430, 601.779 468.080, 603.417 468.267, 603.888 468.289, 603.943 468.289, 603.944 468.339, 604.069 468.372, 604.155 468.374, 604.157 468.392, 604.205 468.395, 604.211 468.406, 604.295 468.416, 604.373 468.506, 605.052 468.662, 606.229 468.678, 606.350 468.710, 606.596 468.765, 607.015 468.771, 607.059 469.206, 608.772 469.207, 608.777 469.220, 608.827 469.226, 608.852 469.409, 609.574 469.541, 610.095 469.723, 610.812 470.157, 611.647 470.305, 611.931 471.457, 614.144 472.376, 615.315 472.468, 615.433 472.505, 615.480 473.068, 616.197 " fill="none" stroke="rgb(0, 0, 0)" stroke-linecap="butt" stroke-linejoin="round" stroke-opacity="1.0" stroke-width="3.0" />
            <path d=" M 573.812, 610.464 577.825, 614.870 579.260, 615.784 583.933, 618.987 590.658, 621.405 592.191, 621.956 " fill="none" stroke="rgb(0, 0, 0)" stroke-linecap="butt" stroke-linejoin="round" stroke-opacity="1.0" stroke-width="3.0" />
            <path d=" M 505.690, 648.021 506.089, 648.918 506.494, 649.831 508.107, 653.465 509.013, 657.073 509.045, 657.197 509.344, 658.390 509.347, 658.400 509.932, 660.728 509.927, 661.362 509.894, 666.207 509.888, 667.089 509.874, 669.117 509.871, 669.555 " fill="none" stroke="rgb(0, 0, 0)" stroke-linecap="butt" stroke-linejoin="round" stroke-opacity="1.0" stroke-width="3.0" />
            <path d=" M 911.374, 876.458 917.597, 878.321 921.847, 876.579 925.381, 874.276 931.372, 872.285 932.070, 872.053 " fill="none" stroke="rgb(0, 0, 0)" stroke-linecap="butt" stroke-linejoin="round" stroke-opacity="1.0" stroke-width="3.0" />
            <path d=" M 727.754, 773.139 720.136, 769.363 719.150, 768.874 719.051, 768.835 717.682, 768.286 713.091, 766.445 708.722, 767.069 706.720, 767.356 " fill="none" stroke="rgb(0, 0, 0)" stroke-linecap="butt" stroke-linejoin="round" stroke-opacity="1.0" stroke-width="3.0" />
            <path d=" M 1008.593, 710.916 1005.338, 707.784 998.118, 700.865 996.890, 699.689 995.217, 698.871 990.981, 696.967 " fill="none" stroke="rgb(0, 0, 0)" stroke-linecap="butt" stroke-linejoin="round" stroke-opacity="1.0" stroke-width="3.0" />
            <path d=" M 1025.854, 722.768 1022.409, 718.705 1016.772, 711.907 1010.149, 706.285 " fill="none" stroke="rgb(0, 0, 0)" stroke-linecap="butt" stroke-linejoin="round" stroke-opacity="1.0" stroke-width="3.0" />
            <path d=" M 605.550, 486.552 603.196, 486.031 597.384, 486.695 590.458, 488.589 587.190, 489.550 585.680, 489.994 583.378, 490.926 " fill="none" stroke="rgb(0, 0, 0)" stroke-linecap="butt" stroke-linejoin="round" stroke-opacity="1.0" stroke-width="3.0" />
            <path d=" M 456.965, 625.163 455.960, 629.177 456.272, 634.300 456.561, 635.418 456.570, 635.453 456.577, 635.481 456.598, 635.561 456.609, 635.602 456.765, 636.205 457.189, 637.845 457.439, 638.811 457.583, 639.168 458.699, 641.933 459.322, 643.478 459.835, 644.748 461.008, 647.070 " fill="none" stroke="rgb(0, 0, 0)" stroke-linecap="butt" stroke-linejoin="round" stroke-opacity="1.0" stroke-width="3.0" />
            <path d=" M 708.257, 826.650 708.623, 828.391 708.651, 828.522 708.671, 828.619 708.690, 828.709 708.696, 828.738 708.784, 829.153 708.794, 829.204 709.093, 830.625 709.147, 830.880 709.148, 830.886 709.279, 831.506 709.375, 831.967 709.458, 832.164 709.468, 832.189 709.610, 832.527 711.263, 836.478 711.299, 836.562 711.370, 836.732 711.381, 836.759 711.357, 837.048 711.282, 837.933 711.225, 838.606 711.204, 838.654 710.264, 840.740 709.687, 842.023 709.621, 842.170 709.610, 842.299 709.462, 844.077 709.442, 844.316 709.422, 844.551 709.413, 844.662 709.387, 844.982 709.356, 845.349 709.260, 846.500 709.109, 848.319 708.929, 848.838 " fill="none" stroke="rgb(0, 0, 0)" stroke-linecap="butt" stroke-linejoin="round" stroke-opacity="1.0" stroke-width="3.0" />
            <path d=" M 841.557, 999.137 844.437, 999.407 849.050, 999.841 852.326, 1000.149 853.326, 1000.078 853.875, 999.983 856.541, 999.756 856.544, 999.756 857.410, 999.682 860.879, 999.168 862.395, 998.942 863.871, 998.723 864.716, 998.572 " fill="none" stroke="rgb(0, 0, 0)" stroke-linecap="butt" stroke-linejoin="round" stroke-opacity="1.0" stroke-width="3.0" />
            <path d=" M 1035.153, 824.837 1037.181, 819.595 1037.270, 818.723 1037.717, 814.341 1037.917, 812.381 1037.941, 812.144 1037.957, 811.990 1038.195, 809.659 1038.261, 809.007 1038.251, 808.746 1037.963, 801.828 " fill="none" stroke="rgb(0, 0, 0)" stroke-linecap="butt" stroke-linejoin="round" stroke-opacity="1.0" stroke-width="3.0" />
            <path d=" M 456.272, 634.300 456.556, 635.782 456.566, 635.833 456.578, 635.894 456.817, 637.139 456.851, 637.315 456.943, 637.797 457.813, 640.560 459.293, 644.907 463.349, 652.172 465.882, 655.415 " fill="none" stroke="rgb(0, 0, 0)" stroke-linecap="butt" stroke-linejoin="round" stroke-opacity="1.0" stroke-width="3.0" />
            <path d=" M 500.200, 672.199 501.758, 674.925 501.796, 674.991 502.138, 675.589 502.186, 675.673 502.409, 676.063 502.815, 676.773 503.201, 677.448 503.980, 678.810 504.552, 679.811 504.863, 680.447 505.735, 682.236 505.964, 682.706 506.158, 683.103 506.168, 683.124 506.274, 683.341 506.784, 684.387 506.791, 684.402 506.832, 684.485 506.927, 684.680 507.004, 684.839 508.530, 687.966 508.538, 687.983 508.567, 688.042 508.825, 688.373 509.609, 689.376 512.034, 692.480 " fill="none" stroke="rgb(0, 0, 0)" stroke-linecap="butt" stroke-linejoin="round" stroke-opacity="1.0" stroke-width="3.0" />
            <path d=" M 646.674, 625.283 647.058, 625.680 652.087, 630.875 653.790, 630.763 655.447, 629.667 656.843, 627.250 657.241, 626.261 657.886, 624.658 660.081, 623.780 662.782, 623.097 662.874, 623.074 663.608, 622.888 663.897, 622.815 664.372, 622.695 " fill="none" stroke="rgb(0, 0, 0)" stroke-linecap="butt" stroke-linejoin="round" stroke-opacity="1.0" stroke-width="3.0" />
            <path d=" M 677.559, 803.063 681.441, 804.978 688.472, 808.447 696.821, 813.952 697.066, 814.114 698.535, 815.082 " fill="none" stroke="rgb(0, 0, 0)" stroke-linecap="butt" stroke-linejoin="round" stroke-opacity="1.0" stroke-width="3.0" />
            <path d=" M 1030.556, 860.667 1028.754, 859.153 1026.834, 857.539 1026.428, 857.198 1024.807, 855.835 1023.399, 851.725 1023.776, 848.851 1023.880, 848.052 1023.747, 846.186 1028.018, 840.859 " fill="none" stroke="rgb(0, 0, 0)" stroke-linecap="butt" stroke-linejoin="round" stroke-opacity="1.0" stroke-width="3.0" />
            <path d=" M 462.184, 649.252 462.195, 649.273 463.674, 651.807 463.727, 651.898 464.263, 652.816 464.534, 653.280 464.625, 653.398 464.811, 653.637 465.177, 654.107 466.769, 656.153 466.981, 656.426 466.996, 656.445 468.123, 657.894 468.616, 658.528 468.773, 658.729 469.268, 659.365 473.828, 663.688 478.196, 667.519 " fill="none" stroke="rgb(0, 0, 0)" stroke-linecap="butt" stroke-linejoin="round" stroke-opacity="1.0" stroke-width="3.0" />
            <path d=" M 947.170, 607.119 943.735, 606.139 943.319, 606.020 942.987, 605.926 942.969, 605.921 941.947, 605.629 941.773, 605.579 940.794, 605.300 939.849, 605.030 931.252, 602.367 923.414, 603.037 " fill="none" stroke="rgb(0, 0, 0)" stroke-linecap="butt" stroke-linejoin="round" stroke-opacity="1.0" stroke-width="3.0" />
            <path d=" M 459.902, 641.703 460.958, 644.380 463.395, 649.944 464.149, 651.180 464.487, 651.733 465.366, 653.175 465.479, 653.359 468.986, 657.820 469.700, 658.729 469.738, 658.777 469.758, 658.803 469.774, 658.823 470.737, 659.866 470.967, 660.115 472.850, 662.154 472.919, 662.229 " fill="none" stroke="rgb(0, 0, 0)" stroke-linecap="butt" stroke-linejoin="round" stroke-opacity="1.0" stroke-width="3.0" />
            <path d=" M 1045.455, 859.561 1046.950, 857.831 1047.036, 857.707 1048.734, 851.012 1046.574, 848.452 1039.927, 846.373 1036.626, 842.768 " fill="none" stroke="rgb(0, 0, 0)" stroke-linecap="butt" stroke-linejoin="round" stroke-opacity="1.0" stroke-width="3.0" />
            <path d=" M 814.167, 556.719 804.183, 556.162 803.401, 556.119 798.131, 555.847 789.105, 554.709 " fill="none" stroke="rgb(0, 0, 0)" stroke-linecap="butt" stroke-linejoin="round" stroke-opacity="1.0" stroke-width="3.0" />
            <path d=" M 463.860, 610.946 463.290, 611.676 462.341, 612.892 462.270, 612.983 462.267, 612.986 461.247, 614.704 460.517, 615.934 460.295, 616.306 460.242, 616.440 460.076, 616.856 460.049, 616.923 459.943, 617.190 459.701, 617.797 459.576, 618.343 459.570, 618.370 458.087, 624.859 457.828, 629.217 458.313, 632.341 458.860, 635.064 " fill="none" stroke="rgb(0, 0, 0)" stroke-linecap="butt" stroke-linejoin="round" stroke-opacity="1.0" stroke-width="3.0" />
            <path d=" M 537.882, 636.423 538.204, 636.367 538.353, 636.341 543.521, 635.444 544.432, 635.361 545.777, 635.071 545.971, 635.029 546.866, 634.837 546.878, 634.839 549.158, 635.315 556.296, 638.676 560.764, 639.294 562.225, 638.052 562.162, 637.868 " fill="none" stroke="rgb(0, 0, 0)" stroke-linecap="butt" stroke-linejoin="round" stroke-opacity="1.0" stroke-width="3.0" />
            <path d=" M 634.375, 606.651 635.500, 607.482 638.178, 609.461 638.566, 609.747 639.482, 610.424 640.712, 612.526 641.145, 618.388 641.448, 622.509 642.773, 624.463 643.951, 625.922 644.819, 626.231 647.058, 625.680 " fill="none" stroke="rgb(0, 0, 0)" stroke-linecap="butt" stroke-linejoin="round" stroke-opacity="1.0" stroke-width="3.0" />
            <path d=" M 988.427, 681.384 985.423, 677.814 981.240, 675.987 979.196, 675.094 979.103, 675.053 978.740, 674.863 969.880, 670.226 969.027, 669.780 966.353, 667.465 " fill="none" stroke="rgb(0, 0, 0)" stroke-linecap="butt" stroke-linejoin="round" stroke-opacity="1.0" stroke-width="3.0" />
            <path d=" M 571.992, 700.077 574.397, 698.325 574.208, 694.954 572.473, 692.091 563.133, 688.296 558.130, 688.119 556.454, 687.781 " fill="none" stroke="rgb(0, 0, 0)" stroke-linecap="butt" stroke-linejoin="round" stroke-opacity="1.0" stroke-width="3.0" />
            <path d=" M 533.588, 547.846 530.510, 549.466 527.091, 551.427 524.310, 553.448 521.883, 555.614 520.834, 557.046 518.661, 560.014 516.669, 562.879 514.761, 565.810 " fill="none" stroke="rgb(0, 0, 0)" stroke-linecap="butt" stroke-linejoin="round" stroke-opacity="1.0" stroke-width="3.0" />
            <path d=" M 753.953, 695.765 752.682, 696.084 750.456, 696.644 746.234, 697.936 744.827, 699.721 743.827, 700.884 741.842, 703.308 738.331, 712.671 737.743, 714.239 " fill="none" stroke="rgb(0, 0, 0)" stroke-linecap="butt" stroke-linejoin="round" stroke-opacity="1.0" stroke-width="3.0" />
            <path d=" M 894.036, 592.473 891.193, 591.674 886.737, 591.317 882.194, 591.417 872.851, 594.981 868.483, 596.646 868.234, 596.714 " fill="none" stroke="rgb(0, 0, 0)" stroke-linecap="butt" stroke-linejoin="round" stroke-opacity="1.0" stroke-width="3.0" />
            <path d=" M 629.784, 950.511 629.030, 950.585 627.340, 952.337 626.432, 955.775 626.619, 957.026 626.640, 957.089 628.436, 962.441 631.294, 968.531 634.917, 973.895 " fill="none" stroke="rgb(0, 0, 0)" stroke-linecap="butt" stroke-linejoin="round" stroke-opacity="1.0" stroke-width="3.0" />
            <path d=" M 1043.628, 785.797 1043.613, 783.428 1042.501, 775.097 1042.017, 767.504 1041.799, 767.067 1041.029, 765.524 1038.067, 759.588 " fill="none" stroke="rgb(0, 0, 0)" stroke-linecap="butt" stroke-linejoin="round" stroke-opacity="1.0" stroke-width="3.0" />
            <path d=" M 654.515, 800.805 654.264, 806.668 653.134, 816.604 652.643, 820.922 651.507, 826.535 651.703, 828.050 651.764, 828.521 " fill="none" stroke="rgb(0, 0, 0)" stroke-linecap="butt" stroke-linejoin="round" stroke-opacity="1.0" stroke-width="3.0" />
            <path d=" M 665.457, 607.325 670.731, 609.040 674.162, 610.156 680.096, 611.502 689.185, 614.053 692.437, 615.347 " fill="none" stroke="rgb(0, 0, 0)" stroke-linecap="butt" stroke-linejoin="round" stroke-opacity="1.0" stroke-width="3.0" />
            <path d=" M 723.468, 518.909 717.194, 519.376 709.854, 521.211 705.733, 522.310 700.604, 523.750 695.770, 523.676 " fill="none" stroke="rgb(0, 0, 0)" stroke-linecap="butt" stroke-linejoin="round" stroke-opacity="1.0" stroke-width="3.0" />
            <path d=" M 754.997, 608.771 761.812, 612.804 761.861, 612.833 762.540, 613.235 764.191, 615.029 765.212, 616.138 765.299, 616.232 765.381, 616.408 765.529, 616.724 767.622, 621.191 769.649, 627.798 772.327, 629.516 " fill="none" stroke="rgb(0, 0, 0)" stroke-linecap="butt" stroke-linejoin="round" stroke-opacity="1.0" stroke-width="3.0" />
            <path d=" M 628.902, 885.651 628.902, 885.773 628.902, 886.096 628.901, 896.096 628.901, 898.691 629.224, 899.745 633.329, 908.863 634.856, 912.255 635.116, 912.834 " fill="none" stroke="rgb(0, 0, 0)" stroke-linecap="butt" stroke-linejoin="round" stroke-opacity="1.0" stroke-width="3.0" />
            <path d=" M 601.985, 604.957 605.203, 611.690 605.337, 611.823 606.563, 613.040 608.367, 614.830 608.515, 614.977 608.634, 615.095 608.655, 615.116 611.472, 617.912 616.622, 622.076 618.393, 621.013 620.009, 617.779 " fill="none" stroke="rgb(0, 0, 0)" stroke-linecap="butt" stroke-linejoin="round" stroke-opacity="1.0" stroke-width="3.0" />
            <path d=" M 810.774, 993.703 814.455, 994.062 817.218, 994.688 819.305, 995.160 819.306, 995.161 821.419, 995.639 822.404, 995.862 823.226, 995.971 823.386, 995.992 824.085, 996.085 824.227, 996.103 824.692, 996.165 824.703, 996.167 828.819, 996.712 834.227, 997.428 834.695, 997.490 834.814, 997.506 838.751, 998.027 839.091, 998.072 " fill="none" stroke="rgb(0, 0, 0)" stroke-linecap="butt" stroke-linejoin="round" stroke-opacity="1.0" stroke-width="3.0" />
            <path d=" M 571.964, 607.952 572.297, 607.995 576.482, 608.536 576.612, 608.553 580.524, 609.059 581.658, 608.967 583.533, 608.816 586.965, 612.138 587.571, 613.072 587.575, 613.078 588.717, 614.838 592.106, 618.049 593.555, 619.423 594.359, 620.178 595.747, 620.787 " fill="none" stroke="rgb(0, 0, 0)" stroke-linecap="butt" stroke-linejoin="round" stroke-opacity="1.0" stroke-width="3.0" />
            <path d=" M 859.560, 998.869 863.725, 998.705 864.716, 998.572 870.850, 997.746 872.321, 997.548 880.495, 995.122 881.995, 994.677 885.451, 993.665 886.280, 993.422 887.806, 992.976 " fill="none" stroke="rgb(0, 0, 0)" stroke-linecap="butt" stroke-linejoin="round" stroke-opacity="1.0" stroke-width="3.0" />
            <path d=" M 907.693, 980.293 908.630, 979.644 911.451, 977.689 914.745, 975.408 914.840, 975.342 915.742, 974.717 923.662, 968.611 924.269, 968.142 931.502, 963.302 " fill="none" stroke="rgb(0, 0, 0)" stroke-linecap="butt" stroke-linejoin="round" stroke-opacity="1.0" stroke-width="3.0" />
            <path d=" M 683.826, 573.092 685.940, 571.019 686.189, 570.775 687.340, 569.646 687.403, 569.585 687.880, 569.117 690.125, 568.368 690.884, 568.115 693.249, 567.325 700.278, 566.693 710.144, 568.328 711.063, 568.481 " fill="none" stroke="rgb(0, 0, 0)" stroke-linecap="butt" stroke-linejoin="round" stroke-opacity="1.0" stroke-width="3.0" />
            <path d=" M 1036.011, 847.365 1036.002, 847.334 1035.603, 845.969 1035.139, 844.379 1035.453, 840.349 1035.504, 839.695 1035.507, 839.663 1035.663, 837.658 1035.701, 837.173 1035.813, 836.644 1036.896, 831.561 1038.354, 826.467 1038.971, 824.310 1039.872, 820.708 1039.604, 818.990 1039.499, 818.666 " fill="none" stroke="rgb(0, 0, 0)" stroke-linecap="butt" stroke-linejoin="round" stroke-opacity="1.0" stroke-width="3.0" />
            <path d=" M 463.202, 648.668 463.394, 649.001 465.677, 652.957 465.936, 653.406 466.227, 653.911 470.517, 659.243 470.642, 659.399 471.335, 660.260 471.498, 660.463 472.115, 661.229 472.879, 662.179 472.919, 662.229 473.139, 662.449 478.196, 667.519 479.245, 668.570 482.337, 670.745 " fill="none" stroke="rgb(0, 0, 0)" stroke-linecap="butt" stroke-linejoin="round" stroke-opacity="1.0" stroke-width="3.0" />
            <path d=" M 812.482, 1012.726 817.781, 1013.115 820.057, 1013.437 825.018, 1012.259 825.759, 1011.879 830.912, 1009.236 836.014, 1003.994 837.295, 1001.713 837.379, 1001.500 " fill="none" stroke="rgb(0, 0, 0)" stroke-linecap="butt" stroke-linejoin="round" stroke-opacity="1.0" stroke-width="3.0" />
            <path d=" M 587.190, 489.550 581.854, 490.103 575.735, 495.049 573.733, 498.513 573.305, 499.724 572.237, 502.745 571.961, 503.856 571.688, 504.951 571.940, 503.894 572.737, 500.538 573.305, 499.724 " fill="none" stroke="rgb(0, 0, 0)" stroke-linecap="butt" stroke-linejoin="round" stroke-opacity="1.0" stroke-width="3.0" />
            <path d=" M 779.503, 885.777 787.458, 885.120 794.694, 886.986 800.238, 884.668 800.293, 884.645 801.829, 884.550 807.711, 884.189 808.385, 884.147 " fill="none" stroke="rgb(0, 0, 0)" stroke-linecap="butt" stroke-linejoin="round" stroke-opacity="1.0" stroke-width="3.0" />
            <path d=" M 827.903, 998.225 828.500, 998.570 828.547, 998.597 828.871, 998.784 828.951, 998.830 833.515, 1001.464 837.379, 1001.500 839.584, 1001.521 842.144, 1002.043 846.065, 1001.911 848.540, 1002.037 849.520, 1001.879 854.962, 1000.836 856.408, 999.849 " fill="none" stroke="rgb(0, 0, 0)" stroke-linecap="butt" stroke-linejoin="round" stroke-opacity="1.0" stroke-width="3.0" />
            <path d=" M 712.266, 924.957 714.975, 928.519 716.472, 929.944 720.003, 933.303 723.193, 936.742 730.203, 943.873 731.336, 945.026 733.041, 946.759 " fill="none" stroke="rgb(0, 0, 0)" stroke-linecap="butt" stroke-linejoin="round" stroke-opacity="1.0" stroke-width="3.0" />
            <path d=" M 813.881, 883.478 820.293, 883.557 820.428, 883.559 820.458, 883.559 823.523, 884.023 823.573, 884.031 823.588, 884.033 832.858, 885.436 835.691, 884.665 841.402, 882.324 843.513, 881.809 " fill="none" stroke="rgb(0, 0, 0)" stroke-linecap="butt" stroke-linejoin="round" stroke-opacity="1.0" stroke-width="3.0" />
            <path d=" M 690.586, 614.406 692.437, 615.347 698.926, 618.648 701.194, 620.627 705.561, 622.414 708.207, 624.191 715.357, 625.666 718.165, 626.246 " fill="none" stroke="rgb(0, 0, 0)" stroke-linecap="butt" stroke-linejoin="round" stroke-opacity="1.0" stroke-width="3.0" />
            <path d=" M 1009.826, 906.736 1013.220, 900.359 1015.196, 896.647 1019.265, 889.886 1020.590, 886.769 1020.653, 886.573 1020.774, 886.194 1020.910, 885.771 1022.977, 879.314 " fill="none" stroke="rgb(0, 0, 0)" stroke-linecap="butt" stroke-linejoin="round" stroke-opacity="1.0" stroke-width="3.0" />
            <path d=" M 565.377, 711.789 565.322, 711.535 565.217, 711.049 565.173, 710.848 565.042, 710.241 564.974, 709.926 564.901, 709.590 564.857, 709.384 564.710, 709.170 559.375, 701.396 557.015, 697.958 554.716, 693.967 551.754, 688.826 551.470, 688.333 551.275, 687.995 550.075, 685.914 550.043, 685.857 549.943, 685.683 549.887, 685.587 " fill="none" stroke="rgb(0, 0, 0)" stroke-linecap="butt" stroke-linejoin="round" stroke-opacity="1.0" stroke-width="3.0" />
            <path d=" M 715.802, 922.584 716.452, 922.388 718.771, 921.690 723.936, 918.748 724.155, 918.316 724.205, 918.217 726.410, 913.859 726.941, 912.809 726.967, 912.758 727.013, 912.668 727.027, 912.639 727.037, 912.620 727.792, 911.128 732.833, 905.380 735.876, 902.098 736.713, 901.372 " fill="none" stroke="rgb(0, 0, 0)" stroke-linecap="butt" stroke-linejoin="round" stroke-opacity="1.0" stroke-width="3.0" />
            <path d=" M 848.044, 593.575 847.558, 593.708 845.822, 594.183 845.534, 594.262 843.333, 594.865 843.019, 594.951 841.134, 595.468 838.462, 596.683 837.327, 598.788 836.161, 603.216 833.590, 607.176 831.436, 609.838 829.314, 611.457 827.273, 613.814 " fill="none" stroke="rgb(0, 0, 0)" stroke-linecap="butt" stroke-linejoin="round" stroke-opacity="1.0" stroke-width="3.0" />
            <path d=" M 511.059, 656.337 511.305, 659.562 511.306, 659.576 511.335, 659.949 511.335, 659.950 511.589, 663.276 511.815, 666.050 512.112, 669.697 512.133, 669.966 512.139, 670.038 512.147, 670.137 512.148, 670.139 512.189, 670.651 512.209, 670.897 512.210, 670.903 512.223, 671.063 512.291, 671.901 512.305, 672.074 512.335, 672.445 512.347, 672.594 512.348, 672.615 512.350, 672.724 512.350, 672.755 512.351, 672.789 512.352, 672.828 512.357, 673.083 512.362, 673.356 512.364, 673.450 512.365, 673.549 512.367, 673.615 512.384, 674.535 512.391, 674.928 512.410, 675.903 512.412, 676.031 512.418, 676.326 512.430, 676.995 512.440, 677.497 512.450, 678.040 512.451, 678.079 512.454, 678.236 512.459, 678.512 512.468, 678.988 512.468, 679.015 512.477, 679.452 512.477, 679.475 512.482, 679.712 512.497, 680.560 512.507, 681.064 512.516, 681.520 512.516, 681.550 512.528, 682.170 512.529, 682.236 512.316, 685.431 512.184, 687.422 " fill="none" stroke="rgb(0, 0, 0)" stroke-linecap="butt" stroke-linejoin="round" stroke-opacity="1.0" stroke-width="3.0" />
            <path d=" M 1046.753, 852.807 1046.261, 852.146 1044.923, 850.353 1044.729, 850.195 1041.348, 847.450 1037.649, 844.961 1036.626, 842.768 1036.016, 841.461 1035.968, 841.359 1035.771, 840.936 1035.737, 840.864 1035.746, 840.815 1035.882, 840.021 1035.916, 839.823 1037.053, 833.203 1038.354, 826.467 " fill="none" stroke="rgb(0, 0, 0)" stroke-linecap="butt" stroke-linejoin="round" stroke-opacity="1.0" stroke-width="3.0" />
            <path d=" M 494.541, 594.266 493.514, 593.490 491.575, 590.950 490.438, 589.461 489.933, 588.800 489.800, 588.392 489.650, 587.934 487.681, 581.898 486.854, 580.412 484.594, 578.411 483.272, 576.424 481.443, 574.642 476.020, 572.856 474.616, 573.593 " fill="none" stroke="rgb(0, 0, 0)" stroke-linecap="butt" stroke-linejoin="round" stroke-opacity="1.0" stroke-width="3.0" />
            <path d=" M 653.089, 513.004 648.259, 508.413 644.210, 506.186 643.961, 506.049 638.380, 501.553 638.304, 501.492 634.338, 496.878 631.438, 495.895 629.686, 494.403 628.751, 493.606 " fill="none" stroke="rgb(0, 0, 0)" stroke-linecap="butt" stroke-linejoin="round" stroke-opacity="1.0" stroke-width="3.0" />
            <path d=" M 766.362, 889.240 766.438, 889.220 767.342, 888.976 767.652, 888.892 771.917, 887.741 772.361, 887.621 777.736, 887.646 783.186, 887.671 793.186, 887.678 793.307, 887.678 797.754, 887.121 " fill="none" stroke="rgb(0, 0, 0)" stroke-linecap="butt" stroke-linejoin="round" stroke-opacity="1.0" stroke-width="3.0" />
            <path d=" M 742.076, 958.840 746.677, 960.853 754.733, 964.378 754.876, 964.441 762.159, 969.387 769.664, 974.594 " fill="none" stroke="rgb(0, 0, 0)" stroke-linecap="butt" stroke-linejoin="round" stroke-opacity="1.0" stroke-width="3.0" />
            <path d=" M 838.430, 882.638 843.513, 881.809 846.325, 881.350 856.316, 880.930 858.281, 880.847 865.634, 879.741 870.200, 878.785 " fill="none" stroke="rgb(0, 0, 0)" stroke-linecap="butt" stroke-linejoin="round" stroke-opacity="1.0" stroke-width="3.0" />
            <path d=" M 632.828, 756.707 632.425, 756.416 628.629, 753.671 620.953, 751.880 614.375, 751.717 609.027, 752.798 608.591, 752.886 608.246, 752.956 608.224, 752.966 605.903, 753.987 605.165, 754.493 604.914, 754.665 602.785, 756.124 " fill="none" stroke="rgb(0, 0, 0)" stroke-linecap="butt" stroke-linejoin="round" stroke-opacity="1.0" stroke-width="3.0" />
            <path d=" M 1040.372, 758.065 1039.939, 756.597 1037.704, 746.850 1037.395, 745.499 1035.031, 741.079 1034.317, 739.744 1032.242, 735.865 1031.745, 734.936 1027.223, 729.114 " fill="none" stroke="rgb(0, 0, 0)" stroke-linecap="butt" stroke-linejoin="round" stroke-opacity="1.0" stroke-width="3.0" />
            <path d=" M 494.256, 680.816 496.480, 683.496 501.018, 688.962 504.498, 693.154 509.148, 697.629 516.354, 704.564 516.535, 704.739 " fill="none" stroke="rgb(0, 0, 0)" stroke-linecap="butt" stroke-linejoin="round" stroke-opacity="1.0" stroke-width="3.0" />
            <path d=" M 617.164, 604.057 617.860, 606.241 618.685, 612.570 619.340, 613.813 620.509, 616.032 620.732, 616.454 621.080, 617.115 622.923, 620.612 625.114, 622.632 629.775, 624.380 632.176, 623.225 634.573, 619.484 " fill="none" stroke="rgb(0, 0, 0)" stroke-linecap="butt" stroke-linejoin="round" stroke-opacity="1.0" stroke-width="3.0" />
            <path d=" M 803.789, 992.708 800.691, 1002.216 800.611, 1002.460 800.033, 1005.022 800.550, 1009.134 802.060, 1011.282 804.707, 1011.732 807.241, 1012.769 812.482, 1012.726 815.093, 1012.704 " fill="none" stroke="rgb(0, 0, 0)" stroke-linecap="butt" stroke-linejoin="round" stroke-opacity="1.0" stroke-width="3.0" />
            <path d=" M 857.736, 684.882 857.423, 684.860 857.019, 684.831 855.019, 684.687 854.187, 684.843 853.983, 685.104 853.472, 685.757 852.930, 686.448 850.242, 689.845 849.947, 690.218 846.764, 692.337 845.199, 694.086 844.710, 695.022 844.230, 696.881 843.583, 699.390 843.269, 700.606 843.188, 700.948 843.175, 700.999 843.139, 701.151 842.870, 702.281 841.446, 708.261 840.971, 710.257 " fill="none" stroke="rgb(0, 0, 0)" stroke-linecap="butt" stroke-linejoin="round" stroke-opacity="1.0" stroke-width="3.0" />
            <path d=" M 877.881, 877.915 881.782, 877.696 888.140, 877.339 898.096, 876.396 898.422, 876.365 905.621, 876.558 911.374, 876.458 911.773, 876.451 " fill="none" stroke="rgb(0, 0, 0)" stroke-linecap="butt" stroke-linejoin="round" stroke-opacity="1.0" stroke-width="3.0" />
            <path d=" M 697.057, 879.901 697.119, 881.035 697.135, 881.325 697.156, 881.701 697.166, 881.878 697.361, 885.388 697.248, 886.383 697.228, 886.561 697.226, 886.580 697.161, 887.149 697.135, 887.378 697.034, 888.272 697.011, 888.479 697.006, 888.524 696.951, 889.007 696.940, 889.106 696.761, 890.683 696.680, 891.406 696.658, 891.599 696.649, 891.674 696.642, 891.736 696.633, 891.816 696.587, 892.223 696.565, 892.419 697.038, 894.061 697.062, 894.145 697.726, 896.450 700.867, 905.841 701.781, 908.249 702.272, 909.545 702.319, 909.668 702.347, 909.743 702.441, 909.989 702.445, 910.002 703.510, 912.808 " fill="none" stroke="rgb(0, 0, 0)" stroke-linecap="butt" stroke-linejoin="round" stroke-opacity="1.0" stroke-width="3.0" />
            <path d=" M 625.399, 783.843 630.632, 775.322 630.871, 774.933 635.784, 766.223 637.909, 762.456 638.310, 761.745 637.849, 759.353 634.384, 757.072 632.425, 756.416 " fill="none" stroke="rgb(0, 0, 0)" stroke-linecap="butt" stroke-linejoin="round" stroke-opacity="1.0" stroke-width="3.0" />
            <path d=" M 1039.641, 817.092 1041.128, 814.384 1042.161, 810.883 1042.168, 806.945 1042.172, 804.439 1042.671, 801.402 1043.001, 799.393 1043.075, 796.949 1043.198, 792.890 1043.198, 792.889 1043.487, 788.117 1043.628, 785.797 1043.538, 788.534 " fill="none" stroke="rgb(0, 0, 0)" stroke-linecap="butt" stroke-linejoin="round" stroke-opacity="1.0" stroke-width="3.0" />
            <path d=" M 581.541, 723.810 577.912, 720.768 574.483, 716.939 572.602, 713.798 569.860, 710.444 568.822, 709.115 568.531, 708.742 568.526, 708.737 567.398, 707.291 566.564, 706.224 565.930, 705.227 565.831, 705.071 565.655, 704.794 562.877, 700.426 560.519, 696.465 560.477, 696.394 " fill="none" stroke="rgb(0, 0, 0)" stroke-linecap="butt" stroke-linejoin="round" stroke-opacity="1.0" stroke-width="3.0" />
            <path d=" M 634.856, 912.255 635.991, 921.116 636.442, 926.329 637.138, 930.804 638.375, 936.719 638.395, 936.814 638.389, 936.831 637.772, 938.406 637.151, 940.989 636.559, 943.610 635.873, 946.349 635.671, 947.153 635.647, 947.252 " fill="none" stroke="rgb(0, 0, 0)" stroke-linecap="butt" stroke-linejoin="round" stroke-opacity="1.0" stroke-width="3.0" />
            <path d=" M 908.283, 987.633 908.529, 987.656 909.083, 987.706 909.143, 987.712 911.777, 987.952 912.392, 988.427 912.444, 988.468 915.560, 990.879 915.609, 990.918 916.553, 991.648 917.115, 994.856 916.554, 999.437 916.948, 999.974 917.580, 1000.835 918.249, 1001.746 922.025, 1001.160 928.607, 997.045 931.911, 994.976 " fill="none" stroke="rgb(0, 0, 0)" stroke-linecap="butt" stroke-linejoin="round" stroke-opacity="1.0" stroke-width="3.0" />
            <path d=" M 669.224, 958.690 670.263, 957.426 674.506, 952.266 674.555, 952.203 674.936, 951.716 675.085, 951.526 677.043, 949.026 679.489, 946.620 680.724, 945.334 683.106, 942.858 686.571, 939.759 694.908, 934.235 695.069, 934.129 " fill="none" stroke="rgb(0, 0, 0)" stroke-linecap="butt" stroke-linejoin="round" stroke-opacity="1.0" stroke-width="3.0" />
            <path d=" M 965.905, 629.507 967.195, 629.004 967.938, 627.235 967.046, 622.489 966.369, 621.136 966.361, 621.120 964.965, 618.333 965.736, 621.495 965.751, 621.557 965.843, 621.935 966.238, 623.788 966.076, 625.235 966.005, 627.011 965.986, 627.500 965.976, 627.742 965.930, 628.885 965.905, 629.507 965.873, 630.313 964.849, 631.801 964.571, 632.203 964.552, 632.231 963.257, 634.112 961.271, 636.996 960.184, 640.209 " fill="none" stroke="rgb(0, 0, 0)" stroke-linecap="butt" stroke-linejoin="round" stroke-opacity="1.0" stroke-width="3.0" />
            <path d=" M 826.138, 688.234 824.964, 689.062 822.333, 690.915 822.180, 691.023 821.205, 691.710 820.770, 692.016 820.547, 692.173 819.467, 692.935 817.167, 693.788 816.135, 694.170 810.338, 696.320 808.587, 696.969 807.021, 697.549 806.905, 697.593 806.389, 697.784 805.315, 698.182 804.770, 698.384 804.093, 698.314 803.127, 698.215 800.578, 697.952 800.538, 697.948 799.727, 697.864 799.397, 697.830 797.834, 697.669 795.642, 695.782 796.208, 692.943 " fill="none" stroke="rgb(0, 0, 0)" stroke-linecap="butt" stroke-linejoin="round" stroke-opacity="1.0" stroke-width="3.0" />
            <path d=" M 1016.370, 711.190 1013.095, 707.314 1007.830, 702.530 1006.250, 700.605 1006.016, 700.319 1001.797, 695.177 999.552, 692.440 995.612, 689.600 995.331, 689.216 991.764, 684.341 " fill="none" stroke="rgb(0, 0, 0)" stroke-linecap="butt" stroke-linejoin="round" stroke-opacity="1.0" stroke-width="3.0" />
            <path d=" M 992.449, 934.766 994.930, 931.917 997.475, 929.411 1003.724, 921.604 1004.582, 920.531 1005.079, 918.568 1006.964, 916.221 1009.099, 909.143 1009.826, 906.736 1009.866, 906.603 1009.880, 906.553 1009.883, 906.546 1010.806, 903.484 " fill="none" stroke="rgb(0, 0, 0)" stroke-linecap="butt" stroke-linejoin="round" stroke-opacity="1.0" stroke-width="3.0" />
            <path d=" M 562.681, 617.784 565.107, 618.386 568.056, 620.036 570.500, 621.684 572.381, 622.571 573.393, 623.048 574.512, 623.576 575.997, 624.012 577.287, 624.391 583.373, 626.771 587.744, 628.354 589.159, 628.072 592.489, 624.755 590.838, 621.683 590.658, 621.405 " fill="none" stroke="rgb(0, 0, 0)" stroke-linecap="butt" stroke-linejoin="round" stroke-opacity="1.0" stroke-width="3.0" />
            <path d=" M 665.341, 786.954 663.353, 787.757 658.087, 790.138 658.583, 794.194 661.210, 796.358 663.786, 797.383 666.398, 799.374 671.596, 801.736 676.545, 803.749 681.441, 804.978 " fill="none" stroke="rgb(0, 0, 0)" stroke-linecap="butt" stroke-linejoin="round" stroke-opacity="1.0" stroke-width="3.0" />
            <path d=" M 924.057, 611.389 923.483, 609.340 917.247, 605.200 911.875, 601.947 907.472, 599.136 905.041, 597.584 899.305, 594.507 896.456, 593.056 894.036, 592.473 892.540, 592.112 " fill="none" stroke="rgb(0, 0, 0)" stroke-linecap="butt" stroke-linejoin="round" stroke-opacity="1.0" stroke-width="3.0" />
            <path d=" M 678.277, 1014.838 674.590, 1013.876 670.485, 1012.354 676.229, 1014.609 681.374, 1015.851 683.888, 1015.038 685.997, 1014.538 687.829, 1013.843 689.049, 1012.908 690.269, 1012.166 691.914, 1011.135 692.848, 1011.112 694.524, 1009.970 695.049, 1008.809 695.235, 1007.651 695.361, 1006.871 695.406, 1006.586 695.431, 1006.432 " fill="none" stroke="rgb(0, 0, 0)" stroke-linecap="butt" stroke-linejoin="round" stroke-opacity="1.0" stroke-width="3.0" />
            <path d=" M 875.616, 993.823 878.609, 993.136 878.674, 993.121 883.785, 991.949 884.229, 991.802 884.410, 991.743 888.100, 990.522 888.243, 990.494 888.919, 990.361 889.832, 990.182 890.338, 990.083 890.905, 989.972 891.785, 989.799 895.518, 989.066 895.585, 989.014 895.596, 989.006 897.796, 987.297 898.239, 986.953 899.403, 986.049 899.706, 985.814 899.972, 985.607 901.148, 984.694 901.214, 984.643 901.746, 984.328 906.367, 981.593 910.154, 979.331 " fill="none" stroke="rgb(0, 0, 0)" stroke-linecap="butt" stroke-linejoin="round" stroke-opacity="1.0" stroke-width="3.0" />
            <path d=" M 967.996, 673.704 966.976, 669.424 966.695, 668.541 966.525, 668.006 966.353, 667.465 965.454, 664.640 963.364, 658.402 962.604, 656.340 961.278, 653.291 959.676, 645.396 959.445, 644.371 959.178, 643.184 958.961, 642.221 958.820, 641.829 958.755, 641.650 958.435, 640.763 958.354, 640.537 957.840, 639.114 957.534, 638.266 957.506, 638.186 957.122, 637.123 " fill="none" stroke="rgb(0, 0, 0)" stroke-linecap="butt" stroke-linejoin="round" stroke-opacity="1.0" stroke-width="3.0" />
            <path d=" M 550.816, 629.579 550.911, 629.526 551.682, 629.091 553.788, 627.904 553.947, 627.858 553.985, 627.848 555.038, 627.547 555.939, 627.290 558.419, 627.673 563.835, 630.466 573.551, 632.834 575.823, 633.388 580.290, 632.965 578.101, 627.585 576.789, 626.251 " fill="none" stroke="rgb(0, 0, 0)" stroke-linecap="butt" stroke-linejoin="round" stroke-opacity="1.0" stroke-width="3.0" />
            <path d=" M 931.372, 872.285 936.150, 872.286 941.025, 871.124 941.603, 870.986 946.418, 869.324 953.603, 865.281 960.580, 860.771 961.905, 860.523 965.490, 860.617 966.011, 860.631 966.120, 860.634 966.500, 860.482 966.661, 860.418 967.509, 860.080 968.261, 859.781 " fill="none" stroke="rgb(0, 0, 0)" stroke-linecap="butt" stroke-linejoin="round" stroke-opacity="1.0" stroke-width="3.0" />
            <path d=" M 732.495, 630.961 733.849, 631.457 737.494, 632.793 741.849, 633.514 746.575, 635.275 751.497, 636.993 756.284, 638.397 759.748, 639.430 763.813, 640.780 768.925, 642.627 771.374, 643.419 " fill="none" stroke="rgb(0, 0, 0)" stroke-linecap="butt" stroke-linejoin="round" stroke-opacity="1.0" stroke-width="3.0" />
            <path d=" M 595.330, 835.131 596.239, 836.665 600.565, 843.334 603.318, 848.027 606.964, 852.979 612.678, 861.186 614.026, 863.121 616.685, 866.416 618.576, 868.872 " fill="none" stroke="rgb(0, 0, 0)" stroke-linecap="butt" stroke-linejoin="round" stroke-opacity="1.0" stroke-width="3.0" />
            <path d=" M 514.169, 626.306 512.810, 623.911 509.927, 618.829 508.032, 614.452 504.225, 609.914 503.228, 604.259 501.941, 599.375 500.780, 597.281 498.036, 595.703 496.869, 595.223 494.541, 594.266 493.832, 593.975 493.735, 593.935 493.120, 593.682 492.896, 593.590 492.879, 593.583 492.716, 593.516 " fill="none" stroke="rgb(0, 0, 0)" stroke-linecap="butt" stroke-linejoin="round" stroke-opacity="1.0" stroke-width="3.0" />
            <path d=" M 740.442, 516.510 739.999, 516.480 730.007, 516.877 728.913, 516.920 735.350, 517.458 738.783, 516.653 740.442, 516.510 743.556, 516.242 749.644, 517.489 756.163, 520.254 757.874, 521.500 " fill="none" stroke="rgb(0, 0, 0)" stroke-linecap="butt" stroke-linejoin="round" stroke-opacity="1.0" stroke-width="3.0" />
            <path d=" M 682.142, 949.508 685.787, 943.758 688.238, 940.874 690.727, 938.819 693.386, 937.397 694.197, 936.280 694.213, 936.257 694.292, 936.216 701.680, 932.333 702.349, 932.037 707.108, 930.675 711.613, 929.939 716.133, 929.933 716.472, 929.944 " fill="none" stroke="rgb(0, 0, 0)" stroke-linecap="butt" stroke-linejoin="round" stroke-opacity="1.0" stroke-width="3.0" />
            <path d=" M 459.387, 628.432 460.282, 634.135 461.233, 638.880 461.749, 641.459 464.084, 646.384 467.762, 651.624 471.172, 656.079 474.511, 660.812 474.699, 661.079 474.865, 661.313 474.922, 661.395 475.713, 662.516 475.967, 662.876 476.540, 663.689 476.610, 663.788 477.488, 665.033 477.944, 665.478 " fill="none" stroke="rgb(0, 0, 0)" stroke-linecap="butt" stroke-linejoin="round" stroke-opacity="1.0" stroke-width="3.0" />
            <path d=" M 1042.172, 804.439 1042.558, 802.647 1043.499, 798.284 1043.936, 788.294 1044.002, 786.791 1043.540, 776.802 1043.437, 774.561 1042.058, 764.657 1041.827, 762.998 1041.282, 761.150 " fill="none" stroke="rgb(0, 0, 0)" stroke-linecap="butt" stroke-linejoin="round" stroke-opacity="1.0" stroke-width="3.0" />
            <path d=" M 964.965, 618.333 961.605, 613.529 958.114, 613.242 956.392, 613.544 950.457, 612.014 943.777, 608.747 939.025, 609.718 937.388, 610.052 937.151, 610.100 934.928, 610.554 931.402, 611.274 929.378, 612.177 925.168, 612.654 " fill="none" stroke="rgb(0, 0, 0)" stroke-linecap="butt" stroke-linejoin="round" stroke-opacity="1.0" stroke-width="3.0" />
            <path d=" M 466.279, 595.453 466.522, 597.980 466.537, 598.140 468.082, 602.303 468.253, 602.665 468.329, 602.824 468.398, 602.970 468.522, 603.231 468.524, 603.234 468.525, 603.237 468.528, 603.244 468.597, 603.388 468.602, 603.399 468.605, 603.405 468.675, 603.554 468.693, 603.590 468.706, 603.618 468.715, 603.637 468.731, 603.672 468.774, 603.761 468.951, 604.135 469.084, 604.413 469.229, 604.720 469.841, 606.009 470.120, 606.596 470.193, 606.749 470.587, 608.363 470.588, 608.365 470.588, 608.367 470.589, 608.371 471.356, 611.508 471.554, 611.988 471.743, 612.447 471.900, 612.828 472.907, 615.272 473.068, 616.197 473.111, 616.443 473.180, 616.842 473.717, 619.918 473.866, 620.669 473.871, 620.694 477.858, 623.948 478.222, 624.245 479.610, 625.378 480.045, 625.733 482.683, 629.619 485.243, 631.827 486.136, 632.598 " fill="none" stroke="rgb(0, 0, 0)" stroke-linecap="butt" stroke-linejoin="round" stroke-opacity="1.0" stroke-width="3.0" />
            <path d=" M 649.052, 841.197 647.766, 841.731 647.747, 841.747 647.644, 841.834 647.383, 842.053 647.375, 842.059 647.237, 842.176 646.180, 843.063 645.918, 843.282 645.665, 843.495 645.527, 843.610 644.240, 845.793 644.232, 845.805 643.674, 846.751 643.480, 847.080 640.151, 852.721 637.946, 856.068 635.435, 861.104 635.228, 862.010 634.439, 865.457 634.118, 866.859 633.960, 867.548 632.348, 874.590 629.963, 879.917 " fill="none" stroke="rgb(0, 0, 0)" stroke-linecap="butt" stroke-linejoin="round" stroke-opacity="1.0" stroke-width="3.0" />
            <path d=" M 497.150, 685.268 499.124, 690.489 502.235, 697.981 505.297, 704.541 510.299, 713.200 512.807, 717.542 518.149, 723.836 518.640, 724.012 " fill="none" stroke="rgb(0, 0, 0)" stroke-linecap="butt" stroke-linejoin="round" stroke-opacity="1.0" stroke-width="3.0" />
            <path d=" M 735.908, 901.702 736.713, 901.372 738.570, 900.611 739.946, 900.047 740.346, 899.883 740.583, 899.786 742.547, 898.981 743.463, 898.561 750.057, 895.536 753.175, 894.545 754.390, 894.159 756.148, 893.600 759.113, 892.250 759.802, 891.937 766.652, 889.446 767.390, 889.177 767.715, 889.059 768.423, 888.802 773.308, 887.973 777.524, 887.810 778.224, 887.783 " fill="none" stroke="rgb(0, 0, 0)" stroke-linecap="butt" stroke-linejoin="round" stroke-opacity="1.0" stroke-width="3.0" />
            <path d=" M 516.570, 703.112 516.553, 703.893 516.549, 704.070 516.535, 704.739 516.496, 706.615 517.503, 716.087 517.581, 718.670 518.455, 723.077 518.640, 724.012 518.684, 724.233 521.077, 728.676 525.264, 734.518 527.013, 735.259 529.431, 736.285 535.934, 740.229 " fill="none" stroke="rgb(0, 0, 0)" stroke-linecap="butt" stroke-linejoin="round" stroke-opacity="1.0" stroke-width="3.0" />
            <path d=" M 850.294, 997.363 858.160, 998.520 858.523, 998.573 865.876, 997.697 867.455, 997.508 868.386, 997.271 868.955, 997.125 872.746, 996.157 872.871, 996.125 882.560, 993.650 884.000, 993.282 881.121, 994.009 872.509, 995.503 " fill="none" stroke="rgb(0, 0, 0)" stroke-linecap="butt" stroke-linejoin="round" stroke-opacity="1.0" stroke-width="3.0" />
            <path d=" M 983.677, 922.939 983.602, 924.183 983.728, 929.729 983.885, 933.687 982.578, 938.171 980.690, 941.467 980.681, 941.482 980.390, 941.991 980.283, 942.177 980.083, 942.526 974.581, 948.618 973.663, 949.635 971.189, 952.672 969.671, 954.535 969.634, 954.582 967.239, 957.533 970.962, 953.057 971.189, 952.672 " fill="none" stroke="rgb(0, 0, 0)" stroke-linecap="butt" stroke-linejoin="round" stroke-opacity="1.0" stroke-width="3.0" />
            <path d=" M 773.734, 752.140 773.579, 752.070 772.038, 751.378 771.819, 751.279 769.656, 750.307 769.370, 750.179 768.322, 749.708 767.224, 747.531 767.145, 747.374 766.956, 746.998 766.809, 746.707 765.572, 744.254 765.547, 744.204 763.381, 739.321 762.542, 737.429 762.530, 737.403 761.834, 735.834 761.806, 735.772 761.166, 734.328 760.971, 733.889 760.841, 733.597 760.603, 733.059 760.160, 732.061 760.147, 732.031 760.095, 731.915 759.662, 730.937 759.487, 730.543 759.427, 730.409 759.368, 730.275 759.351, 730.238 759.314, 730.153 759.306, 730.136 758.675, 728.714 758.554, 728.441 757.347, 725.719 757.222, 725.484 756.742, 724.577 755.724, 722.657 755.165, 721.602 751.509, 717.502 749.792, 715.577 748.433, 714.745 746.347, 713.469 " fill="none" stroke="rgb(0, 0, 0)" stroke-linecap="butt" stroke-linejoin="round" stroke-opacity="1.0" stroke-width="3.0" />
            <path d=" M 930.289, 995.394 930.491, 995.342 931.911, 994.976 933.033, 994.687 938.262, 990.222 942.210, 988.130 945.409, 985.721 948.418, 980.285 951.706, 977.817 955.329, 973.912 958.891, 971.395 960.356, 968.791 961.950, 965.623 962.342, 964.080 963.853, 959.890 " fill="none" stroke="rgb(0, 0, 0)" stroke-linecap="butt" stroke-linejoin="round" stroke-opacity="1.0" stroke-width="3.0" />
            <path d=" M 609.027, 752.798 604.211, 750.557 600.119, 747.477 595.037, 742.960 588.666, 735.253 588.252, 734.751 585.098, 730.567 583.884, 729.192 583.864, 729.169 583.645, 728.921 583.613, 728.885 583.404, 728.649 583.227, 728.448 582.738, 728.071 582.727, 728.062 582.483, 727.874 582.091, 727.572 578.057, 724.461 571.772, 718.659 " fill="none" stroke="rgb(0, 0, 0)" stroke-linecap="butt" stroke-linejoin="round" stroke-opacity="1.0" stroke-width="3.0" />
            <path d=" M 786.405, 656.863 784.827, 658.883 778.958, 667.026 777.942, 668.934 777.937, 668.945 777.511, 669.745 777.350, 670.270 777.106, 670.777 774.550, 676.081 768.643, 684.150 768.079, 684.919 767.548, 685.646 766.081, 686.884 759.313, 692.597 752.956, 695.739 752.682, 696.084 " fill="none" stroke="rgb(0, 0, 0)" stroke-linecap="butt" stroke-linejoin="round" stroke-opacity="1.0" stroke-width="3.0" />
            <path d=" M 1033.830, 737.942 1033.216, 735.672 1028.724, 726.738 1027.348, 724.002 1025.383, 721.164 1023.071, 716.399 1019.427, 711.747 1012.776, 704.280 1011.725, 703.100 1005.660, 698.501 1002.800, 696.333 " fill="none" stroke="rgb(0, 0, 0)" stroke-linecap="butt" stroke-linejoin="round" stroke-opacity="1.0" stroke-width="3.0" />
            <path d=" M 731.336, 945.026 736.125, 953.805 737.216, 955.805 740.909, 958.986 746.753, 960.902 755.188, 966.274 757.622, 967.824 765.228, 974.316 765.881, 974.873 772.026, 977.922 " fill="none" stroke="rgb(0, 0, 0)" stroke-linecap="butt" stroke-linejoin="round" stroke-opacity="1.0" stroke-width="3.0" />
            <path d=" M 650.389, 846.665 650.474, 846.827 651.210, 848.224 651.339, 848.469 651.700, 849.153 651.772, 849.291 654.718, 851.279 654.885, 851.390 655.384, 851.720 656.087, 852.185 658.490, 853.775 659.132, 854.199 660.010, 854.893 660.042, 854.918 660.552, 855.320 660.701, 855.438 661.587, 856.137 662.164, 856.592 663.144, 857.366 663.379, 857.552 663.870, 858.020 663.972, 858.116 664.255, 858.386 665.086, 859.177 665.458, 859.532 666.034, 860.080 666.618, 860.635 667.478, 861.455 667.982, 862.125 668.346, 862.610 670.403, 865.349 670.436, 865.393 670.735, 865.791 671.220, 866.436 671.750, 867.216 673.384, 869.618 677.000, 874.934 680.224, 877.528 682.185, 879.106 682.205, 879.115 682.231, 879.126 682.983, 879.462 683.544, 879.713 683.577, 879.728 683.621, 879.747 684.598, 880.183 684.635, 880.200 686.577, 881.066 687.085, 881.293 687.197, 881.343 687.819, 881.621 687.931, 881.671 688.277, 881.826 688.903, 882.105 690.334, 882.744 690.738, 882.728 " fill="none" stroke="rgb(0, 0, 0)" stroke-linecap="butt" stroke-linejoin="round" stroke-opacity="1.0" stroke-width="3.0" />
            <path d=" M 770.842, 977.206 772.026, 977.922 779.456, 982.421 781.623, 983.798 790.633, 988.137 796.190, 990.813 803.789, 992.708 804.384, 992.857 804.441, 992.871 805.265, 993.077 810.756, 994.446 814.624, 994.916 821.764, 995.784 822.404, 995.862 " fill="none" stroke="rgb(0, 0, 0)" stroke-linecap="butt" stroke-linejoin="round" stroke-opacity="1.0" stroke-width="3.0" />
            <path d=" M 863.725, 998.705 865.440, 998.442 869.587, 997.806 871.182, 997.366 872.751, 996.932 875.846, 996.078 881.685, 994.466 884.841, 993.698 885.385, 993.565 886.214, 993.363 887.806, 992.976 888.909, 992.707 889.293, 992.614 890.781, 992.251 892.352, 991.893 892.794, 991.792 896.790, 990.879 898.032, 990.432 898.543, 990.249 900.130, 989.678 900.571, 989.520 901.070, 989.340 901.245, 989.278 906.957, 987.226 907.293, 987.155 907.409, 987.131 907.523, 987.107 907.739, 987.062 907.882, 987.032 908.027, 987.002 908.193, 986.967 912.877, 985.988 917.609, 984.998 " fill="none" stroke="rgb(0, 0, 0)" stroke-linecap="butt" stroke-linejoin="round" stroke-opacity="1.0" stroke-width="3.0" />
            <path d=" M 731.018, 740.955 721.637, 737.491 721.506, 737.443 711.610, 736.006 701.714, 734.569 693.977, 733.446 684.022, 732.490 683.743, 732.463 677.261, 730.972 671.809, 732.085 670.921, 732.803 670.590, 733.239 " fill="none" stroke="rgb(0, 0, 0)" stroke-linecap="butt" stroke-linejoin="round" stroke-opacity="1.0" stroke-width="3.0" />
            <path d=" M 537.449, 644.614 535.286, 645.943 537.618, 645.283 540.069, 646.163 540.944, 646.607 540.968, 646.619 543.075, 647.689 543.185, 647.745 545.486, 648.912 550.034, 650.123 554.298, 650.464 561.128, 651.635 570.844, 653.749 571.778, 652.941 572.639, 650.504 571.562, 646.666 571.934, 644.285 571.044, 642.687 568.995, 639.835 563.710, 636.180 562.805, 635.709 " fill="none" stroke="rgb(0, 0, 0)" stroke-linecap="butt" stroke-linejoin="round" stroke-opacity="1.0" stroke-width="3.0" />
            <path d=" M 635.228, 862.010 633.946, 856.529 632.314, 848.832 630.338, 839.029 629.701, 835.870 628.276, 830.062 625.461, 820.466 623.878, 815.072 623.541, 813.918 621.338, 807.690 618.073, 799.166 617.987, 798.880 " fill="none" stroke="rgb(0, 0, 0)" stroke-linecap="butt" stroke-linejoin="round" stroke-opacity="1.0" stroke-width="3.0" />
            <path d=" M 706.584, 523.344 700.558, 523.918 700.532, 523.920 700.352, 523.937 695.770, 523.676 689.184, 523.300 681.989, 521.524 678.699, 521.627 670.286, 521.066 669.828, 521.036 669.171, 520.782 662.227, 518.102 659.760, 517.150 653.602, 513.491 653.251, 513.283 650.629, 511.725 644.912, 507.094 643.207, 506.499 " fill="none" stroke="rgb(0, 0, 0)" stroke-linecap="butt" stroke-linejoin="round" stroke-opacity="1.0" stroke-width="3.0" />
            <path d=" M 671.809, 732.085 670.590, 733.239 663.330, 740.115 660.812, 742.500 657.965, 746.237 655.629, 750.724 654.215, 754.838 652.400, 764.671 652.184, 765.842 652.379, 772.562 651.846, 778.846 652.909, 787.963 654.150, 797.886 654.515, 800.805 654.570, 801.243 " fill="none" stroke="rgb(0, 0, 0)" stroke-linecap="butt" stroke-linejoin="round" stroke-opacity="1.0" stroke-width="3.0" />
            <path d=" M 845.065, 591.061 847.482, 588.780 850.371, 583.266 850.418, 581.404 850.267, 577.643 850.510, 573.769 850.134, 571.100 843.899, 563.282 843.329, 562.567 834.787, 559.395 829.459, 558.584 819.530, 557.393 817.986, 557.208 814.167, 556.719 819.487, 557.598 829.168, 560.101 831.084, 560.596 " fill="none" stroke="rgb(0, 0, 0)" stroke-linecap="butt" stroke-linejoin="round" stroke-opacity="1.0" stroke-width="3.0" />
            <path d=" M 539.094, 732.556 540.338, 733.900 541.124, 734.749 545.368, 739.331 546.665, 740.530 547.851, 741.628 552.043, 745.506 552.229, 745.632 552.387, 745.738 552.577, 745.866 552.620, 745.894 553.779, 746.672 556.194, 748.295 562.046, 750.739 564.643, 751.570 568.267, 751.657 573.544, 750.022 579.420, 748.622 581.415, 748.839 582.424, 748.949 583.144, 749.027 583.261, 748.813 583.767, 747.882 583.312, 745.753 582.910, 743.871 582.183, 740.468 581.773, 738.471 581.636, 737.805 580.908, 734.261 578.066, 727.374 574.755, 721.835 573.681, 720.794 573.164, 720.293 " fill="none" stroke="rgb(0, 0, 0)" stroke-linecap="butt" stroke-linejoin="round" stroke-opacity="1.0" stroke-width="3.0" />
            <path d=" M 839.533, 711.032 835.064, 715.393 830.294, 720.048 827.320, 724.636 823.840, 727.124 816.801, 730.021 816.279, 730.251 815.244, 730.708 810.149, 732.959 809.924, 733.058 807.911, 733.947 807.762, 734.013 807.311, 734.212 807.266, 734.232 807.182, 734.280 806.874, 734.455 806.458, 734.690 802.333, 737.032 802.145, 737.138 801.825, 737.320 801.682, 737.401 801.602, 737.447 801.424, 737.548 799.813, 738.462 799.452, 738.667 798.195, 739.380 797.551, 739.746 797.409, 739.827 797.238, 739.959 796.096, 740.842 795.122, 741.767 794.623, 742.241 794.073, 742.763 792.076, 744.723 791.837, 744.958 791.780, 745.046 791.437, 745.577 791.361, 745.694 791.336, 745.732 791.323, 745.754 791.270, 745.835 791.029, 746.208 790.686, 746.739 790.681, 746.747 788.447, 750.204 784.217, 751.574 778.247, 752.140 777.452, 752.216 777.355, 752.225 777.340, 752.226 776.488, 752.307 775.947, 752.274 774.857, 752.208 773.734, 752.140 773.593, 752.131 771.893, 752.028 771.666, 752.014 " fill="none" stroke="rgb(0, 0, 0)" stroke-linecap="butt" stroke-linejoin="round" stroke-opacity="1.0" stroke-width="3.0" />
            <path d=" M 634.506, 947.883 630.021, 949.889 629.784, 950.511 629.411, 951.486 629.408, 951.494 628.181, 954.707 628.206, 954.837 628.210, 954.859 628.550, 956.685 631.191, 962.909 632.143, 965.674 632.160, 965.724 634.151, 971.508 634.412, 972.319 634.917, 973.895 635.573, 975.937 636.352, 978.365 639.570, 983.896 643.641, 990.135 644.466, 991.192 649.422, 996.899 655.961, 1002.553 661.166, 1006.167 666.920, 1010.490 670.485, 1012.354 " fill="none" stroke="rgb(0, 0, 0)" stroke-linecap="butt" stroke-linejoin="round" stroke-opacity="1.0" stroke-width="3.0" />
            <path d=" M 710.842, 1001.107 716.107, 1000.506 716.182, 1000.498 716.387, 1000.474 717.850, 1000.307 722.282, 998.499 723.829, 995.782 724.923, 992.398 726.194, 989.657 721.681, 986.066 715.719, 983.774 709.591, 981.232 703.707, 978.422 700.293, 976.012 696.624, 972.716 693.540, 969.736 690.088, 965.309 686.201, 958.371 684.543, 954.309 682.436, 950.501 682.019, 949.747 682.006, 949.723 681.907, 949.544 681.530, 948.864 " fill="none" stroke="rgb(0, 0, 0)" stroke-linecap="butt" stroke-linejoin="round" stroke-opacity="1.0" stroke-width="3.0" />
            <path d=" M 981.675, 667.324 981.851, 667.013 983.531, 664.042 984.697, 659.595 986.473, 653.596 987.144, 647.399 987.285, 642.682 986.360, 637.100 985.389, 632.703 983.411, 626.653 982.225, 623.063 981.256, 620.718 979.318, 618.118 974.194, 613.751 969.269, 610.860 959.832, 607.550 956.995, 606.555 953.421, 606.065 948.678, 605.415 " fill="none" stroke="rgb(0, 0, 0)" stroke-linecap="butt" stroke-linejoin="round" stroke-opacity="1.0" stroke-width="3.0" />
            <path d=" M 916.526, 642.126 914.584, 639.731 914.428, 639.538 913.166, 637.982 911.487, 635.912 907.871, 632.390 906.347, 630.906 906.154, 630.717 898.844, 623.894 895.640, 620.903 891.130, 617.596 889.292, 615.863 886.854, 613.565 882.909, 609.847 881.789, 608.791 881.782, 608.785 881.526, 608.544 881.197, 608.234 881.059, 608.104 879.411, 606.079 877.040, 604.266 876.936, 604.186 876.384, 603.764 876.373, 603.755 875.456, 603.054 875.122, 602.799 874.268, 602.146 873.739, 601.670 873.142, 601.133 872.248, 600.327 872.166, 600.254 868.234, 596.714 868.106, 596.598 863.433, 592.107 860.021, 591.239 859.730, 591.165 856.369, 590.529 850.084, 592.829 848.044, 593.575 847.592, 593.740 845.876, 594.368 844.198, 594.982 " fill="none" stroke="rgb(0, 0, 0)" stroke-linecap="butt" stroke-linejoin="round" stroke-opacity="1.0" stroke-width="3.0" />
            <path d=" M 737.036, 557.953 737.814, 558.316 738.489, 558.513 739.672, 558.857 740.105, 558.983 742.794, 558.752 745.389, 558.265 748.703, 556.036 753.132, 554.464 755.644, 554.446 761.868, 555.139 765.561, 556.637 771.204, 559.905 773.846, 561.336 777.811, 561.405 780.595, 560.997 785.953, 559.109 789.105, 554.709 789.625, 553.982 790.322, 545.594 788.782, 542.375 782.139, 535.585 781.519, 535.115 774.353, 529.810 765.414, 525.328 762.386, 523.809 760.520, 522.874 " fill="none" stroke="rgb(0, 0, 0)" stroke-linecap="butt" stroke-linejoin="round" stroke-opacity="1.0" stroke-width="3.0" />
            <path d=" M 843.882, 592.485 843.546, 592.495 839.673, 592.606 833.805, 593.153 824.105, 595.584 820.617, 596.458 811.016, 599.253 808.765, 599.909 799.986, 604.697 793.128, 608.437 786.675, 613.419 780.128, 619.052 779.735, 619.492 776.590, 623.022 776.564, 623.051 773.846, 626.100 772.603, 628.895 772.585, 628.937 772.327, 629.516 772.027, 630.191 771.600, 633.669 770.740, 635.323 771.374, 643.419 771.508, 645.126 772.385, 653.074 772.913, 655.841 773.848, 659.617 774.693, 664.879 777.106, 670.777 " fill="none" stroke="rgb(0, 0, 0)" stroke-linecap="butt" stroke-linejoin="round" stroke-opacity="1.0" stroke-width="3.0" />
            <path d=" M 993.322, 821.842 995.484, 816.713 997.375, 812.571 998.884, 808.535 999.042, 808.115 1000.180, 805.073 1001.071, 797.451 1002.997, 793.061 1004.259, 785.246 1005.627, 775.892 1007.778, 770.997 1010.746, 761.448 1011.363, 759.465 1009.958, 749.564 1009.811, 748.525 1006.821, 741.586 1005.475, 739.863 1003.960, 733.808 1002.931, 730.545 999.636, 722.873 996.671, 714.932 992.332, 709.456 991.227, 708.163 989.428, 705.958 986.928, 703.311 986.681, 703.050 " fill="none" stroke="rgb(0, 0, 0)" stroke-linecap="butt" stroke-linejoin="round" stroke-opacity="1.0" stroke-width="3.0" />
            <path d=" M 886.522, 668.995 888.126, 667.437 889.321, 665.353 884.967, 659.244 884.886, 659.130 881.895, 654.837 874.399, 648.219 872.678, 646.700 864.094, 641.571 862.480, 640.607 861.870, 640.381 852.494, 636.905 850.329, 636.102 847.014, 635.290 845.480, 634.914 840.202, 634.436 831.814, 634.656 831.807, 634.656 830.592, 634.688 830.511, 634.691 826.565, 635.132 826.444, 635.162 818.635, 637.101 818.346, 637.173 817.624, 637.352 817.589, 637.361 816.404, 637.655 812.232, 638.826 811.946, 638.906 811.549, 639.017 811.477, 639.037 809.234, 639.667 804.622, 640.738 799.818, 643.460 794.394, 647.636 791.809, 649.829 790.151, 651.234 787.531, 655.156 786.405, 656.863 784.973, 659.033 " fill="none" stroke="rgb(0, 0, 0)" stroke-linecap="butt" stroke-linejoin="round" stroke-opacity="1.0" stroke-width="3.0" />
            <path d=" M 743.159, 703.012 741.575, 706.126 737.743, 714.239 735.430, 723.968 734.083, 729.634 733.222, 737.447 733.047, 741.415 733.035, 741.699 733.034, 741.711 732.949, 743.636 732.673, 753.632 732.646, 754.625 734.707, 764.410 735.443, 767.905 735.576, 768.536 735.872, 769.940 736.654, 772.169 739.151, 779.284 740.042, 781.823 740.228, 782.353 740.695, 783.233 740.843, 783.510 741.175, 784.135 743.402, 788.327 744.914, 791.174 745.929, 793.084 748.093, 795.601 748.582, 796.171 748.732, 796.345 750.201, 798.054 752.012, 798.869 752.060, 798.891 752.452, 799.067 752.610, 799.138 752.636, 799.150 752.857, 799.249 753.760, 799.656 753.772, 799.661 754.123, 799.819 754.357, 799.925 754.704, 800.081 754.779, 800.115 755.617, 800.492 755.700, 800.529 755.849, 800.596 755.955, 800.644 755.985, 800.651 755.994, 800.653 758.616, 801.237 758.659, 801.247 758.738, 801.265 758.825, 801.284 758.911, 801.303 758.942, 801.310 758.964, 801.315 759.132, 801.352 763.092, 802.236 765.836, 802.848 769.958, 800.477 772.239, 799.708 772.687, 799.557 782.163, 796.363 782.425, 796.275 " fill="none" stroke="rgb(0, 0, 0)" stroke-linecap="butt" stroke-linejoin="round" stroke-opacity="1.0" stroke-width="3.0" />
            <path d=" M 540.721, 748.955 540.866, 749.238 545.283, 757.899 548.259, 767.446 548.477, 768.145 550.308, 777.976 550.912, 781.218 552.412, 791.105 553.158, 796.027 554.157, 805.977 554.246, 806.863 555.955, 816.716 556.137, 817.765 556.465, 825.216 558.824, 834.933 559.417, 837.375 561.555, 840.522 563.640, 842.964 570.246, 844.722 574.366, 846.085 578.847, 845.890 584.928, 844.542 588.339, 842.848 592.221, 839.268 595.330, 835.131 599.051, 830.180 601.903, 825.082 606.369, 817.249 610.226, 810.484 611.937, 807.484 615.752, 800.535 617.625, 797.832 617.658, 797.785 617.881, 797.464 618.468, 796.617 623.237, 787.828 625.399, 783.843 628.918, 777.357 " fill="none" stroke="rgb(0, 0, 0)" stroke-linecap="butt" stroke-linejoin="round" stroke-opacity="1.0" stroke-width="3.0" />
        </g>
    </g>
</svg>
