<?xml version='1.0' encoding='ascii'?>
<svg xmlns="http://www.w3.org/2000/svg" height="1280" version="1.1" width="1280">
    <g id="RenderLayer_LineSet" inkscape:groupmode="lineset" inkscape:label="RenderLayer_LineSet" xmlns:inkscape="http://www.inkscape.org/namespaces/inkscape">
        <g id="strokes" inkscape:groupmode="layer" inkscape:label="strokes" xmlns:inkscape="http://www.inkscape.org/namespaces/inkscape">
            <path d=" M 817.373, 608.329 818.061, 609.456 818.397, 610.006 818.725, 610.544 819.935, 612.525 820.189, 612.941 820.194, 612.957 820.462, 613.875 820.670, 614.587 820.813, 615.080 820.930, 615.480 821.094, 616.040 821.144, 616.213 821.349, 616.914 821.435, 617.209 821.452, 617.266 821.468, 617.320 821.534, 617.549 821.552, 617.608 822.212, 619.870 822.227, 619.921 822.326, 620.260 822.342, 620.315 822.274, 620.963 822.220, 621.481 822.179, 621.869 822.148, 622.160 821.830, 625.196 821.696, 626.465 821.637, 627.028 821.595, 627.429 " fill="none" stroke="rgb(0, 0, 0)" stroke-linecap="butt" stroke-linejoin="round" stroke-opacity="1.0" stroke-width="3.0" />
            <path d=" M 901.305, 373.619 895.593, 370.949 895.421, 370.878 892.566, 369.694 889.149, 368.400 888.886, 368.300 885.173, 366.893 882.316, 366.493 " fill="none" stroke="rgb(0, 0, 0)" stroke-linecap="butt" stroke-linejoin="round" stroke-opacity="1.0" stroke-width="3.0" />
            <path d=" M 914.495, 915.121 915.633, 906.132 915.660, 905.919 916.124, 904.522 919.232, 895.160 " fill="none" stroke="rgb(0, 0, 0)" stroke-linecap="butt" stroke-linejoin="round" stroke-opacity="1.0" stroke-width="3.0" />
            <path d=" M 950.178, 408.005 950.962, 406.923 950.982, 406.896 951.211, 406.581 951.195, 406.296 951.169, 405.811 951.162, 405.684 951.161, 405.652 951.073, 404.031 951.579, 402.568 952.088, 401.097 951.900, 400.487 951.840, 400.289 951.581, 399.449 951.272, 398.441 951.097, 397.872 950.758, 396.766 950.143, 395.539 946.690, 392.328 945.109, 390.857 945.062, 390.813 944.759, 390.635 " fill="none" stroke="rgb(0, 0, 0)" stroke-linecap="butt" stroke-linejoin="round" stroke-opacity="1.0" stroke-width="3.0" />
            <path d=" M 420.205, 1030.520 420.307, 1031.468 420.897, 1036.902 421.608, 1039.918 423.090, 1049.807 423.268, 1050.989 " fill="none" stroke="rgb(0, 0, 0)" stroke-linecap="butt" stroke-linejoin="round" stroke-opacity="1.0" stroke-width="3.0" />
            <path d=" M 566.385, 700.068 564.824, 701.236 564.522, 701.462 562.342, 703.091 563.473, 701.368 566.355, 699.809 568.799, 696.735 567.741, 693.685 567.631, 693.366 567.455, 692.777 567.345, 692.409 566.800, 690.581 " fill="none" stroke="rgb(0, 0, 0)" stroke-linecap="butt" stroke-linejoin="round" stroke-opacity="1.0" stroke-width="3.0" />
            <path d=" M 907.693, 962.492 907.996, 960.201 909.312, 950.288 909.635, 947.851 909.750, 941.702 " fill="none" stroke="rgb(0, 0, 0)" stroke-linecap="butt" stroke-linejoin="round" stroke-opacity="1.0" stroke-width="3.0" />
            <path d=" M 1005.101, 582.728 1005.580, 576.306 1006.173, 570.353 1006.506, 564.146 1006.385, 561.729 " fill="none" stroke="rgb(0, 0, 0)" stroke-linecap="butt" stroke-linejoin="round" stroke-opacity="1.0" stroke-width="3.0" />
            <path d=" M 994.726, 531.526 994.521, 530.019 994.512, 529.953 993.727, 524.191 992.810, 514.233 992.466, 510.506 992.465, 510.484 " fill="none" stroke="rgb(0, 0, 0)" stroke-linecap="butt" stroke-linejoin="round" stroke-opacity="1.0" stroke-width="3.0" />
            <path d=" M 473.572, 931.859 475.726, 930.549 476.058, 930.347 480.121, 927.478 482.994, 925.209 484.237, 922.803 482.576, 920.801 478.580, 919.665 478.416, 919.619 " fill="none" stroke="rgb(0, 0, 0)" stroke-linecap="butt" stroke-linejoin="round" stroke-opacity="1.0" stroke-width="3.0" />
            <path d=" M 563.861, 673.104 563.893, 673.019 566.414, 668.315 567.325, 661.830 571.934, 653.820 " fill="none" stroke="rgb(0, 0, 0)" stroke-linecap="butt" stroke-linejoin="round" stroke-opacity="1.0" stroke-width="3.0" />
            <path d=" M 905.021, 991.122 905.167, 989.351 905.195, 988.934 905.360, 986.483 905.871, 978.858 906.242, 973.335 906.473, 969.894 " fill="none" stroke="rgb(0, 0, 0)" stroke-linecap="butt" stroke-linejoin="round" stroke-opacity="1.0" stroke-width="3.0" />
            <path d=" M 548.440, 922.992 547.052, 920.642 544.680, 916.937 541.474, 911.841 538.830, 910.058 535.592, 908.750 534.596, 908.347 534.148, 908.166 " fill="none" stroke="rgb(0, 0, 0)" stroke-linecap="butt" stroke-linejoin="round" stroke-opacity="1.0" stroke-width="3.0" />
            <path d=" M 985.851, 461.046 985.325, 458.086 984.049, 454.794 982.981, 449.594 981.117, 445.764 978.286, 441.871 977.909, 441.575 " fill="none" stroke="rgb(0, 0, 0)" stroke-linecap="butt" stroke-linejoin="round" stroke-opacity="1.0" stroke-width="3.0" />
            <path d=" M 545.108, 695.281 546.007, 697.410 546.016, 697.432 546.083, 697.590 546.343, 697.825 546.378, 697.857 546.616, 698.073 546.751, 698.195 550.162, 701.284 551.123, 702.058 553.353, 703.852 558.704, 704.562 562.342, 703.091 " fill="none" stroke="rgb(0, 0, 0)" stroke-linecap="butt" stroke-linejoin="round" stroke-opacity="1.0" stroke-width="3.0" />
            <path d=" M 727.310, 427.484 726.789, 426.502 726.682, 426.300 726.641, 426.222 726.114, 425.229 725.337, 423.766 723.464, 421.672 722.912, 421.055 722.510, 420.606 719.116, 417.027 717.347, 414.943 715.357, 412.546 715.221, 412.383 715.022, 411.990 714.810, 411.572 714.739, 411.434 714.211, 410.394 " fill="none" stroke="rgb(0, 0, 0)" stroke-linecap="butt" stroke-linejoin="round" stroke-opacity="1.0" stroke-width="3.0" />
            <path d=" M 999.160, 497.446 998.652, 494.213 998.303, 490.420 997.524, 486.298 995.546, 481.451 993.326, 476.780 " fill="none" stroke="rgb(0, 0, 0)" stroke-linecap="butt" stroke-linejoin="round" stroke-opacity="1.0" stroke-width="3.0" />
            <path d=" M 615.120, 562.118 610.773, 569.762 605.573, 578.303 603.908, 581.037 " fill="none" stroke="rgb(0, 0, 0)" stroke-linecap="butt" stroke-linejoin="round" stroke-opacity="1.0" stroke-width="3.0" />
            <path d=" M 696.788, 658.477 696.609, 658.672 692.723, 665.042 691.019, 668.798 690.163, 671.214 690.492, 678.925 " fill="none" stroke="rgb(0, 0, 0)" stroke-linecap="butt" stroke-linejoin="round" stroke-opacity="1.0" stroke-width="3.0" />
            <path d=" M 471.321, 860.828 475.696, 859.544 476.272, 859.704 478.588, 860.349 478.619, 860.357 478.782, 860.403 480.368, 860.844 483.221, 860.003 484.109, 859.731 487.729, 856.105 490.931, 854.051 " fill="none" stroke="rgb(0, 0, 0)" stroke-linecap="butt" stroke-linejoin="round" stroke-opacity="1.0" stroke-width="3.0" />
            <path d=" M 682.979, 722.474 682.431, 723.121 680.028, 725.956 678.545, 728.578 676.966, 731.712 676.415, 732.807 675.718, 735.321 676.063, 735.952 677.849, 739.221 679.659, 741.784 " fill="none" stroke="rgb(0, 0, 0)" stroke-linecap="butt" stroke-linejoin="round" stroke-opacity="1.0" stroke-width="3.0" />
            <path d=" M 915.457, 554.291 910.296, 556.399 902.625, 559.790 897.062, 562.705 894.755, 562.977 " fill="none" stroke="rgb(0, 0, 0)" stroke-linecap="butt" stroke-linejoin="round" stroke-opacity="1.0" stroke-width="3.0" />
            <path d=" M 585.472, 849.099 587.092, 847.236 591.396, 842.811 593.110, 840.201 592.797, 834.581 591.880, 829.906 592.774, 829.238 " fill="none" stroke="rgb(0, 0, 0)" stroke-linecap="butt" stroke-linejoin="round" stroke-opacity="1.0" stroke-width="3.0" />
            <path d=" M 669.114, 518.220 668.100, 518.545 666.230, 519.054 664.281, 519.075 661.889, 519.623 657.722, 520.494 653.596, 522.356 651.224, 522.509 646.602, 522.806 646.414, 522.818 " fill="none" stroke="rgb(0, 0, 0)" stroke-linecap="butt" stroke-linejoin="round" stroke-opacity="1.0" stroke-width="3.0" />
            <path d=" M 784.176, 1184.226 787.104, 1183.997 789.933, 1182.788 798.208, 1178.078 804.033, 1172.715 " fill="none" stroke="rgb(0, 0, 0)" stroke-linecap="butt" stroke-linejoin="round" stroke-opacity="1.0" stroke-width="3.0" />
            <path d=" M 713.417, 903.159 713.537, 903.233 713.549, 903.240 717.723, 905.807 718.750, 906.725 721.926, 909.713 723.631, 913.764 724.777, 917.959 725.825, 919.286 725.785, 919.949 725.662, 922.014 " fill="none" stroke="rgb(0, 0, 0)" stroke-linecap="butt" stroke-linejoin="round" stroke-opacity="1.0" stroke-width="3.0" />
            <path d=" M 802.178, 347.186 801.464, 347.339 799.475, 347.767 796.431, 348.333 793.804, 348.701 789.474, 349.971 785.732, 352.432 782.917, 353.779 780.148, 355.045 779.799, 355.305 " fill="none" stroke="rgb(0, 0, 0)" stroke-linecap="butt" stroke-linejoin="round" stroke-opacity="1.0" stroke-width="3.0" />
            <path d=" M 542.216, 532.143 540.274, 532.862 536.917, 536.664 534.641, 537.770 532.699, 538.864 527.826, 543.173 526.065, 544.115 522.783, 545.871 " fill="none" stroke="rgb(0, 0, 0)" stroke-linecap="butt" stroke-linejoin="round" stroke-opacity="1.0" stroke-width="3.0" />
            <path d=" M 519.754, 773.392 526.635, 772.673 529.648, 771.745 531.700, 770.841 532.462, 768.486 531.714, 764.823 530.897, 762.815 529.698, 760.452 529.320, 759.707 " fill="none" stroke="rgb(0, 0, 0)" stroke-linecap="butt" stroke-linejoin="round" stroke-opacity="1.0" stroke-width="3.0" />
            <path d=" M 1003.435, 533.959 1003.844, 533.027 1004.398, 530.202 1004.154, 527.361 1004.352, 524.151 1004.182, 519.235 1003.895, 515.793 1002.598, 511.627 1002.139, 510.152 " fill="none" stroke="rgb(0, 0, 0)" stroke-linecap="butt" stroke-linejoin="round" stroke-opacity="1.0" stroke-width="3.0" />
            <path d=" M 672.111, 855.269 671.359, 857.681 670.096, 861.458 672.023, 863.648 679.876, 866.555 684.625, 868.549 685.888, 869.037 " fill="none" stroke="rgb(0, 0, 0)" stroke-linecap="butt" stroke-linejoin="round" stroke-opacity="1.0" stroke-width="3.0" />
            <path d=" M 449.592, 1061.809 452.401, 1055.144 454.574, 1047.443 456.651, 1038.606 " fill="none" stroke="rgb(0, 0, 0)" stroke-linecap="butt" stroke-linejoin="round" stroke-opacity="1.0" stroke-width="3.0" />
            <path d=" M 926.716, 389.185 926.357, 388.909 923.573, 386.769 922.422, 385.884 921.495, 385.171 921.266, 384.995 919.673, 383.896 919.621, 383.859 918.548, 383.118 918.169, 382.856 918.136, 382.833 916.056, 381.397 914.735, 380.438 912.179, 378.582 911.908, 378.386 910.719, 377.523 907.730, 375.942 906.706, 375.400 906.509, 375.296 " fill="none" stroke="rgb(0, 0, 0)" stroke-linecap="butt" stroke-linejoin="round" stroke-opacity="1.0" stroke-width="3.0" />
            <path d=" M 570.043, 655.523 571.934, 653.820 575.133, 650.940 583.254, 645.105 583.522, 644.912 586.762, 643.470 589.776, 640.871 " fill="none" stroke="rgb(0, 0, 0)" stroke-linecap="butt" stroke-linejoin="round" stroke-opacity="1.0" stroke-width="3.0" />
            <path d=" M 510.904, 812.502 517.657, 808.310 518.097, 806.304 516.707, 802.779 513.198, 798.150 509.891, 793.786 " fill="none" stroke="rgb(0, 0, 0)" stroke-linecap="butt" stroke-linejoin="round" stroke-opacity="1.0" stroke-width="3.0" />
            <path d=" M 471.005, 661.721 469.638, 664.151 469.619, 664.185 468.945, 665.383 467.759, 667.493 467.558, 668.729 467.277, 670.451 463.881, 679.856 461.813, 685.585 " fill="none" stroke="rgb(0, 0, 0)" stroke-linecap="butt" stroke-linejoin="round" stroke-opacity="1.0" stroke-width="3.0" />
            <path d=" M 630.612, 602.264 631.337, 601.775 634.107, 599.904 637.505, 595.897 639.314, 594.514 643.595, 590.530 646.530, 587.523 648.929, 584.194 " fill="none" stroke="rgb(0, 0, 0)" stroke-linecap="butt" stroke-linejoin="round" stroke-opacity="1.0" stroke-width="3.0" />
            <path d=" M 623.310, 780.109 626.436, 778.241 627.442, 777.639 629.559, 775.464 630.789, 772.157 631.043, 770.054 630.565, 766.334 628.649, 763.491 627.555, 762.156 626.412, 760.761 625.577, 759.742 625.524, 759.678 625.244, 759.336 " fill="none" stroke="rgb(0, 0, 0)" stroke-linecap="butt" stroke-linejoin="round" stroke-opacity="1.0" stroke-width="3.0" />
            <path d=" M 935.736, 393.742 935.629, 393.715 935.100, 393.578 932.541, 392.915 931.729, 392.704 931.496, 392.644 929.292, 391.049 926.716, 389.185 925.023, 387.075 927.776, 388.816 928.034, 388.979 931.742, 391.356 932.274, 391.697 934.948, 392.526 935.833, 392.800 936.176, 392.907 936.256, 392.898 936.891, 392.832 936.969, 392.824 " fill="none" stroke="rgb(0, 0, 0)" stroke-linecap="butt" stroke-linejoin="round" stroke-opacity="1.0" stroke-width="3.0" />
            <path d=" M 1002.598, 511.627 1002.540, 509.528 1001.181, 503.403 999.563, 498.909 999.160, 497.446 998.432, 494.807 995.523, 489.483 992.804, 488.072 " fill="none" stroke="rgb(0, 0, 0)" stroke-linecap="butt" stroke-linejoin="round" stroke-opacity="1.0" stroke-width="3.0" />
            <path d=" M 753.102, 1169.443 753.935, 1171.308 755.949, 1171.681 757.259, 1171.924 757.602, 1171.762 765.156, 1168.201 767.101, 1166.521 767.965, 1165.628 768.275, 1165.307 768.335, 1165.245 772.926, 1160.499 774.917, 1160.450 " fill="none" stroke="rgb(0, 0, 0)" stroke-linecap="butt" stroke-linejoin="round" stroke-opacity="1.0" stroke-width="3.0" />
            <path d=" M 650.279, 745.613 655.643, 743.059 665.004, 739.544 666.299, 739.058 673.373, 736.713 676.063, 735.952 " fill="none" stroke="rgb(0, 0, 0)" stroke-linecap="butt" stroke-linejoin="round" stroke-opacity="1.0" stroke-width="3.0" />
            <path d=" M 671.664, 757.917 671.749, 758.455 671.948, 759.709 672.204, 761.328 670.642, 765.966 669.112, 769.871 668.417, 773.380 669.014, 776.803 671.109, 779.591 675.222, 781.420 " fill="none" stroke="rgb(0, 0, 0)" stroke-linecap="butt" stroke-linejoin="round" stroke-opacity="1.0" stroke-width="3.0" />
            <path d=" M 951.788, 434.314 952.374, 432.059 952.157, 428.098 949.433, 425.475 949.683, 422.683 949.850, 420.824 949.673, 418.310 949.805, 417.561 950.127, 415.743 948.925, 414.045 945.644, 409.412 " fill="none" stroke="rgb(0, 0, 0)" stroke-linecap="butt" stroke-linejoin="round" stroke-opacity="1.0" stroke-width="3.0" />
            <path d=" M 687.782, 428.486 687.064, 429.890 687.018, 429.978 686.485, 431.019 683.676, 436.508 681.517, 445.078 680.761, 447.953 681.490, 453.102 682.073, 454.712 " fill="none" stroke="rgb(0, 0, 0)" stroke-linecap="butt" stroke-linejoin="round" stroke-opacity="1.0" stroke-width="3.0" />
            <path d=" M 486.337, 613.170 486.311, 610.658 487.412, 608.092 487.935, 606.872 487.433, 608.278 486.762, 610.158 486.337, 613.170 485.897, 616.287 483.856, 624.508 483.422, 627.451 " fill="none" stroke="rgb(0, 0, 0)" stroke-linecap="butt" stroke-linejoin="round" stroke-opacity="1.0" stroke-width="3.0" />
            <path d=" M 992.807, 514.613 992.466, 510.505 992.465, 510.484 992.415, 509.892 992.334, 509.068 992.119, 506.976 991.453, 500.491 990.093, 490.821 989.646, 488.088 989.596, 487.782 989.593, 487.764 989.469, 487.003 " fill="none" stroke="rgb(0, 0, 0)" stroke-linecap="butt" stroke-linejoin="round" stroke-opacity="1.0" stroke-width="3.0" />
            <path d=" M 529.698, 760.452 529.355, 757.587 532.737, 754.078 535.348, 749.264 535.507, 748.786 535.036, 745.387 533.668, 743.387 530.327, 738.504 529.961, 737.162 529.902, 736.947 529.898, 736.932 529.643, 735.999 " fill="none" stroke="rgb(0, 0, 0)" stroke-linecap="butt" stroke-linejoin="round" stroke-opacity="1.0" stroke-width="3.0" />
            <path d=" M 449.211, 1089.430 453.176, 1089.560 453.715, 1090.711 456.494, 1093.510 461.200, 1092.029 462.963, 1091.138 466.948, 1088.761 467.166, 1088.344 468.228, 1086.317 467.300, 1082.032 467.228, 1081.697 " fill="none" stroke="rgb(0, 0, 0)" stroke-linecap="butt" stroke-linejoin="round" stroke-opacity="1.0" stroke-width="3.0" />
            <path d=" M 780.165, 355.209 779.799, 355.305 772.901, 357.118 768.545, 356.667 765.579, 356.183 761.447, 355.959 756.674, 355.493 754.585, 355.375 752.136, 355.392 " fill="none" stroke="rgb(0, 0, 0)" stroke-linecap="butt" stroke-linejoin="round" stroke-opacity="1.0" stroke-width="3.0" />
            <path d=" M 494.463, 822.025 499.798, 823.290 505.658, 824.409 507.124, 824.533 509.354, 824.057 511.539, 823.055 511.417, 819.799 511.309, 819.412 511.297, 819.369 510.792, 817.559 510.498, 814.183 510.904, 812.502 511.004, 812.089 " fill="none" stroke="rgb(0, 0, 0)" stroke-linecap="butt" stroke-linejoin="round" stroke-opacity="1.0" stroke-width="3.0" />
            <path d=" M 981.466, 772.298 986.840, 765.758 989.932, 761.097 993.300, 756.152 995.695, 752.052 997.711, 748.600 " fill="none" stroke="rgb(0, 0, 0)" stroke-linecap="butt" stroke-linejoin="round" stroke-opacity="1.0" stroke-width="3.0" />
            <path d=" M 675.394, 783.107 669.728, 787.894 668.614, 790.197 668.496, 792.651 669.676, 797.866 666.950, 801.248 666.386, 802.327 670.381, 806.156 " fill="none" stroke="rgb(0, 0, 0)" stroke-linecap="butt" stroke-linejoin="round" stroke-opacity="1.0" stroke-width="3.0" />
            <path d=" M 881.812, 365.428 881.382, 365.335 881.046, 365.280 879.858, 365.083 878.481, 364.856 876.058, 364.455 872.328, 363.404 862.420, 362.291 857.634, 360.801 855.842, 360.601 854.118, 360.409 853.218, 360.308 " fill="none" stroke="rgb(0, 0, 0)" stroke-linecap="butt" stroke-linejoin="round" stroke-opacity="1.0" stroke-width="3.0" />
            <path d=" M 698.433, 413.478 696.823, 414.581 695.565, 415.444 693.952, 416.551 693.353, 416.998 690.683, 418.995 689.094, 420.183 687.931, 421.053 687.675, 421.244 687.198, 421.601 686.868, 422.059 683.195, 427.148 682.172, 430.598 682.070, 430.941 681.222, 432.336 681.112, 432.515 679.921, 434.475 679.542, 435.098 " fill="none" stroke="rgb(0, 0, 0)" stroke-linecap="butt" stroke-linejoin="round" stroke-opacity="1.0" stroke-width="3.0" />
            <path d=" M 1005.125, 555.102 1005.630, 557.363 1006.385, 561.729 1006.720, 555.477 1005.736, 549.512 1005.826, 543.796 1004.733, 538.807 " fill="none" stroke="rgb(0, 0, 0)" stroke-linecap="butt" stroke-linejoin="round" stroke-opacity="1.0" stroke-width="3.0" />
            <path d=" M 535.621, 553.531 535.609, 553.559 532.707, 560.014 529.643, 567.933 529.154, 569.198 528.980, 569.694 528.289, 571.671 524.145, 580.772 524.017, 581.053 " fill="none" stroke="rgb(0, 0, 0)" stroke-linecap="butt" stroke-linejoin="round" stroke-opacity="1.0" stroke-width="3.0" />
            <path d=" M 812.770, 366.094 812.213, 366.056 812.154, 366.052 810.586, 365.945 804.004, 365.494 802.140, 365.536 802.020, 365.539 800.974, 365.563 799.794, 365.953 797.748, 366.629 795.338, 369.592 794.195, 370.997 790.956, 372.414 790.351, 372.678 785.720, 374.703 " fill="none" stroke="rgb(0, 0, 0)" stroke-linecap="butt" stroke-linejoin="round" stroke-opacity="1.0" stroke-width="3.0" />
            <path d=" M 651.224, 522.509 652.799, 520.875 655.491, 516.668 655.880, 513.080 651.836, 504.664 650.101, 502.311 647.151, 495.988 " fill="none" stroke="rgb(0, 0, 0)" stroke-linecap="butt" stroke-linejoin="round" stroke-opacity="1.0" stroke-width="3.0" />
            <path d=" M 427.879, 1032.065 429.740, 1035.094 430.598, 1036.807 431.499, 1038.608 431.529, 1038.667 435.039, 1042.075 435.088, 1042.122 435.747, 1042.761 437.246, 1043.897 438.007, 1044.473 438.505, 1044.472 440.050, 1044.468 441.477, 1044.465 441.947, 1044.464 445.620, 1044.455 451.623, 1042.568 " fill="none" stroke="rgb(0, 0, 0)" stroke-linecap="butt" stroke-linejoin="round" stroke-opacity="1.0" stroke-width="3.0" />
            <path d=" M 671.587, 804.219 670.761, 807.603 669.253, 813.778 668.540, 816.603 667.643, 820.534 668.952, 824.361 673.269, 825.817 677.288, 828.429 " fill="none" stroke="rgb(0, 0, 0)" stroke-linecap="butt" stroke-linejoin="round" stroke-opacity="1.0" stroke-width="3.0" />
            <path d=" M 876.048, 1030.205 877.578, 1030.237 880.547, 1030.298 881.010, 1030.307 884.698, 1026.844 886.054, 1024.684 887.443, 1020.121 888.397, 1015.237 888.434, 1015.053 888.967, 1012.325 889.938, 1007.448 " fill="none" stroke="rgb(0, 0, 0)" stroke-linecap="butt" stroke-linejoin="round" stroke-opacity="1.0" stroke-width="3.0" />
            <path d=" M 837.687, 361.716 836.726, 361.678 835.276, 361.622 834.579, 361.595 833.348, 361.547 832.993, 361.534 832.115, 361.678 832.057, 361.688 830.319, 361.974 829.812, 362.098 829.755, 362.112 828.784, 362.348 827.950, 362.551 827.281, 362.714 824.803, 363.318 824.201, 363.464 821.583, 364.102 820.606, 364.315 819.947, 364.458 818.551, 364.762 813.300, 365.979 812.891, 366.074 812.888, 366.075 812.770, 366.094 811.928, 366.234 811.849, 366.248 810.992, 366.390 809.122, 366.702 807.976, 366.893 " fill="none" stroke="rgb(0, 0, 0)" stroke-linecap="butt" stroke-linejoin="round" stroke-opacity="1.0" stroke-width="3.0" />
            <path d=" M 682.343, 453.975 682.073, 454.712 681.040, 457.533 680.732, 459.103 680.684, 459.349 680.644, 459.554 680.544, 460.065 680.396, 460.822 680.382, 460.891 680.069, 461.746 679.258, 463.962 679.026, 467.921 679.181, 471.145 680.600, 476.171 682.884, 479.384 686.211, 481.182 " fill="none" stroke="rgb(0, 0, 0)" stroke-linecap="butt" stroke-linejoin="round" stroke-opacity="1.0" stroke-width="3.0" />
            <path d=" M 535.897, 966.260 536.810, 964.954 536.975, 962.513 534.768, 958.334 532.961, 954.460 530.981, 951.068 529.699, 948.614 527.516, 946.391 522.766, 944.073 521.270, 942.705 520.882, 942.350 " fill="none" stroke="rgb(0, 0, 0)" stroke-linecap="butt" stroke-linejoin="round" stroke-opacity="1.0" stroke-width="3.0" />
            <path d=" M 915.003, 848.208 917.616, 840.036 920.771, 833.596 923.174, 827.783 924.739, 823.711 926.305, 819.635 " fill="none" stroke="rgb(0, 0, 0)" stroke-linecap="butt" stroke-linejoin="round" stroke-opacity="1.0" stroke-width="3.0" />
            <path d=" M 677.297, 828.349 677.288, 828.429 677.151, 829.680 675.546, 831.177 674.741, 833.640 675.101, 835.976 674.523, 839.102 675.080, 843.362 675.400, 844.250 672.782, 851.612 672.111, 855.269 671.665, 857.702 " fill="none" stroke="rgb(0, 0, 0)" stroke-linecap="butt" stroke-linejoin="round" stroke-opacity="1.0" stroke-width="3.0" />
            <path d=" M 461.677, 964.468 462.092, 964.599 462.683, 964.785 466.285, 965.921 466.294, 965.919 472.156, 964.466 473.657, 962.182 473.820, 955.989 473.275, 955.061 472.053, 951.627 468.893, 949.263 467.988, 948.586 466.427, 947.376 " fill="none" stroke="rgb(0, 0, 0)" stroke-linecap="butt" stroke-linejoin="round" stroke-opacity="1.0" stroke-width="3.0" />
            <path d=" M 893.680, 561.994 889.117, 559.165 881.087, 557.586 878.502, 559.097 877.901, 560.859 878.121, 563.404 878.124, 563.439 878.141, 563.642 878.362, 566.206 878.650, 574.119 " fill="none" stroke="rgb(0, 0, 0)" stroke-linecap="butt" stroke-linejoin="round" stroke-opacity="1.0" stroke-width="3.0" />
            <path d=" M 768.699, 1073.171 768.771, 1073.794 769.920, 1083.728 770.115, 1085.407 769.219, 1092.277 767.217, 1096.106 765.521, 1099.347 764.965, 1103.943 " fill="none" stroke="rgb(0, 0, 0)" stroke-linecap="butt" stroke-linejoin="round" stroke-opacity="1.0" stroke-width="3.0" />
            <path d=" M 498.700, 1035.173 495.884, 1030.074 492.430, 1025.374 492.042, 1019.286 492.840, 1014.616 492.621, 1005.231 " fill="none" stroke="rgb(0, 0, 0)" stroke-linecap="butt" stroke-linejoin="round" stroke-opacity="1.0" stroke-width="3.0" />
            <path d=" M 489.243, 854.678 490.931, 854.051 495.323, 852.421 500.661, 850.302 503.055, 847.847 503.248, 847.451 504.458, 845.119 502.332, 842.510 497.352, 839.161 495.686, 837.623 493.753, 835.841 " fill="none" stroke="rgb(0, 0, 0)" stroke-linecap="butt" stroke-linejoin="round" stroke-opacity="1.0" stroke-width="3.0" />
            <path d=" M 767.217, 1096.106 764.238, 1098.429 760.800, 1100.409 756.342, 1103.345 753.421, 1106.215 745.911, 1108.302 742.394, 1112.133 743.304, 1114.193 743.814, 1114.453 " fill="none" stroke="rgb(0, 0, 0)" stroke-linecap="butt" stroke-linejoin="round" stroke-opacity="1.0" stroke-width="3.0" />
            <path d=" M 501.267, 1070.379 504.126, 1070.698 508.526, 1071.189 512.931, 1070.626 517.515, 1069.943 520.816, 1068.406 521.642, 1065.853 521.022, 1062.528 520.608, 1060.416 520.156, 1058.111 520.513, 1057.780 520.831, 1057.484 520.444, 1056.870 520.140, 1056.389 520.052, 1056.249 519.902, 1056.010 " fill="none" stroke="rgb(0, 0, 0)" stroke-linecap="butt" stroke-linejoin="round" stroke-opacity="1.0" stroke-width="3.0" />
            <path d=" M 891.199, 1001.488 892.619, 993.763 894.073, 984.475 894.999, 976.689 894.705, 967.922 " fill="none" stroke="rgb(0, 0, 0)" stroke-linecap="butt" stroke-linejoin="round" stroke-opacity="1.0" stroke-width="3.0" />
            <path d=" M 461.079, 999.633 461.726, 989.654 461.877, 987.333 462.392, 982.550 462.408, 982.454 462.455, 982.171 464.038, 972.764 466.294, 965.919 " fill="none" stroke="rgb(0, 0, 0)" stroke-linecap="butt" stroke-linejoin="round" stroke-opacity="1.0" stroke-width="3.0" />
            <path d=" M 702.115, 685.242 702.837, 689.489 703.337, 691.772 704.585, 697.353 705.334, 700.353 705.345, 700.400 705.350, 700.419 705.358, 700.452 705.822, 702.310 705.923, 702.696 708.451, 712.343 709.010, 714.349 709.066, 714.550 709.076, 714.585 710.256, 718.815 " fill="none" stroke="rgb(0, 0, 0)" stroke-linecap="butt" stroke-linejoin="round" stroke-opacity="1.0" stroke-width="3.0" />
            <path d=" M 710.798, 876.200 711.061, 877.062 709.895, 882.028 708.713, 884.636 706.816, 888.897 705.631, 892.328 703.626, 896.402 703.467, 897.043 704.479, 899.207 706.873, 900.453 708.985, 901.787 713.162, 903.113 713.537, 903.233 " fill="none" stroke="rgb(0, 0, 0)" stroke-linecap="butt" stroke-linejoin="round" stroke-opacity="1.0" stroke-width="3.0" />
            <path d=" M 481.754, 632.758 480.892, 635.076 478.286, 642.077 475.133, 648.550 471.891, 657.637 468.945, 665.383 " fill="none" stroke="rgb(0, 0, 0)" stroke-linecap="butt" stroke-linejoin="round" stroke-opacity="1.0" stroke-width="3.0" />
            <path d=" M 796.532, 1166.397 796.541, 1166.391 801.565, 1162.976 802.078, 1161.112 802.877, 1158.208 803.605, 1156.027 804.144, 1154.414 804.164, 1154.353 804.260, 1154.064 804.476, 1153.190 804.777, 1151.966 805.711, 1148.177 807.411, 1142.219 808.716, 1138.923 810.266, 1135.004 " fill="none" stroke="rgb(0, 0, 0)" stroke-linecap="butt" stroke-linejoin="round" stroke-opacity="1.0" stroke-width="3.0" />
            <path d=" M 513.198, 798.150 511.041, 794.123 511.140, 791.978 516.995, 788.749 518.495, 784.939 518.338, 782.083 517.649, 779.491 515.919, 777.971 515.910, 777.963 515.846, 777.907 513.969, 776.258 514.662, 774.941 517.448, 774.094 519.754, 773.392 520.961, 773.025 " fill="none" stroke="rgb(0, 0, 0)" stroke-linecap="butt" stroke-linejoin="round" stroke-opacity="1.0" stroke-width="3.0" />
            <path d=" M 514.267, 972.089 514.376, 972.118 518.953, 973.318 523.758, 974.001 530.131, 973.548 536.610, 973.276 539.299, 971.330 540.883, 970.139 540.147, 968.761 536.276, 966.350 535.897, 966.260 534.143, 965.846 " fill="none" stroke="rgb(0, 0, 0)" stroke-linecap="butt" stroke-linejoin="round" stroke-opacity="1.0" stroke-width="3.0" />
            <path d=" M 935.153, 560.525 936.382, 559.646 937.725, 558.686 938.596, 557.532 940.161, 554.037 942.232, 547.994 943.620, 543.943 945.301, 539.585 946.173, 537.325 946.575, 535.904 946.926, 534.549 949.635, 529.897 950.546, 528.334 " fill="none" stroke="rgb(0, 0, 0)" stroke-linecap="butt" stroke-linejoin="round" stroke-opacity="1.0" stroke-width="3.0" />
            <path d=" M 545.747, 520.566 543.257, 527.018 542.228, 532.100 542.219, 532.142 541.978, 533.331 541.953, 533.458 541.933, 533.555 541.867, 533.753 541.735, 534.150 541.416, 535.112 538.269, 544.586 536.334, 550.108 536.050, 551.470 535.940, 552.000 535.748, 552.920 535.621, 553.531 535.498, 554.122 535.248, 555.323 " fill="none" stroke="rgb(0, 0, 0)" stroke-linecap="butt" stroke-linejoin="round" stroke-opacity="1.0" stroke-width="3.0" />
            <path d=" M 833.625, 331.724 833.517, 331.720 831.672, 331.640 828.493, 332.816 826.450, 334.004 823.708, 336.774 822.677, 338.246 821.311, 339.600 818.958, 340.877 816.537, 342.052 814.544, 342.928 811.741, 343.374 807.357, 344.641 803.466, 346.239 801.464, 347.339 " fill="none" stroke="rgb(0, 0, 0)" stroke-linecap="butt" stroke-linejoin="round" stroke-opacity="1.0" stroke-width="3.0" />
            <path d=" M 696.594, 951.410 704.530, 953.503 707.920, 954.397 711.389, 955.849 715.909, 956.530 722.032, 957.111 724.152, 957.026 730.638, 955.881 733.275, 956.339 " fill="none" stroke="rgb(0, 0, 0)" stroke-linecap="butt" stroke-linejoin="round" stroke-opacity="1.0" stroke-width="3.0" />
            <path d=" M 1013.057, 718.340 1012.873, 717.240 1012.475, 715.478 1011.241, 713.195 1008.798, 709.501 1003.473, 704.911 1001.944, 698.590 1001.521, 691.198 1001.027, 688.147 1000.615, 685.604 1000.510, 684.958 1000.439, 684.521 " fill="none" stroke="rgb(0, 0, 0)" stroke-linecap="butt" stroke-linejoin="round" stroke-opacity="1.0" stroke-width="3.0" />
            <path d=" M 985.301, 464.825 984.548, 461.104 984.094, 459.692 983.010, 456.325 981.207, 450.202 980.895, 448.200 977.909, 441.575 977.173, 439.942 975.188, 435.878 972.565, 431.874 971.419, 430.124 " fill="none" stroke="rgb(0, 0, 0)" stroke-linecap="butt" stroke-linejoin="round" stroke-opacity="1.0" stroke-width="3.0" />
            <path d=" M 855.842, 360.601 853.766, 359.958 853.460, 359.863 853.206, 359.785 850.545, 359.822 842.333, 359.937 842.304, 359.937 840.589, 359.961 837.781, 360.477 836.004, 360.804 833.079, 361.341 833.062, 361.345 832.736, 361.405 831.311, 361.527 831.040, 361.550 827.609, 361.845 823.880, 362.165 817.716, 364.445 817.562, 364.502 " fill="none" stroke="rgb(0, 0, 0)" stroke-linecap="butt" stroke-linejoin="round" stroke-opacity="1.0" stroke-width="3.0" />
            <path d=" M 891.461, 368.130 889.015, 367.036 888.111, 366.631 887.188, 366.221 887.145, 366.202 886.643, 365.979 885.404, 365.429 882.363, 365.138 875.047, 362.849 871.767, 361.738 862.407, 360.792 859.936, 360.439 855.320, 359.778 853.460, 359.863 " fill="none" stroke="rgb(0, 0, 0)" stroke-linecap="butt" stroke-linejoin="round" stroke-opacity="1.0" stroke-width="3.0" />
            <path d=" M 951.112, 712.585 951.656, 709.236 952.140, 706.257 952.990, 701.456 954.734, 691.609 954.878, 690.796 957.042, 681.033 958.598, 674.013 " fill="none" stroke="rgb(0, 0, 0)" stroke-linecap="butt" stroke-linejoin="round" stroke-opacity="1.0" stroke-width="3.0" />
            <path d=" M 696.652, 654.327 690.391, 658.387 686.801, 660.391 683.340, 662.162 681.083, 663.131 678.399, 664.221 676.354, 664.960 673.829, 665.955 672.467, 666.358 670.525, 666.776 667.938, 667.368 664.272, 668.328 662.143, 668.500 662.045, 668.508 661.889, 668.521 661.706, 668.536 661.303, 668.568 660.275, 668.652 " fill="none" stroke="rgb(0, 0, 0)" stroke-linecap="butt" stroke-linejoin="round" stroke-opacity="1.0" stroke-width="3.0" />
            <path d=" M 711.046, 587.069 709.310, 587.468 706.875, 588.467 702.399, 589.081 700.243, 591.406 699.175, 592.641 695.336, 596.368 692.593, 598.142 685.397, 600.348 681.221, 602.680 677.446, 606.089 " fill="none" stroke="rgb(0, 0, 0)" stroke-linecap="butt" stroke-linejoin="round" stroke-opacity="1.0" stroke-width="3.0" />
            <path d=" M 467.634, 899.135 469.635, 898.405 471.188, 897.837 472.622, 897.314 472.744, 897.269 473.030, 897.164 475.271, 896.346 480.975, 892.696 484.219, 890.378 489.190, 888.215 490.568, 887.020 492.195, 885.433 492.540, 884.191 492.536, 883.254 490.837, 882.016 488.490, 880.763 484.927, 879.854 483.835, 879.576 " fill="none" stroke="rgb(0, 0, 0)" stroke-linecap="butt" stroke-linejoin="round" stroke-opacity="1.0" stroke-width="3.0" />
            <path d=" M 691.587, 720.863 690.444, 722.773 688.517, 728.261 688.479, 728.370 687.994, 728.965 683.431, 734.562 683.376, 734.630 683.018, 735.070 680.206, 740.083 679.659, 741.784 678.835, 744.352 678.703, 745.751 678.635, 746.478 678.624, 746.590 678.049, 752.702 678.907, 757.412 " fill="none" stroke="rgb(0, 0, 0)" stroke-linecap="butt" stroke-linejoin="round" stroke-opacity="1.0" stroke-width="3.0" />
            <path d=" M 831.311, 361.527 829.186, 361.126 825.075, 361.672 819.280, 363.460 815.516, 364.344 812.197, 365.250 807.311, 365.169 802.273, 365.454 802.201, 365.458 801.568, 365.494 797.667, 364.794 795.481, 363.758 792.201, 362.204 " fill="none" stroke="rgb(0, 0, 0)" stroke-linecap="butt" stroke-linejoin="round" stroke-opacity="1.0" stroke-width="3.0" />
            <path d=" M 755.949, 1171.681 755.944, 1171.946 756.780, 1176.775 757.701, 1178.714 762.504, 1181.159 764.989, 1181.693 765.162, 1181.682 765.675, 1181.649 769.739, 1181.391 774.531, 1178.512 779.389, 1174.123 782.298, 1171.428 783.683, 1170.144 785.469, 1168.489 785.470, 1168.488 " fill="none" stroke="rgb(0, 0, 0)" stroke-linecap="butt" stroke-linejoin="round" stroke-opacity="1.0" stroke-width="3.0" />
            <path d=" M 698.501, 628.999 697.536, 631.279 697.338, 636.732 697.388, 639.194 697.417, 640.612 697.433, 641.372 696.486, 649.245 696.652, 654.327 696.656, 654.432 696.788, 658.477 697.071, 667.117 697.144, 669.346 " fill="none" stroke="rgb(0, 0, 0)" stroke-linecap="butt" stroke-linejoin="round" stroke-opacity="1.0" stroke-width="3.0" />
            <path d=" M 732.966, 1015.781 729.844, 1019.295 722.527, 1026.111 720.290, 1028.196 712.540, 1034.516 712.083, 1034.889 708.110, 1037.388 701.643, 1042.002 " fill="none" stroke="rgb(0, 0, 0)" stroke-linecap="butt" stroke-linejoin="round" stroke-opacity="1.0" stroke-width="3.0" />
            <path d=" M 995.695, 752.052 997.084, 750.040 1002.025, 742.434 1006.337, 736.307 1009.319, 732.164 1013.107, 725.519 1013.496, 720.503 1013.057, 718.340 1012.475, 715.478 " fill="none" stroke="rgb(0, 0, 0)" stroke-linecap="butt" stroke-linejoin="round" stroke-opacity="1.0" stroke-width="3.0" />
            <path d=" M 769.914, 644.180 768.516, 642.799 768.379, 642.664 768.325, 642.610 767.826, 642.214 767.715, 642.126 767.559, 642.003 766.694, 641.316 765.756, 640.572 764.775, 639.745 763.344, 639.303 761.184, 640.641 760.755, 640.802 758.287, 641.728 756.085, 646.619 755.581, 653.628 755.310, 657.385 756.243, 662.231 754.603, 666.152 755.739, 669.960 " fill="none" stroke="rgb(0, 0, 0)" stroke-linecap="butt" stroke-linejoin="round" stroke-opacity="1.0" stroke-width="3.0" />
            <path d=" M 959.856, 500.753 960.024, 498.616 960.596, 496.796 961.458, 493.554 961.944, 486.861 961.940, 476.924 959.876, 473.946 958.830, 466.370 958.801, 466.155 959.580, 463.561 957.453, 458.880 " fill="none" stroke="rgb(0, 0, 0)" stroke-linecap="butt" stroke-linejoin="round" stroke-opacity="1.0" stroke-width="3.0" />
            <path d=" M 944.269, 743.212 944.325, 743.025 945.040, 740.664 946.958, 734.326 947.457, 732.592 947.479, 732.518 948.180, 730.081 948.408, 729.289 949.992, 723.787 951.043, 718.490 951.112, 712.585 951.115, 712.373 951.125, 711.541 951.145, 706.590 951.147, 705.986 951.169, 700.587 " fill="none" stroke="rgb(0, 0, 0)" stroke-linecap="butt" stroke-linejoin="round" stroke-opacity="1.0" stroke-width="3.0" />
            <path d=" M 726.215, 842.483 728.214, 838.549 737.746, 835.525 737.943, 835.462 744.573, 835.041 751.781, 836.315 752.912, 836.396 754.804, 837.502 755.031, 837.635 757.727, 839.210 761.576, 843.088 762.999, 845.810 " fill="none" stroke="rgb(0, 0, 0)" stroke-linecap="butt" stroke-linejoin="round" stroke-opacity="1.0" stroke-width="3.0" />
            <path d=" M 528.057, 939.951 528.739, 940.037 534.533, 940.766 537.059, 940.143 543.094, 938.561 546.977, 937.606 550.685, 936.215 553.371, 935.298 558.028, 933.005 558.671, 930.852 557.833, 929.742 554.831, 927.135 551.479, 925.662 550.269, 925.130 " fill="none" stroke="rgb(0, 0, 0)" stroke-linecap="butt" stroke-linejoin="round" stroke-opacity="1.0" stroke-width="3.0" />
            <path d=" M 424.691, 1054.748 425.367, 1058.475 427.225, 1065.772 428.209, 1067.629 428.907, 1073.276 428.380, 1079.493 429.697, 1085.375 431.169, 1089.593 432.366, 1090.970 434.787, 1092.190 436.271, 1091.279 437.901, 1090.279 " fill="none" stroke="rgb(0, 0, 0)" stroke-linecap="butt" stroke-linejoin="round" stroke-opacity="1.0" stroke-width="3.0" />
            <path d=" M 498.959, 991.372 499.347, 991.340 500.746, 991.227 506.247, 993.765 511.333, 994.125 515.233, 993.661 516.661, 992.213 516.270, 989.288 517.541, 988.478 518.636, 986.763 516.695, 983.224 513.693, 979.897 510.326, 977.486 507.690, 975.492 507.559, 975.394 506.184, 973.304 " fill="none" stroke="rgb(0, 0, 0)" stroke-linecap="butt" stroke-linejoin="round" stroke-opacity="1.0" stroke-width="3.0" />
            <path d=" M 676.778, 502.752 677.978, 505.347 681.296, 512.518 682.696, 514.836 686.156, 518.231 689.520, 520.883 698.138, 525.955 699.220, 526.591 707.555, 529.795 708.852, 530.187 " fill="none" stroke="rgb(0, 0, 0)" stroke-linecap="butt" stroke-linejoin="round" stroke-opacity="1.0" stroke-width="3.0" />
            <path d=" M 669.997, 462.825 669.125, 472.787 669.104, 473.022 669.038, 473.979 669.127, 482.039 669.232, 484.520 669.638, 487.686 671.095, 492.269 673.210, 497.377 677.978, 505.347 " fill="none" stroke="rgb(0, 0, 0)" stroke-linecap="butt" stroke-linejoin="round" stroke-opacity="1.0" stroke-width="3.0" />
            <path d=" M 731.613, 975.685 734.685, 983.949 735.098, 987.697 735.104, 987.744 735.503, 991.368 735.639, 992.608 735.602, 993.351 735.205, 1001.355 733.284, 1011.169 732.890, 1013.184 732.966, 1015.781 733.078, 1019.636 " fill="none" stroke="rgb(0, 0, 0)" stroke-linecap="butt" stroke-linejoin="round" stroke-opacity="1.0" stroke-width="3.0" />
            <path d=" M 939.565, 545.852 936.743, 555.445 935.879, 558.381 935.287, 560.129 935.153, 560.525 933.326, 565.921 932.698, 567.425 930.720, 569.432 929.982, 570.952 928.779, 574.871 924.787, 581.708 925.478, 577.922 925.015, 575.732 " fill="none" stroke="rgb(0, 0, 0)" stroke-linecap="butt" stroke-linejoin="round" stroke-opacity="1.0" stroke-width="3.0" />
            <path d=" M 689.920, 690.334 688.375, 693.301 687.605, 694.781 687.595, 694.800 687.276, 695.412 686.377, 699.255 685.369, 703.568 685.410, 703.801 686.896, 709.456 687.635, 711.883 688.081, 712.629 691.091, 717.669 691.587, 720.863 691.961, 723.269 692.228, 724.987 692.209, 725.207 692.208, 725.226 691.517, 733.434 691.488, 733.772 " fill="none" stroke="rgb(0, 0, 0)" stroke-linecap="butt" stroke-linejoin="round" stroke-opacity="1.0" stroke-width="3.0" />
            <path d=" M 564.522, 701.462 565.147, 701.566 567.071, 701.889 571.493, 702.393 573.823, 701.534 574.360, 699.313 574.033, 697.618 571.537, 690.842 571.208, 689.110 573.994, 686.529 574.336, 685.901 575.073, 683.404 572.678, 679.750 566.199, 676.131 563.861, 673.104 562.926, 671.893 " fill="none" stroke="rgb(0, 0, 0)" stroke-linecap="butt" stroke-linejoin="round" stroke-opacity="1.0" stroke-width="3.0" />
            <path d=" M 753.534, 356.803 752.136, 355.392 750.316, 353.554 747.991, 353.262 743.493, 353.985 737.184, 355.596 730.700, 357.766 727.682, 360.888 725.381, 364.557 724.650, 366.362 723.148, 369.261 722.109, 374.655 721.786, 378.032 " fill="none" stroke="rgb(0, 0, 0)" stroke-linecap="butt" stroke-linejoin="round" stroke-opacity="1.0" stroke-width="3.0" />
            <path d=" M 845.254, 361.971 844.298, 361.952 843.096, 361.927 842.893, 361.922 842.846, 361.921 842.305, 361.910 842.067, 361.905 841.447, 361.996 839.938, 362.218 839.096, 362.341 835.434, 362.879 835.323, 362.896 831.319, 363.186 824.910, 364.340 824.896, 364.342 824.525, 364.409 818.681, 365.509 818.272, 365.586 818.166, 365.606 814.764, 366.742 813.905, 366.795 813.323, 366.831 813.175, 366.840 808.557, 367.124 808.543, 367.125 808.003, 367.158 803.366, 367.397 803.282, 367.438 803.164, 367.496 802.041, 368.048 798.995, 370.199 " fill="none" stroke="rgb(0, 0, 0)" stroke-linecap="butt" stroke-linejoin="round" stroke-opacity="1.0" stroke-width="3.0" />
            <path d=" M 538.277, 902.636 539.959, 903.170 541.093, 903.529 547.669, 905.541 550.935, 905.557 556.305, 903.270 562.287, 901.542 567.668, 898.935 570.038, 898.020 572.119, 896.690 572.525, 894.286 571.219, 891.842 569.191, 889.418 567.551, 887.184 567.426, 886.966 567.235, 886.631 " fill="none" stroke="rgb(0, 0, 0)" stroke-linecap="butt" stroke-linejoin="round" stroke-opacity="1.0" stroke-width="3.0" />
            <path d=" M 414.308, 983.954 414.442, 992.371 414.462, 993.662 415.472, 1003.611 415.630, 1005.170 417.539, 1014.986 418.155, 1018.152 419.125, 1026.968 420.307, 1031.468 " fill="none" stroke="rgb(0, 0, 0)" stroke-linecap="butt" stroke-linejoin="round" stroke-opacity="1.0" stroke-width="3.0" />
            <path d=" M 447.585, 1042.551 451.623, 1042.568 451.898, 1042.569 453.165, 1042.083 454.580, 1040.961 456.555, 1038.716 456.651, 1038.606 459.372, 1035.514 461.305, 1033.013 463.190, 1031.217 465.672, 1028.472 467.521, 1026.585 468.961, 1023.677 468.406, 1020.456 463.990, 1019.503 458.615, 1019.685 458.407, 1019.692 458.288, 1019.696 458.194, 1019.699 458.110, 1019.699 457.891, 1019.697 456.626, 1019.689 456.195, 1019.686 456.085, 1019.685 455.860, 1019.684 455.855, 1019.684 453.527, 1019.669 " fill="none" stroke="rgb(0, 0, 0)" stroke-linecap="butt" stroke-linejoin="round" stroke-opacity="1.0" stroke-width="3.0" />
            <path d=" M 1003.484, 626.019 1003.952, 627.788 1004.592, 630.208 1004.088, 634.822 1005.433, 638.024 1005.698, 642.585 1005.262, 645.981 1006.742, 651.226 1005.118, 657.124 1004.889, 660.041 1004.597, 664.703 1004.374, 657.345 1004.329, 655.865 " fill="none" stroke="rgb(0, 0, 0)" stroke-linecap="butt" stroke-linejoin="round" stroke-opacity="1.0" stroke-width="3.0" />
            <path d=" M 878.121, 563.404 877.799, 563.419 876.871, 565.549 876.526, 568.507 878.650, 574.119 881.310, 579.839 884.912, 585.052 885.852, 586.411 885.861, 586.424 890.334, 591.658 895.673, 599.729 896.238, 600.583 896.698, 601.279 898.725, 603.986 899.398, 604.887 " fill="none" stroke="rgb(0, 0, 0)" stroke-linecap="butt" stroke-linejoin="round" stroke-opacity="1.0" stroke-width="3.0" />
            <path d=" M 597.542, 827.608 595.996, 828.446 592.774, 829.238 597.542, 827.608 598.536, 827.269 602.659, 824.512 603.880, 821.469 603.662, 816.015 604.671, 811.076 609.600, 806.652 611.428, 803.788 611.817, 801.689 611.028, 797.973 608.475, 794.735 608.121, 794.286 " fill="none" stroke="rgb(0, 0, 0)" stroke-linecap="butt" stroke-linejoin="round" stroke-opacity="1.0" stroke-width="3.0" />
            <path d=" M 416.138, 876.204 416.023, 877.125 414.789, 887.049 413.555, 896.972 412.853, 902.615 412.325, 912.142 411.838, 922.008 411.750, 923.804 411.912, 926.678 " fill="none" stroke="rgb(0, 0, 0)" stroke-linecap="butt" stroke-linejoin="round" stroke-opacity="1.0" stroke-width="3.0" />
            <path d=" M 1003.952, 627.788 1004.424, 626.617 1004.039, 620.295 1004.120, 619.746 1004.992, 616.043 1005.572, 613.370 1006.195, 610.108 1006.935, 606.729 1006.752, 601.708 1005.428, 594.826 1005.169, 589.105 1005.101, 582.728 1005.090, 581.767 1004.447, 576.921 " fill="none" stroke="rgb(0, 0, 0)" stroke-linecap="butt" stroke-linejoin="round" stroke-opacity="1.0" stroke-width="3.0" />
            <path d=" M 595.465, 593.648 589.152, 597.846 580.389, 602.664 578.911, 603.477 570.957, 607.406 564.502, 610.453 560.455, 612.817 560.447, 612.821 559.654, 613.284 556.073, 615.073 548.745, 616.812 " fill="none" stroke="rgb(0, 0, 0)" stroke-linecap="butt" stroke-linejoin="round" stroke-opacity="1.0" stroke-width="3.0" />
            <path d=" M 857.039, 1119.602 859.548, 1117.700 866.233, 1110.264 867.491, 1108.865 875.078, 1102.283 879.607, 1096.948 882.933, 1093.572 887.990, 1087.798 892.274, 1081.089 " fill="none" stroke="rgb(0, 0, 0)" stroke-linecap="butt" stroke-linejoin="round" stroke-opacity="1.0" stroke-width="3.0" />
            <path d=" M 725.785, 919.949 725.254, 920.352 720.805, 923.231 714.297, 927.800 710.065, 933.732 703.977, 940.529 696.345, 946.927 695.358, 949.341 696.594, 951.410 699.836, 952.530 704.530, 953.503 " fill="none" stroke="rgb(0, 0, 0)" stroke-linecap="butt" stroke-linejoin="round" stroke-opacity="1.0" stroke-width="3.0" />
            <path d=" M 567.426, 886.966 567.190, 884.012 565.405, 877.729 565.968, 874.779 566.146, 872.397 566.590, 869.711 570.800, 869.318 573.619, 869.301 577.499, 868.382 582.216, 865.324 585.228, 864.071 587.724, 862.415 588.503, 860.256 587.499, 857.784 586.777, 856.488 585.237, 852.036 584.508, 849.927 " fill="none" stroke="rgb(0, 0, 0)" stroke-linecap="butt" stroke-linejoin="round" stroke-opacity="1.0" stroke-width="3.0" />
            <path d=" M 636.077, 758.264 640.909, 758.495 643.908, 757.081 646.085, 754.826 649.125, 748.189 650.279, 745.613 650.565, 744.974 650.576, 743.223 650.532, 741.860 650.136, 741.360 649.918, 741.084 647.740, 738.327 645.400, 736.532 641.000, 734.980 636.789, 735.786 629.685, 738.331 627.826, 739.130 625.519, 740.947 " fill="none" stroke="rgb(0, 0, 0)" stroke-linecap="butt" stroke-linejoin="round" stroke-opacity="1.0" stroke-width="3.0" />
            <path d=" M 980.187, 716.979 980.438, 708.525 980.439, 708.503 980.449, 708.148 980.459, 707.833 980.632, 702.003 980.641, 701.683 980.764, 696.226 980.634, 686.227 980.584, 682.404 980.795, 672.678 981.398, 668.271 981.466, 667.775 982.308, 661.620 " fill="none" stroke="rgb(0, 0, 0)" stroke-linecap="butt" stroke-linejoin="round" stroke-opacity="1.0" stroke-width="3.0" />
            <path d=" M 952.471, 834.811 956.721, 825.759 959.655, 819.512 963.294, 810.198 963.456, 809.783 967.325, 800.562 968.994, 796.584 971.919, 788.427 972.520, 786.308 972.813, 785.276 972.825, 785.233 973.028, 784.519 973.176, 783.995 973.383, 783.266 " fill="none" stroke="rgb(0, 0, 0)" stroke-linecap="butt" stroke-linejoin="round" stroke-opacity="1.0" stroke-width="3.0" />
            <path d=" M 529.961, 737.162 533.395, 737.153 534.465, 737.150 534.721, 737.231 536.586, 737.822 540.232, 738.979 543.644, 738.555 545.044, 737.771 546.128, 735.621 546.288, 731.818 545.525, 726.219 546.523, 721.231 550.441, 718.854 553.087, 715.185 553.047, 711.695 552.234, 705.994 551.816, 705.828 549.961, 705.091 547.675, 704.183 " fill="none" stroke="rgb(0, 0, 0)" stroke-linecap="butt" stroke-linejoin="round" stroke-opacity="1.0" stroke-width="3.0" />
            <path d=" M 989.819, 501.568 989.876, 493.685 989.537, 488.125 989.505, 487.600 989.502, 487.542 989.501, 487.527 989.469, 487.003 989.197, 482.534 989.060, 480.290 987.428, 470.424 987.360, 470.014 985.301, 464.825 984.808, 463.584 983.815, 460.850 983.657, 460.318 983.518, 459.850 981.679, 453.651 981.274, 452.763 980.402, 450.848 980.148, 450.292 979.269, 448.364 978.825, 445.551 " fill="none" stroke="rgb(0, 0, 0)" stroke-linecap="butt" stroke-linejoin="round" stroke-opacity="1.0" stroke-width="3.0" />
            <path d=" M 985.904, 529.839 986.344, 526.299 986.886, 521.953 986.878, 519.639 986.858, 514.337 986.608, 509.159 986.968, 504.667 987.385, 499.899 987.191, 497.521 988.178, 493.594 988.199, 491.169 988.240, 486.505 987.534, 482.547 986.930, 479.156 987.138, 477.705 987.173, 477.463 987.035, 474.970 987.027, 474.818 986.958, 473.567 986.951, 473.444 986.922, 472.920 986.895, 472.433 " fill="none" stroke="rgb(0, 0, 0)" stroke-linecap="butt" stroke-linejoin="round" stroke-opacity="1.0" stroke-width="3.0" />
            <path d=" M 587.450, 641.633 589.776, 640.871 593.218, 639.743 595.707, 638.911 601.607, 634.598 605.462, 630.455 607.304, 627.959 610.253, 624.758 611.999, 622.576 613.215, 621.056 614.706, 619.695 616.410, 618.140 619.795, 614.504 621.526, 612.389 622.348, 611.385 625.351, 608.663 627.045, 606.731 629.372, 604.385 631.337, 601.775 " fill="none" stroke="rgb(0, 0, 0)" stroke-linecap="butt" stroke-linejoin="round" stroke-opacity="1.0" stroke-width="3.0" />
            <path d=" M 765.162, 1181.682 766.707, 1184.068 769.447, 1185.267 776.588, 1186.361 782.569, 1184.913 784.176, 1184.226 786.202, 1183.360 793.726, 1176.928 799.932, 1174.279 799.946, 1174.274 800.961, 1173.840 802.459, 1173.165 802.495, 1173.149 803.213, 1172.825 804.587, 1172.205 805.817, 1171.650 811.144, 1166.169 815.699, 1161.026 " fill="none" stroke="rgb(0, 0, 0)" stroke-linecap="butt" stroke-linejoin="round" stroke-opacity="1.0" stroke-width="3.0" />
            <path d=" M 733.298, 971.245 732.963, 971.332 725.357, 973.321 722.857, 974.547 719.436, 977.678 713.928, 982.754 711.081, 985.506 708.609, 989.270 708.780, 990.323 711.665, 995.116 716.443, 996.316 722.090, 996.956 724.272, 996.030 733.760, 992.871 734.036, 992.779 735.602, 993.351 " fill="none" stroke="rgb(0, 0, 0)" stroke-linecap="butt" stroke-linejoin="round" stroke-opacity="1.0" stroke-width="3.0" />
            <path d=" M 925.821, 604.289 924.952, 599.868 924.300, 598.036 922.137, 593.619 921.405, 592.125 919.195, 588.910 916.420, 585.000 914.279, 581.981 910.182, 577.996 902.909, 571.132 902.760, 570.990 900.592, 569.052 897.253, 566.065 896.903, 565.752 894.699, 563.182 894.544, 563.002 893.680, 561.994 894.755, 562.977 894.974, 563.177 897.746, 565.711 899.204, 567.044 900.592, 569.052 " fill="none" stroke="rgb(0, 0, 0)" stroke-linecap="butt" stroke-linejoin="round" stroke-opacity="1.0" stroke-width="3.0" />
            <path d=" M 679.292, 604.885 677.446, 606.089 675.130, 607.601 671.265, 611.137 669.751, 612.522 668.429, 613.132 663.441, 615.437 656.825, 615.755 653.919, 614.315 651.755, 611.188 647.839, 608.813 645.266, 608.723 643.579, 609.567 640.305, 611.135 638.058, 611.524 634.010, 612.468 629.587, 612.727 627.137, 612.278 623.194, 612.131 621.526, 612.389 " fill="none" stroke="rgb(0, 0, 0)" stroke-linecap="butt" stroke-linejoin="round" stroke-opacity="1.0" stroke-width="3.0" />
            <path d=" M 526.065, 544.115 524.573, 544.278 518.594, 545.644 515.184, 547.929 513.068, 548.776 509.806, 550.845 507.564, 554.060 504.415, 557.110 502.758, 561.110 500.275, 563.198 498.876, 566.226 497.898, 567.225 494.938, 569.518 493.961, 572.788 491.575, 578.903 489.457, 587.653 489.471, 591.419 " fill="none" stroke="rgb(0, 0, 0)" stroke-linecap="butt" stroke-linejoin="round" stroke-opacity="1.0" stroke-width="3.0" />
            <path d=" M 906.529, 984.957 909.033, 977.210 909.363, 973.760 909.515, 969.342 910.557, 959.396 910.695, 958.076 912.167, 948.185 912.747, 944.285 914.507, 934.441 916.267, 924.597 916.460, 923.516 917.009, 920.449 " fill="none" stroke="rgb(0, 0, 0)" stroke-linecap="butt" stroke-linejoin="round" stroke-opacity="1.0" stroke-width="3.0" />
            <path d=" M 426.235, 1055.166 426.266, 1055.232 427.851, 1058.593 428.537, 1062.268 429.539, 1065.674 428.724, 1068.344 429.667, 1073.236 430.572, 1077.618 431.696, 1078.579 433.490, 1079.895 435.106, 1078.967 435.359, 1078.822 435.557, 1078.708 435.577, 1078.697 435.592, 1078.688 437.634, 1077.516 437.963, 1077.327 439.219, 1076.606 439.849, 1072.363 440.258, 1071.010 440.989, 1068.591 441.479, 1066.969 443.305, 1060.926 443.305, 1055.179 441.358, 1047.506 441.512, 1045.032 441.947, 1044.464 " fill="none" stroke="rgb(0, 0, 0)" stroke-linecap="butt" stroke-linejoin="round" stroke-opacity="1.0" stroke-width="3.0" />
            <path d=" M 718.112, 547.612 717.113, 555.471 717.239, 559.983 717.251, 560.399 717.279, 561.408 717.236, 562.306 717.225, 562.549 717.143, 564.257 717.239, 569.519 714.968, 574.601 713.991, 579.067 712.122, 584.783 711.046, 587.069 709.392, 590.583 707.896, 596.527 705.161, 601.271 703.952, 603.898 703.075, 605.801 703.158, 610.687 703.174, 611.608 " fill="none" stroke="rgb(0, 0, 0)" stroke-linecap="butt" stroke-linejoin="round" stroke-opacity="1.0" stroke-width="3.0" />
            <path d=" M 924.963, 665.165 924.995, 664.965 926.013, 658.590 926.324, 656.643 927.540, 646.717 927.662, 645.720 928.109, 640.127 928.068, 630.127 928.065, 629.363 928.082, 619.363 928.089, 614.747 927.057, 609.372 925.821, 604.289 924.300, 598.036 " fill="none" stroke="rgb(0, 0, 0)" stroke-linecap="butt" stroke-linejoin="round" stroke-opacity="1.0" stroke-width="3.0" />
            <path d=" M 923.802, 826.751 926.305, 819.635 928.419, 813.902 930.708, 807.251 933.091, 800.488 936.089, 790.948 937.180, 787.475 939.010, 778.645 939.843, 774.626 941.370, 764.743 941.977, 760.819 " fill="none" stroke="rgb(0, 0, 0)" stroke-linecap="butt" stroke-linejoin="round" stroke-opacity="1.0" stroke-width="3.0" />
            <path d=" M 802.459, 1173.165 802.767, 1173.157 804.033, 1172.715 808.519, 1171.150 811.695, 1168.663 817.381, 1161.890 817.446, 1161.812 817.535, 1161.749 823.659, 1157.394 826.929, 1154.512 834.161, 1147.605 834.469, 1147.311 840.117, 1140.564 844.625, 1134.479 849.609, 1127.053 851.412, 1124.653 " fill="none" stroke="rgb(0, 0, 0)" stroke-linecap="butt" stroke-linejoin="round" stroke-opacity="1.0" stroke-width="3.0" />
            <path d=" M 411.838, 922.008 411.912, 926.678 412.041, 934.842 412.027, 944.842 412.027, 945.383 412.369, 955.377 412.492, 958.952 412.735, 967.838 412.943, 974.459 413.329, 983.589 414.442, 992.371 " fill="none" stroke="rgb(0, 0, 0)" stroke-linecap="butt" stroke-linejoin="round" stroke-opacity="1.0" stroke-width="3.0" />
            <path d=" M 983.106, 595.247 983.479, 591.521 984.278, 583.189 984.084, 573.232 984.335, 563.235 984.340, 563.033 985.463, 553.146 985.893, 543.155 985.989, 540.928 986.735, 530.956 986.821, 529.808 986.878, 526.446 986.918, 524.107 " fill="none" stroke="rgb(0, 0, 0)" stroke-linecap="butt" stroke-linejoin="round" stroke-opacity="1.0" stroke-width="3.0" />
            <path d=" M 890.484, 1081.459 892.274, 1081.089 893.944, 1080.743 897.128, 1076.795 899.393, 1067.466 898.722, 1062.211 898.730, 1061.216 898.781, 1054.568 899.893, 1045.023 899.527, 1037.122 900.352, 1029.932 901.255, 1019.973 901.821, 1013.738 901.869, 1013.158 " fill="none" stroke="rgb(0, 0, 0)" stroke-linecap="butt" stroke-linejoin="round" stroke-opacity="1.0" stroke-width="3.0" />
            <path d=" M 831.467, 744.021 826.590, 744.778 825.253, 744.985 825.210, 744.992 825.078, 745.013 822.012, 745.489 819.066, 745.493 814.534, 747.362 813.356, 747.847 813.224, 747.902 813.156, 747.930 813.043, 747.976 812.836, 748.062 812.026, 748.158 810.998, 748.279 810.484, 748.340 810.307, 748.361 810.111, 748.384 809.059, 748.420 803.896, 748.596 796.736, 748.318 795.545, 748.272 794.068, 747.813 788.164, 745.977 778.668, 742.811 771.132, 737.513 767.634, 734.365 767.038, 733.829 764.196, 731.271 " fill="none" stroke="rgb(0, 0, 0)" stroke-linecap="butt" stroke-linejoin="round" stroke-opacity="1.0" stroke-width="3.0" />
            <path d=" M 467.166, 1088.344 467.818, 1091.868 468.899, 1094.494 471.799, 1095.613 475.617, 1093.488 478.040, 1091.857 479.098, 1090.672 479.744, 1089.748 480.470, 1083.215 481.948, 1073.709 480.400, 1068.427 478.756, 1066.902 478.244, 1064.111 481.163, 1064.549 485.372, 1067.244 492.806, 1069.520 498.176, 1070.096 501.416, 1070.794 504.126, 1070.698 " fill="none" stroke="rgb(0, 0, 0)" stroke-linecap="butt" stroke-linejoin="round" stroke-opacity="1.0" stroke-width="3.0" />
            <path d=" M 722.166, 377.226 721.786, 378.032 720.849, 380.024 716.892, 383.761 713.487, 385.803 705.309, 389.750 698.525, 397.096 698.233, 397.413 692.013, 402.774 689.767, 404.247 687.548, 406.686 686.474, 407.866 685.250, 409.969 684.592, 411.102 681.312, 417.195 680.941, 418.375 680.677, 419.212 680.193, 420.751 680.042, 421.232 679.686, 423.932 679.624, 424.407 679.261, 427.163 679.229, 428.480 679.169, 431.013 679.500, 434.017 " fill="none" stroke="rgb(0, 0, 0)" stroke-linecap="butt" stroke-linejoin="round" stroke-opacity="1.0" stroke-width="3.0" />
            <path d=" M 609.534, 459.814 609.273, 459.664 605.965, 457.884 600.529, 456.130 595.589, 456.395 594.942, 456.513 589.113, 458.065 585.167, 460.846 581.761, 463.976 577.517, 468.389 573.794, 472.165 572.205, 474.355 568.842, 477.572 566.537, 479.810 561.615, 485.732 557.032, 492.130 555.630, 495.624 553.701, 500.081 " fill="none" stroke="rgb(0, 0, 0)" stroke-linecap="butt" stroke-linejoin="round" stroke-opacity="1.0" stroke-width="3.0" />
            <path d=" M 467.558, 668.729 465.683, 672.065 462.767, 681.630 462.409, 682.804 459.576, 692.394 458.309, 696.687 455.624, 706.319 455.305, 707.464 453.101, 713.788 450.370, 723.408 449.978, 724.787 448.461, 730.038 446.940, 734.296 444.753, 744.054 444.344, 745.876 " fill="none" stroke="rgb(0, 0, 0)" stroke-linecap="butt" stroke-linejoin="round" stroke-opacity="1.0" stroke-width="3.0" />
            <path d=" M 681.222, 432.336 680.056, 433.512 679.798, 433.771 679.622, 433.948 679.506, 434.066 679.299, 434.275 674.785, 438.827 674.489, 439.125 671.581, 442.518 669.200, 450.997 668.279, 455.772 668.764, 459.112 669.997, 462.825 670.032, 462.931 670.261, 470.972 670.566, 472.423 671.812, 478.352 674.902, 486.443 678.481, 490.612 680.483, 491.674 682.472, 493.827 685.364, 495.412 688.410, 496.026 694.138, 494.769 " fill="none" stroke="rgb(0, 0, 0)" stroke-linecap="butt" stroke-linejoin="round" stroke-opacity="1.0" stroke-width="3.0" />
            <path d=" M 898.730, 1061.216 899.804, 1051.274 899.978, 1049.666 900.221, 1042.237 900.940, 1033.552 900.855, 1026.457 902.242, 1016.554 903.216, 1009.605 904.836, 999.737 905.769, 994.057 906.529, 984.957 907.042, 978.815 " fill="none" stroke="rgb(0, 0, 0)" stroke-linecap="butt" stroke-linejoin="round" stroke-opacity="1.0" stroke-width="3.0" />
            <path d=" M 661.180, 541.608 658.714, 545.205 652.952, 553.378 652.503, 554.014 646.789, 560.341 641.608, 566.284 637.934, 569.510 633.853, 573.318 627.372, 578.058 623.883, 580.868 619.684, 584.076 615.429, 587.435 608.435, 592.169 600.140, 597.755 599.865, 597.940 " fill="none" stroke="rgb(0, 0, 0)" stroke-linecap="butt" stroke-linejoin="round" stroke-opacity="1.0" stroke-width="3.0" />
            <path d=" M 647.227, 585.486 648.929, 584.194 652.641, 581.376 655.182, 577.784 659.511, 573.805 661.733, 571.225 664.627, 567.465 667.036, 562.638 668.491, 558.664 672.658, 550.656 674.463, 546.884 676.898, 542.071 679.439, 534.777 681.416, 524.975 681.817, 522.988 681.657, 520.464 680.545, 515.489 678.087, 513.468 673.088, 514.293 " fill="none" stroke="rgb(0, 0, 0)" stroke-linecap="butt" stroke-linejoin="round" stroke-opacity="1.0" stroke-width="3.0" />
            <path d=" M 645.454, 491.905 644.461, 488.718 641.956, 482.732 637.799, 473.636 636.157, 470.041 632.806, 462.756 630.838, 460.751 629.746, 459.756 627.188, 458.346 623.796, 457.645 614.514, 458.186 612.420, 458.457 609.809, 459.703 609.534, 459.814 607.009, 460.828 606.659, 461.109 603.752, 463.440 599.468, 466.945 597.050, 471.530 594.917, 474.371 593.790, 477.070 590.788, 484.796 590.394, 485.812 " fill="none" stroke="rgb(0, 0, 0)" stroke-linecap="butt" stroke-linejoin="round" stroke-opacity="1.0" stroke-width="3.0" />
            <path d=" M 683.756, 475.338 686.211, 481.182 687.506, 484.263 689.058, 488.573 691.305, 489.932 694.138, 494.769 694.310, 495.063 696.392, 501.389 699.837, 505.717 701.747, 509.748 703.996, 515.656 706.641, 521.680 707.668, 527.151 708.852, 530.187 711.077, 535.887 714.228, 541.405 712.917, 549.330 715.547, 555.148 716.691, 560.352 717.225, 562.549 " fill="none" stroke="rgb(0, 0, 0)" stroke-linecap="butt" stroke-linejoin="round" stroke-opacity="1.0" stroke-width="3.0" />
            <path d=" M 916.460, 923.516 917.852, 918.640 921.237, 910.155 922.034, 908.051 926.140, 898.933 930.246, 889.815 932.419, 884.991 935.959, 875.638 936.615, 873.907 940.313, 864.616 944.012, 855.325 945.472, 851.658 949.286, 842.414 951.023, 838.205 952.471, 834.811 953.824, 831.639 " fill="none" stroke="rgb(0, 0, 0)" stroke-linecap="butt" stroke-linejoin="round" stroke-opacity="1.0" stroke-width="3.0" />
            <path d=" M 808.013, 1104.560 808.208, 1104.141 808.783, 1102.903 808.986, 1102.466 810.502, 1099.204 810.767, 1098.822 812.475, 1096.368 818.187, 1088.160 818.269, 1088.042 820.719, 1085.647 821.195, 1085.181 822.848, 1083.565 827.761, 1078.520 834.630, 1071.241 839.855, 1065.418 842.541, 1062.334 847.958, 1056.227 849.979, 1054.673 850.004, 1054.674 855.751, 1054.947 856.279, 1054.972 856.803, 1054.996 860.742, 1052.414 863.059, 1049.353 863.915, 1048.075 864.673, 1046.943 864.734, 1046.852 865.105, 1046.298 867.427, 1042.830 872.541, 1036.242 873.169, 1035.433 875.244, 1031.666 875.577, 1031.061 875.646, 1030.935 876.048, 1030.205 876.239, 1029.860 876.252, 1029.835 876.270, 1029.803 876.648, 1029.117 876.751, 1028.929 876.802, 1028.836 878.959, 1024.921 " fill="none" stroke="rgb(0, 0, 0)" stroke-linecap="butt" stroke-linejoin="round" stroke-opacity="1.0" stroke-width="3.0" />
            <path d=" M 894.256, 971.557 894.274, 971.413 894.705, 967.922 895.519, 961.335 896.274, 951.363 897.030, 941.392 897.628, 933.502 898.313, 923.525 898.537, 920.267 899.363, 910.302 899.629, 907.087 901.098, 897.196 901.838, 892.213 903.217, 886.405 903.811, 884.004 905.667, 876.501 908.375, 866.937 910.651, 859.310 912.216, 854.998 912.829, 853.311 " fill="none" stroke="rgb(0, 0, 0)" stroke-linecap="butt" stroke-linejoin="round" stroke-opacity="1.0" stroke-width="3.0" />
            <path d=" M 753.961, 720.716 753.779, 720.013 753.722, 719.793 753.695, 719.688 753.661, 719.560 753.652, 719.524 753.612, 719.370 753.145, 717.570 750.188, 714.130 747.484, 709.745 745.363, 705.850 742.864, 698.335 742.588, 696.810 741.109, 688.643 740.918, 678.591 740.110, 668.624 740.073, 668.168 740.161, 659.578 740.474, 655.175 740.622, 651.625 740.796, 647.456 740.931, 642.599 741.009, 642.196 742.205, 635.974 743.545, 628.884 744.951, 622.921 746.709, 616.169 750.611, 606.877 751.628, 604.456 751.715, 604.247 " fill="none" stroke="rgb(0, 0, 0)" stroke-linecap="butt" stroke-linejoin="round" stroke-opacity="1.0" stroke-width="3.0" />
            <path d=" M 764.657, 1105.332 762.393, 1106.314 755.287, 1109.396 751.419, 1110.507 746.895, 1113.422 744.563, 1114.202 743.814, 1114.453 737.940, 1116.417 733.457, 1117.957 730.650, 1122.074 730.416, 1122.814 730.931, 1127.203 737.836, 1132.389 742.170, 1133.587 750.801, 1133.585 757.919, 1131.291 760.375, 1131.471 762.055, 1133.427 762.199, 1133.723 765.081, 1139.630 764.033, 1141.025 760.437, 1145.810 753.280, 1152.666 749.200, 1160.036 750.594, 1164.828 751.724, 1167.089 753.102, 1169.443 754.154, 1171.242 " fill="none" stroke="rgb(0, 0, 0)" stroke-linecap="butt" stroke-linejoin="round" stroke-opacity="1.0" stroke-width="3.0" />
            <path d=" M 934.513, 389.797 933.504, 388.609 932.491, 387.416 931.000, 385.525 928.437, 383.341 926.601, 381.135 922.490, 378.104 917.114, 375.178 914.756, 374.157 909.288, 372.963 906.324, 371.127 901.427, 368.816 899.828, 367.164 897.714, 365.183 894.721, 362.109 889.456, 354.100 885.611, 349.018 883.456, 346.640 879.736, 343.294 875.493, 340.532 869.900, 336.098 866.583, 332.175 863.481, 331.097 860.012, 331.227 852.112, 331.321 847.850, 331.027 843.190, 330.261 838.946, 330.213 835.535, 330.431 833.517, 331.720 " fill="none" stroke="rgb(0, 0, 0)" stroke-linecap="butt" stroke-linejoin="round" stroke-opacity="1.0" stroke-width="3.0" />
            <path d=" M 679.015, 757.153 678.907, 757.412 677.358, 761.122 676.942, 766.430 676.770, 768.631 675.736, 772.363 675.355, 777.521 675.118, 780.396 675.222, 781.420 675.394, 783.107 675.451, 783.665 675.504, 784.185 675.912, 788.183 679.418, 795.758 679.430, 803.781 679.432, 805.230 679.321, 812.016 680.625, 817.080 681.226, 818.589 683.532, 824.385 684.267, 827.374 684.420, 827.998 684.433, 828.051 684.595, 828.709 685.647, 832.990 687.719, 838.090 689.616, 843.483 690.513, 845.386 691.781, 848.076 693.711, 856.495 693.906, 857.135 695.145, 860.215 698.093, 864.390 699.192, 865.946 699.506, 866.203 699.614, 866.292 700.059, 866.658 700.311, 866.864 704.402, 870.225 707.388, 872.477 708.728, 873.940 710.798, 876.200 712.243, 877.777 " fill="none" stroke="rgb(0, 0, 0)" stroke-linecap="butt" stroke-linejoin="round" stroke-opacity="1.0" stroke-width="3.0" />
            <path d=" M 445.473, 742.279 444.344, 745.876 442.273, 752.479 440.054, 762.230 439.694, 763.808 437.133, 772.502 434.699, 780.863 432.544, 788.534 431.416, 794.221 429.357, 804.007 429.022, 805.603 426.585, 815.328 424.976, 822.581 423.088, 832.401 422.692, 834.460 420.757, 844.271 419.018, 853.090 417.613, 862.990 416.780, 868.864 416.023, 877.125 " fill="none" stroke="rgb(0, 0, 0)" stroke-linecap="butt" stroke-linejoin="round" stroke-opacity="1.0" stroke-width="3.0" />
            <path d=" M 701.931, 1041.842 701.643, 1042.002 692.904, 1046.863 690.841, 1048.011 686.235, 1049.899 678.335, 1053.897 668.750, 1056.748 663.866, 1058.201 661.301, 1062.776 661.008, 1065.918 663.120, 1067.463 671.622, 1068.905 673.946, 1069.346 683.923, 1070.018 685.275, 1070.109 695.268, 1070.480 695.994, 1070.506 705.991, 1070.268 706.718, 1070.251 716.435, 1068.809 720.018, 1068.178 729.762, 1065.930 731.051, 1065.632 739.095, 1063.063 748.350, 1059.276 749.868, 1058.654 753.567, 1058.501 762.369, 1063.247 763.663, 1063.944 766.052, 1066.254 767.643, 1067.791 771.559, 1072.969 " fill="none" stroke="rgb(0, 0, 0)" stroke-linecap="butt" stroke-linejoin="round" stroke-opacity="1.0" stroke-width="3.0" />
            <path d=" M 751.628, 604.456 755.573, 598.353 757.153, 595.695 759.551, 591.659 762.602, 586.433 764.914, 583.495 767.987, 579.747 772.222, 574.422 778.846, 566.930 779.410, 566.292 784.766, 563.236 785.621, 562.748 785.961, 562.554 787.231, 561.830 789.700, 560.438 793.736, 557.468 793.065, 554.910 792.372, 548.821 791.473, 546.844 790.123, 544.190 789.231, 543.371 789.198, 543.341 788.303, 542.519 787.782, 542.041 787.726, 541.989 787.205, 541.510 786.747, 541.090 785.505, 539.687 785.413, 539.583 783.885, 537.857 781.188, 535.859 780.207, 535.132 778.538, 533.896 778.431, 533.851 774.448, 532.172 770.599, 529.477 768.089, 526.337 766.804, 524.466 766.807, 524.322 766.807, 524.314 766.823, 523.248 766.813, 520.682 766.809, 519.720 764.995, 516.017 764.798, 512.553 762.949, 508.308 762.782, 507.301 762.129, 503.383 761.430, 502.341 761.562, 499.866 761.042, 496.088 758.378, 492.007 756.579, 486.221 756.330, 485.422 755.928, 484.154 755.850, 483.908 755.734, 483.541 755.586, 483.074 755.577, 483.044 755.127, 481.626 754.941, 481.240 754.904, 481.163 754.701, 480.742 754.698, 480.736 754.461, 480.246 753.242, 477.718 751.281, 471.031 751.038, 470.129 751.026, 470.082 751.014, 470.039 750.807, 469.267 750.685, 468.815 750.643, 468.657 750.639, 468.643 750.628, 468.600 750.614, 468.549 750.535, 468.256 750.468, 468.005 750.012, 466.307 749.853, 465.716 749.537, 465.224 748.731, 463.972 748.430, 463.503 747.649, 462.289 746.397, 460.342 745.952, 458.622 745.703, 457.661 745.686, 457.594 745.595, 457.245 744.291, 451.395 742.755, 449.099 742.739, 449.076 740.408, 445.593 737.656, 441.498 736.530, 439.808 734.485, 436.736 732.800, 434.206 732.650, 433.981 732.546, 433.824 732.374, 433.566 731.992, 433.006 728.846, 428.385 726.890, 426.125 726.725, 425.935 726.688, 425.892 726.114, 425.229 " fill="none" stroke="rgb(0, 0, 0)" stroke-linecap="butt" stroke-linejoin="round" stroke-opacity="1.0" stroke-width="3.0" />
        </g>
    </g>
</svg>
