<?xml version='1.0' encoding='ascii'?>
<svg xmlns="http://www.w3.org/2000/svg" height="1280" version="1.1" width="1280">
    <g id="RenderLayer_LineSet" inkscape:groupmode="lineset" inkscape:label="RenderLayer_LineSet" xmlns:inkscape="http://www.inkscape.org/namespaces/inkscape">
        <g id="strokes" inkscape:groupmode="layer" inkscape:label="strokes" xmlns:inkscape="http://www.inkscape.org/namespaces/inkscape">
            <path d=" M 636.133, 804.464 635.893, 799.799 635.870, 799.351 635.861, 799.190 635.286, 797.257 635.000, 796.292 632.600, 794.340 631.619, 794.519 631.158, 794.602 631.093, 794.614 628.075, 795.164 627.898, 795.229 624.218, 796.584 " fill="none" stroke="rgb(0, 0, 0)" stroke-linecap="butt" stroke-linejoin="round" stroke-opacity="1.0" stroke-width="3.0" />
            <path d=" M 790.028, 840.331 793.512, 843.129 801.181, 848.681 802.198, 849.085 804.006, 849.026 806.530, 849.164 807.273, 849.014 " fill="none" stroke="rgb(0, 0, 0)" stroke-linecap="butt" stroke-linejoin="round" stroke-opacity="1.0" stroke-width="3.0" />
            <path d=" M 692.898, 563.871 693.324, 564.104 694.561, 564.782 694.566, 564.785 694.873, 564.953 695.624, 565.364 696.097, 565.951 696.889, 566.934 697.371, 567.532 698.985, 570.488 699.943, 571.426 700.998, 572.459 706.782, 578.120 " fill="none" stroke="rgb(0, 0, 0)" stroke-linecap="butt" stroke-linejoin="round" stroke-opacity="1.0" stroke-width="3.0" />
            <path d=" M 661.159, 657.000 659.334, 647.167 658.840, 644.509 657.574, 640.751 656.991, 637.292 " fill="none" stroke="rgb(0, 0, 0)" stroke-linecap="butt" stroke-linejoin="round" stroke-opacity="1.0" stroke-width="3.0" />
            <path d=" M 871.526, 808.734 873.020, 810.707 877.847, 814.575 879.888, 815.494 879.912, 815.505 880.382, 815.717 883.029, 816.910 886.334, 819.042 888.117, 820.192 " fill="none" stroke="rgb(0, 0, 0)" stroke-linecap="butt" stroke-linejoin="round" stroke-opacity="1.0" stroke-width="3.0" />
            <path d=" M 943.182, 664.956 945.888, 663.154 945.937, 663.122 947.383, 662.159 951.882, 658.544 951.918, 658.514 953.290, 656.024 953.320, 655.968 954.572, 653.694 956.270, 651.658 956.287, 651.637 956.570, 651.298 957.010, 650.770 957.200, 650.541 " fill="none" stroke="rgb(0, 0, 0)" stroke-linecap="butt" stroke-linejoin="round" stroke-opacity="1.0" stroke-width="3.0" />
            <path d=" M 604.633, 676.725 607.623, 671.027 608.030, 670.252 608.457, 669.280 608.695, 668.737 611.237, 662.942 613.115, 658.046 " fill="none" stroke="rgb(0, 0, 0)" stroke-linecap="butt" stroke-linejoin="round" stroke-opacity="1.0" stroke-width="3.0" />
            <path d=" M 695.522, 623.607 694.715, 624.602 694.640, 624.694 694.313, 625.098 694.256, 625.167 693.832, 625.690 693.809, 625.719 693.614, 625.959 693.592, 625.986 691.175, 628.966 690.801, 631.391 690.771, 631.586 690.440, 633.736 690.436, 633.761 690.437, 633.776 690.946, 637.887 691.434, 642.567 " fill="none" stroke="rgb(0, 0, 0)" stroke-linecap="butt" stroke-linejoin="round" stroke-opacity="1.0" stroke-width="3.0" />
            <path d=" M 690.155, 618.163 692.019, 619.767 693.214, 621.427 695.298, 623.395 695.522, 623.607 695.525, 623.609 696.032, 623.834 696.094, 623.861 696.169, 623.894 696.267, 623.938 696.747, 624.150 696.936, 624.233 696.949, 624.239 697.939, 624.677 699.046, 625.167 699.791, 625.496 703.496, 624.896 707.202, 622.178 " fill="none" stroke="rgb(0, 0, 0)" stroke-linecap="butt" stroke-linejoin="round" stroke-opacity="1.0" stroke-width="3.0" />
            <path d=" M 732.046, 531.928 733.491, 531.336 735.530, 530.502 736.576, 529.994 743.019, 526.865 743.208, 526.774 743.274, 526.742 745.328, 525.433 746.474, 524.703 748.811, 523.215 750.627, 523.541 " fill="none" stroke="rgb(0, 0, 0)" stroke-linecap="butt" stroke-linejoin="round" stroke-opacity="1.0" stroke-width="3.0" />
            <path d=" M 708.333, 517.009 706.434, 517.312 702.738, 519.198 701.253, 521.160 700.059, 522.107 699.987, 522.164 699.389, 522.638 698.664, 523.214 695.961, 526.317 694.301, 530.363 694.310, 530.723 694.311, 530.789 694.312, 530.835 " fill="none" stroke="rgb(0, 0, 0)" stroke-linecap="butt" stroke-linejoin="round" stroke-opacity="1.0" stroke-width="3.0" />
            <path d=" M 793.397, 640.651 793.214, 640.716 790.394, 643.148 790.277, 643.249 787.633, 645.530 787.165, 645.934 784.022, 648.645 782.106, 650.298 782.106, 650.298 781.920, 650.458 781.368, 650.935 780.653, 651.585 780.629, 651.607 779.899, 652.271 778.525, 653.521 777.563, 654.396 " fill="none" stroke="rgb(0, 0, 0)" stroke-linecap="butt" stroke-linejoin="round" stroke-opacity="1.0" stroke-width="3.0" />
            <path d=" M 681.389, 553.032 680.397, 555.337 679.570, 558.041 681.944, 559.992 682.142, 560.161 685.311, 562.879 685.592, 563.120 685.786, 563.145 690.772, 563.780 691.242, 563.839 692.196, 563.961 693.324, 564.104 " fill="none" stroke="rgb(0, 0, 0)" stroke-linecap="butt" stroke-linejoin="round" stroke-opacity="1.0" stroke-width="3.0" />
            <path d=" M 364.104, 743.402 366.276, 744.430 366.671, 744.617 366.624, 744.666 366.509, 744.784 363.945, 747.419 362.921, 749.437 362.785, 750.676 362.746, 751.035 362.716, 751.307 362.708, 751.382 362.686, 751.615 362.654, 751.966 362.621, 752.322 362.621, 752.326 362.578, 752.797 362.535, 753.269 362.485, 753.810 362.688, 754.824 362.781, 755.289 363.026, 757.621 364.275, 760.824 364.513, 761.434 " fill="none" stroke="rgb(0, 0, 0)" stroke-linecap="butt" stroke-linejoin="round" stroke-opacity="1.0" stroke-width="3.0" />
            <path d=" M 764.883, 727.875 763.508, 728.230 763.407, 728.256 762.300, 728.542 760.973, 729.771 760.016, 730.785 758.892, 731.874 759.441, 732.585 761.114, 733.683 766.831, 731.632 767.087, 731.563 767.092, 731.562 771.746, 730.317 " fill="none" stroke="rgb(0, 0, 0)" stroke-linecap="butt" stroke-linejoin="round" stroke-opacity="1.0" stroke-width="3.0" />
            <path d=" M 926.579, 791.289 931.274, 786.926 932.563, 785.813 932.703, 785.692 934.698, 783.968 934.798, 783.881 934.853, 783.804 935.842, 782.416 935.996, 782.198 937.042, 780.730 940.070, 777.861 941.275, 775.721 " fill="none" stroke="rgb(0, 0, 0)" stroke-linecap="butt" stroke-linejoin="round" stroke-opacity="1.0" stroke-width="3.0" />
            <path d=" M 371.958, 781.913 371.971, 782.541 372.073, 784.355 375.497, 791.826 377.773, 796.683 379.064, 798.836 380.684, 801.536 " fill="none" stroke="rgb(0, 0, 0)" stroke-linecap="butt" stroke-linejoin="round" stroke-opacity="1.0" stroke-width="3.0" />
            <path d=" M 714.780, 616.758 714.799, 616.768 715.174, 616.957 715.226, 616.984 715.234, 616.987 716.173, 617.461 717.000, 617.879 719.953, 619.370 722.939, 621.160 723.997, 621.795 725.279, 622.564 726.142, 623.099 726.236, 623.157 727.097, 623.691 727.346, 623.845 727.943, 623.953 728.184, 623.997 728.512, 624.057 728.637, 624.099 729.989, 624.559 731.349, 625.022 731.645, 625.123 732.046, 625.259 734.347, 626.772 " fill="none" stroke="rgb(0, 0, 0)" stroke-linecap="butt" stroke-linejoin="round" stroke-opacity="1.0" stroke-width="3.0" />
            <path d=" M 689.316, 808.506 680.697, 807.342 677.823, 807.796 673.337, 807.979 670.717, 809.016 667.505, 809.719 " fill="none" stroke="rgb(0, 0, 0)" stroke-linecap="butt" stroke-linejoin="round" stroke-opacity="1.0" stroke-width="3.0" />
            <path d=" M 897.502, 831.397 895.804, 835.763 892.084, 841.364 891.215, 845.306 889.550, 847.772 889.474, 849.499 889.383, 851.589 " fill="none" stroke="rgb(0, 0, 0)" stroke-linecap="butt" stroke-linejoin="round" stroke-opacity="1.0" stroke-width="3.0" />
            <path d=" M 820.161, 761.417 821.279, 763.046 822.958, 765.493 824.043, 770.604 824.641, 772.133 826.737, 776.057 831.246, 780.094 " fill="none" stroke="rgb(0, 0, 0)" stroke-linecap="butt" stroke-linejoin="round" stroke-opacity="1.0" stroke-width="3.0" />
            <path d=" M 504.815, 767.569 507.623, 766.000 510.789, 764.214 516.337, 760.839 522.012, 753.856 " fill="none" stroke="rgb(0, 0, 0)" stroke-linecap="butt" stroke-linejoin="round" stroke-opacity="1.0" stroke-width="3.0" />
            <path d=" M 632.885, 814.294 633.422, 813.908 633.843, 813.606 634.383, 813.218 634.448, 813.171 636.473, 811.718 637.046, 810.696 637.058, 810.674 637.141, 810.526 637.193, 810.434 637.211, 810.402 639.844, 805.704 640.199, 802.942 640.429, 800.806 638.408, 799.287 637.623, 798.722 635.286, 797.257 " fill="none" stroke="rgb(0, 0, 0)" stroke-linecap="butt" stroke-linejoin="round" stroke-opacity="1.0" stroke-width="3.0" />
            <path d=" M 737.803, 605.189 738.993, 605.841 739.046, 605.870 739.123, 605.912 739.304, 606.011 739.305, 606.012 739.509, 606.123 743.259, 608.177 746.465, 613.006 747.256, 616.036 746.936, 618.199 746.699, 618.807 746.060, 620.447 744.949, 623.300 " fill="none" stroke="rgb(0, 0, 0)" stroke-linecap="butt" stroke-linejoin="round" stroke-opacity="1.0" stroke-width="3.0" />
            <path d=" M 744.340, 624.479 742.459, 626.310 742.205, 626.590 741.600, 627.258 741.415, 627.462 738.836, 630.308 735.662, 632.853 734.719, 633.817 733.825, 635.039 733.489, 637.818 734.315, 640.931 735.563, 641.926 736.192, 642.427 " fill="none" stroke="rgb(0, 0, 0)" stroke-linecap="butt" stroke-linejoin="round" stroke-opacity="1.0" stroke-width="3.0" />
            <path d=" M 509.652, 815.732 509.869, 815.768 510.112, 815.808 516.638, 816.893 517.162, 816.980 518.716, 817.374 521.952, 818.193 522.621, 818.362 523.916, 818.246 527.081, 817.961 531.628, 816.889 532.751, 816.624 " fill="none" stroke="rgb(0, 0, 0)" stroke-linecap="butt" stroke-linejoin="round" stroke-opacity="1.0" stroke-width="3.0" />
            <path d=" M 945.580, 768.083 948.957, 762.456 949.398, 761.722 949.872, 760.933 951.883, 757.252 953.724, 753.946 955.733, 750.336 956.522, 747.292 " fill="none" stroke="rgb(0, 0, 0)" stroke-linecap="butt" stroke-linejoin="round" stroke-opacity="1.0" stroke-width="3.0" />
            <path d=" M 460.101, 780.981 461.330, 780.691 461.800, 780.581 467.946, 779.131 468.489, 778.728 468.590, 778.654 469.127, 778.256 473.360, 775.119 476.280, 771.327 475.214, 769.624 473.256, 769.011 " fill="none" stroke="rgb(0, 0, 0)" stroke-linecap="butt" stroke-linejoin="round" stroke-opacity="1.0" stroke-width="3.0" />
            <path d=" M 687.398, 649.505 687.053, 650.864 685.828, 655.701 682.432, 662.830 679.920, 668.542 678.831, 671.756 " fill="none" stroke="rgb(0, 0, 0)" stroke-linecap="butt" stroke-linejoin="round" stroke-opacity="1.0" stroke-width="3.0" />
            <path d=" M 831.847, 780.634 831.797, 781.249 832.337, 783.859 832.936, 784.860 833.872, 786.426 838.425, 788.514 841.399, 788.021 846.786, 788.315 851.155, 788.554 " fill="none" stroke="rgb(0, 0, 0)" stroke-linecap="butt" stroke-linejoin="round" stroke-opacity="1.0" stroke-width="3.0" />
            <path d=" M 388.163, 709.181 388.097, 708.509 387.727, 704.738 387.189, 703.049 386.653, 701.366 385.514, 695.666 385.488, 695.532 385.288, 694.534 382.673, 686.964 382.319, 686.205 382.251, 686.058 382.206, 685.963 " fill="none" stroke="rgb(0, 0, 0)" stroke-linecap="butt" stroke-linejoin="round" stroke-opacity="1.0" stroke-width="3.0" />
            <path d=" M 695.298, 623.395 693.638, 624.360 693.062, 624.993 692.970, 625.094 692.878, 625.196 691.590, 626.610 690.397, 630.038 690.047, 631.044 689.310, 636.756 689.056, 638.724 688.813, 640.611 688.774, 641.842 688.659, 645.487 " fill="none" stroke="rgb(0, 0, 0)" stroke-linecap="butt" stroke-linejoin="round" stroke-opacity="1.0" stroke-width="3.0" />
            <path d=" M 906.849, 489.275 905.903, 484.747 904.982, 481.541 907.628, 489.820 908.252, 495.592 908.444, 497.368 " fill="none" stroke="rgb(0, 0, 0)" stroke-linecap="butt" stroke-linejoin="round" stroke-opacity="1.0" stroke-width="3.0" />
            <path d=" M 682.142, 560.161 681.284, 566.586 683.121, 567.568 683.777, 567.919 684.483, 568.296 688.714, 570.231 689.739, 570.699 691.644, 572.126 692.715, 572.865 694.452, 574.062 694.891, 574.365 694.974, 574.422 695.000, 574.440 695.880, 575.047 696.249, 575.302 696.343, 575.366 696.611, 575.551 " fill="none" stroke="rgb(0, 0, 0)" stroke-linecap="butt" stroke-linejoin="round" stroke-opacity="1.0" stroke-width="3.0" />
            <path d=" M 560.680, 803.632 559.074, 799.507 559.503, 795.724 559.504, 795.716 560.534, 791.578 558.597, 788.312 555.940, 787.846 553.848, 788.532 550.189, 790.354 " fill="none" stroke="rgb(0, 0, 0)" stroke-linecap="butt" stroke-linejoin="round" stroke-opacity="1.0" stroke-width="3.0" />
            <path d=" M 855.911, 827.589 850.988, 821.427 849.538, 818.713 848.550, 816.864 846.536, 813.096 844.330, 805.365 " fill="none" stroke="rgb(0, 0, 0)" stroke-linecap="butt" stroke-linejoin="round" stroke-opacity="1.0" stroke-width="3.0" />
            <path d=" M 643.168, 844.435 646.622, 843.709 646.637, 843.705 649.317, 843.141 650.417, 842.910 650.452, 842.905 654.133, 842.383 661.562, 841.330 661.901, 841.282 668.142, 839.215 " fill="none" stroke="rgb(0, 0, 0)" stroke-linecap="butt" stroke-linejoin="round" stroke-opacity="1.0" stroke-width="3.0" />
            <path d=" M 778.437, 684.952 779.505, 685.219 781.701, 685.768 783.183, 686.139 784.807, 686.072 785.000, 686.064 785.075, 686.061 788.768, 685.908 789.283, 685.887 791.302, 685.804 791.553, 685.793 792.020, 685.522 793.891, 684.437 795.760, 683.352 795.811, 683.322 796.756, 682.774 797.274, 682.267 797.480, 682.065 797.689, 681.861 797.779, 681.772 797.844, 681.708 797.846, 681.706 798.121, 681.437 798.244, 681.316 798.460, 681.105 799.466, 680.119 801.253, 678.367 " fill="none" stroke="rgb(0, 0, 0)" stroke-linecap="butt" stroke-linejoin="round" stroke-opacity="1.0" stroke-width="3.0" />
            <path d=" M 574.363, 713.819 577.248, 712.978 581.544, 712.953 583.041, 711.852 584.292, 710.743 587.295, 705.775 591.474, 701.857 593.685, 699.426 " fill="none" stroke="rgb(0, 0, 0)" stroke-linecap="butt" stroke-linejoin="round" stroke-opacity="1.0" stroke-width="3.0" />
            <path d=" M 554.474, 805.963 553.053, 803.354 552.176, 801.743 552.046, 800.379 551.919, 799.048 551.967, 798.026 551.980, 797.749 552.257, 791.813 551.082, 790.984 550.189, 790.354 549.824, 790.097 549.590, 790.030 546.603, 790.072 544.672, 791.384 542.226, 793.142 " fill="none" stroke="rgb(0, 0, 0)" stroke-linecap="butt" stroke-linejoin="round" stroke-opacity="1.0" stroke-width="3.0" />
            <path d=" M 736.479, 707.537 737.062, 707.518 738.916, 707.455 740.643, 707.397 741.861, 707.355 742.367, 707.338 742.596, 707.445 742.599, 707.446 744.212, 708.197 744.394, 708.281 744.558, 708.358 745.905, 708.985 745.953, 709.007 747.084, 709.534 749.152, 711.243 750.008, 712.281 750.367, 712.717 752.868, 718.949 753.152, 723.167 " fill="none" stroke="rgb(0, 0, 0)" stroke-linecap="butt" stroke-linejoin="round" stroke-opacity="1.0" stroke-width="3.0" />
            <path d=" M 843.616, 692.394 846.705, 687.759 852.141, 684.394 852.477, 684.180 856.534, 681.594 856.974, 681.314 857.103, 681.232 859.261, 679.856 860.428, 679.752 860.852, 679.714 865.468, 679.302 " fill="none" stroke="rgb(0, 0, 0)" stroke-linecap="butt" stroke-linejoin="round" stroke-opacity="1.0" stroke-width="3.0" />
            <path d=" M 664.455, 671.926 663.722, 668.344 662.363, 661.700 661.159, 657.000 658.677, 647.312 658.320, 645.918 " fill="none" stroke="rgb(0, 0, 0)" stroke-linecap="butt" stroke-linejoin="round" stroke-opacity="1.0" stroke-width="3.0" />
            <path d=" M 936.621, 826.491 938.428, 823.041 942.535, 817.445 943.400, 815.207 944.621, 812.050 945.447, 809.913 947.306, 804.229 947.601, 802.379 947.633, 802.309 " fill="none" stroke="rgb(0, 0, 0)" stroke-linecap="butt" stroke-linejoin="round" stroke-opacity="1.0" stroke-width="3.0" />
            <path d=" M 589.690, 700.381 591.680, 698.879 594.666, 696.626 595.079, 696.314 600.251, 692.412 602.387, 690.800 603.438, 689.736 603.551, 689.622 604.157, 689.009 604.432, 688.731 605.486, 687.663 605.511, 687.638 608.622, 684.489 609.909, 682.491 " fill="none" stroke="rgb(0, 0, 0)" stroke-linecap="butt" stroke-linejoin="round" stroke-opacity="1.0" stroke-width="3.0" />
            <path d=" M 380.411, 684.995 379.776, 685.142 378.883, 685.349 377.293, 685.717 377.164, 685.747 376.591, 685.879 374.609, 685.905 374.376, 685.908 374.312, 685.909 372.920, 685.927 370.235, 688.957 368.324, 694.771 368.015, 695.711 368.174, 699.405 368.663, 700.802 369.161, 702.224 369.182, 702.283 369.187, 702.296 369.751, 703.906 " fill="none" stroke="rgb(0, 0, 0)" stroke-linecap="butt" stroke-linejoin="round" stroke-opacity="1.0" stroke-width="3.0" />
            <path d=" M 408.975, 767.050 414.703, 765.164 416.733, 764.496 419.566, 760.633 420.200, 759.769 420.479, 759.389 420.072, 757.642 419.663, 755.888 419.574, 755.790 415.700, 751.509 413.776, 750.703 412.682, 750.246 " fill="none" stroke="rgb(0, 0, 0)" stroke-linecap="butt" stroke-linejoin="round" stroke-opacity="1.0" stroke-width="3.0" />
            <path d=" M 402.778, 821.087 406.939, 824.787 414.962, 830.374 423.208, 836.032 425.056, 837.300 " fill="none" stroke="rgb(0, 0, 0)" stroke-linecap="butt" stroke-linejoin="round" stroke-opacity="1.0" stroke-width="3.0" />
            <path d=" M 665.190, 810.028 658.361, 810.061 651.253, 810.418 645.104, 810.472 637.442, 810.435 " fill="none" stroke="rgb(0, 0, 0)" stroke-linecap="butt" stroke-linejoin="round" stroke-opacity="1.0" stroke-width="3.0" />
            <path d=" M 724.371, 600.883 724.389, 602.608 724.390, 602.668 724.468, 603.371 724.508, 603.732 724.627, 604.798 724.653, 605.038 724.916, 605.902 724.919, 605.914 725.285, 607.119 725.316, 607.222 725.318, 607.228 725.677, 608.411 725.693, 608.464 725.700, 608.487 725.723, 608.562 726.016, 609.529 726.097, 609.794 726.324, 610.543 726.352, 610.636 726.482, 611.062 727.460, 612.348 728.079, 613.162 728.732, 613.659 730.159, 614.746 732.235, 613.924 733.828, 612.578 735.506, 611.525 735.507, 611.525 738.053, 609.928 738.366, 608.709 738.472, 607.076 " fill="none" stroke="rgb(0, 0, 0)" stroke-linecap="butt" stroke-linejoin="round" stroke-opacity="1.0" stroke-width="3.0" />
            <path d=" M 816.520, 548.749 813.931, 550.505 808.302, 554.322 807.898, 554.851 807.244, 555.709 807.234, 555.721 807.124, 555.865 807.061, 555.948 807.033, 555.985 806.989, 556.042 806.858, 556.214 806.835, 556.245 803.116, 561.119 802.150, 562.914 803.691, 566.829 805.140, 569.432 805.257, 569.643 " fill="none" stroke="rgb(0, 0, 0)" stroke-linecap="butt" stroke-linejoin="round" stroke-opacity="1.0" stroke-width="3.0" />
            <path d=" M 858.528, 468.543 868.330, 470.523 872.781, 471.421 876.884, 471.965 880.817, 472.487 882.108, 472.658 883.111, 472.791 886.112, 473.189 " fill="none" stroke="rgb(0, 0, 0)" stroke-linecap="butt" stroke-linejoin="round" stroke-opacity="1.0" stroke-width="3.0" />
            <path d=" M 524.290, 689.788 523.878, 689.048 522.880, 688.158 522.597, 687.905 521.181, 686.642 520.278, 685.758 519.837, 685.327 518.655, 684.171 517.324, 682.509 515.657, 680.429 515.082, 680.092 512.697, 678.694 507.985, 678.180 504.728, 677.967 501.291, 679.793 " fill="none" stroke="rgb(0, 0, 0)" stroke-linecap="butt" stroke-linejoin="round" stroke-opacity="1.0" stroke-width="3.0" />
            <path d=" M 521.218, 819.036 521.405, 819.057 521.630, 819.082 521.878, 819.109 522.524, 819.179 524.654, 819.412 524.720, 819.419 526.586, 819.623 530.176, 818.938 532.434, 817.684 536.117, 815.483 537.095, 814.142 537.732, 812.012 537.928, 810.961 537.936, 810.917 538.021, 810.459 538.654, 809.106 538.811, 808.769 538.854, 808.680 540.898, 804.308 540.974, 804.175 " fill="none" stroke="rgb(0, 0, 0)" stroke-linecap="butt" stroke-linejoin="round" stroke-opacity="1.0" stroke-width="3.0" />
            <path d=" M 472.642, 796.400 479.273, 797.922 480.334, 798.166 482.314, 798.620 488.751, 797.141 490.588, 795.855 490.773, 795.726 491.041, 795.538 491.221, 795.412 491.277, 795.373 491.857, 794.967 496.554, 791.680 497.861, 789.809 497.758, 789.557 497.627, 789.236 " fill="none" stroke="rgb(0, 0, 0)" stroke-linecap="butt" stroke-linejoin="round" stroke-opacity="1.0" stroke-width="3.0" />
            <path d=" M 685.606, 572.381 686.768, 572.967 690.755, 574.976 691.163, 575.182 693.973, 575.771 694.133, 575.805 695.210, 576.031 695.475, 576.315 695.914, 576.784 697.878, 578.883 700.080, 582.275 702.454, 584.755 704.732, 587.135 705.453, 588.078 708.272, 589.935 " fill="none" stroke="rgb(0, 0, 0)" stroke-linecap="butt" stroke-linejoin="round" stroke-opacity="1.0" stroke-width="3.0" />
            <path d=" M 601.588, 803.907 601.958, 800.306 602.207, 797.884 601.821, 796.219 601.098, 793.099 598.631, 791.435 593.896, 791.304 590.867, 792.777 585.687, 798.274 " fill="none" stroke="rgb(0, 0, 0)" stroke-linecap="butt" stroke-linejoin="round" stroke-opacity="1.0" stroke-width="3.0" />
            <path d=" M 470.873, 684.630 477.348, 678.765 478.188, 677.799 478.331, 676.984 478.361, 676.815 478.380, 676.705 478.397, 676.612 478.577, 675.585 478.845, 674.057 478.142, 672.493 475.241, 670.814 473.743, 670.049 468.428, 671.317 464.947, 672.164 " fill="none" stroke="rgb(0, 0, 0)" stroke-linecap="butt" stroke-linejoin="round" stroke-opacity="1.0" stroke-width="3.0" />
            <path d=" M 532.504, 752.317 533.011, 752.137 537.909, 749.126 541.061, 746.250 546.648, 741.699 548.995, 740.352 552.062, 738.101 555.698, 733.955 " fill="none" stroke="rgb(0, 0, 0)" stroke-linecap="butt" stroke-linejoin="round" stroke-opacity="1.0" stroke-width="3.0" />
            <path d=" M 500.275, 702.831 501.609, 702.180 503.346, 701.333 503.930, 701.048 505.850, 700.112 509.239, 698.459 509.936, 697.314 510.701, 696.057 510.488, 695.501 510.249, 694.881 509.762, 693.766 509.501, 693.170 507.694, 691.928 506.324, 689.911 506.323, 689.910 506.032, 689.482 505.634, 688.896 503.608, 685.381 503.035, 684.413 502.528, 683.558 502.505, 683.519 501.346, 681.561 " fill="none" stroke="rgb(0, 0, 0)" stroke-linecap="butt" stroke-linejoin="round" stroke-opacity="1.0" stroke-width="3.0" />
            <path d=" M 771.268, 826.342 773.077, 826.061 776.374, 825.548 776.622, 825.510 776.809, 825.481 777.065, 825.441 779.799, 825.016 782.705, 824.563 783.349, 824.463 792.616, 823.762 796.007, 823.506 799.842, 823.216 801.508, 823.090 " fill="none" stroke="rgb(0, 0, 0)" stroke-linecap="butt" stroke-linejoin="round" stroke-opacity="1.0" stroke-width="3.0" />
            <path d=" M 540.650, 804.548 540.974, 804.175 543.424, 801.347 545.026, 799.498 543.756, 794.311 542.705, 793.496 542.595, 793.411 542.250, 793.143 542.226, 793.142 537.000, 792.851 534.278, 793.466 525.645, 793.456 " fill="none" stroke="rgb(0, 0, 0)" stroke-linecap="butt" stroke-linejoin="round" stroke-opacity="1.0" stroke-width="3.0" />
            <path d=" M 913.829, 529.167 910.220, 529.745 909.827, 529.808 909.601, 529.845 908.267, 530.058 906.071, 530.328 905.872, 530.352 905.039, 530.454 904.498, 530.521 901.037, 531.113 897.791, 531.669 896.834, 531.729 896.234, 531.767 895.869, 531.790 895.828, 531.792 890.210, 532.205 888.981, 532.295 883.036, 532.332 " fill="none" stroke="rgb(0, 0, 0)" stroke-linecap="butt" stroke-linejoin="round" stroke-opacity="1.0" stroke-width="3.0" />
            <path d=" M 817.565, 823.838 818.966, 824.034 818.967, 824.034 820.565, 824.248 820.620, 824.255 820.664, 824.261 822.405, 824.493 824.950, 824.833 825.357, 824.887 825.716, 824.935 829.927, 825.427 831.982, 823.709 832.985, 820.378 833.004, 820.314 833.016, 820.071 833.020, 819.995 833.028, 819.838 833.104, 818.319 833.135, 817.707 831.841, 816.187 829.673, 813.638 827.856, 811.807 825.905, 811.716 " fill="none" stroke="rgb(0, 0, 0)" stroke-linecap="butt" stroke-linejoin="round" stroke-opacity="1.0" stroke-width="3.0" />
            <path d=" M 919.485, 545.287 922.296, 539.681 922.359, 539.543 923.165, 537.782 923.323, 537.436 923.532, 536.979 923.581, 536.874 923.592, 536.848 923.742, 536.521 923.817, 536.357 923.868, 536.246 923.892, 536.193 924.028, 535.897 925.073, 533.614 924.995, 532.143 924.426, 529.169 925.687, 524.977 925.707, 524.909 925.982, 523.997 925.777, 523.243 925.049, 520.562 924.209, 519.730 923.619, 519.145 923.513, 519.040 923.385, 518.913 923.354, 518.882 922.376, 517.914 922.331, 517.870 922.285, 517.823 922.260, 517.799 921.534, 517.079 " fill="none" stroke="rgb(0, 0, 0)" stroke-linecap="butt" stroke-linejoin="round" stroke-opacity="1.0" stroke-width="3.0" />
            <path d=" M 774.323, 722.694 774.379, 722.830 774.569, 723.287 774.672, 723.535 775.028, 724.394 775.216, 724.848 775.300, 725.051 775.488, 725.177 776.031, 725.541 777.243, 726.353 777.943, 726.822 778.103, 726.929 779.270, 727.711 779.602, 727.934 780.419, 728.480 780.607, 728.607 780.809, 728.742 780.838, 728.762 780.881, 728.791 780.883, 728.792 782.002, 729.541 783.679, 730.665 785.175, 731.667 786.419, 731.500 788.980, 731.155 789.585, 731.073 790.074, 730.839 793.049, 729.410 793.690, 729.102 794.696, 728.620 795.462, 728.252 795.747, 728.115 796.134, 727.929 796.857, 727.582 797.165, 727.434 797.584, 727.233 797.625, 727.214 797.649, 727.202 798.016, 727.026 798.024, 727.022 798.060, 727.005 798.147, 726.963 798.195, 726.940 798.535, 726.777 798.638, 726.769 798.859, 726.754 799.053, 726.740 801.311, 726.581 801.490, 726.569 " fill="none" stroke="rgb(0, 0, 0)" stroke-linecap="butt" stroke-linejoin="round" stroke-opacity="1.0" stroke-width="3.0" />
            <path d=" M 955.548, 738.115 959.065, 731.944 962.685, 725.631 962.888, 725.277 962.992, 725.076 963.585, 723.937 963.813, 723.499 963.895, 723.341 964.636, 721.916 964.718, 721.757 965.298, 720.104 966.901, 715.529 968.372, 709.044 " fill="none" stroke="rgb(0, 0, 0)" stroke-linecap="butt" stroke-linejoin="round" stroke-opacity="1.0" stroke-width="3.0" />
            <path d=" M 495.260, 708.248 495.325, 708.218 495.757, 708.020 497.038, 707.431 497.068, 707.417 498.522, 706.749 498.939, 706.620 502.551, 705.506 506.290, 703.770 506.303, 703.764 508.775, 702.616 511.351, 701.420 512.744, 698.397 512.857, 698.151 512.867, 698.129 512.916, 698.023 513.147, 697.200 513.269, 696.764 513.266, 696.749 513.259, 696.710 513.250, 696.659 513.041, 695.507 511.578, 692.646 511.003, 692.171 510.599, 691.837 509.361, 690.814 507.382, 689.991 " fill="none" stroke="rgb(0, 0, 0)" stroke-linecap="butt" stroke-linejoin="round" stroke-opacity="1.0" stroke-width="3.0" />
            <path d=" M 685.086, 589.104 685.143, 589.559 685.578, 593.065 684.769, 602.675 685.419, 606.535 686.175, 608.633 687.972, 615.986 689.124, 617.410 690.155, 618.163 691.712, 619.301 " fill="none" stroke="rgb(0, 0, 0)" stroke-linecap="butt" stroke-linejoin="round" stroke-opacity="1.0" stroke-width="3.0" />
            <path d=" M 883.819, 532.618 883.036, 532.332 882.828, 532.257 879.700, 531.116 876.729, 530.032 876.432, 529.924 873.661, 527.586 873.483, 527.436 871.669, 525.905 871.479, 525.745 871.427, 525.700 871.386, 525.666 870.527, 524.930 870.349, 524.777 869.878, 524.374 867.890, 522.673 865.568, 520.684 859.910, 514.920 858.281, 513.336 " fill="none" stroke="rgb(0, 0, 0)" stroke-linecap="butt" stroke-linejoin="round" stroke-opacity="1.0" stroke-width="3.0" />
            <path d=" M 951.808, 786.670 952.029, 783.957 950.282, 781.935 947.873, 780.041 945.082, 779.728 944.281, 779.753 942.011, 780.999 938.605, 784.363 933.999, 787.845 931.127, 790.096 927.110, 791.787 927.065, 791.799 " fill="none" stroke="rgb(0, 0, 0)" stroke-linecap="butt" stroke-linejoin="round" stroke-opacity="1.0" stroke-width="3.0" />
            <path d=" M 487.685, 860.055 491.386, 861.342 495.532, 862.932 500.910, 864.360 505.446, 865.686 512.911, 867.241 516.513, 867.604 519.914, 867.947 " fill="none" stroke="rgb(0, 0, 0)" stroke-linecap="butt" stroke-linejoin="round" stroke-opacity="1.0" stroke-width="3.0" />
            <path d=" M 886.803, 853.930 883.351, 855.331 882.606, 855.684 879.522, 858.753 876.526, 860.601 874.988, 861.551 875.286, 866.113 873.608, 869.177 874.167, 871.244 875.595, 872.832 879.173, 874.558 881.955, 875.908 " fill="none" stroke="rgb(0, 0, 0)" stroke-linecap="butt" stroke-linejoin="round" stroke-opacity="1.0" stroke-width="3.0" />
            <path d=" M 379.064, 798.836 379.071, 798.864 380.684, 801.536 383.376, 805.419 385.232, 808.043 393.090, 814.229 396.253, 816.718 402.778, 821.087 403.592, 821.632 " fill="none" stroke="rgb(0, 0, 0)" stroke-linecap="butt" stroke-linejoin="round" stroke-opacity="1.0" stroke-width="3.0" />
            <path d=" M 451.474, 850.038 456.640, 852.215 466.460, 854.106 468.028, 854.407 470.192, 854.875 474.822, 856.412 478.450, 857.103 483.019, 857.974 483.056, 857.982 484.632, 858.282 " fill="none" stroke="rgb(0, 0, 0)" stroke-linecap="butt" stroke-linejoin="round" stroke-opacity="1.0" stroke-width="3.0" />
            <path d=" M 427.701, 838.573 435.947, 843.278 443.159, 846.997 451.345, 850.006 451.474, 850.038 459.341, 851.942 " fill="none" stroke="rgb(0, 0, 0)" stroke-linecap="butt" stroke-linejoin="round" stroke-opacity="1.0" stroke-width="3.0" />
            <path d=" M 686.690, 541.298 684.551, 542.431 682.473, 547.285 681.014, 551.610 681.389, 553.032 681.506, 553.476 682.712, 554.337 683.237, 554.712 684.983, 555.959 685.413, 556.092 690.902, 557.799 694.486, 558.914 695.881, 560.823 696.770, 562.040 696.995, 562.348 697.076, 562.688 697.510, 564.512 " fill="none" stroke="rgb(0, 0, 0)" stroke-linecap="butt" stroke-linejoin="round" stroke-opacity="1.0" stroke-width="3.0" />
            <path d=" M 490.674, 773.403 492.949, 775.467 498.432, 775.141 500.000, 774.289 502.846, 772.697 507.034, 771.148 507.630, 770.328 511.356, 765.547 513.668, 764.120 516.089, 762.625 516.758, 762.398 518.623, 761.764 520.082, 761.269 " fill="none" stroke="rgb(0, 0, 0)" stroke-linecap="butt" stroke-linejoin="round" stroke-opacity="1.0" stroke-width="3.0" />
            <path d=" M 360.783, 720.712 360.743, 720.831 359.330, 729.715 358.071, 738.276 359.270, 746.355 362.688, 754.824 " fill="none" stroke="rgb(0, 0, 0)" stroke-linecap="butt" stroke-linejoin="round" stroke-opacity="1.0" stroke-width="3.0" />
            <path d=" M 722.530, 709.068 721.850, 712.474 721.136, 717.224 720.413, 726.997 721.089, 734.385 721.999, 736.331 722.543, 737.341 723.111, 738.727 725.678, 740.512 727.198, 741.462 " fill="none" stroke="rgb(0, 0, 0)" stroke-linecap="butt" stroke-linejoin="round" stroke-opacity="1.0" stroke-width="3.0" />
            <path d=" M 879.230, 848.947 873.824, 844.199 871.288, 842.309 870.391, 841.640 870.389, 841.638 870.280, 841.557 864.032, 836.012 863.952, 835.941 863.490, 835.530 862.615, 834.600 862.193, 834.151 862.100, 834.053 861.593, 833.513 858.648, 830.383 858.589, 830.320 858.470, 830.194 858.395, 830.114 857.908, 829.619 857.832, 829.542 857.798, 829.507 855.911, 827.589 853.232, 824.865 " fill="none" stroke="rgb(0, 0, 0)" stroke-linecap="butt" stroke-linejoin="round" stroke-opacity="1.0" stroke-width="3.0" />
            <path d=" M 818.707, 774.365 817.940, 775.722 816.181, 778.838 816.159, 778.876 815.691, 779.705 815.287, 780.420 815.265, 780.460 814.966, 780.988 813.927, 783.211 813.520, 784.852 813.494, 788.760 813.429, 789.509 813.169, 792.526 812.794, 796.880 812.135, 804.911 811.838, 808.523 " fill="none" stroke="rgb(0, 0, 0)" stroke-linecap="butt" stroke-linejoin="round" stroke-opacity="1.0" stroke-width="3.0" />
            <path d=" M 582.966, 813.454 582.311, 810.099 582.107, 809.055 582.320, 806.274 582.330, 806.147 582.400, 805.230 582.403, 805.188 582.403, 805.186 582.404, 805.176 582.414, 805.046 582.431, 804.818 581.610, 802.592 580.902, 797.631 580.532, 796.862 580.356, 796.496 579.426, 794.563 577.998, 793.688 571.719, 796.016 564.827, 799.470 " fill="none" stroke="rgb(0, 0, 0)" stroke-linecap="butt" stroke-linejoin="round" stroke-opacity="1.0" stroke-width="3.0" />
            <path d=" M 934.853, 783.804 937.116, 781.416 940.122, 778.084 943.169, 773.190 947.125, 768.321 949.962, 762.084 953.724, 753.946 " fill="none" stroke="rgb(0, 0, 0)" stroke-linecap="butt" stroke-linejoin="round" stroke-opacity="1.0" stroke-width="3.0" />
            <path d=" M 542.940, 830.262 545.864, 829.561 548.448, 828.941 549.530, 829.044 553.148, 829.454 553.460, 829.445 554.956, 829.403 559.943, 829.263 561.627, 828.475 562.462, 828.085 563.145, 827.619 566.526, 825.315 568.921, 823.319 569.595, 821.493 569.762, 820.537 570.007, 818.631 569.984, 818.359 569.979, 818.307 569.747, 815.567 " fill="none" stroke="rgb(0, 0, 0)" stroke-linecap="butt" stroke-linejoin="round" stroke-opacity="1.0" stroke-width="3.0" />
            <path d=" M 771.826, 732.427 771.242, 733.494 771.019, 734.514 771.001, 734.596 769.318, 742.291 770.406, 743.217 770.433, 743.240 770.627, 743.371 773.327, 745.189 773.372, 745.219 775.108, 746.507 775.125, 746.520 775.220, 746.591 775.989, 747.014 776.294, 747.182 778.548, 748.423 778.561, 748.431 778.748, 748.534 778.828, 748.577 779.282, 748.511 779.907, 748.419 780.184, 748.378 782.234, 748.077 783.578, 747.880 784.482, 747.747 785.697, 747.569 787.718, 747.272 788.712, 747.296 790.655, 747.342 791.184, 747.354 791.336, 747.351 792.195, 747.334 792.880, 747.320 793.081, 747.316 793.248, 747.312 793.619, 747.305 793.677, 747.304 793.714, 747.303 793.964, 747.298 " fill="none" stroke="rgb(0, 0, 0)" stroke-linecap="butt" stroke-linejoin="round" stroke-opacity="1.0" stroke-width="3.0" />
            <path d=" M 700.080, 582.275 702.462, 584.816 704.603, 587.099 708.483, 594.020 709.989, 594.866 711.411, 594.852 716.033, 593.817 723.155, 589.957 723.367, 589.709 723.462, 589.598 723.480, 589.577 724.734, 588.113 724.771, 588.070 724.973, 587.833 726.087, 586.533 727.221, 585.210 727.347, 585.063 " fill="none" stroke="rgb(0, 0, 0)" stroke-linecap="butt" stroke-linejoin="round" stroke-opacity="1.0" stroke-width="3.0" />
            <path d=" M 668.338, 875.856 669.747, 876.681 671.739, 877.847 679.284, 880.653 681.024, 881.044 684.981, 880.907 686.719, 880.846 688.577, 880.946 690.293, 881.038 691.350, 880.976 695.260, 879.857 698.666, 877.867 700.056, 875.637 699.908, 875.276 699.506, 874.294 699.487, 873.313 " fill="none" stroke="rgb(0, 0, 0)" stroke-linecap="butt" stroke-linejoin="round" stroke-opacity="1.0" stroke-width="3.0" />
            <path d=" M 578.344, 693.861 578.164, 693.009 578.111, 692.755 578.105, 692.729 577.973, 692.101 577.961, 692.045 577.944, 691.965 577.542, 690.062 577.349, 689.146 577.014, 687.859 576.760, 686.884 576.305, 685.139 575.018, 684.452 573.029, 683.446 572.399, 683.128 571.594, 682.720 570.899, 682.628 570.879, 682.626 570.360, 682.557 565.426, 681.904 565.292, 681.886 564.118, 681.731 564.039, 681.721 563.843, 681.695 563.407, 681.723 563.232, 681.734 560.796, 681.893 557.371, 683.236 553.495, 685.430 553.061, 685.896 550.568, 688.575 " fill="none" stroke="rgb(0, 0, 0)" stroke-linecap="butt" stroke-linejoin="round" stroke-opacity="1.0" stroke-width="3.0" />
            <path d=" M 600.524, 694.278 600.920, 694.136 603.321, 693.823 604.927, 693.613 608.493, 693.614 611.008, 692.527 612.597, 691.352 616.188, 689.865 616.954, 689.326 620.470, 686.428 623.756, 682.474 626.509, 678.997 629.013, 674.458 628.948, 673.653 628.615, 673.577 " fill="none" stroke="rgb(0, 0, 0)" stroke-linecap="butt" stroke-linejoin="round" stroke-opacity="1.0" stroke-width="3.0" />
            <path d=" M 704.828, 595.051 705.143, 599.657 706.375, 603.972 707.140, 604.870 709.731, 606.133 717.485, 604.572 720.577, 602.835 721.431, 602.396 721.732, 602.240 723.968, 601.090 724.011, 601.068 724.371, 600.883 725.305, 600.402 732.409, 596.927 732.421, 596.921 732.507, 596.879 732.605, 596.831 " fill="none" stroke="rgb(0, 0, 0)" stroke-linecap="butt" stroke-linejoin="round" stroke-opacity="1.0" stroke-width="3.0" />
            <path d=" M 516.820, 723.615 517.144, 723.503 520.132, 722.466 520.148, 722.460 523.883, 721.163 532.892, 716.824 535.993, 715.331 543.611, 712.051 549.812, 709.088 552.157, 707.968 " fill="none" stroke="rgb(0, 0, 0)" stroke-linecap="butt" stroke-linejoin="round" stroke-opacity="1.0" stroke-width="3.0" />
            <path d=" M 795.212, 636.225 798.832, 634.972 799.215, 634.839 800.990, 634.225 801.544, 633.966 801.545, 633.965 802.728, 633.410 805.356, 632.177 805.371, 632.170 805.375, 632.168 805.390, 632.162 805.791, 631.973 806.185, 631.789 808.945, 630.494 813.824, 628.206 815.887, 627.238 816.179, 627.101 816.681, 626.860 816.733, 626.835 817.147, 626.637 817.295, 626.566 817.397, 626.517 817.472, 626.480 817.752, 626.346 819.963, 625.285 821.706, 624.449 821.784, 624.411 822.210, 624.207 826.588, 622.591 826.614, 622.581 826.953, 622.456 830.959, 620.978 " fill="none" stroke="rgb(0, 0, 0)" stroke-linecap="butt" stroke-linejoin="round" stroke-opacity="1.0" stroke-width="3.0" />
            <path d=" M 946.125, 764.474 948.051, 761.887 949.177, 760.373 949.200, 760.334 952.457, 754.698 953.227, 753.484 953.473, 753.096 953.547, 752.980 953.655, 752.809 954.105, 752.099 956.306, 747.710 956.522, 747.292 958.679, 743.115 959.973, 739.717 960.573, 738.143 960.158, 739.129 960.023, 739.451 959.471, 740.404 959.035, 741.157 957.622, 743.597 957.384, 743.965 957.101, 744.402 956.712, 745.003 956.547, 745.257 956.203, 745.789 " fill="none" stroke="rgb(0, 0, 0)" stroke-linecap="butt" stroke-linejoin="round" stroke-opacity="1.0" stroke-width="3.0" />
            <path d=" M 735.896, 646.849 735.895, 646.884 735.894, 646.894 735.867, 647.464 735.802, 648.830 735.692, 651.151 735.936, 651.649 737.447, 653.093 740.869, 654.088 742.867, 654.557 745.236, 655.455 746.535, 655.528 746.853, 655.546 747.106, 655.549 750.181, 655.588 754.690, 656.759 758.673, 657.183 760.583, 657.559 762.824, 657.999 763.004, 658.035 763.071, 658.048 763.199, 658.073 763.783, 658.188 764.264, 658.283 768.494, 660.841 " fill="none" stroke="rgb(0, 0, 0)" stroke-linecap="butt" stroke-linejoin="round" stroke-opacity="1.0" stroke-width="3.0" />
            <path d=" M 367.026, 697.682 367.025, 697.874 367.025, 697.908 367.011, 701.275 365.412, 707.580 365.337, 707.878 365.265, 708.163 364.991, 709.715 364.875, 710.375 364.661, 711.588 364.660, 711.614 364.656, 711.865 364.581, 715.930 364.104, 718.854 362.641, 727.819 362.704, 731.383 362.733, 733.098 362.796, 736.686 " fill="none" stroke="rgb(0, 0, 0)" stroke-linecap="butt" stroke-linejoin="round" stroke-opacity="1.0" stroke-width="3.0" />
            <path d=" M 792.658, 457.752 785.759, 458.440 783.610, 459.152 779.594, 460.481 773.183, 466.269 772.730, 466.678 771.887, 467.439 770.452, 470.593 772.812, 473.972 773.768, 475.342 773.775, 475.351 773.801, 475.389 774.906, 476.971 775.027, 477.144 775.553, 477.898 775.558, 477.905 775.795, 478.244 776.258, 478.907 776.753, 479.616 777.762, 481.061 " fill="none" stroke="rgb(0, 0, 0)" stroke-linecap="butt" stroke-linejoin="round" stroke-opacity="1.0" stroke-width="3.0" />
            <path d=" M 897.723, 470.557 895.829, 465.345 893.645, 462.373 889.187, 456.867 886.559, 452.782 883.579, 448.197 881.701, 446.587 877.610, 444.699 873.684, 444.913 870.976, 445.061 " fill="none" stroke="rgb(0, 0, 0)" stroke-linecap="butt" stroke-linejoin="round" stroke-opacity="1.0" stroke-width="3.0" />
            <path d=" M 583.157, 870.586 583.873, 870.523 584.389, 870.478 588.089, 870.155 590.347, 869.958 591.456, 869.518 591.496, 869.502 591.978, 869.311 593.279, 868.794 594.542, 868.459 596.499, 867.939 596.898, 867.833 602.748, 866.278 603.243, 866.147 603.589, 866.055 604.305, 865.987 606.075, 865.820 612.892, 865.177 613.263, 865.142 615.386, 865.075 622.997, 864.835 " fill="none" stroke="rgb(0, 0, 0)" stroke-linecap="butt" stroke-linejoin="round" stroke-opacity="1.0" stroke-width="3.0" />
            <path d=" M 775.203, 750.238 774.520, 753.046 778.443, 754.536 778.691, 754.631 778.871, 754.722 779.306, 754.943 783.508, 757.077 787.501, 756.472 787.749, 756.435 787.824, 756.423 792.914, 754.382 795.055, 754.685 795.111, 754.902 795.171, 755.129 795.299, 755.618 795.694, 757.128 795.900, 757.915 797.319, 759.431 799.728, 760.421 801.199, 760.669 801.365, 760.686 803.135, 760.866 804.871, 760.405 805.093, 760.346 805.181, 760.323 807.495, 759.709 " fill="none" stroke="rgb(0, 0, 0)" stroke-linecap="butt" stroke-linejoin="round" stroke-opacity="1.0" stroke-width="3.0" />
            <path d=" M 940.252, 560.913 939.442, 553.845 936.735, 544.219 936.535, 543.508 934.032, 537.255 929.617, 528.282 929.566, 528.180 928.175, 526.130 925.777, 523.243 " fill="none" stroke="rgb(0, 0, 0)" stroke-linecap="butt" stroke-linejoin="round" stroke-opacity="1.0" stroke-width="3.0" />
            <path d=" M 806.605, 497.762 804.895, 498.094 804.811, 498.111 804.743, 498.124 804.604, 498.151 802.944, 498.474 801.992, 498.599 801.140, 498.712 800.804, 498.756 799.189, 498.969 793.918, 499.664 788.784, 501.233 787.275, 505.312 791.500, 512.993 793.627, 518.584 795.500, 521.851 795.601, 522.027 " fill="none" stroke="rgb(0, 0, 0)" stroke-linecap="butt" stroke-linejoin="round" stroke-opacity="1.0" stroke-width="3.0" />
            <path d=" M 666.884, 839.437 668.142, 839.215 669.441, 838.985 679.288, 837.243 682.935, 836.599 688.638, 836.782 682.468, 837.517 673.412, 838.595 669.441, 838.985 " fill="none" stroke="rgb(0, 0, 0)" stroke-linecap="butt" stroke-linejoin="round" stroke-opacity="1.0" stroke-width="3.0" />
            <path d=" M 780.314, 652.545 780.307, 652.550 777.563, 654.396 777.332, 654.551 776.706, 654.973 775.975, 655.465 775.596, 656.062 775.561, 656.117 775.412, 656.352 775.125, 656.848 773.531, 659.605 773.276, 660.045 774.773, 662.425 775.677, 663.861 777.965, 665.244 787.298, 664.536 788.849, 664.418 789.004, 664.429 789.085, 664.434 789.466, 664.459 792.353, 664.648 793.355, 664.713 796.464, 664.917 796.714, 664.933 797.211, 664.966 797.663, 664.995 799.980, 664.481 800.289, 664.413 800.308, 664.408 800.489, 664.368 800.618, 664.340 801.005, 664.253 802.144, 664.001 802.864, 663.841 " fill="none" stroke="rgb(0, 0, 0)" stroke-linecap="butt" stroke-linejoin="round" stroke-opacity="1.0" stroke-width="3.0" />
            <path d=" M 948.249, 568.659 951.884, 572.833 952.751, 573.828 953.743, 574.919 952.657, 573.622 947.941, 567.987 940.582, 561.216 940.252, 560.913 939.348, 560.081 932.441, 554.665 932.417, 554.647 932.318, 554.567 931.264, 553.712 929.672, 552.421 927.852, 551.309 " fill="none" stroke="rgb(0, 0, 0)" stroke-linecap="butt" stroke-linejoin="round" stroke-opacity="1.0" stroke-width="3.0" />
            <path d=" M 772.041, 472.155 772.402, 472.771 772.507, 472.950 772.572, 473.060 773.923, 475.365 773.924, 475.367 773.951, 475.412 774.386, 476.155 774.944, 476.965 775.061, 477.135 775.570, 477.876 775.574, 477.882 775.806, 478.219 776.275, 478.901 776.760, 479.606 777.762, 481.061 777.613, 485.705 778.595, 488.333 779.219, 489.254 779.290, 489.358 779.591, 489.801 780.913, 491.752 780.976, 491.844 781.013, 491.899 781.358, 492.408 781.535, 492.668 785.145, 497.992 786.882, 498.512 788.646, 499.182 790.509, 499.888 791.605, 499.041 795.854, 495.760 796.616, 495.171 796.891, 494.959 797.342, 494.610 " fill="none" stroke="rgb(0, 0, 0)" stroke-linecap="butt" stroke-linejoin="round" stroke-opacity="1.0" stroke-width="3.0" />
            <path d=" M 860.112, 515.787 858.281, 513.336 857.319, 512.049 850.425, 504.805 849.981, 504.339 849.846, 504.197 847.546, 501.633 846.072, 499.990 844.816, 498.589 843.947, 497.620 840.780, 494.654 839.912, 493.840 839.462, 493.448 839.111, 493.143 838.870, 492.932 837.388, 491.641 837.015, 491.315 836.272, 490.668 835.611, 490.092 835.399, 489.907 834.953, 489.518 831.103, 487.382 830.246, 484.287 " fill="none" stroke="rgb(0, 0, 0)" stroke-linecap="butt" stroke-linejoin="round" stroke-opacity="1.0" stroke-width="3.0" />
            <path d=" M 560.304, 870.780 565.396, 872.655 567.784, 873.253 573.502, 873.658 578.836, 873.988 582.473, 873.948 589.415, 873.389 589.630, 873.371 591.748, 873.201 593.541, 873.056 596.678, 872.934 598.126, 872.092 598.758, 871.724 599.045, 871.557 603.236, 869.118 " fill="none" stroke="rgb(0, 0, 0)" stroke-linecap="butt" stroke-linejoin="round" stroke-opacity="1.0" stroke-width="3.0" />
            <path d=" M 787.298, 664.536 781.520, 668.429 779.873, 669.539 778.870, 670.263 772.849, 674.616 768.941, 676.531 765.135, 680.805 766.239, 683.626 766.845, 684.337 770.792, 685.089 771.442, 685.213 775.776, 685.627 779.505, 685.219 " fill="none" stroke="rgb(0, 0, 0)" stroke-linecap="butt" stroke-linejoin="round" stroke-opacity="1.0" stroke-width="3.0" />
            <path d=" M 738.837, 830.332 744.143, 831.041 749.876, 831.481 757.421, 830.845 758.952, 830.582 759.683, 830.457 759.778, 830.441 760.015, 830.400 760.268, 830.357 763.154, 829.862 763.797, 829.752 769.240, 828.819 769.556, 828.765 770.551, 828.566 770.853, 828.506 771.039, 828.469 771.443, 828.389 772.074, 828.263 772.985, 828.081 774.111, 827.673 776.898, 826.665 777.957, 826.282 779.766, 825.627 779.856, 825.594 780.443, 825.382 782.705, 824.563 " fill="none" stroke="rgb(0, 0, 0)" stroke-linecap="butt" stroke-linejoin="round" stroke-opacity="1.0" stroke-width="3.0" />
            <path d=" M 557.701, 704.218 560.054, 704.469 560.633, 704.628 564.754, 705.758 573.559, 704.859 575.985, 702.695 576.243, 701.499 576.249, 701.472 576.666, 699.537 576.392, 699.132 575.734, 698.162 574.769, 696.739 573.691, 695.978 573.579, 695.899 572.854, 695.387 572.839, 695.376 572.101, 694.855 571.994, 694.780 571.950, 694.748 571.305, 694.293 571.276, 692.518 571.265, 691.810 572.148, 690.142 572.933, 688.658 572.340, 686.432 572.094, 686.157 572.035, 686.091 570.836, 685.268 569.730, 684.509 569.534, 684.375 569.418, 684.295 568.574, 683.716 567.112, 682.712 " fill="none" stroke="rgb(0, 0, 0)" stroke-linecap="butt" stroke-linejoin="round" stroke-opacity="1.0" stroke-width="3.0" />
            <path d=" M 795.500, 521.851 797.734, 527.197 799.123, 530.953 800.195, 533.710 802.164, 537.789 803.915, 540.324 809.537, 541.463 814.096, 540.538 816.602, 539.464 816.980, 539.302 817.071, 539.264 818.969, 538.450 820.841, 537.648 820.983, 537.588 821.014, 537.575 821.329, 537.439 822.260, 537.041 826.291, 535.314 827.037, 534.994 827.162, 534.941 827.213, 534.919 " fill="none" stroke="rgb(0, 0, 0)" stroke-linecap="butt" stroke-linejoin="round" stroke-opacity="1.0" stroke-width="3.0" />
            <path d=" M 492.961, 791.701 494.904, 790.713 496.498, 789.848 496.825, 789.671 497.627, 789.236 497.837, 789.122 502.977, 782.773 497.506, 780.162 487.553, 779.198 481.502, 778.612 473.175, 780.152 472.126, 780.346 " fill="none" stroke="rgb(0, 0, 0)" stroke-linecap="butt" stroke-linejoin="round" stroke-opacity="1.0" stroke-width="3.0" />
            <path d=" M 685.426, 658.396 681.596, 665.490 678.831, 671.756 676.996, 675.915 676.576, 679.107 675.957, 686.384 676.745, 690.102 677.710, 692.984 682.129, 700.902 " fill="none" stroke="rgb(0, 0, 0)" stroke-linecap="butt" stroke-linejoin="round" stroke-opacity="1.0" stroke-width="3.0" />
            <path d=" M 702.605, 552.449 702.617, 552.832 702.674, 554.714 702.709, 555.865 702.862, 557.170 702.926, 557.720 702.955, 557.969 703.055, 558.144 704.532, 560.717 705.207, 562.407 705.948, 564.262 706.638, 564.908 706.753, 565.015 708.282, 566.446 708.717, 566.853 710.592, 566.771 713.119, 566.660 713.264, 566.654 713.550, 566.641 713.945, 566.491 714.226, 566.384 716.424, 565.545 719.993, 564.185 721.630, 563.499 723.564, 562.687 724.615, 561.636 725.129, 561.122 725.576, 560.676 726.103, 560.149 726.173, 560.078 728.130, 558.122 728.135, 558.118 728.650, 557.603 729.713, 556.540 730.072, 556.227 733.664, 553.097 733.887, 552.903 " fill="none" stroke="rgb(0, 0, 0)" stroke-linecap="butt" stroke-linejoin="round" stroke-opacity="1.0" stroke-width="3.0" />
            <path d=" M 698.985, 570.488 699.885, 571.490 700.783, 572.488 701.977, 573.814 705.933, 577.813 709.874, 582.507 711.834, 582.546 712.783, 582.565 713.288, 582.575 716.815, 582.123 718.865, 581.344 719.206, 581.214 719.983, 580.919 720.025, 580.896 721.392, 580.131 721.446, 580.101 722.054, 579.761 722.753, 579.370 723.622, 578.757 725.627, 577.341 726.085, 577.019 726.815, 576.503 727.267, 576.184 729.173, 574.838 730.885, 573.629 731.757, 573.967 733.776, 574.623 737.500, 575.832 " fill="none" stroke="rgb(0, 0, 0)" stroke-linecap="butt" stroke-linejoin="round" stroke-opacity="1.0" stroke-width="3.0" />
            <path d=" M 830.274, 778.852 831.827, 780.361 831.867, 780.400 832.538, 781.051 833.220, 781.714 833.263, 781.758 833.263, 781.758 833.264, 781.759 834.527, 783.046 835.691, 784.232 839.249, 785.135 842.911, 783.743 849.311, 786.234 855.170, 789.878 856.717, 792.327 857.161, 792.593 857.171, 792.599 857.330, 792.694 857.430, 792.754 857.560, 792.832 858.825, 793.589 859.258, 793.848 859.386, 793.925 859.712, 794.120 860.547, 794.965 864.685, 799.155 865.643, 800.759 866.676, 802.488 866.922, 802.899 " fill="none" stroke="rgb(0, 0, 0)" stroke-linecap="butt" stroke-linejoin="round" stroke-opacity="1.0" stroke-width="3.0" />
            <path d=" M 769.602, 691.863 769.717, 692.811 770.064, 695.662 770.851, 696.160 771.798, 696.759 775.058, 698.821 775.976, 700.904 771.185, 707.177 771.060, 707.341 771.036, 707.373 770.685, 707.832 764.308, 714.724 764.204, 717.517 766.443, 721.798 772.474, 722.484 773.587, 722.611 774.161, 722.676 774.323, 722.694 774.447, 722.708 774.885, 722.758 775.305, 722.806 775.554, 722.834 " fill="none" stroke="rgb(0, 0, 0)" stroke-linecap="butt" stroke-linejoin="round" stroke-opacity="1.0" stroke-width="3.0" />
            <path d=" M 681.339, 698.781 682.129, 700.902 682.346, 701.484 682.885, 702.256 686.348, 704.161 691.074, 704.535 698.226, 706.151 708.094, 707.769 717.501, 709.311 722.530, 709.068 724.172, 708.989 726.164, 708.893 " fill="none" stroke="rgb(0, 0, 0)" stroke-linecap="butt" stroke-linejoin="round" stroke-opacity="1.0" stroke-width="3.0" />
            <path d=" M 435.082, 705.239 435.565, 704.609 436.140, 703.859 438.239, 701.121 440.943, 697.592 441.325, 696.684 441.330, 696.672 442.027, 695.013 442.255, 694.472 442.899, 692.939 443.036, 692.615 443.274, 692.049 444.097, 690.092 444.650, 688.777 445.654, 686.445 444.319, 684.190 442.212, 683.897 441.214, 683.758 432.201, 688.090 431.771, 688.296 431.421, 688.482 430.351, 689.050 426.270, 693.327 424.974, 694.685 424.901, 694.761 424.295, 695.395 " fill="none" stroke="rgb(0, 0, 0)" stroke-linecap="butt" stroke-linejoin="round" stroke-opacity="1.0" stroke-width="3.0" />
            <path d=" M 644.121, 619.221 644.537, 618.901 647.443, 616.663 651.163, 612.628 652.494, 611.184 657.296, 606.899 660.770, 603.038 664.956, 598.461 667.999, 595.078 669.759, 592.983 673.143, 588.625 678.017, 583.944 " fill="none" stroke="rgb(0, 0, 0)" stroke-linecap="butt" stroke-linejoin="round" stroke-opacity="1.0" stroke-width="3.0" />
            <path d=" M 390.344, 693.039 393.070, 687.699 393.099, 687.395 393.138, 686.979 393.753, 680.424 393.933, 678.506 389.347, 672.023 387.494, 670.734 385.951, 670.539 385.927, 670.536 383.850, 670.479 380.492, 673.182 375.989, 676.271 374.977, 679.444 374.793, 682.160 375.465, 683.177 377.164, 685.747 " fill="none" stroke="rgb(0, 0, 0)" stroke-linecap="butt" stroke-linejoin="round" stroke-opacity="1.0" stroke-width="3.0" />
            <path d=" M 473.867, 703.666 474.344, 703.424 478.105, 701.521 479.044, 701.046 483.255, 697.443 483.742, 697.000 484.212, 696.264 484.235, 696.229 484.237, 696.225 484.620, 695.625 484.977, 695.066 487.145, 691.673 488.438, 690.339 488.475, 690.301 489.253, 689.498 493.650, 684.959 494.660, 682.334 494.569, 682.238 492.960, 680.551 492.885, 680.472 492.381, 679.944 491.481, 677.990 491.206, 677.393 490.755, 676.413 488.542, 676.001 488.379, 675.971 478.815, 676.777 478.577, 676.797 478.361, 676.815 " fill="none" stroke="rgb(0, 0, 0)" stroke-linecap="butt" stroke-linejoin="round" stroke-opacity="1.0" stroke-width="3.0" />
            <path d=" M 576.666, 829.182 577.459, 829.422 578.131, 829.626 578.247, 829.661 578.342, 829.646 582.300, 829.016 586.794, 827.813 587.436, 827.244 588.922, 825.926 590.770, 824.287 590.884, 824.185 592.590, 821.210 593.377, 819.388 593.213, 815.468 591.360, 809.355 591.254, 809.039 591.008, 808.311 590.670, 807.309 589.453, 803.703 587.227, 800.682 585.688, 798.275 585.687, 798.274 583.655, 796.530 582.120, 796.214 580.356, 796.496 " fill="none" stroke="rgb(0, 0, 0)" stroke-linecap="butt" stroke-linejoin="round" stroke-opacity="1.0" stroke-width="3.0" />
            <path d=" M 682.468, 837.517 686.686, 837.229 692.715, 837.039 702.689, 836.324 706.578, 836.046 716.413, 834.237 720.538, 833.478 730.356, 831.578 732.926, 831.081 " fill="none" stroke="rgb(0, 0, 0)" stroke-linecap="butt" stroke-linejoin="round" stroke-opacity="1.0" stroke-width="3.0" />
            <path d=" M 873.684, 444.913 870.149, 443.909 867.526, 443.214 863.484, 443.047 860.610, 443.463 850.610, 443.540 847.510, 443.565 844.688, 443.543 834.730, 442.622 834.314, 442.584 824.343, 443.336 822.485, 443.476 822.006, 443.605 " fill="none" stroke="rgb(0, 0, 0)" stroke-linecap="butt" stroke-linejoin="round" stroke-opacity="1.0" stroke-width="3.0" />
            <path d=" M 805.140, 569.432 803.994, 573.410 803.686, 575.852 804.315, 577.452 805.458, 579.558 810.503, 579.205 819.692, 575.262 824.256, 573.304 824.982, 572.812 826.480, 571.797 826.660, 571.675 827.089, 571.385 832.837, 567.491 835.640, 563.231 835.814, 562.965 837.790, 559.961 838.632, 558.682 838.685, 558.601 839.137, 557.913 " fill="none" stroke="rgb(0, 0, 0)" stroke-linecap="butt" stroke-linejoin="round" stroke-opacity="1.0" stroke-width="3.0" />
            <path d=" M 413.295, 700.679 413.343, 700.188 413.423, 699.350 413.436, 699.214 413.464, 698.930 413.476, 698.807 413.514, 698.411 413.525, 698.298 413.646, 697.041 413.795, 696.646 417.329, 687.292 418.883, 683.179 420.203, 675.158 422.600, 669.900 424.756, 662.459 426.744, 658.693 429.479, 650.775 " fill="none" stroke="rgb(0, 0, 0)" stroke-linecap="butt" stroke-linejoin="round" stroke-opacity="1.0" stroke-width="3.0" />
            <path d=" M 514.457, 710.819 516.637, 709.991 516.686, 709.973 517.172, 709.788 517.736, 709.574 517.789, 709.554 518.537, 709.270 519.551, 708.885 519.657, 708.844 519.764, 708.802 520.304, 708.594 521.137, 708.273 526.841, 706.073 533.147, 701.167 533.739, 698.916 532.782, 694.702 530.689, 691.503 530.595, 691.359 530.563, 691.310 529.365, 689.479 528.063, 687.490 525.993, 683.722 525.580, 683.413 525.298, 683.202 520.726, 679.787 517.514, 679.426 515.082, 680.092 " fill="none" stroke="rgb(0, 0, 0)" stroke-linecap="butt" stroke-linejoin="round" stroke-opacity="1.0" stroke-width="3.0" />
            <path d=" M 609.064, 659.784 610.474, 658.247 612.250, 656.310 614.866, 653.459 614.883, 653.440 616.154, 652.054 616.375, 651.814 620.895, 645.715 625.094, 640.242 625.576, 639.677 625.591, 639.661 631.234, 633.061 635.367, 628.738 639.799, 623.591 644.537, 618.901 " fill="none" stroke="rgb(0, 0, 0)" stroke-linecap="butt" stroke-linejoin="round" stroke-opacity="1.0" stroke-width="3.0" />
            <path d=" M 615.386, 865.075 616.289, 865.108 622.540, 864.898 632.414, 866.482 634.025, 866.741 642.882, 867.995 646.863, 869.059 651.068, 870.008 657.903, 872.278 662.496, 874.147 665.448, 875.076 669.747, 876.681 " fill="none" stroke="rgb(0, 0, 0)" stroke-linecap="butt" stroke-linejoin="round" stroke-opacity="1.0" stroke-width="3.0" />
            <path d=" M 664.280, 626.033 664.817, 625.243 668.944, 619.172 673.538, 611.463 678.123, 602.576 678.504, 601.838 681.502, 595.882 685.032, 589.207 685.086, 589.104 685.138, 589.006 685.234, 588.826 688.421, 585.165 693.976, 582.041 695.361, 580.295 " fill="none" stroke="rgb(0, 0, 0)" stroke-linecap="butt" stroke-linejoin="round" stroke-opacity="1.0" stroke-width="3.0" />
            <path d=" M 397.561, 745.652 400.036, 745.531 400.943, 745.632 401.002, 745.639 401.556, 745.700 401.610, 745.706 402.268, 745.779 403.353, 745.143 403.362, 745.138 403.483, 745.067 403.832, 744.862 404.163, 743.765 404.186, 743.688 404.222, 743.567 404.983, 741.771 403.848, 738.113 400.254, 734.378 398.429, 730.632 396.666, 727.011 394.395, 721.744 389.310, 717.960 388.326, 714.829 388.335, 713.371 388.343, 712.116 388.277, 711.890 388.243, 711.774 387.402, 708.889 386.908, 707.195 384.952, 703.103 384.952, 703.102 383.811, 700.717 " fill="none" stroke="rgb(0, 0, 0)" stroke-linecap="butt" stroke-linejoin="round" stroke-opacity="1.0" stroke-width="3.0" />
            <path d=" M 468.742, 766.467 470.608, 762.845 471.229, 761.639 471.459, 761.193 471.815, 757.844 471.838, 757.622 471.840, 757.602 471.869, 757.336 471.869, 757.332 471.899, 757.053 471.481, 756.533 471.443, 756.485 470.437, 755.234 468.607, 755.046 468.604, 755.046 462.957, 754.466 462.879, 754.458 455.146, 753.664 450.558, 752.926 441.791, 750.918 434.860, 749.647 428.790, 750.761 427.847, 750.934 427.839, 750.935 427.343, 750.949 425.578, 751.000 424.570, 751.029 424.283, 751.037 " fill="none" stroke="rgb(0, 0, 0)" stroke-linecap="butt" stroke-linejoin="round" stroke-opacity="1.0" stroke-width="3.0" />
            <path d=" M 708.925, 524.687 708.819, 524.730 708.644, 524.801 706.369, 525.726 706.137, 525.821 706.083, 525.843 705.237, 526.187 703.355, 526.952 703.351, 526.954 702.651, 527.238 702.498, 527.301 702.149, 527.443 701.517, 527.668 700.966, 527.865 700.799, 527.924 700.751, 527.942 700.601, 527.995 700.400, 528.067 698.131, 528.876 697.144, 529.383 695.246, 530.356 694.630, 530.672 694.429, 530.775 694.312, 530.835 694.281, 530.851 694.159, 530.913 693.658, 531.171 690.472, 534.260 686.690, 541.298 684.806, 544.804 682.807, 548.838 682.991, 549.416 683.266, 550.278 683.820, 552.016 684.009, 552.236 685.305, 553.754 685.862, 553.791 688.277, 553.949 688.456, 553.927 691.631, 553.538 693.870, 553.263 694.528, 553.183 694.888, 553.139 695.144, 553.107 695.529, 553.060 695.720, 553.037 696.172, 552.981 696.816, 552.902 701.626, 552.313 702.617, 552.832 " fill="none" stroke="rgb(0, 0, 0)" stroke-linecap="butt" stroke-linejoin="round" stroke-opacity="1.0" stroke-width="3.0" />
            <path d=" M 744.365, 495.716 743.120, 496.015 742.936, 496.059 742.794, 496.093 741.128, 496.492 736.939, 497.494 734.760, 499.015 733.116, 500.162 733.084, 500.185 731.730, 501.130 727.762, 503.899 723.247, 509.564 723.254, 509.718 723.273, 510.157 723.274, 510.181 723.312, 511.060 723.829, 511.482 723.988, 511.612 724.159, 511.752 724.197, 511.783 724.873, 512.335 726.075, 512.706 726.275, 512.767 726.362, 512.794 726.700, 512.898 732.064, 512.607 732.152, 512.602 732.500, 512.583 732.562, 512.579 732.829, 512.565 733.180, 512.546 733.557, 512.525 735.008, 512.446 735.031, 512.445 735.134, 512.440 737.874, 512.290 738.673, 512.281 739.341, 512.273 739.482, 512.272 740.914, 512.255 741.010, 512.254 741.271, 512.251 741.489, 512.249 742.540, 512.236 743.421, 512.226 743.459, 512.219 745.112, 511.899 745.286, 511.866 745.389, 511.846 749.297, 511.090 750.186, 510.918 754.164, 511.833 754.779, 512.740 755.013, 513.083 " fill="none" stroke="rgb(0, 0, 0)" stroke-linecap="butt" stroke-linejoin="round" stroke-opacity="1.0" stroke-width="3.0" />
            <path d=" M 980.845, 633.832 980.506, 633.136 979.151, 630.352 978.229, 628.459 977.123, 623.966 975.311, 616.609 973.296, 606.814 972.274, 601.849 968.879, 592.504 966.414, 588.389 962.872, 583.853 957.804, 578.557 " fill="none" stroke="rgb(0, 0, 0)" stroke-linecap="butt" stroke-linejoin="round" stroke-opacity="1.0" stroke-width="3.0" />
            <path d=" M 587.436, 827.244 587.924, 827.292 595.365, 827.688 599.205, 827.015 607.045, 824.570 612.445, 821.569 614.932, 818.663 616.695, 815.185 616.632, 812.649 615.321, 807.148 613.547, 801.804 612.028, 799.990 610.046, 797.623 605.098, 795.930 601.821, 796.219 " fill="none" stroke="rgb(0, 0, 0)" stroke-linecap="butt" stroke-linejoin="round" stroke-opacity="1.0" stroke-width="3.0" />
            <path d=" M 502.009, 810.781 504.966, 810.817 506.108, 810.721 511.473, 807.492 517.155, 802.746 517.232, 802.681 517.258, 802.660 517.494, 802.463 521.619, 799.050 521.632, 799.039 521.740, 798.950 523.320, 797.642 526.265, 794.545 525.645, 793.456 525.582, 793.345 523.002, 789.075 521.655, 787.999 515.099, 788.399 506.346, 789.003 502.245, 789.011 497.758, 789.557 " fill="none" stroke="rgb(0, 0, 0)" stroke-linecap="butt" stroke-linejoin="round" stroke-opacity="1.0" stroke-width="3.0" />
            <path d=" M 418.505, 782.958 428.499, 782.611 428.684, 782.605 435.305, 781.599 445.160, 779.904 452.907, 778.572 461.081, 776.037 463.052, 775.426 463.816, 774.895 468.148, 771.882 468.500, 771.315 469.259, 770.091 469.513, 769.653 469.827, 767.996 469.837, 767.939 470.021, 766.968 470.167, 766.199 471.265, 762.829 471.229, 761.639 " fill="none" stroke="rgb(0, 0, 0)" stroke-linecap="butt" stroke-linejoin="round" stroke-opacity="1.0" stroke-width="3.0" />
            <path d=" M 576.243, 701.499 577.029, 700.908 578.111, 700.094 582.068, 697.464 586.070, 694.908 592.427, 690.867 599.326, 686.679 603.170, 685.085 603.175, 685.083 603.189, 685.077 604.351, 684.595 604.443, 684.557 607.029, 683.484 609.909, 682.491 612.117, 681.729 617.941, 678.327 626.124, 674.425 626.212, 674.383 626.837, 674.173 628.006, 673.781 628.615, 673.577 630.646, 672.896 631.632, 672.565 " fill="none" stroke="rgb(0, 0, 0)" stroke-linecap="butt" stroke-linejoin="round" stroke-opacity="1.0" stroke-width="3.0" />
            <path d=" M 591.818, 862.026 601.335, 858.955 603.170, 858.363 612.716, 855.385 616.941, 854.067 626.093, 850.038 626.319, 849.939 630.630, 848.533 630.732, 848.500 636.417, 846.646 636.898, 846.489 637.039, 846.443 637.046, 846.441 642.781, 844.570 643.168, 844.435 646.498, 843.277 650.630, 841.839 651.301, 841.605 " fill="none" stroke="rgb(0, 0, 0)" stroke-linecap="butt" stroke-linejoin="round" stroke-opacity="1.0" stroke-width="3.0" />
            <path d=" M 726.275, 512.767 725.829, 512.923 722.588, 514.053 720.284, 516.011 719.463, 516.709 719.444, 516.725 716.840, 518.938 713.203, 521.840 712.725, 522.301 708.686, 526.196 709.602, 527.720 709.678, 527.845 710.495, 529.204 710.788, 529.691 712.546, 532.615 715.216, 533.470 720.658, 532.725 721.790, 532.570 722.515, 532.471 722.557, 532.465 722.655, 532.451 724.231, 532.364 726.309, 532.248 726.324, 532.247 726.658, 532.228 726.805, 532.220 727.377, 532.188 727.402, 532.187 727.453, 532.184 728.194, 532.143 731.554, 531.955 731.577, 531.954 732.046, 531.928 732.837, 531.776 734.170, 531.520 739.344, 530.403 740.525, 530.148 740.548, 530.143 742.636, 529.693 742.712, 529.676 746.517, 528.855 747.571, 528.914 " fill="none" stroke="rgb(0, 0, 0)" stroke-linecap="butt" stroke-linejoin="round" stroke-opacity="1.0" stroke-width="3.0" />
            <path d=" M 524.515, 708.217 527.167, 710.053 527.332, 710.204 529.487, 712.183 534.938, 712.058 541.421, 710.119 548.401, 706.627 552.769, 703.052 553.516, 702.441 553.813, 702.198 553.836, 702.093 554.599, 698.697 554.885, 694.532 554.731, 694.341 554.716, 694.322 552.156, 691.153 550.819, 688.982 550.568, 688.575 549.549, 686.922 549.478, 686.805 549.434, 686.734 549.365, 686.623 549.341, 686.601 547.725, 685.106 547.624, 685.013 545.762, 683.290 541.902, 681.740 535.953, 682.957 532.297, 682.808 525.580, 683.413 " fill="none" stroke="rgb(0, 0, 0)" stroke-linecap="butt" stroke-linejoin="round" stroke-opacity="1.0" stroke-width="3.0" />
            <path d=" M 770.406, 743.217 769.006, 744.783 768.605, 745.232 768.457, 745.398 766.929, 747.108 766.810, 747.241 766.674, 747.392 766.486, 747.596 764.544, 749.686 764.067, 750.074 763.737, 750.344 763.432, 750.592 763.430, 750.593 763.399, 750.619 762.976, 750.964 762.490, 751.360 762.271, 751.538 762.240, 751.563 762.186, 751.607 761.846, 751.885 759.071, 754.147 756.051, 756.724 751.306, 761.244 749.613, 763.318 746.328, 767.463 741.323, 775.220 740.553, 776.414 735.756, 785.189 734.799, 786.938 731.998, 793.759 732.043, 794.692 731.410, 796.907 731.782, 800.178 734.609, 806.401 " fill="none" stroke="rgb(0, 0, 0)" stroke-linecap="butt" stroke-linejoin="round" stroke-opacity="1.0" stroke-width="3.0" />
            <path d=" M 445.681, 698.258 448.739, 695.399 449.318, 694.856 450.181, 694.049 451.378, 692.930 452.061, 691.978 453.263, 690.302 454.105, 689.127 455.086, 687.447 458.427, 681.722 464.238, 673.584 465.092, 672.389 464.947, 672.164 463.001, 669.151 460.020, 666.944 456.358, 666.614 447.342, 670.941 440.674, 674.141 434.788, 679.208 429.229, 687.521 428.481, 688.641 428.357, 688.826 " fill="none" stroke="rgb(0, 0, 0)" stroke-linecap="butt" stroke-linejoin="round" stroke-opacity="1.0" stroke-width="3.0" />
            <path d=" M 725.652, 832.003 732.926, 831.081 738.837, 830.332 740.310, 830.146 742.433, 829.877 752.352, 828.607 755.729, 828.174 756.214, 828.112 757.414, 827.966 760.994, 827.530 761.928, 827.417 763.256, 827.255 766.181, 826.778 766.626, 826.706 770.590, 826.060 776.275, 825.133 776.622, 825.076 776.670, 825.068 776.882, 825.034 777.250, 824.974 779.820, 824.614 784.135, 824.011 786.108, 823.735 792.338, 822.863 792.557, 822.826 793.422, 822.681 795.856, 822.273 801.329, 821.354 801.792, 821.308 806.232, 820.872 807.852, 820.713 " fill="none" stroke="rgb(0, 0, 0)" stroke-linecap="butt" stroke-linejoin="round" stroke-opacity="1.0" stroke-width="3.0" />
            <path d=" M 796.007, 823.506 796.391, 826.137 796.664, 828.003 797.166, 829.201 797.289, 829.494 799.414, 834.564 800.124, 838.503 800.215, 839.004 800.633, 841.322 803.659, 845.975 804.096, 846.408 804.147, 846.459 804.932, 847.237 807.273, 849.014 809.091, 850.395 813.321, 854.177 819.931, 859.150 823.408, 861.053 826.683, 862.209 836.529, 863.954 836.917, 864.023 842.050, 863.935 844.597, 863.892 844.773, 863.923 849.841, 864.824 851.171, 865.060 852.570, 865.868 854.569, 867.024 857.266, 866.886 859.720, 867.301 862.379, 867.366 864.162, 867.405 " fill="none" stroke="rgb(0, 0, 0)" stroke-linecap="butt" stroke-linejoin="round" stroke-opacity="1.0" stroke-width="3.0" />
            <path d=" M 870.896, 872.806 872.725, 875.759 872.984, 876.178 875.812, 877.286 880.146, 877.902 890.113, 877.081 890.874, 877.018 896.844, 876.497 902.151, 875.842 909.242, 873.207 915.834, 869.617 922.261, 865.393 923.804, 864.063 929.398, 858.870 931.796, 855.705 936.804, 849.023 938.844, 845.775 940.891, 841.444 943.046, 837.285 944.608, 833.271 945.622, 829.084 945.133, 825.896 944.804, 825.355 " fill="none" stroke="rgb(0, 0, 0)" stroke-linecap="butt" stroke-linejoin="round" stroke-opacity="1.0" stroke-width="3.0" />
            <path d=" M 429.346, 650.985 429.479, 650.775 434.840, 642.333 435.993, 640.518 440.565, 635.608 443.115, 627.977 442.692, 626.282 441.772, 625.184 437.097, 625.524 436.419, 625.673 432.369, 627.483 423.700, 631.857 420.452, 634.370 412.801, 640.809 405.157, 647.243 398.385, 654.600 396.340, 656.822 389.969, 664.530 389.286, 665.357 385.951, 670.539 " fill="none" stroke="rgb(0, 0, 0)" stroke-linecap="butt" stroke-linejoin="round" stroke-opacity="1.0" stroke-width="3.0" />
            <path d=" M 822.023, 443.602 822.006, 443.605 815.945, 444.424 812.730, 445.949 804.196, 450.644 798.265, 452.412 790.498, 453.497 783.771, 454.324 775.670, 454.059 768.735, 455.577 766.105, 457.053 759.009, 461.036 758.969, 461.058 758.474, 461.336 755.761, 463.357 755.493, 463.557 755.355, 463.660 754.825, 464.054 753.764, 464.844 753.650, 464.929 751.917, 466.221 749.755, 467.831 749.357, 470.527 750.025, 471.204 750.910, 472.101 750.920, 472.112 750.985, 472.178 752.453, 473.659 753.987, 473.712 754.019, 473.713 754.837, 473.741 754.853, 473.742 755.241, 473.755 759.895, 473.915 769.842, 474.944 773.158, 475.287 773.183, 475.290 773.775, 475.351 " fill="none" stroke="rgb(0, 0, 0)" stroke-linecap="butt" stroke-linejoin="round" stroke-opacity="1.0" stroke-width="3.0" />
            <path d=" M 980.594, 712.702 981.801, 715.439 984.105, 720.659 986.920, 721.453 989.027, 718.637 992.404, 717.810 995.579, 715.204 996.830, 713.117 999.516, 708.025 1001.309, 704.637 1003.004, 700.729 1004.615, 696.897 1005.993, 691.409 1007.357, 686.710 1008.007, 680.424 1007.910, 675.278 1006.818, 670.134 1002.642, 661.048 1002.559, 660.868 1000.170, 656.151 995.555, 649.820 993.680, 647.797 988.445, 641.764 983.843, 637.583 980.506, 633.136 " fill="none" stroke="rgb(0, 0, 0)" stroke-linecap="butt" stroke-linejoin="round" stroke-opacity="1.0" stroke-width="3.0" />
            <path d=" M 824.953, 811.884 824.302, 811.733 824.244, 811.719 823.837, 811.624 823.806, 811.617 822.618, 811.341 822.529, 811.320 820.604, 810.793 817.385, 810.058 815.659, 809.554 814.589, 809.243 813.915, 809.046 813.777, 809.011 811.838, 808.523 808.851, 807.770 804.920, 807.230 804.912, 807.228 804.646, 807.192 804.548, 807.183 798.328, 806.594 790.847, 807.471 780.856, 807.908 779.076, 807.986 769.077, 808.054 768.756, 808.056 766.253, 808.163 762.193, 808.406 762.143, 808.409 760.126, 808.529 757.735, 808.570 754.275, 808.356 747.059, 808.308 746.818, 808.320 742.610, 808.539 740.042, 808.663 737.314, 808.795 736.112, 808.771 733.587, 808.722 733.557, 808.721 733.065, 808.711 731.868, 808.713 729.556, 808.716 724.745, 808.828 719.624, 808.906 714.725, 809.299 710.403, 808.439 705.460, 808.530 " fill="none" stroke="rgb(0, 0, 0)" stroke-linecap="butt" stroke-linejoin="round" stroke-opacity="1.0" stroke-width="3.0" />
            <path d=" M 698.995, 873.544 699.387, 873.360 699.487, 873.313 701.725, 872.257 706.456, 870.027 707.522, 869.853 712.771, 868.997 718.350, 869.338 728.331, 869.948 729.360, 870.011 737.783, 871.416 745.609, 874.273 754.369, 876.525 764.014, 879.166 764.304, 879.245 768.929, 880.216 776.998, 880.578 780.143, 878.159 785.367, 872.840 785.928, 868.662 786.059, 864.753 785.989, 862.455 785.346, 858.241 784.891, 857.109 782.066, 852.072 777.314, 845.950 772.200, 839.285 767.562, 834.374 767.133, 833.920 763.797, 829.752 " fill="none" stroke="rgb(0, 0, 0)" stroke-linecap="butt" stroke-linejoin="round" stroke-opacity="1.0" stroke-width="3.0" />
            <path d=" M 930.936, 797.118 930.086, 795.880 929.599, 795.170 927.595, 792.356 927.065, 791.799 927.033, 791.766 926.869, 791.594 926.809, 791.530 926.579, 791.289 926.516, 791.222 925.370, 790.019 923.283, 788.079 920.829, 784.556 918.628, 781.691 916.787, 778.708 912.847, 773.626 910.941, 769.852 908.657, 764.869 905.530, 759.294 904.064, 753.371 902.255, 743.536 901.533, 739.611 901.684, 730.804 902.647, 720.851 902.704, 720.262 905.110, 711.316 907.855, 702.884 912.193, 693.874 912.500, 693.236 915.668, 689.288 919.315, 684.744 924.307, 681.101 930.140, 676.255 934.420, 671.556 934.595, 671.364 " fill="none" stroke="rgb(0, 0, 0)" stroke-linecap="butt" stroke-linejoin="round" stroke-opacity="1.0" stroke-width="3.0" />
            <path d=" M 829.674, 583.097 828.068, 584.545 826.996, 585.512 826.964, 585.540 826.655, 585.819 824.215, 588.019 823.019, 589.097 821.143, 591.612 820.223, 592.845 819.797, 593.417 818.330, 595.383 817.429, 596.147 816.374, 597.043 811.475, 601.201 807.066, 605.118 799.625, 611.799 797.790, 613.446 792.345, 616.404 788.728, 619.436 785.090, 622.485 780.347, 626.235 780.169, 626.382 779.965, 626.550 779.821, 626.669 779.818, 626.671 776.080, 629.752 772.299, 633.091 772.283, 633.105 770.653, 634.544 769.877, 634.833 766.066, 636.252 765.516, 636.740 765.514, 636.742 763.354, 638.660 762.617, 639.315 762.560, 639.365 761.786, 640.053 761.335, 640.454 761.310, 640.476 759.716, 641.891 757.301, 644.135 757.295, 644.140 757.232, 644.199 756.447, 644.928 756.395, 644.976 756.042, 645.304 755.756, 645.570 755.687, 645.634 755.615, 645.729 755.356, 646.073 755.297, 646.152 755.145, 646.352 755.144, 646.354 754.477, 647.238 754.376, 647.372 753.106, 649.056 754.123, 649.737 754.356, 649.893 754.944, 650.287 756.466, 651.306 756.538, 651.354 758.335, 650.692 758.653, 650.575 760.548, 649.877 763.165, 648.914 763.601, 648.753 764.803, 648.261 766.177, 647.698 771.631, 645.463 780.632, 641.340 781.261, 641.052 782.350, 640.788 783.769, 640.443 784.004, 640.386 784.025, 640.381 784.279, 640.319 784.291, 640.316 784.507, 640.264 785.176, 640.102 786.741, 639.721 792.694, 637.264 795.212, 636.225 796.964, 635.501 " fill="none" stroke="rgb(0, 0, 0)" stroke-linecap="butt" stroke-linejoin="round" stroke-opacity="1.0" stroke-width="3.0" />
            <path d=" M 754.311, 463.608 745.610, 463.984 743.081, 464.464 733.257, 466.330 729.164, 467.108 722.991, 468.848 717.393, 471.700 711.572, 473.298 702.302, 477.048 697.952, 478.808 695.084, 480.131 685.826, 483.910 677.636, 487.253 674.639, 490.042 674.068, 491.605 674.416, 495.552 677.684, 498.051 678.278, 498.452 683.509, 499.107 690.039, 498.391 700.004, 497.560 709.970, 496.730 710.821, 496.659 714.396, 496.572 715.955, 496.534 716.205, 496.528 718.038, 496.483 721.789, 496.392 724.853, 496.317 725.068, 496.312 728.394, 496.231 728.468, 496.229 728.479, 496.229 728.888, 496.219 728.993, 496.216 729.643, 496.199 729.969, 496.190 732.254, 496.129 732.815, 496.114 732.918, 496.112 733.047, 496.108 733.432, 496.098 735.996, 496.029 742.996, 495.510 743.011, 495.509 743.199, 495.495 745.152, 495.350 745.254, 495.343 745.992, 495.288 746.883, 495.222 " fill="none" stroke="rgb(0, 0, 0)" stroke-linecap="butt" stroke-linejoin="round" stroke-opacity="1.0" stroke-width="3.0" />
            <path d=" M 680.493, 570.389 674.169, 572.601 673.258, 572.919 668.828, 575.095 665.836, 577.179 660.177, 580.382 652.679, 585.003 648.961, 587.537 641.120, 593.597 633.099, 599.569 632.703, 599.864 632.508, 600.026 628.708, 603.183 626.209, 605.348 623.984, 607.392 622.339, 608.904 616.474, 614.390 610.160, 621.571 606.288, 626.154 600.363, 634.210 599.481, 635.409 595.504, 640.356 588.556, 647.547 583.362, 652.922 575.365, 658.925 573.281, 660.488 564.427, 665.136 563.178, 665.792 559.616, 668.062 550.504, 672.181 541.392, 676.299 537.488, 678.064 533.452, 680.030 525.298, 683.202 " fill="none" stroke="rgb(0, 0, 0)" stroke-linecap="butt" stroke-linejoin="round" stroke-opacity="1.0" stroke-width="3.0" />
        </g>
    </g>
</svg>
