<?xml version='1.0' encoding='ascii'?>
<svg xmlns="http://www.w3.org/2000/svg" height="1280" version="1.1" width="1280">
    <g id="RenderLayer_LineSet" inkscape:groupmode="lineset" inkscape:label="RenderLayer_LineSet" xmlns:inkscape="http://www.inkscape.org/namespaces/inkscape">
        <g id="strokes" inkscape:groupmode="layer" inkscape:label="strokes" xmlns:inkscape="http://www.inkscape.org/namespaces/inkscape">
            <path d=" M 785.844, 639.249 786.026, 644.634 786.088, 646.488 786.085, 646.971 786.024, 654.630 785.609, 658.715 785.549, 659.309 " fill="none" stroke="rgb(0, 0, 0)" stroke-linecap="butt" stroke-linejoin="round" stroke-opacity="1.0" stroke-width="3.0" />
            <path d=" M 976.715, 978.635 981.358, 974.506 982.929, 973.109 985.338, 969.706 988.058, 965.675 988.666, 964.190 989.013, 963.343 989.100, 963.107 " fill="none" stroke="rgb(0, 0, 0)" stroke-linecap="butt" stroke-linejoin="round" stroke-opacity="1.0" stroke-width="3.0" />
            <path d=" M 780.169, 463.587 780.452, 466.031 780.272, 469.977 780.242, 470.636 778.332, 477.138 777.546, 479.489 777.015, 481.079 776.886, 481.465 776.336, 483.112 " fill="none" stroke="rgb(0, 0, 0)" stroke-linecap="butt" stroke-linejoin="round" stroke-opacity="1.0" stroke-width="3.0" />
            <path d=" M 758.020, 255.682 757.166, 255.386 752.278, 254.593 746.900, 255.794 744.821, 256.831 743.677, 258.892 743.597, 259.036 745.096, 262.745 745.114, 262.789 " fill="none" stroke="rgb(0, 0, 0)" stroke-linecap="butt" stroke-linejoin="round" stroke-opacity="1.0" stroke-width="3.0" />
            <path d=" M 545.517, 946.439 548.085, 948.139 554.854, 951.407 556.859, 951.134 560.155, 950.182 564.541, 950.624 " fill="none" stroke="rgb(0, 0, 0)" stroke-linecap="butt" stroke-linejoin="round" stroke-opacity="1.0" stroke-width="3.0" />
            <path d=" M 628.691, 760.376 627.569, 759.258 626.367, 758.062 625.542, 756.864 624.642, 755.558 624.356, 755.143 623.923, 754.515 623.908, 754.494 623.277, 753.577 622.721, 752.769 621.558, 752.126 619.376, 750.919 613.937, 747.178 613.455, 746.846 " fill="none" stroke="rgb(0, 0, 0)" stroke-linecap="butt" stroke-linejoin="round" stroke-opacity="1.0" stroke-width="3.0" />
            <path d=" M 934.630, 1049.834 936.038, 1045.873 936.431, 1041.991 936.451, 1038.250 936.834, 1036.824 938.226, 1029.559 " fill="none" stroke="rgb(0, 0, 0)" stroke-linecap="butt" stroke-linejoin="round" stroke-opacity="1.0" stroke-width="3.0" />
            <path d=" M 924.397, 572.717 919.367, 568.657 915.570, 565.532 910.306, 562.115 907.225, 560.556 " fill="none" stroke="rgb(0, 0, 0)" stroke-linecap="butt" stroke-linejoin="round" stroke-opacity="1.0" stroke-width="3.0" />
            <path d=" M 708.490, 364.336 710.491, 365.569 714.489, 368.031 721.349, 372.081 726.333, 375.893 " fill="none" stroke="rgb(0, 0, 0)" stroke-linecap="butt" stroke-linejoin="round" stroke-opacity="1.0" stroke-width="3.0" />
            <path d=" M 723.779, 502.695 722.071, 502.327 719.661, 501.807 716.099, 501.040 712.306, 501.288 712.112, 501.300 710.292, 501.790 710.213, 501.811 709.585, 501.980 709.501, 502.003 709.446, 502.038 709.386, 502.077 704.766, 505.055 703.842, 506.423 " fill="none" stroke="rgb(0, 0, 0)" stroke-linecap="butt" stroke-linejoin="round" stroke-opacity="1.0" stroke-width="3.0" />
            <path d=" M 551.696, 640.146 550.235, 636.944 547.010, 631.803 546.895, 629.553 546.835, 628.369 549.136, 621.435 549.652, 619.881 " fill="none" stroke="rgb(0, 0, 0)" stroke-linecap="butt" stroke-linejoin="round" stroke-opacity="1.0" stroke-width="3.0" />
            <path d=" M 904.180, 992.300 904.155, 991.441 904.153, 991.360 904.035, 987.342 904.066, 987.053 904.575, 982.343 904.608, 977.874 905.445, 974.017 903.688, 970.707 " fill="none" stroke="rgb(0, 0, 0)" stroke-linecap="butt" stroke-linejoin="round" stroke-opacity="1.0" stroke-width="3.0" />
            <path d=" M 904.422, 747.217 904.049, 748.909 903.906, 749.560 902.772, 754.713 902.701, 755.454 902.696, 755.502 902.693, 755.530 902.692, 755.546 902.050, 762.212 902.227, 765.191 902.587, 769.367 " fill="none" stroke="rgb(0, 0, 0)" stroke-linecap="butt" stroke-linejoin="round" stroke-opacity="1.0" stroke-width="3.0" />
            <path d=" M 773.629, 373.268 768.375, 371.312 761.958, 372.288 759.265, 372.780 756.525, 375.847 756.580, 377.213 758.178, 378.640 " fill="none" stroke="rgb(0, 0, 0)" stroke-linecap="butt" stroke-linejoin="round" stroke-opacity="1.0" stroke-width="3.0" />
            <path d=" M 913.593, 1052.214 915.499, 1055.893 918.832, 1061.547 921.300, 1065.078 924.597, 1067.052 926.082, 1067.626 926.661, 1067.682 928.146, 1067.826 " fill="none" stroke="rgb(0, 0, 0)" stroke-linecap="butt" stroke-linejoin="round" stroke-opacity="1.0" stroke-width="3.0" />
            <path d=" M 938.675, 1055.031 939.221, 1051.363 938.863, 1048.109 939.417, 1045.059 939.067, 1041.515 938.591, 1037.258 938.428, 1033.231 938.404, 1032.627 " fill="none" stroke="rgb(0, 0, 0)" stroke-linecap="butt" stroke-linejoin="round" stroke-opacity="1.0" stroke-width="3.0" />
            <path d=" M 901.283, 1015.956 901.325, 1015.700 902.001, 1011.568 903.589, 1006.986 905.675, 1001.858 905.145, 998.971 905.455, 994.810 905.226, 994.203 " fill="none" stroke="rgb(0, 0, 0)" stroke-linecap="butt" stroke-linejoin="round" stroke-opacity="1.0" stroke-width="3.0" />
            <path d=" M 856.294, 652.327 857.398, 654.107 860.339, 655.276 860.369, 655.288 860.479, 655.332 860.635, 655.637 860.708, 655.780 862.075, 658.453 864.831, 662.170 867.531, 665.192 869.283, 666.742 871.864, 667.586 " fill="none" stroke="rgb(0, 0, 0)" stroke-linecap="butt" stroke-linejoin="round" stroke-opacity="1.0" stroke-width="3.0" />
            <path d=" M 934.937, 1036.905 935.443, 1031.713 936.026, 1028.719 936.830, 1024.716 939.878, 1020.397 939.931, 1020.322 940.900, 1018.949 941.729, 1015.943 941.775, 1015.775 " fill="none" stroke="rgb(0, 0, 0)" stroke-linecap="butt" stroke-linejoin="round" stroke-opacity="1.0" stroke-width="3.0" />
            <path d=" M 751.396, 554.882 751.655, 558.125 749.369, 567.301 748.991, 569.139 749.177, 570.493 749.833, 575.250 749.998, 576.451 750.053, 576.850 750.102, 577.204 " fill="none" stroke="rgb(0, 0, 0)" stroke-linecap="butt" stroke-linejoin="round" stroke-opacity="1.0" stroke-width="3.0" />
            <path d=" M 788.802, 637.878 789.228, 638.831 789.911, 640.358 790.611, 641.574 790.886, 642.053 792.345, 644.589 793.702, 649.707 794.752, 652.779 794.753, 652.784 794.921, 653.273 795.050, 653.651 795.406, 654.609 796.701, 658.096 796.718, 658.143 797.033, 658.990 " fill="none" stroke="rgb(0, 0, 0)" stroke-linecap="butt" stroke-linejoin="round" stroke-opacity="1.0" stroke-width="3.0" />
            <path d=" M 799.975, 661.262 802.996, 653.203 804.733, 649.631 804.813, 649.467 805.107, 648.866 806.100, 646.834 806.411, 646.199 807.030, 644.934 807.085, 644.821 807.599, 643.771 807.624, 643.719 808.209, 641.946 808.288, 641.708 808.757, 640.286 " fill="none" stroke="rgb(0, 0, 0)" stroke-linecap="butt" stroke-linejoin="round" stroke-opacity="1.0" stroke-width="3.0" />
            <path d=" M 893.742, 838.418 892.750, 838.902 889.436, 842.335 887.659, 848.070 886.489, 855.492 885.649, 857.312 885.255, 858.166 885.106, 858.489 884.930, 858.869 " fill="none" stroke="rgb(0, 0, 0)" stroke-linecap="butt" stroke-linejoin="round" stroke-opacity="1.0" stroke-width="3.0" />
            <path d=" M 703.333, 627.142 703.154, 627.528 703.149, 627.540 703.040, 627.776 701.054, 632.061 702.402, 635.123 706.327, 637.180 709.857, 639.423 714.361, 637.395 714.379, 637.387 715.036, 637.091 715.109, 637.058 715.237, 637.000 " fill="none" stroke="rgb(0, 0, 0)" stroke-linecap="butt" stroke-linejoin="round" stroke-opacity="1.0" stroke-width="3.0" />
            <path d=" M 828.683, 1045.957 833.855, 1044.928 837.548, 1042.794 840.247, 1040.993 845.163, 1037.715 849.785, 1036.700 " fill="none" stroke="rgb(0, 0, 0)" stroke-linecap="butt" stroke-linejoin="round" stroke-opacity="1.0" stroke-width="3.0" />
            <path d=" M 742.255, 735.196 742.057, 736.953 740.944, 740.009 740.437, 741.505 739.040, 746.458 737.713, 750.570 735.362, 754.710 734.762, 757.237 " fill="none" stroke="rgb(0, 0, 0)" stroke-linecap="butt" stroke-linejoin="round" stroke-opacity="1.0" stroke-width="3.0" />
            <path d=" M 569.352, 675.091 569.329, 675.019 568.661, 672.973 568.116, 671.305 567.628, 669.812 567.625, 669.802 567.642, 665.422 567.651, 663.340 566.282, 659.615 562.216, 655.524 560.770, 654.685 " fill="none" stroke="rgb(0, 0, 0)" stroke-linecap="butt" stroke-linejoin="round" stroke-opacity="1.0" stroke-width="3.0" />
            <path d=" M 716.827, 637.070 719.128, 640.148 722.568, 643.449 723.716, 645.814 727.187, 652.535 728.990, 656.009 729.708, 656.505 729.712, 656.508 " fill="none" stroke="rgb(0, 0, 0)" stroke-linecap="butt" stroke-linejoin="round" stroke-opacity="1.0" stroke-width="3.0" />
            <path d=" M 759.889, 520.235 760.252, 521.177 758.302, 522.506 758.041, 522.685 755.229, 524.158 753.655, 526.117 750.981, 528.086 751.226, 531.493 753.870, 537.256 753.885, 537.287 754.239, 538.060 754.428, 538.473 " fill="none" stroke="rgb(0, 0, 0)" stroke-linecap="butt" stroke-linejoin="round" stroke-opacity="1.0" stroke-width="3.0" />
            <path d=" M 1004.860, 902.022 1005.227, 897.584 1005.512, 893.559 1005.787, 889.664 1005.849, 888.796 1005.844, 888.740 1005.520, 884.897 1005.471, 884.318 1005.435, 883.555 1005.184, 878.285 " fill="none" stroke="rgb(0, 0, 0)" stroke-linecap="butt" stroke-linejoin="round" stroke-opacity="1.0" stroke-width="3.0" />
            <path d=" M 779.319, 597.287 779.445, 597.639 780.245, 599.882 780.277, 599.973 780.904, 601.355 781.123, 601.837 781.695, 603.100 782.254, 604.331 782.805, 607.142 782.818, 607.213 782.824, 607.242 782.869, 607.472 782.884, 607.548 782.889, 607.574 782.965, 607.961 783.821, 609.978 783.871, 610.096 784.235, 610.954 784.591, 611.792 784.717, 612.089 785.052, 612.878 785.215, 613.261 785.307, 613.479 785.334, 613.542 785.418, 613.739 785.470, 613.863 785.534, 614.013 785.551, 614.052 785.844, 616.337 785.925, 616.971 786.019, 617.706 787.270, 619.547 " fill="none" stroke="rgb(0, 0, 0)" stroke-linecap="butt" stroke-linejoin="round" stroke-opacity="1.0" stroke-width="3.0" />
            <path d=" M 715.821, 473.549 714.142, 473.905 713.322, 475.996 715.246, 479.521 716.435, 481.966 719.045, 486.024 720.328, 488.895 720.699, 489.727 720.981, 490.358 721.635, 491.823 721.722, 493.876 " fill="none" stroke="rgb(0, 0, 0)" stroke-linecap="butt" stroke-linejoin="round" stroke-opacity="1.0" stroke-width="3.0" />
            <path d=" M 928.334, 1050.770 930.129, 1045.079 929.889, 1037.454 930.648, 1033.049 929.878, 1029.899 930.721, 1027.218 " fill="none" stroke="rgb(0, 0, 0)" stroke-linecap="butt" stroke-linejoin="round" stroke-opacity="1.0" stroke-width="3.0" />
            <path d=" M 1002.543, 921.212 1002.801, 920.422 1003.179, 919.262 1004.959, 913.806 1004.802, 911.130 1004.554, 906.910 1004.549, 906.816 1004.461, 905.312 1004.449, 905.108 1004.619, 903.831 1004.860, 902.022 1004.765, 903.550 1004.692, 904.719 1004.564, 906.760 1004.554, 906.910 " fill="none" stroke="rgb(0, 0, 0)" stroke-linecap="butt" stroke-linejoin="round" stroke-opacity="1.0" stroke-width="3.0" />
            <path d=" M 763.020, 587.754 762.986, 588.062 762.983, 588.090 762.918, 588.686 762.857, 589.248 762.519, 592.354 762.087, 592.757 761.383, 593.414 760.710, 594.259 760.590, 594.410 760.432, 594.607 759.434, 595.860 759.752, 597.205 760.116, 598.737 760.205, 598.823 765.795, 604.180 768.009, 604.460 770.287, 604.748 " fill="none" stroke="rgb(0, 0, 0)" stroke-linecap="butt" stroke-linejoin="round" stroke-opacity="1.0" stroke-width="3.0" />
            <path d=" M 549.136, 621.435 550.305, 619.029 551.163, 617.264 551.439, 615.415 551.380, 613.865 550.614, 612.831 547.965, 610.870 544.443, 610.563 543.950, 610.520 543.644, 610.066 541.031, 606.185 540.972, 606.097 540.914, 606.002 540.571, 605.437 540.482, 605.290 539.416, 603.533 " fill="none" stroke="rgb(0, 0, 0)" stroke-linecap="butt" stroke-linejoin="round" stroke-opacity="1.0" stroke-width="3.0" />
            <path d=" M 621.558, 752.126 622.661, 749.216 626.692, 745.866 629.147, 742.817 629.614, 739.829 625.665, 736.125 624.609, 732.656 624.396, 731.957 " fill="none" stroke="rgb(0, 0, 0)" stroke-linecap="butt" stroke-linejoin="round" stroke-opacity="1.0" stroke-width="3.0" />
            <path d=" M 716.639, 639.844 717.360, 645.669 717.813, 649.131 718.997, 650.716 721.035, 653.329 724.357, 656.335 728.024, 658.937 729.206, 659.775 " fill="none" stroke="rgb(0, 0, 0)" stroke-linecap="butt" stroke-linejoin="round" stroke-opacity="1.0" stroke-width="3.0" />
            <path d=" M 844.431, 944.694 846.907, 944.806 847.052, 944.812 851.764, 945.025 855.243, 946.974 858.993, 950.321 861.415, 953.394 863.344, 958.042 " fill="none" stroke="rgb(0, 0, 0)" stroke-linecap="butt" stroke-linejoin="round" stroke-opacity="1.0" stroke-width="3.0" />
            <path d=" M 566.838, 719.361 566.744, 718.610 566.738, 718.557 566.442, 716.182 566.333, 715.305 566.213, 714.344 561.026, 706.296 557.509, 701.005 555.069, 696.941 554.838, 696.558 " fill="none" stroke="rgb(0, 0, 0)" stroke-linecap="butt" stroke-linejoin="round" stroke-opacity="1.0" stroke-width="3.0" />
            <path d=" M 844.049, 777.496 839.492, 778.980 839.229, 779.065 838.495, 778.944 832.170, 777.903 827.548, 774.958 827.335, 774.823 822.005, 768.359 " fill="none" stroke="rgb(0, 0, 0)" stroke-linecap="butt" stroke-linejoin="round" stroke-opacity="1.0" stroke-width="3.0" />
            <path d=" M 749.420, 649.384 749.392, 649.802 749.284, 651.448 749.044, 655.087 749.009, 655.606 747.960, 659.453 748.730, 669.030 749.374, 672.084 750.197, 675.987 " fill="none" stroke="rgb(0, 0, 0)" stroke-linecap="butt" stroke-linejoin="round" stroke-opacity="1.0" stroke-width="3.0" />
            <path d=" M 394.601, 441.455 393.785, 443.038 393.146, 451.831 393.211, 456.747 393.211, 456.765 393.211, 456.797 393.285, 462.396 393.224, 469.114 " fill="none" stroke="rgb(0, 0, 0)" stroke-linecap="butt" stroke-linejoin="round" stroke-opacity="1.0" stroke-width="3.0" />
            <path d=" M 778.869, 848.169 782.281, 845.968 791.416, 841.900 791.905, 841.682 792.934, 840.411 795.455, 839.650 798.972, 837.293 799.609, 836.550 802.175, 834.838 802.951, 834.321 " fill="none" stroke="rgb(0, 0, 0)" stroke-linecap="butt" stroke-linejoin="round" stroke-opacity="1.0" stroke-width="3.0" />
            <path d=" M 728.200, 981.256 736.693, 983.078 743.271, 982.947 746.826, 982.548 751.919, 982.066 756.246, 981.657 " fill="none" stroke="rgb(0, 0, 0)" stroke-linecap="butt" stroke-linejoin="round" stroke-opacity="1.0" stroke-width="3.0" />
            <path d=" M 472.251, 893.284 472.634, 895.074 472.879, 896.104 475.341, 899.229 478.341, 903.731 481.229, 905.996 486.897, 910.652 489.424, 912.048 491.526, 913.208 " fill="none" stroke="rgb(0, 0, 0)" stroke-linecap="butt" stroke-linejoin="round" stroke-opacity="1.0" stroke-width="3.0" />
            <path d=" M 830.776, 965.650 834.657, 966.353 835.658, 967.721 837.838, 968.905 838.309, 966.976 836.947, 964.738 839.001, 958.898 838.730, 955.386 837.286, 952.338 836.068, 949.769 " fill="none" stroke="rgb(0, 0, 0)" stroke-linecap="butt" stroke-linejoin="round" stroke-opacity="1.0" stroke-width="3.0" />
            <path d=" M 780.045, 641.655 780.102, 645.578 780.199, 649.938 780.222, 650.976 780.182, 653.256 780.143, 655.536 780.771, 661.078 781.134, 664.282 781.241, 665.224 781.355, 666.231 781.590, 667.448 781.612, 667.562 781.723, 668.139 781.738, 668.216 781.987, 669.506 782.155, 670.380 " fill="none" stroke="rgb(0, 0, 0)" stroke-linecap="butt" stroke-linejoin="round" stroke-opacity="1.0" stroke-width="3.0" />
            <path d=" M 624.609, 732.656 624.783, 728.022 623.479, 725.383 619.253, 723.990 616.235, 724.461 612.197, 724.162 604.798, 726.948 603.136, 727.995 " fill="none" stroke="rgb(0, 0, 0)" stroke-linecap="butt" stroke-linejoin="round" stroke-opacity="1.0" stroke-width="3.0" />
            <path d=" M 767.953, 292.702 771.920, 301.882 772.769, 303.846 774.550, 308.157 776.664, 313.216 777.777, 316.033 778.328, 317.430 779.134, 319.469 779.150, 319.510 779.210, 319.662 " fill="none" stroke="rgb(0, 0, 0)" stroke-linecap="butt" stroke-linejoin="round" stroke-opacity="1.0" stroke-width="3.0" />
            <path d=" M 626.963, 944.227 627.515, 944.070 630.061, 943.347 636.168, 944.253 645.705, 947.284 650.397, 949.229 651.768, 950.386 654.366, 952.580 " fill="none" stroke="rgb(0, 0, 0)" stroke-linecap="butt" stroke-linejoin="round" stroke-opacity="1.0" stroke-width="3.0" />
            <path d=" M 432.690, 361.856 432.213, 362.224 430.431, 363.602 429.128, 364.609 429.075, 364.650 428.369, 365.195 428.347, 365.308 428.344, 365.323 428.219, 365.962 428.115, 366.491 427.989, 368.054 427.478, 374.421 427.135, 375.052 426.337, 376.516 423.827, 381.122 421.840, 382.804 421.630, 382.982 421.561, 383.012 417.265, 384.889 " fill="none" stroke="rgb(0, 0, 0)" stroke-linecap="butt" stroke-linejoin="round" stroke-opacity="1.0" stroke-width="3.0" />
            <path d=" M 874.391, 1025.202 882.007, 1028.458 887.314, 1030.320 889.273, 1031.449 890.144, 1031.735 893.349, 1032.788 897.217, 1033.551 900.914, 1035.025 901.012, 1035.064 901.715, 1035.345 902.428, 1035.837 " fill="none" stroke="rgb(0, 0, 0)" stroke-linecap="butt" stroke-linejoin="round" stroke-opacity="1.0" stroke-width="3.0" />
            <path d=" M 407.742, 620.622 410.003, 630.363 411.059, 634.911 412.781, 643.461 414.053, 648.122 414.574, 650.029 " fill="none" stroke="rgb(0, 0, 0)" stroke-linecap="butt" stroke-linejoin="round" stroke-opacity="1.0" stroke-width="3.0" />
            <path d=" M 489.424, 912.048 491.812, 914.022 496.606, 914.873 499.124, 916.421 503.157, 917.804 505.942, 919.767 508.665, 920.918 511.717, 921.933 514.311, 922.571 517.077, 922.819 517.084, 922.817 " fill="none" stroke="rgb(0, 0, 0)" stroke-linecap="butt" stroke-linejoin="round" stroke-opacity="1.0" stroke-width="3.0" />
            <path d=" M 999.995, 835.338 1000.139, 831.320 1000.279, 827.949 999.772, 823.544 999.600, 814.598 1000.269, 805.109 " fill="none" stroke="rgb(0, 0, 0)" stroke-linecap="butt" stroke-linejoin="round" stroke-opacity="1.0" stroke-width="3.0" />
            <path d=" M 849.453, 1022.626 849.965, 1022.656 852.224, 1022.700 852.712, 1022.710 853.274, 1022.721 854.417, 1022.653 858.350, 1022.419 858.654, 1022.322 858.810, 1022.272 861.762, 1021.328 861.776, 1021.323 863.697, 1020.708 864.203, 1020.753 869.727, 1021.243 873.012, 1021.582 873.677, 1021.599 875.529, 1021.648 875.663, 1021.651 876.761, 1021.680 878.585, 1021.727 879.898, 1021.761 " fill="none" stroke="rgb(0, 0, 0)" stroke-linecap="butt" stroke-linejoin="round" stroke-opacity="1.0" stroke-width="3.0" />
            <path d=" M 758.524, 377.798 758.178, 378.640 757.368, 380.606 758.152, 382.359 760.029, 385.027 764.651, 387.428 770.659, 391.559 775.981, 392.794 778.268, 394.280 780.053, 395.440 " fill="none" stroke="rgb(0, 0, 0)" stroke-linecap="butt" stroke-linejoin="round" stroke-opacity="1.0" stroke-width="3.0" />
            <path d=" M 866.974, 680.925 870.116, 683.776 871.887, 685.384 876.821, 689.758 881.014, 693.674 881.031, 693.690 881.089, 693.745 882.135, 694.722 885.653, 698.793 889.338, 703.056 " fill="none" stroke="rgb(0, 0, 0)" stroke-linecap="butt" stroke-linejoin="round" stroke-opacity="1.0" stroke-width="3.0" />
            <path d=" M 776.317, 265.284 774.451, 263.865 773.762, 263.342 773.594, 263.214 768.869, 259.624 761.890, 256.446 759.743, 255.695 758.020, 255.682 750.790, 255.627 748.638, 258.304 " fill="none" stroke="rgb(0, 0, 0)" stroke-linecap="butt" stroke-linejoin="round" stroke-opacity="1.0" stroke-width="3.0" />
            <path d=" M 873.857, 1034.817 874.407, 1034.854 877.389, 1035.052 882.060, 1035.362 888.471, 1035.866 895.234, 1037.882 899.259, 1039.388 901.970, 1040.056 905.040, 1040.813 " fill="none" stroke="rgb(0, 0, 0)" stroke-linecap="butt" stroke-linejoin="round" stroke-opacity="1.0" stroke-width="3.0" />
            <path d=" M 1003.379, 864.330 1003.284, 863.983 1003.269, 863.930 1002.161, 859.896 1001.466, 857.370 1001.336, 851.078 1000.097, 844.859 1000.094, 844.034 1000.078, 839.209 999.742, 835.722 999.737, 835.674 999.451, 832.701 " fill="none" stroke="rgb(0, 0, 0)" stroke-linecap="butt" stroke-linejoin="round" stroke-opacity="1.0" stroke-width="3.0" />
            <path d=" M 690.960, 539.519 690.227, 539.954 687.245, 541.724 686.651, 544.248 687.361, 547.923 689.462, 550.439 690.341, 553.032 689.469, 556.301 685.946, 560.726 689.130, 563.250 689.330, 564.178 689.687, 565.831 " fill="none" stroke="rgb(0, 0, 0)" stroke-linecap="butt" stroke-linejoin="round" stroke-opacity="1.0" stroke-width="3.0" />
            <path d=" M 938.428, 1033.231 939.394, 1029.886 939.372, 1027.231 940.364, 1024.912 941.818, 1021.913 943.149, 1018.970 944.345, 1016.676 947.102, 1013.331 950.441, 1011.208 953.041, 1008.438 954.070, 1005.968 954.101, 1005.888 " fill="none" stroke="rgb(0, 0, 0)" stroke-linecap="butt" stroke-linejoin="round" stroke-opacity="1.0" stroke-width="3.0" />
            <path d=" M 885.649, 857.312 879.644, 856.262 874.498, 853.910 866.401, 848.042 864.077, 846.357 860.639, 843.835 857.880, 840.904 " fill="none" stroke="rgb(0, 0, 0)" stroke-linecap="butt" stroke-linejoin="round" stroke-opacity="1.0" stroke-width="3.0" />
            <path d=" M 885.653, 698.793 891.592, 706.839 893.393, 709.279 895.606, 713.445 898.820, 720.843 902.007, 727.709 " fill="none" stroke="rgb(0, 0, 0)" stroke-linecap="butt" stroke-linejoin="round" stroke-opacity="1.0" stroke-width="3.0" />
            <path d=" M 494.769, 570.911 493.171, 570.086 491.326, 569.133 490.753, 567.361 490.399, 566.266 491.936, 563.741 495.868, 561.722 499.273, 558.986 502.353, 553.343 505.083, 548.806 506.188, 546.536 506.459, 545.980 " fill="none" stroke="rgb(0, 0, 0)" stroke-linecap="butt" stroke-linejoin="round" stroke-opacity="1.0" stroke-width="3.0" />
            <path d=" M 1004.606, 782.991 1006.360, 780.107 1006.630, 779.261 1006.976, 776.001 1006.138, 773.251 1005.744, 771.407 1004.178, 766.965 1003.151, 763.833 1002.852, 762.978 1003.202, 758.160 1001.701, 755.155 1001.525, 750.998 1001.519, 750.929 " fill="none" stroke="rgb(0, 0, 0)" stroke-linecap="butt" stroke-linejoin="round" stroke-opacity="1.0" stroke-width="3.0" />
            <path d=" M 812.483, 860.192 807.311, 860.819 807.110, 860.843 806.759, 860.885 806.223, 860.950 805.682, 861.016 803.341, 861.644 803.443, 861.569 807.700, 858.428 807.731, 858.406 807.778, 858.371 807.804, 858.352 807.867, 858.306 807.897, 858.310 811.074, 858.791 812.975, 857.923 816.953, 859.580 820.671, 858.263 822.205, 857.199 823.616, 856.220 823.685, 856.172 824.286, 852.421 " fill="none" stroke="rgb(0, 0, 0)" stroke-linecap="butt" stroke-linejoin="round" stroke-opacity="1.0" stroke-width="3.0" />
            <path d=" M 826.777, 989.365 830.415, 990.545 832.451, 991.206 832.954, 991.369 833.886, 991.672 834.694, 991.934 835.282, 992.125 840.370, 994.154 842.887, 995.157 846.653, 995.158 847.773, 995.159 849.723, 994.787 851.183, 994.508 853.892, 993.991 856.384, 994.371 861.651, 995.175 " fill="none" stroke="rgb(0, 0, 0)" stroke-linecap="butt" stroke-linejoin="round" stroke-opacity="1.0" stroke-width="3.0" />
            <path d=" M 1002.574, 854.985 1002.582, 851.029 1001.316, 844.041 1000.977, 838.445 999.995, 835.338 999.933, 835.142 999.811, 834.523 999.451, 832.701 999.003, 829.022 998.868, 827.909 998.243, 822.775 998.107, 819.189 " fill="none" stroke="rgb(0, 0, 0)" stroke-linecap="butt" stroke-linejoin="round" stroke-opacity="1.0" stroke-width="3.0" />
            <path d=" M 753.928, 544.447 753.411, 545.184 752.655, 546.261 752.113, 547.033 750.969, 548.662 750.703, 553.457 751.396, 554.882 751.401, 554.893 751.986, 556.097 752.440, 557.031 754.449, 559.766 756.146, 562.473 758.446, 563.081 765.578, 562.349 772.142, 561.903 " fill="none" stroke="rgb(0, 0, 0)" stroke-linecap="butt" stroke-linejoin="round" stroke-opacity="1.0" stroke-width="3.0" />
            <path d=" M 659.836, 754.826 656.676, 754.409 653.349, 754.051 647.512, 753.395 645.079, 753.352 637.433, 753.192 634.229, 753.059 628.922, 753.360 627.136, 753.461 623.277, 753.577 " fill="none" stroke="rgb(0, 0, 0)" stroke-linecap="butt" stroke-linejoin="round" stroke-opacity="1.0" stroke-width="3.0" />
            <path d=" M 875.408, 672.621 876.212, 673.300 878.493, 675.228 880.642, 678.008 881.509, 679.039 881.669, 679.230 883.757, 681.713 887.300, 683.226 887.753, 683.571 891.141, 686.153 895.781, 690.197 897.696, 691.938 898.405, 692.583 902.258, 697.415 " fill="none" stroke="rgb(0, 0, 0)" stroke-linecap="butt" stroke-linejoin="round" stroke-opacity="1.0" stroke-width="3.0" />
            <path d=" M 750.788, 456.616 751.163, 456.783 751.939, 457.128 756.577, 459.191 758.988, 459.862 762.168, 461.585 764.745, 463.996 765.707, 463.419 766.855, 465.851 768.483, 467.044 770.414, 469.587 774.318, 475.256 774.741, 475.870 776.638, 480.796 " fill="none" stroke="rgb(0, 0, 0)" stroke-linecap="butt" stroke-linejoin="round" stroke-opacity="1.0" stroke-width="3.0" />
            <path d=" M 463.433, 420.471 468.618, 417.512 473.793, 416.011 481.379, 414.495 485.400, 413.328 485.775, 412.730 485.961, 410.409 480.432, 407.122 475.517, 405.288 " fill="none" stroke="rgb(0, 0, 0)" stroke-linecap="butt" stroke-linejoin="round" stroke-opacity="1.0" stroke-width="3.0" />
            <path d=" M 527.219, 586.689 528.703, 584.606 531.440, 580.773 534.208, 577.161 535.440, 574.463 535.052, 571.108 533.116, 569.887 529.454, 569.210 519.510, 568.154 518.791, 568.077 515.999, 568.175 515.070, 568.208 " fill="none" stroke="rgb(0, 0, 0)" stroke-linecap="butt" stroke-linejoin="round" stroke-opacity="1.0" stroke-width="3.0" />
            <path d=" M 830.442, 874.329 830.332, 874.433 828.457, 876.199 828.423, 876.230 827.851, 876.770 827.736, 876.791 821.706, 877.905 812.350, 881.436 812.013, 881.563 809.964, 885.043 810.435, 888.756 810.679, 889.664 814.627, 893.929 817.918, 896.288 " fill="none" stroke="rgb(0, 0, 0)" stroke-linecap="butt" stroke-linejoin="round" stroke-opacity="1.0" stroke-width="3.0" />
            <path d=" M 651.768, 950.386 657.684, 957.087 662.516, 963.552 670.421, 969.677 671.127, 970.224 677.392, 973.991 680.371, 976.580 " fill="none" stroke="rgb(0, 0, 0)" stroke-linecap="butt" stroke-linejoin="round" stroke-opacity="1.0" stroke-width="3.0" />
            <path d=" M 803.341, 861.644 800.226, 863.079 799.462, 863.431 799.277, 863.516 798.587, 863.834 797.577, 864.299 793.794, 866.041 791.076, 867.293 785.794, 870.161 780.839, 873.624 773.449, 879.103 769.834, 882.514 " fill="none" stroke="rgb(0, 0, 0)" stroke-linecap="butt" stroke-linejoin="round" stroke-opacity="1.0" stroke-width="3.0" />
            <path d=" M 1002.158, 742.986 1003.018, 741.733 1004.551, 739.502 1004.406, 737.222 1002.871, 732.981 1002.290, 729.963 1001.648, 725.638 1000.225, 721.361 998.300, 715.391 998.559, 711.041 995.911, 705.962 995.490, 705.154 " fill="none" stroke="rgb(0, 0, 0)" stroke-linecap="butt" stroke-linejoin="round" stroke-opacity="1.0" stroke-width="3.0" />
            <path d=" M 954.403, 1004.357 954.917, 1003.738 954.969, 1003.675 956.372, 1002.624 958.354, 1001.139 961.976, 997.403 967.203, 991.129 970.686, 986.875 974.918, 982.216 979.601, 977.602 981.358, 974.506 " fill="none" stroke="rgb(0, 0, 0)" stroke-linecap="butt" stroke-linejoin="round" stroke-opacity="1.0" stroke-width="3.0" />
            <path d=" M 713.432, 618.628 713.375, 618.968 712.599, 623.643 712.542, 623.986 712.450, 624.544 712.377, 624.982 711.966, 626.158 711.522, 627.426 709.810, 632.838 710.745, 635.141 711.030, 635.844 713.954, 636.885 714.114, 636.942 714.144, 636.952 714.207, 636.955 714.272, 636.958 714.977, 636.989 715.067, 636.993 715.237, 637.000 716.827, 637.070 719.230, 637.176 723.129, 636.381 723.713, 636.262 724.774, 635.817 725.815, 635.380 725.843, 635.368 725.847, 635.367 726.637, 635.035 726.818, 634.960 726.978, 634.892 729.430, 633.864 733.027, 633.425 " fill="none" stroke="rgb(0, 0, 0)" stroke-linecap="butt" stroke-linejoin="round" stroke-opacity="1.0" stroke-width="3.0" />
            <path d=" M 746.560, 293.976 745.756, 294.974 744.247, 295.050 738.839, 293.785 732.173, 294.357 729.096, 295.400 724.076, 299.559 723.846, 302.788 726.540, 306.036 729.925, 306.935 734.954, 307.839 " fill="none" stroke="rgb(0, 0, 0)" stroke-linecap="butt" stroke-linejoin="round" stroke-opacity="1.0" stroke-width="3.0" />
            <path d=" M 810.926, 1048.863 812.298, 1048.529 812.882, 1048.167 812.957, 1048.121 816.667, 1045.824 816.918, 1045.678 818.116, 1044.985 822.801, 1042.274 829.568, 1037.811 837.197, 1031.346 838.521, 1030.225 842.582, 1025.225 842.513, 1024.193 " fill="none" stroke="rgb(0, 0, 0)" stroke-linecap="butt" stroke-linejoin="round" stroke-opacity="1.0" stroke-width="3.0" />
            <path d=" M 834.240, 906.385 841.645, 910.224 846.489, 913.678 848.853, 915.363 856.524, 920.878 862.239, 925.982 863.210, 926.354 863.246, 926.368 868.672, 928.447 " fill="none" stroke="rgb(0, 0, 0)" stroke-linecap="butt" stroke-linejoin="round" stroke-opacity="1.0" stroke-width="3.0" />
            <path d=" M 826.409, 777.619 826.112, 777.285 825.746, 776.875 825.606, 776.717 822.368, 773.085 818.314, 770.174 818.000, 769.950 816.767, 768.883 816.591, 768.731 816.454, 768.613 815.783, 768.033 814.115, 766.849 810.394, 765.182 807.241, 764.316 805.051, 763.715 804.502, 763.564 803.792, 763.369 802.479, 762.664 801.248, 762.004 796.735, 760.892 790.263, 760.388 " fill="none" stroke="rgb(0, 0, 0)" stroke-linecap="butt" stroke-linejoin="round" stroke-opacity="1.0" stroke-width="3.0" />
            <path d=" M 693.041, 595.844 692.365, 597.153 690.238, 601.266 692.389, 604.064 695.733, 607.487 698.116, 608.204 700.049, 608.687 700.134, 610.382 699.072, 612.314 697.728, 615.050 696.277, 618.116 696.881, 620.547 700.938, 624.213 701.985, 625.159 702.629, 626.756 703.040, 627.776 " fill="none" stroke="rgb(0, 0, 0)" stroke-linecap="butt" stroke-linejoin="round" stroke-opacity="1.0" stroke-width="3.0" />
            <path d=" M 818.677, 729.791 818.661, 729.346 818.561, 726.541 817.742, 723.136 817.052, 713.160 816.668, 707.610 816.937, 717.607 817.042, 721.490 817.045, 721.631 816.575, 724.431 816.435, 725.261 816.410, 725.409 816.278, 726.200 816.149, 726.967 " fill="none" stroke="rgb(0, 0, 0)" stroke-linecap="butt" stroke-linejoin="round" stroke-opacity="1.0" stroke-width="3.0" />
            <path d=" M 738.694, 266.650 737.775, 266.872 737.089, 268.807 735.988, 271.686 735.372, 275.184 738.887, 280.272 744.780, 284.783 747.465, 287.849 746.667, 289.769 746.451, 293.397 746.560, 293.976 746.939, 295.978 748.083, 302.023 " fill="none" stroke="rgb(0, 0, 0)" stroke-linecap="butt" stroke-linejoin="round" stroke-opacity="1.0" stroke-width="3.0" />
            <path d=" M 432.213, 362.224 429.225, 359.432 427.095, 356.889 424.010, 357.442 421.762, 360.640 420.075, 365.670 419.570, 367.960 418.801, 373.065 415.055, 380.162 413.204, 382.683 411.508, 385.923 " fill="none" stroke="rgb(0, 0, 0)" stroke-linecap="butt" stroke-linejoin="round" stroke-opacity="1.0" stroke-width="3.0" />
            <path d=" M 816.546, 1025.644 817.329, 1025.605 817.913, 1025.575 818.089, 1025.566 818.472, 1025.547 820.983, 1025.421 821.908, 1025.379 829.436, 1025.035 832.277, 1025.015 837.410, 1024.980 840.678, 1024.522 840.994, 1024.478 841.379, 1024.424 841.684, 1024.362 842.513, 1024.193 847.947, 1023.087 849.453, 1022.626 851.791, 1021.909 852.222, 1021.777 853.744, 1021.311 857.430, 1020.181 857.876, 1020.045 858.313, 1019.911 " fill="none" stroke="rgb(0, 0, 0)" stroke-linecap="butt" stroke-linejoin="round" stroke-opacity="1.0" stroke-width="3.0" />
            <path d=" M 414.053, 648.122 415.089, 653.406 417.838, 663.020 420.442, 672.125 422.892, 681.820 424.276, 687.295 425.112, 689.184 " fill="none" stroke="rgb(0, 0, 0)" stroke-linecap="butt" stroke-linejoin="round" stroke-opacity="1.0" stroke-width="3.0" />
            <path d=" M 774.196, 566.282 773.860, 566.344 773.845, 566.347 771.133, 566.849 770.761, 566.924 767.069, 567.671 764.852, 567.899 762.053, 568.187 757.621, 571.137 756.418, 574.545 756.107, 576.021 756.686, 580.126 757.302, 581.201 758.932, 584.040 759.271, 584.544 759.873, 585.439 759.876, 585.444 760.101, 585.778 760.270, 586.030 760.488, 586.283 760.493, 586.289 761.006, 586.885 762.219, 588.294 760.585, 591.916 760.357, 593.563 760.320, 593.831 760.261, 594.257 760.432, 594.607 " fill="none" stroke="rgb(0, 0, 0)" stroke-linecap="butt" stroke-linejoin="round" stroke-opacity="1.0" stroke-width="3.0" />
            <path d=" M 758.881, 977.220 760.077, 978.851 761.009, 980.121 761.339, 980.570 761.439, 980.706 762.602, 982.292 764.432, 984.786 766.681, 987.851 766.814, 988.031 770.576, 991.123 771.395, 991.959 774.153, 994.771 777.594, 998.279 778.604, 999.309 781.043, 1001.074 781.419, 1001.331 783.241, 1002.575 784.503, 1003.437 785.592, 1004.181 787.836, 1004.434 791.169, 1004.809 " fill="none" stroke="rgb(0, 0, 0)" stroke-linecap="butt" stroke-linejoin="round" stroke-opacity="1.0" stroke-width="3.0" />
            <path d=" M 851.183, 994.508 853.836, 994.969 857.603, 998.634 859.602, 1002.091 862.290, 1004.283 862.739, 1004.697 865.845, 1007.567 865.938, 1007.652 866.598, 1008.262 867.963, 1009.915 868.292, 1010.314 868.483, 1010.544 869.456, 1011.724 873.784, 1015.873 877.948, 1018.191 880.771, 1020.180 883.174, 1020.561 883.473, 1020.608 884.814, 1020.820 " fill="none" stroke="rgb(0, 0, 0)" stroke-linecap="butt" stroke-linejoin="round" stroke-opacity="1.0" stroke-width="3.0" />
            <path d=" M 815.217, 762.116 818.182, 759.855 818.293, 759.702 818.931, 758.818 819.245, 758.383 821.598, 755.128 823.157, 749.187 823.338, 747.864 823.397, 747.428 823.606, 745.895 823.570, 745.535 822.574, 735.585 822.480, 734.647 820.968, 731.687 819.480, 724.501 818.399, 721.534 " fill="none" stroke="rgb(0, 0, 0)" stroke-linecap="butt" stroke-linejoin="round" stroke-opacity="1.0" stroke-width="3.0" />
            <path d=" M 730.576, 399.033 722.846, 397.608 718.336, 398.744 714.478, 400.298 712.496, 404.106 712.590, 404.641 714.683, 407.383 719.015, 409.719 726.898, 414.747 732.094, 415.346 " fill="none" stroke="rgb(0, 0, 0)" stroke-linecap="butt" stroke-linejoin="round" stroke-opacity="1.0" stroke-width="3.0" />
            <path d=" M 957.143, 714.020 958.142, 712.258 957.704, 709.329 956.803, 706.528 954.828, 701.942 954.412, 699.826 953.654, 693.958 952.758, 689.702 951.708, 685.301 950.443, 682.419 950.007, 681.427 948.347, 677.541 945.348, 672.143 " fill="none" stroke="rgb(0, 0, 0)" stroke-linecap="butt" stroke-linejoin="round" stroke-opacity="1.0" stroke-width="3.0" />
            <path d=" M 459.089, 800.071 459.644, 803.137 461.464, 809.463 462.687, 815.186 464.884, 824.942 465.286, 826.726 466.311, 830.965 467.423, 834.409 468.323, 840.372 468.934, 844.424 " fill="none" stroke="rgb(0, 0, 0)" stroke-linecap="butt" stroke-linejoin="round" stroke-opacity="1.0" stroke-width="3.0" />
            <path d=" M 429.249, 702.173 431.256, 709.507 433.124, 716.651 435.393, 724.179 437.228, 727.896 439.521, 736.762 441.785, 743.458 442.761, 746.346 " fill="none" stroke="rgb(0, 0, 0)" stroke-linecap="butt" stroke-linejoin="round" stroke-opacity="1.0" stroke-width="3.0" />
            <path d=" M 778.694, 279.586 777.514, 278.910 777.325, 278.802 777.051, 278.646 776.828, 278.518 776.467, 278.311 775.143, 277.554 775.103, 277.531 774.903, 277.417 774.064, 277.013 774.047, 277.005 771.134, 275.601 765.512, 275.941 764.212, 276.019 760.654, 277.716 760.602, 277.739 757.896, 278.932 755.613, 280.874 755.344, 281.103 755.650, 282.526 756.348, 285.772 757.441, 286.944 760.871, 287.962 763.469, 289.965 767.953, 292.702 770.157, 294.048 770.182, 294.063 770.421, 294.209 " fill="none" stroke="rgb(0, 0, 0)" stroke-linecap="butt" stroke-linejoin="round" stroke-opacity="1.0" stroke-width="3.0" />
            <path d=" M 954.531, 1003.918 954.449, 1003.972 946.757, 1009.053 946.118, 1009.570 944.040, 1011.251 943.838, 1011.415 943.588, 1011.617 943.576, 1011.627 942.652, 1012.374 942.032, 1012.876 941.086, 1013.888 940.528, 1014.485 940.471, 1014.546 939.532, 1015.550 939.275, 1015.825 939.064, 1016.051 938.977, 1016.144 938.892, 1016.235 938.871, 1016.257 938.802, 1016.332 938.628, 1016.467 936.899, 1017.820 938.669, 1016.773 938.758, 1016.720 939.127, 1016.502 940.020, 1015.973 940.279, 1015.819 941.728, 1015.074 942.090, 1014.889 942.209, 1014.827 942.306, 1014.777 942.714, 1014.568 942.732, 1014.558 944.618, 1013.384 947.181, 1011.788 950.241, 1009.223 952.167, 1007.833 953.543, 1006.689 953.957, 1006.094 954.101, 1005.888 956.372, 1002.624 " fill="none" stroke="rgb(0, 0, 0)" stroke-linecap="butt" stroke-linejoin="round" stroke-opacity="1.0" stroke-width="3.0" />
            <path d=" M 714.894, 499.700 711.325, 499.997 709.880, 500.118 706.852, 498.993 702.733, 498.767 698.037, 503.088 694.295, 506.035 687.456, 510.357 686.213, 511.804 687.036, 515.632 690.380, 522.544 691.815, 524.618 691.949, 524.812 " fill="none" stroke="rgb(0, 0, 0)" stroke-linecap="butt" stroke-linejoin="round" stroke-opacity="1.0" stroke-width="3.0" />
            <path d=" M 722.058, 579.495 718.148, 577.244 717.979, 577.147 717.370, 576.895 712.872, 575.038 709.897, 574.958 705.964, 575.105 702.141, 576.198 702.121, 576.204 701.174, 576.474 700.820, 576.576 700.775, 576.589 700.774, 576.589 700.708, 576.608 700.044, 576.789 698.831, 577.120 698.528, 577.203 698.456, 577.223 694.747, 578.235 691.160, 579.441 690.487, 580.481 688.756, 583.378 688.332, 586.581 690.503, 590.308 692.253, 591.905 693.346, 592.903 " fill="none" stroke="rgb(0, 0, 0)" stroke-linecap="butt" stroke-linejoin="round" stroke-opacity="1.0" stroke-width="3.0" />
            <path d=" M 572.073, 950.657 574.844, 950.527 575.684, 950.487 576.232, 950.812 579.716, 952.877 583.618, 952.495 587.904, 952.638 594.486, 952.346 595.845, 952.443 598.338, 951.175 600.733, 949.958 603.403, 949.200 603.710, 949.112 605.692, 948.550 606.361, 948.595 612.723, 949.022 619.435, 948.955 " fill="none" stroke="rgb(0, 0, 0)" stroke-linecap="butt" stroke-linejoin="round" stroke-opacity="1.0" stroke-width="3.0" />
            <path d=" M 731.779, 647.935 731.499, 649.093 730.203, 654.472 729.712, 656.508 729.711, 656.512 729.489, 657.435 729.445, 659.114 729.536, 660.543 729.728, 663.573 730.311, 666.674 730.091, 668.130 730.335, 670.334 732.214, 676.139 733.034, 676.497 734.004, 676.918 735.060, 676.706 738.077, 674.810 738.986, 673.649 739.219, 673.351 741.136, 670.902 741.262, 670.741 742.125, 670.316 742.710, 668.893 742.644, 667.606 742.525, 665.273 742.409, 663.011 " fill="none" stroke="rgb(0, 0, 0)" stroke-linecap="butt" stroke-linejoin="round" stroke-opacity="1.0" stroke-width="3.0" />
            <path d=" M 537.553, 685.284 537.469, 685.002 536.785, 682.725 535.825, 679.524 534.020, 676.889 533.101, 675.548 532.910, 675.217 529.807, 669.845 529.770, 669.781 529.321, 669.003 528.853, 668.193 528.586, 667.731 528.511, 667.375 528.232, 666.052 528.074, 665.306 527.672, 663.402 527.205, 661.545 527.183, 661.457 525.410, 654.399 525.418, 654.299 526.010, 647.396 524.822, 644.336 524.496, 642.980 523.488, 638.776 " fill="none" stroke="rgb(0, 0, 0)" stroke-linecap="butt" stroke-linejoin="round" stroke-opacity="1.0" stroke-width="3.0" />
            <path d=" M 496.753, 497.574 497.333, 494.189 499.431, 493.609 502.651, 491.384 503.642, 489.671 501.770, 488.640 497.992, 487.415 493.943, 487.444 488.252, 488.134 483.255, 488.336 473.902, 490.574 469.911, 490.775 469.526, 490.795 469.263, 490.514 469.240, 490.490 468.114, 489.288 466.738, 487.819 " fill="none" stroke="rgb(0, 0, 0)" stroke-linecap="butt" stroke-linejoin="round" stroke-opacity="1.0" stroke-width="3.0" />
            <path d=" M 776.286, 444.925 775.503, 444.690 770.006, 443.041 764.055, 442.975 756.524, 444.652 751.436, 446.878 742.003, 450.469 740.900, 451.513 740.203, 452.200 740.954, 454.223 747.992, 456.135 751.163, 456.783 " fill="none" stroke="rgb(0, 0, 0)" stroke-linecap="butt" stroke-linejoin="round" stroke-opacity="1.0" stroke-width="3.0" />
            <path d=" M 747.917, 1001.092 744.630, 1006.283 743.592, 1008.801 742.800, 1017.629 742.901, 1018.630 743.490, 1021.844 744.363, 1024.957 748.569, 1032.846 752.486, 1034.562 759.098, 1032.580 763.161, 1029.660 763.985, 1029.156 " fill="none" stroke="rgb(0, 0, 0)" stroke-linecap="butt" stroke-linejoin="round" stroke-opacity="1.0" stroke-width="3.0" />
            <path d=" M 851.963, 331.806 849.380, 328.500 845.916, 324.067 841.619, 320.041 838.636, 317.448 834.771, 313.713 828.374, 309.174 821.544, 302.946 819.917, 301.899 814.043, 297.541 " fill="none" stroke="rgb(0, 0, 0)" stroke-linecap="butt" stroke-linejoin="round" stroke-opacity="1.0" stroke-width="3.0" />
            <path d=" M 815.263, 893.105 816.668, 894.679 816.780, 894.805 818.432, 896.655 819.370, 897.707 821.597, 900.202 822.816, 900.506 826.192, 901.348 827.111, 901.577 834.403, 904.191 839.178, 905.555 841.280, 905.938 850.320, 910.212 850.959, 910.514 860.638, 913.031 861.899, 913.359 " fill="none" stroke="rgb(0, 0, 0)" stroke-linecap="butt" stroke-linejoin="round" stroke-opacity="1.0" stroke-width="3.0" />
            <path d=" M 813.094, 296.508 808.491, 290.675 804.511, 286.275 799.579, 281.232 793.183, 276.051 790.454, 273.993 785.293, 270.965 780.213, 266.097 777.731, 264.346 774.316, 263.482 773.762, 263.342 " fill="none" stroke="rgb(0, 0, 0)" stroke-linecap="butt" stroke-linejoin="round" stroke-opacity="1.0" stroke-width="3.0" />
            <path d=" M 945.590, 673.722 945.348, 672.143 945.029, 670.066 942.626, 666.409 940.931, 663.269 940.328, 662.428 935.580, 653.893 933.100, 650.295 932.659, 649.519 932.645, 649.494 929.924, 644.710 927.831, 641.460 925.858, 638.218 923.893, 634.766 922.997, 633.388 919.673, 628.575 " fill="none" stroke="rgb(0, 0, 0)" stroke-linecap="butt" stroke-linejoin="round" stroke-opacity="1.0" stroke-width="3.0" />
            <path d=" M 781.942, 890.345 775.242, 887.001 771.630, 884.784 769.834, 882.514 767.210, 879.197 766.539, 874.041 766.329, 870.346 766.051, 866.935 767.126, 864.478 768.726, 859.257 774.673, 852.780 777.758, 849.004 " fill="none" stroke="rgb(0, 0, 0)" stroke-linecap="butt" stroke-linejoin="round" stroke-opacity="1.0" stroke-width="3.0" />
            <path d=" M 856.036, 1036.088 866.026, 1035.643 869.692, 1035.479 872.837, 1035.586 880.455, 1035.843 880.646, 1035.850 886.110, 1036.346 893.800, 1037.664 900.632, 1040.274 900.928, 1040.399 906.352, 1042.688 906.462, 1042.763 908.065, 1043.847 " fill="none" stroke="rgb(0, 0, 0)" stroke-linecap="butt" stroke-linejoin="round" stroke-opacity="1.0" stroke-width="3.0" />
            <path d=" M 468.323, 840.372 468.763, 847.509 470.617, 855.334 470.638, 860.428 470.248, 868.611 470.294, 870.799 470.894, 872.802 470.717, 875.717 470.451, 881.879 470.489, 887.915 472.251, 893.284 472.696, 894.642 " fill="none" stroke="rgb(0, 0, 0)" stroke-linecap="butt" stroke-linejoin="round" stroke-opacity="1.0" stroke-width="3.0" />
            <path d=" M 837.274, 822.926 833.874, 826.208 831.164, 831.266 829.618, 836.079 829.540, 836.322 829.519, 836.386 829.444, 836.621 829.354, 836.900 828.685, 838.981 828.256, 842.092 828.648, 851.689 828.837, 854.228 829.042, 856.965 829.205, 861.962 829.193, 862.302 829.168, 862.949 829.034, 866.548 828.935, 867.766 828.556, 872.448 828.516, 873.584 828.452, 875.422 " fill="none" stroke="rgb(0, 0, 0)" stroke-linecap="butt" stroke-linejoin="round" stroke-opacity="1.0" stroke-width="3.0" />
            <path d=" M 1012.591, 835.699 1012.805, 830.354 1012.924, 827.377 1012.140, 823.665 1011.443, 819.729 1009.814, 811.781 1009.031, 806.939 1007.348, 799.046 1007.047, 795.484 1006.018, 790.847 1005.959, 785.885 1006.630, 779.261 " fill="none" stroke="rgb(0, 0, 0)" stroke-linecap="butt" stroke-linejoin="round" stroke-opacity="1.0" stroke-width="3.0" />
            <path d=" M 768.009, 604.460 770.119, 606.102 767.975, 609.339 765.996, 615.005 766.003, 615.216 766.058, 616.896 766.116, 618.666 766.186, 620.779 768.180, 623.600 771.467, 627.109 771.926, 629.310 771.077, 632.977 770.809, 637.715 772.143, 639.364 772.379, 639.655 775.055, 640.795 779.164, 641.933 780.045, 641.655 780.057, 641.651 781.732, 641.125 785.844, 639.249 786.654, 638.879 786.655, 638.879 787.197, 638.631 787.357, 638.647 789.228, 638.831 " fill="none" stroke="rgb(0, 0, 0)" stroke-linecap="butt" stroke-linejoin="round" stroke-opacity="1.0" stroke-width="3.0" />
            <path d=" M 730.897, 971.148 731.571, 971.641 732.451, 972.576 730.897, 971.148 728.765, 969.188 726.523, 967.949 722.666, 965.817 722.210, 965.566 722.071, 965.489 721.454, 965.148 721.221, 965.019 720.573, 964.661 719.454, 964.043 716.036, 961.061 713.521, 960.310 711.450, 958.217 710.286, 956.315 709.658, 955.288 709.456, 954.957 708.668, 953.670 708.586, 953.535 706.369, 947.088 706.137, 939.593 708.460, 934.758 710.959, 930.629 " fill="none" stroke="rgb(0, 0, 0)" stroke-linecap="butt" stroke-linejoin="round" stroke-opacity="1.0" stroke-width="3.0" />
            <path d=" M 606.461, 727.879 603.136, 727.995 599.738, 728.113 599.507, 725.305 602.714, 721.976 602.346, 719.175 601.964, 716.664 600.221, 713.934 597.276, 711.758 593.328, 709.367 590.373, 705.346 589.604, 701.457 589.109, 698.950 587.948, 696.541 584.987, 694.188 584.670, 693.972 584.127, 693.603 583.390, 693.102 576.505, 691.969 " fill="none" stroke="rgb(0, 0, 0)" stroke-linecap="butt" stroke-linejoin="round" stroke-opacity="1.0" stroke-width="3.0" />
            <path d=" M 1004.564, 906.760 1004.763, 906.016 1005.020, 903.876 1005.148, 902.813 1005.602, 899.044 1005.541, 896.625 1005.519, 893.694 1006.211, 890.823 1006.375, 888.879 1006.752, 884.421 1006.547, 882.793 1005.657, 879.630 1005.491, 873.530 1004.431, 869.997 1003.745, 864.637 1003.294, 857.682 1003.698, 853.581 1003.341, 849.222 " fill="none" stroke="rgb(0, 0, 0)" stroke-linecap="butt" stroke-linejoin="round" stroke-opacity="1.0" stroke-width="3.0" />
            <path d=" M 776.886, 481.465 776.647, 481.588 776.455, 481.575 776.165, 481.556 776.113, 481.552 775.446, 481.508 772.063, 481.280 765.559, 478.652 762.533, 479.092 759.447, 481.630 757.493, 484.045 749.116, 488.862 743.453, 492.450 741.538, 494.653 742.009, 496.584 744.068, 502.222 747.540, 505.275 750.587, 507.830 751.165, 508.315 " fill="none" stroke="rgb(0, 0, 0)" stroke-linecap="butt" stroke-linejoin="round" stroke-opacity="1.0" stroke-width="3.0" />
            <path d=" M 684.040, 980.565 685.555, 983.449 690.036, 986.435 692.716, 987.130 695.724, 987.613 703.274, 987.883 708.986, 987.955 718.385, 986.618 725.417, 983.852 728.200, 981.256 730.667, 978.953 732.891, 975.345 733.059, 973.457 732.451, 972.576 " fill="none" stroke="rgb(0, 0, 0)" stroke-linecap="butt" stroke-linejoin="round" stroke-opacity="1.0" stroke-width="3.0" />
            <path d=" M 785.940, 657.400 785.683, 658.657 785.549, 659.309 785.400, 660.035 784.467, 664.590 783.444, 667.154 782.963, 668.358 782.620, 669.216 782.491, 669.539 782.346, 669.904 782.155, 670.380 782.140, 670.419 782.052, 670.638 781.952, 670.889 781.938, 670.925 781.593, 671.788 781.009, 673.253 780.100, 675.528 779.922, 676.327 781.693, 680.498 783.740, 680.826 785.549, 681.117 790.633, 679.826 790.790, 679.660 792.461, 677.900 793.096, 677.037 793.371, 676.662 793.628, 676.312 793.654, 676.278 795.596, 673.637 797.395, 670.910 799.398, 665.734 799.975, 661.262 800.092, 660.358 800.083, 660.308 800.042, 660.068 799.461, 656.654 " fill="none" stroke="rgb(0, 0, 0)" stroke-linecap="butt" stroke-linejoin="round" stroke-opacity="1.0" stroke-width="3.0" />
            <path d=" M 727.367, 758.869 723.332, 758.877 713.476, 760.569 713.295, 760.600 706.527, 762.527 705.762, 762.744 705.065, 762.900 701.885, 763.608 697.831, 763.839 693.407, 764.062 690.990, 764.185 685.671, 764.923 680.133, 764.857 674.788, 765.448 668.100, 765.523 " fill="none" stroke="rgb(0, 0, 0)" stroke-linecap="butt" stroke-linejoin="round" stroke-opacity="1.0" stroke-width="3.0" />
            <path d=" M 746.523, 923.068 746.261, 924.011 746.193, 924.259 745.933, 925.193 745.297, 926.826 745.190, 927.099 742.515, 933.965 742.725, 936.944 742.766, 937.514 742.767, 937.533 742.770, 937.584 742.776, 937.659 742.820, 938.280 742.832, 938.463 742.218, 943.027 742.503, 945.509 744.429, 952.462 746.946, 959.605 747.675, 961.014 748.870, 963.325 749.113, 963.797 749.641, 964.818 752.471, 970.290 753.783, 972.033 754.484, 972.963 754.505, 972.991 754.544, 973.042 756.608, 975.783 760.077, 978.851 " fill="none" stroke="rgb(0, 0, 0)" stroke-linecap="butt" stroke-linejoin="round" stroke-opacity="1.0" stroke-width="3.0" />
            <path d=" M 783.241, 1002.575 783.287, 1003.241 783.337, 1003.959 785.220, 1008.815 786.201, 1012.136 787.213, 1014.516 786.907, 1018.983 789.785, 1021.739 791.417, 1023.192 796.425, 1025.801 806.444, 1026.576 807.146, 1026.584 811.208, 1026.586 814.929, 1026.090 816.138, 1025.757 816.372, 1025.692 816.546, 1025.644 817.170, 1025.472 817.795, 1025.299 817.892, 1025.273 818.285, 1025.164 820.637, 1024.515 822.822, 1024.134 822.847, 1024.130 828.788, 1023.093 " fill="none" stroke="rgb(0, 0, 0)" stroke-linecap="butt" stroke-linejoin="round" stroke-opacity="1.0" stroke-width="3.0" />
            <path d=" M 486.709, 392.698 487.720, 390.215 487.005, 386.307 483.563, 384.333 478.674, 384.044 472.978, 384.232 465.972, 385.407 463.444, 385.962 459.267, 387.213 452.840, 388.503 447.251, 390.599 444.877, 392.161 443.932, 392.962 437.414, 398.492 437.323, 398.569 437.294, 398.593 436.229, 399.497 " fill="none" stroke="rgb(0, 0, 0)" stroke-linecap="butt" stroke-linejoin="round" stroke-opacity="1.0" stroke-width="3.0" />
            <path d=" M 700.272, 757.468 699.658, 756.951 697.427, 755.075 694.680, 754.234 689.866, 753.208 685.740, 753.611 679.152, 752.890 674.351, 752.195 670.157, 751.179 665.431, 750.949 662.152, 750.715 658.701, 751.057 655.077, 750.360 647.668, 750.980 643.215, 751.608 641.502, 751.606 637.649, 751.925 635.280, 752.249 " fill="none" stroke="rgb(0, 0, 0)" stroke-linecap="butt" stroke-linejoin="round" stroke-opacity="1.0" stroke-width="3.0" />
            <path d=" M 867.684, 402.727 866.333, 395.593 863.815, 385.916 863.207, 383.582 860.859, 373.862 859.995, 370.286 859.575, 364.788 858.451, 358.182 857.831, 352.585 855.986, 343.454 855.489, 341.708 854.173, 337.085 " fill="none" stroke="rgb(0, 0, 0)" stroke-linecap="butt" stroke-linejoin="round" stroke-opacity="1.0" stroke-width="3.0" />
            <path d=" M 840.247, 1040.993 843.000, 1041.331 848.966, 1042.667 851.740, 1043.058 861.738, 1043.225 861.887, 1043.227 865.760, 1043.751 875.758, 1043.599 876.037, 1043.594 885.715, 1042.236 892.002, 1041.774 897.048, 1041.193 901.055, 1041.438 902.027, 1043.047 904.092, 1043.553 904.698, 1043.448 906.462, 1042.763 " fill="none" stroke="rgb(0, 0, 0)" stroke-linecap="butt" stroke-linejoin="round" stroke-opacity="1.0" stroke-width="3.0" />
            <path d=" M 441.785, 743.458 442.552, 746.802 445.533, 756.347 448.535, 765.959 451.291, 775.571 453.576, 783.536 455.797, 791.400 458.701, 800.969 459.159, 802.480 461.464, 809.463 " fill="none" stroke="rgb(0, 0, 0)" stroke-linecap="butt" stroke-linejoin="round" stroke-opacity="1.0" stroke-width="3.0" />
            <path d=" M 795.127, 762.169 790.263, 760.388 788.336, 759.682 783.086, 759.149 779.252, 758.932 779.053, 758.921 778.568, 758.855 771.963, 757.967 771.718, 757.933 763.250, 756.739 760.233, 756.762 756.860, 756.567 750.794, 755.796 746.711, 756.586 745.589, 756.391 743.667, 756.056 741.395, 755.968 734.762, 757.237 733.774, 757.426 727.367, 758.869 727.272, 758.891 " fill="none" stroke="rgb(0, 0, 0)" stroke-linecap="butt" stroke-linejoin="round" stroke-opacity="1.0" stroke-width="3.0" />
            <path d=" M 706.527, 762.527 704.962, 762.681 697.212, 763.448 692.166, 763.697 686.132, 764.110 681.372, 763.912 676.486, 763.958 672.329, 764.123 669.597, 764.332 665.714, 763.890 663.298, 763.173 660.219, 762.792 658.720, 762.908 655.493, 763.231 651.252, 763.522 647.143, 763.187 645.125, 763.823 641.414, 762.870 637.501, 763.243 " fill="none" stroke="rgb(0, 0, 0)" stroke-linecap="butt" stroke-linejoin="round" stroke-opacity="1.0" stroke-width="3.0" />
            <path d=" M 442.687, 390.859 445.057, 388.696 446.825, 383.181 446.910, 382.569 446.786, 376.304 446.561, 373.316 445.730, 365.792 442.970, 363.013 439.195, 361.146 436.183, 362.480 435.776, 363.373 435.767, 363.393 435.722, 363.492 434.304, 366.600 433.068, 369.309 432.721, 370.833 432.694, 370.953 432.617, 371.289 432.614, 371.304 432.581, 371.446 432.084, 373.628 431.275, 377.176 430.673, 379.819 429.422, 381.899 429.151, 382.350 429.104, 382.429 427.849, 384.516 427.150, 385.302 426.550, 385.976 426.449, 386.089 425.079, 387.628 424.654, 387.564 424.095, 387.481 422.501, 387.243 422.199, 387.198 420.698, 387.283 420.668, 387.285 420.601, 387.288 " fill="none" stroke="rgb(0, 0, 0)" stroke-linecap="butt" stroke-linejoin="round" stroke-opacity="1.0" stroke-width="3.0" />
            <path d=" M 420.698, 387.283 420.334, 386.915 419.248, 386.163 417.599, 385.020 417.265, 384.889 416.714, 384.673 414.976, 383.992 411.805, 385.614 411.508, 385.923 408.649, 388.905 405.470, 394.154 402.511, 402.114 400.877, 405.345 399.115, 409.248 398.433, 414.164 397.417, 419.947 396.686, 428.940 395.423, 435.332 394.601, 441.455 394.503, 442.187 " fill="none" stroke="rgb(0, 0, 0)" stroke-linecap="butt" stroke-linejoin="round" stroke-opacity="1.0" stroke-width="3.0" />
            <path d=" M 393.211, 456.765 393.189, 456.889 391.437, 466.734 391.265, 467.697 390.142, 474.935 389.386, 484.906 388.789, 492.773 388.360, 502.763 388.287, 504.465 387.326, 514.419 387.221, 515.511 387.066, 525.509 387.048, 526.641 387.015, 528.632 388.196, 530.750 " fill="none" stroke="rgb(0, 0, 0)" stroke-linecap="butt" stroke-linejoin="round" stroke-opacity="1.0" stroke-width="3.0" />
            <path d=" M 921.019, 631.152 919.673, 628.575 917.803, 624.997 916.399, 622.275 915.014, 620.519 911.217, 614.515 907.343, 609.221 902.674, 600.378 902.563, 600.167 899.458, 596.409 895.385, 591.074 891.158, 584.521 886.935, 578.794 885.789, 577.323 883.154, 574.630 881.281, 572.302 880.548, 571.266 877.301, 566.678 " fill="none" stroke="rgb(0, 0, 0)" stroke-linecap="butt" stroke-linejoin="round" stroke-opacity="1.0" stroke-width="3.0" />
            <path d=" M 783.740, 680.826 784.251, 686.335 784.459, 691.794 784.732, 698.962 783.977, 707.118 782.814, 716.333 781.810, 721.621 781.078, 725.040 780.136, 729.434 778.897, 731.891 776.891, 741.359 775.126, 745.858 774.413, 750.110 773.120, 752.562 773.268, 756.453 773.320, 757.823 " fill="none" stroke="rgb(0, 0, 0)" stroke-linecap="butt" stroke-linejoin="round" stroke-opacity="1.0" stroke-width="3.0" />
            <path d=" M 902.739, 768.463 902.587, 769.367 901.485, 775.940 902.399, 782.611 900.857, 790.349 898.596, 796.112 897.140, 800.786 897.156, 804.830 897.423, 813.819 896.518, 817.989 893.761, 823.516 892.557, 828.211 892.546, 835.421 893.742, 838.418 893.829, 838.637 893.841, 838.667 894.810, 841.097 895.458, 847.344 " fill="none" stroke="rgb(0, 0, 0)" stroke-linecap="butt" stroke-linejoin="round" stroke-opacity="1.0" stroke-width="3.0" />
            <path d=" M 736.069, 427.517 734.732, 427.919 734.495, 427.990 732.992, 428.441 731.362, 428.931 726.205, 428.581 719.195, 429.719 716.089, 430.762 713.529, 431.951 704.540, 436.333 703.888, 436.650 703.166, 438.073 704.119, 439.798 706.060, 441.224 710.823, 443.584 716.271, 447.794 720.017, 451.837 722.670, 453.440 728.858, 457.231 729.282, 457.479 729.603, 457.667 732.713, 459.490 733.023, 460.623 732.230, 464.125 732.100, 466.871 731.310, 468.731 " fill="none" stroke="rgb(0, 0, 0)" stroke-linecap="butt" stroke-linejoin="round" stroke-opacity="1.0" stroke-width="3.0" />
            <path d=" M 759.552, 1010.412 759.661, 1010.863 760.978, 1016.327 761.966, 1020.169 762.869, 1025.018 763.798, 1028.625 763.985, 1029.156 766.012, 1034.912 767.407, 1037.149 768.940, 1039.594 771.233, 1043.094 774.069, 1044.915 777.216, 1048.935 781.228, 1053.967 783.795, 1054.826 788.741, 1054.245 793.277, 1052.843 802.775, 1051.508 810.926, 1048.863 812.383, 1048.390 " fill="none" stroke="rgb(0, 0, 0)" stroke-linecap="butt" stroke-linejoin="round" stroke-opacity="1.0" stroke-width="3.0" />
            <path d=" M 775.166, 406.851 774.924, 406.809 768.466, 405.685 762.091, 406.686 761.254, 406.915 754.668, 409.349 747.683, 412.571 744.228, 415.442 746.440, 419.406 748.495, 421.721 757.669, 425.811 762.282, 429.330 766.244, 433.442 769.972, 436.258 773.477, 437.816 774.997, 438.491 775.796, 439.049 777.427, 440.185 777.430, 440.188 778.420, 442.147 777.878, 443.550 777.516, 444.486 775.503, 444.690 " fill="none" stroke="rgb(0, 0, 0)" stroke-linecap="butt" stroke-linejoin="round" stroke-opacity="1.0" stroke-width="3.0" />
            <path d=" M 807.700, 830.410 809.911, 829.435 811.027, 828.943 816.490, 826.395 817.707, 825.680 819.761, 824.475 822.543, 823.294 823.947, 822.491 826.418, 821.925 829.691, 821.698 833.785, 822.172 835.293, 821.911 837.330, 821.465 840.447, 819.733 842.026, 816.898 842.012, 810.160 842.336, 803.035 841.545, 795.475 840.258, 793.058 839.940, 792.462 838.290, 789.363 835.420, 784.986 832.604, 781.935 829.724, 779.427 828.134, 778.043 827.562, 777.545 826.131, 777.017 825.746, 776.875 " fill="none" stroke="rgb(0, 0, 0)" stroke-linecap="butt" stroke-linejoin="round" stroke-opacity="1.0" stroke-width="3.0" />
            <path d=" M 749.374, 672.084 748.900, 680.327 748.627, 685.107 748.538, 686.666 748.021, 688.893 748.000, 688.985 747.825, 689.739 747.338, 691.835 747.306, 691.973 747.299, 692.005 746.783, 694.231 745.606, 700.919 744.781, 709.072 742.810, 717.395 741.517, 725.658 741.394, 730.489 742.255, 735.196 742.484, 736.448 743.619, 738.518 743.738, 738.735 744.551, 744.528 745.739, 748.846 745.589, 756.391 " fill="none" stroke="rgb(0, 0, 0)" stroke-linecap="butt" stroke-linejoin="round" stroke-opacity="1.0" stroke-width="3.0" />
            <path d=" M 810.334, 621.613 810.869, 623.635 811.531, 625.291 811.587, 625.431 811.775, 625.900 812.043, 626.571 812.264, 627.123 812.310, 627.239 812.313, 627.246 812.713, 628.246 812.787, 628.426 812.858, 628.602 813.077, 629.140 814.595, 632.864 816.388, 634.877 818.721, 637.674 818.810, 637.781 818.821, 637.816 819.060, 638.580 820.589, 643.469 821.226, 649.264 823.091, 654.457 826.716, 657.925 831.759, 661.625 834.419, 663.126 836.251, 665.173 840.242, 667.209 844.244, 668.812 847.106, 670.438 851.447, 673.129 859.874, 676.220 866.974, 680.925 867.349, 681.174 " fill="none" stroke="rgb(0, 0, 0)" stroke-linecap="butt" stroke-linejoin="round" stroke-opacity="1.0" stroke-width="3.0" />
            <path d=" M 388.967, 534.528 389.059, 534.992 389.403, 537.932 389.895, 543.057 391.259, 548.723 391.470, 556.070 392.622, 562.200 393.772, 567.315 394.722, 572.000 397.405, 577.727 399.396, 586.083 401.013, 592.483 403.086, 602.265 404.968, 611.143 407.742, 620.622 407.794, 620.800 " fill="none" stroke="rgb(0, 0, 0)" stroke-linecap="butt" stroke-linejoin="round" stroke-opacity="1.0" stroke-width="3.0" />
            <path d=" M 962.778, 799.525 963.755, 795.617 964.163, 785.626 964.250, 783.510 964.554, 776.668 964.377, 770.629 961.561, 762.221 960.693, 756.489 959.227, 751.038 956.107, 743.125 956.140, 737.296 955.730, 731.741 955.951, 729.665 956.918, 724.973 957.806, 720.812 957.700, 718.028 957.143, 714.020 957.075, 713.528 955.254, 707.512 " fill="none" stroke="rgb(0, 0, 0)" stroke-linecap="butt" stroke-linejoin="round" stroke-opacity="1.0" stroke-width="3.0" />
            <path d=" M 511.970, 540.842 515.858, 538.618 519.917, 534.667 520.356, 533.808 519.491, 531.597 516.423, 530.325 511.280, 529.407 505.151, 529.437 500.894, 528.683 495.820, 528.312 491.118, 527.245 485.061, 527.808 480.678, 528.099 479.256, 527.364 478.624, 526.030 478.122, 524.970 479.314, 523.866 481.708, 521.650 486.847, 518.708 489.095, 516.167 490.369, 513.441 492.693, 509.388 494.891, 504.776 497.370, 499.926 496.760, 497.595 496.753, 497.574 495.578, 494.221 " fill="none" stroke="rgb(0, 0, 0)" stroke-linecap="butt" stroke-linejoin="round" stroke-opacity="1.0" stroke-width="3.0" />
            <path d=" M 1000.824, 936.541 1002.034, 935.501 1003.065, 934.616 1005.018, 931.115 1006.905, 927.570 1008.190, 924.060 1009.862, 921.148 1012.028, 914.418 1014.941, 908.810 1015.831, 905.214 1015.518, 896.859 1016.965, 890.845 1017.448, 887.198 1016.186, 878.964 1016.176, 873.616 1015.623, 866.122 1014.452, 861.061 1014.155, 857.484 1013.477, 855.095 1011.614, 851.352 1012.123, 848.703 1012.489, 842.734 " fill="none" stroke="rgb(0, 0, 0)" stroke-linecap="butt" stroke-linejoin="round" stroke-opacity="1.0" stroke-width="3.0" />
            <path d=" M 717.181, 926.606 720.159, 925.934 721.247, 925.688 722.516, 925.531 726.297, 925.061 726.598, 925.024 727.839, 924.870 736.713, 923.925 743.879, 922.531 744.798, 922.578 746.523, 923.068 747.907, 923.461 748.052, 923.502 751.269, 924.417 751.772, 924.561 753.676, 925.108 756.630, 925.957 763.752, 926.756 763.879, 926.770 764.762, 926.870 764.914, 926.871 765.675, 926.876 766.066, 926.879 775.907, 925.105 776.719, 924.959 776.923, 924.891 777.654, 924.646 780.721, 923.620 787.500, 920.257 789.519, 918.277 789.617, 918.181 789.629, 918.169 789.765, 918.035 790.102, 917.705 793.165, 914.701 794.664, 912.996 797.666, 906.497 797.262, 903.743 796.354, 898.544 796.062, 897.121 795.232, 895.622 795.191, 895.549 793.444, 894.115 793.017, 893.818 789.489, 891.359 783.897, 890.461 783.348, 890.373 782.936, 890.306 782.842, 890.363 782.768, 890.407 " fill="none" stroke="rgb(0, 0, 0)" stroke-linecap="butt" stroke-linejoin="round" stroke-opacity="1.0" stroke-width="3.0" />
            <path d=" M 753.475, 341.678 752.408, 342.818 745.822, 347.042 745.068, 347.526 744.865, 347.549 742.147, 347.851 733.763, 345.369 726.355, 343.659 718.953, 342.950 708.958, 342.634 708.077, 342.607 700.216, 343.002 691.983, 343.983 683.361, 345.209 677.046, 346.999 674.624, 347.597 673.228, 348.760 673.323, 350.907 675.835, 354.282 685.673, 356.075 687.422, 356.394 693.993, 358.582 697.652, 359.648 705.847, 363.295 710.491, 365.569 " fill="none" stroke="rgb(0, 0, 0)" stroke-linecap="butt" stroke-linejoin="round" stroke-opacity="1.0" stroke-width="3.0" />
            <path d=" M 469.911, 490.775 469.181, 488.452 469.044, 488.016 468.859, 487.428 468.977, 487.254 470.560, 484.918 471.647, 484.041 471.794, 483.922 474.132, 482.032 477.466, 479.349 481.453, 475.024 483.741, 470.953 482.483, 469.289 481.908, 468.035 481.999, 465.120 480.258, 463.855 477.593, 463.773 470.564, 464.593 464.500, 467.869 462.265, 468.068 461.145, 466.811 459.471, 462.297 457.538, 452.486 456.921, 449.356 457.639, 442.404 455.928, 436.258 455.601, 432.979 457.438, 431.033 459.980, 427.281 460.432, 426.226 463.280, 420.596 463.292, 420.572 463.304, 420.548 464.009, 419.153 466.844, 415.676 470.322, 411.232 472.228, 408.552 474.208, 406.270 475.517, 405.288 477.941, 403.469 " fill="none" stroke="rgb(0, 0, 0)" stroke-linecap="butt" stroke-linejoin="round" stroke-opacity="1.0" stroke-width="3.0" />
            <path d=" M 786.386, 322.409 785.525, 322.079 785.376, 322.022 785.087, 321.912 780.589, 320.190 779.485, 319.767 779.471, 319.762 779.210, 319.662 775.694, 318.315 773.265, 317.413 772.218, 316.951 767.546, 314.891 757.621, 313.668 757.366, 313.637 749.676, 313.587 749.613, 313.586 740.961, 313.928 731.030, 315.093 730.887, 315.110 726.161, 315.590 722.613, 316.501 719.467, 318.375 718.845, 320.191 722.344, 323.277 729.528, 324.407 732.755, 326.347 737.120, 328.432 740.524, 329.705 744.823, 332.059 748.640, 334.121 753.188, 336.936 754.556, 337.910 755.831, 338.818 756.155, 339.049 763.168, 344.043 765.585, 346.271 766.662, 347.830 773.044, 354.331 775.070, 356.371 776.259, 357.568 776.638, 357.949 776.642, 357.954 776.683, 357.995 " fill="none" stroke="rgb(0, 0, 0)" stroke-linecap="butt" stroke-linejoin="round" stroke-opacity="1.0" stroke-width="3.0" />
            <path d=" M 986.870, 705.577 988.146, 706.259 989.507, 706.986 991.199, 707.110 993.127, 704.798 993.612, 703.515 994.910, 700.081 995.079, 699.851 998.168, 695.650 1001.181, 690.818 1002.538, 686.648 1003.487, 680.188 1003.770, 674.209 1003.686, 672.200 1003.092, 667.376 1000.939, 659.869 995.791, 651.296 993.956, 648.240 990.573, 644.115 986.501, 637.969 984.361, 635.339 978.569, 627.187 978.350, 626.879 973.122, 619.162 969.817, 615.293 966.239, 610.504 962.652, 606.173 957.820, 600.015 954.155, 595.797 949.489, 586.952 948.410, 584.907 945.478, 579.889 945.051, 579.158 " fill="none" stroke="rgb(0, 0, 0)" stroke-linecap="butt" stroke-linejoin="round" stroke-opacity="1.0" stroke-width="3.0" />
            <path d=" M 903.529, 970.017 904.856, 966.497 905.775, 961.581 906.634, 953.730 907.238, 948.329 907.800, 945.846 907.640, 942.687 908.927, 937.490 911.428, 930.193 913.011, 925.442 916.443, 919.410 918.112, 916.430 919.855, 914.441 921.852, 911.846 928.005, 903.962 928.417, 903.434 929.870, 900.428 931.504, 898.536 934.152, 892.865 935.937, 888.659 938.315, 885.917 938.496, 885.708 938.993, 884.479 942.182, 876.587 943.784, 872.462 945.411, 868.272 945.496, 868.051 945.827, 867.420 950.473, 858.565 950.813, 857.917 953.540, 850.703 956.977, 842.154 959.164, 833.602 960.946, 825.184 961.932, 815.233 962.044, 814.095 963.288, 804.518 962.778, 799.525 962.743, 799.177 " fill="none" stroke="rgb(0, 0, 0)" stroke-linecap="butt" stroke-linejoin="round" stroke-opacity="1.0" stroke-width="3.0" />
            <path d=" M 945.478, 579.889 943.979, 576.053 940.446, 568.457 935.847, 559.578 933.588, 555.216 929.629, 547.324 924.671, 538.640 922.734, 535.247 919.161, 528.341 914.490, 519.499 913.654, 517.917 909.064, 509.032 905.232, 501.615 900.919, 492.593 900.037, 490.748 895.117, 482.042 890.197, 473.336 889.554, 472.198 887.532, 467.645 884.473, 461.806 881.157, 453.303 880.281, 451.056 878.722, 444.787 878.098, 442.234 875.726, 432.519 874.443, 427.265 872.203, 417.519 872.084, 416.999 871.139, 410.781 868.666, 404.936 867.684, 402.727 865.359, 397.499 " fill="none" stroke="rgb(0, 0, 0)" stroke-linecap="butt" stroke-linejoin="round" stroke-opacity="1.0" stroke-width="3.0" />
            <path d=" M 394.245, 460.589 393.224, 469.114 392.498, 475.184 391.488, 482.612 390.647, 491.964 389.539, 501.903 389.397, 503.174 387.942, 510.331 387.975, 512.842 387.897, 522.842 387.878, 525.323 388.417, 529.230 388.196, 530.750 388.099, 531.416 388.967, 534.528 389.713, 537.199 390.666, 540.733 392.041, 545.544 392.293, 551.480 393.797, 555.105 395.899, 564.881 396.125, 565.932 397.283, 573.120 399.029, 578.491 401.665, 585.040 403.093, 587.375 404.739, 590.019 407.057, 595.180 410.821, 603.468 414.708, 612.681 415.219, 613.893 416.353, 616.643 419.340, 626.190 421.474, 632.950 424.985, 642.314 426.856, 647.304 428.557, 653.269 431.977, 662.666 432.887, 665.167 " fill="none" stroke="rgb(0, 0, 0)" stroke-linecap="butt" stroke-linejoin="round" stroke-opacity="1.0" stroke-width="3.0" />
            <path d=" M 548.229, 947.498 545.517, 946.439 544.211, 945.929 541.035, 944.390 534.891, 939.944 528.708, 933.961 526.595, 931.831 522.859, 929.599 520.680, 926.651 517.084, 922.817 516.245, 921.923 512.820, 912.633 512.799, 912.506 512.698, 911.902 511.682, 905.841 510.530, 901.701 510.312, 897.437 508.996, 890.038 509.000, 887.617 508.023, 879.011 508.106, 872.302 507.668, 863.735 505.928, 855.750 503.397, 848.932 501.019, 842.418 499.224, 836.218 497.269, 829.293 495.295, 822.621 494.646, 820.063 492.049, 810.587 487.782, 801.911 484.394, 792.503 483.616, 790.343 479.626, 781.134 475.777, 771.905 473.614, 766.718 470.034, 757.381 468.087, 752.302 466.654, 749.374 463.355, 739.934 462.961, 738.806 460.833, 732.861 458.153, 724.631 454.875, 716.153 454.058, 712.792 450.644, 703.393 450.324, 702.513 448.303, 697.920 445.128, 690.108 440.366, 681.315 440.031, 680.696 437.984, 675.801 437.273, 674.319 437.149, 674.059 432.887, 665.167 435.613, 671.366 436.832, 673.946 437.273, 674.319 " fill="none" stroke="rgb(0, 0, 0)" stroke-linecap="butt" stroke-linejoin="round" stroke-opacity="1.0" stroke-width="3.0" />
        </g>
    </g>
</svg>
