<?xml version='1.0' encoding='ascii'?>
<svg xmlns="http://www.w3.org/2000/svg" height="1280" version="1.1" width="1280">
    <g id="RenderLayer_LineSet" inkscape:groupmode="lineset" inkscape:label="RenderLayer_LineSet" xmlns:inkscape="http://www.inkscape.org/namespaces/inkscape">
        <g id="strokes" inkscape:groupmode="layer" inkscape:label="strokes" xmlns:inkscape="http://www.inkscape.org/namespaces/inkscape">
            <path d=" M 813.672, 805.422 812.454, 807.500 811.630, 808.187 811.385, 808.392 808.641, 810.678 808.002, 811.762 807.561, 813.690 806.294, 817.713 806.280, 817.756 805.776, 821.857 805.766, 821.936 805.761, 821.982 805.635, 823.007 " fill="none" stroke="rgb(0, 0, 0)" stroke-linecap="butt" stroke-linejoin="round" stroke-opacity="1.0" stroke-width="3.0" />
            <path d=" M 815.795, 555.014 814.897, 555.942 812.608, 558.310 812.037, 558.900 811.045, 559.926 810.940, 560.035 810.124, 560.879 810.104, 560.900 809.919, 561.090 808.920, 562.124 808.644, 562.326 808.323, 562.561 807.274, 563.327 806.732, 563.723 800.490, 568.284 " fill="none" stroke="rgb(0, 0, 0)" stroke-linecap="butt" stroke-linejoin="round" stroke-opacity="1.0" stroke-width="3.0" />
            <path d=" M 422.382, 627.534 421.472, 629.184 420.274, 631.355 419.794, 635.960 419.379, 640.195 418.854, 642.568 418.578, 644.263 419.358, 647.119 " fill="none" stroke="rgb(0, 0, 0)" stroke-linecap="butt" stroke-linejoin="round" stroke-opacity="1.0" stroke-width="3.0" />
            <path d=" M 504.954, 711.123 505.778, 711.259 505.902, 711.280 506.816, 711.432 508.670, 711.739 509.130, 711.815 509.679, 711.799 509.831, 711.794 510.802, 711.765 510.828, 711.764 513.780, 711.675 514.722, 711.566 515.266, 711.504 521.949, 710.737 522.867, 710.540 523.513, 710.402 525.281, 710.023 " fill="none" stroke="rgb(0, 0, 0)" stroke-linecap="butt" stroke-linejoin="round" stroke-opacity="1.0" stroke-width="3.0" />
            <path d=" M 808.814, 731.764 808.745, 731.942 807.019, 736.365 803.906, 739.462 804.553, 744.513 805.042, 745.693 804.321, 748.287 803.406, 750.206 " fill="none" stroke="rgb(0, 0, 0)" stroke-linecap="butt" stroke-linejoin="round" stroke-opacity="1.0" stroke-width="3.0" />
            <path d=" M 617.012, 698.054 624.430, 697.158 630.593, 696.034 637.539, 695.845 " fill="none" stroke="rgb(0, 0, 0)" stroke-linecap="butt" stroke-linejoin="round" stroke-opacity="1.0" stroke-width="3.0" />
            <path d=" M 554.352, 894.069 556.289, 896.600 561.930, 904.857 563.950, 907.814 566.237, 911.057 " fill="none" stroke="rgb(0, 0, 0)" stroke-linecap="butt" stroke-linejoin="round" stroke-opacity="1.0" stroke-width="3.0" />
            <path d=" M 563.853, 762.977 562.767, 757.596 561.179, 753.558 557.597, 751.168 552.955, 749.533 552.773, 748.269 552.684, 747.648 " fill="none" stroke="rgb(0, 0, 0)" stroke-linecap="butt" stroke-linejoin="round" stroke-opacity="1.0" stroke-width="3.0" />
            <path d=" M 853.301, 953.265 854.663, 952.529 859.305, 950.021 865.355, 947.998 870.464, 945.114 870.853, 944.894 872.159, 944.157 " fill="none" stroke="rgb(0, 0, 0)" stroke-linecap="butt" stroke-linejoin="round" stroke-opacity="1.0" stroke-width="3.0" />
            <path d=" M 1047.772, 720.887 1045.643, 716.674 1040.783, 711.358 1040.114, 710.433 1038.415, 708.081 1037.688, 707.076 1037.546, 706.879 1036.556, 705.849 1035.044, 704.278 " fill="none" stroke="rgb(0, 0, 0)" stroke-linecap="butt" stroke-linejoin="round" stroke-opacity="1.0" stroke-width="3.0" />
            <path d=" M 847.960, 576.088 852.073, 574.694 858.156, 572.632 866.141, 571.228 868.448, 570.913 " fill="none" stroke="rgb(0, 0, 0)" stroke-linecap="butt" stroke-linejoin="round" stroke-opacity="1.0" stroke-width="3.0" />
            <path d=" M 774.554, 804.296 776.628, 805.226 780.145, 806.803 783.662, 809.275 785.485, 810.556 787.514, 812.846 791.225, 817.174 " fill="none" stroke="rgb(0, 0, 0)" stroke-linecap="butt" stroke-linejoin="round" stroke-opacity="1.0" stroke-width="3.0" />
            <path d=" M 599.932, 707.347 602.988, 707.463 605.732, 707.339 609.561, 704.931 611.474, 703.109 612.773, 701.245 617.012, 698.054 617.861, 697.415 " fill="none" stroke="rgb(0, 0, 0)" stroke-linecap="butt" stroke-linejoin="round" stroke-opacity="1.0" stroke-width="3.0" />
            <path d=" M 593.065, 865.665 586.870, 857.814 586.676, 857.568 584.716, 853.750 583.835, 850.911 583.135, 848.655 582.629, 847.023 " fill="none" stroke="rgb(0, 0, 0)" stroke-linecap="butt" stroke-linejoin="round" stroke-opacity="1.0" stroke-width="3.0" />
            <path d=" M 824.947, 1023.724 827.031, 1026.594 830.865, 1029.795 835.491, 1032.533 839.904, 1032.617 843.476, 1032.685 " fill="none" stroke="rgb(0, 0, 0)" stroke-linecap="butt" stroke-linejoin="round" stroke-opacity="1.0" stroke-width="3.0" />
            <path d=" M 454.468, 797.566 453.873, 794.088 452.819, 787.914 453.988, 794.228 454.055, 794.589 454.468, 797.566 454.638, 798.795 455.175, 799.828 " fill="none" stroke="rgb(0, 0, 0)" stroke-linecap="butt" stroke-linejoin="round" stroke-opacity="1.0" stroke-width="3.0" />
            <path d=" M 875.109, 673.858 871.618, 672.913 870.196, 671.949 867.952, 670.834 867.946, 670.831 867.010, 670.366 858.630, 666.147 855.299, 665.956 854.749, 665.924 " fill="none" stroke="rgb(0, 0, 0)" stroke-linecap="butt" stroke-linejoin="round" stroke-opacity="1.0" stroke-width="3.0" />
            <path d=" M 730.666, 691.198 731.601, 692.833 732.012, 693.552 732.031, 693.586 732.310, 694.074 732.320, 694.092 733.719, 696.539 735.125, 698.999 739.079, 702.829 744.797, 705.043 746.331, 705.637 " fill="none" stroke="rgb(0, 0, 0)" stroke-linecap="butt" stroke-linejoin="round" stroke-opacity="1.0" stroke-width="3.0" />
            <path d=" M 1070.501, 802.394 1070.618, 798.207 1070.656, 796.846 1070.506, 795.042 1069.925, 788.059 1068.413, 784.571 1066.979, 781.716 1066.700, 781.162 1066.563, 780.888 " fill="none" stroke="rgb(0, 0, 0)" stroke-linecap="butt" stroke-linejoin="round" stroke-opacity="1.0" stroke-width="3.0" />
            <path d=" M 831.744, 988.633 828.267, 988.738 828.211, 988.740 825.648, 988.817 828.180, 988.641 828.315, 988.632 830.638, 988.471 831.744, 988.633 834.956, 989.103 839.392, 989.285 842.028, 989.392 " fill="none" stroke="rgb(0, 0, 0)" stroke-linecap="butt" stroke-linejoin="round" stroke-opacity="1.0" stroke-width="3.0" />
            <path d=" M 438.518, 631.722 440.911, 635.504 443.115, 637.794 443.315, 638.626 444.723, 640.423 449.760, 644.353 452.516, 645.621 452.685, 645.648 455.020, 646.019 " fill="none" stroke="rgb(0, 0, 0)" stroke-linecap="butt" stroke-linejoin="round" stroke-opacity="1.0" stroke-width="3.0" />
            <path d=" M 743.739, 579.406 743.444, 579.435 743.380, 579.442 739.959, 579.778 738.340, 579.937 737.386, 580.001 732.204, 580.344 731.245, 580.408 731.227, 580.430 731.146, 580.529 730.973, 580.743 730.893, 580.843 730.572, 581.238 730.553, 581.262 730.505, 581.321 730.276, 581.604 729.407, 582.556 728.936, 583.071 728.932, 583.075 726.299, 585.959 726.587, 586.933 726.980, 588.261 727.119, 588.617 " fill="none" stroke="rgb(0, 0, 0)" stroke-linecap="butt" stroke-linejoin="round" stroke-opacity="1.0" stroke-width="3.0" />
            <path d=" M 744.472, 797.577 745.587, 793.985 745.621, 793.873 745.918, 792.916 746.178, 792.472 746.945, 791.164 747.243, 790.655 747.255, 790.634 749.138, 787.419 750.317, 785.961 751.464, 784.543 751.661, 784.299 752.010, 783.868 752.873, 782.801 752.982, 782.666 753.841, 781.838 756.917, 778.873 " fill="none" stroke="rgb(0, 0, 0)" stroke-linecap="butt" stroke-linejoin="round" stroke-opacity="1.0" stroke-width="3.0" />
            <path d=" M 767.869, 666.342 767.681, 671.704 767.722, 676.351 766.367, 679.961 765.162, 681.338 766.365, 684.273 765.606, 688.204 " fill="none" stroke="rgb(0, 0, 0)" stroke-linecap="butt" stroke-linejoin="round" stroke-opacity="1.0" stroke-width="3.0" />
            <path d=" M 1069.060, 811.515 1069.395, 803.718 1069.566, 798.013 1067.989, 793.234 1067.691, 788.912 " fill="none" stroke="rgb(0, 0, 0)" stroke-linecap="butt" stroke-linejoin="round" stroke-opacity="1.0" stroke-width="3.0" />
            <path d=" M 983.542, 666.883 990.852, 669.514 992.066, 670.142 992.359, 670.293 993.450, 670.857 989.271, 668.503 995.045, 671.493 995.859, 671.914 " fill="none" stroke="rgb(0, 0, 0)" stroke-linecap="butt" stroke-linejoin="round" stroke-opacity="1.0" stroke-width="3.0" />
            <path d=" M 758.193, 787.999 757.980, 788.012 756.340, 786.485 758.193, 787.999 759.350, 788.946 760.479, 790.162 762.233, 792.491 763.238, 798.640 763.827, 802.700 765.163, 804.199 " fill="none" stroke="rgb(0, 0, 0)" stroke-linecap="butt" stroke-linejoin="round" stroke-opacity="1.0" stroke-width="3.0" />
            <path d=" M 421.133, 611.255 421.153, 611.530 421.176, 611.856 421.177, 611.869 421.179, 611.892 421.196, 612.134 421.239, 612.725 421.348, 614.231 421.377, 614.274 421.453, 614.388 422.153, 615.427 426.059, 618.726 428.176, 619.918 429.163, 620.474 429.462, 620.643 429.602, 620.842 430.486, 622.098 430.501, 622.119 430.631, 622.305 431.508, 623.551 433.428, 625.931 433.579, 626.118 435.100, 627.371 436.050, 628.023 " fill="none" stroke="rgb(0, 0, 0)" stroke-linecap="butt" stroke-linejoin="round" stroke-opacity="1.0" stroke-width="3.0" />
            <path d=" M 772.382, 657.924 773.896, 657.625 775.140, 657.380 775.142, 657.379 775.146, 657.378 775.496, 657.309 776.193, 657.729 778.318, 659.007 778.323, 659.010 779.177, 659.524 779.956, 659.487 780.313, 659.447 781.057, 659.363 782.001, 658.542 782.028, 658.518 782.943, 657.723 782.877, 657.505 782.357, 655.793 782.013, 654.663 781.430, 652.745 781.346, 652.470 781.716, 650.208 781.832, 649.500 781.912, 649.011 781.921, 648.959 782.021, 646.305 " fill="none" stroke="rgb(0, 0, 0)" stroke-linecap="butt" stroke-linejoin="round" stroke-opacity="1.0" stroke-width="3.0" />
            <path d=" M 707.807, 728.373 705.373, 731.854 700.982, 734.454 700.385, 734.657 699.988, 734.792 698.926, 735.152 695.235, 737.912 694.986, 738.899 695.075, 740.756 697.356, 744.732 " fill="none" stroke="rgb(0, 0, 0)" stroke-linecap="butt" stroke-linejoin="round" stroke-opacity="1.0" stroke-width="3.0" />
            <path d=" M 839.904, 1032.617 842.789, 1033.304 846.777, 1032.692 850.735, 1031.240 858.292, 1028.354 860.047, 1024.234 " fill="none" stroke="rgb(0, 0, 0)" stroke-linecap="butt" stroke-linejoin="round" stroke-opacity="1.0" stroke-width="3.0" />
            <path d=" M 977.256, 799.487 980.776, 805.676 987.982, 810.941 993.355, 816.747 " fill="none" stroke="rgb(0, 0, 0)" stroke-linecap="butt" stroke-linejoin="round" stroke-opacity="1.0" stroke-width="3.0" />
            <path d=" M 968.604, 635.247 965.149, 640.527 962.793, 644.128 961.851, 647.559 961.157, 650.086 959.667, 656.053 959.431, 657.080 " fill="none" stroke="rgb(0, 0, 0)" stroke-linecap="butt" stroke-linejoin="round" stroke-opacity="1.0" stroke-width="3.0" />
            <path d=" M 810.519, 1005.223 812.222, 1006.428 813.221, 1007.136 813.781, 1007.532 813.991, 1007.680 814.142, 1007.787 814.408, 1007.975 814.467, 1008.017 814.731, 1008.204 814.793, 1008.248 814.842, 1008.282 814.906, 1008.328 814.922, 1008.339 816.242, 1009.273 816.670, 1009.576 817.756, 1012.089 819.033, 1015.044 822.239, 1020.927 824.947, 1023.724 825.068, 1023.849 " fill="none" stroke="rgb(0, 0, 0)" stroke-linecap="butt" stroke-linejoin="round" stroke-opacity="1.0" stroke-width="3.0" />
            <path d=" M 798.199, 685.896 796.170, 686.978 793.006, 689.654 789.332, 693.730 789.296, 693.760 789.282, 693.772 789.242, 693.807 789.228, 693.820 787.016, 695.729 782.744, 700.679 782.744, 700.680 781.136, 702.543 780.743, 702.923 780.703, 702.962 " fill="none" stroke="rgb(0, 0, 0)" stroke-linecap="butt" stroke-linejoin="round" stroke-opacity="1.0" stroke-width="3.0" />
            <path d=" M 561.998, 613.623 562.033, 612.492 557.747, 607.195 553.490, 606.628 551.068, 606.586 550.668, 606.795 549.880, 607.208 545.555, 609.475 545.466, 609.521 545.437, 609.537 542.893, 610.870 542.488, 611.082 542.210, 611.187 " fill="none" stroke="rgb(0, 0, 0)" stroke-linecap="butt" stroke-linejoin="round" stroke-opacity="1.0" stroke-width="3.0" />
            <path d=" M 431.195, 592.969 430.325, 593.746 428.322, 595.996 422.743, 602.264 421.087, 604.862 418.858, 611.619 419.411, 612.214 420.279, 613.146 " fill="none" stroke="rgb(0, 0, 0)" stroke-linecap="butt" stroke-linejoin="round" stroke-opacity="1.0" stroke-width="3.0" />
            <path d=" M 1070.624, 887.684 1072.344, 880.890 1072.779, 875.653 1073.202, 868.227 1073.362, 867.356 1073.236, 863.039 " fill="none" stroke="rgb(0, 0, 0)" stroke-linecap="butt" stroke-linejoin="round" stroke-opacity="1.0" stroke-width="3.0" />
            <path d=" M 759.349, 761.613 759.342, 761.645 758.578, 765.217 758.301, 767.453 757.693, 770.567 757.687, 774.112 757.686, 774.365 757.686, 774.440 757.686, 774.633 757.685, 774.901 756.969, 778.604 756.923, 778.840 756.917, 778.873 756.646, 780.271 756.306, 785.646 756.340, 786.485 " fill="none" stroke="rgb(0, 0, 0)" stroke-linecap="butt" stroke-linejoin="round" stroke-opacity="1.0" stroke-width="3.0" />
            <path d=" M 544.714, 886.627 549.721, 890.267 553.598, 893.085 553.841, 893.261 555.197, 894.763 557.724, 897.563 563.020, 903.650 " fill="none" stroke="rgb(0, 0, 0)" stroke-linecap="butt" stroke-linejoin="round" stroke-opacity="1.0" stroke-width="3.0" />
            <path d=" M 732.862, 736.744 731.613, 735.974 728.607, 734.122 728.535, 734.077 724.879, 733.248 724.807, 733.232 724.536, 733.226 723.524, 733.202 721.817, 733.162 720.495, 733.130 717.794, 733.054 714.496, 736.407 714.218, 736.690 714.182, 737.266 714.117, 738.315 714.149, 740.175 714.161, 740.832 " fill="none" stroke="rgb(0, 0, 0)" stroke-linecap="butt" stroke-linejoin="round" stroke-opacity="1.0" stroke-width="3.0" />
            <path d=" M 748.597, 587.624 748.472, 587.656 748.237, 587.716 748.236, 587.716 747.953, 587.788 746.811, 588.079 746.774, 588.088 746.765, 588.090 746.562, 588.142 746.543, 588.147 746.201, 588.234 745.727, 588.355 745.222, 588.483 745.064, 588.524 744.876, 588.571 744.720, 588.611 743.497, 588.922 743.250, 588.947 739.957, 589.283 739.410, 589.338 736.935, 589.590 735.767, 589.709 735.682, 589.718 735.590, 589.839 735.277, 590.247 735.024, 590.584 734.670, 591.056 734.482, 591.306 733.656, 592.405 733.622, 592.451 733.072, 593.182 732.647, 593.749 732.680, 593.840 733.246, 595.414 734.254, 596.580 734.789, 597.199 735.136, 597.601 735.916, 598.504 736.952, 599.702 " fill="none" stroke="rgb(0, 0, 0)" stroke-linecap="butt" stroke-linejoin="round" stroke-opacity="1.0" stroke-width="3.0" />
            <path d=" M 565.781, 909.999 566.237, 911.057 567.688, 914.427 570.845, 916.699 573.514, 919.750 575.577, 922.356 578.667, 926.978 580.944, 928.933 582.038, 929.873 " fill="none" stroke="rgb(0, 0, 0)" stroke-linecap="butt" stroke-linejoin="round" stroke-opacity="1.0" stroke-width="3.0" />
            <path d=" M 574.548, 708.748 576.643, 708.763 582.394, 707.903 589.593, 707.325 596.104, 707.310 599.932, 707.347 600.617, 707.353 " fill="none" stroke="rgb(0, 0, 0)" stroke-linecap="butt" stroke-linejoin="round" stroke-opacity="1.0" stroke-width="3.0" />
            <path d=" M 728.468, 788.999 730.258, 793.288 730.874, 798.378 729.573, 803.331 729.379, 805.793 729.652, 809.512 730.383, 811.202 732.226, 813.897 " fill="none" stroke="rgb(0, 0, 0)" stroke-linecap="butt" stroke-linejoin="round" stroke-opacity="1.0" stroke-width="3.0" />
            <path d=" M 727.787, 578.457 726.779, 578.765 725.941, 579.021 719.596, 580.960 718.026, 582.261 717.677, 584.122 718.592, 586.788 719.515, 587.236 719.870, 587.407 722.309, 588.591 722.555, 588.710 723.715, 589.273 724.156, 589.487 724.422, 589.660 728.182, 592.108 " fill="none" stroke="rgb(0, 0, 0)" stroke-linecap="butt" stroke-linejoin="round" stroke-opacity="1.0" stroke-width="3.0" />
            <path d=" M 800.529, 567.411 799.283, 568.039 796.199, 568.714 791.114, 569.825 786.901, 570.985 783.790, 572.849 783.773, 572.873 783.741, 572.920 783.577, 573.162 783.527, 573.237 783.136, 573.814 781.982, 575.519 781.558, 576.220 781.021, 577.108 779.382, 579.815 779.294, 580.118 779.217, 580.381 779.165, 580.558 " fill="none" stroke="rgb(0, 0, 0)" stroke-linecap="butt" stroke-linejoin="round" stroke-opacity="1.0" stroke-width="3.0" />
            <path d=" M 839.392, 989.285 839.519, 989.302 846.162, 993.129 855.602, 995.178 858.924, 995.566 864.906, 997.746 " fill="none" stroke="rgb(0, 0, 0)" stroke-linecap="butt" stroke-linejoin="round" stroke-opacity="1.0" stroke-width="3.0" />
            <path d=" M 847.608, 930.226 841.596, 933.498 838.152, 934.454 835.736, 935.124 835.579, 935.168 835.203, 935.272 833.067, 935.865 831.038, 935.643 829.531, 935.479 826.870, 935.188 825.688, 935.058 821.854, 933.688 " fill="none" stroke="rgb(0, 0, 0)" stroke-linecap="butt" stroke-linejoin="round" stroke-opacity="1.0" stroke-width="3.0" />
            <path d=" M 806.485, 781.409 808.459, 780.675 810.085, 780.070 813.006, 781.303 816.814, 781.364 817.273, 781.371 818.795, 781.395 819.051, 781.399 819.109, 781.400 819.186, 781.402 819.201, 781.402 819.643, 781.409 820.340, 781.372 820.390, 781.370 822.004, 781.284 826.307, 781.058 829.919, 780.610 830.665, 780.518 830.694, 780.514 833.221, 780.201 " fill="none" stroke="rgb(0, 0, 0)" stroke-linecap="butt" stroke-linejoin="round" stroke-opacity="1.0" stroke-width="3.0" />
            <path d=" M 825.192, 720.917 821.429, 718.853 819.083, 717.234 818.904, 717.111 818.871, 717.087 818.643, 716.930 818.153, 716.592 816.789, 715.651 814.051, 714.486 813.748, 714.385 813.547, 714.319 813.230, 714.213 813.053, 714.154 812.361, 713.923 812.343, 713.918 812.196, 713.869 811.495, 713.605 811.263, 713.518 809.117, 712.713 808.777, 712.927 804.496, 715.622 804.492, 715.624 804.450, 715.650 804.416, 715.672 804.324, 715.729 803.941, 715.971 803.921, 715.983 803.006, 716.559 803.170, 717.550 803.413, 719.027 " fill="none" stroke="rgb(0, 0, 0)" stroke-linecap="butt" stroke-linejoin="round" stroke-opacity="1.0" stroke-width="3.0" />
            <path d=" M 756.594, 977.671 757.676, 980.046 758.128, 981.039 760.746, 984.827 766.004, 989.833 768.978, 992.470 773.640, 995.031 776.656, 995.574 " fill="none" stroke="rgb(0, 0, 0)" stroke-linecap="butt" stroke-linejoin="round" stroke-opacity="1.0" stroke-width="3.0" />
            <path d=" M 858.508, 1024.983 860.047, 1024.234 862.108, 1023.231 864.381, 1021.998 869.595, 1019.285 874.195, 1017.041 877.392, 1015.053 881.892, 1011.882 883.060, 1011.516 " fill="none" stroke="rgb(0, 0, 0)" stroke-linecap="butt" stroke-linejoin="round" stroke-opacity="1.0" stroke-width="3.0" />
            <path d=" M 848.337, 730.736 847.934, 730.677 840.354, 729.577 839.630, 729.472 835.077, 726.740 834.461, 726.324 833.459, 725.647 830.048, 723.342 829.856, 723.213 829.817, 723.186 829.441, 722.932 827.890, 721.885 827.318, 721.679 826.245, 721.295 825.500, 721.028 825.192, 720.917 822.743, 720.040 " fill="none" stroke="rgb(0, 0, 0)" stroke-linecap="butt" stroke-linejoin="round" stroke-opacity="1.0" stroke-width="3.0" />
            <path d=" M 772.536, 573.610 768.194, 572.533 764.500, 571.232 756.214, 567.439 755.939, 567.358 753.433, 567.230 751.945, 567.646 750.409, 568.787 750.154, 568.975 750.115, 569.005 750.059, 569.046 749.860, 569.313 748.594, 571.015 747.681, 573.053 " fill="none" stroke="rgb(0, 0, 0)" stroke-linecap="butt" stroke-linejoin="round" stroke-opacity="1.0" stroke-width="3.0" />
            <path d=" M 552.773, 748.269 554.373, 744.306 552.236, 740.703 550.094, 739.940 546.321, 740.522 544.990, 741.102 539.540, 743.474 535.018, 746.599 534.979, 746.626 534.809, 746.744 534.684, 746.830 534.321, 747.081 533.884, 747.488 533.824, 747.544 " fill="none" stroke="rgb(0, 0, 0)" stroke-linecap="butt" stroke-linejoin="round" stroke-opacity="1.0" stroke-width="3.0" />
            <path d=" M 807.733, 642.883 806.156, 651.885 807.416, 661.346 809.332, 665.357 812.036, 668.264 814.080, 668.724 " fill="none" stroke="rgb(0, 0, 0)" stroke-linecap="butt" stroke-linejoin="round" stroke-opacity="1.0" stroke-width="3.0" />
            <path d=" M 783.773, 572.873 782.684, 572.898 774.525, 573.551 772.536, 573.610 769.747, 573.692 769.428, 573.776 769.284, 573.815 764.021, 575.201 757.831, 575.338 754.983, 574.101 " fill="none" stroke="rgb(0, 0, 0)" stroke-linecap="butt" stroke-linejoin="round" stroke-opacity="1.0" stroke-width="3.0" />
            <path d=" M 543.343, 675.871 540.352, 675.673 540.230, 675.665 538.323, 675.539 534.952, 676.020 528.172, 677.475 522.491, 677.671 520.821, 677.729 514.118, 679.053 " fill="none" stroke="rgb(0, 0, 0)" stroke-linecap="butt" stroke-linejoin="round" stroke-opacity="1.0" stroke-width="3.0" />
            <path d=" M 916.342, 644.033 916.233, 643.198 915.593, 640.421 914.968, 637.708 912.499, 631.189 910.961, 623.010 911.148, 620.499 910.770, 616.376 910.661, 615.196 " fill="none" stroke="rgb(0, 0, 0)" stroke-linecap="butt" stroke-linejoin="round" stroke-opacity="1.0" stroke-width="3.0" />
            <path d=" M 550.507, 606.068 550.261, 603.979 549.681, 603.461 542.733, 600.479 539.036, 599.695 533.521, 598.525 529.821, 599.177 525.844, 601.037 524.161, 601.825 " fill="none" stroke="rgb(0, 0, 0)" stroke-linecap="butt" stroke-linejoin="round" stroke-opacity="1.0" stroke-width="3.0" />
            <path d=" M 989.271, 668.503 981.913, 665.454 980.586, 664.904 975.949, 663.897 973.341, 663.241 967.918, 661.876 965.028, 660.496 961.090, 658.614 " fill="none" stroke="rgb(0, 0, 0)" stroke-linecap="butt" stroke-linejoin="round" stroke-opacity="1.0" stroke-width="3.0" />
            <path d=" M 488.474, 692.953 488.471, 693.010 488.330, 695.499 488.310, 695.855 488.304, 695.955 489.058, 697.158 490.393, 702.719 494.680, 706.659 499.415, 710.877 503.882, 712.638 505.999, 711.767 506.142, 711.708 506.816, 711.432 " fill="none" stroke="rgb(0, 0, 0)" stroke-linecap="butt" stroke-linejoin="round" stroke-opacity="1.0" stroke-width="3.0" />
            <path d=" M 719.070, 766.628 719.024, 766.967 718.946, 767.551 718.618, 769.992 716.538, 773.535 715.419, 775.442 715.307, 775.633 715.168, 775.869 715.158, 775.885 715.103, 775.980 715.087, 776.006 714.632, 776.781 713.919, 778.432 713.738, 778.852 716.254, 782.328 717.153, 782.891 720.585, 785.038 722.893, 785.002 727.965, 784.924 728.327, 784.919 " fill="none" stroke="rgb(0, 0, 0)" stroke-linecap="butt" stroke-linejoin="round" stroke-opacity="1.0" stroke-width="3.0" />
            <path d=" M 880.958, 978.060 884.016, 978.792 888.073, 979.464 893.345, 978.879 894.866, 979.357 899.048, 980.671 903.969, 981.496 906.627, 982.193 910.980, 983.335 " fill="none" stroke="rgb(0, 0, 0)" stroke-linecap="butt" stroke-linejoin="round" stroke-opacity="1.0" stroke-width="3.0" />
            <path d=" M 1064.830, 771.698 1064.946, 770.935 1065.052, 770.235 1065.049, 770.071 1065.044, 769.857 1064.942, 765.240 1064.935, 764.924 1064.928, 764.637 1064.920, 764.256 1064.912, 763.880 1064.912, 763.879 1064.906, 763.852 1064.411, 761.269 1064.394, 761.179 1064.265, 760.506 1063.312, 755.542 1062.304, 752.485 1061.768, 750.862 1060.925, 748.304 1058.947, 742.307 1058.679, 741.496 " fill="none" stroke="rgb(0, 0, 0)" stroke-linecap="butt" stroke-linejoin="round" stroke-opacity="1.0" stroke-width="3.0" />
            <path d=" M 710.231, 749.086 710.269, 749.745 710.270, 749.765 710.427, 752.493 710.433, 752.601 710.479, 753.400 709.819, 754.901 708.961, 756.852 705.017, 759.632 703.736, 760.535 703.729, 760.540 702.774, 761.213 701.725, 763.439 701.622, 763.656 701.206, 764.872 704.576, 769.543 706.188, 771.327 708.083, 772.682 709.472, 773.113 " fill="none" stroke="rgb(0, 0, 0)" stroke-linecap="butt" stroke-linejoin="round" stroke-opacity="1.0" stroke-width="3.0" />
            <path d=" M 784.562, 676.200 783.744, 676.490 783.729, 676.495 781.724, 677.206 780.417, 677.677 779.719, 678.397 779.547, 678.575 779.384, 678.743 779.070, 679.636 778.986, 679.875 778.707, 680.669 776.799, 683.421 776.696, 686.160 775.999, 688.613 775.542, 691.816 774.637, 695.578 774.395, 698.160 773.990, 699.846 773.058, 701.149 773.658, 703.213 " fill="none" stroke="rgb(0, 0, 0)" stroke-linecap="butt" stroke-linejoin="round" stroke-opacity="1.0" stroke-width="3.0" />
            <path d=" M 892.913, 544.418 891.331, 544.168 890.604, 544.053 889.630, 543.899 887.247, 543.521 886.851, 543.459 886.816, 543.453 886.534, 543.408 886.519, 543.406 886.126, 543.344 881.053, 542.541 878.915, 542.239 874.846, 542.347 871.473, 543.445 870.052, 543.907 869.738, 544.244 867.700, 546.427 866.642, 548.232 866.425, 551.486 " fill="none" stroke="rgb(0, 0, 0)" stroke-linecap="butt" stroke-linejoin="round" stroke-opacity="1.0" stroke-width="3.0" />
            <path d=" M 1069.805, 874.988 1071.437, 865.122 1071.770, 863.104 1072.873, 860.691 1073.245, 859.877 1073.910, 858.422 1074.035, 858.125 1076.106, 853.214 1077.521, 849.629 1078.165, 847.924 1079.501, 844.384 " fill="none" stroke="rgb(0, 0, 0)" stroke-linecap="butt" stroke-linejoin="round" stroke-opacity="1.0" stroke-width="3.0" />
            <path d=" M 785.984, 841.125 785.305, 838.206 782.932, 830.494 782.017, 823.527 782.056, 817.726 782.406, 813.317 783.317, 810.131 783.662, 809.275 " fill="none" stroke="rgb(0, 0, 0)" stroke-linecap="butt" stroke-linejoin="round" stroke-opacity="1.0" stroke-width="3.0" />
            <path d=" M 555.221, 618.828 552.011, 616.819 551.511, 616.506 549.530, 614.723 548.052, 614.086 547.696, 613.856 547.148, 613.500 545.830, 612.645 545.207, 612.241 544.069, 611.503 543.055, 611.331 542.210, 611.187 541.978, 611.148 540.653, 610.753 539.073, 610.282 534.685, 610.088 532.524, 609.605 531.295, 607.593 530.959, 606.977 530.172, 605.533 529.565, 605.383 528.123, 605.025 528.109, 605.022 527.764, 604.936 527.257, 604.811 527.200, 604.797 526.982, 604.742 " fill="none" stroke="rgb(0, 0, 0)" stroke-linecap="butt" stroke-linejoin="round" stroke-opacity="1.0" stroke-width="3.0" />
            <path d=" M 629.693, 626.887 619.740, 625.918 616.852, 625.637 606.876, 624.948 596.964, 624.262 596.396, 624.223 " fill="none" stroke="rgb(0, 0, 0)" stroke-linecap="butt" stroke-linejoin="round" stroke-opacity="1.0" stroke-width="3.0" />
            <path d=" M 1003.977, 672.282 1002.261, 669.511 999.561, 666.022 994.616, 659.794 989.978, 656.102 989.416, 655.800 984.855, 654.550 984.169, 654.362 984.087, 654.339 984.072, 654.335 984.001, 654.316 983.833, 654.270 983.528, 654.186 978.597, 652.834 " fill="none" stroke="rgb(0, 0, 0)" stroke-linecap="butt" stroke-linejoin="round" stroke-opacity="1.0" stroke-width="3.0" />
            <path d=" M 745.521, 581.079 745.427, 581.552 745.347, 581.576 745.053, 581.664 744.888, 581.714 744.736, 581.760 744.263, 581.902 744.185, 581.925 742.212, 582.518 740.926, 582.469 740.624, 582.458 740.301, 582.445 740.250, 582.443 739.141, 582.401 738.890, 582.391 737.965, 582.356 737.963, 582.356 736.976, 582.318 736.594, 582.422 735.920, 582.604 735.830, 582.629 734.983, 582.858 734.961, 582.864 734.633, 582.953 734.493, 582.991 734.276, 583.050 734.191, 583.073 733.901, 583.278 732.748, 584.093 728.390, 587.173 727.236, 587.989 727.119, 588.617 726.910, 589.734 727.363, 590.580 728.182, 592.108 728.815, 593.290 729.326, 594.244 729.354, 594.296 730.059, 595.613 730.197, 595.871 730.220, 595.913 731.016, 596.558 731.038, 596.576 732.769, 597.977 733.177, 598.308 733.535, 598.597 " fill="none" stroke="rgb(0, 0, 0)" stroke-linecap="butt" stroke-linejoin="round" stroke-opacity="1.0" stroke-width="3.0" />
            <path d=" M 714.218, 736.690 713.970, 737.346 713.392, 738.874 712.581, 741.022 712.014, 742.013 711.821, 742.349 711.025, 743.742 709.547, 746.243 708.347, 748.273 705.031, 751.070 704.963, 751.128 700.659, 753.803 699.592, 755.551 698.832, 756.795 698.575, 758.213 700.762, 762.363 701.725, 763.439 " fill="none" stroke="rgb(0, 0, 0)" stroke-linecap="butt" stroke-linejoin="round" stroke-opacity="1.0" stroke-width="3.0" />
            <path d=" M 1045.484, 715.365 1044.220, 713.162 1037.637, 705.634 1036.492, 704.325 1034.023, 701.501 1032.978, 700.007 1032.864, 699.843 1032.791, 699.772 1032.406, 699.395 1032.369, 699.359 1025.226, 692.361 1022.496, 689.685 " fill="none" stroke="rgb(0, 0, 0)" stroke-linecap="butt" stroke-linejoin="round" stroke-opacity="1.0" stroke-width="3.0" />
            <path d=" M 965.392, 768.013 961.982, 763.815 957.071, 758.368 953.252, 753.084 949.720, 747.596 949.675, 747.551 949.519, 747.395 947.495, 745.373 946.474, 744.353 943.907, 741.287 943.670, 741.004 " fill="none" stroke="rgb(0, 0, 0)" stroke-linecap="butt" stroke-linejoin="round" stroke-opacity="1.0" stroke-width="3.0" />
            <path d=" M 931.708, 693.551 931.666, 692.275 930.813, 684.922 931.292, 681.613 931.156, 679.597 929.273, 676.546 928.414, 673.997 927.292, 671.120 924.788, 667.940 923.471, 665.294 923.050, 664.448 922.988, 664.323 922.423, 662.112 922.191, 661.831 921.852, 661.421 921.729, 661.272 " fill="none" stroke="rgb(0, 0, 0)" stroke-linecap="butt" stroke-linejoin="round" stroke-opacity="1.0" stroke-width="3.0" />
            <path d=" M 1066.502, 884.639 1066.643, 883.903 1066.668, 883.771 1067.303, 880.453 1069.805, 874.988 1066.612, 881.001 1066.397, 881.863 1066.339, 882.099 1066.226, 882.550 1065.108, 887.034 1064.951, 887.664 1064.219, 890.600 1063.626, 892.435 1062.835, 894.663 1061.301, 898.316 1061.185, 898.594 " fill="none" stroke="rgb(0, 0, 0)" stroke-linecap="butt" stroke-linejoin="round" stroke-opacity="1.0" stroke-width="3.0" />
            <path d=" M 479.761, 861.418 480.616, 862.619 483.123, 866.138 487.256, 868.105 492.387, 872.017 497.998, 873.943 500.909, 874.217 505.451, 875.488 511.060, 875.722 " fill="none" stroke="rgb(0, 0, 0)" stroke-linecap="butt" stroke-linejoin="round" stroke-opacity="1.0" stroke-width="3.0" />
            <path d=" M 1044.681, 926.672 1045.007, 926.635 1049.338, 925.229 1050.867, 924.257 1054.012, 921.374 1055.173, 919.698 1055.220, 919.630 1055.303, 919.510 1055.351, 919.441 1058.194, 915.339 1059.099, 912.273 1059.164, 912.055 1060.347, 908.050 1060.857, 907.294 1062.411, 904.993 1062.483, 904.886 1062.615, 904.690 1062.640, 904.654 1062.664, 904.617 1062.819, 904.388 1062.848, 904.346 1063.523, 903.345 1063.885, 902.214 1065.004, 898.721 " fill="none" stroke="rgb(0, 0, 0)" stroke-linecap="butt" stroke-linejoin="round" stroke-opacity="1.0" stroke-width="3.0" />
            <path d=" M 870.551, 851.694 870.746, 856.167 870.461, 863.076 868.687, 871.627 870.698, 879.835 871.947, 884.147 873.041, 887.922 " fill="none" stroke="rgb(0, 0, 0)" stroke-linecap="butt" stroke-linejoin="round" stroke-opacity="1.0" stroke-width="3.0" />
            <path d=" M 884.939, 734.037 875.094, 732.284 873.330, 731.970 871.790, 731.719 868.438, 731.173 865.457, 730.687 860.116, 731.295 859.984, 731.286 859.546, 731.258 855.147, 730.977 853.302, 730.859 847.934, 730.677 " fill="none" stroke="rgb(0, 0, 0)" stroke-linecap="butt" stroke-linejoin="round" stroke-opacity="1.0" stroke-width="3.0" />
            <path d=" M 719.266, 752.839 717.247, 754.403 717.108, 755.717 717.023, 756.519 716.750, 757.307 715.837, 759.944 715.419, 762.978 715.097, 764.159 714.783, 765.307 713.488, 767.348 712.639, 768.685 711.686, 769.944 711.655, 769.985 711.497, 770.192 711.286, 770.471 711.110, 770.704 711.055, 770.777 709.656, 772.623 709.472, 773.113 708.607, 775.423 712.662, 780.768 714.388, 781.812 716.791, 782.883 717.153, 782.891 " fill="none" stroke="rgb(0, 0, 0)" stroke-linecap="butt" stroke-linejoin="round" stroke-opacity="1.0" stroke-width="3.0" />
            <path d=" M 779.670, 643.778 781.422, 642.654 781.440, 642.643 788.527, 638.099 794.949, 633.737 795.224, 633.550 795.226, 633.549 795.270, 633.519 796.982, 632.221 798.327, 631.200 801.375, 628.889 809.463, 624.195 809.599, 624.116 809.683, 624.067 810.557, 623.560 811.318, 623.118 " fill="none" stroke="rgb(0, 0, 0)" stroke-linecap="butt" stroke-linejoin="round" stroke-opacity="1.0" stroke-width="3.0" />
            <path d=" M 736.640, 819.769 737.211, 821.902 737.240, 822.010 737.447, 822.782 738.856, 828.049 742.149, 831.732 743.986, 833.579 747.742, 835.591 749.218, 836.381 750.265, 836.942 754.285, 841.836 754.872, 842.551 756.539, 845.609 757.217, 846.854 758.423, 849.066 " fill="none" stroke="rgb(0, 0, 0)" stroke-linecap="butt" stroke-linejoin="round" stroke-opacity="1.0" stroke-width="3.0" />
            <path d=" M 582.011, 767.120 582.520, 762.535 583.654, 759.181 582.604, 757.378 578.516, 756.211 574.579, 757.624 565.632, 762.090 563.853, 762.977 563.491, 763.158 562.535, 763.635 559.374, 764.355 557.654, 765.139 557.541, 765.178 556.507, 765.533 " fill="none" stroke="rgb(0, 0, 0)" stroke-linecap="butt" stroke-linejoin="round" stroke-opacity="1.0" stroke-width="3.0" />
            <path d=" M 803.516, 762.064 805.250, 763.589 809.354, 765.611 815.325, 767.597 817.715, 769.420 817.801, 769.486 819.357, 770.672 820.752, 771.737 820.770, 771.750 821.222, 772.095 821.720, 772.474 821.989, 772.658 822.942, 773.307 825.988, 775.381 826.781, 775.735 827.095, 775.874 827.147, 775.898 827.832, 776.203 831.294, 777.746 831.859, 777.997 832.079, 778.096 832.283, 778.187 832.832, 779.230 833.051, 779.646 833.272, 780.067 833.335, 780.187 833.500, 780.500 833.590, 780.671 833.881, 781.224 834.977, 783.306 " fill="none" stroke="rgb(0, 0, 0)" stroke-linecap="butt" stroke-linejoin="round" stroke-opacity="1.0" stroke-width="3.0" />
            <path d=" M 743.385, 752.567 743.185, 752.644 743.046, 752.697 742.990, 752.719 742.956, 752.698 742.239, 752.256 742.194, 752.229 742.054, 752.142 742.031, 752.128 741.720, 751.937 739.655, 750.666 736.421, 750.262 734.722, 749.349 732.372, 748.085 727.780, 747.060 727.589, 747.017 727.564, 747.011 727.239, 746.939 722.559, 747.482 721.197, 747.806 720.257, 749.870 719.277, 752.428 719.266, 752.839 719.202, 755.061 719.201, 755.102 719.101, 758.576 719.892, 762.539 719.982, 762.989 719.996, 763.059 " fill="none" stroke="rgb(0, 0, 0)" stroke-linecap="butt" stroke-linejoin="round" stroke-opacity="1.0" stroke-width="3.0" />
            <path d=" M 453.090, 812.031 453.050, 812.190 451.875, 816.827 451.063, 820.466 452.010, 826.255 452.553, 828.725 455.070, 832.837 456.279, 838.054 460.433, 843.725 462.817, 846.886 463.470, 847.753 " fill="none" stroke="rgb(0, 0, 0)" stroke-linecap="butt" stroke-linejoin="round" stroke-opacity="1.0" stroke-width="3.0" />
            <path d=" M 797.973, 587.864 799.649, 588.125 799.981, 588.177 800.140, 588.202 800.571, 588.260 802.706, 588.544 803.264, 588.618 803.995, 588.716 809.392, 588.388 810.896, 588.297 818.613, 587.421 827.972, 583.898 831.860, 582.434 836.115, 580.643 " fill="none" stroke="rgb(0, 0, 0)" stroke-linecap="butt" stroke-linejoin="round" stroke-opacity="1.0" stroke-width="3.0" />
            <path d=" M 1064.411, 761.269 1064.411, 761.208 1064.410, 760.646 1064.406, 756.155 1063.443, 753.437 1062.652, 751.204 1060.165, 744.183 1058.230, 740.022 1054.157, 731.268 1052.494, 727.397 1050.673, 724.169 " fill="none" stroke="rgb(0, 0, 0)" stroke-linecap="butt" stroke-linejoin="round" stroke-opacity="1.0" stroke-width="3.0" />
            <path d=" M 910.444, 610.830 910.307, 608.204 911.023, 604.001 911.626, 598.687 912.248, 595.149 913.243, 592.160 915.214, 582.928 915.268, 582.676 916.778, 579.185 917.259, 577.079 917.997, 573.847 918.771, 571.016 919.051, 569.994 919.052, 569.989 " fill="none" stroke="rgb(0, 0, 0)" stroke-linecap="butt" stroke-linejoin="round" stroke-opacity="1.0" stroke-width="3.0" />
            <path d=" M 547.464, 887.110 544.714, 886.627 540.347, 885.862 534.562, 882.259 527.768, 880.467 520.668, 877.321 516.680, 876.147 511.060, 875.722 512.483, 874.373 514.385, 873.032 " fill="none" stroke="rgb(0, 0, 0)" stroke-linecap="butt" stroke-linejoin="round" stroke-opacity="1.0" stroke-width="3.0" />
            <path d=" M 984.299, 653.787 987.086, 648.846 987.956, 643.842 987.314, 639.274 985.850, 634.788 984.131, 632.404 982.634, 630.257 981.939, 629.293 980.170, 627.176 979.228, 626.278 977.014, 626.022 975.057, 626.075 973.965, 626.476 972.106, 627.796 971.198, 629.198 970.458, 630.341 970.967, 629.385 971.198, 629.198 " fill="none" stroke="rgb(0, 0, 0)" stroke-linecap="butt" stroke-linejoin="round" stroke-opacity="1.0" stroke-width="3.0" />
            <path d=" M 627.457, 814.943 626.994, 814.617 624.168, 812.629 619.762, 810.871 616.033, 809.760 610.851, 806.500 604.233, 804.467 595.407, 799.764 592.836, 798.394 588.885, 796.289 " fill="none" stroke="rgb(0, 0, 0)" stroke-linecap="butt" stroke-linejoin="round" stroke-opacity="1.0" stroke-width="3.0" />
            <path d=" M 890.671, 685.530 888.230, 683.323 885.992, 680.689 883.703, 679.084 879.394, 676.911 869.402, 676.522 869.235, 676.515 863.672, 676.177 858.901, 675.249 858.666, 675.203 855.624, 674.612 855.128, 674.516 854.817, 674.455 851.364, 673.784 850.598, 673.635 " fill="none" stroke="rgb(0, 0, 0)" stroke-linecap="butt" stroke-linejoin="round" stroke-opacity="1.0" stroke-width="3.0" />
            <path d=" M 539.036, 599.695 538.973, 598.524 538.498, 597.378 533.282, 595.911 529.279, 593.623 527.615, 592.142 527.114, 591.696 525.041, 590.598 520.461, 589.783 520.034, 589.833 515.261, 590.391 507.424, 593.670 505.089, 593.796 504.325, 593.526 503.462, 593.222 503.250, 593.147 503.202, 593.130 500.562, 592.415 500.072, 592.282 " fill="none" stroke="rgb(0, 0, 0)" stroke-linecap="butt" stroke-linejoin="round" stroke-opacity="1.0" stroke-width="3.0" />
            <path d=" M 677.469, 644.287 677.389, 644.192 676.752, 643.444 676.186, 642.779 676.097, 642.674 675.067, 641.465 671.497, 641.138 662.554, 643.261 654.225, 646.161 650.675, 647.397 645.621, 649.054 642.387, 651.425 640.563, 652.763 640.519, 652.795 639.321, 653.673 639.262, 653.716 638.768, 654.078 638.636, 654.175 638.026, 654.622 " fill="none" stroke="rgb(0, 0, 0)" stroke-linecap="butt" stroke-linejoin="round" stroke-opacity="1.0" stroke-width="3.0" />
            <path d=" M 663.514, 840.313 661.323, 838.512 656.556, 835.364 651.673, 832.176 647.180, 828.741 641.616, 824.175 638.714, 821.810 632.606, 817.443 626.994, 814.617 " fill="none" stroke="rgb(0, 0, 0)" stroke-linecap="butt" stroke-linejoin="round" stroke-opacity="1.0" stroke-width="3.0" />
            <path d=" M 959.419, 648.361 955.164, 648.212 948.697, 647.378 944.679, 647.023 940.012, 646.285 934.418, 645.239 929.639, 644.824 924.125, 643.283 921.477, 642.771 915.593, 640.421 " fill="none" stroke="rgb(0, 0, 0)" stroke-linecap="butt" stroke-linejoin="round" stroke-opacity="1.0" stroke-width="3.0" />
            <path d=" M 776.286, 995.408 776.656, 995.574 777.560, 995.978 783.138, 998.470 784.117, 998.907 784.304, 998.991 785.193, 999.388 788.573, 1001.432 796.077, 1005.970 805.956, 1007.519 806.566, 1007.615 811.054, 1008.709 812.306, 1009.195 813.304, 1009.582 813.315, 1009.586 813.439, 1009.634 813.588, 1009.692 813.604, 1009.698 813.792, 1009.771 813.855, 1009.796 813.966, 1009.839 813.966, 1009.839 813.966, 1009.839 816.379, 1010.775 817.756, 1012.089 " fill="none" stroke="rgb(0, 0, 0)" stroke-linecap="butt" stroke-linejoin="round" stroke-opacity="1.0" stroke-width="3.0" />
            <path d=" M 941.345, 735.759 940.278, 732.207 939.682, 728.853 936.499, 723.781 933.755, 714.165 933.055, 711.713 932.290, 705.876 933.692, 698.865 933.617, 698.665 931.708, 693.551 931.148, 692.054 " fill="none" stroke="rgb(0, 0, 0)" stroke-linecap="butt" stroke-linejoin="round" stroke-opacity="1.0" stroke-width="3.0" />
            <path d=" M 871.473, 543.445 867.965, 543.140 864.960, 542.892 861.340, 542.595 854.007, 542.704 848.580, 543.485 841.941, 544.355 840.885, 544.596 838.394, 544.976 835.275, 545.917 826.113, 549.074 " fill="none" stroke="rgb(0, 0, 0)" stroke-linecap="butt" stroke-linejoin="round" stroke-opacity="1.0" stroke-width="3.0" />
            <path d=" M 647.653, 695.306 648.071, 695.282 651.215, 695.101 653.602, 694.363 656.551, 692.598 663.102, 689.861 668.369, 689.368 673.133, 690.430 678.476, 692.581 680.084, 692.643 685.461, 692.850 692.223, 693.113 " fill="none" stroke="rgb(0, 0, 0)" stroke-linecap="butt" stroke-linejoin="round" stroke-opacity="1.0" stroke-width="3.0" />
            <path d=" M 886.188, 801.022 886.123, 800.374 886.061, 799.744 885.779, 796.900 886.026, 796.100 886.393, 794.912 886.393, 794.910 886.356, 793.826 886.347, 793.548 886.347, 793.540 886.339, 793.306 886.338, 793.302 886.282, 791.651 885.718, 790.835 883.246, 789.047 882.374, 788.415 878.422, 785.556 871.458, 784.706 863.407, 783.691 857.933, 784.993 855.032, 786.529 852.868, 788.336 " fill="none" stroke="rgb(0, 0, 0)" stroke-linecap="butt" stroke-linejoin="round" stroke-opacity="1.0" stroke-width="3.0" />
            <path d=" M 654.225, 646.161 645.397, 645.823 643.923, 646.085 636.536, 645.339 631.911, 644.183 628.045, 642.563 624.194, 641.986 619.324, 640.948 613.935, 640.758 611.661, 641.044 611.137, 641.111 607.436, 641.578 " fill="none" stroke="rgb(0, 0, 0)" stroke-linecap="butt" stroke-linejoin="round" stroke-opacity="1.0" stroke-width="3.0" />
            <path d=" M 516.678, 584.650 517.943, 583.483 513.832, 580.657 510.855, 579.970 504.245, 579.651 497.732, 580.517 492.039, 583.501 489.094, 583.126 487.680, 582.946 484.284, 583.421 484.008, 583.459 484.007, 583.460 483.624, 583.513 479.792, 584.049 475.131, 583.814 475.018, 583.808 475.017, 583.808 474.898, 583.802 474.168, 583.765 473.662, 583.740 473.461, 583.730 " fill="none" stroke="rgb(0, 0, 0)" stroke-linecap="butt" stroke-linejoin="round" stroke-opacity="1.0" stroke-width="3.0" />
            <path d=" M 527.615, 592.142 528.271, 590.333 528.612, 589.003 527.998, 588.143 523.930, 586.365 519.413, 585.372 516.678, 584.650 516.322, 584.556 512.678, 583.593 511.887, 583.628 510.981, 583.667 504.647, 583.941 499.285, 586.119 498.863, 586.290 498.765, 586.330 498.724, 586.346 496.754, 587.147 494.188, 586.408 489.620, 586.159 488.732, 586.111 486.881, 585.947 486.476, 585.912 484.871, 585.770 484.739, 585.759 483.901, 585.685 " fill="none" stroke="rgb(0, 0, 0)" stroke-linecap="butt" stroke-linejoin="round" stroke-opacity="1.0" stroke-width="3.0" />
            <path d=" M 851.364, 673.784 847.424, 672.649 841.722, 670.883 836.511, 669.212 836.374, 669.168 835.529, 668.897 835.289, 668.773 834.593, 668.414 834.272, 668.249 833.594, 667.430 833.563, 667.393 832.586, 666.213 831.880, 665.361 831.588, 665.008 831.374, 664.970 829.724, 664.681 828.021, 664.382 828.003, 664.379 827.781, 664.340 827.648, 664.316 827.639, 664.318 824.209, 664.870 823.310, 665.616 821.833, 666.842 819.580, 668.713 818.768, 669.781 818.014, 670.774 814.637, 675.217 809.012, 679.485 " fill="none" stroke="rgb(0, 0, 0)" stroke-linecap="butt" stroke-linejoin="round" stroke-opacity="1.0" stroke-width="3.0" />
            <path d=" M 826.393, 612.873 825.604, 610.520 823.264, 608.107 817.734, 606.489 817.638, 606.460 816.701, 606.432 816.615, 606.429 816.602, 606.428 815.525, 606.395 815.503, 606.395 810.874, 606.252 809.743, 606.222 806.191, 606.130 798.218, 605.327 797.683, 605.310 794.593, 605.214 791.064, 605.104 790.671, 605.091 790.528, 605.081 790.466, 605.076 790.346, 605.067 790.346, 605.067 789.619, 605.012 789.146, 604.977 788.957, 604.963 788.877, 604.957 788.847, 604.954 788.740, 604.946 785.622, 604.712 784.716, 604.656 784.564, 604.646 781.967, 604.484 777.976, 604.234 " fill="none" stroke="rgb(0, 0, 0)" stroke-linecap="butt" stroke-linejoin="round" stroke-opacity="1.0" stroke-width="3.0" />
            <path d=" M 809.107, 836.940 812.610, 838.325 812.666, 838.347 812.676, 838.351 813.412, 838.642 814.148, 838.933 814.618, 839.118 814.624, 839.120 814.701, 839.151 814.760, 839.174 814.761, 839.175 814.940, 839.245 815.517, 839.473 815.701, 839.546 815.722, 839.555 815.890, 839.621 815.972, 839.653 816.480, 839.854 816.572, 839.890 817.105, 840.051 817.332, 840.119 817.524, 840.177 821.487, 841.371 831.128, 840.197 836.701, 837.515 841.600, 834.839 850.552, 830.382 851.068, 830.126 854.030, 829.804 857.522, 829.424 " fill="none" stroke="rgb(0, 0, 0)" stroke-linecap="butt" stroke-linejoin="round" stroke-opacity="1.0" stroke-width="3.0" />
            <path d=" M 524.562, 709.913 525.281, 710.023 525.365, 710.036 525.959, 710.127 530.034, 710.751 539.916, 710.905 544.461, 710.888 551.385, 709.812 558.565, 711.372 567.643, 710.263 571.881, 709.722 574.548, 708.748 575.826, 708.282 " fill="none" stroke="rgb(0, 0, 0)" stroke-linecap="butt" stroke-linejoin="round" stroke-opacity="1.0" stroke-width="3.0" />
            <path d=" M 933.346, 555.488 933.236, 554.814 932.139, 552.965 927.217, 549.404 917.922, 545.715 917.612, 545.592 915.823, 545.010 907.911, 543.546 902.724, 543.290 897.947, 543.350 894.460, 544.224 894.449, 544.227 894.297, 544.265 894.046, 544.328 893.999, 544.340 893.858, 544.375 893.717, 544.410 893.701, 544.414 893.410, 544.487 893.385, 544.493 893.347, 544.503 893.169, 544.548 892.993, 544.592 892.969, 544.597 891.203, 545.040 886.799, 547.005 886.672, 547.062 886.581, 547.103 885.264, 547.691 " fill="none" stroke="rgb(0, 0, 0)" stroke-linecap="butt" stroke-linejoin="round" stroke-opacity="1.0" stroke-width="3.0" />
            <path d=" M 769.151, 847.094 768.851, 847.162 763.615, 848.344 758.689, 849.456 758.642, 849.467 758.177, 849.572 758.166, 849.575 752.976, 850.747 752.116, 850.941 751.991, 850.969 751.369, 851.163 747.188, 852.980 739.338, 855.929 733.945, 859.362 726.885, 864.888 723.861, 868.517 722.662, 870.996 " fill="none" stroke="rgb(0, 0, 0)" stroke-linecap="butt" stroke-linejoin="round" stroke-opacity="1.0" stroke-width="3.0" />
            <path d=" M 1058.230, 740.022 1056.682, 733.558 1051.719, 724.877 1049.554, 721.091 1045.484, 715.365 1043.302, 712.294 1038.373, 706.763 1037.230, 705.569 1035.972, 704.255 1031.472, 699.551 1028.512, 696.269 1028.164, 695.883 1027.807, 695.487 " fill="none" stroke="rgb(0, 0, 0)" stroke-linecap="butt" stroke-linejoin="round" stroke-opacity="1.0" stroke-width="3.0" />
            <path d=" M 871.947, 884.147 868.749, 893.622 867.956, 895.971 867.158, 903.186 864.721, 909.921 858.580, 917.813 857.614, 919.054 852.276, 925.098 852.263, 925.114 849.137, 928.653 848.767, 929.072 847.608, 930.226 847.308, 930.525 846.242, 931.979 845.981, 932.335 " fill="none" stroke="rgb(0, 0, 0)" stroke-linecap="butt" stroke-linejoin="round" stroke-opacity="1.0" stroke-width="3.0" />
            <path d=" M 882.187, 1011.652 883.060, 1011.516 891.414, 1010.216 895.250, 1010.166 899.144, 1010.265 904.556, 1011.806 910.333, 1010.826 913.749, 1009.545 917.731, 1008.562 921.200, 1008.280 923.327, 1008.216 928.808, 1008.249 934.748, 1007.789 938.674, 1006.323 939.950, 1006.208 941.704, 1006.049 " fill="none" stroke="rgb(0, 0, 0)" stroke-linecap="butt" stroke-linejoin="round" stroke-opacity="1.0" stroke-width="3.0" />
            <path d=" M 727.840, 708.583 726.371, 707.591 725.760, 707.179 720.617, 703.708 719.316, 702.830 717.599, 702.487 717.288, 702.466 711.630, 702.096 707.207, 703.096 705.553, 703.914 705.523, 707.856 704.937, 710.854 705.566, 713.439 704.759, 714.307 701.545, 715.850 697.608, 717.054 693.393, 718.886 693.098, 719.362 692.230, 721.311 694.683, 724.693 696.561, 728.101 698.745, 731.021 " fill="none" stroke="rgb(0, 0, 0)" stroke-linecap="butt" stroke-linejoin="round" stroke-opacity="1.0" stroke-width="3.0" />
            <path d=" M 732.901, 723.237 730.885, 722.158 725.081, 719.053 724.543, 718.945 724.008, 718.837 723.755, 718.787 723.637, 718.763 718.402, 717.711 717.039, 717.444 715.173, 717.970 712.525, 719.600 711.594, 720.174 710.175, 723.364 707.807, 728.373 706.445, 731.253 706.414, 734.027 706.291, 734.438 705.646, 736.586 705.076, 738.164 704.421, 739.976 704.317, 740.265 702.743, 742.046 699.640, 743.317 699.591, 743.337 697.996, 743.991 697.356, 744.732 695.093, 747.355 696.264, 749.057 699.082, 751.734 " fill="none" stroke="rgb(0, 0, 0)" stroke-linecap="butt" stroke-linejoin="round" stroke-opacity="1.0" stroke-width="3.0" />
            <path d=" M 977.589, 665.332 973.064, 664.163 973.055, 664.160 969.372, 663.208 967.022, 661.910 963.829, 660.147 961.144, 658.664 961.090, 658.614 961.067, 658.592 959.431, 657.080 953.289, 651.401 946.959, 651.241 942.307, 649.999 937.464, 650.003 933.714, 650.787 928.581, 650.659 920.630, 651.273 918.424, 651.332 " fill="none" stroke="rgb(0, 0, 0)" stroke-linecap="butt" stroke-linejoin="round" stroke-opacity="1.0" stroke-width="3.0" />
            <path d=" M 1043.531, 877.017 1043.541, 876.498 1043.611, 872.735 1042.751, 864.556 1042.221, 862.810 1037.053, 855.806 1032.153, 850.911 1029.247, 847.217 1023.075, 839.325 1020.901, 836.550 1014.857, 829.786 1011.534, 826.066 1010.501, 824.910 " fill="none" stroke="rgb(0, 0, 0)" stroke-linecap="butt" stroke-linejoin="round" stroke-opacity="1.0" stroke-width="3.0" />
            <path d=" M 717.562, 876.570 711.744, 872.828 708.066, 869.735 706.978, 868.913 702.829, 866.097 698.880, 863.004 692.326, 858.535 686.280, 855.060 681.645, 851.842 679.322, 850.875 674.935, 847.588 671.640, 845.446 669.492, 844.122 663.514, 840.313 663.230, 840.133 " fill="none" stroke="rgb(0, 0, 0)" stroke-linecap="butt" stroke-linejoin="round" stroke-opacity="1.0" stroke-width="3.0" />
            <path d=" M 596.964, 624.262 592.056, 623.789 582.108, 622.768 575.609, 622.102 575.423, 622.083 570.475, 621.293 569.643, 621.161 563.045, 620.109 562.389, 620.004 557.966, 619.299 555.221, 618.828 552.436, 618.350 552.088, 618.279 549.483, 617.752 549.092, 617.673 548.944, 617.643 547.285, 617.307 547.272, 617.304 544.787, 616.801 543.845, 616.610 543.128, 616.465 542.869, 616.413 542.678, 616.375 541.783, 616.200 540.889, 616.025 540.846, 616.016 539.929, 615.836 538.952, 615.645 538.669, 615.589 538.602, 615.576 530.870, 614.060 530.832, 614.053 " fill="none" stroke="rgb(0, 0, 0)" stroke-linecap="butt" stroke-linejoin="round" stroke-opacity="1.0" stroke-width="3.0" />
            <path d=" M 757.038, 958.004 755.511, 959.222 752.444, 960.212 751.749, 962.074 752.694, 964.908 753.401, 967.037 753.714, 967.980 753.723, 968.009 754.131, 969.236 754.153, 969.304 754.285, 969.700 754.520, 970.408 755.461, 973.243 755.875, 976.091 755.934, 976.501 756.039, 977.221 756.594, 977.671 758.772, 979.434 765.918, 981.947 773.234, 982.869 773.473, 982.899 776.195, 983.242 776.213, 983.244 778.052, 983.475 779.361, 983.531 786.991, 983.851 793.773, 982.793 799.754, 982.246 800.739, 982.156 " fill="none" stroke="rgb(0, 0, 0)" stroke-linecap="butt" stroke-linejoin="round" stroke-opacity="1.0" stroke-width="3.0" />
            <path d=" M 856.680, 599.859 853.360, 600.686 851.634, 601.116 847.227, 602.215 837.834, 605.648 835.057, 606.663 830.759, 609.258 829.973, 609.900 829.929, 609.936 827.098, 612.247 826.393, 612.873 820.874, 617.769 819.956, 618.583 817.387, 621.700 815.561, 623.914 811.107, 628.684 807.803, 636.998 807.733, 642.883 807.720, 643.962 " fill="none" stroke="rgb(0, 0, 0)" stroke-linecap="butt" stroke-linejoin="round" stroke-opacity="1.0" stroke-width="3.0" />
            <path d=" M 506.480, 570.226 510.722, 567.947 512.185, 565.434 511.858, 564.109 511.365, 562.552 510.851, 561.937 507.089, 559.737 505.095, 558.839 500.518, 556.895 495.966, 557.293 493.711, 557.687 485.371, 559.989 480.597, 561.594 476.763, 563.142 473.109, 565.129 469.155, 567.911 465.812, 567.751 462.675, 569.614 458.147, 572.309 450.345, 576.603 " fill="none" stroke="rgb(0, 0, 0)" stroke-linecap="butt" stroke-linejoin="round" stroke-opacity="1.0" stroke-width="3.0" />
            <path d=" M 968.119, 771.065 965.392, 768.013 966.705, 770.125 969.562, 774.720 971.067, 776.972 973.137, 779.516 976.792, 784.615 980.113, 788.542 985.434, 794.572 992.135, 801.995 995.913, 806.180 1001.827, 814.244 1003.990, 817.193 1005.462, 818.811 1005.868, 819.258 1006.025, 819.431 1006.367, 819.808 1006.699, 820.173 1009.692, 823.821 1011.534, 826.066 " fill="none" stroke="rgb(0, 0, 0)" stroke-linecap="butt" stroke-linejoin="round" stroke-opacity="1.0" stroke-width="3.0" />
            <path d=" M 750.409, 568.787 748.306, 567.651 740.022, 564.168 734.090, 562.070 729.207, 560.633 720.820, 558.657 715.703, 557.602 710.960, 557.227 701.065, 555.780 697.438, 555.249 694.882, 555.894 694.590, 557.036 699.725, 559.432 704.463, 560.779 706.390, 562.013 713.570, 565.310 " fill="none" stroke="rgb(0, 0, 0)" stroke-linecap="butt" stroke-linejoin="round" stroke-opacity="1.0" stroke-width="3.0" />
            <path d=" M 700.321, 932.217 700.397, 929.083 700.584, 921.277 699.786, 911.309 699.227, 904.341 699.182, 903.778 699.034, 901.935 698.947, 891.935 698.906, 887.179 698.274, 885.097 698.127, 884.610 696.057, 882.965 692.407, 881.877 692.109, 881.870 688.041, 881.769 681.698, 880.018 673.916, 880.028 673.466, 880.028 671.045, 880.031 670.908, 880.032 670.511, 880.032 664.395, 878.742 " fill="none" stroke="rgb(0, 0, 0)" stroke-linecap="butt" stroke-linejoin="round" stroke-opacity="1.0" stroke-width="3.0" />
            <path d=" M 888.533, 543.038 887.720, 542.646 884.864, 541.280 877.045, 539.364 875.503, 539.001 869.473, 538.362 861.831, 538.063 856.693, 538.370 846.747, 539.407 846.608, 539.421 836.839, 541.556 831.704, 542.678 823.109, 546.053 820.063, 547.973 818.086, 549.463 812.105, 555.730 810.035, 559.583 810.054, 560.255 810.062, 560.551 " fill="none" stroke="rgb(0, 0, 0)" stroke-linecap="butt" stroke-linejoin="round" stroke-opacity="1.0" stroke-width="3.0" />
            <path d=" M 854.548, 787.448 852.868, 788.336 844.026, 793.006 842.461, 793.832 842.245, 793.946 842.239, 793.950 841.686, 794.216 840.957, 794.568 840.301, 794.884 836.061, 796.929 832.704, 799.372 825.583, 804.556 818.793, 810.779 816.502, 812.430 816.492, 812.437 816.302, 812.575 816.186, 812.658 816.093, 812.725 815.772, 812.957 814.876, 813.603 814.179, 814.310 811.400, 817.132 810.662, 817.882 808.565, 820.012 806.049, 822.567 805.795, 822.837 805.635, 823.007 803.803, 824.954 802.700, 826.126 802.675, 826.153 802.305, 826.546 802.006, 826.864 801.745, 827.141 799.607, 829.996 797.729, 832.296 793.706, 837.224 792.870, 838.247 792.546, 838.849 792.545, 838.852 790.683, 842.312 790.434, 843.553 790.824, 845.294 792.776, 848.281 " fill="none" stroke="rgb(0, 0, 0)" stroke-linecap="butt" stroke-linejoin="round" stroke-opacity="1.0" stroke-width="3.0" />
            <path d=" M 652.399, 954.612 655.034, 957.519 658.142, 960.842 661.065, 962.951 664.798, 966.758 671.033, 969.550 672.324, 969.910 673.911, 970.353 678.839, 971.728 682.154, 972.346 685.713, 973.054 693.076, 971.438 695.393, 969.946 698.601, 967.662 699.823, 966.103 700.665, 964.069 701.147, 962.896 701.599, 952.906 701.653, 951.724 701.616, 944.473 700.884, 934.500 700.634, 931.096 700.397, 929.083 " fill="none" stroke="rgb(0, 0, 0)" stroke-linecap="butt" stroke-linejoin="round" stroke-opacity="1.0" stroke-width="3.0" />
            <path d=" M 686.192, 693.084 686.816, 693.375 690.357, 695.025 693.147, 695.809 698.145, 695.808 705.637, 696.318 713.659, 695.679 716.909, 694.685 719.920, 693.763 722.761, 692.081 726.258, 689.682 726.690, 689.385 726.869, 689.262 726.873, 689.227 726.874, 689.216 726.893, 689.029 726.896, 689.004 727.404, 684.098 727.369, 683.778 727.221, 682.408 727.218, 682.382 727.205, 682.260 727.123, 681.506 726.034, 679.363 725.984, 679.267 723.202, 673.941 720.116, 671.725 717.754, 670.030 717.088, 669.551 707.723, 666.045 705.141, 665.078 701.363, 663.583 697.109, 661.205 693.797, 659.353 693.325, 659.008 692.634, 658.503 691.972, 658.019 " fill="none" stroke="rgb(0, 0, 0)" stroke-linecap="butt" stroke-linejoin="round" stroke-opacity="1.0" stroke-width="3.0" />
            <path d=" M 1078.165, 847.924 1080.411, 845.808 1082.690, 839.121 1085.442, 834.843 1087.115, 826.302 1087.413, 824.521 1086.866, 816.965 1086.572, 813.890 1086.042, 810.035 1086.249, 803.083 1086.312, 800.175 1086.125, 796.810 1085.947, 794.623 1085.788, 788.374 1085.089, 783.931 1084.060, 777.278 1083.382, 774.227 1080.130, 770.524 1079.713, 768.482 1078.798, 765.025 1077.954, 762.899 1073.176, 759.090 1072.054, 758.617 1071.683, 758.460 " fill="none" stroke="rgb(0, 0, 0)" stroke-linecap="butt" stroke-linejoin="round" stroke-opacity="1.0" stroke-width="3.0" />
            <path d=" M 724.371, 869.758 722.662, 870.996 720.931, 872.250 717.562, 876.570 717.415, 876.758 717.154, 878.119 715.266, 887.939 715.010, 889.272 715.033, 893.173 715.044, 894.913 715.088, 902.210 715.862, 905.317 716.266, 906.936 716.267, 906.940 716.310, 907.113 717.836, 913.232 721.595, 922.498 724.489, 929.630 729.139, 938.483 732.729, 945.316 737.999, 952.562 739.707, 955.684 743.360, 959.410 744.430, 960.387 747.320, 963.025 747.984, 963.630 " fill="none" stroke="rgb(0, 0, 0)" stroke-linecap="butt" stroke-linejoin="round" stroke-opacity="1.0" stroke-width="3.0" />
            <path d=" M 419.946, 658.855 419.618, 659.823 418.898, 661.953 419.097, 664.747 419.443, 668.477 419.652, 669.812 421.141, 674.955 422.562, 682.850 423.847, 691.899 424.894, 696.069 425.637, 701.341 426.611, 706.041 427.277, 709.784 429.008, 716.495 429.937, 721.914 430.855, 724.305 432.737, 730.789 433.798, 734.125 435.172, 738.884 436.490, 744.480 438.942, 750.449 440.241, 755.703 440.824, 757.789 443.107, 762.506 " fill="none" stroke="rgb(0, 0, 0)" stroke-linecap="butt" stroke-linejoin="round" stroke-opacity="1.0" stroke-width="3.0" />
            <path d=" M 752.653, 604.395 752.525, 604.399 752.425, 604.402 752.351, 604.405 752.182, 604.410 752.104, 604.412 752.084, 604.413 752.062, 604.414 751.894, 604.419 750.384, 604.466 748.461, 604.526 748.240, 604.533 747.914, 604.543 745.933, 604.645 745.211, 604.682 741.817, 604.856 739.384, 604.981 739.243, 604.988 739.073, 604.997 738.551, 605.024 736.670, 605.120 735.117, 605.200 733.425, 605.360 729.717, 605.711 722.172, 606.424 720.344, 606.764 719.540, 606.913 714.533, 607.843 704.807, 610.167 701.407, 610.978 694.272, 612.893 684.642, 615.588 683.414, 615.932 673.881, 618.955 673.186, 619.175 663.402, 621.239 659.483, 622.066 649.736, 624.301 648.992, 624.472 642.226, 626.023 640.574, 626.402 638.677, 626.837 " fill="none" stroke="rgb(0, 0, 0)" stroke-linecap="butt" stroke-linejoin="round" stroke-opacity="1.0" stroke-width="3.0" />
            <path d=" M 586.711, 934.476 590.757, 939.303 592.583, 940.939 597.906, 944.333 604.510, 947.301 607.098, 949.257 613.059, 952.514 618.447, 955.334 624.004, 958.087 631.241, 960.704 639.000, 961.079 646.196, 959.930 649.150, 957.606 651.502, 955.621 652.399, 954.612 655.967, 950.600 659.611, 949.016 659.348, 947.307 654.950, 944.070 652.786, 940.405 649.322, 936.774 641.310, 932.567 637.350, 931.012 631.508, 926.845 629.565, 924.539 626.952, 920.045 627.191, 916.605 626.650, 914.799 623.756, 913.880 623.460, 913.786 " fill="none" stroke="rgb(0, 0, 0)" stroke-linecap="butt" stroke-linejoin="round" stroke-opacity="1.0" stroke-width="3.0" />
            <path d=" M 939.950, 1006.208 945.177, 1006.541 948.965, 1006.401 951.504, 1006.973 953.450, 1008.350 958.638, 1009.637 961.729, 1010.296 966.447, 1010.122 968.828, 1009.274 972.197, 1009.508 976.721, 1008.197 982.488, 1005.767 988.262, 1002.564 993.830, 1000.036 1003.306, 996.841 1004.214, 996.535 1008.924, 994.992 1012.411, 992.286 1015.415, 985.111 1020.744, 976.761 1024.124, 972.396 1027.641, 966.138 1029.228, 962.258 1031.730, 954.188 1033.746, 944.393 1034.121, 942.574 1036.307, 937.688 1037.686, 934.835 1038.262, 933.573 1038.512, 933.022 1038.929, 932.109 1042.802, 928.898 1042.928, 928.749 1042.946, 928.727 1042.992, 928.674 1043.021, 928.638 1043.117, 928.525 1043.210, 928.415 1043.283, 928.329 1043.485, 928.089 1043.742, 927.784 1044.681, 926.672 1045.133, 926.137 " fill="none" stroke="rgb(0, 0, 0)" stroke-linecap="butt" stroke-linejoin="round" stroke-opacity="1.0" stroke-width="3.0" />
            <path d=" M 796.726, 691.769 793.974, 693.957 793.613, 694.244 793.438, 694.383 793.118, 694.637 788.110, 698.618 785.840, 699.949 785.731, 700.013 782.965, 701.635 782.950, 701.644 780.751, 702.933 780.703, 702.962 772.934, 707.517 769.973, 709.759 769.871, 709.836 769.665, 709.992 768.169, 711.125 760.384, 717.402 759.389, 718.204 755.586, 723.596 753.937, 726.912 753.919, 726.948 752.949, 728.898 752.796, 729.206 751.745, 731.319 751.718, 731.429 751.545, 732.141 750.188, 737.718 750.068, 739.170 749.802, 742.398 749.771, 742.764 749.763, 742.867 749.723, 743.347 749.724, 743.357 749.869, 745.138 749.974, 746.425 754.541, 752.917 758.879, 757.598 760.308, 759.140 760.993, 759.879 761.061, 759.954 765.392, 764.667 765.615, 764.909 765.628, 764.924 765.912, 765.233 765.928, 765.251 765.971, 765.297 768.932, 768.521 769.150, 768.717 776.570, 775.422 778.422, 777.096 779.294, 778.124 781.097, 780.252 783.147, 782.670 785.093, 784.965 785.367, 785.289 785.496, 785.441 788.722, 787.301 791.659, 788.503 796.847, 790.627 803.928, 794.944 808.608, 795.932 811.415, 796.573 812.030, 797.189 814.678, 799.843 815.071, 800.237 816.187, 801.355 " fill="none" stroke="rgb(0, 0, 0)" stroke-linecap="butt" stroke-linejoin="round" stroke-opacity="1.0" stroke-width="3.0" />
            <path d=" M 790.495, 844.312 790.360, 848.789 789.738, 853.049 789.701, 853.305 789.569, 854.210 787.577, 861.751 787.515, 861.988 787.507, 862.019 787.037, 863.796 785.113, 871.078 784.483, 873.004 782.955, 877.670 782.719, 879.855 782.199, 883.238 781.630, 886.830 781.544, 887.379 780.732, 892.507 780.594, 895.221 780.689, 896.074 781.121, 899.954 781.390, 904.839 781.413, 905.262 781.456, 906.034 781.464, 906.183 781.901, 908.347 783.877, 918.149 784.236, 919.931 785.530, 923.135 787.440, 927.866 787.783, 928.710 787.925, 929.060 791.214, 937.163 794.124, 944.114 794.448, 944.887 794.921, 946.018 798.900, 950.869 799.472, 951.566 799.646, 951.779 799.695, 951.838 800.216, 952.474 801.509, 954.050 801.831, 954.442 802.630, 954.869 805.875, 956.603 811.797, 959.766 814.148, 961.021 815.443, 961.419 823.077, 963.763 833.060, 964.355 834.396, 964.434 834.441, 964.422 834.906, 964.299 844.573, 961.743 846.087, 961.342 848.175, 958.098 852.228, 954.829 854.663, 952.529 " fill="none" stroke="rgb(0, 0, 0)" stroke-linecap="butt" stroke-linejoin="round" stroke-opacity="1.0" stroke-width="3.0" />
            <path d=" M 744.797, 705.043 747.113, 706.982 749.518, 705.964 749.696, 705.889 750.718, 703.906 753.486, 698.535 757.453, 689.356 760.253, 682.875 764.265, 673.716 765.827, 670.151 767.619, 666.807 767.813, 666.446 767.869, 666.342 767.978, 666.138 768.369, 665.408 769.135, 663.979 769.143, 663.965 769.519, 663.263 770.126, 662.132 770.443, 661.539 772.382, 657.924 773.881, 655.128 774.070, 654.773 774.181, 654.568 774.251, 654.436 774.266, 654.408 775.342, 652.402 775.490, 652.107 775.654, 651.779 776.458, 650.177 776.938, 649.220 777.334, 648.431 777.635, 647.832 777.842, 647.420 779.123, 644.867 779.670, 643.778 781.553, 640.025 781.595, 639.943 781.649, 639.834 781.655, 639.821 782.368, 638.401 782.592, 637.955 782.863, 637.226 783.542, 635.399 784.175, 633.697 784.662, 632.386 785.712, 627.666 785.754, 627.479 785.749, 627.313 785.632, 623.482 785.561, 621.155 785.538, 621.091 784.207, 617.320 784.089, 616.986 783.907, 616.552 783.901, 616.537 783.159, 614.766 780.931, 609.450 780.828, 609.205 779.050, 604.936 777.976, 604.234 774.824, 602.175 773.758, 601.478 770.370, 599.264 768.564, 598.523 768.370, 598.444 768.353, 598.436 768.138, 598.348 767.065, 597.908 763.110, 598.324 762.284, 598.412 761.612, 598.706 761.600, 598.711 761.269, 598.856 760.070, 599.380 759.484, 599.636 759.275, 599.728 759.064, 599.820 758.673, 599.991 756.967, 601.239 756.762, 601.389 756.382, 601.667 756.222, 601.784 755.909, 602.014 755.835, 602.068 755.609, 602.233 755.596, 602.242 755.345, 602.426 755.187, 602.541 754.316, 603.179 754.266, 603.215 753.798, 603.558 753.742, 603.599 753.442, 603.818 753.336, 603.896 753.044, 604.109 752.817, 604.275 752.653, 604.395 752.572, 604.454 752.513, 604.498 752.468, 604.531 752.413, 604.571 752.381, 604.593 752.318, 604.636 752.292, 604.655 752.257, 604.679 752.133, 604.765 750.747, 605.727 749.857, 606.344 749.835, 606.359 749.782, 606.396 749.771, 606.404 749.680, 606.467 749.650, 606.488 749.499, 606.592 749.373, 606.680 749.313, 606.721 749.307, 606.725 749.190, 606.806 747.590, 607.916 746.972, 608.345 746.523, 608.657 745.644, 609.390 740.777, 613.455 740.463, 613.669 740.326, 613.763 740.211, 613.842 735.487, 617.075 735.462, 617.092 735.435, 617.110 729.495, 621.175 728.730, 621.699 725.483, 623.921 725.483, 623.921 724.944, 624.289 724.918, 624.307 724.191, 624.805 715.261, 629.305 710.678, 631.614 703.024, 634.984 694.987, 638.523 685.470, 641.593 684.340, 641.958 683.091, 642.202 682.361, 642.345 681.886, 642.438 680.925, 642.625 676.781, 643.435 676.752, 643.444 " fill="none" stroke="rgb(0, 0, 0)" stroke-linecap="butt" stroke-linejoin="round" stroke-opacity="1.0" stroke-width="3.0" />
        </g>
    </g>
</svg>
