<?xml version='1.0' encoding='ascii'?>
<svg xmlns="http://www.w3.org/2000/svg" height="1280" version="1.1" width="1280">
    <g id="RenderLayer_LineSet" inkscape:groupmode="lineset" inkscape:label="RenderLayer_LineSet" xmlns:inkscape="http://www.inkscape.org/namespaces/inkscape">
        <g id="strokes" inkscape:groupmode="layer" inkscape:label="strokes" xmlns:inkscape="http://www.inkscape.org/namespaces/inkscape">
            <path d=" M 736.936, 935.266 736.948, 935.327 737.167, 936.427 737.409, 937.640 737.776, 939.480 737.851, 939.856 738.315, 941.047 738.741, 941.925 738.763, 941.971 740.922, 943.330 742.187, 944.126 747.730, 945.437 748.280, 945.568 750.668, 946.607 750.830, 946.677 " fill="none" stroke="rgb(0, 0, 0)" stroke-linecap="butt" stroke-linejoin="round" stroke-opacity="1.0" stroke-width="3.0" />
            <path d=" M 635.996, 560.026 631.927, 560.831 627.547, 561.724 622.563, 562.544 617.333, 561.615 615.949, 560.196 " fill="none" stroke="rgb(0, 0, 0)" stroke-linecap="butt" stroke-linejoin="round" stroke-opacity="1.0" stroke-width="3.0" />
            <path d=" M 733.372, 916.210 733.071, 917.517 732.808, 918.658 732.516, 919.924 732.146, 921.531 734.070, 925.964 735.574, 931.916 736.351, 933.677 736.260, 934.081 736.488, 934.481 736.936, 935.266 736.971, 935.328 737.389, 936.061 " fill="none" stroke="rgb(0, 0, 0)" stroke-linecap="butt" stroke-linejoin="round" stroke-opacity="1.0" stroke-width="3.0" />
            <path d=" M 992.263, 428.149 993.497, 427.623 993.532, 427.608 993.535, 427.607 993.539, 427.605 997.466, 425.931 997.523, 425.907 1000.562, 424.611 1000.889, 424.371 1000.939, 424.334 1001.276, 424.087 1001.361, 424.025 1003.573, 422.398 1005.066, 421.300 1005.732, 420.811 1007.027, 419.368 1007.106, 418.224 1007.017, 417.119 1006.878, 415.399 " fill="none" stroke="rgb(0, 0, 0)" stroke-linecap="butt" stroke-linejoin="round" stroke-opacity="1.0" stroke-width="3.0" />
            <path d=" M 438.693, 936.955 440.277, 939.810 440.497, 940.208 440.551, 940.307 440.636, 940.467 440.648, 940.488 440.652, 940.496 442.804, 944.495 443.268, 945.153 445.187, 946.453 446.821, 947.559 449.885, 951.078 452.036, 953.548 " fill="none" stroke="rgb(0, 0, 0)" stroke-linecap="butt" stroke-linejoin="round" stroke-opacity="1.0" stroke-width="3.0" />
            <path d=" M 880.552, 405.617 880.387, 405.509 880.292, 405.447 878.870, 404.513 877.777, 403.797 874.447, 401.612 872.710, 400.875 872.647, 400.848 872.469, 400.773 871.467, 400.347 871.431, 400.332 871.174, 400.223 869.276, 399.418 867.167, 399.141 863.130, 398.613 861.871, 398.581 861.751, 398.578 861.428, 398.570 860.500, 398.547 " fill="none" stroke="rgb(0, 0, 0)" stroke-linecap="butt" stroke-linejoin="round" stroke-opacity="1.0" stroke-width="3.0" />
            <path d=" M 535.125, 796.129 538.448, 793.854 542.345, 789.053 542.350, 789.046 542.414, 788.967 542.451, 788.905 543.511, 787.092 544.391, 785.009 545.896, 781.740 546.669, 778.738 546.591, 778.352 " fill="none" stroke="rgb(0, 0, 0)" stroke-linecap="butt" stroke-linejoin="round" stroke-opacity="1.0" stroke-width="3.0" />
            <path d=" M 1028.263, 682.434 1029.822, 679.426 1032.251, 675.371 1033.627, 668.578 1035.396, 661.994 " fill="none" stroke="rgb(0, 0, 0)" stroke-linecap="butt" stroke-linejoin="round" stroke-opacity="1.0" stroke-width="3.0" />
            <path d=" M 887.527, 407.581 883.736, 406.809 879.203, 405.884 878.961, 405.835 878.819, 405.806 877.416, 405.520 875.196, 405.068 870.002, 404.009 869.197, 403.845 869.149, 403.835 865.828, 403.158 " fill="none" stroke="rgb(0, 0, 0)" stroke-linecap="butt" stroke-linejoin="round" stroke-opacity="1.0" stroke-width="3.0" />
            <path d=" M 519.150, 852.472 519.152, 852.469 520.366, 849.591 518.769, 847.612 515.655, 845.632 510.831, 842.401 506.761, 837.832 506.191, 837.098 " fill="none" stroke="rgb(0, 0, 0)" stroke-linecap="butt" stroke-linejoin="round" stroke-opacity="1.0" stroke-width="3.0" />
            <path d=" M 810.765, 749.997 813.843, 743.242 813.931, 743.050 814.198, 742.557 814.224, 742.508 816.253, 738.756 816.499, 738.302 817.393, 732.749 818.356, 728.906 " fill="none" stroke="rgb(0, 0, 0)" stroke-linecap="butt" stroke-linejoin="round" stroke-opacity="1.0" stroke-width="3.0" />
            <path d=" M 659.350, 485.790 660.294, 484.831 662.006, 483.091 664.346, 480.061 666.348, 477.357 667.948, 473.199 669.719, 469.853 670.451, 468.471 671.332, 466.805 " fill="none" stroke="rgb(0, 0, 0)" stroke-linecap="butt" stroke-linejoin="round" stroke-opacity="1.0" stroke-width="3.0" />
            <path d=" M 898.096, 558.396 902.074, 550.397 903.760, 546.825 906.516, 543.037 908.347, 538.013 " fill="none" stroke="rgb(0, 0, 0)" stroke-linecap="butt" stroke-linejoin="round" stroke-opacity="1.0" stroke-width="3.0" />
            <path d=" M 503.850, 962.736 502.832, 961.412 498.557, 959.189 492.538, 954.522 488.688, 950.433 486.398, 948.044 486.273, 947.913 " fill="none" stroke="rgb(0, 0, 0)" stroke-linecap="butt" stroke-linejoin="round" stroke-opacity="1.0" stroke-width="3.0" />
            <path d=" M 822.616, 990.367 823.550, 989.113 829.543, 981.237 831.570, 978.875 832.843, 977.393 835.018, 974.782 837.776, 972.253 " fill="none" stroke="rgb(0, 0, 0)" stroke-linecap="butt" stroke-linejoin="round" stroke-opacity="1.0" stroke-width="3.0" />
            <path d=" M 767.081, 819.845 766.942, 820.159 766.607, 820.918 766.504, 821.151 766.384, 821.424 765.366, 823.728 765.313, 823.846 764.784, 825.044 764.645, 825.360 764.477, 825.769 764.471, 825.784 764.321, 826.150 764.287, 826.234 764.168, 826.525 764.164, 826.535 763.471, 828.225 763.355, 828.510 763.100, 829.132 762.977, 829.432 762.972, 829.444 762.757, 829.969 762.546, 830.486 761.523, 832.983 760.581, 833.791 759.801, 834.461 757.432, 838.269 756.742, 839.481 756.319, 840.226 756.183, 840.465 756.014, 840.762 " fill="none" stroke="rgb(0, 0, 0)" stroke-linecap="butt" stroke-linejoin="round" stroke-opacity="1.0" stroke-width="3.0" />
            <path d=" M 1030.338, 671.785 1031.711, 669.003 1033.667, 664.661 1035.394, 661.998 1035.396, 661.994 1036.986, 659.542 1039.652, 656.689 1041.951, 651.078 " fill="none" stroke="rgb(0, 0, 0)" stroke-linecap="butt" stroke-linejoin="round" stroke-opacity="1.0" stroke-width="3.0" />
            <path d=" M 813.791, 710.183 816.868, 713.711 816.906, 713.754 818.740, 716.116 819.099, 716.382 819.670, 716.804 819.989, 717.040 821.995, 719.664 822.023, 719.743 822.037, 719.781 822.052, 719.824 823.350, 723.453 825.396, 727.162 826.909, 729.478 827.121, 729.744 " fill="none" stroke="rgb(0, 0, 0)" stroke-linecap="butt" stroke-linejoin="round" stroke-opacity="1.0" stroke-width="3.0" />
            <path d=" M 1047.943, 480.318 1046.576, 476.841 1044.198, 470.794 1042.448, 465.395 1039.194, 457.977 " fill="none" stroke="rgb(0, 0, 0)" stroke-linecap="butt" stroke-linejoin="round" stroke-opacity="1.0" stroke-width="3.0" />
            <path d=" M 842.452, 850.962 839.091, 852.477 835.659, 853.733 828.559, 855.229 823.534, 856.132 822.362, 856.240 818.807, 856.568 " fill="none" stroke="rgb(0, 0, 0)" stroke-linecap="butt" stroke-linejoin="round" stroke-opacity="1.0" stroke-width="3.0" />
            <path d=" M 1014.078, 424.700 1014.102, 424.283 1014.104, 424.235 1014.198, 422.559 1014.188, 422.464 1014.179, 422.367 1014.050, 421.084 1013.928, 419.861 1013.701, 418.625 1013.192, 417.883 1008.616, 412.175 1008.575, 412.123 1008.068, 411.490 1008.411, 411.768 1008.426, 411.780 1010.974, 413.838 1013.701, 418.625 " fill="none" stroke="rgb(0, 0, 0)" stroke-linecap="butt" stroke-linejoin="round" stroke-opacity="1.0" stroke-width="3.0" />
            <path d=" M 782.954, 470.342 783.437, 471.984 786.473, 477.077 786.937, 479.606 788.407, 487.628 789.682, 492.019 789.905, 492.787 790.109, 493.490 " fill="none" stroke="rgb(0, 0, 0)" stroke-linecap="butt" stroke-linejoin="round" stroke-opacity="1.0" stroke-width="3.0" />
            <path d=" M 956.391, 852.423 957.096, 852.044 962.811, 848.975 966.262, 845.300 970.058, 842.376 974.722, 838.785 976.125, 838.257 " fill="none" stroke="rgb(0, 0, 0)" stroke-linecap="butt" stroke-linejoin="round" stroke-opacity="1.0" stroke-width="3.0" />
            <path d=" M 647.084, 603.742 647.804, 602.835 651.075, 598.709 655.696, 596.156 655.726, 596.140 655.748, 596.128 655.753, 596.125 658.324, 594.705 665.843, 590.040 666.689, 589.516 " fill="none" stroke="rgb(0, 0, 0)" stroke-linecap="butt" stroke-linejoin="round" stroke-opacity="1.0" stroke-width="3.0" />
            <path d=" M 947.633, 781.542 947.967, 782.049 948.076, 782.214 948.208, 782.414 950.054, 785.212 951.374, 787.213 954.509, 793.719 955.896, 796.574 957.271, 799.066 958.381, 803.518 " fill="none" stroke="rgb(0, 0, 0)" stroke-linecap="butt" stroke-linejoin="round" stroke-opacity="1.0" stroke-width="3.0" />
            <path d=" M 982.502, 395.243 978.161, 397.547 969.577, 399.613 969.436, 399.647 961.161, 401.296 958.927, 401.741 958.519, 401.822 " fill="none" stroke="rgb(0, 0, 0)" stroke-linecap="butt" stroke-linejoin="round" stroke-opacity="1.0" stroke-width="3.0" />
            <path d=" M 861.428, 398.570 852.022, 395.174 849.080, 394.111 847.927, 393.397 846.532, 392.532 842.309, 394.059 841.046, 394.860 840.749, 395.773 840.721, 395.857 840.703, 395.913 840.641, 396.107 840.114, 397.726 " fill="none" stroke="rgb(0, 0, 0)" stroke-linecap="butt" stroke-linejoin="round" stroke-opacity="1.0" stroke-width="3.0" />
            <path d=" M 1047.481, 594.864 1047.689, 590.204 1048.762, 582.880 1049.443, 576.871 1049.463, 576.695 1050.211, 570.095 1050.240, 569.835 " fill="none" stroke="rgb(0, 0, 0)" stroke-linecap="butt" stroke-linejoin="round" stroke-opacity="1.0" stroke-width="3.0" />
            <path d=" M 728.196, 801.409 732.608, 804.681 734.493, 805.079 735.054, 805.034 735.083, 805.031 735.210, 805.021 739.090, 804.705 745.133, 803.290 746.063, 803.181 748.956, 802.841 751.089, 803.919 751.791, 804.273 " fill="none" stroke="rgb(0, 0, 0)" stroke-linecap="butt" stroke-linejoin="round" stroke-opacity="1.0" stroke-width="3.0" />
            <path d=" M 963.192, 739.503 969.115, 738.888 977.474, 737.570 979.886, 737.033 979.919, 737.026 981.746, 736.619 988.225, 735.698 " fill="none" stroke="rgb(0, 0, 0)" stroke-linecap="butt" stroke-linejoin="round" stroke-opacity="1.0" stroke-width="3.0" />
            <path d=" M 481.065, 855.308 481.461, 855.460 481.638, 855.527 484.643, 856.674 489.788, 859.576 491.533, 860.561 493.324, 860.483 498.280, 860.269 504.980, 858.510 " fill="none" stroke="rgb(0, 0, 0)" stroke-linecap="butt" stroke-linejoin="round" stroke-opacity="1.0" stroke-width="3.0" />
            <path d=" M 1065.545, 624.830 1066.746, 619.714 1066.884, 618.493 1067.175, 615.898 1068.752, 611.329 1068.827, 606.192 1068.921, 599.750 " fill="none" stroke="rgb(0, 0, 0)" stroke-linecap="butt" stroke-linejoin="round" stroke-opacity="1.0" stroke-width="3.0" />
            <path d=" M 653.048, 662.387 655.464, 663.184 658.535, 664.198 664.306, 666.595 668.754, 669.401 676.295, 673.169 " fill="none" stroke="rgb(0, 0, 0)" stroke-linecap="butt" stroke-linejoin="round" stroke-opacity="1.0" stroke-width="3.0" />
            <path d=" M 794.766, 656.641 793.553, 656.936 793.278, 657.003 792.296, 657.242 792.291, 657.243 791.912, 657.336 791.900, 657.339 791.496, 657.437 788.203, 657.311 784.052, 657.151 780.330, 659.093 775.923, 663.028 773.778, 667.513 " fill="none" stroke="rgb(0, 0, 0)" stroke-linecap="butt" stroke-linejoin="round" stroke-opacity="1.0" stroke-width="3.0" />
            <path d=" M 591.137, 587.073 588.347, 588.868 582.865, 591.131 574.826, 592.426 572.475, 592.300 569.871, 590.789 566.983, 589.112 " fill="none" stroke="rgb(0, 0, 0)" stroke-linecap="butt" stroke-linejoin="round" stroke-opacity="1.0" stroke-width="3.0" />
            <path d=" M 888.352, 884.071 891.050, 881.793 891.536, 881.383 895.985, 874.899 898.336, 872.175 899.888, 867.226 901.984, 862.503 902.173, 861.858 " fill="none" stroke="rgb(0, 0, 0)" stroke-linecap="butt" stroke-linejoin="round" stroke-opacity="1.0" stroke-width="3.0" />
            <path d=" M 741.040, 868.634 741.119, 871.007 741.124, 871.158 739.961, 873.804 739.773, 874.232 738.892, 876.235 738.172, 879.080 738.043, 879.591 737.009, 883.679 736.774, 886.764 736.704, 887.683 736.466, 888.103 736.234, 888.514 735.516, 891.027 735.400, 891.248 735.011, 891.988 734.748, 892.489 734.725, 892.533 734.410, 893.132 734.367, 893.214 733.958, 893.992 " fill="none" stroke="rgb(0, 0, 0)" stroke-linecap="butt" stroke-linejoin="round" stroke-opacity="1.0" stroke-width="3.0" />
            <path d=" M 736.570, 847.709 736.296, 848.874 736.259, 849.031 736.221, 849.194 733.015, 852.953 731.607, 854.603 731.491, 854.739 731.421, 854.821 730.535, 855.860 729.847, 858.001 729.948, 858.172 729.967, 858.206 729.992, 858.248 730.188, 858.581 730.422, 858.978 731.031, 860.015 731.119, 860.166 731.179, 860.267 732.932, 863.250 732.945, 863.271 732.969, 863.313 733.671, 864.507 734.088, 865.217 734.286, 865.250 735.435, 865.445 739.806, 866.186 " fill="none" stroke="rgb(0, 0, 0)" stroke-linecap="butt" stroke-linejoin="round" stroke-opacity="1.0" stroke-width="3.0" />
            <path d=" M 1029.422, 489.705 1025.435, 485.682 1025.206, 479.719 1023.250, 477.476 1020.892, 474.617 1019.280, 472.308 1017.998, 466.849 " fill="none" stroke="rgb(0, 0, 0)" stroke-linecap="butt" stroke-linejoin="round" stroke-opacity="1.0" stroke-width="3.0" />
            <path d=" M 764.132, 867.829 763.528, 868.377 761.302, 870.397 759.641, 874.872 760.131, 881.552 762.239, 885.755 767.652, 890.027 " fill="none" stroke="rgb(0, 0, 0)" stroke-linecap="butt" stroke-linejoin="round" stroke-opacity="1.0" stroke-width="3.0" />
            <path d=" M 734.865, 937.477 736.549, 941.521 736.677, 941.828 735.598, 947.130 736.458, 948.767 737.260, 948.662 738.330, 948.522 739.106, 948.508 742.368, 948.882 746.849, 953.101 747.066, 953.192 749.082, 954.042 749.083, 954.042 749.121, 954.058 749.388, 954.171 749.621, 954.269 " fill="none" stroke="rgb(0, 0, 0)" stroke-linecap="butt" stroke-linejoin="round" stroke-opacity="1.0" stroke-width="3.0" />
            <path d=" M 597.537, 627.396 601.270, 629.260 602.310, 629.779 606.457, 633.323 606.843, 633.653 609.897, 636.263 612.116, 636.879 613.291, 637.205 617.872, 636.878 621.387, 638.531 " fill="none" stroke="rgb(0, 0, 0)" stroke-linecap="butt" stroke-linejoin="round" stroke-opacity="1.0" stroke-width="3.0" />
            <path d=" M 798.518, 472.404 798.663, 472.514 799.771, 473.354 800.142, 473.635 801.536, 474.692 801.773, 474.867 801.821, 474.903 801.933, 474.986 802.325, 475.276 804.465, 476.862 804.876, 477.168 805.118, 477.347 805.247, 477.442 806.307, 478.228 806.321, 478.239 807.448, 479.074 810.494, 481.332 810.735, 481.511 810.805, 481.551 810.863, 481.585 811.807, 482.135 812.714, 482.663 812.717, 482.664 812.720, 482.666 812.830, 482.730 820.726, 487.325 821.343, 487.684 " fill="none" stroke="rgb(0, 0, 0)" stroke-linecap="butt" stroke-linejoin="round" stroke-opacity="1.0" stroke-width="3.0" />
            <path d=" M 1060.721, 645.309 1060.897, 644.853 1062.562, 640.545 1064.294, 635.944 1065.953, 626.534 1066.979, 620.667 1066.884, 618.493 " fill="none" stroke="rgb(0, 0, 0)" stroke-linecap="butt" stroke-linejoin="round" stroke-opacity="1.0" stroke-width="3.0" />
            <path d=" M 486.398, 948.044 482.910, 942.320 479.653, 938.473 476.857, 932.466 471.021, 925.095 " fill="none" stroke="rgb(0, 0, 0)" stroke-linecap="butt" stroke-linejoin="round" stroke-opacity="1.0" stroke-width="3.0" />
            <path d=" M 699.299, 486.049 696.297, 486.189 695.542, 486.224 688.674, 487.259 687.211, 487.357 685.068, 487.500 684.518, 487.385 678.787, 486.181 676.218, 484.785 672.442, 483.081 " fill="none" stroke="rgb(0, 0, 0)" stroke-linecap="butt" stroke-linejoin="round" stroke-opacity="1.0" stroke-width="3.0" />
            <path d=" M 1023.741, 437.652 1025.179, 439.252 1027.218, 441.522 1028.936, 443.435 1029.103, 443.621 1031.618, 446.419 1033.194, 449.153 1033.294, 449.326 1037.018, 455.783 1037.855, 457.233 1036.522, 453.858 " fill="none" stroke="rgb(0, 0, 0)" stroke-linecap="butt" stroke-linejoin="round" stroke-opacity="1.0" stroke-width="3.0" />
            <path d=" M 780.289, 1009.738 782.169, 1009.134 789.059, 1006.922 797.890, 1003.097 806.209, 998.593 " fill="none" stroke="rgb(0, 0, 0)" stroke-linecap="butt" stroke-linejoin="round" stroke-opacity="1.0" stroke-width="3.0" />
            <path d=" M 414.248, 827.453 412.649, 833.730 411.607, 838.427 411.172, 839.181 410.081, 841.069 409.659, 841.798 409.195, 845.088 408.719, 846.735 408.267, 850.064 408.662, 855.069 408.698, 855.528 " fill="none" stroke="rgb(0, 0, 0)" stroke-linecap="butt" stroke-linejoin="round" stroke-opacity="1.0" stroke-width="3.0" />
            <path d=" M 716.308, 804.038 709.640, 809.093 708.474, 813.661 708.441, 814.521 710.551, 816.893 714.625, 819.119 721.340, 822.489 " fill="none" stroke="rgb(0, 0, 0)" stroke-linecap="butt" stroke-linejoin="round" stroke-opacity="1.0" stroke-width="3.0" />
            <path d=" M 449.885, 951.078 451.397, 953.520 453.520, 956.426 453.607, 956.971 453.776, 958.025 453.872, 958.624 454.149, 959.465 454.630, 960.255 454.829, 960.581 456.129, 962.716 456.538, 963.449 458.759, 964.582 459.989, 964.402 462.515, 964.959 464.715, 963.769 465.398, 960.640 465.303, 957.625 " fill="none" stroke="rgb(0, 0, 0)" stroke-linecap="butt" stroke-linejoin="round" stroke-opacity="1.0" stroke-width="3.0" />
            <path d=" M 781.185, 401.679 772.858, 403.817 769.044, 407.220 766.778, 410.611 765.332, 413.635 767.245, 416.339 767.568, 416.795 767.572, 416.800 767.607, 416.850 767.716, 417.004 767.850, 418.315 768.153, 421.271 " fill="none" stroke="rgb(0, 0, 0)" stroke-linecap="butt" stroke-linejoin="round" stroke-opacity="1.0" stroke-width="3.0" />
            <path d=" M 463.889, 901.468 464.597, 901.634 464.753, 901.671 464.755, 901.671 464.913, 901.708 465.716, 901.896 465.889, 901.936 467.466, 902.306 468.499, 902.308 468.860, 902.309 469.421, 902.310 469.619, 902.310 469.742, 902.311 469.743, 902.311 470.169, 902.312 470.676, 902.313 471.286, 902.314 471.819, 902.627 477.406, 905.902 482.234, 906.969 484.764, 907.386 488.122, 906.085 488.593, 905.025 488.850, 904.027 488.965, 902.782 488.456, 902.123 " fill="none" stroke="rgb(0, 0, 0)" stroke-linecap="butt" stroke-linejoin="round" stroke-opacity="1.0" stroke-width="3.0" />
            <path d=" M 877.057, 390.031 876.520, 390.116 874.437, 389.884 870.723, 390.032 870.237, 390.356 867.585, 390.839 863.340, 390.004 856.801, 389.993 852.600, 391.060 850.566, 391.634 847.927, 393.397 " fill="none" stroke="rgb(0, 0, 0)" stroke-linecap="butt" stroke-linejoin="round" stroke-opacity="1.0" stroke-width="3.0" />
            <path d=" M 459.774, 619.707 460.936, 628.317 461.311, 632.185 459.951, 640.370 460.070, 646.232 460.141, 649.709 " fill="none" stroke="rgb(0, 0, 0)" stroke-linecap="butt" stroke-linejoin="round" stroke-opacity="1.0" stroke-width="3.0" />
            <path d=" M 538.699, 489.663 534.637, 488.520 530.644, 490.163 526.506, 492.219 522.761, 493.933 520.088, 496.366 515.695, 500.522 513.376, 503.257 " fill="none" stroke="rgb(0, 0, 0)" stroke-linecap="butt" stroke-linejoin="round" stroke-opacity="1.0" stroke-width="3.0" />
            <path d=" M 724.995, 818.340 721.551, 822.249 721.372, 822.453 721.340, 822.489 721.157, 822.697 719.247, 825.396 719.662, 826.678 719.930, 830.252 720.807, 831.271 725.205, 832.986 731.248, 834.138 735.088, 833.821 735.500, 833.719 " fill="none" stroke="rgb(0, 0, 0)" stroke-linecap="butt" stroke-linejoin="round" stroke-opacity="1.0" stroke-width="3.0" />
            <path d=" M 730.092, 479.674 726.543, 478.773 719.825, 477.618 711.839, 480.861 702.515, 484.476 701.109, 485.021 " fill="none" stroke="rgb(0, 0, 0)" stroke-linecap="butt" stroke-linejoin="round" stroke-opacity="1.0" stroke-width="3.0" />
            <path d=" M 790.613, 534.318 792.511, 533.240 792.585, 533.197 796.635, 530.896 797.258, 530.542 797.755, 530.461 798.422, 530.353 799.679, 530.148 801.919, 529.783 802.076, 529.757 802.102, 529.753 803.191, 529.576 803.255, 529.565 803.280, 529.561 803.371, 529.546 803.572, 529.513 803.912, 529.463 804.670, 529.351 804.897, 529.318 805.377, 529.247 805.399, 529.244 805.520, 529.226 805.555, 529.221 806.242, 529.119 806.755, 529.043 811.324, 528.368 811.386, 528.370 811.397, 528.370 812.774, 528.401 814.731, 528.444 814.819, 528.446 815.224, 528.455 817.388, 528.503 820.315, 528.568 " fill="none" stroke="rgb(0, 0, 0)" stroke-linecap="butt" stroke-linejoin="round" stroke-opacity="1.0" stroke-width="3.0" />
            <path d=" M 906.609, 382.112 904.366, 383.799 901.159, 385.854 900.055, 386.115 896.160, 386.786 893.244, 387.292 888.193, 387.612 887.355, 387.633 885.188, 387.977 881.470, 388.466 877.057, 390.031 876.957, 390.066 " fill="none" stroke="rgb(0, 0, 0)" stroke-linecap="butt" stroke-linejoin="round" stroke-opacity="1.0" stroke-width="3.0" />
            <path d=" M 718.264, 902.118 716.442, 903.060 714.628, 905.723 713.463, 907.766 713.678, 908.799 716.628, 911.730 718.918, 915.180 719.053, 915.383 719.104, 915.460 719.158, 915.542 720.626, 915.727 720.801, 915.749 721.055, 915.781 723.717, 916.116 725.739, 916.370 732.393, 918.377 732.808, 918.658 " fill="none" stroke="rgb(0, 0, 0)" stroke-linecap="butt" stroke-linejoin="round" stroke-opacity="1.0" stroke-width="3.0" />
            <path d=" M 760.758, 822.980 760.497, 822.960 754.127, 822.469 747.728, 820.975 744.440, 820.978 738.674, 820.984 738.334, 820.985 737.934, 821.126 736.684, 821.569 735.814, 822.242 735.713, 822.320 735.183, 822.730 734.737, 823.546 735.790, 827.764 " fill="none" stroke="rgb(0, 0, 0)" stroke-linecap="butt" stroke-linejoin="round" stroke-opacity="1.0" stroke-width="3.0" />
            <path d=" M 427.478, 762.927 425.412, 767.495 423.726, 772.388 421.784, 775.946 420.093, 781.383 417.794, 785.643 416.146, 791.391 415.922, 792.172 " fill="none" stroke="rgb(0, 0, 0)" stroke-linecap="butt" stroke-linejoin="round" stroke-opacity="1.0" stroke-width="3.0" />
            <path d=" M 929.675, 867.327 931.175, 866.441 937.499, 862.704 939.776, 861.274 946.441, 858.284 950.640, 856.744 954.498, 854.629 957.096, 852.044 " fill="none" stroke="rgb(0, 0, 0)" stroke-linecap="butt" stroke-linejoin="round" stroke-opacity="1.0" stroke-width="3.0" />
            <path d=" M 883.210, 545.575 878.000, 549.686 877.988, 549.695 877.629, 549.979 873.911, 552.977 867.871, 555.988 864.262, 557.935 864.160, 557.990 864.120, 558.011 863.437, 558.380 858.677, 560.947 856.310, 562.224 " fill="none" stroke="rgb(0, 0, 0)" stroke-linecap="butt" stroke-linejoin="round" stroke-opacity="1.0" stroke-width="3.0" />
            <path d=" M 985.403, 818.075 984.423, 814.642 985.559, 811.194 988.535, 805.188 990.550, 800.939 994.955, 793.006 997.623, 789.688 " fill="none" stroke="rgb(0, 0, 0)" stroke-linecap="butt" stroke-linejoin="round" stroke-opacity="1.0" stroke-width="3.0" />
            <path d=" M 827.031, 729.272 827.121, 729.744 827.997, 734.332 828.401, 737.910 828.225, 741.161 830.003, 744.210 829.607, 749.859 829.660, 757.121 830.552, 760.664 " fill="none" stroke="rgb(0, 0, 0)" stroke-linecap="butt" stroke-linejoin="round" stroke-opacity="1.0" stroke-width="3.0" />
            <path d=" M 547.649, 775.567 551.647, 771.980 552.783, 770.960 558.726, 769.543 562.566, 766.299 565.022, 760.931 566.266, 756.291 567.516, 754.147 567.694, 753.122 " fill="none" stroke="rgb(0, 0, 0)" stroke-linecap="butt" stroke-linejoin="round" stroke-opacity="1.0" stroke-width="3.0" />
            <path d=" M 562.584, 748.499 566.898, 752.711 567.422, 752.981 567.694, 753.122 572.342, 755.522 577.530, 755.723 582.900, 754.400 584.243, 753.759 587.911, 751.130 588.173, 749.247 587.664, 747.784 " fill="none" stroke="rgb(0, 0, 0)" stroke-linecap="butt" stroke-linejoin="round" stroke-opacity="1.0" stroke-width="3.0" />
            <path d=" M 952.857, 465.413 949.638, 468.184 948.791, 468.913 943.539, 472.745 940.735, 477.000 936.761, 481.951 930.067, 488.017 " fill="none" stroke="rgb(0, 0, 0)" stroke-linecap="butt" stroke-linejoin="round" stroke-opacity="1.0" stroke-width="3.0" />
            <path d=" M 799.791, 854.195 796.833, 853.505 791.993, 853.687 790.319, 853.567 784.496, 854.399 781.697, 855.330 775.607, 859.071 774.887, 859.540 774.832, 859.575 774.770, 859.616 773.987, 860.126 773.915, 860.173 772.465, 861.117 771.080, 863.257 771.040, 863.319 770.715, 863.821 " fill="none" stroke="rgb(0, 0, 0)" stroke-linecap="butt" stroke-linejoin="round" stroke-opacity="1.0" stroke-width="3.0" />
            <path d=" M 822.672, 1006.416 825.576, 1005.436 828.139, 1002.994 830.501, 997.981 834.486, 989.300 837.127, 984.298 838.716, 979.257 " fill="none" stroke="rgb(0, 0, 0)" stroke-linecap="butt" stroke-linejoin="round" stroke-opacity="1.0" stroke-width="3.0" />
            <path d=" M 733.037, 1031.657 733.248, 1031.954 734.267, 1033.100 741.745, 1034.962 748.280, 1033.316 750.083, 1032.207 753.671, 1032.375 757.530, 1030.772 761.974, 1029.292 764.084, 1029.016 " fill="none" stroke="rgb(0, 0, 0)" stroke-linecap="butt" stroke-linejoin="round" stroke-opacity="1.0" stroke-width="3.0" />
            <path d=" M 727.084, 796.504 727.944, 800.646 728.196, 801.409 726.397, 798.200 724.641, 796.474 723.402, 795.592 721.625, 794.326 721.274, 794.123 720.328, 793.575 719.739, 793.234 718.079, 791.991 714.987, 788.627 715.188, 786.432 716.908, 783.500 718.217, 780.871 718.616, 779.891 " fill="none" stroke="rgb(0, 0, 0)" stroke-linecap="butt" stroke-linejoin="round" stroke-opacity="1.0" stroke-width="3.0" />
            <path d=" M 768.097, 633.934 772.517, 637.977 772.630, 638.080 773.230, 638.629 773.550, 638.921 773.937, 639.275 774.010, 639.342 774.127, 639.449 774.289, 639.598 774.464, 639.758 776.559, 641.689 783.911, 648.466 784.779, 649.266 788.768, 653.624 789.776, 654.784 791.604, 656.886 791.900, 657.339 " fill="none" stroke="rgb(0, 0, 0)" stroke-linecap="butt" stroke-linejoin="round" stroke-opacity="1.0" stroke-width="3.0" />
            <path d=" M 544.197, 758.597 548.128, 756.573 551.608, 754.781 553.191, 753.223 554.014, 752.413 555.015, 751.428 557.114, 750.409 559.282, 749.358 562.584, 748.499 564.005, 748.129 564.473, 748.019 567.960, 747.199 571.581, 745.577 573.761, 743.693 " fill="none" stroke="rgb(0, 0, 0)" stroke-linecap="butt" stroke-linejoin="round" stroke-opacity="1.0" stroke-width="3.0" />
            <path d=" M 808.487, 741.684 806.646, 740.118 806.482, 739.978 806.022, 739.139 804.959, 737.200 803.130, 738.004 802.878, 738.660 802.872, 738.676 802.293, 740.183 799.204, 741.937 798.348, 743.365 798.159, 743.679 797.289, 745.129 797.102, 746.011 796.150, 750.484 796.145, 750.506 796.078, 750.823 795.213, 754.888 795.064, 755.588 795.126, 756.639 795.146, 756.981 795.187, 757.559 795.368, 760.135 795.471, 761.596 " fill="none" stroke="rgb(0, 0, 0)" stroke-linecap="butt" stroke-linejoin="round" stroke-opacity="1.0" stroke-width="3.0" />
            <path d=" M 516.735, 769.779 518.590, 769.062 518.606, 769.056 519.013, 768.898 519.255, 768.805 519.920, 768.548 523.825, 767.039 524.038, 766.957 524.039, 766.956 524.378, 766.826 525.568, 766.394 525.614, 766.377 528.882, 765.191 529.579, 764.938 532.371, 762.915 533.272, 762.262 533.410, 762.194 535.853, 760.998 538.046, 759.923 538.512, 759.695 544.391, 758.898 548.128, 756.573 " fill="none" stroke="rgb(0, 0, 0)" stroke-linecap="butt" stroke-linejoin="round" stroke-opacity="1.0" stroke-width="3.0" />
            <path d=" M 841.879, 968.090 842.674, 967.372 843.828, 966.329 845.267, 965.029 845.480, 964.836 845.498, 964.820 845.547, 964.776 845.547, 964.776 846.379, 964.024 848.487, 960.178 851.283, 955.913 854.070, 949.182 858.204, 940.627 859.279, 938.623 " fill="none" stroke="rgb(0, 0, 0)" stroke-linecap="butt" stroke-linejoin="round" stroke-opacity="1.0" stroke-width="3.0" />
            <path d=" M 450.069, 942.278 454.792, 948.379 456.250, 950.262 457.051, 951.297 457.643, 951.775 457.754, 951.865 457.830, 951.926 459.497, 953.273 462.978, 956.087 465.214, 957.566 465.277, 957.607 465.303, 957.625 468.978, 960.056 470.255, 960.628 476.674, 963.506 " fill="none" stroke="rgb(0, 0, 0)" stroke-linecap="butt" stroke-linejoin="round" stroke-opacity="1.0" stroke-width="3.0" />
            <path d=" M 1031.296, 710.410 1034.514, 709.931 1034.693, 709.615 1036.005, 707.295 1037.532, 703.936 1038.172, 700.083 1040.031, 697.987 1042.217, 691.245 1043.688, 689.713 1045.345, 686.043 1046.290, 681.443 1046.295, 681.383 " fill="none" stroke="rgb(0, 0, 0)" stroke-linecap="butt" stroke-linejoin="round" stroke-opacity="1.0" stroke-width="3.0" />
            <path d=" M 732.530, 505.648 734.854, 515.374 735.020, 516.065 735.368, 516.962 735.372, 516.973 737.653, 522.855 741.835, 530.615 747.299, 536.628 " fill="none" stroke="rgb(0, 0, 0)" stroke-linecap="butt" stroke-linejoin="round" stroke-opacity="1.0" stroke-width="3.0" />
            <path d=" M 925.325, 391.183 921.692, 392.424 916.901, 394.350 909.970, 396.030 901.273, 398.108 898.957, 398.988 898.583, 399.131 896.385, 399.966 895.608, 400.294 894.901, 400.592 894.760, 400.652 891.954, 401.837 " fill="none" stroke="rgb(0, 0, 0)" stroke-linecap="butt" stroke-linejoin="round" stroke-opacity="1.0" stroke-width="3.0" />
            <path d=" M 733.095, 777.565 733.780, 777.565 735.525, 777.564 736.320, 777.564 736.432, 777.564 737.001, 777.564 738.616, 777.563 738.794, 777.563 739.917, 777.563 744.267, 777.562 748.378, 776.970 751.243, 776.557 751.461, 776.526 751.613, 776.504 751.614, 776.504 751.620, 776.503 751.643, 776.499 752.280, 776.408 757.489, 775.318 760.083, 775.068 763.241, 774.765 768.757, 774.020 " fill="none" stroke="rgb(0, 0, 0)" stroke-linecap="butt" stroke-linejoin="round" stroke-opacity="1.0" stroke-width="3.0" />
            <path d=" M 765.554, 942.197 767.472, 942.763 767.547, 942.785 767.661, 942.819 767.773, 942.852 767.801, 942.860 767.993, 942.917 768.066, 942.938 768.100, 942.948 768.701, 943.125 769.447, 943.346 769.929, 943.488 772.602, 944.277 780.237, 944.927 781.162, 945.006 781.754, 945.056 782.170, 945.092 784.596, 944.959 784.881, 944.944 785.817, 944.892 786.720, 944.763 786.759, 944.758 787.534, 944.647 787.775, 944.613 790.262, 944.258 791.315, 944.108 794.517, 943.735 794.673, 943.716 794.858, 943.695 795.399, 943.632 797.995, 943.426 798.921, 943.563 799.059, 943.583 799.190, 943.603 799.742, 943.685 801.123, 943.889 " fill="none" stroke="rgb(0, 0, 0)" stroke-linecap="butt" stroke-linejoin="round" stroke-opacity="1.0" stroke-width="3.0" />
            <path d=" M 828.145, 541.268 831.843, 541.875 834.968, 549.252 835.891, 552.042 836.157, 553.247 836.164, 553.280 836.967, 556.911 837.510, 557.980 837.739, 558.430 837.764, 558.480 837.859, 558.586 838.228, 558.998 839.313, 560.211 840.821, 561.897 842.327, 565.222 842.677, 565.996 842.872, 562.312 842.977, 561.147 843.088, 559.926 " fill="none" stroke="rgb(0, 0, 0)" stroke-linecap="butt" stroke-linejoin="round" stroke-opacity="1.0" stroke-width="3.0" />
            <path d=" M 508.748, 798.490 509.621, 799.114 509.650, 799.135 511.059, 800.141 511.359, 800.393 512.195, 801.090 512.336, 801.209 513.013, 801.773 515.477, 803.832 518.769, 806.858 520.538, 808.485 521.680, 809.263 522.068, 809.322 524.073, 809.626 524.432, 809.457 524.888, 809.244 525.224, 809.086 526.471, 808.501 526.575, 808.453 533.290, 807.801 535.460, 804.532 536.189, 802.938 537.144, 800.853 " fill="none" stroke="rgb(0, 0, 0)" stroke-linecap="butt" stroke-linejoin="round" stroke-opacity="1.0" stroke-width="3.0" />
            <path d=" M 731.273, 554.939 730.597, 555.506 727.775, 560.072 726.708, 564.147 726.528, 568.423 726.357, 570.860 727.935, 579.311 731.900, 587.800 732.711, 589.535 " fill="none" stroke="rgb(0, 0, 0)" stroke-linecap="butt" stroke-linejoin="round" stroke-opacity="1.0" stroke-width="3.0" />
            <path d=" M 524.038, 766.957 524.897, 767.349 526.027, 767.867 530.898, 774.363 530.907, 774.375 531.195, 774.759 531.311, 774.914 531.942, 775.571 532.639, 776.297 534.777, 778.525 538.047, 780.690 540.926, 780.563 541.093, 780.556 544.245, 779.006 545.624, 778.615 545.983, 778.513 546.589, 778.341 546.694, 778.311 549.267, 777.581 551.647, 771.980 " fill="none" stroke="rgb(0, 0, 0)" stroke-linecap="butt" stroke-linejoin="round" stroke-opacity="1.0" stroke-width="3.0" />
            <path d=" M 766.543, 700.145 766.137, 698.708 764.864, 697.680 763.909, 697.133 763.544, 696.925 763.368, 696.824 762.802, 696.822 762.586, 696.821 762.340, 696.820 761.768, 696.818 759.240, 698.760 757.902, 701.693 757.148, 705.752 757.430, 706.315 757.764, 706.982 759.834, 711.118 759.888, 711.224 760.150, 711.747 761.454, 714.353 763.425, 720.719 763.449, 721.065 763.710, 724.880 763.718, 725.495 " fill="none" stroke="rgb(0, 0, 0)" stroke-linecap="butt" stroke-linejoin="round" stroke-opacity="1.0" stroke-width="3.0" />
            <path d=" M 1046.206, 681.519 1046.295, 681.383 1048.683, 677.730 1050.999, 671.823 1051.586, 670.793 1053.112, 666.140 1054.801, 662.405 1057.525, 655.778 1058.471, 653.471 1060.594, 646.764 1060.897, 644.853 " fill="none" stroke="rgb(0, 0, 0)" stroke-linecap="butt" stroke-linejoin="round" stroke-opacity="1.0" stroke-width="3.0" />
            <path d=" M 830.081, 766.315 829.565, 768.304 830.009, 772.330 829.417, 775.271 829.223, 776.232 827.147, 779.161 825.179, 783.472 824.800, 787.258 827.573, 793.209 830.404, 797.107 832.845, 800.797 833.961, 802.483 " fill="none" stroke="rgb(0, 0, 0)" stroke-linecap="butt" stroke-linejoin="round" stroke-opacity="1.0" stroke-width="3.0" />
            <path d=" M 913.267, 386.669 908.945, 390.791 904.666, 394.734 900.073, 395.996 894.702, 397.499 891.208, 398.456 884.476, 400.565 880.163, 402.622 877.777, 403.797 " fill="none" stroke="rgb(0, 0, 0)" stroke-linecap="butt" stroke-linejoin="round" stroke-opacity="1.0" stroke-width="3.0" />
            <path d=" M 770.890, 791.793 770.630, 791.568 769.361, 790.476 768.365, 789.620 768.273, 789.540 764.714, 786.477 764.139, 786.365 762.941, 786.729 762.601, 786.833 761.706, 787.105 760.746, 789.983 760.798, 791.685 761.005, 796.553 761.026, 796.767 761.123, 797.764 761.293, 799.500 761.380, 799.686 763.134, 803.427 763.240, 803.654 763.313, 804.288 763.632, 807.072 763.745, 808.058 763.804, 808.570 764.335, 811.419 764.947, 814.705 765.012, 815.050 765.066, 815.342 " fill="none" stroke="rgb(0, 0, 0)" stroke-linecap="butt" stroke-linejoin="round" stroke-opacity="1.0" stroke-width="3.0" />
            <path d=" M 798.868, 921.256 801.835, 922.162 810.877, 924.925 819.138, 927.289 823.761, 927.269 826.797, 927.157 831.527, 926.482 835.381, 925.126 838.379, 923.751 " fill="none" stroke="rgb(0, 0, 0)" stroke-linecap="butt" stroke-linejoin="round" stroke-opacity="1.0" stroke-width="3.0" />
            <path d=" M 602.079, 488.387 601.419, 488.035 599.836, 487.563 595.652, 486.313 588.883, 487.132 582.490, 488.001 577.670, 487.249 573.192, 486.095 568.755, 486.798 565.642, 486.897 562.777, 487.356 561.572, 487.549 " fill="none" stroke="rgb(0, 0, 0)" stroke-linecap="butt" stroke-linejoin="round" stroke-opacity="1.0" stroke-width="3.0" />
            <path d=" M 901.731, 524.727 901.546, 525.050 899.723, 528.234 897.017, 529.772 894.949, 531.842 893.677, 535.580 891.443, 540.248 888.885, 542.433 880.672, 541.816 878.228, 542.902 875.819, 545.978 875.759, 546.164 875.717, 546.298 875.008, 548.508 875.002, 548.528 874.534, 549.987 " fill="none" stroke="rgb(0, 0, 0)" stroke-linecap="butt" stroke-linejoin="round" stroke-opacity="1.0" stroke-width="3.0" />
            <path d=" M 709.290, 540.535 713.786, 543.976 715.862, 543.316 723.799, 538.258 724.642, 537.579 726.718, 534.748 727.121, 533.941 727.863, 532.454 728.276, 531.709 730.833, 527.098 732.450, 523.227 735.372, 516.973 " fill="none" stroke="rgb(0, 0, 0)" stroke-linecap="butt" stroke-linejoin="round" stroke-opacity="1.0" stroke-width="3.0" />
            <path d=" M 421.548, 792.104 421.081, 793.761 419.936, 798.378 419.102, 803.438 417.247, 813.288 415.403, 820.316 414.248, 827.453 413.367, 832.903 " fill="none" stroke="rgb(0, 0, 0)" stroke-linecap="butt" stroke-linejoin="round" stroke-opacity="1.0" stroke-width="3.0" />
            <path d=" M 902.213, 842.286 905.445, 841.089 908.492, 841.590 910.734, 843.681 910.892, 843.828 911.524, 844.417 912.234, 845.443 912.492, 846.743 910.269, 849.892 909.964, 850.969 909.242, 853.080 909.974, 850.117 911.315, 846.832 910.182, 844.660 910.163, 844.622 910.106, 844.513 909.015, 842.422 907.834, 842.067 906.334, 841.616 904.107, 842.170 901.944, 842.709 904.728, 841.931 " fill="none" stroke="rgb(0, 0, 0)" stroke-linecap="butt" stroke-linejoin="round" stroke-opacity="1.0" stroke-width="3.0" />
            <path d=" M 769.864, 622.896 772.585, 631.896 774.677, 634.954 774.760, 635.075 774.857, 635.217 775.013, 635.445 775.978, 636.856 776.318, 637.352 777.280, 638.758 777.341, 638.847 778.044, 639.875 778.057, 639.894 780.257, 642.586 780.860, 643.323 780.926, 643.404 783.003, 644.133 783.382, 644.266 783.862, 644.439 790.571, 646.847 793.213, 647.170 794.689, 648.714 797.008, 651.139 797.199, 651.340 " fill="none" stroke="rgb(0, 0, 0)" stroke-linecap="butt" stroke-linejoin="round" stroke-opacity="1.0" stroke-width="3.0" />
            <path d=" M 892.510, 882.625 892.886, 882.551 897.783, 881.586 902.993, 880.053 903.994, 879.708 908.052, 877.656 914.940, 873.253 916.373, 872.337 921.144, 870.715 923.259, 869.823 925.401, 869.226 928.285, 868.422 931.175, 866.441 " fill="none" stroke="rgb(0, 0, 0)" stroke-linecap="butt" stroke-linejoin="round" stroke-opacity="1.0" stroke-width="3.0" />
            <path d=" M 733.568, 846.685 732.377, 846.847 727.849, 846.710 722.188, 848.383 720.446, 848.750 717.937, 849.125 715.194, 850.257 712.781, 850.827 712.185, 852.295 712.436, 853.720 713.868, 854.546 722.678, 857.697 729.472, 859.582 " fill="none" stroke="rgb(0, 0, 0)" stroke-linecap="butt" stroke-linejoin="round" stroke-opacity="1.0" stroke-width="3.0" />
            <path d=" M 665.843, 590.040 667.124, 589.545 672.418, 585.470 675.826, 583.003 679.326, 580.256 675.206, 575.906 668.590, 572.714 658.853, 570.438 657.479, 570.117 656.334, 570.139 " fill="none" stroke="rgb(0, 0, 0)" stroke-linecap="butt" stroke-linejoin="round" stroke-opacity="1.0" stroke-width="3.0" />
            <path d=" M 851.241, 409.816 850.195, 410.522 850.170, 410.539 850.120, 410.573 850.037, 410.629 849.568, 410.946 849.070, 411.282 848.992, 411.334 848.510, 411.660 847.777, 412.155 845.219, 415.701 843.648, 419.110 842.087, 422.183 841.387, 423.561 840.765, 426.193 840.392, 429.750 840.438, 431.640 840.445, 431.905 840.445, 431.906 840.519, 434.960 840.818, 436.562 839.835, 438.364 839.620, 438.757 838.699, 440.444 838.586, 440.652 838.392, 441.008 834.833, 442.669 834.100, 443.011 830.970, 444.044 " fill="none" stroke="rgb(0, 0, 0)" stroke-linecap="butt" stroke-linejoin="round" stroke-opacity="1.0" stroke-width="3.0" />
            <path d=" M 470.255, 960.628 476.309, 963.777 481.727, 966.023 489.748, 968.174 499.176, 969.306 502.617, 968.702 505.864, 967.699 506.254, 965.864 505.616, 964.455 503.850, 962.736 503.574, 962.467 " fill="none" stroke="rgb(0, 0, 0)" stroke-linecap="butt" stroke-linejoin="round" stroke-opacity="1.0" stroke-width="3.0" />
            <path d=" M 850.077, 917.692 850.273, 917.572 855.684, 914.269 857.812, 912.722 858.040, 912.557 858.932, 911.937 862.033, 908.820 862.467, 908.383 868.200, 903.611 873.166, 899.190 875.288, 897.463 881.384, 893.595 884.125, 889.991 " fill="none" stroke="rgb(0, 0, 0)" stroke-linecap="butt" stroke-linejoin="round" stroke-opacity="1.0" stroke-width="3.0" />
            <path d=" M 833.505, 723.081 835.221, 731.869 835.586, 738.897 835.294, 740.229 834.895, 746.668 833.869, 750.531 833.028, 753.913 831.170, 758.959 830.552, 760.664 829.581, 763.346 829.861, 765.009 830.081, 766.315 830.201, 767.029 " fill="none" stroke="rgb(0, 0, 0)" stroke-linecap="butt" stroke-linejoin="round" stroke-opacity="1.0" stroke-width="3.0" />
            <path d=" M 742.128, 972.774 739.605, 973.423 735.595, 974.961 734.622, 975.329 733.185, 975.872 731.074, 976.523 726.838, 977.831 725.772, 979.519 726.318, 980.277 728.990, 982.741 738.705, 985.404 743.672, 985.305 743.870, 985.301 747.507, 984.553 747.849, 984.482 748.335, 984.382 748.598, 984.328 748.650, 984.318 748.712, 984.305 750.318, 986.585 " fill="none" stroke="rgb(0, 0, 0)" stroke-linecap="butt" stroke-linejoin="round" stroke-opacity="1.0" stroke-width="3.0" />
            <path d=" M 833.312, 803.322 833.656, 806.225 836.196, 809.054 837.337, 811.390 836.985, 813.798 838.264, 816.862 840.259, 819.700 841.371, 823.343 841.829, 826.888 842.258, 829.457 842.195, 830.551 841.784, 833.330 843.815, 841.564 844.766, 843.832 845.691, 846.039 " fill="none" stroke="rgb(0, 0, 0)" stroke-linecap="butt" stroke-linejoin="round" stroke-opacity="1.0" stroke-width="3.0" />
            <path d=" M 799.574, 504.745 798.941, 505.051 794.430, 507.232 794.373, 507.260 794.262, 507.313 793.736, 507.567 793.362, 507.748 791.998, 508.407 789.686, 509.525 789.446, 509.641 787.130, 510.375 786.599, 510.543 783.069, 511.662 777.292, 513.083 775.485, 514.330 774.849, 515.197 772.799, 517.990 771.018, 519.811 770.544, 520.295 769.454, 523.037 772.070, 525.728 773.061, 526.749 773.478, 529.062 773.577, 529.611 773.801, 530.859 " fill="none" stroke="rgb(0, 0, 0)" stroke-linecap="butt" stroke-linejoin="round" stroke-opacity="1.0" stroke-width="3.0" />
            <path d=" M 784.688, 689.897 782.939, 691.551 778.655, 695.867 778.624, 695.897 776.827, 698.500 776.214, 699.550 775.852, 700.860 776.831, 704.330 776.225, 710.195 775.132, 717.381 775.060, 717.858 773.516, 720.961 773.283, 721.429 773.053, 722.981 773.051, 722.997 772.670, 725.570 772.638, 725.789 772.586, 726.142 772.582, 726.148 772.514, 726.267 771.728, 727.628 770.891, 729.079 770.162, 731.991 " fill="none" stroke="rgb(0, 0, 0)" stroke-linecap="butt" stroke-linejoin="round" stroke-opacity="1.0" stroke-width="3.0" />
            <path d=" M 459.655, 652.788 457.902, 660.167 456.020, 669.710 455.179, 674.985 453.722, 679.053 453.388, 682.016 451.536, 688.289 450.602, 691.921 450.264, 693.251 448.890, 698.659 " fill="none" stroke="rgb(0, 0, 0)" stroke-linecap="butt" stroke-linejoin="round" stroke-opacity="1.0" stroke-width="3.0" />
            <path d=" M 718.918, 915.180 714.137, 916.312 712.944, 916.870 710.530, 918.033 709.621, 920.275 709.260, 923.232 709.138, 924.233 711.242, 925.917 714.060, 928.172 716.611, 930.100 720.146, 932.772 728.733, 937.575 734.865, 937.477 735.646, 937.465 737.174, 937.440 " fill="none" stroke="rgb(0, 0, 0)" stroke-linecap="butt" stroke-linejoin="round" stroke-opacity="1.0" stroke-width="3.0" />
            <path d=" M 746.024, 1017.599 743.085, 1019.236 742.578, 1019.518 742.170, 1019.745 739.298, 1021.344 734.134, 1023.752 733.643, 1023.981 731.727, 1024.823 731.667, 1024.849 731.203, 1025.053 728.945, 1026.045 728.128, 1027.524 728.146, 1029.833 733.037, 1031.657 733.339, 1031.770 735.007, 1032.392 736.721, 1033.044 742.568, 1033.510 745.309, 1033.415 751.795, 1030.979 752.015, 1030.896 " fill="none" stroke="rgb(0, 0, 0)" stroke-linecap="butt" stroke-linejoin="round" stroke-opacity="1.0" stroke-width="3.0" />
            <path d=" M 1040.198, 461.358 1039.194, 457.977 1037.880, 453.555 1035.535, 449.213 1032.886, 444.948 1031.322, 442.915 1026.928, 437.203 1023.319, 432.874 1020.993, 430.085 1014.838, 422.214 1014.050, 421.084 " fill="none" stroke="rgb(0, 0, 0)" stroke-linecap="butt" stroke-linejoin="round" stroke-opacity="1.0" stroke-width="3.0" />
            <path d=" M 416.146, 791.391 414.947, 794.311 414.469, 800.097 413.295, 808.129 412.271, 811.019 412.499, 815.458 411.001, 823.739 409.951, 829.611 410.346, 831.842 409.957, 838.025 410.081, 841.069 " fill="none" stroke="rgb(0, 0, 0)" stroke-linecap="butt" stroke-linejoin="round" stroke-opacity="1.0" stroke-width="3.0" />
            <path d=" M 450.264, 693.251 447.525, 702.709 445.462, 710.966 445.320, 711.532 445.315, 711.551 445.038, 712.661 443.150, 716.806 441.775, 721.976 440.713, 725.964 438.185, 733.776 437.296, 738.254 436.570, 741.913 " fill="none" stroke="rgb(0, 0, 0)" stroke-linecap="butt" stroke-linejoin="round" stroke-opacity="1.0" stroke-width="3.0" />
            <path d=" M 897.167, 784.248 895.320, 777.895 894.221, 774.935 891.986, 770.553 888.325, 763.247 886.135, 758.196 883.818, 753.019 881.406, 745.103 879.842, 738.654 879.802, 738.489 879.263, 736.263 " fill="none" stroke="rgb(0, 0, 0)" stroke-linecap="butt" stroke-linejoin="round" stroke-opacity="1.0" stroke-width="3.0" />
            <path d=" M 760.194, 532.745 757.718, 533.090 757.600, 533.106 757.477, 533.123 756.582, 533.248 749.527, 535.142 747.299, 536.628 740.541, 541.135 738.952, 543.246 736.358, 546.467 736.213, 546.646 736.167, 546.704 732.479, 551.282 731.273, 554.939 729.850, 559.258 727.117, 567.190 " fill="none" stroke="rgb(0, 0, 0)" stroke-linecap="butt" stroke-linejoin="round" stroke-opacity="1.0" stroke-width="3.0" />
            <path d=" M 734.256, 950.609 728.823, 952.921 721.897, 954.715 720.028, 956.282 719.174, 961.517 723.172, 964.100 726.698, 965.187 728.103, 965.737 728.116, 965.742 728.620, 965.939 731.477, 967.059 738.157, 967.874 739.173, 967.297 745.676, 966.463 749.390, 966.790 " fill="none" stroke="rgb(0, 0, 0)" stroke-linecap="butt" stroke-linejoin="round" stroke-opacity="1.0" stroke-width="3.0" />
            <path d=" M 798.174, 602.789 799.317, 601.363 799.612, 600.996 799.737, 600.840 799.936, 600.593 799.938, 600.590 800.194, 600.271 800.754, 599.573 802.548, 597.337 806.982, 594.372 807.310, 594.238 807.887, 594.001 809.148, 593.484 809.162, 593.479 810.366, 592.985 810.583, 592.896 812.118, 592.267 812.819, 591.980 813.033, 591.953 813.532, 591.890 813.753, 591.862 813.778, 591.859 814.566, 591.759 815.823, 591.601 815.998, 591.579 822.939, 590.703 827.742, 591.100 832.270, 591.474 839.295, 592.520 844.769, 592.854 846.643, 592.969 " fill="none" stroke="rgb(0, 0, 0)" stroke-linecap="butt" stroke-linejoin="round" stroke-opacity="1.0" stroke-width="3.0" />
            <path d=" M 764.416, 726.297 764.158, 726.000 763.718, 725.495 760.730, 722.060 757.725, 718.777 757.700, 718.749 757.282, 718.293 757.234, 718.241 757.220, 718.225 757.165, 718.165 757.095, 718.089 757.033, 718.020 756.399, 717.328 751.823, 712.328 750.958, 711.464 744.721, 705.237 738.005, 699.052 731.973, 694.589 726.463, 688.956 " fill="none" stroke="rgb(0, 0, 0)" stroke-linecap="butt" stroke-linejoin="round" stroke-opacity="1.0" stroke-width="3.0" />
            <path d=" M 1005.376, 775.064 1007.772, 771.303 1010.212, 766.601 1011.096, 764.619 1014.536, 757.300 1016.678, 749.804 1018.223, 746.219 1019.439, 741.878 1022.068, 736.694 1025.118, 732.090 1025.869, 728.282 1025.921, 726.170 " fill="none" stroke="rgb(0, 0, 0)" stroke-linecap="butt" stroke-linejoin="round" stroke-opacity="1.0" stroke-width="3.0" />
            <path d=" M 835.097, 445.600 834.568, 445.400 830.970, 444.044 828.519, 443.120 819.665, 438.473 818.521, 437.872 817.164, 437.251 816.166, 436.794 814.963, 436.243 813.854, 435.735 809.743, 433.512 807.130, 432.099 798.286, 430.330 795.084, 431.110 791.897, 432.120 788.174, 436.385 787.260, 437.432 " fill="none" stroke="rgb(0, 0, 0)" stroke-linecap="butt" stroke-linejoin="round" stroke-opacity="1.0" stroke-width="3.0" />
            <path d=" M 1068.827, 606.192 1069.979, 601.108 1070.619, 595.550 1069.327, 586.800 1070.038, 580.846 1070.015, 573.657 1070.769, 568.106 1070.224, 563.666 1067.661, 555.457 1066.973, 553.253 " fill="none" stroke="rgb(0, 0, 0)" stroke-linecap="butt" stroke-linejoin="round" stroke-opacity="1.0" stroke-width="3.0" />
            <path d=" M 716.744, 625.989 715.470, 621.106 714.483, 618.852 713.752, 617.370 713.233, 616.319 712.361, 614.823 711.665, 613.630 710.037, 612.149 705.897, 609.421 703.023, 608.932 699.615, 609.206 692.877, 612.510 688.268, 615.975 686.618, 620.667 685.827, 622.917 685.818, 622.942 685.774, 622.985 685.381, 623.357 685.111, 623.612 680.660, 627.832 " fill="none" stroke="rgb(0, 0, 0)" stroke-linecap="butt" stroke-linejoin="round" stroke-opacity="1.0" stroke-width="3.0" />
            <path d=" M 445.149, 711.831 443.175, 715.282 442.701, 716.229 439.003, 723.843 436.094, 732.446 434.967, 736.988 431.773, 746.464 431.432, 747.475 430.068, 752.907 428.181, 760.235 427.478, 762.927 427.359, 763.385 " fill="none" stroke="rgb(0, 0, 0)" stroke-linecap="butt" stroke-linejoin="round" stroke-opacity="1.0" stroke-width="3.0" />
            <path d=" M 487.693, 833.601 490.712, 829.281 493.752, 829.993 494.716, 830.219 501.405, 835.679 501.451, 835.695 502.979, 836.232 504.882, 836.902 505.264, 837.036 506.079, 836.955 506.229, 836.940 511.290, 836.433 519.745, 836.556 523.400, 833.920 524.585, 830.670 525.109, 826.779 525.936, 823.822 526.792, 821.058 526.878, 820.778 " fill="none" stroke="rgb(0, 0, 0)" stroke-linecap="butt" stroke-linejoin="round" stroke-opacity="1.0" stroke-width="3.0" />
            <path d=" M 473.824, 877.288 474.625, 877.663 482.382, 881.296 487.656, 882.564 489.107, 882.419 489.371, 882.393 493.459, 881.985 499.006, 881.499 504.641, 881.222 508.794, 880.472 509.903, 880.045 511.679, 877.258 511.962, 876.621 510.369, 873.426 501.339, 869.129 500.874, 868.908 " fill="none" stroke="rgb(0, 0, 0)" stroke-linecap="butt" stroke-linejoin="round" stroke-opacity="1.0" stroke-width="3.0" />
            <path d=" M 766.249, 673.928 766.158, 674.362 767.888, 680.152 768.102, 680.869 768.128, 680.977 769.173, 685.285 770.106, 692.541 770.363, 694.418 770.369, 694.462 771.256, 700.942 771.302, 706.145 771.307, 706.799 771.328, 709.214 771.338, 710.338 771.342, 710.824 770.660, 716.848 770.659, 716.860 770.620, 717.202 770.609, 717.299 770.573, 717.619 770.570, 717.640 770.565, 717.687 770.564, 717.695 770.520, 718.080 770.435, 718.831 770.237, 719.518 770.216, 719.589 769.197, 723.115 768.420, 725.805 768.151, 726.786 767.537, 729.390 " fill="none" stroke="rgb(0, 0, 0)" stroke-linecap="butt" stroke-linejoin="round" stroke-opacity="1.0" stroke-width="3.0" />
            <path d=" M 907.450, 828.542 907.586, 826.890 908.109, 820.499 908.138, 817.737 906.504, 813.577 906.704, 811.257 907.259, 806.752 905.518, 802.738 903.538, 797.610 900.272, 789.337 897.818, 783.198 894.221, 774.935 " fill="none" stroke="rgb(0, 0, 0)" stroke-linecap="butt" stroke-linejoin="round" stroke-opacity="1.0" stroke-width="3.0" />
            <path d=" M 723.580, 872.722 720.592, 875.611 717.947, 878.868 718.134, 880.474 718.204, 881.077 720.668, 885.677 721.657, 886.105 723.689, 886.836 723.872, 886.902 724.758, 887.220 724.828, 887.246 724.961, 887.293 726.253, 887.758 731.114, 889.966 734.092, 892.480 733.949, 892.861 733.852, 893.117 733.198, 894.854 732.662, 896.278 732.641, 897.384 732.606, 899.133 732.577, 900.598 732.316, 903.269 732.369, 904.690 732.395, 905.381 732.405, 905.633 732.439, 906.553 732.444, 906.680 732.446, 906.732 732.484, 907.739 732.511, 908.473 733.984, 911.325 734.010, 911.374 734.611, 912.538 734.772, 912.850 734.843, 912.986 734.522, 913.912 734.520, 913.918 734.483, 914.023 733.373, 917.226 " fill="none" stroke="rgb(0, 0, 0)" stroke-linecap="butt" stroke-linejoin="round" stroke-opacity="1.0" stroke-width="3.0" />
            <path d=" M 437.296, 738.254 435.027, 744.065 433.431, 747.933 431.577, 756.251 429.018, 762.526 427.603, 767.442 425.220, 777.154 424.785, 778.929 422.399, 788.640 421.548, 792.104 421.151, 793.720 " fill="none" stroke="rgb(0, 0, 0)" stroke-linecap="butt" stroke-linejoin="round" stroke-opacity="1.0" stroke-width="3.0" />
            <path d=" M 957.613, 358.445 954.500, 358.377 950.248, 358.687 943.976, 359.486 942.054, 359.403 937.977, 361.496 936.739, 362.288 933.058, 364.453 928.364, 367.777 924.314, 371.323 921.268, 373.201 917.017, 375.459 914.375, 376.729 908.894, 379.919 906.609, 382.112 906.543, 382.175 " fill="none" stroke="rgb(0, 0, 0)" stroke-linecap="butt" stroke-linejoin="round" stroke-opacity="1.0" stroke-width="3.0" />
            <path d=" M 876.360, 670.423 877.508, 663.252 879.987, 653.564 880.629, 651.059 882.733, 646.140 884.220, 640.691 885.088, 637.841 887.305, 628.090 887.480, 627.320 889.831, 617.654 890.403, 613.914 " fill="none" stroke="rgb(0, 0, 0)" stroke-linecap="butt" stroke-linejoin="round" stroke-opacity="1.0" stroke-width="3.0" />
            <path d=" M 472.504, 895.201 473.097, 895.584 474.443, 896.454 479.495, 899.717 479.775, 899.847 485.500, 901.499 487.267, 902.009 487.844, 902.064 488.456, 902.123 497.047, 902.948 500.256, 902.561 501.914, 902.379 503.529, 899.379 504.299, 896.295 501.356, 894.014 496.862, 890.531 490.841, 884.668 489.107, 882.419 " fill="none" stroke="rgb(0, 0, 0)" stroke-linecap="butt" stroke-linejoin="round" stroke-opacity="1.0" stroke-width="3.0" />
            <path d=" M 657.085, 570.282 656.334, 570.139 646.510, 568.272 642.197, 567.452 639.479, 566.587 632.137, 566.524 624.745, 567.384 622.036, 569.257 615.739, 573.633 606.889, 578.288 606.674, 578.401 605.207, 578.530 603.989, 578.445 601.489, 579.629 600.546, 580.089 595.675, 582.464 " fill="none" stroke="rgb(0, 0, 0)" stroke-linecap="butt" stroke-linejoin="round" stroke-opacity="1.0" stroke-width="3.0" />
            <path d=" M 888.826, 617.328 890.403, 613.914 890.752, 613.157 892.003, 609.331 893.005, 605.540 894.963, 597.841 895.144, 595.351 898.388, 585.891 899.444, 582.811 899.579, 577.913 897.464, 569.885 897.344, 569.426 897.205, 567.299 897.022, 564.495 896.940, 563.250 898.164, 555.080 898.400, 553.507 " fill="none" stroke="rgb(0, 0, 0)" stroke-linecap="butt" stroke-linejoin="round" stroke-opacity="1.0" stroke-width="3.0" />
            <path d=" M 992.268, 416.979 992.094, 417.088 992.089, 417.091 990.751, 417.927 990.599, 418.022 989.860, 418.484 989.037, 418.999 987.826, 420.049 987.742, 420.121 985.834, 421.775 985.594, 421.977 985.071, 422.417 982.312, 424.738 977.580, 430.356 973.909, 434.429 972.829, 435.668 969.224, 439.803 968.809, 440.494 968.771, 440.557 968.584, 440.869 965.985, 445.198 964.176, 449.100 961.814, 454.235 958.232, 458.650 955.321, 462.204 949.638, 468.184 " fill="none" stroke="rgb(0, 0, 0)" stroke-linecap="butt" stroke-linejoin="round" stroke-opacity="1.0" stroke-width="3.0" />
            <path d=" M 706.680, 923.846 701.687, 923.904 696.177, 923.968 691.527, 923.999 689.914, 926.261 691.820, 928.318 694.818, 929.835 699.590, 931.866 702.332, 932.393 706.533, 933.903 713.164, 936.300 722.230, 938.057 729.706, 940.261 736.549, 941.521 " fill="none" stroke="rgb(0, 0, 0)" stroke-linecap="butt" stroke-linejoin="round" stroke-opacity="1.0" stroke-width="3.0" />
            <path d=" M 558.777, 581.011 554.984, 579.896 551.485, 578.760 545.571, 577.587 537.676, 575.279 533.352, 573.887 528.382, 574.665 524.128, 573.933 518.205, 572.354 513.500, 572.972 510.373, 574.290 504.124, 575.104 500.763, 577.331 497.954, 578.813 497.668, 578.964 495.594, 580.223 495.305, 580.399 494.483, 580.898 " fill="none" stroke="rgb(0, 0, 0)" stroke-linecap="butt" stroke-linejoin="round" stroke-opacity="1.0" stroke-width="3.0" />
            <path d=" M 408.283, 859.138 408.258, 859.153 407.263, 859.769 408.554, 867.023 411.110, 876.044 412.096, 880.655 413.820, 888.373 416.984, 896.850 420.976, 904.937 425.470, 913.870 425.610, 914.149 427.508, 917.299 430.298, 921.929 " fill="none" stroke="rgb(0, 0, 0)" stroke-linecap="butt" stroke-linejoin="round" stroke-opacity="1.0" stroke-width="3.0" />
            <path d=" M 731.900, 587.800 735.144, 597.259 735.767, 599.078 740.915, 607.065 744.104, 612.045 744.150, 612.094 749.815, 618.128 753.384, 621.662 759.903, 627.568 767.800, 633.703 768.097, 633.934 770.329, 635.668 773.067, 637.799 773.268, 637.954 773.450, 638.096 773.787, 638.358 774.058, 638.569 774.153, 638.643 775.366, 639.587 " fill="none" stroke="rgb(0, 0, 0)" stroke-linecap="butt" stroke-linejoin="round" stroke-opacity="1.0" stroke-width="3.0" />
            <path d=" M 770.159, 772.352 771.315, 772.232 771.799, 772.181 772.375, 772.121 772.517, 772.107 773.861, 771.967 773.917, 771.961 774.008, 771.952 774.082, 771.944 774.585, 771.892 774.607, 771.889 776.232, 771.720 776.626, 771.436 776.798, 771.312 776.801, 771.310 778.562, 770.039 780.953, 765.802 781.004, 765.711 781.033, 765.614 781.043, 765.579 781.050, 765.555 781.092, 765.416 781.841, 762.927 781.983, 762.455 781.983, 762.455 782.748, 759.915 783.646, 756.928 786.995, 750.565 787.135, 746.176 787.243, 742.786 787.082, 742.296 785.756, 738.243 785.717, 738.221 785.048, 737.853 783.834, 737.185 783.224, 736.850 783.190, 736.841 774.299, 734.724 774.298, 734.723 774.227, 734.706 773.981, 734.648 773.910, 734.631 773.699, 734.527 771.757, 733.571 771.435, 733.252 770.162, 731.991 767.776, 729.626 767.537, 729.390 765.685, 727.554 764.416, 726.297 764.159, 726.042 763.720, 725.607 763.483, 725.372 " fill="none" stroke="rgb(0, 0, 0)" stroke-linecap="butt" stroke-linejoin="round" stroke-opacity="1.0" stroke-width="3.0" />
            <path d=" M 1066.328, 538.841 1066.391, 530.749 1064.283, 526.013 1063.107, 523.435 1059.775, 518.874 1056.726, 513.883 1056.541, 512.597 1056.083, 511.527 1053.604, 505.748 1051.284, 500.742 1050.858, 499.823 1049.470, 496.829 1047.745, 493.106 1047.169, 491.863 1046.692, 490.834 1046.439, 489.981 1046.375, 489.765 1045.120, 485.538 1042.233, 475.964 1041.727, 474.286 " fill="none" stroke="rgb(0, 0, 0)" stroke-linecap="butt" stroke-linejoin="round" stroke-opacity="1.0" stroke-width="3.0" />
            <path d=" M 879.842, 738.654 879.831, 738.513 879.295, 731.734 877.586, 722.918 877.570, 722.837 877.519, 722.573 877.461, 722.272 877.413, 722.026 876.916, 719.463 875.479, 709.567 875.416, 709.127 874.641, 701.631 874.388, 692.628 874.452, 686.835 876.013, 676.958 876.031, 676.843 876.360, 670.423 876.438, 668.896 " fill="none" stroke="rgb(0, 0, 0)" stroke-linecap="butt" stroke-linejoin="round" stroke-opacity="1.0" stroke-width="3.0" />
            <path d=" M 879.831, 738.513 880.162, 738.793 880.768, 739.250 887.370, 743.324 896.528, 747.340 896.836, 747.475 905.856, 750.719 908.927, 751.620 914.231, 754.114 916.265, 754.926 925.426, 758.936 928.587, 760.319 936.662, 763.032 942.729, 766.168 944.953, 767.318 945.777, 767.744 " fill="none" stroke="rgb(0, 0, 0)" stroke-linecap="butt" stroke-linejoin="round" stroke-opacity="1.0" stroke-width="3.0" />
            <path d=" M 1021.774, 428.489 1020.919, 427.379 1014.816, 419.458 1013.351, 417.557 1012.968, 417.059 1012.716, 416.561 1010.184, 411.549 1006.973, 402.079 1006.477, 400.614 1003.958, 393.944 999.185, 385.156 998.155, 383.260 992.012, 375.369 991.923, 375.255 989.880, 372.315 987.230, 369.394 985.280, 367.576 984.355, 366.714 " fill="none" stroke="rgb(0, 0, 0)" stroke-linecap="butt" stroke-linejoin="round" stroke-opacity="1.0" stroke-width="3.0" />
            <path d=" M 872.876, 512.135 872.696, 511.979 872.523, 511.830 871.582, 511.015 867.202, 507.223 863.750, 506.332 853.798, 505.350 852.033, 505.177 849.704, 504.947 841.309, 505.160 836.014, 505.549 828.877, 506.294 819.464, 506.039 819.144, 506.030 815.667, 505.936 811.679, 505.571 808.608, 505.291 807.430, 505.183 807.181, 505.160 807.180, 505.160 807.173, 505.160 806.761, 505.122 806.754, 505.121 805.440, 505.001 805.269, 504.986 803.691, 504.841 803.594, 504.833 801.841, 504.086 803.691, 504.841 " fill="none" stroke="rgb(0, 0, 0)" stroke-linecap="butt" stroke-linejoin="round" stroke-opacity="1.0" stroke-width="3.0" />
            <path d=" M 500.763, 577.331 491.541, 581.197 491.351, 581.276 490.607, 581.302 490.600, 581.302 490.558, 581.304 483.635, 581.544 480.660, 581.886 476.702, 583.180 469.342, 587.446 466.086, 589.791 465.062, 591.057 460.452, 595.852 460.346, 596.605 458.437, 603.026 458.901, 608.322 459.701, 613.336 460.108, 614.956 459.700, 619.488 459.774, 619.707 462.635, 628.148 " fill="none" stroke="rgb(0, 0, 0)" stroke-linecap="butt" stroke-linejoin="round" stroke-opacity="1.0" stroke-width="3.0" />
            <path d=" M 514.813, 501.914 513.376, 503.257 509.125, 507.228 507.242, 509.290 504.018, 512.454 502.163, 515.421 499.302, 519.057 495.706, 528.388 495.609, 528.639 495.079, 535.214 494.235, 538.818 494.196, 541.849 493.634, 545.831 493.533, 550.005 493.242, 557.849 493.680, 563.009 493.662, 569.222 492.462, 575.494 490.881, 580.425 490.600, 581.302 " fill="none" stroke="rgb(0, 0, 0)" stroke-linecap="butt" stroke-linejoin="round" stroke-opacity="1.0" stroke-width="3.0" />
            <path d=" M 774.168, 667.042 773.778, 667.513 772.571, 668.974 771.582, 671.276 771.593, 671.352 772.336, 676.300 772.725, 676.909 772.782, 676.998 772.788, 677.008 775.162, 680.725 777.609, 683.661 778.516, 684.749 778.731, 685.007 784.320, 689.510 784.688, 689.897 786.624, 691.937 787.059, 692.476 795.578, 697.712 800.254, 700.586 807.924, 705.355 808.419, 705.663 810.400, 706.895 810.939, 707.300 813.638, 709.328 817.020, 711.870 817.451, 712.194 818.242, 713.278 819.217, 714.615 819.855, 715.489 821.114, 717.215 821.483, 717.721 822.314, 718.860 822.347, 718.904 822.361, 718.924 823.085, 719.917 823.896, 721.745 823.905, 721.763 823.952, 721.870 825.023, 724.283 827.625, 730.145 827.858, 730.668 827.992, 730.971 " fill="none" stroke="rgb(0, 0, 0)" stroke-linecap="butt" stroke-linejoin="round" stroke-opacity="1.0" stroke-width="3.0" />
            <path d=" M 860.004, 933.684 865.384, 928.288 867.369, 926.511 869.853, 924.287 877.041, 917.335 877.406, 916.982 880.752, 914.089 886.906, 907.892 893.886, 900.731 894.884, 899.708 899.982, 894.938 905.787, 888.801 913.073, 881.886 920.163, 874.833 920.346, 874.651 924.801, 869.765 925.401, 869.226 " fill="none" stroke="rgb(0, 0, 0)" stroke-linecap="butt" stroke-linejoin="round" stroke-opacity="1.0" stroke-width="3.0" />
            <path d=" M 766.055, 423.563 765.197, 424.075 764.928, 424.235 764.890, 424.257 763.261, 425.228 760.895, 426.636 756.489, 430.480 750.602, 437.529 745.147, 444.058 740.478, 452.231 738.413, 455.934 734.655, 465.201 732.238, 471.162 730.092, 479.674 728.787, 484.850 728.999, 492.936 730.679, 501.284 732.530, 505.648 732.831, 506.357 " fill="none" stroke="rgb(0, 0, 0)" stroke-linecap="butt" stroke-linejoin="round" stroke-opacity="1.0" stroke-width="3.0" />
            <path d=" M 950.623, 779.248 952.467, 785.228 952.544, 785.480 953.304, 787.942 955.262, 794.239 955.716, 795.699 956.618, 797.352 956.692, 797.488 957.633, 799.210 958.527, 800.847 958.691, 801.421 958.817, 801.860 959.955, 805.830 960.195, 806.665 960.318, 808.255 960.326, 808.355 960.622, 812.166 960.755, 813.871 963.774, 821.318 966.126, 826.211 968.204, 829.817 970.589, 832.160 973.890, 835.198 976.250, 837.096 980.157, 837.755 982.604, 838.167 985.127, 837.245 986.385, 836.233 988.666, 833.457 989.967, 827.639 988.690, 822.670 985.403, 818.075 985.033, 817.559 " fill="none" stroke="rgb(0, 0, 0)" stroke-linecap="butt" stroke-linejoin="round" stroke-opacity="1.0" stroke-width="3.0" />
            <path d=" M 760.286, 1028.696 764.084, 1029.016 768.078, 1029.353 774.541, 1028.468 778.472, 1027.110 782.881, 1024.763 784.723, 1023.524 792.459, 1021.316 799.011, 1018.163 803.154, 1015.689 812.426, 1012.054 815.834, 1010.552 819.096, 1008.982 822.045, 1006.866 822.672, 1006.416 823.523, 1005.805 824.599, 1005.033 828.614, 999.952 832.359, 993.258 834.717, 987.317 836.625, 982.552 836.634, 982.529 838.017, 979.075 " fill="none" stroke="rgb(0, 0, 0)" stroke-linecap="butt" stroke-linejoin="round" stroke-opacity="1.0" stroke-width="3.0" />
            <path d=" M 837.273, 401.268 834.065, 398.995 832.034, 397.557 827.506, 394.583 821.807, 391.882 818.805, 390.096 816.334, 389.444 807.704, 387.806 799.690, 388.172 796.642, 387.816 792.714, 388.235 788.907, 389.092 785.225, 395.420 782.514, 400.146 781.185, 401.679 779.892, 403.169 778.244, 406.479 776.737, 411.878 776.608, 412.341 775.106, 418.620 775.060, 418.812 774.902, 419.474 774.855, 420.546 774.853, 420.574 774.852, 420.600 774.786, 422.108 774.779, 422.256 774.762, 422.640 774.745, 423.031 774.733, 423.310 774.522, 428.102 774.185, 431.584 774.257, 440.903 774.752, 444.465 775.496, 448.499 775.954, 449.640 " fill="none" stroke="rgb(0, 0, 0)" stroke-linecap="butt" stroke-linejoin="round" stroke-opacity="1.0" stroke-width="3.0" />
            <path d=" M 994.078, 403.138 991.965, 402.680 991.070, 402.485 990.099, 402.275 986.370, 401.466 979.209, 399.506 979.053, 399.464 979.024, 399.456 977.595, 399.213 977.077, 399.125 973.475, 401.968 967.804, 402.538 960.832, 402.257 960.533, 402.244 953.058, 401.942 953.054, 401.942 950.718, 401.847 940.732, 401.326 938.095, 401.188 928.102, 401.566 923.824, 401.728 917.436, 402.246 907.450, 402.781 902.853, 403.027 893.267, 405.874 892.632, 406.062 891.562, 406.198 887.439, 406.719 884.519, 406.370 881.565, 406.016 881.071, 405.957 880.811, 405.926 880.692, 405.912 879.334, 405.750 879.144, 405.727 877.416, 405.520 " fill="none" stroke="rgb(0, 0, 0)" stroke-linecap="butt" stroke-linejoin="round" stroke-opacity="1.0" stroke-width="3.0" />
            <path d=" M 670.069, 668.794 676.295, 673.169 677.127, 673.753 685.443, 679.308 686.664, 680.124 693.738, 687.192 699.494, 692.943 707.393, 696.950 714.860, 697.892 722.267, 693.469 725.355, 690.373 726.007, 689.720 726.463, 688.956 731.590, 680.370 732.417, 678.985 733.825, 671.722 732.629, 663.239 731.393, 657.192 727.529, 647.969 727.371, 647.592 725.134, 643.179 722.212, 637.536 718.505, 629.828 716.744, 625.989 716.597, 625.667 " fill="none" stroke="rgb(0, 0, 0)" stroke-linecap="butt" stroke-linejoin="round" stroke-opacity="1.0" stroke-width="3.0" />
            <path d=" M 670.451, 468.471 674.927, 464.460 680.122, 461.246 684.508, 459.890 689.400, 459.669 693.482, 458.012 698.210, 452.473 698.470, 450.949 698.042, 448.180 695.508, 444.981 688.832, 440.069 685.079, 438.760 680.581, 438.076 673.718, 438.253 667.678, 438.333 660.945, 439.501 656.051, 441.363 652.677, 443.198 647.841, 447.008 643.130, 451.631 638.599, 457.064 637.202, 459.433 632.401, 464.566 626.507, 471.065 623.843, 475.116 618.648, 480.316 612.197, 484.173 " fill="none" stroke="rgb(0, 0, 0)" stroke-linecap="butt" stroke-linejoin="round" stroke-opacity="1.0" stroke-width="3.0" />
            <path d=" M 746.841, 988.658 744.567, 990.310 742.427, 991.507 742.279, 991.590 738.993, 993.426 735.781, 995.553 729.893, 997.893 728.896, 998.290 719.771, 1002.382 716.204, 1003.982 712.993, 1005.325 707.758, 1007.095 702.301, 1008.565 697.491, 1009.776 692.210, 1011.017 688.971, 1012.682 688.173, 1013.841 687.062, 1015.588 687.484, 1018.614 691.196, 1020.021 695.879, 1020.773 705.662, 1021.581 706.783, 1021.595 716.783, 1021.520 720.018, 1021.496 724.624, 1021.696 730.392, 1021.259 731.852, 1021.148 740.965, 1019.060 741.936, 1018.773 742.322, 1018.660 742.333, 1018.656 742.340, 1018.654 742.963, 1018.471 745.483, 1017.728 746.024, 1017.599 747.071, 1017.351 752.724, 1016.008 753.937, 1017.325 755.687, 1018.094 759.003, 1017.652 759.386, 1017.601 760.924, 1016.992 761.961, 1016.581 767.519, 1014.380 769.056, 1013.364 772.689, 1011.979 778.561, 1010.844 782.169, 1009.134 " fill="none" stroke="rgb(0, 0, 0)" stroke-linecap="butt" stroke-linejoin="round" stroke-opacity="1.0" stroke-width="3.0" />
            <path d=" M 555.867, 747.133 558.358, 746.283 559.069, 746.041 560.268, 745.631 560.661, 745.497 561.340, 745.266 562.820, 744.761 571.658, 743.867 572.757, 743.756 573.761, 743.693 575.777, 743.568 575.781, 743.567 576.346, 743.532 577.342, 743.470 585.097, 743.202 592.755, 743.110 593.859, 743.097 603.849, 743.553 604.224, 743.570 611.107, 744.181 615.346, 744.557 617.925, 745.126 621.715, 745.961 631.481, 748.115 632.770, 748.399 634.207, 748.966 641.004, 751.651 644.894, 754.176 653.885, 758.553 662.877, 762.930 663.501, 763.233 672.645, 767.281 676.162, 768.837 683.764, 770.938 693.463, 773.375 694.895, 773.735 704.790, 775.182 706.501, 775.432 714.130, 776.868 717.094, 777.051 717.368, 777.068 717.544, 777.079 719.705, 777.212 719.726, 777.213 720.999, 777.291 727.924, 777.718 731.446, 777.626 732.451, 777.599 732.601, 777.595 732.612, 777.595 733.780, 777.565 " fill="none" stroke="rgb(0, 0, 0)" stroke-linecap="butt" stroke-linejoin="round" stroke-opacity="1.0" stroke-width="3.0" />
        </g>
    </g>
</svg>
