<?xml version='1.0' encoding='ascii'?>
<svg xmlns="http://www.w3.org/2000/svg" height="1280" version="1.1" width="1280">
    <g id="RenderLayer_LineSet" inkscape:groupmode="lineset" inkscape:label="RenderLayer_LineSet" xmlns:inkscape="http://www.inkscape.org/namespaces/inkscape">
        <g id="strokes" inkscape:groupmode="layer" inkscape:label="strokes" xmlns:inkscape="http://www.inkscape.org/namespaces/inkscape">
            <path d=" M 836.914, 577.461 836.944, 577.960 836.965, 578.306 836.982, 578.590 837.062, 579.932 837.172, 581.747 837.181, 581.907 837.982, 590.331 840.138, 597.164 " fill="none" stroke="rgb(0, 0, 0)" stroke-linecap="butt" stroke-linejoin="round" stroke-opacity="1.0" stroke-width="3.0" />
            <path d=" M 553.666, 703.292 556.709, 700.787 558.614, 699.229 561.682, 696.721 562.811, 695.797 563.281, 695.413 564.388, 694.508 566.334, 694.114 570.890, 693.194 " fill="none" stroke="rgb(0, 0, 0)" stroke-linecap="butt" stroke-linejoin="round" stroke-opacity="1.0" stroke-width="3.0" />
            <path d=" M 439.950, 1057.055 440.382, 1053.467 441.256, 1046.208 439.711, 1042.951 438.308, 1039.992 437.651, 1037.110 " fill="none" stroke="rgb(0, 0, 0)" stroke-linecap="butt" stroke-linejoin="round" stroke-opacity="1.0" stroke-width="3.0" />
            <path d=" M 1019.801, 653.797 1020.034, 653.366 1021.555, 650.554 1023.132, 645.436 1023.528, 644.719 1025.627, 637.649 1024.210, 634.418 " fill="none" stroke="rgb(0, 0, 0)" stroke-linecap="butt" stroke-linejoin="round" stroke-opacity="1.0" stroke-width="3.0" />
            <path d=" M 978.339, 432.520 973.428, 426.336 965.558, 420.167 963.268, 418.371 " fill="none" stroke="rgb(0, 0, 0)" stroke-linecap="butt" stroke-linejoin="round" stroke-opacity="1.0" stroke-width="3.0" />
            <path d=" M 767.958, 752.566 768.002, 751.956 768.436, 747.452 766.623, 746.312 762.403, 746.181 758.000, 743.246 756.342, 743.004 755.205, 743.830 755.088, 744.086 754.903, 744.750 " fill="none" stroke="rgb(0, 0, 0)" stroke-linecap="butt" stroke-linejoin="round" stroke-opacity="1.0" stroke-width="3.0" />
            <path d=" M 1031.183, 493.094 1030.953, 490.443 1029.662, 486.987 1027.308, 481.818 1024.882, 476.954 1024.503, 476.331 1023.117, 474.054 " fill="none" stroke="rgb(0, 0, 0)" stroke-linecap="butt" stroke-linejoin="round" stroke-opacity="1.0" stroke-width="3.0" />
            <path d=" M 967.747, 406.815 965.351, 401.768 963.389, 398.814 960.360, 394.667 959.363, 393.028 958.059, 390.885 957.959, 390.721 956.884, 388.954 " fill="none" stroke="rgb(0, 0, 0)" stroke-linecap="butt" stroke-linejoin="round" stroke-opacity="1.0" stroke-width="3.0" />
            <path d=" M 623.237, 669.419 623.597, 669.432 631.341, 669.712 638.561, 669.581 640.458, 669.547 641.132, 669.480 644.181, 669.176 " fill="none" stroke="rgb(0, 0, 0)" stroke-linecap="butt" stroke-linejoin="round" stroke-opacity="1.0" stroke-width="3.0" />
            <path d=" M 798.470, 590.570 798.088, 592.415 797.934, 595.634 796.177, 604.243 796.286, 609.610 796.322, 611.349 " fill="none" stroke="rgb(0, 0, 0)" stroke-linecap="butt" stroke-linejoin="round" stroke-opacity="1.0" stroke-width="3.0" />
            <path d=" M 673.495, 498.461 679.711, 498.267 683.417, 495.565 679.434, 499.203 675.284, 501.630 " fill="none" stroke="rgb(0, 0, 0)" stroke-linecap="butt" stroke-linejoin="round" stroke-opacity="1.0" stroke-width="3.0" />
            <path d=" M 481.410, 922.607 481.877, 922.622 486.881, 922.658 490.521, 922.205 493.751, 920.838 495.453, 919.903 494.548, 918.346 491.961, 917.267 490.132, 916.929 " fill="none" stroke="rgb(0, 0, 0)" stroke-linecap="butt" stroke-linejoin="round" stroke-opacity="1.0" stroke-width="3.0" />
            <path d=" M 893.990, 383.061 891.878, 384.135 891.636, 384.286 888.844, 386.030 883.536, 389.961 882.187, 391.435 878.776, 393.694 878.454, 393.907 876.698, 395.070 " fill="none" stroke="rgb(0, 0, 0)" stroke-linecap="butt" stroke-linejoin="round" stroke-opacity="1.0" stroke-width="3.0" />
            <path d=" M 968.617, 729.985 969.829, 732.035 970.822, 733.714 970.982, 737.195 972.858, 743.163 973.789, 745.121 973.988, 745.689 974.165, 746.198 974.901, 748.303 974.392, 749.831 " fill="none" stroke="rgb(0, 0, 0)" stroke-linecap="butt" stroke-linejoin="round" stroke-opacity="1.0" stroke-width="3.0" />
            <path d=" M 805.916, 617.294 804.125, 618.140 802.267, 619.537 805.115, 615.339 807.694, 610.070 808.043, 608.950 808.050, 608.929 808.081, 608.829 809.466, 604.386 809.499, 604.278 " fill="none" stroke="rgb(0, 0, 0)" stroke-linecap="butt" stroke-linejoin="round" stroke-opacity="1.0" stroke-width="3.0" />
            <path d=" M 567.276, 719.370 571.080, 714.984 571.490, 712.414 569.427, 710.135 564.536, 703.716 564.140, 703.196 563.742, 702.674 563.450, 702.290 " fill="none" stroke="rgb(0, 0, 0)" stroke-linecap="butt" stroke-linejoin="round" stroke-opacity="1.0" stroke-width="3.0" />
            <path d=" M 431.959, 1030.769 433.676, 1033.178 434.551, 1033.974 434.654, 1034.067 436.074, 1035.358 436.989, 1036.189 437.462, 1036.619 437.560, 1036.708 437.670, 1036.808 440.009, 1038.933 442.450, 1040.191 446.858, 1042.461 449.090, 1042.690 " fill="none" stroke="rgb(0, 0, 0)" stroke-linecap="butt" stroke-linejoin="round" stroke-opacity="1.0" stroke-width="3.0" />
            <path d=" M 504.882, 829.386 508.204, 830.301 513.416, 831.619 515.485, 831.809 516.630, 831.849 517.728, 831.887 519.494, 829.899 520.643, 827.872 519.146, 824.698 " fill="none" stroke="rgb(0, 0, 0)" stroke-linecap="butt" stroke-linejoin="round" stroke-opacity="1.0" stroke-width="3.0" />
            <path d=" M 759.256, 963.925 757.346, 967.364 755.663, 969.356 754.022, 971.298 753.676, 971.984 753.539, 972.255 752.031, 974.016 751.992, 974.062 751.840, 974.239 749.558, 975.792 749.701, 977.284 752.786, 980.729 " fill="none" stroke="rgb(0, 0, 0)" stroke-linecap="butt" stroke-linejoin="round" stroke-opacity="1.0" stroke-width="3.0" />
            <path d=" M 729.627, 809.837 725.971, 810.195 725.669, 810.309 720.250, 815.079 719.387, 817.543 721.112, 819.674 721.458, 820.368 722.336, 824.073 722.602, 824.975 " fill="none" stroke="rgb(0, 0, 0)" stroke-linecap="butt" stroke-linejoin="round" stroke-opacity="1.0" stroke-width="3.0" />
            <path d=" M 601.591, 670.375 603.285, 670.456 603.314, 670.457 606.198, 670.595 607.797, 670.680 611.074, 670.854 613.042, 670.708 618.175, 670.326 623.597, 669.432 " fill="none" stroke="rgb(0, 0, 0)" stroke-linecap="butt" stroke-linejoin="round" stroke-opacity="1.0" stroke-width="3.0" />
            <path d=" M 963.541, 840.488 963.352, 841.227 961.395, 848.150 963.541, 840.488 965.219, 834.494 " fill="none" stroke="rgb(0, 0, 0)" stroke-linecap="butt" stroke-linejoin="round" stroke-opacity="1.0" stroke-width="3.0" />
            <path d=" M 1036.766, 531.644 1036.814, 528.705 1036.851, 526.397 1036.532, 524.009 1037.072, 519.858 1036.308, 516.079 1035.030, 509.757 " fill="none" stroke="rgb(0, 0, 0)" stroke-linecap="butt" stroke-linejoin="round" stroke-opacity="1.0" stroke-width="3.0" />
            <path d=" M 747.746, 816.418 746.978, 817.254 746.951, 817.283 746.583, 817.684 746.577, 817.691 746.531, 817.741 746.291, 818.003 745.511, 818.852 745.507, 818.856 744.965, 819.446 744.707, 819.726 744.525, 819.925 744.236, 820.239 743.250, 821.313 742.904, 821.690 742.391, 822.248 742.236, 823.006 742.224, 823.064 742.184, 823.261 741.863, 824.832 741.802, 825.126 742.093, 826.305 742.598, 828.358 745.658, 833.824 745.244, 835.210 745.118, 835.634 " fill="none" stroke="rgb(0, 0, 0)" stroke-linecap="butt" stroke-linejoin="round" stroke-opacity="1.0" stroke-width="3.0" />
            <path d=" M 517.767, 804.840 520.033, 800.759 520.061, 800.708 520.157, 800.535 522.884, 795.622 523.217, 795.023 524.415, 791.063 525.097, 784.100 " fill="none" stroke="rgb(0, 0, 0)" stroke-linecap="butt" stroke-linejoin="round" stroke-opacity="1.0" stroke-width="3.0" />
            <path d=" M 928.688, 732.692 930.430, 726.726 929.968, 723.927 929.285, 722.366 927.188, 718.385 927.100, 718.218 926.287, 716.675 924.967, 715.131 924.157, 714.391 922.419, 713.194 " fill="none" stroke="rgb(0, 0, 0)" stroke-linecap="butt" stroke-linejoin="round" stroke-opacity="1.0" stroke-width="3.0" />
            <path d=" M 894.123, 376.466 891.613, 376.637 890.407, 376.720 883.832, 377.696 874.268, 379.313 871.874, 379.718 " fill="none" stroke="rgb(0, 0, 0)" stroke-linecap="butt" stroke-linejoin="round" stroke-opacity="1.0" stroke-width="3.0" />
            <path d=" M 881.952, 387.175 873.065, 391.760 871.241, 392.702 866.449, 394.883 864.314, 396.699 862.643, 398.468 " fill="none" stroke="rgb(0, 0, 0)" stroke-linecap="butt" stroke-linejoin="round" stroke-opacity="1.0" stroke-width="3.0" />
            <path d=" M 875.996, 523.643 874.370, 519.170 872.923, 513.525 872.442, 508.822 872.366, 507.993 871.762, 501.418 " fill="none" stroke="rgb(0, 0, 0)" stroke-linecap="butt" stroke-linejoin="round" stroke-opacity="1.0" stroke-width="3.0" />
            <path d=" M 657.951, 671.247 658.971, 671.421 663.234, 672.612 670.400, 674.206 678.414, 675.622 679.909, 675.738 680.362, 675.772 " fill="none" stroke="rgb(0, 0, 0)" stroke-linecap="butt" stroke-linejoin="round" stroke-opacity="1.0" stroke-width="3.0" />
            <path d=" M 754.642, 799.647 752.848, 799.683 752.205, 799.696 750.189, 799.737 748.671, 799.988 748.046, 800.092 746.130, 800.409 745.742, 800.799 743.853, 802.695 743.786, 803.081 743.728, 803.416 743.339, 805.663 743.805, 807.976 743.919, 808.544 744.076, 809.321 744.088, 809.379 744.263, 810.250 744.647, 812.154 745.181, 814.053 " fill="none" stroke="rgb(0, 0, 0)" stroke-linecap="butt" stroke-linejoin="round" stroke-opacity="1.0" stroke-width="3.0" />
            <path d=" M 930.454, 430.261 922.190, 427.583 915.518, 422.893 914.499, 422.688 908.923, 423.147 " fill="none" stroke="rgb(0, 0, 0)" stroke-linecap="butt" stroke-linejoin="round" stroke-opacity="1.0" stroke-width="3.0" />
            <path d=" M 777.504, 779.062 776.717, 781.356 776.711, 781.372 776.427, 782.199 776.280, 782.627 776.203, 782.851 775.499, 784.901 775.084, 786.115 773.522, 790.682 773.409, 791.010 773.003, 792.198 772.940, 792.297 771.304, 794.886 769.204, 798.612 769.034, 799.122 769.008, 799.200 769.007, 799.202 768.703, 800.112 768.507, 800.701 " fill="none" stroke="rgb(0, 0, 0)" stroke-linecap="butt" stroke-linejoin="round" stroke-opacity="1.0" stroke-width="3.0" />
            <path d=" M 747.343, 877.164 743.753, 878.296 743.380, 878.413 742.940, 878.201 739.510, 876.550 738.865, 876.753 737.943, 877.044 737.929, 877.048 737.083, 877.315 735.366, 878.158 734.348, 878.659 733.959, 879.110 732.566, 880.729 732.412, 881.357 732.316, 881.748 732.310, 881.770 732.198, 882.227 731.869, 883.567 731.772, 883.961 731.691, 884.287 731.687, 884.304 731.582, 884.731 731.421, 885.137 730.811, 886.670 730.721, 886.896 730.705, 886.934 730.490, 887.475 " fill="none" stroke="rgb(0, 0, 0)" stroke-linecap="butt" stroke-linejoin="round" stroke-opacity="1.0" stroke-width="3.0" />
            <path d=" M 742.591, 1126.115 742.548, 1126.486 742.448, 1127.341 742.153, 1129.874 743.488, 1131.595 744.749, 1133.028 749.295, 1134.740 755.707, 1135.171 757.273, 1135.211 759.872, 1135.215 760.452, 1135.392 " fill="none" stroke="rgb(0, 0, 0)" stroke-linecap="butt" stroke-linejoin="round" stroke-opacity="1.0" stroke-width="3.0" />
            <path d=" M 759.872, 1165.052 759.791, 1165.182 759.529, 1165.605 759.389, 1165.829 756.128, 1167.346 755.381, 1167.694 753.713, 1168.470 752.390, 1169.282 750.312, 1171.189 749.312, 1172.903 748.383, 1174.495 748.358, 1174.538 748.245, 1177.696 749.224, 1179.552 751.614, 1180.350 752.524, 1180.556 " fill="none" stroke="rgb(0, 0, 0)" stroke-linecap="butt" stroke-linejoin="round" stroke-opacity="1.0" stroke-width="3.0" />
            <path d=" M 747.108, 780.003 746.978, 779.941 746.518, 779.722 742.855, 777.980 739.531, 777.102 734.009, 779.334 732.316, 781.027 732.106, 781.250 732.148, 785.155 733.417, 788.451 733.447, 788.529 " fill="none" stroke="rgb(0, 0, 0)" stroke-linecap="butt" stroke-linejoin="round" stroke-opacity="1.0" stroke-width="3.0" />
            <path d=" M 1013.019, 475.208 1009.877, 469.687 1009.172, 468.138 1006.993, 463.348 1008.192, 465.087 1010.980, 469.422 1013.979, 472.036 " fill="none" stroke="rgb(0, 0, 0)" stroke-linecap="butt" stroke-linejoin="round" stroke-opacity="1.0" stroke-width="3.0" />
            <path d=" M 725.223, 564.867 726.274, 559.577 726.582, 557.548 725.921, 552.235 725.169, 549.669 721.164, 543.665 719.804, 542.341 " fill="none" stroke="rgb(0, 0, 0)" stroke-linecap="butt" stroke-linejoin="round" stroke-opacity="1.0" stroke-width="3.0" />
            <path d=" M 796.017, 528.951 795.371, 529.233 794.769, 529.495 793.785, 529.924 793.753, 529.938 793.739, 529.944 793.178, 530.188 792.580, 530.449 788.563, 532.198 788.182, 532.364 782.413, 534.343 778.422, 538.805 777.879, 539.789 776.464, 542.353 " fill="none" stroke="rgb(0, 0, 0)" stroke-linecap="butt" stroke-linejoin="round" stroke-opacity="1.0" stroke-width="3.0" />
            <path d=" M 1021.342, 470.185 1020.515, 466.424 1017.850, 462.753 1013.609, 459.874 1009.257, 456.476 1005.259, 452.423 " fill="none" stroke="rgb(0, 0, 0)" stroke-linecap="butt" stroke-linejoin="round" stroke-opacity="1.0" stroke-width="3.0" />
            <path d=" M 447.005, 1041.947 449.090, 1042.690 453.563, 1044.285 460.075, 1045.643 467.845, 1045.304 471.159, 1044.219 " fill="none" stroke="rgb(0, 0, 0)" stroke-linecap="butt" stroke-linejoin="round" stroke-opacity="1.0" stroke-width="3.0" />
            <path d=" M 545.656, 743.927 546.070, 743.594 549.500, 740.842 550.183, 740.363 552.639, 738.642 554.615, 735.105 554.853, 734.678 555.107, 733.827 555.702, 731.834 556.456, 729.305 557.149, 728.439 557.489, 728.014 557.532, 727.960 558.270, 727.037 560.664, 725.072 " fill="none" stroke="rgb(0, 0, 0)" stroke-linecap="butt" stroke-linejoin="round" stroke-opacity="1.0" stroke-width="3.0" />
            <path d=" M 776.467, 732.898 776.695, 736.759 777.411, 742.396 777.596, 748.216 777.627, 749.196 777.791, 754.387 777.902, 757.882 " fill="none" stroke="rgb(0, 0, 0)" stroke-linecap="butt" stroke-linejoin="round" stroke-opacity="1.0" stroke-width="3.0" />
            <path d=" M 785.500, 553.715 792.233, 556.593 792.470, 556.692 795.149, 557.306 797.220, 557.781 797.569, 557.860 799.615, 559.774 799.881, 560.023 800.063, 560.193 800.123, 560.249 800.126, 560.252 801.132, 561.193 801.157, 561.216 802.285, 562.519 802.332, 562.573 804.836, 565.464 805.504, 566.235 805.731, 566.498 805.769, 566.542 806.003, 566.812 " fill="none" stroke="rgb(0, 0, 0)" stroke-linecap="butt" stroke-linejoin="round" stroke-opacity="1.0" stroke-width="3.0" />
            <path d=" M 1000.120, 452.831 999.055, 451.323 996.286, 447.401 996.125, 447.174 994.515, 444.803 994.296, 444.481 993.868, 443.852 992.812, 442.296 992.486, 441.817 991.494, 440.357 991.127, 439.817 990.040, 438.709 989.272, 437.926 988.814, 437.460 988.594, 437.236 988.209, 436.843 987.314, 436.007 987.221, 435.921 984.486, 433.365 984.394, 433.278 " fill="none" stroke="rgb(0, 0, 0)" stroke-linecap="butt" stroke-linejoin="round" stroke-opacity="1.0" stroke-width="3.0" />
            <path d=" M 695.791, 502.274 693.724, 501.598 691.893, 501.612 685.721, 501.658 679.598, 501.525 675.284, 501.630 672.691, 501.692 670.311, 501.750 " fill="none" stroke="rgb(0, 0, 0)" stroke-linecap="butt" stroke-linejoin="round" stroke-opacity="1.0" stroke-width="3.0" />
            <path d=" M 528.629, 807.971 530.628, 807.349 534.202, 807.077 535.721, 806.546 536.289, 806.347 538.018, 805.742 538.801, 804.323 538.132, 798.099 536.690, 795.188 534.093, 791.729 533.785, 791.319 " fill="none" stroke="rgb(0, 0, 0)" stroke-linecap="butt" stroke-linejoin="round" stroke-opacity="1.0" stroke-width="3.0" />
            <path d=" M 480.444, 1009.739 480.289, 1006.596 479.418, 1004.393 478.917, 1003.504 476.561, 1000.910 472.953, 998.049 468.555, 996.171 463.400, 992.375 " fill="none" stroke="rgb(0, 0, 0)" stroke-linecap="butt" stroke-linejoin="round" stroke-opacity="1.0" stroke-width="3.0" />
            <path d=" M 1036.454, 554.434 1037.150, 548.146 1037.797, 542.598 1037.534, 536.050 1037.356, 531.792 1036.814, 528.705 " fill="none" stroke="rgb(0, 0, 0)" stroke-linecap="butt" stroke-linejoin="round" stroke-opacity="1.0" stroke-width="3.0" />
            <path d=" M 564.269, 734.152 566.851, 734.308 571.498, 734.590 573.781, 733.570 575.482, 730.494 573.547, 721.571 573.549, 721.565 574.529, 718.218 " fill="none" stroke="rgb(0, 0, 0)" stroke-linecap="butt" stroke-linejoin="round" stroke-opacity="1.0" stroke-width="3.0" />
            <path d=" M 816.038, 519.569 809.464, 522.040 802.000, 525.675 797.923, 527.542 797.890, 527.558 796.818, 528.355 796.806, 528.364 796.130, 528.868 796.017, 528.951 796.016, 528.952 795.387, 529.421 794.583, 530.019 793.954, 530.863 793.940, 530.883 793.701, 531.204 793.423, 531.577 793.363, 531.657 " fill="none" stroke="rgb(0, 0, 0)" stroke-linecap="butt" stroke-linejoin="round" stroke-opacity="1.0" stroke-width="3.0" />
            <path d=" M 726.812, 907.030 722.998, 912.448 722.315, 913.300 721.150, 915.400 721.669, 917.072 722.342, 918.692 723.498, 920.222 726.205, 921.755 728.594, 922.563 731.171, 923.435 732.855, 923.639 733.285, 923.692 " fill="none" stroke="rgb(0, 0, 0)" stroke-linecap="butt" stroke-linejoin="round" stroke-opacity="1.0" stroke-width="3.0" />
            <path d=" M 461.568, 1017.466 462.326, 1017.507 468.065, 1018.318 475.389, 1017.339 477.586, 1016.899 480.719, 1015.077 481.431, 1011.808 480.444, 1009.739 480.119, 1009.058 " fill="none" stroke="rgb(0, 0, 0)" stroke-linecap="butt" stroke-linejoin="round" stroke-opacity="1.0" stroke-width="3.0" />
            <path d=" M 748.736, 561.086 747.382, 562.547 746.795, 564.465 747.525, 567.264 748.816, 568.446 750.344, 569.846 752.590, 571.736 758.462, 573.370 764.671, 574.009 764.965, 574.039 " fill="none" stroke="rgb(0, 0, 0)" stroke-linecap="butt" stroke-linejoin="round" stroke-opacity="1.0" stroke-width="3.0" />
            <path d=" M 404.876, 1021.252 406.948, 1029.400 411.096, 1036.206 413.340, 1041.033 416.084, 1044.082 416.499, 1044.543 " fill="none" stroke="rgb(0, 0, 0)" stroke-linecap="butt" stroke-linejoin="round" stroke-opacity="1.0" stroke-width="3.0" />
            <path d=" M 839.602, 757.404 836.495, 759.771 828.674, 766.003 826.370, 767.840 822.653, 770.206 822.475, 770.319 820.971, 771.276 818.227, 773.022 " fill="none" stroke="rgb(0, 0, 0)" stroke-linecap="butt" stroke-linejoin="round" stroke-opacity="1.0" stroke-width="3.0" />
            <path d=" M 830.675, 637.615 832.254, 638.848 837.864, 643.230 838.783, 643.948 842.687, 646.782 844.315, 647.963 849.926, 652.997 850.671, 653.664 851.368, 654.290 " fill="none" stroke="rgb(0, 0, 0)" stroke-linecap="butt" stroke-linejoin="round" stroke-opacity="1.0" stroke-width="3.0" />
            <path d=" M 788.389, 953.957 790.466, 952.495 795.122, 952.519 805.122, 952.394 808.788, 952.348 810.481, 952.404 814.661, 952.543 814.687, 952.544 " fill="none" stroke="rgb(0, 0, 0)" stroke-linecap="butt" stroke-linejoin="round" stroke-opacity="1.0" stroke-width="3.0" />
            <path d=" M 1009.990, 705.152 1011.555, 701.216 1013.494, 694.752 1015.381, 686.188 1015.923, 679.998 1015.999, 679.128 " fill="none" stroke="rgb(0, 0, 0)" stroke-linecap="butt" stroke-linejoin="round" stroke-opacity="1.0" stroke-width="3.0" />
            <path d=" M 898.492, 574.932 898.412, 574.774 894.646, 567.377 892.511, 563.621 889.648, 557.827 886.330, 550.902 " fill="none" stroke="rgb(0, 0, 0)" stroke-linecap="butt" stroke-linejoin="round" stroke-opacity="1.0" stroke-width="3.0" />
            <path d=" M 794.394, 577.145 794.733, 578.147 795.023, 579.007 795.049, 579.082 795.060, 579.116 797.074, 585.077 798.085, 589.053 798.123, 589.205 798.470, 590.570 798.877, 592.171 799.579, 597.248 799.918, 599.708 800.449, 603.546 " fill="none" stroke="rgb(0, 0, 0)" stroke-linecap="butt" stroke-linejoin="round" stroke-opacity="1.0" stroke-width="3.0" />
            <path d=" M 875.115, 479.941 875.895, 476.260 876.740, 466.295 876.826, 465.284 877.721, 459.642 877.829, 454.120 877.672, 452.534 " fill="none" stroke="rgb(0, 0, 0)" stroke-linecap="butt" stroke-linejoin="round" stroke-opacity="1.0" stroke-width="3.0" />
            <path d=" M 733.417, 788.451 728.564, 793.291 725.979, 795.612 726.762, 800.983 728.755, 806.048 730.770, 808.985 729.627, 809.837 728.384, 810.764 " fill="none" stroke="rgb(0, 0, 0)" stroke-linecap="butt" stroke-linejoin="round" stroke-opacity="1.0" stroke-width="3.0" />
            <path d=" M 722.796, 824.731 722.602, 824.975 719.919, 828.346 717.324, 831.611 716.711, 835.207 719.021, 839.898 723.338, 842.608 728.320, 843.420 " fill="none" stroke="rgb(0, 0, 0)" stroke-linecap="butt" stroke-linejoin="round" stroke-opacity="1.0" stroke-width="3.0" />
            <path d=" M 715.279, 862.527 717.423, 866.405 717.069, 868.205 715.706, 872.134 714.048, 876.005 713.965, 878.607 716.024, 880.142 719.310, 882.902 721.394, 883.939 722.925, 884.967 723.261, 885.193 " fill="none" stroke="rgb(0, 0, 0)" stroke-linecap="butt" stroke-linejoin="round" stroke-opacity="1.0" stroke-width="3.0" />
            <path d=" M 495.634, 504.694 492.742, 506.254 491.704, 506.813 491.618, 506.860 488.805, 508.377 487.106, 509.994 485.665, 512.118 482.377, 515.213 480.786, 517.456 479.249, 519.831 476.253, 524.427 476.132, 525.180 " fill="none" stroke="rgb(0, 0, 0)" stroke-linecap="butt" stroke-linejoin="round" stroke-opacity="1.0" stroke-width="3.0" />
            <path d=" M 539.118, 489.142 532.240, 488.642 531.051, 488.383 526.881, 487.475 521.076, 489.680 517.474, 490.190 514.008, 492.517 511.896, 494.126 " fill="none" stroke="rgb(0, 0, 0)" stroke-linecap="butt" stroke-linejoin="round" stroke-opacity="1.0" stroke-width="3.0" />
            <path d=" M 967.063, 408.006 965.952, 406.224 962.285, 400.926 962.196, 400.797 960.560, 398.779 958.960, 395.575 958.820, 395.129 958.599, 394.425 957.217, 390.015 957.207, 389.983 956.884, 388.954 956.736, 388.481 953.355, 382.281 " fill="none" stroke="rgb(0, 0, 0)" stroke-linecap="butt" stroke-linejoin="round" stroke-opacity="1.0" stroke-width="3.0" />
            <path d=" M 827.781, 635.137 828.801, 635.728 828.852, 635.757 829.046, 635.870 830.760, 636.863 831.027, 637.018 831.186, 637.110 833.181, 638.266 837.411, 641.539 838.572, 642.436 846.333, 648.742 848.339, 650.372 848.584, 650.571 848.916, 650.840 849.539, 651.346 851.404, 652.858 " fill="none" stroke="rgb(0, 0, 0)" stroke-linecap="butt" stroke-linejoin="round" stroke-opacity="1.0" stroke-width="3.0" />
            <path d=" M 517.021, 491.840 511.896, 494.126 508.806, 495.505 506.401, 496.697 503.481, 498.880 497.659, 501.535 491.996, 506.554 491.704, 506.813 " fill="none" stroke="rgb(0, 0, 0)" stroke-linecap="butt" stroke-linejoin="round" stroke-opacity="1.0" stroke-width="3.0" />
            <path d=" M 725.785, 959.439 730.932, 962.143 738.167, 963.787 741.659, 963.766 747.467, 962.219 750.290, 962.688 751.604, 962.906 752.785, 964.964 752.823, 965.030 753.139, 965.581 " fill="none" stroke="rgb(0, 0, 0)" stroke-linecap="butt" stroke-linejoin="round" stroke-opacity="1.0" stroke-width="3.0" />
            <path d=" M 643.741, 669.155 644.181, 669.176 649.733, 669.441 659.731, 669.248 659.952, 669.243 669.864, 669.252 674.061, 668.925 " fill="none" stroke="rgb(0, 0, 0)" stroke-linecap="butt" stroke-linejoin="round" stroke-opacity="1.0" stroke-width="3.0" />
            <path d=" M 939.081, 344.854 937.219, 344.491 936.189, 344.291 933.508, 343.911 930.602, 344.732 928.008, 346.598 923.891, 349.223 921.523, 351.924 920.513, 355.387 919.203, 358.882 917.287, 361.363 " fill="none" stroke="rgb(0, 0, 0)" stroke-linecap="butt" stroke-linejoin="round" stroke-opacity="1.0" stroke-width="3.0" />
            <path d=" M 779.454, 1116.977 776.494, 1126.390 772.133, 1135.389 771.560, 1136.570 768.830, 1141.573 767.427, 1145.560 " fill="none" stroke="rgb(0, 0, 0)" stroke-linecap="butt" stroke-linejoin="round" stroke-opacity="1.0" stroke-width="3.0" />
            <path d=" M 862.176, 724.304 860.673, 728.851 858.147, 734.212 856.340, 737.258 853.560, 741.945 848.569, 748.239 846.455, 750.904 " fill="none" stroke="rgb(0, 0, 0)" stroke-linecap="butt" stroke-linejoin="round" stroke-opacity="1.0" stroke-width="3.0" />
            <path d=" M 874.268, 379.313 864.272, 379.032 862.411, 378.980 853.212, 377.982 844.981, 374.767 843.776, 374.296 " fill="none" stroke="rgb(0, 0, 0)" stroke-linecap="butt" stroke-linejoin="round" stroke-opacity="1.0" stroke-width="3.0" />
            <path d=" M 486.562, 928.649 485.604, 927.555 484.660, 926.477 483.347, 924.978 481.396, 922.607 480.727, 921.794 480.257, 921.223 476.785, 914.869 471.943, 909.169 469.547, 907.330 467.663, 905.883 467.004, 905.377 466.977, 904.678 " fill="none" stroke="rgb(0, 0, 0)" stroke-linecap="butt" stroke-linejoin="round" stroke-opacity="1.0" stroke-width="3.0" />
            <path d=" M 731.857, 949.926 726.026, 951.476 716.090, 952.608 715.433, 952.683 714.864, 954.736 716.892, 956.494 725.785, 959.439 726.710, 959.745 " fill="none" stroke="rgb(0, 0, 0)" stroke-linecap="butt" stroke-linejoin="round" stroke-opacity="1.0" stroke-width="3.0" />
            <path d=" M 726.505, 566.902 725.223, 564.867 723.459, 562.068 721.232, 556.257 720.146, 551.519 719.708, 548.188 719.374, 545.201 719.804, 542.341 720.359, 538.643 721.031, 537.406 721.344, 536.829 " fill="none" stroke="rgb(0, 0, 0)" stroke-linecap="butt" stroke-linejoin="round" stroke-opacity="1.0" stroke-width="3.0" />
            <path d=" M 764.387, 803.125 764.130, 803.023 763.990, 802.967 763.952, 802.952 757.957, 800.561 755.616, 799.627 755.266, 799.487 754.642, 799.647 753.499, 799.939 752.643, 800.665 752.585, 800.714 752.567, 800.730 752.404, 800.868 750.961, 802.090 750.027, 802.769 747.995, 804.245 747.427, 804.658 747.257, 805.138 746.687, 806.746 746.670, 806.794 746.394, 807.574 746.085, 808.445 746.359, 809.198 746.515, 809.625 746.638, 809.961 747.262, 811.673 748.078, 813.911 747.746, 816.418 747.745, 816.426 747.745, 816.426 747.722, 816.599 " fill="none" stroke="rgb(0, 0, 0)" stroke-linecap="butt" stroke-linejoin="round" stroke-opacity="1.0" stroke-width="3.0" />
            <path d=" M 827.568, 504.155 827.472, 504.234 823.095, 507.864 818.252, 511.925 818.091, 512.060 815.701, 514.064 812.869, 516.153 808.571, 519.323 808.209, 519.590 802.407, 523.869 " fill="none" stroke="rgb(0, 0, 0)" stroke-linecap="butt" stroke-linejoin="round" stroke-opacity="1.0" stroke-width="3.0" />
            <path d=" M 803.171, 576.995 804.078, 582.492 805.018, 588.193 805.094, 588.652 805.287, 589.823 805.302, 589.917 805.450, 590.938 806.880, 600.836 808.048, 608.918 " fill="none" stroke="rgb(0, 0, 0)" stroke-linecap="butt" stroke-linejoin="round" stroke-opacity="1.0" stroke-width="3.0" />
            <path d=" M 1006.935, 469.719 1007.233, 470.465 1010.161, 479.439 1004.603, 474.367 1001.511, 466.379 999.241, 460.535 " fill="none" stroke="rgb(0, 0, 0)" stroke-linecap="butt" stroke-linejoin="round" stroke-opacity="1.0" stroke-width="3.0" />
            <path d=" M 506.202, 848.024 506.255, 847.998 508.391, 847.684 518.442, 847.148 523.505, 845.376 523.740, 842.084 522.319, 839.432 519.768, 836.153 517.111, 832.519 516.630, 831.849 " fill="none" stroke="rgb(0, 0, 0)" stroke-linecap="butt" stroke-linejoin="round" stroke-opacity="1.0" stroke-width="3.0" />
            <path d=" M 760.404, 394.441 758.525, 395.553 756.672, 398.629 755.748, 401.420 754.771, 406.479 755.036, 412.572 754.985, 415.046 755.800, 419.750 756.508, 421.729 757.450, 424.355 758.581, 426.313 " fill="none" stroke="rgb(0, 0, 0)" stroke-linecap="butt" stroke-linejoin="round" stroke-opacity="1.0" stroke-width="3.0" />
            <path d=" M 419.970, 1038.974 422.078, 1042.430 422.929, 1044.129 423.768, 1045.804 424.656, 1047.576 426.133, 1050.391 426.475, 1051.041 426.601, 1051.282 426.612, 1051.303 426.834, 1051.725 426.846, 1054.367 426.855, 1056.202 428.613, 1061.245 428.956, 1062.230 429.003, 1062.363 429.065, 1062.540 429.432, 1063.593 429.784, 1063.720 432.004, 1064.519 433.391, 1064.677 437.499, 1062.910 " fill="none" stroke="rgb(0, 0, 0)" stroke-linecap="butt" stroke-linejoin="round" stroke-opacity="1.0" stroke-width="3.0" />
            <path d=" M 855.765, 861.653 857.474, 859.465 857.666, 859.218 859.854, 855.580 861.812, 851.300 862.948, 848.818 866.542, 842.847 869.127, 838.224 870.774, 836.175 872.885, 833.274 873.742, 829.860 " fill="none" stroke="rgb(0, 0, 0)" stroke-linecap="butt" stroke-linejoin="round" stroke-opacity="1.0" stroke-width="3.0" />
            <path d=" M 683.417, 495.565 685.326, 494.162 685.544, 492.322 684.295, 490.589 677.458, 486.575 671.188, 484.244 665.311, 483.427 661.266, 483.496 655.097, 483.600 " fill="none" stroke="rgb(0, 0, 0)" stroke-linecap="butt" stroke-linejoin="round" stroke-opacity="1.0" stroke-width="3.0" />
            <path d=" M 713.656, 668.664 718.578, 668.879 724.080, 668.294 730.207, 667.866 736.648, 666.325 740.535, 665.687 741.255, 665.539 750.347, 663.527 " fill="none" stroke="rgb(0, 0, 0)" stroke-linecap="butt" stroke-linejoin="round" stroke-opacity="1.0" stroke-width="3.0" />
            <path d=" M 1014.613, 494.109 1014.142, 489.127 1013.874, 487.057 1013.865, 486.986 1013.840, 486.760 1013.746, 485.927 1013.591, 484.545 1013.586, 484.497 1013.551, 484.189 1012.904, 478.412 1011.041, 474.242 1010.737, 473.474 1010.620, 473.180 1010.498, 472.870 1008.438, 467.664 1008.398, 467.587 1008.079, 466.987 1007.303, 465.526 1007.038, 465.029 1005.943, 462.968 1005.176, 461.780 1003.929, 459.850 1003.478, 459.152 " fill="none" stroke="rgb(0, 0, 0)" stroke-linecap="butt" stroke-linejoin="round" stroke-opacity="1.0" stroke-width="3.0" />
            <path d=" M 466.214, 1023.936 463.666, 1020.139 461.568, 1017.466 459.947, 1015.400 455.190, 1006.664 454.190, 1004.268 450.951, 1000.012 448.818, 995.598 447.207, 992.265 447.113, 992.070 " fill="none" stroke="rgb(0, 0, 0)" stroke-linecap="butt" stroke-linejoin="round" stroke-opacity="1.0" stroke-width="3.0" />
            <path d=" M 762.872, 703.930 764.146, 710.178 765.313, 714.614 766.126, 719.092 767.836, 728.945 767.999, 729.883 768.798, 739.851 768.883, 740.912 " fill="none" stroke="rgb(0, 0, 0)" stroke-linecap="butt" stroke-linejoin="round" stroke-opacity="1.0" stroke-width="3.0" />
            <path d=" M 850.765, 377.662 844.702, 374.742 843.776, 374.296 843.685, 374.252 838.145, 372.097 831.861, 370.344 825.108, 367.479 819.052, 366.545 816.048, 367.614 815.654, 368.167 " fill="none" stroke="rgb(0, 0, 0)" stroke-linecap="butt" stroke-linejoin="round" stroke-opacity="1.0" stroke-width="3.0" />
            <path d=" M 759.072, 1144.977 758.782, 1145.377 752.647, 1149.085 746.444, 1152.587 745.552, 1155.742 744.760, 1160.328 745.239, 1163.104 746.014, 1165.152 745.944, 1166.855 746.266, 1170.102 746.745, 1172.469 747.416, 1173.890 748.383, 1174.495 " fill="none" stroke="rgb(0, 0, 0)" stroke-linecap="butt" stroke-linejoin="round" stroke-opacity="1.0" stroke-width="3.0" />
            <path d=" M 615.691, 463.939 612.167, 466.953 605.838, 474.695 604.763, 476.009 600.741, 482.058 595.022, 487.303 589.219, 490.612 " fill="none" stroke="rgb(0, 0, 0)" stroke-linecap="butt" stroke-linejoin="round" stroke-opacity="1.0" stroke-width="3.0" />
            <path d=" M 863.203, 1104.491 865.208, 1098.245 866.922, 1092.897 868.959, 1086.826 870.039, 1080.621 871.896, 1075.723 873.206, 1068.785 873.398, 1067.768 " fill="none" stroke="rgb(0, 0, 0)" stroke-linecap="butt" stroke-linejoin="round" stroke-opacity="1.0" stroke-width="3.0" />
            <path d=" M 701.180, 529.740 702.000, 530.139 710.991, 534.518 712.015, 535.016 718.384, 536.457 720.790, 536.759 721.344, 536.829 721.638, 536.866 724.325, 537.204 725.241, 536.890 725.739, 536.518 727.311, 535.344 732.283, 530.613 734.732, 528.283 " fill="none" stroke="rgb(0, 0, 0)" stroke-linecap="butt" stroke-linejoin="round" stroke-opacity="1.0" stroke-width="3.0" />
            <path d=" M 413.452, 1039.135 414.534, 1041.482 415.548, 1042.821 415.781, 1043.128 416.520, 1044.105 417.967, 1048.246 418.819, 1050.421 418.844, 1050.864 419.235, 1057.679 421.839, 1065.305 423.903, 1067.347 425.909, 1067.658 426.504, 1067.205 429.147, 1064.068 429.784, 1063.720 " fill="none" stroke="rgb(0, 0, 0)" stroke-linecap="butt" stroke-linejoin="round" stroke-opacity="1.0" stroke-width="3.0" />
            <path d=" M 448.818, 995.598 449.263, 992.828 449.932, 986.297 450.081, 980.395 450.141, 977.601 451.383, 968.546 453.535, 960.615 454.943, 957.810 " fill="none" stroke="rgb(0, 0, 0)" stroke-linecap="butt" stroke-linejoin="round" stroke-opacity="1.0" stroke-width="3.0" />
            <path d=" M 841.975, 558.042 842.043, 559.134 842.323, 563.608 841.791, 566.797 841.271, 573.179 840.084, 577.131 839.969, 577.803 839.932, 578.023 839.918, 578.109 839.541, 580.328 838.979, 583.642 839.921, 589.154 839.374, 592.964 840.212, 596.042 " fill="none" stroke="rgb(0, 0, 0)" stroke-linecap="butt" stroke-linejoin="round" stroke-opacity="1.0" stroke-width="3.0" />
            <path d=" M 780.715, 1172.667 785.308, 1169.775 785.846, 1169.436 789.066, 1167.408 794.091, 1163.607 802.211, 1157.770 802.661, 1157.447 806.225, 1154.172 810.915, 1148.218 " fill="none" stroke="rgb(0, 0, 0)" stroke-linecap="butt" stroke-linejoin="round" stroke-opacity="1.0" stroke-width="3.0" />
            <path d=" M 443.483, 685.985 440.656, 694.382 438.282, 703.735 436.305, 707.710 433.835, 715.683 431.849, 723.627 " fill="none" stroke="rgb(0, 0, 0)" stroke-linecap="butt" stroke-linejoin="round" stroke-opacity="1.0" stroke-width="3.0" />
            <path d=" M 811.427, 707.204 811.300, 706.745 809.186, 703.982 808.158, 702.555 807.619, 701.806 807.393, 701.493 807.103, 701.639 806.977, 701.703 806.782, 701.801 805.668, 702.362 805.644, 702.403 805.561, 702.549 805.533, 702.597 805.105, 703.346 804.826, 703.576 804.732, 703.654 804.155, 704.130 803.869, 704.366 802.202, 705.744 800.620, 708.936 799.670, 718.890 799.299, 722.780 799.330, 726.212 799.336, 726.896 799.349, 728.452 799.002, 729.461 798.966, 729.563 798.475, 730.987 798.335, 731.395 798.307, 731.476 " fill="none" stroke="rgb(0, 0, 0)" stroke-linecap="butt" stroke-linejoin="round" stroke-opacity="1.0" stroke-width="3.0" />
            <path d=" M 579.317, 492.516 578.406, 489.303 577.534, 486.326 575.642, 486.034 571.146, 487.188 565.248, 486.301 559.136, 487.568 549.170, 486.741 548.147, 486.656 544.187, 488.036 " fill="none" stroke="rgb(0, 0, 0)" stroke-linecap="butt" stroke-linejoin="round" stroke-opacity="1.0" stroke-width="3.0" />
            <path d=" M 882.093, 542.445 885.654, 549.550 886.330, 550.902 883.188, 542.031 882.605, 539.672 879.007, 530.342 878.598, 529.282 875.996, 523.643 874.865, 521.191 " fill="none" stroke="rgb(0, 0, 0)" stroke-linecap="butt" stroke-linejoin="round" stroke-opacity="1.0" stroke-width="3.0" />
            <path d=" M 489.401, 884.606 491.248, 884.247 497.006, 883.342 501.744, 882.640 506.949, 882.846 508.737, 881.651 509.812, 878.415 509.593, 877.960 505.864, 874.324 502.730, 872.458 499.937, 870.058 497.040, 867.117 496.564, 866.137 " fill="none" stroke="rgb(0, 0, 0)" stroke-linecap="butt" stroke-linejoin="round" stroke-opacity="1.0" stroke-width="3.0" />
            <path d=" M 831.123, 431.640 830.917, 431.656 826.699, 431.976 823.889, 432.190 823.842, 432.194 823.238, 432.239 823.156, 432.246 823.086, 432.251 822.856, 432.268 822.643, 432.285 820.980, 432.411 819.748, 432.505 819.497, 432.524 818.637, 432.589 815.832, 433.475 814.362, 434.034 812.577, 434.712 811.411, 435.156 808.794, 436.150 805.166, 437.571 804.486, 437.837 803.033, 438.406 798.424, 441.633 798.265, 441.648 798.261, 441.648 797.416, 441.724 794.818, 441.957 791.199, 442.282 " fill="none" stroke="rgb(0, 0, 0)" stroke-linecap="butt" stroke-linejoin="round" stroke-opacity="1.0" stroke-width="3.0" />
            <path d=" M 791.216, 400.936 789.751, 400.809 788.435, 400.694 783.841, 400.358 779.086, 401.113 769.880, 402.917 766.268, 403.258 765.879, 403.857 763.759, 407.287 761.903, 409.890 761.067, 413.318 761.204, 413.984 764.064, 416.074 764.254, 416.416 764.254, 416.418 764.476, 416.816 764.481, 416.825 764.873, 417.531 " fill="none" stroke="rgb(0, 0, 0)" stroke-linecap="butt" stroke-linejoin="round" stroke-opacity="1.0" stroke-width="3.0" />
            <path d=" M 754.554, 1172.146 753.713, 1173.482 752.827, 1174.890 751.894, 1176.373 751.635, 1178.390 751.612, 1178.575 751.806, 1179.861 752.524, 1180.556 753.263, 1181.271 757.132, 1181.343 763.583, 1181.431 771.326, 1177.635 773.849, 1175.050 779.151, 1174.262 780.590, 1172.794 780.715, 1172.667 781.999, 1171.357 782.108, 1171.245 " fill="none" stroke="rgb(0, 0, 0)" stroke-linecap="butt" stroke-linejoin="round" stroke-opacity="1.0" stroke-width="3.0" />
            <path d=" M 592.435, 705.405 594.373, 706.207 598.065, 705.872 600.514, 706.269 604.621, 704.925 605.608, 701.868 605.408, 696.662 606.015, 695.204 609.375, 691.818 608.550, 689.181 607.168, 686.334 605.996, 685.332 602.086, 683.125 599.049, 681.410 " fill="none" stroke="rgb(0, 0, 0)" stroke-linecap="butt" stroke-linejoin="round" stroke-opacity="1.0" stroke-width="3.0" />
            <path d=" M 808.886, 483.056 808.179, 479.397 807.903, 477.965 807.869, 477.875 807.435, 476.710 804.469, 474.235 798.064, 472.171 797.972, 472.142 797.916, 472.019 797.185, 470.415 796.538, 468.995 796.532, 468.983 795.937, 467.678 795.566, 466.864 794.998, 465.618 794.894, 465.390 794.884, 464.944 794.883, 464.876 794.747, 458.635 796.254, 454.582 801.717, 449.859 " fill="none" stroke="rgb(0, 0, 0)" stroke-linecap="butt" stroke-linejoin="round" stroke-opacity="1.0" stroke-width="3.0" />
            <path d=" M 734.075, 1123.266 739.473, 1123.449 739.753, 1123.459 745.980, 1123.669 754.531, 1122.208 763.967, 1119.205 764.385, 1119.064 764.451, 1119.042 764.679, 1118.965 770.476, 1117.015 776.407, 1115.415 776.566, 1115.372 " fill="none" stroke="rgb(0, 0, 0)" stroke-linecap="butt" stroke-linejoin="round" stroke-opacity="1.0" stroke-width="3.0" />
            <path d=" M 998.442, 743.582 999.241, 739.867 1000.414, 734.728 1002.848, 725.029 1003.197, 723.639 1005.686, 718.231 1006.702, 715.949 1008.028, 711.052 1010.016, 705.973 1009.990, 705.152 1009.858, 701.026 " fill="none" stroke="rgb(0, 0, 0)" stroke-linecap="butt" stroke-linejoin="round" stroke-opacity="1.0" stroke-width="3.0" />
            <path d=" M 716.256, 897.469 716.178, 897.539 713.107, 900.304 709.402, 904.561 708.389, 910.582 710.892, 912.820 715.787, 915.828 724.256, 920.658 726.296, 923.048 728.024, 924.526 731.222, 924.417 732.855, 923.639 " fill="none" stroke="rgb(0, 0, 0)" stroke-linecap="butt" stroke-linejoin="round" stroke-opacity="1.0" stroke-width="3.0" />
            <path d=" M 543.714, 770.914 546.715, 770.857 552.586, 770.871 554.567, 768.394 555.136, 762.632 553.538, 757.269 553.438, 756.934 553.457, 756.824 553.995, 753.763 557.124, 750.076 558.457, 746.903 560.200, 744.423 561.155, 742.380 560.943, 740.123 560.484, 738.968 559.758, 737.149 559.786, 736.492 " fill="none" stroke="rgb(0, 0, 0)" stroke-linecap="butt" stroke-linejoin="round" stroke-opacity="1.0" stroke-width="3.0" />
            <path d=" M 731.771, 897.437 731.903, 899.519 727.667, 904.700 726.427, 909.258 726.686, 911.294 731.035, 913.806 735.776, 918.255 736.021, 919.542 736.025, 919.566 736.032, 919.600 736.164, 920.291 734.040, 922.686 733.585, 923.291 733.285, 923.692 731.927, 925.499 730.950, 928.019 730.397, 929.445 730.976, 930.286 734.215, 934.897 " fill="none" stroke="rgb(0, 0, 0)" stroke-linecap="butt" stroke-linejoin="round" stroke-opacity="1.0" stroke-width="3.0" />
            <path d=" M 768.940, 739.118 768.883, 740.912 768.642, 748.580 767.958, 752.566 767.295, 756.426 766.936, 758.520 766.071, 765.647 766.946, 770.961 767.128, 772.064 767.181, 772.385 767.701, 775.543 767.777, 776.009 767.768, 776.821 767.765, 777.148 767.748, 778.661 767.696, 783.398 767.665, 786.144 " fill="none" stroke="rgb(0, 0, 0)" stroke-linecap="butt" stroke-linejoin="round" stroke-opacity="1.0" stroke-width="3.0" />
            <path d=" M 735.569, 1021.103 734.014, 1023.570 735.217, 1026.289 733.952, 1027.403 734.358, 1029.132 736.814, 1031.851 740.091, 1033.017 745.950, 1033.684 752.073, 1031.609 755.490, 1031.626 756.046, 1034.184 755.647, 1036.983 756.209, 1039.863 756.079, 1042.764 755.985, 1046.443 756.019, 1046.978 " fill="none" stroke="rgb(0, 0, 0)" stroke-linecap="butt" stroke-linejoin="round" stroke-opacity="1.0" stroke-width="3.0" />
            <path d=" M 755.205, 743.830 754.903, 744.750 753.684, 748.459 754.564, 750.452 758.573, 759.531 758.820, 760.121 758.822, 760.123 759.448, 761.619 759.892, 762.678 759.895, 762.687 760.691, 764.587 761.054, 765.453 761.228, 767.607 761.572, 771.853 761.916, 778.938 761.919, 779.013 761.954, 779.737 762.008, 780.837 762.085, 782.438 759.779, 785.677 759.614, 786.559 759.490, 787.218 759.415, 787.298 758.381, 788.397 758.286, 788.497 758.085, 788.711 " fill="none" stroke="rgb(0, 0, 0)" stroke-linecap="butt" stroke-linejoin="round" stroke-opacity="1.0" stroke-width="3.0" />
            <path d=" M 960.630, 839.499 963.022, 836.890 963.269, 836.621 964.941, 834.797 965.012, 834.720 965.219, 834.494 966.343, 833.268 970.513, 828.980 973.718, 826.072 977.205, 821.062 980.841, 816.022 982.624, 811.438 985.749, 806.363 988.584, 799.544 " fill="none" stroke="rgb(0, 0, 0)" stroke-linecap="butt" stroke-linejoin="round" stroke-opacity="1.0" stroke-width="3.0" />
            <path d=" M 453.361, 956.958 454.170, 957.394 454.771, 957.717 454.943, 957.810 455.191, 957.944 461.725, 961.464 469.335, 962.798 470.133, 962.676 473.200, 961.020 474.176, 958.142 474.505, 955.534 473.012, 953.600 471.182, 949.638 468.905, 947.718 465.203, 944.595 461.452, 941.002 461.309, 940.865 461.584, 937.779 " fill="none" stroke="rgb(0, 0, 0)" stroke-linecap="butt" stroke-linejoin="round" stroke-opacity="1.0" stroke-width="3.0" />
            <path d=" M 456.984, 938.203 458.526, 937.370 461.584, 937.779 463.152, 937.988 465.999, 938.898 469.026, 939.810 476.934, 939.989 478.015, 939.963 488.012, 939.719 488.957, 939.696 490.908, 938.637 492.776, 935.629 493.621, 933.257 492.339, 931.684 485.604, 927.555 " fill="none" stroke="rgb(0, 0, 0)" stroke-linecap="butt" stroke-linejoin="round" stroke-opacity="1.0" stroke-width="3.0" />
            <path d=" M 906.677, 369.248 898.725, 369.524 892.148, 369.519 889.270, 369.554 880.270, 370.463 876.439, 370.945 866.502, 372.061 862.700, 372.488 855.544, 374.776 " fill="none" stroke="rgb(0, 0, 0)" stroke-linecap="butt" stroke-linejoin="round" stroke-opacity="1.0" stroke-width="3.0" />
            <path d=" M 470.858, 1044.201 471.159, 1044.219 476.460, 1044.521 481.922, 1043.902 484.186, 1043.054 489.844, 1040.927 490.203, 1040.159 490.232, 1038.713 489.655, 1037.284 487.224, 1036.237 481.327, 1034.461 474.375, 1030.809 468.918, 1026.448 466.214, 1023.936 465.287, 1023.075 " fill="none" stroke="rgb(0, 0, 0)" stroke-linecap="butt" stroke-linejoin="round" stroke-opacity="1.0" stroke-width="3.0" />
            <path d=" M 840.325, 594.315 840.212, 596.042 840.138, 597.164 839.943, 600.128 838.241, 603.814 836.747, 610.256 836.758, 615.322 840.089, 622.148 845.752, 628.891 846.805, 633.555 847.415, 638.816 849.718, 641.621 850.221, 642.234 " fill="none" stroke="rgb(0, 0, 0)" stroke-linecap="butt" stroke-linejoin="round" stroke-opacity="1.0" stroke-width="3.0" />
            <path d=" M 660.722, 665.511 668.864, 667.783 670.884, 668.227 674.061, 668.925 675.050, 669.142 679.159, 668.802 687.262, 669.241 690.422, 669.013 698.296, 669.264 708.286, 669.689 708.419, 669.695 713.656, 668.664 714.404, 668.517 " fill="none" stroke="rgb(0, 0, 0)" stroke-linecap="butt" stroke-linejoin="round" stroke-opacity="1.0" stroke-width="3.0" />
            <path d=" M 745.244, 835.210 741.865, 835.857 738.895, 837.866 734.851, 840.602 734.552, 841.076 732.854, 843.763 732.798, 844.051 732.888, 844.263 733.557, 845.841 733.608, 845.961 733.666, 846.099 733.671, 846.111 733.673, 846.116 733.796, 846.406 735.765, 850.151 735.679, 853.354 735.249, 853.779 735.136, 853.890 734.644, 854.377 732.534, 856.464 730.797, 859.530 730.063, 860.826 730.138, 861.567 730.429, 864.456 730.652, 864.843 732.299, 867.705 732.805, 868.136 734.509, 869.587 734.912, 869.700 735.576, 869.887 735.782, 869.945 735.832, 869.959 737.881, 870.535 738.723, 870.678 738.847, 870.699 742.833, 871.373 743.650, 871.462 " fill="none" stroke="rgb(0, 0, 0)" stroke-linecap="butt" stroke-linejoin="round" stroke-opacity="1.0" stroke-width="3.0" />
            <path d=" M 869.164, 399.137 867.751, 399.914 866.078, 400.834 862.859, 402.605 860.924, 403.060 859.079, 403.495 858.976, 403.519 857.475, 403.873 853.575, 404.870 848.794, 408.515 843.437, 413.396 843.378, 413.452 841.847, 414.897 838.682, 419.939 837.230, 420.752 836.877, 420.950 833.533, 422.823 831.167, 425.371 829.184, 429.140 829.171, 429.164 828.684, 430.089 826.699, 431.976 " fill="none" stroke="rgb(0, 0, 0)" stroke-linecap="butt" stroke-linejoin="round" stroke-opacity="1.0" stroke-width="3.0" />
            <path d=" M 515.819, 745.609 515.820, 744.822 515.832, 739.310 515.950, 739.093 516.107, 738.803 518.969, 733.520 521.263, 730.778 521.576, 728.240 521.714, 727.123 521.750, 726.829 521.774, 726.633 521.776, 726.623 521.928, 725.385 521.977, 724.987 522.233, 722.918 523.893, 719.008 526.043, 717.715 531.428, 714.474 533.714, 713.098 536.786, 711.215 540.368, 709.367 543.218, 707.722 548.067, 707.289 " fill="none" stroke="rgb(0, 0, 0)" stroke-linecap="butt" stroke-linejoin="round" stroke-opacity="1.0" stroke-width="3.0" />
            <path d=" M 771.423, 1143.480 771.062, 1143.669 770.992, 1143.706 770.196, 1144.121 769.617, 1144.424 767.675, 1145.438 767.427, 1145.560 762.015, 1148.227 759.739, 1149.272 759.424, 1149.417 757.319, 1150.383 751.623, 1152.530 748.341, 1155.400 747.677, 1156.525 747.515, 1157.369 747.780, 1159.806 749.906, 1161.411 749.909, 1161.413 752.660, 1163.488 754.321, 1163.849 755.442, 1164.092 755.628, 1164.132 759.872, 1165.052 760.672, 1165.226 760.753, 1165.243 761.138, 1165.327 761.163, 1165.324 763.722, 1165.046 768.360, 1164.541 771.073, 1163.050 " fill="none" stroke="rgb(0, 0, 0)" stroke-linecap="butt" stroke-linejoin="round" stroke-opacity="1.0" stroke-width="3.0" />
            <path d=" M 526.824, 784.256 526.950, 784.164 528.421, 783.088 534.208, 780.597 536.383, 780.459 536.408, 780.457 537.525, 780.387 538.237, 780.341 539.078, 780.288 539.781, 780.243 542.086, 779.392 543.439, 777.637 544.025, 771.848 543.714, 770.914 543.079, 768.999 540.979, 764.730 541.192, 761.177 545.194, 757.405 547.681, 753.120 548.410, 750.226 546.521, 745.779 546.070, 743.594 " fill="none" stroke="rgb(0, 0, 0)" stroke-linecap="butt" stroke-linejoin="round" stroke-opacity="1.0" stroke-width="3.0" />
            <path d=" M 768.271, 1042.006 767.461, 1042.345 764.237, 1043.693 759.496, 1045.075 758.691, 1045.516 757.571, 1046.129 756.056, 1046.958 756.019, 1046.978 750.891, 1049.786 743.607, 1052.703 742.532, 1054.915 743.179, 1056.412 744.009, 1058.333 746.458, 1059.382 748.390, 1060.115 754.414, 1061.948 759.045, 1061.575 766.798, 1060.951 767.156, 1060.923 767.167, 1060.922 " fill="none" stroke="rgb(0, 0, 0)" stroke-linecap="butt" stroke-linejoin="round" stroke-opacity="1.0" stroke-width="3.0" />
            <path d=" M 426.679, 741.940 425.146, 745.217 424.544, 746.503 422.055, 756.189 420.525, 762.140 417.796, 771.761 415.066, 781.381 414.964, 781.741 414.117, 786.104 412.211, 795.920 411.944, 797.292 " fill="none" stroke="rgb(0, 0, 0)" stroke-linecap="butt" stroke-linejoin="round" stroke-opacity="1.0" stroke-width="3.0" />
            <path d=" M 877.927, 451.670 878.730, 449.217 879.191, 444.896 879.978, 439.894 879.895, 435.109 882.154, 426.454 881.714, 421.031 878.769, 413.160 877.672, 409.131 877.722, 405.597 877.727, 405.266 877.728, 405.237 877.734, 404.776 877.628, 404.029 877.582, 403.706 877.251, 401.376 876.330, 400.644 875.174, 399.725 874.358, 399.076 874.270, 399.007 874.262, 399.000 873.391, 398.290 873.319, 398.231 872.664, 397.696 " fill="none" stroke="rgb(0, 0, 0)" stroke-linecap="butt" stroke-linejoin="round" stroke-opacity="1.0" stroke-width="3.0" />
            <path d=" M 730.950, 928.019 727.101, 931.112 723.128, 935.825 722.307, 938.194 722.045, 943.039 722.622, 944.034 730.827, 949.142 731.857, 949.926 733.217, 950.961 734.450, 951.899 735.083, 952.381 737.672, 954.351 740.483, 957.104 742.943, 959.127 747.415, 958.717 747.997, 958.667 748.033, 958.664 748.376, 958.635 749.051, 958.578 751.022, 958.411 755.280, 958.049 755.825, 958.281 " fill="none" stroke="rgb(0, 0, 0)" stroke-linecap="butt" stroke-linejoin="round" stroke-opacity="1.0" stroke-width="3.0" />
            <path d=" M 475.770, 526.893 473.598, 533.549 473.507, 540.107 473.683, 546.950 473.697, 550.541 473.501, 551.361 473.161, 554.542 473.771, 562.630 473.631, 568.343 471.825, 576.247 471.662, 581.164 471.554, 584.422 " fill="none" stroke="rgb(0, 0, 0)" stroke-linecap="butt" stroke-linejoin="round" stroke-opacity="1.0" stroke-width="3.0" />
            <path d=" M 806.852, 1151.674 810.915, 1148.218 815.163, 1144.605 823.440, 1138.993 828.081, 1135.847 835.864, 1129.569 837.480, 1128.265 843.629, 1123.891 849.864, 1119.357 853.493, 1115.349 853.664, 1115.161 " fill="none" stroke="rgb(0, 0, 0)" stroke-linecap="butt" stroke-linejoin="round" stroke-opacity="1.0" stroke-width="3.0" />
            <path d=" M 799.881, 560.023 800.063, 560.404 800.140, 560.564 800.366, 561.036 800.599, 561.522 801.761, 563.672 802.913, 565.802 803.057, 566.068 803.307, 566.530 803.572, 567.020 803.647, 567.159 803.694, 567.358 803.695, 567.362 803.815, 567.866 803.834, 567.942 804.033, 568.777 805.147, 573.453 805.455, 574.745 805.463, 574.895 805.532, 576.140 805.564, 576.731 805.628, 577.886 805.684, 578.908 805.869, 584.885 805.987, 588.698 806.305, 595.519 806.326, 595.955 806.406, 596.271 807.936, 602.317 809.096, 603.772 809.440, 604.203 809.499, 604.278 809.652, 604.470 810.130, 605.069 810.135, 605.076 810.169, 605.118 810.271, 605.245 810.300, 605.283 810.400, 605.408 811.463, 606.741 811.488, 606.755 811.629, 606.835 813.992, 608.171 815.994, 608.289 818.473, 609.280 818.988, 609.486 819.088, 609.527 820.271, 610.000 821.289, 610.407 " fill="none" stroke="rgb(0, 0, 0)" stroke-linecap="butt" stroke-linejoin="round" stroke-opacity="1.0" stroke-width="3.0" />
            <path d=" M 609.910, 671.944 610.341, 671.987 613.430, 672.295 617.120, 671.306 618.630, 671.892 622.104, 671.564 626.835, 671.538 629.356, 671.840 630.625, 671.930 633.214, 671.573 635.179, 670.941 638.802, 670.451 640.529, 670.732 644.576, 670.731 648.844, 670.703 650.571, 670.630 652.573, 670.545 657.626, 670.860 661.728, 671.061 669.746, 671.793 " fill="none" stroke="rgb(0, 0, 0)" stroke-linecap="butt" stroke-linejoin="round" stroke-opacity="1.0" stroke-width="3.0" />
            <path d=" M 987.883, 434.553 986.155, 431.333 983.469, 428.730 982.096, 427.400 981.981, 427.288 981.787, 427.091 980.976, 426.268 980.444, 425.728 980.363, 425.646 979.328, 424.596 978.137, 423.227 978.029, 423.102 976.895, 421.799 976.863, 421.763 976.615, 421.478 976.219, 421.022 975.967, 420.734 972.025, 416.203 971.965, 416.135 971.866, 416.021 970.924, 414.939 969.496, 413.794 969.341, 413.669 968.568, 413.049 968.510, 412.993 967.179, 411.714 966.438, 411.001 961.386, 406.145 958.126, 404.145 954.599, 401.935 954.460, 401.848 952.530, 399.413 948.723, 396.075 947.567, 394.142 944.931, 391.118 " fill="none" stroke="rgb(0, 0, 0)" stroke-linecap="butt" stroke-linejoin="round" stroke-opacity="1.0" stroke-width="3.0" />
            <path d=" M 786.044, 780.159 785.114, 777.915 783.164, 773.210 781.470, 766.775 781.438, 766.655 781.340, 766.270 781.166, 765.586 780.281, 762.109 780.117, 761.466 780.105, 761.418 780.019, 761.079 779.852, 760.827 779.100, 759.691 778.962, 759.484 778.948, 759.462 778.465, 758.732 778.279, 758.452 777.904, 757.886 777.902, 757.882 777.208, 756.835 777.093, 756.760 776.374, 756.292 774.068, 754.791 770.497, 754.315 768.651, 755.526 767.960, 757.703 767.982, 760.081 767.990, 761.047 767.994, 761.438 768.005, 762.671 768.585, 767.808 768.766, 769.408 770.877, 772.614 771.512, 773.577 771.798, 774.011 772.189, 774.605 773.267, 776.508 773.498, 776.916 773.927, 777.672 774.386, 778.716 774.475, 778.919 774.557, 779.106 776.203, 782.851 " fill="none" stroke="rgb(0, 0, 0)" stroke-linecap="butt" stroke-linejoin="round" stroke-opacity="1.0" stroke-width="3.0" />
            <path d=" M 672.691, 501.692 668.511, 501.541 668.315, 501.534 667.384, 501.500 661.951, 499.634 660.277, 499.058 655.839, 493.564 653.984, 484.545 653.848, 483.327 653.432, 479.614 655.274, 473.552 659.823, 464.902 664.109, 461.733 664.895, 461.153 670.973, 457.954 673.913, 457.245 " fill="none" stroke="rgb(0, 0, 0)" stroke-linecap="butt" stroke-linejoin="round" stroke-opacity="1.0" stroke-width="3.0" />
            <path d=" M 925.991, 918.172 928.400, 914.759 931.612, 910.305 935.955, 901.385 940.022, 892.979 943.735, 884.981 948.226, 876.047 949.174, 874.161 953.664, 865.168 956.306, 860.191 956.649, 858.598 956.985, 857.032 " fill="none" stroke="rgb(0, 0, 0)" stroke-linecap="butt" stroke-linejoin="round" stroke-opacity="1.0" stroke-width="3.0" />
            <path d=" M 564.140, 703.196 563.809, 702.690 563.702, 702.526 562.944, 700.428 563.156, 700.367 563.399, 700.298 564.654, 699.937 565.239, 699.769 565.317, 699.746 565.338, 699.811 565.549, 700.463 565.694, 700.909 566.398, 703.080 566.419, 703.144 566.904, 703.720 571.639, 709.343 573.147, 710.587 577.413, 711.889 581.400, 710.362 583.988, 710.385 585.965, 710.403 589.754, 709.734 592.096, 708.127 592.435, 705.405 592.439, 705.378 592.032, 702.437 593.357, 699.812 593.567, 699.671 596.475, 697.723 596.791, 696.773 597.722, 693.977 597.253, 690.307 596.246, 687.571 592.933, 685.077 590.458, 683.214 " fill="none" stroke="rgb(0, 0, 0)" stroke-linecap="butt" stroke-linejoin="round" stroke-opacity="1.0" stroke-width="3.0" />
            <path d=" M 865.440, 742.016 861.704, 747.549 859.294, 750.202 856.792, 755.113 851.545, 759.524 848.435, 764.743 840.760, 769.426 838.849, 773.578 831.683, 778.575 830.920, 778.947 828.941, 783.302 826.247, 787.137 826.036, 789.238 825.845, 791.198 825.438, 795.385 " fill="none" stroke="rgb(0, 0, 0)" stroke-linecap="butt" stroke-linejoin="round" stroke-opacity="1.0" stroke-width="3.0" />
            <path d=" M 873.206, 1068.785 875.280, 1059.002 876.525, 1053.131 877.795, 1047.376 879.862, 1037.592 880.085, 1036.536 881.401, 1031.055 883.551, 1021.288 885.700, 1011.522 887.709, 1002.389 888.540, 998.921 " fill="none" stroke="rgb(0, 0, 0)" stroke-linecap="butt" stroke-linejoin="round" stroke-opacity="1.0" stroke-width="3.0" />
            <path d=" M 737.348, 526.582 738.355, 528.153 744.516, 535.524 747.182, 537.915 747.848, 538.513 755.292, 545.190 755.516, 545.390 763.108, 551.899 763.682, 552.391 764.173, 552.811 764.207, 552.840 766.046, 554.417 766.172, 554.494 766.254, 554.545 766.716, 554.827 771.739, 557.905 773.020, 558.522 777.047, 560.463 781.759, 562.390 781.964, 562.474 784.200, 563.421 784.231, 563.434 785.881, 564.133 786.038, 564.200 787.404, 564.779 788.767, 565.357 792.381, 566.599 793.229, 566.890 795.514, 567.114 " fill="none" stroke="rgb(0, 0, 0)" stroke-linecap="butt" stroke-linejoin="round" stroke-opacity="1.0" stroke-width="3.0" />
            <path d=" M 740.535, 665.687 748.601, 664.671 754.996, 664.884 755.054, 664.872 756.153, 664.638 756.502, 664.563 762.672, 663.249 764.371, 662.746 765.311, 662.468 765.337, 662.460 765.362, 662.453 766.577, 662.093 766.757, 662.040 770.217, 659.912 774.479, 657.491 776.689, 655.799 778.933, 654.082 779.130, 653.810 782.158, 649.630 782.393, 649.306 786.784, 644.737 788.035, 643.435 789.384, 638.961 790.454, 635.409 791.465, 630.395 791.747, 628.997 792.130, 627.102 792.245, 626.531 " fill="none" stroke="rgb(0, 0, 0)" stroke-linecap="butt" stroke-linejoin="round" stroke-opacity="1.0" stroke-width="3.0" />
            <path d=" M 763.237, 422.531 760.347, 424.604 758.581, 426.313 757.131, 427.718 750.568, 433.453 747.937, 436.350 740.999, 443.551 739.001, 445.624 733.623, 453.045 730.485, 459.479 727.837, 464.909 726.386, 472.053 725.917, 474.016 725.597, 475.352 725.563, 475.497 724.197, 481.208 723.849, 483.812 " fill="none" stroke="rgb(0, 0, 0)" stroke-linecap="butt" stroke-linejoin="round" stroke-opacity="1.0" stroke-width="3.0" />
            <path d=" M 725.739, 536.518 726.335, 538.306 729.811, 543.571 736.730, 550.792 739.046, 553.209 745.253, 558.134 748.736, 561.086 755.298, 566.647 757.657, 568.616 757.658, 568.617 758.713, 569.497 759.016, 569.750 761.455, 571.785 764.786, 573.924 764.965, 574.039 765.281, 574.242 767.117, 575.421 770.218, 576.979 770.231, 576.981 771.570, 577.275 773.617, 577.724 774.523, 577.923 780.533, 578.304 785.051, 577.823 785.309, 577.796 786.097, 577.712 " fill="none" stroke="rgb(0, 0, 0)" stroke-linecap="butt" stroke-linejoin="round" stroke-opacity="1.0" stroke-width="3.0" />
            <path d=" M 732.283, 530.613 735.492, 529.252 737.348, 526.582 738.382, 525.096 739.118, 522.113 739.874, 517.309 738.221, 509.956 733.268, 502.690 728.402, 498.382 724.378, 495.930 723.816, 495.798 721.018, 495.137 718.415, 495.089 716.617, 495.057 714.404, 495.019 709.699, 495.469 706.122, 496.390 697.188, 500.336 692.127, 501.521 691.893, 501.612 " fill="none" stroke="rgb(0, 0, 0)" stroke-linecap="butt" stroke-linejoin="round" stroke-opacity="1.0" stroke-width="3.0" />
            <path d=" M 752.267, 967.455 752.121, 967.537 751.943, 967.637 749.742, 968.871 746.386, 969.792 741.146, 974.340 735.957, 979.101 731.757, 981.647 724.959, 984.037 723.379, 985.334 722.284, 986.233 721.265, 990.873 724.759, 993.743 731.657, 996.990 738.965, 1000.190 746.269, 1001.357 753.759, 1000.820 754.709, 1001.580 755.496, 1002.210 " fill="none" stroke="rgb(0, 0, 0)" stroke-linecap="butt" stroke-linejoin="round" stroke-opacity="1.0" stroke-width="3.0" />
            <path d=" M 679.909, 675.738 684.711, 677.094 691.182, 678.211 693.541, 678.044 696.118, 677.551 699.029, 678.235 703.034, 677.650 706.339, 677.375 708.967, 677.339 715.651, 676.270 721.428, 675.392 725.193, 675.093 729.544, 674.579 732.967, 673.688 739.131, 673.102 742.563, 672.149 744.285, 671.017 749.149, 669.491 753.055, 667.104 754.266, 665.557 755.054, 664.872 " fill="none" stroke="rgb(0, 0, 0)" stroke-linecap="butt" stroke-linejoin="round" stroke-opacity="1.0" stroke-width="3.0" />
            <path d=" M 776.689, 655.799 777.339, 657.587 777.232, 663.575 776.643, 673.558 776.577, 674.668 775.081, 679.434 774.714, 685.802 773.317, 688.270 772.470, 694.444 773.605, 704.379 774.147, 709.119 775.261, 718.204 775.626, 727.086 776.467, 732.898 776.678, 734.354 " fill="none" stroke="rgb(0, 0, 0)" stroke-linecap="butt" stroke-linejoin="round" stroke-opacity="1.0" stroke-width="3.0" />
            <path d=" M 473.085, 864.273 474.157, 863.949 475.281, 863.610 475.411, 863.570 483.508, 867.136 486.804, 868.069 490.732, 867.762 493.259, 866.632 496.564, 866.137 498.810, 865.801 507.277, 864.839 511.283, 863.747 513.284, 862.934 513.922, 861.526 514.307, 859.191 515.581, 856.851 513.746, 854.366 507.494, 849.202 506.202, 848.024 505.226, 847.134 502.933, 841.010 501.090, 837.136 502.318, 832.318 502.838, 830.277 " fill="none" stroke="rgb(0, 0, 0)" stroke-linecap="butt" stroke-linejoin="round" stroke-opacity="1.0" stroke-width="3.0" />
            <path d=" M 992.058, 792.714 992.206, 792.501 995.906, 787.188 998.425, 783.577 1000.651, 780.401 1002.558, 776.357 1004.416, 771.667 1004.849, 768.156 1004.990, 760.710 1003.026, 753.653 1001.948, 750.936 999.728, 745.879 998.442, 743.582 996.229, 739.627 994.900, 735.916 992.281, 732.868 989.909, 731.557 988.411, 730.729 986.870, 729.878 985.872, 729.326 981.842, 730.399 980.982, 730.753 978.756, 731.670 " fill="none" stroke="rgb(0, 0, 0)" stroke-linecap="butt" stroke-linejoin="round" stroke-opacity="1.0" stroke-width="3.0" />
            <path d=" M 1024.089, 634.542 1024.210, 634.418 1025.121, 633.476 1026.805, 628.112 1026.628, 623.093 1027.926, 619.387 1028.057, 618.268 1028.650, 612.493 1029.680, 609.009 1030.494, 604.852 1030.525, 602.585 1030.393, 599.645 1031.885, 593.057 1032.842, 585.970 1033.154, 583.744 1033.463, 580.893 1033.651, 579.162 1034.424, 573.399 1034.588, 572.318 1035.597, 565.676 1035.987, 562.433 1036.674, 558.297 1036.454, 554.434 1036.439, 554.177 " fill="none" stroke="rgb(0, 0, 0)" stroke-linecap="butt" stroke-linejoin="round" stroke-opacity="1.0" stroke-width="3.0" />
            <path d=" M 467.944, 903.283 470.039, 903.560 472.159, 903.841 477.563, 904.097 483.984, 902.352 485.551, 902.165 490.114, 901.620 496.302, 901.429 502.146, 899.850 503.276, 898.747 504.336, 897.666 504.165, 896.958 502.629, 894.779 501.281, 893.877 494.048, 889.827 490.591, 886.470 489.401, 884.606 488.321, 882.915 485.290, 878.513 482.542, 872.792 478.599, 870.173 474.928, 865.614 474.551, 865.146 " fill="none" stroke="rgb(0, 0, 0)" stroke-linecap="butt" stroke-linejoin="round" stroke-opacity="1.0" stroke-width="3.0" />
            <path d=" M 820.971, 771.276 818.450, 771.993 816.882, 773.006 814.922, 774.273 814.835, 774.329 814.230, 774.720 807.939, 778.090 807.896, 778.108 805.399, 779.154 805.047, 779.302 804.405, 779.571 804.342, 779.597 804.117, 779.692 804.078, 779.708 803.975, 779.751 803.659, 779.883 801.928, 781.216 801.920, 781.222 797.301, 784.777 790.508, 791.224 788.239, 793.563 788.210, 793.593 787.658, 795.360 786.552, 798.898 784.477, 803.922 784.471, 803.935 784.327, 804.285 782.778, 805.191 780.546, 806.496 780.485, 806.657 778.247, 812.608 778.001, 813.262 777.766, 813.887 777.668, 814.104 777.625, 814.200 776.933, 815.732 775.638, 821.143 775.569, 821.430 776.617, 830.657 776.654, 831.020 776.984, 834.193 " fill="none" stroke="rgb(0, 0, 0)" stroke-linecap="butt" stroke-linejoin="round" stroke-opacity="1.0" stroke-width="3.0" />
            <path d=" M 767.325, 995.629 765.971, 996.720 758.021, 1000.566 755.874, 1001.964 755.496, 1002.210 755.171, 1002.422 753.965, 1003.207 750.165, 1007.000 743.864, 1011.362 736.601, 1014.345 734.637, 1016.071 734.249, 1019.573 734.360, 1020.474 735.569, 1021.103 744.439, 1025.719 746.278, 1026.676 752.268, 1028.764 757.154, 1029.259 764.945, 1028.591 768.531, 1029.596 769.558, 1032.157 770.521, 1034.556 " fill="none" stroke="rgb(0, 0, 0)" stroke-linecap="butt" stroke-linejoin="round" stroke-opacity="1.0" stroke-width="3.0" />
            <path d=" M 923.177, 674.768 923.169, 673.193 923.155, 670.209 923.307, 665.234 922.828, 662.191 922.419, 652.199 922.280, 648.792 921.883, 646.454 919.682, 639.225 919.539, 635.391 919.424, 628.105 917.168, 620.545 914.514, 613.600 911.213, 604.161 910.209, 601.288 907.006, 592.702 905.883, 590.574 " fill="none" stroke="rgb(0, 0, 0)" stroke-linecap="butt" stroke-linejoin="round" stroke-opacity="1.0" stroke-width="3.0" />
            <path d=" M 849.718, 641.621 850.481, 644.060 851.528, 647.970 851.405, 652.810 851.404, 652.858 851.373, 654.089 851.368, 654.290 851.368, 654.298 855.262, 662.075 856.759, 667.705 856.867, 668.622 856.912, 668.999 857.311, 672.365 857.334, 672.563 857.569, 674.548 858.225, 680.842 858.230, 684.759 858.115, 689.714 860.985, 699.293 861.065, 699.561 862.606, 704.667 860.508, 713.454 861.697, 720.441 862.176, 724.304 862.406, 726.154 862.542, 727.249 862.670, 728.285 " fill="none" stroke="rgb(0, 0, 0)" stroke-linecap="butt" stroke-linejoin="round" stroke-opacity="1.0" stroke-width="3.0" />
            <path d=" M 824.385, 383.932 821.026, 382.007 817.989, 379.855 815.079, 378.328 814.906, 378.237 814.027, 377.776 813.475, 377.486 812.443, 376.944 811.683, 376.545 803.392, 372.193 799.363, 370.526 789.598, 368.373 787.799, 367.977 779.304, 367.698 778.007, 367.690 775.729, 368.790 772.620, 370.751 768.931, 376.927 766.114, 381.269 764.454, 384.119 763.228, 386.416 761.875, 389.166 760.849, 392.456 760.404, 394.441 760.050, 396.019 760.036, 396.080 759.858, 396.873 759.184, 400.580 759.111, 400.983 " fill="none" stroke="rgb(0, 0, 0)" stroke-linecap="butt" stroke-linejoin="round" stroke-opacity="1.0" stroke-width="3.0" />
            <path d=" M 679.495, 457.748 681.162, 457.498 683.705, 455.628 684.233, 454.611 681.030, 452.935 678.534, 449.973 673.903, 447.257 671.561, 446.174 662.164, 442.752 661.751, 442.602 656.604, 441.888 647.489, 443.478 640.355, 444.654 635.967, 446.957 629.357, 450.209 625.417, 454.117 619.417, 459.559 615.691, 463.939 612.153, 468.099 " fill="none" stroke="rgb(0, 0, 0)" stroke-linecap="butt" stroke-linejoin="round" stroke-opacity="1.0" stroke-width="3.0" />
            <path d=" M 878.776, 393.694 878.524, 393.800 872.105, 396.513 867.754, 397.730 864.099, 398.103 863.530, 398.161 863.362, 398.219 863.064, 398.322 862.896, 398.380 862.879, 398.386 862.643, 398.468 857.615, 400.206 850.303, 401.287 843.746, 397.655 836.984, 397.733 834.031, 397.984 830.566, 398.085 829.551, 398.178 829.505, 398.183 829.396, 398.193 828.968, 398.232 828.773, 398.250 828.768, 398.251 827.159, 398.399 826.426, 398.467 825.770, 398.528 825.713, 398.533 824.265, 398.667 823.506, 398.665 820.171, 398.661 818.338, 398.658 812.808, 398.650 811.988, 398.649 803.349, 399.355 800.576, 399.349 800.197, 399.348 797.601, 399.343 796.849, 399.341 796.840, 399.341 789.751, 400.809 " fill="none" stroke="rgb(0, 0, 0)" stroke-linecap="butt" stroke-linejoin="round" stroke-opacity="1.0" stroke-width="3.0" />
            <path d=" M 792.130, 627.102 792.819, 624.779 794.145, 620.311 794.266, 619.902 794.912, 617.725 795.042, 617.287 795.020, 617.038 795.016, 616.996 794.903, 615.706 794.840, 614.995 794.510, 611.234 793.097, 608.916 792.609, 608.217 790.065, 606.463 788.145, 606.301 784.374, 606.033 784.372, 606.033 784.094, 606.013 781.771, 605.848 781.708, 605.844 781.318, 605.755 778.666, 605.148 770.528, 599.336 769.970, 598.937 761.799, 593.171 761.301, 592.820 754.636, 587.458 745.647, 583.075 745.439, 582.973 736.894, 577.834 731.546, 573.350 " fill="none" stroke="rgb(0, 0, 0)" stroke-linecap="butt" stroke-linejoin="round" stroke-opacity="1.0" stroke-width="3.0" />
            <path d=" M 873.653, 829.991 873.742, 829.860 876.381, 825.975 878.556, 821.711 882.333, 816.200 885.725, 809.630 888.650, 804.188 893.885, 795.668 893.955, 795.554 898.461, 789.235 901.469, 784.674 906.142, 779.182 908.419, 774.567 911.140, 770.793 911.710, 768.999 914.689, 763.994 914.835, 763.768 916.712, 760.366 919.499, 755.224 920.189, 752.524 920.969, 749.248 922.339, 745.305 922.580, 742.661 924.322, 738.119 925.104, 736.408 925.138, 736.334 925.150, 736.306 925.459, 735.631 925.911, 734.643 925.919, 734.624 926.453, 733.456 " fill="none" stroke="rgb(0, 0, 0)" stroke-linecap="butt" stroke-linejoin="round" stroke-opacity="1.0" stroke-width="3.0" />
            <path d=" M 471.662, 581.164 470.595, 589.702 469.536, 593.089 468.286, 597.999 466.062, 607.748 465.427, 610.534 464.155, 616.574 461.912, 623.597 458.998, 633.163 458.240, 635.652 455.865, 644.086 453.099, 653.696 450.410, 663.037 447.432, 672.583 444.454, 682.130 444.013, 683.544 443.483, 685.985 442.655, 689.796 " fill="none" stroke="rgb(0, 0, 0)" stroke-linecap="butt" stroke-linejoin="round" stroke-opacity="1.0" stroke-width="3.0" />
            <path d=" M 1005.529, 452.835 1005.259, 452.423 1002.989, 448.969 997.193, 440.820 996.759, 440.210 994.549, 436.668 993.883, 435.333 992.377, 432.896 991.355, 431.242 990.960, 430.435 988.387, 425.182 988.304, 425.012 988.281, 424.942 986.997, 420.853 985.008, 416.812 983.789, 413.191 983.106, 411.664 977.430, 403.438 974.791, 400.024 968.083, 393.128 965.926, 389.856 961.394, 384.068 961.006, 382.472 959.787, 379.530 958.778, 376.092 958.550, 368.751 957.944, 364.566 957.557, 362.220 957.023, 359.744 956.432, 357.330 953.120, 351.996 952.096, 349.607 " fill="none" stroke="rgb(0, 0, 0)" stroke-linecap="butt" stroke-linejoin="round" stroke-opacity="1.0" stroke-width="3.0" />
            <path d=" M 743.179, 1056.412 738.806, 1058.875 735.091, 1060.179 730.341, 1062.725 725.524, 1064.301 721.623, 1066.367 712.258, 1068.986 703.334, 1070.424 696.390, 1071.106 694.668, 1071.546 693.012, 1073.751 693.160, 1074.853 696.585, 1077.232 700.765, 1079.215 707.565, 1080.852 712.478, 1082.316 720.271, 1084.145 730.216, 1085.187 730.793, 1085.248 739.592, 1086.023 745.767, 1086.230 750.495, 1086.133 758.140, 1085.038 " fill="none" stroke="rgb(0, 0, 0)" stroke-linecap="butt" stroke-linejoin="round" stroke-opacity="1.0" stroke-width="3.0" />
            <path d=" M 767.566, 1068.275 766.673, 1070.818 767.296, 1074.957 766.300, 1077.444 761.333, 1082.543 759.557, 1083.931 758.140, 1085.038 754.065, 1088.221 745.587, 1093.524 739.969, 1097.039 732.787, 1101.516 729.222, 1102.335 723.298, 1104.393 717.027, 1107.021 711.562, 1107.819 706.569, 1109.794 701.805, 1112.061 699.824, 1114.928 700.541, 1118.471 704.902, 1120.539 710.504, 1121.495 718.503, 1122.758 725.964, 1123.656 734.075, 1123.266 737.913, 1123.082 " fill="none" stroke="rgb(0, 0, 0)" stroke-linecap="butt" stroke-linejoin="round" stroke-opacity="1.0" stroke-width="3.0" />
            <path d=" M 874.655, 1042.088 876.755, 1038.431 878.524, 1033.768 880.976, 1029.296 882.851, 1019.473 883.087, 1018.241 885.595, 1008.560 886.376, 1005.545 888.540, 998.921 889.783, 995.119 892.848, 986.078 895.719, 977.820 899.827, 968.703 902.251, 963.324 906.241, 954.155 906.621, 953.282 911.325, 944.458 913.414, 940.539 918.362, 931.849 921.326, 926.642 923.711, 921.946 925.991, 918.172 928.617, 913.825 " fill="none" stroke="rgb(0, 0, 0)" stroke-linecap="butt" stroke-linejoin="round" stroke-opacity="1.0" stroke-width="3.0" />
            <path d=" M 754.785, 838.013 754.532, 838.709 754.314, 839.311 754.168, 839.713 754.133, 839.808 754.120, 839.843 753.960, 840.284 753.951, 840.311 753.796, 840.737 752.861, 843.311 752.721, 844.337 751.991, 849.673 751.323, 854.559 751.205, 861.384 750.534, 864.265 750.267, 865.414 750.180, 865.787 748.768, 871.121 748.756, 871.168 748.735, 871.247 748.678, 871.463 748.666, 871.508 748.626, 871.659 748.623, 871.670 748.185, 873.306 748.034, 873.868 748.013, 873.947 747.900, 874.369 747.303, 876.595 747.343, 877.164 747.486, 879.179 747.498, 879.346 747.499, 879.361 747.516, 879.610 747.557, 880.184 747.581, 880.516 747.583, 880.546 747.598, 880.756 747.594, 880.909 747.588, 881.208 747.588, 881.209 747.588, 881.242 747.537, 883.734 747.542, 883.831 748.046, 892.065 748.695, 893.971 750.551, 899.429 750.787, 900.121 750.263, 903.221 750.027, 904.618 749.995, 904.809 749.369, 908.516 749.245, 909.510 749.156, 910.230 749.125, 910.476 748.257, 917.477 748.144, 918.392 750.482, 926.079 751.414, 930.411 751.507, 930.843 752.507, 935.495 753.397, 939.828 753.186, 943.251 753.238, 944.473 754.225, 949.813 754.256, 949.977 754.268, 950.047 754.297, 950.201 754.317, 950.310 755.193, 955.044 755.708, 957.958 755.730, 958.083 755.825, 958.281 757.836, 962.496 759.256, 963.925 761.429, 966.112 761.461, 966.140 761.568, 966.238 763.462, 967.952 766.152, 971.839 " fill="none" stroke="rgb(0, 0, 0)" stroke-linecap="butt" stroke-linejoin="round" stroke-opacity="1.0" stroke-width="3.0" />
            <path d=" M 414.117, 786.104 412.599, 791.661 410.840, 800.294 408.587, 810.037 407.489, 814.785 404.691, 824.386 404.580, 824.769 402.506, 834.552 400.596, 843.563 400.538, 843.837 399.025, 849.415 398.335, 852.276 397.046, 857.629 394.351, 863.291 393.383, 868.082 392.315, 872.696 391.197, 878.636 390.953, 886.246 390.210, 889.187 390.018, 889.945 389.712, 891.156 389.314, 895.718 389.055, 898.135 388.346, 901.642 387.244, 903.130 387.340, 904.718 387.658, 914.786 388.485, 924.752 388.616, 926.325 389.055, 936.315 389.121, 937.815 390.046, 947.772 390.625, 954.001 392.190, 963.229 393.442, 970.062 395.658, 979.813 396.356, 982.885 398.053, 992.740 398.118, 993.118 398.514, 995.418 399.600, 1000.746 400.541, 1007.419 400.836, 1009.512 401.349, 1011.728 402.355, 1016.066 404.876, 1021.252 405.996, 1023.557 " fill="none" stroke="rgb(0, 0, 0)" stroke-linecap="butt" stroke-linejoin="round" stroke-opacity="1.0" stroke-width="3.0" />
        </g>
    </g>
</svg>
