<?xml version='1.0' encoding='ascii'?>
<svg xmlns="http://www.w3.org/2000/svg" height="1280" version="1.1" width="1280">
    <g id="RenderLayer_LineSet" inkscape:groupmode="lineset" inkscape:label="RenderLayer_LineSet" xmlns:inkscape="http://www.inkscape.org/namespaces/inkscape">
        <g id="strokes" inkscape:groupmode="layer" inkscape:label="strokes" xmlns:inkscape="http://www.inkscape.org/namespaces/inkscape">
            <path d=" M 771.219, 616.867 776.144, 621.677 778.622, 624.355 778.790, 624.536 782.759, 628.824 784.367, 631.863 " fill="none" stroke="rgb(0, 0, 0)" stroke-linecap="butt" stroke-linejoin="round" stroke-opacity="1.0" stroke-width="3.0" />
            <path d=" M 717.114, 755.197 721.778, 755.365 726.032, 754.754 730.803, 754.476 736.856, 753.224 736.991, 753.196 " fill="none" stroke="rgb(0, 0, 0)" stroke-linecap="butt" stroke-linejoin="round" stroke-opacity="1.0" stroke-width="3.0" />
            <path d=" M 970.514, 678.153 971.168, 679.563 971.379, 679.936 974.976, 686.319 976.465, 691.027 976.103, 697.206 " fill="none" stroke="rgb(0, 0, 0)" stroke-linecap="butt" stroke-linejoin="round" stroke-opacity="1.0" stroke-width="3.0" />
            <path d=" M 781.271, 441.451 776.150, 441.201 772.338, 442.188 767.163, 443.431 763.712, 444.259 763.195, 444.384 763.181, 444.387 760.871, 444.942 " fill="none" stroke="rgb(0, 0, 0)" stroke-linecap="butt" stroke-linejoin="round" stroke-opacity="1.0" stroke-width="3.0" />
            <path d=" M 725.016, 892.798 724.593, 892.709 719.801, 891.731 716.612, 892.764 715.791, 894.453 714.611, 896.187 712.228, 899.733 712.278, 902.086 712.973, 903.520 " fill="none" stroke="rgb(0, 0, 0)" stroke-linecap="butt" stroke-linejoin="round" stroke-opacity="1.0" stroke-width="3.0" />
            <path d=" M 384.024, 1013.094 384.005, 1013.677 383.800, 1020.106 385.972, 1029.890 388.960, 1032.566 " fill="none" stroke="rgb(0, 0, 0)" stroke-linecap="butt" stroke-linejoin="round" stroke-opacity="1.0" stroke-width="3.0" />
            <path d=" M 599.957, 642.852 603.039, 646.763 603.595, 648.422 602.890, 647.343 602.884, 647.333 599.957, 642.852 599.326, 641.885 598.132, 640.530 594.966, 636.935 " fill="none" stroke="rgb(0, 0, 0)" stroke-linecap="butt" stroke-linejoin="round" stroke-opacity="1.0" stroke-width="3.0" />
            <path d=" M 522.793, 737.307 526.852, 736.769 529.148, 733.399 530.200, 730.524 530.693, 727.735 530.501, 726.519 529.379, 723.404 530.543, 722.225 531.150, 721.612 531.190, 721.571 " fill="none" stroke="rgb(0, 0, 0)" stroke-linecap="butt" stroke-linejoin="round" stroke-opacity="1.0" stroke-width="3.0" />
            <path d=" M 462.262, 835.991 462.276, 835.990 470.382, 835.423 478.118, 833.551 483.119, 832.493 " fill="none" stroke="rgb(0, 0, 0)" stroke-linecap="butt" stroke-linejoin="round" stroke-opacity="1.0" stroke-width="3.0" />
            <path d=" M 918.676, 591.102 919.245, 588.366 918.484, 584.338 919.793, 581.352 919.808, 579.001 920.079, 572.553 920.173, 570.301 " fill="none" stroke="rgb(0, 0, 0)" stroke-linecap="butt" stroke-linejoin="round" stroke-opacity="1.0" stroke-width="3.0" />
            <path d=" M 810.998, 684.315 810.693, 683.586 807.221, 680.306 805.139, 680.806 803.597, 681.015 801.882, 683.408 801.189, 684.376 801.162, 685.187 801.151, 685.515 800.931, 692.232 " fill="none" stroke="rgb(0, 0, 0)" stroke-linecap="butt" stroke-linejoin="round" stroke-opacity="1.0" stroke-width="3.0" />
            <path d=" M 561.787, 756.391 564.534, 756.242 565.593, 756.097 565.826, 756.065 566.243, 756.008 566.814, 755.929 566.878, 755.921 566.963, 755.909 567.366, 755.854 569.366, 755.514 570.556, 753.450 570.653, 753.283 571.733, 750.954 570.161, 744.339 570.143, 744.264 569.751, 742.615 " fill="none" stroke="rgb(0, 0, 0)" stroke-linecap="butt" stroke-linejoin="round" stroke-opacity="1.0" stroke-width="3.0" />
            <path d=" M 695.909, 754.629 702.043, 755.545 705.146, 755.406 708.084, 755.190 710.896, 755.483 713.752, 755.393 717.114, 755.197 717.502, 755.175 " fill="none" stroke="rgb(0, 0, 0)" stroke-linecap="butt" stroke-linejoin="round" stroke-opacity="1.0" stroke-width="3.0" />
            <path d=" M 486.178, 560.277 486.161, 560.333 484.863, 564.647 483.816, 566.012 482.139, 570.763 478.674, 580.143 478.518, 580.565 " fill="none" stroke="rgb(0, 0, 0)" stroke-linecap="butt" stroke-linejoin="round" stroke-opacity="1.0" stroke-width="3.0" />
            <path d=" M 851.393, 1143.699 858.519, 1139.444 863.721, 1135.426 867.488, 1131.219 868.352, 1130.254 " fill="none" stroke="rgb(0, 0, 0)" stroke-linecap="butt" stroke-linejoin="round" stroke-opacity="1.0" stroke-width="3.0" />
            <path d=" M 755.815, 720.640 754.522, 719.677 750.054, 719.269 748.868, 718.579 746.716, 716.887 743.573, 714.232 742.189, 712.698 738.310, 708.719 " fill="none" stroke="rgb(0, 0, 0)" stroke-linecap="butt" stroke-linejoin="round" stroke-opacity="1.0" stroke-width="3.0" />
            <path d=" M 736.791, 861.964 735.856, 863.279 735.772, 863.430 735.152, 864.547 735.937, 863.311 736.055, 863.125 736.791, 861.964 736.927, 861.750 737.011, 861.617 737.592, 860.701 737.623, 860.653 738.314, 859.564 738.390, 859.444 739.573, 857.579 739.655, 857.450 739.736, 857.323 740.512, 856.100 742.224, 854.299 742.377, 854.139 742.847, 853.644 742.862, 853.628 743.739, 852.706 743.942, 852.068 744.305, 850.931 744.921, 849.004 744.950, 848.912 745.117, 848.390 " fill="none" stroke="rgb(0, 0, 0)" stroke-linecap="butt" stroke-linejoin="round" stroke-opacity="1.0" stroke-width="3.0" />
            <path d=" M 994.544, 572.763 993.183, 567.781 992.888, 561.291 990.029, 551.709 989.794, 550.918 " fill="none" stroke="rgb(0, 0, 0)" stroke-linecap="butt" stroke-linejoin="round" stroke-opacity="1.0" stroke-width="3.0" />
            <path d=" M 792.369, 1031.654 791.679, 1032.339 787.076, 1036.910 778.875, 1042.633 774.497, 1045.689 " fill="none" stroke="rgb(0, 0, 0)" stroke-linecap="butt" stroke-linejoin="round" stroke-opacity="1.0" stroke-width="3.0" />
            <path d=" M 519.527, 737.355 520.892, 735.345 521.048, 735.115 525.755, 728.188 527.397, 723.210 527.427, 723.035 528.497, 716.753 " fill="none" stroke="rgb(0, 0, 0)" stroke-linecap="butt" stroke-linejoin="round" stroke-opacity="1.0" stroke-width="3.0" />
            <path d=" M 753.643, 445.699 748.392, 450.407 743.921, 455.025 740.548, 459.199 737.847, 462.542 " fill="none" stroke="rgb(0, 0, 0)" stroke-linecap="butt" stroke-linejoin="round" stroke-opacity="1.0" stroke-width="3.0" />
            <path d=" M 521.019, 681.194 522.094, 678.396 521.889, 677.258 521.939, 675.311 521.979, 673.747 522.511, 672.978 525.458, 668.720 528.041, 665.417 529.190, 660.372 " fill="none" stroke="rgb(0, 0, 0)" stroke-linecap="butt" stroke-linejoin="round" stroke-opacity="1.0" stroke-width="3.0" />
            <path d=" M 942.310, 471.195 941.869, 470.817 941.709, 470.681 939.204, 468.531 939.099, 468.441 938.526, 467.950 935.781, 466.767 932.545, 465.373 932.016, 465.126 929.424, 463.914 923.924, 461.597 921.512, 460.812 " fill="none" stroke="rgb(0, 0, 0)" stroke-linecap="butt" stroke-linejoin="round" stroke-opacity="1.0" stroke-width="3.0" />
            <path d=" M 534.104, 722.346 539.603, 723.713 544.639, 724.113 545.946, 723.773 546.895, 717.913 546.072, 715.232 544.822, 712.740 " fill="none" stroke="rgb(0, 0, 0)" stroke-linecap="butt" stroke-linejoin="round" stroke-opacity="1.0" stroke-width="3.0" />
            <path d=" M 467.413, 908.108 465.746, 903.095 464.605, 899.666 462.758, 896.721 458.167, 892.913 456.514, 890.582 455.689, 888.660 455.626, 888.515 455.560, 888.360 " fill="none" stroke="rgb(0, 0, 0)" stroke-linecap="butt" stroke-linejoin="round" stroke-opacity="1.0" stroke-width="3.0" />
            <path d=" M 966.792, 846.247 967.792, 842.665 971.160, 833.225 973.213, 825.685 973.437, 823.577 " fill="none" stroke="rgb(0, 0, 0)" stroke-linecap="butt" stroke-linejoin="round" stroke-opacity="1.0" stroke-width="3.0" />
            <path d=" M 620.783, 458.469 620.662, 458.582 618.067, 461.021 614.636, 464.358 612.419, 466.138 609.757, 469.012 606.780, 471.060 604.089, 475.211 " fill="none" stroke="rgb(0, 0, 0)" stroke-linecap="butt" stroke-linejoin="round" stroke-opacity="1.0" stroke-width="3.0" />
            <path d=" M 761.354, 1167.055 761.192, 1169.709 763.737, 1171.883 764.620, 1172.375 772.047, 1176.276 779.858, 1176.510 780.646, 1176.221 " fill="none" stroke="rgb(0, 0, 0)" stroke-linecap="butt" stroke-linejoin="round" stroke-opacity="1.0" stroke-width="3.0" />
            <path d=" M 717.789, 909.827 717.707, 910.307 717.461, 911.749 716.123, 915.687 714.489, 919.218 714.525, 921.394 716.753, 923.690 719.352, 927.421 723.642, 927.152 " fill="none" stroke="rgb(0, 0, 0)" stroke-linecap="butt" stroke-linejoin="round" stroke-opacity="1.0" stroke-width="3.0" />
            <path d=" M 730.247, 855.319 729.165, 856.022 729.110, 856.057 727.283, 857.243 724.306, 858.069 718.778, 862.433 717.933, 865.031 719.814, 867.298 720.128, 868.904 720.958, 872.062 " fill="none" stroke="rgb(0, 0, 0)" stroke-linecap="butt" stroke-linejoin="round" stroke-opacity="1.0" stroke-width="3.0" />
            <path d=" M 751.449, 651.611 752.425, 654.696 752.604, 655.263 751.628, 655.860 751.165, 656.144 751.161, 656.146 750.900, 656.235 747.535, 657.389 745.259, 657.973 742.422, 659.610 740.109, 662.871 738.160, 666.504 737.493, 667.750 " fill="none" stroke="rgb(0, 0, 0)" stroke-linecap="butt" stroke-linejoin="round" stroke-opacity="1.0" stroke-width="3.0" />
            <path d=" M 731.771, 835.532 731.052, 837.172 730.742, 837.879 726.753, 841.358 724.077, 844.272 725.419, 849.991 726.624, 853.226 729.110, 856.057 " fill="none" stroke="rgb(0, 0, 0)" stroke-linecap="butt" stroke-linejoin="round" stroke-opacity="1.0" stroke-width="3.0" />
            <path d=" M 736.994, 669.082 734.002, 672.614 734.255, 676.749 736.392, 679.839 737.704, 681.534 740.580, 684.374 742.665, 686.129 746.186, 687.998 " fill="none" stroke="rgb(0, 0, 0)" stroke-linecap="butt" stroke-linejoin="round" stroke-opacity="1.0" stroke-width="3.0" />
            <path d=" M 570.556, 753.450 572.067, 753.125 574.948, 751.394 576.902, 748.885 580.233, 739.456 580.624, 738.350 579.477, 735.983 579.207, 735.620 578.331, 734.440 578.174, 734.228 578.004, 733.999 577.984, 733.973 577.666, 733.544 577.572, 733.418 577.170, 732.877 " fill="none" stroke="rgb(0, 0, 0)" stroke-linecap="butt" stroke-linejoin="round" stroke-opacity="1.0" stroke-width="3.0" />
            <path d=" M 796.630, 1196.353 803.978, 1194.950 809.755, 1193.543 815.921, 1189.324 818.268, 1184.824 " fill="none" stroke="rgb(0, 0, 0)" stroke-linecap="butt" stroke-linejoin="round" stroke-opacity="1.0" stroke-width="3.0" />
            <path d=" M 641.860, 444.171 637.598, 445.724 636.047, 447.127 635.273, 447.432 630.733, 449.217 627.046, 452.119 623.121, 455.018 621.233, 457.415 620.662, 458.582 " fill="none" stroke="rgb(0, 0, 0)" stroke-linecap="butt" stroke-linejoin="round" stroke-opacity="1.0" stroke-width="3.0" />
            <path d=" M 896.531, 450.794 896.016, 450.451 892.008, 447.783 889.664, 446.876 888.751, 446.523 888.695, 446.502 888.174, 446.300 887.973, 446.268 887.920, 446.259 887.681, 446.221 887.420, 446.179 887.419, 446.179 887.380, 446.173 884.101, 445.646 881.350, 446.777 880.840, 446.986 880.128, 447.278 879.232, 447.647 879.119, 447.693 878.950, 447.762 877.826, 447.734 877.618, 447.728 876.698, 447.705 871.354, 447.568 " fill="none" stroke="rgb(0, 0, 0)" stroke-linecap="butt" stroke-linejoin="round" stroke-opacity="1.0" stroke-width="3.0" />
            <path d=" M 604.432, 474.954 604.089, 475.211 600.664, 477.785 596.786, 480.252 590.883, 483.237 588.696, 483.908 587.527, 484.267 585.044, 485.029 580.397, 486.456 " fill="none" stroke="rgb(0, 0, 0)" stroke-linecap="butt" stroke-linejoin="round" stroke-opacity="1.0" stroke-width="3.0" />
            <path d=" M 441.019, 902.855 442.417, 903.548 447.232, 905.935 454.435, 906.272 455.172, 906.282 458.158, 903.690 459.435, 901.180 460.097, 898.019 458.522, 896.758 " fill="none" stroke="rgb(0, 0, 0)" stroke-linecap="butt" stroke-linejoin="round" stroke-opacity="1.0" stroke-width="3.0" />
            <path d=" M 503.266, 841.734 502.604, 838.070 502.458, 835.635 505.519, 829.489 506.092, 827.932 509.491, 828.715 514.409, 829.858 516.966, 829.918 517.999, 829.483 " fill="none" stroke="rgb(0, 0, 0)" stroke-linecap="butt" stroke-linejoin="round" stroke-opacity="1.0" stroke-width="3.0" />
            <path d=" M 793.007, 1012.677 791.717, 1021.890 791.283, 1019.061 790.635, 1014.012 788.351, 1012.201 781.458, 1012.456 " fill="none" stroke="rgb(0, 0, 0)" stroke-linecap="butt" stroke-linejoin="round" stroke-opacity="1.0" stroke-width="3.0" />
            <path d=" M 967.108, 492.064 964.459, 488.848 961.098, 484.767 960.663, 484.240 959.121, 482.368 952.041, 476.618 947.421, 472.494 " fill="none" stroke="rgb(0, 0, 0)" stroke-linecap="butt" stroke-linejoin="round" stroke-opacity="1.0" stroke-width="3.0" />
            <path d=" M 794.366, 1159.675 792.442, 1162.867 792.382, 1162.910 792.249, 1163.007 791.863, 1163.289 791.157, 1163.804 791.141, 1163.816 790.790, 1164.072 784.879, 1168.385 784.703, 1168.513 784.158, 1169.182 783.433, 1170.071 782.843, 1170.794 780.921, 1174.903 780.784, 1175.561 780.646, 1176.221 780.638, 1176.263 779.721, 1180.664 779.388, 1182.263 " fill="none" stroke="rgb(0, 0, 0)" stroke-linecap="butt" stroke-linejoin="round" stroke-opacity="1.0" stroke-width="3.0" />
            <path d=" M 823.771, 538.604 826.905, 529.945 829.094, 524.320 833.773, 517.834 836.865, 513.747 " fill="none" stroke="rgb(0, 0, 0)" stroke-linecap="butt" stroke-linejoin="round" stroke-opacity="1.0" stroke-width="3.0" />
            <path d=" M 769.304, 1197.016 769.468, 1197.088 771.869, 1200.707 771.915, 1200.775 779.197, 1202.737 785.895, 1202.418 787.814, 1201.059 793.676, 1196.906 " fill="none" stroke="rgb(0, 0, 0)" stroke-linecap="butt" stroke-linejoin="round" stroke-opacity="1.0" stroke-width="3.0" />
            <path d=" M 1000.577, 677.797 1003.029, 670.133 1004.896, 662.785 1005.769, 659.502 1006.024, 658.261 1006.287, 653.609 1005.941, 651.008 1005.812, 650.039 " fill="none" stroke="rgb(0, 0, 0)" stroke-linecap="butt" stroke-linejoin="round" stroke-opacity="1.0" stroke-width="3.0" />
            <path d=" M 779.721, 1180.664 778.000, 1182.627 771.061, 1187.982 768.389, 1190.404 767.576, 1193.362 767.012, 1197.616 767.893, 1199.469 769.752, 1200.496 771.869, 1200.707 " fill="none" stroke="rgb(0, 0, 0)" stroke-linecap="butt" stroke-linejoin="round" stroke-opacity="1.0" stroke-width="3.0" />
            <path d=" M 448.589, 1009.140 447.538, 1007.854 443.496, 1002.910 440.347, 998.268 438.871, 994.870 435.811, 989.655 433.498, 985.181 433.406, 984.930 " fill="none" stroke="rgb(0, 0, 0)" stroke-linecap="butt" stroke-linejoin="round" stroke-opacity="1.0" stroke-width="3.0" />
            <path d=" M 518.542, 818.333 519.675, 818.167 519.716, 818.160 519.730, 818.158 523.064, 817.308 526.456, 816.885 526.937, 816.825 529.404, 816.518 531.029, 815.065 530.716, 808.596 530.132, 806.496 528.916, 805.271 526.414, 802.748 526.118, 800.835 " fill="none" stroke="rgb(0, 0, 0)" stroke-linecap="butt" stroke-linejoin="round" stroke-opacity="1.0" stroke-width="3.0" />
            <path d=" M 809.034, 576.196 808.517, 578.874 807.761, 583.551 806.579, 589.310 805.346, 592.720 803.843, 597.947 803.504, 603.492 803.496, 603.621 803.430, 604.692 " fill="none" stroke="rgb(0, 0, 0)" stroke-linecap="butt" stroke-linejoin="round" stroke-opacity="1.0" stroke-width="3.0" />
            <path d=" M 746.178, 772.447 746.181, 774.302 746.183, 776.037 743.107, 778.206 740.760, 781.770 741.283, 785.327 742.495, 788.572 747.135, 793.055 749.909, 795.807 750.013, 795.910 " fill="none" stroke="rgb(0, 0, 0)" stroke-linecap="butt" stroke-linejoin="round" stroke-opacity="1.0" stroke-width="3.0" />
            <path d=" M 409.177, 1012.705 409.471, 1013.064 416.996, 1018.531 423.572, 1020.564 427.877, 1022.201 435.720, 1023.787 " fill="none" stroke="rgb(0, 0, 0)" stroke-linecap="butt" stroke-linejoin="round" stroke-opacity="1.0" stroke-width="3.0" />
            <path d=" M 837.326, 497.127 836.728, 498.394 836.667, 498.522 836.282, 499.337 836.167, 499.583 836.156, 499.629 835.439, 502.933 835.320, 503.575 834.888, 505.912 834.536, 507.812 834.922, 511.399 836.865, 513.747 838.516, 515.741 842.223, 519.037 845.208, 521.909 " fill="none" stroke="rgb(0, 0, 0)" stroke-linecap="butt" stroke-linejoin="round" stroke-opacity="1.0" stroke-width="3.0" />
            <path d=" M 802.002, 1188.341 805.827, 1188.826 807.837, 1188.683 809.906, 1188.536 810.437, 1188.436 812.171, 1188.108 816.709, 1185.695 818.268, 1184.824 819.063, 1184.380 819.856, 1181.783 820.310, 1180.298 820.463, 1179.796 820.552, 1179.506 823.259, 1174.348 823.549, 1173.794 " fill="none" stroke="rgb(0, 0, 0)" stroke-linecap="butt" stroke-linejoin="round" stroke-opacity="1.0" stroke-width="3.0" />
            <path d=" M 770.138, 911.045 770.122, 911.061 770.063, 911.118 767.806, 913.324 765.826, 915.570 766.064, 917.183 771.115, 920.299 773.174, 921.749 778.417, 924.427 781.655, 926.000 785.209, 927.726 " fill="none" stroke="rgb(0, 0, 0)" stroke-linecap="butt" stroke-linejoin="round" stroke-opacity="1.0" stroke-width="3.0" />
            <path d=" M 774.571, 678.260 774.926, 680.314 774.929, 680.332 774.967, 680.550 775.408, 683.103 776.906, 691.000 777.722, 699.064 778.147, 701.775 778.155, 701.829 778.708, 705.354 779.108, 707.766 " fill="none" stroke="rgb(0, 0, 0)" stroke-linecap="butt" stroke-linejoin="round" stroke-opacity="1.0" stroke-width="3.0" />
            <path d=" M 717.425, 580.603 710.482, 581.730 707.210, 582.198 700.755, 583.123 690.810, 584.172 687.282, 584.544 " fill="none" stroke="rgb(0, 0, 0)" stroke-linecap="butt" stroke-linejoin="round" stroke-opacity="1.0" stroke-width="3.0" />
            <path d=" M 636.534, 656.029 632.093, 656.978 629.588, 657.063 626.785, 657.134 624.837, 657.128 622.359, 657.191 621.640, 657.196 618.988, 656.772 616.287, 656.383 613.122, 656.064 609.231, 654.922 609.181, 654.907 607.855, 652.521 " fill="none" stroke="rgb(0, 0, 0)" stroke-linecap="butt" stroke-linejoin="round" stroke-opacity="1.0" stroke-width="3.0" />
            <path d=" M 745.800, 817.084 744.187, 819.950 743.745, 820.735 740.047, 824.266 739.769, 825.502 739.752, 825.576 738.854, 829.569 739.193, 831.860 743.653, 834.533 743.915, 834.690 748.713, 839.525 749.483, 840.301 " fill="none" stroke="rgb(0, 0, 0)" stroke-linecap="butt" stroke-linejoin="round" stroke-opacity="1.0" stroke-width="3.0" />
            <path d=" M 578.775, 734.210 580.136, 734.582 584.860, 736.941 590.760, 738.998 597.295, 738.629 601.013, 736.579 601.443, 735.949 602.097, 733.643 601.928, 730.711 601.927, 730.686 601.904, 730.289 601.887, 729.998 " fill="none" stroke="rgb(0, 0, 0)" stroke-linecap="butt" stroke-linejoin="round" stroke-opacity="1.0" stroke-width="3.0" />
            <path d=" M 543.307, 486.198 541.234, 486.099 540.821, 486.079 535.849, 486.477 530.965, 488.354 527.039, 490.027 523.462, 492.972 519.888, 494.044 515.698, 497.176 " fill="none" stroke="rgb(0, 0, 0)" stroke-linecap="butt" stroke-linejoin="round" stroke-opacity="1.0" stroke-width="3.0" />
            <path d=" M 822.077, 664.468 822.133, 663.031 822.159, 662.387 822.179, 661.859 823.902, 652.552 827.628, 649.248 829.482, 647.604 835.359, 646.980 835.416, 646.974 838.202, 648.226 839.658, 649.867 " fill="none" stroke="rgb(0, 0, 0)" stroke-linecap="butt" stroke-linejoin="round" stroke-opacity="1.0" stroke-width="3.0" />
            <path d=" M 872.029, 1113.280 878.747, 1108.162 884.832, 1103.894 884.934, 1103.806 891.622, 1098.060 893.424, 1096.006 895.532, 1093.603 " fill="none" stroke="rgb(0, 0, 0)" stroke-linecap="butt" stroke-linejoin="round" stroke-opacity="1.0" stroke-width="3.0" />
            <path d=" M 778.804, 888.513 778.806, 888.590 778.852, 890.522 778.857, 890.721 778.870, 891.272 778.871, 891.327 778.879, 891.651 778.881, 891.749 778.889, 892.070 778.924, 893.553 778.876, 893.729 778.477, 895.199 778.436, 895.350 778.160, 896.363 777.927, 897.011 777.824, 897.296 777.805, 897.348 777.558, 898.034 777.261, 898.860 776.043, 902.241 774.017, 905.342 773.933, 905.471 773.696, 905.833 771.305, 909.494 770.060, 912.785 770.184, 914.287 770.800, 916.715 771.208, 917.266 " fill="none" stroke="rgb(0, 0, 0)" stroke-linecap="butt" stroke-linejoin="round" stroke-opacity="1.0" stroke-width="3.0" />
            <path d=" M 548.453, 776.445 548.846, 776.145 551.656, 773.942 553.170, 772.077 554.808, 768.352 555.666, 766.023 556.190, 764.978 555.956, 764.107 555.600, 762.789 555.598, 762.787 555.596, 762.785 554.380, 761.806 550.673, 758.819 545.575, 756.507 542.718, 755.212 " fill="none" stroke="rgb(0, 0, 0)" stroke-linecap="butt" stroke-linejoin="round" stroke-opacity="1.0" stroke-width="3.0" />
            <path d=" M 755.385, 888.301 752.711, 891.287 745.037, 887.648 742.458, 887.369 739.593, 887.060 739.264, 887.024 738.740, 886.968 737.549, 886.839 736.446, 886.720 736.443, 886.720 736.037, 886.676 734.320, 886.490 732.572, 888.512 731.880, 889.312 731.133, 890.125 730.924, 890.353 730.923, 890.354 730.046, 891.307 729.671, 891.715 729.565, 891.831 729.483, 891.920 729.009, 892.435 728.803, 892.659 " fill="none" stroke="rgb(0, 0, 0)" stroke-linecap="butt" stroke-linejoin="round" stroke-opacity="1.0" stroke-width="3.0" />
            <path d=" M 512.053, 792.337 511.805, 791.646 510.454, 787.884 510.462, 787.289 510.489, 785.426 508.964, 783.189 508.687, 782.782 508.566, 782.605 508.249, 782.139 508.079, 781.890 507.310, 781.153 507.113, 780.964 506.951, 780.809 503.031, 777.054 502.915, 776.943 502.846, 776.388 502.273, 771.768 500.720, 769.530 500.009, 768.504 499.650, 767.986 497.870, 765.420 " fill="none" stroke="rgb(0, 0, 0)" stroke-linecap="butt" stroke-linejoin="round" stroke-opacity="1.0" stroke-width="3.0" />
            <path d=" M 921.874, 458.523 921.605, 458.436 920.958, 458.225 920.186, 457.974 918.306, 457.362 917.580, 457.126 917.134, 456.983 914.962, 456.289 914.809, 456.240 914.503, 456.142 913.776, 455.909 913.643, 455.886 911.566, 455.527 911.445, 455.506 911.437, 455.505 911.373, 455.494 911.318, 455.484 908.911, 455.068 907.782, 454.873 904.919, 453.643 904.667, 453.535 904.593, 453.503 904.502, 453.464 903.099, 452.861 902.117, 452.439 901.624, 452.152 900.682, 451.602 900.324, 451.394 900.159, 451.298 899.717, 451.040 896.907, 450.728 896.857, 450.737 896.531, 450.794 895.852, 450.914 895.125, 451.042 894.863, 451.089 894.075, 451.228 893.851, 451.267 893.817, 451.273 893.781, 451.279 893.023, 451.413 892.558, 451.495 892.062, 451.583 891.982, 451.597 891.907, 451.610 891.906, 451.610 891.905, 451.610 891.834, 451.623 891.695, 451.647 " fill="none" stroke="rgb(0, 0, 0)" stroke-linecap="butt" stroke-linejoin="round" stroke-opacity="1.0" stroke-width="3.0" />
            <path d=" M 519.431, 759.087 524.248, 758.083 525.918, 757.369 526.055, 755.358 524.917, 751.208 521.424, 741.837 520.649, 739.759 521.781, 737.731 522.793, 737.307 525.542, 736.155 " fill="none" stroke="rgb(0, 0, 0)" stroke-linecap="butt" stroke-linejoin="round" stroke-opacity="1.0" stroke-width="3.0" />
            <path d=" M 431.108, 1022.068 435.720, 1023.787 437.971, 1024.626 444.090, 1025.244 449.128, 1025.645 452.905, 1024.004 454.090, 1019.949 453.168, 1015.643 453.059, 1015.133 " fill="none" stroke="rgb(0, 0, 0)" stroke-linecap="butt" stroke-linejoin="round" stroke-opacity="1.0" stroke-width="3.0" />
            <path d=" M 544.220, 710.608 544.577, 707.686 548.649, 705.674 551.308, 702.307 552.600, 696.476 551.887, 691.240 551.679, 689.714 551.320, 686.531 550.899, 685.988 550.530, 685.512 548.732, 683.191 " fill="none" stroke="rgb(0, 0, 0)" stroke-linecap="butt" stroke-linejoin="round" stroke-opacity="1.0" stroke-width="3.0" />
            <path d=" M 873.165, 610.050 872.868, 611.072 872.131, 615.671 868.903, 619.725 866.770, 622.979 864.742, 628.144 860.042, 631.967 857.601, 637.308 " fill="none" stroke="rgb(0, 0, 0)" stroke-linecap="butt" stroke-linejoin="round" stroke-opacity="1.0" stroke-width="3.0" />
            <path d=" M 901.682, 807.874 900.004, 807.198 899.352, 806.935 899.270, 806.902 897.022, 805.996 896.970, 805.980 891.477, 804.307 886.172, 801.784 878.578, 795.277 876.942, 793.875 874.607, 791.099 " fill="none" stroke="rgb(0, 0, 0)" stroke-linecap="butt" stroke-linejoin="round" stroke-opacity="1.0" stroke-width="3.0" />
            <path d=" M 573.244, 485.316 567.134, 485.042 562.906, 485.400 559.473, 486.548 554.453, 487.179 553.059, 486.594 545.535, 485.081 541.234, 486.099 " fill="none" stroke="rgb(0, 0, 0)" stroke-linecap="butt" stroke-linejoin="round" stroke-opacity="1.0" stroke-width="3.0" />
            <path d=" M 778.995, 1184.151 779.021, 1183.481 779.059, 1183.843 779.063, 1183.889 779.081, 1184.062 779.213, 1185.347 779.292, 1186.121 780.269, 1186.462 781.387, 1186.837 782.825, 1187.318 783.314, 1187.187 785.817, 1186.517 786.617, 1186.302 790.566, 1185.244 795.042, 1184.045 796.624, 1183.366 804.903, 1177.758 806.053, 1176.979 " fill="none" stroke="rgb(0, 0, 0)" stroke-linecap="butt" stroke-linejoin="round" stroke-opacity="1.0" stroke-width="3.0" />
            <path d=" M 764.054, 758.531 758.458, 759.084 756.961, 758.913 755.200, 758.712 753.875, 758.561 753.708, 758.576 752.388, 758.698 751.544, 758.776 750.698, 758.853 744.782, 764.036 742.892, 766.138 742.852, 766.972 743.836, 770.776 746.181, 774.302 " fill="none" stroke="rgb(0, 0, 0)" stroke-linecap="butt" stroke-linejoin="round" stroke-opacity="1.0" stroke-width="3.0" />
            <path d=" M 810.430, 866.919 812.621, 866.552 815.502, 866.069 824.709, 866.058 825.445, 866.057 825.574, 866.057 826.064, 866.191 826.864, 866.411 827.055, 866.463 827.918, 866.699 830.380, 867.374 837.365, 870.951 840.679, 874.035 841.931, 875.200 " fill="none" stroke="rgb(0, 0, 0)" stroke-linecap="butt" stroke-linejoin="round" stroke-opacity="1.0" stroke-width="3.0" />
            <path d=" M 529.393, 800.699 532.180, 796.650 533.833, 794.248 533.872, 793.987 533.943, 793.516 533.953, 793.454 534.222, 791.672 534.037, 790.663 533.419, 789.930 532.317, 789.281 531.431, 788.761 530.612, 788.279 524.497, 786.121 521.855, 784.885 519.373, 783.725 515.345, 781.338 514.916, 781.084 514.756, 780.989 513.701, 780.363 " fill="none" stroke="rgb(0, 0, 0)" stroke-linecap="butt" stroke-linejoin="round" stroke-opacity="1.0" stroke-width="3.0" />
            <path d=" M 867.488, 1131.219 871.100, 1128.492 876.075, 1123.357 880.723, 1123.494 884.317, 1120.527 885.417, 1119.613 888.717, 1112.847 889.774, 1108.418 " fill="none" stroke="rgb(0, 0, 0)" stroke-linecap="butt" stroke-linejoin="round" stroke-opacity="1.0" stroke-width="3.0" />
            <path d=" M 605.489, 726.443 605.539, 726.442 613.531, 726.678 617.441, 726.943 621.272, 727.666 629.359, 729.107 637.882, 731.892 639.347, 732.371 " fill="none" stroke="rgb(0, 0, 0)" stroke-linecap="butt" stroke-linejoin="round" stroke-opacity="1.0" stroke-width="3.0" />
            <path d=" M 782.070, 635.219 779.529, 634.767 779.430, 634.749 779.260, 634.848 778.695, 635.176 776.845, 636.250 774.278, 639.221 774.129, 640.186 774.625, 640.943 775.548, 642.256 775.662, 643.650 775.848, 645.924 775.828, 648.066 775.781, 653.175 775.760, 655.439 775.758, 655.675 775.144, 657.656 774.868, 658.549 774.568, 659.519 774.565, 660.070 774.565, 660.091 774.562, 660.752 774.551, 663.516 774.551, 663.586 774.549, 664.005 " fill="none" stroke="rgb(0, 0, 0)" stroke-linecap="butt" stroke-linejoin="round" stroke-opacity="1.0" stroke-width="3.0" />
            <path d=" M 931.001, 626.700 931.987, 621.145 930.474, 614.553 925.859, 605.682 925.639, 605.257 922.626, 602.229 921.454, 598.687 920.389, 595.027 920.071, 594.650 " fill="none" stroke="rgb(0, 0, 0)" stroke-linecap="butt" stroke-linejoin="round" stroke-opacity="1.0" stroke-width="3.0" />
            <path d=" M 601.928, 730.711 605.745, 727.681 605.489, 726.443 604.696, 722.613 602.570, 718.961 599.354, 716.494 594.067, 715.662 586.482, 716.129 582.163, 716.853 " fill="none" stroke="rgb(0, 0, 0)" stroke-linecap="butt" stroke-linejoin="round" stroke-opacity="1.0" stroke-width="3.0" />
            <path d=" M 850.790, 413.720 849.225, 412.941 846.640, 412.326 840.843, 411.498 837.177, 412.430 829.685, 415.742 828.379, 416.326 826.901, 417.530 824.073, 420.008 822.723, 422.288 820.598, 425.741 " fill="none" stroke="rgb(0, 0, 0)" stroke-linecap="butt" stroke-linejoin="round" stroke-opacity="1.0" stroke-width="3.0" />
            <path d=" M 426.943, 944.876 427.728, 941.274 428.815, 932.945 429.340, 928.871 431.550, 920.028 434.388, 911.578 435.133, 909.358 " fill="none" stroke="rgb(0, 0, 0)" stroke-linecap="butt" stroke-linejoin="round" stroke-opacity="1.0" stroke-width="3.0" />
            <path d=" M 874.690, 791.240 874.607, 791.099 872.136, 786.915 869.920, 779.859 869.528, 773.709 867.920, 765.783 868.353, 762.728 867.767, 758.848 867.933, 755.488 " fill="none" stroke="rgb(0, 0, 0)" stroke-linecap="butt" stroke-linejoin="round" stroke-opacity="1.0" stroke-width="3.0" />
            <path d=" M 722.358, 865.207 723.450, 869.678 721.503, 871.517 721.239, 871.767 720.958, 872.062 718.979, 874.145 716.294, 877.801 715.759, 881.351 718.012, 886.685 722.137, 887.988 725.341, 888.641 729.106, 891.498 729.211, 891.575 729.312, 891.648 " fill="none" stroke="rgb(0, 0, 0)" stroke-linecap="butt" stroke-linejoin="round" stroke-opacity="1.0" stroke-width="3.0" />
            <path d=" M 501.748, 764.376 510.394, 769.400 511.358, 769.960 513.129, 770.457 513.497, 770.561 513.699, 770.618 514.385, 770.810 515.038, 770.789 515.069, 770.788 518.493, 770.677 518.572, 770.507 520.003, 767.436 519.812, 766.554 519.631, 765.721 519.560, 765.390 519.554, 765.366 519.531, 765.258 518.895, 762.320 519.431, 759.087 519.471, 758.844 519.532, 758.477 519.800, 758.265 522.795, 755.893 522.851, 755.832 523.485, 753.785 523.558, 753.550 " fill="none" stroke="rgb(0, 0, 0)" stroke-linecap="butt" stroke-linejoin="round" stroke-opacity="1.0" stroke-width="3.0" />
            <path d=" M 483.935, 892.272 487.836, 892.257 494.093, 891.378 495.146, 889.349 495.056, 888.035 491.225, 884.318 486.147, 880.814 482.150, 875.905 479.073, 870.607 " fill="none" stroke="rgb(0, 0, 0)" stroke-linecap="butt" stroke-linejoin="round" stroke-opacity="1.0" stroke-width="3.0" />
            <path d=" M 765.713, 754.670 765.502, 755.025 764.893, 756.119 764.161, 757.434 764.054, 758.531 764.041, 758.659 763.855, 760.550 763.843, 760.678 763.402, 765.170 763.360, 765.594 763.345, 765.750 763.326, 765.937 763.262, 766.592 763.252, 766.690 763.226, 766.961 763.187, 767.360 763.247, 769.334 763.272, 770.151 763.391, 774.063 762.608, 777.417 761.988, 780.239 761.965, 780.342 761.291, 783.411 761.238, 783.653 760.046, 789.160 760.794, 791.937 " fill="none" stroke="rgb(0, 0, 0)" stroke-linecap="butt" stroke-linejoin="round" stroke-opacity="1.0" stroke-width="3.0" />
            <path d=" M 572.460, 657.939 573.937, 658.566 576.736, 661.639 578.694, 663.669 582.202, 666.096 586.397, 665.328 588.819, 664.885 593.503, 664.654 595.433, 663.604 595.444, 663.598 595.519, 663.557 597.242, 662.619 597.606, 661.426 598.014, 659.039 597.748, 655.956 598.827, 653.955 599.013, 653.609 599.166, 653.325 " fill="none" stroke="rgb(0, 0, 0)" stroke-linecap="butt" stroke-linejoin="round" stroke-opacity="1.0" stroke-width="3.0" />
            <path d=" M 827.757, 1167.900 832.488, 1161.607 836.247, 1155.754 841.500, 1151.772 849.247, 1145.449 851.393, 1143.699 854.608, 1141.075 " fill="none" stroke="rgb(0, 0, 0)" stroke-linecap="butt" stroke-linejoin="round" stroke-opacity="1.0" stroke-width="3.0" />
            <path d=" M 743.380, 644.837 747.703, 647.658 749.132, 649.166 751.449, 651.611 751.643, 651.815 752.037, 652.231 753.242, 653.502 753.542, 653.819 753.654, 653.937 753.897, 654.193 754.124, 654.477 756.404, 657.334 757.641, 658.885 758.737, 660.258 760.136, 660.271 760.648, 660.275 761.291, 660.246 761.889, 660.219 766.575, 660.007 769.634, 659.538 769.724, 659.524 769.838, 659.506 769.903, 659.497 770.723, 659.430 770.893, 659.416 770.928, 659.413 771.633, 659.355 772.962, 659.246 774.219, 660.428 774.224, 660.433 774.562, 660.752 " fill="none" stroke="rgb(0, 0, 0)" stroke-linecap="butt" stroke-linejoin="round" stroke-opacity="1.0" stroke-width="3.0" />
            <path d=" M 681.181, 636.136 674.674, 636.861 665.094, 633.995 663.746, 633.591 657.408, 628.965 652.002, 624.704 651.313, 623.976 651.272, 623.931 649.382, 621.933 648.028, 620.501 647.784, 620.243 " fill="none" stroke="rgb(0, 0, 0)" stroke-linecap="butt" stroke-linejoin="round" stroke-opacity="1.0" stroke-width="3.0" />
            <path d=" M 843.763, 1140.879 846.708, 1136.779 852.086, 1129.291 859.766, 1122.887 862.527, 1120.585 867.165, 1117.311 871.302, 1113.861 " fill="none" stroke="rgb(0, 0, 0)" stroke-linecap="butt" stroke-linejoin="round" stroke-opacity="1.0" stroke-width="3.0" />
            <path d=" M 782.133, 724.007 780.279, 725.323 780.034, 725.497 778.250, 726.763 776.862, 728.299 774.853, 730.522 772.956, 731.410 770.101, 730.258 769.913, 730.182 767.839, 729.345 767.157, 729.358 764.329, 729.410 760.217, 730.900 757.681, 731.820 757.549, 731.867 756.307, 732.318 754.805, 735.318 755.164, 737.418 756.623, 741.962 " fill="none" stroke="rgb(0, 0, 0)" stroke-linecap="butt" stroke-linejoin="round" stroke-opacity="1.0" stroke-width="3.0" />
            <path d=" M 867.173, 756.179 868.064, 754.758 869.708, 752.134 871.303, 747.121 872.863, 741.584 872.908, 741.471 872.924, 741.429 872.956, 741.349 874.737, 736.836 875.873, 732.215 876.026, 731.592 876.667, 729.640 878.734, 722.602 880.083, 718.338 " fill="none" stroke="rgb(0, 0, 0)" stroke-linecap="butt" stroke-linejoin="round" stroke-opacity="1.0" stroke-width="3.0" />
            <path d=" M 788.722, 718.054 787.841, 715.648 786.730, 712.948 784.323, 709.665 783.477, 708.799 779.725, 707.768 779.406, 707.680 779.108, 707.766 776.632, 708.483 776.559, 708.537 774.320, 710.194 773.742, 711.400 772.599, 713.784 772.729, 718.246 772.767, 719.571 772.780, 720.000 774.001, 724.628 774.341, 725.168 776.862, 728.299 " fill="none" stroke="rgb(0, 0, 0)" stroke-linecap="butt" stroke-linejoin="round" stroke-opacity="1.0" stroke-width="3.0" />
            <path d=" M 773.833, 1081.909 774.344, 1082.896 771.033, 1085.407 768.804, 1087.097 761.055, 1093.418 759.523, 1094.667 754.534, 1097.948 745.846, 1102.900 741.645, 1105.294 " fill="none" stroke="rgb(0, 0, 0)" stroke-linecap="butt" stroke-linejoin="round" stroke-opacity="1.0" stroke-width="3.0" />
            <path d=" M 778.814, 1182.575 778.768, 1182.642 778.723, 1182.705 777.418, 1184.577 775.967, 1186.657 775.718, 1187.339 774.763, 1189.941 774.596, 1190.399 774.465, 1190.756 774.277, 1191.267 773.757, 1194.245 774.498, 1196.055 776.322, 1196.946 778.277, 1197.138 778.387, 1197.148 778.408, 1197.151 784.408, 1197.738 791.101, 1195.946 794.222, 1193.461 794.779, 1193.017 796.176, 1191.905 796.896, 1191.332 798.579, 1189.991 " fill="none" stroke="rgb(0, 0, 0)" stroke-linecap="butt" stroke-linejoin="round" stroke-opacity="1.0" stroke-width="3.0" />
            <path d=" M 397.014, 1037.369 398.203, 1040.562 399.703, 1041.635 401.241, 1042.469 405.434, 1041.073 408.517, 1038.777 410.161, 1031.020 410.815, 1027.724 411.631, 1021.130 410.109, 1014.936 408.865, 1013.314 " fill="none" stroke="rgb(0, 0, 0)" stroke-linecap="butt" stroke-linejoin="round" stroke-opacity="1.0" stroke-width="3.0" />
            <path d=" M 735.152, 864.547 735.147, 864.970 735.110, 868.045 735.722, 870.617 740.563, 873.635 741.273, 874.077 741.888, 874.460 746.307, 877.215 746.810, 877.616 747.746, 878.361 748.220, 878.739 748.814, 879.212 752.279, 881.089 755.279, 884.373 755.697, 884.576 757.581, 884.514 757.997, 884.500 762.490, 884.353 767.857, 882.472 " fill="none" stroke="rgb(0, 0, 0)" stroke-linecap="butt" stroke-linejoin="round" stroke-opacity="1.0" stroke-width="3.0" />
            <path d=" M 706.095, 740.330 700.535, 738.666 696.705, 737.764 691.240, 736.512 686.084, 734.948 681.796, 733.736 677.883, 732.390 674.939, 731.505 669.374, 729.676 664.938, 727.462 " fill="none" stroke="rgb(0, 0, 0)" stroke-linecap="butt" stroke-linejoin="round" stroke-opacity="1.0" stroke-width="3.0" />
            <path d=" M 760.805, 792.056 760.718, 792.135 759.813, 792.958 759.339, 793.390 757.778, 793.797 752.808, 795.094 751.606, 795.408 751.378, 795.468 751.025, 795.582 750.813, 795.651 750.447, 795.769 750.446, 795.769 750.364, 795.796 750.355, 795.799 750.013, 795.910 749.929, 795.937 746.291, 797.114 744.384, 798.615 743.406, 803.982 742.333, 807.146 738.437, 809.592 740.782, 813.112 742.565, 815.447 743.948, 817.258 744.187, 819.950 " fill="none" stroke="rgb(0, 0, 0)" stroke-linecap="butt" stroke-linejoin="round" stroke-opacity="1.0" stroke-width="3.0" />
            <path d=" M 939.099, 468.441 942.731, 470.210 942.934, 470.309 947.421, 472.494 944.902, 471.033 942.082, 468.797 938.642, 467.451 937.533, 467.018 934.297, 464.834 932.615, 463.534 932.085, 463.124 930.649, 462.320 929.284, 461.461 925.180, 459.906 921.874, 458.523 921.597, 458.431 920.924, 458.206 920.195, 457.962 918.068, 457.251 916.831, 456.838 " fill="none" stroke="rgb(0, 0, 0)" stroke-linecap="butt" stroke-linejoin="round" stroke-opacity="1.0" stroke-width="3.0" />
            <path d=" M 914.356, 455.571 913.514, 452.318 912.808, 449.831 910.094, 444.374 908.602, 439.723 908.223, 435.568 907.660, 434.403 906.538, 433.474 904.551, 432.329 899.635, 429.447 897.478, 427.679 895.069, 425.321 893.304, 423.863 891.192, 422.774 889.886, 422.954 " fill="none" stroke="rgb(0, 0, 0)" stroke-linecap="butt" stroke-linejoin="round" stroke-opacity="1.0" stroke-width="3.0" />
            <path d=" M 746.810, 877.616 746.383, 879.852 745.070, 883.870 747.144, 885.906 755.385, 888.301 755.578, 888.357 755.811, 888.425 756.345, 888.580 761.191, 889.988 762.967, 890.166 772.846, 888.617 773.342, 888.540 773.532, 888.541 774.833, 888.548 775.154, 888.894 776.600, 890.452 776.968, 890.849 777.607, 891.538 777.611, 891.542 777.672, 891.608 777.685, 891.631 777.708, 891.671 777.718, 891.688 778.008, 892.200 778.876, 893.729 " fill="none" stroke="rgb(0, 0, 0)" stroke-linecap="butt" stroke-linejoin="round" stroke-opacity="1.0" stroke-width="3.0" />
            <path d=" M 823.093, 1174.487 823.431, 1173.974 823.549, 1173.794 823.822, 1173.380 828.110, 1166.881 828.249, 1166.680 828.797, 1165.885 832.818, 1160.056 838.272, 1151.674 838.492, 1151.336 843.299, 1142.568 843.778, 1141.694 846.708, 1136.779 " fill="none" stroke="rgb(0, 0, 0)" stroke-linecap="butt" stroke-linejoin="round" stroke-opacity="1.0" stroke-width="3.0" />
            <path d=" M 510.197, 499.946 507.232, 502.224 503.678, 506.066 499.041, 510.444 497.156, 514.244 493.967, 518.292 492.490, 522.142 490.708, 526.488 490.187, 531.473 489.830, 537.118 489.709, 538.303 " fill="none" stroke="rgb(0, 0, 0)" stroke-linecap="butt" stroke-linejoin="round" stroke-opacity="1.0" stroke-width="3.0" />
            <path d=" M 409.936, 983.399 411.770, 983.130 412.648, 983.001 422.202, 985.230 431.078, 984.705 432.320, 985.188 433.406, 984.930 441.124, 983.096 450.702, 980.222 451.213, 980.068 456.040, 978.613 456.988, 978.219 " fill="none" stroke="rgb(0, 0, 0)" stroke-linecap="butt" stroke-linejoin="round" stroke-opacity="1.0" stroke-width="3.0" />
            <path d=" M 920.079, 572.553 920.151, 572.287 920.173, 570.301 920.748, 568.996 921.070, 565.418 921.072, 564.428 920.209, 560.857 919.941, 558.162 919.453, 553.771 919.086, 549.003 918.352, 545.534 916.684, 535.674 916.448, 534.276 915.488, 530.914 912.749, 525.289 912.408, 524.589 " fill="none" stroke="rgb(0, 0, 0)" stroke-linecap="butt" stroke-linejoin="round" stroke-opacity="1.0" stroke-width="3.0" />
            <path d=" M 709.425, 600.979 710.723, 602.458 712.213, 605.563 713.157, 607.532 717.278, 615.446 721.322, 622.312 724.854, 626.528 727.301, 629.212 731.321, 632.959 732.383, 633.949 734.260, 635.590 734.907, 636.099 735.230, 636.354 735.382, 636.474 735.451, 636.527 735.658, 636.691 735.936, 636.910 739.134, 639.428 739.855, 639.996 " fill="none" stroke="rgb(0, 0, 0)" stroke-linecap="butt" stroke-linejoin="round" stroke-opacity="1.0" stroke-width="3.0" />
            <path d=" M 790.918, 434.546 787.341, 433.896 783.031, 431.843 781.230, 431.121 774.635, 430.228 769.095, 430.192 759.859, 430.718 757.257, 431.548 755.534, 433.541 755.342, 433.822 751.873, 439.509 751.257, 442.033 751.329, 443.353 753.184, 444.521 " fill="none" stroke="rgb(0, 0, 0)" stroke-linecap="butt" stroke-linejoin="round" stroke-opacity="1.0" stroke-width="3.0" />
            <path d=" M 803.848, 1079.505 805.622, 1084.260 806.283, 1086.031 806.445, 1086.464 807.822, 1090.154 808.057, 1090.783 808.101, 1091.951 808.324, 1097.927 806.809, 1107.812 806.609, 1109.112 803.921, 1117.869 800.091, 1126.833 799.542, 1128.134 " fill="none" stroke="rgb(0, 0, 0)" stroke-linecap="butt" stroke-linejoin="round" stroke-opacity="1.0" stroke-width="3.0" />
            <path d=" M 479.802, 832.610 483.119, 832.493 487.176, 832.350 488.843, 832.289 492.519, 832.154 497.716, 830.313 498.930, 829.324 498.985, 827.255 495.707, 824.514 490.339, 821.710 490.270, 821.674 489.537, 821.151 489.052, 820.805 485.883, 818.545 481.906, 814.298 479.224, 810.774 477.056, 807.925 " fill="none" stroke="rgb(0, 0, 0)" stroke-linecap="butt" stroke-linejoin="round" stroke-opacity="1.0" stroke-width="3.0" />
            <path d=" M 456.367, 978.423 456.988, 978.219 466.014, 975.243 473.287, 971.760 473.686, 968.429 468.380, 965.974 460.749, 964.461 451.511, 962.685 443.997, 959.377 443.952, 959.358 " fill="none" stroke="rgb(0, 0, 0)" stroke-linecap="butt" stroke-linejoin="round" stroke-opacity="1.0" stroke-width="3.0" />
            <path d=" M 598.132, 640.530 595.169, 635.458 596.388, 633.780 598.744, 632.418 602.986, 626.838 608.292, 622.420 615.444, 620.067 623.838, 618.597 627.272, 617.789 632.119, 617.869 636.308, 616.884 " fill="none" stroke="rgb(0, 0, 0)" stroke-linecap="butt" stroke-linejoin="round" stroke-opacity="1.0" stroke-width="3.0" />
            <path d=" M 793.475, 1130.743 786.628, 1131.262 781.836, 1131.626 778.166, 1132.309 773.904, 1136.317 773.642, 1139.317 774.234, 1140.663 775.740, 1143.705 781.340, 1147.844 783.142, 1148.806 787.695, 1149.650 792.203, 1150.485 792.982, 1150.370 797.508, 1149.698 797.566, 1149.690 797.832, 1149.650 798.477, 1149.554 " fill="none" stroke="rgb(0, 0, 0)" stroke-linecap="butt" stroke-linejoin="round" stroke-opacity="1.0" stroke-width="3.0" />
            <path d=" M 736.430, 706.250 735.346, 704.708 731.733, 700.198 727.233, 695.360 723.093, 691.666 718.989, 687.567 717.506, 685.657 715.408, 683.945 711.071, 679.903 710.370, 679.047 710.043, 678.648 710.037, 678.641 707.998, 676.153 705.535, 670.920 705.018, 666.263 704.974, 665.871 704.664, 663.075 " fill="none" stroke="rgb(0, 0, 0)" stroke-linecap="butt" stroke-linejoin="round" stroke-opacity="1.0" stroke-width="3.0" />
            <path d=" M 987.053, 532.984 986.606, 531.865 986.447, 531.469 986.279, 531.048 986.256, 530.991 986.248, 530.971 986.210, 530.877 985.995, 530.339 985.919, 530.149 985.411, 528.882 985.377, 528.796 983.551, 524.234 982.757, 521.117 982.231, 519.053 980.536, 513.593 978.234, 509.687 977.393, 507.901 974.854, 502.975 972.116, 499.241 970.925, 497.214 968.060, 492.624 966.095, 489.843 960.663, 484.240 " fill="none" stroke="rgb(0, 0, 0)" stroke-linecap="butt" stroke-linejoin="round" stroke-opacity="1.0" stroke-width="3.0" />
            <path d=" M 820.598, 428.473 820.262, 428.508 817.091, 428.832 815.760, 428.831 808.847, 428.825 807.862, 428.973 798.386, 432.168 797.865, 432.343 791.367, 434.357 790.918, 434.546 790.001, 434.933 788.781, 435.601 785.270, 437.522 783.878, 438.889 781.271, 441.451 778.353, 444.319 777.476, 445.180 777.337, 445.317 776.974, 445.674 776.829, 445.816 776.034, 446.597 775.154, 447.046 770.251, 449.549 " fill="none" stroke="rgb(0, 0, 0)" stroke-linecap="butt" stroke-linejoin="round" stroke-opacity="1.0" stroke-width="3.0" />
            <path d=" M 446.999, 875.453 449.339, 875.150 453.169, 874.654 459.324, 874.801 468.143, 873.017 473.190, 872.458 479.073, 870.607 481.216, 869.933 482.848, 869.357 484.334, 867.184 483.176, 864.609 476.990, 861.831 471.125, 857.586 470.795, 857.347 " fill="none" stroke="rgb(0, 0, 0)" stroke-linecap="butt" stroke-linejoin="round" stroke-opacity="1.0" stroke-width="3.0" />
            <path d=" M 717.911, 937.755 717.604, 937.971 714.609, 940.086 711.949, 942.159 710.680, 944.558 710.009, 948.721 709.813, 950.163 717.471, 954.632 720.860, 957.069 728.115, 962.124 729.881, 965.162 733.935, 966.398 737.194, 965.486 740.637, 964.423 741.582, 964.473 745.078, 964.656 " fill="none" stroke="rgb(0, 0, 0)" stroke-linecap="butt" stroke-linejoin="round" stroke-opacity="1.0" stroke-width="3.0" />
            <path d=" M 444.489, 919.782 446.762, 920.157 450.550, 922.605 456.670, 924.814 463.048, 926.080 471.030, 927.744 475.121, 926.583 477.072, 925.798 476.189, 924.119 473.716, 920.664 471.839, 919.572 471.041, 915.472 468.562, 909.062 467.416, 906.749 465.746, 903.095 " fill="none" stroke="rgb(0, 0, 0)" stroke-linecap="butt" stroke-linejoin="round" stroke-opacity="1.0" stroke-width="3.0" />
            <path d=" M 660.501, 577.158 650.505, 577.443 644.336, 577.619 634.336, 577.630 632.250, 577.632 622.255, 577.336 621.346, 577.309 615.301, 578.021 610.244, 578.133 600.383, 576.469 599.499, 576.320 " fill="none" stroke="rgb(0, 0, 0)" stroke-linecap="butt" stroke-linejoin="round" stroke-opacity="1.0" stroke-width="3.0" />
            <path d=" M 787.003, 1151.921 782.125, 1154.805 772.828, 1158.490 771.352, 1159.075 767.343, 1160.700 761.670, 1162.044 757.965, 1163.292 757.582, 1164.375 756.964, 1168.727 759.089, 1171.607 763.413, 1173.429 767.766, 1175.905 777.392, 1177.319 780.638, 1176.263 " fill="none" stroke="rgb(0, 0, 0)" stroke-linecap="butt" stroke-linejoin="round" stroke-opacity="1.0" stroke-width="3.0" />
            <path d=" M 761.515, 684.652 760.399, 684.721 754.469, 685.084 750.644, 685.155 748.168, 685.576 746.226, 687.268 746.186, 687.998 746.161, 688.445 748.391, 691.133 749.813, 693.759 749.515, 696.896 750.285, 698.804 752.131, 701.173 753.069, 705.107 753.920, 706.305 753.945, 710.480 754.555, 711.841 755.384, 715.750 755.495, 718.695 755.815, 720.640 756.419, 724.305 757.549, 731.867 " fill="none" stroke="rgb(0, 0, 0)" stroke-linecap="butt" stroke-linejoin="round" stroke-opacity="1.0" stroke-width="3.0" />
            <path d=" M 430.319, 949.818 433.095, 940.979 434.876, 937.616 435.873, 937.150 438.174, 937.537 443.935, 941.777 448.735, 943.494 453.523, 944.144 455.448, 943.037 455.759, 939.887 456.175, 939.263 457.610, 937.766 457.282, 936.915 455.677, 933.459 453.273, 930.450 448.989, 925.541 445.568, 922.459 444.381, 920.357 " fill="none" stroke="rgb(0, 0, 0)" stroke-linecap="butt" stroke-linejoin="round" stroke-opacity="1.0" stroke-width="3.0" />
            <path d=" M 551.887, 691.240 555.202, 693.643 557.188, 694.210 560.137, 694.150 561.719, 692.372 562.646, 691.197 561.742, 682.485 562.811, 679.417 564.677, 677.659 569.023, 677.026 572.010, 674.801 574.399, 671.019 576.485, 667.535 576.971, 665.369 575.316, 662.268 573.340, 658.885 572.460, 657.939 572.391, 657.865 569.712, 654.985 569.525, 654.865 569.348, 654.751 568.796, 654.397 567.586, 653.619 566.626, 653.002 564.974, 651.940 " fill="none" stroke="rgb(0, 0, 0)" stroke-linecap="butt" stroke-linejoin="round" stroke-opacity="1.0" stroke-width="3.0" />
            <path d=" M 790.351, 991.519 788.580, 991.525 782.410, 991.543 773.507, 996.096 771.621, 997.060 767.293, 998.886 767.068, 998.981 767.026, 998.998 765.696, 999.560 763.375, 1001.831 762.660, 1003.016 762.325, 1003.570 762.626, 1004.453 764.121, 1008.829 769.230, 1011.196 774.984, 1013.198 781.458, 1012.456 788.357, 1011.666 790.859, 1011.379 " fill="none" stroke="rgb(0, 0, 0)" stroke-linecap="butt" stroke-linejoin="round" stroke-opacity="1.0" stroke-width="3.0" />
            <path d=" M 738.816, 978.916 733.740, 979.695 729.335, 980.372 725.044, 981.197 720.551, 982.238 720.002, 983.430 719.458, 985.429 723.201, 987.743 730.158, 991.284 739.110, 995.741 740.104, 996.236 749.407, 997.121 755.084, 995.835 757.310, 995.330 759.947, 996.098 " fill="none" stroke="rgb(0, 0, 0)" stroke-linecap="butt" stroke-linejoin="round" stroke-opacity="1.0" stroke-width="3.0" />
            <path d=" M 637.882, 731.892 644.222, 735.274 650.413, 738.203 659.098, 742.228 665.093, 745.368 668.090, 746.476 672.147, 748.440 674.780, 749.519 678.504, 750.917 684.063, 752.092 687.861, 753.113 692.685, 754.422 695.644, 754.661 695.909, 754.629 698.962, 754.258 " fill="none" stroke="rgb(0, 0, 0)" stroke-linecap="butt" stroke-linejoin="round" stroke-opacity="1.0" stroke-width="3.0" />
            <path d=" M 748.893, 1007.414 745.325, 1009.462 742.294, 1011.202 732.733, 1014.390 729.291, 1017.036 728.468, 1020.356 729.877, 1022.257 734.066, 1024.567 740.546, 1027.542 747.662, 1031.417 755.669, 1032.800 756.811, 1032.863 763.864, 1031.996 765.143, 1032.295 766.458, 1032.604 766.508, 1032.615 " fill="none" stroke="rgb(0, 0, 0)" stroke-linecap="butt" stroke-linejoin="round" stroke-opacity="1.0" stroke-width="3.0" />
            <path d=" M 769.463, 949.422 768.331, 950.131 761.776, 954.240 753.181, 957.775 752.954, 958.011 752.669, 958.308 751.286, 960.367 751.209, 961.200 751.369, 962.579 751.980, 964.206 753.155, 964.753 754.232, 965.254 754.341, 965.305 754.385, 965.325 754.645, 965.446 754.645, 965.446 755.066, 965.642 759.387, 967.653 767.815, 972.242 773.679, 974.348 779.436, 975.238 785.328, 975.719 790.146, 977.883 790.840, 978.195 " fill="none" stroke="rgb(0, 0, 0)" stroke-linecap="butt" stroke-linejoin="round" stroke-opacity="1.0" stroke-width="3.0" />
            <path d=" M 393.000, 999.167 394.360, 1001.770 394.399, 1001.845 395.153, 1003.288 395.058, 1004.163 395.016, 1004.555 395.009, 1004.615 394.537, 1008.968 395.028, 1011.061 395.318, 1012.296 395.339, 1012.388 395.343, 1012.405 395.437, 1012.803 395.532, 1013.210 395.929, 1014.898 396.425, 1017.015 396.495, 1017.312 396.645, 1017.950 397.451, 1018.938 398.154, 1019.800 398.502, 1019.693 399.527, 1019.381 399.754, 1019.311 399.859, 1019.280 400.881, 1018.968 401.223, 1018.863 404.562, 1017.639 406.420, 1016.095 408.626, 1013.622 408.817, 1013.407 408.865, 1013.314 409.177, 1012.705 410.151, 1010.806 410.199, 1010.451 410.282, 1009.838 410.892, 1005.339 412.584, 998.313 409.106, 990.015 409.072, 989.932 409.101, 989.760 410.092, 983.942 411.770, 983.130 " fill="none" stroke="rgb(0, 0, 0)" stroke-linecap="butt" stroke-linejoin="round" stroke-opacity="1.0" stroke-width="3.0" />
            <path d=" M 470.093, 854.258 472.356, 853.944 474.875, 854.994 482.085, 859.176 485.335, 860.166 491.617, 859.479 499.180, 859.656 505.355, 858.633 509.617, 858.632 510.878, 857.755 512.135, 856.706 512.658, 852.940 508.374, 848.394 503.266, 841.734 503.140, 841.571 500.831, 835.776 " fill="none" stroke="rgb(0, 0, 0)" stroke-linecap="butt" stroke-linejoin="round" stroke-opacity="1.0" stroke-width="3.0" />
            <path d=" M 847.697, 649.771 847.301, 650.053 841.975, 653.842 841.169, 655.794 839.549, 660.013 837.135, 664.512 835.994, 669.806 835.332, 671.110 832.580, 676.527 829.724, 681.110 829.088, 683.307 828.571, 685.096 828.010, 687.036 827.639, 688.316 826.735, 689.464 826.573, 689.669 823.165, 693.996 822.733, 694.378 820.527, 696.327 820.194, 697.358 819.434, 699.713 818.183, 701.344 817.701, 701.974 817.584, 702.126 814.560, 703.527 814.448, 703.603 812.493, 704.944 812.188, 706.124 811.691, 708.042 811.356, 709.334 " fill="none" stroke="rgb(0, 0, 0)" stroke-linecap="butt" stroke-linejoin="round" stroke-opacity="1.0" stroke-width="3.0" />
            <path d=" M 760.716, 791.042 760.794, 791.937 760.795, 791.949 760.805, 792.056 760.815, 792.177 760.817, 792.198 760.819, 792.212 760.876, 792.868 761.842, 800.782 762.160, 803.367 763.326, 805.718 765.099, 809.289 764.794, 811.766 764.110, 817.315 764.110, 817.318 764.038, 817.907 763.977, 818.400 763.708, 821.978 763.627, 823.054 763.055, 830.073 763.654, 831.815 764.881, 835.386 765.270, 836.397 765.931, 838.119 766.056, 838.721 766.078, 838.827 766.142, 839.134 767.207, 844.250 767.340, 844.889 769.696, 852.549 769.756, 852.745 769.731, 853.520 769.727, 853.647 769.722, 853.788 769.577, 858.297 769.573, 858.724 769.573, 858.752 769.544, 861.817 " fill="none" stroke="rgb(0, 0, 0)" stroke-linecap="butt" stroke-linejoin="round" stroke-opacity="1.0" stroke-width="3.0" />
            <path d=" M 479.224, 810.774 476.645, 804.101 473.379, 802.378 470.202, 799.792 469.253, 799.020 469.051, 798.855 468.426, 796.268 472.793, 796.515 474.846, 796.631 475.222, 796.652 482.443, 799.920 486.373, 800.096 491.012, 797.977 495.957, 796.865 502.796, 796.543 503.671, 796.494 503.807, 796.486 509.213, 796.179 510.836, 795.406 511.857, 794.004 513.329, 791.964 511.669, 788.571 510.462, 787.289 " fill="none" stroke="rgb(0, 0, 0)" stroke-linecap="butt" stroke-linejoin="round" stroke-opacity="1.0" stroke-width="3.0" />
            <path d=" M 879.270, 719.983 880.068, 718.367 880.083, 718.338 882.323, 713.807 884.506, 708.358 886.360, 704.307 887.932, 699.789 888.530, 697.444 890.669, 693.247 892.439, 688.244 895.666, 681.981 898.326, 676.257 900.674, 670.427 904.966, 662.814 908.660, 658.297 909.974, 656.267 911.095, 654.534 " fill="none" stroke="rgb(0, 0, 0)" stroke-linecap="butt" stroke-linejoin="round" stroke-opacity="1.0" stroke-width="3.0" />
            <path d=" M 850.836, 535.566 851.278, 542.471 855.543, 548.219 856.774, 551.312 857.390, 552.859 857.531, 553.563 858.667, 559.249 859.733, 565.790 860.000, 570.320 860.289, 574.738 863.927, 582.530 865.801, 587.310 864.594, 594.144 866.323, 600.294 867.397, 604.247 867.403, 604.269 867.416, 604.318 867.770, 605.621 867.869, 605.983 867.971, 606.360 " fill="none" stroke="rgb(0, 0, 0)" stroke-linecap="butt" stroke-linejoin="round" stroke-opacity="1.0" stroke-width="3.0" />
            <path d=" M 1007.590, 612.779 1008.134, 610.365 1008.193, 608.971 1007.854, 604.805 1008.308, 601.123 1008.455, 598.293 1007.611, 594.603 1008.042, 588.408 1007.901, 583.255 1007.874, 581.108 1007.872, 580.947 1007.665, 578.302 1007.606, 575.594 1007.554, 573.225 1007.520, 567.775 1007.416, 565.089 1007.431, 564.732 1006.652, 560.072 1006.446, 555.460 1006.250, 551.392 1003.792, 544.796 1003.138, 541.498 1002.508, 541.015 1001.892, 540.542 1001.717, 540.408 1000.868, 539.757 1000.169, 539.221 " fill="none" stroke="rgb(0, 0, 0)" stroke-linecap="butt" stroke-linejoin="round" stroke-opacity="1.0" stroke-width="3.0" />
            <path d=" M 912.749, 525.289 912.533, 523.961 911.689, 518.010 908.903, 511.112 907.800, 509.098 907.019, 507.672 903.299, 500.877 900.123, 495.191 900.090, 495.129 900.018, 494.992 896.593, 488.506 893.485, 483.890 892.377, 482.732 887.794, 476.790 887.696, 476.662 884.895, 473.607 884.332, 472.993 883.536, 472.125 880.706, 469.192 878.031, 466.419 873.823, 462.738 871.505, 460.727 869.983, 459.407 " fill="none" stroke="rgb(0, 0, 0)" stroke-linecap="butt" stroke-linejoin="round" stroke-opacity="1.0" stroke-width="3.0" />
            <path d=" M 959.720, 865.481 960.010, 864.720 963.241, 855.257 963.529, 854.413 967.310, 845.156 968.646, 841.887 972.103, 832.503 974.655, 825.575 975.579, 822.828 977.479, 813.010 977.607, 812.346 978.470, 802.384 978.977, 796.525 980.309, 786.614 980.395, 785.969 980.574, 782.352 " fill="none" stroke="rgb(0, 0, 0)" stroke-linecap="butt" stroke-linejoin="round" stroke-opacity="1.0" stroke-width="3.0" />
            <path d=" M 842.218, 456.493 841.717, 456.529 840.858, 456.592 840.411, 456.625 840.395, 456.626 840.327, 456.631 839.968, 456.657 839.938, 456.659 838.982, 456.729 833.372, 457.139 828.667, 457.800 827.560, 457.956 824.272, 459.063 824.249, 459.071 817.795, 461.245 816.898, 461.547 807.546, 465.088 806.309, 465.556 806.196, 465.599 806.101, 465.635 806.080, 465.643 805.986, 465.679 803.996, 466.432 801.317, 467.446 800.813, 467.767 800.795, 467.778 797.505, 469.871 796.599, 470.448 795.239, 471.313 793.702, 472.291 792.617, 472.981 790.158, 475.274 789.022, 476.798 788.966, 476.874 788.826, 477.061 787.298, 479.111 785.841, 483.058 785.772, 483.150 784.765, 484.492 784.763, 484.495 783.731, 485.872 783.198, 486.356 776.722, 492.240 774.667, 495.414 773.091, 501.260 " fill="none" stroke="rgb(0, 0, 0)" stroke-linecap="butt" stroke-linejoin="round" stroke-opacity="1.0" stroke-width="3.0" />
            <path d=" M 364.934, 929.055 363.600, 938.672 363.178, 947.660 363.774, 949.216 363.914, 956.162 364.483, 962.712 364.172, 971.780 364.553, 977.799 364.669, 983.022 367.418, 991.189 369.737, 999.424 370.860, 1001.936 372.595, 1005.241 375.415, 1010.184 378.599, 1012.617 379.251, 1012.645 " fill="none" stroke="rgb(0, 0, 0)" stroke-linecap="butt" stroke-linejoin="round" stroke-opacity="1.0" stroke-width="3.0" />
            <path d=" M 660.468, 462.596 664.906, 460.147 668.402, 459.582 674.942, 458.713 679.600, 456.228 682.163, 453.323 686.161, 451.838 686.677, 450.532 683.907, 448.553 681.314, 444.140 678.007, 440.329 672.251, 438.114 663.382, 436.369 659.096, 437.292 654.081, 438.563 645.490, 441.083 639.385, 444.023 635.273, 447.432 " fill="none" stroke="rgb(0, 0, 0)" stroke-linecap="butt" stroke-linejoin="round" stroke-opacity="1.0" stroke-width="3.0" />
            <path d=" M 710.370, 679.047 713.290, 674.889 714.237, 669.729 714.239, 668.637 713.973, 663.111 712.111, 655.208 710.192, 647.665 709.082, 640.524 708.148, 632.675 707.962, 631.489 707.097, 628.439 705.703, 626.251 703.087, 624.357 699.099, 623.607 695.147, 624.617 693.231, 625.740 687.999, 628.753 687.187, 630.478 685.487, 632.801 682.446, 635.885 681.181, 636.136 674.635, 637.436 " fill="none" stroke="rgb(0, 0, 0)" stroke-linecap="butt" stroke-linejoin="round" stroke-opacity="1.0" stroke-width="3.0" />
            <path d=" M 773.319, 500.864 773.091, 501.260 770.103, 506.450 769.995, 508.153 769.873, 510.055 770.862, 513.641 770.781, 516.184 774.592, 520.449 776.700, 520.891 782.270, 522.059 786.411, 522.894 790.390, 523.690 793.016, 525.782 794.665, 530.660 794.959, 531.547 796.161, 535.169 798.215, 542.436 798.218, 542.458 798.261, 542.763 798.334, 543.277 799.259, 549.828 799.693, 553.333 799.960, 556.349 800.020, 557.032 800.470, 562.105 802.949, 569.229 805.402, 572.255 806.040, 573.019 806.426, 573.482 806.471, 573.536 806.741, 573.858 806.840, 573.977 807.666, 574.968 808.156, 575.407 809.034, 576.196 810.495, 577.508 810.569, 577.575 811.042, 577.999 811.509, 578.419 811.594, 578.496 811.620, 578.518 812.219, 579.057 812.643, 579.437 " fill="none" stroke="rgb(0, 0, 0)" stroke-linecap="butt" stroke-linejoin="round" stroke-opacity="1.0" stroke-width="3.0" />
            <path d=" M 720.907, 510.161 721.477, 509.247 722.133, 508.195 723.524, 505.532 725.678, 500.322 729.546, 492.351 734.636, 483.743 735.277, 482.660 736.197, 480.784 738.940, 474.540 740.094, 468.110 740.036, 465.692 738.346, 462.987 737.848, 462.543 737.847, 462.542 737.581, 462.305 733.763, 458.906 727.961, 456.192 723.774, 455.079 720.676, 455.034 715.575, 454.409 711.719, 455.675 707.088, 456.901 704.565, 458.586 698.477, 461.434 693.647, 463.557 684.846, 468.305 684.499, 468.492 683.497, 469.033 " fill="none" stroke="rgb(0, 0, 0)" stroke-linecap="butt" stroke-linejoin="round" stroke-opacity="1.0" stroke-width="3.0" />
            <path d=" M 738.653, 1106.639 731.409, 1109.563 725.609, 1111.819 721.045, 1112.944 715.700, 1114.821 710.365, 1116.812 702.181, 1117.281 698.263, 1120.296 698.405, 1122.430 702.594, 1124.784 712.213, 1127.223 722.083, 1128.827 726.049, 1129.471 735.123, 1130.893 745.102, 1131.541 745.781, 1131.585 755.777, 1131.293 759.556, 1131.182 767.168, 1128.900 771.137, 1128.066 780.801, 1125.498 783.728, 1124.720 784.591, 1124.490 " fill="none" stroke="rgb(0, 0, 0)" stroke-linecap="butt" stroke-linejoin="round" stroke-opacity="1.0" stroke-width="3.0" />
            <path d=" M 863.034, 621.510 862.893, 621.698 861.617, 623.394 859.907, 628.501 854.784, 637.089 853.650, 638.990 847.410, 646.804 847.280, 646.967 840.764, 654.553 839.907, 655.550 833.260, 662.865 826.819, 670.309 822.515, 674.267 821.148, 675.587 821.135, 675.600 820.927, 675.801 820.528, 676.186 820.117, 676.583 819.925, 676.768 818.779, 677.875 818.709, 677.943 818.393, 678.248 814.383, 681.878 813.655, 682.537 811.444, 684.016 810.998, 684.315 810.801, 684.447 809.816, 685.105 809.712, 685.175 809.671, 685.203 809.638, 685.225 809.598, 685.251 809.438, 685.359 809.137, 685.560 808.670, 685.872 808.451, 686.018 808.369, 686.074 808.055, 686.284 807.667, 686.544 806.420, 687.349 806.200, 687.491 804.309, 688.713 801.377, 691.767 800.931, 692.232 800.510, 692.670 800.046, 693.273 798.233, 696.845 798.037, 697.612 798.024, 697.663 797.988, 697.804 797.982, 697.826 797.973, 697.860 797.953, 697.940 797.916, 698.084 797.865, 698.285 796.871, 702.163 794.949, 707.379 793.908, 708.232 791.211, 710.440 788.817, 717.679 788.722, 718.054 787.974, 721.013 787.034, 724.969 787.007, 725.085 787.527, 729.743 787.686, 731.176 787.694, 731.242 787.698, 731.283 787.774, 731.962 787.884, 732.944 787.961, 733.636 788.016, 734.135 788.044, 734.383 " fill="none" stroke="rgb(0, 0, 0)" stroke-linecap="butt" stroke-linejoin="round" stroke-opacity="1.0" stroke-width="3.0" />
            <path d=" M 981.032, 780.506 981.565, 779.645 986.279, 772.037 990.134, 766.372 991.952, 762.743 993.039, 759.794 995.437, 752.062 998.114, 743.859 1000.897, 735.189 1004.658, 725.913 1006.347, 720.148 1008.612, 710.408 1008.723, 709.931 1008.632, 703.565 1007.645, 697.710 1006.333, 690.950 1003.646, 683.299 1001.559, 679.451 1000.577, 677.797 999.171, 675.428 996.801, 670.811 994.259, 666.663 994.103, 666.453 993.629, 665.817 993.237, 665.290 993.151, 665.174 992.837, 664.753 990.573, 661.709 990.555, 661.685 986.409, 658.846 982.518, 659.008 980.912, 661.801 979.571, 662.890 978.882, 663.450 978.730, 663.574 978.684, 663.611 978.526, 663.739 978.099, 664.086 " fill="none" stroke="rgb(0, 0, 0)" stroke-linecap="butt" stroke-linejoin="round" stroke-opacity="1.0" stroke-width="3.0" />
            <path d=" M 766.844, 1049.906 760.793, 1052.158 758.610, 1052.970 749.166, 1056.258 748.980, 1056.323 745.641, 1056.931 745.577, 1056.943 745.238, 1057.004 744.451, 1057.148 735.483, 1059.198 725.507, 1059.886 720.957, 1060.201 719.669, 1061.068 716.110, 1064.660 717.132, 1067.248 718.297, 1069.038 725.124, 1072.176 734.719, 1074.993 739.679, 1076.450 749.394, 1079.075 756.673, 1080.808 765.780, 1081.442 771.063, 1081.816 772.643, 1081.928 773.833, 1081.909 774.412, 1081.900 783.744, 1081.751 790.717, 1080.993 800.534, 1079.087 800.895, 1079.017 803.848, 1079.505 804.992, 1079.694 805.010, 1079.697 805.255, 1079.737 " fill="none" stroke="rgb(0, 0, 0)" stroke-linecap="butt" stroke-linejoin="round" stroke-opacity="1.0" stroke-width="3.0" />
            <path d=" M 893.424, 1096.006 894.494, 1096.354 894.692, 1096.418 894.797, 1096.453 897.452, 1097.317 901.292, 1096.063 903.684, 1093.409 905.057, 1087.877 906.551, 1081.996 907.732, 1079.119 908.545, 1076.427 909.281, 1072.387 909.625, 1067.897 911.102, 1062.824 911.417, 1059.566 912.369, 1049.611 913.322, 1039.657 913.342, 1039.441 914.053, 1032.110 915.111, 1023.544 916.289, 1013.614 916.446, 1012.294 917.460, 1002.345 918.474, 992.397 919.178, 985.491 920.118, 975.535 920.213, 974.530 922.153, 964.720 922.315, 963.901 923.773, 955.591 " fill="none" stroke="rgb(0, 0, 0)" stroke-linecap="butt" stroke-linejoin="round" stroke-opacity="1.0" stroke-width="3.0" />
            <path d=" M 916.290, 991.784 917.722, 981.887 918.468, 976.733 920.805, 967.908 922.974, 958.978 923.773, 955.591 924.612, 952.034 925.949, 946.366 926.610, 944.413 929.813, 934.940 930.238, 933.684 933.650, 924.285 933.989, 923.352 937.801, 914.107 939.451, 910.104 943.880, 901.138 944.418, 900.050 948.201, 893.202 951.664, 886.714 954.494, 879.905 956.408, 874.799 957.820, 871.008 959.720, 865.481 960.916, 862.000 963.681, 853.080 967.323, 843.855 967.792, 842.665 " fill="none" stroke="rgb(0, 0, 0)" stroke-linecap="butt" stroke-linejoin="round" stroke-opacity="1.0" stroke-width="3.0" />
            <path d=" M 616.654, 617.763 619.484, 618.101 628.194, 617.395 636.308, 616.884 644.697, 617.632 644.891, 617.649 644.916, 617.652 645.064, 617.665 646.406, 617.785 646.570, 617.799 647.667, 617.897 655.710, 616.692 656.566, 616.564 657.159, 616.475 664.451, 614.412 667.623, 613.330 675.072, 611.591 680.448, 609.468 686.379, 608.292 691.960, 606.382 697.414, 604.795 701.818, 603.520 707.159, 601.799 709.015, 601.127 709.425, 600.979 709.539, 600.937 711.857, 600.098 716.215, 599.301 716.811, 599.072 717.315, 598.878 720.768, 597.552 725.821, 596.829 732.851, 595.099 741.627, 592.513 749.083, 591.012 753.655, 588.876 761.186, 587.305 764.649, 585.904 769.471, 583.751 770.219, 583.408 772.332, 581.849 774.231, 580.446 774.304, 580.388 777.855, 577.564 781.569, 573.723 783.198, 571.137 783.997, 569.869 784.255, 569.459 784.334, 569.334 784.651, 568.830 784.928, 568.486 785.078, 568.299 787.186, 565.675 787.211, 565.643 788.559, 563.964 789.761, 562.286 791.439, 556.661 791.464, 556.579 791.670, 555.888 793.345, 548.885 794.470, 544.179 794.500, 544.056 794.501, 544.050 794.751, 543.004 793.648, 540.928 793.598, 540.835 792.350, 538.486 789.247, 537.652 789.138, 537.623 787.821, 537.269 781.471, 538.742 777.870, 538.284 776.993, 538.172 774.246, 537.685 774.216, 537.680 772.795, 537.429 772.583, 537.365 771.361, 536.994 768.900, 536.249 764.449, 535.376 763.922, 535.273 763.677, 535.222 763.671, 535.221 763.667, 535.220 763.397, 535.165 761.701, 534.816 755.331, 533.506 747.775, 532.923 738.205, 530.022 736.806, 529.597 733.695, 528.261 726.969, 523.672 723.531, 519.389 722.927, 518.636 " fill="none" stroke="rgb(0, 0, 0)" stroke-linecap="butt" stroke-linejoin="round" stroke-opacity="1.0" stroke-width="3.0" />
            <path d=" M 479.698, 579.871 477.939, 582.100 477.823, 582.247 474.679, 587.736 470.464, 596.804 470.232, 597.302 467.362, 603.561 463.270, 612.685 460.579, 618.684 456.182, 627.666 452.716, 634.743 451.184, 637.820 449.254, 642.548 445.692, 650.885 442.789, 655.963 440.313, 661.079 437.228, 667.866 433.220, 677.028 433.151, 677.187 430.192, 683.647 427.160, 690.142 424.461, 696.658 421.956, 701.813 418.960, 709.460 414.929, 718.611 413.811, 721.147 410.378, 730.539 409.351, 733.350 405.724, 742.349 402.314, 751.750 402.220, 752.008 398.369, 761.237 398.182, 761.685 394.770, 771.085 391.572, 779.899 387.982, 789.232 385.029, 796.909 381.930, 802.516 380.356, 806.837 378.366, 812.861 376.329, 819.174 375.248, 825.889 372.927, 832.734 371.665, 838.698 370.845, 842.419 369.351, 847.452 367.654, 850.605 367.390, 853.153 366.322, 863.096 366.073, 865.422 365.922, 875.421 365.921, 875.528 365.778, 877.206 365.490, 880.611 365.347, 882.501 364.984, 887.313 364.512, 897.302 364.054, 906.982 364.293, 915.164 364.770, 925.152 364.915, 928.173 364.934, 929.055 365.086, 935.980 365.342, 945.946 365.748, 955.937 365.946, 960.794 366.611, 965.917 366.836, 975.792 367.046, 978.898 367.386, 981.854 367.608, 983.779 369.421, 987.791 371.453, 997.029 373.038, 1000.208 373.819, 1001.775 378.289, 1010.720 379.104, 1012.350 379.251, 1012.645 379.271, 1012.684 382.751, 1020.393 383.283, 1028.803 384.592, 1034.583 386.755, 1038.451 390.238, 1039.366 392.872, 1037.010 393.940, 1036.234 396.027, 1034.718 396.931, 1034.060 396.931, 1034.060 397.204, 1030.358 397.431, 1027.267 397.578, 1025.716 397.580, 1025.695 397.622, 1025.258 397.477, 1024.703 " fill="none" stroke="rgb(0, 0, 0)" stroke-linecap="butt" stroke-linejoin="round" stroke-opacity="1.0" stroke-width="3.0" />
        </g>
    </g>
</svg>
