<?xml version='1.0' encoding='ascii'?>
<svg xmlns="http://www.w3.org/2000/svg" height="1280" version="1.1" width="1280">
    <g id="RenderLayer_LineSet" inkscape:groupmode="lineset" inkscape:label="RenderLayer_LineSet" xmlns:inkscape="http://www.inkscape.org/namespaces/inkscape">
        <g id="strokes" inkscape:groupmode="layer" inkscape:label="strokes" xmlns:inkscape="http://www.inkscape.org/namespaces/inkscape">
            <path d=" M 523.357, 784.222 525.585, 785.352 530.152, 785.675 535.943, 781.974 534.510, 782.879 530.414, 784.420 " fill="none" stroke="rgb(0, 0, 0)" stroke-linecap="butt" stroke-linejoin="round" stroke-opacity="1.0" stroke-width="3.0" />
            <path d=" M 558.004, 648.136 559.562, 649.435 563.165, 650.907 565.548, 651.009 568.830, 647.837 568.478, 644.055 568.166, 640.701 " fill="none" stroke="rgb(0, 0, 0)" stroke-linecap="butt" stroke-linejoin="round" stroke-opacity="1.0" stroke-width="3.0" />
            <path d=" M 365.888, 787.746 363.730, 794.510 364.940, 801.171 366.249, 802.224 367.856, 803.516 370.864, 804.871 " fill="none" stroke="rgb(0, 0, 0)" stroke-linecap="butt" stroke-linejoin="round" stroke-opacity="1.0" stroke-width="3.0" />
            <path d=" M 823.455, 863.400 823.495, 863.526 825.673, 870.393 829.577, 877.499 830.872, 883.092 " fill="none" stroke="rgb(0, 0, 0)" stroke-linecap="butt" stroke-linejoin="round" stroke-opacity="1.0" stroke-width="3.0" />
            <path d=" M 348.873, 791.301 349.329, 792.549 349.682, 793.513 349.761, 793.729 349.831, 793.921 350.702, 796.297 351.789, 799.263 352.065, 800.016 352.639, 800.873 352.679, 800.933 355.258, 804.786 358.125, 807.105 360.483, 807.943 " fill="none" stroke="rgb(0, 0, 0)" stroke-linecap="butt" stroke-linejoin="round" stroke-opacity="1.0" stroke-width="3.0" />
            <path d=" M 734.279, 835.370 733.671, 836.476 733.469, 836.845 731.472, 840.481 729.335, 844.754 729.285, 844.943 728.406, 848.283 726.291, 852.298 726.228, 852.392 725.005, 854.221 724.977, 854.263 724.879, 854.410 " fill="none" stroke="rgb(0, 0, 0)" stroke-linecap="butt" stroke-linejoin="round" stroke-opacity="1.0" stroke-width="3.0" />
            <path d=" M 767.202, 785.645 767.140, 786.422 767.039, 787.680 767.032, 787.768 766.918, 789.203 767.043, 789.391 769.102, 792.486 769.702, 793.389 769.784, 793.993 769.824, 794.294 770.472, 799.124 769.661, 803.330 769.068, 806.410 769.049, 806.504 " fill="none" stroke="rgb(0, 0, 0)" stroke-linecap="butt" stroke-linejoin="round" stroke-opacity="1.0" stroke-width="3.0" />
            <path d=" M 761.800, 542.960 761.379, 543.152 756.366, 545.973 753.934, 547.341 750.924, 549.034 749.581, 549.789 749.474, 549.849 748.125, 550.609 744.422, 552.692 742.588, 554.433 " fill="none" stroke="rgb(0, 0, 0)" stroke-linecap="butt" stroke-linejoin="round" stroke-opacity="1.0" stroke-width="3.0" />
            <path d=" M 780.570, 528.234 779.112, 528.283 777.174, 528.902 773.731, 530.184 771.722, 531.771 767.744, 536.454 765.743, 539.685 764.265, 542.070 " fill="none" stroke="rgb(0, 0, 0)" stroke-linecap="butt" stroke-linejoin="round" stroke-opacity="1.0" stroke-width="3.0" />
            <path d=" M 949.211, 832.876 951.522, 830.630 951.953, 830.211 952.582, 829.600 953.211, 828.989 953.846, 828.235 955.204, 826.623 957.206, 824.293 958.020, 823.236 958.942, 822.038 959.147, 821.772 959.200, 821.703 961.985, 817.441 962.001, 817.417 962.963, 815.944 963.380, 815.305 " fill="none" stroke="rgb(0, 0, 0)" stroke-linecap="butt" stroke-linejoin="round" stroke-opacity="1.0" stroke-width="3.0" />
            <path d=" M 799.085, 966.287 798.455, 966.390 797.261, 966.727 796.021, 968.409 793.457, 971.824 793.124, 973.676 792.000, 979.924 790.828, 983.092 790.810, 983.140 790.796, 983.263 790.743, 983.713 790.708, 984.011 790.637, 984.617 790.631, 984.662 790.515, 985.652 790.485, 985.904 " fill="none" stroke="rgb(0, 0, 0)" stroke-linecap="butt" stroke-linejoin="round" stroke-opacity="1.0" stroke-width="3.0" />
            <path d=" M 937.793, 897.591 940.882, 893.792 941.178, 891.246 941.291, 890.168 940.879, 888.542 940.817, 888.297 939.402, 882.719 939.081, 881.452 939.038, 881.282 937.901, 876.798 937.791, 876.366 " fill="none" stroke="rgb(0, 0, 0)" stroke-linecap="butt" stroke-linejoin="round" stroke-opacity="1.0" stroke-width="3.0" />
            <path d=" M 754.039, 687.348 754.028, 687.358 753.334, 687.962 752.488, 688.697 750.891, 690.086 749.014, 691.719 747.852, 692.729 746.765, 695.886 747.165, 697.234 747.876, 698.446 749.319, 700.907 749.354, 700.966 749.389, 701.025 750.050, 702.153 753.454, 704.624 " fill="none" stroke="rgb(0, 0, 0)" stroke-linecap="butt" stroke-linejoin="round" stroke-opacity="1.0" stroke-width="3.0" />
            <path d=" M 395.678, 796.248 398.003, 791.342 401.165, 786.976 402.487, 782.998 404.651, 779.625 405.410, 775.746 " fill="none" stroke="rgb(0, 0, 0)" stroke-linecap="butt" stroke-linejoin="round" stroke-opacity="1.0" stroke-width="3.0" />
            <path d=" M 973.692, 634.000 973.563, 633.668 973.554, 633.644 972.900, 631.958 972.783, 631.658 972.666, 631.355 972.462, 630.828 972.412, 630.699 972.393, 630.652 971.730, 628.942 971.563, 628.511 970.987, 627.026 970.567, 626.081 970.436, 625.786 968.549, 621.541 966.221, 617.303 964.013, 613.126 " fill="none" stroke="rgb(0, 0, 0)" stroke-linecap="butt" stroke-linejoin="round" stroke-opacity="1.0" stroke-width="3.0" />
            <path d=" M 776.355, 697.723 775.765, 697.825 771.180, 698.615 769.091, 698.492 768.300, 698.445 767.546, 698.401 767.334, 698.388 766.862, 698.361 766.860, 698.360 766.817, 698.358 765.879, 698.303 764.039, 698.194 763.210, 698.146 763.112, 698.140 762.367, 698.096 760.929, 698.490 760.578, 698.586 759.950, 698.758 758.674, 699.107 758.566, 699.175 758.002, 699.529 757.958, 699.589 757.689, 699.955 756.984, 700.912 756.570, 701.474 756.081, 702.138 756.075, 702.151 755.833, 702.650 755.534, 703.267 " fill="none" stroke="rgb(0, 0, 0)" stroke-linecap="butt" stroke-linejoin="round" stroke-opacity="1.0" stroke-width="3.0" />
            <path d=" M 835.012, 499.852 830.480, 501.502 830.006, 501.843 829.783, 502.002 829.782, 502.003 829.756, 502.022 828.809, 502.701 828.450, 504.012 828.447, 504.022 828.178, 505.004 828.001, 505.648 827.983, 505.714 827.968, 505.771 827.751, 507.271 827.673, 507.806 827.922, 508.334 828.111, 508.735 828.835, 510.273 830.918, 510.909 837.270, 512.265 " fill="none" stroke="rgb(0, 0, 0)" stroke-linecap="butt" stroke-linejoin="round" stroke-opacity="1.0" stroke-width="3.0" />
            <path d=" M 941.871, 578.811 937.075, 574.745 936.923, 574.616 936.493, 574.251 935.131, 572.729 933.318, 570.703 940.575, 577.582 941.871, 578.811 " fill="none" stroke="rgb(0, 0, 0)" stroke-linecap="butt" stroke-linejoin="round" stroke-opacity="1.0" stroke-width="3.0" />
            <path d=" M 420.422, 811.032 420.552, 811.129 427.475, 816.282 435.068, 818.097 437.312, 818.634 439.462, 818.289 439.796, 817.081 440.134, 815.855 " fill="none" stroke="rgb(0, 0, 0)" stroke-linecap="butt" stroke-linejoin="round" stroke-opacity="1.0" stroke-width="3.0" />
            <path d=" M 793.115, 733.043 792.390, 735.928 791.542, 736.979 791.466, 737.073 791.385, 737.174 790.188, 738.658 790.117, 738.745 788.961, 739.549 788.943, 739.562 788.684, 739.741 788.527, 739.850 787.722, 740.438 787.659, 740.484 787.571, 740.547 787.074, 740.910 786.743, 741.151 786.607, 741.250 786.571, 741.277 786.466, 741.353 786.451, 741.364 786.443, 741.370 786.398, 741.403 786.288, 741.483 786.277, 741.491 786.271, 741.495 785.518, 742.044 785.446, 742.111 784.642, 742.868 784.615, 742.894 784.575, 742.931 783.950, 743.518 783.614, 743.676 783.606, 743.680 783.335, 743.807 783.285, 743.830 783.253, 743.845 783.238, 743.852 782.901, 744.010 782.456, 744.219 782.454, 744.220 782.446, 744.223 782.118, 744.536 781.731, 744.905 781.677, 744.957 781.508, 745.118 781.500, 745.662 781.487, 746.639 781.484, 746.814 781.479, 747.214 781.477, 747.332 781.469, 747.870 781.465, 748.188 781.440, 749.922 781.440, 749.981 781.437, 750.162 781.434, 750.402 781.430, 750.655 781.428, 750.828 781.422, 751.223 781.422, 751.233 781.419, 751.454 " fill="none" stroke="rgb(0, 0, 0)" stroke-linecap="butt" stroke-linejoin="round" stroke-opacity="1.0" stroke-width="3.0" />
            <path d=" M 749.955, 681.176 747.540, 680.968 743.793, 681.912 741.598, 682.465 735.843, 683.012 734.220, 683.534 728.315, 687.404 727.740, 687.781 " fill="none" stroke="rgb(0, 0, 0)" stroke-linecap="butt" stroke-linejoin="round" stroke-opacity="1.0" stroke-width="3.0" />
            <path d=" M 492.578, 681.438 496.691, 681.661 506.657, 680.837 506.912, 680.816 508.223, 680.758 508.300, 680.754 508.339, 680.753 514.204, 680.491 515.631, 679.500 516.109, 679.168 " fill="none" stroke="rgb(0, 0, 0)" stroke-linecap="butt" stroke-linejoin="round" stroke-opacity="1.0" stroke-width="3.0" />
            <path d=" M 922.467, 572.177 923.909, 576.507 923.436, 579.179 922.968, 575.674 922.642, 573.399 922.467, 572.177 922.372, 571.514 922.089, 571.045 922.051, 570.981 918.878, 565.706 917.206, 564.131 " fill="none" stroke="rgb(0, 0, 0)" stroke-linecap="butt" stroke-linejoin="round" stroke-opacity="1.0" stroke-width="3.0" />
            <path d=" M 396.175, 779.263 398.619, 775.756 397.297, 771.806 396.408, 770.606 396.178, 770.295 396.113, 770.208 396.072, 770.153 391.840, 767.354 387.102, 766.194 383.416, 766.093 " fill="none" stroke="rgb(0, 0, 0)" stroke-linecap="butt" stroke-linejoin="round" stroke-opacity="1.0" stroke-width="3.0" />
            <path d=" M 642.344, 724.990 642.224, 724.958 637.463, 723.702 633.898, 724.185 631.024, 724.118 628.037, 722.890 624.713, 719.916 623.431, 718.245 622.129, 717.310 620.673, 716.766 " fill="none" stroke="rgb(0, 0, 0)" stroke-linecap="butt" stroke-linejoin="round" stroke-opacity="1.0" stroke-width="3.0" />
            <path d=" M 568.478, 644.055 568.886, 643.371 573.939, 643.217 578.146, 642.084 580.914, 638.626 583.053, 634.734 583.867, 633.253 583.527, 631.637 583.496, 631.490 583.071, 629.466 " fill="none" stroke="rgb(0, 0, 0)" stroke-linecap="butt" stroke-linejoin="round" stroke-opacity="1.0" stroke-width="3.0" />
            <path d=" M 716.000, 743.168 717.945, 746.060 718.916, 747.502 720.294, 749.551 721.266, 751.822 721.297, 751.894 721.841, 753.165 722.043, 754.760 722.271, 756.553 722.598, 757.871 726.864, 764.151 726.902, 764.207 727.341, 764.972 " fill="none" stroke="rgb(0, 0, 0)" stroke-linecap="butt" stroke-linejoin="round" stroke-opacity="1.0" stroke-width="3.0" />
            <path d=" M 535.943, 781.974 536.779, 778.899 536.914, 778.404 537.186, 777.404 537.526, 777.009 541.886, 771.935 542.756, 767.950 542.821, 767.652 543.336, 766.659 543.471, 766.398 543.496, 766.350 544.110, 765.165 544.475, 764.462 544.479, 762.661 543.424, 761.353 542.327, 759.994 " fill="none" stroke="rgb(0, 0, 0)" stroke-linecap="butt" stroke-linejoin="round" stroke-opacity="1.0" stroke-width="3.0" />
            <path d=" M 549.616, 683.246 546.546, 682.570 542.910, 682.089 539.578, 680.932 539.200, 680.722 536.471, 679.202 530.876, 676.787 527.613, 675.697 525.597, 675.382 " fill="none" stroke="rgb(0, 0, 0)" stroke-linecap="butt" stroke-linejoin="round" stroke-opacity="1.0" stroke-width="3.0" />
            <path d=" M 787.351, 649.587 786.091, 650.051 786.086, 650.052 784.541, 650.621 780.341, 652.165 776.823, 653.134 776.761, 653.152 776.048, 653.348 773.580, 654.028 772.311, 654.384 771.316, 654.663 771.170, 654.805 770.761, 655.203 770.172, 655.776 770.027, 656.697 769.519, 659.950 769.488, 660.145 769.499, 660.222 769.546, 660.550 769.844, 662.646 769.844, 662.651 769.855, 662.726 769.873, 662.852 " fill="none" stroke="rgb(0, 0, 0)" stroke-linecap="butt" stroke-linejoin="round" stroke-opacity="1.0" stroke-width="3.0" />
            <path d=" M 807.917, 796.735 807.868, 796.728 805.997, 796.435 805.888, 796.418 803.998, 796.122 803.876, 796.103 803.779, 796.088 803.463, 796.039 801.692, 795.762 801.618, 795.750 801.575, 795.744 800.199, 795.528 796.894, 795.012 793.398, 795.212 789.828, 796.099 789.227, 796.248 789.212, 796.252 789.145, 796.269 788.703, 796.378 788.237, 796.494 786.003, 797.049 782.947, 798.472 " fill="none" stroke="rgb(0, 0, 0)" stroke-linecap="butt" stroke-linejoin="round" stroke-opacity="1.0" stroke-width="3.0" />
            <path d=" M 557.495, 756.084 560.053, 758.495 561.715, 759.651 564.855, 757.031 566.589, 755.584 566.679, 755.333 568.093, 751.375 567.303, 748.504 567.282, 748.428 566.793, 747.681 566.328, 746.971 566.102, 746.650 565.540, 745.854 563.284, 743.607 " fill="none" stroke="rgb(0, 0, 0)" stroke-linecap="butt" stroke-linejoin="round" stroke-opacity="1.0" stroke-width="3.0" />
            <path d=" M 449.272, 736.948 452.786, 735.820 454.160, 734.173 454.754, 733.461 454.775, 733.437 455.575, 732.477 456.531, 730.566 456.184, 729.275 453.278, 726.827 451.363, 725.443 447.726, 723.314 446.558, 723.058 443.936, 722.484 " fill="none" stroke="rgb(0, 0, 0)" stroke-linecap="butt" stroke-linejoin="round" stroke-opacity="1.0" stroke-width="3.0" />
            <path d=" M 728.315, 687.404 725.118, 688.662 716.221, 693.227 714.149, 694.290 710.773, 696.891 705.638, 699.877 705.604, 699.907 " fill="none" stroke="rgb(0, 0, 0)" stroke-linecap="butt" stroke-linejoin="round" stroke-opacity="1.0" stroke-width="3.0" />
            <path d=" M 393.581, 791.572 398.697, 782.980 399.089, 782.323 400.725, 779.574 404.517, 776.475 405.334, 775.807 405.410, 775.746 409.387, 772.495 410.048, 771.750 " fill="none" stroke="rgb(0, 0, 0)" stroke-linecap="butt" stroke-linejoin="round" stroke-opacity="1.0" stroke-width="3.0" />
            <path d=" M 1004.134, 679.325 1004.903, 676.588 1005.361, 671.738 1004.538, 665.353 1002.914, 659.547 1000.773, 655.806 999.819, 654.140 " fill="none" stroke="rgb(0, 0, 0)" stroke-linecap="butt" stroke-linejoin="round" stroke-opacity="1.0" stroke-width="3.0" />
            <path d=" M 727.347, 850.674 727.146, 851.770 727.127, 851.873 726.922, 852.998 726.920, 853.006 726.645, 854.513 724.773, 857.088 722.917, 859.643 722.621, 859.896 720.407, 861.790 718.724, 863.422 718.408, 863.728 717.971, 864.152 715.143, 866.575 714.645, 868.548 715.966, 872.347 " fill="none" stroke="rgb(0, 0, 0)" stroke-linecap="butt" stroke-linejoin="round" stroke-opacity="1.0" stroke-width="3.0" />
            <path d=" M 750.904, 930.155 753.681, 931.777 756.846, 932.391 760.598, 933.373 769.233, 932.793 772.854, 932.302 774.245, 932.113 774.455, 932.214 776.811, 933.344 " fill="none" stroke="rgb(0, 0, 0)" stroke-linecap="butt" stroke-linejoin="round" stroke-opacity="1.0" stroke-width="3.0" />
            <path d=" M 679.205, 524.049 673.808, 522.460 668.450, 521.956 659.615, 522.949 654.443, 523.157 652.663, 523.448 " fill="none" stroke="rgb(0, 0, 0)" stroke-linecap="butt" stroke-linejoin="round" stroke-opacity="1.0" stroke-width="3.0" />
            <path d=" M 752.868, 575.280 761.903, 572.272 765.122, 571.288 769.603, 569.627 770.299, 569.226 773.998, 567.094 774.291, 566.879 777.183, 564.756 777.343, 564.638 " fill="none" stroke="rgb(0, 0, 0)" stroke-linecap="butt" stroke-linejoin="round" stroke-opacity="1.0" stroke-width="3.0" />
            <path d=" M 873.748, 913.111 879.161, 905.419 881.535, 903.327 882.331, 902.624 882.481, 902.492 882.851, 902.166 882.950, 902.109 883.157, 901.987 883.450, 901.816 884.930, 900.949 886.563, 899.993 887.066, 899.699 887.162, 899.643 887.508, 899.440 887.813, 899.262 888.703, 898.740 892.030, 896.793 893.921, 895.686 " fill="none" stroke="rgb(0, 0, 0)" stroke-linecap="butt" stroke-linejoin="round" stroke-opacity="1.0" stroke-width="3.0" />
            <path d=" M 794.880, 986.478 795.667, 986.595 803.958, 987.837 805.618, 987.732 806.248, 987.692 806.335, 987.687 806.402, 987.683 806.511, 987.676 807.299, 987.626 807.431, 987.618 807.490, 987.614 808.082, 987.577 810.403, 987.431 812.372, 987.306 816.666, 985.789 816.988, 985.675 821.438, 984.102 " fill="none" stroke="rgb(0, 0, 0)" stroke-linecap="butt" stroke-linejoin="round" stroke-opacity="1.0" stroke-width="3.0" />
            <path d=" M 948.227, 713.620 946.914, 713.178 946.808, 713.142 946.684, 713.100 943.531, 712.037 942.318, 711.673 937.825, 711.472 932.107, 711.056 926.652, 711.126 922.343, 710.795 921.409, 710.339 " fill="none" stroke="rgb(0, 0, 0)" stroke-linecap="butt" stroke-linejoin="round" stroke-opacity="1.0" stroke-width="3.0" />
            <path d=" M 790.881, 951.398 783.781, 954.702 783.202, 954.972 782.550, 955.275 778.011, 957.387 773.685, 960.922 770.609, 963.858 767.688, 965.495 " fill="none" stroke="rgb(0, 0, 0)" stroke-linecap="butt" stroke-linejoin="round" stroke-opacity="1.0" stroke-width="3.0" />
            <path d=" M 769.519, 659.950 769.250, 660.270 768.682, 660.946 765.222, 661.044 762.700, 661.115 762.666, 661.116 762.634, 661.117 761.915, 661.137 761.894, 661.138 761.662, 661.144 760.990, 661.163 760.579, 661.175 759.822, 661.196 759.812, 661.197 759.493, 661.206 759.236, 661.291 758.916, 661.397 757.430, 661.887 756.662, 662.141 752.968, 664.828 751.258, 666.071 751.193, 666.119 751.135, 666.161 748.788, 667.868 748.700, 669.458 749.508, 672.012 " fill="none" stroke="rgb(0, 0, 0)" stroke-linecap="butt" stroke-linejoin="round" stroke-opacity="1.0" stroke-width="3.0" />
            <path d=" M 985.710, 726.635 986.234, 725.045 986.260, 724.967 986.647, 723.793 986.755, 723.463 986.785, 723.373 987.068, 722.515 992.351, 714.567 995.595, 708.724 996.178, 706.064 997.094, 701.887 " fill="none" stroke="rgb(0, 0, 0)" stroke-linecap="butt" stroke-linejoin="round" stroke-opacity="1.0" stroke-width="3.0" />
            <path d=" M 718.112, 882.016 720.968, 879.796 724.071, 877.384 724.740, 876.864 724.012, 877.356 718.535, 881.054 717.721, 881.779 717.564, 881.919 715.565, 883.698 715.431, 883.970 714.343, 886.166 714.469, 886.815 716.069, 890.797 " fill="none" stroke="rgb(0, 0, 0)" stroke-linecap="butt" stroke-linejoin="round" stroke-opacity="1.0" stroke-width="3.0" />
            <path d=" M 536.578, 638.995 535.783, 636.984 533.721, 634.137 533.232, 633.463 529.106, 629.559 523.340, 628.494 522.760, 628.387 519.835, 629.039 519.492, 629.116 515.886, 630.142 514.234, 630.612 514.010, 630.675 513.950, 630.693 513.685, 630.768 " fill="none" stroke="rgb(0, 0, 0)" stroke-linecap="butt" stroke-linejoin="round" stroke-opacity="1.0" stroke-width="3.0" />
            <path d=" M 607.084, 634.582 608.634, 630.262 609.000, 629.243 610.042, 626.330 607.167, 622.198 604.997, 619.607 604.516, 619.032 603.445, 618.336 603.445, 618.336 600.255, 616.262 595.203, 614.936 " fill="none" stroke="rgb(0, 0, 0)" stroke-linecap="butt" stroke-linejoin="round" stroke-opacity="1.0" stroke-width="3.0" />
            <path d=" M 922.089, 571.045 922.004, 570.788 918.099, 564.260 913.717, 559.999 912.488, 556.928 911.865, 555.475 911.847, 555.434 911.393, 554.374 910.996, 553.446 909.654, 551.563 906.700, 547.420 " fill="none" stroke="rgb(0, 0, 0)" stroke-linecap="butt" stroke-linejoin="round" stroke-opacity="1.0" stroke-width="3.0" />
            <path d=" M 996.178, 706.064 998.841, 699.551 1000.602, 693.235 1003.233, 685.806 1004.134, 679.325 1004.205, 678.816 " fill="none" stroke="rgb(0, 0, 0)" stroke-linecap="butt" stroke-linejoin="round" stroke-opacity="1.0" stroke-width="3.0" />
            <path d=" M 718.300, 586.463 717.911, 587.847 717.444, 590.972 716.709, 598.127 716.260, 599.847 718.329, 604.721 721.651, 607.070 722.826, 607.901 724.980, 609.768 725.971, 610.627 " fill="none" stroke="rgb(0, 0, 0)" stroke-linecap="butt" stroke-linejoin="round" stroke-opacity="1.0" stroke-width="3.0" />
            <path d=" M 514.314, 777.126 516.067, 776.921 516.462, 776.986 517.046, 777.084 517.052, 777.084 517.955, 777.235 519.421, 777.478 520.253, 777.617 520.291, 777.608 522.690, 777.049 524.493, 776.000 524.658, 772.515 524.700, 771.610 524.446, 770.747 524.426, 770.680 524.155, 769.761 524.147, 769.734 522.918, 768.610 521.154, 767.653 519.981, 767.016 519.877, 766.970 519.832, 766.950 513.666, 764.227 " fill="none" stroke="rgb(0, 0, 0)" stroke-linecap="butt" stroke-linejoin="round" stroke-opacity="1.0" stroke-width="3.0" />
            <path d=" M 735.203, 829.527 733.571, 833.684 733.536, 833.774 733.510, 833.839 732.838, 835.550 731.524, 838.898 730.286, 840.804 729.065, 843.526 728.211, 845.430 725.377, 847.768 722.562, 850.060 723.810, 854.029 " fill="none" stroke="rgb(0, 0, 0)" stroke-linecap="butt" stroke-linejoin="round" stroke-opacity="1.0" stroke-width="3.0" />
            <path d=" M 727.252, 865.626 725.321, 868.563 723.420, 870.115 717.840, 871.101 715.966, 872.347 713.938, 873.695 711.389, 876.381 711.419, 878.804 715.431, 883.970 " fill="none" stroke="rgb(0, 0, 0)" stroke-linecap="butt" stroke-linejoin="round" stroke-opacity="1.0" stroke-width="3.0" />
            <path d=" M 597.498, 746.363 598.620, 744.550 598.712, 744.402 598.868, 743.834 598.871, 743.823 598.905, 743.699 598.877, 743.000 598.868, 742.766 598.866, 742.721 598.859, 742.551 598.843, 742.148 598.838, 742.036 598.808, 741.293 598.787, 740.768 597.962, 740.076 597.408, 739.914 594.251, 738.995 588.353, 737.327 585.868, 736.876 580.303, 739.567 580.294, 739.571 578.606, 740.387 578.541, 740.418 577.332, 741.003 " fill="none" stroke="rgb(0, 0, 0)" stroke-linecap="butt" stroke-linejoin="round" stroke-opacity="1.0" stroke-width="3.0" />
            <path d=" M 952.000, 590.037 947.529, 585.628 946.047, 583.827 941.871, 578.811 938.535, 575.080 933.451, 570.099 931.862, 569.250 " fill="none" stroke="rgb(0, 0, 0)" stroke-linecap="butt" stroke-linejoin="round" stroke-opacity="1.0" stroke-width="3.0" />
            <path d=" M 927.016, 565.607 919.072, 559.533 918.509, 559.103 924.594, 563.287 925.386, 563.904 930.465, 567.856 931.862, 569.250 933.318, 570.703 " fill="none" stroke="rgb(0, 0, 0)" stroke-linecap="butt" stroke-linejoin="round" stroke-opacity="1.0" stroke-width="3.0" />
            <path d=" M 487.906, 802.239 488.531, 802.177 494.904, 801.540 500.732, 801.918 501.842, 800.489 503.324, 795.741 500.629, 792.722 498.592, 790.440 496.931, 789.293 496.235, 788.812 " fill="none" stroke="rgb(0, 0, 0)" stroke-linecap="butt" stroke-linejoin="round" stroke-opacity="1.0" stroke-width="3.0" />
            <path d=" M 526.473, 774.216 527.296, 772.981 527.427, 772.785 527.755, 771.086 528.349, 768.004 528.032, 766.132 527.965, 765.735 527.838, 764.987 526.467, 763.903 525.461, 763.108 522.779, 762.040 521.372, 761.731 513.325, 760.344 510.448, 760.406 508.831, 760.441 " fill="none" stroke="rgb(0, 0, 0)" stroke-linecap="butt" stroke-linejoin="round" stroke-opacity="1.0" stroke-width="3.0" />
            <path d=" M 835.230, 511.213 837.270, 512.265 838.073, 512.679 840.078, 514.831 840.288, 515.056 840.379, 515.154 840.401, 515.177 840.814, 515.621 842.188, 517.030 842.213, 517.056 842.499, 517.349 843.231, 518.100 843.756, 518.639 843.964, 519.361 843.967, 519.372 844.057, 519.685 844.140, 519.972 844.258, 520.382 844.661, 521.783 845.083, 522.267 848.989, 525.241 851.126, 528.111 853.733, 533.550 " fill="none" stroke="rgb(0, 0, 0)" stroke-linecap="butt" stroke-linejoin="round" stroke-opacity="1.0" stroke-width="3.0" />
            <path d=" M 824.889, 600.939 817.720, 606.182 816.912, 606.313 811.086, 607.259 808.034, 608.829 807.035, 609.514 806.758, 609.704 804.296, 611.390 803.309, 612.168 803.211, 612.245 802.131, 615.162 802.118, 615.196 802.117, 615.199 802.115, 615.206 801.435, 617.041 " fill="none" stroke="rgb(0, 0, 0)" stroke-linecap="butt" stroke-linejoin="round" stroke-opacity="1.0" stroke-width="3.0" />
            <path d=" M 653.007, 778.704 651.117, 776.849 650.178, 775.686 645.781, 770.236 645.747, 770.167 645.315, 769.270 644.575, 767.737 643.307, 766.034 643.289, 766.010 641.212, 763.221 636.103, 755.855 635.076, 754.374 " fill="none" stroke="rgb(0, 0, 0)" stroke-linecap="butt" stroke-linejoin="round" stroke-opacity="1.0" stroke-width="3.0" />
            <path d=" M 639.834, 733.010 639.620, 732.481 639.538, 732.278 639.123, 731.254 638.409, 729.492 637.536, 728.689 637.536, 728.688 636.887, 728.091 631.950, 726.058 629.175, 723.824 626.229, 722.380 623.487, 720.479 623.475, 720.471 620.777, 718.601 619.090, 715.622 620.673, 716.766 620.913, 716.939 " fill="none" stroke="rgb(0, 0, 0)" stroke-linecap="butt" stroke-linejoin="round" stroke-opacity="1.0" stroke-width="3.0" />
            <path d=" M 986.014, 760.788 985.747, 750.792 985.654, 747.330 985.849, 739.936 985.859, 739.587 985.919, 737.308 985.799, 735.478 985.459, 730.295 " fill="none" stroke="rgb(0, 0, 0)" stroke-linecap="butt" stroke-linejoin="round" stroke-opacity="1.0" stroke-width="3.0" />
            <path d=" M 755.332, 633.055 760.817, 636.056 767.967, 640.345 768.913, 640.912 769.952, 641.535 770.379, 641.997 770.906, 642.566 774.370, 646.313 775.657, 648.306 776.085, 650.241 776.607, 652.597 776.761, 653.152 " fill="none" stroke="rgb(0, 0, 0)" stroke-linecap="butt" stroke-linejoin="round" stroke-opacity="1.0" stroke-width="3.0" />
            <path d=" M 583.053, 634.734 586.235, 638.119 591.833, 643.361 595.279, 645.714 599.672, 645.615 601.154, 644.277 601.096, 640.661 601.573, 636.927 601.724, 635.753 " fill="none" stroke="rgb(0, 0, 0)" stroke-linecap="butt" stroke-linejoin="round" stroke-opacity="1.0" stroke-width="3.0" />
            <path d=" M 626.793, 577.430 626.665, 577.436 626.331, 577.450 625.935, 577.468 619.147, 577.770 618.394, 577.740 618.070, 577.728 617.932, 577.722 615.438, 577.624 608.987, 577.370 603.372, 576.214 595.570, 574.899 " fill="none" stroke="rgb(0, 0, 0)" stroke-linecap="butt" stroke-linejoin="round" stroke-opacity="1.0" stroke-width="3.0" />
            <path d=" M 782.185, 525.264 781.431, 526.652 780.570, 528.234 780.129, 529.046 779.713, 529.810 773.326, 537.505 772.846, 538.083 770.927, 542.062 770.773, 542.614 770.740, 542.731 769.766, 546.223 768.614, 549.059 767.164, 552.632 " fill="none" stroke="rgb(0, 0, 0)" stroke-linecap="butt" stroke-linejoin="round" stroke-opacity="1.0" stroke-width="3.0" />
            <path d=" M 828.761, 916.528 828.050, 916.795 827.613, 916.959 824.363, 918.182 824.148, 918.262 823.112, 918.652 821.512, 919.146 815.763, 920.922 815.281, 921.070 810.498, 922.548 810.484, 922.552 810.435, 922.567 810.146, 922.656 810.032, 922.692 807.376, 924.456 807.310, 924.500 804.905, 926.098 804.849, 926.135 804.841, 926.200 804.840, 926.211 804.679, 927.461 804.508, 928.792 804.124, 931.777 " fill="none" stroke="rgb(0, 0, 0)" stroke-linecap="butt" stroke-linejoin="round" stroke-opacity="1.0" stroke-width="3.0" />
            <path d=" M 524.819, 670.975 525.810, 671.152 528.613, 670.968 530.868, 670.530 531.019, 670.158 530.994, 669.155 530.082, 667.065 529.669, 664.207 529.654, 660.941 529.652, 660.437 529.287, 657.079 529.502, 652.860 529.219, 651.138 529.023, 650.153 528.992, 650.000 528.982, 649.989 528.900, 649.902 528.774, 649.766 528.598, 649.577 528.452, 649.420 528.406, 649.372 525.806, 646.581 " fill="none" stroke="rgb(0, 0, 0)" stroke-linecap="butt" stroke-linejoin="round" stroke-opacity="1.0" stroke-width="3.0" />
            <path d=" M 615.963, 614.265 625.717, 612.059 631.128, 610.835 638.023, 610.534 643.541, 609.206 646.985, 608.486 " fill="none" stroke="rgb(0, 0, 0)" stroke-linecap="butt" stroke-linejoin="round" stroke-opacity="1.0" stroke-width="3.0" />
            <path d=" M 838.424, 578.636 838.144, 579.091 838.139, 579.100 837.747, 579.737 837.342, 580.396 836.072, 582.462 833.603, 586.449 830.187, 593.082 827.396, 597.483 826.042, 599.619 824.889, 600.939 824.398, 601.501 823.557, 602.464 822.691, 603.765 821.548, 605.423 " fill="none" stroke="rgb(0, 0, 0)" stroke-linecap="butt" stroke-linejoin="round" stroke-opacity="1.0" stroke-width="3.0" />
            <path d=" M 814.027, 816.420 809.517, 816.760 809.341, 816.774 807.146, 816.939 807.060, 816.946 806.612, 816.980 806.432, 816.993 804.119, 817.168 796.832, 816.843 788.618, 815.981 786.554, 816.398 784.583, 816.796 782.468, 817.223 " fill="none" stroke="rgb(0, 0, 0)" stroke-linecap="butt" stroke-linejoin="round" stroke-opacity="1.0" stroke-width="3.0" />
            <path d=" M 781.434, 750.402 781.370, 750.542 781.357, 750.572 781.309, 750.676 781.170, 750.982 781.118, 751.076 781.111, 751.089 780.891, 751.482 780.829, 751.594 780.812, 751.625 778.654, 755.493 776.600, 758.045 776.917, 758.874 779.267, 759.673 779.620, 759.793 780.162, 759.977 780.240, 760.004 784.541, 762.039 788.766, 763.300 788.898, 763.340 789.422, 763.496 789.430, 763.499 789.971, 763.660 790.161, 763.717 791.134, 764.156 791.315, 764.237 791.378, 764.266 791.440, 764.294 791.506, 764.323 791.524, 764.332 791.862, 764.484 791.868, 764.487 791.875, 764.490 792.798, 764.906 793.004, 764.999 793.083, 765.034 793.151, 765.065 793.280, 765.123 793.964, 765.431 794.282, 765.575 796.820, 766.719 797.393, 766.977 " fill="none" stroke="rgb(0, 0, 0)" stroke-linecap="butt" stroke-linejoin="round" stroke-opacity="1.0" stroke-width="3.0" />
            <path d=" M 779.107, 570.629 784.040, 571.597 784.223, 571.633 785.591, 571.901 785.628, 571.908 785.652, 571.913 786.450, 572.407 786.465, 572.416 786.469, 572.418 788.430, 573.632 789.802, 578.079 790.907, 581.663 791.735, 584.311 791.748, 584.353 791.827, 584.604 791.840, 584.646 792.576, 586.998 792.938, 588.155 793.073, 588.793 793.129, 589.055 794.100, 593.612 794.688, 595.656 " fill="none" stroke="rgb(0, 0, 0)" stroke-linecap="butt" stroke-linejoin="round" stroke-opacity="1.0" stroke-width="3.0" />
            <path d=" M 895.867, 579.735 896.490, 579.717 901.088, 580.419 905.488, 581.310 909.053, 582.677 914.707, 584.648 920.216, 586.156 921.468, 583.394 923.436, 579.179 " fill="none" stroke="rgb(0, 0, 0)" stroke-linecap="butt" stroke-linejoin="round" stroke-opacity="1.0" stroke-width="3.0" />
            <path d=" M 892.030, 896.793 898.567, 895.324 899.654, 894.984 903.553, 893.764 907.354, 892.742 907.852, 892.608 913.427, 891.100 915.424, 890.508 918.908, 889.474 920.636, 889.031 921.800, 888.733 924.130, 888.135 " fill="none" stroke="rgb(0, 0, 0)" stroke-linecap="butt" stroke-linejoin="round" stroke-opacity="1.0" stroke-width="3.0" />
            <path d=" M 635.801, 741.407 631.122, 740.296 626.260, 739.141 620.745, 737.333 617.381, 736.216 614.761, 735.339 608.506, 733.410 605.262, 732.409 604.552, 732.190 604.165, 732.070 603.905, 731.990 " fill="none" stroke="rgb(0, 0, 0)" stroke-linecap="butt" stroke-linejoin="round" stroke-opacity="1.0" stroke-width="3.0" />
            <path d=" M 551.590, 560.620 548.272, 560.385 544.534, 560.121 542.189, 559.955 541.545, 559.909 540.805, 560.253 539.523, 560.849 537.292, 561.886 535.024, 562.852 534.933, 562.887 535.010, 562.859 535.014, 562.858 539.598, 561.230 539.856, 561.138 543.529, 560.514 548.453, 560.588 549.082, 560.597 550.971, 560.709 " fill="none" stroke="rgb(0, 0, 0)" stroke-linecap="butt" stroke-linejoin="round" stroke-opacity="1.0" stroke-width="3.0" />
            <path d=" M 756.463, 942.963 754.220, 943.660 754.014, 943.724 753.938, 943.748 753.842, 943.778 753.756, 943.805 755.554, 947.878 764.594, 952.155 767.316, 953.443 774.322, 953.955 779.746, 952.696 780.601, 952.498 " fill="none" stroke="rgb(0, 0, 0)" stroke-linecap="butt" stroke-linejoin="round" stroke-opacity="1.0" stroke-width="3.0" />
            <path d=" M 500.629, 792.722 500.856, 792.797 509.941, 793.743 517.967, 793.450 518.904, 792.761 519.743, 790.847 519.689, 789.711 519.598, 788.717 519.149, 783.766 519.764, 780.451 519.802, 780.243 519.809, 780.206 519.923, 779.595 520.159, 778.322 520.291, 777.608 " fill="none" stroke="rgb(0, 0, 0)" stroke-linecap="butt" stroke-linejoin="round" stroke-opacity="1.0" stroke-width="3.0" />
            <path d=" M 784.636, 934.726 783.332, 934.925 775.054, 936.187 768.412, 937.201 766.416, 937.554 761.113, 939.879 755.534, 940.601 753.325, 943.243 753.842, 943.778 " fill="none" stroke="rgb(0, 0, 0)" stroke-linecap="butt" stroke-linejoin="round" stroke-opacity="1.0" stroke-width="3.0" />
            <path d=" M 942.307, 879.560 942.358, 878.760 942.359, 878.751 942.359, 878.745 942.359, 878.743 942.574, 875.389 942.591, 875.156 942.613, 874.840 942.617, 874.784 942.682, 873.854 942.863, 871.280 943.013, 861.281 943.090, 856.082 943.100, 855.454 943.105, 855.111 943.123, 850.073 943.140, 845.227 " fill="none" stroke="rgb(0, 0, 0)" stroke-linecap="butt" stroke-linejoin="round" stroke-opacity="1.0" stroke-width="3.0" />
            <path d=" M 367.643, 823.894 367.627, 823.961 367.205, 825.715 366.700, 827.817 365.762, 831.725 365.743, 831.803 365.619, 832.318 367.260, 833.979 367.675, 834.398 367.693, 834.417 371.467, 838.557 372.224, 839.387 373.169, 840.424 374.921, 842.213 375.711, 842.055 377.689, 841.659 378.024, 839.882 378.314, 838.342 377.814, 836.797 376.727, 833.433 376.295, 832.099 " fill="none" stroke="rgb(0, 0, 0)" stroke-linecap="butt" stroke-linejoin="round" stroke-opacity="1.0" stroke-width="3.0" />
            <path d=" M 747.541, 628.344 754.228, 632.396 755.332, 633.055 749.096, 629.425 740.758, 623.905 739.299, 622.939 739.191, 622.867 737.940, 622.039 735.948, 620.210 734.229, 618.257 " fill="none" stroke="rgb(0, 0, 0)" stroke-linecap="butt" stroke-linejoin="round" stroke-opacity="1.0" stroke-width="3.0" />
            <path d=" M 752.489, 970.528 746.627, 971.646 744.961, 971.963 740.213, 973.528 733.539, 975.532 728.259, 976.663 722.123, 977.680 718.689, 979.465 " fill="none" stroke="rgb(0, 0, 0)" stroke-linecap="butt" stroke-linejoin="round" stroke-opacity="1.0" stroke-width="3.0" />
            <path d=" M 962.963, 815.944 963.628, 815.023 968.314, 806.189 969.406, 804.131 969.450, 804.048 970.090, 802.840 971.044, 800.704 971.199, 800.358 971.589, 799.484 974.330, 793.345 976.228, 789.637 978.216, 785.796 978.405, 785.432 978.453, 785.339 978.902, 784.470 " fill="none" stroke="rgb(0, 0, 0)" stroke-linecap="butt" stroke-linejoin="round" stroke-opacity="1.0" stroke-width="3.0" />
            <path d=" M 665.391, 743.199 666.708, 742.123 667.751, 740.882 669.007, 736.728 669.214, 735.746 667.591, 733.242 665.612, 731.412 662.547, 729.112 657.073, 726.986 652.373, 725.934 649.746, 725.147 647.595, 725.066 645.745, 725.633 " fill="none" stroke="rgb(0, 0, 0)" stroke-linecap="butt" stroke-linejoin="round" stroke-opacity="1.0" stroke-width="3.0" />
            <path d=" M 573.147, 692.103 571.666, 691.009 568.856, 689.750 562.825, 687.043 557.473, 686.526 552.852, 684.286 549.616, 683.246 542.691, 681.292 539.200, 680.722 " fill="none" stroke="rgb(0, 0, 0)" stroke-linecap="butt" stroke-linejoin="round" stroke-opacity="1.0" stroke-width="3.0" />
            <path d=" M 753.212, 708.056 752.305, 709.919 751.486, 710.683 749.020, 713.007 743.717, 718.034 743.708, 718.614 743.666, 721.574 746.762, 724.015 749.391, 725.812 754.039, 728.978 757.665, 732.312 758.135, 733.567 758.204, 733.752 " fill="none" stroke="rgb(0, 0, 0)" stroke-linecap="butt" stroke-linejoin="round" stroke-opacity="1.0" stroke-width="3.0" />
            <path d=" M 978.216, 785.796 978.758, 785.016 982.495, 778.105 984.470, 771.124 985.105, 767.759 986.014, 760.788 985.183, 767.812 984.470, 771.124 " fill="none" stroke="rgb(0, 0, 0)" stroke-linecap="butt" stroke-linejoin="round" stroke-opacity="1.0" stroke-width="3.0" />
            <path d=" M 782.533, 817.228 782.468, 817.223 773.764, 816.641 773.743, 816.639 773.606, 816.630 773.598, 816.629 767.797, 816.241 767.491, 816.221 766.182, 816.133 763.474, 815.952 763.345, 815.943 762.877, 815.916 762.250, 815.881 762.040, 815.869 753.205, 815.370 751.750, 815.287 749.078, 815.136 745.367, 814.926 " fill="none" stroke="rgb(0, 0, 0)" stroke-linecap="butt" stroke-linejoin="round" stroke-opacity="1.0" stroke-width="3.0" />
            <path d=" M 774.291, 566.879 778.805, 565.056 778.883, 565.024 779.780, 564.501 781.932, 563.246 783.741, 562.435 783.755, 562.428 784.052, 562.295 784.624, 562.038 785.588, 561.314 787.580, 559.817 787.736, 559.700 787.775, 559.671 788.422, 558.613 788.488, 558.505 789.445, 556.940 789.491, 556.867 789.829, 556.313 789.877, 556.133 790.268, 554.652 790.309, 554.496 790.319, 554.460 790.559, 553.550 790.681, 553.089 790.839, 552.492 791.743, 549.073 790.755, 547.528 789.591, 547.031 787.973, 546.340 787.000, 546.282 786.099, 546.228 785.248, 546.177 784.266, 546.807 784.255, 546.814 784.115, 546.903 782.797, 547.749 " fill="none" stroke="rgb(0, 0, 0)" stroke-linecap="butt" stroke-linejoin="round" stroke-opacity="1.0" stroke-width="3.0" />
            <path d=" M 947.542, 874.161 951.270, 870.854 951.606, 870.475 951.615, 870.465 952.139, 869.876 954.904, 866.764 956.662, 864.694 961.375, 858.815 962.638, 857.239 963.631, 855.931 967.194, 850.550 969.409, 844.443 " fill="none" stroke="rgb(0, 0, 0)" stroke-linecap="butt" stroke-linejoin="round" stroke-opacity="1.0" stroke-width="3.0" />
            <path d=" M 790.515, 985.652 789.269, 989.815 788.902, 990.809 788.283, 992.485 787.403, 995.144 789.492, 998.377 798.958, 1001.598 801.166, 1002.349 810.014, 1001.768 810.447, 1001.739 810.725, 1001.458 810.865, 1001.316 811.802, 1000.368 811.878, 1000.291 811.896, 1000.273 " fill="none" stroke="rgb(0, 0, 0)" stroke-linecap="butt" stroke-linejoin="round" stroke-opacity="1.0" stroke-width="3.0" />
            <path d=" M 643.973, 608.706 646.985, 608.486 648.036, 608.409 652.622, 608.022 656.609, 606.535 662.487, 605.317 669.581, 602.850 672.951, 601.484 679.934, 598.386 679.960, 598.375 " fill="none" stroke="rgb(0, 0, 0)" stroke-linecap="butt" stroke-linejoin="round" stroke-opacity="1.0" stroke-width="3.0" />
            <path d=" M 747.116, 774.907 746.134, 774.809 746.044, 774.786 746.028, 774.782 745.120, 774.557 745.034, 774.536 744.644, 774.509 744.594, 774.506 744.165, 774.476 738.291, 774.073 737.308, 774.580 735.447, 775.540 733.072, 779.307 730.366, 784.805 728.983, 790.526 726.458, 795.001 726.505, 799.065 " fill="none" stroke="rgb(0, 0, 0)" stroke-linecap="butt" stroke-linejoin="round" stroke-opacity="1.0" stroke-width="3.0" />
            <path d=" M 881.802, 933.053 881.813, 933.009 881.815, 933.000 881.845, 932.878 881.847, 932.869 881.975, 932.341 882.505, 930.162 883.471, 928.980 885.207, 926.854 886.217, 924.496 884.730, 919.954 885.029, 915.859 885.051, 915.555 885.066, 915.342 885.122, 914.575 885.982, 911.319 887.393, 907.829 886.414, 902.503 888.353, 900.280 890.842, 900.483 " fill="none" stroke="rgb(0, 0, 0)" stroke-linecap="butt" stroke-linejoin="round" stroke-opacity="1.0" stroke-width="3.0" />
            <path d=" M 600.672, 708.552 598.384, 705.486 597.697, 703.881 596.766, 702.218 594.549, 699.742 592.637, 699.079 590.025, 698.364 589.812, 698.305 589.051, 698.072 583.477, 696.366 578.655, 694.442 574.892, 692.610 573.147, 692.103 568.783, 690.835 " fill="none" stroke="rgb(0, 0, 0)" stroke-linecap="butt" stroke-linejoin="round" stroke-opacity="1.0" stroke-width="3.0" />
            <path d=" M 942.298, 881.389 947.275, 881.178 949.457, 881.079 955.367, 879.290 960.416, 876.047 962.542, 873.048 962.724, 872.672 963.561, 870.275 964.146, 867.910 963.694, 863.152 963.118, 861.836 961.973, 859.563 961.424, 858.868 961.375, 858.815 " fill="none" stroke="rgb(0, 0, 0)" stroke-linecap="butt" stroke-linejoin="round" stroke-opacity="1.0" stroke-width="3.0" />
            <path d=" M 463.951, 603.542 456.506, 608.555 455.876, 608.980 448.083, 615.247 446.554, 616.477 443.843, 618.408 442.185, 619.638 434.831, 624.940 433.480, 626.614 " fill="none" stroke="rgb(0, 0, 0)" stroke-linecap="butt" stroke-linejoin="round" stroke-opacity="1.0" stroke-width="3.0" />
            <path d=" M 736.077, 647.284 735.328, 647.940 734.487, 649.842 733.805, 651.337 733.530, 652.107 732.947, 652.933 732.244, 654.457 732.339, 657.932 734.227, 663.931 735.215, 666.819 738.488, 673.755 742.873, 680.639 743.793, 681.912 " fill="none" stroke="rgb(0, 0, 0)" stroke-linecap="butt" stroke-linejoin="round" stroke-opacity="1.0" stroke-width="3.0" />
            <path d=" M 925.344, 909.913 927.187, 910.035 927.293, 910.042 931.802, 910.341 933.047, 910.027 934.850, 909.571 936.844, 907.188 936.863, 907.166 936.887, 907.136 936.979, 907.027 938.410, 904.942 940.911, 898.816 942.263, 891.246 942.281, 889.407 942.270, 889.142 942.025, 882.966 941.996, 882.244 " fill="none" stroke="rgb(0, 0, 0)" stroke-linecap="butt" stroke-linejoin="round" stroke-opacity="1.0" stroke-width="3.0" />
            <path d=" M 767.780, 808.786 767.776, 808.769 767.449, 807.546 766.645, 804.786 766.618, 801.682 765.646, 800.102 765.205, 799.802 764.693, 799.624 764.645, 799.607 763.999, 799.383 760.007, 800.618 756.053, 798.520 753.764, 798.561 752.225, 799.996 751.073, 802.436 750.832, 809.475 751.628, 814.518 " fill="none" stroke="rgb(0, 0, 0)" stroke-linecap="butt" stroke-linejoin="round" stroke-opacity="1.0" stroke-width="3.0" />
            <path d=" M 576.911, 758.152 581.715, 761.469 584.432, 762.726 589.016, 762.648 592.953, 761.261 596.421, 759.417 598.944, 757.808 601.632, 754.998 601.865, 754.754 601.303, 750.983 601.125, 749.790 599.305, 745.195 598.620, 744.550 " fill="none" stroke="rgb(0, 0, 0)" stroke-linecap="butt" stroke-linejoin="round" stroke-opacity="1.0" stroke-width="3.0" />
            <path d=" M 760.555, 881.035 760.216, 880.855 759.740, 880.602 758.443, 879.912 756.060, 878.644 755.781, 878.496 754.338, 877.728 754.226, 877.668 749.620, 875.167 744.453, 873.768 744.390, 873.751 744.082, 873.668 743.966, 873.637 742.714, 873.796 742.579, 873.813 741.764, 873.916 741.495, 873.951 741.451, 873.956 741.197, 873.989 740.874, 874.030 740.119, 874.126 738.099, 874.382 737.390, 874.472 737.105, 874.509 736.664, 874.565 736.526, 874.582 736.525, 874.582 736.424, 874.595 733.232, 875.001 732.917, 875.041 731.936, 875.446 731.559, 875.601 731.534, 875.611 731.129, 875.778 730.973, 875.842 730.654, 876.627 729.512, 879.431 729.361, 879.960 729.220, 880.453 728.349, 883.494 728.157, 884.163 " fill="none" stroke="rgb(0, 0, 0)" stroke-linecap="butt" stroke-linejoin="round" stroke-opacity="1.0" stroke-width="3.0" />
            <path d=" M 596.681, 549.107 596.537, 549.174 596.483, 549.199 595.175, 549.808 593.469, 550.602 591.626, 551.460 590.820, 551.939 590.809, 551.946 590.802, 551.949 583.420, 556.334 577.081, 559.245 569.302, 561.688 568.773, 561.854 567.747, 562.176 566.658, 562.265 564.922, 562.407 564.900, 562.409 564.378, 562.452 558.796, 562.908 " fill="none" stroke="rgb(0, 0, 0)" stroke-linecap="butt" stroke-linejoin="round" stroke-opacity="1.0" stroke-width="3.0" />
            <path d=" M 746.796, 559.044 746.710, 559.056 743.631, 559.517 740.954, 559.917 735.419, 560.669 731.849, 561.155 728.519, 561.517 722.144, 562.588 722.076, 562.599 721.993, 562.613 717.218, 563.415 717.127, 563.430 716.953, 563.459 716.497, 563.536 706.582, 564.832 705.987, 564.910 " fill="none" stroke="rgb(0, 0, 0)" stroke-linecap="butt" stroke-linejoin="round" stroke-opacity="1.0" stroke-width="3.0" />
            <path d=" M 537.110, 654.240 542.161, 656.028 548.015, 658.100 551.879, 657.418 552.176, 657.199 553.075, 654.230 552.421, 651.637 551.891, 649.534 551.865, 649.084 551.728, 646.746 550.513, 643.811 549.953, 640.092 549.937, 639.986 549.888, 639.656 549.855, 639.440 549.848, 639.393 549.839, 639.330 549.802, 639.124 549.738, 638.767 549.081, 635.098 549.067, 635.023 549.007, 634.833 548.064, 631.872 " fill="none" stroke="rgb(0, 0, 0)" stroke-linecap="butt" stroke-linejoin="round" stroke-opacity="1.0" stroke-width="3.0" />
            <path d=" M 922.975, 711.558 921.409, 710.339 918.065, 707.737 909.296, 702.842 904.513, 699.287 897.332, 694.426 895.135, 692.282 894.515, 691.677 889.598, 686.878 889.194, 686.485 " fill="none" stroke="rgb(0, 0, 0)" stroke-linecap="butt" stroke-linejoin="round" stroke-opacity="1.0" stroke-width="3.0" />
            <path d=" M 583.087, 629.878 583.071, 629.466 582.906, 625.328 581.429, 621.528 576.831, 617.663 572.830, 615.632 565.870, 615.110 558.104, 614.850 549.749, 616.536 " fill="none" stroke="rgb(0, 0, 0)" stroke-linecap="butt" stroke-linejoin="round" stroke-opacity="1.0" stroke-width="3.0" />
            <path d=" M 803.300, 615.722 802.968, 615.957 802.637, 616.191 802.346, 616.397 801.435, 617.041 800.110, 617.978 798.697, 618.977 797.220, 620.591 794.732, 625.154 793.195, 627.882 791.742, 631.390 792.087, 633.348 792.181, 633.876 793.009, 638.576 792.393, 642.217 790.523, 646.048 789.887, 647.352 784.541, 650.621 " fill="none" stroke="rgb(0, 0, 0)" stroke-linecap="butt" stroke-linejoin="round" stroke-opacity="1.0" stroke-width="3.0" />
            <path d=" M 732.388, 990.329 736.168, 991.453 746.129, 992.333 750.946, 992.759 760.945, 992.887 770.472, 993.008 775.712, 992.409 " fill="none" stroke="rgb(0, 0, 0)" stroke-linecap="butt" stroke-linejoin="round" stroke-opacity="1.0" stroke-width="3.0" />
            <path d=" M 758.135, 733.567 757.770, 733.982 755.638, 736.404 755.535, 737.036 754.902, 740.905 753.512, 746.045 753.485, 746.144 754.776, 747.796 757.066, 749.053 757.129, 749.087 757.361, 749.214 757.782, 749.445 760.361, 750.860 766.770, 752.350 768.229, 752.689 771.075, 753.042 772.327, 752.665 777.570, 751.087 777.709, 751.045 779.712, 750.442 779.742, 750.433 779.746, 750.432 780.829, 750.106 780.922, 750.078 781.256, 749.977 781.406, 749.932 781.440, 749.922 " fill="none" stroke="rgb(0, 0, 0)" stroke-linecap="butt" stroke-linejoin="round" stroke-opacity="1.0" stroke-width="3.0" />
            <path d=" M 784.161, 797.979 782.947, 798.472 777.721, 800.597 776.720, 802.220 777.001, 803.153 777.002, 803.155 777.002, 803.155 777.065, 803.365 777.181, 803.750 777.588, 805.098 778.089, 806.762 783.420, 810.463 786.282, 811.465 791.239, 813.201 801.180, 814.283 804.771, 814.673 805.358, 815.133 806.880, 816.325 806.918, 816.456 807.060, 816.946 " fill="none" stroke="rgb(0, 0, 0)" stroke-linecap="butt" stroke-linejoin="round" stroke-opacity="1.0" stroke-width="3.0" />
            <path d=" M 383.855, 853.206 391.057, 860.144 391.515, 860.585 394.743, 863.057 402.164, 867.765 411.096, 871.399 418.774, 871.297 422.752, 870.429 423.421, 870.283 " fill="none" stroke="rgb(0, 0, 0)" stroke-linecap="butt" stroke-linejoin="round" stroke-opacity="1.0" stroke-width="3.0" />
            <path d=" M 745.553, 738.611 746.241, 739.703 746.993, 740.897 746.794, 742.342 746.977, 742.740 747.577, 744.043 749.452, 746.024 751.365, 749.300 751.530, 751.216 752.142, 752.672 753.054, 755.436 753.244, 757.193 754.287, 761.255 754.696, 763.170 754.725, 763.307 754.807, 763.692 755.157, 765.332 755.207, 765.566 755.665, 767.715 755.555, 769.784 755.546, 769.964 755.536, 770.146 755.548, 770.167 755.797, 770.602 757.515, 773.600 758.709, 775.609 759.644, 777.181 759.826, 777.487 760.937, 778.125 762.013, 778.744 763.093, 779.439 " fill="none" stroke="rgb(0, 0, 0)" stroke-linecap="butt" stroke-linejoin="round" stroke-opacity="1.0" stroke-width="3.0" />
            <path d=" M 746.477, 898.030 745.638, 897.898 744.079, 897.653 743.283, 897.741 743.194, 897.751 742.999, 897.773 742.179, 897.864 738.641, 898.256 738.325, 898.291 738.308, 898.293 737.750, 898.355 737.612, 898.370 737.313, 898.403 736.972, 898.441 736.597, 898.483 736.524, 898.491 734.705, 898.692 734.565, 898.680 734.538, 898.678 733.528, 898.591 731.871, 898.447 731.756, 898.438 731.753, 898.437 731.513, 898.417 731.509, 898.416 730.391, 898.320 728.979, 898.198 728.230, 898.528 723.936, 900.420 723.523, 900.903 722.711, 903.776 726.763, 907.646 731.521, 911.410 733.565, 913.199 734.728, 914.216 738.140, 915.970 " fill="none" stroke="rgb(0, 0, 0)" stroke-linecap="butt" stroke-linejoin="round" stroke-opacity="1.0" stroke-width="3.0" />
            <path d=" M 677.962, 741.525 669.645, 743.183 666.187, 743.194 665.391, 743.199 660.674, 743.232 655.955, 742.925 652.548, 742.604 648.681, 742.240 644.018, 741.756 641.097, 741.456 638.384, 741.177 634.646, 740.800 631.122, 740.296 " fill="none" stroke="rgb(0, 0, 0)" stroke-linecap="butt" stroke-linejoin="round" stroke-opacity="1.0" stroke-width="3.0" />
            <path d=" M 435.068, 818.097 436.203, 819.306 444.097, 822.785 452.214, 825.212 456.052, 825.676 462.217, 823.806 460.845, 821.525 459.021, 818.494 457.530, 816.170 456.137, 813.998 455.335, 812.749 454.769, 811.930 451.595, 807.340 " fill="none" stroke="rgb(0, 0, 0)" stroke-linecap="butt" stroke-linejoin="round" stroke-opacity="1.0" stroke-width="3.0" />
            <path d=" M 822.418, 503.214 816.511, 504.479 813.408, 505.669 808.611, 509.436 804.573, 511.297 794.892, 513.803 792.996, 514.294 785.223, 520.586 785.000, 520.766 782.502, 523.345 781.431, 526.652 " fill="none" stroke="rgb(0, 0, 0)" stroke-linecap="butt" stroke-linejoin="round" stroke-opacity="1.0" stroke-width="3.0" />
            <path d=" M 536.779, 778.899 542.106, 777.903 542.308, 777.828 545.125, 776.616 546.858, 774.830 548.093, 772.304 548.956, 770.538 549.989, 766.784 550.367, 765.413 550.466, 764.992 550.561, 764.593 551.350, 761.265 551.307, 760.786 551.059, 757.987 550.717, 756.221 549.577, 755.272 545.634, 753.124 545.471, 753.035 545.346, 752.986 538.747, 750.416 535.615, 750.343 533.241, 750.287 533.031, 750.282 " fill="none" stroke="rgb(0, 0, 0)" stroke-linecap="butt" stroke-linejoin="round" stroke-opacity="1.0" stroke-width="3.0" />
            <path d=" M 730.392, 822.710 726.335, 821.554 726.299, 821.544 724.501, 821.032 722.494, 819.797 721.981, 819.481 715.496, 815.491 709.341, 811.843 705.188, 809.232 700.839, 807.129 700.566, 806.966 695.263, 803.813 691.402, 802.066 686.455, 799.369 " fill="none" stroke="rgb(0, 0, 0)" stroke-linecap="butt" stroke-linejoin="round" stroke-opacity="1.0" stroke-width="3.0" />
            <path d=" M 1000.773, 655.806 997.473, 649.316 995.052, 646.443 992.331, 643.322 989.570, 639.561 989.385, 639.356 988.907, 638.826 988.776, 638.680 988.108, 637.938 988.071, 637.901 987.997, 637.825 984.146, 633.882 981.285, 630.555 979.558, 630.619 979.030, 630.638 978.752, 630.648 978.423, 630.689 974.735, 631.728 974.516, 632.206 974.300, 632.676 974.251, 632.781 974.196, 632.901 973.829, 633.700 973.707, 633.966 973.692, 634.000 973.655, 634.080 973.588, 634.227 973.568, 634.269 973.442, 634.545 973.281, 634.894 973.032, 635.436 972.936, 635.646 972.865, 635.801 972.862, 635.808 972.848, 635.837 972.758, 636.033 972.566, 636.452 972.225, 636.779 971.022, 637.935 970.304, 638.637 970.303, 638.639 968.878, 640.031 967.959, 640.929 " fill="none" stroke="rgb(0, 0, 0)" stroke-linecap="butt" stroke-linejoin="round" stroke-opacity="1.0" stroke-width="3.0" />
            <path d=" M 778.964, 989.794 778.490, 989.908 775.712, 992.409 774.048, 993.907 773.135, 997.201 773.400, 999.005 775.672, 1001.062 779.602, 1002.835 789.257, 1005.440 790.654, 1005.817 800.649, 1005.481 801.559, 1005.451 810.014, 1001.768 " fill="none" stroke="rgb(0, 0, 0)" stroke-linecap="butt" stroke-linejoin="round" stroke-opacity="1.0" stroke-width="3.0" />
            <path d=" M 718.943, 979.472 718.689, 979.465 710.806, 979.231 706.431, 980.031 701.976, 981.327 702.111, 983.736 705.802, 985.924 715.610, 987.875 717.188, 988.189 727.090, 989.583 732.388, 990.329 733.043, 990.421 " fill="none" stroke="rgb(0, 0, 0)" stroke-linecap="butt" stroke-linejoin="round" stroke-opacity="1.0" stroke-width="3.0" />
            <path d=" M 729.160, 887.972 728.701, 888.095 728.519, 888.143 728.488, 888.152 727.472, 888.424 724.046, 889.342 723.882, 889.386 723.846, 889.396 723.770, 889.416 723.762, 889.418 722.219, 889.832 716.917, 890.499 716.069, 890.797 712.586, 892.018 710.603, 895.165 710.312, 897.568 711.341, 899.201 718.582, 904.052 723.334, 908.602 729.816, 912.383 733.565, 913.199 " fill="none" stroke="rgb(0, 0, 0)" stroke-linecap="butt" stroke-linejoin="round" stroke-opacity="1.0" stroke-width="3.0" />
            <path d=" M 842.032, 964.719 845.936, 963.296 847.938, 960.279 848.255, 959.795 848.379, 959.606 848.383, 959.600 848.398, 959.576 848.561, 959.328 850.849, 955.837 850.899, 955.761 850.971, 955.650 851.689, 954.555 851.813, 954.367 852.003, 954.060 852.645, 953.026 855.319, 948.717 855.358, 948.638 859.830, 939.694 860.220, 938.913 865.091, 930.180 867.540, 925.789 868.194, 923.764 869.061, 921.081 " fill="none" stroke="rgb(0, 0, 0)" stroke-linecap="butt" stroke-linejoin="round" stroke-opacity="1.0" stroke-width="3.0" />
            <path d=" M 757.633, 853.903 757.410, 853.761 755.981, 852.854 752.349, 850.547 752.342, 850.545 752.093, 850.469 751.720, 850.356 751.075, 850.161 750.063, 849.855 749.631, 849.724 749.280, 849.617 748.973, 849.524 748.857, 849.489 744.318, 848.115 743.551, 848.075 742.621, 848.027 738.244, 847.800 736.555, 848.544 735.309, 849.094 733.363, 852.900 732.905, 853.704 732.443, 854.517 731.010, 857.036 729.523, 859.651 728.627, 861.227 727.252, 865.626 726.800, 872.273 724.740, 876.864 " fill="none" stroke="rgb(0, 0, 0)" stroke-linecap="butt" stroke-linejoin="round" stroke-opacity="1.0" stroke-width="3.0" />
            <path d=" M 759.807, 911.721 758.651, 911.993 758.593, 912.006 758.235, 912.090 756.012, 912.612 755.512, 912.730 750.783, 913.840 750.653, 913.870 745.746, 915.023 744.160, 915.206 743.907, 915.235 743.472, 915.285 742.998, 915.340 742.997, 915.340 742.973, 915.343 740.881, 915.584 738.449, 915.865 738.264, 915.887 738.140, 915.970 734.068, 918.695 735.556, 922.269 740.266, 924.685 749.106, 929.359 749.852, 929.753 750.904, 930.155 754.919, 931.689 756.846, 932.391 " fill="none" stroke="rgb(0, 0, 0)" stroke-linecap="butt" stroke-linejoin="round" stroke-opacity="1.0" stroke-width="3.0" />
            <path d=" M 552.421, 651.637 552.423, 651.637 556.132, 650.200 557.733, 649.025 558.004, 648.136 559.576, 642.984 559.448, 634.892 559.467, 634.308 559.468, 634.291 559.523, 632.612 559.633, 629.242 556.927, 623.793 556.075, 623.223 550.310, 620.678 544.881, 620.666 544.264, 620.664 541.689, 620.779 536.352, 623.263 535.491, 623.677 " fill="none" stroke="rgb(0, 0, 0)" stroke-linecap="butt" stroke-linejoin="round" stroke-opacity="1.0" stroke-width="3.0" />
            <path d=" M 561.544, 552.789 559.377, 552.156 557.970, 551.861 557.696, 551.803 556.743, 551.604 555.852, 551.417 555.633, 551.396 553.506, 551.197 550.110, 551.310 549.958, 551.315 545.037, 550.810 539.408, 554.081 534.029, 555.721 530.535, 556.253 527.998, 556.539 525.283, 558.428 521.554, 560.374 514.674, 565.729 512.264, 568.628 " fill="none" stroke="rgb(0, 0, 0)" stroke-linecap="butt" stroke-linejoin="round" stroke-opacity="1.0" stroke-width="3.0" />
            <path d=" M 455.162, 812.063 459.732, 813.615 462.008, 814.285 470.309, 814.993 476.236, 815.162 481.537, 814.754 482.793, 813.644 482.905, 811.907 482.278, 809.665 481.851, 807.375 473.844, 801.825 473.729, 801.702 466.901, 794.396 465.822, 793.241 465.729, 793.142 " fill="none" stroke="rgb(0, 0, 0)" stroke-linecap="butt" stroke-linejoin="round" stroke-opacity="1.0" stroke-width="3.0" />
            <path d=" M 817.226, 570.310 818.974, 563.985 819.972, 560.375 821.081, 557.409 821.410, 556.530 821.820, 555.435 825.792, 547.833 828.192, 544.079 830.087, 541.115 832.296, 537.711 835.046, 533.475 840.693, 525.196 840.709, 525.173 840.915, 524.889 841.092, 524.644 841.408, 524.209 841.416, 524.198 841.422, 524.189 841.571, 523.984 841.834, 523.621 842.324, 522.946 842.352, 522.907 842.743, 522.367 843.821, 520.881 844.258, 520.382 " fill="none" stroke="rgb(0, 0, 0)" stroke-linecap="butt" stroke-linejoin="round" stroke-opacity="1.0" stroke-width="3.0" />
            <path d=" M 970.667, 625.536 969.947, 623.639 966.985, 616.255 964.715, 610.981 961.949, 605.811 959.538, 601.543 957.411, 598.160 955.537, 594.930 953.812, 592.074 952.287, 590.513 952.209, 590.434 952.174, 590.398 948.681, 586.824 945.995, 584.206 945.387, 583.678 943.978, 582.281 942.835, 581.147 939.574, 577.912 " fill="none" stroke="rgb(0, 0, 0)" stroke-linecap="butt" stroke-linejoin="round" stroke-opacity="1.0" stroke-width="3.0" />
            <path d=" M 963.631, 855.931 966.673, 851.932 969.966, 845.153 972.483, 835.660 973.058, 829.751 973.629, 819.768 973.710, 818.343 973.417, 810.631 971.323, 800.933 971.199, 800.358 " fill="none" stroke="rgb(0, 0, 0)" stroke-linecap="butt" stroke-linejoin="round" stroke-opacity="1.0" stroke-width="3.0" />
            <path d=" M 362.840, 836.815 363.715, 837.823 366.409, 840.926 367.450, 843.493 367.705, 847.161 367.762, 849.717 370.445, 854.004 371.702, 854.931 377.832, 858.507 380.782, 857.696 383.855, 853.206 383.870, 853.184 385.888, 849.139 386.552, 846.956 384.940, 840.962 384.616, 839.760 381.439, 833.191 " fill="none" stroke="rgb(0, 0, 0)" stroke-linecap="butt" stroke-linejoin="round" stroke-opacity="1.0" stroke-width="3.0" />
            <path d=" M 724.725, 556.616 725.900, 553.963 726.539, 552.029 729.347, 545.296 733.323, 536.120 734.992, 532.269 737.052, 527.177 739.583, 518.095 739.624, 514.876 739.023, 512.321 737.532, 510.146 735.266, 507.034 729.900, 504.934 " fill="none" stroke="rgb(0, 0, 0)" stroke-linecap="butt" stroke-linejoin="round" stroke-opacity="1.0" stroke-width="3.0" />
            <path d=" M 674.967, 526.044 667.017, 527.392 666.271, 527.436 660.585, 527.770 660.572, 527.770 660.499, 527.775 654.442, 526.697 650.912, 524.924 648.404, 522.727 648.068, 522.662 647.796, 522.609 647.740, 522.599 647.636, 522.578 647.462, 522.545 643.497, 521.777 642.172, 521.521 638.083, 521.908 633.712, 524.408 632.341, 525.083 629.498, 527.353 625.529, 529.730 623.080, 531.809 618.820, 533.478 " fill="none" stroke="rgb(0, 0, 0)" stroke-linecap="butt" stroke-linejoin="round" stroke-opacity="1.0" stroke-width="3.0" />
            <path d=" M 821.155, 962.221 821.020, 962.273 820.937, 962.305 815.296, 964.476 814.095, 964.938 814.043, 964.958 813.542, 965.151 812.594, 965.316 810.768, 965.635 810.210, 965.732 807.436, 966.217 802.358, 967.103 799.595, 966.545 799.085, 966.287 796.434, 964.946 797.205, 954.976 797.284, 953.958 799.130, 948.111 801.273, 945.119 801.423, 944.910 801.424, 944.909 802.657, 943.186 802.846, 938.240 803.084, 939.869 803.085, 939.881 803.259, 941.070 803.704, 942.977 803.942, 943.996 804.243, 945.284 " fill="none" stroke="rgb(0, 0, 0)" stroke-linecap="butt" stroke-linejoin="round" stroke-opacity="1.0" stroke-width="3.0" />
            <path d=" M 918.578, 970.322 920.148, 967.746 921.697, 965.206 922.584, 960.966 924.030, 956.913 926.219, 951.499 927.964, 946.753 929.081, 943.934 929.240, 940.226 930.925, 935.815 933.570, 926.171 934.093, 924.264 934.511, 918.378 934.995, 911.578 " fill="none" stroke="rgb(0, 0, 0)" stroke-linecap="butt" stroke-linejoin="round" stroke-opacity="1.0" stroke-width="3.0" />
            <path d=" M 467.713, 696.661 473.904, 696.782 481.382, 696.041 491.313, 694.875 495.633, 694.367 498.212, 693.910 501.794, 691.196 502.144, 688.722 499.260, 685.524 497.923, 684.279 492.578, 681.438 491.498, 680.864 490.003, 679.942 489.353, 679.541 485.492, 677.158 485.226, 676.994 483.854, 676.147 482.032, 675.023 " fill="none" stroke="rgb(0, 0, 0)" stroke-linecap="butt" stroke-linejoin="round" stroke-opacity="1.0" stroke-width="3.0" />
            <path d=" M 360.489, 807.409 360.487, 807.564 360.486, 807.682 360.483, 807.943 360.466, 809.683 360.457, 810.541 361.340, 813.634 362.406, 816.418 364.558, 818.791 366.561, 818.910 368.506, 819.026 370.751, 819.160 371.010, 819.201 371.449, 819.272 372.781, 818.835 372.791, 818.832 372.831, 818.819 373.866, 818.479 374.022, 818.428 374.089, 818.301 374.232, 818.031 374.240, 818.016 374.288, 817.924 374.507, 817.510 374.523, 817.478 374.526, 817.474 375.580, 814.787 376.584, 809.868 376.405, 806.465 376.345, 805.320 376.793, 804.628 378.754, 801.597 379.297, 800.759 380.194, 799.374 380.673, 798.634 381.452, 795.861 381.469, 795.800 381.631, 793.103 382.062, 790.355 382.199, 789.486 387.786, 787.808 390.201, 784.949 " fill="none" stroke="rgb(0, 0, 0)" stroke-linecap="butt" stroke-linejoin="round" stroke-opacity="1.0" stroke-width="3.0" />
            <path d=" M 739.378, 813.714 734.787, 809.040 730.111, 803.298 726.505, 799.065 725.400, 797.768 718.636, 790.403 716.894, 788.506 712.832, 783.775 709.209, 780.906 705.444, 777.805 704.572, 777.087 701.774, 774.401 698.434, 769.857 698.083, 769.380 695.988, 766.530 " fill="none" stroke="rgb(0, 0, 0)" stroke-linecap="butt" stroke-linejoin="round" stroke-opacity="1.0" stroke-width="3.0" />
            <path d=" M 777.397, 550.808 782.067, 548.162 782.797, 547.749 781.879, 548.086 778.441, 549.350 773.877, 550.655 773.805, 550.675 773.151, 550.862 773.003, 550.905 768.804, 552.104 767.164, 552.632 763.211, 553.904 759.854, 554.648 759.814, 554.657 757.688, 555.129 756.135, 555.473 750.401, 556.420 748.865, 556.674 748.856, 556.675 747.268, 556.938 745.976, 556.927 739.353, 556.870 737.717, 556.856 730.550, 557.014 724.547, 557.145 724.490, 557.147 724.025, 557.157 " fill="none" stroke="rgb(0, 0, 0)" stroke-linecap="butt" stroke-linejoin="round" stroke-opacity="1.0" stroke-width="3.0" />
            <path d=" M 448.030, 719.326 450.333, 718.802 455.263, 717.680 458.685, 717.291 468.460, 715.179 468.737, 715.119 475.152, 712.903 484.504, 709.362 484.687, 709.292 484.194, 706.737 482.498, 702.968 482.420, 702.795 476.097, 699.820 467.713, 696.661 466.963, 696.379 465.385, 695.784 464.186, 695.333 462.779, 694.802 " fill="none" stroke="rgb(0, 0, 0)" stroke-linecap="butt" stroke-linejoin="round" stroke-opacity="1.0" stroke-width="3.0" />
            <path d=" M 552.699, 772.919 558.637, 770.351 564.300, 769.805 568.076, 769.168 568.122, 769.133 571.742, 766.388 572.288, 765.351 573.418, 762.884 573.480, 762.748 573.885, 761.863 574.152, 761.101 575.643, 756.839 576.749, 752.506 575.954, 748.318 573.090, 745.793 572.885, 745.714 571.405, 745.139 570.958, 744.966 563.721, 742.158 557.750, 741.184 556.698, 741.169 556.607, 741.168 556.204, 741.162 555.110, 741.147 553.713, 741.544 550.781, 742.379 " fill="none" stroke="rgb(0, 0, 0)" stroke-linecap="butt" stroke-linejoin="round" stroke-opacity="1.0" stroke-width="3.0" />
            <path d=" M 687.460, 799.971 686.455, 799.369 682.247, 796.848 676.506, 793.740 673.158, 791.981 669.693, 789.550 664.148, 786.505 663.090, 785.706 662.118, 784.972 658.626, 782.609 653.858, 779.113 653.007, 778.704 651.106, 777.789 649.633, 777.080 642.015, 771.532 635.225, 764.190 633.010, 761.794 632.925, 761.703 " fill="none" stroke="rgb(0, 0, 0)" stroke-linecap="butt" stroke-linejoin="round" stroke-opacity="1.0" stroke-width="3.0" />
            <path d=" M 705.444, 777.805 704.639, 771.001 703.755, 761.040 703.082, 753.452 702.570, 743.465 702.536, 742.794 702.311, 734.991 701.456, 732.877 699.887, 731.523 697.766, 732.016 691.380, 732.323 689.430, 733.156 687.704, 734.235 682.420, 739.373 " fill="none" stroke="rgb(0, 0, 0)" stroke-linecap="butt" stroke-linejoin="round" stroke-opacity="1.0" stroke-width="3.0" />
            <path d=" M 422.752, 870.429 427.663, 870.296 429.118, 869.068 431.553, 865.308 431.069, 860.435 426.869, 854.654 421.118, 846.473 420.132, 845.070 415.463, 836.227 415.376, 836.063 412.141, 827.549 411.141, 825.292 407.764, 821.039 407.752, 821.024 407.748, 821.019 406.962, 820.029 406.067, 818.902 403.867, 816.131 " fill="none" stroke="rgb(0, 0, 0)" stroke-linecap="butt" stroke-linejoin="round" stroke-opacity="1.0" stroke-width="3.0" />
            <path d=" M 731.205, 505.938 729.900, 504.934 726.934, 502.652 725.900, 502.578 721.484, 502.511 712.910, 505.495 712.257, 505.815 704.206, 509.710 700.575, 512.050 693.602, 516.419 684.852, 521.260 683.262, 522.140 679.205, 524.049 674.967, 526.044 673.540, 526.716 667.448, 528.588 666.572, 528.857 " fill="none" stroke="rgb(0, 0, 0)" stroke-linecap="butt" stroke-linejoin="round" stroke-opacity="1.0" stroke-width="3.0" />
            <path d=" M 713.062, 695.967 705.604, 699.907 705.240, 700.100 702.719, 702.488 702.268, 702.944 700.917, 704.986 699.673, 711.624 700.288, 720.331 702.215, 725.989 704.560, 730.452 707.541, 733.998 711.900, 738.800 717.894, 746.805 719.701, 749.218 722.043, 754.760 " fill="none" stroke="rgb(0, 0, 0)" stroke-linecap="butt" stroke-linejoin="round" stroke-opacity="1.0" stroke-width="3.0" />
            <path d=" M 348.719, 770.215 348.560, 770.598 347.979, 771.427 346.041, 775.180 344.677, 779.647 344.859, 782.289 344.358, 785.464 344.355, 788.511 343.245, 792.158 343.086, 794.980 342.662, 797.726 344.579, 803.590 346.917, 811.405 350.267, 817.918 353.047, 823.578 354.792, 827.619 355.666, 828.948 358.304, 833.440 359.529, 834.743 362.730, 837.534 363.715, 837.823 " fill="none" stroke="rgb(0, 0, 0)" stroke-linecap="butt" stroke-linejoin="round" stroke-opacity="1.0" stroke-width="3.0" />
            <path d=" M 835.537, 889.473 833.113, 888.523 832.419, 888.251 831.465, 887.877 831.463, 887.876 830.414, 887.465 829.453, 887.089 829.321, 887.037 828.654, 886.776 828.323, 886.655 822.142, 884.402 812.159, 883.815 810.598, 883.723 805.112, 883.856 800.052, 883.978 797.514, 884.757 795.418, 886.741 795.173, 890.812 796.590, 892.925 797.134, 893.737 797.564, 894.378 797.737, 894.637 799.580, 896.472 799.594, 896.485 799.980, 896.869 801.260, 898.144 802.176, 898.868 802.744, 899.317 804.197, 900.466 808.832, 902.591 809.320, 902.815 811.892, 903.994 819.451, 907.301 819.558, 907.348 " fill="none" stroke="rgb(0, 0, 0)" stroke-linecap="butt" stroke-linejoin="round" stroke-opacity="1.0" stroke-width="3.0" />
            <path d=" M 679.934, 598.386 685.140, 596.454 694.715, 593.567 696.203, 593.119 698.134, 592.395 705.648, 590.065 707.874, 589.566 711.621, 588.468 716.394, 586.846 718.300, 586.463 719.340, 586.253 724.441, 584.682 726.390, 584.230 731.148, 583.126 739.054, 580.493 743.354, 578.917 748.200, 577.369 752.868, 575.280 754.807, 574.412 " fill="none" stroke="rgb(0, 0, 0)" stroke-linecap="butt" stroke-linejoin="round" stroke-opacity="1.0" stroke-width="3.0" />
            <path d=" M 802.910, 765.874 802.375, 766.724 802.262, 766.904 802.076, 767.200 801.432, 768.225 801.362, 768.336 799.116, 769.225 798.637, 769.415 798.620, 769.422 798.359, 769.526 798.249, 769.569 798.201, 769.588 797.429, 769.455 797.068, 769.393 794.576, 768.964 794.168, 768.894 794.136, 768.888 792.450, 768.598 792.404, 768.590 792.194, 768.554 791.947, 768.512 791.927, 768.508 791.258, 768.393 791.013, 768.417 790.880, 768.431 790.656, 768.453 786.544, 768.859 782.008, 770.244 781.288, 770.464 779.731, 770.940 779.721, 770.943 778.734, 771.244 777.655, 771.574 777.580, 771.597 777.528, 771.613 777.121, 771.737 776.726, 771.858 776.625, 771.889 776.270, 771.997 775.172, 772.568 774.196, 773.077 764.717, 774.498 763.322, 775.606 763.207, 777.537 763.195, 777.741 763.093, 779.439 763.076, 779.724 763.050, 780.166 762.966, 781.559 766.572, 785.274 767.202, 785.645 767.489, 785.814 768.440, 786.374 768.541, 786.434 768.541, 786.434 768.578, 786.456 770.912, 787.830 770.950, 787.853 771.334, 788.079 772.281, 788.599 774.965, 790.073 781.163, 793.864 788.234, 795.688 788.798, 795.834 789.134, 795.920 789.300, 795.963 789.310, 795.965 789.828, 796.099 " fill="none" stroke="rgb(0, 0, 0)" stroke-linecap="butt" stroke-linejoin="round" stroke-opacity="1.0" stroke-width="3.0" />
            <path d=" M 713.363, 564.843 705.987, 564.910 704.909, 564.920 704.760, 564.921 704.586, 564.923 698.575, 565.968 698.494, 565.982 692.858, 566.963 683.093, 569.117 681.848, 569.392 672.055, 571.415 670.400, 571.757 667.224, 571.910 663.980, 572.207 659.579, 572.944 649.671, 574.296 649.103, 574.373 639.186, 575.660 636.188, 576.049 628.456, 577.119 627.986, 577.184 626.720, 577.359 626.533, 577.385 626.231, 577.427 625.935, 577.468 " fill="none" stroke="rgb(0, 0, 0)" stroke-linecap="butt" stroke-linejoin="round" stroke-opacity="1.0" stroke-width="3.0" />
            <path d=" M 830.926, 998.144 838.996, 998.862 843.460, 999.540 851.655, 998.008 851.971, 997.948 857.571, 997.064 861.749, 994.800 870.837, 992.218 872.057, 991.712 880.778, 988.047 889.590, 986.655 896.706, 984.244 902.881, 981.535 911.189, 975.970 911.581, 975.707 913.540, 974.842 917.377, 972.955 920.148, 967.746 " fill="none" stroke="rgb(0, 0, 0)" stroke-linecap="butt" stroke-linejoin="round" stroke-opacity="1.0" stroke-width="3.0" />
            <path d=" M 909.297, 538.999 909.677, 538.475 909.711, 536.494 909.661, 534.786 908.609, 533.080 908.183, 530.876 907.422, 528.467 906.746, 525.871 905.841, 523.488 903.299, 518.557 902.214, 515.852 898.993, 512.666 894.773, 507.655 889.163, 503.009 885.937, 500.760 882.332, 498.417 878.198, 496.015 873.318, 494.210 868.495, 492.351 862.380, 491.749 859.506, 491.398 852.529, 491.314 844.436, 492.607 838.481, 494.143 836.480, 494.859 834.065, 495.554 828.598, 497.912 827.243, 499.773 " fill="none" stroke="rgb(0, 0, 0)" stroke-linecap="butt" stroke-linejoin="round" stroke-opacity="1.0" stroke-width="3.0" />
            <path d=" M 889.598, 686.878 885.150, 681.082 883.613, 678.650 882.408, 676.742 881.439, 675.209 879.937, 672.264 878.927, 670.286 878.674, 669.789 876.073, 662.641 875.264, 659.250 873.995, 651.724 873.520, 646.526 873.424, 645.478 873.225, 643.298 872.859, 639.293 872.779, 637.780 873.414, 632.422 876.367, 622.869 876.898, 621.151 878.429, 617.290 879.344, 613.610 880.733, 609.971 881.120, 608.779 881.363, 608.030 881.566, 607.407 881.609, 607.274 881.617, 607.250 881.829, 606.597 881.893, 606.401 883.051, 602.834 884.486, 599.870 886.020, 596.701 887.518, 594.327 889.121, 590.245 890.888, 586.996 891.774, 584.981 892.226, 583.953 " fill="none" stroke="rgb(0, 0, 0)" stroke-linecap="butt" stroke-linejoin="round" stroke-opacity="1.0" stroke-width="3.0" />
            <path d=" M 403.678, 772.515 404.968, 772.455 405.106, 772.448 405.321, 772.439 406.215, 772.397 410.048, 771.750 415.596, 770.812 418.937, 770.322 427.824, 765.736 428.865, 765.199 431.353, 763.680 436.712, 760.909 444.900, 756.349 449.712, 754.550 458.011, 750.533 463.074, 748.438 465.019, 747.201 469.034, 744.646 469.918, 741.110 464.670, 737.354 454.675, 737.018 450.911, 736.892 449.272, 736.948 439.605, 737.280 438.061, 737.462 437.702, 737.504 435.292, 737.788 433.539, 737.994 427.542, 738.733 423.106, 739.279 422.985, 739.294 " fill="none" stroke="rgb(0, 0, 0)" stroke-linecap="butt" stroke-linejoin="round" stroke-opacity="1.0" stroke-width="3.0" />
            <path d=" M 749.078, 815.136 739.979, 813.802 739.952, 813.798 739.378, 813.714 737.631, 813.458 736.358, 813.625 734.781, 813.832 732.891, 814.382 732.161, 815.179 729.455, 818.134 730.392, 822.710 730.439, 822.943 731.130, 823.447 733.731, 825.346 735.434, 826.195 737.003, 826.977 737.243, 827.096 741.218, 829.076 742.975, 829.951 744.277, 830.600 745.609, 831.264 752.537, 834.794 753.574, 835.322 754.375, 835.730 755.026, 836.062 755.110, 836.104 755.353, 836.228 755.384, 836.244 755.622, 836.367 755.702, 836.408 756.115, 836.622 756.650, 836.899 756.850, 837.002 756.983, 837.071 757.035, 837.098 757.044, 837.103 757.050, 837.106 757.141, 837.153 757.757, 837.471 757.765, 837.476 758.038, 837.616 762.647, 840.001 765.291, 841.368 766.723, 842.006 769.742, 843.351 776.680, 846.442 784.865, 849.365 787.896, 850.447 793.847, 851.743 794.262, 851.833 804.033, 853.960 806.539, 854.506 816.527, 854.992 817.280, 855.028 817.763, 855.052 817.789, 855.053 817.792, 855.053 818.083, 855.067 819.323, 855.128 823.905, 853.498 825.008, 853.909 825.831, 854.216 826.409, 854.431 " fill="none" stroke="rgb(0, 0, 0)" stroke-linecap="butt" stroke-linejoin="round" stroke-opacity="1.0" stroke-width="3.0" />
            <path d=" M 415.560, 643.319 415.207, 643.653 407.948, 650.532 403.375, 654.865 397.079, 661.988 391.333, 668.836 384.494, 676.132 380.333, 680.572 378.476, 683.263 373.900, 690.004 369.666, 696.572 366.288, 702.154 362.745, 709.399 362.099, 710.894 359.165, 719.562 358.399, 722.204 356.336, 727.474 353.697, 737.119 352.964, 739.800 352.155, 745.352 351.003, 754.956 349.796, 762.525 348.968, 768.146 348.719, 770.215 347.920, 776.856 348.205, 779.010 " fill="none" stroke="rgb(0, 0, 0)" stroke-linecap="butt" stroke-linejoin="round" stroke-opacity="1.0" stroke-width="3.0" />
            <path d=" M 568.122, 769.133 568.470, 769.191 576.144, 770.650 585.930, 772.706 586.923, 772.915 590.259, 773.513 600.050, 775.544 603.414, 776.241 612.818, 779.642 613.064, 779.731 617.325, 781.997 625.268, 786.659 633.914, 791.683 636.642, 793.268 644.593, 798.762 652.988, 804.195 656.623, 806.548 661.890, 809.766 668.446, 813.615 669.436, 814.124 675.784, 817.503 685.080, 821.188 686.362, 821.696 695.783, 825.048 697.099, 825.516 702.289, 827.018 706.372, 828.058 714.237, 830.330 720.144, 831.758 726.977, 833.094 733.510, 833.839 " fill="none" stroke="rgb(0, 0, 0)" stroke-linecap="butt" stroke-linejoin="round" stroke-opacity="1.0" stroke-width="3.0" />
        </g>
    </g>
</svg>
