<?xml version='1.0' encoding='ascii'?>
<svg xmlns="http://www.w3.org/2000/svg" height="1280" version="1.1" width="1280">
    <g id="RenderLayer_LineSet" inkscape:groupmode="lineset" inkscape:label="RenderLayer_LineSet" xmlns:inkscape="http://www.inkscape.org/namespaces/inkscape">
        <g id="strokes" inkscape:groupmode="layer" inkscape:label="strokes" xmlns:inkscape="http://www.inkscape.org/namespaces/inkscape">
            <path d=" M 762.582, 961.791 761.464, 961.665 760.682, 961.576 760.586, 961.566 760.166, 961.518 759.531, 962.086 759.305, 962.288 759.282, 962.309 758.549, 962.965 758.018, 964.786 757.935, 965.072 758.006, 965.290 758.147, 965.719 758.180, 965.819 758.224, 965.954 758.728, 967.491 761.107, 971.760 761.320, 971.954 764.898, 975.211 765.252, 975.533 765.471, 975.733 " fill="none" stroke="rgb(0, 0, 0)" stroke-linecap="butt" stroke-linejoin="round" stroke-opacity="1.0" stroke-width="3.0" />
            <path d=" M 522.572, 725.472 523.163, 723.899 523.352, 723.398 523.850, 722.073 524.192, 721.023 524.334, 720.589 524.870, 718.943 525.042, 718.414 525.341, 717.227 525.369, 717.115 525.195, 712.597 523.226, 709.518 520.073, 708.344 " fill="none" stroke="rgb(0, 0, 0)" stroke-linecap="butt" stroke-linejoin="round" stroke-opacity="1.0" stroke-width="3.0" />
            <path d=" M 969.291, 826.285 969.162, 823.963 968.886, 819.016 969.291, 817.545 969.292, 817.541 970.312, 813.838 972.362, 806.392 " fill="none" stroke="rgb(0, 0, 0)" stroke-linecap="butt" stroke-linejoin="round" stroke-opacity="1.0" stroke-width="3.0" />
            <path d=" M 899.459, 721.980 901.765, 719.771 908.988, 712.855 914.182, 707.881 " fill="none" stroke="rgb(0, 0, 0)" stroke-linecap="butt" stroke-linejoin="round" stroke-opacity="1.0" stroke-width="3.0" />
            <path d=" M 612.923, 645.177 613.093, 644.852 615.140, 640.940 615.328, 640.487 615.370, 640.386 615.615, 639.795 615.428, 640.384 615.395, 640.487 613.958, 645.013 613.854, 645.343 613.844, 645.374 613.794, 645.532 613.763, 645.630 613.605, 646.126 613.529, 646.367 608.691, 648.583 606.466, 648.480 " fill="none" stroke="rgb(0, 0, 0)" stroke-linecap="butt" stroke-linejoin="round" stroke-opacity="1.0" stroke-width="3.0" />
            <path d=" M 964.538, 658.798 963.459, 657.486 961.139, 654.666 960.997, 654.493 960.980, 654.471 960.685, 654.114 959.724, 652.944 958.532, 651.495 951.950, 643.967 951.219, 643.131 " fill="none" stroke="rgb(0, 0, 0)" stroke-linecap="butt" stroke-linejoin="round" stroke-opacity="1.0" stroke-width="3.0" />
            <path d=" M 418.457, 586.317 425.569, 592.400 429.739, 595.019 435.082, 598.376 " fill="none" stroke="rgb(0, 0, 0)" stroke-linecap="butt" stroke-linejoin="round" stroke-opacity="1.0" stroke-width="3.0" />
            <path d=" M 386.050, 511.371 385.529, 511.676 385.242, 511.844 384.945, 512.017 384.156, 512.479 382.547, 513.086 381.118, 513.626 381.012, 513.666 380.821, 513.809 380.668, 513.924 380.519, 514.036 380.258, 514.232 378.175, 515.797 377.040, 516.650 375.252, 519.259 374.417, 521.251 374.391, 521.708 374.353, 522.380 374.353, 522.386 374.252, 524.161 374.214, 524.841 374.148, 526.021 " fill="none" stroke="rgb(0, 0, 0)" stroke-linecap="butt" stroke-linejoin="round" stroke-opacity="1.0" stroke-width="3.0" />
            <path d=" M 737.258, 644.128 739.836, 643.182 745.302, 641.174 752.985, 637.144 755.933, 635.444 " fill="none" stroke="rgb(0, 0, 0)" stroke-linecap="butt" stroke-linejoin="round" stroke-opacity="1.0" stroke-width="3.0" />
            <path d=" M 374.391, 521.708 367.317, 528.776 365.653, 530.439 364.389, 533.818 363.640, 535.875 362.778, 538.245 " fill="none" stroke="rgb(0, 0, 0)" stroke-linecap="butt" stroke-linejoin="round" stroke-opacity="1.0" stroke-width="3.0" />
            <path d=" M 482.472, 629.784 483.392, 631.056 485.511, 632.484 489.868, 634.764 493.791, 636.408 494.964, 637.067 500.554, 640.205 " fill="none" stroke="rgb(0, 0, 0)" stroke-linecap="butt" stroke-linejoin="round" stroke-opacity="1.0" stroke-width="3.0" />
            <path d=" M 920.671, 654.254 917.185, 655.584 915.178, 656.350 906.223, 659.766 901.217, 662.560 " fill="none" stroke="rgb(0, 0, 0)" stroke-linecap="butt" stroke-linejoin="round" stroke-opacity="1.0" stroke-width="3.0" />
            <path d=" M 517.750, 671.249 522.499, 674.139 527.680, 674.778 532.578, 676.174 537.811, 674.393 " fill="none" stroke="rgb(0, 0, 0)" stroke-linecap="butt" stroke-linejoin="round" stroke-opacity="1.0" stroke-width="3.0" />
            <path d=" M 372.525, 632.567 375.007, 638.201 378.910, 647.407 379.318, 648.368 380.291, 650.247 380.309, 650.282 381.082, 652.378 " fill="none" stroke="rgb(0, 0, 0)" stroke-linecap="butt" stroke-linejoin="round" stroke-opacity="1.0" stroke-width="3.0" />
            <path d=" M 902.114, 926.986 903.223, 926.342 904.189, 925.781 906.761, 924.286 906.988, 924.154 910.327, 922.214 913.596, 920.384 920.399, 915.185 " fill="none" stroke="rgb(0, 0, 0)" stroke-linecap="butt" stroke-linejoin="round" stroke-opacity="1.0" stroke-width="3.0" />
            <path d=" M 426.750, 631.269 428.782, 632.075 429.031, 632.174 433.368, 633.896 437.820, 633.510 438.525, 633.152 439.263, 632.887 442.683, 631.658 442.890, 629.762 440.901, 627.122 " fill="none" stroke="rgb(0, 0, 0)" stroke-linecap="butt" stroke-linejoin="round" stroke-opacity="1.0" stroke-width="3.0" />
            <path d=" M 636.219, 669.359 636.551, 669.303 641.648, 668.441 645.719, 667.520 646.736, 667.486 651.343, 667.334 651.470, 667.316 651.478, 667.314 655.114, 666.788 656.040, 666.520 656.046, 666.518 657.911, 665.977 " fill="none" stroke="rgb(0, 0, 0)" stroke-linecap="butt" stroke-linejoin="round" stroke-opacity="1.0" stroke-width="3.0" />
            <path d=" M 723.519, 812.969 718.199, 814.197 715.037, 814.936 719.670, 812.411 725.160, 810.760 727.584, 810.039 " fill="none" stroke="rgb(0, 0, 0)" stroke-linecap="butt" stroke-linejoin="round" stroke-opacity="1.0" stroke-width="3.0" />
            <path d=" M 637.960, 833.958 645.932, 838.735 647.796, 839.748 656.862, 843.968 657.773, 844.392 " fill="none" stroke="rgb(0, 0, 0)" stroke-linecap="butt" stroke-linejoin="round" stroke-opacity="1.0" stroke-width="3.0" />
            <path d=" M 877.907, 584.749 878.161, 584.311 878.165, 584.304 879.039, 582.796 879.058, 582.763 879.082, 582.723 879.390, 582.205 879.458, 582.090 879.477, 582.058 879.823, 581.477 880.064, 581.072 880.069, 581.063 879.512, 581.060 879.447, 581.060 877.640, 581.051 875.411, 581.040 874.639, 581.036 874.597, 581.037 874.528, 581.040 874.430, 581.043 874.425, 581.043 874.194, 581.052 874.053, 581.057 870.616, 581.181 869.683, 581.751 869.472, 581.880 868.241, 582.633 864.924, 584.661 864.867, 584.696 864.640, 584.835 863.049, 585.808 " fill="none" stroke="rgb(0, 0, 0)" stroke-linecap="butt" stroke-linejoin="round" stroke-opacity="1.0" stroke-width="3.0" />
            <path d=" M 699.378, 845.939 699.327, 842.266 699.349, 839.485 699.389, 834.437 698.668, 832.499 697.808, 832.286 695.668, 831.755 694.030, 831.415 689.813, 832.135 " fill="none" stroke="rgb(0, 0, 0)" stroke-linecap="butt" stroke-linejoin="round" stroke-opacity="1.0" stroke-width="3.0" />
            <path d=" M 917.374, 564.148 917.271, 564.084 908.760, 558.835 904.793, 556.389 897.848, 552.064 " fill="none" stroke="rgb(0, 0, 0)" stroke-linecap="butt" stroke-linejoin="round" stroke-opacity="1.0" stroke-width="3.0" />
            <path d=" M 357.356, 576.919 357.465, 581.980 358.221, 585.581 358.294, 585.931 358.654, 587.644 358.664, 587.694 358.729, 588.006 359.034, 589.456 360.173, 599.391 360.205, 599.671 " fill="none" stroke="rgb(0, 0, 0)" stroke-linecap="butt" stroke-linejoin="round" stroke-opacity="1.0" stroke-width="3.0" />
            <path d=" M 461.665, 692.813 461.895, 693.043 462.006, 693.155 466.826, 697.989 470.871, 702.370 473.586, 704.005 474.152, 704.346 474.238, 704.398 474.275, 704.413 477.845, 705.872 480.003, 706.755 " fill="none" stroke="rgb(0, 0, 0)" stroke-linecap="butt" stroke-linejoin="round" stroke-opacity="1.0" stroke-width="3.0" />
            <path d=" M 652.616, 649.514 657.089, 646.739 657.129, 646.714 657.146, 646.703 659.390, 645.311 659.394, 645.308 665.222, 641.692 672.494, 636.527 " fill="none" stroke="rgb(0, 0, 0)" stroke-linecap="butt" stroke-linejoin="round" stroke-opacity="1.0" stroke-width="3.0" />
            <path d=" M 715.037, 814.936 712.659, 815.976 711.335, 816.661 707.490, 819.192 701.458, 823.236 700.683, 825.108 698.467, 830.465 " fill="none" stroke="rgb(0, 0, 0)" stroke-linecap="butt" stroke-linejoin="round" stroke-opacity="1.0" stroke-width="3.0" />
            <path d=" M 828.523, 932.807 827.247, 931.385 827.238, 931.375 826.345, 930.380 823.905, 926.829 821.983, 922.381 821.455, 919.932 821.102, 918.954 820.137, 916.274 818.671, 911.436 " fill="none" stroke="rgb(0, 0, 0)" stroke-linecap="butt" stroke-linejoin="round" stroke-opacity="1.0" stroke-width="3.0" />
            <path d=" M 815.340, 645.344 812.882, 647.997 810.164, 651.131 805.964, 655.972 805.160, 656.898 803.736, 657.974 801.947, 659.327 801.367, 660.104 799.482, 662.419 799.172, 662.799 " fill="none" stroke="rgb(0, 0, 0)" stroke-linecap="butt" stroke-linejoin="round" stroke-opacity="1.0" stroke-width="3.0" />
            <path d=" M 490.575, 769.767 493.494, 771.990 500.001, 776.731 503.210, 779.571 506.929, 781.800 508.694, 783.322 509.611, 784.112 " fill="none" stroke="rgb(0, 0, 0)" stroke-linecap="butt" stroke-linejoin="round" stroke-opacity="1.0" stroke-width="3.0" />
            <path d=" M 976.502, 828.197 976.549, 828.008 976.601, 827.795 977.479, 824.220 977.760, 823.077 978.119, 821.615 978.186, 821.344 978.541, 819.897 979.350, 815.998 979.369, 815.910 979.608, 814.756 980.135, 812.219 980.146, 812.163 980.166, 812.120 980.361, 811.710 983.357, 805.383 " fill="none" stroke="rgb(0, 0, 0)" stroke-linecap="butt" stroke-linejoin="round" stroke-opacity="1.0" stroke-width="3.0" />
            <path d=" M 567.123, 816.977 571.865, 821.760 579.105, 828.326 579.750, 828.911 585.244, 832.795 " fill="none" stroke="rgb(0, 0, 0)" stroke-linecap="butt" stroke-linejoin="round" stroke-opacity="1.0" stroke-width="3.0" />
            <path d=" M 700.640, 676.658 701.031, 677.431 703.869, 680.960 708.135, 684.379 711.516, 685.155 711.904, 685.343 714.521, 686.011 715.044, 685.825 716.192, 685.240 718.067, 680.746 " fill="none" stroke="rgb(0, 0, 0)" stroke-linecap="butt" stroke-linejoin="round" stroke-opacity="1.0" stroke-width="3.0" />
            <path d=" M 390.577, 670.375 390.964, 671.030 393.178, 675.577 395.152, 678.217 398.866, 683.958 403.414, 689.016 404.431, 690.147 " fill="none" stroke="rgb(0, 0, 0)" stroke-linecap="butt" stroke-linejoin="round" stroke-opacity="1.0" stroke-width="3.0" />
            <path d=" M 982.159, 749.549 982.848, 742.398 982.951, 741.325 983.225, 738.484 983.767, 728.498 983.780, 728.245 983.709, 725.341 " fill="none" stroke="rgb(0, 0, 0)" stroke-linecap="butt" stroke-linejoin="round" stroke-opacity="1.0" stroke-width="3.0" />
            <path d=" M 789.821, 778.310 791.451, 777.671 792.769, 777.155 794.100, 776.633 794.121, 776.625 794.644, 776.420 795.529, 776.073 795.548, 776.074 795.680, 776.076 795.691, 776.076 795.977, 776.080 797.615, 776.105 797.975, 776.110 798.085, 776.112 799.010, 776.126 800.280, 776.145 801.386, 776.162 804.938, 776.252 805.026, 776.254 805.037, 776.254 805.387, 776.263 805.715, 776.357 805.965, 776.428 806.018, 776.443 806.944, 776.706 807.159, 776.767 807.307, 776.810 807.333, 776.817 808.718, 777.211 809.344, 777.390 810.732, 778.657 811.646, 779.492 811.932, 779.753 812.032, 779.844 812.086, 779.893 812.451, 780.227 " fill="none" stroke="rgb(0, 0, 0)" stroke-linecap="butt" stroke-linejoin="round" stroke-opacity="1.0" stroke-width="3.0" />
            <path d=" M 729.288, 729.490 729.933, 730.225 730.273, 730.613 732.559, 733.221 739.872, 737.837 746.272, 738.478 748.861, 738.262 750.663, 738.112 " fill="none" stroke="rgb(0, 0, 0)" stroke-linecap="butt" stroke-linejoin="round" stroke-opacity="1.0" stroke-width="3.0" />
            <path d=" M 770.137, 644.669 768.657, 648.072 767.434, 651.105 767.243, 652.804 768.072, 655.741 767.954, 658.299 769.028, 661.588 770.350, 664.002 770.491, 664.259 770.547, 664.361 770.790, 664.650 770.826, 664.693 770.893, 664.772 771.211, 665.150 771.259, 665.208 771.607, 665.620 771.607, 665.621 771.632, 665.633 773.464, 666.487 " fill="none" stroke="rgb(0, 0, 0)" stroke-linecap="butt" stroke-linejoin="round" stroke-opacity="1.0" stroke-width="3.0" />
            <path d=" M 836.771, 959.753 838.331, 958.966 840.313, 956.656 840.526, 956.435 842.756, 954.121 843.466, 953.018 847.741, 949.102 851.791, 945.132 854.916, 942.536 " fill="none" stroke="rgb(0, 0, 0)" stroke-linecap="butt" stroke-linejoin="round" stroke-opacity="1.0" stroke-width="3.0" />
            <path d=" M 588.144, 747.784 585.619, 744.116 585.313, 743.681 588.073, 746.457 595.343, 747.252 596.060, 749.162 596.002, 750.613 595.646, 753.287 594.637, 754.998 594.219, 755.708 " fill="none" stroke="rgb(0, 0, 0)" stroke-linecap="butt" stroke-linejoin="round" stroke-opacity="1.0" stroke-width="3.0" />
            <path d=" M 705.977, 870.878 706.475, 871.851 710.244, 879.159 713.989, 884.260 720.667, 891.378 " fill="none" stroke="rgb(0, 0, 0)" stroke-linecap="butt" stroke-linejoin="round" stroke-opacity="1.0" stroke-width="3.0" />
            <path d=" M 905.426, 820.816 911.941, 821.248 913.483, 821.350 917.797, 821.313 920.327, 821.291 921.711, 820.787 921.875, 820.728 926.293, 819.121 928.222, 818.730 929.329, 818.505 929.403, 818.490 930.872, 818.192 " fill="none" stroke="rgb(0, 0, 0)" stroke-linecap="butt" stroke-linejoin="round" stroke-opacity="1.0" stroke-width="3.0" />
            <path d=" M 584.891, 772.006 586.575, 771.775 586.995, 771.717 587.644, 771.628 587.717, 771.618 588.214, 771.550 590.235, 770.887 591.323, 770.356 594.624, 768.747 596.843, 766.873 597.903, 765.131 597.474, 762.112 595.978, 758.191 594.637, 754.998 " fill="none" stroke="rgb(0, 0, 0)" stroke-linecap="butt" stroke-linejoin="round" stroke-opacity="1.0" stroke-width="3.0" />
            <path d=" M 988.574, 771.002 988.376, 767.976 987.892, 763.210 987.795, 762.259 987.901, 763.196 989.022, 773.133 989.062, 773.486 990.382, 779.402 " fill="none" stroke="rgb(0, 0, 0)" stroke-linecap="butt" stroke-linejoin="round" stroke-opacity="1.0" stroke-width="3.0" />
            <path d=" M 722.889, 669.837 727.404, 660.914 728.422, 658.902 730.421, 653.665 734.181, 646.253 " fill="none" stroke="rgb(0, 0, 0)" stroke-linecap="butt" stroke-linejoin="round" stroke-opacity="1.0" stroke-width="3.0" />
            <path d=" M 749.475, 899.768 750.387, 898.650 750.682, 898.287 751.464, 897.328 751.534, 897.242 751.813, 896.791 751.814, 896.788 751.842, 896.743 752.853, 895.106 752.869, 893.016 752.891, 890.171 751.656, 886.884 750.157, 885.729 749.213, 885.002 748.008, 884.073 745.519, 881.995 744.778, 881.377 744.732, 881.339 744.729, 881.337 744.567, 881.201 742.315, 879.281 " fill="none" stroke="rgb(0, 0, 0)" stroke-linecap="butt" stroke-linejoin="round" stroke-opacity="1.0" stroke-width="3.0" />
            <path d=" M 944.853, 659.660 944.807, 653.392 944.805, 649.892 944.805, 649.892 944.803, 647.032 944.534, 643.041 944.483, 642.292 944.474, 642.146 944.469, 642.085 944.460, 641.949 944.339, 640.152 944.129, 637.095 943.871, 633.349 " fill="none" stroke="rgb(0, 0, 0)" stroke-linecap="butt" stroke-linejoin="round" stroke-opacity="1.0" stroke-width="3.0" />
            <path d=" M 429.739, 595.019 435.327, 599.223 443.627, 604.801 445.182, 605.846 448.223, 607.619 451.835, 609.725 " fill="none" stroke="rgb(0, 0, 0)" stroke-linecap="butt" stroke-linejoin="round" stroke-opacity="1.0" stroke-width="3.0" />
            <path d=" M 779.307, 645.925 777.215, 649.050 776.341, 651.285 774.727, 657.477 775.310, 662.484 777.800, 663.094 779.248, 662.605 783.264, 662.664 783.327, 662.665 784.013, 662.675 784.283, 662.520 " fill="none" stroke="rgb(0, 0, 0)" stroke-linecap="butt" stroke-linejoin="round" stroke-opacity="1.0" stroke-width="3.0" />
            <path d=" M 969.291, 817.545 971.287, 812.619 974.144, 804.501 974.211, 804.303 976.883, 795.231 977.775, 791.575 " fill="none" stroke="rgb(0, 0, 0)" stroke-linecap="butt" stroke-linejoin="round" stroke-opacity="1.0" stroke-width="3.0" />
            <path d=" M 385.448, 557.962 385.336, 557.302 384.447, 552.033 384.638, 550.922 385.622, 545.212 386.538, 539.758 385.014, 534.279 384.987, 534.184 385.094, 533.840 385.919, 531.182 " fill="none" stroke="rgb(0, 0, 0)" stroke-linecap="butt" stroke-linejoin="round" stroke-opacity="1.0" stroke-width="3.0" />
            <path d=" M 562.618, 740.440 564.023, 737.162 564.116, 736.943 564.188, 736.774 565.316, 734.143 564.734, 732.161 563.884, 731.231 563.178, 730.516 560.881, 728.738 557.547, 728.170 547.863, 730.945 " fill="none" stroke="rgb(0, 0, 0)" stroke-linecap="butt" stroke-linejoin="round" stroke-opacity="1.0" stroke-width="3.0" />
            <path d=" M 397.714, 504.091 397.239, 503.905 396.698, 503.694 396.615, 503.662 396.599, 503.656 396.571, 503.645 396.438, 503.593 395.648, 503.285 393.585, 502.480 390.301, 500.399 386.545, 501.355 381.731, 505.729 380.276, 508.916 380.466, 513.887 380.310, 514.146 380.258, 514.232 " fill="none" stroke="rgb(0, 0, 0)" stroke-linecap="butt" stroke-linejoin="round" stroke-opacity="1.0" stroke-width="3.0" />
            <path d=" M 907.811, 587.147 911.930, 591.539 915.044, 594.860 917.249, 597.212 921.990, 601.333 924.161, 603.220 926.162, 604.960 926.490, 605.245 927.675, 606.276 " fill="none" stroke="rgb(0, 0, 0)" stroke-linecap="butt" stroke-linejoin="round" stroke-opacity="1.0" stroke-width="3.0" />
            <path d=" M 873.210, 937.408 878.347, 936.677 880.860, 935.773 885.314, 934.951 887.149, 934.064 893.424, 931.562 896.575, 930.045 896.860, 929.907 899.514, 928.628 " fill="none" stroke="rgb(0, 0, 0)" stroke-linecap="butt" stroke-linejoin="round" stroke-opacity="1.0" stroke-width="3.0" />
            <path d=" M 565.025, 638.661 574.798, 640.778 575.711, 640.976 581.052, 641.905 590.797, 644.150 591.842, 644.390 592.528, 644.479 " fill="none" stroke="rgb(0, 0, 0)" stroke-linecap="butt" stroke-linejoin="round" stroke-opacity="1.0" stroke-width="3.0" />
            <path d=" M 362.473, 610.215 363.141, 612.457 365.618, 619.883 365.651, 619.948 365.667, 619.980 368.791, 626.166 370.492, 628.898 372.248, 632.067 372.525, 632.567 374.364, 635.887 " fill="none" stroke="rgb(0, 0, 0)" stroke-linecap="butt" stroke-linejoin="round" stroke-opacity="1.0" stroke-width="3.0" />
            <path d=" M 756.840, 622.451 756.182, 626.770 756.254, 627.694 756.442, 629.010 757.700, 629.749 758.127, 630.000 758.682, 630.216 759.384, 630.489 759.865, 630.676 760.940, 631.094 761.917, 631.474 762.646, 631.555 770.456, 632.426 776.458, 630.759 778.261, 631.150 " fill="none" stroke="rgb(0, 0, 0)" stroke-linecap="butt" stroke-linejoin="round" stroke-opacity="1.0" stroke-width="3.0" />
            <path d=" M 515.312, 717.875 515.302, 716.105 516.725, 712.334 517.288, 710.841 517.623, 710.542 520.052, 708.374 520.073, 708.344 522.105, 705.472 522.596, 701.355 520.577, 699.415 519.040, 699.004 512.672, 698.014 " fill="none" stroke="rgb(0, 0, 0)" stroke-linecap="butt" stroke-linejoin="round" stroke-opacity="1.0" stroke-width="3.0" />
            <path d=" M 356.457, 548.535 354.556, 552.069 354.991, 553.808 355.089, 556.260 355.705, 561.732 356.050, 568.192 357.356, 576.919 357.465, 577.647 " fill="none" stroke="rgb(0, 0, 0)" stroke-linecap="butt" stroke-linejoin="round" stroke-opacity="1.0" stroke-width="3.0" />
            <path d=" M 424.792, 603.627 418.989, 597.212 414.253, 591.263 413.173, 590.025 411.335, 587.917 411.076, 587.621 410.885, 587.402 410.837, 587.347 410.517, 586.980 410.467, 586.923 410.395, 586.840 410.004, 586.658 409.584, 586.462 409.337, 586.347 409.165, 586.266 407.292, 585.393 406.541, 585.043 405.921, 584.754 405.669, 584.578 404.980, 584.097 404.912, 584.050 404.908, 584.047 404.543, 583.792 403.519, 583.079 " fill="none" stroke="rgb(0, 0, 0)" stroke-linecap="butt" stroke-linejoin="round" stroke-opacity="1.0" stroke-width="3.0" />
            <path d=" M 507.395, 712.294 507.624, 707.492 508.149, 706.274 508.155, 706.262 508.655, 705.102 508.665, 705.079 509.833, 703.600 513.061, 699.514 512.867, 698.767 512.672, 698.014 512.382, 696.897 509.749, 695.027 502.104, 695.266 499.863, 695.477 " fill="none" stroke="rgb(0, 0, 0)" stroke-linecap="butt" stroke-linejoin="round" stroke-opacity="1.0" stroke-width="3.0" />
            <path d=" M 525.626, 605.530 526.886, 605.750 527.227, 605.810 527.527, 605.862 528.563, 606.044 529.101, 606.138 529.785, 606.341 531.483, 606.844 532.479, 607.139 541.792, 608.706 543.873, 607.426 546.068, 606.075 546.753, 605.305 546.949, 605.086 547.394, 602.054 547.404, 601.987 547.091, 601.152 546.968, 600.824 546.641, 599.951 546.347, 599.164 545.852, 597.761 545.816, 597.658 " fill="none" stroke="rgb(0, 0, 0)" stroke-linecap="butt" stroke-linejoin="round" stroke-opacity="1.0" stroke-width="3.0" />
            <path d=" M 586.045, 637.180 589.598, 639.449 591.352, 642.460 591.376, 642.501 591.863, 643.338 592.528, 644.479 592.654, 644.696 595.052, 647.164 601.731, 650.966 604.822, 650.529 606.466, 648.480 606.718, 648.166 606.818, 646.697 606.885, 645.709 606.940, 644.908 " fill="none" stroke="rgb(0, 0, 0)" stroke-linecap="butt" stroke-linejoin="round" stroke-opacity="1.0" stroke-width="3.0" />
            <path d=" M 630.922, 867.914 632.567, 868.755 636.230, 870.628 642.682, 876.108 648.352, 880.923 654.500, 887.125 654.670, 887.296 " fill="none" stroke="rgb(0, 0, 0)" stroke-linecap="butt" stroke-linejoin="round" stroke-opacity="1.0" stroke-width="3.0" />
            <path d=" M 607.043, 670.776 609.411, 670.305 615.214, 669.151 617.570, 668.531 620.369, 668.360 624.419, 669.747 628.491, 672.382 630.639, 672.288 633.182, 671.607 631.356, 671.875 631.178, 671.890 629.599, 672.025 " fill="none" stroke="rgb(0, 0, 0)" stroke-linecap="butt" stroke-linejoin="round" stroke-opacity="1.0" stroke-width="3.0" />
            <path d=" M 988.595, 646.655 983.683, 643.218 981.013, 641.786 976.619, 640.155 972.964, 640.534 971.674, 640.897 968.027, 643.135 966.188, 646.271 963.657, 650.257 " fill="none" stroke="rgb(0, 0, 0)" stroke-linecap="butt" stroke-linejoin="round" stroke-opacity="1.0" stroke-width="3.0" />
            <path d=" M 715.158, 764.379 714.956, 765.638 715.395, 766.728 717.345, 771.571 717.561, 772.108 717.567, 772.122 717.588, 772.174 718.316, 773.983 718.481, 774.391 719.503, 776.930 723.072, 778.762 723.159, 778.806 723.448, 778.954 723.828, 779.150 724.395, 779.242 724.513, 779.261 724.968, 779.334 732.163, 780.501 732.542, 780.562 733.452, 780.710 733.495, 780.716 733.971, 780.997 734.091, 781.067 734.725, 781.440 735.084, 781.652 736.306, 782.371 " fill="none" stroke="rgb(0, 0, 0)" stroke-linecap="butt" stroke-linejoin="round" stroke-opacity="1.0" stroke-width="3.0" />
            <path d=" M 541.692, 749.769 544.232, 746.725 546.283, 740.796 547.369, 736.817 547.469, 736.449 547.831, 735.121 547.879, 732.058 547.863, 730.945 547.831, 728.597 546.889, 725.912 545.352, 724.581 543.000, 723.399 541.538, 722.682 " fill="none" stroke="rgb(0, 0, 0)" stroke-linecap="butt" stroke-linejoin="round" stroke-opacity="1.0" stroke-width="3.0" />
            <path d=" M 756.768, 611.315 757.304, 615.219 757.314, 615.294 757.440, 616.215 759.159, 617.746 759.290, 617.810 761.613, 618.932 762.340, 619.284 762.428, 619.327 762.438, 619.331 763.113, 619.658 765.766, 620.158 768.689, 620.571 769.668, 620.709 776.411, 620.544 776.422, 620.544 778.955, 620.482 779.120, 620.478 779.696, 620.464 780.609, 621.290 780.809, 621.471 781.310, 622.057 781.534, 622.320 782.253, 623.162 " fill="none" stroke="rgb(0, 0, 0)" stroke-linecap="butt" stroke-linejoin="round" stroke-opacity="1.0" stroke-width="3.0" />
            <path d=" M 824.159, 982.230 824.762, 981.803 827.487, 979.874 831.120, 977.019 834.111, 974.315 836.847, 971.173 838.157, 968.134 837.502, 966.823 839.037, 964.110 840.399, 960.662 840.509, 959.372 840.545, 956.574 840.526, 956.435 " fill="none" stroke="rgb(0, 0, 0)" stroke-linecap="butt" stroke-linejoin="round" stroke-opacity="1.0" stroke-width="3.0" />
            <path d=" M 409.465, 695.756 409.811, 696.242 416.953, 703.241 418.529, 704.785 421.151, 706.878 425.682, 711.442 431.262, 717.010 431.692, 717.438 432.960, 718.703 " fill="none" stroke="rgb(0, 0, 0)" stroke-linecap="butt" stroke-linejoin="round" stroke-opacity="1.0" stroke-width="3.0" />
            <path d=" M 711.708, 775.322 708.819, 777.867 707.799, 779.655 707.769, 780.915 711.331, 788.271 711.878, 789.399 712.439, 790.559 716.015, 792.376 718.438, 793.607 719.239, 794.014 720.568, 794.689 722.522, 796.070 723.752, 796.939 725.136, 797.994 725.498, 798.270 " fill="none" stroke="rgb(0, 0, 0)" stroke-linecap="butt" stroke-linejoin="round" stroke-opacity="1.0" stroke-width="3.0" />
            <path d=" M 451.992, 558.810 454.965, 557.783 455.896, 557.462 459.315, 556.281 460.638, 555.824 462.589, 554.530 462.787, 554.399 466.579, 551.884 466.637, 551.834 468.034, 550.646 468.164, 550.542 468.334, 550.406 468.570, 550.217 469.829, 549.212 469.804, 546.602 467.531, 544.554 460.490, 543.641 460.205, 543.604 " fill="none" stroke="rgb(0, 0, 0)" stroke-linecap="butt" stroke-linejoin="round" stroke-opacity="1.0" stroke-width="3.0" />
            <path d=" M 987.437, 756.650 987.466, 754.271 987.475, 752.777 987.483, 751.575 987.485, 751.186 987.485, 751.183 987.509, 747.299 987.516, 746.184 987.510, 746.082 987.491, 745.750 987.422, 744.534 987.420, 744.490 987.417, 744.435 987.159, 739.876 987.117, 739.142 987.037, 737.724 987.037, 737.719 987.026, 737.520 986.684, 735.254 986.647, 735.012 986.057, 731.101 984.749, 725.528 984.671, 725.195 984.235, 723.336 " fill="none" stroke="rgb(0, 0, 0)" stroke-linecap="butt" stroke-linejoin="round" stroke-opacity="1.0" stroke-width="3.0" />
            <path d=" M 615.615, 639.795 616.416, 637.041 614.708, 633.814 614.699, 633.798 613.991, 632.459 613.500, 632.051 609.603, 628.812 607.302, 626.900 605.160, 625.546 600.938, 624.444 597.228, 624.341 595.272, 624.820 590.896, 625.992 " fill="none" stroke="rgb(0, 0, 0)" stroke-linecap="butt" stroke-linejoin="round" stroke-opacity="1.0" stroke-width="3.0" />
            <path d=" M 491.941, 726.526 494.123, 728.514 495.380, 729.659 496.067, 730.285 497.073, 731.363 498.007, 732.364 501.069, 734.360 501.514, 734.650 504.038, 736.295 507.282, 737.035 507.939, 737.034 508.236, 737.033 508.553, 737.033 509.331, 737.032 511.828, 737.028 514.053, 736.451 517.076, 735.042 518.051, 733.969 518.241, 733.760 520.464, 731.315 " fill="none" stroke="rgb(0, 0, 0)" stroke-linecap="butt" stroke-linejoin="round" stroke-opacity="1.0" stroke-width="3.0" />
            <path d=" M 618.271, 822.703 619.929, 823.746 624.028, 826.677 624.200, 826.800 630.509, 830.756 633.634, 832.716 635.470, 833.867 635.492, 833.877 644.517, 838.183 647.796, 839.748 " fill="none" stroke="rgb(0, 0, 0)" stroke-linecap="butt" stroke-linejoin="round" stroke-opacity="1.0" stroke-width="3.0" />
            <path d=" M 532.666, 631.479 535.750, 632.508 545.510, 634.685 547.785, 635.192 553.197, 636.697 563.062, 638.335 565.025, 638.661 566.671, 638.934 " fill="none" stroke="rgb(0, 0, 0)" stroke-linecap="butt" stroke-linejoin="round" stroke-opacity="1.0" stroke-width="3.0" />
            <path d=" M 428.738, 536.212 429.445, 535.653 431.834, 533.765 438.115, 528.801 439.564, 527.656 444.754, 520.980 448.158, 518.425 454.065, 512.439 " fill="none" stroke="rgb(0, 0, 0)" stroke-linecap="butt" stroke-linejoin="round" stroke-opacity="1.0" stroke-width="3.0" />
            <path d=" M 991.657, 717.050 993.859, 714.624 994.459, 713.963 994.209, 708.193 994.658, 703.917 994.156, 699.049 993.358, 694.434 992.393, 691.630 992.209, 688.282 990.935, 683.256 " fill="none" stroke="rgb(0, 0, 0)" stroke-linecap="butt" stroke-linejoin="round" stroke-opacity="1.0" stroke-width="3.0" />
            <path d=" M 492.319, 701.286 493.854, 700.805 494.416, 700.629 494.464, 700.614 497.009, 699.817 498.068, 699.486 498.707, 698.058 498.720, 698.030 498.861, 697.714 499.673, 695.903 499.725, 695.785 499.863, 695.477 500.199, 694.728 499.209, 692.759 495.649, 689.765 493.865, 689.033 486.899, 683.864 479.547, 681.546 " fill="none" stroke="rgb(0, 0, 0)" stroke-linecap="butt" stroke-linejoin="round" stroke-opacity="1.0" stroke-width="3.0" />
            <path d=" M 986.828, 800.003 988.157, 797.216 988.241, 797.040 988.732, 796.010 989.957, 793.388 990.025, 790.648 990.040, 789.086 990.501, 785.428 990.654, 784.213 990.770, 783.296 990.382, 779.402 991.011, 782.208 990.979, 784.956 991.096, 787.239 991.159, 788.447 991.147, 789.708 990.692, 792.623 990.518, 793.161 990.365, 793.631 990.062, 794.563 " fill="none" stroke="rgb(0, 0, 0)" stroke-linecap="butt" stroke-linejoin="round" stroke-opacity="1.0" stroke-width="3.0" />
            <path d=" M 535.028, 738.349 535.321, 736.377 535.695, 733.852 538.010, 730.496 538.938, 729.076 539.292, 728.535 540.557, 725.887 541.409, 724.102 541.457, 723.578 541.538, 722.682 541.718, 720.701 540.408, 718.907 534.896, 717.564 528.301, 716.950 525.341, 717.227 " fill="none" stroke="rgb(0, 0, 0)" stroke-linecap="butt" stroke-linejoin="round" stroke-opacity="1.0" stroke-width="3.0" />
            <path d=" M 676.872, 854.874 677.560, 855.589 682.947, 859.744 689.460, 863.715 692.986, 865.469 693.013, 865.482 693.383, 865.666 693.927, 865.937 698.263, 868.094 698.823, 868.372 700.174, 868.995 701.743, 869.717 705.977, 870.878 709.390, 871.814 " fill="none" stroke="rgb(0, 0, 0)" stroke-linecap="butt" stroke-linejoin="round" stroke-opacity="1.0" stroke-width="3.0" />
            <path d=" M 855.813, 587.216 855.764, 586.902 855.412, 584.663 855.965, 583.679 856.057, 583.514 856.827, 582.145 857.013, 581.814 857.354, 581.207 857.711, 580.571 857.740, 580.520 858.058, 579.953 858.086, 579.904 859.237, 577.856 859.778, 577.283 859.781, 577.280 860.405, 576.620 861.033, 575.957 862.392, 574.521 864.370, 572.430 864.972, 571.782 865.457, 571.260 865.468, 571.249 865.476, 571.240 867.711, 568.834 868.145, 568.367 868.168, 568.343 868.304, 568.196 868.332, 568.166 869.036, 567.408 870.435, 565.903 875.670, 560.724 875.723, 560.671 878.161, 558.259 " fill="none" stroke="rgb(0, 0, 0)" stroke-linecap="butt" stroke-linejoin="round" stroke-opacity="1.0" stroke-width="3.0" />
            <path d=" M 452.850, 513.209 454.065, 512.439 456.134, 511.129 464.456, 505.568 473.553, 501.417 473.770, 501.318 479.596, 500.030 481.940, 498.138 485.590, 495.191 " fill="none" stroke="rgb(0, 0, 0)" stroke-linecap="butt" stroke-linejoin="round" stroke-opacity="1.0" stroke-width="3.0" />
            <path d=" M 753.876, 694.151 752.893, 694.782 752.135, 695.268 752.370, 695.729 753.960, 698.849 754.368, 699.649 757.616, 701.706 763.217, 705.255 767.992, 708.183 770.967, 708.286 774.968, 708.818 775.331, 708.866 776.056, 708.963 776.295, 708.995 776.321, 708.998 777.531, 709.159 777.711, 709.183 777.848, 709.294 777.851, 709.296 781.083, 711.911 781.168, 712.168 781.312, 712.603 " fill="none" stroke="rgb(0, 0, 0)" stroke-linecap="butt" stroke-linejoin="round" stroke-opacity="1.0" stroke-width="3.0" />
            <path d=" M 651.470, 667.316 657.065, 668.851 660.564, 670.647 660.644, 670.688 663.435, 672.650 666.592, 673.382 668.773, 673.406 673.194, 674.482 678.537, 674.036 683.360, 672.863 688.229, 671.568 " fill="none" stroke="rgb(0, 0, 0)" stroke-linecap="butt" stroke-linejoin="round" stroke-opacity="1.0" stroke-width="3.0" />
            <path d=" M 601.561, 813.524 603.242, 814.340 605.415, 815.395 607.734, 816.520 610.841, 818.029 610.844, 818.030 615.476, 820.279 620.538, 823.992 618.271, 822.703 609.577, 817.762 608.529, 817.166 608.102, 816.923 605.415, 815.395 " fill="none" stroke="rgb(0, 0, 0)" stroke-linecap="butt" stroke-linejoin="round" stroke-opacity="1.0" stroke-width="3.0" />
            <path d=" M 896.596, 929.861 897.614, 929.431 899.514, 928.628 899.954, 928.442 900.134, 928.329 903.521, 926.205 911.091, 922.384 914.088, 920.871 921.425, 915.570 926.129, 911.698 929.375, 908.475 " fill="none" stroke="rgb(0, 0, 0)" stroke-linecap="butt" stroke-linejoin="round" stroke-opacity="1.0" stroke-width="3.0" />
            <path d=" M 513.214, 586.247 514.027, 585.807 514.565, 585.517 515.577, 584.970 517.636, 583.858 518.198, 583.554 519.712, 583.201 523.442, 582.333 525.208, 581.922 525.299, 581.901 526.736, 581.566 528.856, 579.948 528.180, 576.703 528.184, 576.675 528.186, 576.657 528.513, 574.210 528.687, 572.910 528.084, 572.311 527.010, 571.246 522.281, 568.523 521.567, 568.112 515.647, 564.704 " fill="none" stroke="rgb(0, 0, 0)" stroke-linecap="butt" stroke-linejoin="round" stroke-opacity="1.0" stroke-width="3.0" />
            <path d=" M 779.764, 951.190 778.022, 944.459 777.174, 940.714 777.086, 940.325 777.075, 940.270 775.849, 933.822 775.390, 931.406 773.919, 921.654 773.223, 915.136 773.210, 915.013 773.043, 913.450 773.136, 911.974 " fill="none" stroke="rgb(0, 0, 0)" stroke-linecap="butt" stroke-linejoin="round" stroke-opacity="1.0" stroke-width="3.0" />
            <path d=" M 767.843, 893.596 767.618, 894.317 767.283, 895.393 767.216, 895.610 768.333, 900.171 769.245, 902.438 769.791, 903.796 770.125, 904.626 770.794, 906.287 770.898, 906.545 770.993, 906.814 771.181, 907.338 771.306, 907.688 771.647, 908.643 771.938, 909.456 771.984, 909.585 772.099, 909.909 772.440, 910.861 772.652, 911.200 772.673, 911.234 772.680, 911.245 773.136, 911.974 773.640, 912.780 773.666, 912.821 774.061, 913.452 774.156, 913.604 775.143, 915.181 775.688, 916.052 778.991, 922.277 781.288, 924.824 783.824, 927.636 785.317, 929.292 " fill="none" stroke="rgb(0, 0, 0)" stroke-linecap="butt" stroke-linejoin="round" stroke-opacity="1.0" stroke-width="3.0" />
            <path d=" M 908.651, 665.944 908.229, 665.753 902.352, 663.097 902.223, 663.036 901.988, 662.925 901.217, 662.560 897.194, 660.655 890.455, 657.651 889.336, 657.070 888.605, 656.690 888.468, 656.619 887.769, 656.256 887.746, 656.244 887.728, 656.235 887.685, 656.212 887.456, 656.088 887.418, 656.068 887.309, 656.009 884.987, 654.757 884.742, 654.625 884.699, 654.602 883.713, 654.071 883.654, 654.039 880.217, 652.186 875.020, 649.036 873.596, 648.172 872.196, 647.168 " fill="none" stroke="rgb(0, 0, 0)" stroke-linecap="butt" stroke-linejoin="round" stroke-opacity="1.0" stroke-width="3.0" />
            <path d=" M 448.358, 658.683 449.930, 658.764 450.872, 658.853 451.254, 658.888 451.290, 658.892 451.360, 658.898 452.352, 658.991 452.915, 659.044 453.886, 658.736 454.531, 658.530 459.342, 657.000 460.145, 656.711 457.707, 651.776 450.354, 644.998 447.412, 642.286 442.710, 640.139 440.653, 639.200 438.864, 638.383 " fill="none" stroke="rgb(0, 0, 0)" stroke-linecap="butt" stroke-linejoin="round" stroke-opacity="1.0" stroke-width="3.0" />
            <path d=" M 763.743, 561.543 761.652, 562.256 752.509, 566.308 749.857, 567.483 745.428, 569.546 745.163, 573.038 745.072, 574.665 745.710, 575.431 748.220, 577.305 749.297, 577.851 749.702, 578.057 750.032, 578.224 751.490, 578.964 753.043, 579.752 753.192, 579.828 758.808, 582.677 " fill="none" stroke="rgb(0, 0, 0)" stroke-linecap="butt" stroke-linejoin="round" stroke-opacity="1.0" stroke-width="3.0" />
            <path d=" M 557.188, 617.848 559.235, 616.692 560.312, 616.084 560.366, 616.053 561.728, 614.359 561.483, 613.137 561.356, 612.497 561.008, 610.760 561.141, 608.197 561.170, 607.633 561.220, 606.674 561.212, 606.643 560.390, 603.239 560.354, 602.775 560.134, 600.013 559.868, 595.362 559.857, 595.333 559.851, 595.316 559.752, 595.045 559.164, 593.442 558.171, 592.213 555.612, 589.593 553.072, 587.612 549.091, 587.237 547.876, 587.520 547.311, 587.745 " fill="none" stroke="rgb(0, 0, 0)" stroke-linecap="butt" stroke-linejoin="round" stroke-opacity="1.0" stroke-width="3.0" />
            <path d=" M 746.345, 717.805 740.019, 717.805 731.004, 717.871 726.986, 717.347 726.716, 717.409 726.688, 717.415 721.247, 718.647 720.319, 721.525 720.862, 722.651 723.772, 725.858 727.163, 728.713 728.656, 729.528 729.744, 730.122 729.933, 730.225 " fill="none" stroke="rgb(0, 0, 0)" stroke-linecap="butt" stroke-linejoin="round" stroke-opacity="1.0" stroke-width="3.0" />
            <path d=" M 410.392, 514.743 412.450, 511.757 412.560, 511.597 412.713, 511.375 412.966, 511.007 413.265, 510.574 415.313, 507.603 414.741, 503.704 414.039, 501.489 413.322, 499.223 411.150, 496.097 408.743, 494.613 404.509, 494.911 401.936, 494.813 399.999, 495.240 398.541, 495.638 396.521, 499.531 396.555, 502.313 396.568, 503.400 " fill="none" stroke="rgb(0, 0, 0)" stroke-linecap="butt" stroke-linejoin="round" stroke-opacity="1.0" stroke-width="3.0" />
            <path d=" M 975.329, 844.897 975.619, 844.172 977.688, 838.954 978.360, 837.187 980.223, 829.015 984.983, 820.221 987.918, 814.799 987.676, 812.245 988.935, 810.151 989.526, 808.422 989.293, 805.142 " fill="none" stroke="rgb(0, 0, 0)" stroke-linecap="butt" stroke-linejoin="round" stroke-opacity="1.0" stroke-width="3.0" />
            <path d=" M 520.099, 791.354 523.039, 793.791 527.501, 797.300 530.613, 799.449 539.158, 804.643 539.953, 805.127 539.967, 805.136 542.467, 806.820 544.135, 807.011 547.215, 808.239 554.218, 808.954 557.826, 810.013 " fill="none" stroke="rgb(0, 0, 0)" stroke-linecap="butt" stroke-linejoin="round" stroke-opacity="1.0" stroke-width="3.0" />
            <path d=" M 796.072, 547.024 786.075, 547.275 784.730, 547.309 777.852, 549.617 776.876, 550.837 778.200, 554.070 782.196, 556.344 783.709, 557.204 784.365, 557.578 785.158, 558.029 788.879, 560.146 790.368, 561.084 790.994, 561.479 792.853, 562.651 792.856, 562.653 793.877, 563.297 795.731, 564.062 " fill="none" stroke="rgb(0, 0, 0)" stroke-linecap="butt" stroke-linejoin="round" stroke-opacity="1.0" stroke-width="3.0" />
            <path d=" M 448.223, 607.619 456.086, 613.797 456.787, 614.348 464.301, 618.740 471.163, 622.630 476.375, 626.257 480.102, 628.585 482.472, 629.784 485.192, 631.162 " fill="none" stroke="rgb(0, 0, 0)" stroke-linecap="butt" stroke-linejoin="round" stroke-opacity="1.0" stroke-width="3.0" />
            <path d=" M 565.170, 676.124 566.583, 676.543 572.460, 676.872 576.342, 676.311 583.659, 675.886 585.934, 675.960 589.854, 675.940 595.303, 674.603 603.303, 674.577 606.934, 673.276 607.942, 671.206 " fill="none" stroke="rgb(0, 0, 0)" stroke-linecap="butt" stroke-linejoin="round" stroke-opacity="1.0" stroke-width="3.0" />
            <path d=" M 758.059, 631.176 758.011, 631.251 756.767, 633.168 756.685, 633.392 755.933, 635.444 754.853, 638.390 756.390, 640.944 763.196, 643.800 767.489, 644.394 770.137, 644.669 772.534, 644.917 779.307, 645.925 780.929, 646.167 780.021, 649.938 779.896, 650.987 782.129, 653.275 782.433, 653.587 " fill="none" stroke="rgb(0, 0, 0)" stroke-linecap="butt" stroke-linejoin="round" stroke-opacity="1.0" stroke-width="3.0" />
            <path d=" M 493.071, 570.234 495.469, 569.117 497.648, 568.102 497.851, 568.007 500.238, 566.896 510.081, 565.132 512.086, 564.773 514.359, 561.993 514.393, 561.904 514.936, 560.465 512.682, 556.066 507.701, 554.174 498.325, 550.696 497.916, 550.544 " fill="none" stroke="rgb(0, 0, 0)" stroke-linecap="butt" stroke-linejoin="round" stroke-opacity="1.0" stroke-width="3.0" />
            <path d=" M 531.541, 603.512 535.475, 603.523 536.779, 603.527 536.782, 603.527 538.114, 603.650 540.546, 602.491 540.781, 599.334 540.419, 598.246 540.132, 597.383 540.122, 595.591 540.121, 595.437 540.112, 593.783 540.213, 592.847 540.266, 592.358 540.460, 590.555 540.534, 589.874 540.670, 584.979 540.996, 583.267 541.325, 581.204 541.050, 580.033 540.218, 579.233 539.138, 578.195 529.775, 574.683 528.513, 574.210 " fill="none" stroke="rgb(0, 0, 0)" stroke-linecap="butt" stroke-linejoin="round" stroke-opacity="1.0" stroke-width="3.0" />
            <path d=" M 693.696, 912.788 693.803, 912.703 697.070, 910.103 698.799, 908.378 701.090, 903.381 701.501, 897.484 701.527, 889.799 700.814, 879.824 700.398, 874.000 700.174, 868.995 " fill="none" stroke="rgb(0, 0, 0)" stroke-linecap="butt" stroke-linejoin="round" stroke-opacity="1.0" stroke-width="3.0" />
            <path d=" M 713.356, 873.843 719.047, 877.396 719.513, 877.687 719.559, 877.715 719.617, 877.751 720.733, 878.448 720.792, 878.485 724.118, 880.561 725.530, 881.443 725.659, 881.555 725.776, 881.657 726.254, 882.073 728.512, 884.039 729.738, 885.106 732.460, 887.196 732.471, 887.204 734.018, 888.392 735.425, 889.472 735.452, 889.493 735.531, 889.554 739.504, 892.604 740.957, 894.071 741.079, 894.193 742.905, 896.036 745.099, 898.250 745.196, 898.348 746.301, 899.463 746.359, 899.521 746.806, 899.973 747.212, 899.941 749.475, 899.768 750.395, 898.708 750.682, 898.287 " fill="none" stroke="rgb(0, 0, 0)" stroke-linecap="butt" stroke-linejoin="round" stroke-opacity="1.0" stroke-width="3.0" />
            <path d=" M 587.573, 837.036 591.236, 841.586 594.277, 845.958 598.419, 850.937 600.246, 854.636 606.177, 862.687 606.287, 862.836 611.245, 866.134 614.091, 868.424 615.645, 869.287 618.566, 870.300 619.526, 870.356 " fill="none" stroke="rgb(0, 0, 0)" stroke-linecap="butt" stroke-linejoin="round" stroke-opacity="1.0" stroke-width="3.0" />
            <path d=" M 739.825, 685.995 745.684, 687.648 748.000, 688.301 748.251, 688.372 749.476, 688.717 755.411, 689.773 758.553, 690.333 767.240, 691.879 773.840, 693.281 773.851, 693.283 774.583, 693.438 774.611, 693.444 775.884, 693.715 776.953, 694.012 777.047, 694.038 782.372, 695.516 783.261, 695.763 784.400, 696.079 784.468, 696.098 784.682, 696.158 785.097, 696.273 785.477, 696.378 785.522, 696.391 785.527, 696.392 785.711, 696.443 785.763, 696.458 786.129, 696.559 786.272, 696.599 786.275, 696.600 786.793, 696.744 " fill="none" stroke="rgb(0, 0, 0)" stroke-linecap="butt" stroke-linejoin="round" stroke-opacity="1.0" stroke-width="3.0" />
            <path d=" M 841.178, 834.621 843.778, 832.864 848.951, 829.371 857.906, 824.919 859.201, 824.276 868.888, 821.792 870.501, 821.379 878.000, 821.734 884.305, 821.423 886.090, 821.336 886.141, 821.333 886.343, 821.323 " fill="none" stroke="rgb(0, 0, 0)" stroke-linecap="butt" stroke-linejoin="round" stroke-opacity="1.0" stroke-width="3.0" />
            <path d=" M 985.069, 683.136 988.326, 679.410 988.786, 679.048 989.042, 678.846 989.174, 678.742 989.332, 678.618 989.417, 678.551 992.542, 676.092 994.386, 674.661 997.717, 670.976 999.314, 666.899 1000.103, 663.438 1000.136, 659.868 998.951, 656.013 996.807, 652.429 995.821, 650.969 990.928, 647.384 988.595, 646.655 986.326, 645.946 " fill="none" stroke="rgb(0, 0, 0)" stroke-linecap="butt" stroke-linejoin="round" stroke-opacity="1.0" stroke-width="3.0" />
            <path d=" M 864.328, 634.689 864.297, 634.535 862.835, 627.269 860.095, 618.648 858.737, 613.953 857.593, 609.999 857.345, 609.140 856.296, 603.093 856.093, 601.919 855.558, 598.834 855.520, 598.613 855.355, 597.663 855.083, 596.096 853.994, 589.815 853.968, 589.667 853.242, 586.596 853.181, 586.341 853.020, 585.658 " fill="none" stroke="rgb(0, 0, 0)" stroke-linecap="butt" stroke-linejoin="round" stroke-opacity="1.0" stroke-width="3.0" />
            <path d=" M 861.007, 936.699 862.497, 934.421 862.015, 931.572 861.598, 929.362 860.974, 928.461 859.443, 926.781 858.115, 926.040 855.520, 925.734 850.000, 926.208 843.357, 926.032 838.920, 925.878 833.840, 924.557 825.058, 921.083 821.102, 918.954 " fill="none" stroke="rgb(0, 0, 0)" stroke-linecap="butt" stroke-linejoin="round" stroke-opacity="1.0" stroke-width="3.0" />
            <path d=" M 758.467, 581.579 758.808, 582.677 758.869, 582.873 758.972, 583.204 757.490, 585.218 756.896, 586.025 756.352, 588.293 756.248, 588.725 756.202, 588.918 756.185, 588.989 755.678, 591.101 755.386, 591.816 755.362, 591.875 755.050, 592.640 754.246, 594.610 754.637, 595.853 755.204, 597.651 755.464, 598.475 755.678, 598.604 755.722, 598.630 757.835, 599.898 758.005, 600.000 758.278, 600.163 759.806, 601.080 762.024, 601.629 762.185, 601.668 762.268, 601.689 767.354, 602.948 769.691, 603.313 769.716, 603.317 769.735, 603.320 770.600, 603.455 771.250, 603.443 771.907, 603.430 771.908, 603.430 772.175, 603.380 772.309, 603.355 773.701, 603.096 776.174, 602.636 776.682, 602.542 776.799, 602.520 779.299, 602.055 779.611, 601.997 779.771, 601.967 781.110, 601.800 781.464, 601.756 781.543, 601.746 781.725, 601.724 781.834, 601.710 782.365, 601.644 784.804, 601.340 785.370, 601.269 788.294, 604.208 788.387, 604.302 " fill="none" stroke="rgb(0, 0, 0)" stroke-linecap="butt" stroke-linejoin="round" stroke-opacity="1.0" stroke-width="3.0" />
            <path d=" M 939.062, 706.973 939.504, 705.624 940.584, 702.329 940.984, 697.863 940.978, 695.151 940.976, 694.630 940.974, 693.804 940.965, 690.136 940.964, 689.853 940.963, 689.196 940.959, 687.637 940.977, 686.720 940.978, 686.654 941.061, 682.514 941.061, 682.490 941.062, 682.467 941.073, 681.898 941.076, 681.773 941.106, 680.272 941.106, 680.269 941.119, 679.584 941.126, 679.248 941.233, 673.903 941.028, 666.322 940.463, 661.308 940.830, 668.745 940.780, 669.117 " fill="none" stroke="rgb(0, 0, 0)" stroke-linecap="butt" stroke-linejoin="round" stroke-opacity="1.0" stroke-width="3.0" />
            <path d=" M 526.641, 794.441 532.002, 797.706 532.049, 797.720 533.172, 798.037 533.763, 798.204 534.616, 798.446 535.060, 798.571 535.579, 798.718 536.810, 799.193 545.718, 802.633 547.696, 803.794 547.948, 803.941 549.432, 804.812 550.293, 805.317 554.102, 807.552 557.826, 810.013 562.631, 813.188 567.123, 816.977 571.248, 820.456 573.174, 821.852 " fill="none" stroke="rgb(0, 0, 0)" stroke-linecap="butt" stroke-linejoin="round" stroke-opacity="1.0" stroke-width="3.0" />
            <path d=" M 544.482, 620.250 549.357, 621.394 549.514, 621.430 549.892, 621.518 550.478, 621.656 550.622, 621.689 553.009, 622.247 553.263, 622.307 553.462, 622.353 553.521, 622.367 554.412, 622.575 556.561, 623.078 564.344, 622.605 566.291, 621.348 568.267, 617.430 568.421, 615.791 568.484, 615.123 568.768, 612.098 568.826, 611.487 569.419, 607.085 569.501, 606.221 569.503, 606.202 569.510, 606.127 569.611, 605.075 569.403, 604.444 567.611, 599.003 564.939, 596.821 559.752, 595.045 " fill="none" stroke="rgb(0, 0, 0)" stroke-linecap="butt" stroke-linejoin="round" stroke-opacity="1.0" stroke-width="3.0" />
            <path d=" M 654.500, 887.125 658.638, 893.821 664.325, 900.799 670.329, 908.708 673.383, 912.191 679.320, 917.116 682.952, 916.872 689.507, 916.074 690.794, 915.862 693.803, 912.703 " fill="none" stroke="rgb(0, 0, 0)" stroke-linecap="butt" stroke-linejoin="round" stroke-opacity="1.0" stroke-width="3.0" />
            <path d=" M 378.117, 601.367 380.955, 604.421 381.799, 605.206 388.333, 609.828 392.500, 612.011 401.521, 616.327 406.113, 618.525 407.650, 619.011 415.517, 621.503 421.612, 621.565 423.878, 620.536 424.131, 620.246 425.764, 618.372 426.230, 617.838 " fill="none" stroke="rgb(0, 0, 0)" stroke-linecap="butt" stroke-linejoin="round" stroke-opacity="1.0" stroke-width="3.0" />
            <path d=" M 636.510, 801.232 630.350, 795.222 628.271, 794.144 624.814, 791.814 622.816, 791.446 619.195, 789.891 612.628, 785.320 605.776, 781.116 600.317, 777.414 593.540, 772.440 591.542, 770.581 591.323, 770.356 " fill="none" stroke="rgb(0, 0, 0)" stroke-linecap="butt" stroke-linejoin="round" stroke-opacity="1.0" stroke-width="3.0" />
            <path d=" M 726.239, 735.641 725.184, 737.305 727.175, 742.668 726.651, 744.889 718.437, 747.627 709.409, 749.721 707.247, 751.768 706.861, 753.959 707.644, 757.024 714.362, 763.074 715.158, 764.379 716.347, 766.328 719.307, 771.179 719.347, 771.245 719.354, 771.256 719.525, 771.536 " fill="none" stroke="rgb(0, 0, 0)" stroke-linecap="butt" stroke-linejoin="round" stroke-opacity="1.0" stroke-width="3.0" />
            <path d=" M 782.196, 556.344 775.234, 557.164 769.736, 557.257 763.904, 558.570 763.743, 561.543 763.497, 566.090 765.501, 568.392 766.053, 568.664 766.342, 568.806 767.192, 569.225 767.201, 569.229 769.320, 570.272 771.607, 571.397 772.364, 571.831 774.630, 573.128 774.898, 573.282 774.972, 573.324 777.854, 574.975 777.900, 575.001 777.922, 575.013 778.291, 575.225 779.362, 575.838 780.458, 576.466 784.154, 577.984 788.614, 579.737 789.617, 580.131 790.900, 580.635 " fill="none" stroke="rgb(0, 0, 0)" stroke-linecap="butt" stroke-linejoin="round" stroke-opacity="1.0" stroke-width="3.0" />
            <path d=" M 747.977, 829.166 747.981, 829.205 748.368, 833.127 748.465, 834.106 748.497, 834.436 747.170, 839.629 746.692, 841.471 746.485, 845.846 747.522, 849.657 747.577, 849.859 747.671, 850.202 748.262, 854.239 749.760, 858.184 751.012, 859.534 751.048, 859.572 752.566, 861.209 754.642, 861.748 756.280, 862.174 756.918, 863.097 759.797, 867.266 760.418, 868.165 760.791, 868.900 760.862, 869.040 761.507, 870.313 762.276, 871.832 762.279, 871.837 762.512, 872.297 763.348, 873.947 763.653, 874.550 764.135, 875.500 766.004, 879.187 " fill="none" stroke="rgb(0, 0, 0)" stroke-linecap="butt" stroke-linejoin="round" stroke-opacity="1.0" stroke-width="3.0" />
            <path d=" M 980.023, 736.482 982.545, 729.502 982.562, 729.455 982.564, 729.447 982.820, 728.510 982.983, 727.915 983.025, 727.760 983.640, 725.511 983.701, 725.291 983.707, 725.266 983.713, 725.247 983.762, 725.065 983.772, 725.028 983.826, 724.833 984.193, 723.490 984.204, 723.450 984.205, 723.447 984.235, 723.336 984.731, 721.520 986.100, 711.614 986.755, 706.879 986.780, 697.276 985.718, 690.446 985.702, 690.345 985.436, 688.637 984.704, 684.399 984.583, 683.693 984.456, 682.961 983.895, 679.713 983.895, 679.712 983.860, 679.508 " fill="none" stroke="rgb(0, 0, 0)" stroke-linecap="butt" stroke-linejoin="round" stroke-opacity="1.0" stroke-width="3.0" />
            <path d=" M 741.883, 700.488 741.170, 700.510 737.111, 700.641 732.234, 702.898 732.862, 707.787 734.019, 710.271 742.694, 715.245 744.172, 716.092 746.345, 717.805 750.544, 721.116 750.552, 721.122 751.306, 721.717 755.719, 723.528 761.210, 725.926 761.448, 726.030 762.527, 726.501 768.195, 726.695 769.587, 727.411 769.746, 727.493 " fill="none" stroke="rgb(0, 0, 0)" stroke-linecap="butt" stroke-linejoin="round" stroke-opacity="1.0" stroke-width="3.0" />
            <path d=" M 377.509, 585.152 383.814, 586.889 385.744, 586.304 386.009, 586.223 388.718, 585.402 388.794, 585.276 389.123, 584.734 390.308, 581.489 389.479, 575.827 386.230, 571.234 386.024, 570.942 384.800, 567.669 383.403, 566.636 382.871, 566.404 382.845, 566.392 382.653, 566.308 382.030, 566.036 378.596, 564.653 377.944, 564.390 376.709, 565.108 376.702, 565.112 376.632, 565.153 376.421, 565.275 376.346, 565.369 375.389, 566.564 375.207, 566.792 374.976, 567.080 374.381, 567.823 374.090, 568.187 374.012, 568.285 373.389, 569.062 372.792, 570.814 372.725, 571.010 372.616, 571.330 372.538, 572.303 372.507, 572.690 372.321, 574.999 372.262, 575.740 372.162, 577.027 373.050, 579.055 375.537, 583.213 " fill="none" stroke="rgb(0, 0, 0)" stroke-linecap="butt" stroke-linejoin="round" stroke-opacity="1.0" stroke-width="3.0" />
            <path d=" M 745.684, 687.648 739.032, 690.720 735.732, 692.679 727.402, 698.212 726.444, 698.848 722.863, 703.121 721.942, 704.573 719.009, 711.566 718.104, 717.379 717.593, 720.269 718.042, 721.401 719.720, 724.921 723.405, 727.940 727.241, 731.843 " fill="none" stroke="rgb(0, 0, 0)" stroke-linecap="butt" stroke-linejoin="round" stroke-opacity="1.0" stroke-width="3.0" />
            <path d=" M 807.440, 517.529 798.189, 513.732 794.846, 512.360 787.517, 509.979 780.769, 509.137 775.364, 507.439 765.571, 505.416 759.974, 504.260 756.006, 503.758 746.085, 502.503 745.497, 502.429 " fill="none" stroke="rgb(0, 0, 0)" stroke-linecap="butt" stroke-linejoin="round" stroke-opacity="1.0" stroke-width="3.0" />
            <path d=" M 973.692, 800.842 974.383, 798.741 977.504, 789.241 978.011, 787.700 978.399, 786.425 978.402, 786.416 980.157, 780.654 980.320, 776.826 980.308, 771.860 980.029, 762.651 980.005, 761.850 980.003, 761.773 979.996, 761.568 979.852, 761.021 979.716, 760.502 979.669, 760.324 979.649, 760.249 979.210, 758.579 979.058, 758.211 977.314, 753.993 977.074, 753.534 975.156, 749.849 974.391, 747.973 974.367, 747.913 973.735, 746.364 973.464, 745.699 972.259, 742.737 971.512, 740.903 970.918, 739.443 " fill="none" stroke="rgb(0, 0, 0)" stroke-linecap="butt" stroke-linejoin="round" stroke-opacity="1.0" stroke-width="3.0" />
            <path d=" M 622.446, 656.207 623.220, 655.934 628.043, 656.065 632.880, 656.288 640.586, 656.667 649.093, 657.338 657.524, 659.197 662.732, 660.647 663.805, 660.745 664.364, 660.796 664.438, 660.803 669.760, 661.289 669.791, 661.292 679.620, 663.137 679.973, 663.203 684.808, 664.645 686.044, 665.013 " fill="none" stroke="rgb(0, 0, 0)" stroke-linecap="butt" stroke-linejoin="round" stroke-opacity="1.0" stroke-width="3.0" />
            <path d=" M 534.087, 752.447 535.033, 753.283 536.431, 754.517 542.335, 759.167 545.546, 760.722 554.454, 763.788 560.441, 764.454 564.442, 763.697 567.409, 761.729 569.003, 760.154 569.296, 759.865 570.726, 756.687 571.586, 754.778 572.972, 750.174 573.087, 749.792 573.109, 749.719 573.188, 749.456 572.801, 744.979 572.565, 744.009 570.236, 740.753 569.218, 739.679 564.188, 736.774 " fill="none" stroke="rgb(0, 0, 0)" stroke-linecap="butt" stroke-linejoin="round" stroke-opacity="1.0" stroke-width="3.0" />
            <path d=" M 440.265, 726.213 440.757, 726.732 443.695, 730.572 447.708, 734.991 451.515, 739.028 457.791, 745.037 463.586, 749.861 464.990, 751.350 469.867, 755.374 473.711, 757.652 473.782, 757.695 473.959, 757.873 475.787, 759.719 476.530, 760.201 481.461, 763.397 481.463, 763.398 482.743, 764.228 486.649, 766.392 490.408, 768.564 493.160, 770.132 " fill="none" stroke="rgb(0, 0, 0)" stroke-linecap="butt" stroke-linejoin="round" stroke-opacity="1.0" stroke-width="3.0" />
            <path d=" M 944.090, 639.778 944.041, 638.344 944.031, 638.047 943.996, 637.029 943.871, 633.349 943.869, 633.308 943.717, 628.836 943.713, 621.619 943.381, 615.093 942.185, 611.797 941.962, 604.970 940.334, 598.411 939.477, 593.861 938.056, 586.442 936.886, 579.953 933.957, 575.826 931.244, 574.302 927.448, 572.170 " fill="none" stroke="rgb(0, 0, 0)" stroke-linecap="butt" stroke-linejoin="round" stroke-opacity="1.0" stroke-width="3.0" />
            <path d=" M 530.375, 789.059 539.916, 792.054 540.551, 792.253 545.568, 793.998 553.613, 796.589 563.369, 798.650 572.896, 801.690 576.550, 802.856 577.494, 803.158 578.684, 803.537 578.992, 803.636 580.022, 803.964 587.454, 807.259 591.687, 809.503 592.876, 810.132 595.937, 811.754 597.209, 812.428 603.242, 814.340 " fill="none" stroke="rgb(0, 0, 0)" stroke-linecap="butt" stroke-linejoin="round" stroke-opacity="1.0" stroke-width="3.0" />
            <path d=" M 469.192, 564.722 469.787, 564.413 470.137, 564.231 475.612, 561.386 477.802, 560.388 479.936, 559.036 480.131, 558.911 480.507, 558.674 482.376, 557.356 488.741, 554.241 497.916, 550.544 497.926, 550.540 497.900, 546.747 496.684, 543.524 496.425, 543.230 494.165, 541.173 484.261, 539.788 478.107, 538.927 470.363, 539.672 461.085, 543.402 460.490, 543.641 " fill="none" stroke="rgb(0, 0, 0)" stroke-linecap="butt" stroke-linejoin="round" stroke-opacity="1.0" stroke-width="3.0" />
            <path d=" M 557.410, 625.144 558.247, 627.985 558.304, 628.119 559.677, 631.307 563.907, 634.145 570.776, 636.424 578.409, 637.510 583.915, 636.989 583.997, 636.981 585.101, 636.876 585.862, 636.294 586.852, 635.537 586.892, 635.507 588.871, 633.994 591.227, 631.661 590.826, 627.365 590.883, 626.264 590.896, 625.992 590.932, 625.289 591.094, 622.133 589.677, 617.276 587.355, 613.849 582.257, 611.697 578.439, 609.159 575.467, 607.540 569.764, 604.435 569.403, 604.444 " fill="none" stroke="rgb(0, 0, 0)" stroke-linecap="butt" stroke-linejoin="round" stroke-opacity="1.0" stroke-width="3.0" />
            <path d=" M 442.071, 670.450 449.118, 677.544 450.761, 679.198 452.006, 680.719 453.470, 682.507 454.079, 682.956 454.561, 683.312 455.712, 684.160 457.454, 685.059 460.229, 684.989 460.350, 684.986 460.917, 684.972 462.171, 684.940 468.637, 683.851 472.364, 683.515 475.764, 683.208 478.402, 682.475 478.633, 682.411 478.805, 682.363 479.380, 682.203 479.547, 681.546 479.700, 680.946 479.615, 675.920 479.442, 674.434 474.003, 671.077 468.265, 667.551 467.038, 666.796 466.799, 666.629 463.781, 664.511 459.527, 662.174 454.934, 660.654 454.681, 660.570 454.055, 660.304 " fill="none" stroke="rgb(0, 0, 0)" stroke-linecap="butt" stroke-linejoin="round" stroke-opacity="1.0" stroke-width="3.0" />
            <path d=" M 758.035, 964.011 757.370, 965.448 756.705, 969.592 758.305, 972.188 762.455, 975.742 765.763, 977.816 771.518, 981.399 780.110, 986.515 781.104, 987.107 787.908, 989.056 795.950, 990.225 805.052, 990.130 811.270, 988.568 813.610, 987.799 817.124, 986.468 821.583, 984.151 824.609, 982.095 824.762, 981.803 " fill="none" stroke="rgb(0, 0, 0)" stroke-linecap="butt" stroke-linejoin="round" stroke-opacity="1.0" stroke-width="3.0" />
            <path d=" M 481.940, 498.138 485.556, 495.929 486.747, 493.833 486.225, 492.300 482.298, 490.061 477.038, 488.926 468.289, 488.007 463.719, 488.028 453.785, 489.175 450.828, 489.517 444.986, 490.295 435.248, 492.570 432.692, 493.168 423.397, 496.855 422.299, 497.291 415.639, 500.166 414.039, 501.489 " fill="none" stroke="rgb(0, 0, 0)" stroke-linecap="butt" stroke-linejoin="round" stroke-opacity="1.0" stroke-width="3.0" />
            <path d=" M 834.252, 531.754 829.189, 529.257 826.626, 527.993 826.363, 527.863 823.289, 526.993 821.117, 526.378 818.861, 525.739 818.772, 525.748 808.826, 526.785 807.315, 526.942 804.637, 528.946 804.007, 530.652 803.986, 530.708 802.737, 535.008 802.604, 540.950 799.119, 544.505 797.302, 546.811 797.260, 547.429 797.217, 548.061 796.545, 558.038 796.528, 558.290 797.256, 558.878 798.838, 560.154 799.956, 561.575 800.058, 561.704 800.310, 562.024 800.763, 562.600 801.451, 563.474 803.976, 563.444 804.734, 563.435 807.586, 563.401 808.334, 563.392 809.376, 563.380 812.436, 564.926 812.445, 564.985 812.533, 565.543 812.548, 565.633 812.573, 565.796 812.613, 566.049 812.671, 566.414 812.681, 566.479 812.683, 566.490 812.708, 566.649 812.849, 567.548 812.872, 567.692 812.873, 567.696 812.880, 567.742 812.611, 568.081 812.065, 568.767 811.956, 568.905 " fill="none" stroke="rgb(0, 0, 0)" stroke-linecap="butt" stroke-linejoin="round" stroke-opacity="1.0" stroke-width="3.0" />
            <path d=" M 799.772, 621.055 799.354, 621.052 793.917, 621.012 793.874, 621.012 791.611, 620.995 789.994, 620.983 789.608, 621.081 789.076, 621.231 787.439, 621.694 786.181, 622.050 786.086, 622.077 785.898, 622.130 785.734, 622.177 784.942, 622.401 784.789, 622.444 784.720, 622.464 784.619, 622.492 782.253, 623.162 781.606, 623.345 781.488, 623.378 780.725, 623.594 780.703, 623.600 779.740, 624.307 779.204, 624.700 779.189, 624.742 779.036, 625.166 778.328, 627.126 778.261, 631.150 778.243, 632.226 775.415, 634.832 772.806, 636.319 773.004, 639.179 773.018, 639.375 773.067, 640.086 773.235, 640.868 777.480, 643.358 780.350, 643.927 781.731, 644.201 782.694, 644.393 782.977, 644.449 783.557, 644.564 783.582, 644.569 783.960, 644.644 784.066, 644.665 784.265, 644.704 784.849, 644.820 784.988, 644.848 785.472, 644.944 785.948, 645.038 786.381, 645.124 786.397, 645.128 786.410, 645.130 786.570, 645.162 786.645, 645.177 788.142, 645.474 788.231, 645.491 788.584, 645.561 789.007, 645.645 789.051, 645.654 791.559, 646.152 791.971, 646.234 792.632, 646.365 792.897, 646.417 792.944, 646.427 802.944, 646.373 803.405, 646.371 812.879, 643.172 814.426, 642.649 814.427, 642.649 814.427, 642.650 815.381, 643.057 815.443, 643.083 815.954, 643.302 815.966, 643.307 816.128, 643.376 816.574, 643.566 816.732, 643.634 816.869, 643.692 817.390, 643.915 817.561, 643.988 818.552, 644.411 818.625, 644.442 819.002, 644.603 819.747, 644.921 " fill="none" stroke="rgb(0, 0, 0)" stroke-linecap="butt" stroke-linejoin="round" stroke-opacity="1.0" stroke-width="3.0" />
            <path d=" M 818.809, 913.080 818.671, 911.436 818.423, 908.479 817.356, 904.434 817.316, 904.022 817.237, 903.208 816.974, 900.504 816.939, 900.285 815.874, 893.546 815.768, 888.931 815.875, 886.118 815.926, 884.772 816.039, 881.818 816.063, 881.190 816.064, 881.167 816.247, 876.345 817.863, 870.240 821.376, 860.877 822.528, 857.806 822.901, 856.812 823.494, 855.817 827.442, 849.197 833.945, 841.601 834.495, 840.960 838.238, 837.525 843.778, 832.864 " fill="none" stroke="rgb(0, 0, 0)" stroke-linecap="butt" stroke-linejoin="round" stroke-opacity="1.0" stroke-width="3.0" />
            <path d=" M 728.512, 884.039 727.209, 886.299 726.654, 888.674 726.527, 889.222 726.525, 889.230 726.525, 889.230 725.575, 893.301 724.975, 894.641 724.965, 894.661 723.497, 897.937 722.740, 899.625 722.632, 906.968 724.359, 912.116 725.755, 917.812 728.283, 925.863 730.208, 929.593 732.333, 932.560 739.258, 939.774 739.668, 940.201 746.123, 944.747 750.896, 949.696 752.813, 953.486 754.919, 954.917 756.304, 956.570 759.403, 958.861 " fill="none" stroke="rgb(0, 0, 0)" stroke-linecap="butt" stroke-linejoin="round" stroke-opacity="1.0" stroke-width="3.0" />
            <path d=" M 816.894, 570.921 816.825, 570.893 814.882, 570.100 813.570, 569.564 813.408, 569.498 813.365, 569.480 813.286, 569.448 813.201, 569.413 813.067, 569.358 812.956, 569.313 812.950, 569.311 812.459, 569.110 812.036, 568.938 812.029, 568.935 811.956, 568.905 811.682, 568.793 811.495, 568.717 811.224, 568.587 811.072, 568.514 808.089, 567.081 807.529, 566.813 806.808, 566.466 805.711, 565.940 805.579, 565.876 804.758, 565.482 804.712, 565.460 804.645, 565.428 804.557, 565.385 803.398, 564.829 802.646, 564.468 802.584, 564.438 802.284, 564.350 801.396, 564.091 801.071, 563.997 799.492, 563.536 799.458, 563.526 797.495, 562.953 795.731, 564.062 794.982, 564.533 794.411, 564.892 793.827, 565.259 793.569, 565.422 793.530, 565.652 793.517, 565.734 793.444, 566.172 793.441, 566.190 793.429, 566.259 793.419, 566.323 793.149, 567.944 792.987, 568.911 792.214, 573.553 792.207, 573.593 792.137, 574.014 791.495, 577.257 791.344, 578.015 790.968, 579.912 790.950, 580.002 790.900, 580.635 790.660, 583.673 790.634, 584.004 790.401, 585.059 790.032, 586.725 790.006, 586.841 789.845, 587.572 789.818, 587.691 789.545, 588.927 789.412, 589.530 789.323, 589.880 788.415, 593.466 787.523, 596.302 787.640, 597.951 787.641, 597.966 787.654, 598.155 787.874, 601.258 788.379, 604.256 788.387, 604.302 788.392, 604.331 788.426, 604.533 788.990, 605.082 790.801, 606.844 791.202, 607.235 791.843, 607.859 792.884, 608.872 796.742, 610.457 802.262, 611.572 805.654, 612.257 805.732, 612.272 806.222, 612.372 806.507, 612.429 806.682, 612.464 807.728, 612.676 808.192, 612.769 808.485, 612.828 811.274, 613.392 811.613, 613.460 812.123, 613.563 " fill="none" stroke="rgb(0, 0, 0)" stroke-linecap="butt" stroke-linejoin="round" stroke-opacity="1.0" stroke-width="3.0" />
            <path d=" M 652.110, 841.247 657.773, 844.392 665.839, 848.871 674.504, 853.586 676.872, 854.874 678.133, 855.560 679.116, 856.104 679.267, 856.187 682.948, 858.223 683.760, 858.672 684.112, 858.866 684.361, 859.004 693.307, 863.473 693.532, 863.585 694.361, 863.999 694.576, 864.107 696.671, 865.153 697.438, 865.536 697.909, 865.784 700.082, 866.925 705.376, 869.706 709.390, 871.814 711.705, 873.031 713.356, 873.843 719.186, 876.711 719.774, 877.001 719.809, 877.018 719.943, 877.084 720.012, 877.118 720.063, 877.143 720.221, 877.221 720.448, 877.332 720.827, 877.551 722.104, 878.284 724.397, 879.603 726.034, 880.544 726.097, 880.580 726.544, 880.837 729.203, 882.842 733.153, 885.819 733.917, 886.396 735.313, 887.448 739.333, 890.481 739.769, 890.810 " fill="none" stroke="rgb(0, 0, 0)" stroke-linecap="butt" stroke-linejoin="round" stroke-opacity="1.0" stroke-width="3.0" />
            <path d=" M 935.349, 902.765 935.402, 902.786 935.939, 903.000 938.719, 904.104 942.722, 903.696 944.924, 902.630 949.927, 899.775 953.113, 897.814 956.795, 895.462 960.460, 893.164 966.717, 887.101 970.321, 883.040 972.065, 880.646 974.273, 876.465 976.136, 870.673 976.495, 860.680 976.527, 859.774 976.627, 853.794 975.406, 845.169 975.329, 844.897 975.315, 844.848 975.290, 844.763 975.116, 844.152 974.634, 842.469 974.379, 841.574 974.378, 841.573 973.811, 839.590 973.804, 839.565 973.794, 839.531 973.690, 839.167 973.434, 838.271 972.168, 833.206 969.162, 823.963 " fill="none" stroke="rgb(0, 0, 0)" stroke-linecap="butt" stroke-linejoin="round" stroke-opacity="1.0" stroke-width="3.0" />
            <path d=" M 654.078, 640.708 659.981, 638.049 664.457, 636.032 664.580, 635.977 672.445, 634.124 672.498, 634.111 672.630, 634.069 679.880, 631.725 686.736, 629.701 690.499, 628.724 692.423, 628.224 696.013, 627.291 702.031, 626.108 708.981, 624.495 716.149, 623.321 719.565, 623.189 727.246, 621.643 733.679, 620.791 739.127, 619.687 741.472, 619.158 745.338, 618.286 749.957, 617.248 752.849, 616.589 756.303, 615.587 " fill="none" stroke="rgb(0, 0, 0)" stroke-linecap="butt" stroke-linejoin="round" stroke-opacity="1.0" stroke-width="3.0" />
            <path d=" M 756.006, 503.758 746.187, 501.867 738.806, 500.445 734.810, 501.167 732.847, 501.921 731.404, 505.602 732.252, 509.290 733.268, 510.247 737.406, 513.720 743.323, 516.729 752.101, 521.521 760.878, 526.312 761.389, 526.591 769.928, 531.796 777.903, 536.656 786.613, 541.569 790.125, 543.550 795.524, 546.528 796.072, 547.024 797.217, 548.061 " fill="none" stroke="rgb(0, 0, 0)" stroke-linecap="butt" stroke-linejoin="round" stroke-opacity="1.0" stroke-width="3.0" />
            <path d=" M 743.628, 880.588 742.315, 879.281 741.363, 878.333 741.203, 878.173 741.039, 878.010 740.862, 877.833 740.643, 877.572 740.516, 877.421 740.437, 877.326 740.366, 877.243 740.320, 877.187 740.297, 877.160 739.625, 876.359 738.781, 875.354 738.340, 874.828 738.056, 874.521 737.668, 874.101 736.838, 873.201 734.382, 870.541 730.927, 867.430 725.890, 863.114 723.774, 861.939 719.197, 859.397 710.836, 853.910 709.272, 852.884 701.134, 847.071 700.935, 846.929 699.378, 845.939 698.613, 845.453 697.280, 844.623 693.125, 842.036 691.147, 840.665 688.627, 838.536 682.738, 834.253 681.320, 833.357 678.783, 831.753 674.317, 828.861 671.096, 826.390 668.197, 824.326 664.022, 821.523 659.942, 818.654 656.084, 816.346 655.629, 816.073 " fill="none" stroke="rgb(0, 0, 0)" stroke-linecap="butt" stroke-linejoin="round" stroke-opacity="1.0" stroke-width="3.0" />
            <path d=" M 900.376, 553.997 897.848, 552.064 891.373, 547.115 882.577, 542.356 880.185, 541.062 878.381, 540.385 871.387, 537.177 866.152, 536.051 856.235, 534.766 854.132, 534.493 848.264, 532.780 841.996, 529.872 840.536, 529.195 833.741, 525.928 830.547, 523.698 826.976, 521.203 819.705, 518.448 809.733, 517.701 807.440, 517.529 807.419, 517.528 797.467, 518.510 797.203, 518.536 795.751, 519.174 795.162, 520.522 794.940, 522.553 795.718, 524.765 802.402, 529.313 804.007, 530.652 " fill="none" stroke="rgb(0, 0, 0)" stroke-linecap="butt" stroke-linejoin="round" stroke-opacity="1.0" stroke-width="3.0" />
            <path d=" M 803.435, 662.485 802.986, 662.522 799.327, 662.820 799.142, 662.835 798.997, 662.847 798.139, 662.917 793.866, 663.266 793.345, 663.308 789.559, 664.275 789.331, 664.333 786.621, 665.025 786.613, 665.027 786.506, 665.054 785.894, 665.211 785.725, 665.254 785.719, 665.255 785.550, 665.298 785.279, 665.368 785.143, 665.402 785.122, 665.408 784.892, 665.466 784.795, 665.491 784.776, 665.496 784.477, 665.522 784.448, 665.525 783.397, 665.616 783.201, 665.633 782.608, 665.685 780.609, 665.859 780.609, 665.859 779.897, 665.921 779.016, 665.998 778.444, 666.048 778.164, 666.072 777.990, 666.087 777.212, 666.155 775.915, 666.268 775.329, 666.319 773.464, 666.487 768.920, 666.894 768.787, 666.908 768.717, 666.915 768.197, 666.968 767.845, 667.004 766.824, 667.108 766.387, 667.152 764.726, 667.321 755.606, 668.250 749.305, 667.592 739.326, 668.245 739.114, 668.259 733.283, 668.791 727.933, 669.375 722.889, 669.837 720.226, 670.081 715.760, 669.020 707.400, 670.138 702.114, 671.026 699.222, 672.302 698.934, 672.430 698.926, 672.433 698.844, 672.469 698.539, 672.604 698.548, 672.721 698.617, 673.528 700.384, 676.592 700.640, 676.658 703.359, 677.357 703.376, 677.362 707.828, 678.507 716.644, 680.472 718.067, 680.746 727.885, 682.643 728.067, 682.678 732.615, 684.383 739.825, 685.995 744.137, 686.959 " fill="none" stroke="rgb(0, 0, 0)" stroke-linecap="butt" stroke-linejoin="round" stroke-opacity="1.0" stroke-width="3.0" />
            <path d=" M 753.017, 600.937 752.326, 600.860 743.392, 600.485 738.467, 600.353 728.481, 600.877 728.238, 600.890 718.243, 601.208 717.348, 601.237 712.150, 601.749 703.247, 602.761 695.582, 604.132 686.431, 606.574 680.468, 608.110 671.086, 611.571 669.882, 612.016 663.576, 613.754 653.798, 615.849 646.751, 617.358 636.752, 617.520 633.412, 617.574 623.500, 616.252 621.494, 615.984 617.526, 615.859 607.672, 614.160 597.817, 612.462 594.063, 611.815 588.248, 610.573 578.518, 608.264 575.467, 607.540 " fill="none" stroke="rgb(0, 0, 0)" stroke-linecap="butt" stroke-linejoin="round" stroke-opacity="1.0" stroke-width="3.0" />
        </g>
    </g>
</svg>
