<?xml version='1.0' encoding='ascii'?>
<svg xmlns="http://www.w3.org/2000/svg" height="1280" version="1.1" width="1280">
    <g id="RenderLayer_LineSet" inkscape:groupmode="lineset" inkscape:label="RenderLayer_LineSet" xmlns:inkscape="http://www.inkscape.org/namespaces/inkscape">
        <g id="strokes" inkscape:groupmode="layer" inkscape:label="strokes" xmlns:inkscape="http://www.inkscape.org/namespaces/inkscape">
            <path d=" M 390.699, 436.717 390.624, 437.508 389.747, 446.797 389.810, 456.820 " fill="none" stroke="rgb(0, 0, 0)" stroke-linecap="butt" stroke-linejoin="round" stroke-opacity="1.0" stroke-width="3.0" />
            <path d=" M 772.411, 876.912 769.797, 877.194 769.708, 877.203 769.149, 877.263 768.865, 877.294 768.811, 877.310 768.786, 877.318 768.532, 877.394 766.139, 878.111 765.397, 878.334 764.573, 878.581 758.367, 879.284 754.505, 880.231 752.549, 880.710 " fill="none" stroke="rgb(0, 0, 0)" stroke-linecap="butt" stroke-linejoin="round" stroke-opacity="1.0" stroke-width="3.0" />
            <path d=" M 837.078, 1022.910 839.768, 1024.228 841.599, 1025.125 842.737, 1025.683 843.215, 1025.917 843.885, 1026.245 844.323, 1026.460 844.544, 1026.525 844.759, 1026.589 846.924, 1027.231 847.757, 1027.289 849.752, 1027.428 850.891, 1027.508 851.276, 1027.534 851.909, 1027.566 852.174, 1027.579 853.347, 1027.637 853.855, 1027.662 855.918, 1027.764 855.999, 1027.768 856.420, 1027.788 " fill="none" stroke="rgb(0, 0, 0)" stroke-linecap="butt" stroke-linejoin="round" stroke-opacity="1.0" stroke-width="3.0" />
            <path d=" M 807.928, 599.724 804.601, 606.618 803.990, 607.885 800.939, 611.500 800.444, 612.087 797.338, 613.545 795.655, 614.336 795.109, 614.592 " fill="none" stroke="rgb(0, 0, 0)" stroke-linecap="butt" stroke-linejoin="round" stroke-opacity="1.0" stroke-width="3.0" />
            <path d=" M 549.228, 592.025 551.163, 588.993 551.898, 586.527 552.399, 582.798 551.971, 581.784 552.005, 581.475 552.181, 579.898 552.278, 579.024 553.026, 576.590 553.591, 572.384 " fill="none" stroke="rgb(0, 0, 0)" stroke-linecap="butt" stroke-linejoin="round" stroke-opacity="1.0" stroke-width="3.0" />
            <path d=" M 692.566, 831.802 688.076, 828.831 686.056, 827.777 683.522, 826.536 679.066, 823.689 674.790, 821.623 674.505, 821.485 " fill="none" stroke="rgb(0, 0, 0)" stroke-linecap="butt" stroke-linejoin="round" stroke-opacity="1.0" stroke-width="3.0" />
            <path d=" M 764.696, 489.128 762.162, 490.245 759.377, 489.564 754.538, 488.380 753.070, 488.021 749.173, 488.211 743.856, 488.470 " fill="none" stroke="rgb(0, 0, 0)" stroke-linecap="butt" stroke-linejoin="round" stroke-opacity="1.0" stroke-width="3.0" />
            <path d=" M 768.082, 435.126 767.837, 437.115 767.577, 439.220 767.240, 441.255 767.521, 444.442 767.626, 446.551 767.665, 447.323 766.807, 450.390 767.048, 453.854 766.418, 455.919 766.284, 456.358 " fill="none" stroke="rgb(0, 0, 0)" stroke-linecap="butt" stroke-linejoin="round" stroke-opacity="1.0" stroke-width="3.0" />
            <path d=" M 762.657, 816.266 760.746, 816.357 760.162, 816.384 759.465, 816.190 757.565, 815.661 756.825, 814.098 756.834, 811.139 756.843, 808.631 756.843, 808.489 756.844, 808.243 756.846, 807.505 756.849, 806.770 756.878, 807.496 756.910, 808.266 756.921, 808.531 756.941, 809.033 756.955, 809.365 757.155, 810.252 758.047, 814.194 " fill="none" stroke="rgb(0, 0, 0)" stroke-linecap="butt" stroke-linejoin="round" stroke-opacity="1.0" stroke-width="3.0" />
            <path d=" M 795.655, 614.336 791.497, 615.700 789.027, 615.871 788.089, 615.936 786.836, 616.023 786.172, 616.069 785.858, 616.091 785.483, 616.117 785.243, 616.134 785.108, 616.143 784.227, 616.204 784.074, 616.166 784.054, 616.160 782.717, 615.820 781.964, 615.628 781.699, 615.561 781.444, 615.496 781.182, 615.430 781.151, 615.422 780.929, 615.365 778.984, 614.870 778.492, 614.745 778.062, 614.635 775.123, 613.887 775.024, 613.862 774.441, 613.714 774.292, 613.676 " fill="none" stroke="rgb(0, 0, 0)" stroke-linecap="butt" stroke-linejoin="round" stroke-opacity="1.0" stroke-width="3.0" />
            <path d=" M 494.545, 819.935 495.183, 825.547 495.496, 827.879 497.056, 835.963 498.299, 841.080 498.412, 841.544 " fill="none" stroke="rgb(0, 0, 0)" stroke-linecap="butt" stroke-linejoin="round" stroke-opacity="1.0" stroke-width="3.0" />
            <path d=" M 745.732, 804.567 741.913, 807.418 738.429, 811.108 733.974, 815.697 732.735, 817.901 732.643, 818.121 731.439, 821.009 " fill="none" stroke="rgb(0, 0, 0)" stroke-linecap="butt" stroke-linejoin="round" stroke-opacity="1.0" stroke-width="3.0" />
            <path d=" M 993.697, 900.577 993.695, 898.269 993.694, 897.506 993.685, 889.930 993.261, 887.488 992.673, 884.106 992.591, 881.701 992.590, 881.692 992.568, 881.039 992.545, 880.358 992.544, 880.340 992.541, 880.337 991.367, 878.905 " fill="none" stroke="rgb(0, 0, 0)" stroke-linecap="butt" stroke-linejoin="round" stroke-opacity="1.0" stroke-width="3.0" />
            <path d=" M 708.715, 687.305 708.388, 687.458 706.334, 688.993 707.346, 691.218 708.773, 693.323 711.367, 696.757 713.445, 698.495 718.730, 698.785 719.083, 698.804 719.446, 698.899 720.698, 699.224 " fill="none" stroke="rgb(0, 0, 0)" stroke-linecap="butt" stroke-linejoin="round" stroke-opacity="1.0" stroke-width="3.0" />
            <path d=" M 896.501, 1028.935 896.933, 1028.770 896.963, 1028.758 899.047, 1027.962 899.162, 1027.918 901.476, 1027.033 909.545, 1024.621 911.684, 1023.982 917.192, 1020.655 " fill="none" stroke="rgb(0, 0, 0)" stroke-linecap="butt" stroke-linejoin="round" stroke-opacity="1.0" stroke-width="3.0" />
            <path d=" M 577.314, 632.737 577.592, 631.820 578.092, 630.167 579.026, 627.799 579.363, 625.426 577.964, 621.074 576.532, 618.672 571.431, 614.847 570.957, 613.908 " fill="none" stroke="rgb(0, 0, 0)" stroke-linecap="butt" stroke-linejoin="round" stroke-opacity="1.0" stroke-width="3.0" />
            <path d=" M 468.820, 379.114 467.374, 379.184 464.960, 379.301 456.896, 382.355 449.699, 387.492 448.513, 387.134 " fill="none" stroke="rgb(0, 0, 0)" stroke-linecap="butt" stroke-linejoin="round" stroke-opacity="1.0" stroke-width="3.0" />
            <path d=" M 803.060, 1045.528 804.889, 1045.119 807.240, 1044.789 812.889, 1043.503 815.388, 1043.470 817.028, 1043.753 820.222, 1043.139 822.062, 1042.973 825.232, 1042.345 825.302, 1042.331 " fill="none" stroke="rgb(0, 0, 0)" stroke-linecap="butt" stroke-linejoin="round" stroke-opacity="1.0" stroke-width="3.0" />
            <path d=" M 746.350, 795.788 745.050, 797.099 742.630, 800.663 743.879, 804.055 745.732, 804.567 750.187, 805.800 755.641, 807.829 756.217, 808.145 " fill="none" stroke="rgb(0, 0, 0)" stroke-linecap="butt" stroke-linejoin="round" stroke-opacity="1.0" stroke-width="3.0" />
            <path d=" M 977.036, 851.390 981.010, 848.155 981.292, 847.925 980.513, 845.067 979.846, 842.616 978.557, 837.883 976.742, 831.740 976.530, 831.023 " fill="none" stroke="rgb(0, 0, 0)" stroke-linecap="butt" stroke-linejoin="round" stroke-opacity="1.0" stroke-width="3.0" />
            <path d=" M 674.790, 821.623 673.495, 820.742 668.966, 818.512 664.696, 815.925 662.112, 814.851 658.600, 812.613 654.189, 810.742 653.901, 810.620 " fill="none" stroke="rgb(0, 0, 0)" stroke-linecap="butt" stroke-linejoin="round" stroke-opacity="1.0" stroke-width="3.0" />
            <path d=" M 656.356, 951.810 662.416, 956.565 665.559, 958.988 672.909, 962.978 676.511, 963.520 " fill="none" stroke="rgb(0, 0, 0)" stroke-linecap="butt" stroke-linejoin="round" stroke-opacity="1.0" stroke-width="3.0" />
            <path d=" M 393.517, 414.131 393.898, 416.104 392.106, 425.509 391.450, 427.019 390.630, 435.332 390.624, 437.508 " fill="none" stroke="rgb(0, 0, 0)" stroke-linecap="butt" stroke-linejoin="round" stroke-opacity="1.0" stroke-width="3.0" />
            <path d=" M 986.826, 968.508 986.918, 968.355 987.442, 967.478 987.525, 967.339 987.527, 967.336 988.362, 965.938 989.396, 962.173 989.512, 961.751 990.045, 959.811 990.397, 956.368 991.594, 952.931 992.766, 947.008 992.878, 946.112 992.638, 945.584 " fill="none" stroke="rgb(0, 0, 0)" stroke-linecap="butt" stroke-linejoin="round" stroke-opacity="1.0" stroke-width="3.0" />
            <path d=" M 765.772, 478.086 765.863, 479.055 765.873, 479.163 766.019, 480.728 766.285, 483.581 766.376, 484.546 765.328, 488.244 764.696, 489.128 763.406, 490.931 762.369, 492.380 761.637, 493.403 760.614, 499.117 760.406, 500.278 760.323, 500.743 " fill="none" stroke="rgb(0, 0, 0)" stroke-linecap="butt" stroke-linejoin="round" stroke-opacity="1.0" stroke-width="3.0" />
            <path d=" M 784.428, 1049.317 784.658, 1049.525 786.831, 1051.501 788.408, 1052.256 794.818, 1052.572 795.667, 1052.355 800.141, 1048.754 800.687, 1047.089 801.052, 1045.976 801.068, 1045.928 802.050, 1042.934 " fill="none" stroke="rgb(0, 0, 0)" stroke-linecap="butt" stroke-linejoin="round" stroke-opacity="1.0" stroke-width="3.0" />
            <path d=" M 493.053, 503.831 493.519, 503.555 493.600, 503.507 494.531, 502.954 494.565, 502.934 497.149, 501.400 501.521, 496.949 504.980, 491.637 507.684, 488.784 510.029, 486.722 " fill="none" stroke="rgb(0, 0, 0)" stroke-linecap="butt" stroke-linejoin="round" stroke-opacity="1.0" stroke-width="3.0" />
            <path d=" M 493.425, 600.816 492.373, 600.452 489.748, 599.542 483.988, 595.994 479.386, 594.251 473.501, 595.764 472.698, 595.666 470.569, 595.406 " fill="none" stroke="rgb(0, 0, 0)" stroke-linecap="butt" stroke-linejoin="round" stroke-opacity="1.0" stroke-width="3.0" />
            <path d=" M 839.120, 686.538 846.731, 683.164 856.300, 680.737 862.315, 681.040 862.940, 681.072 " fill="none" stroke="rgb(0, 0, 0)" stroke-linecap="butt" stroke-linejoin="round" stroke-opacity="1.0" stroke-width="3.0" />
            <path d=" M 856.777, 862.096 856.307, 861.577 854.335, 859.401 853.314, 857.468 850.433, 854.788 848.355, 852.808 848.337, 852.791 846.425, 850.854 843.674, 848.067 839.888, 843.985 " fill="none" stroke="rgb(0, 0, 0)" stroke-linecap="butt" stroke-linejoin="round" stroke-opacity="1.0" stroke-width="3.0" />
            <path d=" M 937.780, 822.202 937.015, 827.832 936.746, 832.096 935.606, 838.781 935.475, 840.324 936.913, 842.744 940.205, 842.926 941.113, 842.810 " fill="none" stroke="rgb(0, 0, 0)" stroke-linecap="butt" stroke-linejoin="round" stroke-opacity="1.0" stroke-width="3.0" />
            <path d=" M 862.315, 681.040 871.484, 683.702 880.843, 686.040 887.158, 687.023 " fill="none" stroke="rgb(0, 0, 0)" stroke-linecap="butt" stroke-linejoin="round" stroke-opacity="1.0" stroke-width="3.0" />
            <path d=" M 760.971, 956.423 758.938, 958.475 756.561, 961.951 756.677, 964.407 756.765, 966.265 756.074, 968.967 756.758, 972.337 757.031, 973.679 757.064, 973.841 757.121, 974.004 757.132, 974.036 757.275, 974.441 757.472, 975.002 758.067, 976.695 759.201, 979.921 " fill="none" stroke="rgb(0, 0, 0)" stroke-linecap="butt" stroke-linejoin="round" stroke-opacity="1.0" stroke-width="3.0" />
            <path d=" M 788.226, 856.999 788.513, 859.164 788.733, 860.821 788.529, 864.890 788.524, 864.991 788.552, 865.225 788.579, 865.444 788.716, 866.564 788.757, 866.895 789.226, 870.726 788.886, 874.563 788.660, 877.113 788.970, 878.291 789.146, 878.957 789.249, 879.350 789.431, 880.042 789.627, 880.786 789.691, 881.028 790.003, 882.212 790.089, 882.541 " fill="none" stroke="rgb(0, 0, 0)" stroke-linecap="butt" stroke-linejoin="round" stroke-opacity="1.0" stroke-width="3.0" />
            <path d=" M 759.317, 430.743 755.006, 432.570 754.577, 437.797 756.403, 439.956 764.114, 443.527 767.626, 446.551 " fill="none" stroke="rgb(0, 0, 0)" stroke-linecap="butt" stroke-linejoin="round" stroke-opacity="1.0" stroke-width="3.0" />
            <path d=" M 904.597, 419.891 904.352, 417.844 904.103, 415.775 904.065, 415.458 903.775, 413.038 903.750, 412.827 900.271, 407.869 898.466, 404.472 895.919, 400.897 896.216, 401.605 897.348, 405.431 " fill="none" stroke="rgb(0, 0, 0)" stroke-linecap="butt" stroke-linejoin="round" stroke-opacity="1.0" stroke-width="3.0" />
            <path d=" M 512.185, 632.900 512.502, 632.604 516.160, 629.195 515.185, 626.055 512.542, 625.963 508.865, 626.753 506.060, 627.620 498.318, 630.617 " fill="none" stroke="rgb(0, 0, 0)" stroke-linecap="butt" stroke-linejoin="round" stroke-opacity="1.0" stroke-width="3.0" />
            <path d=" M 1002.727, 909.395 1003.490, 907.493 1005.992, 901.252 1007.521, 893.204 1007.526, 893.179 1007.530, 893.157 1007.625, 892.654 1007.816, 891.652 1007.881, 890.923 1008.234, 887.005 1008.216, 884.049 1008.214, 883.696 " fill="none" stroke="rgb(0, 0, 0)" stroke-linecap="butt" stroke-linejoin="round" stroke-opacity="1.0" stroke-width="3.0" />
            <path d=" M 1002.881, 794.515 1003.141, 792.186 1003.227, 791.419 1002.911, 786.726 1002.818, 785.334 1002.311, 782.671 1002.269, 782.447 1002.257, 782.077 1002.045, 775.062 1001.163, 769.650 1000.376, 768.306 " fill="none" stroke="rgb(0, 0, 0)" stroke-linecap="butt" stroke-linejoin="round" stroke-opacity="1.0" stroke-width="3.0" />
            <path d=" M 712.536, 663.200 707.185, 665.811 703.953, 670.979 704.460, 673.787 704.582, 674.461 704.585, 674.478 704.587, 674.481 707.543, 679.281 710.032, 683.921 710.074, 683.998 " fill="none" stroke="rgb(0, 0, 0)" stroke-linecap="butt" stroke-linejoin="round" stroke-opacity="1.0" stroke-width="3.0" />
            <path d=" M 854.383, 1050.504 855.955, 1051.522 858.562, 1053.074 862.223, 1054.356 863.246, 1054.222 868.490, 1054.008 873.863, 1053.114 875.839, 1053.113 878.712, 1051.914 879.632, 1051.530 " fill="none" stroke="rgb(0, 0, 0)" stroke-linecap="butt" stroke-linejoin="round" stroke-opacity="1.0" stroke-width="3.0" />
            <path d=" M 784.868, 856.520 784.290, 857.274 784.230, 857.353 780.897, 861.705 780.404, 862.493 779.209, 864.405 779.158, 864.486 778.862, 864.960 778.666, 865.274 776.752, 868.334 772.299, 873.717 771.990, 874.090 771.928, 874.165 771.762, 874.365 771.287, 874.940 771.282, 874.945 771.254, 874.979 771.121, 875.141 770.661, 875.696 768.735, 877.232 768.716, 877.247 768.532, 877.394 " fill="none" stroke="rgb(0, 0, 0)" stroke-linecap="butt" stroke-linejoin="round" stroke-opacity="1.0" stroke-width="3.0" />
            <path d=" M 756.939, 521.506 757.606, 527.972 757.516, 528.169 757.512, 528.177 757.177, 528.916 755.129, 533.416 754.914, 533.889 754.585, 534.614 752.636, 539.287 752.023, 539.839 751.984, 539.874 751.818, 540.023 749.153, 542.425 748.276, 543.137 746.583, 544.511 " fill="none" stroke="rgb(0, 0, 0)" stroke-linecap="butt" stroke-linejoin="round" stroke-opacity="1.0" stroke-width="3.0" />
            <path d=" M 522.479, 674.828 522.509, 674.780 523.155, 673.775 525.651, 669.891 526.111, 668.017 526.277, 666.326 526.420, 663.713 524.824, 661.181 523.220, 658.652 519.318, 656.058 519.058, 654.978 519.749, 651.929 " fill="none" stroke="rgb(0, 0, 0)" stroke-linecap="butt" stroke-linejoin="round" stroke-opacity="1.0" stroke-width="3.0" />
            <path d=" M 704.582, 674.461 698.727, 674.903 696.357, 675.082 686.683, 677.614 680.559, 679.218 678.116, 680.057 " fill="none" stroke="rgb(0, 0, 0)" stroke-linecap="butt" stroke-linejoin="round" stroke-opacity="1.0" stroke-width="3.0" />
            <path d=" M 771.961, 732.804 771.214, 735.503 770.491, 738.114 768.450, 743.890 767.393, 752.128 767.040, 755.570 766.114, 757.233 765.157, 758.952 " fill="none" stroke="rgb(0, 0, 0)" stroke-linecap="butt" stroke-linejoin="round" stroke-opacity="1.0" stroke-width="3.0" />
            <path d=" M 562.874, 721.463 562.837, 721.278 562.123, 717.650 563.896, 710.814 562.730, 706.955 559.699, 705.344 555.167, 705.833 551.038, 707.331 " fill="none" stroke="rgb(0, 0, 0)" stroke-linecap="butt" stroke-linejoin="round" stroke-opacity="1.0" stroke-width="3.0" />
            <path d=" M 767.738, 1029.127 768.233, 1029.989 769.777, 1032.678 770.462, 1035.263 772.527, 1039.326 774.987, 1043.807 778.230, 1045.985 781.966, 1047.503 784.658, 1049.525 " fill="none" stroke="rgb(0, 0, 0)" stroke-linecap="butt" stroke-linejoin="round" stroke-opacity="1.0" stroke-width="3.0" />
            <path d=" M 799.129, 288.791 799.065, 288.760 799.004, 288.730 797.735, 288.112 793.353, 285.976 791.837, 285.064 791.831, 285.060 791.796, 285.040 791.506, 284.865 791.490, 284.855 791.415, 284.810 791.186, 284.672 785.423, 281.206 781.044, 279.283 780.363, 278.984 780.292, 278.953 774.241, 278.948 773.683, 278.948 " fill="none" stroke="rgb(0, 0, 0)" stroke-linecap="butt" stroke-linejoin="round" stroke-opacity="1.0" stroke-width="3.0" />
            <path d=" M 992.146, 907.677 992.205, 907.310 992.496, 905.521 993.015, 902.324 992.957, 900.014 992.864, 896.346 992.806, 894.017 993.249, 890.990 992.000, 884.083 991.969, 883.909 991.726, 882.565 991.502, 880.501 991.358, 879.888 " fill="none" stroke="rgb(0, 0, 0)" stroke-linecap="butt" stroke-linejoin="round" stroke-opacity="1.0" stroke-width="3.0" />
            <path d=" M 829.555, 829.850 829.221, 829.111 826.324, 822.694 823.683, 816.898 820.652, 808.966 818.749, 803.617 " fill="none" stroke="rgb(0, 0, 0)" stroke-linecap="butt" stroke-linejoin="round" stroke-opacity="1.0" stroke-width="3.0" />
            <path d=" M 741.825, 721.281 741.590, 723.307 741.574, 723.442 741.373, 725.178 741.323, 725.605 740.911, 729.162 739.609, 734.143 739.592, 734.917 739.561, 736.408 739.468, 740.858 740.251, 743.673 740.549, 744.740 741.783, 749.174 " fill="none" stroke="rgb(0, 0, 0)" stroke-linecap="butt" stroke-linejoin="round" stroke-opacity="1.0" stroke-width="3.0" />
            <path d=" M 507.433, 533.092 508.101, 532.722 511.934, 530.593 512.964, 528.955 514.346, 526.095 516.723, 522.988 518.499, 520.436 521.596, 518.012 528.313, 515.272 " fill="none" stroke="rgb(0, 0, 0)" stroke-linecap="butt" stroke-linejoin="round" stroke-opacity="1.0" stroke-width="3.0" />
            <path d=" M 949.430, 1001.460 950.136, 1000.844 952.322, 998.937 953.608, 997.814 954.166, 996.970 954.522, 996.430 954.688, 996.180 955.313, 995.233 956.104, 992.974 960.170, 989.486 963.985, 984.824 965.685, 982.798 967.436, 980.710 967.479, 980.659 967.569, 980.552 968.172, 979.833 " fill="none" stroke="rgb(0, 0, 0)" stroke-linecap="butt" stroke-linejoin="round" stroke-opacity="1.0" stroke-width="3.0" />
            <path d=" M 986.084, 858.974 985.096, 855.860 984.854, 855.099 984.387, 853.626 984.266, 852.904 984.171, 852.337 983.804, 850.151 983.571, 848.754 982.271, 845.609 982.171, 845.370 981.359, 843.405 981.333, 843.215 981.284, 842.868 980.688, 838.601 976.742, 831.740 " fill="none" stroke="rgb(0, 0, 0)" stroke-linecap="butt" stroke-linejoin="round" stroke-opacity="1.0" stroke-width="3.0" />
            <path d=" M 823.946, 1020.733 829.108, 1022.768 829.372, 1022.872 829.602, 1022.922 829.692, 1022.942 829.802, 1022.966 829.852, 1022.976 829.912, 1022.990 831.058, 1023.240 835.964, 1024.311 836.221, 1024.395 837.264, 1024.736 837.997, 1024.975 839.353, 1025.419 841.123, 1025.997 841.403, 1026.099 841.468, 1026.124 842.142, 1026.371 843.943, 1027.032 844.234, 1027.139 845.101, 1027.347 845.943, 1027.549 846.134, 1027.595 846.364, 1027.650 846.427, 1027.665 847.498, 1027.923 847.520, 1027.928 847.818, 1028.000 847.859, 1028.009 848.156, 1027.977 848.775, 1027.909 848.956, 1027.889 849.081, 1027.875 849.909, 1027.785 851.909, 1027.566 " fill="none" stroke="rgb(0, 0, 0)" stroke-linecap="butt" stroke-linejoin="round" stroke-opacity="1.0" stroke-width="3.0" />
            <path d=" M 1004.192, 815.549 1004.247, 814.905 1004.498, 811.942 1004.654, 811.389 1005.360, 808.894 1005.026, 807.136 1004.743, 805.648 1004.415, 803.924 1004.408, 801.176 1004.405, 799.746 1004.778, 796.606 1004.793, 796.482 1004.617, 795.782 1004.487, 795.269 1003.957, 793.162 1003.852, 792.517 1002.911, 786.726 " fill="none" stroke="rgb(0, 0, 0)" stroke-linecap="butt" stroke-linejoin="round" stroke-opacity="1.0" stroke-width="3.0" />
            <path d=" M 518.737, 652.962 519.749, 651.929 521.901, 649.734 524.203, 646.287 525.127, 640.408 524.078, 639.123 523.380, 638.301 520.377, 637.038 515.963, 636.012 512.634, 633.280 " fill="none" stroke="rgb(0, 0, 0)" stroke-linecap="butt" stroke-linejoin="round" stroke-opacity="1.0" stroke-width="3.0" />
            <path d=" M 749.447, 756.692 749.595, 756.887 750.476, 758.054 750.486, 758.068 753.703, 762.328 756.383, 768.612 756.419, 768.698 756.885, 769.791 757.624, 771.524 758.206, 776.714 758.991, 778.283 759.043, 778.387 759.148, 778.597 759.905, 780.110 760.624, 783.525 " fill="none" stroke="rgb(0, 0, 0)" stroke-linecap="butt" stroke-linejoin="round" stroke-opacity="1.0" stroke-width="3.0" />
            <path d=" M 712.459, 620.072 710.040, 620.482 708.078, 622.114 702.964, 625.248 702.843, 628.240 704.613, 632.668 705.025, 635.805 705.937, 639.365 706.968, 643.386 " fill="none" stroke="rgb(0, 0, 0)" stroke-linecap="butt" stroke-linejoin="round" stroke-opacity="1.0" stroke-width="3.0" />
            <path d=" M 954.166, 996.970 955.930, 995.893 956.418, 995.595 958.111, 993.316 961.103, 989.124 964.262, 984.871 966.246, 982.940 968.412, 980.831 968.481, 980.788 968.568, 980.734 968.696, 980.655 969.364, 980.240 969.614, 980.085 970.983, 979.236 971.034, 979.204 971.295, 979.293 972.027, 979.544 975.100, 980.595 975.372, 980.688 976.020, 980.910 " fill="none" stroke="rgb(0, 0, 0)" stroke-linecap="butt" stroke-linejoin="round" stroke-opacity="1.0" stroke-width="3.0" />
            <path d=" M 744.932, 560.796 745.128, 565.019 744.915, 565.851 744.260, 568.412 742.595, 573.454 742.393, 574.064 737.324, 582.232 736.852, 583.072 736.391, 583.893 736.363, 583.943 736.239, 584.163 733.965, 588.210 " fill="none" stroke="rgb(0, 0, 0)" stroke-linecap="butt" stroke-linejoin="round" stroke-opacity="1.0" stroke-width="3.0" />
            <path d=" M 441.321, 484.135 440.947, 481.595 439.489, 471.702 439.439, 471.361 439.424, 471.262 439.369, 464.718 437.751, 457.024 437.273, 453.932 " fill="none" stroke="rgb(0, 0, 0)" stroke-linecap="butt" stroke-linejoin="round" stroke-opacity="1.0" stroke-width="3.0" />
            <path d=" M 835.642, 347.662 835.206, 346.586 834.721, 345.582 835.642, 347.662 838.984, 355.214 844.125, 361.350 851.445, 368.163 851.767, 368.462 " fill="none" stroke="rgb(0, 0, 0)" stroke-linecap="butt" stroke-linejoin="round" stroke-opacity="1.0" stroke-width="3.0" />
            <path d=" M 996.384, 779.827 996.105, 769.831 996.075, 768.735 996.033, 767.227 994.667, 762.199 993.675, 758.550 993.376, 757.677 993.366, 757.648 990.486, 749.243 " fill="none" stroke="rgb(0, 0, 0)" stroke-linecap="butt" stroke-linejoin="round" stroke-opacity="1.0" stroke-width="3.0" />
            <path d=" M 552.181, 579.898 554.064, 574.951 554.541, 570.511 550.842, 566.866 542.958, 564.534 539.369, 564.419 536.099, 563.774 534.695, 563.807 " fill="none" stroke="rgb(0, 0, 0)" stroke-linecap="butt" stroke-linejoin="round" stroke-opacity="1.0" stroke-width="3.0" />
            <path d=" M 774.519, 930.036 771.127, 935.697 770.519, 936.425 769.880, 937.190 769.687, 937.421 768.495, 938.848 768.393, 938.971 768.357, 939.013 768.217, 939.181 767.580, 940.084 767.256, 940.543 767.221, 940.593 767.152, 940.690 767.107, 940.755 766.966, 940.954 766.810, 941.175 766.739, 941.275 766.039, 942.267 766.031, 942.278 765.668, 943.342 765.627, 943.462 765.616, 943.495 765.561, 943.656 764.987, 945.337 763.792, 949.388 761.164, 954.814 760.971, 956.423 760.764, 958.141 " fill="none" stroke="rgb(0, 0, 0)" stroke-linecap="butt" stroke-linejoin="round" stroke-opacity="1.0" stroke-width="3.0" />
            <path d=" M 764.487, 903.257 764.203, 903.932 764.105, 904.164 762.817, 907.218 760.643, 912.295 758.751, 915.590 758.230, 916.497 758.171, 916.600 758.050, 916.810 757.810, 917.228 757.574, 917.640 757.396, 917.950 757.385, 917.966 757.062, 918.454 753.747, 923.470 753.214, 924.275 750.141, 927.941 749.479, 928.731 749.333, 928.905 748.367, 929.774 748.231, 929.896 748.216, 929.910 748.162, 929.959 748.146, 929.973 748.090, 930.023 747.968, 930.133 " fill="none" stroke="rgb(0, 0, 0)" stroke-linecap="butt" stroke-linejoin="round" stroke-opacity="1.0" stroke-width="3.0" />
            <path d=" M 742.595, 573.454 739.949, 572.145 734.315, 570.633 729.712, 570.555 720.609, 572.098 719.230, 573.313 717.545, 577.030 716.820, 578.753 717.522, 580.290 " fill="none" stroke="rgb(0, 0, 0)" stroke-linecap="butt" stroke-linejoin="round" stroke-opacity="1.0" stroke-width="3.0" />
            <path d=" M 468.033, 459.259 465.582, 454.033 463.868, 450.378 462.277, 443.467 461.993, 434.917 461.136, 430.813 459.957, 428.599 " fill="none" stroke="rgb(0, 0, 0)" stroke-linecap="butt" stroke-linejoin="round" stroke-opacity="1.0" stroke-width="3.0" />
            <path d=" M 820.870, 305.401 820.208, 303.711 818.596, 299.990 816.354, 294.816 815.051, 293.594 811.047, 290.731 810.246, 289.858 810.236, 289.846 808.892, 288.382 800.676, 287.767 797.735, 288.112 " fill="none" stroke="rgb(0, 0, 0)" stroke-linecap="butt" stroke-linejoin="round" stroke-opacity="1.0" stroke-width="3.0" />
            <path d=" M 540.407, 689.324 539.741, 687.194 539.594, 686.722 541.122, 682.120 541.765, 678.600 540.655, 674.616 535.858, 673.582 525.933, 674.801 523.835, 675.059 523.465, 674.981 " fill="none" stroke="rgb(0, 0, 0)" stroke-linecap="butt" stroke-linejoin="round" stroke-opacity="1.0" stroke-width="3.0" />
            <path d=" M 464.914, 530.661 468.517, 529.970 471.123, 529.470 471.925, 528.127 470.235, 526.242 468.038, 524.111 464.560, 522.797 458.275, 519.993 453.066, 519.468 451.272, 519.287 449.864, 518.541 " fill="none" stroke="rgb(0, 0, 0)" stroke-linecap="butt" stroke-linejoin="round" stroke-opacity="1.0" stroke-width="3.0" />
            <path d=" M 784.811, 327.479 783.245, 329.222 782.786, 329.733 776.451, 329.262 767.789, 329.285 761.834, 330.765 761.536, 331.041 761.430, 331.140 761.373, 331.193 760.208, 332.275 758.079, 334.452 758.080, 338.058 " fill="none" stroke="rgb(0, 0, 0)" stroke-linecap="butt" stroke-linejoin="round" stroke-opacity="1.0" stroke-width="3.0" />
            <path d=" M 617.002, 670.347 617.019, 669.057 617.022, 668.870 616.946, 668.516 616.924, 668.413 616.623, 667.003 615.400, 664.527 613.572, 663.480 609.986, 661.664 605.461, 660.948 604.660, 661.007 599.655, 662.184 596.687, 664.614 596.398, 664.851 595.433, 665.642 595.108, 666.517 594.964, 666.905 594.762, 667.449 594.705, 667.602 593.912, 669.736 593.438, 671.015 " fill="none" stroke="rgb(0, 0, 0)" stroke-linecap="butt" stroke-linejoin="round" stroke-opacity="1.0" stroke-width="3.0" />
            <path d=" M 989.285, 754.329 986.364, 744.766 986.046, 743.727 984.219, 733.895 982.932, 726.965 982.806, 726.290 980.918, 721.356 " fill="none" stroke="rgb(0, 0, 0)" stroke-linecap="butt" stroke-linejoin="round" stroke-opacity="1.0" stroke-width="3.0" />
            <path d=" M 562.837, 721.278 567.350, 724.431 570.320, 729.233 570.480, 731.332 570.460, 734.283 568.522, 738.177 568.365, 738.494 566.438, 740.644 565.766, 741.394 565.583, 741.599 563.431, 743.129 563.415, 743.139 563.411, 743.142 563.390, 743.158 563.299, 743.222 563.271, 743.242 562.904, 743.503 561.721, 744.344 560.528, 745.191 562.945, 743.724 " fill="none" stroke="rgb(0, 0, 0)" stroke-linecap="butt" stroke-linejoin="round" stroke-opacity="1.0" stroke-width="3.0" />
            <path d=" M 992.766, 936.841 993.588, 934.796 995.772, 929.357 997.944, 924.194 999.602, 920.018 997.892, 926.017 995.990, 929.179 995.246, 932.049 993.588, 934.796 " fill="none" stroke="rgb(0, 0, 0)" stroke-linecap="butt" stroke-linejoin="round" stroke-opacity="1.0" stroke-width="3.0" />
            <path d=" M 537.177, 715.300 537.896, 714.722 538.396, 714.321 541.649, 711.706 542.804, 710.357 543.084, 709.810 543.532, 708.935 543.712, 708.585 543.910, 708.198 544.288, 707.461 545.185, 705.695 546.389, 702.626 546.740, 701.088 547.031, 697.384 546.361, 694.109 544.971, 691.125 539.741, 687.194 " fill="none" stroke="rgb(0, 0, 0)" stroke-linecap="butt" stroke-linejoin="round" stroke-opacity="1.0" stroke-width="3.0" />
            <path d=" M 402.558, 397.785 401.281, 397.162 399.007, 397.557 395.441, 403.595 393.593, 410.633 392.054, 415.975 392.043, 420.347 391.450, 427.019 " fill="none" stroke="rgb(0, 0, 0)" stroke-linecap="butt" stroke-linejoin="round" stroke-opacity="1.0" stroke-width="3.0" />
            <path d=" M 448.400, 390.211 448.443, 388.473 448.457, 387.872 448.476, 387.123 448.476, 387.105 448.572, 383.190 451.113, 377.375 451.073, 375.702 450.569, 366.312 449.438, 361.678 447.302, 359.956 444.482, 359.621 " fill="none" stroke="rgb(0, 0, 0)" stroke-linecap="butt" stroke-linejoin="round" stroke-opacity="1.0" stroke-width="3.0" />
            <path d=" M 913.781, 446.990 911.595, 437.232 910.299, 431.451 909.024, 423.548 905.895, 414.688 903.775, 413.038 " fill="none" stroke="rgb(0, 0, 0)" stroke-linecap="butt" stroke-linejoin="round" stroke-opacity="1.0" stroke-width="3.0" />
            <path d=" M 705.937, 639.365 704.457, 641.465 701.392, 645.814 700.558, 647.489 700.085, 648.440 700.232, 649.094 702.134, 654.112 703.881, 659.700 708.635, 661.430 712.536, 663.200 716.177, 664.853 " fill="none" stroke="rgb(0, 0, 0)" stroke-linecap="butt" stroke-linejoin="round" stroke-opacity="1.0" stroke-width="3.0" />
            <path d=" M 722.306, 542.046 725.229, 543.387 729.198, 545.209 735.368, 546.362 737.205, 547.552 737.657, 547.845 738.033, 549.635 738.755, 553.071 742.806, 560.693 744.177, 564.062 744.915, 565.851 " fill="none" stroke="rgb(0, 0, 0)" stroke-linecap="butt" stroke-linejoin="round" stroke-opacity="1.0" stroke-width="3.0" />
            <path d=" M 1001.959, 804.511 1001.961, 804.243 1001.980, 800.172 1001.985, 799.013 999.534, 789.318 999.123, 787.691 997.678, 779.187 996.162, 769.303 996.075, 768.735 " fill="none" stroke="rgb(0, 0, 0)" stroke-linecap="butt" stroke-linejoin="round" stroke-opacity="1.0" stroke-width="3.0" />
            <path d=" M 853.886, 1028.240 855.900, 1028.922 856.447, 1029.106 856.490, 1029.121 857.147, 1029.343 857.900, 1029.598 859.428, 1029.994 859.881, 1030.111 868.504, 1032.343 873.131, 1032.194 877.086, 1031.034 877.678, 1030.861 879.206, 1030.915 883.851, 1031.081 885.290, 1030.717 888.149, 1029.993 889.394, 1029.678 " fill="none" stroke="rgb(0, 0, 0)" stroke-linecap="butt" stroke-linejoin="round" stroke-opacity="1.0" stroke-width="3.0" />
            <path d=" M 811.919, 770.018 811.908, 769.899 811.888, 769.689 811.508, 765.682 811.501, 765.616 811.459, 765.174 811.417, 764.731 811.412, 764.669 811.388, 764.416 810.910, 761.464 809.956, 755.570 809.859, 753.738 809.614, 749.107 809.596, 748.771 809.628, 741.725 809.630, 741.425 809.657, 735.460 809.665, 733.696 " fill="none" stroke="rgb(0, 0, 0)" stroke-linecap="butt" stroke-linejoin="round" stroke-opacity="1.0" stroke-width="3.0" />
            <path d=" M 601.836, 684.002 604.363, 685.034 607.690, 685.904 607.995, 685.984 608.567, 686.134 611.609, 686.930 616.889, 686.011 619.656, 683.544 620.892, 681.047 620.969, 680.891 621.053, 680.723 621.453, 679.914 622.380, 676.328 622.361, 676.275 621.344, 673.393 618.843, 670.992 617.388, 669.595 616.984, 668.565 616.924, 668.413 " fill="none" stroke="rgb(0, 0, 0)" stroke-linecap="butt" stroke-linejoin="round" stroke-opacity="1.0" stroke-width="3.0" />
            <path d=" M 819.149, 805.717 818.749, 803.617 818.743, 803.583 818.174, 800.597 818.064, 800.018 817.933, 799.079 817.744, 797.714 817.344, 794.832 817.233, 794.405 817.102, 793.901 816.914, 793.177 816.723, 792.440 816.596, 791.955 816.550, 791.775 816.503, 791.594 816.424, 791.293 816.234, 790.561 815.726, 788.607 815.652, 788.322 815.076, 786.369 814.968, 786.003 814.009, 782.748 813.996, 782.704 813.639, 779.242 813.626, 779.118 813.432, 777.236 812.462, 772.608 811.979, 770.305 811.919, 770.018 811.900, 769.928 811.868, 769.775 811.769, 769.304 " fill="none" stroke="rgb(0, 0, 0)" stroke-linecap="butt" stroke-linejoin="round" stroke-opacity="1.0" stroke-width="3.0" />
            <path d=" M 451.138, 508.852 451.205, 508.818 454.299, 507.232 457.676, 503.973 459.125, 501.086 459.542, 500.209 458.139, 497.212 458.095, 494.014 454.913, 491.582 453.477, 491.472 448.059, 491.106 446.304, 491.612 443.954, 492.289 441.690, 490.073 " fill="none" stroke="rgb(0, 0, 0)" stroke-linecap="butt" stroke-linejoin="round" stroke-opacity="1.0" stroke-width="3.0" />
            <path d=" M 659.439, 681.417 658.158, 681.361 655.052, 681.224 645.604, 680.541 642.429, 680.178 633.638, 678.807 625.017, 676.884 622.361, 676.275 " fill="none" stroke="rgb(0, 0, 0)" stroke-linecap="butt" stroke-linejoin="round" stroke-opacity="1.0" stroke-width="3.0" />
            <path d=" M 492.586, 626.112 494.030, 620.131 494.035, 620.112 494.144, 619.660 494.321, 619.451 496.132, 617.313 499.099, 614.008 501.566, 611.431 504.474, 607.623 503.764, 604.509 498.120, 601.873 492.373, 600.452 " fill="none" stroke="rgb(0, 0, 0)" stroke-linecap="butt" stroke-linejoin="round" stroke-opacity="1.0" stroke-width="3.0" />
            <path d=" M 592.121, 667.361 592.631, 667.092 592.768, 667.020 593.800, 666.191 594.040, 665.998 595.753, 664.623 595.931, 664.440 596.141, 664.224 598.191, 662.116 598.123, 658.509 598.772, 654.497 597.752, 649.404 595.782, 646.523 594.601, 645.741 590.219, 643.673 587.589, 640.709 585.387, 638.116 " fill="none" stroke="rgb(0, 0, 0)" stroke-linecap="butt" stroke-linejoin="round" stroke-opacity="1.0" stroke-width="3.0" />
            <path d=" M 994.667, 762.199 994.243, 758.497 992.127, 748.724 990.631, 741.809 990.126, 740.042 987.615, 730.363 986.248, 725.095 " fill="none" stroke="rgb(0, 0, 0)" stroke-linecap="butt" stroke-linejoin="round" stroke-opacity="1.0" stroke-width="3.0" />
            <path d=" M 570.688, 609.244 570.831, 606.068 569.490, 602.706 565.291, 601.198 563.530, 600.849 560.402, 600.229 560.128, 599.439 559.843, 598.615 559.801, 594.512 558.559, 588.829 557.546, 586.052 555.387, 583.502 552.005, 581.475 " fill="none" stroke="rgb(0, 0, 0)" stroke-linecap="butt" stroke-linejoin="round" stroke-opacity="1.0" stroke-width="3.0" />
            <path d=" M 468.221, 416.372 468.505, 415.992 474.492, 407.981 474.579, 407.864 479.518, 403.251 481.413, 401.491 483.164, 399.865 484.451, 398.995 488.058, 396.559 491.908, 394.099 496.990, 391.592 " fill="none" stroke="rgb(0, 0, 0)" stroke-linecap="butt" stroke-linejoin="round" stroke-opacity="1.0" stroke-width="3.0" />
            <path d=" M 814.749, 284.921 812.502, 282.341 806.025, 280.883 803.427, 277.539 794.778, 272.520 794.316, 272.252 786.556, 271.626 781.568, 271.261 780.736, 271.872 " fill="none" stroke="rgb(0, 0, 0)" stroke-linecap="butt" stroke-linejoin="round" stroke-opacity="1.0" stroke-width="3.0" />
            <path d=" M 780.367, 879.874 780.193, 879.979 775.529, 882.786 774.595, 883.348 773.811, 883.820 773.753, 883.855 773.707, 883.883 773.523, 884.042 772.691, 884.761 768.198, 888.646 766.142, 890.890 764.317, 894.044 764.437, 900.551 764.441, 900.773 764.444, 900.915 764.487, 903.257 764.495, 903.683 764.496, 903.717 764.498, 903.847 764.500, 903.923 764.633, 911.101 " fill="none" stroke="rgb(0, 0, 0)" stroke-linecap="butt" stroke-linejoin="round" stroke-opacity="1.0" stroke-width="3.0" />
            <path d=" M 695.854, 403.923 700.351, 405.117 700.430, 405.138 710.095, 407.703 711.598, 408.103 720.973, 411.583 724.011, 412.712 729.072, 415.569 733.689, 417.307 " fill="none" stroke="rgb(0, 0, 0)" stroke-linecap="butt" stroke-linejoin="round" stroke-opacity="1.0" stroke-width="3.0" />
            <path d=" M 721.482, 701.061 721.488, 703.301 721.997, 705.869 723.995, 710.624 727.011, 717.564 728.408, 720.392 730.386, 723.909 730.431, 723.989 732.037, 726.586 733.090, 729.144 733.207, 729.428 735.630, 732.329 737.518, 734.345 737.976, 734.809 739.561, 736.408 " fill="none" stroke="rgb(0, 0, 0)" stroke-linecap="butt" stroke-linejoin="round" stroke-opacity="1.0" stroke-width="3.0" />
            <path d=" M 878.712, 1051.914 880.895, 1052.392 882.971, 1052.452 885.622, 1051.706 891.672, 1048.886 896.001, 1042.419 897.493, 1039.570 901.690, 1035.001 905.345, 1030.526 907.018, 1027.201 907.099, 1027.117 " fill="none" stroke="rgb(0, 0, 0)" stroke-linecap="butt" stroke-linejoin="round" stroke-opacity="1.0" stroke-width="3.0" />
            <path d=" M 833.438, 343.023 831.054, 335.966 828.277, 328.272 827.550, 325.419 826.031, 320.183 824.134, 313.738 822.811, 309.607 820.870, 305.401 820.324, 304.218 " fill="none" stroke="rgb(0, 0, 0)" stroke-linecap="butt" stroke-linejoin="round" stroke-opacity="1.0" stroke-width="3.0" />
            <path d=" M 418.260, 403.440 418.245, 403.336 418.239, 403.296 418.183, 402.915 417.939, 401.252 417.836, 400.553 417.687, 399.542 417.668, 399.411 416.867, 393.969 416.672, 393.463 415.269, 389.821 415.203, 389.649 415.150, 389.511 415.113, 389.415 414.320, 389.066 413.436, 388.678 413.165, 388.559 412.195, 388.132 411.832, 388.266 409.960, 388.956 407.023, 395.674 406.408, 397.081 406.111, 399.086 405.295, 404.591 404.990, 407.958 404.877, 409.205 " fill="none" stroke="rgb(0, 0, 0)" stroke-linecap="butt" stroke-linejoin="round" stroke-opacity="1.0" stroke-width="3.0" />
            <path d=" M 989.162, 694.617 988.964, 692.170 988.664, 688.469 988.610, 678.942 991.104, 675.607 993.522, 672.381 994.844, 670.391 995.451, 669.093 996.438, 663.549 996.387, 662.516 995.034, 657.854 993.670, 655.923 992.741, 655.229 " fill="none" stroke="rgb(0, 0, 0)" stroke-linecap="butt" stroke-linejoin="round" stroke-opacity="1.0" stroke-width="3.0" />
            <path d=" M 933.765, 534.456 930.771, 524.915 930.016, 522.509 927.422, 512.851 926.063, 507.795 924.336, 498.607 923.810, 496.257 922.961, 492.470 " fill="none" stroke="rgb(0, 0, 0)" stroke-linecap="butt" stroke-linejoin="round" stroke-opacity="1.0" stroke-width="3.0" />
            <path d=" M 985.131, 720.136 985.015, 718.062 984.456, 708.078 984.335, 705.908 983.108, 695.984 982.884, 694.178 981.836, 684.233 981.606, 682.043 981.331, 675.727 " fill="none" stroke="rgb(0, 0, 0)" stroke-linecap="butt" stroke-linejoin="round" stroke-opacity="1.0" stroke-width="3.0" />
            <path d=" M 761.500, 789.926 761.631, 792.188 761.699, 793.348 761.576, 794.874 761.240, 799.040 762.248, 800.947 764.305, 806.943 764.755, 810.209 765.036, 812.247 765.044, 812.271 765.404, 813.293 766.232, 815.651 766.945, 817.679 770.610, 823.644 770.718, 823.915 770.727, 823.938 771.013, 824.650 773.510, 830.872 774.165, 832.504 " fill="none" stroke="rgb(0, 0, 0)" stroke-linecap="butt" stroke-linejoin="round" stroke-opacity="1.0" stroke-width="3.0" />
            <path d=" M 742.928, 753.289 744.257, 758.063 744.847, 762.172 745.171, 763.927 744.635, 767.640 744.658, 767.861 745.245, 773.389 747.914, 777.115 751.422, 780.341 752.205, 781.170 756.729, 785.956 761.419, 791.828 761.631, 792.188 " fill="none" stroke="rgb(0, 0, 0)" stroke-linecap="butt" stroke-linejoin="round" stroke-opacity="1.0" stroke-width="3.0" />
            <path d=" M 440.481, 422.714 440.425, 422.676 439.530, 422.366 440.481, 422.714 446.351, 424.860 449.190, 426.168 452.194, 429.543 452.396, 434.087 451.732, 437.128 449.695, 440.508 444.737, 444.034 441.984, 446.097 440.772, 446.402 438.289, 447.026 436.170, 448.452 434.407, 449.638 433.739, 450.088 " fill="none" stroke="rgb(0, 0, 0)" stroke-linecap="butt" stroke-linejoin="round" stroke-opacity="1.0" stroke-width="3.0" />
            <path d=" M 727.311, 413.864 733.689, 417.307 741.427, 421.483 746.269, 423.339 754.887, 428.411 755.615, 428.839 759.317, 430.743 762.298, 432.276 767.837, 437.115 " fill="none" stroke="rgb(0, 0, 0)" stroke-linecap="butt" stroke-linejoin="round" stroke-opacity="1.0" stroke-width="3.0" />
            <path d=" M 1007.967, 864.710 1007.994, 862.959 1008.104, 855.788 1007.991, 848.259 1007.874, 841.869 1007.124, 836.512 1006.054, 829.418 1005.572, 823.598 1004.705, 818.363 1004.481, 817.364 1004.375, 816.890 1004.247, 816.320 " fill="none" stroke="rgb(0, 0, 0)" stroke-linecap="butt" stroke-linejoin="round" stroke-opacity="1.0" stroke-width="3.0" />
            <path d=" M 752.344, 533.658 750.391, 532.987 749.040, 532.523 744.208, 530.863 739.138, 530.186 731.076, 530.683 726.173, 531.692 716.350, 533.567 713.952, 534.025 712.075, 535.167 711.065, 536.361 711.626, 538.725 714.889, 539.627 " fill="none" stroke="rgb(0, 0, 0)" stroke-linecap="butt" stroke-linejoin="round" stroke-opacity="1.0" stroke-width="3.0" />
            <path d=" M 748.874, 995.995 750.821, 998.841 751.796, 1000.265 752.344, 1001.066 752.388, 1001.130 752.538, 1001.350 752.663, 1001.532 752.783, 1001.708 753.416, 1002.633 758.725, 1006.204 764.883, 1008.819 766.591, 1009.544 766.611, 1009.553 770.568, 1012.300 771.066, 1012.645 771.103, 1012.671 779.236, 1018.490 779.667, 1018.799 781.093, 1019.432 782.702, 1020.148 783.180, 1020.361 783.851, 1020.564 784.319, 1020.707 784.333, 1020.711 786.603, 1021.401 787.354, 1021.274 788.315, 1021.113 788.590, 1021.066 789.049, 1020.643 " fill="none" stroke="rgb(0, 0, 0)" stroke-linecap="butt" stroke-linejoin="round" stroke-opacity="1.0" stroke-width="3.0" />
            <path d=" M 509.172, 487.152 510.029, 486.722 517.297, 483.073 517.833, 482.266 518.191, 479.290 517.227, 475.885 515.043, 474.946 505.109, 473.804 503.312, 473.598 501.984, 473.482 492.764, 473.514 485.281, 475.897 " fill="none" stroke="rgb(0, 0, 0)" stroke-linecap="butt" stroke-linejoin="round" stroke-opacity="1.0" stroke-width="3.0" />
            <path d=" M 809.657, 735.460 810.011, 733.015 811.497, 727.840 813.768, 721.730 815.325, 717.160 816.061, 715.471 816.444, 714.592 816.702, 714.000 816.854, 713.650 816.921, 713.497 817.519, 712.124 817.965, 711.100 818.648, 709.477 818.664, 709.440 819.415, 707.654 819.799, 707.039 824.054, 700.231 829.567, 693.698 829.688, 693.554 830.296, 692.833 831.127, 691.848 " fill="none" stroke="rgb(0, 0, 0)" stroke-linecap="butt" stroke-linejoin="round" stroke-opacity="1.0" stroke-width="3.0" />
            <path d=" M 696.954, 953.970 697.518, 950.879 697.653, 948.292 697.894, 943.658 697.516, 933.665 697.386, 930.245 697.372, 926.334 697.338, 916.334 697.327, 913.030 697.561, 907.990 697.712, 904.759 " fill="none" stroke="rgb(0, 0, 0)" stroke-linecap="butt" stroke-linejoin="round" stroke-opacity="1.0" stroke-width="3.0" />
            <path d=" M 882.947, 394.914 881.731, 393.837 874.444, 387.375 869.445, 382.741 862.530, 376.876 859.239, 374.296 851.767, 368.462 844.929, 363.123 " fill="none" stroke="rgb(0, 0, 0)" stroke-linecap="butt" stroke-linejoin="round" stroke-opacity="1.0" stroke-width="3.0" />
            <path d=" M 426.082, 360.246 424.485, 359.564 422.235, 359.010 421.564, 358.845 419.109, 359.307 417.535, 360.330 415.857, 363.094 414.742, 367.876 413.675, 376.023 410.480, 382.552 405.645, 391.305 404.424, 393.517 403.605, 395.289 403.000, 397.577 " fill="none" stroke="rgb(0, 0, 0)" stroke-linecap="butt" stroke-linejoin="round" stroke-opacity="1.0" stroke-width="3.0" />
            <path d=" M 473.531, 581.653 474.902, 580.527 477.095, 578.726 479.272, 577.423 483.183, 575.521 486.869, 572.685 487.398, 567.635 485.760, 565.963 482.674, 565.043 476.629, 562.870 473.854, 561.108 468.856, 558.951 465.715, 558.253 461.436, 557.302 461.364, 557.286 " fill="none" stroke="rgb(0, 0, 0)" stroke-linecap="butt" stroke-linejoin="round" stroke-opacity="1.0" stroke-width="3.0" />
            <path d=" M 848.897, 316.866 847.456, 314.760 842.884, 308.079 839.036, 304.140 831.252, 297.862 829.425, 296.388 823.741, 291.451 815.650, 285.575 814.749, 284.921 811.921, 282.867 " fill="none" stroke="rgb(0, 0, 0)" stroke-linecap="butt" stroke-linejoin="round" stroke-opacity="1.0" stroke-width="3.0" />
            <path d=" M 459.012, 746.945 459.310, 747.572 463.434, 756.096 465.277, 760.510 470.238, 769.193 471.261, 770.983 475.380, 780.095 476.366, 782.277 480.142, 787.977 480.442, 788.500 483.279, 793.456 " fill="none" stroke="rgb(0, 0, 0)" stroke-linecap="butt" stroke-linejoin="round" stroke-opacity="1.0" stroke-width="3.0" />
            <path d=" M 479.372, 476.418 479.692, 476.177 480.820, 475.327 484.008, 472.924 489.720, 468.997 491.192, 465.723 492.964, 463.923 493.235, 461.555 491.311, 458.920 487.825, 456.699 480.337, 457.144 471.686, 460.707 471.381, 460.833 470.909, 460.561 468.823, 459.358 466.966, 456.442 465.582, 454.033 " fill="none" stroke="rgb(0, 0, 0)" stroke-linecap="butt" stroke-linejoin="round" stroke-opacity="1.0" stroke-width="3.0" />
            <path d=" M 518.127, 518.097 527.764, 515.424 528.313, 515.272 529.138, 515.043 532.148, 512.069 530.893, 508.861 525.780, 506.618 520.241, 505.629 515.042, 503.983 509.253, 502.232 503.056, 502.159 496.107, 503.150 " fill="none" stroke="rgb(0, 0, 0)" stroke-linecap="butt" stroke-linejoin="round" stroke-opacity="1.0" stroke-width="3.0" />
            <path d=" M 790.003, 882.212 789.951, 882.715 789.926, 882.953 789.906, 883.148 789.581, 886.302 786.314, 893.973 786.214, 894.386 785.985, 895.325 785.433, 897.590 784.642, 900.841 784.382, 901.427 782.499, 905.665 781.600, 907.899 779.564, 912.958 778.698, 915.485 778.697, 915.488 778.597, 915.781 777.676, 918.468 775.397, 925.279 774.519, 930.036 773.495, 935.585 " fill="none" stroke="rgb(0, 0, 0)" stroke-linecap="butt" stroke-linejoin="round" stroke-opacity="1.0" stroke-width="3.0" />
            <path d=" M 533.328, 553.248 535.931, 552.008 536.166, 551.897 536.283, 551.841 536.879, 551.557 542.068, 548.441 543.048, 547.231 542.749, 544.554 542.726, 544.345 542.768, 544.184 542.888, 543.728 542.903, 543.671 543.545, 541.219 542.157, 539.953 540.998, 539.180 534.815, 536.864 530.027, 535.680 526.914, 534.790 519.091, 532.350 515.564, 533.280 508.373, 535.247 506.407, 534.378 " fill="none" stroke="rgb(0, 0, 0)" stroke-linecap="butt" stroke-linejoin="round" stroke-opacity="1.0" stroke-width="3.0" />
            <path d=" M 820.735, 290.843 819.294, 288.571 815.705, 286.018 815.453, 285.839 811.258, 282.855 804.276, 281.655 798.548, 278.287 794.011, 274.649 788.963, 272.349 783.377, 271.571 780.736, 271.872 778.397, 272.139 775.564, 272.818 774.199, 274.918 773.336, 278.655 " fill="none" stroke="rgb(0, 0, 0)" stroke-linecap="butt" stroke-linejoin="round" stroke-opacity="1.0" stroke-width="3.0" />
            <path d=" M 389.694, 458.913 388.157, 467.391 387.332, 476.946 387.474, 480.465 387.272, 490.463 387.088, 499.506 387.402, 502.099 388.606, 512.027 389.124, 516.305 " fill="none" stroke="rgb(0, 0, 0)" stroke-linecap="butt" stroke-linejoin="round" stroke-opacity="1.0" stroke-width="3.0" />
            <path d=" M 729.323, 824.169 726.987, 827.474 724.372, 833.455 723.759, 836.269 723.191, 839.676 723.716, 842.566 725.553, 846.000 727.274, 848.677 730.056, 850.578 734.149, 855.251 734.610, 855.798 737.960, 860.112 742.273, 864.281 749.787, 869.064 752.123, 870.070 " fill="none" stroke="rgb(0, 0, 0)" stroke-linecap="butt" stroke-linejoin="round" stroke-opacity="1.0" stroke-width="3.0" />
            <path d=" M 577.507, 902.596 580.037, 907.621 580.910, 909.505 580.963, 909.619 581.336, 910.425 582.681, 913.329 585.379, 918.415 587.769, 923.994 590.740, 928.441 594.719, 936.423 598.704, 941.948 602.039, 946.129 605.058, 950.665 608.273, 953.196 608.735, 953.559 " fill="none" stroke="rgb(0, 0, 0)" stroke-linecap="butt" stroke-linejoin="round" stroke-opacity="1.0" stroke-width="3.0" />
            <path d=" M 697.653, 948.292 698.358, 952.026 700.809, 961.721 701.047, 962.663 704.871, 971.902 705.410, 973.205 709.283, 981.700 712.571, 987.214 716.608, 991.956 717.073, 992.503 717.161, 992.606 717.492, 992.805 719.903, 994.258 720.128, 994.394 720.569, 994.660 721.623, 995.295 722.151, 995.613 727.030, 998.554 " fill="none" stroke="rgb(0, 0, 0)" stroke-linecap="butt" stroke-linejoin="round" stroke-opacity="1.0" stroke-width="3.0" />
            <path d=" M 723.769, 989.197 724.253, 990.046 724.635, 991.217 725.478, 993.797 725.971, 995.310 726.200, 996.010 726.259, 996.189 727.030, 998.554 728.529, 1003.145 731.510, 1007.815 731.650, 1007.977 735.603, 1012.545 736.766, 1013.514 738.353, 1014.837 743.695, 1017.871 746.165, 1019.105 752.624, 1021.477 757.524, 1023.255 763.364, 1024.839 763.952, 1024.978 765.204, 1025.273 768.283, 1025.832 " fill="none" stroke="rgb(0, 0, 0)" stroke-linecap="butt" stroke-linejoin="round" stroke-opacity="1.0" stroke-width="3.0" />
            <path d=" M 844.756, 909.978 844.843, 909.771 847.151, 904.325 847.394, 903.499 847.673, 901.478 847.681, 901.418 852.018, 895.285 856.427, 889.863 860.869, 884.668 862.039, 882.097 862.395, 878.155 865.770, 875.480 867.203, 871.863 866.517, 868.487 865.251, 865.322 864.187, 863.746 858.595, 862.045 856.307, 861.577 " fill="none" stroke="rgb(0, 0, 0)" stroke-linecap="butt" stroke-linejoin="round" stroke-opacity="1.0" stroke-width="3.0" />
            <path d=" M 704.510, 787.648 705.179, 791.825 705.205, 791.945 707.218, 795.632 711.340, 799.397 714.069, 800.414 715.621, 800.509 718.878, 799.267 719.973, 798.663 724.377, 793.242 726.278, 789.691 729.664, 785.889 734.676, 779.939 741.261, 772.470 744.658, 767.861 " fill="none" stroke="rgb(0, 0, 0)" stroke-linecap="butt" stroke-linejoin="round" stroke-opacity="1.0" stroke-width="3.0" />
            <path d=" M 773.510, 830.872 774.321, 834.311 775.180, 837.659 778.726, 842.109 781.068, 846.638 782.844, 848.933 783.269, 849.483 784.407, 850.953 784.774, 851.497 785.008, 851.842 785.428, 852.464 785.501, 852.572 786.452, 853.981 786.619, 854.229 786.639, 854.257 786.644, 854.265 786.791, 854.483 787.730, 855.873 787.732, 855.877 788.226, 856.999 789.391, 859.644 789.763, 860.487 790.555, 862.285 791.150, 863.303 791.493, 863.890 791.922, 864.622 792.643, 865.856 794.290, 868.674 796.136, 873.752 795.879, 876.603 796.035, 878.023 797.894, 881.899 797.378, 884.241 797.246, 884.840 796.701, 887.312 " fill="none" stroke="rgb(0, 0, 0)" stroke-linecap="butt" stroke-linejoin="round" stroke-opacity="1.0" stroke-width="3.0" />
            <path d=" M 769.811, 333.588 764.676, 335.505 761.187, 336.718 760.005, 337.129 758.080, 338.058 755.274, 339.411 753.119, 340.447 753.343, 343.240 753.658, 346.422 758.390, 348.718 768.171, 350.797 770.461, 351.283 779.877, 353.383 784.843, 353.529 787.410, 354.155 788.082, 354.318 788.673, 354.462 788.770, 354.486 791.635, 355.184 " fill="none" stroke="rgb(0, 0, 0)" stroke-linecap="butt" stroke-linejoin="round" stroke-opacity="1.0" stroke-width="3.0" />
            <path d=" M 1001.169, 769.457 1001.505, 768.352 1002.776, 764.171 1002.535, 762.124 1001.154, 757.564 1000.654, 753.581 1001.028, 751.542 999.873, 743.603 999.506, 736.438 998.352, 730.675 996.786, 724.016 995.253, 718.795 993.203, 709.879 991.911, 706.334 991.119, 704.230 " fill="none" stroke="rgb(0, 0, 0)" stroke-linecap="butt" stroke-linejoin="round" stroke-opacity="1.0" stroke-width="3.0" />
            <path d=" M 791.626, 300.154 791.125, 299.829 790.893, 299.679 790.120, 299.178 790.018, 299.112 789.005, 298.455 786.733, 296.983 783.346, 294.789 782.922, 294.514 782.842, 294.477 778.958, 292.675 774.703, 290.702 771.717, 289.395 768.157, 289.948 767.885, 290.250 766.080, 292.873 765.041, 296.327 765.522, 302.191 766.305, 306.272 770.007, 308.703 774.060, 311.362 781.753, 316.625 782.517, 317.903 784.247, 320.797 " fill="none" stroke="rgb(0, 0, 0)" stroke-linecap="butt" stroke-linejoin="round" stroke-opacity="1.0" stroke-width="3.0" />
            <path d=" M 654.189, 810.742 650.172, 808.475 647.580, 807.325 644.638, 805.301 642.931, 804.344 640.022, 802.732 637.921, 801.818 632.398, 799.370 627.769, 797.585 625.222, 796.463 617.872, 795.444 614.136, 793.863 606.632, 790.687 603.653, 788.744 601.122, 787.382 597.492, 785.455 596.594, 784.956 592.426, 782.642 " fill="none" stroke="rgb(0, 0, 0)" stroke-linecap="butt" stroke-linejoin="round" stroke-opacity="1.0" stroke-width="3.0" />
            <path d=" M 733.965, 582.172 729.441, 578.963 723.880, 576.463 722.087, 577.089 721.703, 577.224 718.507, 579.954 717.522, 580.290 708.059, 583.522 707.918, 583.570 702.130, 585.473 698.899, 588.120 698.407, 588.847 699.263, 595.639 705.925, 603.097 706.790, 604.065 706.414, 608.437 708.579, 613.386 " fill="none" stroke="rgb(0, 0, 0)" stroke-linecap="butt" stroke-linejoin="round" stroke-opacity="1.0" stroke-width="3.0" />
            <path d=" M 766.418, 455.919 759.516, 453.979 753.386, 451.833 747.212, 451.811 742.878, 452.953 739.745, 455.470 739.004, 457.635 740.322, 459.506 738.658, 462.410 740.763, 467.102 743.680, 470.124 751.711, 475.586 753.581, 476.376 758.522, 477.748 764.449, 479.008 766.019, 480.728 " fill="none" stroke="rgb(0, 0, 0)" stroke-linecap="butt" stroke-linejoin="round" stroke-opacity="1.0" stroke-width="3.0" />
            <path d=" M 749.173, 488.211 743.538, 488.221 733.957, 491.086 730.459, 492.131 725.888, 493.664 721.474, 496.257 722.086, 502.343 723.116, 504.066 725.091, 505.521 732.898, 510.210 738.262, 514.283 743.797, 520.459 745.255, 521.625 747.477, 523.402 749.272, 524.837 " fill="none" stroke="rgb(0, 0, 0)" stroke-linecap="butt" stroke-linejoin="round" stroke-opacity="1.0" stroke-width="3.0" />
            <path d=" M 981.356, 679.560 981.331, 675.727 981.315, 673.353 981.007, 664.657 980.865, 658.994 980.852, 658.457 980.663, 650.915 980.063, 643.242 979.285, 635.417 977.844, 628.713 977.248, 626.640 975.911, 621.982 973.751, 617.800 973.734, 617.767 970.014, 609.815 " fill="none" stroke="rgb(0, 0, 0)" stroke-linecap="butt" stroke-linejoin="round" stroke-opacity="1.0" stroke-width="3.0" />
            <path d=" M 493.497, 392.959 496.990, 391.592 502.023, 389.623 509.373, 388.006 512.763, 386.910 514.000, 385.382 513.709, 383.219 510.540, 381.703 506.131, 379.529 499.945, 378.648 494.758, 378.278 490.607, 377.290 480.573, 376.877 473.779, 377.610 467.374, 379.184 " fill="none" stroke="rgb(0, 0, 0)" stroke-linecap="butt" stroke-linejoin="round" stroke-opacity="1.0" stroke-width="3.0" />
            <path d=" M 640.903, 938.379 644.163, 940.834 646.525, 942.614 649.729, 946.248 655.033, 951.454 659.110, 955.456 662.391, 957.889 667.302, 961.097 670.735, 962.941 674.203, 964.255 679.867, 965.076 681.882, 964.841 686.176, 964.246 691.478, 962.362 694.451, 960.492 696.365, 957.198 696.791, 955.540 696.954, 953.970 697.463, 949.068 " fill="none" stroke="rgb(0, 0, 0)" stroke-linecap="butt" stroke-linejoin="round" stroke-opacity="1.0" stroke-width="3.0" />
            <path d=" M 567.354, 818.750 575.030, 816.603 583.548, 817.859 591.899, 820.577 598.836, 823.548 603.626, 825.524 612.681, 828.978 616.867, 830.815 622.679, 832.710 631.500, 836.471 636.931, 838.087 637.140, 838.149 641.319, 839.393 " fill="none" stroke="rgb(0, 0, 0)" stroke-linecap="butt" stroke-linejoin="round" stroke-opacity="1.0" stroke-width="3.0" />
            <path d=" M 945.229, 598.526 944.642, 597.499 944.539, 597.319 939.739, 588.914 935.570, 581.580 931.557, 572.370 931.315, 571.799 927.404, 562.595 927.276, 562.296 924.025, 552.839 922.660, 548.869 920.760, 541.032 919.121, 534.833 917.515, 525.296 " fill="none" stroke="rgb(0, 0, 0)" stroke-linecap="butt" stroke-linejoin="round" stroke-opacity="1.0" stroke-width="3.0" />
            <path d=" M 620.640, 962.724 626.468, 965.899 629.448, 966.984 638.770, 970.601 641.619, 971.707 644.008, 971.987 647.865, 971.247 651.911, 970.174 655.060, 967.696 657.698, 965.613 659.307, 962.002 657.863, 957.263 656.130, 954.276 654.544, 952.603 652.945, 951.589 647.637, 950.396 644.713, 948.704 640.373, 943.916 638.288, 940.963 638.230, 940.879 638.084, 940.548 636.930, 937.915 " fill="none" stroke="rgb(0, 0, 0)" stroke-linecap="butt" stroke-linejoin="round" stroke-opacity="1.0" stroke-width="3.0" />
            <path d=" M 387.402, 502.099 387.698, 512.095 387.797, 515.435 387.820, 524.470 388.671, 533.817 390.395, 543.667 391.936, 552.467 394.119, 562.226 394.791, 565.233 395.976, 574.038 397.945, 581.728 " fill="none" stroke="rgb(0, 0, 0)" stroke-linecap="butt" stroke-linejoin="round" stroke-opacity="1.0" stroke-width="3.0" />
            <path d=" M 428.801, 670.708 430.016, 674.694 432.406, 680.773 434.170, 685.144 436.653, 690.627 438.753, 697.272 441.434, 703.121 444.858, 711.977 447.125, 719.865 451.080, 729.050 451.597, 730.251 455.449, 739.479 456.627, 742.301 459.012, 746.945 460.180, 749.217 " fill="none" stroke="rgb(0, 0, 0)" stroke-linecap="butt" stroke-linejoin="round" stroke-opacity="1.0" stroke-width="3.0" />
            <path d=" M 651.164, 805.468 654.705, 807.769 658.670, 811.622 661.354, 813.368 666.787, 814.081 672.148, 814.875 674.124, 814.660 679.236, 815.052 683.807, 815.758 692.564, 814.992 697.136, 814.017 700.690, 811.477 698.681, 809.046 697.245, 806.447 696.448, 804.905 694.645, 802.344 689.371, 797.774 684.404, 794.305 681.750, 790.563 680.195, 788.345 " fill="none" stroke="rgb(0, 0, 0)" stroke-linecap="butt" stroke-linejoin="round" stroke-opacity="1.0" stroke-width="3.0" />
            <path d=" M 727.478, 612.208 727.102, 614.912 726.833, 616.849 725.449, 621.260 725.231, 621.956 724.807, 623.310 724.404, 624.594 720.290, 631.262 720.274, 631.287 720.187, 632.097 719.513, 638.361 719.760, 643.902 719.863, 652.309 717.666, 657.220 717.330, 660.518 717.171, 662.086 716.336, 664.675 716.265, 664.893 716.247, 664.951 715.792, 666.361 716.452, 669.269 716.632, 670.063 717.439, 672.393 717.809, 673.460 717.442, 676.449 717.354, 677.161 717.490, 677.613 717.524, 677.726 718.977, 682.549 720.005, 685.899 720.148, 687.112 720.389, 689.154 720.176, 695.915 720.362, 697.091 720.390, 697.270 720.399, 697.328 720.521, 698.104 720.698, 699.224 720.698, 699.229 721.482, 701.061 722.480, 703.391 " fill="none" stroke="rgb(0, 0, 0)" stroke-linecap="butt" stroke-linejoin="round" stroke-opacity="1.0" stroke-width="3.0" />
            <path d=" M 498.299, 841.080 498.341, 842.840 498.627, 845.216 499.724, 850.568 501.268, 853.977 501.904, 856.299 503.950, 859.770 506.602, 863.920 508.027, 865.968 510.091, 871.201 511.789, 874.332 515.236, 877.594 518.138, 882.561 522.171, 885.726 524.135, 887.632 527.625, 889.801 532.739, 890.294 535.555, 890.736 538.241, 892.775 539.684, 893.419 543.021, 892.841 547.027, 893.169 549.770, 894.259 552.115, 896.432 557.648, 897.143 557.968, 897.240 564.299, 899.149 " fill="none" stroke="rgb(0, 0, 0)" stroke-linecap="butt" stroke-linejoin="round" stroke-opacity="1.0" stroke-width="3.0" />
            <path d=" M 397.272, 578.711 397.945, 581.728 400.122, 591.489 400.695, 594.055 402.307, 599.979 405.019, 609.604 405.852, 612.558 408.662, 622.155 409.892, 626.356 413.408, 635.717 414.824, 639.487 418.743, 648.257 422.883, 657.360 423.945, 659.695 427.980, 668.845 428.801, 670.708 429.218, 671.654 " fill="none" stroke="rgb(0, 0, 0)" stroke-linecap="butt" stroke-linejoin="round" stroke-opacity="1.0" stroke-width="3.0" />
            <path d=" M 748.090, 930.023 747.590, 929.979 747.298, 929.953 747.086, 929.934 746.309, 929.864 746.229, 929.857 745.943, 929.831 743.773, 929.637 736.717, 928.783 732.671, 929.554 730.783, 930.211 730.333, 930.531 727.789, 932.985 726.008, 936.029 725.044, 938.657 723.711, 942.292 721.671, 946.308 720.682, 948.712 720.271, 954.609 722.039, 960.017 723.424, 965.863 725.969, 973.251 728.036, 977.495 729.489, 979.501 730.340, 980.676 732.542, 982.992 734.646, 985.205 738.753, 989.525 744.400, 993.977 745.048, 994.487 745.169, 994.583 746.954, 995.989 747.669, 996.553 748.817, 997.458 749.465, 998.124 749.513, 998.174 751.234, 999.944 752.330, 1001.071 752.388, 1001.130 " fill="none" stroke="rgb(0, 0, 0)" stroke-linecap="butt" stroke-linejoin="round" stroke-opacity="1.0" stroke-width="3.0" />
            <path d=" M 924.732, 540.769 924.516, 539.495 922.848, 529.635 921.917, 524.131 920.923, 514.181 920.207, 507.017 919.345, 497.054 918.483, 487.091 918.031, 481.866 916.927, 471.927 916.707, 469.950 915.443, 460.030 914.179, 450.111 913.919, 448.072 913.830, 447.369 913.781, 446.990 913.829, 447.367 913.917, 448.066 915.105, 457.516 915.570, 462.260 " fill="none" stroke="rgb(0, 0, 0)" stroke-linecap="butt" stroke-linejoin="round" stroke-opacity="1.0" stroke-width="3.0" />
            <path d=" M 797.174, 1013.595 798.897, 1011.522 799.654, 1010.613 800.423, 1009.688 807.322, 1004.264 810.299, 1000.692 811.682, 999.276 811.753, 999.203 811.773, 999.182 812.865, 998.064 815.297, 995.575 818.956, 990.072 823.553, 983.480 827.293, 975.099 830.215, 968.367 831.710, 964.074 833.064, 961.202 834.954, 956.285 836.593, 951.487 838.237, 948.890 840.683, 944.933 841.657, 941.703 842.396, 939.053 843.732, 935.272 842.974, 931.864 842.972, 931.859 842.711, 930.685 844.085, 924.471 844.791, 923.133 845.467, 918.021 845.169, 911.901 844.843, 909.771 " fill="none" stroke="rgb(0, 0, 0)" stroke-linecap="butt" stroke-linejoin="round" stroke-opacity="1.0" stroke-width="3.0" />
            <path d=" M 973.751, 617.800 973.364, 615.181 972.175, 612.684 969.006, 605.006 965.162, 595.775 964.804, 594.917 962.326, 588.213 959.387, 580.766 956.008, 572.296 952.636, 567.230 948.158, 558.288 947.662, 557.298 946.702, 555.116 942.346, 546.115 939.745, 540.742 935.648, 531.620 933.989, 527.925 931.118, 519.393 927.709, 509.992 926.084, 505.511 " fill="none" stroke="rgb(0, 0, 0)" stroke-linecap="butt" stroke-linejoin="round" stroke-opacity="1.0" stroke-width="3.0" />
            <path d=" M 761.536, 331.041 751.644, 329.521 743.677, 329.531 735.376, 329.735 729.289, 330.129 724.607, 331.729 723.371, 335.446 724.922, 338.859 728.444, 341.047 734.903, 344.484 740.462, 346.138 747.031, 349.602 753.119, 352.593 756.705, 354.096 764.179, 359.627 772.245, 365.537 778.918, 370.427 786.251, 377.226 786.356, 377.323 791.465, 383.004 792.313, 385.817 792.080, 386.820 " fill="none" stroke="rgb(0, 0, 0)" stroke-linecap="butt" stroke-linejoin="round" stroke-opacity="1.0" stroke-width="3.0" />
            <path d=" M 704.954, 897.688 711.178, 898.385 712.529, 898.536 717.462, 899.089 719.705, 899.367 721.468, 899.443 722.902, 899.283 725.493, 899.778 729.256, 900.912 731.616, 901.257 734.606, 902.043 737.651, 903.219 741.920, 906.526 744.951, 907.456 748.816, 906.608 748.972, 906.344 751.549, 899.839 751.516, 892.296 750.004, 885.036 748.576, 881.840 748.063, 880.722 745.425, 874.988 742.333, 869.918 740.862, 868.143 737.837, 863.519 735.157, 859.974 733.702, 857.609 730.926, 854.191 727.260, 850.297 721.993, 846.125 717.914, 843.387 712.490, 840.830 707.576, 838.137 701.786, 836.035 696.520, 833.436 692.566, 831.802 691.829, 831.497 " fill="none" stroke="rgb(0, 0, 0)" stroke-linecap="butt" stroke-linejoin="round" stroke-opacity="1.0" stroke-width="3.0" />
            <path d=" M 941.582, 839.316 941.415, 841.420 941.385, 841.797 941.351, 842.220 941.306, 842.786 941.278, 843.146 940.820, 848.898 941.525, 850.921 943.394, 851.717 946.680, 849.855 952.674, 844.204 953.995, 843.366 954.207, 843.231 954.486, 843.054 959.743, 839.717 962.948, 837.598 965.905, 834.617 967.977, 832.529 970.935, 828.723 971.081, 828.535 971.385, 828.144 971.446, 828.065 973.852, 824.970 975.013, 823.278 975.174, 823.044 975.426, 822.676 978.100, 818.782 980.237, 814.442 982.065, 810.304 983.460, 804.570 984.340, 800.260 984.514, 795.613 983.925, 785.631 983.884, 784.948 982.885, 774.998 982.629, 772.453 980.491, 762.685 980.193, 761.326 977.605, 753.573 975.018, 744.195 971.469, 734.846 970.885, 733.309 969.901, 727.183 " fill="none" stroke="rgb(0, 0, 0)" stroke-linecap="butt" stroke-linejoin="round" stroke-opacity="1.0" stroke-width="3.0" />
            <path d=" M 788.269, 354.850 789.150, 357.351 791.657, 363.427 793.335, 370.488 793.335, 380.488 793.335, 381.553 792.644, 385.691 792.542, 385.979 791.757, 388.211 791.172, 389.872 789.747, 391.061 789.613, 391.172 785.241, 394.819 783.761, 394.532 777.724, 393.361 767.917, 391.405 764.234, 390.670 754.255, 390.010 749.843, 389.718 739.845, 389.903 738.017, 389.937 728.017, 389.987 724.154, 390.007 714.250, 391.392 713.648, 391.476 707.086, 392.699 697.999, 393.943 692.211, 396.029 690.811, 396.707 687.563, 398.542 687.599, 399.616 689.165, 402.937 698.979, 404.854 700.430, 405.138 " fill="none" stroke="rgb(0, 0, 0)" stroke-linecap="butt" stroke-linejoin="round" stroke-opacity="1.0" stroke-width="3.0" />
            <path d=" M 977.606, 712.352 977.620, 712.042 977.624, 711.972 977.675, 710.867 977.710, 710.125 977.928, 705.469 977.935, 705.319 977.996, 704.011 978.046, 694.011 978.047, 693.873 977.626, 686.272 977.088, 681.146 976.454, 676.986 975.842, 674.670 973.545, 665.980 973.376, 665.340 972.413, 663.092 969.410, 656.081 966.378, 646.552 966.260, 646.179 964.134, 640.060 961.157, 630.513 959.822, 626.234 956.168, 616.926 953.365, 609.785 949.192, 600.698 947.451, 596.907 945.326, 591.742 940.821, 582.978 936.779, 574.584 932.501, 565.546 932.133, 564.769 931.268, 562.198 928.457, 553.842 927.938, 552.300 " fill="none" stroke="rgb(0, 0, 0)" stroke-linecap="butt" stroke-linejoin="round" stroke-opacity="1.0" stroke-width="3.0" />
            <path d=" M 923.405, 496.800 923.026, 493.107 922.961, 492.470 922.158, 484.656 921.117, 474.710 920.075, 464.764 919.742, 461.584 918.426, 451.671 918.063, 448.935 917.084, 442.090 915.900, 432.161 915.658, 430.130 914.639, 420.182 913.733, 411.333 912.848, 404.784 911.208, 399.127 910.328, 391.624 909.799, 389.162 908.669, 384.722 906.829, 377.971 905.012, 370.486 903.256, 362.919 900.598, 358.661 897.641, 356.830 894.272, 356.675 890.279, 351.584 883.564, 345.966 876.799, 340.355 869.487, 333.534 866.568, 330.811 858.718, 324.617 852.344, 319.587 847.456, 314.760 " fill="none" stroke="rgb(0, 0, 0)" stroke-linecap="butt" stroke-linejoin="round" stroke-opacity="1.0" stroke-width="3.0" />
        </g>
    </g>
</svg>
