<?xml version='1.0' encoding='ascii'?>
<svg xmlns="http://www.w3.org/2000/svg" height="1280" version="1.1" width="1280">
    <g id="RenderLayer_LineSet" inkscape:groupmode="lineset" inkscape:label="RenderLayer_LineSet" xmlns:inkscape="http://www.inkscape.org/namespaces/inkscape">
        <g id="strokes" inkscape:groupmode="layer" inkscape:label="strokes" xmlns:inkscape="http://www.inkscape.org/namespaces/inkscape">
            <path d=" M 831.072, 296.812 827.004, 293.033 821.902, 289.747 815.305, 286.482 814.371, 286.020 " fill="none" stroke="rgb(0, 0, 0)" stroke-linecap="butt" stroke-linejoin="round" stroke-opacity="1.0" stroke-width="3.0" />
            <path d=" M 943.793, 1088.633 944.429, 1087.671 944.889, 1086.977 945.117, 1086.631 945.201, 1086.504 945.575, 1085.939 945.590, 1085.917 945.655, 1085.818 945.855, 1085.515 946.043, 1085.231 951.560, 1076.890 951.761, 1076.585 955.908, 1072.534 " fill="none" stroke="rgb(0, 0, 0)" stroke-linecap="butt" stroke-linejoin="round" stroke-opacity="1.0" stroke-width="3.0" />
            <path d=" M 921.985, 1123.287 925.495, 1123.899 929.992, 1122.994 932.143, 1121.754 936.408, 1117.306 937.089, 1116.596 938.830, 1114.797 " fill="none" stroke="rgb(0, 0, 0)" stroke-linecap="butt" stroke-linejoin="round" stroke-opacity="1.0" stroke-width="3.0" />
            <path d=" M 594.359, 699.448 594.247, 698.994 592.459, 691.783 589.472, 689.238 585.343, 686.410 585.437, 686.009 586.151, 682.963 " fill="none" stroke="rgb(0, 0, 0)" stroke-linecap="butt" stroke-linejoin="round" stroke-opacity="1.0" stroke-width="3.0" />
            <path d=" M 559.370, 614.219 559.423, 612.947 559.429, 612.792 559.433, 612.707 559.483, 611.508 556.964, 607.683 554.891, 607.689 550.212, 609.522 548.451, 610.450 547.648, 610.874 547.198, 611.111 546.230, 611.622 545.442, 612.037 544.916, 612.315 " fill="none" stroke="rgb(0, 0, 0)" stroke-linecap="butt" stroke-linejoin="round" stroke-opacity="1.0" stroke-width="3.0" />
            <path d=" M 547.922, 604.042 551.980, 597.648 551.792, 594.010 555.135, 590.563 556.643, 587.939 555.983, 586.425 " fill="none" stroke="rgb(0, 0, 0)" stroke-linecap="butt" stroke-linejoin="round" stroke-opacity="1.0" stroke-width="3.0" />
            <path d=" M 530.827, 933.015 531.199, 933.049 536.018, 933.480 539.962, 936.291 542.548, 936.370 545.648, 937.010 550.594, 937.507 " fill="none" stroke="rgb(0, 0, 0)" stroke-linecap="butt" stroke-linejoin="round" stroke-opacity="1.0" stroke-width="3.0" />
            <path d=" M 1025.012, 866.244 1023.124, 861.681 1021.241, 854.900 1017.532, 846.759 " fill="none" stroke="rgb(0, 0, 0)" stroke-linecap="butt" stroke-linejoin="round" stroke-opacity="1.0" stroke-width="3.0" />
            <path d=" M 1016.432, 865.002 1016.286, 862.945 1016.003, 858.977 1015.729, 855.120 1015.203, 852.781 1012.017, 844.647 " fill="none" stroke="rgb(0, 0, 0)" stroke-linecap="butt" stroke-linejoin="round" stroke-opacity="1.0" stroke-width="3.0" />
            <path d=" M 757.715, 283.507 757.552, 283.605 753.571, 286.966 752.219, 290.402 752.730, 292.595 756.289, 295.441 759.074, 295.881 761.446, 295.892 " fill="none" stroke="rgb(0, 0, 0)" stroke-linecap="butt" stroke-linejoin="round" stroke-opacity="1.0" stroke-width="3.0" />
            <path d=" M 1023.795, 977.106 1026.906, 969.922 1027.376, 968.836 1027.685, 968.122 1027.936, 967.234 1029.718, 960.915 1030.420, 957.161 " fill="none" stroke="rgb(0, 0, 0)" stroke-linecap="butt" stroke-linejoin="round" stroke-opacity="1.0" stroke-width="3.0" />
            <path d=" M 719.118, 1013.854 718.427, 1014.756 717.202, 1016.354 718.763, 1020.145 721.000, 1023.283 722.685, 1025.504 724.517, 1028.844 724.562, 1028.926 724.698, 1029.175 726.173, 1031.864 " fill="none" stroke="rgb(0, 0, 0)" stroke-linecap="butt" stroke-linejoin="round" stroke-opacity="1.0" stroke-width="3.0" />
            <path d=" M 552.740, 691.369 552.494, 691.285 550.010, 690.446 544.647, 689.166 549.183, 690.446 550.285, 690.879 554.120, 694.309 555.146, 695.778 " fill="none" stroke="rgb(0, 0, 0)" stroke-linecap="butt" stroke-linejoin="round" stroke-opacity="1.0" stroke-width="3.0" />
            <path d=" M 756.076, 776.138 756.202, 782.417 756.220, 783.309 757.234, 786.114 758.164, 787.997 758.552, 788.305 758.876, 788.563 763.130, 791.948 765.321, 793.430 " fill="none" stroke="rgb(0, 0, 0)" stroke-linecap="butt" stroke-linejoin="round" stroke-opacity="1.0" stroke-width="3.0" />
            <path d=" M 562.305, 630.304 563.027, 628.835 565.540, 623.720 566.086, 620.846 566.170, 618.749 562.894, 615.315 559.511, 612.852 " fill="none" stroke="rgb(0, 0, 0)" stroke-linecap="butt" stroke-linejoin="round" stroke-opacity="1.0" stroke-width="3.0" />
            <path d=" M 496.260, 573.551 492.025, 571.235 489.797, 571.399 485.814, 572.776 481.842, 575.189 480.161, 576.210 477.048, 578.118 " fill="none" stroke="rgb(0, 0, 0)" stroke-linecap="butt" stroke-linejoin="round" stroke-opacity="1.0" stroke-width="3.0" />
            <path d=" M 591.314, 702.496 590.754, 696.819 590.402, 691.601 589.817, 689.990 586.669, 688.356 585.518, 688.551 585.491, 688.555 584.202, 688.774 581.990, 689.891 581.615, 690.080 " fill="none" stroke="rgb(0, 0, 0)" stroke-linecap="butt" stroke-linejoin="round" stroke-opacity="1.0" stroke-width="3.0" />
            <path d=" M 502.129, 421.042 493.330, 422.024 488.427, 423.185 485.043, 424.735 482.753, 424.670 481.645, 423.390 " fill="none" stroke="rgb(0, 0, 0)" stroke-linecap="butt" stroke-linejoin="round" stroke-opacity="1.0" stroke-width="3.0" />
            <path d=" M 630.994, 957.130 628.839, 951.186 628.234, 947.024 626.705, 944.027 624.732, 940.497 622.447, 937.441 " fill="none" stroke="rgb(0, 0, 0)" stroke-linecap="butt" stroke-linejoin="round" stroke-opacity="1.0" stroke-width="3.0" />
            <path d=" M 814.192, 554.600 818.031, 553.183 818.618, 552.967 824.243, 550.891 834.132, 549.405 835.192, 549.245 " fill="none" stroke="rgb(0, 0, 0)" stroke-linecap="butt" stroke-linejoin="round" stroke-opacity="1.0" stroke-width="3.0" />
            <path d=" M 555.908, 586.703 555.983, 586.425 556.949, 582.832 555.371, 581.141 554.707, 580.878 550.966, 579.761 544.284, 579.273 544.213, 579.268 539.840, 578.936 " fill="none" stroke="rgb(0, 0, 0)" stroke-linecap="butt" stroke-linejoin="round" stroke-opacity="1.0" stroke-width="3.0" />
            <path d=" M 973.248, 709.548 972.842, 705.880 972.773, 705.257 972.700, 704.594 971.599, 694.655 971.486, 693.636 970.876, 687.544 " fill="none" stroke="rgb(0, 0, 0)" stroke-linecap="butt" stroke-linejoin="round" stroke-opacity="1.0" stroke-width="3.0" />
            <path d=" M 544.647, 689.166 543.407, 687.670 545.409, 685.459 547.352, 683.057 547.944, 680.612 547.544, 678.137 546.362, 674.852 541.901, 670.758 " fill="none" stroke="rgb(0, 0, 0)" stroke-linecap="butt" stroke-linejoin="round" stroke-opacity="1.0" stroke-width="3.0" />
            <path d=" M 640.459, 753.325 636.770, 750.984 634.694, 749.543 634.212, 749.208 633.414, 749.203 630.896, 749.188 629.418, 747.992 628.528, 747.272 626.403, 744.414 622.066, 741.906 621.894, 741.806 " fill="none" stroke="rgb(0, 0, 0)" stroke-linecap="butt" stroke-linejoin="round" stroke-opacity="1.0" stroke-width="3.0" />
            <path d=" M 992.822, 704.193 992.203, 701.711 991.051, 697.087 989.681, 690.922 989.057, 686.578 988.498, 682.684 988.490, 682.629 988.396, 681.974 " fill="none" stroke="rgb(0, 0, 0)" stroke-linecap="butt" stroke-linejoin="round" stroke-opacity="1.0" stroke-width="3.0" />
            <path d=" M 478.685, 572.361 478.634, 570.275 480.778, 568.268 480.787, 568.259 483.283, 565.903 483.413, 565.657 486.103, 559.894 487.524, 555.486 488.976, 552.818 " fill="none" stroke="rgb(0, 0, 0)" stroke-linecap="butt" stroke-linejoin="round" stroke-opacity="1.0" stroke-width="3.0" />
            <path d=" M 579.096, 934.262 579.785, 936.220 579.936, 936.651 580.007, 936.852 580.106, 937.133 581.199, 940.239 582.669, 944.419 583.107, 945.472 587.271, 951.741 589.403, 954.660 " fill="none" stroke="rgb(0, 0, 0)" stroke-linecap="butt" stroke-linejoin="round" stroke-opacity="1.0" stroke-width="3.0" />
            <path d=" M 497.709, 448.296 492.355, 456.742 491.014, 458.857 491.908, 457.621 495.167, 453.455 497.487, 450.490 " fill="none" stroke="rgb(0, 0, 0)" stroke-linecap="butt" stroke-linejoin="round" stroke-opacity="1.0" stroke-width="3.0" />
            <path d=" M 749.004, 877.345 747.257, 878.119 747.227, 878.132 740.630, 883.282 732.581, 889.216 730.987, 890.392 730.359, 890.893 " fill="none" stroke="rgb(0, 0, 0)" stroke-linecap="butt" stroke-linejoin="round" stroke-opacity="1.0" stroke-width="3.0" />
            <path d=" M 753.244, 759.411 753.767, 762.937 754.085, 765.086 754.904, 770.609 754.771, 774.372 756.037, 781.825 756.202, 782.417 " fill="none" stroke="rgb(0, 0, 0)" stroke-linecap="butt" stroke-linejoin="round" stroke-opacity="1.0" stroke-width="3.0" />
            <path d=" M 727.804, 459.135 727.800, 459.146 727.742, 459.308 727.645, 459.574 727.496, 459.986 727.239, 460.697 726.807, 461.895 723.520, 467.634 721.286, 470.440 718.517, 476.184 716.853, 479.633 " fill="none" stroke="rgb(0, 0, 0)" stroke-linecap="butt" stroke-linejoin="round" stroke-opacity="1.0" stroke-width="3.0" />
            <path d=" M 790.764, 582.178 793.417, 574.436 798.470, 568.003 799.932, 566.306 803.045, 562.692 " fill="none" stroke="rgb(0, 0, 0)" stroke-linecap="butt" stroke-linejoin="round" stroke-opacity="1.0" stroke-width="3.0" />
            <path d=" M 628.277, 927.567 632.188, 926.453 632.802, 926.278 636.172, 925.759 640.005, 925.622 645.380, 925.610 651.655, 925.298 " fill="none" stroke="rgb(0, 0, 0)" stroke-linecap="butt" stroke-linejoin="round" stroke-opacity="1.0" stroke-width="3.0" />
            <path d=" M 793.300, 596.658 792.769, 593.106 791.281, 587.478 790.764, 582.343 790.764, 582.178 790.764, 581.970 790.764, 581.922 790.759, 573.279 " fill="none" stroke="rgb(0, 0, 0)" stroke-linecap="butt" stroke-linejoin="round" stroke-opacity="1.0" stroke-width="3.0" />
            <path d=" M 601.852, 716.316 604.106, 714.545 604.386, 714.324 604.558, 713.820 605.556, 710.907 604.855, 707.268 601.943, 704.005 596.796, 701.704 595.255, 700.303 594.505, 699.621 " fill="none" stroke="rgb(0, 0, 0)" stroke-linecap="butt" stroke-linejoin="round" stroke-opacity="1.0" stroke-width="3.0" />
            <path d=" M 766.061, 687.046 767.869, 690.197 771.693, 696.607 772.766, 700.996 776.250, 707.763 776.422, 708.220 " fill="none" stroke="rgb(0, 0, 0)" stroke-linecap="butt" stroke-linejoin="round" stroke-opacity="1.0" stroke-width="3.0" />
            <path d=" M 613.744, 716.302 610.913, 714.882 605.924, 715.969 603.797, 719.053 601.217, 722.564 599.421, 724.271 598.976, 724.582 598.871, 724.655 598.764, 724.729 598.675, 724.791 598.287, 725.062 597.709, 725.673 597.019, 726.403 595.202, 726.224 " fill="none" stroke="rgb(0, 0, 0)" stroke-linecap="butt" stroke-linejoin="round" stroke-opacity="1.0" stroke-width="3.0" />
            <path d=" M 544.284, 579.273 539.942, 578.523 536.373, 576.919 533.349, 577.045 529.585, 579.154 527.289, 580.439 526.712, 580.512 523.970, 580.855 522.791, 581.003 522.769, 581.005 521.708, 581.138 " fill="none" stroke="rgb(0, 0, 0)" stroke-linecap="butt" stroke-linejoin="round" stroke-opacity="1.0" stroke-width="3.0" />
            <path d=" M 1017.651, 866.061 1018.211, 865.128 1018.198, 862.828 1018.195, 862.326 1018.170, 857.924 1016.663, 849.044 1014.654, 842.731 " fill="none" stroke="rgb(0, 0, 0)" stroke-linecap="butt" stroke-linejoin="round" stroke-opacity="1.0" stroke-width="3.0" />
            <path d=" M 852.795, 708.819 851.501, 707.417 849.261, 704.991 847.484, 701.935 844.528, 696.552 843.716, 695.074 841.574, 690.612 840.004, 688.631 " fill="none" stroke="rgb(0, 0, 0)" stroke-linecap="butt" stroke-linejoin="round" stroke-opacity="1.0" stroke-width="3.0" />
            <path d=" M 664.156, 929.406 666.292, 930.422 670.189, 932.244 673.543, 932.396 680.090, 931.686 682.932, 930.220 684.994, 928.523 686.394, 927.371 " fill="none" stroke="rgb(0, 0, 0)" stroke-linecap="butt" stroke-linejoin="round" stroke-opacity="1.0" stroke-width="3.0" />
            <path d=" M 504.292, 514.758 503.596, 512.844 503.239, 511.860 502.466, 508.870 503.904, 507.068 509.687, 502.489 511.791, 500.250 512.617, 499.122 514.502, 495.572 " fill="none" stroke="rgb(0, 0, 0)" stroke-linecap="butt" stroke-linejoin="round" stroke-opacity="1.0" stroke-width="3.0" />
            <path d=" M 864.224, 761.019 855.354, 765.638 854.670, 765.994 853.814, 766.478 849.738, 768.780 849.640, 768.835 848.908, 769.249 847.558, 770.574 847.244, 770.883 844.604, 774.281 844.262, 774.720 " fill="none" stroke="rgb(0, 0, 0)" stroke-linecap="butt" stroke-linejoin="round" stroke-opacity="1.0" stroke-width="3.0" />
            <path d=" M 716.930, 417.009 720.139, 419.428 722.061, 420.878 729.835, 427.169 732.161, 429.051 732.764, 429.459 736.670, 430.903 737.195, 431.189 " fill="none" stroke="rgb(0, 0, 0)" stroke-linecap="butt" stroke-linejoin="round" stroke-opacity="1.0" stroke-width="3.0" />
            <path d=" M 646.713, 759.294 646.074, 759.257 638.071, 760.481 629.862, 762.170 627.538, 762.809 626.863, 762.994 625.715, 763.310 622.513, 763.786 622.235, 763.827 " fill="none" stroke="rgb(0, 0, 0)" stroke-linecap="butt" stroke-linejoin="round" stroke-opacity="1.0" stroke-width="3.0" />
            <path d=" M 570.288, 652.039 570.120, 651.587 570.360, 648.708 569.328, 643.427 566.736, 638.018 565.024, 636.132 562.738, 631.894 563.027, 628.835 " fill="none" stroke="rgb(0, 0, 0)" stroke-linecap="butt" stroke-linejoin="round" stroke-opacity="1.0" stroke-width="3.0" />
            <path d=" M 721.817, 369.892 721.702, 370.159 720.512, 372.937 723.542, 377.141 724.880, 377.655 733.583, 382.581 733.681, 382.637 739.023, 382.930 " fill="none" stroke="rgb(0, 0, 0)" stroke-linecap="butt" stroke-linejoin="round" stroke-opacity="1.0" stroke-width="3.0" />
            <path d=" M 495.348, 493.641 494.044, 490.480 493.498, 489.158 493.201, 488.437 492.984, 487.796 490.183, 479.499 489.381, 474.551 489.065, 472.350 488.245, 469.315 " fill="none" stroke="rgb(0, 0, 0)" stroke-linecap="butt" stroke-linejoin="round" stroke-opacity="1.0" stroke-width="3.0" />
            <path d=" M 678.779, 897.930 677.633, 897.660 670.333, 895.940 668.551, 896.077 663.618, 895.535 658.434, 897.038 656.192, 900.091 655.743, 900.702 655.645, 900.836 " fill="none" stroke="rgb(0, 0, 0)" stroke-linecap="butt" stroke-linejoin="round" stroke-opacity="1.0" stroke-width="3.0" />
            <path d=" M 728.999, 602.282 728.724, 604.354 728.497, 606.066 728.341, 607.244 728.144, 608.723 727.839, 609.933 726.958, 613.430 726.912, 615.854 726.898, 616.560 726.852, 619.020 727.249, 620.406 727.650, 621.806 728.072, 623.277 728.139, 623.510 729.308, 627.591 " fill="none" stroke="rgb(0, 0, 0)" stroke-linecap="butt" stroke-linejoin="round" stroke-opacity="1.0" stroke-width="3.0" />
            <path d=" M 1010.598, 831.005 1010.541, 830.281 1010.471, 829.401 1010.406, 828.592 1010.293, 827.159 1010.102, 824.760 1009.050, 820.298 1006.509, 814.285 1006.337, 813.039 1005.344, 805.858 " fill="none" stroke="rgb(0, 0, 0)" stroke-linecap="butt" stroke-linejoin="round" stroke-opacity="1.0" stroke-width="3.0" />
            <path d=" M 1017.942, 887.954 1018.926, 885.219 1019.159, 884.571 1019.311, 884.147 1018.602, 879.286 1019.909, 874.890 1018.849, 869.991 1017.831, 867.907 1017.712, 866.199 1017.651, 866.061 1017.437, 865.572 1016.488, 863.407 1016.286, 862.945 " fill="none" stroke="rgb(0, 0, 0)" stroke-linecap="butt" stroke-linejoin="round" stroke-opacity="1.0" stroke-width="3.0" />
            <path d=" M 942.727, 551.534 938.688, 542.387 937.709, 540.169 933.363, 531.163 931.685, 527.686 " fill="none" stroke="rgb(0, 0, 0)" stroke-linecap="butt" stroke-linejoin="round" stroke-opacity="1.0" stroke-width="3.0" />
            <path d=" M 696.274, 902.260 697.072, 898.115 695.595, 892.582 695.151, 890.917 692.805, 886.606 691.175, 884.319 689.426, 882.255 686.813, 879.210 686.463, 878.637 " fill="none" stroke="rgb(0, 0, 0)" stroke-linecap="butt" stroke-linejoin="round" stroke-opacity="1.0" stroke-width="3.0" />
            <path d=" M 661.142, 928.581 661.506, 928.864 663.023, 930.043 667.067, 933.943 669.609, 936.394 676.109, 939.157 681.910, 940.268 684.108, 940.184 684.109, 939.902 " fill="none" stroke="rgb(0, 0, 0)" stroke-linecap="butt" stroke-linejoin="round" stroke-opacity="1.0" stroke-width="3.0" />
            <path d=" M 764.994, 795.715 762.444, 801.447 759.514, 807.256 756.429, 814.786 755.164, 819.962 754.693, 820.663 " fill="none" stroke="rgb(0, 0, 0)" stroke-linecap="butt" stroke-linejoin="round" stroke-opacity="1.0" stroke-width="3.0" />
            <path d=" M 743.209, 363.064 740.144, 363.409 733.648, 361.804 729.753, 362.608 723.884, 364.537 721.807, 366.410 720.759, 369.473 721.702, 370.159 " fill="none" stroke="rgb(0, 0, 0)" stroke-linecap="butt" stroke-linejoin="round" stroke-opacity="1.0" stroke-width="3.0" />
            <path d=" M 689.312, 922.793 688.207, 924.824 686.442, 927.303 686.394, 927.371 686.439, 927.300 688.488, 924.085 688.554, 923.982 689.312, 922.793 690.223, 921.363 692.266, 914.622 692.391, 914.104 692.398, 914.073 692.402, 914.056 692.570, 913.356 693.157, 909.525 693.170, 909.436 693.172, 909.422 693.588, 906.709 " fill="none" stroke="rgb(0, 0, 0)" stroke-linecap="butt" stroke-linejoin="round" stroke-opacity="1.0" stroke-width="3.0" />
            <path d=" M 743.720, 378.282 744.520, 384.269 744.603, 384.896 744.609, 384.940 744.708, 385.683 744.005, 389.565 741.009, 394.678 740.626, 397.796 740.346, 400.067 740.161, 401.572 740.059, 402.757 739.852, 405.162 " fill="none" stroke="rgb(0, 0, 0)" stroke-linecap="butt" stroke-linejoin="round" stroke-opacity="1.0" stroke-width="3.0" />
            <path d=" M 698.693, 515.182 701.921, 518.126 700.550, 519.794 696.057, 520.521 693.998, 523.612 691.994, 525.748 691.906, 528.537 693.616, 532.807 694.508, 535.436 " fill="none" stroke="rgb(0, 0, 0)" stroke-linecap="butt" stroke-linejoin="round" stroke-opacity="1.0" stroke-width="3.0" />
            <path d=" M 776.034, 706.085 776.422, 708.220 777.142, 712.180 777.285, 718.071 777.398, 718.781 777.934, 722.150 778.197, 723.807 778.203, 723.840 778.245, 724.105 778.309, 724.509 778.316, 724.554 777.964, 728.383 777.897, 729.102 777.827, 729.863 778.276, 731.023 778.327, 731.156 778.425, 731.408 778.637, 731.958 779.248, 733.538 " fill="none" stroke="rgb(0, 0, 0)" stroke-linecap="butt" stroke-linejoin="round" stroke-opacity="1.0" stroke-width="3.0" />
            <path d=" M 830.249, 1066.113 831.634, 1066.927 836.243, 1069.465 840.294, 1071.188 842.615, 1072.192 843.014, 1072.384 843.253, 1072.499 843.572, 1072.652 845.646, 1073.230 846.171, 1073.377 846.313, 1073.416 848.922, 1074.143 851.981, 1075.506 853.149, 1076.000 856.023, 1077.214 " fill="none" stroke="rgb(0, 0, 0)" stroke-linecap="butt" stroke-linejoin="round" stroke-opacity="1.0" stroke-width="3.0" />
            <path d=" M 736.814, 989.845 736.315, 987.647 738.140, 984.473 741.024, 982.117 744.390, 983.775 745.526, 985.388 746.702, 986.904 747.604, 984.981 747.144, 982.478 747.757, 981.145 749.802, 976.692 " fill="none" stroke="rgb(0, 0, 0)" stroke-linecap="butt" stroke-linejoin="round" stroke-opacity="1.0" stroke-width="3.0" />
            <path d=" M 705.660, 565.732 701.745, 566.331 700.190, 567.175 695.509, 569.819 693.872, 574.581 694.587, 578.760 697.715, 582.690 699.448, 585.091 " fill="none" stroke="rgb(0, 0, 0)" stroke-linecap="butt" stroke-linejoin="round" stroke-opacity="1.0" stroke-width="3.0" />
            <path d=" M 1001.896, 734.644 1000.678, 727.453 999.893, 722.820 996.354, 714.865 993.240, 707.831 " fill="none" stroke="rgb(0, 0, 0)" stroke-linecap="butt" stroke-linejoin="round" stroke-opacity="1.0" stroke-width="3.0" />
            <path d=" M 707.840, 847.297 710.085, 846.858 710.563, 846.764 713.505, 844.630 714.983, 843.086 716.882, 841.615 718.689, 839.902 721.188, 837.089 725.913, 834.056 727.408, 832.864 729.651, 831.865 730.592, 830.911 " fill="none" stroke="rgb(0, 0, 0)" stroke-linecap="butt" stroke-linejoin="round" stroke-opacity="1.0" stroke-width="3.0" />
            <path d=" M 991.600, 703.943 991.549, 703.800 990.039, 699.583 986.184, 690.931 985.746, 689.949 985.531, 689.467 985.104, 688.509 982.054, 678.985 981.446, 677.086 " fill="none" stroke="rgb(0, 0, 0)" stroke-linecap="butt" stroke-linejoin="round" stroke-opacity="1.0" stroke-width="3.0" />
            <path d=" M 744.382, 334.911 744.240, 335.436 743.242, 339.131 743.143, 342.824 743.297, 344.028 743.951, 349.139 744.395, 353.298 743.965, 356.235 743.879, 356.823 744.187, 359.529 743.209, 363.064 743.114, 363.405 " fill="none" stroke="rgb(0, 0, 0)" stroke-linecap="butt" stroke-linejoin="round" stroke-opacity="1.0" stroke-width="3.0" />
            <path d=" M 717.756, 907.907 718.483, 909.751 718.982, 911.015 722.137, 915.851 724.199, 918.671 726.712, 920.769 726.729, 920.783 728.176, 921.991 732.351, 925.144 733.266, 925.536 738.060, 927.591 " fill="none" stroke="rgb(0, 0, 0)" stroke-linecap="butt" stroke-linejoin="round" stroke-opacity="1.0" stroke-width="3.0" />
            <path d=" M 482.340, 517.287 482.463, 516.975 484.913, 510.734 486.542, 506.139 487.593, 505.512 488.257, 503.353 489.065, 501.720 487.576, 500.880 486.017, 500.423 483.903, 499.998 482.822, 500.181 478.291, 501.207 477.515, 501.383 " fill="none" stroke="rgb(0, 0, 0)" stroke-linecap="butt" stroke-linejoin="round" stroke-opacity="1.0" stroke-width="3.0" />
            <path d=" M 743.883, 861.339 743.878, 861.324 742.435, 856.597 742.435, 856.543 742.409, 854.456 742.614, 851.849 743.451, 847.964 745.208, 843.232 747.530, 839.545 750.107, 835.456 751.201, 834.541 " fill="none" stroke="rgb(0, 0, 0)" stroke-linecap="butt" stroke-linejoin="round" stroke-opacity="1.0" stroke-width="3.0" />
            <path d=" M 707.498, 535.805 706.857, 538.210 705.066, 544.931 704.728, 550.231 703.634, 555.804 704.420, 560.112 704.757, 561.963 705.767, 564.546 " fill="none" stroke="rgb(0, 0, 0)" stroke-linecap="butt" stroke-linejoin="round" stroke-opacity="1.0" stroke-width="3.0" />
            <path d=" M 513.286, 496.636 514.502, 495.572 514.982, 495.152 515.424, 493.837 513.838, 490.236 510.683, 488.443 504.671, 489.296 500.010, 491.923 496.748, 492.735 494.044, 490.480 " fill="none" stroke="rgb(0, 0, 0)" stroke-linecap="butt" stroke-linejoin="round" stroke-opacity="1.0" stroke-width="3.0" />
            <path d=" M 787.051, 258.948 786.956, 258.762 786.816, 258.486 785.874, 257.014 784.571, 254.979 783.247, 252.877 781.050, 249.388 775.495, 246.263 770.554, 245.458 764.303, 244.752 763.405, 244.650 " fill="none" stroke="rgb(0, 0, 0)" stroke-linecap="butt" stroke-linejoin="round" stroke-opacity="1.0" stroke-width="3.0" />
            <path d=" M 523.839, 637.368 523.620, 635.188 524.528, 632.324 529.138, 626.836 530.380, 620.412 529.394, 617.718 525.276, 616.223 522.117, 616.033 521.020, 615.679 " fill="none" stroke="rgb(0, 0, 0)" stroke-linecap="butt" stroke-linejoin="round" stroke-opacity="1.0" stroke-width="3.0" />
            <path d=" M 1009.986, 756.493 1006.759, 747.356 1003.918, 738.192 1001.030, 728.618 1000.678, 727.453 " fill="none" stroke="rgb(0, 0, 0)" stroke-linecap="butt" stroke-linejoin="round" stroke-opacity="1.0" stroke-width="3.0" />
            <path d=" M 978.419, 660.056 977.631, 656.597 975.410, 646.847 973.351, 637.804 971.930, 630.012 " fill="none" stroke="rgb(0, 0, 0)" stroke-linecap="butt" stroke-linejoin="round" stroke-opacity="1.0" stroke-width="3.0" />
            <path d=" M 783.258, 480.130 783.212, 480.170 783.147, 480.226 783.066, 480.296 783.030, 480.326 782.933, 480.411 782.513, 480.772 778.795, 483.976 773.965, 485.694 770.641, 486.877 769.796, 487.177 769.732, 487.200 769.644, 487.231 768.945, 487.480 768.915, 487.491 768.732, 487.556 768.107, 487.643 767.611, 487.712 764.460, 488.153 758.574, 488.735 755.064, 489.130 754.703, 489.171 754.610, 489.181 " fill="none" stroke="rgb(0, 0, 0)" stroke-linecap="butt" stroke-linejoin="round" stroke-opacity="1.0" stroke-width="3.0" />
            <path d=" M 585.437, 686.009 587.334, 683.146 587.792, 681.191 587.212, 679.657 585.530, 676.967 580.610, 670.454 579.948, 668.552 579.968, 661.522 580.320, 659.994 579.535, 658.235 " fill="none" stroke="rgb(0, 0, 0)" stroke-linecap="butt" stroke-linejoin="round" stroke-opacity="1.0" stroke-width="3.0" />
            <path d=" M 758.093, 573.891 757.738, 575.851 757.705, 576.031 757.674, 576.200 757.673, 576.208 757.170, 578.983 757.064, 579.571 755.358, 584.333 755.239, 584.814 753.917, 590.175 753.854, 590.433 752.660, 595.276 752.591, 595.553 752.477, 596.015 752.465, 596.066 752.448, 596.300 752.445, 596.334 752.443, 596.373 752.307, 598.229 752.225, 599.354 752.127, 600.708 752.078, 601.379 751.828, 604.807 " fill="none" stroke="rgb(0, 0, 0)" stroke-linecap="butt" stroke-linejoin="round" stroke-opacity="1.0" stroke-width="3.0" />
            <path d=" M 773.514, 963.668 774.023, 964.632 774.441, 965.423 774.931, 966.350 775.011, 966.502 775.564, 967.547 775.761, 967.821 778.267, 971.299 779.282, 972.708 780.979, 975.064 781.315, 975.530 781.694, 976.057 781.723, 976.210 781.769, 976.454 782.064, 978.020 782.177, 978.617 782.303, 979.285 782.378, 979.682 782.498, 980.319 782.683, 980.880 782.936, 981.647 783.029, 981.928 783.188, 982.410 783.197, 982.438 783.311, 982.785 784.403, 986.095 784.327, 986.760 784.219, 987.707 783.629, 992.872 " fill="none" stroke="rgb(0, 0, 0)" stroke-linecap="butt" stroke-linejoin="round" stroke-opacity="1.0" stroke-width="3.0" />
            <path d=" M 793.895, 1004.485 792.157, 1011.050 792.147, 1011.199 792.124, 1011.530 791.558, 1019.783 791.564, 1019.904 791.661, 1021.866 791.799, 1024.654 793.017, 1032.082 793.385, 1034.328 793.524, 1035.176 793.733, 1036.454 " fill="none" stroke="rgb(0, 0, 0)" stroke-linecap="butt" stroke-linejoin="round" stroke-opacity="1.0" stroke-width="3.0" />
            <path d=" M 889.208, 1110.525 891.512, 1113.028 895.335, 1115.746 897.179, 1116.218 903.249, 1118.150 907.240, 1119.503 909.404, 1119.825 912.486, 1120.285 914.037, 1120.722 915.652, 1121.178 916.973, 1121.416 918.857, 1121.755 " fill="none" stroke="rgb(0, 0, 0)" stroke-linecap="butt" stroke-linejoin="round" stroke-opacity="1.0" stroke-width="3.0" />
            <path d=" M 1011.449, 1004.129 1011.963, 1003.161 1012.174, 1002.764 1016.241, 996.048 1017.159, 994.533 1017.533, 993.915 1018.121, 993.391 1019.597, 992.076 1021.396, 990.473 1023.087, 985.977 1022.970, 983.238 1022.932, 982.360 1022.927, 982.253 1022.701, 976.976 1021.093, 976.055 " fill="none" stroke="rgb(0, 0, 0)" stroke-linecap="butt" stroke-linejoin="round" stroke-opacity="1.0" stroke-width="3.0" />
            <path d=" M 869.698, 356.250 867.553, 346.708 864.996, 340.825 864.470, 339.614 863.512, 337.411 861.895, 335.126 860.475, 328.829 858.247, 325.467 " fill="none" stroke="rgb(0, 0, 0)" stroke-linecap="butt" stroke-linejoin="round" stroke-opacity="1.0" stroke-width="3.0" />
            <path d=" M 997.132, 781.123 996.877, 780.173 995.436, 774.807 993.942, 769.655 990.803, 760.160 990.545, 759.380 989.122, 755.036 987.412, 750.617 986.733, 749.623 " fill="none" stroke="rgb(0, 0, 0)" stroke-linecap="butt" stroke-linejoin="round" stroke-opacity="1.0" stroke-width="3.0" />
            <path d=" M 1005.352, 1022.092 1005.507, 1021.849 1008.273, 1017.498 1011.220, 1014.045 1012.690, 1008.287 1015.228, 1003.659 1016.948, 998.144 1019.597, 992.076 " fill="none" stroke="rgb(0, 0, 0)" stroke-linecap="butt" stroke-linejoin="round" stroke-opacity="1.0" stroke-width="3.0" />
            <path d=" M 815.305, 286.482 807.047, 280.843 805.368, 279.697 801.679, 277.287 800.332, 276.407 796.581, 271.470 792.311, 266.750 790.179, 264.393 " fill="none" stroke="rgb(0, 0, 0)" stroke-linecap="butt" stroke-linejoin="round" stroke-opacity="1.0" stroke-width="3.0" />
            <path d=" M 985.746, 689.949 985.566, 689.352 983.057, 681.033 981.122, 671.222 980.654, 668.848 978.258, 659.139 977.631, 656.597 " fill="none" stroke="rgb(0, 0, 0)" stroke-linecap="butt" stroke-linejoin="round" stroke-opacity="1.0" stroke-width="3.0" />
            <path d=" M 853.276, 316.079 853.135, 315.663 851.783, 311.663 848.179, 305.795 847.236, 305.182 843.646, 302.709 839.435, 303.183 834.525, 298.987 831.072, 296.812 828.889, 295.438 " fill="none" stroke="rgb(0, 0, 0)" stroke-linecap="butt" stroke-linejoin="round" stroke-opacity="1.0" stroke-width="3.0" />
            <path d=" M 988.125, 1051.459 991.640, 1047.047 994.122, 1043.449 996.520, 1038.570 1000.748, 1031.444 1003.030, 1026.448 1005.507, 1021.849 " fill="none" stroke="rgb(0, 0, 0)" stroke-linecap="butt" stroke-linejoin="round" stroke-opacity="1.0" stroke-width="3.0" />
            <path d=" M 738.319, 416.712 738.081, 421.765 738.824, 426.932 737.195, 431.189 737.009, 431.676 734.557, 435.601 733.018, 437.391 729.885, 441.036 728.612, 448.383 " fill="none" stroke="rgb(0, 0, 0)" stroke-linecap="butt" stroke-linejoin="round" stroke-opacity="1.0" stroke-width="3.0" />
            <path d=" M 487.910, 554.286 488.976, 552.818 491.413, 549.463 495.503, 546.351 499.041, 542.529 499.359, 542.160 500.051, 540.884 500.000, 539.608 498.661, 538.594 491.917, 538.035 487.756, 538.243 485.216, 538.370 " fill="none" stroke="rgb(0, 0, 0)" stroke-linecap="butt" stroke-linejoin="round" stroke-opacity="1.0" stroke-width="3.0" />
            <path d=" M 541.911, 670.811 541.901, 670.758 541.402, 668.254 541.251, 667.493 541.494, 666.740 543.875, 659.367 543.035, 655.012 540.851, 653.085 533.947, 652.842 526.252, 652.195 526.212, 652.192 525.673, 652.147 525.246, 652.111 " fill="none" stroke="rgb(0, 0, 0)" stroke-linecap="butt" stroke-linejoin="round" stroke-opacity="1.0" stroke-width="3.0" />
            <path d=" M 468.234, 483.250 466.914, 479.921 466.323, 478.983 465.895, 470.099 466.465, 465.451 465.739, 458.926 465.354, 451.427 464.604, 448.848 " fill="none" stroke="rgb(0, 0, 0)" stroke-linecap="butt" stroke-linejoin="round" stroke-opacity="1.0" stroke-width="3.0" />
            <path d=" M 962.432, 1049.571 970.311, 1043.413 970.779, 1043.047 972.592, 1041.622 973.491, 1040.915 974.676, 1039.984 979.290, 1037.950 979.618, 1037.541 981.041, 1035.764 983.444, 1031.711 986.431, 1028.308 986.441, 1028.297 988.526, 1025.922 " fill="none" stroke="rgb(0, 0, 0)" stroke-linecap="butt" stroke-linejoin="round" stroke-opacity="1.0" stroke-width="3.0" />
            <path d=" M 1021.431, 923.213 1022.131, 920.017 1021.639, 915.537 1022.531, 910.605 1021.898, 907.980 1020.945, 903.651 1020.790, 902.947 1020.738, 902.330 1020.453, 898.919 1019.897, 893.060 1019.891, 892.996 1019.888, 892.990 1017.942, 887.954 1017.679, 887.273 " fill="none" stroke="rgb(0, 0, 0)" stroke-linecap="butt" stroke-linejoin="round" stroke-opacity="1.0" stroke-width="3.0" />
            <path d=" M 724.517, 1028.844 722.752, 1030.834 723.685, 1034.075 725.534, 1037.963 728.279, 1041.386 736.132, 1043.931 740.212, 1044.701 743.078, 1044.799 745.355, 1044.653 747.649, 1044.506 749.286, 1044.401 750.077, 1044.350 " fill="none" stroke="rgb(0, 0, 0)" stroke-linecap="butt" stroke-linejoin="round" stroke-opacity="1.0" stroke-width="3.0" />
            <path d=" M 621.005, 740.667 623.694, 738.061 624.950, 736.842 626.936, 734.331 627.986, 731.038 627.013, 727.696 624.121, 725.808 622.715, 723.471 622.694, 720.879 622.313, 718.435 620.527, 716.972 616.480, 716.324 613.744, 716.302 612.465, 716.293 " fill="none" stroke="rgb(0, 0, 0)" stroke-linecap="butt" stroke-linejoin="round" stroke-opacity="1.0" stroke-width="3.0" />
            <path d=" M 471.632, 498.846 472.710, 497.580 473.930, 496.147 477.934, 491.295 478.762, 489.347 480.719, 485.746 479.721, 482.911 479.967, 480.523 477.713, 479.232 477.400, 479.259 474.100, 479.694 471.426, 480.488 468.234, 483.250 467.575, 483.820 466.890, 483.945 466.614, 483.996 465.797, 484.145 " fill="none" stroke="rgb(0, 0, 0)" stroke-linecap="butt" stroke-linejoin="round" stroke-opacity="1.0" stroke-width="3.0" />
            <path d=" M 481.430, 424.978 481.645, 423.390 482.154, 419.620 483.274, 417.350 484.866, 413.487 485.115, 404.615 484.503, 400.441 482.187, 398.733 478.263, 396.884 475.166, 396.647 473.719, 398.588 " fill="none" stroke="rgb(0, 0, 0)" stroke-linecap="butt" stroke-linejoin="round" stroke-opacity="1.0" stroke-width="3.0" />
            <path d=" M 518.595, 611.811 518.833, 611.539 520.447, 609.691 522.293, 607.125 522.491, 605.961 521.855, 604.089 519.334, 603.176 514.266, 605.078 507.959, 607.550 505.625, 607.593 503.187, 600.141 502.738, 597.148 502.610, 596.292 " fill="none" stroke="rgb(0, 0, 0)" stroke-linecap="butt" stroke-linejoin="round" stroke-opacity="1.0" stroke-width="3.0" />
            <path d=" M 734.441, 925.229 738.060, 927.591 741.180, 929.627 749.392, 935.333 749.976, 935.740 755.967, 939.273 756.150, 939.403 758.864, 941.332 759.111, 941.508 759.447, 941.746 760.413, 942.433 766.250, 946.325 " fill="none" stroke="rgb(0, 0, 0)" stroke-linecap="butt" stroke-linejoin="round" stroke-opacity="1.0" stroke-width="3.0" />
            <path d=" M 463.131, 451.929 463.396, 450.772 464.604, 448.848 466.224, 446.266 467.384, 442.784 468.023, 440.867 469.660, 434.457 472.782, 426.492 476.561, 420.316 478.502, 417.049 " fill="none" stroke="rgb(0, 0, 0)" stroke-linecap="butt" stroke-linejoin="round" stroke-opacity="1.0" stroke-width="3.0" />
            <path d=" M 1018.679, 788.855 1018.536, 788.156 1017.971, 785.390 1017.840, 784.745 1017.728, 784.196 1016.836, 779.830 1015.808, 775.339 1015.445, 773.751 1013.164, 767.607 1012.588, 766.052 1012.461, 765.711 1012.218, 765.056 1010.526, 758.023 1010.364, 757.350 1009.986, 756.493 1007.841, 751.635 " fill="none" stroke="rgb(0, 0, 0)" stroke-linecap="butt" stroke-linejoin="round" stroke-opacity="1.0" stroke-width="3.0" />
            <path d=" M 495.167, 453.455 501.712, 447.299 506.075, 443.798 510.541, 441.544 514.432, 438.339 521.447, 434.599 527.602, 432.756 " fill="none" stroke="rgb(0, 0, 0)" stroke-linecap="butt" stroke-linejoin="round" stroke-opacity="1.0" stroke-width="3.0" />
            <path d=" M 763.775, 1072.978 767.445, 1073.156 772.556, 1073.403 776.512, 1072.717 780.625, 1072.023 783.641, 1070.651 788.076, 1068.183 793.142, 1065.264 796.259, 1064.964 798.198, 1065.132 801.066, 1065.381 " fill="none" stroke="rgb(0, 0, 0)" stroke-linecap="butt" stroke-linejoin="round" stroke-opacity="1.0" stroke-width="3.0" />
            <path d=" M 627.538, 762.809 625.027, 762.859 621.709, 762.434 617.432, 762.220 612.932, 762.133 611.952, 762.237 608.099, 761.583 606.329, 760.763 603.900, 760.235 602.704, 760.275 600.604, 760.442 594.681, 760.437 591.433, 759.905 590.237, 760.421 589.715, 760.646 588.615, 761.120 " fill="none" stroke="rgb(0, 0, 0)" stroke-linecap="butt" stroke-linejoin="round" stroke-opacity="1.0" stroke-width="3.0" />
            <path d=" M 873.102, 353.095 872.070, 349.700 870.169, 345.208 869.034, 340.857 868.157, 337.584 866.971, 335.057 865.218, 332.147 863.163, 327.002 861.219, 322.156 858.778, 319.883 855.549, 319.154 855.336, 319.218 " fill="none" stroke="rgb(0, 0, 0)" stroke-linecap="butt" stroke-linejoin="round" stroke-opacity="1.0" stroke-width="3.0" />
            <path d=" M 522.283, 578.784 522.314, 578.754 526.584, 574.634 529.622, 572.545 531.084, 567.941 535.070, 562.150 538.088, 558.527 541.715, 555.527 545.539, 553.462 547.836, 551.345 547.156, 550.290 546.739, 549.840 546.296, 549.361 " fill="none" stroke="rgb(0, 0, 0)" stroke-linecap="butt" stroke-linejoin="round" stroke-opacity="1.0" stroke-width="3.0" />
            <path d=" M 567.909, 718.989 569.151, 716.848 569.092, 714.463 565.491, 709.901 562.247, 708.082 561.766, 704.871 563.488, 697.055 563.591, 696.360 563.743, 695.332 563.735, 695.306 562.860, 692.170 560.019, 691.239 558.811, 690.935 552.494, 691.285 " fill="none" stroke="rgb(0, 0, 0)" stroke-linecap="butt" stroke-linejoin="round" stroke-opacity="1.0" stroke-width="3.0" />
            <path d=" M 747.624, 1044.836 747.484, 1046.699 748.582, 1055.307 749.124, 1058.034 750.818, 1060.871 752.805, 1065.795 755.236, 1072.107 758.840, 1073.630 761.708, 1073.797 764.624, 1073.766 767.445, 1073.156 " fill="none" stroke="rgb(0, 0, 0)" stroke-linecap="butt" stroke-linejoin="round" stroke-opacity="1.0" stroke-width="3.0" />
            <path d=" M 750.958, 884.262 750.002, 885.267 748.911, 885.878 748.328, 886.204 743.382, 888.971 733.742, 889.974 730.359, 890.893 726.392, 891.970 725.941, 892.383 725.627, 892.670 725.591, 892.703 724.994, 893.249 724.965, 893.275 724.957, 893.283 723.130, 894.955 722.940, 895.129 720.437, 897.613 718.019, 900.095 717.375, 902.439 717.113, 903.392 " fill="none" stroke="rgb(0, 0, 0)" stroke-linecap="butt" stroke-linejoin="round" stroke-opacity="1.0" stroke-width="3.0" />
            <path d=" M 547.836, 551.345 546.926, 549.233 542.470, 548.111 537.558, 548.110 532.676, 547.357 526.970, 545.949 523.581, 545.695 518.611, 545.295 514.352, 543.608 514.014, 541.916 516.593, 538.736 516.650, 538.665 " fill="none" stroke="rgb(0, 0, 0)" stroke-linecap="butt" stroke-linejoin="round" stroke-opacity="1.0" stroke-width="3.0" />
            <path d=" M 843.498, 740.841 846.645, 738.220 850.116, 733.946 853.052, 729.850 854.286, 728.582 854.467, 725.857 856.594, 724.727 858.438, 720.468 858.799, 717.187 858.019, 715.154 855.213, 710.281 851.501, 707.417 " fill="none" stroke="rgb(0, 0, 0)" stroke-linecap="butt" stroke-linejoin="round" stroke-opacity="1.0" stroke-width="3.0" />
            <path d=" M 804.518, 1073.243 804.813, 1074.665 806.121, 1076.015 810.166, 1078.672 812.892, 1077.953 821.964, 1076.050 823.900, 1075.644 830.055, 1075.625 831.807, 1075.620 836.734, 1074.193 838.322, 1073.526 838.904, 1073.282 839.974, 1073.089 840.173, 1073.054 843.253, 1072.499 " fill="none" stroke="rgb(0, 0, 0)" stroke-linecap="butt" stroke-linejoin="round" stroke-opacity="1.0" stroke-width="3.0" />
            <path d=" M 502.738, 597.148 505.344, 589.693 509.342, 583.580 512.810, 579.411 512.391, 576.674 512.125, 575.831 507.654, 574.217 497.678, 573.519 497.291, 573.492 496.260, 573.551 493.040, 573.737 " fill="none" stroke="rgb(0, 0, 0)" stroke-linecap="butt" stroke-linejoin="round" stroke-opacity="1.0" stroke-width="3.0" />
            <path d=" M 806.869, 637.860 804.941, 632.790 804.561, 632.004 803.787, 630.398 801.749, 626.174 800.370, 620.723 799.561, 617.100 799.555, 617.085 797.616, 611.447 795.757, 606.631 795.189, 603.460 793.300, 596.658 793.199, 596.295 " fill="none" stroke="rgb(0, 0, 0)" stroke-linecap="butt" stroke-linejoin="round" stroke-opacity="1.0" stroke-width="3.0" />
            <path d=" M 745.355, 1044.653 747.624, 1044.836 748.798, 1044.930 749.188, 1044.981 757.546, 1046.075 767.466, 1047.335 770.369, 1047.703 774.876, 1048.604 776.987, 1049.026 786.986, 1048.862 788.954, 1048.830 " fill="none" stroke="rgb(0, 0, 0)" stroke-linecap="butt" stroke-linejoin="round" stroke-opacity="1.0" stroke-width="3.0" />
            <path d=" M 1014.065, 986.318 1015.518, 984.865 1016.471, 983.913 1017.586, 982.769 1019.914, 980.381 1020.417, 978.050 1020.571, 977.336 1020.593, 977.237 1020.875, 975.930 1021.521, 972.933 1021.585, 972.313 1021.744, 970.772 1021.890, 969.341 1021.894, 969.296 1022.080, 967.467 1022.139, 966.443 1022.207, 965.260 1022.344, 962.879 1022.534, 960.310 1023.075, 954.550 1022.952, 952.377 1022.535, 949.866 1021.261, 943.820 " fill="none" stroke="rgb(0, 0, 0)" stroke-linecap="butt" stroke-linejoin="round" stroke-opacity="1.0" stroke-width="3.0" />
            <path d=" M 739.560, 659.379 738.950, 662.051 739.694, 666.989 739.943, 670.646 739.506, 676.738 740.894, 681.529 742.480, 682.825 744.857, 682.724 749.838, 679.507 754.978, 679.569 756.983, 678.313 756.854, 673.393 756.841, 673.252 " fill="none" stroke="rgb(0, 0, 0)" stroke-linecap="butt" stroke-linejoin="round" stroke-opacity="1.0" stroke-width="3.0" />
            <path d=" M 968.319, 635.628 966.084, 625.881 965.777, 624.540 964.719, 614.596 964.659, 614.039 963.299, 604.133 963.023, 602.129 961.191, 592.299 961.031, 591.439 960.785, 590.601 " fill="none" stroke="rgb(0, 0, 0)" stroke-linecap="butt" stroke-linejoin="round" stroke-opacity="1.0" stroke-width="3.0" />
            <path d=" M 493.353, 901.588 494.539, 904.353 496.077, 907.939 497.151, 910.290 498.726, 913.429 502.786, 919.115 506.643, 925.093 509.614, 927.017 512.092, 928.730 516.674, 931.603 520.251, 931.048 523.663, 931.687 " fill="none" stroke="rgb(0, 0, 0)" stroke-linecap="butt" stroke-linejoin="round" stroke-opacity="1.0" stroke-width="3.0" />
            <path d=" M 770.489, 951.263 772.925, 955.680 776.989, 957.277 777.637, 957.531 777.934, 957.648 777.974, 957.689 781.116, 960.879 782.959, 962.750 783.479, 963.923 784.078, 965.271 784.825, 966.952 786.039, 969.685 786.414, 970.676 786.588, 971.135 786.809, 971.718 787.908, 974.618 788.752, 976.843 788.773, 976.899 789.018, 977.545 789.106, 977.776 789.248, 978.151 789.868, 979.788 789.908, 979.894 789.957, 980.021 790.088, 980.368 793.200, 988.576 793.712, 989.929 " fill="none" stroke="rgb(0, 0, 0)" stroke-linecap="butt" stroke-linejoin="round" stroke-opacity="1.0" stroke-width="3.0" />
            <path d=" M 946.106, 686.029 945.174, 687.355 944.234, 688.693 940.187, 697.279 937.569, 702.909 935.159, 708.258 933.469, 711.409 932.385, 716.465 932.489, 718.454 933.732, 719.726 934.517, 720.529 934.820, 720.839 938.493, 722.402 944.769, 722.790 " fill="none" stroke="rgb(0, 0, 0)" stroke-linecap="butt" stroke-linejoin="round" stroke-opacity="1.0" stroke-width="3.0" />
            <path d=" M 750.261, 752.921 748.661, 752.763 743.799, 752.313 740.577, 752.488 735.257, 751.550 726.894, 751.768 719.525, 752.090 716.478, 751.963 713.306, 752.104 709.406, 752.294 705.523, 752.059 700.951, 752.993 " fill="none" stroke="rgb(0, 0, 0)" stroke-linecap="butt" stroke-linejoin="round" stroke-opacity="1.0" stroke-width="3.0" />
            <path d=" M 749.541, 762.203 748.853, 762.765 748.033, 768.327 746.273, 770.439 745.657, 771.970 746.175, 776.075 744.924, 778.252 742.561, 782.642 742.799, 783.338 743.923, 786.065 747.615, 787.452 752.859, 788.103 756.139, 788.596 761.270, 791.154 764.253, 793.804 765.192, 794.331 " fill="none" stroke="rgb(0, 0, 0)" stroke-linecap="butt" stroke-linejoin="round" stroke-opacity="1.0" stroke-width="3.0" />
            <path d=" M 987.143, 753.274 986.784, 749.787 986.733, 749.623 984.536, 742.524 980.946, 733.191 980.034, 730.819 979.092, 728.920 976.021, 719.403 975.801, 718.721 973.555, 708.976 972.842, 705.880 " fill="none" stroke="rgb(0, 0, 0)" stroke-linecap="butt" stroke-linejoin="round" stroke-opacity="1.0" stroke-width="3.0" />
            <path d=" M 750.312, 869.442 750.107, 870.235 748.619, 875.982 749.004, 877.345 750.734, 883.469 750.914, 884.107 750.958, 884.262 750.965, 884.289 751.171, 885.018 751.792, 891.462 752.084, 894.499 753.359, 896.837 753.597, 897.273 754.838, 899.551 754.843, 899.659 754.964, 902.582 754.992, 902.667 755.324, 903.681 755.358, 903.784 755.425, 903.990 755.523, 904.287 755.524, 904.290 755.540, 904.341 755.604, 904.536 756.211, 906.388 756.289, 906.626 756.797, 908.174 756.921, 908.553 757.758, 911.106 760.889, 918.213 " fill="none" stroke="rgb(0, 0, 0)" stroke-linecap="butt" stroke-linejoin="round" stroke-opacity="1.0" stroke-width="3.0" />
            <path d=" M 936.408, 1117.306 938.510, 1115.846 941.297, 1113.442 943.619, 1110.807 949.664, 1104.770 955.361, 1096.552 955.978, 1095.663 958.612, 1090.164 962.911, 1081.135 963.427, 1080.053 965.959, 1076.081 " fill="none" stroke="rgb(0, 0, 0)" stroke-linecap="butt" stroke-linejoin="round" stroke-opacity="1.0" stroke-width="3.0" />
            <path d=" M 853.149, 1076.000 857.196, 1078.064 860.301, 1081.137 862.386, 1083.650 864.528, 1086.552 869.771, 1091.169 872.319, 1093.278 876.349, 1096.985 879.191, 1099.550 882.796, 1104.277 887.067, 1108.687 889.208, 1110.525 890.467, 1111.606 " fill="none" stroke="rgb(0, 0, 0)" stroke-linecap="butt" stroke-linejoin="round" stroke-opacity="1.0" stroke-width="3.0" />
            <path d=" M 644.156, 970.469 635.981, 964.709 634.813, 963.886 632.381, 961.948 630.319, 960.305 627.775, 959.177 625.476, 956.766 622.123, 951.648 621.434, 945.040 621.563, 938.498 622.130, 937.176 622.174, 937.074 622.248, 936.902 622.320, 936.733 622.921, 935.332 622.926, 935.320 625.319, 929.743 " fill="none" stroke="rgb(0, 0, 0)" stroke-linecap="butt" stroke-linejoin="round" stroke-opacity="1.0" stroke-width="3.0" />
            <path d=" M 905.440, 751.905 896.141, 755.583 895.566, 755.810 889.040, 759.202 886.657, 760.440 877.828, 765.136 877.705, 765.201 875.090, 765.450 871.224, 766.654 862.090, 768.638 861.080, 769.043 858.187, 770.203 856.699, 770.799 " fill="none" stroke="rgb(0, 0, 0)" stroke-linecap="butt" stroke-linejoin="round" stroke-opacity="1.0" stroke-width="3.0" />
            <path d=" M 453.911, 412.270 454.439, 409.169 454.802, 407.034 454.042, 402.454 453.964, 402.174 453.312, 399.821 453.271, 398.841 453.021, 392.823 452.393, 391.757 451.843, 390.821 449.528, 389.488 447.779, 390.432 446.010, 393.526 443.998, 397.825 442.353, 404.237 441.591, 409.140 440.619, 412.045 440.418, 412.647 439.142, 414.369 439.109, 414.413 439.046, 414.498 438.970, 414.601 438.257, 415.564 " fill="none" stroke="rgb(0, 0, 0)" stroke-linecap="butt" stroke-linejoin="round" stroke-opacity="1.0" stroke-width="3.0" />
            <path d=" M 739.915, 397.868 739.671, 397.857 732.011, 397.486 724.377, 399.311 718.147, 402.808 710.841, 406.898 707.971, 408.916 707.110, 410.227 707.615, 414.145 710.236, 415.961 719.674, 419.266 720.139, 419.428 " fill="none" stroke="rgb(0, 0, 0)" stroke-linecap="butt" stroke-linejoin="round" stroke-opacity="1.0" stroke-width="3.0" />
            <path d=" M 718.517, 476.184 717.373, 476.190 710.580, 473.993 706.515, 475.488 704.593, 479.432 697.787, 484.403 695.951, 485.615 687.583, 491.090 687.383, 491.221 688.253, 497.733 692.392, 502.550 694.956, 504.814 " fill="none" stroke="rgb(0, 0, 0)" stroke-linecap="butt" stroke-linejoin="round" stroke-opacity="1.0" stroke-width="3.0" />
            <path d=" M 581.851, 747.367 586.991, 744.885 589.531, 743.487 591.184, 740.388 591.117, 736.800 590.824, 736.205 590.672, 735.894 588.249, 733.063 588.268, 731.454 588.442, 730.158 589.014, 725.883 588.536, 724.360 587.783, 722.615 583.546, 721.107 581.698, 721.470 578.232, 721.041 575.703, 721.648 570.709, 724.319 570.645, 724.354 570.574, 724.354 566.187, 724.346 565.412, 724.345 " fill="none" stroke="rgb(0, 0, 0)" stroke-linecap="butt" stroke-linejoin="round" stroke-opacity="1.0" stroke-width="3.0" />
            <path d=" M 766.248, 246.420 765.861, 246.511 762.191, 246.666 762.053, 246.598 760.441, 245.799 755.995, 243.596 748.149, 241.427 746.766, 241.701 741.121, 242.819 739.361, 243.688 738.489, 245.192 738.945, 248.595 739.628, 250.957 742.268, 252.839 748.609, 256.872 753.823, 261.862 753.760, 262.741 " fill="none" stroke="rgb(0, 0, 0)" stroke-linecap="butt" stroke-linejoin="round" stroke-opacity="1.0" stroke-width="3.0" />
            <path d=" M 960.975, 578.992 956.641, 569.980 952.728, 561.844 948.127, 552.965 945.498, 547.893 942.113, 540.136 938.656, 533.142 936.964, 529.718 " fill="none" stroke="rgb(0, 0, 0)" stroke-linecap="butt" stroke-linejoin="round" stroke-opacity="1.0" stroke-width="3.0" />
            <path d=" M 730.690, 631.343 729.308, 627.591 730.190, 629.462 730.690, 631.343 731.759, 635.362 731.982, 636.198 732.525, 639.237 733.028, 642.051 732.780, 646.441 732.738, 647.192 733.423, 652.430 735.118, 655.155 737.570, 657.745 739.560, 659.379 739.897, 659.655 740.373, 660.047 740.482, 660.136 740.683, 660.301 740.704, 660.318 741.289, 660.799 743.616, 662.709 743.679, 662.761 745.372, 664.167 745.635, 664.470 746.433, 665.390 748.440, 667.700 752.089, 669.186 " fill="none" stroke="rgb(0, 0, 0)" stroke-linecap="butt" stroke-linejoin="round" stroke-opacity="1.0" stroke-width="3.0" />
            <path d=" M 733.642, 337.874 730.602, 338.766 723.627, 341.082 719.879, 342.437 715.284, 344.668 713.944, 346.596 713.693, 348.208 716.431, 350.929 717.797, 351.166 723.208, 351.687 727.437, 351.974 733.282, 352.902 741.226, 355.229 743.965, 356.235 " fill="none" stroke="rgb(0, 0, 0)" stroke-linecap="butt" stroke-linejoin="round" stroke-opacity="1.0" stroke-width="3.0" />
            <path d=" M 525.515, 433.273 527.602, 432.756 534.426, 431.066 537.055, 429.668 538.239, 429.033 538.114, 427.288 532.116, 424.407 524.495, 422.666 519.793, 422.178 510.431, 420.941 506.917, 421.243 502.129, 421.042 501.094, 421.533 499.731, 422.220 499.679, 422.246 498.677, 422.751 " fill="none" stroke="rgb(0, 0, 0)" stroke-linecap="butt" stroke-linejoin="round" stroke-opacity="1.0" stroke-width="3.0" />
            <path d=" M 708.138, 603.683 709.570, 604.785 706.218, 609.924 705.214, 613.320 704.042, 620.253 707.264, 623.130 711.838, 628.244 711.650, 632.764 711.414, 637.188 714.005, 639.644 719.748, 641.999 723.836, 641.165 724.768, 640.614 726.928, 639.338 726.986, 639.303 " fill="none" stroke="rgb(0, 0, 0)" stroke-linecap="butt" stroke-linejoin="round" stroke-opacity="1.0" stroke-width="3.0" />
            <path d=" M 522.302, 531.767 526.494, 525.855 530.842, 522.366 535.813, 519.700 536.859, 516.630 536.260, 514.600 534.353, 513.521 524.373, 512.893 523.171, 512.818 515.498, 512.336 509.422, 513.340 504.802, 513.517 503.596, 512.844 " fill="none" stroke="rgb(0, 0, 0)" stroke-linecap="butt" stroke-linejoin="round" stroke-opacity="1.0" stroke-width="3.0" />
            <path d=" M 1035.435, 922.984 1036.281, 915.028 1036.456, 910.004 1037.562, 901.174 1037.386, 891.176 1037.301, 886.386 1036.919, 880.715 1035.757, 873.613 1035.194, 868.998 1033.283, 864.967 " fill="none" stroke="rgb(0, 0, 0)" stroke-linecap="butt" stroke-linejoin="round" stroke-opacity="1.0" stroke-width="3.0" />
            <path d=" M 996.784, 717.296 993.277, 707.931 993.240, 707.831 992.279, 705.267 991.702, 704.141 991.600, 703.943 991.528, 703.802 989.177, 699.220 986.678, 693.039 985.964, 691.274 985.712, 690.650 985.708, 690.641 985.688, 690.592 985.403, 689.887 983.988, 686.389 981.039, 676.834 978.090, 667.278 977.873, 666.575 975.747, 660.597 975.591, 660.156 " fill="none" stroke="rgb(0, 0, 0)" stroke-linecap="butt" stroke-linejoin="round" stroke-opacity="1.0" stroke-width="3.0" />
            <path d=" M 715.852, 481.001 716.853, 479.633 716.649, 480.119 716.126, 481.364 716.123, 481.391 716.114, 481.470 715.355, 488.233 715.290, 488.814 714.735, 494.795 714.711, 495.047 712.563, 501.880 712.461, 502.203 710.450, 510.387 707.114, 518.270 706.930, 518.705 706.771, 519.865 706.706, 520.346 706.695, 520.422 706.694, 520.434 706.594, 521.161 706.525, 521.669 706.515, 521.745 706.497, 521.875 706.195, 524.083 706.507, 529.234 706.857, 538.210 " fill="none" stroke="rgb(0, 0, 0)" stroke-linecap="butt" stroke-linejoin="round" stroke-opacity="1.0" stroke-width="3.0" />
            <path d=" M 724.249, 981.086 727.850, 990.415 728.889, 993.108 729.188, 993.696 732.459, 999.782 737.262, 1005.920 741.342, 1009.221 746.744, 1013.138 753.177, 1016.018 753.973, 1015.992 757.439, 1015.879 758.892, 1015.832 759.000, 1015.828 759.132, 1015.867 759.371, 1015.937 765.387, 1017.696 766.074, 1017.897 768.543, 1018.620 " fill="none" stroke="rgb(0, 0, 0)" stroke-linecap="butt" stroke-linejoin="round" stroke-opacity="1.0" stroke-width="3.0" />
            <path d=" M 963.555, 587.201 961.615, 580.567 960.975, 578.992 963.555, 587.201 965.462, 593.271 967.472, 603.067 967.585, 603.618 969.064, 612.695 969.851, 617.528 971.494, 627.013 971.930, 630.012 972.438, 633.504 " fill="none" stroke="rgb(0, 0, 0)" stroke-linecap="butt" stroke-linejoin="round" stroke-opacity="1.0" stroke-width="3.0" />
            <path d=" M 472.910, 423.111 476.467, 419.628 478.502, 417.049 479.354, 415.376 479.489, 410.205 478.380, 408.091 475.739, 406.614 472.452, 406.787 468.807, 407.337 467.512, 407.533 463.841, 409.157 459.330, 410.031 459.161, 410.064 455.747, 411.598 453.911, 412.270 452.480, 412.794 452.115, 412.928 451.626, 413.107 451.407, 413.188 451.233, 413.252 450.971, 413.348 444.977, 419.762 442.232, 425.635 441.076, 427.321 440.371, 428.350 " fill="none" stroke="rgb(0, 0, 0)" stroke-linecap="butt" stroke-linejoin="round" stroke-opacity="1.0" stroke-width="3.0" />
            <path d=" M 840.747, 690.149 840.004, 688.631 838.629, 685.819 835.070, 681.909 834.668, 681.466 834.357, 681.016 828.674, 672.787 828.125, 671.992 825.660, 667.982 824.193, 665.594 820.882, 662.176 816.963, 655.702 815.685, 653.650 813.693, 650.451 812.599, 648.372 812.299, 647.801 810.009, 643.449 809.823, 643.116 809.431, 642.414 809.307, 642.191 809.107, 641.834 809.103, 641.826 809.063, 641.755 809.042, 641.716 808.747, 641.188 807.373, 638.727 807.366, 638.714 807.340, 638.668 806.998, 638.055 806.869, 637.860 804.501, 634.292 " fill="none" stroke="rgb(0, 0, 0)" stroke-linecap="butt" stroke-linejoin="round" stroke-opacity="1.0" stroke-width="3.0" />
            <path d=" M 779.265, 733.173 779.248, 733.538 779.025, 738.251 778.083, 740.993 778.041, 741.114 775.992, 747.082 774.642, 755.566 774.356, 756.592 771.670, 766.225 770.108, 771.824 768.349, 778.202 766.285, 786.680 766.139, 787.701 765.321, 793.430 765.192, 794.331 764.994, 795.715 764.636, 798.223 " fill="none" stroke="rgb(0, 0, 0)" stroke-linecap="butt" stroke-linejoin="round" stroke-opacity="1.0" stroke-width="3.0" />
            <path d=" M 757.065, 263.832 755.931, 263.560 755.697, 263.504 755.692, 263.503 755.521, 263.462 755.019, 263.342 753.738, 263.035 751.541, 262.508 750.825, 262.337 748.856, 261.865 746.453, 261.289 737.975, 263.080 734.314, 265.466 730.486, 267.299 728.953, 269.885 729.043, 270.601 729.467, 273.642 730.057, 274.522 733.737, 275.314 738.483, 276.215 742.426, 277.308 751.987, 280.239 752.291, 280.332 757.416, 282.619 757.991, 282.876 758.438, 283.073 759.804, 283.675 " fill="none" stroke="rgb(0, 0, 0)" stroke-linecap="butt" stroke-linejoin="round" stroke-opacity="1.0" stroke-width="3.0" />
            <path d=" M 711.876, 765.276 704.853, 764.276 700.327, 763.331 694.766, 762.579 690.295, 762.100 683.903, 760.741 676.856, 759.048 673.883, 758.904 669.907, 758.500 666.270, 757.454 663.473, 758.068 660.661, 757.370 657.763, 757.139 650.722, 758.206 646.713, 759.294 644.709, 759.838 " fill="none" stroke="rgb(0, 0, 0)" stroke-linecap="butt" stroke-linejoin="round" stroke-opacity="1.0" stroke-width="3.0" />
            <path d=" M 733.018, 437.391 726.530, 436.356 723.903, 436.684 717.393, 437.718 708.476, 442.015 701.827, 445.958 698.719, 447.676 699.262, 449.821 700.194, 450.369 708.953, 451.625 711.330, 451.892 718.464, 453.972 721.519, 454.424 724.505, 455.937 726.425, 458.235 726.476, 458.207 " fill="none" stroke="rgb(0, 0, 0)" stroke-linecap="butt" stroke-linejoin="round" stroke-opacity="1.0" stroke-width="3.0" />
            <path d=" M 1033.403, 859.002 1033.356, 858.647 1032.711, 853.746 1032.302, 852.173 1030.922, 842.269 1030.695, 840.638 1029.018, 830.780 1028.410, 827.204 1027.078, 819.251 1025.352, 813.121 1023.379, 806.484 1023.075, 805.464 1022.702, 803.739 1021.217, 796.880 1021.210, 796.849 1019.320, 790.466 1018.536, 788.156 " fill="none" stroke="rgb(0, 0, 0)" stroke-linecap="butt" stroke-linejoin="round" stroke-opacity="1.0" stroke-width="3.0" />
            <path d=" M 766.074, 1017.897 771.202, 1026.066 773.874, 1029.372 773.937, 1029.453 774.556, 1030.246 777.368, 1033.850 778.640, 1037.930 781.085, 1041.935 785.950, 1046.637 787.826, 1048.450 788.954, 1048.830 789.832, 1049.125 791.725, 1049.671 791.762, 1049.681 792.265, 1049.827 795.454, 1050.746 800.784, 1055.427 803.520, 1057.505 808.294, 1060.008 814.598, 1061.945 816.051, 1062.391 818.610, 1062.449 818.809, 1062.453 819.727, 1062.474 819.955, 1062.479 820.499, 1062.491 820.620, 1062.494 820.748, 1062.497 820.920, 1062.500 " fill="none" stroke="rgb(0, 0, 0)" stroke-linecap="butt" stroke-linejoin="round" stroke-opacity="1.0" stroke-width="3.0" />
            <path d=" M 973.396, 1065.989 973.821, 1065.859 976.392, 1065.074 978.595, 1064.401 982.907, 1059.344 986.443, 1054.682 987.912, 1051.681 987.933, 1051.637 987.950, 1051.603 988.246, 1050.998 991.376, 1044.093 991.498, 1043.806 991.819, 1043.050 995.245, 1034.980 997.184, 1031.821 998.909, 1029.012 1000.585, 1026.281 1002.804, 1018.701 1005.230, 1014.463 1007.461, 1010.564 1010.745, 1005.505 1011.963, 1003.161 " fill="none" stroke="rgb(0, 0, 0)" stroke-linecap="butt" stroke-linejoin="round" stroke-opacity="1.0" stroke-width="3.0" />
            <path d=" M 752.873, 665.017 754.358, 667.147 754.980, 668.040 756.566, 670.314 756.726, 670.544 758.567, 673.983 759.690, 676.080 760.090, 677.744 760.319, 678.694 760.465, 679.299 760.502, 679.453 760.781, 680.612 761.588, 682.426 765.303, 686.308 766.061, 687.046 767.589, 688.533 771.660, 693.566 771.787, 693.723 771.983, 693.966 774.705, 697.126 777.678, 701.974 778.527, 703.355 779.520, 704.909 779.777, 705.312 781.816, 708.505 783.014, 711.192 783.883, 713.143 783.848, 716.967 786.137, 722.053 785.254, 728.690 785.063, 730.581 " fill="none" stroke="rgb(0, 0, 0)" stroke-linecap="butt" stroke-linejoin="round" stroke-opacity="1.0" stroke-width="3.0" />
            <path d=" M 926.173, 511.786 921.153, 503.661 919.157, 500.678 914.437, 491.862 911.623, 486.607 907.084, 477.696 905.331, 474.255 901.548, 464.998 900.744, 463.030 899.783, 460.493 896.239, 451.142 895.504, 449.202 893.335, 441.776 " fill="none" stroke="rgb(0, 0, 0)" stroke-linecap="butt" stroke-linejoin="round" stroke-opacity="1.0" stroke-width="3.0" />
            <path d=" M 1015.808, 775.339 1016.017, 772.054 1013.534, 766.407 1012.082, 760.473 1012.012, 757.497 1009.786, 750.222 1008.303, 742.652 1006.501, 738.114 1003.997, 731.842 1001.232, 724.197 997.306, 715.000 995.488, 710.741 992.203, 701.711 " fill="none" stroke="rgb(0, 0, 0)" stroke-linecap="butt" stroke-linejoin="round" stroke-opacity="1.0" stroke-width="3.0" />
            <path d=" M 989.057, 686.578 989.634, 685.707 991.313, 683.070 993.679, 676.461 993.836, 671.754 993.987, 666.045 993.679, 664.278 991.262, 657.548 990.580, 655.227 986.920, 648.251 983.913, 641.115 979.856, 631.975 979.639, 631.486 977.461, 625.997 975.459, 621.824 973.934, 619.593 969.064, 612.695 " fill="none" stroke="rgb(0, 0, 0)" stroke-linecap="butt" stroke-linejoin="round" stroke-opacity="1.0" stroke-width="3.0" />
            <path d=" M 938.656, 533.142 936.822, 529.113 935.843, 527.018 932.414, 520.054 929.486, 514.544 925.530, 508.465 921.037, 501.656 915.926, 493.061 914.680, 490.966 910.051, 482.102 907.918, 478.018 903.633, 468.983 903.058, 467.771 899.783, 460.493 " fill="none" stroke="rgb(0, 0, 0)" stroke-linecap="butt" stroke-linejoin="round" stroke-opacity="1.0" stroke-width="3.0" />
            <path d=" M 760.465, 679.299 760.344, 680.631 759.447, 690.591 758.742, 698.408 756.890, 708.235 756.515, 710.222 755.472, 715.134 753.801, 720.016 752.309, 727.346 750.705, 731.806 751.238, 735.354 750.724, 743.148 750.241, 748.848 750.352, 752.247 750.261, 752.921 749.807, 756.283 749.326, 757.117 749.541, 762.203 749.558, 762.603 " fill="none" stroke="rgb(0, 0, 0)" stroke-linecap="butt" stroke-linejoin="round" stroke-opacity="1.0" stroke-width="3.0" />
            <path d=" M 417.366, 514.642 416.420, 524.597 416.316, 525.687 415.397, 535.644 415.361, 536.034 415.087, 545.980 415.574, 555.969 415.645, 557.424 415.844, 560.964 416.847, 570.913 416.948, 571.917 417.017, 580.401 418.290, 590.320 418.716, 593.638 419.854, 599.102 " fill="none" stroke="rgb(0, 0, 0)" stroke-linecap="butt" stroke-linejoin="round" stroke-opacity="1.0" stroke-width="3.0" />
            <path d=" M 724.144, 754.923 716.573, 753.906 711.300, 753.656 701.480, 753.036 700.951, 752.993 697.540, 752.715 688.530, 752.694 679.262, 752.478 674.358, 752.588 670.926, 752.321 663.474, 751.972 656.707, 752.071 651.398, 751.381 646.002, 750.703 642.253, 750.785 639.629, 750.852 636.802, 750.924 " fill="none" stroke="rgb(0, 0, 0)" stroke-linecap="butt" stroke-linejoin="round" stroke-opacity="1.0" stroke-width="3.0" />
            <path d=" M 706.059, 561.294 705.767, 564.546 705.660, 565.732 705.651, 565.842 705.621, 566.167 705.460, 567.969 706.907, 571.420 708.256, 577.635 708.632, 580.403 708.785, 589.412 709.218, 591.502 710.199, 594.087 710.304, 596.730 710.305, 596.747 710.381, 598.686 710.820, 600.308 711.496, 602.313 712.297, 604.689 713.039, 606.890 715.628, 613.152 717.705, 618.330 721.569, 626.231 722.988, 631.028 725.838, 637.635 726.451, 638.526 726.730, 638.932 726.986, 639.303 727.064, 639.417 727.397, 639.901 727.722, 640.372 732.744, 646.378 732.780, 646.441 " fill="none" stroke="rgb(0, 0, 0)" stroke-linecap="butt" stroke-linejoin="round" stroke-opacity="1.0" stroke-width="3.0" />
            <path d=" M 419.680, 598.092 419.854, 599.102 421.470, 608.448 423.004, 618.329 423.664, 622.578 424.567, 627.137 426.800, 636.044 429.094, 645.777 429.580, 647.837 432.169, 657.062 435.480, 666.498 435.673, 667.050 438.158, 675.488 438.908, 678.843 442.176, 688.294 442.411, 688.976 " fill="none" stroke="rgb(0, 0, 0)" stroke-linecap="butt" stroke-linejoin="round" stroke-opacity="1.0" stroke-width="3.0" />
            <path d=" M 960.896, 591.007 960.785, 590.601 958.163, 580.951 957.910, 580.019 954.016, 571.194 951.994, 566.548 948.531, 560.506 946.935, 558.681 944.328, 553.043 941.812, 547.401 937.752, 538.262 935.427, 533.027 930.760, 524.182 928.272, 519.464 923.421, 510.720 923.106, 510.152 919.752, 504.849 " fill="none" stroke="rgb(0, 0, 0)" stroke-linecap="butt" stroke-linejoin="round" stroke-opacity="1.0" stroke-width="3.0" />
            <path d=" M 963.161, 696.685 966.284, 693.607 967.960, 691.956 970.876, 687.544 971.224, 687.018 973.260, 682.221 975.075, 677.946 976.550, 668.055 976.597, 667.741 976.562, 667.454 975.782, 661.028 975.604, 660.218 975.591, 660.156 975.548, 659.964 974.740, 656.292 972.441, 646.560 971.700, 643.424 971.135, 642.121 968.319, 635.628 968.306, 635.600 967.091, 632.944 967.079, 632.918 964.579, 627.455 960.604, 619.794 955.345, 611.289 954.723, 610.284 953.837, 608.225 953.720, 607.953 " fill="none" stroke="rgb(0, 0, 0)" stroke-linecap="butt" stroke-linejoin="round" stroke-opacity="1.0" stroke-width="3.0" />
            <path d=" M 729.586, 831.080 730.592, 830.911 731.852, 830.698 734.595, 830.727 737.058, 831.515 740.109, 831.447 744.261, 829.565 746.678, 820.290 746.760, 819.585 746.672, 812.562 745.116, 804.765 743.090, 798.768 741.091, 792.628 739.284, 789.100 735.987, 784.361 734.498, 783.382 731.288, 779.015 728.088, 775.837 726.950, 773.730 722.683, 770.460 717.390, 768.216 715.614, 766.671 711.876, 765.276 709.985, 765.593 706.445, 766.384 " fill="none" stroke="rgb(0, 0, 0)" stroke-linecap="butt" stroke-linejoin="round" stroke-opacity="1.0" stroke-width="3.0" />
            <path d=" M 1029.990, 958.434 1030.420, 957.161 1031.047, 955.306 1032.190, 951.458 1033.038, 946.580 1034.515, 936.690 1035.171, 932.297 1035.602, 926.214 1036.682, 916.273 1037.540, 908.374 1037.893, 898.380 1038.099, 892.579 1037.858, 883.969 1037.153, 875.675 1036.954, 872.199 1035.426, 863.027 1033.356, 858.647 " fill="none" stroke="rgb(0, 0, 0)" stroke-linecap="butt" stroke-linejoin="round" stroke-opacity="1.0" stroke-width="3.0" />
            <path d=" M 472.628, 796.098 473.912, 800.599 475.056, 805.175 478.018, 814.064 478.911, 818.338 480.528, 827.677 482.478, 831.369 483.651, 836.154 485.928, 843.842 486.237, 846.736 487.161, 850.210 487.308, 857.665 487.522, 863.266 488.364, 872.725 489.243, 879.294 489.143, 883.361 489.230, 886.641 489.839, 892.384 491.135, 896.279 491.629, 900.208 494.539, 904.353 " fill="none" stroke="rgb(0, 0, 0)" stroke-linecap="butt" stroke-linejoin="round" stroke-opacity="1.0" stroke-width="3.0" />
            <path d=" M 920.958, 507.193 919.752, 504.849 918.261, 501.953 915.683, 497.710 911.576, 491.679 906.786, 484.397 902.046, 475.592 901.982, 475.472 899.719, 471.310 898.896, 469.797 898.616, 469.282 896.942, 466.204 892.923, 457.047 891.936, 454.799 888.645, 446.158 886.333, 439.384 884.063, 431.684 882.163, 426.937 881.836, 426.059 878.351, 416.686 877.573, 414.592 874.722, 405.007 874.499, 404.258 " fill="none" stroke="rgb(0, 0, 0)" stroke-linecap="butt" stroke-linejoin="round" stroke-opacity="1.0" stroke-width="3.0" />
            <path d=" M 440.619, 412.045 439.471, 411.751 437.490, 412.714 436.788, 413.565 435.356, 417.451 435.205, 418.302 434.861, 419.705 434.782, 420.026 432.399, 429.737 432.097, 430.969 432.056, 431.137 432.032, 431.233 432.001, 431.309 431.986, 431.346 431.889, 431.580 431.207, 433.235 430.847, 434.108 428.651, 439.434 427.085, 444.362 425.281, 454.198 425.247, 454.381 424.282, 461.505 422.375, 471.321 421.996, 473.272 420.322, 482.734 420.018, 484.566 419.804, 489.537 418.505, 499.313 417.428, 509.338 417.366, 514.642 417.287, 521.472 " fill="none" stroke="rgb(0, 0, 0)" stroke-linecap="butt" stroke-linejoin="round" stroke-opacity="1.0" stroke-width="3.0" />
            <path d=" M 588.878, 953.467 589.403, 954.660 591.723, 959.932 596.387, 967.031 601.684, 973.541 606.886, 978.918 610.897, 982.003 614.703, 983.918 620.377, 985.240 626.721, 986.293 635.739, 986.451 640.468, 984.620 643.607, 983.280 648.690, 980.801 652.516, 977.644 653.757, 975.915 653.365, 973.907 650.551, 968.595 648.287, 967.115 647.185, 966.854 641.948, 965.686 637.681, 963.668 633.290, 959.991 630.994, 957.130 629.989, 955.878 629.281, 954.994 " fill="none" stroke="rgb(0, 0, 0)" stroke-linecap="butt" stroke-linejoin="round" stroke-opacity="1.0" stroke-width="3.0" />
            <path d=" M 899.719, 471.310 896.882, 464.201 893.840, 455.586 890.906, 446.023 889.499, 439.980 887.413, 430.200 886.454, 425.703 886.114, 424.108 885.835, 422.718 883.867, 412.913 881.899, 403.109 881.794, 402.588 879.640, 393.299 877.496, 383.532 877.092, 381.689 875.988, 376.105 874.077, 368.604 870.699, 359.192 869.848, 356.821 " fill="none" stroke="rgb(0, 0, 0)" stroke-linecap="butt" stroke-linejoin="round" stroke-opacity="1.0" stroke-width="3.0" />
            <path d=" M 441.825, 685.970 442.411, 688.976 443.115, 692.581 445.513, 702.132 447.295, 708.974 448.663, 718.880 448.941, 720.896 451.592, 730.538 453.229, 736.496 454.441, 741.020 456.471, 747.225 458.119, 754.086 460.508, 759.697 462.668, 766.677 465.238, 773.992 468.249, 783.528 468.410, 784.039 471.602, 793.516 471.715, 793.852 472.628, 796.098 475.045, 802.039 " fill="none" stroke="rgb(0, 0, 0)" stroke-linecap="butt" stroke-linejoin="round" stroke-opacity="1.0" stroke-width="3.0" />
            <path d=" M 896.792, 454.751 895.336, 449.285 893.335, 441.776 890.805, 432.277 888.682, 422.505 888.441, 421.394 886.389, 411.607 884.337, 401.820 883.293, 396.844 880.873, 387.141 880.606, 386.072 878.709, 377.870 876.857, 370.952 874.799, 361.166 873.102, 353.095 871.456, 348.508 869.728, 344.834 866.904, 340.546 864.470, 339.614 " fill="none" stroke="rgb(0, 0, 0)" stroke-linecap="butt" stroke-linejoin="round" stroke-opacity="1.0" stroke-width="3.0" />
            <path d=" M 717.375, 902.439 717.179, 902.632 713.394, 906.783 710.404, 911.450 707.356, 920.975 705.421, 927.022 705.346, 927.257 705.276, 927.446 705.275, 927.449 705.045, 928.073 705.004, 928.186 702.790, 934.193 701.127, 938.701 698.007, 947.153 697.746, 948.116 696.534, 955.423 697.073, 965.409 697.129, 966.452 699.349, 976.203 701.414, 985.266 705.333, 994.466 705.666, 995.248 710.320, 1002.876 714.520, 1010.164 718.427, 1014.756 " fill="none" stroke="rgb(0, 0, 0)" stroke-linecap="butt" stroke-linejoin="round" stroke-opacity="1.0" stroke-width="3.0" />
            <path d=" M 754.474, 307.973 744.637, 306.173 742.082, 305.706 738.269, 305.260 731.099, 303.658 721.108, 304.060 718.279, 304.173 708.341, 305.512 700.507, 307.137 690.765, 309.395 687.607, 310.127 683.948, 311.251 679.086, 312.823 675.234, 315.252 675.374, 317.118 676.547, 318.176 678.923, 319.707 686.237, 319.771 695.899, 322.350 696.541, 322.521 700.861, 323.245 706.389, 324.922 715.100, 327.986 724.117, 332.310 728.310, 334.320 732.843, 337.381 733.642, 337.874 742.154, 343.123 742.381, 343.263 " fill="none" stroke="rgb(0, 0, 0)" stroke-linecap="butt" stroke-linejoin="round" stroke-opacity="1.0" stroke-width="3.0" />
            <path d=" M 788.999, 935.201 789.076, 933.949 789.542, 926.407 790.596, 922.817 791.607, 915.614 792.304, 911.102 793.654, 907.560 794.394, 905.787 796.365, 901.065 797.408, 896.100 799.996, 888.061 800.542, 887.252 805.153, 879.133 805.383, 878.615 806.005, 877.217 806.010, 877.205 807.081, 874.797 807.084, 874.791 807.232, 874.459 807.318, 874.264 807.892, 872.974 808.201, 872.281 808.334, 872.054 810.421, 868.510 811.616, 866.481 811.743, 866.265 811.927, 865.952 812.335, 865.047 812.345, 865.024 813.037, 863.487 813.111, 863.324 813.949, 861.462 814.472, 860.301 814.895, 859.363 815.222, 858.637 815.261, 858.550 816.921, 854.585 817.458, 853.304 817.578, 853.017 817.856, 852.355 817.959, 852.109 819.801, 847.266 820.397, 845.698 820.453, 845.552 820.486, 845.464 820.498, 845.433 820.505, 845.415 821.484, 842.839 821.500, 842.772 822.625, 837.888 822.631, 837.860 822.818, 837.049 822.920, 836.605 823.671, 833.345 823.798, 832.791 823.888, 832.402 826.502, 822.750 827.765, 818.086 830.058, 808.352 830.437, 806.743 832.397, 798.937 834.110, 795.681 834.631, 794.691 834.634, 794.685 835.680, 792.697 836.568, 789.603 836.703, 787.886 836.716, 787.716 836.742, 787.384 836.752, 787.262 836.763, 787.122 836.776, 786.955 836.786, 786.830 836.852, 785.997 836.917, 785.166 836.938, 784.896 " fill="none" stroke="rgb(0, 0, 0)" stroke-linecap="butt" stroke-linejoin="round" stroke-opacity="1.0" stroke-width="3.0" />
        </g>
    </g>
</svg>
