<?xml version='1.0' encoding='ascii'?>
<svg xmlns="http://www.w3.org/2000/svg" height="1280" version="1.1" width="1280">
    <g id="RenderLayer_LineSet" inkscape:groupmode="lineset" inkscape:label="RenderLayer_LineSet" xmlns:inkscape="http://www.inkscape.org/namespaces/inkscape">
        <g id="strokes" inkscape:groupmode="layer" inkscape:label="strokes" xmlns:inkscape="http://www.inkscape.org/namespaces/inkscape">
            <path d=" M 903.759, 510.448 903.125, 510.377 902.800, 510.341 902.773, 510.338 902.601, 510.319 902.587, 510.318 901.960, 510.248 901.833, 510.234 900.135, 510.046 899.365, 509.961 898.025, 509.945 895.487, 509.916 893.157, 509.889 888.831, 510.551 888.637, 510.581 888.615, 510.584 886.281, 510.942 885.178, 511.110 885.143, 511.116 883.756, 511.328 " fill="none" stroke="rgb(0, 0, 0)" stroke-linecap="butt" stroke-linejoin="round" stroke-opacity="1.0" stroke-width="3.0" />
            <path d=" M 1044.332, 710.567 1045.754, 709.653 1047.781, 707.516 1047.797, 707.498 1048.976, 706.256 1049.691, 704.650 1049.776, 704.459 1050.405, 703.047 1050.287, 698.202 1050.318, 694.512 1050.321, 694.177 1050.323, 693.893 1050.334, 692.593 " fill="none" stroke="rgb(0, 0, 0)" stroke-linecap="butt" stroke-linejoin="round" stroke-opacity="1.0" stroke-width="3.0" />
            <path d=" M 850.212, 519.477 847.959, 520.312 845.868, 521.086 840.927, 522.915 839.371, 523.110 835.047, 523.651 830.410, 524.232 " fill="none" stroke="rgb(0, 0, 0)" stroke-linecap="butt" stroke-linejoin="round" stroke-opacity="1.0" stroke-width="3.0" />
            <path d=" M 470.884, 711.418 471.238, 711.051 471.254, 711.034 474.050, 708.137 478.318, 704.779 479.146, 704.128 479.799, 703.613 479.850, 703.556 480.390, 702.947 480.665, 702.637 481.278, 701.947 482.095, 701.026 480.487, 702.380 480.132, 702.773 479.929, 702.997 479.289, 703.705 478.318, 704.779 " fill="none" stroke="rgb(0, 0, 0)" stroke-linecap="butt" stroke-linejoin="round" stroke-opacity="1.0" stroke-width="3.0" />
            <path d=" M 988.616, 544.169 987.216, 543.126 984.352, 542.126 982.463, 541.467 982.446, 541.461 982.126, 541.350 980.488, 540.313 979.559, 539.725 978.180, 538.853 973.809, 536.086 972.360, 535.101 970.677, 533.957 " fill="none" stroke="rgb(0, 0, 0)" stroke-linecap="butt" stroke-linejoin="round" stroke-opacity="1.0" stroke-width="3.0" />
            <path d=" M 871.270, 627.747 865.917, 627.170 858.757, 626.218 854.429, 625.369 854.279, 625.339 850.720, 624.641 " fill="none" stroke="rgb(0, 0, 0)" stroke-linecap="butt" stroke-linejoin="round" stroke-opacity="1.0" stroke-width="3.0" />
            <path d=" M 964.980, 531.085 963.711, 530.183 957.315, 525.636 957.174, 525.568 956.176, 525.080 948.167, 521.488 946.370, 520.682 " fill="none" stroke="rgb(0, 0, 0)" stroke-linecap="butt" stroke-linejoin="round" stroke-opacity="1.0" stroke-width="3.0" />
            <path d=" M 683.336, 558.581 684.166, 560.083 683.698, 560.613 683.677, 560.637 683.091, 561.303 682.254, 562.253 682.233, 562.276 681.477, 563.134 680.697, 564.019 680.605, 564.123 680.604, 564.124 679.958, 564.639 679.229, 565.219 679.211, 565.234 677.481, 566.612 675.094, 568.627 674.099, 569.467 674.090, 569.819 674.076, 570.392 674.073, 570.489 674.054, 571.233 674.049, 571.440 674.018, 572.677 673.972, 574.488 673.972, 574.504 674.574, 575.222 " fill="none" stroke="rgb(0, 0, 0)" stroke-linecap="butt" stroke-linejoin="round" stroke-opacity="1.0" stroke-width="3.0" />
            <path d=" M 1058.948, 637.582 1057.333, 630.800 1056.027, 627.194 1052.696, 619.515 1051.895, 618.947 1050.731, 618.119 " fill="none" stroke="rgb(0, 0, 0)" stroke-linecap="butt" stroke-linejoin="round" stroke-opacity="1.0" stroke-width="3.0" />
            <path d=" M 706.879, 497.502 706.678, 499.338 706.660, 503.769 706.640, 509.034 705.212, 514.304 704.013, 518.733 " fill="none" stroke="rgb(0, 0, 0)" stroke-linecap="butt" stroke-linejoin="round" stroke-opacity="1.0" stroke-width="3.0" />
            <path d=" M 1076.275, 687.867 1076.311, 687.347 1076.356, 686.693 1076.377, 686.379 1076.404, 685.981 1076.477, 684.907 1074.319, 679.472 1072.093, 676.132 1070.183, 675.740 1066.428, 675.901 1066.323, 675.819 1063.894, 673.934 " fill="none" stroke="rgb(0, 0, 0)" stroke-linecap="butt" stroke-linejoin="round" stroke-opacity="1.0" stroke-width="3.0" />
            <path d=" M 472.694, 811.591 472.764, 814.051 473.078, 816.476 471.811, 811.645 472.341, 805.069 473.137, 803.787 473.201, 803.683 473.334, 803.469 473.679, 802.913 473.746, 802.804 473.807, 802.706 475.128, 800.578 " fill="none" stroke="rgb(0, 0, 0)" stroke-linecap="butt" stroke-linejoin="round" stroke-opacity="1.0" stroke-width="3.0" />
            <path d=" M 919.636, 511.253 917.070, 510.531 908.053, 509.548 907.698, 509.510 903.927, 509.249 903.682, 509.232 903.245, 509.202 901.799, 509.408 898.651, 509.856 898.025, 509.945 " fill="none" stroke="rgb(0, 0, 0)" stroke-linecap="butt" stroke-linejoin="round" stroke-opacity="1.0" stroke-width="3.0" />
            <path d=" M 984.518, 853.025 985.418, 852.419 988.508, 850.341 992.815, 846.902 993.685, 846.205 994.410, 843.944 994.522, 843.596 995.376, 843.056 998.620, 841.003 1000.768, 839.185 " fill="none" stroke="rgb(0, 0, 0)" stroke-linecap="butt" stroke-linejoin="round" stroke-opacity="1.0" stroke-width="3.0" />
            <path d=" M 747.978, 487.898 748.404, 487.443 753.045, 483.235 756.740, 480.077 764.711, 474.669 765.273, 474.288 " fill="none" stroke="rgb(0, 0, 0)" stroke-linecap="butt" stroke-linejoin="round" stroke-opacity="1.0" stroke-width="3.0" />
            <path d=" M 1064.410, 730.010 1064.266, 722.704 1064.253, 722.044 1064.565, 716.429 1064.581, 716.132 1064.590, 715.973 1064.617, 715.498 1064.635, 715.169 1064.704, 713.921 1064.813, 713.491 1064.991, 712.787 1065.014, 712.696 1065.088, 712.405 1065.746, 709.803 1065.899, 709.202 1066.167, 708.140 1066.194, 708.034 " fill="none" stroke="rgb(0, 0, 0)" stroke-linecap="butt" stroke-linejoin="round" stroke-opacity="1.0" stroke-width="3.0" />
            <path d=" M 940.082, 519.542 930.796, 515.831 929.566, 515.339 919.668, 513.910 918.436, 513.733 " fill="none" stroke="rgb(0, 0, 0)" stroke-linecap="butt" stroke-linejoin="round" stroke-opacity="1.0" stroke-width="3.0" />
            <path d=" M 523.669, 690.218 523.083, 689.520 520.508, 689.209 511.495, 693.541 511.261, 693.653 510.564, 693.988 508.653, 695.742 506.877, 699.997 506.547, 700.787 " fill="none" stroke="rgb(0, 0, 0)" stroke-linecap="butt" stroke-linejoin="round" stroke-opacity="1.0" stroke-width="3.0" />
            <path d=" M 464.933, 781.713 465.323, 782.965 467.266, 784.887 468.651, 787.537 469.623, 789.701 470.630, 792.755 471.764, 794.923 471.730, 798.305 472.531, 800.773 473.294, 802.195 " fill="none" stroke="rgb(0, 0, 0)" stroke-linecap="butt" stroke-linejoin="round" stroke-opacity="1.0" stroke-width="3.0" />
            <path d=" M 502.189, 862.051 504.038, 865.970 505.488, 869.046 507.336, 872.048 508.352, 874.449 513.070, 881.985 " fill="none" stroke="rgb(0, 0, 0)" stroke-linecap="butt" stroke-linejoin="round" stroke-opacity="1.0" stroke-width="3.0" />
            <path d=" M 949.577, 660.688 946.448, 657.549 945.540, 656.994 938.587, 652.749 938.056, 652.425 937.691, 652.202 936.090, 651.751 930.023, 649.572 " fill="none" stroke="rgb(0, 0, 0)" stroke-linecap="butt" stroke-linejoin="round" stroke-opacity="1.0" stroke-width="3.0" />
            <path d=" M 585.908, 677.389 584.968, 677.160 584.259, 676.403 583.972, 676.394 583.824, 676.389 583.822, 676.389 580.914, 676.295 577.531, 679.202 576.598, 680.004 571.711, 685.750 570.371, 687.268 569.891, 687.812 568.886, 688.950 " fill="none" stroke="rgb(0, 0, 0)" stroke-linecap="butt" stroke-linejoin="round" stroke-opacity="1.0" stroke-width="3.0" />
            <path d=" M 964.113, 519.415 962.592, 518.248 959.573, 514.780 955.986, 511.688 953.338, 510.804 950.375, 509.214 947.176, 509.233 944.972, 508.627 944.905, 508.608 " fill="none" stroke="rgb(0, 0, 0)" stroke-linecap="butt" stroke-linejoin="round" stroke-opacity="1.0" stroke-width="3.0" />
            <path d=" M 770.427, 506.878 770.372, 506.859 763.158, 504.369 757.830, 502.602 751.092, 498.548 749.629, 497.400 " fill="none" stroke="rgb(0, 0, 0)" stroke-linecap="butt" stroke-linejoin="round" stroke-opacity="1.0" stroke-width="3.0" />
            <path d=" M 476.182, 707.928 472.424, 710.404 470.884, 711.418 470.639, 711.579 467.215, 714.561 466.883, 714.806 465.236, 716.020 460.795, 719.294 458.788, 721.037 457.837, 721.863 " fill="none" stroke="rgb(0, 0, 0)" stroke-linecap="butt" stroke-linejoin="round" stroke-opacity="1.0" stroke-width="3.0" />
            <path d=" M 722.202, 463.130 716.423, 465.961 711.531, 469.077 708.100, 473.414 707.399, 476.903 707.504, 478.737 " fill="none" stroke="rgb(0, 0, 0)" stroke-linecap="butt" stroke-linejoin="round" stroke-opacity="1.0" stroke-width="3.0" />
            <path d=" M 1053.879, 624.107 1053.452, 623.019 1052.476, 620.533 1051.439, 619.099 1050.731, 618.119 1050.007, 617.119 1049.211, 616.017 1047.588, 613.773 1044.558, 609.287 1043.979, 608.430 1043.013, 607.001 1042.891, 606.819 1041.501, 604.763 1041.398, 604.610 " fill="none" stroke="rgb(0, 0, 0)" stroke-linecap="butt" stroke-linejoin="round" stroke-opacity="1.0" stroke-width="3.0" />
            <path d=" M 680.248, 557.068 679.319, 558.238 675.421, 560.737 675.390, 560.758 674.928, 561.054 674.875, 561.087 673.500, 563.119 672.473, 565.211 672.222, 565.900 670.512, 570.580 670.253, 571.289 670.744, 573.007 673.972, 574.488 " fill="none" stroke="rgb(0, 0, 0)" stroke-linecap="butt" stroke-linejoin="round" stroke-opacity="1.0" stroke-width="3.0" />
            <path d=" M 851.968, 907.831 853.802, 909.110 857.527, 911.192 863.545, 913.143 866.891, 914.063 871.556, 914.049 873.808, 913.157 " fill="none" stroke="rgb(0, 0, 0)" stroke-linecap="butt" stroke-linejoin="round" stroke-opacity="1.0" stroke-width="3.0" />
            <path d=" M 878.073, 512.381 877.396, 512.409 875.869, 512.471 873.326, 512.574 867.854, 512.797 859.202, 515.023 855.097, 516.543 " fill="none" stroke="rgb(0, 0, 0)" stroke-linecap="butt" stroke-linejoin="round" stroke-opacity="1.0" stroke-width="3.0" />
            <path d=" M 892.959, 838.796 896.272, 833.599 896.699, 832.467 897.902, 829.279 899.526, 827.879 909.495, 827.089 910.250, 827.029 " fill="none" stroke="rgb(0, 0, 0)" stroke-linecap="butt" stroke-linejoin="round" stroke-opacity="1.0" stroke-width="3.0" />
            <path d=" M 520.934, 702.712 519.761, 702.612 519.748, 702.611 519.672, 702.605 519.126, 702.558 518.152, 702.093 517.569, 701.814 516.657, 701.882 516.384, 701.903 516.357, 701.905 515.778, 701.948 515.180, 701.848 515.103, 701.835 515.015, 701.820 514.934, 701.806 513.217, 701.518 511.958, 702.145 510.413, 702.608 509.817, 702.787 506.182, 705.043 504.421, 705.748 503.437, 704.515 503.350, 704.407 503.260, 704.356 503.221, 704.334 503.023, 704.222 502.123, 703.714 502.116, 703.709 501.544, 703.386 501.424, 703.319 500.004, 703.842 499.908, 703.878 499.827, 703.908 499.813, 703.913 499.513, 704.023 499.166, 704.151 " fill="none" stroke="rgb(0, 0, 0)" stroke-linecap="butt" stroke-linejoin="round" stroke-opacity="1.0" stroke-width="3.0" />
            <path d=" M 533.210, 690.511 531.729, 690.112 529.187, 689.429 526.503, 688.707 525.260, 689.370 525.131, 689.438 523.669, 690.218 523.449, 690.335 520.832, 691.884 520.553, 692.381 516.186, 700.155 516.118, 700.276 516.055, 700.388 515.161, 701.747 515.103, 701.835 " fill="none" stroke="rgb(0, 0, 0)" stroke-linecap="butt" stroke-linejoin="round" stroke-opacity="1.0" stroke-width="3.0" />
            <path d=" M 997.663, 675.521 998.022, 675.773 1002.864, 679.179 1006.348, 682.349 1007.497, 683.394 1007.741, 683.616 1011.453, 686.993 1009.622, 684.672 1006.348, 682.349 " fill="none" stroke="rgb(0, 0, 0)" stroke-linecap="butt" stroke-linejoin="round" stroke-opacity="1.0" stroke-width="3.0" />
            <path d=" M 952.682, 894.889 953.320, 893.066 953.423, 892.772 953.648, 892.295 955.763, 887.812 957.764, 883.616 958.941, 880.312 960.539, 875.279 962.537, 872.067 " fill="none" stroke="rgb(0, 0, 0)" stroke-linecap="butt" stroke-linejoin="round" stroke-opacity="1.0" stroke-width="3.0" />
            <path d=" M 655.338, 946.601 657.572, 948.484 661.352, 951.670 664.466, 952.182 667.462, 953.652 670.450, 954.806 675.210, 957.177 677.294, 957.537 " fill="none" stroke="rgb(0, 0, 0)" stroke-linecap="butt" stroke-linejoin="round" stroke-opacity="1.0" stroke-width="3.0" />
            <path d=" M 939.448, 505.694 939.439, 505.688 938.236, 503.053 937.157, 501.853 934.211, 498.968 932.234, 498.364 929.527, 494.272 929.192, 494.071 925.462, 491.841 923.060, 492.060 923.058, 492.062 922.444, 492.726 922.277, 492.905 921.387, 493.868 " fill="none" stroke="rgb(0, 0, 0)" stroke-linecap="butt" stroke-linejoin="round" stroke-opacity="1.0" stroke-width="3.0" />
            <path d=" M 816.039, 874.501 819.523, 883.593 822.029, 887.590 823.842, 891.472 823.980, 892.513 824.702, 897.937 " fill="none" stroke="rgb(0, 0, 0)" stroke-linecap="butt" stroke-linejoin="round" stroke-opacity="1.0" stroke-width="3.0" />
            <path d=" M 1024.128, 819.664 1024.436, 819.457 1026.395, 818.141 1026.555, 818.033 1026.578, 818.017 1028.208, 816.922 1028.505, 816.382 1028.802, 815.841 1028.949, 815.575 1031.264, 811.366 1034.173, 807.565 1038.412, 803.606 1038.708, 803.330 1039.208, 802.863 1040.476, 801.312 1040.831, 800.877 " fill="none" stroke="rgb(0, 0, 0)" stroke-linecap="butt" stroke-linejoin="round" stroke-opacity="1.0" stroke-width="3.0" />
            <path d=" M 473.078, 816.476 476.040, 820.394 477.484, 821.271 482.800, 821.982 482.833, 821.987 482.922, 821.999 485.410, 822.332 487.666, 822.923 491.996, 821.964 494.299, 818.448 " fill="none" stroke="rgb(0, 0, 0)" stroke-linecap="butt" stroke-linejoin="round" stroke-opacity="1.0" stroke-width="3.0" />
            <path d=" M 1051.801, 724.797 1054.018, 715.046 1054.224, 714.138 1053.887, 712.381 1054.996, 705.311 1055.192, 704.060 1055.269, 703.857 1056.771, 699.901 1056.847, 699.701 " fill="none" stroke="rgb(0, 0, 0)" stroke-linecap="butt" stroke-linejoin="round" stroke-opacity="1.0" stroke-width="3.0" />
            <path d=" M 740.311, 593.787 738.530, 593.978 738.446, 593.987 737.122, 594.129 737.103, 594.131 737.009, 594.142 735.406, 594.314 731.819, 597.325 731.372, 597.701 731.339, 597.743 731.266, 597.840 731.247, 597.866 730.721, 598.560 730.688, 598.604 730.678, 598.617 729.734, 599.864 729.526, 600.140 729.168, 600.612 728.167, 601.935 725.916, 603.187 725.630, 603.495 725.625, 603.501 721.541, 607.920 721.349, 608.128 720.556, 608.985 " fill="none" stroke="rgb(0, 0, 0)" stroke-linecap="butt" stroke-linejoin="round" stroke-opacity="1.0" stroke-width="3.0" />
            <path d=" M 625.592, 941.044 635.580, 941.549 637.317, 941.637 644.076, 942.755 650.175, 944.950 651.120, 945.290 " fill="none" stroke="rgb(0, 0, 0)" stroke-linecap="butt" stroke-linejoin="round" stroke-opacity="1.0" stroke-width="3.0" />
            <path d=" M 442.197, 752.668 443.094, 755.964 443.177, 756.272 443.657, 758.036 443.669, 758.081 443.921, 759.008 444.412, 760.256 444.412, 760.256 444.567, 760.651 444.794, 761.228 445.003, 761.762 445.045, 761.868 445.349, 762.643 445.386, 762.737 445.799, 763.788 447.162, 765.592 450.937, 769.914 451.733, 770.825 451.775, 770.874 451.932, 771.053 452.143, 771.261 453.199, 772.298 455.254, 772.836 456.241, 773.095 " fill="none" stroke="rgb(0, 0, 0)" stroke-linecap="butt" stroke-linejoin="round" stroke-opacity="1.0" stroke-width="3.0" />
            <path d=" M 780.080, 553.364 779.818, 552.668 779.685, 552.317 779.419, 551.612 778.067, 548.031 777.721, 547.577 777.648, 547.482 777.403, 547.162 777.365, 547.112 774.941, 543.940 773.067, 541.489 769.387, 537.388 769.171, 537.205 764.261, 533.065 " fill="none" stroke="rgb(0, 0, 0)" stroke-linecap="butt" stroke-linejoin="round" stroke-opacity="1.0" stroke-width="3.0" />
            <path d=" M 816.461, 525.307 814.366, 526.022 807.562, 532.903 800.178, 538.477 795.884, 541.261 " fill="none" stroke="rgb(0, 0, 0)" stroke-linecap="butt" stroke-linejoin="round" stroke-opacity="1.0" stroke-width="3.0" />
            <path d=" M 658.098, 680.269 659.800, 681.144 660.310, 681.406 660.982, 681.751 668.969, 685.858 671.436, 686.499 674.339, 686.853 682.126, 684.982 682.671, 684.851 " fill="none" stroke="rgb(0, 0, 0)" stroke-linecap="butt" stroke-linejoin="round" stroke-opacity="1.0" stroke-width="3.0" />
            <path d=" M 562.860, 693.930 560.328, 695.242 559.919, 695.410 556.391, 696.865 553.344, 698.827 553.113, 698.975 553.070, 699.004 553.035, 699.026 552.131, 699.608 548.409, 703.064 548.397, 703.076 547.888, 703.548 547.701, 703.722 547.682, 703.736 547.085, 704.196 546.039, 705.002 545.091, 705.733 544.300, 706.343 541.180, 708.746 " fill="none" stroke="rgb(0, 0, 0)" stroke-linecap="butt" stroke-linejoin="round" stroke-opacity="1.0" stroke-width="3.0" />
            <path d=" M 1066.323, 675.819 1065.218, 669.935 1063.925, 662.747 1061.091, 653.156 1060.128, 649.894 " fill="none" stroke="rgb(0, 0, 0)" stroke-linecap="butt" stroke-linejoin="round" stroke-opacity="1.0" stroke-width="3.0" />
            <path d=" M 944.772, 912.882 949.624, 911.281 951.732, 908.955 956.442, 901.468 956.328, 897.144 955.472, 893.925 953.648, 892.295 " fill="none" stroke="rgb(0, 0, 0)" stroke-linecap="butt" stroke-linejoin="round" stroke-opacity="1.0" stroke-width="3.0" />
            <path d=" M 703.118, 519.803 698.640, 524.871 696.373, 528.062 695.514, 530.018 695.507, 531.159 695.616, 532.557 696.008, 537.561 696.265, 538.577 696.436, 539.254 696.685, 539.740 696.923, 540.206 696.950, 540.259 697.284, 540.913 697.583, 541.500 697.614, 541.560 697.626, 541.584 697.634, 541.600 697.640, 541.608 697.652, 541.624 697.662, 541.636 698.060, 542.167 698.532, 542.795 698.653, 542.956 698.700, 543.019 698.804, 543.157 699.156, 543.625 " fill="none" stroke="rgb(0, 0, 0)" stroke-linecap="butt" stroke-linejoin="round" stroke-opacity="1.0" stroke-width="3.0" />
            <path d=" M 717.573, 474.335 714.836, 477.752 709.193, 484.748 707.968, 486.267 707.314, 488.676 707.169, 489.213 707.145, 489.300 707.009, 489.800 708.019, 491.972 709.113, 494.324 709.665, 494.867 710.041, 495.235 711.591, 496.757 " fill="none" stroke="rgb(0, 0, 0)" stroke-linecap="butt" stroke-linejoin="round" stroke-opacity="1.0" stroke-width="3.0" />
            <path d=" M 810.285, 595.285 808.379, 593.556 806.610, 592.403 803.938, 590.662 802.363, 587.970 802.045, 587.427 800.564, 584.897 799.344, 582.031 799.198, 581.689 799.115, 581.494 798.762, 580.663 798.534, 580.127 798.205, 579.787 798.135, 579.715 796.768, 578.302 794.912, 576.384 794.869, 576.339 794.760, 576.226 794.695, 576.159 794.516, 575.974 793.447, 574.870 793.142, 574.554 " fill="none" stroke="rgb(0, 0, 0)" stroke-linecap="butt" stroke-linejoin="round" stroke-opacity="1.0" stroke-width="3.0" />
            <path d=" M 806.001, 535.584 797.280, 540.478 795.884, 541.261 794.092, 542.267 793.853, 542.401 792.756, 543.017 790.215, 544.938 782.697, 550.253 " fill="none" stroke="rgb(0, 0, 0)" stroke-linecap="butt" stroke-linejoin="round" stroke-opacity="1.0" stroke-width="3.0" />
            <path d=" M 634.584, 826.531 636.443, 824.303 638.251, 820.237 639.507, 815.865 637.328, 813.849 633.918, 809.348 632.950, 809.158 631.109, 808.798 628.422, 808.887 626.915, 808.938 626.334, 808.957 " fill="none" stroke="rgb(0, 0, 0)" stroke-linecap="butt" stroke-linejoin="round" stroke-opacity="1.0" stroke-width="3.0" />
            <path d=" M 959.298, 875.400 962.537, 872.067 964.811, 869.728 966.883, 868.033 969.503, 866.292 974.842, 864.781 977.853, 861.289 979.850, 857.517 " fill="none" stroke="rgb(0, 0, 0)" stroke-linecap="butt" stroke-linejoin="round" stroke-opacity="1.0" stroke-width="3.0" />
            <path d=" M 529.363, 698.590 526.829, 699.830 526.764, 699.861 526.582, 699.950 526.417, 700.031 520.934, 702.712 519.159, 703.581 518.846, 703.734 518.792, 703.760 518.646, 703.831 517.562, 704.362 516.829, 704.720 516.678, 704.796 515.307, 705.483 513.723, 706.276 513.388, 706.444 509.486, 708.399 509.263, 708.511 508.953, 708.666 507.677, 709.305 506.960, 709.664 506.864, 709.712 504.213, 711.041 504.138, 711.078 504.118, 711.088 504.087, 711.104 503.666, 711.315 503.618, 711.339 " fill="none" stroke="rgb(0, 0, 0)" stroke-linecap="butt" stroke-linejoin="round" stroke-opacity="1.0" stroke-width="3.0" />
            <path d=" M 831.362, 613.340 826.563, 609.976 823.357, 607.753 818.223, 605.082 810.290, 598.993 807.742, 597.037 " fill="none" stroke="rgb(0, 0, 0)" stroke-linecap="butt" stroke-linejoin="round" stroke-opacity="1.0" stroke-width="3.0" />
            <path d=" M 885.212, 512.533 884.849, 512.515 884.764, 512.511 884.437, 512.496 882.812, 512.419 881.678, 512.366 880.736, 512.321 879.836, 512.279 879.655, 512.270 879.611, 512.268 879.497, 512.289 879.339, 512.319 877.541, 512.661 872.342, 513.648 872.034, 513.706 870.187, 514.057 867.808, 514.509 865.847, 514.938 863.843, 515.376 863.196, 515.518 856.538, 517.155 " fill="none" stroke="rgb(0, 0, 0)" stroke-linecap="butt" stroke-linejoin="round" stroke-opacity="1.0" stroke-width="3.0" />
            <path d=" M 1037.171, 753.797 1036.602, 749.862 1034.159, 740.165 1033.449, 737.345 1033.153, 731.572 1033.492, 727.991 1033.224, 725.034 1033.203, 724.807 " fill="none" stroke="rgb(0, 0, 0)" stroke-linecap="butt" stroke-linejoin="round" stroke-opacity="1.0" stroke-width="3.0" />
            <path d=" M 812.715, 597.624 811.792, 596.736 811.645, 596.594 810.285, 595.285 810.830, 596.293 810.905, 596.432 811.003, 596.613 812.488, 599.358 819.398, 605.295 827.690, 607.723 830.914, 609.754 " fill="none" stroke="rgb(0, 0, 0)" stroke-linecap="butt" stroke-linejoin="round" stroke-opacity="1.0" stroke-width="3.0" />
            <path d=" M 724.566, 665.692 720.202, 665.951 715.488, 665.514 712.776, 665.995 711.663, 666.227 708.974, 666.794 706.932, 673.130 709.313, 676.633 712.221, 677.721 " fill="none" stroke="rgb(0, 0, 0)" stroke-linecap="butt" stroke-linejoin="round" stroke-opacity="1.0" stroke-width="3.0" />
            <path d=" M 980.475, 542.212 979.384, 541.610 979.056, 541.322 977.978, 540.374 975.309, 538.028 974.426, 537.253 974.233, 537.082 972.402, 535.473 970.677, 533.957 970.665, 533.952 969.278, 533.300 966.614, 532.048 966.382, 531.939 966.352, 531.925 965.900, 531.713 965.173, 531.216 964.980, 531.085 963.539, 530.102 961.554, 528.748 956.176, 525.080 " fill="none" stroke="rgb(0, 0, 0)" stroke-linecap="butt" stroke-linejoin="round" stroke-opacity="1.0" stroke-width="3.0" />
            <path d=" M 974.647, 540.437 972.632, 539.086 972.094, 538.725 971.799, 538.527 971.303, 538.194 963.394, 532.890 963.373, 532.877 961.518, 531.719 958.320, 529.722 952.771, 526.258 949.181, 524.356 " fill="none" stroke="rgb(0, 0, 0)" stroke-linecap="butt" stroke-linejoin="round" stroke-opacity="1.0" stroke-width="3.0" />
            <path d=" M 741.160, 731.380 749.671, 733.907 752.281, 734.110 756.305, 733.363 760.485, 732.587 761.127, 732.557 764.146, 732.414 765.789, 732.337 769.209, 732.175 769.390, 732.104 769.413, 732.096 769.975, 731.874 770.260, 731.762 770.619, 731.621 770.747, 731.571 " fill="none" stroke="rgb(0, 0, 0)" stroke-linecap="butt" stroke-linejoin="round" stroke-opacity="1.0" stroke-width="3.0" />
            <path d=" M 993.579, 535.574 991.295, 532.946 986.177, 528.704 984.275, 527.297 980.749, 524.594 979.753, 524.669 976.434, 523.978 972.091, 522.233 971.729, 522.086 968.396, 521.426 967.663, 521.281 " fill="none" stroke="rgb(0, 0, 0)" stroke-linecap="butt" stroke-linejoin="round" stroke-opacity="1.0" stroke-width="3.0" />
            <path d=" M 673.433, 953.819 676.378, 956.902 677.294, 957.537 679.360, 958.968 688.755, 962.344 696.972, 963.009 697.453, 963.039 701.634, 962.758 " fill="none" stroke="rgb(0, 0, 0)" stroke-linecap="butt" stroke-linejoin="round" stroke-opacity="1.0" stroke-width="3.0" />
            <path d=" M 764.062, 826.388 761.473, 826.522 755.927, 826.268 752.960, 826.885 747.710, 826.396 743.705, 826.394 741.343, 826.380 735.459, 826.550 733.339, 826.612 " fill="none" stroke="rgb(0, 0, 0)" stroke-linecap="butt" stroke-linejoin="round" stroke-opacity="1.0" stroke-width="3.0" />
            <path d=" M 703.432, 644.520 702.683, 647.664 701.567, 652.347 700.457, 657.010 697.010, 666.397 694.214, 674.012 " fill="none" stroke="rgb(0, 0, 0)" stroke-linecap="butt" stroke-linejoin="round" stroke-opacity="1.0" stroke-width="3.0" />
            <path d=" M 601.570, 807.595 600.978, 801.865 598.283, 800.342 596.707, 800.259 595.202, 800.541 593.587, 801.837 592.594, 802.633 591.748, 803.312 589.783, 806.079 587.035, 809.950 584.435, 815.571 584.413, 816.453 " fill="none" stroke="rgb(0, 0, 0)" stroke-linecap="butt" stroke-linejoin="round" stroke-opacity="1.0" stroke-width="3.0" />
            <path d=" M 779.659, 800.352 777.049, 803.338 775.978, 804.992 771.784, 811.068 769.311, 815.577 764.622, 823.436 764.062, 826.388 763.875, 827.372 " fill="none" stroke="rgb(0, 0, 0)" stroke-linecap="butt" stroke-linejoin="round" stroke-opacity="1.0" stroke-width="3.0" />
            <path d=" M 1059.923, 731.942 1061.191, 725.662 1061.265, 721.100 1063.455, 715.010 1064.020, 710.732 1065.542, 705.580 1066.098, 704.669 1066.668, 703.732 1067.928, 701.665 " fill="none" stroke="rgb(0, 0, 0)" stroke-linecap="butt" stroke-linejoin="round" stroke-opacity="1.0" stroke-width="3.0" />
            <path d=" M 709.313, 676.633 712.053, 677.546 712.221, 677.721 714.446, 680.035 717.621, 683.655 718.004, 688.798 716.825, 693.270 719.657, 697.361 722.916, 698.536 723.694, 698.817 723.721, 698.827 724.686, 699.175 724.697, 699.179 725.381, 699.425 " fill="none" stroke="rgb(0, 0, 0)" stroke-linecap="butt" stroke-linejoin="round" stroke-opacity="1.0" stroke-width="3.0" />
            <path d=" M 451.396, 756.944 451.436, 757.191 452.176, 761.832 452.183, 761.880 452.508, 763.917 453.212, 766.393 453.482, 767.048 453.484, 767.052 454.395, 769.258 454.733, 770.078 454.745, 770.106 455.061, 770.872 455.185, 771.172 455.190, 771.184 455.194, 771.194 455.356, 771.587 455.445, 771.801 455.633, 772.256 455.862, 772.573 455.875, 772.591 455.923, 772.656 456.076, 772.868 456.135, 772.949 456.163, 772.987 456.241, 773.095 456.495, 773.446 457.934, 775.430 459.834, 777.328 461.052, 778.280 462.694, 779.563 463.658, 780.430 464.258, 780.970 464.933, 781.713 466.581, 783.530 467.131, 783.723 " fill="none" stroke="rgb(0, 0, 0)" stroke-linecap="butt" stroke-linejoin="round" stroke-opacity="1.0" stroke-width="3.0" />
            <path d=" M 800.595, 745.710 800.619, 745.697 800.714, 745.646 802.761, 744.553 803.898, 743.945 804.520, 743.930 813.519, 743.703 818.260, 744.781 824.912, 748.905 828.507, 752.555 829.632, 753.697 " fill="none" stroke="rgb(0, 0, 0)" stroke-linecap="butt" stroke-linejoin="round" stroke-opacity="1.0" stroke-width="3.0" />
            <path d=" M 511.198, 805.041 512.259, 804.564 513.090, 803.842 515.785, 801.743 520.336, 797.306 525.263, 795.352 531.039, 789.904 534.114, 787.194 535.227, 785.836 536.964, 783.716 " fill="none" stroke="rgb(0, 0, 0)" stroke-linecap="butt" stroke-linejoin="round" stroke-opacity="1.0" stroke-width="3.0" />
            <path d=" M 572.375, 777.717 572.340, 777.446 572.181, 776.215 571.352, 775.929 569.348, 775.473 563.457, 777.022 559.339, 777.900 555.495, 778.721 549.585, 780.846 545.054, 784.023 543.374, 784.354 541.714, 783.837 " fill="none" stroke="rgb(0, 0, 0)" stroke-linecap="butt" stroke-linejoin="round" stroke-opacity="1.0" stroke-width="3.0" />
            <path d=" M 1014.267, 692.974 1013.869, 692.817 1012.320, 692.209 1012.314, 692.205 1009.320, 690.075 1006.739, 688.317 1001.177, 685.794 999.252, 684.450 995.871, 682.730 992.633, 681.455 991.865, 680.986 988.029, 678.645 985.488, 677.095 985.080, 676.846 984.675, 676.598 " fill="none" stroke="rgb(0, 0, 0)" stroke-linecap="butt" stroke-linejoin="round" stroke-opacity="1.0" stroke-width="3.0" />
            <path d=" M 574.042, 783.975 573.807, 782.644 572.892, 781.643 572.007, 780.676 568.855, 781.275 568.094, 781.488 564.128, 784.732 558.672, 790.091 553.779, 793.756 552.365, 793.640 548.657, 792.835 548.072, 792.708 546.531, 790.770 " fill="none" stroke="rgb(0, 0, 0)" stroke-linecap="butt" stroke-linejoin="round" stroke-opacity="1.0" stroke-width="3.0" />
            <path d=" M 529.187, 689.429 529.400, 688.285 527.297, 686.552 524.330, 687.184 519.357, 688.243 513.736, 690.548 512.378, 691.105 509.965, 692.094 507.298, 694.680 504.288, 700.686 502.389, 702.555 " fill="none" stroke="rgb(0, 0, 0)" stroke-linecap="butt" stroke-linejoin="round" stroke-opacity="1.0" stroke-width="3.0" />
            <path d=" M 778.459, 574.515 777.178, 577.464 777.158, 577.511 777.057, 577.742 776.852, 578.216 776.821, 578.431 776.732, 579.049 776.697, 579.290 776.573, 580.155 776.500, 580.665 776.507, 580.977 776.555, 582.928 776.574, 583.678 775.216, 585.815 774.513, 586.923 768.650, 590.249 767.392, 592.120 765.773, 594.524 765.701, 594.848 765.419, 596.112 765.268, 596.790 765.083, 597.621 763.378, 604.358 " fill="none" stroke="rgb(0, 0, 0)" stroke-linecap="butt" stroke-linejoin="round" stroke-opacity="1.0" stroke-width="3.0" />
            <path d=" M 813.637, 692.568 813.283, 691.886 813.025, 691.391 812.460, 691.372 805.896, 691.159 805.053, 691.131 805.021, 691.130 804.513, 691.114 804.502, 691.113 804.261, 691.105 803.630, 691.085 796.967, 694.394 795.251, 695.288 795.215, 695.307 792.926, 696.500 792.912, 696.508 792.362, 696.794 790.793, 697.612 789.040, 699.647 788.170, 700.658 787.323, 701.641 785.045, 706.012 784.966, 706.164 " fill="none" stroke="rgb(0, 0, 0)" stroke-linecap="butt" stroke-linejoin="round" stroke-opacity="1.0" stroke-width="3.0" />
            <path d=" M 759.330, 477.319 763.045, 475.424 765.273, 474.288 765.671, 474.085 767.086, 473.592 771.032, 472.219 774.954, 471.186 778.650, 471.004 784.661, 469.941 786.170, 469.674 786.691, 469.655 793.515, 469.400 793.814, 469.235 " fill="none" stroke="rgb(0, 0, 0)" stroke-linecap="butt" stroke-linejoin="round" stroke-opacity="1.0" stroke-width="3.0" />
            <path d=" M 741.215, 934.075 737.872, 931.895 732.564, 930.797 723.409, 931.518 719.303, 932.273 712.855, 931.583 710.337, 930.533 707.865, 928.622 706.741, 927.753 " fill="none" stroke="rgb(0, 0, 0)" stroke-linecap="butt" stroke-linejoin="round" stroke-opacity="1.0" stroke-width="3.0" />
            <path d=" M 723.910, 699.785 724.138, 700.810 724.222, 700.976 729.566, 706.923 732.607, 708.719 737.656, 710.531 741.693, 709.965 742.459, 709.858 746.852, 708.709 748.049, 708.396 748.760, 708.488 750.769, 708.747 750.987, 708.775 751.051, 708.784 751.919, 708.896 753.343, 708.842 755.125, 708.774 755.809, 708.748 " fill="none" stroke="rgb(0, 0, 0)" stroke-linecap="butt" stroke-linejoin="round" stroke-opacity="1.0" stroke-width="3.0" />
            <path d=" M 628.422, 808.887 628.236, 807.854 627.560, 804.099 626.474, 800.777 624.872, 799.762 620.460, 801.163 617.665, 804.584 613.736, 811.296 613.542, 811.785 612.689, 813.938 611.987, 815.708 609.797, 818.001 608.863, 819.389 " fill="none" stroke="rgb(0, 0, 0)" stroke-linecap="butt" stroke-linejoin="round" stroke-opacity="1.0" stroke-width="3.0" />
            <path d=" M 524.191, 905.072 521.471, 908.576 520.852, 909.373 520.085, 913.686 519.972, 915.175 519.424, 918.067 518.754, 924.530 519.690, 930.744 519.342, 926.817 520.169, 921.102 " fill="none" stroke="rgb(0, 0, 0)" stroke-linecap="butt" stroke-linejoin="round" stroke-opacity="1.0" stroke-width="3.0" />
            <path d=" M 591.503, 948.583 597.020, 947.036 600.245, 946.131 606.992, 945.314 613.554, 943.251 619.917, 943.345 625.592, 941.044 627.131, 940.420 " fill="none" stroke="rgb(0, 0, 0)" stroke-linecap="butt" stroke-linejoin="round" stroke-opacity="1.0" stroke-width="3.0" />
            <path d=" M 871.349, 894.597 873.952, 893.386 876.930, 891.999 885.399, 888.857 893.913, 887.727 894.441, 887.657 894.977, 887.404 895.217, 887.291 895.326, 887.240 898.288, 885.847 898.461, 885.735 898.920, 885.436 899.130, 885.300 900.364, 884.499 904.280, 881.954 905.759, 880.993 " fill="none" stroke="rgb(0, 0, 0)" stroke-linecap="butt" stroke-linejoin="round" stroke-opacity="1.0" stroke-width="3.0" />
            <path d=" M 591.427, 800.493 591.259, 797.044 591.216, 796.163 590.281, 793.132 586.438, 793.796 581.460, 797.411 581.068, 797.696 580.309, 798.096 580.280, 798.111 576.526, 800.091 575.752, 800.975 570.715, 806.728 568.389, 807.780 564.545, 806.613 564.172, 806.500 " fill="none" stroke="rgb(0, 0, 0)" stroke-linecap="butt" stroke-linejoin="round" stroke-opacity="1.0" stroke-width="3.0" />
            <path d=" M 480.241, 701.886 476.589, 704.292 472.744, 706.826 470.454, 708.202 470.393, 708.238 465.845, 711.205 465.023, 711.836 464.874, 711.951 460.631, 715.207 460.485, 715.306 454.906, 719.077 454.022, 719.674 449.894, 723.488 448.724, 725.256 " fill="none" stroke="rgb(0, 0, 0)" stroke-linecap="butt" stroke-linejoin="round" stroke-opacity="1.0" stroke-width="3.0" />
            <path d=" M 1059.013, 729.668 1059.178, 726.272 1059.181, 726.205 1059.321, 722.928 1059.356, 722.129 1061.978, 716.004 1061.571, 713.791 1061.383, 712.768 1061.372, 712.290 1061.268, 708.008 1061.443, 704.348 1061.457, 704.045 1062.702, 700.816 1065.953, 697.103 1070.903, 695.227 " fill="none" stroke="rgb(0, 0, 0)" stroke-linecap="butt" stroke-linejoin="round" stroke-opacity="1.0" stroke-width="3.0" />
            <path d=" M 873.289, 913.222 873.808, 913.157 882.779, 912.029 892.779, 911.968 895.665, 911.951 904.871, 908.048 905.299, 907.866 909.571, 906.482 912.284, 906.120 " fill="none" stroke="rgb(0, 0, 0)" stroke-linecap="butt" stroke-linejoin="round" stroke-opacity="1.0" stroke-width="3.0" />
            <path d=" M 559.176, 953.939 560.114, 954.333 564.357, 956.115 568.010, 955.870 574.330, 956.423 579.935, 955.105 582.295, 953.879 586.528, 952.629 592.691, 949.388 597.020, 947.036 " fill="none" stroke="rgb(0, 0, 0)" stroke-linecap="butt" stroke-linejoin="round" stroke-opacity="1.0" stroke-width="3.0" />
            <path d=" M 715.248, 499.870 715.714, 501.913 715.766, 502.142 715.961, 502.995 716.098, 503.595 716.431, 505.055 716.897, 505.961 718.223, 508.538 718.512, 514.144 717.433, 517.593 717.002, 519.051 717.000, 519.060 716.775, 519.820 716.350, 521.256 714.399, 525.192 712.637, 528.746 712.490, 529.041 712.457, 529.108 712.127, 529.775 709.863, 533.512 709.842, 533.547 709.701, 533.779 709.341, 534.374 709.276, 534.482 707.127, 538.030 " fill="none" stroke="rgb(0, 0, 0)" stroke-linecap="butt" stroke-linejoin="round" stroke-opacity="1.0" stroke-width="3.0" />
            <path d=" M 675.652, 630.831 676.311, 629.931 680.479, 623.783 683.893, 619.435 687.030, 612.497 691.626, 603.615 693.902, 599.217 695.893, 594.835 " fill="none" stroke="rgb(0, 0, 0)" stroke-linecap="butt" stroke-linejoin="round" stroke-opacity="1.0" stroke-width="3.0" />
            <path d=" M 906.522, 880.592 911.101, 878.567 911.410, 878.560 918.701, 878.398 920.281, 877.833 920.383, 877.797 920.908, 877.609 921.000, 877.576 921.028, 877.566 921.118, 877.534 927.891, 875.112 931.904, 873.323 934.759, 872.708 934.845, 872.690 934.914, 872.675 936.622, 872.308 938.554, 871.892 938.871, 872.056 938.974, 872.109 942.572, 873.975 943.899, 874.663 946.459, 875.990 " fill="none" stroke="rgb(0, 0, 0)" stroke-linecap="butt" stroke-linejoin="round" stroke-opacity="1.0" stroke-width="3.0" />
            <path d=" M 830.364, 750.007 830.160, 750.523 829.890, 751.208 829.664, 751.781 829.522, 752.144 829.293, 752.724 829.632, 753.697 829.897, 754.456 830.475, 756.113 831.461, 757.836 834.874, 764.011 836.450, 768.906 836.483, 769.009 836.489, 769.027 836.773, 769.910 837.234, 770.823 837.249, 770.854 837.977, 772.296 838.592, 773.515 844.214, 778.393 845.152, 779.030 845.296, 779.127 845.583, 779.322 850.192, 782.446 851.940, 783.631 " fill="none" stroke="rgb(0, 0, 0)" stroke-linecap="butt" stroke-linejoin="round" stroke-opacity="1.0" stroke-width="3.0" />
            <path d=" M 519.690, 930.744 520.301, 932.961 521.718, 935.645 522.664, 937.600 524.307, 939.526 527.500, 941.962 531.114, 945.664 536.789, 948.419 540.348, 950.531 545.004, 952.420 548.484, 954.266 552.671, 953.496 " fill="none" stroke="rgb(0, 0, 0)" stroke-linecap="butt" stroke-linejoin="round" stroke-opacity="1.0" stroke-width="3.0" />
            <path d=" M 1031.047, 583.023 1031.069, 582.149 1030.422, 578.505 1026.995, 573.759 1025.814, 570.993 1024.425, 567.869 1022.845, 565.043 1020.726, 560.086 1018.824, 556.108 1016.410, 553.457 1012.066, 548.455 1010.739, 547.402 1009.323, 546.276 " fill="none" stroke="rgb(0, 0, 0)" stroke-linecap="butt" stroke-linejoin="round" stroke-opacity="1.0" stroke-width="3.0" />
            <path d=" M 693.099, 563.004 692.433, 563.459 691.799, 563.893 691.745, 563.930 691.703, 563.959 691.697, 563.963 691.497, 564.099 691.464, 564.122 691.357, 564.195 691.345, 564.203 691.002, 564.438 690.997, 564.442 689.929, 565.172 688.837, 565.919 688.822, 565.929 688.807, 565.939 687.884, 566.549 685.561, 568.084 681.980, 570.306 680.854, 571.004 680.454, 571.252 680.174, 571.426 678.879, 572.230 678.786, 572.287 678.712, 572.333 677.469, 573.201 674.969, 574.946 674.574, 575.222 672.954, 576.353 665.398, 581.860 661.597, 584.866 657.194, 588.287 " fill="none" stroke="rgb(0, 0, 0)" stroke-linecap="butt" stroke-linejoin="round" stroke-opacity="1.0" stroke-width="3.0" />
            <path d=" M 585.546, 674.915 581.723, 674.062 578.735, 675.746 576.054, 678.453 571.738, 682.810 568.694, 686.148 568.556, 686.299 566.969, 688.039 563.314, 693.203 562.860, 693.930 561.429, 696.223 561.259, 696.495 561.017, 696.883 560.904, 697.065 559.561, 700.905 559.105, 702.209 558.561, 704.228 558.486, 704.506 558.167, 705.692 " fill="none" stroke="rgb(0, 0, 0)" stroke-linecap="butt" stroke-linejoin="round" stroke-opacity="1.0" stroke-width="3.0" />
            <path d=" M 765.701, 594.848 763.790, 594.956 759.497, 594.369 758.850, 594.419 756.416, 594.604 756.296, 594.614 756.105, 594.628 756.098, 594.629 756.039, 594.633 755.841, 594.648 753.293, 595.021 753.095, 595.049 753.093, 595.050 753.021, 595.060 752.896, 595.078 752.893, 595.079 752.235, 595.175 752.204, 595.180 752.066, 595.200 752.051, 595.202 751.621, 595.265 751.461, 595.288 751.262, 595.317 750.728, 595.395 749.700, 596.045 748.970, 596.507 745.254, 598.857 744.804, 599.141 742.639, 600.511 742.071, 600.870 738.710, 602.879 738.253, 603.152 737.172, 603.797 736.957, 603.891 736.363, 604.148 735.843, 604.373 735.792, 604.395 735.792, 604.395 735.442, 604.547 735.396, 604.567 735.182, 604.659 734.739, 604.852 734.721, 604.859 734.494, 604.957 733.943, 605.196 733.722, 605.292 733.057, 605.580 726.948, 608.227 726.656, 608.353 726.018, 608.629 725.915, 608.674 725.755, 608.743 724.862, 609.130 " fill="none" stroke="rgb(0, 0, 0)" stroke-linecap="butt" stroke-linejoin="round" stroke-opacity="1.0" stroke-width="3.0" />
            <path d=" M 524.330, 687.184 521.954, 685.113 516.914, 686.837 516.529, 686.969 515.192, 687.151 511.040, 687.717 508.526, 687.508 507.964, 687.461 507.872, 687.456 506.567, 687.383 502.118, 689.376 501.300, 690.250 499.844, 691.807 499.371, 692.312 499.323, 692.386 499.088, 692.742 497.824, 694.659 496.329, 697.021 495.482, 698.357 495.314, 698.623 495.069, 699.011 494.911, 699.259 494.899, 699.268 494.836, 699.316 494.793, 699.348 494.767, 699.368 494.690, 699.427 493.153, 700.595 493.069, 700.659 492.473, 700.832 490.729, 701.337 490.568, 701.394 490.175, 701.534 490.136, 701.548 490.069, 701.572 490.004, 701.595 489.706, 701.701 489.452, 701.792 489.442, 701.795 487.332, 702.546 487.324, 702.549 487.309, 702.555 486.949, 702.682 " fill="none" stroke="rgb(0, 0, 0)" stroke-linecap="butt" stroke-linejoin="round" stroke-opacity="1.0" stroke-width="3.0" />
            <path d=" M 715.894, 611.682 711.211, 610.048 708.865, 611.312 708.471, 611.524 707.081, 612.871 705.939, 621.651 705.752, 627.961 703.731, 633.839 703.610, 635.512 703.601, 635.951 703.503, 640.749 703.411, 641.529 702.683, 647.664 " fill="none" stroke="rgb(0, 0, 0)" stroke-linecap="butt" stroke-linejoin="round" stroke-opacity="1.0" stroke-width="3.0" />
            <path d=" M 947.671, 517.125 940.145, 513.388 939.109, 512.515 939.061, 512.475 937.929, 511.521 931.955, 510.839 927.331, 510.196 920.415, 509.260 913.202, 508.832 913.117, 508.827 912.542, 508.793 911.502, 508.829 905.842, 509.024 905.451, 509.038 903.682, 509.232 " fill="none" stroke="rgb(0, 0, 0)" stroke-linecap="butt" stroke-linejoin="round" stroke-opacity="1.0" stroke-width="3.0" />
            <path d=" M 768.802, 775.408 770.882, 775.034 772.432, 774.755 772.810, 774.687 775.076, 774.280 775.792, 774.151 779.484, 773.171 783.863, 769.796 787.661, 766.590 791.445, 761.006 791.892, 760.199 792.020, 759.968 794.748, 755.043 795.334, 753.984 795.350, 753.956 796.538, 751.810 796.795, 751.347 797.257, 750.512 797.469, 750.131 799.034, 747.865 800.039, 746.410 800.452, 745.813 " fill="none" stroke="rgb(0, 0, 0)" stroke-linecap="butt" stroke-linejoin="round" stroke-opacity="1.0" stroke-width="3.0" />
            <path d=" M 516.914, 686.837 517.175, 686.532 517.133, 684.729 515.463, 681.471 514.816, 680.992 510.456, 681.852 510.427, 681.858 509.838, 682.098 506.614, 683.412 504.539, 684.156 504.467, 684.182 501.274, 685.326 499.996, 685.784 496.271, 688.442 494.069, 690.367 493.256, 691.641 493.127, 691.845 493.068, 691.937 492.822, 692.321 491.860, 693.830 489.699, 697.217 489.353, 697.333 489.148, 697.402 489.148, 697.402 489.146, 697.403 488.466, 697.631 488.432, 697.643 488.401, 697.653 488.381, 697.660 488.271, 697.697 488.178, 697.728 487.668, 697.900 487.020, 698.117 486.701, 698.306 482.095, 701.026 " fill="none" stroke="rgb(0, 0, 0)" stroke-linecap="butt" stroke-linejoin="round" stroke-opacity="1.0" stroke-width="3.0" />
            <path d=" M 904.388, 904.717 904.908, 904.772 905.723, 904.858 911.382, 905.456 912.284, 906.120 916.233, 909.028 921.985, 912.535 926.042, 913.570 935.188, 915.365 940.895, 915.214 944.772, 912.882 947.660, 911.144 " fill="none" stroke="rgb(0, 0, 0)" stroke-linecap="butt" stroke-linejoin="round" stroke-opacity="1.0" stroke-width="3.0" />
            <path d=" M 535.227, 785.836 539.071, 783.379 539.652, 783.007 539.719, 782.936 539.727, 782.927 539.741, 782.912 542.904, 779.539 547.727, 775.422 554.963, 770.499 559.813, 767.044 560.413, 766.047 562.561, 762.481 563.562, 757.691 564.835, 754.507 565.988, 751.622 " fill="none" stroke="rgb(0, 0, 0)" stroke-linecap="butt" stroke-linejoin="round" stroke-opacity="1.0" stroke-width="3.0" />
            <path d=" M 708.019, 491.972 707.216, 494.434 706.818, 496.761 706.879, 497.502 707.212, 501.514 710.352, 505.785 710.429, 505.889 710.511, 506.001 710.249, 515.002 709.918, 516.174 709.870, 516.345 708.715, 520.442 706.756, 524.502 703.173, 529.317 701.326, 530.918 700.491, 531.641 700.134, 533.290 700.110, 534.306 700.109, 534.347 700.082, 535.457 " fill="none" stroke="rgb(0, 0, 0)" stroke-linecap="butt" stroke-linejoin="round" stroke-opacity="1.0" stroke-width="3.0" />
            <path d=" M 735.459, 826.550 731.196, 826.153 725.512, 826.071 719.392, 826.135 713.763, 825.675 705.952, 825.093 702.255, 824.672 694.571, 824.388 686.704, 825.280 " fill="none" stroke="rgb(0, 0, 0)" stroke-linecap="butt" stroke-linejoin="round" stroke-opacity="1.0" stroke-width="3.0" />
            <path d=" M 510.456, 681.852 510.791, 680.240 505.938, 680.230 503.075, 681.357 502.570, 681.667 502.534, 681.689 502.466, 681.731 497.467, 684.797 492.919, 689.010 492.391, 689.949 492.196, 690.296 491.037, 692.354 490.822, 692.736 489.737, 694.664 489.708, 694.716 489.746, 694.660 490.941, 692.878 490.948, 692.869 492.207, 690.993 492.624, 690.370 493.020, 689.780 494.721, 687.587 497.425, 685.629 501.387, 683.892 501.715, 683.812 501.747, 683.804 501.807, 683.789 503.852, 683.286 504.539, 684.156 " fill="none" stroke="rgb(0, 0, 0)" stroke-linecap="butt" stroke-linejoin="round" stroke-opacity="1.0" stroke-width="3.0" />
            <path d=" M 482.833, 821.987 482.950, 822.318 483.345, 823.434 484.941, 828.199 485.668, 830.559 487.318, 834.248 489.229, 838.077 491.178, 842.670 493.435, 847.939 494.894, 850.712 498.339, 855.750 500.214, 860.368 503.343, 865.294 504.038, 865.970 " fill="none" stroke="rgb(0, 0, 0)" stroke-linecap="butt" stroke-linejoin="round" stroke-opacity="1.0" stroke-width="3.0" />
            <path d=" M 877.261, 644.624 878.608, 645.220 879.026, 645.405 879.054, 645.418 881.102, 646.324 881.413, 646.462 882.973, 647.153 886.759, 648.735 888.667, 649.533 892.596, 651.705 894.913, 652.986 902.915, 653.868 912.048, 657.087 912.340, 657.225 921.391, 661.508 924.735, 663.262 " fill="none" stroke="rgb(0, 0, 0)" stroke-linecap="butt" stroke-linejoin="round" stroke-opacity="1.0" stroke-width="3.0" />
            <path d=" M 902.042, 510.433 902.403, 510.436 902.473, 510.437 902.857, 510.440 903.759, 510.448 908.496, 510.488 912.809, 510.525 915.691, 511.084 918.035, 511.539 924.986, 513.021 928.445, 513.758 928.736, 513.820 931.474, 514.661 931.620, 514.706 934.832, 515.692 935.521, 515.904 943.170, 518.253 937.829, 516.644 936.799, 516.493 936.666, 516.474 934.601, 516.172 933.477, 516.008 " fill="none" stroke="rgb(0, 0, 0)" stroke-linecap="butt" stroke-linejoin="round" stroke-opacity="1.0" stroke-width="3.0" />
            <path d=" M 688.367, 825.279 686.704, 825.280 683.925, 825.280 679.328, 826.181 675.117, 827.451 668.588, 827.691 661.562, 829.721 651.600, 830.590 649.586, 830.766 642.334, 830.697 641.688, 830.691 635.489, 829.102 " fill="none" stroke="rgb(0, 0, 0)" stroke-linecap="butt" stroke-linejoin="round" stroke-opacity="1.0" stroke-width="3.0" />
            <path d=" M 851.528, 784.137 852.599, 786.865 852.828, 787.448 854.033, 790.519 855.779, 794.968 859.417, 800.474 860.297, 804.404 860.114, 814.402 859.996, 820.892 860.080, 824.156 860.085, 824.346 860.182, 828.066 860.240, 830.307 860.775, 832.010 861.744, 834.414 862.276, 834.823 863.194, 835.531 " fill="none" stroke="rgb(0, 0, 0)" stroke-linecap="butt" stroke-linejoin="round" stroke-opacity="1.0" stroke-width="3.0" />
            <path d=" M 1040.829, 624.611 1042.342, 616.444 1042.045, 613.683 1041.520, 607.787 1041.518, 607.767 1041.484, 607.391 1041.444, 606.094 1041.423, 605.414 1041.414, 605.116 1041.411, 605.003 1041.409, 604.962 1041.399, 604.625 1041.398, 604.610 1041.363, 603.476 1040.749, 598.843 1037.929, 592.911 1034.570, 588.886 1031.677, 583.788 1031.047, 583.023 1029.099, 580.658 1026.995, 573.759 " fill="none" stroke="rgb(0, 0, 0)" stroke-linecap="butt" stroke-linejoin="round" stroke-opacity="1.0" stroke-width="3.0" />
            <path d=" M 769.171, 537.205 764.648, 532.058 763.918, 530.948 761.659, 527.513 760.691, 525.447 758.822, 521.457 758.745, 521.301 758.733, 521.276 758.637, 521.082 758.600, 521.006 758.456, 520.715 758.451, 520.705 758.339, 520.477 758.334, 520.467 758.214, 520.225 757.627, 519.033 757.623, 519.026 756.392, 516.528 755.541, 514.909 754.506, 512.940 752.226, 506.220 750.663, 501.407 749.629, 497.400 749.534, 497.032 748.059, 489.281 747.827, 488.060 747.805, 487.947 747.788, 487.859 747.651, 487.140 " fill="none" stroke="rgb(0, 0, 0)" stroke-linecap="butt" stroke-linejoin="round" stroke-opacity="1.0" stroke-width="3.0" />
            <path d=" M 843.579, 874.623 851.144, 873.847 858.574, 873.084 860.413, 872.565 866.082, 870.962 866.126, 870.950 867.650, 870.519 869.574, 869.975 878.444, 865.358 879.534, 864.790 879.612, 864.750 881.491, 863.772 884.380, 861.067 884.513, 860.942 884.576, 860.882 884.721, 860.747 885.702, 859.743 886.209, 859.224 886.757, 858.662 887.951, 857.440 888.676, 856.698 888.679, 856.694 888.761, 856.611 888.965, 856.402 891.001, 854.318 890.783, 853.133 890.288, 850.437 " fill="none" stroke="rgb(0, 0, 0)" stroke-linecap="butt" stroke-linejoin="round" stroke-opacity="1.0" stroke-width="3.0" />
            <path d=" M 615.615, 709.478 613.878, 710.499 613.078, 710.968 609.734, 712.990 609.606, 713.067 609.505, 713.129 607.502, 714.340 605.108, 715.787 601.048, 718.366 598.940, 719.541 597.810, 719.733 595.374, 720.146 595.105, 720.192 594.504, 720.294 591.518, 721.484 588.811, 724.295 586.639, 729.531 586.381, 731.967 586.368, 732.094 586.360, 732.172 585.380, 733.882 585.214, 734.607 584.125, 736.914 587.042, 731.963 590.814, 727.399 592.906, 724.868 " fill="none" stroke="rgb(0, 0, 0)" stroke-linecap="butt" stroke-linejoin="round" stroke-opacity="1.0" stroke-width="3.0" />
            <path d=" M 570.620, 674.945 562.620, 679.345 553.996, 684.407 545.249, 689.541 538.990, 693.070 536.437, 694.509 535.559, 695.004 535.336, 695.134 535.307, 695.150 535.145, 695.244 531.201, 697.526 530.804, 697.756 529.878, 698.292 529.667, 698.414 529.649, 698.425 529.403, 698.567 529.363, 698.590 526.926, 700.000 526.854, 700.042 526.659, 700.155 526.456, 700.273 524.082, 701.646 522.182, 702.819 520.848, 703.641 520.819, 703.659 519.762, 704.311 518.834, 704.884 518.217, 705.264 " fill="none" stroke="rgb(0, 0, 0)" stroke-linecap="butt" stroke-linejoin="round" stroke-opacity="1.0" stroke-width="3.0" />
            <path d=" M 695.616, 532.557 695.012, 532.730 690.677, 534.166 682.684, 537.360 677.812, 539.465 673.515, 541.961 664.584, 546.458 661.334, 548.095 659.608, 550.092 659.864, 551.259 665.195, 550.374 669.891, 548.744 671.931, 548.747 679.287, 547.409 " fill="none" stroke="rgb(0, 0, 0)" stroke-linecap="butt" stroke-linejoin="round" stroke-opacity="1.0" stroke-width="3.0" />
            <path d=" M 1058.698, 761.784 1059.800, 758.481 1059.843, 758.276 1061.357, 750.954 1061.897, 748.857 1062.120, 746.657 1062.350, 744.395 1062.763, 743.358 1062.825, 743.201 1062.911, 742.987 1063.978, 740.308 1063.992, 740.273 1064.911, 736.851 1065.094, 736.167 1065.274, 730.895 1065.411, 726.892 1065.540, 721.904 1065.685, 716.332 1065.691, 716.246 1065.719, 715.779 1065.837, 713.799 1067.397, 708.966 1067.557, 708.474 1067.703, 708.019 1068.250, 706.325 1068.253, 706.315 1068.327, 706.086 1068.527, 705.468 1068.550, 705.396 1068.473, 705.507 1067.848, 706.404 1067.808, 706.461 1067.793, 706.483 1066.689, 708.067 1066.042, 708.996 1065.899, 709.202 " fill="none" stroke="rgb(0, 0, 0)" stroke-linecap="butt" stroke-linejoin="round" stroke-opacity="1.0" stroke-width="3.0" />
            <path d=" M 906.926, 485.704 907.235, 483.525 906.562, 479.094 905.055, 475.599 902.343, 472.037 898.764, 469.775 893.817, 467.377 890.400, 466.581 887.197, 465.901 885.150, 465.840 881.293, 465.522 879.530, 465.487 876.761, 466.875 874.203, 469.165 873.371, 470.352 873.030, 471.536 872.642, 472.929 874.419, 478.810 874.730, 479.839 874.744, 481.461 874.798, 487.748 " fill="none" stroke="rgb(0, 0, 0)" stroke-linecap="butt" stroke-linejoin="round" stroke-opacity="1.0" stroke-width="3.0" />
            <path d=" M 771.853, 788.887 773.972, 791.081 778.719, 798.211 779.741, 799.747 779.874, 800.107 781.568, 804.697 783.809, 810.769 785.033, 818.732 786.191, 820.672 786.922, 824.098 787.482, 826.672 788.964, 833.483 790.376, 835.866 792.593, 839.932 794.713, 843.707 795.190, 844.557 795.622, 845.328 798.395, 848.149 " fill="none" stroke="rgb(0, 0, 0)" stroke-linecap="butt" stroke-linejoin="round" stroke-opacity="1.0" stroke-width="3.0" />
            <path d=" M 797.230, 846.641 798.395, 848.149 800.376, 850.712 807.076, 857.219 807.776, 857.899 807.783, 857.906 807.868, 857.988 808.902, 858.992 816.803, 864.339 825.173, 869.810 827.069, 871.049 832.620, 873.192 833.039, 873.275 838.553, 874.366 842.682, 874.789 843.579, 874.623 852.077, 873.048 854.369, 872.624 " fill="none" stroke="rgb(0, 0, 0)" stroke-linecap="butt" stroke-linejoin="round" stroke-opacity="1.0" stroke-width="3.0" />
            <path d=" M 782.946, 642.424 782.252, 642.727 781.925, 642.870 781.750, 642.946 781.511, 643.051 778.644, 644.303 777.198, 644.935 775.085, 645.859 772.988, 646.775 772.214, 647.113 771.663, 647.354 770.783, 647.738 768.683, 648.710 766.289, 649.817 765.814, 650.036 765.622, 650.125 765.062, 650.384 764.631, 650.583 764.091, 650.833 764.021, 650.865 763.932, 650.906 763.890, 650.926 763.757, 650.987 763.699, 651.014 763.540, 651.088 762.979, 651.513 761.955, 652.290 761.780, 652.422 761.775, 652.427 761.175, 652.882 761.166, 652.888 761.133, 652.914 761.121, 652.923 760.856, 653.124 760.810, 653.159 760.800, 653.166 760.653, 653.278 760.130, 653.675 758.336, 655.035 754.358, 657.302 754.002, 657.505 751.875, 658.718 748.129, 660.959 746.848, 661.726 739.022, 665.514 737.745, 665.535 737.513, 665.538 737.270, 665.542 736.612, 665.553 734.182, 665.591 725.926, 665.375 724.566, 665.692 721.350, 666.441 " fill="none" stroke="rgb(0, 0, 0)" stroke-linecap="butt" stroke-linejoin="round" stroke-opacity="1.0" stroke-width="3.0" />
            <path d=" M 614.565, 713.271 617.561, 712.272 619.968, 710.140 625.511, 706.742 632.320, 701.539 634.187, 698.604 637.226, 693.708 637.984, 689.476 637.482, 688.249 635.654, 685.667 633.732, 682.954 631.864, 681.701 624.897, 678.807 618.984, 678.602 615.974, 679.117 614.413, 679.502 611.461, 680.232 611.451, 680.234 608.305, 681.012 607.974, 681.094 " fill="none" stroke="rgb(0, 0, 0)" stroke-linecap="butt" stroke-linejoin="round" stroke-opacity="1.0" stroke-width="3.0" />
            <path d=" M 1033.862, 809.244 1034.823, 808.207 1038.479, 804.263 1040.949, 801.599 1042.338, 800.100 1044.908, 796.000 1050.035, 787.415 1051.645, 784.717 1053.548, 779.972 1057.772, 770.908 1058.106, 770.190 1059.997, 764.508 1061.523, 757.781 1062.931, 747.958 1063.093, 746.827 " fill="none" stroke="rgb(0, 0, 0)" stroke-linecap="butt" stroke-linejoin="round" stroke-opacity="1.0" stroke-width="3.0" />
            <path d=" M 823.084, 895.915 821.540, 898.104 818.944, 900.785 819.468, 902.723 819.550, 902.836 821.071, 904.922 822.641, 906.285 823.450, 906.988 825.092, 908.414 826.096, 909.286 826.249, 909.420 827.734, 910.709 831.277, 913.519 834.889, 913.943 842.863, 912.118 851.968, 907.831 853.162, 907.270 860.918, 902.841 865.222, 899.534 866.252, 898.742 867.443, 897.827 871.349, 894.597 872.318, 893.796 " fill="none" stroke="rgb(0, 0, 0)" stroke-linecap="butt" stroke-linejoin="round" stroke-opacity="1.0" stroke-width="3.0" />
            <path d=" M 777.975, 444.736 775.611, 443.562 773.245, 443.049 767.997, 442.195 763.614, 442.372 753.942, 444.913 749.704, 446.026 746.612, 447.404 739.228, 450.705 733.128, 454.216 727.121, 457.917 722.202, 463.130 721.750, 463.609 719.248, 467.366 716.715, 471.194 " fill="none" stroke="rgb(0, 0, 0)" stroke-linecap="butt" stroke-linejoin="round" stroke-opacity="1.0" stroke-width="3.0" />
            <path d=" M 618.524, 624.135 616.432, 626.366 610.360, 634.311 610.086, 634.669 603.933, 642.552 603.502, 643.103 596.402, 650.145 592.993, 653.526 586.040, 660.713 579.086, 667.899 578.639, 668.361 577.520, 669.518 577.133, 669.898 574.082, 672.900 573.755, 673.222 573.675, 673.300 566.547, 680.313 565.467, 681.375 " fill="none" stroke="rgb(0, 0, 0)" stroke-linecap="butt" stroke-linejoin="round" stroke-opacity="1.0" stroke-width="3.0" />
            <path d=" M 710.607, 962.909 705.149, 963.121 701.634, 962.758 698.055, 962.390 702.042, 962.678 705.414, 962.921 710.607, 962.909 716.296, 962.896 722.309, 962.364 730.356, 960.593 737.141, 956.820 742.745, 952.003 744.851, 948.164 745.287, 941.237 745.527, 939.066 747.936, 935.726 746.855, 934.388 742.265, 934.134 741.215, 934.075 741.097, 934.069 " fill="none" stroke="rgb(0, 0, 0)" stroke-linecap="butt" stroke-linejoin="round" stroke-opacity="1.0" stroke-width="3.0" />
            <path d=" M 709.227, 535.603 707.127, 538.030 704.704, 540.828 704.499, 541.065 703.384, 542.353 703.382, 542.356 702.800, 543.028 702.570, 543.389 702.450, 543.577 702.334, 543.759 702.259, 543.876 701.638, 544.851 701.167, 545.588 700.407, 546.779 699.894, 547.584 699.766, 547.785 697.730, 550.977 697.600, 551.181 697.520, 551.307 696.778, 552.470 696.711, 552.575 696.409, 553.049 696.389, 553.080 696.235, 553.321 696.171, 553.422 696.067, 553.728 694.542, 558.225 694.519, 558.296 694.451, 558.506 694.443, 558.532 694.420, 558.601 694.221, 559.212 694.201, 559.275 694.097, 559.594 694.095, 559.601 693.593, 561.145 693.146, 562.519 693.099, 563.004 693.020, 563.806 692.999, 564.016 692.962, 564.394 692.929, 564.731 692.925, 564.775 692.923, 564.796 692.923, 564.796 692.909, 564.940 692.901, 565.021 692.870, 565.331 692.863, 565.404 692.861, 565.428 692.852, 565.516 692.845, 565.589 692.826, 565.786 692.789, 566.162 692.771, 566.342 692.732, 566.738 692.639, 567.696 692.529, 568.816 692.435, 569.775 692.429, 569.833 692.413, 569.995 692.280, 571.351 692.288, 571.789 692.307, 572.935 692.309, 572.995 692.320, 573.674 692.359, 575.931 692.379, 577.101 692.380, 577.119 692.385, 577.401 692.385, 577.416 692.407, 578.686 692.407, 578.704 692.367, 579.033 692.187, 580.498 691.899, 582.858 691.892, 582.913 691.870, 583.097 691.703, 584.457 692.183, 586.099 692.309, 586.531 692.379, 586.767 692.424, 586.922 692.447, 587.002 693.613, 590.989 694.222, 593.071 695.893, 594.835 699.324, 598.456 703.387, 605.629 708.865, 611.312 " fill="none" stroke="rgb(0, 0, 0)" stroke-linecap="butt" stroke-linejoin="round" stroke-opacity="1.0" stroke-width="3.0" />
            <path d=" M 785.045, 706.012 784.497, 706.776 784.213, 707.173 781.375, 711.129 781.093, 711.523 779.399, 713.885 778.739, 715.124 777.873, 716.749 777.828, 716.834 777.767, 716.949 777.632, 717.203 777.404, 717.632 777.208, 717.999 777.055, 718.285 776.700, 718.953 774.323, 723.416 773.645, 724.688 771.948, 727.875 771.668, 728.735 770.821, 731.341 770.747, 731.571 770.705, 731.699 770.635, 731.915 770.416, 732.588 770.374, 732.718 770.266, 733.051 770.246, 733.112 770.106, 733.543 768.660, 737.992 768.653, 738.016 768.397, 738.857 768.111, 739.795 768.059, 739.966 765.148, 749.532 764.898, 750.353 763.438, 760.246 763.118, 762.410 763.249, 767.654 762.690, 776.960 763.954, 781.924 765.479, 783.506 766.399, 783.940 766.889, 784.527 768.152, 785.756 770.208, 788.114 771.853, 788.887 773.414, 789.620 " fill="none" stroke="rgb(0, 0, 0)" stroke-linecap="butt" stroke-linejoin="round" stroke-opacity="1.0" stroke-width="3.0" />
            <path d=" M 987.840, 680.117 985.259, 677.248 984.855, 676.799 984.675, 676.598 984.674, 676.597 983.405, 675.396 982.467, 674.508 982.236, 674.317 982.233, 674.314 981.946, 674.076 977.806, 670.638 977.337, 670.248 976.163, 669.274 975.174, 669.005 965.524, 666.382 964.255, 666.037 959.931, 664.862 954.805, 663.479 953.800, 663.132 953.759, 663.118 953.247, 662.941 949.270, 661.569 941.563, 658.910 934.291, 656.666 928.325, 654.492 925.976, 653.587 924.376, 652.971 918.595, 650.743 911.914, 647.543 908.358, 645.839 907.012, 645.195 906.523, 645.053 906.403, 645.018 906.232, 644.968 903.075, 644.051 902.891, 643.997 899.521, 643.018 899.450, 642.997 899.365, 642.973 899.302, 642.955 899.215, 642.929 896.180, 642.047 893.833, 641.365 892.133, 640.872 " fill="none" stroke="rgb(0, 0, 0)" stroke-linecap="butt" stroke-linejoin="round" stroke-opacity="1.0" stroke-width="3.0" />
            <path d=" M 502.570, 681.667 503.695, 678.748 507.175, 671.380 509.691, 666.600 510.131, 664.288 509.830, 663.629 509.296, 662.566 507.181, 661.417 502.299, 661.984 500.489, 662.257 495.404, 663.365 491.944, 666.218 485.438, 673.812 481.559, 678.341 477.013, 685.495 475.108, 690.008 472.230, 691.763 470.322, 695.142 466.862, 700.294 463.922, 705.360 459.727, 711.076 458.179, 713.360 455.124, 718.621 454.906, 719.077 " fill="none" stroke="rgb(0, 0, 0)" stroke-linecap="butt" stroke-linejoin="round" stroke-opacity="1.0" stroke-width="3.0" />
            <path d=" M 1000.468, 839.289 1000.768, 839.185 1001.960, 838.771 1004.195, 839.004 1007.383, 838.025 1010.299, 836.965 1013.579, 834.482 1015.271, 832.390 1017.170, 831.161 1020.038, 827.632 1022.684, 822.663 1023.263, 821.461 1023.357, 821.265 1023.701, 820.551 1024.015, 819.898 1024.128, 819.664 1024.187, 819.541 1024.440, 819.016 1025.515, 816.782 1028.372, 811.671 1034.408, 803.697 1034.930, 803.007 1038.559, 798.096 1039.354, 794.807 1037.745, 788.586 1037.834, 780.325 1039.273, 770.429 1039.296, 770.265 1038.621, 762.812 1038.132, 758.361 1037.171, 753.797 1036.287, 749.597 " fill="none" stroke="rgb(0, 0, 0)" stroke-linecap="butt" stroke-linejoin="round" stroke-opacity="1.0" stroke-width="3.0" />
            <path d=" M 877.525, 498.031 876.799, 498.404 872.239, 500.500 868.810, 502.626 863.353, 504.517 861.808, 505.252 854.825, 506.770 847.054, 507.877 842.661, 507.700 836.347, 506.341 834.078, 506.100 826.003, 506.614 822.752, 506.642 818.693, 506.452 813.449, 506.938 809.746, 507.321 803.169, 507.337 798.867, 507.728 790.628, 508.632 789.171, 508.791 788.532, 508.746 778.558, 508.030 777.802, 507.976 770.372, 506.859 " fill="none" stroke="rgb(0, 0, 0)" stroke-linecap="butt" stroke-linejoin="round" stroke-opacity="1.0" stroke-width="3.0" />
            <path d=" M 916.669, 513.865 915.390, 513.580 907.048, 511.719 898.464, 512.074 897.187, 511.976 896.907, 511.955 896.899, 511.954 894.165, 511.744 894.101, 511.740 893.803, 511.717 893.640, 511.704 893.227, 511.672 891.822, 511.565 891.771, 511.561 891.410, 511.533 890.123, 511.434 889.647, 511.398 888.881, 511.440 888.748, 511.447 888.708, 511.449 888.386, 511.467 885.786, 511.609 885.767, 511.610 885.052, 511.649 884.997, 511.652 884.670, 511.670 884.419, 511.684 882.659, 511.780 882.469, 511.790 879.331, 512.212 878.073, 512.381 876.467, 512.597 872.004, 513.198 871.187, 513.307 865.000, 514.139 855.282, 516.498 855.097, 516.543 853.736, 516.873 852.542, 517.379 850.488, 518.250 842.407, 521.290 842.020, 521.435 841.622, 521.511 837.991, 522.206 832.090, 523.335 822.122, 522.536 820.285, 522.389 816.772, 524.741 816.461, 525.307 813.318, 531.032 " fill="none" stroke="rgb(0, 0, 0)" stroke-linecap="butt" stroke-linejoin="round" stroke-opacity="1.0" stroke-width="3.0" />
            <path d=" M 765.136, 824.824 764.370, 826.372 763.875, 827.372 762.234, 830.690 758.193, 837.518 757.670, 845.121 757.935, 845.514 758.830, 846.838 759.500, 848.399 759.502, 848.405 759.540, 848.494 762.428, 855.220 764.524, 859.954 768.578, 866.655 771.602, 871.002 775.423, 874.605 775.583, 874.756 775.648, 874.817 782.924, 881.677 783.009, 881.757 791.207, 887.484 797.712, 892.029 806.612, 896.589 807.528, 897.059 816.372, 901.725 817.784, 902.470 819.550, 902.836 " fill="none" stroke="rgb(0, 0, 0)" stroke-linecap="butt" stroke-linejoin="round" stroke-opacity="1.0" stroke-width="3.0" />
            <path d=" M 701.567, 652.347 698.256, 661.783 696.171, 667.726 692.539, 676.523 689.891, 682.484 688.509, 689.488 688.600, 698.109 690.936, 707.833 691.480, 710.095 695.986, 718.473 699.240, 721.220 704.156, 723.691 712.372, 725.762 718.111, 727.803 727.955, 729.559 735.388, 730.885 741.160, 731.380 742.189, 731.468 " fill="none" stroke="rgb(0, 0, 0)" stroke-linecap="butt" stroke-linejoin="round" stroke-opacity="1.0" stroke-width="3.0" />
            <path d=" M 748.497, 934.297 752.904, 935.737 762.673, 937.872 767.152, 938.850 772.062, 939.872 775.248, 940.277 779.861, 941.769 786.725, 940.837 794.291, 938.655 797.425, 937.435 801.775, 935.825 808.593, 930.029 809.997, 927.434 811.033, 922.010 810.008, 918.698 807.076, 913.672 803.906, 909.203 799.524, 903.569 792.669, 896.288 789.232, 892.638 783.461, 885.574 777.227, 877.880 775.418, 875.835 775.079, 875.452 774.981, 875.340 768.355, 867.851 766.624, 865.894 760.033, 858.374 757.904, 855.944 756.613, 855.557 755.537, 855.563 753.991, 855.843 750.899, 857.872 746.032, 859.288 743.107, 861.201 742.978, 861.286 737.030, 865.175 731.551, 867.239 " fill="none" stroke="rgb(0, 0, 0)" stroke-linecap="butt" stroke-linejoin="round" stroke-opacity="1.0" stroke-width="3.0" />
            <path d=" M 682.126, 684.982 685.843, 684.867 687.263, 682.549 687.646, 679.683 684.942, 670.055 684.861, 669.767 682.351, 660.087 681.293, 656.010 679.088, 646.256 676.884, 636.502 675.983, 632.516 675.652, 630.831 673.845, 621.625 672.373, 614.129 669.693, 604.435 669.579, 604.137 667.790, 599.456 667.585, 598.920 665.351, 595.511 657.865, 588.881 657.194, 588.287 654.634, 586.020 650.212, 583.714 643.557, 583.741 640.230, 583.850 636.761, 584.615 633.456, 587.633 631.771, 590.849 628.428, 598.505 625.597, 605.345 622.327, 614.796 621.830, 616.233 618.750, 623.490 618.524, 624.135 615.953, 631.477 611.449, 640.406 609.417, 644.432 604.234, 652.984 598.977, 661.656 593.329, 668.262 585.728, 674.760 585.546, 674.915 583.822, 676.389 " fill="none" stroke="rgb(0, 0, 0)" stroke-linecap="butt" stroke-linejoin="round" stroke-opacity="1.0" stroke-width="3.0" />
        </g>
    </g>
</svg>
