<?xml version='1.0' encoding='ascii'?>
<svg xmlns="http://www.w3.org/2000/svg" height="1280" version="1.1" width="1280">
    <g id="RenderLayer_LineSet" inkscape:groupmode="lineset" inkscape:label="RenderLayer_LineSet" xmlns:inkscape="http://www.inkscape.org/namespaces/inkscape">
        <g id="strokes" inkscape:groupmode="layer" inkscape:label="strokes" xmlns:inkscape="http://www.inkscape.org/namespaces/inkscape">
            <path d=" M 479.795, 1003.532 482.256, 1001.299 482.261, 1001.295 482.711, 1000.886 482.717, 1000.881 484.576, 999.194 485.140, 998.962 485.168, 998.951 491.149, 996.496 497.629, 995.973 " fill="none" stroke="rgb(0, 0, 0)" stroke-linecap="butt" stroke-linejoin="round" stroke-opacity="1.0" stroke-width="3.0" />
            <path d=" M 738.191, 570.865 736.181, 567.482 735.157, 565.759 734.282, 565.312 734.641, 565.252 734.997, 565.192 742.302, 563.965 742.849, 563.873 742.869, 563.870 743.063, 563.837 744.320, 563.626 744.410, 563.611 744.807, 563.545 744.936, 563.523 747.314, 563.124 " fill="none" stroke="rgb(0, 0, 0)" stroke-linecap="butt" stroke-linejoin="round" stroke-opacity="1.0" stroke-width="3.0" />
            <path d=" M 598.618, 821.750 599.775, 820.710 600.149, 820.374 600.466, 820.089 600.938, 819.665 601.001, 819.607 602.544, 818.220 603.128, 817.695 603.148, 817.678 603.919, 816.984 608.236, 812.862 612.486, 806.972 " fill="none" stroke="rgb(0, 0, 0)" stroke-linecap="butt" stroke-linejoin="round" stroke-opacity="1.0" stroke-width="3.0" />
            <path d=" M 786.885, 600.957 780.105, 597.517 771.302, 592.772 768.723, 591.381 " fill="none" stroke="rgb(0, 0, 0)" stroke-linecap="butt" stroke-linejoin="round" stroke-opacity="1.0" stroke-width="3.0" />
            <path d=" M 762.735, 855.228 760.866, 858.532 760.787, 858.671 759.734, 860.532 759.618, 864.885 760.099, 867.516 762.322, 868.944 762.391, 868.989 762.420, 869.008 762.996, 869.657 765.536, 872.520 " fill="none" stroke="rgb(0, 0, 0)" stroke-linecap="butt" stroke-linejoin="round" stroke-opacity="1.0" stroke-width="3.0" />
            <path d=" M 757.803, 899.382 757.664, 899.526 757.657, 899.832 757.646, 900.340 757.685, 900.367 758.365, 900.856 759.550, 901.706 762.000, 903.465 762.543, 903.855 763.105, 904.258 763.431, 904.492 763.450, 904.506 763.469, 904.555 763.473, 904.566 763.518, 904.681 763.701, 905.154 763.791, 905.388 763.875, 905.604 763.962, 905.830 764.551, 907.352 766.629, 909.887 767.610, 908.949 767.860, 908.555 767.877, 908.529 770.338, 904.658 " fill="none" stroke="rgb(0, 0, 0)" stroke-linecap="butt" stroke-linejoin="round" stroke-opacity="1.0" stroke-width="3.0" />
            <path d=" M 746.185, 533.274 747.340, 534.322 748.583, 537.910 748.441, 542.643 749.222, 548.284 749.238, 553.428 " fill="none" stroke="rgb(0, 0, 0)" stroke-linecap="butt" stroke-linejoin="round" stroke-opacity="1.0" stroke-width="3.0" />
            <path d=" M 782.308, 651.223 786.481, 652.282 786.496, 652.286 786.520, 652.292 787.185, 652.461 790.066, 653.192 792.293, 653.624 792.897, 653.707 793.567, 653.799 793.731, 653.822 793.759, 653.825 795.435, 654.055 795.435, 654.055 795.436, 654.055 796.748, 654.235 798.457, 654.469 798.805, 654.517 799.876, 654.663 800.114, 654.696 800.705, 654.777 801.792, 654.926 801.933, 654.945 802.924, 655.081 " fill="none" stroke="rgb(0, 0, 0)" stroke-linecap="butt" stroke-linejoin="round" stroke-opacity="1.0" stroke-width="3.0" />
            <path d=" M 837.183, 355.713 832.094, 356.121 827.677, 356.475 826.914, 356.536 816.946, 357.335 816.771, 357.349 816.223, 357.393 " fill="none" stroke="rgb(0, 0, 0)" stroke-linecap="butt" stroke-linejoin="round" stroke-opacity="1.0" stroke-width="3.0" />
            <path d=" M 813.004, 795.841 812.868, 794.283 813.398, 788.004 812.697, 782.790 809.871, 777.754 809.585, 777.244 808.695, 775.874 " fill="none" stroke="rgb(0, 0, 0)" stroke-linecap="butt" stroke-linejoin="round" stroke-opacity="1.0" stroke-width="3.0" />
            <path d=" M 924.508, 467.665 917.856, 469.458 915.998, 471.138 913.459, 475.004 906.313, 475.603 " fill="none" stroke="rgb(0, 0, 0)" stroke-linecap="butt" stroke-linejoin="round" stroke-opacity="1.0" stroke-width="3.0" />
            <path d=" M 561.856, 494.602 559.023, 504.192 558.719, 505.219 556.988, 509.203 555.821, 515.140 " fill="none" stroke="rgb(0, 0, 0)" stroke-linecap="butt" stroke-linejoin="round" stroke-opacity="1.0" stroke-width="3.0" />
            <path d=" M 930.600, 727.826 930.244, 730.314 927.505, 736.799 926.626, 739.071 925.113, 742.981 925.627, 747.261 925.793, 748.645 " fill="none" stroke="rgb(0, 0, 0)" stroke-linecap="butt" stroke-linejoin="round" stroke-opacity="1.0" stroke-width="3.0" />
            <path d=" M 763.469, 904.555 763.417, 904.604 763.097, 904.902 762.064, 905.867 754.728, 912.713 753.412, 914.244 753.063, 914.651 750.893, 917.176 750.373, 917.786 749.339, 918.998 749.020, 919.372 748.199, 920.335 " fill="none" stroke="rgb(0, 0, 0)" stroke-linecap="butt" stroke-linejoin="round" stroke-opacity="1.0" stroke-width="3.0" />
            <path d=" M 531.253, 670.850 531.184, 671.210 529.822, 678.350 530.128, 686.838 530.467, 693.166 530.483, 693.457 " fill="none" stroke="rgb(0, 0, 0)" stroke-linecap="butt" stroke-linejoin="round" stroke-opacity="1.0" stroke-width="3.0" />
            <path d=" M 719.164, 915.703 720.432, 917.855 721.372, 922.132 721.044, 926.873 717.783, 933.128 714.776, 935.054 714.177, 935.437 " fill="none" stroke="rgb(0, 0, 0)" stroke-linecap="butt" stroke-linejoin="round" stroke-opacity="1.0" stroke-width="3.0" />
            <path d=" M 827.418, 356.453 821.349, 355.938 816.370, 354.677 812.041, 353.919 804.629, 354.981 " fill="none" stroke="rgb(0, 0, 0)" stroke-linecap="butt" stroke-linejoin="round" stroke-opacity="1.0" stroke-width="3.0" />
            <path d=" M 820.011, 602.521 822.396, 603.793 825.250, 605.314 825.878, 605.649 828.167, 606.869 831.125, 609.514 833.554, 609.464 835.194, 609.430 839.116, 607.307 839.301, 607.207 839.998, 606.830 840.413, 606.749 " fill="none" stroke="rgb(0, 0, 0)" stroke-linecap="butt" stroke-linejoin="round" stroke-opacity="1.0" stroke-width="3.0" />
            <path d=" M 611.231, 808.303 611.289, 808.241 612.486, 806.972 615.743, 803.520 621.796, 797.103 626.843, 791.174 " fill="none" stroke="rgb(0, 0, 0)" stroke-linecap="butt" stroke-linejoin="round" stroke-opacity="1.0" stroke-width="3.0" />
            <path d=" M 522.178, 990.639 528.150, 991.092 529.185, 991.053 533.247, 989.855 534.960, 989.171 538.101, 986.785 539.391, 984.576 538.680, 982.267 537.462, 981.572 " fill="none" stroke="rgb(0, 0, 0)" stroke-linecap="butt" stroke-linejoin="round" stroke-opacity="1.0" stroke-width="3.0" />
            <path d=" M 742.460, 523.786 747.504, 527.585 747.763, 527.905 748.370, 528.652 748.481, 528.789 749.304, 529.803 749.568, 530.128 751.805, 532.886 754.888, 537.248 757.463, 540.892 757.636, 541.400 " fill="none" stroke="rgb(0, 0, 0)" stroke-linecap="butt" stroke-linejoin="round" stroke-opacity="1.0" stroke-width="3.0" />
            <path d=" M 821.784, 341.182 815.395, 344.513 807.330, 350.425 806.188, 351.262 802.815, 354.797 " fill="none" stroke="rgb(0, 0, 0)" stroke-linecap="butt" stroke-linejoin="round" stroke-opacity="1.0" stroke-width="3.0" />
            <path d=" M 722.412, 531.152 730.109, 531.751 730.900, 531.813 732.820, 532.386 735.991, 533.334 740.391, 532.856 740.531, 532.842 745.191, 532.372 745.842, 532.306 " fill="none" stroke="rgb(0, 0, 0)" stroke-linecap="butt" stroke-linejoin="round" stroke-opacity="1.0" stroke-width="3.0" />
            <path d=" M 798.815, 776.286 798.597, 778.648 798.288, 781.994 797.789, 786.639 795.515, 791.043 795.325, 793.027 795.324, 793.042 795.187, 794.472 795.146, 794.904 790.615, 795.932 790.549, 795.947 " fill="none" stroke="rgb(0, 0, 0)" stroke-linecap="butt" stroke-linejoin="round" stroke-opacity="1.0" stroke-width="3.0" />
            <path d=" M 582.954, 503.164 583.215, 500.768 583.182, 493.509 583.887, 491.021 583.866, 486.368 585.276, 479.188 " fill="none" stroke="rgb(0, 0, 0)" stroke-linecap="butt" stroke-linejoin="round" stroke-opacity="1.0" stroke-width="3.0" />
            <path d=" M 832.244, 800.503 830.273, 801.699 828.230, 802.147 828.161, 802.162 827.965, 802.205 827.418, 802.325 826.208, 802.590 822.493, 802.554 817.172, 800.603 814.285, 797.709 813.004, 795.841 812.741, 795.458 812.575, 795.217 812.405, 794.969 812.073, 794.485 811.797, 794.083 " fill="none" stroke="rgb(0, 0, 0)" stroke-linecap="butt" stroke-linejoin="round" stroke-opacity="1.0" stroke-width="3.0" />
            <path d=" M 866.962, 571.960 867.062, 571.181 867.217, 569.974 867.294, 569.373 867.349, 569.288 868.948, 566.802 870.015, 565.144 873.082, 559.486 873.459, 558.791 873.545, 558.578 873.744, 554.733 872.664, 552.882 869.486, 551.077 " fill="none" stroke="rgb(0, 0, 0)" stroke-linecap="butt" stroke-linejoin="round" stroke-opacity="1.0" stroke-width="3.0" />
            <path d=" M 997.658, 549.554 997.673, 549.503 998.883, 545.361 1000.713, 537.504 1002.113, 532.498 1002.641, 525.114 " fill="none" stroke="rgb(0, 0, 0)" stroke-linecap="butt" stroke-linejoin="round" stroke-opacity="1.0" stroke-width="3.0" />
            <path d=" M 775.925, 782.310 774.791, 782.546 773.473, 782.821 771.770, 783.176 769.125, 783.727 763.589, 787.048 761.307, 788.456 760.336, 791.076 760.756, 794.894 762.102, 796.805 " fill="none" stroke="rgb(0, 0, 0)" stroke-linecap="butt" stroke-linejoin="round" stroke-opacity="1.0" stroke-width="3.0" />
            <path d=" M 668.949, 611.655 667.079, 612.571 659.708, 616.181 655.340, 617.273 650.414, 615.990 648.108, 611.287 648.101, 611.274 " fill="none" stroke="rgb(0, 0, 0)" stroke-linecap="butt" stroke-linejoin="round" stroke-opacity="1.0" stroke-width="3.0" />
            <path d=" M 483.676, 1052.280 484.310, 1053.114 484.789, 1053.566 485.940, 1054.651 487.052, 1057.863 487.599, 1059.444 489.399, 1061.872 490.193, 1062.841 494.247, 1064.098 496.892, 1063.893 497.146, 1063.858 498.878, 1061.293 500.379, 1059.569 " fill="none" stroke="rgb(0, 0, 0)" stroke-linecap="butt" stroke-linejoin="round" stroke-opacity="1.0" stroke-width="3.0" />
            <path d=" M 852.506, 628.607 853.239, 628.798 860.098, 630.592 869.600, 632.026 872.938, 632.772 873.362, 632.866 873.499, 632.897 873.772, 632.958 873.964, 633.001 874.136, 633.039 877.310, 633.293 " fill="none" stroke="rgb(0, 0, 0)" stroke-linecap="butt" stroke-linejoin="round" stroke-opacity="1.0" stroke-width="3.0" />
            <path d=" M 959.657, 398.875 958.761, 397.765 958.609, 397.578 957.368, 396.041 956.547, 395.024 956.530, 395.003 956.505, 394.972 956.196, 394.590 955.093, 393.199 950.244, 387.087 949.658, 386.348 949.586, 386.134 948.422, 382.666 946.735, 381.231 946.380, 380.709 945.618, 379.588 944.766, 378.333 944.737, 378.291 " fill="none" stroke="rgb(0, 0, 0)" stroke-linecap="butt" stroke-linejoin="round" stroke-opacity="1.0" stroke-width="3.0" />
            <path d=" M 831.651, 399.787 827.479, 399.316 827.416, 399.308 827.095, 399.272 826.344, 399.187 818.515, 396.836 809.080, 395.401 806.436, 394.998 " fill="none" stroke="rgb(0, 0, 0)" stroke-linecap="butt" stroke-linejoin="round" stroke-opacity="1.0" stroke-width="3.0" />
            <path d=" M 743.526, 418.690 744.798, 421.225 745.055, 421.737 745.705, 423.052 745.830, 423.304 746.491, 424.641 746.585, 424.831 747.736, 427.158 748.099, 427.892 750.083, 430.129 750.094, 430.142 750.186, 430.245 750.238, 430.304 750.570, 430.677 751.368, 431.578 751.991, 432.281 752.418, 432.762 752.999, 433.416 753.962, 434.503 754.032, 434.581 754.642, 435.269 754.669, 435.334 755.345, 436.941 755.379, 437.024 756.811, 440.430 " fill="none" stroke="rgb(0, 0, 0)" stroke-linecap="butt" stroke-linejoin="round" stroke-opacity="1.0" stroke-width="3.0" />
            <path d=" M 554.019, 914.894 557.616, 907.454 560.240, 902.639 562.245, 900.072 563.041, 899.197 563.071, 899.164 563.518, 898.673 563.932, 898.218 565.085, 896.951 565.738, 896.233 565.859, 895.296 565.927, 894.764 566.032, 892.631 " fill="none" stroke="rgb(0, 0, 0)" stroke-linecap="butt" stroke-linejoin="round" stroke-opacity="1.0" stroke-width="3.0" />
            <path d=" M 702.666, 639.477 703.006, 639.484 709.801, 639.628 719.061, 642.907 719.345, 642.876 721.492, 642.638 722.592, 642.516 727.119, 639.705 " fill="none" stroke="rgb(0, 0, 0)" stroke-linecap="butt" stroke-linejoin="round" stroke-opacity="1.0" stroke-width="3.0" />
            <path d=" M 758.823, 869.740 757.641, 869.764 755.838, 870.295 754.940, 870.669 754.174, 870.987 752.666, 871.614 747.490, 875.286 747.075, 875.712 744.669, 878.547 744.601, 882.177 747.016, 883.989 749.028, 885.101 " fill="none" stroke="rgb(0, 0, 0)" stroke-linecap="butt" stroke-linejoin="round" stroke-opacity="1.0" stroke-width="3.0" />
            <path d=" M 743.668, 615.691 743.654, 615.438 743.606, 614.557 743.597, 614.392 743.582, 614.125 743.551, 613.554 743.364, 610.125 745.241, 604.749 749.237, 597.792 752.573, 591.803 " fill="none" stroke="rgb(0, 0, 0)" stroke-linecap="butt" stroke-linejoin="round" stroke-opacity="1.0" stroke-width="3.0" />
            <path d=" M 447.288, 1008.102 448.679, 1012.038 450.310, 1015.547 452.021, 1021.201 453.370, 1024.378 454.170, 1026.896 456.956, 1029.864 458.036, 1030.529 458.795, 1030.995 " fill="none" stroke="rgb(0, 0, 0)" stroke-linecap="butt" stroke-linejoin="round" stroke-opacity="1.0" stroke-width="3.0" />
            <path d=" M 604.843, 848.448 605.869, 846.893 607.455, 844.488 612.025, 840.432 612.594, 839.566 614.036, 836.827 613.785, 831.067 612.955, 828.541 611.139, 826.250 " fill="none" stroke="rgb(0, 0, 0)" stroke-linecap="butt" stroke-linejoin="round" stroke-opacity="1.0" stroke-width="3.0" />
            <path d=" M 547.555, 932.701 547.833, 932.533 551.081, 932.157 552.178, 932.030 559.636, 932.574 567.353, 928.720 571.440, 924.863 " fill="none" stroke="rgb(0, 0, 0)" stroke-linecap="butt" stroke-linejoin="round" stroke-opacity="1.0" stroke-width="3.0" />
            <path d=" M 903.842, 525.060 904.958, 525.038 906.395, 524.317 907.643, 523.924 908.065, 523.578 909.017, 522.799 909.326, 521.419 909.366, 521.241 909.421, 520.997 909.677, 519.853 910.085, 518.029 912.480, 515.556 913.949, 514.039 913.953, 514.036 913.954, 514.034 914.923, 513.034 915.501, 512.109 919.028, 504.780 " fill="none" stroke="rgb(0, 0, 0)" stroke-linecap="butt" stroke-linejoin="round" stroke-opacity="1.0" stroke-width="3.0" />
            <path d=" M 585.233, 884.580 586.970, 883.490 587.718, 883.021 587.841, 882.944 587.951, 882.875 587.989, 882.851 588.372, 882.610 588.713, 882.396 593.787, 879.212 595.514, 876.895 596.252, 873.879 596.113, 867.081 595.340, 863.129 " fill="none" stroke="rgb(0, 0, 0)" stroke-linecap="butt" stroke-linejoin="round" stroke-opacity="1.0" stroke-width="3.0" />
            <path d=" M 882.480, 533.006 887.142, 529.861 887.783, 529.429 888.157, 529.177 888.169, 529.168 888.547, 529.066 895.745, 527.119 901.233, 525.840 903.842, 525.060 904.442, 524.881 905.512, 524.561 906.414, 524.291 906.425, 524.288 907.643, 523.924 " fill="none" stroke="rgb(0, 0, 0)" stroke-linecap="butt" stroke-linejoin="round" stroke-opacity="1.0" stroke-width="3.0" />
            <path d=" M 765.205, 652.184 766.755, 652.147 771.333, 652.037 772.597, 652.007 773.038, 652.063 778.504, 652.765 786.082, 653.237 786.398, 653.257 786.434, 653.259 786.798, 653.282 792.293, 653.624 " fill="none" stroke="rgb(0, 0, 0)" stroke-linecap="butt" stroke-linejoin="round" stroke-opacity="1.0" stroke-width="3.0" />
            <path d=" M 575.341, 589.952 575.350, 589.827 575.415, 588.981 576.179, 579.010 576.201, 578.722 577.488, 572.035 580.589, 563.389 " fill="none" stroke="rgb(0, 0, 0)" stroke-linecap="butt" stroke-linejoin="round" stroke-opacity="1.0" stroke-width="3.0" />
            <path d=" M 749.673, 441.930 749.256, 441.633 747.960, 440.710 747.087, 440.089 743.966, 436.263 743.042, 432.787 741.370, 431.066 737.814, 427.828 738.122, 426.059 739.820, 423.670 741.366, 422.395 742.328, 421.602 743.904, 422.368 " fill="none" stroke="rgb(0, 0, 0)" stroke-linecap="butt" stroke-linejoin="round" stroke-opacity="1.0" stroke-width="3.0" />
            <path d=" M 647.983, 614.135 648.100, 611.295 648.101, 611.274 648.183, 609.301 647.786, 609.294 645.152, 609.250 640.469, 611.155 633.073, 611.504 624.654, 612.923 " fill="none" stroke="rgb(0, 0, 0)" stroke-linecap="butt" stroke-linejoin="round" stroke-opacity="1.0" stroke-width="3.0" />
            <path d=" M 667.378, 458.908 664.843, 461.810 660.427, 468.978 659.521, 471.374 659.034, 474.651 659.634, 481.330 660.715, 485.271 " fill="none" stroke="rgb(0, 0, 0)" stroke-linecap="butt" stroke-linejoin="round" stroke-opacity="1.0" stroke-width="3.0" />
            <path d=" M 804.189, 781.230 803.357, 776.023 802.703, 772.611 801.929, 768.571 799.802, 762.334 799.470, 761.361 795.891, 753.520 " fill="none" stroke="rgb(0, 0, 0)" stroke-linecap="butt" stroke-linejoin="round" stroke-opacity="1.0" stroke-width="3.0" />
            <path d=" M 600.122, 502.933 601.294, 501.028 601.507, 500.682 602.297, 499.480 602.636, 498.963 603.551, 497.570 603.648, 497.422 603.837, 497.135 603.886, 497.016 605.353, 493.434 606.410, 490.193 606.576, 484.657 606.585, 484.359 607.001, 482.983 608.801, 477.035 609.284, 475.440 " fill="none" stroke="rgb(0, 0, 0)" stroke-linecap="butt" stroke-linejoin="round" stroke-opacity="1.0" stroke-width="3.0" />
            <path d=" M 499.777, 1057.503 500.169, 1058.849 500.202, 1058.961 500.202, 1058.963 500.236, 1059.079 500.379, 1059.569 500.687, 1060.626 502.603, 1063.211 503.662, 1064.240 506.353, 1064.124 508.064, 1063.148 511.146, 1062.232 512.654, 1059.935 513.036, 1056.910 512.312, 1051.407 511.964, 1049.088 " fill="none" stroke="rgb(0, 0, 0)" stroke-linecap="butt" stroke-linejoin="round" stroke-opacity="1.0" stroke-width="3.0" />
            <path d=" M 720.227, 751.189 722.794, 755.741 723.307, 761.720 722.986, 766.277 723.508, 769.742 724.884, 774.390 728.726, 778.611 " fill="none" stroke="rgb(0, 0, 0)" stroke-linecap="butt" stroke-linejoin="round" stroke-opacity="1.0" stroke-width="3.0" />
            <path d=" M 960.381, 399.733 958.961, 397.355 955.655, 392.248 955.292, 391.569 954.198, 388.500 951.924, 384.234 948.795, 377.205 947.291, 373.003 " fill="none" stroke="rgb(0, 0, 0)" stroke-linecap="butt" stroke-linejoin="round" stroke-opacity="1.0" stroke-width="3.0" />
            <path d=" M 743.202, 995.965 744.184, 995.864 745.782, 995.699 751.763, 993.127 755.293, 990.113 757.600, 986.646 760.819, 983.361 764.312, 979.912 764.328, 979.902 766.614, 978.482 " fill="none" stroke="rgb(0, 0, 0)" stroke-linecap="butt" stroke-linejoin="round" stroke-opacity="1.0" stroke-width="3.0" />
            <path d=" M 673.869, 810.025 674.700, 810.847 674.877, 811.023 674.882, 811.028 675.068, 812.185 675.287, 813.549 675.777, 814.609 678.516, 817.500 679.230, 818.006 683.831, 817.828 686.581, 817.070 686.874, 816.989 686.897, 816.983 686.989, 816.958 687.017, 816.950 687.059, 816.938 688.400, 816.569 692.255, 814.554 696.773, 809.727 " fill="none" stroke="rgb(0, 0, 0)" stroke-linecap="butt" stroke-linejoin="round" stroke-opacity="1.0" stroke-width="3.0" />
            <path d=" M 806.070, 355.127 804.629, 354.981 803.335, 354.849 802.815, 354.797 795.007, 354.005 793.310, 353.712 791.529, 353.404 791.253, 353.357 787.558, 355.265 785.988, 356.076 783.762, 357.298 782.850, 357.868 781.758, 359.643 781.585, 360.040 780.775, 361.896 780.654, 362.175 781.288, 363.063 " fill="none" stroke="rgb(0, 0, 0)" stroke-linecap="butt" stroke-linejoin="round" stroke-opacity="1.0" stroke-width="3.0" />
            <path d=" M 660.597, 483.460 660.715, 485.271 660.858, 487.483 661.899, 488.737 664.843, 493.227 664.925, 493.299 667.924, 495.925 670.792, 498.331 674.014, 501.031 674.980, 501.841 678.359, 502.993 678.408, 502.997 680.946, 503.206 681.449, 503.160 " fill="none" stroke="rgb(0, 0, 0)" stroke-linecap="butt" stroke-linejoin="round" stroke-opacity="1.0" stroke-width="3.0" />
            <path d=" M 834.078, 504.401 835.932, 500.440 835.963, 500.408 835.978, 500.393 840.395, 495.823 845.773, 487.392 846.533, 486.201 848.492, 483.489 851.722, 480.805 852.214, 480.396 852.777, 479.928 " fill="none" stroke="rgb(0, 0, 0)" stroke-linecap="butt" stroke-linejoin="round" stroke-opacity="1.0" stroke-width="3.0" />
            <path d=" M 993.655, 456.074 992.830, 453.267 990.185, 447.684 990.135, 447.581 988.787, 444.849 985.739, 438.674 985.726, 438.647 985.703, 438.601 980.582, 430.013 979.598, 428.364 " fill="none" stroke="rgb(0, 0, 0)" stroke-linecap="butt" stroke-linejoin="round" stroke-opacity="1.0" stroke-width="3.0" />
            <path d=" M 583.137, 837.470 588.440, 832.527 588.511, 832.461 588.626, 832.353 593.719, 827.605 595.921, 825.334 596.102, 825.148 596.642, 824.591 596.763, 824.465 598.618, 821.750 599.535, 820.408 599.781, 820.048 599.811, 820.005 600.092, 819.593 600.319, 819.261 600.797, 818.560 601.470, 817.575 602.129, 816.611 603.794, 814.173 " fill="none" stroke="rgb(0, 0, 0)" stroke-linecap="butt" stroke-linejoin="round" stroke-opacity="1.0" stroke-width="3.0" />
            <path d=" M 783.968, 753.658 786.178, 756.651 786.312, 756.780 787.821, 758.235 787.833, 758.247 787.940, 758.350 787.957, 758.366 788.148, 758.551 792.112, 763.673 794.089, 768.117 796.410, 773.585 798.262, 777.551 797.410, 780.801 " fill="none" stroke="rgb(0, 0, 0)" stroke-linecap="butt" stroke-linejoin="round" stroke-opacity="1.0" stroke-width="3.0" />
            <path d=" M 478.939, 637.151 476.864, 644.310 476.480, 646.862 476.040, 649.795 475.980, 649.934 474.255, 653.954 473.186, 661.818 473.011, 664.030 472.698, 667.987 " fill="none" stroke="rgb(0, 0, 0)" stroke-linecap="butt" stroke-linejoin="round" stroke-opacity="1.0" stroke-width="3.0" />
            <path d=" M 734.282, 565.312 731.739, 565.393 724.623, 567.908 715.777, 571.394 712.510, 574.570 708.812, 580.055 708.251, 580.886 " fill="none" stroke="rgb(0, 0, 0)" stroke-linecap="butt" stroke-linejoin="round" stroke-opacity="1.0" stroke-width="3.0" />
            <path d=" M 796.474, 949.697 796.738, 949.351 802.415, 942.188 805.398, 939.204 807.564, 936.385 809.853, 933.112 813.415, 925.446 813.986, 923.998 814.090, 923.553 " fill="none" stroke="rgb(0, 0, 0)" stroke-linecap="butt" stroke-linejoin="round" stroke-opacity="1.0" stroke-width="3.0" />
            <path d=" M 763.756, 835.651 763.983, 837.647 764.489, 842.092 764.590, 842.977 763.538, 848.176 764.436, 849.752 765.352, 850.960 768.477, 852.897 770.371, 852.666 770.421, 852.660 773.508, 852.284 773.869, 852.280 773.959, 852.279 774.684, 852.271 774.706, 852.271 778.069, 852.235 779.945, 853.210 780.316, 853.403 780.434, 853.464 " fill="none" stroke="rgb(0, 0, 0)" stroke-linecap="butt" stroke-linejoin="round" stroke-opacity="1.0" stroke-width="3.0" />
            <path d=" M 801.532, 888.463 802.032, 888.365 809.504, 886.907 816.774, 883.670 821.965, 879.755 824.457, 877.291 828.298, 872.288 " fill="none" stroke="rgb(0, 0, 0)" stroke-linecap="butt" stroke-linejoin="round" stroke-opacity="1.0" stroke-width="3.0" />
            <path d=" M 900.490, 446.528 892.396, 447.212 892.186, 447.135 891.955, 447.050 889.023, 445.975 888.984, 445.961 885.332, 444.621 883.078, 444.681 873.301, 446.779 868.861, 447.732 " fill="none" stroke="rgb(0, 0, 0)" stroke-linecap="butt" stroke-linejoin="round" stroke-opacity="1.0" stroke-width="3.0" />
            <path d=" M 971.831, 637.788 972.417, 634.413 972.748, 627.819 972.320, 624.122 973.036, 619.855 973.693, 615.149 974.054, 611.093 975.358, 607.928 975.418, 605.683 " fill="none" stroke="rgb(0, 0, 0)" stroke-linecap="butt" stroke-linejoin="round" stroke-opacity="1.0" stroke-width="3.0" />
            <path d=" M 775.348, 897.459 777.177, 900.345 779.235, 901.174 782.094, 900.355 785.150, 899.274 785.315, 899.216 790.352, 898.056 790.642, 897.990 792.003, 897.209 792.408, 896.977 792.470, 896.941 793.878, 896.133 793.936, 896.100 794.691, 895.667 796.748, 894.487 798.510, 892.494 798.970, 891.972 800.344, 890.417 802.032, 888.365 " fill="none" stroke="rgb(0, 0, 0)" stroke-linecap="butt" stroke-linejoin="round" stroke-opacity="1.0" stroke-width="3.0" />
            <path d=" M 903.990, 762.313 908.392, 759.073 909.515, 757.551 914.480, 750.666 917.269, 748.105 920.313, 745.142 922.309, 743.183 925.421, 740.275 926.626, 739.071 " fill="none" stroke="rgb(0, 0, 0)" stroke-linecap="butt" stroke-linejoin="round" stroke-opacity="1.0" stroke-width="3.0" />
            <path d=" M 684.368, 560.760 685.679, 566.427 688.010, 572.229 688.577, 575.604 688.865, 579.461 689.042, 580.846 689.436, 583.934 689.617, 588.590 689.846, 592.558 689.861, 592.885 " fill="none" stroke="rgb(0, 0, 0)" stroke-linecap="butt" stroke-linejoin="round" stroke-opacity="1.0" stroke-width="3.0" />
            <path d=" M 927.371, 683.686 927.999, 684.788 928.886, 686.347 929.604, 687.606 929.622, 687.638 929.872, 688.077 930.562, 692.172 930.567, 692.201 930.391, 692.598 929.044, 695.626 926.796, 700.442 925.949, 702.025 926.162, 704.132 928.245, 708.615 931.541, 711.860 932.370, 712.675 " fill="none" stroke="rgb(0, 0, 0)" stroke-linecap="butt" stroke-linejoin="round" stroke-opacity="1.0" stroke-width="3.0" />
            <path d=" M 947.698, 332.019 943.212, 329.683 941.092, 329.134 936.985, 329.542 928.582, 330.975 924.286, 331.176 918.358, 330.923 917.165, 330.872 917.038, 330.867 916.402, 330.840 916.288, 330.835 915.357, 330.795 " fill="none" stroke="rgb(0, 0, 0)" stroke-linecap="butt" stroke-linejoin="round" stroke-opacity="1.0" stroke-width="3.0" />
            <path d=" M 570.199, 900.699 571.156, 900.869 572.376, 901.085 576.167, 900.650 582.428, 897.064 588.052, 893.721 590.353, 891.992 591.601, 889.225 590.554, 885.436 588.713, 882.396 " fill="none" stroke="rgb(0, 0, 0)" stroke-linecap="butt" stroke-linejoin="round" stroke-opacity="1.0" stroke-width="3.0" />
            <path d=" M 759.305, 868.226 759.130, 868.776 758.854, 869.644 758.823, 869.740 757.347, 874.374 757.356, 879.216 762.027, 880.611 763.989, 881.724 764.229, 881.860 764.242, 881.867 764.545, 882.039 765.065, 882.334 765.066, 882.335 765.503, 882.582 765.560, 882.561 765.837, 882.458 766.135, 882.348 767.061, 882.004 767.180, 881.961 767.404, 881.878 767.506, 881.840 767.561, 881.819 768.077, 881.628 768.169, 881.594 768.258, 881.561 771.201, 880.471 771.448, 880.427 776.849, 879.489 777.825, 879.732 777.880, 879.746 778.028, 879.783 " fill="none" stroke="rgb(0, 0, 0)" stroke-linecap="butt" stroke-linejoin="round" stroke-opacity="1.0" stroke-width="3.0" />
            <path d=" M 865.171, 559.768 867.207, 554.045 868.829, 551.933 869.486, 551.077 870.545, 549.698 871.485, 547.653 874.484, 542.394 878.820, 537.006 878.846, 536.973 882.480, 533.006 883.502, 531.891 " fill="none" stroke="rgb(0, 0, 0)" stroke-linecap="butt" stroke-linejoin="round" stroke-opacity="1.0" stroke-width="3.0" />
            <path d=" M 854.323, 599.970 852.273, 601.316 851.076, 602.103 850.883, 602.229 849.398, 603.205 847.911, 604.182 847.479, 604.326 846.126, 604.776 845.900, 604.851 845.608, 604.948 843.978, 605.491 841.740, 606.235 841.239, 606.402 841.104, 606.447 841.078, 606.456 840.984, 606.487 840.916, 606.510 840.524, 606.640 840.413, 606.749 839.417, 607.729 839.168, 607.974 837.176, 609.936 835.392, 614.170 835.739, 616.709 836.003, 620.061 837.989, 621.686 838.435, 622.022 " fill="none" stroke="rgb(0, 0, 0)" stroke-linecap="butt" stroke-linejoin="round" stroke-opacity="1.0" stroke-width="3.0" />
            <path d=" M 738.285, 418.840 740.232, 419.401 740.242, 419.403 740.479, 419.472 740.969, 419.613 743.904, 422.368 745.377, 423.751 745.987, 424.324 746.469, 424.777 747.519, 427.098 748.022, 428.210 749.106, 430.149 749.836, 431.454 749.918, 431.602 750.164, 432.042 751.793, 434.956 751.990, 436.061 752.028, 436.273 752.611, 439.538 753.411, 443.619 754.048, 446.873 " fill="none" stroke="rgb(0, 0, 0)" stroke-linecap="butt" stroke-linejoin="round" stroke-opacity="1.0" stroke-width="3.0" />
            <path d=" M 985.483, 670.787 984.406, 667.395 983.292, 663.884 981.054, 658.720 978.318, 653.579 974.629, 645.107 973.191, 642.219 971.692, 639.208 " fill="none" stroke="rgb(0, 0, 0)" stroke-linecap="butt" stroke-linejoin="round" stroke-opacity="1.0" stroke-width="3.0" />
            <path d=" M 758.264, 879.835 755.517, 883.499 753.466, 885.369 751.481, 887.179 750.725, 887.869 749.602, 888.893 749.045, 889.729 748.654, 890.317 748.240, 890.939 747.674, 892.025 747.235, 892.868 746.986, 893.347 747.671, 895.521 748.035, 896.673 748.450, 896.996 748.725, 897.209 749.023, 897.297 753.691, 898.669 757.150, 899.269 757.803, 899.382 758.277, 899.464 758.498, 899.502 758.745, 899.545 760.554, 899.859 760.760, 899.894 761.025, 899.940 " fill="none" stroke="rgb(0, 0, 0)" stroke-linecap="butt" stroke-linejoin="round" stroke-opacity="1.0" stroke-width="3.0" />
            <path d=" M 830.812, 879.938 832.309, 878.168 832.338, 878.135 833.079, 877.258 833.552, 876.699 833.850, 876.313 834.197, 875.864 834.240, 875.808 834.320, 875.705 838.769, 869.947 843.306, 861.036 844.608, 858.478 848.718, 850.354 " fill="none" stroke="rgb(0, 0, 0)" stroke-linecap="butt" stroke-linejoin="round" stroke-opacity="1.0" stroke-width="3.0" />
            <path d=" M 808.486, 484.852 803.887, 487.307 795.158, 492.186 794.668, 492.460 794.647, 492.472 792.344, 493.759 790.782, 494.632 790.765, 494.642 788.865, 495.704 783.798, 499.318 779.021, 503.351 " fill="none" stroke="rgb(0, 0, 0)" stroke-linecap="butt" stroke-linejoin="round" stroke-opacity="1.0" stroke-width="3.0" />
            <path d=" M 701.004, 524.455 701.667, 525.930 705.575, 534.860 708.164, 538.475 712.831, 540.994 716.891, 542.475 720.208, 543.460 722.010, 544.102 722.763, 544.371 722.766, 544.372 725.878, 545.482 " fill="none" stroke="rgb(0, 0, 0)" stroke-linecap="butt" stroke-linejoin="round" stroke-opacity="1.0" stroke-width="3.0" />
            <path d=" M 763.437, 527.247 763.147, 527.580 761.709, 529.228 761.326, 529.667 760.889, 530.523 760.173, 531.926 760.172, 531.928 758.447, 535.310 757.992, 538.729 757.889, 539.502 757.636, 541.400 757.274, 544.121 759.181, 550.400 762.898, 558.441 763.405, 559.538 " fill="none" stroke="rgb(0, 0, 0)" stroke-linecap="butt" stroke-linejoin="round" stroke-opacity="1.0" stroke-width="3.0" />
            <path d=" M 997.673, 549.503 996.692, 555.667 994.119, 560.599 991.862, 566.684 989.671, 572.955 990.535, 570.243 992.744, 563.021 " fill="none" stroke="rgb(0, 0, 0)" stroke-linecap="butt" stroke-linejoin="round" stroke-opacity="1.0" stroke-width="3.0" />
            <path d=" M 758.405, 442.144 759.417, 445.559 760.745, 449.463 762.866, 455.862 764.603, 462.593 766.765, 468.497 768.639, 476.160 " fill="none" stroke="rgb(0, 0, 0)" stroke-linecap="butt" stroke-linejoin="round" stroke-opacity="1.0" stroke-width="3.0" />
            <path d=" M 600.166, 450.027 593.611, 452.349 590.678, 454.085 583.817, 459.311 579.998, 462.661 577.806, 466.774 575.391, 469.857 572.934, 472.994 " fill="none" stroke="rgb(0, 0, 0)" stroke-linecap="butt" stroke-linejoin="round" stroke-opacity="1.0" stroke-width="3.0" />
            <path d=" M 708.812, 580.055 705.016, 583.954 699.006, 588.973 696.130, 589.883 692.346, 590.662 691.314, 591.585 689.861, 592.885 689.409, 593.290 686.516, 594.412 685.052, 594.980 681.035, 599.330 679.438, 601.060 " fill="none" stroke="rgb(0, 0, 0)" stroke-linecap="butt" stroke-linejoin="round" stroke-opacity="1.0" stroke-width="3.0" />
            <path d=" M 576.689, 873.534 577.948, 870.960 577.994, 870.866 578.857, 868.370 580.666, 864.770 581.669, 862.776 584.402, 859.619 584.548, 859.450 584.790, 859.171 586.317, 854.747 586.481, 854.400 586.621, 854.104 588.920, 849.242 592.691, 843.533 591.713, 840.122 " fill="none" stroke="rgb(0, 0, 0)" stroke-linecap="butt" stroke-linejoin="round" stroke-opacity="1.0" stroke-width="3.0" />
            <path d=" M 895.993, 836.329 900.701, 833.882 902.593, 832.306 906.131, 830.126 911.748, 825.678 912.563, 824.351 915.342, 822.052 917.761, 819.939 921.412, 816.649 925.458, 811.839 " fill="none" stroke="rgb(0, 0, 0)" stroke-linecap="butt" stroke-linejoin="round" stroke-opacity="1.0" stroke-width="3.0" />
            <path d=" M 762.649, 837.953 760.180, 838.250 759.502, 838.331 755.457, 840.065 752.940, 842.464 752.198, 843.927 752.053, 845.499 752.290, 848.672 751.782, 852.134 753.173, 855.552 754.980, 858.699 757.336, 863.581 759.130, 868.776 " fill="none" stroke="rgb(0, 0, 0)" stroke-linecap="butt" stroke-linejoin="round" stroke-opacity="1.0" stroke-width="3.0" />
            <path d=" M 748.711, 919.846 748.199, 920.335 746.718, 921.749 746.262, 922.185 746.008, 922.428 745.135, 923.261 745.127, 923.269 744.725, 923.653 743.858, 924.482 742.977, 926.690 743.512, 928.717 744.436, 930.668 744.706, 931.240 745.448, 931.437 746.131, 931.556 747.990, 931.881 748.401, 931.952 749.058, 932.067 751.315, 931.659 751.728, 931.585 755.742, 931.185 756.082, 931.151 758.247, 930.187 758.248, 930.186 759.836, 929.479 759.874, 929.462 760.302, 929.272 760.511, 929.178 761.018, 928.874 761.555, 928.341 761.602, 928.294 761.940, 927.959 762.101, 927.799 763.526, 926.386 763.799, 926.115 765.062, 924.862 765.112, 924.813 767.530, 923.656 767.814, 923.519 " fill="none" stroke="rgb(0, 0, 0)" stroke-linecap="butt" stroke-linejoin="round" stroke-opacity="1.0" stroke-width="3.0" />
            <path d=" M 431.827, 956.378 433.892, 966.162 434.171, 967.479 436.879, 977.105 437.923, 980.819 441.827, 990.025 443.623, 994.262 443.843, 994.781 " fill="none" stroke="rgb(0, 0, 0)" stroke-linecap="butt" stroke-linejoin="round" stroke-opacity="1.0" stroke-width="3.0" />
            <path d=" M 523.024, 536.183 519.669, 536.651 515.961, 535.755 519.101, 536.825 523.024, 536.183 524.042, 536.016 524.681, 535.912 525.120, 535.317 527.616, 531.929 529.210, 530.775 535.473, 528.286 539.557, 526.103 542.130, 526.070 545.475, 525.457 545.991, 525.362 " fill="none" stroke="rgb(0, 0, 0)" stroke-linecap="butt" stroke-linejoin="round" stroke-opacity="1.0" stroke-width="3.0" />
            <path d=" M 993.448, 554.446 996.615, 546.257 999.293, 537.645 999.976, 532.259 1001.648, 527.702 1001.653, 527.689 1001.915, 526.975 1002.493, 525.398 1002.564, 525.207 1002.652, 524.967 1002.692, 524.856 1002.641, 525.114 1000.739, 534.673 " fill="none" stroke="rgb(0, 0, 0)" stroke-linecap="butt" stroke-linejoin="round" stroke-opacity="1.0" stroke-width="3.0" />
            <path d=" M 663.367, 782.622 664.208, 783.096 664.704, 783.376 665.413, 783.776 665.486, 783.776 667.772, 783.790 669.857, 783.802 671.897, 784.089 671.906, 784.090 672.288, 784.144 672.305, 784.146 672.325, 784.149 675.905, 784.652 678.839, 785.285 681.523, 785.964 686.568, 787.241 689.260, 787.287 689.640, 787.157 694.346, 784.783 699.134, 780.522 699.303, 780.372 699.953, 779.793 699.958, 779.789 700.507, 779.301 701.290, 778.604 " fill="none" stroke="rgb(0, 0, 0)" stroke-linecap="butt" stroke-linejoin="round" stroke-opacity="1.0" stroke-width="3.0" />
            <path d=" M 857.562, 848.320 859.267, 848.022 869.118, 846.301 870.282, 846.098 874.846, 845.310 879.308, 843.856 883.875, 842.297 891.946, 838.833 895.993, 836.329 896.800, 835.830 " fill="none" stroke="rgb(0, 0, 0)" stroke-linecap="butt" stroke-linejoin="round" stroke-opacity="1.0" stroke-width="3.0" />
            <path d=" M 714.559, 958.153 711.246, 961.016 707.794, 963.444 706.074, 966.896 706.406, 968.736 706.620, 972.303 707.803, 974.463 710.990, 977.634 712.021, 979.552 713.748, 982.582 716.584, 986.092 718.276, 986.783 719.434, 986.460 721.461, 985.239 722.419, 984.275 " fill="none" stroke="rgb(0, 0, 0)" stroke-linecap="butt" stroke-linejoin="round" stroke-opacity="1.0" stroke-width="3.0" />
            <path d=" M 769.468, 811.361 769.232, 811.354 768.783, 811.422 763.099, 812.279 760.466, 813.537 760.365, 813.585 760.113, 813.705 760.107, 813.708 757.613, 814.900 755.964, 817.291 757.048, 823.762 757.994, 828.959 761.137, 834.272 762.613, 837.864 762.649, 837.953 762.650, 837.955 763.105, 839.062 764.489, 842.092 " fill="none" stroke="rgb(0, 0, 0)" stroke-linecap="butt" stroke-linejoin="round" stroke-opacity="1.0" stroke-width="3.0" />
            <path d=" M 674.772, 836.284 674.709, 836.337 673.210, 837.592 671.813, 839.667 671.075, 840.977 670.746, 842.636 672.232, 843.670 673.197, 843.928 681.119, 843.203 689.285, 841.748 693.144, 838.917 696.347, 836.899 696.936, 836.528 698.822, 836.239 699.159, 836.187 702.482, 837.890 " fill="none" stroke="rgb(0, 0, 0)" stroke-linecap="butt" stroke-linejoin="round" stroke-opacity="1.0" stroke-width="3.0" />
            <path d=" M 964.094, 621.719 964.715, 621.232 964.996, 620.914 966.735, 618.939 967.908, 617.293 970.305, 613.929 970.639, 613.460 971.627, 612.074 972.020, 611.522 972.265, 611.178 973.774, 609.060 975.418, 605.683 977.691, 601.017 981.880, 591.937 982.084, 591.495 983.411, 584.915 " fill="none" stroke="rgb(0, 0, 0)" stroke-linecap="butt" stroke-linejoin="round" stroke-opacity="1.0" stroke-width="3.0" />
            <path d=" M 753.991, 590.223 759.216, 584.992 762.129, 581.175 765.103, 577.279 765.111, 577.259 765.250, 576.882 766.526, 573.435 765.196, 568.271 765.082, 567.828 764.657, 565.932 764.241, 565.533 762.320, 563.693 761.126, 562.924 764.194, 564.418 766.468, 565.525 765.482, 567.655 765.196, 568.271 " fill="none" stroke="rgb(0, 0, 0)" stroke-linecap="butt" stroke-linejoin="round" stroke-opacity="1.0" stroke-width="3.0" />
            <path d=" M 944.474, 379.397 944.737, 378.291 944.740, 378.278 944.794, 378.052 944.860, 377.772 946.219, 372.053 946.365, 370.712 946.389, 370.487 946.885, 365.948 946.941, 365.663 948.376, 358.437 949.106, 354.211 949.303, 351.738 949.457, 348.374 949.760, 343.523 950.330, 341.284 950.864, 339.006 951.299, 337.145 " fill="none" stroke="rgb(0, 0, 0)" stroke-linecap="butt" stroke-linejoin="round" stroke-opacity="1.0" stroke-width="3.0" />
            <path d=" M 698.504, 868.766 695.561, 869.598 693.248, 871.362 688.946, 876.435 687.195, 878.777 686.600, 882.400 687.465, 883.709 687.159, 885.393 687.849, 886.697 689.302, 887.286 692.155, 887.320 696.400, 886.527 699.788, 883.944 700.417, 883.604 704.256, 881.523 705.279, 882.110 " fill="none" stroke="rgb(0, 0, 0)" stroke-linecap="butt" stroke-linejoin="round" stroke-opacity="1.0" stroke-width="3.0" />
            <path d=" M 896.693, 311.944 895.743, 311.203 890.391, 307.028 886.314, 305.464 883.036, 303.366 880.423, 301.658 876.583, 300.063 873.023, 298.121 867.309, 295.705 860.903, 295.189 857.394, 296.184 857.318, 296.205 " fill="none" stroke="rgb(0, 0, 0)" stroke-linecap="butt" stroke-linejoin="round" stroke-opacity="1.0" stroke-width="3.0" />
            <path d=" M 775.607, 595.801 768.723, 591.381 765.846, 589.534 763.868, 589.202 761.988, 589.692 760.599, 590.774 758.940, 593.416 758.776, 593.833 758.011, 595.764 757.322, 602.955 754.539, 611.357 753.646, 613.983 752.391, 616.208 " fill="none" stroke="rgb(0, 0, 0)" stroke-linecap="butt" stroke-linejoin="round" stroke-opacity="1.0" stroke-width="3.0" />
            <path d=" M 764.328, 979.902 767.587, 978.449 774.329, 973.849 778.387, 970.741 782.516, 966.616 784.748, 964.430 789.372, 959.200 792.616, 954.758 796.432, 949.764 " fill="none" stroke="rgb(0, 0, 0)" stroke-linecap="butt" stroke-linejoin="round" stroke-opacity="1.0" stroke-width="3.0" />
            <path d=" M 869.038, 781.414 864.848, 782.273 860.614, 783.857 858.088, 785.218 853.259, 786.259 849.474, 788.323 845.971, 789.311 841.057, 792.452 833.674, 799.197 832.244, 800.503 830.511, 802.086 " fill="none" stroke="rgb(0, 0, 0)" stroke-linecap="butt" stroke-linejoin="round" stroke-opacity="1.0" stroke-width="3.0" />
            <path d=" M 575.391, 469.857 575.248, 470.001 572.934, 472.994 570.043, 477.114 568.877, 479.913 567.014, 484.449 563.778, 490.992 561.856, 494.602 566.619, 486.208 568.877, 479.913 " fill="none" stroke="rgb(0, 0, 0)" stroke-linecap="butt" stroke-linejoin="round" stroke-opacity="1.0" stroke-width="3.0" />
            <path d=" M 664.208, 783.096 663.175, 783.996 662.259, 785.217 662.238, 785.256 662.195, 792.670 662.426, 793.993 662.731, 795.737 661.619, 797.715 658.560, 803.157 658.073, 805.672 658.156, 808.025 659.134, 808.688 661.564, 810.033 665.689, 810.417 671.518, 810.579 673.787, 811.932 675.068, 812.185 " fill="none" stroke="rgb(0, 0, 0)" stroke-linecap="butt" stroke-linejoin="round" stroke-opacity="1.0" stroke-width="3.0" />
            <path d=" M 759.836, 929.479 758.614, 931.728 757.990, 932.301 757.980, 932.310 757.576, 932.681 756.239, 933.909 754.538, 935.471 752.118, 938.562 749.034, 942.181 748.673, 942.605 746.398, 945.273 747.048, 947.445 749.973, 948.319 754.802, 947.207 755.100, 947.139 756.522, 946.811 757.130, 946.671 757.197, 946.656 757.229, 946.648 757.581, 946.568 757.687, 946.543 758.031, 946.464 758.164, 946.433 759.722, 946.075 762.875, 943.882 767.070, 940.356 " fill="none" stroke="rgb(0, 0, 0)" stroke-linecap="butt" stroke-linejoin="round" stroke-opacity="1.0" stroke-width="3.0" />
            <path d=" M 521.182, 776.671 519.763, 781.497 518.123, 785.846 515.702, 790.029 514.339, 793.697 514.333, 793.715 513.642, 795.575 513.122, 796.973 511.575, 800.603 510.334, 808.974 508.629, 813.360 507.076, 819.059 506.803, 820.062 " fill="none" stroke="rgb(0, 0, 0)" stroke-linecap="butt" stroke-linejoin="round" stroke-opacity="1.0" stroke-width="3.0" />
            <path d=" M 780.775, 361.896 777.096, 364.241 775.338, 365.362 770.087, 366.097 765.390, 365.669 760.195, 363.650 759.593, 363.416 759.477, 363.371 758.153, 362.571 756.747, 361.722 753.593, 360.745 751.496, 360.096 747.022, 360.399 743.090, 360.598 737.092, 363.236 " fill="none" stroke="rgb(0, 0, 0)" stroke-linecap="butt" stroke-linejoin="round" stroke-opacity="1.0" stroke-width="3.0" />
            <path d=" M 568.317, 637.967 562.637, 640.603 562.610, 640.616 558.876, 642.254 553.411, 645.187 547.177, 647.741 539.959, 654.662 539.081, 655.504 532.526, 663.056 531.687, 664.022 530.761, 665.922 " fill="none" stroke="rgb(0, 0, 0)" stroke-linecap="butt" stroke-linejoin="round" stroke-opacity="1.0" stroke-width="3.0" />
            <path d=" M 608.947, 826.240 610.491, 826.247 610.742, 826.248 611.139, 826.250 611.856, 826.254 614.426, 824.826 617.128, 821.892 622.788, 813.908 625.025, 809.910 630.456, 805.320 631.550, 801.414 631.350, 795.361 629.397, 790.718 628.881, 789.307 " fill="none" stroke="rgb(0, 0, 0)" stroke-linecap="butt" stroke-linejoin="round" stroke-opacity="1.0" stroke-width="3.0" />
            <path d=" M 612.492, 470.312 615.504, 468.118 620.273, 466.377 622.018, 464.508 622.638, 463.680 623.987, 459.961 624.071, 455.560 623.155, 454.489 618.264, 450.897 610.256, 448.207 606.130, 448.095 602.988, 448.602 600.166, 450.027 599.331, 450.450 " fill="none" stroke="rgb(0, 0, 0)" stroke-linecap="butt" stroke-linejoin="round" stroke-opacity="1.0" stroke-width="3.0" />
            <path d=" M 860.935, 411.708 859.833, 419.009 860.675, 421.581 861.307, 424.439 863.332, 427.284 862.672, 428.883 858.994, 433.365 853.709, 439.761 853.363, 439.923 851.345, 440.864 845.328, 443.672 844.849, 443.895 843.903, 444.232 841.776, 444.990 840.179, 445.558 842.456, 445.077 " fill="none" stroke="rgb(0, 0, 0)" stroke-linecap="butt" stroke-linejoin="round" stroke-opacity="1.0" stroke-width="3.0" />
            <path d=" M 669.776, 709.987 672.018, 707.949 673.096, 706.969 673.580, 706.375 676.787, 702.440 679.549, 699.050 679.620, 698.986 681.093, 697.661 683.763, 695.256 685.577, 693.623 686.149, 693.079 687.102, 692.175 689.737, 689.672 689.860, 689.555 690.272, 689.164 690.558, 688.892 690.959, 688.512 691.072, 688.404 692.669, 686.888 696.003, 682.754 696.209, 682.590 696.356, 682.473 696.686, 682.211 698.269, 680.952 698.292, 680.934 703.089, 677.120 705.177, 675.459 " fill="none" stroke="rgb(0, 0, 0)" stroke-linecap="butt" stroke-linejoin="round" stroke-opacity="1.0" stroke-width="3.0" />
            <path d=" M 428.159, 915.355 427.965, 924.564 427.917, 930.081 427.922, 932.581 428.381, 942.143 429.611, 949.268 431.827, 956.378 432.445, 958.363 434.661, 964.874 " fill="none" stroke="rgb(0, 0, 0)" stroke-linecap="butt" stroke-linejoin="round" stroke-opacity="1.0" stroke-width="3.0" />
            <path d=" M 708.891, 526.238 703.145, 524.801 702.160, 524.451 700.781, 523.960 698.623, 523.192 701.004, 524.455 701.712, 524.831 702.470, 525.182 708.865, 528.144 716.686, 530.669 719.586, 530.914 719.668, 530.921 719.735, 530.926 722.412, 531.152 728.672, 531.356 729.791, 531.392 731.571, 531.450 736.032, 531.568 736.090, 531.570 737.000, 531.594 " fill="none" stroke="rgb(0, 0, 0)" stroke-linecap="butt" stroke-linejoin="round" stroke-opacity="1.0" stroke-width="3.0" />
            <path d=" M 952.533, 753.759 955.689, 748.937 955.822, 748.733 956.235, 748.025 957.121, 746.508 959.347, 742.697 962.204, 736.697 962.610, 736.222 967.153, 732.096 974.277, 725.078 974.576, 724.783 971.437, 727.723 963.933, 733.975 " fill="none" stroke="rgb(0, 0, 0)" stroke-linecap="butt" stroke-linejoin="round" stroke-opacity="1.0" stroke-width="3.0" />
            <path d=" M 458.489, 962.766 451.497, 967.686 450.646, 968.285 450.457, 968.418 450.212, 968.590 447.749, 971.286 447.329, 975.955 446.886, 978.808 447.614, 983.983 448.848, 987.019 451.442, 995.727 452.880, 1002.129 453.077, 1002.459 453.683, 1003.480 453.804, 1003.684 456.123, 1007.590 " fill="none" stroke="rgb(0, 0, 0)" stroke-linecap="butt" stroke-linejoin="round" stroke-opacity="1.0" stroke-width="3.0" />
            <path d=" M 623.409, 613.079 615.759, 613.667 611.923, 613.769 607.043, 616.070 606.598, 616.280 606.225, 616.456 605.921, 616.599 605.879, 616.619 599.973, 617.734 594.927, 618.177 590.310, 620.582 588.149, 622.981 584.514, 625.768 583.189, 627.484 581.822, 628.627 579.739, 630.369 577.444, 632.289 " fill="none" stroke="rgb(0, 0, 0)" stroke-linecap="butt" stroke-linejoin="round" stroke-opacity="1.0" stroke-width="3.0" />
            <path d=" M 841.007, 625.979 842.144, 632.164 842.260, 632.798 842.656, 634.951 843.081, 637.261 845.297, 639.993 845.462, 640.198 845.937, 640.783 847.062, 642.171 848.186, 643.352 851.320, 645.207 854.799, 646.396 857.019, 646.731 858.374, 646.936 859.341, 647.082 860.100, 647.197 865.275, 647.600 866.642, 647.580 867.045, 647.574 868.927, 647.545 869.447, 647.537 874.197, 647.848 877.559, 648.485 880.735, 648.488 880.920, 648.488 " fill="none" stroke="rgb(0, 0, 0)" stroke-linecap="butt" stroke-linejoin="round" stroke-opacity="1.0" stroke-width="3.0" />
            <path d=" M 936.667, 463.531 935.867, 456.253 935.652, 452.309 935.237, 449.689 934.635, 446.543 934.431, 441.572 934.457, 439.101 934.479, 436.930 934.482, 436.688 934.483, 436.596 934.500, 434.942 934.820, 432.784 934.857, 432.533 935.381, 429.001 938.672, 422.550 938.644, 415.188 938.879, 412.608 938.980, 411.498 " fill="none" stroke="rgb(0, 0, 0)" stroke-linecap="butt" stroke-linejoin="round" stroke-opacity="1.0" stroke-width="3.0" />
            <path d=" M 623.343, 794.382 624.616, 793.216 626.843, 791.174 628.734, 789.442 628.881, 789.307 631.918, 786.525 634.285, 784.355 642.460, 778.594 646.000, 776.100 646.029, 776.079 647.960, 774.718 650.964, 773.376 652.204, 772.822 660.380, 769.169 660.536, 769.100 660.603, 769.070 660.848, 768.961 661.265, 768.774 661.361, 768.713 665.016, 766.405 665.699, 765.974 666.605, 765.401 667.642, 764.747 " fill="none" stroke="rgb(0, 0, 0)" stroke-linecap="butt" stroke-linejoin="round" stroke-opacity="1.0" stroke-width="3.0" />
            <path d=" M 857.019, 646.731 861.543, 649.330 866.123, 650.711 875.613, 653.863 882.857, 656.270 888.973, 657.304 889.783, 657.413 896.445, 658.079 905.254, 657.807 905.377, 657.825 908.851, 658.346 " fill="none" stroke="rgb(0, 0, 0)" stroke-linecap="butt" stroke-linejoin="round" stroke-opacity="1.0" stroke-width="3.0" />
            <path d=" M 769.045, 516.584 765.989, 521.487 765.617, 522.170 769.651, 514.712 774.791, 507.241 779.858, 501.146 784.751, 495.232 793.869, 491.125 795.706, 490.298 797.631, 489.446 " fill="none" stroke="rgb(0, 0, 0)" stroke-linecap="butt" stroke-linejoin="round" stroke-opacity="1.0" stroke-width="3.0" />
            <path d=" M 732.888, 369.094 731.762, 372.715 731.658, 373.545 731.451, 375.195 731.232, 379.409 731.224, 379.564 730.956, 384.731 730.926, 385.299 731.380, 387.550 732.368, 391.870 734.512, 399.533 737.328, 406.323 738.366, 408.487 742.515, 416.916 743.526, 418.690 744.291, 420.033 " fill="none" stroke="rgb(0, 0, 0)" stroke-linecap="butt" stroke-linejoin="round" stroke-opacity="1.0" stroke-width="3.0" />
            <path d=" M 861.962, 451.536 857.390, 454.071 848.169, 457.265 838.417, 459.478 836.212, 459.979 828.735, 460.651 823.445, 462.223 820.346, 465.331 820.252, 465.436 820.075, 465.633 815.799, 470.406 815.223, 473.347 " fill="none" stroke="rgb(0, 0, 0)" stroke-linecap="butt" stroke-linejoin="round" stroke-opacity="1.0" stroke-width="3.0" />
            <path d=" M 537.107, 960.134 539.433, 960.013 544.568, 959.745 547.499, 959.592 552.620, 958.292 555.143, 956.818 563.575, 951.543 568.034, 948.809 571.801, 945.907 572.450, 941.607 568.701, 938.798 561.222, 938.933 " fill="none" stroke="rgb(0, 0, 0)" stroke-linecap="butt" stroke-linejoin="round" stroke-opacity="1.0" stroke-width="3.0" />
            <path d=" M 731.658, 373.545 728.320, 374.363 722.336, 376.796 718.517, 377.792 716.039, 378.437 711.222, 379.693 711.097, 379.726 711.047, 379.739 710.785, 379.807 710.241, 379.949 703.366, 381.397 697.587, 381.913 695.957, 382.688 692.917, 384.046 685.332, 388.988 684.525, 393.229 684.269, 394.573 " fill="none" stroke="rgb(0, 0, 0)" stroke-linecap="butt" stroke-linejoin="round" stroke-opacity="1.0" stroke-width="3.0" />
            <path d=" M 809.080, 395.401 806.297, 394.762 799.725, 395.325 794.686, 397.235 791.017, 401.861 786.378, 405.893 784.269, 408.058 781.237, 409.912 780.623, 410.444 776.838, 413.793 775.379, 415.848 773.803, 417.038 772.253, 419.054 771.008, 420.020 769.725, 421.576 768.705, 422.813 766.686, 425.436 766.505, 425.670 766.373, 425.843 766.369, 425.848 " fill="none" stroke="rgb(0, 0, 0)" stroke-linecap="butt" stroke-linejoin="round" stroke-opacity="1.0" stroke-width="3.0" />
            <path d=" M 470.070, 675.083 467.281, 682.131 465.015, 691.871 464.121, 695.712 460.986, 705.208 459.930, 708.407 458.930, 713.602 456.264, 723.240 456.228, 723.371 455.173, 727.819 455.035, 728.400 " fill="none" stroke="rgb(0, 0, 0)" stroke-linecap="butt" stroke-linejoin="round" stroke-opacity="1.0" stroke-width="3.0" />
            <path d=" M 529.148, 981.711 530.775, 980.953 537.055, 981.534 537.462, 981.572 539.175, 981.731 548.023, 979.854 557.272, 976.050 557.820, 975.825 560.322, 974.374 561.642, 972.976 561.758, 971.619 561.870, 969.326 560.821, 966.117 552.056, 964.151 546.861, 961.696 " fill="none" stroke="rgb(0, 0, 0)" stroke-linecap="butt" stroke-linejoin="round" stroke-opacity="1.0" stroke-width="3.0" />
            <path d=" M 917.206, 756.986 909.138, 762.895 909.032, 762.972 900.460, 768.122 899.868, 768.478 893.183, 772.495 889.363, 774.338 889.117, 774.456 888.759, 774.629 884.747, 776.010 879.108, 778.376 874.236, 780.077 871.063, 780.674 869.038, 781.414 866.592, 782.309 " fill="none" stroke="rgb(0, 0, 0)" stroke-linecap="butt" stroke-linejoin="round" stroke-opacity="1.0" stroke-width="3.0" />
            <path d=" M 928.344, 807.886 928.821, 807.349 931.658, 804.157 935.023, 798.953 938.818, 793.042 940.370, 790.888 944.359, 785.159 946.120, 781.647 948.026, 777.500 948.791, 773.616 950.322, 769.805 952.307, 763.319 953.658, 760.062 953.638, 756.309 " fill="none" stroke="rgb(0, 0, 0)" stroke-linecap="butt" stroke-linejoin="round" stroke-opacity="1.0" stroke-width="3.0" />
            <path d=" M 714.776, 935.054 710.455, 935.533 705.958, 936.397 697.284, 941.373 696.242, 941.971 694.784, 943.439 694.334, 944.899 694.895, 947.036 698.394, 947.415 698.870, 947.740 699.619, 951.016 701.589, 952.462 702.099, 952.555 706.812, 952.620 711.118, 951.284 715.080, 950.199 716.279, 951.059 716.733, 955.356 716.686, 955.515 716.364, 956.594 716.363, 956.596 715.812, 958.443 " fill="none" stroke="rgb(0, 0, 0)" stroke-linecap="butt" stroke-linejoin="round" stroke-opacity="1.0" stroke-width="3.0" />
            <path d=" M 974.576, 724.783 977.002, 721.886 982.048, 713.431 985.757, 705.201 985.935, 701.865 987.311, 694.334 987.617, 689.405 987.592, 684.491 987.167, 680.302 986.689, 674.716 985.463, 669.615 984.406, 667.395 " fill="none" stroke="rgb(0, 0, 0)" stroke-linecap="butt" stroke-linejoin="round" stroke-opacity="1.0" stroke-width="3.0" />
            <path d=" M 985.726, 438.647 982.960, 432.570 978.080, 424.670 977.229, 423.577 976.432, 422.806 974.985, 421.406 974.547, 420.984 974.470, 420.851 971.748, 416.213 970.692, 414.413 970.663, 414.363 969.226, 411.915 968.123, 410.151 967.242, 408.742 965.064, 405.908 964.476, 405.142 962.520, 402.598 961.613, 401.417 961.608, 401.410 961.128, 400.787 960.601, 400.101 959.693, 398.919 959.664, 398.882 959.657, 398.875 959.027, 398.255 958.762, 397.994 958.686, 397.919 958.639, 397.873 956.954, 396.216 956.923, 396.185 956.401, 395.672 954.464, 393.741 954.176, 393.454 953.956, 393.236 952.657, 391.941 952.588, 391.875 951.768, 391.095 951.246, 390.598 951.217, 390.571 949.124, 388.578 " fill="none" stroke="rgb(0, 0, 0)" stroke-linecap="butt" stroke-linejoin="round" stroke-opacity="1.0" stroke-width="3.0" />
            <path d=" M 708.037, 672.721 709.302, 671.993 712.640, 670.072 721.307, 665.084 722.893, 664.172 723.055, 664.087 725.568, 662.776 729.624, 660.658 738.237, 657.585 739.987, 656.971 744.273, 655.467 749.283, 654.508 752.736, 654.037 759.875, 652.777 766.755, 652.147 " fill="none" stroke="rgb(0, 0, 0)" stroke-linecap="butt" stroke-linejoin="round" stroke-opacity="1.0" stroke-width="3.0" />
            <path d=" M 698.328, 839.063 697.896, 839.297 697.517, 839.504 696.940, 839.817 696.933, 839.821 696.708, 839.943 692.890, 842.016 689.301, 845.687 685.831, 850.890 683.186, 854.477 677.900, 860.609 677.804, 862.209 677.977, 865.089 678.140, 866.552 680.721, 867.205 684.196, 867.675 692.337, 867.646 698.361, 865.615 698.581, 865.437 701.316, 863.059 701.554, 862.961 703.634, 862.100 703.810, 862.028 704.387, 861.789 " fill="none" stroke="rgb(0, 0, 0)" stroke-linecap="butt" stroke-linejoin="round" stroke-opacity="1.0" stroke-width="3.0" />
            <path d=" M 666.605, 765.401 668.089, 764.807 668.094, 764.805 668.968, 764.455 671.809, 763.316 671.884, 763.286 671.945, 763.262 672.104, 763.198 672.290, 763.124 672.426, 763.069 672.588, 763.004 672.949, 762.859 673.411, 762.675 674.274, 762.329 674.413, 762.273 676.095, 761.599 680.607, 759.788 680.894, 759.673 681.408, 759.467 685.548, 757.805 685.563, 757.800 690.425, 756.203 690.656, 756.127 697.463, 753.892 699.396, 753.497 704.447, 752.465 714.244, 750.464 716.867, 749.928 718.696, 749.843 728.134, 749.403 " fill="none" stroke="rgb(0, 0, 0)" stroke-linecap="butt" stroke-linejoin="round" stroke-opacity="1.0" stroke-width="3.0" />
            <path d=" M 880.735, 648.488 884.902, 649.453 885.043, 649.486 888.549, 650.125 891.660, 650.780 898.054, 652.388 901.331, 653.107 904.985, 654.279 908.968, 655.273 910.881, 657.474 912.819, 658.934 914.326, 660.069 916.144, 662.774 918.339, 664.712 919.701, 668.588 920.228, 673.743 921.180, 676.210 921.584, 677.255 921.931, 678.154 923.140, 682.440 927.999, 684.788 " fill="none" stroke="rgb(0, 0, 0)" stroke-linecap="butt" stroke-linejoin="round" stroke-opacity="1.0" stroke-width="3.0" />
            <path d=" M 765.482, 567.655 768.666, 572.983 773.710, 578.454 776.509, 580.993 781.736, 584.549 787.829, 587.893 796.394, 593.055 798.141, 594.108 807.163, 598.421 807.337, 598.504 816.704, 602.005 817.474, 602.293 818.347, 602.632 822.218, 604.136 825.250, 605.314 " fill="none" stroke="rgb(0, 0, 0)" stroke-linecap="butt" stroke-linejoin="round" stroke-opacity="1.0" stroke-width="3.0" />
            <path d=" M 455.173, 727.819 454.669, 729.572 453.423, 735.131 451.978, 743.048 449.762, 752.799 449.329, 754.705 448.835, 762.874 447.226, 772.268 445.631, 778.705 444.843, 785.683 443.409, 791.638 442.364, 796.607 441.403, 802.504 440.640, 808.188 439.895, 813.736 " fill="none" stroke="rgb(0, 0, 0)" stroke-linecap="butt" stroke-linejoin="round" stroke-opacity="1.0" stroke-width="3.0" />
            <path d=" M 530.467, 693.166 530.430, 697.201 531.852, 702.016 531.089, 708.253 531.064, 712.755 531.064, 713.266 531.049, 721.928 531.041, 726.745 530.540, 730.608 528.549, 740.408 528.271, 741.774 528.181, 742.221 527.867, 743.767 526.156, 753.620 526.063, 754.152 523.576, 763.837 522.645, 767.462 522.012, 771.446 521.916, 772.052 521.583, 774.146 521.374, 775.462 521.358, 775.562 521.182, 776.671 520.656, 779.979 " fill="none" stroke="rgb(0, 0, 0)" stroke-linecap="butt" stroke-linejoin="round" stroke-opacity="1.0" stroke-width="3.0" />
            <path d=" M 918.358, 330.923 916.714, 330.589 913.029, 329.841 908.925, 327.652 907.387, 327.683 905.201, 327.726 900.724, 327.469 898.613, 327.696 896.876, 330.974 892.982, 332.752 891.486, 333.158 888.176, 334.057 880.109, 336.089 879.857, 336.155 879.797, 336.171 871.733, 338.289 862.244, 341.447 853.320, 344.416 846.671, 347.392 846.667, 347.394 846.405, 347.511 846.256, 347.578 842.118, 349.429 842.034, 349.467 837.879, 351.327 835.486, 352.231 " fill="none" stroke="rgb(0, 0, 0)" stroke-linecap="butt" stroke-linejoin="round" stroke-opacity="1.0" stroke-width="3.0" />
            <path d=" M 1002.692, 524.856 1003.031, 522.144 1003.297, 520.012 1003.311, 519.673 1003.317, 519.518 1003.549, 513.848 1004.540, 509.233 1004.726, 508.366 1004.999, 503.323 1004.211, 497.770 1004.135, 497.237 1004.125, 497.065 1003.892, 493.283 1003.836, 492.357 1003.537, 490.579 1003.108, 488.032 1002.647, 485.288 1002.176, 482.488 1001.674, 477.574 1000.966, 474.747 999.042, 469.323 998.191, 466.076 996.821, 463.767 993.757, 455.881 992.452, 451.068 991.167, 448.897 987.650, 442.157 985.739, 438.674 " fill="none" stroke="rgb(0, 0, 0)" stroke-linecap="butt" stroke-linejoin="round" stroke-opacity="1.0" stroke-width="3.0" />
            <path d=" M 1003.595, 490.267 1004.010, 488.029 1003.742, 487.280 1002.164, 477.432 999.702, 469.877 998.646, 467.133 997.309, 461.274 996.721, 457.614 994.443, 450.661 991.574, 444.692 988.976, 439.221 986.803, 435.568 983.923, 431.026 981.037, 426.648 978.908, 421.107 976.723, 417.594 971.998, 413.688 968.123, 410.151 " fill="none" stroke="rgb(0, 0, 0)" stroke-linecap="butt" stroke-linejoin="round" stroke-opacity="1.0" stroke-width="3.0" />
            <path d=" M 944.794, 553.869 945.764, 550.341 945.640, 545.759 945.868, 535.762 945.941, 532.577 947.115, 528.255 947.270, 520.916 948.418, 518.134 949.533, 508.196 949.608, 507.531 949.733, 502.555 949.744, 495.448 946.358, 487.523 944.721, 482.874 942.220, 473.192 941.826, 471.665 937.905, 467.872 937.283, 467.270 " fill="none" stroke="rgb(0, 0, 0)" stroke-linecap="butt" stroke-linejoin="round" stroke-opacity="1.0" stroke-width="3.0" />
            <path d=" M 973.191, 642.219 971.843, 637.814 971.831, 637.788 968.995, 631.658 966.425, 626.267 965.916, 625.198 965.727, 624.803 965.465, 624.254 965.217, 623.733 964.094, 621.719 962.992, 619.743 962.980, 619.722 962.972, 619.707 960.206, 614.750 956.218, 605.580 955.972, 605.013 955.266, 600.299 953.943, 596.092 953.918, 596.014 952.229, 590.643 949.691, 581.120 948.584, 575.985 947.138, 569.395 945.711, 564.297 945.158, 559.664 944.794, 553.869 944.785, 553.716 " fill="none" stroke="rgb(0, 0, 0)" stroke-linecap="butt" stroke-linejoin="round" stroke-opacity="1.0" stroke-width="3.0" />
            <path d=" M 649.699, 609.636 652.006, 608.105 654.974, 605.741 658.044, 604.018 661.217, 601.276 664.811, 598.591 667.560, 595.752 670.399, 591.980 672.450, 588.356 674.673, 583.048 675.916, 579.932 677.705, 575.531 678.364, 574.012 680.110, 569.251 683.221, 561.684 683.937, 559.828 683.997, 559.672 683.997, 559.671 684.566, 558.195 685.331, 551.202 684.916, 545.230 682.244, 538.022 679.195, 537.573 677.361, 538.309 676.909, 538.843 674.699, 541.452 " fill="none" stroke="rgb(0, 0, 0)" stroke-linecap="butt" stroke-linejoin="round" stroke-opacity="1.0" stroke-width="3.0" />
            <path d=" M 440.640, 808.188 438.409, 817.936 438.365, 818.130 437.059, 823.317 435.156, 831.018 433.340, 839.251 431.728, 849.120 431.226, 852.193 430.422, 862.160 430.171, 865.264 429.333, 875.229 429.116, 877.814 428.435, 887.790 428.195, 891.305 427.707, 901.293 427.536, 904.780 427.712, 911.154 428.159, 915.355 428.383, 917.455 " fill="none" stroke="rgb(0, 0, 0)" stroke-linecap="butt" stroke-linejoin="round" stroke-opacity="1.0" stroke-width="3.0" />
            <path d=" M 769.436, 969.472 771.511, 969.865 773.862, 969.613 778.573, 964.125 781.771, 959.810 781.974, 959.536 783.005, 958.145 784.932, 956.759 790.175, 952.987 792.305, 950.808 797.503, 945.871 799.871, 943.621 801.692, 941.288 802.735, 939.952 802.773, 939.903 803.597, 938.848 804.837, 937.259 806.978, 933.936 810.216, 928.911 811.770, 926.761 811.945, 926.519 814.090, 923.553 816.658, 920.002 817.432, 918.527 821.841, 911.101 823.819, 906.931 827.447, 897.612 828.382, 895.211 830.122, 890.589 832.620, 880.906 833.050, 879.238 834.320, 875.705 " fill="none" stroke="rgb(0, 0, 0)" stroke-linecap="butt" stroke-linejoin="round" stroke-opacity="1.0" stroke-width="3.0" />
            <path d=" M 515.961, 535.755 514.620, 536.079 512.886, 538.009 511.376, 540.245 508.175, 541.258 504.059, 541.360 499.552, 544.552 497.251, 547.882 494.300, 550.879 493.747, 551.504 491.433, 558.169 488.130, 562.887 486.950, 565.887 485.780, 571.576 482.290, 580.677 480.727, 584.377 480.448, 587.849 479.380, 592.355 479.264, 599.022 479.426, 602.184 479.718, 604.609 479.335, 611.715 479.250, 621.715 479.249, 621.859 479.307, 625.541 479.754, 632.857 478.953, 635.481 478.939, 637.151 478.923, 639.176 " fill="none" stroke="rgb(0, 0, 0)" stroke-linecap="butt" stroke-linejoin="round" stroke-opacity="1.0" stroke-width="3.0" />
            <path d=" M 512.161, 1049.156 518.350, 1050.980 526.381, 1051.507 535.004, 1051.129 541.754, 1050.256 551.448, 1047.800 551.680, 1047.741 560.941, 1043.968 561.370, 1043.793 564.989, 1041.274 567.342, 1038.699 567.346, 1037.055 565.928, 1035.722 562.635, 1035.030 560.467, 1034.657 555.787, 1034.708 547.736, 1033.502 538.433, 1030.601 533.794, 1027.661 528.722, 1024.884 521.826, 1019.490 520.880, 1018.428 516.836, 1016.241 514.040, 1013.760 " fill="none" stroke="rgb(0, 0, 0)" stroke-linecap="butt" stroke-linejoin="round" stroke-opacity="1.0" stroke-width="3.0" />
            <path d=" M 678.204, 411.671 677.897, 413.078 677.078, 414.132 675.996, 415.525 675.775, 415.809 673.652, 419.916 672.472, 422.863 671.133, 426.624 669.981, 432.180 669.565, 434.700 668.163, 444.602 667.993, 445.802 667.466, 455.610 667.378, 458.908 667.251, 463.623 668.004, 468.806 668.783, 474.168 671.172, 480.600 675.740, 489.496 677.454, 492.835 679.289, 497.876 679.324, 497.972 679.404, 498.167 681.449, 503.160 682.518, 505.768 685.322, 512.078 686.427, 514.010 691.580, 518.710 698.623, 523.192 " fill="none" stroke="rgb(0, 0, 0)" stroke-linecap="butt" stroke-linejoin="round" stroke-opacity="1.0" stroke-width="3.0" />
            <path d=" M 650.204, 539.009 651.473, 539.414 651.475, 539.414 651.624, 539.462 651.869, 539.540 652.057, 539.600 652.109, 539.616 655.642, 540.741 656.024, 540.390 656.121, 540.299 656.200, 540.227 658.125, 538.453 661.612, 534.038 665.425, 530.899 667.802, 527.363 669.567, 523.398 669.587, 521.986 669.597, 521.250 669.416, 519.062 667.082, 514.065 664.840, 511.341 663.466, 509.672 662.689, 508.730 658.716, 503.765 656.029, 500.723 653.351, 496.375 649.997, 489.809 645.555, 483.421 641.538, 479.060 636.541, 477.456 626.566, 478.164 625.624, 478.231 620.044, 479.051 616.069, 483.248 612.759, 485.900 610.092, 488.817 607.137, 493.046 604.702, 496.056 604.206, 496.892 " fill="none" stroke="rgb(0, 0, 0)" stroke-linecap="butt" stroke-linejoin="round" stroke-opacity="1.0" stroke-width="3.0" />
            <path d=" M 801.792, 654.926 801.925, 654.986 803.699, 655.786 806.696, 657.137 807.531, 657.514 816.714, 661.472 818.052, 662.049 822.287, 662.550 822.294, 662.551 825.367, 662.915 832.603, 660.937 837.007, 654.353 838.058, 649.799 839.119, 645.082 839.714, 639.442 839.621, 638.248 839.500, 637.589 838.775, 633.626 837.516, 630.169 837.435, 629.946 835.417, 626.190 834.147, 623.826 827.866, 616.314 827.391, 615.918 824.338, 613.373 823.008, 612.345 820.741, 610.591 818.103, 609.309 815.039, 607.821 805.751, 604.113 803.205, 603.097 794.931, 602.097 792.831, 601.799 791.836, 601.658 790.050, 601.405 788.698, 601.214 786.885, 600.957 785.105, 600.704 " fill="none" stroke="rgb(0, 0, 0)" stroke-linecap="butt" stroke-linejoin="round" stroke-opacity="1.0" stroke-width="3.0" />
            <path d=" M 757.581, 946.568 757.585, 946.618 757.249, 947.154 757.228, 947.186 757.191, 947.247 756.605, 948.181 756.472, 948.393 756.408, 948.495 756.074, 949.027 755.329, 950.217 755.209, 950.395 754.557, 951.365 751.763, 955.524 749.835, 958.572 749.267, 959.470 748.352, 960.915 745.245, 964.367 745.167, 964.454 745.015, 964.635 744.721, 964.985 739.011, 971.788 732.742, 979.579 731.273, 981.404 724.524, 988.783 723.683, 989.702 721.988, 991.455 720.957, 992.522 718.312, 997.030 719.172, 998.850 720.537, 1001.372 724.871, 1000.687 727.333, 999.528 731.325, 997.648 731.837, 997.407 735.571, 995.648 737.804, 994.306 744.335, 990.382 746.551, 989.006 748.801, 987.873 750.533, 987.001 750.555, 986.990 750.978, 986.666 753.338, 984.860 755.292, 983.364 762.031, 977.288 766.095, 972.586 768.878, 969.367 768.902, 969.338 768.932, 969.304 769.410, 968.751 " fill="none" stroke="rgb(0, 0, 0)" stroke-linecap="butt" stroke-linejoin="round" stroke-opacity="1.0" stroke-width="3.0" />
            <path d=" M 698.669, 892.349 693.291, 896.351 686.055, 901.734 678.662, 906.847 675.551, 908.802 667.929, 913.960 661.775, 917.767 657.282, 920.252 653.586, 922.322 652.932, 925.248 655.380, 926.125 658.366, 926.173 659.546, 926.110 663.080, 925.876 665.091, 925.227 669.045, 924.732 675.572, 923.901 681.496, 922.120 683.724, 921.439 691.268, 919.971 700.833, 917.059 701.610, 916.823 702.123, 916.706 707.276, 915.536 713.454, 913.368 719.070, 915.595 719.164, 915.703 721.862, 918.798 721.924, 918.870 723.056, 920.169 " fill="none" stroke="rgb(0, 0, 0)" stroke-linecap="butt" stroke-linejoin="round" stroke-opacity="1.0" stroke-width="3.0" />
            <path d=" M 507.076, 819.059 505.844, 821.763 505.090, 823.418 505.029, 823.553 504.838, 824.274 504.674, 824.891 504.569, 825.288 504.026, 827.338 503.729, 828.458 503.717, 828.489 499.993, 837.770 499.715, 838.463 496.528, 847.942 495.384, 851.348 492.317, 860.702 491.645, 862.753 490.711, 865.758 490.619, 866.053 490.605, 866.096 490.223, 867.325 489.041, 871.128 487.316, 877.183 484.320, 886.724 481.790, 894.781 481.440, 896.538 480.860, 899.444 478.417, 908.986 476.129, 916.496 473.346, 926.101 472.768, 928.096 470.958, 937.828 468.031, 947.390 466.714, 951.691 465.396, 954.885 464.105, 958.010 463.689, 959.019 463.317, 960.818 462.176, 966.333 461.972, 969.738 " fill="none" stroke="rgb(0, 0, 0)" stroke-linecap="butt" stroke-linejoin="round" stroke-opacity="1.0" stroke-width="3.0" />
            <path d=" M 845.450, 299.540 841.355, 300.541 836.244, 301.988 830.666, 304.211 827.953, 304.710 822.772, 308.692 819.776, 311.542 815.708, 315.734 814.255, 317.257 808.924, 321.820 803.768, 325.847 800.699, 327.764 795.651, 332.110 794.031, 333.333 790.973, 336.935 787.675, 339.711 785.698, 340.354 781.602, 342.038 778.329, 343.329 773.301, 344.970 771.792, 345.295 769.310, 346.235 764.759, 347.790 762.306, 349.516 759.190, 350.748 757.174, 351.080 752.801, 352.299 751.565, 352.829 748.325, 354.074 743.740, 354.469 741.740, 354.835 740.612, 355.090 735.016, 356.498 733.657, 356.921 727.482, 358.835 722.643, 362.134 719.761, 364.791 717.928, 366.530 715.761, 366.948 711.774, 371.532 710.778, 375.826 710.980, 378.767 " fill="none" stroke="rgb(0, 0, 0)" stroke-linecap="butt" stroke-linejoin="round" stroke-opacity="1.0" stroke-width="3.0" />
            <path d=" M 727.124, 749.271 728.134, 749.403 732.054, 749.918 742.038, 750.482 749.273, 750.891 752.206, 750.639 762.206, 750.555 766.033, 750.523 771.606, 749.681 772.993, 749.471 779.608, 748.288 783.717, 747.553 787.318, 746.513 788.135, 746.276 788.757, 746.097 794.334, 744.485 796.030, 744.073 796.186, 744.035 801.461, 742.752 810.849, 739.308 814.761, 737.873 819.701, 735.607 828.790, 731.437 829.134, 731.279 835.726, 727.127 840.460, 724.029 845.260, 721.313 851.198, 716.377 858.079, 713.142 862.002, 710.307 862.656, 707.979 864.485, 698.148 864.873, 696.063 866.567, 691.460 866.632, 689.321 864.531, 682.085 861.537, 678.956 859.851, 678.493 851.258, 679.958 849.867, 679.672 841.366, 675.231 832.559, 670.493 832.363, 670.387 825.571, 666.255 816.206, 662.747 815.547, 662.500 806.902, 658.896 806.236, 658.484 803.473, 656.774 801.778, 655.726 801.623, 655.630 801.617, 655.626 801.451, 655.523 " fill="none" stroke="rgb(0, 0, 0)" stroke-linecap="butt" stroke-linejoin="round" stroke-opacity="1.0" stroke-width="3.0" />
        </g>
    </g>
</svg>
