<?xml version='1.0' encoding='ascii'?>
<svg xmlns="http://www.w3.org/2000/svg" height="1280" version="1.1" width="1280">
    <g id="RenderLayer_LineSet" inkscape:groupmode="lineset" inkscape:label="RenderLayer_LineSet" xmlns:inkscape="http://www.inkscape.org/namespaces/inkscape">
        <g id="strokes" inkscape:groupmode="layer" inkscape:label="strokes" xmlns:inkscape="http://www.inkscape.org/namespaces/inkscape">
            <path d=" M 786.675, 1102.452 788.269, 1103.089 789.719, 1103.362 790.430, 1103.495 790.680, 1103.542 795.160, 1104.384 795.583, 1104.464 796.035, 1104.549 796.895, 1104.660 797.436, 1104.729 797.529, 1104.726 797.833, 1104.714 797.862, 1104.713 798.023, 1104.706 799.514, 1104.648 799.522, 1104.648 800.127, 1104.624 802.986, 1104.512 803.073, 1104.508 806.327, 1105.986 " fill="none" stroke="rgb(0, 0, 0)" stroke-linecap="butt" stroke-linejoin="round" stroke-opacity="1.0" stroke-width="3.0" />
            <path d=" M 546.119, 533.681 544.660, 532.789 541.568, 530.898 536.474, 527.321 532.149, 525.253 530.417, 524.758 528.248, 524.769 528.172, 524.782 " fill="none" stroke="rgb(0, 0, 0)" stroke-linecap="butt" stroke-linejoin="round" stroke-opacity="1.0" stroke-width="3.0" />
            <path d=" M 419.094, 738.514 417.488, 741.845 417.363, 742.103 415.893, 747.495 415.016, 755.373 414.303, 758.296 " fill="none" stroke="rgb(0, 0, 0)" stroke-linecap="butt" stroke-linejoin="round" stroke-opacity="1.0" stroke-width="3.0" />
            <path d=" M 611.467, 687.097 615.393, 688.854 616.364, 688.057 618.744, 684.990 621.188, 678.157 622.368, 675.507 622.742, 674.667 " fill="none" stroke="rgb(0, 0, 0)" stroke-linecap="butt" stroke-linejoin="round" stroke-opacity="1.0" stroke-width="3.0" />
            <path d=" M 416.876, 912.636 419.072, 918.841 419.674, 927.251 420.246, 932.755 " fill="none" stroke="rgb(0, 0, 0)" stroke-linecap="butt" stroke-linejoin="round" stroke-opacity="1.0" stroke-width="3.0" />
            <path d=" M 679.842, 671.579 680.460, 672.816 681.255, 674.406 681.535, 674.966 681.565, 675.026 681.892, 675.680 682.050, 675.995 682.223, 676.342 682.592, 677.079 682.601, 677.098 682.679, 677.253 684.354, 678.941 686.139, 679.857 687.283, 680.202 687.553, 680.284 689.092, 680.748 689.685, 680.926 689.695, 680.930 689.780, 680.955 690.258, 681.099 691.108, 681.356 691.770, 681.511 692.980, 681.796 693.221, 681.853 693.244, 681.859 693.250, 681.860 693.341, 681.881 693.477, 681.925 695.662, 682.621 " fill="none" stroke="rgb(0, 0, 0)" stroke-linecap="butt" stroke-linejoin="round" stroke-opacity="1.0" stroke-width="3.0" />
            <path d=" M 776.984, 1182.877 772.788, 1187.827 768.414, 1193.219 768.152, 1193.698 766.207, 1197.256 765.729, 1198.130 764.872, 1199.700 " fill="none" stroke="rgb(0, 0, 0)" stroke-linecap="butt" stroke-linejoin="round" stroke-opacity="1.0" stroke-width="3.0" />
            <path d=" M 627.885, 446.097 626.515, 445.222 626.150, 444.989 621.570, 443.197 615.963, 442.740 613.013, 442.861 609.605, 443.455 607.743, 443.942 " fill="none" stroke="rgb(0, 0, 0)" stroke-linecap="butt" stroke-linejoin="round" stroke-opacity="1.0" stroke-width="3.0" />
            <path d=" M 663.112, 636.268 663.350, 635.963 663.448, 635.932 663.578, 635.891 663.596, 635.885 666.304, 635.025 667.047, 632.593 667.111, 631.596 667.218, 629.919 666.196, 625.255 665.605, 624.077 662.824, 618.533 " fill="none" stroke="rgb(0, 0, 0)" stroke-linecap="butt" stroke-linejoin="round" stroke-opacity="1.0" stroke-width="3.0" />
            <path d=" M 627.265, 753.626 629.222, 754.863 631.008, 755.514 635.811, 757.352 635.963, 757.410 636.015, 757.430 638.188, 758.262 643.089, 759.596 646.177, 759.956 646.682, 760.014 647.141, 760.068 " fill="none" stroke="rgb(0, 0, 0)" stroke-linecap="butt" stroke-linejoin="round" stroke-opacity="1.0" stroke-width="3.0" />
            <path d=" M 653.599, 875.884 652.648, 877.381 652.142, 877.915 651.092, 879.026 649.957, 880.227 648.163, 886.699 649.242, 889.213 653.259, 892.336 653.278, 892.351 653.316, 892.381 653.676, 892.660 653.989, 892.904 " fill="none" stroke="rgb(0, 0, 0)" stroke-linecap="butt" stroke-linejoin="round" stroke-opacity="1.0" stroke-width="3.0" />
            <path d=" M 695.424, 1061.682 691.005, 1062.727 690.685, 1062.817 697.859, 1059.213 703.352, 1059.514 704.151, 1059.558 704.336, 1059.568 704.464, 1059.575 705.632, 1059.639 706.061, 1059.662 706.190, 1059.669 " fill="none" stroke="rgb(0, 0, 0)" stroke-linecap="butt" stroke-linejoin="round" stroke-opacity="1.0" stroke-width="3.0" />
            <path d=" M 765.117, 777.082 764.188, 776.793 761.440, 776.451 760.381, 777.302 758.503, 781.285 757.612, 782.281 757.429, 782.487 757.126, 782.825 755.689, 784.432 754.595, 785.925 753.711, 787.410 751.598, 790.954 " fill="none" stroke="rgb(0, 0, 0)" stroke-linecap="butt" stroke-linejoin="round" stroke-opacity="1.0" stroke-width="3.0" />
            <path d=" M 605.254, 445.971 602.598, 445.257 600.041, 444.646 599.032, 444.405 598.262, 444.495 590.991, 445.958 587.884, 447.442 584.836, 449.404 " fill="none" stroke="rgb(0, 0, 0)" stroke-linecap="butt" stroke-linejoin="round" stroke-opacity="1.0" stroke-width="3.0" />
            <path d=" M 587.605, 715.756 587.183, 714.022 587.218, 712.318 587.239, 711.281 586.963, 709.911 585.735, 709.435 585.120, 709.197 584.913, 709.116 584.493, 708.954 581.928, 707.868 578.335, 706.348 577.678, 706.070 577.431, 705.844 574.390, 703.063 573.649, 701.942 " fill="none" stroke="rgb(0, 0, 0)" stroke-linecap="butt" stroke-linejoin="round" stroke-opacity="1.0" stroke-width="3.0" />
            <path d=" M 456.986, 658.710 453.910, 663.570 453.454, 664.290 448.561, 671.927 446.076, 677.604 " fill="none" stroke="rgb(0, 0, 0)" stroke-linecap="butt" stroke-linejoin="round" stroke-opacity="1.0" stroke-width="3.0" />
            <path d=" M 757.341, 1117.144 757.825, 1109.696 757.865, 1109.087 759.204, 1107.593 759.281, 1107.508 760.393, 1106.267 763.672, 1105.949 769.525, 1109.309 " fill="none" stroke="rgb(0, 0, 0)" stroke-linecap="butt" stroke-linejoin="round" stroke-opacity="1.0" stroke-width="3.0" />
            <path d=" M 680.527, 609.075 681.305, 609.110 688.874, 610.760 689.138, 610.818 689.252, 610.842 689.703, 610.941 689.901, 610.984 690.137, 611.016 691.469, 611.197 693.610, 612.127 695.026, 612.743 695.845, 613.099 697.039, 613.295 697.422, 613.358 698.856, 613.593 700.817, 613.916 701.192, 613.977 701.735, 614.066 701.827, 614.081 " fill="none" stroke="rgb(0, 0, 0)" stroke-linecap="butt" stroke-linejoin="round" stroke-opacity="1.0" stroke-width="3.0" />
            <path d=" M 911.262, 544.312 908.094, 541.464 904.165, 539.413 898.098, 535.356 896.240, 534.633 895.859, 534.484 892.032, 532.475 " fill="none" stroke="rgb(0, 0, 0)" stroke-linecap="butt" stroke-linejoin="round" stroke-opacity="1.0" stroke-width="3.0" />
            <path d=" M 789.145, 727.765 788.766, 726.422 788.751, 726.368 787.640, 722.433 786.150, 716.288 784.451, 712.050 779.898, 707.210 " fill="none" stroke="rgb(0, 0, 0)" stroke-linecap="butt" stroke-linejoin="round" stroke-opacity="1.0" stroke-width="3.0" />
            <path d=" M 712.361, 1096.580 707.338, 1101.082 703.780, 1102.934 699.469, 1105.178 693.061, 1109.155 " fill="none" stroke="rgb(0, 0, 0)" stroke-linecap="butt" stroke-linejoin="round" stroke-opacity="1.0" stroke-width="3.0" />
            <path d=" M 767.510, 1091.638 768.270, 1092.451 769.458, 1093.723 769.753, 1094.039 770.307, 1094.632 771.516, 1095.577 775.437, 1098.641 777.840, 1099.676 779.720, 1100.486 780.063, 1100.634 780.319, 1100.744 785.147, 1102.041 785.222, 1102.061 785.967, 1102.261 785.969, 1102.262 786.011, 1102.273 786.048, 1102.283 786.675, 1102.452 787.468, 1102.664 " fill="none" stroke="rgb(0, 0, 0)" stroke-linecap="butt" stroke-linejoin="round" stroke-opacity="1.0" stroke-width="3.0" />
            <path d=" M 691.501, 1068.530 689.711, 1069.839 689.632, 1069.897 689.491, 1073.481 695.716, 1078.724 697.626, 1079.285 700.182, 1079.870 704.301, 1079.413 704.831, 1079.354 704.975, 1079.338 " fill="none" stroke="rgb(0, 0, 0)" stroke-linecap="butt" stroke-linejoin="round" stroke-opacity="1.0" stroke-width="3.0" />
            <path d=" M 704.957, 1079.700 705.597, 1081.453 705.866, 1089.425 705.233, 1095.241 704.017, 1101.590 703.780, 1102.934 " fill="none" stroke="rgb(0, 0, 0)" stroke-linecap="butt" stroke-linejoin="round" stroke-opacity="1.0" stroke-width="3.0" />
            <path d=" M 796.776, 725.988 795.834, 726.492 795.731, 726.547 795.008, 726.935 794.992, 727.189 794.946, 727.935 794.940, 728.032 794.934, 728.134 794.921, 728.344 794.915, 729.521 794.863, 738.304 794.859, 739.020 794.985, 740.712 795.104, 742.316 795.203, 743.644 794.879, 744.501 794.279, 746.086 793.272, 745.682 793.173, 745.362 792.873, 744.388 " fill="none" stroke="rgb(0, 0, 0)" stroke-linecap="butt" stroke-linejoin="round" stroke-opacity="1.0" stroke-width="3.0" />
            <path d=" M 844.344, 756.835 843.848, 757.063 840.755, 758.485 838.966, 762.898 837.671, 765.074 836.741, 766.638 836.400, 767.211 833.952, 776.906 833.914, 777.055 " fill="none" stroke="rgb(0, 0, 0)" stroke-linecap="butt" stroke-linejoin="round" stroke-opacity="1.0" stroke-width="3.0" />
            <path d=" M 798.848, 748.146 799.589, 746.455 801.086, 737.616 800.929, 732.050 800.573, 730.259 798.184, 726.405 798.162, 726.370 797.992, 726.096 797.104, 726.017 " fill="none" stroke="rgb(0, 0, 0)" stroke-linecap="butt" stroke-linejoin="round" stroke-opacity="1.0" stroke-width="3.0" />
            <path d=" M 625.376, 730.340 624.982, 729.889 622.139, 726.639 619.817, 724.182 618.745, 722.564 615.688, 719.181 614.809, 717.760 612.986, 714.978 610.232, 711.203 " fill="none" stroke="rgb(0, 0, 0)" stroke-linecap="butt" stroke-linejoin="round" stroke-opacity="1.0" stroke-width="3.0" />
            <path d=" M 619.277, 677.546 621.429, 675.758 622.742, 674.667 624.698, 673.041 625.009, 672.495 625.596, 669.194 625.173, 664.154 625.071, 662.940 625.044, 662.616 625.003, 662.132 624.941, 661.387 624.946, 657.032 624.948, 655.603 " fill="none" stroke="rgb(0, 0, 0)" stroke-linecap="butt" stroke-linejoin="round" stroke-opacity="1.0" stroke-width="3.0" />
            <path d=" M 827.394, 768.637 822.797, 768.048 820.182, 766.949 815.179, 763.218 814.324, 762.180 812.439, 759.655 809.905, 757.740 807.986, 755.851 807.470, 755.342 " fill="none" stroke="rgb(0, 0, 0)" stroke-linecap="butt" stroke-linejoin="round" stroke-opacity="1.0" stroke-width="3.0" />
            <path d=" M 662.346, 861.856 661.724, 862.103 661.656, 862.130 661.527, 862.182 661.297, 862.273 660.994, 862.393 660.330, 862.657 660.235, 862.695 659.947, 862.809 659.670, 862.919 659.573, 862.915 659.337, 862.906 659.226, 862.901 659.121, 862.897 658.988, 862.892 657.934, 862.850 657.709, 862.841 657.595, 862.836 656.101, 862.777 652.633, 865.069 651.784, 865.629 650.821, 867.939 650.829, 870.540 650.845, 875.927 651.092, 879.026 " fill="none" stroke="rgb(0, 0, 0)" stroke-linecap="butt" stroke-linejoin="round" stroke-opacity="1.0" stroke-width="3.0" />
            <path d=" M 642.320, 748.250 639.217, 744.529 637.358, 742.433 636.162, 741.182 634.803, 739.760 632.057, 736.642 629.823, 734.677 627.036, 731.966 624.982, 729.889 " fill="none" stroke="rgb(0, 0, 0)" stroke-linecap="butt" stroke-linejoin="round" stroke-opacity="1.0" stroke-width="3.0" />
            <path d=" M 887.045, 520.814 887.261, 518.668 885.988, 512.404 884.753, 509.082 882.787, 503.434 881.225, 500.537 877.807, 498.555 " fill="none" stroke="rgb(0, 0, 0)" stroke-linecap="butt" stroke-linejoin="round" stroke-opacity="1.0" stroke-width="3.0" />
            <path d=" M 662.882, 670.067 662.762, 670.131 662.740, 670.143 662.417, 670.316 661.344, 670.892 657.534, 672.113 654.574, 673.889 650.254, 675.642 647.728, 676.414 645.357, 677.620 643.430, 678.004 640.515, 680.034 640.188, 680.799 " fill="none" stroke="rgb(0, 0, 0)" stroke-linecap="butt" stroke-linejoin="round" stroke-opacity="1.0" stroke-width="3.0" />
            <path d=" M 769.423, 725.990 769.476, 726.327 769.510, 726.547 769.837, 728.631 770.126, 730.475 770.256, 731.301 770.474, 732.692 771.802, 741.157 771.817, 741.251 771.902, 741.794 772.423, 745.115 772.474, 751.505 " fill="none" stroke="rgb(0, 0, 0)" stroke-linecap="butt" stroke-linejoin="round" stroke-opacity="1.0" stroke-width="3.0" />
            <path d=" M 700.177, 839.572 699.797, 838.914 699.780, 838.885 699.732, 838.801 699.390, 838.209 699.339, 838.120 699.193, 837.868 698.369, 836.783 698.054, 836.369 697.021, 835.011 695.534, 833.054 692.285, 830.732 690.255, 829.282 689.248, 828.562 685.090, 827.597 684.149, 828.138 684.099, 828.167 683.783, 828.348 683.508, 828.591 681.362, 830.489 680.486, 831.264 " fill="none" stroke="rgb(0, 0, 0)" stroke-linecap="butt" stroke-linejoin="round" stroke-opacity="1.0" stroke-width="3.0" />
            <path d=" M 423.513, 727.581 423.244, 728.096 422.694, 729.185 418.989, 736.527 423.109, 727.415 423.499, 726.552 424.433, 724.486 425.690, 721.577 " fill="none" stroke="rgb(0, 0, 0)" stroke-linecap="butt" stroke-linejoin="round" stroke-opacity="1.0" stroke-width="3.0" />
            <path d=" M 736.574, 1209.146 739.085, 1213.136 739.244, 1213.202 746.507, 1216.247 751.489, 1216.908 758.207, 1212.796 758.884, 1212.479 " fill="none" stroke="rgb(0, 0, 0)" stroke-linecap="butt" stroke-linejoin="round" stroke-opacity="1.0" stroke-width="3.0" />
            <path d=" M 818.441, 560.322 818.070, 560.618 814.748, 565.053 813.787, 569.566 815.558, 571.097 819.890, 574.751 822.995, 577.370 825.576, 579.219 826.037, 579.550 " fill="none" stroke="rgb(0, 0, 0)" stroke-linecap="butt" stroke-linejoin="round" stroke-opacity="1.0" stroke-width="3.0" />
            <path d=" M 956.327, 713.942 955.599, 710.563 955.389, 707.775 954.760, 703.641 955.733, 694.456 955.848, 687.784 955.852, 687.554 " fill="none" stroke="rgb(0, 0, 0)" stroke-linecap="butt" stroke-linejoin="round" stroke-opacity="1.0" stroke-width="3.0" />
            <path d=" M 787.652, 696.304 788.948, 691.703 791.083, 687.330 791.163, 687.357 791.255, 687.388 791.363, 687.424 793.666, 688.202 794.169, 688.264 796.626, 686.427 798.546, 684.231 801.127, 683.335 802.351, 682.910 806.092, 681.702 " fill="none" stroke="rgb(0, 0, 0)" stroke-linecap="butt" stroke-linejoin="round" stroke-opacity="1.0" stroke-width="3.0" />
            <path d=" M 469.931, 628.218 469.767, 628.465 468.352, 630.595 464.699, 637.348 461.834, 642.993 458.697, 651.288 458.317, 652.610 " fill="none" stroke="rgb(0, 0, 0)" stroke-linecap="butt" stroke-linejoin="round" stroke-opacity="1.0" stroke-width="3.0" />
            <path d=" M 800.973, 793.503 799.691, 792.687 799.633, 792.650 798.059, 791.648 796.890, 790.904 796.110, 790.727 795.502, 790.589 795.496, 790.588 794.530, 790.369 793.556, 790.149 793.301, 790.091 792.440, 790.507 791.400, 791.009 791.060, 791.174 790.781, 791.308 788.664, 792.331 788.656, 792.335 787.790, 792.753 787.064, 793.104 785.671, 795.345 785.648, 795.382 785.597, 795.746 785.500, 796.433 785.311, 797.775 785.264, 798.111 785.120, 799.135 785.022, 799.560 784.791, 800.569 784.867, 801.760 784.905, 802.366 784.946, 803.013 785.027, 804.283 " fill="none" stroke="rgb(0, 0, 0)" stroke-linecap="butt" stroke-linejoin="round" stroke-opacity="1.0" stroke-width="3.0" />
            <path d=" M 775.112, 1207.447 775.747, 1207.524 776.747, 1207.644 779.372, 1207.641 783.569, 1206.261 786.331, 1205.245 789.450, 1200.982 793.742, 1196.779 796.752, 1193.724 " fill="none" stroke="rgb(0, 0, 0)" stroke-linecap="butt" stroke-linejoin="round" stroke-opacity="1.0" stroke-width="3.0" />
            <path d=" M 581.952, 783.927 581.754, 784.192 580.784, 784.863 581.952, 783.927 582.746, 783.292 583.208, 782.245 582.998, 781.383 581.713, 778.000 577.488, 773.175 573.481, 767.343 571.089, 763.862 " fill="none" stroke="rgb(0, 0, 0)" stroke-linecap="butt" stroke-linejoin="round" stroke-opacity="1.0" stroke-width="3.0" />
            <path d=" M 956.175, 736.199 956.399, 735.736 956.487, 731.636 956.822, 730.006 955.326, 725.114 955.322, 720.920 955.440, 718.616 955.489, 717.646 956.327, 713.942 955.440, 718.616 " fill="none" stroke="rgb(0, 0, 0)" stroke-linecap="butt" stroke-linejoin="round" stroke-opacity="1.0" stroke-width="3.0" />
            <path d=" M 793.821, 1037.905 793.823, 1037.994 795.672, 1047.859 795.269, 1057.851 795.246, 1058.431 794.033, 1062.936 793.464, 1065.048 " fill="none" stroke="rgb(0, 0, 0)" stroke-linecap="butt" stroke-linejoin="round" stroke-opacity="1.0" stroke-width="3.0" />
            <path d=" M 646.404, 791.796 648.340, 797.739 648.447, 798.067 649.931, 803.643 650.875, 806.001 651.754, 808.088 654.991, 815.964 656.411, 818.220 " fill="none" stroke="rgb(0, 0, 0)" stroke-linecap="butt" stroke-linejoin="round" stroke-opacity="1.0" stroke-width="3.0" />
            <path d=" M 455.527, 951.479 457.195, 961.339 457.581, 963.620 457.720, 964.439 459.847, 967.989 459.899, 968.075 460.333, 968.019 460.990, 967.936 463.430, 967.624 466.476, 965.412 468.412, 963.572 468.906, 963.103 469.480, 962.557 " fill="none" stroke="rgb(0, 0, 0)" stroke-linecap="butt" stroke-linejoin="round" stroke-opacity="1.0" stroke-width="3.0" />
            <path d=" M 568.591, 463.911 567.421, 467.915 566.463, 471.196 565.781, 477.944 565.664, 482.488 565.394, 486.549 565.259, 490.232 565.903, 492.317 " fill="none" stroke="rgb(0, 0, 0)" stroke-linecap="butt" stroke-linejoin="round" stroke-opacity="1.0" stroke-width="3.0" />
            <path d=" M 673.295, 723.906 675.900, 723.521 677.596, 723.270 680.428, 723.135 687.817, 722.766 693.491, 722.656 699.784, 723.273 702.342, 723.838 " fill="none" stroke="rgb(0, 0, 0)" stroke-linecap="butt" stroke-linejoin="round" stroke-opacity="1.0" stroke-width="3.0" />
            <path d=" M 643.862, 641.714 643.932, 641.759 644.355, 642.031 650.742, 643.312 651.316, 643.505 652.341, 643.849 652.347, 643.851 652.350, 643.852 652.403, 643.870 655.304, 644.846 658.772, 644.166 660.843, 643.390 660.984, 642.928 661.336, 641.770 662.446, 638.122 662.930, 636.775 662.954, 636.709 663.112, 636.268 663.309, 635.718 663.371, 635.546 663.427, 635.391 664.611, 632.090 " fill="none" stroke="rgb(0, 0, 0)" stroke-linecap="butt" stroke-linejoin="round" stroke-opacity="1.0" stroke-width="3.0" />
            <path d=" M 587.491, 448.340 584.836, 449.404 581.881, 450.589 579.486, 451.907 577.890, 453.273 572.659, 456.940 571.415, 458.762 568.591, 463.911 567.530, 466.036 567.421, 467.915 " fill="none" stroke="rgb(0, 0, 0)" stroke-linecap="butt" stroke-linejoin="round" stroke-opacity="1.0" stroke-width="3.0" />
            <path d=" M 488.907, 595.432 487.046, 598.248 486.073, 599.721 481.370, 607.377 478.808, 611.931 476.165, 615.885 473.896, 621.148 " fill="none" stroke="rgb(0, 0, 0)" stroke-linecap="butt" stroke-linejoin="round" stroke-opacity="1.0" stroke-width="3.0" />
            <path d=" M 642.650, 642.510 642.999, 642.281 643.862, 641.714 643.906, 641.685 644.065, 641.581 644.646, 641.199 649.044, 638.311 648.916, 636.205 648.881, 635.633 648.756, 633.587 646.379, 627.881 643.941, 625.596 642.750, 624.480 642.749, 624.479 642.211, 623.975 641.682, 623.478 641.680, 623.472 641.291, 621.288 641.274, 621.194 640.823, 618.664 " fill="none" stroke="rgb(0, 0, 0)" stroke-linecap="butt" stroke-linejoin="round" stroke-opacity="1.0" stroke-width="3.0" />
            <path d=" M 860.028, 1129.899 860.616, 1127.283 862.347, 1119.588 862.345, 1110.762 862.189, 1107.886 861.977, 1100.224 " fill="none" stroke="rgb(0, 0, 0)" stroke-linecap="butt" stroke-linejoin="round" stroke-opacity="1.0" stroke-width="3.0" />
            <path d=" M 878.200, 498.893 877.807, 498.555 874.040, 495.313 868.742, 494.253 861.928, 493.813 859.968, 494.058 856.457, 495.780 854.253, 497.146 851.872, 499.805 851.248, 499.907 " fill="none" stroke="rgb(0, 0, 0)" stroke-linecap="butt" stroke-linejoin="round" stroke-opacity="1.0" stroke-width="3.0" />
            <path d=" M 765.389, 1202.086 769.631, 1203.475 777.869, 1202.489 778.231, 1202.445 782.436, 1201.942 790.381, 1196.228 792.305, 1192.956 " fill="none" stroke="rgb(0, 0, 0)" stroke-linecap="butt" stroke-linejoin="round" stroke-opacity="1.0" stroke-width="3.0" />
            <path d=" M 782.272, 488.154 775.426, 485.606 769.539, 484.169 761.890, 483.419 756.530, 484.088 752.502, 485.660 752.367, 485.809 " fill="none" stroke="rgb(0, 0, 0)" stroke-linecap="butt" stroke-linejoin="round" stroke-opacity="1.0" stroke-width="3.0" />
            <path d=" M 785.356, 666.182 785.126, 666.753 784.872, 667.380 784.826, 667.441 784.761, 667.527 781.173, 672.257 778.616, 673.509 776.843, 673.879 775.311, 675.472 773.921, 678.435 776.169, 683.735 776.404, 688.726 777.059, 691.490 " fill="none" stroke="rgb(0, 0, 0)" stroke-linecap="butt" stroke-linejoin="round" stroke-opacity="1.0" stroke-width="3.0" />
            <path d=" M 833.026, 536.929 835.830, 529.819 835.843, 527.102 834.646, 524.083 831.106, 522.073 830.919, 521.967 830.682, 521.832 829.893, 520.585 829.809, 520.453 829.654, 520.207 829.642, 520.011 829.618, 519.624 829.609, 519.475 829.607, 519.430 829.602, 519.353 829.589, 519.136 829.565, 518.755 829.558, 518.632 829.548, 518.479 829.539, 518.331 829.527, 518.128 829.504, 517.752 829.301, 514.434 829.957, 509.189 829.963, 509.147 " fill="none" stroke="rgb(0, 0, 0)" stroke-linecap="butt" stroke-linejoin="round" stroke-opacity="1.0" stroke-width="3.0" />
            <path d=" M 866.628, 737.307 864.766, 738.019 858.207, 740.525 856.114, 741.422 855.478, 741.884 855.386, 741.951 852.727, 743.884 851.072, 745.065 847.611, 748.025 846.083, 752.542 843.848, 757.063 " fill="none" stroke="rgb(0, 0, 0)" stroke-linecap="butt" stroke-linejoin="round" stroke-opacity="1.0" stroke-width="3.0" />
            <path d=" M 765.137, 490.867 764.803, 490.742 755.444, 487.221 753.358, 486.436 752.367, 485.809 743.916, 480.463 743.525, 480.216 740.666, 476.137 740.181, 473.969 739.932, 472.852 739.907, 472.738 " fill="none" stroke="rgb(0, 0, 0)" stroke-linecap="butt" stroke-linejoin="round" stroke-opacity="1.0" stroke-width="3.0" />
            <path d=" M 794.152, 728.981 794.166, 728.818 794.170, 728.771 794.263, 727.655 794.413, 725.851 792.650, 719.442 792.642, 719.414 792.530, 719.005 792.489, 718.122 792.487, 718.076 792.210, 712.052 793.870, 709.366 795.919, 702.015 798.439, 700.704 798.516, 700.664 800.851, 699.449 " fill="none" stroke="rgb(0, 0, 0)" stroke-linecap="butt" stroke-linejoin="round" stroke-opacity="1.0" stroke-width="3.0" />
            <path d=" M 854.702, 611.137 856.964, 608.234 862.111, 603.545 862.859, 602.975 863.010, 602.860 863.052, 602.828 864.343, 601.844 866.414, 600.264 871.020, 597.067 874.550, 595.172 878.123, 593.254 878.453, 593.077 878.705, 592.941 881.698, 591.334 " fill="none" stroke="rgb(0, 0, 0)" stroke-linecap="butt" stroke-linejoin="round" stroke-opacity="1.0" stroke-width="3.0" />
            <path d=" M 625.173, 664.154 625.237, 664.103 627.569, 661.300 629.154, 659.395 632.200, 655.969 633.602, 652.533 633.112, 651.268 632.309, 649.190 630.935, 647.991 630.072, 647.238 630.031, 647.203 629.856, 647.050 628.764, 646.097 626.769, 644.357 619.388, 640.815 618.853, 640.558 " fill="none" stroke="rgb(0, 0, 0)" stroke-linecap="butt" stroke-linejoin="round" stroke-opacity="1.0" stroke-width="3.0" />
            <path d=" M 595.634, 724.679 599.222, 729.972 602.079, 733.618 605.891, 738.631 608.545, 741.143 609.745, 742.140 613.111, 744.984 618.826, 749.514 " fill="none" stroke="rgb(0, 0, 0)" stroke-linecap="butt" stroke-linejoin="round" stroke-opacity="1.0" stroke-width="3.0" />
            <path d=" M 573.481, 767.343 569.919, 760.136 567.493, 754.598 563.309, 749.234 560.713, 747.107 555.534, 741.438 555.780, 740.160 555.986, 739.091 " fill="none" stroke="rgb(0, 0, 0)" stroke-linecap="butt" stroke-linejoin="round" stroke-opacity="1.0" stroke-width="3.0" />
            <path d=" M 566.124, 491.316 565.903, 492.317 564.693, 497.813 564.705, 499.027 564.407, 505.196 563.374, 509.947 562.958, 510.720 560.211, 518.397 558.196, 524.523 " fill="none" stroke="rgb(0, 0, 0)" stroke-linecap="butt" stroke-linejoin="round" stroke-opacity="1.0" stroke-width="3.0" />
            <path d=" M 656.442, 758.884 657.349, 758.840 658.555, 757.607 658.579, 757.583 658.611, 757.506 659.699, 754.913 661.220, 751.288 662.327, 748.582 662.589, 744.575 662.046, 739.218 661.173, 737.350 660.339, 735.566 657.336, 731.879 655.952, 730.995 655.639, 730.794 654.690, 728.949 " fill="none" stroke="rgb(0, 0, 0)" stroke-linecap="butt" stroke-linejoin="round" stroke-opacity="1.0" stroke-width="3.0" />
            <path d=" M 696.666, 906.431 694.751, 904.801 689.304, 899.518 684.702, 897.389 684.392, 897.246 684.197, 897.156 683.584, 896.872 683.395, 896.785 682.415, 896.332 682.403, 896.327 681.240, 895.788 680.962, 895.660 680.197, 895.919 679.323, 896.215 677.563, 896.810 676.948, 896.957 671.569, 898.240 668.124, 898.398 668.096, 898.399 666.830, 898.457 666.711, 898.462 666.359, 898.478 666.348, 898.479 665.555, 898.515 665.419, 898.521 665.222, 898.530 665.012, 898.540 664.845, 898.548 " fill="none" stroke="rgb(0, 0, 0)" stroke-linecap="butt" stroke-linejoin="round" stroke-opacity="1.0" stroke-width="3.0" />
            <path d=" M 509.307, 530.694 508.839, 531.426 507.624, 533.331 507.298, 535.387 506.425, 542.678 505.654, 545.872 504.919, 550.662 503.848, 556.932 503.534, 561.690 502.222, 565.021 502.131, 565.761 " fill="none" stroke="rgb(0, 0, 0)" stroke-linecap="butt" stroke-linejoin="round" stroke-opacity="1.0" stroke-width="3.0" />
            <path d=" M 790.430, 1103.495 790.642, 1105.195 790.651, 1105.270 790.666, 1105.389 790.798, 1106.452 790.776, 1106.745 790.661, 1108.276 790.148, 1115.094 790.287, 1116.408 790.521, 1118.624 791.053, 1123.661 790.192, 1129.107 788.346, 1136.380 787.620, 1139.240 " fill="none" stroke="rgb(0, 0, 0)" stroke-linecap="butt" stroke-linejoin="round" stroke-opacity="1.0" stroke-width="3.0" />
            <path d=" M 787.163, 535.003 793.371, 530.958 794.175, 530.434 795.073, 529.849 802.811, 526.576 810.891, 523.878 811.418, 523.451 815.361, 520.256 815.783, 519.914 816.113, 519.571 817.795, 517.791 818.355, 517.199 " fill="none" stroke="rgb(0, 0, 0)" stroke-linecap="butt" stroke-linejoin="round" stroke-opacity="1.0" stroke-width="3.0" />
            <path d=" M 796.259, 1003.394 795.242, 1003.105 795.078, 1003.058 794.519, 1002.899 794.239, 1002.819 793.362, 1002.570 792.445, 1002.309 792.341, 1002.280 791.714, 1002.101 791.367, 1002.003 786.464, 999.438 780.443, 994.202 777.513, 989.845 775.698, 987.479 773.645, 985.045 773.900, 985.338 778.267, 990.164 " fill="none" stroke="rgb(0, 0, 0)" stroke-linecap="butt" stroke-linejoin="round" stroke-opacity="1.0" stroke-width="3.0" />
            <path d=" M 649.911, 914.373 649.730, 915.397 648.900, 920.091 648.447, 923.817 648.915, 927.452 651.614, 930.114 653.944, 930.728 654.009, 930.745 654.045, 930.755 654.085, 930.765 655.107, 931.034 656.763, 931.023 657.242, 931.019 657.545, 932.476 657.097, 932.815 654.571, 934.727 654.114, 935.073 653.279, 935.407 652.255, 937.065 651.843, 941.697 652.189, 943.164 " fill="none" stroke="rgb(0, 0, 0)" stroke-linecap="butt" stroke-linejoin="round" stroke-opacity="1.0" stroke-width="3.0" />
            <path d=" M 963.052, 790.452 962.926, 787.423 962.765, 783.535 962.834, 778.618 961.580, 771.718 961.045, 767.042 958.394, 764.068 955.033, 763.008 951.641, 764.680 950.491, 765.133 948.831, 765.788 " fill="none" stroke="rgb(0, 0, 0)" stroke-linecap="butt" stroke-linejoin="round" stroke-opacity="1.0" stroke-width="3.0" />
            <path d=" M 693.982, 950.919 693.981, 950.918 690.436, 947.795 688.104, 946.060 687.684, 945.747 686.603, 944.942 682.735, 944.059 679.284, 942.606 675.041, 941.303 673.949, 940.302 668.030, 937.060 665.535, 934.786 664.990, 934.408 664.316, 933.941 664.149, 933.825 663.680, 933.500 663.421, 933.320 662.202, 932.474 661.835, 932.220 661.726, 932.145 " fill="none" stroke="rgb(0, 0, 0)" stroke-linecap="butt" stroke-linejoin="round" stroke-opacity="1.0" stroke-width="3.0" />
            <path d=" M 738.143, 1191.925 738.065, 1192.192 737.882, 1192.815 737.495, 1194.135 731.469, 1198.314 725.865, 1201.721 725.300, 1203.908 726.398, 1208.271 728.392, 1211.009 736.051, 1214.090 739.244, 1213.202 " fill="none" stroke="rgb(0, 0, 0)" stroke-linecap="butt" stroke-linejoin="round" stroke-opacity="1.0" stroke-width="3.0" />
            <path d=" M 769.599, 1074.711 769.555, 1074.703 761.135, 1073.119 758.114, 1073.508 755.213, 1075.539 754.130, 1078.842 755.649, 1081.605 761.215, 1086.856 761.281, 1086.917 761.456, 1087.082 761.568, 1087.167 761.629, 1087.213 763.812, 1088.855 763.855, 1088.888 764.626, 1089.468 766.574, 1090.934 767.510, 1091.638 768.069, 1092.058 " fill="none" stroke="rgb(0, 0, 0)" stroke-linecap="butt" stroke-linejoin="round" stroke-opacity="1.0" stroke-width="3.0" />
            <path d=" M 856.963, 502.974 854.869, 502.083 851.425, 500.013 851.248, 499.907 850.107, 499.222 848.369, 498.781 840.531, 498.050 836.476, 497.622 832.474, 498.385 827.935, 499.954 827.740, 500.022 827.581, 500.077 826.850, 500.329 821.632, 502.134 821.486, 502.184 821.379, 502.221 821.238, 502.270 820.776, 502.430 820.712, 502.452 " fill="none" stroke="rgb(0, 0, 0)" stroke-linecap="butt" stroke-linejoin="round" stroke-opacity="1.0" stroke-width="3.0" />
            <path d=" M 789.776, 721.245 789.850, 719.585 789.954, 717.269 789.254, 712.360 788.731, 708.687 788.485, 707.025 788.166, 702.502 787.957, 699.839 787.911, 699.242 787.700, 696.544 787.652, 696.304 787.644, 696.264 786.340, 689.717 786.225, 689.341 786.093, 688.909 784.439, 683.509 " fill="none" stroke="rgb(0, 0, 0)" stroke-linecap="butt" stroke-linejoin="round" stroke-opacity="1.0" stroke-width="3.0" />
            <path d=" M 542.957, 780.559 548.366, 779.525 553.169, 781.142 559.686, 781.555 565.332, 782.175 574.734, 784.952 580.784, 784.863 " fill="none" stroke="rgb(0, 0, 0)" stroke-linecap="butt" stroke-linejoin="round" stroke-opacity="1.0" stroke-width="3.0" />
            <path d=" M 789.053, 869.568 788.939, 869.692 787.934, 870.772 787.489, 871.250 787.408, 871.337 787.160, 871.604 786.987, 871.790 785.983, 872.869 785.250, 873.657 785.124, 873.847 782.669, 877.540 777.948, 881.007 773.884, 885.482 772.810, 889.834 775.670, 896.116 775.933, 896.503 776.057, 896.686 776.066, 896.699 777.242, 898.430 777.413, 898.681 777.552, 899.069 778.140, 900.715 778.366, 901.349 " fill="none" stroke="rgb(0, 0, 0)" stroke-linecap="butt" stroke-linejoin="round" stroke-opacity="1.0" stroke-width="3.0" />
            <path d=" M 766.537, 1146.821 764.758, 1137.813 762.937, 1129.103 761.023, 1119.288 760.590, 1117.065 759.544, 1109.673 759.494, 1109.265 759.281, 1107.508 " fill="none" stroke="rgb(0, 0, 0)" stroke-linecap="butt" stroke-linejoin="round" stroke-opacity="1.0" stroke-width="3.0" />
            <path d=" M 773.306, 899.530 771.523, 900.029 768.276, 901.428 766.611, 904.714 768.206, 908.338 771.472, 910.667 771.476, 910.670 778.542, 915.710 781.815, 916.565 789.601, 917.543 789.688, 917.561 791.633, 917.958 792.599, 918.156 " fill="none" stroke="rgb(0, 0, 0)" stroke-linecap="butt" stroke-linejoin="round" stroke-opacity="1.0" stroke-width="3.0" />
            <path d=" M 668.096, 898.399 667.031, 898.322 666.704, 898.298 666.657, 898.295 666.303, 898.269 665.470, 898.209 665.315, 898.197 665.168, 898.187 664.926, 898.169 663.877, 898.093 663.807, 898.088 663.664, 898.078 663.520, 898.067 663.289, 898.050 660.731, 897.865 660.604, 897.856 660.476, 897.823 659.872, 897.671 659.072, 897.469 658.137, 897.059 657.160, 896.630 656.369, 896.282 655.608, 895.949 653.568, 895.053 652.273, 895.091 650.211, 895.151 648.251, 896.715 646.864, 902.134 646.797, 903.302 648.161, 910.393 649.730, 915.397 " fill="none" stroke="rgb(0, 0, 0)" stroke-linecap="butt" stroke-linejoin="round" stroke-opacity="1.0" stroke-width="3.0" />
            <path d=" M 697.139, 873.214 696.709, 872.257 696.682, 872.196 696.571, 871.949 696.569, 871.944 695.491, 869.541 695.483, 869.524 695.055, 868.570 691.810, 865.911 686.479, 861.469 684.406, 860.446 683.143, 859.822 681.556, 860.341 679.816, 861.789 677.049, 861.857 673.645, 863.323 672.108, 863.884 671.722, 864.024 671.559, 864.084 671.494, 864.107 671.235, 864.202 670.618, 864.427 670.485, 864.430 670.266, 864.436 669.654, 864.452 669.460, 864.458 667.504, 864.510 666.921, 864.526 666.829, 864.528 666.739, 864.531 666.363, 864.541 666.130, 864.547 666.099, 864.539 665.863, 864.481 665.651, 864.429 665.412, 864.370 664.306, 864.098 663.710, 863.951 663.305, 863.851 663.284, 863.846 662.565, 863.669 " fill="none" stroke="rgb(0, 0, 0)" stroke-linecap="butt" stroke-linejoin="round" stroke-opacity="1.0" stroke-width="3.0" />
            <path d=" M 863.279, 1075.623 862.587, 1079.986 861.793, 1084.193 859.938, 1094.020 859.346, 1097.157 860.757, 1098.658 861.977, 1100.224 861.455, 1090.238 861.369, 1088.597 861.793, 1084.193 " fill="none" stroke="rgb(0, 0, 0)" stroke-linecap="butt" stroke-linejoin="round" stroke-opacity="1.0" stroke-width="3.0" />
            <path d=" M 794.890, 1152.325 793.974, 1152.212 792.763, 1152.064 792.285, 1152.005 791.977, 1151.968 791.139, 1151.865 790.763, 1151.819 790.652, 1151.806 788.703, 1151.567 787.073, 1151.367 785.359, 1151.157 783.870, 1151.310 783.733, 1151.355 781.654, 1152.038 780.741, 1152.993 780.135, 1153.627 778.254, 1155.594 778.367, 1157.113 778.805, 1159.901 779.072, 1161.605 779.437, 1162.529 780.048, 1163.933 781.082, 1166.310 781.586, 1166.572 783.112, 1167.368 783.604, 1167.625 789.457, 1170.567 789.460, 1170.569 789.569, 1170.623 792.671, 1170.605 " fill="none" stroke="rgb(0, 0, 0)" stroke-linecap="butt" stroke-linejoin="round" stroke-opacity="1.0" stroke-width="3.0" />
            <path d=" M 955.848, 687.784 957.041, 684.954 958.673, 680.686 960.657, 674.996 962.947, 668.575 962.750, 665.165 963.625, 662.847 964.040, 658.881 964.591, 654.624 965.093, 651.454 964.924, 646.602 " fill="none" stroke="rgb(0, 0, 0)" stroke-linecap="butt" stroke-linejoin="round" stroke-opacity="1.0" stroke-width="3.0" />
            <path d=" M 681.362, 830.489 680.147, 831.240 677.515, 832.868 677.434, 832.918 674.240, 833.310 667.684, 834.031 664.956, 834.451 663.674, 835.458 663.673, 835.459 663.649, 835.478 663.429, 835.651 663.201, 835.834 662.228, 836.616 661.788, 841.325 661.575, 841.967 661.247, 842.955 660.400, 846.027 659.052, 847.058 656.162, 849.104 655.682, 853.582 655.579, 854.544 655.330, 856.872 " fill="none" stroke="rgb(0, 0, 0)" stroke-linecap="butt" stroke-linejoin="round" stroke-opacity="1.0" stroke-width="3.0" />
            <path d=" M 912.182, 889.991 913.607, 887.126 917.582, 880.206 921.154, 874.607 924.086, 870.120 926.591, 866.730 929.920, 863.128 932.132, 861.042 934.351, 857.325 934.504, 856.812 935.559, 853.260 " fill="none" stroke="rgb(0, 0, 0)" stroke-linecap="butt" stroke-linejoin="round" stroke-opacity="1.0" stroke-width="3.0" />
            <path d=" M 635.811, 757.352 635.541, 760.792 635.520, 764.495 636.066, 771.515 636.069, 777.523 637.034, 780.404 639.658, 785.109 643.357, 790.000 645.777, 793.742 648.340, 797.739 " fill="none" stroke="rgb(0, 0, 0)" stroke-linecap="butt" stroke-linejoin="round" stroke-opacity="1.0" stroke-width="3.0" />
            <path d=" M 812.222, 616.391 805.277, 614.747 804.772, 614.628 800.168, 613.672 795.097, 612.570 789.968, 611.332 788.747, 611.037 780.839, 608.886 771.613, 606.070 769.337, 605.376 769.314, 605.369 768.751, 605.197 " fill="none" stroke="rgb(0, 0, 0)" stroke-linecap="butt" stroke-linejoin="round" stroke-opacity="1.0" stroke-width="3.0" />
            <path d=" M 772.484, 854.751 770.705, 858.574 770.522, 861.299 770.596, 862.982 771.401, 866.678 769.527, 859.307 770.266, 852.216 774.213, 846.881 775.997, 845.807 781.003, 841.482 782.563, 839.070 " fill="none" stroke="rgb(0, 0, 0)" stroke-linecap="butt" stroke-linejoin="round" stroke-opacity="1.0" stroke-width="3.0" />
            <path d=" M 784.905, 802.366 782.733, 805.338 779.771, 807.440 775.888, 810.196 774.499, 811.265 772.471, 813.102 770.868, 815.709 769.616, 819.465 771.403, 825.420 771.838, 826.868 772.526, 829.466 777.221, 834.036 779.020, 835.095 781.914, 835.525 " fill="none" stroke="rgb(0, 0, 0)" stroke-linecap="butt" stroke-linejoin="round" stroke-opacity="1.0" stroke-width="3.0" />
            <path d=" M 928.455, 702.818 926.160, 705.006 923.920, 708.977 920.749, 711.071 917.843, 715.382 915.074, 716.507 911.651, 718.234 908.666, 722.707 903.885, 725.049 901.919, 726.379 896.790, 734.175 " fill="none" stroke="rgb(0, 0, 0)" stroke-linecap="butt" stroke-linejoin="round" stroke-opacity="1.0" stroke-width="3.0" />
            <path d=" M 685.652, 815.419 685.201, 814.544 683.127, 811.743 679.754, 806.372 678.183, 801.594 675.811, 795.824 673.545, 789.753 672.108, 784.734 669.221, 779.299 667.012, 773.771 666.631, 772.814 " fill="none" stroke="rgb(0, 0, 0)" stroke-linecap="butt" stroke-linejoin="round" stroke-opacity="1.0" stroke-width="3.0" />
            <path d=" M 814.812, 494.264 814.297, 493.617 812.532, 491.399 808.101, 486.449 804.292, 483.283 799.773, 480.498 794.539, 478.280 791.007, 477.736 787.471, 478.509 785.028, 480.253 784.205, 481.429 783.095, 482.461 781.514, 485.693 782.538, 487.223 782.645, 487.384 782.658, 487.403 783.167, 488.166 783.302, 488.620 783.840, 490.430 " fill="none" stroke="rgb(0, 0, 0)" stroke-linecap="butt" stroke-linejoin="round" stroke-opacity="1.0" stroke-width="3.0" />
            <path d=" M 687.016, 1020.058 686.165, 1020.216 680.523, 1021.261 678.165, 1021.947 676.639, 1023.008 676.461, 1023.284 676.993, 1028.272 679.684, 1031.368 684.705, 1036.661 688.082, 1040.249 691.373, 1041.911 695.976, 1044.072 700.129, 1044.519 700.214, 1044.528 700.214, 1044.528 702.627, 1044.788 703.196, 1044.849 703.277, 1044.858 " fill="none" stroke="rgb(0, 0, 0)" stroke-linecap="butt" stroke-linejoin="round" stroke-opacity="1.0" stroke-width="3.0" />
            <path d=" M 655.252, 940.593 653.131, 942.169 652.189, 943.164 649.837, 945.645 649.188, 950.839 653.134, 957.013 653.907, 958.332 659.714, 966.473 660.031, 966.917 663.192, 970.494 666.518, 972.533 667.415, 972.452 671.448, 972.087 674.325, 973.264 " fill="none" stroke="rgb(0, 0, 0)" stroke-linecap="butt" stroke-linejoin="round" stroke-opacity="1.0" stroke-width="3.0" />
            <path d=" M 711.239, 773.048 712.491, 779.679 712.764, 781.022 714.621, 790.160 715.545, 798.676 715.693, 806.431 714.606, 815.090 713.578, 822.625 713.507, 823.145 " fill="none" stroke="rgb(0, 0, 0)" stroke-linecap="butt" stroke-linejoin="round" stroke-opacity="1.0" stroke-width="3.0" />
            <path d=" M 801.530, 1019.713 800.610, 1019.420 800.346, 1019.336 799.735, 1019.141 796.764, 1018.194 795.159, 1018.815 794.888, 1018.920 793.388, 1019.500 793.376, 1019.504 788.911, 1021.231 784.597, 1022.401 781.716, 1023.973 780.418, 1028.377 781.720, 1030.801 782.921, 1032.977 787.808, 1036.600 788.654, 1037.105 792.165, 1037.546 793.816, 1037.754 795.657, 1037.985 797.345, 1038.197 801.119, 1038.672 " fill="none" stroke="rgb(0, 0, 0)" stroke-linecap="butt" stroke-linejoin="round" stroke-opacity="1.0" stroke-width="3.0" />
            <path d=" M 763.746, 1195.079 757.413, 1198.802 756.888, 1199.286 753.249, 1202.636 752.908, 1202.950 752.337, 1203.786 750.762, 1207.387 750.558, 1207.854 751.755, 1209.618 752.595, 1210.856 757.896, 1212.224 758.539, 1212.390 758.884, 1212.479 760.791, 1212.971 766.763, 1212.300 768.168, 1211.536 769.011, 1211.078 769.081, 1211.040 772.424, 1209.222 773.850, 1208.268 774.163, 1208.059 774.482, 1207.845 774.808, 1207.639 775.112, 1207.447 775.409, 1207.260 775.653, 1207.106 776.601, 1206.507 779.548, 1204.647 " fill="none" stroke="rgb(0, 0, 0)" stroke-linecap="butt" stroke-linejoin="round" stroke-opacity="1.0" stroke-width="3.0" />
            <path d=" M 807.986, 755.851 806.276, 753.539 801.274, 749.320 798.848, 748.146 798.338, 747.898 798.280, 747.870 795.900, 746.718 795.745, 746.643 794.506, 746.516 794.200, 746.484 794.148, 746.479 793.351, 746.397 793.337, 746.396 793.317, 746.394 793.291, 746.391 791.718, 746.230 791.194, 746.176 791.161, 746.173 791.140, 746.171 791.106, 746.167 791.059, 746.162 788.011, 746.894 784.304, 749.097 782.517, 753.337 784.559, 760.670 786.188, 766.110 786.283, 772.725 786.258, 773.076 " fill="none" stroke="rgb(0, 0, 0)" stroke-linecap="butt" stroke-linejoin="round" stroke-opacity="1.0" stroke-width="3.0" />
            <path d=" M 890.588, 949.820 892.192, 945.740 895.407, 936.271 896.365, 933.448 899.174, 926.125 902.574, 916.721 903.891, 913.078 905.700, 907.231 907.916, 900.068 " fill="none" stroke="rgb(0, 0, 0)" stroke-linecap="butt" stroke-linejoin="round" stroke-opacity="1.0" stroke-width="3.0" />
            <path d=" M 475.794, 955.280 475.928, 955.395 478.486, 957.594 483.057, 957.563 488.602, 955.973 492.195, 953.828 493.367, 948.396 493.793, 938.405 493.878, 936.390 492.015, 930.961 490.424, 928.126 489.985, 923.071 491.870, 921.334 493.013, 921.472 494.740, 921.681 494.865, 921.696 495.013, 921.714 " fill="none" stroke="rgb(0, 0, 0)" stroke-linecap="butt" stroke-linejoin="round" stroke-opacity="1.0" stroke-width="3.0" />
            <path d=" M 420.027, 936.040 421.820, 940.167 424.273, 940.822 425.148, 941.056 427.729, 940.608 428.408, 940.490 429.079, 940.374 436.113, 945.696 437.775, 951.780 437.683, 956.780 437.618, 960.317 437.573, 965.868 438.497, 967.882 438.732, 968.393 438.791, 968.523 439.057, 969.104 439.405, 969.861 440.115, 970.604 441.868, 971.631 443.731, 972.816 446.023, 972.940 447.913, 971.248 " fill="none" stroke="rgb(0, 0, 0)" stroke-linecap="butt" stroke-linejoin="round" stroke-opacity="1.0" stroke-width="3.0" />
            <path d=" M 685.055, 987.661 683.178, 987.481 682.715, 987.437 679.833, 987.162 679.096, 987.091 677.596, 986.948 676.895, 986.881 674.093, 986.794 669.138, 986.648 667.322, 987.546 667.050, 989.420 668.316, 992.357 669.896, 994.589 670.694, 995.822 674.250, 1000.483 679.060, 1004.188 686.566, 1007.113 687.917, 1007.120 692.521, 1007.145 693.404, 1007.150 694.893, 1008.411 " fill="none" stroke="rgb(0, 0, 0)" stroke-linecap="butt" stroke-linejoin="round" stroke-opacity="1.0" stroke-width="3.0" />
            <path d=" M 947.376, 577.250 945.438, 573.551 941.422, 567.316 938.931, 564.373 935.020, 560.405 932.077, 557.390 926.552, 552.919 920.637, 548.671 916.645, 546.830 911.344, 544.386 911.011, 544.232 911.262, 544.312 914.192, 545.243 916.645, 546.830 " fill="none" stroke="rgb(0, 0, 0)" stroke-linecap="butt" stroke-linejoin="round" stroke-opacity="1.0" stroke-width="3.0" />
            <path d=" M 449.067, 673.927 446.076, 677.604 444.947, 678.992 439.761, 687.542 438.481, 689.651 434.478, 698.815 433.375, 701.339 432.394, 703.459 428.144, 712.510 427.626, 713.612 426.189, 717.745 423.499, 726.552 " fill="none" stroke="rgb(0, 0, 0)" stroke-linecap="butt" stroke-linejoin="round" stroke-opacity="1.0" stroke-width="3.0" />
            <path d=" M 772.715, 1105.364 771.686, 1107.931 771.253, 1109.013 771.156, 1109.253 771.246, 1110.284 771.247, 1110.297 771.285, 1110.729 771.318, 1111.109 771.506, 1113.270 771.542, 1113.675 771.556, 1113.833 772.212, 1121.361 772.205, 1122.206 772.118, 1132.206 772.031, 1142.206 772.010, 1144.648 770.720, 1154.565 770.640, 1155.186 770.366, 1157.288 769.004, 1160.999 767.917, 1163.958 " fill="none" stroke="rgb(0, 0, 0)" stroke-linecap="butt" stroke-linejoin="round" stroke-opacity="1.0" stroke-width="3.0" />
            <path d=" M 495.858, 658.132 494.164, 661.665 492.078, 666.017 488.176, 675.224 487.550, 676.700 483.816, 684.799 483.709, 685.031 479.523, 694.113 479.370, 694.445 476.432, 702.907 471.870, 711.805 471.542, 712.444 " fill="none" stroke="rgb(0, 0, 0)" stroke-linecap="butt" stroke-linejoin="round" stroke-opacity="1.0" stroke-width="3.0" />
            <path d=" M 828.704, 632.761 829.615, 632.785 831.783, 632.843 835.061, 631.448 839.032, 630.179 843.022, 628.033 846.283, 624.643 851.718, 620.522 854.739, 615.293 854.824, 612.899 854.702, 611.137 854.500, 608.231 854.498, 608.201 854.411, 606.949 854.349, 606.060 854.907, 603.274 852.668, 598.711 849.134, 596.115 842.241, 594.871 " fill="none" stroke="rgb(0, 0, 0)" stroke-linecap="butt" stroke-linejoin="round" stroke-opacity="1.0" stroke-width="3.0" />
            <path d=" M 736.932, 1166.576 736.668, 1166.654 736.361, 1166.744 736.183, 1166.797 734.508, 1167.292 729.550, 1168.755 720.021, 1171.052 714.656, 1171.796 709.034, 1172.445 707.117, 1172.787 705.605, 1173.684 705.115, 1177.076 706.687, 1180.990 708.607, 1182.310 713.608, 1186.572 721.467, 1189.486 725.793, 1189.030 " fill="none" stroke="rgb(0, 0, 0)" stroke-linecap="butt" stroke-linejoin="round" stroke-opacity="1.0" stroke-width="3.0" />
            <path d=" M 940.711, 843.782 942.769, 839.513 945.802, 832.915 948.749, 828.358 952.412, 823.813 954.169, 821.160 957.316, 816.223 959.138, 812.999 961.526, 806.173 962.482, 802.740 963.111, 797.401 963.128, 789.420 962.926, 787.423 " fill="none" stroke="rgb(0, 0, 0)" stroke-linecap="butt" stroke-linejoin="round" stroke-opacity="1.0" stroke-width="3.0" />
            <path d=" M 560.652, 742.102 566.465, 747.994 571.054, 749.516 574.978, 748.777 580.333, 749.375 584.825, 751.034 589.488, 752.590 592.281, 752.516 594.924, 749.900 594.389, 744.960 595.743, 742.565 595.959, 740.692 593.836, 736.199 592.422, 733.207 592.423, 732.763 592.427, 729.551 592.429, 728.165 592.429, 728.135 592.430, 726.820 " fill="none" stroke="rgb(0, 0, 0)" stroke-linecap="butt" stroke-linejoin="round" stroke-opacity="1.0" stroke-width="3.0" />
            <path d=" M 801.870, 765.615 797.232, 765.774 796.919, 765.785 796.900, 765.786 796.866, 765.787 796.860, 765.787 796.645, 765.794 794.745, 765.859 794.447, 766.025 792.837, 766.918 790.835, 769.414 790.006, 770.447 789.048, 771.603 786.998, 772.685 786.782, 772.799 786.258, 773.076 783.861, 774.340 782.502, 774.583 782.193, 774.638 782.179, 774.641 782.163, 774.643 780.841, 774.879 780.822, 774.883 775.949, 775.753 774.689, 776.664 774.451, 776.858 772.544, 778.418 772.026, 779.575 771.815, 780.047 770.979, 781.914 770.314, 785.640 771.313, 791.115 773.573, 794.858 778.835, 799.373 780.985, 800.224 782.779, 800.933 784.867, 801.760 " fill="none" stroke="rgb(0, 0, 0)" stroke-linecap="butt" stroke-linejoin="round" stroke-opacity="1.0" stroke-width="3.0" />
            <path d=" M 706.239, 821.828 706.532, 819.420 706.533, 816.366 706.504, 811.929 707.151, 807.129 707.242, 806.065 706.115, 802.771 701.229, 802.002 699.703, 799.946 697.652, 798.639 696.867, 798.319 694.873, 797.958 690.991, 801.153 687.414, 810.491 687.138, 811.212 686.366, 813.550 685.652, 815.419 684.726, 817.843 684.097, 819.992 683.543, 822.213 683.717, 824.086 683.744, 824.368 683.758, 824.518 683.913, 826.184 684.099, 828.167 " fill="none" stroke="rgb(0, 0, 0)" stroke-linecap="butt" stroke-linejoin="round" stroke-opacity="1.0" stroke-width="3.0" />
            <path d=" M 738.032, 586.551 729.918, 583.359 729.551, 583.215 729.119, 583.045 729.014, 583.004 725.514, 581.627 725.444, 581.600 725.422, 581.591 724.656, 581.290 723.202, 580.718 719.232, 579.006 718.844, 578.839 718.721, 578.786 718.613, 578.739 714.171, 576.824 714.012, 576.756 712.378, 576.051 712.337, 576.033 707.691, 573.960 701.816, 571.340 697.307, 569.860 693.518, 568.250 693.386, 568.194 693.024, 568.040 684.588, 562.670 683.592, 562.036 679.230, 557.614 " fill="none" stroke="rgb(0, 0, 0)" stroke-linecap="butt" stroke-linejoin="round" stroke-opacity="1.0" stroke-width="3.0" />
            <path d=" M 752.007, 470.709 752.208, 469.944 752.889, 467.353 754.268, 463.265 753.243, 459.970 749.399, 455.059 745.058, 451.538 741.510, 449.533 738.862, 448.832 734.523, 447.941 726.023, 446.531 718.031, 446.926 714.964, 448.269 713.567, 448.339 710.782, 449.657 708.122, 451.089 705.372, 452.440 702.340, 454.316 702.284, 454.350 " fill="none" stroke="rgb(0, 0, 0)" stroke-linecap="butt" stroke-linejoin="round" stroke-opacity="1.0" stroke-width="3.0" />
            <path d=" M 871.565, 1011.342 872.247, 1005.525 874.211, 995.720 874.695, 993.304 876.077, 989.048 879.745, 979.744 881.714, 974.748 883.124, 970.799 886.179, 963.393 887.028, 960.420 890.212, 950.941 890.588, 949.820 893.568, 940.949 " fill="none" stroke="rgb(0, 0, 0)" stroke-linecap="butt" stroke-linejoin="round" stroke-opacity="1.0" stroke-width="3.0" />
            <path d=" M 599.810, 716.549 604.143, 715.496 608.259, 711.067 608.915, 707.636 608.421, 706.085 605.985, 698.443 605.965, 698.380 605.687, 696.789 605.368, 694.964 605.384, 694.941 605.474, 694.811 606.041, 693.983 608.761, 690.015 611.467, 687.097 611.794, 686.745 614.833, 681.935 615.763, 679.175 615.500, 678.438 614.101, 674.520 614.089, 674.486 613.252, 672.141 612.894, 671.138 612.848, 671.011 608.859, 668.034 603.924, 666.153 603.302, 665.916 603.115, 665.791 601.365, 664.623 597.161, 661.814 596.598, 660.382 " fill="none" stroke="rgb(0, 0, 0)" stroke-linecap="butt" stroke-linejoin="round" stroke-opacity="1.0" stroke-width="3.0" />
            <path d=" M 964.895, 647.146 964.924, 646.602 965.392, 637.806 964.191, 631.288 962.821, 621.382 962.643, 620.092 960.250, 610.382 959.472, 607.222 957.618, 601.093 955.321, 593.894 952.865, 587.331 949.462, 580.979 947.376, 577.250 946.305, 575.336 " fill="none" stroke="rgb(0, 0, 0)" stroke-linecap="butt" stroke-linejoin="round" stroke-opacity="1.0" stroke-width="3.0" />
            <path d=" M 416.296, 916.717 417.527, 924.720 419.053, 934.602 419.359, 936.580 420.652, 939.569 422.705, 941.417 424.802, 946.405 425.807, 951.245 425.844, 955.289 426.094, 957.804 426.857, 964.040 429.419, 972.349 431.432, 976.457 433.673, 977.850 436.500, 977.246 438.191, 975.057 439.057, 969.104 " fill="none" stroke="rgb(0, 0, 0)" stroke-linecap="butt" stroke-linejoin="round" stroke-opacity="1.0" stroke-width="3.0" />
            <path d=" M 816.400, 518.710 818.029, 517.451 818.355, 517.199 820.667, 515.411 820.908, 515.225 821.041, 515.122 822.163, 514.255 822.166, 514.058 822.168, 513.931 822.186, 512.793 822.260, 508.133 821.607, 507.340 816.842, 501.556 816.296, 500.893 816.255, 500.844 814.958, 499.269 810.718, 496.369 808.607, 495.172 808.027, 494.844 803.673, 492.375 801.427, 492.230 798.291, 491.684 796.761, 491.772 796.406, 491.792 796.310, 491.798 796.304, 491.798 795.633, 491.837 795.526, 491.843 795.359, 491.852 795.102, 491.867 794.332, 491.911 790.054, 491.937 788.024, 491.949 784.952, 491.838 784.848, 491.835 784.688, 491.829 782.523, 491.751 782.155, 491.751 781.141, 491.752 781.117, 491.752 780.972, 491.752 770.904, 491.760 769.467, 491.761 764.803, 490.742 " fill="none" stroke="rgb(0, 0, 0)" stroke-linecap="butt" stroke-linejoin="round" stroke-opacity="1.0" stroke-width="3.0" />
            <path d=" M 833.268, 590.068 831.591, 588.928 829.419, 587.453 827.845, 586.551 827.244, 586.206 827.228, 586.197 827.017, 586.076 826.703, 585.896 825.999, 585.492 825.840, 585.401 824.263, 584.496 815.629, 579.451 815.368, 579.298 807.953, 575.711 803.765, 572.512 803.755, 572.504 803.589, 572.377 803.427, 572.254 803.108, 572.010 802.980, 571.912 802.546, 571.581 798.260, 568.307 797.748, 567.863 796.858, 567.093 796.829, 567.068 796.828, 567.067 796.420, 566.714 795.949, 566.306 795.724, 566.112 789.607, 559.342 787.839, 557.475 785.384, 552.254 783.772, 549.684 783.645, 548.723 783.309, 546.160 783.292, 544.125 784.064, 541.162 784.209, 540.837 784.681, 537.900 " fill="none" stroke="rgb(0, 0, 0)" stroke-linecap="butt" stroke-linejoin="round" stroke-opacity="1.0" stroke-width="3.0" />
            <path d=" M 655.167, 730.449 654.690, 728.949 652.145, 720.963 650.605, 713.922 649.210, 707.884 646.518, 698.253 646.032, 696.515 644.860, 691.470 642.799, 686.844 640.714, 682.343 640.188, 680.799 638.899, 677.009 637.649, 668.518 639.340, 659.304 639.622, 657.768 640.311, 653.520 " fill="none" stroke="rgb(0, 0, 0)" stroke-linecap="butt" stroke-linejoin="round" stroke-opacity="1.0" stroke-width="3.0" />
            <path d=" M 861.954, 1080.009 862.309, 1078.835 863.279, 1075.623 863.660, 1074.364 865.637, 1064.561 866.742, 1059.081 868.106, 1050.390 869.602, 1041.309 870.842, 1031.386 871.106, 1029.275 871.419, 1020.045 871.565, 1011.342 871.622, 1007.934 872.338, 997.959 872.394, 997.170 " fill="none" stroke="rgb(0, 0, 0)" stroke-linecap="butt" stroke-linejoin="round" stroke-opacity="1.0" stroke-width="3.0" />
            <path d=" M 777.074, 692.860 776.216, 696.582 776.067, 701.636 775.640, 704.220 776.033, 710.614 777.095, 719.448 777.607, 729.020 777.459, 739.019 777.428, 741.078 777.423, 741.395 777.455, 747.031 777.050, 751.001 775.902, 758.497 774.605, 762.942 772.047, 767.616 771.018, 770.115 767.900, 774.592 765.117, 777.082 764.843, 777.327 " fill="none" stroke="rgb(0, 0, 0)" stroke-linecap="butt" stroke-linejoin="round" stroke-opacity="1.0" stroke-width="3.0" />
            <path d=" M 428.223, 906.128 427.888, 904.729 428.317, 905.718 428.336, 905.761 431.160, 912.266 431.248, 915.156 433.325, 924.938 434.147, 928.811 436.163, 935.691 439.334, 942.053 439.628, 942.642 441.009, 944.489 441.016, 944.498 441.038, 944.528 441.118, 944.634 441.251, 944.812 441.822, 945.575 442.773, 946.848 444.998, 952.037 445.998, 962.020 446.023, 962.274 446.092, 962.960 446.112, 963.167 446.131, 963.350 446.191, 963.763 446.942, 968.951 447.621, 970.558 447.913, 971.248 448.716, 973.147 452.623, 974.921 457.408, 971.575 458.609, 970.166 459.179, 969.457 459.379, 969.208 460.118, 968.288 460.333, 968.019 " fill="none" stroke="rgb(0, 0, 0)" stroke-linecap="butt" stroke-linejoin="round" stroke-opacity="1.0" stroke-width="3.0" />
            <path d=" M 910.406, 583.843 909.923, 585.633 909.228, 589.809 909.100, 592.383 909.067, 593.048 909.061, 593.163 909.033, 593.719 910.735, 596.752 915.014, 602.841 916.702, 606.419 918.130, 613.945 919.161, 619.580 918.906, 626.423 920.993, 633.461 921.680, 639.406 921.607, 643.434 921.549, 646.634 921.439, 652.686 921.264, 654.652 921.019, 658.713 922.308, 663.890 923.261, 669.727 " fill="none" stroke="rgb(0, 0, 0)" stroke-linecap="butt" stroke-linejoin="round" stroke-opacity="1.0" stroke-width="3.0" />
            <path d=" M 716.810, 708.531 715.491, 708.056 712.143, 706.850 708.570, 705.610 708.546, 705.602 708.529, 705.599 707.284, 705.333 705.556, 706.007 705.250, 707.413 707.518, 710.823 707.760, 713.689 707.465, 716.639 707.398, 718.630 707.614, 719.429 708.150, 721.403 708.327, 722.871 708.434, 723.767 708.501, 724.318 708.571, 724.903 708.795, 726.766 708.803, 726.834 708.789, 727.209 708.593, 732.303 708.572, 732.904 708.569, 732.997 708.454, 736.236 708.195, 739.079 707.847, 742.882 706.397, 748.265 706.537, 752.647 705.496, 756.314 706.095, 760.579 706.901, 766.844 708.646, 770.380 710.741, 774.468 711.808, 777.348 712.426, 780.155 712.764, 781.022 " fill="none" stroke="rgb(0, 0, 0)" stroke-linecap="butt" stroke-linejoin="round" stroke-opacity="1.0" stroke-width="3.0" />
            <path d=" M 901.134, 542.605 895.519, 540.147 893.059, 539.476 893.048, 539.473 888.499, 538.233 880.069, 537.540 876.362, 537.343 875.560, 537.300 875.342, 537.288 874.209, 537.228 874.199, 537.227 872.472, 537.135 869.859, 536.996 869.704, 536.988 869.703, 536.988 869.644, 536.985 865.903, 536.785 862.249, 537.471 861.491, 537.613 857.457, 538.369 855.825, 539.302 855.781, 539.327 855.636, 539.410 854.834, 539.869 854.776, 539.902 854.696, 539.947 854.559, 540.026 852.802, 541.030 852.797, 541.033 852.141, 541.408 851.642, 541.793 847.157, 545.245 841.467, 546.626 837.139, 547.589 836.597, 547.709 834.365, 548.206 833.677, 548.359 832.680, 549.097 830.984, 550.353 825.520, 555.234 825.071, 555.634 819.855, 557.757 818.441, 560.322 817.712, 561.645 " fill="none" stroke="rgb(0, 0, 0)" stroke-linecap="butt" stroke-linejoin="round" stroke-opacity="1.0" stroke-width="3.0" />
            <path d=" M 923.273, 669.489 923.261, 669.727 922.974, 675.737 922.305, 680.802 921.608, 686.580 920.127, 690.681 918.159, 694.970 915.197, 699.689 913.416, 702.331 913.338, 702.447 910.811, 706.194 907.188, 710.084 901.503, 715.451 895.030, 720.906 891.931, 722.899 883.489, 728.258 883.250, 728.410 875.059, 732.989 870.226, 734.927 864.766, 738.019 " fill="none" stroke="rgb(0, 0, 0)" stroke-linecap="butt" stroke-linejoin="round" stroke-opacity="1.0" stroke-width="3.0" />
            <path d=" M 859.693, 1129.393 857.668, 1133.375 855.319, 1136.737 855.200, 1136.907 850.386, 1141.195 846.558, 1144.363 840.599, 1150.417 832.748, 1156.610 831.409, 1157.666 826.889, 1162.708 822.864, 1169.320 818.025, 1174.750 810.697, 1181.555 807.128, 1184.869 802.750, 1188.994 796.752, 1193.724 792.394, 1197.161 796.471, 1193.887 797.194, 1192.964 799.596, 1189.898 " fill="none" stroke="rgb(0, 0, 0)" stroke-linecap="butt" stroke-linejoin="round" stroke-opacity="1.0" stroke-width="3.0" />
            <path d=" M 701.735, 614.066 705.391, 616.378 711.344, 619.209 720.297, 621.407 726.296, 622.134 732.346, 622.660 739.612, 623.812 740.077, 623.813 745.000, 623.821 751.010, 624.987 756.269, 625.229 762.148, 625.871 765.954, 626.230 771.590, 626.680 776.158, 626.826 779.402, 627.541 784.458, 627.702 784.832, 627.798 788.952, 628.856 795.465, 629.810 804.788, 630.836 805.191, 630.880 807.083, 631.250 811.231, 632.061 812.819, 631.950 815.650, 631.753 817.400, 632.078 822.792, 633.081 825.851, 633.006 829.615, 632.785 " fill="none" stroke="rgb(0, 0, 0)" stroke-linecap="butt" stroke-linejoin="round" stroke-opacity="1.0" stroke-width="3.0" />
            <path d=" M 696.855, 1107.589 693.061, 1109.155 684.687, 1112.613 677.440, 1114.654 672.156, 1115.761 668.024, 1115.993 658.161, 1117.640 657.704, 1117.717 651.576, 1116.725 648.541, 1118.188 647.938, 1121.119 649.581, 1122.517 651.674, 1124.262 658.914, 1128.382 668.195, 1132.105 668.435, 1132.201 670.264, 1133.306 677.093, 1136.075 686.543, 1138.711 696.391, 1140.444 698.405, 1140.799 704.875, 1139.931 708.824, 1139.878 718.009, 1139.105 720.846, 1138.866 " fill="none" stroke="rgb(0, 0, 0)" stroke-linecap="butt" stroke-linejoin="round" stroke-opacity="1.0" stroke-width="3.0" />
            <path d=" M 552.255, 541.748 550.510, 545.077 546.092, 553.506 542.576, 558.891 541.786, 560.377 539.779, 564.232 538.570, 568.547 535.069, 575.119 531.611, 581.819 528.736, 587.709 524.182, 595.618 519.936, 603.509 517.831, 608.062 515.648, 612.087 511.261, 621.073 508.668, 626.385 506.414, 632.870 502.144, 641.912 497.874, 650.955 497.684, 651.355 496.508, 655.438 494.164, 661.665 " fill="none" stroke="rgb(0, 0, 0)" stroke-linecap="butt" stroke-linejoin="round" stroke-opacity="1.0" stroke-width="3.0" />
            <path d=" M 891.697, 874.905 891.400, 874.297 891.383, 874.260 890.695, 872.852 890.423, 872.295 888.530, 869.700 887.811, 865.695 887.740, 860.962 887.860, 855.740 890.062, 848.337 891.379, 844.601 895.518, 837.760 899.127, 832.731 900.017, 831.409 902.685, 825.245 907.980, 821.032 910.378, 817.046 912.281, 814.369 915.873, 809.448 917.610, 807.276 920.288, 803.404 924.919, 795.715 930.024, 787.116 930.141, 786.918 933.145, 783.535 935.695, 780.437 936.177, 777.691 938.091, 774.967 939.612, 771.327 941.733, 768.299 941.825, 768.167 941.856, 768.124 942.845, 766.710 944.676, 762.995 944.940, 762.457 945.212, 761.842 945.356, 761.516 946.531, 758.857 946.880, 757.752 949.690, 752.068 951.228, 748.886 952.633, 746.145 955.294, 742.863 955.760, 740.083 955.853, 739.529 " fill="none" stroke="rgb(0, 0, 0)" stroke-linecap="butt" stroke-linejoin="round" stroke-opacity="1.0" stroke-width="3.0" />
            <path d=" M 504.046, 854.973 507.934, 848.993 508.039, 848.785 509.488, 845.922 510.476, 843.969 510.591, 843.907 514.117, 841.999 519.371, 844.518 523.981, 848.036 530.745, 850.687 531.476, 850.647 535.676, 849.096 538.309, 844.499 535.197, 837.317 531.247, 831.643 524.897, 825.384 523.114, 823.055 523.916, 820.409 526.296, 815.662 535.322, 817.178 541.509, 819.301 551.452, 820.372 551.635, 820.392 557.413, 821.504 565.865, 821.442 568.331, 820.584 568.865, 816.635 564.051, 810.998 557.558, 804.179 552.898, 796.349 551.133, 794.266 550.895, 793.985 550.263, 793.626 545.587, 791.064 " fill="none" stroke="rgb(0, 0, 0)" stroke-linecap="butt" stroke-linejoin="round" stroke-opacity="1.0" stroke-width="3.0" />
            <path d=" M 415.069, 756.438 414.303, 758.296 414.022, 758.977 412.849, 764.252 411.217, 774.118 410.887, 776.112 410.088, 786.080 410.028, 786.829 409.999, 787.255 409.762, 797.252 409.640, 802.400 409.691, 808.837 409.172, 818.539 408.882, 828.535 408.755, 832.896 408.845, 842.896 408.888, 847.701 408.624, 854.195 409.188, 864.179 409.329, 866.693 410.787, 876.586 411.203, 879.406 411.843, 889.385 411.934, 890.802 413.007, 899.505 413.917, 907.671 416.296, 916.717 417.000, 919.396 " fill="none" stroke="rgb(0, 0, 0)" stroke-linecap="butt" stroke-linejoin="round" stroke-opacity="1.0" stroke-width="3.0" />
            <path d=" M 493.013, 921.472 502.229, 925.354 506.095, 926.982 512.362, 928.566 516.221, 929.746 526.211, 930.181 527.575, 930.240 533.986, 930.300 541.821, 930.290 550.249, 930.356 560.230, 929.739 560.547, 929.720 567.109, 927.955 569.085, 926.820 569.156, 924.741 566.759, 922.113 564.646, 920.755 558.495, 917.188 549.365, 913.108 548.100, 912.543 539.604, 907.267 538.499, 906.582 532.703, 902.573 526.748, 898.824 520.952, 893.611 513.792, 886.630 511.389, 884.286 507.488, 880.038 503.270, 875.581 502.776, 873.752 502.693, 873.444 502.676, 873.382 502.653, 873.297 " fill="none" stroke="rgb(0, 0, 0)" stroke-linecap="butt" stroke-linejoin="round" stroke-opacity="1.0" stroke-width="3.0" />
            <path d=" M 472.672, 710.932 471.542, 712.444 469.066, 715.756 466.314, 722.032 464.290, 725.633 461.756, 731.764 460.144, 739.152 457.098, 745.282 454.293, 751.175 452.054, 754.778 448.924, 759.570 445.462, 762.207 444.149, 764.776 442.420, 767.654 438.768, 771.278 436.644, 774.033 434.866, 776.462 433.390, 782.909 431.856, 787.898 431.799, 789.075 431.557, 794.023 432.160, 800.452 432.390, 810.450 432.559, 817.811 432.265, 825.542 431.548, 829.546 430.794, 838.086 430.553, 839.090 430.327, 840.033 429.546, 843.292 429.285, 847.101 429.355, 848.258 429.749, 854.699 428.442, 860.253 428.308, 867.013 428.135, 870.383 427.955, 873.916 428.469, 881.933 428.715, 887.217 428.523, 893.985 428.588, 894.597 428.688, 895.545 428.613, 901.711 427.888, 904.729 " fill="none" stroke="rgb(0, 0, 0)" stroke-linecap="butt" stroke-linejoin="round" stroke-opacity="1.0" stroke-width="3.0" />
        </g>
    </g>
</svg>
