<?xml version='1.0' encoding='ascii'?>
<svg xmlns="http://www.w3.org/2000/svg" height="1280" version="1.1" width="1280">
    <g id="RenderLayer_LineSet" inkscape:groupmode="lineset" inkscape:label="RenderLayer_LineSet" xmlns:inkscape="http://www.inkscape.org/namespaces/inkscape">
        <g id="strokes" inkscape:groupmode="layer" inkscape:label="strokes" xmlns:inkscape="http://www.inkscape.org/namespaces/inkscape">
            <path d=" M 736.757, 647.644 735.592, 648.291 733.269, 650.086 732.873, 650.358 730.703, 652.908 729.326, 654.797 728.060, 655.988 726.401, 660.362 725.425, 663.405 " fill="none" stroke="rgb(0, 0, 0)" stroke-linecap="butt" stroke-linejoin="round" stroke-opacity="1.0" stroke-width="3.0" />
            <path d=" M 755.420, 1036.879 758.987, 1039.189 759.019, 1039.210 759.326, 1039.408 759.404, 1039.457 760.113, 1039.897 764.962, 1042.907 766.871, 1043.310 773.587, 1044.726 " fill="none" stroke="rgb(0, 0, 0)" stroke-linecap="butt" stroke-linejoin="round" stroke-opacity="1.0" stroke-width="3.0" />
            <path d=" M 610.348, 718.775 610.447, 718.703 610.905, 717.936 611.524, 715.077 610.757, 711.279 610.053, 708.924 606.522, 704.063 604.073, 701.088 " fill="none" stroke="rgb(0, 0, 0)" stroke-linecap="butt" stroke-linejoin="round" stroke-opacity="1.0" stroke-width="3.0" />
            <path d=" M 836.799, 615.478 836.411, 615.583 831.227, 616.977 830.980, 617.044 830.969, 617.047 826.462, 618.259 822.606, 620.377 820.035, 622.786 818.920, 623.832 " fill="none" stroke="rgb(0, 0, 0)" stroke-linecap="butt" stroke-linejoin="round" stroke-opacity="1.0" stroke-width="3.0" />
            <path d=" M 644.466, 751.191 644.338, 756.692 644.257, 760.205 642.969, 767.854 642.622, 770.707 642.515, 771.594 " fill="none" stroke="rgb(0, 0, 0)" stroke-linecap="butt" stroke-linejoin="round" stroke-opacity="1.0" stroke-width="3.0" />
            <path d=" M 955.523, 731.212 955.652, 731.047 956.628, 729.801 957.207, 729.062 956.613, 727.207 955.122, 724.670 953.389, 721.688 952.022, 719.335 952.013, 719.319 951.753, 718.871 949.277, 713.098 " fill="none" stroke="rgb(0, 0, 0)" stroke-linecap="butt" stroke-linejoin="round" stroke-opacity="1.0" stroke-width="3.0" />
            <path d=" M 687.423, 954.984 689.693, 956.921 690.169, 957.327 690.921, 957.968 695.697, 960.614 697.437, 961.577 698.022, 961.901 699.317, 962.478 699.467, 962.545 699.490, 962.555 699.580, 962.595 699.728, 962.661 699.802, 962.693 699.855, 962.717 700.443, 962.979 700.757, 963.119 702.017, 963.680 702.268, 963.791 702.667, 963.969 702.690, 964.002 703.747, 965.503 704.369, 966.387 " fill="none" stroke="rgb(0, 0, 0)" stroke-linecap="butt" stroke-linejoin="round" stroke-opacity="1.0" stroke-width="3.0" />
            <path d=" M 789.423, 1055.477 789.543, 1055.368 792.340, 1052.858 792.731, 1052.506 794.563, 1050.861 796.396, 1049.216 801.523, 1040.630 801.826, 1040.121 802.107, 1039.310 " fill="none" stroke="rgb(0, 0, 0)" stroke-linecap="butt" stroke-linejoin="round" stroke-opacity="1.0" stroke-width="3.0" />
            <path d=" M 761.119, 1020.805 754.178, 1024.685 750.576, 1027.254 749.681, 1027.892 748.649, 1028.832 748.648, 1028.833 747.582, 1029.803 747.319, 1030.042 746.827, 1030.490 745.823, 1031.404 743.966, 1033.094 " fill="none" stroke="rgb(0, 0, 0)" stroke-linecap="butt" stroke-linejoin="round" stroke-opacity="1.0" stroke-width="3.0" />
            <path d=" M 425.335, 591.407 424.992, 592.331 423.809, 595.517 421.809, 605.315 421.724, 605.731 420.764, 612.111 " fill="none" stroke="rgb(0, 0, 0)" stroke-linecap="butt" stroke-linejoin="round" stroke-opacity="1.0" stroke-width="3.0" />
            <path d=" M 420.895, 625.331 420.189, 634.265 420.167, 634.545 421.900, 644.394 422.298, 646.658 " fill="none" stroke="rgb(0, 0, 0)" stroke-linecap="butt" stroke-linejoin="round" stroke-opacity="1.0" stroke-width="3.0" />
            <path d=" M 816.218, 670.268 814.957, 675.527 814.583, 676.993 812.962, 683.346 813.037, 686.409 813.873, 690.253 814.111, 691.348 " fill="none" stroke="rgb(0, 0, 0)" stroke-linecap="butt" stroke-linejoin="round" stroke-opacity="1.0" stroke-width="3.0" />
            <path d=" M 939.164, 736.255 940.691, 739.871 944.113, 744.009 946.205, 742.727 946.560, 742.469 950.897, 740.284 952.276, 737.203 952.849, 736.045 " fill="none" stroke="rgb(0, 0, 0)" stroke-linecap="butt" stroke-linejoin="round" stroke-opacity="1.0" stroke-width="3.0" />
            <path d=" M 641.194, 830.537 640.946, 830.099 637.852, 824.633 634.458, 816.664 631.883, 810.870 " fill="none" stroke="rgb(0, 0, 0)" stroke-linecap="butt" stroke-linejoin="round" stroke-opacity="1.0" stroke-width="3.0" />
            <path d=" M 770.945, 1024.052 770.745, 1023.847 770.701, 1023.801 770.655, 1023.755 769.004, 1022.064 768.879, 1021.935 768.219, 1021.259 765.673, 1018.651 765.480, 1018.453 765.271, 1018.484 763.350, 1019.176 761.119, 1020.805 760.823, 1021.021 754.396, 1026.846 " fill="none" stroke="rgb(0, 0, 0)" stroke-linecap="butt" stroke-linejoin="round" stroke-opacity="1.0" stroke-width="3.0" />
            <path d=" M 830.903, 1067.653 833.534, 1065.654 837.821, 1059.918 841.583, 1056.882 843.431, 1051.939 843.946, 1050.561 " fill="none" stroke="rgb(0, 0, 0)" stroke-linecap="butt" stroke-linejoin="round" stroke-opacity="1.0" stroke-width="3.0" />
            <path d=" M 869.127, 708.672 868.148, 708.214 868.137, 708.209 867.241, 707.790 863.243, 705.919 859.839, 705.496 854.148, 705.632 849.962, 708.681 849.223, 709.794 " fill="none" stroke="rgb(0, 0, 0)" stroke-linecap="butt" stroke-linejoin="round" stroke-opacity="1.0" stroke-width="3.0" />
            <path d=" M 548.867, 696.343 548.889, 696.329 553.028, 693.552 554.396, 692.634 555.539, 691.867 555.950, 691.592 554.957, 692.752 554.605, 692.993 553.345, 693.855 553.344, 693.856 549.461, 696.514 548.867, 696.343 546.946, 695.716 544.157, 694.805 " fill="none" stroke="rgb(0, 0, 0)" stroke-linecap="butt" stroke-linejoin="round" stroke-opacity="1.0" stroke-width="3.0" />
            <path d=" M 809.610, 704.763 806.071, 710.586 802.792, 713.897 800.549, 716.180 796.753, 718.801 795.359, 718.966 795.088, 718.998 793.754, 719.156 " fill="none" stroke="rgb(0, 0, 0)" stroke-linecap="butt" stroke-linejoin="round" stroke-opacity="1.0" stroke-width="3.0" />
            <path d=" M 730.638, 536.242 730.543, 536.035 730.127, 535.128 729.459, 533.670 729.208, 533.122 725.870, 529.541 722.234, 527.478 717.682, 527.081 717.513, 527.067 715.074, 526.598 717.682, 527.081 " fill="none" stroke="rgb(0, 0, 0)" stroke-linecap="butt" stroke-linejoin="round" stroke-opacity="1.0" stroke-width="3.0" />
            <path d=" M 463.709, 667.699 465.268, 666.785 465.358, 666.607 465.610, 666.114 465.677, 665.981 465.873, 665.597 466.062, 665.225 466.534, 664.299 467.724, 661.964 468.128, 661.170 470.506, 656.502 470.919, 649.439 470.900, 647.089 " fill="none" stroke="rgb(0, 0, 0)" stroke-linecap="butt" stroke-linejoin="round" stroke-opacity="1.0" stroke-width="3.0" />
            <path d=" M 739.656, 812.298 737.186, 813.827 735.571, 814.827 735.443, 814.907 729.945, 817.219 723.822, 819.076 723.760, 819.080 723.748, 819.081 720.526, 819.313 720.427, 819.320 719.392, 819.394 718.396, 819.466 718.313, 819.472 " fill="none" stroke="rgb(0, 0, 0)" stroke-linecap="butt" stroke-linejoin="round" stroke-opacity="1.0" stroke-width="3.0" />
            <path d=" M 813.917, 726.775 809.284, 721.430 809.174, 721.303 806.728, 719.908 805.964, 719.751 803.345, 719.580 803.104, 719.579 800.295, 719.569 798.132, 719.562 798.095, 719.673 797.905, 720.241 797.677, 720.922 796.787, 723.586 " fill="none" stroke="rgb(0, 0, 0)" stroke-linecap="butt" stroke-linejoin="round" stroke-opacity="1.0" stroke-width="3.0" />
            <path d=" M 676.502, 851.863 673.864, 853.138 670.975, 854.534 666.072, 856.780 663.718, 859.311 659.174, 861.212 658.879, 861.335 658.363, 861.522 658.353, 861.525 656.258, 862.282 " fill="none" stroke="rgb(0, 0, 0)" stroke-linecap="butt" stroke-linejoin="round" stroke-opacity="1.0" stroke-width="3.0" />
            <path d=" M 633.429, 814.936 631.883, 810.870 630.034, 806.004 629.939, 805.840 627.658, 801.902 625.226, 796.181 623.929, 793.958 " fill="none" stroke="rgb(0, 0, 0)" stroke-linecap="butt" stroke-linejoin="round" stroke-opacity="1.0" stroke-width="3.0" />
            <path d=" M 517.951, 690.452 519.837, 688.670 519.845, 688.662 520.187, 688.339 522.022, 688.162 523.591, 687.701 523.685, 687.673 525.262, 687.210 525.607, 687.109 525.732, 687.072 525.814, 687.048 527.557, 686.536 527.871, 686.444 528.574, 686.237 528.718, 685.727 528.719, 685.724 528.786, 685.486 528.796, 685.449 528.900, 685.077 529.056, 684.524 529.175, 684.100 529.176, 684.096 529.290, 683.691 529.504, 682.930 528.059, 680.575 528.048, 680.557 527.876, 680.137 527.720, 679.755 527.719, 679.751 527.617, 679.503 527.474, 679.153 526.911, 677.774 526.455, 675.684 " fill="none" stroke="rgb(0, 0, 0)" stroke-linecap="butt" stroke-linejoin="round" stroke-opacity="1.0" stroke-width="3.0" />
            <path d=" M 933.670, 796.373 934.084, 793.801 934.100, 785.301 932.443, 778.160 932.398, 777.964 932.127, 776.796 931.356, 773.473 " fill="none" stroke="rgb(0, 0, 0)" stroke-linecap="butt" stroke-linejoin="round" stroke-opacity="1.0" stroke-width="3.0" />
            <path d=" M 454.413, 558.690 454.344, 558.787 451.434, 562.869 450.795, 565.398 451.079, 567.435 450.902, 569.993 450.781, 571.745 450.770, 571.905 450.762, 572.024 450.153, 574.041 449.001, 577.175 448.944, 577.329 448.929, 577.384 448.884, 577.548 448.471, 579.055 448.068, 580.526 " fill="none" stroke="rgb(0, 0, 0)" stroke-linecap="butt" stroke-linejoin="round" stroke-opacity="1.0" stroke-width="3.0" />
            <path d=" M 447.821, 673.693 448.393, 671.776 448.473, 671.692 450.446, 669.618 456.990, 662.920 457.177, 662.135 457.686, 660.007 457.994, 658.721 458.034, 658.554 458.105, 658.256 458.108, 658.242 458.478, 656.697 460.606, 655.128 " fill="none" stroke="rgb(0, 0, 0)" stroke-linecap="butt" stroke-linejoin="round" stroke-opacity="1.0" stroke-width="3.0" />
            <path d=" M 857.434, 1027.278 858.449, 1028.024 858.799, 1028.282 860.071, 1029.218 860.110, 1029.246 862.306, 1030.861 864.230, 1031.561 868.663, 1030.851 874.558, 1025.724 876.834, 1023.731 " fill="none" stroke="rgb(0, 0, 0)" stroke-linecap="butt" stroke-linejoin="round" stroke-opacity="1.0" stroke-width="3.0" />
            <path d=" M 924.554, 750.499 925.711, 749.380 925.729, 749.362 926.985, 748.148 927.038, 748.080 927.112, 747.985 928.979, 745.582 929.044, 745.499 929.306, 745.161 930.994, 742.989 933.183, 741.636 935.297, 739.686 936.979, 738.406 939.164, 736.255 940.453, 734.987 940.493, 734.774 940.680, 733.787 " fill="none" stroke="rgb(0, 0, 0)" stroke-linecap="butt" stroke-linejoin="round" stroke-opacity="1.0" stroke-width="3.0" />
            <path d=" M 908.214, 624.839 903.824, 623.670 902.025, 623.525 901.589, 623.640 899.337, 626.084 899.005, 627.368 899.093, 630.114 905.525, 637.188 " fill="none" stroke="rgb(0, 0, 0)" stroke-linecap="butt" stroke-linejoin="round" stroke-opacity="1.0" stroke-width="3.0" />
            <path d=" M 889.134, 978.017 890.963, 975.439 891.151, 970.375 891.581, 960.384 891.593, 960.100 891.479, 954.961 891.476, 954.820 " fill="none" stroke="rgb(0, 0, 0)" stroke-linecap="butt" stroke-linejoin="round" stroke-opacity="1.0" stroke-width="3.0" />
            <path d=" M 647.063, 909.637 647.419, 910.597 647.926, 911.962 649.961, 915.817 650.545, 916.922 651.431, 918.601 651.509, 918.668 651.707, 918.840 651.967, 919.065 652.031, 919.121 652.527, 919.549 652.635, 919.643 657.712, 924.038 659.469, 925.150 660.373, 925.723 661.278, 926.296 662.452, 927.039 " fill="none" stroke="rgb(0, 0, 0)" stroke-linecap="butt" stroke-linejoin="round" stroke-opacity="1.0" stroke-width="3.0" />
            <path d=" M 723.902, 992.635 721.614, 992.421 721.408, 992.402 712.726, 991.588 706.853, 992.228 706.412, 992.328 702.883, 993.133 700.056, 993.085 " fill="none" stroke="rgb(0, 0, 0)" stroke-linecap="butt" stroke-linejoin="round" stroke-opacity="1.0" stroke-width="3.0" />
            <path d=" M 854.386, 708.987 850.521, 709.487 849.223, 709.794 848.430, 709.982 843.829, 711.831 843.065, 712.674 842.517, 713.278 842.106, 713.731 841.973, 713.877 841.588, 714.305 841.413, 714.500 841.281, 714.646 841.122, 714.823 840.784, 715.199 839.996, 716.074 839.162, 719.069 838.170, 722.632 838.003, 723.232 " fill="none" stroke="rgb(0, 0, 0)" stroke-linecap="butt" stroke-linejoin="round" stroke-opacity="1.0" stroke-width="3.0" />
            <path d=" M 550.804, 619.206 550.875, 619.131 550.997, 619.003 548.629, 612.848 544.885, 608.486 541.917, 605.195 541.256, 604.869 539.238, 603.873 536.876, 602.708 535.543, 602.050 " fill="none" stroke="rgb(0, 0, 0)" stroke-linecap="butt" stroke-linejoin="round" stroke-opacity="1.0" stroke-width="3.0" />
            <path d=" M 570.571, 502.327 565.000, 503.383 560.483, 504.239 557.252, 504.835 552.253, 505.757 546.867, 507.032 " fill="none" stroke="rgb(0, 0, 0)" stroke-linecap="butt" stroke-linejoin="round" stroke-opacity="1.0" stroke-width="3.0" />
            <path d=" M 660.728, 849.364 663.019, 846.251 666.168, 843.382 667.689, 841.995 668.569, 841.193 671.980, 839.352 674.387, 838.054 677.227, 837.363 678.795, 836.977 678.882, 836.956 680.510, 836.555 " fill="none" stroke="rgb(0, 0, 0)" stroke-linecap="butt" stroke-linejoin="round" stroke-opacity="1.0" stroke-width="3.0" />
            <path d=" M 794.676, 615.262 791.837, 613.399 788.542, 611.237 784.362, 608.495 783.692, 608.055 781.904, 607.400 778.907, 606.303 778.419, 606.124 776.536, 605.487 775.586, 605.166 773.599, 604.493 773.591, 604.491 773.482, 604.454 773.301, 604.392 773.016, 604.318 " fill="none" stroke="rgb(0, 0, 0)" stroke-linecap="butt" stroke-linejoin="round" stroke-opacity="1.0" stroke-width="3.0" />
            <path d=" M 816.945, 767.917 812.883, 765.960 809.667, 763.496 808.035, 762.245 805.761, 760.859 805.306, 760.582 802.271, 759.523 800.977, 759.340 800.521, 759.276 799.892, 759.502 799.824, 759.526 799.335, 759.702 798.747, 759.914 797.857, 760.234 797.803, 760.254 797.500, 760.363 797.361, 760.467 797.040, 760.708 796.698, 760.964 796.517, 761.100 795.840, 761.608 795.717, 761.700 795.537, 761.835 " fill="none" stroke="rgb(0, 0, 0)" stroke-linecap="butt" stroke-linejoin="round" stroke-opacity="1.0" stroke-width="3.0" />
            <path d=" M 836.686, 634.586 836.408, 634.491 836.262, 634.441 835.802, 634.284 831.927, 632.963 829.217, 632.038 825.964, 630.781 825.266, 630.511 824.962, 630.394 824.582, 630.247 823.932, 629.938 823.621, 629.789 823.605, 629.782 823.585, 629.772 820.310, 628.214 819.347, 627.756 818.133, 627.178 815.524, 625.929 815.384, 625.862 814.089, 625.243 " fill="none" stroke="rgb(0, 0, 0)" stroke-linecap="butt" stroke-linejoin="round" stroke-opacity="1.0" stroke-width="3.0" />
            <path d=" M 581.437, 501.435 581.211, 501.453 581.064, 501.465 578.662, 501.659 578.163, 501.700 577.600, 501.745 577.262, 501.773 577.239, 501.774 576.872, 501.804 574.163, 502.024 572.443, 502.364 570.571, 502.327 567.437, 502.809 563.262, 503.451 557.252, 504.835 " fill="none" stroke="rgb(0, 0, 0)" stroke-linecap="butt" stroke-linejoin="round" stroke-opacity="1.0" stroke-width="3.0" />
            <path d=" M 479.894, 683.126 480.452, 683.287 480.823, 683.395 481.989, 681.757 481.502, 671.768 481.469, 671.076 481.212, 670.538 480.514, 668.432 480.450, 668.240 480.375, 668.013 479.227, 664.548 479.123, 664.236 479.109, 664.194 479.000, 663.863 478.767, 663.161 478.660, 662.838 478.342, 661.877 477.835, 660.349 477.817, 660.295 " fill="none" stroke="rgb(0, 0, 0)" stroke-linecap="butt" stroke-linejoin="round" stroke-opacity="1.0" stroke-width="3.0" />
            <path d=" M 810.287, 642.185 812.279, 642.757 813.237, 643.032 815.809, 643.770 816.025, 643.832 816.063, 643.843 816.205, 643.884 817.185, 644.165 817.743, 644.325 817.791, 644.339 818.336, 644.495 819.388, 644.797 819.535, 644.840 819.801, 644.926 820.138, 645.035 821.869, 645.595 822.315, 645.740 822.392, 645.765 822.427, 645.776 823.503, 646.050 826.299, 646.762 826.624, 646.845 826.782, 646.855 831.103, 647.128 831.547, 647.103 834.829, 646.923 " fill="none" stroke="rgb(0, 0, 0)" stroke-linecap="butt" stroke-linejoin="round" stroke-opacity="1.0" stroke-width="3.0" />
            <path d=" M 660.466, 863.944 658.365, 864.605 657.682, 864.820 654.719, 865.753 653.745, 866.060 652.106, 866.154 651.711, 866.177 651.637, 866.181 651.187, 866.207 649.856, 866.284 649.535, 866.302 649.277, 866.368 649.082, 866.417 646.551, 867.055 645.094, 867.420 644.252, 867.630 643.715, 867.765 643.118, 869.356 641.470, 874.727 641.829, 875.273 " fill="none" stroke="rgb(0, 0, 0)" stroke-linecap="butt" stroke-linejoin="round" stroke-opacity="1.0" stroke-width="3.0" />
            <path d=" M 888.140, 993.171 887.457, 988.823 887.750, 981.631 887.796, 980.513 887.937, 979.705 888.120, 978.655 888.927, 974.031 888.652, 968.276 888.650, 968.232 888.620, 967.591 " fill="none" stroke="rgb(0, 0, 0)" stroke-linecap="butt" stroke-linejoin="round" stroke-opacity="1.0" stroke-width="3.0" />
            <path d=" M 948.396, 811.824 945.706, 810.170 943.051, 810.454 939.552, 815.653 936.545, 818.487 936.345, 818.676 936.011, 818.817 935.424, 819.066 934.773, 819.342 933.853, 819.732 931.753, 820.621 931.547, 820.739 931.389, 820.828 931.271, 820.895 930.955, 821.074 930.944, 821.080 930.903, 821.104 928.508, 822.461 928.300, 822.579 928.048, 822.723 " fill="none" stroke="rgb(0, 0, 0)" stroke-linecap="butt" stroke-linejoin="round" stroke-opacity="1.0" stroke-width="3.0" />
            <path d=" M 831.227, 616.977 829.613, 616.135 826.867, 614.119 824.515, 611.862 822.651, 610.402 821.271, 609.942 818.775, 609.285 816.807, 609.569 811.539, 611.254 808.308, 612.477 808.175, 612.527 " fill="none" stroke="rgb(0, 0, 0)" stroke-linecap="butt" stroke-linejoin="round" stroke-opacity="1.0" stroke-width="3.0" />
            <path d=" M 421.512, 638.441 421.532, 638.646 421.655, 639.935 422.132, 644.926 422.298, 646.658 422.369, 647.396 422.851, 653.752 423.651, 661.392 424.161, 661.942 425.665, 663.562 " fill="none" stroke="rgb(0, 0, 0)" stroke-linecap="butt" stroke-linejoin="round" stroke-opacity="1.0" stroke-width="3.0" />
            <path d=" M 725.962, 662.934 725.425, 663.405 724.820, 663.936 722.541, 668.671 717.737, 674.802 711.726, 679.208 709.923, 680.155 707.914, 681.210 " fill="none" stroke="rgb(0, 0, 0)" stroke-linecap="butt" stroke-linejoin="round" stroke-opacity="1.0" stroke-width="3.0" />
            <path d=" M 665.712, 543.976 661.350, 540.327 660.488, 539.606 653.976, 534.159 651.259, 530.759 647.675, 527.027 646.441, 525.716 " fill="none" stroke="rgb(0, 0, 0)" stroke-linecap="butt" stroke-linejoin="round" stroke-opacity="1.0" stroke-width="3.0" />
            <path d=" M 902.799, 688.100 902.724, 687.956 899.658, 682.075 897.379, 677.500 894.604, 676.007 889.187, 674.334 884.129, 671.271 " fill="none" stroke="rgb(0, 0, 0)" stroke-linecap="butt" stroke-linejoin="round" stroke-opacity="1.0" stroke-width="3.0" />
            <path d=" M 845.735, 636.075 844.029, 634.635 840.883, 634.464 836.086, 633.231 830.678, 631.425 825.715, 629.815 825.241, 629.675 823.463, 629.148 823.435, 629.140 822.753, 628.938 820.310, 628.214 " fill="none" stroke="rgb(0, 0, 0)" stroke-linecap="butt" stroke-linejoin="round" stroke-opacity="1.0" stroke-width="3.0" />
            <path d=" M 800.342, 746.286 797.454, 746.586 796.524, 746.682 795.652, 746.773 794.584, 746.884 793.352, 747.012 792.450, 747.106 791.758, 747.178 791.487, 747.600 790.843, 748.603 790.302, 749.446 790.274, 749.612 790.219, 749.934 789.990, 751.272 789.928, 751.635 789.910, 751.742 789.825, 752.241 789.750, 752.682 789.681, 753.086 789.324, 755.173 789.284, 755.411 789.134, 756.286 789.325, 757.692 789.389, 758.167 789.818, 761.335 789.844, 761.531 789.854, 761.601 789.866, 761.690 789.720, 761.858 789.387, 762.238 787.941, 763.892 787.762, 764.097 " fill="none" stroke="rgb(0, 0, 0)" stroke-linecap="butt" stroke-linejoin="round" stroke-opacity="1.0" stroke-width="3.0" />
            <path d=" M 784.425, 735.178 783.491, 735.555 783.267, 735.646 781.552, 736.338 781.528, 736.348 781.362, 736.415 781.324, 736.430 781.229, 736.468 781.173, 736.491 781.046, 736.542 780.584, 736.729 778.680, 737.497 777.531, 738.175 776.831, 738.588 776.814, 738.598 776.731, 738.647 776.729, 738.648 776.710, 738.659 776.446, 738.815 776.258, 738.926 776.183, 738.971 775.296, 739.494 773.803, 741.967 773.183, 745.519 774.684, 750.333 777.281, 753.608 777.952, 754.455 " fill="none" stroke="rgb(0, 0, 0)" stroke-linecap="butt" stroke-linejoin="round" stroke-opacity="1.0" stroke-width="3.0" />
            <path d=" M 744.900, 1028.888 735.313, 1026.222 732.817, 1025.527 724.143, 1024.574 723.409, 1024.366 721.888, 1025.061 720.754, 1025.579 718.946, 1026.912 " fill="none" stroke="rgb(0, 0, 0)" stroke-linecap="butt" stroke-linejoin="round" stroke-opacity="1.0" stroke-width="3.0" />
            <path d=" M 443.515, 656.679 442.764, 660.631 442.557, 661.676 443.037, 665.825 443.052, 665.959 443.160, 666.889 443.133, 667.037 442.306, 671.666 442.311, 673.452 442.311, 673.650 442.315, 675.007 444.935, 676.102 445.033, 676.020 447.821, 673.693 448.473, 671.692 " fill="none" stroke="rgb(0, 0, 0)" stroke-linecap="butt" stroke-linejoin="round" stroke-opacity="1.0" stroke-width="3.0" />
            <path d=" M 529.176, 684.096 529.719, 684.572 529.757, 684.605 529.995, 684.815 530.284, 685.069 531.008, 685.704 531.954, 686.050 531.966, 686.055 533.581, 686.647 535.304, 686.710 535.436, 686.715 537.011, 684.565 537.737, 683.575 538.083, 683.102 537.572, 679.382 537.348, 679.108 536.694, 678.309 534.888, 676.104 533.123, 673.814 532.965, 673.610 532.726, 673.299 530.114, 669.911 " fill="none" stroke="rgb(0, 0, 0)" stroke-linecap="butt" stroke-linejoin="round" stroke-opacity="1.0" stroke-width="3.0" />
            <path d=" M 677.588, 526.417 672.926, 525.633 667.004, 525.065 659.305, 521.768 654.771, 518.705 652.268, 516.937 " fill="none" stroke="rgb(0, 0, 0)" stroke-linecap="butt" stroke-linejoin="round" stroke-opacity="1.0" stroke-width="3.0" />
            <path d=" M 546.374, 508.044 540.022, 509.168 540.017, 509.169 538.656, 509.410 538.288, 509.532 533.325, 511.185 526.693, 513.479 522.660, 514.991 519.780, 516.396 " fill="none" stroke="rgb(0, 0, 0)" stroke-linecap="butt" stroke-linejoin="round" stroke-opacity="1.0" stroke-width="3.0" />
            <path d=" M 925.172, 873.033 924.422, 871.452 924.224, 871.033 924.142, 870.861 923.978, 870.515 923.392, 869.280 921.781, 867.800 921.579, 867.615 920.458, 866.585 920.053, 866.213 919.992, 866.157 916.876, 861.625 914.418, 859.344 911.561, 856.352 908.128, 853.767 906.951, 852.548 906.702, 852.290 " fill="none" stroke="rgb(0, 0, 0)" stroke-linecap="butt" stroke-linejoin="round" stroke-opacity="1.0" stroke-width="3.0" />
            <path d=" M 826.078, 873.875 822.826, 873.955 820.628, 872.814 815.108, 867.756 813.311, 866.109 811.412, 864.737 807.295, 863.228 807.059, 863.142 805.545, 862.587 804.990, 862.512 804.705, 862.473 804.681, 862.470 804.479, 862.442 801.639, 862.058 " fill="none" stroke="rgb(0, 0, 0)" stroke-linecap="butt" stroke-linejoin="round" stroke-opacity="1.0" stroke-width="3.0" />
            <path d=" M 627.099, 598.757 629.139, 601.149 630.254, 602.407 632.326, 602.233 635.387, 601.786 636.596, 598.743 637.337, 596.877 637.987, 595.240 639.601, 591.303 641.671, 589.903 642.391, 589.417 642.399, 589.412 642.668, 589.230 642.942, 589.040 644.685, 587.835 644.932, 587.664 645.106, 587.544 645.353, 587.373 " fill="none" stroke="rgb(0, 0, 0)" stroke-linecap="butt" stroke-linejoin="round" stroke-opacity="1.0" stroke-width="3.0" />
            <path d=" M 612.169, 596.380 614.823, 594.466 615.046, 594.305 615.836, 593.735 620.243, 588.283 620.683, 586.758 620.691, 586.733 621.047, 585.498 620.293, 583.157 620.264, 583.070 620.228, 582.956 620.203, 582.879 620.154, 582.728 619.638, 581.125 619.061, 579.334 618.996, 579.132 618.759, 578.399 618.754, 578.382 618.249, 576.814 618.202, 576.053 618.186, 575.790 617.958, 572.056 " fill="none" stroke="rgb(0, 0, 0)" stroke-linecap="butt" stroke-linejoin="round" stroke-opacity="1.0" stroke-width="3.0" />
            <path d=" M 631.524, 851.372 631.426, 854.451 632.240, 858.929 631.119, 863.499 629.292, 866.040 627.518, 869.937 626.474, 870.803 624.303, 873.290 623.144, 877.049 " fill="none" stroke="rgb(0, 0, 0)" stroke-linecap="butt" stroke-linejoin="round" stroke-opacity="1.0" stroke-width="3.0" />
            <path d=" M 642.854, 889.613 642.837, 889.644 642.766, 889.773 642.574, 890.120 642.443, 890.358 642.396, 890.555 641.938, 892.462 642.509, 890.685 642.649, 890.250 642.789, 889.816 642.792, 889.805 642.809, 889.755 642.823, 889.711 642.854, 889.613 643.895, 886.377 644.042, 886.293 644.291, 886.150 645.030, 885.724 645.039, 885.719 645.071, 885.701 645.614, 885.388 645.627, 885.380 646.336, 884.972 646.540, 884.872 647.536, 884.384 648.457, 883.932 650.871, 883.946 651.459, 883.949 654.226, 883.965 656.212, 883.976 656.369, 883.977 656.623, 883.979 657.063, 883.981 658.363, 883.201 658.391, 883.184 658.551, 883.089 659.062, 882.782 659.186, 882.707 659.546, 882.491 661.546, 881.291 " fill="none" stroke="rgb(0, 0, 0)" stroke-linecap="butt" stroke-linejoin="round" stroke-opacity="1.0" stroke-width="3.0" />
            <path d=" M 843.431, 1051.939 845.013, 1050.627 849.475, 1045.092 853.290, 1041.470 856.402, 1036.078 857.454, 1034.670 860.080, 1029.253 860.110, 1029.246 " fill="none" stroke="rgb(0, 0, 0)" stroke-linecap="butt" stroke-linejoin="round" stroke-opacity="1.0" stroke-width="3.0" />
            <path d=" M 603.492, 745.345 602.702, 740.914 602.638, 738.047 602.305, 729.382 602.304, 729.355 602.293, 729.090 602.216, 727.070 602.088, 724.660 601.955, 722.300 601.776, 719.121 601.571, 718.482 601.162, 717.204 601.098, 717.004 " fill="none" stroke="rgb(0, 0, 0)" stroke-linecap="butt" stroke-linejoin="round" stroke-opacity="1.0" stroke-width="3.0" />
            <path d=" M 769.289, 1002.484 769.336, 1001.530 769.523, 997.730 769.527, 997.652 769.677, 994.620 770.383, 993.861 772.547, 991.533 772.639, 991.526 775.620, 991.316 776.335, 991.266 780.155, 994.004 782.082, 995.385 782.910, 995.978 783.240, 996.215 784.032, 996.782 784.690, 997.254 785.247, 997.653 787.028, 999.269 " fill="none" stroke="rgb(0, 0, 0)" stroke-linecap="butt" stroke-linejoin="round" stroke-opacity="1.0" stroke-width="3.0" />
            <path d=" M 537.348, 679.108 538.146, 678.056 538.061, 676.977 537.907, 675.002 535.172, 671.497 528.621, 665.620 524.914, 663.179 521.319, 659.266 520.580, 657.521 520.515, 657.367 " fill="none" stroke="rgb(0, 0, 0)" stroke-linecap="butt" stroke-linejoin="round" stroke-opacity="1.0" stroke-width="3.0" />
            <path d=" M 752.804, 552.849 747.425, 550.339 744.846, 549.135 739.456, 545.740 733.812, 541.056 732.155, 538.391 730.597, 535.884 730.127, 535.128 " fill="none" stroke="rgb(0, 0, 0)" stroke-linecap="butt" stroke-linejoin="round" stroke-opacity="1.0" stroke-width="3.0" />
            <path d=" M 476.075, 539.937 472.179, 541.709 467.659, 543.764 466.144, 545.370 464.092, 547.856 459.927, 551.863 455.456, 556.152 454.344, 558.787 " fill="none" stroke="rgb(0, 0, 0)" stroke-linecap="butt" stroke-linejoin="round" stroke-opacity="1.0" stroke-width="3.0" />
            <path d=" M 645.480, 909.388 645.812, 910.629 646.594, 913.553 646.617, 913.640 646.894, 914.677 647.183, 915.758 647.810, 916.649 647.922, 916.809 648.740, 917.971 649.630, 919.237 649.694, 919.328 649.711, 919.352 649.766, 919.430 649.900, 920.101 650.148, 921.332 650.347, 922.324 650.432, 922.746 650.437, 922.772 650.518, 922.892 651.786, 924.777 652.122, 925.132 652.894, 925.945 653.271, 926.342 653.555, 926.642 653.572, 926.660 653.582, 926.671 653.832, 926.934 654.640, 927.785 655.099, 928.270 655.735, 928.900 655.757, 928.923 656.662, 929.821 656.688, 929.847 657.043, 930.199 657.245, 930.411 657.263, 930.430 657.700, 930.889 660.303, 932.946 660.362, 932.992 660.665, 933.232 660.942, 933.451 " fill="none" stroke="rgb(0, 0, 0)" stroke-linecap="butt" stroke-linejoin="round" stroke-opacity="1.0" stroke-width="3.0" />
            <path d=" M 601.235, 710.358 598.701, 702.836 596.863, 698.329 596.766, 698.091 596.658, 697.827 596.652, 697.812 596.435, 697.279 596.368, 697.116 595.943, 696.164 595.938, 696.155 595.467, 695.100 595.264, 694.646 594.797, 693.599 594.314, 692.779 589.241, 684.161 588.850, 683.495 " fill="none" stroke="rgb(0, 0, 0)" stroke-linecap="butt" stroke-linejoin="round" stroke-opacity="1.0" stroke-width="3.0" />
            <path d=" M 782.591, 763.868 779.698, 768.991 779.617, 769.134 779.613, 769.141 778.726, 770.711 778.109, 771.571 777.228, 772.799 776.060, 774.426 776.011, 774.848 775.956, 775.323 775.767, 776.950 775.705, 777.488 775.548, 779.369 775.516, 779.760 775.460, 780.433 776.455, 782.436 776.733, 782.994 777.893, 785.327 782.268, 789.100 " fill="none" stroke="rgb(0, 0, 0)" stroke-linecap="butt" stroke-linejoin="round" stroke-opacity="1.0" stroke-width="3.0" />
            <path d=" M 422.697, 604.788 421.370, 609.303 420.764, 612.111 419.716, 616.964 419.239, 624.189 419.712, 632.708 420.189, 634.265 " fill="none" stroke="rgb(0, 0, 0)" stroke-linecap="butt" stroke-linejoin="round" stroke-opacity="1.0" stroke-width="3.0" />
            <path d=" M 913.263, 693.152 910.192, 692.838 910.013, 692.820 907.333, 693.007 906.359, 693.076 906.300, 693.080 905.205, 693.156 904.856, 693.181 904.210, 693.226 902.361, 694.774 901.166, 695.851 900.327, 695.984 898.816, 697.145 897.658, 699.217 893.808, 701.656 892.484, 702.361 890.128, 703.616 887.932, 705.992 " fill="none" stroke="rgb(0, 0, 0)" stroke-linecap="butt" stroke-linejoin="round" stroke-opacity="1.0" stroke-width="3.0" />
            <path d=" M 953.389, 721.688 952.060, 716.632 951.708, 715.294 951.474, 714.405 951.034, 712.339 950.548, 710.057 950.523, 709.941 948.440, 700.160 946.702, 692.001 " fill="none" stroke="rgb(0, 0, 0)" stroke-linecap="butt" stroke-linejoin="round" stroke-opacity="1.0" stroke-width="3.0" />
            <path d=" M 699.709, 525.490 698.820, 525.560 698.757, 525.564 697.922, 525.630 694.344, 525.909 691.107, 525.720 685.294, 526.188 677.588, 526.417 677.217, 526.428 669.292, 526.237 " fill="none" stroke="rgb(0, 0, 0)" stroke-linecap="butt" stroke-linejoin="round" stroke-opacity="1.0" stroke-width="3.0" />
            <path d=" M 692.068, 966.002 690.043, 965.447 689.980, 966.496 689.944, 967.088 689.775, 969.897 690.410, 971.117 690.776, 971.818 691.676, 973.545 693.006, 976.098 695.243, 980.391 700.271, 984.340 703.287, 985.417 705.811, 986.318 " fill="none" stroke="rgb(0, 0, 0)" stroke-linecap="butt" stroke-linejoin="round" stroke-opacity="1.0" stroke-width="3.0" />
            <path d=" M 605.873, 583.931 606.634, 581.867 606.623, 581.790 606.578, 581.476 606.547, 581.261 606.133, 578.350 606.130, 578.333 606.115, 578.226 605.286, 577.101 602.985, 573.980 601.606, 572.109 601.476, 571.932 601.466, 571.922 599.721, 570.060 596.631, 567.659 591.250, 566.313 590.498, 565.674 588.685, 564.132 588.631, 564.087 587.474, 563.103 " fill="none" stroke="rgb(0, 0, 0)" stroke-linecap="butt" stroke-linejoin="round" stroke-opacity="1.0" stroke-width="3.0" />
            <path d=" M 792.957, 1072.092 792.412, 1072.022 784.983, 1071.070 777.430, 1068.917 773.919, 1068.937 770.648, 1067.239 773.715, 1067.853 778.387, 1067.836 " fill="none" stroke="rgb(0, 0, 0)" stroke-linecap="butt" stroke-linejoin="round" stroke-opacity="1.0" stroke-width="3.0" />
            <path d=" M 465.358, 666.607 465.370, 666.616 467.373, 671.307 468.867, 674.808 473.653, 679.308 477.605, 683.025 479.286, 683.874 479.894, 683.126 480.335, 682.583 480.610, 682.246 480.834, 681.969 480.998, 681.768 480.742, 676.260 " fill="none" stroke="rgb(0, 0, 0)" stroke-linecap="butt" stroke-linejoin="round" stroke-opacity="1.0" stroke-width="3.0" />
            <path d=" M 890.507, 908.941 890.535, 909.114 890.538, 909.133 892.107, 919.009 892.210, 919.660 892.320, 920.356 893.274, 926.358 892.472, 922.328 892.337, 921.744 892.160, 920.977 891.838, 919.579 890.370, 913.211 " fill="none" stroke="rgb(0, 0, 0)" stroke-linecap="butt" stroke-linejoin="round" stroke-opacity="1.0" stroke-width="3.0" />
            <path d=" M 656.185, 876.844 655.441, 876.554 655.341, 876.514 655.221, 876.468 655.182, 876.452 655.157, 876.443 655.046, 876.399 653.011, 875.606 650.218, 874.516 648.749, 874.471 648.352, 874.459 648.205, 874.455 644.928, 874.355 644.761, 874.350 644.343, 874.337 641.829, 875.273 641.495, 875.398 640.488, 877.514 640.029, 883.114 641.876, 889.962 642.396, 890.555 " fill="none" stroke="rgb(0, 0, 0)" stroke-linecap="butt" stroke-linejoin="round" stroke-opacity="1.0" stroke-width="3.0" />
            <path d=" M 688.268, 990.235 683.311, 988.264 681.802, 987.663 677.014, 986.518 671.040, 984.885 666.368, 983.168 666.190, 983.089 666.064, 983.034 666.037, 983.022 665.826, 982.929 665.426, 982.753 664.998, 982.564 664.319, 982.265 662.338, 981.393 662.191, 981.328 662.116, 981.295 661.913, 981.205 661.442, 980.998 661.430, 980.993 661.318, 980.985 660.621, 980.937 658.217, 980.771 " fill="none" stroke="rgb(0, 0, 0)" stroke-linecap="butt" stroke-linejoin="round" stroke-opacity="1.0" stroke-width="3.0" />
            <path d=" M 584.394, 697.208 585.506, 701.855 584.941, 703.868 584.896, 704.028 582.352, 706.129 581.325, 706.284 578.368, 706.729 578.009, 706.802 580.514, 706.741 581.602, 706.538 585.060, 705.896 585.646, 704.288 586.771, 701.201 587.090, 699.691 587.094, 699.671 587.148, 699.415 587.154, 699.386 587.163, 699.346 587.241, 698.974 587.788, 696.381 " fill="none" stroke="rgb(0, 0, 0)" stroke-linecap="butt" stroke-linejoin="round" stroke-opacity="1.0" stroke-width="3.0" />
            <path d=" M 797.774, 761.046 796.855, 761.370 796.734, 761.413 796.702, 761.424 796.452, 761.512 795.846, 761.726 795.537, 761.835 795.148, 761.972 795.113, 761.985 794.883, 762.185 794.875, 762.192 794.872, 762.195 794.836, 762.225 794.829, 762.232 794.662, 762.377 794.653, 762.385 794.650, 762.387 794.599, 762.432 794.565, 762.461 793.726, 763.191 793.705, 763.209 793.682, 763.234 793.592, 763.331 793.589, 763.336 793.238, 763.716 793.221, 763.735 792.844, 764.145 792.490, 764.529 792.466, 764.556 792.081, 764.974 791.956, 765.109 791.770, 765.152 791.762, 765.154 791.438, 765.228 790.313, 765.487 789.186, 765.746 788.810, 765.832 788.695, 765.858 788.139, 765.986 787.993, 766.036 787.836, 766.089 787.828, 766.091 787.815, 766.096 787.815, 766.096 787.782, 766.107 787.775, 766.109 787.637, 766.156 786.478, 766.548 785.568, 766.856 785.294, 766.948 783.071, 767.700 782.424, 768.512 781.494, 770.678 781.554, 770.899 781.555, 770.904 781.596, 771.051 781.710, 771.471 781.881, 772.094 781.973, 772.431 782.092, 772.866 782.491, 774.324 782.922, 775.209 783.001, 775.370 783.107, 775.589 784.141, 777.708 784.282, 777.998 786.039, 781.602 " fill="none" stroke="rgb(0, 0, 0)" stroke-linecap="butt" stroke-linejoin="round" stroke-opacity="1.0" stroke-width="3.0" />
            <path d=" M 646.368, 952.490 647.050, 955.277 648.356, 960.614 652.535, 969.699 653.712, 972.259 657.742, 978.238 660.621, 980.937 " fill="none" stroke="rgb(0, 0, 0)" stroke-linecap="butt" stroke-linejoin="round" stroke-opacity="1.0" stroke-width="3.0" />
            <path d=" M 626.218, 600.265 626.759, 599.338 627.099, 598.757 627.102, 598.752 627.103, 598.750 627.953, 597.294 628.170, 596.922 628.857, 595.747 630.416, 593.129 631.534, 590.090 633.057, 586.771 633.438, 585.941 633.518, 585.808 634.747, 583.766 635.789, 582.033 636.549, 578.778 636.535, 578.557 636.308, 574.953 636.266, 574.284 636.192, 573.113 636.266, 570.357 " fill="none" stroke="rgb(0, 0, 0)" stroke-linecap="butt" stroke-linejoin="round" stroke-opacity="1.0" stroke-width="3.0" />
            <path d=" M 496.345, 636.067 502.779, 635.149 504.824, 632.634 504.966, 631.985 504.977, 631.938 504.979, 631.924 504.995, 631.853 505.008, 631.793 505.175, 631.035 505.585, 629.168 505.681, 628.730 505.805, 628.164 503.912, 622.689 503.381, 621.156 499.282, 617.185 494.839, 614.634 " fill="none" stroke="rgb(0, 0, 0)" stroke-linecap="butt" stroke-linejoin="round" stroke-opacity="1.0" stroke-width="3.0" />
            <path d=" M 811.230, 812.529 810.917, 812.565 810.823, 812.576 809.559, 812.803 808.818, 813.347 806.462, 815.803 803.922, 816.936 800.093, 818.814 799.908, 818.905 799.893, 818.913 799.613, 819.049 799.552, 819.079 799.365, 819.171 799.215, 819.245 796.428, 820.304 796.644, 821.249 798.643, 823.938 801.887, 828.108 803.420, 829.778 803.436, 829.795 803.478, 829.841 803.497, 829.862 803.514, 829.881 803.965, 830.372 804.341, 830.782 804.602, 831.066 804.627, 831.094 806.004, 832.595 " fill="none" stroke="rgb(0, 0, 0)" stroke-linecap="butt" stroke-linejoin="round" stroke-opacity="1.0" stroke-width="3.0" />
            <path d=" M 702.887, 842.998 702.874, 842.787 702.805, 839.859 703.421, 837.030 703.585, 835.222 702.010, 833.603 698.427, 832.574 695.809, 828.595 693.680, 827.349 692.031, 827.806 690.667, 828.218 689.786, 829.223 689.425, 829.672 685.274, 834.839 " fill="none" stroke="rgb(0, 0, 0)" stroke-linecap="butt" stroke-linejoin="round" stroke-opacity="1.0" stroke-width="3.0" />
            <path d=" M 831.547, 647.103 833.622, 647.556 836.634, 647.712 836.832, 647.743 837.908, 647.914 838.029, 647.933 838.479, 648.004 838.599, 648.023 840.003, 647.766 841.161, 647.554 841.502, 647.342 841.781, 647.169 841.835, 647.135 842.113, 646.963 842.268, 646.866 842.337, 646.824 842.355, 646.812 842.572, 646.677 842.660, 646.623 843.340, 646.200 843.690, 645.983 843.992, 645.795 845.886, 644.659 846.358, 644.375 848.476, 641.643 849.000, 640.081 848.948, 639.308 848.935, 639.120 847.649, 637.041 846.790, 636.607 846.261, 636.340 846.162, 636.290 845.735, 636.075 844.542, 635.473 843.051, 635.297 839.477, 635.023 " fill="none" stroke="rgb(0, 0, 0)" stroke-linecap="butt" stroke-linejoin="round" stroke-opacity="1.0" stroke-width="3.0" />
            <path d=" M 745.276, 621.868 744.905, 622.287 743.940, 623.669 742.815, 625.128 736.107, 632.544 735.244, 633.497 735.071, 634.091 734.556, 637.347 734.593, 639.374 734.979, 641.346 736.757, 647.644 736.863, 648.019 737.552, 650.458 737.666, 650.861 " fill="none" stroke="rgb(0, 0, 0)" stroke-linecap="butt" stroke-linejoin="round" stroke-opacity="1.0" stroke-width="3.0" />
            <path d=" M 696.988, 884.802 695.696, 882.221 695.693, 882.215 695.692, 882.212 695.211, 881.250 692.745, 876.323 690.586, 873.686 688.477, 871.111 688.467, 871.099 688.119, 870.674 687.620, 870.064 682.307, 866.459 681.754, 866.379 679.584, 866.067 678.040, 866.729 673.531, 869.155 " fill="none" stroke="rgb(0, 0, 0)" stroke-linecap="butt" stroke-linejoin="round" stroke-opacity="1.0" stroke-width="3.0" />
            <path d=" M 907.281, 637.684 909.209, 641.883 910.605, 646.096 910.670, 647.006 910.679, 647.130 910.735, 647.895 910.889, 650.025 913.420, 654.812 914.541, 658.524 915.345, 667.300 915.352, 667.246 916.100, 664.381 " fill="none" stroke="rgb(0, 0, 0)" stroke-linecap="butt" stroke-linejoin="round" stroke-opacity="1.0" stroke-width="3.0" />
            <path d=" M 659.529, 609.338 661.764, 610.175 664.847, 610.285 669.463, 606.952 672.597, 605.282 673.063, 600.338 672.250, 596.100 671.993, 595.524 671.868, 595.243 671.619, 594.684 670.120, 591.324 666.409, 587.261 " fill="none" stroke="rgb(0, 0, 0)" stroke-linecap="butt" stroke-linejoin="round" stroke-opacity="1.0" stroke-width="3.0" />
            <path d=" M 573.725, 680.853 572.550, 679.292 571.367, 677.859 564.240, 670.845 562.147, 668.785 559.123, 665.255 552.393, 657.859 549.486, 654.663 " fill="none" stroke="rgb(0, 0, 0)" stroke-linecap="butt" stroke-linejoin="round" stroke-opacity="1.0" stroke-width="3.0" />
            <path d=" M 542.483, 697.176 545.055, 699.889 551.844, 707.232 557.689, 713.553 564.180, 720.188 566.260, 722.315 566.546, 722.607 567.107, 723.180 " fill="none" stroke="rgb(0, 0, 0)" stroke-linecap="butt" stroke-linejoin="round" stroke-opacity="1.0" stroke-width="3.0" />
            <path d=" M 620.293, 583.157 620.369, 583.121 620.474, 583.072 621.380, 582.648 622.591, 581.792 623.416, 581.210 623.472, 581.170 623.638, 581.053 623.950, 580.833 624.214, 580.646 625.503, 578.736 626.825, 576.777 627.824, 573.323 627.880, 573.127 628.012, 572.674 627.575, 571.591 625.818, 567.225 625.535, 566.718 623.069, 564.051 622.426, 563.355 622.124, 563.029 621.318, 562.158 620.632, 561.821 620.325, 561.671 619.193, 561.115 618.191, 560.787 617.862, 560.680 613.159, 559.139 612.309, 558.861 " fill="none" stroke="rgb(0, 0, 0)" stroke-linecap="butt" stroke-linejoin="round" stroke-opacity="1.0" stroke-width="3.0" />
            <path d=" M 524.190, 694.531 528.132, 695.445 529.014, 695.650 529.932, 695.502 531.953, 694.018 534.092, 692.448 537.109, 691.767 537.159, 691.756 537.314, 691.721 537.334, 691.716 542.000, 690.662 542.824, 689.954 543.372, 689.482 544.351, 688.640 547.057, 687.382 548.611, 686.660 549.609, 685.311 549.701, 685.186 550.237, 684.462 548.739, 680.293 548.485, 679.586 548.109, 678.540 " fill="none" stroke="rgb(0, 0, 0)" stroke-linecap="butt" stroke-linejoin="round" stroke-opacity="1.0" stroke-width="3.0" />
            <path d=" M 650.317, 522.351 645.577, 518.384 643.353, 516.523 640.727, 514.325 639.519, 513.313 639.491, 513.290 638.835, 512.586 638.291, 512.000 637.389, 511.031 637.305, 510.940 637.260, 510.893 637.200, 510.828 635.511, 509.013 635.423, 508.919 635.407, 508.902 635.371, 508.862 635.366, 508.857 634.507, 507.934 633.310, 507.446 633.062, 507.344 633.004, 507.321 632.670, 507.184 632.569, 507.143 632.416, 507.081 631.426, 506.677 630.018, 506.103 629.940, 506.072 627.211, 504.980 624.941, 504.651 622.956, 504.198 619.844, 504.000 " fill="none" stroke="rgb(0, 0, 0)" stroke-linecap="butt" stroke-linejoin="round" stroke-opacity="1.0" stroke-width="3.0" />
            <path d=" M 725.434, 784.982 723.540, 783.355 723.492, 783.314 720.230, 780.512 719.712, 780.066 717.055, 777.809 715.736, 777.098 712.357, 774.989 707.851, 770.430 703.091, 766.988 701.753, 766.509 701.102, 767.494 701.298, 768.072 703.566, 772.579 " fill="none" stroke="rgb(0, 0, 0)" stroke-linecap="butt" stroke-linejoin="round" stroke-opacity="1.0" stroke-width="3.0" />
            <path d=" M 813.765, 728.207 812.172, 728.843 811.978, 728.920 811.923, 728.942 811.757, 729.008 811.464, 729.125 810.185, 728.350 809.033, 727.653 803.268, 724.162 800.465, 723.376 799.151, 723.451 798.985, 723.461 798.772, 723.473 796.787, 723.586 794.333, 723.727 794.311, 723.728 794.229, 723.733 794.156, 723.737 791.541, 723.887 790.470, 725.111 790.331, 726.153 790.031, 728.392 789.800, 730.825 789.777, 731.060 789.695, 731.932 789.544, 733.515 789.581, 734.295 789.586, 734.404 789.710, 737.034 " fill="none" stroke="rgb(0, 0, 0)" stroke-linecap="butt" stroke-linejoin="round" stroke-opacity="1.0" stroke-width="3.0" />
            <path d=" M 815.098, 625.768 814.089, 625.243 810.504, 623.375 810.480, 623.363 810.409, 623.326 810.233, 623.237 802.210, 619.184 799.793, 617.723 794.676, 615.262 792.256, 614.098 789.350, 612.700 786.042, 610.989 785.905, 610.918 783.517, 609.682 782.604, 609.210 782.370, 609.089 782.081, 608.940 782.059, 608.928 781.359, 608.566 " fill="none" stroke="rgb(0, 0, 0)" stroke-linecap="butt" stroke-linejoin="round" stroke-opacity="1.0" stroke-width="3.0" />
            <path d=" M 801.652, 741.151 800.846, 740.795 799.983, 740.415 799.620, 740.348 798.585, 740.159 797.931, 740.039 797.875, 740.029 794.405, 739.393 793.614, 739.248 793.078, 739.258 790.606, 739.304 789.902, 741.252 789.267, 742.762 789.255, 742.791 788.855, 743.743 788.459, 744.684 788.597, 745.576 788.759, 746.627 788.767, 746.675 788.885, 747.445 788.901, 747.545 789.015, 748.284 789.224, 749.640 789.322, 750.273 789.260, 751.219 789.242, 751.502 789.221, 751.822 789.216, 751.899 789.119, 753.385 788.747, 754.475 788.708, 754.588 788.024, 756.595 787.980, 756.725 787.966, 756.764 787.879, 757.019 787.516, 758.083 787.391, 758.266 787.303, 758.395 786.406, 759.706 786.395, 759.723 786.391, 759.728 786.385, 759.737 786.115, 760.131 785.877, 760.479 785.617, 760.859 785.590, 760.899 784.908, 761.589 784.887, 761.611 784.260, 762.246 784.217, 762.289 783.016, 763.506 " fill="none" stroke="rgb(0, 0, 0)" stroke-linecap="butt" stroke-linejoin="round" stroke-opacity="1.0" stroke-width="3.0" />
            <path d=" M 666.583, 897.370 662.940, 897.542 661.184, 896.984 659.661, 896.501 659.661, 896.501 659.660, 896.501 656.381, 895.460 656.379, 895.459 656.252, 895.419 656.183, 895.397 656.171, 895.393 656.090, 895.367 655.937, 895.319 655.738, 895.224 655.212, 894.971 655.167, 894.950 655.032, 894.885 651.425, 893.156 651.289, 893.091 648.911, 892.524 646.897, 892.467 646.791, 892.464 646.181, 892.872 646.023, 892.977 645.590, 893.267 645.407, 893.389 645.076, 893.611 645.046, 893.631 644.682, 893.874 644.648, 893.897 644.571, 893.948 644.484, 894.007 644.326, 894.112 644.240, 894.518 644.157, 894.906 644.105, 895.150 644.083, 895.255 644.039, 895.458 644.018, 895.557 643.643, 897.320 643.539, 897.807 643.655, 898.109 644.306, 899.804 644.326, 899.855 644.650, 900.699 644.679, 900.775 644.812, 901.120 644.814, 901.126 645.072, 901.798 645.182, 902.084 645.672, 903.358 645.805, 903.705 645.836, 903.786 646.069, 904.392 646.467, 905.429 646.728, 906.106 647.035, 906.907 647.291, 907.571 " fill="none" stroke="rgb(0, 0, 0)" stroke-linecap="butt" stroke-linejoin="round" stroke-opacity="1.0" stroke-width="3.0" />
            <path d=" M 445.919, 586.642 445.259, 588.046 443.644, 591.484 443.104, 594.060 442.984, 594.528 442.893, 594.878 442.213, 597.516 441.973, 602.500 442.105, 603.189 441.818, 604.402 441.665, 605.049 441.630, 605.196 441.526, 605.637 441.384, 607.708 441.096, 608.999 439.710, 613.278 439.618, 616.207 436.099, 614.422 433.407, 613.723 433.210, 613.672 432.608, 613.515 " fill="none" stroke="rgb(0, 0, 0)" stroke-linecap="butt" stroke-linejoin="round" stroke-opacity="1.0" stroke-width="3.0" />
            <path d=" M 701.415, 868.013 699.696, 867.263 699.036, 866.975 698.959, 866.942 697.640, 866.366 697.171, 866.161 697.146, 866.150 696.484, 865.861 696.268, 865.602 694.516, 863.501 694.039, 862.262 693.308, 860.362 692.428, 858.075 692.351, 857.876 692.281, 857.694 692.177, 857.569 691.643, 856.930 691.243, 856.451 689.108, 853.896 684.712, 850.322 684.125, 849.926 681.482, 848.138 680.604, 848.416 679.563, 848.747 678.068, 849.221 675.558, 851.134 673.864, 853.138 " fill="none" stroke="rgb(0, 0, 0)" stroke-linecap="butt" stroke-linejoin="round" stroke-opacity="1.0" stroke-width="3.0" />
            <path d=" M 746.827, 1030.490 741.295, 1033.661 736.636, 1035.644 736.444, 1036.174 736.213, 1036.807 736.175, 1036.910 736.019, 1037.340 736.916, 1039.236 737.029, 1039.475 737.629, 1040.744 739.408, 1044.507 743.650, 1048.900 745.597, 1049.965 751.150, 1053.001 751.691, 1052.943 753.982, 1052.696 " fill="none" stroke="rgb(0, 0, 0)" stroke-linecap="butt" stroke-linejoin="round" stroke-opacity="1.0" stroke-width="3.0" />
            <path d=" M 668.972, 802.756 666.140, 802.381 665.751, 802.329 664.286, 802.135 664.155, 802.118 662.819, 799.871 662.839, 798.143 662.595, 797.571 661.722, 795.524 661.081, 794.022 661.025, 793.890 661.005, 793.843 660.940, 793.793 658.195, 791.659 657.265, 790.935 656.603, 790.421 656.563, 790.389 656.168, 790.101 655.855, 789.872 655.790, 789.825 654.188, 789.674 653.199, 789.580 652.818, 789.544 651.189, 790.316 648.873, 791.411 643.784, 794.561 639.596, 797.951 " fill="none" stroke="rgb(0, 0, 0)" stroke-linecap="butt" stroke-linejoin="round" stroke-opacity="1.0" stroke-width="3.0" />
            <path d=" M 557.733, 689.606 560.052, 689.393 561.758, 689.236 562.865, 689.134 563.841, 689.044 564.432, 688.990 567.074, 687.249 568.414, 686.367 569.203, 683.378 569.108, 681.999 569.005, 680.512 568.981, 680.176 567.769, 677.760 567.336, 676.898 567.261, 676.750 565.653, 674.633 562.920, 671.328 562.487, 671.051 562.429, 671.014 562.174, 670.851 560.427, 669.732 556.090, 668.349 555.740, 668.237 553.682, 666.377 " fill="none" stroke="rgb(0, 0, 0)" stroke-linecap="butt" stroke-linejoin="round" stroke-opacity="1.0" stroke-width="3.0" />
            <path d=" M 709.923, 680.155 708.068, 680.429 706.258, 681.510 704.033, 682.164 702.837, 682.516 701.234, 682.714 699.321, 683.462 698.320, 684.069 696.550, 686.148 695.235, 688.596 694.151, 691.998 692.239, 701.486 691.312, 710.672 691.372, 711.185 " fill="none" stroke="rgb(0, 0, 0)" stroke-linecap="butt" stroke-linejoin="round" stroke-opacity="1.0" stroke-width="3.0" />
            <path d=" M 634.040, 838.867 637.054, 842.340 641.148, 846.340 642.273, 847.624 643.706, 849.203 647.029, 851.304 649.210, 850.800 651.947, 846.425 652.922, 844.550 653.060, 844.037 652.553, 840.454 651.293, 839.016 646.877, 832.952 " fill="none" stroke="rgb(0, 0, 0)" stroke-linecap="butt" stroke-linejoin="round" stroke-opacity="1.0" stroke-width="3.0" />
            <path d=" M 774.515, 769.309 773.218, 772.094 772.631, 773.354 772.237, 774.200 771.223, 776.581 770.628, 777.655 770.418, 778.033 769.688, 779.352 769.134, 780.352 768.007, 782.387 763.542, 787.523 761.144, 788.610 760.353, 789.561 758.218, 792.337 755.239, 797.146 754.151, 798.065 751.772, 801.438 751.254, 802.173 750.769, 802.862 " fill="none" stroke="rgb(0, 0, 0)" stroke-linecap="butt" stroke-linejoin="round" stroke-opacity="1.0" stroke-width="3.0" />
            <path d=" M 450.902, 569.993 445.186, 566.970 440.825, 567.714 437.937, 569.278 434.248, 572.312 433.258, 572.280 428.139, 580.292 426.637, 583.853 425.483, 589.439 424.992, 592.331 " fill="none" stroke="rgb(0, 0, 0)" stroke-linecap="butt" stroke-linejoin="round" stroke-opacity="1.0" stroke-width="3.0" />
            <path d=" M 631.769, 766.122 636.042, 759.566 638.478, 755.748 643.503, 747.962 645.572, 744.757 647.800, 741.422 648.877, 739.808 649.952, 738.199 649.990, 738.042 649.997, 738.015 650.008, 737.968 650.264, 736.914 649.536, 733.902 646.238, 732.754 645.192, 732.390 " fill="none" stroke="rgb(0, 0, 0)" stroke-linecap="butt" stroke-linejoin="round" stroke-opacity="1.0" stroke-width="3.0" />
            <path d=" M 888.652, 968.276 890.503, 960.823 890.724, 959.169 891.231, 955.390 891.299, 954.881 891.416, 954.008 891.452, 953.740 891.458, 953.694 891.533, 953.131 891.556, 952.963 891.558, 952.945 891.565, 952.896 891.649, 952.264 891.663, 952.162 891.667, 952.133 891.673, 952.084 893.001, 942.173 893.035, 941.917 893.628, 936.769 893.288, 926.775 893.274, 926.358 " fill="none" stroke="rgb(0, 0, 0)" stroke-linecap="butt" stroke-linejoin="round" stroke-opacity="1.0" stroke-width="3.0" />
            <path d=" M 715.937, 973.529 715.919, 973.521 714.941, 973.034 714.663, 972.896 706.309, 968.739 705.571, 968.372 702.366, 966.778 701.731, 966.462 701.217, 966.207 699.797, 966.014 699.227, 965.937 699.196, 965.933 696.877, 965.619 696.610, 965.583 696.145, 965.521 694.303, 964.623 691.663, 963.337 690.651, 963.720 689.801, 964.042 688.685, 964.464 688.686, 966.177 690.056, 971.040 690.234, 971.374 690.576, 972.018 691.405, 973.577 692.312, 975.282 693.006, 976.098 " fill="none" stroke="rgb(0, 0, 0)" stroke-linecap="butt" stroke-linejoin="round" stroke-opacity="1.0" stroke-width="3.0" />
            <path d=" M 681.520, 839.943 678.028, 840.628 677.815, 840.779 675.928, 842.116 675.298, 842.910 674.757, 843.593 673.716, 844.905 671.023, 846.980 669.153, 848.420 665.241, 851.433 664.936, 851.668 662.343, 852.478 657.859, 855.154 657.826, 855.174 657.361, 855.190 657.317, 855.192 656.185, 855.233 655.948, 855.241 655.800, 855.247 655.738, 855.249 655.255, 855.266 655.193, 855.269 654.862, 855.281 653.026, 855.347 649.984, 855.881 649.080, 861.740 " fill="none" stroke="rgb(0, 0, 0)" stroke-linecap="butt" stroke-linejoin="round" stroke-opacity="1.0" stroke-width="3.0" />
            <path d=" M 881.126, 1022.317 883.385, 1021.863 883.992, 1021.741 884.902, 1021.558 888.502, 1020.835 890.295, 1017.740 890.082, 1015.353 889.737, 1012.499 889.629, 1011.609 889.639, 1011.582 891.357, 1007.008 890.838, 1003.166 890.117, 1000.135 888.140, 993.171 887.708, 991.651 886.057, 986.059 " fill="none" stroke="rgb(0, 0, 0)" stroke-linecap="butt" stroke-linejoin="round" stroke-opacity="1.0" stroke-width="3.0" />
            <path d=" M 586.595, 763.386 587.142, 768.577 587.533, 777.503 588.069, 783.094 588.856, 789.609 589.289, 792.057 590.924, 794.694 593.982, 796.428 595.597, 796.761 600.192, 797.759 602.417, 797.462 " fill="none" stroke="rgb(0, 0, 0)" stroke-linecap="butt" stroke-linejoin="round" stroke-opacity="1.0" stroke-width="3.0" />
            <path d=" M 792.412, 1072.022 797.841, 1074.700 803.207, 1075.900 808.171, 1076.425 815.616, 1075.377 819.362, 1076.008 822.468, 1076.151 825.018, 1074.619 828.385, 1071.559 830.903, 1067.653 831.403, 1066.878 " fill="none" stroke="rgb(0, 0, 0)" stroke-linecap="butt" stroke-linejoin="round" stroke-opacity="1.0" stroke-width="3.0" />
            <path d=" M 919.361, 920.460 921.982, 915.895 923.365, 912.695 926.390, 905.699 926.597, 905.298 931.189, 896.414 932.137, 894.579 936.198, 890.062 936.199, 890.061 943.695, 884.722 " fill="none" stroke="rgb(0, 0, 0)" stroke-linecap="butt" stroke-linejoin="round" stroke-opacity="1.0" stroke-width="3.0" />
            <path d=" M 688.639, 935.711 686.196, 934.332 683.185, 932.633 681.075, 931.443 679.396, 931.517 679.222, 931.525 678.492, 931.557 676.341, 931.653 675.054, 932.064 674.723, 933.978 674.725, 933.982 675.555, 935.854 677.611, 940.493 678.531, 942.569 679.270, 944.236 682.894, 950.466 683.547, 951.588 683.596, 951.672 683.930, 952.247 684.134, 952.597 684.576, 952.948 684.609, 952.974 684.807, 953.131 684.807, 953.131 684.855, 953.169 685.182, 953.427 685.791, 953.910 685.923, 954.015 686.684, 954.618 689.523, 956.868 689.921, 957.182 690.169, 957.327 " fill="none" stroke="rgb(0, 0, 0)" stroke-linecap="butt" stroke-linejoin="round" stroke-opacity="1.0" stroke-width="3.0" />
            <path d=" M 524.972, 514.655 519.780, 516.396 514.499, 518.167 506.430, 521.981 498.917, 525.055 491.592, 527.788 487.828, 530.010 485.192, 531.509 484.092, 533.212 " fill="none" stroke="rgb(0, 0, 0)" stroke-linecap="butt" stroke-linejoin="round" stroke-opacity="1.0" stroke-width="3.0" />
            <path d=" M 694.658, 908.723 694.408, 908.186 694.402, 908.173 694.226, 907.795 694.198, 907.737 694.133, 907.598 694.006, 907.325 693.970, 907.248 691.901, 902.812 689.508, 898.014 685.555, 893.909 680.006, 891.183 676.632, 889.525 676.336, 889.380 675.183, 889.219 672.681, 890.840 671.330, 891.715 668.982, 892.736 667.624, 893.571 666.583, 897.370 666.137, 898.999 665.985, 899.123 665.868, 899.218 664.519, 900.322 " fill="none" stroke="rgb(0, 0, 0)" stroke-linecap="butt" stroke-linejoin="round" stroke-opacity="1.0" stroke-width="3.0" />
            <path d=" M 900.124, 787.956 900.810, 786.441 900.853, 786.345 901.012, 785.992 904.013, 779.327 907.804, 772.247 909.522, 768.630 911.202, 763.880 915.964, 760.664 918.070, 758.232 920.052, 755.621 922.681, 753.183 924.133, 751.102 924.153, 751.073 924.554, 750.499 924.609, 750.421 " fill="none" stroke="rgb(0, 0, 0)" stroke-linecap="butt" stroke-linejoin="round" stroke-opacity="1.0" stroke-width="3.0" />
            <path d=" M 428.345, 667.269 428.807, 669.736 428.900, 670.235 428.924, 670.365 428.865, 670.777 428.285, 674.830 428.736, 678.783 432.571, 687.429 434.153, 690.494 436.602, 691.352 438.413, 691.045 440.053, 688.795 441.730, 687.071 443.221, 684.308 444.967, 680.367 445.033, 676.020 " fill="none" stroke="rgb(0, 0, 0)" stroke-linecap="butt" stroke-linejoin="round" stroke-opacity="1.0" stroke-width="3.0" />
            <path d=" M 779.617, 769.134 779.560, 769.081 776.070, 765.894 776.022, 765.774 775.740, 765.066 773.912, 760.487 775.115, 757.360 777.327, 755.095 777.952, 754.455 779.619, 752.748 780.463, 751.883 780.687, 751.654 780.926, 751.410 782.144, 749.380 782.195, 749.294 782.422, 748.916 783.347, 747.376 783.797, 746.626 783.349, 747.400 782.448, 748.958 782.228, 749.338 782.177, 749.427 780.746, 751.902 780.561, 752.222 779.804, 753.531 779.267, 754.459 779.189, 754.581 778.680, 755.372 777.793, 756.752 776.549, 763.367 " fill="none" stroke="rgb(0, 0, 0)" stroke-linecap="butt" stroke-linejoin="round" stroke-opacity="1.0" stroke-width="3.0" />
            <path d=" M 636.489, 732.426 630.614, 731.187 628.286, 730.696 628.078, 730.652 627.900, 730.614 627.870, 730.608 626.801, 730.383 626.071, 730.229 624.115, 729.201 620.605, 727.358 618.535, 725.807 614.948, 723.020 612.013, 720.337 610.810, 719.202 610.348, 718.775 607.291, 715.944 604.114, 713.047 601.235, 710.358 600.402, 709.579 598.358, 707.758 " fill="none" stroke="rgb(0, 0, 0)" stroke-linecap="butt" stroke-linejoin="round" stroke-opacity="1.0" stroke-width="3.0" />
            <path d=" M 466.387, 711.689 465.320, 701.746 465.135, 700.015 464.689, 690.025 464.576, 687.490 465.069, 679.592 464.885, 676.506 464.204, 671.406 463.709, 667.699 463.354, 665.040 463.311, 664.723 " fill="none" stroke="rgb(0, 0, 0)" stroke-linecap="butt" stroke-linejoin="round" stroke-opacity="1.0" stroke-width="3.0" />
            <path d=" M 627.953, 597.294 629.162, 597.294 633.747, 593.219 634.803, 591.851 637.492, 588.188 638.937, 586.219 639.546, 585.452 640.524, 584.219 642.314, 581.965 643.903, 576.045 639.911, 569.565 638.342, 568.135 633.178, 564.781 630.396, 564.287 628.701, 563.986 " fill="none" stroke="rgb(0, 0, 0)" stroke-linecap="butt" stroke-linejoin="round" stroke-opacity="1.0" stroke-width="3.0" />
            <path d=" M 541.562, 695.493 545.764, 696.139 550.154, 698.704 553.364, 700.211 555.700, 700.108 557.832, 699.880 557.979, 699.772 559.844, 698.402 560.559, 697.877 560.727, 697.753 561.347, 697.298 563.073, 696.030 563.132, 695.987 563.999, 695.350 564.482, 694.995 564.936, 694.662 565.116, 694.529 569.671, 691.183 569.925, 690.997 570.159, 690.589 570.179, 690.556 571.231, 688.726 571.941, 687.492 571.944, 687.096 571.803, 685.125 571.795, 685.019 571.773, 684.707 571.688, 683.524 570.444, 681.548 570.385, 681.454 569.188, 679.553 568.518, 678.490 567.336, 676.898 " fill="none" stroke="rgb(0, 0, 0)" stroke-linecap="butt" stroke-linejoin="round" stroke-opacity="1.0" stroke-width="3.0" />
            <path d=" M 459.185, 654.721 460.606, 655.128 460.845, 655.196 461.467, 655.374 461.616, 655.416 463.702, 655.142 468.227, 650.795 470.763, 647.279 470.900, 647.089 471.949, 645.635 474.513, 644.444 474.585, 644.411 479.145, 642.293 484.784, 638.472 486.619, 635.516 492.954, 637.438 492.970, 637.443 493.112, 637.486 496.345, 636.067 499.690, 634.599 " fill="none" stroke="rgb(0, 0, 0)" stroke-linecap="butt" stroke-linejoin="round" stroke-opacity="1.0" stroke-width="3.0" />
            <path d=" M 613.046, 771.168 611.324, 766.589 611.023, 765.704 610.004, 762.715 608.687, 758.278 607.017, 753.403 604.927, 749.437 603.492, 745.345 601.831, 740.611 600.014, 730.895 599.293, 727.223 599.147, 725.548 599.111, 725.142 598.927, 723.025 " fill="none" stroke="rgb(0, 0, 0)" stroke-linecap="butt" stroke-linejoin="round" stroke-opacity="1.0" stroke-width="3.0" />
            <path d=" M 531.953, 694.018 532.956, 694.480 533.398, 694.583 536.210, 695.086 538.488, 694.504 539.339, 693.975 539.409, 693.932 539.426, 693.921 539.508, 693.871 542.504, 692.009 544.212, 690.772 545.081, 690.141 547.197, 688.608 548.132, 687.960 550.396, 686.392 550.575, 686.268 551.185, 685.845 552.663, 683.701 554.338, 681.418 554.595, 680.130 552.578, 675.957 549.444, 672.064 547.571, 669.738 543.221, 666.473 541.709, 664.809 541.634, 664.727 541.625, 664.718 540.850, 663.865 " fill="none" stroke="rgb(0, 0, 0)" stroke-linecap="butt" stroke-linejoin="round" stroke-opacity="1.0" stroke-width="3.0" />
            <path d=" M 884.833, 617.762 879.378, 615.448 875.942, 614.599 869.776, 614.883 865.834, 614.199 856.469, 610.691 855.118, 610.185 845.250, 610.951 842.316, 611.751 839.122, 614.301 836.411, 615.583 " fill="none" stroke="rgb(0, 0, 0)" stroke-linecap="butt" stroke-linejoin="round" stroke-opacity="1.0" stroke-width="3.0" />
            <path d=" M 787.099, 787.726 785.328, 788.229 785.312, 788.234 785.283, 788.242 785.042, 788.311 784.986, 788.327 784.924, 788.344 784.396, 788.495 782.268, 789.100 782.135, 789.138 779.263, 792.487 775.453, 796.084 774.599, 797.910 777.764, 803.512 779.774, 805.812 779.810, 805.852 781.428, 807.703 782.684, 809.140 785.124, 811.033 787.767, 811.808 788.766, 812.102 790.278, 812.545 790.659, 812.657 790.876, 812.721 796.987, 814.514 798.745, 817.748 799.131, 818.327 799.550, 818.955 799.613, 819.049 " fill="none" stroke="rgb(0, 0, 0)" stroke-linecap="butt" stroke-linejoin="round" stroke-opacity="1.0" stroke-width="3.0" />
            <path d=" M 511.172, 671.388 510.681, 670.209 508.620, 666.814 511.172, 671.388 511.718, 672.366 511.774, 672.832 512.051, 675.138 512.211, 676.465 512.284, 676.861 513.556, 683.770 514.406, 686.443 514.901, 689.126 515.584, 692.833 515.748, 693.722 515.670, 693.832 514.814, 695.044 514.409, 695.617 510.210, 697.560 504.658, 693.450 500.515, 691.422 " fill="none" stroke="rgb(0, 0, 0)" stroke-linecap="butt" stroke-linejoin="round" stroke-opacity="1.0" stroke-width="3.0" />
            <path d=" M 621.796, 886.719 621.064, 892.364 621.451, 899.042 621.311, 903.324 622.968, 907.622 626.443, 912.696 628.913, 915.854 631.071, 918.282 634.717, 922.930 637.959, 928.552 640.577, 932.567 " fill="none" stroke="rgb(0, 0, 0)" stroke-linecap="butt" stroke-linejoin="round" stroke-opacity="1.0" stroke-width="3.0" />
            <path d=" M 737.552, 650.458 738.369, 656.395 741.218, 665.980 742.140, 669.083 742.595, 670.151 745.353, 676.621 749.440, 683.288 751.777, 688.097 751.909, 688.373 751.973, 688.506 752.013, 688.591 752.442, 689.487 752.687, 689.998 752.687, 689.999 753.901, 692.535 754.083, 692.914 754.273, 693.312 754.433, 693.646 756.662, 698.304 " fill="none" stroke="rgb(0, 0, 0)" stroke-linecap="butt" stroke-linejoin="round" stroke-opacity="1.0" stroke-width="3.0" />
            <path d=" M 691.381, 602.625 692.759, 603.352 698.059, 606.592 702.031, 608.318 707.901, 610.624 711.955, 612.930 716.353, 614.036 722.206, 616.448 729.329, 618.417 732.696, 619.162 740.403, 620.633 740.525, 620.656 " fill="none" stroke="rgb(0, 0, 0)" stroke-linecap="butt" stroke-linejoin="round" stroke-opacity="1.0" stroke-width="3.0" />
            <path d=" M 594.797, 693.599 594.063, 692.197 593.855, 691.639 592.247, 687.314 587.713, 678.401 587.371, 677.728 586.315, 675.653 586.135, 675.299 585.684, 674.412 583.260, 669.346 580.573, 663.730 577.157, 657.531 576.721, 656.340 576.123, 654.702 575.090, 652.840 574.433, 649.563 573.196, 646.422 572.797, 645.467 " fill="none" stroke="rgb(0, 0, 0)" stroke-linecap="butt" stroke-linejoin="round" stroke-opacity="1.0" stroke-width="3.0" />
            <path d=" M 849.439, 669.489 856.448, 663.521 860.212, 660.459 867.441, 656.505 869.291, 655.716 869.425, 655.658 870.023, 655.403 870.207, 655.325 870.227, 655.316 874.545, 653.474 882.952, 650.141 892.405, 646.879 892.698, 646.778 897.431, 645.037 898.275, 644.891 " fill="none" stroke="rgb(0, 0, 0)" stroke-linecap="butt" stroke-linejoin="round" stroke-opacity="1.0" stroke-width="3.0" />
            <path d=" M 487.309, 693.987 491.594, 697.263 496.681, 699.999 497.862, 699.640 500.847, 696.217 501.646, 693.983 500.515, 691.422 497.460, 684.503 494.594, 674.922 494.161, 673.474 493.898, 672.581 493.759, 672.109 493.417, 671.139 493.385, 671.048 493.272, 670.727 493.090, 670.211 493.090, 670.211 493.066, 670.143 492.488, 668.503 492.210, 667.857 491.937, 667.218 490.259, 663.307 489.985, 662.668 488.730, 658.495 " fill="none" stroke="rgb(0, 0, 0)" stroke-linecap="butt" stroke-linejoin="round" stroke-opacity="1.0" stroke-width="3.0" />
            <path d=" M 688.727, 920.234 687.513, 919.336 686.160, 918.336 686.028, 918.238 683.716, 916.541 677.215, 913.127 677.143, 913.089 676.380, 912.689 674.034, 910.857 673.520, 910.456 673.454, 910.405 672.002, 909.271 666.541, 908.453 666.446, 908.530 665.630, 909.195 664.428, 910.173 664.177, 910.730 664.710, 915.011 666.765, 921.660 666.857, 922.218 667.417, 925.597 668.264, 927.171 668.788, 928.146 668.829, 928.222 669.197, 928.907 669.980, 930.362 671.601, 933.373 675.555, 935.854 " fill="none" stroke="rgb(0, 0, 0)" stroke-linecap="butt" stroke-linejoin="round" stroke-opacity="1.0" stroke-width="3.0" />
            <path d=" M 689.579, 711.184 685.167, 710.223 675.236, 709.049 672.827, 708.765 667.962, 708.899 662.803, 708.702 659.852, 709.462 659.205, 709.868 654.833, 712.724 652.521, 714.995 647.855, 721.368 645.891, 725.766 644.574, 730.385 644.437, 731.706 " fill="none" stroke="rgb(0, 0, 0)" stroke-linecap="butt" stroke-linejoin="round" stroke-opacity="1.0" stroke-width="3.0" />
            <path d=" M 923.726, 909.590 924.597, 906.994 923.973, 908.581 922.347, 912.722 920.557, 916.801 919.361, 920.460 918.897, 921.879 916.891, 924.763 915.536, 926.711 915.414, 926.886 912.954, 930.346 910.829, 933.108 908.461, 936.962 906.198, 940.357 904.390, 942.964 900.606, 946.904 897.758, 948.947 895.345, 950.365 893.593, 951.481 893.291, 951.832 " fill="none" stroke="rgb(0, 0, 0)" stroke-linecap="butt" stroke-linejoin="round" stroke-opacity="1.0" stroke-width="3.0" />
            <path d=" M 904.070, 842.357 903.831, 841.549 900.994, 831.960 900.645, 830.783 899.275, 826.125 898.388, 816.164 898.347, 815.699 897.959, 809.172 897.769, 801.405 897.760, 801.022 897.895, 800.312 899.258, 793.182 899.543, 791.687 900.124, 787.956 900.704, 784.234 " fill="none" stroke="rgb(0, 0, 0)" stroke-linecap="butt" stroke-linejoin="round" stroke-opacity="1.0" stroke-width="3.0" />
            <path d=" M 647.259, 514.099 645.050, 510.707 645.028, 510.673 643.855, 508.871 643.738, 508.691 643.683, 508.607 642.808, 507.263 640.296, 504.585 635.024, 500.939 633.914, 499.709 631.769, 497.765 624.694, 497.047 619.073, 495.197 616.461, 493.733 613.721, 492.363 610.674, 492.410 607.541, 492.101 598.399, 492.623 595.880, 493.735 " fill="none" stroke="rgb(0, 0, 0)" stroke-linecap="butt" stroke-linejoin="round" stroke-opacity="1.0" stroke-width="3.0" />
            <path d=" M 703.635, 772.210 703.566, 772.579 703.401, 773.464 703.302, 775.341 704.020, 778.060 704.691, 782.016 704.543, 785.022 704.521, 785.467 704.484, 786.232 704.439, 787.157 704.410, 787.748 704.379, 788.392 704.144, 790.081 704.090, 790.543 703.847, 792.612 703.659, 794.211 703.635, 794.283 702.966, 796.240 702.183, 798.530 702.216, 798.817 702.227, 798.913 702.414, 800.572 701.555, 802.649 701.265, 804.361 701.942, 806.727 702.778, 811.436 704.610, 813.821 706.751, 817.531 707.864, 819.759 708.537, 821.574 711.241, 826.926 712.574, 829.147 712.609, 829.295 " fill="none" stroke="rgb(0, 0, 0)" stroke-linecap="butt" stroke-linejoin="round" stroke-opacity="1.0" stroke-width="3.0" />
            <path d=" M 699.244, 851.127 698.290, 850.233 698.278, 850.222 697.768, 849.744 697.685, 849.666 697.653, 849.636 696.231, 846.183 693.706, 841.477 686.701, 835.569 685.165, 835.111 684.335, 834.864 683.330, 834.765 682.296, 835.422 681.109, 836.174 680.768, 836.391 680.510, 836.555 679.888, 836.949 679.601, 837.266 679.584, 837.285 676.894, 840.253 676.233, 840.982 671.034, 845.608 665.310, 847.736 662.072, 849.007 660.647, 849.566 660.577, 849.570 660.358, 849.583 660.356, 849.583 659.774, 849.618 659.741, 849.620 659.625, 849.627 659.624, 849.627 658.041, 849.722 657.942, 849.728 657.758, 849.739 657.757, 849.739 657.628, 849.747 657.392, 849.983 657.007, 850.369 656.959, 850.416 656.719, 850.657 656.284, 851.092 656.239, 851.435 656.159, 852.044 656.112, 852.405 656.058, 852.817 655.977, 853.433 655.933, 853.771 655.738, 855.249 " fill="none" stroke="rgb(0, 0, 0)" stroke-linecap="butt" stroke-linejoin="round" stroke-opacity="1.0" stroke-width="3.0" />
            <path d=" M 648.994, 838.450 646.877, 832.952 645.869, 830.336 643.741, 820.565 643.570, 819.781 642.049, 811.818 640.993, 804.612 639.596, 797.951 638.373, 792.116 637.523, 785.939 634.984, 779.356 634.637, 778.457 " fill="none" stroke="rgb(0, 0, 0)" stroke-linecap="butt" stroke-linejoin="round" stroke-opacity="1.0" stroke-width="3.0" />
            <path d=" M 636.596, 598.743 638.333, 599.923 641.944, 601.263 646.049, 599.932 646.775, 599.564 650.698, 597.577 651.075, 597.041 652.986, 593.943 656.078, 590.216 657.142, 587.215 656.914, 583.590 653.489, 576.429 648.747, 572.161 643.841, 567.798 642.225, 567.139 634.720, 564.077 " fill="none" stroke="rgb(0, 0, 0)" stroke-linecap="butt" stroke-linejoin="round" stroke-opacity="1.0" stroke-width="3.0" />
            <path d=" M 730.669, 697.952 731.327, 704.104 731.428, 705.051 731.969, 710.109 730.413, 714.378 728.244, 717.522 724.362, 720.198 719.406, 721.363 719.315, 721.348 718.468, 721.208 715.193, 720.667 715.010, 720.637 714.985, 720.633 714.066, 720.481 713.543, 720.394 710.667, 718.710 710.103, 718.380 710.100, 718.378 709.815, 718.211 709.670, 718.090 708.996, 717.530 707.306, 716.123 701.691, 714.102 697.160, 711.495 696.205, 711.186 691.372, 711.185 689.579, 711.184 688.838, 711.184 " fill="none" stroke="rgb(0, 0, 0)" stroke-linecap="butt" stroke-linejoin="round" stroke-opacity="1.0" stroke-width="3.0" />
            <path d=" M 792.489, 992.581 793.031, 991.749 793.138, 991.584 793.603, 990.870 794.325, 990.125 795.096, 989.329 795.405, 989.009 795.099, 989.384 794.340, 990.313 793.180, 991.734 793.055, 991.887 792.489, 992.581 792.487, 992.583 790.008, 995.620 789.452, 996.300 789.430, 996.327 787.883, 998.222 787.808, 998.314 787.028, 999.269 784.717, 1002.100 779.286, 1004.406 775.433, 1008.500 773.138, 1010.989 770.272, 1014.096 769.330, 1015.118 767.635, 1016.956 769.962, 1020.432 769.990, 1020.473 770.083, 1020.611 770.413, 1021.105 770.417, 1021.111 770.787, 1021.663 771.461, 1021.932 772.876, 1022.497 774.698, 1023.223 774.953, 1023.325 777.718, 1024.428 777.863, 1024.486 777.897, 1024.499 778.035, 1024.554 779.124, 1024.988 781.057, 1025.760 783.396, 1026.188 788.363, 1027.097 " fill="none" stroke="rgb(0, 0, 0)" stroke-linecap="butt" stroke-linejoin="round" stroke-opacity="1.0" stroke-width="3.0" />
            <path d=" M 829.094, 972.063 829.049, 971.963 828.919, 971.673 828.489, 970.713 826.678, 966.674 822.503, 961.317 818.688, 958.492 818.483, 958.340 818.473, 958.333 818.410, 958.286 818.217, 958.143 817.710, 957.768 817.678, 957.744 817.318, 957.478 816.967, 957.218 816.788, 957.085 815.459, 956.101 814.681, 955.525 814.079, 955.080 813.761, 954.844 812.675, 954.177 809.956, 952.507 809.953, 952.505 805.285, 949.639 804.226, 949.283 801.278, 949.798 798.976, 953.516 799.493, 956.466 800.535, 962.411 801.810, 965.395 803.627, 969.649 804.276, 971.169 804.836, 972.479 805.902, 974.126 806.877, 975.632 808.228, 977.720 809.175, 979.183 " fill="none" stroke="rgb(0, 0, 0)" stroke-linecap="butt" stroke-linejoin="round" stroke-opacity="1.0" stroke-width="3.0" />
            <path d=" M 577.321, 603.133 586.216, 607.702 587.075, 608.143 589.220, 609.177 594.221, 609.060 595.811, 607.151 596.015, 602.987 595.338, 601.761 591.258, 594.364 586.716, 585.455 585.857, 583.769 585.071, 582.694 583.014, 579.885 581.969, 578.850 581.873, 578.755 580.421, 577.318 578.695, 576.345 574.729, 574.447 572.273, 573.359 572.242, 573.317 570.978, 571.610 571.065, 567.439 " fill="none" stroke="rgb(0, 0, 0)" stroke-linecap="butt" stroke-linejoin="round" stroke-opacity="1.0" stroke-width="3.0" />
            <path d=" M 464.204, 671.406 464.931, 672.122 466.593, 680.713 471.118, 688.153 477.086, 694.956 480.371, 697.600 486.855, 699.534 487.309, 693.987 487.372, 693.214 486.601, 685.980 486.110, 681.073 485.910, 679.073 485.064, 674.150 484.589, 673.211 482.646, 669.374 482.629, 669.340 481.751, 667.604 " fill="none" stroke="rgb(0, 0, 0)" stroke-linecap="butt" stroke-linejoin="round" stroke-opacity="1.0" stroke-width="3.0" />
            <path d=" M 820.430, 842.362 818.216, 843.644 815.371, 843.080 815.247, 842.953 815.146, 842.850 810.917, 838.523 809.081, 837.250 808.337, 836.735 807.354, 836.422 804.582, 835.539 804.094, 835.397 803.466, 835.215 800.207, 834.271 797.760, 834.011 790.784, 830.459 789.623, 830.757 784.918, 835.206 785.744, 840.176 787.923, 844.991 789.905, 848.594 793.125, 855.069 798.823, 861.530 " fill="none" stroke="rgb(0, 0, 0)" stroke-linecap="butt" stroke-linejoin="round" stroke-opacity="1.0" stroke-width="3.0" />
            <path d=" M 740.403, 620.633 745.276, 621.868 745.598, 621.949 748.069, 622.749 748.082, 622.753 756.251, 625.397 757.795, 625.788 765.420, 628.161 767.241, 628.939 767.612, 629.063 768.082, 629.219 768.108, 629.228 768.289, 629.288 770.780, 630.119 775.077, 631.358 778.136, 632.609 782.762, 634.095 788.802, 636.521 792.168, 637.496 796.697, 638.808 800.602, 639.822 805.263, 641.242 806.793, 641.529 808.455, 641.841 809.828, 642.099 809.955, 642.122 810.211, 642.170 810.287, 642.185 812.003, 642.507 812.682, 642.634 " fill="none" stroke="rgb(0, 0, 0)" stroke-linecap="butt" stroke-linejoin="round" stroke-opacity="1.0" stroke-width="3.0" />
            <path d=" M 798.527, 1038.572 800.621, 1039.004 801.213, 1039.126 802.107, 1039.310 803.779, 1039.655 805.059, 1039.031 809.189, 1037.016 810.806, 1034.989 812.711, 1032.603 814.933, 1031.343 822.968, 1025.390 823.123, 1025.275 831.656, 1020.061 834.746, 1018.173 838.666, 1015.105 845.820, 1009.515 850.733, 1006.378 854.121, 1005.291 858.959, 1005.151 859.106, 1005.147 859.117, 1005.146 859.174, 1005.145 860.150, 1005.116 861.672, 1005.072 863.812, 1005.010 " fill="none" stroke="rgb(0, 0, 0)" stroke-linecap="butt" stroke-linejoin="round" stroke-opacity="1.0" stroke-width="3.0" />
            <path d=" M 952.058, 875.333 953.143, 873.908 953.886, 872.838 958.551, 867.957 962.839, 862.836 965.613, 858.375 967.174, 855.074 968.143, 851.785 969.567, 846.222 969.654, 840.216 968.860, 833.502 967.841, 825.402 967.401, 820.789 965.401, 815.233 964.375, 810.949 962.400, 809.704 960.476, 809.103 958.329, 808.433 " fill="none" stroke="rgb(0, 0, 0)" stroke-linecap="butt" stroke-linejoin="round" stroke-opacity="1.0" stroke-width="3.0" />
            <path d=" M 542.075, 603.999 543.301, 604.479 549.324, 606.835 549.944, 607.156 552.584, 608.520 561.822, 612.349 561.943, 612.399 569.511, 614.437 579.230, 616.790 579.376, 616.825 581.208, 614.569 582.089, 610.247 580.872, 607.751 577.321, 603.133 571.227, 595.205 568.578, 591.760 565.445, 588.600 563.571, 587.499 559.848, 586.915 559.558, 586.870 558.340, 586.651 558.233, 586.632 557.195, 586.446 " fill="none" stroke="rgb(0, 0, 0)" stroke-linecap="butt" stroke-linejoin="round" stroke-opacity="1.0" stroke-width="3.0" />
            <path d=" M 721.888, 1025.061 718.992, 1024.176 713.243, 1025.132 712.883, 1025.191 711.025, 1027.025 711.011, 1027.092 710.962, 1027.314 710.517, 1029.336 712.451, 1032.477 714.609, 1035.943 721.499, 1043.191 722.398, 1044.137 728.367, 1047.901 731.522, 1049.362 741.443, 1050.615 742.577, 1050.758 744.990, 1052.725 747.010, 1054.011 748.072, 1054.631 753.460, 1055.185 761.475, 1061.164 762.821, 1062.169 766.623, 1065.094 770.648, 1067.239 " fill="none" stroke="rgb(0, 0, 0)" stroke-linecap="butt" stroke-linejoin="round" stroke-opacity="1.0" stroke-width="3.0" />
            <path d=" M 424.161, 661.942 424.525, 665.038 427.872, 668.940 428.260, 676.510 429.268, 683.522 432.274, 693.060 433.693, 697.563 437.619, 706.760 438.963, 709.910 444.329, 718.082 444.570, 718.351 451.408, 722.451 454.392, 723.617 460.870, 726.913 464.547, 726.166 466.354, 724.650 466.836, 723.865 467.895, 719.982 466.387, 711.689 466.367, 711.578 " fill="none" stroke="rgb(0, 0, 0)" stroke-linecap="butt" stroke-linejoin="round" stroke-opacity="1.0" stroke-width="3.0" />
            <path d=" M 658.581, 981.019 658.217, 980.771 652.144, 976.624 647.891, 974.981 644.605, 974.001 643.773, 976.189 645.454, 979.919 652.782, 986.723 653.952, 987.808 661.119, 993.764 666.669, 999.785 673.136, 1004.979 681.246, 1010.829 683.634, 1012.551 692.178, 1017.747 694.467, 1019.139 698.450, 1021.404 707.470, 1025.721 707.928, 1025.941 710.787, 1027.008 711.011, 1027.092 " fill="none" stroke="rgb(0, 0, 0)" stroke-linecap="butt" stroke-linejoin="round" stroke-opacity="1.0" stroke-width="3.0" />
            <path d=" M 956.348, 693.216 956.840, 691.630 956.866, 689.138 956.998, 686.528 957.185, 684.047 956.595, 679.786 956.192, 675.452 955.173, 671.341 951.414, 662.586 948.381, 656.460 943.176, 647.922 942.678, 647.106 937.019, 639.918 933.809, 636.261 927.100, 630.418 920.512, 626.219 912.734, 622.604 905.927, 620.164 904.520, 619.593 897.820, 618.181 " fill="none" stroke="rgb(0, 0, 0)" stroke-linecap="butt" stroke-linejoin="round" stroke-opacity="1.0" stroke-width="3.0" />
            <path d=" M 786.783, 612.168 784.882, 610.906 784.825, 610.868 782.847, 609.554 782.794, 609.519 782.327, 609.209 782.051, 609.025 782.023, 609.007 781.359, 608.566 779.314, 607.208 776.154, 605.758 775.271, 605.352 774.107, 604.818 773.520, 604.549 773.513, 604.546 773.410, 604.499 773.016, 604.318 768.326, 602.166 759.077, 598.363 757.955, 597.902 748.717, 594.072 746.464, 593.137 746.077, 592.928 745.922, 592.844 739.959, 589.610 735.288, 587.550 726.292, 583.182 724.894, 582.503 715.981, 577.968 712.846, 576.373 704.612, 572.191 697.442, 567.916 691.449, 563.530 690.620, 562.923 689.085, 561.800 " fill="none" stroke="rgb(0, 0, 0)" stroke-linecap="butt" stroke-linejoin="round" stroke-opacity="1.0" stroke-width="3.0" />
            <path d=" M 778.721, 603.939 779.796, 603.177 787.097, 598.548 795.808, 593.637 798.523, 592.107 803.526, 588.464 808.228, 585.363 812.055, 581.119 813.341, 578.333 813.921, 575.314 813.887, 572.397 812.767, 569.264 811.304, 564.214 806.919, 560.983 797.631, 558.349 796.179, 558.055 786.734, 556.440 782.356, 556.238 775.053, 556.003 765.112, 554.918 763.351, 554.725 753.506, 552.974 752.804, 552.849 752.413, 552.779 748.182, 551.411 745.266, 550.469 " fill="none" stroke="rgb(0, 0, 0)" stroke-linecap="butt" stroke-linejoin="round" stroke-opacity="1.0" stroke-width="3.0" />
            <path d=" M 569.545, 728.468 574.073, 737.384 577.203, 743.549 581.909, 752.372 583.593, 755.530 586.595, 763.386 587.020, 764.497 590.118, 772.850 593.424, 779.660 597.765, 788.669 598.862, 790.945 602.276, 797.244 602.417, 797.462 607.842, 805.863 608.179, 806.384 614.007, 814.510 614.586, 815.316 617.496, 819.254 619.667, 822.184 624.357, 828.198 625.959, 830.132 627.872, 832.439 632.201, 837.095 634.040, 838.867 638.170, 842.846 " fill="none" stroke="rgb(0, 0, 0)" stroke-linecap="butt" stroke-linejoin="round" stroke-opacity="1.0" stroke-width="3.0" />
            <path d=" M 828.150, 895.505 826.927, 894.299 826.539, 893.916 826.515, 893.893 825.218, 892.612 821.125, 888.574 819.606, 887.212 819.598, 887.205 819.543, 887.155 815.698, 883.710 811.949, 881.949 811.255, 881.364 810.756, 880.942 810.637, 880.842 806.837, 877.636 806.523, 877.371 800.432, 872.231 800.216, 872.049 799.256, 871.239 796.157, 868.769 788.336, 862.536 787.111, 861.560 787.002, 861.473 786.720, 861.248 786.641, 861.185 781.430, 856.533 780.504, 855.707 778.107, 854.535 778.102, 854.532 777.568, 854.271 772.055, 855.396 770.130, 859.885 771.826, 863.704 775.214, 871.013 780.043, 879.769 782.331, 883.919 787.034, 892.744 788.641, 895.758 788.692, 895.855 793.395, 904.679 796.090, 909.736 802.482, 917.427 804.963, 920.412 808.580, 924.948 809.909, 926.145 810.114, 926.329 810.175, 926.384 810.497, 926.674 811.452, 927.534 814.818, 930.564 " fill="none" stroke="rgb(0, 0, 0)" stroke-linecap="butt" stroke-linejoin="round" stroke-opacity="1.0" stroke-width="3.0" />
            <path d=" M 504.977, 631.938 505.585, 632.222 506.360, 632.584 515.422, 636.812 516.756, 637.435 526.674, 638.714 534.554, 639.731 541.627, 640.675 551.582, 641.621 551.758, 641.638 556.861, 642.873 566.531, 644.309 572.048, 645.445 572.775, 645.466 572.797, 645.467 574.436, 645.514 579.283, 645.654 581.559, 643.200 581.593, 643.056 579.712, 636.956 571.558, 631.167 567.833, 628.522 560.075, 623.966 556.772, 622.026 551.441, 619.507 550.804, 619.206 550.798, 619.203 550.420, 619.025 550.354, 618.993 550.037, 618.844 546.863, 617.171 540.705, 613.926 536.544, 611.490 536.377, 611.414 528.367, 607.803 527.985, 607.596 525.571, 606.288 525.350, 606.168 521.898, 604.298 521.634, 604.203 521.602, 604.192 517.427, 602.691 515.696, 602.068 515.671, 602.060 515.438, 601.976 515.261, 601.912 514.365, 601.590 513.695, 601.349 " fill="none" stroke="rgb(0, 0, 0)" stroke-linecap="butt" stroke-linejoin="round" stroke-opacity="1.0" stroke-width="3.0" />
        </g>
    </g>
</svg>
