<?xml version='1.0' encoding='ascii'?>
<svg xmlns="http://www.w3.org/2000/svg" height="1280" version="1.1" width="1280">
    <g id="RenderLayer_LineSet" inkscape:groupmode="lineset" inkscape:label="RenderLayer_LineSet" xmlns:inkscape="http://www.inkscape.org/namespaces/inkscape">
        <g id="strokes" inkscape:groupmode="layer" inkscape:label="strokes" xmlns:inkscape="http://www.inkscape.org/namespaces/inkscape">
            <path d=" M 639.303, 892.823 638.705, 894.038 638.253, 894.959 636.522, 898.479 635.519, 899.837 635.216, 900.246 634.434, 901.306 634.432, 901.315 632.767, 907.787 632.419, 909.138 632.261, 909.752 631.824, 911.189 " fill="none" stroke="rgb(0, 0, 0)" stroke-linecap="butt" stroke-linejoin="round" stroke-opacity="1.0" stroke-width="3.0" />
            <path d=" M 546.205, 741.906 547.740, 748.416 550.584, 756.308 550.831, 756.991 552.048, 761.073 " fill="none" stroke="rgb(0, 0, 0)" stroke-linecap="butt" stroke-linejoin="round" stroke-opacity="1.0" stroke-width="3.0" />
            <path d=" M 520.898, 568.712 519.047, 563.627 518.756, 562.956 514.779, 553.781 514.117, 552.255 513.212, 550.166 " fill="none" stroke="rgb(0, 0, 0)" stroke-linecap="butt" stroke-linejoin="round" stroke-opacity="1.0" stroke-width="3.0" />
            <path d=" M 884.994, 913.735 885.550, 912.125 885.570, 912.066 887.039, 907.812 887.753, 905.743 888.521, 905.313 892.828, 902.904 897.945, 899.479 " fill="none" stroke="rgb(0, 0, 0)" stroke-linecap="butt" stroke-linejoin="round" stroke-opacity="1.0" stroke-width="3.0" />
            <path d=" M 607.620, 608.738 608.651, 609.629 610.617, 611.291 616.172, 615.709 624.981, 618.966 " fill="none" stroke="rgb(0, 0, 0)" stroke-linecap="butt" stroke-linejoin="round" stroke-opacity="1.0" stroke-width="3.0" />
            <path d=" M 792.800, 824.336 794.637, 824.047 804.515, 822.492 811.446, 821.401 813.143, 821.134 " fill="none" stroke="rgb(0, 0, 0)" stroke-linecap="butt" stroke-linejoin="round" stroke-opacity="1.0" stroke-width="3.0" />
            <path d=" M 545.279, 437.658 542.368, 431.234 542.367, 431.227 542.351, 431.136 541.762, 427.599 542.367, 422.276 542.442, 421.612 542.453, 421.516 542.479, 421.289 542.521, 421.159 542.593, 420.938 543.651, 417.694 " fill="none" stroke="rgb(0, 0, 0)" stroke-linecap="butt" stroke-linejoin="round" stroke-opacity="1.0" stroke-width="3.0" />
            <path d=" M 797.138, 709.283 797.275, 708.874 797.350, 708.651 797.559, 708.031 797.591, 707.933 797.786, 707.352 798.008, 706.693 798.033, 706.619 798.202, 706.115 798.382, 705.579 798.548, 705.083 799.352, 702.912 799.363, 702.882 799.372, 702.848 799.685, 701.738 799.763, 701.461 799.782, 701.392 799.859, 701.120 799.872, 701.074 799.877, 701.056 799.867, 700.919 799.853, 700.720 799.793, 699.861 799.790, 699.819 799.777, 699.641 799.671, 698.143 799.667, 698.075 799.661, 697.968 799.355, 692.686 799.301, 691.764 799.299, 691.719 799.125, 688.727 " fill="none" stroke="rgb(0, 0, 0)" stroke-linecap="butt" stroke-linejoin="round" stroke-opacity="1.0" stroke-width="3.0" />
            <path d=" M 502.090, 623.189 505.309, 628.347 506.105, 630.930 507.809, 633.423 509.761, 637.373 511.533, 638.805 513.812, 640.319 " fill="none" stroke="rgb(0, 0, 0)" stroke-linecap="butt" stroke-linejoin="round" stroke-opacity="1.0" stroke-width="3.0" />
            <path d=" M 849.052, 693.938 849.238, 693.781 850.559, 692.664 851.136, 692.409 851.620, 692.196 852.168, 691.955 852.456, 691.828 847.693, 688.605 847.490, 688.465 845.313, 686.961 845.069, 686.793 844.984, 686.734 843.705, 686.725 842.508, 686.717 842.318, 686.715 838.182, 686.687 836.825, 686.677 " fill="none" stroke="rgb(0, 0, 0)" stroke-linecap="butt" stroke-linejoin="round" stroke-opacity="1.0" stroke-width="3.0" />
            <path d=" M 622.887, 819.159 619.596, 815.991 613.745, 807.881 612.589, 806.279 610.170, 802.057 " fill="none" stroke="rgb(0, 0, 0)" stroke-linecap="butt" stroke-linejoin="round" stroke-opacity="1.0" stroke-width="3.0" />
            <path d=" M 740.637, 696.873 740.854, 697.279 742.388, 700.147 743.333, 701.913 744.940, 705.111 745.340, 706.181 745.359, 706.233 745.632, 706.963 745.654, 707.022 745.775, 707.344 745.880, 707.627 745.995, 707.934 746.803, 710.094 751.364, 715.445 " fill="none" stroke="rgb(0, 0, 0)" stroke-linecap="butt" stroke-linejoin="round" stroke-opacity="1.0" stroke-width="3.0" />
            <path d=" M 646.084, 887.651 646.484, 886.721 646.521, 886.635 646.536, 886.599 646.900, 885.752 647.585, 884.159 647.972, 885.953 647.984, 886.006 647.571, 886.364 647.277, 886.618 646.861, 886.978 646.677, 887.137 646.084, 887.651 644.766, 888.793 644.731, 888.813 643.388, 889.592 643.359, 889.609 643.249, 889.673 642.107, 890.336 640.686, 892.546 640.585, 892.702 640.144, 893.419 640.131, 893.440 639.915, 893.791 639.243, 894.881 639.241, 894.886 638.512, 896.117 637.743, 897.416 637.514, 897.803 " fill="none" stroke="rgb(0, 0, 0)" stroke-linecap="butt" stroke-linejoin="round" stroke-opacity="1.0" stroke-width="3.0" />
            <path d=" M 872.177, 665.577 869.978, 661.400 866.074, 653.984 860.310, 647.283 " fill="none" stroke="rgb(0, 0, 0)" stroke-linecap="butt" stroke-linejoin="round" stroke-opacity="1.0" stroke-width="3.0" />
            <path d=" M 536.742, 634.015 538.538, 632.713 539.154, 632.266 540.368, 631.387 540.389, 631.371 540.640, 631.190 540.650, 631.183 541.796, 630.352 542.675, 629.714 543.322, 628.890 543.429, 628.753 545.146, 626.287 545.586, 624.925 545.596, 624.657 545.726, 621.353 542.556, 617.009 542.544, 616.993 " fill="none" stroke="rgb(0, 0, 0)" stroke-linecap="butt" stroke-linejoin="round" stroke-opacity="1.0" stroke-width="3.0" />
            <path d=" M 769.087, 617.011 769.571, 621.225 777.133, 625.975 778.561, 628.902 777.643, 631.651 774.801, 632.367 " fill="none" stroke="rgb(0, 0, 0)" stroke-linecap="butt" stroke-linejoin="round" stroke-opacity="1.0" stroke-width="3.0" />
            <path d=" M 452.986, 431.392 452.043, 435.257 451.773, 436.954 451.863, 439.924 451.995, 441.062 452.544, 444.917 454.068, 449.787 454.642, 451.624 455.199, 453.401 " fill="none" stroke="rgb(0, 0, 0)" stroke-linecap="butt" stroke-linejoin="round" stroke-opacity="1.0" stroke-width="3.0" />
            <path d=" M 503.007, 529.834 502.917, 526.675 502.921, 525.427 502.930, 522.980 502.921, 522.943 502.897, 522.834 502.863, 522.683 502.736, 522.118 502.443, 520.812 501.661, 517.322 501.526, 516.907 500.986, 515.948 500.047, 514.286 498.824, 512.118 498.029, 508.094 " fill="none" stroke="rgb(0, 0, 0)" stroke-linecap="butt" stroke-linejoin="round" stroke-opacity="1.0" stroke-width="3.0" />
            <path d=" M 497.070, 570.451 497.075, 570.486 498.137, 577.341 499.328, 583.226 500.443, 586.511 502.514, 589.457 503.061, 590.234 503.061, 590.235 504.103, 591.717 " fill="none" stroke="rgb(0, 0, 0)" stroke-linecap="butt" stroke-linejoin="round" stroke-opacity="1.0" stroke-width="3.0" />
            <path d=" M 509.877, 669.963 511.359, 675.092 513.385, 679.088 514.754, 682.661 517.981, 687.968 518.688, 689.143 519.575, 690.615 " fill="none" stroke="rgb(0, 0, 0)" stroke-linecap="butt" stroke-linejoin="round" stroke-opacity="1.0" stroke-width="3.0" />
            <path d=" M 898.244, 986.973 899.792, 985.890 900.621, 985.224 905.112, 979.759 906.431, 975.591 906.469, 975.471 907.118, 973.419 909.471, 969.408 910.271, 967.974 " fill="none" stroke="rgb(0, 0, 0)" stroke-linecap="butt" stroke-linejoin="round" stroke-opacity="1.0" stroke-width="3.0" />
            <path d=" M 860.444, 1012.796 864.380, 1010.508 871.138, 1006.581 873.473, 1005.251 880.112, 1000.937 " fill="none" stroke="rgb(0, 0, 0)" stroke-linecap="butt" stroke-linejoin="round" stroke-opacity="1.0" stroke-width="3.0" />
            <path d=" M 553.140, 644.704 554.106, 644.021 554.606, 643.322 554.646, 643.265 554.836, 642.999 555.969, 641.415 556.016, 641.350 555.353, 638.917 552.600, 635.151 549.188, 631.630 548.159, 631.093 545.387, 629.647 543.322, 628.890 " fill="none" stroke="rgb(0, 0, 0)" stroke-linecap="butt" stroke-linejoin="round" stroke-opacity="1.0" stroke-width="3.0" />
            <path d=" M 805.704, 1032.535 810.236, 1031.211 810.270, 1031.203 817.513, 1029.537 818.946, 1029.791 821.712, 1030.281 823.529, 1029.716 823.661, 1029.675 825.552, 1028.913 826.303, 1028.610 826.828, 1028.399 827.949, 1027.947 " fill="none" stroke="rgb(0, 0, 0)" stroke-linecap="butt" stroke-linejoin="round" stroke-opacity="1.0" stroke-width="3.0" />
            <path d=" M 515.226, 642.317 517.718, 646.700 521.349, 655.402 523.430, 658.829 526.775, 662.042 " fill="none" stroke="rgb(0, 0, 0)" stroke-linecap="butt" stroke-linejoin="round" stroke-opacity="1.0" stroke-width="3.0" />
            <path d=" M 839.537, 670.963 840.922, 671.325 840.936, 671.328 846.157, 672.692 846.217, 672.708 846.255, 672.718 846.507, 672.784 846.771, 672.853 853.205, 674.533 861.262, 678.736 " fill="none" stroke="rgb(0, 0, 0)" stroke-linecap="butt" stroke-linejoin="round" stroke-opacity="1.0" stroke-width="3.0" />
            <path d=" M 538.163, 617.873 540.229, 617.697 541.257, 617.609 542.544, 616.993 542.549, 616.991 544.117, 616.240 545.089, 615.099 546.081, 612.894 545.830, 611.764 545.431, 610.167 544.963, 609.208 539.613, 604.076 538.321, 602.481 " fill="none" stroke="rgb(0, 0, 0)" stroke-linecap="butt" stroke-linejoin="round" stroke-opacity="1.0" stroke-width="3.0" />
            <path d=" M 487.433, 461.512 488.678, 458.903 489.205, 452.736 488.575, 448.168 487.788, 438.306 " fill="none" stroke="rgb(0, 0, 0)" stroke-linecap="butt" stroke-linejoin="round" stroke-opacity="1.0" stroke-width="3.0" />
            <path d=" M 489.501, 531.286 488.890, 530.158 486.068, 524.948 484.567, 516.554 484.968, 518.790 486.629, 524.178 " fill="none" stroke="rgb(0, 0, 0)" stroke-linecap="butt" stroke-linejoin="round" stroke-opacity="1.0" stroke-width="3.0" />
            <path d=" M 878.034, 1002.116 880.112, 1000.937 886.271, 997.442 892.802, 994.983 895.037, 993.744 896.651, 992.036 896.845, 991.713 897.775, 990.167 897.836, 990.065 " fill="none" stroke="rgb(0, 0, 0)" stroke-linecap="butt" stroke-linejoin="round" stroke-opacity="1.0" stroke-width="3.0" />
            <path d=" M 511.571, 453.748 513.248, 454.444 513.520, 454.557 513.804, 454.640 516.775, 455.508 521.377, 457.583 523.098, 458.737 523.110, 458.745 527.630, 461.778 531.675, 464.736 532.240, 465.150 " fill="none" stroke="rgb(0, 0, 0)" stroke-linecap="butt" stroke-linejoin="round" stroke-opacity="1.0" stroke-width="3.0" />
            <path d=" M 952.322, 906.540 952.720, 906.318 952.988, 905.805 953.115, 905.562 953.589, 904.656 955.136, 901.692 955.681, 900.205 958.203, 896.088 959.254, 892.518 960.026, 890.354 960.586, 887.782 961.052, 884.578 " fill="none" stroke="rgb(0, 0, 0)" stroke-linecap="butt" stroke-linejoin="round" stroke-opacity="1.0" stroke-width="3.0" />
            <path d=" M 502.537, 370.781 500.384, 370.674 499.723, 370.514 499.542, 370.470 499.430, 370.443 496.655, 369.771 493.031, 370.569 489.592, 371.506 488.100, 374.334 487.929, 375.034 487.758, 376.427 487.655, 377.256 487.589, 377.794 487.093, 381.816 " fill="none" stroke="rgb(0, 0, 0)" stroke-linecap="butt" stroke-linejoin="round" stroke-opacity="1.0" stroke-width="3.0" />
            <path d=" M 571.458, 668.186 571.595, 668.032 572.183, 667.371 573.181, 665.592 573.209, 663.540 572.073, 660.696 569.711, 658.371 561.098, 655.500 558.671, 655.449 558.557, 655.446 557.716, 655.428 " fill="none" stroke="rgb(0, 0, 0)" stroke-linecap="butt" stroke-linejoin="round" stroke-opacity="1.0" stroke-width="3.0" />
            <path d=" M 639.574, 767.441 638.407, 772.466 637.985, 774.279 637.969, 774.349 637.774, 775.186 638.418, 776.347 640.209, 779.580 644.530, 784.053 646.632, 786.228 647.105, 787.198 647.124, 787.237 647.368, 787.738 647.442, 787.888 647.511, 788.030 647.579, 788.170 " fill="none" stroke="rgb(0, 0, 0)" stroke-linecap="butt" stroke-linejoin="round" stroke-opacity="1.0" stroke-width="3.0" />
            <path d=" M 661.175, 737.051 661.176, 737.061 661.604, 741.943 662.790, 744.860 662.791, 744.865 664.836, 749.896 669.823, 754.162 673.002, 755.965 674.159, 756.621 " fill="none" stroke="rgb(0, 0, 0)" stroke-linecap="butt" stroke-linejoin="round" stroke-opacity="1.0" stroke-width="3.0" />
            <path d=" M 636.447, 542.109 636.673, 541.587 637.352, 540.015 637.366, 539.982 638.004, 538.507 638.102, 538.102 639.461, 532.473 638.988, 530.272 637.760, 528.040 631.280, 521.104 630.757, 520.747 " fill="none" stroke="rgb(0, 0, 0)" stroke-linecap="butt" stroke-linejoin="round" stroke-opacity="1.0" stroke-width="3.0" />
            <path d=" M 897.775, 990.167 900.226, 988.859 900.434, 988.748 902.085, 986.744 903.618, 984.748 905.755, 979.602 907.808, 974.338 909.018, 972.116 910.651, 969.119 " fill="none" stroke="rgb(0, 0, 0)" stroke-linecap="butt" stroke-linejoin="round" stroke-opacity="1.0" stroke-width="3.0" />
            <path d=" M 690.588, 900.487 691.505, 900.256 693.783, 899.682 700.374, 898.022 700.404, 898.015 700.996, 897.865 706.087, 897.286 715.524, 896.589 " fill="none" stroke="rgb(0, 0, 0)" stroke-linecap="butt" stroke-linejoin="round" stroke-opacity="1.0" stroke-width="3.0" />
            <path d=" M 932.681, 941.008 932.815, 940.867 932.921, 940.755 934.217, 939.385 935.075, 938.479 937.776, 936.599 938.939, 934.882 939.257, 934.544 937.298, 937.321 935.775, 939.199 935.481, 939.561 935.376, 939.692 935.087, 940.048 934.844, 940.347 934.767, 940.442 934.506, 940.764 934.174, 941.173 934.144, 941.210 933.914, 941.485 933.232, 942.302 931.928, 943.864 931.803, 944.013 931.594, 944.413 931.178, 945.209 930.664, 946.192 930.436, 946.258 929.039, 946.662 " fill="none" stroke="rgb(0, 0, 0)" stroke-linecap="butt" stroke-linejoin="round" stroke-opacity="1.0" stroke-width="3.0" />
            <path d=" M 710.701, 646.508 715.589, 647.339 721.765, 648.390 729.088, 651.193 732.537, 652.210 732.945, 652.330 734.123, 652.677 734.205, 652.701 734.321, 652.735 735.307, 653.026 " fill="none" stroke="rgb(0, 0, 0)" stroke-linecap="butt" stroke-linejoin="round" stroke-opacity="1.0" stroke-width="3.0" />
            <path d=" M 779.142, 1000.324 778.668, 1001.698 778.560, 1002.009 776.601, 1007.682 775.732, 1010.198 775.608, 1010.557 775.498, 1010.677 769.418, 1017.320 769.686, 1019.796 769.885, 1020.764 772.062, 1021.152 " fill="none" stroke="rgb(0, 0, 0)" stroke-linecap="butt" stroke-linejoin="round" stroke-opacity="1.0" stroke-width="3.0" />
            <path d=" M 610.396, 540.344 611.808, 541.713 612.571, 542.454 612.850, 542.724 614.451, 545.149 615.895, 546.545 617.492, 548.089 620.964, 551.446 625.975, 551.662 627.583, 551.473 628.986, 549.973 629.710, 549.199 630.001, 548.399 " fill="none" stroke="rgb(0, 0, 0)" stroke-linecap="butt" stroke-linejoin="round" stroke-opacity="1.0" stroke-width="3.0" />
            <path d=" M 517.645, 371.685 516.870, 370.726 514.685, 368.026 512.892, 364.523 509.454, 363.378 502.663, 364.188 501.019, 365.265 499.611, 370.227 " fill="none" stroke="rgb(0, 0, 0)" stroke-linecap="butt" stroke-linejoin="round" stroke-opacity="1.0" stroke-width="3.0" />
            <path d=" M 562.638, 441.202 560.361, 439.613 557.671, 437.737 553.514, 432.895 547.000, 425.307 546.369, 424.572 544.106, 422.565 " fill="none" stroke="rgb(0, 0, 0)" stroke-linecap="butt" stroke-linejoin="round" stroke-opacity="1.0" stroke-width="3.0" />
            <path d=" M 635.217, 773.251 634.594, 774.009 633.441, 774.845 632.450, 784.796 632.362, 785.680 634.233, 789.407 636.367, 793.658 637.048, 795.319 637.234, 795.770 637.269, 795.858 637.342, 796.035 637.415, 796.213 637.499, 796.417 637.924, 797.453 637.925, 797.792 " fill="none" stroke="rgb(0, 0, 0)" stroke-linecap="butt" stroke-linejoin="round" stroke-opacity="1.0" stroke-width="3.0" />
            <path d=" M 892.281, 740.993 893.832, 735.426 893.839, 735.400 893.883, 735.240 893.953, 734.988 894.920, 731.518 894.962, 731.365 895.000, 731.228 895.005, 731.210 895.008, 731.202 895.103, 730.860 895.105, 730.851 895.300, 730.151 895.590, 729.111 895.683, 728.778 896.906, 723.425 897.221, 722.045 896.773, 716.674 896.151, 714.940 " fill="none" stroke="rgb(0, 0, 0)" stroke-linecap="butt" stroke-linejoin="round" stroke-opacity="1.0" stroke-width="3.0" />
            <path d=" M 900.860, 706.789 904.462, 699.379 904.589, 699.116 905.649, 698.722 906.905, 696.270 907.825, 695.169 907.826, 695.168 908.031, 694.922 908.937, 693.838 911.752, 691.834 914.222, 690.521 914.416, 690.418 915.150, 690.028 916.289, 689.789 916.494, 689.745 917.409, 689.553 919.436, 689.127 " fill="none" stroke="rgb(0, 0, 0)" stroke-linecap="butt" stroke-linejoin="round" stroke-opacity="1.0" stroke-width="3.0" />
            <path d=" M 483.187, 609.321 483.727, 612.070 486.235, 619.670 489.142, 626.286 490.308, 628.806 490.481, 629.166 493.165, 634.749 " fill="none" stroke="rgb(0, 0, 0)" stroke-linecap="butt" stroke-linejoin="round" stroke-opacity="1.0" stroke-width="3.0" />
            <path d=" M 484.292, 390.800 483.119, 391.049 478.017, 392.133 477.955, 392.146 477.419, 392.260 477.340, 392.276 476.290, 392.500 475.400, 393.436 474.775, 394.094 474.477, 400.029 473.961, 402.252 473.809, 402.906 472.422, 408.890 472.827, 409.613 473.552, 410.908 " fill="none" stroke="rgb(0, 0, 0)" stroke-linecap="butt" stroke-linejoin="round" stroke-opacity="1.0" stroke-width="3.0" />
            <path d=" M 652.220, 603.674 652.758, 605.022 653.728, 607.458 653.631, 608.542 653.334, 611.864 653.194, 613.424 654.631, 618.980 656.567, 623.409 659.197, 624.718 662.053, 623.651 662.434, 623.509 662.514, 623.479 663.117, 623.254 " fill="none" stroke="rgb(0, 0, 0)" stroke-linecap="butt" stroke-linejoin="round" stroke-opacity="1.0" stroke-width="3.0" />
            <path d=" M 611.432, 538.344 614.000, 540.768 614.352, 541.101 615.573, 542.252 616.315, 542.953 617.065, 543.661 617.311, 543.893 619.722, 544.225 619.813, 544.225 620.676, 542.765 620.763, 542.618 620.970, 542.267 621.359, 541.610 622.037, 539.709 622.060, 539.674 622.645, 538.775 622.774, 538.578 622.911, 538.367 623.456, 537.529 623.974, 536.734 624.829, 535.770 624.966, 535.615 626.042, 534.402 626.147, 534.284 626.168, 534.261 626.577, 533.800 627.328, 532.656 627.343, 532.632 628.030, 531.585 628.068, 531.527 628.071, 531.523 629.211, 529.786 " fill="none" stroke="rgb(0, 0, 0)" stroke-linecap="butt" stroke-linejoin="round" stroke-opacity="1.0" stroke-width="3.0" />
            <path d=" M 855.362, 633.470 854.761, 632.368 850.992, 625.466 847.324, 617.642 845.594, 615.761 843.694, 614.799 842.463, 613.902 838.465, 613.956 " fill="none" stroke="rgb(0, 0, 0)" stroke-linecap="butt" stroke-linejoin="round" stroke-opacity="1.0" stroke-width="3.0" />
            <path d=" M 962.925, 853.866 961.743, 851.505 961.152, 850.585 961.030, 850.396 959.928, 848.681 957.206, 845.929 955.523, 843.827 952.637, 841.414 949.956, 838.052 948.608, 836.736 948.582, 836.710 948.357, 836.491 947.650, 835.799 944.632, 832.830 " fill="none" stroke="rgb(0, 0, 0)" stroke-linecap="butt" stroke-linejoin="round" stroke-opacity="1.0" stroke-width="3.0" />
            <path d=" M 639.562, 766.694 637.535, 767.047 637.009, 768.422 635.217, 773.251 634.706, 774.629 634.705, 774.631 634.508, 775.162 634.765, 780.461 635.615, 782.159 636.788, 784.501 638.179, 787.280 638.416, 787.753 640.802, 790.955 " fill="none" stroke="rgb(0, 0, 0)" stroke-linecap="butt" stroke-linejoin="round" stroke-opacity="1.0" stroke-width="3.0" />
            <path d=" M 708.008, 654.402 709.894, 654.447 716.568, 654.605 718.246, 654.644 718.298, 654.646 722.095, 654.735 732.171, 654.420 734.364, 654.798 734.421, 654.807 734.522, 654.825 736.123, 655.100 " fill="none" stroke="rgb(0, 0, 0)" stroke-linecap="butt" stroke-linejoin="round" stroke-opacity="1.0" stroke-width="3.0" />
            <path d=" M 786.897, 1034.667 794.189, 1033.745 796.053, 1033.510 796.459, 1033.454 796.499, 1033.449 801.476, 1032.771 802.266, 1032.727 802.281, 1032.726 805.704, 1032.535 801.505, 1032.909 796.487, 1033.451 " fill="none" stroke="rgb(0, 0, 0)" stroke-linecap="butt" stroke-linejoin="round" stroke-opacity="1.0" stroke-width="3.0" />
            <path d=" M 596.757, 597.052 597.602, 600.987 600.510, 607.083 601.530, 607.982 604.565, 610.561 608.360, 614.662 614.603, 616.453 " fill="none" stroke="rgb(0, 0, 0)" stroke-linecap="butt" stroke-linejoin="round" stroke-opacity="1.0" stroke-width="3.0" />
            <path d=" M 891.708, 702.001 889.830, 696.229 886.839, 690.429 885.618, 688.060 883.065, 683.431 879.306, 676.690 " fill="none" stroke="rgb(0, 0, 0)" stroke-linecap="butt" stroke-linejoin="round" stroke-opacity="1.0" stroke-width="3.0" />
            <path d=" M 670.027, 965.353 670.801, 966.043 670.805, 966.047 670.826, 966.066 670.828, 966.068 671.011, 966.231 671.513, 966.678 671.605, 966.761 671.839, 966.969 671.858, 966.987 672.230, 967.318 672.327, 967.405 673.028, 968.030 674.674, 969.498 674.676, 969.500 674.896, 969.768 675.358, 970.329 675.446, 970.437 675.793, 970.859 680.124, 976.126 681.357, 977.627 681.643, 978.040 684.877, 982.717 687.400, 987.520 " fill="none" stroke="rgb(0, 0, 0)" stroke-linecap="butt" stroke-linejoin="round" stroke-opacity="1.0" stroke-width="3.0" />
            <path d=" M 576.778, 544.107 577.657, 546.365 580.703, 550.912 583.853, 554.752 588.004, 561.087 588.691, 562.136 592.580, 567.738 " fill="none" stroke="rgb(0, 0, 0)" stroke-linecap="butt" stroke-linejoin="round" stroke-opacity="1.0" stroke-width="3.0" />
            <path d=" M 850.624, 1020.829 852.019, 1019.566 854.879, 1016.812 856.076, 1015.660 857.373, 1014.411 857.676, 1014.094 859.098, 1012.602 859.774, 1012.301 859.848, 1012.268 861.771, 1011.412 864.943, 1009.302 873.144, 1005.156 874.024, 1004.711 " fill="none" stroke="rgb(0, 0, 0)" stroke-linecap="butt" stroke-linejoin="round" stroke-opacity="1.0" stroke-width="3.0" />
            <path d=" M 799.018, 939.135 803.056, 942.797 807.434, 948.202 811.480, 954.699 812.742, 957.554 812.772, 957.622 814.743, 962.083 815.032, 962.738 " fill="none" stroke="rgb(0, 0, 0)" stroke-linecap="butt" stroke-linejoin="round" stroke-opacity="1.0" stroke-width="3.0" />
            <path d=" M 627.343, 532.632 628.230, 531.843 630.105, 530.176 631.455, 528.975 632.914, 526.200 632.158, 523.565 630.801, 520.817 630.757, 520.747 626.521, 514.052 624.477, 511.918 621.405, 510.351 " fill="none" stroke="rgb(0, 0, 0)" stroke-linecap="butt" stroke-linejoin="round" stroke-opacity="1.0" stroke-width="3.0" />
            <path d=" M 602.180, 777.924 601.668, 776.534 600.992, 774.698 600.784, 774.222 599.117, 768.297 598.617, 766.517 598.555, 766.299 598.354, 765.584 598.215, 764.417 598.133, 763.728 598.122, 763.637 597.968, 762.350 597.291, 756.684 596.782, 754.857 596.608, 753.920 595.679, 751.146 595.032, 750.027 " fill="none" stroke="rgb(0, 0, 0)" stroke-linecap="butt" stroke-linejoin="round" stroke-opacity="1.0" stroke-width="3.0" />
            <path d=" M 838.883, 775.149 837.084, 774.638 836.948, 774.600 836.863, 774.576 836.696, 774.528 836.133, 774.368 835.327, 774.139 828.425, 772.178 822.324, 770.841 816.233, 769.797 814.654, 769.526 814.633, 769.522 814.391, 769.481 813.493, 769.327 813.278, 769.290 810.979, 768.896 810.599, 768.831 " fill="none" stroke="rgb(0, 0, 0)" stroke-linecap="butt" stroke-linejoin="round" stroke-opacity="1.0" stroke-width="3.0" />
            <path d=" M 909.018, 972.116 910.775, 969.757 913.409, 966.998 915.431, 964.466 921.045, 956.191 922.361, 954.251 922.877, 952.921 923.286, 951.865 923.634, 950.764 923.684, 950.606 923.700, 950.557 924.108, 949.266 924.133, 949.187 924.169, 949.073 924.246, 948.828 924.534, 947.918 " fill="none" stroke="rgb(0, 0, 0)" stroke-linecap="butt" stroke-linejoin="round" stroke-opacity="1.0" stroke-width="3.0" />
            <path d=" M 775.473, 925.626 782.434, 931.164 788.797, 935.529 795.768, 937.650 799.018, 939.135 800.485, 939.805 " fill="none" stroke="rgb(0, 0, 0)" stroke-linecap="butt" stroke-linejoin="round" stroke-opacity="1.0" stroke-width="3.0" />
            <path d=" M 883.002, 687.337 881.872, 684.114 881.296, 682.470 880.675, 680.666 880.535, 680.259 879.306, 676.690 878.422, 674.120 878.237, 673.842 875.305, 669.438 875.262, 669.372 875.080, 669.099 874.749, 668.602 874.651, 668.454 873.817, 667.201 873.571, 666.831 871.438, 663.627 869.978, 661.400 " fill="none" stroke="rgb(0, 0, 0)" stroke-linecap="butt" stroke-linejoin="round" stroke-opacity="1.0" stroke-width="3.0" />
            <path d=" M 792.920, 985.552 791.993, 986.458 789.836, 988.567 786.912, 991.427 783.592, 995.097 777.842, 1000.465 777.472, 1000.809 776.672, 1001.557 776.445, 1001.898 775.645, 1005.025 776.601, 1007.682 " fill="none" stroke="rgb(0, 0, 0)" stroke-linecap="butt" stroke-linejoin="round" stroke-opacity="1.0" stroke-width="3.0" />
            <path d=" M 813.625, 741.766 813.461, 741.665 813.346, 741.595 812.680, 741.187 810.522, 739.865 809.314, 739.125 808.976, 738.918 808.096, 738.379 807.387, 737.945 806.634, 737.484 806.600, 737.463 806.240, 736.833 806.200, 736.762 802.612, 730.480 802.381, 729.916 801.993, 728.971 799.465, 722.809 797.474, 721.358 797.338, 721.259 797.261, 721.203 797.242, 721.189 796.864, 720.914 795.812, 720.147 795.643, 720.024 " fill="none" stroke="rgb(0, 0, 0)" stroke-linecap="butt" stroke-linejoin="round" stroke-opacity="1.0" stroke-width="3.0" />
            <path d=" M 614.496, 616.369 614.603, 616.453 616.908, 618.258 619.025, 619.917 619.450, 620.427 621.814, 623.261 624.474, 627.389 625.872, 629.541 627.320, 630.178 631.565, 631.640 633.139, 632.586 636.593, 633.395 636.863, 633.459 " fill="none" stroke="rgb(0, 0, 0)" stroke-linecap="butt" stroke-linejoin="round" stroke-opacity="1.0" stroke-width="3.0" />
            <path d=" M 528.792, 608.780 529.646, 608.109 530.680, 607.296 534.875, 605.974 535.426, 605.800 536.946, 605.321 536.977, 605.311 537.250, 605.225 537.556, 604.632 538.464, 602.867 538.321, 602.481 537.373, 599.901 534.602, 598.071 533.541, 597.371 531.574, 596.071 531.554, 596.059 530.155, 595.171 530.045, 595.122 529.068, 594.686 528.798, 594.565 528.505, 594.434 524.896, 592.821 " fill="none" stroke="rgb(0, 0, 0)" stroke-linecap="butt" stroke-linejoin="round" stroke-opacity="1.0" stroke-width="3.0" />
            <path d=" M 673.971, 731.670 669.633, 728.672 667.104, 726.132 661.717, 723.932 659.110, 725.675 659.379, 731.174 660.428, 735.423 661.176, 737.061 " fill="none" stroke="rgb(0, 0, 0)" stroke-linecap="butt" stroke-linejoin="round" stroke-opacity="1.0" stroke-width="3.0" />
            <path d=" M 863.606, 651.838 860.310, 647.283 858.423, 644.675 853.147, 640.134 845.359, 633.862 845.099, 633.653 842.174, 631.298 " fill="none" stroke="rgb(0, 0, 0)" stroke-linecap="butt" stroke-linejoin="round" stroke-opacity="1.0" stroke-width="3.0" />
            <path d=" M 475.399, 411.380 475.404, 411.372 475.633, 411.047 475.702, 410.948 477.552, 408.318 477.575, 408.286 477.783, 407.940 478.047, 407.499 479.272, 405.459 479.367, 405.301 479.380, 405.279 480.014, 404.223 480.373, 403.625 480.604, 403.240 480.630, 403.204 480.691, 403.118 481.242, 402.340 484.316, 398.006 487.665, 394.720 489.890, 388.958 489.930, 388.855 492.259, 386.908 " fill="none" stroke="rgb(0, 0, 0)" stroke-linecap="butt" stroke-linejoin="round" stroke-opacity="1.0" stroke-width="3.0" />
            <path d=" M 530.914, 590.881 529.770, 588.019 527.064, 581.253 523.674, 573.701 521.580, 569.547 519.855, 565.055 518.756, 562.956 " fill="none" stroke="rgb(0, 0, 0)" stroke-linecap="butt" stroke-linejoin="round" stroke-opacity="1.0" stroke-width="3.0" />
            <path d=" M 897.810, 762.792 897.934, 760.449 898.243, 754.580 897.957, 750.505 897.687, 746.664 897.633, 745.902 897.502, 738.135 897.497, 737.850 897.495, 737.770 897.494, 737.672 897.493, 737.641 897.492, 737.594 897.471, 736.339 897.468, 736.143 897.455, 735.405 897.454, 735.347 897.444, 734.752 897.399, 732.084 " fill="none" stroke="rgb(0, 0, 0)" stroke-linecap="butt" stroke-linejoin="round" stroke-opacity="1.0" stroke-width="3.0" />
            <path d=" M 673.532, 584.912 673.181, 584.532 666.387, 577.194 659.909, 570.197 653.431, 562.579 652.596, 561.598 " fill="none" stroke="rgb(0, 0, 0)" stroke-linecap="butt" stroke-linejoin="round" stroke-opacity="1.0" stroke-width="3.0" />
            <path d=" M 668.335, 917.681 668.353, 917.660 671.328, 914.257 671.914, 913.586 674.894, 911.240 677.710, 909.400 679.065, 908.515 682.440, 906.024 687.535, 902.890 690.305, 901.172 691.658, 900.593 693.783, 899.682 " fill="none" stroke="rgb(0, 0, 0)" stroke-linecap="butt" stroke-linejoin="round" stroke-opacity="1.0" stroke-width="3.0" />
            <path d=" M 685.006, 715.450 683.876, 715.455 683.767, 718.749 683.707, 720.557 687.110, 729.982 690.278, 735.531 693.770, 738.028 697.689, 740.829 " fill="none" stroke="rgb(0, 0, 0)" stroke-linecap="butt" stroke-linejoin="round" stroke-opacity="1.0" stroke-width="3.0" />
            <path d=" M 696.394, 606.627 689.217, 599.663 682.041, 592.699 678.952, 589.702 673.181, 584.532 " fill="none" stroke="rgb(0, 0, 0)" stroke-linecap="butt" stroke-linejoin="round" stroke-opacity="1.0" stroke-width="3.0" />
            <path d=" M 504.377, 514.993 504.546, 511.525 504.564, 511.148 504.093, 501.159 504.062, 500.504 503.511, 497.322 502.276, 490.194 502.135, 488.858 501.632, 486.180 501.614, 486.083 501.169, 483.710 501.066, 483.160 " fill="none" stroke="rgb(0, 0, 0)" stroke-linecap="butt" stroke-linejoin="round" stroke-opacity="1.0" stroke-width="3.0" />
            <path d=" M 635.928, 884.329 635.495, 887.251 635.016, 890.485 634.830, 891.743 634.813, 891.862 634.587, 893.389 632.558, 898.488 631.335, 901.563 631.039, 902.303 628.867, 907.739 627.654, 911.609 626.615, 914.926 " fill="none" stroke="rgb(0, 0, 0)" stroke-linecap="butt" stroke-linejoin="round" stroke-opacity="1.0" stroke-width="3.0" />
            <path d=" M 787.496, 600.005 784.781, 603.497 779.200, 604.276 776.867, 604.475 775.231, 604.736 768.484, 612.117 767.143, 613.584 769.087, 617.011 770.370, 619.274 " fill="none" stroke="rgb(0, 0, 0)" stroke-linecap="butt" stroke-linejoin="round" stroke-opacity="1.0" stroke-width="3.0" />
            <path d=" M 919.539, 805.557 919.195, 801.480 918.779, 800.069 916.044, 790.451 915.749, 789.413 915.157, 787.286 914.057, 783.529 914.008, 783.362 912.245, 777.339 911.168, 774.033 " fill="none" stroke="rgb(0, 0, 0)" stroke-linecap="butt" stroke-linejoin="round" stroke-opacity="1.0" stroke-width="3.0" />
            <path d=" M 701.758, 733.013 701.689, 733.103 699.961, 735.360 699.878, 736.288 699.751, 737.711 700.129, 738.365 700.439, 738.904 702.053, 741.702 702.180, 741.922 702.346, 742.210 703.046, 743.425 703.079, 743.481 703.190, 743.673 703.594, 744.374 703.789, 744.713 703.844, 744.809 704.155, 745.347 709.867, 751.416 715.223, 758.034 715.223, 758.034 716.457, 759.558 " fill="none" stroke="rgb(0, 0, 0)" stroke-linecap="butt" stroke-linejoin="round" stroke-opacity="1.0" stroke-width="3.0" />
            <path d=" M 475.778, 584.474 475.965, 585.969 478.188, 592.266 479.761, 596.097 482.203, 604.629 482.919, 608.854 483.187, 609.321 486.860, 615.723 " fill="none" stroke="rgb(0, 0, 0)" stroke-linecap="butt" stroke-linejoin="round" stroke-opacity="1.0" stroke-width="3.0" />
            <path d=" M 512.494, 617.813 512.500, 619.173 512.504, 620.081 512.506, 620.620 512.507, 620.798 512.512, 621.944 512.528, 625.610 515.522, 632.257 517.913, 634.590 518.181, 634.852 521.471, 637.228 521.919, 637.379 522.613, 637.612 522.727, 637.650 522.739, 637.654 523.928, 637.910 526.626, 638.490 528.241, 638.214 528.592, 638.154 531.909, 637.588 " fill="none" stroke="rgb(0, 0, 0)" stroke-linecap="butt" stroke-linejoin="round" stroke-opacity="1.0" stroke-width="3.0" />
            <path d=" M 865.689, 829.946 865.157, 823.654 864.767, 821.884 864.918, 817.973 865.526, 813.846 865.817, 807.664 865.954, 804.442 866.000, 803.018 866.024, 802.302 866.145, 798.563 866.176, 797.601 866.180, 797.463 866.259, 795.013 " fill="none" stroke="rgb(0, 0, 0)" stroke-linecap="butt" stroke-linejoin="round" stroke-opacity="1.0" stroke-width="3.0" />
            <path d=" M 686.015, 645.553 686.024, 645.560 686.077, 645.598 689.954, 648.393 693.870, 651.324 700.128, 656.031 707.138, 661.543 713.235, 667.926 713.300, 668.005 " fill="none" stroke="rgb(0, 0, 0)" stroke-linecap="butt" stroke-linejoin="round" stroke-opacity="1.0" stroke-width="3.0" />
            <path d=" M 516.951, 682.950 520.634, 688.913 525.345, 696.937 520.199, 688.362 516.951, 682.950 514.736, 678.718 " fill="none" stroke="rgb(0, 0, 0)" stroke-linecap="butt" stroke-linejoin="round" stroke-opacity="1.0" stroke-width="3.0" />
            <path d=" M 691.407, 816.057 691.921, 816.176 694.394, 816.751 694.451, 816.764 697.282, 817.422 698.181, 818.147 698.506, 818.408 698.957, 818.772 699.008, 818.813 699.101, 818.888 699.153, 818.930 701.174, 820.558 703.351, 822.262 704.869, 823.449 704.951, 823.514 705.214, 823.720 706.718, 824.897 706.928, 825.364 707.710, 827.106 708.073, 827.914 708.303, 828.426 708.424, 828.696 708.622, 829.135 708.753, 829.429 708.908, 829.773 708.978, 829.930 709.090, 830.178 709.183, 830.386 709.243, 830.519 709.370, 830.801 709.311, 830.992 709.224, 831.279 709.138, 831.559 709.014, 831.966 708.775, 832.747 708.633, 833.211 708.174, 834.715 707.659, 834.952 705.862, 835.778 704.399, 836.450 704.169, 836.381 702.746, 835.960 698.432, 834.683 " fill="none" stroke="rgb(0, 0, 0)" stroke-linecap="butt" stroke-linejoin="round" stroke-opacity="1.0" stroke-width="3.0" />
            <path d=" M 653.167, 954.215 654.028, 951.244 655.300, 946.860 655.376, 946.602 655.454, 946.338 655.551, 946.011 656.623, 942.385 658.342, 937.601 658.437, 937.337 658.959, 935.884 659.205, 935.382 659.702, 934.364 660.908, 931.896 661.261, 931.141 661.493, 930.645 661.515, 930.599 661.782, 930.028 665.776, 921.490 666.239, 920.801 667.107, 919.510 668.353, 917.660 " fill="none" stroke="rgb(0, 0, 0)" stroke-linecap="butt" stroke-linejoin="round" stroke-opacity="1.0" stroke-width="3.0" />
            <path d=" M 502.072, 493.912 501.801, 488.327 501.698, 487.554 501.598, 486.804 501.576, 486.645 501.421, 485.481 501.155, 483.747 501.066, 483.160 500.879, 481.944 500.524, 479.626 500.741, 475.236 500.070, 470.212 500.005, 464.551 499.539, 456.800 499.512, 456.358 499.400, 454.490 499.345, 453.573 " fill="none" stroke="rgb(0, 0, 0)" stroke-linecap="butt" stroke-linejoin="round" stroke-opacity="1.0" stroke-width="3.0" />
            <path d=" M 515.966, 593.686 516.740, 593.913 516.784, 593.925 516.884, 593.955 518.418, 594.403 520.879, 595.122 521.349, 594.852 522.594, 594.139 524.772, 592.891 524.896, 592.821 525.389, 592.538 525.317, 590.998 525.282, 590.242 524.610, 586.091 524.326, 584.827 523.680, 580.933 522.560, 577.239 516.871, 570.278 515.912, 569.207 515.283, 568.505 514.263, 567.366 513.600, 566.626 512.053, 565.446 " fill="none" stroke="rgb(0, 0, 0)" stroke-linecap="butt" stroke-linejoin="round" stroke-opacity="1.0" stroke-width="3.0" />
            <path d=" M 551.550, 452.563 556.259, 453.725 556.539, 453.794 559.775, 454.592 562.091, 454.609 566.950, 454.645 568.042, 454.109 568.044, 454.109 569.964, 453.774 570.048, 453.619 571.177, 451.557 571.000, 450.840 570.779, 449.946 570.466, 448.681 564.545, 443.137 562.346, 441.314 562.295, 441.272 562.238, 441.253 561.883, 441.137 561.819, 441.116 561.555, 441.030 560.618, 440.723 557.635, 439.746 557.590, 439.731 556.945, 439.520 555.728, 439.122 " fill="none" stroke="rgb(0, 0, 0)" stroke-linecap="butt" stroke-linejoin="round" stroke-opacity="1.0" stroke-width="3.0" />
            <path d=" M 525.755, 388.389 531.081, 385.672 531.427, 385.496 531.463, 385.477 532.720, 384.836 532.756, 384.771 533.142, 384.074 533.367, 383.668 533.391, 383.625 533.497, 383.434 533.988, 382.547 534.017, 382.495 534.221, 382.127 534.591, 381.459 533.597, 372.534 531.757, 369.797 528.176, 367.827 525.906, 366.307 522.950, 365.295 520.951, 366.377 518.190, 370.249 516.870, 370.726 " fill="none" stroke="rgb(0, 0, 0)" stroke-linecap="butt" stroke-linejoin="round" stroke-opacity="1.0" stroke-width="3.0" />
            <path d=" M 457.977, 410.006 456.115, 413.941 454.958, 417.083 454.103, 422.010 453.015, 427.135 452.986, 431.392 452.963, 434.697 453.304, 440.587 453.448, 441.952 455.066, 448.554 455.385, 449.593 455.878, 451.201 " fill="none" stroke="rgb(0, 0, 0)" stroke-linecap="butt" stroke-linejoin="round" stroke-opacity="1.0" stroke-width="3.0" />
            <path d=" M 513.983, 553.411 511.106, 545.435 510.765, 544.016 510.702, 543.754 510.077, 541.153 509.950, 540.624 509.305, 539.093 508.881, 538.087 508.271, 536.640 508.163, 536.046 507.926, 534.749 507.786, 533.983 507.784, 533.970 507.524, 532.546 506.533, 522.966 505.727, 517.028 505.114, 514.132 504.546, 511.525 " fill="none" stroke="rgb(0, 0, 0)" stroke-linecap="butt" stroke-linejoin="round" stroke-opacity="1.0" stroke-width="3.0" />
            <path d=" M 636.593, 633.395 637.818, 634.734 641.676, 637.719 642.488, 638.314 645.752, 639.938 652.120, 643.752 653.536, 644.922 656.875, 647.156 662.037, 649.100 668.571, 653.561 672.262, 654.530 674.448, 653.108 " fill="none" stroke="rgb(0, 0, 0)" stroke-linecap="butt" stroke-linejoin="round" stroke-opacity="1.0" stroke-width="3.0" />
            <path d=" M 872.991, 695.797 872.828, 696.797 872.773, 697.133 872.726, 697.425 872.179, 700.784 871.808, 707.637 872.647, 717.602 872.704, 718.287 872.836, 719.721 872.844, 719.811 872.891, 720.323 873.363, 725.458 873.465, 726.575 875.363, 735.002 875.673, 736.377 875.837, 737.103 875.872, 737.258 876.385, 739.538 876.520, 740.136 " fill="none" stroke="rgb(0, 0, 0)" stroke-linecap="butt" stroke-linejoin="round" stroke-opacity="1.0" stroke-width="3.0" />
            <path d=" M 476.754, 390.733 475.566, 389.627 475.525, 389.589 475.423, 389.494 473.440, 387.646 473.150, 387.376 470.553, 387.113 468.796, 387.798 465.748, 390.753 462.066, 399.210 460.969, 402.455 459.110, 407.011 457.977, 410.006 456.892, 412.874 454.841, 421.004 " fill="none" stroke="rgb(0, 0, 0)" stroke-linecap="butt" stroke-linejoin="round" stroke-opacity="1.0" stroke-width="3.0" />
            <path d=" M 619.130, 831.527 617.804, 827.280 617.015, 824.323 614.861, 817.488 612.696, 811.874 611.197, 808.248 610.296, 804.502 609.179, 801.168 607.334, 796.449 607.238, 796.138 607.231, 796.113 606.121, 792.507 605.925, 791.871 604.801, 789.292 604.221, 787.959 603.932, 787.296 " fill="none" stroke="rgb(0, 0, 0)" stroke-linecap="butt" stroke-linejoin="round" stroke-opacity="1.0" stroke-width="3.0" />
            <path d=" M 454.676, 452.598 454.725, 454.058 455.295, 456.578 455.258, 465.296 455.754, 468.635 456.205, 476.751 455.684, 486.738 455.646, 487.455 455.203, 492.347 455.640, 495.189 456.444, 500.413 " fill="none" stroke="rgb(0, 0, 0)" stroke-linecap="butt" stroke-linejoin="round" stroke-opacity="1.0" stroke-width="3.0" />
            <path d=" M 748.744, 1030.915 749.838, 1031.180 754.784, 1032.381 756.145, 1032.712 759.755, 1032.882 760.027, 1032.895 766.367, 1034.102 768.270, 1034.465 772.503, 1035.271 781.087, 1035.137 782.831, 1035.093 791.288, 1034.524 792.176, 1034.341 796.487, 1033.451 796.499, 1033.449 " fill="none" stroke="rgb(0, 0, 0)" stroke-linecap="butt" stroke-linejoin="round" stroke-opacity="1.0" stroke-width="3.0" />
            <path d=" M 954.370, 743.331 954.617, 742.767 955.000, 741.628 955.027, 741.547 955.354, 740.575 955.398, 740.446 955.662, 739.660 955.696, 739.559 955.737, 739.438 955.957, 738.785 958.044, 734.575 957.741, 732.092 957.797, 726.834 957.183, 723.441 957.929, 721.332 957.083, 717.355 956.797, 715.449 954.428, 710.047 953.171, 707.188 951.717, 703.429 950.241, 699.666 948.943, 697.755 " fill="none" stroke="rgb(0, 0, 0)" stroke-linecap="butt" stroke-linejoin="round" stroke-opacity="1.0" stroke-width="3.0" />
            <path d=" M 821.480, 615.510 819.039, 612.012 816.743, 608.720 815.695, 607.218 809.745, 600.858 801.370, 596.517 798.668, 595.116 795.694, 595.474 793.013, 596.138 792.830, 596.242 788.535, 598.669 787.867, 599.219 787.496, 600.005 785.486, 604.266 " fill="none" stroke="rgb(0, 0, 0)" stroke-linecap="butt" stroke-linejoin="round" stroke-opacity="1.0" stroke-width="3.0" />
            <path d=" M 813.834, 772.760 812.415, 771.037 811.676, 770.139 811.659, 770.119 811.411, 769.817 810.599, 768.831 810.362, 768.542 808.424, 765.719 808.072, 765.207 807.789, 764.795 807.443, 764.291 807.227, 763.976 806.067, 762.287 805.804, 761.903 804.177, 759.532 802.154, 756.585 802.010, 756.375 799.655, 753.224 794.634, 745.004 794.510, 744.787 794.510, 744.786 794.121, 744.105 793.889, 743.696 793.839, 743.609 791.340, 739.220 791.186, 738.950 790.730, 738.148 790.323, 737.433 790.249, 737.304 788.230, 731.342 " fill="none" stroke="rgb(0, 0, 0)" stroke-linecap="butt" stroke-linejoin="round" stroke-opacity="1.0" stroke-width="3.0" />
            <path d=" M 589.709, 488.345 594.165, 488.755 595.962, 488.921 597.244, 489.476 597.772, 489.705 602.077, 491.572 602.310, 491.673 602.329, 491.681 602.790, 491.881 602.823, 491.895 602.841, 491.904 603.034, 491.987 603.537, 492.205 604.671, 492.697 605.938, 493.246 608.964, 492.057 610.534, 491.221 610.673, 490.017 610.673, 490.015 610.675, 490.003 611.094, 486.392 608.154, 482.189 602.852, 473.711 602.000, 472.350 598.717, 468.889 597.943, 468.497 " fill="none" stroke="rgb(0, 0, 0)" stroke-linecap="butt" stroke-linejoin="round" stroke-opacity="1.0" stroke-width="3.0" />
            <path d=" M 456.442, 442.501 455.992, 446.023 457.255, 452.005 458.139, 454.061 458.699, 455.364 460.073, 458.561 460.594, 459.775 463.375, 466.246 464.394, 468.225 464.953, 469.310 465.732, 470.362 466.322, 471.159 466.660, 471.615 467.361, 472.562 470.270, 476.492 475.037, 479.777 477.298, 480.121 481.341, 478.923 " fill="none" stroke="rgb(0, 0, 0)" stroke-linecap="butt" stroke-linejoin="round" stroke-opacity="1.0" stroke-width="3.0" />
            <path d=" M 662.053, 623.651 665.008, 625.918 670.113, 626.758 671.186, 625.969 672.902, 624.706 675.747, 622.612 677.571, 620.636 678.259, 615.552 677.636, 613.229 674.542, 604.797 672.254, 602.306 671.087, 601.294 668.820, 599.441 666.622, 598.615 661.925, 597.050 " fill="none" stroke="rgb(0, 0, 0)" stroke-linecap="butt" stroke-linejoin="round" stroke-opacity="1.0" stroke-width="3.0" />
            <path d=" M 656.573, 670.078 654.009, 666.880 646.979, 663.259 642.543, 661.164 639.372, 660.709 638.421, 661.307 638.849, 665.118 643.659, 670.821 649.679, 677.397 656.191, 683.864 " fill="none" stroke="rgb(0, 0, 0)" stroke-linecap="butt" stroke-linejoin="round" stroke-opacity="1.0" stroke-width="3.0" />
            <path d=" M 839.597, 615.426 838.465, 613.956 838.243, 613.668 833.238, 605.011 828.986, 597.656 823.509, 589.289 821.184, 585.736 815.441, 579.250 810.347, 574.956 810.023, 574.682 " fill="none" stroke="rgb(0, 0, 0)" stroke-linecap="butt" stroke-linejoin="round" stroke-opacity="1.0" stroke-width="3.0" />
            <path d=" M 709.390, 896.303 715.524, 896.589 719.147, 896.758 722.805, 897.407 724.069, 897.631 727.523, 898.243 730.945, 898.850 735.013, 900.467 735.089, 900.497 735.286, 900.576 742.172, 903.313 749.072, 908.498 755.383, 912.570 756.113, 913.041 756.116, 913.043 756.504, 913.294 " fill="none" stroke="rgb(0, 0, 0)" stroke-linecap="butt" stroke-linejoin="round" stroke-opacity="1.0" stroke-width="3.0" />
            <path d=" M 643.219, 823.135 645.295, 827.504 645.742, 830.325 646.348, 834.144 645.793, 840.642 645.470, 841.518 644.239, 844.861 641.781, 848.302 641.300, 848.974 639.296, 850.717 634.568, 859.470 633.575, 862.180 633.374, 866.643 634.188, 870.880 635.204, 872.205 " fill="none" stroke="rgb(0, 0, 0)" stroke-linecap="butt" stroke-linejoin="round" stroke-opacity="1.0" stroke-width="3.0" />
            <path d=" M 495.725, 641.500 495.835, 641.945 499.339, 649.612 502.456, 654.870 502.914, 655.642 503.161, 656.058 503.213, 656.146 504.433, 658.717 505.163, 660.255 505.503, 660.972 509.053, 668.452 509.877, 669.963 509.913, 670.028 510.208, 670.570 513.294, 676.225 514.736, 678.718 519.173, 686.388 520.634, 688.913 " fill="none" stroke="rgb(0, 0, 0)" stroke-linecap="butt" stroke-linejoin="round" stroke-opacity="1.0" stroke-width="3.0" />
            <path d=" M 662.790, 744.860 662.501, 744.966 660.641, 750.330 658.863, 751.815 650.997, 749.497 642.928, 746.222 639.589, 746.478 637.806, 747.954 636.969, 751.142 639.451, 760.030 639.562, 766.694 639.574, 767.441 639.622, 770.262 " fill="none" stroke="rgb(0, 0, 0)" stroke-linecap="butt" stroke-linejoin="round" stroke-opacity="1.0" stroke-width="3.0" />
            <path d=" M 528.297, 654.422 528.648, 655.596 529.896, 658.546 533.064, 662.825 537.107, 664.940 538.608, 665.524 539.030, 665.688 539.224, 665.763 539.324, 665.802 539.482, 665.863 539.810, 665.991 540.077, 665.982 540.925, 665.953 542.487, 665.899 546.608, 665.032 549.663, 662.823 550.247, 662.400 551.602, 661.420 552.832, 660.335 553.240, 659.974 555.091, 658.341 555.872, 657.651 555.934, 657.576 557.460, 655.737 557.716, 655.428 557.828, 655.292 558.177, 654.674 558.262, 654.524 559.477, 652.369 559.953, 649.565 558.416, 645.443 555.969, 641.415 " fill="none" stroke="rgb(0, 0, 0)" stroke-linecap="butt" stroke-linejoin="round" stroke-opacity="1.0" stroke-width="3.0" />
            <path d=" M 636.011, 882.853 636.003, 882.786 635.999, 882.767 634.871, 876.793 633.650, 872.134 632.033, 865.652 629.826, 860.765 629.696, 860.476 629.670, 860.419 628.926, 858.772 628.353, 857.179 628.320, 857.088 628.315, 857.073 624.980, 847.809 624.891, 847.517 624.503, 846.247 624.151, 845.091 622.073, 838.278 620.902, 835.663 619.130, 831.527 618.323, 829.644 " fill="none" stroke="rgb(0, 0, 0)" stroke-linecap="butt" stroke-linejoin="round" stroke-opacity="1.0" stroke-width="3.0" />
            <path d=" M 893.871, 745.072 895.626, 736.833 896.236, 734.539 896.241, 734.519 896.260, 734.447 896.297, 734.309 896.405, 733.902 896.542, 733.386 897.381, 730.231 897.732, 725.893 898.081, 721.577 897.321, 717.748 895.542, 709.838 895.520, 709.736 895.495, 709.688 894.198, 707.104 894.172, 707.053 893.859, 706.429 893.727, 706.166 893.709, 706.131 893.553, 705.819 893.331, 705.377 893.104, 704.929 892.702, 704.134 892.068, 702.878 891.962, 702.668 890.859, 700.486 885.372, 692.155 " fill="none" stroke="rgb(0, 0, 0)" stroke-linecap="butt" stroke-linejoin="round" stroke-opacity="1.0" stroke-width="3.0" />
            <path d=" M 680.139, 717.100 679.446, 716.615 676.818, 714.781 671.681, 713.911 670.186, 718.619 669.715, 721.323 673.521, 730.571 673.950, 731.615 673.971, 731.670 675.361, 735.291 676.641, 738.624 677.440, 740.706 681.549, 746.349 683.812, 749.281 684.426, 750.078 684.825, 750.594 685.864, 751.941 687.436, 753.106 689.609, 754.718 " fill="none" stroke="rgb(0, 0, 0)" stroke-linecap="butt" stroke-linejoin="round" stroke-opacity="1.0" stroke-width="3.0" />
            <path d=" M 525.345, 696.937 526.204, 698.230 526.399, 698.524 530.533, 704.748 532.192, 707.510 532.211, 707.541 533.606, 709.459 533.614, 709.469 533.615, 709.470 534.110, 710.151 537.877, 715.329 538.131, 715.611 544.205, 722.376 547.301, 726.775 552.929, 734.771 556.539, 739.252 559.137, 742.476 " fill="none" stroke="rgb(0, 0, 0)" stroke-linecap="butt" stroke-linejoin="round" stroke-opacity="1.0" stroke-width="3.0" />
            <path d=" M 744.591, 632.982 741.612, 632.266 735.227, 630.097 725.954, 626.353 719.689, 623.823 711.269, 618.430 707.900, 616.272 700.339, 609.727 698.451, 608.094 696.394, 606.627 695.140, 605.733 " fill="none" stroke="rgb(0, 0, 0)" stroke-linecap="butt" stroke-linejoin="round" stroke-opacity="1.0" stroke-width="3.0" />
            <path d=" M 472.532, 419.621 472.685, 416.705 472.703, 416.372 472.703, 416.360 472.717, 416.105 472.591, 414.712 470.673, 413.050 469.409, 411.711 467.814, 410.021 466.856, 409.005 465.706, 409.131 464.023, 409.350 460.533, 412.436 459.684, 414.797 459.082, 416.468 458.618, 419.617 458.944, 423.376 459.058, 424.689 459.173, 426.023 463.317, 431.716 467.576, 433.032 468.650, 433.364 468.945, 432.975 468.995, 432.909 469.065, 432.818 470.087, 431.471 473.014, 427.615 473.915, 424.508 " fill="none" stroke="rgb(0, 0, 0)" stroke-linecap="butt" stroke-linejoin="round" stroke-opacity="1.0" stroke-width="3.0" />
            <path d=" M 939.021, 685.709 933.948, 681.713 929.205, 678.742 922.683, 674.936 913.670, 670.605 910.829, 669.239 904.352, 666.934 896.288, 665.261 888.461, 665.616 886.287, 666.224 " fill="none" stroke="rgb(0, 0, 0)" stroke-linecap="butt" stroke-linejoin="round" stroke-opacity="1.0" stroke-width="3.0" />
            <path d=" M 628.738, 856.647 633.047, 850.691 639.067, 842.706 641.606, 839.340 645.010, 834.599 645.442, 832.560 644.800, 831.622 643.835, 830.797 641.582, 828.658 637.126, 826.499 634.122, 823.666 628.992, 822.330 625.060, 820.640 622.887, 819.159 621.421, 818.160 " fill="none" stroke="rgb(0, 0, 0)" stroke-linecap="butt" stroke-linejoin="round" stroke-opacity="1.0" stroke-width="3.0" />
            <path d=" M 599.117, 768.297 599.323, 763.704 599.340, 763.310 599.456, 760.028 599.461, 759.514 599.490, 756.876 595.666, 750.309 593.750, 747.020 592.851, 744.627 590.931, 739.521 588.622, 734.041 586.540, 729.382 583.702, 722.694 582.215, 717.979 581.224, 715.160 580.757, 713.749 " fill="none" stroke="rgb(0, 0, 0)" stroke-linecap="butt" stroke-linejoin="round" stroke-opacity="1.0" stroke-width="3.0" />
            <path d=" M 914.038, 786.428 913.984, 786.198 911.928, 777.544 911.168, 774.033 909.983, 768.554 907.114, 758.975 904.694, 750.897 902.457, 742.762 900.862, 736.964 900.633, 736.154 898.758, 729.523 " fill="none" stroke="rgb(0, 0, 0)" stroke-linecap="butt" stroke-linejoin="round" stroke-opacity="1.0" stroke-width="3.0" />
            <path d=" M 629.264, 896.599 623.617, 900.006 619.068, 905.778 617.576, 911.001 615.264, 916.314 612.767, 924.418 612.275, 928.625 612.150, 932.231 613.467, 942.144 613.545, 942.737 615.789, 949.646 " fill="none" stroke="rgb(0, 0, 0)" stroke-linecap="butt" stroke-linejoin="round" stroke-opacity="1.0" stroke-width="3.0" />
            <path d=" M 886.258, 681.918 883.015, 673.506 881.483, 669.532 881.382, 669.269 881.043, 668.390 881.027, 668.347 881.024, 668.340 880.954, 668.159 880.930, 668.096 880.917, 668.064 880.914, 668.056 880.893, 668.002 880.816, 667.800 880.542, 667.273 875.929, 658.401 874.581, 655.810 869.651, 649.139 864.476, 643.057 858.979, 635.978 854.761, 632.368 " fill="none" stroke="rgb(0, 0, 0)" stroke-linecap="butt" stroke-linejoin="round" stroke-opacity="1.0" stroke-width="3.0" />
            <path d=" M 671.186, 625.969 671.899, 626.536 673.726, 627.832 680.221, 632.597 685.404, 637.307 686.309, 638.218 690.049, 641.982 693.555, 644.548 698.768, 650.093 704.166, 657.347 704.708, 658.076 707.677, 661.432 710.131, 663.481 714.150, 667.811 " fill="none" stroke="rgb(0, 0, 0)" stroke-linecap="butt" stroke-linejoin="round" stroke-opacity="1.0" stroke-width="3.0" />
            <path d=" M 556.539, 739.252 558.805, 743.063 562.913, 752.181 563.064, 752.517 565.128, 755.543 569.517, 764.528 571.472, 768.530 573.850, 774.609 577.280, 784.002 579.834, 790.996 581.412, 794.149 " fill="none" stroke="rgb(0, 0, 0)" stroke-linecap="butt" stroke-linejoin="round" stroke-opacity="1.0" stroke-width="3.0" />
            <path d=" M 518.688, 689.143 519.884, 692.421 525.157, 700.918 525.993, 702.264 528.836, 707.764 533.029, 712.891 535.021, 715.328 536.042, 717.339 536.050, 717.356 539.178, 723.520 539.620, 724.577 543.473, 733.804 544.064, 735.219 546.205, 741.906 546.426, 742.595 " fill="none" stroke="rgb(0, 0, 0)" stroke-linecap="butt" stroke-linejoin="round" stroke-opacity="1.0" stroke-width="3.0" />
            <path d=" M 572.070, 711.270 573.912, 712.325 573.948, 712.337 574.108, 712.391 575.382, 712.821 576.660, 713.253 580.757, 713.749 580.777, 713.751 583.929, 713.625 585.409, 712.668 587.422, 710.259 588.834, 706.411 589.322, 702.854 590.551, 701.924 593.278, 698.846 593.584, 696.812 588.619, 692.251 587.256, 688.151 585.171, 686.609 584.358, 686.240 579.195, 685.853 574.652, 686.365 573.265, 686.521 570.927, 686.784 " fill="none" stroke="rgb(0, 0, 0)" stroke-linecap="butt" stroke-linejoin="round" stroke-opacity="1.0" stroke-width="3.0" />
            <path d=" M 567.218, 817.060 568.308, 818.298 568.402, 818.405 568.405, 818.408 568.563, 818.587 568.625, 818.657 568.810, 818.867 568.950, 819.026 569.048, 819.138 571.773, 822.231 572.566, 824.055 572.591, 824.111 572.640, 824.224 573.966, 827.273 575.825, 837.099 576.782, 842.162 577.479, 850.658 576.948, 858.232 577.077, 863.639 576.744, 870.884 576.810, 876.089 " fill="none" stroke="rgb(0, 0, 0)" stroke-linecap="butt" stroke-linejoin="round" stroke-opacity="1.0" stroke-width="3.0" />
            <path d=" M 627.654, 911.609 626.974, 912.954 625.718, 919.806 625.658, 929.148 625.639, 932.164 625.560, 935.189 625.416, 940.734 626.812, 948.018 628.190, 953.837 628.763, 955.712 629.501, 958.125 629.896, 959.415 631.072, 964.571 631.283, 965.495 632.227, 969.632 632.353, 970.521 632.645, 972.565 " fill="none" stroke="rgb(0, 0, 0)" stroke-linecap="butt" stroke-linejoin="round" stroke-opacity="1.0" stroke-width="3.0" />
            <path d=" M 552.766, 763.925 552.913, 764.746 554.469, 771.043 555.664, 775.267 556.574, 778.867 556.877, 784.702 557.690, 790.791 557.240, 794.891 557.055, 797.583 557.540, 802.019 557.677, 805.067 558.524, 807.404 559.911, 810.642 560.896, 814.130 563.102, 818.096 564.787, 819.639 566.011, 819.964 566.501, 820.057 567.183, 820.186 567.886, 819.163 567.996, 819.003 " fill="none" stroke="rgb(0, 0, 0)" stroke-linecap="butt" stroke-linejoin="round" stroke-opacity="1.0" stroke-width="3.0" />
            <path d=" M 788.868, 737.095 788.674, 735.346 788.230, 731.342 788.187, 730.950 788.069, 729.884 788.068, 729.876 787.872, 728.105 788.088, 726.744 788.089, 726.738 788.091, 726.726 788.106, 726.635 788.155, 726.322 788.181, 726.163 788.246, 725.751 788.755, 722.558 788.821, 722.141 788.831, 722.080 788.925, 721.490 788.938, 721.410 788.980, 721.146 789.135, 720.171 789.261, 719.376 789.311, 719.229 789.385, 719.010 789.481, 718.726 790.507, 715.683 790.694, 715.129 790.923, 714.449 790.944, 714.387 791.124, 713.854 791.212, 713.591 792.445, 709.936 793.229, 707.611 793.425, 706.736 793.442, 706.660 793.832, 704.916 794.423, 702.274 794.705, 701.012 794.825, 700.477 794.849, 700.371 795.024, 699.587 795.430, 697.771 795.446, 697.699 795.771, 696.246 795.827, 695.996 795.862, 695.840 796.495, 693.013 797.348, 691.231 797.494, 690.927 798.732, 688.345 798.891, 688.012 798.959, 687.870 798.971, 687.846 800.008, 685.682 800.433, 684.795 800.776, 684.079 801.464, 682.643 801.485, 682.600 801.537, 682.491 801.567, 682.428 801.855, 681.828 801.981, 681.565 802.247, 681.010 802.257, 680.989 802.342, 680.812 802.349, 680.797 802.356, 680.782 802.436, 680.615 802.683, 680.100 802.813, 679.829 803.781, 677.808 804.696, 675.900 804.818, 675.644 " fill="none" stroke="rgb(0, 0, 0)" stroke-linecap="butt" stroke-linejoin="round" stroke-opacity="1.0" stroke-width="3.0" />
            <path d=" M 604.134, 979.532 605.077, 983.021 605.873, 984.694 607.246, 987.582 607.395, 988.527 607.900, 991.730 608.443, 993.785 612.234, 1002.243 616.199, 1007.607 619.320, 1010.887 622.174, 1013.615 625.719, 1016.523 628.461, 1018.580 632.663, 1020.330 635.935, 1021.556 638.300, 1022.060 641.547, 1022.136 644.777, 1022.130 645.603, 1021.624 " fill="none" stroke="rgb(0, 0, 0)" stroke-linecap="butt" stroke-linejoin="round" stroke-opacity="1.0" stroke-width="3.0" />
            <path d=" M 621.980, 564.491 623.806, 566.629 623.933, 566.777 624.935, 567.951 625.785, 568.916 625.824, 568.960 625.824, 568.961 626.219, 569.409 627.880, 571.295 628.529, 572.033 629.441, 573.068 629.454, 573.084 629.511, 573.148 630.237, 573.581 631.778, 574.498 635.946, 576.979 638.685, 577.207 642.571, 575.120 646.001, 571.816 646.524, 571.313 646.590, 571.250 647.024, 570.832 650.201, 567.641 651.247, 566.002 651.559, 564.983 652.596, 561.598 653.099, 559.956 651.902, 556.602 648.418, 551.685 646.528, 549.105 646.170, 544.690 646.555, 549.644 " fill="none" stroke="rgb(0, 0, 0)" stroke-linecap="butt" stroke-linejoin="round" stroke-opacity="1.0" stroke-width="3.0" />
            <path d=" M 538.608, 665.524 539.199, 668.274 539.481, 671.656 542.760, 678.263 543.268, 678.888 543.823, 679.570 544.013, 679.803 549.188, 686.162 551.158, 687.940 553.435, 689.994 557.328, 691.748 560.339, 691.635 563.346, 691.384 565.436, 690.208 566.831, 689.423 568.216, 688.644 570.377, 686.911 570.453, 686.850 570.471, 686.836 570.499, 686.813 570.607, 686.726 572.301, 685.368 572.465, 685.237 572.871, 684.589 574.829, 681.469 574.869, 680.421 574.997, 676.552 574.364, 674.937 572.424, 670.524 571.578, 669.136 " fill="none" stroke="rgb(0, 0, 0)" stroke-linecap="butt" stroke-linejoin="round" stroke-opacity="1.0" stroke-width="3.0" />
            <path d=" M 655.258, 682.496 656.191, 683.864 660.014, 689.466 666.814, 696.798 668.117, 698.202 672.535, 703.133 679.654, 710.156 685.001, 715.433 685.019, 715.450 685.155, 715.584 685.157, 715.586 685.220, 715.648 685.594, 716.017 692.907, 722.838 693.258, 723.166 694.587, 724.616 699.244, 729.696 701.803, 732.488 701.758, 733.013 701.744, 733.180 701.637, 734.451 " fill="none" stroke="rgb(0, 0, 0)" stroke-linecap="butt" stroke-linejoin="round" stroke-opacity="1.0" stroke-width="3.0" />
            <path d=" M 569.206, 469.352 570.880, 469.487 571.400, 469.529 575.729, 469.876 580.804, 470.138 582.092, 469.687 587.024, 469.982 587.375, 470.003 587.609, 470.017 588.099, 470.104 588.483, 470.172 588.739, 470.217 588.858, 470.238 596.100, 471.523 597.943, 468.497 598.029, 468.355 599.154, 465.204 598.303, 461.895 590.953, 455.115 587.392, 451.831 580.595, 448.264 570.781, 446.347 570.621, 446.315 570.090, 446.212 " fill="none" stroke="rgb(0, 0, 0)" stroke-linecap="butt" stroke-linejoin="round" stroke-opacity="1.0" stroke-width="3.0" />
            <path d=" M 618.711, 871.593 617.192, 873.973 613.328, 880.027 610.259, 884.724 606.421, 888.988 604.968, 890.647 600.206, 893.302 597.412, 893.488 594.280, 893.503 588.190, 894.030 581.030, 890.083 578.409, 888.325 577.285, 884.719 577.098, 881.415 576.810, 876.089 577.062, 881.129 577.285, 884.719 " fill="none" stroke="rgb(0, 0, 0)" stroke-linecap="butt" stroke-linejoin="round" stroke-opacity="1.0" stroke-width="3.0" />
            <path d=" M 456.273, 511.279 456.837, 517.947 457.339, 524.270 458.676, 532.287 460.279, 540.176 462.945, 548.456 464.787, 554.007 465.481, 555.216 467.810, 561.295 470.054, 567.354 470.711, 571.277 471.509, 573.212 473.176, 578.052 475.778, 584.474 476.480, 586.207 " fill="none" stroke="rgb(0, 0, 0)" stroke-linecap="butt" stroke-linejoin="round" stroke-opacity="1.0" stroke-width="3.0" />
            <path d=" M 487.949, 539.480 489.506, 548.297 490.160, 551.246 490.328, 551.920 490.341, 551.971 491.470, 556.500 492.459, 558.362 494.062, 560.323 496.507, 562.232 501.045, 564.384 506.736, 567.616 509.654, 568.569 510.779, 567.807 511.187, 567.050 512.053, 565.446 512.385, 564.831 513.075, 563.552 513.281, 563.303 513.804, 562.671 513.874, 562.587 514.044, 562.382 511.137, 554.530 509.118, 547.485 506.413, 542.757 506.079, 542.174 504.932, 540.746 504.845, 540.638 502.853, 538.159 500.780, 534.708 " fill="none" stroke="rgb(0, 0, 0)" stroke-linecap="butt" stroke-linejoin="round" stroke-opacity="1.0" stroke-width="3.0" />
            <path d=" M 845.099, 633.653 841.378, 630.248 835.907, 621.877 835.278, 620.913 833.952, 619.196 832.250, 616.473 829.734, 612.446 826.981, 604.731 822.163, 598.201 814.297, 592.026 812.438, 590.566 804.474, 586.181 801.803, 585.470 799.463, 587.977 799.198, 590.417 800.833, 594.569 801.370, 596.517 " fill="none" stroke="rgb(0, 0, 0)" stroke-linecap="butt" stroke-linejoin="round" stroke-opacity="1.0" stroke-width="3.0" />
            <path d=" M 898.426, 753.319 898.101, 750.431 898.066, 746.293 898.019, 740.696 898.013, 739.934 898.011, 739.765 898.038, 739.395 898.154, 737.804 898.161, 737.706 898.758, 729.523 898.969, 726.631 898.254, 719.704 897.174, 710.244 897.039, 709.069 897.013, 708.839 897.006, 708.775 897.006, 708.774 896.850, 707.410 896.316, 705.221 896.107, 704.362 896.062, 704.179 896.058, 704.162 896.029, 704.042 895.994, 703.899 895.979, 703.840 895.893, 703.486 895.075, 700.131 895.063, 700.080 892.206, 691.959 891.125, 688.883 886.434, 680.052 883.301, 674.151 883.015, 673.506 " fill="none" stroke="rgb(0, 0, 0)" stroke-linecap="butt" stroke-linejoin="round" stroke-opacity="1.0" stroke-width="3.0" />
            <path d=" M 771.616, 1020.406 772.062, 1021.152 773.482, 1023.529 776.639, 1025.480 778.922, 1025.877 784.290, 1026.387 787.631, 1026.519 791.891, 1026.754 796.212, 1027.069 804.402, 1025.620 809.069, 1024.578 809.734, 1024.429 811.889, 1023.216 811.911, 1023.203 811.959, 1023.177 812.252, 1023.020 812.263, 1023.015 812.578, 1022.846 812.631, 1022.817 812.733, 1022.763 813.528, 1022.336 814.653, 1021.734 814.966, 1021.566 815.743, 1021.149 816.033, 1020.994 817.556, 1019.698 817.572, 1019.684 818.299, 1019.066 820.265, 1017.393 820.356, 1017.261 820.361, 1017.255 820.607, 1016.899 820.611, 1016.892 820.619, 1016.881 823.451, 1012.779 826.698, 1007.958 829.479, 1001.402 831.655, 996.205 832.700, 989.997 " fill="none" stroke="rgb(0, 0, 0)" stroke-linecap="butt" stroke-linejoin="round" stroke-opacity="1.0" stroke-width="3.0" />
            <path d=" M 900.778, 707.179 904.210, 708.725 908.104, 711.437 913.207, 715.174 916.885, 717.492 924.701, 721.694 928.082, 724.613 930.810, 728.053 932.731, 730.506 932.823, 730.623 932.880, 730.696 933.432, 731.401 933.881, 731.974 935.979, 735.800 938.532, 741.994 940.702, 748.538 943.094, 754.235 946.874, 758.219 949.261, 757.077 951.757, 756.659 954.173, 755.162 954.905, 751.769 955.295, 750.467 " fill="none" stroke="rgb(0, 0, 0)" stroke-linecap="butt" stroke-linejoin="round" stroke-opacity="1.0" stroke-width="3.0" />
            <path d=" M 739.242, 670.103 739.100, 670.004 731.150, 664.494 730.898, 664.373 725.104, 662.438 722.002, 661.402 720.530, 661.631 718.076, 663.009 717.834, 663.462 715.709, 667.454 714.159, 667.809 714.150, 667.811 713.300, 668.005 712.373, 668.217 708.496, 667.610 707.394, 669.709 707.393, 669.710 707.242, 669.997 707.235, 670.011 706.757, 670.922 706.738, 670.958 707.019, 671.636 707.065, 671.747 708.989, 676.378 715.931, 683.576 719.896, 687.687 728.054, 693.393 728.265, 693.457 737.834, 696.362 740.128, 697.058 740.854, 697.279 " fill="none" stroke="rgb(0, 0, 0)" stroke-linecap="butt" stroke-linejoin="round" stroke-opacity="1.0" stroke-width="3.0" />
            <path d=" M 730.641, 711.729 726.720, 709.507 721.142, 706.346 712.091, 702.956 703.826, 698.238 697.986, 694.959 689.217, 690.152 685.975, 688.375 681.361, 684.325 672.761, 679.222 672.341, 678.972 667.744, 676.305 663.444, 673.927 656.573, 670.078 656.567, 670.075 " fill="none" stroke="rgb(0, 0, 0)" stroke-linecap="butt" stroke-linejoin="round" stroke-opacity="1.0" stroke-width="3.0" />
            <path d=" M 633.260, 575.642 632.031, 578.678 631.684, 579.534 631.705, 583.331 631.990, 585.276 633.265, 587.865 635.885, 591.313 638.019, 593.704 643.549, 598.785 649.093, 601.865 650.432, 601.906 651.239, 601.930 652.205, 601.959 654.202, 602.020 654.509, 602.029 654.879, 602.040 657.879, 601.337 660.549, 596.731 663.043, 593.410 663.819, 591.152 663.880, 590.973 664.277, 588.499 664.278, 584.390 661.783, 579.996 659.211, 575.450 656.195, 569.911 653.982, 566.475 651.559, 564.983 " fill="none" stroke="rgb(0, 0, 0)" stroke-linecap="butt" stroke-linejoin="round" stroke-opacity="1.0" stroke-width="3.0" />
            <path d=" M 685.137, 1002.659 686.571, 1002.631 690.088, 1002.562 692.299, 1001.459 694.350, 998.325 694.529, 998.053 694.605, 997.937 694.605, 997.936 694.671, 997.836 695.177, 997.064 694.756, 993.564 693.495, 991.879 691.697, 990.114 688.394, 988.120 688.392, 988.119 687.400, 987.520 686.403, 986.919 680.572, 982.510 676.478, 979.442 672.559, 975.040 671.359, 973.307 670.922, 972.676 670.774, 972.462 670.677, 972.322 670.070, 971.445 668.445, 969.098 668.445, 969.098 668.370, 968.990 667.684, 967.998 667.682, 967.995 667.679, 967.992 666.691, 966.565 663.441, 960.396 663.363, 960.246 663.298, 960.047 662.758, 958.383 661.985, 955.999 660.137, 948.393 659.389, 943.122 658.506, 938.823 658.342, 937.601 " fill="none" stroke="rgb(0, 0, 0)" stroke-linecap="butt" stroke-linejoin="round" stroke-opacity="1.0" stroke-width="3.0" />
            <path d=" M 774.036, 631.503 771.296, 626.614 770.508, 625.568 767.992, 621.870 764.948, 617.902 760.060, 617.681 753.321, 623.813 749.127, 628.244 746.546, 631.399 744.591, 632.982 739.499, 637.104 736.654, 639.801 735.108, 644.543 733.814, 647.636 734.879, 651.480 735.230, 652.749 735.307, 653.026 735.478, 653.643 735.578, 654.004 735.781, 654.413 736.123, 655.100 736.414, 655.685 737.180, 657.227 744.122, 664.205 748.371, 668.477 748.644, 668.751 " fill="none" stroke="rgb(0, 0, 0)" stroke-linecap="butt" stroke-linejoin="round" stroke-opacity="1.0" stroke-width="3.0" />
            <path d=" M 529.453, 467.679 532.879, 474.053 538.141, 482.557 539.603, 484.920 545.019, 493.327 546.622, 495.816 549.719, 501.433 552.398, 505.345 556.411, 512.798 561.779, 520.999 567.220, 529.389 570.299, 534.136 571.192, 535.876 573.299, 539.383 576.778, 544.107 577.263, 544.765 " fill="none" stroke="rgb(0, 0, 0)" stroke-linecap="butt" stroke-linejoin="round" stroke-opacity="1.0" stroke-width="3.0" />
            <path d=" M 587.514, 541.276 593.959, 548.922 596.496, 551.933 603.110, 559.433 609.724, 566.934 610.482, 567.794 614.501, 572.327 619.939, 578.284 626.506, 585.421 633.788, 592.275 636.464, 594.794 643.586, 601.840 649.566, 607.626 653.334, 611.864 " fill="none" stroke="rgb(0, 0, 0)" stroke-linecap="butt" stroke-linejoin="round" stroke-opacity="1.0" stroke-width="3.0" />
            <path d=" M 703.745, 1003.939 705.167, 1005.691 708.698, 1009.613 711.799, 1012.368 715.634, 1015.688 719.579, 1017.953 725.914, 1021.589 734.755, 1026.261 735.862, 1026.846 736.100, 1026.966 736.682, 1027.257 736.683, 1027.258 740.485, 1029.165 742.882, 1029.728 750.008, 1031.746 752.576, 1032.252 757.006, 1033.125 759.615, 1033.639 766.230, 1034.833 775.667, 1035.617 784.193, 1035.604 788.205, 1035.515 792.176, 1034.341 " fill="none" stroke="rgb(0, 0, 0)" stroke-linecap="butt" stroke-linejoin="round" stroke-opacity="1.0" stroke-width="3.0" />
            <path d=" M 810.347, 574.956 807.029, 570.469 803.868, 567.069 796.674, 560.124 794.181, 557.718 787.144, 550.613 781.226, 544.637 777.662, 543.113 775.028, 542.436 772.250, 544.938 770.339, 548.293 772.853, 555.153 775.297, 560.130 779.717, 569.100 784.136, 578.071 784.531, 578.872 788.842, 587.895 792.830, 596.242 " fill="none" stroke="rgb(0, 0, 0)" stroke-linecap="butt" stroke-linejoin="round" stroke-opacity="1.0" stroke-width="3.0" />
            <path d=" M 927.690, 886.297 932.809, 879.228 933.160, 878.743 933.184, 878.710 933.581, 878.161 935.812, 875.082 939.086, 870.537 939.321, 870.211 939.884, 869.429 939.886, 869.426 940.105, 869.123 940.254, 868.916 940.305, 868.845 940.368, 868.758 940.438, 868.660 940.440, 868.658 940.503, 868.570 940.556, 868.497 940.639, 868.381 940.722, 868.267 940.793, 868.168 941.035, 867.832 941.226, 867.566 941.362, 867.378 941.559, 867.345 941.616, 867.335 941.778, 867.308 941.825, 867.300 942.321, 867.216 944.128, 866.911 944.422, 866.861 950.753, 865.792 957.713, 866.074 962.276, 866.858 962.462, 866.831 962.552, 866.818 963.696, 866.651 963.961, 866.612 964.407, 866.547 968.054, 866.016 972.454, 863.739 975.600, 861.419 978.277, 858.598 980.311, 854.811 981.404, 850.876 981.029, 846.425 979.725, 842.538 978.006, 836.130 977.234, 833.588 974.796, 829.722 971.551, 827.918 971.274, 827.898 966.949, 827.697 965.322, 828.026 955.974, 831.579 953.281, 832.603 952.739, 832.809 " fill="none" stroke="rgb(0, 0, 0)" stroke-linecap="butt" stroke-linejoin="round" stroke-opacity="1.0" stroke-width="3.0" />
            <path d=" M 580.717, 792.049 581.412, 794.149 582.114, 796.272 582.660, 797.924 583.366, 800.060 586.261, 805.251 588.096, 809.502 590.942, 816.094 593.963, 822.353 598.187, 831.417 598.356, 831.778 601.204, 838.110 604.397, 844.234 607.933, 851.015 612.495, 859.914 615.393, 865.567 618.711, 871.592 618.711, 871.593 618.729, 871.626 620.200, 874.296 623.282, 880.809 627.030, 890.080 627.756, 891.875 629.633, 896.283 630.184, 897.576 630.990, 902.052 631.039, 902.303 " fill="none" stroke="rgb(0, 0, 0)" stroke-linecap="butt" stroke-linejoin="round" stroke-opacity="1.0" stroke-width="3.0" />
            <path d=" M 945.948, 835.542 944.632, 832.830 942.203, 827.821 941.511, 826.707 936.849, 820.567 934.293, 815.313 931.267, 806.118 931.062, 805.557 928.185, 800.728 923.253, 792.029 921.955, 789.740 920.595, 787.478 916.523, 780.424 913.961, 776.108 912.019, 771.570 911.823, 765.526 908.872, 755.971 908.457, 754.628 905.408, 745.104 904.274, 741.563 904.196, 741.321 902.365, 735.753 901.062, 725.838 900.955, 725.025 900.238, 719.727 899.755, 714.038 899.614, 712.370 " fill="none" stroke="rgb(0, 0, 0)" stroke-linecap="butt" stroke-linejoin="round" stroke-opacity="1.0" stroke-width="3.0" />
            <path d=" M 537.858, 420.291 538.113, 420.159 540.112, 419.123 540.390, 418.979 540.929, 418.700 542.430, 417.922 543.651, 417.694 546.596, 417.143 547.195, 416.630 554.786, 413.389 560.562, 412.106 565.706, 410.627 575.701, 410.327 576.758, 410.295 586.080, 411.525 591.008, 413.352 594.218, 413.169 598.379, 413.260 600.377, 412.125 600.430, 410.451 599.170, 406.840 594.603, 402.754 588.722, 397.673 584.514, 395.094 575.543, 390.676 573.107, 389.477 568.938, 387.431 559.517, 384.076 557.626, 383.402 547.809, 381.499 547.125, 381.366 541.685, 380.804 534.221, 382.127 " fill="none" stroke="rgb(0, 0, 0)" stroke-linecap="butt" stroke-linejoin="round" stroke-opacity="1.0" stroke-width="3.0" />
        </g>
    </g>
</svg>
