<?xml version='1.0' encoding='ascii'?>
<svg xmlns="http://www.w3.org/2000/svg" height="1280" version="1.1" width="1280">
    <g id="RenderLayer_LineSet" inkscape:groupmode="lineset" inkscape:label="RenderLayer_LineSet" xmlns:inkscape="http://www.inkscape.org/namespaces/inkscape">
        <g id="strokes" inkscape:groupmode="layer" inkscape:label="strokes" xmlns:inkscape="http://www.inkscape.org/namespaces/inkscape">
            <path d=" M 532.525, 895.742 532.472, 897.389 532.316, 902.225 534.282, 906.305 535.644, 909.297 536.156, 910.056 538.693, 912.297 540.187, 912.518 " fill="none" stroke="rgb(0, 0, 0)" stroke-linecap="butt" stroke-linejoin="round" stroke-opacity="1.0" stroke-width="3.0" />
            <path d=" M 761.236, 760.344 760.566, 760.753 753.290, 765.655 751.272, 767.902 746.746, 773.263 746.378, 773.698 " fill="none" stroke="rgb(0, 0, 0)" stroke-linecap="butt" stroke-linejoin="round" stroke-opacity="1.0" stroke-width="3.0" />
            <path d=" M 505.891, 650.701 505.901, 651.066 506.143, 659.162 506.568, 666.738 507.058, 670.948 " fill="none" stroke="rgb(0, 0, 0)" stroke-linecap="butt" stroke-linejoin="round" stroke-opacity="1.0" stroke-width="3.0" />
            <path d=" M 753.290, 765.655 746.470, 772.823 745.274, 773.674 739.466, 777.805 737.797, 778.682 " fill="none" stroke="rgb(0, 0, 0)" stroke-linecap="butt" stroke-linejoin="round" stroke-opacity="1.0" stroke-width="3.0" />
            <path d=" M 617.165, 842.714 616.958, 847.686 617.379, 855.170 617.906, 861.804 618.408, 863.097 " fill="none" stroke="rgb(0, 0, 0)" stroke-linecap="butt" stroke-linejoin="round" stroke-opacity="1.0" stroke-width="3.0" />
            <path d=" M 914.953, 1073.161 918.070, 1070.088 921.888, 1065.900 921.946, 1065.836 928.683, 1058.446 929.153, 1057.930 " fill="none" stroke="rgb(0, 0, 0)" stroke-linecap="butt" stroke-linejoin="round" stroke-opacity="1.0" stroke-width="3.0" />
            <path d=" M 661.049, 434.840 660.002, 434.847 653.688, 436.944 649.244, 440.753 646.443, 445.054 646.564, 445.408 647.158, 447.157 " fill="none" stroke="rgb(0, 0, 0)" stroke-linecap="butt" stroke-linejoin="round" stroke-opacity="1.0" stroke-width="3.0" />
            <path d=" M 868.022, 615.577 868.112, 611.629 866.268, 601.800 865.597, 598.223 864.264, 594.891 " fill="none" stroke="rgb(0, 0, 0)" stroke-linecap="butt" stroke-linejoin="round" stroke-opacity="1.0" stroke-width="3.0" />
            <path d=" M 805.257, 328.941 801.994, 322.803 800.190, 320.745 799.552, 320.016 797.536, 317.711 794.884, 315.901 791.044, 314.011 " fill="none" stroke="rgb(0, 0, 0)" stroke-linecap="butt" stroke-linejoin="round" stroke-opacity="1.0" stroke-width="3.0" />
            <path d=" M 555.426, 553.438 559.619, 559.815 563.791, 568.903 564.489, 570.425 565.319, 572.233 " fill="none" stroke="rgb(0, 0, 0)" stroke-linecap="butt" stroke-linejoin="round" stroke-opacity="1.0" stroke-width="3.0" />
            <path d=" M 675.124, 702.066 674.455, 700.302 670.548, 692.640 669.348, 690.814 666.454, 688.251 665.077, 687.254 664.031, 686.498 663.999, 686.474 662.508, 685.396 " fill="none" stroke="rgb(0, 0, 0)" stroke-linecap="butt" stroke-linejoin="round" stroke-opacity="1.0" stroke-width="3.0" />
            <path d=" M 881.434, 502.237 877.509, 493.040 873.585, 483.842 873.398, 483.404 873.001, 482.473 " fill="none" stroke="rgb(0, 0, 0)" stroke-linecap="butt" stroke-linejoin="round" stroke-opacity="1.0" stroke-width="3.0" />
            <path d=" M 511.816, 550.409 509.732, 558.473 509.149, 564.966 508.299, 569.768 508.194, 571.634 " fill="none" stroke="rgb(0, 0, 0)" stroke-linecap="butt" stroke-linejoin="round" stroke-opacity="1.0" stroke-width="3.0" />
            <path d=" M 604.105, 503.883 605.600, 502.373 606.763, 501.070 605.891, 503.644 604.893, 506.234 603.346, 509.148 598.832, 514.201 598.662, 514.451 598.636, 514.489 598.601, 514.540 598.361, 514.893 598.120, 515.247 597.620, 515.982 " fill="none" stroke="rgb(0, 0, 0)" stroke-linecap="butt" stroke-linejoin="round" stroke-opacity="1.0" stroke-width="3.0" />
            <path d=" M 540.944, 572.006 541.809, 567.283 542.786, 564.715 543.940, 559.331 544.919, 554.275 545.443, 550.834 " fill="none" stroke="rgb(0, 0, 0)" stroke-linecap="butt" stroke-linejoin="round" stroke-opacity="1.0" stroke-width="3.0" />
            <path d=" M 583.395, 953.989 583.250, 951.969 582.128, 942.903 583.323, 936.766 582.387, 932.504 " fill="none" stroke="rgb(0, 0, 0)" stroke-linecap="butt" stroke-linejoin="round" stroke-opacity="1.0" stroke-width="3.0" />
            <path d=" M 667.746, 416.135 667.658, 417.239 667.209, 422.873 666.635, 425.818 666.374, 426.245 663.531, 430.892 661.325, 434.441 661.077, 434.840 660.282, 436.119 " fill="none" stroke="rgb(0, 0, 0)" stroke-linecap="butt" stroke-linejoin="round" stroke-opacity="1.0" stroke-width="3.0" />
            <path d=" M 724.534, 749.992 724.380, 752.820 724.350, 753.059 723.633, 758.800 722.577, 760.640 723.753, 763.126 723.803, 764.869 723.838, 766.109 723.768, 771.553 " fill="none" stroke="rgb(0, 0, 0)" stroke-linecap="butt" stroke-linejoin="round" stroke-opacity="1.0" stroke-width="3.0" />
            <path d=" M 611.142, 432.029 610.283, 431.906 608.473, 431.906 611.142, 432.029 616.296, 432.268 620.163, 432.327 626.030, 433.358 627.724, 434.023 628.138, 434.259 " fill="none" stroke="rgb(0, 0, 0)" stroke-linecap="butt" stroke-linejoin="round" stroke-opacity="1.0" stroke-width="3.0" />
            <path d=" M 623.842, 518.712 616.457, 518.619 611.374, 518.509 606.420, 519.768 602.909, 520.151 602.824, 520.160 601.416, 519.360 " fill="none" stroke="rgb(0, 0, 0)" stroke-linecap="butt" stroke-linejoin="round" stroke-opacity="1.0" stroke-width="3.0" />
            <path d=" M 622.651, 772.174 622.807, 771.840 625.026, 767.100 626.258, 761.893 628.166, 757.459 629.437, 752.581 629.964, 750.557 " fill="none" stroke="rgb(0, 0, 0)" stroke-linecap="butt" stroke-linejoin="round" stroke-opacity="1.0" stroke-width="3.0" />
            <path d=" M 839.410, 373.916 837.599, 366.723 834.737, 357.141 833.209, 352.022 833.110, 351.779 " fill="none" stroke="rgb(0, 0, 0)" stroke-linecap="butt" stroke-linejoin="round" stroke-opacity="1.0" stroke-width="3.0" />
            <path d=" M 754.618, 721.921 754.265, 725.207 757.066, 727.360 761.391, 729.217 767.968, 729.909 771.799, 731.145 772.717, 731.442 " fill="none" stroke="rgb(0, 0, 0)" stroke-linecap="butt" stroke-linejoin="round" stroke-opacity="1.0" stroke-width="3.0" />
            <path d=" M 829.465, 326.745 829.524, 321.609 829.555, 318.990 828.576, 310.092 826.358, 303.391 " fill="none" stroke="rgb(0, 0, 0)" stroke-linecap="butt" stroke-linejoin="round" stroke-opacity="1.0" stroke-width="3.0" />
            <path d=" M 892.090, 1040.182 891.971, 1039.137 890.575, 1035.619 890.631, 1028.638 889.987, 1026.375 888.074, 1023.439 887.997, 1023.322 887.839, 1023.079 883.303, 1019.635 " fill="none" stroke="rgb(0, 0, 0)" stroke-linecap="butt" stroke-linejoin="round" stroke-opacity="1.0" stroke-width="3.0" />
            <path d=" M 802.866, 678.008 805.435, 669.266 807.462, 663.827 808.783, 656.049 809.014, 654.688 " fill="none" stroke="rgb(0, 0, 0)" stroke-linecap="butt" stroke-linejoin="round" stroke-opacity="1.0" stroke-width="3.0" />
            <path d=" M 517.627, 502.859 517.307, 512.113 517.185, 518.939 516.637, 525.871 516.616, 527.098 " fill="none" stroke="rgb(0, 0, 0)" stroke-linecap="butt" stroke-linejoin="round" stroke-opacity="1.0" stroke-width="3.0" />
            <path d=" M 544.924, 653.786 543.870, 654.838 543.563, 655.145 541.132, 657.569 539.189, 661.679 539.149, 667.603 540.291, 672.735 541.572, 675.486 541.589, 675.523 541.997, 676.399 " fill="none" stroke="rgb(0, 0, 0)" stroke-linecap="butt" stroke-linejoin="round" stroke-opacity="1.0" stroke-width="3.0" />
            <path d=" M 843.312, 883.044 843.230, 884.220 843.161, 885.211 843.117, 885.845 843.069, 886.540 843.365, 888.430 843.383, 888.539 843.520, 889.417 844.285, 894.291 844.419, 895.145 846.863, 901.887 846.917, 902.037 848.858, 907.392 " fill="none" stroke="rgb(0, 0, 0)" stroke-linecap="butt" stroke-linejoin="round" stroke-opacity="1.0" stroke-width="3.0" />
            <path d=" M 617.858, 820.761 617.367, 823.190 618.236, 829.701 617.807, 830.294 616.855, 833.948 617.165, 842.714 617.269, 845.640 " fill="none" stroke="rgb(0, 0, 0)" stroke-linecap="butt" stroke-linejoin="round" stroke-opacity="1.0" stroke-width="3.0" />
            <path d=" M 650.059, 322.745 652.110, 323.941 653.305, 324.637 657.331, 325.895 661.102, 328.127 664.432, 329.323 671.727, 333.825 672.550, 334.279 " fill="none" stroke="rgb(0, 0, 0)" stroke-linecap="butt" stroke-linejoin="round" stroke-opacity="1.0" stroke-width="3.0" />
            <path d=" M 867.428, 469.805 863.978, 461.533 860.194, 453.932 856.589, 446.688 " fill="none" stroke="rgb(0, 0, 0)" stroke-linecap="butt" stroke-linejoin="round" stroke-opacity="1.0" stroke-width="3.0" />
            <path d=" M 544.014, 578.214 541.396, 576.034 541.028, 576.103 540.333, 576.233 536.402, 577.277 536.140, 577.452 532.652, 579.783 530.677, 583.462 530.387, 586.233 530.361, 589.485 531.753, 591.340 " fill="none" stroke="rgb(0, 0, 0)" stroke-linecap="butt" stroke-linejoin="round" stroke-opacity="1.0" stroke-width="3.0" />
            <path d=" M 621.361, 1017.978 621.293, 1018.104 621.776, 1021.277 622.825, 1023.529 624.456, 1028.561 627.517, 1034.402 629.124, 1039.144 631.223, 1041.113 " fill="none" stroke="rgb(0, 0, 0)" stroke-linecap="butt" stroke-linejoin="round" stroke-opacity="1.0" stroke-width="3.0" />
            <path d=" M 545.063, 458.231 545.043, 453.000 545.041, 452.586 544.999, 448.848 544.996, 448.552 544.947, 444.209 543.918, 439.734 543.452, 437.707 542.985, 435.675 542.468, 434.420 542.164, 433.684 541.823, 432.856 " fill="none" stroke="rgb(0, 0, 0)" stroke-linecap="butt" stroke-linejoin="round" stroke-opacity="1.0" stroke-width="3.0" />
            <path d=" M 684.198, 462.450 682.525, 467.070 676.583, 475.114 675.636, 476.395 670.639, 480.705 668.545, 482.511 " fill="none" stroke="rgb(0, 0, 0)" stroke-linecap="butt" stroke-linejoin="round" stroke-opacity="1.0" stroke-width="3.0" />
            <path d=" M 707.619, 283.569 706.709, 286.224 705.580, 289.519 702.752, 292.382 699.578, 294.679 694.908, 297.540 691.303, 299.450 689.321, 300.500 " fill="none" stroke="rgb(0, 0, 0)" stroke-linecap="butt" stroke-linejoin="round" stroke-opacity="1.0" stroke-width="3.0" />
            <path d=" M 694.660, 624.429 696.412, 625.594 696.670, 625.765 696.904, 625.920 696.991, 625.978 699.397, 627.577 703.595, 632.735 705.722, 633.942 705.741, 633.952 708.360, 635.438 713.842, 642.600 " fill="none" stroke="rgb(0, 0, 0)" stroke-linecap="butt" stroke-linejoin="round" stroke-opacity="1.0" stroke-width="3.0" />
            <path d=" M 783.777, 661.447 783.333, 661.865 780.862, 664.191 778.667, 666.257 777.048, 667.781 772.824, 675.173 770.513, 679.656 769.330, 681.952 768.721, 683.134 768.641, 683.289 " fill="none" stroke="rgb(0, 0, 0)" stroke-linecap="butt" stroke-linejoin="round" stroke-opacity="1.0" stroke-width="3.0" />
            <path d=" M 568.783, 663.667 568.974, 662.822 569.989, 658.345 569.778, 654.216 567.135, 652.377 561.660, 652.113 558.005, 651.810 557.662, 651.782 557.550, 651.773 556.885, 651.718 556.825, 651.713 556.499, 651.686 555.606, 651.612 552.768, 651.377 " fill="none" stroke="rgb(0, 0, 0)" stroke-linecap="butt" stroke-linejoin="round" stroke-opacity="1.0" stroke-width="3.0" />
            <path d=" M 794.041, 317.152 791.044, 314.011 787.226, 310.013 785.516, 307.003 781.446, 301.717 778.355, 297.882 776.846, 296.008 " fill="none" stroke="rgb(0, 0, 0)" stroke-linecap="butt" stroke-linejoin="round" stroke-opacity="1.0" stroke-width="3.0" />
            <path d=" M 764.842, 248.120 764.036, 247.451 761.270, 245.158 761.125, 245.039 759.165, 243.414 754.985, 240.019 751.845, 236.495 749.780, 236.024 745.608, 234.930 743.266, 235.091 742.102, 235.362 " fill="none" stroke="rgb(0, 0, 0)" stroke-linecap="butt" stroke-linejoin="round" stroke-opacity="1.0" stroke-width="3.0" />
            <path d=" M 631.925, 534.937 631.763, 535.873 631.692, 536.282 631.262, 538.760 631.240, 538.888 631.177, 539.251 630.831, 541.246 630.675, 542.151 630.007, 546.003 629.837, 546.702 629.817, 546.788 628.649, 551.610 628.099, 553.878 627.994, 559.383 627.984, 559.910 627.979, 560.187 627.956, 561.408 627.942, 562.122 " fill="none" stroke="rgb(0, 0, 0)" stroke-linecap="butt" stroke-linejoin="round" stroke-opacity="1.0" stroke-width="3.0" />
            <path d=" M 564.633, 686.623 564.600, 686.502 568.769, 682.669 571.384, 678.514 572.270, 676.172 571.749, 673.044 568.573, 668.681 568.494, 668.573 568.514, 668.335 568.974, 662.822 " fill="none" stroke="rgb(0, 0, 0)" stroke-linecap="butt" stroke-linejoin="round" stroke-opacity="1.0" stroke-width="3.0" />
            <path d=" M 545.370, 576.251 546.376, 566.984 546.416, 562.456 546.434, 560.431 546.425, 553.944 546.425, 553.890 546.420, 550.550 546.420, 550.225 546.419, 549.999 546.418, 548.950 546.417, 548.608 " fill="none" stroke="rgb(0, 0, 0)" stroke-linecap="butt" stroke-linejoin="round" stroke-opacity="1.0" stroke-width="3.0" />
            <path d=" M 560.124, 637.855 560.294, 634.804 563.356, 629.331 564.357, 627.587 565.536, 624.931 565.617, 621.519 565.460, 620.310 564.066, 618.990 561.168, 617.616 560.516, 617.545 559.726, 617.460 557.308, 616.609 " fill="none" stroke="rgb(0, 0, 0)" stroke-linecap="butt" stroke-linejoin="round" stroke-opacity="1.0" stroke-width="3.0" />
            <path d=" M 607.526, 858.478 608.068, 856.367 609.023, 852.645 609.773, 851.325 611.173, 847.736 610.916, 843.835 611.260, 838.938 610.904, 836.022 611.222, 831.059 " fill="none" stroke="rgb(0, 0, 0)" stroke-linecap="butt" stroke-linejoin="round" stroke-opacity="1.0" stroke-width="3.0" />
            <path d=" M 722.519, 234.053 719.894, 234.397 715.513, 235.080 714.945, 235.169 715.508, 235.077 722.784, 233.899 727.693, 232.355 727.800, 232.321 729.816, 231.687 726.630, 231.891 724.418, 232.033 " fill="none" stroke="rgb(0, 0, 0)" stroke-linecap="butt" stroke-linejoin="round" stroke-opacity="1.0" stroke-width="3.0" />
            <path d=" M 643.291, 594.370 647.018, 590.429 649.252, 588.066 653.768, 583.207 660.368, 575.694 660.722, 575.291 662.397, 573.384 " fill="none" stroke="rgb(0, 0, 0)" stroke-linecap="butt" stroke-linejoin="round" stroke-opacity="1.0" stroke-width="3.0" />
            <path d=" M 748.814, 253.758 747.082, 249.593 746.759, 247.747 746.758, 247.740 746.296, 245.105 746.227, 244.708 745.966, 243.224 744.599, 240.258 743.087, 236.976 742.504, 235.713 742.384, 235.608 742.205, 235.451 742.175, 235.426 742.102, 235.362 740.286, 233.780 739.394, 233.499 733.659, 231.693 " fill="none" stroke="rgb(0, 0, 0)" stroke-linecap="butt" stroke-linejoin="round" stroke-opacity="1.0" stroke-width="3.0" />
            <path d=" M 661.290, 692.595 660.535, 690.646 660.235, 689.872 659.741, 689.525 657.513, 687.961 656.488, 687.241 653.690, 687.590 652.655, 688.808 652.431, 689.072 651.145, 690.668 650.717, 691.555 650.218, 692.589 650.210, 692.609 649.268, 694.924 649.014, 696.011 649.011, 696.022 648.142, 699.739 648.145, 699.846 648.327, 705.354 " fill="none" stroke="rgb(0, 0, 0)" stroke-linecap="butt" stroke-linejoin="round" stroke-opacity="1.0" stroke-width="3.0" />
            <path d=" M 537.829, 416.695 536.749, 410.874 534.164, 409.423 532.680, 410.462 531.503, 412.614 531.170, 413.478 529.129, 419.541 527.965, 424.559 527.614, 427.534 527.726, 428.855 " fill="none" stroke="rgb(0, 0, 0)" stroke-linecap="butt" stroke-linejoin="round" stroke-opacity="1.0" stroke-width="3.0" />
            <path d=" M 846.093, 407.909 845.644, 404.489 844.826, 396.432 842.628, 386.677 842.011, 383.939 840.599, 378.520 " fill="none" stroke="rgb(0, 0, 0)" stroke-linecap="butt" stroke-linejoin="round" stroke-opacity="1.0" stroke-width="3.0" />
            <path d=" M 914.329, 575.879 913.841, 574.695 913.788, 574.567 913.674, 574.291 912.838, 572.265 912.159, 570.802 907.875, 561.766 907.504, 560.984 904.817, 555.600 901.437, 548.827 " fill="none" stroke="rgb(0, 0, 0)" stroke-linecap="butt" stroke-linejoin="round" stroke-opacity="1.0" stroke-width="3.0" />
            <path d=" M 543.164, 904.990 542.630, 906.621 542.186, 907.976 540.874, 910.454 540.648, 910.880 540.343, 911.455 540.187, 912.518 539.937, 914.223 539.344, 920.574 541.078, 930.061 542.542, 933.891 " fill="none" stroke="rgb(0, 0, 0)" stroke-linecap="butt" stroke-linejoin="round" stroke-opacity="1.0" stroke-width="3.0" />
            <path d=" M 545.965, 506.349 546.107, 505.647 546.730, 502.578 546.867, 501.903 547.318, 500.023 546.563, 496.219 546.491, 495.855 546.469, 495.744 546.486, 495.626 546.582, 494.975 546.787, 493.591 546.163, 491.836 545.313, 490.773 544.296, 490.791 544.089, 490.794 543.942, 490.797 543.678, 490.802 542.045, 491.403 542.000, 491.444 541.999, 491.445 541.994, 491.450 541.978, 491.464 541.925, 491.513 541.869, 491.564 539.459, 493.757 538.129, 497.039 536.966, 500.226 " fill="none" stroke="rgb(0, 0, 0)" stroke-linecap="butt" stroke-linejoin="round" stroke-opacity="1.0" stroke-width="3.0" />
            <path d=" M 555.040, 688.718 551.008, 693.029 549.433, 698.423 549.306, 698.857 549.308, 698.884 549.354, 699.849 549.528, 703.443 550.362, 705.681 552.185, 709.530 553.912, 715.200 553.939, 715.289 553.014, 716.737 " fill="none" stroke="rgb(0, 0, 0)" stroke-linecap="butt" stroke-linejoin="round" stroke-opacity="1.0" stroke-width="3.0" />
            <path d=" M 531.482, 853.500 531.172, 856.146 531.185, 861.151 531.185, 867.225 531.378, 869.249 530.448, 872.535 530.473, 875.447 530.916, 877.843 531.754, 882.640 532.026, 883.702 532.228, 884.488 " fill="none" stroke="rgb(0, 0, 0)" stroke-linecap="butt" stroke-linejoin="round" stroke-opacity="1.0" stroke-width="3.0" />
            <path d=" M 539.236, 545.263 537.849, 544.852 532.305, 544.648 531.454, 545.273 530.779, 545.768 530.424, 546.175 528.921, 548.797 528.893, 550.796 528.860, 553.236 529.197, 560.064 529.208, 566.173 529.425, 568.052 " fill="none" stroke="rgb(0, 0, 0)" stroke-linecap="butt" stroke-linejoin="round" stroke-opacity="1.0" stroke-width="3.0" />
            <path d=" M 586.518, 756.639 586.068, 757.491 585.674, 758.386 585.512, 758.753 585.495, 758.791 585.443, 758.909 585.428, 758.944 585.191, 759.480 585.185, 759.495 585.120, 759.643 584.932, 760.068 584.857, 760.292 584.833, 760.360 583.769, 763.495 583.525, 764.214 580.943, 771.820 578.647, 777.741 576.628, 786.719 " fill="none" stroke="rgb(0, 0, 0)" stroke-linecap="butt" stroke-linejoin="round" stroke-opacity="1.0" stroke-width="3.0" />
            <path d=" M 674.245, 386.804 671.775, 390.654 671.458, 394.690 671.310, 396.577 670.300, 402.125 670.766, 406.348 667.533, 414.056 667.658, 417.239 " fill="none" stroke="rgb(0, 0, 0)" stroke-linecap="butt" stroke-linejoin="round" stroke-opacity="1.0" stroke-width="3.0" />
            <path d=" M 902.411, 1135.913 902.152, 1134.031 901.645, 1132.005 901.691, 1127.447 901.663, 1124.617 901.777, 1122.032 901.385, 1118.062 900.900, 1109.964 900.867, 1104.017 900.855, 1103.921 " fill="none" stroke="rgb(0, 0, 0)" stroke-linecap="butt" stroke-linejoin="round" stroke-opacity="1.0" stroke-width="3.0" />
            <path d=" M 671.458, 394.690 670.425, 394.760 669.105, 395.269 662.499, 398.530 659.819, 401.814 656.599, 405.884 654.756, 408.441 653.910, 413.925 655.431, 415.352 657.839, 416.183 " fill="none" stroke="rgb(0, 0, 0)" stroke-linecap="butt" stroke-linejoin="round" stroke-opacity="1.0" stroke-width="3.0" />
            <path d=" M 557.252, 406.741 556.174, 409.225 554.951, 411.202 554.875, 411.199 551.815, 411.089 548.316, 408.956 547.098, 408.957 543.276, 411.340 541.727, 412.334 539.683, 415.269 539.837, 417.783 539.623, 422.586 540.039, 424.715 " fill="none" stroke="rgb(0, 0, 0)" stroke-linecap="butt" stroke-linejoin="round" stroke-opacity="1.0" stroke-width="3.0" />
            <path d=" M 655.472, 664.586 655.974, 666.071 658.368, 670.875 659.804, 673.285 660.641, 674.586 665.069, 681.416 667.852, 682.837 668.931, 683.389 672.748, 683.350 674.654, 682.724 677.910, 680.208 " fill="none" stroke="rgb(0, 0, 0)" stroke-linecap="butt" stroke-linejoin="round" stroke-opacity="1.0" stroke-width="3.0" />
            <path d=" M 583.332, 884.380 584.373, 879.872 586.698, 872.228 588.667, 867.976 589.785, 864.019 590.551, 861.308 592.825, 854.231 592.848, 854.159 593.465, 852.240 " fill="none" stroke="rgb(0, 0, 0)" stroke-linecap="butt" stroke-linejoin="round" stroke-opacity="1.0" stroke-width="3.0" />
            <path d=" M 635.855, 638.096 636.171, 638.327 638.576, 640.213 638.638, 640.262 638.748, 640.349 639.908, 641.934 640.999, 643.425 642.050, 645.248 645.534, 651.289 645.553, 651.317 645.959, 651.885 647.006, 653.352 647.452, 653.978 648.417, 655.329 648.538, 655.499 650.237, 657.880 650.339, 658.023 650.937, 658.861 653.192, 662.173 655.472, 664.586 655.904, 665.044 " fill="none" stroke="rgb(0, 0, 0)" stroke-linecap="butt" stroke-linejoin="round" stroke-opacity="1.0" stroke-width="3.0" />
            <path d=" M 725.488, 1111.837 730.154, 1117.309 733.603, 1120.220 738.936, 1125.898 744.480, 1132.293 746.717, 1135.012 748.236, 1136.858 " fill="none" stroke="rgb(0, 0, 0)" stroke-linecap="butt" stroke-linejoin="round" stroke-opacity="1.0" stroke-width="3.0" />
            <path d=" M 904.583, 1092.588 907.299, 1087.043 909.859, 1081.817 914.659, 1073.596 914.953, 1073.161 915.571, 1072.242 916.247, 1071.239 917.601, 1069.229 917.604, 1069.224 918.070, 1068.532 918.358, 1067.938 918.530, 1067.583 919.903, 1064.747 921.223, 1062.776 " fill="none" stroke="rgb(0, 0, 0)" stroke-linecap="butt" stroke-linejoin="round" stroke-opacity="1.0" stroke-width="3.0" />
            <path d=" M 681.582, 716.022 677.632, 713.919 676.791, 714.060 672.277, 714.813 671.058, 715.375 670.519, 716.501 670.496, 716.550 670.482, 716.580 670.304, 716.951 670.296, 716.967 670.272, 717.018 669.667, 718.282 667.987, 721.138 667.638, 721.733 667.240, 722.409 667.014, 722.917 666.547, 723.963 666.436, 724.371 666.334, 724.745 666.273, 724.969 666.235, 725.107 665.923, 726.254 666.354, 728.456 666.799, 730.731 667.235, 731.423 667.339, 731.589 670.242, 736.204 " fill="none" stroke="rgb(0, 0, 0)" stroke-linecap="butt" stroke-linejoin="round" stroke-opacity="1.0" stroke-width="3.0" />
            <path d=" M 865.478, 1136.622 874.098, 1137.772 878.709, 1139.118 887.471, 1142.519 891.620, 1144.127 893.792, 1144.201 898.019, 1142.676 898.975, 1142.331 " fill="none" stroke="rgb(0, 0, 0)" stroke-linecap="butt" stroke-linejoin="round" stroke-opacity="1.0" stroke-width="3.0" />
            <path d=" M 572.387, 823.368 568.587, 831.856 567.069, 835.247 565.677, 838.229 564.362, 841.047 564.157, 841.605 563.607, 843.096 563.588, 843.148 563.521, 843.330 563.450, 843.521 562.176, 846.979 560.934, 854.316 560.853, 854.793 560.935, 853.237 " fill="none" stroke="rgb(0, 0, 0)" stroke-linecap="butt" stroke-linejoin="round" stroke-opacity="1.0" stroke-width="3.0" />
            <path d=" M 710.879, 800.334 708.797, 801.871 708.748, 801.907 706.683, 804.265 704.433, 806.834 704.422, 806.847 704.339, 806.957 704.303, 807.004 704.219, 807.116 699.338, 813.584 696.850, 817.070 693.798, 821.347 689.847, 828.476 " fill="none" stroke="rgb(0, 0, 0)" stroke-linecap="butt" stroke-linejoin="round" stroke-opacity="1.0" stroke-width="3.0" />
            <path d=" M 627.909, 674.416 628.523, 669.504 628.566, 669.198 628.757, 659.200 628.806, 656.650 629.360, 649.814 629.304, 644.806 630.547, 640.358 630.855, 639.255 " fill="none" stroke="rgb(0, 0, 0)" stroke-linecap="butt" stroke-linejoin="round" stroke-opacity="1.0" stroke-width="3.0" />
            <path d=" M 532.981, 426.253 532.725, 426.337 529.808, 427.289 527.726, 428.855 524.916, 430.967 523.697, 434.427 522.062, 442.189 521.749, 448.675 521.985, 450.561 522.799, 457.070 " fill="none" stroke="rgb(0, 0, 0)" stroke-linecap="butt" stroke-linejoin="round" stroke-opacity="1.0" stroke-width="3.0" />
            <path d=" M 715.508, 235.077 711.626, 232.895 711.266, 232.830 706.163, 231.917 704.157, 232.688 700.130, 235.213 698.092, 237.585 697.198, 241.383 697.808, 243.235 702.300, 245.725 706.645, 248.461 " fill="none" stroke="rgb(0, 0, 0)" stroke-linecap="butt" stroke-linejoin="round" stroke-opacity="1.0" stroke-width="3.0" />
            <path d=" M 791.235, 621.582 792.001, 626.721 792.268, 628.509 792.397, 629.375 792.454, 629.754 792.761, 631.813 792.748, 632.685 792.744, 632.922 792.744, 632.928 792.687, 636.686 792.677, 637.336 792.322, 639.128 791.834, 641.585 791.118, 645.188 790.242, 649.602 789.461, 651.365 787.026, 656.864 " fill="none" stroke="rgb(0, 0, 0)" stroke-linecap="butt" stroke-linejoin="round" stroke-opacity="1.0" stroke-width="3.0" />
            <path d=" M 690.852, 768.039 688.765, 772.396 687.437, 778.204 687.319, 780.463 687.220, 783.532 687.883, 786.842 691.061, 789.651 696.369, 795.704 700.273, 798.708 " fill="none" stroke="rgb(0, 0, 0)" stroke-linecap="butt" stroke-linejoin="round" stroke-opacity="1.0" stroke-width="3.0" />
            <path d=" M 521.941, 515.153 518.971, 522.453 516.986, 526.916 516.902, 527.326 515.057, 536.331 515.009, 536.498 512.655, 544.596 511.816, 550.409 511.760, 550.799 " fill="none" stroke="rgb(0, 0, 0)" stroke-linecap="butt" stroke-linejoin="round" stroke-opacity="1.0" stroke-width="3.0" />
            <path d=" M 584.141, 434.001 585.585, 430.899 586.381, 428.524 586.816, 427.134 587.060, 417.412 586.476, 414.910 586.059, 414.415 584.262, 413.542 581.483, 412.152 578.647, 412.240 575.983, 414.513 574.346, 412.127 574.045, 411.197 573.766, 411.041 571.847, 409.968 " fill="none" stroke="rgb(0, 0, 0)" stroke-linecap="butt" stroke-linejoin="round" stroke-opacity="1.0" stroke-width="3.0" />
            <path d=" M 542.119, 858.193 542.095, 862.389 542.094, 862.508 542.075, 865.844 542.347, 868.867 542.973, 874.578 542.897, 878.919 543.250, 885.256 543.646, 890.085 543.720, 896.772 " fill="none" stroke="rgb(0, 0, 0)" stroke-linecap="butt" stroke-linejoin="round" stroke-opacity="1.0" stroke-width="3.0" />
            <path d=" M 837.539, 1153.879 839.214, 1153.779 839.637, 1153.610 845.159, 1151.409 849.422, 1148.952 852.230, 1146.191 856.403, 1141.841 864.059, 1136.684 864.069, 1136.678 864.386, 1136.477 864.420, 1136.455 869.716, 1133.106 " fill="none" stroke="rgb(0, 0, 0)" stroke-linecap="butt" stroke-linejoin="round" stroke-opacity="1.0" stroke-width="3.0" />
            <path d=" M 979.162, 738.300 979.407, 737.193 979.266, 735.221 979.162, 738.300 979.074, 740.892 978.448, 746.292 978.547, 752.418 979.198, 759.915 978.933, 763.268 978.517, 768.523 977.819, 771.458 " fill="none" stroke="rgb(0, 0, 0)" stroke-linecap="butt" stroke-linejoin="round" stroke-opacity="1.0" stroke-width="3.0" />
            <path d=" M 968.447, 653.636 965.611, 650.225 962.473, 645.947 957.615, 637.150 954.202, 631.077 951.369, 624.201 946.810, 618.298 " fill="none" stroke="rgb(0, 0, 0)" stroke-linecap="butt" stroke-linejoin="round" stroke-opacity="1.0" stroke-width="3.0" />
            <path d=" M 979.266, 735.221 978.647, 730.180 978.284, 729.552 977.295, 726.906 975.531, 718.575 974.428, 714.702 973.782, 712.431 973.371, 705.921 970.850, 696.244 970.446, 694.690 " fill="none" stroke="rgb(0, 0, 0)" stroke-linecap="butt" stroke-linejoin="round" stroke-opacity="1.0" stroke-width="3.0" />
            <path d=" M 638.908, 474.524 636.724, 475.947 635.387, 477.435 632.695, 480.867 627.420, 489.363 627.200, 489.718 626.824, 491.694 626.521, 493.287 626.244, 496.180 625.684, 502.026 624.064, 509.905 624.768, 511.838 " fill="none" stroke="rgb(0, 0, 0)" stroke-linecap="butt" stroke-linejoin="round" stroke-opacity="1.0" stroke-width="3.0" />
            <path d=" M 830.414, 761.859 831.619, 764.604 832.356, 766.283 834.215, 770.519 832.226, 766.241 831.442, 764.554 831.345, 764.345 830.565, 762.666 828.043, 755.898 827.293, 753.885 823.445, 745.211 819.032, 742.518 " fill="none" stroke="rgb(0, 0, 0)" stroke-linecap="butt" stroke-linejoin="round" stroke-opacity="1.0" stroke-width="3.0" />
            <path d=" M 886.142, 1122.325 886.755, 1121.457 889.780, 1117.177 890.897, 1114.611 894.777, 1110.768 894.796, 1110.750 898.204, 1107.375 898.600, 1106.860 900.855, 1103.921 900.962, 1103.781 906.500, 1095.454 906.728, 1095.111 906.464, 1091.913 907.299, 1087.043 " fill="none" stroke="rgb(0, 0, 0)" stroke-linecap="butt" stroke-linejoin="round" stroke-opacity="1.0" stroke-width="3.0" />
            <path d=" M 564.489, 570.425 567.631, 579.919 568.427, 582.326 570.372, 592.135 571.315, 596.889 573.199, 606.710 573.903, 610.376 574.206, 611.952 " fill="none" stroke="rgb(0, 0, 0)" stroke-linecap="butt" stroke-linejoin="round" stroke-opacity="1.0" stroke-width="3.0" />
            <path d=" M 542.133, 533.885 542.720, 530.021 543.374, 527.627 543.664, 525.297 544.242, 520.661 544.106, 518.191 543.493, 512.729 542.158, 510.712 541.890, 510.307 538.745, 510.074 535.750, 511.628 535.164, 511.994 530.789, 515.692 530.596, 522.581 " fill="none" stroke="rgb(0, 0, 0)" stroke-linecap="butt" stroke-linejoin="round" stroke-opacity="1.0" stroke-width="3.0" />
            <path d=" M 827.525, 464.270 827.195, 463.223 826.050, 459.594 824.960, 455.186 824.513, 453.635 824.445, 453.399 822.842, 447.836 821.159, 439.622 819.306, 429.795 818.969, 428.008 817.597, 421.335 817.548, 421.100 " fill="none" stroke="rgb(0, 0, 0)" stroke-linecap="butt" stroke-linejoin="round" stroke-opacity="1.0" stroke-width="3.0" />
            <path d=" M 827.005, 309.188 826.358, 303.391 825.824, 298.612 825.274, 297.336 823.328, 294.411 822.130, 294.173 820.349, 294.168 819.814, 294.167 818.458, 295.347 815.878, 297.594 812.364, 300.652 809.959, 302.898 808.093, 309.042 808.794, 315.973 " fill="none" stroke="rgb(0, 0, 0)" stroke-linecap="butt" stroke-linejoin="round" stroke-opacity="1.0" stroke-width="3.0" />
            <path d=" M 745.274, 773.674 742.517, 774.444 737.016, 776.087 732.295, 777.670 727.233, 781.202 722.885, 785.524 718.314, 791.638 711.776, 798.990 710.879, 800.334 710.344, 801.136 " fill="none" stroke="rgb(0, 0, 0)" stroke-linecap="butt" stroke-linejoin="round" stroke-opacity="1.0" stroke-width="3.0" />
            <path d=" M 607.317, 828.390 607.427, 828.594 608.667, 830.886 611.222, 831.059 611.735, 831.094 615.219, 826.302 617.579, 819.978 617.994, 812.170 617.999, 812.079 618.298, 804.260 617.584, 801.409 617.105, 799.495 615.214, 792.744 " fill="none" stroke="rgb(0, 0, 0)" stroke-linecap="butt" stroke-linejoin="round" stroke-opacity="1.0" stroke-width="3.0" />
            <path d=" M 576.409, 720.027 576.554, 719.596 579.833, 715.424 581.342, 713.389 582.262, 711.103 581.900, 708.062 580.120, 705.719 581.088, 701.172 582.527, 696.067 581.593, 689.760 580.374, 688.828 576.659, 688.480 572.935, 688.714 572.007, 688.772 570.898, 691.043 570.341, 692.963 " fill="none" stroke="rgb(0, 0, 0)" stroke-linecap="butt" stroke-linejoin="round" stroke-opacity="1.0" stroke-width="3.0" />
            <path d=" M 901.727, 1084.640 901.888, 1084.389 903.182, 1082.378 903.519, 1081.854 904.973, 1079.593 905.009, 1079.537 908.195, 1074.857 908.646, 1074.119 908.650, 1074.113 910.902, 1070.430 910.934, 1070.392 912.879, 1068.114 913.772, 1067.068 915.103, 1065.508 918.057, 1058.266 918.345, 1057.560 918.350, 1057.548 918.467, 1057.211 920.459, 1051.472 923.343, 1042.517 " fill="none" stroke="rgb(0, 0, 0)" stroke-linecap="butt" stroke-linejoin="round" stroke-opacity="1.0" stroke-width="3.0" />
            <path d=" M 918.070, 1070.088 922.038, 1067.082 926.281, 1062.869 932.054, 1056.282 934.449, 1053.505 940.427, 1045.489 941.123, 1044.556 941.630, 1043.876 944.631, 1041.257 946.191, 1039.895 950.071, 1034.634 " fill="none" stroke="rgb(0, 0, 0)" stroke-linecap="butt" stroke-linejoin="round" stroke-opacity="1.0" stroke-width="3.0" />
            <path d=" M 817.597, 421.335 816.991, 416.190 815.868, 406.253 815.439, 402.459 814.084, 392.551 813.118, 385.489 811.686, 375.592 811.340, 373.198 " fill="none" stroke="rgb(0, 0, 0)" stroke-linecap="butt" stroke-linejoin="round" stroke-opacity="1.0" stroke-width="3.0" />
            <path d=" M 848.754, 913.755 850.489, 917.415 850.802, 918.074 850.625, 919.174 850.514, 919.861 850.482, 920.063 850.462, 920.187 850.444, 920.296 850.382, 920.685 850.367, 920.774 850.161, 922.057 850.430, 923.730 851.702, 931.618 850.352, 937.478 850.216, 941.583 850.093, 945.329 850.068, 947.331 849.991, 953.539 848.841, 963.067 " fill="none" stroke="rgb(0, 0, 0)" stroke-linecap="butt" stroke-linejoin="round" stroke-opacity="1.0" stroke-width="3.0" />
            <path d=" M 645.294, 843.709 640.288, 846.746 639.553, 847.191 633.377, 852.271 629.027, 855.816 628.064, 856.601 626.667, 857.619 622.443, 860.698 618.408, 863.097 617.687, 863.526 616.770, 864.247 612.969, 867.663 612.156, 868.393 604.921, 873.926 " fill="none" stroke="rgb(0, 0, 0)" stroke-linecap="butt" stroke-linejoin="round" stroke-opacity="1.0" stroke-width="3.0" />
            <path d=" M 857.137, 835.670 858.103, 833.395 858.222, 833.114 858.874, 831.579 858.925, 831.457 859.341, 830.477 859.458, 830.202 859.614, 829.835 857.779, 824.382 856.482, 821.488 855.109, 818.427 854.174, 816.788 850.577, 810.481 848.900, 804.508 843.723, 795.952 842.977, 794.720 840.606, 790.094 " fill="none" stroke="rgb(0, 0, 0)" stroke-linecap="butt" stroke-linejoin="round" stroke-opacity="1.0" stroke-width="3.0" />
            <path d=" M 944.741, 614.611 943.533, 611.594 939.848, 606.607 936.315, 603.563 930.208, 595.644 928.602, 593.561 924.500, 588.016 919.201, 581.850 917.294, 579.632 914.619, 575.686 913.674, 574.291 " fill="none" stroke="rgb(0, 0, 0)" stroke-linecap="butt" stroke-linejoin="round" stroke-opacity="1.0" stroke-width="3.0" />
            <path d=" M 692.155, 653.904 693.926, 660.473 695.691, 670.316 695.991, 671.988 696.149, 679.596 695.491, 689.574 695.402, 690.915 693.992, 700.815 693.455, 704.587 693.455, 704.590 " fill="none" stroke="rgb(0, 0, 0)" stroke-linecap="butt" stroke-linejoin="round" stroke-opacity="1.0" stroke-width="3.0" />
            <path d=" M 838.608, 372.247 836.423, 366.797 836.318, 366.534 836.258, 366.386 835.743, 365.101 835.513, 364.205 835.394, 363.741 834.699, 361.026 834.154, 358.903 833.841, 357.679 833.330, 355.052 832.310, 349.799 831.650, 346.405 830.523, 340.608 830.245, 330.612 830.213, 329.476 829.524, 321.609 " fill="none" stroke="rgb(0, 0, 0)" stroke-linecap="butt" stroke-linejoin="round" stroke-opacity="1.0" stroke-width="3.0" />
            <path d=" M 991.004, 886.772 991.065, 880.913 990.157, 878.599 989.285, 870.429 987.886, 866.324 986.682, 863.205 986.911, 857.260 986.379, 852.364 984.446, 848.594 984.651, 840.415 983.378, 837.547 982.799, 836.245 " fill="none" stroke="rgb(0, 0, 0)" stroke-linecap="butt" stroke-linejoin="round" stroke-opacity="1.0" stroke-width="3.0" />
            <path d=" M 776.698, 733.410 781.788, 739.332 784.388, 741.239 784.427, 741.268 784.437, 741.275 784.480, 741.306 784.480, 741.307 784.502, 741.322 784.715, 741.479 785.754, 742.241 787.609, 743.602 787.700, 743.668 787.719, 743.682 787.851, 743.791 788.081, 743.980 788.143, 744.032 788.177, 744.060 788.222, 744.097 789.459, 745.117 790.845, 746.260 793.207, 748.918 797.544, 752.744 800.102, 757.008 800.531, 757.722 800.546, 757.748 801.285, 758.981 801.212, 762.854 802.866, 765.845 809.902, 772.118 " fill="none" stroke="rgb(0, 0, 0)" stroke-linecap="butt" stroke-linejoin="round" stroke-opacity="1.0" stroke-width="3.0" />
            <path d=" M 557.562, 613.524 559.234, 611.803 559.522, 611.507 560.561, 609.075 560.022, 606.226 557.679, 605.406 552.746, 607.269 549.598, 608.184 548.806, 608.414 548.792, 608.418 548.321, 608.554 547.883, 608.779 547.835, 608.804 547.804, 608.820 545.792, 609.853 545.747, 609.876 545.217, 610.148 545.192, 610.161 545.119, 610.198 544.310, 610.613 542.288, 611.867 541.836, 612.147 541.746, 612.203 538.985, 613.915 535.574, 619.076 534.863, 621.815 534.530, 623.097 533.757, 626.072 533.747, 626.111 533.762, 626.213 534.331, 630.057 534.960, 634.305 535.036, 634.818 " fill="none" stroke="rgb(0, 0, 0)" stroke-linecap="butt" stroke-linejoin="round" stroke-opacity="1.0" stroke-width="3.0" />
            <path d=" M 624.229, 517.626 623.977, 518.227 623.842, 518.712 622.162, 524.774 621.661, 526.579 621.543, 527.005 621.065, 530.684 620.309, 536.504 618.823, 546.294 618.901, 549.972 619.010, 555.092 619.021, 555.278 619.060, 555.885 619.439, 561.864 619.580, 566.426 619.648, 568.626 619.699, 570.273 619.706, 570.503 619.749, 571.899 619.863, 572.671 619.926, 573.102 " fill="none" stroke="rgb(0, 0, 0)" stroke-linecap="butt" stroke-linejoin="round" stroke-opacity="1.0" stroke-width="3.0" />
            <path d=" M 701.790, 253.700 698.779, 253.943 697.212, 254.069 695.839, 254.021 690.978, 253.855 684.632, 256.994 680.460, 261.111 679.233, 262.404 678.000, 265.982 678.545, 268.976 680.188, 269.668 681.264, 269.903 686.242, 270.152 691.316, 270.481 699.485, 272.029 703.262, 272.846 " fill="none" stroke="rgb(0, 0, 0)" stroke-linecap="butt" stroke-linejoin="round" stroke-opacity="1.0" stroke-width="3.0" />
            <path d=" M 521.985, 450.561 520.783, 454.130 520.190, 463.641 519.821, 467.972 519.381, 476.973 518.688, 481.587 518.078, 487.748 517.460, 497.657 517.627, 502.859 517.794, 508.080 " fill="none" stroke="rgb(0, 0, 0)" stroke-linecap="butt" stroke-linejoin="round" stroke-opacity="1.0" stroke-width="3.0" />
            <path d=" M 778.355, 297.882 774.566, 292.833 770.213, 287.297 767.869, 284.861 765.684, 283.544 764.002, 282.914 763.522, 282.735 762.956, 282.523 762.852, 282.484 762.630, 282.400 762.454, 282.451 762.347, 282.482 762.313, 282.492 762.041, 282.571 761.238, 282.803 760.410, 283.042 759.671, 283.256 759.410, 283.331 758.489, 283.598 756.995, 282.296 754.754, 280.341 753.937, 279.629 753.783, 279.495 752.737, 278.582 752.335, 278.212 751.375, 277.330 748.575, 274.755 744.988, 271.886 743.660, 271.046 738.825, 267.476 735.157, 264.768 733.953, 263.878 " fill="none" stroke="rgb(0, 0, 0)" stroke-linecap="butt" stroke-linejoin="round" stroke-opacity="1.0" stroke-width="3.0" />
            <path d=" M 769.330, 681.952 768.376, 682.796 764.791, 685.966 758.383, 692.596 753.482, 697.269 749.010, 706.007 746.731, 711.129 745.063, 717.093 745.182, 719.227 745.559, 720.922 746.277, 722.557 748.714, 722.898 754.618, 721.921 756.082, 721.679 758.404, 721.294 " fill="none" stroke="rgb(0, 0, 0)" stroke-linecap="butt" stroke-linejoin="round" stroke-opacity="1.0" stroke-width="3.0" />
            <path d=" M 589.596, 471.980 590.235, 471.249 590.329, 471.142 590.336, 471.134 591.075, 470.289 592.998, 468.089 596.121, 464.427 602.432, 457.555 606.053, 453.901 609.633, 451.418 613.858, 448.012 619.827, 443.870 625.942, 441.025 628.852, 439.502 630.774, 437.934 631.123, 437.274 631.265, 435.595 628.138, 434.259 626.030, 433.358 " fill="none" stroke="rgb(0, 0, 0)" stroke-linecap="butt" stroke-linejoin="round" stroke-opacity="1.0" stroke-width="3.0" />
            <path d=" M 508.130, 572.037 506.664, 579.293 506.215, 586.079 505.153, 592.606 504.576, 596.749 503.982, 604.749 503.539, 614.739 503.533, 614.872 503.848, 624.867 503.880, 625.901 504.142, 628.997 504.617, 634.034 " fill="none" stroke="rgb(0, 0, 0)" stroke-linecap="butt" stroke-linejoin="round" stroke-opacity="1.0" stroke-width="3.0" />
            <path d=" M 819.417, 743.303 819.032, 742.518 814.651, 733.600 811.348, 724.161 810.983, 723.120 808.637, 713.399 807.296, 707.841 806.475, 699.679 806.324, 698.180 805.895, 693.904 805.446, 683.914 805.347, 681.705 " fill="none" stroke="rgb(0, 0, 0)" stroke-linecap="butt" stroke-linejoin="round" stroke-opacity="1.0" stroke-width="3.0" />
            <path d=" M 696.850, 817.070 692.739, 821.184 687.320, 825.673 681.086, 830.273 674.230, 835.543 664.870, 839.119 664.237, 839.361 662.910, 839.312 654.974, 839.021 645.757, 842.901 645.051, 843.199 640.288, 846.746 " fill="none" stroke="rgb(0, 0, 0)" stroke-linecap="butt" stroke-linejoin="round" stroke-opacity="1.0" stroke-width="3.0" />
            <path d=" M 904.817, 555.600 901.030, 546.344 900.279, 544.507 896.156, 535.397 892.878, 528.152 888.760, 519.039 888.009, 517.377 884.032, 508.202 881.652, 502.710 881.434, 502.237 878.126, 495.068 " fill="none" stroke="rgb(0, 0, 0)" stroke-linecap="butt" stroke-linejoin="round" stroke-opacity="1.0" stroke-width="3.0" />
            <path d=" M 983.378, 837.547 983.121, 835.709 983.250, 830.007 983.718, 828.354 982.602, 824.003 980.501, 822.965 981.074, 818.537 981.465, 813.180 980.217, 804.181 978.421, 800.398 978.910, 797.936 979.265, 791.518 978.231, 787.032 978.346, 782.129 978.242, 776.161 977.819, 771.458 977.806, 771.316 " fill="none" stroke="rgb(0, 0, 0)" stroke-linecap="butt" stroke-linejoin="round" stroke-opacity="1.0" stroke-width="3.0" />
            <path d=" M 561.698, 888.744 560.531, 888.384 556.860, 888.188 556.792, 888.184 556.788, 888.184 556.718, 888.169 556.552, 888.135 551.374, 887.053 550.132, 887.540 548.792, 888.066 547.978, 888.535 546.560, 890.411 546.070, 891.965 546.420, 899.763 549.673, 903.818 549.743, 903.905 551.155, 905.666 552.585, 909.251 554.259, 912.238 555.069, 913.625 556.320, 915.278 558.098, 917.625 559.593, 919.598 559.734, 919.785 559.734, 919.785 559.794, 919.864 562.790, 920.375 564.734, 920.707 568.754, 922.054 569.454, 922.289 570.066, 922.494 570.067, 922.494 572.265, 923.230 573.854, 923.762 576.972, 924.807 577.902, 924.927 " fill="none" stroke="rgb(0, 0, 0)" stroke-linecap="butt" stroke-linejoin="round" stroke-opacity="1.0" stroke-width="3.0" />
            <path d=" M 607.667, 965.526 606.616, 967.057 604.167, 976.171 604.054, 979.533 604.494, 989.523 604.539, 990.535 605.411, 993.413 606.902, 1000.510 608.724, 1004.740 609.689, 1007.117 614.291, 1013.228 618.386, 1017.027 620.705, 1017.537 621.361, 1017.978 621.380, 1017.990 626.901, 1021.700 626.957, 1021.738 628.357, 1023.644 629.594, 1025.326 630.691, 1027.843 " fill="none" stroke="rgb(0, 0, 0)" stroke-linecap="butt" stroke-linejoin="round" stroke-opacity="1.0" stroke-width="3.0" />
            <path d=" M 974.428, 714.702 976.786, 715.123 981.577, 711.745 982.372, 710.369 982.597, 708.644 984.642, 702.381 984.940, 698.626 985.581, 695.150 986.079, 691.693 985.117, 682.131 984.784, 678.162 982.650, 672.780 980.317, 667.773 978.728, 665.487 974.225, 660.230 971.572, 656.637 968.447, 653.636 966.968, 652.216 " fill="none" stroke="rgb(0, 0, 0)" stroke-linecap="butt" stroke-linejoin="round" stroke-opacity="1.0" stroke-width="3.0" />
            <path d=" M 854.211, 440.572 853.222, 437.224 850.390, 427.633 850.098, 426.642 848.007, 416.863 846.093, 407.909 845.520, 405.229 843.984, 398.622 843.447, 393.230 841.540, 383.413 841.155, 381.434 840.599, 378.520 839.925, 374.989 839.410, 373.916 838.608, 372.247 836.654, 367.180 836.285, 366.440 836.258, 366.386 " fill="none" stroke="rgb(0, 0, 0)" stroke-linecap="butt" stroke-linejoin="round" stroke-opacity="1.0" stroke-width="3.0" />
            <path d=" M 518.973, 780.727 519.308, 786.870 519.374, 787.551 519.968, 790.607 520.887, 795.333 521.509, 800.609 521.548, 800.853 522.047, 803.967 522.594, 807.386 523.640, 816.515 524.824, 820.737 525.128, 823.000 527.180, 832.787 527.393, 833.803 529.080, 840.128 529.266, 844.703 530.173, 848.106 531.482, 853.500 532.116, 856.116 " fill="none" stroke="rgb(0, 0, 0)" stroke-linecap="butt" stroke-linejoin="round" stroke-opacity="1.0" stroke-width="3.0" />
            <path d=" M 820.349, 294.168 819.854, 293.581 814.812, 289.711 810.849, 286.823 804.735, 281.422 796.492, 275.761 795.765, 275.262 791.410, 270.971 787.269, 265.487 782.554, 261.053 774.667, 254.905 772.194, 252.977 768.192, 249.754 762.955, 246.277 761.270, 245.158 " fill="none" stroke="rgb(0, 0, 0)" stroke-linecap="butt" stroke-linejoin="round" stroke-opacity="1.0" stroke-width="3.0" />
            <path d=" M 627.353, 658.382 627.700, 656.042 627.724, 655.882 627.823, 655.215 627.752, 652.641 627.613, 647.631 627.569, 646.066 627.598, 645.701 627.598, 645.697 628.023, 640.247 628.486, 634.309 628.938, 630.460 629.336, 625.416 629.432, 625.018 629.492, 624.767 629.510, 624.693 629.699, 623.904 629.892, 623.100 630.173, 621.932 630.407, 620.959 630.519, 620.492 630.579, 620.241 630.598, 620.165 631.176, 617.755 631.528, 616.293 631.601, 615.987 631.681, 615.653 631.760, 615.325 631.763, 615.313 631.885, 615.043 631.950, 614.899 632.663, 613.317 633.326, 611.847 633.365, 611.760 633.737, 610.934 634.087, 610.160 635.622, 606.754 635.701, 606.578 635.846, 606.257 635.914, 606.106 635.916, 606.101 635.975, 605.971 636.014, 605.898 636.707, 604.615 637.395, 603.342 637.688, 602.799 637.930, 602.351 638.123, 601.992 638.217, 601.818 640.447, 597.689 641.234, 596.770 642.069, 595.796 642.914, 594.811 643.252, 594.416 643.291, 594.370 645.947, 591.271 646.632, 590.449 649.492, 587.014 " fill="none" stroke="rgb(0, 0, 0)" stroke-linecap="butt" stroke-linejoin="round" stroke-opacity="1.0" stroke-width="3.0" />
            <path d=" M 691.303, 299.450 687.005, 300.902 685.219, 301.505 683.486, 303.247 682.066, 304.674 679.147, 307.758 675.779, 315.236 672.899, 324.654 672.007, 330.774 672.550, 334.279 672.637, 334.838 673.422, 337.963 674.789, 344.915 675.845, 350.487 675.590, 358.648 675.476, 358.985 673.929, 363.551 673.847, 363.794 672.547, 368.623 " fill="none" stroke="rgb(0, 0, 0)" stroke-linecap="butt" stroke-linejoin="round" stroke-opacity="1.0" stroke-width="3.0" />
            <path d=" M 544.561, 940.547 545.514, 943.111 547.091, 947.357 550.140, 953.265 551.986, 956.454 554.065, 961.500 557.356, 965.411 561.080, 970.008 563.086, 971.723 567.152, 973.530 567.286, 973.621 571.700, 974.712 577.893, 972.731 585.728, 968.547 587.176, 966.331 587.941, 963.497 588.402, 959.994 586.859, 957.778 584.019, 956.399 583.185, 955.994 580.915, 953.569 " fill="none" stroke="rgb(0, 0, 0)" stroke-linecap="butt" stroke-linejoin="round" stroke-opacity="1.0" stroke-width="3.0" />
            <path d=" M 592.550, 854.310 592.750, 853.858 592.800, 853.743 593.465, 852.240 597.017, 844.202 597.021, 844.192 597.301, 843.559 598.970, 835.783 601.888, 826.219 602.307, 824.847 605.409, 815.629 605.684, 814.812 605.909, 814.143 608.034, 806.093 612.633, 797.214 612.851, 796.793 615.207, 792.757 615.214, 792.744 615.398, 792.429 616.024, 791.355 616.169, 791.002 618.663, 784.922 619.028, 779.434 619.115, 778.125 " fill="none" stroke="rgb(0, 0, 0)" stroke-linecap="butt" stroke-linejoin="round" stroke-opacity="1.0" stroke-width="3.0" />
            <path d=" M 573.903, 610.376 574.468, 613.503 576.322, 620.871 578.256, 630.683 579.174, 635.341 579.925, 639.515 582.352, 649.216 583.888, 655.361 586.016, 665.132 586.058, 665.328 588.262, 675.083 588.982, 678.270 590.268, 684.253 592.615, 691.861 " fill="none" stroke="rgb(0, 0, 0)" stroke-linecap="butt" stroke-linejoin="round" stroke-opacity="1.0" stroke-width="3.0" />
            <path d=" M 687.005, 300.902 678.927, 300.488 675.376, 300.617 669.940, 299.985 660.156, 302.276 652.421, 304.994 646.834, 307.752 645.608, 308.742 638.852, 312.208 633.815, 315.893 631.625, 317.697 630.933, 318.798 630.986, 321.596 633.828, 322.722 638.073, 321.946 646.593, 323.301 649.941, 323.462 652.110, 323.941 " fill="none" stroke="rgb(0, 0, 0)" stroke-linecap="butt" stroke-linejoin="round" stroke-opacity="1.0" stroke-width="3.0" />
            <path d=" M 697.993, 674.266 696.722, 684.185 696.101, 689.033 695.808, 694.596 694.610, 700.956 693.455, 704.590 692.398, 707.913 691.897, 711.294 690.983, 714.385 689.171, 718.192 687.467, 722.363 687.464, 722.436 687.193, 729.090 686.731, 734.494 686.721, 734.608 687.269, 735.394 687.986, 736.421 688.576, 737.268 688.575, 737.477 688.565, 739.036 688.564, 739.086 688.557, 740.307 688.556, 740.401 688.537, 743.355 690.424, 750.463 691.649, 759.312 " fill="none" stroke="rgb(0, 0, 0)" stroke-linecap="butt" stroke-linejoin="round" stroke-opacity="1.0" stroke-width="3.0" />
            <path d=" M 661.325, 434.441 661.049, 434.840 657.808, 439.527 655.019, 446.126 654.707, 446.915 654.618, 447.139 654.072, 448.518 654.058, 448.551 653.786, 449.238 653.374, 451.067 653.115, 452.218 651.742, 455.365 649.843, 458.209 647.922, 461.108 645.216, 466.090 642.192, 468.428 640.119, 472.206 638.908, 474.524 635.710, 480.647 635.072, 484.833 632.210, 489.605 630.555, 494.412 628.943, 499.092 628.147, 501.348 627.953, 501.898 626.030, 507.347 624.902, 510.398 624.768, 511.838 624.229, 517.626 624.225, 517.667 " fill="none" stroke="rgb(0, 0, 0)" stroke-linecap="butt" stroke-linejoin="round" stroke-opacity="1.0" stroke-width="3.0" />
            <path d=" M 508.084, 692.927 507.914, 694.419 507.983, 697.928 507.794, 701.385 507.772, 701.790 508.003, 708.428 508.583, 717.800 509.321, 723.406 509.724, 729.396 510.456, 734.976 511.768, 741.043 511.898, 741.641 511.900, 741.748 511.947, 744.011 512.554, 748.689 512.751, 752.543 514.065, 758.122 514.842, 763.443 516.634, 772.323 518.027, 781.459 519.968, 790.607 " fill="none" stroke="rgb(0, 0, 0)" stroke-linecap="butt" stroke-linejoin="round" stroke-opacity="1.0" stroke-width="3.0" />
            <path d=" M 746.717, 1135.012 750.430, 1140.252 753.337, 1144.110 758.791, 1149.772 762.033, 1150.895 767.904, 1154.406 773.773, 1157.064 778.476, 1159.015 778.820, 1159.158 781.206, 1160.063 784.117, 1161.167 786.560, 1162.479 790.157, 1165.066 791.634, 1164.966 795.449, 1166.729 803.110, 1167.256 810.243, 1165.412 814.722, 1163.743 819.406, 1162.510 822.782, 1160.996 826.906, 1159.098 831.870, 1157.983 839.637, 1153.610 " fill="none" stroke="rgb(0, 0, 0)" stroke-linecap="butt" stroke-linejoin="round" stroke-opacity="1.0" stroke-width="3.0" />
            <path d=" M 631.596, 749.353 632.336, 748.432 635.764, 744.166 640.462, 741.092 645.451, 736.890 648.206, 734.740 653.305, 728.809 656.901, 727.760 658.749, 726.552 661.084, 723.470 661.003, 721.505 659.975, 716.505 657.838, 712.792 650.854, 707.449 649.696, 706.488 649.602, 706.410 648.541, 705.531 648.327, 705.354 646.237, 703.621 646.068, 703.480 641.843, 697.045 639.042, 692.014 636.062, 687.550 633.443, 683.696 629.214, 676.690 627.909, 674.416 627.147, 673.086 625.995, 671.078 624.832, 669.049 624.011, 667.619 621.888, 662.991 619.980, 658.151 619.204, 656.180 619.121, 655.969 " fill="none" stroke="rgb(0, 0, 0)" stroke-linecap="butt" stroke-linejoin="round" stroke-opacity="1.0" stroke-width="3.0" />
            <path d=" M 630.942, 1033.031 630.942, 1033.190 630.965, 1038.807 631.223, 1041.113 631.235, 1041.222 631.734, 1045.681 631.610, 1047.640 632.430, 1050.762 632.667, 1051.667 636.207, 1056.363 638.888, 1059.530 644.867, 1064.835 653.055, 1068.903 655.713, 1070.282 661.803, 1072.802 663.322, 1073.436 666.303, 1074.617 671.387, 1075.751 675.173, 1077.917 676.918, 1078.989 681.949, 1081.270 684.069, 1081.907 687.525, 1083.929 690.326, 1086.544 695.634, 1089.331 698.452, 1090.925 700.413, 1091.721 705.805, 1094.424 709.494, 1096.578 713.996, 1099.293 716.525, 1100.594 719.423, 1104.080 720.453, 1105.224 721.572, 1106.467 " fill="none" stroke="rgb(0, 0, 0)" stroke-linecap="butt" stroke-linejoin="round" stroke-opacity="1.0" stroke-width="3.0" />
            <path d=" M 636.686, 554.288 633.073, 557.972 631.609, 559.464 631.401, 559.677 630.320, 560.778 630.320, 560.779 630.310, 560.789 629.429, 561.687 629.160, 562.001 628.834, 562.381 628.742, 562.489 628.651, 562.594 628.504, 562.766 627.917, 563.451 626.702, 564.868 624.811, 567.074 622.281, 570.116 621.505, 571.049 621.241, 571.366 620.131, 572.831 619.926, 573.102 619.893, 573.145 617.042, 576.908 612.966, 583.554 607.764, 592.095 606.960, 593.415 605.760, 596.576 603.283, 603.557 601.203, 613.338 601.105, 613.799 600.338, 620.430 598.826, 628.575 597.661, 638.507 597.615, 638.901 595.254, 648.618 595.089, 649.295 593.206, 658.355 592.359, 663.754 590.744, 671.625 591.062, 677.954 591.809, 683.888 " fill="none" stroke="rgb(0, 0, 0)" stroke-linecap="butt" stroke-linejoin="round" stroke-opacity="1.0" stroke-width="3.0" />
            <path d=" M 560.774, 864.096 560.180, 867.636 558.574, 872.660 559.819, 881.527 561.188, 887.168 561.698, 888.744 563.291, 893.667 563.925, 895.627 566.972, 901.898 568.865, 907.816 568.973, 908.153 569.592, 910.089 569.610, 910.143 570.006, 911.382 571.905, 914.890 572.068, 915.190 572.093, 915.238 572.486, 915.962 572.487, 915.966 572.814, 916.569 572.861, 916.656 573.404, 917.658 573.427, 917.697 573.507, 917.831 574.297, 919.148 574.525, 919.529 574.963, 920.259 575.110, 920.504 576.064, 922.095 577.882, 924.867 577.924, 924.930 579.624, 927.521 580.040, 928.155 582.068, 931.245 582.131, 931.342 584.145, 934.412 585.814, 936.954 592.016, 944.798 594.819, 948.344 600.270, 954.225 602.898, 958.300 607.667, 965.526 607.852, 965.807 611.996, 972.685 614.276, 975.936 617.101, 981.578 617.164, 981.704 617.446, 982.266 617.858, 983.090 618.405, 984.182 619.505, 986.378 619.585, 986.538 619.641, 986.650 624.570, 995.351 625.648, 997.255 627.634, 1002.662 627.131, 1007.782 627.078, 1008.325 627.072, 1008.383 628.391, 1014.889 628.512, 1015.489 628.535, 1015.603 628.558, 1015.712 628.731, 1016.566 628.737, 1016.595 629.193, 1018.846 629.198, 1018.868 629.738, 1021.534 629.918, 1022.380 629.985, 1022.850 630.126, 1023.847 630.691, 1027.843 630.706, 1027.951 630.942, 1033.031 630.949, 1033.197 631.067, 1035.730 " fill="none" stroke="rgb(0, 0, 0)" stroke-linecap="butt" stroke-linejoin="round" stroke-opacity="1.0" stroke-width="3.0" />
            <path d=" M 591.599, 681.926 591.809, 683.888 592.578, 691.058 592.615, 691.861 593.074, 701.851 593.162, 703.756 593.525, 707.405 593.533, 713.669 592.379, 717.124 592.689, 720.281 591.813, 723.532 591.047, 726.378 590.888, 726.966 590.385, 728.833 590.155, 735.311 589.077, 740.804 588.586, 743.312 587.437, 749.404 586.727, 754.990 586.607, 755.941 586.600, 755.993 586.518, 756.639 586.302, 758.339 586.301, 758.345 586.278, 758.527 586.250, 758.747 586.249, 758.754 586.240, 758.828 586.235, 758.870 586.232, 758.886 586.206, 759.097 586.204, 759.107 586.144, 759.584 586.143, 759.590 586.135, 759.651 586.134, 759.660 585.908, 760.507 585.786, 760.960 585.785, 760.965 585.260, 762.929 585.253, 762.954 584.588, 765.438 584.467, 765.891 583.117, 770.935 579.081, 778.524 576.752, 786.368 576.628, 786.719 573.292, 796.147 573.060, 796.803 568.904, 804.136 566.197, 808.785 562.178, 814.262 560.032, 818.563 558.685, 823.315 559.135, 832.118 558.813, 842.113 558.578, 849.422 559.237, 854.869 559.060, 860.215 560.774, 864.096 560.929, 864.446 560.853, 854.793 " fill="none" stroke="rgb(0, 0, 0)" stroke-linecap="butt" stroke-linejoin="round" stroke-opacity="1.0" stroke-width="3.0" />
            <path d=" M 920.595, 1063.547 921.223, 1062.776 924.459, 1058.808 924.604, 1058.630 925.329, 1057.742 926.102, 1056.681 926.802, 1055.720 929.035, 1052.655 933.217, 1047.910 933.339, 1047.771 934.782, 1046.134 937.556, 1043.273 939.200, 1042.071 939.357, 1041.956 943.269, 1039.097 943.863, 1038.662 944.379, 1038.328 948.960, 1035.356 949.201, 1035.199 950.071, 1034.634 950.147, 1034.586 953.484, 1030.243 954.189, 1028.901 954.309, 1028.671 955.637, 1026.140 956.634, 1024.239 959.462, 1020.902 960.685, 1019.460 964.057, 1015.818 967.151, 1011.778 971.104, 1005.424 975.173, 999.041 978.929, 990.892 980.252, 986.364 982.646, 979.554 983.952, 977.068 988.122, 968.009 990.926, 958.410 991.694, 955.784 991.831, 955.497 991.836, 950.546 993.331, 947.165 993.581, 940.990 995.083, 931.103 995.527, 928.180 995.429, 922.500 993.807, 915.060 994.160, 905.249 993.467, 901.673 992.461, 892.712 991.004, 886.772 990.919, 886.428 " fill="none" stroke="rgb(0, 0, 0)" stroke-linecap="butt" stroke-linejoin="round" stroke-opacity="1.0" stroke-width="3.0" />
        </g>
    </g>
</svg>
