<?xml version='1.0' encoding='ascii'?>
<svg xmlns="http://www.w3.org/2000/svg" height="1280" version="1.1" width="1280">
    <g id="RenderLayer_LineSet" inkscape:groupmode="lineset" inkscape:label="RenderLayer_LineSet" xmlns:inkscape="http://www.inkscape.org/namespaces/inkscape">
        <g id="strokes" inkscape:groupmode="layer" inkscape:label="strokes" xmlns:inkscape="http://www.inkscape.org/namespaces/inkscape">
            <path d=" M 519.144, 840.113 517.173, 849.917 517.105, 850.254 516.960, 850.978 516.958, 853.015 517.550, 856.240 518.245, 859.822 " fill="none" stroke="rgb(0, 0, 0)" stroke-linecap="butt" stroke-linejoin="round" stroke-opacity="1.0" stroke-width="3.0" />
            <path d=" M 622.890, 619.693 623.425, 620.192 624.918, 621.583 624.928, 621.592 626.315, 622.885 626.331, 622.899 629.273, 625.642 630.063, 626.378 630.559, 628.824 630.589, 628.972 631.345, 632.704 631.056, 634.048 631.919, 636.359 " fill="none" stroke="rgb(0, 0, 0)" stroke-linecap="butt" stroke-linejoin="round" stroke-opacity="1.0" stroke-width="3.0" />
            <path d=" M 813.587, 881.341 816.723, 878.935 824.658, 872.849 824.868, 872.688 829.828, 870.408 830.322, 870.181 " fill="none" stroke="rgb(0, 0, 0)" stroke-linecap="butt" stroke-linejoin="round" stroke-opacity="1.0" stroke-width="3.0" />
            <path d=" M 960.327, 737.327 960.340, 737.031 960.189, 736.463 959.858, 735.209 958.476, 733.763 956.601, 731.802 956.545, 731.786 956.513, 731.777 955.505, 731.486 955.372, 731.448 955.327, 731.435 955.251, 731.413 954.474, 731.189 953.496, 730.908 951.900, 729.981 951.474, 729.734 950.309, 729.058 949.522, 729.103 949.311, 729.115 944.596, 729.386 944.338, 729.401 944.296, 729.404 943.898, 729.426 943.822, 729.401 " fill="none" stroke="rgb(0, 0, 0)" stroke-linecap="butt" stroke-linejoin="round" stroke-opacity="1.0" stroke-width="3.0" />
            <path d=" M 757.072, 415.659 747.418, 416.063 745.994, 416.122 745.222, 416.155 744.692, 416.259 741.493, 416.888 741.478, 416.891 741.454, 416.896 741.443, 416.898 740.572, 417.069 736.911, 417.789 " fill="none" stroke="rgb(0, 0, 0)" stroke-linecap="butt" stroke-linejoin="round" stroke-opacity="1.0" stroke-width="3.0" />
            <path d=" M 539.195, 749.243 534.254, 757.643 531.469, 763.024 528.614, 766.570 " fill="none" stroke="rgb(0, 0, 0)" stroke-linecap="butt" stroke-linejoin="round" stroke-opacity="1.0" stroke-width="3.0" />
            <path d=" M 929.104, 483.580 927.618, 483.051 926.445, 482.633 925.438, 482.275 923.342, 481.529 922.885, 481.366 922.542, 481.267 918.382, 480.059 915.184, 481.375 913.133, 483.335 910.214, 482.992 " fill="none" stroke="rgb(0, 0, 0)" stroke-linecap="butt" stroke-linejoin="round" stroke-opacity="1.0" stroke-width="3.0" />
            <path d=" M 598.740, 553.856 596.815, 552.599 592.749, 553.420 592.619, 553.446 590.755, 555.233 590.597, 556.617 590.570, 556.858 590.450, 557.913 590.981, 558.893 591.056, 559.031 592.957, 562.536 593.284, 563.703 593.924, 565.986 " fill="none" stroke="rgb(0, 0, 0)" stroke-linecap="butt" stroke-linejoin="round" stroke-opacity="1.0" stroke-width="3.0" />
            <path d=" M 624.484, 920.624 625.244, 924.678 625.252, 924.718 625.348, 925.230 625.591, 925.898 625.593, 925.904 625.771, 926.393 625.831, 926.557 625.850, 926.608 627.307, 930.612 628.763, 932.334 631.540, 934.810 632.892, 935.961 633.747, 937.062 634.440, 938.113 " fill="none" stroke="rgb(0, 0, 0)" stroke-linecap="butt" stroke-linejoin="round" stroke-opacity="1.0" stroke-width="3.0" />
            <path d=" M 716.350, 697.084 717.402, 697.907 721.953, 701.466 723.877, 704.146 723.932, 704.221 724.611, 705.167 725.735, 706.732 725.924, 706.995 726.045, 707.165 726.840, 708.271 727.293, 708.903 727.907, 709.757 728.035, 709.936 728.185, 710.145 728.315, 710.326 728.332, 710.349 730.122, 712.843 " fill="none" stroke="rgb(0, 0, 0)" stroke-linecap="butt" stroke-linejoin="round" stroke-opacity="1.0" stroke-width="3.0" />
            <path d=" M 551.024, 788.230 551.035, 788.205 551.149, 787.957 551.267, 787.699 551.481, 787.233 551.604, 786.966 551.760, 786.625 552.922, 784.093 553.759, 782.935 553.763, 782.929 553.983, 782.624 554.286, 782.206 554.321, 782.156 554.438, 781.994 554.668, 781.677 554.938, 781.303 554.940, 781.300 555.032, 780.914 555.187, 780.268 555.198, 780.225 555.207, 780.185 555.485, 779.023 555.527, 778.851 555.627, 778.434 555.891, 777.330 555.935, 777.236 556.284, 776.488 556.290, 776.476 556.601, 775.810 557.146, 774.642 557.710, 773.434 557.775, 773.296 558.089, 772.623 558.526, 771.688 559.297, 770.037 559.729, 769.111 559.732, 769.106 559.769, 769.026 " fill="none" stroke="rgb(0, 0, 0)" stroke-linecap="butt" stroke-linejoin="round" stroke-opacity="1.0" stroke-width="3.0" />
            <path d=" M 931.520, 693.644 931.979, 692.144 931.989, 692.113 932.004, 692.063 932.023, 692.002 932.319, 691.036 932.571, 690.215 932.281, 685.229 933.704, 679.117 931.450, 672.931 " fill="none" stroke="rgb(0, 0, 0)" stroke-linecap="butt" stroke-linejoin="round" stroke-opacity="1.0" stroke-width="3.0" />
            <path d=" M 555.485, 779.023 555.576, 778.917 555.997, 778.423 558.347, 775.667 558.413, 775.590 558.708, 775.243 558.745, 775.201 558.929, 774.984 559.038, 774.857 559.491, 774.326 559.650, 774.249 561.503, 773.347 561.922, 773.143 563.165, 772.539 563.692, 772.282 563.985, 772.211 564.465, 772.095 564.527, 772.080 564.878, 771.995 565.197, 771.918 565.711, 771.793 565.711, 771.793 565.822, 771.766 566.718, 771.550 566.778, 771.535 566.861, 771.515 566.969, 771.489 566.990, 771.484 567.306, 771.407 567.336, 771.400 567.345, 771.398 567.467, 771.368 567.543, 771.350 567.908, 771.261 567.931, 771.256 568.074, 771.078 568.096, 771.051 568.186, 770.939 568.280, 770.822 568.445, 770.617 568.469, 770.588 568.555, 770.480 568.588, 770.440 568.644, 770.370 569.622, 769.155 569.430, 768.622 568.754, 766.748 568.627, 766.398 567.780, 765.928 " fill="none" stroke="rgb(0, 0, 0)" stroke-linecap="butt" stroke-linejoin="round" stroke-opacity="1.0" stroke-width="3.0" />
            <path d=" M 592.120, 603.881 591.693, 604.919 591.511, 605.361 589.485, 610.289 588.376, 612.987 588.375, 612.990 588.350, 613.051 586.123, 618.754 585.933, 619.241 584.076, 623.997 584.022, 624.134 " fill="none" stroke="rgb(0, 0, 0)" stroke-linecap="butt" stroke-linejoin="round" stroke-opacity="1.0" stroke-width="3.0" />
            <path d=" M 525.668, 834.915 525.659, 834.932 524.861, 836.492 524.696, 836.815 524.649, 836.906 522.527, 841.052 521.302, 843.445 521.301, 843.446 521.205, 843.634 521.078, 843.881 521.013, 844.007 520.788, 844.447 520.798, 844.673 520.829, 845.434 520.830, 845.446 520.830, 845.466 520.850, 845.935 520.863, 846.265 520.896, 847.056 521.059, 850.027 521.128, 851.288 521.365, 855.638 " fill="none" stroke="rgb(0, 0, 0)" stroke-linecap="butt" stroke-linejoin="round" stroke-opacity="1.0" stroke-width="3.0" />
            <path d=" M 729.125, 418.433 728.826, 418.488 728.803, 418.492 728.252, 418.595 726.084, 418.997 725.280, 419.147 725.138, 419.173 724.290, 419.330 724.177, 419.364 724.088, 419.391 724.046, 419.404 723.201, 419.657 718.397, 421.101 715.072, 422.108 709.849, 425.173 709.740, 425.258 708.726, 426.051 " fill="none" stroke="rgb(0, 0, 0)" stroke-linecap="butt" stroke-linejoin="round" stroke-opacity="1.0" stroke-width="3.0" />
            <path d=" M 941.390, 730.684 941.193, 730.154 941.018, 729.684 940.982, 729.589 940.916, 729.412 940.704, 728.842 940.675, 728.765 940.609, 728.587 940.509, 728.318 940.279, 727.698 940.272, 727.679 940.081, 727.165 940.059, 727.109 939.965, 726.855 939.959, 726.839 939.911, 726.710 939.744, 726.261 938.523, 723.603 938.227, 722.959 937.873, 722.170 937.870, 722.163 936.890, 719.975 936.779, 719.729 936.652, 719.446 936.034, 718.066 935.982, 717.951 935.595, 716.994 935.454, 716.643 935.152, 715.896 934.772, 714.958 934.537, 714.375 934.064, 712.872 933.862, 712.228 933.695, 711.697 933.671, 711.620 933.583, 711.340 933.229, 710.215 " fill="none" stroke="rgb(0, 0, 0)" stroke-linecap="butt" stroke-linejoin="round" stroke-opacity="1.0" stroke-width="3.0" />
            <path d=" M 949.773, 685.504 952.442, 681.435 956.181, 677.145 959.662, 669.405 960.928, 666.591 " fill="none" stroke="rgb(0, 0, 0)" stroke-linecap="butt" stroke-linejoin="round" stroke-opacity="1.0" stroke-width="3.0" />
            <path d=" M 657.271, 572.875 656.917, 572.908 654.329, 573.145 653.141, 573.254 652.850, 573.280 652.762, 573.310 651.782, 573.640 644.434, 576.114 643.007, 575.946 640.695, 575.675 640.292, 575.628 639.929, 575.585 638.761, 575.449 638.005, 575.360 636.882, 575.228 636.577, 575.193 636.562, 575.191 635.607, 575.079 " fill="none" stroke="rgb(0, 0, 0)" stroke-linecap="butt" stroke-linejoin="round" stroke-opacity="1.0" stroke-width="3.0" />
            <path d=" M 658.186, 810.860 657.166, 810.141 656.784, 809.872 656.334, 809.939 654.575, 810.589 654.301, 810.691 650.293, 815.153 644.951, 820.745 644.674, 821.086 644.368, 821.588 642.615, 824.462 " fill="none" stroke="rgb(0, 0, 0)" stroke-linecap="butt" stroke-linejoin="round" stroke-opacity="1.0" stroke-width="3.0" />
            <path d=" M 828.179, 428.177 828.172, 428.148 827.400, 424.595 826.773, 424.040 824.184, 422.103 819.446, 420.409 813.793, 416.580 813.569, 416.429 811.784, 414.510 " fill="none" stroke="rgb(0, 0, 0)" stroke-linecap="butt" stroke-linejoin="round" stroke-opacity="1.0" stroke-width="3.0" />
            <path d=" M 553.403, 869.156 554.168, 867.467 554.288, 867.203 554.307, 867.161 554.884, 865.886 554.933, 865.777 555.134, 865.334 555.234, 865.113 555.366, 864.822 556.548, 862.213 556.663, 861.958 556.895, 861.446 557.043, 861.120 557.064, 860.768 557.067, 860.715 557.085, 860.423 557.209, 858.375 557.210, 858.359 557.341, 856.188 557.348, 856.064 557.397, 855.264 557.487, 854.779 558.237, 850.741 558.629, 848.630 558.791, 847.554 " fill="none" stroke="rgb(0, 0, 0)" stroke-linecap="butt" stroke-linejoin="round" stroke-opacity="1.0" stroke-width="3.0" />
            <path d=" M 875.849, 430.317 875.733, 430.202 874.943, 429.420 874.473, 429.041 869.757, 427.506 859.847, 426.162 854.007, 425.371 " fill="none" stroke="rgb(0, 0, 0)" stroke-linecap="butt" stroke-linejoin="round" stroke-opacity="1.0" stroke-width="3.0" />
            <path d=" M 806.875, 880.081 803.111, 880.006 797.824, 881.983 790.770, 887.401 787.906, 890.186 787.546, 890.536 " fill="none" stroke="rgb(0, 0, 0)" stroke-linecap="butt" stroke-linejoin="round" stroke-opacity="1.0" stroke-width="3.0" />
            <path d=" M 522.604, 828.080 522.251, 829.025 519.273, 838.572 518.436, 841.257 517.237, 847.799 517.105, 850.254 " fill="none" stroke="rgb(0, 0, 0)" stroke-linecap="butt" stroke-linejoin="round" stroke-opacity="1.0" stroke-width="3.0" />
            <path d=" M 946.366, 679.188 951.417, 671.054 952.477, 663.806 956.214, 658.435 " fill="none" stroke="rgb(0, 0, 0)" stroke-linecap="butt" stroke-linejoin="round" stroke-opacity="1.0" stroke-width="3.0" />
            <path d=" M 693.186, 567.603 687.474, 570.575 681.358, 573.585 681.276, 573.626 681.237, 573.645 680.929, 573.796 679.595, 574.453 671.852, 577.840 " fill="none" stroke="rgb(0, 0, 0)" stroke-linecap="butt" stroke-linejoin="round" stroke-opacity="1.0" stroke-width="3.0" />
            <path d=" M 786.923, 414.611 782.779, 413.861 780.780, 413.498 779.331, 413.605 778.481, 413.667 777.655, 413.864 775.030, 414.491 771.171, 414.887 771.019, 414.902 769.820, 415.025 763.505, 415.673 " fill="none" stroke="rgb(0, 0, 0)" stroke-linecap="butt" stroke-linejoin="round" stroke-opacity="1.0" stroke-width="3.0" />
            <path d=" M 962.421, 525.894 960.840, 522.578 956.115, 514.426 952.969, 505.897 952.283, 504.426 " fill="none" stroke="rgb(0, 0, 0)" stroke-linecap="butt" stroke-linejoin="round" stroke-opacity="1.0" stroke-width="3.0" />
            <path d=" M 557.484, 851.330 557.953, 849.975 558.581, 848.161 558.791, 847.554 558.929, 847.157 559.007, 846.931 559.246, 846.241 559.767, 844.737 560.151, 843.626 560.195, 843.401 560.266, 843.037 561.132, 838.596 561.132, 838.593 561.175, 838.245 561.208, 837.975 561.820, 833.031 561.478, 831.765 561.356, 831.313 560.685, 828.829 560.484, 828.086 " fill="none" stroke="rgb(0, 0, 0)" stroke-linecap="butt" stroke-linejoin="round" stroke-opacity="1.0" stroke-width="3.0" />
            <path d=" M 532.172, 751.514 530.887, 751.991 529.351, 751.967 527.589, 753.058 527.561, 753.075 527.473, 753.130 527.467, 753.134 526.487, 753.740 524.628, 759.267 524.300, 760.384 522.688, 767.037 522.705, 770.648 522.706, 770.972 " fill="none" stroke="rgb(0, 0, 0)" stroke-linecap="butt" stroke-linejoin="round" stroke-opacity="1.0" stroke-width="3.0" />
            <path d=" M 770.938, 570.033 775.381, 567.752 780.285, 566.966 786.166, 565.833 791.047, 564.893 793.890, 564.388 794.161, 564.339 " fill="none" stroke="rgb(0, 0, 0)" stroke-linecap="butt" stroke-linejoin="round" stroke-opacity="1.0" stroke-width="3.0" />
            <path d=" M 570.178, 496.128 570.582, 499.307 571.153, 502.131 573.148, 506.569 574.847, 511.273 577.018, 514.183 578.142, 515.691 580.160, 517.418 " fill="none" stroke="rgb(0, 0, 0)" stroke-linecap="butt" stroke-linejoin="round" stroke-opacity="1.0" stroke-width="3.0" />
            <path d=" M 732.410, 564.717 732.143, 564.745 732.096, 564.750 729.269, 565.045 723.058, 565.694 721.898, 565.815 712.720, 568.819 710.399, 569.578 709.902, 569.741 708.899, 570.069 " fill="none" stroke="rgb(0, 0, 0)" stroke-linecap="butt" stroke-linejoin="round" stroke-opacity="1.0" stroke-width="3.0" />
            <path d=" M 589.162, 523.608 591.785, 527.226 591.786, 527.227 593.487, 529.573 595.706, 534.426 595.737, 534.492 595.829, 534.695 596.735, 539.057 596.804, 542.795 596.261, 545.961 " fill="none" stroke="rgb(0, 0, 0)" stroke-linecap="butt" stroke-linejoin="round" stroke-opacity="1.0" stroke-width="3.0" />
            <path d=" M 866.902, 803.832 870.277, 802.021 873.864, 799.600 874.349, 799.002 875.866, 797.132 880.023, 790.738 880.104, 790.501 881.794, 785.574 881.799, 785.560 " fill="none" stroke="rgb(0, 0, 0)" stroke-linecap="butt" stroke-linejoin="round" stroke-opacity="1.0" stroke-width="3.0" />
            <path d=" M 766.107, 787.540 766.109, 787.606 766.156, 789.251 767.534, 792.959 769.113, 796.294 769.884, 797.541 778.500, 802.616 781.637, 804.464 " fill="none" stroke="rgb(0, 0, 0)" stroke-linecap="butt" stroke-linejoin="round" stroke-opacity="1.0" stroke-width="3.0" />
            <path d=" M 767.206, 930.734 770.913, 931.695 771.352, 931.809 774.763, 932.075 784.269, 930.081 790.745, 926.591 " fill="none" stroke="rgb(0, 0, 0)" stroke-linecap="butt" stroke-linejoin="round" stroke-opacity="1.0" stroke-width="3.0" />
            <path d=" M 635.306, 490.588 626.646, 495.589 625.041, 496.515 623.896, 500.345 625.111, 507.506 625.435, 509.414 " fill="none" stroke="rgb(0, 0, 0)" stroke-linecap="butt" stroke-linejoin="round" stroke-opacity="1.0" stroke-width="3.0" />
            <path d=" M 734.744, 392.874 734.056, 391.985 731.680, 389.955 727.955, 386.912 723.386, 384.888 719.548, 384.302 713.196, 384.970 712.467, 385.175 " fill="none" stroke="rgb(0, 0, 0)" stroke-linecap="butt" stroke-linejoin="round" stroke-opacity="1.0" stroke-width="3.0" />
            <path d=" M 610.136, 540.461 609.821, 538.617 608.588, 532.355 606.910, 524.737 606.397, 522.558 606.047, 521.072 605.796, 520.007 605.138, 517.218 604.829, 515.904 " fill="none" stroke="rgb(0, 0, 0)" stroke-linecap="butt" stroke-linejoin="round" stroke-opacity="1.0" stroke-width="3.0" />
            <path d=" M 610.736, 783.809 606.979, 783.493 603.631, 785.732 602.506, 784.165 598.185, 783.382 594.547, 782.539 591.752, 779.955 588.571, 778.504 " fill="none" stroke="rgb(0, 0, 0)" stroke-linecap="butt" stroke-linejoin="round" stroke-opacity="1.0" stroke-width="3.0" />
            <path d=" M 766.109, 787.606 759.571, 791.138 756.401, 792.742 749.903, 796.661 744.638, 801.070 " fill="none" stroke="rgb(0, 0, 0)" stroke-linecap="butt" stroke-linejoin="round" stroke-opacity="1.0" stroke-width="3.0" />
            <path d=" M 577.373, 635.127 576.352, 636.879 576.170, 638.657 576.699, 636.740 577.373, 635.127 577.555, 634.691 578.563, 632.661 580.152, 630.105 580.657, 628.650 582.670, 625.061 583.420, 623.723 583.510, 623.563 585.933, 619.241 " fill="none" stroke="rgb(0, 0, 0)" stroke-linecap="butt" stroke-linejoin="round" stroke-opacity="1.0" stroke-width="3.0" />
            <path d=" M 662.821, 460.010 656.677, 465.755 655.929, 466.454 652.154, 469.983 651.574, 470.526 651.338, 470.929 648.000, 476.650 647.998, 476.655 646.944, 479.013 646.485, 480.039 " fill="none" stroke="rgb(0, 0, 0)" stroke-linecap="butt" stroke-linejoin="round" stroke-opacity="1.0" stroke-width="3.0" />
            <path d=" M 951.437, 495.907 949.251, 499.244 948.187, 500.869 946.235, 503.679 946.216, 503.705 945.568, 504.638 945.526, 508.341 949.116, 514.567 948.098, 513.397 948.061, 513.424 945.383, 515.400 " fill="none" stroke="rgb(0, 0, 0)" stroke-linecap="butt" stroke-linejoin="round" stroke-opacity="1.0" stroke-width="3.0" />
            <path d=" M 621.936, 520.176 619.314, 527.477 615.174, 536.579 614.094, 538.952 612.390, 541.654 610.764, 544.233 " fill="none" stroke="rgb(0, 0, 0)" stroke-linecap="butt" stroke-linejoin="round" stroke-opacity="1.0" stroke-width="3.0" />
            <path d=" M 553.448, 896.592 553.574, 896.081 554.817, 891.065 555.166, 887.161 555.135, 877.438 554.786, 872.264 554.783, 872.216 554.778, 872.149 554.692, 870.866 554.613, 870.149 " fill="none" stroke="rgb(0, 0, 0)" stroke-linecap="butt" stroke-linejoin="round" stroke-opacity="1.0" stroke-width="3.0" />
            <path d=" M 855.360, 505.987 853.980, 507.804 853.859, 507.963 852.376, 509.916 851.535, 512.400 850.968, 514.196 850.843, 514.592 850.304, 516.299 850.127, 516.858 849.865, 517.688 849.926, 518.406 849.962, 518.831 850.000, 519.287 850.464, 524.775 850.292, 527.199 850.004, 531.252 " fill="none" stroke="rgb(0, 0, 0)" stroke-linecap="butt" stroke-linejoin="round" stroke-opacity="1.0" stroke-width="3.0" />
            <path d=" M 556.260, 498.343 556.839, 493.160 557.370, 488.395 557.432, 487.841 560.068, 480.423 557.370, 488.395 " fill="none" stroke="rgb(0, 0, 0)" stroke-linecap="butt" stroke-linejoin="round" stroke-opacity="1.0" stroke-width="3.0" />
            <path d=" M 787.836, 401.908 787.798, 402.095 787.756, 402.301 788.148, 404.150 788.192, 404.360 788.353, 405.115 788.355, 405.125 788.536, 405.980 788.540, 406.001 788.706, 406.780 789.171, 408.974 783.755, 413.319 780.397, 413.230 779.401, 413.204 778.680, 413.185 776.470, 413.126 775.300, 413.508 774.702, 413.703 774.227, 413.857 772.153, 414.533 771.019, 414.902 " fill="none" stroke="rgb(0, 0, 0)" stroke-linecap="butt" stroke-linejoin="round" stroke-opacity="1.0" stroke-width="3.0" />
            <path d=" M 932.678, 657.309 932.558, 654.630 932.477, 652.835 930.012, 643.587 927.967, 635.318 927.118, 630.458 " fill="none" stroke="rgb(0, 0, 0)" stroke-linecap="butt" stroke-linejoin="round" stroke-opacity="1.0" stroke-width="3.0" />
            <path d=" M 575.778, 801.880 576.558, 799.132 576.782, 798.342 576.815, 798.226 577.113, 797.177 577.592, 795.490 578.255, 793.156 578.838, 791.099 579.623, 789.435 579.774, 789.115 579.785, 789.091 582.732, 782.838 584.251, 779.617 584.452, 779.192 584.831, 778.387 585.412, 777.046 585.819, 776.107 " fill="none" stroke="rgb(0, 0, 0)" stroke-linecap="butt" stroke-linejoin="round" stroke-opacity="1.0" stroke-width="3.0" />
            <path d=" M 642.079, 570.333 637.171, 571.646 636.360, 571.863 636.301, 571.851 631.733, 570.907 631.536, 570.866 629.784, 570.504 629.768, 570.501 626.820, 569.892 625.243, 569.566 624.569, 569.427 622.325, 567.935 621.362, 567.294 621.110, 567.126 620.650, 566.821 620.438, 566.680 620.354, 566.624 620.350, 566.621 620.323, 566.603 620.300, 566.588 620.179, 566.507 619.475, 566.386 619.426, 566.378 619.106, 566.323 619.037, 566.312 618.998, 566.305 618.645, 566.245 618.534, 566.226 618.435, 566.208 618.410, 566.204 618.088, 566.149 617.786, 566.098 617.637, 566.072 616.548, 565.886 615.704, 565.741 " fill="none" stroke="rgb(0, 0, 0)" stroke-linecap="butt" stroke-linejoin="round" stroke-opacity="1.0" stroke-width="3.0" />
            <path d=" M 977.968, 560.654 977.846, 559.930 977.787, 559.575 976.672, 552.924 973.228, 545.367 972.269, 543.628 971.313, 541.895 971.267, 541.812 968.261, 534.806 " fill="none" stroke="rgb(0, 0, 0)" stroke-linecap="butt" stroke-linejoin="round" stroke-opacity="1.0" stroke-width="3.0" />
            <path d=" M 878.172, 797.922 888.172, 797.904 891.403, 797.899 896.069, 796.847 898.607, 796.108 901.578, 793.893 903.633, 790.808 " fill="none" stroke="rgb(0, 0, 0)" stroke-linecap="butt" stroke-linejoin="round" stroke-opacity="1.0" stroke-width="3.0" />
            <path d=" M 796.619, 546.291 790.192, 548.738 785.783, 549.046 776.252, 550.868 769.500, 553.410 " fill="none" stroke="rgb(0, 0, 0)" stroke-linecap="butt" stroke-linejoin="round" stroke-opacity="1.0" stroke-width="3.0" />
            <path d=" M 533.118, 803.263 533.163, 803.382 533.205, 803.495 533.255, 803.629 533.803, 805.093 534.328, 806.497 534.542, 807.069 534.768, 807.673 534.796, 807.788 534.850, 808.010 534.947, 808.413 535.389, 810.247 535.404, 810.310 535.836, 812.104 535.943, 812.546 536.012, 812.832 536.027, 812.896 536.068, 813.066 536.069, 813.069 536.174, 813.506 536.834, 816.243 538.024, 819.554 538.654, 821.307 538.657, 821.316 539.218, 822.875 539.302, 823.110 539.469, 823.574 539.481, 823.664 540.423, 831.061 " fill="none" stroke="rgb(0, 0, 0)" stroke-linecap="butt" stroke-linejoin="round" stroke-opacity="1.0" stroke-width="3.0" />
            <path d=" M 574.201, 622.091 574.187, 622.159 571.836, 631.878 570.863, 635.900 570.322, 638.941 568.326, 648.740 567.970, 650.484 " fill="none" stroke="rgb(0, 0, 0)" stroke-linecap="butt" stroke-linejoin="round" stroke-opacity="1.0" stroke-width="3.0" />
            <path d=" M 981.720, 624.061 982.953, 619.173 983.553, 615.922 983.557, 615.902 984.031, 613.333 984.643, 610.021 984.231, 607.486 984.024, 606.208 983.250, 601.436 983.239, 601.369 982.996, 599.870 982.616, 595.253 " fill="none" stroke="rgb(0, 0, 0)" stroke-linecap="butt" stroke-linejoin="round" stroke-opacity="1.0" stroke-width="3.0" />
            <path d=" M 585.614, 738.005 586.210, 736.152 586.400, 735.675 586.580, 735.221 587.670, 732.481 588.765, 728.921 588.859, 728.617 588.989, 728.195 589.812, 725.993 590.937, 722.985 593.135, 719.706 597.125, 714.337 599.756, 712.720 " fill="none" stroke="rgb(0, 0, 0)" stroke-linecap="butt" stroke-linejoin="round" stroke-opacity="1.0" stroke-width="3.0" />
            <path d=" M 736.548, 702.067 736.626, 702.136 737.455, 702.863 737.643, 703.029 742.778, 707.534 745.932, 709.716 753.561, 710.638 763.331, 710.472 763.477, 710.470 763.775, 710.465 " fill="none" stroke="rgb(0, 0, 0)" stroke-linecap="butt" stroke-linejoin="round" stroke-opacity="1.0" stroke-width="3.0" />
            <path d=" M 604.872, 687.890 606.106, 690.825 607.008, 692.011 607.281, 692.371 607.543, 692.716 609.114, 694.783 611.380, 697.763 614.918, 703.560 615.761, 704.531 616.396, 704.869 619.661, 706.610 624.845, 705.287 625.712, 705.065 " fill="none" stroke="rgb(0, 0, 0)" stroke-linecap="butt" stroke-linejoin="round" stroke-opacity="1.0" stroke-width="3.0" />
            <path d=" M 782.746, 410.721 781.956, 410.840 781.459, 410.915 779.360, 411.232 774.820, 412.569 769.340, 412.584 769.064, 412.584 768.000, 412.587 767.140, 412.691 766.051, 412.823 764.177, 413.098 761.262, 413.526 759.740, 413.821 754.981, 414.742 752.439, 415.032 " fill="none" stroke="rgb(0, 0, 0)" stroke-linecap="butt" stroke-linejoin="round" stroke-opacity="1.0" stroke-width="3.0" />
            <path d=" M 692.224, 816.989 689.863, 813.458 686.983, 811.325 685.401, 811.233 682.271, 814.880 681.617, 819.326 681.920, 825.503 681.997, 827.069 683.678, 831.168 " fill="none" stroke="rgb(0, 0, 0)" stroke-linecap="butt" stroke-linejoin="round" stroke-opacity="1.0" stroke-width="3.0" />
            <path d=" M 788.062, 824.007 790.103, 830.139 792.120, 834.562 794.348, 837.141 798.702, 840.122 802.413, 839.836 810.295, 838.964 " fill="none" stroke="rgb(0, 0, 0)" stroke-linecap="butt" stroke-linejoin="round" stroke-opacity="1.0" stroke-width="3.0" />
            <path d=" M 952.103, 505.586 952.283, 504.426 952.632, 502.185 955.016, 499.702 958.670, 498.221 959.461, 496.900 960.260, 495.567 961.359, 492.730 960.976, 491.805 960.567, 490.814 960.508, 490.769 957.958, 488.830 957.844, 488.744 957.000, 488.102 955.716, 487.124 954.855, 486.014 954.681, 485.790 954.480, 485.694 953.800, 485.368 953.494, 485.222 953.456, 485.203 951.683, 484.924 949.205, 484.532 " fill="none" stroke="rgb(0, 0, 0)" stroke-linecap="butt" stroke-linejoin="round" stroke-opacity="1.0" stroke-width="3.0" />
            <path d=" M 573.397, 533.536 570.068, 529.224 564.379, 522.479 562.616, 519.390 560.145, 515.872 558.654, 513.027 555.313, 506.655 " fill="none" stroke="rgb(0, 0, 0)" stroke-linecap="butt" stroke-linejoin="round" stroke-opacity="1.0" stroke-width="3.0" />
            <path d=" M 816.203, 791.571 819.719, 794.844 821.967, 797.813 825.645, 800.865 826.169, 801.300 829.928, 803.574 833.022, 806.136 836.718, 810.973 837.004, 811.349 837.054, 811.571 837.182, 812.148 837.794, 814.908 " fill="none" stroke="rgb(0, 0, 0)" stroke-linecap="butt" stroke-linejoin="round" stroke-opacity="1.0" stroke-width="3.0" />
            <path d=" M 531.381, 799.484 531.886, 800.680 532.529, 802.204 533.118, 803.263 533.141, 803.304 533.198, 803.408 533.258, 803.515 533.777, 804.449 533.807, 804.501 533.953, 804.788 534.260, 805.391 534.810, 806.469 535.158, 807.152 535.233, 807.300 535.448, 807.722 535.872, 808.552 535.879, 808.566 536.347, 809.484 536.549, 810.039 536.617, 810.225 536.655, 810.328 536.796, 810.714 536.813, 810.762 536.830, 810.807 536.843, 810.843 536.859, 810.887 537.066, 811.455 538.126, 814.363 538.254, 814.713 539.100, 817.032 539.196, 817.294 539.435, 818.349 539.459, 818.455 539.985, 820.768 542.171, 830.391 " fill="none" stroke="rgb(0, 0, 0)" stroke-linecap="butt" stroke-linejoin="round" stroke-opacity="1.0" stroke-width="3.0" />
            <path d=" M 592.947, 544.327 588.993, 541.121 580.144, 538.700 576.547, 536.153 573.397, 533.536 571.998, 532.374 570.421, 531.102 569.151, 530.079 568.250, 529.352 565.455, 527.211 " fill="none" stroke="rgb(0, 0, 0)" stroke-linecap="butt" stroke-linejoin="round" stroke-opacity="1.0" stroke-width="3.0" />
            <path d=" M 920.543, 468.480 920.359, 468.321 920.130, 468.123 919.105, 467.235 918.905, 467.063 918.053, 466.325 916.246, 464.762 916.028, 464.573 909.777, 459.163 902.082, 452.777 896.187, 447.886 895.318, 447.334 " fill="none" stroke="rgb(0, 0, 0)" stroke-linecap="butt" stroke-linejoin="round" stroke-opacity="1.0" stroke-width="3.0" />
            <path d=" M 585.412, 777.046 586.288, 776.097 586.673, 775.918 587.420, 775.571 589.597, 774.558 595.081, 772.007 596.464, 770.250 597.290, 766.990 600.969, 760.028 599.808, 757.860 598.594, 757.000 593.655, 756.807 " fill="none" stroke="rgb(0, 0, 0)" stroke-linecap="butt" stroke-linejoin="round" stroke-opacity="1.0" stroke-width="3.0" />
            <path d=" M 724.153, 943.999 732.881, 939.118 735.884, 937.438 743.111, 934.488 749.493, 933.247 755.208, 932.519 " fill="none" stroke="rgb(0, 0, 0)" stroke-linecap="butt" stroke-linejoin="round" stroke-opacity="1.0" stroke-width="3.0" />
            <path d=" M 554.786, 872.264 555.338, 871.644 555.838, 870.895 560.207, 864.349 561.332, 860.612 561.385, 858.341 561.442, 855.929 560.716, 851.954 560.631, 851.492 560.574, 851.180 560.510, 850.830 560.457, 850.540 560.344, 849.920 560.297, 849.660 560.291, 849.627 560.241, 849.352 560.166, 848.942 560.273, 848.582 560.404, 848.143 560.412, 848.117 560.545, 847.670 561.071, 845.907 561.367, 844.912 561.382, 844.862 561.449, 844.637 561.466, 844.579 561.521, 844.394 561.924, 843.044 562.661, 840.571 " fill="none" stroke="rgb(0, 0, 0)" stroke-linecap="butt" stroke-linejoin="round" stroke-opacity="1.0" stroke-width="3.0" />
            <path d=" M 569.559, 852.916 571.411, 853.122 572.204, 853.700 572.480, 856.966 572.647, 858.931 574.723, 861.349 578.137, 863.786 581.621, 865.754 583.290, 867.250 584.340, 868.367 586.716, 869.007 588.778, 870.633 590.406, 872.019 592.856, 875.040 " fill="none" stroke="rgb(0, 0, 0)" stroke-linecap="butt" stroke-linejoin="round" stroke-opacity="1.0" stroke-width="3.0" />
            <path d=" M 619.056, 450.340 620.774, 448.257 622.019, 446.747 621.594, 443.762 617.613, 439.703 615.318, 439.841 610.590, 441.188 608.944, 441.398 608.757, 441.435 601.470, 442.882 597.015, 444.427 " fill="none" stroke="rgb(0, 0, 0)" stroke-linecap="butt" stroke-linejoin="round" stroke-opacity="1.0" stroke-width="3.0" />
            <path d=" M 594.810, 573.665 594.837, 574.192 595.028, 577.846 595.953, 579.089 598.321, 582.271 597.687, 587.835 596.222, 591.995 595.881, 595.075 596.454, 597.084 597.398, 598.812 599.046, 601.829 599.089, 601.909 599.142, 602.006 599.151, 602.022 599.214, 602.136 599.265, 602.231 601.249, 605.864 601.276, 605.914 " fill="none" stroke="rgb(0, 0, 0)" stroke-linecap="butt" stroke-linejoin="round" stroke-opacity="1.0" stroke-width="3.0" />
            <path d=" M 956.829, 525.628 955.555, 523.075 952.448, 517.707 949.544, 513.405 947.573, 507.458 947.780, 505.932 947.811, 505.707 947.843, 505.468 948.179, 502.994 951.056, 500.467 951.424, 500.143 952.057, 499.587 953.030, 498.733 956.578, 497.571 " fill="none" stroke="rgb(0, 0, 0)" stroke-linecap="butt" stroke-linejoin="round" stroke-opacity="1.0" stroke-width="3.0" />
            <path d=" M 536.155, 807.224 536.847, 808.725 536.919, 808.880 536.936, 808.919 537.214, 809.521 537.257, 809.613 537.325, 809.761 537.522, 810.189 539.349, 814.151 539.677, 815.680 539.885, 816.648 539.920, 816.812 540.189, 818.067 540.656, 820.243 542.245, 828.160 543.101, 829.920 543.106, 839.920 543.107, 841.644 " fill="none" stroke="rgb(0, 0, 0)" stroke-linecap="butt" stroke-linejoin="round" stroke-opacity="1.0" stroke-width="3.0" />
            <path d=" M 901.714, 792.541 903.633, 790.808 908.312, 786.583 916.601, 780.990 918.560, 779.668 923.653, 771.096 924.129, 770.430 924.603, 769.766 924.937, 769.297 926.088, 767.685 926.235, 767.489 " fill="none" stroke="rgb(0, 0, 0)" stroke-linecap="butt" stroke-linejoin="round" stroke-opacity="1.0" stroke-width="3.0" />
            <path d=" M 568.049, 785.849 568.055, 785.824 568.269, 784.871 568.359, 784.468 568.532, 783.697 568.566, 783.545 568.609, 783.354 569.066, 781.318 569.067, 781.309 569.125, 781.002 569.133, 780.961 569.184, 780.691 569.284, 780.162 569.284, 780.162 569.359, 779.765 569.521, 778.905 569.622, 778.370 569.806, 777.393 569.992, 776.408 569.992, 776.407 570.109, 775.790 570.118, 775.739 570.203, 775.289 570.383, 774.335 570.395, 774.273 570.401, 774.242 570.407, 774.208 570.468, 773.883 570.500, 773.718 570.720, 772.550 570.870, 771.756 570.947, 771.347 571.123, 770.414 571.143, 770.311 571.376, 769.076 571.486, 768.489 571.487, 768.486 571.698, 767.365 571.766, 767.009 571.900, 766.297 571.903, 766.167 572.028, 761.531 572.029, 761.472 572.040, 761.080 572.053, 760.584 572.263, 752.769 572.327, 750.390 " fill="none" stroke="rgb(0, 0, 0)" stroke-linecap="butt" stroke-linejoin="round" stroke-opacity="1.0" stroke-width="3.0" />
            <path d=" M 758.173, 411.435 751.697, 412.484 744.917, 413.244 744.870, 413.249 744.866, 413.250 744.480, 413.293 739.970, 414.291 739.870, 414.313 739.763, 414.337 739.744, 414.341 739.702, 414.351 739.689, 414.353 739.632, 414.366 735.900, 415.193 735.070, 415.376 733.099, 416.087 730.181, 417.140 730.154, 417.149 729.416, 417.416 729.083, 417.536 726.252, 418.557 725.993, 418.650 725.675, 418.765 724.353, 419.242 724.229, 419.287 724.171, 419.307 723.201, 419.657 " fill="none" stroke="rgb(0, 0, 0)" stroke-linecap="butt" stroke-linejoin="round" stroke-opacity="1.0" stroke-width="3.0" />
            <path d=" M 570.421, 531.102 565.659, 525.031 559.878, 517.824 554.018, 511.168 553.768, 510.738 553.746, 510.700 553.673, 510.576 551.931, 507.581 551.413, 506.691 551.187, 506.303 548.630, 501.909 " fill="none" stroke="rgb(0, 0, 0)" stroke-linecap="butt" stroke-linejoin="round" stroke-opacity="1.0" stroke-width="3.0" />
            <path d=" M 623.395, 809.769 625.266, 808.020 628.273, 801.576 628.703, 798.680 628.698, 797.042 628.516, 796.910 626.920, 795.750 625.615, 795.664 624.305, 795.578 619.018, 799.044 614.665, 803.888 614.548, 804.018 613.921, 804.716 611.759, 804.574 611.752, 804.574 611.566, 804.561 610.990, 804.524 610.820, 804.513 610.004, 804.460 " fill="none" stroke="rgb(0, 0, 0)" stroke-linecap="butt" stroke-linejoin="round" stroke-opacity="1.0" stroke-width="3.0" />
            <path d=" M 534.334, 855.893 531.009, 860.683 530.902, 860.837 528.157, 864.792 528.113, 864.855 527.372, 865.923 527.285, 866.047 527.263, 866.079 527.252, 866.095 527.060, 866.371 527.022, 866.882 526.911, 868.348 526.787, 869.988 525.754, 873.709 525.551, 875.981 525.550, 875.983 525.533, 876.173 525.480, 876.767 525.478, 876.794 525.474, 876.843 525.462, 876.968 525.455, 877.047 525.452, 877.082 525.426, 877.376 525.357, 878.141 525.074, 881.307 524.698, 884.084 524.536, 887.505 524.597, 890.392 " fill="none" stroke="rgb(0, 0, 0)" stroke-linecap="butt" stroke-linejoin="round" stroke-opacity="1.0" stroke-width="3.0" />
            <path d=" M 529.663, 866.390 529.490, 867.509 529.484, 867.551 529.474, 867.616 529.344, 868.455 529.330, 868.547 529.095, 870.069 529.089, 870.109 528.795, 872.009 528.320, 875.088 528.214, 875.777 527.905, 877.777 527.843, 878.178 527.843, 878.178 527.799, 878.462 527.745, 878.811 527.525, 879.538 527.522, 879.548 527.338, 880.154 527.297, 880.291 527.269, 880.382 527.223, 880.535 527.203, 880.600 527.133, 880.833 527.070, 881.041 527.069, 881.044 526.447, 883.095 525.860, 885.034 525.543, 886.378 525.224, 887.730 524.597, 890.392 523.522, 894.952 524.273, 898.391 525.288, 903.039 " fill="none" stroke="rgb(0, 0, 0)" stroke-linecap="butt" stroke-linejoin="round" stroke-opacity="1.0" stroke-width="3.0" />
            <path d=" M 672.860, 823.254 672.758, 823.120 669.350, 820.174 667.702, 819.049 665.811, 820.725 664.634, 821.768 662.965, 825.203 662.702, 825.744 662.649, 825.853 662.326, 826.517 661.505, 828.207 660.911, 829.350 659.234, 832.579 658.547, 834.995 658.219, 836.149 658.034, 836.802 657.963, 837.052 657.791, 841.318 656.509, 843.165 656.276, 843.500 655.898, 843.605 653.806, 844.185 653.111, 844.377 652.524, 844.539 " fill="none" stroke="rgb(0, 0, 0)" stroke-linecap="butt" stroke-linejoin="round" stroke-opacity="1.0" stroke-width="3.0" />
            <path d=" M 676.917, 826.523 674.014, 823.239 672.860, 823.254 671.353, 823.275 670.353, 823.774 669.197, 824.351 668.819, 825.135 668.725, 825.354 668.093, 826.816 667.387, 828.450 667.030, 829.277 666.931, 829.505 666.550, 831.865 666.538, 831.938 666.514, 832.088 665.564, 837.970 666.437, 844.782 664.689, 846.379 664.051, 846.859 664.005, 846.894 663.998, 846.899 663.996, 846.900 663.068, 847.599 661.322, 847.233 661.246, 847.243 659.523, 847.467 " fill="none" stroke="rgb(0, 0, 0)" stroke-linecap="butt" stroke-linejoin="round" stroke-opacity="1.0" stroke-width="3.0" />
            <path d=" M 528.039, 913.184 530.119, 917.957 536.228, 921.424 537.885, 921.383 544.654, 918.195 546.706, 917.536 548.934, 916.146 550.316, 914.261 550.920, 906.532 551.106, 904.144 " fill="none" stroke="rgb(0, 0, 0)" stroke-linecap="butt" stroke-linejoin="round" stroke-opacity="1.0" stroke-width="3.0" />
            <path d=" M 955.397, 513.306 960.246, 522.052 962.214, 525.602 962.421, 525.894 965.324, 529.999 968.261, 534.806 966.526, 533.487 966.451, 533.431 964.206, 531.724 962.036, 529.467 958.325, 525.301 " fill="none" stroke="rgb(0, 0, 0)" stroke-linecap="butt" stroke-linejoin="round" stroke-opacity="1.0" stroke-width="3.0" />
            <path d=" M 522.705, 770.648 522.006, 776.694 522.718, 780.486 526.685, 789.408 528.866, 795.314 531.381, 799.484 531.962, 800.447 532.138, 800.740 532.199, 800.840 532.283, 800.914 532.490, 801.098 532.500, 801.107 532.536, 801.138 532.566, 801.165 533.068, 801.609 533.303, 801.817 533.687, 802.157 534.197, 802.608 535.519, 803.777 536.563, 804.701 536.624, 804.755 537.219, 805.281 537.356, 805.403 537.398, 805.440 " fill="none" stroke="rgb(0, 0, 0)" stroke-linecap="butt" stroke-linejoin="round" stroke-opacity="1.0" stroke-width="3.0" />
            <path d=" M 850.777, 449.930 849.802, 446.949 846.423, 441.615 844.771, 437.946 843.475, 436.535 841.069, 434.669 837.324, 431.921 831.176, 429.450 829.341, 428.671 829.081, 428.560 829.069, 428.555 828.179, 428.177 828.093, 428.141 825.399, 426.997 823.794, 426.473 823.549, 426.393 821.666, 425.779 " fill="none" stroke="rgb(0, 0, 0)" stroke-linecap="butt" stroke-linejoin="round" stroke-opacity="1.0" stroke-width="3.0" />
            <path d=" M 645.255, 807.959 647.771, 801.511 647.846, 799.902 647.248, 798.240 646.339, 797.250 644.413, 796.413 644.079, 796.475 638.613, 799.661 633.814, 802.745 628.766, 806.784 626.971, 808.531 622.856, 811.743 " fill="none" stroke="rgb(0, 0, 0)" stroke-linecap="butt" stroke-linejoin="round" stroke-opacity="1.0" stroke-width="3.0" />
            <path d=" M 735.801, 411.786 735.279, 412.067 734.831, 412.308 734.762, 412.345 733.233, 413.166 732.563, 413.526 729.063, 415.642 728.546, 415.955 729.071, 415.653 731.305, 414.369 731.572, 414.216 733.074, 413.353 734.644, 412.451 734.727, 412.404 735.232, 412.113 735.801, 411.786 737.742, 410.671 739.179, 409.846 740.409, 409.139 741.172, 408.701 742.154, 408.112 742.531, 407.885 743.437, 407.342 743.540, 407.280 743.576, 407.259 745.491, 406.111 746.444, 406.282 747.331, 406.442 747.346, 406.445 747.363, 406.448 747.911, 406.547 757.711, 404.737 " fill="none" stroke="rgb(0, 0, 0)" stroke-linecap="butt" stroke-linejoin="round" stroke-opacity="1.0" stroke-width="3.0" />
            <path d=" M 926.111, 767.261 926.366, 767.315 927.785, 767.610 927.939, 767.642 928.078, 767.672 928.321, 767.722 929.647, 767.999 935.349, 767.816 939.224, 766.537 948.564, 762.853 953.295, 759.581 956.843, 754.828 960.202, 750.689 " fill="none" stroke="rgb(0, 0, 0)" stroke-linecap="butt" stroke-linejoin="round" stroke-opacity="1.0" stroke-width="3.0" />
            <path d=" M 859.022, 426.998 854.007, 425.371 844.495, 422.284 843.679, 422.019 839.605, 420.406 835.474, 419.404 825.755, 417.051 825.586, 417.010 819.311, 415.436 " fill="none" stroke="rgb(0, 0, 0)" stroke-linecap="butt" stroke-linejoin="round" stroke-opacity="1.0" stroke-width="3.0" />
            <path d=" M 983.250, 601.436 984.037, 594.369 984.306, 591.959 983.624, 584.643 983.128, 579.812 981.018, 570.038 979.964, 565.156 978.060, 560.458 977.846, 559.930 " fill="none" stroke="rgb(0, 0, 0)" stroke-linecap="butt" stroke-linejoin="round" stroke-opacity="1.0" stroke-width="3.0" />
            <path d=" M 601.728, 890.318 602.453, 891.740 603.364, 893.530 605.567, 898.422 607.499, 901.312 607.517, 901.338 608.832, 903.305 609.506, 904.313 612.697, 909.938 615.960, 914.630 616.610, 915.534 618.478, 917.865 620.534, 920.364 623.246, 923.156 625.101, 925.509 " fill="none" stroke="rgb(0, 0, 0)" stroke-linecap="butt" stroke-linejoin="round" stroke-opacity="1.0" stroke-width="3.0" />
            <path d=" M 640.814, 485.609 632.501, 486.463 626.304, 486.726 616.485, 484.830 616.231, 484.781 612.110, 483.646 604.788, 479.207 602.443, 477.647 600.988, 476.203 " fill="none" stroke="rgb(0, 0, 0)" stroke-linecap="butt" stroke-linejoin="round" stroke-opacity="1.0" stroke-width="3.0" />
            <path d=" M 702.378, 580.356 707.267, 579.686 708.099, 579.551 708.307, 579.517 708.371, 579.506 708.388, 579.503 708.450, 579.493 711.978, 578.917 712.061, 578.903 712.494, 578.969 714.315, 578.823 718.486, 578.488 723.826, 575.320 729.165, 574.170 730.179, 573.951 733.370, 573.576 733.425, 573.569 733.707, 573.536 734.332, 573.463 734.993, 573.385 737.541, 573.085 737.548, 573.085 738.786, 572.939 739.058, 572.890 739.071, 572.887 739.124, 572.878 739.125, 572.878 739.241, 572.857 739.294, 572.847 739.572, 572.797 739.575, 572.796 739.733, 572.767 739.766, 572.761 739.783, 572.758 740.060, 572.708 740.422, 572.643 743.724, 572.044 " fill="none" stroke="rgb(0, 0, 0)" stroke-linecap="butt" stroke-linejoin="round" stroke-opacity="1.0" stroke-width="3.0" />
            <path d=" M 772.153, 414.533 763.804, 414.551 761.879, 414.463 760.120, 414.383 758.871, 414.575 755.487, 415.096 752.439, 415.032 748.886, 414.958 747.022, 414.919 746.228, 414.903 746.032, 414.898 744.325, 414.863 742.268, 415.086 741.406, 415.179 740.486, 415.279 740.401, 415.288 740.366, 415.292 740.364, 415.292 740.348, 415.294 740.338, 415.295 740.213, 415.308 740.087, 415.322 739.769, 415.356 732.427, 417.605 732.165, 417.685 730.853, 417.989 730.775, 418.007 730.452, 418.082 730.301, 418.117 729.954, 418.197 729.548, 418.291 " fill="none" stroke="rgb(0, 0, 0)" stroke-linecap="butt" stroke-linejoin="round" stroke-opacity="1.0" stroke-width="3.0" />
            <path d=" M 654.575, 810.589 655.402, 806.928 654.654, 805.432 654.101, 804.446 652.629, 803.357 649.024, 804.431 647.880, 805.421 645.255, 807.959 639.940, 813.098 637.044, 816.170 633.912, 820.405 631.560, 822.317 630.677, 823.035 626.256, 821.003 " fill="none" stroke="rgb(0, 0, 0)" stroke-linecap="butt" stroke-linejoin="round" stroke-opacity="1.0" stroke-width="3.0" />
            <path d=" M 884.687, 557.586 884.918, 554.154 885.328, 548.671 885.260, 547.440 885.726, 545.404 886.086, 544.948 886.208, 544.792 886.743, 544.116 888.403, 542.012 890.708, 536.404 894.075, 532.813 894.103, 532.784 894.181, 532.489 894.882, 529.834 895.433, 527.748 895.401, 526.816 895.369, 525.871 895.366, 525.788 895.346, 525.203 895.304, 523.943 893.257, 519.501 893.075, 518.004 892.955, 517.019 " fill="none" stroke="rgb(0, 0, 0)" stroke-linecap="butt" stroke-linejoin="round" stroke-opacity="1.0" stroke-width="3.0" />
            <path d=" M 583.258, 769.236 583.565, 767.314 583.771, 766.024 583.890, 765.277 584.101, 762.181 585.161, 757.671 586.007, 755.348 587.032, 750.746 587.037, 750.721 587.072, 750.564 587.415, 749.024 587.432, 748.947 587.451, 748.876 590.052, 739.220 590.368, 738.048 590.409, 735.610 591.037, 733.018 590.128, 726.962 589.812, 725.993 " fill="none" stroke="rgb(0, 0, 0)" stroke-linecap="butt" stroke-linejoin="round" stroke-opacity="1.0" stroke-width="3.0" />
            <path d=" M 713.279, 384.992 712.467, 385.175 706.336, 386.563 702.647, 388.117 699.075, 389.691 696.534, 391.198 692.219, 393.627 690.387, 394.799 688.308, 397.844 687.449, 401.297 686.423, 403.189 687.044, 405.862 693.757, 409.601 " fill="none" stroke="rgb(0, 0, 0)" stroke-linecap="butt" stroke-linejoin="round" stroke-opacity="1.0" stroke-width="3.0" />
            <path d=" M 744.893, 800.908 744.638, 801.070 740.908, 803.426 737.772, 806.610 734.613, 810.093 729.098, 813.910 724.202, 819.482 716.374, 825.704 714.537, 827.164 711.298, 829.738 710.726, 830.194 709.943, 830.816 " fill="none" stroke="rgb(0, 0, 0)" stroke-linecap="butt" stroke-linejoin="round" stroke-opacity="1.0" stroke-width="3.0" />
            <path d=" M 697.016, 432.507 701.701, 429.242 707.035, 426.805 708.726, 426.051 710.068, 425.453 715.938, 422.838 717.057, 422.464 722.378, 420.687 725.887, 419.514 728.114, 418.771 728.273, 418.717 728.759, 418.555 728.769, 418.552 729.125, 418.433 729.548, 418.291 729.166, 418.425 728.760, 418.567 728.739, 418.574 728.376, 418.701 728.089, 418.802 725.861, 419.581 723.581, 420.379 723.366, 420.491 721.095, 421.677 719.672, 422.419 " fill="none" stroke="rgb(0, 0, 0)" stroke-linecap="butt" stroke-linejoin="round" stroke-opacity="1.0" stroke-width="3.0" />
            <path d=" M 967.872, 658.544 971.892, 652.378 972.065, 652.112 974.446, 648.459 976.334, 645.361 976.982, 644.298 978.776, 641.353 979.328, 640.437 982.084, 631.351 983.059, 628.367 983.272, 623.993 983.274, 623.959 983.320, 623.003 983.513, 620.383 984.031, 613.333 " fill="none" stroke="rgb(0, 0, 0)" stroke-linecap="butt" stroke-linejoin="round" stroke-opacity="1.0" stroke-width="3.0" />
            <path d=" M 639.384, 959.766 639.048, 961.188 638.053, 965.403 638.223, 970.181 638.192, 974.579 638.462, 977.423 639.261, 983.179 640.064, 983.918 645.577, 989.456 647.083, 990.716 652.573, 992.165 657.267, 993.496 662.290, 993.212 " fill="none" stroke="rgb(0, 0, 0)" stroke-linecap="butt" stroke-linejoin="round" stroke-opacity="1.0" stroke-width="3.0" />
            <path d=" M 561.555, 823.510 562.200, 820.534 563.909, 812.652 563.917, 812.614 564.165, 811.472 564.564, 807.429 564.669, 806.370 564.672, 806.333 564.680, 806.255 564.745, 805.591 564.930, 803.720 564.957, 803.447 564.993, 803.081 564.997, 803.044 565.034, 802.668 565.075, 802.246 565.086, 802.135 565.254, 800.434 565.320, 799.767 565.349, 799.473 565.411, 798.840 565.629, 796.640 566.115, 794.789 566.163, 794.606 566.165, 794.597 566.203, 794.453 567.836, 788.240 567.996, 786.450 568.011, 786.279 568.045, 785.898 568.049, 785.849 568.052, 785.823 568.123, 785.017 568.166, 784.539 568.226, 783.861 568.239, 783.719 568.242, 783.689 568.474, 781.079 568.489, 780.918 568.501, 780.788 568.507, 780.725 568.570, 780.089 568.584, 779.945 568.601, 779.772 568.634, 779.434 568.650, 779.270 568.705, 778.713 568.834, 777.391 568.936, 776.351 568.973, 775.976 569.009, 775.610 569.109, 774.586 569.164, 774.023 569.167, 774.001 " fill="none" stroke="rgb(0, 0, 0)" stroke-linecap="butt" stroke-linejoin="round" stroke-opacity="1.0" stroke-width="3.0" />
            <path d=" M 624.845, 705.287 627.369, 705.808 629.535, 705.885 637.564, 707.360 641.996, 706.812 647.526, 705.376 651.041, 702.169 653.941, 698.176 662.430, 692.890 664.126, 691.834 670.205, 686.040 671.052, 685.961 " fill="none" stroke="rgb(0, 0, 0)" stroke-linecap="butt" stroke-linejoin="round" stroke-opacity="1.0" stroke-width="3.0" />
            <path d=" M 723.617, 422.858 718.336, 424.187 717.735, 424.339 713.236, 425.472 713.222, 425.475 712.196, 425.733 711.444, 426.125 711.335, 426.182 711.196, 426.254 711.127, 426.290 702.257, 430.907 701.955, 431.064 699.185, 432.590 697.930, 433.281 696.771, 433.778 696.224, 434.012 693.741, 435.075 692.704, 435.518 692.681, 435.528 691.419, 436.068 688.673, 437.243 682.534, 442.335 675.449, 446.768 " fill="none" stroke="rgb(0, 0, 0)" stroke-linecap="butt" stroke-linejoin="round" stroke-opacity="1.0" stroke-width="3.0" />
            <path d=" M 606.062, 521.881 605.897, 521.207 605.563, 519.849 605.171, 518.255 605.088, 517.914 604.751, 516.545 604.245, 514.482 603.287, 511.586 603.201, 511.066 603.189, 510.993 602.169, 504.883 601.922, 503.041 601.813, 502.229 601.629, 500.857 601.284, 498.284 600.858, 495.105 600.674, 492.343 600.107, 488.240 600.023, 482.897 600.263, 478.549 600.988, 476.203 602.529, 471.226 603.451, 468.245 " fill="none" stroke="rgb(0, 0, 0)" stroke-linecap="butt" stroke-linejoin="round" stroke-opacity="1.0" stroke-width="3.0" />
            <path d=" M 698.335, 743.510 699.799, 740.287 701.726, 736.044 701.907, 735.646 702.639, 732.643 704.365, 727.478 703.249, 717.541 702.562, 711.430 702.627, 706.086 704.435, 702.647 704.554, 702.563 704.882, 702.331 712.347, 697.049 713.944, 696.437 716.682, 695.388 " fill="none" stroke="rgb(0, 0, 0)" stroke-linecap="butt" stroke-linejoin="round" stroke-opacity="1.0" stroke-width="3.0" />
            <path d=" M 564.930, 803.720 565.089, 803.159 565.109, 803.092 565.134, 803.008 565.242, 802.637 565.434, 801.981 565.450, 801.928 565.582, 801.477 565.831, 800.626 566.379, 798.754 566.549, 798.172 566.870, 797.078 567.040, 796.498 567.133, 796.180 567.203, 795.938 567.389, 795.306 567.398, 795.274 567.561, 794.717 568.111, 792.839 569.638, 787.596 569.718, 787.319 569.813, 786.995 569.887, 786.741 569.891, 786.726 569.892, 786.724 570.044, 786.202 570.379, 785.052 571.102, 782.568 571.214, 782.184 571.406, 781.408 571.450, 781.232 571.472, 781.143 571.507, 781.003 571.527, 780.919 571.554, 780.812 571.562, 780.781 571.569, 780.753 571.661, 780.380 572.174, 778.310 572.270, 777.927 572.388, 777.449 572.390, 777.440 572.482, 777.071 572.511, 776.952 572.586, 776.652 573.042, 774.812 573.340, 773.612 573.341, 773.608 573.492, 772.999 573.494, 772.992 573.503, 772.955 573.505, 772.946 573.630, 772.443 573.740, 771.998 573.800, 771.756 573.809, 771.723 573.871, 771.470 574.037, 770.803 574.152, 770.069 574.163, 769.999 574.223, 769.617 574.251, 769.442 574.353, 768.789 574.465, 768.075 574.729, 767.014 575.382, 764.387 575.511, 763.862 575.605, 763.477 575.752, 762.879 576.682, 759.089 576.863, 758.350 579.545, 750.948 580.478, 748.375 " fill="none" stroke="rgb(0, 0, 0)" stroke-linecap="butt" stroke-linejoin="round" stroke-opacity="1.0" stroke-width="3.0" />
            <path d=" M 568.234, 758.525 568.323, 758.272 569.270, 755.583 571.072, 750.468 571.156, 748.306 571.157, 748.289 571.188, 747.488 571.209, 746.947 571.179, 746.828 569.869, 741.678 569.356, 741.004 566.511, 737.265 560.094, 735.148 558.210, 735.025 555.889, 735.432 551.840, 736.142 546.725, 739.294 541.062, 746.644 540.153, 748.381 539.832, 748.994 538.223, 752.073 " fill="none" stroke="rgb(0, 0, 0)" stroke-linecap="butt" stroke-linejoin="round" stroke-opacity="1.0" stroke-width="3.0" />
            <path d=" M 778.546, 801.898 781.637, 804.464 784.815, 807.103 785.810, 807.929 786.024, 808.144 786.825, 808.950 787.144, 809.270 787.464, 809.591 788.258, 810.390 788.307, 810.439 788.496, 810.630 788.790, 810.783 789.272, 811.037 789.908, 811.370 791.338, 812.120 800.952, 814.873 802.310, 815.261 812.262, 816.240 813.930, 816.404 822.518, 816.788 831.394, 816.558 835.717, 816.213 " fill="none" stroke="rgb(0, 0, 0)" stroke-linecap="butt" stroke-linejoin="round" stroke-opacity="1.0" stroke-width="3.0" />
            <path d=" M 707.158, 752.954 708.435, 752.792 712.144, 752.396 715.349, 753.181 718.576, 752.787 721.364, 753.150 730.844, 756.332 732.274, 756.812 740.469, 762.543 742.193, 763.749 747.750, 769.781 748.867, 770.347 751.971, 774.863 756.684, 781.075 759.412, 782.540 759.604, 782.643 " fill="none" stroke="rgb(0, 0, 0)" stroke-linecap="butt" stroke-linejoin="round" stroke-opacity="1.0" stroke-width="3.0" />
            <path d=" M 638.234, 626.596 637.727, 627.379 632.997, 634.693 631.919, 636.359 630.836, 638.034 627.374, 644.665 625.161, 649.844 625.033, 650.146 624.610, 651.136 623.665, 653.059 623.297, 653.808 623.052, 654.307 622.936, 654.543 621.317, 657.839 618.424, 663.325 614.844, 670.572 611.750, 673.029 605.896, 677.075 604.666, 678.861 603.810, 680.106 " fill="none" stroke="rgb(0, 0, 0)" stroke-linecap="butt" stroke-linejoin="round" stroke-opacity="1.0" stroke-width="3.0" />
            <path d=" M 680.425, 987.532 681.919, 987.315 685.616, 986.778 687.607, 985.000 692.940, 982.266 694.355, 980.816 696.645, 978.333 697.677, 976.170 700.182, 973.037 704.727, 966.686 706.700, 962.395 707.754, 960.529 711.879, 956.689 715.963, 951.609 720.720, 948.569 724.153, 943.999 725.515, 942.185 " fill="none" stroke="rgb(0, 0, 0)" stroke-linecap="butt" stroke-linejoin="round" stroke-opacity="1.0" stroke-width="3.0" />
            <path d=" M 670.771, 450.964 670.817, 450.919 675.449, 446.768 670.771, 450.964 670.692, 451.034 665.987, 454.103 659.386, 461.614 658.600, 462.507 654.028, 466.601 650.932, 470.858 648.998, 473.517 646.910, 476.388 641.477, 484.783 641.123, 485.329 640.814, 485.609 635.306, 490.588 633.009, 492.665 " fill="none" stroke="rgb(0, 0, 0)" stroke-linecap="butt" stroke-linejoin="round" stroke-opacity="1.0" stroke-width="3.0" />
            <path d=" M 942.530, 698.274 942.646, 698.178 943.076, 697.820 943.320, 697.617 946.815, 694.710 953.191, 687.006 954.749, 685.123 958.961, 681.430 959.093, 681.192 962.971, 674.228 963.159, 672.589 963.261, 671.703 963.680, 668.044 963.682, 668.024 963.693, 668.007 965.677, 664.850 966.138, 664.116 968.605, 660.191 970.776, 656.757 972.676, 653.229 972.848, 652.910 974.539, 649.769 975.233, 648.724 977.539, 645.249 979.328, 640.437 " fill="none" stroke="rgb(0, 0, 0)" stroke-linecap="butt" stroke-linejoin="round" stroke-opacity="1.0" stroke-width="3.0" />
            <path d=" M 518.043, 857.317 518.245, 859.822 519.323, 864.715 518.965, 862.669 518.898, 862.284 518.690, 861.093 518.122, 857.774 518.043, 857.317 517.727, 855.467 517.536, 854.351 517.562, 854.197 517.718, 853.272 517.452, 850.402 518.748, 842.520 519.144, 840.113 521.975, 830.522 522.288, 829.462 522.604, 828.080 523.809, 822.810 524.990, 819.594 528.234, 811.936 531.320, 802.424 531.886, 800.680 " fill="none" stroke="rgb(0, 0, 0)" stroke-linecap="butt" stroke-linejoin="round" stroke-opacity="1.0" stroke-width="3.0" />
            <path d=" M 812.763, 880.907 813.453, 882.138 815.197, 885.244 818.515, 890.013 818.899, 895.400 815.449, 903.295 812.693, 908.548 806.660, 914.417 802.278, 917.922 799.805, 919.869 795.150, 923.260 793.026, 924.267 787.899, 926.698 790.864, 925.028 793.357, 923.624 793.927, 923.292 794.059, 923.215 799.805, 919.869 " fill="none" stroke="rgb(0, 0, 0)" stroke-linecap="butt" stroke-linejoin="round" stroke-opacity="1.0" stroke-width="3.0" />
            <path d=" M 554.713, 869.439 555.079, 868.333 555.104, 868.258 555.899, 865.850 555.956, 865.677 556.793, 863.143 557.012, 861.513 557.023, 861.432 557.054, 861.199 557.143, 860.535 557.151, 860.474 557.181, 860.247 557.431, 858.387 557.434, 858.364 557.778, 855.797 557.804, 855.603 557.939, 854.597 558.367, 851.398 558.651, 849.282 558.711, 848.832 559.135, 847.391 559.194, 847.190 559.352, 846.653 559.896, 844.802 560.322, 843.354 560.444, 842.941 561.512, 839.308 561.686, 838.716 561.717, 838.611 561.723, 838.589 561.746, 838.512 563.361, 833.020 563.700, 832.292 563.705, 832.282 563.968, 831.718 564.327, 830.948 564.780, 829.975 564.793, 829.949 566.296, 826.724 566.501, 826.284 566.602, 826.068 566.669, 825.924 566.855, 825.525 566.878, 825.476 567.364, 824.434 570.805, 816.035 571.114, 815.280 571.143, 815.207 571.256, 814.915 572.394, 811.982 572.463, 811.805 572.889, 810.708 573.109, 810.142 573.312, 809.619 573.336, 809.557 573.449, 809.266 573.667, 808.705 574.719, 805.993 575.041, 805.164 576.708, 800.867 576.857, 800.369 577.363, 798.673 577.535, 798.096 577.777, 797.285 577.958, 794.968 578.255, 793.156 " fill="none" stroke="rgb(0, 0, 0)" stroke-linecap="butt" stroke-linejoin="round" stroke-opacity="1.0" stroke-width="3.0" />
            <path d=" M 763.331, 710.472 764.268, 710.917 764.989, 711.329 767.162, 712.569 770.006, 714.191 772.074, 715.371 772.076, 715.372 772.362, 715.535 772.379, 715.545 772.399, 715.556 772.429, 715.573 773.159, 715.990 775.325, 717.225 781.464, 719.885 784.813, 722.593 787.438, 725.882 788.763, 727.543 790.671, 729.934 792.877, 732.688 795.648, 736.148 802.767, 743.170 803.078, 743.477 804.557, 744.284 806.093, 745.121 807.817, 745.587 810.226, 745.232 810.261, 745.227 811.589, 745.030 812.262, 746.636 812.336, 746.813 813.475, 750.222 814.635, 753.690 814.569, 753.940 814.080, 755.803 813.855, 756.657 813.300, 758.770 813.299, 758.777 813.290, 758.783 809.634, 761.331 805.965, 763.888 805.036, 764.536 804.555, 764.742 801.776, 765.930 " fill="none" stroke="rgb(0, 0, 0)" stroke-linecap="butt" stroke-linejoin="round" stroke-opacity="1.0" stroke-width="3.0" />
            <path d=" M 628.516, 796.910 630.259, 795.397 632.590, 792.904 636.776, 788.759 640.356, 785.491 645.762, 779.635 651.052, 772.759 651.063, 768.781 649.261, 767.809 645.236, 769.098 642.348, 770.640 637.114, 773.087 634.507, 774.599 628.878, 776.897 624.796, 778.810 615.762, 783.096 613.987, 783.938 613.380, 784.472 607.733, 789.439 604.905, 791.665 " fill="none" stroke="rgb(0, 0, 0)" stroke-linecap="butt" stroke-linejoin="round" stroke-opacity="1.0" stroke-width="3.0" />
            <path d=" M 927.380, 635.319 927.118, 630.458 926.796, 624.473 926.856, 622.813 926.858, 622.769 927.026, 618.133 925.014, 615.115 924.209, 614.278 920.535, 610.457 915.861, 603.231 913.346, 597.068 909.972, 590.984 905.694, 584.776 899.615, 577.944 899.462, 577.772 898.761, 576.984 896.978, 575.116 896.946, 575.083 890.041, 567.850 889.831, 567.630 886.792, 562.612 885.750, 559.043 884.687, 557.586 883.826, 556.406 " fill="none" stroke="rgb(0, 0, 0)" stroke-linecap="butt" stroke-linejoin="round" stroke-opacity="1.0" stroke-width="3.0" />
            <path d=" M 829.828, 870.408 834.401, 869.354 843.806, 865.955 849.178, 864.013 854.220, 862.136 856.581, 860.971 860.520, 860.057 865.621, 855.624 866.692, 854.297 870.275, 849.854 871.878, 847.647 875.710, 843.127 877.992, 840.338 878.037, 840.223 880.481, 834.023 878.363, 827.235 875.794, 824.373 869.487, 820.550 862.245, 818.149 857.967, 816.983 " fill="none" stroke="rgb(0, 0, 0)" stroke-linecap="butt" stroke-linejoin="round" stroke-opacity="1.0" stroke-width="3.0" />
            <path d=" M 543.908, 540.396 544.313, 542.075 544.924, 544.614 544.791, 549.672 545.561, 553.135 545.455, 556.734 547.541, 560.692 548.693, 568.857 548.154, 578.375 549.588, 588.271 549.998, 591.101 551.192, 594.978 553.231, 598.971 559.097, 607.012 563.441, 611.914 566.967, 616.672 568.910, 618.885 574.201, 622.091 574.262, 622.128 582.376, 623.289 582.822, 623.474 583.420, 623.723 " fill="none" stroke="rgb(0, 0, 0)" stroke-linecap="butt" stroke-linejoin="round" stroke-opacity="1.0" stroke-width="3.0" />
            <path d=" M 966.008, 745.106 971.762, 740.644 978.520, 735.404 984.840, 727.654 985.199, 727.214 987.353, 724.104 988.721, 720.983 989.981, 715.881 990.827, 709.252 991.602, 703.493 991.328, 697.570 990.423, 692.093 989.622, 687.234 987.287, 677.936 985.088, 672.484 983.699, 670.603 982.215, 665.484 980.407, 662.699 976.119, 656.865 974.387, 654.479 973.068, 653.134 " fill="none" stroke="rgb(0, 0, 0)" stroke-linecap="butt" stroke-linejoin="round" stroke-opacity="1.0" stroke-width="3.0" />
            <path d=" M 582.638, 447.444 582.153, 445.865 581.992, 445.342 578.773, 444.760 574.863, 445.730 571.174, 447.300 566.395, 449.707 563.262, 451.696 560.852, 453.269 553.251, 459.518 550.663, 462.203 546.589, 466.474 543.586, 470.528 540.411, 475.133 538.023, 478.895 534.787, 486.015 532.339, 491.528 530.606, 501.377 530.404, 502.526 530.397, 508.268 529.366, 515.220 529.180, 521.292 529.143, 525.873 530.406, 529.269 531.743, 530.194 " fill="none" stroke="rgb(0, 0, 0)" stroke-linecap="butt" stroke-linejoin="round" stroke-opacity="1.0" stroke-width="3.0" />
            <path d=" M 843.071, 542.539 841.626, 542.975 839.208, 543.706 836.192, 544.019 836.070, 544.032 835.978, 544.042 833.792, 544.269 829.231, 544.800 828.845, 544.879 821.999, 546.309 818.345, 546.771 814.152, 547.412 809.542, 548.656 802.211, 549.241 799.057, 549.493 795.187, 549.364 790.065, 549.313 785.132, 549.264 775.700, 552.586 772.736, 553.629 769.439, 554.791 764.199, 556.657 754.546, 559.266 751.543, 560.077 745.643, 561.834 743.168, 562.412 740.527, 563.028 737.709, 563.615 737.610, 563.635 737.572, 563.643 737.019, 563.758 736.962, 563.770 735.316, 564.113 734.796, 564.221 732.622, 564.673 732.410, 564.717 732.332, 564.734 732.169, 564.768 " fill="none" stroke="rgb(0, 0, 0)" stroke-linecap="butt" stroke-linejoin="round" stroke-opacity="1.0" stroke-width="3.0" />
            <path d=" M 695.328, 654.433 690.140, 653.662 686.194, 652.052 685.360, 652.592 684.598, 653.085 683.049, 654.088 681.894, 654.836 678.625, 656.953 675.139, 663.408 673.501, 668.938 673.461, 669.142 673.183, 670.568 671.593, 678.723 671.310, 680.173 671.052, 685.961 670.705, 693.749 671.865, 703.689 673.758, 713.508 674.232, 715.970 674.453, 716.488 678.367, 725.690 680.171, 729.931 685.153, 738.602 688.023, 743.597 691.206, 748.576 694.527, 751.621 698.420, 753.710 700.428, 753.749 703.782, 753.791 707.158, 752.954 711.437, 751.893 " fill="none" stroke="rgb(0, 0, 0)" stroke-linecap="butt" stroke-linejoin="round" stroke-opacity="1.0" stroke-width="3.0" />
            <path d=" M 836.718, 810.973 836.790, 812.034 836.812, 812.353 835.717, 816.213 835.716, 816.216 837.043, 817.322 837.332, 817.563 839.067, 818.886 847.382, 820.436 852.711, 820.652 855.905, 819.086 857.967, 816.983 859.146, 815.780 861.749, 813.124 863.461, 811.005 865.384, 807.648 866.902, 803.832 867.671, 801.901 867.734, 801.742 868.416, 800.029 872.236, 790.787 873.506, 787.715 875.148, 783.330 875.264, 783.021 875.304, 782.939 875.316, 782.916 878.317, 776.833 879.530, 775.129 880.976, 773.098 883.412, 769.673 887.633, 766.075 889.519, 764.467 891.338, 761.031 891.405, 760.904 892.258, 758.967 892.502, 758.413 893.447, 756.267 893.802, 755.461 893.877, 755.291 894.602, 753.643 895.241, 752.191 898.071, 747.534 899.612, 746.419 899.627, 746.408 903.779, 743.405 904.357, 742.602 904.590, 742.277 906.018, 740.293 906.062, 740.231 910.106, 734.610 910.240, 734.424 910.538, 734.010 912.273, 731.597 917.045, 726.670 926.422, 725.700 " fill="none" stroke="rgb(0, 0, 0)" stroke-linecap="butt" stroke-linejoin="round" stroke-opacity="1.0" stroke-width="3.0" />
            <path d=" M 759.412, 782.540 762.321, 784.926 766.107, 787.540 766.161, 787.578 767.012, 788.165 767.988, 788.805 772.515, 790.684 782.182, 793.240 783.135, 793.492 790.931, 794.396 798.680, 793.965 805.064, 793.610 805.911, 793.563 811.776, 792.359 818.230, 789.821 823.510, 787.333 831.413, 781.205 837.244, 776.684 843.981, 769.939 850.237, 762.634 851.104, 760.844 851.108, 760.834 853.882, 755.104 855.831, 751.448 856.483, 750.225 856.544, 750.111 857.064, 743.378 857.066, 743.359 857.212, 741.461 855.566, 739.772 855.534, 739.738 855.364, 739.564 855.217, 739.413 855.143, 739.338 853.419, 737.569 852.417, 735.937 851.895, 735.086 848.008, 728.754 845.361, 719.110 844.931, 717.541 " fill="none" stroke="rgb(0, 0, 0)" stroke-linecap="butt" stroke-linejoin="round" stroke-opacity="1.0" stroke-width="3.0" />
            <path d=" M 576.170, 638.657 576.785, 640.217 578.658, 642.819 578.689, 642.862 581.041, 646.130 582.737, 648.485 585.520, 652.226 586.646, 653.740 589.571, 657.671 589.759, 658.427 590.489, 661.355 590.847, 662.792 591.506, 665.258 592.554, 671.309 593.417, 676.289 593.426, 676.343 593.462, 676.550 594.527, 682.698 595.857, 687.395 598.797, 693.902 600.896, 698.364 605.694, 707.138 605.762, 707.264 606.592, 708.427 606.637, 708.489 607.605, 709.847 607.618, 709.864 608.633, 711.287 609.436, 712.412 617.045, 718.901 617.982, 719.701 625.055, 725.040 630.074, 726.995 636.496, 729.254 638.379, 729.318 641.971, 729.341 648.347, 727.102 655.408, 725.177 664.570, 721.171 671.640, 718.081 674.453, 716.488 " fill="none" stroke="rgb(0, 0, 0)" stroke-linecap="butt" stroke-linejoin="round" stroke-opacity="1.0" stroke-width="3.0" />
            <path d=" M 592.554, 671.309 589.092, 668.460 582.440, 662.986 582.427, 662.976 581.386, 662.119 579.580, 660.462 579.580, 660.462 579.507, 660.395 578.529, 659.499 578.518, 659.488 575.395, 656.623 569.473, 651.712 567.970, 650.484 560.529, 644.407 552.320, 640.323 542.423, 638.887 538.932, 638.381 533.786, 639.097 526.728, 644.442 524.566, 646.923 523.861, 648.915 524.208, 658.909 524.226, 659.414 525.308, 665.221 527.735, 674.922 528.540, 678.143 530.789, 687.887 530.996, 688.783 534.167, 698.267 534.549, 699.407 535.787, 708.985 536.250, 718.974 536.712, 728.963 536.784, 730.513 535.499, 739.129 532.028, 748.508 531.759, 749.232 530.864, 751.651 " fill="none" stroke="rgb(0, 0, 0)" stroke-linecap="butt" stroke-linejoin="round" stroke-opacity="1.0" stroke-width="3.0" />
        </g>
    </g>
</svg>
