<?xml version='1.0' encoding='ascii'?>
<svg xmlns="http://www.w3.org/2000/svg" height="1280" version="1.1" width="1280">
    <g id="RenderLayer_LineSet" inkscape:groupmode="lineset" inkscape:label="RenderLayer_LineSet" xmlns:inkscape="http://www.inkscape.org/namespaces/inkscape">
        <g id="strokes" inkscape:groupmode="layer" inkscape:label="strokes" xmlns:inkscape="http://www.inkscape.org/namespaces/inkscape">
            <path d=" M 581.727, 948.084 581.563, 947.521 581.367, 946.848 580.790, 944.861 580.085, 942.502 579.730, 941.599 579.223, 940.307 578.993, 938.463 578.244, 932.440 576.623, 928.828 " fill="none" stroke="rgb(0, 0, 0)" stroke-linecap="butt" stroke-linejoin="round" stroke-opacity="1.0" stroke-width="3.0" />
            <path d=" M 570.336, 420.604 570.030, 420.857 564.623, 422.979 560.576, 424.784 556.759, 426.167 552.258, 426.687 551.403, 426.786 " fill="none" stroke="rgb(0, 0, 0)" stroke-linecap="butt" stroke-linejoin="round" stroke-opacity="1.0" stroke-width="3.0" />
            <path d=" M 936.898, 644.656 936.877, 644.962 936.771, 645.285 936.745, 645.364 936.736, 645.391 936.496, 646.120 934.805, 651.258 934.792, 651.298 934.682, 651.633 934.577, 651.953 934.521, 652.122 934.248, 652.950 935.235, 654.870 940.508, 654.863 942.244, 654.828 944.192, 654.065 944.336, 654.009 " fill="none" stroke="rgb(0, 0, 0)" stroke-linecap="butt" stroke-linejoin="round" stroke-opacity="1.0" stroke-width="3.0" />
            <path d=" M 521.467, 893.211 521.447, 893.483 521.529, 899.359 522.627, 904.175 522.811, 904.985 525.034, 912.904 " fill="none" stroke="rgb(0, 0, 0)" stroke-linecap="butt" stroke-linejoin="round" stroke-opacity="1.0" stroke-width="3.0" />
            <path d=" M 700.661, 444.553 704.071, 443.453 704.723, 443.243 711.816, 440.954 714.129, 439.875 714.154, 439.863 714.241, 439.823 717.994, 438.072 719.027, 437.590 719.596, 437.508 " fill="none" stroke="rgb(0, 0, 0)" stroke-linecap="butt" stroke-linejoin="round" stroke-opacity="1.0" stroke-width="3.0" />
            <path d=" M 689.086, 455.997 689.312, 455.757 689.552, 455.502 692.518, 452.348 697.715, 446.823 700.027, 445.642 703.988, 443.618 704.723, 443.243 " fill="none" stroke="rgb(0, 0, 0)" stroke-linecap="butt" stroke-linejoin="round" stroke-opacity="1.0" stroke-width="3.0" />
            <path d=" M 553.497, 833.782 554.406, 826.583 555.043, 821.540 555.518, 816.924 555.545, 816.661 555.557, 816.542 555.582, 816.298 555.647, 813.189 " fill="none" stroke="rgb(0, 0, 0)" stroke-linecap="butt" stroke-linejoin="round" stroke-opacity="1.0" stroke-width="3.0" />
            <path d=" M 759.747, 624.428 759.703, 624.936 758.855, 634.758 758.768, 637.947 758.902, 638.325 758.926, 638.392 759.172, 639.088 759.913, 641.177 760.009, 644.053 760.038, 644.929 " fill="none" stroke="rgb(0, 0, 0)" stroke-linecap="butt" stroke-linejoin="round" stroke-opacity="1.0" stroke-width="3.0" />
            <path d=" M 561.052, 705.290 561.534, 702.283 561.535, 702.276 561.917, 699.698 562.821, 693.582 562.936, 692.798 561.195, 689.770 559.937, 685.328 " fill="none" stroke="rgb(0, 0, 0)" stroke-linecap="butt" stroke-linejoin="round" stroke-opacity="1.0" stroke-width="3.0" />
            <path d=" M 695.211, 618.075 691.744, 617.980 686.828, 614.885 681.651, 612.411 678.514, 610.699 676.950, 609.012 " fill="none" stroke="rgb(0, 0, 0)" stroke-linecap="butt" stroke-linejoin="round" stroke-opacity="1.0" stroke-width="3.0" />
            <path d=" M 521.170, 827.538 520.105, 833.280 519.814, 838.986 519.752, 840.207 519.192, 844.049 518.813, 846.648 518.871, 847.134 519.012, 848.312 " fill="none" stroke="rgb(0, 0, 0)" stroke-linecap="butt" stroke-linejoin="round" stroke-opacity="1.0" stroke-width="3.0" />
            <path d=" M 528.590, 797.542 528.599, 797.628 528.749, 799.045 529.362, 804.822 529.350, 805.226 529.337, 805.673 529.313, 806.537 529.212, 810.014 531.550, 814.579 532.643, 816.714 533.116, 817.636 " fill="none" stroke="rgb(0, 0, 0)" stroke-linecap="butt" stroke-linejoin="round" stroke-opacity="1.0" stroke-width="3.0" />
            <path d=" M 787.948, 724.973 787.257, 725.278 785.306, 726.138 785.237, 726.397 785.222, 726.453 784.840, 727.889 784.332, 729.797 783.765, 731.129 783.531, 731.679 783.333, 732.144 782.528, 734.035 782.478, 734.153 782.036, 735.192 781.921, 735.462 781.108, 736.401 780.777, 736.784 779.960, 737.728 779.936, 737.756 779.882, 737.818 779.624, 738.117 779.512, 738.324 779.325, 738.671 778.034, 741.066 777.812, 741.477 777.675, 741.731 777.559, 741.945 777.550, 741.963 777.435, 742.176 777.413, 742.216 777.368, 742.301 " fill="none" stroke="rgb(0, 0, 0)" stroke-linecap="butt" stroke-linejoin="round" stroke-opacity="1.0" stroke-width="3.0" />
            <path d=" M 820.969, 652.779 819.356, 646.511 818.687, 639.085 818.112, 634.595 818.067, 631.845 " fill="none" stroke="rgb(0, 0, 0)" stroke-linecap="butt" stroke-linejoin="round" stroke-opacity="1.0" stroke-width="3.0" />
            <path d=" M 747.368, 713.995 745.318, 716.772 743.591, 719.501 742.659, 722.533 742.646, 722.577 742.546, 722.902 742.277, 724.787 743.091, 726.809 743.167, 726.999 743.366, 727.650 744.248, 730.542 745.781, 731.552 746.818, 732.167 " fill="none" stroke="rgb(0, 0, 0)" stroke-linecap="butt" stroke-linejoin="round" stroke-opacity="1.0" stroke-width="3.0" />
            <path d=" M 866.119, 663.240 864.706, 664.104 862.049, 665.729 857.237, 669.511 849.450, 674.090 848.521, 674.794 848.497, 674.812 848.276, 674.980 " fill="none" stroke="rgb(0, 0, 0)" stroke-linecap="butt" stroke-linejoin="round" stroke-opacity="1.0" stroke-width="3.0" />
            <path d=" M 662.818, 331.175 658.825, 334.448 650.888, 339.609 652.696, 338.465 656.907, 336.492 " fill="none" stroke="rgb(0, 0, 0)" stroke-linecap="butt" stroke-linejoin="round" stroke-opacity="1.0" stroke-width="3.0" />
            <path d=" M 752.927, 634.401 746.341, 634.465 741.900, 631.212 739.324, 628.551 738.816, 628.427 737.532, 628.112 735.898, 627.712 733.926, 627.716 733.797, 627.716 " fill="none" stroke="rgb(0, 0, 0)" stroke-linecap="butt" stroke-linejoin="round" stroke-opacity="1.0" stroke-width="3.0" />
            <path d=" M 924.728, 634.750 925.337, 637.014 927.052, 638.703 928.104, 640.223 933.657, 641.645 936.898, 644.656 937.036, 644.784 937.075, 644.820 937.089, 644.833 937.445, 645.164 937.477, 645.193 937.489, 645.205 937.814, 645.507 938.304, 645.962 939.640, 648.558 " fill="none" stroke="rgb(0, 0, 0)" stroke-linecap="butt" stroke-linejoin="round" stroke-opacity="1.0" stroke-width="3.0" />
            <path d=" M 607.912, 630.216 607.802, 633.351 607.655, 633.908 607.650, 633.929 607.598, 634.127 607.438, 634.737 607.427, 634.777 606.994, 636.428 606.188, 641.212 605.078, 644.680 605.084, 647.716 605.440, 649.362 605.925, 651.605 " fill="none" stroke="rgb(0, 0, 0)" stroke-linecap="butt" stroke-linejoin="round" stroke-opacity="1.0" stroke-width="3.0" />
            <path d=" M 645.029, 717.069 645.025, 717.205 645.992, 718.483 646.829, 718.873 648.371, 717.618 652.241, 712.882 655.532, 708.025 656.452, 706.723 656.900, 706.089 656.972, 705.987 658.366, 704.014 658.406, 703.958 658.590, 703.697 " fill="none" stroke="rgb(0, 0, 0)" stroke-linecap="butt" stroke-linejoin="round" stroke-opacity="1.0" stroke-width="3.0" />
            <path d=" M 609.755, 649.596 608.956, 651.378 607.588, 654.433 607.130, 657.618 607.432, 659.639 608.381, 661.047 608.656, 661.454 608.906, 661.826 609.225, 662.452 609.453, 662.900 609.530, 663.052 610.118, 664.207 610.399, 664.760 611.743, 664.385 612.479, 664.180 612.722, 664.113 613.244, 663.967 613.598, 663.868 613.682, 663.845 613.827, 663.804 613.990, 663.759 614.742, 663.549 614.800, 663.533 614.988, 663.481 615.028, 663.469 615.235, 663.412 615.453, 663.351 615.716, 663.278 " fill="none" stroke="rgb(0, 0, 0)" stroke-linecap="butt" stroke-linejoin="round" stroke-opacity="1.0" stroke-width="3.0" />
            <path d=" M 640.216, 709.367 643.146, 705.529 646.281, 701.003 646.794, 698.904 647.355, 696.048 647.474, 695.443 647.584, 694.882 647.626, 694.667 647.635, 694.622 647.649, 694.549 647.731, 694.133 647.744, 694.067 647.762, 693.975 647.886, 693.343 647.912, 693.268 649.144, 689.704 " fill="none" stroke="rgb(0, 0, 0)" stroke-linecap="butt" stroke-linejoin="round" stroke-opacity="1.0" stroke-width="3.0" />
            <path d=" M 595.141, 611.935 597.946, 608.145 598.132, 607.894 601.967, 604.944 606.942, 602.292 607.078, 602.220 607.105, 602.205 607.232, 602.137 607.264, 602.073 607.266, 602.069 607.279, 602.042 609.980, 596.579 " fill="none" stroke="rgb(0, 0, 0)" stroke-linecap="butt" stroke-linejoin="round" stroke-opacity="1.0" stroke-width="3.0" />
            <path d=" M 528.821, 481.489 528.962, 483.829 530.165, 485.742 532.243, 487.520 536.233, 488.871 538.584, 490.831 540.822, 492.026 542.221, 492.454 543.696, 492.633 544.838, 493.078 545.520, 493.343 " fill="none" stroke="rgb(0, 0, 0)" stroke-linecap="butt" stroke-linejoin="round" stroke-opacity="1.0" stroke-width="3.0" />
            <path d=" M 559.689, 728.393 560.352, 720.671 560.426, 720.107 561.141, 714.643 561.246, 713.837 561.402, 712.645 561.469, 712.130 561.700, 706.433 " fill="none" stroke="rgb(0, 0, 0)" stroke-linecap="butt" stroke-linejoin="round" stroke-opacity="1.0" stroke-width="3.0" />
            <path d=" M 741.548, 768.054 741.762, 767.617 744.566, 758.105 746.180, 752.142 747.053, 748.793 748.910, 747.985 " fill="none" stroke="rgb(0, 0, 0)" stroke-linecap="butt" stroke-linejoin="round" stroke-opacity="1.0" stroke-width="3.0" />
            <path d=" M 525.723, 779.478 523.405, 789.206 522.636, 792.434 522.725, 799.370 522.749, 801.263 " fill="none" stroke="rgb(0, 0, 0)" stroke-linecap="butt" stroke-linejoin="round" stroke-opacity="1.0" stroke-width="3.0" />
            <path d=" M 756.466, 594.527 756.486, 594.618 757.318, 598.415 757.793, 602.116 757.823, 602.350 757.988, 603.639 758.036, 604.011 758.039, 604.038 758.432, 607.106 758.997, 611.514 759.586, 615.959 759.610, 616.617 " fill="none" stroke="rgb(0, 0, 0)" stroke-linecap="butt" stroke-linejoin="round" stroke-opacity="1.0" stroke-width="3.0" />
            <path d=" M 722.580, 802.038 718.344, 805.605 717.754, 806.101 717.360, 806.433 716.651, 807.030 714.870, 809.145 714.316, 809.802 712.949, 811.425 711.326, 813.855 710.661, 814.851 708.015, 818.811 " fill="none" stroke="rgb(0, 0, 0)" stroke-linecap="butt" stroke-linejoin="round" stroke-opacity="1.0" stroke-width="3.0" />
            <path d=" M 864.435, 666.603 863.806, 667.148 863.415, 667.488 863.091, 667.768 860.748, 669.800 855.065, 672.236 850.194, 674.145 848.659, 674.813 848.646, 674.819 848.276, 674.980 848.236, 674.998 844.527, 676.613 " fill="none" stroke="rgb(0, 0, 0)" stroke-linecap="butt" stroke-linejoin="round" stroke-opacity="1.0" stroke-width="3.0" />
            <path d=" M 923.873, 404.103 920.529, 396.244 920.043, 395.100 916.324, 390.903 911.956, 385.324 " fill="none" stroke="rgb(0, 0, 0)" stroke-linecap="butt" stroke-linejoin="round" stroke-opacity="1.0" stroke-width="3.0" />
            <path d=" M 593.843, 614.680 595.445, 616.225 597.830, 618.363 599.738, 619.839 602.889, 623.064 604.554, 625.934 607.089, 632.413 607.160, 632.594 " fill="none" stroke="rgb(0, 0, 0)" stroke-linecap="butt" stroke-linejoin="round" stroke-opacity="1.0" stroke-width="3.0" />
            <path d=" M 615.650, 578.049 610.814, 574.839 609.197, 573.766 601.752, 567.089 600.163, 565.664 599.567, 565.021 597.956, 563.285 " fill="none" stroke="rgb(0, 0, 0)" stroke-linecap="butt" stroke-linejoin="round" stroke-opacity="1.0" stroke-width="3.0" />
            <path d=" M 742.311, 535.322 743.957, 535.365 753.953, 535.629 756.425, 535.694 749.942, 535.182 749.252, 535.082 749.113, 535.062 747.463, 534.823 " fill="none" stroke="rgb(0, 0, 0)" stroke-linecap="butt" stroke-linejoin="round" stroke-opacity="1.0" stroke-width="3.0" />
            <path d=" M 647.860, 724.305 648.578, 723.290 652.249, 718.101 656.740, 716.725 661.655, 714.267 664.144, 713.187 664.318, 713.112 664.375, 713.079 666.794, 711.696 " fill="none" stroke="rgb(0, 0, 0)" stroke-linecap="butt" stroke-linejoin="round" stroke-opacity="1.0" stroke-width="3.0" />
            <path d=" M 581.240, 806.017 581.979, 805.773 583.492, 805.274 586.651, 802.998 590.915, 799.272 592.488, 796.297 592.757, 793.384 592.094, 791.191 590.593, 789.575 589.704, 789.277 " fill="none" stroke="rgb(0, 0, 0)" stroke-linecap="butt" stroke-linejoin="round" stroke-opacity="1.0" stroke-width="3.0" />
            <path d=" M 525.848, 774.437 525.723, 779.478 525.584, 785.046 525.604, 785.446 526.100, 786.806 527.607, 790.936 527.913, 792.992 527.931, 793.111 528.590, 797.542 528.607, 797.663 528.609, 797.675 " fill="none" stroke="rgb(0, 0, 0)" stroke-linecap="butt" stroke-linejoin="round" stroke-opacity="1.0" stroke-width="3.0" />
            <path d=" M 821.399, 302.761 818.217, 302.288 815.517, 301.886 810.495, 299.047 804.740, 298.028 801.144, 298.311 800.275, 298.992 799.813, 300.361 " fill="none" stroke="rgb(0, 0, 0)" stroke-linecap="butt" stroke-linejoin="round" stroke-opacity="1.0" stroke-width="3.0" />
            <path d=" M 675.271, 324.133 670.093, 325.476 664.044, 329.780 662.818, 331.175 660.330, 334.008 656.907, 336.492 656.763, 336.596 656.010, 337.143 " fill="none" stroke="rgb(0, 0, 0)" stroke-linecap="butt" stroke-linejoin="round" stroke-opacity="1.0" stroke-width="3.0" />
            <path d=" M 648.719, 635.685 648.274, 635.443 647.746, 635.155 647.659, 635.108 647.657, 635.107 645.752, 634.070 642.976, 632.559 640.728, 632.085 640.403, 632.017 639.712, 631.871 636.056, 631.100 635.251, 630.930 631.667, 631.462 631.134, 631.541 630.956, 631.568 628.605, 630.944 626.769, 629.540 626.264, 629.154 " fill="none" stroke="rgb(0, 0, 0)" stroke-linecap="butt" stroke-linejoin="round" stroke-opacity="1.0" stroke-width="3.0" />
            <path d=" M 643.907, 718.028 644.520, 717.400 644.892, 717.018 645.035, 716.871 645.371, 716.526 646.851, 715.009 652.915, 708.349 654.131, 704.943 654.304, 704.459 654.486, 703.948 654.948, 702.654 655.513, 701.072 655.592, 698.186 655.601, 697.845 655.606, 697.690 " fill="none" stroke="rgb(0, 0, 0)" stroke-linecap="butt" stroke-linejoin="round" stroke-opacity="1.0" stroke-width="3.0" />
            <path d=" M 931.774, 418.329 929.875, 413.142 926.096, 406.538 923.683, 401.094 920.612, 396.355 920.529, 396.244 " fill="none" stroke="rgb(0, 0, 0)" stroke-linecap="butt" stroke-linejoin="round" stroke-opacity="1.0" stroke-width="3.0" />
            <path d=" M 642.297, 654.951 643.237, 655.078 645.557, 655.511 647.410, 655.575 648.621, 654.608 650.152, 653.387 653.299, 647.983 654.094, 644.347 653.901, 640.561 653.899, 640.533 653.898, 640.515 653.892, 640.385 653.876, 640.071 653.863, 639.818 654.708, 638.344 " fill="none" stroke="rgb(0, 0, 0)" stroke-linecap="butt" stroke-linejoin="round" stroke-opacity="1.0" stroke-width="3.0" />
            <path d=" M 794.835, 727.928 793.761, 729.430 793.523, 729.762 793.303, 730.070 792.733, 730.867 792.366, 731.380 787.742, 737.047 787.395, 738.107 787.389, 738.127 787.112, 738.974 786.886, 739.664 786.741, 740.107 786.633, 740.437 785.902, 742.672 785.704, 743.149 783.115, 749.389 783.006, 749.652 " fill="none" stroke="rgb(0, 0, 0)" stroke-linecap="butt" stroke-linejoin="round" stroke-opacity="1.0" stroke-width="3.0" />
            <path d=" M 673.506, 609.283 673.916, 609.311 673.935, 609.313 674.077, 609.323 674.271, 609.336 674.647, 609.112 674.962, 608.924 675.358, 607.876 675.683, 607.018 675.775, 606.773 677.845, 601.300 679.138, 596.610 679.219, 596.315 679.401, 595.653 679.487, 595.344 679.510, 595.261 679.514, 595.245 679.561, 595.073 680.051, 593.296 680.376, 592.273 681.001, 590.304 681.500, 588.735 681.732, 588.004 681.856, 587.613 681.993, 587.183 682.007, 587.139 682.055, 586.987 682.204, 586.517 " fill="none" stroke="rgb(0, 0, 0)" stroke-linecap="butt" stroke-linejoin="round" stroke-opacity="1.0" stroke-width="3.0" />
            <path d=" M 737.588, 550.680 739.444, 553.401 742.985, 557.698 743.625, 558.233 743.745, 558.333 743.848, 558.419 744.255, 558.759 745.850, 560.091 750.238, 562.988 750.671, 563.268 751.438, 563.763 756.498, 567.031 " fill="none" stroke="rgb(0, 0, 0)" stroke-linecap="butt" stroke-linejoin="round" stroke-opacity="1.0" stroke-width="3.0" />
            <path d=" M 751.389, 767.161 748.879, 770.580 748.342, 771.338 747.577, 772.419 743.228, 778.567 741.155, 781.508 740.243, 782.802 739.708, 783.561 736.595, 787.711 " fill="none" stroke="rgb(0, 0, 0)" stroke-linecap="butt" stroke-linejoin="round" stroke-opacity="1.0" stroke-width="3.0" />
            <path d=" M 569.591, 909.512 569.629, 909.151 569.877, 906.764 569.952, 906.047 570.017, 905.428 570.125, 904.389 570.140, 904.171 570.141, 904.160 570.183, 903.567 570.192, 903.440 570.532, 898.647 570.782, 895.115 571.124, 891.977 571.962, 884.292 " fill="none" stroke="rgb(0, 0, 0)" stroke-linecap="butt" stroke-linejoin="round" stroke-opacity="1.0" stroke-width="3.0" />
            <path d=" M 613.692, 639.196 612.610, 640.894 612.575, 640.950 612.355, 641.295 610.349, 644.445 609.993, 646.919 609.686, 649.053 609.802, 649.335 609.867, 649.495 610.488, 651.012 612.994, 653.278 613.446, 653.687 613.915, 653.956 613.921, 653.959 614.069, 654.044 615.141, 654.660 615.285, 654.643 615.443, 654.625 615.789, 654.585 615.993, 654.561 616.221, 654.535 617.567, 654.365 617.586, 654.363 617.593, 654.362 617.615, 654.359 617.634, 654.357 617.634, 654.357 619.247, 654.154 621.492, 653.871 " fill="none" stroke="rgb(0, 0, 0)" stroke-linecap="butt" stroke-linejoin="round" stroke-opacity="1.0" stroke-width="3.0" />
            <path d=" M 562.662, 520.104 563.092, 525.174 563.281, 531.844 563.667, 537.369 564.451, 544.483 564.727, 545.384 " fill="none" stroke="rgb(0, 0, 0)" stroke-linecap="butt" stroke-linejoin="round" stroke-opacity="1.0" stroke-width="3.0" />
            <path d=" M 689.412, 478.268 690.094, 476.382 690.136, 476.267 691.435, 472.674 689.443, 462.875 688.601, 458.730 688.542, 458.444 688.436, 457.919 688.424, 457.861 688.408, 457.782 688.335, 457.423 688.295, 457.229 688.287, 457.137 688.258, 456.824 688.147, 455.615 688.008, 454.102 687.954, 453.515 " fill="none" stroke="rgb(0, 0, 0)" stroke-linecap="butt" stroke-linejoin="round" stroke-opacity="1.0" stroke-width="3.0" />
            <path d=" M 570.532, 898.647 570.925, 896.618 571.512, 893.592 571.801, 889.271 572.593, 884.188 573.469, 877.485 573.822, 873.155 " fill="none" stroke="rgb(0, 0, 0)" stroke-linecap="butt" stroke-linejoin="round" stroke-opacity="1.0" stroke-width="3.0" />
            <path d=" M 644.031, 981.805 647.562, 979.110 650.511, 976.571 652.154, 975.156 652.320, 975.013 653.741, 973.659 660.348, 966.153 661.070, 965.333 662.304, 963.625 " fill="none" stroke="rgb(0, 0, 0)" stroke-linecap="butt" stroke-linejoin="round" stroke-opacity="1.0" stroke-width="3.0" />
            <path d=" M 670.459, 745.331 671.758, 747.641 673.319, 748.465 677.796, 750.207 679.501, 751.341 682.030, 752.809 686.413, 754.808 688.737, 753.951 690.344, 749.731 " fill="none" stroke="rgb(0, 0, 0)" stroke-linecap="butt" stroke-linejoin="round" stroke-opacity="1.0" stroke-width="3.0" />
            <path d=" M 596.267, 477.734 596.180, 477.881 595.985, 478.209 593.374, 482.603 592.766, 484.542 592.120, 486.602 591.863, 488.225 591.558, 490.148 591.276, 492.211 591.974, 493.724 592.297, 494.423 593.269, 496.527 594.282, 498.721 594.422, 498.759 595.002, 498.916 595.481, 499.045 595.570, 499.070 597.701, 499.646 " fill="none" stroke="rgb(0, 0, 0)" stroke-linecap="butt" stroke-linejoin="round" stroke-opacity="1.0" stroke-width="3.0" />
            <path d=" M 698.650, 810.453 695.576, 809.472 693.334, 809.578 691.285, 811.935 690.992, 813.589 690.651, 817.051 691.693, 823.877 693.766, 829.159 " fill="none" stroke="rgb(0, 0, 0)" stroke-linecap="butt" stroke-linejoin="round" stroke-opacity="1.0" stroke-width="3.0" />
            <path d=" M 667.719, 614.475 667.490, 614.439 664.385, 613.950 664.328, 613.939 659.524, 613.026 656.320, 612.862 654.452, 612.749 651.504, 612.594 650.616, 612.693 648.799, 612.895 648.545, 612.924 646.124, 613.193 643.904, 613.508 641.546, 613.843 " fill="none" stroke="rgb(0, 0, 0)" stroke-linecap="butt" stroke-linejoin="round" stroke-opacity="1.0" stroke-width="3.0" />
            <path d=" M 532.994, 955.398 537.421, 963.575 542.027, 970.748 543.631, 972.994 545.936, 977.719 546.248, 978.358 " fill="none" stroke="rgb(0, 0, 0)" stroke-linecap="butt" stroke-linejoin="round" stroke-opacity="1.0" stroke-width="3.0" />
            <path d=" M 576.660, 852.712 576.671, 852.581 576.730, 851.821 576.762, 851.405 576.933, 849.205 577.052, 847.666 577.099, 847.063 577.100, 847.056 577.293, 844.566 577.670, 839.940 577.759, 838.840 577.859, 837.619 578.255, 832.753 578.429, 830.616 578.671, 828.863 579.049, 826.119 " fill="none" stroke="rgb(0, 0, 0)" stroke-linecap="butt" stroke-linejoin="round" stroke-opacity="1.0" stroke-width="3.0" />
            <path d=" M 629.690, 613.814 626.064, 612.760 621.510, 612.294 620.687, 612.094 618.906, 611.661 618.271, 611.507 616.702, 611.126 615.645, 610.869 615.581, 610.853 615.569, 610.850 615.447, 610.820 615.014, 610.715 612.058, 608.653 611.274, 608.105 610.532, 606.997 607.439, 602.375 607.279, 602.042 " fill="none" stroke="rgb(0, 0, 0)" stroke-linecap="butt" stroke-linejoin="round" stroke-opacity="1.0" stroke-width="3.0" />
            <path d=" M 633.449, 619.026 634.446, 619.830 634.857, 620.161 634.885, 620.169 637.890, 621.025 638.697, 621.439 641.873, 623.066 642.552, 623.415 648.590, 626.835 650.996, 626.795 651.887, 626.460 652.296, 626.306 653.609, 625.813 655.584, 621.705 " fill="none" stroke="rgb(0, 0, 0)" stroke-linecap="butt" stroke-linejoin="round" stroke-opacity="1.0" stroke-width="3.0" />
            <path d=" M 940.307, 494.256 941.208, 489.068 942.892, 484.504 943.616, 477.450 943.803, 472.834 943.871, 468.726 943.760, 467.601 " fill="none" stroke="rgb(0, 0, 0)" stroke-linecap="butt" stroke-linejoin="round" stroke-opacity="1.0" stroke-width="3.0" />
            <path d=" M 630.995, 938.384 629.976, 939.727 629.644, 940.166 628.718, 941.387 628.368, 941.850 628.328, 941.902 627.957, 942.485 627.897, 942.580 627.482, 943.232 626.479, 944.809 625.275, 946.702 624.213, 948.371 623.951, 948.843 623.800, 949.116 623.300, 950.016 623.016, 950.530 622.621, 951.241 620.674, 953.908 620.639, 953.956 620.061, 954.748 618.727, 957.037 616.983, 959.218 616.954, 959.254 616.422, 959.919 616.416, 959.926 616.186, 960.136 616.184, 960.137 615.341, 960.905 " fill="none" stroke="rgb(0, 0, 0)" stroke-linecap="butt" stroke-linejoin="round" stroke-opacity="1.0" stroke-width="3.0" />
            <path d=" M 716.488, 747.359 716.573, 748.611 716.573, 748.617 716.579, 748.703 716.587, 748.825 716.588, 748.834 716.603, 749.053 716.604, 749.068 716.605, 749.089 716.833, 752.449 716.796, 753.372 716.739, 754.802 716.779, 761.623 717.639, 764.510 718.038, 765.486 719.391, 766.329 721.335, 765.717 724.423, 761.096 " fill="none" stroke="rgb(0, 0, 0)" stroke-linecap="butt" stroke-linejoin="round" stroke-opacity="1.0" stroke-width="3.0" />
            <path d=" M 558.121, 741.984 560.357, 732.210 560.790, 723.501 561.046, 719.188 561.216, 716.324 561.141, 714.643 " fill="none" stroke="rgb(0, 0, 0)" stroke-linecap="butt" stroke-linejoin="round" stroke-opacity="1.0" stroke-width="3.0" />
            <path d=" M 575.755, 929.109 576.735, 932.656 577.516, 936.489 577.153, 933.376 576.991, 931.984 576.858, 930.848 576.858, 930.847 576.623, 928.828 576.441, 927.271 575.536, 924.422 575.464, 924.196 575.093, 923.028 574.173, 920.134 572.528, 917.315 " fill="none" stroke="rgb(0, 0, 0)" stroke-linecap="butt" stroke-linejoin="round" stroke-opacity="1.0" stroke-width="3.0" />
            <path d=" M 803.701, 537.241 804.196, 537.753 808.312, 542.014 809.224, 545.267 808.727, 553.929 810.889, 562.743 " fill="none" stroke="rgb(0, 0, 0)" stroke-linecap="butt" stroke-linejoin="round" stroke-opacity="1.0" stroke-width="3.0" />
            <path d=" M 585.475, 501.990 587.460, 507.459 588.827, 511.225 589.668, 513.541 589.734, 513.724 590.082, 514.683 590.540, 515.776 591.724, 518.600 591.827, 518.845 592.163, 519.647 592.983, 521.605 593.932, 523.869 594.492, 525.204 595.769, 528.254 " fill="none" stroke="rgb(0, 0, 0)" stroke-linecap="butt" stroke-linejoin="round" stroke-opacity="1.0" stroke-width="3.0" />
            <path d=" M 632.393, 696.943 631.926, 697.692 631.527, 703.408 632.286, 706.621 632.313, 707.745 632.542, 710.691 633.523, 714.300 635.618, 714.887 638.592, 712.381 638.839, 711.924 640.216, 709.367 640.703, 708.464 " fill="none" stroke="rgb(0, 0, 0)" stroke-linecap="butt" stroke-linejoin="round" stroke-opacity="1.0" stroke-width="3.0" />
            <path d=" M 533.437, 699.537 533.322, 701.403 534.118, 711.371 534.346, 714.232 534.477, 715.163 535.865, 725.066 536.251, 727.818 " fill="none" stroke="rgb(0, 0, 0)" stroke-linecap="butt" stroke-linejoin="round" stroke-opacity="1.0" stroke-width="3.0" />
            <path d=" M 696.170, 915.497 698.570, 912.149 698.602, 912.104 703.895, 904.721 704.450, 903.946 708.884, 897.501 711.495, 891.480 " fill="none" stroke="rgb(0, 0, 0)" stroke-linecap="butt" stroke-linejoin="round" stroke-opacity="1.0" stroke-width="3.0" />
            <path d=" M 740.002, 574.439 743.676, 573.552 747.497, 577.272 748.080, 578.219 749.891, 581.157 754.031, 588.646 756.486, 594.618 " fill="none" stroke="rgb(0, 0, 0)" stroke-linecap="butt" stroke-linejoin="round" stroke-opacity="1.0" stroke-width="3.0" />
            <path d=" M 568.625, 523.716 568.812, 523.857 570.039, 524.785 574.663, 526.184 579.282, 527.776 581.067, 528.391 582.482, 528.879 583.207, 529.128 585.833, 530.034 591.315, 530.212 593.839, 530.294 595.881, 529.173 " fill="none" stroke="rgb(0, 0, 0)" stroke-linecap="butt" stroke-linejoin="round" stroke-opacity="1.0" stroke-width="3.0" />
            <path d=" M 581.067, 528.391 580.668, 528.347 579.469, 529.164 579.092, 529.421 578.279, 530.515 576.719, 532.616 576.674, 535.194 577.467, 543.436 578.077, 549.341 577.587, 555.202 " fill="none" stroke="rgb(0, 0, 0)" stroke-linecap="butt" stroke-linejoin="round" stroke-opacity="1.0" stroke-width="3.0" />
            <path d=" M 631.641, 746.698 637.724, 738.760 637.809, 738.650 640.586, 736.148 644.759, 729.885 646.831, 726.291 648.578, 723.290 " fill="none" stroke="rgb(0, 0, 0)" stroke-linecap="butt" stroke-linejoin="round" stroke-opacity="1.0" stroke-width="3.0" />
            <path d=" M 913.128, 387.180 911.956, 385.324 908.777, 380.289 904.595, 375.397 900.688, 371.283 900.574, 371.082 899.229, 368.694 898.236, 367.955 894.448, 365.136 " fill="none" stroke="rgb(0, 0, 0)" stroke-linecap="butt" stroke-linejoin="round" stroke-opacity="1.0" stroke-width="3.0" />
            <path d=" M 786.131, 787.518 788.239, 786.609 790.082, 785.815 798.362, 782.326 801.807, 780.261 807.513, 776.522 809.154, 774.871 810.802, 772.602 " fill="none" stroke="rgb(0, 0, 0)" stroke-linecap="butt" stroke-linejoin="round" stroke-opacity="1.0" stroke-width="3.0" />
            <path d=" M 530.734, 949.719 531.225, 951.978 532.994, 955.398 530.734, 949.719 530.518, 949.175 528.513, 944.891 528.021, 943.310 526.227, 938.405 525.379, 933.423 " fill="none" stroke="rgb(0, 0, 0)" stroke-linecap="butt" stroke-linejoin="round" stroke-opacity="1.0" stroke-width="3.0" />
            <path d=" M 936.402, 539.928 937.629, 538.829 938.010, 538.488 939.802, 535.566 940.829, 530.303 940.390, 527.423 938.499, 518.294 935.375, 515.110 934.933, 514.660 934.766, 514.489 934.749, 514.471 934.051, 513.657 " fill="none" stroke="rgb(0, 0, 0)" stroke-linecap="butt" stroke-linejoin="round" stroke-opacity="1.0" stroke-width="3.0" />
            <path d=" M 822.682, 307.121 825.691, 307.394 825.839, 307.407 827.102, 307.522 827.147, 307.526 827.549, 307.570 828.583, 307.682 829.531, 307.785 831.890, 308.042 834.614, 308.327 827.496, 305.645 824.114, 303.143 820.854, 302.177 818.217, 302.288 " fill="none" stroke="rgb(0, 0, 0)" stroke-linecap="butt" stroke-linejoin="round" stroke-opacity="1.0" stroke-width="3.0" />
            <path d=" M 629.703, 419.789 626.261, 424.175 621.083, 432.730 616.374, 440.513 615.466, 442.916 614.538, 445.374 " fill="none" stroke="rgb(0, 0, 0)" stroke-linecap="butt" stroke-linejoin="round" stroke-opacity="1.0" stroke-width="3.0" />
            <path d=" M 778.034, 741.066 777.510, 741.373 776.964, 741.694 776.957, 741.698 776.870, 741.749 776.659, 741.874 776.083, 742.212 776.013, 742.253 775.282, 742.682 774.602, 743.082 774.409, 743.195 773.638, 743.674 773.301, 743.883 772.972, 744.087 772.933, 744.111 770.862, 745.396 768.904, 747.961 768.844, 748.039 768.776, 748.128 767.441, 749.878 765.115, 752.924 764.774, 753.371 762.564, 756.267 757.325, 762.059 757.211, 762.185 " fill="none" stroke="rgb(0, 0, 0)" stroke-linecap="butt" stroke-linejoin="round" stroke-opacity="1.0" stroke-width="3.0" />
            <path d=" M 587.306, 636.632 587.684, 634.924 588.940, 629.246 592.019, 619.731 593.040, 616.578 593.549, 615.005 593.759, 614.599 594.405, 613.354 595.141, 611.935 597.308, 607.758 " fill="none" stroke="rgb(0, 0, 0)" stroke-linecap="butt" stroke-linejoin="round" stroke-opacity="1.0" stroke-width="3.0" />
            <path d=" M 545.936, 977.719 546.317, 978.891 551.207, 986.282 555.502, 989.551 558.261, 991.536 559.512, 991.757 559.573, 991.768 562.548, 993.172 564.357, 994.026 562.656, 993.230 559.512, 991.757 " fill="none" stroke="rgb(0, 0, 0)" stroke-linecap="butt" stroke-linejoin="round" stroke-opacity="1.0" stroke-width="3.0" />
            <path d=" M 572.850, 877.408 573.822, 873.155 574.608, 869.715 575.796, 859.786 576.003, 858.053 576.238, 857.027 576.687, 853.834 576.766, 853.268 576.933, 852.081 576.966, 851.848 577.054, 851.226 577.366, 849.291 577.423, 848.937 577.573, 848.012 577.393, 847.648 577.108, 847.074 577.100, 847.056 " fill="none" stroke="rgb(0, 0, 0)" stroke-linecap="butt" stroke-linejoin="round" stroke-opacity="1.0" stroke-width="3.0" />
            <path d=" M 659.194, 967.193 662.304, 963.625 666.916, 958.333 671.509, 952.463 676.258, 946.907 678.566, 943.175 " fill="none" stroke="rgb(0, 0, 0)" stroke-linecap="butt" stroke-linejoin="round" stroke-opacity="1.0" stroke-width="3.0" />
            <path d=" M 676.711, 854.560 676.593, 854.630 675.962, 855.007 669.873, 859.946 664.174, 867.370 660.714, 872.754 657.493, 878.328 " fill="none" stroke="rgb(0, 0, 0)" stroke-linecap="butt" stroke-linejoin="round" stroke-opacity="1.0" stroke-width="3.0" />
            <path d=" M 702.963, 759.049 703.663, 759.795 704.438, 760.060 704.021, 759.774 702.963, 759.049 701.797, 758.250 698.728, 758.672 696.190, 758.911 690.599, 755.753 691.118, 752.447 691.200, 751.792 692.241, 750.187 693.989, 748.322 694.497, 746.668 693.816, 745.494 691.863, 745.588 691.522, 745.605 " fill="none" stroke="rgb(0, 0, 0)" stroke-linecap="butt" stroke-linejoin="round" stroke-opacity="1.0" stroke-width="3.0" />
            <path d=" M 606.769, 385.085 602.575, 384.033 598.395, 384.334 594.885, 385.415 588.386, 390.132 584.858, 393.666 584.120, 396.274 584.066, 396.886 583.879, 399.046 583.792, 400.057 583.779, 400.201 " fill="none" stroke="rgb(0, 0, 0)" stroke-linecap="butt" stroke-linejoin="round" stroke-opacity="1.0" stroke-width="3.0" />
            <path d=" M 650.888, 339.609 647.354, 343.142 643.079, 346.369 638.444, 351.446 632.581, 359.139 630.643, 364.155 " fill="none" stroke="rgb(0, 0, 0)" stroke-linecap="butt" stroke-linejoin="round" stroke-opacity="1.0" stroke-width="3.0" />
            <path d=" M 695.554, 917.860 694.105, 920.597 691.363, 925.309 695.554, 917.860 696.350, 916.445 701.762, 908.035 703.895, 904.721 " fill="none" stroke="rgb(0, 0, 0)" stroke-linecap="butt" stroke-linejoin="round" stroke-opacity="1.0" stroke-width="3.0" />
            <path d=" M 861.098, 323.402 859.471, 321.881 854.185, 318.653 851.495, 317.671 846.881, 316.430 845.612, 316.167 839.878, 315.549 839.386, 315.496 838.990, 315.453 838.931, 315.447 836.175, 315.149 836.147, 315.140 835.231, 314.826 835.211, 314.819 833.462, 314.246 832.979, 314.088 832.802, 314.030 832.780, 314.023 832.629, 313.973 832.226, 313.842 831.864, 313.723 830.109, 313.148 " fill="none" stroke="rgb(0, 0, 0)" stroke-linecap="butt" stroke-linejoin="round" stroke-opacity="1.0" stroke-width="3.0" />
            <path d=" M 758.875, 761.217 757.675, 761.915 757.211, 762.185 753.731, 764.208 753.371, 764.561 753.362, 764.570 753.116, 764.811 751.829, 766.070 751.389, 767.161 751.217, 767.588 750.131, 770.280 749.687, 771.380 749.504, 771.654 743.943, 779.964 743.548, 780.554 737.929, 786.765 " fill="none" stroke="rgb(0, 0, 0)" stroke-linecap="butt" stroke-linejoin="round" stroke-opacity="1.0" stroke-width="3.0" />
            <path d=" M 879.404, 347.901 879.221, 347.169 879.076, 346.585 877.005, 338.290 876.841, 337.352 876.274, 334.101 873.913, 330.829 866.986, 327.473 866.631, 327.228 866.340, 327.027 861.098, 323.402 860.481, 322.976 " fill="none" stroke="rgb(0, 0, 0)" stroke-linecap="butt" stroke-linejoin="round" stroke-opacity="1.0" stroke-width="3.0" />
            <path d=" M 743.091, 726.809 740.237, 729.457 739.517, 730.662 739.514, 730.667 739.313, 731.002 739.188, 731.212 739.047, 731.448 738.516, 733.028 738.230, 733.883 738.145, 734.135 737.224, 736.879 737.101, 737.916 736.771, 740.691 737.917, 743.350 741.558, 743.890 744.974, 745.538 745.229, 745.539 745.730, 745.540 745.907, 745.540 747.816, 745.544 748.048, 745.849 748.098, 745.915 748.114, 745.936 748.610, 746.586 748.910, 747.985 749.313, 749.862 749.336, 750.206 " fill="none" stroke="rgb(0, 0, 0)" stroke-linecap="butt" stroke-linejoin="round" stroke-opacity="1.0" stroke-width="3.0" />
            <path d=" M 835.733, 627.013 841.598, 628.269 843.815, 628.566 847.890, 629.111 856.443, 628.460 860.682, 626.476 865.975, 622.396 867.102, 621.527 867.186, 621.462 867.359, 621.329 " fill="none" stroke="rgb(0, 0, 0)" stroke-linecap="butt" stroke-linejoin="round" stroke-opacity="1.0" stroke-width="3.0" />
            <path d=" M 599.397, 570.916 597.971, 563.364 597.956, 563.285 597.896, 562.968 597.874, 562.871 595.832, 554.028 594.777, 549.601 593.484, 544.076 592.748, 541.078 591.906, 537.651 " fill="none" stroke="rgb(0, 0, 0)" stroke-linecap="butt" stroke-linejoin="round" stroke-opacity="1.0" stroke-width="3.0" />
            <path d=" M 679.307, 893.893 679.769, 893.544 681.079, 892.554 686.457, 888.490 686.636, 888.354 687.635, 887.391 690.119, 884.993 696.596, 880.532 696.657, 880.490 697.826, 879.685 701.552, 875.692 702.090, 874.800 704.287, 871.156 " fill="none" stroke="rgb(0, 0, 0)" stroke-linecap="butt" stroke-linejoin="round" stroke-opacity="1.0" stroke-width="3.0" />
            <path d=" M 759.297, 813.681 760.188, 812.918 767.408, 806.729 771.752, 803.123 779.820, 797.215 780.135, 796.984 783.651, 790.408 " fill="none" stroke="rgb(0, 0, 0)" stroke-linecap="butt" stroke-linejoin="round" stroke-opacity="1.0" stroke-width="3.0" />
            <path d=" M 705.879, 869.600 706.020, 869.510 710.258, 866.802 710.441, 866.686 711.898, 865.755 713.651, 861.770 713.712, 861.581 713.717, 861.564 714.944, 857.727 718.925, 852.634 720.621, 848.302 721.751, 840.784 " fill="none" stroke="rgb(0, 0, 0)" stroke-linecap="butt" stroke-linejoin="round" stroke-opacity="1.0" stroke-width="3.0" />
            <path d=" M 580.224, 815.039 580.364, 813.894 580.487, 812.878 581.120, 807.674 581.238, 806.197 581.240, 806.017 581.251, 805.143 581.254, 804.845 581.254, 804.844 581.363, 795.571 581.417, 795.293 581.432, 795.218 583.343, 785.402 583.372, 785.252 584.047, 780.830 " fill="none" stroke="rgb(0, 0, 0)" stroke-linecap="butt" stroke-linejoin="round" stroke-opacity="1.0" stroke-width="3.0" />
            <path d=" M 522.725, 799.370 522.068, 802.166 521.950, 803.429 521.996, 807.477 521.302, 812.387 521.674, 817.334 521.223, 826.443 521.170, 827.538 520.944, 832.201 520.884, 833.448 520.855, 834.054 " fill="none" stroke="rgb(0, 0, 0)" stroke-linecap="butt" stroke-linejoin="round" stroke-opacity="1.0" stroke-width="3.0" />
            <path d=" M 821.656, 694.298 818.013, 695.557 817.526, 695.725 817.392, 695.772 817.061, 695.886 814.379, 697.271 813.926, 697.594 807.036, 702.511 802.041, 706.578 798.590, 710.533 798.508, 710.626 797.680, 711.575 795.166, 715.868 " fill="none" stroke="rgb(0, 0, 0)" stroke-linecap="butt" stroke-linejoin="round" stroke-opacity="1.0" stroke-width="3.0" />
            <path d=" M 618.479, 948.710 613.540, 951.892 610.396, 954.188 610.278, 954.273 606.846, 956.779 605.772, 957.343 604.952, 957.773 604.644, 957.934 604.352, 958.087 603.445, 958.563 602.112, 959.262 600.018, 960.360 598.932, 960.646 598.911, 960.652 598.806, 960.680 598.737, 960.698 595.382, 961.581 592.578, 962.772 590.032, 962.340 589.741, 962.290 589.690, 962.281 588.590, 961.405 589.741, 962.290 " fill="none" stroke="rgb(0, 0, 0)" stroke-linecap="butt" stroke-linejoin="round" stroke-opacity="1.0" stroke-width="3.0" />
            <path d=" M 737.984, 630.901 737.933, 630.873 734.501, 628.925 734.480, 628.890 734.479, 628.888 733.901, 627.894 733.797, 627.716 733.762, 627.656 732.849, 626.087 729.013, 625.599 727.930, 624.490 723.473, 621.724 718.666, 620.221 714.420, 617.271 712.462, 616.781 707.437, 618.807 " fill="none" stroke="rgb(0, 0, 0)" stroke-linecap="butt" stroke-linejoin="round" stroke-opacity="1.0" stroke-width="3.0" />
            <path d=" M 568.262, 929.432 567.750, 931.361 569.373, 938.234 567.598, 932.492 567.584, 932.447 567.488, 931.219 567.497, 931.140 567.686, 929.422 567.849, 927.942 568.192, 924.784 568.272, 924.453 568.532, 923.377 568.557, 923.273 569.266, 920.345 569.304, 919.689 569.421, 917.655 569.430, 917.497 569.440, 917.312 569.446, 917.220 569.448, 917.188 569.452, 917.108 569.458, 916.996 569.499, 916.286 569.631, 913.993 569.634, 913.963 569.679, 913.479 569.718, 913.062 569.727, 912.961 569.824, 911.916 " fill="none" stroke="rgb(0, 0, 0)" stroke-linecap="butt" stroke-linejoin="round" stroke-opacity="1.0" stroke-width="3.0" />
            <path d=" M 751.907, 705.150 751.688, 705.340 750.259, 706.614 749.916, 707.336 749.859, 707.456 749.830, 707.516 749.688, 707.814 747.882, 711.611 747.363, 713.902 747.368, 713.995 747.489, 716.315 748.541, 718.283 751.626, 722.428 756.552, 725.663 757.398, 726.389 757.612, 726.572 757.986, 726.893 758.218, 727.091 758.283, 727.147 758.298, 727.160 758.369, 727.221 758.388, 727.237 758.594, 727.414 759.379, 728.087 759.931, 728.560 764.348, 732.397 " fill="none" stroke="rgb(0, 0, 0)" stroke-linecap="butt" stroke-linejoin="round" stroke-opacity="1.0" stroke-width="3.0" />
            <path d=" M 532.386, 745.169 530.273, 751.374 529.978, 752.240 529.645, 752.780 528.002, 755.443 527.475, 756.298 527.167, 760.309 524.847, 768.889 525.848, 774.437 526.051, 775.557 526.179, 776.266 526.733, 779.338 526.836, 779.904 " fill="none" stroke="rgb(0, 0, 0)" stroke-linecap="butt" stroke-linejoin="round" stroke-opacity="1.0" stroke-width="3.0" />
            <path d=" M 588.133, 563.472 588.253, 558.466 588.504, 552.278 588.514, 552.033 588.528, 551.862 588.542, 551.707 588.677, 550.111 589.066, 545.511 589.138, 540.675 588.588, 537.842 588.045, 535.337 587.749, 533.998 586.505, 531.799 583.207, 529.128 " fill="none" stroke="rgb(0, 0, 0)" stroke-linecap="butt" stroke-linejoin="round" stroke-opacity="1.0" stroke-width="3.0" />
            <path d=" M 760.343, 685.336 760.367, 685.944 760.368, 685.969 758.270, 689.344 757.320, 692.018 753.362, 697.583 751.724, 703.674 751.907, 705.150 752.132, 706.960 753.466, 707.767 759.847, 708.610 760.756, 708.668 764.257, 708.890 764.416, 708.900 764.935, 708.933 " fill="none" stroke="rgb(0, 0, 0)" stroke-linecap="butt" stroke-linejoin="round" stroke-opacity="1.0" stroke-width="3.0" />
            <path d=" M 655.147, 622.065 655.530, 621.750 655.584, 621.705 655.817, 621.512 656.056, 621.315 657.274, 620.311 658.859, 619.004 658.065, 617.550 656.398, 614.729 651.416, 615.593 649.550, 615.355 649.133, 615.302 648.720, 615.260 648.437, 615.231 644.975, 614.878 644.797, 614.860 641.724, 614.341 641.316, 614.271 641.173, 614.247 641.166, 614.246 641.084, 614.232 640.118, 614.069 640.044, 614.056 639.012, 613.882 638.842, 613.831 638.720, 613.794 638.683, 613.783 638.556, 613.745 636.542, 613.140 633.323, 612.953 630.560, 613.608 629.690, 613.814 629.442, 613.873 629.220, 613.926 " fill="none" stroke="rgb(0, 0, 0)" stroke-linecap="butt" stroke-linejoin="round" stroke-opacity="1.0" stroke-width="3.0" />
            <path d=" M 562.944, 934.661 565.073, 928.783 565.199, 928.310 565.199, 928.310 565.213, 928.259 566.182, 924.629 566.208, 924.531 566.845, 922.146 566.841, 921.812 566.831, 920.993 566.797, 918.303 566.791, 917.767 566.790, 917.711 566.789, 917.582 566.725, 912.429 566.721, 912.092 565.911, 905.128 565.860, 904.690 565.440, 901.080 565.291, 899.806 565.291, 899.801 565.219, 899.183 565.142, 898.521 565.003, 897.326 564.988, 897.202 " fill="none" stroke="rgb(0, 0, 0)" stroke-linecap="butt" stroke-linejoin="round" stroke-opacity="1.0" stroke-width="3.0" />
            <path d=" M 647.762, 577.730 644.044, 578.924 641.805, 579.644 633.686, 581.123 628.174, 581.121 622.183, 579.828 619.892, 578.887 615.642, 577.241 612.727, 575.786 610.814, 574.839 " fill="none" stroke="rgb(0, 0, 0)" stroke-linecap="butt" stroke-linejoin="round" stroke-opacity="1.0" stroke-width="3.0" />
            <path d=" M 721.063, 842.256 721.751, 840.784 722.701, 838.748 724.302, 832.893 728.228, 823.696 728.430, 823.220 732.996, 816.799 740.790, 810.534 741.140, 810.252 " fill="none" stroke="rgb(0, 0, 0)" stroke-linecap="butt" stroke-linejoin="round" stroke-opacity="1.0" stroke-width="3.0" />
            <path d=" M 615.245, 444.201 614.538, 445.374 613.259, 447.498 608.875, 454.775 608.129, 455.842 606.150, 460.666 604.958, 462.553 602.414, 466.580 601.298, 468.348 600.163, 469.819 599.183, 471.091 599.129, 471.159 598.110, 472.481 597.427, 474.161 596.267, 477.734 596.212, 477.903 596.145, 478.109 " fill="none" stroke="rgb(0, 0, 0)" stroke-linecap="butt" stroke-linejoin="round" stroke-opacity="1.0" stroke-width="3.0" />
            <path d=" M 678.418, 427.597 682.715, 426.586 683.013, 426.515 683.611, 426.375 692.859, 423.867 694.439, 423.439 692.350, 424.362 691.908, 424.565 687.239, 426.715 682.592, 427.180 682.375, 427.201 678.418, 427.597 677.084, 427.731 672.033, 428.236 " fill="none" stroke="rgb(0, 0, 0)" stroke-linecap="butt" stroke-linejoin="round" stroke-opacity="1.0" stroke-width="3.0" />
            <path d=" M 565.859, 675.296 566.347, 673.646 569.022, 664.591 570.462, 654.695 571.318, 648.807 571.284, 642.557 571.283, 642.387 571.246, 635.658 " fill="none" stroke="rgb(0, 0, 0)" stroke-linecap="butt" stroke-linejoin="round" stroke-opacity="1.0" stroke-width="3.0" />
            <path d=" M 871.360, 681.308 875.431, 677.614 877.435, 671.222 877.551, 670.361 877.580, 670.146 878.234, 665.319 877.270, 663.076 875.682, 661.095 874.281, 659.690 871.668, 658.969 871.652, 658.965 871.469, 658.914 871.338, 658.945 868.634, 659.577 867.914, 660.354 866.454, 662.748 866.436, 662.778 866.175, 663.206 865.579, 664.183 864.098, 666.612 863.415, 667.488 " fill="none" stroke="rgb(0, 0, 0)" stroke-linecap="butt" stroke-linejoin="round" stroke-opacity="1.0" stroke-width="3.0" />
            <path d=" M 882.389, 687.651 884.515, 686.222 890.446, 681.545 894.390, 678.904 900.558, 673.374 905.771, 667.831 912.111, 660.215 " fill="none" stroke="rgb(0, 0, 0)" stroke-linecap="butt" stroke-linejoin="round" stroke-opacity="1.0" stroke-width="3.0" />
            <path d=" M 643.780, 348.921 642.744, 350.577 639.648, 355.746 634.650, 362.119 632.425, 366.457 629.134, 369.928 628.107, 371.010 625.647, 373.058 628.685, 370.260 632.277, 363.918 " fill="none" stroke="rgb(0, 0, 0)" stroke-linecap="butt" stroke-linejoin="round" stroke-opacity="1.0" stroke-width="3.0" />
            <path d=" M 900.574, 371.082 899.714, 367.974 898.919, 365.875 896.242, 361.832 894.093, 359.010 892.111, 355.017 891.422, 352.851 888.640, 348.697 884.659, 344.516 881.760, 341.671 879.192, 339.667 876.841, 337.352 " fill="none" stroke="rgb(0, 0, 0)" stroke-linecap="butt" stroke-linejoin="round" stroke-opacity="1.0" stroke-width="3.0" />
            <path d=" M 704.137, 311.792 701.621, 312.614 700.041, 313.150 692.318, 315.439 691.820, 315.729 689.354, 317.165 688.530, 317.455 680.753, 320.189 678.608, 322.132 677.289, 323.328 676.980, 323.608 674.669, 325.702 669.333, 328.093 668.759, 328.458 668.190, 328.821 666.425, 329.945 " fill="none" stroke="rgb(0, 0, 0)" stroke-linecap="butt" stroke-linejoin="round" stroke-opacity="1.0" stroke-width="3.0" />
            <path d=" M 633.395, 746.777 636.171, 743.800 637.921, 741.744 639.742, 739.491 643.646, 735.102 645.309, 732.149 650.539, 726.622 653.094, 723.897 656.565, 720.017 660.943, 716.684 662.720, 714.818 " fill="none" stroke="rgb(0, 0, 0)" stroke-linecap="butt" stroke-linejoin="round" stroke-opacity="1.0" stroke-width="3.0" />
            <path d=" M 523.964, 651.142 524.356, 653.147 525.240, 655.943 523.964, 651.142 521.824, 643.090 522.437, 635.286 522.369, 630.654 522.911, 627.086 525.394, 620.951 527.022, 618.576 " fill="none" stroke="rgb(0, 0, 0)" stroke-linecap="butt" stroke-linejoin="round" stroke-opacity="1.0" stroke-width="3.0" />
            <path d=" M 738.230, 733.883 737.232, 735.435 736.901, 735.950 736.427, 736.898 736.355, 737.043 735.986, 737.781 735.982, 737.789 735.977, 737.799 735.746, 738.261 735.737, 738.279 734.874, 740.006 734.632, 740.491 734.379, 740.997 734.336, 741.082 734.158, 742.589 734.064, 743.385 733.750, 747.205 733.459, 749.429 733.450, 749.768 733.372, 752.811 734.158, 755.771 734.623, 756.229 734.625, 756.231 735.881, 757.272 737.046, 758.237 738.260, 758.701 743.459, 753.187 746.549, 749.543 747.398, 747.762 747.768, 746.984 748.114, 745.936 " fill="none" stroke="rgb(0, 0, 0)" stroke-linecap="butt" stroke-linejoin="round" stroke-opacity="1.0" stroke-width="3.0" />
            <path d=" M 564.325, 693.342 564.954, 687.391 565.700, 677.419 565.859, 675.296 565.876, 675.071 565.964, 673.891 567.568, 664.020 567.845, 662.315 568.172, 655.085 568.231, 653.778 568.719, 649.114 " fill="none" stroke="rgb(0, 0, 0)" stroke-linecap="butt" stroke-linejoin="round" stroke-opacity="1.0" stroke-width="3.0" />
            <path d=" M 789.438, 682.511 787.720, 680.031 785.399, 677.740 785.398, 677.739 784.526, 676.878 784.379, 676.733 784.317, 676.672 784.123, 676.480 781.910, 674.914 781.792, 674.830 779.717, 673.360 774.233, 669.340 770.109, 667.891 767.471, 667.041 765.938, 666.832 764.126, 667.641 762.150, 670.777 762.048, 671.349 761.863, 672.380 761.743, 673.052 761.904, 673.554 762.715, 676.081 764.315, 677.728 767.343, 677.440 " fill="none" stroke="rgb(0, 0, 0)" stroke-linecap="butt" stroke-linejoin="round" stroke-opacity="1.0" stroke-width="3.0" />
            <path d=" M 719.726, 871.865 718.166, 875.456 713.314, 884.200 711.954, 886.651 716.467, 877.878 719.273, 871.210 723.236, 862.029 724.182, 859.839 " fill="none" stroke="rgb(0, 0, 0)" stroke-linecap="butt" stroke-linejoin="round" stroke-opacity="1.0" stroke-width="3.0" />
            <path d=" M 519.011, 851.215 518.237, 855.965 518.277, 862.379 518.416, 863.980 518.526, 871.551 519.168, 879.736 519.820, 884.687 520.723, 890.295 521.467, 893.211 521.826, 894.616 522.091, 897.516 " fill="none" stroke="rgb(0, 0, 0)" stroke-linecap="butt" stroke-linejoin="round" stroke-opacity="1.0" stroke-width="3.0" />
            <path d=" M 525.240, 655.943 527.452, 660.945 529.081, 669.469 530.938, 676.405 531.851, 681.756 532.187, 687.485 532.891, 695.823 533.437, 699.537 533.747, 701.647 " fill="none" stroke="rgb(0, 0, 0)" stroke-linecap="butt" stroke-linejoin="round" stroke-opacity="1.0" stroke-width="3.0" />
            <path d=" M 712.265, 814.123 712.034, 814.378 711.643, 814.809 708.015, 818.811 705.110, 822.017 700.248, 826.596 695.423, 833.524 695.055, 834.053 694.605, 834.319 694.527, 834.365 694.513, 834.373 694.334, 834.479 694.074, 834.633 690.366, 836.826 688.784, 838.098 688.329, 838.464 683.570, 841.847 683.123, 842.165 681.576, 843.815 681.177, 845.332 681.167, 845.370 681.113, 845.574 681.093, 845.648 680.635, 847.391 " fill="none" stroke="rgb(0, 0, 0)" stroke-linecap="butt" stroke-linejoin="round" stroke-opacity="1.0" stroke-width="3.0" />
            <path d=" M 587.964, 772.526 592.112, 771.411 597.173, 769.646 597.801, 768.814 599.416, 766.694 599.610, 762.425 603.056, 756.153 602.160, 754.276 598.498, 752.054 597.057, 751.640 595.499, 748.286 592.862, 744.804 590.079, 742.935 588.334, 742.501 585.171, 743.316 " fill="none" stroke="rgb(0, 0, 0)" stroke-linecap="butt" stroke-linejoin="round" stroke-opacity="1.0" stroke-width="3.0" />
            <path d=" M 670.023, 712.259 669.625, 713.671 668.424, 716.055 667.763, 719.021 662.039, 722.746 659.199, 726.892 657.976, 729.427 655.727, 734.351 655.321, 737.439 656.657, 738.842 658.789, 737.956 660.358, 737.780 661.987, 739.612 663.542, 739.933 664.133, 739.788 668.210, 736.782 670.343, 733.699 " fill="none" stroke="rgb(0, 0, 0)" stroke-linecap="butt" stroke-linejoin="round" stroke-opacity="1.0" stroke-width="3.0" />
            <path d=" M 587.206, 684.559 586.989, 682.533 586.981, 682.456 586.562, 678.548 586.399, 677.029 585.333, 667.086 585.194, 665.790 585.710, 657.112 585.988, 652.444 586.608, 647.198 587.474, 639.869 587.684, 634.924 " fill="none" stroke="rgb(0, 0, 0)" stroke-linecap="butt" stroke-linejoin="round" stroke-opacity="1.0" stroke-width="3.0" />
            <path d=" M 813.662, 307.305 807.350, 305.140 804.598, 303.395 804.535, 303.355 804.460, 303.307 804.129, 303.098 804.062, 303.055 804.054, 303.050 803.915, 302.962 803.813, 302.897 803.808, 302.894 803.454, 302.670 803.451, 302.668 803.424, 302.650 802.409, 302.007 801.720, 301.571 801.511, 301.438 799.813, 300.361 795.706, 297.758 792.222, 295.816 788.908, 294.672 779.894, 292.036 770.015, 290.485 767.468, 290.085 " fill="none" stroke="rgb(0, 0, 0)" stroke-linecap="butt" stroke-linejoin="round" stroke-opacity="1.0" stroke-width="3.0" />
            <path d=" M 561.621, 656.328 559.947, 651.548 557.669, 646.457 556.858, 643.493 554.407, 639.079 551.387, 630.733 550.474, 624.282 551.644, 619.726 552.206, 617.539 554.090, 612.571 554.781, 608.598 " fill="none" stroke="rgb(0, 0, 0)" stroke-linecap="butt" stroke-linejoin="round" stroke-opacity="1.0" stroke-width="3.0" />
            <path d=" M 640.548, 719.145 636.706, 726.495 634.902, 729.926 632.042, 736.052 630.538, 740.622 628.700, 744.458 626.602, 749.121 625.025, 753.123 625.285, 755.186 626.013, 755.421 627.494, 754.516 629.424, 752.539 632.449, 749.285 633.395, 746.777 633.427, 746.691 633.665, 746.060 " fill="none" stroke="rgb(0, 0, 0)" stroke-linecap="butt" stroke-linejoin="round" stroke-opacity="1.0" stroke-width="3.0" />
            <path d=" M 681.113, 845.574 681.063, 845.659 679.619, 848.108 677.592, 852.559 676.711, 854.560 676.518, 854.998 675.790, 856.653 675.596, 857.095 675.595, 857.097 675.158, 858.089 674.903, 858.441 670.458, 864.568 663.970, 869.400 663.322, 870.064 659.373, 876.068 657.493, 878.328 656.054, 880.056 655.248, 882.063 654.707, 883.824 654.150, 885.637 653.882, 886.508 653.300, 888.400 653.015, 889.328 " fill="none" stroke="rgb(0, 0, 0)" stroke-linecap="butt" stroke-linejoin="round" stroke-opacity="1.0" stroke-width="3.0" />
            <path d=" M 592.779, 1004.111 593.909, 1004.426 593.976, 1004.445 596.358, 1004.966 601.601, 1005.193 605.044, 1004.792 610.789, 1003.123 612.873, 1002.376 619.547, 999.235 624.741, 996.881 627.256, 995.643 633.914, 991.688 634.839, 991.173 640.038, 987.125 642.025, 985.272 " fill="none" stroke="rgb(0, 0, 0)" stroke-linecap="butt" stroke-linejoin="round" stroke-opacity="1.0" stroke-width="3.0" />
            <path d=" M 955.170, 589.635 954.265, 586.939 953.507, 584.681 949.431, 579.117 945.407, 572.899 944.085, 570.260 942.335, 566.836 940.597, 564.161 939.127, 560.691 938.294, 557.093 937.424, 550.414 937.168, 545.531 936.983, 540.611 937.629, 538.829 " fill="none" stroke="rgb(0, 0, 0)" stroke-linecap="butt" stroke-linejoin="round" stroke-opacity="1.0" stroke-width="3.0" />
            <path d=" M 947.517, 649.879 952.048, 645.204 952.087, 645.163 956.136, 639.287 960.312, 636.289 961.050, 635.369 967.098, 627.699 969.652, 623.829 973.047, 617.274 976.175, 607.925 976.283, 605.462 976.312, 603.788 " fill="none" stroke="rgb(0, 0, 0)" stroke-linecap="butt" stroke-linejoin="round" stroke-opacity="1.0" stroke-width="3.0" />
            <path d=" M 890.169, 647.359 892.903, 647.670 896.461, 648.075 898.757, 647.345 907.017, 644.322 909.489, 643.385 914.744, 641.395 922.068, 634.586 922.510, 634.175 922.748, 634.063 923.730, 633.601 923.774, 633.581 924.342, 633.314 924.532, 633.224 930.259, 630.533 933.943, 628.504 938.306, 627.401 940.781, 626.752 " fill="none" stroke="rgb(0, 0, 0)" stroke-linecap="butt" stroke-linejoin="round" stroke-opacity="1.0" stroke-width="3.0" />
            <path d=" M 543.942, 699.256 544.156, 709.254 544.217, 712.065 542.683, 720.128 541.962, 723.919 541.771, 724.284 540.856, 726.023 540.528, 726.648 538.309, 730.869 536.042, 736.556 534.313, 739.356 530.897, 744.886 529.645, 752.780 " fill="none" stroke="rgb(0, 0, 0)" stroke-linecap="butt" stroke-linejoin="round" stroke-opacity="1.0" stroke-width="3.0" />
            <path d=" M 784.772, 709.703 784.753, 709.743 784.494, 710.276 781.537, 716.353 781.431, 716.570 781.133, 717.182 780.668, 718.049 780.464, 718.428 780.321, 718.695 779.842, 719.588 777.537, 723.879 777.188, 724.527 777.140, 724.617 776.860, 725.139 776.150, 726.071 775.831, 726.490 775.775, 726.564 775.457, 726.983 775.225, 727.287 770.880, 733.552 770.764, 733.720 770.272, 734.429 768.080, 737.590 767.206, 738.739 766.873, 739.177 764.346, 742.503 763.233, 743.968 762.902, 744.415 762.649, 744.759 759.711, 748.739 758.418, 750.490 755.597, 753.951 753.049, 757.076 " fill="none" stroke="rgb(0, 0, 0)" stroke-linecap="butt" stroke-linejoin="round" stroke-opacity="1.0" stroke-width="3.0" />
            <path d=" M 676.034, 557.424 676.621, 559.044 676.559, 562.882 675.517, 566.679 674.529, 568.806 672.924, 572.297 670.748, 578.951 669.612, 579.891 669.453, 580.023 666.964, 582.082 662.975, 583.290 662.164, 584.852 661.772, 585.993 661.720, 586.575 662.392, 589.597 663.467, 591.534 663.516, 591.622 663.710, 591.971 665.892, 594.322 666.410, 594.981 666.761, 598.651 666.489, 600.743 666.321, 602.034 666.303, 602.172 666.259, 602.510 666.210, 602.618 664.709, 605.898 664.698, 607.201 664.697, 607.392 664.694, 609.443 " fill="none" stroke="rgb(0, 0, 0)" stroke-linecap="butt" stroke-linejoin="round" stroke-opacity="1.0" stroke-width="3.0" />
            <path d=" M 710.848, 892.643 711.495, 891.480 715.285, 884.670 720.127, 875.921 721.841, 872.824 727.108, 864.323 727.249, 864.095 730.473, 857.728 734.792, 848.708 734.895, 848.493 739.142, 839.725 " fill="none" stroke="rgb(0, 0, 0)" stroke-linecap="butt" stroke-linejoin="round" stroke-opacity="1.0" stroke-width="3.0" />
            <path d=" M 609.531, 680.635 610.031, 682.869 613.929, 687.979 613.979, 688.045 614.425, 687.979 614.540, 687.963 618.629, 687.363 622.668, 685.219 627.740, 684.026 632.273, 683.793 633.937, 683.961 634.053, 683.972 634.094, 683.976 639.509, 684.522 642.036, 685.003 645.731, 682.963 647.905, 680.768 647.966, 680.707 648.330, 680.339 648.386, 680.203 648.406, 680.154 648.683, 679.486 649.335, 677.914 650.769, 674.452 651.495, 666.673 651.549, 666.095 " fill="none" stroke="rgb(0, 0, 0)" stroke-linecap="butt" stroke-linejoin="round" stroke-opacity="1.0" stroke-width="3.0" />
            <path d=" M 615.645, 693.818 615.790, 700.730 617.018, 702.764 618.604, 703.361 621.042, 702.757 625.698, 698.901 630.398, 695.761 631.943, 696.384 632.393, 696.943 634.503, 699.565 634.903, 699.652 638.970, 701.283 639.963, 701.172 640.641, 701.096 645.338, 695.402 645.953, 694.656 645.969, 694.636 646.038, 694.553 646.697, 693.374 646.736, 693.304 646.827, 693.142 646.897, 693.016 646.923, 692.970 646.930, 692.952 646.934, 692.942 646.941, 692.924 647.260, 692.101 647.288, 692.029 647.896, 690.464 647.957, 690.307 648.252, 689.547 648.274, 689.313 648.407, 687.903 648.640, 685.432 648.627, 685.144 648.619, 684.949 648.557, 683.557 648.489, 682.012 648.463, 681.431 648.443, 680.983 648.443, 680.976 648.406, 680.154 " fill="none" stroke="rgb(0, 0, 0)" stroke-linecap="butt" stroke-linejoin="round" stroke-opacity="1.0" stroke-width="3.0" />
            <path d=" M 653.440, 897.505 652.992, 898.308 647.712, 906.800 643.799, 913.091 638.628, 921.650 634.652, 928.230 632.367, 931.663 632.084, 932.130 632.067, 932.160 627.290, 940.851 627.163, 941.082 626.682, 942.178 626.536, 942.511 626.420, 942.775 626.388, 942.848 626.386, 942.852 626.366, 942.898 625.833, 944.111 625.747, 944.307 625.458, 944.966 625.205, 945.541 624.839, 946.375 624.656, 946.791 623.725, 948.914 623.600, 949.197 623.016, 950.530 " fill="none" stroke="rgb(0, 0, 0)" stroke-linecap="butt" stroke-linejoin="round" stroke-opacity="1.0" stroke-width="3.0" />
            <path d=" M 690.024, 508.956 691.818, 510.950 695.399, 514.930 697.393, 516.509 702.496, 520.551 705.084, 522.178 707.453, 523.691 712.112, 524.905 718.396, 527.137 719.391, 527.572 719.493, 527.616 721.056, 528.299 722.489, 528.925 723.261, 529.262 723.356, 529.304 724.279, 529.707 733.443, 533.709 734.950, 534.368 738.816, 535.196 739.965, 535.442 740.473, 535.551 743.957, 535.365 " fill="none" stroke="rgb(0, 0, 0)" stroke-linecap="butt" stroke-linejoin="round" stroke-opacity="1.0" stroke-width="3.0" />
            <path d=" M 843.815, 628.566 843.174, 629.794 842.691, 634.209 844.799, 637.454 847.008, 641.310 850.237, 642.882 853.680, 645.459 859.392, 647.724 869.321, 648.916 870.208, 649.023 878.756, 649.121 883.129, 648.535 888.636, 647.798 892.903, 647.670 " fill="none" stroke="rgb(0, 0, 0)" stroke-linecap="butt" stroke-linejoin="round" stroke-opacity="1.0" stroke-width="3.0" />
            <path d=" M 714.391, 437.226 715.755, 437.300 715.767, 437.300 716.792, 437.356 718.603, 437.454 719.596, 437.508 720.035, 437.531 727.234, 439.528 737.082, 439.079 740.713, 438.914 744.905, 441.104 753.769, 445.734 754.157, 445.937 762.122, 448.379 768.427, 451.464 771.921, 454.878 " fill="none" stroke="rgb(0, 0, 0)" stroke-linecap="butt" stroke-linejoin="round" stroke-opacity="1.0" stroke-width="3.0" />
            <path d=" M 827.252, 479.878 830.756, 484.403 833.869, 488.920 837.647, 491.931 838.469, 500.998 837.002, 507.478 832.484, 513.824 827.289, 518.350 822.752, 520.909 827.761, 517.848 832.484, 513.824 " fill="none" stroke="rgb(0, 0, 0)" stroke-linecap="butt" stroke-linejoin="round" stroke-opacity="1.0" stroke-width="3.0" />
            <path d=" M 725.600, 732.791 726.555, 734.859 726.818, 735.429 726.860, 735.521 727.162, 736.175 727.180, 736.214 727.188, 736.231 727.826, 737.614 728.802, 740.350 727.424, 745.574 726.602, 751.227 725.219, 757.014 724.423, 761.096 724.357, 761.434 723.694, 771.412 723.031, 781.390 723.011, 781.684 722.058, 789.183 721.928, 795.840 " fill="none" stroke="rgb(0, 0, 0)" stroke-linecap="butt" stroke-linejoin="round" stroke-opacity="1.0" stroke-width="3.0" />
            <path d=" M 608.222, 661.704 607.903, 663.029 607.839, 663.294 607.833, 663.321 607.734, 663.729 607.724, 664.088 607.715, 664.385 607.652, 666.585 607.581, 669.016 607.672, 669.120 610.366, 672.217 610.382, 672.235 610.513, 672.387 610.547, 672.390 610.672, 672.403 612.719, 672.612 613.169, 672.466 613.282, 672.430 614.031, 672.187 614.258, 672.114 614.659, 671.984 615.398, 671.745 615.662, 671.660 615.685, 671.652 615.759, 671.629 615.771, 671.625 616.176, 671.494 616.320, 671.447 616.451, 671.405 617.533, 671.055 618.852, 670.628 622.775, 670.212 625.192, 670.245 628.011, 670.282 631.897, 670.334 636.425, 671.085 640.444, 671.623 642.021, 671.834 645.817, 671.253 647.870, 668.554 649.509, 665.519 649.929, 664.742 651.621, 661.609 651.369, 656.326 651.336, 655.635 " fill="none" stroke="rgb(0, 0, 0)" stroke-linecap="butt" stroke-linejoin="round" stroke-opacity="1.0" stroke-width="3.0" />
            <path d=" M 631.521, 573.155 635.821, 575.788 639.704, 576.622 646.742, 576.425 650.441, 575.680 651.022, 575.563 653.265, 574.289 657.468, 571.445 665.639, 565.680 669.465, 562.980 676.034, 557.424 676.588, 556.956 677.474, 556.206 677.741, 555.981 678.775, 555.106 679.668, 554.351 680.565, 553.393 683.908, 549.823 686.047, 547.539 686.063, 547.521 686.540, 547.013 687.239, 546.265 " fill="none" stroke="rgb(0, 0, 0)" stroke-linecap="butt" stroke-linejoin="round" stroke-opacity="1.0" stroke-width="3.0" />
            <path d=" M 842.210, 600.457 842.589, 600.814 842.661, 600.882 843.151, 601.345 843.225, 601.415 843.231, 601.421 845.456, 603.522 849.489, 601.400 851.276, 597.756 852.664, 593.781 855.136, 589.266 855.204, 589.049 857.372, 582.123 858.155, 576.673 858.209, 575.889 858.284, 574.782 859.456, 564.851 859.590, 563.719 861.796, 556.117 862.139, 554.936 862.333, 554.266 862.341, 554.240 862.607, 553.322 863.713, 550.754 865.513, 547.327 865.745, 546.886 865.813, 546.756 866.428, 545.939 866.525, 545.810 866.534, 545.798 866.785, 545.465 867.037, 545.130 " fill="none" stroke="rgb(0, 0, 0)" stroke-linecap="butt" stroke-linejoin="round" stroke-opacity="1.0" stroke-width="3.0" />
            <path d=" M 537.124, 425.580 535.615, 426.816 530.883, 435.047 528.057, 443.686 526.913, 452.935 525.961, 461.221 526.019, 469.385 527.148, 471.642 527.196, 471.740 527.232, 471.771 527.454, 471.965 529.303, 473.580 532.827, 477.553 535.034, 478.732 540.125, 479.328 541.628, 479.504 541.698, 479.543 542.763, 480.136 543.867, 480.752 " fill="none" stroke="rgb(0, 0, 0)" stroke-linecap="butt" stroke-linejoin="round" stroke-opacity="1.0" stroke-width="3.0" />
            <path d=" M 756.425, 535.694 766.420, 535.993 766.943, 536.008 771.745, 535.773 781.639, 534.324 788.565, 533.309 790.247, 532.961 796.085, 531.750 797.393, 531.479 797.481, 531.461 797.845, 531.385 800.041, 530.930 809.489, 527.655 813.090, 526.406 821.782, 521.461 822.752, 520.909 " fill="none" stroke="rgb(0, 0, 0)" stroke-linecap="butt" stroke-linejoin="round" stroke-opacity="1.0" stroke-width="3.0" />
            <path d=" M 554.263, 819.460 554.437, 818.677 554.857, 816.788 554.892, 816.630 554.934, 816.440 555.495, 813.920 555.498, 813.896 555.652, 812.944 555.957, 811.053 556.313, 808.849 557.363, 802.347 557.377, 802.153 558.116, 792.180 558.344, 789.109 558.053, 779.113 558.010, 777.669 557.364, 771.166 556.919, 762.069 557.221, 752.073 557.327, 748.560 " fill="none" stroke="rgb(0, 0, 0)" stroke-linecap="butt" stroke-linejoin="round" stroke-opacity="1.0" stroke-width="3.0" />
            <path d=" M 540.937, 461.686 540.919, 462.355 540.912, 462.622 540.912, 462.639 540.892, 463.397 542.257, 466.709 542.876, 468.210 543.331, 470.792 543.759, 473.225 544.083, 475.064 544.065, 475.530 544.013, 476.912 543.965, 478.181 543.956, 478.419 543.940, 478.848 543.903, 479.801 543.867, 480.752 543.781, 483.027 545.255, 491.768 545.428, 492.797 545.520, 493.343 545.624, 493.957 545.712, 494.478 546.913, 497.444 548.894, 501.973 554.425, 510.236 559.114, 515.540 562.102, 519.766 562.662, 520.104 568.625, 523.716 568.792, 523.817 569.046, 523.970 " fill="none" stroke="rgb(0, 0, 0)" stroke-linecap="butt" stroke-linejoin="round" stroke-opacity="1.0" stroke-width="3.0" />
            <path d=" M 594.492, 525.204 595.881, 529.173 597.682, 534.314 601.427, 543.586 602.801, 546.989 608.317, 555.329 610.371, 558.435 616.518, 564.382 622.200, 568.380 631.100, 572.940 631.521, 573.155 637.430, 574.796 641.475, 574.623 " fill="none" stroke="rgb(0, 0, 0)" stroke-linecap="butt" stroke-linejoin="round" stroke-opacity="1.0" stroke-width="3.0" />
            <path d=" M 585.912, 756.499 585.374, 750.019 585.369, 749.956 585.099, 746.708 585.171, 743.316 585.192, 742.350 585.320, 739.165 585.356, 733.807 586.166, 725.930 586.847, 720.363 587.475, 713.969 587.868, 707.816 588.937, 701.210 590.249, 693.107 590.211, 691.492 590.187, 691.231 589.790, 686.875 587.038, 682.608 586.989, 682.533 " fill="none" stroke="rgb(0, 0, 0)" stroke-linecap="butt" stroke-linejoin="round" stroke-opacity="1.0" stroke-width="3.0" />
            <path d=" M 811.916, 758.014 812.763, 754.927 812.781, 754.860 812.788, 754.835 814.241, 749.542 815.730, 746.201 820.691, 737.518 820.872, 737.202 825.535, 730.149 828.937, 720.745 829.052, 720.428 830.596, 712.858 830.113, 710.635 830.036, 710.277 829.952, 709.889 829.583, 708.191 829.492, 707.769 829.462, 707.634 829.317, 706.963 829.305, 706.911 827.808, 705.033 827.671, 704.862 827.425, 704.553 826.302, 703.145 825.880, 702.616 823.005, 698.983 821.948, 697.646 821.720, 695.036 821.656, 694.298 820.043, 694.452 817.749, 695.594 817.481, 695.727 817.392, 695.772 " fill="none" stroke="rgb(0, 0, 0)" stroke-linecap="butt" stroke-linejoin="round" stroke-opacity="1.0" stroke-width="3.0" />
            <path d=" M 716.816, 876.640 717.287, 875.399 720.839, 866.052 721.275, 864.904 723.010, 861.881 724.182, 859.839 729.159, 851.166 729.449, 850.661 736.043, 843.143 737.940, 840.981 737.997, 840.922 738.075, 840.840 739.142, 839.725 746.055, 832.500 747.830, 830.646 752.263, 824.973 756.949, 817.263 760.188, 812.918 " fill="none" stroke="rgb(0, 0, 0)" stroke-linecap="butt" stroke-linejoin="round" stroke-opacity="1.0" stroke-width="3.0" />
            <path d=" M 681.345, 338.145 677.793, 340.813 676.582, 341.822 674.399, 343.954 670.857, 347.153 669.437, 348.642 667.465, 350.698 666.300, 352.673 659.209, 358.136 655.140, 361.073 651.326, 363.198 646.367, 366.276 640.626, 369.660 637.955, 371.631 634.810, 373.950 626.390, 378.236 622.802, 380.232 622.119, 380.644 622.003, 380.714 620.768, 381.459 618.543, 382.801 618.223, 382.994 " fill="none" stroke="rgb(0, 0, 0)" stroke-linecap="butt" stroke-linejoin="round" stroke-opacity="1.0" stroke-width="3.0" />
            <path d=" M 897.236, 432.137 897.308, 431.493 897.580, 429.057 896.072, 421.692 896.019, 414.087 893.348, 409.687 893.096, 408.394 892.019, 402.892 891.169, 396.454 890.881, 394.272 891.468, 387.153 890.171, 380.932 889.601, 375.906 889.341, 373.921 888.466, 370.409 888.258, 369.575 887.237, 365.203 885.500, 361.437 884.483, 359.231 884.416, 359.085 884.352, 358.946 884.022, 358.256 883.888, 357.973 883.698, 357.576 883.663, 357.501 883.040, 356.193 882.517, 355.095 882.489, 355.037 882.377, 354.801 882.334, 354.712 882.267, 354.571 882.205, 354.440 882.049, 354.113 882.040, 354.095 881.933, 353.871 881.721, 353.426 " fill="none" stroke="rgb(0, 0, 0)" stroke-linecap="butt" stroke-linejoin="round" stroke-opacity="1.0" stroke-width="3.0" />
            <path d=" M 748.694, 759.843 746.972, 760.849 742.567, 766.257 741.548, 768.054 737.818, 774.632 732.591, 782.105 729.206, 785.974 727.564, 788.133 724.611, 792.197 721.963, 795.792 721.928, 795.840 719.818, 798.704 713.895, 805.770 712.438, 807.430 712.415, 807.457 712.409, 807.464 708.775, 811.605 705.990, 814.175 705.190, 814.914 703.034, 816.904 698.192, 822.062 696.900, 823.356 " fill="none" stroke="rgb(0, 0, 0)" stroke-linecap="butt" stroke-linejoin="round" stroke-opacity="1.0" stroke-width="3.0" />
            <path d=" M 764.714, 447.675 771.787, 454.744 771.921, 454.878 776.476, 459.430 783.311, 466.730 784.795, 468.314 786.074, 469.628 787.327, 470.916 790.942, 474.022 792.303, 475.384 794.442, 479.664 797.694, 487.577 797.492, 491.328 797.377, 493.484 797.366, 493.675 794.800, 495.924 793.293, 497.246 785.122, 503.011 782.261, 505.030 778.310, 508.789 774.085, 515.064 773.410, 516.066 " fill="none" stroke="rgb(0, 0, 0)" stroke-linecap="butt" stroke-linejoin="round" stroke-opacity="1.0" stroke-width="3.0" />
            <path d=" M 663.223, 433.796 662.331, 435.378 659.483, 440.424 657.953, 446.810 657.902, 450.078 658.011, 455.452 660.375, 465.168 661.098, 468.142 663.189, 472.292 663.205, 472.324 663.460, 472.830 664.010, 473.920 664.770, 475.379 665.575, 476.924 665.581, 476.935 669.409, 484.282 669.997, 485.410 672.267, 488.328 672.568, 488.715 672.967, 489.228 673.846, 490.358 673.884, 490.407 674.884, 491.693 676.052, 493.195 677.225, 494.832 677.454, 495.153 678.078, 496.023 678.826, 496.937 684.181, 503.474 686.538, 505.686 688.943, 507.942 690.024, 508.956 691.981, 510.791 694.097, 512.776 " fill="none" stroke="rgb(0, 0, 0)" stroke-linecap="butt" stroke-linejoin="round" stroke-opacity="1.0" stroke-width="3.0" />
            <path d=" M 934.160, 513.830 934.051, 513.657 933.178, 512.260 933.091, 512.120 932.011, 510.392 931.997, 510.371 928.662, 505.034 922.990, 501.916 920.621, 498.222 918.946, 495.359 916.170, 489.575 913.629, 484.303 911.500, 480.662 908.408, 475.734 906.113, 470.178 903.802, 463.182 901.880, 455.692 903.577, 448.407 901.288, 441.335 898.508, 434.829 897.308, 431.493 " fill="none" stroke="rgb(0, 0, 0)" stroke-linecap="butt" stroke-linejoin="round" stroke-opacity="1.0" stroke-width="3.0" />
            <path d=" M 886.700, 608.305 886.859, 608.140 888.899, 606.021 891.021, 601.426 892.610, 598.512 894.788, 593.288 896.271, 589.737 896.277, 589.723 896.549, 589.072 899.242, 583.836 902.887, 578.752 908.753, 571.221 910.836, 565.580 910.892, 563.011 910.893, 562.938 910.929, 561.276 911.286, 560.279 912.050, 558.147 912.503, 556.883 912.983, 555.552 913.588, 553.874 915.419, 549.389 915.543, 549.085 916.092, 547.741 916.639, 546.402 916.736, 546.324 917.621, 545.616 917.626, 545.612 919.331, 544.247 921.343, 543.613 924.167, 542.722 932.359, 536.986 934.490, 535.493 936.121, 534.472 938.066, 533.254 " fill="none" stroke="rgb(0, 0, 0)" stroke-linecap="butt" stroke-linejoin="round" stroke-opacity="1.0" stroke-width="3.0" />
            <path d=" M 762.769, 290.216 765.808, 290.067 767.468, 290.085 759.900, 289.719 755.195, 288.774 745.339, 287.084 745.107, 287.044 735.720, 290.491 735.473, 290.582 733.152, 292.096 729.673, 294.584 727.308, 297.144 722.565, 299.159 718.947, 301.538 712.608, 305.848 704.482, 311.405 704.137, 311.792 702.911, 313.168 701.576, 314.667 699.268, 317.258 696.753, 320.022 694.371, 322.710 694.294, 322.798 694.251, 322.851 691.217, 326.618 690.912, 326.997 " fill="none" stroke="rgb(0, 0, 0)" stroke-linecap="butt" stroke-linejoin="round" stroke-opacity="1.0" stroke-width="3.0" />
            <path d=" M 935.778, 510.328 938.232, 503.859 940.307, 494.256 941.161, 487.714 942.379, 477.789 942.607, 475.938 943.760, 467.601 942.594, 460.213 941.707, 455.031 941.527, 454.259 940.649, 444.220 937.648, 435.456 936.897, 433.264 935.998, 431.210 935.710, 430.505 935.516, 430.030 934.048, 426.432 933.321, 423.139 931.774, 418.329 934.019, 424.426 934.862, 427.455 935.710, 430.505 " fill="none" stroke="rgb(0, 0, 0)" stroke-linecap="butt" stroke-linejoin="round" stroke-opacity="1.0" stroke-width="3.0" />
            <path d=" M 587.405, 396.823 587.083, 402.478 586.279, 406.199 585.747, 408.661 585.900, 409.724 586.417, 413.314 588.861, 417.825 591.172, 422.123 590.496, 425.223 588.906, 429.160 586.075, 432.184 583.151, 434.194 581.099, 440.038 580.092, 442.998 576.540, 452.454 575.363, 455.328 575.359, 455.337 575.315, 455.445 573.684, 459.425 572.990, 462.221 571.952, 465.470 571.129, 468.993 570.503, 475.302 570.163, 478.219 570.111, 478.662 570.381, 484.700 570.980, 488.021 574.072, 492.852 576.984, 497.732 579.321, 500.314 580.526, 501.646 " fill="none" stroke="rgb(0, 0, 0)" stroke-linecap="butt" stroke-linejoin="round" stroke-opacity="1.0" stroke-width="3.0" />
            <path d=" M 565.227, 630.613 565.237, 630.596 566.038, 629.266 566.324, 628.791 567.611, 625.156 568.547, 620.682 567.655, 618.210 566.286, 614.415 566.465, 606.834 566.051, 602.041 566.336, 596.817 567.068, 592.775 569.031, 586.515 569.074, 584.426 567.567, 577.599 564.699, 572.398 559.505, 570.580 550.589, 571.684 547.491, 573.700 541.727, 581.872 540.894, 583.053 537.036, 591.798 535.114, 599.641 534.748, 600.714 531.693, 609.658 529.086, 614.425 527.022, 618.576 524.797, 623.049 " fill="none" stroke="rgb(0, 0, 0)" stroke-linecap="butt" stroke-linejoin="round" stroke-opacity="1.0" stroke-width="3.0" />
            <path d=" M 759.954, 548.512 761.117, 553.946 761.187, 554.269 761.393, 555.233 761.456, 555.527 760.735, 563.881 760.683, 564.481 760.656, 564.789 760.620, 564.961 760.619, 564.967 760.318, 566.401 760.306, 566.456 759.750, 569.105 759.734, 569.180 759.146, 571.982 758.595, 574.605 757.538, 583.703 757.512, 583.927 757.507, 583.970 757.433, 584.610 757.494, 585.576 757.611, 587.422 758.345, 597.395 758.737, 602.726 759.367, 604.735 759.370, 604.745 759.388, 604.803 760.223, 607.465 760.336, 607.823 760.851, 609.465 761.627, 612.784 761.652, 612.892 761.909, 614.568 762.587, 618.995 762.626, 619.248 763.403, 624.323 763.539, 625.497 763.907, 628.650 764.275, 629.058 764.463, 629.268 766.094, 631.079 766.159, 631.151 767.545, 632.689 768.844, 634.132 769.108, 634.425 769.247, 634.579 769.248, 634.580 773.823, 636.144 775.398, 636.683 780.771, 638.519 787.532, 639.424 791.235, 639.256 799.490, 638.706 808.999, 635.612 811.721, 634.727 818.067, 631.845 819.783, 631.066 821.062, 630.390 824.609, 628.514 824.621, 628.508 830.513, 625.392 839.346, 622.013 " fill="none" stroke="rgb(0, 0, 0)" stroke-linecap="butt" stroke-linejoin="round" stroke-opacity="1.0" stroke-width="3.0" />
            <path d=" M 609.866, 596.696 609.980, 596.579 614.294, 592.172 616.310, 588.071 617.555, 585.368 616.929, 583.169 610.793, 578.517 602.474, 572.968 599.397, 570.916 598.300, 570.184 597.666, 569.761 597.074, 569.366 596.793, 569.178 595.506, 568.331 588.133, 563.472 587.727, 563.204 587.613, 563.129 587.442, 563.017 586.415, 562.339 586.266, 562.241 584.483, 560.777 583.238, 559.754 579.889, 557.003 579.653, 556.818 579.427, 556.641 577.587, 555.202 570.278, 549.487 564.727, 545.384 558.850, 541.040 554.174, 537.771 552.942, 537.204 549.122, 536.242 544.728, 536.259 538.124, 538.702 530.726, 541.243 524.212, 548.830 522.386, 550.956 522.657, 556.168 522.831, 558.016 523.919, 562.540 525.954, 569.462 528.217, 575.812 529.631, 581.124 532.855, 589.447 534.544, 598.118 534.748, 600.714 " fill="none" stroke="rgb(0, 0, 0)" stroke-linecap="butt" stroke-linejoin="round" stroke-opacity="1.0" stroke-width="3.0" />
            <path d=" M 817.073, 755.241 820.734, 751.806 827.660, 747.464 836.373, 742.556 839.462, 740.816 847.641, 736.874 856.666, 732.568 861.411, 730.303 869.447, 726.730 876.266, 723.984 884.760, 719.364 885.838, 717.677 887.893, 714.391 887.114, 708.346 888.230, 699.397 886.223, 693.180 882.389, 687.651 882.302, 687.526 876.619, 683.174 871.360, 681.308 870.755, 681.093 860.897, 679.412 856.946, 678.739 856.288, 678.626 855.547, 678.499 851.369, 677.784 851.090, 677.736 850.833, 677.692 850.427, 677.623 849.282, 677.427 847.892, 677.189 845.830, 676.836 844.527, 676.613 840.621, 675.944 832.529, 674.806 822.582, 673.783 822.378, 673.762 821.353, 673.657 820.185, 673.448 810.341, 671.692 807.796, 671.238 802.066, 669.566 793.114, 667.851 793.056, 667.840 791.470, 667.537 789.383, 668.643 788.694, 671.943 788.691, 671.961 788.685, 671.988 788.450, 673.112 789.437, 679.298 789.438, 682.511 789.438, 683.198 789.438, 683.199 789.438, 683.200 789.439, 685.811 789.439, 686.269 788.498, 690.068 788.132, 691.545 788.094, 691.698 788.091, 691.709 788.029, 691.960 787.935, 692.338 787.907, 692.638 787.888, 692.828 787.852, 693.216 787.817, 693.577 787.787, 693.898 787.785, 693.914 787.743, 694.359 787.604, 695.820 787.418, 697.768 787.258, 699.456 787.073, 701.398 787.068, 701.451 786.834, 702.290 786.753, 702.581 786.549, 703.314 786.437, 703.719 785.133, 708.407 784.987, 708.932 784.772, 709.703 784.757, 709.756 784.598, 710.329 784.596, 710.335 " fill="none" stroke="rgb(0, 0, 0)" stroke-linecap="butt" stroke-linejoin="round" stroke-opacity="1.0" stroke-width="3.0" />
        </g>
    </g>
</svg>
