<?xml version='1.0' encoding='ascii'?>
<svg xmlns="http://www.w3.org/2000/svg" height="1280" version="1.1" width="1280">
    <g id="RenderLayer_LineSet" inkscape:groupmode="lineset" inkscape:label="RenderLayer_LineSet" xmlns:inkscape="http://www.inkscape.org/namespaces/inkscape">
        <g id="strokes" inkscape:groupmode="layer" inkscape:label="strokes" xmlns:inkscape="http://www.inkscape.org/namespaces/inkscape">
            <path d=" M 817.825, 585.411 817.464, 584.557 817.279, 584.119 817.161, 583.841 816.733, 582.826 815.272, 579.372 815.286, 576.660 815.281, 575.520 815.271, 573.626 815.353, 570.059 815.415, 565.626 " fill="none" stroke="rgb(0, 0, 0)" stroke-linecap="butt" stroke-linejoin="round" stroke-opacity="1.0" stroke-width="3.0" />
            <path d=" M 849.685, 515.789 850.538, 514.839 850.541, 514.836 852.442, 512.718 853.588, 509.242 856.603, 505.002 857.623, 501.893 858.436, 497.905 " fill="none" stroke="rgb(0, 0, 0)" stroke-linecap="butt" stroke-linejoin="round" stroke-opacity="1.0" stroke-width="3.0" />
            <path d=" M 777.236, 640.789 780.110, 635.267 783.956, 629.072 787.553, 623.280 " fill="none" stroke="rgb(0, 0, 0)" stroke-linecap="butt" stroke-linejoin="round" stroke-opacity="1.0" stroke-width="3.0" />
            <path d=" M 526.304, 492.200 525.294, 496.491 524.620, 499.351 524.476, 503.152 524.610, 507.251 524.811, 507.694 525.662, 509.570 525.690, 509.629 525.915, 510.126 526.390, 512.190 " fill="none" stroke="rgb(0, 0, 0)" stroke-linecap="butt" stroke-linejoin="round" stroke-opacity="1.0" stroke-width="3.0" />
            <path d=" M 696.477, 274.850 695.605, 275.073 692.653, 275.827 691.912, 276.016 691.280, 276.459 688.225, 278.521 683.594, 281.098 678.671, 284.913 " fill="none" stroke="rgb(0, 0, 0)" stroke-linecap="butt" stroke-linejoin="round" stroke-opacity="1.0" stroke-width="3.0" />
            <path d=" M 658.318, 525.538 659.768, 527.406 659.959, 527.652 664.121, 536.744 664.267, 537.063 665.604, 542.100 665.110, 544.608 " fill="none" stroke="rgb(0, 0, 0)" stroke-linecap="butt" stroke-linejoin="round" stroke-opacity="1.0" stroke-width="3.0" />
            <path d=" M 657.997, 596.918 654.684, 598.935 653.690, 602.067 653.638, 604.090 654.449, 606.866 655.780, 611.279 657.322, 613.813 657.954, 614.852 " fill="none" stroke="rgb(0, 0, 0)" stroke-linecap="butt" stroke-linejoin="round" stroke-opacity="1.0" stroke-width="3.0" />
            <path d=" M 885.886, 648.768 885.818, 651.126 885.813, 651.290 885.712, 654.766 885.477, 655.939 884.825, 659.188 883.505, 663.348 882.119, 667.344 881.275, 668.926 " fill="none" stroke="rgb(0, 0, 0)" stroke-linecap="butt" stroke-linejoin="round" stroke-opacity="1.0" stroke-width="3.0" />
            <path d=" M 630.750, 358.121 629.446, 361.152 628.824, 362.819 625.489, 367.273 623.555, 370.322 618.171, 374.584 " fill="none" stroke="rgb(0, 0, 0)" stroke-linecap="butt" stroke-linejoin="round" stroke-opacity="1.0" stroke-width="3.0" />
            <path d=" M 585.261, 821.790 585.382, 820.841 585.440, 820.389 585.447, 820.333 586.090, 815.280 587.542, 808.492 587.587, 805.319 586.219, 802.197 585.382, 801.253 " fill="none" stroke="rgb(0, 0, 0)" stroke-linecap="butt" stroke-linejoin="round" stroke-opacity="1.0" stroke-width="3.0" />
            <path d=" M 927.120, 628.201 927.623, 627.266 927.958, 626.644 929.035, 623.065 929.940, 621.327 930.841, 619.709 933.609, 610.673 933.648, 610.545 933.777, 610.124 933.806, 610.030 933.841, 609.916 934.137, 608.948 934.172, 608.832 934.370, 608.187 " fill="none" stroke="rgb(0, 0, 0)" stroke-linecap="butt" stroke-linejoin="round" stroke-opacity="1.0" stroke-width="3.0" />
            <path d=" M 561.999, 660.184 562.739, 657.884 563.292, 656.163 563.594, 654.297 563.419, 645.179 563.323, 644.809 563.237, 644.481 563.209, 644.376 563.168, 644.219 562.862, 643.047 562.478, 641.578 562.213, 639.166 " fill="none" stroke="rgb(0, 0, 0)" stroke-linecap="butt" stroke-linejoin="round" stroke-opacity="1.0" stroke-width="3.0" />
            <path d=" M 566.706, 608.320 567.525, 601.457 568.549, 591.510 569.011, 587.026 " fill="none" stroke="rgb(0, 0, 0)" stroke-linecap="butt" stroke-linejoin="round" stroke-opacity="1.0" stroke-width="3.0" />
            <path d=" M 607.935, 796.576 607.577, 797.024 606.920, 797.846 606.308, 801.171 607.401, 804.770 608.382, 810.057 609.292, 813.688 609.749, 815.338 610.676, 817.407 " fill="none" stroke="rgb(0, 0, 0)" stroke-linecap="butt" stroke-linejoin="round" stroke-opacity="1.0" stroke-width="3.0" />
            <path d=" M 784.421, 744.938 784.079, 745.219 781.260, 747.524 778.866, 748.103 778.303, 748.240 776.112, 747.672 772.830, 743.903 766.740, 741.329 766.574, 741.258 766.159, 741.083 765.921, 740.982 " fill="none" stroke="rgb(0, 0, 0)" stroke-linecap="butt" stroke-linejoin="round" stroke-opacity="1.0" stroke-width="3.0" />
            <path d=" M 698.872, 429.655 702.918, 438.083 705.548, 444.180 705.713, 444.562 707.901, 449.634 " fill="none" stroke="rgb(0, 0, 0)" stroke-linecap="butt" stroke-linejoin="round" stroke-opacity="1.0" stroke-width="3.0" />
            <path d=" M 711.870, 918.728 710.798, 917.234 711.989, 912.428 712.476, 906.171 713.131, 903.659 714.060, 898.583 714.372, 897.234 " fill="none" stroke="rgb(0, 0, 0)" stroke-linecap="butt" stroke-linejoin="round" stroke-opacity="1.0" stroke-width="3.0" />
            <path d=" M 608.623, 1126.733 609.058, 1126.987 609.517, 1127.254 609.936, 1127.497 611.800, 1130.936 613.381, 1131.288 618.953, 1129.888 621.211, 1128.144 621.711, 1124.814 622.819, 1121.818 " fill="none" stroke="rgb(0, 0, 0)" stroke-linecap="butt" stroke-linejoin="round" stroke-opacity="1.0" stroke-width="3.0" />
            <path d=" M 526.946, 732.841 526.737, 737.283 526.460, 743.170 525.969, 753.158 525.955, 753.442 525.872, 755.122 " fill="none" stroke="rgb(0, 0, 0)" stroke-linecap="butt" stroke-linejoin="round" stroke-opacity="1.0" stroke-width="3.0" />
            <path d=" M 728.132, 329.497 723.220, 330.478 719.750, 330.559 718.684, 330.584 714.584, 330.891 706.405, 334.316 " fill="none" stroke="rgb(0, 0, 0)" stroke-linecap="butt" stroke-linejoin="round" stroke-opacity="1.0" stroke-width="3.0" />
            <path d=" M 679.949, 966.800 680.064, 966.888 681.630, 967.776 685.654, 969.523 687.439, 969.331 688.922, 968.360 690.383, 963.345 691.133, 961.648 691.570, 958.313 693.697, 957.676 " fill="none" stroke="rgb(0, 0, 0)" stroke-linecap="butt" stroke-linejoin="round" stroke-opacity="1.0" stroke-width="3.0" />
            <path d=" M 877.668, 573.990 879.424, 573.755 884.045, 573.036 888.024, 572.767 892.233, 572.235 895.503, 573.344 896.320, 573.519 900.037, 574.313 " fill="none" stroke="rgb(0, 0, 0)" stroke-linecap="butt" stroke-linejoin="round" stroke-opacity="1.0" stroke-width="3.0" />
            <path d=" M 672.181, 980.809 671.850, 985.047 670.745, 988.646 670.587, 989.161 670.545, 989.298 668.733, 995.204 668.685, 995.359 668.577, 995.711 668.736, 995.306 668.802, 995.137 670.652, 990.417 670.745, 988.646 " fill="none" stroke="rgb(0, 0, 0)" stroke-linecap="butt" stroke-linejoin="round" stroke-opacity="1.0" stroke-width="3.0" />
            <path d=" M 745.749, 893.586 747.483, 892.061 749.589, 889.674 750.131, 889.060 751.120, 886.046 751.487, 882.278 752.738, 876.109 753.160, 872.562 " fill="none" stroke="rgb(0, 0, 0)" stroke-linecap="butt" stroke-linejoin="round" stroke-opacity="1.0" stroke-width="3.0" />
            <path d=" M 663.306, 568.665 663.680, 569.386 666.070, 573.986 666.264, 576.884 665.506, 581.367 664.725, 582.801 664.370, 583.904 663.420, 586.848 662.382, 590.703 " fill="none" stroke="rgb(0, 0, 0)" stroke-linecap="butt" stroke-linejoin="round" stroke-opacity="1.0" stroke-width="3.0" />
            <path d=" M 847.194, 454.604 847.128, 454.526 847.125, 454.523 844.686, 451.617 839.893, 446.440 837.793, 444.172 836.522, 442.404 836.422, 442.266 835.653, 441.196 835.051, 440.360 834.763, 439.959 834.293, 439.305 833.906, 438.570 832.698, 436.272 " fill="none" stroke="rgb(0, 0, 0)" stroke-linecap="butt" stroke-linejoin="round" stroke-opacity="1.0" stroke-width="3.0" />
            <path d=" M 552.217, 1059.040 552.446, 1065.385 553.500, 1071.915 554.388, 1075.699 555.539, 1077.524 555.568, 1077.570 555.740, 1077.842 555.774, 1077.898 557.168, 1080.107 557.985, 1081.403 " fill="none" stroke="rgb(0, 0, 0)" stroke-linecap="butt" stroke-linejoin="round" stroke-opacity="1.0" stroke-width="3.0" />
            <path d=" M 587.637, 749.592 587.740, 749.489 595.939, 749.032 599.001, 747.141 600.565, 746.175 600.891, 745.974 600.916, 745.935 600.983, 745.828 601.909, 744.364 602.466, 743.483 602.504, 741.241 602.516, 740.553 602.563, 737.783 602.577, 736.957 " fill="none" stroke="rgb(0, 0, 0)" stroke-linecap="butt" stroke-linejoin="round" stroke-opacity="1.0" stroke-width="3.0" />
            <path d=" M 578.392, 977.840 578.219, 975.755 577.989, 970.824 576.030, 961.018 575.738, 959.555 575.323, 954.440 " fill="none" stroke="rgb(0, 0, 0)" stroke-linecap="butt" stroke-linejoin="round" stroke-opacity="1.0" stroke-width="3.0" />
            <path d=" M 532.156, 972.174 529.793, 968.446 529.270, 967.347 530.994, 974.692 532.490, 980.736 532.666, 981.448 533.942, 984.835 " fill="none" stroke="rgb(0, 0, 0)" stroke-linecap="butt" stroke-linejoin="round" stroke-opacity="1.0" stroke-width="3.0" />
            <path d=" M 581.958, 373.676 581.863, 376.847 580.954, 379.484 581.091, 382.693 581.596, 383.874 583.785, 387.861 584.543, 390.048 585.774, 393.599 585.269, 396.307 " fill="none" stroke="rgb(0, 0, 0)" stroke-linecap="butt" stroke-linejoin="round" stroke-opacity="1.0" stroke-width="3.0" />
            <path d=" M 617.601, 1118.836 617.786, 1118.803 617.837, 1118.794 618.936, 1118.599 619.577, 1118.485 619.647, 1118.473 620.886, 1118.253 622.531, 1117.689 622.564, 1117.657 622.877, 1117.364 623.076, 1117.178 626.767, 1113.716 631.403, 1107.158 633.085, 1105.271 633.098, 1105.260 634.969, 1103.691 " fill="none" stroke="rgb(0, 0, 0)" stroke-linecap="butt" stroke-linejoin="round" stroke-opacity="1.0" stroke-width="3.0" />
            <path d=" M 718.796, 951.239 718.943, 951.937 718.967, 952.702 719.067, 955.886 719.675, 960.812 719.796, 961.795 721.009, 964.342 723.075, 965.213 727.073, 961.542 728.540, 959.136 " fill="none" stroke="rgb(0, 0, 0)" stroke-linecap="butt" stroke-linejoin="round" stroke-opacity="1.0" stroke-width="3.0" />
            <path d=" M 757.584, 795.642 761.347, 799.017 760.760, 798.557 755.717, 794.826 751.387, 792.401 757.584, 795.642 " fill="none" stroke="rgb(0, 0, 0)" stroke-linecap="butt" stroke-linejoin="round" stroke-opacity="1.0" stroke-width="3.0" />
            <path d=" M 657.322, 613.813 658.443, 617.299 658.951, 622.756 658.650, 628.858 657.406, 635.481 657.359, 636.111 657.242, 637.672 " fill="none" stroke="rgb(0, 0, 0)" stroke-linecap="butt" stroke-linejoin="round" stroke-opacity="1.0" stroke-width="3.0" />
            <path d=" M 564.722, 614.422 566.883, 604.659 567.075, 603.791 567.252, 597.011 567.346, 593.878 567.147, 592.319 566.915, 590.507 " fill="none" stroke="rgb(0, 0, 0)" stroke-linecap="butt" stroke-linejoin="round" stroke-opacity="1.0" stroke-width="3.0" />
            <path d=" M 633.331, 762.689 633.888, 762.631 636.824, 762.331 637.185, 762.294 637.964, 762.214 637.984, 762.212 639.018, 761.606 640.094, 760.975 640.406, 760.793 644.840, 754.771 646.341, 750.134 645.667, 745.760 " fill="none" stroke="rgb(0, 0, 0)" stroke-linecap="butt" stroke-linejoin="round" stroke-opacity="1.0" stroke-width="3.0" />
            <path d=" M 588.292, 1056.259 588.405, 1060.510 588.406, 1060.548 588.436, 1061.672 588.561, 1066.347 589.587, 1069.789 590.000, 1072.090 591.407, 1077.979 591.756, 1079.441 591.946, 1080.236 " fill="none" stroke="rgb(0, 0, 0)" stroke-linecap="butt" stroke-linejoin="round" stroke-opacity="1.0" stroke-width="3.0" />
            <path d=" M 555.774, 1077.898 556.654, 1080.520 558.370, 1085.640 560.575, 1090.421 560.777, 1090.858 561.388, 1092.254 561.622, 1092.789 562.185, 1094.078 562.885, 1095.679 563.901, 1096.807 565.116, 1097.976 566.572, 1099.378 " fill="none" stroke="rgb(0, 0, 0)" stroke-linecap="butt" stroke-linejoin="round" stroke-opacity="1.0" stroke-width="3.0" />
            <path d=" M 710.977, 894.367 711.271, 894.616 711.667, 894.950 712.036, 895.262 712.713, 895.833 713.733, 896.694 714.270, 897.148 714.372, 897.234 714.659, 897.476 716.263, 899.615 717.837, 903.242 718.679, 907.513 718.288, 913.287 718.301, 914.424 718.304, 914.635 718.306, 914.809 718.321, 916.110 " fill="none" stroke="rgb(0, 0, 0)" stroke-linecap="butt" stroke-linejoin="round" stroke-opacity="1.0" stroke-width="3.0" />
            <path d=" M 634.189, 823.555 635.060, 824.089 636.629, 823.533 638.476, 822.094 642.524, 817.365 643.700, 813.016 643.790, 811.112 643.096, 804.239 " fill="none" stroke="rgb(0, 0, 0)" stroke-linecap="butt" stroke-linejoin="round" stroke-opacity="1.0" stroke-width="3.0" />
            <path d=" M 754.587, 772.351 752.789, 773.365 752.584, 773.481 750.434, 774.695 747.267, 779.829 746.988, 783.165 748.687, 789.476 751.387, 792.401 " fill="none" stroke="rgb(0, 0, 0)" stroke-linecap="butt" stroke-linejoin="round" stroke-opacity="1.0" stroke-width="3.0" />
            <path d=" M 853.078, 518.214 857.008, 514.122 859.491, 510.715 860.738, 509.004 861.518, 505.310 862.232, 502.945 862.511, 500.836 862.561, 498.343 862.583, 497.191 862.601, 496.278 " fill="none" stroke="rgb(0, 0, 0)" stroke-linecap="butt" stroke-linejoin="round" stroke-opacity="1.0" stroke-width="3.0" />
            <path d=" M 741.671, 836.840 740.726, 838.967 739.063, 842.708 738.995, 846.053 740.234, 848.948 740.460, 849.269 742.560, 849.979 746.341, 849.966 747.997, 850.378 751.900, 851.094 " fill="none" stroke="rgb(0, 0, 0)" stroke-linecap="butt" stroke-linejoin="round" stroke-opacity="1.0" stroke-width="3.0" />
            <path d=" M 668.714, 711.231 668.151, 715.310 668.197, 725.310 668.216, 729.571 669.143, 732.381 669.443, 733.291 671.293, 735.460 " fill="none" stroke="rgb(0, 0, 0)" stroke-linecap="butt" stroke-linejoin="round" stroke-opacity="1.0" stroke-width="3.0" />
            <path d=" M 561.633, 1094.043 561.780, 1095.108 565.633, 1101.947 568.969, 1106.034 572.217, 1109.955 575.764, 1113.453 576.548, 1114.103 " fill="none" stroke="rgb(0, 0, 0)" stroke-linecap="butt" stroke-linejoin="round" stroke-opacity="1.0" stroke-width="3.0" />
            <path d=" M 796.288, 281.412 793.881, 281.940 786.033, 284.657 780.902, 286.340 774.086, 287.727 771.892, 288.174 " fill="none" stroke="rgb(0, 0, 0)" stroke-linecap="butt" stroke-linejoin="round" stroke-opacity="1.0" stroke-width="3.0" />
            <path d=" M 913.096, 621.715 912.030, 623.782 911.966, 623.906 910.645, 626.467 909.059, 630.060 908.776, 630.701 905.708, 637.653 904.804, 639.359 904.566, 639.810 904.504, 639.926 904.227, 640.449 904.199, 640.503 902.731, 643.274 901.990, 644.673 " fill="none" stroke="rgb(0, 0, 0)" stroke-linecap="butt" stroke-linejoin="round" stroke-opacity="1.0" stroke-width="3.0" />
            <path d=" M 899.808, 687.637 898.330, 694.939 895.323, 704.477 895.067, 705.289 893.691, 709.250 893.150, 710.806 893.656, 709.588 893.691, 709.250 " fill="none" stroke="rgb(0, 0, 0)" stroke-linecap="butt" stroke-linejoin="round" stroke-opacity="1.0" stroke-width="3.0" />
            <path d=" M 761.347, 799.017 763.653, 800.445 766.411, 802.152 768.953, 804.362 770.518, 805.795 773.063, 807.510 776.190, 807.981 778.133, 807.131 781.399, 804.347 781.804, 804.001 782.009, 803.827 782.044, 803.797 782.623, 803.304 782.881, 803.083 " fill="none" stroke="rgb(0, 0, 0)" stroke-linecap="butt" stroke-linejoin="round" stroke-opacity="1.0" stroke-width="3.0" />
            <path d=" M 571.775, 549.494 572.613, 552.478 573.353, 556.343 573.471, 556.962 573.290, 556.502 573.079, 555.966 572.200, 553.733 571.895, 550.694 571.775, 549.494 571.371, 545.467 570.459, 544.027 567.609, 539.524 567.597, 539.505 567.570, 539.462 " fill="none" stroke="rgb(0, 0, 0)" stroke-linecap="butt" stroke-linejoin="round" stroke-opacity="1.0" stroke-width="3.0" />
            <path d=" M 783.956, 629.072 787.308, 625.301 791.456, 616.765 793.156, 615.638 796.276, 613.567 801.882, 611.416 802.347, 611.237 " fill="none" stroke="rgb(0, 0, 0)" stroke-linecap="butt" stroke-linejoin="round" stroke-opacity="1.0" stroke-width="3.0" />
            <path d=" M 546.735, 1031.067 547.165, 1033.663 547.702, 1036.295 550.378, 1045.931 550.718, 1047.155 551.020, 1050.131 551.393, 1051.594 552.831, 1057.232 " fill="none" stroke="rgb(0, 0, 0)" stroke-linecap="butt" stroke-linejoin="round" stroke-opacity="1.0" stroke-width="3.0" />
            <path d=" M 578.569, 383.666 578.106, 386.050 577.778, 391.774 576.739, 395.539 575.706, 401.192 575.029, 406.452 575.781, 410.348 " fill="none" stroke="rgb(0, 0, 0)" stroke-linecap="butt" stroke-linejoin="round" stroke-opacity="1.0" stroke-width="3.0" />
            <path d=" M 788.773, 830.585 791.667, 828.379 796.946, 822.347 799.903, 816.786 801.438, 810.792 802.218, 807.719 " fill="none" stroke="rgb(0, 0, 0)" stroke-linecap="butt" stroke-linejoin="round" stroke-opacity="1.0" stroke-width="3.0" />
            <path d=" M 534.189, 512.242 531.251, 516.383 530.652, 516.957 526.893, 520.558 525.387, 523.239 524.546, 524.737 524.733, 530.320 525.619, 532.725 526.045, 533.068 526.278, 533.257 526.279, 533.258 527.788, 534.475 528.350, 534.347 " fill="none" stroke="rgb(0, 0, 0)" stroke-linecap="butt" stroke-linejoin="round" stroke-opacity="1.0" stroke-width="3.0" />
            <path d=" M 701.136, 904.624 701.379, 904.248 701.547, 903.989 704.898, 898.803 708.871, 889.626 708.969, 889.400 708.371, 884.863 705.310, 880.267 705.110, 879.967 " fill="none" stroke="rgb(0, 0, 0)" stroke-linecap="butt" stroke-linejoin="round" stroke-opacity="1.0" stroke-width="3.0" />
            <path d=" M 712.828, 333.116 706.405, 334.316 705.374, 334.508 701.664, 334.864 697.249, 337.521 693.635, 340.799 693.414, 340.999 692.836, 341.523 690.489, 345.075 689.935, 345.914 " fill="none" stroke="rgb(0, 0, 0)" stroke-linecap="butt" stroke-linejoin="round" stroke-opacity="1.0" stroke-width="3.0" />
            <path d=" M 587.393, 592.950 589.087, 590.156 590.676, 587.820 595.897, 581.757 596.513, 578.251 595.902, 575.797 592.752, 573.180 590.208, 572.730 589.595, 572.138 " fill="none" stroke="rgb(0, 0, 0)" stroke-linecap="butt" stroke-linejoin="round" stroke-opacity="1.0" stroke-width="3.0" />
            <path d=" M 597.149, 1122.497 598.071, 1122.828 598.609, 1123.021 598.629, 1123.028 598.653, 1123.036 599.901, 1123.484 600.512, 1123.407 606.778, 1122.618 610.651, 1122.960 612.178, 1122.962 618.169, 1119.965 618.239, 1119.930 618.287, 1119.906 618.713, 1119.688 619.648, 1119.210 622.672, 1117.665 623.304, 1117.342 " fill="none" stroke="rgb(0, 0, 0)" stroke-linecap="butt" stroke-linejoin="round" stroke-opacity="1.0" stroke-width="3.0" />
            <path d=" M 523.817, 854.950 524.311, 862.638 523.998, 867.156 524.008, 875.581 524.761, 879.394 525.392, 882.586 " fill="none" stroke="rgb(0, 0, 0)" stroke-linecap="butt" stroke-linejoin="round" stroke-opacity="1.0" stroke-width="3.0" />
            <path d=" M 668.053, 996.673 672.198, 993.706 678.180, 987.315 680.279, 982.637 680.736, 978.302 681.177, 974.032 681.210, 973.716 " fill="none" stroke="rgb(0, 0, 0)" stroke-linecap="butt" stroke-linejoin="round" stroke-opacity="1.0" stroke-width="3.0" />
            <path d=" M 602.563, 737.783 604.123, 736.875 604.239, 736.667 605.694, 734.074 604.729, 731.705 601.629, 729.149 601.583, 729.111 600.335, 728.082 599.526, 727.415 597.845, 723.589 595.170, 721.662 595.047, 721.574 594.978, 721.559 593.107, 721.154 592.846, 721.097 588.966, 721.113 " fill="none" stroke="rgb(0, 0, 0)" stroke-linecap="butt" stroke-linejoin="round" stroke-opacity="1.0" stroke-width="3.0" />
            <path d=" M 788.009, 832.420 788.757, 830.624 788.773, 830.585 789.181, 829.606 791.428, 825.266 791.513, 824.871 792.867, 818.585 793.268, 816.725 795.048, 806.884 795.326, 805.347 " fill="none" stroke="rgb(0, 0, 0)" stroke-linecap="butt" stroke-linejoin="round" stroke-opacity="1.0" stroke-width="3.0" />
            <path d=" M 738.545, 878.891 738.419, 879.130 737.142, 881.552 736.466, 882.833 736.458, 882.848 736.443, 883.890 736.441, 883.987 736.441, 884.001 736.415, 885.766 736.491, 887.783 736.422, 889.022 736.690, 891.383 738.215, 894.604 738.363, 894.917 738.413, 894.944 740.041, 895.846 740.664, 896.191 741.124, 896.445 742.449, 896.156 744.312, 895.431 745.749, 893.586 747.300, 891.594 " fill="none" stroke="rgb(0, 0, 0)" stroke-linecap="butt" stroke-linejoin="round" stroke-opacity="1.0" stroke-width="3.0" />
            <path d=" M 751.228, 759.519 752.157, 760.992 755.065, 763.931 758.164, 766.601 761.036, 767.959 767.361, 771.454 770.905, 773.039 773.442, 774.831 774.612, 775.657 " fill="none" stroke="rgb(0, 0, 0)" stroke-linecap="butt" stroke-linejoin="round" stroke-opacity="1.0" stroke-width="3.0" />
            <path d=" M 706.737, 870.729 708.487, 865.819 708.997, 864.388 710.592, 859.914 710.697, 859.618 710.794, 859.345 710.891, 859.073 710.948, 858.913 711.492, 857.388 711.574, 857.158 712.627, 854.204 712.800, 853.611 713.196, 852.261 713.764, 850.322 714.516, 847.757 714.697, 847.139 715.930, 842.932 " fill="none" stroke="rgb(0, 0, 0)" stroke-linecap="butt" stroke-linejoin="round" stroke-opacity="1.0" stroke-width="3.0" />
            <path d=" M 643.973, 743.065 641.000, 741.410 639.739, 740.708 637.380, 739.395 631.524, 738.271 627.838, 738.466 624.675, 737.974 621.378, 737.355 617.279, 736.003 616.262, 735.175 " fill="none" stroke="rgb(0, 0, 0)" stroke-linecap="butt" stroke-linejoin="round" stroke-opacity="1.0" stroke-width="3.0" />
            <path d=" M 622.610, 1121.821 622.819, 1121.818 624.046, 1121.795 627.094, 1124.255 628.976, 1124.506 630.836, 1123.062 632.245, 1121.160 634.407, 1118.698 635.367, 1115.705 635.453, 1113.207 635.313, 1111.319 634.668, 1107.133 633.472, 1105.622 633.098, 1105.260 " fill="none" stroke="rgb(0, 0, 0)" stroke-linecap="butt" stroke-linejoin="round" stroke-opacity="1.0" stroke-width="3.0" />
            <path d=" M 525.955, 753.442 524.823, 758.945 524.313, 768.932 524.272, 769.743 523.174, 778.838 523.229, 781.725 523.252, 782.931 " fill="none" stroke="rgb(0, 0, 0)" stroke-linecap="butt" stroke-linejoin="round" stroke-opacity="1.0" stroke-width="3.0" />
            <path d=" M 785.999, 440.626 782.144, 443.292 776.547, 447.161 773.052, 450.395 768.976, 454.087 763.850, 459.322 762.985, 460.205 " fill="none" stroke="rgb(0, 0, 0)" stroke-linecap="butt" stroke-linejoin="round" stroke-opacity="1.0" stroke-width="3.0" />
            <path d=" M 761.451, 827.879 762.660, 831.905 762.842, 832.509 763.021, 833.107 763.254, 833.881 766.069, 837.497 766.364, 837.877 767.110, 837.763 768.824, 837.501 769.862, 837.342 769.986, 837.349 773.738, 837.571 776.327, 834.457 776.601, 833.989 777.043, 833.233 777.266, 832.851 777.528, 832.403 777.600, 832.280 777.632, 832.225 778.459, 830.811 778.466, 830.800 778.499, 830.743 780.498, 827.324 " fill="none" stroke="rgb(0, 0, 0)" stroke-linecap="butt" stroke-linejoin="round" stroke-opacity="1.0" stroke-width="3.0" />
            <path d=" M 537.936, 1002.678 538.774, 1007.617 541.492, 1015.153 544.760, 1023.149 546.735, 1031.067 547.039, 1032.286 " fill="none" stroke="rgb(0, 0, 0)" stroke-linecap="butt" stroke-linejoin="round" stroke-opacity="1.0" stroke-width="3.0" />
            <path d=" M 727.267, 676.332 730.654, 666.923 730.814, 666.479 733.767, 656.925 734.078, 655.919 734.683, 646.333 " fill="none" stroke="rgb(0, 0, 0)" stroke-linecap="butt" stroke-linejoin="round" stroke-opacity="1.0" stroke-width="3.0" />
            <path d=" M 813.969, 602.973 813.974, 602.961 814.218, 602.457 815.533, 599.742 815.599, 599.606 815.516, 598.201 815.480, 597.583 815.346, 595.310 815.312, 594.727 815.284, 594.256 815.323, 593.753 815.333, 593.630 815.379, 593.034 815.563, 590.650 815.657, 589.447 815.389, 588.183 815.386, 588.168 815.230, 587.436 815.213, 587.355 814.586, 584.394 814.541, 584.183 814.480, 582.994 814.462, 582.653 814.374, 580.956 814.358, 580.849 814.345, 580.764 813.738, 576.707 813.388, 574.365 813.196, 573.079 813.064, 572.197 " fill="none" stroke="rgb(0, 0, 0)" stroke-linecap="butt" stroke-linejoin="round" stroke-opacity="1.0" stroke-width="3.0" />
            <path d=" M 606.638, 505.581 608.675, 507.970 612.019, 509.860 612.060, 509.884 612.508, 510.137 612.729, 510.262 613.344, 510.610 620.386, 517.711 621.188, 518.520 627.795, 522.772 631.422, 524.915 " fill="none" stroke="rgb(0, 0, 0)" stroke-linecap="butt" stroke-linejoin="round" stroke-opacity="1.0" stroke-width="3.0" />
            <path d=" M 750.987, 854.167 749.863, 856.762 749.850, 856.792 749.754, 857.012 749.549, 857.282 748.852, 858.199 748.233, 859.014 748.087, 859.505 747.570, 861.238 747.534, 861.510 747.461, 862.048 751.791, 862.939 751.861, 862.954 753.573, 863.306 756.061, 865.232 757.589, 865.799 757.733, 865.852 758.165, 866.013 759.332, 866.446 759.918, 865.316 760.095, 864.404 760.102, 864.365 760.113, 864.312 760.129, 864.229 760.139, 864.175 760.498, 862.330 760.597, 861.820 761.711, 858.998 763.061, 858.378 763.642, 857.642 " fill="none" stroke="rgb(0, 0, 0)" stroke-linecap="butt" stroke-linejoin="round" stroke-opacity="1.0" stroke-width="3.0" />
            <path d=" M 598.085, 1031.300 593.974, 1027.484 589.566, 1018.508 589.398, 1018.165 586.152, 1010.453 584.837, 1005.685 583.915, 1003.199 " fill="none" stroke="rgb(0, 0, 0)" stroke-linecap="butt" stroke-linejoin="round" stroke-opacity="1.0" stroke-width="3.0" />
            <path d=" M 631.156, 833.696 629.105, 836.335 626.930, 839.562 626.859, 844.157 627.836, 846.706 628.379, 848.906 628.748, 849.839 629.610, 851.888 631.823, 852.091 631.987, 852.070 634.739, 850.221 635.537, 849.417 636.938, 847.887 636.962, 847.860 638.977, 845.659 " fill="none" stroke="rgb(0, 0, 0)" stroke-linecap="butt" stroke-linejoin="round" stroke-opacity="1.0" stroke-width="3.0" />
            <path d=" M 610.578, 816.572 610.676, 817.407 611.183, 821.747 612.536, 823.821 616.134, 824.274 618.917, 823.082 621.431, 821.863 624.757, 820.250 624.994, 820.135 625.259, 820.007 625.558, 819.862 626.124, 819.587 626.423, 819.619 626.748, 819.653 627.437, 819.724 627.546, 819.816 627.940, 820.148 630.659, 822.435 634.189, 823.555 634.925, 823.788 " fill="none" stroke="rgb(0, 0, 0)" stroke-linecap="butt" stroke-linejoin="round" stroke-opacity="1.0" stroke-width="3.0" />
            <path d=" M 610.954, 708.607 610.902, 708.672 610.307, 709.409 610.228, 709.507 608.585, 711.542 607.970, 715.198 607.573, 717.555 604.837, 723.375 604.360, 727.962 605.203, 730.644 607.872, 733.612 607.895, 733.639 610.470, 735.913 609.534, 736.923 " fill="none" stroke="rgb(0, 0, 0)" stroke-linecap="butt" stroke-linejoin="round" stroke-opacity="1.0" stroke-width="3.0" />
            <path d=" M 656.549, 1023.693 661.367, 1021.178 664.235, 1019.639 668.957, 1014.608 673.521, 1005.710 674.121, 1004.540 673.817, 1001.405 671.718, 999.715 " fill="none" stroke="rgb(0, 0, 0)" stroke-linecap="butt" stroke-linejoin="round" stroke-opacity="1.0" stroke-width="3.0" />
            <path d=" M 637.487, 1096.927 639.779, 1091.286 640.857, 1081.344 640.883, 1081.103 639.937, 1073.048 639.377, 1071.461 639.263, 1071.140 639.261, 1071.134 637.943, 1067.402 637.451, 1066.633 636.746, 1065.157 " fill="none" stroke="rgb(0, 0, 0)" stroke-linecap="butt" stroke-linejoin="round" stroke-opacity="1.0" stroke-width="3.0" />
            <path d=" M 534.847, 658.131 534.424, 660.247 533.433, 666.970 533.449, 668.746 532.767, 671.818 531.880, 677.974 531.261, 681.997 530.009, 688.742 529.614, 690.872 " fill="none" stroke="rgb(0, 0, 0)" stroke-linecap="butt" stroke-linejoin="round" stroke-opacity="1.0" stroke-width="3.0" />
            <path d=" M 806.486, 741.520 805.886, 741.318 801.831, 739.958 798.070, 737.813 794.718, 735.429 790.589, 731.268 789.388, 729.002 787.255, 724.656 783.548, 719.131 " fill="none" stroke="rgb(0, 0, 0)" stroke-linecap="butt" stroke-linejoin="round" stroke-opacity="1.0" stroke-width="3.0" />
            <path d=" M 901.827, 630.105 901.000, 629.816 898.524, 629.597 896.070, 631.715 895.566, 631.677 890.370, 632.710 886.426, 635.045 885.749, 636.133 885.196, 638.161 885.602, 647.086 885.818, 651.126 " fill="none" stroke="rgb(0, 0, 0)" stroke-linecap="butt" stroke-linejoin="round" stroke-opacity="1.0" stroke-width="3.0" />
            <path d=" M 817.784, 528.208 814.100, 526.372 810.296, 526.448 809.218, 526.477 800.661, 531.691 794.267, 537.211 792.040, 542.233 791.428, 543.613 " fill="none" stroke="rgb(0, 0, 0)" stroke-linecap="butt" stroke-linejoin="round" stroke-opacity="1.0" stroke-width="3.0" />
            <path d=" M 660.866, 386.935 661.377, 387.422 668.617, 394.321 668.911, 394.601 670.676, 396.583 677.342, 401.659 678.643, 402.619 679.496, 403.248 681.552, 404.764 684.205, 407.744 684.881, 408.478 686.681, 410.433 " fill="none" stroke="rgb(0, 0, 0)" stroke-linecap="butt" stroke-linejoin="round" stroke-opacity="1.0" stroke-width="3.0" />
            <path d=" M 679.043, 962.279 681.779, 960.675 683.791, 959.106 686.695, 954.792 687.129, 954.147 688.240, 952.824 689.630, 951.169 691.589, 946.469 693.478, 936.663 692.361, 934.581 690.684, 933.153 " fill="none" stroke="rgb(0, 0, 0)" stroke-linecap="butt" stroke-linejoin="round" stroke-opacity="1.0" stroke-width="3.0" />
            <path d=" M 567.047, 588.470 567.789, 584.174 567.831, 579.687 568.515, 574.860 568.474, 573.506 567.875, 569.310 567.905, 569.135 567.930, 568.988 568.977, 562.866 568.842, 561.811 568.661, 560.403 567.484, 559.213 564.840, 559.966 561.295, 560.975 " fill="none" stroke="rgb(0, 0, 0)" stroke-linecap="butt" stroke-linejoin="round" stroke-opacity="1.0" stroke-width="3.0" />
            <path d=" M 748.995, 796.168 749.562, 798.567 746.040, 802.112 743.766, 806.104 742.984, 809.999 743.060, 810.817 744.128, 815.700 747.290, 820.089 749.910, 822.145 754.731, 825.504 " fill="none" stroke="rgb(0, 0, 0)" stroke-linecap="butt" stroke-linejoin="round" stroke-opacity="1.0" stroke-width="3.0" />
            <path d=" M 649.848, 557.079 646.697, 556.352 644.377, 557.318 644.266, 559.801 645.067, 562.597 646.096, 564.626 649.391, 569.734 650.120, 570.311 654.048, 573.253 656.654, 575.125 659.229, 576.610 659.884, 576.988 663.237, 579.686 " fill="none" stroke="rgb(0, 0, 0)" stroke-linecap="butt" stroke-linejoin="round" stroke-opacity="1.0" stroke-width="3.0" />
            <path d=" M 626.830, 1069.748 627.933, 1068.346 632.629, 1062.380 634.009, 1060.809 634.052, 1060.761 636.231, 1058.280 636.275, 1058.230 639.335, 1054.748 640.398, 1053.197 640.695, 1052.652 643.475, 1047.563 646.577, 1039.334 " fill="none" stroke="rgb(0, 0, 0)" stroke-linecap="butt" stroke-linejoin="round" stroke-opacity="1.0" stroke-width="3.0" />
            <path d=" M 706.393, 875.865 709.393, 874.437 712.171, 870.656 713.515, 868.602 713.627, 860.243 713.628, 860.153 713.629, 860.085 713.630, 860.002 713.670, 857.040 714.381, 855.063 714.854, 853.747 715.513, 851.915 715.883, 850.886 716.787, 846.560 716.880, 842.439 716.698, 841.969 " fill="none" stroke="rgb(0, 0, 0)" stroke-linecap="butt" stroke-linejoin="round" stroke-opacity="1.0" stroke-width="3.0" />
            <path d=" M 825.122, 461.281 828.222, 458.787 829.354, 455.720 830.056, 451.355 831.028, 448.284 831.090, 448.087 831.650, 446.320 832.501, 440.791 832.691, 439.559 832.698, 436.272 832.698, 435.903 832.532, 433.030 832.495, 431.877 832.490, 431.707 832.366, 427.815 832.317, 426.262 832.312, 426.127 832.311, 426.088 832.287, 425.338 " fill="none" stroke="rgb(0, 0, 0)" stroke-linecap="butt" stroke-linejoin="round" stroke-opacity="1.0" stroke-width="3.0" />
            <path d=" M 702.577, 402.808 696.319, 398.408 692.134, 394.737 685.201, 387.530 682.242, 384.453 680.580, 382.225 676.716, 377.084 675.485, 375.446 " fill="none" stroke="rgb(0, 0, 0)" stroke-linecap="butt" stroke-linejoin="round" stroke-opacity="1.0" stroke-width="3.0" />
            <path d=" M 825.361, 539.323 825.862, 539.208 826.165, 539.139 827.118, 538.920 827.396, 538.857 829.760, 538.315 833.291, 537.506 834.795, 537.039 835.004, 536.974 835.428, 536.843 836.395, 536.542 838.653, 535.842 838.657, 535.840 838.815, 535.791 838.850, 535.781 839.800, 535.486 840.806, 534.923 843.070, 533.439 843.281, 533.300 845.093, 530.956 846.581, 527.849 848.082, 524.716 853.683, 516.888 853.919, 516.557 " fill="none" stroke="rgb(0, 0, 0)" stroke-linecap="butt" stroke-linejoin="round" stroke-opacity="1.0" stroke-width="3.0" />
            <path d=" M 855.586, 364.449 855.895, 358.962 853.006, 353.388 850.302, 349.590 848.372, 346.302 848.296, 345.081 846.083, 339.849 845.092, 335.156 844.347, 333.837 841.930, 330.433 841.122, 329.296 " fill="none" stroke="rgb(0, 0, 0)" stroke-linecap="butt" stroke-linejoin="round" stroke-opacity="1.0" stroke-width="3.0" />
            <path d=" M 738.215, 894.604 736.874, 900.527 736.482, 904.353 736.365, 909.013 736.362, 909.134 736.354, 909.441 736.436, 910.568 737.352, 912.161 737.419, 912.277 740.182, 911.752 742.919, 909.771 746.323, 905.721 746.326, 905.718 747.886, 902.653 748.285, 900.568 749.041, 896.620 " fill="none" stroke="rgb(0, 0, 0)" stroke-linecap="butt" stroke-linejoin="round" stroke-opacity="1.0" stroke-width="3.0" />
            <path d=" M 587.753, 707.570 587.771, 705.203 587.792, 704.065 587.825, 702.297 587.827, 702.197 587.827, 702.194 587.854, 700.735 587.853, 700.714 587.725, 695.354 588.292, 687.442 588.835, 681.002 589.085, 678.863 589.194, 675.903 589.285, 673.440 589.285, 673.427 589.312, 672.686 589.440, 669.226 589.448, 668.989 589.495, 667.731 " fill="none" stroke="rgb(0, 0, 0)" stroke-linecap="butt" stroke-linejoin="round" stroke-opacity="1.0" stroke-width="3.0" />
            <path d=" M 730.550, 347.065 737.326, 348.068 737.373, 348.075 738.433, 348.453 738.839, 348.598 741.305, 349.480 742.153, 349.782 743.459, 350.529 743.490, 350.547 747.477, 352.828 749.589, 353.853 753.997, 355.992 760.175, 359.301 760.887, 359.856 762.150, 360.840 763.563, 362.483 764.620, 363.712 764.637, 363.732 764.696, 363.801 765.121, 364.294 765.475, 364.707 765.550, 364.815 " fill="none" stroke="rgb(0, 0, 0)" stroke-linecap="butt" stroke-linejoin="round" stroke-opacity="1.0" stroke-width="3.0" />
            <path d=" M 636.961, 847.865 636.205, 850.390 634.773, 855.247 634.472, 862.264 634.640, 866.963 635.686, 871.188 637.332, 872.260 638.541, 871.996 641.046, 871.103 641.401, 870.977 642.845, 869.998 642.949, 869.927 645.889, 867.934 647.068, 866.798 647.101, 866.766 648.824, 865.106 649.086, 864.488 " fill="none" stroke="rgb(0, 0, 0)" stroke-linecap="butt" stroke-linejoin="round" stroke-opacity="1.0" stroke-width="3.0" />
            <path d=" M 533.400, 558.329 533.925, 562.058 535.063, 570.139 536.952, 575.539 537.408, 582.774 537.717, 588.981 538.410, 597.537 538.482, 598.040 " fill="none" stroke="rgb(0, 0, 0)" stroke-linecap="butt" stroke-linejoin="round" stroke-opacity="1.0" stroke-width="3.0" />
            <path d=" M 618.168, 734.227 619.614, 734.110 621.060, 733.993 622.481, 733.894 623.683, 733.809 628.457, 733.475 630.952, 733.301 635.019, 732.608 637.956, 731.827 642.203, 729.234 644.506, 726.922 646.329, 723.761 646.349, 723.726 647.594, 721.567 648.132, 719.272 647.887, 717.474 647.879, 717.413 647.823, 717.001 647.622, 715.523 " fill="none" stroke="rgb(0, 0, 0)" stroke-linecap="butt" stroke-linejoin="round" stroke-opacity="1.0" stroke-width="3.0" />
            <path d=" M 752.974, 851.892 753.166, 853.919 753.241, 854.707 753.687, 855.951 753.947, 856.614 755.523, 859.220 757.190, 859.212 760.234, 858.732 761.637, 858.283 763.609, 857.653 763.642, 857.642 765.662, 856.997 765.844, 856.939 766.326, 856.676 767.628, 855.966 769.298, 854.767 769.351, 854.729 769.596, 854.553 770.542, 853.242 771.282, 851.922 772.154, 850.366 772.221, 850.247 772.230, 850.229 773.283, 848.156 773.313, 848.097 773.703, 847.329 775.404, 843.980 775.659, 843.471 777.086, 840.270 777.802, 838.665 " fill="none" stroke="rgb(0, 0, 0)" stroke-linecap="butt" stroke-linejoin="round" stroke-opacity="1.0" stroke-width="3.0" />
            <path d=" M 657.359, 636.111 655.237, 637.611 655.118, 640.708 655.377, 644.347 654.907, 647.843 655.992, 649.962 656.713, 650.998 657.097, 652.376 657.315, 654.321 658.191, 657.166 659.161, 661.392 659.370, 665.130 660.602, 672.612 661.034, 675.232 " fill="none" stroke="rgb(0, 0, 0)" stroke-linecap="butt" stroke-linejoin="round" stroke-opacity="1.0" stroke-width="3.0" />
            <path d=" M 658.797, 1007.318 659.797, 1004.508 659.913, 1004.277 662.450, 999.241 662.469, 999.203 662.558, 999.025 665.432, 993.319 666.557, 991.084 667.421, 989.369 670.163, 983.335 670.337, 982.952 670.641, 981.925 670.786, 981.437 671.435, 979.246 672.524, 975.374 674.127, 970.498 674.268, 970.071 674.298, 969.980 674.361, 969.786 674.602, 969.053 " fill="none" stroke="rgb(0, 0, 0)" stroke-linecap="butt" stroke-linejoin="round" stroke-opacity="1.0" stroke-width="3.0" />
            <path d=" M 744.789, 476.612 744.593, 478.899 743.739, 488.862 743.701, 489.304 743.616, 499.303 743.589, 502.534 745.257, 510.024 747.025, 517.961 " fill="none" stroke="rgb(0, 0, 0)" stroke-linecap="butt" stroke-linejoin="round" stroke-opacity="1.0" stroke-width="3.0" />
            <path d=" M 622.797, 522.341 623.791, 522.979 628.012, 525.688 635.497, 528.238 640.139, 528.482 643.978, 528.584 646.948, 528.351 650.812, 527.313 655.508, 525.664 655.917, 525.520 657.880, 524.973 659.632, 524.485 659.824, 524.432 662.738, 523.139 " fill="none" stroke="rgb(0, 0, 0)" stroke-linecap="butt" stroke-linejoin="round" stroke-opacity="1.0" stroke-width="3.0" />
            <path d=" M 729.187, 914.689 730.494, 917.865 729.578, 923.746 729.561, 923.944 729.291, 929.841 728.430, 933.583 727.965, 939.645 728.333, 949.638 728.609, 957.144 " fill="none" stroke="rgb(0, 0, 0)" stroke-linecap="butt" stroke-linejoin="round" stroke-opacity="1.0" stroke-width="3.0" />
            <path d=" M 568.328, 549.167 567.108, 543.400 567.007, 542.921 566.877, 542.306 566.746, 541.686 566.706, 541.497 566.489, 540.473 566.231, 539.707 566.171, 539.529 564.850, 535.610 562.752, 528.431 562.100, 526.363 561.938, 525.847 559.597, 521.389 556.645, 514.135 555.883, 509.185 555.811, 508.719 555.810, 508.713 555.742, 508.271 555.731, 508.194 555.722, 508.140 " fill="none" stroke="rgb(0, 0, 0)" stroke-linecap="butt" stroke-linejoin="round" stroke-opacity="1.0" stroke-width="3.0" />
            <path d=" M 603.254, 752.067 602.921, 754.034 602.863, 754.378 602.458, 756.775 602.517, 761.887 603.549, 763.807 603.890, 764.441 605.096, 764.882 605.101, 764.884 607.379, 765.717 607.560, 765.783 607.829, 765.882 608.161, 766.003 608.553, 765.939 608.747, 765.907 613.904, 765.064 617.768, 764.497 621.929, 764.319 629.818, 763.742 633.888, 762.631 " fill="none" stroke="rgb(0, 0, 0)" stroke-linecap="butt" stroke-linejoin="round" stroke-opacity="1.0" stroke-width="3.0" />
            <path d=" M 879.711, 396.932 877.320, 394.060 875.468, 392.037 872.296, 388.880 869.393, 385.693 868.846, 385.213 867.081, 383.665 866.810, 383.385 865.352, 381.879 863.628, 380.098 862.383, 378.812 861.679, 378.084 861.392, 377.789 861.156, 377.287 860.735, 376.392 859.945, 374.714 859.222, 373.179 857.825, 370.214 855.949, 365.644 855.586, 364.449 854.861, 362.060 " fill="none" stroke="rgb(0, 0, 0)" stroke-linecap="butt" stroke-linejoin="round" stroke-opacity="1.0" stroke-width="3.0" />
            <path d=" M 904.804, 639.359 904.246, 640.252 899.151, 647.033 898.830, 647.460 898.795, 647.507 895.946, 651.300 895.719, 651.601 894.783, 652.726 893.933, 653.746 893.623, 654.118 893.600, 654.146 891.397, 656.791 891.297, 656.912 890.211, 658.216 889.532, 659.032 884.049, 665.616 881.374, 668.807 881.275, 668.926 880.606, 669.724 877.185, 673.806 " fill="none" stroke="rgb(0, 0, 0)" stroke-linecap="butt" stroke-linejoin="round" stroke-opacity="1.0" stroke-width="3.0" />
            <path d=" M 604.193, 387.760 601.450, 389.298 600.905, 389.604 597.379, 394.653 594.195, 398.479 593.976, 399.395 593.702, 400.543 593.123, 402.960 590.723, 408.556 589.677, 413.246 589.668, 413.287 589.655, 413.343 589.266, 415.899 589.015, 418.793 589.292, 419.157 589.770, 419.787 590.285, 420.467 591.912, 422.611 592.283, 422.805 593.170, 423.270 594.929, 424.193 " fill="none" stroke="rgb(0, 0, 0)" stroke-linecap="butt" stroke-linejoin="round" stroke-opacity="1.0" stroke-width="3.0" />
            <path d=" M 571.220, 918.974 573.060, 909.145 573.371, 907.482 573.427, 907.182 573.583, 906.346 573.618, 906.162 573.622, 906.142 573.559, 904.040 573.260, 894.045 573.245, 893.528 572.417, 886.659 572.409, 886.599 572.398, 886.505 572.355, 886.146 572.354, 886.141 572.347, 886.087 572.326, 885.909 571.275, 877.191 571.016, 875.051 " fill="none" stroke="rgb(0, 0, 0)" stroke-linecap="butt" stroke-linejoin="round" stroke-opacity="1.0" stroke-width="3.0" />
            <path d=" M 543.086, 456.122 539.400, 459.029 535.964, 463.631 531.992, 470.683 529.378, 477.325 527.135, 485.667 526.817, 486.870 526.183, 489.782 525.294, 496.491 " fill="none" stroke="rgb(0, 0, 0)" stroke-linecap="butt" stroke-linejoin="round" stroke-opacity="1.0" stroke-width="3.0" />
            <path d=" M 586.313, 791.251 592.273, 789.375 594.247, 787.507 594.590, 787.017 596.086, 784.543 596.279, 780.883 595.022, 778.252 593.026, 771.719 593.535, 768.294 593.788, 765.844 593.950, 762.763 592.087, 758.229 587.201, 753.965 " fill="none" stroke="rgb(0, 0, 0)" stroke-linecap="butt" stroke-linejoin="round" stroke-opacity="1.0" stroke-width="3.0" />
            <path d=" M 694.554, 960.412 694.178, 960.897 691.393, 964.497 691.340, 966.899 691.079, 969.807 692.154, 970.878 697.900, 972.639 703.144, 969.955 705.477, 971.940 707.372, 971.994 709.714, 971.567 713.127, 970.204 717.648, 965.433 719.675, 960.812 " fill="none" stroke="rgb(0, 0, 0)" stroke-linecap="butt" stroke-linejoin="round" stroke-opacity="1.0" stroke-width="3.0" />
            <path d=" M 610.642, 797.175 610.723, 797.184 610.792, 797.193 611.608, 797.291 613.453, 797.514 613.936, 797.309 617.831, 795.652 622.369, 794.293 624.055, 793.789 627.611, 793.021 636.835, 791.315 640.324, 790.035 643.780, 785.334 645.817, 779.696 646.047, 773.570 " fill="none" stroke="rgb(0, 0, 0)" stroke-linecap="butt" stroke-linejoin="round" stroke-opacity="1.0" stroke-width="3.0" />
            <path d=" M 530.009, 688.742 528.536, 695.396 528.500, 705.396 528.492, 707.637 527.509, 713.602 527.183, 718.522 527.125, 724.734 526.389, 730.473 526.737, 737.283 " fill="none" stroke="rgb(0, 0, 0)" stroke-linecap="butt" stroke-linejoin="round" stroke-opacity="1.0" stroke-width="3.0" />
            <path d=" M 583.427, 767.381 583.886, 770.135 584.497, 773.806 585.394, 779.189 585.401, 779.281 585.379, 769.281 585.368, 763.942 586.984, 756.144 587.201, 753.965 587.637, 749.592 587.677, 749.181 590.430, 743.205 " fill="none" stroke="rgb(0, 0, 0)" stroke-linecap="butt" stroke-linejoin="round" stroke-opacity="1.0" stroke-width="3.0" />
            <path d=" M 585.392, 1008.877 583.915, 1003.199 581.398, 993.521 580.818, 991.292 579.043, 981.451 578.392, 977.840 577.728, 974.155 577.010, 966.338 575.779, 960.851 " fill="none" stroke="rgb(0, 0, 0)" stroke-linecap="butt" stroke-linejoin="round" stroke-opacity="1.0" stroke-width="3.0" />
            <path d=" M 583.312, 477.939 583.718, 481.390 585.563, 486.619 585.953, 487.432 586.877, 488.576 589.796, 492.187 590.691, 493.031 593.703, 495.872 595.715, 497.770 596.126, 498.158 596.218, 498.244 596.910, 498.897 597.404, 499.363 597.576, 499.525 597.617, 499.564 599.835, 501.656 600.414, 502.202 605.849, 505.745 609.530, 508.801 613.366, 512.054 613.471, 512.144 613.629, 512.277 615.100, 513.525 " fill="none" stroke="rgb(0, 0, 0)" stroke-linecap="butt" stroke-linejoin="round" stroke-opacity="1.0" stroke-width="3.0" />
            <path d=" M 621.418, 683.937 619.737, 685.825 616.517, 689.618 614.278, 691.508 611.105, 692.426 607.209, 692.493 604.127, 691.501 602.172, 689.881 600.200, 687.987 598.090, 684.284 596.041, 678.890 594.796, 672.455 593.332, 665.889 " fill="none" stroke="rgb(0, 0, 0)" stroke-linecap="butt" stroke-linejoin="round" stroke-opacity="1.0" stroke-width="3.0" />
            <path d=" M 762.024, 365.282 760.167, 365.315 752.931, 370.341 751.279, 375.238 747.174, 380.660 745.427, 383.546 742.375, 386.549 740.631, 388.799 737.065, 393.270 730.333, 399.751 728.996, 401.039 " fill="none" stroke="rgb(0, 0, 0)" stroke-linecap="butt" stroke-linejoin="round" stroke-opacity="1.0" stroke-width="3.0" />
            <path d=" M 572.407, 417.090 571.889, 417.724 569.249, 422.674 565.053, 430.657 561.574, 434.483 559.681, 437.707 553.888, 445.106 549.126, 449.833 544.736, 454.695 542.033, 457.688 " fill="none" stroke="rgb(0, 0, 0)" stroke-linecap="butt" stroke-linejoin="round" stroke-opacity="1.0" stroke-width="3.0" />
            <path d=" M 665.432, 993.319 669.969, 986.457 670.221, 986.076 670.237, 986.051 670.414, 985.784 670.446, 985.736 672.181, 980.809 674.317, 974.741 675.720, 971.443 675.744, 971.387 675.896, 971.029 675.939, 970.929 677.900, 966.319 677.961, 966.177 678.144, 965.516 678.978, 962.515 679.043, 962.279 681.720, 952.644 681.916, 951.938 681.959, 951.772 682.864, 948.300 683.865, 944.461 " fill="none" stroke="rgb(0, 0, 0)" stroke-linecap="butt" stroke-linejoin="round" stroke-opacity="1.0" stroke-width="3.0" />
            <path d=" M 649.686, 690.975 649.678, 690.626 649.613, 687.890 649.740, 686.492 649.945, 684.250 650.305, 680.665 651.706, 678.505 650.214, 674.446 649.093, 673.596 648.362, 673.686 641.800, 674.906 635.360, 673.634 630.118, 675.956 628.275, 677.236 627.499, 678.385 627.465, 678.435 626.806, 678.966 624.216, 681.055 621.905, 682.960 621.418, 683.937 620.370, 686.036 " fill="none" stroke="rgb(0, 0, 0)" stroke-linecap="butt" stroke-linejoin="round" stroke-opacity="1.0" stroke-width="3.0" />
            <path d=" M 549.911, 588.170 547.648, 588.322 547.452, 588.335 546.078, 588.427 544.709, 588.519 541.989, 591.472 541.109, 595.162 539.646, 596.872 538.482, 598.040 536.643, 599.886 536.320, 604.486 534.197, 610.719 535.032, 618.136 535.010, 625.151 535.004, 627.282 535.617, 628.826 535.703, 629.043 537.043, 632.417 " fill="none" stroke="rgb(0, 0, 0)" stroke-linecap="butt" stroke-linejoin="round" stroke-opacity="1.0" stroke-width="3.0" />
            <path d=" M 747.924, 730.108 752.356, 721.144 752.901, 720.040 754.772, 716.255 755.594, 714.592 757.159, 711.426 757.392, 710.955 758.222, 709.276 760.235, 705.275 760.239, 705.267 760.294, 705.159 760.927, 703.901 761.644, 702.475 765.272, 694.001 766.919, 690.620 769.648, 681.852 " fill="none" stroke="rgb(0, 0, 0)" stroke-linecap="butt" stroke-linejoin="round" stroke-opacity="1.0" stroke-width="3.0" />
            <path d=" M 611.014, 543.838 613.295, 544.475 618.740, 544.351 623.197, 543.963 629.950, 545.322 634.452, 547.648 638.894, 550.385 644.697, 553.976 648.011, 555.849 649.350, 556.501 649.564, 556.606 649.638, 556.642 651.144, 557.376 652.142, 557.862 653.657, 558.601 654.258, 559.081 654.944, 559.631 655.544, 560.111 659.159, 563.006 " fill="none" stroke="rgb(0, 0, 0)" stroke-linecap="butt" stroke-linejoin="round" stroke-opacity="1.0" stroke-width="3.0" />
            <path d=" M 535.010, 625.151 534.897, 625.993 534.602, 630.585 534.527, 638.319 534.869, 643.958 535.303, 648.180 535.592, 648.973 536.944, 652.679 537.422, 657.321 537.616, 659.211 537.690, 659.931 538.285, 665.717 538.407, 670.159 540.207, 679.062 " fill="none" stroke="rgb(0, 0, 0)" stroke-linecap="butt" stroke-linejoin="round" stroke-opacity="1.0" stroke-width="3.0" />
            <path d=" M 815.271, 573.626 818.126, 564.042 818.170, 563.893 819.872, 558.180 820.564, 556.337 820.659, 556.085 822.430, 551.368 823.059, 548.997 824.167, 544.823 824.196, 544.716 824.260, 544.472 824.581, 543.262 824.655, 542.984 824.670, 542.762 824.725, 541.968 824.880, 539.709 824.930, 538.975 824.976, 538.305 825.040, 537.367 825.049, 537.243 825.049, 537.240 825.101, 536.483 823.305, 531.353 819.571, 528.945 817.784, 528.208 813.857, 526.588 " fill="none" stroke="rgb(0, 0, 0)" stroke-linecap="butt" stroke-linejoin="round" stroke-opacity="1.0" stroke-width="3.0" />
            <path d=" M 679.928, 284.387 678.671, 284.913 677.184, 285.534 673.338, 290.509 671.396, 294.146 669.519, 296.712 666.946, 300.689 663.086, 306.294 660.274, 310.147 659.461, 311.342 656.752, 313.951 654.056, 317.672 651.242, 320.963 650.097, 323.294 648.536, 325.397 647.194, 328.228 647.018, 328.600 " fill="none" stroke="rgb(0, 0, 0)" stroke-linecap="butt" stroke-linejoin="round" stroke-opacity="1.0" stroke-width="3.0" />
            <path d=" M 643.635, 1046.025 646.577, 1039.334 647.180, 1037.964 648.664, 1034.988 650.683, 1030.939 651.395, 1029.510 651.702, 1028.894 651.831, 1028.635 652.389, 1027.515 655.349, 1021.262 656.882, 1018.023 657.443, 1016.838 658.307, 1015.014 658.334, 1014.957 658.452, 1014.706 659.081, 1013.379 659.098, 1013.342 659.221, 1013.083 659.655, 1012.167 660.635, 1010.095 664.499, 1003.199 667.491, 997.706 668.053, 996.673 668.577, 995.711 " fill="none" stroke="rgb(0, 0, 0)" stroke-linecap="butt" stroke-linejoin="round" stroke-opacity="1.0" stroke-width="3.0" />
            <path d=" M 768.942, 683.138 769.648, 681.852 774.198, 673.565 776.029, 670.901 776.231, 670.607 776.494, 670.223 779.758, 664.088 782.286, 658.311 786.004, 652.079 789.997, 645.708 795.802, 637.565 797.929, 634.582 " fill="none" stroke="rgb(0, 0, 0)" stroke-linecap="butt" stroke-linejoin="round" stroke-opacity="1.0" stroke-width="3.0" />
            <path d=" M 752.989, 922.109 753.745, 921.002 753.764, 920.974 754.417, 919.819 755.477, 915.802 756.740, 908.249 758.434, 904.918 760.195, 899.744 763.019, 893.175 764.176, 888.680 766.489, 879.373 768.856, 869.657 769.614, 866.546 " fill="none" stroke="rgb(0, 0, 0)" stroke-linecap="butt" stroke-linejoin="round" stroke-opacity="1.0" stroke-width="3.0" />
            <path d=" M 690.600, 663.857 687.050, 668.181 685.563, 669.993 680.097, 674.488 678.099, 676.131 678.064, 676.220 677.829, 676.828 677.253, 678.319 674.457, 685.546 670.666, 691.933 669.287, 701.838 668.768, 705.566 668.714, 711.231 668.679, 714.981 " fill="none" stroke="rgb(0, 0, 0)" stroke-linecap="butt" stroke-linejoin="round" stroke-opacity="1.0" stroke-width="3.0" />
            <path d=" M 800.468, 631.390 804.315, 627.130 810.960, 621.284 814.749, 617.387 819.011, 614.732 824.839, 610.602 829.456, 608.179 829.465, 608.174 831.214, 607.257 831.809, 606.981 836.779, 604.677 841.369, 603.448 850.526, 600.013 " fill="none" stroke="rgb(0, 0, 0)" stroke-linecap="butt" stroke-linejoin="round" stroke-opacity="1.0" stroke-width="3.0" />
            <path d=" M 857.124, 499.478 858.436, 497.905 859.430, 496.713 861.063, 493.334 861.718, 491.977 862.108, 491.170 862.945, 489.309 864.234, 486.442 865.070, 483.614 866.279, 478.708 867.669, 472.755 869.396, 467.029 871.061, 463.235 873.823, 459.957 876.287, 457.023 877.779, 455.246 878.849, 452.159 878.226, 447.042 878.435, 446.274 878.995, 444.215 " fill="none" stroke="rgb(0, 0, 0)" stroke-linecap="butt" stroke-linejoin="round" stroke-opacity="1.0" stroke-width="3.0" />
            <path d=" M 576.716, 900.121 577.372, 895.289 578.209, 885.510 578.271, 884.295 578.342, 882.907 578.580, 878.243 578.584, 878.162 578.606, 877.727 578.704, 875.807 578.711, 875.680 578.748, 874.943 578.941, 873.519 579.517, 869.242 579.806, 865.737 580.273, 860.052 580.314, 859.558 580.421, 858.259 580.423, 858.231 580.460, 857.786 580.718, 854.649 580.973, 851.815 581.038, 851.098 581.726, 843.977 581.778, 843.446 582.198, 840.631 581.660, 839.151 " fill="none" stroke="rgb(0, 0, 0)" stroke-linecap="butt" stroke-linejoin="round" stroke-opacity="1.0" stroke-width="3.0" />
            <path d=" M 581.599, 840.468 581.660, 839.151 582.037, 831.041 582.063, 830.492 582.201, 827.686 582.689, 817.698 582.921, 812.961 583.730, 803.453 585.382, 801.253 585.752, 800.760 586.156, 799.246 585.277, 796.004 586.725, 792.143 586.313, 791.251 584.668, 787.681 584.687, 787.461 584.698, 787.337 585.103, 782.698 585.401, 779.281 " fill="none" stroke="rgb(0, 0, 0)" stroke-linecap="butt" stroke-linejoin="round" stroke-opacity="1.0" stroke-width="3.0" />
            <path d=" M 752.719, 281.279 749.363, 279.255 748.499, 278.734 745.715, 277.464 741.830, 276.268 734.124, 273.287 729.974, 272.788 726.470, 271.605 723.233, 270.675 719.532, 270.057 715.704, 269.084 709.583, 268.181 703.348, 269.190 701.200, 270.858 699.417, 270.906 696.754, 273.230 695.638, 274.452 692.653, 275.827 " fill="none" stroke="rgb(0, 0, 0)" stroke-linecap="butt" stroke-linejoin="round" stroke-opacity="1.0" stroke-width="3.0" />
            <path d=" M 841.930, 330.433 839.825, 324.215 838.287, 319.887 837.819, 312.187 835.933, 306.001 834.856, 302.662 834.427, 302.220 832.989, 298.321 831.651, 296.265 828.559, 292.577 825.800, 290.452 823.294, 287.851 820.295, 283.886 818.734, 281.715 814.878, 280.243 810.880, 280.691 809.851, 280.807 " fill="none" stroke="rgb(0, 0, 0)" stroke-linecap="butt" stroke-linejoin="round" stroke-opacity="1.0" stroke-width="3.0" />
            <path d=" M 672.679, 354.740 670.790, 353.178 669.335, 351.975 662.674, 351.969 657.649, 353.546 654.257, 355.922 650.927, 358.425 648.157, 361.672 645.965, 368.646 646.057, 371.992 646.250, 372.907 646.497, 374.084 647.055, 376.740 647.754, 379.438 649.196, 381.962 650.271, 383.570 652.986, 385.698 656.535, 387.703 657.179, 387.973 658.784, 388.644 661.518, 389.787 " fill="none" stroke="rgb(0, 0, 0)" stroke-linecap="butt" stroke-linejoin="round" stroke-opacity="1.0" stroke-width="3.0" />
            <path d=" M 745.257, 510.024 746.354, 515.189 747.025, 517.961 748.870, 523.853 751.926, 531.616 753.526, 535.043 753.876, 535.791 756.658, 541.047 760.797, 546.885 761.818, 547.641 766.514, 550.660 770.424, 552.458 778.128, 554.433 779.446, 554.607 782.500, 555.010 785.299, 555.313 " fill="none" stroke="rgb(0, 0, 0)" stroke-linecap="butt" stroke-linejoin="round" stroke-opacity="1.0" stroke-width="3.0" />
            <path d=" M 642.809, 891.142 642.636, 891.559 639.959, 898.024 636.711, 904.911 632.213, 913.341 630.065, 918.770 627.908, 924.222 627.337, 925.352 624.807, 930.352 622.854, 934.478 621.415, 937.867 621.777, 940.900 624.087, 940.605 626.009, 939.421 629.015, 937.188 629.588, 935.871 631.922, 933.799 633.236, 932.699 " fill="none" stroke="rgb(0, 0, 0)" stroke-linecap="butt" stroke-linejoin="round" stroke-opacity="1.0" stroke-width="3.0" />
            <path d=" M 573.817, 968.017 573.780, 966.976 573.465, 958.152 573.464, 958.126 573.343, 954.751 573.169, 949.870 573.724, 943.119 574.153, 941.075 574.158, 941.049 574.163, 941.025 574.399, 939.901 574.611, 938.888 574.773, 938.113 575.009, 930.117 575.348, 923.294 575.297, 919.017 575.250, 915.138 575.588, 909.971 575.731, 907.792 575.765, 907.268 576.178, 897.284 " fill="none" stroke="rgb(0, 0, 0)" stroke-linecap="butt" stroke-linejoin="round" stroke-opacity="1.0" stroke-width="3.0" />
            <path d=" M 748.009, 610.322 747.499, 609.540 746.687, 608.295 745.699, 604.797 745.648, 604.617 745.648, 604.616 745.578, 604.370 745.389, 603.699 742.454, 604.755 737.138, 608.462 734.514, 610.760 734.065, 611.080 728.239, 615.224 723.654, 618.331 722.231, 619.468 717.986, 624.296 713.202, 627.462 711.628, 629.235 708.998, 632.891 706.713, 638.847 702.737, 641.805 700.823, 644.802 699.245, 645.919 " fill="none" stroke="rgb(0, 0, 0)" stroke-linecap="butt" stroke-linejoin="round" stroke-opacity="1.0" stroke-width="3.0" />
            <path d=" M 523.229, 781.725 522.738, 786.792 523.057, 790.560 522.012, 798.722 521.967, 807.381 521.888, 813.107 521.731, 823.106 521.686, 826.022 522.026, 836.017 522.101, 838.199 522.732, 842.942 522.942, 844.514 523.230, 847.948 523.817, 854.950 523.910, 856.055 " fill="none" stroke="rgb(0, 0, 0)" stroke-linecap="butt" stroke-linejoin="round" stroke-opacity="1.0" stroke-width="3.0" />
            <path d=" M 573.812, 631.394 573.585, 629.836 573.403, 628.588 573.190, 627.124 571.854, 617.964 571.559, 615.939 570.982, 611.976 570.906, 611.258 570.897, 611.165 570.887, 611.072 570.628, 608.599 569.585, 598.654 569.476, 597.621 569.852, 587.628 570.108, 580.812 572.495, 571.600 572.542, 571.420 574.109, 562.659 573.998, 561.667 573.981, 561.512 573.471, 556.962 " fill="none" stroke="rgb(0, 0, 0)" stroke-linecap="butt" stroke-linejoin="round" stroke-opacity="1.0" stroke-width="3.0" />
            <path d=" M 782.529, 404.068 785.287, 404.285 789.986, 404.655 792.834, 404.208 794.275, 403.982 796.489, 402.523 798.641, 401.103 801.811, 397.394 803.710, 395.171 805.820, 390.980 806.349, 386.398 804.637, 381.869 799.687, 376.898 795.174, 373.576 791.752, 371.591 789.482, 370.274 788.535, 369.907 779.211, 366.292 774.611, 364.508 772.439, 364.978 " fill="none" stroke="rgb(0, 0, 0)" stroke-linecap="butt" stroke-linejoin="round" stroke-opacity="1.0" stroke-width="3.0" />
            <path d=" M 857.235, 649.038 860.169, 645.740 861.727, 641.900 865.910, 636.402 866.329, 635.446 866.541, 634.006 867.100, 624.863 866.900, 617.893 866.523, 615.156 863.841, 610.421 863.701, 610.172 859.389, 608.599 859.084, 608.551 856.238, 610.102 854.495, 612.380 854.308, 612.419 849.039, 610.858 843.021, 609.134 838.620, 607.351 831.809, 606.981 " fill="none" stroke="rgb(0, 0, 0)" stroke-linecap="butt" stroke-linejoin="round" stroke-opacity="1.0" stroke-width="3.0" />
            <path d=" M 728.815, 951.193 728.609, 957.144 728.540, 959.136 728.407, 962.992 728.970, 968.930 729.073, 969.804 732.142, 972.011 733.191, 972.464 736.408, 969.875 739.596, 961.494 742.950, 954.343 744.492, 948.925 747.182, 942.304 749.062, 933.798 750.098, 926.755 750.385, 924.428 750.389, 924.399 750.390, 924.389 750.609, 922.615 750.667, 922.147 750.759, 921.406 " fill="none" stroke="rgb(0, 0, 0)" stroke-linecap="butt" stroke-linejoin="round" stroke-opacity="1.0" stroke-width="3.0" />
            <path d=" M 888.726, 708.882 893.243, 701.395 894.575, 698.854 894.588, 698.828 895.943, 696.244 896.597, 694.996 898.376, 691.199 899.808, 687.637 900.887, 684.951 904.470, 678.824 908.029, 671.986 909.067, 668.997 911.435, 664.399 913.772, 660.354 918.248, 652.372 919.944, 649.680 921.736, 644.497 924.438, 637.767 " fill="none" stroke="rgb(0, 0, 0)" stroke-linecap="butt" stroke-linejoin="round" stroke-opacity="1.0" stroke-width="3.0" />
            <path d=" M 636.355, 1103.310 640.152, 1103.466 642.675, 1102.881 645.940, 1102.002 653.421, 1097.726 660.828, 1091.758 662.748, 1089.826 669.690, 1082.628 669.842, 1082.470 672.615, 1079.022 677.352, 1070.215 677.899, 1069.199 676.976, 1065.146 675.236, 1064.651 672.175, 1065.692 669.476, 1066.627 666.664, 1068.781 660.327, 1071.548 652.381, 1073.371 " fill="none" stroke="rgb(0, 0, 0)" stroke-linecap="butt" stroke-linejoin="round" stroke-opacity="1.0" stroke-width="3.0" />
            <path d=" M 524.761, 879.394 524.653, 883.746 524.655, 890.845 525.011, 899.406 525.024, 902.877 525.674, 906.972 525.382, 913.417 525.597, 923.415 525.612, 924.096 525.567, 927.223 525.598, 933.547 526.076, 943.535 526.190, 945.926 527.489, 955.841 527.656, 957.119 529.215, 966.997 529.270, 967.347 " fill="none" stroke="rgb(0, 0, 0)" stroke-linecap="butt" stroke-linejoin="round" stroke-opacity="1.0" stroke-width="3.0" />
            <path d=" M 904.498, 476.733 903.135, 471.833 901.221, 464.763 899.974, 455.405 898.864, 447.622 899.607, 438.494 900.165, 434.951 900.030, 426.102 899.067, 421.007 896.874, 416.721 891.270, 408.439 890.341, 407.066 884.669, 399.335 879.711, 396.932 878.089, 396.146 " fill="none" stroke="rgb(0, 0, 0)" stroke-linecap="butt" stroke-linejoin="round" stroke-opacity="1.0" stroke-width="3.0" />
            <path d=" M 583.816, 399.997 581.548, 402.331 579.602, 404.498 578.987, 405.182 577.443, 407.322 576.947, 408.233 576.064, 409.858 575.781, 410.348 573.881, 413.648 572.407, 417.090 572.368, 417.180 571.511, 419.181 570.997, 420.532 570.103, 423.937 569.432, 426.946 568.916, 433.547 568.663, 436.030 568.619, 436.458 568.751, 445.660 569.320, 448.865 572.001, 456.276 575.545, 460.496 576.410, 462.557 576.761, 466.260 581.927, 474.823 582.174, 475.232 583.312, 477.939 585.241, 482.529 " fill="none" stroke="rgb(0, 0, 0)" stroke-linecap="butt" stroke-linejoin="round" stroke-opacity="1.0" stroke-width="3.0" />
            <path d=" M 647.194, 328.228 644.742, 329.780 641.460, 332.406 638.663, 334.477 634.887, 337.264 633.139, 338.011 630.977, 339.555 626.779, 342.253 624.575, 344.581 622.001, 346.566 620.544, 347.365 615.008, 350.595 612.016, 352.673 608.247, 354.204 605.428, 355.209 604.094, 355.793 599.623, 358.578 596.822, 359.547 589.827, 363.247 584.992, 367.880 582.444, 370.282 579.568, 374.152 578.864, 378.769 578.569, 383.666 578.537, 384.207 " fill="none" stroke="rgb(0, 0, 0)" stroke-linecap="butt" stroke-linejoin="round" stroke-opacity="1.0" stroke-width="3.0" />
            <path d=" M 593.414, 562.083 595.692, 558.964 600.058, 556.455 604.646, 556.445 605.936, 553.456 607.791, 548.363 611.014, 543.838 612.024, 542.420 614.318, 534.820 614.288, 531.836 613.736, 530.573 610.851, 526.412 607.251, 523.197 599.599, 521.428 589.831, 519.282 585.689, 518.372 585.506, 518.332 584.821, 517.843 583.503, 516.901 579.007, 513.688 572.809, 509.610 569.645, 508.075 " fill="none" stroke="rgb(0, 0, 0)" stroke-linecap="butt" stroke-linejoin="round" stroke-opacity="1.0" stroke-width="3.0" />
            <path d=" M 810.599, 538.225 803.111, 535.064 801.145, 535.105 799.916, 535.847 795.215, 539.651 792.549, 542.440 791.428, 543.613 788.793, 546.371 788.787, 546.377 788.554, 546.936 787.472, 549.536 786.936, 552.001 786.385, 554.531 786.293, 554.851 786.134, 555.404 785.193, 558.683 784.448, 561.280 783.892, 562.260 781.594, 566.312 780.684, 567.916 779.127, 569.610 776.290, 570.929 774.538, 571.848 772.354, 575.359 771.577, 575.964 768.346, 578.484 768.332, 578.495 766.138, 581.054 765.942, 581.283 765.502, 581.795 765.338, 581.987 764.429, 583.047 763.881, 583.573 763.790, 583.660 763.642, 583.802 759.995, 587.302 757.623, 590.657 756.638, 594.801 756.423, 595.705 756.406, 595.775 755.475, 601.421 " fill="none" stroke="rgb(0, 0, 0)" stroke-linecap="butt" stroke-linejoin="round" stroke-opacity="1.0" stroke-width="3.0" />
            <path d=" M 677.334, 961.662 679.474, 956.646 680.584, 954.044 680.797, 953.546 681.775, 950.649 682.152, 949.534 682.154, 949.527 682.634, 948.105 683.865, 944.461 685.966, 938.241 687.170, 935.149 687.391, 934.582 687.504, 934.290 687.511, 934.271 687.512, 934.270 689.114, 930.155 689.254, 929.880 689.585, 929.227 693.262, 921.988 693.505, 921.509 696.623, 912.007 697.630, 908.938 698.032, 907.689 701.017, 898.410 702.731, 891.848 704.241, 888.495 704.266, 882.775 704.266, 882.666 705.110, 879.967 705.430, 878.944 706.393, 875.865 707.123, 873.530 707.309, 870.785 " fill="none" stroke="rgb(0, 0, 0)" stroke-linecap="butt" stroke-linejoin="round" stroke-opacity="1.0" stroke-width="3.0" />
            <path d=" M 589.317, 672.969 589.402, 672.512 589.439, 672.314 589.789, 670.427 589.804, 670.344 591.628, 660.511 591.648, 660.403 591.185, 657.997 591.234, 653.130 591.229, 653.033 590.806, 645.578 588.416, 638.547 587.142, 628.629 585.973, 619.523 586.302, 609.529 586.503, 603.432 587.349, 593.468 587.393, 592.950 587.638, 590.061 587.796, 583.803 587.874, 580.694 588.880, 574.769 588.991, 574.112 588.993, 574.099 " fill="none" stroke="rgb(0, 0, 0)" stroke-linecap="butt" stroke-linejoin="round" stroke-opacity="1.0" stroke-width="3.0" />
            <path d=" M 880.606, 669.724 876.331, 674.133 873.266, 678.291 868.539, 685.191 863.669, 690.655 860.225, 693.411 855.742, 697.619 853.979, 699.371 848.713, 703.711 845.466, 706.185 840.466, 711.310 837.191, 713.937 834.084, 717.631 831.987, 719.345 828.734, 725.154 823.920, 732.240 819.757, 736.523 819.535, 736.752 819.447, 736.811 817.553, 738.086 815.922, 739.185 815.131, 739.489 811.794, 740.773 809.405, 740.994 805.886, 741.318 " fill="none" stroke="rgb(0, 0, 0)" stroke-linecap="butt" stroke-linejoin="round" stroke-opacity="1.0" stroke-width="3.0" />
            <path d=" M 857.708, 598.286 862.836, 598.573 865.415, 598.814 871.149, 599.348 874.714, 598.125 879.811, 595.007 881.240, 591.895 880.537, 588.731 879.474, 584.874 879.162, 578.158 877.668, 573.990 877.017, 572.172 872.313, 565.533 868.972, 562.203 868.857, 562.089 867.429, 560.872 864.983, 559.117 861.196, 556.399 854.262, 553.554 852.125, 553.176 851.780, 553.115 851.379, 553.044 849.779, 552.761 849.726, 552.751 849.704, 552.751 849.504, 552.749 849.488, 552.748 849.434, 552.748 849.410, 552.747 849.145, 552.744 849.106, 552.744 848.856, 552.741 848.528, 552.737 846.453, 552.711 846.446, 552.711 844.790, 552.690 842.844, 552.666 838.857, 552.617 836.820, 552.592 832.711, 553.522 828.071, 554.571 827.615, 554.675 820.659, 556.085 " fill="none" stroke="rgb(0, 0, 0)" stroke-linecap="butt" stroke-linejoin="round" stroke-opacity="1.0" stroke-width="3.0" />
            <path d=" M 671.236, 978.159 672.850, 973.793 674.077, 970.473 674.234, 970.051 674.266, 969.962 674.342, 969.757 674.602, 969.053 675.438, 966.792 675.741, 965.972 676.225, 964.664 676.464, 964.015 677.334, 961.662 678.524, 958.443 679.153, 956.741 679.578, 955.591 680.161, 953.840 680.310, 953.390 680.555, 952.565 681.230, 950.286 681.600, 949.039 682.029, 947.591 682.113, 947.306 682.529, 945.902 682.631, 945.558 683.976, 941.021 686.246, 934.597 686.395, 934.175 686.398, 934.165 686.405, 934.145 686.790, 933.056 688.510, 927.059 688.524, 927.012 689.472, 923.705 689.494, 923.627 689.519, 923.542 689.728, 922.811 692.122, 916.164 692.902, 913.984 692.920, 913.934 693.224, 913.082 695.917, 905.554 696.140, 904.931 696.922, 902.619 696.992, 902.410 697.173, 901.874 697.648, 900.471 697.703, 900.307 697.946, 899.587 698.315, 898.497 700.089, 893.249 703.264, 883.767 704.569, 879.871 704.601, 879.775 704.622, 879.712 704.728, 879.397 705.819, 876.139 706.575, 873.878 707.309, 870.785 707.512, 869.928 708.487, 865.819 " fill="none" stroke="rgb(0, 0, 0)" stroke-linecap="butt" stroke-linejoin="round" stroke-opacity="1.0" stroke-width="3.0" />
            <path d=" M 561.805, 732.667 561.952, 722.668 562.026, 717.606 562.708, 709.179 563.339, 699.198 563.505, 696.556 563.773, 686.560 563.798, 685.629 564.733, 675.673 564.966, 673.183 565.362, 669.272 565.498, 667.928 565.535, 667.555 565.585, 667.064 565.644, 666.484 565.644, 666.475 565.940, 663.552 566.379, 655.427 566.666, 650.116 565.898, 643.048 565.459, 636.876 565.380, 635.772 565.239, 633.786 565.226, 633.605 565.187, 633.049 565.153, 632.575 565.119, 632.099 564.950, 629.718 564.679, 621.909 564.460, 615.605 564.429, 614.696 564.376, 613.164 " fill="none" stroke="rgb(0, 0, 0)" stroke-linecap="butt" stroke-linejoin="round" stroke-opacity="1.0" stroke-width="3.0" />
            <path d=" M 769.772, 730.379 773.546, 727.212 773.622, 727.149 774.680, 726.260 774.710, 726.235 774.823, 726.140 775.064, 725.938 776.613, 724.638 776.620, 724.632 776.903, 724.395 776.923, 724.378 782.383, 719.796 783.352, 719.243 783.548, 719.131 790.009, 715.445 793.734, 714.275 802.739, 709.928 806.430, 708.146 808.366, 707.101 815.300, 703.358 818.656, 700.221 824.411, 695.018 830.681, 687.926 836.498, 681.851 840.649, 676.310 843.351, 672.658 847.407, 665.908 850.142, 662.357 853.113, 656.907 854.089, 654.940 857.235, 649.038 857.692, 648.182 " fill="none" stroke="rgb(0, 0, 0)" stroke-linecap="butt" stroke-linejoin="round" stroke-opacity="1.0" stroke-width="3.0" />
            <path d=" M 714.516, 847.757 714.791, 847.028 716.698, 841.969 717.909, 838.756 719.975, 833.276 723.426, 825.224 725.756, 818.609 727.585, 813.415 728.339, 811.277 731.908, 801.936 734.513, 795.118 738.467, 785.933 742.328, 776.963 746.850, 768.044 748.201, 765.381 751.228, 759.519 754.208, 753.750 755.914, 750.448 758.406, 747.087 758.466, 746.983 758.548, 746.840 758.887, 746.254 761.173, 742.299 761.588, 741.580 762.867, 739.367 763.016, 739.108 763.102, 738.959 763.342, 738.544 765.164, 735.392 765.892, 734.588 770.016, 730.037 770.240, 729.790 " fill="none" stroke="rgb(0, 0, 0)" stroke-linecap="butt" stroke-linejoin="round" stroke-opacity="1.0" stroke-width="3.0" />
            <path d=" M 802.167, 807.820 802.218, 807.719 806.207, 799.656 809.680, 793.974 814.935, 788.231 818.899, 785.042 825.101, 779.903 829.237, 776.509 831.078, 775.791 834.864, 773.887 841.355, 769.851 847.795, 765.588 855.742, 759.518 855.932, 759.372 861.531, 754.380 866.863, 749.629 871.601, 744.102 877.965, 736.388 878.347, 735.925 883.782, 727.531 883.943, 727.282 884.488, 726.252 889.551, 717.628 889.775, 717.246 891.427, 713.782 893.150, 710.806 " fill="none" stroke="rgb(0, 0, 0)" stroke-linecap="butt" stroke-linejoin="round" stroke-opacity="1.0" stroke-width="3.0" />
            <path d=" M 934.008, 609.841 935.731, 607.735 936.402, 606.914 937.172, 605.740 939.904, 601.464 942.504, 595.168 944.709, 588.177 947.181, 578.471 947.873, 573.474 948.432, 568.206 948.473, 558.206 948.474, 557.977 947.834, 554.286 946.701, 549.068 943.520, 542.679 941.589, 538.239 938.103, 532.519 934.379, 527.104 929.647, 521.322 924.504, 514.791 922.078, 509.274 920.044, 505.720 917.350, 501.487 912.675, 492.647 910.901, 489.291 908.559, 484.827 906.479, 480.765 904.498, 476.733 904.103, 475.929 " fill="none" stroke="rgb(0, 0, 0)" stroke-linecap="butt" stroke-linejoin="round" stroke-opacity="1.0" stroke-width="3.0" />
            <path d=" M 568.572, 534.054 568.582, 534.030 569.621, 531.317 570.802, 527.053 571.714, 520.448 570.069, 515.241 569.548, 513.595 569.560, 512.945 569.645, 508.075 569.698, 505.001 569.717, 503.909 569.242, 499.736 569.366, 495.996 569.913, 493.511 571.504, 489.968 569.415, 483.650 566.992, 480.294 560.200, 478.443 553.399, 478.064 550.224, 479.134 548.708, 480.465 544.289, 488.232 543.535, 489.559 543.440, 489.831 541.965, 494.057 541.470, 495.476 540.841, 496.838 540.792, 496.945 538.575, 501.745 537.568, 505.323 535.160, 509.635 534.189, 512.242 531.859, 518.501 530.970, 520.890 530.222, 523.929 528.929, 529.189 528.503, 532.985 528.445, 533.504 528.350, 534.347 528.252, 535.223 528.395, 538.195 528.065, 542.070 527.901, 544.002 528.261, 546.092 529.102, 550.531 530.216, 554.839 532.655, 558.826 533.925, 562.058 " fill="none" stroke="rgb(0, 0, 0)" stroke-linecap="butt" stroke-linejoin="round" stroke-opacity="1.0" stroke-width="3.0" />
            <path d=" M 669.143, 732.381 669.150, 741.652 669.878, 751.626 669.995, 753.226 669.969, 761.752 669.949, 768.330 669.503, 771.383 667.679, 781.216 665.854, 791.048 665.537, 792.760 664.216, 802.673 663.508, 807.981 663.079, 809.642 660.665, 819.346 659.286, 824.887 656.493, 833.366 654.262, 842.067 653.714, 847.063 651.688, 854.067 650.920, 856.720 650.480, 858.240 650.460, 858.309 650.449, 858.348 650.414, 858.471 650.290, 859.032 649.219, 863.886 649.086, 864.488 648.827, 865.658 647.812, 870.755 646.549, 875.902 644.166, 885.614 643.474, 888.431 643.434, 888.594 643.427, 888.621 643.095, 889.974 643.057, 890.128 642.809, 891.142 642.683, 891.653 641.502, 896.465 639.095, 906.170 638.152, 909.968 636.235, 919.782 635.755, 922.243 635.740, 922.316 635.627, 922.894 635.056, 925.820 633.236, 932.699 632.956, 933.754 630.981, 943.557 630.647, 945.214 628.278, 954.929 626.188, 963.503 623.953, 973.250 622.138, 981.171 620.208, 990.982 619.715, 993.484 618.132, 999.099 615.419, 1008.724 615.285, 1009.199 " fill="none" stroke="rgb(0, 0, 0)" stroke-linecap="butt" stroke-linejoin="round" stroke-opacity="1.0" stroke-width="3.0" />
        </g>
    </g>
</svg>
