<?xml version='1.0' encoding='ascii'?>
<svg xmlns="http://www.w3.org/2000/svg" height="1280" version="1.1" width="1280">
    <g id="RenderLayer_LineSet" inkscape:groupmode="lineset" inkscape:label="RenderLayer_LineSet" xmlns:inkscape="http://www.inkscape.org/namespaces/inkscape">
        <g id="strokes" inkscape:groupmode="layer" inkscape:label="strokes" xmlns:inkscape="http://www.inkscape.org/namespaces/inkscape">
            <path d=" M 727.555, 732.937 731.945, 723.952 732.613, 722.584 733.167, 720.091 733.559, 718.324 734.214, 715.377 734.583, 713.715 " fill="none" stroke="rgb(0, 0, 0)" stroke-linecap="butt" stroke-linejoin="round" stroke-opacity="1.0" stroke-width="3.0" />
            <path d=" M 661.383, 485.048 660.759, 484.834 655.817, 483.135 653.905, 481.563 653.826, 481.498 653.744, 481.431 652.243, 480.197 651.883, 479.901 651.853, 479.876 651.076, 479.237 650.955, 479.137 650.330, 478.624 650.269, 478.553 649.588, 477.771 648.849, 476.921 645.253, 472.788 " fill="none" stroke="rgb(0, 0, 0)" stroke-linecap="butt" stroke-linejoin="round" stroke-opacity="1.0" stroke-width="3.0" />
            <path d=" M 682.574, 935.048 682.611, 935.026 688.461, 934.033 690.950, 932.996 693.490, 931.881 697.459, 926.628 697.981, 925.720 699.030, 924.284 " fill="none" stroke="rgb(0, 0, 0)" stroke-linecap="butt" stroke-linejoin="round" stroke-opacity="1.0" stroke-width="3.0" />
            <path d=" M 520.480, 602.348 519.818, 609.993 519.953, 615.830 520.427, 621.820 520.707, 623.297 " fill="none" stroke="rgb(0, 0, 0)" stroke-linecap="butt" stroke-linejoin="round" stroke-opacity="1.0" stroke-width="3.0" />
            <path d=" M 523.837, 584.558 522.371, 589.738 522.217, 590.282 520.888, 594.796 520.314, 600.905 520.480, 602.348 520.799, 605.122 " fill="none" stroke="rgb(0, 0, 0)" stroke-linecap="butt" stroke-linejoin="round" stroke-opacity="1.0" stroke-width="3.0" />
            <path d=" M 781.274, 959.074 782.652, 952.095 783.112, 949.763 783.437, 948.780 786.575, 939.285 786.802, 938.599 " fill="none" stroke="rgb(0, 0, 0)" stroke-linecap="butt" stroke-linejoin="round" stroke-opacity="1.0" stroke-width="3.0" />
            <path d=" M 725.646, 744.664 728.576, 742.664 730.582, 739.415 732.316, 731.268 732.348, 728.980 732.392, 725.809 732.395, 725.588 732.396, 725.540 " fill="none" stroke="rgb(0, 0, 0)" stroke-linecap="butt" stroke-linejoin="round" stroke-opacity="1.0" stroke-width="3.0" />
            <path d=" M 833.363, 444.444 829.842, 443.952 828.395, 444.197 827.956, 445.076 826.294, 449.100 820.788, 451.007 815.741, 449.572 " fill="none" stroke="rgb(0, 0, 0)" stroke-linecap="butt" stroke-linejoin="round" stroke-opacity="1.0" stroke-width="3.0" />
            <path d=" M 659.148, 684.268 660.223, 674.326 660.718, 669.744 660.725, 669.679 660.764, 669.326 661.819, 663.000 " fill="none" stroke="rgb(0, 0, 0)" stroke-linecap="butt" stroke-linejoin="round" stroke-opacity="1.0" stroke-width="3.0" />
            <path d=" M 664.225, 405.336 664.159, 404.807 664.145, 404.694 664.142, 404.667 663.805, 401.961 662.565, 398.524 657.761, 396.779 655.906, 397.684 650.943, 402.520 650.616, 402.839 " fill="none" stroke="rgb(0, 0, 0)" stroke-linecap="butt" stroke-linejoin="round" stroke-opacity="1.0" stroke-width="3.0" />
            <path d=" M 662.680, 732.468 661.295, 729.052 660.993, 721.980 660.913, 720.094 660.603, 712.836 660.530, 711.125 " fill="none" stroke="rgb(0, 0, 0)" stroke-linecap="butt" stroke-linejoin="round" stroke-opacity="1.0" stroke-width="3.0" />
            <path d=" M 582.532, 859.994 582.643, 855.136 582.651, 854.780 582.667, 854.076 582.709, 852.225 582.491, 849.289 582.449, 848.721 582.102, 844.046 581.825, 840.315 581.669, 838.218 " fill="none" stroke="rgb(0, 0, 0)" stroke-linecap="butt" stroke-linejoin="round" stroke-opacity="1.0" stroke-width="3.0" />
            <path d=" M 759.714, 926.315 760.839, 927.362 762.829, 929.214 767.424, 932.138 772.221, 932.887 774.970, 931.413 776.493, 930.329 777.048, 929.525 777.845, 928.370 " fill="none" stroke="rgb(0, 0, 0)" stroke-linecap="butt" stroke-linejoin="round" stroke-opacity="1.0" stroke-width="3.0" />
            <path d=" M 806.371, 496.882 806.292, 492.561 804.863, 486.819 804.790, 485.980 804.783, 485.896 804.489, 482.483 804.160, 481.248 803.966, 480.519 803.915, 480.329 803.020, 476.969 802.925, 476.613 802.534, 475.147 " fill="none" stroke="rgb(0, 0, 0)" stroke-linecap="butt" stroke-linejoin="round" stroke-opacity="1.0" stroke-width="3.0" />
            <path d=" M 593.354, 711.809 594.689, 711.977 601.187, 708.861 605.881, 705.118 606.427, 703.564 606.431, 701.810 606.435, 700.571 606.442, 697.511 " fill="none" stroke="rgb(0, 0, 0)" stroke-linecap="butt" stroke-linejoin="round" stroke-opacity="1.0" stroke-width="3.0" />
            <path d=" M 901.452, 706.738 899.919, 712.231 897.377, 721.826 898.203, 718.669 898.796, 715.222 " fill="none" stroke="rgb(0, 0, 0)" stroke-linecap="butt" stroke-linejoin="round" stroke-opacity="1.0" stroke-width="3.0" />
            <path d=" M 660.326, 991.539 661.163, 989.201 661.755, 987.545 662.475, 985.532 662.828, 984.545 663.478, 982.728 664.024, 981.203 667.392, 971.787 667.925, 970.297 " fill="none" stroke="rgb(0, 0, 0)" stroke-linecap="butt" stroke-linejoin="round" stroke-opacity="1.0" stroke-width="3.0" />
            <path d=" M 577.257, 530.875 577.270, 530.625 577.295, 530.184 577.319, 529.751 577.336, 529.430 577.396, 528.355 577.464, 526.287 577.499, 525.244 577.536, 524.124 577.772, 517.003 576.841, 515.293 576.812, 515.239 576.668, 514.974 576.643, 514.928 576.604, 514.856 576.588, 514.827 576.565, 514.785 576.544, 514.746 576.357, 514.403 575.913, 513.585 575.871, 513.509 575.693, 513.181 575.620, 513.047 575.592, 512.995 575.526, 512.873 575.372, 512.591 575.317, 512.490 575.103, 512.096 575.004, 511.914 574.509, 511.005 573.693, 509.503 573.587, 509.309 " fill="none" stroke="rgb(0, 0, 0)" stroke-linecap="butt" stroke-linejoin="round" stroke-opacity="1.0" stroke-width="3.0" />
            <path d=" M 827.698, 699.318 826.263, 697.163 825.624, 695.021 825.388, 694.296 822.997, 691.482 821.381, 686.849 820.811, 684.715 820.091, 680.313 819.306, 678.580 " fill="none" stroke="rgb(0, 0, 0)" stroke-linecap="butt" stroke-linejoin="round" stroke-opacity="1.0" stroke-width="3.0" />
            <path d=" M 639.666, 731.372 641.395, 733.575 644.740, 738.766 647.620, 743.464 649.653, 745.248 652.618, 747.769 653.819, 749.027 " fill="none" stroke="rgb(0, 0, 0)" stroke-linecap="butt" stroke-linejoin="round" stroke-opacity="1.0" stroke-width="3.0" />
            <path d=" M 580.126, 588.587 580.013, 588.356 579.832, 587.986 579.757, 587.614 579.648, 587.076 579.631, 586.990 579.311, 585.403 578.866, 582.392 577.404, 572.500 577.241, 571.398 576.730, 567.937 576.508, 566.083 " fill="none" stroke="rgb(0, 0, 0)" stroke-linecap="butt" stroke-linejoin="round" stroke-opacity="1.0" stroke-width="3.0" />
            <path d=" M 587.947, 595.032 588.688, 586.491 588.717, 585.489 588.926, 578.284 588.937, 577.926 589.071, 577.187 589.977, 572.233 " fill="none" stroke="rgb(0, 0, 0)" stroke-linecap="butt" stroke-linejoin="round" stroke-opacity="1.0" stroke-width="3.0" />
            <path d=" M 545.385, 534.072 545.386, 534.078 546.043, 537.054 546.048, 537.120 546.056, 537.217 546.057, 537.225 546.078, 537.496 546.101, 537.774 546.110, 537.889 546.132, 538.164 546.228, 539.346 546.731, 545.576 546.893, 547.573 546.999, 548.881 547.242, 551.892 547.019, 555.833 547.039, 556.948 " fill="none" stroke="rgb(0, 0, 0)" stroke-linecap="butt" stroke-linejoin="round" stroke-opacity="1.0" stroke-width="3.0" />
            <path d=" M 782.947, 561.088 783.886, 559.914 786.188, 556.560 786.393, 556.379 786.908, 555.923 793.486, 550.106 797.940, 546.898 799.863, 545.513 " fill="none" stroke="rgb(0, 0, 0)" stroke-linecap="butt" stroke-linejoin="round" stroke-opacity="1.0" stroke-width="3.0" />
            <path d=" M 764.796, 814.363 772.399, 816.838 775.893, 818.206 776.235, 819.059 776.668, 820.139 775.028, 821.616 772.350, 822.459 768.206, 823.765 " fill="none" stroke="rgb(0, 0, 0)" stroke-linecap="butt" stroke-linejoin="round" stroke-opacity="1.0" stroke-width="3.0" />
            <path d=" M 574.592, 489.768 575.276, 488.775 575.546, 486.955 574.344, 484.420 574.290, 484.307 574.146, 484.002 573.647, 483.262 571.954, 480.751 571.612, 480.244 568.641, 477.751 566.430, 475.768 565.247, 474.728 561.723, 472.958 " fill="none" stroke="rgb(0, 0, 0)" stroke-linecap="butt" stroke-linejoin="round" stroke-opacity="1.0" stroke-width="3.0" />
            <path d=" M 738.936, 1066.048 738.232, 1069.655 737.910, 1071.304 737.932, 1077.989 739.845, 1085.493 740.624, 1088.459 740.915, 1088.775 " fill="none" stroke="rgb(0, 0, 0)" stroke-linecap="butt" stroke-linejoin="round" stroke-opacity="1.0" stroke-width="3.0" />
            <path d=" M 882.891, 699.786 882.148, 700.280 878.894, 704.500 876.842, 705.680 873.123, 708.327 871.154, 711.579 871.865, 714.655 872.741, 717.616 872.838, 717.898 " fill="none" stroke="rgb(0, 0, 0)" stroke-linecap="butt" stroke-linejoin="round" stroke-opacity="1.0" stroke-width="3.0" />
            <path d=" M 761.394, 1069.871 763.724, 1067.422 765.644, 1062.009 766.513, 1055.627 766.872, 1051.079 767.139, 1047.695 " fill="none" stroke="rgb(0, 0, 0)" stroke-linecap="butt" stroke-linejoin="round" stroke-opacity="1.0" stroke-width="3.0" />
            <path d=" M 591.873, 464.548 591.623, 464.863 587.282, 470.323 584.668, 474.470 584.341, 475.276 583.828, 476.541 583.623, 477.047 583.589, 477.129 583.193, 478.105 583.186, 478.124 582.712, 479.653 581.805, 482.666 581.282, 485.349 " fill="none" stroke="rgb(0, 0, 0)" stroke-linecap="butt" stroke-linejoin="round" stroke-opacity="1.0" stroke-width="3.0" />
            <path d=" M 543.247, 490.978 540.296, 497.122 539.407, 498.971 537.532, 506.725 536.723, 512.200 536.903, 513.617 " fill="none" stroke="rgb(0, 0, 0)" stroke-linecap="butt" stroke-linejoin="round" stroke-opacity="1.0" stroke-width="3.0" />
            <path d=" M 616.358, 882.965 623.176, 882.809 625.954, 882.540 628.779, 881.722 628.803, 881.715 629.867, 881.407 630.519, 881.219 630.647, 881.182 631.611, 880.520 634.047, 878.848 637.285, 875.669 637.671, 874.953 " fill="none" stroke="rgb(0, 0, 0)" stroke-linecap="butt" stroke-linejoin="round" stroke-opacity="1.0" stroke-width="3.0" />
            <path d=" M 843.348, 463.967 842.560, 463.778 838.554, 463.216 833.565, 463.245 829.361, 464.402 828.540, 464.481 824.698, 464.849 824.601, 464.933 823.493, 465.886 823.405, 465.962 823.349, 466.009 823.303, 466.049 821.906, 467.250 821.061, 467.352 820.508, 467.418 " fill="none" stroke="rgb(0, 0, 0)" stroke-linecap="butt" stroke-linejoin="round" stroke-opacity="1.0" stroke-width="3.0" />
            <path d=" M 587.649, 786.174 590.607, 784.029 590.804, 776.514 590.809, 776.331 590.811, 776.242 590.815, 776.085 590.422, 771.343 591.305, 763.997 591.355, 763.575 " fill="none" stroke="rgb(0, 0, 0)" stroke-linecap="butt" stroke-linejoin="round" stroke-opacity="1.0" stroke-width="3.0" />
            <path d=" M 616.365, 617.635 617.653, 619.899 622.590, 628.026 623.302, 629.157 625.103, 630.953 627.007, 632.852 630.344, 637.446 " fill="none" stroke="rgb(0, 0, 0)" stroke-linecap="butt" stroke-linejoin="round" stroke-opacity="1.0" stroke-width="3.0" />
            <path d=" M 724.708, 757.300 725.878, 753.382 725.934, 752.514 725.773, 749.957 725.726, 749.213 725.504, 745.955 725.512, 745.886 725.633, 744.778 725.646, 744.664 726.128, 740.263 727.538, 735.263 727.436, 733.322 " fill="none" stroke="rgb(0, 0, 0)" stroke-linecap="butt" stroke-linejoin="round" stroke-opacity="1.0" stroke-width="3.0" />
            <path d=" M 792.561, 665.071 792.772, 665.134 795.327, 665.891 796.300, 666.179 799.374, 667.324 802.761, 666.897 806.833, 667.130 809.459, 666.870 809.876, 666.829 812.744, 666.838 816.330, 666.850 816.368, 666.850 816.615, 666.851 " fill="none" stroke="rgb(0, 0, 0)" stroke-linecap="butt" stroke-linejoin="round" stroke-opacity="1.0" stroke-width="3.0" />
            <path d=" M 627.121, 817.360 623.401, 816.836 618.476, 815.619 615.104, 814.471 610.890, 812.639 610.146, 811.851 609.845, 810.467 611.975, 809.208 613.398, 808.368 614.295, 807.837 " fill="none" stroke="rgb(0, 0, 0)" stroke-linecap="butt" stroke-linejoin="round" stroke-opacity="1.0" stroke-width="3.0" />
            <path d=" M 639.526, 861.386 639.239, 861.046 638.144, 859.750 635.673, 856.825 633.448, 855.768 629.335, 854.584 625.849, 854.036 623.162, 853.812 619.945, 853.525 617.412, 853.855 " fill="none" stroke="rgb(0, 0, 0)" stroke-linecap="butt" stroke-linejoin="round" stroke-opacity="1.0" stroke-width="3.0" />
            <path d=" M 606.431, 701.810 607.606, 701.611 609.091, 699.530 606.045, 693.322 599.717, 687.318 597.460, 686.437 594.606, 685.612 " fill="none" stroke="rgb(0, 0, 0)" stroke-linecap="butt" stroke-linejoin="round" stroke-opacity="1.0" stroke-width="3.0" />
            <path d=" M 752.384, 997.899 753.954, 998.500 755.308, 997.803 757.110, 996.784 758.790, 994.342 760.299, 989.048 760.405, 983.653 761.096, 978.922 761.106, 977.517 " fill="none" stroke="rgb(0, 0, 0)" stroke-linecap="butt" stroke-linejoin="round" stroke-opacity="1.0" stroke-width="3.0" />
            <path d=" M 520.713, 623.562 520.641, 625.383 520.384, 635.380 520.306, 638.414 522.120, 643.867 524.328, 648.154 524.352, 648.200 " fill="none" stroke="rgb(0, 0, 0)" stroke-linecap="butt" stroke-linejoin="round" stroke-opacity="1.0" stroke-width="3.0" />
            <path d=" M 836.978, 438.723 836.351, 438.448 832.102, 436.749 828.129, 436.033 824.763, 434.742 822.754, 433.706 818.916, 430.700 816.877, 427.998 816.238, 427.143 815.593, 426.280 " fill="none" stroke="rgb(0, 0, 0)" stroke-linecap="butt" stroke-linejoin="round" stroke-opacity="1.0" stroke-width="3.0" />
            <path d=" M 820.073, 466.996 819.796, 465.813 819.178, 463.177 816.831, 459.292 813.642, 455.955 809.563, 452.860 806.590, 450.603 803.096, 449.012 " fill="none" stroke="rgb(0, 0, 0)" stroke-linecap="butt" stroke-linejoin="round" stroke-opacity="1.0" stroke-width="3.0" />
            <path d=" M 805.345, 543.354 805.670, 543.248 808.965, 542.172 809.588, 541.969 814.261, 540.443 820.172, 539.076 822.289, 538.775 824.125, 538.514 825.069, 538.380 829.597, 538.200 830.633, 538.158 " fill="none" stroke="rgb(0, 0, 0)" stroke-linecap="butt" stroke-linejoin="round" stroke-opacity="1.0" stroke-width="3.0" />
            <path d=" M 524.328, 648.154 525.878, 651.750 528.306, 657.229 530.443, 664.827 532.133, 670.335 533.174, 672.965 " fill="none" stroke="rgb(0, 0, 0)" stroke-linecap="butt" stroke-linejoin="round" stroke-opacity="1.0" stroke-width="3.0" />
            <path d=" M 756.784, 1085.244 758.136, 1083.490 760.147, 1078.271 761.299, 1071.430 761.394, 1069.871 761.704, 1064.818 761.773, 1062.783 761.773, 1062.774 761.890, 1059.334 " fill="none" stroke="rgb(0, 0, 0)" stroke-linecap="butt" stroke-linejoin="round" stroke-opacity="1.0" stroke-width="3.0" />
            <path d=" M 621.872, 1139.809 622.655, 1141.503 622.972, 1142.189 624.440, 1145.368 627.739, 1145.515 631.181, 1143.684 634.197, 1142.224 635.560, 1140.501 635.981, 1136.933 637.477, 1132.395 " fill="none" stroke="rgb(0, 0, 0)" stroke-linecap="butt" stroke-linejoin="round" stroke-opacity="1.0" stroke-width="3.0" />
            <path d=" M 657.289, 1004.018 658.982, 1005.354 661.645, 1005.389 664.958, 1004.620 668.553, 998.845 668.547, 995.768 666.207, 989.647 664.180, 987.411 " fill="none" stroke="rgb(0, 0, 0)" stroke-linecap="butt" stroke-linejoin="round" stroke-opacity="1.0" stroke-width="3.0" />
            <path d=" M 751.163, 727.848 752.585, 724.321 752.545, 720.370 753.224, 717.618 754.085, 707.655 754.277, 705.427 753.550, 700.523 " fill="none" stroke="rgb(0, 0, 0)" stroke-linecap="butt" stroke-linejoin="round" stroke-opacity="1.0" stroke-width="3.0" />
            <path d=" M 688.195, 924.174 688.933, 923.247 689.966, 919.737 690.076, 915.066 690.090, 914.472 691.244, 909.689 691.585, 899.694 691.607, 899.058 691.686, 896.744 " fill="none" stroke="rgb(0, 0, 0)" stroke-linecap="butt" stroke-linejoin="round" stroke-opacity="1.0" stroke-width="3.0" />
            <path d=" M 556.758, 1065.092 556.755, 1065.099 555.743, 1069.842 555.286, 1075.854 555.342, 1078.306 556.091, 1082.729 557.583, 1086.048 559.705, 1087.864 563.557, 1088.543 " fill="none" stroke="rgb(0, 0, 0)" stroke-linecap="butt" stroke-linejoin="round" stroke-opacity="1.0" stroke-width="3.0" />
            <path d=" M 699.161, 1138.907 698.824, 1139.306 695.833, 1142.841 695.851, 1147.197 695.862, 1148.883 696.615, 1150.312 697.168, 1150.580 703.118, 1151.667 707.731, 1150.283 710.153, 1147.168 " fill="none" stroke="rgb(0, 0, 0)" stroke-linecap="butt" stroke-linejoin="round" stroke-opacity="1.0" stroke-width="3.0" />
            <path d=" M 536.551, 646.955 536.459, 647.372 535.075, 653.607 534.753, 657.956 534.694, 658.752 534.378, 663.022 533.514, 668.481 533.470, 668.761 533.229, 670.280 533.174, 672.965 533.149, 674.209 533.134, 674.921 " fill="none" stroke="rgb(0, 0, 0)" stroke-linecap="butt" stroke-linejoin="round" stroke-opacity="1.0" stroke-width="3.0" />
            <path d=" M 680.692, 1145.709 682.613, 1148.470 689.116, 1150.389 691.470, 1150.084 693.182, 1148.146 693.445, 1147.605 694.445, 1143.625 695.255, 1140.684 695.313, 1139.887 695.418, 1138.449 695.429, 1138.303 695.438, 1138.178 695.574, 1138.152 695.946, 1138.081 697.615, 1137.765 698.390, 1137.618 " fill="none" stroke="rgb(0, 0, 0)" stroke-linecap="butt" stroke-linejoin="round" stroke-opacity="1.0" stroke-width="3.0" />
            <path d=" M 717.306, 1047.542 718.171, 1048.183 718.295, 1048.275 718.879, 1048.708 719.363, 1049.067 719.534, 1049.194 719.535, 1049.195 720.438, 1049.865 722.455, 1054.625 723.704, 1060.172 723.653, 1065.319 723.648, 1068.194 723.768, 1073.135 723.784, 1073.798 " fill="none" stroke="rgb(0, 0, 0)" stroke-linecap="butt" stroke-linejoin="round" stroke-opacity="1.0" stroke-width="3.0" />
            <path d=" M 768.732, 1046.621 771.977, 1037.162 772.376, 1036.001 773.115, 1032.924 774.362, 1023.002 774.877, 1018.893 774.879, 1018.879 " fill="none" stroke="rgb(0, 0, 0)" stroke-linecap="butt" stroke-linejoin="round" stroke-opacity="1.0" stroke-width="3.0" />
            <path d=" M 734.787, 530.961 733.957, 522.859 736.689, 513.602 738.343, 506.396 739.144, 502.907 " fill="none" stroke="rgb(0, 0, 0)" stroke-linecap="butt" stroke-linejoin="round" stroke-opacity="1.0" stroke-width="3.0" />
            <path d=" M 632.250, 902.972 630.581, 902.238 630.013, 901.988 627.204, 900.753 625.992, 900.220 621.411, 896.864 619.449, 894.641 616.304, 892.516 613.967, 890.938 611.772, 888.611 609.013, 886.493 " fill="none" stroke="rgb(0, 0, 0)" stroke-linecap="butt" stroke-linejoin="round" stroke-opacity="1.0" stroke-width="3.0" />
            <path d=" M 740.871, 1088.671 740.915, 1088.775 741.130, 1089.286 741.765, 1090.789 742.213, 1091.851 742.684, 1092.956 744.718, 1094.318 746.677, 1095.222 748.511, 1095.444 748.671, 1095.464 750.307, 1094.636 753.538, 1091.007 756.693, 1085.560 756.784, 1085.244 757.967, 1081.092 " fill="none" stroke="rgb(0, 0, 0)" stroke-linecap="butt" stroke-linejoin="round" stroke-opacity="1.0" stroke-width="3.0" />
            <path d=" M 551.786, 495.268 552.468, 493.488 552.883, 492.705 551.786, 495.268 551.600, 495.702 549.425, 500.289 549.785, 504.604 550.002, 507.207 549.909, 517.207 549.903, 517.784 549.900, 518.164 " fill="none" stroke="rgb(0, 0, 0)" stroke-linecap="butt" stroke-linejoin="round" stroke-opacity="1.0" stroke-width="3.0" />
            <path d=" M 604.548, 1134.050 607.093, 1134.259 607.551, 1134.296 607.709, 1135.277 609.232, 1144.728 611.713, 1146.618 614.089, 1146.869 618.012, 1145.882 620.231, 1143.940 622.972, 1142.189 " fill="none" stroke="rgb(0, 0, 0)" stroke-linecap="butt" stroke-linejoin="round" stroke-opacity="1.0" stroke-width="3.0" />
            <path d=" M 642.000, 747.124 641.197, 744.319 639.894, 743.148 637.927, 741.379 635.572, 740.788 632.242, 740.802 628.828, 741.758 627.770, 742.396 621.481, 749.080 620.664, 751.439 " fill="none" stroke="rgb(0, 0, 0)" stroke-linecap="butt" stroke-linejoin="round" stroke-opacity="1.0" stroke-width="3.0" />
            <path d=" M 801.246, 429.666 798.959, 429.147 796.756, 428.646 792.507, 427.609 792.111, 427.617 791.299, 427.636 788.855, 427.692 788.581, 427.765 786.308, 428.373 785.363, 429.207 779.720, 435.473 779.645, 435.561 778.798, 436.555 778.720, 436.645 778.544, 436.852 778.518, 436.883 778.496, 436.908 778.296, 437.142 777.795, 437.731 776.652, 439.070 " fill="none" stroke="rgb(0, 0, 0)" stroke-linecap="butt" stroke-linejoin="round" stroke-opacity="1.0" stroke-width="3.0" />
            <path d=" M 573.604, 629.355 573.637, 627.603 573.679, 625.345 573.801, 618.889 573.809, 618.453 573.858, 615.840 573.863, 615.549 573.864, 614.555 573.872, 604.555 573.874, 602.512 573.874, 602.067 573.874, 601.935 573.874, 601.745 573.876, 599.246 " fill="none" stroke="rgb(0, 0, 0)" stroke-linecap="butt" stroke-linejoin="round" stroke-opacity="1.0" stroke-width="3.0" />
            <path d=" M 620.354, 935.833 619.471, 937.414 619.210, 937.880 619.102, 938.074 614.875, 945.637 609.161, 953.844 607.771, 955.841 607.392, 956.385 603.290, 960.907 " fill="none" stroke="rgb(0, 0, 0)" stroke-linecap="butt" stroke-linejoin="round" stroke-opacity="1.0" stroke-width="3.0" />
            <path d=" M 642.633, 664.493 641.118, 661.721 640.613, 660.937 639.028, 658.474 637.780, 656.535 635.325, 652.986 631.647, 649.286 634.269, 652.041 639.028, 658.474 " fill="none" stroke="rgb(0, 0, 0)" stroke-linecap="butt" stroke-linejoin="round" stroke-opacity="1.0" stroke-width="3.0" />
            <path d=" M 693.672, 1047.010 693.674, 1047.014 695.795, 1051.999 695.887, 1059.523 696.381, 1064.356 697.116, 1069.600 696.790, 1073.848 696.852, 1077.237 " fill="none" stroke="rgb(0, 0, 0)" stroke-linecap="butt" stroke-linejoin="round" stroke-opacity="1.0" stroke-width="3.0" />
            <path d=" M 797.158, 452.754 797.145, 452.754 790.456, 452.481 784.605, 453.524 779.749, 456.250 778.540, 457.316 777.882, 458.937 777.111, 462.308 776.022, 465.340 774.123, 468.011 " fill="none" stroke="rgb(0, 0, 0)" stroke-linecap="butt" stroke-linejoin="round" stroke-opacity="1.0" stroke-width="3.0" />
            <path d=" M 746.569, 1014.365 745.711, 1017.933 745.176, 1020.028 745.163, 1020.079 745.162, 1020.122 745.156, 1020.333 745.074, 1023.638 745.045, 1024.814 745.072, 1024.995 745.327, 1026.701 745.494, 1027.814 747.598, 1029.379 747.684, 1029.443 747.697, 1029.452 748.159, 1029.460 748.257, 1029.453 751.048, 1029.260 751.760, 1028.708 752.335, 1028.261 754.413, 1026.648 754.438, 1026.628 756.178, 1025.276 757.654, 1021.208 757.857, 1020.251 " fill="none" stroke="rgb(0, 0, 0)" stroke-linecap="butt" stroke-linejoin="round" stroke-opacity="1.0" stroke-width="3.0" />
            <path d=" M 699.545, 920.130 699.719, 922.380 699.030, 924.284 699.367, 922.549 699.443, 922.156 699.545, 920.130 699.741, 916.256 698.487, 911.666 697.064, 906.744 695.032, 902.894 691.607, 899.058 " fill="none" stroke="rgb(0, 0, 0)" stroke-linecap="butt" stroke-linejoin="round" stroke-opacity="1.0" stroke-width="3.0" />
            <path d=" M 670.826, 1122.176 670.772, 1122.607 670.453, 1125.121 668.775, 1130.282 666.866, 1133.895 668.574, 1140.314 670.965, 1143.366 672.939, 1144.588 675.662, 1145.906 679.107, 1144.987 " fill="none" stroke="rgb(0, 0, 0)" stroke-linecap="butt" stroke-linejoin="round" stroke-opacity="1.0" stroke-width="3.0" />
            <path d=" M 727.172, 399.791 726.795, 400.125 724.741, 401.938 723.638, 403.177 723.294, 403.615 722.961, 404.038 722.891, 404.126 721.769, 405.552 721.702, 405.637 721.470, 405.932 721.454, 405.956 719.698, 408.605 719.382, 409.080 718.619, 409.880 717.629, 411.247 717.564, 411.337 716.005, 413.490 715.739, 413.786 715.674, 413.876 714.277, 415.797 713.636, 416.677 711.029, 420.261 709.463, 422.415 708.419, 423.888 707.505, 425.180 " fill="none" stroke="rgb(0, 0, 0)" stroke-linecap="butt" stroke-linejoin="round" stroke-opacity="1.0" stroke-width="3.0" />
            <path d=" M 589.603, 744.812 591.528, 744.273 593.925, 744.208 598.795, 743.867 599.317, 742.684 600.868, 738.594 600.958, 735.740 599.930, 730.133 598.073, 722.843 597.617, 721.054 " fill="none" stroke="rgb(0, 0, 0)" stroke-linecap="butt" stroke-linejoin="round" stroke-opacity="1.0" stroke-width="3.0" />
            <path d=" M 774.877, 1018.893 775.927, 1013.615 777.141, 1006.079 777.764, 1001.818 778.459, 994.926 779.078, 986.317 " fill="none" stroke="rgb(0, 0, 0)" stroke-linecap="butt" stroke-linejoin="round" stroke-opacity="1.0" stroke-width="3.0" />
            <path d=" M 783.437, 948.780 785.560, 942.688 788.415, 936.778 792.098, 927.524 793.184, 922.761 794.895, 917.888 " fill="none" stroke="rgb(0, 0, 0)" stroke-linecap="butt" stroke-linejoin="round" stroke-opacity="1.0" stroke-width="3.0" />
            <path d=" M 588.906, 609.511 591.596, 610.867 596.843, 613.086 605.950, 615.845 610.691, 615.965 612.228, 616.004 613.403, 616.394 614.497, 616.756 616.183, 617.315 618.596, 618.115 618.608, 618.119 618.829, 618.192 618.918, 618.222 619.502, 618.415 620.434, 618.724 " fill="none" stroke="rgb(0, 0, 0)" stroke-linecap="butt" stroke-linejoin="round" stroke-opacity="1.0" stroke-width="3.0" />
            <path d=" M 762.386, 668.976 764.187, 669.063 769.443, 668.247 770.566, 668.415 776.082, 667.986 781.643, 667.764 783.842, 667.340 789.808, 666.447 795.327, 665.891 " fill="none" stroke="rgb(0, 0, 0)" stroke-linecap="butt" stroke-linejoin="round" stroke-opacity="1.0" stroke-width="3.0" />
            <path d=" M 828.510, 664.786 831.099, 663.488 835.056, 661.265 837.139, 659.964 840.190, 657.754 842.037, 655.367 843.820, 652.911 845.286, 651.402 848.566, 646.154 849.914, 643.999 850.917, 641.512 " fill="none" stroke="rgb(0, 0, 0)" stroke-linecap="butt" stroke-linejoin="round" stroke-opacity="1.0" stroke-width="3.0" />
            <path d=" M 775.762, 466.949 774.123, 468.011 772.029, 469.367 768.043, 471.780 766.990, 473.532 762.979, 476.503 760.325, 480.771 760.143, 481.063 760.143, 481.064 760.063, 481.192 759.699, 481.778 755.932, 486.237 754.041, 488.511 753.763, 490.712 " fill="none" stroke="rgb(0, 0, 0)" stroke-linecap="butt" stroke-linejoin="round" stroke-opacity="1.0" stroke-width="3.0" />
            <path d=" M 739.177, 491.857 735.443, 485.247 734.159, 483.812 733.090, 482.618 731.880, 481.267 731.858, 481.242 731.414, 480.746 731.343, 480.718 731.259, 480.684 725.925, 478.550 723.048, 479.135 720.697, 479.613 716.904, 480.846 715.445, 482.361 714.324, 484.542 " fill="none" stroke="rgb(0, 0, 0)" stroke-linecap="butt" stroke-linejoin="round" stroke-opacity="1.0" stroke-width="3.0" />
            <path d=" M 837.952, 755.117 837.672, 755.294 834.084, 757.566 833.029, 758.686 829.557, 761.859 827.836, 764.415 823.481, 773.417 822.570, 775.301 821.520, 777.472 819.444, 779.563 818.465, 780.549 817.874, 781.145 " fill="none" stroke="rgb(0, 0, 0)" stroke-linecap="butt" stroke-linejoin="round" stroke-opacity="1.0" stroke-width="3.0" />
            <path d=" M 686.821, 428.104 686.086, 427.824 684.250, 427.122 681.813, 426.191 680.668, 425.262 677.765, 422.904 676.460, 421.844 676.181, 421.617 674.215, 420.021 669.549, 414.879 667.993, 412.834 667.986, 412.824 667.347, 411.984 665.098, 408.032 664.628, 407.332 664.225, 406.732 664.039, 406.455 663.222, 405.237 " fill="none" stroke="rgb(0, 0, 0)" stroke-linecap="butt" stroke-linejoin="round" stroke-opacity="1.0" stroke-width="3.0" />
            <path d=" M 658.381, 1002.367 658.925, 1001.348 662.345, 994.948 663.272, 989.748 664.180, 987.411 665.682, 983.544 671.272, 976.858 671.313, 976.809 671.947, 976.050 672.336, 975.591 674.402, 973.147 " fill="none" stroke="rgb(0, 0, 0)" stroke-linecap="butt" stroke-linejoin="round" stroke-opacity="1.0" stroke-width="3.0" />
            <path d=" M 655.839, 1071.717 656.602, 1069.623 657.784, 1066.376 657.799, 1066.333 658.249, 1065.097 658.802, 1056.569 658.824, 1056.225 658.970, 1053.980 659.076, 1052.345 657.711, 1042.438 657.635, 1041.883 655.934, 1038.634 " fill="none" stroke="rgb(0, 0, 0)" stroke-linecap="butt" stroke-linejoin="round" stroke-opacity="1.0" stroke-width="3.0" />
            <path d=" M 749.866, 970.013 747.136, 978.964 744.501, 986.319 743.716, 989.354 743.940, 992.219 747.730, 996.204 748.972, 996.657 752.384, 997.899 752.820, 998.057 " fill="none" stroke="rgb(0, 0, 0)" stroke-linecap="butt" stroke-linejoin="round" stroke-opacity="1.0" stroke-width="3.0" />
            <path d=" M 781.036, 942.160 782.298, 938.497 788.073, 930.333 790.659, 926.677 793.474, 917.880 793.620, 917.422 794.467, 916.923 795.344, 916.407 795.433, 916.354 795.794, 916.142 795.823, 916.125 798.127, 914.769 799.252, 914.107 " fill="none" stroke="rgb(0, 0, 0)" stroke-linecap="butt" stroke-linejoin="round" stroke-opacity="1.0" stroke-width="3.0" />
            <path d=" M 719.649, 791.022 720.125, 790.051 724.693, 787.041 728.607, 781.046 728.200, 772.003 728.199, 771.980 728.190, 771.781 728.023, 768.070 729.447, 762.103 729.994, 759.815 " fill="none" stroke="rgb(0, 0, 0)" stroke-linecap="butt" stroke-linejoin="round" stroke-opacity="1.0" stroke-width="3.0" />
            <path d=" M 789.777, 791.179 790.629, 798.359 789.731, 792.171 789.560, 790.995 788.996, 788.822 787.016, 786.522 786.119, 786.227 786.083, 786.215 781.570, 784.730 778.230, 785.535 772.667, 787.881 772.577, 787.919 " fill="none" stroke="rgb(0, 0, 0)" stroke-linecap="butt" stroke-linejoin="round" stroke-opacity="1.0" stroke-width="3.0" />
            <path d=" M 778.302, 992.529 779.078, 986.317 779.976, 979.135 779.944, 970.282 781.254, 960.368 781.610, 957.674 781.668, 957.237 " fill="none" stroke="rgb(0, 0, 0)" stroke-linecap="butt" stroke-linejoin="round" stroke-opacity="1.0" stroke-width="3.0" />
            <path d=" M 550.839, 540.252 550.540, 541.062 550.450, 541.307 549.251, 544.559 549.218, 544.648 548.805, 545.766 548.746, 546.274 548.712, 546.570 548.613, 547.417 548.291, 550.185 547.885, 553.675 547.039, 556.948 546.936, 557.345 546.976, 558.982 546.979, 559.104 547.016, 560.680 546.580, 563.023 545.756, 566.423 545.666, 566.795 544.856, 575.275 " fill="none" stroke="rgb(0, 0, 0)" stroke-linecap="butt" stroke-linejoin="round" stroke-opacity="1.0" stroke-width="3.0" />
            <path d=" M 637.556, 709.280 630.710, 708.490 629.667, 708.717 628.448, 709.802 628.380, 712.262 629.114, 716.079 630.042, 719.335 631.642, 722.091 633.301, 724.897 635.820, 727.809 639.666, 731.372 640.356, 732.011 " fill="none" stroke="rgb(0, 0, 0)" stroke-linecap="butt" stroke-linejoin="round" stroke-opacity="1.0" stroke-width="3.0" />
            <path d=" M 727.429, 1116.052 727.794, 1120.362 727.796, 1120.376 727.875, 1121.313 729.732, 1126.589 731.542, 1127.553 731.605, 1127.586 733.064, 1127.897 736.556, 1126.478 740.590, 1121.717 741.342, 1118.688 741.805, 1114.925 740.980, 1111.994 740.657, 1110.850 740.593, 1110.624 " fill="none" stroke="rgb(0, 0, 0)" stroke-linecap="butt" stroke-linejoin="round" stroke-opacity="1.0" stroke-width="3.0" />
            <path d=" M 833.207, 600.299 838.072, 598.590 844.347, 596.142 844.389, 596.126 844.577, 596.052 846.599, 595.440 846.691, 595.412 851.352, 594.007 858.841, 590.843 859.258, 590.666 864.203, 588.837 867.106, 588.080 " fill="none" stroke="rgb(0, 0, 0)" stroke-linecap="butt" stroke-linejoin="round" stroke-opacity="1.0" stroke-width="3.0" />
            <path d=" M 690.936, 899.726 691.215, 898.618 691.686, 896.744 693.099, 891.128 694.071, 887.262 695.751, 883.741 697.054, 878.701 698.039, 875.384 698.448, 874.007 699.399, 870.343 700.692, 865.360 700.701, 865.326 700.811, 864.903 " fill="none" stroke="rgb(0, 0, 0)" stroke-linecap="butt" stroke-linejoin="round" stroke-opacity="1.0" stroke-width="3.0" />
            <path d=" M 888.806, 773.907 889.039, 772.770 889.933, 768.416 890.059, 767.892 891.693, 759.021 892.302, 749.040 892.418, 747.142 892.636, 737.858 " fill="none" stroke="rgb(0, 0, 0)" stroke-linecap="butt" stroke-linejoin="round" stroke-opacity="1.0" stroke-width="3.0" />
            <path d=" M 585.714, 840.989 585.525, 839.633 585.473, 839.256 585.448, 839.074 585.283, 837.897 585.192, 836.890 585.124, 836.139 584.904, 833.705 586.209, 829.112 588.158, 827.802 590.217, 825.552 590.389, 822.703 590.324, 820.164 588.370, 815.412 585.938, 810.950 585.609, 807.620 " fill="none" stroke="rgb(0, 0, 0)" stroke-linecap="butt" stroke-linejoin="round" stroke-opacity="1.0" stroke-width="3.0" />
            <path d=" M 677.663, 921.577 679.182, 911.693 679.871, 907.215 681.035, 901.076 685.622, 892.190 685.685, 892.068 686.886, 889.741 687.502, 888.548 687.647, 888.267 688.450, 886.710 " fill="none" stroke="rgb(0, 0, 0)" stroke-linecap="butt" stroke-linejoin="round" stroke-opacity="1.0" stroke-width="3.0" />
            <path d=" M 714.776, 1086.761 715.653, 1081.509 715.831, 1072.422 716.487, 1067.616 716.609, 1066.684 717.257, 1059.790 717.644, 1057.434 719.535, 1049.195 " fill="none" stroke="rgb(0, 0, 0)" stroke-linecap="butt" stroke-linejoin="round" stroke-opacity="1.0" stroke-width="3.0" />
            <path d=" M 688.724, 1077.309 687.460, 1076.688 685.405, 1075.679 682.440, 1074.223 680.786, 1072.984 678.176, 1071.029 677.103, 1070.226 673.436, 1068.570 669.565, 1065.144 662.524, 1058.044 662.356, 1057.875 658.970, 1053.980 " fill="none" stroke="rgb(0, 0, 0)" stroke-linecap="butt" stroke-linejoin="round" stroke-opacity="1.0" stroke-width="3.0" />
            <path d=" M 537.033, 512.595 536.903, 513.617 536.816, 514.306 536.724, 519.302 537.893, 526.132 538.859, 530.827 542.728, 532.117 544.398, 536.443 544.473, 537.753 544.473, 537.753 544.474, 537.761 544.498, 538.181 544.510, 538.399 544.615, 540.227 544.307, 540.942 544.182, 541.233 541.705, 546.983 " fill="none" stroke="rgb(0, 0, 0)" stroke-linecap="butt" stroke-linejoin="round" stroke-opacity="1.0" stroke-width="3.0" />
            <path d=" M 704.092, 1151.288 710.060, 1147.121 710.153, 1147.168 712.987, 1148.591 715.182, 1148.966 719.964, 1146.780 725.136, 1142.604 726.628, 1140.511 728.546, 1136.055 729.897, 1130.740 730.196, 1129.565 " fill="none" stroke="rgb(0, 0, 0)" stroke-linecap="butt" stroke-linejoin="round" stroke-opacity="1.0" stroke-width="3.0" />
            <path d=" M 608.192, 439.635 604.626, 439.862 599.834, 440.167 597.958, 441.369 594.270, 443.980 593.377, 445.249 592.627, 446.530 591.719, 449.707 589.620, 453.919 589.505, 454.362 588.695, 457.471 588.462, 458.391 588.223, 460.804 589.324, 462.239 591.166, 463.224 591.623, 464.863 " fill="none" stroke="rgb(0, 0, 0)" stroke-linecap="butt" stroke-linejoin="round" stroke-opacity="1.0" stroke-width="3.0" />
            <path d=" M 757.652, 907.106 754.863, 908.169 750.897, 909.120 749.421, 910.037 746.790, 913.089 744.599, 917.285 744.812, 920.280 746.426, 923.041 753.546, 926.633 757.068, 926.753 760.839, 927.362 " fill="none" stroke="rgb(0, 0, 0)" stroke-linecap="butt" stroke-linejoin="round" stroke-opacity="1.0" stroke-width="3.0" />
            <path d=" M 829.301, 509.264 829.677, 507.293 830.407, 505.666 831.994, 502.129 832.657, 497.487 832.988, 494.444 835.285, 487.123 835.636, 486.004 836.500, 484.001 837.012, 482.815 837.100, 482.250 837.101, 482.246 837.398, 480.342 837.399, 480.331 837.483, 479.792 837.674, 478.710 838.019, 476.753 838.583, 473.548 838.634, 473.376 839.462, 470.554 " fill="none" stroke="rgb(0, 0, 0)" stroke-linecap="butt" stroke-linejoin="round" stroke-opacity="1.0" stroke-width="3.0" />
            <path d=" M 768.032, 590.960 769.381, 588.978 771.365, 582.298 774.754, 576.627 775.315, 575.598 775.931, 574.467 778.344, 570.035 781.053, 564.073 782.947, 561.088 783.966, 559.483 787.090, 555.185 " fill="none" stroke="rgb(0, 0, 0)" stroke-linecap="butt" stroke-linejoin="round" stroke-opacity="1.0" stroke-width="3.0" />
            <path d=" M 804.790, 485.980 806.845, 476.608 808.457, 472.445 809.094, 469.642 809.607, 467.381 809.575, 467.123 809.552, 466.933 809.491, 466.447 809.423, 465.902 809.366, 465.447 809.301, 464.921 809.105, 464.045 807.518, 459.218 806.758, 457.793 803.458, 453.947 803.439, 453.925 803.315, 453.875 802.823, 453.680 802.805, 453.673 802.690, 453.627 800.307, 452.681 799.656, 452.422 797.145, 452.754 " fill="none" stroke="rgb(0, 0, 0)" stroke-linecap="butt" stroke-linejoin="round" stroke-opacity="1.0" stroke-width="3.0" />
            <path d=" M 566.181, 476.243 564.497, 474.356 561.723, 472.958 559.078, 471.687 554.750, 472.666 551.307, 475.794 548.577, 478.827 546.464, 483.916 545.405, 485.714 542.455, 491.479 540.296, 497.122 " fill="none" stroke="rgb(0, 0, 0)" stroke-linecap="butt" stroke-linejoin="round" stroke-opacity="1.0" stroke-width="3.0" />
            <path d=" M 695.773, 500.119 690.452, 503.686 686.567, 510.014 683.097, 516.376 682.052, 526.321 681.873, 528.026 682.015, 534.339 682.084, 537.421 " fill="none" stroke="rgb(0, 0, 0)" stroke-linecap="butt" stroke-linejoin="round" stroke-opacity="1.0" stroke-width="3.0" />
            <path d=" M 601.210, 1129.627 602.788, 1131.996 602.920, 1132.194 604.548, 1134.050 600.248, 1131.722 599.567, 1131.354 597.023, 1132.414 594.392, 1133.511 590.600, 1131.277 585.838, 1126.059 582.529, 1120.805 582.994, 1117.608 582.716, 1114.480 582.826, 1112.039 " fill="none" stroke="rgb(0, 0, 0)" stroke-linecap="butt" stroke-linejoin="round" stroke-opacity="1.0" stroke-width="3.0" />
            <path d=" M 810.573, 876.546 813.252, 870.444 817.628, 862.089 818.594, 860.245 820.178, 858.329 825.374, 852.047 829.577, 848.139 832.073, 846.027 836.549, 842.241 " fill="none" stroke="rgb(0, 0, 0)" stroke-linecap="butt" stroke-linejoin="round" stroke-opacity="1.0" stroke-width="3.0" />
            <path d=" M 865.731, 494.950 864.233, 488.463 862.408, 481.498 862.060, 473.497 862.212, 468.280 861.146, 460.286 859.777, 455.548 857.416, 452.499 " fill="none" stroke="rgb(0, 0, 0)" stroke-linecap="butt" stroke-linejoin="round" stroke-opacity="1.0" stroke-width="3.0" />
            <path d=" M 743.394, 704.138 743.394, 704.146 743.053, 714.163 741.587, 722.383 741.259, 723.840 741.229, 723.975 740.125, 728.882 740.101, 728.991 739.971, 729.568 739.291, 732.591 733.565, 740.138 729.783, 743.118 729.095, 743.660 " fill="none" stroke="rgb(0, 0, 0)" stroke-linecap="butt" stroke-linejoin="round" stroke-opacity="1.0" stroke-width="3.0" />
            <path d=" M 853.519, 520.406 852.671, 519.555 850.612, 517.490 849.918, 517.318 849.367, 517.182 846.980, 515.779 843.476, 513.951 838.777, 512.289 835.353, 510.511 835.287, 510.477 834.651, 510.146 834.197, 509.911 829.648, 509.310 829.301, 509.264 828.528, 509.162 828.525, 509.161 828.397, 509.145 826.391, 508.880 824.659, 508.673 820.508, 508.990 820.199, 509.013 820.132, 509.019 820.079, 509.023 812.409, 510.293 " fill="none" stroke="rgb(0, 0, 0)" stroke-linecap="butt" stroke-linejoin="round" stroke-opacity="1.0" stroke-width="3.0" />
            <path d=" M 870.182, 812.230 873.493, 807.817 875.264, 804.610 876.851, 802.160 877.459, 801.161 881.892, 792.094 883.657, 787.625 886.320, 782.209 887.506, 777.182 889.105, 774.793 889.039, 772.770 " fill="none" stroke="rgb(0, 0, 0)" stroke-linecap="butt" stroke-linejoin="round" stroke-opacity="1.0" stroke-width="3.0" />
            <path d=" M 656.842, 451.960 648.906, 453.904 644.159, 453.956 640.729, 453.729 635.955, 452.377 635.826, 452.256 633.018, 449.613 632.248, 448.888 630.780, 447.507 630.730, 447.461 630.695, 447.427 630.667, 447.401 630.631, 447.367 630.517, 447.259 630.267, 447.025 628.985, 446.154 628.539, 445.852 628.392, 445.752 628.302, 445.691 627.076, 444.859 627.052, 444.842 626.975, 444.790 625.809, 443.999 622.945, 442.054 620.410, 441.087 616.820, 439.716 " fill="none" stroke="rgb(0, 0, 0)" stroke-linecap="butt" stroke-linejoin="round" stroke-opacity="1.0" stroke-width="3.0" />
            <path d=" M 802.224, 909.672 802.121, 910.099 801.241, 912.752 802.224, 909.672 805.001, 900.974 806.428, 895.846 807.217, 888.455 808.110, 883.501 810.191, 877.882 810.573, 876.546 811.832, 872.146 " fill="none" stroke="rgb(0, 0, 0)" stroke-linecap="butt" stroke-linejoin="round" stroke-opacity="1.0" stroke-width="3.0" />
            <path d=" M 800.372, 429.381 800.836, 429.458 801.246, 429.666 800.372, 429.381 793.493, 427.132 791.698, 426.875 790.196, 426.659 784.266, 427.262 783.098, 427.800 783.076, 427.810 780.662, 428.921 776.564, 430.465 773.742, 433.337 773.696, 433.360 769.947, 435.264 769.655, 435.734 769.631, 435.773 769.616, 435.796 769.577, 435.859 765.711, 442.088 764.841, 443.491 764.562, 444.371 764.385, 444.933 " fill="none" stroke="rgb(0, 0, 0)" stroke-linecap="butt" stroke-linejoin="round" stroke-opacity="1.0" stroke-width="3.0" />
            <path d=" M 583.656, 853.288 583.630, 847.263 583.843, 843.510 584.029, 840.235 584.167, 837.815 584.178, 836.617 584.180, 836.414 584.181, 836.325 584.185, 835.899 584.193, 835.053 584.212, 833.092 584.242, 829.955 584.267, 827.315 584.268, 827.276 584.274, 826.663 584.276, 826.466 584.481, 822.894 584.695, 819.174 584.643, 813.383 585.048, 806.888 " fill="none" stroke="rgb(0, 0, 0)" stroke-linecap="butt" stroke-linejoin="round" stroke-opacity="1.0" stroke-width="3.0" />
            <path d=" M 595.372, 851.547 595.314, 853.734 595.073, 854.359 594.940, 854.705 594.827, 860.213 595.819, 862.896 596.403, 865.221 596.529, 865.719 596.619, 866.079 597.441, 869.346 597.199, 871.505 597.023, 873.072 596.826, 874.823 596.991, 875.969 597.841, 881.881 600.844, 885.327 601.188, 885.376 601.554, 885.429 601.941, 885.484 601.971, 885.488 605.166, 885.947 606.405, 886.125 606.587, 886.151 607.410, 885.798 608.520, 885.322 609.424, 884.934 609.866, 884.745 611.479, 884.053 " fill="none" stroke="rgb(0, 0, 0)" stroke-linecap="butt" stroke-linejoin="round" stroke-opacity="1.0" stroke-width="3.0" />
            <path d=" M 595.218, 689.284 594.606, 685.612 593.134, 676.776 591.797, 666.866 591.587, 665.308 591.552, 662.801 591.218, 659.670 591.476, 655.083 591.659, 652.823 591.847, 650.519 592.069, 642.080 " fill="none" stroke="rgb(0, 0, 0)" stroke-linecap="butt" stroke-linejoin="round" stroke-opacity="1.0" stroke-width="3.0" />
            <path d=" M 733.559, 718.324 734.406, 715.793 737.453, 706.683 740.791, 697.256 741.842, 694.286 741.979, 693.894 742.002, 693.827 742.024, 693.764 742.837, 691.425 743.115, 690.626 744.514, 686.604 744.892, 685.515 745.332, 684.852 747.129, 682.139 749.339, 678.802 749.781, 678.135 750.663, 676.803 751.634, 675.337 751.977, 674.818 " fill="none" stroke="rgb(0, 0, 0)" stroke-linecap="butt" stroke-linejoin="round" stroke-opacity="1.0" stroke-width="3.0" />
            <path d=" M 601.308, 972.059 601.644, 982.053 601.729, 984.595 602.717, 991.651 602.956, 997.633 604.019, 1007.576 604.210, 1009.362 604.003, 1015.711 602.626, 1020.740 " fill="none" stroke="rgb(0, 0, 0)" stroke-linecap="butt" stroke-linejoin="round" stroke-opacity="1.0" stroke-width="3.0" />
            <path d=" M 766.903, 445.253 766.342, 446.757 766.513, 450.576 764.660, 453.052 758.460, 459.067 755.829, 461.333 754.091, 462.829 753.592, 463.259 752.885, 463.867 751.983, 464.644 748.285, 467.828 744.310, 472.194 737.855, 479.831 736.881, 480.982 735.994, 482.032 " fill="none" stroke="rgb(0, 0, 0)" stroke-linecap="butt" stroke-linejoin="round" stroke-opacity="1.0" stroke-width="3.0" />
            <path d=" M 820.158, 587.906 818.559, 585.330 817.580, 583.755 814.418, 576.900 813.764, 575.482 813.732, 575.414 813.058, 573.954 811.350, 566.886 810.700, 564.133 810.969, 560.056 811.122, 558.972 811.148, 558.788 811.152, 558.761 811.442, 556.708 813.364, 553.368 814.343, 551.667 814.535, 551.473 817.380, 548.608 821.576, 545.480 822.402, 544.864 " fill="none" stroke="rgb(0, 0, 0)" stroke-linecap="butt" stroke-linejoin="round" stroke-opacity="1.0" stroke-width="3.0" />
            <path d=" M 661.344, 1099.557 661.904, 1099.624 662.318, 1099.673 663.358, 1099.797 667.424, 1100.283 670.184, 1099.145 670.224, 1099.129 670.271, 1099.109 675.197, 1098.696 678.679, 1097.621 683.096, 1095.405 687.007, 1093.192 690.751, 1090.288 695.386, 1086.267 695.748, 1085.953 695.913, 1085.810 697.935, 1082.083 698.995, 1079.314 698.010, 1078.209 697.438, 1077.567 696.852, 1077.237 696.083, 1076.803 " fill="none" stroke="rgb(0, 0, 0)" stroke-linecap="butt" stroke-linejoin="round" stroke-opacity="1.0" stroke-width="3.0" />
            <path d=" M 718.141, 772.945 718.345, 771.770 718.362, 771.670 719.039, 767.772 720.749, 757.919 720.815, 757.539 721.695, 754.301 722.430, 751.596 723.336, 748.265 723.399, 748.032 723.400, 748.029 723.488, 747.704 723.842, 746.401 724.011, 745.780 724.163, 745.221 724.217, 745.023 725.784, 738.672 726.121, 737.581 727.436, 733.322 727.555, 732.937 730.213, 724.325 " fill="none" stroke="rgb(0, 0, 0)" stroke-linecap="butt" stroke-linejoin="round" stroke-opacity="1.0" stroke-width="3.0" />
            <path d=" M 671.330, 976.805 671.663, 976.726 676.763, 976.724 679.920, 975.782 684.536, 974.019 685.994, 973.343 690.660, 970.111 692.626, 967.511 692.009, 965.185 691.198, 963.452 688.975, 960.567 687.100, 955.082 684.708, 951.858 682.362, 946.996 680.783, 944.618 680.744, 944.577 " fill="none" stroke="rgb(0, 0, 0)" stroke-linecap="butt" stroke-linejoin="round" stroke-opacity="1.0" stroke-width="3.0" />
            <path d=" M 682.015, 534.339 681.357, 540.892 681.266, 543.726 681.523, 551.931 681.836, 555.732 682.523, 562.008 682.850, 571.735 683.766, 581.693 684.065, 584.943 " fill="none" stroke="rgb(0, 0, 0)" stroke-linecap="butt" stroke-linejoin="round" stroke-opacity="1.0" stroke-width="3.0" />
            <path d=" M 566.305, 1096.348 565.366, 1102.295 565.457, 1105.281 567.351, 1112.212 568.134, 1114.955 569.539, 1119.459 570.583, 1122.278 572.419, 1125.778 574.213, 1126.604 577.088, 1126.187 579.581, 1117.499 581.130, 1111.666 581.144, 1111.214 " fill="none" stroke="rgb(0, 0, 0)" stroke-linecap="butt" stroke-linejoin="round" stroke-opacity="1.0" stroke-width="3.0" />
            <path d=" M 584.544, 825.122 584.740, 823.592 585.445, 814.816 585.572, 807.943 585.609, 807.620 586.385, 800.811 586.801, 797.174 586.833, 796.894 586.917, 796.151 586.929, 795.989 587.649, 786.174 587.725, 785.143 588.155, 780.319 588.689, 774.621 588.724, 774.249 588.730, 774.184 " fill="none" stroke="rgb(0, 0, 0)" stroke-linecap="butt" stroke-linejoin="round" stroke-opacity="1.0" stroke-width="3.0" />
            <path d=" M 910.199, 668.013 910.949, 666.251 914.374, 656.856 916.878, 649.987 919.041, 640.791 920.033, 633.017 921.133, 623.329 921.448, 618.015 " fill="none" stroke="rgb(0, 0, 0)" stroke-linecap="butt" stroke-linejoin="round" stroke-opacity="1.0" stroke-width="3.0" />
            <path d=" M 650.943, 402.520 647.782, 404.551 644.404, 408.546 641.924, 412.434 639.840, 416.933 639.185, 418.642 638.101, 422.833 637.018, 428.407 637.151, 430.304 637.152, 430.324 637.740, 438.726 639.794, 441.746 641.453, 442.770 641.687, 442.914 642.908, 443.668 642.939, 443.687 643.240, 443.872 645.019, 444.868 645.427, 445.096 646.071, 445.456 " fill="none" stroke="rgb(0, 0, 0)" stroke-linecap="butt" stroke-linejoin="round" stroke-opacity="1.0" stroke-width="3.0" />
            <path d=" M 637.706, 1132.351 641.638, 1136.032 645.094, 1135.178 646.904, 1134.975 648.505, 1132.714 650.897, 1130.933 651.977, 1126.215 652.339, 1117.806 652.319, 1116.554 652.318, 1116.481 652.271, 1113.467 652.263, 1112.923 651.054, 1110.096 650.328, 1108.396 648.321, 1103.702 649.717, 1099.893 652.458, 1097.586 653.361, 1096.825 " fill="none" stroke="rgb(0, 0, 0)" stroke-linecap="butt" stroke-linejoin="round" stroke-opacity="1.0" stroke-width="3.0" />
            <path d=" M 832.073, 846.027 833.479, 845.147 842.248, 840.340 843.424, 839.696 851.622, 833.893 857.139, 827.967 859.808, 824.951 866.339, 817.378 868.138, 815.293 870.182, 812.230 871.974, 809.544 " fill="none" stroke="rgb(0, 0, 0)" stroke-linecap="butt" stroke-linejoin="round" stroke-opacity="1.0" stroke-width="3.0" />
            <path d=" M 656.008, 643.060 655.408, 643.744 654.375, 644.921 652.892, 646.670 650.141, 650.058 647.501, 652.475 646.601, 655.388 646.542, 658.029 648.813, 664.618 649.654, 666.678 651.455, 671.546 652.090, 676.895 651.996, 680.921 651.945, 683.068 650.949, 689.101 650.632, 693.931 650.629, 693.977 " fill="none" stroke="rgb(0, 0, 0)" stroke-linecap="butt" stroke-linejoin="round" stroke-opacity="1.0" stroke-width="3.0" />
            <path d=" M 711.143, 840.331 712.724, 838.998 715.898, 834.403 717.393, 828.740 718.052, 818.762 718.103, 817.975 719.484, 813.706 724.068, 807.800 725.365, 801.732 724.499, 795.680 720.265, 791.579 719.649, 791.022 719.518, 790.903 " fill="none" stroke="rgb(0, 0, 0)" stroke-linecap="butt" stroke-linejoin="round" stroke-opacity="1.0" stroke-width="3.0" />
            <path d=" M 655.972, 1039.085 655.934, 1038.634 655.374, 1032.069 654.598, 1024.874 654.106, 1018.914 655.537, 1009.017 655.578, 1008.736 657.289, 1004.018 657.374, 1003.786 657.725, 1002.819 658.085, 1001.826 658.742, 1000.013 660.803, 994.370 661.748, 989.787 662.597, 985.667 662.828, 984.545 " fill="none" stroke="rgb(0, 0, 0)" stroke-linecap="butt" stroke-linejoin="round" stroke-opacity="1.0" stroke-width="3.0" />
            <path d=" M 544.473, 537.753 540.056, 539.085 536.134, 544.313 532.503, 551.600 527.923, 557.482 526.711, 561.289 526.841, 565.248 528.460, 568.138 530.267, 569.052 530.412, 569.126 530.459, 569.149 531.206, 569.527 535.575, 568.774 538.961, 568.284 543.045, 567.046 545.756, 566.423 " fill="none" stroke="rgb(0, 0, 0)" stroke-linecap="butt" stroke-linejoin="round" stroke-opacity="1.0" stroke-width="3.0" />
            <path d=" M 693.099, 891.128 695.373, 891.068 700.326, 888.172 705.067, 883.326 707.464, 878.073 709.910, 874.742 711.206, 864.827 711.410, 863.266 709.639, 856.581 706.727, 847.344 704.141, 845.825 703.746, 845.593 703.609, 845.513 " fill="none" stroke="rgb(0, 0, 0)" stroke-linecap="butt" stroke-linejoin="round" stroke-opacity="1.0" stroke-width="3.0" />
            <path d=" M 597.573, 788.995 595.468, 794.093 593.589, 802.061 593.262, 805.406 593.177, 806.274 592.994, 808.149 591.705, 818.066 591.625, 818.684 591.965, 828.679 591.978, 829.069 591.016, 833.343 591.031, 837.222 591.008, 841.655 591.008, 841.787 591.007, 841.940 591.007, 841.953 591.003, 842.711 590.989, 845.492 590.987, 845.898 590.986, 845.997 " fill="none" stroke="rgb(0, 0, 0)" stroke-linecap="butt" stroke-linejoin="round" stroke-opacity="1.0" stroke-width="3.0" />
            <path d=" M 765.736, 860.534 765.488, 860.556 759.628, 860.095 751.745, 862.476 747.748, 866.900 746.656, 871.163 746.658, 874.807 748.312, 880.268 750.550, 883.043 752.620, 885.114 755.295, 886.881 758.209, 888.366 763.126, 889.936 768.871, 890.994 " fill="none" stroke="rgb(0, 0, 0)" stroke-linecap="butt" stroke-linejoin="round" stroke-opacity="1.0" stroke-width="3.0" />
            <path d=" M 900.464, 708.730 901.452, 706.738 902.140, 705.351 905.229, 695.840 905.370, 695.405 906.598, 691.326 907.813, 683.979 909.338, 675.809 909.635, 673.741 910.199, 668.013 910.493, 665.039 910.715, 661.791 910.901, 659.533 911.059, 657.628 911.108, 657.034 911.550, 651.669 " fill="none" stroke="rgb(0, 0, 0)" stroke-linecap="butt" stroke-linejoin="round" stroke-opacity="1.0" stroke-width="3.0" />
            <path d=" M 772.667, 787.881 767.969, 786.776 767.879, 786.764 765.210, 786.398 764.820, 786.345 764.777, 786.339 763.238, 786.128 761.041, 786.590 757.484, 787.337 754.006, 789.869 752.664, 791.611 752.130, 792.306 751.012, 794.966 750.659, 798.551 751.543, 801.655 752.993, 804.775 753.526, 805.432 757.255, 810.021 762.570, 813.802 764.796, 814.363 773.338, 816.517 " fill="none" stroke="rgb(0, 0, 0)" stroke-linecap="butt" stroke-linejoin="round" stroke-opacity="1.0" stroke-width="3.0" />
            <path d=" M 821.576, 545.480 823.405, 545.386 823.913, 545.253 830.266, 543.586 839.082, 543.840 848.308, 547.697 849.140, 548.045 850.069, 548.206 851.710, 548.490 856.769, 548.979 859.429, 547.992 859.944, 547.802 860.051, 547.762 861.013, 547.405 861.409, 547.258 862.388, 546.895 864.607, 541.939 863.622, 538.101 861.838, 535.601 861.000, 534.427 860.831, 534.190 860.772, 534.108 860.742, 534.066 860.671, 533.966 860.629, 533.918 860.609, 533.894 860.557, 533.834 860.459, 533.721 860.427, 533.683 857.488, 530.282 " fill="none" stroke="rgb(0, 0, 0)" stroke-linecap="butt" stroke-linejoin="round" stroke-opacity="1.0" stroke-width="3.0" />
            <path d=" M 605.166, 885.947 605.450, 887.024 604.202, 888.229 602.908, 889.285 602.786, 889.384 602.502, 889.617 601.869, 890.134 599.550, 892.573 599.078, 894.604 599.510, 897.455 599.924, 902.348 600.278, 904.196 601.055, 908.248 602.257, 910.243 602.670, 913.188 602.958, 914.179 606.321, 919.621 607.905, 921.749 608.436, 922.328 610.310, 924.370 611.773, 924.902 613.167, 925.201 618.581, 923.021 621.051, 920.654 624.501, 920.520 626.643, 921.038 " fill="none" stroke="rgb(0, 0, 0)" stroke-linecap="butt" stroke-linejoin="round" stroke-opacity="1.0" stroke-width="3.0" />
            <path d=" M 725.918, 393.252 722.440, 393.793 720.289, 394.128 714.388, 396.473 714.119, 396.580 712.875, 396.718 705.861, 397.496 699.388, 397.784 694.409, 396.601 689.477, 396.725 684.246, 398.148 682.324, 399.472 680.462, 400.755 678.427, 402.377 676.914, 403.816 674.458, 408.693 670.972, 411.751 " fill="none" stroke="rgb(0, 0, 0)" stroke-linecap="butt" stroke-linejoin="round" stroke-opacity="1.0" stroke-width="3.0" />
            <path d=" M 532.633, 683.436 532.473, 684.457 531.366, 691.498 531.314, 698.223 530.897, 705.628 530.403, 715.616 530.169, 720.345 530.279, 730.344 530.304, 732.590 530.806, 737.465 530.585, 741.837 531.531, 745.550 " fill="none" stroke="rgb(0, 0, 0)" stroke-linecap="butt" stroke-linejoin="round" stroke-opacity="1.0" stroke-width="3.0" />
            <path d=" M 591.003, 842.711 590.821, 844.772 590.798, 845.024 590.585, 847.434 590.572, 847.585 590.544, 847.898 590.405, 849.475 589.803, 858.830 590.938, 867.636 591.957, 875.131 594.315, 883.135 594.937, 889.380 595.548, 890.989 598.494, 899.092 600.278, 904.196 " fill="none" stroke="rgb(0, 0, 0)" stroke-linecap="butt" stroke-linejoin="round" stroke-opacity="1.0" stroke-width="3.0" />
            <path d=" M 606.792, 567.455 607.334, 568.271 609.089, 570.910 609.434, 571.430 609.471, 571.485 609.501, 571.562 610.206, 573.333 610.710, 574.601 612.826, 577.648 613.407, 577.985 615.293, 579.077 615.669, 579.092 618.191, 579.193 620.459, 579.284 629.170, 580.275 635.282, 580.164 636.258, 580.147 638.018, 580.115 641.181, 579.578 643.763, 580.300 646.319, 579.602 650.511, 579.818 652.582, 578.360 655.198, 576.247 657.521, 576.062 661.913, 576.672 662.182, 576.710 " fill="none" stroke="rgb(0, 0, 0)" stroke-linecap="butt" stroke-linejoin="round" stroke-opacity="1.0" stroke-width="3.0" />
            <path d=" M 531.463, 743.864 531.531, 745.550 531.929, 755.542 532.016, 757.714 531.794, 760.456 531.788, 767.563 532.165, 773.585 531.788, 783.578 531.617, 788.106 531.578, 798.106 531.574, 799.232 531.412, 803.796 532.196, 807.574 " fill="none" stroke="rgb(0, 0, 0)" stroke-linecap="butt" stroke-linejoin="round" stroke-opacity="1.0" stroke-width="3.0" />
            <path d=" M 591.659, 652.823 593.207, 644.901 592.902, 641.090 593.077, 635.136 592.669, 627.870 590.565, 619.194 588.906, 609.511 588.710, 608.371 587.982, 604.125 587.947, 595.032 587.916, 587.129 587.914, 586.563 " fill="none" stroke="rgb(0, 0, 0)" stroke-linecap="butt" stroke-linejoin="round" stroke-opacity="1.0" stroke-width="3.0" />
            <path d=" M 538.956, 903.380 540.389, 911.882 541.985, 920.240 542.658, 928.859 544.799, 938.166 546.998, 947.921 547.151, 948.596 549.809, 958.236 550.058, 959.141 552.156, 968.918 552.878, 972.283 " fill="none" stroke="rgb(0, 0, 0)" stroke-linecap="butt" stroke-linejoin="round" stroke-opacity="1.0" stroke-width="3.0" />
            <path d=" M 573.874, 601.935 573.875, 601.869 573.886, 601.749 574.732, 592.781 574.892, 590.731 574.943, 590.079 574.946, 590.040 575.473, 583.280 575.769, 579.480 575.973, 575.794 576.338, 569.182 576.508, 566.083 576.536, 565.589 576.649, 564.531 577.701, 554.705 578.750, 545.506 579.045, 538.548 579.150, 536.092 578.851, 535.056 577.495, 530.361 " fill="none" stroke="rgb(0, 0, 0)" stroke-linecap="butt" stroke-linejoin="round" stroke-opacity="1.0" stroke-width="3.0" />
            <path d=" M 772.350, 822.459 767.328, 823.191 760.244, 822.842 756.850, 823.795 754.873, 824.612 752.790, 826.010 750.220, 828.912 749.073, 832.082 749.057, 835.451 751.331, 842.038 752.968, 844.368 756.345, 848.060 762.612, 851.055 771.586, 852.397 776.865, 851.842 780.630, 851.197 781.635, 851.147 782.029, 851.128 783.686, 851.046 " fill="none" stroke="rgb(0, 0, 0)" stroke-linecap="butt" stroke-linejoin="round" stroke-opacity="1.0" stroke-width="3.0" />
            <path d=" M 588.689, 774.621 588.753, 774.303 588.782, 774.160 588.901, 773.571 588.976, 773.196 588.886, 767.400 588.992, 761.007 589.202, 754.345 589.293, 751.488 589.442, 746.773 589.603, 744.812 589.669, 744.012 589.670, 743.992 590.176, 737.841 592.162, 735.971 592.645, 733.662 591.719, 730.503 593.100, 727.517 592.598, 726.317 591.028, 722.562 591.478, 716.796 591.257, 714.865 590.860, 711.393 590.846, 711.273 590.801, 710.876 590.798, 710.852 590.633, 709.406 590.630, 709.377 590.610, 709.203 590.600, 709.121 590.589, 709.017 590.552, 708.696 590.551, 708.688 590.325, 706.713 590.298, 706.480 589.780, 701.948 589.765, 701.819 " fill="none" stroke="rgb(0, 0, 0)" stroke-linecap="butt" stroke-linejoin="round" stroke-opacity="1.0" stroke-width="3.0" />
            <path d=" M 546.039, 571.384 544.856, 575.275 543.672, 579.170 542.547, 586.748 540.845, 594.111 539.631, 598.847 539.516, 608.413 539.020, 611.296 538.709, 613.103 538.141, 616.404 537.539, 622.497 537.534, 622.545 537.484, 624.396 537.416, 626.929 537.391, 627.881 537.250, 628.664 537.017, 629.955 536.724, 631.586 536.726, 631.625 536.739, 631.855 536.877, 634.251 536.910, 634.821 537.109, 638.284 536.459, 647.372 " fill="none" stroke="rgb(0, 0, 0)" stroke-linecap="butt" stroke-linejoin="round" stroke-opacity="1.0" stroke-width="3.0" />
            <path d=" M 581.840, 821.873 581.856, 820.470 581.910, 815.797 581.914, 815.454 581.984, 809.343 582.663, 805.576 584.439, 795.735 584.617, 794.750 584.469, 792.444 584.106, 786.758 584.022, 785.452 583.528, 777.718 581.743, 767.879 581.038, 763.991 580.890, 763.093 580.674, 761.784 580.485, 760.641 579.299, 753.451 578.801, 747.526 578.639, 745.602 578.598, 745.109 " fill="none" stroke="rgb(0, 0, 0)" stroke-linecap="butt" stroke-linejoin="round" stroke-opacity="1.0" stroke-width="3.0" />
            <path d=" M 650.632, 693.931 648.524, 695.666 648.892, 701.235 648.907, 701.458 648.798, 702.586 648.797, 702.596 648.349, 707.254 649.357, 710.806 649.919, 714.037 650.236, 716.649 650.432, 719.505 651.141, 725.320 652.136, 730.662 652.378, 735.345 652.566, 737.656 653.661, 747.595 653.819, 749.027 653.894, 749.707 653.740, 751.995 652.337, 757.255 650.626, 763.052 648.726, 764.917 644.594, 764.959 " fill="none" stroke="rgb(0, 0, 0)" stroke-linecap="butt" stroke-linejoin="round" stroke-opacity="1.0" stroke-width="3.0" />
            <path d=" M 848.566, 646.154 851.091, 643.750 854.162, 639.306 854.492, 636.663 854.493, 636.507 853.992, 626.498 852.351, 616.644 849.784, 613.191 846.311, 610.958 843.315, 610.419 842.496, 609.750 842.346, 609.627 842.337, 609.620 842.123, 609.445 840.714, 608.121 840.695, 608.103 839.123, 606.627 836.641, 603.665 833.275, 600.366 833.207, 600.299 827.463, 594.557 823.981, 591.956 823.936, 591.922 823.731, 591.769 822.855, 591.114 818.559, 585.330 " fill="none" stroke="rgb(0, 0, 0)" stroke-linecap="butt" stroke-linejoin="round" stroke-opacity="1.0" stroke-width="3.0" />
            <path d=" M 591.228, 579.675 592.354, 578.145 592.359, 578.139 592.484, 577.969 592.587, 577.829 592.594, 577.820 592.668, 577.719 594.477, 575.263 594.490, 575.246 595.699, 573.603 599.386, 571.160 602.559, 570.337 603.287, 570.122 603.505, 569.791 604.383, 568.457 604.874, 567.235 605.156, 566.535 605.182, 566.469 605.815, 564.895 608.061, 562.153 609.909, 559.537 611.961, 553.051 612.090, 548.528 608.743, 543.114 606.005, 540.058 605.939, 539.984 605.662, 539.674 604.792, 539.017 602.498, 537.466 596.111, 536.865 595.792, 536.835 591.116, 536.395 590.861, 536.371 590.426, 536.330 589.340, 536.325 588.978, 536.323 587.295, 536.314 586.749, 536.311 585.335, 536.447 583.979, 536.578 582.608, 536.710 580.580, 535.817 578.851, 535.056 " fill="none" stroke="rgb(0, 0, 0)" stroke-linecap="butt" stroke-linejoin="round" stroke-opacity="1.0" stroke-width="3.0" />
            <path d=" M 814.792, 767.617 818.704, 760.333 822.692, 755.061 826.763, 751.314 834.110, 744.771 839.367, 738.650 840.166, 736.522 843.534, 731.460 844.898, 728.559 847.496, 723.386 848.449, 721.477 849.832, 714.708 848.290, 711.607 845.485, 710.016 842.317, 710.493 839.219, 709.909 837.466, 708.937 " fill="none" stroke="rgb(0, 0, 0)" stroke-linecap="butt" stroke-linejoin="round" stroke-opacity="1.0" stroke-width="3.0" />
            <path d=" M 771.100, 431.819 772.715, 430.708 775.633, 428.701 777.142, 425.272 777.156, 423.762 775.291, 418.723 774.783, 417.886 774.591, 417.570 771.859, 413.065 770.929, 411.917 770.806, 411.764 767.420, 407.581 766.491, 406.714 766.483, 406.707 766.445, 406.672 766.414, 406.642 766.181, 406.425 761.822, 402.359 759.627, 400.521 755.669, 397.208 746.655, 392.879 746.213, 392.666 738.839, 390.393 735.704, 389.816 731.683, 392.246 731.041, 393.911 730.790, 394.563 730.760, 394.638 730.545, 395.198 727.408, 399.011 726.795, 400.125 " fill="none" stroke="rgb(0, 0, 0)" stroke-linecap="butt" stroke-linejoin="round" stroke-opacity="1.0" stroke-width="3.0" />
            <path d=" M 750.951, 760.712 750.942, 754.158 751.155, 751.831 751.164, 751.723 752.072, 741.764 752.381, 738.378 751.232, 728.445 751.163, 727.848 751.156, 727.787 750.935, 725.876 750.323, 719.727 750.595, 709.730 750.686, 706.395 751.071, 702.036 751.381, 698.526 751.454, 697.750 751.463, 697.657 751.532, 696.928 751.777, 694.335 751.145, 692.880 749.234, 689.813 748.547, 685.297 749.508, 679.921 749.766, 678.233 " fill="none" stroke="rgb(0, 0, 0)" stroke-linecap="butt" stroke-linejoin="round" stroke-opacity="1.0" stroke-width="3.0" />
            <path d=" M 596.724, 828.525 596.651, 828.978 595.676, 835.048 595.959, 838.485 597.372, 841.678 597.408, 841.699 600.055, 843.243 600.257, 843.360 600.747, 843.646 602.190, 844.110 602.216, 844.118 602.463, 844.198 602.685, 844.269 602.999, 844.370 603.528, 844.540 608.557, 844.290 609.673, 844.235 610.710, 844.743 610.750, 844.762 612.806, 845.770 615.020, 845.672 623.651, 844.483 626.844, 843.277 631.417, 841.395 632.674, 840.439 633.382, 839.900 633.505, 839.806 633.625, 839.715 633.908, 839.500 634.504, 839.046 637.303, 836.917 639.742, 833.249 641.204, 827.922 639.806, 823.314 635.344, 818.701 632.599, 817.228 631.629, 816.707 631.504, 816.640 631.446, 816.609 628.017, 817.346 627.121, 817.360 622.575, 817.435 " fill="none" stroke="rgb(0, 0, 0)" stroke-linecap="butt" stroke-linejoin="round" stroke-opacity="1.0" stroke-width="3.0" />
            <path d=" M 785.134, 931.615 787.329, 926.641 789.839, 918.319 790.700, 915.465 792.539, 911.479 792.981, 909.974 792.991, 909.939 793.064, 909.687 793.152, 909.388 793.162, 909.355 793.650, 907.689 795.087, 902.784 796.490, 897.823 797.016, 892.419 799.116, 886.198 799.987, 876.236 800.321, 872.421 801.069, 862.449 801.307, 859.271 801.272, 855.032 800.397, 845.827 800.398, 845.817 800.434, 845.332 800.459, 844.985 800.461, 844.968 800.487, 844.615 800.487, 844.609 800.994, 837.806 801.006, 837.638 801.066, 836.835 801.081, 836.630 801.117, 836.144 " fill="none" stroke="rgb(0, 0, 0)" stroke-linecap="butt" stroke-linejoin="round" stroke-opacity="1.0" stroke-width="3.0" />
            <path d=" M 818.465, 780.549 815.633, 782.570 811.621, 784.846 809.668, 785.115 806.347, 785.573 802.087, 784.828 797.416, 782.692 793.875, 779.325 789.401, 774.103 787.939, 771.808 785.393, 767.378 782.387, 763.709 779.571, 759.628 778.021, 756.660 772.892, 749.987 768.242, 746.337 767.469, 745.896 763.564, 744.155 758.794, 744.172 756.172, 745.065 754.438, 746.807 753.567, 748.426 753.729, 754.883 754.464, 760.749 " fill="none" stroke="rgb(0, 0, 0)" stroke-linecap="butt" stroke-linejoin="round" stroke-opacity="1.0" stroke-width="3.0" />
            <path d=" M 604.250, 954.525 601.689, 949.563 598.126, 940.220 595.820, 934.174 593.076, 924.558 590.406, 915.198 588.695, 905.346 586.984, 895.493 586.772, 894.275 585.469, 884.361 585.173, 882.112 583.959, 873.184 582.985, 864.178 582.532, 859.994 582.758, 856.378 582.780, 856.016 582.704, 854.702 582.667, 854.076 " fill="none" stroke="rgb(0, 0, 0)" stroke-linecap="butt" stroke-linejoin="round" stroke-opacity="1.0" stroke-width="3.0" />
            <path d=" M 532.221, 806.284 532.196, 807.574 532.157, 809.553 531.936, 819.550 531.836, 824.061 531.484, 829.574 531.630, 834.104 531.743, 844.104 531.803, 849.457 532.623, 859.423 532.971, 863.658 534.271, 873.573 534.505, 875.362 535.218, 880.839 537.379, 890.602 537.401, 890.702 538.287, 900.311 538.956, 903.380 540.592, 910.887 " fill="none" stroke="rgb(0, 0, 0)" stroke-linecap="butt" stroke-linejoin="round" stroke-opacity="1.0" stroke-width="3.0" />
            <path d=" M 699.377, 870.528 700.716, 865.450 700.811, 864.903 702.161, 854.995 703.120, 847.960 703.184, 847.639 703.508, 846.020 703.575, 845.688 703.609, 845.513 703.736, 844.878 705.100, 838.057 707.909, 830.307 710.184, 824.786 711.716, 820.091 712.182, 818.821 714.121, 812.429 715.887, 803.058 718.475, 796.748 718.741, 795.257 719.458, 791.239 719.518, 790.903 719.552, 790.713 719.627, 790.292 719.746, 789.626 719.766, 789.515 719.805, 789.298 719.908, 788.719 721.328, 784.199 721.198, 781.461 721.006, 777.436 721.788, 774.639 721.985, 773.936 723.292, 769.265 723.251, 766.071 723.236, 764.893 " fill="none" stroke="rgb(0, 0, 0)" stroke-linecap="butt" stroke-linejoin="round" stroke-opacity="1.0" stroke-width="3.0" />
            <path d=" M 578.698, 730.616 578.696, 726.977 578.690, 718.340 578.687, 714.926 578.411, 709.643 578.182, 705.267 578.035, 702.453 577.866, 699.228 577.781, 697.457 577.779, 697.434 577.298, 687.445 576.816, 677.457 576.691, 674.852 576.685, 674.725 576.680, 674.620 576.679, 674.599 576.678, 674.585 576.677, 674.574 576.675, 674.518 576.664, 674.295 576.663, 674.269 576.656, 674.140 576.651, 674.027 576.648, 673.970 576.647, 673.948 576.645, 673.898 576.641, 673.810 576.637, 673.737 576.628, 673.549 576.626, 673.512 576.626, 673.504 576.622, 673.416 576.602, 673.012 576.601, 672.980 576.575, 672.446 576.574, 672.432 576.564, 672.230 576.560, 672.130 576.554, 672.018 576.540, 671.721 576.540, 671.715 576.522, 671.356 576.265, 666.024 576.173, 664.121 576.165, 663.956 576.153, 663.693 576.146, 663.560 576.141, 663.457 576.079, 662.171 576.079, 662.155 576.047, 661.506 575.630, 651.515 575.286, 643.278 575.005, 640.928 574.940, 640.391 574.910, 640.135 574.355, 635.505 574.327, 635.267 574.293, 634.988 574.279, 634.868 574.265, 634.751 573.993, 632.483 573.956, 629.832 573.898, 625.728 573.801, 618.889 " fill="none" stroke="rgb(0, 0, 0)" stroke-linecap="butt" stroke-linejoin="round" stroke-opacity="1.0" stroke-width="3.0" />
            <path d=" M 898.875, 634.075 899.076, 639.923 896.823, 649.666 894.601, 659.277 892.492, 669.052 891.410, 674.071 889.054, 683.789 888.737, 685.100 885.060, 694.399 883.060, 699.455 882.891, 699.786 878.325, 708.683 877.124, 711.022 874.227, 715.669 873.308, 717.145 872.838, 717.898 869.843, 722.703 863.932, 730.769 862.107, 733.259 858.188, 738.042 " fill="none" stroke="rgb(0, 0, 0)" stroke-linecap="butt" stroke-linejoin="round" stroke-opacity="1.0" stroke-width="3.0" />
            <path d=" M 613.398, 808.368 614.914, 809.057 619.526, 809.276 622.506, 808.711 626.959, 806.947 635.666, 802.081 636.254, 801.433 636.262, 801.423 636.796, 800.835 639.864, 797.451 641.432, 795.723 642.481, 792.024 642.069, 789.285 641.354, 787.673 639.846, 784.273 636.017, 781.227 633.607, 779.572 623.607, 779.565 622.226, 779.564 617.022, 777.970 613.592, 778.495 610.965, 777.392 608.374, 776.925 605.946, 778.512 603.672, 780.648 601.998, 783.928 601.015, 790.117 598.474, 795.855 598.209, 796.652 597.897, 799.838 598.288, 801.779 598.896, 802.696 599.670, 803.864 601.371, 806.429 601.577, 806.691 601.630, 806.758 601.856, 807.045 601.888, 807.085 604.099, 809.889 603.149, 810.878 599.615, 811.906 598.429, 813.132 597.419, 814.176 597.298, 814.301 597.262, 814.338 596.878, 814.736 595.238, 818.639 595.504, 823.718 595.722, 824.726 596.651, 828.978 " fill="none" stroke="rgb(0, 0, 0)" stroke-linecap="butt" stroke-linejoin="round" stroke-opacity="1.0" stroke-width="3.0" />
            <path d=" M 650.988, 798.023 649.649, 805.494 647.885, 815.337 646.120, 825.180 645.800, 826.964 645.043, 831.125 645.038, 831.155 644.998, 831.375 644.749, 832.740 644.672, 833.166 644.648, 833.300 644.591, 833.613 644.535, 833.920 644.427, 834.514 644.379, 834.774 644.272, 835.364 643.693, 838.544 641.885, 848.379 640.077, 858.214 639.619, 860.706 639.551, 861.201 639.526, 861.386 639.510, 861.505 639.474, 861.766 638.119, 871.674 637.996, 872.574 637.917, 873.151 637.916, 873.156 637.671, 874.953 637.074, 879.317 636.751, 881.674 634.669, 891.528 632.989, 899.473 632.411, 902.209 632.250, 902.972 632.172, 903.341 631.865, 904.791 629.370, 914.269 629.184, 914.978 629.115, 915.240 628.448, 916.805 628.178, 917.438 626.643, 921.038 626.554, 921.246 626.545, 921.268 625.537, 923.632 621.479, 932.771 621.147, 933.517 619.445, 937.351 619.210, 937.880 " fill="none" stroke="rgb(0, 0, 0)" stroke-linecap="butt" stroke-linejoin="round" stroke-opacity="1.0" stroke-width="3.0" />
            <path d=" M 920.170, 629.626 921.228, 620.457 921.448, 618.015 922.124, 610.491 921.869, 600.494 921.820, 598.545 920.676, 588.610 920.423, 586.414 917.783, 576.769 917.573, 576.001 916.602, 573.019 914.044, 567.666 911.477, 562.604 907.946, 556.756 903.676, 550.508 898.506, 544.252 896.895, 542.173 893.061, 538.171 890.202, 533.108 885.010, 526.486 879.264, 518.301 877.795, 516.209 875.174, 513.215 872.860, 509.538 870.211, 504.940 868.866, 502.418 865.731, 494.950 865.617, 494.678 " fill="none" stroke="rgb(0, 0, 0)" stroke-linecap="butt" stroke-linejoin="round" stroke-opacity="1.0" stroke-width="3.0" />
            <path d=" M 554.015, 973.626 554.299, 975.265 554.477, 976.294 555.205, 980.501 555.797, 988.392 556.271, 998.381 556.499, 1003.178 556.531, 1013.178 556.549, 1018.784 556.475, 1028.784 556.457, 1031.227 556.402, 1035.777 556.093, 1045.772 556.001, 1048.754 556.306, 1056.173 556.489, 1061.025 556.758, 1065.092 557.000, 1068.766 559.125, 1074.922 561.390, 1080.219 563.054, 1085.022 563.495, 1088.113 563.515, 1088.254 563.557, 1088.543 564.017, 1091.769 566.264, 1095.558 566.395, 1095.778 566.455, 1095.879 569.464, 1100.952 574.075, 1104.632 576.793, 1108.197 581.144, 1111.214 581.214, 1111.262 582.826, 1112.039 585.010, 1113.091 585.130, 1113.149 586.239, 1112.817 588.460, 1112.200 589.521, 1111.906 591.162, 1111.450 593.489, 1110.888 595.746, 1106.709 " fill="none" stroke="rgb(0, 0, 0)" stroke-linecap="butt" stroke-linejoin="round" stroke-opacity="1.0" stroke-width="3.0" />
            <path d=" M 684.038, 583.858 684.065, 584.943 684.315, 594.940 684.364, 596.885 684.452, 600.388 683.870, 607.023 682.556, 616.937 681.819, 622.493 680.505, 632.406 680.486, 632.545 680.145, 636.147 679.202, 646.102 679.155, 646.588 679.151, 646.640 678.479, 652.498 677.807, 655.726 677.795, 655.787 676.432, 662.340 675.262, 667.970 674.356, 670.921 672.735, 677.026 671.850, 680.967 671.417, 682.891 670.833, 685.491 670.256, 693.361 667.952, 703.092 667.229, 706.144 665.796, 714.462 664.733, 722.424 662.730, 732.221 662.680, 732.468 662.451, 733.587 662.447, 733.608 661.208, 739.667 660.781, 741.755 660.420, 743.521 660.216, 744.519 658.325, 753.660 658.316, 753.705 658.299, 753.783 656.274, 763.575 655.926, 765.256 654.690, 774.095 654.238, 777.330 652.854, 787.234 652.733, 788.099 652.725, 788.152 650.793, 797.964 650.566, 799.116 649.649, 805.494 " fill="none" stroke="rgb(0, 0, 0)" stroke-linecap="butt" stroke-linejoin="round" stroke-opacity="1.0" stroke-width="3.0" />
        </g>
    </g>
</svg>
