<?xml version='1.0' encoding='ascii'?>
<svg xmlns="http://www.w3.org/2000/svg" height="1280" version="1.1" width="1280">
    <g id="RenderLayer_LineSet" inkscape:groupmode="lineset" inkscape:label="RenderLayer_LineSet" xmlns:inkscape="http://www.inkscape.org/namespaces/inkscape">
        <g id="strokes" inkscape:groupmode="layer" inkscape:label="strokes" xmlns:inkscape="http://www.inkscape.org/namespaces/inkscape">
            <path d=" M 824.927, 774.463 826.184, 769.586 826.959, 764.616 827.036, 764.212 827.121, 763.762 827.161, 763.556 827.167, 763.524 827.220, 763.246 827.307, 762.789 827.577, 761.373 827.617, 761.165 827.666, 760.906 827.748, 760.478 827.773, 760.346 827.860, 759.892 827.868, 759.849 827.946, 759.437 827.922, 759.990 827.919, 760.059 827.892, 760.645 827.882, 760.864 827.799, 762.733 827.786, 763.018 827.765, 763.471 827.763, 763.534 827.761, 763.575 827.756, 763.676 827.755, 763.712 827.743, 763.966 827.738, 764.081 827.732, 764.209 " fill="none" stroke="rgb(0, 0, 0)" stroke-linecap="butt" stroke-linejoin="round" stroke-opacity="1.0" stroke-width="3.0" />
            <path d=" M 659.550, 321.706 658.188, 322.581 657.790, 322.836 656.305, 323.791 655.270, 324.456 654.750, 324.790 654.599, 324.887 654.579, 324.900 654.339, 325.054 653.874, 325.353 653.602, 325.528 653.350, 325.436 648.993, 323.845 646.457, 322.919 644.649, 323.569 642.559, 326.410 " fill="none" stroke="rgb(0, 0, 0)" stroke-linecap="butt" stroke-linejoin="round" stroke-opacity="1.0" stroke-width="3.0" />
            <path d=" M 599.303, 523.651 596.589, 522.292 595.938, 521.966 595.713, 521.854 595.316, 521.566 593.381, 520.165 591.123, 513.552 591.757, 515.390 593.231, 519.597 " fill="none" stroke="rgb(0, 0, 0)" stroke-linecap="butt" stroke-linejoin="round" stroke-opacity="1.0" stroke-width="3.0" />
            <path d=" M 717.967, 539.278 718.012, 539.694 719.163, 546.222 719.542, 548.373 719.675, 548.470 723.542, 551.300 725.292, 552.154 726.779, 551.803 726.797, 551.799 728.334, 551.437 729.462, 551.107 " fill="none" stroke="rgb(0, 0, 0)" stroke-linecap="butt" stroke-linejoin="round" stroke-opacity="1.0" stroke-width="3.0" />
            <path d=" M 527.703, 827.111 525.926, 827.408 524.205, 827.470 523.819, 827.483 520.153, 828.944 520.141, 828.949 519.616, 829.158 518.923, 829.435 515.561, 831.751 509.622, 835.844 " fill="none" stroke="rgb(0, 0, 0)" stroke-linecap="butt" stroke-linejoin="round" stroke-opacity="1.0" stroke-width="3.0" />
            <path d=" M 889.750, 901.559 891.975, 899.675 892.928, 898.868 893.440, 898.571 893.918, 898.293 895.019, 897.654 895.325, 897.476 895.451, 897.403 895.552, 897.344 895.626, 897.301 895.848, 897.172 897.019, 896.493 897.852, 894.046 899.832, 890.115 900.219, 889.346 900.273, 889.240 900.332, 889.122 900.433, 888.922 900.447, 888.895 900.813, 888.168 900.887, 888.021 901.064, 887.670 901.124, 887.457 901.571, 885.881 " fill="none" stroke="rgb(0, 0, 0)" stroke-linecap="butt" stroke-linejoin="round" stroke-opacity="1.0" stroke-width="3.0" />
            <path d=" M 590.883, 788.204 590.918, 789.090 590.960, 790.145 590.996, 791.053 591.029, 791.891 591.055, 792.541 591.056, 792.569 591.077, 792.764 591.259, 794.469 591.286, 794.722 591.643, 798.070 592.111, 801.500 592.146, 801.759 592.345, 803.219 591.534, 806.500 591.483, 806.705 591.442, 806.872 591.302, 807.440 591.177, 807.945 591.118, 808.183 591.113, 808.203 591.023, 808.570 " fill="none" stroke="rgb(0, 0, 0)" stroke-linecap="butt" stroke-linejoin="round" stroke-opacity="1.0" stroke-width="3.0" />
            <path d=" M 604.471, 1051.889 604.477, 1051.893 609.267, 1054.623 612.850, 1057.050 616.845, 1058.574 618.728, 1059.434 622.769, 1061.280 " fill="none" stroke="rgb(0, 0, 0)" stroke-linecap="butt" stroke-linejoin="round" stroke-opacity="1.0" stroke-width="3.0" />
            <path d=" M 503.796, 843.339 501.892, 845.795 496.853, 854.432 496.260, 855.449 496.024, 855.926 493.348, 861.333 " fill="none" stroke="rgb(0, 0, 0)" stroke-linecap="butt" stroke-linejoin="round" stroke-opacity="1.0" stroke-width="3.0" />
            <path d=" M 857.980, 883.876 861.208, 883.131 861.535, 883.072 867.616, 881.975 872.169, 881.591 877.697, 881.540 878.707, 881.581 " fill="none" stroke="rgb(0, 0, 0)" stroke-linecap="butt" stroke-linejoin="round" stroke-opacity="1.0" stroke-width="3.0" />
            <path d=" M 612.628, 1006.979 610.049, 1008.740 607.684, 1011.541 604.320, 1013.350 603.814, 1013.622 603.795, 1013.632 602.175, 1014.502 596.678, 1016.464 595.034, 1017.051 594.671, 1017.180 " fill="none" stroke="rgb(0, 0, 0)" stroke-linecap="butt" stroke-linejoin="round" stroke-opacity="1.0" stroke-width="3.0" />
            <path d=" M 644.900, 319.196 644.201, 319.532 639.172, 321.941 634.212, 324.933 630.274, 328.223 627.229, 330.517 " fill="none" stroke="rgb(0, 0, 0)" stroke-linecap="butt" stroke-linejoin="round" stroke-opacity="1.0" stroke-width="3.0" />
            <path d=" M 728.933, 511.466 727.332, 512.784 727.099, 512.976 726.289, 513.442 725.955, 513.635 725.952, 513.636 724.021, 512.600 721.025, 507.956 720.159, 506.613 720.067, 506.471 717.075, 504.047 717.716, 504.939 720.159, 506.613 " fill="none" stroke="rgb(0, 0, 0)" stroke-linecap="butt" stroke-linejoin="round" stroke-opacity="1.0" stroke-width="3.0" />
            <path d=" M 555.900, 994.197 557.516, 999.747 557.519, 999.757 557.947, 1001.228 557.977, 1001.331 558.017, 1001.467 558.514, 1003.174 559.771, 1005.110 560.904, 1006.857 563.163, 1011.985 564.248, 1013.534 " fill="none" stroke="rgb(0, 0, 0)" stroke-linecap="butt" stroke-linejoin="round" stroke-opacity="1.0" stroke-width="3.0" />
            <path d=" M 598.442, 521.104 598.725, 521.515 599.331, 522.397 600.194, 523.652 600.870, 524.634 603.547, 524.827 603.547, 524.827 604.227, 524.875 606.031, 525.005 606.193, 524.789 608.186, 522.123 608.475, 521.737 609.053, 520.964 610.125, 518.808 610.132, 518.794 610.291, 518.472 610.424, 518.311 610.815, 517.837 610.815, 517.837 611.055, 517.545 611.469, 517.042 611.566, 516.925 612.112, 516.262 612.882, 515.326 " fill="none" stroke="rgb(0, 0, 0)" stroke-linecap="butt" stroke-linejoin="round" stroke-opacity="1.0" stroke-width="3.0" />
            <path d=" M 861.058, 845.217 858.516, 842.783 853.059, 837.824 847.737, 829.544 847.125, 829.064 " fill="none" stroke="rgb(0, 0, 0)" stroke-linecap="butt" stroke-linejoin="round" stroke-opacity="1.0" stroke-width="3.0" />
            <path d=" M 763.691, 745.023 764.630, 748.528 764.820, 749.237 765.024, 749.999 765.928, 753.371 765.976, 753.549 766.245, 754.554 766.293, 755.048 766.306, 755.186 766.484, 757.004 766.600, 758.199 766.817, 760.428 766.844, 760.708 767.196, 764.325 767.280, 765.179 767.287, 765.254 767.378, 766.195 " fill="none" stroke="rgb(0, 0, 0)" stroke-linecap="butt" stroke-linejoin="round" stroke-opacity="1.0" stroke-width="3.0" />
            <path d=" M 586.389, 502.315 584.999, 511.781 584.934, 512.227 584.929, 512.255 584.797, 513.159 584.575, 514.665 584.396, 515.665 583.484, 520.755 583.343, 521.543 582.960, 523.683 " fill="none" stroke="rgb(0, 0, 0)" stroke-linecap="butt" stroke-linejoin="round" stroke-opacity="1.0" stroke-width="3.0" />
            <path d=" M 663.656, 400.505 663.726, 400.531 666.335, 401.512 672.066, 407.671 676.722, 413.558 677.447, 414.474 678.570, 415.894 " fill="none" stroke="rgb(0, 0, 0)" stroke-linecap="butt" stroke-linejoin="round" stroke-opacity="1.0" stroke-width="3.0" />
            <path d=" M 801.025, 818.799 802.356, 814.561 802.427, 814.333 802.821, 813.079 802.942, 812.435 804.796, 802.608 805.379, 799.521 805.390, 797.450 " fill="none" stroke="rgb(0, 0, 0)" stroke-linecap="butt" stroke-linejoin="round" stroke-opacity="1.0" stroke-width="3.0" />
            <path d=" M 613.495, 515.844 614.367, 510.751 612.992, 502.823 611.624, 494.280 " fill="none" stroke="rgb(0, 0, 0)" stroke-linecap="butt" stroke-linejoin="round" stroke-opacity="1.0" stroke-width="3.0" />
            <path d=" M 772.433, 625.420 770.784, 632.764 768.593, 642.521 767.767, 646.201 767.606, 646.919 " fill="none" stroke="rgb(0, 0, 0)" stroke-linecap="butt" stroke-linejoin="round" stroke-opacity="1.0" stroke-width="3.0" />
            <path d=" M 770.774, 1060.808 771.661, 1061.384 772.352, 1061.834 773.763, 1062.751 774.390, 1063.159 774.806, 1063.430 775.365, 1063.273 775.727, 1063.171 776.550, 1062.940 777.582, 1062.650 779.243, 1062.039 779.579, 1061.915 782.134, 1060.975 783.610, 1060.652 786.644, 1058.515 787.716, 1057.760 787.838, 1057.674 788.341, 1057.296 788.381, 1057.266 788.890, 1056.883 789.244, 1056.617 788.788, 1055.477 " fill="none" stroke="rgb(0, 0, 0)" stroke-linecap="butt" stroke-linejoin="round" stroke-opacity="1.0" stroke-width="3.0" />
            <path d=" M 718.431, 568.209 718.718, 572.838 721.583, 579.460 721.757, 579.588 721.926, 579.713 722.002, 579.768 722.408, 580.068 723.221, 580.667 724.120, 581.329 728.536, 581.761 731.000, 581.504 731.328, 581.470 " fill="none" stroke="rgb(0, 0, 0)" stroke-linecap="butt" stroke-linejoin="round" stroke-opacity="1.0" stroke-width="3.0" />
            <path d=" M 767.280, 765.179 767.278, 765.253 767.161, 771.518 767.151, 772.061 767.147, 772.258 767.144, 772.427 767.143, 772.504 767.170, 772.789 767.353, 774.676 767.410, 775.258 767.539, 776.590 767.560, 776.811 767.652, 777.757 767.889, 780.200 767.932, 780.644 767.544, 782.535 767.540, 782.557 767.524, 782.633 766.678, 786.758 766.562, 787.323 766.550, 787.383 " fill="none" stroke="rgb(0, 0, 0)" stroke-linecap="butt" stroke-linejoin="round" stroke-opacity="1.0" stroke-width="3.0" />
            <path d=" M 602.231, 569.104 605.054, 568.991 605.766, 568.963 607.245, 568.903 609.341, 568.819 611.300, 568.048 611.964, 567.787 612.467, 567.589 613.129, 567.329 615.980, 563.470 616.104, 559.855 615.949, 557.023 " fill="none" stroke="rgb(0, 0, 0)" stroke-linecap="butt" stroke-linejoin="round" stroke-opacity="1.0" stroke-width="3.0" />
            <path d=" M 548.726, 860.418 549.552, 860.752 552.917, 862.118 558.014, 864.186 558.068, 864.217 558.937, 864.719 559.046, 864.782 559.065, 864.793 559.389, 864.981 560.774, 865.781 560.860, 865.831 562.258, 866.639 562.389, 866.723 562.392, 866.724 562.514, 866.802 563.595, 867.489 565.558, 868.738 567.635, 870.058 568.607, 870.677 " fill="none" stroke="rgb(0, 0, 0)" stroke-linecap="butt" stroke-linejoin="round" stroke-opacity="1.0" stroke-width="3.0" />
            <path d=" M 584.934, 512.227 582.967, 521.908 582.877, 522.353 582.790, 523.061 582.778, 523.159 582.411, 526.168 582.014, 529.421 581.399, 534.456 " fill="none" stroke="rgb(0, 0, 0)" stroke-linecap="butt" stroke-linejoin="round" stroke-opacity="1.0" stroke-width="3.0" />
            <path d=" M 721.991, 421.096 721.383, 418.219 720.301, 413.096 717.170, 404.103 714.871, 399.513 " fill="none" stroke="rgb(0, 0, 0)" stroke-linecap="butt" stroke-linejoin="round" stroke-opacity="1.0" stroke-width="3.0" />
            <path d=" M 742.453, 529.491 742.863, 523.878 742.893, 523.456 742.907, 523.272 742.961, 522.526 742.963, 522.511 743.029, 521.600 743.181, 519.513 742.548, 517.677 742.102, 516.385 740.996, 514.464 739.633, 512.095 736.727, 509.406 736.702, 509.383 736.222, 508.939 " fill="none" stroke="rgb(0, 0, 0)" stroke-linecap="butt" stroke-linejoin="round" stroke-opacity="1.0" stroke-width="3.0" />
            <path d=" M 605.471, 431.638 604.997, 433.899 603.783, 438.742 603.224, 440.973 602.849, 442.257 601.686, 446.235 599.400, 454.052 " fill="none" stroke="rgb(0, 0, 0)" stroke-linecap="butt" stroke-linejoin="round" stroke-opacity="1.0" stroke-width="3.0" />
            <path d=" M 605.826, 634.069 606.430, 634.018 606.887, 633.979 608.392, 633.849 608.626, 633.829 608.747, 633.819 608.983, 633.799 609.503, 633.754 610.158, 633.698 612.246, 632.840 612.323, 632.809 612.614, 632.689 613.800, 632.202 613.895, 632.163 614.300, 631.996 617.058, 628.028 618.416, 621.710 618.727, 618.605 " fill="none" stroke="rgb(0, 0, 0)" stroke-linecap="butt" stroke-linejoin="round" stroke-opacity="1.0" stroke-width="3.0" />
            <path d=" M 477.046, 884.001 475.087, 884.682 472.809, 886.572 471.122, 890.774 471.344, 894.740 471.652, 901.058 471.663, 901.292 471.794, 903.968 471.817, 904.437 " fill="none" stroke="rgb(0, 0, 0)" stroke-linecap="butt" stroke-linejoin="round" stroke-opacity="1.0" stroke-width="3.0" />
            <path d=" M 594.677, 528.003 594.483, 528.319 593.769, 529.481 589.485, 536.456 588.941, 538.780 588.739, 539.646 589.325, 542.947 589.512, 543.999 589.555, 544.242 590.519, 549.670 " fill="none" stroke="rgb(0, 0, 0)" stroke-linecap="butt" stroke-linejoin="round" stroke-opacity="1.0" stroke-width="3.0" />
            <path d=" M 832.759, 975.032 832.176, 974.646 831.308, 974.072 830.366, 974.309 830.169, 974.358 827.285, 975.083 827.087, 975.133 826.989, 975.158 819.632, 975.207 815.817, 974.688 814.562, 974.596 813.716, 974.534 809.818, 974.248 " fill="none" stroke="rgb(0, 0, 0)" stroke-linecap="butt" stroke-linejoin="round" stroke-opacity="1.0" stroke-width="3.0" />
            <path d=" M 736.911, 507.044 738.606, 506.944 739.160, 506.139 740.265, 504.532 740.280, 503.934 740.490, 495.818 740.517, 494.767 739.802, 492.351 739.382, 490.931 737.612, 487.930 736.712, 486.637 " fill="none" stroke="rgb(0, 0, 0)" stroke-linecap="butt" stroke-linejoin="round" stroke-opacity="1.0" stroke-width="3.0" />
            <path d=" M 767.696, 1062.139 767.881, 1062.251 768.739, 1062.771 771.432, 1064.402 772.972, 1063.841 775.418, 1063.980 778.160, 1063.920 779.716, 1063.424 780.338, 1063.226 780.364, 1063.217 781.901, 1062.728 784.273, 1061.967 784.342, 1061.926 785.084, 1061.492 786.615, 1060.597 788.352, 1059.564 788.650, 1059.387 788.573, 1058.609 " fill="none" stroke="rgb(0, 0, 0)" stroke-linecap="butt" stroke-linejoin="round" stroke-opacity="1.0" stroke-width="3.0" />
            <path d=" M 815.499, 748.652 813.248, 739.244 812.680, 736.870 810.039, 727.225 809.610, 725.658 " fill="none" stroke="rgb(0, 0, 0)" stroke-linecap="butt" stroke-linejoin="round" stroke-opacity="1.0" stroke-width="3.0" />
            <path d=" M 853.233, 826.367 853.971, 826.570 854.885, 826.821 855.028, 826.769 855.045, 826.763 857.922, 825.726 861.484, 825.056 864.833, 825.268 864.955, 825.276 865.727, 825.324 869.481, 826.021 870.101, 826.137 870.570, 826.224 870.673, 826.243 870.700, 826.254 873.668, 827.522 875.328, 828.232 876.092, 828.558 " fill="none" stroke="rgb(0, 0, 0)" stroke-linecap="butt" stroke-linejoin="round" stroke-opacity="1.0" stroke-width="3.0" />
            <path d=" M 838.765, 766.361 839.369, 764.710 838.734, 761.809 837.591, 760.070 833.319, 755.633 826.560, 750.657 824.651, 749.117 " fill="none" stroke="rgb(0, 0, 0)" stroke-linecap="butt" stroke-linejoin="round" stroke-opacity="1.0" stroke-width="3.0" />
            <path d=" M 811.080, 788.847 810.874, 788.060 810.793, 787.754 810.649, 787.205 810.637, 787.156 810.339, 786.023 809.705, 783.606 809.535, 782.956 809.415, 782.465 809.341, 782.164 809.289, 781.953 809.275, 781.893 809.097, 781.167 808.924, 780.461 808.811, 780.002 807.918, 776.356 807.856, 776.102 807.739, 774.926 807.391, 771.435 805.517, 765.632 " fill="none" stroke="rgb(0, 0, 0)" stroke-linecap="butt" stroke-linejoin="round" stroke-opacity="1.0" stroke-width="3.0" />
            <path d=" M 821.321, 793.840 822.754, 786.762 822.830, 786.385 822.932, 785.884 822.937, 785.859 823.071, 785.197 823.280, 784.164 823.349, 783.825 823.641, 782.380 824.267, 779.289 824.686, 777.222 824.927, 774.463 824.937, 774.353 825.316, 770.017 " fill="none" stroke="rgb(0, 0, 0)" stroke-linecap="butt" stroke-linejoin="round" stroke-opacity="1.0" stroke-width="3.0" />
            <path d=" M 599.414, 708.030 600.769, 698.122 600.982, 696.560 602.571, 686.687 602.790, 685.328 602.917, 684.055 " fill="none" stroke="rgb(0, 0, 0)" stroke-linecap="butt" stroke-linejoin="round" stroke-opacity="1.0" stroke-width="3.0" />
            <path d=" M 590.299, 468.958 590.059, 470.045 590.052, 470.075 590.040, 470.132 589.997, 470.324 589.993, 470.344 589.307, 473.456 588.725, 478.740 588.647, 479.452 588.629, 480.260 588.628, 480.303 588.428, 489.701 588.436, 491.584 588.437, 491.687 588.444, 493.279 " fill="none" stroke="rgb(0, 0, 0)" stroke-linecap="butt" stroke-linejoin="round" stroke-opacity="1.0" stroke-width="3.0" />
            <path d=" M 832.340, 911.346 831.303, 906.015 830.536, 901.425 830.505, 901.225 830.494, 901.155 830.410, 900.619 830.406, 900.593 830.095, 898.611 830.094, 898.603 829.641, 895.712 828.093, 891.568 827.465, 889.888 827.411, 889.744 826.784, 888.065 826.728, 887.915 826.618, 887.623 826.599, 887.570 " fill="none" stroke="rgb(0, 0, 0)" stroke-linecap="butt" stroke-linejoin="round" stroke-opacity="1.0" stroke-width="3.0" />
            <path d=" M 597.331, 490.342 597.176, 492.418 593.264, 499.364 590.749, 507.216 591.123, 513.552 " fill="none" stroke="rgb(0, 0, 0)" stroke-linecap="butt" stroke-linejoin="round" stroke-opacity="1.0" stroke-width="3.0" />
            <path d=" M 573.162, 671.477 573.137, 671.575 570.763, 680.027 569.855, 683.873 569.093, 687.105 569.275, 691.638 569.281, 691.774 569.310, 692.500 569.087, 695.710 " fill="none" stroke="rgb(0, 0, 0)" stroke-linecap="butt" stroke-linejoin="round" stroke-opacity="1.0" stroke-width="3.0" />
            <path d=" M 617.845, 618.815 618.535, 618.184 618.793, 617.949 619.482, 617.319 619.604, 617.207 621.131, 615.695 621.707, 611.567 620.983, 609.453 619.312, 606.493 616.959, 603.321 616.590, 602.824 616.507, 602.711 615.194, 601.774 614.283, 601.124 612.963, 600.183 612.647, 600.085 611.361, 599.687 " fill="none" stroke="rgb(0, 0, 0)" stroke-linecap="butt" stroke-linejoin="round" stroke-opacity="1.0" stroke-width="3.0" />
            <path d=" M 851.059, 986.420 851.724, 984.717 850.752, 982.241 847.515, 979.543 845.173, 978.480 835.538, 975.803 834.543, 975.527 833.494, 975.236 833.480, 975.232 832.759, 975.032 832.089, 974.845 831.658, 974.726 " fill="none" stroke="rgb(0, 0, 0)" stroke-linecap="butt" stroke-linejoin="round" stroke-opacity="1.0" stroke-width="3.0" />
            <path d=" M 904.767, 884.130 905.515, 879.873 905.535, 879.759 905.861, 877.908 905.866, 877.877 906.131, 876.371 906.192, 876.093 906.193, 876.091 906.937, 872.710 906.937, 872.709 907.310, 871.015 907.505, 867.809 907.585, 866.479 907.454, 860.858 906.285, 859.262 " fill="none" stroke="rgb(0, 0, 0)" stroke-linecap="butt" stroke-linejoin="round" stroke-opacity="1.0" stroke-width="3.0" />
            <path d=" M 805.142, 800.280 805.390, 797.450 805.831, 792.440 805.877, 791.003 805.957, 788.493 805.988, 787.530 806.013, 786.775 806.042, 785.871 806.043, 785.822 806.060, 785.302 806.128, 783.196 806.130, 783.123 806.137, 782.911 806.143, 782.710 806.149, 782.527 806.187, 781.357 806.192, 781.184 806.201, 780.921 806.237, 779.789 806.239, 779.741 806.244, 779.568 805.995, 776.914 805.840, 775.266 805.776, 774.583 " fill="none" stroke="rgb(0, 0, 0)" stroke-linecap="butt" stroke-linejoin="round" stroke-opacity="1.0" stroke-width="3.0" />
            <path d=" M 725.922, 615.889 725.457, 616.487 724.013, 618.348 723.890, 618.507 721.359, 621.768 718.721, 626.897 718.179, 629.647 717.871, 631.674 719.103, 634.152 721.475, 634.793 721.486, 634.796 723.499, 635.340 723.660, 635.383 723.709, 635.396 723.956, 635.463 " fill="none" stroke="rgb(0, 0, 0)" stroke-linecap="butt" stroke-linejoin="round" stroke-opacity="1.0" stroke-width="3.0" />
            <path d=" M 585.053, 563.231 585.387, 566.172 585.214, 571.200 584.429, 580.717 584.387, 584.718 585.645, 589.310 " fill="none" stroke="rgb(0, 0, 0)" stroke-linecap="butt" stroke-linejoin="round" stroke-opacity="1.0" stroke-width="3.0" />
            <path d=" M 846.048, 780.389 845.894, 779.907 844.333, 774.999 841.895, 769.629 840.305, 767.875 838.765, 766.361 837.233, 764.854 834.845, 763.894 829.323, 762.561 829.225, 762.572 " fill="none" stroke="rgb(0, 0, 0)" stroke-linecap="butt" stroke-linejoin="round" stroke-opacity="1.0" stroke-width="3.0" />
            <path d=" M 579.019, 717.345 577.414, 719.428 574.754, 724.708 574.115, 726.422 573.849, 727.137 572.793, 729.972 572.564, 730.588 572.081, 732.976 572.297, 734.064 572.664, 735.915 573.530, 740.290 573.649, 740.886 573.627, 740.941 573.565, 741.095 573.294, 741.769 573.166, 742.089 " fill="none" stroke="rgb(0, 0, 0)" stroke-linecap="butt" stroke-linejoin="round" stroke-opacity="1.0" stroke-width="3.0" />
            <path d=" M 752.498, 782.618 752.498, 782.619 752.333, 784.579 752.332, 784.597 752.254, 785.522 752.239, 785.702 752.111, 787.228 751.978, 788.809 751.959, 789.040 751.924, 789.455 751.926, 789.474 752.389, 792.866 752.669, 794.925 752.287, 796.679 752.286, 796.682 751.183, 801.750 751.039, 802.948 750.830, 804.734 750.764, 805.293 750.758, 805.352 749.520, 805.899 747.431, 806.822 " fill="none" stroke="rgb(0, 0, 0)" stroke-linecap="butt" stroke-linejoin="round" stroke-opacity="1.0" stroke-width="3.0" />
            <path d=" M 542.467, 810.022 541.643, 810.980 540.928, 811.810 540.317, 812.520 538.772, 814.315 538.592, 814.524 537.490, 815.804 537.414, 815.892 535.837, 817.724 533.055, 822.887 532.386, 824.130 532.203, 824.468 531.502, 824.880 531.171, 825.074 530.983, 825.184 527.703, 827.111 527.147, 827.438 524.073, 828.706 " fill="none" stroke="rgb(0, 0, 0)" stroke-linecap="butt" stroke-linejoin="round" stroke-opacity="1.0" stroke-width="3.0" />
            <path d=" M 735.261, 580.917 739.118, 580.239 739.538, 580.165 739.546, 580.163 739.888, 580.103 739.999, 580.040 741.432, 579.219 743.508, 577.584 746.473, 575.248 747.173, 571.710 747.465, 565.848 746.581, 561.251 " fill="none" stroke="rgb(0, 0, 0)" stroke-linecap="butt" stroke-linejoin="round" stroke-opacity="1.0" stroke-width="3.0" />
            <path d=" M 692.367, 327.296 692.347, 327.188 692.320, 327.046 692.143, 326.092 691.963, 325.128 691.481, 322.539 691.535, 321.460 691.680, 318.598 689.624, 315.922 683.149, 312.914 681.112, 312.924 678.258, 316.309 676.962, 316.704 " fill="none" stroke="rgb(0, 0, 0)" stroke-linecap="butt" stroke-linejoin="round" stroke-opacity="1.0" stroke-width="3.0" />
            <path d=" M 568.154, 697.661 566.442, 705.686 564.434, 711.951 562.799, 714.260 561.084, 719.434 559.847, 721.297 558.719, 722.995 " fill="none" stroke="rgb(0, 0, 0)" stroke-linecap="butt" stroke-linejoin="round" stroke-opacity="1.0" stroke-width="3.0" />
            <path d=" M 525.872, 863.203 527.727, 862.566 527.741, 862.561 528.162, 862.417 529.110, 862.091 530.283, 861.688 531.188, 861.572 531.331, 861.553 533.382, 861.289 537.572, 861.249 541.255, 861.043 546.552, 861.272 549.366, 861.369 549.406, 861.370 552.917, 862.118 " fill="none" stroke="rgb(0, 0, 0)" stroke-linecap="butt" stroke-linejoin="round" stroke-opacity="1.0" stroke-width="3.0" />
            <path d=" M 607.550, 459.964 610.515, 458.402 611.021, 457.673 611.154, 457.481 611.245, 457.352 611.672, 456.736 612.057, 456.417 612.057, 456.417 612.628, 455.944 613.883, 454.903 616.220, 452.755 616.223, 452.752 616.796, 452.225 616.954, 451.894 617.487, 450.776 617.932, 449.843 619.445, 446.673 619.925, 441.322 621.477, 437.590 " fill="none" stroke="rgb(0, 0, 0)" stroke-linecap="butt" stroke-linejoin="round" stroke-opacity="1.0" stroke-width="3.0" />
            <path d=" M 618.840, 966.399 619.264, 971.234 619.227, 978.647 619.356, 980.780 619.471, 982.674 619.382, 983.190 619.329, 983.496 619.298, 983.678 619.289, 983.725 618.891, 986.033 618.741, 986.900 618.401, 988.873 617.919, 993.874 617.882, 994.261 " fill="none" stroke="rgb(0, 0, 0)" stroke-linecap="butt" stroke-linejoin="round" stroke-opacity="1.0" stroke-width="3.0" />
            <path d=" M 644.680, 324.163 642.559, 326.410 641.451, 327.584 640.684, 328.397 638.398, 330.819 634.607, 334.554 634.703, 335.497 634.786, 336.303 634.855, 336.971 634.804, 337.910 637.565, 340.417 638.224, 340.245 638.470, 340.181 638.781, 340.100 643.967, 338.747 " fill="none" stroke="rgb(0, 0, 0)" stroke-linecap="butt" stroke-linejoin="round" stroke-opacity="1.0" stroke-width="3.0" />
            <path d=" M 836.492, 895.850 837.035, 895.447 838.595, 894.291 841.659, 891.631 847.753, 888.431 852.007, 886.740 855.107, 885.744 857.769, 884.255 861.535, 883.072 " fill="none" stroke="rgb(0, 0, 0)" stroke-linecap="butt" stroke-linejoin="round" stroke-opacity="1.0" stroke-width="3.0" />
            <path d=" M 588.694, 545.626 587.045, 548.905 586.554, 551.260 586.081, 556.067 588.106, 564.072 590.473, 566.282 591.375, 567.123 593.610, 568.129 593.704, 568.171 593.818, 568.222 596.532, 569.444 " fill="none" stroke="rgb(0, 0, 0)" stroke-linecap="butt" stroke-linejoin="round" stroke-opacity="1.0" stroke-width="3.0" />
            <path d=" M 622.565, 553.904 622.867, 546.661 623.397, 536.675 623.631, 532.262 624.044, 527.975 624.376, 524.534 " fill="none" stroke="rgb(0, 0, 0)" stroke-linecap="butt" stroke-linejoin="round" stroke-opacity="1.0" stroke-width="3.0" />
            <path d=" M 652.949, 1074.262 657.075, 1074.394 657.620, 1074.457 658.317, 1074.536 666.041, 1075.420 673.791, 1076.307 682.290, 1076.851 " fill="none" stroke="rgb(0, 0, 0)" stroke-linecap="butt" stroke-linejoin="round" stroke-opacity="1.0" stroke-width="3.0" />
            <path d=" M 668.150, 805.686 666.938, 799.601 666.534, 797.571 666.469, 796.910 666.285, 795.030 665.312, 785.078 665.224, 784.182 664.487, 778.093 664.487, 778.092 664.299, 776.536 664.271, 776.306 " fill="none" stroke="rgb(0, 0, 0)" stroke-linecap="butt" stroke-linejoin="round" stroke-opacity="1.0" stroke-width="3.0" />
            <path d=" M 548.537, 925.631 548.524, 925.752 548.487, 926.096 548.482, 926.136 548.438, 926.547 548.376, 927.118 548.365, 927.226 547.989, 930.702 547.989, 930.815 547.990, 931.534 547.991, 931.603 547.993, 933.498 548.007, 942.824 546.819, 946.835 546.807, 946.877 545.859, 950.079 545.542, 951.149 545.259, 952.106 544.446, 955.086 " fill="none" stroke="rgb(0, 0, 0)" stroke-linecap="butt" stroke-linejoin="round" stroke-opacity="1.0" stroke-width="3.0" />
            <path d=" M 738.804, 549.608 739.512, 549.068 741.282, 547.719 741.322, 547.688 741.791, 547.331 742.563, 546.546 742.764, 546.341 744.737, 544.333 746.074, 542.973 747.308, 539.161 747.309, 539.159 747.526, 538.489 746.255, 530.915 746.096, 530.374 746.035, 530.164 745.697, 529.008 744.232, 525.499 743.534, 524.433 743.014, 523.640 742.974, 523.579 " fill="none" stroke="rgb(0, 0, 0)" stroke-linecap="butt" stroke-linejoin="round" stroke-opacity="1.0" stroke-width="3.0" />
            <path d=" M 505.229, 877.238 507.262, 875.637 510.320, 873.229 511.290, 872.596 513.720, 871.009 522.039, 865.461 522.536, 865.130 527.787, 862.970 528.870, 862.525 531.188, 861.572 " fill="none" stroke="rgb(0, 0, 0)" stroke-linecap="butt" stroke-linejoin="round" stroke-opacity="1.0" stroke-width="3.0" />
            <path d=" M 594.623, 1045.068 600.942, 1049.560 601.628, 1050.047 602.741, 1050.839 603.890, 1051.536 604.471, 1051.889 603.818, 1051.508 596.435, 1047.205 601.371, 1050.383 603.178, 1051.261 604.477, 1051.893 " fill="none" stroke="rgb(0, 0, 0)" stroke-linecap="butt" stroke-linejoin="round" stroke-opacity="1.0" stroke-width="3.0" />
            <path d=" M 597.393, 715.053 596.214, 713.418 596.187, 713.381 595.941, 713.039 595.900, 712.982 595.656, 712.643 594.278, 710.205 593.498, 708.824 593.366, 708.591 593.335, 708.536 593.196, 708.290 592.991, 707.928 592.782, 707.558 592.717, 707.442 592.710, 707.431 592.008, 706.188 591.744, 705.721 590.956, 705.266 590.880, 705.222 588.605, 703.908 586.169, 704.025 585.639, 704.523 585.409, 704.739 583.851, 706.200 580.625, 714.328 579.943, 716.044 " fill="none" stroke="rgb(0, 0, 0)" stroke-linecap="butt" stroke-linejoin="round" stroke-opacity="1.0" stroke-width="3.0" />
            <path d=" M 901.507, 885.961 901.571, 885.881 902.783, 884.364 904.086, 880.343 904.334, 878.284 904.927, 872.030 905.264, 870.225 905.308, 869.989 905.314, 869.958 905.522, 868.840 905.594, 867.199 905.603, 866.988 905.639, 866.155 905.659, 865.690 905.749, 863.617 905.744, 863.470 905.615, 859.913 905.604, 859.751 905.592, 859.582 905.581, 859.419 905.577, 859.368 905.574, 859.322 905.527, 858.642 905.516, 858.490 905.510, 858.400 905.508, 858.367 905.495, 858.184 905.409, 856.941 905.329, 855.800 " fill="none" stroke="rgb(0, 0, 0)" stroke-linecap="butt" stroke-linejoin="round" stroke-opacity="1.0" stroke-width="3.0" />
            <path d=" M 678.917, 318.134 677.206, 316.932 676.962, 316.704 674.144, 314.065 671.929, 313.311 668.070, 312.113 665.257, 313.673 663.892, 317.794 663.875, 317.845 663.759, 318.196 662.939, 320.674 661.333, 320.846 661.006, 320.881 659.122, 321.084 658.582, 321.142 658.456, 321.156 658.295, 321.173 657.526, 322.185 656.305, 323.791 " fill="none" stroke="rgb(0, 0, 0)" stroke-linecap="butt" stroke-linejoin="round" stroke-opacity="1.0" stroke-width="3.0" />
            <path d=" M 827.946, 759.437 827.486, 757.726 825.551, 750.734 824.651, 749.117 824.638, 749.093 820.698, 742.434 820.211, 741.676 819.679, 740.848 817.104, 734.737 816.898, 734.248 816.898, 734.059 816.901, 730.366 " fill="none" stroke="rgb(0, 0, 0)" stroke-linecap="butt" stroke-linejoin="round" stroke-opacity="1.0" stroke-width="3.0" />
            <path d=" M 604.278, 999.827 601.903, 1000.104 595.817, 1000.814 592.404, 1001.403 592.180, 1001.441 589.046, 1001.982 583.659, 1002.911 578.365, 1006.096 574.460, 1008.444 " fill="none" stroke="rgb(0, 0, 0)" stroke-linecap="butt" stroke-linejoin="round" stroke-opacity="1.0" stroke-width="3.0" />
            <path d=" M 725.020, 1073.977 729.469, 1072.842 736.432, 1070.661 745.890, 1067.414 747.129, 1066.988 750.002, 1066.032 750.340, 1065.920 750.371, 1065.910 752.145, 1065.320 755.173, 1064.470 " fill="none" stroke="rgb(0, 0, 0)" stroke-linecap="butt" stroke-linejoin="round" stroke-opacity="1.0" stroke-width="3.0" />
            <path d=" M 590.473, 566.282 590.055, 567.105 587.292, 571.145 585.914, 573.160 585.753, 573.395 585.713, 575.281 585.634, 579.037 587.311, 582.981 586.953, 586.893 587.431, 592.237 589.072, 596.002 " fill="none" stroke="rgb(0, 0, 0)" stroke-linecap="butt" stroke-linejoin="round" stroke-opacity="1.0" stroke-width="3.0" />
            <path d=" M 615.723, 659.012 616.197, 658.408 621.133, 657.145 622.333, 655.579 621.424, 649.310 622.099, 644.934 621.053, 641.908 616.582, 638.500 614.246, 637.226 612.632, 636.345 " fill="none" stroke="rgb(0, 0, 0)" stroke-linecap="butt" stroke-linejoin="round" stroke-opacity="1.0" stroke-width="3.0" />
            <path d=" M 676.722, 413.558 679.642, 418.445 682.261, 423.096 682.886, 424.204 685.358, 430.702 685.393, 430.794 685.410, 430.843 686.552, 434.043 686.664, 434.355 686.784, 434.690 687.364, 436.315 687.505, 436.827 688.362, 439.930 688.431, 440.180 688.567, 440.671 689.271, 443.219 " fill="none" stroke="rgb(0, 0, 0)" stroke-linecap="butt" stroke-linejoin="round" stroke-opacity="1.0" stroke-width="3.0" />
            <path d=" M 602.791, 418.228 601.902, 423.797 602.526, 431.533 601.819, 437.910 600.730, 444.770 600.637, 445.360 600.635, 445.367 600.379, 446.981 599.780, 450.758 " fill="none" stroke="rgb(0, 0, 0)" stroke-linecap="butt" stroke-linejoin="round" stroke-opacity="1.0" stroke-width="3.0" />
            <path d=" M 701.132, 383.701 701.704, 383.763 702.625, 383.863 703.087, 383.913 703.185, 383.924 703.192, 383.924 703.472, 383.955 703.503, 383.958 703.747, 383.984 703.854, 383.996 705.494, 384.174 707.647, 384.407 708.812, 384.822 712.286, 386.060 716.390, 387.168 724.774, 392.367 730.192, 397.246 " fill="none" stroke="rgb(0, 0, 0)" stroke-linecap="butt" stroke-linejoin="round" stroke-opacity="1.0" stroke-width="3.0" />
            <path d=" M 600.730, 444.770 599.458, 448.777 597.446, 455.892 597.265, 460.996 599.400, 454.052 601.933, 445.091 " fill="none" stroke="rgb(0, 0, 0)" stroke-linecap="butt" stroke-linejoin="round" stroke-opacity="1.0" stroke-width="3.0" />
            <path d=" M 735.704, 642.164 735.770, 642.141 735.900, 642.095 737.078, 641.680 737.087, 641.677 737.307, 641.599 737.592, 641.499 737.768, 641.311 739.163, 639.829 739.240, 639.747 739.593, 639.372 741.159, 637.708 742.492, 635.645 743.393, 631.898 743.931, 626.578 743.819, 623.375 742.451, 619.010 738.809, 613.456 " fill="none" stroke="rgb(0, 0, 0)" stroke-linecap="butt" stroke-linejoin="round" stroke-opacity="1.0" stroke-width="3.0" />
            <path d=" M 551.630, 794.221 549.771, 795.231 547.908, 795.789 543.925, 797.668 543.414, 797.909 539.104, 800.053 537.346, 801.900 536.070, 803.557 533.816, 808.329 530.980, 816.530 530.695, 817.355 " fill="none" stroke="rgb(0, 0, 0)" stroke-linecap="butt" stroke-linejoin="round" stroke-opacity="1.0" stroke-width="3.0" />
            <path d=" M 745.416, 733.175 746.201, 733.819 750.318, 736.616 750.337, 736.629 750.341, 736.632 750.421, 736.686 753.080, 738.493 753.176, 738.603 753.461, 738.928 754.199, 739.770 754.221, 739.795 754.231, 739.807 755.420, 741.163 755.461, 741.210 758.977, 745.221 759.375, 745.676 760.594, 747.066 760.702, 747.190 760.907, 747.423 761.123, 747.670 761.253, 747.819 761.270, 747.838 761.425, 748.014 761.913, 748.571 762.288, 749.000 762.293, 749.005 762.559, 749.308 762.773, 749.553 763.081, 750.220 766.242, 757.073 766.433, 757.486 766.600, 758.199 " fill="none" stroke="rgb(0, 0, 0)" stroke-linecap="butt" stroke-linejoin="round" stroke-opacity="1.0" stroke-width="3.0" />
            <path d=" M 723.070, 724.314 724.073, 724.376 724.673, 724.413 724.860, 724.425 725.453, 724.462 730.033, 724.746 731.057, 725.217 733.635, 726.401 737.735, 728.285 741.130, 730.740 744.548, 732.682 745.391, 733.160 745.416, 733.175 745.874, 733.435 750.727, 736.192 750.733, 736.195 750.734, 736.196 750.758, 736.209 753.197, 737.594 " fill="none" stroke="rgb(0, 0, 0)" stroke-linecap="butt" stroke-linejoin="round" stroke-opacity="1.0" stroke-width="3.0" />
            <path d=" M 608.289, 554.888 610.158, 555.936 612.021, 556.980 612.852, 557.064 614.657, 557.248 615.949, 557.023 616.344, 556.955 618.202, 554.792 618.457, 554.495 618.956, 551.843 618.900, 551.531 617.693, 544.817 616.654, 535.377 615.784, 533.309 615.767, 533.270 615.655, 533.003 " fill="none" stroke="rgb(0, 0, 0)" stroke-linecap="butt" stroke-linejoin="round" stroke-opacity="1.0" stroke-width="3.0" />
            <path d=" M 623.198, 431.395 626.549, 428.684 627.108, 427.689 626.993, 427.797 626.746, 428.032 623.198, 431.395 621.524, 432.982 620.325, 433.248 619.651, 433.398 617.462, 430.806 617.262, 429.817 616.592, 426.520 617.506, 423.926 616.940, 421.145 618.806, 415.988 " fill="none" stroke="rgb(0, 0, 0)" stroke-linecap="butt" stroke-linejoin="round" stroke-opacity="1.0" stroke-width="3.0" />
            <path d=" M 607.585, 434.185 604.031, 438.924 603.968, 439.009 603.926, 439.192 603.837, 439.581 603.401, 441.481 602.721, 444.447 602.342, 446.204 602.359, 446.487 602.723, 452.648 602.795, 453.041 602.815, 453.146 603.118, 454.796 603.292, 455.745 604.141, 456.846 605.806, 459.009 606.922, 460.458 607.550, 459.964 609.771, 458.215 609.892, 458.120 610.406, 457.715 610.553, 457.599 611.161, 457.120 " fill="none" stroke="rgb(0, 0, 0)" stroke-linecap="butt" stroke-linejoin="round" stroke-opacity="1.0" stroke-width="3.0" />
            <path d=" M 746.096, 530.374 746.089, 529.917 746.077, 529.188 744.550, 519.305 743.752, 514.139 743.510, 512.793 741.848, 503.750 740.605, 496.400 740.490, 495.818 " fill="none" stroke="rgb(0, 0, 0)" stroke-linecap="butt" stroke-linejoin="round" stroke-opacity="1.0" stroke-width="3.0" />
            <path d=" M 700.448, 347.372 702.420, 346.264 703.020, 345.794 703.080, 345.747 703.123, 345.713 703.142, 345.698 703.385, 345.509 703.421, 345.480 703.433, 345.471 703.659, 345.294 704.278, 343.943 705.915, 340.374 706.044, 338.654 705.619, 333.943 702.384, 326.778 700.222, 324.715 697.867, 324.537 693.813, 326.463 692.143, 326.092 " fill="none" stroke="rgb(0, 0, 0)" stroke-linecap="butt" stroke-linejoin="round" stroke-opacity="1.0" stroke-width="3.0" />
            <path d=" M 908.312, 901.086 909.075, 900.926 910.601, 899.814 912.128, 895.523 912.000, 889.439 910.414, 879.565 910.113, 877.688 907.999, 869.228 907.505, 867.809 " fill="none" stroke="rgb(0, 0, 0)" stroke-linecap="butt" stroke-linejoin="round" stroke-opacity="1.0" stroke-width="3.0" />
            <path d=" M 560.062, 753.007 559.594, 753.917 559.742, 757.112 560.645, 760.501 560.810, 761.122 560.912, 761.505 561.626, 764.184 561.871, 765.106 561.733, 766.328 561.241, 770.678 561.004, 772.769 560.658, 773.607 560.171, 774.785 559.065, 777.462 557.873, 779.488 555.954, 782.748 554.507, 787.452 " fill="none" stroke="rgb(0, 0, 0)" stroke-linecap="butt" stroke-linejoin="round" stroke-opacity="1.0" stroke-width="3.0" />
            <path d=" M 577.490, 573.605 577.313, 575.262 576.114, 585.190 575.729, 588.381 575.222, 596.809 574.904, 606.804 574.764, 611.195 " fill="none" stroke="rgb(0, 0, 0)" stroke-linecap="butt" stroke-linejoin="round" stroke-opacity="1.0" stroke-width="3.0" />
            <path d=" M 616.800, 597.324 617.991, 595.830 620.054, 593.243 619.378, 589.825 620.456, 587.802 619.405, 584.180 619.133, 579.631 620.754, 570.255 621.249, 561.362 " fill="none" stroke="rgb(0, 0, 0)" stroke-linecap="butt" stroke-linejoin="round" stroke-opacity="1.0" stroke-width="3.0" />
            <path d=" M 550.414, 757.299 545.456, 765.983 544.595, 767.490 539.136, 775.868 538.219, 777.275 531.884, 785.012 529.448, 787.987 528.957, 788.588 " fill="none" stroke="rgb(0, 0, 0)" stroke-linecap="butt" stroke-linejoin="round" stroke-opacity="1.0" stroke-width="3.0" />
            <path d=" M 692.470, 824.553 688.723, 820.178 687.916, 819.235 687.786, 819.084 681.281, 811.488 680.957, 811.110 673.485, 804.464 671.783, 802.950 670.296, 801.627 666.469, 796.910 " fill="none" stroke="rgb(0, 0, 0)" stroke-linecap="butt" stroke-linejoin="round" stroke-opacity="1.0" stroke-width="3.0" />
            <path d=" M 769.804, 827.996 770.433, 826.772 770.536, 826.570 773.797, 820.219 775.152, 816.664 775.307, 816.257 775.343, 816.164 775.423, 815.954 775.742, 815.117 775.763, 815.061 775.823, 814.904 776.765, 812.432 776.771, 812.402 776.813, 812.173 777.925, 806.081 778.012, 805.604 778.560, 802.607 779.374, 792.640 779.494, 791.171 " fill="none" stroke="rgb(0, 0, 0)" stroke-linecap="butt" stroke-linejoin="round" stroke-opacity="1.0" stroke-width="3.0" />
            <path d=" M 788.697, 775.061 788.374, 772.545 788.135, 770.679 788.041, 769.948 788.024, 769.816 787.995, 769.595 787.972, 769.411 787.937, 769.138 787.878, 768.685 787.839, 768.377 787.528, 765.958 787.134, 762.893 787.078, 762.455 786.811, 761.200 786.110, 757.898 785.915, 756.981 785.025, 752.794 784.536, 750.496 784.326, 749.508 783.965, 747.604 783.853, 747.013 783.812, 746.795 783.709, 746.255 783.334, 744.275 783.296, 744.073 783.220, 743.677 783.171, 743.416 782.635, 740.592 782.364, 739.162 782.208, 738.339 781.946, 736.955 " fill="none" stroke="rgb(0, 0, 0)" stroke-linecap="butt" stroke-linejoin="round" stroke-opacity="1.0" stroke-width="3.0" />
            <path d=" M 694.758, 419.738 698.080, 423.533 698.105, 423.561 699.888, 425.598 704.755, 428.775 705.868, 429.501 706.293, 429.335 707.720, 429.947 709.737, 428.665 710.768, 425.899 710.994, 425.171 710.164, 419.857 709.956, 418.521 708.515, 415.531 707.156, 413.546 706.886, 413.151 705.127, 410.581 " fill="none" stroke="rgb(0, 0, 0)" stroke-linecap="butt" stroke-linejoin="round" stroke-opacity="1.0" stroke-width="3.0" />
            <path d=" M 605.892, 696.389 604.244, 698.903 601.654, 704.400 599.414, 708.030 599.087, 708.560 597.393, 715.053 597.068, 716.297 596.948, 716.755 596.946, 717.303 598.486, 723.031 600.499, 727.069 601.105, 728.285 601.663, 733.091 " fill="none" stroke="rgb(0, 0, 0)" stroke-linecap="butt" stroke-linejoin="round" stroke-opacity="1.0" stroke-width="3.0" />
            <path d=" M 629.898, 484.905 632.060, 475.142 632.658, 472.444 632.977, 469.748 634.165, 459.732 635.135, 454.774 636.402, 446.647 636.921, 444.393 " fill="none" stroke="rgb(0, 0, 0)" stroke-linecap="butt" stroke-linejoin="round" stroke-opacity="1.0" stroke-width="3.0" />
            <path d=" M 609.131, 714.378 608.865, 714.477 606.352, 715.848 606.238, 716.047 605.938, 716.571 605.348, 717.600 605.645, 724.607 605.666, 724.707 605.869, 725.658 607.119, 731.516 607.422, 733.366 607.770, 735.494 607.874, 736.125 607.881, 736.172 608.112, 737.581 608.126, 737.665 608.140, 737.748 608.167, 737.917 609.004, 743.020 609.158, 743.963 609.296, 745.453 609.415, 746.738 609.469, 747.322 609.744, 750.298 609.745, 750.303 609.745, 750.304 609.783, 750.715 610.013, 753.207 610.043, 753.527 " fill="none" stroke="rgb(0, 0, 0)" stroke-linecap="butt" stroke-linejoin="round" stroke-opacity="1.0" stroke-width="3.0" />
            <path d=" M 496.024, 855.926 492.221, 862.406 489.860, 869.299 488.018, 874.887 486.479, 882.462 486.104, 885.118 486.028, 885.655 485.920, 886.420 485.713, 887.719 485.703, 887.785 485.689, 887.873 485.631, 888.235 485.630, 888.243 485.605, 888.401 485.572, 888.605 485.139, 891.330 484.964, 892.429 484.904, 892.809 484.747, 893.795 484.487, 895.425 " fill="none" stroke="rgb(0, 0, 0)" stroke-linecap="butt" stroke-linejoin="round" stroke-opacity="1.0" stroke-width="3.0" />
            <path d=" M 706.833, 1080.197 708.308, 1079.635 708.568, 1079.536 708.834, 1079.422 710.243, 1078.819 712.773, 1078.822 715.896, 1078.474 714.140, 1079.470 710.960, 1080.224 708.728, 1079.802 706.004, 1080.605 701.564, 1079.209 697.839, 1078.038 692.982, 1077.722 692.774, 1077.708 691.473, 1077.624 684.596, 1077.176 " fill="none" stroke="rgb(0, 0, 0)" stroke-linecap="butt" stroke-linejoin="round" stroke-opacity="1.0" stroke-width="3.0" />
            <path d=" M 704.914, 579.726 704.281, 580.326 703.483, 584.139 702.711, 588.287 703.155, 589.547 703.182, 589.623 703.184, 589.628 703.278, 589.895 703.284, 589.912 703.854, 591.528 704.060, 593.404 705.174, 599.389 706.448, 604.000 708.356, 609.503 708.381, 609.576 708.512, 609.954 708.827, 610.863 710.135, 612.651 710.982, 613.808 711.102, 613.973 711.130, 614.011 711.171, 614.067 714.453, 618.554 " fill="none" stroke="rgb(0, 0, 0)" stroke-linecap="butt" stroke-linejoin="round" stroke-opacity="1.0" stroke-width="3.0" />
            <path d=" M 529.448, 787.987 524.997, 792.495 521.718, 796.517 518.319, 800.662 516.629, 803.416 515.725, 807.155 516.546, 809.841 520.112, 817.172 526.009, 820.607 527.090, 821.402 " fill="none" stroke="rgb(0, 0, 0)" stroke-linecap="butt" stroke-linejoin="round" stroke-opacity="1.0" stroke-width="3.0" />
            <path d=" M 626.764, 511.883 628.023, 508.159 631.262, 498.698 631.838, 497.017 633.226, 490.297 633.915, 486.662 634.136, 479.755 632.983, 470.285 632.977, 469.748 " fill="none" stroke="rgb(0, 0, 0)" stroke-linecap="butt" stroke-linejoin="round" stroke-opacity="1.0" stroke-width="3.0" />
            <path d=" M 471.652, 901.058 471.121, 902.121 469.913, 904.397 468.164, 910.371 468.485, 920.366 468.493, 920.616 468.578, 925.208 469.065, 928.642 470.109, 932.943 472.052, 938.294 474.931, 942.665 " fill="none" stroke="rgb(0, 0, 0)" stroke-linecap="butt" stroke-linejoin="round" stroke-opacity="1.0" stroke-width="3.0" />
            <path d=" M 853.971, 826.570 857.496, 830.817 859.980, 834.060 864.700, 841.555 866.746, 845.501 867.111, 846.205 867.148, 846.276 867.283, 846.536 868.603, 849.707 868.774, 850.118 869.960, 852.968 872.229, 857.342 876.066, 864.612 " fill="none" stroke="rgb(0, 0, 0)" stroke-linecap="butt" stroke-linejoin="round" stroke-opacity="1.0" stroke-width="3.0" />
            <path d=" M 767.889, 780.200 766.511, 782.298 766.341, 782.557 766.315, 782.596 765.711, 783.515 763.955, 785.446 763.804, 785.612 763.788, 785.630 763.395, 786.061 762.859, 786.651 762.746, 786.775 762.384, 787.173 761.964, 787.634 761.875, 787.779 760.756, 789.601 759.790, 791.173 759.515, 791.619 759.470, 791.693 759.384, 791.833 759.334, 791.913 758.613, 793.087 758.271, 793.644 755.472, 798.199 755.265, 798.699 753.698, 802.483 753.664, 802.565 753.420, 803.155 753.376, 803.260 753.048, 804.053 752.931, 804.337 752.799, 804.655 751.286, 808.309 747.008, 817.347 746.421, 818.589 746.327, 818.786 " fill="none" stroke="rgb(0, 0, 0)" stroke-linecap="butt" stroke-linejoin="round" stroke-opacity="1.0" stroke-width="3.0" />
            <path d=" M 778.596, 993.433 785.699, 991.748 786.042, 991.667 788.968, 990.973 790.556, 991.769 790.639, 991.810 798.549, 995.776 805.398, 1000.819 805.955, 1001.268 806.124, 1001.405 806.230, 1001.490 809.794, 1004.365 810.713, 1005.106 810.830, 1005.201 815.649, 1007.739 816.255, 1008.058 816.747, 1008.317 819.144, 1008.867 " fill="none" stroke="rgb(0, 0, 0)" stroke-linecap="butt" stroke-linejoin="round" stroke-opacity="1.0" stroke-width="3.0" />
            <path d=" M 720.849, 478.654 723.817, 484.268 724.958, 485.882 727.721, 486.369 729.717, 486.613 731.371, 484.640 732.849, 482.878 733.086, 480.235 733.340, 477.402 733.703, 475.272 733.725, 475.144 734.550, 470.306 734.773, 466.885 734.569, 465.404 734.338, 463.731 734.123, 463.245 733.607, 462.080 730.908, 457.429 729.612, 455.386 " fill="none" stroke="rgb(0, 0, 0)" stroke-linecap="butt" stroke-linejoin="round" stroke-opacity="1.0" stroke-width="3.0" />
            <path d=" M 599.108, 422.914 598.344, 426.878 595.583, 433.773 595.251, 435.419 593.084, 443.129 591.731, 449.847 591.572, 451.022 590.786, 457.118 590.254, 462.106 590.252, 462.127 590.052, 470.075 " fill="none" stroke="rgb(0, 0, 0)" stroke-linecap="butt" stroke-linejoin="round" stroke-opacity="1.0" stroke-width="3.0" />
            <path d=" M 581.919, 528.936 580.290, 538.867 579.625, 544.391 578.628, 554.341 578.467, 555.950 577.852, 565.931 577.815, 566.542 577.490, 573.605 577.301, 577.710 " fill="none" stroke="rgb(0, 0, 0)" stroke-linecap="butt" stroke-linejoin="round" stroke-opacity="1.0" stroke-width="3.0" />
            <path d=" M 631.214, 337.197 631.101, 336.903 630.080, 334.255 629.839, 333.628 629.827, 333.599 628.967, 331.366 628.505, 331.083 627.229, 330.517 626.537, 330.210 623.675, 331.585 622.545, 332.264 620.702, 334.311 616.768, 342.832 617.034, 345.624 617.196, 347.337 617.207, 347.449 617.283, 348.248 617.634, 349.754 621.585, 354.082 622.263, 353.811 622.339, 353.780 622.692, 353.639 628.004, 351.513 631.525, 349.843 " fill="none" stroke="rgb(0, 0, 0)" stroke-linecap="butt" stroke-linejoin="round" stroke-opacity="1.0" stroke-width="3.0" />
            <path d=" M 611.285, 355.480 610.956, 355.691 610.530, 355.965 609.530, 356.607 607.252, 358.831 603.873, 364.619 600.372, 373.368 598.760, 378.109 598.084, 382.972 599.301, 390.335 601.231, 395.478 602.730, 396.891 606.303, 397.908 " fill="none" stroke="rgb(0, 0, 0)" stroke-linecap="butt" stroke-linejoin="round" stroke-opacity="1.0" stroke-width="3.0" />
            <path d=" M 512.574, 951.668 514.547, 951.925 519.903, 950.397 521.431, 947.296 520.841, 944.954 520.635, 942.572 517.952, 936.737 515.552, 929.631 513.648, 924.575 512.941, 920.296 512.656, 918.573 512.430, 911.354 512.328, 908.130 " fill="none" stroke="rgb(0, 0, 0)" stroke-linecap="butt" stroke-linejoin="round" stroke-opacity="1.0" stroke-width="3.0" />
            <path d=" M 716.513, 453.256 717.695, 454.507 723.013, 460.132 724.182, 459.727 726.191, 458.477 726.211, 458.464 726.460, 458.307 726.700, 458.156 728.090, 457.281 728.475, 457.038 728.478, 457.036 728.486, 457.031 729.223, 456.567 729.612, 455.386 730.291, 453.320 729.652, 449.365 729.573, 448.870 728.491, 442.168 727.952, 439.498 727.499, 438.327 724.318, 432.889 723.079, 431.651 722.376, 430.948 722.249, 430.821 722.037, 430.609 718.576, 427.149 718.274, 426.847 718.163, 426.735 717.664, 426.237 717.145, 425.718 " fill="none" stroke="rgb(0, 0, 0)" stroke-linecap="butt" stroke-linejoin="round" stroke-opacity="1.0" stroke-width="3.0" />
            <path d=" M 756.544, 676.217 756.022, 671.295 756.013, 671.208 755.914, 670.276 755.412, 665.542 754.116, 659.322 753.552, 656.613 752.932, 655.479 750.099, 650.296 747.459, 645.467 745.337, 644.311 741.680, 642.920 739.341, 642.624 739.268, 642.615 739.204, 642.607 737.920, 642.444 737.882, 642.440 737.836, 642.434 737.529, 642.395 737.309, 642.367 737.296, 642.366 735.931, 642.193 735.779, 642.174 735.704, 642.164 735.689, 642.162 734.190, 641.985 733.518, 642.366 732.838, 642.751 731.714, 643.388 729.611, 644.580 729.219, 644.802 " fill="none" stroke="rgb(0, 0, 0)" stroke-linecap="butt" stroke-linejoin="round" stroke-opacity="1.0" stroke-width="3.0" />
            <path d=" M 545.542, 951.149 542.727, 955.718 542.380, 959.082 546.805, 965.516 550.149, 972.533 550.345, 972.943 550.996, 977.035 551.716, 981.561 552.193, 983.718 553.785, 990.917 557.519, 999.757 " fill="none" stroke="rgb(0, 0, 0)" stroke-linecap="butt" stroke-linejoin="round" stroke-opacity="1.0" stroke-width="3.0" />
            <path d=" M 731.714, 643.388 729.685, 644.014 724.204, 641.342 719.960, 639.225 719.671, 639.081 709.849, 640.957 709.473, 641.029 707.317, 641.621 706.392, 648.026 706.097, 649.803 707.179, 653.075 709.368, 657.749 709.326, 661.343 707.346, 663.249 703.744, 661.913 " fill="none" stroke="rgb(0, 0, 0)" stroke-linecap="butt" stroke-linejoin="round" stroke-opacity="1.0" stroke-width="3.0" />
            <path d=" M 609.469, 747.322 609.402, 750.031 609.396, 750.258 609.357, 751.871 609.349, 752.162 609.341, 752.460 609.220, 756.912 609.159, 759.169 609.101, 761.298 609.294, 765.080 609.345, 766.076 609.542, 769.951 609.700, 773.806 609.701, 773.832 609.872, 778.019 610.071, 782.892 610.471, 789.644 610.586, 791.601 611.027, 794.357 611.286, 795.974 611.293, 796.022 611.584, 797.839 611.636, 798.166 612.074, 800.904 " fill="none" stroke="rgb(0, 0, 0)" stroke-linecap="butt" stroke-linejoin="round" stroke-opacity="1.0" stroke-width="3.0" />
            <path d=" M 512.430, 911.354 513.226, 902.526 514.635, 896.948 515.297, 894.528 516.690, 889.440 518.131, 886.255 518.842, 884.685 521.816, 877.877 526.493, 870.692 529.206, 865.610 531.288, 861.630 531.331, 861.553 " fill="none" stroke="rgb(0, 0, 0)" stroke-linecap="butt" stroke-linejoin="round" stroke-opacity="1.0" stroke-width="3.0" />
            <path d=" M 592.897, 599.757 593.030, 599.811 593.142, 599.858 593.256, 599.905 595.093, 600.663 595.527, 600.841 597.006, 601.451 600.346, 601.338 602.738, 601.257 602.998, 601.248 605.223, 600.963 606.341, 600.819 606.885, 600.749 608.036, 600.511 608.336, 600.448 608.864, 600.315 609.405, 600.179 609.492, 600.157 609.733, 600.096 609.742, 600.094 611.046, 599.766 611.361, 599.687 611.402, 599.676 612.020, 599.313 614.097, 598.092 614.155, 598.020 615.781, 595.958 617.049, 591.834 617.097, 586.315 617.105, 585.297 616.981, 583.376 616.446, 575.139 616.144, 574.647 616.022, 574.448 615.579, 573.726 614.833, 572.512 614.831, 572.508 614.736, 572.354 612.644, 568.945 612.044, 567.968 611.964, 567.787 " fill="none" stroke="rgb(0, 0, 0)" stroke-linecap="butt" stroke-linejoin="round" stroke-opacity="1.0" stroke-width="3.0" />
            <path d=" M 590.146, 508.698 588.348, 515.387 588.243, 515.779 587.245, 519.491 585.087, 527.009 584.424, 532.730 582.653, 542.043 583.528, 548.751 582.946, 551.368 583.204, 554.431 582.912, 558.837 584.047, 561.173 585.053, 563.231 585.179, 563.490 585.310, 563.757 " fill="none" stroke="rgb(0, 0, 0)" stroke-linecap="butt" stroke-linejoin="round" stroke-opacity="1.0" stroke-width="3.0" />
            <path d=" M 834.543, 975.527 834.768, 974.899 836.170, 964.998 836.518, 962.536 836.659, 955.753 836.675, 955.013 836.695, 954.023 836.715, 953.096 836.655, 943.096 836.650, 942.271 836.649, 942.009 836.497, 939.194 836.205, 933.784 836.629, 931.194 836.633, 931.168 836.762, 930.384 837.085, 928.412 837.699, 924.662 837.714, 924.574 837.682, 924.508 834.629, 918.126 " fill="none" stroke="rgb(0, 0, 0)" stroke-linecap="butt" stroke-linejoin="round" stroke-opacity="1.0" stroke-width="3.0" />
            <path d=" M 601.351, 460.037 597.066, 467.797 594.887, 475.845 594.823, 479.686 597.344, 487.041 599.721, 492.563 600.994, 494.687 602.473, 494.729 607.330, 492.105 607.931, 491.980 609.223, 488.367 610.677, 484.300 611.339, 483.093 612.368, 481.217 612.634, 480.733 614.164, 477.943 " fill="none" stroke="rgb(0, 0, 0)" stroke-linecap="butt" stroke-linejoin="round" stroke-opacity="1.0" stroke-width="3.0" />
            <path d=" M 780.821, 744.266 780.775, 741.969 780.765, 741.452 780.759, 741.148 780.693, 737.859 780.367, 735.947 779.551, 731.172 779.494, 730.839 779.442, 730.534 779.414, 730.371 779.380, 730.173 779.367, 730.096 779.311, 729.770 778.956, 727.686 778.908, 727.411 778.875, 727.217 778.809, 726.829 778.780, 726.658 778.731, 726.495 778.641, 726.196 778.600, 726.061 775.713, 716.487 775.298, 715.110 775.273, 715.026 775.240, 714.916 775.176, 714.693 775.161, 714.640 775.132, 714.539 775.085, 714.376 774.396, 711.970 773.727, 709.635 773.632, 709.304 773.313, 708.190 772.852, 706.579 772.773, 706.306 772.282, 704.589 772.177, 704.224 772.175, 704.217 772.124, 704.039 772.058, 703.809 771.799, 702.903 771.797, 702.898 771.799, 702.834 771.811, 702.306 771.812, 702.260 771.842, 701.033 771.871, 699.813 771.886, 699.155 771.897, 698.712 771.905, 698.349 771.917, 697.849 771.962, 695.962 772.066, 691.571 770.234, 685.144 " fill="none" stroke="rgb(0, 0, 0)" stroke-linecap="butt" stroke-linejoin="round" stroke-opacity="1.0" stroke-width="3.0" />
            <path d=" M 630.895, 458.106 631.406, 457.153 631.557, 456.871 633.958, 452.395 636.201, 446.020 636.593, 444.904 636.600, 444.885 637.807, 441.676 641.329, 432.317 641.870, 430.878 646.189, 421.859 648.709, 416.595 652.701, 410.503 658.151, 403.743 " fill="none" stroke="rgb(0, 0, 0)" stroke-linecap="butt" stroke-linejoin="round" stroke-opacity="1.0" stroke-width="3.0" />
            <path d=" M 624.044, 527.975 625.694, 518.368 626.764, 511.883 627.373, 508.187 627.748, 505.916 628.871, 499.112 629.154, 495.497 629.794, 488.999 629.898, 484.905 629.903, 484.678 629.925, 483.808 631.341, 473.909 632.359, 466.799 " fill="none" stroke="rgb(0, 0, 0)" stroke-linecap="butt" stroke-linejoin="round" stroke-opacity="1.0" stroke-width="3.0" />
            <path d=" M 875.974, 864.283 876.066, 864.612 877.597, 870.089 878.193, 874.764 878.743, 880.029 878.707, 881.581 878.635, 884.680 877.483, 891.590 875.920, 898.618 874.510, 904.836 875.083, 910.365 877.975, 910.930 881.030, 912.387 884.075, 912.635 887.546, 910.575 889.160, 908.686 " fill="none" stroke="rgb(0, 0, 0)" stroke-linecap="butt" stroke-linejoin="round" stroke-opacity="1.0" stroke-width="3.0" />
            <path d=" M 770.255, 684.457 770.354, 684.144 770.792, 682.753 770.807, 682.705 771.601, 680.183 771.640, 680.061 771.703, 679.862 771.854, 679.380 772.593, 677.034 773.071, 675.518 773.069, 675.448 773.055, 675.054 773.055, 675.052 772.831, 668.532 772.829, 668.482 772.690, 664.430 771.498, 659.445 770.574, 655.575 768.527, 649.606 767.606, 646.919 767.020, 645.211 764.197, 642.693 761.206, 643.598 761.162, 643.612 760.840, 644.011 760.794, 644.068 760.260, 644.731 758.428, 647.487 757.186, 649.355 754.242, 658.912 754.116, 659.322 " fill="none" stroke="rgb(0, 0, 0)" stroke-linecap="butt" stroke-linejoin="round" stroke-opacity="1.0" stroke-width="3.0" />
            <path d=" M 690.816, 454.164 692.058, 462.931 693.444, 472.227 694.856, 479.196 695.543, 487.839 697.452, 497.655 698.358, 502.309 699.757, 511.249 700.441, 514.068 702.072, 520.781 " fill="none" stroke="rgb(0, 0, 0)" stroke-linecap="butt" stroke-linejoin="round" stroke-opacity="1.0" stroke-width="3.0" />
            <path d=" M 718.193, 596.010 718.336, 596.294 719.835, 603.502 722.160, 608.695 722.293, 608.992 725.128, 610.879 726.238, 611.619 726.312, 611.668 726.973, 612.108 727.970, 612.772 728.344, 612.913 728.882, 613.116 728.901, 613.123 730.564, 613.749 731.283, 613.422 731.638, 613.261 732.961, 612.659 732.970, 612.655 733.746, 612.302 733.825, 612.266 733.865, 612.248 734.207, 612.092 734.304, 612.048 734.557, 611.933 735.546, 611.484 739.196, 609.996 741.700, 608.613 743.963, 604.789 744.994, 603.048 745.949, 598.218 745.685, 592.870 746.460, 586.487 745.653, 582.027 744.517, 578.467 743.508, 577.584 " fill="none" stroke="rgb(0, 0, 0)" stroke-linecap="butt" stroke-linejoin="round" stroke-opacity="1.0" stroke-width="3.0" />
            <path d=" M 664.336, 779.894 664.301, 777.979 664.301, 777.964 664.274, 776.501 664.271, 776.306 664.244, 774.841 664.173, 770.972 664.159, 770.199 664.157, 770.097 664.153, 769.885 664.144, 768.901 664.063, 760.624 664.833, 758.375 665.669, 755.933 666.203, 754.373 667.222, 751.396 670.599, 747.591 678.568, 741.550 682.847, 738.307 682.855, 738.301 682.894, 738.271 683.054, 738.150 684.116, 737.345 684.293, 737.176 688.566, 733.098 691.280, 730.507 695.694, 728.908 696.360, 728.667 699.899, 727.385 700.004, 727.347 701.135, 726.938 " fill="none" stroke="rgb(0, 0, 0)" stroke-linecap="butt" stroke-linejoin="round" stroke-opacity="1.0" stroke-width="3.0" />
            <path d=" M 575.385, 605.599 574.764, 611.195 574.662, 612.115 573.824, 622.080 573.491, 626.034 572.725, 632.509 573.249, 641.528 573.422, 649.833 573.271, 658.518 573.128, 665.651 573.162, 671.477 573.200, 677.995 572.816, 680.694 572.447, 683.285 " fill="none" stroke="rgb(0, 0, 0)" stroke-linecap="butt" stroke-linejoin="round" stroke-opacity="1.0" stroke-width="3.0" />
            <path d=" M 639.968, 709.596 639.197, 708.039 637.831, 705.283 636.484, 702.566 635.049, 699.670 629.287, 691.617 625.616, 683.226 622.758, 677.252 618.435, 668.235 616.976, 665.191 615.914, 659.447 615.723, 659.012 615.283, 658.009 615.168, 657.746 615.154, 657.714 613.452, 653.837 613.395, 653.707 612.647, 652.003 611.177, 648.156 611.080, 647.902 610.191, 645.576 609.804, 644.552 609.795, 644.529 609.637, 644.110 608.638, 641.471 605.895, 635.669 605.356, 634.528 " fill="none" stroke="rgb(0, 0, 0)" stroke-linecap="butt" stroke-linejoin="round" stroke-opacity="1.0" stroke-width="3.0" />
            <path d=" M 564.584, 1013.804 564.558, 1013.975 564.550, 1014.027 564.457, 1014.636 564.045, 1017.336 564.905, 1020.575 566.236, 1022.161 569.551, 1025.528 571.549, 1027.398 574.462, 1030.019 577.481, 1032.790 581.522, 1034.922 581.976, 1035.161 582.807, 1035.600 582.943, 1035.671 583.232, 1035.824 583.957, 1036.207 584.079, 1036.263 584.644, 1036.525 588.644, 1038.382 591.664, 1038.740 591.795, 1038.756 593.889, 1039.004 596.216, 1038.866 600.034, 1038.638 604.646, 1037.005 604.784, 1036.956 605.168, 1036.820 605.559, 1036.581 605.875, 1036.389 608.112, 1035.024 608.232, 1034.951 608.631, 1034.707 608.677, 1034.680 609.265, 1034.321 610.116, 1033.778 615.070, 1030.617 619.480, 1026.278 623.121, 1022.288 626.931, 1016.993 " fill="none" stroke="rgb(0, 0, 0)" stroke-linecap="butt" stroke-linejoin="round" stroke-opacity="1.0" stroke-width="3.0" />
            <path d=" M 903.990, 858.897 904.277, 858.235 904.278, 858.232 904.281, 858.225 904.306, 858.166 904.311, 858.156 904.313, 858.150 904.314, 858.148 904.331, 858.109 904.366, 858.027 904.422, 857.898 904.427, 857.887 904.686, 857.287 904.750, 857.139 904.793, 857.040 905.059, 856.424 905.329, 855.800 905.738, 854.855 904.936, 850.822 901.717, 841.354 901.612, 841.046 899.699, 836.049 895.756, 827.792 890.835, 819.086 887.482, 813.154 881.781, 804.938 880.021, 802.402 874.945, 797.584 872.096, 795.362 866.670, 791.642 862.726, 790.208 " fill="none" stroke="rgb(0, 0, 0)" stroke-linecap="butt" stroke-linejoin="round" stroke-opacity="1.0" stroke-width="3.0" />
            <path d=" M 703.373, 653.517 703.360, 653.318 702.761, 643.852 698.868, 640.918 689.426, 642.039 683.825, 643.497 679.965, 644.677 670.496, 645.241 667.164, 646.084 662.883, 650.194 661.579, 651.440 658.556, 660.972 658.518, 661.091 660.188, 670.950 661.216, 677.019 661.223, 677.992 661.244, 680.926 661.245, 681.094 661.246, 681.215 661.248, 681.553 661.268, 684.254 " fill="none" stroke="rgb(0, 0, 0)" stroke-linecap="butt" stroke-linejoin="round" stroke-opacity="1.0" stroke-width="3.0" />
            <path d=" M 805.966, 781.177 805.962, 781.041 805.926, 779.776 805.881, 778.215 805.834, 776.597 805.796, 775.274 805.776, 774.583 805.517, 765.632 805.483, 764.443 805.482, 764.412 805.472, 764.057 805.312, 758.520 805.287, 757.736 805.194, 754.773 805.193, 754.743 805.107, 751.996 805.103, 751.919 804.755, 743.488 804.543, 742.072 804.543, 742.067 804.415, 741.211 803.938, 738.012 803.937, 738.005 803.378, 734.260 802.427, 730.024 802.349, 729.625 802.255, 729.134 802.252, 729.119 802.248, 729.102 802.160, 728.645 802.099, 728.327 801.998, 727.806 801.519, 725.327 800.623, 720.300 800.328, 718.640 800.116, 717.451 800.115, 717.446 799.846, 715.935 800.004, 713.215 800.062, 712.219 800.154, 710.634 800.168, 710.390 800.450, 705.517 800.385, 704.603 800.329, 703.821 800.230, 702.437 800.059, 701.182 799.489, 696.984 797.719, 695.299 794.905, 692.811 " fill="none" stroke="rgb(0, 0, 0)" stroke-linecap="butt" stroke-linejoin="round" stroke-opacity="1.0" stroke-width="3.0" />
            <path d=" M 729.678, 396.525 730.192, 397.246 733.550, 401.957 736.573, 403.609 739.853, 405.847 741.989, 405.899 744.298, 400.973 741.709, 391.314 740.760, 387.773 736.051, 378.951 731.342, 370.130 730.763, 369.046 724.833, 360.993 724.018, 359.886 719.990, 355.570 714.139, 350.086 706.145, 346.813 704.940, 346.320 " fill="none" stroke="rgb(0, 0, 0)" stroke-linecap="butt" stroke-linejoin="round" stroke-opacity="1.0" stroke-width="3.0" />
            <path d=" M 515.561, 831.751 513.606, 832.708 509.622, 835.844 507.266, 838.256 505.051, 841.210 503.796, 843.339 498.716, 851.953 498.558, 852.222 494.976, 861.082 493.014, 866.620 489.846, 876.104 489.426, 877.363 488.612, 881.800 487.779, 885.441 487.609, 886.183 487.233, 887.827 487.232, 887.831 487.105, 888.386 486.915, 889.213 486.914, 889.219 486.565, 890.746 486.513, 891.423 486.244, 894.960 486.210, 895.408 486.201, 895.523 486.173, 895.889 486.168, 895.960 486.166, 895.990 486.092, 896.959 485.805, 900.735 486.134, 905.109 486.255, 906.710 486.325, 907.647 486.453, 909.345 487.170, 912.760 487.657, 915.078 487.660, 915.092 487.682, 915.197 " fill="none" stroke="rgb(0, 0, 0)" stroke-linecap="butt" stroke-linejoin="round" stroke-opacity="1.0" stroke-width="3.0" />
            <path d=" M 572.816, 680.694 570.753, 689.057 569.525, 693.962 569.087, 695.710 569.016, 695.995 568.901, 696.453 568.165, 699.392 568.098, 699.662 568.094, 699.677 568.094, 699.678 566.785, 704.906 565.176, 712.266 564.467, 715.511 561.767, 722.220 561.053, 723.994 557.142, 733.198 556.889, 733.792 555.502, 739.282 553.086, 747.540 552.974, 747.923 552.945, 748.019 552.920, 748.107 552.919, 748.110 552.860, 748.311 552.845, 748.363 552.800, 748.515 552.728, 748.763 552.277, 750.302 552.120, 750.957 551.128, 755.095 550.730, 756.752 550.719, 756.800 550.704, 756.861 548.803, 766.679 548.428, 768.612 547.720, 773.714 546.191, 783.597 545.687, 786.856 " fill="none" stroke="rgb(0, 0, 0)" stroke-linecap="butt" stroke-linejoin="round" stroke-opacity="1.0" stroke-width="3.0" />
            <path d=" M 695.435, 474.776 696.135, 480.558 697.642, 490.444 698.200, 494.100 700.407, 503.853 702.614, 513.607 703.075, 515.640 705.202, 525.411 706.231, 530.139 707.853, 537.591 708.535, 542.415 709.933, 552.317 710.404, 555.646 712.108, 565.019 714.156, 574.807 714.957, 578.635 716.897, 587.095 " fill="none" stroke="rgb(0, 0, 0)" stroke-linecap="butt" stroke-linejoin="round" stroke-opacity="1.0" stroke-width="3.0" />
            <path d=" M 564.548, 867.388 566.074, 868.624 567.538, 869.810 568.607, 870.677 572.055, 873.471 578.953, 880.712 580.260, 882.084 581.518, 884.130 581.700, 884.428 586.487, 892.218 587.691, 895.443 589.680, 900.767 592.878, 909.042 596.810, 916.340 598.269, 920.882 600.198, 927.342 602.755, 931.713 605.809, 939.993 608.784, 947.502 611.045, 950.350 613.631, 953.605 616.351, 958.257 618.840, 966.399 619.175, 967.494 " fill="none" stroke="rgb(0, 0, 0)" stroke-linecap="butt" stroke-linejoin="round" stroke-opacity="1.0" stroke-width="3.0" />
            <path d=" M 605.895, 635.669 605.826, 634.069 605.823, 633.982 605.791, 633.260 605.773, 632.823 605.683, 630.740 604.139, 627.281 604.123, 627.246 603.712, 626.325 602.745, 624.160 600.888, 620.209 599.333, 618.386 597.775, 618.158 596.435, 622.063 596.824, 627.188 596.832, 627.295 596.843, 627.440 596.867, 627.748 597.223, 632.443 597.980, 642.414 598.121, 644.271 598.434, 652.783 598.479, 653.155 598.904, 656.661 599.035, 657.740 599.045, 657.821 599.145, 658.645 599.264, 659.627 599.273, 659.703 599.281, 659.772 599.286, 659.815 599.310, 660.007 599.838, 664.363 601.367, 674.246 601.810, 677.114 601.819, 677.172 601.835, 677.274 601.853, 677.388 601.911, 677.764 601.916, 677.794 602.476, 681.417 602.825, 683.675 602.917, 684.055 605.262, 693.776 605.892, 696.389 605.926, 696.532 606.020, 696.920 607.486, 703.000 607.685, 703.883 609.870, 713.599 " fill="none" stroke="rgb(0, 0, 0)" stroke-linecap="butt" stroke-linejoin="round" stroke-opacity="1.0" stroke-width="3.0" />
            <path d=" M 767.767, 646.201 767.197, 643.646 765.153, 633.857 763.108, 624.068 762.023, 618.872 760.239, 609.032 759.358, 604.175 757.316, 595.673 755.600, 585.822 755.206, 583.562 753.600, 576.094 751.970, 566.228 751.746, 564.872 750.019, 555.022 749.400, 551.497 749.196, 550.335 749.185, 550.225 748.292, 541.889 746.482, 532.054 746.089, 529.917 " fill="none" stroke="rgb(0, 0, 0)" stroke-linecap="butt" stroke-linejoin="round" stroke-opacity="1.0" stroke-width="3.0" />
            <path d=" M 794.837, 693.477 794.905, 692.811 795.617, 685.927 796.313, 675.951 796.371, 675.119 796.293, 665.119 796.256, 660.468 794.846, 650.568 794.188, 645.953 793.595, 635.970 793.560, 635.391 791.475, 625.610 790.708, 622.016 789.500, 612.090 788.541, 604.216 786.764, 601.071 784.464, 598.830 781.315, 599.620 777.296, 601.163 774.686, 610.816 773.939, 613.579 772.317, 623.446 770.784, 632.764 " fill="none" stroke="rgb(0, 0, 0)" stroke-linecap="butt" stroke-linejoin="round" stroke-opacity="1.0" stroke-width="3.0" />
            <path d=" M 661.223, 677.992 657.771, 672.942 655.688, 666.255 650.051, 658.581 649.180, 658.131 646.145, 657.776 642.386, 660.383 639.863, 659.390 636.341, 656.413 633.245, 658.267 632.357, 664.127 633.117, 673.852 634.165, 679.289 636.638, 688.204 642.985, 695.932 644.826, 698.173 644.412, 703.953 645.640, 709.031 645.785, 711.141 645.819, 711.633 645.850, 712.071 645.852, 712.105 645.858, 712.190 645.988, 714.079 646.279, 715.342 646.281, 715.352 646.883, 717.963 646.984, 718.401 647.423, 720.311 646.865, 729.568 645.937, 739.525 645.850, 740.458 645.017, 750.424 644.524, 756.317 " fill="none" stroke="rgb(0, 0, 0)" stroke-linecap="butt" stroke-linejoin="round" stroke-opacity="1.0" stroke-width="3.0" />
            <path d=" M 814.130, 986.179 814.080, 986.009 814.073, 985.983 814.025, 985.822 813.740, 984.856 813.201, 983.036 812.880, 981.949 812.598, 981.174 812.590, 981.152 811.704, 978.721 809.884, 974.576 809.818, 974.248 808.934, 969.829 807.684, 966.255 806.365, 960.141 806.025, 955.485 805.701, 946.121 806.286, 938.864 808.644, 930.281 808.370, 923.357 809.371, 913.407 809.564, 911.490 809.626, 910.871 809.652, 910.610 809.659, 910.376 809.898, 902.158 809.894, 901.769 809.869, 899.246 810.112, 894.034 810.546, 889.973 810.564, 889.801 810.615, 889.330 810.616, 889.315 810.664, 888.864 810.694, 888.808 810.715, 888.767 812.998, 884.403 813.495, 883.453 814.159, 881.587 817.101, 872.330 820.445, 862.905 821.877, 858.870 823.253, 854.905 828.155, 846.189 828.379, 845.790 829.585, 843.645 832.803, 839.074 835.821, 835.498 839.562, 832.040 842.731, 830.106 844.015, 829.323 " fill="none" stroke="rgb(0, 0, 0)" stroke-linecap="butt" stroke-linejoin="round" stroke-opacity="1.0" stroke-width="3.0" />
        </g>
    </g>
</svg>
