<?xml version='1.0' encoding='ascii'?>
<svg xmlns="http://www.w3.org/2000/svg" height="1280" version="1.1" width="1280">
    <g id="RenderLayer_LineSet" inkscape:groupmode="lineset" inkscape:label="RenderLayer_LineSet" xmlns:inkscape="http://www.inkscape.org/namespaces/inkscape">
        <g id="strokes" inkscape:groupmode="layer" inkscape:label="strokes" xmlns:inkscape="http://www.inkscape.org/namespaces/inkscape">
            <path d=" M 775.259, 391.910 774.977, 388.509 772.494, 380.635 771.962, 379.144 769.661, 373.872 769.259, 372.951 " fill="none" stroke="rgb(0, 0, 0)" stroke-linecap="butt" stroke-linejoin="round" stroke-opacity="1.0" stroke-width="3.0" />
            <path d=" M 709.138, 307.151 708.647, 304.338 707.240, 302.605 706.244, 300.625 705.012, 300.198 702.039, 299.350 698.733, 301.885 698.472, 302.085 698.424, 301.798 697.940, 298.878 697.814, 298.113 " fill="none" stroke="rgb(0, 0, 0)" stroke-linecap="butt" stroke-linejoin="round" stroke-opacity="1.0" stroke-width="3.0" />
            <path d=" M 888.975, 884.410 889.569, 883.088 890.799, 880.351 891.311, 879.634 895.246, 878.185 895.375, 878.065 896.159, 877.340 896.454, 877.067 896.550, 876.979 896.451, 877.093 896.158, 877.432 894.348, 879.522 894.191, 880.674 894.105, 881.305 894.183, 882.085 894.229, 882.538 894.498, 885.207 " fill="none" stroke="rgb(0, 0, 0)" stroke-linecap="butt" stroke-linejoin="round" stroke-opacity="1.0" stroke-width="3.0" />
            <path d=" M 697.940, 298.878 698.055, 295.173 696.853, 293.724 694.324, 292.346 692.030, 290.563 689.067, 290.455 687.479, 293.084 685.368, 291.602 684.984, 291.333 " fill="none" stroke="rgb(0, 0, 0)" stroke-linecap="butt" stroke-linejoin="round" stroke-opacity="1.0" stroke-width="3.0" />
            <path d=" M 615.765, 724.521 615.684, 724.065 613.941, 714.218 612.632, 706.825 612.629, 706.804 612.583, 706.546 612.568, 706.460 612.209, 704.432 612.196, 704.361 " fill="none" stroke="rgb(0, 0, 0)" stroke-linecap="butt" stroke-linejoin="round" stroke-opacity="1.0" stroke-width="3.0" />
            <path d=" M 560.479, 929.875 560.412, 929.982 557.130, 937.733 557.011, 938.957 556.981, 939.268 556.868, 940.426 556.807, 941.638 556.796, 941.855 556.792, 941.939 556.405, 949.646 " fill="none" stroke="rgb(0, 0, 0)" stroke-linecap="butt" stroke-linejoin="round" stroke-opacity="1.0" stroke-width="3.0" />
            <path d=" M 709.158, 421.212 712.893, 418.149 712.995, 417.896 713.401, 416.895 714.385, 414.464 714.052, 412.634 713.969, 412.315 713.783, 411.602 713.695, 411.266 712.422, 407.514 710.281, 405.490 710.090, 405.309 709.362, 405.244 708.783, 405.193 708.561, 405.173 " fill="none" stroke="rgb(0, 0, 0)" stroke-linecap="butt" stroke-linejoin="round" stroke-opacity="1.0" stroke-width="3.0" />
            <path d=" M 596.739, 534.118 596.062, 535.698 594.047, 540.400 592.824, 544.561 592.430, 545.902 591.982, 547.425 591.622, 548.649 591.555, 549.186 590.955, 553.981 " fill="none" stroke="rgb(0, 0, 0)" stroke-linecap="butt" stroke-linejoin="round" stroke-opacity="1.0" stroke-width="3.0" />
            <path d=" M 667.496, 1160.253 666.984, 1161.120 666.848, 1161.349 666.679, 1161.634 666.408, 1164.076 666.707, 1164.459 667.130, 1165.000 669.882, 1166.232 674.787, 1166.946 679.773, 1165.905 682.381, 1166.413 " fill="none" stroke="rgb(0, 0, 0)" stroke-linecap="butt" stroke-linejoin="round" stroke-opacity="1.0" stroke-width="3.0" />
            <path d=" M 820.124, 716.841 822.615, 719.334 826.597, 725.478 830.510, 734.680 830.600, 734.891 " fill="none" stroke="rgb(0, 0, 0)" stroke-linecap="butt" stroke-linejoin="round" stroke-opacity="1.0" stroke-width="3.0" />
            <path d=" M 514.466, 1011.000 514.539, 1011.330 515.070, 1013.725 516.550, 1017.517 520.772, 1026.582 520.920, 1026.900 522.795, 1029.138 523.712, 1030.313 " fill="none" stroke="rgb(0, 0, 0)" stroke-linecap="butt" stroke-linejoin="round" stroke-opacity="1.0" stroke-width="3.0" />
            <path d=" M 907.029, 773.082 907.144, 772.320 907.498, 769.986 905.354, 764.181 904.647, 759.748 901.688, 752.453 " fill="none" stroke="rgb(0, 0, 0)" stroke-linecap="butt" stroke-linejoin="round" stroke-opacity="1.0" stroke-width="3.0" />
            <path d=" M 557.210, 1100.972 555.222, 1099.233 556.183, 1099.942 556.529, 1100.197 557.456, 1100.881 559.294, 1102.237 560.688, 1103.265 561.862, 1104.131 570.057, 1109.862 570.933, 1110.474 " fill="none" stroke="rgb(0, 0, 0)" stroke-linecap="butt" stroke-linejoin="round" stroke-opacity="1.0" stroke-width="3.0" />
            <path d=" M 647.310, 345.045 646.784, 344.098 642.009, 341.338 639.224, 342.051 635.150, 344.417 631.836, 343.638 631.682, 343.602 630.486, 343.322 629.837, 343.763 629.248, 344.164 628.694, 344.541 627.973, 345.031 " fill="none" stroke="rgb(0, 0, 0)" stroke-linecap="butt" stroke-linejoin="round" stroke-opacity="1.0" stroke-width="3.0" />
            <path d=" M 802.333, 605.188 802.020, 604.334 801.724, 603.529 801.448, 602.778 800.573, 600.397 800.537, 600.301 799.519, 597.532 798.952, 595.988 798.180, 593.985 796.012, 588.355 795.590, 587.259 795.561, 587.184 794.517, 584.474 " fill="none" stroke="rgb(0, 0, 0)" stroke-linecap="butt" stroke-linejoin="round" stroke-opacity="1.0" stroke-width="3.0" />
            <path d=" M 547.383, 921.890 549.421, 922.141 550.264, 922.244 550.298, 922.248 550.695, 922.428 555.505, 924.601 557.711, 925.450 557.730, 925.458 558.049, 925.581 560.422, 926.494 560.672, 926.590 561.247, 927.293 561.726, 927.880 562.104, 928.342 562.141, 928.387 562.170, 928.423 562.179, 928.434 562.509, 928.837 564.290, 931.015 565.791, 933.291 " fill="none" stroke="rgb(0, 0, 0)" stroke-linecap="butt" stroke-linejoin="round" stroke-opacity="1.0" stroke-width="3.0" />
            <path d=" M 817.789, 760.668 817.165, 759.801 813.313, 754.449 810.766, 750.745 803.574, 744.518 802.349, 743.539 " fill="none" stroke="rgb(0, 0, 0)" stroke-linecap="butt" stroke-linejoin="round" stroke-opacity="1.0" stroke-width="3.0" />
            <path d=" M 843.985, 967.768 842.994, 965.530 841.392, 961.912 840.003, 958.783 839.671, 958.035 839.136, 956.786 839.025, 956.526 837.381, 952.689 837.319, 952.544 836.192, 949.912 834.672, 946.363 " fill="none" stroke="rgb(0, 0, 0)" stroke-linecap="butt" stroke-linejoin="round" stroke-opacity="1.0" stroke-width="3.0" />
            <path d=" M 514.377, 901.215 505.260, 905.324 502.642, 906.503 501.726, 906.582 495.582, 907.111 492.193, 907.017 " fill="none" stroke="rgb(0, 0, 0)" stroke-linecap="butt" stroke-linejoin="round" stroke-opacity="1.0" stroke-width="3.0" />
            <path d=" M 808.289, 841.626 810.644, 842.393 815.632, 843.901 820.090, 844.212 826.180, 845.128 831.418, 846.047 " fill="none" stroke="rgb(0, 0, 0)" stroke-linecap="butt" stroke-linejoin="round" stroke-opacity="1.0" stroke-width="3.0" />
            <path d=" M 900.721, 864.233 901.192, 865.101 901.196, 865.109 902.387, 867.305 902.526, 867.562 903.129, 868.675 903.811, 869.557 903.991, 869.790 905.529, 871.781 908.850, 876.503 911.093, 880.279 912.639, 882.813 913.605, 884.395 " fill="none" stroke="rgb(0, 0, 0)" stroke-linecap="butt" stroke-linejoin="round" stroke-opacity="1.0" stroke-width="3.0" />
            <path d=" M 600.522, 511.185 598.868, 518.709 598.120, 523.536 598.042, 524.044 598.007, 524.270 597.832, 525.401 597.503, 526.911 596.973, 531.915 596.739, 534.118 596.660, 534.865 " fill="none" stroke="rgb(0, 0, 0)" stroke-linecap="butt" stroke-linejoin="round" stroke-opacity="1.0" stroke-width="3.0" />
            <path d=" M 798.952, 595.988 798.300, 594.445 797.032, 591.447 796.048, 589.155 795.928, 588.875 795.617, 588.150 795.580, 588.063 795.258, 587.313 794.825, 585.655 794.517, 584.474 792.429, 576.470 791.855, 574.267 791.848, 574.240 791.497, 572.896 " fill="none" stroke="rgb(0, 0, 0)" stroke-linecap="butt" stroke-linejoin="round" stroke-opacity="1.0" stroke-width="3.0" />
            <path d=" M 564.355, 706.432 565.830, 708.233 569.610, 712.849 569.781, 713.057 569.794, 713.105 572.300, 722.177 573.686, 725.569 573.689, 725.576 573.753, 725.734 573.908, 726.113 574.536, 727.649 574.845, 728.406 " fill="none" stroke="rgb(0, 0, 0)" stroke-linecap="butt" stroke-linejoin="round" stroke-opacity="1.0" stroke-width="3.0" />
            <path d=" M 917.648, 874.163 917.513, 872.147 916.179, 867.065 916.105, 865.889 916.041, 864.856 915.985, 863.968 915.853, 861.867 916.039, 861.177 916.061, 861.096 916.972, 857.714 916.105, 865.889 " fill="none" stroke="rgb(0, 0, 0)" stroke-linecap="butt" stroke-linejoin="round" stroke-opacity="1.0" stroke-width="3.0" />
            <path d=" M 745.814, 350.315 740.616, 346.197 740.217, 345.379 740.197, 345.337 737.945, 340.715 736.383, 337.509 735.196, 335.479 731.879, 329.967 " fill="none" stroke="rgb(0, 0, 0)" stroke-linecap="butt" stroke-linejoin="round" stroke-opacity="1.0" stroke-width="3.0" />
            <path d=" M 532.676, 856.845 532.914, 856.178 534.518, 855.110 536.169, 854.183 537.350, 853.871 541.261, 852.386 543.825, 852.326 544.638, 852.204 547.415, 851.631 547.543, 851.605 547.914, 851.495 550.700, 850.666 551.150, 850.533 552.367, 849.845 552.536, 849.750 552.561, 849.736 552.850, 849.573 553.369, 849.280 554.049, 848.896 555.598, 848.021 " fill="none" stroke="rgb(0, 0, 0)" stroke-linecap="butt" stroke-linejoin="round" stroke-opacity="1.0" stroke-width="3.0" />
            <path d=" M 838.661, 955.132 837.961, 952.580 836.320, 946.596 832.836, 939.716 831.402, 937.236 831.251, 936.977 830.831, 936.249 827.828, 932.180 " fill="none" stroke="rgb(0, 0, 0)" stroke-linecap="butt" stroke-linejoin="round" stroke-opacity="1.0" stroke-width="3.0" />
            <path d=" M 586.818, 839.982 588.674, 836.825 590.557, 830.680 592.593, 824.182 595.087, 819.246 595.339, 818.651 595.566, 818.119 596.375, 816.215 " fill="none" stroke="rgb(0, 0, 0)" stroke-linecap="butt" stroke-linejoin="round" stroke-opacity="1.0" stroke-width="3.0" />
            <path d=" M 800.826, 1110.212 801.678, 1109.545 802.924, 1108.569 806.938, 1105.313 809.651, 1101.995 815.258, 1096.878 819.045, 1092.198 " fill="none" stroke="rgb(0, 0, 0)" stroke-linecap="butt" stroke-linejoin="round" stroke-opacity="1.0" stroke-width="3.0" />
            <path d=" M 902.014, 753.676 901.688, 752.453 899.995, 746.109 896.382, 736.785 895.376, 734.190 892.652, 729.702 " fill="none" stroke="rgb(0, 0, 0)" stroke-linecap="butt" stroke-linejoin="round" stroke-opacity="1.0" stroke-width="3.0" />
            <path d=" M 905.223, 940.177 908.195, 938.151 913.445, 934.236 915.632, 932.508 918.078, 930.286 920.995, 926.763 919.877, 927.803 917.018, 930.081 " fill="none" stroke="rgb(0, 0, 0)" stroke-linecap="butt" stroke-linejoin="round" stroke-opacity="1.0" stroke-width="3.0" />
            <path d=" M 821.351, 698.873 822.829, 700.510 825.260, 702.336 829.173, 705.276 834.421, 708.941 842.215, 714.384 " fill="none" stroke="rgb(0, 0, 0)" stroke-linecap="butt" stroke-linejoin="round" stroke-opacity="1.0" stroke-width="3.0" />
            <path d=" M 525.311, 722.267 532.253, 716.390 532.900, 715.843 533.439, 715.386 533.574, 715.266 536.818, 712.400 540.238, 709.379 545.555, 705.663 " fill="none" stroke="rgb(0, 0, 0)" stroke-linecap="butt" stroke-linejoin="round" stroke-opacity="1.0" stroke-width="3.0" />
            <path d=" M 916.790, 848.368 915.908, 838.893 915.112, 836.068 912.681, 827.012 911.136, 822.628 " fill="none" stroke="rgb(0, 0, 0)" stroke-linecap="butt" stroke-linejoin="round" stroke-opacity="1.0" stroke-width="3.0" />
            <path d=" M 554.317, 1098.280 557.039, 1102.523 562.239, 1106.123 564.711, 1109.944 568.301, 1111.840 568.639, 1112.018 573.692, 1116.193 " fill="none" stroke="rgb(0, 0, 0)" stroke-linecap="butt" stroke-linejoin="round" stroke-opacity="1.0" stroke-width="3.0" />
            <path d=" M 738.913, 454.660 737.561, 452.405 732.806, 449.785 730.123, 446.513 728.328, 446.569 725.949, 446.644 725.557, 446.656 724.385, 446.693 724.211, 446.698 723.887, 446.708 723.757, 446.712 723.040, 446.735 722.473, 447.410 722.357, 447.547 722.341, 447.566 721.802, 448.208 721.064, 450.688 721.057, 450.710 721.005, 450.883 721.003, 450.889 720.653, 451.397 720.644, 451.409 720.388, 451.779 720.273, 451.947 718.935, 453.883 " fill="none" stroke="rgb(0, 0, 0)" stroke-linecap="butt" stroke-linejoin="round" stroke-opacity="1.0" stroke-width="3.0" />
            <path d=" M 680.681, 1165.734 682.381, 1166.413 684.213, 1167.144 687.141, 1167.186 690.893, 1166.066 697.792, 1165.858 703.474, 1163.969 704.272, 1163.181 704.332, 1162.591 704.499, 1160.921 704.393, 1160.354 704.332, 1160.026 " fill="none" stroke="rgb(0, 0, 0)" stroke-linecap="butt" stroke-linejoin="round" stroke-opacity="1.0" stroke-width="3.0" />
            <path d=" M 629.776, 406.951 628.194, 404.350 623.435, 398.853 617.930, 390.504 617.224, 389.435 613.913, 385.623 612.848, 384.397 " fill="none" stroke="rgb(0, 0, 0)" stroke-linecap="butt" stroke-linejoin="round" stroke-opacity="1.0" stroke-width="3.0" />
            <path d=" M 629.837, 343.763 628.823, 343.945 627.973, 345.031 627.099, 351.174 627.092, 351.229 627.049, 351.529 627.014, 351.991 627.699, 357.839 629.812, 362.437 630.065, 362.989 632.103, 365.247 632.225, 365.383 634.983, 367.836 635.438, 368.198 " fill="none" stroke="rgb(0, 0, 0)" stroke-linecap="butt" stroke-linejoin="round" stroke-opacity="1.0" stroke-width="3.0" />
            <path d=" M 491.419, 909.180 486.187, 906.035 484.447, 904.989 481.173, 902.413 479.362, 899.490 477.187, 895.491 472.964, 894.086 469.199, 893.962 " fill="none" stroke="rgb(0, 0, 0)" stroke-linecap="butt" stroke-linejoin="round" stroke-opacity="1.0" stroke-width="3.0" />
            <path d=" M 798.180, 593.985 797.235, 590.335 796.240, 586.946 795.503, 584.436 795.117, 581.822 795.070, 581.507 792.751, 573.558 791.512, 569.313 790.659, 566.388 " fill="none" stroke="rgb(0, 0, 0)" stroke-linecap="butt" stroke-linejoin="round" stroke-opacity="1.0" stroke-width="3.0" />
            <path d=" M 665.245, 299.346 661.815, 297.831 659.190, 299.230 653.733, 303.242 650.499, 307.248 650.638, 309.874 650.617, 312.288 651.155, 314.288 651.742, 315.177 652.799, 316.777 " fill="none" stroke="rgb(0, 0, 0)" stroke-linecap="butt" stroke-linejoin="round" stroke-opacity="1.0" stroke-width="3.0" />
            <path d=" M 708.100, 394.526 710.542, 393.731 710.854, 393.878 714.764, 395.710 717.700, 400.338 721.259, 407.535 722.719, 414.239 723.077, 415.879 " fill="none" stroke="rgb(0, 0, 0)" stroke-linecap="butt" stroke-linejoin="round" stroke-opacity="1.0" stroke-width="3.0" />
            <path d=" M 776.687, 416.971 777.123, 409.616 777.000, 399.617 776.998, 399.417 775.303, 392.010 775.259, 391.910 773.652, 388.217 " fill="none" stroke="rgb(0, 0, 0)" stroke-linecap="butt" stroke-linejoin="round" stroke-opacity="1.0" stroke-width="3.0" />
            <path d=" M 590.189, 1127.416 595.125, 1130.871 598.915, 1132.821 604.166, 1136.585 605.703, 1137.119 605.817, 1137.159 611.292, 1139.062 612.801, 1139.236 616.852, 1139.702 " fill="none" stroke="rgb(0, 0, 0)" stroke-linecap="butt" stroke-linejoin="round" stroke-opacity="1.0" stroke-width="3.0" />
            <path d=" M 772.494, 380.635 770.963, 374.368 767.835, 371.043 765.703, 370.654 760.437, 373.177 758.737, 375.853 755.932, 380.664 754.686, 382.189 754.578, 382.423 " fill="none" stroke="rgb(0, 0, 0)" stroke-linecap="butt" stroke-linejoin="round" stroke-opacity="1.0" stroke-width="3.0" />
            <path d=" M 573.611, 968.646 573.125, 969.665 573.109, 969.698 573.071, 969.777 572.988, 969.951 572.578, 970.811 572.128, 971.754 572.875, 974.253 576.239, 978.366 580.611, 980.683 581.473, 984.074 583.960, 986.209 585.745, 987.741 588.520, 990.506 589.110, 991.095 " fill="none" stroke="rgb(0, 0, 0)" stroke-linecap="butt" stroke-linejoin="round" stroke-opacity="1.0" stroke-width="3.0" />
            <path d=" M 563.731, 587.500 560.197, 595.686 559.141, 600.447 559.003, 604.635 558.988, 605.099 557.683, 608.868 557.167, 610.358 556.104, 617.385 " fill="none" stroke="rgb(0, 0, 0)" stroke-linecap="butt" stroke-linejoin="round" stroke-opacity="1.0" stroke-width="3.0" />
            <path d=" M 788.141, 554.755 788.326, 552.475 788.371, 551.912 788.434, 551.135 788.565, 549.514 788.941, 544.873 789.012, 543.994 789.058, 543.034 788.744, 533.039 788.471, 524.339 788.421, 523.621 " fill="none" stroke="rgb(0, 0, 0)" stroke-linecap="butt" stroke-linejoin="round" stroke-opacity="1.0" stroke-width="3.0" />
            <path d=" M 882.255, 842.349 881.958, 843.810 880.005, 853.408 880.705, 856.902 881.126, 858.101 884.999, 861.219 890.935, 863.577 891.521, 863.649 891.693, 863.651 894.889, 863.683 " fill="none" stroke="rgb(0, 0, 0)" stroke-linecap="butt" stroke-linejoin="round" stroke-opacity="1.0" stroke-width="3.0" />
            <path d=" M 568.301, 1111.840 568.588, 1112.149 573.692, 1116.193 574.512, 1116.992 579.392, 1120.312 585.108, 1124.029 589.211, 1126.954 590.189, 1127.416 594.693, 1129.543 " fill="none" stroke="rgb(0, 0, 0)" stroke-linecap="butt" stroke-linejoin="round" stroke-opacity="1.0" stroke-width="3.0" />
            <path d=" M 718.441, 425.038 717.879, 422.831 716.662, 417.106 715.072, 412.218 714.060, 409.350 711.602, 399.657 711.379, 398.775 710.854, 393.878 " fill="none" stroke="rgb(0, 0, 0)" stroke-linecap="butt" stroke-linejoin="round" stroke-opacity="1.0" stroke-width="3.0" />
            <path d=" M 601.067, 518.251 601.066, 518.339 601.032, 521.536 601.028, 521.879 601.025, 522.186 601.013, 523.238 601.011, 523.398 600.911, 532.666 600.987, 535.137 600.994, 535.378 601.038, 536.801 601.098, 538.755 601.344, 546.779 601.440, 549.936 601.458, 550.529 " fill="none" stroke="rgb(0, 0, 0)" stroke-linecap="butt" stroke-linejoin="round" stroke-opacity="1.0" stroke-width="3.0" />
            <path d=" M 844.541, 672.220 840.287, 667.102 834.129, 659.223 833.951, 658.995 829.823, 654.018 825.277, 646.221 " fill="none" stroke="rgb(0, 0, 0)" stroke-linecap="butt" stroke-linejoin="round" stroke-opacity="1.0" stroke-width="3.0" />
            <path d=" M 880.336, 956.370 880.488, 956.268 887.291, 951.694 893.945, 948.129 899.811, 944.480 903.821, 941.743 905.223, 940.177 907.068, 938.118 " fill="none" stroke="rgb(0, 0, 0)" stroke-linecap="butt" stroke-linejoin="round" stroke-opacity="1.0" stroke-width="3.0" />
            <path d=" M 655.780, 1155.629 658.438, 1155.972 655.849, 1155.604 653.791, 1155.311 653.251, 1155.452 653.235, 1155.457 650.531, 1156.167 649.880, 1156.338 642.612, 1155.187 636.345, 1152.638 635.051, 1152.112 630.566, 1148.353 " fill="none" stroke="rgb(0, 0, 0)" stroke-linecap="butt" stroke-linejoin="round" stroke-opacity="1.0" stroke-width="3.0" />
            <path d=" M 531.775, 1066.513 532.069, 1067.108 535.371, 1073.771 538.533, 1079.449 541.786, 1082.763 547.270, 1088.350 551.895, 1093.919 " fill="none" stroke="rgb(0, 0, 0)" stroke-linecap="butt" stroke-linejoin="round" stroke-opacity="1.0" stroke-width="3.0" />
            <path d=" M 824.902, 880.236 825.698, 880.173 832.206, 878.131 836.311, 875.635 842.199, 870.699 845.041, 866.288 846.707, 858.531 847.016, 857.091 " fill="none" stroke="rgb(0, 0, 0)" stroke-linecap="butt" stroke-linejoin="round" stroke-opacity="1.0" stroke-width="3.0" />
            <path d=" M 711.019, 310.113 710.216, 308.849 709.138, 307.151 708.669, 306.413 707.426, 305.751 704.798, 304.351 702.895, 303.873 698.355, 304.214 694.957, 304.469 693.791, 304.841 692.041, 308.968 691.938, 314.641 694.424, 319.041 " fill="none" stroke="rgb(0, 0, 0)" stroke-linecap="butt" stroke-linejoin="round" stroke-opacity="1.0" stroke-width="3.0" />
            <path d=" M 819.988, 948.791 820.210, 948.298 820.212, 948.294 820.886, 946.797 821.034, 946.470 821.057, 946.419 822.544, 943.901 822.779, 943.504 823.052, 943.041 824.321, 940.027 827.707, 934.499 827.797, 932.780 827.814, 932.450 827.825, 932.240 827.828, 932.180 828.317, 922.827 830.420, 919.007 832.320, 916.808 " fill="none" stroke="rgb(0, 0, 0)" stroke-linecap="butt" stroke-linejoin="round" stroke-opacity="1.0" stroke-width="3.0" />
            <path d=" M 874.431, 893.713 872.760, 893.910 869.820, 895.008 865.259, 895.209 861.945, 895.939 857.929, 894.620 854.090, 893.605 846.681, 891.579 841.693, 890.524 839.704, 889.762 " fill="none" stroke="rgb(0, 0, 0)" stroke-linecap="butt" stroke-linejoin="round" stroke-opacity="1.0" stroke-width="3.0" />
            <path d=" M 749.963, 362.653 752.441, 357.041 752.049, 347.452 749.552, 343.114 747.686, 340.241 743.724, 337.530 741.328, 338.046 738.871, 338.986 737.945, 340.715 " fill="none" stroke="rgb(0, 0, 0)" stroke-linecap="butt" stroke-linejoin="round" stroke-opacity="1.0" stroke-width="3.0" />
            <path d=" M 587.238, 583.633 585.564, 587.711 585.160, 588.819 584.932, 589.443 583.702, 592.815 583.571, 593.174 583.449, 593.507 583.447, 593.513 582.956, 594.858 582.932, 594.925 582.924, 594.947 582.667, 595.651 582.491, 596.134 580.648, 601.185 580.616, 601.275 580.600, 601.318 580.358, 601.981 579.806, 603.495 576.891, 608.551 572.394, 613.127 571.393, 614.146 570.909, 614.639 570.404, 615.153 570.312, 615.246 570.283, 615.276 " fill="none" stroke="rgb(0, 0, 0)" stroke-linecap="butt" stroke-linejoin="round" stroke-opacity="1.0" stroke-width="3.0" />
            <path d=" M 541.439, 731.210 545.809, 726.088 547.010, 724.469 551.255, 722.687 554.356, 721.220 559.586, 720.808 565.276, 721.849 571.869, 724.770 573.689, 725.576 " fill="none" stroke="rgb(0, 0, 0)" stroke-linecap="butt" stroke-linejoin="round" stroke-opacity="1.0" stroke-width="3.0" />
            <path d=" M 523.797, 1031.286 523.357, 1036.402 523.604, 1039.055 525.116, 1044.137 526.590, 1051.034 528.512, 1059.519 531.352, 1065.965 532.069, 1067.108 " fill="none" stroke="rgb(0, 0, 0)" stroke-linecap="butt" stroke-linejoin="round" stroke-opacity="1.0" stroke-width="3.0" />
            <path d=" M 535.311, 890.999 531.931, 891.372 523.623, 893.568 519.242, 895.580 513.474, 898.722 508.574, 901.444 503.383, 904.821 501.726, 906.582 " fill="none" stroke="rgb(0, 0, 0)" stroke-linecap="butt" stroke-linejoin="round" stroke-opacity="1.0" stroke-width="3.0" />
            <path d=" M 453.054, 909.693 455.120, 906.394 455.340, 906.044 455.535, 905.813 457.403, 903.600 459.567, 899.855 460.902, 895.399 462.463, 893.292 464.565, 889.939 464.780, 889.596 465.033, 889.121 465.083, 889.028 465.152, 888.898 465.213, 888.783 465.370, 888.487 467.651, 884.203 469.344, 881.487 470.408, 878.385 471.614, 877.292 " fill="none" stroke="rgb(0, 0, 0)" stroke-linecap="butt" stroke-linejoin="round" stroke-opacity="1.0" stroke-width="3.0" />
            <path d=" M 573.568, 575.218 570.906, 581.701 569.922, 586.220 568.745, 591.631 565.512, 599.223 562.267, 604.257 560.860, 607.929 560.004, 610.161 " fill="none" stroke="rgb(0, 0, 0)" stroke-linecap="butt" stroke-linejoin="round" stroke-opacity="1.0" stroke-width="3.0" />
            <path d=" M 477.389, 964.588 484.032, 968.716 488.402, 972.472 493.567, 977.355 499.084, 982.251 501.642, 985.746 504.702, 989.742 506.184, 991.677 " fill="none" stroke="rgb(0, 0, 0)" stroke-linecap="butt" stroke-linejoin="round" stroke-opacity="1.0" stroke-width="3.0" />
            <path d=" M 592.695, 538.900 590.585, 542.695 589.113, 545.615 587.277, 549.444 585.430, 552.590 583.511, 554.888 581.411, 557.389 580.748, 558.422 578.909, 561.291 577.232, 562.096 576.137, 562.621 574.021, 566.074 570.602, 571.655 " fill="none" stroke="rgb(0, 0, 0)" stroke-linecap="butt" stroke-linejoin="round" stroke-opacity="1.0" stroke-width="3.0" />
            <path d=" M 610.451, 413.660 604.737, 419.106 603.673, 421.494 603.654, 421.537 603.576, 421.713 601.733, 425.847 600.018, 432.447 600.118, 442.447 600.128, 443.382 601.444, 450.407 " fill="none" stroke="rgb(0, 0, 0)" stroke-linecap="butt" stroke-linejoin="round" stroke-opacity="1.0" stroke-width="3.0" />
            <path d=" M 709.974, 434.556 709.729, 430.660 709.652, 429.386 709.158, 421.212 709.126, 420.680 709.114, 420.480 708.214, 414.467 708.420, 408.942 708.516, 406.371 708.561, 405.173 708.572, 404.885 708.593, 404.313 708.664, 402.406 708.643, 402.106 708.100, 394.526 708.055, 393.892 " fill="none" stroke="rgb(0, 0, 0)" stroke-linecap="butt" stroke-linejoin="round" stroke-opacity="1.0" stroke-width="3.0" />
            <path d=" M 637.542, 382.899 637.408, 383.584 636.757, 386.925 635.738, 392.148 635.523, 393.252 634.226, 399.901 633.885, 403.836 633.690, 406.079 633.418, 409.222 633.224, 411.460 633.117, 412.686 632.863, 415.620 632.720, 416.245 631.958, 419.577 630.931, 424.075 " fill="none" stroke="rgb(0, 0, 0)" stroke-linecap="butt" stroke-linejoin="round" stroke-opacity="1.0" stroke-width="3.0" />
            <path d=" M 694.476, 322.998 693.363, 322.619 689.414, 321.274 690.255, 317.633 690.123, 317.106 690.106, 317.035 689.266, 313.666 689.027, 307.229 686.746, 304.472 683.216, 303.834 675.216, 305.329 675.211, 305.330 674.594, 305.445 674.459, 305.470 674.151, 305.528 672.887, 306.937 672.388, 307.493 670.948, 309.097 669.963, 310.195 " fill="none" stroke="rgb(0, 0, 0)" stroke-linecap="butt" stroke-linejoin="round" stroke-opacity="1.0" stroke-width="3.0" />
            <path d=" M 525.044, 974.241 524.965, 974.388 524.484, 975.294 524.322, 975.600 522.647, 978.753 519.626, 986.427 518.333, 993.058 516.311, 997.814 515.501, 1001.137 516.524, 1006.094 516.701, 1006.951 519.036, 1012.815 519.616, 1014.271 " fill="none" stroke="rgb(0, 0, 0)" stroke-linecap="butt" stroke-linejoin="round" stroke-opacity="1.0" stroke-width="3.0" />
            <path d=" M 640.704, 331.839 639.465, 332.437 639.430, 332.434 638.355, 332.358 638.286, 332.353 636.965, 332.259 632.964, 331.974 626.723, 332.796 623.667, 334.449 620.244, 337.649 618.454, 340.461 617.750, 342.437 618.432, 350.313 619.755, 352.907 622.447, 354.893 623.048, 355.025 623.880, 355.208 " fill="none" stroke="rgb(0, 0, 0)" stroke-linecap="butt" stroke-linejoin="round" stroke-opacity="1.0" stroke-width="3.0" />
            <path d=" M 629.854, 363.049 630.008, 365.312 630.660, 371.018 631.012, 377.852 631.698, 384.033 632.919, 392.252 631.041, 402.074 630.976, 402.411 630.054, 406.771 " fill="none" stroke="rgb(0, 0, 0)" stroke-linecap="butt" stroke-linejoin="round" stroke-opacity="1.0" stroke-width="3.0" />
            <path d=" M 652.990, 451.454 652.225, 449.996 651.089, 443.361 650.611, 433.373 650.344, 427.772 649.797, 421.695 649.945, 413.887 650.210, 407.418 " fill="none" stroke="rgb(0, 0, 0)" stroke-linecap="butt" stroke-linejoin="round" stroke-opacity="1.0" stroke-width="3.0" />
            <path d=" M 704.332, 1162.591 711.163, 1164.335 715.085, 1164.512 717.450, 1164.532 722.410, 1163.460 723.421, 1163.061 729.521, 1161.399 733.467, 1160.965 735.648, 1160.664 738.292, 1158.725 739.822, 1155.757 743.033, 1150.567 " fill="none" stroke="rgb(0, 0, 0)" stroke-linecap="butt" stroke-linejoin="round" stroke-opacity="1.0" stroke-width="3.0" />
            <path d=" M 848.720, 1019.530 848.761, 1010.624 848.534, 1005.152 848.520, 1004.814 848.488, 1004.023 848.234, 997.890 848.174, 996.433 848.049, 995.047 847.706, 991.263 848.727, 984.900 848.730, 984.880 849.172, 982.043 846.688, 975.399 " fill="none" stroke="rgb(0, 0, 0)" stroke-linecap="butt" stroke-linejoin="round" stroke-opacity="1.0" stroke-width="3.0" />
            <path d=" M 670.948, 309.097 669.080, 309.716 664.331, 308.035 660.725, 309.375 657.467, 310.833 654.823, 313.599 653.895, 314.569 653.049, 316.274 652.954, 316.465 652.799, 316.777 650.689, 321.026 650.435, 321.538 650.371, 321.666 650.199, 322.012 649.599, 323.222 649.862, 324.598 651.156, 331.360 651.034, 338.714 " fill="none" stroke="rgb(0, 0, 0)" stroke-linecap="butt" stroke-linejoin="round" stroke-opacity="1.0" stroke-width="3.0" />
            <path d=" M 566.441, 959.812 566.195, 963.687 566.412, 966.070 566.515, 967.199 566.593, 968.046 566.630, 968.450 566.981, 972.305 567.010, 972.624 567.280, 973.630 567.452, 974.270 569.943, 983.556 571.061, 985.648 571.067, 985.685 571.586, 988.914 571.586, 988.916 571.723, 989.769 572.496, 994.580 575.919, 1001.147 577.113, 1003.438 " fill="none" stroke="rgb(0, 0, 0)" stroke-linecap="butt" stroke-linejoin="round" stroke-opacity="1.0" stroke-width="3.0" />
            <path d=" M 736.383, 337.509 735.394, 328.242 733.834, 321.745 731.684, 318.926 725.669, 312.452 719.685, 308.839 716.828, 308.996 712.386, 310.651 710.216, 308.849 " fill="none" stroke="rgb(0, 0, 0)" stroke-linecap="butt" stroke-linejoin="round" stroke-opacity="1.0" stroke-width="3.0" />
            <path d=" M 543.227, 653.161 540.053, 658.837 537.796, 662.319 531.483, 670.074 530.804, 670.908 525.529, 679.404 525.145, 680.023 520.573, 685.271 515.244, 689.415 " fill="none" stroke="rgb(0, 0, 0)" stroke-linecap="butt" stroke-linejoin="round" stroke-opacity="1.0" stroke-width="3.0" />
            <path d=" M 680.031, 393.984 680.199, 394.564 681.278, 398.285 681.181, 403.103 681.112, 405.239 681.096, 405.708 680.940, 410.537 681.159, 416.163 680.860, 417.979 680.794, 418.380 680.554, 419.838 680.086, 422.674 679.692, 424.580 679.511, 425.590 679.347, 426.504 678.972, 428.589 678.870, 429.158 678.812, 430.926 678.549, 438.837 678.496, 440.432 " fill="none" stroke="rgb(0, 0, 0)" stroke-linecap="butt" stroke-linejoin="round" stroke-opacity="1.0" stroke-width="3.0" />
            <path d=" M 849.887, 991.356 852.502, 986.141 854.873, 982.327 857.402, 979.289 860.234, 976.570 863.535, 972.866 865.764, 970.334 866.094, 969.959 866.474, 969.614 872.161, 964.445 878.344, 959.189 880.488, 956.268 " fill="none" stroke="rgb(0, 0, 0)" stroke-linecap="butt" stroke-linejoin="round" stroke-opacity="1.0" stroke-width="3.0" />
            <path d=" M 780.852, 443.870 781.103, 433.873 781.112, 433.527 780.499, 425.689 778.430, 418.779 776.687, 416.971 773.112, 413.264 767.851, 411.021 760.410, 409.404 759.508, 409.245 " fill="none" stroke="rgb(0, 0, 0)" stroke-linecap="butt" stroke-linejoin="round" stroke-opacity="1.0" stroke-width="3.0" />
            <path d=" M 830.549, 1076.215 833.397, 1072.339 834.473, 1070.796 831.339, 1074.231 830.549, 1076.215 829.295, 1079.367 823.895, 1085.638 822.782, 1087.355 819.045, 1092.198 817.310, 1093.905 810.247, 1100.984 809.021, 1102.214 " fill="none" stroke="rgb(0, 0, 0)" stroke-linecap="butt" stroke-linejoin="round" stroke-opacity="1.0" stroke-width="3.0" />
            <path d=" M 550.434, 901.498 547.650, 902.512 545.003, 903.389 541.052, 904.857 538.907, 906.094 534.472, 911.344 533.125, 914.935 533.842, 915.450 536.151, 917.109 537.641, 918.180 538.646, 918.902 540.528, 920.115 541.009, 920.426 543.512, 921.415 544.207, 921.690 546.671, 921.845 547.383, 921.890 549.492, 922.024 550.327, 922.076 550.860, 922.110 551.131, 922.127 555.975, 923.106 " fill="none" stroke="rgb(0, 0, 0)" stroke-linecap="butt" stroke-linejoin="round" stroke-opacity="1.0" stroke-width="3.0" />
            <path d=" M 558.049, 925.581 560.479, 929.875 560.921, 930.655 560.940, 930.862 560.956, 931.026 560.961, 931.082 560.967, 931.151 561.018, 931.693 561.408, 935.861 561.507, 940.795 561.507, 940.796 561.517, 941.308 561.559, 943.371 563.464, 949.847 563.968, 950.332 567.552, 957.602 567.553, 957.604 567.560, 957.619 567.589, 957.677 567.707, 957.916 568.510, 959.545 570.071, 961.932 572.051, 964.960 572.214, 965.209 572.834, 966.736 573.611, 968.646 573.913, 969.390 573.919, 969.406 574.153, 969.981 574.360, 970.492 " fill="none" stroke="rgb(0, 0, 0)" stroke-linecap="butt" stroke-linejoin="round" stroke-opacity="1.0" stroke-width="3.0" />
            <path d=" M 560.860, 607.929 556.367, 616.863 556.104, 617.385 555.908, 617.774 552.435, 627.152 550.961, 631.133 548.186, 639.818 547.049, 644.619 543.774, 651.088 543.227, 653.161 542.375, 656.385 " fill="none" stroke="rgb(0, 0, 0)" stroke-linecap="butt" stroke-linejoin="round" stroke-opacity="1.0" stroke-width="3.0" />
            <path d=" M 650.435, 321.538 649.952, 321.424 649.711, 320.304 649.371, 318.724 649.335, 318.284 649.245, 317.194 649.020, 314.452 647.605, 309.729 645.893, 302.540 643.951, 302.135 642.929, 302.067 641.788, 302.530 637.797, 307.631 636.336, 313.185 635.527, 318.373 635.651, 320.549 635.969, 324.884 637.822, 329.212 637.889, 329.369 638.304, 330.336 " fill="none" stroke="rgb(0, 0, 0)" stroke-linecap="butt" stroke-linejoin="round" stroke-opacity="1.0" stroke-width="3.0" />
            <path d=" M 666.689, 441.041 665.667, 439.361 665.349, 438.839 663.826, 432.715 663.900, 424.010 664.118, 420.470 664.361, 416.522 665.865, 412.210 669.139, 403.936 673.275, 398.312 678.865, 393.769 680.199, 394.564 " fill="none" stroke="rgb(0, 0, 0)" stroke-linecap="butt" stroke-linejoin="round" stroke-opacity="1.0" stroke-width="3.0" />
            <path d=" M 652.270, 336.715 651.034, 338.714 648.491, 342.829 647.310, 345.045 646.575, 346.424 644.748, 348.911 644.487, 349.094 639.528, 352.562 637.198, 356.955 635.651, 366.835 635.440, 368.181 635.438, 368.198 635.366, 368.659 635.410, 369.028 635.417, 369.086 636.331, 376.649 636.536, 385.725 636.757, 386.925 " fill="none" stroke="rgb(0, 0, 0)" stroke-linecap="butt" stroke-linejoin="round" stroke-opacity="1.0" stroke-width="3.0" />
            <path d=" M 905.349, 828.380 906.604, 823.633 907.454, 817.945 907.472, 817.824 908.044, 813.995 908.713, 809.865 908.748, 809.648 908.908, 803.824 909.181, 794.324 909.027, 788.472 908.066, 778.840 907.514, 775.214 907.144, 772.320 " fill="none" stroke="rgb(0, 0, 0)" stroke-linecap="butt" stroke-linejoin="round" stroke-opacity="1.0" stroke-width="3.0" />
            <path d=" M 920.995, 926.763 921.824, 924.920 922.921, 921.325 923.578, 918.677 925.427, 910.198 925.900, 904.935 925.780, 899.233 925.650, 897.237 924.878, 892.521 923.392, 888.079 920.153, 879.090 917.648, 874.163 917.348, 873.573 917.212, 873.305 916.738, 872.372 " fill="none" stroke="rgb(0, 0, 0)" stroke-linecap="butt" stroke-linejoin="round" stroke-opacity="1.0" stroke-width="3.0" />
            <path d=" M 606.378, 375.617 606.423, 374.878 603.743, 372.861 601.514, 372.388 600.361, 373.045 598.886, 374.305 598.782, 383.810 598.681, 385.526 598.489, 390.079 598.921, 396.091 599.958, 402.879 601.392, 412.296 603.576, 421.713 " fill="none" stroke="rgb(0, 0, 0)" stroke-linecap="butt" stroke-linejoin="round" stroke-opacity="1.0" stroke-width="3.0" />
            <path d=" M 590.954, 1001.667 591.488, 1007.534 591.340, 1010.959 591.867, 1012.462 593.865, 1017.316 595.935, 1021.973 597.300, 1022.952 599.310, 1028.055 600.662, 1032.697 600.388, 1034.503 601.786, 1042.104 601.736, 1049.912 601.754, 1050.832 602.584, 1058.043 602.657, 1058.677 " fill="none" stroke="rgb(0, 0, 0)" stroke-linecap="butt" stroke-linejoin="round" stroke-opacity="1.0" stroke-width="3.0" />
            <path d=" M 841.788, 813.851 839.578, 806.784 839.058, 804.873 837.060, 798.701 835.077, 794.789 832.175, 786.892 830.172, 782.670 827.015, 776.019 822.461, 768.707 817.745, 760.550 817.165, 759.801 " fill="none" stroke="rgb(0, 0, 0)" stroke-linecap="butt" stroke-linejoin="round" stroke-opacity="1.0" stroke-width="3.0" />
            <path d=" M 828.642, 843.196 831.418, 846.047 831.915, 846.557 833.416, 850.408 836.229, 852.650 840.682, 851.896 844.135, 847.755 844.308, 847.547 845.400, 845.757 846.868, 838.983 848.282, 830.745 848.249, 829.039 848.191, 828.502 844.889, 821.701 844.022, 817.500 841.788, 813.851 839.875, 810.725 " fill="none" stroke="rgb(0, 0, 0)" stroke-linecap="butt" stroke-linejoin="round" stroke-opacity="1.0" stroke-width="3.0" />
            <path d=" M 480.511, 873.770 482.543, 873.502 483.180, 873.418 486.372, 871.302 489.263, 871.615 492.246, 869.960 492.992, 869.484 495.050, 866.153 494.747, 861.578 494.823, 860.468 492.714, 853.968 491.085, 846.479 489.735, 840.267 489.484, 833.355 490.059, 827.176 490.518, 822.235 " fill="none" stroke="rgb(0, 0, 0)" stroke-linecap="butt" stroke-linejoin="round" stroke-opacity="1.0" stroke-width="3.0" />
            <path d=" M 587.187, 842.369 586.818, 839.982 586.585, 838.467 586.718, 828.468 586.763, 825.108 587.708, 819.062 588.909, 812.485 590.204, 802.569 590.288, 801.921 591.755, 792.030 592.056, 789.996 593.336, 784.180 593.379, 783.984 593.384, 783.964 593.531, 783.293 594.172, 780.385 " fill="none" stroke="rgb(0, 0, 0)" stroke-linecap="butt" stroke-linejoin="round" stroke-opacity="1.0" stroke-width="3.0" />
            <path d=" M 515.272, 856.211 512.982, 856.021 510.628, 855.825 508.898, 856.797 508.098, 857.624 506.799, 859.250 505.398, 862.530 505.607, 864.480 509.008, 873.884 509.181, 874.362 516.939, 880.790 522.861, 885.815 524.914, 886.777 534.056, 888.376 542.693, 887.026 543.959, 886.679 " fill="none" stroke="rgb(0, 0, 0)" stroke-linecap="butt" stroke-linejoin="round" stroke-opacity="1.0" stroke-width="3.0" />
            <path d=" M 574.015, 882.134 571.427, 881.467 571.394, 881.458 566.859, 880.289 564.254, 879.998 561.384, 879.678 554.376, 881.550 552.352, 882.476 548.583, 884.200 544.789, 886.235 544.712, 886.276 543.959, 886.679 543.392, 886.984 535.311, 890.999 526.356, 895.450 525.989, 895.632 518.901, 898.624 514.377, 901.215 513.111, 901.940 " fill="none" stroke="rgb(0, 0, 0)" stroke-linecap="butt" stroke-linejoin="round" stroke-opacity="1.0" stroke-width="3.0" />
            <path d=" M 787.966, 508.465 787.866, 506.360 787.386, 496.372 786.970, 487.701 786.326, 477.722 785.838, 470.165 785.516, 464.549 783.413, 456.603 782.090, 446.944 780.852, 443.870 778.755, 438.661 " fill="none" stroke="rgb(0, 0, 0)" stroke-linecap="butt" stroke-linejoin="round" stroke-opacity="1.0" stroke-width="3.0" />
            <path d=" M 792.871, 1010.429 793.261, 1009.688 796.754, 1003.049 796.703, 999.196 798.417, 995.020 800.519, 989.857 803.125, 984.794 805.359, 981.546 805.941, 980.003 807.806, 975.059 811.573, 965.796 811.801, 965.236 813.018, 961.634 816.498, 955.106 816.624, 954.869 817.067, 954.421 817.182, 954.304 818.028, 953.446 818.140, 953.333 818.384, 953.086 818.428, 953.042 819.450, 952.005 819.988, 948.791 820.060, 948.356 820.061, 948.354 820.485, 945.816 " fill="none" stroke="rgb(0, 0, 0)" stroke-linecap="butt" stroke-linejoin="round" stroke-opacity="1.0" stroke-width="3.0" />
            <path d=" M 605.703, 1137.119 608.988, 1141.917 611.283, 1144.834 614.060, 1147.588 615.441, 1150.344 618.636, 1155.021 624.859, 1160.371 632.693, 1161.615 636.511, 1162.115 642.111, 1163.781 651.955, 1165.503 659.078, 1165.630 662.139, 1165.656 665.060, 1164.894 666.707, 1164.459 " fill="none" stroke="rgb(0, 0, 0)" stroke-linecap="butt" stroke-linejoin="round" stroke-opacity="1.0" stroke-width="3.0" />
            <path d=" M 600.945, 444.912 601.444, 450.407 602.019, 456.722 602.196, 464.845 600.833, 474.222 600.673, 482.936 600.473, 492.934 600.356, 498.774 600.259, 507.721 600.522, 511.185 601.042, 518.018 601.066, 518.339 " fill="none" stroke="rgb(0, 0, 0)" stroke-linecap="butt" stroke-linejoin="round" stroke-opacity="1.0" stroke-width="3.0" />
            <path d=" M 893.149, 730.705 892.652, 729.702 889.453, 723.241 885.381, 716.358 884.287, 714.598 879.386, 707.321 872.979, 699.881 867.134, 693.500 860.241, 686.255 857.732, 683.618 850.763, 677.041 846.853, 673.345 844.541, 672.220 841.492, 670.737 " fill="none" stroke="rgb(0, 0, 0)" stroke-linecap="butt" stroke-linejoin="round" stroke-opacity="1.0" stroke-width="3.0" />
            <path d=" M 715.431, 1155.376 718.060, 1155.849 718.502, 1155.928 718.948, 1156.021 722.292, 1156.712 729.771, 1156.816 731.877, 1156.394 736.680, 1153.043 740.871, 1151.640 742.621, 1150.772 742.672, 1150.746 743.033, 1150.567 747.933, 1148.135 751.144, 1146.872 755.073, 1144.775 760.454, 1141.761 764.862, 1138.208 766.465, 1136.057 770.023, 1132.415 773.087, 1130.277 777.630, 1126.554 778.556, 1125.356 778.940, 1124.859 781.031, 1122.034 781.052, 1122.005 782.108, 1120.578 783.489, 1119.592 783.737, 1117.495 783.744, 1117.435 783.753, 1117.356 783.753, 1117.355 783.831, 1116.693 " fill="none" stroke="rgb(0, 0, 0)" stroke-linecap="butt" stroke-linejoin="round" stroke-opacity="1.0" stroke-width="3.0" />
            <path d=" M 826.271, 648.485 825.277, 646.221 823.935, 643.168 822.345, 639.551 822.044, 638.141 820.915, 632.847 818.945, 626.090 818.499, 621.533 818.107, 611.663 815.715, 602.851 811.031, 594.016 810.918, 593.803 805.783, 588.357 805.036, 587.565 804.522, 587.020 804.453, 586.729 802.704, 579.398 802.667, 579.243 802.588, 578.911 801.828, 575.726 799.606, 569.057 799.233, 568.614 796.112, 564.909 " fill="none" stroke="rgb(0, 0, 0)" stroke-linecap="butt" stroke-linejoin="round" stroke-opacity="1.0" stroke-width="3.0" />
            <path d=" M 493.756, 814.773 498.290, 805.860 500.289, 801.931 506.338, 793.968 506.901, 793.227 510.031, 789.723 514.384, 783.260 517.118, 778.735 519.740, 774.958 525.248, 768.540 528.484, 763.706 529.359, 762.191 533.139, 752.933 533.324, 752.478 535.685, 746.146 538.779, 736.637 539.219, 735.286 " fill="none" stroke="rgb(0, 0, 0)" stroke-linecap="butt" stroke-linejoin="round" stroke-opacity="1.0" stroke-width="3.0" />
            <path d=" M 848.013, 1031.547 848.197, 1033.575 847.297, 1041.230 846.011, 1045.648 844.752, 1049.572 841.736, 1055.308 839.940, 1058.724 842.693, 1051.485 845.657, 1043.590 847.075, 1038.085 848.013, 1031.547 848.077, 1031.102 848.103, 1030.852 848.569, 1026.452 848.962, 1022.744 849.232, 1016.166 849.774, 1010.360 848.756, 1003.943 848.677, 1003.447 848.500, 1002.334 848.525, 1001.307 848.661, 995.599 " fill="none" stroke="rgb(0, 0, 0)" stroke-linecap="butt" stroke-linejoin="round" stroke-opacity="1.0" stroke-width="3.0" />
            <path d=" M 783.589, 1116.888 783.831, 1116.693 786.292, 1114.711 788.109, 1110.702 791.285, 1102.146 792.340, 1099.273 790.375, 1094.012 791.943, 1088.755 791.648, 1085.589 791.822, 1080.083 791.778, 1079.062 791.759, 1078.634 791.685, 1076.925 791.790, 1072.001 791.045, 1070.130 790.953, 1067.112 790.808, 1062.348 790.609, 1061.185 789.420, 1058.561 790.004, 1054.787 790.471, 1051.775 789.430, 1048.003 790.709, 1040.276 791.817, 1037.429 793.686, 1033.644 792.627, 1031.318 792.589, 1031.237 790.738, 1027.175 790.571, 1024.899 " fill="none" stroke="rgb(0, 0, 0)" stroke-linecap="butt" stroke-linejoin="round" stroke-opacity="1.0" stroke-width="3.0" />
            <path d=" M 602.584, 1058.043 602.023, 1065.347 601.708, 1068.060 603.192, 1074.626 604.830, 1077.937 604.898, 1078.073 606.103, 1080.509 607.412, 1084.124 608.385, 1087.564 607.618, 1088.926 607.830, 1095.630 606.145, 1099.980 605.712, 1103.308 605.714, 1107.756 604.429, 1110.147 604.046, 1110.859 604.044, 1111.439 604.037, 1113.353 604.656, 1117.385 604.678, 1117.532 604.720, 1117.806 605.299, 1120.130 606.869, 1122.578 607.618, 1127.362 608.053, 1130.387 608.057, 1130.409 608.119, 1130.510 609.497, 1132.730 613.400, 1135.610 616.807, 1139.649 616.852, 1139.702 617.089, 1139.982 619.816, 1141.729 619.827, 1141.738 619.840, 1141.749 620.105, 1141.967 624.324, 1145.446 626.356, 1146.936 626.759, 1147.235 627.300, 1147.636 630.566, 1148.353 630.965, 1148.440 " fill="none" stroke="rgb(0, 0, 0)" stroke-linecap="butt" stroke-linejoin="round" stroke-opacity="1.0" stroke-width="3.0" />
            <path d=" M 771.128, 477.801 769.627, 467.915 768.498, 460.479 767.036, 450.587 766.904, 449.691 765.020, 439.870 763.988, 434.492 763.629, 431.363 761.832, 421.526 761.087, 417.446 759.803, 410.779 759.769, 410.604 759.547, 409.451 759.508, 409.245 759.264, 407.982 758.988, 400.462 757.223, 391.492 755.887, 386.075 754.578, 382.423 752.958, 377.901 751.057, 373.299 748.204, 366.393 " fill="none" stroke="rgb(0, 0, 0)" stroke-linecap="butt" stroke-linejoin="round" stroke-opacity="1.0" stroke-width="3.0" />
            <path d=" M 830.504, 734.602 830.600, 734.891 832.936, 741.909 835.022, 744.380 837.728, 749.255 840.970, 753.056 845.600, 760.064 848.862, 763.712 854.180, 770.111 855.719, 772.422 859.942, 778.267 863.264, 782.185 867.826, 789.738 872.119, 798.770 872.542, 799.661 875.266, 805.293 877.599, 808.794 880.273, 812.806 881.385, 815.635 881.404, 815.746 882.308, 820.901 883.185, 826.460 883.392, 832.115 882.554, 839.739 881.958, 843.810 " fill="none" stroke="rgb(0, 0, 0)" stroke-linecap="butt" stroke-linejoin="round" stroke-opacity="1.0" stroke-width="3.0" />
            <path d=" M 463.657, 812.865 462.786, 816.939 460.395, 825.889 457.742, 835.530 456.924, 838.504 454.478, 848.200 453.783, 850.958 452.311, 856.727 451.144, 862.784 450.153, 865.233 449.709, 868.654 449.226, 870.931 449.009, 873.199 448.813, 874.435 448.711, 875.076 448.699, 875.151 447.156, 884.881 446.872, 885.898 445.601, 890.450 445.162, 893.591 442.666, 897.365 441.114, 903.001 440.051, 912.944 439.872, 914.623 439.739, 916.842 440.281, 925.751 441.306, 931.380 443.380, 938.464 444.333, 940.443 448.044, 945.919 448.622, 946.656 451.377, 949.897 452.783, 950.415 454.217, 950.943 " fill="none" stroke="rgb(0, 0, 0)" stroke-linecap="butt" stroke-linejoin="round" stroke-opacity="1.0" stroke-width="3.0" />
            <path d=" M 525.073, 682.380 517.839, 687.510 515.244, 689.415 509.754, 694.362 502.994, 700.885 496.281, 708.410 490.388, 716.489 488.161, 719.542 485.900, 723.193 481.806, 729.992 477.700, 739.110 475.588, 743.801 472.128, 752.700 469.284, 762.287 469.031, 763.140 466.932, 771.144 465.014, 780.959 464.912, 781.483 464.119, 786.560 463.548, 796.368 463.674, 806.367 463.685, 807.221 463.456, 811.053 463.657, 812.865 464.168, 817.450 465.170, 825.584 " fill="none" stroke="rgb(0, 0, 0)" stroke-linecap="butt" stroke-linejoin="round" stroke-opacity="1.0" stroke-width="3.0" />
            <path d=" M 745.317, 409.596 745.522, 411.547 745.523, 411.551 745.709, 413.316 746.305, 418.977 746.301, 419.361 746.220, 426.890 746.963, 434.315 746.030, 444.271 745.947, 445.165 744.748, 447.570 740.331, 452.812 738.913, 454.660 738.342, 455.405 738.245, 455.532 738.144, 455.663 736.595, 457.683 736.071, 458.366 735.634, 458.936 735.061, 459.683 734.921, 459.969 732.345, 465.248 731.545, 466.885 730.461, 469.413 730.450, 469.437 730.317, 469.748 730.189, 470.046 730.186, 470.053 729.048, 472.706 728.959, 472.913 728.832, 473.208 728.783, 473.322 727.943, 475.280 726.794, 477.959 725.495, 479.147 723.967, 480.544 723.935, 480.574 719.966, 484.204 710.452, 487.283 709.105, 487.719 704.290, 488.837 703.368, 489.051 703.005, 489.135 698.967, 488.921 698.418, 488.892 698.356, 488.889 698.356, 488.889 697.673, 488.853 696.113, 488.770 692.064, 488.555 691.706, 488.536 687.484, 487.177 684.051, 486.071 683.551, 485.910 681.993, 485.409 681.839, 485.359 681.748, 485.330 681.306, 485.187 679.064, 482.680 676.159, 479.432 675.199, 478.358 674.944, 478.073 674.454, 477.287 671.058, 471.838 669.382, 469.629 668.897, 468.988 668.864, 468.946 668.350, 468.267 667.974, 467.771 667.964, 467.759 666.811, 466.239 666.496, 465.823 666.010, 465.183 662.518, 460.580 658.358, 455.733 658.331, 455.702 658.102, 455.434 655.683, 452.617 652.990, 451.454 652.222, 451.122 " fill="none" stroke="rgb(0, 0, 0)" stroke-linecap="butt" stroke-linejoin="round" stroke-opacity="1.0" stroke-width="3.0" />
            <path d=" M 579.387, 739.531 579.442, 739.813 580.268, 744.072 580.845, 747.047 581.088, 747.922 581.291, 748.651 581.439, 748.931 581.456, 748.964 582.975, 751.831 585.439, 761.523 585.663, 762.404 586.019, 763.472 586.093, 763.696 586.101, 763.719 586.916, 766.168 586.965, 766.314 587.091, 766.693 587.952, 769.278 588.156, 769.891 589.016, 771.223 591.525, 775.112 591.958, 775.973 592.380, 776.814 592.958, 777.967 593.099, 778.248 593.233, 778.515 593.308, 778.664 593.976, 779.996 594.172, 780.385 595.264, 782.562 597.218, 792.369 597.322, 792.893 597.409, 800.647 596.740, 807.033 596.724, 814.768 596.678, 814.957 596.375, 816.215 595.938, 818.031 595.755, 818.792 595.124, 821.413 593.769, 830.125 591.779, 838.678 589.719, 846.069 587.034, 855.702 586.282, 858.404 584.689, 864.819 581.073, 870.214 577.969, 876.415 577.344, 877.320 574.668, 881.189 574.015, 882.134 572.499, 884.327 572.258, 884.675 572.126, 884.773 564.101, 890.739 563.089, 891.492 558.718, 893.909 556.186, 895.309 555.920, 895.589 552.325, 899.381 551.469, 900.339 551.432, 900.381 550.838, 901.045 550.434, 901.498 547.326, 904.980 " fill="none" stroke="rgb(0, 0, 0)" stroke-linecap="butt" stroke-linejoin="round" stroke-opacity="1.0" stroke-width="3.0" />
            <path d=" M 825.990, 927.356 825.646, 921.771 830.048, 917.457 831.323, 917.093 831.482, 917.047 832.320, 916.808 834.394, 916.216 838.848, 916.144 848.654, 914.731 850.184, 914.438 853.565, 911.864 855.972, 908.901 854.942, 903.160 853.339, 901.128 851.650, 898.987 851.595, 898.918 850.941, 898.089 848.345, 895.656 847.288, 894.666 845.190, 892.944 839.704, 889.762 834.222, 886.582 830.227, 884.466 824.902, 880.236 824.456, 879.882 821.859, 877.310 818.215, 873.119 815.275, 867.382 812.624, 861.504 812.016, 858.788 811.975, 858.606 811.044, 854.443 809.478, 846.339 808.289, 841.626 808.223, 841.363 807.909, 840.120 806.588, 834.187 806.568, 834.099 806.299, 832.891 804.057, 825.823 803.528, 822.849 802.808, 818.799 801.256, 813.017 799.762, 806.971 798.984, 797.002 798.917, 796.140 798.538, 787.927 799.065, 780.511 800.720, 773.465 800.939, 772.533 800.939, 772.533 801.060, 772.019 801.377, 770.669 801.025, 764.284 801.569, 759.204 802.159, 751.102 802.355, 743.676 802.349, 743.539 802.152, 739.000 802.351, 734.229 802.695, 729.131 802.768, 728.039 803.602, 726.576 806.347, 721.758 809.903, 712.740 810.560, 711.727 810.661, 711.571 811.602, 710.119 812.164, 709.253 815.594, 702.619 815.710, 702.395 " fill="none" stroke="rgb(0, 0, 0)" stroke-linecap="butt" stroke-linejoin="round" stroke-opacity="1.0" stroke-width="3.0" />
            <path d=" M 572.756, 727.754 572.186, 728.555 568.363, 733.924 565.050, 737.633 563.017, 739.778 560.835, 742.154 555.807, 747.339 553.355, 750.477 550.867, 753.583 549.438, 756.272 547.188, 759.679 543.687, 767.897 540.895, 775.692 539.122, 781.048 537.460, 786.109 535.320, 793.208 533.660, 799.280 532.246, 806.028 530.620, 812.446 528.818, 819.313 527.675, 826.033 525.875, 832.118 523.184, 841.236 521.392, 851.020 521.460, 852.406 521.462, 852.438 521.462, 852.451 521.601, 855.296 523.923, 861.078 524.735, 862.087 527.282, 863.760 530.843, 861.091 532.571, 857.580 532.676, 856.845 532.945, 854.959 532.948, 854.941 533.392, 851.830 535.082, 843.727 535.348, 842.453 536.255, 834.375 537.809, 827.198 540.313, 818.818 542.484, 813.705 544.109, 809.179 545.736, 804.052 545.880, 803.597 546.442, 801.824 547.643, 800.011 548.326, 798.980 552.488, 792.698 555.604, 788.166 558.231, 784.372 559.668, 781.660 562.659, 777.209 564.042, 774.321 566.792, 769.725 569.122, 766.151 571.357, 762.578 572.682, 760.172 573.297, 759.445 574.952, 757.487 577.288, 753.747 578.624, 752.288 580.293, 750.460 581.456, 748.964 " fill="none" stroke="rgb(0, 0, 0)" stroke-linecap="butt" stroke-linejoin="round" stroke-opacity="1.0" stroke-width="3.0" />
        </g>
    </g>
</svg>
