<?xml version='1.0' encoding='ascii'?>
<svg xmlns="http://www.w3.org/2000/svg" height="1280" version="1.1" width="1280">
    <g id="RenderLayer_LineSet" inkscape:groupmode="lineset" inkscape:label="RenderLayer_LineSet" xmlns:inkscape="http://www.inkscape.org/namespaces/inkscape">
        <g id="strokes" inkscape:groupmode="layer" inkscape:label="strokes" xmlns:inkscape="http://www.inkscape.org/namespaces/inkscape">
            <path d=" M 482.683, 617.928 487.114, 616.333 491.813, 614.821 496.028, 613.373 501.635, 611.446 " fill="none" stroke="rgb(0, 0, 0)" stroke-linecap="butt" stroke-linejoin="round" stroke-opacity="1.0" stroke-width="3.0" />
            <path d=" M 574.601, 441.158 571.533, 442.674 571.226, 442.825 571.133, 442.872 568.591, 444.127 567.202, 444.813 564.953, 446.218 559.162, 449.205 556.973, 450.668 " fill="none" stroke="rgb(0, 0, 0)" stroke-linecap="butt" stroke-linejoin="round" stroke-opacity="1.0" stroke-width="3.0" />
            <path d=" M 436.042, 727.473 436.707, 724.350 436.808, 719.992 435.925, 715.168 433.948, 710.001 433.183, 708.000 433.171, 707.969 " fill="none" stroke="rgb(0, 0, 0)" stroke-linecap="butt" stroke-linejoin="round" stroke-opacity="1.0" stroke-width="3.0" />
            <path d=" M 795.867, 587.855 797.103, 588.548 798.493, 589.329 802.680, 592.109 806.799, 595.976 809.739, 598.590 813.034, 598.889 " fill="none" stroke="rgb(0, 0, 0)" stroke-linecap="butt" stroke-linejoin="round" stroke-opacity="1.0" stroke-width="3.0" />
            <path d=" M 853.685, 780.947 855.193, 774.718 856.344, 764.784 856.904, 759.949 " fill="none" stroke="rgb(0, 0, 0)" stroke-linecap="butt" stroke-linejoin="round" stroke-opacity="1.0" stroke-width="3.0" />
            <path d=" M 496.028, 613.373 504.554, 611.803 513.684, 612.137 514.971, 612.015 517.541, 611.771 " fill="none" stroke="rgb(0, 0, 0)" stroke-linecap="butt" stroke-linejoin="round" stroke-opacity="1.0" stroke-width="3.0" />
            <path d=" M 760.554, 627.608 759.368, 618.361 759.156, 617.140 758.578, 612.810 758.045, 608.808 757.097, 607.628 756.311, 606.650 " fill="none" stroke="rgb(0, 0, 0)" stroke-linecap="butt" stroke-linejoin="round" stroke-opacity="1.0" stroke-width="3.0" />
            <path d=" M 459.225, 638.102 459.483, 637.676 463.938, 632.678 471.043, 625.642 472.368, 624.330 474.318, 622.399 " fill="none" stroke="rgb(0, 0, 0)" stroke-linecap="butt" stroke-linejoin="round" stroke-opacity="1.0" stroke-width="3.0" />
            <path d=" M 728.906, 729.816 731.164, 726.967 731.538, 726.495 731.590, 726.429 731.598, 726.420 732.539, 724.998 732.820, 724.656 735.039, 721.955 735.236, 720.676 735.239, 720.654 735.342, 719.983 736.144, 714.778 738.131, 712.206 738.411, 711.843 738.984, 711.101 " fill="none" stroke="rgb(0, 0, 0)" stroke-linecap="butt" stroke-linejoin="round" stroke-opacity="1.0" stroke-width="3.0" />
            <path d=" M 744.862, 439.804 743.161, 438.836 740.158, 436.974 736.583, 435.268 733.173, 433.641 733.145, 433.627 731.944, 432.963 731.918, 432.948 731.883, 432.929 731.738, 432.849 726.781, 430.107 725.452, 429.372 " fill="none" stroke="rgb(0, 0, 0)" stroke-linecap="butt" stroke-linejoin="round" stroke-opacity="1.0" stroke-width="3.0" />
            <path d=" M 526.838, 924.809 527.638, 929.579 529.459, 933.866 530.447, 939.696 530.727, 941.339 530.952, 942.658 532.438, 946.273 " fill="none" stroke="rgb(0, 0, 0)" stroke-linecap="butt" stroke-linejoin="round" stroke-opacity="1.0" stroke-width="3.0" />
            <path d=" M 772.066, 973.906 774.322, 973.389 775.432, 972.814 775.785, 972.631 777.424, 971.780 777.927, 971.311 778.728, 970.563 781.421, 967.185 781.765, 965.965 783.039, 961.371 783.046, 961.348 783.173, 960.888 783.770, 958.737 783.695, 958.281 783.611, 957.777 783.496, 957.079 " fill="none" stroke="rgb(0, 0, 0)" stroke-linecap="butt" stroke-linejoin="round" stroke-opacity="1.0" stroke-width="3.0" />
            <path d=" M 475.783, 539.905 473.445, 541.298 470.590, 542.999 466.557, 546.125 464.584, 548.024 460.772, 551.614 459.284, 552.628 458.455, 554.130 " fill="none" stroke="rgb(0, 0, 0)" stroke-linecap="butt" stroke-linejoin="round" stroke-opacity="1.0" stroke-width="3.0" />
            <path d=" M 449.429, 825.359 450.382, 827.500 453.132, 833.679 455.580, 839.519 459.643, 845.477 " fill="none" stroke="rgb(0, 0, 0)" stroke-linecap="butt" stroke-linejoin="round" stroke-opacity="1.0" stroke-width="3.0" />
            <path d=" M 622.390, 928.379 622.529, 928.389 627.765, 928.759 628.622, 928.820 634.576, 930.471 641.007, 930.250 641.270, 930.233 643.638, 929.414 644.647, 929.065 " fill="none" stroke="rgb(0, 0, 0)" stroke-linecap="butt" stroke-linejoin="round" stroke-opacity="1.0" stroke-width="3.0" />
            <path d=" M 769.887, 942.349 770.628, 943.030 774.776, 946.841 779.898, 947.831 781.783, 948.469 783.923, 949.192 787.124, 950.274 787.153, 950.292 787.872, 950.734 790.370, 952.270 " fill="none" stroke="rgb(0, 0, 0)" stroke-linecap="butt" stroke-linejoin="round" stroke-opacity="1.0" stroke-width="3.0" />
            <path d=" M 809.630, 923.331 811.835, 921.194 812.234, 920.807 812.889, 920.172 819.935, 913.776 825.012, 907.765 825.271, 906.359 " fill="none" stroke="rgb(0, 0, 0)" stroke-linecap="butt" stroke-linejoin="round" stroke-opacity="1.0" stroke-width="3.0" />
            <path d=" M 877.715, 564.789 876.274, 554.893 876.017, 553.126 874.705, 548.234 873.935, 545.941 873.824, 545.609 873.649, 545.231 871.121, 542.731 " fill="none" stroke="rgb(0, 0, 0)" stroke-linecap="butt" stroke-linejoin="round" stroke-opacity="1.0" stroke-width="3.0" />
            <path d=" M 622.114, 324.656 622.076, 324.872 621.189, 329.878 619.698, 335.740 619.366, 337.044 617.467, 339.680 615.676, 342.167 613.702, 346.213 613.641, 346.290 " fill="none" stroke="rgb(0, 0, 0)" stroke-linecap="butt" stroke-linejoin="round" stroke-opacity="1.0" stroke-width="3.0" />
            <path d=" M 855.053, 758.822 855.848, 752.986 855.873, 752.804 855.194, 746.662 855.190, 746.620 855.173, 746.473 855.127, 746.308 855.083, 746.154 855.054, 746.051 854.883, 745.449 854.669, 744.696 853.968, 742.227 853.004, 738.832 852.389, 736.664 852.026, 735.387 " fill="none" stroke="rgb(0, 0, 0)" stroke-linecap="butt" stroke-linejoin="round" stroke-opacity="1.0" stroke-width="3.0" />
            <path d=" M 592.227, 401.700 593.043, 397.271 593.934, 388.445 594.473, 383.104 594.224, 384.583 593.934, 388.445 " fill="none" stroke="rgb(0, 0, 0)" stroke-linecap="butt" stroke-linejoin="round" stroke-opacity="1.0" stroke-width="3.0" />
            <path d=" M 524.327, 516.930 523.399, 518.239 522.182, 519.955 522.034, 520.164 519.259, 524.878 518.239, 528.325 519.213, 532.779 519.573, 533.008 519.960, 533.254 524.768, 536.311 " fill="none" stroke="rgb(0, 0, 0)" stroke-linecap="butt" stroke-linejoin="round" stroke-opacity="1.0" stroke-width="3.0" />
            <path d=" M 753.866, 502.974 751.540, 506.267 751.184, 506.771 751.168, 506.799 748.368, 511.656 747.945, 512.194 745.689, 515.066 744.294, 516.018 742.258, 518.413 742.193, 518.490 742.126, 518.568 741.988, 518.731 741.853, 518.889 741.759, 519.000 741.494, 519.887 741.117, 521.149 740.562, 523.004 " fill="none" stroke="rgb(0, 0, 0)" stroke-linecap="butt" stroke-linejoin="round" stroke-opacity="1.0" stroke-width="3.0" />
            <path d=" M 831.529, 934.964 832.847, 927.579 833.007, 919.343 831.271, 914.901 830.954, 911.085 830.752, 910.545 " fill="none" stroke="rgb(0, 0, 0)" stroke-linecap="butt" stroke-linejoin="round" stroke-opacity="1.0" stroke-width="3.0" />
            <path d=" M 493.753, 526.895 487.618, 531.023 487.330, 531.188 482.521, 533.945 479.481, 535.569 473.445, 541.298 " fill="none" stroke="rgb(0, 0, 0)" stroke-linecap="butt" stroke-linejoin="round" stroke-opacity="1.0" stroke-width="3.0" />
            <path d=" M 737.494, 403.077 736.793, 398.230 734.966, 388.399 734.546, 386.138 734.518, 385.995 732.956, 378.078 " fill="none" stroke="rgb(0, 0, 0)" stroke-linecap="butt" stroke-linejoin="round" stroke-opacity="1.0" stroke-width="3.0" />
            <path d=" M 591.464, 420.071 587.965, 426.105 586.532, 428.054 581.129, 434.046 576.205, 438.886 575.250, 439.637 " fill="none" stroke="rgb(0, 0, 0)" stroke-linecap="butt" stroke-linejoin="round" stroke-opacity="1.0" stroke-width="3.0" />
            <path d=" M 873.122, 860.031 877.112, 855.299 879.429, 848.737 880.022, 844.582 876.845, 838.803 874.762, 837.924 " fill="none" stroke="rgb(0, 0, 0)" stroke-linecap="butt" stroke-linejoin="round" stroke-opacity="1.0" stroke-width="3.0" />
            <path d=" M 719.244, 354.595 715.956, 349.023 714.021, 344.664 712.950, 342.427 709.535, 335.708 709.405, 335.555 706.706, 332.384 706.668, 332.340 706.242, 331.839 " fill="none" stroke="rgb(0, 0, 0)" stroke-linecap="butt" stroke-linejoin="round" stroke-opacity="1.0" stroke-width="3.0" />
            <path d=" M 821.171, 655.244 820.696, 653.822 817.393, 646.017 813.266, 638.007 812.700, 637.048 809.389, 631.444 " fill="none" stroke="rgb(0, 0, 0)" stroke-linecap="butt" stroke-linejoin="round" stroke-opacity="1.0" stroke-width="3.0" />
            <path d=" M 471.215, 800.611 473.001, 807.875 475.522, 812.982 476.112, 816.213 476.177, 816.570 476.355, 817.548 476.439, 818.004 477.215, 819.317 479.507, 823.190 480.475, 824.825 480.527, 824.913 480.550, 824.952 480.610, 825.054 480.693, 825.193 " fill="none" stroke="rgb(0, 0, 0)" stroke-linecap="butt" stroke-linejoin="round" stroke-opacity="1.0" stroke-width="3.0" />
            <path d=" M 763.691, 548.118 764.182, 538.130 764.259, 536.558 765.050, 534.763 765.350, 534.082 765.484, 533.779 765.783, 533.101 767.239, 529.798 767.793, 528.542 767.965, 528.153 767.980, 527.958 767.986, 527.882 768.222, 524.927 768.261, 524.444 768.438, 522.229 " fill="none" stroke="rgb(0, 0, 0)" stroke-linecap="butt" stroke-linejoin="round" stroke-opacity="1.0" stroke-width="3.0" />
            <path d=" M 764.967, 971.307 766.549, 972.844 767.636, 973.901 770.200, 974.197 774.447, 974.394 776.609, 972.725 780.715, 969.938 781.750, 967.874 783.025, 961.628 " fill="none" stroke="rgb(0, 0, 0)" stroke-linecap="butt" stroke-linejoin="round" stroke-opacity="1.0" stroke-width="3.0" />
            <path d=" M 606.808, 358.844 606.171, 359.624 604.183, 362.060 601.298, 366.379 598.703, 370.265 595.981, 376.921 594.473, 383.104 " fill="none" stroke="rgb(0, 0, 0)" stroke-linecap="butt" stroke-linejoin="round" stroke-opacity="1.0" stroke-width="3.0" />
            <path d=" M 495.778, 847.152 499.598, 853.097 501.946, 857.818 506.320, 861.906 507.293, 863.234 508.434, 864.792 508.448, 864.810 508.935, 865.475 509.024, 865.597 509.033, 865.609 509.216, 865.859 511.118, 868.455 511.189, 868.552 512.160, 869.878 " fill="none" stroke="rgb(0, 0, 0)" stroke-linecap="butt" stroke-linejoin="round" stroke-opacity="1.0" stroke-width="3.0" />
            <path d=" M 485.525, 692.828 483.716, 698.326 483.165, 699.718 482.934, 700.303 481.437, 704.087 479.837, 707.615 479.562, 708.224 478.595, 710.357 475.288, 719.686 " fill="none" stroke="rgb(0, 0, 0)" stroke-linecap="butt" stroke-linejoin="round" stroke-opacity="1.0" stroke-width="3.0" />
            <path d=" M 815.167, 908.962 821.056, 907.058 825.271, 906.359 828.380, 905.844 831.095, 905.809 831.307, 905.806 831.538, 905.803 835.425, 905.753 837.948, 904.615 840.504, 903.462 840.507, 903.461 843.100, 902.291 " fill="none" stroke="rgb(0, 0, 0)" stroke-linecap="butt" stroke-linejoin="round" stroke-opacity="1.0" stroke-width="3.0" />
            <path d=" M 765.776, 457.846 764.890, 457.390 761.696, 455.418 761.558, 455.333 761.363, 455.125 761.301, 455.059 757.919, 451.471 756.211, 449.324 754.844, 446.289 754.763, 446.243 754.667, 446.187 752.640, 445.028 750.814, 442.280 749.093, 441.154 746.708, 440.057 745.425, 439.959 744.862, 439.804 744.458, 439.693 744.216, 439.626 743.976, 439.560 743.773, 439.504 742.781, 439.231 " fill="none" stroke="rgb(0, 0, 0)" stroke-linecap="butt" stroke-linejoin="round" stroke-opacity="1.0" stroke-width="3.0" />
            <path d=" M 857.685, 562.485 857.227, 562.683 854.124, 564.025 851.268, 566.341 851.661, 571.049 853.736, 574.109 855.115, 575.095 855.202, 575.157 855.675, 575.495 857.904, 577.088 865.533, 583.403 " fill="none" stroke="rgb(0, 0, 0)" stroke-linecap="butt" stroke-linejoin="round" stroke-opacity="1.0" stroke-width="3.0" />
            <path d=" M 752.487, 432.781 750.892, 429.212 746.656, 420.153 745.162, 416.957 739.787, 408.524 739.654, 408.316 738.472, 406.873 738.154, 406.486 737.715, 405.949 737.596, 405.805 737.341, 405.494 " fill="none" stroke="rgb(0, 0, 0)" stroke-linecap="butt" stroke-linejoin="round" stroke-opacity="1.0" stroke-width="3.0" />
            <path d=" M 832.626, 685.168 828.611, 676.009 827.976, 674.559 823.682, 666.428 823.565, 666.220 822.325, 664.032 817.982, 656.367 " fill="none" stroke="rgb(0, 0, 0)" stroke-linecap="butt" stroke-linejoin="round" stroke-opacity="1.0" stroke-width="3.0" />
            <path d=" M 789.784, 593.490 789.541, 592.532 788.303, 588.512 788.069, 587.752 787.050, 584.444 782.649, 575.464 781.834, 573.799 779.250, 568.444 776.709, 564.004 776.479, 563.603 " fill="none" stroke="rgb(0, 0, 0)" stroke-linecap="butt" stroke-linejoin="round" stroke-opacity="1.0" stroke-width="3.0" />
            <path d=" M 805.220, 953.337 804.720, 955.969 804.697, 956.087 804.531, 956.962 804.382, 957.745 805.481, 960.497 807.010, 961.726 814.145, 963.058 817.551, 962.993 823.547, 960.357 828.517, 956.241 " fill="none" stroke="rgb(0, 0, 0)" stroke-linecap="butt" stroke-linejoin="round" stroke-opacity="1.0" stroke-width="3.0" />
            <path d=" M 730.307, 932.461 724.587, 929.212 717.099, 926.658 714.420, 923.909 714.221, 923.705 713.412, 923.097 713.297, 923.011 712.017, 922.049 704.031, 916.030 702.391, 914.793 " fill="none" stroke="rgb(0, 0, 0)" stroke-linecap="butt" stroke-linejoin="round" stroke-opacity="1.0" stroke-width="3.0" />
            <path d=" M 601.107, 923.278 600.917, 923.398 600.287, 923.800 599.668, 924.193 597.744, 925.418 596.731, 926.062 594.840, 927.415 593.194, 928.594 591.876, 929.536 590.855, 930.090 590.670, 930.191 585.904, 932.777 585.700, 932.887 584.394, 933.596 584.353, 933.613 581.898, 934.636 581.404, 934.842 581.169, 934.940 580.793, 935.097 579.254, 935.738 576.605, 936.843 573.317, 938.213 571.709, 938.276 571.166, 938.297 " fill="none" stroke="rgb(0, 0, 0)" stroke-linecap="butt" stroke-linejoin="round" stroke-opacity="1.0" stroke-width="3.0" />
            <path d=" M 507.020, 861.919 507.703, 862.874 508.673, 864.228 508.695, 864.259 509.305, 865.111 509.319, 865.130 509.320, 865.132 509.525, 865.418 511.213, 867.776 511.574, 868.578 511.618, 868.674 512.146, 869.846 512.160, 869.878 512.601, 870.857 512.885, 871.485 513.192, 871.737 513.805, 872.238 518.470, 876.052 520.188, 883.429 522.534, 886.265 522.585, 886.317 525.980, 889.797 " fill="none" stroke="rgb(0, 0, 0)" stroke-linecap="butt" stroke-linejoin="round" stroke-opacity="1.0" stroke-width="3.0" />
            <path d=" M 665.648, 325.110 664.762, 326.666 664.647, 326.868 664.620, 326.917 664.459, 327.198 664.458, 327.201 664.443, 327.227 664.112, 327.808 663.936, 327.911 663.657, 328.074 661.270, 329.468 658.429, 326.940 657.793, 326.810 653.585, 324.864 653.483, 324.817 649.238, 324.917 645.205, 323.899 641.027, 321.257 639.314, 320.436 636.692, 319.214 635.583, 318.697 " fill="none" stroke="rgb(0, 0, 0)" stroke-linecap="butt" stroke-linejoin="round" stroke-opacity="1.0" stroke-width="3.0" />
            <path d=" M 831.878, 596.685 833.717, 596.909 839.443, 597.608 842.969, 597.910 848.441, 599.433 853.610, 601.458 856.680, 602.836 862.669, 606.970 864.496, 608.000 " fill="none" stroke="rgb(0, 0, 0)" stroke-linecap="butt" stroke-linejoin="round" stroke-opacity="1.0" stroke-width="3.0" />
            <path d=" M 761.363, 455.125 760.503, 453.018 758.541, 448.209 756.717, 444.386 755.957, 442.792 752.682, 433.343 752.487, 432.781 755.912, 442.176 756.717, 444.386 " fill="none" stroke="rgb(0, 0, 0)" stroke-linecap="butt" stroke-linejoin="round" stroke-opacity="1.0" stroke-width="3.0" />
            <path d=" M 734.518, 385.995 733.921, 380.618 732.573, 375.567 731.885, 373.544 731.562, 372.809 730.698, 370.844 730.552, 370.599 726.792, 364.302 725.148, 361.590 722.183, 358.078 719.244, 354.595 718.489, 353.701 " fill="none" stroke="rgb(0, 0, 0)" stroke-linecap="butt" stroke-linejoin="round" stroke-opacity="1.0" stroke-width="3.0" />
            <path d=" M 468.041, 792.776 468.222, 793.414 471.215, 800.611 468.041, 792.776 467.027, 790.273 464.559, 782.818 464.486, 777.953 464.391, 771.544 " fill="none" stroke="rgb(0, 0, 0)" stroke-linecap="butt" stroke-linejoin="round" stroke-opacity="1.0" stroke-width="3.0" />
            <path d=" M 850.769, 722.568 849.276, 717.346 848.733, 715.448 845.364, 708.158 843.561, 702.806 839.490, 696.154 838.140, 693.949 838.076, 693.844 836.225, 690.819 834.576, 687.503 " fill="none" stroke="rgb(0, 0, 0)" stroke-linecap="butt" stroke-linejoin="round" stroke-opacity="1.0" stroke-width="3.0" />
            <path d=" M 773.308, 557.380 776.479, 563.603 775.618, 561.266 773.249, 554.835 773.162, 554.601 773.013, 554.195 772.986, 554.124 772.984, 554.116 772.977, 554.099 772.911, 553.920 772.678, 552.651 771.705, 547.367 771.655, 545.652 771.552, 542.135 771.413, 537.372 771.892, 534.406 771.917, 534.253 771.994, 533.774 772.000, 533.738 772.213, 532.417 " fill="none" stroke="rgb(0, 0, 0)" stroke-linecap="butt" stroke-linejoin="round" stroke-opacity="1.0" stroke-width="3.0" />
            <path d=" M 507.468, 635.988 504.038, 644.886 503.966, 645.072 503.529, 646.435 502.179, 650.830 497.680, 659.761 496.129, 662.840 492.465, 672.145 492.165, 672.908 " fill="none" stroke="rgb(0, 0, 0)" stroke-linecap="butt" stroke-linejoin="round" stroke-opacity="1.0" stroke-width="3.0" />
            <path d=" M 461.923, 752.244 455.864, 750.460 447.165, 745.528 446.636, 745.228 445.268, 743.782 442.643, 741.006 440.482, 737.575 438.967, 735.171 438.846, 734.979 438.733, 734.677 438.622, 734.379 436.042, 727.473 435.992, 727.341 435.718, 726.607 435.414, 724.019 " fill="none" stroke="rgb(0, 0, 0)" stroke-linecap="butt" stroke-linejoin="round" stroke-opacity="1.0" stroke-width="3.0" />
            <path d=" M 530.727, 941.339 530.426, 941.842 531.917, 947.725 534.406, 950.034 537.291, 952.669 544.818, 956.608 549.738, 956.156 550.818, 956.052 554.969, 955.651 560.243, 951.887 562.150, 950.175 " fill="none" stroke="rgb(0, 0, 0)" stroke-linecap="butt" stroke-linejoin="round" stroke-opacity="1.0" stroke-width="3.0" />
            <path d=" M 543.516, 681.993 542.724, 691.083 542.689, 691.479 542.807, 692.829 544.257, 698.806 548.943, 706.413 549.343, 707.063 550.766, 709.372 552.781, 715.907 554.933, 721.443 " fill="none" stroke="rgb(0, 0, 0)" stroke-linecap="butt" stroke-linejoin="round" stroke-opacity="1.0" stroke-width="3.0" />
            <path d=" M 856.322, 751.406 856.147, 748.694 855.960, 745.783 855.951, 745.642 855.730, 742.219 855.616, 740.436 855.400, 737.087 853.008, 730.496 852.211, 728.301 850.769, 722.568 852.994, 731.584 853.123, 732.107 854.811, 737.815 " fill="none" stroke="rgb(0, 0, 0)" stroke-linecap="butt" stroke-linejoin="round" stroke-opacity="1.0" stroke-width="3.0" />
            <path d=" M 463.890, 764.990 463.110, 766.609 463.184, 774.590 464.392, 780.739 464.957, 790.654 465.135, 795.814 468.868, 802.946 469.165, 805.710 471.365, 809.106 " fill="none" stroke="rgb(0, 0, 0)" stroke-linecap="butt" stroke-linejoin="round" stroke-opacity="1.0" stroke-width="3.0" />
            <path d=" M 593.941, 401.609 592.481, 404.213 592.474, 404.226 589.096, 410.253 588.088, 412.051 582.594, 419.090 578.381, 427.232 574.693, 434.336 571.804, 441.961 " fill="none" stroke="rgb(0, 0, 0)" stroke-linecap="butt" stroke-linejoin="round" stroke-opacity="1.0" stroke-width="3.0" />
            <path d=" M 524.361, 603.404 524.337, 603.442 524.331, 603.451 523.398, 604.923 522.099, 606.972 521.081, 608.557 518.505, 612.573 518.278, 612.927 517.052, 614.838 513.382, 619.230 512.084, 621.206 510.570, 623.540 509.112, 629.453 505.989, 638.953 504.038, 644.886 " fill="none" stroke="rgb(0, 0, 0)" stroke-linecap="butt" stroke-linejoin="round" stroke-opacity="1.0" stroke-width="3.0" />
            <path d=" M 824.874, 958.051 828.517, 956.241 828.747, 956.127 829.053, 955.797 831.646, 951.346 833.166, 943.978 833.198, 943.247 833.054, 939.849 832.192, 936.619 831.544, 935.439 831.469, 935.302 831.243, 934.890 830.814, 934.110 827.946, 924.530 827.880, 924.310 827.494, 919.501 827.177, 915.423 " fill="none" stroke="rgb(0, 0, 0)" stroke-linecap="butt" stroke-linejoin="round" stroke-opacity="1.0" stroke-width="3.0" />
            <path d=" M 896.672, 606.437 893.946, 601.065 889.315, 592.203 884.880, 583.718 881.093, 574.463 879.431, 570.402 877.715, 564.789 877.078, 562.703 " fill="none" stroke="rgb(0, 0, 0)" stroke-linecap="butt" stroke-linejoin="round" stroke-opacity="1.0" stroke-width="3.0" />
            <path d=" M 532.554, 567.391 532.194, 567.758 529.524, 571.841 527.377, 579.265 525.016, 585.598 522.735, 591.772 522.236, 593.122 522.046, 593.636 521.446, 597.720 522.262, 602.800 521.999, 604.521 519.887, 608.717 518.505, 612.573 " fill="none" stroke="rgb(0, 0, 0)" stroke-linecap="butt" stroke-linejoin="round" stroke-opacity="1.0" stroke-width="3.0" />
            <path d=" M 451.004, 567.625 449.964, 569.463 449.133, 571.664 449.029, 571.941 448.736, 572.717 448.229, 578.712 445.917, 588.441 445.522, 590.101 442.072, 599.487 441.159, 601.972 437.306, 611.200 436.259, 613.709 " fill="none" stroke="rgb(0, 0, 0)" stroke-linecap="butt" stroke-linejoin="round" stroke-opacity="1.0" stroke-width="3.0" />
            <path d=" M 672.527, 930.452 678.149, 930.309 675.554, 929.834 674.980, 929.729 668.437, 928.628 661.153, 928.134 660.288, 928.076 657.289, 935.137 656.991, 935.839 656.987, 935.850 656.851, 936.170 655.696, 935.967 653.433, 935.570 651.819, 931.686 650.455, 928.405 645.893, 928.048 644.527, 927.941 " fill="none" stroke="rgb(0, 0, 0)" stroke-linecap="butt" stroke-linejoin="round" stroke-opacity="1.0" stroke-width="3.0" />
            <path d=" M 546.827, 642.173 546.660, 642.455 546.485, 642.749 543.887, 647.122 542.708, 657.052 542.539, 658.483 540.326, 664.872 540.081, 669.701 540.078, 670.259 540.705, 678.872 542.331, 682.814 542.724, 691.083 " fill="none" stroke="rgb(0, 0, 0)" stroke-linecap="butt" stroke-linejoin="round" stroke-opacity="1.0" stroke-width="3.0" />
            <path d=" M 685.074, 926.837 685.148, 926.876 685.164, 926.884 685.624, 927.127 686.517, 927.598 686.933, 927.818 687.932, 928.345 691.136, 930.036 697.343, 931.783 702.264, 934.956 711.117, 939.303 717.661, 940.362 718.549, 940.506 719.217, 940.614 719.253, 940.620 719.641, 940.683 719.701, 940.692 720.285, 940.787 720.648, 940.889 722.161, 941.315 723.322, 941.641 726.492, 942.533 726.606, 942.565 726.895, 942.595 727.079, 942.613 731.234, 943.034 731.959, 943.108 732.012, 943.113 732.354, 943.148 " fill="none" stroke="rgb(0, 0, 0)" stroke-linecap="butt" stroke-linejoin="round" stroke-opacity="1.0" stroke-width="3.0" />
            <path d=" M 882.812, 818.412 887.629, 812.152 892.697, 804.751 897.165, 798.172 903.085, 791.020 904.298, 788.998 909.221, 782.467 910.451, 780.421 912.151, 776.936 " fill="none" stroke="rgb(0, 0, 0)" stroke-linecap="butt" stroke-linejoin="round" stroke-opacity="1.0" stroke-width="3.0" />
            <path d=" M 839.490, 696.154 837.197, 690.797 835.635, 686.645 832.700, 680.801 828.440, 671.754 827.731, 670.249 826.626, 667.507 822.821, 658.678 821.171, 655.244 818.542, 649.774 " fill="none" stroke="rgb(0, 0, 0)" stroke-linecap="butt" stroke-linejoin="round" stroke-opacity="1.0" stroke-width="3.0" />
            <path d=" M 497.049, 662.795 493.179, 671.313 492.878, 672.017 492.779, 672.250 490.630, 677.283 490.197, 678.296 489.288, 680.847 488.665, 682.211 485.315, 689.542 483.211, 696.894 479.968, 706.354 478.595, 710.357 " fill="none" stroke="rgb(0, 0, 0)" stroke-linecap="butt" stroke-linejoin="round" stroke-opacity="1.0" stroke-width="3.0" />
            <path d=" M 900.941, 701.753 900.356, 705.075 899.549, 709.651 895.273, 718.690 894.588, 720.138 888.995, 728.427 887.906, 730.041 880.895, 735.145 871.778, 739.252 870.870, 739.661 869.901, 740.097 " fill="none" stroke="rgb(0, 0, 0)" stroke-linecap="butt" stroke-linejoin="round" stroke-opacity="1.0" stroke-width="3.0" />
            <path d=" M 472.493, 726.896 470.601, 733.501 470.352, 734.369 469.862, 736.078 468.068, 738.650 467.523, 744.341 467.338, 746.273 466.300, 753.166 466.293, 753.213 466.281, 753.297 466.034, 754.935 465.576, 756.512 464.973, 758.587 463.770, 762.726 463.890, 764.990 464.116, 769.240 464.471, 777.862 464.486, 777.953 " fill="none" stroke="rgb(0, 0, 0)" stroke-linecap="butt" stroke-linejoin="round" stroke-opacity="1.0" stroke-width="3.0" />
            <path d=" M 545.666, 590.730 545.459, 591.393 544.772, 593.598 544.781, 598.365 544.784, 599.536 544.785, 600.288 543.963, 605.516 542.588, 609.094 543.541, 617.776 546.212, 626.115 547.340, 631.437 547.970, 633.843 546.541, 636.677 546.485, 642.749 " fill="none" stroke="rgb(0, 0, 0)" stroke-linecap="butt" stroke-linejoin="round" stroke-opacity="1.0" stroke-width="3.0" />
            <path d=" M 787.872, 950.734 790.107, 952.808 795.029, 954.782 799.680, 954.552 800.279, 954.317 804.742, 952.568 808.421, 949.478 810.589, 945.469 813.067, 938.552 813.146, 938.331 813.384, 935.736 812.790, 933.987 812.497, 933.122 812.443, 930.781 809.426, 925.873 811.942, 921.333 812.234, 920.807 " fill="none" stroke="rgb(0, 0, 0)" stroke-linecap="butt" stroke-linejoin="round" stroke-opacity="1.0" stroke-width="3.0" />
            <path d=" M 858.368, 527.378 857.044, 525.188 854.172, 523.988 851.576, 522.895 845.163, 518.523 839.103, 514.717 836.076, 513.035 834.561, 512.273 830.137, 510.178 826.208, 508.267 823.870, 506.951 819.055, 506.403 813.490, 502.643 808.750, 500.598 " fill="none" stroke="rgb(0, 0, 0)" stroke-linecap="butt" stroke-linejoin="round" stroke-opacity="1.0" stroke-width="3.0" />
            <path d=" M 727.079, 942.613 730.772, 943.533 731.279, 943.659 731.511, 943.717 733.958, 944.326 743.779, 946.207 744.684, 946.380 744.878, 946.404 753.351, 947.438 758.146, 947.021 762.562, 945.464 766.048, 943.923 766.687, 943.617 769.028, 942.497 769.345, 942.345 771.403, 938.816 771.919, 937.931 773.030, 936.027 773.376, 933.996 774.090, 929.803 774.098, 929.759 774.107, 929.705 774.249, 928.869 " fill="none" stroke="rgb(0, 0, 0)" stroke-linecap="butt" stroke-linejoin="round" stroke-opacity="1.0" stroke-width="3.0" />
            <path d=" M 471.399, 807.341 471.952, 809.634 472.097, 810.236 472.333, 811.213 473.806, 817.324 473.811, 817.331 474.980, 819.184 475.740, 820.388 478.777, 824.267 479.005, 824.558 479.328, 824.971 479.342, 824.989 479.592, 825.309 481.679, 831.530 483.675, 834.155 485.415, 836.442 489.926, 843.026 491.120, 844.512 493.367, 847.308 494.070, 848.268 497.437, 852.866 499.725, 856.239 504.230, 861.147 " fill="none" stroke="rgb(0, 0, 0)" stroke-linecap="butt" stroke-linejoin="round" stroke-opacity="1.0" stroke-width="3.0" />
            <path d=" M 812.700, 637.048 811.922, 635.099 808.108, 627.880 804.026, 618.751 803.755, 618.145 800.583, 609.236 798.439, 604.997 796.523, 602.289 794.410, 599.134 789.784, 593.490 789.714, 593.403 789.576, 593.235 788.091, 591.424 786.631, 589.000 784.955, 586.218 781.112, 579.475 779.757, 575.261 778.836, 572.399 " fill="none" stroke="rgb(0, 0, 0)" stroke-linecap="butt" stroke-linejoin="round" stroke-opacity="1.0" stroke-width="3.0" />
            <path d=" M 433.948, 710.001 434.646, 708.320 436.955, 703.094 437.156, 699.391 437.555, 693.926 438.119, 691.096 441.230, 684.262 443.139, 676.996 445.527, 670.732 446.499, 668.128 449.314, 659.316 453.193, 650.099 454.017, 648.138 458.623, 639.262 459.225, 638.102 460.232, 636.161 " fill="none" stroke="rgb(0, 0, 0)" stroke-linecap="butt" stroke-linejoin="round" stroke-opacity="1.0" stroke-width="3.0" />
            <path d=" M 559.499, 951.138 558.403, 950.799 557.957, 950.661 557.525, 950.145 556.441, 948.850 558.951, 949.300 561.226, 949.708 561.365, 949.724 562.509, 949.853 562.823, 949.889 562.902, 949.902 563.699, 950.040 566.322, 950.495 570.374, 949.983 571.521, 949.829 577.098, 949.081 581.185, 947.333 589.084, 942.540 589.228, 942.475 595.967, 939.431 597.121, 938.910 597.701, 938.648 598.731, 938.183 599.192, 937.974 600.449, 937.407 600.831, 937.242 601.149, 937.105 607.492, 934.371 612.621, 932.160 621.318, 928.669 621.590, 928.560 622.167, 928.363 622.656, 928.196 623.287, 927.980 625.474, 927.233 626.111, 927.015 626.299, 926.951 626.787, 926.784 " fill="none" stroke="rgb(0, 0, 0)" stroke-linecap="butt" stroke-linejoin="round" stroke-opacity="1.0" stroke-width="3.0" />
            <path d=" M 459.751, 861.121 459.819, 865.881 459.828, 866.502 460.711, 871.509 461.957, 881.431 462.714, 887.460 464.801, 897.240 465.112, 898.698 467.743, 902.512 471.245, 906.338 475.467, 909.879 478.411, 911.597 484.177, 914.277 487.060, 915.383 491.295, 916.334 494.719, 916.425 498.475, 915.477 500.080, 915.838 " fill="none" stroke="rgb(0, 0, 0)" stroke-linecap="butt" stroke-linejoin="round" stroke-opacity="1.0" stroke-width="3.0" />
            <path d=" M 742.309, 705.964 742.976, 704.403 743.108, 704.095 744.225, 701.479 746.008, 697.305 746.916, 696.393 748.094, 695.211 748.326, 694.978 748.460, 694.843 749.254, 694.045 753.652, 687.746 755.892, 678.752 757.197, 671.918 760.920, 664.760 762.788, 654.936 763.440, 651.505 763.527, 645.641 763.531, 645.387 763.550, 644.060 760.444, 638.294 760.853, 628.455 760.554, 627.608 759.754, 625.343 " fill="none" stroke="rgb(0, 0, 0)" stroke-linecap="butt" stroke-linejoin="round" stroke-opacity="1.0" stroke-width="3.0" />
            <path d=" M 716.476, 994.165 717.087, 996.218 718.045, 999.438 720.813, 1000.774 722.843, 1001.523 725.902, 1000.751 733.339, 997.337 741.406, 991.428 741.556, 991.319 748.681, 984.302 749.438, 983.557 752.606, 978.238 758.346, 970.009 758.723, 969.467 759.331, 968.083 759.338, 968.065 759.374, 967.983 759.557, 967.566 762.734, 960.322 765.788, 951.743 766.687, 943.617 " fill="none" stroke="rgb(0, 0, 0)" stroke-linecap="butt" stroke-linejoin="round" stroke-opacity="1.0" stroke-width="3.0" />
            <path d=" M 851.840, 903.967 854.395, 904.582 862.445, 898.950 868.715, 893.139 871.328, 885.442 872.429, 882.491 873.669, 876.333 873.945, 874.698 874.126, 866.553 873.122, 860.031 873.112, 859.969 873.086, 859.802 873.068, 859.685 872.982, 859.122 872.938, 858.839 872.499, 849.666 874.120, 841.305 874.762, 837.924 875.371, 834.711 878.222, 826.813 878.371, 826.402 878.746, 825.363 " fill="none" stroke="rgb(0, 0, 0)" stroke-linecap="butt" stroke-linejoin="round" stroke-opacity="1.0" stroke-width="3.0" />
            <path d=" M 841.452, 825.538 842.133, 824.220 842.182, 824.124 844.020, 820.567 844.036, 820.535 844.246, 820.130 844.611, 819.421 846.395, 815.969 846.779, 814.885 846.817, 814.777 847.701, 812.280 848.147, 811.022 848.245, 810.745 848.257, 810.711 849.641, 806.805 850.101, 805.861 851.962, 802.042 854.045, 797.286 855.731, 789.828 860.493, 781.035 860.918, 780.249 862.440, 774.017 860.457, 766.666 860.307, 759.844 859.272, 752.375 856.547, 746.486 856.487, 745.946 856.159, 742.961 856.159, 742.957 856.077, 742.218 855.970, 741.237 855.616, 740.436 " fill="none" stroke="rgb(0, 0, 0)" stroke-linecap="butt" stroke-linejoin="round" stroke-opacity="1.0" stroke-width="3.0" />
            <path d=" M 571.521, 949.829 574.034, 958.332 578.460, 967.299 579.505, 969.415 585.503, 977.417 587.092, 979.536 594.334, 986.432 598.791, 990.676 605.536, 994.171 613.589, 1000.101 615.063, 1001.187 616.075, 1001.364 619.257, 1000.154 622.337, 998.377 624.049, 995.552 624.648, 994.414 626.707, 993.607 630.740, 989.246 631.062, 988.898 " fill="none" stroke="rgb(0, 0, 0)" stroke-linecap="butt" stroke-linejoin="round" stroke-opacity="1.0" stroke-width="3.0" />
            <path d=" M 872.383, 616.285 875.345, 621.712 878.972, 628.355 883.347, 637.305 886.329, 646.850 886.962, 648.875 890.908, 658.063 891.787, 660.110 895.363, 669.448 896.428, 672.227 899.923, 681.353 900.004, 682.238 900.440, 686.970 900.576, 694.904 899.938, 702.862 900.356, 705.075 " fill="none" stroke="rgb(0, 0, 0)" stroke-linecap="butt" stroke-linejoin="round" stroke-opacity="1.0" stroke-width="3.0" />
            <path d=" M 553.472, 453.376 550.947, 454.882 545.737, 458.505 537.937, 463.576 535.960, 464.633 530.117, 468.979 524.497, 473.183 522.184, 475.211 517.657, 479.324 514.482, 483.330 511.004, 487.752 509.179, 491.334 504.463, 499.943 501.902, 504.040 499.933, 508.829 496.923, 515.249 495.781, 517.908 495.407, 522.930 496.403, 525.166 496.804, 526.066 495.640, 533.465 498.262, 535.870 505.072, 534.041 510.785, 535.623 " fill="none" stroke="rgb(0, 0, 0)" stroke-linecap="butt" stroke-linejoin="round" stroke-opacity="1.0" stroke-width="3.0" />
            <path d=" M 613.850, 968.250 615.823, 969.750 616.126, 969.980 619.138, 972.268 619.146, 972.274 619.161, 972.286 619.180, 972.300 619.578, 972.602 619.588, 972.619 623.382, 979.029 625.821, 980.932 628.411, 982.666 632.496, 984.908 634.786, 985.421 641.248, 986.867 647.447, 985.839 654.103, 982.975 662.974, 982.495 672.961, 983.007 675.613, 983.143 685.072, 986.385 686.064, 986.725 695.226, 987.961 703.013, 986.123 706.409, 985.322 706.772, 985.078 710.832, 982.361 715.549, 976.041 720.406, 973.384 721.394, 972.843 723.789, 972.480 " fill="none" stroke="rgb(0, 0, 0)" stroke-linecap="butt" stroke-linejoin="round" stroke-opacity="1.0" stroke-width="3.0" />
            <path d=" M 706.238, 918.129 702.391, 914.793 700.090, 912.797 694.667, 908.847 690.036, 905.039 683.951, 901.026 682.767, 900.147 682.289, 899.793 681.982, 899.565 679.554, 897.762 677.748, 895.241 677.499, 894.893 676.516, 893.520 676.330, 893.262 671.927, 887.421 670.782, 883.150 670.247, 879.005 668.937, 874.419 668.741, 871.528 670.410, 865.276 670.865, 863.502 670.925, 856.535 672.041, 853.129 673.648, 848.224 674.019, 847.092 673.372, 840.422 668.458, 831.713 668.245, 831.336 669.538, 821.419 669.828, 819.192 672.075, 811.818 " fill="none" stroke="rgb(0, 0, 0)" stroke-linecap="butt" stroke-linejoin="round" stroke-opacity="1.0" stroke-width="3.0" />
            <path d=" M 773.990, 531.164 776.715, 530.230 777.908, 529.821 781.664, 528.534 787.035, 528.583 793.824, 530.750 794.347, 530.795 796.857, 529.434 798.333, 524.207 801.778, 521.679 804.399, 520.935 809.494, 520.601 811.650, 517.268 812.580, 514.676 813.229, 512.574 810.468, 504.787 808.750, 500.598 808.279, 499.447 805.067, 494.367 799.373, 486.654 794.254, 478.216 789.165, 471.587 781.536, 465.817 780.765, 465.206 772.210, 460.758 770.264, 459.530 765.776, 457.846 764.621, 457.413 " fill="none" stroke="rgb(0, 0, 0)" stroke-linecap="butt" stroke-linejoin="round" stroke-opacity="1.0" stroke-width="3.0" />
            <path d=" M 613.022, 798.739 619.093, 804.463 619.341, 805.629 620.815, 812.541 622.747, 820.271 625.598, 828.304 625.193, 838.296 625.158, 839.150 622.932, 848.244 622.293, 854.191 623.479, 858.835 624.546, 862.801 627.495, 868.167 630.405, 873.251 629.985, 876.062 629.588, 878.722 629.113, 880.702 627.761, 886.340 627.226, 888.570 626.650, 889.628 626.650, 889.628 625.462, 891.811 624.294, 895.498 623.080, 899.332 617.403, 907.564 616.470, 908.917 613.759, 911.120 609.865, 914.284 607.010, 917.130 606.034, 918.103 604.309, 919.823 603.711, 920.420 602.289, 921.980 602.141, 922.143 601.914, 922.392 601.107, 923.278 601.006, 923.389 600.638, 923.793 600.420, 924.032 600.179, 924.297 599.962, 924.535 " fill="none" stroke="rgb(0, 0, 0)" stroke-linecap="butt" stroke-linejoin="round" stroke-opacity="1.0" stroke-width="3.0" />
            <path d=" M 909.221, 782.467 915.092, 774.372 917.930, 770.459 922.454, 761.541 923.705, 759.075 927.242, 749.722 928.427, 746.588 930.834, 739.301 931.580, 734.559 933.106, 724.676 933.560, 721.740 933.454, 711.741 933.408, 707.429 932.490, 697.472 932.082, 693.055 930.293, 683.216 928.515, 673.433 926.162, 663.713 925.561, 661.228 922.750, 651.631 921.048, 645.817 916.618, 636.852 914.825, 633.223 910.095, 624.412 908.828, 622.052 904.316, 615.495 897.905, 607.821 897.446, 607.271 896.672, 606.437 895.532, 605.206 889.940, 600.249 889.046, 599.457 " fill="none" stroke="rgb(0, 0, 0)" stroke-linecap="butt" stroke-linejoin="round" stroke-opacity="1.0" stroke-width="3.0" />
            <path d=" M 434.027, 622.049 433.379, 622.667 432.282, 623.715 430.084, 625.813 423.983, 633.847 418.712, 642.345 418.390, 642.866 414.909, 650.444 412.722, 654.957 409.364, 664.376 408.990, 665.425 406.389, 675.081 403.787, 684.736 403.464, 685.937 401.329, 695.707 401.199, 696.300 399.797, 706.201 399.028, 711.635 398.812, 721.633 398.740, 724.971 399.187, 734.961 399.223, 735.767 400.759, 745.648 401.782, 752.233 404.004, 760.379 406.635, 767.522 409.839, 774.435 411.726, 777.977 415.353, 783.226 418.796, 787.897 424.126, 794.090 430.593, 801.717 432.065, 803.453 437.013, 808.370 442.794, 816.529 444.305, 818.661 445.703, 821.484 450.382, 827.500 " fill="none" stroke="rgb(0, 0, 0)" stroke-linecap="butt" stroke-linejoin="round" stroke-opacity="1.0" stroke-width="3.0" />
        </g>
    </g>
</svg>
