<?xml version='1.0' encoding='ascii'?>
<svg xmlns="http://www.w3.org/2000/svg" height="1280" version="1.1" width="1280">
    <g id="RenderLayer_LineSet" inkscape:groupmode="lineset" inkscape:label="RenderLayer_LineSet" xmlns:inkscape="http://www.inkscape.org/namespaces/inkscape">
        <g id="strokes" inkscape:groupmode="layer" inkscape:label="strokes" xmlns:inkscape="http://www.inkscape.org/namespaces/inkscape">
            <path d=" M 611.271, 753.303 609.818, 750.155 607.497, 745.128 607.106, 744.281 605.829, 741.514 605.726, 741.291 603.853, 737.456 602.718, 736.828 601.522, 736.166 " fill="none" stroke="rgb(0, 0, 0)" stroke-linecap="butt" stroke-linejoin="round" stroke-opacity="1.0" stroke-width="3.0" />
            <path d=" M 680.893, 607.367 675.729, 611.039 670.386, 610.807 666.609, 610.086 663.242, 611.311 663.187, 611.331 662.340, 611.901 " fill="none" stroke="rgb(0, 0, 0)" stroke-linecap="butt" stroke-linejoin="round" stroke-opacity="1.0" stroke-width="3.0" />
            <path d=" M 739.625, 646.260 737.956, 646.358 736.563, 646.440 735.729, 646.363 735.685, 646.359 735.516, 646.344 735.162, 646.312 733.597, 645.657 732.992, 645.404 730.780, 644.479 725.315, 644.178 725.121, 644.167 724.214, 644.117 724.059, 644.109 722.762, 644.037 722.695, 643.795 722.424, 642.814 722.256, 642.308 721.987, 641.498 721.931, 641.330 721.915, 641.282 721.895, 641.224 " fill="none" stroke="rgb(0, 0, 0)" stroke-linecap="butt" stroke-linejoin="round" stroke-opacity="1.0" stroke-width="3.0" />
            <path d=" M 736.395, 677.606 739.585, 677.347 746.141, 681.100 746.732, 681.056 747.278, 681.015 747.744, 680.980 747.776, 680.978 747.792, 680.976 748.278, 680.940 748.649, 680.911 749.056, 680.880 749.669, 680.833 749.842, 680.593 750.887, 679.152 751.719, 678.003 751.870, 677.793 752.513, 676.906 753.176, 675.991 " fill="none" stroke="rgb(0, 0, 0)" stroke-linecap="butt" stroke-linejoin="round" stroke-opacity="1.0" stroke-width="3.0" />
            <path d=" M 593.554, 667.450 586.979, 668.123 585.481, 668.727 585.474, 668.730 584.004, 669.323 579.221, 671.251 578.736, 671.762 578.735, 671.762 577.299, 673.271 576.814, 673.781 576.583, 674.024 576.479, 674.133 575.113, 674.619 " fill="none" stroke="rgb(0, 0, 0)" stroke-linecap="butt" stroke-linejoin="round" stroke-opacity="1.0" stroke-width="3.0" />
            <path d=" M 812.188, 571.845 810.276, 576.641 808.527, 580.613 807.151, 583.632 804.980, 588.394 804.116, 590.613 " fill="none" stroke="rgb(0, 0, 0)" stroke-linecap="butt" stroke-linejoin="round" stroke-opacity="1.0" stroke-width="3.0" />
            <path d=" M 764.556, 798.229 761.857, 800.480 758.833, 803.697 758.585, 808.250 759.149, 813.397 758.810, 815.292 758.660, 816.133 " fill="none" stroke="rgb(0, 0, 0)" stroke-linecap="butt" stroke-linejoin="round" stroke-opacity="1.0" stroke-width="3.0" />
            <path d=" M 758.810, 815.292 757.598, 815.981 755.107, 818.980 755.265, 819.962 757.054, 824.591 760.399, 828.563 761.064, 829.061 762.102, 829.836 763.648, 830.991 " fill="none" stroke="rgb(0, 0, 0)" stroke-linecap="butt" stroke-linejoin="round" stroke-opacity="1.0" stroke-width="3.0" />
            <path d=" M 769.534, 768.309 767.269, 767.097 765.643, 767.200 758.386, 769.310 756.775, 772.720 756.441, 774.167 756.073, 777.477 756.052, 777.658 " fill="none" stroke="rgb(0, 0, 0)" stroke-linecap="butt" stroke-linejoin="round" stroke-opacity="1.0" stroke-width="3.0" />
            <path d=" M 638.622, 916.094 636.954, 913.793 634.052, 909.552 633.052, 908.091 637.238, 917.173 637.598, 917.956 " fill="none" stroke="rgb(0, 0, 0)" stroke-linecap="butt" stroke-linejoin="round" stroke-opacity="1.0" stroke-width="3.0" />
            <path d=" M 495.890, 356.410 492.810, 359.079 492.152, 360.299 488.915, 364.148 487.947, 365.299 484.456, 367.891 482.972, 371.547 482.813, 371.940 " fill="none" stroke="rgb(0, 0, 0)" stroke-linecap="butt" stroke-linejoin="round" stroke-opacity="1.0" stroke-width="3.0" />
            <path d=" M 601.185, 285.567 599.261, 286.358 599.102, 286.423 596.455, 287.510 595.402, 287.942 590.089, 288.062 585.539, 290.019 583.225, 292.012 582.460, 292.973 " fill="none" stroke="rgb(0, 0, 0)" stroke-linecap="butt" stroke-linejoin="round" stroke-opacity="1.0" stroke-width="3.0" />
            <path d=" M 533.903, 715.981 533.126, 717.824 533.730, 719.949 534.328, 716.795 534.536, 715.799 534.591, 715.538 534.685, 715.087 534.699, 715.023 535.413, 711.608 535.811, 709.706 536.155, 705.068 536.284, 703.331 " fill="none" stroke="rgb(0, 0, 0)" stroke-linecap="butt" stroke-linejoin="round" stroke-opacity="1.0" stroke-width="3.0" />
            <path d=" M 523.333, 631.843 520.349, 629.792 515.959, 626.976 512.774, 624.260 509.116, 621.140 507.180, 618.393 " fill="none" stroke="rgb(0, 0, 0)" stroke-linecap="butt" stroke-linejoin="round" stroke-opacity="1.0" stroke-width="3.0" />
            <path d=" M 767.852, 639.822 768.346, 639.693 772.264, 638.673 775.981, 636.396 778.809, 634.472 781.415, 629.431 781.747, 627.437 781.511, 626.195 " fill="none" stroke="rgb(0, 0, 0)" stroke-linecap="butt" stroke-linejoin="round" stroke-opacity="1.0" stroke-width="3.0" />
            <path d=" M 655.429, 539.674 657.111, 540.349 657.896, 540.664 660.513, 541.715 660.804, 541.832 661.464, 542.096 662.096, 542.350 662.288, 542.427 662.962, 542.698 665.904, 543.261 670.115, 543.460 676.388, 543.602 " fill="none" stroke="rgb(0, 0, 0)" stroke-linecap="butt" stroke-linejoin="round" stroke-opacity="1.0" stroke-width="3.0" />
            <path d=" M 533.730, 719.949 534.435, 721.603 536.219, 725.100 538.362, 728.002 539.038, 728.917 539.052, 728.935 539.067, 728.974 540.904, 733.626 538.661, 728.706 538.362, 728.002 " fill="none" stroke="rgb(0, 0, 0)" stroke-linecap="butt" stroke-linejoin="round" stroke-opacity="1.0" stroke-width="3.0" />
            <path d=" M 618.024, 514.826 617.461, 514.021 617.281, 513.763 616.951, 513.291 613.144, 507.846 612.183, 505.338 612.024, 504.924 612.024, 504.923 611.532, 503.638 610.961, 502.555 610.577, 501.825 607.435, 495.860 " fill="none" stroke="rgb(0, 0, 0)" stroke-linecap="butt" stroke-linejoin="round" stroke-opacity="1.0" stroke-width="3.0" />
            <path d=" M 568.758, 540.196 572.259, 533.239 573.425, 525.136 573.718, 524.456 574.261, 523.196 574.432, 522.800 574.578, 522.462 574.800, 521.947 575.805, 519.615 575.809, 519.605 " fill="none" stroke="rgb(0, 0, 0)" stroke-linecap="butt" stroke-linejoin="round" stroke-opacity="1.0" stroke-width="3.0" />
            <path d=" M 550.281, 605.913 550.057, 611.116 547.696, 619.215 543.737, 626.635 " fill="none" stroke="rgb(0, 0, 0)" stroke-linecap="butt" stroke-linejoin="round" stroke-opacity="1.0" stroke-width="3.0" />
            <path d=" M 606.756, 601.308 607.942, 598.404 609.182, 595.368 609.779, 593.907 610.055, 593.219 610.138, 593.010 610.231, 592.779 610.400, 592.359 610.519, 592.062 611.093, 590.630 612.091, 588.142 612.185, 587.908 613.071, 585.698 615.048, 580.769 " fill="none" stroke="rgb(0, 0, 0)" stroke-linecap="butt" stroke-linejoin="round" stroke-opacity="1.0" stroke-width="3.0" />
            <path d=" M 790.345, 561.951 789.013, 565.095 785.550, 574.583 783.618, 579.158 783.050, 581.561 783.012, 581.722 782.958, 581.952 782.895, 582.220 782.789, 582.669 782.766, 582.767 " fill="none" stroke="rgb(0, 0, 0)" stroke-linecap="butt" stroke-linejoin="round" stroke-opacity="1.0" stroke-width="3.0" />
            <path d=" M 684.386, 996.689 685.798, 997.930 687.904, 998.802 688.115, 998.889 688.144, 998.901 688.300, 998.966 688.536, 999.063 688.812, 999.177 692.795, 1001.483 694.798, 1002.193 696.254, 1002.823 696.366, 1002.872 696.412, 1002.892 698.848, 1003.946 699.103, 1004.056 699.404, 1004.186 704.284, 1006.299 " fill="none" stroke="rgb(0, 0, 0)" stroke-linecap="butt" stroke-linejoin="round" stroke-opacity="1.0" stroke-width="3.0" />
            <path d=" M 782.051, 873.252 781.604, 883.335 781.567, 884.172 781.563, 884.271 781.411, 887.708 780.921, 890.495 780.311, 893.970 780.265, 894.231 780.233, 894.412 780.219, 894.493 779.990, 895.796 " fill="none" stroke="rgb(0, 0, 0)" stroke-linecap="butt" stroke-linejoin="round" stroke-opacity="1.0" stroke-width="3.0" />
            <path d=" M 667.758, 612.573 664.192, 612.801 662.340, 611.901 661.263, 611.378 657.276, 613.231 655.779, 612.917 650.147, 613.206 646.000, 614.497 " fill="none" stroke="rgb(0, 0, 0)" stroke-linecap="butt" stroke-linejoin="round" stroke-opacity="1.0" stroke-width="3.0" />
            <path d=" M 758.382, 907.152 757.735, 910.639 756.778, 915.217 756.193, 918.014 756.179, 918.082 756.176, 918.097 755.823, 919.783 755.807, 919.860 755.766, 920.057 755.662, 920.556 755.572, 921.080 755.137, 923.631 754.947, 925.387 754.492, 929.595 " fill="none" stroke="rgb(0, 0, 0)" stroke-linecap="butt" stroke-linejoin="round" stroke-opacity="1.0" stroke-width="3.0" />
            <path d=" M 733.282, 695.137 735.540, 697.571 737.380, 699.555 738.693, 700.234 739.612, 700.709 739.756, 700.784 740.341, 701.086 740.351, 701.091 740.921, 701.386 741.900, 701.892 744.146, 700.717 746.075, 698.095 748.042, 695.083 748.492, 694.221 748.925, 692.657 " fill="none" stroke="rgb(0, 0, 0)" stroke-linecap="butt" stroke-linejoin="round" stroke-opacity="1.0" stroke-width="3.0" />
            <path d=" M 606.242, 750.871 602.109, 743.513 601.674, 742.884 599.250, 739.385 599.004, 739.029 598.840, 738.792 598.762, 738.679 598.758, 738.673 598.626, 738.483 598.208, 737.880 597.506, 736.866 596.127, 734.873 593.945, 731.723 593.874, 731.620 593.700, 731.369 " fill="none" stroke="rgb(0, 0, 0)" stroke-linecap="butt" stroke-linejoin="round" stroke-opacity="1.0" stroke-width="3.0" />
            <path d=" M 812.841, 909.821 813.579, 905.781 814.164, 904.340 814.499, 903.516 815.907, 897.779 818.846, 888.221 819.058, 887.535 819.079, 887.419 " fill="none" stroke="rgb(0, 0, 0)" stroke-linecap="butt" stroke-linejoin="round" stroke-opacity="1.0" stroke-width="3.0" />
            <path d=" M 603.293, 731.700 607.088, 730.821 607.525, 730.719 608.252, 730.078 608.790, 729.603 608.806, 729.557 609.060, 728.798 609.110, 728.045 609.142, 727.562 609.143, 727.548 609.199, 726.702 609.234, 726.172 609.279, 725.496 609.518, 721.891 609.572, 721.071 609.518, 720.813 608.989, 718.297 608.952, 718.125 608.909, 717.919 608.874, 717.753 608.864, 717.707 608.438, 715.679 606.777, 713.272 606.686, 713.141 606.509, 712.884 " fill="none" stroke="rgb(0, 0, 0)" stroke-linecap="butt" stroke-linejoin="round" stroke-opacity="1.0" stroke-width="3.0" />
            <path d=" M 849.124, 646.267 853.105, 637.024 857.394, 627.990 858.738, 625.161 858.925, 624.766 " fill="none" stroke="rgb(0, 0, 0)" stroke-linecap="butt" stroke-linejoin="round" stroke-opacity="1.0" stroke-width="3.0" />
            <path d=" M 470.723, 468.317 463.940, 470.426 458.834, 475.467 458.799, 475.502 458.577, 475.721 458.541, 475.757 455.761, 480.807 455.401, 481.463 455.068, 482.067 454.187, 483.668 " fill="none" stroke="rgb(0, 0, 0)" stroke-linecap="butt" stroke-linejoin="round" stroke-opacity="1.0" stroke-width="3.0" />
            <path d=" M 807.226, 926.971 808.411, 923.570 808.514, 923.315 811.846, 915.091 813.221, 911.132 813.735, 906.035 814.164, 904.340 " fill="none" stroke="rgb(0, 0, 0)" stroke-linecap="butt" stroke-linejoin="round" stroke-opacity="1.0" stroke-width="3.0" />
            <path d=" M 768.908, 507.438 771.003, 508.147 771.016, 508.151 771.431, 508.292 771.723, 508.391 773.879, 509.120 777.603, 512.542 777.671, 512.604 777.757, 512.736 777.977, 513.073 778.958, 514.580 780.984, 514.363 781.986, 511.962 787.174, 507.966 " fill="none" stroke="rgb(0, 0, 0)" stroke-linecap="butt" stroke-linejoin="round" stroke-opacity="1.0" stroke-width="3.0" />
            <path d=" M 760.637, 859.264 759.244, 858.824 757.501, 858.710 756.738, 860.880 757.438, 863.520 758.449, 866.798 758.495, 866.948 759.139, 869.037 759.502, 870.704 759.617, 871.232 760.417, 874.910 760.920, 877.219 761.276, 878.856 761.361, 879.121 " fill="none" stroke="rgb(0, 0, 0)" stroke-linecap="butt" stroke-linejoin="round" stroke-opacity="1.0" stroke-width="3.0" />
            <path d=" M 492.152, 360.299 488.262, 365.556 487.808, 366.169 486.448, 368.296 485.801, 369.307 484.238, 371.622 481.085, 376.293 479.708, 381.060 " fill="none" stroke="rgb(0, 0, 0)" stroke-linecap="butt" stroke-linejoin="round" stroke-opacity="1.0" stroke-width="3.0" />
            <path d=" M 800.267, 946.671 800.632, 945.750 803.873, 937.559 804.192, 936.760 807.211, 928.171 808.514, 923.315 " fill="none" stroke="rgb(0, 0, 0)" stroke-linecap="butt" stroke-linejoin="round" stroke-opacity="1.0" stroke-width="3.0" />
            <path d=" M 730.563, 692.169 732.219, 691.759 735.304, 691.289 735.559, 691.251 737.588, 691.855 740.474, 694.273 741.003, 694.716 741.986, 695.539 743.704, 696.029 746.183, 696.736 747.517, 695.032 748.925, 692.657 749.640, 691.451 749.895, 690.107 " fill="none" stroke="rgb(0, 0, 0)" stroke-linecap="butt" stroke-linejoin="round" stroke-opacity="1.0" stroke-width="3.0" />
            <path d=" M 598.538, 686.977 601.106, 685.959 602.679, 685.013 602.831, 684.921 604.456, 682.310 604.379, 681.431 603.664, 675.206 603.404, 674.243 602.057, 671.777 599.312, 668.143 599.271, 667.889 599.192, 667.410 599.038, 666.467 " fill="none" stroke="rgb(0, 0, 0)" stroke-linecap="butt" stroke-linejoin="round" stroke-opacity="1.0" stroke-width="3.0" />
            <path d=" M 788.655, 545.625 789.374, 545.352 795.797, 542.438 796.482, 541.893 800.244, 538.898 802.105, 537.323 805.612, 533.174 806.672, 529.569 " fill="none" stroke="rgb(0, 0, 0)" stroke-linecap="butt" stroke-linejoin="round" stroke-opacity="1.0" stroke-width="3.0" />
            <path d=" M 821.076, 427.712 822.933, 424.033 823.074, 423.753 823.083, 423.736 825.206, 419.530 825.719, 415.120 824.661, 411.087 823.814, 408.765 820.208, 405.358 " fill="none" stroke="rgb(0, 0, 0)" stroke-linecap="butt" stroke-linejoin="round" stroke-opacity="1.0" stroke-width="3.0" />
            <path d=" M 619.190, 555.430 621.659, 554.399 622.316, 554.124 622.940, 553.635 626.452, 550.877 627.336, 550.183 628.129, 549.561 628.444, 549.313 631.579, 547.635 634.563, 546.037 640.649, 543.071 640.988, 542.905 " fill="none" stroke="rgb(0, 0, 0)" stroke-linecap="butt" stroke-linejoin="round" stroke-opacity="1.0" stroke-width="3.0" />
            <path d=" M 725.750, 706.762 727.934, 709.751 729.028, 711.248 731.014, 713.255 732.431, 713.583 734.362, 713.497 736.446, 709.850 740.921, 701.386 " fill="none" stroke="rgb(0, 0, 0)" stroke-linecap="butt" stroke-linejoin="round" stroke-opacity="1.0" stroke-width="3.0" />
            <path d=" M 608.354, 744.830 609.418, 745.860 610.890, 746.286 611.833, 746.559 612.247, 745.665 613.164, 743.684 613.217, 743.428 613.472, 739.332 613.492, 739.009 613.564, 737.852 614.025, 730.475 613.989, 729.737 613.359, 727.901 613.222, 727.502 613.113, 727.183 613.082, 727.094 612.557, 725.565 " fill="none" stroke="rgb(0, 0, 0)" stroke-linecap="butt" stroke-linejoin="round" stroke-opacity="1.0" stroke-width="3.0" />
            <path d=" M 735.360, 623.996 729.722, 621.455 726.336, 618.579 723.393, 617.658 723.322, 617.636 721.447, 617.049 719.266, 617.001 718.926, 616.993 716.354, 616.936 716.246, 616.934 714.829, 616.902 714.451, 616.595 712.145, 614.718 " fill="none" stroke="rgb(0, 0, 0)" stroke-linecap="butt" stroke-linejoin="round" stroke-opacity="1.0" stroke-width="3.0" />
            <path d=" M 828.188, 804.079 830.124, 797.298 830.159, 794.428 828.268, 786.230 827.455, 782.708 827.396, 778.804 " fill="none" stroke="rgb(0, 0, 0)" stroke-linecap="butt" stroke-linejoin="round" stroke-opacity="1.0" stroke-width="3.0" />
            <path d=" M 634.778, 511.126 632.746, 510.678 631.898, 510.491 630.727, 510.233 629.883, 510.046 628.836, 509.816 628.730, 509.792 628.605, 509.765 628.512, 509.744 628.489, 509.739 628.359, 509.710 628.357, 509.710 627.917, 509.613 627.645, 509.553 624.747, 508.485 620.555, 506.941 619.101, 506.406 615.072, 504.241 610.577, 501.825 " fill="none" stroke="rgb(0, 0, 0)" stroke-linecap="butt" stroke-linejoin="round" stroke-opacity="1.0" stroke-width="3.0" />
            <path d=" M 501.672, 582.962 501.945, 583.421 502.191, 583.834 502.228, 583.895 502.479, 584.318 506.827, 586.683 513.193, 590.145 514.944, 591.292 516.859, 592.546 518.832, 593.838 524.353, 594.686 " fill="none" stroke="rgb(0, 0, 0)" stroke-linecap="butt" stroke-linejoin="round" stroke-opacity="1.0" stroke-width="3.0" />
            <path d=" M 565.978, 756.887 570.421, 763.135 575.762, 771.590 575.836, 771.706 576.738, 773.383 578.057, 775.834 578.422, 776.512 579.950, 779.352 " fill="none" stroke="rgb(0, 0, 0)" stroke-linecap="butt" stroke-linejoin="round" stroke-opacity="1.0" stroke-width="3.0" />
            <path d=" M 758.397, 902.671 756.561, 902.558 754.243, 910.670 752.724, 915.333 752.469, 916.276 751.608, 920.945 751.535, 926.040 751.422, 926.723 " fill="none" stroke="rgb(0, 0, 0)" stroke-linecap="butt" stroke-linejoin="round" stroke-opacity="1.0" stroke-width="3.0" />
            <path d=" M 780.604, 558.332 782.090, 556.012 786.598, 548.973 786.743, 548.747 788.655, 545.625 790.230, 543.052 790.388, 542.771 790.621, 542.354 792.526, 538.952 792.713, 538.618 794.514, 535.401 " fill="none" stroke="rgb(0, 0, 0)" stroke-linecap="butt" stroke-linejoin="round" stroke-opacity="1.0" stroke-width="3.0" />
            <path d=" M 844.836, 449.857 841.843, 447.703 837.844, 444.826 834.655, 442.128 832.598, 440.717 830.085, 438.569 828.355, 435.913 825.487, 431.615 " fill="none" stroke="rgb(0, 0, 0)" stroke-linecap="butt" stroke-linejoin="round" stroke-opacity="1.0" stroke-width="3.0" />
            <path d=" M 419.400, 595.999 420.860, 600.826 423.133, 603.953 425.615, 604.830 428.201, 605.210 431.957, 604.182 434.505, 604.638 436.865, 604.435 437.625, 604.144 438.126, 603.637 438.262, 603.607 438.507, 603.552 438.802, 603.485 440.634, 603.073 " fill="none" stroke="rgb(0, 0, 0)" stroke-linecap="butt" stroke-linejoin="round" stroke-opacity="1.0" stroke-width="3.0" />
            <path d=" M 605.180, 451.139 607.019, 450.162 610.655, 448.230 618.389, 445.897 626.543, 439.980 629.017, 438.184 " fill="none" stroke="rgb(0, 0, 0)" stroke-linecap="butt" stroke-linejoin="round" stroke-opacity="1.0" stroke-width="3.0" />
            <path d=" M 709.101, 673.146 709.056, 674.206 708.737, 681.695 709.589, 685.728 709.799, 686.724 709.800, 686.727 709.812, 686.786 710.056, 687.941 710.061, 687.962 710.117, 688.226 710.944, 689.262 711.716, 690.228 712.569, 691.296 713.895, 692.229 714.214, 692.453 715.725, 693.515 717.058, 693.575 717.319, 693.556 718.886, 693.443 719.531, 693.396 719.907, 693.369 720.251, 693.344 " fill="none" stroke="rgb(0, 0, 0)" stroke-linecap="butt" stroke-linejoin="round" stroke-opacity="1.0" stroke-width="3.0" />
            <path d=" M 761.901, 876.229 761.548, 878.119 761.496, 878.398 761.361, 879.121 760.713, 882.599 759.809, 887.095 759.490, 890.193 759.489, 890.202 759.019, 894.764 758.898, 895.936 758.901, 896.270 758.943, 902.076 758.948, 902.705 758.958, 904.041 758.960, 904.325 758.963, 904.669 " fill="none" stroke="rgb(0, 0, 0)" stroke-linecap="butt" stroke-linejoin="round" stroke-opacity="1.0" stroke-width="3.0" />
            <path d=" M 724.016, 488.163 725.314, 488.431 730.714, 489.545 733.409, 491.696 738.167, 498.909 745.543, 505.404 " fill="none" stroke="rgb(0, 0, 0)" stroke-linecap="butt" stroke-linejoin="round" stroke-opacity="1.0" stroke-width="3.0" />
            <path d=" M 612.849, 811.950 613.528, 821.927 613.541, 822.121 615.835, 825.408 619.086, 832.780 621.601, 836.089 623.096, 838.055 " fill="none" stroke="rgb(0, 0, 0)" stroke-linecap="butt" stroke-linejoin="round" stroke-opacity="1.0" stroke-width="3.0" />
            <path d=" M 455.761, 480.807 453.016, 484.349 450.883, 492.945 450.341, 496.390 450.492, 498.329 449.806, 501.532 450.235, 505.024 451.276, 506.425 451.385, 506.568 452.315, 507.789 " fill="none" stroke="rgb(0, 0, 0)" stroke-linecap="butt" stroke-linejoin="round" stroke-opacity="1.0" stroke-width="3.0" />
            <path d=" M 804.471, 707.597 804.106, 710.145 801.353, 719.645 799.706, 723.041 799.648, 723.162 799.590, 723.282 798.462, 725.607 796.938, 728.281 796.522, 729.009 795.315, 731.126 795.042, 731.546 793.315, 734.206 " fill="none" stroke="rgb(0, 0, 0)" stroke-linecap="butt" stroke-linejoin="round" stroke-opacity="1.0" stroke-width="3.0" />
            <path d=" M 784.169, 631.663 785.873, 635.204 787.595, 641.392 788.899, 651.080 789.393, 660.068 " fill="none" stroke="rgb(0, 0, 0)" stroke-linecap="butt" stroke-linejoin="round" stroke-opacity="1.0" stroke-width="3.0" />
            <path d=" M 613.006, 593.929 613.360, 592.712 613.517, 592.173 614.278, 589.557 615.211, 586.755 616.541, 582.766 620.564, 574.898 623.388, 571.339 625.716, 569.619 626.765, 568.844 " fill="none" stroke="rgb(0, 0, 0)" stroke-linecap="butt" stroke-linejoin="round" stroke-opacity="1.0" stroke-width="3.0" />
            <path d=" M 799.297, 396.505 805.046, 396.118 812.841, 400.690 815.098, 402.120 820.208, 405.358 816.241, 402.560 815.098, 402.120 " fill="none" stroke="rgb(0, 0, 0)" stroke-linecap="butt" stroke-linejoin="round" stroke-opacity="1.0" stroke-width="3.0" />
            <path d=" M 786.929, 573.216 784.807, 578.629 783.685, 580.903 783.477, 581.324 783.336, 581.611 783.227, 581.832 782.836, 582.625 782.766, 582.767 780.855, 586.642 778.228, 595.199 778.111, 595.583 777.347, 598.070 777.220, 598.486 776.544, 601.163 " fill="none" stroke="rgb(0, 0, 0)" stroke-linecap="butt" stroke-linejoin="round" stroke-opacity="1.0" stroke-width="3.0" />
            <path d=" M 769.192, 356.378 767.796, 354.593 761.487, 346.834 760.377, 345.469 757.125, 341.456 750.839, 337.164 748.449, 334.958 " fill="none" stroke="rgb(0, 0, 0)" stroke-linecap="butt" stroke-linejoin="round" stroke-opacity="1.0" stroke-width="3.0" />
            <path d=" M 808.196, 672.712 806.520, 676.812 806.313, 677.320 806.286, 677.385 806.195, 677.607 806.377, 687.605 806.437, 690.897 805.981, 700.886 805.906, 702.514 " fill="none" stroke="rgb(0, 0, 0)" stroke-linecap="butt" stroke-linejoin="round" stroke-opacity="1.0" stroke-width="3.0" />
            <path d=" M 623.754, 287.767 623.800, 286.878 622.435, 284.893 620.828, 284.271 613.978, 283.677 606.494, 285.108 601.794, 284.849 599.230, 285.585 596.455, 287.510 " fill="none" stroke="rgb(0, 0, 0)" stroke-linecap="butt" stroke-linejoin="round" stroke-opacity="1.0" stroke-width="3.0" />
            <path d=" M 609.716, 502.573 609.400, 501.642 609.213, 501.092 607.435, 495.860 606.990, 494.551 606.390, 493.634 605.861, 492.828 604.130, 490.186 600.757, 486.985 594.178, 482.157 591.996, 480.057 591.249, 479.339 " fill="none" stroke="rgb(0, 0, 0)" stroke-linecap="butt" stroke-linejoin="round" stroke-opacity="1.0" stroke-width="3.0" />
            <path d=" M 822.908, 568.031 822.683, 562.704 822.134, 559.758 823.114, 564.595 823.504, 571.162 821.822, 577.519 821.783, 581.933 " fill="none" stroke="rgb(0, 0, 0)" stroke-linecap="butt" stroke-linejoin="round" stroke-opacity="1.0" stroke-width="3.0" />
            <path d=" M 756.073, 777.477 755.729, 777.713 751.202, 779.021 750.104, 780.259 750.049, 783.301 750.109, 784.955 752.324, 787.849 757.738, 792.636 763.673, 796.955 764.556, 798.229 764.588, 798.275 " fill="none" stroke="rgb(0, 0, 0)" stroke-linecap="butt" stroke-linejoin="round" stroke-opacity="1.0" stroke-width="3.0" />
            <path d=" M 668.676, 746.618 669.812, 746.862 670.748, 746.600 670.120, 746.606 668.676, 746.618 667.605, 746.627 665.294, 748.745 663.141, 750.447 656.752, 751.080 655.215, 748.089 654.961, 745.567 655.451, 743.008 655.117, 741.319 654.010, 740.722 652.361, 741.998 652.190, 742.131 " fill="none" stroke="rgb(0, 0, 0)" stroke-linecap="butt" stroke-linejoin="round" stroke-opacity="1.0" stroke-width="3.0" />
            <path d=" M 664.583, 969.889 665.565, 974.224 668.246, 978.498 670.209, 982.611 672.590, 985.741 675.738, 989.283 678.627, 991.950 679.022, 992.162 680.055, 992.718 680.434, 992.921 680.456, 992.933 680.566, 992.992 682.796, 994.191 682.827, 994.208 " fill="none" stroke="rgb(0, 0, 0)" stroke-linecap="butt" stroke-linejoin="round" stroke-opacity="1.0" stroke-width="3.0" />
            <path d=" M 735.772, 667.977 740.282, 667.171 740.521, 667.204 740.625, 667.218 744.534, 667.753 748.544, 668.637 748.569, 668.643 750.000, 668.958 751.469, 668.671 752.041, 668.559 752.292, 668.510 754.440, 665.817 755.538, 664.442 755.569, 664.402 756.070, 662.750 755.271, 657.837 754.190, 655.268 " fill="none" stroke="rgb(0, 0, 0)" stroke-linecap="butt" stroke-linejoin="round" stroke-opacity="1.0" stroke-width="3.0" />
            <path d=" M 815.323, 896.173 818.863, 887.641 819.178, 886.881 819.611, 885.838 821.179, 881.665 821.962, 877.257 822.799, 870.967 822.877, 865.837 " fill="none" stroke="rgb(0, 0, 0)" stroke-linecap="butt" stroke-linejoin="round" stroke-opacity="1.0" stroke-width="3.0" />
            <path d=" M 754.978, 339.338 749.552, 333.635 746.619, 330.551 745.885, 330.206 743.528, 329.096 735.141, 323.649 729.680, 320.103 " fill="none" stroke="rgb(0, 0, 0)" stroke-linecap="butt" stroke-linejoin="round" stroke-opacity="1.0" stroke-width="3.0" />
            <path d=" M 800.617, 866.965 803.424, 865.621 808.340, 862.808 810.983, 861.143 811.679, 860.705 811.698, 860.693 812.321, 860.301 813.888, 859.313 814.586, 857.882 815.528, 855.951 815.924, 855.139 816.035, 854.911 816.174, 854.701 819.723, 849.362 821.354, 844.015 " fill="none" stroke="rgb(0, 0, 0)" stroke-linecap="butt" stroke-linejoin="round" stroke-opacity="1.0" stroke-width="3.0" />
            <path d=" M 773.141, 432.731 776.884, 440.827 777.531, 443.524 777.666, 451.784 779.363, 457.630 779.954, 459.667 780.242, 460.661 780.331, 460.965 780.566, 461.775 780.774, 462.494 780.571, 461.774 780.338, 460.951 780.251, 460.641 " fill="none" stroke="rgb(0, 0, 0)" stroke-linecap="butt" stroke-linejoin="round" stroke-opacity="1.0" stroke-width="3.0" />
            <path d=" M 745.885, 330.206 737.668, 324.507 737.092, 324.108 730.970, 320.513 729.388, 319.348 720.797, 314.230 720.523, 314.067 717.243, 313.176 " fill="none" stroke="rgb(0, 0, 0)" stroke-linecap="butt" stroke-linejoin="round" stroke-opacity="1.0" stroke-width="3.0" />
            <path d=" M 447.012, 514.566 444.108, 519.678 442.371, 522.865 437.847, 527.921 433.937, 532.026 430.477, 535.544 427.141, 537.819 424.900, 539.346 " fill="none" stroke="rgb(0, 0, 0)" stroke-linecap="butt" stroke-linejoin="round" stroke-opacity="1.0" stroke-width="3.0" />
            <path d=" M 707.784, 599.610 708.004, 599.318 708.798, 598.262 708.832, 598.216 709.268, 597.636 709.829, 596.891 711.013, 595.316 711.755, 592.216 710.631, 590.221 708.871, 588.351 705.118, 584.074 702.684, 578.680 702.691, 573.286 702.323, 569.579 " fill="none" stroke="rgb(0, 0, 0)" stroke-linecap="butt" stroke-linejoin="round" stroke-opacity="1.0" stroke-width="3.0" />
            <path d=" M 591.996, 480.057 591.769, 478.647 593.057, 470.475 595.568, 465.169 601.641, 457.224 601.900, 456.885 607.019, 450.162 " fill="none" stroke="rgb(0, 0, 0)" stroke-linecap="butt" stroke-linejoin="round" stroke-opacity="1.0" stroke-width="3.0" />
            <path d=" M 832.060, 577.376 832.009, 577.399 822.867, 581.452 821.783, 581.933 816.702, 584.186 812.491, 586.219 812.475, 586.226 810.371, 587.241 809.516, 587.654 809.324, 587.747 808.286, 588.358 806.483, 589.419 806.234, 589.566 804.016, 590.871 803.236, 591.330 803.128, 591.394 802.508, 591.759 802.489, 591.770 800.929, 592.688 " fill="none" stroke="rgb(0, 0, 0)" stroke-linecap="butt" stroke-linejoin="round" stroke-opacity="1.0" stroke-width="3.0" />
            <path d=" M 458.556, 441.473 458.489, 447.572 458.453, 450.867 459.255, 454.664 460.314, 458.933 460.539, 459.842 460.362, 460.481 459.107, 465.008 458.424, 468.368 458.581, 475.261 458.577, 475.721 " fill="none" stroke="rgb(0, 0, 0)" stroke-linecap="butt" stroke-linejoin="round" stroke-opacity="1.0" stroke-width="3.0" />
            <path d=" M 823.384, 768.501 823.087, 765.936 822.412, 760.103 822.322, 755.398 822.987, 749.695 823.175, 748.087 823.437, 745.838 827.142, 739.769 829.221, 735.320 " fill="none" stroke="rgb(0, 0, 0)" stroke-linecap="butt" stroke-linejoin="round" stroke-opacity="1.0" stroke-width="3.0" />
            <path d=" M 621.601, 836.089 624.938, 841.549 625.490, 842.454 629.209, 848.865 630.168, 850.154 632.386, 853.133 633.715, 854.919 635.683, 857.629 635.946, 857.812 636.258, 858.030 637.180, 858.671 637.604, 858.966 637.859, 859.144 638.568, 859.637 638.921, 860.083 638.989, 860.169 640.685, 862.315 642.237, 864.278 " fill="none" stroke="rgb(0, 0, 0)" stroke-linecap="butt" stroke-linejoin="round" stroke-opacity="1.0" stroke-width="3.0" />
            <path d=" M 510.905, 686.488 518.576, 692.903 521.873, 695.660 528.990, 702.685 531.603, 705.264 535.158, 710.710 535.413, 711.608 " fill="none" stroke="rgb(0, 0, 0)" stroke-linecap="butt" stroke-linejoin="round" stroke-opacity="1.0" stroke-width="3.0" />
            <path d=" M 828.209, 820.223 829.886, 813.710 832.616, 807.106 832.873, 806.466 832.041, 802.821 831.153, 799.760 830.595, 792.526 829.188, 788.128 828.268, 786.230 " fill="none" stroke="rgb(0, 0, 0)" stroke-linecap="butt" stroke-linejoin="round" stroke-opacity="1.0" stroke-width="3.0" />
            <path d=" M 630.172, 744.758 630.831, 749.325 633.873, 753.618 634.415, 753.879 637.067, 755.199 638.640, 755.014 643.335, 753.857 645.323, 753.816 648.074, 753.598 652.809, 752.711 654.179, 750.680 654.204, 749.905 653.385, 746.926 " fill="none" stroke="rgb(0, 0, 0)" stroke-linecap="butt" stroke-linejoin="round" stroke-opacity="1.0" stroke-width="3.0" />
            <path d=" M 787.723, 670.428 786.250, 680.319 785.358, 686.312 784.724, 688.970 783.445, 694.332 781.673, 699.391 780.038, 704.059 779.528, 705.515 " fill="none" stroke="rgb(0, 0, 0)" stroke-linecap="butt" stroke-linejoin="round" stroke-opacity="1.0" stroke-width="3.0" />
            <path d=" M 496.185, 611.704 497.307, 611.762 498.936, 611.846 500.417, 611.387 501.570, 611.029 501.574, 611.028 501.997, 610.897 503.418, 610.456 513.083, 607.891 514.773, 607.443 522.413, 602.984 526.250, 596.114 526.017, 595.164 " fill="none" stroke="rgb(0, 0, 0)" stroke-linecap="butt" stroke-linejoin="round" stroke-opacity="1.0" stroke-width="3.0" />
            <path d=" M 822.134, 559.758 821.508, 559.302 818.243, 556.927 815.972, 556.628 813.850, 557.410 811.234, 559.632 809.169, 568.302 808.287, 577.587 807.278, 582.528 807.151, 583.632 " fill="none" stroke="rgb(0, 0, 0)" stroke-linecap="butt" stroke-linejoin="round" stroke-opacity="1.0" stroke-width="3.0" />
            <path d=" M 833.116, 535.747 834.565, 534.976 838.304, 532.986 840.216, 531.062 844.725, 524.276 846.095, 522.265 849.129, 517.808 849.377, 517.438 850.487, 511.079 850.587, 510.506 850.777, 509.422 850.802, 509.279 850.833, 509.102 850.923, 508.588 850.955, 508.404 851.052, 507.844 851.332, 506.245 851.539, 505.055 " fill="none" stroke="rgb(0, 0, 0)" stroke-linecap="butt" stroke-linejoin="round" stroke-opacity="1.0" stroke-width="3.0" />
            <path d=" M 540.904, 733.626 545.678, 738.947 549.805, 743.077 556.949, 747.342 557.514, 747.679 557.737, 747.972 562.358, 754.030 565.978, 756.887 568.400, 758.798 " fill="none" stroke="rgb(0, 0, 0)" stroke-linecap="butt" stroke-linejoin="round" stroke-opacity="1.0" stroke-width="3.0" />
            <path d=" M 587.442, 710.861 588.189, 710.377 588.208, 710.365 592.330, 707.693 592.334, 707.691 593.134, 707.172 593.389, 707.056 594.287, 706.649 594.728, 706.448 594.954, 706.346 597.489, 705.195 597.631, 705.131 603.264, 702.422 606.045, 699.774 606.209, 699.071 606.741, 696.794 606.744, 696.781 606.875, 696.219 605.413, 688.447 605.274, 688.272 605.272, 688.269 602.679, 685.013 " fill="none" stroke="rgb(0, 0, 0)" stroke-linecap="butt" stroke-linejoin="round" stroke-opacity="1.0" stroke-width="3.0" />
            <path d=" M 712.726, 645.567 713.171, 646.057 713.164, 648.244 713.164, 648.390 713.159, 650.031 714.077, 653.073 714.065, 659.456 715.596, 663.263 715.759, 663.670 715.782, 663.728 716.413, 665.297 718.350, 667.803 720.175, 667.650 723.139, 666.272 724.269, 665.747 724.551, 665.616 725.893, 664.992 726.891, 664.529 729.385, 662.997 731.063, 661.967 " fill="none" stroke="rgb(0, 0, 0)" stroke-linecap="butt" stroke-linejoin="round" stroke-opacity="1.0" stroke-width="3.0" />
            <path d=" M 708.051, 970.120 707.986, 968.125 707.979, 967.887 707.882, 964.911 707.882, 964.910 707.881, 964.898 707.878, 964.807 707.871, 964.587 707.860, 964.235 707.859, 964.216 707.852, 963.985 707.848, 963.859 707.837, 963.537 707.835, 963.480 707.834, 963.452 707.833, 963.423 707.821, 963.046 707.807, 962.613 707.792, 962.144 707.771, 961.509 707.763, 961.253 707.797, 957.011 707.423, 954.660 705.208, 948.137 704.937, 947.533 702.028, 942.256 697.764, 936.876 696.167, 934.862 " fill="none" stroke="rgb(0, 0, 0)" stroke-linecap="butt" stroke-linejoin="round" stroke-opacity="1.0" stroke-width="3.0" />
            <path d=" M 631.453, 904.310 633.576, 909.625 637.329, 918.894 638.939, 922.872 643.497, 931.773 643.735, 932.237 646.630, 937.728 646.654, 937.758 647.808, 939.201 " fill="none" stroke="rgb(0, 0, 0)" stroke-linecap="butt" stroke-linejoin="round" stroke-opacity="1.0" stroke-width="3.0" />
            <path d=" M 743.279, 628.984 740.784, 627.450 735.857, 625.168 731.805, 624.090 727.519, 623.773 726.494, 623.740 726.235, 623.731 725.873, 623.720 725.615, 623.711 724.072, 623.661 723.534, 623.643 720.743, 623.552 720.418, 623.637 719.808, 623.795 719.802, 623.797 716.088, 624.764 713.873, 625.451 712.304, 626.175 711.139, 627.877 711.109, 629.663 711.098, 630.288 711.067, 632.134 " fill="none" stroke="rgb(0, 0, 0)" stroke-linecap="butt" stroke-linejoin="round" stroke-opacity="1.0" stroke-width="3.0" />
            <path d=" M 573.012, 704.829 572.836, 704.062 572.801, 703.911 572.798, 703.898 572.584, 702.970 572.568, 702.899 572.257, 701.549 572.206, 701.325 571.958, 700.251 572.000, 699.933 572.256, 698.001 572.227, 697.429 572.218, 697.255 572.213, 697.157 572.120, 695.352 572.100, 694.944 572.061, 694.756 571.798, 693.461 571.763, 693.289 571.306, 691.046 571.012, 689.598 570.077, 688.777 569.111, 687.927 568.810, 687.663 568.646, 687.519 568.375, 687.281 568.167, 687.098 566.323, 685.476 565.577, 683.696 564.833, 681.918 564.449, 681.002 564.038, 680.019 563.833, 679.529 563.495, 678.723 562.046, 676.746 560.678, 674.879 559.172, 672.348 558.539, 671.284 558.326, 670.927 558.199, 670.713 557.979, 670.342 " fill="none" stroke="rgb(0, 0, 0)" stroke-linecap="butt" stroke-linejoin="round" stroke-opacity="1.0" stroke-width="3.0" />
            <path d=" M 668.796, 862.998 668.818, 862.790 669.010, 860.989 669.137, 859.797 669.507, 856.324 668.028, 850.906 663.757, 846.389 662.372, 844.924 658.936, 840.481 656.368, 835.091 655.527, 833.326 653.652, 830.978 652.889, 830.022 652.247, 829.218 " fill="none" stroke="rgb(0, 0, 0)" stroke-linecap="butt" stroke-linejoin="round" stroke-opacity="1.0" stroke-width="3.0" />
            <path d=" M 692.419, 930.631 692.134, 929.848 692.088, 929.720 691.989, 929.449 691.982, 929.430 690.979, 926.673 690.638, 925.815 686.945, 916.522 686.796, 916.147 683.195, 909.244 679.151, 900.988 678.047, 898.901 677.132, 897.168 677.121, 897.147 675.709, 894.477 " fill="none" stroke="rgb(0, 0, 0)" stroke-linecap="butt" stroke-linejoin="round" stroke-opacity="1.0" stroke-width="3.0" />
            <path d=" M 764.748, 798.870 764.689, 801.222 764.668, 808.685 765.177, 812.758 765.890, 817.509 765.587, 820.592 764.261, 825.752 764.057, 826.893 763.545, 829.754 763.619, 830.649 763.624, 830.709 763.648, 830.991 763.913, 834.181 763.974, 834.904 764.003, 835.259 764.005, 835.277 764.066, 836.007 764.105, 836.485 764.267, 838.427 " fill="none" stroke="rgb(0, 0, 0)" stroke-linecap="butt" stroke-linejoin="round" stroke-opacity="1.0" stroke-width="3.0" />
            <path d=" M 764.105, 836.485 763.343, 842.263 762.806, 851.242 762.740, 852.038 762.701, 852.520 762.455, 855.487 762.303, 857.335 762.329, 859.420 762.331, 859.526 762.333, 859.740 762.347, 860.804 762.388, 864.060 762.389, 864.148 762.399, 864.945 762.406, 865.505 762.409, 865.689 762.411, 865.856 762.432, 867.524 762.094, 873.068 762.089, 873.147 761.901, 876.229 761.881, 876.547 " fill="none" stroke="rgb(0, 0, 0)" stroke-linecap="butt" stroke-linejoin="round" stroke-opacity="1.0" stroke-width="3.0" />
            <path d=" M 705.663, 453.423 705.477, 454.388 705.456, 454.495 705.432, 454.620 705.154, 456.059 704.721, 458.299 704.687, 458.476 704.337, 460.079 703.888, 462.137 703.720, 462.905 703.703, 462.982 703.515, 463.847 703.320, 464.737 703.306, 464.801 703.109, 465.703 703.008, 466.165 702.171, 470.152 702.128, 470.358 701.464, 473.518 701.160, 478.299 700.912, 479.331 700.856, 479.564 700.187, 482.356 699.703, 484.372 699.317, 485.985 699.144, 488.871 699.020, 490.961 698.985, 491.549 698.910, 492.794 698.861, 493.616 698.774, 495.088 " fill="none" stroke="rgb(0, 0, 0)" stroke-linecap="butt" stroke-linejoin="round" stroke-opacity="1.0" stroke-width="3.0" />
            <path d=" M 814.733, 853.414 814.835, 853.301 816.321, 851.655 816.686, 851.250 818.649, 849.076 821.354, 844.015 824.054, 838.964 825.222, 833.253 826.045, 831.504 826.189, 831.198 826.935, 829.613 827.113, 829.233 827.529, 826.110 827.493, 825.355 827.377, 822.947 827.335, 822.063 827.291, 821.143 827.289, 821.093 827.315, 820.978 828.910, 813.927 " fill="none" stroke="rgb(0, 0, 0)" stroke-linecap="butt" stroke-linejoin="round" stroke-opacity="1.0" stroke-width="3.0" />
            <path d=" M 646.127, 526.860 652.927, 525.236 653.800, 525.028 653.834, 525.022 662.300, 523.556 665.238, 523.047 665.715, 522.964 671.821, 521.906 678.479, 519.573 680.558, 518.238 687.002, 514.351 " fill="none" stroke="rgb(0, 0, 0)" stroke-linecap="butt" stroke-linejoin="round" stroke-opacity="1.0" stroke-width="3.0" />
            <path d=" M 708.466, 685.307 708.361, 687.303 708.286, 688.728 708.269, 689.060 708.003, 690.399 707.937, 690.728 707.752, 691.656 707.718, 691.828 707.615, 692.346 707.515, 692.850 707.255, 694.155 707.052, 695.173 706.901, 695.933 706.896, 695.961 706.850, 696.334 706.799, 696.744 706.792, 697.569 706.790, 697.859 706.786, 698.316 706.913, 698.675 707.000, 698.922 707.007, 698.941 707.200, 699.489 707.230, 699.572 707.242, 699.606 707.337, 699.876 707.360, 699.942 708.033, 701.847 708.039, 701.866 708.557, 703.331 708.734, 703.833 710.726, 707.024 711.843, 707.828 711.905, 707.873 712.908, 708.595 714.817, 707.671 716.341, 706.933 719.854, 706.380 722.122, 704.783 723.342, 705.184 725.928, 707.416 727.934, 709.751 " fill="none" stroke="rgb(0, 0, 0)" stroke-linecap="butt" stroke-linejoin="round" stroke-opacity="1.0" stroke-width="3.0" />
            <path d=" M 452.341, 610.530 454.001, 612.956 457.385, 618.113 459.872, 622.182 463.681, 628.656 467.006, 633.156 471.367, 638.816 477.456, 644.267 479.135, 645.745 " fill="none" stroke="rgb(0, 0, 0)" stroke-linecap="butt" stroke-linejoin="round" stroke-opacity="1.0" stroke-width="3.0" />
            <path d=" M 643.920, 813.347 643.632, 812.392 643.832, 810.065 648.435, 803.641 648.678, 800.387 646.643, 796.182 645.219, 789.136 643.641, 788.060 639.360, 788.364 638.586, 788.723 635.693, 786.794 631.087, 785.552 628.211, 785.718 " fill="none" stroke="rgb(0, 0, 0)" stroke-linecap="butt" stroke-linejoin="round" stroke-opacity="1.0" stroke-width="3.0" />
            <path d=" M 501.297, 420.460 498.478, 425.128 495.773, 430.478 492.864, 436.460 491.342, 439.662 489.821, 443.378 484.701, 451.692 482.523, 455.402 481.821, 456.935 480.310, 460.235 " fill="none" stroke="rgb(0, 0, 0)" stroke-linecap="butt" stroke-linejoin="round" stroke-opacity="1.0" stroke-width="3.0" />
            <path d=" M 678.614, 732.250 679.897, 734.800 683.940, 740.318 686.306, 742.177 687.491, 742.678 688.917, 742.624 690.410, 740.957 690.030, 735.081 688.844, 727.564 687.731, 724.611 684.898, 720.384 684.870, 716.670 684.182, 714.695 " fill="none" stroke="rgb(0, 0, 0)" stroke-linecap="butt" stroke-linejoin="round" stroke-opacity="1.0" stroke-width="3.0" />
            <path d=" M 615.864, 622.874 618.290, 626.415 618.336, 626.482 618.799, 627.158 619.131, 627.643 620.209, 627.225 620.466, 625.593 619.528, 620.918 619.128, 618.925 618.896, 617.768 616.509, 610.114 614.854, 603.192 614.814, 603.002 614.814, 603.002 614.766, 602.777 614.759, 602.740 614.718, 602.550 614.462, 601.336 614.190, 600.045 613.425, 596.420 613.179, 594.961 613.098, 594.479 613.018, 594.003 613.006, 593.929 612.961, 593.661 612.751, 592.418 612.648, 591.806 612.648, 591.805 612.510, 590.984 612.326, 589.890 612.283, 589.634 " fill="none" stroke="rgb(0, 0, 0)" stroke-linecap="butt" stroke-linejoin="round" stroke-opacity="1.0" stroke-width="3.0" />
            <path d=" M 409.728, 577.418 413.465, 584.571 419.042, 591.884 421.695, 593.170 423.690, 593.727 428.752, 595.170 430.932, 595.004 432.253, 594.303 432.256, 594.301 432.358, 594.247 432.443, 594.202 432.763, 594.032 433.989, 593.381 434.079, 593.333 434.130, 593.306 434.184, 593.277 435.470, 592.595 435.927, 592.352 435.967, 592.331 436.565, 592.014 441.674, 591.577 443.297, 590.451 444.179, 588.248 " fill="none" stroke="rgb(0, 0, 0)" stroke-linecap="butt" stroke-linejoin="round" stroke-opacity="1.0" stroke-width="3.0" />
            <path d=" M 544.200, 601.464 543.670, 601.265 537.820, 599.518 532.495, 597.377 529.019, 595.516 526.017, 595.164 525.139, 595.060 524.353, 594.686 523.743, 594.396 522.584, 593.844 521.056, 593.117 514.669, 589.636 511.278, 587.787 511.159, 587.723 511.246, 587.757 514.226, 588.926 516.325, 589.749 520.427, 590.156 " fill="none" stroke="rgb(0, 0, 0)" stroke-linecap="butt" stroke-linejoin="round" stroke-opacity="1.0" stroke-width="3.0" />
            <path d=" M 796.853, 505.900 796.907, 502.571 796.451, 500.413 795.740, 497.047 795.721, 496.958 795.666, 496.700 795.398, 495.429 793.363, 490.517 793.012, 489.667 792.670, 488.843 792.239, 487.969 787.855, 479.084 783.721, 469.978 783.384, 469.235 782.136, 466.700 782.095, 466.574 780.774, 462.494 " fill="none" stroke="rgb(0, 0, 0)" stroke-linecap="butt" stroke-linejoin="round" stroke-opacity="1.0" stroke-width="3.0" />
            <path d=" M 696.834, 699.377 697.708, 700.076 697.732, 700.095 698.014, 700.321 699.121, 706.768 699.354, 707.599 699.403, 707.772 699.577, 708.393 699.588, 708.434 699.658, 708.683 699.728, 708.934 700.198, 710.609 700.421, 711.132 701.085, 712.684 703.343, 715.902 704.558, 717.841 706.571, 720.610 707.967, 721.688 709.064, 722.536 709.380, 722.714 710.513, 722.808 712.481, 722.970 713.861, 722.629 714.019, 721.263 714.702, 715.240 715.182, 710.656 714.817, 707.671 " fill="none" stroke="rgb(0, 0, 0)" stroke-linecap="butt" stroke-linejoin="round" stroke-opacity="1.0" stroke-width="3.0" />
            <path d=" M 530.314, 327.262 525.087, 329.180 524.532, 329.555 518.642, 333.534 514.178, 338.514 510.831, 341.529 510.269, 342.161 507.425, 345.367 503.326, 349.309 502.090, 350.498 501.329, 351.250 499.257, 353.298 498.890, 353.662 497.068, 355.463 495.817, 356.525 492.810, 359.079 " fill="none" stroke="rgb(0, 0, 0)" stroke-linecap="butt" stroke-linejoin="round" stroke-opacity="1.0" stroke-width="3.0" />
            <path d=" M 809.961, 659.915 807.344, 666.219 805.296, 676.006 804.815, 678.302 804.309, 688.290 804.083, 692.754 804.148, 699.281 804.471, 707.597 804.538, 709.314 " fill="none" stroke="rgb(0, 0, 0)" stroke-linecap="butt" stroke-linejoin="round" stroke-opacity="1.0" stroke-width="3.0" />
            <path d=" M 790.331, 552.011 793.231, 553.453 794.869, 554.267 798.410, 553.773 802.878, 553.935 803.137, 553.879 803.327, 553.838 805.124, 553.447 808.393, 552.738 814.871, 549.457 814.991, 549.396 817.961, 547.892 824.759, 543.369 825.573, 542.631 831.783, 537.000 834.565, 534.976 " fill="none" stroke="rgb(0, 0, 0)" stroke-linecap="butt" stroke-linejoin="round" stroke-opacity="1.0" stroke-width="3.0" />
            <path d=" M 849.004, 644.952 849.132, 634.953 849.154, 633.195 847.284, 625.042 843.531, 616.477 840.906, 613.653 838.981, 612.436 834.465, 610.725 828.074, 608.975 825.527, 606.525 " fill="none" stroke="rgb(0, 0, 0)" stroke-linecap="butt" stroke-linejoin="round" stroke-opacity="1.0" stroke-width="3.0" />
            <path d=" M 467.639, 398.061 464.772, 402.858 462.679, 409.626 460.561, 417.710 459.939, 419.622 458.461, 426.544 458.138, 436.230 458.556, 441.473 458.457, 445.226 458.489, 447.572 " fill="none" stroke="rgb(0, 0, 0)" stroke-linecap="butt" stroke-linejoin="round" stroke-opacity="1.0" stroke-width="3.0" />
            <path d=" M 618.535, 730.221 618.523, 730.642 619.597, 733.483 617.113, 739.826 617.087, 742.610 617.636, 747.665 619.068, 752.921 620.387, 755.724 622.195, 756.128 623.629, 754.126 624.607, 753.120 626.754, 753.740 628.266, 753.096 628.523, 752.666 630.083, 747.857 630.172, 744.758 630.188, 744.191 631.321, 740.003 631.378, 739.793 631.694, 738.624 " fill="none" stroke="rgb(0, 0, 0)" stroke-linecap="butt" stroke-linejoin="round" stroke-opacity="1.0" stroke-width="3.0" />
            <path d=" M 800.253, 397.059 799.297, 396.505 795.919, 394.549 793.185, 393.053 790.049, 391.136 789.137, 390.579 788.905, 390.437 787.823, 389.775 784.678, 387.804 784.359, 387.605 783.027, 386.770 779.371, 384.894 779.256, 384.841 779.105, 384.771 774.131, 382.486 769.630, 379.058 768.043, 377.565 767.861, 377.394 764.681, 374.403 761.412, 370.871 758.852, 367.423 758.812, 367.367 " fill="none" stroke="rgb(0, 0, 0)" stroke-linecap="butt" stroke-linejoin="round" stroke-opacity="1.0" stroke-width="3.0" />
            <path d=" M 864.685, 506.761 865.791, 505.743 865.900, 505.643 866.829, 504.788 867.253, 504.398 867.261, 504.382 867.346, 504.188 868.323, 501.964 869.807, 492.075 870.234, 489.227 871.436, 482.285 871.685, 474.308 870.367, 465.448 868.727, 459.093 868.370, 458.082 866.516, 457.413 865.866, 457.400 " fill="none" stroke="rgb(0, 0, 0)" stroke-linecap="butt" stroke-linejoin="round" stroke-opacity="1.0" stroke-width="3.0" />
            <path d=" M 772.372, 610.012 771.364, 612.250 770.353, 613.828 767.740, 617.765 763.069, 622.730 756.118, 626.498 753.632, 626.792 753.052, 626.861 753.021, 626.864 750.937, 627.110 744.027, 626.432 743.761, 626.371 742.073, 625.986 738.712, 625.217 738.085, 624.989 735.360, 623.996 727.027, 620.960 " fill="none" stroke="rgb(0, 0, 0)" stroke-linecap="butt" stroke-linejoin="round" stroke-opacity="1.0" stroke-width="3.0" />
            <path d=" M 804.592, 757.508 804.550, 762.246 804.595, 772.246 804.612, 775.964 803.572, 781.689 803.055, 790.846 800.921, 795.835 799.834, 798.377 797.724, 804.397 797.664, 806.577 798.554, 808.890 798.588, 808.977 798.984, 810.007 " fill="none" stroke="rgb(0, 0, 0)" stroke-linecap="butt" stroke-linejoin="round" stroke-opacity="1.0" stroke-width="3.0" />
            <path d=" M 481.784, 553.773 481.831, 554.068 482.333, 557.205 483.417, 560.709 485.670, 566.592 487.029, 569.714 488.974, 575.047 491.044, 577.599 495.013, 580.248 500.420, 582.713 501.672, 582.962 503.635, 583.352 507.140, 584.047 508.623, 584.882 510.600, 585.995 511.875, 586.712 512.120, 586.851 513.349, 587.698 513.544, 587.832 514.754, 588.666 516.325, 589.749 " fill="none" stroke="rgb(0, 0, 0)" stroke-linecap="butt" stroke-linejoin="round" stroke-opacity="1.0" stroke-width="3.0" />
            <path d=" M 575.257, 661.443 576.751, 661.566 577.060, 661.591 577.435, 661.473 580.521, 660.493 586.861, 659.602 593.984, 658.986 596.061, 657.565 597.194, 655.368 597.061, 654.163 597.017, 653.766 596.532, 652.388 596.329, 651.810 596.328, 651.806 596.189, 651.412 596.245, 651.140 597.133, 646.849 595.202, 645.526 593.141, 644.583 589.292, 648.164 586.742, 649.318 582.995, 651.384 577.867, 653.716 577.819, 653.738 " fill="none" stroke="rgb(0, 0, 0)" stroke-linecap="butt" stroke-linejoin="round" stroke-opacity="1.0" stroke-width="3.0" />
            <path d=" M 572.567, 451.996 566.107, 459.629 565.585, 460.247 561.556, 464.640 557.781, 466.614 556.291, 467.072 553.711, 468.588 552.031, 477.774 553.299, 483.696 556.772, 491.132 559.468, 494.290 560.238, 495.193 561.265, 495.869 " fill="none" stroke="rgb(0, 0, 0)" stroke-linecap="butt" stroke-linejoin="round" stroke-opacity="1.0" stroke-width="3.0" />
            <path d=" M 822.004, 612.799 818.927, 620.046 818.428, 621.222 817.378, 627.130 816.920, 633.538 817.007, 639.003 816.859, 641.864 816.139, 645.481 815.023, 649.708 812.166, 652.835 813.223, 656.385 812.737, 662.683 812.232, 664.030 811.521, 665.929 811.371, 666.331 " fill="none" stroke="rgb(0, 0, 0)" stroke-linecap="butt" stroke-linejoin="round" stroke-opacity="1.0" stroke-width="3.0" />
            <path d=" M 461.474, 494.659 461.615, 495.018 464.107, 501.365 467.009, 504.289 469.753, 505.963 470.740, 506.564 470.791, 506.596 471.152, 506.816 471.237, 506.868 474.580, 509.467 475.476, 512.542 476.069, 516.838 475.760, 518.380 475.721, 518.577 475.232, 521.016 473.384, 524.458 476.222, 533.574 479.058, 542.456 479.374, 543.447 " fill="none" stroke="rgb(0, 0, 0)" stroke-linecap="butt" stroke-linejoin="round" stroke-opacity="1.0" stroke-width="3.0" />
            <path d=" M 405.393, 547.618 405.150, 547.660 404.423, 547.785 403.087, 549.952 402.404, 551.419 402.573, 561.275 403.616, 566.375 404.633, 570.174 405.843, 574.116 409.749, 581.220 411.865, 584.928 414.827, 588.042 416.798, 591.809 418.424, 594.129 419.146, 595.160 419.388, 595.506 421.051, 597.878 " fill="none" stroke="rgb(0, 0, 0)" stroke-linecap="butt" stroke-linejoin="round" stroke-opacity="1.0" stroke-width="3.0" />
            <path d=" M 785.015, 378.027 784.331, 376.063 782.786, 371.630 780.051, 366.538 778.431, 363.933 776.009, 360.075 771.855, 355.060 768.208, 351.430 766.177, 349.409 760.113, 342.589 755.854, 339.787 754.244, 337.555 752.833, 335.600 749.552, 333.635 " fill="none" stroke="rgb(0, 0, 0)" stroke-linecap="butt" stroke-linejoin="round" stroke-opacity="1.0" stroke-width="3.0" />
            <path d=" M 446.739, 584.643 447.040, 585.062 447.042, 585.065 447.151, 585.216 448.314, 586.831 451.661, 591.479 455.727, 595.537 455.813, 595.623 460.257, 600.060 464.882, 602.903 467.805, 604.518 477.031, 608.375 477.142, 608.421 484.150, 610.262 486.436, 611.013 489.586, 612.048 496.185, 611.704 497.353, 611.643 498.216, 611.598 " fill="none" stroke="rgb(0, 0, 0)" stroke-linecap="butt" stroke-linejoin="round" stroke-opacity="1.0" stroke-width="3.0" />
            <path d=" M 802.508, 591.759 793.738, 595.745 788.143, 598.288 782.929, 600.015 777.423, 602.321 776.331, 602.779 776.244, 602.815 775.441, 603.151 772.588, 604.346 771.633, 606.375 771.933, 609.298 772.372, 610.012 772.844, 610.780 775.697, 615.422 777.062, 617.751 777.068, 617.761 777.319, 618.188 777.462, 618.433 778.405, 620.040 779.083, 621.197 779.902, 622.882 779.912, 622.902 780.436, 623.982 780.921, 624.980 781.158, 625.466 781.511, 626.195 784.169, 631.663 784.412, 632.165 " fill="none" stroke="rgb(0, 0, 0)" stroke-linecap="butt" stroke-linejoin="round" stroke-opacity="1.0" stroke-width="3.0" />
            <path d=" M 712.803, 664.721 712.741, 665.017 711.785, 669.605 712.652, 672.535 713.345, 674.878 713.785, 676.760 713.867, 677.114 716.531, 680.057 721.481, 681.806 726.999, 681.731 729.928, 682.116 731.024, 682.261 732.569, 682.441 732.776, 682.465 736.812, 682.935 740.768, 684.778 741.969, 685.638 742.101, 685.732 742.202, 685.804 742.244, 685.834 742.358, 685.916 743.347, 686.624 743.432, 686.685 744.388, 687.369 745.621, 687.498 747.735, 687.719 749.281, 686.594 749.281, 686.594 750.380, 685.795 750.447, 685.746 751.321, 685.109 752.632, 681.540 752.978, 680.597 753.065, 680.192 753.411, 678.588 753.425, 678.522 753.428, 678.401 753.433, 678.164 753.443, 677.714 753.455, 677.114 753.456, 677.094 753.479, 676.016 753.486, 675.693 " fill="none" stroke="rgb(0, 0, 0)" stroke-linecap="butt" stroke-linejoin="round" stroke-opacity="1.0" stroke-width="3.0" />
            <path d=" M 682.560, 536.296 688.144, 539.390 688.816, 540.241 689.263, 540.808 689.370, 540.944 690.250, 542.059 690.304, 542.128 691.291, 543.378 694.601, 547.574 694.667, 547.657 697.073, 550.876 697.106, 550.921 697.196, 551.042 697.492, 551.437 697.727, 551.777 699.252, 553.986 701.001, 556.518 702.727, 558.673 703.641, 559.814 704.911, 561.401 706.366, 563.217 712.876, 570.808 713.741, 571.817 718.305, 575.797 724.170, 581.248 726.018, 582.344 " fill="none" stroke="rgb(0, 0, 0)" stroke-linecap="butt" stroke-linejoin="round" stroke-opacity="1.0" stroke-width="3.0" />
            <path d=" M 626.543, 439.980 632.957, 437.895 642.916, 436.988 643.651, 436.921 651.413, 434.730 658.584, 433.876 668.443, 435.552 669.077, 435.660 678.802, 437.989 682.579, 438.894 685.666, 439.786 688.888, 440.424 689.265, 440.499 689.640, 440.573 " fill="none" stroke="rgb(0, 0, 0)" stroke-linecap="butt" stroke-linejoin="round" stroke-opacity="1.0" stroke-width="3.0" />
            <path d=" M 728.641, 582.838 731.571, 584.472 734.377, 586.575 736.849, 587.653 740.549, 588.370 740.722, 588.404 740.857, 588.430 741.603, 588.575 751.254, 585.957 753.099, 585.456 759.465, 582.396 763.160, 580.057 769.594, 574.746 775.310, 567.405 780.537, 558.880 781.159, 557.866 782.090, 556.012 " fill="none" stroke="rgb(0, 0, 0)" stroke-linecap="butt" stroke-linejoin="round" stroke-opacity="1.0" stroke-width="3.0" />
            <path d=" M 540.269, 598.588 540.982, 599.110 541.310, 599.350 544.200, 601.464 550.281, 605.913 551.181, 606.571 554.786, 608.799 561.363, 611.733 567.045, 614.266 575.097, 615.884 582.844, 615.875 585.177, 615.661 590.812, 615.142 594.681, 613.961 596.109, 613.524 596.228, 613.488 597.384, 613.135 597.833, 612.997 598.398, 612.825 598.751, 612.378 598.861, 612.240 599.154, 611.870 600.249, 610.485 600.490, 610.180 602.580, 607.538 603.119, 606.856 " fill="none" stroke="rgb(0, 0, 0)" stroke-linecap="butt" stroke-linejoin="round" stroke-opacity="1.0" stroke-width="3.0" />
            <path d=" M 781.673, 699.391 780.544, 701.734 779.039, 704.857 777.301, 707.538 775.480, 714.705 775.172, 717.868 774.419, 723.497 774.403, 723.617 774.310, 725.191 773.949, 731.321 772.770, 741.251 772.724, 741.637 772.391, 746.674 771.575, 754.831 770.586, 762.065 770.394, 764.046 769.534, 768.309 769.361, 769.167 768.813, 771.888 " fill="none" stroke="rgb(0, 0, 0)" stroke-linecap="butt" stroke-linejoin="round" stroke-opacity="1.0" stroke-width="3.0" />
            <path d=" M 511.156, 490.701 511.543, 494.891 511.549, 494.958 511.832, 498.029 511.840, 498.118 511.851, 498.232 511.865, 498.389 511.869, 498.435 511.871, 498.450 511.872, 498.462 512.528, 505.584 513.257, 509.171 513.267, 509.220 513.372, 509.737 513.490, 510.205 513.504, 510.262 513.512, 510.294 513.608, 510.674 513.825, 511.535 513.910, 511.871 515.019, 516.276 516.222, 521.842 516.417, 523.467 516.601, 524.997 516.681, 525.661 516.684, 525.674 517.433, 528.537 517.439, 528.560 518.706, 533.403 518.620, 538.495 517.610, 546.656 518.768, 551.973 518.922, 557.965 519.408, 562.201 520.778, 565.328 520.868, 565.535 " fill="none" stroke="rgb(0, 0, 0)" stroke-linecap="butt" stroke-linejoin="round" stroke-opacity="1.0" stroke-width="3.0" />
            <path d=" M 598.751, 612.378 599.182, 612.088 599.802, 611.669 603.064, 608.926 603.731, 608.365 604.011, 608.130 604.610, 606.981 608.000, 600.626 608.041, 600.549 609.298, 598.191 610.863, 593.711 610.950, 593.462 611.180, 592.806 611.292, 592.483 611.524, 591.821 611.592, 591.625 611.830, 590.944 612.066, 590.268 612.124, 590.102 612.283, 589.634 612.340, 589.466 613.753, 585.299 615.895, 578.987 617.859, 571.060 617.866, 571.030 618.312, 569.232 618.627, 565.645 618.803, 563.640 618.813, 563.531 619.377, 557.108 619.174, 555.814 619.118, 555.460 619.004, 554.732 618.999, 554.705 618.961, 554.459 618.944, 554.351 618.939, 554.322 618.926, 554.240 618.926, 554.237 618.840, 553.696 618.828, 553.618 618.795, 553.409 618.793, 553.392 618.610, 552.229 617.778, 546.941 617.906, 545.975 618.533, 541.240 618.573, 540.932 " fill="none" stroke="rgb(0, 0, 0)" stroke-linecap="butt" stroke-linejoin="round" stroke-opacity="1.0" stroke-width="3.0" />
            <path d=" M 858.738, 625.161 863.413, 616.608 866.627, 609.585 870.236, 603.711 873.050, 595.658 872.178, 589.620 869.095, 585.482 865.147, 577.670 862.600, 574.917 860.688, 573.646 854.897, 571.180 849.023, 570.497 843.773, 571.887 834.718, 576.129 832.009, 577.399 " fill="none" stroke="rgb(0, 0, 0)" stroke-linecap="butt" stroke-linejoin="round" stroke-opacity="1.0" stroke-width="3.0" />
            <path d=" M 559.494, 673.667 558.924, 672.417 558.426, 671.324 558.248, 670.933 558.151, 670.720 557.979, 670.342 557.255, 668.755 556.273, 666.601 555.727, 665.089 555.489, 664.427 555.297, 663.896 553.962, 660.194 552.862, 659.086 552.300, 658.519 547.379, 653.811 547.185, 653.626 547.037, 653.546 542.021, 650.839 540.801, 651.163 536.635, 652.272 536.271, 652.608 536.202, 652.672 536.103, 652.763 536.029, 652.832 535.877, 652.972 532.122, 656.438 531.013, 657.462 530.194, 658.218 529.256, 659.547 529.065, 659.818 528.970, 659.953 528.949, 660.263 528.927, 660.602 528.481, 667.402 528.490, 672.445 528.490, 672.693 528.491, 673.393 529.872, 681.355 530.160, 683.015 532.714, 689.040 534.091, 694.572 534.467, 696.085 536.155, 705.068 " fill="none" stroke="rgb(0, 0, 0)" stroke-linecap="butt" stroke-linejoin="round" stroke-opacity="1.0" stroke-width="3.0" />
            <path d=" M 738.547, 1001.907 740.220, 1004.719 740.223, 1004.726 740.715, 1005.553 741.172, 1006.321 743.232, 1006.949 745.784, 1006.106 753.416, 1004.117 757.136, 1002.645 758.527, 1002.132 764.825, 998.162 768.014, 995.599 770.900, 992.893 774.130, 989.715 779.950, 981.583 781.133, 979.931 786.908, 972.267 790.444, 967.053 791.584, 964.917 796.216, 956.054 796.586, 955.347 798.878, 950.657 800.496, 946.299 800.632, 945.750 " fill="none" stroke="rgb(0, 0, 0)" stroke-linecap="butt" stroke-linejoin="round" stroke-opacity="1.0" stroke-width="3.0" />
            <path d=" M 684.760, 713.233 686.012, 714.227 686.925, 714.952 688.557, 720.047 690.919, 725.167 694.733, 734.410 694.884, 734.775 700.136, 743.285 705.389, 751.794 705.513, 751.995 709.496, 758.535 712.868, 763.533 714.016, 765.000 716.779, 765.228 718.117, 764.962 719.282, 763.383 719.389, 761.233 718.111, 756.233 716.199, 746.417 716.078, 745.795 715.583, 742.865 713.638, 735.492 713.323, 734.299 " fill="none" stroke="rgb(0, 0, 0)" stroke-linecap="butt" stroke-linejoin="round" stroke-opacity="1.0" stroke-width="3.0" />
            <path d=" M 559.284, 493.851 559.890, 494.469 561.265, 495.869 565.053, 499.726 573.095, 505.669 574.629, 506.803 575.503, 507.437 579.001, 509.364 579.155, 509.449 579.665, 509.729 580.064, 509.949 580.537, 510.210 583.220, 511.688 583.223, 511.689 583.289, 511.726 585.013, 512.676 586.762, 513.361 590.094, 514.667 591.943, 515.392 593.612, 516.046 597.758, 518.048 602.899, 519.694 603.429, 519.864 609.854, 521.921 615.066, 523.484 621.091, 524.822 630.640, 526.922 638.422, 527.966 640.938, 528.012 643.051, 528.114 646.127, 526.860 647.419, 526.334 " fill="none" stroke="rgb(0, 0, 0)" stroke-linecap="butt" stroke-linejoin="round" stroke-opacity="1.0" stroke-width="3.0" />
            <path d=" M 652.889, 830.022 652.763, 829.749 652.354, 828.860 650.843, 825.576 650.654, 825.165 650.543, 824.924 650.464, 824.711 648.657, 819.846 645.983, 816.177 643.920, 813.347 641.560, 810.108 636.492, 801.488 635.723, 800.180 634.881, 798.641 633.428, 795.984 632.891, 795.012 630.087, 789.935 628.641, 787.316 628.211, 785.718 626.989, 781.177 622.945, 775.881 619.045, 769.287 615.790, 760.978 612.752, 755.180 612.574, 754.841 612.421, 754.549 612.283, 754.286 612.088, 754.096 611.271, 753.303 610.447, 752.502 609.797, 752.172 609.552, 752.048 607.232, 751.058 606.650, 751.127 606.242, 750.871 602.212, 748.340 " fill="none" stroke="rgb(0, 0, 0)" stroke-linecap="butt" stroke-linejoin="round" stroke-opacity="1.0" stroke-width="3.0" />
            <path d=" M 555.225, 677.076 555.259, 677.218 557.016, 684.681 559.388, 689.669 559.544, 689.999 560.581, 695.308 561.599, 698.438 562.228, 700.372 562.764, 702.020 564.854, 704.630 565.234, 705.104 565.788, 705.795 566.572, 706.775 566.757, 707.005 567.896, 707.896 567.899, 707.898 568.451, 708.330 568.550, 708.407 568.639, 708.476 568.727, 708.545 569.093, 708.831 569.510, 709.157 569.865, 709.434 569.995, 709.536 570.627, 710.030 571.018, 710.335 572.832, 711.753 573.090, 711.955 573.593, 712.348 573.601, 712.354 573.679, 712.399 574.522, 712.883 574.944, 713.125 575.520, 713.456 576.954, 714.279 577.735, 714.728 579.951, 716.773 580.028, 716.839 580.227, 717.010 580.236, 717.018 580.600, 717.329 582.763, 719.185 582.773, 719.194 582.813, 719.228 583.656, 719.951 585.570, 721.581 586.507, 722.378 586.512, 722.382 586.556, 722.420 587.328, 723.077 587.905, 723.648 588.001, 723.743 589.145, 725.119 589.168, 725.146 589.330, 725.340 590.156, 726.334 591.938, 728.478 593.700, 731.369 590.803, 725.574 590.099, 724.503 589.705, 723.904 589.703, 723.902 587.869, 721.114 587.564, 720.651 587.553, 720.634 587.162, 720.039 586.245, 718.646 586.133, 718.475 585.998, 718.269 585.458, 717.596 585.402, 717.526 585.261, 717.350 585.089, 717.135 582.865, 714.360 582.806, 714.286 581.419, 712.055 580.483, 710.549 580.324, 710.293 579.979, 709.738 579.155, 708.413 577.624, 705.949 577.121, 705.447 577.045, 705.370 576.513, 704.838 576.288, 704.614 576.106, 704.432 575.824, 704.315 574.032, 703.571 573.881, 703.508 573.227, 703.237 572.584, 702.970 " fill="none" stroke="rgb(0, 0, 0)" stroke-linecap="butt" stroke-linejoin="round" stroke-opacity="1.0" stroke-width="3.0" />
            <path d=" M 814.814, 518.033 815.905, 516.943 815.958, 516.890 817.263, 515.587 820.594, 512.060 821.768, 507.317 823.159, 503.079 823.677, 500.051 823.614, 495.758 823.767, 491.731 823.037, 486.257 822.143, 482.812 821.918, 481.947 821.900, 481.799 821.899, 481.792 821.236, 476.264 821.312, 470.220 821.681, 461.547 821.548, 461.075 819.903, 455.446 818.372, 451.753 817.191, 447.366 816.149, 444.406 815.678, 436.498 816.680, 433.329 820.377, 429.419 821.178, 427.380 822.286, 424.561 822.747, 422.982 822.790, 422.836 822.916, 422.406 824.126, 418.263 824.671, 414.799 " fill="none" stroke="rgb(0, 0, 0)" stroke-linecap="butt" stroke-linejoin="round" stroke-opacity="1.0" stroke-width="3.0" />
            <path d=" M 594.943, 804.680 595.354, 805.899 598.374, 815.432 598.469, 815.731 601.023, 824.642 603.342, 834.369 603.653, 835.673 606.714, 842.771 610.373, 852.078 613.244, 859.383 616.559, 868.817 618.467, 874.247 621.613, 882.258 625.821, 891.330 627.412, 894.758 631.308, 903.968 631.453, 904.310 633.052, 908.091 " fill="none" stroke="rgb(0, 0, 0)" stroke-linecap="butt" stroke-linejoin="round" stroke-opacity="1.0" stroke-width="3.0" />
            <path d=" M 686.375, 514.635 687.002, 514.351 688.771, 513.549 690.601, 512.413 694.629, 509.913 699.273, 507.030 701.443, 505.682 702.249, 505.182 706.844, 502.222 714.301, 495.559 716.354, 493.725 721.341, 488.634 726.813, 483.048 729.649, 479.272 732.035, 476.094 736.554, 467.173 737.409, 465.483 739.550, 457.968 739.844, 454.464 740.000, 448.274 740.015, 447.665 739.580, 445.249 739.517, 444.896 737.311, 438.757 731.381, 431.790 726.814, 431.280 721.726, 429.222 717.573, 427.862 " fill="none" stroke="rgb(0, 0, 0)" stroke-linecap="butt" stroke-linejoin="round" stroke-opacity="1.0" stroke-width="3.0" />
            <path d=" M 576.738, 773.383 578.865, 778.968 581.270, 783.437 586.717, 791.823 591.195, 798.719 594.943, 804.680 596.130, 806.569 601.212, 815.181 604.176, 820.205 607.760, 828.612 609.766, 836.531 611.058, 841.633 611.205, 842.097 611.782, 843.915 615.171, 853.323 615.788, 855.036 615.890, 855.319 615.910, 855.375 618.986, 864.890 619.423, 866.243 621.210, 872.769 622.831, 876.262 624.668, 880.839 627.762, 885.803 " fill="none" stroke="rgb(0, 0, 0)" stroke-linecap="butt" stroke-linejoin="round" stroke-opacity="1.0" stroke-width="3.0" />
            <path d=" M 825.435, 773.736 826.585, 770.046 827.952, 763.249 831.056, 753.742 831.244, 753.168 832.081, 746.383 833.965, 739.553 837.355, 730.145 837.735, 729.090 839.395, 723.679 843.807, 714.705 844.333, 713.633 844.704, 711.040 844.986, 706.358 845.982, 702.168 848.268, 698.556 852.162, 691.265 854.107, 687.597 856.628, 681.384 856.631, 676.487 855.017, 671.475 854.351, 666.992 852.444, 662.803 849.922, 655.291 849.782, 654.789 " fill="none" stroke="rgb(0, 0, 0)" stroke-linecap="butt" stroke-linejoin="round" stroke-opacity="1.0" stroke-width="3.0" />
            <path d=" M 810.563, 732.362 808.335, 733.288 808.118, 733.378 807.019, 736.722 806.935, 736.980 806.527, 738.220 805.784, 740.515 803.630, 745.109 803.352, 745.704 803.311, 745.969 803.276, 746.194 802.168, 753.403 802.234, 760.429 802.207, 768.083 802.207, 768.142 802.207, 768.267 802.195, 771.582 801.440, 776.761 801.165, 778.648 800.503, 787.140 798.911, 796.016 797.687, 804.492 795.731, 810.989 791.601, 820.097 791.324, 820.709 789.988, 828.092 789.627, 831.970 789.270, 835.793 789.106, 837.549 789.086, 838.274 788.843, 847.199 788.839, 848.307 788.836, 849.049 788.828, 851.199 789.204, 854.001 789.321, 854.875 789.488, 856.117 789.490, 856.136 789.494, 856.161 789.680, 857.546 789.985, 859.822 790.025, 860.009 790.314, 861.378 790.321, 861.411 790.388, 861.733 791.539, 867.186 792.168, 870.163 " fill="none" stroke="rgb(0, 0, 0)" stroke-linecap="butt" stroke-linejoin="round" stroke-opacity="1.0" stroke-width="3.0" />
            <path d=" M 542.766, 633.279 541.369, 633.150 537.860, 632.828 531.508, 632.245 523.333, 631.843 518.102, 631.586 516.166, 631.509 513.923, 631.419 513.149, 631.388 506.804, 631.134 506.422, 631.119 504.298, 631.050 504.189, 631.047 503.725, 631.032 502.856, 631.004 502.854, 631.004 497.850, 630.842 495.874, 631.192 492.354, 632.501 491.128, 633.174 490.956, 633.269 487.216, 635.323 482.672, 641.245 480.229, 644.353 480.211, 644.377 479.147, 645.730 479.138, 645.742 479.135, 645.745 477.605, 647.693 476.306, 657.608 475.891, 660.778 478.543, 665.167 481.491, 667.750 486.164, 670.885 490.983, 674.116 497.323, 677.455 498.094, 677.861 503.203, 681.356 510.905, 686.488 502.578, 680.950 497.323, 677.455 " fill="none" stroke="rgb(0, 0, 0)" stroke-linecap="butt" stroke-linejoin="round" stroke-opacity="1.0" stroke-width="3.0" />
            <path d=" M 601.903, 736.700 601.522, 736.166 601.262, 735.801 597.815, 730.967 597.252, 730.177 595.021, 727.049 594.933, 726.926 593.542, 724.974 592.725, 723.093 592.604, 722.816 592.297, 722.109 591.832, 721.037 591.644, 720.603 591.602, 720.506 591.441, 720.136 591.396, 720.032 590.401, 717.742 590.395, 717.727 589.861, 716.499 589.841, 716.453 588.814, 714.088 588.775, 713.998 587.747, 711.631 587.442, 710.861 586.972, 709.679 586.853, 709.380 586.790, 709.220 584.831, 704.287 584.500, 703.453 583.997, 702.185 582.247, 698.129 581.795, 697.083 581.622, 696.682 581.620, 696.677 581.543, 696.498 581.024, 695.294 580.625, 694.246 580.581, 694.131 578.308, 688.150 577.036, 682.763 576.754, 681.569 576.711, 681.389 575.423, 675.934 575.113, 674.619 575.043, 674.323 574.839, 673.459 574.831, 673.424 574.780, 672.528 574.676, 670.683 574.402, 665.831 574.360, 665.097 574.812, 663.058 575.132, 661.611 575.286, 660.916 575.412, 660.344 577.558, 655.131 577.602, 654.005 577.610, 653.806 577.702, 651.477 577.703, 651.452 577.806, 648.837 578.647, 645.274 578.680, 645.132 579.312, 642.456 579.438, 637.717 580.005, 634.874 578.064, 633.075 569.938, 632.730 567.744, 632.753 567.674, 632.754 557.675, 632.862 552.503, 632.917 542.505, 633.127 541.369, 633.150 " fill="none" stroke="rgb(0, 0, 0)" stroke-linecap="butt" stroke-linejoin="round" stroke-opacity="1.0" stroke-width="3.0" />
            <path d=" M 740.805, 347.062 738.779, 344.125 737.561, 342.358 734.401, 337.535 730.330, 335.190 725.355, 328.963 720.984, 323.537 719.533, 319.181 719.482, 319.029 718.843, 317.110 716.830, 314.391 716.779, 314.323 715.776, 312.969 715.599, 312.729 715.387, 312.443 714.445, 311.217 712.390, 308.540 710.870, 307.076 708.179, 303.926 704.865, 300.850 699.275, 297.111 693.871, 293.929 688.878, 290.547 681.360, 283.954 681.266, 283.871 677.830, 280.870 677.636, 280.779 674.195, 279.338 671.805, 279.560 666.451, 280.127 657.808, 279.869 655.016, 279.736 648.438, 279.837 645.164, 280.495 638.519, 282.440 629.326, 286.595 626.585, 287.154 624.364, 287.680 623.751, 287.825 622.074, 288.222 621.645, 288.324 621.311, 288.403 621.250, 288.417 " fill="none" stroke="rgb(0, 0, 0)" stroke-linecap="butt" stroke-linejoin="round" stroke-opacity="1.0" stroke-width="3.0" />
            <path d=" M 604.505, 291.968 599.224, 293.157 598.409, 293.341 598.154, 293.333 592.278, 293.164 591.885, 293.153 591.151, 293.131 590.132, 293.102 590.111, 293.101 589.750, 293.091 589.484, 293.083 588.765, 293.062 586.185, 292.988 585.675, 292.973 585.562, 292.970 582.683, 292.924 582.460, 292.973 578.989, 293.732 571.755, 295.839 562.589, 299.836 561.125, 300.475 555.289, 303.963 550.962, 305.584 542.230, 309.242 537.249, 315.958 536.302, 317.235 533.769, 323.643 533.218, 325.499 533.196, 325.573 533.073, 325.988 532.728, 327.148 532.090, 328.202 530.228, 331.276 528.169, 335.262 526.650, 339.131 526.221, 340.223 525.437, 342.220 523.184, 347.052 523.103, 347.226 521.289, 351.115 521.190, 351.328 519.936, 356.651 518.429, 362.949 516.396, 371.302 514.531, 377.234 513.084, 384.779 513.094, 385.970 510.458, 392.843 509.814, 395.823 508.163, 400.531 507.294, 402.659 506.493, 405.523 506.135, 407.924 502.737, 416.480 501.297, 420.460 501.046, 421.153 " fill="none" stroke="rgb(0, 0, 0)" stroke-linecap="butt" stroke-linejoin="round" stroke-opacity="1.0" stroke-width="3.0" />
        </g>
    </g>
</svg>
