<?xml version='1.0' encoding='ascii'?>
<svg xmlns="http://www.w3.org/2000/svg" height="1280" version="1.1" width="1280">
    <g id="RenderLayer_LineSet" inkscape:groupmode="lineset" inkscape:label="RenderLayer_LineSet" xmlns:inkscape="http://www.inkscape.org/namespaces/inkscape">
        <g id="strokes" inkscape:groupmode="layer" inkscape:label="strokes" xmlns:inkscape="http://www.inkscape.org/namespaces/inkscape">
            <path d=" M 795.115, 829.173 793.245, 837.351 793.342, 839.170 797.142, 841.297 802.562, 840.368 " fill="none" stroke="rgb(0, 0, 0)" stroke-linecap="butt" stroke-linejoin="round" stroke-opacity="1.0" stroke-width="3.0" />
            <path d=" M 770.093, 579.204 770.437, 581.973 770.442, 587.002 770.690, 591.606 771.386, 594.250 772.008, 596.617 772.581, 599.111 " fill="none" stroke="rgb(0, 0, 0)" stroke-linecap="butt" stroke-linejoin="round" stroke-opacity="1.0" stroke-width="3.0" />
            <path d=" M 792.822, 1105.253 793.023, 1103.150 793.089, 1102.462 793.155, 1101.761 793.524, 1097.904 795.972, 1093.019 797.909, 1088.176 797.455, 1087.324 796.891, 1086.268 " fill="none" stroke="rgb(0, 0, 0)" stroke-linecap="butt" stroke-linejoin="round" stroke-opacity="1.0" stroke-width="3.0" />
            <path d=" M 657.765, 760.472 658.809, 761.791 658.709, 762.754 658.693, 762.904 658.503, 764.739 658.042, 768.731 657.981, 769.255 660.102, 773.391 660.814, 776.204 662.027, 778.083 662.728, 779.170 " fill="none" stroke="rgb(0, 0, 0)" stroke-linecap="butt" stroke-linejoin="round" stroke-opacity="1.0" stroke-width="3.0" />
            <path d=" M 498.055, 843.991 503.171, 847.987 511.115, 854.061 514.047, 856.303 514.446, 856.591 " fill="none" stroke="rgb(0, 0, 0)" stroke-linecap="butt" stroke-linejoin="round" stroke-opacity="1.0" stroke-width="3.0" />
            <path d=" M 649.203, 1049.104 653.125, 1052.230 653.449, 1052.488 653.762, 1052.737 653.831, 1052.937 656.736, 1061.370 658.122, 1065.672 658.490, 1066.808 " fill="none" stroke="rgb(0, 0, 0)" stroke-linecap="butt" stroke-linejoin="round" stroke-opacity="1.0" stroke-width="3.0" />
            <path d=" M 502.845, 650.766 502.640, 652.939 502.631, 653.109 503.447, 659.667 505.347, 664.466 506.676, 668.524 507.607, 670.633 " fill="none" stroke="rgb(0, 0, 0)" stroke-linecap="butt" stroke-linejoin="round" stroke-opacity="1.0" stroke-width="3.0" />
            <path d=" M 507.111, 850.270 512.655, 854.299 514.446, 856.591 517.094, 859.980 521.078, 865.307 " fill="none" stroke="rgb(0, 0, 0)" stroke-linecap="butt" stroke-linejoin="round" stroke-opacity="1.0" stroke-width="3.0" />
            <path d=" M 490.031, 606.664 491.579, 612.196 492.171, 614.312 493.217, 618.048 493.453, 618.818 495.010, 623.889 495.409, 624.753 496.225, 626.524 " fill="none" stroke="rgb(0, 0, 0)" stroke-linecap="butt" stroke-linejoin="round" stroke-opacity="1.0" stroke-width="3.0" />
            <path d=" M 603.208, 994.938 603.015, 993.137 599.905, 983.633 599.812, 983.349 598.569, 979.046 597.490, 977.433 596.814, 975.197 " fill="none" stroke="rgb(0, 0, 0)" stroke-linecap="butt" stroke-linejoin="round" stroke-opacity="1.0" stroke-width="3.0" />
            <path d=" M 590.654, 699.316 588.936, 703.953 588.801, 705.379 588.781, 709.854 590.119, 715.962 590.561, 719.756 " fill="none" stroke="rgb(0, 0, 0)" stroke-linecap="butt" stroke-linejoin="round" stroke-opacity="1.0" stroke-width="3.0" />
            <path d=" M 703.974, 627.264 704.430, 626.707 707.982, 623.116 710.912, 620.891 712.161, 619.943 712.161, 619.943 712.506, 619.682 714.564, 618.118 714.571, 618.115 720.677, 614.835 " fill="none" stroke="rgb(0, 0, 0)" stroke-linecap="butt" stroke-linejoin="round" stroke-opacity="1.0" stroke-width="3.0" />
            <path d=" M 776.190, 668.324 773.978, 672.562 772.051, 676.619 769.336, 681.628 767.898, 684.216 766.828, 686.312 766.550, 687.265 " fill="none" stroke="rgb(0, 0, 0)" stroke-linecap="butt" stroke-linejoin="round" stroke-opacity="1.0" stroke-width="3.0" />
            <path d=" M 525.034, 448.421 523.551, 448.913 523.250, 449.013 522.063, 449.407 521.735, 449.516 521.687, 449.532 521.271, 449.670 520.900, 449.793 520.735, 449.848 520.685, 449.865 520.568, 449.904 519.929, 450.116 513.480, 447.050 509.026, 446.831 508.787, 446.887 504.770, 447.827 " fill="none" stroke="rgb(0, 0, 0)" stroke-linecap="butt" stroke-linejoin="round" stroke-opacity="1.0" stroke-width="3.0" />
            <path d=" M 776.049, 660.599 776.065, 660.965 776.071, 661.107 776.081, 661.342 776.085, 661.454 776.089, 661.536 776.092, 661.602 776.098, 661.759 776.101, 661.828 776.120, 662.274 776.120, 662.292 776.121, 662.304 776.136, 662.654 776.138, 662.709 776.141, 662.783 776.146, 662.899 776.250, 665.386 776.277, 666.031 776.281, 666.122 776.301, 666.607 776.318, 666.996 776.190, 668.324 776.140, 668.844 775.696, 673.484 775.690, 673.549 775.673, 673.721 775.249, 678.151 775.125, 681.253 775.092, 682.060 " fill="none" stroke="rgb(0, 0, 0)" stroke-linecap="butt" stroke-linejoin="round" stroke-opacity="1.0" stroke-width="3.0" />
            <path d=" M 495.409, 624.753 497.240, 634.584 497.272, 634.753 497.638, 637.177 499.015, 641.646 500.944, 645.555 " fill="none" stroke="rgb(0, 0, 0)" stroke-linecap="butt" stroke-linejoin="round" stroke-opacity="1.0" stroke-width="3.0" />
            <path d=" M 591.969, 673.745 592.630, 676.431 592.855, 677.346 593.682, 680.704 594.144, 684.367 594.555, 687.617 594.711, 688.851 594.510, 690.388 594.068, 693.768 594.039, 693.992 593.896, 695.084 " fill="none" stroke="rgb(0, 0, 0)" stroke-linecap="butt" stroke-linejoin="round" stroke-opacity="1.0" stroke-width="3.0" />
            <path d=" M 623.820, 748.835 626.929, 747.753 626.995, 747.729 627.264, 747.636 627.523, 747.546 630.979, 746.343 629.985, 746.780 628.128, 747.730 626.571, 748.527 626.283, 748.674 626.149, 748.742 623.820, 748.835 622.110, 748.902 617.043, 747.986 " fill="none" stroke="rgb(0, 0, 0)" stroke-linecap="butt" stroke-linejoin="round" stroke-opacity="1.0" stroke-width="3.0" />
            <path d=" M 724.649, 1095.447 726.027, 1095.608 726.424, 1095.655 728.239, 1095.867 737.281, 1095.311 744.597, 1093.705 746.600, 1093.838 " fill="none" stroke="rgb(0, 0, 0)" stroke-linecap="butt" stroke-linejoin="round" stroke-opacity="1.0" stroke-width="3.0" />
            <path d=" M 650.906, 484.522 650.880, 484.496 647.206, 483.113 644.473, 483.937 641.853, 484.193 639.079, 484.866 638.416, 484.951 638.328, 484.962 637.077, 485.123 633.111, 488.288 630.818, 489.940 630.654, 490.057 " fill="none" stroke="rgb(0, 0, 0)" stroke-linecap="butt" stroke-linejoin="round" stroke-opacity="1.0" stroke-width="3.0" />
            <path d=" M 784.442, 703.795 783.903, 704.264 783.835, 704.323 782.340, 705.623 778.694, 710.720 776.706, 713.498 774.842, 718.040 775.625, 720.728 776.563, 722.200 777.353, 722.753 " fill="none" stroke="rgb(0, 0, 0)" stroke-linecap="butt" stroke-linejoin="round" stroke-opacity="1.0" stroke-width="3.0" />
            <path d=" M 836.471, 578.941 835.075, 569.039 834.874, 567.612 832.880, 557.813 832.550, 556.193 " fill="none" stroke="rgb(0, 0, 0)" stroke-linecap="butt" stroke-linejoin="round" stroke-opacity="1.0" stroke-width="3.0" />
            <path d=" M 675.227, 1137.319 676.008, 1134.149 676.376, 1132.659 675.359, 1128.146 673.622, 1122.451 674.432, 1119.985 675.797, 1116.602 676.980, 1115.525 " fill="none" stroke="rgb(0, 0, 0)" stroke-linecap="butt" stroke-linejoin="round" stroke-opacity="1.0" stroke-width="3.0" />
            <path d=" M 440.350, 640.324 440.463, 634.053 443.283, 628.209 444.262, 625.309 444.561, 620.816 444.269, 617.880 " fill="none" stroke="rgb(0, 0, 0)" stroke-linecap="butt" stroke-linejoin="round" stroke-opacity="1.0" stroke-width="3.0" />
            <path d=" M 796.168, 463.751 792.347, 466.623 787.706, 469.549 784.927, 473.257 783.887, 475.788 783.846, 477.972 785.266, 480.084 786.247, 480.362 " fill="none" stroke="rgb(0, 0, 0)" stroke-linecap="butt" stroke-linejoin="round" stroke-opacity="1.0" stroke-width="3.0" />
            <path d=" M 630.818, 489.940 628.863, 489.746 623.529, 490.672 617.472, 494.806 613.217, 497.509 612.195, 498.158 611.241, 498.763 610.104, 499.486 " fill="none" stroke="rgb(0, 0, 0)" stroke-linecap="butt" stroke-linejoin="round" stroke-opacity="1.0" stroke-width="3.0" />
            <path d=" M 506.578, 678.260 506.290, 678.458 504.214, 679.883 502.632, 680.970 500.858, 683.962 500.772, 684.664 502.096, 687.158 501.297, 689.958 499.345, 693.764 497.733, 698.188 " fill="none" stroke="rgb(0, 0, 0)" stroke-linecap="butt" stroke-linejoin="round" stroke-opacity="1.0" stroke-width="3.0" />
            <path d=" M 584.069, 674.011 584.641, 674.036 586.792, 674.131 587.268, 674.151 587.722, 674.077 590.074, 673.690 590.941, 673.689 591.362, 673.688 591.955, 673.687 591.980, 673.687 592.079, 673.686 593.495, 673.683 593.537, 673.683 598.498, 673.858 599.676, 673.974 599.772, 673.984 600.218, 674.028 600.323, 674.050 601.366, 674.267 601.709, 674.338 601.778, 674.352 601.873, 674.372 602.237, 674.448 605.785, 675.601 606.253, 675.753 606.951, 675.980 607.262, 676.081 607.531, 676.168 " fill="none" stroke="rgb(0, 0, 0)" stroke-linecap="butt" stroke-linejoin="round" stroke-opacity="1.0" stroke-width="3.0" />
            <path d=" M 804.452, 496.694 803.099, 497.592 802.816, 497.918 801.646, 499.260 801.271, 499.690 801.219, 499.750 800.905, 500.688 802.410, 510.574 802.431, 510.709 802.919, 518.464 802.960, 519.117 " fill="none" stroke="rgb(0, 0, 0)" stroke-linecap="butt" stroke-linejoin="round" stroke-opacity="1.0" stroke-width="3.0" />
            <path d=" M 599.115, 698.790 599.268, 698.386 599.425, 697.976 599.771, 697.064 601.066, 693.660 601.408, 692.758 601.635, 692.162 603.763, 686.566 605.613, 681.563 606.937, 677.458 606.983, 677.264 607.262, 676.081 " fill="none" stroke="rgb(0, 0, 0)" stroke-linecap="butt" stroke-linejoin="round" stroke-opacity="1.0" stroke-width="3.0" />
            <path d=" M 512.159, 560.376 514.228, 560.653 515.021, 560.759 520.085, 560.090 523.367, 559.657 523.854, 559.593 525.009, 559.440 525.547, 559.520 526.121, 559.604 526.473, 559.656 529.389, 560.086 529.659, 560.125 532.177, 560.948 535.836, 562.144 " fill="none" stroke="rgb(0, 0, 0)" stroke-linecap="butt" stroke-linejoin="round" stroke-opacity="1.0" stroke-width="3.0" />
            <path d=" M 776.281, 666.122 774.778, 665.751 773.829, 664.056 773.050, 662.665 772.771, 658.313 771.840, 653.884 773.797, 659.936 774.325, 661.071 775.287, 662.266 775.299, 662.282 775.351, 662.319 776.146, 662.899 " fill="none" stroke="rgb(0, 0, 0)" stroke-linecap="butt" stroke-linejoin="round" stroke-opacity="1.0" stroke-width="3.0" />
            <path d=" M 649.289, 741.892 649.752, 743.749 649.812, 743.991 650.476, 746.653 650.594, 747.125 650.663, 747.403 650.760, 747.794 651.046, 748.940 651.232, 749.688 652.238, 753.721 653.957, 757.004 656.398, 762.475 658.693, 762.904 " fill="none" stroke="rgb(0, 0, 0)" stroke-linecap="butt" stroke-linejoin="round" stroke-opacity="1.0" stroke-width="3.0" />
            <path d=" M 585.150, 575.854 585.703, 576.661 586.129, 577.281 590.231, 583.259 591.509, 585.461 592.773, 588.880 594.955, 592.248 597.624, 596.564 " fill="none" stroke="rgb(0, 0, 0)" stroke-linecap="butt" stroke-linejoin="round" stroke-opacity="1.0" stroke-width="3.0" />
            <path d=" M 708.209, 1043.893 708.494, 1042.384 708.154, 1035.947 707.166, 1030.835 705.355, 1023.453 704.992, 1020.000 " fill="none" stroke="rgb(0, 0, 0)" stroke-linecap="butt" stroke-linejoin="round" stroke-opacity="1.0" stroke-width="3.0" />
            <path d=" M 758.111, 482.727 758.104, 482.714 757.298, 481.351 757.209, 481.200 755.881, 477.297 755.873, 477.273 755.870, 477.264 755.774, 476.982 754.980, 474.647 754.682, 473.853 754.647, 473.759 754.519, 473.420 754.489, 473.339 754.325, 472.903 754.213, 472.604 754.076, 472.237 753.813, 471.538 753.231, 470.591 752.991, 470.215 752.479, 469.412 752.474, 469.405 752.248, 469.052 749.936, 465.427 747.715, 460.738 " fill="none" stroke="rgb(0, 0, 0)" stroke-linecap="butt" stroke-linejoin="round" stroke-opacity="1.0" stroke-width="3.0" />
            <path d=" M 782.293, 698.483 783.161, 699.610 783.307, 699.799 783.861, 700.519 783.863, 700.521 783.864, 700.522 784.103, 700.832 784.442, 703.795 784.458, 703.937 784.488, 704.199 784.492, 704.231 784.502, 704.323 784.584, 705.037 784.626, 705.403 784.661, 705.708 784.654, 706.705 784.634, 709.944 784.627, 710.978 784.737, 712.675 784.987, 716.520 785.269, 717.577 785.380, 717.995 786.492, 722.169 " fill="none" stroke="rgb(0, 0, 0)" stroke-linecap="butt" stroke-linejoin="round" stroke-opacity="1.0" stroke-width="3.0" />
            <path d=" M 648.046, 428.405 645.195, 428.084 643.791, 427.927 641.028, 428.000 636.019, 426.973 630.988, 424.551 625.939, 419.852 " fill="none" stroke="rgb(0, 0, 0)" stroke-linecap="butt" stroke-linejoin="round" stroke-opacity="1.0" stroke-width="3.0" />
            <path d=" M 664.070, 830.503 664.210, 832.301 664.774, 835.088 666.919, 837.417 668.150, 838.348 673.527, 843.547 675.231, 844.406 678.158, 845.883 680.308, 846.400 680.721, 846.499 " fill="none" stroke="rgb(0, 0, 0)" stroke-linecap="butt" stroke-linejoin="round" stroke-opacity="1.0" stroke-width="3.0" />
            <path d=" M 840.731, 596.353 839.840, 589.671 838.170, 579.812 837.802, 577.634 836.743, 572.129 836.708, 571.945 " fill="none" stroke="rgb(0, 0, 0)" stroke-linecap="butt" stroke-linejoin="round" stroke-opacity="1.0" stroke-width="3.0" />
            <path d=" M 819.862, 1099.270 821.866, 1097.705 822.718, 1097.040 822.719, 1097.038 823.834, 1095.886 822.769, 1097.596 821.323, 1099.916 817.906, 1105.076 814.936, 1109.502 814.260, 1110.510 813.013, 1112.368 " fill="none" stroke="rgb(0, 0, 0)" stroke-linecap="butt" stroke-linejoin="round" stroke-opacity="1.0" stroke-width="3.0" />
            <path d=" M 699.617, 972.277 699.522, 974.559 701.685, 976.523 705.017, 977.060 705.132, 977.079 705.153, 977.082 705.156, 977.083 705.316, 977.109 705.547, 977.146 706.235, 977.335 706.384, 977.376 706.390, 977.378 706.403, 977.382 710.999, 978.648 715.044, 978.481 715.153, 978.476 715.925, 978.444 717.680, 978.371 720.319, 978.161 721.198, 978.405 " fill="none" stroke="rgb(0, 0, 0)" stroke-linecap="butt" stroke-linejoin="round" stroke-opacity="1.0" stroke-width="3.0" />
            <path d=" M 677.372, 878.556 677.294, 879.864 679.615, 882.261 683.059, 885.409 686.157, 886.984 689.596, 889.737 695.520, 890.979 697.179, 889.961 " fill="none" stroke="rgb(0, 0, 0)" stroke-linecap="butt" stroke-linejoin="round" stroke-opacity="1.0" stroke-width="3.0" />
            <path d=" M 763.915, 732.956 763.883, 733.011 762.364, 735.667 761.181, 737.889 760.832, 738.545 759.510, 741.890 758.878, 743.974 758.152, 745.432 756.816, 749.684 756.267, 751.101 755.104, 754.856 755.066, 756.563 " fill="none" stroke="rgb(0, 0, 0)" stroke-linecap="butt" stroke-linejoin="round" stroke-opacity="1.0" stroke-width="3.0" />
            <path d=" M 644.892, 718.895 645.546, 720.737 646.806, 724.281 646.761, 725.034 646.750, 725.219 646.715, 725.822 646.675, 726.493 646.551, 728.597 648.711, 737.621 649.289, 741.892 649.634, 743.400 649.752, 743.749 " fill="none" stroke="rgb(0, 0, 0)" stroke-linecap="butt" stroke-linejoin="round" stroke-opacity="1.0" stroke-width="3.0" />
            <path d=" M 704.811, 928.790 707.619, 932.952 707.803, 933.225 709.487, 935.720 710.851, 937.742 710.947, 937.884 711.843, 940.616 712.772, 943.447 712.826, 943.611 713.141, 944.571 713.416, 952.359 " fill="none" stroke="rgb(0, 0, 0)" stroke-linecap="butt" stroke-linejoin="round" stroke-opacity="1.0" stroke-width="3.0" />
            <path d=" M 698.967, 897.969 696.061, 900.305 691.129, 909.080 688.835, 915.861 688.293, 917.309 686.909, 921.007 " fill="none" stroke="rgb(0, 0, 0)" stroke-linecap="butt" stroke-linejoin="round" stroke-opacity="1.0" stroke-width="3.0" />
            <path d=" M 767.291, 687.856 767.134, 688.208 765.713, 691.407 765.458, 691.980 762.051, 696.383 760.729, 699.562 761.244, 705.025 762.816, 705.673 765.015, 705.591 768.487, 704.691 " fill="none" stroke="rgb(0, 0, 0)" stroke-linecap="butt" stroke-linejoin="round" stroke-opacity="1.0" stroke-width="3.0" />
            <path d=" M 735.439, 1048.669 731.371, 1053.263 728.447, 1056.526 724.826, 1061.757 721.771, 1065.524 720.080, 1067.608 718.640, 1069.385 " fill="none" stroke="rgb(0, 0, 0)" stroke-linecap="butt" stroke-linejoin="round" stroke-opacity="1.0" stroke-width="3.0" />
            <path d=" M 786.662, 721.768 786.856, 722.203 787.119, 722.794 787.211, 722.999 788.104, 730.749 788.304, 731.430 789.278, 734.749 789.824, 741.957 790.017, 742.861 790.677, 745.957 791.060, 747.753 791.110, 747.989 " fill="none" stroke="rgb(0, 0, 0)" stroke-linecap="butt" stroke-linejoin="round" stroke-opacity="1.0" stroke-width="3.0" />
            <path d=" M 582.883, 964.476 583.757, 965.878 585.594, 967.912 586.989, 968.845 591.664, 968.978 592.242, 968.933 594.311, 968.772 597.643, 966.658 599.236, 965.918 600.676, 963.883 600.800, 961.454 599.496, 960.025 598.946, 959.422 " fill="none" stroke="rgb(0, 0, 0)" stroke-linecap="butt" stroke-linejoin="round" stroke-opacity="1.0" stroke-width="3.0" />
            <path d=" M 612.195, 498.158 611.177, 498.188 607.694, 498.290 606.338, 497.742 605.550, 497.195 605.109, 496.888 599.163, 489.560 603.679, 494.477 605.550, 497.195 " fill="none" stroke="rgb(0, 0, 0)" stroke-linecap="butt" stroke-linejoin="round" stroke-opacity="1.0" stroke-width="3.0" />
            <path d=" M 662.728, 779.144 662.728, 779.170 662.691, 785.741 662.990, 787.784 663.592, 791.892 663.766, 793.085 664.159, 795.768 664.775, 798.594 664.784, 798.635 665.064, 799.920 666.057, 801.463 668.396, 804.958 " fill="none" stroke="rgb(0, 0, 0)" stroke-linecap="butt" stroke-linejoin="round" stroke-opacity="1.0" stroke-width="3.0" />
            <path d=" M 713.208, 577.859 714.945, 578.216 715.240, 578.277 718.148, 578.875 718.888, 578.807 721.815, 578.536 726.500, 575.940 727.331, 574.901 729.452, 570.470 731.533, 566.315 731.633, 566.117 731.741, 565.902 731.916, 565.552 731.943, 565.498 732.480, 564.427 " fill="none" stroke="rgb(0, 0, 0)" stroke-linecap="butt" stroke-linejoin="round" stroke-opacity="1.0" stroke-width="3.0" />
            <path d=" M 684.892, 845.433 684.910, 845.741 685.050, 848.263 685.139, 849.872 685.416, 853.374 684.772, 848.163 684.734, 847.857 684.194, 845.708 684.012, 844.981 683.956, 844.758 683.154, 841.566 683.097, 841.340 680.851, 835.389 680.642, 834.837 " fill="none" stroke="rgb(0, 0, 0)" stroke-linecap="butt" stroke-linejoin="round" stroke-opacity="1.0" stroke-width="3.0" />
            <path d=" M 735.493, 739.906 734.240, 734.979 731.777, 725.287 731.426, 723.909 728.246, 714.428 727.950, 713.545 " fill="none" stroke="rgb(0, 0, 0)" stroke-linecap="butt" stroke-linejoin="round" stroke-opacity="1.0" stroke-width="3.0" />
            <path d=" M 539.038, 452.667 537.638, 453.235 533.651, 455.239 530.198, 458.796 526.867, 462.251 525.745, 464.279 524.832, 465.929 524.299, 466.982 523.094, 469.367 521.612, 469.578 519.407, 469.891 " fill="none" stroke="rgb(0, 0, 0)" stroke-linecap="butt" stroke-linejoin="round" stroke-opacity="1.0" stroke-width="3.0" />
            <path d=" M 832.670, 566.100 832.357, 557.611 832.331, 556.918 831.646, 553.009 831.491, 552.126 830.833, 549.272 830.873, 547.766 830.924, 545.862 830.963, 544.437 831.072, 540.398 831.086, 539.860 831.116, 538.743 " fill="none" stroke="rgb(0, 0, 0)" stroke-linecap="butt" stroke-linejoin="round" stroke-opacity="1.0" stroke-width="3.0" />
            <path d=" M 492.147, 555.064 491.974, 557.898 491.954, 558.239 491.950, 558.301 491.942, 558.431 491.939, 558.476 491.935, 558.549 491.931, 558.604 493.223, 562.052 494.043, 562.690 494.055, 562.699 494.701, 563.202 496.055, 563.672 497.361, 564.125 500.216, 563.445 503.738, 563.042 508.673, 561.220 512.159, 560.376 512.441, 560.308 " fill="none" stroke="rgb(0, 0, 0)" stroke-linecap="butt" stroke-linejoin="round" stroke-opacity="1.0" stroke-width="3.0" />
            <path d=" M 635.510, 1148.952 635.696, 1149.332 639.286, 1151.367 645.166, 1151.826 646.521, 1151.427 647.906, 1150.923 649.369, 1148.606 649.337, 1145.427 647.836, 1142.534 647.913, 1141.035 646.112, 1138.472 645.643, 1137.806 " fill="none" stroke="rgb(0, 0, 0)" stroke-linecap="butt" stroke-linejoin="round" stroke-opacity="1.0" stroke-width="3.0" />
            <path d=" M 823.834, 1095.886 825.827, 1089.466 825.947, 1085.133 825.982, 1083.868 826.361, 1080.603 827.150, 1073.809 827.821, 1068.029 " fill="none" stroke="rgb(0, 0, 0)" stroke-linecap="butt" stroke-linejoin="round" stroke-opacity="1.0" stroke-width="3.0" />
            <path d=" M 748.248, 452.819 748.282, 451.557 747.245, 448.064 745.187, 444.553 744.052, 439.771 742.231, 437.844 739.053, 436.502 736.120, 436.282 735.755, 436.255 730.152, 436.536 " fill="none" stroke="rgb(0, 0, 0)" stroke-linecap="butt" stroke-linejoin="round" stroke-opacity="1.0" stroke-width="3.0" />
            <path d=" M 605.947, 1107.570 604.319, 1110.697 604.195, 1111.033 604.008, 1111.536 603.898, 1111.832 602.596, 1115.347 602.781, 1119.986 605.003, 1124.468 607.734, 1126.514 609.029, 1125.830 610.187, 1125.051 611.078, 1124.452 611.500, 1124.085 611.759, 1123.859 613.672, 1122.195 " fill="none" stroke="rgb(0, 0, 0)" stroke-linecap="butt" stroke-linejoin="round" stroke-opacity="1.0" stroke-width="3.0" />
            <path d=" M 717.902, 435.985 717.424, 436.261 716.753, 436.569 715.298, 437.235 714.932, 437.403 713.043, 438.393 713.034, 438.398 710.278, 439.842 709.419, 440.529 708.284, 441.439 706.770, 442.829 706.187, 443.363 706.121, 443.424 706.121, 443.424 704.934, 444.514 704.645, 444.755 701.560, 447.322 701.237, 447.591 701.212, 447.612 701.210, 447.614 700.798, 447.957 695.586, 450.136 694.962, 450.197 692.157, 450.470 " fill="none" stroke="rgb(0, 0, 0)" stroke-linecap="butt" stroke-linejoin="round" stroke-opacity="1.0" stroke-width="3.0" />
            <path d=" M 685.036, 1059.550 686.121, 1060.670 687.269, 1061.856 689.871, 1065.347 691.096, 1066.990 695.678, 1071.703 698.238, 1073.269 701.848, 1075.809 706.274, 1078.115 707.791, 1078.524 " fill="none" stroke="rgb(0, 0, 0)" stroke-linecap="butt" stroke-linejoin="round" stroke-opacity="1.0" stroke-width="3.0" />
            <path d=" M 777.318, 722.219 777.353, 722.753 777.491, 724.895 775.179, 734.702 774.942, 737.923 777.030, 742.062 780.663, 743.129 782.173, 743.342 783.812, 742.712 786.459, 741.695 " fill="none" stroke="rgb(0, 0, 0)" stroke-linecap="butt" stroke-linejoin="round" stroke-opacity="1.0" stroke-width="3.0" />
            <path d=" M 575.292, 1045.760 575.379, 1045.972 576.906, 1049.694 577.394, 1051.604 578.391, 1055.510 579.008, 1060.367 580.249, 1066.261 582.420, 1070.710 585.780, 1073.985 " fill="none" stroke="rgb(0, 0, 0)" stroke-linecap="butt" stroke-linejoin="round" stroke-opacity="1.0" stroke-width="3.0" />
            <path d=" M 596.805, 594.324 597.624, 596.564 599.484, 601.654 601.575, 604.121 605.896, 611.005 610.459, 619.904 611.273, 621.493 " fill="none" stroke="rgb(0, 0, 0)" stroke-linecap="butt" stroke-linejoin="round" stroke-opacity="1.0" stroke-width="3.0" />
            <path d=" M 814.629, 1124.997 814.879, 1125.198 818.748, 1123.565 820.756, 1119.204 822.315, 1109.326 822.474, 1108.320 823.334, 1103.939 822.769, 1097.596 " fill="none" stroke="rgb(0, 0, 0)" stroke-linecap="butt" stroke-linejoin="round" stroke-opacity="1.0" stroke-width="3.0" />
            <path d=" M 646.025, 1077.273 645.909, 1072.130 646.397, 1065.807 646.688, 1057.909 647.360, 1052.099 648.284, 1050.052 648.676, 1049.185 650.284, 1046.771 " fill="none" stroke="rgb(0, 0, 0)" stroke-linecap="butt" stroke-linejoin="round" stroke-opacity="1.0" stroke-width="3.0" />
            <path d=" M 570.893, 815.454 575.230, 815.315 577.103, 814.530 582.325, 812.321 587.545, 809.077 587.547, 809.076 589.165, 808.071 590.253, 806.867 587.344, 808.915 587.330, 808.925 586.932, 809.205 582.325, 812.321 " fill="none" stroke="rgb(0, 0, 0)" stroke-linecap="butt" stroke-linejoin="round" stroke-opacity="1.0" stroke-width="3.0" />
            <path d=" M 694.619, 982.798 698.124, 986.277 700.650, 987.348 700.735, 987.384 702.575, 988.164 702.723, 988.227 703.917, 988.733 704.112, 988.743 704.114, 988.743 704.114, 988.743 704.506, 988.764 704.975, 988.789 708.945, 988.999 712.257, 987.913 715.944, 985.480 716.661, 983.879 716.564, 981.950 716.105, 980.820 715.153, 978.476 " fill="none" stroke="rgb(0, 0, 0)" stroke-linecap="butt" stroke-linejoin="round" stroke-opacity="1.0" stroke-width="3.0" />
            <path d=" M 718.923, 615.282 720.677, 614.835 725.734, 613.547 727.706, 613.481 735.322, 610.998 741.177, 607.995 745.153, 606.010 746.533, 605.107 748.972, 603.512 " fill="none" stroke="rgb(0, 0, 0)" stroke-linecap="butt" stroke-linejoin="round" stroke-opacity="1.0" stroke-width="3.0" />
            <path d=" M 584.717, 1065.683 585.220, 1070.396 585.434, 1072.285 585.780, 1073.985 586.911, 1079.543 589.072, 1084.747 593.234, 1091.677 594.986, 1093.735 595.682, 1094.552 596.743, 1094.892 " fill="none" stroke="rgb(0, 0, 0)" stroke-linecap="butt" stroke-linejoin="round" stroke-opacity="1.0" stroke-width="3.0" />
            <path d=" M 575.254, 861.432 574.430, 860.992 572.421, 859.920 572.372, 859.880 570.327, 858.195 566.016, 858.080 562.719, 857.929 561.680, 857.882 560.757, 857.839 560.144, 856.725 559.929, 856.335 559.330, 855.246 559.132, 854.886 559.191, 854.804 559.777, 853.985 560.088, 853.551 561.487, 853.362 566.542, 852.887 566.841, 852.859 567.184, 852.876 567.588, 852.895 567.962, 852.913 568.219, 852.926 569.130, 852.970 570.511, 852.644 572.522, 852.170 " fill="none" stroke="rgb(0, 0, 0)" stroke-linecap="butt" stroke-linejoin="round" stroke-opacity="1.0" stroke-width="3.0" />
            <path d=" M 757.643, 806.768 759.400, 804.116 759.828, 803.470 760.782, 802.031 764.626, 797.645 766.023, 793.114 765.839, 789.250 765.502, 788.456 764.038, 784.997 764.965, 779.502 764.946, 776.716 " fill="none" stroke="rgb(0, 0, 0)" stroke-linecap="butt" stroke-linejoin="round" stroke-opacity="1.0" stroke-width="3.0" />
            <path d=" M 616.317, 1131.739 616.554, 1132.587 617.995, 1137.742 620.242, 1143.009 623.498, 1146.344 627.791, 1148.949 632.696, 1150.385 635.510, 1148.952 636.320, 1148.540 638.798, 1149.046 " fill="none" stroke="rgb(0, 0, 0)" stroke-linecap="butt" stroke-linejoin="round" stroke-opacity="1.0" stroke-width="3.0" />
            <path d=" M 712.772, 943.447 710.937, 944.463 708.039, 946.068 706.501, 949.499 704.638, 954.194 704.105, 955.536 703.259, 958.431 700.750, 963.418 700.394, 965.836 702.001, 969.644 701.345, 970.854 701.298, 970.940 700.857, 971.754 700.744, 971.962 " fill="none" stroke="rgb(0, 0, 0)" stroke-linecap="butt" stroke-linejoin="round" stroke-opacity="1.0" stroke-width="3.0" />
            <path d=" M 785.573, 760.575 786.127, 762.611 786.466, 763.858 785.046, 773.756 784.941, 774.487 784.550, 778.337 785.412, 781.587 787.610, 783.276 790.485, 784.110 794.590, 784.697 796.714, 785.625 " fill="none" stroke="rgb(0, 0, 0)" stroke-linecap="butt" stroke-linejoin="round" stroke-opacity="1.0" stroke-width="3.0" />
            <path d=" M 542.412, 568.778 542.727, 569.967 543.299, 572.128 543.886, 575.361 543.758, 577.835 543.544, 581.994 541.685, 588.304 541.095, 590.305 540.717, 590.831 538.203, 594.329 536.705, 596.657 536.631, 596.771 535.021, 599.587 534.669, 600.203 " fill="none" stroke="rgb(0, 0, 0)" stroke-linecap="butt" stroke-linejoin="round" stroke-opacity="1.0" stroke-width="3.0" />
            <path d=" M 556.370, 485.536 556.068, 489.267 554.565, 498.109 554.302, 499.656 554.302, 499.659 554.108, 501.083 553.338, 506.730 551.972, 513.896 553.020, 515.192 553.023, 515.195 554.285, 516.646 555.146, 518.152 " fill="none" stroke="rgb(0, 0, 0)" stroke-linecap="butt" stroke-linejoin="round" stroke-opacity="1.0" stroke-width="3.0" />
            <path d=" M 727.611, 986.942 726.313, 988.016 725.079, 989.595 722.607, 992.667 721.236, 996.927 722.052, 999.475 722.712, 1000.815 722.909, 1004.138 723.620, 1005.925 726.099, 1006.826 730.827, 1007.367 734.782, 1005.945 735.672, 1005.473 " fill="none" stroke="rgb(0, 0, 0)" stroke-linecap="butt" stroke-linejoin="round" stroke-opacity="1.0" stroke-width="3.0" />
            <path d=" M 816.308, 858.621 816.690, 868.614 816.706, 869.047 815.512, 872.599 814.215, 877.609 814.085, 878.108 814.368, 882.696 814.421, 883.558 814.439, 883.841 811.902, 887.747 812.599, 891.602 " fill="none" stroke="rgb(0, 0, 0)" stroke-linecap="butt" stroke-linejoin="round" stroke-opacity="1.0" stroke-width="3.0" />
            <path d=" M 484.388, 596.003 485.619, 596.665 486.074, 596.910 486.813, 597.308 487.005, 597.411 489.581, 598.798 495.342, 600.444 498.689, 601.744 498.722, 601.757 502.531, 603.236 508.627, 605.882 512.671, 607.651 514.811, 608.588 516.295, 609.237 " fill="none" stroke="rgb(0, 0, 0)" stroke-linecap="butt" stroke-linejoin="round" stroke-opacity="1.0" stroke-width="3.0" />
            <path d=" M 692.172, 878.244 692.661, 880.952 695.080, 885.665 697.179, 889.961 697.768, 891.166 698.967, 897.969 699.812, 902.765 701.194, 911.328 " fill="none" stroke="rgb(0, 0, 0)" stroke-linecap="butt" stroke-linejoin="round" stroke-opacity="1.0" stroke-width="3.0" />
            <path d=" M 596.644, 1094.824 596.743, 1094.892 599.997, 1097.134 602.543, 1097.838 602.927, 1097.880 604.006, 1096.896 604.112, 1096.802 603.888, 1095.234 603.184, 1090.764 602.030, 1088.903 601.887, 1086.028 601.381, 1082.169 601.572, 1081.419 602.016, 1079.680 601.390, 1075.423 601.127, 1073.638 600.506, 1070.910 " fill="none" stroke="rgb(0, 0, 0)" stroke-linecap="butt" stroke-linejoin="round" stroke-opacity="1.0" stroke-width="3.0" />
            <path d=" M 688.293, 917.309 686.110, 920.610 685.727, 922.604 685.801, 925.122 687.808, 927.555 688.397, 928.172 691.046, 930.106 694.170, 931.673 697.193, 933.321 700.568, 935.013 707.542, 935.437 709.487, 935.720 " fill="none" stroke="rgb(0, 0, 0)" stroke-linecap="butt" stroke-linejoin="round" stroke-opacity="1.0" stroke-width="3.0" />
            <path d=" M 563.343, 463.538 559.355, 463.986 553.568, 466.421 551.066, 468.260 548.147, 474.143 547.807, 477.364 547.572, 480.477 548.555, 483.181 549.370, 485.421 551.176, 488.982 551.264, 489.156 " fill="none" stroke="rgb(0, 0, 0)" stroke-linecap="butt" stroke-linejoin="round" stroke-opacity="1.0" stroke-width="3.0" />
            <path d=" M 458.839, 524.874 458.049, 525.993 452.301, 534.137 447.897, 539.358 442.340, 546.142 438.621, 549.994 436.080, 552.626 " fill="none" stroke="rgb(0, 0, 0)" stroke-linecap="butt" stroke-linejoin="round" stroke-opacity="1.0" stroke-width="3.0" />
            <path d=" M 653.962, 396.896 646.840, 394.530 639.654, 395.041 633.287, 396.552 632.460, 396.749 629.402, 396.737 623.696, 396.716 617.533, 396.301 " fill="none" stroke="rgb(0, 0, 0)" stroke-linecap="butt" stroke-linejoin="round" stroke-opacity="1.0" stroke-width="3.0" />
            <path d=" M 666.057, 801.463 668.333, 804.763 668.396, 804.958 668.842, 806.358 668.844, 806.362 669.295, 807.777 672.219, 816.942 675.232, 824.925 677.507, 830.202 678.457, 831.611 680.851, 835.389 " fill="none" stroke="rgb(0, 0, 0)" stroke-linecap="butt" stroke-linejoin="round" stroke-opacity="1.0" stroke-width="3.0" />
            <path d=" M 576.097, 405.234 574.143, 404.690 569.138, 402.493 562.570, 399.685 556.452, 397.012 552.335, 394.635 549.927, 393.400 546.283, 393.337 544.196, 393.584 542.385, 393.988 541.279, 395.113 " fill="none" stroke="rgb(0, 0, 0)" stroke-linecap="butt" stroke-linejoin="round" stroke-opacity="1.0" stroke-width="3.0" />
            <path d=" M 826.361, 1080.603 826.914, 1078.191 830.580, 1069.271 830.763, 1067.958 832.148, 1058.054 832.624, 1054.643 832.904, 1049.434 833.530, 1043.524 " fill="none" stroke="rgb(0, 0, 0)" stroke-linecap="butt" stroke-linejoin="round" stroke-opacity="1.0" stroke-width="3.0" />
            <path d=" M 672.893, 404.379 672.865, 404.426 672.335, 405.319 672.004, 405.878 671.341, 407.036 671.226, 407.235 671.146, 407.375 670.801, 407.977 669.582, 410.420 669.126, 411.333 662.781, 419.062 662.092, 419.901 662.017, 419.992 661.214, 420.970 661.086, 421.066 661.025, 421.111 659.317, 422.381 659.284, 422.405 659.074, 422.562 657.405, 423.802 656.728, 424.306 655.477, 424.761 655.088, 424.902 649.004, 427.113 646.060, 427.905 645.195, 428.084 " fill="none" stroke="rgb(0, 0, 0)" stroke-linecap="butt" stroke-linejoin="round" stroke-opacity="1.0" stroke-width="3.0" />
            <path d=" M 506.604, 483.932 506.737, 487.141 507.037, 494.356 509.915, 502.556 514.668, 507.363 514.755, 507.451 514.778, 507.657 515.198, 511.423 515.500, 512.349 515.627, 512.609 516.469, 514.342 518.339, 518.190 518.475, 518.469 518.531, 518.585 518.706, 518.944 " fill="none" stroke="rgb(0, 0, 0)" stroke-linecap="butt" stroke-linejoin="round" stroke-opacity="1.0" stroke-width="3.0" />
            <path d=" M 695.228, 1012.985 698.516, 1016.620 698.538, 1016.643 699.087, 1017.251 699.243, 1017.423 700.629, 1018.955 702.658, 1020.193 704.862, 1020.048 704.992, 1020.000 708.213, 1018.804 709.878, 1015.830 710.254, 1013.456 709.363, 1009.672 708.458, 1006.546 707.074, 1003.857 706.296, 1003.323 704.814, 1002.306 703.507, 1001.447 703.420, 1001.390 701.694, 1000.254 " fill="none" stroke="rgb(0, 0, 0)" stroke-linecap="butt" stroke-linejoin="round" stroke-opacity="1.0" stroke-width="3.0" />
            <path d=" M 624.440, 1048.959 625.387, 1053.047 625.698, 1061.693 625.987, 1065.551 627.520, 1071.917 627.720, 1075.852 627.703, 1081.672 628.602, 1087.245 " fill="none" stroke="rgb(0, 0, 0)" stroke-linecap="butt" stroke-linejoin="round" stroke-opacity="1.0" stroke-width="3.0" />
            <path d=" M 744.393, 772.285 743.804, 769.978 741.330, 760.289 741.037, 759.139 738.896, 749.371 737.651, 743.690 734.240, 734.979 " fill="none" stroke="rgb(0, 0, 0)" stroke-linecap="butt" stroke-linejoin="round" stroke-opacity="1.0" stroke-width="3.0" />
            <path d=" M 576.167, 450.659 576.141, 450.414 576.003, 449.768 575.650, 449.156 575.617, 449.100 574.852, 447.777 574.390, 447.315 574.318, 447.243 574.227, 447.153 573.714, 446.639 573.036, 445.961 571.816, 444.740 571.342, 444.267 570.976, 444.117 570.116, 443.764 569.279, 443.421 567.246, 442.588 566.680, 442.013 566.650, 441.983 566.587, 441.918 566.572, 441.903 566.538, 441.868 566.031, 441.353 565.376, 440.687 565.214, 440.522 565.005, 440.310 564.990, 440.294 562.903, 438.173 562.792, 438.060 562.662, 437.928 560.583, 435.814 556.614, 432.691 555.219, 432.066 553.434, 431.349 552.969, 431.162 552.290, 430.889 548.242, 430.824 545.140, 430.827 " fill="none" stroke="rgb(0, 0, 0)" stroke-linecap="butt" stroke-linejoin="round" stroke-opacity="1.0" stroke-width="3.0" />
            <path d=" M 586.848, 983.601 586.873, 984.119 587.063, 988.069 587.672, 992.924 588.136, 995.398 588.294, 996.237 589.445, 998.477 589.927, 999.413 590.067, 999.810 590.088, 999.870 590.681, 1001.544 591.418, 1002.079 594.246, 1003.133 595.231, 1003.463 598.692, 1003.396 601.264, 1002.123 602.814, 1000.459 603.764, 998.692 603.888, 996.580 603.208, 994.938 602.772, 993.883 " fill="none" stroke="rgb(0, 0, 0)" stroke-linecap="butt" stroke-linejoin="round" stroke-opacity="1.0" stroke-width="3.0" />
            <path d=" M 641.739, 713.568 641.258, 714.277 641.045, 714.591 640.898, 714.809 640.826, 714.915 640.786, 714.974 639.920, 716.253 639.626, 716.686 639.025, 717.573 638.211, 720.031 638.134, 725.529 638.837, 727.413 640.695, 731.005 641.625, 736.091 643.540, 742.582 644.788, 744.098 645.527, 744.995 647.826, 745.961 649.257, 746.563 650.594, 747.125 " fill="none" stroke="rgb(0, 0, 0)" stroke-linecap="butt" stroke-linejoin="round" stroke-opacity="1.0" stroke-width="3.0" />
            <path d=" M 681.418, 1098.460 680.903, 1096.223 680.109, 1091.331 677.983, 1085.860 677.857, 1078.219 678.658, 1074.559 679.097, 1072.556 679.463, 1072.201 681.943, 1069.799 685.170, 1067.352 689.410, 1065.525 689.871, 1065.347 " fill="none" stroke="rgb(0, 0, 0)" stroke-linecap="butt" stroke-linejoin="round" stroke-opacity="1.0" stroke-width="3.0" />
            <path d=" M 588.382, 1026.163 588.984, 1029.534 591.226, 1032.641 591.890, 1033.561 592.134, 1033.900 594.711, 1035.464 598.219, 1035.918 598.633, 1035.971 598.818, 1035.995 599.022, 1036.022 599.198, 1035.915 600.111, 1034.769 600.181, 1034.682 600.477, 1034.310 600.357, 1033.659 599.979, 1031.615 600.131, 1028.359 599.954, 1027.220 599.781, 1026.117 599.760, 1025.996 598.510, 1018.733 598.979, 1022.101 598.940, 1024.479 598.938, 1024.571 598.937, 1024.636 " fill="none" stroke="rgb(0, 0, 0)" stroke-linecap="butt" stroke-linejoin="round" stroke-opacity="1.0" stroke-width="3.0" />
            <path d=" M 690.068, 863.650 691.551, 873.393 691.611, 873.865 692.172, 878.244 691.098, 872.641 690.070, 867.486 690.010, 867.188 689.762, 865.943 689.685, 865.771 689.655, 865.704 687.636, 861.217 685.416, 853.374 " fill="none" stroke="rgb(0, 0, 0)" stroke-linecap="butt" stroke-linejoin="round" stroke-opacity="1.0" stroke-width="3.0" />
            <path d=" M 604.487, 738.729 604.408, 738.458 602.064, 730.458 601.545, 724.824 601.479, 724.113 601.213, 721.219 600.388, 712.264 600.289, 702.265 600.282, 701.497 600.277, 701.022 600.252, 698.537 600.252, 698.451 600.251, 698.374 " fill="none" stroke="rgb(0, 0, 0)" stroke-linecap="butt" stroke-linejoin="round" stroke-opacity="1.0" stroke-width="3.0" />
            <path d=" M 681.948, 844.792 681.604, 845.271 681.520, 845.389 680.811, 846.374 680.721, 846.499 680.682, 846.554 679.292, 848.486 677.677, 855.669 675.709, 860.177 675.084, 864.885 674.820, 871.703 676.469, 877.617 677.372, 878.556 677.402, 878.587 680.951, 882.276 " fill="none" stroke="rgb(0, 0, 0)" stroke-linecap="butt" stroke-linejoin="round" stroke-opacity="1.0" stroke-width="3.0" />
            <path d=" M 627.580, 1088.414 627.512, 1088.331 625.597, 1086.003 624.775, 1085.003 621.732, 1078.230 620.678, 1071.973 620.970, 1068.333 620.661, 1063.079 620.355, 1057.874 620.507, 1057.264 621.889, 1051.724 622.798, 1049.888 623.268, 1048.938 " fill="none" stroke="rgb(0, 0, 0)" stroke-linecap="butt" stroke-linejoin="round" stroke-opacity="1.0" stroke-width="3.0" />
            <path d=" M 758.172, 1104.207 762.880, 1106.295 764.217, 1106.887 764.929, 1106.989 766.805, 1107.258 771.299, 1110.054 776.877, 1112.019 780.038, 1113.108 783.551, 1112.278 790.344, 1109.621 791.139, 1108.701 792.822, 1105.253 793.065, 1103.130 " fill="none" stroke="rgb(0, 0, 0)" stroke-linecap="butt" stroke-linejoin="round" stroke-opacity="1.0" stroke-width="3.0" />
            <path d=" M 649.766, 1141.289 649.757, 1141.398 649.538, 1144.307 650.236, 1147.226 652.333, 1150.017 653.771, 1150.058 658.292, 1149.898 660.634, 1149.143 664.695, 1143.810 667.291, 1144.417 668.273, 1144.518 669.699, 1144.462 672.553, 1141.925 675.727, 1138.334 676.008, 1134.149 " fill="none" stroke="rgb(0, 0, 0)" stroke-linecap="butt" stroke-linejoin="round" stroke-opacity="1.0" stroke-width="3.0" />
            <path d=" M 792.993, 942.429 792.543, 941.543 788.011, 932.629 785.710, 928.103 782.659, 918.580 779.607, 909.057 777.937, 903.847 777.622, 902.532 " fill="none" stroke="rgb(0, 0, 0)" stroke-linecap="butt" stroke-linejoin="round" stroke-opacity="1.0" stroke-width="3.0" />
            <path d=" M 660.740, 1055.107 659.446, 1062.316 658.688, 1065.879 658.490, 1066.808 657.665, 1070.686 657.229, 1072.735 656.401, 1074.725 654.457, 1079.400 652.161, 1083.372 649.675, 1085.106 647.680, 1084.682 646.737, 1082.485 646.025, 1077.273 645.964, 1076.831 " fill="none" stroke="rgb(0, 0, 0)" stroke-linecap="butt" stroke-linejoin="round" stroke-opacity="1.0" stroke-width="3.0" />
            <path d=" M 822.854, 488.844 821.711, 486.246 817.903, 479.008 815.365, 474.830 813.693, 473.079 813.248, 471.975 810.930, 468.655 809.528, 466.200 805.456, 463.380 803.505, 462.759 796.703, 462.995 796.168, 463.751 794.867, 465.586 " fill="none" stroke="rgb(0, 0, 0)" stroke-linecap="butt" stroke-linejoin="round" stroke-opacity="1.0" stroke-width="3.0" />
            <path d=" M 605.113, 481.023 604.197, 480.001 599.419, 474.670 594.488, 470.385 586.941, 463.826 584.797, 461.963 579.027, 456.936 577.166, 454.097 577.164, 454.094 576.656, 453.320 576.167, 450.659 576.003, 449.768 " fill="none" stroke="rgb(0, 0, 0)" stroke-linecap="butt" stroke-linejoin="round" stroke-opacity="1.0" stroke-width="3.0" />
            <path d=" M 675.941, 1114.220 677.049, 1115.001 677.334, 1115.202 677.964, 1115.646 679.146, 1116.479 682.515, 1118.510 685.264, 1119.715 688.055, 1119.560 691.312, 1116.832 692.826, 1113.248 691.483, 1109.824 690.273, 1107.818 688.054, 1104.882 686.267, 1102.171 684.430, 1100.823 681.418, 1098.460 678.854, 1096.447 " fill="none" stroke="rgb(0, 0, 0)" stroke-linecap="butt" stroke-linejoin="round" stroke-opacity="1.0" stroke-width="3.0" />
            <path d=" M 650.869, 422.801 650.111, 423.145 648.295, 423.965 647.552, 423.771 645.163, 423.146 640.931, 422.038 636.147, 420.785 634.063, 419.495 633.152, 418.931 631.922, 417.052 631.011, 415.660 631.181, 415.183 631.315, 414.806 631.354, 414.697 631.713, 413.689 636.766, 413.520 642.807, 415.528 646.759, 416.829 648.901, 418.167 648.995, 418.226 650.173, 418.962 " fill="none" stroke="rgb(0, 0, 0)" stroke-linecap="butt" stroke-linejoin="round" stroke-opacity="1.0" stroke-width="3.0" />
            <path d=" M 545.100, 910.491 547.175, 912.449 549.233, 914.392 551.953, 920.239 555.030, 926.993 556.112, 928.876 558.594, 931.519 559.971, 933.136 564.684, 939.692 569.211, 947.772 " fill="none" stroke="rgb(0, 0, 0)" stroke-linecap="butt" stroke-linejoin="round" stroke-opacity="1.0" stroke-width="3.0" />
            <path d=" M 505.342, 654.197 506.881, 656.863 507.924, 658.672 510.891, 662.080 511.590, 662.883 511.698, 663.003 516.363, 668.196 518.697, 670.637 521.326, 672.719 528.440, 677.421 530.506, 678.068 531.300, 678.505 534.302, 679.577 534.457, 679.693 535.400, 680.173 538.878, 680.848 539.513, 680.920 " fill="none" stroke="rgb(0, 0, 0)" stroke-linecap="butt" stroke-linejoin="round" stroke-opacity="1.0" stroke-width="3.0" />
            <path d=" M 791.033, 538.169 791.204, 546.211 791.204, 546.236 791.195, 546.545 791.188, 546.777 791.186, 546.822 791.142, 548.249 791.142, 548.250 791.102, 549.534 791.099, 549.625 791.063, 550.772 790.986, 553.236 790.780, 554.538 789.214, 564.414 788.974, 565.929 788.727, 571.268 787.865, 578.147 787.227, 580.406 787.201, 580.497 787.161, 580.637 786.835, 581.795 786.491, 583.010 " fill="none" stroke="rgb(0, 0, 0)" stroke-linecap="butt" stroke-linejoin="round" stroke-opacity="1.0" stroke-width="3.0" />
            <path d=" M 515.178, 555.129 516.535, 554.962 516.833, 554.926 519.036, 554.656 524.633, 553.971 527.071, 553.882 527.149, 553.879 527.212, 553.877 527.855, 553.853 528.362, 553.834 528.628, 553.825 536.119, 553.549 537.121, 553.732 537.744, 553.846 539.170, 554.106 539.224, 554.115 539.436, 554.154 540.119, 554.278 541.437, 554.519 541.438, 554.519 546.023, 555.355 550.820, 556.673 554.808, 558.064 555.847, 558.427 560.558, 560.070 " fill="none" stroke="rgb(0, 0, 0)" stroke-linecap="butt" stroke-linejoin="round" stroke-opacity="1.0" stroke-width="3.0" />
            <path d=" M 720.080, 1067.608 715.610, 1071.202 711.977, 1072.660 708.171, 1075.905 707.791, 1078.524 707.668, 1079.377 708.831, 1085.810 709.760, 1088.891 710.857, 1090.172 715.562, 1093.423 718.646, 1094.363 720.802, 1095.021 722.846, 1095.645 726.265, 1095.665 726.424, 1095.655 " fill="none" stroke="rgb(0, 0, 0)" stroke-linecap="butt" stroke-linejoin="round" stroke-opacity="1.0" stroke-width="3.0" />
            <path d=" M 662.888, 790.028 662.706, 790.165 662.679, 790.186 662.590, 790.253 661.882, 790.788 661.721, 790.910 661.312, 791.218 661.162, 791.331 661.162, 791.332 661.119, 791.364 661.084, 791.391 660.940, 791.500 660.891, 791.537 660.787, 791.615 658.776, 793.134 657.096, 796.681 655.967, 801.868 656.656, 805.601 662.637, 813.305 663.699, 817.509 663.470, 827.466 664.070, 830.503 664.378, 832.060 " fill="none" stroke="rgb(0, 0, 0)" stroke-linecap="butt" stroke-linejoin="round" stroke-opacity="1.0" stroke-width="3.0" />
            <path d=" M 455.387, 697.195 452.240, 687.704 451.774, 686.300 449.520, 677.572 447.940, 670.128 445.424, 661.390 442.852, 651.727 442.771, 651.424 442.496, 650.291 " fill="none" stroke="rgb(0, 0, 0)" stroke-linecap="butt" stroke-linejoin="round" stroke-opacity="1.0" stroke-width="3.0" />
            <path d=" M 590.253, 806.867 594.946, 801.599 596.399, 796.927 596.735, 794.172 594.974, 788.610 591.671, 785.155 589.828, 784.262 589.328, 784.021 588.949, 783.918 587.963, 783.653 577.982, 784.276 576.007, 784.399 575.334, 784.441 575.057, 784.347 573.735, 783.898 573.605, 783.854 571.381, 783.098 568.317, 783.807 " fill="none" stroke="rgb(0, 0, 0)" stroke-linecap="butt" stroke-linejoin="round" stroke-opacity="1.0" stroke-width="3.0" />
            <path d=" M 796.885, 788.041 793.899, 790.318 791.802, 793.806 792.884, 799.629 795.876, 801.873 795.953, 806.429 791.623, 813.978 789.230, 819.088 790.110, 822.241 794.628, 826.665 795.115, 829.173 795.124, 829.223 795.346, 830.365 " fill="none" stroke="rgb(0, 0, 0)" stroke-linecap="butt" stroke-linejoin="round" stroke-opacity="1.0" stroke-width="3.0" />
            <path d=" M 474.364, 480.529 474.070, 481.871 472.999, 486.756 472.730, 491.747 473.893, 495.418 472.130, 500.179 469.194, 504.278 466.887, 509.983 463.406, 517.832 460.184, 521.785 458.049, 525.993 " fill="none" stroke="rgb(0, 0, 0)" stroke-linecap="butt" stroke-linejoin="round" stroke-opacity="1.0" stroke-width="3.0" />
            <path d=" M 599.163, 489.560 597.373, 487.090 597.343, 487.049 596.491, 485.873 594.461, 483.071 593.840, 482.581 590.967, 480.312 590.659, 480.072 590.283, 479.778 585.071, 476.643 582.211, 474.922 580.253, 473.147 577.971, 469.351 577.466, 468.224 576.500, 466.068 575.113, 465.280 573.469, 464.503 570.063, 462.894 569.801, 462.771 569.131, 462.849 567.502, 463.039 564.370, 463.405 563.343, 463.538 560.090, 463.960 " fill="none" stroke="rgb(0, 0, 0)" stroke-linecap="butt" stroke-linejoin="round" stroke-opacity="1.0" stroke-width="3.0" />
            <path d=" M 575.138, 447.048 574.639, 445.957 574.518, 445.693 574.406, 445.449 573.648, 443.792 572.310, 442.225 572.203, 442.099 572.158, 442.047 571.940, 441.791 571.806, 441.634 570.636, 440.265 570.076, 439.608 569.226, 438.613 569.223, 438.610 569.212, 438.596 568.425, 437.676 564.755, 435.116 564.746, 435.112 564.352, 434.932 564.339, 434.926 563.883, 434.718 557.147, 431.642 550.914, 430.629 545.140, 430.827 541.268, 431.680 539.817, 432.010 539.189, 432.276 537.546, 432.971 537.040, 433.534 536.322, 434.332 534.571, 435.901 534.427, 436.315 534.261, 436.793 534.144, 437.129 533.899, 437.833 " fill="none" stroke="rgb(0, 0, 0)" stroke-linecap="butt" stroke-linejoin="round" stroke-opacity="1.0" stroke-width="3.0" />
            <path d=" M 760.522, 693.650 759.437, 693.739 755.054, 696.330 754.671, 696.555 752.798, 699.548 747.726, 702.593 744.554, 706.286 743.938, 707.856 745.896, 710.074 749.018, 713.237 755.734, 719.721 761.183, 728.106 761.787, 729.035 761.956, 729.356 " fill="none" stroke="rgb(0, 0, 0)" stroke-linecap="butt" stroke-linejoin="round" stroke-opacity="1.0" stroke-width="3.0" />
            <path d=" M 780.250, 919.947 778.824, 910.069 777.622, 902.532 777.264, 900.284 775.453, 893.471 772.884, 883.806 772.677, 883.024 769.426, 873.567 768.314, 870.332 " fill="none" stroke="rgb(0, 0, 0)" stroke-linecap="butt" stroke-linejoin="round" stroke-opacity="1.0" stroke-width="3.0" />
            <path d=" M 588.225, 767.754 588.225, 767.411 588.226, 767.072 588.226, 766.926 588.232, 760.695 587.068, 755.670 588.903, 750.556 588.764, 747.146 588.526, 746.179 585.825, 744.276 582.776, 743.797 580.119, 743.957 574.757, 745.150 567.844, 751.423 566.360, 753.125 565.079, 755.232 564.645, 755.946 " fill="none" stroke="rgb(0, 0, 0)" stroke-linecap="butt" stroke-linejoin="round" stroke-opacity="1.0" stroke-width="3.0" />
            <path d=" M 812.071, 897.772 811.292, 907.742 811.209, 908.804 810.940, 909.847 810.092, 913.144 808.671, 918.669 807.947, 921.483 805.987, 931.289 804.826, 937.099 802.929, 941.590 801.371, 947.954 " fill="none" stroke="rgb(0, 0, 0)" stroke-linecap="butt" stroke-linejoin="round" stroke-opacity="1.0" stroke-width="3.0" />
            <path d=" M 764.929, 1106.989 764.648, 1108.583 762.380, 1112.128 760.213, 1116.793 759.787, 1119.947 759.747, 1121.848 760.102, 1123.183 761.221, 1124.909 764.155, 1127.619 765.702, 1128.594 768.513, 1130.095 773.907, 1132.965 778.886, 1129.850 779.313, 1129.583 779.461, 1129.611 786.278, 1130.896 786.479, 1130.868 789.921, 1130.374 " fill="none" stroke="rgb(0, 0, 0)" stroke-linecap="butt" stroke-linejoin="round" stroke-opacity="1.0" stroke-width="3.0" />
            <path d=" M 444.358, 616.298 444.495, 615.163 449.352, 612.167 452.256, 608.964 453.845, 604.000 455.055, 600.534 456.073, 599.590 462.712, 595.044 469.535, 593.421 476.851, 593.480 481.394, 595.018 485.619, 596.665 " fill="none" stroke="rgb(0, 0, 0)" stroke-linecap="butt" stroke-linejoin="round" stroke-opacity="1.0" stroke-width="3.0" />
            <path d=" M 848.064, 639.047 847.176, 632.745 846.088, 625.766 845.050, 621.657 843.823, 612.835 842.694, 602.944 840.731, 596.353 837.908, 586.871 " fill="none" stroke="rgb(0, 0, 0)" stroke-linecap="butt" stroke-linejoin="round" stroke-opacity="1.0" stroke-width="3.0" />
            <path d=" M 656.264, 788.644 657.221, 789.542 660.697, 791.274 656.264, 788.644 655.105, 787.957 651.390, 784.890 648.641, 781.107 649.260, 773.635 649.265, 773.571 649.267, 773.547 649.536, 770.297 648.562, 764.991 646.183, 758.370 646.657, 756.731 647.618, 753.590 647.716, 753.462 648.050, 753.023 648.096, 752.962 649.427, 751.215 651.232, 749.688 " fill="none" stroke="rgb(0, 0, 0)" stroke-linecap="butt" stroke-linejoin="round" stroke-opacity="1.0" stroke-width="3.0" />
            <path d=" M 733.548, 997.200 736.869, 1004.620 736.947, 1004.795 737.075, 1005.080 737.277, 1005.532 737.443, 1007.088 738.222, 1014.377 737.539, 1024.354 737.432, 1025.921 737.246, 1028.531 736.889, 1036.145 737.007, 1039.498 737.215, 1044.015 737.229, 1044.324 737.264, 1045.779 737.266, 1045.874 737.283, 1046.586 737.287, 1046.768 737.429, 1052.700 " fill="none" stroke="rgb(0, 0, 0)" stroke-linecap="butt" stroke-linejoin="round" stroke-opacity="1.0" stroke-width="3.0" />
            <path d=" M 544.308, 526.221 537.113, 525.499 532.935, 525.080 527.272, 526.091 526.264, 526.482 526.255, 526.486 524.744, 527.073 522.181, 528.068 522.179, 528.069 521.612, 528.289 515.599, 530.624 510.358, 531.888 505.714, 536.029 504.161, 537.414 504.040, 537.522 499.167, 542.511 495.619, 548.153 " fill="none" stroke="rgb(0, 0, 0)" stroke-linecap="butt" stroke-linejoin="round" stroke-opacity="1.0" stroke-width="3.0" />
            <path d=" M 761.788, 521.137 761.794, 520.878 761.680, 519.854 763.414, 514.870 764.696, 512.150 764.756, 512.022 764.781, 511.970 764.866, 511.790 766.134, 506.511 766.415, 505.574 766.376, 502.698 768.784, 498.735 768.791, 494.923 768.987, 489.690 768.893, 489.140 768.010, 485.060 767.407, 482.657 765.913, 480.172 764.034, 478.150 761.343, 475.643 759.705, 473.931 757.894, 473.175 757.102, 473.107 754.760, 472.904 754.522, 472.884 754.446, 472.877 754.325, 472.903 " fill="none" stroke="rgb(0, 0, 0)" stroke-linecap="butt" stroke-linejoin="round" stroke-opacity="1.0" stroke-width="3.0" />
            <path d=" M 582.428, 890.980 583.338, 890.811 586.431, 890.195 590.247, 888.300 594.280, 885.478 597.059, 883.145 598.859, 879.286 599.965, 873.738 599.964, 871.262 598.769, 866.953 594.987, 863.204 588.496, 861.072 584.094, 860.906 578.853, 861.068 577.261, 861.024 576.777, 861.199 " fill="none" stroke="rgb(0, 0, 0)" stroke-linecap="butt" stroke-linejoin="round" stroke-opacity="1.0" stroke-width="3.0" />
            <path d=" M 786.479, 1130.868 787.514, 1132.482 789.214, 1135.903 792.263, 1140.252 794.012, 1141.105 795.471, 1141.456 797.021, 1141.231 799.837, 1139.448 801.718, 1135.549 802.509, 1134.689 805.422, 1137.517 808.919, 1136.864 813.769, 1131.637 814.732, 1126.396 814.629, 1124.997 814.208, 1119.281 813.471, 1113.719 " fill="none" stroke="rgb(0, 0, 0)" stroke-linecap="butt" stroke-linejoin="round" stroke-opacity="1.0" stroke-width="3.0" />
            <path d=" M 522.203, 865.869 525.323, 872.076 528.428, 878.251 531.584, 885.561 535.449, 894.794 536.456, 898.767 538.451, 905.770 541.214, 910.527 543.269, 914.697 545.231, 918.681 " fill="none" stroke="rgb(0, 0, 0)" stroke-linecap="butt" stroke-linejoin="round" stroke-opacity="1.0" stroke-width="3.0" />
            <path d=" M 505.018, 438.482 504.140, 438.458 502.477, 438.413 497.090, 440.765 493.769, 442.598 488.385, 445.604 485.115, 449.291 482.297, 452.252 480.121, 455.781 477.654, 463.839 475.656, 473.638 475.185, 475.951 474.202, 480.410 474.070, 481.871 " fill="none" stroke="rgb(0, 0, 0)" stroke-linecap="butt" stroke-linejoin="round" stroke-opacity="1.0" stroke-width="3.0" />
            <path d=" M 570.511, 852.644 574.298, 853.515 583.255, 851.201 590.516, 847.287 594.863, 843.632 596.427, 841.989 598.097, 837.875 598.743, 832.787 598.866, 831.824 598.049, 828.997 597.917, 828.540 593.702, 823.181 588.917, 821.836 586.271, 822.329 582.425, 823.010 " fill="none" stroke="rgb(0, 0, 0)" stroke-linecap="butt" stroke-linejoin="round" stroke-opacity="1.0" stroke-width="3.0" />
            <path d=" M 428.323, 668.009 428.855, 672.460 429.066, 673.635 429.072, 673.671 430.153, 679.703 431.130, 685.161 433.521, 694.871 433.875, 696.308 435.366, 703.474 437.761, 712.047 440.336, 720.604 441.667, 724.372 443.175, 728.641 " fill="none" stroke="rgb(0, 0, 0)" stroke-linecap="butt" stroke-linejoin="round" stroke-opacity="1.0" stroke-width="3.0" />
            <path d=" M 746.632, 1094.909 745.455, 1096.777 744.633, 1098.239 742.561, 1103.372 741.399, 1109.183 742.530, 1115.353 743.432, 1122.384 744.193, 1125.114 751.430, 1130.980 753.974, 1130.453 755.391, 1129.776 755.891, 1127.842 757.149, 1119.670 758.993, 1110.640 " fill="none" stroke="rgb(0, 0, 0)" stroke-linecap="butt" stroke-linejoin="round" stroke-opacity="1.0" stroke-width="3.0" />
            <path d=" M 441.667, 724.372 442.940, 729.281 444.447, 738.482 444.200, 747.117 444.218, 748.111 444.124, 755.574 444.918, 758.559 445.755, 766.746 446.506, 769.040 447.847, 773.930 448.529, 776.926 451.268, 784.522 451.860, 785.931 453.742, 789.238 " fill="none" stroke="rgb(0, 0, 0)" stroke-linecap="butt" stroke-linejoin="round" stroke-opacity="1.0" stroke-width="3.0" />
            <path d=" M 785.745, 518.124 785.105, 518.228 777.434, 520.597 772.368, 521.956 771.172, 521.742 769.627, 521.465 766.713, 520.942 761.788, 521.137 760.540, 521.186 754.774, 522.551 754.416, 522.799 754.322, 522.864 752.456, 524.157 751.698, 524.683 748.863, 529.454 748.835, 529.502 747.414, 531.932 747.214, 532.273 746.095, 534.185 745.356, 536.489 745.421, 536.958 745.426, 536.990 745.430, 537.024 745.432, 537.036 745.979, 540.969 746.221, 542.219 748.193, 546.084 748.292, 546.279 748.784, 547.245 749.664, 548.670 750.158, 549.471 752.054, 551.151 753.957, 552.837 " fill="none" stroke="rgb(0, 0, 0)" stroke-linecap="butt" stroke-linejoin="round" stroke-opacity="1.0" stroke-width="3.0" />
            <path d=" M 690.581, 440.845 691.947, 439.970 692.711, 439.481 694.487, 438.343 696.656, 436.471 697.503, 433.906 697.746, 432.171 697.802, 431.771 697.818, 431.661 697.821, 431.637 698.562, 426.351 698.372, 422.303 697.888, 417.951 696.766, 414.902 695.237, 409.918 693.335, 406.211 688.556, 400.686 684.495, 397.089 679.622, 394.562 677.134, 393.674 674.552, 395.690 673.256, 397.931 672.856, 398.932 673.095, 400.790 673.227, 401.819 " fill="none" stroke="rgb(0, 0, 0)" stroke-linecap="butt" stroke-linejoin="round" stroke-opacity="1.0" stroke-width="3.0" />
            <path d=" M 495.158, 747.595 491.637, 745.023 489.606, 743.539 484.938, 739.694 481.326, 736.748 476.665, 731.416 470.307, 723.697 469.373, 722.563 464.360, 713.910 463.775, 712.902 458.540, 704.382 458.414, 704.178 457.899, 703.339 456.892, 700.876 455.387, 697.195 453.428, 692.403 " fill="none" stroke="rgb(0, 0, 0)" stroke-linecap="butt" stroke-linejoin="round" stroke-opacity="1.0" stroke-width="3.0" />
            <path d=" M 759.678, 825.579 761.845, 822.637 766.347, 816.183 770.523, 808.927 774.632, 799.810 775.429, 798.042 776.396, 795.290 777.638, 790.389 779.386, 780.543 779.457, 780.145 781.912, 770.451 782.108, 769.679 783.597, 763.598 784.792, 760.356 " fill="none" stroke="rgb(0, 0, 0)" stroke-linecap="butt" stroke-linejoin="round" stroke-opacity="1.0" stroke-width="3.0" />
            <path d=" M 594.087, 694.867 593.896, 695.084 592.189, 697.029 591.965, 698.225 591.962, 698.532 591.962, 698.555 591.958, 699.075 591.904, 705.765 591.514, 712.626 591.266, 716.998 590.561, 719.756 590.363, 720.531 589.043, 728.994 589.172, 732.533 589.021, 742.532 589.017, 742.779 589.086, 749.065 589.024, 758.046 588.399, 766.408 " fill="none" stroke="rgb(0, 0, 0)" stroke-linecap="butt" stroke-linejoin="round" stroke-opacity="1.0" stroke-width="3.0" />
            <path d=" M 803.841, 531.485 803.128, 533.628 802.995, 534.025 802.842, 534.487 802.398, 535.820 801.012, 539.982 800.933, 542.832 801.371, 544.616 801.371, 544.618 801.382, 544.660 801.389, 544.691 801.504, 545.159 802.727, 550.141 802.978, 551.165 804.863, 560.985 806.164, 567.756 806.293, 568.433 807.323, 573.793 808.397, 583.736 808.605, 585.664 809.239, 591.538 809.279, 591.907 809.540, 594.319 809.729, 596.072 810.016, 598.724 810.464, 602.872 " fill="none" stroke="rgb(0, 0, 0)" stroke-linecap="butt" stroke-linejoin="round" stroke-opacity="1.0" stroke-width="3.0" />
            <path d=" M 830.079, 1061.061 830.302, 1059.815 830.956, 1052.844 833.530, 1043.524 834.728, 1039.187 835.876, 1031.851 836.780, 1022.838 837.051, 1012.842 837.189, 1007.756 838.644, 997.863 839.939, 989.063 " fill="none" stroke="rgb(0, 0, 0)" stroke-linecap="butt" stroke-linejoin="round" stroke-opacity="1.0" stroke-width="3.0" />
            <path d=" M 535.021, 599.587 530.863, 603.299 526.724, 607.077 525.709, 608.017 524.351, 609.274 523.013, 610.642 522.130, 611.680 520.959, 613.058 519.442, 614.199 519.074, 614.476 515.362, 617.014 515.221, 617.137 513.252, 618.863 510.538, 620.801 509.483, 621.319 507.814, 621.579 505.799, 621.363 504.721, 621.384 503.071, 622.052 500.298, 625.780 498.831, 631.623 498.902, 633.488 498.903, 633.508 499.017, 636.507 499.983, 642.799 500.944, 645.555 502.669, 650.501 502.845, 650.766 503.071, 651.108 504.740, 653.630 506.881, 656.863 " fill="none" stroke="rgb(0, 0, 0)" stroke-linecap="butt" stroke-linejoin="round" stroke-opacity="1.0" stroke-width="3.0" />
            <path d=" M 546.523, 863.253 547.138, 868.403 547.819, 878.380 547.851, 878.839 548.482, 888.182 550.177, 893.514 550.364, 898.527 550.401, 898.663 552.990, 908.325 555.291, 914.546 557.836, 921.630 559.802, 928.366 561.492, 931.511 563.603, 935.440 563.707, 935.634 564.428, 936.975 565.891, 938.277 565.912, 938.295 566.314, 938.654 " fill="none" stroke="rgb(0, 0, 0)" stroke-linecap="butt" stroke-linejoin="round" stroke-opacity="1.0" stroke-width="3.0" />
            <path d=" M 453.589, 788.764 453.742, 789.238 454.812, 792.542 457.478, 798.357 461.283, 804.692 462.116, 806.217 466.727, 813.732 467.439, 814.768 470.532, 819.213 472.490, 821.759 478.742, 829.082 483.911, 833.521 488.845, 837.228 493.974, 841.351 498.055, 843.991 504.287, 848.024 " fill="none" stroke="rgb(0, 0, 0)" stroke-linecap="butt" stroke-linejoin="round" stroke-opacity="1.0" stroke-width="3.0" />
            <path d=" M 771.151, 574.551 771.271, 579.353 771.432, 580.931 771.440, 581.002 771.585, 582.426 771.598, 582.555 772.508, 591.456 772.512, 591.848 772.519, 592.626 772.530, 593.757 772.581, 599.111 772.588, 599.826 771.405, 607.920 770.066, 615.954 770.051, 624.675 770.723, 634.041 771.456, 644.014 771.497, 644.582 772.646, 650.180 771.840, 653.884 " fill="none" stroke="rgb(0, 0, 0)" stroke-linecap="butt" stroke-linejoin="round" stroke-opacity="1.0" stroke-width="3.0" />
            <path d=" M 855.031, 715.442 854.574, 710.042 854.190, 700.050 853.870, 691.742 852.906, 681.789 852.654, 679.186 852.920, 672.150 851.837, 662.209 851.595, 659.988 850.347, 650.066 850.022, 647.479 848.562, 641.080 848.064, 639.047 847.124, 635.210 " fill="none" stroke="rgb(0, 0, 0)" stroke-linecap="butt" stroke-linejoin="round" stroke-opacity="1.0" stroke-width="3.0" />
            <path d=" M 693.912, 533.477 693.235, 523.499 693.145, 522.183 692.842, 518.006 689.781, 510.682 685.364, 505.381 681.231, 501.326 676.031, 497.140 670.437, 493.587 665.031, 487.769 663.380, 486.718 654.306, 483.886 651.635, 484.568 651.093, 484.706 650.584, 484.836 649.551, 485.666 646.700, 487.953 643.433, 490.745 " fill="none" stroke="rgb(0, 0, 0)" stroke-linecap="butt" stroke-linejoin="round" stroke-opacity="1.0" stroke-width="3.0" />
            <path d=" M 562.914, 912.553 564.479, 917.562 566.173, 922.987 566.598, 927.596 567.290, 928.743 568.834, 931.417 569.579, 932.709 574.028, 935.720 576.765, 935.756 580.578, 933.803 582.658, 932.731 583.580, 931.243 584.351, 929.998 587.217, 929.432 589.999, 929.692 590.440, 929.733 595.225, 928.965 598.427, 926.955 599.229, 926.243 600.370, 925.156 600.710, 922.292 600.348, 920.541 598.668, 915.622 596.907, 913.799 594.697, 911.744 593.170, 911.462 590.422, 909.746 585.654, 907.208 582.443, 905.498 581.269, 904.545 " fill="none" stroke="rgb(0, 0, 0)" stroke-linecap="butt" stroke-linejoin="round" stroke-opacity="1.0" stroke-width="3.0" />
            <path d=" M 858.311, 784.179 858.253, 781.348 858.375, 773.606 858.190, 769.140 857.661, 759.154 857.566, 757.366 857.061, 747.398 856.918, 737.399 856.873, 734.292 856.518, 724.798 855.031, 715.442 854.928, 714.793 854.189, 708.952 853.679, 698.965 853.593, 697.283 853.542, 696.301 " fill="none" stroke="rgb(0, 0, 0)" stroke-linecap="butt" stroke-linejoin="round" stroke-opacity="1.0" stroke-width="3.0" />
            <path d=" M 839.536, 990.442 839.939, 989.063 842.743, 979.464 843.629, 976.431 845.118, 966.543 845.844, 961.722 847.772, 951.910 849.700, 942.098 851.004, 935.459 852.506, 925.573 854.008, 915.686 854.529, 912.258 853.514, 915.813 851.531, 920.445 " fill="none" stroke="rgb(0, 0, 0)" stroke-linecap="butt" stroke-linejoin="round" stroke-opacity="1.0" stroke-width="3.0" />
            <path d=" M 565.079, 755.232 562.687, 758.383 561.170, 760.429 559.213, 763.074 559.015, 763.594 557.156, 767.238 554.475, 772.389 550.358, 777.619 545.795, 781.196 540.771, 783.480 535.803, 785.032 532.866, 784.433 528.546, 783.442 525.846, 781.814 524.606, 781.067 523.536, 779.355 520.748, 774.897 520.289, 774.163 519.928, 772.873 517.969, 765.851 514.181, 761.643 511.218, 757.682 509.068, 756.052 507.764, 754.787 504.176, 752.268 497.954, 749.433 495.158, 747.595 492.291, 745.711 " fill="none" stroke="rgb(0, 0, 0)" stroke-linecap="butt" stroke-linejoin="round" stroke-opacity="1.0" stroke-width="3.0" />
            <path d=" M 627.085, 421.380 625.939, 419.852 624.921, 418.492 622.372, 415.089 622.336, 415.026 622.287, 414.939 622.265, 414.899 621.698, 413.895 620.604, 411.955 620.530, 411.853 619.898, 410.988 616.926, 406.919 615.502, 405.339 615.457, 405.288 615.344, 405.163 614.769, 404.759 614.321, 404.444 613.151, 403.025 611.754, 401.331 611.092, 400.529 609.066, 399.296 607.500, 397.155 607.293, 396.828 605.982, 394.757 605.618, 394.182 601.242, 391.878 596.851, 393.494 592.209, 395.924 584.819, 398.967 577.980, 403.464 576.097, 405.234 572.901, 408.239 568.650, 412.750 568.357, 413.116 568.293, 413.197 568.117, 413.416 568.091, 413.449 567.926, 413.656 565.324, 416.912 565.322, 416.915 565.168, 417.108 564.990, 417.330 564.826, 417.535 562.455, 421.933 561.607, 423.506 561.355, 423.973 559.391, 430.599 561.130, 432.559 563.846, 434.434 564.380, 434.803 564.339, 434.926 " fill="none" stroke="rgb(0, 0, 0)" stroke-linecap="butt" stroke-linejoin="round" stroke-opacity="1.0" stroke-width="3.0" />
            <path d=" M 775.453, 893.471 775.142, 892.173 773.188, 882.366 771.235, 872.558 770.520, 868.971 768.253, 859.232 767.239, 854.879 764.719, 845.688 762.002, 836.064 760.808, 831.831 759.678, 825.579 758.153, 817.136 756.265, 807.340 754.700, 799.664 754.615, 799.248 754.592, 798.874 754.195, 792.516 753.401, 789.351 753.363, 789.201 753.359, 789.184 753.184, 788.487 751.207, 780.616 749.391, 776.397 749.015, 776.023 748.988, 775.996 748.938, 775.946 747.231, 774.245 743.804, 769.978 " fill="none" stroke="rgb(0, 0, 0)" stroke-linecap="butt" stroke-linejoin="round" stroke-opacity="1.0" stroke-width="3.0" />
            <path d=" M 854.529, 912.258 855.334, 902.291 855.369, 901.860 856.358, 891.909 857.346, 881.958 857.567, 879.736 858.382, 869.692 858.760, 859.699 858.879, 856.575 859.231, 848.252 859.562, 838.174 859.333, 828.177 859.170, 821.041 859.492, 816.866 859.214, 812.563 859.075, 804.803 858.842, 794.805 858.732, 790.116 858.311, 784.179 857.926, 778.757 " fill="none" stroke="rgb(0, 0, 0)" stroke-linecap="butt" stroke-linejoin="round" stroke-opacity="1.0" stroke-width="3.0" />
            <path d=" M 543.269, 914.697 544.334, 917.442 547.326, 926.071 550.924, 934.348 553.365, 939.248 557.564, 948.324 558.990, 951.406 560.089, 955.656 561.879, 964.004 562.885, 972.967 563.451, 982.951 564.016, 992.935 564.068, 993.857 565.250, 1003.787 565.562, 1006.408 567.212, 1015.332 568.867, 1025.194 569.021, 1026.108 571.557, 1035.781 572.128, 1037.956 574.050, 1043.030 575.422, 1046.123 " fill="none" stroke="rgb(0, 0, 0)" stroke-linecap="butt" stroke-linejoin="round" stroke-opacity="1.0" stroke-width="3.0" />
            <path d=" M 438.621, 549.994 433.150, 555.258 430.235, 559.499 428.089, 562.350 424.866, 569.088 422.353, 573.841 420.024, 580.150 417.648, 589.864 416.811, 593.287 415.389, 603.186 415.218, 604.376 414.844, 614.370 414.776, 616.209 415.341, 625.631 415.609, 628.530 417.313, 638.384 418.617, 645.929 420.925, 655.659 421.565, 658.359 423.453, 663.265 426.177, 670.769 430.153, 679.703 " fill="none" stroke="rgb(0, 0, 0)" stroke-linecap="butt" stroke-linejoin="round" stroke-opacity="1.0" stroke-width="3.0" />
            <path d=" M 796.876, 1086.772 796.887, 1086.408 796.891, 1086.268 796.928, 1085.043 797.144, 1077.867 797.559, 1070.115 797.487, 1066.976 797.431, 1064.592 797.383, 1063.862 797.324, 1062.969 797.442, 1060.776 798.906, 1053.802 799.221, 1050.804 799.222, 1050.798 799.306, 1050.004 799.373, 1049.366 799.400, 1049.108 799.974, 1043.649 800.213, 1035.042 800.213, 1031.560 800.213, 1030.082 800.212, 1026.275 800.212, 1024.509 800.212, 1023.299 800.251, 1022.936 800.265, 1022.813 800.640, 1019.392 801.020, 1009.400 801.107, 1007.101 801.013, 1002.652 801.810, 995.412 802.154, 992.277 802.199, 991.875 802.399, 986.389 802.429, 985.560 802.562, 981.916 802.577, 981.500 802.915, 980.176 804.270, 974.874 805.384, 970.516 805.401, 966.859 805.402, 966.816 805.414, 964.287 805.023, 962.106 804.688, 960.241 804.553, 959.487 804.452, 958.925 804.014, 956.485 802.096, 954.171 801.453, 953.395 800.432, 951.605 800.431, 951.603 800.034, 950.908 799.937, 950.737 799.885, 950.672 799.319, 949.969 799.203, 949.824 792.936, 942.032 792.543, 941.543 " fill="none" stroke="rgb(0, 0, 0)" stroke-linecap="butt" stroke-linejoin="round" stroke-opacity="1.0" stroke-width="3.0" />
            <path d=" M 728.340, 715.558 727.950, 713.545 726.079, 703.890 723.065, 694.355 723.026, 694.232 720.323, 687.282 718.303, 677.488 717.179, 672.038 714.330, 664.930 711.308, 655.398 710.200, 651.901 707.735, 642.210 705.342, 632.801 705.087, 631.800 705.079, 631.768 705.016, 631.520 704.624, 629.978 704.337, 628.852 703.974, 627.264 703.667, 625.924 702.051, 618.869 700.110, 609.060 698.927, 603.080 696.969, 593.274 696.784, 592.345 695.644, 582.410 695.516, 581.292 695.300, 577.480 695.234, 576.319 695.078, 573.576 695.074, 573.498 694.553, 564.320 695.154, 554.339 695.318, 551.612 695.661, 544.935 694.152, 535.049 693.912, 533.477 693.681, 531.964 " fill="none" stroke="rgb(0, 0, 0)" stroke-linecap="butt" stroke-linejoin="round" stroke-opacity="1.0" stroke-width="3.0" />
            <path d=" M 791.060, 747.753 791.413, 751.905 792.166, 755.311 793.198, 764.498 794.498, 768.034 795.957, 776.451 796.437, 779.220 796.714, 785.625 796.724, 785.861 796.885, 788.041 797.423, 795.307 797.850, 803.333 797.996, 806.064 798.263, 811.080 800.015, 820.925 800.651, 824.499 801.084, 826.930 802.177, 836.870 802.562, 840.368 802.963, 844.017 803.410, 850.678 804.047, 860.170 804.577, 870.156 804.723, 872.897 804.739, 873.210 804.817, 874.681 805.232, 882.492 805.203, 892.492 805.198, 894.214 804.321, 904.175 804.216, 905.360 803.826, 910.163 803.676, 912.017 802.867, 921.984 802.492, 926.606 800.531, 936.412 800.239, 937.871 799.375, 947.833 799.203, 949.824 " fill="none" stroke="rgb(0, 0, 0)" stroke-linecap="butt" stroke-linejoin="round" stroke-opacity="1.0" stroke-width="3.0" />
        </g>
    </g>
</svg>
