<?xml version='1.0' encoding='ascii'?>
<svg xmlns="http://www.w3.org/2000/svg" height="1280" version="1.1" width="1280">
    <g id="RenderLayer_LineSet" inkscape:groupmode="lineset" inkscape:label="RenderLayer_LineSet" xmlns:inkscape="http://www.inkscape.org/namespaces/inkscape">
        <g id="strokes" inkscape:groupmode="layer" inkscape:label="strokes" xmlns:inkscape="http://www.inkscape.org/namespaces/inkscape">
            <path d=" M 717.181, 561.017 714.077, 562.386 711.521, 563.514 707.897, 565.201 707.231, 565.845 706.544, 566.509 706.539, 566.513 704.381, 568.599 702.355, 571.172 702.337, 571.195 701.326, 572.478 " fill="none" stroke="rgb(0, 0, 0)" stroke-linecap="butt" stroke-linejoin="round" stroke-opacity="1.0" stroke-width="3.0" />
            <path d=" M 812.333, 633.509 811.733, 635.557 811.602, 636.003 811.583, 636.068 811.191, 637.410 810.996, 638.073 810.967, 638.172 810.966, 638.178 810.964, 638.183 811.012, 640.040 811.055, 641.707 811.078, 642.601 811.078, 642.605 811.080, 642.648 811.098, 643.366 811.366, 643.693 812.243, 644.763 814.329, 645.028 816.180, 645.264 816.359, 645.287 816.559, 645.312 816.622, 645.320 820.423, 644.738 " fill="none" stroke="rgb(0, 0, 0)" stroke-linecap="butt" stroke-linejoin="round" stroke-opacity="1.0" stroke-width="3.0" />
            <path d=" M 657.706, 525.464 659.197, 523.748 660.470, 522.282 661.502, 521.094 661.585, 520.998 661.612, 520.967 661.701, 520.866 661.829, 520.718 662.038, 520.477 662.200, 520.291 663.521, 518.770 663.575, 518.708 664.107, 518.456 664.619, 518.214 664.983, 518.042 665.056, 518.008 665.175, 517.952 666.032, 517.547 666.345, 517.399 666.648, 517.256 666.916, 517.129 667.545, 516.832 668.147, 516.547 667.980, 516.713 667.884, 516.808 667.872, 516.820 667.672, 517.019 667.662, 517.029 667.053, 517.634 664.062, 521.214 " fill="none" stroke="rgb(0, 0, 0)" stroke-linecap="butt" stroke-linejoin="round" stroke-opacity="1.0" stroke-width="3.0" />
            <path d=" M 521.380, 856.336 523.169, 857.916 523.771, 858.449 524.388, 858.994 524.618, 859.197 524.984, 859.521 525.005, 859.557 526.953, 862.889 529.983, 867.384 530.701, 870.326 530.932, 871.275 531.154, 872.188 531.368, 873.066 531.425, 873.299 " fill="none" stroke="rgb(0, 0, 0)" stroke-linecap="butt" stroke-linejoin="round" stroke-opacity="1.0" stroke-width="3.0" />
            <path d=" M 705.151, 936.550 703.423, 939.240 702.649, 940.444 700.820, 944.116 699.060, 947.651 698.768, 948.472 696.977, 953.504 695.669, 953.905 " fill="none" stroke="rgb(0, 0, 0)" stroke-linecap="butt" stroke-linejoin="round" stroke-opacity="1.0" stroke-width="3.0" />
            <path d=" M 763.010, 685.340 763.166, 685.819 763.970, 688.294 764.047, 688.783 764.158, 689.494 765.206, 696.151 766.442, 700.323 767.841, 705.041 " fill="none" stroke="rgb(0, 0, 0)" stroke-linecap="butt" stroke-linejoin="round" stroke-opacity="1.0" stroke-width="3.0" />
            <path d=" M 591.889, 768.615 594.230, 765.157 599.279, 756.677 600.121, 755.062 601.379, 752.668 602.238, 751.034 " fill="none" stroke="rgb(0, 0, 0)" stroke-linecap="butt" stroke-linejoin="round" stroke-opacity="1.0" stroke-width="3.0" />
            <path d=" M 703.823, 796.690 700.697, 797.501 699.022, 798.676 698.708, 798.896 698.536, 799.016 697.020, 800.080 690.208, 801.651 684.530, 802.369 " fill="none" stroke="rgb(0, 0, 0)" stroke-linecap="butt" stroke-linejoin="round" stroke-opacity="1.0" stroke-width="3.0" />
            <path d=" M 838.785, 604.910 840.933, 609.188 841.013, 609.348 842.195, 611.702 844.847, 614.857 845.412, 615.529 845.416, 615.534 846.033, 615.887 846.212, 615.990 846.233, 616.001 846.339, 616.062 846.457, 616.129 846.467, 616.135 846.586, 616.203 846.661, 616.246 847.451, 616.698 848.126, 617.084 848.262, 617.162 849.013, 617.592 849.034, 617.604 849.531, 618.581 849.544, 618.606 849.556, 618.629 849.625, 618.766 849.699, 618.911 849.724, 618.959 849.988, 619.480 850.044, 619.590 850.708, 620.895 " fill="none" stroke="rgb(0, 0, 0)" stroke-linecap="butt" stroke-linejoin="round" stroke-opacity="1.0" stroke-width="3.0" />
            <path d=" M 798.386, 715.971 796.490, 706.152 796.371, 705.537 794.934, 696.114 794.909, 695.779 " fill="none" stroke="rgb(0, 0, 0)" stroke-linecap="butt" stroke-linejoin="round" stroke-opacity="1.0" stroke-width="3.0" />
            <path d=" M 471.376, 854.720 472.241, 858.085 470.846, 860.942 470.789, 861.058 469.925, 862.828 469.889, 862.900 469.445, 863.811 468.958, 864.791 468.285, 866.145 468.279, 866.178 468.066, 867.203 467.339, 870.711 467.207, 874.264 " fill="none" stroke="rgb(0, 0, 0)" stroke-linecap="butt" stroke-linejoin="round" stroke-opacity="1.0" stroke-width="3.0" />
            <path d=" M 743.942, 489.325 742.724, 489.628 739.163, 490.430 739.013, 490.464 738.132, 490.662 735.977, 491.148 732.502, 492.014 731.908, 492.292 731.902, 492.295 730.409, 492.992 730.321, 493.034 724.255, 495.868 " fill="none" stroke="rgb(0, 0, 0)" stroke-linecap="butt" stroke-linejoin="round" stroke-opacity="1.0" stroke-width="3.0" />
            <path d=" M 607.513, 607.407 604.313, 610.528 599.281, 615.732 592.839, 622.395 " fill="none" stroke="rgb(0, 0, 0)" stroke-linecap="butt" stroke-linejoin="round" stroke-opacity="1.0" stroke-width="3.0" />
            <path d=" M 606.570, 672.828 605.753, 668.662 605.319, 666.537 605.088, 665.407 604.622, 663.131 602.345, 657.332 600.152, 654.930 598.702, 653.927 " fill="none" stroke="rgb(0, 0, 0)" stroke-linecap="butt" stroke-linejoin="round" stroke-opacity="1.0" stroke-width="3.0" />
            <path d=" M 464.236, 844.099 464.177, 845.433 464.158, 845.852 464.126, 846.579 464.080, 847.633 463.997, 849.520 463.841, 853.062 464.541, 857.491 466.336, 861.719 467.648, 864.737 " fill="none" stroke="rgb(0, 0, 0)" stroke-linecap="butt" stroke-linejoin="round" stroke-opacity="1.0" stroke-width="3.0" />
            <path d=" M 637.540, 1033.184 636.205, 1032.280 634.936, 1031.421 634.849, 1031.362 632.095, 1029.498 631.466, 1029.072 631.324, 1028.977 631.035, 1028.781 631.011, 1028.764 630.052, 1028.115 629.589, 1027.802 629.532, 1027.764 629.527, 1027.760 629.418, 1027.686 629.342, 1027.635 627.929, 1026.678 625.231, 1025.227 624.758, 1024.973 624.633, 1024.906 621.846, 1023.907 621.578, 1023.811 620.530, 1023.436 620.431, 1023.401 619.032, 1022.900 618.873, 1022.843 " fill="none" stroke="rgb(0, 0, 0)" stroke-linecap="butt" stroke-linejoin="round" stroke-opacity="1.0" stroke-width="3.0" />
            <path d=" M 853.859, 558.887 854.332, 554.839 853.049, 550.519 851.958, 546.932 851.231, 542.817 850.565, 541.403 849.969, 540.138 849.901, 539.994 849.872, 539.704 849.851, 539.494 849.843, 539.415 849.746, 538.441 849.714, 538.125 " fill="none" stroke="rgb(0, 0, 0)" stroke-linecap="butt" stroke-linejoin="round" stroke-opacity="1.0" stroke-width="3.0" />
            <path d=" M 686.684, 505.331 685.532, 505.898 684.313, 506.634 680.784, 508.765 678.437, 510.424 678.339, 510.494 675.425, 512.554 673.047, 514.224 671.414, 515.371 668.877, 517.611 " fill="none" stroke="rgb(0, 0, 0)" stroke-linecap="butt" stroke-linejoin="round" stroke-opacity="1.0" stroke-width="3.0" />
            <path d=" M 500.656, 770.920 500.037, 770.801 499.967, 770.788 497.792, 770.368 494.932, 771.379 494.013, 772.920 492.954, 774.697 486.991, 776.232 484.123, 776.102 484.094, 776.101 481.322, 775.976 481.242, 775.972 " fill="none" stroke="rgb(0, 0, 0)" stroke-linecap="butt" stroke-linejoin="round" stroke-opacity="1.0" stroke-width="3.0" />
            <path d=" M 659.853, 595.427 662.220, 598.858 662.485, 599.068 662.589, 599.150 665.354, 601.338 666.234, 601.803 667.028, 602.222 667.677, 602.565 669.796, 603.685 669.945, 603.763 669.809, 603.664 667.712, 602.139 667.224, 601.784 667.190, 601.759 666.258, 601.081 663.122, 598.799 " fill="none" stroke="rgb(0, 0, 0)" stroke-linecap="butt" stroke-linejoin="round" stroke-opacity="1.0" stroke-width="3.0" />
            <path d=" M 523.627, 692.429 523.553, 692.478 517.653, 696.400 513.727, 699.695 513.640, 699.767 513.420, 699.952 511.788, 701.321 509.637, 703.126 509.263, 703.440 508.193, 704.338 507.915, 704.571 506.440, 705.808 " fill="none" stroke="rgb(0, 0, 0)" stroke-linecap="butt" stroke-linejoin="round" stroke-opacity="1.0" stroke-width="3.0" />
            <path d=" M 700.134, 497.938 698.600, 496.896 697.059, 496.548 694.206, 496.022 693.317, 496.197 690.824, 496.687 689.737, 496.900 688.034, 497.486 683.847, 499.055 682.181, 499.830 679.582, 501.039 " fill="none" stroke="rgb(0, 0, 0)" stroke-linecap="butt" stroke-linejoin="round" stroke-opacity="1.0" stroke-width="3.0" />
            <path d=" M 576.804, 756.819 571.889, 752.680 569.441, 750.802 567.376, 749.289 564.650, 747.839 558.727, 743.827 " fill="none" stroke="rgb(0, 0, 0)" stroke-linecap="butt" stroke-linejoin="round" stroke-opacity="1.0" stroke-width="3.0" />
            <path d=" M 712.098, 827.457 713.337, 826.922 715.037, 826.188 715.812, 826.075 717.613, 825.811 722.192, 825.142 729.014, 826.128 729.238, 826.225 730.070, 826.585 730.070, 826.585 730.282, 826.677 733.642, 828.132 " fill="none" stroke="rgb(0, 0, 0)" stroke-linecap="butt" stroke-linejoin="round" stroke-opacity="1.0" stroke-width="3.0" />
            <path d=" M 609.189, 645.396 616.409, 640.962 618.728, 638.383 622.255, 635.275 624.196, 632.185 625.695, 630.346 " fill="none" stroke="rgb(0, 0, 0)" stroke-linecap="butt" stroke-linejoin="round" stroke-opacity="1.0" stroke-width="3.0" />
            <path d=" M 585.036, 804.951 585.215, 804.551 585.455, 804.017 586.873, 800.856 588.310, 797.654 588.739, 796.697 588.474, 793.551 588.266, 792.140 586.189, 790.221 586.026, 790.070 585.367, 789.461 584.798, 788.935 584.649, 788.798 584.513, 788.672 584.358, 788.529 583.985, 788.322 583.014, 787.783 582.907, 787.723 582.870, 787.712 582.822, 787.698 582.780, 787.686 582.765, 787.682 582.708, 787.665 582.642, 787.646 582.613, 787.638 582.093, 787.488 582.037, 787.472 581.548, 787.330 581.541, 787.328 580.900, 787.143 " fill="none" stroke="rgb(0, 0, 0)" stroke-linecap="butt" stroke-linejoin="round" stroke-opacity="1.0" stroke-width="3.0" />
            <path d=" M 694.592, 593.141 697.394, 594.299 697.756, 594.448 698.020, 595.042 699.405, 598.166 700.787, 602.544 703.253, 603.248 704.683, 603.524 706.889, 602.468 708.517, 600.140 709.087, 598.901 " fill="none" stroke="rgb(0, 0, 0)" stroke-linecap="butt" stroke-linejoin="round" stroke-opacity="1.0" stroke-width="3.0" />
            <path d=" M 751.541, 700.169 750.313, 699.794 748.442, 699.939 743.844, 700.539 739.310, 702.475 737.962, 703.403 734.424, 705.839 734.973, 705.357 737.962, 703.403 " fill="none" stroke="rgb(0, 0, 0)" stroke-linecap="butt" stroke-linejoin="round" stroke-opacity="1.0" stroke-width="3.0" />
            <path d=" M 817.125, 493.143 815.381, 491.508 813.181, 491.512 808.825, 490.111 805.561, 488.410 799.261, 488.326 795.384, 488.274 " fill="none" stroke="rgb(0, 0, 0)" stroke-linecap="butt" stroke-linejoin="round" stroke-opacity="1.0" stroke-width="3.0" />
            <path d=" M 727.355, 947.960 727.944, 947.863 728.117, 947.835 728.147, 947.830 728.395, 947.789 729.262, 947.647 730.861, 946.357 733.259, 944.423 733.351, 944.239 736.263, 938.433 737.059, 936.221 739.416, 929.672 " fill="none" stroke="rgb(0, 0, 0)" stroke-linecap="butt" stroke-linejoin="round" stroke-opacity="1.0" stroke-width="3.0" />
            <path d=" M 405.424, 768.537 405.667, 770.441 406.185, 774.494 406.476, 775.624 407.717, 779.929 409.205, 782.490 411.059, 786.555 412.891, 789.717 413.107, 789.993 " fill="none" stroke="rgb(0, 0, 0)" stroke-linecap="butt" stroke-linejoin="round" stroke-opacity="1.0" stroke-width="3.0" />
            <path d=" M 541.141, 729.616 541.056, 729.183 540.827, 728.013 540.543, 726.557 540.188, 724.739 538.101, 721.442 536.055, 717.909 535.885, 717.617 535.765, 717.410 535.607, 717.137 535.536, 717.014 534.399, 715.187 530.729, 709.286 " fill="none" stroke="rgb(0, 0, 0)" stroke-linecap="butt" stroke-linejoin="round" stroke-opacity="1.0" stroke-width="3.0" />
            <path d=" M 585.098, 1075.701 585.359, 1080.805 585.374, 1081.084 589.578, 1085.473 594.716, 1087.262 600.580, 1089.665 " fill="none" stroke="rgb(0, 0, 0)" stroke-linecap="butt" stroke-linejoin="round" stroke-opacity="1.0" stroke-width="3.0" />
            <path d=" M 412.792, 780.272 412.789, 784.785 413.029, 786.407 413.104, 786.916 413.341, 788.517 413.665, 790.707 413.942, 792.576 414.086, 793.547 414.373, 794.937 414.725, 803.384 " fill="none" stroke="rgb(0, 0, 0)" stroke-linecap="butt" stroke-linejoin="round" stroke-opacity="1.0" stroke-width="3.0" />
            <path d=" M 582.574, 963.999 582.210, 960.074 582.070, 953.290 582.061, 952.812 582.053, 952.420 581.477, 948.607 581.475, 948.590 581.315, 947.529 581.295, 947.398 581.223, 946.922 581.030, 945.643 580.593, 942.742 579.510, 940.876 " fill="none" stroke="rgb(0, 0, 0)" stroke-linecap="butt" stroke-linejoin="round" stroke-opacity="1.0" stroke-width="3.0" />
            <path d=" M 591.370, 970.077 587.054, 961.057 584.965, 956.690 581.475, 948.590 " fill="none" stroke="rgb(0, 0, 0)" stroke-linecap="butt" stroke-linejoin="round" stroke-opacity="1.0" stroke-width="3.0" />
            <path d=" M 622.451, 589.256 622.052, 589.741 621.873, 589.960 619.002, 593.451 612.168, 600.752 610.959, 602.043 607.513, 607.407 607.444, 607.514 " fill="none" stroke="rgb(0, 0, 0)" stroke-linecap="butt" stroke-linejoin="round" stroke-opacity="1.0" stroke-width="3.0" />
            <path d=" M 562.287, 1073.117 566.372, 1073.999 571.582, 1075.873 576.950, 1075.230 577.451, 1075.170 580.425, 1073.280 584.302, 1070.816 " fill="none" stroke="rgb(0, 0, 0)" stroke-linecap="butt" stroke-linejoin="round" stroke-opacity="1.0" stroke-width="3.0" />
            <path d=" M 694.976, 589.394 697.538, 590.769 697.642, 590.825 698.861, 591.479 699.146, 591.632 700.169, 592.995 700.819, 593.860 701.486, 594.741 705.195, 599.635 707.364, 599.667 708.180, 599.679 709.087, 598.901 710.848, 597.389 711.856, 594.934 " fill="none" stroke="rgb(0, 0, 0)" stroke-linecap="butt" stroke-linejoin="round" stroke-opacity="1.0" stroke-width="3.0" />
            <path d=" M 440.627, 720.578 442.029, 717.924 442.504, 713.752 443.888, 709.994 444.352, 708.732 441.371, 705.679 441.321, 705.628 440.672, 702.411 439.158, 701.049 437.601, 700.181 " fill="none" stroke="rgb(0, 0, 0)" stroke-linecap="butt" stroke-linejoin="round" stroke-opacity="1.0" stroke-width="3.0" />
            <path d=" M 591.604, 974.765 587.719, 965.550 586.867, 963.527 584.032, 959.104 582.061, 952.812 " fill="none" stroke="rgb(0, 0, 0)" stroke-linecap="butt" stroke-linejoin="round" stroke-opacity="1.0" stroke-width="3.0" />
            <path d=" M 629.927, 1074.172 620.918, 1078.512 619.525, 1079.182 619.451, 1079.221 618.408, 1079.766 617.634, 1080.170 613.536, 1082.309 613.471, 1082.343 612.659, 1082.767 608.346, 1085.019 " fill="none" stroke="rgb(0, 0, 0)" stroke-linecap="butt" stroke-linejoin="round" stroke-opacity="1.0" stroke-width="3.0" />
            <path d=" M 583.528, 789.417 583.405, 789.311 583.384, 789.293 582.541, 788.563 582.328, 788.379 582.283, 788.340 582.103, 788.184 581.980, 788.078 581.904, 788.012 581.894, 788.004 581.552, 787.708 581.543, 787.700 580.900, 787.143 580.863, 787.111 579.885, 786.265 578.824, 785.347 578.766, 785.297 578.765, 785.297 578.454, 785.032 577.996, 784.643 577.824, 784.496 576.213, 783.125 576.104, 783.033 576.006, 782.949 574.728, 781.862 574.698, 781.836 574.010, 781.251 571.620, 780.596 566.852, 776.361 565.637, 775.116 564.728, 774.186 " fill="none" stroke="rgb(0, 0, 0)" stroke-linecap="butt" stroke-linejoin="round" stroke-opacity="1.0" stroke-width="3.0" />
            <path d=" M 468.808, 889.191 468.712, 888.280 467.816, 883.750 467.036, 877.132 467.207, 874.264 467.576, 880.138 467.816, 883.750 " fill="none" stroke="rgb(0, 0, 0)" stroke-linecap="butt" stroke-linejoin="round" stroke-opacity="1.0" stroke-width="3.0" />
            <path d=" M 643.092, 1097.204 648.228, 1095.335 650.639, 1094.458 658.651, 1090.225 664.467, 1085.486 " fill="none" stroke="rgb(0, 0, 0)" stroke-linecap="butt" stroke-linejoin="round" stroke-opacity="1.0" stroke-width="3.0" />
            <path d=" M 572.696, 1051.957 576.522, 1053.708 577.970, 1054.371 578.833, 1054.766 582.379, 1056.389 589.431, 1059.516 595.695, 1060.758 " fill="none" stroke="rgb(0, 0, 0)" stroke-linecap="butt" stroke-linejoin="round" stroke-opacity="1.0" stroke-width="3.0" />
            <path d=" M 882.604, 611.339 883.646, 608.839 884.891, 604.047 884.032, 594.084 883.980, 593.486 883.077, 586.927 " fill="none" stroke="rgb(0, 0, 0)" stroke-linecap="butt" stroke-linejoin="round" stroke-opacity="1.0" stroke-width="3.0" />
            <path d=" M 778.284, 608.023 778.034, 609.843 777.954, 610.424 777.503, 613.707 776.827, 616.936 777.172, 621.522 775.955, 627.443 775.679, 627.988 773.578, 632.144 " fill="none" stroke="rgb(0, 0, 0)" stroke-linecap="butt" stroke-linejoin="round" stroke-opacity="1.0" stroke-width="3.0" />
            <path d=" M 744.337, 845.202 743.670, 844.446 739.596, 844.693 737.517, 844.819 737.233, 844.836 736.506, 844.880 733.452, 844.025 730.211, 843.972 727.586, 842.552 722.146, 838.105 721.904, 837.908 721.876, 837.885 " fill="none" stroke="rgb(0, 0, 0)" stroke-linecap="butt" stroke-linejoin="round" stroke-opacity="1.0" stroke-width="3.0" />
            <path d=" M 850.396, 618.652 850.708, 620.895 851.597, 627.297 851.746, 628.366 852.922, 635.632 853.843, 637.749 856.057, 642.839 856.079, 642.888 " fill="none" stroke="rgb(0, 0, 0)" stroke-linecap="butt" stroke-linejoin="round" stroke-opacity="1.0" stroke-width="3.0" />
            <path d=" M 776.229, 879.879 774.942, 883.848 774.907, 883.956 772.657, 891.745 770.657, 896.565 769.903, 898.825 769.631, 899.641 768.452, 903.976 " fill="none" stroke="rgb(0, 0, 0)" stroke-linecap="butt" stroke-linejoin="round" stroke-opacity="1.0" stroke-width="3.0" />
            <path d=" M 761.045, 900.704 761.925, 898.460 761.982, 898.314 762.094, 898.029 762.376, 897.309 762.418, 897.202 762.436, 897.156 762.438, 897.150 762.558, 896.846 762.633, 896.653 762.984, 895.756 764.355, 890.153 763.160, 885.607 762.101, 883.837 761.625, 883.042 761.293, 882.487 760.720, 881.602 758.444, 878.090 758.042, 877.469 " fill="none" stroke="rgb(0, 0, 0)" stroke-linecap="butt" stroke-linejoin="round" stroke-opacity="1.0" stroke-width="3.0" />
            <path d=" M 648.079, 604.003 646.111, 609.475 645.957, 609.902 645.104, 612.272 644.431, 614.201 644.398, 614.297 644.164, 614.965 644.142, 615.030 645.529, 621.434 648.137, 625.563 650.589, 625.574 " fill="none" stroke="rgb(0, 0, 0)" stroke-linecap="butt" stroke-linejoin="round" stroke-opacity="1.0" stroke-width="3.0" />
            <path d=" M 648.622, 688.263 647.344, 687.610 647.161, 687.561 642.431, 687.407 635.337, 685.406 628.757, 681.278 626.156, 679.034 625.524, 678.489 " fill="none" stroke="rgb(0, 0, 0)" stroke-linecap="butt" stroke-linejoin="round" stroke-opacity="1.0" stroke-width="3.0" />
            <path d=" M 532.675, 773.160 527.786, 776.447 526.492, 776.703 520.743, 777.840 516.236, 776.604 516.185, 776.544 513.235, 773.120 512.431, 772.539 510.556, 770.848 " fill="none" stroke="rgb(0, 0, 0)" stroke-linecap="butt" stroke-linejoin="round" stroke-opacity="1.0" stroke-width="3.0" />
            <path d=" M 725.063, 787.581 724.863, 787.764 724.037, 788.516 723.752, 788.775 722.970, 789.486 721.328, 790.980 720.187, 791.282 717.846, 791.901 717.001, 792.037 716.744, 792.078 716.673, 792.089 716.214, 792.163 711.337, 792.946 710.905, 793.025 710.649, 793.071 710.025, 793.184 709.293, 793.317 709.271, 793.321 709.201, 793.334 709.110, 793.351 708.701, 793.425 707.351, 794.312 706.014, 794.770 705.297, 795.015 703.765, 795.539 701.132, 795.582 " fill="none" stroke="rgb(0, 0, 0)" stroke-linecap="butt" stroke-linejoin="round" stroke-opacity="1.0" stroke-width="3.0" />
            <path d=" M 799.261, 488.326 789.325, 487.197 788.423, 487.095 778.424, 487.289 775.744, 487.341 773.296, 487.388 " fill="none" stroke="rgb(0, 0, 0)" stroke-linecap="butt" stroke-linejoin="round" stroke-opacity="1.0" stroke-width="3.0" />
            <path d=" M 876.540, 621.582 877.966, 620.588 879.090, 619.804 879.182, 617.234 879.233, 615.792 879.346, 613.717 877.934, 607.393 876.040, 603.565 876.036, 603.546 875.990, 603.315 874.809, 597.402 " fill="none" stroke="rgb(0, 0, 0)" stroke-linecap="butt" stroke-linejoin="round" stroke-opacity="1.0" stroke-width="3.0" />
            <path d=" M 626.156, 679.034 625.722, 678.002 624.098, 676.743 621.455, 674.196 619.874, 672.734 618.103, 670.726 616.037, 668.826 613.684, 667.279 610.120, 665.821 606.879, 665.218 605.088, 665.407 " fill="none" stroke="rgb(0, 0, 0)" stroke-linecap="butt" stroke-linejoin="round" stroke-opacity="1.0" stroke-width="3.0" />
            <path d=" M 656.995, 1088.107 664.408, 1085.524 664.467, 1085.486 666.026, 1084.471 669.178, 1081.732 673.106, 1072.522 674.109, 1070.455 " fill="none" stroke="rgb(0, 0, 0)" stroke-linecap="butt" stroke-linejoin="round" stroke-opacity="1.0" stroke-width="3.0" />
            <path d=" M 699.411, 1040.747 700.057, 1040.295 703.588, 1037.825 710.821, 1032.374 711.944, 1030.238 715.309, 1023.027 715.598, 1021.266 " fill="none" stroke="rgb(0, 0, 0)" stroke-linecap="butt" stroke-linejoin="round" stroke-opacity="1.0" stroke-width="3.0" />
            <path d=" M 597.273, 1009.442 597.347, 1009.211 597.399, 1009.048 597.400, 1009.043 597.504, 1008.720 597.870, 1007.574 597.900, 1007.481 597.916, 1007.430 598.082, 1006.912 598.171, 1006.631 599.002, 1004.033 599.959, 1001.039 600.114, 1000.554 599.955, 998.670 599.953, 998.649 599.525, 993.570 599.507, 993.362 599.471, 992.931 599.469, 992.907 599.465, 992.782 599.459, 992.624 599.456, 992.512 599.394, 990.631 596.056, 988.179 595.645, 987.961 594.814, 987.521 594.275, 987.235 593.283, 986.709 " fill="none" stroke="rgb(0, 0, 0)" stroke-linecap="butt" stroke-linejoin="round" stroke-opacity="1.0" stroke-width="3.0" />
            <path d=" M 768.553, 682.173 768.015, 684.573 766.422, 691.674 766.368, 691.914 766.549, 693.249 766.989, 696.490 767.287, 698.690 767.288, 698.693 767.688, 703.865 767.841, 705.041 768.280, 708.425 " fill="none" stroke="rgb(0, 0, 0)" stroke-linecap="butt" stroke-linejoin="round" stroke-opacity="1.0" stroke-width="3.0" />
            <path d=" M 702.922, 833.424 701.591, 831.671 698.336, 828.719 696.745, 827.626 694.391, 826.677 691.343, 827.181 690.462, 828.763 689.522, 831.386 687.627, 836.215 688.411, 838.772 " fill="none" stroke="rgb(0, 0, 0)" stroke-linecap="butt" stroke-linejoin="round" stroke-opacity="1.0" stroke-width="3.0" />
            <path d=" M 417.720, 812.598 417.903, 812.762 417.949, 812.804 418.588, 813.379 419.127, 813.864 421.528, 814.497 423.041, 815.925 423.698, 816.271 425.764, 817.357 428.112, 818.617 430.213, 819.555 432.796, 821.248 432.815, 821.261 436.193, 823.110 438.941, 824.726 440.766, 825.545 " fill="none" stroke="rgb(0, 0, 0)" stroke-linecap="butt" stroke-linejoin="round" stroke-opacity="1.0" stroke-width="3.0" />
            <path d=" M 652.798, 531.130 652.521, 531.509 652.035, 532.175 651.939, 532.305 649.505, 535.640 647.724, 538.081 647.215, 538.571 647.180, 538.604 645.371, 540.349 644.037, 541.635 643.671, 541.987 641.919, 543.676 641.028, 544.536 640.051, 545.343 639.799, 545.551 634.276, 550.114 " fill="none" stroke="rgb(0, 0, 0)" stroke-linecap="butt" stroke-linejoin="round" stroke-opacity="1.0" stroke-width="3.0" />
            <path d=" M 860.677, 614.863 860.951, 615.214 862.315, 616.963 862.569, 617.290 863.997, 619.121 865.972, 620.547 869.247, 622.911 869.293, 622.944 869.552, 623.131 870.477, 623.799 871.040, 624.205 871.665, 624.139 872.748, 624.024 874.674, 623.819 875.766, 622.511 876.540, 621.582 875.384, 622.173 872.725, 623.531 872.555, 623.599 871.398, 624.062 871.040, 624.205 " fill="none" stroke="rgb(0, 0, 0)" stroke-linecap="butt" stroke-linejoin="round" stroke-opacity="1.0" stroke-width="3.0" />
            <path d=" M 686.025, 575.709 685.921, 577.727 685.719, 581.640 685.840, 584.714 685.867, 585.385 685.876, 585.616 685.855, 586.034 685.809, 586.948 685.782, 587.480 685.769, 587.744 685.709, 588.953 685.705, 589.032 685.586, 591.409 685.566, 591.788 685.566, 591.792 685.566, 591.792 685.555, 592.017 685.793, 592.241 686.248, 592.668 687.972, 594.286 688.035, 594.345 690.428, 593.859 692.994, 593.349 693.811, 593.243 694.592, 593.141 695.323, 593.046 " fill="none" stroke="rgb(0, 0, 0)" stroke-linecap="butt" stroke-linejoin="round" stroke-opacity="1.0" stroke-width="3.0" />
            <path d=" M 470.101, 745.010 466.532, 747.486 464.972, 748.568 462.955, 752.042 463.965, 758.793 464.195, 760.335 464.226, 760.537 464.401, 761.708 464.412, 761.783 464.382, 762.078 463.683, 768.801 " fill="none" stroke="rgb(0, 0, 0)" stroke-linecap="butt" stroke-linejoin="round" stroke-opacity="1.0" stroke-width="3.0" />
            <path d=" M 739.163, 490.430 736.890, 490.489 731.639, 491.334 728.183, 492.153 725.016, 492.078 724.819, 492.124 724.480, 492.204 724.354, 492.233 721.853, 492.821 721.773, 492.839 720.778, 493.073 718.845, 493.223 717.053, 493.762 712.494, 495.314 " fill="none" stroke="rgb(0, 0, 0)" stroke-linecap="butt" stroke-linejoin="round" stroke-opacity="1.0" stroke-width="3.0" />
            <path d=" M 587.094, 837.292 587.525, 836.266 587.560, 836.091 588.085, 833.513 588.428, 831.826 588.439, 831.773 588.914, 829.435 588.983, 829.097 589.479, 826.660 589.449, 826.641 585.602, 824.115 584.587, 823.250 582.650, 821.597 580.130, 821.432 579.552, 821.512 579.129, 821.572 576.661, 821.917 574.742, 821.020 " fill="none" stroke="rgb(0, 0, 0)" stroke-linecap="butt" stroke-linejoin="round" stroke-opacity="1.0" stroke-width="3.0" />
            <path d=" M 801.078, 676.227 803.707, 670.522 808.297, 661.637 812.886, 652.753 813.619, 651.334 " fill="none" stroke="rgb(0, 0, 0)" stroke-linecap="butt" stroke-linejoin="round" stroke-opacity="1.0" stroke-width="3.0" />
            <path d=" M 484.841, 964.147 485.808, 965.252 492.399, 972.773 495.390, 976.186 502.101, 983.599 503.462, 985.101 " fill="none" stroke="rgb(0, 0, 0)" stroke-linecap="butt" stroke-linejoin="round" stroke-opacity="1.0" stroke-width="3.0" />
            <path d=" M 749.617, 565.812 749.194, 565.957 748.170, 566.308 747.534, 566.526 741.808, 568.489 740.596, 569.986 740.579, 570.007 737.052, 574.364 736.175, 576.890 736.088, 577.167 733.411, 585.711 733.311, 586.027 " fill="none" stroke="rgb(0, 0, 0)" stroke-linecap="butt" stroke-linejoin="round" stroke-opacity="1.0" stroke-width="3.0" />
            <path d=" M 718.413, 979.090 711.519, 983.466 709.634, 984.662 708.308, 985.758 708.222, 985.829 708.131, 985.904 708.044, 985.976 707.284, 986.603 706.315, 987.403 704.595, 988.824 703.260, 989.307 702.641, 989.531 700.194, 990.417 699.862, 990.537 697.548, 991.681 697.514, 991.698 696.761, 992.071 694.629, 993.124 694.380, 993.248 " fill="none" stroke="rgb(0, 0, 0)" stroke-linecap="butt" stroke-linejoin="round" stroke-opacity="1.0" stroke-width="3.0" />
            <path d=" M 483.611, 719.428 483.996, 721.125 482.405, 725.881 480.495, 729.404 477.387, 735.135 477.046, 735.609 474.981, 738.480 472.370, 741.432 470.390, 743.670 " fill="none" stroke="rgb(0, 0, 0)" stroke-linecap="butt" stroke-linejoin="round" stroke-opacity="1.0" stroke-width="3.0" />
            <path d=" M 783.739, 844.928 779.875, 840.987 778.091, 837.513 776.827, 834.802 775.652, 832.677 774.599, 830.407 773.728, 824.809 773.024, 821.361 772.411, 819.637 " fill="none" stroke="rgb(0, 0, 0)" stroke-linecap="butt" stroke-linejoin="round" stroke-opacity="1.0" stroke-width="3.0" />
            <path d=" M 669.945, 603.763 670.671, 604.012 671.943, 604.447 674.673, 610.499 675.704, 611.255 678.644, 613.408 681.251, 613.629 685.591, 610.148 686.938, 607.259 687.560, 603.989 " fill="none" stroke="rgb(0, 0, 0)" stroke-linecap="butt" stroke-linejoin="round" stroke-opacity="1.0" stroke-width="3.0" />
            <path d=" M 674.993, 710.363 673.983, 707.054 671.042, 702.035 665.146, 693.958 663.938, 692.304 663.446, 691.707 659.941, 688.477 658.553, 687.644 " fill="none" stroke="rgb(0, 0, 0)" stroke-linecap="butt" stroke-linejoin="round" stroke-opacity="1.0" stroke-width="3.0" />
            <path d=" M 501.169, 982.568 501.424, 982.815 501.695, 983.080 502.285, 983.654 504.702, 986.006 506.263, 987.526 506.361, 987.620 510.469, 991.573 514.508, 995.459 518.640, 999.526 522.153, 1001.878 " fill="none" stroke="rgb(0, 0, 0)" stroke-linecap="butt" stroke-linejoin="round" stroke-opacity="1.0" stroke-width="3.0" />
            <path d=" M 579.849, 901.229 579.626, 900.944 579.188, 900.383 578.247, 900.267 578.212, 900.263 577.397, 900.163 575.474, 899.926 574.056, 901.019 573.997, 901.065 567.648, 906.039 565.178, 907.974 563.679, 912.182 562.833, 914.613 562.162, 916.541 561.570, 918.241 " fill="none" stroke="rgb(0, 0, 0)" stroke-linecap="butt" stroke-linejoin="round" stroke-opacity="1.0" stroke-width="3.0" />
            <path d=" M 753.296, 874.407 753.332, 873.605 753.499, 869.863 752.126, 864.344 751.955, 863.658 751.213, 861.862 750.886, 861.068 749.103, 860.819 749.084, 860.817 747.981, 860.662 744.408, 860.213 743.322, 860.077 742.126, 860.713 741.941, 860.812 739.665, 862.023 736.802, 863.546 736.695, 863.603 " fill="none" stroke="rgb(0, 0, 0)" stroke-linecap="butt" stroke-linejoin="round" stroke-opacity="1.0" stroke-width="3.0" />
            <path d=" M 677.911, 513.241 681.268, 509.674 681.868, 509.037 681.900, 509.003 682.345, 508.531 682.535, 508.328 682.631, 508.227 684.531, 506.794 684.611, 506.733 686.289, 505.598 686.684, 505.331 687.087, 505.058 693.692, 500.955 689.542, 503.539 688.368, 504.503 688.310, 504.550 687.926, 504.865 687.320, 505.362 686.245, 506.245 " fill="none" stroke="rgb(0, 0, 0)" stroke-linecap="butt" stroke-linejoin="round" stroke-opacity="1.0" stroke-width="3.0" />
            <path d=" M 721.607, 491.865 712.684, 493.575 709.688, 494.206 706.890, 495.385 700.134, 497.938 699.962, 498.003 699.786, 498.069 699.435, 498.202 693.692, 500.955 " fill="none" stroke="rgb(0, 0, 0)" stroke-linecap="butt" stroke-linejoin="round" stroke-opacity="1.0" stroke-width="3.0" />
            <path d=" M 671.221, 507.668 666.777, 510.595 664.178, 512.653 660.290, 516.317 659.843, 516.738 659.021, 517.512 656.284, 520.091 653.899, 522.180 653.315, 523.779 653.183, 524.139 653.126, 524.296 651.430, 528.937 " fill="none" stroke="rgb(0, 0, 0)" stroke-linecap="butt" stroke-linejoin="round" stroke-opacity="1.0" stroke-width="3.0" />
            <path d=" M 602.980, 750.143 605.429, 746.890 605.909, 744.892 606.548, 742.901 606.705, 741.437 604.141, 741.073 601.166, 745.881 596.193, 752.436 595.526, 753.316 594.219, 754.232 593.402, 754.805 " fill="none" stroke="rgb(0, 0, 0)" stroke-linecap="butt" stroke-linejoin="round" stroke-opacity="1.0" stroke-width="3.0" />
            <path d=" M 751.213, 861.862 751.645, 860.625 751.358, 857.367 750.634, 855.074 749.129, 852.327 748.151, 850.544 746.312, 850.475 746.229, 850.483 744.926, 850.600 740.132, 851.403 739.469, 851.514 738.892, 851.634 736.545, 852.122 734.423, 852.250 731.889, 852.403 730.945, 852.460 730.323, 852.497 " fill="none" stroke="rgb(0, 0, 0)" stroke-linecap="butt" stroke-linejoin="round" stroke-opacity="1.0" stroke-width="3.0" />
            <path d=" M 541.964, 673.875 541.008, 674.922 534.885, 681.633 533.950, 682.657 533.602, 682.986 532.473, 684.056 528.494, 687.822 525.890, 690.287 525.354, 690.794 524.909, 691.216 523.759, 692.304 523.627, 692.429 521.785, 694.173 520.585, 695.308 " fill="none" stroke="rgb(0, 0, 0)" stroke-linecap="butt" stroke-linejoin="round" stroke-opacity="1.0" stroke-width="3.0" />
            <path d=" M 809.438, 630.440 808.780, 631.727 808.409, 632.454 808.260, 632.746 808.121, 633.019 808.074, 633.111 807.101, 635.015 806.903, 635.403 805.305, 638.532 805.059, 639.013 804.591, 639.930 804.887, 642.643 804.903, 642.797 804.922, 642.821 804.946, 642.854 805.116, 643.079 805.250, 643.258 805.695, 643.849 807.346, 644.816 808.340, 644.730 808.781, 644.692 809.670, 644.615 809.959, 644.717 810.302, 644.838 813.201, 645.865 813.952, 646.151 815.430, 646.714 815.495, 646.738 815.814, 646.860 816.885, 647.268 817.147, 647.368 819.448, 648.851 819.689, 649.007 820.260, 649.192 " fill="none" stroke="rgb(0, 0, 0)" stroke-linecap="butt" stroke-linejoin="round" stroke-opacity="1.0" stroke-width="3.0" />
            <path d=" M 565.356, 801.068 563.826, 800.010 562.957, 799.409 560.982, 799.283 560.783, 799.270 560.243, 799.236 559.132, 799.165 558.479, 798.418 556.077, 797.642 555.626, 797.863 554.327, 798.499 554.122, 798.599 553.805, 798.754 553.803, 798.755 553.669, 798.821 553.357, 798.974 553.194, 799.053 552.837, 799.228 551.785, 799.743 551.532, 799.997 551.052, 800.478 550.736, 800.795 550.664, 800.867 549.119, 802.416 547.457, 805.709 546.953, 806.708 546.726, 807.181 546.642, 807.355 546.551, 807.545 546.272, 808.127 545.455, 809.829 544.845, 811.099 542.959, 812.725 " fill="none" stroke="rgb(0, 0, 0)" stroke-linecap="butt" stroke-linejoin="round" stroke-opacity="1.0" stroke-width="3.0" />
            <path d=" M 575.247, 798.096 575.083, 797.927 574.732, 797.567 574.675, 797.509 573.063, 795.856 572.530, 795.309 571.090, 793.833 568.162, 789.728 567.248, 782.824 565.807, 780.118 563.169, 775.164 561.810, 775.075 559.338, 774.914 558.681, 774.871 " fill="none" stroke="rgb(0, 0, 0)" stroke-linecap="butt" stroke-linejoin="round" stroke-opacity="1.0" stroke-width="3.0" />
            <path d=" M 798.438, 619.514 799.740, 622.128 800.282, 623.217 800.317, 623.286 800.332, 623.316 800.489, 623.633 800.412, 623.757 799.939, 624.516 799.893, 624.591 799.797, 624.744 799.593, 625.071 799.455, 625.294 799.382, 625.410 799.062, 625.924 797.439, 628.531 793.274, 635.361 791.389, 643.065 792.311, 645.264 794.558, 646.438 794.663, 646.493 794.741, 646.534 " fill="none" stroke="rgb(0, 0, 0)" stroke-linecap="butt" stroke-linejoin="round" stroke-opacity="1.0" stroke-width="3.0" />
            <path d=" M 574.744, 821.273 574.744, 821.256 574.742, 821.020 574.687, 814.422 574.682, 813.794 574.673, 812.691 574.761, 811.675 575.133, 807.395 575.146, 807.244 575.474, 803.461 574.811, 802.807 574.615, 802.613 574.606, 802.603 574.428, 802.428 573.849, 801.856 571.793, 799.826 571.343, 799.522 570.054, 798.652 569.811, 798.777 566.519, 800.471 565.356, 801.068 564.081, 801.725 " fill="none" stroke="rgb(0, 0, 0)" stroke-linecap="butt" stroke-linejoin="round" stroke-opacity="1.0" stroke-width="3.0" />
            <path d=" M 664.522, 1045.670 664.315, 1045.466 661.292, 1042.504 659.097, 1041.809 658.845, 1041.730 658.739, 1041.696 658.672, 1041.675 658.494, 1041.618 657.127, 1041.186 656.918, 1041.120 655.329, 1040.438 655.249, 1040.404 654.824, 1040.291 648.738, 1038.687 648.693, 1038.675 648.050, 1038.506 648.048, 1038.505 647.384, 1038.330 647.106, 1038.257 646.439, 1038.081 645.931, 1037.947 642.614, 1038.492 641.876, 1040.989 641.461, 1042.394 641.144, 1043.466 641.114, 1043.567 640.907, 1044.269 640.891, 1044.443 640.888, 1044.483 640.811, 1045.360 640.746, 1046.093 640.733, 1046.245 " fill="none" stroke="rgb(0, 0, 0)" stroke-linecap="butt" stroke-linejoin="round" stroke-opacity="1.0" stroke-width="3.0" />
            <path d=" M 562.236, 768.240 561.374, 766.759 560.232, 764.796 559.419, 763.401 557.323, 759.710 557.162, 759.427 549.743, 761.121 547.109, 763.639 545.899, 767.194 545.743, 767.651 545.187, 769.285 544.213, 770.298 544.128, 770.386 544.122, 770.392 542.773, 771.795 542.710, 771.861 542.230, 772.359 541.586, 772.361 " fill="none" stroke="rgb(0, 0, 0)" stroke-linecap="butt" stroke-linejoin="round" stroke-opacity="1.0" stroke-width="3.0" />
            <path d=" M 615.572, 1020.608 614.862, 1020.042 614.842, 1020.026 613.839, 1019.225 613.199, 1018.714 612.987, 1018.544 609.845, 1016.037 607.590, 1014.281 605.588, 1015.114 605.113, 1015.312 605.075, 1015.328 602.816, 1016.268 601.536, 1017.710 601.474, 1017.779 601.369, 1017.898 599.533, 1019.965 598.818, 1021.298 598.744, 1021.437 597.519, 1023.719 597.413, 1023.918 597.369, 1024.000 597.357, 1024.021 597.197, 1024.320 596.724, 1025.202 594.205, 1029.896 594.009, 1030.262 593.899, 1030.466 593.843, 1030.570 " fill="none" stroke="rgb(0, 0, 0)" stroke-linecap="butt" stroke-linejoin="round" stroke-opacity="1.0" stroke-width="3.0" />
            <path d=" M 678.365, 1055.049 678.435, 1057.691 678.272, 1058.419 677.798, 1060.539 678.004, 1058.544 678.365, 1055.049 678.386, 1054.841 678.632, 1052.458 678.661, 1052.170 678.700, 1051.798 678.708, 1051.719 678.180, 1048.074 676.263, 1047.206 675.796, 1046.995 673.340, 1045.883 672.682, 1045.585 672.268, 1045.398 665.023, 1045.269 664.315, 1045.466 " fill="none" stroke="rgb(0, 0, 0)" stroke-linecap="butt" stroke-linejoin="round" stroke-opacity="1.0" stroke-width="3.0" />
            <path d=" M 612.510, 813.363 607.816, 810.070 602.672, 805.470 601.645, 804.407 599.805, 802.503 599.349, 802.032 597.234, 799.844 592.925, 794.016 592.840, 793.902 592.817, 793.870 590.694, 789.139 " fill="none" stroke="rgb(0, 0, 0)" stroke-linecap="butt" stroke-linejoin="round" stroke-opacity="1.0" stroke-width="3.0" />
            <path d=" M 644.037, 541.635 640.320, 544.467 635.941, 548.124 627.258, 553.085 625.938, 553.840 620.459, 556.731 619.092, 557.452 616.890, 558.243 615.826, 558.626 615.736, 558.658 " fill="none" stroke="rgb(0, 0, 0)" stroke-linecap="butt" stroke-linejoin="round" stroke-opacity="1.0" stroke-width="3.0" />
            <path d=" M 768.591, 668.541 767.936, 670.452 767.213, 671.749 764.144, 677.260 761.880, 680.719 761.277, 681.641 759.123, 687.454 756.046, 694.351 753.852, 697.741 753.402, 698.435 " fill="none" stroke="rgb(0, 0, 0)" stroke-linecap="butt" stroke-linejoin="round" stroke-opacity="1.0" stroke-width="3.0" />
            <path d=" M 688.966, 562.638 688.920, 562.672 685.824, 564.880 685.325, 565.236 685.166, 565.361 684.872, 565.595 682.579, 567.416 680.685, 568.920 680.576, 569.208 680.012, 570.693 679.994, 570.741 679.935, 570.921 679.638, 571.833 678.415, 575.589 677.148, 579.417 677.356, 580.273 677.634, 581.421 679.259, 582.917 679.635, 583.262 680.074, 583.564 684.679, 586.723 685.781, 587.479 685.782, 587.480 " fill="none" stroke="rgb(0, 0, 0)" stroke-linecap="butt" stroke-linejoin="round" stroke-opacity="1.0" stroke-width="3.0" />
            <path d=" M 836.419, 615.069 836.411, 615.183 836.367, 615.824 836.270, 617.237 836.228, 617.856 836.088, 619.905 835.721, 621.734 835.198, 624.340 835.037, 625.055 834.528, 627.311 834.405, 627.853 833.670, 631.106 833.659, 631.225 833.658, 631.245 832.817, 640.423 832.812, 640.475 832.773, 640.898 832.478, 644.117 832.351, 645.513 832.286, 646.223 832.073, 648.540 " fill="none" stroke="rgb(0, 0, 0)" stroke-linecap="butt" stroke-linejoin="round" stroke-opacity="1.0" stroke-width="3.0" />
            <path d=" M 539.778, 1048.738 539.755, 1049.072 539.080, 1059.049 538.871, 1062.141 540.824, 1066.704 543.373, 1073.159 545.814, 1074.666 548.142, 1074.819 551.089, 1074.643 551.507, 1074.618 " fill="none" stroke="rgb(0, 0, 0)" stroke-linecap="butt" stroke-linejoin="round" stroke-opacity="1.0" stroke-width="3.0" />
            <path d=" M 718.081, 846.536 717.968, 846.492 717.564, 846.335 711.075, 843.815 710.513, 843.597 708.351, 844.350 708.250, 844.401 707.651, 844.703 704.161, 848.820 702.478, 852.815 702.278, 853.289 702.049, 853.831 701.419, 855.327 701.404, 855.363 701.401, 855.369 701.295, 855.621 700.839, 856.820 700.609, 860.909 700.517, 862.542 700.307, 862.908 699.017, 865.153 " fill="none" stroke="rgb(0, 0, 0)" stroke-linecap="butt" stroke-linejoin="round" stroke-opacity="1.0" stroke-width="3.0" />
            <path d=" M 692.925, 701.728 688.385, 703.539 686.527, 704.341 682.603, 706.331 674.993, 710.363 674.948, 710.387 674.903, 710.412 669.880, 713.073 665.767, 716.553 663.542, 718.436 " fill="none" stroke="rgb(0, 0, 0)" stroke-linecap="butt" stroke-linejoin="round" stroke-opacity="1.0" stroke-width="3.0" />
            <path d=" M 537.133, 656.725 536.417, 657.152 534.873, 658.070 527.798, 658.954 519.435, 658.486 518.372, 658.867 517.257, 659.756 515.799, 660.546 514.834, 661.706 514.453, 662.479 513.118, 664.128 511.447, 667.561 509.883, 670.776 " fill="none" stroke="rgb(0, 0, 0)" stroke-linecap="butt" stroke-linejoin="round" stroke-opacity="1.0" stroke-width="3.0" />
            <path d=" M 726.173, 931.030 726.183, 931.024 726.613, 930.779 728.516, 929.021 729.247, 927.585 728.703, 926.646 725.804, 925.010 722.726, 923.913 720.212, 921.827 716.673, 918.777 715.477, 917.200 714.271, 918.390 713.695, 920.038 713.435, 920.782 713.337, 921.146 712.062, 925.903 710.288, 928.834 " fill="none" stroke="rgb(0, 0, 0)" stroke-linecap="butt" stroke-linejoin="round" stroke-opacity="1.0" stroke-width="3.0" />
            <path d=" M 791.112, 627.470 787.761, 630.198 786.688, 631.072 783.292, 635.904 782.365, 637.776 782.185, 638.255 781.042, 641.310 781.025, 643.824 781.640, 644.917 781.827, 645.248 782.247, 645.995 782.338, 646.157 782.366, 646.205 782.420, 646.302 782.867, 647.095 783.025, 647.376 783.733, 648.634 785.847, 648.750 787.296, 648.830 787.377, 648.834 789.318, 648.941 789.631, 648.958 789.648, 648.951 789.693, 648.931 791.390, 648.199 793.445, 648.138 " fill="none" stroke="rgb(0, 0, 0)" stroke-linecap="butt" stroke-linejoin="round" stroke-opacity="1.0" stroke-width="3.0" />
            <path d=" M 777.131, 646.785 775.423, 647.938 775.344, 647.992 774.828, 648.340 774.764, 648.366 774.440, 648.498 774.255, 648.574 772.084, 649.459 771.684, 649.622 771.154, 649.838 770.270, 650.199 770.237, 650.212 769.963, 650.477 763.060, 657.168 762.442, 660.425 763.529, 663.783 763.777, 663.848 764.663, 664.081 765.966, 664.424 766.947, 664.682 767.722, 664.566 768.583, 664.437 768.590, 664.436 770.074, 664.214 771.680, 663.974 771.710, 663.970 771.729, 663.997 772.973, 665.800 773.119, 666.011 " fill="none" stroke="rgb(0, 0, 0)" stroke-linecap="butt" stroke-linejoin="round" stroke-opacity="1.0" stroke-width="3.0" />
            <path d=" M 626.703, 1054.206 627.335, 1053.540 633.013, 1047.550 633.876, 1046.746 634.010, 1046.621 634.685, 1045.992 634.693, 1045.985 635.781, 1044.972 635.915, 1044.847 636.081, 1044.693 636.179, 1044.601 636.352, 1044.440 636.661, 1044.152 636.738, 1044.081 637.251, 1043.603 637.310, 1043.548 637.347, 1043.513 637.354, 1043.507 637.624, 1043.256 638.684, 1042.268 639.133, 1041.659 639.406, 1041.289 639.753, 1040.818 641.760, 1038.092 641.661, 1035.757 640.126, 1034.202 637.833, 1033.299 637.540, 1033.184 636.096, 1032.615 634.921, 1032.153 634.717, 1032.072 632.765, 1031.304 631.947, 1030.982 " fill="none" stroke="rgb(0, 0, 0)" stroke-linecap="butt" stroke-linejoin="round" stroke-opacity="1.0" stroke-width="3.0" />
            <path d=" M 584.587, 823.250 586.692, 819.630 588.233, 816.980 588.334, 816.807 588.441, 816.027 588.478, 815.757 588.510, 815.523 589.100, 811.210 589.019, 810.892 588.968, 810.692 588.949, 810.621 588.178, 807.611 588.170, 807.581 588.165, 807.561 588.125, 807.405 588.081, 807.370 587.954, 807.269 587.592, 806.981 587.544, 806.943 587.438, 806.859 586.420, 806.050 585.769, 805.534 585.174, 805.061 585.036, 804.951 584.864, 804.815 584.821, 804.780 584.160, 804.216 581.201, 801.684 581.126, 801.621 581.039, 801.546 579.749, 800.443 579.395, 800.140 579.333, 800.087 578.939, 799.751 578.920, 799.734 578.402, 799.291 578.243, 799.155 577.963, 798.915 577.919, 798.888 576.997, 798.312 576.733, 798.147 576.038, 797.713 575.996, 797.687 575.195, 797.187 574.633, 796.836 573.063, 795.856 " fill="none" stroke="rgb(0, 0, 0)" stroke-linecap="butt" stroke-linejoin="round" stroke-opacity="1.0" stroke-width="3.0" />
            <path d=" M 604.636, 723.123 604.674, 722.668 604.754, 721.723 604.765, 721.584 605.373, 714.347 605.607, 713.291 606.216, 710.548 606.851, 707.687 606.912, 707.414 607.354, 705.402 607.360, 705.375 607.600, 704.284 607.624, 704.152 607.867, 702.790 608.941, 696.771 609.309, 692.498 609.019, 687.936 608.885, 687.430 " fill="none" stroke="rgb(0, 0, 0)" stroke-linecap="butt" stroke-linejoin="round" stroke-opacity="1.0" stroke-width="3.0" />
            <path d=" M 739.849, 914.798 740.808, 913.210 741.998, 911.243 742.934, 909.693 742.990, 909.602 743.614, 908.568 746.334, 904.730 746.908, 903.919 748.449, 900.730 749.119, 899.344 749.286, 898.998 749.375, 898.813 749.515, 898.524 749.674, 898.197 749.681, 898.182 749.742, 898.054 750.045, 897.428 750.681, 893.039 750.704, 890.503 750.704, 890.469 750.682, 890.231 750.655, 889.946 750.336, 886.571 750.326, 886.558 749.978, 886.088 749.547, 885.507 749.521, 885.473 748.764, 884.452 748.550, 884.163 748.547, 884.160 748.293, 883.861 748.206, 883.759 747.068, 882.423 " fill="none" stroke="rgb(0, 0, 0)" stroke-linecap="butt" stroke-linejoin="round" stroke-opacity="1.0" stroke-width="3.0" />
            <path d=" M 752.367, 778.990 751.224, 778.141 746.205, 774.415 744.769, 773.974 740.542, 773.950 737.647, 773.484 735.615, 773.157 735.287, 773.104 735.244, 773.113 735.047, 773.153 734.335, 773.299 730.858, 774.010 728.363, 776.617 728.097, 777.492 728.081, 777.546 728.021, 777.743 727.375, 779.867 726.468, 782.870 726.361, 783.226 726.179, 783.830 725.559, 785.881 725.420, 786.342 " fill="none" stroke="rgb(0, 0, 0)" stroke-linecap="butt" stroke-linejoin="round" stroke-opacity="1.0" stroke-width="3.0" />
            <path d=" M 884.698, 586.576 885.274, 578.858 885.151, 568.859 885.122, 566.540 883.460, 561.221 883.450, 561.191 883.242, 560.524 883.203, 560.399 883.141, 560.200 882.743, 558.929 881.867, 553.058 881.796, 552.583 881.408, 549.989 " fill="none" stroke="rgb(0, 0, 0)" stroke-linecap="butt" stroke-linejoin="round" stroke-opacity="1.0" stroke-width="3.0" />
            <path d=" M 750.199, 894.528 749.998, 893.691 749.240, 890.535 749.148, 890.153 749.133, 890.090 748.642, 888.047 748.551, 887.670 748.120, 885.876 747.933, 885.096 747.928, 885.075 747.877, 884.863 747.280, 883.840 746.936, 882.801 746.712, 882.125 746.707, 882.109 746.685, 882.044 746.673, 882.005 746.626, 881.865 745.978, 879.909 743.795, 877.248 742.612, 876.745 741.806, 876.402 740.936, 876.923 739.476, 877.797 738.158, 879.057 731.448, 885.465 729.617, 887.215 " fill="none" stroke="rgb(0, 0, 0)" stroke-linecap="butt" stroke-linejoin="round" stroke-opacity="1.0" stroke-width="3.0" />
            <path d=" M 749.129, 852.327 749.063, 852.061 746.544, 845.489 745.016, 844.975 744.337, 845.202 744.155, 845.263 740.453, 846.603 740.240, 846.638 739.541, 846.750 736.901, 847.173 733.037, 849.046 733.004, 849.062 732.963, 849.063 732.346, 849.077 728.450, 849.162 726.437, 848.507 724.503, 847.879 720.433, 846.974 717.998, 846.432 717.564, 846.335 " fill="none" stroke="rgb(0, 0, 0)" stroke-linecap="butt" stroke-linejoin="round" stroke-opacity="1.0" stroke-width="3.0" />
            <path d=" M 594.071, 755.088 593.996, 755.056 593.754, 754.954 593.567, 754.875 593.530, 754.859 593.402, 754.805 593.177, 754.710 592.906, 754.595 592.856, 754.509 590.907, 751.145 588.730, 750.049 587.827, 749.822 587.447, 749.726 583.934, 749.307 582.028, 749.416 580.666, 750.548 580.127, 751.419 579.564, 752.464 579.265, 753.019 579.483, 755.980 579.524, 756.233 579.525, 756.241 579.750, 757.619 579.824, 758.074 580.023, 759.295 580.007, 759.750 580.005, 759.790 579.999, 759.979 579.991, 760.185 579.971, 760.751 579.968, 760.838 579.934, 761.808 579.918, 762.304 579.906, 762.667 579.916, 762.840 580.147, 766.782 581.263, 770.329 581.468, 771.533 " fill="none" stroke="rgb(0, 0, 0)" stroke-linecap="butt" stroke-linejoin="round" stroke-opacity="1.0" stroke-width="3.0" />
            <path d=" M 795.405, 636.248 794.907, 641.829 794.820, 644.288 794.745, 646.417 794.744, 646.471 794.741, 646.534 794.740, 646.582 794.702, 647.661 795.874, 648.839 796.855, 649.108 797.601, 649.312 797.678, 649.333 798.499, 649.557 799.307, 649.704 799.928, 649.817 800.018, 649.833 800.192, 649.865 800.300, 649.884 800.405, 649.903 801.854, 650.167 801.861, 650.168 803.556, 650.476 805.689, 650.271 808.024, 650.047 810.450, 650.075 811.959, 650.093 814.011, 650.576 816.371, 651.132 816.791, 651.231 820.012, 651.148 820.660, 650.700 " fill="none" stroke="rgb(0, 0, 0)" stroke-linecap="butt" stroke-linejoin="round" stroke-opacity="1.0" stroke-width="3.0" />
            <path d=" M 800.300, 572.838 798.081, 576.044 794.835, 580.733 794.690, 581.465 794.128, 584.306 794.353, 585.293 794.521, 586.027 794.846, 587.453 797.438, 591.230 797.542, 591.381 797.711, 591.628 799.041, 593.007 799.715, 593.706 803.030, 594.160 804.440, 594.055 804.740, 594.032 809.786, 593.653 812.466, 590.900 " fill="none" stroke="rgb(0, 0, 0)" stroke-linecap="butt" stroke-linejoin="round" stroke-opacity="1.0" stroke-width="3.0" />
            <path d=" M 734.424, 705.839 732.268, 709.272 731.218, 710.478 729.346, 713.276 729.664, 714.999 730.065, 716.005 737.964, 722.137 738.389, 722.467 746.252, 728.645 751.345, 732.648 751.636, 732.846 " fill="none" stroke="rgb(0, 0, 0)" stroke-linecap="butt" stroke-linejoin="round" stroke-opacity="1.0" stroke-width="3.0" />
            <path d=" M 827.139, 615.499 826.628, 617.903 825.651, 619.793 823.848, 623.282 823.827, 623.323 823.764, 623.445 823.532, 623.893 823.384, 624.354 823.374, 624.385 822.830, 626.072 822.816, 626.116 822.655, 626.617 822.636, 626.675 822.586, 626.831 822.428, 627.321 822.415, 627.360 822.206, 628.009 822.130, 628.244 822.094, 628.357 821.070, 631.535 821.140, 635.665 821.142, 635.797 821.166, 637.213 821.189, 638.547 821.016, 639.941 820.644, 642.954 820.639, 642.996 820.606, 643.263 820.562, 643.612 820.439, 644.607 820.423, 644.738 820.267, 645.999 820.005, 648.122 819.996, 648.195 820.260, 649.192 820.660, 650.700 820.752, 651.049 823.578, 651.707 " fill="none" stroke="rgb(0, 0, 0)" stroke-linecap="butt" stroke-linejoin="round" stroke-opacity="1.0" stroke-width="3.0" />
            <path d=" M 565.637, 775.116 564.774, 772.939 564.200, 771.490 563.589, 769.946 561.400, 768.184 560.005, 765.272 558.784, 762.725 556.544, 763.193 554.955, 763.595 552.514, 764.213 549.372, 765.019 546.492, 768.095 546.486, 768.101 546.262, 768.517 546.164, 768.701 545.104, 770.669 545.054, 770.763 545.047, 770.776 544.305, 772.154 544.046, 772.308 543.618, 772.562 543.189, 772.816 542.454, 773.252 542.296, 773.090 542.287, 773.080 541.586, 772.361 540.171, 770.909 540.109, 770.889 539.851, 770.808 539.730, 770.770 539.541, 770.710 539.524, 770.704 539.407, 770.667 539.320, 770.640 538.975, 770.531 538.620, 770.419 538.463, 770.369 538.386, 770.345 " fill="none" stroke="rgb(0, 0, 0)" stroke-linecap="butt" stroke-linejoin="round" stroke-opacity="1.0" stroke-width="3.0" />
            <path d=" M 736.440, 492.633 736.541, 492.589 741.286, 490.497 741.293, 490.493 741.580, 490.367 742.002, 490.181 743.942, 489.325 745.782, 488.514 754.038, 486.842 759.178, 486.405 749.617, 489.337 749.352, 489.418 749.111, 489.508 749.019, 489.542 742.580, 491.938 " fill="none" stroke="rgb(0, 0, 0)" stroke-linecap="butt" stroke-linejoin="round" stroke-opacity="1.0" stroke-width="3.0" />
            <path d=" M 844.159, 517.677 844.757, 513.842 843.946, 511.462 842.989, 509.761 841.121, 507.176 836.855, 503.685 830.579, 499.660 829.211, 497.999 824.199, 496.000 817.125, 493.143 814.793, 492.201 " fill="none" stroke="rgb(0, 0, 0)" stroke-linecap="butt" stroke-linejoin="round" stroke-opacity="1.0" stroke-width="3.0" />
            <path d=" M 750.682, 890.231 750.719, 890.024 751.395, 886.262 752.501, 883.617 752.873, 882.727 754.370, 879.149 754.185, 877.885 754.165, 877.749 754.138, 877.559 754.098, 877.288 754.096, 877.272 754.061, 877.035 753.929, 876.129 753.910, 875.999 753.907, 875.977 753.839, 875.514 753.686, 875.203 753.296, 874.407 753.152, 874.115 752.853, 873.506 752.572, 872.934 752.531, 872.850 752.205, 872.187 751.180, 870.099 749.934, 868.306 749.136, 868.287 746.926, 868.233 746.711, 868.228 746.122, 868.213 745.933, 868.209 745.711, 868.294 745.446, 868.396 745.439, 868.399 742.195, 869.648 742.107, 869.682 740.551, 870.281 737.757, 871.356 736.582, 871.809 736.026, 872.023 735.411, 871.787 732.102, 870.517 " fill="none" stroke="rgb(0, 0, 0)" stroke-linecap="butt" stroke-linejoin="round" stroke-opacity="1.0" stroke-width="3.0" />
            <path d=" M 708.090, 1028.400 713.943, 1022.494 715.598, 1021.266 719.631, 1018.272 726.507, 1011.012 726.704, 1010.804 730.655, 1006.558 733.490, 1002.833 736.429, 997.015 " fill="none" stroke="rgb(0, 0, 0)" stroke-linecap="butt" stroke-linejoin="round" stroke-opacity="1.0" stroke-width="3.0" />
            <path d=" M 506.164, 769.204 505.572, 766.558 503.574, 764.429 501.146, 763.577 496.610, 764.552 495.103, 766.177 491.531, 768.417 485.805, 770.203 481.503, 770.768 478.227, 770.319 473.218, 770.367 468.565, 771.110 468.366, 771.142 " fill="none" stroke="rgb(0, 0, 0)" stroke-linecap="butt" stroke-linejoin="round" stroke-opacity="1.0" stroke-width="3.0" />
            <path d=" M 718.965, 952.065 719.178, 951.758 719.399, 951.440 723.507, 945.527 723.870, 943.780 723.954, 943.373 724.171, 942.329 724.194, 942.219 724.990, 938.381 726.160, 931.112 726.173, 931.030 726.519, 928.880 726.522, 928.862 726.612, 928.304 726.585, 928.292 724.333, 927.308 719.694, 925.280 717.303, 925.843 711.604, 931.485 711.575, 931.513 " fill="none" stroke="rgb(0, 0, 0)" stroke-linecap="butt" stroke-linejoin="round" stroke-opacity="1.0" stroke-width="3.0" />
            <path d=" M 605.985, 560.746 601.099, 561.465 595.935, 563.132 587.446, 565.329 585.359, 566.524 578.584, 571.889 575.616, 575.995 573.672, 580.319 573.969, 582.892 574.686, 583.459 574.735, 583.498 " fill="none" stroke="rgb(0, 0, 0)" stroke-linecap="butt" stroke-linejoin="round" stroke-opacity="1.0" stroke-width="3.0" />
            <path d=" M 666.979, 578.722 662.369, 581.897 659.651, 584.976 656.241, 590.297 653.954, 595.909 653.576, 600.017 654.682, 603.703 660.479, 607.555 666.003, 611.225 " fill="none" stroke="rgb(0, 0, 0)" stroke-linecap="butt" stroke-linejoin="round" stroke-opacity="1.0" stroke-width="3.0" />
            <path d=" M 672.186, 573.434 670.953, 574.071 667.950, 577.383 666.979, 578.722 666.044, 580.013 665.691, 580.499 665.494, 581.514 664.612, 586.045 665.164, 589.387 665.920, 591.007 668.889, 593.478 674.181, 597.009 674.210, 597.029 675.442, 597.874 679.121, 600.398 682.579, 601.595 685.382, 602.415 685.994, 602.530 " fill="none" stroke="rgb(0, 0, 0)" stroke-linecap="butt" stroke-linejoin="round" stroke-opacity="1.0" stroke-width="3.0" />
            <path d=" M 772.649, 664.226 773.034, 665.675 773.119, 665.996 773.119, 666.011 773.273, 670.281 775.076, 671.409 775.631, 671.756 780.013, 671.293 781.137, 671.175 781.253, 671.162 781.532, 671.133 782.013, 671.082 785.740, 669.346 781.369, 671.403 780.965, 671.593 780.901, 671.624 780.448, 671.836 779.799, 672.142 775.566, 673.326 774.516, 673.065 774.230, 672.827 771.274, 670.366 770.848, 670.076 770.767, 670.021 770.736, 670.000 769.693, 669.291 768.591, 668.541 767.467, 667.777 767.197, 667.594 766.451, 667.082 765.975, 664.540 765.966, 664.424 " fill="none" stroke="rgb(0, 0, 0)" stroke-linecap="butt" stroke-linejoin="round" stroke-opacity="1.0" stroke-width="3.0" />
            <path d=" M 727.523, 889.145 726.048, 887.172 724.125, 884.598 721.087, 883.853 720.797, 883.781 715.211, 881.240 713.615, 881.435 711.588, 883.030 710.137, 884.172 707.246, 889.066 706.868, 889.680 704.907, 892.867 704.289, 900.793 703.538, 904.701 703.508, 904.856 703.277, 906.058 " fill="none" stroke="rgb(0, 0, 0)" stroke-linecap="butt" stroke-linejoin="round" stroke-opacity="1.0" stroke-width="3.0" />
            <path d=" M 884.525, 610.677 885.953, 607.710 886.388, 603.794 885.897, 596.876 885.223, 590.703 884.268, 588.709 884.259, 583.338 884.259, 583.255 883.692, 578.662 884.698, 586.576 885.223, 590.703 " fill="none" stroke="rgb(0, 0, 0)" stroke-linecap="butt" stroke-linejoin="round" stroke-opacity="1.0" stroke-width="3.0" />
            <path d=" M 782.185, 638.255 780.046, 642.802 779.077, 647.003 778.992, 647.369 778.987, 647.391 778.775, 648.313 778.759, 648.383 778.599, 649.074 778.482, 649.582 778.450, 649.720 778.750, 650.184 779.509, 651.359 780.331, 652.632 783.589, 655.846 784.594, 656.041 785.522, 656.221 787.520, 656.609 790.857, 657.896 791.170, 658.016 792.076, 658.365 792.595, 658.565 794.867, 659.001 794.998, 659.026 795.312, 659.086 795.326, 659.089 795.397, 659.103 795.424, 659.108 795.547, 659.131 796.557, 659.325 796.560, 659.325 796.909, 659.392 797.140, 659.437 797.248, 659.457 797.520, 659.389 801.237, 658.461 802.636, 656.852 805.414, 653.657 " fill="none" stroke="rgb(0, 0, 0)" stroke-linecap="butt" stroke-linejoin="round" stroke-opacity="1.0" stroke-width="3.0" />
            <path d=" M 565.258, 648.657 564.530, 649.142 559.361, 652.588 557.714, 653.686 554.946, 656.339 554.829, 656.451 553.795, 657.442 553.750, 657.485 552.886, 658.313 552.700, 658.492 552.339, 658.838 552.337, 658.840 552.326, 658.851 552.251, 658.922 552.198, 658.983 552.143, 659.046 551.730, 659.517 551.710, 659.541 551.663, 659.594 551.375, 659.923 551.375, 659.923 544.789, 667.448 543.204, 669.258 540.829, 672.102 539.918, 673.562 534.885, 681.633 " fill="none" stroke="rgb(0, 0, 0)" stroke-linecap="butt" stroke-linejoin="round" stroke-opacity="1.0" stroke-width="3.0" />
            <path d=" M 670.539, 822.627 669.768, 823.077 668.591, 823.765 666.042, 825.253 662.854, 826.298 657.575, 826.453 657.393, 826.458 655.409, 826.789 654.952, 826.759 649.327, 826.388 643.542, 824.703 639.844, 821.943 638.024, 821.476 636.881, 821.642 634.452, 821.289 631.504, 820.861 631.365, 820.841 630.707, 820.557 628.286, 820.424 627.349, 820.373 " fill="none" stroke="rgb(0, 0, 0)" stroke-linecap="butt" stroke-linejoin="round" stroke-opacity="1.0" stroke-width="3.0" />
            <path d=" M 865.972, 620.547 866.171, 621.656 866.678, 624.440 867.605, 627.684 871.050, 632.794 871.315, 633.188 872.609, 634.387 875.421, 637.322 878.879, 638.882 881.880, 637.047 883.497, 632.682 884.787, 627.869 884.902, 627.107 884.837, 625.868 884.670, 622.698 882.472, 619.652 " fill="none" stroke="rgb(0, 0, 0)" stroke-linecap="butt" stroke-linejoin="round" stroke-opacity="1.0" stroke-width="3.0" />
            <path d=" M 608.744, 1096.858 610.947, 1098.164 613.184, 1099.490 618.688, 1103.188 622.676, 1106.419 626.008, 1106.792 629.308, 1105.978 633.218, 1103.001 633.720, 1102.619 634.626, 1102.560 637.327, 1102.382 639.981, 1100.962 641.004, 1100.172 648.228, 1095.335 " fill="none" stroke="rgb(0, 0, 0)" stroke-linecap="butt" stroke-linejoin="round" stroke-opacity="1.0" stroke-width="3.0" />
            <path d=" M 585.367, 789.461 585.883, 788.203 586.346, 787.073 586.393, 786.960 586.414, 786.909 586.555, 786.345 586.590, 786.205 586.999, 784.578 587.174, 783.879 586.334, 780.920 586.333, 780.918 586.309, 780.834 586.304, 780.817 586.260, 780.662 586.164, 780.563 586.161, 780.561 584.510, 778.866 584.130, 778.617 582.487, 777.539 582.165, 777.328 580.862, 776.473 580.763, 776.409 580.762, 776.408 580.616, 776.312 580.041, 775.935 579.931, 775.863 578.168, 775.281 575.015, 774.239 568.542, 771.196 568.291, 770.947 563.622, 766.335 563.257, 765.943 563.206, 765.888 560.479, 762.955 559.235, 760.278 557.534, 759.613 557.323, 759.710 " fill="none" stroke="rgb(0, 0, 0)" stroke-linecap="butt" stroke-linejoin="round" stroke-opacity="1.0" stroke-width="3.0" />
            <path d=" M 715.794, 974.771 715.904, 974.421 715.904, 974.421 715.968, 974.216 716.527, 972.437 717.122, 970.541 718.649, 965.678 718.681, 965.575 718.691, 965.545 719.014, 964.516 719.356, 962.676 719.188, 957.291 719.011, 957.130 718.943, 957.069 718.715, 956.862 718.681, 956.832 718.082, 956.289 717.881, 956.225 717.682, 956.162 717.337, 956.052 717.204, 956.010 716.405, 955.756 713.949, 957.143 711.834, 958.773 711.828, 958.777 710.645, 959.689 710.043, 960.152 710.042, 960.153 709.088, 960.887 708.545, 961.306 706.405, 962.954 705.106, 963.876 705.058, 963.910 704.885, 964.033 703.482, 965.029 702.381, 965.811 698.428, 970.040 695.324, 970.886 " fill="none" stroke="rgb(0, 0, 0)" stroke-linecap="butt" stroke-linejoin="round" stroke-opacity="1.0" stroke-width="3.0" />
            <path d=" M 802.383, 597.319 801.047, 599.070 796.044, 607.729 795.316, 608.989 794.138, 610.965 793.952, 611.276 793.330, 612.319 793.235, 612.478 792.459, 613.780 788.154, 622.805 787.018, 625.187 784.010, 631.246 779.589, 639.909 779.557, 639.971 " fill="none" stroke="rgb(0, 0, 0)" stroke-linecap="butt" stroke-linejoin="round" stroke-opacity="1.0" stroke-width="3.0" />
            <path d=" M 587.714, 877.060 589.618, 871.859 589.630, 871.827 589.896, 870.441 589.917, 870.333 588.908, 866.706 585.469, 864.278 582.964, 864.436 575.971, 870.419 575.827, 870.514 575.484, 870.739 574.377, 871.467 574.315, 871.508 574.160, 871.610 573.945, 871.751 572.456, 872.730 568.955, 875.031 568.766, 875.252 566.087, 878.273 565.402, 879.047 565.356, 879.099 564.940, 879.568 564.107, 881.898 563.338, 884.054 563.175, 884.411 563.108, 884.558 562.155, 886.651 " fill="none" stroke="rgb(0, 0, 0)" stroke-linecap="butt" stroke-linejoin="round" stroke-opacity="1.0" stroke-width="3.0" />
            <path d=" M 440.668, 761.763 439.518, 759.373 438.519, 756.948 437.400, 748.981 437.402, 741.860 436.692, 737.178 436.805, 733.720 435.995, 728.620 436.258, 726.667 436.426, 726.125 436.909, 724.568 436.936, 724.482 436.990, 724.307 437.303, 723.299 438.062, 721.057 437.513, 717.151 436.721, 712.749 " fill="none" stroke="rgb(0, 0, 0)" stroke-linecap="butt" stroke-linejoin="round" stroke-opacity="1.0" stroke-width="3.0" />
            <path d=" M 594.275, 987.235 593.692, 985.784 592.989, 984.035 592.297, 982.656 589.956, 979.259 587.637, 978.465 583.918, 981.689 579.465, 989.857 578.157, 992.257 577.519, 993.427 574.450, 1002.835 575.941, 1012.163 575.945, 1012.189 576.083, 1013.052 " fill="none" stroke="rgb(0, 0, 0)" stroke-linecap="butt" stroke-linejoin="round" stroke-opacity="1.0" stroke-width="3.0" />
            <path d=" M 838.630, 629.528 838.099, 632.886 838.087, 632.961 837.845, 634.488 837.904, 635.055 837.934, 635.340 837.943, 635.425 838.093, 636.856 838.303, 638.859 838.771, 643.331 838.787, 643.480 838.809, 643.973 838.826, 644.338 838.886, 645.677 839.311, 655.157 839.457, 655.218 842.943, 656.675 846.469, 657.022 850.034, 654.610 854.589, 645.707 856.057, 642.839 " fill="none" stroke="rgb(0, 0, 0)" stroke-linecap="butt" stroke-linejoin="round" stroke-opacity="1.0" stroke-width="3.0" />
            <path d=" M 729.238, 826.225 730.018, 826.614 730.019, 826.615 730.227, 826.718 734.311, 828.754 737.320, 830.319 742.541, 834.695 747.100, 839.410 752.700, 845.320 759.341, 852.678 761.993, 855.822 764.697, 859.452 766.066, 861.788 " fill="none" stroke="rgb(0, 0, 0)" stroke-linecap="butt" stroke-linejoin="round" stroke-opacity="1.0" stroke-width="3.0" />
            <path d=" M 791.256, 756.582 793.149, 756.775 796.501, 756.181 800.686, 753.629 803.176, 751.201 804.211, 749.392 804.692, 746.257 803.465, 736.811 801.945, 731.897 800.330, 723.652 798.386, 715.971 797.877, 713.961 " fill="none" stroke="rgb(0, 0, 0)" stroke-linecap="butt" stroke-linejoin="round" stroke-opacity="1.0" stroke-width="3.0" />
            <path d=" M 735.597, 583.178 734.832, 584.613 734.275, 585.658 733.970, 586.340 733.938, 586.412 733.817, 586.681 732.835, 588.880 732.601, 597.297 738.893, 595.626 747.192, 590.047 753.630, 585.719 759.639, 578.977 762.722, 577.382 763.713, 577.316 " fill="none" stroke="rgb(0, 0, 0)" stroke-linecap="butt" stroke-linejoin="round" stroke-opacity="1.0" stroke-width="3.0" />
            <path d=" M 517.044, 648.378 512.488, 645.350 510.725, 644.079 517.967, 650.967 525.002, 654.279 533.816, 656.108 536.929, 656.687 537.133, 656.725 537.255, 656.748 539.477, 657.162 544.979, 658.237 546.606, 658.555 551.663, 659.594 " fill="none" stroke="rgb(0, 0, 0)" stroke-linecap="butt" stroke-linejoin="round" stroke-opacity="1.0" stroke-width="3.0" />
            <path d=" M 732.898, 742.180 729.922, 733.823 727.864, 726.045 726.132, 720.541 721.938, 712.621 718.362, 707.684 712.253, 701.996 709.203, 700.737 705.895, 700.853 " fill="none" stroke="rgb(0, 0, 0)" stroke-linecap="butt" stroke-linejoin="round" stroke-opacity="1.0" stroke-width="3.0" />
            <path d=" M 518.434, 969.477 519.080, 977.970 518.977, 980.168 519.141, 984.313 519.181, 985.302 519.353, 989.652 519.355, 989.698 519.431, 991.602 520.607, 995.930 520.681, 996.199 520.842, 996.794 521.262, 998.279 521.262, 998.279 521.263, 998.282 521.294, 998.393 521.555, 999.317 522.637, 1002.223 526.125, 1011.595 526.990, 1013.920 530.410, 1020.126 " fill="none" stroke="rgb(0, 0, 0)" stroke-linecap="butt" stroke-linejoin="round" stroke-opacity="1.0" stroke-width="3.0" />
            <path d=" M 834.167, 603.463 834.176, 603.925 834.893, 606.727 835.433, 608.841 835.865, 610.515 836.809, 612.441 837.180, 613.197 837.575, 614.004 837.649, 614.155 838.266, 615.414 838.241, 615.943 838.218, 616.458 838.197, 616.907 838.188, 617.108 838.178, 617.318 838.097, 619.104 838.092, 619.201 837.962, 622.046 837.958, 622.128 837.958, 622.136 837.956, 622.181 837.952, 622.257 837.945, 622.406 837.926, 622.828 837.865, 624.157 837.798, 625.621 838.630, 629.528 839.110, 631.784 839.446, 633.361 839.451, 633.383 839.466, 633.456 839.467, 633.461 839.508, 633.653 839.874, 635.370 840.342, 636.257 841.215, 637.912 843.629, 638.905 846.341, 637.464 848.060, 634.172 848.188, 633.926 849.318, 631.762 851.574, 627.443 851.597, 627.297 " fill="none" stroke="rgb(0, 0, 0)" stroke-linecap="butt" stroke-linejoin="round" stroke-opacity="1.0" stroke-width="3.0" />
            <path d=" M 593.258, 1059.950 595.695, 1060.758 596.354, 1060.977 605.584, 1064.824 609.304, 1066.374 614.616, 1068.663 620.724, 1068.376 623.216, 1067.328 624.213, 1066.908 624.243, 1066.896 624.318, 1066.864 624.714, 1066.698 624.946, 1066.600 625.823, 1068.517 625.902, 1068.691 626.365, 1069.703 626.631, 1070.286 627.256, 1071.653 627.588, 1072.378 629.927, 1074.172 630.191, 1074.375 632.137, 1075.867 635.201, 1075.890 635.497, 1075.892 637.261, 1076.460 637.500, 1076.537 639.222, 1077.091 " fill="none" stroke="rgb(0, 0, 0)" stroke-linecap="butt" stroke-linejoin="round" stroke-opacity="1.0" stroke-width="3.0" />
            <path d=" M 711.217, 560.581 710.189, 561.279 706.159, 564.015 704.894, 565.499 704.761, 565.656 704.283, 566.217 702.879, 567.864 700.826, 573.719 700.671, 574.394 700.670, 574.399 700.285, 576.080 700.269, 576.149 700.416, 576.937 700.695, 578.430 701.070, 580.440 701.090, 580.549 701.239, 581.389 701.327, 581.886 701.354, 582.041 702.294, 587.362 702.065, 589.753 702.010, 590.332 701.980, 590.646 701.977, 590.679 701.974, 590.701 701.974, 590.701 701.929, 591.180 701.635, 594.242 701.645, 594.500 701.819, 594.655 705.450, 597.900 707.629, 598.024 707.740, 597.943 708.328, 597.513 709.071, 596.970 710.434, 595.974 711.856, 594.934 712.256, 594.643 713.736, 592.826 " fill="none" stroke="rgb(0, 0, 0)" stroke-linecap="butt" stroke-linejoin="round" stroke-opacity="1.0" stroke-width="3.0" />
            <path d=" M 599.281, 615.732 595.035, 619.657 590.022, 624.132 582.716, 630.961 579.760, 633.724 573.227, 641.294 570.448, 644.515 569.671, 645.431 565.983, 649.784 561.443, 655.142 " fill="none" stroke="rgb(0, 0, 0)" stroke-linecap="butt" stroke-linejoin="round" stroke-opacity="1.0" stroke-width="3.0" />
            <path d=" M 739.665, 862.023 737.200, 862.607 737.008, 862.652 736.473, 862.779 734.802, 863.175 734.800, 863.175 734.476, 863.252 734.151, 863.329 734.071, 863.348 733.689, 863.346 732.026, 863.336 730.821, 863.329 728.460, 863.314 727.681, 863.310 723.196, 861.744 719.011, 861.512 716.390, 860.985 715.480, 860.803 713.194, 860.344 712.594, 860.224 712.386, 860.182 712.246, 860.154 712.209, 860.146 711.181, 859.940 707.603, 862.891 706.190, 864.149 705.746, 864.544 704.932, 865.771 703.563, 867.835 703.472, 867.972 701.724, 873.567 701.656, 873.785 701.172, 875.332 701.099, 875.566 700.643, 877.024 700.367, 877.910 700.350, 877.962 700.178, 878.512 700.069, 878.863 700.059, 878.894 700.010, 879.051 699.999, 879.085 699.999, 879.087 699.169, 881.742 " fill="none" stroke="rgb(0, 0, 0)" stroke-linecap="butt" stroke-linejoin="round" stroke-opacity="1.0" stroke-width="3.0" />
            <path d=" M 884.029, 553.181 883.080, 548.629 881.701, 540.794 878.871, 533.704 877.267, 531.696 875.266, 529.561 875.174, 529.464 870.464, 524.440 869.396, 524.067 867.189, 523.367 862.799, 521.056 858.859, 519.053 852.784, 519.186 848.315, 522.850 " fill="none" stroke="rgb(0, 0, 0)" stroke-linecap="butt" stroke-linejoin="round" stroke-opacity="1.0" stroke-width="3.0" />
            <path d=" M 453.860, 716.900 458.632, 717.198 463.567, 716.939 473.076, 717.234 478.466, 718.532 483.611, 719.428 484.098, 719.513 484.112, 719.515 485.188, 719.703 489.108, 720.713 497.239, 724.549 503.379, 729.245 506.620, 733.350 508.118, 736.849 " fill="none" stroke="rgb(0, 0, 0)" stroke-linecap="butt" stroke-linejoin="round" stroke-opacity="1.0" stroke-width="3.0" />
            <path d=" M 739.596, 844.693 738.225, 840.555 735.036, 839.296 730.087, 838.740 726.285, 838.603 723.457, 837.814 722.222, 837.014 721.641, 836.637 721.632, 836.631 718.688, 834.723 714.936, 830.852 711.307, 828.145 706.993, 828.813 702.922, 833.424 701.474, 835.065 699.819, 838.804 698.818, 841.211 698.286, 842.490 695.228, 848.815 694.991, 849.306 " fill="none" stroke="rgb(0, 0, 0)" stroke-linecap="butt" stroke-linejoin="round" stroke-opacity="1.0" stroke-width="3.0" />
            <path d=" M 781.703, 913.884 783.062, 911.277 783.593, 908.915 783.512, 906.946 785.372, 900.625 786.467, 898.165 786.999, 895.208 789.025, 890.665 790.436, 887.584 791.144, 884.520 792.094, 881.168 793.087, 874.418 793.159, 873.447 793.128, 866.479 791.587, 859.031 791.465, 858.463 790.499, 856.401 789.776, 856.164 788.529, 855.755 788.039, 855.594 787.972, 855.572 786.931, 855.303 " fill="none" stroke="rgb(0, 0, 0)" stroke-linecap="butt" stroke-linejoin="round" stroke-opacity="1.0" stroke-width="3.0" />
            <path d=" M 736.790, 932.967 737.010, 932.691 739.411, 929.679 739.416, 929.672 740.161, 928.737 743.847, 924.113 746.925, 918.372 747.018, 918.273 747.024, 918.267 747.181, 918.098 747.246, 918.029 747.309, 917.962 747.316, 917.954 749.125, 916.021 749.779, 914.790 749.794, 914.762 749.908, 914.547 750.122, 914.144 750.160, 914.073 750.504, 913.425 750.533, 913.372 750.582, 913.279 750.845, 912.785 751.041, 912.416 751.647, 911.276 752.494, 909.275 753.242, 907.115 754.936, 902.894 756.280, 896.770 757.063, 891.145 757.681, 885.880 757.363, 880.036 755.863, 877.784 755.612, 877.407 755.596, 877.383 755.255, 876.871 755.092, 876.626 754.774, 876.149 754.564, 875.834 754.545, 875.806 " fill="none" stroke="rgb(0, 0, 0)" stroke-linecap="butt" stroke-linejoin="round" stroke-opacity="1.0" stroke-width="3.0" />
            <path d=" M 728.872, 558.794 727.572, 559.714 724.887, 561.614 721.456, 566.195 720.151, 568.740 719.018, 570.953 718.892, 571.199 718.788, 571.401 718.523, 572.298 718.341, 572.913 718.215, 573.338 718.180, 573.466 718.173, 573.490 718.153, 573.564 717.988, 574.163 716.268, 580.390 716.229, 580.530 715.814, 582.035 714.427, 588.565 714.236, 589.462 713.828, 592.209 713.736, 592.826 713.545, 594.113 719.343, 596.690 721.327, 596.415 726.123, 592.216 732.779, 586.198 733.361, 585.749 " fill="none" stroke="rgb(0, 0, 0)" stroke-linecap="butt" stroke-linejoin="round" stroke-opacity="1.0" stroke-width="3.0" />
            <path d=" M 716.527, 972.437 718.481, 970.960 724.824, 965.164 726.217, 963.379 726.957, 962.431 727.154, 962.179 729.145, 959.629 731.445, 956.257 732.235, 955.099 733.264, 953.592 738.900, 945.331 739.278, 944.778 739.919, 943.453 740.071, 943.139 740.724, 941.790 740.769, 941.696 741.069, 941.077 741.311, 940.449 744.904, 931.117 744.971, 930.942 747.110, 922.543 747.308, 917.983 747.309, 917.962 " fill="none" stroke="rgb(0, 0, 0)" stroke-linecap="butt" stroke-linejoin="round" stroke-opacity="1.0" stroke-width="3.0" />
            <path d=" M 822.411, 584.056 821.759, 584.643 821.474, 584.899 821.322, 585.036 821.065, 585.266 820.910, 585.405 820.897, 585.417 820.780, 585.522 820.777, 585.525 820.710, 585.586 820.699, 585.595 820.676, 585.616 820.267, 585.984 820.147, 586.091 819.839, 586.325 817.475, 588.124 816.194, 590.562 816.106, 592.579 816.256, 594.967 819.679, 597.037 824.371, 598.589 829.409, 601.256 833.291, 603.057 833.989, 603.380 834.167, 603.463 834.682, 603.702 837.449, 604.985 838.785, 604.910 839.227, 604.885 839.495, 604.870 839.570, 604.866 844.295, 604.600 847.127, 606.526 848.693, 608.509 849.961, 609.977 850.939, 611.109 850.951, 611.124 851.039, 611.225 851.140, 611.342 851.179, 611.362 854.370, 613.005 855.008, 613.333 855.568, 613.622 856.168, 613.930 856.171, 613.932 856.380, 614.040 856.413, 614.057 856.445, 614.073 856.816, 614.264 858.639, 614.547 858.880, 614.584 859.912, 614.744 860.677, 614.863 861.026, 614.917 861.717, 615.024 861.809, 615.038 863.102, 615.239 " fill="none" stroke="rgb(0, 0, 0)" stroke-linecap="butt" stroke-linejoin="round" stroke-opacity="1.0" stroke-width="3.0" />
            <path d=" M 532.473, 684.056 532.073, 683.667 527.889, 680.526 524.788, 678.823 523.960, 678.368 523.959, 678.368 523.879, 678.324 521.861, 677.215 521.314, 676.705 518.834, 674.393 518.416, 674.003 517.948, 673.567 517.712, 673.347 516.998, 672.681 512.128, 670.743 509.891, 670.776 509.883, 670.776 509.373, 670.783 505.277, 670.844 499.991, 670.363 492.148, 670.520 488.588, 670.979 485.569, 671.950 477.528, 676.143 470.574, 681.774 " fill="none" stroke="rgb(0, 0, 0)" stroke-linecap="butt" stroke-linejoin="round" stroke-opacity="1.0" stroke-width="3.0" />
            <path d=" M 685.166, 565.361 683.829, 566.149 683.131, 566.559 679.202, 568.872 679.191, 568.878 679.190, 568.879 676.183, 570.649 676.130, 570.680 675.577, 571.006 675.571, 571.009 674.617, 571.648 672.753, 572.897 672.383, 573.145 672.186, 573.434 671.092, 575.039 670.970, 575.218 670.178, 576.380 669.509, 577.362 669.037, 579.712 668.790, 580.940 668.703, 581.374 670.496, 586.873 670.528, 586.971 671.070, 588.634 675.791, 591.757 677.479, 594.217 678.068, 595.077 678.135, 595.175 678.240, 595.327 680.777, 599.025 684.529, 601.164 685.994, 602.530 687.560, 603.989 688.607, 604.965 690.903, 605.380 694.975, 598.949 697.179, 594.713 " fill="none" stroke="rgb(0, 0, 0)" stroke-linecap="butt" stroke-linejoin="round" stroke-opacity="1.0" stroke-width="3.0" />
            <path d=" M 575.827, 870.514 579.866, 866.139 581.435, 864.440 583.215, 859.098 583.304, 858.828 584.382, 855.596 586.598, 847.745 588.449, 843.845 588.680, 842.697 588.661, 840.781 588.658, 840.487 588.638, 838.454 587.824, 837.661 587.094, 837.292 586.481, 836.982 585.918, 836.697 585.412, 836.441 584.723, 836.811 583.130, 837.667 582.685, 837.907 582.671, 837.914 582.462, 838.027 582.395, 838.063 582.307, 838.110 582.269, 838.130 581.126, 838.745 577.656, 840.852 575.070, 843.332 571.447, 845.089 571.127, 845.351 571.034, 845.428 568.804, 847.260 566.295, 849.321 565.523, 849.955 564.576, 852.548 563.946, 854.271 563.770, 854.755 563.698, 854.952 563.446, 857.090 563.446, 857.092 563.446, 857.097 563.201, 859.179 563.133, 859.753 563.019, 860.726 562.997, 860.908 " fill="none" stroke="rgb(0, 0, 0)" stroke-linecap="butt" stroke-linejoin="round" stroke-opacity="1.0" stroke-width="3.0" />
            <path d=" M 662.425, 529.038 656.421, 537.035 652.276, 542.556 646.708, 550.862 645.106, 553.254 641.058, 559.252 638.035, 563.732 637.805, 564.073 636.980, 565.295 632.334, 574.246 629.202, 578.996 629.090, 579.166 627.012, 582.317 626.690, 582.805 625.899, 584.004 622.616, 588.984 622.451, 589.256 622.186, 589.695 621.818, 590.303 618.535, 595.729 " fill="none" stroke="rgb(0, 0, 0)" stroke-linecap="butt" stroke-linejoin="round" stroke-opacity="1.0" stroke-width="3.0" />
            <path d=" M 566.952, 649.381 566.164, 650.205 561.443, 655.142 559.548, 657.124 557.976, 658.768 557.795, 658.957 556.280, 660.542 556.203, 660.622 554.747, 662.145 547.793, 669.332 545.539, 671.661 541.562, 675.726 540.784, 676.521 534.079, 683.940 533.272, 684.833 532.627, 685.546 531.969, 686.274 531.662, 686.598 527.728, 690.730 527.347, 691.130 527.295, 691.185 527.077, 691.414 524.716, 693.894 522.536, 696.185 517.133, 702.203 516.576, 702.736 515.350, 703.908 513.226, 705.404 513.147, 705.459 512.159, 706.155 511.961, 706.294 510.125, 707.586 507.645, 709.332 506.879, 709.871 " fill="none" stroke="rgb(0, 0, 0)" stroke-linecap="butt" stroke-linejoin="round" stroke-opacity="1.0" stroke-width="3.0" />
            <path d=" M 671.499, 1069.063 679.987, 1064.489 680.804, 1064.048 684.443, 1060.502 690.815, 1056.360 694.837, 1051.856 698.726, 1042.643 699.038, 1041.904 699.181, 1041.461 699.411, 1040.747 699.954, 1039.066 702.529, 1031.087 701.070, 1028.846 696.568, 1028.253 691.111, 1031.585 683.662, 1035.743 674.556, 1039.875 672.554, 1040.783 672.460, 1040.826 672.326, 1040.887 672.278, 1040.909 670.996, 1040.670 670.152, 1040.513 " fill="none" stroke="rgb(0, 0, 0)" stroke-linecap="butt" stroke-linejoin="round" stroke-opacity="1.0" stroke-width="3.0" />
            <path d=" M 575.194, 585.036 571.522, 592.208 571.308, 592.627 571.265, 592.675 566.874, 597.625 566.797, 597.681 558.722, 603.581 553.229, 607.594 546.163, 611.496 538.155, 614.569 530.166, 618.254 521.103, 622.481 520.742, 622.649 516.609, 624.835 510.075, 629.818 509.518, 631.369 508.930, 633.872 508.627, 640.579 510.725, 644.079 " fill="none" stroke="rgb(0, 0, 0)" stroke-linecap="butt" stroke-linejoin="round" stroke-opacity="1.0" stroke-width="3.0" />
            <path d=" M 445.904, 692.995 445.555, 692.889 445.236, 692.792 444.863, 692.679 442.621, 691.998 436.510, 694.462 433.543, 696.297 426.375, 703.269 426.010, 703.623 422.615, 706.761 418.172, 711.596 414.080, 718.370 410.917, 725.265 408.420, 732.885 406.944, 738.610 405.566, 747.734 404.775, 757.702 404.628, 759.551 404.834, 766.792 405.667, 770.441 " fill="none" stroke="rgb(0, 0, 0)" stroke-linecap="butt" stroke-linejoin="round" stroke-opacity="1.0" stroke-width="3.0" />
            <path d=" M 768.286, 708.318 768.280, 708.425 767.741, 718.411 767.723, 718.753 768.156, 726.074 768.519, 732.621 768.376, 738.238 768.357, 738.966 768.285, 741.830 768.028, 745.210 767.849, 747.564 767.867, 753.923 767.446, 756.677 767.147, 759.996 766.417, 763.636 765.967, 771.094 765.032, 776.846 764.988, 781.615 764.624, 787.613 764.480, 791.164 764.448, 791.949 764.456, 792.142 764.546, 794.431 764.793, 799.641 764.244, 805.760 763.369, 810.339 " fill="none" stroke="rgb(0, 0, 0)" stroke-linecap="butt" stroke-linejoin="round" stroke-opacity="1.0" stroke-width="3.0" />
            <path d=" M 735.779, 997.832 736.429, 997.015 739.666, 992.947 743.143, 987.407 748.065, 978.702 748.156, 978.540 753.309, 969.970 756.905, 963.989 757.312, 963.312 757.456, 963.072 758.152, 959.065 754.842, 954.570 750.265, 954.086 745.894, 956.316 742.360, 959.493 742.295, 959.551 742.201, 959.636 741.285, 960.460 739.489, 962.001 731.903, 968.516 725.910, 973.663 718.413, 979.090 712.886, 983.091 " fill="none" stroke="rgb(0, 0, 0)" stroke-linecap="butt" stroke-linejoin="round" stroke-opacity="1.0" stroke-width="3.0" />
            <path d=" M 754.543, 742.180 754.519, 749.843 754.649, 755.401 754.794, 757.072 755.531, 767.044 755.728, 769.711 756.291, 774.446 757.495, 782.026 757.828, 784.129 758.033, 785.419 759.047, 792.312 760.103, 800.581 759.822, 805.410 757.436, 811.071 757.093, 814.394 757.948, 816.925 759.595, 819.040 761.628, 820.582 767.398, 824.274 770.970, 824.357 772.153, 821.961 772.411, 819.637 772.496, 818.878 773.708, 817.178 774.554, 813.322 775.965, 810.194 775.977, 810.074 " fill="none" stroke="rgb(0, 0, 0)" stroke-linecap="butt" stroke-linejoin="round" stroke-opacity="1.0" stroke-width="3.0" />
            <path d=" M 780.181, 798.684 781.137, 796.144 783.204, 790.647 784.253, 786.821 786.469, 777.630 788.942, 768.011 790.826, 759.603 791.256, 756.582 792.630, 746.929 793.234, 737.329 793.274, 731.555 793.086, 721.557 793.055, 719.879 792.885, 713.818 793.956, 703.875 794.765, 696.359 794.909, 695.779 797.315, 686.072 797.499, 685.333 798.816, 681.535 " fill="none" stroke="rgb(0, 0, 0)" stroke-linecap="butt" stroke-linejoin="round" stroke-opacity="1.0" stroke-width="3.0" />
            <path d=" M 453.998, 833.940 455.242, 835.113 455.592, 835.443 460.436, 839.914 462.096, 841.742 463.090, 842.837 463.506, 843.295 463.506, 843.295 463.723, 843.535 464.236, 844.099 464.265, 844.131 464.818, 844.740 469.273, 850.068 474.060, 857.457 479.322, 865.961 479.453, 866.172 481.284, 871.571 481.378, 871.846 482.323, 874.631 482.407, 874.880 482.447, 874.999 485.236, 881.511 485.713, 882.625 485.865, 883.354 486.026, 884.126 487.407, 890.736 487.865, 892.927 488.111, 895.633 488.131, 895.851 488.699, 902.109 487.963, 906.756 486.868, 913.336 486.882, 915.605 486.889, 916.767 486.903, 919.061 486.477, 920.791 486.461, 920.857 486.320, 921.427 485.479, 924.288 485.701, 927.590 485.343, 930.342 484.697, 935.011 485.282, 937.154 486.138, 939.529 486.694, 941.070 486.706, 941.105 487.019, 941.972 487.094, 942.178 " fill="none" stroke="rgb(0, 0, 0)" stroke-linecap="butt" stroke-linejoin="round" stroke-opacity="1.0" stroke-width="3.0" />
            <path d=" M 787.552, 559.788 784.736, 562.276 784.396, 562.576 784.052, 562.880 781.346, 565.271 781.344, 565.273 781.260, 565.347 781.252, 565.354 781.066, 565.518 780.970, 565.604 778.365, 567.905 772.439, 574.351 770.198, 576.833 770.008, 577.043 769.709, 577.375 763.007, 584.797 759.047, 589.182 758.277, 590.292 752.942, 597.975 751.393, 603.627 750.988, 606.537 753.008, 609.947 753.614, 616.527 756.257, 619.659 756.432, 619.818 758.311, 620.538 766.714, 615.116 772.217, 611.564 777.455, 608.507 778.284, 608.023 778.329, 607.996 782.179, 605.749 788.474, 602.787 792.555, 599.745 792.572, 599.732 794.147, 598.558 794.887, 597.719 795.043, 597.542 799.041, 593.007 " fill="none" stroke="rgb(0, 0, 0)" stroke-linecap="butt" stroke-linejoin="round" stroke-opacity="1.0" stroke-width="3.0" />
            <path d=" M 470.318, 893.153 470.207, 893.117 470.147, 893.098 469.952, 893.036 469.882, 893.014 469.846, 893.003 469.498, 892.893 469.187, 892.794 468.906, 892.705 468.761, 892.659 468.752, 892.656 468.667, 892.629 468.365, 892.533 466.841, 892.050 463.619, 891.029 458.468, 888.280 455.857, 886.790 453.085, 886.927 450.124, 890.251 444.446, 890.230 440.090, 887.338 437.428, 888.482 436.720, 892.802 434.719, 895.375 433.697, 899.426 433.893, 901.844 434.596, 907.588 434.952, 911.543 435.867, 915.609 436.869, 919.484 438.124, 925.552 439.705, 930.073 441.367, 933.273 445.228, 939.930 452.384, 946.916 452.894, 947.414 456.190, 949.493 460.071, 952.579 463.543, 954.472 468.201, 957.035 472.158, 958.965 474.848, 959.883 480.489, 961.985 483.959, 963.964 485.808, 965.252 " fill="none" stroke="rgb(0, 0, 0)" stroke-linecap="butt" stroke-linejoin="round" stroke-opacity="1.0" stroke-width="3.0" />
            <path d=" M 509.637, 703.126 509.220, 703.386 508.047, 704.117 507.755, 704.299 507.507, 704.454 507.502, 704.456 507.393, 704.524 506.395, 705.138 502.233, 707.694 501.963, 707.859 501.707, 708.017 501.674, 708.041 501.083, 708.474 501.055, 708.495 499.907, 709.337 499.821, 709.400 498.115, 710.650 498.092, 710.667 497.523, 711.084 496.998, 713.642 497.140, 717.258 497.665, 718.569 498.427, 720.474 500.173, 721.079 502.682, 721.810 505.689, 721.937 506.098, 721.827 508.350, 721.216 510.011, 720.582 512.420, 719.757 513.699, 719.313 513.700, 719.313 514.659, 718.981 514.687, 718.971 515.403, 718.722 516.513, 718.315 519.517, 717.213 522.734, 715.485 527.651, 712.388 528.310, 711.724 530.729, 709.286 532.676, 707.323 536.198, 704.260 536.330, 704.145 536.407, 704.078 538.217, 702.504 539.299, 701.563 539.318, 701.547 539.875, 701.063 541.181, 699.926 548.985, 693.599 550.630, 692.233 554.791, 688.570 556.560, 687.118 559.431, 685.048 564.860, 680.818 567.912, 678.179 571.740, 674.831 575.145, 672.175 577.755, 670.118 581.158, 667.354 583.068, 665.774 585.080, 664.111 588.058, 661.355 588.101, 661.315 588.215, 661.209 588.455, 660.987 590.756, 659.722 592.495, 658.766 595.811, 655.988 " fill="none" stroke="rgb(0, 0, 0)" stroke-linecap="butt" stroke-linejoin="round" stroke-opacity="1.0" stroke-width="3.0" />
            <path d=" M 576.258, 963.823 577.665, 955.762 578.039, 952.645 578.048, 952.571 578.277, 950.663 578.333, 950.215 578.959, 945.244 579.097, 944.148 579.510, 940.876 579.661, 939.674 581.589, 935.170 581.594, 935.158 581.929, 934.376 583.407, 926.211 584.737, 920.325 585.997, 914.976 586.362, 912.194 586.367, 912.153 586.832, 908.609 586.857, 908.571 586.879, 908.536 587.099, 908.188 587.292, 907.884 589.495, 904.408 590.933, 896.497 590.969, 896.302 591.817, 891.342 591.889, 890.923 591.959, 889.792 592.086, 887.739 592.096, 887.568 592.175, 886.292 588.477, 886.094 585.988, 890.121 584.841, 891.978 581.028, 898.783 580.566, 899.741 580.533, 899.810 580.277, 900.341 579.849, 901.229 578.791, 903.423 578.693, 903.625 577.180, 906.764 573.273, 911.596 569.311, 918.792 568.620, 920.047 567.354, 922.111 563.009, 931.117 562.100, 933.001 562.054, 933.097 561.022, 935.236 559.272, 939.881 557.784, 943.832 555.881, 948.884 " fill="none" stroke="rgb(0, 0, 0)" stroke-linecap="butt" stroke-linejoin="round" stroke-opacity="1.0" stroke-width="3.0" />
            <path d=" M 854.874, 638.950 856.061, 642.831 856.079, 642.888 858.238, 649.944 861.258, 659.356 861.804, 663.941 864.545, 671.925 865.533, 681.876 865.799, 684.557 865.633, 690.838 868.352, 698.734 871.402, 700.023 874.915, 697.035 875.945, 695.825 880.273, 686.810 881.646, 683.952 883.620, 674.149 885.594, 664.346 886.298, 660.850 887.291, 650.899 887.519, 648.620 888.122, 638.638 888.312, 635.496 887.674, 625.516 887.530, 623.269 885.209, 613.542 884.525, 610.677 884.340, 609.903 " fill="none" stroke="rgb(0, 0, 0)" stroke-linecap="butt" stroke-linejoin="round" stroke-opacity="1.0" stroke-width="3.0" />
        </g>
    </g>
</svg>
