<?xml version='1.0' encoding='ascii'?>
<svg xmlns="http://www.w3.org/2000/svg" height="1280" version="1.1" width="1280">
    <g id="RenderLayer_LineSet" inkscape:groupmode="lineset" inkscape:label="RenderLayer_LineSet" xmlns:inkscape="http://www.inkscape.org/namespaces/inkscape">
        <g id="strokes" inkscape:groupmode="layer" inkscape:label="strokes" xmlns:inkscape="http://www.inkscape.org/namespaces/inkscape">
            <path d=" M 839.149, 938.531 843.995, 940.021 847.766, 939.477 850.052, 938.949 851.039, 938.689 851.732, 937.880 851.843, 937.750 852.357, 937.149 852.423, 937.072 852.468, 937.018 853.022, 936.372 853.266, 936.432 853.272, 936.434 854.347, 936.701 854.694, 936.788 853.603, 937.577 851.843, 937.750 " fill="none" stroke="rgb(0, 0, 0)" stroke-linecap="butt" stroke-linejoin="round" stroke-opacity="1.0" stroke-width="3.0" />
            <path d=" M 758.916, 603.815 762.588, 607.656 768.030, 613.337 772.185, 619.050 " fill="none" stroke="rgb(0, 0, 0)" stroke-linecap="butt" stroke-linejoin="round" stroke-opacity="1.0" stroke-width="3.0" />
            <path d=" M 740.567, 836.796 740.624, 833.322 738.478, 826.935 737.301, 825.005 736.650, 823.938 735.044, 820.490 733.787, 817.791 " fill="none" stroke="rgb(0, 0, 0)" stroke-linecap="butt" stroke-linejoin="round" stroke-opacity="1.0" stroke-width="3.0" />
            <path d=" M 626.971, 334.529 622.149, 332.643 621.911, 332.550 621.868, 332.533 621.553, 332.410 620.915, 332.160 619.982, 331.795 613.348, 330.569 607.075, 330.503 " fill="none" stroke="rgb(0, 0, 0)" stroke-linecap="butt" stroke-linejoin="round" stroke-opacity="1.0" stroke-width="3.0" />
            <path d=" M 414.306, 996.736 417.644, 992.308 417.887, 991.985 421.567, 987.104 426.491, 980.156 " fill="none" stroke="rgb(0, 0, 0)" stroke-linecap="butt" stroke-linejoin="round" stroke-opacity="1.0" stroke-width="3.0" />
            <path d=" M 701.262, 554.567 701.631, 554.948 701.821, 555.145 702.423, 555.766 702.484, 555.829 702.776, 556.132 703.747, 557.134 704.002, 557.398 704.031, 557.428 704.697, 558.116 704.875, 558.341 705.597, 559.250 705.698, 559.377 705.786, 559.488 706.769, 560.726 706.798, 560.763 707.191, 561.258 707.286, 561.376 707.802, 562.015 711.207, 566.235 713.876, 569.864 713.932, 569.940 714.457, 570.654 " fill="none" stroke="rgb(0, 0, 0)" stroke-linecap="butt" stroke-linejoin="round" stroke-opacity="1.0" stroke-width="3.0" />
            <path d=" M 559.470, 545.492 562.120, 538.954 562.703, 538.347 567.156, 533.706 569.184, 531.119 572.066, 529.688 " fill="none" stroke="rgb(0, 0, 0)" stroke-linecap="butt" stroke-linejoin="round" stroke-opacity="1.0" stroke-width="3.0" />
            <path d=" M 470.880, 475.694 463.208, 479.513 459.774, 482.236 456.619, 484.738 454.111, 488.049 " fill="none" stroke="rgb(0, 0, 0)" stroke-linecap="butt" stroke-linejoin="round" stroke-opacity="1.0" stroke-width="3.0" />
            <path d=" M 469.473, 642.211 464.831, 645.289 462.633, 652.480 461.625, 655.792 461.334, 660.466 " fill="none" stroke="rgb(0, 0, 0)" stroke-linecap="butt" stroke-linejoin="round" stroke-opacity="1.0" stroke-width="3.0" />
            <path d=" M 833.472, 675.585 833.242, 674.288 833.146, 673.749 832.958, 672.692 833.037, 670.299 832.507, 664.626 832.427, 661.974 832.420, 661.745 832.420, 661.741 832.398, 661.014 832.339, 659.081 831.514, 657.147 831.239, 656.502 830.067, 654.930 " fill="none" stroke="rgb(0, 0, 0)" stroke-linecap="butt" stroke-linejoin="round" stroke-opacity="1.0" stroke-width="3.0" />
            <path d=" M 347.810, 700.508 346.984, 704.361 345.980, 709.045 346.177, 714.972 346.237, 721.717 " fill="none" stroke="rgb(0, 0, 0)" stroke-linecap="butt" stroke-linejoin="round" stroke-opacity="1.0" stroke-width="3.0" />
            <path d=" M 535.277, 498.761 534.314, 502.785 531.612, 510.182 530.190, 513.006 527.428, 518.780 " fill="none" stroke="rgb(0, 0, 0)" stroke-linecap="butt" stroke-linejoin="round" stroke-opacity="1.0" stroke-width="3.0" />
            <path d=" M 397.730, 827.628 398.780, 832.731 398.303, 841.078 400.324, 849.173 " fill="none" stroke="rgb(0, 0, 0)" stroke-linecap="butt" stroke-linejoin="round" stroke-opacity="1.0" stroke-width="3.0" />
            <path d=" M 649.124, 361.083 648.248, 360.648 647.239, 360.146 646.156, 359.608 644.812, 358.940 641.357, 358.290 640.874, 358.199 639.597, 357.959 639.157, 357.876 639.153, 357.875 638.893, 357.789 638.836, 357.771 638.763, 357.746 638.710, 357.729 638.569, 357.682 637.700, 357.396 637.437, 357.309 636.961, 357.151 634.014, 356.507 633.783, 356.456 629.072, 355.425 628.415, 355.281 628.044, 355.200 " fill="none" stroke="rgb(0, 0, 0)" stroke-linecap="butt" stroke-linejoin="round" stroke-opacity="1.0" stroke-width="3.0" />
            <path d=" M 478.460, 977.261 479.842, 978.113 486.230, 981.066 490.704, 982.165 491.127, 982.270 493.694, 982.828 495.464, 983.213 499.389, 984.067 " fill="none" stroke="rgb(0, 0, 0)" stroke-linecap="butt" stroke-linejoin="round" stroke-opacity="1.0" stroke-width="3.0" />
            <path d=" M 695.364, 878.045 697.689, 877.897 700.060, 877.746 704.241, 875.425 706.181, 873.171 708.551, 870.309 709.034, 867.658 709.179, 866.862 709.190, 866.801 709.214, 866.671 709.620, 864.447 709.634, 864.369 " fill="none" stroke="rgb(0, 0, 0)" stroke-linecap="butt" stroke-linejoin="round" stroke-opacity="1.0" stroke-width="3.0" />
            <path d=" M 826.111, 921.104 829.627, 918.136 832.669, 913.495 834.250, 911.083 834.380, 910.884 835.097, 909.790 835.154, 909.704 835.351, 909.028 836.298, 905.782 836.624, 904.664 837.019, 903.311 837.318, 902.285 " fill="none" stroke="rgb(0, 0, 0)" stroke-linecap="butt" stroke-linejoin="round" stroke-opacity="1.0" stroke-width="3.0" />
            <path d=" M 560.100, 947.704 565.632, 940.655 568.311, 936.815 568.581, 936.681 571.684, 935.135 573.783, 933.522 574.140, 933.247 574.263, 933.152 574.315, 933.112 574.808, 932.733 574.869, 932.686 575.042, 932.553 575.658, 932.080 " fill="none" stroke="rgb(0, 0, 0)" stroke-linecap="butt" stroke-linejoin="round" stroke-opacity="1.0" stroke-width="3.0" />
            <path d=" M 751.291, 897.474 752.374, 894.808 754.075, 887.885 755.422, 882.341 755.618, 877.912 755.735, 875.273 " fill="none" stroke="rgb(0, 0, 0)" stroke-linecap="butt" stroke-linejoin="round" stroke-opacity="1.0" stroke-width="3.0" />
            <path d=" M 813.969, 894.918 813.367, 895.391 813.130, 895.577 812.270, 896.252 807.576, 897.828 807.364, 897.899 805.637, 897.939 804.751, 897.960 798.419, 899.211 794.093, 899.356 791.930, 899.428 " fill="none" stroke="rgb(0, 0, 0)" stroke-linecap="butt" stroke-linejoin="round" stroke-opacity="1.0" stroke-width="3.0" />
            <path d=" M 641.988, 341.454 639.908, 340.545 638.899, 340.104 637.823, 339.634 637.314, 339.232 634.965, 337.375 634.766, 337.218 634.727, 337.188 632.370, 334.828 631.470, 333.927 628.228, 331.867 623.460, 331.572 622.230, 332.112 " fill="none" stroke="rgb(0, 0, 0)" stroke-linecap="butt" stroke-linejoin="round" stroke-opacity="1.0" stroke-width="3.0" />
            <path d=" M 458.529, 974.003 468.481, 974.985 470.455, 975.179 477.193, 976.480 481.431, 977.298 " fill="none" stroke="rgb(0, 0, 0)" stroke-linecap="butt" stroke-linejoin="round" stroke-opacity="1.0" stroke-width="3.0" />
            <path d=" M 867.971, 742.112 867.723, 734.772 867.000, 725.660 866.978, 725.460 866.274, 718.977 " fill="none" stroke="rgb(0, 0, 0)" stroke-linecap="butt" stroke-linejoin="round" stroke-opacity="1.0" stroke-width="3.0" />
            <path d=" M 444.009, 735.154 440.568, 737.734 438.904, 743.508 437.496, 745.443 437.138, 751.521 437.250, 756.179 " fill="none" stroke="rgb(0, 0, 0)" stroke-linecap="butt" stroke-linejoin="round" stroke-opacity="1.0" stroke-width="3.0" />
            <path d=" M 737.881, 774.722 740.847, 772.435 740.858, 772.426 742.913, 770.841 747.688, 767.159 754.034, 765.864 754.666, 765.735 758.600, 764.932 " fill="none" stroke="rgb(0, 0, 0)" stroke-linecap="butt" stroke-linejoin="round" stroke-opacity="1.0" stroke-width="3.0" />
            <path d=" M 505.750, 983.991 514.079, 989.524 516.170, 990.912 520.352, 993.696 522.114, 994.869 525.438, 997.081 " fill="none" stroke="rgb(0, 0, 0)" stroke-linecap="butt" stroke-linejoin="round" stroke-opacity="1.0" stroke-width="3.0" />
            <path d=" M 408.045, 929.621 408.770, 932.554 408.950, 933.283 409.217, 934.156 409.840, 936.190 411.821, 942.655 411.847, 944.421 411.870, 946.038 411.883, 946.897 411.891, 947.417 411.899, 947.980 411.901, 948.140 411.916, 948.357 411.925, 948.484 412.052, 950.359 412.217, 952.788 " fill="none" stroke="rgb(0, 0, 0)" stroke-linecap="butt" stroke-linejoin="round" stroke-opacity="1.0" stroke-width="3.0" />
            <path d=" M 386.081, 918.359 386.823, 918.936 391.001, 922.181 394.995, 928.539 398.516, 933.146 398.772, 933.481 399.006, 933.788 399.028, 933.824 400.744, 936.712 " fill="none" stroke="rgb(0, 0, 0)" stroke-linecap="butt" stroke-linejoin="round" stroke-opacity="1.0" stroke-width="3.0" />
            <path d=" M 416.601, 628.882 413.164, 634.078 411.861, 636.311 409.995, 641.123 406.980, 650.554 " fill="none" stroke="rgb(0, 0, 0)" stroke-linecap="butt" stroke-linejoin="round" stroke-opacity="1.0" stroke-width="3.0" />
            <path d=" M 736.412, 778.355 737.483, 777.889 737.484, 777.889 738.851, 777.294 739.790, 776.886 746.978, 776.112 749.178, 775.404 753.994, 771.031 754.875, 770.006 756.816, 767.751 " fill="none" stroke="rgb(0, 0, 0)" stroke-linecap="butt" stroke-linejoin="round" stroke-opacity="1.0" stroke-width="3.0" />
            <path d=" M 504.239, 549.955 503.574, 550.597 502.888, 551.265 500.464, 553.627 495.877, 559.951 492.600, 563.927 490.026, 569.162 " fill="none" stroke="rgb(0, 0, 0)" stroke-linecap="butt" stroke-linejoin="round" stroke-opacity="1.0" stroke-width="3.0" />
            <path d=" M 568.575, 530.043 572.066, 529.688 575.159, 529.373 575.221, 529.367 576.424, 529.244 577.517, 528.959 577.568, 528.945 578.246, 528.768 578.499, 528.702 578.719, 528.644 579.139, 526.758 579.350, 524.104 579.438, 522.989 579.535, 521.779 579.578, 521.680 579.663, 521.486 579.745, 521.298 580.016, 520.679 580.291, 520.051 580.353, 519.910 580.643, 519.248 581.497, 517.298 582.436, 515.400 " fill="none" stroke="rgb(0, 0, 0)" stroke-linecap="butt" stroke-linejoin="round" stroke-opacity="1.0" stroke-width="3.0" />
            <path d=" M 380.424, 596.434 377.928, 606.118 377.723, 606.910 376.445, 610.738 374.523, 614.397 372.456, 616.691 372.355, 618.888 " fill="none" stroke="rgb(0, 0, 0)" stroke-linecap="butt" stroke-linejoin="round" stroke-opacity="1.0" stroke-width="3.0" />
            <path d=" M 695.623, 801.730 690.052, 810.035 689.883, 810.287 688.529, 814.877 688.130, 816.550 688.125, 816.569 687.831, 817.804 688.388, 819.927 689.953, 823.784 " fill="none" stroke="rgb(0, 0, 0)" stroke-linecap="butt" stroke-linejoin="round" stroke-opacity="1.0" stroke-width="3.0" />
            <path d=" M 791.309, 856.923 791.530, 862.183 795.062, 869.656 795.331, 875.435 796.376, 878.709 797.182, 880.312 " fill="none" stroke="rgb(0, 0, 0)" stroke-linecap="butt" stroke-linejoin="round" stroke-opacity="1.0" stroke-width="3.0" />
            <path d=" M 537.275, 378.168 536.698, 379.540 534.526, 384.709 532.328, 389.441 529.937, 396.675 527.731, 399.835 527.273, 400.491 " fill="none" stroke="rgb(0, 0, 0)" stroke-linecap="butt" stroke-linejoin="round" stroke-opacity="1.0" stroke-width="3.0" />
            <path d=" M 858.534, 933.944 860.126, 933.312 861.215, 932.178 862.809, 930.487 862.486, 928.606 862.153, 926.661 860.985, 921.807 860.740, 917.032 860.863, 911.219 " fill="none" stroke="rgb(0, 0, 0)" stroke-linecap="butt" stroke-linejoin="round" stroke-opacity="1.0" stroke-width="3.0" />
            <path d=" M 822.867, 740.664 822.817, 740.382 822.767, 740.096 822.682, 739.619 821.255, 731.568 821.007, 727.503 818.021, 722.023 816.272, 721.031 815.692, 720.902 815.672, 720.898 812.640, 720.220 " fill="none" stroke="rgb(0, 0, 0)" stroke-linecap="butt" stroke-linejoin="round" stroke-opacity="1.0" stroke-width="3.0" />
            <path d=" M 755.618, 877.912 757.601, 868.401 760.389, 861.091 762.459, 854.468 762.705, 853.680 " fill="none" stroke="rgb(0, 0, 0)" stroke-linecap="butt" stroke-linejoin="round" stroke-opacity="1.0" stroke-width="3.0" />
            <path d=" M 433.676, 577.926 427.652, 585.908 426.636, 587.254 423.897, 591.864 419.917, 599.231 " fill="none" stroke="rgb(0, 0, 0)" stroke-linecap="butt" stroke-linejoin="round" stroke-opacity="1.0" stroke-width="3.0" />
            <path d=" M 505.601, 983.945 505.750, 983.991 515.310, 986.924 517.631, 987.636 518.682, 987.661 518.699, 987.661 521.520, 987.728 527.872, 987.877 530.746, 988.281 " fill="none" stroke="rgb(0, 0, 0)" stroke-linecap="butt" stroke-linejoin="round" stroke-opacity="1.0" stroke-width="3.0" />
            <path d=" M 409.774, 635.445 406.215, 644.791 405.228, 647.383 401.295, 656.577 400.105, 659.358 " fill="none" stroke="rgb(0, 0, 0)" stroke-linecap="butt" stroke-linejoin="round" stroke-opacity="1.0" stroke-width="3.0" />
            <path d=" M 816.718, 605.261 813.818, 602.237 812.939, 601.492 812.493, 601.113 812.292, 600.942 811.781, 600.508 811.604, 600.492 809.660, 600.316 808.023, 602.279 808.000, 608.812 809.327, 613.667 809.334, 613.693 810.044, 616.289 " fill="none" stroke="rgb(0, 0, 0)" stroke-linecap="butt" stroke-linejoin="round" stroke-opacity="1.0" stroke-width="3.0" />
            <path d=" M 379.203, 845.884 379.579, 846.601 380.856, 849.030 381.221, 849.724 381.522, 850.296 383.016, 853.137 383.658, 854.536 383.800, 854.844 386.469, 858.503 389.473, 862.523 392.440, 868.326 " fill="none" stroke="rgb(0, 0, 0)" stroke-linecap="butt" stroke-linejoin="round" stroke-opacity="1.0" stroke-width="3.0" />
            <path d=" M 789.156, 905.861 790.294, 909.112 793.253, 913.359 795.315, 915.338 797.074, 916.345 805.198, 922.175 805.639, 922.491 807.497, 923.825 " fill="none" stroke="rgb(0, 0, 0)" stroke-linecap="butt" stroke-linejoin="round" stroke-opacity="1.0" stroke-width="3.0" />
            <path d=" M 810.484, 557.670 810.454, 557.805 809.265, 563.210 808.449, 569.622 808.324, 573.854 808.542, 577.306 808.545, 577.361 808.621, 578.563 808.630, 578.779 808.770, 582.100 808.771, 582.126 808.843, 583.825 " fill="none" stroke="rgb(0, 0, 0)" stroke-linecap="butt" stroke-linejoin="round" stroke-opacity="1.0" stroke-width="3.0" />
            <path d=" M 544.699, 416.574 538.975, 421.461 536.360, 423.550 536.136, 423.729 535.066, 424.694 535.000, 424.753 534.655, 425.064 529.853, 429.393 529.497, 429.755 529.471, 429.781 525.110, 434.218 " fill="none" stroke="rgb(0, 0, 0)" stroke-linecap="butt" stroke-linejoin="round" stroke-opacity="1.0" stroke-width="3.0" />
            <path d=" M 611.024, 977.822 618.099, 978.287 622.636, 978.809 626.098, 981.184 628.898, 985.021 632.348, 989.745 " fill="none" stroke="rgb(0, 0, 0)" stroke-linecap="butt" stroke-linejoin="round" stroke-opacity="1.0" stroke-width="3.0" />
            <path d=" M 571.597, 345.670 570.888, 346.137 566.047, 349.330 563.680, 350.686 562.199, 352.279 560.264, 355.221 559.311, 357.000 557.837, 359.960 557.198, 361.243 556.465, 362.714 555.589, 364.376 555.062, 365.375 " fill="none" stroke="rgb(0, 0, 0)" stroke-linecap="butt" stroke-linejoin="round" stroke-opacity="1.0" stroke-width="3.0" />
            <path d=" M 783.539, 580.074 782.631, 576.833 781.946, 574.821 780.146, 574.241 776.987, 574.922 774.679, 576.552 773.956, 578.216 773.832, 582.706 773.526, 586.775 774.401, 589.487 " fill="none" stroke="rgb(0, 0, 0)" stroke-linecap="butt" stroke-linejoin="round" stroke-opacity="1.0" stroke-width="3.0" />
            <path d=" M 455.467, 647.822 453.619, 651.082 452.549, 654.423 445.955, 660.254 444.215, 666.279 443.806, 667.694 444.845, 670.564 " fill="none" stroke="rgb(0, 0, 0)" stroke-linecap="butt" stroke-linejoin="round" stroke-opacity="1.0" stroke-width="3.0" />
            <path d=" M 416.034, 617.376 413.962, 623.006 410.513, 632.392 407.064, 641.779 406.709, 642.747 " fill="none" stroke="rgb(0, 0, 0)" stroke-linecap="butt" stroke-linejoin="round" stroke-opacity="1.0" stroke-width="3.0" />
            <path d=" M 817.619, 605.740 816.732, 605.276 816.472, 605.140 814.579, 604.149 814.383, 604.289 813.030, 605.264 813.019, 605.272 812.488, 605.654 810.740, 606.690 810.322, 607.549 810.185, 607.832 811.006, 613.662 811.080, 614.189 811.609, 619.899 813.503, 625.194 " fill="none" stroke="rgb(0, 0, 0)" stroke-linecap="butt" stroke-linejoin="round" stroke-opacity="1.0" stroke-width="3.0" />
            <path d=" M 445.042, 959.444 445.193, 959.532 446.614, 960.362 447.736, 961.017 447.740, 961.020 451.338, 963.123 451.529, 963.234 452.958, 964.069 454.577, 965.015 458.080, 967.770 458.389, 968.014 459.004, 968.497 461.047, 970.103 461.284, 970.290 461.785, 970.685 462.733, 970.594 465.115, 970.368 466.002, 968.923 466.095, 968.772 466.203, 968.596 467.004, 967.290 " fill="none" stroke="rgb(0, 0, 0)" stroke-linecap="butt" stroke-linejoin="round" stroke-opacity="1.0" stroke-width="3.0" />
            <path d=" M 830.785, 863.750 830.031, 862.310 825.393, 853.451 825.012, 852.722 822.882, 846.058 821.828, 838.335 " fill="none" stroke="rgb(0, 0, 0)" stroke-linecap="butt" stroke-linejoin="round" stroke-opacity="1.0" stroke-width="3.0" />
            <path d=" M 349.059, 820.973 348.186, 827.326 347.277, 829.995 347.435, 830.662 349.290, 834.889 349.297, 838.979 349.286, 839.450 349.204, 842.796 351.388, 847.106 " fill="none" stroke="rgb(0, 0, 0)" stroke-linecap="butt" stroke-linejoin="round" stroke-opacity="1.0" stroke-width="3.0" />
            <path d=" M 866.697, 719.679 865.841, 709.715 865.813, 709.382 864.515, 701.000 864.292, 699.701 863.910, 697.234 863.120, 692.300 " fill="none" stroke="rgb(0, 0, 0)" stroke-linecap="butt" stroke-linejoin="round" stroke-opacity="1.0" stroke-width="3.0" />
            <path d=" M 477.603, 588.624 477.039, 589.472 472.627, 596.100 471.804, 597.418 470.063, 603.204 468.351, 605.841 467.847, 608.747 467.484, 609.191 466.088, 610.901 466.082, 610.910 466.053, 610.952 465.964, 611.081 465.900, 611.175 465.343, 611.986 464.779, 612.807 " fill="none" stroke="rgb(0, 0, 0)" stroke-linecap="butt" stroke-linejoin="round" stroke-opacity="1.0" stroke-width="3.0" />
            <path d=" M 738.396, 963.031 740.085, 961.623 744.665, 957.844 745.243, 957.302 747.905, 951.144 749.405, 944.312 749.656, 938.122 " fill="none" stroke="rgb(0, 0, 0)" stroke-linecap="butt" stroke-linejoin="round" stroke-opacity="1.0" stroke-width="3.0" />
            <path d=" M 581.454, 607.131 579.966, 606.419 579.902, 606.389 578.780, 605.852 577.931, 605.447 574.714, 604.183 572.677, 603.384 572.508, 603.317 571.134, 602.778 570.903, 602.687 570.731, 602.619 569.965, 602.318 564.950, 600.646 564.736, 600.556 564.578, 600.490 564.193, 600.329 561.774, 599.316 561.722, 599.294 557.334, 597.456 556.559, 597.131 556.365, 597.050 556.079, 596.930 556.051, 596.918 554.704, 596.354 " fill="none" stroke="rgb(0, 0, 0)" stroke-linecap="butt" stroke-linejoin="round" stroke-opacity="1.0" stroke-width="3.0" />
            <path d=" M 730.948, 856.508 728.505, 854.476 728.252, 854.265 728.059, 854.105 727.030, 853.249 725.326, 851.832 717.196, 846.009 714.162, 843.836 713.828, 843.597 712.330, 842.766 712.317, 842.759 712.245, 842.720 707.154, 839.897 " fill="none" stroke="rgb(0, 0, 0)" stroke-linecap="butt" stroke-linejoin="round" stroke-opacity="1.0" stroke-width="3.0" />
            <path d=" M 593.364, 995.703 597.069, 994.580 601.590, 990.990 603.695, 988.170 606.919, 981.474 611.024, 977.822 611.349, 977.532 613.729, 976.553 " fill="none" stroke="rgb(0, 0, 0)" stroke-linecap="butt" stroke-linejoin="round" stroke-opacity="1.0" stroke-width="3.0" />
            <path d=" M 568.919, 998.905 578.881, 999.779 579.312, 999.817 588.113, 998.792 589.837, 997.778 593.364, 995.703 596.732, 993.721 " fill="none" stroke="rgb(0, 0, 0)" stroke-linecap="butt" stroke-linejoin="round" stroke-opacity="1.0" stroke-width="3.0" />
            <path d=" M 699.844, 934.521 704.030, 934.923 712.695, 935.650 716.485, 934.269 719.690, 931.104 721.534, 928.145 721.152, 923.763 " fill="none" stroke="rgb(0, 0, 0)" stroke-linecap="butt" stroke-linejoin="round" stroke-opacity="1.0" stroke-width="3.0" />
            <path d=" M 734.995, 861.456 735.717, 860.899 738.963, 858.395 741.365, 854.308 743.495, 850.419 743.579, 850.267 743.763, 848.278 743.894, 841.091 740.567, 836.796 740.337, 836.499 " fill="none" stroke="rgb(0, 0, 0)" stroke-linecap="butt" stroke-linejoin="round" stroke-opacity="1.0" stroke-width="3.0" />
            <path d=" M 600.337, 921.239 605.128, 919.599 605.412, 919.501 607.292, 918.858 616.799, 915.758 617.579, 915.504 620.382, 913.829 622.106, 912.069 625.429, 908.051 625.474, 907.997 625.627, 907.812 " fill="none" stroke="rgb(0, 0, 0)" stroke-linecap="butt" stroke-linejoin="round" stroke-opacity="1.0" stroke-width="3.0" />
            <path d=" M 840.933, 894.538 842.250, 887.811 842.648, 885.779 841.036, 879.505 840.352, 876.925 840.306, 876.754 840.093, 875.951 839.727, 874.568 839.117, 873.446 839.014, 873.254 838.467, 872.247 837.510, 870.484 835.307, 866.423 " fill="none" stroke="rgb(0, 0, 0)" stroke-linecap="butt" stroke-linejoin="round" stroke-opacity="1.0" stroke-width="3.0" />
            <path d=" M 340.173, 799.452 338.936, 804.075 338.052, 808.348 338.890, 818.313 338.937, 818.872 338.428, 825.718 338.490, 829.184 " fill="none" stroke="rgb(0, 0, 0)" stroke-linecap="butt" stroke-linejoin="round" stroke-opacity="1.0" stroke-width="3.0" />
            <path d=" M 648.238, 620.443 647.832, 613.113 647.780, 610.728 650.024, 600.983 650.766, 597.758 653.146, 594.611 654.089, 593.364 654.752, 593.484 655.647, 593.646 " fill="none" stroke="rgb(0, 0, 0)" stroke-linecap="butt" stroke-linejoin="round" stroke-opacity="1.0" stroke-width="3.0" />
            <path d=" M 651.691, 918.938 651.821, 918.988 652.738, 919.346 653.403, 919.606 654.661, 920.097 662.918, 923.320 663.959, 923.663 665.199, 924.071 670.724, 925.718 679.657, 930.212 679.855, 930.312 " fill="none" stroke="rgb(0, 0, 0)" stroke-linecap="butt" stroke-linejoin="round" stroke-opacity="1.0" stroke-width="3.0" />
            <path d=" M 671.340, 435.373 671.108, 434.669 669.302, 430.941 668.630, 427.806 668.542, 426.177 668.363, 422.826 667.235, 419.226 667.110, 419.043 665.672, 416.939 666.373, 412.952 664.198, 406.525 " fill="none" stroke="rgb(0, 0, 0)" stroke-linecap="butt" stroke-linejoin="round" stroke-opacity="1.0" stroke-width="3.0" />
            <path d=" M 493.399, 564.064 490.026, 569.162 489.194, 570.420 486.163, 575.192 479.640, 582.771 478.818, 583.726 477.819, 586.552 477.039, 589.472 " fill="none" stroke="rgb(0, 0, 0)" stroke-linecap="butt" stroke-linejoin="round" stroke-opacity="1.0" stroke-width="3.0" />
            <path d=" M 667.110, 419.043 670.833, 419.612 676.500, 421.488 677.711, 420.452 678.311, 419.812 677.011, 415.111 672.935, 409.130 668.431, 405.998 667.537, 405.586 " fill="none" stroke="rgb(0, 0, 0)" stroke-linecap="butt" stroke-linejoin="round" stroke-opacity="1.0" stroke-width="3.0" />
            <path d=" M 694.783, 910.378 694.674, 910.183 694.176, 909.296 693.362, 907.844 692.378, 906.898 690.349, 904.949 688.296, 900.228 688.092, 898.254 687.509, 892.605 685.750, 885.218 686.217, 881.556 " fill="none" stroke="rgb(0, 0, 0)" stroke-linecap="butt" stroke-linejoin="round" stroke-opacity="1.0" stroke-width="3.0" />
            <path d=" M 477.812, 666.979 477.810, 665.735 479.841, 655.943 479.963, 655.356 480.375, 651.437 481.378, 641.487 481.934, 635.974 " fill="none" stroke="rgb(0, 0, 0)" stroke-linecap="butt" stroke-linejoin="round" stroke-opacity="1.0" stroke-width="3.0" />
            <path d=" M 812.711, 696.580 810.793, 696.484 809.258, 696.408 806.544, 697.217 803.830, 696.272 802.605, 695.845 798.063, 696.888 796.198, 698.168 795.668, 700.743 797.034, 706.116 798.534, 711.839 " fill="none" stroke="rgb(0, 0, 0)" stroke-linecap="butt" stroke-linejoin="round" stroke-opacity="1.0" stroke-width="3.0" />
            <path d=" M 757.182, 785.252 756.054, 789.789 755.449, 794.860 753.182, 804.600 752.947, 805.611 749.252, 812.560 747.429, 814.802 " fill="none" stroke="rgb(0, 0, 0)" stroke-linecap="butt" stroke-linejoin="round" stroke-opacity="1.0" stroke-width="3.0" />
            <path d=" M 736.681, 688.914 736.435, 688.794 736.180, 688.669 735.910, 688.537 730.475, 685.880 727.357, 684.905 725.815, 684.578 724.191, 684.427 721.915, 687.004 721.925, 688.215 723.541, 693.160 723.737, 698.509 723.827, 701.574 " fill="none" stroke="rgb(0, 0, 0)" stroke-linecap="butt" stroke-linejoin="round" stroke-opacity="1.0" stroke-width="3.0" />
            <path d=" M 828.658, 632.344 827.390, 628.460 827.661, 626.286 827.836, 624.315 827.882, 623.791 827.673, 622.057 827.078, 617.122 825.021, 613.025 819.300, 607.286 818.051, 606.033 817.826, 605.807 816.718, 605.261 816.472, 605.140 " fill="none" stroke="rgb(0, 0, 0)" stroke-linecap="butt" stroke-linejoin="round" stroke-opacity="1.0" stroke-width="3.0" />
            <path d=" M 735.044, 820.490 735.557, 817.729 732.518, 808.202 731.295, 804.367 730.110, 799.589 721.912, 793.863 721.816, 793.797 " fill="none" stroke="rgb(0, 0, 0)" stroke-linecap="butt" stroke-linejoin="round" stroke-opacity="1.0" stroke-width="3.0" />
            <path d=" M 777.503, 592.457 777.323, 592.285 777.087, 592.059 775.629, 590.663 774.401, 589.487 773.617, 588.736 772.425, 587.797 767.199, 584.855 762.958, 583.962 759.593, 582.321 757.621, 581.987 752.722, 580.161 751.230, 579.697 749.064, 579.982 " fill="none" stroke="rgb(0, 0, 0)" stroke-linecap="butt" stroke-linejoin="round" stroke-opacity="1.0" stroke-width="3.0" />
            <path d=" M 680.755, 448.845 679.093, 445.830 677.963, 444.685 677.038, 443.461 673.340, 438.570 671.340, 435.373 671.290, 435.292 671.185, 435.124 669.300, 432.109 668.470, 430.489 668.174, 429.909 665.800, 425.272 665.243, 423.939 664.255, 421.579 " fill="none" stroke="rgb(0, 0, 0)" stroke-linecap="butt" stroke-linejoin="round" stroke-opacity="1.0" stroke-width="3.0" />
            <path d=" M 720.000, 973.770 721.000, 973.514 727.585, 970.472 730.257, 968.098 734.650, 964.993 738.396, 963.031 741.573, 959.086 744.862, 954.679 " fill="none" stroke="rgb(0, 0, 0)" stroke-linecap="butt" stroke-linejoin="round" stroke-opacity="1.0" stroke-width="3.0" />
            <path d=" M 829.084, 714.200 829.109, 713.184 829.118, 712.841 829.119, 712.808 829.166, 710.876 829.218, 708.784 828.030, 702.352 825.890, 698.976 825.272, 698.470 824.857, 698.130 824.140, 697.543 821.881, 697.401 821.867, 697.400 817.674, 695.354 817.633, 695.345 817.545, 695.325 816.826, 695.166 814.225, 695.835 814.059, 695.877 813.909, 695.905 810.793, 696.484 " fill="none" stroke="rgb(0, 0, 0)" stroke-linecap="butt" stroke-linejoin="round" stroke-opacity="1.0" stroke-width="3.0" />
            <path d=" M 678.248, 468.289 677.894, 468.214 677.491, 468.129 677.401, 468.110 672.931, 467.166 672.477, 467.045 671.866, 466.881 663.238, 464.569 653.609, 461.870 651.894, 461.389 647.105, 459.639 " fill="none" stroke="rgb(0, 0, 0)" stroke-linecap="butt" stroke-linejoin="round" stroke-opacity="1.0" stroke-width="3.0" />
            <path d=" M 860.129, 867.713 860.249, 866.989 860.668, 865.014 860.956, 860.057 862.063, 853.747 862.704, 848.719 862.938, 847.076 864.350, 837.176 864.649, 835.084 " fill="none" stroke="rgb(0, 0, 0)" stroke-linecap="butt" stroke-linejoin="round" stroke-opacity="1.0" stroke-width="3.0" />
            <path d=" M 751.091, 928.990 750.629, 925.528 750.481, 917.416 749.844, 909.237 750.507, 901.461 751.291, 897.474 751.586, 895.975 " fill="none" stroke="rgb(0, 0, 0)" stroke-linecap="butt" stroke-linejoin="round" stroke-opacity="1.0" stroke-width="3.0" />
            <path d=" M 815.704, 669.154 812.990, 670.144 811.165, 670.810 807.832, 674.587 806.620, 675.484 805.354, 675.876 805.198, 675.925 803.145, 676.561 801.965, 677.340 800.781, 678.436 800.547, 680.482 800.694, 682.370 803.183, 686.377 806.658, 691.874 806.807, 692.109 " fill="none" stroke="rgb(0, 0, 0)" stroke-linecap="butt" stroke-linejoin="round" stroke-opacity="1.0" stroke-width="3.0" />
            <path d=" M 726.507, 902.923 727.427, 901.500 730.306, 892.928 731.412, 884.611 732.550, 876.044 733.336, 870.129 " fill="none" stroke="rgb(0, 0, 0)" stroke-linecap="butt" stroke-linejoin="round" stroke-opacity="1.0" stroke-width="3.0" />
            <path d=" M 677.777, 607.361 678.179, 606.708 680.842, 602.387 683.250, 595.474 683.826, 593.549 684.638, 590.837 686.979, 589.323 689.490, 586.033 689.804, 585.621 692.415, 581.655 692.851, 580.993 694.053, 579.350 695.519, 577.348 " fill="none" stroke="rgb(0, 0, 0)" stroke-linecap="butt" stroke-linejoin="round" stroke-opacity="1.0" stroke-width="3.0" />
            <path d=" M 411.597, 591.313 409.241, 595.049 408.063, 596.773 403.879, 602.894 398.829, 611.525 396.869, 614.875 396.529, 615.456 396.029, 616.311 392.727, 621.515 " fill="none" stroke="rgb(0, 0, 0)" stroke-linecap="butt" stroke-linejoin="round" stroke-opacity="1.0" stroke-width="3.0" />
            <path d=" M 413.898, 930.594 413.708, 931.590 412.735, 936.680 412.525, 937.780 412.250, 939.217 412.248, 939.232 412.248, 939.288 412.289, 943.689 412.307, 945.573 412.316, 946.593 412.322, 947.195 412.333, 948.362 412.333, 948.384 412.323, 948.750 412.322, 948.796 412.320, 948.868 412.320, 948.883 412.315, 949.084 412.266, 950.922 412.217, 952.788 412.201, 953.395 412.056, 958.879 410.499, 964.275 410.347, 966.371 " fill="none" stroke="rgb(0, 0, 0)" stroke-linecap="butt" stroke-linejoin="round" stroke-opacity="1.0" stroke-width="3.0" />
            <path d=" M 852.806, 657.699 850.505, 650.798 848.219, 645.452 846.240, 640.825 844.489, 638.388 841.950, 634.857 837.709, 629.438 836.990, 628.520 835.347, 626.421 " fill="none" stroke="rgb(0, 0, 0)" stroke-linecap="butt" stroke-linejoin="round" stroke-opacity="1.0" stroke-width="3.0" />
            <path d=" M 456.648, 974.900 464.235, 975.922 474.214, 976.571 475.617, 976.662 478.460, 977.261 488.245, 979.321 489.008, 979.481 492.800, 980.082 " fill="none" stroke="rgb(0, 0, 0)" stroke-linecap="butt" stroke-linejoin="round" stroke-opacity="1.0" stroke-width="3.0" />
            <path d=" M 611.816, 331.680 607.075, 330.503 603.625, 329.646 599.360, 329.355 596.618, 329.984 592.754, 328.764 592.413, 328.664 590.406, 328.331 587.556, 329.371 584.309, 332.674 580.405, 336.337 579.177, 337.369 " fill="none" stroke="rgb(0, 0, 0)" stroke-linecap="butt" stroke-linejoin="round" stroke-opacity="1.0" stroke-width="3.0" />
            <path d=" M 718.032, 786.993 723.106, 784.083 723.126, 784.071 723.511, 783.851 723.763, 783.706 725.900, 782.553 727.451, 781.716 728.357, 781.053 728.443, 780.990 728.523, 780.931 728.856, 780.688 730.601, 779.411 734.403, 777.483 737.881, 774.722 741.027, 772.384 741.042, 772.372 744.626, 769.708 749.999, 767.595 " fill="none" stroke="rgb(0, 0, 0)" stroke-linecap="butt" stroke-linejoin="round" stroke-opacity="1.0" stroke-width="3.0" />
            <path d=" M 713.218, 794.834 716.296, 789.944 716.297, 789.942 716.710, 789.286 718.032, 786.993 720.464, 782.770 721.345, 781.242 721.378, 781.184 721.512, 780.953 721.633, 780.742 721.709, 780.610 721.730, 780.574 721.735, 780.565 721.749, 780.539 726.489, 771.733 726.597, 771.532 727.156, 770.513 729.393, 766.434 731.839, 761.974 " fill="none" stroke="rgb(0, 0, 0)" stroke-linecap="butt" stroke-linejoin="round" stroke-opacity="1.0" stroke-width="3.0" />
            <path d=" M 355.671, 818.158 357.333, 822.550 358.075, 824.513 359.644, 827.064 360.695, 828.255 365.224, 833.975 365.300, 834.070 365.921, 834.854 370.159, 838.066 370.602, 838.402 370.991, 838.697 376.440, 843.927 379.579, 846.601 " fill="none" stroke="rgb(0, 0, 0)" stroke-linecap="butt" stroke-linejoin="round" stroke-opacity="1.0" stroke-width="3.0" />
            <path d=" M 805.639, 922.491 806.951, 924.036 808.582, 925.327 811.178, 926.919 816.901, 926.611 822.776, 924.473 823.091, 924.358 823.240, 924.304 823.883, 924.069 826.111, 921.104 826.218, 920.962 827.568, 917.974 830.714, 913.876 833.229, 909.193 " fill="none" stroke="rgb(0, 0, 0)" stroke-linecap="butt" stroke-linejoin="round" stroke-opacity="1.0" stroke-width="3.0" />
            <path d=" M 620.953, 640.786 620.803, 640.266 616.713, 631.355 615.944, 630.238 610.525, 622.364 608.338, 618.823 608.219, 618.630 604.971, 613.372 602.641, 610.426 600.828, 608.758 " fill="none" stroke="rgb(0, 0, 0)" stroke-linecap="butt" stroke-linejoin="round" stroke-opacity="1.0" stroke-width="3.0" />
            <path d=" M 388.349, 923.702 393.890, 928.844 397.242, 933.690 397.478, 934.032 400.757, 938.954 402.352, 941.511 406.550, 945.464 409.627, 948.585 412.201, 953.395 " fill="none" stroke="rgb(0, 0, 0)" stroke-linecap="butt" stroke-linejoin="round" stroke-opacity="1.0" stroke-width="3.0" />
            <path d=" M 744.638, 666.072 744.371, 666.033 738.857, 663.930 734.802, 662.268 733.442, 662.595 729.969, 664.660 729.756, 665.663 730.957, 668.902 733.114, 672.354 736.187, 678.935 737.828, 682.309 739.382, 684.845 " fill="none" stroke="rgb(0, 0, 0)" stroke-linecap="butt" stroke-linejoin="round" stroke-opacity="1.0" stroke-width="3.0" />
            <path d=" M 823.515, 651.364 822.972, 651.066 821.182, 650.083 820.919, 649.939 820.225, 649.558 819.984, 649.426 817.179, 647.886 816.901, 647.779 815.065, 647.073 814.284, 646.773 812.540, 646.103 809.940, 646.497 807.596, 649.470 807.035, 650.654 806.879, 652.787 809.138, 658.728 810.349, 664.566 811.509, 667.123 812.280, 668.697 " fill="none" stroke="rgb(0, 0, 0)" stroke-linecap="butt" stroke-linejoin="round" stroke-opacity="1.0" stroke-width="3.0" />
            <path d=" M 340.296, 809.620 339.543, 816.890 339.656, 820.179 338.929, 825.110 338.490, 829.184 338.648, 837.539 340.180, 845.139 341.619, 848.930 " fill="none" stroke="rgb(0, 0, 0)" stroke-linecap="butt" stroke-linejoin="round" stroke-opacity="1.0" stroke-width="3.0" />
            <path d=" M 627.899, 649.083 627.905, 649.492 627.948, 652.438 629.414, 652.406 631.900, 651.130 633.896, 650.435 635.143, 649.587 636.133, 648.076 637.333, 645.725 638.379, 636.074 637.944, 630.679 638.129, 630.361 638.619, 629.522 638.674, 629.428 639.287, 628.379 637.496, 624.704 635.276, 623.318 " fill="none" stroke="rgb(0, 0, 0)" stroke-linecap="butt" stroke-linejoin="round" stroke-opacity="1.0" stroke-width="3.0" />
            <path d=" M 663.959, 923.663 666.872, 925.617 674.021, 931.288 675.143, 931.619 682.054, 934.563 684.843, 934.520 688.218, 934.988 698.210, 934.587 699.844, 934.521 701.852, 934.441 " fill="none" stroke="rgb(0, 0, 0)" stroke-linecap="butt" stroke-linejoin="round" stroke-opacity="1.0" stroke-width="3.0" />
            <path d=" M 520.906, 415.644 519.634, 418.189 516.656, 424.146 514.341, 427.523 510.537, 431.825 504.022, 439.412 502.850, 440.776 498.698, 444.944 495.541, 447.745 " fill="none" stroke="rgb(0, 0, 0)" stroke-linecap="butt" stroke-linejoin="round" stroke-opacity="1.0" stroke-width="3.0" />
            <path d=" M 744.560, 669.787 743.129, 676.988 741.442, 681.742 739.382, 684.845 736.881, 688.612 736.681, 688.914 736.623, 689.001 736.590, 689.052 734.310, 691.750 728.841, 698.120 727.094, 700.230 726.340, 701.140 725.917, 701.651 724.820, 702.976 724.731, 703.084 723.954, 704.021 723.490, 704.581 " fill="none" stroke="rgb(0, 0, 0)" stroke-linecap="butt" stroke-linejoin="round" stroke-opacity="1.0" stroke-width="3.0" />
            <path d=" M 656.667, 955.615 662.245, 958.424 666.877, 960.691 671.066, 961.679 677.150, 963.259 680.761, 965.583 685.337, 968.643 687.990, 969.085 691.570, 970.408 693.026, 970.722 694.933, 971.133 " fill="none" stroke="rgb(0, 0, 0)" stroke-linecap="butt" stroke-linejoin="round" stroke-opacity="1.0" stroke-width="3.0" />
            <path d=" M 699.672, 392.137 695.269, 387.629 689.119, 382.648 685.818, 380.038 683.450, 377.681 677.628, 373.859 671.388, 371.110 666.813, 369.333 664.832, 368.481 " fill="none" stroke="rgb(0, 0, 0)" stroke-linecap="butt" stroke-linejoin="round" stroke-opacity="1.0" stroke-width="3.0" />
            <path d=" M 722.170, 704.336 721.457, 704.702 718.646, 706.162 715.275, 706.988 707.044, 708.539 698.503, 708.313 689.591, 707.429 680.005, 706.399 " fill="none" stroke="rgb(0, 0, 0)" stroke-linecap="butt" stroke-linejoin="round" stroke-opacity="1.0" stroke-width="3.0" />
            <path d=" M 860.268, 686.180 862.266, 690.216 863.120, 692.300 861.333, 684.932 859.208, 676.021 856.189, 666.488 854.914, 662.462 852.806, 657.699 852.757, 657.588 " fill="none" stroke="rgb(0, 0, 0)" stroke-linecap="butt" stroke-linejoin="round" stroke-opacity="1.0" stroke-width="3.0" />
            <path d=" M 806.520, 558.850 804.839, 559.185 803.546, 559.853 801.750, 560.780 800.857, 563.121 800.444, 565.175 799.878, 565.691 799.031, 566.464 797.409, 566.645 795.036, 566.911 792.679, 567.193 790.538, 568.533 789.556, 569.585 787.970, 571.435 785.089, 573.472 784.268, 575.320 784.598, 577.168 785.137, 579.275 786.391, 581.377 788.446, 583.339 789.213, 585.913 788.426, 586.671 " fill="none" stroke="rgb(0, 0, 0)" stroke-linecap="butt" stroke-linejoin="round" stroke-opacity="1.0" stroke-width="3.0" />
            <path d=" M 683.826, 593.549 686.590, 594.158 688.617, 593.386 693.042, 588.142 697.631, 585.592 702.050, 584.853 704.844, 583.964 707.606, 583.409 709.568, 582.408 710.453, 580.488 710.662, 579.480 711.305, 572.781 711.306, 572.764 713.932, 569.940 " fill="none" stroke="rgb(0, 0, 0)" stroke-linecap="butt" stroke-linejoin="round" stroke-opacity="1.0" stroke-width="3.0" />
            <path d=" M 360.819, 662.842 360.722, 663.742 360.437, 666.397 358.183, 672.099 357.671, 674.404 354.644, 681.667 353.477, 684.826 350.392, 692.498 348.854, 696.783 347.307, 700.619 346.984, 704.361 " fill="none" stroke="rgb(0, 0, 0)" stroke-linecap="butt" stroke-linejoin="round" stroke-opacity="1.0" stroke-width="3.0" />
            <path d=" M 741.027, 772.384 747.581, 770.520 754.195, 768.517 754.552, 768.413 756.816, 767.751 760.813, 766.582 761.179, 766.443 764.825, 765.060 765.852, 763.733 768.528, 757.603 768.206, 754.784 765.130, 746.962 " fill="none" stroke="rgb(0, 0, 0)" stroke-linecap="butt" stroke-linejoin="round" stroke-opacity="1.0" stroke-width="3.0" />
            <path d=" M 868.304, 780.237 868.708, 776.849 869.195, 769.464 868.994, 764.181 868.209, 755.494 868.076, 752.159 868.199, 744.864 867.971, 742.112 867.891, 741.145 867.124, 735.432 " fill="none" stroke="rgb(0, 0, 0)" stroke-linecap="butt" stroke-linejoin="round" stroke-opacity="1.0" stroke-width="3.0" />
            <path d=" M 466.095, 968.772 466.367, 968.836 470.505, 969.805 476.112, 972.312 482.324, 975.308 491.424, 979.454 492.800, 980.082 493.075, 980.207 500.596, 982.668 504.000, 983.782 505.601, 983.945 505.695, 983.955 508.529, 984.243 " fill="none" stroke="rgb(0, 0, 0)" stroke-linecap="butt" stroke-linejoin="round" stroke-opacity="1.0" stroke-width="3.0" />
            <path d=" M 419.380, 984.170 420.092, 983.135 420.560, 982.454 420.744, 982.188 420.776, 982.141 423.636, 977.983 425.381, 976.479 425.520, 976.359 425.821, 976.099 426.026, 975.922 426.740, 975.306 427.088, 975.005 427.112, 974.986 427.154, 974.949 427.156, 974.947 427.406, 974.731 427.658, 974.514 427.686, 974.490 427.698, 974.479 428.030, 974.194 428.096, 974.152 428.124, 974.134 428.150, 974.118 428.646, 973.807 430.814, 972.448 431.283, 972.154 431.784, 971.840 432.062, 971.666 433.188, 970.960 433.474, 970.782 434.278, 970.277 434.739, 969.988 434.806, 969.947 435.481, 969.524 435.492, 969.517 435.618, 969.437 436.294, 969.014 437.330, 968.364 437.939, 967.983 438.091, 967.970 440.767, 967.740 441.780, 967.652 441.893, 967.643 443.622, 967.494 443.923, 967.468 444.830, 967.390 445.363, 967.344 445.753, 967.367 446.141, 967.390 451.813, 967.727 452.955, 967.795 455.713, 967.959 457.099, 967.987 458.389, 968.014 " fill="none" stroke="rgb(0, 0, 0)" stroke-linecap="butt" stroke-linejoin="round" stroke-opacity="1.0" stroke-width="3.0" />
            <path d=" M 369.373, 897.302 373.271, 903.809 373.432, 904.392 373.799, 905.721 374.574, 908.521 374.657, 908.820 374.719, 908.884 381.677, 916.067 381.938, 916.336 382.266, 916.829 383.229, 918.276 384.314, 919.905 385.031, 920.983 387.061, 923.067 389.052, 925.581 393.744, 929.624 396.910, 933.361 397.242, 933.690 " fill="none" stroke="rgb(0, 0, 0)" stroke-linecap="butt" stroke-linejoin="round" stroke-opacity="1.0" stroke-width="3.0" />
            <path d=" M 743.495, 850.419 743.908, 850.815 747.228, 852.471 749.103, 853.214 754.737, 854.216 762.092, 853.781 762.685, 853.683 762.705, 853.680 762.868, 853.653 765.113, 853.283 771.963, 849.141 772.879, 848.844 777.307, 848.989 783.358, 848.632 785.714, 848.493 786.135, 848.469 786.218, 848.464 786.436, 848.451 788.546, 848.327 " fill="none" stroke="rgb(0, 0, 0)" stroke-linecap="butt" stroke-linejoin="round" stroke-opacity="1.0" stroke-width="3.0" />
            <path d=" M 665.890, 393.213 668.193, 386.230 668.835, 383.402 668.672, 377.662 666.686, 371.332 664.832, 368.481 664.693, 368.269 662.601, 364.672 657.004, 361.631 650.651, 360.285 647.299, 359.834 646.156, 359.608 " fill="none" stroke="rgb(0, 0, 0)" stroke-linecap="butt" stroke-linejoin="round" stroke-opacity="1.0" stroke-width="3.0" />
            <path d=" M 506.097, 458.733 504.981, 460.120 504.542, 460.665 501.849, 464.011 495.992, 472.116 495.359, 472.992 490.298, 481.616 490.234, 481.725 487.933, 485.715 486.299, 488.799 485.059, 492.351 483.940, 495.558 481.622, 500.275 " fill="none" stroke="rgb(0, 0, 0)" stroke-linecap="butt" stroke-linejoin="round" stroke-opacity="1.0" stroke-width="3.0" />
            <path d=" M 416.806, 998.288 417.266, 996.807 417.377, 996.450 418.181, 993.860 420.851, 990.976 423.102, 988.546 423.677, 987.924 424.746, 986.793 426.829, 984.588 431.985, 980.143 438.820, 977.106 445.034, 975.774 446.122, 975.541 452.966, 974.204 453.403, 974.118 455.603, 973.689 " fill="none" stroke="rgb(0, 0, 0)" stroke-linecap="butt" stroke-linejoin="round" stroke-opacity="1.0" stroke-width="3.0" />
            <path d=" M 755.852, 613.079 754.405, 610.655 753.671, 609.426 748.003, 601.187 746.324, 598.748 740.486, 590.630 736.820, 585.533 731.215, 577.251 728.236, 572.849 " fill="none" stroke="rgb(0, 0, 0)" stroke-linecap="butt" stroke-linejoin="round" stroke-opacity="1.0" stroke-width="3.0" />
            <path d=" M 461.536, 956.197 466.770, 957.413 467.853, 957.665 468.374, 957.800 473.978, 959.250 474.417, 959.363 475.387, 959.682 476.892, 960.176 481.583, 961.717 482.778, 962.109 484.070, 962.512 484.235, 962.563 484.385, 962.610 487.702, 963.643 494.782, 962.944 497.617, 963.064 499.917, 963.162 501.689, 962.877 501.716, 962.873 501.720, 962.872 501.824, 962.855 501.892, 962.844 501.913, 962.841 502.909, 962.681 503.241, 962.628 509.132, 961.682 509.299, 961.655 " fill="none" stroke="rgb(0, 0, 0)" stroke-linecap="butt" stroke-linejoin="round" stroke-opacity="1.0" stroke-width="3.0" />
            <path d=" M 716.574, 479.129 715.852, 478.146 714.079, 476.467 709.905, 473.704 705.564, 471.784 704.592, 471.344 702.107, 470.685 701.782, 470.589 699.927, 470.042 698.899, 469.911 697.543, 469.739 697.521, 469.752 696.235, 470.437 696.048, 470.536 695.126, 470.285 695.060, 470.267 694.322, 470.065 694.029, 469.985 690.731, 469.085 685.248, 468.784 678.248, 468.289 678.187, 468.284 677.071, 468.674 676.797, 468.769 676.767, 468.780 675.477, 469.230 672.842, 470.398 671.626, 470.937 671.158, 471.144 " fill="none" stroke="rgb(0, 0, 0)" stroke-linecap="butt" stroke-linejoin="round" stroke-opacity="1.0" stroke-width="3.0" />
            <path d=" M 833.164, 689.402 833.237, 687.146 833.241, 687.018 833.247, 686.855 833.260, 686.439 833.336, 684.116 832.743, 682.653 831.110, 678.626 830.549, 677.372 826.915, 674.030 826.708, 673.919 826.305, 673.702 826.028, 673.553 825.800, 673.430 825.341, 673.183 824.870, 672.929 824.656, 672.814 824.080, 672.449 822.236, 671.283 822.151, 671.229 819.127, 669.316 818.180, 668.717 818.005, 668.606 816.370, 668.824 812.280, 668.697 811.704, 668.679 806.080, 668.107 803.397, 669.565 804.126, 673.382 805.198, 675.925 " fill="none" stroke="rgb(0, 0, 0)" stroke-linecap="butt" stroke-linejoin="round" stroke-opacity="1.0" stroke-width="3.0" />
            <path d=" M 857.901, 899.767 858.282, 898.629 858.285, 898.620 858.335, 898.470 858.489, 898.012 858.507, 897.959 858.788, 897.121 858.882, 896.837 859.506, 894.977 859.245, 894.231 858.817, 893.007 858.260, 891.414 857.162, 888.278 857.789, 884.037 858.474, 878.259 858.164, 875.197 858.113, 874.698 858.339, 873.186 859.463, 865.650 860.247, 861.763 860.614, 851.770 860.682, 849.935 " fill="none" stroke="rgb(0, 0, 0)" stroke-linecap="butt" stroke-linejoin="round" stroke-opacity="1.0" stroke-width="3.0" />
            <path d=" M 832.415, 651.429 831.498, 649.030 831.245, 645.585 830.436, 640.122 830.418, 640.002 830.437, 636.381 829.034, 633.135 826.950, 631.507 823.823, 629.821 821.616, 628.494 818.539, 626.606 818.268, 626.472 817.474, 626.081 817.269, 625.980 816.793, 625.807 815.725, 625.417 814.845, 625.163 814.114, 624.951 813.503, 625.194 811.079, 626.157 810.627, 626.486 809.788, 629.215 809.786, 629.224 809.764, 629.293 809.847, 629.468 809.856, 629.488 811.909, 633.848 813.606, 637.453 " fill="none" stroke="rgb(0, 0, 0)" stroke-linecap="butt" stroke-linejoin="round" stroke-opacity="1.0" stroke-width="3.0" />
            <path d=" M 497.742, 446.233 495.541, 447.745 494.080, 448.748 490.384, 451.407 485.971, 455.015 480.622, 460.094 474.465, 465.779 468.978, 471.954 463.744, 478.126 459.774, 482.236 " fill="none" stroke="rgb(0, 0, 0)" stroke-linecap="butt" stroke-linejoin="round" stroke-opacity="1.0" stroke-width="3.0" />
            <path d=" M 653.556, 592.038 654.879, 593.055 655.109, 593.233 655.647, 593.646 656.573, 594.358 657.905, 596.956 658.980, 599.024 659.850, 602.551 660.397, 605.631 659.877, 610.555 662.865, 614.879 664.192, 618.884 666.314, 620.017 668.623, 620.566 672.103, 618.875 675.349, 614.506 678.179, 606.708 " fill="none" stroke="rgb(0, 0, 0)" stroke-linecap="butt" stroke-linejoin="round" stroke-opacity="1.0" stroke-width="3.0" />
            <path d=" M 649.711, 677.895 648.270, 676.180 641.666, 668.891 638.177, 665.040 638.105, 664.961 637.528, 664.323 637.242, 664.022 630.355, 656.771 629.838, 656.227 627.461, 652.083 625.760, 649.116 625.498, 648.660 625.481, 648.632 624.058, 646.167 620.953, 640.786 620.943, 640.769 620.923, 640.734 618.083, 635.814 " fill="none" stroke="rgb(0, 0, 0)" stroke-linecap="butt" stroke-linejoin="round" stroke-opacity="1.0" stroke-width="3.0" />
            <path d=" M 435.000, 760.145 431.133, 762.472 428.022, 766.843 427.160, 773.434 422.956, 780.183 422.956, 780.183 422.799, 780.434 422.712, 780.574 422.707, 780.582 419.823, 785.213 416.967, 788.040 415.929, 794.117 416.359, 798.509 416.526, 800.219 416.539, 800.420 416.953, 807.009 " fill="none" stroke="rgb(0, 0, 0)" stroke-linecap="butt" stroke-linejoin="round" stroke-opacity="1.0" stroke-width="3.0" />
            <path d=" M 529.641, 516.219 527.447, 518.758 527.428, 518.780 521.279, 525.897 519.099, 528.549 516.344, 533.489 510.648, 539.944 505.569, 548.112 504.239, 549.955 503.212, 551.379 502.161, 552.835 497.837, 559.769 " fill="none" stroke="rgb(0, 0, 0)" stroke-linecap="butt" stroke-linejoin="round" stroke-opacity="1.0" stroke-width="3.0" />
            <path d=" M 656.928, 976.753 657.807, 966.792 657.951, 965.162 656.906, 956.458 656.667, 955.615 654.016, 946.266 652.522, 941.387 649.951, 932.309 648.442, 931.401 642.374, 928.046 " fill="none" stroke="rgb(0, 0, 0)" stroke-linecap="butt" stroke-linejoin="round" stroke-opacity="1.0" stroke-width="3.0" />
            <path d=" M 640.510, 356.607 648.736, 357.638 654.308, 358.727 657.534, 359.443 658.469, 359.544 661.173, 358.699 661.720, 357.293 658.094, 351.117 653.790, 346.102 650.366, 343.892 645.543, 342.792 645.368, 342.652 644.880, 342.262 644.827, 342.220 643.005, 340.765 639.241, 339.751 638.668, 339.597 637.314, 339.232 " fill="none" stroke="rgb(0, 0, 0)" stroke-linecap="butt" stroke-linejoin="round" stroke-opacity="1.0" stroke-width="3.0" />
            <path d=" M 575.042, 932.553 577.843, 931.616 580.692, 930.481 583.027, 929.551 586.373, 927.837 586.532, 927.756 587.872, 927.070 588.853, 926.343 592.152, 923.895 599.904, 919.316 600.322, 919.105 604.690, 916.896 605.420, 916.526 605.795, 916.337 606.567, 915.946 606.798, 915.801 612.923, 911.937 614.216, 911.407 618.038, 908.843 622.745, 905.684 " fill="none" stroke="rgb(0, 0, 0)" stroke-linecap="butt" stroke-linejoin="round" stroke-opacity="1.0" stroke-width="3.0" />
            <path d=" M 551.005, 374.829 550.953, 375.082 550.952, 375.088 550.937, 375.164 549.734, 381.052 548.740, 385.675 546.966, 392.125 546.420, 394.111 544.647, 399.844 542.602, 406.519 539.514, 413.946 538.114, 416.304 535.302, 421.017 532.148, 425.819 532.052, 425.961 " fill="none" stroke="rgb(0, 0, 0)" stroke-linecap="butt" stroke-linejoin="round" stroke-opacity="1.0" stroke-width="3.0" />
            <path d=" M 459.868, 482.456 459.764, 482.550 455.991, 485.972 454.111, 488.049 449.350, 493.313 443.983, 501.751 440.012, 507.993 434.418, 516.283 431.689, 520.327 430.260, 521.946 426.237, 526.500 " fill="none" stroke="rgb(0, 0, 0)" stroke-linecap="butt" stroke-linejoin="round" stroke-opacity="1.0" stroke-width="3.0" />
            <path d=" M 465.630, 610.590 465.616, 610.627 464.779, 612.807 464.664, 613.034 461.904, 618.492 456.290, 625.032 453.682, 629.968 451.190, 636.325 445.933, 638.630 439.783, 644.247 432.764, 651.369 431.271, 652.884 " fill="none" stroke="rgb(0, 0, 0)" stroke-linecap="butt" stroke-linejoin="round" stroke-opacity="1.0" stroke-width="3.0" />
            <path d=" M 665.717, 394.969 666.965, 394.915 667.062, 394.911 668.247, 395.097 675.370, 396.213 679.794, 396.820 683.192, 397.695 687.567, 399.004 691.220, 400.329 695.511, 402.119 698.663, 403.409 701.879, 403.868 704.831, 402.606 706.370, 399.564 705.346, 397.280 699.672, 392.137 696.960, 389.678 " fill="none" stroke="rgb(0, 0, 0)" stroke-linecap="butt" stroke-linejoin="round" stroke-opacity="1.0" stroke-width="3.0" />
            <path d=" M 844.489, 638.388 842.068, 629.951 840.740, 620.696 838.369, 610.982 837.820, 608.730 836.335, 603.863 835.159, 598.782 834.240, 593.612 832.565, 586.392 831.782, 584.566 830.337, 582.336 " fill="none" stroke="rgb(0, 0, 0)" stroke-linecap="butt" stroke-linejoin="round" stroke-opacity="1.0" stroke-width="3.0" />
            <path d=" M 738.573, 528.985 737.785, 526.204 735.388, 521.918 732.206, 513.110 729.238, 506.167 726.389, 496.581 725.736, 494.382 721.193, 485.474 721.094, 485.279 717.403, 479.891 716.574, 479.129 715.531, 478.169 714.487, 477.572 712.030, 477.112 " fill="none" stroke="rgb(0, 0, 0)" stroke-linecap="butt" stroke-linejoin="round" stroke-opacity="1.0" stroke-width="3.0" />
            <path d=" M 535.856, 423.662 534.972, 424.386 534.792, 424.533 534.492, 424.778 532.597, 426.329 531.090, 427.626 530.702, 427.960 530.631, 428.021 529.823, 428.716 529.499, 428.995 528.396, 429.944 521.556, 436.270 516.783, 440.944 510.839, 448.065 504.688, 455.949 503.028, 458.078 499.978, 463.534 497.354, 469.509 " fill="none" stroke="rgb(0, 0, 0)" stroke-linecap="butt" stroke-linejoin="round" stroke-opacity="1.0" stroke-width="3.0" />
            <path d=" M 509.132, 961.682 509.159, 961.682 511.969, 961.579 516.973, 961.396 517.748, 961.368 526.120, 960.861 536.013, 959.400 537.355, 959.202 541.456, 957.792 541.492, 957.780 542.423, 957.460 542.926, 957.224 548.876, 954.426 554.353, 952.100 555.956, 951.419 559.213, 948.960 560.100, 947.704 564.547, 941.410 " fill="none" stroke="rgb(0, 0, 0)" stroke-linecap="butt" stroke-linejoin="round" stroke-opacity="1.0" stroke-width="3.0" />
            <path d=" M 341.520, 846.635 341.573, 846.727 341.773, 847.078 342.160, 847.755 344.682, 852.172 344.991, 854.879 344.994, 854.905 345.403, 858.487 345.750, 859.440 345.932, 859.938 346.313, 860.983 346.368, 861.134 346.412, 861.254 346.736, 862.448 347.604, 865.652 347.725, 866.097 348.593, 869.295 349.064, 870.025 353.008, 876.140 355.107, 881.217 355.699, 882.649 358.647, 886.510 359.350, 887.432 361.676, 890.478 362.226, 891.198 363.760, 893.208 365.727, 895.748 366.644, 896.810 367.760, 898.103 370.269, 901.008 " fill="none" stroke="rgb(0, 0, 0)" stroke-linecap="butt" stroke-linejoin="round" stroke-opacity="1.0" stroke-width="3.0" />
            <path d=" M 862.938, 847.076 864.375, 841.199 865.656, 831.282 865.743, 830.610 866.200, 826.103 866.448, 823.669 867.030, 822.332 867.289, 821.737 867.778, 815.506 868.517, 805.817 868.433, 797.482 868.173, 795.042 868.162, 794.570 867.917, 784.573 867.907, 784.175 " fill="none" stroke="rgb(0, 0, 0)" stroke-linecap="butt" stroke-linejoin="round" stroke-opacity="1.0" stroke-width="3.0" />
            <path d=" M 618.038, 908.843 622.937, 905.845 624.339, 905.383 629.216, 903.393 629.370, 903.330 630.015, 903.067 632.757, 901.453 636.659, 899.058 637.138, 898.764 637.954, 898.263 638.710, 897.799 639.433, 897.355 645.160, 894.565 647.738, 893.309 647.767, 893.295 647.781, 893.288 648.317, 893.027 648.398, 892.987 648.463, 892.956 648.596, 892.890 649.590, 892.403 650.138, 892.134 655.027, 889.738 657.670, 889.353 664.752, 887.154 666.915, 885.732 674.989, 882.522 675.537, 882.304 " fill="none" stroke="rgb(0, 0, 0)" stroke-linecap="butt" stroke-linejoin="round" stroke-opacity="1.0" stroke-width="3.0" />
            <path d=" M 628.898, 985.021 632.619, 994.303 633.224, 995.812 634.591, 997.553 640.658, 1002.004 643.147, 1001.144 644.986, 1000.297 648.678, 995.514 653.815, 986.934 653.955, 986.700 654.476, 985.341 656.928, 976.753 657.175, 973.617 657.506, 965.744 " fill="none" stroke="rgb(0, 0, 0)" stroke-linecap="butt" stroke-linejoin="round" stroke-opacity="1.0" stroke-width="3.0" />
            <path d=" M 397.908, 879.473 398.061, 880.721 399.092, 889.168 400.584, 898.206 401.832, 906.682 402.803, 909.736 406.355, 913.757 409.937, 917.860 413.566, 922.680 414.251, 925.538 414.443, 926.342 415.357, 930.923 415.380, 931.022 416.456, 935.578 416.799, 936.900 417.342, 938.991 " fill="none" stroke="rgb(0, 0, 0)" stroke-linecap="butt" stroke-linejoin="round" stroke-opacity="1.0" stroke-width="3.0" />
            <path d=" M 830.712, 583.617 830.337, 582.336 830.129, 581.624 830.147, 573.451 828.787, 565.508 827.233, 559.476 824.924, 552.491 820.666, 543.489 816.817, 539.192 815.533, 538.605 813.176, 537.939 811.305, 538.812 810.442, 543.404 810.819, 545.615 811.184, 551.122 811.247, 552.072 " fill="none" stroke="rgb(0, 0, 0)" stroke-linecap="butt" stroke-linejoin="round" stroke-opacity="1.0" stroke-width="3.0" />
            <path d=" M 697.521, 469.752 697.007, 468.564 696.149, 467.274 691.711, 460.599 686.233, 453.996 684.309, 452.187 681.375, 449.428 680.755, 448.845 680.278, 448.397 679.696, 448.039 678.995, 447.607 678.943, 447.575 678.640, 447.389 677.921, 446.946 676.668, 446.175 676.622, 446.152 671.683, 443.584 671.547, 443.514 668.689, 441.875 668.666, 441.862 665.085, 439.929 664.490, 439.608 663.916, 439.299 662.190, 437.997 659.784, 436.182 654.782, 431.499 647.497, 424.649 647.375, 424.535 " fill="none" stroke="rgb(0, 0, 0)" stroke-linecap="butt" stroke-linejoin="round" stroke-opacity="1.0" stroke-width="3.0" />
            <path d=" M 581.432, 516.037 581.765, 515.826 582.436, 515.400 584.864, 513.858 585.845, 512.004 585.596, 507.054 585.552, 506.897 585.441, 506.506 584.150, 501.955 582.676, 499.363 582.075, 498.306 580.584, 496.499 580.528, 496.432 578.934, 494.500 576.701, 491.794 576.076, 491.185 572.694, 487.893 567.720, 483.563 563.142, 479.424 555.249, 474.474 547.809, 471.888 547.680, 471.843 547.477, 471.773 545.926, 471.240 545.763, 471.184 544.040, 470.591 " fill="none" stroke="rgb(0, 0, 0)" stroke-linecap="butt" stroke-linejoin="round" stroke-opacity="1.0" stroke-width="3.0" />
            <path d=" M 804.029, 748.359 803.719, 747.577 803.538, 747.125 803.295, 746.513 803.233, 746.356 803.078, 745.968 802.956, 745.660 802.946, 745.634 802.925, 745.581 802.645, 744.878 802.357, 744.156 802.265, 743.923 798.953, 735.596 798.339, 732.394 798.100, 731.222 797.742, 729.464 796.340, 722.587 796.317, 722.495 795.454, 719.168 792.983, 711.509 789.670, 704.346 787.272, 700.307 785.129, 696.704 782.912, 693.830 780.795, 691.322 776.676, 685.677 776.351, 685.334 " fill="none" stroke="rgb(0, 0, 0)" stroke-linecap="butt" stroke-linejoin="round" stroke-opacity="1.0" stroke-width="3.0" />
            <path d=" M 554.303, 999.277 564.301, 999.075 565.468, 999.051 568.919, 998.905 559.144, 1001.013 558.825, 1001.082 553.840, 1003.227 550.666, 1007.233 547.613, 1009.288 539.639, 1009.442 531.534, 1003.585 530.651, 1002.947 523.387, 996.073 522.114, 994.869 " fill="none" stroke="rgb(0, 0, 0)" stroke-linecap="butt" stroke-linejoin="round" stroke-opacity="1.0" stroke-width="3.0" />
            <path d=" M 653.911, 682.893 654.815, 679.180 655.667, 677.766 657.450, 671.835 657.997, 666.630 656.746, 661.287 654.520, 654.295 653.983, 652.609 653.244, 649.671 651.442, 642.505 650.523, 639.229 650.369, 638.679 649.990, 637.330 649.951, 637.082 649.052, 631.393 649.794, 626.896 648.238, 620.443 646.670, 613.945 " fill="none" stroke="rgb(0, 0, 0)" stroke-linecap="butt" stroke-linejoin="round" stroke-opacity="1.0" stroke-width="3.0" />
            <path d=" M 416.799, 936.900 416.848, 939.296 416.357, 942.322 416.356, 942.328 416.256, 942.945 416.353, 944.091 416.376, 944.363 416.615, 947.203 415.738, 950.506 415.620, 950.952 415.205, 952.516 414.868, 953.783 414.716, 954.183 414.458, 954.857 414.413, 954.976 414.047, 955.936 413.879, 956.376 413.849, 956.454 413.844, 956.466 413.844, 956.466 413.803, 956.575 412.828, 959.130 412.528, 959.915 411.961, 961.447 411.681, 962.205 410.647, 964.999 410.347, 966.371 409.582, 969.879 407.926, 974.414 407.444, 976.287 406.466, 980.860 404.643, 985.143 402.832, 988.512 399.225, 995.095 399.410, 997.208 399.990, 1000.414 401.580, 1002.861 403.773, 1003.022 404.395, 1002.888 404.618, 1002.841 404.940, 1002.772 406.260, 1002.488 " fill="none" stroke="rgb(0, 0, 0)" stroke-linecap="butt" stroke-linejoin="round" stroke-opacity="1.0" stroke-width="3.0" />
            <path d=" M 693.423, 735.225 692.862, 734.340 688.565, 727.556 688.490, 727.445 688.124, 726.905 688.114, 726.890 685.842, 723.535 685.029, 722.335 684.377, 721.372 679.570, 714.600 678.497, 713.054 677.102, 711.045 676.781, 710.583 672.913, 705.013 671.869, 703.907 668.549, 700.391 668.522, 700.363 668.461, 700.298 665.144, 696.784 665.061, 696.696 664.990, 696.621 663.880, 695.393 663.123, 694.557 656.417, 687.139 656.232, 686.935 655.606, 685.872 655.568, 685.807 654.167, 683.428 654.049, 683.228 653.894, 682.963 653.715, 682.660 653.314, 681.979 653.198, 681.781 653.188, 681.764 652.667, 680.881 649.888, 677.982 649.711, 677.895 643.724, 674.959 643.614, 674.906 641.256, 673.749 641.145, 673.695 640.116, 673.190 " fill="none" stroke="rgb(0, 0, 0)" stroke-linecap="butt" stroke-linejoin="round" stroke-opacity="1.0" stroke-width="3.0" />
            <path d=" M 695.821, 506.262 695.561, 506.347 694.251, 506.776 692.514, 508.586 688.420, 511.785 687.408, 513.032 687.203, 513.285 687.047, 513.477 686.997, 513.539 683.233, 518.174 675.721, 524.775 675.490, 524.978 674.116, 526.186 673.261, 526.820 673.150, 526.902 671.515, 528.113 669.574, 529.552 666.327, 533.277 667.207, 534.865 670.765, 537.957 675.822, 539.434 680.460, 541.155 681.203, 541.975 689.156, 544.847 692.652, 547.073 693.109, 547.395 697.841, 550.730 698.148, 551.327 699.749, 553.506 700.975, 554.569 701.031, 554.618 701.502, 555.027 701.989, 555.448 702.380, 555.788 702.468, 555.864 702.776, 556.132 " fill="none" stroke="rgb(0, 0, 0)" stroke-linecap="butt" stroke-linejoin="round" stroke-opacity="1.0" stroke-width="3.0" />
            <path d=" M 604.971, 613.372 600.828, 608.758 596.834, 604.310 592.852, 599.845 586.393, 592.210 585.645, 591.326 583.749, 589.086 583.472, 588.758 583.379, 588.649 582.298, 587.266 581.195, 585.856 579.441, 583.614 577.698, 581.484 576.694, 580.429 576.274, 579.987 575.715, 579.400 575.298, 578.961 575.195, 578.852 575.188, 578.846 575.186, 578.844 575.067, 578.718 574.996, 578.643 574.718, 578.351 574.540, 578.164 574.505, 578.127 574.459, 578.079 574.403, 578.019 574.229, 577.837 574.099, 577.700 573.903, 577.494 573.365, 576.929 570.420, 573.831 570.341, 573.723 569.592, 572.701 565.950, 567.725 563.617, 564.537 563.387, 563.997 560.035, 556.139 559.682, 552.938 559.470, 545.492 559.434, 544.215 " fill="none" stroke="rgb(0, 0, 0)" stroke-linecap="butt" stroke-linejoin="round" stroke-opacity="1.0" stroke-width="3.0" />
            <path d=" M 346.551, 721.242 346.237, 721.717 343.300, 726.164 342.302, 727.902 341.401, 731.554 339.077, 737.028 337.238, 744.820 336.202, 751.104 333.257, 759.959 333.286, 763.917 334.343, 769.971 332.581, 779.118 333.208, 782.947 336.201, 789.007 338.142, 796.152 340.022, 799.170 340.173, 799.452 340.216, 799.531 340.267, 799.627 342.229, 803.297 " fill="none" stroke="rgb(0, 0, 0)" stroke-linecap="butt" stroke-linejoin="round" stroke-opacity="1.0" stroke-width="3.0" />
            <path d=" M 820.774, 833.060 822.691, 825.883 823.412, 823.185 824.215, 819.859 824.967, 809.887 824.983, 809.677 825.689, 804.843 825.115, 794.859 825.101, 794.609 823.468, 790.210 817.566, 785.430 812.170, 785.319 811.478, 785.351 808.208, 786.528 805.705, 787.474 797.815, 792.690 795.103, 793.283 788.002, 795.403 783.097, 799.218 780.452, 801.275 779.979, 801.643 " fill="none" stroke="rgb(0, 0, 0)" stroke-linecap="butt" stroke-linejoin="round" stroke-opacity="1.0" stroke-width="3.0" />
            <path d=" M 708.169, 869.733 708.763, 867.557 708.787, 867.470 708.822, 867.341 708.975, 866.783 709.007, 866.665 709.613, 864.447 709.634, 864.369 709.636, 864.361 709.832, 863.641 709.855, 863.557 709.871, 863.500 709.932, 863.278 709.951, 863.071 709.972, 862.855 710.039, 862.147 709.320, 859.942 709.250, 859.727 708.233, 856.611 707.616, 854.130 707.465, 853.523 707.388, 853.213 706.388, 849.195 706.914, 842.689 707.154, 839.897 707.570, 835.036 705.925, 825.172 705.906, 825.054 707.015, 815.368 707.974, 810.547 708.268, 809.067 708.824, 806.270 709.010, 805.334 709.032, 805.225 709.224, 804.257 709.279, 803.981 709.294, 803.906 709.999, 802.276 713.218, 794.834 714.558, 791.734 715.472, 789.643 716.228, 787.912 716.234, 787.898 716.338, 787.660 716.928, 786.309 717.004, 786.135 718.640, 781.109 718.680, 780.985 718.811, 780.582 718.819, 780.558 718.884, 780.358 718.969, 780.096 719.066, 779.798 719.285, 779.125 " fill="none" stroke="rgb(0, 0, 0)" stroke-linecap="butt" stroke-linejoin="round" stroke-opacity="1.0" stroke-width="3.0" />
            <path d=" M 712.871, 567.648 713.986, 569.761 714.027, 569.839 714.457, 570.654 714.701, 571.116 717.856, 577.097 719.940, 582.525 723.838, 591.575 727.861, 599.140 730.140, 608.877 730.325, 609.669 733.538, 616.280 737.353, 625.524 738.763, 628.941 741.373, 638.594 741.704, 639.818 741.735, 639.934 742.142, 641.439 743.235, 645.483 743.353, 645.917 743.527, 648.020 743.654, 649.554 743.727, 650.436 744.552, 660.402 744.716, 662.390 " fill="none" stroke="rgb(0, 0, 0)" stroke-linecap="butt" stroke-linejoin="round" stroke-opacity="1.0" stroke-width="3.0" />
            <path d=" M 500.596, 982.668 501.454, 983.939 503.107, 986.143 503.531, 986.708 506.730, 990.973 508.709, 993.612 515.132, 999.572 522.931, 1005.831 528.896, 1010.617 537.721, 1015.320 539.521, 1016.279 549.062, 1019.273 550.784, 1019.813 556.850, 1022.305 563.085, 1023.997 564.780, 1023.708 567.539, 1021.888 570.834, 1018.683 575.175, 1014.701 578.466, 1013.246 581.115, 1009.772 584.032, 1007.168 586.081, 1004.871 589.768, 997.893 589.837, 997.778 " fill="none" stroke="rgb(0, 0, 0)" stroke-linecap="butt" stroke-linejoin="round" stroke-opacity="1.0" stroke-width="3.0" />
            <path d=" M 774.984, 672.858 775.836, 669.715 775.910, 667.099 776.504, 664.849 777.233, 662.074 776.821, 658.901 776.583, 648.904 776.557, 647.803 774.480, 638.021 773.572, 633.745 773.209, 632.902 772.892, 632.164 772.854, 632.075 772.537, 631.339 770.614, 626.866 768.245, 621.801 766.222, 616.678 763.347, 612.089 759.211, 604.543 758.916, 603.815 757.478, 600.261 755.247, 596.502 751.190, 587.362 750.752, 586.376 750.101, 582.247 749.064, 579.982 748.765, 579.327 746.670, 575.925 744.708, 569.020 743.980, 566.630 742.401, 561.802 742.273, 561.574 742.139, 561.337 741.617, 560.409 740.221, 557.930 " fill="none" stroke="rgb(0, 0, 0)" stroke-linecap="butt" stroke-linejoin="round" stroke-opacity="1.0" stroke-width="3.0" />
            <path d=" M 430.260, 521.946 426.056, 525.686 418.203, 531.325 412.066, 536.108 405.883, 541.194 399.395, 546.791 395.681, 549.908 388.934, 556.957 386.027, 559.690 379.677, 567.415 379.119, 568.094 376.350, 572.001 372.774, 579.549 371.322, 584.429 370.201, 589.001 368.624, 598.224 368.573, 604.660 368.676, 611.159 369.423, 617.212 369.755, 619.773 370.560, 621.743 " fill="none" stroke="rgb(0, 0, 0)" stroke-linecap="butt" stroke-linejoin="round" stroke-opacity="1.0" stroke-width="3.0" />
            <path d=" M 764.394, 747.562 764.796, 746.370 764.843, 746.231 765.231, 745.084 766.364, 741.729 766.372, 737.252 765.786, 728.307 765.808, 728.084 766.317, 722.724 767.234, 719.215 767.276, 719.052 767.742, 716.962 768.748, 712.443 768.756, 712.407 770.548, 708.510 771.004, 703.932 774.070, 697.094 775.974, 687.277 776.351, 685.334 776.921, 682.395 774.984, 672.858 774.939, 672.636 773.493, 665.755 772.957, 661.574 771.981, 653.966 771.861, 653.035 771.235, 650.304 769.696, 643.596 768.836, 640.749 768.820, 640.705 765.274, 631.355 763.493, 626.659 762.699, 625.265 758.540, 617.960 755.415, 612.482 753.671, 609.426 " fill="none" stroke="rgb(0, 0, 0)" stroke-linecap="butt" stroke-linejoin="round" stroke-opacity="1.0" stroke-width="3.0" />
        </g>
    </g>
</svg>
