<?xml version='1.0' encoding='ascii'?>
<svg xmlns="http://www.w3.org/2000/svg" height="1280" version="1.1" width="1280">
    <g id="RenderLayer_LineSet" inkscape:groupmode="lineset" inkscape:label="RenderLayer_LineSet" xmlns:inkscape="http://www.inkscape.org/namespaces/inkscape">
        <g id="strokes" inkscape:groupmode="layer" inkscape:label="strokes" xmlns:inkscape="http://www.inkscape.org/namespaces/inkscape">
            <path d=" M 860.915, 865.519 861.093, 865.781 862.374, 867.667 863.308, 869.041 863.662, 870.465 864.988, 875.805 865.832, 877.514 867.344, 878.635 871.426, 881.664 " fill="none" stroke="rgb(0, 0, 0)" stroke-linecap="butt" stroke-linejoin="round" stroke-opacity="1.0" stroke-width="3.0" />
            <path d=" M 380.602, 813.408 386.029, 815.968 389.657, 817.671 391.119, 818.358 383.116, 815.365 " fill="none" stroke="rgb(0, 0, 0)" stroke-linecap="butt" stroke-linejoin="round" stroke-opacity="1.0" stroke-width="3.0" />
            <path d=" M 793.674, 884.517 792.622, 888.691 791.853, 891.207 791.807, 891.359 791.120, 893.606 791.119, 893.610 790.763, 894.774 790.725, 894.896 792.381, 892.000 792.525, 891.748 793.399, 890.220 793.438, 890.152 795.406, 886.709 " fill="none" stroke="rgb(0, 0, 0)" stroke-linecap="butt" stroke-linejoin="round" stroke-opacity="1.0" stroke-width="3.0" />
            <path d=" M 342.418, 612.141 340.014, 619.189 338.393, 623.939 338.390, 623.947 337.965, 627.740 338.393, 628.765 338.463, 628.935 338.497, 629.014 339.472, 631.354 339.631, 631.734 " fill="none" stroke="rgb(0, 0, 0)" stroke-linecap="butt" stroke-linejoin="round" stroke-opacity="1.0" stroke-width="3.0" />
            <path d=" M 330.005, 653.852 329.989, 663.827 330.222, 666.529 330.298, 667.407 330.354, 668.049 330.753, 672.668 331.492, 674.547 " fill="none" stroke="rgb(0, 0, 0)" stroke-linecap="butt" stroke-linejoin="round" stroke-opacity="1.0" stroke-width="3.0" />
            <path d=" M 851.969, 849.987 852.395, 851.536 852.765, 855.728 852.780, 855.819 853.516, 860.280 854.554, 862.445 857.099, 864.034 860.805, 865.476 860.915, 865.519 861.247, 865.649 861.476, 865.738 861.481, 865.740 861.583, 865.779 861.685, 865.819 861.868, 865.890 " fill="none" stroke="rgb(0, 0, 0)" stroke-linecap="butt" stroke-linejoin="round" stroke-opacity="1.0" stroke-width="3.0" />
            <path d=" M 552.037, 880.859 561.798, 883.033 563.436, 883.398 569.265, 885.334 569.472, 885.403 569.576, 885.461 572.053, 886.842 " fill="none" stroke="rgb(0, 0, 0)" stroke-linecap="butt" stroke-linejoin="round" stroke-opacity="1.0" stroke-width="3.0" />
            <path d=" M 785.999, 775.645 784.645, 776.025 782.913, 776.510 782.533, 776.379 782.173, 776.255 780.533, 775.690 774.483, 772.169 773.487, 771.686 769.022, 770.720 767.525, 771.799 767.472, 771.837 767.675, 772.525 " fill="none" stroke="rgb(0, 0, 0)" stroke-linecap="butt" stroke-linejoin="round" stroke-opacity="1.0" stroke-width="3.0" />
            <path d=" M 630.845, 924.411 632.209, 924.365 639.536, 922.757 643.426, 921.622 649.963, 921.004 651.576, 920.851 " fill="none" stroke="rgb(0, 0, 0)" stroke-linecap="butt" stroke-linejoin="round" stroke-opacity="1.0" stroke-width="3.0" />
            <path d=" M 826.944, 714.021 826.703, 713.489 822.572, 704.382 822.313, 703.811 819.853, 694.204 " fill="none" stroke="rgb(0, 0, 0)" stroke-linecap="butt" stroke-linejoin="round" stroke-opacity="1.0" stroke-width="3.0" />
            <path d=" M 840.329, 729.229 838.471, 726.742 833.235, 723.215 831.502, 720.635 826.703, 713.489 " fill="none" stroke="rgb(0, 0, 0)" stroke-linecap="butt" stroke-linejoin="round" stroke-opacity="1.0" stroke-width="3.0" />
            <path d=" M 873.449, 785.533 869.177, 778.781 862.658, 771.197 860.604, 768.808 " fill="none" stroke="rgb(0, 0, 0)" stroke-linecap="butt" stroke-linejoin="round" stroke-opacity="1.0" stroke-width="3.0" />
            <path d=" M 868.159, 769.604 867.796, 769.124 861.290, 763.798 854.248, 756.576 852.409, 754.988 " fill="none" stroke="rgb(0, 0, 0)" stroke-linecap="butt" stroke-linejoin="round" stroke-opacity="1.0" stroke-width="3.0" />
            <path d=" M 631.703, 802.636 625.108, 799.864 619.364, 797.942 617.643, 796.837 614.362, 795.561 611.459, 794.955 " fill="none" stroke="rgb(0, 0, 0)" stroke-linecap="butt" stroke-linejoin="round" stroke-opacity="1.0" stroke-width="3.0" />
            <path d=" M 329.989, 663.827 330.084, 667.865 330.120, 669.411 330.309, 677.403 330.320, 677.861 330.350, 679.164 331.378, 681.879 331.887, 683.225 332.150, 683.918 332.349, 684.444 332.655, 685.253 " fill="none" stroke="rgb(0, 0, 0)" stroke-linecap="butt" stroke-linejoin="round" stroke-opacity="1.0" stroke-width="3.0" />
            <path d=" M 763.222, 808.337 760.999, 808.129 759.007, 807.943 758.310, 807.877 757.865, 807.836 757.819, 807.838 756.611, 807.904 757.808, 807.828 758.579, 807.779 760.589, 807.653 760.881, 807.634 759.729, 807.362 758.968, 806.403 755.320, 801.810 752.863, 800.288 " fill="none" stroke="rgb(0, 0, 0)" stroke-linecap="butt" stroke-linejoin="round" stroke-opacity="1.0" stroke-width="3.0" />
            <path d=" M 812.867, 773.024 813.464, 775.268 813.486, 775.348 813.761, 776.381 815.059, 781.263 815.695, 782.965 818.991, 786.456 821.074, 786.894 822.248, 787.140 822.376, 787.167 822.562, 787.206 823.076, 787.314 825.840, 787.895 " fill="none" stroke="rgb(0, 0, 0)" stroke-linecap="butt" stroke-linejoin="round" stroke-opacity="1.0" stroke-width="3.0" />
            <path d=" M 347.751, 584.558 351.921, 586.469 357.516, 591.824 358.659, 595.988 358.353, 598.268 357.927, 601.441 " fill="none" stroke="rgb(0, 0, 0)" stroke-linecap="butt" stroke-linejoin="round" stroke-opacity="1.0" stroke-width="3.0" />
            <path d=" M 541.091, 758.045 541.513, 757.700 549.246, 751.360 551.067, 749.867 554.634, 745.966 558.075, 743.968 " fill="none" stroke="rgb(0, 0, 0)" stroke-linecap="butt" stroke-linejoin="round" stroke-opacity="1.0" stroke-width="3.0" />
            <path d=" M 517.850, 429.513 516.356, 429.737 510.448, 430.620 508.188, 431.405 504.817, 432.121 500.655, 434.520 499.222, 434.923 496.881, 436.146 " fill="none" stroke="rgb(0, 0, 0)" stroke-linecap="butt" stroke-linejoin="round" stroke-opacity="1.0" stroke-width="3.0" />
            <path d=" M 492.504, 616.098 499.419, 613.614 508.554, 611.401 508.943, 611.306 508.948, 611.305 509.815, 611.095 513.020, 610.318 513.037, 610.314 513.921, 610.100 " fill="none" stroke="rgb(0, 0, 0)" stroke-linecap="butt" stroke-linejoin="round" stroke-opacity="1.0" stroke-width="3.0" />
            <path d=" M 882.134, 840.058 882.659, 839.281 882.577, 836.339 882.454, 831.950 882.684, 829.968 882.690, 829.917 883.462, 823.250 883.896, 819.199 883.914, 819.039 883.935, 818.836 884.044, 817.820 " fill="none" stroke="rgb(0, 0, 0)" stroke-linecap="butt" stroke-linejoin="round" stroke-opacity="1.0" stroke-width="3.0" />
            <path d=" M 861.263, 765.845 862.494, 766.613 862.605, 766.682 862.669, 766.722 863.463, 767.218 863.888, 767.483 865.438, 768.450 865.600, 768.551 865.729, 768.653 867.706, 770.214 868.912, 771.167 867.303, 769.751 866.876, 769.376 864.553, 767.619 859.078, 763.478 858.519, 763.056 " fill="none" stroke="rgb(0, 0, 0)" stroke-linecap="butt" stroke-linejoin="round" stroke-opacity="1.0" stroke-width="3.0" />
            <path d=" M 682.385, 805.028 680.234, 804.831 679.968, 804.807 678.874, 804.707 678.270, 804.652 675.919, 805.451 674.693, 810.014 675.432, 815.993 678.035, 820.515 " fill="none" stroke="rgb(0, 0, 0)" stroke-linecap="butt" stroke-linejoin="round" stroke-opacity="1.0" stroke-width="3.0" />
            <path d=" M 361.621, 732.406 365.180, 736.506 370.316, 741.692 370.811, 742.193 372.357, 743.754 374.356, 745.265 378.532, 747.470 " fill="none" stroke="rgb(0, 0, 0)" stroke-linecap="butt" stroke-linejoin="round" stroke-opacity="1.0" stroke-width="3.0" />
            <path d=" M 689.276, 504.914 689.360, 505.880 689.451, 506.928 689.493, 507.407 690.079, 514.120 692.468, 523.363 693.023, 525.507 693.264, 526.439 693.617, 527.353 " fill="none" stroke="rgb(0, 0, 0)" stroke-linecap="butt" stroke-linejoin="round" stroke-opacity="1.0" stroke-width="3.0" />
            <path d=" M 867.344, 878.635 868.122, 880.007 869.897, 881.994 875.083, 883.823 882.193, 881.513 883.322, 881.187 885.304, 878.854 885.741, 877.286 " fill="none" stroke="rgb(0, 0, 0)" stroke-linecap="butt" stroke-linejoin="round" stroke-opacity="1.0" stroke-width="3.0" />
            <path d=" M 409.202, 800.186 408.896, 800.740 408.807, 800.901 408.762, 800.983 407.825, 802.677 407.493, 803.277 407.404, 803.546 407.048, 804.616 407.046, 804.622 406.788, 805.399 406.595, 805.979 406.555, 806.102 406.552, 806.108 405.928, 807.987 405.899, 808.076 405.249, 810.030 404.984, 810.367 404.963, 810.392 403.928, 811.704 403.233, 812.584 403.160, 812.677 403.159, 812.678 403.146, 812.695 403.076, 812.784 402.736, 813.215 402.269, 813.806 402.199, 813.895 402.126, 813.987 402.061, 814.070 400.200, 816.427 399.598, 819.466 399.544, 819.741 399.315, 820.892 " fill="none" stroke="rgb(0, 0, 0)" stroke-linecap="butt" stroke-linejoin="round" stroke-opacity="1.0" stroke-width="3.0" />
            <path d=" M 778.542, 723.758 780.518, 726.042 781.687, 728.362 781.914, 728.812 782.521, 729.608 783.773, 731.248 783.784, 731.262 783.847, 731.345 784.298, 731.984 786.378, 734.933 788.423, 738.680 789.248, 740.191 790.135, 741.998 790.287, 742.307 790.289, 742.310 790.630, 743.006 790.839, 743.432 790.864, 743.481 " fill="none" stroke="rgb(0, 0, 0)" stroke-linecap="butt" stroke-linejoin="round" stroke-opacity="1.0" stroke-width="3.0" />
            <path d=" M 465.217, 621.659 474.754, 618.654 477.426, 617.812 487.205, 615.722 487.763, 615.603 " fill="none" stroke="rgb(0, 0, 0)" stroke-linecap="butt" stroke-linejoin="round" stroke-opacity="1.0" stroke-width="3.0" />
            <path d=" M 652.284, 512.816 652.157, 512.628 652.135, 512.595 651.876, 512.213 649.784, 507.611 647.175, 501.876 647.126, 501.768 647.033, 501.563 646.971, 501.426 646.411, 500.905 643.689, 498.373 643.457, 498.283 637.567, 496.002 " fill="none" stroke="rgb(0, 0, 0)" stroke-linecap="butt" stroke-linejoin="round" stroke-opacity="1.0" stroke-width="3.0" />
            <path d=" M 355.610, 567.650 354.484, 566.948 352.349, 565.617 351.693, 565.557 347.503, 568.428 346.093, 569.946 345.861, 570.196 345.845, 570.213 345.431, 570.659 344.782, 571.358 344.607, 571.546 343.209, 573.051 342.758, 573.537 342.341, 574.365 342.160, 574.723 341.992, 575.057 341.988, 575.064 341.070, 576.885 340.660, 577.699 339.536, 579.929 " fill="none" stroke="rgb(0, 0, 0)" stroke-linecap="butt" stroke-linejoin="round" stroke-opacity="1.0" stroke-width="3.0" />
            <path d=" M 650.994, 571.990 650.532, 572.178 649.370, 572.650 642.652, 575.382 640.102, 576.455 633.978, 578.144 629.584, 580.361 629.400, 580.454 628.838, 580.737 " fill="none" stroke="rgb(0, 0, 0)" stroke-linecap="butt" stroke-linejoin="round" stroke-opacity="1.0" stroke-width="3.0" />
            <path d=" M 697.210, 803.545 696.411, 802.613 692.113, 797.598 690.266, 797.380 688.605, 798.470 687.229, 801.064 687.046, 801.444 686.023, 803.572 684.022, 804.717 682.385, 805.028 682.008, 805.100 679.672, 805.543 " fill="none" stroke="rgb(0, 0, 0)" stroke-linecap="butt" stroke-linejoin="round" stroke-opacity="1.0" stroke-width="3.0" />
            <path d=" M 704.832, 942.188 710.111, 947.042 713.841, 951.951 716.487, 952.791 721.402, 953.503 724.522, 953.761 " fill="none" stroke="rgb(0, 0, 0)" stroke-linecap="butt" stroke-linejoin="round" stroke-opacity="1.0" stroke-width="3.0" />
            <path d=" M 571.842, 456.925 570.567, 456.240 568.912, 455.351 567.832, 454.891 566.497, 454.323 561.652, 452.260 557.628, 451.173 555.244, 450.529 552.318, 450.077 549.943, 449.711 549.133, 449.586 549.078, 449.577 548.989, 449.564 548.892, 449.549 548.867, 449.545 " fill="none" stroke="rgb(0, 0, 0)" stroke-linecap="butt" stroke-linejoin="round" stroke-opacity="1.0" stroke-width="3.0" />
            <path d=" M 670.628, 701.254 672.663, 702.527 679.448, 704.042 684.545, 703.594 689.578, 700.812 691.585, 699.321 693.119, 698.735 " fill="none" stroke="rgb(0, 0, 0)" stroke-linecap="butt" stroke-linejoin="round" stroke-opacity="1.0" stroke-width="3.0" />
            <path d=" M 647.671, 488.188 641.425, 487.633 636.318, 486.952 626.360, 485.654 623.235, 484.524 " fill="none" stroke="rgb(0, 0, 0)" stroke-linecap="butt" stroke-linejoin="round" stroke-opacity="1.0" stroke-width="3.0" />
            <path d=" M 852.244, 802.855 851.965, 799.968 851.891, 799.193 850.726, 789.261 850.569, 787.917 851.471, 778.143 " fill="none" stroke="rgb(0, 0, 0)" stroke-linecap="butt" stroke-linejoin="round" stroke-opacity="1.0" stroke-width="3.0" />
            <path d=" M 643.457, 498.283 643.125, 497.655 639.538, 495.770 639.388, 495.691 632.178, 491.901 626.430, 487.072 624.306, 485.287 623.235, 484.524 623.047, 484.390 " fill="none" stroke="rgb(0, 0, 0)" stroke-linecap="butt" stroke-linejoin="round" stroke-opacity="1.0" stroke-width="3.0" />
            <path d=" M 792.910, 749.979 793.762, 751.180 793.979, 751.486 794.406, 752.089 798.240, 755.652 800.229, 757.710 800.233, 757.714 800.423, 757.911 803.671, 761.271 803.878, 761.484 805.169, 762.820 808.623, 766.980 809.380, 768.044 809.851, 768.569 " fill="none" stroke="rgb(0, 0, 0)" stroke-linecap="butt" stroke-linejoin="round" stroke-opacity="1.0" stroke-width="3.0" />
            <path d=" M 872.337, 774.303 869.495, 770.740 868.159, 769.604 864.655, 766.622 861.527, 764.405 855.485, 758.521 854.450, 757.514 853.997, 757.073 " fill="none" stroke="rgb(0, 0, 0)" stroke-linecap="butt" stroke-linejoin="round" stroke-opacity="1.0" stroke-width="3.0" />
            <path d=" M 741.043, 799.806 740.306, 799.022 739.720, 798.399 739.256, 797.905 736.906, 795.404 736.313, 794.861 735.667, 794.270 735.269, 793.906 734.990, 793.650 733.021, 793.540 732.895, 793.562 731.900, 793.737 730.142, 795.002 730.155, 799.108 729.795, 802.783 728.012, 804.012 726.861, 804.805 " fill="none" stroke="rgb(0, 0, 0)" stroke-linecap="butt" stroke-linejoin="round" stroke-opacity="1.0" stroke-width="3.0" />
            <path d=" M 389.836, 503.216 388.831, 504.052 385.626, 507.578 382.650, 514.027 377.707, 522.721 376.632, 524.612 " fill="none" stroke="rgb(0, 0, 0)" stroke-linecap="butt" stroke-linejoin="round" stroke-opacity="1.0" stroke-width="3.0" />
            <path d=" M 863.805, 768.428 862.270, 766.868 861.409, 765.992 861.393, 765.977 861.263, 765.845 860.836, 765.411 860.489, 765.058 860.299, 764.865 859.868, 764.426 859.112, 763.658 858.952, 763.495 858.519, 763.056 857.793, 762.317 857.751, 762.274 857.544, 762.064 856.944, 761.490 855.661, 760.261 855.313, 759.928 854.579, 759.226 852.336, 757.078 855.157, 760.076 857.811, 763.147 858.199, 763.597 858.511, 763.957 " fill="none" stroke="rgb(0, 0, 0)" stroke-linecap="butt" stroke-linejoin="round" stroke-opacity="1.0" stroke-width="3.0" />
            <path d=" M 457.691, 452.545 457.197, 452.782 455.903, 453.400 455.418, 453.632 455.274, 453.701 454.968, 453.930 451.696, 456.375 450.083, 457.581 449.748, 457.831 446.032, 460.290 443.037, 463.095 440.355, 467.695 440.018, 468.995 439.869, 469.570 " fill="none" stroke="rgb(0, 0, 0)" stroke-linecap="butt" stroke-linejoin="round" stroke-opacity="1.0" stroke-width="3.0" />
            <path d=" M 551.962, 601.252 554.725, 601.442 556.641, 601.573 559.977, 601.802 567.778, 602.145 570.133, 602.181 571.061, 602.001 572.272, 601.767 572.648, 601.694 573.982, 601.436 576.436, 600.961 576.580, 600.933 577.111, 600.830 577.148, 600.823 577.487, 600.758 " fill="none" stroke="rgb(0, 0, 0)" stroke-linecap="butt" stroke-linejoin="round" stroke-opacity="1.0" stroke-width="3.0" />
            <path d=" M 618.752, 584.753 608.755, 584.522 607.873, 584.502 597.904, 583.726 592.758, 583.325 " fill="none" stroke="rgb(0, 0, 0)" stroke-linecap="butt" stroke-linejoin="round" stroke-opacity="1.0" stroke-width="3.0" />
            <path d=" M 530.496, 454.899 525.383, 455.183 525.153, 455.196 525.011, 455.204 525.007, 455.204 524.816, 455.215 522.506, 455.344 522.403, 455.349 521.479, 455.401 520.464, 455.609 510.668, 457.621 504.785, 458.830 " fill="none" stroke="rgb(0, 0, 0)" stroke-linecap="butt" stroke-linejoin="round" stroke-opacity="1.0" stroke-width="3.0" />
            <path d=" M 801.356, 753.328 804.900, 759.230 804.972, 759.349 804.983, 759.368 805.265, 759.838 805.588, 760.376 806.567, 762.006 807.254, 763.379 807.267, 763.406 809.851, 768.569 813.761, 776.381 " fill="none" stroke="rgb(0, 0, 0)" stroke-linecap="butt" stroke-linejoin="round" stroke-opacity="1.0" stroke-width="3.0" />
            <path d=" M 525.180, 778.843 526.297, 778.270 526.304, 778.266 526.779, 778.022 530.878, 775.918 532.094, 775.294 534.045, 774.089 535.423, 770.941 535.549, 770.653 536.059, 769.489 536.101, 769.393 536.284, 768.974 536.651, 768.137 537.149, 766.650 537.153, 766.640 538.247, 763.375 539.484, 759.686 539.732, 758.946 " fill="none" stroke="rgb(0, 0, 0)" stroke-linecap="butt" stroke-linejoin="round" stroke-opacity="1.0" stroke-width="3.0" />
            <path d=" M 708.002, 822.263 707.800, 822.102 706.346, 820.941 705.572, 820.324 703.347, 818.549 702.251, 816.389 702.232, 815.772 702.196, 814.641 702.193, 814.539 702.193, 814.520 701.977, 807.639 701.928, 806.082 700.539, 803.756 699.589, 802.454 698.646, 801.938 696.411, 802.613 " fill="none" stroke="rgb(0, 0, 0)" stroke-linecap="butt" stroke-linejoin="round" stroke-opacity="1.0" stroke-width="3.0" />
            <path d=" M 336.905, 622.479 336.877, 622.517 336.064, 623.618 336.060, 623.623 335.349, 624.585 335.112, 624.905 334.658, 625.520 334.495, 625.739 333.928, 627.446 333.897, 627.539 333.495, 628.749 333.312, 629.299 333.296, 629.660 333.196, 631.971 333.024, 635.941 332.137, 641.364 331.515, 647.823 " fill="none" stroke="rgb(0, 0, 0)" stroke-linecap="butt" stroke-linejoin="round" stroke-opacity="1.0" stroke-width="3.0" />
            <path d=" M 538.371, 446.488 531.683, 446.140 530.678, 446.088 530.395, 446.073 529.730, 446.038 529.617, 446.032 529.562, 446.029 529.477, 446.031 528.548, 446.053 528.536, 446.053 528.402, 446.057 527.485, 446.078 527.137, 446.086 527.133, 446.086 526.860, 446.093 526.747, 446.095 526.677, 446.104 526.190, 446.165 524.062, 446.433 520.065, 446.936 512.626, 448.670 512.396, 448.724 512.145, 448.781 " fill="none" stroke="rgb(0, 0, 0)" stroke-linecap="butt" stroke-linejoin="round" stroke-opacity="1.0" stroke-width="3.0" />
            <path d=" M 743.881, 705.259 747.285, 706.338 753.933, 707.064 760.022, 706.048 762.624, 705.499 762.979, 705.255 763.197, 705.106 763.286, 705.044 768.941, 701.164 " fill="none" stroke="rgb(0, 0, 0)" stroke-linecap="butt" stroke-linejoin="round" stroke-opacity="1.0" stroke-width="3.0" />
            <path d=" M 573.056, 590.776 569.936, 590.151 564.439, 589.051 563.309, 588.824 560.873, 588.337 552.107, 590.891 546.817, 591.166 " fill="none" stroke="rgb(0, 0, 0)" stroke-linecap="butt" stroke-linejoin="round" stroke-opacity="1.0" stroke-width="3.0" />
            <path d=" M 844.835, 835.796 845.715, 837.633 848.218, 842.859 849.187, 845.803 849.512, 846.790 851.969, 849.987 852.511, 850.692 854.241, 852.754 854.397, 852.939 854.601, 853.182 854.655, 853.224 855.517, 853.891 857.947, 855.329 860.613, 856.226 " fill="none" stroke="rgb(0, 0, 0)" stroke-linecap="butt" stroke-linejoin="round" stroke-opacity="1.0" stroke-width="3.0" />
            <path d=" M 555.733, 591.787 548.314, 593.516 538.353, 594.395 536.555, 594.553 534.335, 594.650 528.679, 594.895 " fill="none" stroke="rgb(0, 0, 0)" stroke-linecap="butt" stroke-linejoin="round" stroke-opacity="1.0" stroke-width="3.0" />
            <path d=" M 592.043, 588.514 589.875, 588.683 589.391, 588.721 587.101, 588.900 586.744, 588.927 585.157, 589.051 585.126, 589.054 584.815, 589.039 584.741, 589.036 584.089, 589.005 583.003, 588.953 577.774, 588.707 569.802, 588.270 569.290, 588.242 565.240, 588.820 564.439, 589.051 " fill="none" stroke="rgb(0, 0, 0)" stroke-linecap="butt" stroke-linejoin="round" stroke-opacity="1.0" stroke-width="3.0" />
            <path d=" M 777.854, 734.956 777.798, 734.963 774.708, 736.783 774.652, 737.734 774.876, 740.449 776.431, 743.403 785.313, 747.998 785.819, 748.260 790.761, 748.690 792.376, 749.215 " fill="none" stroke="rgb(0, 0, 0)" stroke-linecap="butt" stroke-linejoin="round" stroke-opacity="1.0" stroke-width="3.0" />
            <path d=" M 496.926, 457.809 490.681, 458.583 481.106, 461.469 480.324, 461.705 470.472, 463.418 469.678, 463.557 " fill="none" stroke="rgb(0, 0, 0)" stroke-linecap="butt" stroke-linejoin="round" stroke-opacity="1.0" stroke-width="3.0" />
            <path d=" M 848.697, 795.795 848.703, 795.344 848.725, 793.670 848.788, 788.803 849.307, 782.074 849.458, 780.112 849.490, 779.696 850.213, 774.438 850.214, 774.427 850.406, 773.027 850.398, 772.551 850.389, 772.104 850.385, 771.880 850.376, 771.407 850.348, 769.863 850.347, 769.837 850.312, 767.975 850.300, 767.310 " fill="none" stroke="rgb(0, 0, 0)" stroke-linecap="butt" stroke-linejoin="round" stroke-opacity="1.0" stroke-width="3.0" />
            <path d=" M 848.337, 754.854 848.498, 753.442 848.505, 753.384 848.532, 753.144 848.538, 753.097 848.576, 752.757 848.600, 752.549 848.600, 752.547 848.667, 751.964 848.669, 751.949 848.681, 751.838 848.688, 751.782 848.688, 751.778 848.692, 751.747 848.701, 751.670 848.701, 751.631 848.711, 751.089 848.711, 751.087 848.712, 751.049 848.794, 746.634 848.334, 741.525 845.885, 736.410 841.985, 730.201 840.329, 729.229 839.646, 728.828 " fill="none" stroke="rgb(0, 0, 0)" stroke-linecap="butt" stroke-linejoin="round" stroke-opacity="1.0" stroke-width="3.0" />
            <path d=" M 762.835, 812.465 761.713, 812.287 761.667, 812.279 761.506, 812.254 757.734, 811.655 756.924, 811.527 756.901, 811.523 755.954, 811.373 754.553, 811.150 751.685, 811.451 748.580, 808.124 746.965, 805.281 743.840, 801.903 742.316, 800.255 741.338, 799.093 739.720, 798.399 " fill="none" stroke="rgb(0, 0, 0)" stroke-linecap="butt" stroke-linejoin="round" stroke-opacity="1.0" stroke-width="3.0" />
            <path d=" M 584.994, 461.972 583.678, 461.465 574.391, 457.757 574.025, 457.611 572.156, 457.024 571.842, 456.925 569.648, 456.235 569.547, 456.203 566.329, 455.191 566.182, 455.144 560.184, 453.225 558.653, 452.851 557.961, 452.682 557.030, 452.455 " fill="none" stroke="rgb(0, 0, 0)" stroke-linecap="butt" stroke-linejoin="round" stroke-opacity="1.0" stroke-width="3.0" />
            <path d=" M 644.116, 693.604 646.752, 692.967 651.818, 694.244 659.430, 698.603 665.578, 701.522 670.628, 701.254 672.105, 701.176 " fill="none" stroke="rgb(0, 0, 0)" stroke-linecap="butt" stroke-linejoin="round" stroke-opacity="1.0" stroke-width="3.0" />
            <path d=" M 831.502, 720.635 831.272, 719.919 830.914, 718.825 828.686, 712.370 826.143, 705.835 821.682, 696.885 819.704, 692.917 " fill="none" stroke="rgb(0, 0, 0)" stroke-linecap="butt" stroke-linejoin="round" stroke-opacity="1.0" stroke-width="3.0" />
            <path d=" M 815.783, 641.857 815.988, 637.350 814.161, 627.518 813.671, 624.883 811.543, 621.306 809.823, 619.088 804.856, 617.409 803.333, 616.894 " fill="none" stroke="rgb(0, 0, 0)" stroke-linecap="butt" stroke-linejoin="round" stroke-opacity="1.0" stroke-width="3.0" />
            <path d=" M 569.648, 456.235 563.138, 453.359 560.461, 452.730 557.223, 451.969 555.233, 451.501 552.962, 450.803 550.279, 449.979 550.278, 449.979 549.846, 449.846 549.587, 449.766 548.983, 449.581 548.867, 449.545 548.811, 449.528 547.571, 449.147 547.038, 449.137 546.799, 449.133 546.290, 449.123 546.265, 449.123 546.113, 449.120 545.498, 449.109 541.344, 449.033 540.857, 449.025 539.733, 449.004 " fill="none" stroke="rgb(0, 0, 0)" stroke-linecap="butt" stroke-linejoin="round" stroke-opacity="1.0" stroke-width="3.0" />
            <path d=" M 342.670, 715.777 346.387, 720.857 351.784, 728.220 351.941, 728.372 353.090, 729.487 358.284, 734.526 360.038, 736.444 362.846, 739.515 " fill="none" stroke="rgb(0, 0, 0)" stroke-linecap="butt" stroke-linejoin="round" stroke-opacity="1.0" stroke-width="3.0" />
            <path d=" M 730.197, 607.137 733.175, 604.294 736.437, 601.180 736.862, 600.507 739.319, 596.609 739.372, 596.525 740.005, 594.583 740.895, 591.851 743.540, 583.733 745.393, 580.440 " fill="none" stroke="rgb(0, 0, 0)" stroke-linecap="butt" stroke-linejoin="round" stroke-opacity="1.0" stroke-width="3.0" />
            <path d=" M 884.897, 805.467 884.888, 804.800 884.887, 804.780 884.721, 800.628 884.325, 799.636 882.132, 792.563 881.672, 791.392 881.666, 791.376 881.539, 791.052 879.948, 786.998 879.695, 786.353 877.979, 782.824 877.966, 782.805 877.813, 782.581 877.617, 782.293 877.552, 782.198 876.406, 780.521 875.396, 779.043 875.278, 778.870 873.563, 776.359 " fill="none" stroke="rgb(0, 0, 0)" stroke-linecap="butt" stroke-linejoin="round" stroke-opacity="1.0" stroke-width="3.0" />
            <path d=" M 736.393, 819.994 733.180, 812.074 730.737, 809.261 728.467, 806.647 727.307, 805.311 726.897, 804.839 726.890, 804.832 726.861, 804.805 725.870, 803.872 721.808, 800.051 719.999, 801.040 717.729, 805.030 " fill="none" stroke="rgb(0, 0, 0)" stroke-linecap="butt" stroke-linejoin="round" stroke-opacity="1.0" stroke-width="3.0" />
            <path d=" M 508.387, 449.476 507.933, 449.536 499.894, 450.602 493.358, 451.582 491.417, 452.114 486.672, 453.415 485.607, 453.568 482.778, 453.977 477.021, 454.562 " fill="none" stroke="rgb(0, 0, 0)" stroke-linecap="butt" stroke-linejoin="round" stroke-opacity="1.0" stroke-width="3.0" />
            <path d=" M 521.187, 447.699 519.899, 447.643 518.932, 447.601 518.716, 447.591 518.235, 447.571 514.101, 448.419 512.763, 448.667 512.145, 448.781 508.387, 449.476 508.034, 449.541 505.199, 450.066 500.684, 450.800 497.969, 451.787 494.806, 452.937 494.245, 453.141 493.884, 453.209 489.996, 453.946 " fill="none" stroke="rgb(0, 0, 0)" stroke-linecap="butt" stroke-linejoin="round" stroke-opacity="1.0" stroke-width="3.0" />
            <path d=" M 414.536, 487.809 414.489, 487.834 408.128, 490.291 401.130, 493.148 398.282, 495.155 393.867, 498.641 390.784, 501.635 389.836, 503.216 388.354, 505.689 " fill="none" stroke="rgb(0, 0, 0)" stroke-linecap="butt" stroke-linejoin="round" stroke-opacity="1.0" stroke-width="3.0" />
            <path d=" M 852.239, 810.887 851.142, 807.698 850.980, 807.227 850.535, 805.933 850.493, 805.700 850.005, 803.005 850.002, 802.992 849.408, 799.712 849.392, 799.623 849.318, 799.214 849.227, 798.712 849.658, 789.672 849.839, 782.427 850.484, 778.778 " fill="none" stroke="rgb(0, 0, 0)" stroke-linecap="butt" stroke-linejoin="round" stroke-opacity="1.0" stroke-width="3.0" />
            <path d=" M 382.180, 594.639 382.308, 596.337 382.418, 597.802 382.631, 600.640 383.456, 607.031 383.483, 607.320 383.736, 610.040 383.852, 611.292 384.104, 614.001 384.824, 614.864 388.099, 618.390 391.366, 620.012 394.795, 621.854 " fill="none" stroke="rgb(0, 0, 0)" stroke-linecap="butt" stroke-linejoin="round" stroke-opacity="1.0" stroke-width="3.0" />
            <path d=" M 499.887, 859.488 500.313, 861.942 506.082, 869.985 514.679, 874.014 520.046, 875.253 525.917, 876.502 " fill="none" stroke="rgb(0, 0, 0)" stroke-linecap="butt" stroke-linejoin="round" stroke-opacity="1.0" stroke-width="3.0" />
            <path d=" M 438.632, 470.767 430.260, 476.237 426.374, 478.776 422.497, 481.440 419.102, 484.630 414.536, 487.809 411.595, 489.857 411.440, 489.964 410.723, 490.464 410.565, 490.634 " fill="none" stroke="rgb(0, 0, 0)" stroke-linecap="butt" stroke-linejoin="round" stroke-opacity="1.0" stroke-width="3.0" />
            <path d=" M 761.964, 958.120 763.506, 958.034 768.582, 954.497 771.798, 949.625 773.036, 944.670 773.097, 941.495 774.069, 938.784 774.001, 934.345 773.323, 932.420 772.206, 929.242 " fill="none" stroke="rgb(0, 0, 0)" stroke-linecap="butt" stroke-linejoin="round" stroke-opacity="1.0" stroke-width="3.0" />
            <path d=" M 331.326, 587.158 333.066, 589.803 334.588, 591.089 336.194, 592.445 338.445, 594.252 339.225, 594.878 339.950, 595.460 340.430, 596.651 340.662, 597.229 340.721, 597.374 340.783, 597.530 340.903, 597.826 341.074, 598.252 341.248, 598.684 341.696, 599.795 341.495, 600.737 341.479, 600.811 340.148, 607.062 340.033, 607.600 340.000, 607.704 339.957, 607.840 339.923, 607.948 337.042, 617.019 " fill="none" stroke="rgb(0, 0, 0)" stroke-linecap="butt" stroke-linejoin="round" stroke-opacity="1.0" stroke-width="3.0" />
            <path d=" M 351.941, 728.372 354.373, 731.681 359.226, 736.527 362.376, 740.879 362.569, 741.146 362.583, 741.165 367.227, 747.580 368.394, 748.461 370.729, 750.222 370.772, 750.254 374.073, 755.336 " fill="none" stroke="rgb(0, 0, 0)" stroke-linecap="butt" stroke-linejoin="round" stroke-opacity="1.0" stroke-width="3.0" />
            <path d=" M 502.443, 451.357 497.684, 452.459 495.655, 452.929 495.187, 453.038 495.070, 453.065 492.639, 453.628 491.100, 453.984 489.996, 453.946 488.961, 453.910 485.289, 453.783 484.274, 454.129 483.211, 454.491 481.332, 455.398 480.934, 455.591 480.170, 455.960 479.037, 456.507 478.029, 456.572 476.507, 456.671 473.171, 456.824 468.873, 453.205 " fill="none" stroke="rgb(0, 0, 0)" stroke-linecap="butt" stroke-linejoin="round" stroke-opacity="1.0" stroke-width="3.0" />
            <path d=" M 723.476, 823.481 722.732, 820.839 722.258, 815.139 722.215, 814.619 722.211, 814.577 722.190, 814.319 721.939, 813.781 719.727, 809.039 718.745, 806.934 718.731, 806.904 717.972, 805.277 717.912, 805.216 717.729, 805.030 715.982, 803.255 711.209, 800.861 708.921, 802.160 706.208, 805.672 706.024, 807.133 " fill="none" stroke="rgb(0, 0, 0)" stroke-linecap="butt" stroke-linejoin="round" stroke-opacity="1.0" stroke-width="3.0" />
            <path d=" M 675.079, 539.110 671.344, 534.859 669.411, 532.661 666.061, 527.620 665.308, 526.851 665.262, 526.804 664.769, 526.300 664.723, 526.254 664.615, 526.143 664.270, 525.791 661.738, 523.205 659.761, 521.125 659.662, 521.020 659.612, 520.968 652.927, 513.531 652.387, 512.929 652.284, 512.816 652.088, 512.597 652.032, 512.535 651.027, 511.417 " fill="none" stroke="rgb(0, 0, 0)" stroke-linecap="butt" stroke-linejoin="round" stroke-opacity="1.0" stroke-width="3.0" />
            <path d=" M 468.168, 601.147 465.939, 601.343 459.787, 600.543 453.944, 601.040 453.263, 601.118 448.548, 601.661 440.613, 604.499 436.417, 605.670 433.096, 606.948 432.472, 607.189 " fill="none" stroke="rgb(0, 0, 0)" stroke-linecap="butt" stroke-linejoin="round" stroke-opacity="1.0" stroke-width="3.0" />
            <path d=" M 370.729, 750.222 374.185, 756.148 377.285, 758.028 377.888, 758.394 378.583, 758.816 383.828, 761.997 386.610, 763.583 392.013, 766.612 392.205, 766.720 393.220, 767.289 394.200, 767.924 394.775, 768.297 399.950, 771.651 " fill="none" stroke="rgb(0, 0, 0)" stroke-linecap="butt" stroke-linejoin="round" stroke-opacity="1.0" stroke-width="3.0" />
            <path d=" M 521.224, 874.919 525.917, 876.502 527.726, 877.112 530.845, 878.220 535.863, 878.980 545.771, 880.333 546.779, 880.470 552.037, 880.859 557.517, 881.264 " fill="none" stroke="rgb(0, 0, 0)" stroke-linecap="butt" stroke-linejoin="round" stroke-opacity="1.0" stroke-width="3.0" />
            <path d=" M 543.738, 773.178 545.771, 770.210 545.964, 769.927 548.439, 768.415 552.953, 765.658 553.842, 765.378 563.382, 762.379 567.921, 760.952 574.871, 762.156 576.601, 763.797 576.891, 764.073 " fill="none" stroke="rgb(0, 0, 0)" stroke-linecap="butt" stroke-linejoin="round" stroke-opacity="1.0" stroke-width="3.0" />
            <path d=" M 689.577, 597.052 690.624, 592.917 691.121, 588.194 691.187, 587.638 691.266, 586.968 691.291, 586.760 691.346, 586.296 691.356, 586.212 691.405, 585.801 691.499, 585.014 691.584, 584.298 691.632, 583.895 691.638, 583.837 691.657, 583.685 691.667, 583.599 691.701, 583.310 691.709, 583.248 691.715, 583.194 691.802, 582.458 691.838, 582.155 692.012, 580.697 691.829, 579.457 691.810, 579.333 691.796, 579.238 691.742, 578.873 691.730, 578.789 691.698, 578.571 691.681, 578.456 691.668, 578.366 691.507, 577.276 691.279, 576.424 691.093, 575.727 690.885, 574.951 690.663, 574.120 690.612, 573.927 690.388, 573.092 690.362, 572.993 690.327, 572.863 690.039, 571.785 689.654, 570.346 689.599, 570.138 689.482, 569.702 689.175, 568.551 689.092, 568.240 689.089, 568.229 688.986, 567.843 688.962, 567.757 688.697, 566.943 688.565, 566.540 688.425, 566.111 688.265, 565.620 688.149, 565.265 688.050, 564.962 687.903, 564.510 687.073, 561.968 686.816, 561.181 686.772, 561.046 686.741, 560.949 686.719, 560.883 686.693, 560.804 686.523, 560.282 " fill="none" stroke="rgb(0, 0, 0)" stroke-linecap="butt" stroke-linejoin="round" stroke-opacity="1.0" stroke-width="3.0" />
            <path d=" M 604.663, 471.345 604.476, 471.245 595.638, 466.567 590.903, 464.060 584.994, 461.972 581.381, 460.695 576.242, 459.039 575.080, 458.664 574.007, 458.318 571.670, 457.565 571.476, 457.502 570.472, 457.179 569.646, 456.912 " fill="none" stroke="rgb(0, 0, 0)" stroke-linecap="butt" stroke-linejoin="round" stroke-opacity="1.0" stroke-width="3.0" />
            <path d=" M 470.504, 458.073 469.954, 456.430 468.873, 453.205 468.780, 452.926 468.701, 452.691 468.751, 452.363 468.785, 452.136 468.790, 452.103 469.371, 448.275 469.400, 448.089 469.706, 446.069 469.515, 445.774 469.494, 445.741 469.290, 445.426 468.708, 444.527 468.557, 444.293 468.172, 443.698 466.829, 443.953 466.650, 443.986 466.485, 444.018 466.363, 444.041 465.674, 444.289 464.738, 444.687 464.086, 445.158 463.700, 445.437 458.413, 449.257 455.599, 451.361 455.568, 451.384 454.700, 452.033 450.083, 457.581 " fill="none" stroke="rgb(0, 0, 0)" stroke-linecap="butt" stroke-linejoin="round" stroke-opacity="1.0" stroke-width="3.0" />
            <path d=" M 332.270, 637.360 332.253, 637.405 331.474, 639.516 330.948, 640.945 330.835, 641.250 330.372, 643.589 328.822, 651.421 329.650, 644.083 330.387, 639.868 330.399, 639.800 332.123, 629.950 332.175, 629.654 333.330, 628.199 333.338, 628.188 333.722, 627.705 333.928, 627.446 " fill="none" stroke="rgb(0, 0, 0)" stroke-linecap="butt" stroke-linejoin="round" stroke-opacity="1.0" stroke-width="3.0" />
            <path d=" M 779.342, 782.617 777.641, 783.892 776.618, 784.659 776.180, 784.740 776.173, 784.742 776.076, 784.760 774.398, 785.073 771.810, 784.313 766.740, 781.465 757.236, 778.355 754.802, 777.559 750.276, 777.633 751.648, 781.742 752.139, 783.133 753.737, 784.971 " fill="none" stroke="rgb(0, 0, 0)" stroke-linecap="butt" stroke-linejoin="round" stroke-opacity="1.0" stroke-width="3.0" />
            <path d=" M 553.772, 434.435 548.848, 433.092 540.352, 427.776 540.016, 427.567 539.655, 427.341 533.668, 427.047 531.304, 426.640 529.451, 426.601 527.389, 426.558 524.232, 426.874 519.033, 428.092 516.356, 429.737 " fill="none" stroke="rgb(0, 0, 0)" stroke-linecap="butt" stroke-linejoin="round" stroke-opacity="1.0" stroke-width="3.0" />
            <path d=" M 549.943, 449.711 549.052, 449.403 548.933, 449.362 545.893, 448.314 544.779, 448.276 543.625, 448.236 543.608, 448.236 541.189, 448.153 541.094, 448.149 540.118, 448.105 540.094, 448.104 535.450, 447.893 533.890, 447.822 533.068, 447.785 533.012, 447.782 532.517, 447.760 529.522, 447.624 529.088, 447.604 529.070, 447.603 529.007, 447.600 528.720, 447.587 528.437, 447.574 528.214, 447.564 527.150, 447.516 526.350, 447.480 526.097, 447.468 524.922, 447.818 524.793, 447.856 524.759, 447.866 523.203, 448.329 522.648, 448.494 515.222, 449.421 512.472, 449.765 510.638, 449.994 510.498, 450.011 " fill="none" stroke="rgb(0, 0, 0)" stroke-linecap="butt" stroke-linejoin="round" stroke-opacity="1.0" stroke-width="3.0" />
            <path d=" M 605.266, 928.846 607.813, 929.496 612.544, 929.248 615.516, 927.811 621.278, 927.668 627.291, 925.991 630.845, 924.411 631.570, 924.088 634.904, 921.579 642.747, 918.145 " fill="none" stroke="rgb(0, 0, 0)" stroke-linecap="butt" stroke-linejoin="round" stroke-opacity="1.0" stroke-width="3.0" />
            <path d=" M 686.973, 658.700 682.054, 653.507 677.731, 647.881 675.661, 644.404 674.463, 638.382 674.077, 637.370 674.047, 637.291 673.575, 636.052 672.338, 632.809 672.611, 629.448 673.897, 626.661 674.293, 623.310 " fill="none" stroke="rgb(0, 0, 0)" stroke-linecap="butt" stroke-linejoin="round" stroke-opacity="1.0" stroke-width="3.0" />
            <path d=" M 827.614, 802.221 827.763, 802.529 830.397, 807.965 831.186, 809.594 831.200, 809.725 831.661, 814.207 833.531, 817.484 835.386, 820.536 837.532, 824.130 837.735, 824.471 839.047, 826.667 839.713, 828.703 841.609, 832.222 845.715, 837.633 " fill="none" stroke="rgb(0, 0, 0)" stroke-linecap="butt" stroke-linejoin="round" stroke-opacity="1.0" stroke-width="3.0" />
            <path d=" M 638.185, 496.456 637.567, 496.002 634.649, 493.859 634.606, 493.828 627.650, 488.720 625.777, 486.958 623.161, 484.497 623.047, 484.390 620.087, 481.605 614.353, 478.189 606.282, 472.118 604.476, 471.245 " fill="none" stroke="rgb(0, 0, 0)" stroke-linecap="butt" stroke-linejoin="round" stroke-opacity="1.0" stroke-width="3.0" />
            <path d=" M 819.895, 694.570 819.853, 694.204 819.704, 692.917 818.560, 682.983 818.276, 680.520 817.560, 670.546 817.245, 666.153 816.990, 656.156 816.975, 655.563 816.582, 652.235 " fill="none" stroke="rgb(0, 0, 0)" stroke-linecap="butt" stroke-linejoin="round" stroke-opacity="1.0" stroke-width="3.0" />
            <path d=" M 762.979, 705.255 764.208, 706.146 768.480, 710.105 773.774, 717.107 773.814, 717.165 774.049, 717.513 774.173, 717.695 776.112, 720.562 778.039, 723.098 778.183, 723.221 778.934, 723.860 779.596, 724.424 779.670, 724.487 782.564, 726.952 782.626, 727.005 782.817, 727.168 784.622, 728.986 789.212, 733.609 789.994, 734.794 790.229, 735.151 791.561, 737.170 791.582, 737.201 791.618, 737.256 791.663, 737.324 " fill="none" stroke="rgb(0, 0, 0)" stroke-linecap="butt" stroke-linejoin="round" stroke-opacity="1.0" stroke-width="3.0" />
            <path d=" M 884.985, 857.373 883.063, 850.558 882.943, 847.063 882.894, 845.641 882.854, 844.465 882.750, 841.435 882.461, 840.355 882.134, 840.058 881.627, 839.598 881.603, 839.576 881.486, 839.470 880.945, 838.978 880.936, 838.970 880.915, 838.951 880.861, 838.902 880.827, 838.870 880.792, 838.839 880.723, 838.776 880.305, 838.397 880.214, 838.314 880.155, 838.261 880.152, 838.258 879.065, 837.270 879.050, 837.257 878.108, 836.401 877.994, 836.298 877.859, 836.175 876.739, 835.158 876.617, 834.951 876.115, 834.102 876.033, 833.963 876.020, 833.940 874.644, 831.614 874.372, 831.208 873.070, 829.837 870.094, 826.705 863.399, 823.497 " fill="none" stroke="rgb(0, 0, 0)" stroke-linecap="butt" stroke-linejoin="round" stroke-opacity="1.0" stroke-width="3.0" />
            <path d=" M 594.661, 792.157 595.701, 790.445 596.424, 789.256 597.917, 786.798 604.440, 779.218 605.616, 777.851 614.034, 772.452 614.669, 772.044 620.832, 770.197 624.743, 770.116 629.662, 770.087 630.483, 769.348 " fill="none" stroke="rgb(0, 0, 0)" stroke-linecap="butt" stroke-linejoin="round" stroke-opacity="1.0" stroke-width="3.0" />
            <path d=" M 773.989, 794.444 770.468, 796.408 768.745, 796.664 766.207, 795.806 763.405, 794.046 761.224, 792.512 760.268, 791.976 757.288, 790.302 756.185, 789.932 754.621, 789.406 748.725, 786.713 744.544, 785.007 743.052, 785.098 739.607, 788.326 741.139, 791.600 742.960, 794.832 " fill="none" stroke="rgb(0, 0, 0)" stroke-linecap="butt" stroke-linejoin="round" stroke-opacity="1.0" stroke-width="3.0" />
            <path d=" M 719.559, 680.932 721.255, 680.156 721.240, 676.467 718.993, 674.546 716.861, 673.983 714.835, 672.590 712.791, 671.565 712.676, 671.507 711.864, 671.100 705.752, 668.881 701.024, 667.540 694.455, 663.999 686.973, 658.700 685.242, 657.474 " fill="none" stroke="rgb(0, 0, 0)" stroke-linecap="butt" stroke-linejoin="round" stroke-opacity="1.0" stroke-width="3.0" />
            <path d=" M 610.004, 720.782 614.345, 723.041 616.660, 728.492 617.106, 729.680 620.409, 738.481 624.027, 747.804 624.126, 748.057 625.733, 751.765 628.839, 755.723 630.634, 758.009 630.790, 758.208 630.878, 758.320 631.030, 758.400 633.690, 759.806 " fill="none" stroke="rgb(0, 0, 0)" stroke-linecap="butt" stroke-linejoin="round" stroke-opacity="1.0" stroke-width="3.0" />
            <path d=" M 397.323, 633.862 396.961, 634.972 395.984, 637.970 396.069, 641.672 396.079, 642.116 394.380, 646.495 393.868, 647.813 391.098, 654.361 390.295, 656.324 390.247, 656.442 388.849, 659.858 387.489, 667.437 385.480, 672.035 384.284, 678.564 383.985, 680.193 " fill="none" stroke="rgb(0, 0, 0)" stroke-linecap="butt" stroke-linejoin="round" stroke-opacity="1.0" stroke-width="3.0" />
            <path d=" M 772.773, 618.287 770.987, 614.778 767.219, 607.375 763.296, 600.441 761.109, 596.043 758.017, 591.279 752.813, 582.739 752.116, 581.595 749.648, 578.121 748.378, 576.267 " fill="none" stroke="rgb(0, 0, 0)" stroke-linecap="butt" stroke-linejoin="round" stroke-opacity="1.0" stroke-width="3.0" />
            <path d=" M 546.113, 449.120 542.478, 448.559 542.336, 448.548 541.014, 448.445 538.196, 448.226 535.762, 448.036 534.081, 447.906 533.275, 447.843 533.216, 447.838 532.551, 447.786 532.037, 447.746 531.032, 447.953 530.333, 448.097 530.328, 448.098 530.184, 448.128 528.753, 448.422 528.681, 448.437 528.311, 448.513 528.264, 448.523 528.089, 448.559 527.538, 448.672 526.058, 448.977 525.993, 448.982 521.994, 449.267 515.129, 449.632 514.175, 449.819 514.049, 449.844 506.295, 451.366 497.770, 452.781 " fill="none" stroke="rgb(0, 0, 0)" stroke-linecap="butt" stroke-linejoin="round" stroke-opacity="1.0" stroke-width="3.0" />
            <path d=" M 693.785, 586.351 693.957, 586.361 695.010, 586.421 700.410, 589.553 703.358, 591.262 705.560, 593.209 707.346, 594.788 708.109, 595.463 713.029, 603.744 716.182, 608.485 719.756, 612.170 722.264, 614.163 722.297, 614.190 722.460, 614.319 723.315, 614.998 727.059, 617.392 728.048, 618.003 729.001, 618.590 729.118, 618.662 729.459, 618.872 728.727, 618.099 728.048, 618.003 " fill="none" stroke="rgb(0, 0, 0)" stroke-linecap="butt" stroke-linejoin="round" stroke-opacity="1.0" stroke-width="3.0" />
            <path d=" M 798.239, 762.296 796.739, 762.242 796.443, 762.232 792.629, 762.094 790.252, 762.586 787.818, 761.486 782.467, 758.099 782.344, 758.022 782.147, 757.927 780.151, 756.974 777.515, 755.933 773.186, 755.168 766.429, 753.551 758.450, 751.184 756.823, 750.774 755.748, 751.366 754.820, 753.868 755.754, 757.943 " fill="none" stroke="rgb(0, 0, 0)" stroke-linecap="butt" stroke-linejoin="round" stroke-opacity="1.0" stroke-width="3.0" />
            <path d=" M 676.239, 820.850 675.898, 820.866 673.055, 820.994 670.782, 820.149 665.232, 818.940 656.034, 815.414 649.683, 812.436 646.913, 810.801 644.855, 808.838 640.509, 806.652 637.757, 804.372 631.703, 802.636 627.792, 801.515 " fill="none" stroke="rgb(0, 0, 0)" stroke-linecap="butt" stroke-linejoin="round" stroke-opacity="1.0" stroke-width="3.0" />
            <path d=" M 333.857, 695.092 335.025, 700.759 339.060, 709.909 340.611, 713.426 341.959, 715.640 343.740, 720.133 346.658, 724.243 352.828, 732.113 354.177, 733.833 357.188, 736.462 362.583, 741.165 " fill="none" stroke="rgb(0, 0, 0)" stroke-linecap="butt" stroke-linejoin="round" stroke-opacity="1.0" stroke-width="3.0" />
            <path d=" M 438.075, 833.750 438.266, 834.549 444.237, 838.985 449.326, 842.371 455.722, 846.801 460.870, 849.519 463.591, 851.050 467.313, 851.974 472.593, 852.294 476.624, 851.585 485.930, 847.926 487.221, 847.419 " fill="none" stroke="rgb(0, 0, 0)" stroke-linecap="butt" stroke-linejoin="round" stroke-opacity="1.0" stroke-width="3.0" />
            <path d=" M 736.862, 600.507 736.970, 601.144 738.455, 611.033 738.979, 614.525 740.044, 620.389 742.302, 630.130 743.597, 635.715 746.516, 645.367 748.884, 652.668 749.409, 654.765 " fill="none" stroke="rgb(0, 0, 0)" stroke-linecap="butt" stroke-linejoin="round" stroke-opacity="1.0" stroke-width="3.0" />
            <path d=" M 519.383, 599.756 516.964, 599.739 516.564, 599.736 514.814, 599.724 514.032, 599.719 513.958, 599.718 513.953, 599.718 513.910, 599.718 513.893, 599.718 513.826, 599.717 511.453, 599.701 511.295, 599.700 510.203, 599.693 509.048, 599.685 499.068, 600.313 498.857, 600.327 491.652, 599.703 487.032, 599.854 479.973, 597.587 478.636, 598.060 478.519, 598.101 478.346, 598.162 471.553, 600.566 468.168, 601.147 464.347, 601.803 " fill="none" stroke="rgb(0, 0, 0)" stroke-linecap="butt" stroke-linejoin="round" stroke-opacity="1.0" stroke-width="3.0" />
            <path d=" M 716.775, 498.619 714.561, 502.378 711.914, 506.869 709.743, 509.507 708.766, 510.905 708.559, 511.201 708.513, 511.267 707.287, 513.019 705.207, 515.668 704.554, 516.500 701.693, 520.142 696.556, 525.273 693.682, 527.307 693.617, 527.353 691.788, 528.647 689.161, 530.563 688.996, 530.642 688.987, 530.646 687.186, 531.508 684.902, 533.189 682.382, 534.972 682.056, 535.384 681.743, 535.779 680.440, 537.421 679.270, 538.897 678.895, 539.437 " fill="none" stroke="rgb(0, 0, 0)" stroke-linecap="butt" stroke-linejoin="round" stroke-opacity="1.0" stroke-width="3.0" />
            <path d=" M 648.934, 720.204 649.623, 720.484 659.437, 722.403 669.251, 724.322 669.873, 724.443 676.434, 725.395 679.171, 725.774 687.028, 726.360 691.378, 727.752 692.280, 727.733 696.249, 727.259 697.826, 727.012 703.669, 722.534 " fill="none" stroke="rgb(0, 0, 0)" stroke-linecap="butt" stroke-linejoin="round" stroke-opacity="1.0" stroke-width="3.0" />
            <path d=" M 328.822, 651.421 328.340, 661.410 328.259, 663.079 328.984, 673.053 329.099, 674.634 330.621, 681.177 332.542, 690.990 332.976, 693.209 333.857, 695.092 334.228, 695.886 336.239, 700.183 338.277, 704.541 342.415, 710.540 " fill="none" stroke="rgb(0, 0, 0)" stroke-linecap="butt" stroke-linejoin="round" stroke-opacity="1.0" stroke-width="3.0" />
            <path d=" M 804.856, 617.409 799.310, 615.274 795.030, 615.506 785.909, 618.788 780.480, 622.897 777.560, 626.572 774.377, 630.577 770.812, 634.799 765.331, 643.163 763.947, 645.275 763.835, 645.445 763.831, 645.453 763.822, 645.465 763.782, 645.526 761.824, 648.514 759.743, 651.691 " fill="none" stroke="rgb(0, 0, 0)" stroke-linecap="butt" stroke-linejoin="round" stroke-opacity="1.0" stroke-width="3.0" />
            <path d=" M 883.090, 833.249 883.358, 832.499 884.148, 826.456 884.194, 826.106 884.868, 823.393 885.667, 820.173 885.667, 815.847 885.589, 809.529 885.373, 808.263 885.364, 808.209 885.363, 808.205 885.260, 807.598 884.920, 805.601 884.897, 805.467 884.789, 804.836 884.242, 801.623 884.240, 801.618 884.188, 801.494 883.475, 799.815 883.443, 799.739 883.363, 799.550 883.018, 798.737 882.969, 798.623 882.928, 798.525 882.815, 798.258 882.563, 797.664 881.846, 795.976 879.119, 791.545 875.980, 786.879 870.726, 778.370 869.679, 776.674 868.900, 775.628 " fill="none" stroke="rgb(0, 0, 0)" stroke-linecap="butt" stroke-linejoin="round" stroke-opacity="1.0" stroke-width="3.0" />
            <path d=" M 555.153, 744.699 558.075, 743.968 563.883, 742.515 563.973, 742.492 565.974, 741.992 566.677, 741.716 566.715, 741.701 566.998, 741.589 568.892, 740.845 568.958, 740.819 569.119, 740.756 575.138, 738.391 579.034, 736.356 585.823, 733.093 586.043, 732.910 586.159, 732.813 589.258, 730.226 591.453, 727.882 594.763, 722.193 598.743, 720.531 606.579, 720.358 610.004, 720.782 611.394, 720.954 " fill="none" stroke="rgb(0, 0, 0)" stroke-linecap="butt" stroke-linejoin="round" stroke-opacity="1.0" stroke-width="3.0" />
            <path d=" M 400.023, 813.624 399.970, 813.644 399.870, 813.682 399.059, 813.990 398.883, 814.058 397.015, 814.768 396.114, 816.419 396.459, 818.746 396.477, 818.865 396.670, 820.168 396.686, 820.273 396.724, 820.535 396.859, 821.446 399.377, 826.831 402.395, 831.719 407.899, 832.432 413.606, 834.036 420.030, 837.542 427.645, 836.601 432.509, 835.548 435.545, 834.043 436.562, 833.540 437.649, 833.691 438.075, 833.750 440.038, 834.024 444.861, 834.220 " fill="none" stroke="rgb(0, 0, 0)" stroke-linecap="butt" stroke-linejoin="round" stroke-opacity="1.0" stroke-width="3.0" />
            <path d=" M 649.963, 921.004 659.842, 922.553 660.835, 922.709 667.816, 924.730 671.401, 925.296 680.258, 926.451 689.273, 930.778 690.300, 931.271 697.720, 936.280 699.085, 937.201 703.519, 941.237 704.501, 942.130 704.832, 942.188 705.446, 942.294 706.197, 942.425 711.729, 943.384 " fill="none" stroke="rgb(0, 0, 0)" stroke-linecap="butt" stroke-linejoin="round" stroke-opacity="1.0" stroke-width="3.0" />
            <path d=" M 567.526, 436.772 570.797, 428.995 572.710, 424.786 572.364, 420.522 571.009, 418.323 569.392, 417.565 565.201, 415.345 562.085, 414.919 555.141, 413.632 550.616, 412.851 545.812, 412.834 541.523, 414.227 537.368, 416.528 534.358, 419.267 531.906, 422.374 529.451, 426.601 " fill="none" stroke="rgb(0, 0, 0)" stroke-linecap="butt" stroke-linejoin="round" stroke-opacity="1.0" stroke-width="3.0" />
            <path d=" M 378.070, 522.229 376.988, 524.050 376.632, 524.612 373.486, 529.587 370.990, 533.532 370.088, 534.843 364.418, 543.081 361.982, 546.620 356.914, 555.241 355.048, 558.415 354.896, 558.675 354.339, 559.622 352.920, 561.525 352.774, 561.721 352.765, 561.733 352.218, 562.467 352.049, 562.693 351.669, 563.203 351.604, 563.290 351.533, 563.386 350.811, 564.353 350.621, 564.608 349.675, 565.140 346.137, 567.133 345.305, 567.601 344.518, 568.045 344.454, 568.080 343.980, 568.347 343.387, 568.681 340.953, 569.646 337.152, 572.450 335.145, 574.400 334.749, 575.600 " fill="none" stroke="rgb(0, 0, 0)" stroke-linecap="butt" stroke-linejoin="round" stroke-opacity="1.0" stroke-width="3.0" />
            <path d=" M 382.071, 689.528 381.676, 690.255 379.540, 694.190 375.882, 703.497 375.231, 705.154 375.233, 705.528 375.706, 715.517 375.725, 715.916 377.987, 722.515 378.858, 723.703 379.049, 724.783 379.163, 725.435 380.396, 732.442 382.933, 739.810 384.736, 746.802 388.220, 751.648 388.778, 752.233 390.137, 754.031 392.040, 756.101 392.243, 756.321 " fill="none" stroke="rgb(0, 0, 0)" stroke-linecap="butt" stroke-linejoin="round" stroke-opacity="1.0" stroke-width="3.0" />
            <path d=" M 656.440, 435.525 655.364, 435.961 653.914, 436.253 650.497, 436.941 648.738, 439.474 647.100, 442.223 645.570, 444.722 649.859, 448.587 655.562, 451.064 661.156, 453.378 666.550, 456.043 669.543, 458.222 672.776, 461.360 675.434, 464.134 678.356, 468.346 679.984, 471.729 680.009, 471.782 680.035, 471.835 681.756, 475.411 682.648, 478.379 682.733, 478.661 682.849, 479.048 683.987, 481.521 685.151, 484.052 " fill="none" stroke="rgb(0, 0, 0)" stroke-linecap="butt" stroke-linejoin="round" stroke-opacity="1.0" stroke-width="3.0" />
            <path d=" M 440.224, 469.227 439.869, 469.570 439.758, 469.678 438.632, 470.767 437.185, 472.166 435.307, 474.180 434.944, 474.744 434.094, 476.063 433.759, 476.582 430.387, 479.465 427.776, 482.823 427.081, 485.244 426.915, 487.286 426.904, 487.311 426.820, 487.505 426.730, 487.711 426.712, 487.753 424.687, 492.404 420.953, 494.549 417.815, 498.162 416.603, 501.325 409.929, 508.771 409.019, 509.787 406.208, 513.931 404.879, 518.757 405.087, 523.204 405.121, 529.161 404.423, 532.589 " fill="none" stroke="rgb(0, 0, 0)" stroke-linecap="butt" stroke-linejoin="round" stroke-opacity="1.0" stroke-width="3.0" />
            <path d=" M 761.824, 648.514 759.586, 651.505 759.569, 651.528 758.768, 652.598 758.256, 653.282 755.036, 657.585 750.331, 663.482 749.228, 665.066 743.514, 673.272 737.906, 681.325 732.141, 689.496 729.811, 692.799 729.767, 694.135 730.029, 696.459 733.547, 699.269 735.462, 700.358 739.635, 703.914 740.598, 704.310 743.881, 705.259 746.110, 705.904 " fill="none" stroke="rgb(0, 0, 0)" stroke-linecap="butt" stroke-linejoin="round" stroke-opacity="1.0" stroke-width="3.0" />
            <path d=" M 744.803, 581.115 745.393, 580.440 748.011, 577.445 748.162, 576.243 748.193, 575.997 748.211, 575.860 748.421, 574.199 749.355, 564.243 749.582, 561.821 749.134, 560.441 745.709, 551.046 744.532, 547.820 744.008, 539.265 744.329, 534.788 743.820, 530.149 742.547, 523.457 742.857, 521.244 743.478, 518.458 743.913, 515.373 744.660, 511.439 744.698, 511.238 745.675, 509.674 746.646, 508.121 747.851, 506.193 748.550, 505.075 748.617, 504.908 750.734, 499.663 " fill="none" stroke="rgb(0, 0, 0)" stroke-linecap="butt" stroke-linejoin="round" stroke-opacity="1.0" stroke-width="3.0" />
            <path d=" M 368.791, 749.511 368.196, 750.567 366.868, 752.924 365.966, 758.190 364.419, 765.080 363.779, 771.918 363.828, 777.411 364.876, 783.799 365.800, 788.608 367.936, 795.617 369.704, 800.572 370.750, 803.325 373.036, 806.847 378.130, 811.847 383.116, 815.365 392.424, 819.021 394.976, 820.023 396.724, 820.535 " fill="none" stroke="rgb(0, 0, 0)" stroke-linecap="butt" stroke-linejoin="round" stroke-opacity="1.0" stroke-width="3.0" />
            <path d=" M 527.362, 855.178 533.272, 854.092 540.274, 852.707 547.730, 850.511 551.734, 848.931 560.659, 844.420 560.956, 844.270 569.262, 838.700 573.956, 835.552 580.186, 829.722 586.247, 822.498 586.605, 822.073 587.494, 820.272 588.615, 818.001 588.804, 815.789 588.952, 814.062 589.003, 813.872 589.546, 811.863 589.281, 801.883 589.232, 801.496 " fill="none" stroke="rgb(0, 0, 0)" stroke-linecap="butt" stroke-linejoin="round" stroke-opacity="1.0" stroke-width="3.0" />
            <path d=" M 694.805, 724.641 701.993, 722.984 702.134, 722.946 702.407, 722.873 703.669, 722.534 708.515, 721.236 712.213, 718.193 717.218, 709.536 718.225, 707.795 721.088, 699.386 722.964, 689.564 723.552, 686.484 723.686, 677.530 723.272, 667.539 723.194, 665.644 723.625, 655.653 723.738, 653.036 724.010, 646.757 " fill="none" stroke="rgb(0, 0, 0)" stroke-linecap="butt" stroke-linejoin="round" stroke-opacity="1.0" stroke-width="3.0" />
            <path d=" M 830.549, 735.299 830.039, 734.690 829.898, 734.522 829.659, 734.238 829.376, 733.900 827.818, 732.042 827.518, 731.685 826.390, 730.340 826.138, 730.039 825.442, 729.210 825.408, 729.169 825.345, 729.094 825.094, 728.795 825.001, 728.702 824.952, 728.652 824.216, 727.908 824.008, 727.699 821.874, 725.543 821.557, 725.222 820.955, 724.631 820.690, 724.372 820.624, 724.307 819.278, 722.986 818.611, 722.585 818.510, 722.524 818.463, 722.496 818.448, 722.487 818.222, 722.352 815.941, 720.982 814.071, 720.164 813.965, 720.118 812.751, 719.600 811.650, 719.129 807.934, 717.542 804.538, 717.573 798.981, 718.543 794.901, 719.197 794.798, 719.213 794.574, 719.249 793.787, 719.375 793.279, 719.457 792.996, 719.502 789.511, 719.195 788.715, 720.123 788.787, 720.597 788.899, 721.326 789.365, 724.370 789.400, 724.596 789.539, 725.501 789.866, 727.635 790.141, 732.878 790.299, 733.340 790.431, 733.726 790.538, 734.038 790.759, 734.685 790.924, 735.166 791.582, 737.089 791.598, 737.136 791.628, 737.223 791.663, 737.324 792.536, 739.876 793.093, 740.960 794.352, 743.413 795.316, 745.290 796.613, 746.722 796.617, 746.727 797.112, 747.338 797.182, 747.424 797.238, 747.493 797.251, 747.509 797.487, 747.800 798.166, 748.638 798.791, 749.408 799.083, 750.076 799.310, 750.596 799.649, 751.371 799.672, 751.403 801.009, 753.195 801.356, 753.328 801.762, 753.484 802.345, 753.707 802.672, 753.832 803.763, 754.251 804.823, 754.657 805.876, 755.061 806.352, 755.312 806.704, 755.499 807.551, 755.947 807.647, 755.998 807.922, 756.144 808.815, 756.616 809.116, 756.775 809.127, 756.781 809.246, 756.844 809.376, 756.913 809.707, 757.088 810.669, 757.597 812.290, 759.094 " fill="none" stroke="rgb(0, 0, 0)" stroke-linecap="butt" stroke-linejoin="round" stroke-opacity="1.0" stroke-width="3.0" />
            <path d=" M 599.286, 892.713 598.483, 892.655 593.490, 892.298 589.986, 890.755 584.675, 887.393 582.001, 885.623 577.944, 885.174 575.416, 885.885 573.193, 886.518 572.589, 886.690 572.053, 886.842 569.929, 887.447 565.852, 892.209 564.497, 900.303 566.039, 903.925 572.625, 911.450 573.162, 912.064 579.371, 916.722 588.055, 921.679 592.744, 924.356 600.380, 928.306 602.271, 928.315 603.203, 928.319 603.695, 928.321 606.568, 928.334 609.188, 929.358 605.266, 928.846 602.849, 928.530 602.271, 928.315 " fill="none" stroke="rgb(0, 0, 0)" stroke-linecap="butt" stroke-linejoin="round" stroke-opacity="1.0" stroke-width="3.0" />
            <path d=" M 748.375, 505.893 748.894, 505.595 750.772, 501.313 750.734, 499.663 750.489, 499.013 748.083, 492.651 747.364, 490.028 747.310, 489.832 745.706, 483.987 745.657, 483.821 744.920, 481.359 743.621, 477.020 743.325, 476.031 739.805, 469.260 736.893, 464.046 735.310, 461.593 731.354, 456.637 725.616, 451.002 722.692, 448.721 715.290, 441.997 714.041, 440.861 709.770, 437.424 703.185, 433.191 698.146, 431.656 696.605, 431.684 692.345, 430.857 690.253, 431.072 688.624, 431.346 687.040, 431.481 685.579, 432.015 685.186, 432.159 " fill="none" stroke="rgb(0, 0, 0)" stroke-linecap="butt" stroke-linejoin="round" stroke-opacity="1.0" stroke-width="3.0" />
            <path d=" M 451.175, 808.560 455.957, 815.234 455.973, 815.256 457.601, 817.028 457.640, 817.071 457.834, 817.282 460.978, 820.704 467.954, 827.869 470.222, 830.198 470.611, 830.598 470.668, 830.647 470.691, 830.666 470.914, 830.854 472.038, 831.804 472.566, 832.251 473.615, 833.137 473.851, 833.336 475.048, 834.347 475.670, 834.996 478.276, 837.713 479.300, 838.780 480.750, 840.291 480.809, 840.353 484.340, 844.033 485.300, 845.383 485.358, 845.465 486.007, 846.376 487.221, 847.419 490.927, 850.602 496.350, 855.816 499.887, 859.488 500.464, 860.086 504.198, 861.367 507.619, 862.341 517.313, 859.887 520.406, 859.103 523.181, 858.264 525.698, 856.821 527.317, 855.359 527.362, 855.178 528.489, 850.570 531.267, 846.698 533.371, 843.810 535.170, 841.624 537.047, 838.879 538.611, 836.334 540.520, 831.518 " fill="none" stroke="rgb(0, 0, 0)" stroke-linecap="butt" stroke-linejoin="round" stroke-opacity="1.0" stroke-width="3.0" />
            <path d=" M 633.669, 765.528 635.262, 765.405 635.956, 765.247 636.389, 765.148 636.597, 765.100 640.954, 757.291 643.628, 747.655 645.277, 741.716 647.214, 734.959 648.563, 729.946 648.934, 720.204 649.012, 718.153 647.605, 708.253 646.843, 702.892 644.116, 693.604 643.026, 689.895 638.786, 680.838 637.445, 677.974 634.768, 674.585 634.704, 674.504 633.996, 673.607 633.706, 673.476 628.748, 671.243 627.738, 670.959 619.320, 668.594 614.700, 670.503 606.714, 672.460 " fill="none" stroke="rgb(0, 0, 0)" stroke-linecap="butt" stroke-linejoin="round" stroke-opacity="1.0" stroke-width="3.0" />
            <path d=" M 487.864, 783.914 487.813, 784.036 487.203, 785.497 486.962, 786.073 486.955, 786.090 486.463, 787.269 483.399, 790.489 482.860, 791.749 487.170, 798.616 487.997, 799.965 489.812, 802.924 489.967, 803.081 494.804, 807.987 498.895, 812.135 499.307, 812.434 501.738, 814.195 502.405, 814.678 502.528, 814.767 503.008, 815.115 503.070, 815.160 503.113, 815.191 503.257, 815.296 509.260, 819.645 518.454, 823.578 521.075, 824.699 526.323, 826.917 531.099, 828.131 531.985, 828.356 541.781, 828.780 543.647, 829.019 546.243, 829.352 554.709, 828.871 560.350, 826.467 563.481, 825.185 567.985, 824.091 572.867, 821.502 574.989, 819.783 577.818, 817.491 578.072, 817.285 578.208, 817.175 578.242, 817.147 582.155, 812.901 582.743, 811.985 582.778, 811.930 582.817, 811.871 583.152, 811.349 584.113, 809.854 584.799, 808.786 587.222, 804.457 589.232, 801.496 589.458, 801.164 592.999, 795.645 594.693, 793.150 594.661, 792.157 594.616, 790.736 " fill="none" stroke="rgb(0, 0, 0)" stroke-linecap="butt" stroke-linejoin="round" stroke-opacity="1.0" stroke-width="3.0" />
        </g>
    </g>
</svg>
