<?xml version='1.0' encoding='ascii'?>
<svg xmlns="http://www.w3.org/2000/svg" height="1280" version="1.1" width="1280">
    <g id="RenderLayer_LineSet" inkscape:groupmode="lineset" inkscape:label="RenderLayer_LineSet" xmlns:inkscape="http://www.inkscape.org/namespaces/inkscape">
        <g id="strokes" inkscape:groupmode="layer" inkscape:label="strokes" xmlns:inkscape="http://www.inkscape.org/namespaces/inkscape">
            <path d=" M 552.307, 691.493 555.619, 697.890 553.393, 701.849 552.160, 704.124 551.633, 705.097 549.441, 709.139 " fill="none" stroke="rgb(0, 0, 0)" stroke-linecap="butt" stroke-linejoin="round" stroke-opacity="1.0" stroke-width="3.0" />
            <path d=" M 694.449, 633.242 694.615, 632.881 694.688, 632.722 694.494, 630.563 694.331, 629.804 693.453, 627.900 692.230, 625.560 688.063, 619.698 688.001, 619.568 686.059, 615.552 " fill="none" stroke="rgb(0, 0, 0)" stroke-linecap="butt" stroke-linejoin="round" stroke-opacity="1.0" stroke-width="3.0" />
            <path d=" M 638.538, 488.757 640.879, 489.645 647.962, 492.082 655.312, 493.065 657.959, 493.419 " fill="none" stroke="rgb(0, 0, 0)" stroke-linecap="butt" stroke-linejoin="round" stroke-opacity="1.0" stroke-width="3.0" />
            <path d=" M 794.620, 515.347 792.885, 510.380 792.100, 509.106 788.971, 504.820 783.190, 499.109 " fill="none" stroke="rgb(0, 0, 0)" stroke-linecap="butt" stroke-linejoin="round" stroke-opacity="1.0" stroke-width="3.0" />
            <path d=" M 578.547, 596.343 582.320, 595.673 582.787, 595.590 586.816, 594.875 594.001, 594.549 594.018, 594.549 594.243, 594.550 598.802, 594.578 " fill="none" stroke="rgb(0, 0, 0)" stroke-linecap="butt" stroke-linejoin="round" stroke-opacity="1.0" stroke-width="3.0" />
            <path d=" M 823.340, 940.460 824.133, 940.656 830.060, 942.119 831.416, 942.234 835.868, 942.495 838.368, 942.272 843.402, 941.215 " fill="none" stroke="rgb(0, 0, 0)" stroke-linecap="butt" stroke-linejoin="round" stroke-opacity="1.0" stroke-width="3.0" />
            <path d=" M 599.870, 786.589 599.523, 786.832 599.216, 787.048 599.148, 787.095 598.993, 787.204 598.097, 787.833 597.952, 787.935 597.652, 788.146 597.903, 789.073 598.471, 791.166 600.092, 792.043 600.189, 792.096 602.538, 793.369 607.505, 794.910 612.083, 796.429 " fill="none" stroke="rgb(0, 0, 0)" stroke-linecap="butt" stroke-linejoin="round" stroke-opacity="1.0" stroke-width="3.0" />
            <path d=" M 522.405, 545.609 521.547, 539.781 522.132, 529.798 522.164, 529.244 522.514, 525.512 522.517, 525.475 522.561, 525.001 " fill="none" stroke="rgb(0, 0, 0)" stroke-linecap="butt" stroke-linejoin="round" stroke-opacity="1.0" stroke-width="3.0" />
            <path d=" M 518.921, 654.689 519.498, 654.199 522.162, 651.938 525.994, 650.998 526.520, 649.828 528.724, 644.919 531.628, 642.630 532.132, 642.300 532.628, 641.975 533.560, 641.365 " fill="none" stroke="rgb(0, 0, 0)" stroke-linecap="butt" stroke-linejoin="round" stroke-opacity="1.0" stroke-width="3.0" />
            <path d=" M 338.418, 538.696 338.869, 544.673 339.867, 551.333 340.002, 556.676 340.854, 559.865 " fill="none" stroke="rgb(0, 0, 0)" stroke-linecap="butt" stroke-linejoin="round" stroke-opacity="1.0" stroke-width="3.0" />
            <path d=" M 834.567, 813.938 836.083, 816.134 836.600, 819.201 837.474, 824.392 839.222, 830.027 839.359, 830.468 839.479, 830.856 839.525, 831.368 839.807, 834.490 " fill="none" stroke="rgb(0, 0, 0)" stroke-linecap="butt" stroke-linejoin="round" stroke-opacity="1.0" stroke-width="3.0" />
            <path d=" M 651.982, 816.144 657.526, 819.360 665.698, 825.124 669.790, 828.011 669.975, 828.142 " fill="none" stroke="rgb(0, 0, 0)" stroke-linecap="butt" stroke-linejoin="round" stroke-opacity="1.0" stroke-width="3.0" />
            <path d=" M 899.920, 783.481 899.942, 782.939 899.946, 782.831 900.135, 778.106 900.156, 777.573 899.717, 770.779 899.583, 766.304 897.999, 762.012 " fill="none" stroke="rgb(0, 0, 0)" stroke-linecap="butt" stroke-linejoin="round" stroke-opacity="1.0" stroke-width="3.0" />
            <path d=" M 649.066, 617.110 649.702, 616.575 650.489, 615.912 655.363, 612.812 655.763, 612.558 656.128, 612.326 656.303, 612.198 658.719, 610.431 655.429, 612.494 655.371, 612.530 654.598, 612.892 654.597, 612.893 654.596, 612.893 649.662, 615.200 " fill="none" stroke="rgb(0, 0, 0)" stroke-linecap="butt" stroke-linejoin="round" stroke-opacity="1.0" stroke-width="3.0" />
            <path d=" M 649.462, 707.831 653.504, 711.414 658.479, 713.977 661.666, 714.830 662.255, 714.561 664.201, 713.574 664.417, 712.897 664.563, 712.442 663.310, 708.777 " fill="none" stroke="rgb(0, 0, 0)" stroke-linecap="butt" stroke-linejoin="round" stroke-opacity="1.0" stroke-width="3.0" />
            <path d=" M 596.656, 371.275 588.994, 364.849 588.293, 364.261 588.189, 364.174 585.242, 361.995 579.446, 360.291 578.066, 359.885 " fill="none" stroke="rgb(0, 0, 0)" stroke-linecap="butt" stroke-linejoin="round" stroke-opacity="1.0" stroke-width="3.0" />
            <path d=" M 818.608, 796.890 818.236, 797.007 818.702, 798.910 819.049, 800.115 822.782, 805.011 824.982, 808.476 825.232, 808.870 826.336, 810.607 828.707, 812.745 830.732, 814.570 " fill="none" stroke="rgb(0, 0, 0)" stroke-linecap="butt" stroke-linejoin="round" stroke-opacity="1.0" stroke-width="3.0" />
            <path d=" M 760.523, 899.089 765.757, 905.118 768.492, 907.146 773.089, 909.129 773.092, 909.129 774.050, 909.306 775.159, 909.510 779.043, 910.227 " fill="none" stroke="rgb(0, 0, 0)" stroke-linecap="butt" stroke-linejoin="round" stroke-opacity="1.0" stroke-width="3.0" />
            <path d=" M 607.478, 471.366 608.144, 472.792 611.249, 479.445 614.658, 486.956 614.692, 487.031 615.324, 488.423 615.736, 489.085 617.331, 491.649 " fill="none" stroke="rgb(0, 0, 0)" stroke-linecap="butt" stroke-linejoin="round" stroke-opacity="1.0" stroke-width="3.0" />
            <path d=" M 413.308, 643.244 414.309, 644.018 414.340, 644.042 414.343, 644.044 414.369, 644.065 418.928, 647.588 423.496, 648.338 424.238, 648.319 424.259, 648.319 428.063, 648.221 431.220, 648.770 431.334, 648.881 433.458, 650.949 " fill="none" stroke="rgb(0, 0, 0)" stroke-linecap="butt" stroke-linejoin="round" stroke-opacity="1.0" stroke-width="3.0" />
            <path d=" M 893.813, 759.404 894.457, 758.515 894.681, 758.205 894.736, 758.128 894.912, 757.885 895.385, 757.230 895.435, 757.161 895.828, 756.618 896.316, 756.021 896.479, 755.822 896.700, 755.552 897.120, 755.039 898.115, 753.823 899.687, 751.531 901.782, 745.984 902.383, 742.039 901.400, 739.174 " fill="none" stroke="rgb(0, 0, 0)" stroke-linecap="butt" stroke-linejoin="round" stroke-opacity="1.0" stroke-width="3.0" />
            <path d=" M 581.309, 362.111 578.585, 360.241 578.066, 359.885 577.732, 359.655 576.732, 358.968 573.529, 358.124 568.404, 356.774 567.111, 356.375 566.775, 356.272 567.039, 356.344 573.529, 358.124 " fill="none" stroke="rgb(0, 0, 0)" stroke-linecap="butt" stroke-linejoin="round" stroke-opacity="1.0" stroke-width="3.0" />
            <path d=" M 598.053, 442.808 596.089, 442.860 590.828, 442.999 584.219, 442.113 579.668, 442.481 578.997, 442.535 575.158, 442.845 " fill="none" stroke="rgb(0, 0, 0)" stroke-linecap="butt" stroke-linejoin="round" stroke-opacity="1.0" stroke-width="3.0" />
            <path d=" M 380.326, 431.105 379.832, 431.676 376.091, 436.003 374.453, 439.463 373.110, 442.117 371.827, 444.652 371.693, 444.845 370.989, 445.861 370.814, 446.114 370.363, 446.766 368.925, 448.841 368.760, 449.079 367.864, 450.373 " fill="none" stroke="rgb(0, 0, 0)" stroke-linecap="butt" stroke-linejoin="round" stroke-opacity="1.0" stroke-width="3.0" />
            <path d=" M 570.474, 603.616 571.738, 600.222 571.752, 600.184 571.779, 600.132 571.888, 599.923 572.249, 599.228 573.195, 597.407 574.303, 595.276 577.342, 592.243 577.565, 592.020 578.616, 590.970 578.756, 590.831 579.403, 590.185 584.907, 586.031 " fill="none" stroke="rgb(0, 0, 0)" stroke-linecap="butt" stroke-linejoin="round" stroke-opacity="1.0" stroke-width="3.0" />
            <path d=" M 790.017, 703.240 789.646, 703.236 783.667, 704.030 783.028, 704.900 778.653, 710.651 779.154, 714.352 781.015, 717.920 781.442, 718.740 " fill="none" stroke="rgb(0, 0, 0)" stroke-linecap="butt" stroke-linejoin="round" stroke-opacity="1.0" stroke-width="3.0" />
            <path d=" M 400.770, 405.840 395.727, 404.053 395.562, 403.326 395.253, 401.961 395.306, 401.837 396.580, 398.878 396.706, 398.609 396.925, 398.140 397.026, 397.925 397.064, 397.842 397.162, 397.633 397.405, 397.113 397.439, 397.042 397.581, 396.737 397.697, 396.490 398.399, 394.988 398.434, 394.914 398.406, 394.947 398.031, 395.398 397.806, 395.669 397.779, 395.701 397.521, 396.011 397.486, 396.053 397.057, 396.915 396.819, 397.392 396.793, 397.444 396.598, 397.836 395.575, 399.892 394.644, 401.763 394.403, 402.360 394.335, 402.530 " fill="none" stroke="rgb(0, 0, 0)" stroke-linecap="butt" stroke-linejoin="round" stroke-opacity="1.0" stroke-width="3.0" />
            <path d=" M 456.624, 772.694 459.199, 773.274 459.547, 773.326 463.348, 773.895 464.087, 774.006 469.356, 774.794 472.132, 774.857 474.200, 774.750 480.434, 773.914 " fill="none" stroke="rgb(0, 0, 0)" stroke-linecap="butt" stroke-linejoin="round" stroke-opacity="1.0" stroke-width="3.0" />
            <path d=" M 818.411, 783.333 817.971, 783.718 815.712, 785.226 813.782, 785.860 812.823, 786.660 812.865, 786.814 813.619, 788.802 815.347, 790.591 816.332, 791.308 818.234, 792.693 819.717, 793.772 819.756, 793.800 820.028, 793.998 821.309, 795.304 824.877, 798.943 " fill="none" stroke="rgb(0, 0, 0)" stroke-linecap="butt" stroke-linejoin="round" stroke-opacity="1.0" stroke-width="3.0" />
            <path d=" M 396.849, 639.938 396.833, 640.287 396.591, 645.407 396.918, 646.857 396.919, 646.860 397.400, 648.991 397.425, 649.101 398.014, 652.574 398.323, 654.267 399.229, 657.579 399.705, 658.722 400.592, 660.547 400.855, 660.678 400.871, 660.686 400.873, 660.687 403.242, 661.870 " fill="none" stroke="rgb(0, 0, 0)" stroke-linecap="butt" stroke-linejoin="round" stroke-opacity="1.0" stroke-width="3.0" />
            <path d=" M 489.638, 697.446 490.693, 697.962 499.413, 697.146 502.090, 696.896 505.438, 696.951 506.979, 696.976 507.844, 696.990 507.844, 696.990 513.162, 694.314 " fill="none" stroke="rgb(0, 0, 0)" stroke-linecap="butt" stroke-linejoin="round" stroke-opacity="1.0" stroke-width="3.0" />
            <path d=" M 477.306, 775.386 482.975, 774.086 488.931, 772.436 489.272, 772.342 491.195, 771.809 492.647, 771.407 493.983, 771.270 494.340, 771.233 494.347, 771.232 494.389, 771.228 496.487, 771.012 500.864, 770.561 501.161, 770.531 " fill="none" stroke="rgb(0, 0, 0)" stroke-linecap="butt" stroke-linejoin="round" stroke-opacity="1.0" stroke-width="3.0" />
            <path d=" M 846.865, 638.794 846.120, 630.382 846.012, 629.164 845.779, 622.045 844.338, 614.500 " fill="none" stroke="rgb(0, 0, 0)" stroke-linecap="butt" stroke-linejoin="round" stroke-opacity="1.0" stroke-width="3.0" />
            <path d=" M 718.980, 526.582 720.376, 529.386 722.173, 534.719 724.586, 539.933 728.733, 549.104 " fill="none" stroke="rgb(0, 0, 0)" stroke-linecap="butt" stroke-linejoin="round" stroke-opacity="1.0" stroke-width="3.0" />
            <path d=" M 799.073, 533.890 799.011, 533.616 797.389, 524.722 796.382, 518.502 794.279, 511.136 794.042, 510.307 794.254, 510.889 794.279, 511.136 " fill="none" stroke="rgb(0, 0, 0)" stroke-linecap="butt" stroke-linejoin="round" stroke-opacity="1.0" stroke-width="3.0" />
            <path d=" M 682.038, 670.410 683.996, 668.610 684.387, 668.276 686.767, 666.242 688.107, 665.819 688.921, 665.562 689.851, 665.664 691.449, 665.841 694.328, 666.158 697.093, 665.234 698.526, 664.755 698.521, 662.640 697.821, 658.606 697.606, 658.209 " fill="none" stroke="rgb(0, 0, 0)" stroke-linecap="butt" stroke-linejoin="round" stroke-opacity="1.0" stroke-width="3.0" />
            <path d=" M 800.724, 747.994 798.924, 749.401 798.470, 753.860 800.403, 755.465 803.433, 757.220 806.606, 757.736 810.640, 758.392 815.682, 758.370 " fill="none" stroke="rgb(0, 0, 0)" stroke-linecap="butt" stroke-linejoin="round" stroke-opacity="1.0" stroke-width="3.0" />
            <path d=" M 345.322, 468.271 342.751, 474.295 342.432, 476.843 344.662, 480.727 344.058, 485.425 344.317, 487.285 346.880, 491.548 " fill="none" stroke="rgb(0, 0, 0)" stroke-linecap="butt" stroke-linejoin="round" stroke-opacity="1.0" stroke-width="3.0" />
            <path d=" M 416.358, 393.438 407.929, 398.819 406.492, 399.736 406.354, 399.824 405.838, 400.316 405.838, 400.316 402.127, 403.850 400.926, 405.611 400.770, 405.840 398.910, 408.569 398.458, 410.048 398.379, 410.307 398.323, 410.489 " fill="none" stroke="rgb(0, 0, 0)" stroke-linecap="butt" stroke-linejoin="round" stroke-opacity="1.0" stroke-width="3.0" />
            <path d=" M 606.319, 625.277 605.834, 626.771 604.407, 631.171 600.070, 633.941 596.426, 635.492 594.217, 638.474 593.113, 640.277 591.006, 642.845 590.647, 643.281 590.369, 643.620 " fill="none" stroke="rgb(0, 0, 0)" stroke-linecap="butt" stroke-linejoin="round" stroke-opacity="1.0" stroke-width="3.0" />
            <path d=" M 833.715, 851.225 831.169, 849.403 826.826, 848.284 825.828, 849.035 825.401, 850.107 825.009, 853.083 826.821, 858.578 830.654, 864.022 " fill="none" stroke="rgb(0, 0, 0)" stroke-linecap="butt" stroke-linejoin="round" stroke-opacity="1.0" stroke-width="3.0" />
            <path d=" M 633.975, 627.709 635.373, 625.859 635.781, 625.319 636.888, 623.666 638.057, 621.725 638.916, 619.206 639.024, 618.889 639.148, 618.526 639.244, 618.388 639.841, 617.530 640.039, 617.244 640.140, 617.099 640.266, 616.919 641.626, 614.962 643.513, 611.044 643.460, 610.684 643.099, 608.276 640.154, 606.577 " fill="none" stroke="rgb(0, 0, 0)" stroke-linecap="butt" stroke-linejoin="round" stroke-opacity="1.0" stroke-width="3.0" />
            <path d=" M 739.345, 800.083 738.873, 799.743 732.818, 795.385 723.885, 791.723 721.682, 790.698 719.997, 789.913 716.263, 788.878 " fill="none" stroke="rgb(0, 0, 0)" stroke-linecap="butt" stroke-linejoin="round" stroke-opacity="1.0" stroke-width="3.0" />
            <path d=" M 393.826, 757.100 396.368, 758.918 397.811, 759.746 404.304, 765.611 408.652, 766.812 411.613, 766.016 413.755, 764.868 415.006, 762.494 " fill="none" stroke="rgb(0, 0, 0)" stroke-linecap="butt" stroke-linejoin="round" stroke-opacity="1.0" stroke-width="3.0" />
            <path d=" M 500.780, 657.687 501.670, 659.037 501.874, 659.347 501.905, 659.393 502.266, 659.998 502.865, 661.001 502.884, 661.032 502.954, 661.149 504.393, 663.559 504.484, 663.712 504.590, 663.889 504.700, 664.073 504.728, 664.120 504.731, 664.126 506.126, 665.905 506.526, 666.416 508.252, 667.633 510.531, 669.999 517.975, 669.586 519.428, 667.050 " fill="none" stroke="rgb(0, 0, 0)" stroke-linecap="butt" stroke-linejoin="round" stroke-opacity="1.0" stroke-width="3.0" />
            <path d=" M 808.377, 763.344 807.298, 763.902 805.973, 766.278 807.982, 769.682 812.378, 772.626 816.618, 775.924 817.099, 776.072 823.993, 778.194 " fill="none" stroke="rgb(0, 0, 0)" stroke-linecap="butt" stroke-linejoin="round" stroke-opacity="1.0" stroke-width="3.0" />
            <path d=" M 585.052, 672.557 585.258, 672.296 585.382, 672.140 585.422, 672.090 585.726, 671.705 585.821, 671.585 585.834, 671.568 585.921, 671.459 586.594, 670.608 586.806, 670.340 590.089, 666.193 589.525, 659.295 589.380, 658.389 589.218, 657.378 589.098, 656.817 588.379, 653.441 588.009, 651.705 587.664, 650.082 587.395, 648.821 587.272, 648.244 " fill="none" stroke="rgb(0, 0, 0)" stroke-linecap="butt" stroke-linejoin="round" stroke-opacity="1.0" stroke-width="3.0" />
            <path d=" M 600.796, 737.215 600.326, 736.714 598.641, 734.915 598.051, 734.285 595.200, 731.243 593.192, 729.100 591.982, 726.529 589.309, 720.850 588.251, 718.601 588.217, 718.530 587.487, 716.977 586.694, 715.294 586.629, 715.156 " fill="none" stroke="rgb(0, 0, 0)" stroke-linecap="butt" stroke-linejoin="round" stroke-opacity="1.0" stroke-width="3.0" />
            <path d=" M 777.674, 675.327 782.389, 684.145 785.778, 690.482 786.761, 692.790 788.558, 697.000 789.684, 698.984 " fill="none" stroke="rgb(0, 0, 0)" stroke-linecap="butt" stroke-linejoin="round" stroke-opacity="1.0" stroke-width="3.0" />
            <path d=" M 559.570, 562.502 559.092, 562.126 558.038, 561.296 557.623, 560.970 555.404, 559.224 552.324, 557.342 547.416, 555.259 542.152, 554.630 541.945, 554.605 534.732, 554.550 " fill="none" stroke="rgb(0, 0, 0)" stroke-linecap="butt" stroke-linejoin="round" stroke-opacity="1.0" stroke-width="3.0" />
            <path d=" M 778.468, 909.035 779.023, 909.496 780.665, 910.526 781.219, 910.874 781.299, 910.924 782.306, 911.556 782.429, 911.633 782.669, 911.784 783.559, 912.343 783.960, 912.594 786.220, 914.013 786.445, 914.154 786.457, 914.162 786.597, 914.250 786.989, 914.456 787.026, 914.476 787.199, 914.567 787.581, 914.769 788.487, 915.247 788.504, 915.256 790.511, 916.314 790.902, 916.521 791.005, 916.575 791.461, 916.905 791.672, 917.059 793.237, 918.194 793.648, 918.491 793.801, 918.602 794.145, 918.851 794.292, 918.958 794.370, 919.015 794.631, 919.204 794.990, 919.464 795.378, 919.745 795.812, 920.060 795.903, 920.112 796.873, 920.671 797.156, 920.834 798.438, 921.572 800.079, 922.516 800.987, 923.040 801.575, 923.378 801.611, 923.398 " fill="none" stroke="rgb(0, 0, 0)" stroke-linecap="butt" stroke-linejoin="round" stroke-opacity="1.0" stroke-width="3.0" />
            <path d=" M 684.114, 653.663 686.917, 651.587 689.131, 651.404 689.792, 651.349 689.877, 651.342 691.443, 651.213 691.553, 651.204 691.940, 651.172 694.326, 650.975 694.495, 650.961 696.074, 649.845 696.472, 649.563 697.508, 648.705 697.458, 647.149 697.417, 645.886 697.319, 642.846 696.733, 639.816 696.306, 639.258 695.229, 637.847 695.200, 637.810 694.498, 636.890 " fill="none" stroke="rgb(0, 0, 0)" stroke-linecap="butt" stroke-linejoin="round" stroke-opacity="1.0" stroke-width="3.0" />
            <path d=" M 634.162, 801.621 636.497, 801.794 642.715, 804.208 645.044, 804.316 645.525, 804.338 650.625, 806.304 652.361, 806.974 653.205, 807.299 659.744, 811.815 " fill="none" stroke="rgb(0, 0, 0)" stroke-linecap="butt" stroke-linejoin="round" stroke-opacity="1.0" stroke-width="3.0" />
            <path d=" M 901.273, 827.986 901.306, 824.681 901.375, 817.829 901.365, 811.319 901.523, 801.320 901.550, 799.647 " fill="none" stroke="rgb(0, 0, 0)" stroke-linecap="butt" stroke-linejoin="round" stroke-opacity="1.0" stroke-width="3.0" />
            <path d=" M 479.583, 733.094 481.953, 736.692 486.322, 739.181 486.736, 739.374 487.202, 739.592 487.305, 739.640 492.924, 742.265 499.365, 746.040 502.160, 747.921 503.212, 748.629 " fill="none" stroke="rgb(0, 0, 0)" stroke-linecap="butt" stroke-linejoin="round" stroke-opacity="1.0" stroke-width="3.0" />
            <path d=" M 756.296, 633.428 757.477, 637.677 758.764, 641.213 761.608, 648.216 764.331, 653.230 765.641, 657.083 767.639, 659.726 " fill="none" stroke="rgb(0, 0, 0)" stroke-linecap="butt" stroke-linejoin="round" stroke-opacity="1.0" stroke-width="3.0" />
            <path d=" M 604.542, 798.431 605.344, 799.610 606.743, 803.157 611.102, 809.876 611.704, 810.925 612.178, 811.751 612.247, 811.870 615.472, 815.535 616.300, 816.421 613.799, 812.650 611.704, 810.925 " fill="none" stroke="rgb(0, 0, 0)" stroke-linecap="butt" stroke-linejoin="round" stroke-opacity="1.0" stroke-width="3.0" />
            <path d=" M 567.847, 363.039 566.180, 362.273 562.809, 360.726 557.175, 358.381 553.045, 358.435 546.433, 355.595 540.859, 353.586 " fill="none" stroke="rgb(0, 0, 0)" stroke-linecap="butt" stroke-linejoin="round" stroke-opacity="1.0" stroke-width="3.0" />
            <path d=" M 459.547, 773.326 464.618, 774.917 474.513, 776.363 475.585, 776.519 481.468, 776.187 485.490, 774.888 488.289, 773.837 " fill="none" stroke="rgb(0, 0, 0)" stroke-linecap="butt" stroke-linejoin="round" stroke-opacity="1.0" stroke-width="3.0" />
            <path d=" M 719.318, 441.434 720.825, 439.351 721.294, 437.938 722.474, 434.385 722.201, 431.782 719.661, 424.645 717.654, 420.463 714.799, 414.094 " fill="none" stroke="rgb(0, 0, 0)" stroke-linecap="butt" stroke-linejoin="round" stroke-opacity="1.0" stroke-width="3.0" />
            <path d=" M 681.709, 644.553 683.566, 642.823 683.575, 642.814 684.060, 642.362 687.778, 640.477 690.388, 639.402 690.403, 639.396 690.572, 639.326 690.682, 639.281 692.677, 638.459 694.498, 636.890 694.685, 636.728 694.470, 633.557 694.463, 633.454 694.449, 633.242 694.401, 632.529 694.227, 629.964 691.281, 626.284 688.765, 625.020 " fill="none" stroke="rgb(0, 0, 0)" stroke-linecap="butt" stroke-linejoin="round" stroke-opacity="1.0" stroke-width="3.0" />
            <path d=" M 674.592, 600.036 670.802, 603.391 670.740, 603.426 670.172, 603.740 667.795, 605.056 664.952, 606.631 663.361, 607.227 663.118, 607.318 661.728, 607.839 661.269, 608.011 659.514, 608.669 657.904, 609.072 655.827, 609.592 647.686, 611.631 " fill="none" stroke="rgb(0, 0, 0)" stroke-linecap="butt" stroke-linejoin="round" stroke-opacity="1.0" stroke-width="3.0" />
            <path d=" M 426.567, 376.402 426.354, 375.798 423.373, 374.959 421.077, 375.397 416.649, 377.613 416.466, 377.705 414.666, 378.605 409.097, 383.857 404.464, 386.254 403.597, 387.224 403.099, 387.781 402.637, 388.298 402.542, 388.405 402.150, 388.843 402.037, 388.970 " fill="none" stroke="rgb(0, 0, 0)" stroke-linecap="butt" stroke-linejoin="round" stroke-opacity="1.0" stroke-width="3.0" />
            <path d=" M 396.598, 397.836 396.380, 398.115 396.226, 398.311 395.888, 398.744 395.613, 399.095 395.480, 399.264 392.785, 402.708 389.096, 405.435 383.313, 413.593 383.193, 413.763 380.809, 415.940 377.923, 418.707 376.766, 419.816 " fill="none" stroke="rgb(0, 0, 0)" stroke-linecap="butt" stroke-linejoin="round" stroke-opacity="1.0" stroke-width="3.0" />
            <path d=" M 387.988, 425.845 382.771, 434.376 382.585, 434.681 380.395, 437.948 377.398, 440.696 371.588, 447.323 370.485, 450.080 " fill="none" stroke="rgb(0, 0, 0)" stroke-linecap="butt" stroke-linejoin="round" stroke-opacity="1.0" stroke-width="3.0" />
            <path d=" M 575.193, 582.762 576.093, 582.105 579.798, 576.965 577.875, 579.386 575.304, 582.623 575.193, 582.762 575.024, 582.975 572.220, 585.741 571.942, 586.016 571.494, 586.458 571.317, 586.633 571.273, 586.676 571.236, 586.712 571.211, 586.748 570.998, 587.048 570.783, 587.350 570.592, 587.620 568.111, 591.115 567.969, 591.268 567.870, 591.375 566.209, 593.172 566.197, 593.190 565.210, 594.599 565.151, 594.685 " fill="none" stroke="rgb(0, 0, 0)" stroke-linecap="butt" stroke-linejoin="round" stroke-opacity="1.0" stroke-width="3.0" />
            <path d=" M 828.708, 823.900 827.310, 823.333 824.207, 824.296 822.371, 825.575 825.164, 832.744 826.964, 837.932 829.701, 842.970 830.886, 844.700 831.357, 845.388 832.522, 847.088 " fill="none" stroke="rgb(0, 0, 0)" stroke-linecap="butt" stroke-linejoin="round" stroke-opacity="1.0" stroke-width="3.0" />
            <path d=" M 391.165, 701.555 389.699, 703.379 387.039, 707.306 385.102, 709.805 383.249, 711.614 378.289, 717.901 376.996, 718.941 376.337, 719.471 375.923, 719.804 374.196, 721.935 373.403, 723.151 371.426, 725.424 371.331, 725.533 " fill="none" stroke="rgb(0, 0, 0)" stroke-linecap="butt" stroke-linejoin="round" stroke-opacity="1.0" stroke-width="3.0" />
            <path d=" M 474.741, 693.272 476.025, 695.490 477.728, 697.132 478.122, 697.277 480.165, 698.032 480.563, 698.179 480.885, 698.206 482.641, 698.352 483.871, 698.455 489.638, 697.446 489.891, 697.402 492.705, 696.249 493.183, 696.053 496.978, 694.498 497.547, 694.440 503.457, 693.845 " fill="none" stroke="rgb(0, 0, 0)" stroke-linecap="butt" stroke-linejoin="round" stroke-opacity="1.0" stroke-width="3.0" />
            <path d=" M 730.625, 573.771 734.426, 576.717 743.120, 581.657 744.209, 582.276 749.016, 586.393 752.676, 590.671 753.022, 591.075 753.160, 591.237 755.214, 593.637 " fill="none" stroke="rgb(0, 0, 0)" stroke-linecap="butt" stroke-linejoin="round" stroke-opacity="1.0" stroke-width="3.0" />
            <path d=" M 705.448, 469.832 701.752, 464.490 701.139, 463.604 700.305, 462.400 698.286, 458.998 698.078, 458.647 697.975, 458.473 697.854, 458.270 695.034, 455.498 690.506, 451.707 690.463, 451.692 690.220, 451.605 687.168, 450.508 682.938, 448.261 " fill="none" stroke="rgb(0, 0, 0)" stroke-linecap="butt" stroke-linejoin="round" stroke-opacity="1.0" stroke-width="3.0" />
            <path d=" M 717.004, 421.173 716.840, 420.363 714.799, 414.094 713.401, 411.835 708.595, 404.583 701.658, 397.380 700.360, 396.033 698.887, 395.511 " fill="none" stroke="rgb(0, 0, 0)" stroke-linecap="butt" stroke-linejoin="round" stroke-opacity="1.0" stroke-width="3.0" />
            <path d=" M 624.103, 756.983 623.636, 756.429 622.955, 755.620 621.291, 753.644 621.291, 753.644 620.666, 751.510 619.727, 748.855 616.423, 744.898 611.140, 743.984 606.403, 739.681 602.226, 738.033 601.889, 737.873 601.827, 737.844 601.121, 737.509 601.038, 737.470 600.883, 737.396 600.424, 737.178 " fill="none" stroke="rgb(0, 0, 0)" stroke-linecap="butt" stroke-linejoin="round" stroke-opacity="1.0" stroke-width="3.0" />
            <path d=" M 765.674, 638.838 767.092, 648.737 767.147, 649.117 768.485, 653.864 770.426, 661.793 771.269, 663.431 775.414, 669.896 " fill="none" stroke="rgb(0, 0, 0)" stroke-linecap="butt" stroke-linejoin="round" stroke-opacity="1.0" stroke-width="3.0" />
            <path d=" M 727.272, 530.150 726.196, 527.968 724.781, 524.069 722.474, 519.362 721.345, 515.285 719.361, 510.738 717.656, 506.197 715.535, 504.085 711.385, 503.739 711.316, 503.770 " fill="none" stroke="rgb(0, 0, 0)" stroke-linecap="butt" stroke-linejoin="round" stroke-opacity="1.0" stroke-width="3.0" />
            <path d=" M 694.159, 428.695 693.799, 428.054 693.105, 426.818 688.209, 418.098 688.093, 417.892 680.151, 411.817 679.825, 411.568 676.433, 408.558 676.153, 408.311 673.141, 405.660 672.033, 404.685 " fill="none" stroke="rgb(0, 0, 0)" stroke-linecap="butt" stroke-linejoin="round" stroke-opacity="1.0" stroke-width="3.0" />
            <path d=" M 793.882, 845.019 794.887, 842.811 795.623, 839.939 795.522, 837.188 795.510, 836.867 793.666, 830.569 791.075, 824.611 787.407, 820.951 780.771, 819.790 " fill="none" stroke="rgb(0, 0, 0)" stroke-linecap="butt" stroke-linejoin="round" stroke-opacity="1.0" stroke-width="3.0" />
            <path d=" M 824.982, 808.476 823.050, 808.577 821.810, 810.027 821.991, 813.739 823.137, 815.426 828.631, 823.782 828.708, 823.900 829.520, 825.135 833.178, 829.689 837.550, 834.320 837.918, 834.990 " fill="none" stroke="rgb(0, 0, 0)" stroke-linecap="butt" stroke-linejoin="round" stroke-opacity="1.0" stroke-width="3.0" />
            <path d=" M 780.850, 719.047 779.838, 719.990 776.658, 722.952 776.807, 724.992 779.392, 728.319 783.243, 729.307 790.794, 729.993 797.227, 730.244 797.352, 730.249 797.874, 730.429 800.444, 731.318 801.473, 731.474 " fill="none" stroke="rgb(0, 0, 0)" stroke-linecap="butt" stroke-linejoin="round" stroke-opacity="1.0" stroke-width="3.0" />
            <path d=" M 688.001, 619.568 687.022, 616.001 687.586, 609.462 689.204, 604.988 692.549, 601.520 695.193, 596.371 695.743, 594.414 695.026, 588.847 694.784, 587.552 " fill="none" stroke="rgb(0, 0, 0)" stroke-linecap="butt" stroke-linejoin="round" stroke-opacity="1.0" stroke-width="3.0" />
            <path d=" M 719.111, 821.122 720.216, 822.338 726.693, 829.465 730.605, 830.767 733.068, 832.473 733.350, 832.668 735.495, 834.154 736.762, 835.031 737.627, 835.332 738.090, 835.493 740.322, 836.269 747.941, 839.036 747.973, 839.047 " fill="none" stroke="rgb(0, 0, 0)" stroke-linecap="butt" stroke-linejoin="round" stroke-opacity="1.0" stroke-width="3.0" />
            <path d=" M 891.851, 700.092 890.910, 696.065 887.877, 692.033 886.346, 688.105 885.364, 685.585 881.480, 681.446 878.963, 679.696 875.555, 676.198 871.893, 672.509 " fill="none" stroke="rgb(0, 0, 0)" stroke-linecap="butt" stroke-linejoin="round" stroke-opacity="1.0" stroke-width="3.0" />
            <path d=" M 734.168, 538.855 730.598, 535.361 727.272, 530.150 726.109, 528.328 723.409, 523.263 721.834, 519.029 720.758, 516.291 718.813, 511.998 717.673, 508.492 " fill="none" stroke="rgb(0, 0, 0)" stroke-linecap="butt" stroke-linejoin="round" stroke-opacity="1.0" stroke-width="3.0" />
            <path d=" M 653.988, 666.325 654.847, 667.738 658.490, 673.730 660.560, 675.631 661.637, 676.620 663.456, 678.291 664.482, 678.686 664.526, 678.702 665.118, 678.930 665.435, 679.041 666.791, 679.513 669.142, 679.507 669.158, 679.507 669.333, 679.507 670.847, 679.503 673.419, 677.613 673.471, 677.579 678.272, 674.420 681.147, 672.528 " fill="none" stroke="rgb(0, 0, 0)" stroke-linecap="butt" stroke-linejoin="round" stroke-opacity="1.0" stroke-width="3.0" />
            <path d=" M 351.618, 480.856 351.558, 480.997 350.603, 483.227 350.417, 483.662 350.111, 484.375 348.449, 488.257 347.781, 490.135 347.705, 490.350 347.676, 490.431 347.366, 491.304 347.147, 491.918 347.131, 491.965 346.953, 492.465 346.564, 493.559 346.525, 493.669 346.324, 495.148 345.991, 497.596 344.095, 501.568 343.045, 503.767 343.321, 502.417 344.022, 498.991 345.193, 496.489 346.564, 493.559 " fill="none" stroke="rgb(0, 0, 0)" stroke-linecap="butt" stroke-linejoin="round" stroke-opacity="1.0" stroke-width="3.0" />
            <path d=" M 853.760, 708.614 856.921, 717.752 859.884, 727.303 860.033, 727.783 864.143, 736.900 866.410, 741.930 " fill="none" stroke="rgb(0, 0, 0)" stroke-linecap="butt" stroke-linejoin="round" stroke-opacity="1.0" stroke-width="3.0" />
            <path d=" M 375.231, 624.721 378.809, 632.353 380.641, 638.254 382.012, 641.972 385.425, 644.094 388.431, 644.527 392.736, 647.282 397.400, 648.991 " fill="none" stroke="rgb(0, 0, 0)" stroke-linecap="butt" stroke-linejoin="round" stroke-opacity="1.0" stroke-width="3.0" />
            <path d=" M 526.195, 729.899 522.780, 729.854 520.382, 729.822 513.039, 730.038 506.520, 730.481 496.536, 729.917 495.841, 729.878 494.360, 729.600 492.835, 729.314 490.745, 727.905 " fill="none" stroke="rgb(0, 0, 0)" stroke-linecap="butt" stroke-linejoin="round" stroke-opacity="1.0" stroke-width="3.0" />
            <path d=" M 799.052, 623.571 803.157, 632.689 803.893, 634.322 805.952, 644.107 806.002, 644.347 805.952, 648.588 805.923, 648.901 805.548, 652.893 805.449, 653.942 805.424, 654.212 805.345, 655.054 804.909, 656.680 804.903, 656.700 804.312, 658.905 " fill="none" stroke="rgb(0, 0, 0)" stroke-linecap="butt" stroke-linejoin="round" stroke-opacity="1.0" stroke-width="3.0" />
            <path d=" M 410.969, 599.054 409.141, 605.303 408.689, 606.849 408.668, 606.922 407.550, 610.743 406.629, 613.771 406.600, 613.865 406.062, 615.636 400.790, 621.123 400.019, 625.708 399.940, 626.172 399.639, 627.965 399.371, 629.445 399.355, 629.531 399.159, 630.615 399.122, 630.818 399.072, 631.095 398.988, 631.559 398.678, 633.270 " fill="none" stroke="rgb(0, 0, 0)" stroke-linecap="butt" stroke-linejoin="round" stroke-opacity="1.0" stroke-width="3.0" />
            <path d=" M 424.028, 759.309 429.255, 762.207 432.990, 764.358 439.629, 767.686 444.857, 769.586 451.399, 771.905 456.624, 772.694 458.372, 772.958 459.077, 773.064 " fill="none" stroke="rgb(0, 0, 0)" stroke-linecap="butt" stroke-linejoin="round" stroke-opacity="1.0" stroke-width="3.0" />
            <path d=" M 844.373, 615.721 844.338, 614.500 844.186, 609.282 843.695, 608.380 840.918, 601.297 840.783, 597.123 839.521, 590.705 839.195, 585.785 838.612, 583.902 836.956, 578.551 " fill="none" stroke="rgb(0, 0, 0)" stroke-linecap="butt" stroke-linejoin="round" stroke-opacity="1.0" stroke-width="3.0" />
            <path d=" M 650.942, 639.772 651.257, 639.836 651.458, 639.876 651.514, 639.969 651.883, 640.575 652.339, 641.324 652.483, 641.559 653.484, 643.203 656.021, 645.180 657.877, 647.764 659.779, 650.411 661.149, 651.466 662.492, 652.501 663.254, 652.882 665.200, 653.856 667.918, 654.887 669.578, 653.682 670.968, 652.320 671.513, 651.461 673.719, 647.982 674.251, 647.144 676.016, 642.742 " fill="none" stroke="rgb(0, 0, 0)" stroke-linecap="butt" stroke-linejoin="round" stroke-opacity="1.0" stroke-width="3.0" />
            <path d=" M 343.045, 503.767 341.041, 513.150 340.313, 523.124 340.233, 524.216 339.679, 534.201 339.595, 535.723 340.248, 538.034 340.295, 538.198 341.320, 541.822 " fill="none" stroke="rgb(0, 0, 0)" stroke-linecap="butt" stroke-linejoin="round" stroke-opacity="1.0" stroke-width="3.0" />
            <path d=" M 347.296, 581.694 348.148, 584.143 348.494, 585.139 348.637, 585.548 349.702, 588.612 353.309, 595.375 357.971, 604.222 359.483, 607.092 362.247, 609.805 362.688, 610.237 367.415, 614.334 " fill="none" stroke="rgb(0, 0, 0)" stroke-linecap="butt" stroke-linejoin="round" stroke-opacity="1.0" stroke-width="3.0" />
            <path d=" M 708.938, 521.517 709.700, 523.707 711.005, 526.855 712.399, 531.566 715.269, 538.179 717.811, 545.155 719.675, 549.746 721.185, 552.917 723.121, 558.027 " fill="none" stroke="rgb(0, 0, 0)" stroke-linecap="butt" stroke-linejoin="round" stroke-opacity="1.0" stroke-width="3.0" />
            <path d=" M 600.189, 792.096 600.196, 792.180 600.232, 792.616 600.939, 793.149 603.073, 794.760 610.870, 797.994 614.986, 799.531 622.008, 801.139 627.587, 802.183 634.162, 801.621 636.967, 801.382 " fill="none" stroke="rgb(0, 0, 0)" stroke-linecap="butt" stroke-linejoin="round" stroke-opacity="1.0" stroke-width="3.0" />
            <path d=" M 393.415, 754.006 395.577, 754.563 405.181, 757.350 405.280, 757.379 408.558, 756.851 408.984, 756.651 409.006, 756.640 409.617, 756.353 411.637, 755.644 411.873, 755.561 411.984, 755.522 412.194, 755.448 412.551, 755.322 413.026, 755.156 413.232, 755.084 413.418, 755.018 414.417, 754.667 414.461, 754.623 414.465, 754.618 415.500, 753.556 415.501, 753.555 415.717, 753.334 415.761, 753.228 416.769, 750.833 416.976, 750.342 417.144, 749.943 417.152, 749.924 417.399, 749.338 418.136, 747.587 422.424, 744.159 423.500, 742.191 423.800, 739.809 " fill="none" stroke="rgb(0, 0, 0)" stroke-linecap="butt" stroke-linejoin="round" stroke-opacity="1.0" stroke-width="3.0" />
            <path d=" M 718.338, 863.219 723.013, 866.343 729.224, 870.492 730.172, 871.248 731.129, 872.011 735.268, 875.312 737.823, 877.203 738.256, 877.523 738.275, 877.537 741.024, 879.573 741.107, 879.634 743.479, 881.193 743.774, 881.386 743.941, 881.496 746.414, 883.120 747.229, 883.656 747.408, 883.773 749.539, 885.173 750.099, 885.541 750.142, 885.569 750.317, 885.684 750.324, 885.689 751.222, 886.279 751.744, 886.621 " fill="none" stroke="rgb(0, 0, 0)" stroke-linecap="butt" stroke-linejoin="round" stroke-opacity="1.0" stroke-width="3.0" />
            <path d=" M 579.645, 362.864 577.211, 360.883 575.986, 359.913 574.867, 359.027 574.862, 359.023 574.836, 359.016 570.580, 357.879 570.556, 357.873 561.948, 355.573 559.220, 354.207 558.929, 354.061 558.160, 353.676 554.136, 353.465 553.658, 353.440 553.064, 353.409 552.980, 353.405 552.795, 353.395 550.878, 353.294 550.292, 353.215 547.151, 352.788 544.645, 351.963 544.160, 351.803 541.294, 350.859 540.699, 350.867 " fill="none" stroke="rgb(0, 0, 0)" stroke-linecap="butt" stroke-linejoin="round" stroke-opacity="1.0" stroke-width="3.0" />
            <path d=" M 579.798, 576.965 581.725, 575.820 585.383, 575.056 588.683, 574.366 589.196, 574.102 589.436, 573.979 590.618, 573.371 591.265, 572.866 591.333, 572.813 592.823, 571.650 593.108, 571.428 593.229, 571.333 597.119, 568.325 599.003, 566.994 599.362, 566.741 601.938, 564.921 603.558, 563.776 608.081, 560.671 610.211, 559.761 612.821, 558.708 613.068, 558.609 613.363, 558.490 613.557, 558.486 613.588, 558.485 616.635, 558.417 " fill="none" stroke="rgb(0, 0, 0)" stroke-linecap="butt" stroke-linejoin="round" stroke-opacity="1.0" stroke-width="3.0" />
            <path d=" M 368.925, 448.841 366.600, 450.429 365.356, 451.279 364.957, 451.552 364.885, 451.602 364.358, 451.961 363.446, 452.585 363.037, 454.030 362.697, 455.230 362.330, 456.523 362.295, 456.579 360.628, 459.237 358.040, 463.361 356.935, 464.953 356.840, 465.090 354.738, 468.120 354.653, 468.242 354.611, 468.382 354.589, 468.455 354.170, 469.840 352.746, 474.555 352.490, 475.403 352.342, 476.324 352.338, 476.352 352.323, 476.445 352.228, 477.042 352.019, 478.348 351.963, 478.697 351.821, 479.587 351.618, 480.855 351.599, 480.979 351.618, 480.856 351.817, 479.596 351.960, 478.693 352.015, 478.345 352.216, 477.071 352.326, 476.371 352.342, 476.324 " fill="none" stroke="rgb(0, 0, 0)" stroke-linecap="butt" stroke-linejoin="round" stroke-opacity="1.0" stroke-width="3.0" />
            <path d=" M 787.361, 914.738 788.779, 916.232 789.404, 916.890 789.664, 917.163 789.686, 917.187 789.717, 917.219 789.866, 917.376 789.920, 917.433 790.553, 918.100 790.989, 918.559 791.522, 919.120 792.450, 919.935 798.209, 924.992 800.694, 926.273 802.126, 927.326 803.142, 928.073 803.539, 928.365 803.547, 928.371 805.553, 929.846 805.556, 929.848 806.736, 930.716 810.536, 933.139 811.934, 934.136 812.775, 934.737 812.832, 934.778 813.599, 935.325 814.003, 935.614 814.398, 935.819 817.993, 937.689 818.547, 937.977 820.425, 938.705 820.839, 938.866 821.784, 939.232 " fill="none" stroke="rgb(0, 0, 0)" stroke-linecap="butt" stroke-linejoin="round" stroke-opacity="1.0" stroke-width="3.0" />
            <path d=" M 635.095, 737.921 638.330, 739.546 643.794, 741.387 644.869, 741.739 647.859, 741.907 649.404, 741.575 650.370, 740.749 650.633, 740.022 650.884, 738.471 646.982, 733.920 641.823, 728.406 639.020, 726.662 634.427, 724.779 632.351, 721.726 631.785, 721.310 " fill="none" stroke="rgb(0, 0, 0)" stroke-linecap="butt" stroke-linejoin="round" stroke-opacity="1.0" stroke-width="3.0" />
            <path d=" M 758.704, 601.226 758.779, 601.443 759.153, 602.521 759.370, 603.150 761.727, 609.955 764.457, 617.970 766.776, 624.365 767.488, 626.328 768.408, 630.581 768.963, 633.148 769.451, 637.745 769.461, 643.683 769.462, 644.546 " fill="none" stroke="rgb(0, 0, 0)" stroke-linecap="butt" stroke-linejoin="round" stroke-opacity="1.0" stroke-width="3.0" />
            <path d=" M 830.886, 844.700 829.698, 843.033 823.597, 836.132 819.439, 835.259 818.203, 837.026 818.764, 841.767 820.277, 846.303 821.681, 851.073 822.896, 854.249 823.456, 858.590 824.644, 863.574 " fill="none" stroke="rgb(0, 0, 0)" stroke-linecap="butt" stroke-linejoin="round" stroke-opacity="1.0" stroke-width="3.0" />
            <path d=" M 838.306, 940.298 839.258, 940.437 840.090, 940.559 842.413, 940.899 842.582, 940.924 842.893, 940.969 844.231, 940.876 844.830, 940.834 845.353, 940.798 846.716, 940.703 852.664, 939.169 857.332, 937.800 858.946, 936.985 865.153, 932.067 865.242, 931.169 867.696, 927.800 868.988, 925.249 869.096, 922.462 868.935, 921.937 868.048, 920.583 866.130, 917.658 866.010, 917.475 " fill="none" stroke="rgb(0, 0, 0)" stroke-linecap="butt" stroke-linejoin="round" stroke-opacity="1.0" stroke-width="3.0" />
            <path d=" M 645.044, 804.316 645.729, 804.765 652.400, 810.136 653.158, 810.916 657.792, 814.102 660.667, 816.522 665.212, 819.526 671.330, 822.214 679.212, 825.970 682.881, 827.551 684.341, 828.180 " fill="none" stroke="rgb(0, 0, 0)" stroke-linecap="butt" stroke-linejoin="round" stroke-opacity="1.0" stroke-width="3.0" />
            <path d=" M 718.118, 863.060 718.338, 863.219 719.987, 864.286 718.626, 863.393 718.118, 863.060 709.755, 857.576 703.315, 853.352 701.120, 851.975 693.116, 845.981 691.476, 844.753 683.849, 838.439 " fill="none" stroke="rgb(0, 0, 0)" stroke-linecap="butt" stroke-linejoin="round" stroke-opacity="1.0" stroke-width="3.0" />
            <path d=" M 750.489, 887.251 751.477, 888.105 751.682, 888.283 754.643, 890.842 755.196, 891.271 759.040, 894.254 759.135, 894.327 759.722, 894.782 759.971, 894.976 760.977, 895.756 761.191, 895.922 760.997, 895.760 759.743, 894.717 759.718, 894.696 759.599, 894.597 755.382, 891.087 754.530, 890.378 751.730, 888.212 751.488, 888.025 750.489, 887.251 750.114, 886.961 750.081, 886.936 745.955, 883.744 745.747, 883.580 745.220, 883.164 743.999, 882.201 742.192, 880.775 738.432, 877.808 738.420, 877.798 737.916, 877.401 735.268, 875.312 " fill="none" stroke="rgb(0, 0, 0)" stroke-linecap="butt" stroke-linejoin="round" stroke-opacity="1.0" stroke-width="3.0" />
            <path d=" M 754.643, 890.842 755.169, 891.298 757.469, 893.288 757.494, 893.310 760.977, 896.325 761.749, 896.993 764.555, 899.658 764.719, 899.813 765.207, 900.277 765.701, 900.746 766.092, 901.118 766.960, 901.670 767.741, 902.167 770.440, 903.884 771.568, 904.602 771.646, 904.652 775.279, 906.963 775.286, 906.967 775.297, 906.974 775.336, 906.999 775.565, 907.145 776.719, 907.879 777.850, 908.520 778.896, 909.114 779.540, 909.479 780.198, 909.802 780.646, 910.022 780.985, 910.188 781.056, 910.223 781.474, 910.428 781.605, 910.493 783.054, 911.203 783.693, 911.517 785.012, 912.164 785.576, 912.440 787.044, 913.161 788.518, 913.884 789.881, 914.553 790.022, 914.622 789.858, 914.520 788.807, 913.868 786.263, 912.289 " fill="none" stroke="rgb(0, 0, 0)" stroke-linecap="butt" stroke-linejoin="round" stroke-opacity="1.0" stroke-width="3.0" />
            <path d=" M 586.427, 792.735 588.314, 795.179 591.985, 798.803 597.964, 804.875 601.630, 808.486 605.250, 811.364 612.833, 817.883 615.513, 820.187 617.973, 820.993 618.693, 820.222 617.863, 818.758 616.300, 816.421 " fill="none" stroke="rgb(0, 0, 0)" stroke-linecap="butt" stroke-linejoin="round" stroke-opacity="1.0" stroke-width="3.0" />
            <path d=" M 627.290, 525.069 629.576, 519.836 630.227, 518.345 633.928, 509.861 636.634, 500.234 637.398, 497.514 638.538, 488.757 638.565, 488.546 638.576, 488.465 638.589, 488.362 638.656, 487.846 639.377, 479.240 639.419, 478.742 " fill="none" stroke="rgb(0, 0, 0)" stroke-linecap="butt" stroke-linejoin="round" stroke-opacity="1.0" stroke-width="3.0" />
            <path d=" M 437.730, 662.526 444.927, 667.874 445.819, 668.536 445.876, 668.579 450.975, 672.164 452.622, 673.703 459.927, 680.532 460.240, 680.824 462.887, 682.981 464.998, 685.134 467.702, 687.539 472.135, 691.421 474.741, 693.272 474.837, 693.341 " fill="none" stroke="rgb(0, 0, 0)" stroke-linecap="butt" stroke-linejoin="round" stroke-opacity="1.0" stroke-width="3.0" />
            <path d=" M 343.321, 502.417 342.566, 504.674 340.561, 514.471 339.780, 518.286 338.569, 528.212 338.384, 529.730 338.418, 538.696 339.450, 543.329 340.357, 547.093 340.375, 547.171 340.376, 547.175 340.732, 548.652 341.106, 550.203 " fill="none" stroke="rgb(0, 0, 0)" stroke-linecap="butt" stroke-linejoin="round" stroke-opacity="1.0" stroke-width="3.0" />
            <path d=" M 400.855, 660.678 399.293, 670.555 399.260, 670.763 398.530, 677.809 398.095, 681.725 396.134, 688.921 393.732, 695.034 393.139, 696.136 391.885, 700.276 391.165, 701.555 388.058, 707.078 " fill="none" stroke="rgb(0, 0, 0)" stroke-linecap="butt" stroke-linejoin="round" stroke-opacity="1.0" stroke-width="3.0" />
            <path d=" M 540.962, 628.124 538.767, 624.296 538.703, 624.196 534.519, 619.800 533.454, 615.756 533.425, 615.645 532.504, 612.147 532.288, 611.792 529.360, 606.989 529.137, 606.623 528.034, 604.812 527.906, 604.010 527.171, 599.398 527.068, 598.752 527.937, 597.623 530.059, 594.864 530.244, 594.624 535.475, 587.825 536.266, 586.305 " fill="none" stroke="rgb(0, 0, 0)" stroke-linecap="butt" stroke-linejoin="round" stroke-opacity="1.0" stroke-width="3.0" />
            <path d=" M 374.218, 421.605 372.579, 422.043 368.222, 426.237 364.103, 428.474 358.913, 434.674 358.277, 435.799 354.935, 442.371 353.156, 448.060 350.849, 452.390 349.393, 454.983 348.425, 458.805 347.918, 460.803 " fill="none" stroke="rgb(0, 0, 0)" stroke-linecap="butt" stroke-linejoin="round" stroke-opacity="1.0" stroke-width="3.0" />
            <path d=" M 783.154, 821.012 780.771, 819.790 776.063, 817.375 768.696, 813.671 763.880, 812.206 759.771, 809.768 755.649, 806.668 750.660, 804.937 746.090, 802.781 738.873, 799.743 " fill="none" stroke="rgb(0, 0, 0)" stroke-linecap="butt" stroke-linejoin="round" stroke-opacity="1.0" stroke-width="3.0" />
            <path d=" M 777.019, 928.661 781.091, 930.891 790.566, 934.086 796.177, 935.979 804.098, 937.305 808.769, 937.211 810.147, 938.388 811.459, 939.287 814.825, 939.583 819.144, 940.234 824.133, 940.656 " fill="none" stroke="rgb(0, 0, 0)" stroke-linecap="butt" stroke-linejoin="round" stroke-opacity="1.0" stroke-width="3.0" />
            <path d=" M 538.057, 687.542 537.305, 687.802 533.197, 688.857 527.562, 690.701 522.626, 691.809 519.574, 692.048 516.370, 693.839 513.162, 694.314 512.526, 694.409 511.932, 694.471 511.387, 694.527 509.844, 694.688 508.715, 694.806 506.474, 695.039 500.877, 695.622 505.861, 694.485 507.588, 694.092 511.762, 691.958 " fill="none" stroke="rgb(0, 0, 0)" stroke-linecap="butt" stroke-linejoin="round" stroke-opacity="1.0" stroke-width="3.0" />
            <path d=" M 721.682, 790.698 717.129, 787.453 711.162, 785.389 704.309, 782.227 696.507, 777.381 690.049, 773.866 686.411, 773.708 685.925, 773.745 683.343, 774.305 682.033, 774.890 679.148, 775.104 676.107, 775.329 " fill="none" stroke="rgb(0, 0, 0)" stroke-linecap="butt" stroke-linejoin="round" stroke-opacity="1.0" stroke-width="3.0" />
            <path d=" M 838.612, 583.902 837.499, 578.797 832.548, 571.294 827.136, 565.384 822.250, 560.654 820.419, 557.289 815.925, 551.721 809.868, 543.765 809.393, 543.141 " fill="none" stroke="rgb(0, 0, 0)" stroke-linecap="butt" stroke-linejoin="round" stroke-opacity="1.0" stroke-width="3.0" />
            <path d=" M 800.286, 729.808 800.960, 730.754 800.969, 730.767 801.376, 731.338 801.394, 731.363 801.473, 731.474 802.366, 732.727 805.993, 738.879 808.575, 741.899 811.609, 745.367 812.466, 748.161 812.891, 749.862 813.725, 753.199 814.728, 756.977 815.441, 758.018 815.554, 758.183 815.682, 758.370 816.274, 759.234 816.572, 759.668 817.678, 761.283 819.949, 767.519 820.860, 769.032 821.754, 770.517 821.936, 770.821 822.401, 771.592 822.840, 772.323 824.458, 775.010 824.489, 775.062 " fill="none" stroke="rgb(0, 0, 0)" stroke-linecap="butt" stroke-linejoin="round" stroke-opacity="1.0" stroke-width="3.0" />
            <path d=" M 535.384, 780.542 545.375, 780.124 552.651, 779.820 552.927, 779.809 553.017, 779.805 553.158, 779.799 553.390, 779.789 554.006, 779.764 557.143, 779.997 563.421, 780.464 564.490, 780.544 564.601, 780.552 564.665, 780.557 564.812, 780.568 565.527, 780.621 566.080, 780.662 566.199, 780.671 566.203, 780.671 566.532, 780.696 567.411, 780.761 567.474, 780.766 567.603, 780.775 567.722, 780.784 568.476, 780.840 568.751, 780.861 568.970, 780.877 570.231, 781.038 570.820, 781.113 572.215, 781.291 574.840, 781.625 575.198, 781.671 575.241, 781.676 575.617, 781.724 576.276, 781.808 578.114, 782.042 578.233, 782.058 578.685, 782.115 578.796, 782.129 579.965, 782.278 580.310, 782.322 581.372, 782.458 582.348, 782.582 585.108, 782.934 585.709, 783.010 585.911, 783.036 587.122, 783.191 587.281, 783.211 " fill="none" stroke="rgb(0, 0, 0)" stroke-linecap="butt" stroke-linejoin="round" stroke-opacity="1.0" stroke-width="3.0" />
            <path d=" M 892.225, 885.835 893.213, 883.150 893.425, 882.574 893.590, 882.009 894.570, 876.279 895.633, 869.357 897.757, 859.585 897.919, 858.842 898.878, 851.882 900.254, 842.947 900.727, 836.891 900.891, 833.292 " fill="none" stroke="rgb(0, 0, 0)" stroke-linecap="butt" stroke-linejoin="round" stroke-opacity="1.0" stroke-width="3.0" />
            <path d=" M 901.301, 739.744 901.400, 739.174 902.277, 734.144 901.626, 724.165 901.535, 722.760 900.428, 717.296 899.941, 712.970 897.851, 710.391 895.419, 706.400 894.792, 704.777 892.211, 699.875 890.326, 691.882 886.346, 688.105 " fill="none" stroke="rgb(0, 0, 0)" stroke-linecap="butt" stroke-linejoin="round" stroke-opacity="1.0" stroke-width="3.0" />
            <path d=" M 370.169, 724.663 369.490, 724.506 367.555, 724.057 367.548, 724.056 366.620, 723.841 366.288, 723.764 364.411, 723.961 362.786, 725.499 361.878, 727.694 361.765, 728.117 363.542, 733.922 366.158, 737.917 371.422, 744.269 379.174, 750.587 383.736, 754.307 389.408, 756.530 393.826, 757.100 394.244, 757.154 " fill="none" stroke="rgb(0, 0, 0)" stroke-linecap="butt" stroke-linejoin="round" stroke-opacity="1.0" stroke-width="3.0" />
            <path d=" M 670.454, 402.274 670.276, 400.529 670.276, 400.420 670.247, 395.421 670.239, 394.096 670.666, 391.692 669.846, 386.598 667.809, 382.232 666.979, 380.583 665.353, 377.672 663.958, 376.120 660.887, 372.976 656.562, 371.932 649.031, 371.693 641.632, 371.670 637.374, 374.856 " fill="none" stroke="rgb(0, 0, 0)" stroke-linecap="butt" stroke-linejoin="round" stroke-opacity="1.0" stroke-width="3.0" />
            <path d=" M 502.259, 750.190 501.125, 749.723 493.544, 746.904 483.657, 745.401 482.355, 745.203 479.382, 744.751 473.863, 743.906 471.324, 743.291 469.741, 742.950 464.431, 741.822 456.755, 741.398 450.324, 739.910 446.544, 738.922 " fill="none" stroke="rgb(0, 0, 0)" stroke-linecap="butt" stroke-linejoin="round" stroke-opacity="1.0" stroke-width="3.0" />
            <path d=" M 844.048, 629.332 845.597, 634.532 846.865, 638.794 847.102, 639.588 847.184, 639.863 847.749, 641.763 848.434, 645.417 848.753, 647.114 850.058, 648.796 853.452, 654.899 858.395, 660.082 863.496, 666.362 867.021, 669.223 871.893, 672.509 868.950, 673.468 868.036, 673.766 " fill="none" stroke="rgb(0, 0, 0)" stroke-linecap="butt" stroke-linejoin="round" stroke-opacity="1.0" stroke-width="3.0" />
            <path d=" M 589.098, 656.817 587.697, 648.690 587.674, 648.553 587.448, 647.246 587.378, 646.853 587.195, 645.825 586.378, 641.249 585.903, 638.585 585.469, 636.154 582.533, 626.595 582.002, 624.864 579.211, 615.261 579.015, 614.588 575.200, 609.687 571.432, 604.847 571.277, 604.647 570.474, 603.616 570.471, 603.612 " fill="none" stroke="rgb(0, 0, 0)" stroke-linecap="butt" stroke-linejoin="round" stroke-opacity="1.0" stroke-width="3.0" />
            <path d=" M 656.701, 656.518 656.995, 657.139 658.698, 660.740 658.851, 661.064 660.058, 661.939 660.874, 662.530 662.128, 663.438 663.386, 664.534 663.401, 664.547 665.081, 666.009 668.142, 667.091 673.171, 665.738 677.246, 662.652 678.051, 662.210 678.421, 662.007 680.422, 660.908 682.973, 659.525 684.919, 658.470 685.325, 658.250 685.326, 658.250 685.474, 658.225 689.073, 657.621 689.685, 657.518 690.565, 657.520 694.479, 657.526 696.314, 656.552 696.623, 656.388 697.526, 655.909 698.092, 654.990 698.233, 654.155 698.627, 651.837 698.488, 650.249 697.417, 645.886 " fill="none" stroke="rgb(0, 0, 0)" stroke-linecap="butt" stroke-linejoin="round" stroke-opacity="1.0" stroke-width="3.0" />
            <path d=" M 644.565, 698.068 645.103, 698.083 645.239, 698.087 645.315, 698.089 645.353, 698.090 646.259, 698.115 647.127, 698.934 648.955, 700.658 651.141, 702.720 651.169, 702.739 651.227, 702.780 656.335, 706.371 656.380, 706.403 660.366, 707.692 662.630, 708.555 663.310, 708.777 665.979, 709.651 669.282, 709.817 671.912, 708.272 672.957, 707.183 672.458, 705.943 669.206, 700.703 667.290, 696.610 663.840, 692.374 660.879, 689.563 657.194, 686.688 " fill="none" stroke="rgb(0, 0, 0)" stroke-linecap="butt" stroke-linejoin="round" stroke-opacity="1.0" stroke-width="3.0" />
            <path d=" M 458.761, 614.818 465.694, 622.025 466.279, 622.633 467.946, 624.058 468.411, 624.456 468.598, 624.615 468.780, 624.771 468.844, 624.825 469.621, 625.490 469.691, 625.550 472.052, 627.568 475.938, 630.028 480.879, 633.926 484.288, 636.740 490.810, 642.086 493.490, 646.497 496.550, 652.632 497.243, 654.022 500.780, 657.687 501.008, 657.924 " fill="none" stroke="rgb(0, 0, 0)" stroke-linecap="butt" stroke-linejoin="round" stroke-opacity="1.0" stroke-width="3.0" />
            <path d=" M 655.827, 679.054 656.248, 679.967 656.353, 680.196 657.044, 681.699 657.254, 682.155 658.815, 685.546 658.823, 685.564 660.052, 688.236 660.098, 688.334 661.197, 689.586 666.047, 692.985 669.834, 694.398 672.219, 694.510 674.201, 691.175 676.515, 688.782 677.393, 686.205 678.582, 685.850 682.073, 686.190 686.033, 687.182 687.329, 687.454 690.156, 687.957 691.070, 687.515 692.725, 686.326 692.363, 682.165 692.165, 678.428 691.459, 673.719 " fill="none" stroke="rgb(0, 0, 0)" stroke-linecap="butt" stroke-linejoin="round" stroke-opacity="1.0" stroke-width="3.0" />
            <path d=" M 707.383, 485.677 708.699, 478.605 709.607, 468.998 710.604, 465.601 711.415, 460.906 711.043, 456.111 711.014, 455.950 710.972, 455.714 710.965, 455.676 710.274, 451.788 709.804, 450.727 708.989, 448.883 708.978, 448.857 708.598, 447.998 708.596, 447.994 708.321, 447.371 708.083, 446.833 707.962, 446.559 707.426, 445.346 705.753, 441.858 702.551, 437.646 699.084, 434.719 695.451, 430.375 693.740, 427.781 693.105, 426.818 " fill="none" stroke="rgb(0, 0, 0)" stroke-linecap="butt" stroke-linejoin="round" stroke-opacity="1.0" stroke-width="3.0" />
            <path d=" M 728.771, 572.736 729.500, 574.452 732.499, 581.753 735.840, 587.831 738.254, 592.913 739.404, 595.080 741.657, 600.065 743.338, 603.610 744.618, 605.794 747.539, 612.613 748.589, 614.877 752.775, 623.959 753.429, 625.378 756.296, 633.428 756.806, 634.861 " fill="none" stroke="rgb(0, 0, 0)" stroke-linecap="butt" stroke-linejoin="round" stroke-opacity="1.0" stroke-width="3.0" />
            <path d=" M 615.978, 558.256 616.635, 558.417 619.010, 559.000 620.681, 559.409 620.918, 559.467 624.216, 560.275 627.248, 561.307 628.347, 562.023 633.532, 563.219 634.387, 563.459 643.304, 565.908 652.915, 568.481 654.494, 568.904 659.254, 569.934 667.145, 571.203 673.675, 570.847 676.868, 570.953 680.685, 570.429 685.653, 568.571 685.761, 568.491 " fill="none" stroke="rgb(0, 0, 0)" stroke-linecap="butt" stroke-linejoin="round" stroke-opacity="1.0" stroke-width="3.0" />
            <path d=" M 592.223, 568.094 593.270, 567.162 593.966, 566.109 593.991, 566.070 594.094, 565.914 594.282, 565.629 595.856, 563.249 599.764, 558.884 599.915, 558.715 602.622, 556.104 609.819, 549.161 612.568, 546.510 612.811, 546.275 612.925, 546.165 615.369, 543.726 616.869, 542.228 617.041, 542.057 618.408, 540.277 620.020, 537.885 624.521, 531.323 625.985, 529.081 629.805, 519.839 630.461, 518.251 633.928, 509.861 " fill="none" stroke="rgb(0, 0, 0)" stroke-linecap="butt" stroke-linejoin="round" stroke-opacity="1.0" stroke-width="3.0" />
            <path d=" M 403.870, 533.529 404.062, 537.101 404.763, 540.070 405.358, 542.437 406.624, 550.579 407.250, 554.605 408.097, 561.684 408.730, 567.843 409.317, 573.910 410.092, 578.281 410.834, 582.360 411.042, 592.403 411.043, 592.462 411.137, 596.930 411.197, 597.872 411.030, 599.033 410.987, 599.338 410.188, 604.905 410.083, 605.640 " fill="none" stroke="rgb(0, 0, 0)" stroke-linecap="butt" stroke-linejoin="round" stroke-opacity="1.0" stroke-width="3.0" />
            <path d=" M 664.699, 769.750 663.168, 768.946 655.722, 765.036 652.542, 763.663 650.294, 762.933 646.084, 762.351 643.326, 761.776 642.480, 761.599 639.723, 761.141 638.402, 761.239 638.187, 761.255 635.554, 761.450 631.877, 761.170 631.295, 761.126 630.730, 761.083 627.553, 760.841 622.007, 758.892 619.880, 757.153 619.518, 756.858 619.505, 756.847 619.496, 756.840 619.269, 756.654 617.061, 754.850 616.649, 754.514 613.003, 750.641 608.031, 747.644 605.545, 745.763 605.273, 745.557 601.282, 742.537 598.122, 740.570 " fill="none" stroke="rgb(0, 0, 0)" stroke-linecap="butt" stroke-linejoin="round" stroke-opacity="1.0" stroke-width="3.0" />
            <path d=" M 638.963, 374.822 637.374, 374.856 634.455, 374.917 631.600, 375.061 625.492, 375.118 620.085, 375.087 616.141, 375.420 610.516, 376.157 605.357, 375.565 604.085, 375.220 603.141, 374.964 602.876, 374.892 602.641, 374.828 600.994, 374.382 600.124, 374.146 599.781, 374.053 597.674, 373.335 596.726, 373.012 596.573, 372.960 596.549, 372.952 596.486, 372.930 595.762, 372.684 592.039, 371.039 589.741, 368.845 589.738, 368.842 589.712, 368.817 588.124, 367.302 587.742, 367.215 583.698, 366.297 583.660, 366.289 581.911, 365.892 581.856, 365.890 580.575, 365.843 577.716, 365.738 573.410, 364.975 570.413, 363.605 566.180, 362.273 " fill="none" stroke="rgb(0, 0, 0)" stroke-linecap="butt" stroke-linejoin="round" stroke-opacity="1.0" stroke-width="3.0" />
            <path d=" M 601.090, 737.594 600.964, 737.515 600.833, 737.433 600.424, 737.178 597.928, 735.623 595.034, 733.819 594.627, 733.565 594.559, 733.523 594.211, 733.319 589.435, 730.515 588.053, 729.705 587.686, 729.644 586.568, 729.458 586.315, 729.416 583.655, 728.975 583.339, 728.923 583.221, 728.903 582.873, 728.846 582.872, 728.845 582.862, 728.844 582.610, 728.802 580.932, 728.524 578.790, 728.253 578.376, 728.201 578.119, 728.228 576.014, 728.450 575.807, 728.472 575.748, 728.478 575.462, 728.508 575.460, 728.508 572.862, 728.782 570.806, 731.334 569.407, 733.070 569.349, 733.243 568.791, 734.904 568.670, 735.264 567.950, 740.776 567.871, 741.384 567.705, 742.652 567.688, 742.783 567.606, 743.414 567.535, 743.955 568.163, 745.162 568.288, 745.402 568.659, 746.115 569.152, 747.062 569.413, 747.564 569.569, 747.865 570.155, 748.991 570.601, 749.848 570.729, 750.094 570.981, 750.578 571.242, 750.878 572.775, 752.637 574.413, 754.516 574.620, 754.753 578.293, 758.968 579.397, 760.234 579.487, 760.315 581.112, 761.765 581.125, 761.777 581.865, 762.437 582.000, 762.558 582.418, 762.931 583.026, 763.473 583.250, 763.674 583.930, 764.281 584.003, 764.345 584.426, 764.723 584.818, 765.073 585.219, 765.432 585.773, 765.926 586.047, 766.170 586.260, 766.360 " fill="none" stroke="rgb(0, 0, 0)" stroke-linecap="butt" stroke-linejoin="round" stroke-opacity="1.0" stroke-width="3.0" />
            <path d=" M 521.414, 688.892 521.587, 688.868 522.880, 688.691 523.915, 688.550 524.120, 688.522 524.933, 688.411 530.762, 687.614 531.918, 687.456 532.958, 687.470 538.057, 687.542 540.414, 687.574 548.684, 687.690 553.873, 687.297 556.650, 686.792 566.283, 685.040 568.440, 684.069 569.559, 683.565 569.899, 683.412 573.202, 681.925 577.589, 679.054 578.098, 678.721 579.452, 677.835 579.531, 677.783 579.540, 677.778 579.546, 677.774 580.168, 677.366 582.802, 674.772 584.304, 673.294 584.429, 673.171 585.052, 672.557 585.214, 672.281 585.278, 672.172 585.349, 672.052 585.570, 671.676 585.646, 671.548 585.677, 671.494 585.720, 671.421 586.363, 670.329 586.523, 670.056 589.245, 665.432 589.369, 665.122 589.496, 664.807 " fill="none" stroke="rgb(0, 0, 0)" stroke-linecap="butt" stroke-linejoin="round" stroke-opacity="1.0" stroke-width="3.0" />
            <path d=" M 596.089, 442.860 600.066, 441.832 605.381, 440.834 609.176, 438.864 618.105, 441.485 619.603, 442.202 626.865, 447.166 631.508, 452.735 635.380, 459.363 635.918, 460.776 637.806, 465.735 638.150, 468.065 638.744, 473.060 639.419, 478.742 639.344, 474.542 639.096, 473.120 637.806, 465.735 " fill="none" stroke="rgb(0, 0, 0)" stroke-linecap="butt" stroke-linejoin="round" stroke-opacity="1.0" stroke-width="3.0" />
            <path d=" M 709.712, 505.598 711.316, 503.770 711.594, 503.454 716.468, 494.722 716.696, 494.314 719.583, 487.299 721.844, 477.558 722.151, 476.234 724.529, 471.256 725.461, 468.565 725.372, 463.667 725.183, 453.669 725.162, 452.545 722.589, 447.654 719.318, 441.434 719.315, 441.430 719.294, 441.388 718.183, 436.948 717.961, 432.313 717.953, 432.144 717.882, 430.674 717.086, 428.315 714.918, 424.533 714.915, 424.529 714.876, 424.464 711.405, 418.713 " fill="none" stroke="rgb(0, 0, 0)" stroke-linecap="butt" stroke-linejoin="round" stroke-opacity="1.0" stroke-width="3.0" />
            <path d=" M 518.529, 526.642 521.190, 526.388 522.284, 525.713 522.561, 525.001 523.676, 522.146 527.091, 516.558 528.519, 514.946 530.539, 512.664 530.795, 512.375 532.700, 510.225 534.465, 504.827 535.812, 500.709 535.964, 500.247 536.318, 499.165 536.480, 498.667 536.713, 497.956 537.718, 497.121 539.403, 495.721 539.979, 495.242 540.069, 495.167 540.377, 494.911 541.109, 494.303 541.133, 494.283 541.180, 494.244 541.831, 493.703 543.100, 492.648 543.244, 492.529 543.408, 492.392 546.341, 489.955 547.459, 489.026 552.328, 483.009 557.916, 478.360 567.144, 474.507 568.307, 474.021 577.735, 470.689 581.348, 469.412 583.902, 468.590 584.864, 468.154 584.955, 468.112 586.113, 467.587 586.828, 467.263 " fill="none" stroke="rgb(0, 0, 0)" stroke-linecap="butt" stroke-linejoin="round" stroke-opacity="1.0" stroke-width="3.0" />
            <path d=" M 433.499, 732.955 437.094, 734.109 442.251, 735.764 452.101, 737.490 454.796, 737.963 460.120, 737.716 464.193, 737.232 474.035, 735.137 479.583, 733.094 480.841, 732.631 486.842, 730.883 489.463, 728.883 489.874, 728.569 489.935, 728.523 490.099, 728.398 490.745, 727.905 491.102, 727.633 493.987, 725.431 494.104, 725.356 496.708, 721.645 503.271, 714.100 504.108, 713.138 508.322, 704.300 507.844, 696.990 " fill="none" stroke="rgb(0, 0, 0)" stroke-linecap="butt" stroke-linejoin="round" stroke-opacity="1.0" stroke-width="3.0" />
            <path d=" M 675.545, 569.252 678.036, 568.966 678.217, 568.945 680.081, 568.732 685.205, 568.579 685.705, 568.500 685.708, 568.500 685.761, 568.491 686.656, 568.350 688.440, 567.640 688.531, 567.604 688.980, 567.425 690.543, 566.803 691.616, 566.376 692.507, 565.301 692.583, 565.208 698.920, 557.556 699.132, 557.222 702.628, 551.498 705.032, 547.406 705.527, 546.108 707.216, 539.538 708.829, 530.163 708.938, 521.517 708.962, 519.635 709.782, 509.669 709.907, 508.153 709.822, 507.039 709.712, 505.598 709.631, 504.525 708.873, 494.554 708.735, 492.735 707.388, 485.730 " fill="none" stroke="rgb(0, 0, 0)" stroke-linecap="butt" stroke-linejoin="round" stroke-opacity="1.0" stroke-width="3.0" />
            <path d=" M 635.574, 717.829 637.028, 717.956 638.119, 718.051 642.123, 721.358 646.761, 724.259 655.141, 729.717 655.409, 729.891 664.572, 733.897 668.484, 735.607 673.930, 737.899 681.317, 740.873 686.812, 743.043 688.751, 743.546 691.187, 742.137 691.830, 741.217 692.003, 739.236 690.731, 737.450 686.904, 734.089 679.692, 727.161 679.251, 726.739 671.814, 720.054 670.526, 718.895 667.540, 715.441 664.417, 712.897 " fill="none" stroke="rgb(0, 0, 0)" stroke-linecap="butt" stroke-linejoin="round" stroke-opacity="1.0" stroke-width="3.0" />
            <path d=" M 813.862, 549.664 810.376, 544.482 809.393, 543.141 805.876, 538.346 799.442, 534.055 799.073, 533.890 795.694, 532.380 792.810, 531.339 789.736, 531.567 785.875, 532.468 779.472, 534.563 775.703, 534.019 775.118, 535.604 777.041, 540.900 777.464, 544.790 778.295, 549.819 781.399, 555.065 782.922, 557.580 784.815, 560.484 787.566, 564.957 788.967, 567.380 789.726, 570.162 790.429, 575.058 789.440, 577.481 788.868, 579.373 791.441, 581.732 792.854, 587.451 792.859, 587.470 792.827, 591.385 " fill="none" stroke="rgb(0, 0, 0)" stroke-linecap="butt" stroke-linejoin="round" stroke-opacity="1.0" stroke-width="3.0" />
            <path d=" M 557.143, 779.997 558.126, 780.550 563.404, 783.158 564.003, 783.454 564.107, 783.505 564.647, 783.772 565.004, 783.948 565.326, 784.107 565.337, 784.113 565.720, 784.302 566.070, 784.475 566.071, 784.475 566.521, 784.698 567.830, 785.345 569.568, 786.203 570.928, 786.777 575.858, 788.855 576.400, 789.083 579.391, 790.172 584.688, 792.101 584.702, 792.106 584.936, 792.192 586.427, 792.735 588.467, 793.477 594.765, 795.862 599.562, 797.122 601.368, 797.597 603.059, 798.041 604.542, 798.431 605.847, 798.774 615.510, 801.351 615.915, 801.459 625.126, 805.352 628.055, 806.590 637.358, 810.258 646.661, 813.927 646.908, 814.024 651.982, 816.144 661.210, 819.998 662.455, 820.518 " fill="none" stroke="rgb(0, 0, 0)" stroke-linecap="butt" stroke-linejoin="round" stroke-opacity="1.0" stroke-width="3.0" />
            <path d=" M 399.119, 409.198 398.454, 410.277 398.373, 410.409 398.323, 410.489 395.416, 415.205 393.784, 418.757 391.659, 424.776 389.124, 428.490 384.666, 436.241 384.623, 437.759 384.563, 446.323 386.297, 453.211 386.963, 456.903 387.910, 466.389 388.680, 469.527 390.336, 479.389 391.031, 483.528 391.038, 483.568 391.133, 484.133 392.515, 489.546 394.489, 495.891 394.743, 496.987 396.467, 504.448 397.632, 510.735 400.422, 519.272 401.898, 526.369 401.924, 526.491 401.967, 526.700 403.198, 529.735 " fill="none" stroke="rgb(0, 0, 0)" stroke-linecap="butt" stroke-linejoin="round" stroke-opacity="1.0" stroke-width="3.0" />
            <path d=" M 701.584, 480.253 703.908, 479.213 704.029, 479.159 705.712, 478.406 705.288, 474.035 702.888, 470.872 701.632, 469.216 701.597, 468.992 701.398, 467.697 700.555, 466.172 699.867, 464.930 699.041, 463.437 697.168, 461.451 696.385, 460.622 695.619, 459.810 694.048, 458.146 688.822, 454.027 686.105, 452.342 679.826, 448.449 677.302, 446.995 677.126, 446.893 674.992, 445.663 670.401, 443.274 669.652, 442.884 666.535, 441.584 664.317, 440.230 662.273, 438.982 659.197, 436.222 658.751, 435.822 658.238, 435.361 657.740, 434.914 656.992, 434.243 654.124, 431.669 649.348, 424.885 645.915, 422.432 638.924, 418.395 634.934, 415.234 631.053, 408.926 623.738, 402.107 622.104, 400.583 618.329, 395.846 " fill="none" stroke="rgb(0, 0, 0)" stroke-linecap="butt" stroke-linejoin="round" stroke-opacity="1.0" stroke-width="3.0" />
            <path d=" M 542.364, 354.389 540.859, 353.586 539.874, 353.061 539.693, 352.740 539.618, 352.607 538.767, 351.092 538.456, 350.833 538.403, 350.788 538.369, 350.760 535.893, 348.694 531.454, 346.351 527.019, 344.569 524.722, 344.167 521.317, 342.791 516.770, 341.932 510.257, 341.645 503.773, 341.817 497.669, 341.573 487.787, 340.044 487.211, 339.955 482.386, 339.237 478.331, 339.890 472.143, 344.677 463.975, 349.175 460.181, 350.807 454.305, 354.458 451.424, 356.855 446.006, 362.235 445.524, 362.852 445.493, 362.891 445.493, 362.892 439.740, 370.258 437.585, 371.948 437.566, 371.963 436.700, 372.642 436.401, 372.877 436.358, 372.910 436.068, 373.137 434.105, 374.648 431.951, 376.284 428.574, 376.605 427.676, 376.937 426.862, 377.238 426.357, 377.425 425.994, 377.560 " fill="none" stroke="rgb(0, 0, 0)" stroke-linecap="butt" stroke-linejoin="round" stroke-opacity="1.0" stroke-width="3.0" />
            <path d=" M 794.042, 510.307 790.330, 502.194 786.960, 498.622 782.352, 496.875 778.609, 494.238 775.099, 492.580 772.503, 491.501 769.949, 491.552 764.925, 492.435 763.801, 492.852 760.518, 494.881 757.709, 498.698 753.493, 505.010 749.448, 511.464 744.677, 520.253 743.042, 523.265 737.919, 531.853 737.580, 532.422 734.168, 538.855 733.302, 540.489 733.300, 540.492 732.912, 541.222 730.972, 544.880 729.794, 547.103 728.733, 549.104 728.095, 550.306 723.121, 558.027 719.526, 563.606 719.651, 565.865 720.777, 568.233 726.340, 571.379 728.771, 572.736 730.625, 573.771 731.709, 574.377 " fill="none" stroke="rgb(0, 0, 0)" stroke-linecap="butt" stroke-linejoin="round" stroke-opacity="1.0" stroke-width="3.0" />
            <path d=" M 488.685, 546.473 488.671, 546.970 488.589, 549.927 488.572, 550.521 488.493, 553.349 487.978, 558.762 487.929, 559.276 487.763, 559.600 485.990, 563.047 484.702, 564.333 483.236, 567.104 486.950, 575.891 489.968, 578.420 490.161, 578.581 491.972, 580.098 498.789, 584.534 504.132, 586.008 507.583, 585.834 513.578, 586.560 523.565, 587.058 526.720, 587.215 527.414, 587.149 531.396, 586.769 531.743, 586.736 531.867, 586.725 535.332, 586.394 536.266, 586.305 538.797, 586.064 544.433, 584.848 544.618, 584.809 549.537, 583.747 549.841, 583.682 552.742, 583.397 558.078, 581.875 559.100, 581.584 559.510, 581.467 561.247, 580.972 561.265, 580.967 561.285, 580.961 561.827, 580.806 562.624, 580.579 565.141, 579.861 565.449, 579.770 566.490, 579.460 566.525, 579.450 566.733, 579.388 567.340, 579.207 567.797, 579.071 568.301, 578.922 570.861, 578.160 575.445, 576.165 582.102, 573.640 585.164, 572.478 586.488, 571.729 586.663, 571.630 589.983, 569.750 590.011, 569.734 590.729, 569.327 591.176, 568.958 592.223, 568.094 592.267, 566.649 592.223, 565.940 592.054, 563.186 " fill="none" stroke="rgb(0, 0, 0)" stroke-linecap="butt" stroke-linejoin="round" stroke-opacity="1.0" stroke-width="3.0" />
            <path d=" M 589.037, 725.959 588.469, 723.342 587.669, 719.659 587.632, 719.489 587.630, 719.484 587.596, 719.327 587.231, 717.646 586.927, 716.244 586.679, 715.339 586.629, 715.156 586.615, 715.102 586.611, 715.088 586.565, 714.922 586.525, 714.775 586.276, 713.861 585.320, 710.360 581.779, 702.858 579.928, 696.750 577.185, 696.383 576.796, 696.625 570.520, 700.532 570.088, 700.801 569.287, 701.371 568.977, 701.592 568.720, 701.774 567.752, 702.463 566.408, 703.420 566.273, 703.516 566.250, 703.532 566.244, 703.537 564.739, 704.607 563.625, 705.400 563.295, 705.635 561.484, 706.923 558.357, 709.148 556.858, 710.215 555.747, 711.006 555.312, 711.315 555.105, 711.463 555.054, 711.499 553.352, 712.711 545.206, 718.511 544.390, 719.092 538.564, 722.454 538.203, 722.672 538.088, 722.740 538.020, 722.782 537.752, 722.943 529.347, 728.000 529.327, 728.012 526.277, 729.847 526.195, 729.899 525.325, 730.454 516.895, 735.833 512.713, 738.502 510.741, 739.973 509.482, 740.912 509.463, 740.926 507.442, 742.488 505.029, 745.649 503.212, 748.629 502.259, 750.190 502.040, 750.550 502.019, 750.583 501.608, 751.258 501.131, 755.342 501.087, 756.839 501.025, 758.974 500.390, 763.700 500.339, 764.081 499.992, 766.663 499.974, 766.795 499.946, 767.007 499.927, 767.145 499.925, 767.160 499.859, 767.653 499.840, 767.796 500.009, 768.145 500.073, 768.279 500.114, 768.363 500.149, 768.437 501.148, 770.503 501.161, 770.531 501.186, 770.582 501.371, 770.966 504.267, 776.961 506.267, 779.818 510.614, 781.782 514.592, 782.216 521.407, 781.864 528.020, 781.587 535.384, 780.542 537.565, 780.232 " fill="none" stroke="rgb(0, 0, 0)" stroke-linecap="butt" stroke-linejoin="round" stroke-opacity="1.0" stroke-width="3.0" />
        </g>
    </g>
</svg>
