<?xml version='1.0' encoding='ascii'?>
<svg xmlns="http://www.w3.org/2000/svg" height="1280" version="1.1" width="1280">
    <g id="RenderLayer_LineSet" inkscape:groupmode="lineset" inkscape:label="RenderLayer_LineSet" xmlns:inkscape="http://www.inkscape.org/namespaces/inkscape">
        <g id="strokes" inkscape:groupmode="layer" inkscape:label="strokes" xmlns:inkscape="http://www.inkscape.org/namespaces/inkscape">
            <path d=" M 560.442, 442.623 560.125, 441.915 560.030, 441.703 559.468, 438.708 558.412, 435.875 556.921, 433.992 555.747, 432.648 555.119, 431.929 554.103, 430.082 551.356, 425.095 " fill="none" stroke="rgb(0, 0, 0)" stroke-linecap="butt" stroke-linejoin="round" stroke-opacity="1.0" stroke-width="3.0" />
            <path d=" M 444.554, 387.918 444.466, 388.774 444.463, 388.805 444.402, 389.405 444.166, 391.717 442.809, 397.115 444.124, 402.409 444.761, 407.466 444.799, 407.613 " fill="none" stroke="rgb(0, 0, 0)" stroke-linecap="butt" stroke-linejoin="round" stroke-opacity="1.0" stroke-width="3.0" />
            <path d=" M 622.096, 493.371 620.617, 498.815 618.552, 505.465 617.411, 509.286 618.391, 511.274 618.686, 512.882 " fill="none" stroke="rgb(0, 0, 0)" stroke-linecap="butt" stroke-linejoin="round" stroke-opacity="1.0" stroke-width="3.0" />
            <path d=" M 693.882, 680.520 694.806, 681.413 696.936, 684.238 701.431, 688.756 701.568, 688.853 707.277, 692.907 708.552, 694.672 " fill="none" stroke="rgb(0, 0, 0)" stroke-linecap="butt" stroke-linejoin="round" stroke-opacity="1.0" stroke-width="3.0" />
            <path d=" M 589.384, 883.797 589.713, 877.610 586.254, 872.075 578.554, 870.728 578.475, 870.715 " fill="none" stroke="rgb(0, 0, 0)" stroke-linecap="butt" stroke-linejoin="round" stroke-opacity="1.0" stroke-width="3.0" />
            <path d=" M 501.400, 420.331 499.813, 420.284 497.145, 420.262 492.118, 421.029 488.089, 422.661 486.854, 423.161 482.932, 423.094 481.242, 423.065 " fill="none" stroke="rgb(0, 0, 0)" stroke-linecap="butt" stroke-linejoin="round" stroke-opacity="1.0" stroke-width="3.0" />
            <path d=" M 633.911, 436.683 623.913, 436.841 620.321, 436.897 615.718, 437.602 614.459, 437.469 613.230, 437.580 " fill="none" stroke="rgb(0, 0, 0)" stroke-linecap="butt" stroke-linejoin="round" stroke-opacity="1.0" stroke-width="3.0" />
            <path d=" M 392.348, 474.756 391.886, 475.199 389.097, 477.869 388.723, 478.226 388.558, 478.609 387.212, 481.717 387.128, 481.885 384.934, 486.213 382.550, 489.012 381.773, 492.234 " fill="none" stroke="rgb(0, 0, 0)" stroke-linecap="butt" stroke-linejoin="round" stroke-opacity="1.0" stroke-width="3.0" />
            <path d=" M 679.148, 912.545 679.956, 912.048 685.173, 908.837 686.770, 907.312 685.648, 903.561 685.034, 901.618 683.300, 896.136 " fill="none" stroke="rgb(0, 0, 0)" stroke-linecap="butt" stroke-linejoin="round" stroke-opacity="1.0" stroke-width="3.0" />
            <path d=" M 583.629, 897.652 587.180, 893.379 589.593, 888.679 589.496, 884.337 589.384, 883.797 588.326, 878.652 " fill="none" stroke="rgb(0, 0, 0)" stroke-linecap="butt" stroke-linejoin="round" stroke-opacity="1.0" stroke-width="3.0" />
            <path d=" M 377.828, 502.186 377.178, 506.895 377.155, 507.063 375.839, 514.352 375.958, 517.388 376.011, 518.731 375.799, 519.838 375.383, 522.009 375.198, 522.978 " fill="none" stroke="rgb(0, 0, 0)" stroke-linecap="butt" stroke-linejoin="round" stroke-opacity="1.0" stroke-width="3.0" />
            <path d=" M 510.100, 930.606 510.671, 930.362 510.801, 930.306 513.879, 928.992 514.077, 928.907 517.115, 928.978 523.716, 929.480 528.230, 931.115 530.116, 932.444 " fill="none" stroke="rgb(0, 0, 0)" stroke-linecap="butt" stroke-linejoin="round" stroke-opacity="1.0" stroke-width="3.0" />
            <path d=" M 663.008, 750.941 662.083, 746.954 660.542, 741.377 658.720, 736.591 656.650, 730.687 " fill="none" stroke="rgb(0, 0, 0)" stroke-linecap="butt" stroke-linejoin="round" stroke-opacity="1.0" stroke-width="3.0" />
            <path d=" M 552.486, 556.392 554.887, 557.811 556.195, 559.219 558.830, 562.054 559.613, 562.897 559.777, 563.600 559.787, 563.639 560.113, 565.038 560.736, 567.709 561.205, 571.200 561.296, 574.314 " fill="none" stroke="rgb(0, 0, 0)" stroke-linecap="butt" stroke-linejoin="round" stroke-opacity="1.0" stroke-width="3.0" />
            <path d=" M 507.411, 565.233 508.520, 564.975 508.684, 564.937 508.765, 564.918 508.912, 564.884 509.138, 564.832 509.169, 564.825 509.181, 564.822 509.578, 564.729 509.687, 564.704 509.777, 564.683 510.084, 564.612 512.952, 563.946 513.281, 563.870 513.597, 563.735 521.179, 560.493 524.093, 556.634 524.089, 554.724 " fill="none" stroke="rgb(0, 0, 0)" stroke-linecap="butt" stroke-linejoin="round" stroke-opacity="1.0" stroke-width="3.0" />
            <path d=" M 512.890, 790.875 512.860, 790.609 512.253, 785.285 510.063, 780.424 507.459, 776.724 506.009, 775.634 502.680, 773.130 " fill="none" stroke="rgb(0, 0, 0)" stroke-linecap="butt" stroke-linejoin="round" stroke-opacity="1.0" stroke-width="3.0" />
            <path d=" M 588.896, 940.263 589.582, 940.067 594.001, 937.613 595.192, 936.020 595.424, 935.512 595.557, 932.511 593.669, 929.399 588.360, 925.575 " fill="none" stroke="rgb(0, 0, 0)" stroke-linecap="butt" stroke-linejoin="round" stroke-opacity="1.0" stroke-width="3.0" />
            <path d=" M 815.401, 498.089 812.159, 497.720 807.691, 499.085 804.821, 498.508 803.257, 498.863 801.734, 501.301 800.477, 503.374 800.702, 505.736 800.745, 506.188 800.750, 506.238 800.753, 506.274 800.766, 506.411 800.814, 506.906 800.822, 506.998 800.842, 507.203 " fill="none" stroke="rgb(0, 0, 0)" stroke-linecap="butt" stroke-linejoin="round" stroke-opacity="1.0" stroke-width="3.0" />
            <path d=" M 607.665, 445.347 608.072, 443.511 608.165, 443.093 608.702, 440.675 608.789, 440.282 608.803, 440.217 608.816, 440.160 608.822, 440.133 608.873, 439.900 609.793, 438.711 610.118, 438.290 610.413, 437.909 612.070, 435.766 612.736, 434.824 615.330, 430.209 615.520, 429.925 615.574, 429.844 615.618, 429.779 616.085, 429.080 617.858, 426.431 " fill="none" stroke="rgb(0, 0, 0)" stroke-linecap="butt" stroke-linejoin="round" stroke-opacity="1.0" stroke-width="3.0" />
            <path d=" M 666.391, 741.107 666.361, 737.779 664.931, 734.985 663.165, 732.911 661.935, 728.346 660.388, 725.984 658.911, 721.276 658.822, 720.994 " fill="none" stroke="rgb(0, 0, 0)" stroke-linecap="butt" stroke-linejoin="round" stroke-opacity="1.0" stroke-width="3.0" />
            <path d=" M 640.467, 436.913 636.441, 439.960 630.251, 444.113 626.535, 447.017 626.296, 447.203 624.924, 447.749 622.798, 448.594 621.864, 448.965 " fill="none" stroke="rgb(0, 0, 0)" stroke-linecap="butt" stroke-linejoin="round" stroke-opacity="1.0" stroke-width="3.0" />
            <path d=" M 824.042, 956.256 822.051, 956.697 817.920, 959.069 816.972, 960.746 818.783, 961.992 822.081, 963.754 827.151, 963.697 830.111, 963.505 " fill="none" stroke="rgb(0, 0, 0)" stroke-linecap="butt" stroke-linejoin="round" stroke-opacity="1.0" stroke-width="3.0" />
            <path d=" M 864.065, 507.385 868.227, 510.189 868.396, 510.304 870.320, 511.616 869.359, 510.723 864.529, 506.232 861.152, 504.826 859.021, 503.090 858.003, 502.607 " fill="none" stroke="rgb(0, 0, 0)" stroke-linecap="butt" stroke-linejoin="round" stroke-opacity="1.0" stroke-width="3.0" />
            <path d=" M 570.925, 1048.296 571.205, 1048.462 571.281, 1048.506 572.129, 1049.008 572.714, 1049.353 572.746, 1049.372 573.068, 1049.563 575.172, 1050.807 576.485, 1051.176 578.402, 1051.715 579.148, 1051.805 579.237, 1051.816 579.355, 1051.808 579.388, 1051.806 579.974, 1051.766 581.385, 1051.671 581.703, 1051.649 583.100, 1051.555 583.253, 1051.544 583.336, 1051.539 584.361, 1051.470 586.038, 1051.356 586.495, 1050.849 586.723, 1050.596 586.866, 1050.438 588.516, 1048.608 588.184, 1047.365 586.586, 1045.452 " fill="none" stroke="rgb(0, 0, 0)" stroke-linecap="butt" stroke-linejoin="round" stroke-opacity="1.0" stroke-width="3.0" />
            <path d=" M 375.383, 522.009 375.011, 523.837 375.100, 530.386 374.744, 532.564 375.102, 540.067 375.267, 541.716 375.648, 545.502 " fill="none" stroke="rgb(0, 0, 0)" stroke-linecap="butt" stroke-linejoin="round" stroke-opacity="1.0" stroke-width="3.0" />
            <path d=" M 839.834, 497.190 842.731, 496.058 846.832, 497.409 850.855, 498.169 852.570, 499.563 854.650, 501.203 855.190, 501.628 858.003, 502.607 854.650, 501.203 " fill="none" stroke="rgb(0, 0, 0)" stroke-linecap="butt" stroke-linejoin="round" stroke-opacity="1.0" stroke-width="3.0" />
            <path d=" M 672.368, 848.873 669.890, 848.722 666.354, 850.040 662.443, 851.651 658.951, 852.212 656.158, 853.161 653.041, 854.220 649.792, 855.784 " fill="none" stroke="rgb(0, 0, 0)" stroke-linecap="butt" stroke-linejoin="round" stroke-opacity="1.0" stroke-width="3.0" />
            <path d=" M 380.934, 683.379 378.816, 686.099 378.349, 688.879 379.718, 692.400 380.098, 695.263 379.924, 697.739 380.147, 699.779 380.589, 706.231 " fill="none" stroke="rgb(0, 0, 0)" stroke-linecap="butt" stroke-linejoin="round" stroke-opacity="1.0" stroke-width="3.0" />
            <path d=" M 377.131, 564.418 377.242, 565.452 377.274, 565.752 377.388, 566.817 377.649, 569.254 378.019, 572.709 378.126, 573.707 378.356, 575.859 378.963, 579.487 379.264, 580.507 379.677, 581.911 380.127, 583.437 380.828, 585.812 381.252, 587.252 381.460, 587.957 " fill="none" stroke="rgb(0, 0, 0)" stroke-linecap="butt" stroke-linejoin="round" stroke-opacity="1.0" stroke-width="3.0" />
            <path d=" M 546.789, 780.417 549.169, 774.249 549.305, 773.841 549.456, 773.386 549.516, 773.207 549.610, 772.922 551.439, 767.418 557.293, 761.180 558.434, 759.964 " fill="none" stroke="rgb(0, 0, 0)" stroke-linecap="butt" stroke-linejoin="round" stroke-opacity="1.0" stroke-width="3.0" />
            <path d=" M 599.633, 517.558 597.417, 518.165 595.419, 518.537 595.336, 518.552 595.125, 518.591 590.648, 519.424 581.650, 520.923 578.566, 521.559 575.931, 522.104 " fill="none" stroke="rgb(0, 0, 0)" stroke-linecap="butt" stroke-linejoin="round" stroke-opacity="1.0" stroke-width="3.0" />
            <path d=" M 649.912, 873.148 653.258, 875.298 656.865, 877.615 658.443, 878.629 661.023, 879.398 664.156, 879.930 667.817, 879.901 672.312, 879.786 " fill="none" stroke="rgb(0, 0, 0)" stroke-linecap="butt" stroke-linejoin="round" stroke-opacity="1.0" stroke-width="3.0" />
            <path d=" M 797.824, 502.948 793.201, 495.946 791.402, 491.821 790.967, 490.835 787.848, 487.367 784.126, 483.230 " fill="none" stroke="rgb(0, 0, 0)" stroke-linecap="butt" stroke-linejoin="round" stroke-opacity="1.0" stroke-width="3.0" />
            <path d=" M 680.659, 496.052 683.089, 496.136 687.696, 496.295 691.492, 494.975 693.847, 492.730 697.065, 491.007 699.539, 489.682 699.811, 489.537 698.613, 489.787 697.065, 491.007 " fill="none" stroke="rgb(0, 0, 0)" stroke-linecap="butt" stroke-linejoin="round" stroke-opacity="1.0" stroke-width="3.0" />
            <path d=" M 444.444, 589.195 447.095, 588.507 454.425, 588.748 458.036, 589.963 458.493, 590.116 459.800, 590.556 467.573, 594.205 " fill="none" stroke="rgb(0, 0, 0)" stroke-linecap="butt" stroke-linejoin="round" stroke-opacity="1.0" stroke-width="3.0" />
            <path d=" M 680.666, 496.054 680.659, 496.052 677.214, 494.835 677.040, 494.787 677.026, 494.783 675.685, 494.417 674.735, 494.158 671.554, 493.289 667.717, 491.087 662.139, 485.602 660.287, 483.781 " fill="none" stroke="rgb(0, 0, 0)" stroke-linecap="butt" stroke-linejoin="round" stroke-opacity="1.0" stroke-width="3.0" />
            <path d=" M 551.581, 427.202 551.365, 425.173 551.359, 425.117 551.356, 425.095 551.148, 423.147 548.542, 420.598 546.508, 419.870 544.840, 419.273 540.667, 417.780 540.447, 417.765 539.176, 417.680 538.970, 417.666 532.296, 417.218 " fill="none" stroke="rgb(0, 0, 0)" stroke-linecap="butt" stroke-linejoin="round" stroke-opacity="1.0" stroke-width="3.0" />
            <path d=" M 656.699, 729.416 655.801, 725.640 655.104, 721.668 655.568, 715.751 655.401, 710.926 655.411, 708.541 656.616, 704.843 " fill="none" stroke="rgb(0, 0, 0)" stroke-linecap="butt" stroke-linejoin="round" stroke-opacity="1.0" stroke-width="3.0" />
            <path d=" M 664.151, 779.179 662.295, 776.612 661.526, 775.547 661.180, 775.189 658.072, 771.977 655.454, 767.631 655.045, 766.842 654.986, 766.728 653.203, 763.291 651.002, 759.993 649.342, 758.888 " fill="none" stroke="rgb(0, 0, 0)" stroke-linecap="butt" stroke-linejoin="round" stroke-opacity="1.0" stroke-width="3.0" />
            <path d=" M 543.411, 389.236 543.140, 389.327 541.473, 389.888 540.182, 390.561 534.865, 394.406 534.800, 394.453 533.927, 395.084 529.331, 398.408 528.321, 399.138 522.694, 403.789 " fill="none" stroke="rgb(0, 0, 0)" stroke-linecap="butt" stroke-linejoin="round" stroke-opacity="1.0" stroke-width="3.0" />
            <path d=" M 475.445, 453.309 481.316, 454.545 486.599, 453.227 486.690, 453.213 487.876, 453.032 488.059, 453.004 488.177, 452.986 492.558, 452.316 488.325, 452.855 487.950, 452.784 486.973, 452.601 485.873, 452.394 484.668, 452.167 " fill="none" stroke="rgb(0, 0, 0)" stroke-linecap="butt" stroke-linejoin="round" stroke-opacity="1.0" stroke-width="3.0" />
            <path d=" M 429.583, 611.501 432.407, 610.042 434.121, 609.157 437.936, 605.469 439.320, 600.066 440.601, 594.726 442.523, 591.225 442.554, 591.167 " fill="none" stroke="rgb(0, 0, 0)" stroke-linecap="butt" stroke-linejoin="round" stroke-opacity="1.0" stroke-width="3.0" />
            <path d=" M 563.463, 790.916 563.054, 782.577 563.002, 781.514 562.917, 779.328 562.915, 779.290 562.699, 773.720 562.873, 765.296 " fill="none" stroke="rgb(0, 0, 0)" stroke-linecap="butt" stroke-linejoin="round" stroke-opacity="1.0" stroke-width="3.0" />
            <path d=" M 610.005, 497.709 609.665, 504.782 607.265, 509.728 604.633, 513.998 600.029, 517.245 599.633, 517.558 598.015, 518.839 " fill="none" stroke="rgb(0, 0, 0)" stroke-linecap="butt" stroke-linejoin="round" stroke-opacity="1.0" stroke-width="3.0" />
            <path d=" M 920.519, 1079.949 921.795, 1078.575 923.674, 1076.553 926.084, 1071.450 929.903, 1065.651 931.155, 1058.883 931.470, 1057.184 " fill="none" stroke="rgb(0, 0, 0)" stroke-linecap="butt" stroke-linejoin="round" stroke-opacity="1.0" stroke-width="3.0" />
            <path d=" M 861.858, 1033.180 859.547, 1035.377 857.778, 1039.212 853.669, 1044.301 851.153, 1047.107 847.599, 1049.828 844.154, 1052.070 " fill="none" stroke="rgb(0, 0, 0)" stroke-linecap="butt" stroke-linejoin="round" stroke-opacity="1.0" stroke-width="3.0" />
            <path d=" M 427.172, 630.575 427.487, 629.931 429.793, 625.217 430.675, 620.525 430.623, 616.391 430.623, 616.325 430.596, 614.170 430.594, 614.015 429.812, 612.071 429.727, 611.861 429.583, 611.501 429.579, 611.493 428.963, 609.961 428.897, 609.797 428.464, 608.721 428.819, 605.225 " fill="none" stroke="rgb(0, 0, 0)" stroke-linecap="butt" stroke-linejoin="round" stroke-opacity="1.0" stroke-width="3.0" />
            <path d=" M 584.474, 1154.700 585.484, 1156.446 585.894, 1157.156 586.853, 1157.863 592.729, 1161.958 595.407, 1162.695 604.056, 1163.652 604.549, 1163.186 606.891, 1160.970 " fill="none" stroke="rgb(0, 0, 0)" stroke-linecap="butt" stroke-linejoin="round" stroke-opacity="1.0" stroke-width="3.0" />
            <path d=" M 840.771, 497.564 839.834, 497.190 835.117, 495.303 828.249, 497.258 823.725, 495.931 815.401, 498.089 815.007, 498.191 " fill="none" stroke="rgb(0, 0, 0)" stroke-linecap="butt" stroke-linejoin="round" stroke-opacity="1.0" stroke-width="3.0" />
            <path d=" M 589.115, 1001.361 583.472, 995.590 580.392, 991.052 576.381, 987.883 572.444, 985.207 569.254, 983.038 " fill="none" stroke="rgb(0, 0, 0)" stroke-linecap="butt" stroke-linejoin="round" stroke-opacity="1.0" stroke-width="3.0" />
            <path d=" M 797.152, 815.559 798.095, 819.113 799.683, 822.132 801.843, 826.238 805.123, 831.047 805.135, 831.064 805.877, 832.151 805.967, 832.283 807.018, 833.823 807.167, 834.042 807.169, 834.045 807.278, 834.205 807.362, 834.495 807.372, 834.527 808.993, 840.090 " fill="none" stroke="rgb(0, 0, 0)" stroke-linecap="butt" stroke-linejoin="round" stroke-opacity="1.0" stroke-width="3.0" />
            <path d=" M 409.753, 452.768 407.121, 456.032 406.588, 456.460 403.516, 458.931 401.461, 461.723 394.924, 469.291 394.187, 470.144 392.572, 473.097 391.957, 474.222 " fill="none" stroke="rgb(0, 0, 0)" stroke-linecap="butt" stroke-linejoin="round" stroke-opacity="1.0" stroke-width="3.0" />
            <path d=" M 616.669, 868.661 617.206, 864.151 617.423, 860.646 619.650, 851.677 620.004, 849.881 619.351, 843.974 620.331, 842.241 620.866, 841.293 " fill="none" stroke="rgb(0, 0, 0)" stroke-linecap="butt" stroke-linejoin="round" stroke-opacity="1.0" stroke-width="3.0" />
            <path d=" M 744.817, 486.724 742.454, 485.819 739.466, 484.462 739.404, 484.434 739.131, 484.310 739.116, 484.303 738.850, 484.182 737.726, 484.345 734.862, 484.760 730.615, 484.770 724.527, 485.128 722.782, 485.248 720.064, 486.743 717.616, 488.089 " fill="none" stroke="rgb(0, 0, 0)" stroke-linecap="butt" stroke-linejoin="round" stroke-opacity="1.0" stroke-width="3.0" />
            <path d=" M 440.678, 838.803 441.056, 839.504 442.419, 843.240 444.329, 845.844 447.076, 849.255 447.916, 850.204 450.251, 853.704 451.402, 854.971 451.762, 855.368 453.774, 857.585 455.053, 858.750 457.983, 861.360 " fill="none" stroke="rgb(0, 0, 0)" stroke-linecap="butt" stroke-linejoin="round" stroke-opacity="1.0" stroke-width="3.0" />
            <path d=" M 829.840, 963.487 830.111, 963.505 837.064, 963.971 846.897, 962.147 847.692, 961.999 852.084, 962.152 854.984, 965.332 855.079, 965.436 855.536, 967.457 " fill="none" stroke="rgb(0, 0, 0)" stroke-linecap="butt" stroke-linejoin="round" stroke-opacity="1.0" stroke-width="3.0" />
            <path d=" M 586.131, 1046.714 586.586, 1045.452 587.071, 1044.107 586.949, 1042.101 585.410, 1040.077 584.918, 1039.431 584.735, 1039.286 583.373, 1038.208 581.619, 1036.819 581.200, 1036.487 579.752, 1034.753 579.187, 1034.077 578.898, 1033.730 577.698, 1033.036 577.413, 1032.871 576.813, 1032.524 576.500, 1032.343 576.471, 1032.327 576.404, 1032.287 576.014, 1032.062 575.311, 1031.655 575.033, 1031.495 574.751, 1031.332 573.230, 1030.452 572.901, 1030.261 572.107, 1029.802 571.327, 1029.155 569.568, 1027.697 569.565, 1027.694 569.130, 1027.333 569.095, 1027.305 568.519, 1026.827 " fill="none" stroke="rgb(0, 0, 0)" stroke-linecap="butt" stroke-linejoin="round" stroke-opacity="1.0" stroke-width="3.0" />
            <path d=" M 479.081, 435.229 474.654, 433.629 470.630, 430.975 469.087, 430.082 465.682, 429.453 462.364, 429.938 462.098, 429.977 462.094, 429.978 461.855, 430.013 461.623, 430.047 461.588, 430.052 461.177, 430.112 460.387, 428.651 460.362, 428.605 459.958, 427.858 459.948, 427.839 459.863, 427.665 456.837, 421.400 " fill="none" stroke="rgb(0, 0, 0)" stroke-linecap="butt" stroke-linejoin="round" stroke-opacity="1.0" stroke-width="3.0" />
            <path d=" M 591.070, 1087.349 590.813, 1084.191 590.862, 1076.414 590.443, 1066.423 590.421, 1065.904 590.385, 1058.531 590.384, 1058.299 " fill="none" stroke="rgb(0, 0, 0)" stroke-linecap="butt" stroke-linejoin="round" stroke-opacity="1.0" stroke-width="3.0" />
            <path d=" M 571.500, 844.662 571.428, 842.879 571.337, 840.606 571.329, 840.425 571.488, 840.299 572.771, 839.281 573.878, 837.801 574.477, 837.002 574.300, 835.697 574.057, 834.076 573.685, 833.544 573.655, 833.501 572.727, 832.174 572.617, 832.018 572.567, 831.961 572.442, 831.819 572.384, 831.753 572.127, 831.462 572.115, 831.449 571.860, 831.160 571.641, 830.911 571.542, 830.800 571.258, 830.478 569.354, 828.320 568.678, 828.033 566.721, 825.753 569.116, 821.738 570.077, 820.977 570.420, 820.706 " fill="none" stroke="rgb(0, 0, 0)" stroke-linecap="butt" stroke-linejoin="round" stroke-opacity="1.0" stroke-width="3.0" />
            <path d=" M 622.915, 762.394 622.792, 755.624 622.715, 751.381 623.352, 741.401 623.509, 738.943 624.046, 734.990 623.929, 734.296 623.902, 734.135 623.657, 732.685 " fill="none" stroke="rgb(0, 0, 0)" stroke-linecap="butt" stroke-linejoin="round" stroke-opacity="1.0" stroke-width="3.0" />
            <path d=" M 941.410, 926.231 941.401, 925.962 941.337, 924.078 938.664, 918.152 937.633, 914.331 934.887, 909.586 934.331, 902.029 932.267, 898.412 " fill="none" stroke="rgb(0, 0, 0)" stroke-linecap="butt" stroke-linejoin="round" stroke-opacity="1.0" stroke-width="3.0" />
            <path d=" M 427.417, 701.901 427.269, 699.762 426.752, 692.293 427.144, 688.328 427.543, 681.319 426.181, 672.038 " fill="none" stroke="rgb(0, 0, 0)" stroke-linecap="butt" stroke-linejoin="round" stroke-opacity="1.0" stroke-width="3.0" />
            <path d=" M 788.854, 839.942 790.384, 840.019 791.952, 840.097 792.563, 842.782 793.474, 848.614 791.486, 855.474 790.994, 859.863 789.961, 862.102 788.123, 866.087 " fill="none" stroke="rgb(0, 0, 0)" stroke-linecap="butt" stroke-linejoin="round" stroke-opacity="1.0" stroke-width="3.0" />
            <path d=" M 502.752, 480.267 499.370, 479.925 498.576, 478.602 496.340, 477.671 496.110, 479.463 497.615, 481.440 496.082, 486.165 496.112, 486.992 496.390, 490.345 499.223, 494.610 499.251, 494.653 499.664, 495.274 500.012, 498.258 500.085, 498.877 500.089, 498.912 " fill="none" stroke="rgb(0, 0, 0)" stroke-linecap="butt" stroke-linejoin="round" stroke-opacity="1.0" stroke-width="3.0" />
            <path d=" M 560.476, 865.324 560.486, 865.301 560.511, 865.243 561.744, 865.082 563.021, 864.916 563.881, 864.804 568.214, 863.861 568.792, 863.735 569.165, 863.717 570.097, 863.670 572.187, 863.565 573.290, 863.510 576.779, 861.097 576.916, 861.002 577.332, 859.710 577.913, 857.902 577.964, 857.742 577.865, 857.111 577.139, 852.483 575.585, 848.350 " fill="none" stroke="rgb(0, 0, 0)" stroke-linecap="butt" stroke-linejoin="round" stroke-opacity="1.0" stroke-width="3.0" />
            <path d=" M 623.540, 1150.927 623.579, 1150.936 625.812, 1150.671 625.996, 1150.412 627.997, 1147.267 628.719, 1145.682 629.930, 1142.072 627.046, 1136.518 622.150, 1131.217 619.210, 1126.871 619.204, 1126.862 " fill="none" stroke="rgb(0, 0, 0)" stroke-linecap="butt" stroke-linejoin="round" stroke-opacity="1.0" stroke-width="3.0" />
            <path d=" M 516.155, 389.462 510.998, 388.873 505.097, 387.262 501.950, 387.711 498.300, 387.482 494.409, 388.438 489.028, 390.718 486.380, 391.915 " fill="none" stroke="rgb(0, 0, 0)" stroke-linecap="butt" stroke-linejoin="round" stroke-opacity="1.0" stroke-width="3.0" />
            <path d=" M 463.423, 591.712 467.573, 594.205 468.713, 594.890 472.087, 596.325 475.751, 597.931 476.336, 598.188 477.125, 598.555 477.345, 598.658 477.451, 598.707 480.187, 599.980 485.611, 603.180 486.433, 603.743 489.032, 605.524 490.610, 606.607 " fill="none" stroke="rgb(0, 0, 0)" stroke-linecap="butt" stroke-linejoin="round" stroke-opacity="1.0" stroke-width="3.0" />
            <path d=" M 643.339, 674.892 647.023, 674.948 650.413, 675.042 653.545, 674.640 656.872, 675.262 658.563, 675.774 659.029, 675.915 659.231, 675.976 661.282, 676.265 662.157, 676.388 662.169, 676.387 663.577, 676.289 666.853, 675.917 669.690, 676.152 673.595, 676.539 674.761, 676.156 " fill="none" stroke="rgb(0, 0, 0)" stroke-linecap="butt" stroke-linejoin="round" stroke-opacity="1.0" stroke-width="3.0" />
            <path d=" M 771.204, 817.593 768.942, 824.418 766.887, 829.019 767.731, 831.697 770.551, 833.761 774.154, 834.462 778.516, 838.619 779.847, 839.705 779.943, 839.783 781.280, 840.873 " fill="none" stroke="rgb(0, 0, 0)" stroke-linecap="butt" stroke-linejoin="round" stroke-opacity="1.0" stroke-width="3.0" />
            <path d=" M 479.506, 936.123 479.525, 936.175 480.882, 940.010 484.639, 949.277 485.240, 950.760 486.975, 955.142 489.149, 959.527 489.185, 959.598 489.828, 962.701 489.149, 959.527 " fill="none" stroke="rgb(0, 0, 0)" stroke-linecap="butt" stroke-linejoin="round" stroke-opacity="1.0" stroke-width="3.0" />
            <path d=" M 443.874, 383.618 443.883, 383.650 444.332, 385.297 444.749, 386.826 445.027, 387.844 445.066, 388.114 445.674, 392.328 445.889, 393.822 446.177, 394.587 446.196, 394.636 446.205, 394.661 447.408, 397.850 448.680, 400.513 449.188, 404.950 449.376, 407.129 449.396, 407.368 449.559, 409.254 449.561, 409.276 449.592, 409.638 449.836, 412.472 450.630, 414.842 " fill="none" stroke="rgb(0, 0, 0)" stroke-linecap="butt" stroke-linejoin="round" stroke-opacity="1.0" stroke-width="3.0" />
            <path d=" M 522.195, 543.024 521.935, 544.369 520.960, 549.417 520.873, 549.864 521.460, 551.049 523.479, 554.320 524.089, 554.724 527.596, 557.046 531.958, 558.173 536.204, 556.216 538.847, 554.524 539.873, 553.867 541.253, 552.984 541.469, 552.845 " fill="none" stroke="rgb(0, 0, 0)" stroke-linecap="butt" stroke-linejoin="round" stroke-opacity="1.0" stroke-width="3.0" />
            <path d=" M 762.817, 788.956 763.109, 789.520 763.712, 790.685 762.883, 794.344 762.672, 796.894 762.506, 800.774 764.783, 804.423 766.831, 807.447 769.203, 810.611 770.837, 812.590 771.204, 817.593 771.276, 818.572 " fill="none" stroke="rgb(0, 0, 0)" stroke-linecap="butt" stroke-linejoin="round" stroke-opacity="1.0" stroke-width="3.0" />
            <path d=" M 597.136, 1139.063 592.424, 1132.362 591.665, 1130.925 589.672, 1126.757 586.719, 1117.203 586.672, 1117.051 583.663, 1109.255 " fill="none" stroke="rgb(0, 0, 0)" stroke-linecap="butt" stroke-linejoin="round" stroke-opacity="1.0" stroke-width="3.0" />
            <path d=" M 440.950, 729.693 435.968, 721.022 434.692, 718.802 430.820, 711.630 429.118, 706.257 427.269, 699.762 " fill="none" stroke="rgb(0, 0, 0)" stroke-linecap="butt" stroke-linejoin="round" stroke-opacity="1.0" stroke-width="3.0" />
            <path d=" M 425.051, 662.890 425.330, 659.039 425.538, 656.173 425.557, 655.901 425.675, 655.525 427.236, 650.551 428.201, 646.239 428.038, 642.466 426.974, 634.290 427.487, 629.931 " fill="none" stroke="rgb(0, 0, 0)" stroke-linecap="butt" stroke-linejoin="round" stroke-opacity="1.0" stroke-width="3.0" />
            <path d=" M 648.921, 951.640 651.533, 949.423 654.347, 946.288 657.649, 944.968 659.154, 943.267 661.122, 942.958 661.795, 940.972 661.753, 940.690 660.141, 937.312 659.250, 934.683 657.903, 931.655 657.033, 929.722 656.393, 926.832 656.228, 926.085 " fill="none" stroke="rgb(0, 0, 0)" stroke-linecap="butt" stroke-linejoin="round" stroke-opacity="1.0" stroke-width="3.0" />
            <path d=" M 621.815, 1102.748 620.745, 1101.743 618.952, 1100.058 618.560, 1097.003 616.133, 1091.764 615.132, 1086.686 616.010, 1077.674 616.737, 1075.253 617.907, 1071.358 " fill="none" stroke="rgb(0, 0, 0)" stroke-linecap="butt" stroke-linejoin="round" stroke-opacity="1.0" stroke-width="3.0" />
            <path d=" M 465.393, 752.919 457.437, 746.862 456.843, 746.411 450.146, 740.319 443.602, 732.757 440.950, 729.693 440.656, 729.353 " fill="none" stroke="rgb(0, 0, 0)" stroke-linecap="butt" stroke-linejoin="round" stroke-opacity="1.0" stroke-width="3.0" />
            <path d=" M 787.848, 487.367 784.567, 483.188 779.869, 478.975 777.337, 476.021 770.682, 472.819 768.770, 471.725 761.136, 471.391 760.767, 471.485 760.245, 471.708 759.511, 472.022 " fill="none" stroke="rgb(0, 0, 0)" stroke-linecap="butt" stroke-linejoin="round" stroke-opacity="1.0" stroke-width="3.0" />
            <path d=" M 534.865, 394.406 534.798, 394.451 533.904, 395.055 531.269, 396.836 524.278, 401.908 518.478, 407.544 518.369, 407.650 516.912, 409.066 516.279, 409.681 512.018, 414.981 512.207, 417.058 513.331, 418.127 " fill="none" stroke="rgb(0, 0, 0)" stroke-linecap="butt" stroke-linejoin="round" stroke-opacity="1.0" stroke-width="3.0" />
            <path d=" M 596.715, 509.941 597.051, 508.728 599.034, 501.572 598.679, 497.182 598.800, 492.863 596.196, 483.891 594.935, 480.094 594.275, 478.104 594.144, 477.884 593.328, 476.516 " fill="none" stroke="rgb(0, 0, 0)" stroke-linecap="butt" stroke-linejoin="round" stroke-opacity="1.0" stroke-width="3.0" />
            <path d=" M 661.810, 438.741 654.062, 437.073 650.397, 436.616 644.135, 435.952 639.290, 435.797 635.701, 436.457 633.911, 436.683 627.480, 437.494 " fill="none" stroke="rgb(0, 0, 0)" stroke-linecap="butt" stroke-linejoin="round" stroke-opacity="1.0" stroke-width="3.0" />
            <path d=" M 482.263, 396.007 481.611, 395.612 480.541, 394.964 480.511, 394.945 480.503, 394.940 480.500, 394.938 480.226, 394.772 479.422, 394.285 477.409, 393.332 475.211, 393.137 474.812, 393.102 470.322, 392.706 465.315, 391.733 458.789, 387.965 455.871, 385.905 452.963, 383.133 451.682, 381.797 " fill="none" stroke="rgb(0, 0, 0)" stroke-linecap="butt" stroke-linejoin="round" stroke-opacity="1.0" stroke-width="3.0" />
            <path d=" M 572.156, 1135.745 576.542, 1141.459 580.103, 1143.607 584.309, 1144.140 585.501, 1144.291 587.003, 1143.703 587.012, 1143.699 587.044, 1143.687 588.559, 1143.093 590.520, 1142.405 590.633, 1142.322 590.682, 1142.286 590.837, 1142.171 593.164, 1140.450 593.183, 1138.547 593.198, 1137.032 592.646, 1134.850 592.445, 1134.060 591.682, 1133.570 589.950, 1132.459 " fill="none" stroke="rgb(0, 0, 0)" stroke-linecap="butt" stroke-linejoin="round" stroke-opacity="1.0" stroke-width="3.0" />
            <path d=" M 707.277, 692.907 708.456, 694.428 708.811, 694.886 710.253, 696.746 715.321, 700.497 717.102, 701.297 719.274, 702.273 722.153, 703.827 722.382, 704.153 724.513, 707.184 725.983, 708.252 726.882, 708.954 731.175, 712.307 732.475, 712.896 732.614, 712.959 735.202, 713.632 " fill="none" stroke="rgb(0, 0, 0)" stroke-linecap="butt" stroke-linejoin="round" stroke-opacity="1.0" stroke-width="3.0" />
            <path d=" M 673.475, 462.907 675.233, 461.438 674.375, 459.101 670.732, 453.904 668.107, 447.676 668.516, 442.979 667.411, 440.867 666.150, 439.334 664.152, 438.842 661.810, 438.741 657.371, 438.550 " fill="none" stroke="rgb(0, 0, 0)" stroke-linecap="butt" stroke-linejoin="round" stroke-opacity="1.0" stroke-width="3.0" />
            <path d=" M 828.834, 881.842 828.945, 882.741 827.241, 885.322 823.364, 887.132 820.034, 889.714 816.275, 895.605 813.348, 900.191 811.544, 903.181 809.283, 905.646 806.289, 908.175 805.897, 908.506 " fill="none" stroke="rgb(0, 0, 0)" stroke-linecap="butt" stroke-linejoin="round" stroke-opacity="1.0" stroke-width="3.0" />
            <path d=" M 541.253, 552.984 544.700, 551.620 554.426, 549.321 563.299, 548.521 563.677, 548.487 564.991, 548.495 565.042, 548.496 566.317, 548.504 566.390, 548.504 576.390, 548.567 577.263, 548.572 " fill="none" stroke="rgb(0, 0, 0)" stroke-linecap="butt" stroke-linejoin="round" stroke-opacity="1.0" stroke-width="3.0" />
            <path d=" M 807.729, 533.102 807.247, 529.890 806.913, 528.133 805.732, 521.933 802.282, 514.042 795.899, 508.340 792.008, 505.016 789.091, 503.469 " fill="none" stroke="rgb(0, 0, 0)" stroke-linecap="butt" stroke-linejoin="round" stroke-opacity="1.0" stroke-width="3.0" />
            <path d=" M 838.445, 1055.459 836.091, 1056.742 835.137, 1058.278 835.315, 1059.130 834.423, 1063.788 833.967, 1065.120 833.889, 1067.272 834.457, 1069.341 834.714, 1070.015 837.849, 1071.795 842.921, 1072.580 848.228, 1073.165 854.716, 1072.568 " fill="none" stroke="rgb(0, 0, 0)" stroke-linecap="butt" stroke-linejoin="round" stroke-opacity="1.0" stroke-width="3.0" />
            <path d=" M 787.299, 502.962 786.589, 502.218 786.443, 502.065 784.736, 500.273 783.695, 499.180 781.849, 497.243 781.457, 496.832 772.719, 491.969 771.622, 491.359 767.772, 489.024 760.856, 485.966 758.013, 486.665 756.575, 487.103 755.461, 487.443 " fill="none" stroke="rgb(0, 0, 0)" stroke-linecap="butt" stroke-linejoin="round" stroke-opacity="1.0" stroke-width="3.0" />
            <path d=" M 565.739, 792.407 564.818, 791.914 564.006, 791.480 563.477, 791.197 563.469, 791.193 562.896, 791.071 561.300, 790.730 558.990, 790.238 557.407, 790.646 552.273, 792.964 549.941, 792.619 549.122, 790.510 547.947, 787.485 547.738, 786.949 547.450, 784.878 547.144, 782.688 547.011, 781.730 546.789, 780.417 546.596, 779.267 546.322, 777.644 545.773, 775.810 544.727, 772.319 " fill="none" stroke="rgb(0, 0, 0)" stroke-linecap="butt" stroke-linejoin="round" stroke-opacity="1.0" stroke-width="3.0" />
            <path d=" M 903.010, 1094.000 903.282, 1095.793 905.356, 1098.349 906.735, 1099.392 909.287, 1102.209 912.296, 1102.055 914.619, 1098.945 915.558, 1096.493 915.898, 1095.603 917.556, 1091.232 918.015, 1086.039 920.519, 1079.949 920.764, 1079.352 " fill="none" stroke="rgb(0, 0, 0)" stroke-linecap="butt" stroke-linejoin="round" stroke-opacity="1.0" stroke-width="3.0" />
            <path d=" M 646.539, 750.656 645.651, 747.574 644.389, 743.188 642.653, 741.386 641.463, 741.223 641.424, 741.218 640.765, 741.127 638.362, 742.520 637.937, 742.932 633.958, 747.270 632.964, 747.743 632.804, 748.018 632.581, 748.398 632.070, 749.271 632.302, 755.108 631.759, 758.239 631.603, 760.357 631.596, 760.454 631.586, 760.590 631.384, 763.354 " fill="none" stroke="rgb(0, 0, 0)" stroke-linecap="butt" stroke-linejoin="round" stroke-opacity="1.0" stroke-width="3.0" />
            <path d=" M 541.772, 774.308 539.828, 779.488 537.550, 782.576 536.351, 785.542 532.090, 790.364 527.882, 793.128 522.856, 795.145 520.004, 794.713 516.122, 793.947 514.001, 792.570 " fill="none" stroke="rgb(0, 0, 0)" stroke-linecap="butt" stroke-linejoin="round" stroke-opacity="1.0" stroke-width="3.0" />
            <path d=" M 644.771, 1018.348 648.338, 1019.726 652.407, 1019.045 655.832, 1017.905 657.998, 1014.181 658.241, 1013.521 656.350, 1010.591 654.547, 1008.947 650.655, 1005.390 648.116, 1003.030 646.055, 1001.844 640.584, 1000.575 " fill="none" stroke="rgb(0, 0, 0)" stroke-linecap="butt" stroke-linejoin="round" stroke-opacity="1.0" stroke-width="3.0" />
            <path d=" M 529.316, 417.485 528.796, 417.418 527.279, 417.450 523.295, 417.533 515.988, 417.929 515.521, 417.964 515.146, 417.992 515.126, 417.993 513.331, 418.127 508.621, 418.476 504.362, 419.522 501.400, 420.331 498.567, 421.105 491.263, 423.906 489.757, 424.484 " fill="none" stroke="rgb(0, 0, 0)" stroke-linecap="butt" stroke-linejoin="round" stroke-opacity="1.0" stroke-width="3.0" />
            <path d=" M 499.725, 401.302 495.792, 401.577 493.710, 401.722 491.111, 401.903 488.947, 402.054 488.802, 402.064 484.606, 401.600 482.665, 401.400 477.552, 400.873 473.294, 399.830 470.601, 399.170 467.375, 398.040 465.367, 397.337 465.292, 397.311 463.866, 396.547 463.379, 396.286 460.505, 394.746 460.409, 394.695 " fill="none" stroke="rgb(0, 0, 0)" stroke-linecap="butt" stroke-linejoin="round" stroke-opacity="1.0" stroke-width="3.0" />
            <path d=" M 843.530, 1071.586 848.138, 1072.217 854.716, 1072.568 857.065, 1072.694 861.071, 1071.928 867.506, 1071.323 874.985, 1069.121 876.785, 1067.962 879.164, 1066.413 882.547, 1064.211 " fill="none" stroke="rgb(0, 0, 0)" stroke-linecap="butt" stroke-linejoin="round" stroke-opacity="1.0" stroke-width="3.0" />
            <path d=" M 444.997, 404.132 444.799, 407.613 444.681, 409.696 443.966, 414.190 443.956, 414.247 443.845, 414.946 442.573, 416.943 441.742, 418.247 441.264, 418.997 438.711, 421.273 435.285, 423.983 434.048, 425.302 433.837, 425.562 431.278, 428.713 428.372, 432.029 427.967, 432.366 426.840, 433.302 422.586, 436.834 " fill="none" stroke="rgb(0, 0, 0)" stroke-linecap="butt" stroke-linejoin="round" stroke-opacity="1.0" stroke-width="3.0" />
            <path d=" M 936.955, 1036.565 939.803, 1027.049 937.821, 1036.439 935.573, 1046.206 933.723, 1053.727 931.155, 1058.883 " fill="none" stroke="rgb(0, 0, 0)" stroke-linecap="butt" stroke-linejoin="round" stroke-opacity="1.0" stroke-width="3.0" />
            <path d=" M 677.935, 806.865 680.132, 804.125 681.813, 798.819 681.203, 796.383 679.672, 794.535 676.073, 788.990 675.989, 788.861 675.964, 788.822 675.972, 788.785 676.004, 788.635 676.808, 784.911 675.620, 781.776 674.764, 781.304 674.558, 781.189 674.465, 781.138 673.912, 780.833 671.553, 779.531 671.081, 779.218 670.937, 779.122 669.607, 778.237 669.560, 778.207 668.944, 777.797 668.806, 777.705 668.277, 777.353 667.950, 777.498 667.809, 777.561 664.151, 779.179 663.618, 779.415 662.287, 780.004 " fill="none" stroke="rgb(0, 0, 0)" stroke-linecap="butt" stroke-linejoin="round" stroke-opacity="1.0" stroke-width="3.0" />
            <path d=" M 454.006, 421.643 453.819, 421.744 453.766, 421.772 453.296, 422.027 451.109, 423.212 450.898, 423.326 450.543, 423.597 445.009, 427.832 443.155, 430.937 443.122, 431.051 442.948, 431.669 442.259, 434.100 442.239, 434.169 442.135, 434.537 440.832, 439.140 438.235, 445.699 437.209, 451.196 436.267, 456.242 436.627, 458.709 " fill="none" stroke="rgb(0, 0, 0)" stroke-linecap="butt" stroke-linejoin="round" stroke-opacity="1.0" stroke-width="3.0" />
            <path d=" M 533.447, 677.345 535.026, 678.066 539.072, 679.914 539.165, 679.956 539.197, 679.970 539.197, 679.971 541.265, 680.255 541.395, 680.273 542.577, 680.436 542.656, 680.447 543.654, 680.584 543.779, 680.601 545.364, 680.812 545.801, 680.870 545.806, 680.871 546.306, 680.937 547.009, 681.031 550.397, 681.600 550.425, 681.604 551.400, 681.768 552.097, 681.885 553.293, 682.086 559.797, 683.076 561.357, 683.313 562.242, 683.341 563.927, 683.395 566.524, 683.815 569.840, 684.208 572.684, 684.384 575.655, 683.761 576.290, 683.628 " fill="none" stroke="rgb(0, 0, 0)" stroke-linecap="butt" stroke-linejoin="round" stroke-opacity="1.0" stroke-width="3.0" />
            <path d=" M 550.115, 1121.676 550.607, 1122.409 554.346, 1127.976 559.714, 1133.085 566.077, 1138.621 569.090, 1141.260 573.613, 1145.812 577.044, 1150.057 580.511, 1151.623 581.163, 1151.976 " fill="none" stroke="rgb(0, 0, 0)" stroke-linecap="butt" stroke-linejoin="round" stroke-opacity="1.0" stroke-width="3.0" />
            <path d=" M 577.332, 859.710 577.754, 859.372 577.978, 858.996 578.694, 857.796 579.194, 856.959 584.957, 851.789 586.890, 845.548 587.592, 840.851 587.323, 838.891 587.225, 838.183 587.221, 838.152 587.059, 836.970 586.906, 835.860 582.931, 830.657 580.848, 830.274 578.091, 829.946 577.973, 829.932 576.417, 829.747 573.080, 830.414 572.945, 830.441 572.396, 830.551 571.585, 830.787 " fill="none" stroke="rgb(0, 0, 0)" stroke-linecap="butt" stroke-linejoin="round" stroke-opacity="1.0" stroke-width="3.0" />
            <path d=" M 511.883, 609.944 514.864, 603.011 516.290, 594.822 515.912, 585.179 515.550, 579.466 514.337, 576.060 514.182, 575.512 514.114, 575.272 513.305, 572.406 512.481, 569.485 510.520, 566.130 " fill="none" stroke="rgb(0, 0, 0)" stroke-linecap="butt" stroke-linejoin="round" stroke-opacity="1.0" stroke-width="3.0" />
            <path d=" M 575.000, 683.410 575.684, 683.526 576.290, 683.628 576.578, 683.677 581.017, 684.430 587.713, 683.205 594.415, 681.547 599.073, 681.191 608.475, 679.554 614.564, 677.881 619.491, 676.541 619.663, 676.494 " fill="none" stroke="rgb(0, 0, 0)" stroke-linecap="butt" stroke-linejoin="round" stroke-opacity="1.0" stroke-width="3.0" />
            <path d=" M 841.731, 923.925 842.396, 926.177 839.523, 929.088 833.948, 931.900 831.394, 934.477 829.871, 937.299 827.405, 941.375 825.105, 946.024 822.400, 950.937 822.659, 953.533 824.042, 956.256 824.228, 956.622 824.295, 956.754 824.386, 956.934 824.224, 957.097 824.179, 957.142 821.894, 959.446 821.467, 959.877 " fill="none" stroke="rgb(0, 0, 0)" stroke-linecap="butt" stroke-linejoin="round" stroke-opacity="1.0" stroke-width="3.0" />
            <path d=" M 442.326, 851.037 442.731, 851.931 446.859, 861.040 449.517, 866.906 453.924, 875.882 455.949, 880.008 460.154, 889.081 461.683, 892.377 " fill="none" stroke="rgb(0, 0, 0)" stroke-linecap="butt" stroke-linejoin="round" stroke-opacity="1.0" stroke-width="3.0" />
            <path d=" M 701.568, 688.853 701.510, 689.032 696.683, 694.921 696.557, 697.096 696.695, 697.741 698.148, 700.096 700.380, 706.299 701.370, 709.720 703.300, 712.142 706.930, 713.809 710.086, 713.301 713.834, 713.748 721.691, 710.808 722.044, 710.646 " fill="none" stroke="rgb(0, 0, 0)" stroke-linecap="butt" stroke-linejoin="round" stroke-opacity="1.0" stroke-width="3.0" />
            <path d=" M 647.325, 800.728 647.701, 800.999 651.842, 803.985 652.660, 804.574 657.251, 807.407 660.691, 808.305 661.933, 808.629 663.423, 809.017 666.371, 809.970 668.085, 811.400 667.448, 812.975 663.903, 814.056 659.809, 815.859 655.865, 816.508 654.250, 817.464 648.263, 821.174 " fill="none" stroke="rgb(0, 0, 0)" stroke-linecap="butt" stroke-linejoin="round" stroke-opacity="1.0" stroke-width="3.0" />
            <path d=" M 866.418, 990.616 866.498, 990.994 866.830, 992.544 868.510, 1000.410 868.343, 1003.239 867.843, 1011.695 868.501, 1016.882 868.412, 1023.300 863.873, 1028.681 861.858, 1033.180 861.207, 1034.635 " fill="none" stroke="rgb(0, 0, 0)" stroke-linecap="butt" stroke-linejoin="round" stroke-opacity="1.0" stroke-width="3.0" />
            <path d=" M 738.759, 713.015 740.523, 717.329 742.254, 718.833 743.387, 719.693 748.201, 721.683 749.283, 723.095 749.488, 728.392 752.481, 733.486 753.412, 734.648 754.975, 736.598 755.133, 736.941 755.749, 738.277 757.562, 742.216 761.104, 748.722 761.305, 749.090 761.388, 749.250 762.594, 751.554 " fill="none" stroke="rgb(0, 0, 0)" stroke-linecap="butt" stroke-linejoin="round" stroke-opacity="1.0" stroke-width="3.0" />
            <path d=" M 531.587, 391.044 530.890, 391.010 526.208, 389.751 523.138, 389.784 516.155, 389.462 515.735, 389.442 512.386, 389.106 504.151, 389.421 496.207, 390.973 491.613, 391.334 487.587, 391.977 486.380, 391.915 484.694, 391.828 484.394, 391.813 " fill="none" stroke="rgb(0, 0, 0)" stroke-linecap="butt" stroke-linejoin="round" stroke-opacity="1.0" stroke-width="3.0" />
            <path d=" M 570.077, 820.977 573.061, 818.854 575.102, 816.705 577.439, 814.030 580.659, 808.221 581.656, 800.382 581.612, 797.252 580.128, 793.817 576.223, 790.277 572.357, 790.067 567.290, 790.851 564.818, 791.325 " fill="none" stroke="rgb(0, 0, 0)" stroke-linecap="butt" stroke-linejoin="round" stroke-opacity="1.0" stroke-width="3.0" />
            <path d=" M 561.266, 574.544 560.488, 576.940 558.792, 582.159 553.600, 588.459 551.414, 591.463 548.322, 594.011 546.761, 595.149 538.240, 599.331 537.763, 599.808 536.941, 600.628 536.766, 600.803 534.712, 601.472 532.372, 603.172 531.497, 603.808 530.395, 604.754 527.693, 606.646 527.096, 607.063 " fill="none" stroke="rgb(0, 0, 0)" stroke-linecap="butt" stroke-linejoin="round" stroke-opacity="1.0" stroke-width="3.0" />
            <path d=" M 566.168, 980.169 566.798, 980.128 568.670, 980.006 571.496, 981.605 571.500, 981.607 571.655, 981.695 573.404, 982.685 579.614, 983.091 586.372, 981.888 589.664, 980.599 598.794, 977.612 600.445, 976.047 599.648, 974.039 598.084, 972.906 594.282, 971.222 593.202, 970.762 590.268, 969.510 " fill="none" stroke="rgb(0, 0, 0)" stroke-linecap="butt" stroke-linejoin="round" stroke-opacity="1.0" stroke-width="3.0" />
            <path d=" M 568.243, 1015.955 568.670, 1015.995 568.854, 1016.012 568.986, 1016.024 570.030, 1016.122 570.155, 1016.134 570.185, 1016.137 570.304, 1016.148 570.386, 1016.156 570.588, 1016.175 570.589, 1016.175 570.642, 1016.180 570.664, 1016.182 571.739, 1016.283 572.296, 1016.335 574.255, 1017.403 574.829, 1017.716 575.424, 1017.846 576.396, 1018.057 577.616, 1018.321 577.624, 1018.321 582.623, 1018.173 587.104, 1016.854 589.551, 1016.134 595.471, 1013.733 598.348, 1011.306 597.215, 1009.060 594.600, 1004.718 589.115, 1001.361 586.588, 999.814 " fill="none" stroke="rgb(0, 0, 0)" stroke-linecap="butt" stroke-linejoin="round" stroke-opacity="1.0" stroke-width="3.0" />
            <path d=" M 683.089, 496.136 682.835, 491.719 681.998, 483.188 679.346, 474.027 676.145, 467.147 673.475, 462.907 672.705, 461.683 672.455, 461.287 669.898, 458.036 667.121, 455.796 663.567, 452.976 " fill="none" stroke="rgb(0, 0, 0)" stroke-linecap="butt" stroke-linejoin="round" stroke-opacity="1.0" stroke-width="3.0" />
            <path d=" M 460.858, 890.270 461.683, 892.377 464.388, 899.290 465.017, 900.897 466.168, 904.214 467.735, 908.728 469.699, 914.389 473.588, 923.601 473.819, 924.148 476.955, 931.005 479.525, 936.175 " fill="none" stroke="rgb(0, 0, 0)" stroke-linecap="butt" stroke-linejoin="round" stroke-opacity="1.0" stroke-width="3.0" />
            <path d=" M 789.961, 862.102 788.098, 865.137 785.559, 868.613 784.050, 871.422 784.508, 874.096 786.690, 876.145 791.019, 876.807 796.005, 878.561 803.221, 879.526 810.293, 882.191 812.928, 882.315 818.139, 879.646 " fill="none" stroke="rgb(0, 0, 0)" stroke-linecap="butt" stroke-linejoin="round" stroke-opacity="1.0" stroke-width="3.0" />
            <path d=" M 506.009, 775.634 500.701, 771.458 498.723, 769.578 495.434, 767.414 491.775, 765.815 488.961, 764.292 484.524, 761.842 476.586, 759.356 470.017, 755.623 465.393, 752.919 462.541, 751.252 " fill="none" stroke="rgb(0, 0, 0)" stroke-linecap="butt" stroke-linejoin="round" stroke-opacity="1.0" stroke-width="3.0" />
            <path d=" M 524.416, 1063.770 524.857, 1064.476 525.152, 1065.053 527.585, 1066.476 534.350, 1073.841 534.879, 1074.417 540.345, 1079.556 545.819, 1084.346 550.842, 1090.346 556.081, 1095.507 557.943, 1096.741 560.858, 1099.590 " fill="none" stroke="rgb(0, 0, 0)" stroke-linecap="butt" stroke-linejoin="round" stroke-opacity="1.0" stroke-width="3.0" />
            <path d=" M 588.582, 468.558 587.718, 467.110 582.709, 462.116 577.368, 458.161 572.033, 452.802 571.881, 452.649 571.372, 452.138 570.724, 451.487 570.009, 450.805 564.592, 445.642 560.442, 442.623 559.066, 441.622 557.661, 440.600 557.123, 440.209 556.989, 440.111 551.738, 437.766 548.063, 436.955 " fill="none" stroke="rgb(0, 0, 0)" stroke-linecap="butt" stroke-linejoin="round" stroke-opacity="1.0" stroke-width="3.0" />
            <path d=" M 745.153, 748.676 744.857, 749.072 744.832, 749.104 741.722, 753.268 740.895, 755.987 741.389, 757.673 743.556, 760.372 747.249, 764.398 749.168, 767.289 750.288, 772.969 749.970, 779.678 751.341, 783.522 756.012, 787.598 763.109, 789.520 " fill="none" stroke="rgb(0, 0, 0)" stroke-linecap="butt" stroke-linejoin="round" stroke-opacity="1.0" stroke-width="3.0" />
            <path d=" M 725.390, 710.167 725.358, 710.204 724.256, 711.466 721.869, 714.201 719.265, 717.647 718.698, 720.856 718.981, 723.445 720.275, 726.408 722.836, 728.804 727.583, 730.971 730.036, 734.943 731.154, 741.874 732.335, 744.335 735.812, 746.582 738.459, 747.309 743.046, 748.054 " fill="none" stroke="rgb(0, 0, 0)" stroke-linecap="butt" stroke-linejoin="round" stroke-opacity="1.0" stroke-width="3.0" />
            <path d=" M 813.313, 585.067 811.119, 575.311 810.919, 574.423 810.922, 564.423 810.922, 563.961 811.007, 558.074 810.555, 553.802 810.676, 546.412 808.551, 538.584 808.208, 534.752 807.729, 533.102 806.978, 530.520 " fill="none" stroke="rgb(0, 0, 0)" stroke-linecap="butt" stroke-linejoin="round" stroke-opacity="1.0" stroke-width="3.0" />
            <path d=" M 580.758, 905.267 582.911, 903.744 583.332, 903.446 584.085, 901.276 583.622, 899.893 583.125, 898.639 583.023, 898.382 583.023, 898.382 580.771, 892.701 579.665, 889.877 580.175, 887.993 582.760, 883.568 582.826, 883.453 582.834, 878.852 582.786, 877.917 581.801, 875.040 579.670, 872.365 578.554, 870.823 578.475, 870.715 578.252, 870.407 577.779, 869.753 576.365, 868.776 569.708, 869.225 569.583, 869.234 569.002, 869.266 568.720, 869.282 568.701, 869.283 568.159, 869.314 568.009, 869.323 563.204, 869.594 562.857, 869.613 562.848, 869.614 561.572, 868.383 " fill="none" stroke="rgb(0, 0, 0)" stroke-linecap="butt" stroke-linejoin="round" stroke-opacity="1.0" stroke-width="3.0" />
            <path d=" M 854.984, 965.332 853.617, 967.267 850.117, 969.930 846.304, 972.599 842.452, 976.696 840.038, 980.772 841.246, 982.638 842.332, 983.812 841.914, 986.958 843.561, 988.472 848.166, 988.759 853.775, 988.431 860.221, 985.452 862.402, 985.479 864.140, 986.681 866.498, 990.994 " fill="none" stroke="rgb(0, 0, 0)" stroke-linecap="butt" stroke-linejoin="round" stroke-opacity="1.0" stroke-width="3.0" />
            <path d=" M 776.128, 759.633 776.157, 759.750 776.449, 760.918 777.641, 765.688 778.150, 766.935 780.405, 769.849 782.189, 773.546 784.548, 776.764 784.589, 776.820 784.875, 777.211 785.038, 779.201 785.328, 782.731 788.349, 791.800 788.566, 798.676 789.687, 801.903 791.802, 807.393 793.318, 810.182 793.880, 811.216 794.908, 813.107 " fill="none" stroke="rgb(0, 0, 0)" stroke-linecap="butt" stroke-linejoin="round" stroke-opacity="1.0" stroke-width="3.0" />
            <path d=" M 623.634, 732.785 623.657, 732.685 625.393, 725.311 626.433, 719.405 626.555, 718.709 627.887, 709.842 629.806, 702.237 631.442, 693.923 631.246, 689.278 629.875, 683.523 628.846, 681.194 627.831, 675.819 " fill="none" stroke="rgb(0, 0, 0)" stroke-linecap="butt" stroke-linejoin="round" stroke-opacity="1.0" stroke-width="3.0" />
            <path d=" M 619.735, 1125.192 621.556, 1121.943 622.525, 1120.609 624.778, 1120.394 629.826, 1122.215 635.660, 1122.501 638.864, 1121.683 643.662, 1118.066 644.002, 1114.260 641.896, 1111.197 638.619, 1109.991 632.839, 1107.538 629.647, 1105.333 626.889, 1104.460 620.745, 1101.743 " fill="none" stroke="rgb(0, 0, 0)" stroke-linecap="butt" stroke-linejoin="round" stroke-opacity="1.0" stroke-width="3.0" />
            <path d=" M 539.165, 679.956 539.443, 681.521 539.645, 682.654 540.029, 684.531 540.641, 687.522 542.607, 695.138 543.666, 699.243 543.714, 699.426 543.704, 699.488 542.416, 708.171 543.461, 716.943 544.795, 723.059 544.909, 723.339 546.343, 726.857 546.558, 729.184 546.617, 729.821 546.684, 730.542 546.705, 730.771 546.705, 730.775 546.986, 733.810 546.994, 733.892 546.821, 737.917 546.808, 738.221 546.406, 740.032 " fill="none" stroke="rgb(0, 0, 0)" stroke-linecap="butt" stroke-linejoin="round" stroke-opacity="1.0" stroke-width="3.0" />
            <path d=" M 562.294, 771.211 562.873, 765.296 562.949, 764.511 565.823, 755.623 567.102, 753.170 566.414, 751.042 564.904, 749.289 561.084, 748.831 555.393, 750.390 554.520, 750.629 548.995, 756.938 548.105, 758.022 546.606, 759.846 543.806, 765.217 541.966, 770.902 541.772, 774.308 541.742, 774.832 " fill="none" stroke="rgb(0, 0, 0)" stroke-linecap="butt" stroke-linejoin="round" stroke-opacity="1.0" stroke-width="3.0" />
            <path d=" M 935.192, 784.601 934.860, 782.950 933.611, 776.745 931.889, 766.895 931.455, 764.414 929.686, 758.117 927.344, 748.395 925.941, 742.569 923.976, 734.814 921.894, 726.154 921.250, 723.478 " fill="none" stroke="rgb(0, 0, 0)" stroke-linecap="butt" stroke-linejoin="round" stroke-opacity="1.0" stroke-width="3.0" />
            <path d=" M 907.045, 1074.067 907.212, 1074.159 907.889, 1074.535 909.470, 1075.412 910.583, 1076.029 910.626, 1076.053 911.147, 1076.342 911.620, 1076.456 911.632, 1076.458 913.960, 1077.017 914.940, 1077.252 915.113, 1077.293 917.011, 1076.526 918.842, 1075.786 923.558, 1072.159 926.423, 1067.399 926.647, 1067.028 926.703, 1066.862 928.127, 1062.674 928.244, 1062.328 928.849, 1060.548 929.426, 1059.565 929.438, 1059.544 930.241, 1058.175 930.364, 1057.966 931.789, 1055.538 932.933, 1051.827 933.583, 1047.278 933.670, 1046.671 933.882, 1045.331 934.068, 1044.156 934.619, 1040.675 935.406, 1034.054 935.698, 1028.900 " fill="none" stroke="rgb(0, 0, 0)" stroke-linecap="butt" stroke-linejoin="round" stroke-opacity="1.0" stroke-width="3.0" />
            <path d=" M 806.289, 908.175 803.432, 909.671 799.679, 913.358 798.832, 914.365 799.551, 916.761 805.132, 918.640 807.879, 919.560 812.822, 920.410 817.284, 921.428 822.440, 922.161 827.293, 923.570 834.478, 923.037 840.180, 922.893 841.731, 923.925 842.768, 924.616 841.511, 922.526 840.849, 921.423 839.740, 919.578 837.975, 916.641 " fill="none" stroke="rgb(0, 0, 0)" stroke-linecap="butt" stroke-linejoin="round" stroke-opacity="1.0" stroke-width="3.0" />
            <path d=" M 637.063, 988.621 641.445, 987.597 641.454, 987.599 646.270, 988.349 653.116, 987.674 655.726, 986.998 658.409, 985.917 666.536, 982.354 667.562, 980.867 666.820, 979.017 661.147, 974.493 656.688, 969.649 653.539, 965.219 648.635, 961.819 645.629, 959.680 645.580, 959.645 645.573, 959.640 645.076, 959.286 641.629, 956.712 " fill="none" stroke="rgb(0, 0, 0)" stroke-linecap="butt" stroke-linejoin="round" stroke-opacity="1.0" stroke-width="3.0" />
            <path d=" M 939.803, 1027.049 941.904, 1017.273 942.633, 1013.879 945.128, 1004.195 946.163, 1000.179 946.436, 997.867 949.089, 988.226 949.183, 987.883 950.685, 977.997 951.905, 969.957 952.285, 964.300 952.389, 959.738 " fill="none" stroke="rgb(0, 0, 0)" stroke-linecap="butt" stroke-linejoin="round" stroke-opacity="1.0" stroke-width="3.0" />
            <path d=" M 578.566, 521.559 577.073, 521.240 573.873, 520.326 571.082, 519.626 567.875, 519.077 565.284, 518.634 558.051, 517.874 548.299, 520.087 545.710, 520.674 540.747, 522.649 539.899, 523.103 533.157, 526.712 527.135, 532.633 522.491, 540.946 521.963, 543.984 521.935, 544.369 " fill="none" stroke="rgb(0, 0, 0)" stroke-linecap="butt" stroke-linejoin="round" stroke-opacity="1.0" stroke-width="3.0" />
            <path d=" M 616.872, 432.247 617.843, 431.280 620.831, 428.304 624.008, 423.647 626.445, 417.581 626.947, 413.723 627.132, 411.630 627.059, 408.315 626.042, 401.608 623.231, 395.405 621.238, 392.357 618.001, 390.809 612.354, 392.895 609.507, 395.579 608.474, 396.561 602.547, 401.387 599.927, 402.974 " fill="none" stroke="rgb(0, 0, 0)" stroke-linecap="butt" stroke-linejoin="round" stroke-opacity="1.0" stroke-width="3.0" />
            <path d=" M 574.882, 753.387 574.146, 752.562 573.911, 752.299 573.249, 751.557 572.204, 750.387 571.944, 750.095 569.647, 745.026 569.017, 740.967 568.165, 731.004 567.982, 728.872 567.953, 721.213 568.791, 712.328 569.438, 707.289 570.679, 699.798 572.209, 697.254 574.780, 687.728 576.578, 683.677 " fill="none" stroke="rgb(0, 0, 0)" stroke-linecap="butt" stroke-linejoin="round" stroke-opacity="1.0" stroke-width="3.0" />
            <path d=" M 881.368, 1068.991 879.116, 1070.703 877.081, 1076.375 877.714, 1086.355 877.731, 1086.629 878.474, 1093.596 878.667, 1094.596 882.020, 1097.654 886.099, 1099.987 889.390, 1098.869 891.394, 1094.228 892.292, 1092.146 894.219, 1082.333 894.386, 1081.478 897.797, 1076.673 901.216, 1073.507 904.205, 1074.279 904.440, 1074.261 907.045, 1074.067 907.212, 1074.054 907.236, 1074.052 " fill="none" stroke="rgb(0, 0, 0)" stroke-linecap="butt" stroke-linejoin="round" stroke-opacity="1.0" stroke-width="3.0" />
            <path d=" M 650.299, 836.846 650.997, 837.327 651.371, 837.586 652.960, 838.683 653.117, 838.792 655.950, 840.748 661.045, 842.973 669.578, 842.466 675.701, 840.779 676.612, 840.547 676.646, 840.538 676.871, 840.481 676.917, 840.469 678.234, 840.134 678.533, 840.058 681.171, 839.386 682.134, 839.141 682.858, 838.917 685.827, 837.997 687.831, 835.132 687.817, 831.260 687.473, 830.224 686.276, 827.344 684.987, 823.284 685.292, 819.280 686.341, 816.364 682.013, 809.575 678.198, 808.356 677.826, 808.237 677.867, 807.725 677.935, 806.865 677.967, 806.457 " fill="none" stroke="rgb(0, 0, 0)" stroke-linecap="butt" stroke-linejoin="round" stroke-opacity="1.0" stroke-width="3.0" />
            <path d=" M 619.491, 676.541 623.993, 676.058 625.242, 675.980 625.245, 675.980 626.399, 675.908 627.788, 675.822 627.831, 675.819 630.754, 675.637 635.402, 675.095 640.720, 675.171 643.339, 674.892 645.758, 674.635 652.027, 674.551 659.087, 674.609 659.336, 674.611 660.643, 674.622 661.525, 674.648 662.578, 674.679 664.989, 674.749 669.196, 675.127 674.761, 676.156 677.030, 676.576 677.815, 676.721 678.741, 676.892 679.282, 677.021 686.089, 678.640 693.534, 680.397 693.826, 680.466 693.978, 680.502 " fill="none" stroke="rgb(0, 0, 0)" stroke-linecap="butt" stroke-linejoin="round" stroke-opacity="1.0" stroke-width="3.0" />
            <path d=" M 616.737, 1075.253 617.744, 1073.929 620.758, 1071.204 626.467, 1067.919 627.661, 1067.232 627.953, 1067.240 630.069, 1067.301 637.713, 1070.619 642.941, 1072.417 651.347, 1074.538 653.465, 1074.886 660.557, 1076.048 668.711, 1076.434 676.627, 1076.229 685.084, 1075.768 689.110, 1074.969 " fill="none" stroke="rgb(0, 0, 0)" stroke-linecap="butt" stroke-linejoin="round" stroke-opacity="1.0" stroke-width="3.0" />
            <path d=" M 686.655, 1075.347 689.110, 1074.969 693.107, 1074.355 694.737, 1073.223 694.572, 1070.877 692.589, 1067.310 683.030, 1064.373 681.777, 1063.988 676.000, 1061.005 672.601, 1059.567 664.853, 1055.156 660.005, 1051.600 656.904, 1049.570 651.103, 1044.685 644.151, 1038.025 642.789, 1036.417 640.857, 1034.138 " fill="none" stroke="rgb(0, 0, 0)" stroke-linecap="butt" stroke-linejoin="round" stroke-opacity="1.0" stroke-width="3.0" />
            <path d=" M 563.586, 945.065 564.016, 945.365 565.152, 946.157 565.845, 946.641 567.155, 947.554 569.473, 948.624 569.594, 948.680 569.666, 948.713 569.797, 948.773 570.400, 949.051 572.177, 949.871 572.495, 950.018 575.694, 949.631 579.324, 947.052 580.628, 944.999 587.383, 941.183 588.896, 940.263 592.521, 938.060 593.730, 936.228 593.745, 936.133 594.076, 934.005 591.319, 928.653 588.360, 925.575 585.969, 923.088 581.592, 918.390 579.174, 916.831 577.887, 912.495 576.370, 910.044 576.172, 909.724 575.893, 909.274 576.168, 909.090 576.406, 908.931 577.905, 907.932 580.665, 906.583 582.911, 903.744 " fill="none" stroke="rgb(0, 0, 0)" stroke-linecap="butt" stroke-linejoin="round" stroke-opacity="1.0" stroke-width="3.0" />
            <path d=" M 596.649, 421.351 595.972, 419.690 595.885, 419.476 595.798, 419.260 595.037, 417.392 594.466, 415.989 593.063, 412.479 591.621, 408.033 590.026, 404.864 588.291, 401.002 587.420, 399.062 587.069, 398.617 585.847, 397.069 583.778, 395.043 581.563, 391.785 578.785, 390.233 576.733, 388.102 575.383, 386.699 572.598, 383.585 570.773, 382.417 568.952, 381.491 563.809, 382.610 558.873, 384.582 553.007, 385.809 550.555, 386.322 549.376, 386.789 543.411, 389.236 543.151, 389.343 540.182, 390.561 " fill="none" stroke="rgb(0, 0, 0)" stroke-linecap="butt" stroke-linejoin="round" stroke-opacity="1.0" stroke-width="3.0" />
            <path d=" M 489.828, 962.701 493.063, 972.163 494.241, 975.607 496.798, 985.275 497.114, 986.471 497.184, 986.735 497.245, 987.096 498.909, 996.957 499.722, 1001.775 501.141, 1008.368 502.528, 1013.432 504.609, 1022.475 507.136, 1029.851 509.945, 1038.319 510.542, 1040.170 512.763, 1047.067 513.722, 1050.044 " fill="none" stroke="rgb(0, 0, 0)" stroke-linecap="butt" stroke-linejoin="round" stroke-opacity="1.0" stroke-width="3.0" />
            <path d=" M 510.542, 1040.170 511.025, 1044.640 511.501, 1051.280 511.471, 1056.929 512.589, 1066.067 513.496, 1071.589 515.185, 1077.014 515.462, 1077.902 515.629, 1078.272 515.666, 1078.354 519.890, 1086.272 523.152, 1090.770 527.239, 1095.635 529.102, 1097.605 534.275, 1102.823 539.523, 1109.851 543.769, 1114.050 545.885, 1117.448 550.607, 1122.409 " fill="none" stroke="rgb(0, 0, 0)" stroke-linecap="butt" stroke-linejoin="round" stroke-opacity="1.0" stroke-width="3.0" />
            <path d=" M 662.139, 485.602 657.007, 479.495 656.785, 479.231 653.582, 476.244 653.431, 476.104 653.368, 476.045 653.143, 475.835 652.831, 475.544 652.818, 475.537 646.059, 471.744 643.990, 470.562 640.463, 468.546 640.427, 468.526 639.994, 468.278 639.557, 467.927 639.268, 467.696 634.198, 463.627 633.919, 462.976 633.838, 462.788 633.308, 461.554 632.315, 459.240 632.289, 459.178 624.987, 456.046 620.361, 456.152 619.531, 456.155 619.410, 456.156 619.103, 456.157 618.854, 456.158 609.011, 456.197 607.874, 456.396 606.100, 456.706 605.272, 456.850 602.588, 457.320 602.587, 457.320 602.408, 457.351 602.359, 457.360 600.902, 457.614 596.109, 459.788 593.952, 460.798 593.839, 460.919 589.073, 465.960 588.582, 468.558 588.513, 468.924 588.638, 470.567 588.738, 471.609 588.866, 471.837 589.019, 472.108 589.441, 472.861 590.093, 474.020 591.273, 475.186 593.328, 476.516 594.442, 477.237 595.110, 477.669 595.306, 477.796 595.702, 478.052 595.789, 478.108 " fill="none" stroke="rgb(0, 0, 0)" stroke-linecap="butt" stroke-linejoin="round" stroke-opacity="1.0" stroke-width="3.0" />
            <path d=" M 935.088, 1031.299 935.698, 1028.900 936.587, 1025.405 937.587, 1018.797 938.487, 1016.482 939.205, 1007.177 939.249, 1001.374 938.993, 995.950 939.393, 987.296 939.181, 982.650 940.376, 974.792 941.529, 964.820 942.697, 954.888 942.817, 953.872 944.631, 944.038 944.892, 942.625 944.755, 933.039 943.662, 929.824 942.681, 927.882 942.315, 927.397 941.401, 925.962 " fill="none" stroke="rgb(0, 0, 0)" stroke-linecap="butt" stroke-linejoin="round" stroke-opacity="1.0" stroke-width="3.0" />
            <path d=" M 436.638, 458.529 436.627, 458.709 436.357, 463.405 435.827, 468.194 435.988, 472.352 435.616, 475.888 435.659, 476.614 436.604, 480.007 435.117, 485.157 433.977, 489.546 432.088, 496.250 430.341, 503.219 429.253, 507.598 426.602, 513.224 423.180, 520.750 420.664, 525.785 416.041, 532.297 414.525, 534.798 411.114, 538.603 405.736, 544.613 402.077, 549.250 400.211, 552.381 399.150, 554.056 395.962, 559.847 393.480, 565.035 393.435, 565.130 " fill="none" stroke="rgb(0, 0, 0)" stroke-linecap="butt" stroke-linejoin="round" stroke-opacity="1.0" stroke-width="3.0" />
            <path d=" M 556.081, 1095.507 558.321, 1096.263 559.387, 1096.622 562.325, 1097.289 563.433, 1097.266 563.443, 1097.273 563.643, 1097.411 570.458, 1102.139 574.330, 1104.646 575.054, 1105.115 578.418, 1107.291 580.085, 1107.993 581.557, 1108.512 582.160, 1108.725 582.176, 1108.731 583.663, 1109.255 586.148, 1110.132 591.945, 1111.455 599.770, 1112.069 607.275, 1112.598 611.812, 1112.564 614.309, 1112.317 616.717, 1110.978 617.583, 1109.146 614.586, 1105.642 608.442, 1103.601 606.561, 1100.964 603.039, 1098.283 600.482, 1096.476 597.279, 1093.456 594.423, 1090.812 591.070, 1087.349 591.035, 1087.313 590.384, 1086.651 590.347, 1086.614 585.679, 1081.872 583.722, 1079.883 582.867, 1079.016 582.037, 1077.646 581.270, 1076.380 581.075, 1074.834 581.031, 1074.480 " fill="none" stroke="rgb(0, 0, 0)" stroke-linecap="butt" stroke-linejoin="round" stroke-opacity="1.0" stroke-width="3.0" />
            <path d=" M 527.693, 606.646 526.513, 607.208 524.943, 608.504 524.193, 609.260 522.402, 611.065 520.952, 611.762 519.299, 612.557 513.977, 615.234 510.835, 617.200 508.784, 618.164 508.578, 618.261 506.810, 619.259 504.643, 619.804 501.670, 620.064 497.574, 619.819 496.907, 619.800 494.419, 620.523 492.165, 621.992 490.170, 624.974 489.484, 631.739 489.870, 638.308 491.003, 645.394 493.583, 651.399 499.470, 658.214 503.595, 661.182 504.857, 662.091 505.263, 662.279 509.445, 666.433 513.602, 669.378 516.922, 672.462 519.224, 673.407 519.399, 673.479 520.132, 673.779 527.037, 675.551 529.502, 676.820 532.946, 677.854 533.640, 677.903 535.026, 678.066 " fill="none" stroke="rgb(0, 0, 0)" stroke-linecap="butt" stroke-linejoin="round" stroke-opacity="1.0" stroke-width="3.0" />
            <path d=" M 373.533, 742.662 373.424, 743.960 375.065, 752.221 375.563, 754.241 377.251, 758.204 380.412, 763.303 384.624, 768.772 390.073, 775.558 396.310, 783.374 396.406, 783.494 402.060, 791.516 406.213, 797.430 409.493, 802.411 412.667, 806.973 418.198, 813.767 423.464, 820.906 428.092, 827.138 432.863, 833.919 435.923, 839.218 439.286, 845.750 442.731, 851.931 " fill="none" stroke="rgb(0, 0, 0)" stroke-linecap="butt" stroke-linejoin="round" stroke-opacity="1.0" stroke-width="3.0" />
            <path d=" M 391.827, 733.650 392.108, 738.039 392.906, 745.495 393.115, 749.925 394.604, 757.235 396.300, 761.041 396.566, 761.640 396.564, 761.710 396.439, 765.333 398.370, 768.873 399.970, 772.818 403.237, 780.022 405.352, 784.746 408.073, 790.095 410.167, 793.100 411.935, 796.185 413.384, 799.597 415.811, 803.114 419.225, 808.773 421.754, 813.048 425.674, 818.602 429.229, 823.127 434.377, 831.700 434.536, 831.964 437.709, 835.457 440.316, 838.341 440.678, 838.803 442.783, 841.494 446.198, 845.860 446.998, 846.883 451.658, 851.657 452.851, 852.879 456.357, 855.086 460.921, 859.060 462.542, 860.471 " fill="none" stroke="rgb(0, 0, 0)" stroke-linecap="butt" stroke-linejoin="round" stroke-opacity="1.0" stroke-width="3.0" />
            <path d=" M 393.480, 565.035 391.871, 566.830 388.289, 575.659 386.482, 580.753 386.463, 580.807 386.267, 581.357 385.417, 583.753 382.793, 590.152 382.748, 590.261 381.988, 592.115 381.974, 592.148 381.955, 592.194 381.608, 593.041 379.347, 599.818 378.101, 604.004 377.024, 607.620 375.638, 615.454 374.803, 625.154 374.422, 635.147 374.303, 638.253 374.348, 641.780 374.520, 646.897 374.644, 649.821 375.022, 659.814 375.059, 660.802 375.673, 666.841 376.780, 672.094 379.650, 679.773 380.934, 683.379 381.224, 684.195 381.411, 684.721 383.675, 690.160 384.117, 690.899 386.211, 694.395 386.151, 695.337 385.987, 697.907 387.023, 701.284 387.457, 701.842 387.945, 706.998 388.728, 712.719 388.809, 713.117 389.640, 717.223 389.864, 719.703 389.879, 719.870 389.922, 720.351 390.040, 721.652 390.369, 725.305 391.827, 733.650 391.851, 733.790 " fill="none" stroke="rgb(0, 0, 0)" stroke-linecap="butt" stroke-linejoin="round" stroke-opacity="1.0" stroke-width="3.0" />
            <path d=" M 952.292, 960.969 952.389, 959.738 953.174, 949.769 953.563, 944.823 954.585, 934.876 954.914, 931.671 955.445, 922.453 955.191, 915.842 954.826, 905.956 954.392, 899.452 953.948, 891.690 953.491, 885.320 952.692, 879.122 950.774, 869.434 949.012, 859.590 947.472, 850.982 945.941, 841.100 944.446, 831.444 942.276, 821.682 941.976, 820.328 940.528, 810.434 940.480, 810.104 938.594, 800.244 936.483, 790.469 934.860, 782.950 " fill="none" stroke="rgb(0, 0, 0)" stroke-linecap="butt" stroke-linejoin="round" stroke-opacity="1.0" stroke-width="3.0" />
            <path d=" M 921.894, 726.154 920.200, 717.282 917.323, 707.705 916.557, 705.156 914.560, 695.718 913.013, 689.341 910.853, 683.300 908.190, 673.661 906.377, 667.097 905.085, 662.839 903.196, 653.019 903.004, 652.022 900.474, 644.036 898.468, 634.299 895.527, 624.742 895.255, 623.858 894.837, 621.108 893.196, 617.746 891.753, 608.908 889.920, 605.730 888.430, 598.590 887.984, 593.900 886.401, 590.466 885.852, 585.357 884.582, 575.438 884.505, 574.832 882.618, 566.582 882.352, 559.186 882.989, 552.533 882.273, 549.320 883.381, 539.403 882.676, 536.829 882.741, 532.790 881.388, 526.811 879.538, 523.128 879.122, 522.298 " fill="none" stroke="rgb(0, 0, 0)" stroke-linecap="butt" stroke-linejoin="round" stroke-opacity="1.0" stroke-width="3.0" />
            <path d=" M 932.508, 899.490 932.267, 898.412 930.127, 888.853 929.112, 881.851 926.776, 874.384 922.788, 865.214 922.557, 864.684 919.956, 861.050 915.520, 852.088 913.903, 848.821 913.301, 847.605 909.528, 838.311 905.841, 829.231 902.632, 819.760 901.628, 816.797 899.109, 808.244 896.419, 798.613 895.196, 794.238 892.453, 787.710 890.340, 784.672 888.411, 778.787 886.810, 775.003 885.968, 772.079 883.741, 770.468 881.416, 764.676 877.305, 755.560 875.526, 751.614 871.503, 742.459 871.256, 741.896 867.680, 732.557 864.104, 723.218 861.907, 717.479 859.578, 708.228 855.171, 699.252 854.234, 697.343 850.775, 690.221 848.543, 684.338 844.703, 675.105 841.729, 667.955 838.374, 658.535 837.367, 655.707 835.469, 652.136 831.885, 642.800 830.420, 638.981 826.106, 629.959 825.976, 629.688 824.076, 619.870 823.444, 616.608 822.192, 612.464 819.516, 602.829 819.431, 602.521 817.806, 596.023 815.076, 589.417 813.313, 585.067 812.263, 582.477 " fill="none" stroke="rgb(0, 0, 0)" stroke-linecap="butt" stroke-linejoin="round" stroke-opacity="1.0" stroke-width="3.0" />
        </g>
    </g>
</svg>
