<?xml version='1.0' encoding='ascii'?>
<svg xmlns="http://www.w3.org/2000/svg" height="1280" version="1.1" width="1280">
    <g id="RenderLayer_LineSet" inkscape:groupmode="lineset" inkscape:label="RenderLayer_LineSet" xmlns:inkscape="http://www.inkscape.org/namespaces/inkscape">
        <g id="strokes" inkscape:groupmode="layer" inkscape:label="strokes" xmlns:inkscape="http://www.inkscape.org/namespaces/inkscape">
            <path d=" M 479.028, 1033.150 483.142, 1036.291 488.174, 1038.880 497.116, 1040.479 497.263, 1040.506 " fill="none" stroke="rgb(0, 0, 0)" stroke-linecap="butt" stroke-linejoin="round" stroke-opacity="1.0" stroke-width="3.0" />
            <path d=" M 475.164, 1032.002 478.642, 1032.855 479.823, 1033.144 480.655, 1033.348 481.425, 1033.537 491.138, 1035.919 494.699, 1036.792 " fill="none" stroke="rgb(0, 0, 0)" stroke-linecap="butt" stroke-linejoin="round" stroke-opacity="1.0" stroke-width="3.0" />
            <path d=" M 547.817, 376.889 544.149, 377.803 538.154, 379.297 533.154, 381.287 531.714, 381.844 529.363, 383.485 528.900, 383.809 " fill="none" stroke="rgb(0, 0, 0)" stroke-linecap="butt" stroke-linejoin="round" stroke-opacity="1.0" stroke-width="3.0" />
            <path d=" M 648.198, 531.472 649.096, 531.189 651.950, 527.917 653.869, 525.597 652.669, 523.804 649.604, 519.517 649.542, 519.430 649.226, 518.941 648.582, 517.944 647.055, 515.582 " fill="none" stroke="rgb(0, 0, 0)" stroke-linecap="butt" stroke-linejoin="round" stroke-opacity="1.0" stroke-width="3.0" />
            <path d=" M 407.169, 1043.932 415.414, 1038.274 415.708, 1038.072 416.045, 1037.998 416.958, 1037.798 423.106, 1036.448 425.458, 1035.634 " fill="none" stroke="rgb(0, 0, 0)" stroke-linecap="butt" stroke-linejoin="round" stroke-opacity="1.0" stroke-width="3.0" />
            <path d=" M 628.554, 590.755 629.224, 590.170 629.652, 589.797 629.777, 589.687 629.806, 589.661 630.271, 589.256 632.608, 587.215 634.839, 585.337 636.913, 581.412 634.965, 576.651 634.436, 575.357 634.366, 575.188 634.224, 574.839 634.177, 574.724 633.940, 574.147 " fill="none" stroke="rgb(0, 0, 0)" stroke-linecap="butt" stroke-linejoin="round" stroke-opacity="1.0" stroke-width="3.0" />
            <path d=" M 820.437, 645.293 817.621, 645.448 816.831, 645.889 814.081, 648.167 812.749, 650.019 812.712, 650.490 812.663, 651.118 812.661, 651.131 812.523, 652.878 813.668, 655.919 816.515, 660.125 " fill="none" stroke="rgb(0, 0, 0)" stroke-linecap="butt" stroke-linejoin="round" stroke-opacity="1.0" stroke-width="3.0" />
            <path d=" M 869.155, 517.988 869.056, 518.443 868.604, 520.523 868.502, 520.994 868.476, 521.111 868.400, 521.462 868.405, 521.671 868.412, 521.914 868.413, 521.950 868.415, 522.055 868.557, 527.611 869.138, 531.535 869.533, 538.034 869.608, 538.673 " fill="none" stroke="rgb(0, 0, 0)" stroke-linecap="butt" stroke-linejoin="round" stroke-opacity="1.0" stroke-width="3.0" />
            <path d=" M 605.022, 536.797 601.120, 532.607 600.280, 531.525 597.274, 527.652 595.229, 522.993 595.041, 521.183 594.839, 519.228 " fill="none" stroke="rgb(0, 0, 0)" stroke-linecap="butt" stroke-linejoin="round" stroke-opacity="1.0" stroke-width="3.0" />
            <path d=" M 860.700, 499.059 863.507, 506.731 864.401, 508.317 864.423, 508.357 868.530, 515.645 868.912, 517.077 869.042, 517.566 869.155, 517.988 869.263, 518.393 " fill="none" stroke="rgb(0, 0, 0)" stroke-linecap="butt" stroke-linejoin="round" stroke-opacity="1.0" stroke-width="3.0" />
            <path d=" M 830.185, 618.411 829.926, 618.809 828.566, 620.894 827.121, 622.671 826.834, 623.024 825.401, 624.359 824.910, 625.837 824.918, 628.047 826.670, 630.711 829.196, 632.956 831.741, 635.202 " fill="none" stroke="rgb(0, 0, 0)" stroke-linecap="butt" stroke-linejoin="round" stroke-opacity="1.0" stroke-width="3.0" />
            <path d=" M 674.418, 775.443 673.895, 775.807 672.662, 777.158 670.787, 779.213 668.774, 788.139 668.762, 791.954 668.752, 795.149 " fill="none" stroke="rgb(0, 0, 0)" stroke-linecap="butt" stroke-linejoin="round" stroke-opacity="1.0" stroke-width="3.0" />
            <path d=" M 609.810, 627.847 609.194, 626.358 609.487, 625.116 610.783, 622.327 612.497, 619.402 612.790, 617.142 610.557, 613.703 607.677, 611.190 606.953, 610.451 606.695, 610.187 606.659, 610.151 606.296, 609.780 " fill="none" stroke="rgb(0, 0, 0)" stroke-linecap="butt" stroke-linejoin="round" stroke-opacity="1.0" stroke-width="3.0" />
            <path d=" M 811.333, 677.239 810.545, 677.714 809.980, 678.055 809.735, 678.203 809.098, 678.273 808.306, 678.360 807.158, 678.486 806.202, 678.591 805.190, 678.703 801.557, 681.593 801.474, 681.658 798.419, 686.588 797.709, 687.803 796.064, 690.613 " fill="none" stroke="rgb(0, 0, 0)" stroke-linecap="butt" stroke-linejoin="round" stroke-opacity="1.0" stroke-width="3.0" />
            <path d=" M 613.078, 912.081 607.029, 916.952 606.770, 917.160 603.664, 919.661 600.707, 921.151 599.990, 921.513 599.916, 921.550 597.863, 922.585 596.962, 923.040 595.233, 923.911 594.995, 924.031 594.955, 924.051 " fill="none" stroke="rgb(0, 0, 0)" stroke-linecap="butt" stroke-linejoin="round" stroke-opacity="1.0" stroke-width="3.0" />
            <path d=" M 639.588, 562.594 640.419, 562.280 646.861, 559.804 648.595, 557.914 649.136, 556.952 646.575, 551.656 646.324, 550.413 645.654, 547.099 " fill="none" stroke="rgb(0, 0, 0)" stroke-linecap="butt" stroke-linejoin="round" stroke-opacity="1.0" stroke-width="3.0" />
            <path d=" M 293.688, 875.233 293.665, 875.645 293.501, 878.630 293.737, 881.137 294.412, 888.333 295.634, 893.420 296.505, 897.046 " fill="none" stroke="rgb(0, 0, 0)" stroke-linecap="butt" stroke-linejoin="round" stroke-opacity="1.0" stroke-width="3.0" />
            <path d=" M 762.598, 955.972 764.012, 956.054 768.885, 956.335 773.012, 956.093 775.312, 956.303 776.826, 956.262 780.450, 954.334 780.519, 954.349 784.163, 955.124 " fill="none" stroke="rgb(0, 0, 0)" stroke-linecap="butt" stroke-linejoin="round" stroke-opacity="1.0" stroke-width="3.0" />
            <path d=" M 694.410, 832.521 703.964, 829.569 705.400, 829.126 707.825, 828.376 716.039, 828.360 " fill="none" stroke="rgb(0, 0, 0)" stroke-linecap="butt" stroke-linejoin="round" stroke-opacity="1.0" stroke-width="3.0" />
            <path d=" M 465.131, 950.556 472.467, 944.326 472.804, 944.103 473.739, 943.484 475.953, 942.017 477.765, 940.817 483.052, 937.315 " fill="none" stroke="rgb(0, 0, 0)" stroke-linecap="butt" stroke-linejoin="round" stroke-opacity="1.0" stroke-width="3.0" />
            <path d=" M 629.607, 480.029 629.203, 478.328 628.754, 476.442 628.428, 475.262 628.149, 474.250 623.844, 470.999 623.771, 470.943 623.758, 470.934 623.552, 470.778 621.335, 469.867 616.728, 467.975 613.676, 466.142 " fill="none" stroke="rgb(0, 0, 0)" stroke-linecap="butt" stroke-linejoin="round" stroke-opacity="1.0" stroke-width="3.0" />
            <path d=" M 344.932, 678.665 343.740, 679.966 342.792, 681.001 339.578, 686.450 337.308, 689.479 334.270, 695.179 334.844, 698.468 " fill="none" stroke="rgb(0, 0, 0)" stroke-linecap="butt" stroke-linejoin="round" stroke-opacity="1.0" stroke-width="3.0" />
            <path d=" M 315.089, 758.823 312.844, 763.282 311.780, 765.398 310.516, 770.457 310.011, 772.122 309.655, 773.296 308.956, 775.604 308.705, 779.896 308.782, 780.739 308.793, 780.856 " fill="none" stroke="rgb(0, 0, 0)" stroke-linecap="butt" stroke-linejoin="round" stroke-opacity="1.0" stroke-width="3.0" />
            <path d=" M 350.529, 1008.088 350.994, 1009.377 351.394, 1010.488 351.443, 1010.625 352.321, 1013.063 352.902, 1014.677 356.652, 1021.745 356.749, 1021.928 359.754, 1024.570 360.133, 1024.903 363.477, 1026.201 " fill="none" stroke="rgb(0, 0, 0)" stroke-linecap="butt" stroke-linejoin="round" stroke-opacity="1.0" stroke-width="3.0" />
            <path d=" M 851.775, 651.940 851.376, 652.060 850.088, 652.448 849.160, 651.540 848.067, 650.472 847.584, 649.943 847.542, 649.896 845.723, 647.905 845.627, 647.800 845.254, 647.391 844.404, 646.461 838.892, 640.343 836.480, 639.614 836.194, 639.699 835.149, 640.011 833.931, 640.374 833.842, 640.401 " fill="none" stroke="rgb(0, 0, 0)" stroke-linecap="butt" stroke-linejoin="round" stroke-opacity="1.0" stroke-width="3.0" />
            <path d=" M 832.715, 594.579 827.682, 595.090 822.468, 595.328 819.144, 596.996 817.711, 597.509 818.605, 598.718 821.998, 601.099 824.192, 602.018 " fill="none" stroke="rgb(0, 0, 0)" stroke-linecap="butt" stroke-linejoin="round" stroke-opacity="1.0" stroke-width="3.0" />
            <path d=" M 597.195, 924.014 595.505, 924.042 595.016, 924.050 595.010, 924.051 594.955, 924.051 591.895, 924.102 590.069, 924.133 589.513, 924.185 588.751, 924.256 582.494, 924.842 578.915, 924.509 578.784, 924.497 577.234, 924.353 573.691, 924.024 " fill="none" stroke="rgb(0, 0, 0)" stroke-linecap="butt" stroke-linejoin="round" stroke-opacity="1.0" stroke-width="3.0" />
            <path d=" M 604.234, 603.717 604.327, 603.536 604.345, 603.499 604.452, 603.291 606.998, 598.305 607.281, 597.762 610.831, 590.958 612.287, 589.427 614.990, 585.846 614.994, 585.838 615.975, 583.635 616.145, 583.252 " fill="none" stroke="rgb(0, 0, 0)" stroke-linecap="butt" stroke-linejoin="round" stroke-opacity="1.0" stroke-width="3.0" />
            <path d=" M 837.053, 684.396 835.968, 683.727 835.435, 683.399 833.219, 679.925 832.724, 679.148 831.192, 676.747 830.374, 675.465 830.059, 675.096 830.049, 675.085 828.828, 673.659 826.568, 671.019 824.652, 669.128 821.763, 668.946 820.573, 668.948 " fill="none" stroke="rgb(0, 0, 0)" stroke-linecap="butt" stroke-linejoin="round" stroke-opacity="1.0" stroke-width="3.0" />
            <path d=" M 514.109, 1036.909 518.140, 1039.812 524.541, 1043.471 528.526, 1046.141 530.872, 1046.649 535.184, 1047.585 " fill="none" stroke="rgb(0, 0, 0)" stroke-linecap="butt" stroke-linejoin="round" stroke-opacity="1.0" stroke-width="3.0" />
            <path d=" M 520.425, 820.245 520.380, 820.356 516.626, 829.659 514.494, 837.851 514.447, 841.284 514.765, 843.185 " fill="none" stroke="rgb(0, 0, 0)" stroke-linecap="butt" stroke-linejoin="round" stroke-opacity="1.0" stroke-width="3.0" />
            <path d=" M 321.549, 968.265 326.239, 977.097 328.127, 980.652 329.651, 983.194 333.127, 989.331 " fill="none" stroke="rgb(0, 0, 0)" stroke-linecap="butt" stroke-linejoin="round" stroke-opacity="1.0" stroke-width="3.0" />
            <path d=" M 806.273, 675.055 805.912, 674.671 805.375, 674.098 802.889, 671.448 799.505, 669.788 795.436, 667.985 794.233, 667.547 792.340, 669.868 793.194, 673.780 793.362, 676.355 793.357, 676.371 " fill="none" stroke="rgb(0, 0, 0)" stroke-linecap="butt" stroke-linejoin="round" stroke-opacity="1.0" stroke-width="3.0" />
            <path d=" M 587.518, 572.230 587.694, 572.286 587.802, 572.321 588.472, 572.537 593.107, 572.798 596.781, 572.714 601.933, 571.396 603.182, 570.477 603.399, 570.318 606.116, 568.319 607.403, 567.373 607.791, 567.088 609.611, 565.750 " fill="none" stroke="rgb(0, 0, 0)" stroke-linecap="butt" stroke-linejoin="round" stroke-opacity="1.0" stroke-width="3.0" />
            <path d=" M 613.378, 560.279 615.261, 560.133 615.338, 560.111 616.514, 559.780 618.530, 555.756 618.665, 555.487 620.282, 550.993 620.002, 544.761 619.409, 542.378 618.737, 539.677 " fill="none" stroke="rgb(0, 0, 0)" stroke-linecap="butt" stroke-linejoin="round" stroke-opacity="1.0" stroke-width="3.0" />
            <path d=" M 589.313, 646.313 589.659, 645.130 589.856, 644.457 590.073, 643.716 590.382, 642.660 590.722, 641.497 590.971, 639.906 591.924, 633.818 591.647, 632.967 591.434, 632.315 591.408, 632.235 591.183, 631.546 591.164, 631.248 591.149, 631.003 591.149, 631.002 591.147, 630.976 591.147, 630.976 591.141, 630.874 591.028, 629.062 591.008, 628.734 590.903, 627.044 590.895, 626.930 590.857, 626.306 590.723, 624.161 590.607, 622.294 " fill="none" stroke="rgb(0, 0, 0)" stroke-linecap="butt" stroke-linejoin="round" stroke-opacity="1.0" stroke-width="3.0" />
            <path d=" M 797.438, 675.198 795.709, 676.512 793.357, 676.371 792.080, 676.294 787.779, 676.969 786.636, 678.870 787.725, 682.774 787.732, 682.800 787.735, 682.811 787.801, 683.048 787.890, 683.367 788.655, 686.463 788.762, 686.893 790.807, 690.505 " fill="none" stroke="rgb(0, 0, 0)" stroke-linecap="butt" stroke-linejoin="round" stroke-opacity="1.0" stroke-width="3.0" />
            <path d=" M 483.133, 468.533 482.747, 469.030 476.610, 476.925 476.328, 477.287 472.959, 481.690 467.362, 487.773 " fill="none" stroke="rgb(0, 0, 0)" stroke-linecap="butt" stroke-linejoin="round" stroke-opacity="1.0" stroke-width="3.0" />
            <path d=" M 790.304, 837.017 787.042, 834.869 780.913, 828.064 777.989, 826.967 773.029, 826.567 769.375, 824.352 " fill="none" stroke="rgb(0, 0, 0)" stroke-linecap="butt" stroke-linejoin="round" stroke-opacity="1.0" stroke-width="3.0" />
            <path d=" M 863.796, 510.773 861.442, 511.067 859.042, 512.967 856.835, 515.660 856.687, 520.320 857.007, 527.052 858.903, 529.970 860.168, 531.085 " fill="none" stroke="rgb(0, 0, 0)" stroke-linecap="butt" stroke-linejoin="round" stroke-opacity="1.0" stroke-width="3.0" />
            <path d=" M 628.428, 475.262 631.791, 475.574 636.390, 476.145 638.332, 474.163 636.609, 471.825 633.847, 469.943 629.450, 467.356 626.649, 466.384 626.145, 466.125 " fill="none" stroke="rgb(0, 0, 0)" stroke-linecap="butt" stroke-linejoin="round" stroke-opacity="1.0" stroke-width="3.0" />
            <path d=" M 323.708, 980.552 323.629, 980.376 323.654, 980.411 327.406, 985.736 329.983, 989.392 336.049, 997.342 336.342, 997.726 338.774, 1001.359 " fill="none" stroke="rgb(0, 0, 0)" stroke-linecap="butt" stroke-linejoin="round" stroke-opacity="1.0" stroke-width="3.0" />
            <path d=" M 495.704, 445.837 493.439, 451.078 491.502, 454.333 488.869, 458.758 486.333, 462.997 485.333, 464.670 484.935, 465.341 484.822, 465.531 482.747, 469.030 " fill="none" stroke="rgb(0, 0, 0)" stroke-linecap="butt" stroke-linejoin="round" stroke-opacity="1.0" stroke-width="3.0" />
            <path d=" M 585.380, 499.016 583.899, 498.387 583.807, 498.347 583.805, 498.346 582.832, 497.933 582.521, 497.800 581.290, 497.276 581.244, 497.257 575.777, 494.932 575.326, 494.740 575.280, 494.719 575.000, 494.595 569.560, 492.172 569.469, 492.131 568.571, 491.731 566.434, 490.779 563.611, 490.599 560.350, 491.124 " fill="none" stroke="rgb(0, 0, 0)" stroke-linecap="butt" stroke-linejoin="round" stroke-opacity="1.0" stroke-width="3.0" />
            <path d=" M 321.209, 738.296 319.573, 742.146 318.712, 744.173 315.592, 750.083 313.578, 755.558 312.264, 761.329 312.576, 762.379 312.844, 763.282 " fill="none" stroke="rgb(0, 0, 0)" stroke-linecap="butt" stroke-linejoin="round" stroke-opacity="1.0" stroke-width="3.0" />
            <path d=" M 616.439, 811.979 616.187, 811.374 615.881, 810.639 615.505, 809.737 615.488, 809.696 615.355, 809.376 614.634, 807.645 613.108, 804.405 610.816, 803.342 609.591, 802.720 608.682, 802.258 608.383, 802.106 607.935, 801.879 606.217, 801.007 605.862, 800.827 605.318, 800.550 605.073, 800.426 604.988, 800.383 604.975, 800.376 604.959, 800.368 604.933, 800.355 604.891, 800.334 601.191, 798.455 597.802, 797.418 596.850, 795.925 " fill="none" stroke="rgb(0, 0, 0)" stroke-linecap="butt" stroke-linejoin="round" stroke-opacity="1.0" stroke-width="3.0" />
            <path d=" M 320.945, 976.153 322.296, 981.080 323.727, 985.230 326.610, 991.110 330.275, 997.286 333.722, 999.139 " fill="none" stroke="rgb(0, 0, 0)" stroke-linecap="butt" stroke-linejoin="round" stroke-opacity="1.0" stroke-width="3.0" />
            <path d=" M 649.391, 518.808 649.944, 518.362 652.397, 516.158 653.047, 513.831 653.089, 512.895 651.114, 509.937 648.818, 505.684 646.841, 505.143 644.876, 504.689 644.560, 504.616 644.432, 504.586 643.481, 504.366 643.411, 504.350 642.655, 504.175 640.824, 503.357 639.176, 502.621 637.535, 501.888 " fill="none" stroke="rgb(0, 0, 0)" stroke-linecap="butt" stroke-linejoin="round" stroke-opacity="1.0" stroke-width="3.0" />
            <path d=" M 576.422, 388.521 580.718, 388.042 577.399, 388.520 577.385, 388.524 572.878, 389.852 571.338, 390.306 571.183, 390.339 570.723, 390.437 570.705, 390.441 566.870, 391.256 557.860, 393.659 " fill="none" stroke="rgb(0, 0, 0)" stroke-linecap="butt" stroke-linejoin="round" stroke-opacity="1.0" stroke-width="3.0" />
            <path d=" M 848.302, 891.498 850.714, 892.423 852.001, 892.812 848.302, 891.498 844.486, 890.142 843.515, 889.797 843.009, 889.859 840.132, 890.212 837.927, 890.482 833.851, 888.684 829.306, 886.889 " fill="none" stroke="rgb(0, 0, 0)" stroke-linecap="butt" stroke-linejoin="round" stroke-opacity="1.0" stroke-width="3.0" />
            <path d=" M 419.654, 677.169 413.862, 677.401 404.812, 677.711 399.916, 678.018 391.705, 677.457 " fill="none" stroke="rgb(0, 0, 0)" stroke-linecap="butt" stroke-linejoin="round" stroke-opacity="1.0" stroke-width="3.0" />
            <path d=" M 540.026, 719.638 538.984, 718.876 538.067, 718.204 537.030, 717.445 532.229, 713.225 531.661, 712.725 531.541, 712.620 528.984, 710.371 528.058, 709.634 527.977, 709.569 527.508, 709.239 525.472, 707.803 525.425, 707.770 524.874, 707.470 517.224, 703.306 " fill="none" stroke="rgb(0, 0, 0)" stroke-linecap="butt" stroke-linejoin="round" stroke-opacity="1.0" stroke-width="3.0" />
            <path d=" M 332.046, 706.907 330.627, 709.336 330.238, 710.007 328.794, 712.496 326.763, 718.825 325.990, 721.389 325.928, 721.596 325.663, 722.204 323.694, 726.722 322.473, 733.051 322.437, 733.249 " fill="none" stroke="rgb(0, 0, 0)" stroke-linecap="butt" stroke-linejoin="round" stroke-opacity="1.0" stroke-width="3.0" />
            <path d=" M 646.324, 550.413 648.923, 548.603 651.282, 545.614 650.827, 543.111 649.515, 538.592 647.896, 537.627 644.027, 535.707 642.889, 535.008 639.581, 532.974 639.559, 532.950 639.406, 532.776 638.034, 531.221 638.019, 531.205 637.759, 530.910 " fill="none" stroke="rgb(0, 0, 0)" stroke-linecap="butt" stroke-linejoin="round" stroke-opacity="1.0" stroke-width="3.0" />
            <path d=" M 585.797, 728.177 585.750, 728.044 585.725, 727.973 585.680, 727.845 585.622, 727.679 583.046, 720.367 581.855, 710.371 581.690, 708.989 581.701, 708.499 581.885, 700.130 " fill="none" stroke="rgb(0, 0, 0)" stroke-linecap="butt" stroke-linejoin="round" stroke-opacity="1.0" stroke-width="3.0" />
            <path d=" M 624.014, 470.393 626.145, 466.125 626.176, 466.061 625.302, 464.190 623.274, 464.101 622.118, 463.781 620.931, 463.447 618.621, 462.796 617.822, 461.849 617.612, 461.600 614.487, 457.898 611.443, 456.110 610.582, 454.734 609.923, 453.681 609.601, 453.167 610.030, 453.707 610.417, 454.196 610.582, 454.734 " fill="none" stroke="rgb(0, 0, 0)" stroke-linecap="butt" stroke-linejoin="round" stroke-opacity="1.0" stroke-width="3.0" />
            <path d=" M 560.775, 944.516 561.385, 944.581 561.933, 944.639 563.020, 944.755 564.208, 944.882 564.446, 944.907 564.587, 944.922 564.682, 944.932 564.705, 944.935 572.483, 945.764 573.470, 945.869 583.405, 947.004 583.961, 947.067 588.517, 947.550 589.600, 946.817 " fill="none" stroke="rgb(0, 0, 0)" stroke-linecap="butt" stroke-linejoin="round" stroke-opacity="1.0" stroke-width="3.0" />
            <path d=" M 428.879, 534.739 427.629, 535.587 426.183, 536.567 420.789, 539.894 418.917, 540.494 416.700, 541.206 413.040, 543.323 409.462, 546.100 405.390, 549.341 404.457, 550.684 " fill="none" stroke="rgb(0, 0, 0)" stroke-linecap="butt" stroke-linejoin="round" stroke-opacity="1.0" stroke-width="3.0" />
            <path d=" M 849.840, 575.918 846.479, 574.629 841.758, 573.668 838.770, 573.545 835.828, 574.657 834.951, 575.857 835.360, 577.074 834.603, 578.981 833.877, 579.799 836.056, 582.262 837.916, 584.479 840.814, 586.416 " fill="none" stroke="rgb(0, 0, 0)" stroke-linecap="butt" stroke-linejoin="round" stroke-opacity="1.0" stroke-width="3.0" />
            <path d=" M 565.663, 1045.133 566.924, 1043.288 568.873, 1040.435 571.978, 1038.288 574.584, 1034.317 577.204, 1028.714 579.407, 1021.476 579.683, 1019.194 " fill="none" stroke="rgb(0, 0, 0)" stroke-linecap="butt" stroke-linejoin="round" stroke-opacity="1.0" stroke-width="3.0" />
            <path d=" M 703.430, 962.362 704.011, 961.751 708.993, 957.211 713.299, 954.752 722.220, 951.878 730.527, 950.307 " fill="none" stroke="rgb(0, 0, 0)" stroke-linecap="butt" stroke-linejoin="round" stroke-opacity="1.0" stroke-width="3.0" />
            <path d=" M 852.001, 892.812 854.912, 892.025 858.023, 891.008 864.563, 891.065 868.349, 889.399 871.422, 888.055 872.647, 887.244 874.224, 886.199 875.359, 885.884 877.067, 885.411 878.454, 885.026 880.783, 883.878 " fill="none" stroke="rgb(0, 0, 0)" stroke-linecap="butt" stroke-linejoin="round" stroke-opacity="1.0" stroke-width="3.0" />
            <path d=" M 680.296, 984.914 681.692, 983.686 681.984, 983.430 684.423, 981.286 685.698, 980.165 689.948, 976.616 697.717, 970.321 697.894, 970.178 700.853, 965.694 702.197, 963.656 " fill="none" stroke="rgb(0, 0, 0)" stroke-linecap="butt" stroke-linejoin="round" stroke-opacity="1.0" stroke-width="3.0" />
            <path d=" M 877.615, 541.628 874.893, 540.719 872.304, 540.409 871.383, 540.299 870.958, 539.964 870.396, 539.521 870.331, 539.470 870.279, 539.429 870.182, 539.353 870.028, 539.231 870.019, 539.224 869.816, 539.064 869.638, 538.924 869.580, 538.878 866.055, 536.100 863.333, 535.069 861.380, 534.330 858.778, 533.456 855.578, 534.380 854.863, 536.412 854.973, 537.825 856.109, 539.764 856.550, 540.466 " fill="none" stroke="rgb(0, 0, 0)" stroke-linecap="butt" stroke-linejoin="round" stroke-opacity="1.0" stroke-width="3.0" />
            <path d=" M 311.219, 772.954 309.751, 778.077 308.793, 780.856 308.598, 781.422 307.064, 785.875 306.849, 787.647 305.130, 793.663 305.117, 793.890 305.113, 793.961 304.620, 802.264 304.909, 802.960 " fill="none" stroke="rgb(0, 0, 0)" stroke-linecap="butt" stroke-linejoin="round" stroke-opacity="1.0" stroke-width="3.0" />
            <path d=" M 616.193, 939.411 625.021, 938.914 625.068, 938.920 629.587, 939.518 637.352, 939.531 641.727, 939.581 643.141, 939.597 647.367, 940.269 " fill="none" stroke="rgb(0, 0, 0)" stroke-linecap="butt" stroke-linejoin="round" stroke-opacity="1.0" stroke-width="3.0" />
            <path d=" M 561.465, 810.449 562.175, 807.479 562.210, 807.432 562.300, 807.312 564.028, 805.022 564.228, 804.755 566.987, 801.098 567.928, 800.222 575.213, 793.443 579.830, 791.273 580.196, 791.101 583.410, 789.591 " fill="none" stroke="rgb(0, 0, 0)" stroke-linecap="butt" stroke-linejoin="round" stroke-opacity="1.0" stroke-width="3.0" />
            <path d=" M 612.562, 366.683 611.590, 364.854 604.485, 362.008 597.873, 362.773 596.272, 363.821 593.232, 363.461 591.291, 363.632 589.124, 364.469 583.597, 366.011 " fill="none" stroke="rgb(0, 0, 0)" stroke-linecap="butt" stroke-linejoin="round" stroke-opacity="1.0" stroke-width="3.0" />
            <path d=" M 596.571, 797.533 596.850, 795.925 597.412, 792.686 597.822, 792.089 597.878, 792.006 598.065, 791.734 600.554, 788.101 604.330, 787.549 605.188, 787.232 612.755, 784.437 610.885, 786.023 606.453, 787.316 605.188, 787.232 " fill="none" stroke="rgb(0, 0, 0)" stroke-linecap="butt" stroke-linejoin="round" stroke-opacity="1.0" stroke-width="3.0" />
            <path d=" M 311.621, 950.979 311.937, 952.223 312.466, 954.307 313.118, 956.870 313.944, 959.031 316.439, 965.276 318.500, 970.594 320.335, 975.192 320.945, 976.153 323.394, 980.006 323.629, 980.376 " fill="none" stroke="rgb(0, 0, 0)" stroke-linecap="butt" stroke-linejoin="round" stroke-opacity="1.0" stroke-width="3.0" />
            <path d=" M 472.690, 482.583 467.362, 487.773 465.213, 489.867 462.726, 492.353 456.428, 498.738 450.214, 505.262 " fill="none" stroke="rgb(0, 0, 0)" stroke-linecap="butt" stroke-linejoin="round" stroke-opacity="1.0" stroke-width="3.0" />
            <path d=" M 606.966, 393.355 606.500, 392.539 604.414, 388.885 602.745, 386.842 602.659, 386.736 602.512, 386.261 602.509, 386.249 602.165, 385.132 600.588, 384.167 599.636, 383.859 599.398, 383.782 599.379, 383.781 598.771, 383.748 595.956, 383.599 590.261, 385.147 590.255, 385.149 590.193, 385.166 587.723, 385.837 585.326, 386.755 580.718, 388.042 " fill="none" stroke="rgb(0, 0, 0)" stroke-linecap="butt" stroke-linejoin="round" stroke-opacity="1.0" stroke-width="3.0" />
            <path d=" M 889.335, 500.310 884.883, 492.344 884.713, 492.040 884.069, 490.887 883.784, 490.591 882.468, 489.226 882.278, 489.029 878.652, 485.268 878.156, 484.807 877.669, 484.356 877.452, 484.155 877.413, 484.118 876.244, 483.035 874.144, 481.088 873.093, 480.424 872.449, 480.016 867.934, 477.163 " fill="none" stroke="rgb(0, 0, 0)" stroke-linecap="butt" stroke-linejoin="round" stroke-opacity="1.0" stroke-width="3.0" />
            <path d=" M 586.298, 667.676 587.214, 666.216 587.239, 666.172 587.882, 665.032 587.252, 666.085 587.224, 666.130 586.298, 667.676 586.263, 667.735 586.185, 668.132 585.227, 673.015 585.123, 673.543 585.095, 673.686 585.033, 674.561 584.704, 679.242 584.994, 680.311 585.887, 683.597 584.958, 688.534 582.785, 693.044 " fill="none" stroke="rgb(0, 0, 0)" stroke-linecap="butt" stroke-linejoin="round" stroke-opacity="1.0" stroke-width="3.0" />
            <path d=" M 588.090, 730.934 589.960, 728.355 590.328, 726.993 589.514, 723.274 590.325, 717.180 590.650, 708.600 592.183, 704.821 592.939, 699.103 592.990, 698.716 " fill="none" stroke="rgb(0, 0, 0)" stroke-linecap="butt" stroke-linejoin="round" stroke-opacity="1.0" stroke-width="3.0" />
            <path d=" M 297.884, 906.002 296.568, 906.438 296.427, 906.485 295.608, 906.944 295.497, 907.007 295.393, 907.065 295.317, 907.108 295.214, 907.165 294.919, 907.331 293.369, 915.230 293.427, 916.594 294.070, 919.105 297.602, 923.867 301.515, 931.387 302.029, 932.328 303.859, 934.491 " fill="none" stroke="rgb(0, 0, 0)" stroke-linecap="butt" stroke-linejoin="round" stroke-opacity="1.0" stroke-width="3.0" />
            <path d=" M 442.198, 513.540 438.171, 518.013 435.632, 520.833 429.825, 527.753 423.269, 535.304 422.751, 535.901 421.233, 537.111 420.329, 538.998 " fill="none" stroke="rgb(0, 0, 0)" stroke-linecap="butt" stroke-linejoin="round" stroke-opacity="1.0" stroke-width="3.0" />
            <path d=" M 842.203, 473.697 843.475, 476.139 847.235, 478.823 852.029, 483.891 854.244, 487.755 856.083, 490.303 858.874, 496.405 860.700, 499.059 861.871, 500.761 " fill="none" stroke="rgb(0, 0, 0)" stroke-linecap="butt" stroke-linejoin="round" stroke-opacity="1.0" stroke-width="3.0" />
            <path d=" M 607.281, 597.762 610.592, 598.498 613.890, 599.588 616.065, 600.306 618.416, 600.948 626.022, 601.766 627.813, 601.505 629.646, 600.571 630.030, 597.127 629.254, 593.575 630.271, 589.256 " fill="none" stroke="rgb(0, 0, 0)" stroke-linecap="butt" stroke-linejoin="round" stroke-opacity="1.0" stroke-width="3.0" />
            <path d=" M 591.922, 993.132 590.580, 988.663 590.396, 988.019 589.826, 986.030 585.126, 977.204 584.570, 976.158 581.842, 972.480 578.022, 967.589 574.634, 961.550 574.544, 961.390 " fill="none" stroke="rgb(0, 0, 0)" stroke-linecap="butt" stroke-linejoin="round" stroke-opacity="1.0" stroke-width="3.0" />
            <path d=" M 576.344, 974.423 575.629, 973.544 569.026, 967.044 561.694, 961.790 561.417, 961.591 559.772, 960.413 555.026, 953.466 551.259, 952.426 551.119, 952.387 548.453, 951.650 " fill="none" stroke="rgb(0, 0, 0)" stroke-linecap="butt" stroke-linejoin="round" stroke-opacity="1.0" stroke-width="3.0" />
            <path d=" M 727.969, 950.162 730.527, 950.307 730.963, 950.332 732.419, 951.230 738.390, 953.717 744.800, 953.303 751.543, 953.220 756.347, 954.474 761.223, 956.359 764.012, 956.054 " fill="none" stroke="rgb(0, 0, 0)" stroke-linecap="butt" stroke-linejoin="round" stroke-opacity="1.0" stroke-width="3.0" />
            <path d=" M 602.799, 471.297 597.032, 468.917 587.650, 466.898 583.659, 466.426 579.085, 466.333 578.705, 466.326 577.760, 466.307 574.979, 466.158 574.737, 466.145 573.952, 466.103 572.139, 465.865 570.140, 465.603 567.707, 464.772 567.276, 464.624 566.376, 464.317 " fill="none" stroke="rgb(0, 0, 0)" stroke-linecap="butt" stroke-linejoin="round" stroke-opacity="1.0" stroke-width="3.0" />
            <path d=" M 512.746, 854.199 509.258, 862.071 507.201, 866.714 507.411, 875.638 507.415, 875.772 507.439, 876.801 506.437, 880.467 506.138, 881.562 505.836, 882.169 505.364, 883.117 504.598, 886.677 504.551, 886.897 503.973, 889.587 503.832, 890.244 " fill="none" stroke="rgb(0, 0, 0)" stroke-linecap="butt" stroke-linejoin="round" stroke-opacity="1.0" stroke-width="3.0" />
            <path d=" M 518.079, 905.116 522.990, 903.440 523.264, 903.346 524.092, 903.063 526.306, 902.308 530.340, 900.178 530.921, 899.872 536.851, 897.381 537.213, 897.229 542.400, 894.097 546.779, 891.453 547.797, 890.839 550.247, 887.871 550.441, 887.636 550.768, 887.241 550.853, 887.138 " fill="none" stroke="rgb(0, 0, 0)" stroke-linecap="butt" stroke-linejoin="round" stroke-opacity="1.0" stroke-width="3.0" />
            <path d=" M 581.461, 729.499 581.479, 726.160 580.456, 716.953 579.912, 711.270 579.814, 710.255 579.903, 710.007 580.586, 708.082 581.420, 701.461 581.885, 700.130 582.768, 697.608 582.779, 694.681 582.785, 693.044 582.791, 691.653 " fill="none" stroke="rgb(0, 0, 0)" stroke-linecap="butt" stroke-linejoin="round" stroke-opacity="1.0" stroke-width="3.0" />
            <path d=" M 921.402, 557.991 918.515, 549.305 914.928, 541.480 912.292, 534.754 910.972, 531.637 908.641, 527.163 906.130, 522.748 " fill="none" stroke="rgb(0, 0, 0)" stroke-linecap="butt" stroke-linejoin="round" stroke-opacity="1.0" stroke-width="3.0" />
            <path d=" M 804.804, 701.429 803.097, 701.590 801.132, 700.628 796.289, 694.791 794.405, 693.497 793.795, 693.077 791.829, 691.727 789.624, 691.368 787.096, 691.051 786.966, 691.034 781.109, 691.431 777.676, 692.530 775.421, 693.808 774.789, 695.779 775.946, 698.251 " fill="none" stroke="rgb(0, 0, 0)" stroke-linecap="butt" stroke-linejoin="round" stroke-opacity="1.0" stroke-width="3.0" />
            <path d=" M 534.995, 866.923 535.384, 861.124 535.389, 861.046 535.413, 860.682 535.146, 856.029 535.140, 855.924 535.140, 855.909 535.121, 855.585 535.074, 854.769 533.473, 844.898 532.541, 839.151 533.179, 829.172 533.224, 828.472 " fill="none" stroke="rgb(0, 0, 0)" stroke-linecap="butt" stroke-linejoin="round" stroke-opacity="1.0" stroke-width="3.0" />
            <path d=" M 489.031, 514.826 485.143, 516.451 483.021, 516.770 477.941, 518.377 474.005, 519.520 469.401, 519.744 463.005, 520.982 462.464, 521.276 461.935, 521.563 459.317, 522.985 455.031, 525.034 454.671, 525.206 454.599, 525.241 453.199, 525.910 452.460, 526.263 " fill="none" stroke="rgb(0, 0, 0)" stroke-linecap="butt" stroke-linejoin="round" stroke-opacity="1.0" stroke-width="3.0" />
            <path d=" M 872.449, 480.016 867.623, 476.526 863.177, 473.907 856.622, 471.267 848.227, 469.193 845.232, 469.539 842.015, 470.076 841.116, 471.610 841.902, 473.269 842.203, 473.697 843.321, 475.283 " fill="none" stroke="rgb(0, 0, 0)" stroke-linecap="butt" stroke-linejoin="round" stroke-opacity="1.0" stroke-width="3.0" />
            <path d=" M 416.876, 606.021 418.029, 604.240 418.041, 604.216 419.109, 602.145 418.526, 596.991 417.732, 593.623 415.727, 585.802 414.233, 582.324 413.316, 580.192 411.893, 577.797 410.646, 575.697 410.009, 575.049 409.599, 574.643 405.406, 570.501 405.150, 570.248 " fill="none" stroke="rgb(0, 0, 0)" stroke-linecap="butt" stroke-linejoin="round" stroke-opacity="1.0" stroke-width="3.0" />
            <path d=" M 582.463, 366.173 582.316, 366.145 580.845, 365.870 578.267, 365.908 574.838, 366.182 571.459, 367.421 563.736, 371.120 558.530, 372.329 551.454, 374.491 544.149, 377.803 " fill="none" stroke="rgb(0, 0, 0)" stroke-linecap="butt" stroke-linejoin="round" stroke-opacity="1.0" stroke-width="3.0" />
            <path d=" M 590.345, 861.910 588.213, 861.956 579.772, 862.139 570.487, 860.539 564.766, 859.388 564.264, 859.287 559.289, 858.357 550.735, 854.974 550.662, 854.945 " fill="none" stroke="rgb(0, 0, 0)" stroke-linecap="butt" stroke-linejoin="round" stroke-opacity="1.0" stroke-width="3.0" />
            <path d=" M 530.872, 1046.649 538.830, 1049.098 539.741, 1049.358 549.315, 1050.360 553.509, 1051.594 558.420, 1051.958 561.856, 1051.071 566.046, 1044.813 566.924, 1043.288 " fill="none" stroke="rgb(0, 0, 0)" stroke-linecap="butt" stroke-linejoin="round" stroke-opacity="1.0" stroke-width="3.0" />
            <path d=" M 812.663, 651.118 808.274, 650.809 803.498, 650.473 801.046, 650.492 797.576, 651.119 796.509, 651.458 796.027, 655.888 797.290, 657.232 800.192, 661.165 803.205, 666.332 804.340, 671.022 805.766, 673.534 " fill="none" stroke="rgb(0, 0, 0)" stroke-linecap="butt" stroke-linejoin="round" stroke-opacity="1.0" stroke-width="3.0" />
            <path d=" M 646.011, 900.912 647.312, 898.894 649.262, 894.869 646.011, 900.912 643.638, 905.323 641.805, 907.435 637.145, 911.924 632.286, 915.763 631.442, 916.311 626.014, 918.080 625.650, 918.266 " fill="none" stroke="rgb(0, 0, 0)" stroke-linecap="butt" stroke-linejoin="round" stroke-opacity="1.0" stroke-width="3.0" />
            <path d=" M 804.999, 870.573 806.030, 871.338 807.697, 874.396 807.947, 878.290 809.263, 879.658 810.992, 881.537 812.028, 882.252 816.913, 882.581 822.888, 885.168 826.805, 886.039 829.306, 886.889 837.858, 889.796 " fill="none" stroke="rgb(0, 0, 0)" stroke-linecap="butt" stroke-linejoin="round" stroke-opacity="1.0" stroke-width="3.0" />
            <path d=" M 863.479, 620.138 863.190, 620.032 859.905, 618.836 856.568, 615.273 854.271, 612.820 853.181, 612.271 853.157, 612.259 850.752, 611.048 847.983, 610.902 847.032, 610.852 846.988, 610.850 845.312, 610.761 840.558, 609.804 836.837, 609.779 834.213, 611.715 833.539, 612.212 830.983, 614.597 830.867, 615.058 830.223, 617.623 829.926, 618.809 " fill="none" stroke="rgb(0, 0, 0)" stroke-linecap="butt" stroke-linejoin="round" stroke-opacity="1.0" stroke-width="3.0" />
            <path d=" M 647.023, 503.423 649.539, 502.935 652.455, 501.173 653.583, 499.045 654.281, 495.034 649.850, 490.474 644.915, 485.451 636.838, 479.554 636.237, 479.115 629.203, 478.328 " fill="none" stroke="rgb(0, 0, 0)" stroke-linecap="butt" stroke-linejoin="round" stroke-opacity="1.0" stroke-width="3.0" />
            <path d=" M 385.931, 1070.353 387.333, 1070.404 390.656, 1069.718 392.901, 1069.431 396.523, 1068.884 397.839, 1068.716 402.094, 1066.711 406.499, 1062.813 410.387, 1059.545 413.846, 1055.531 416.721, 1053.531 421.881, 1049.206 422.385, 1048.783 " fill="none" stroke="rgb(0, 0, 0)" stroke-linecap="butt" stroke-linejoin="round" stroke-opacity="1.0" stroke-width="3.0" />
            <path d=" M 486.740, 932.001 487.561, 931.221 493.356, 925.715 495.209, 923.837 498.183, 920.736 500.835, 919.950 500.975, 919.908 501.659, 919.705 505.492, 914.435 508.877, 910.488 512.820, 907.912 513.184, 907.662 518.819, 903.783 519.635, 903.221 520.211, 902.824 " fill="none" stroke="rgb(0, 0, 0)" stroke-linecap="butt" stroke-linejoin="round" stroke-opacity="1.0" stroke-width="3.0" />
            <path d=" M 641.727, 939.581 646.591, 941.158 649.035, 942.792 653.487, 945.317 655.653, 948.557 657.739, 952.517 657.388, 958.648 655.539, 964.629 652.753, 968.514 650.740, 970.237 648.319, 970.821 647.248, 971.523 " fill="none" stroke="rgb(0, 0, 0)" stroke-linecap="butt" stroke-linejoin="round" stroke-opacity="1.0" stroke-width="3.0" />
            <path d=" M 595.095, 630.091 595.919, 631.000 596.438, 631.570 600.461, 635.999 601.308, 636.387 601.365, 636.412 601.584, 636.513 602.127, 636.427 604.185, 636.100 605.574, 633.391 606.509, 627.052 606.529, 625.632 606.552, 624.067 605.629, 620.013 605.750, 616.524 605.798, 615.131 605.669, 612.385 605.647, 611.902 605.624, 611.408 605.617, 611.258 605.610, 611.114 605.609, 611.086 605.591, 610.708 605.584, 610.561 605.502, 608.807 605.478, 608.307 605.580, 607.312 605.027, 605.342 604.452, 603.291 " fill="none" stroke="rgb(0, 0, 0)" stroke-linecap="butt" stroke-linejoin="round" stroke-opacity="1.0" stroke-width="3.0" />
            <path d=" M 587.672, 947.294 588.070, 947.288 589.600, 946.817 599.156, 943.872 599.423, 943.790 599.900, 943.706 605.001, 942.815 606.511, 942.551 612.604, 941.403 615.146, 940.924 615.452, 940.481 616.193, 939.411 616.196, 939.407 617.738, 937.178 619.746, 934.758 620.426, 931.681 617.217, 927.644 617.383, 926.333 " fill="none" stroke="rgb(0, 0, 0)" stroke-linecap="butt" stroke-linejoin="round" stroke-opacity="1.0" stroke-width="3.0" />
            <path d=" M 827.121, 622.671 823.964, 623.003 820.910, 623.706 814.123, 623.886 809.730, 623.780 808.089, 624.703 806.183, 628.956 808.881, 631.571 812.685, 634.425 815.564, 636.097 817.923, 639.304 820.275, 642.065 822.241, 643.905 " fill="none" stroke="rgb(0, 0, 0)" stroke-linecap="butt" stroke-linejoin="round" stroke-opacity="1.0" stroke-width="3.0" />
            <path d=" M 649.262, 894.869 651.324, 885.084 651.492, 884.286 652.070, 876.348 651.376, 870.557 650.583, 867.794 647.085, 860.935 643.430, 852.959 642.502, 850.934 " fill="none" stroke="rgb(0, 0, 0)" stroke-linecap="butt" stroke-linejoin="round" stroke-opacity="1.0" stroke-width="3.0" />
            <path d=" M 643.430, 852.959 640.520, 845.633 637.874, 839.329 632.904, 831.435 628.976, 825.445 622.474, 817.847 620.158, 815.141 618.453, 813.346 " fill="none" stroke="rgb(0, 0, 0)" stroke-linecap="butt" stroke-linejoin="round" stroke-opacity="1.0" stroke-width="3.0" />
            <path d=" M 617.682, 761.310 617.865, 759.923 617.896, 759.143 617.914, 758.680 617.950, 757.780 610.075, 751.617 606.351, 748.702 598.597, 742.388 598.321, 742.163 592.151, 736.288 588.090, 730.934 585.855, 727.986 585.622, 727.679 " fill="none" stroke="rgb(0, 0, 0)" stroke-linecap="butt" stroke-linejoin="round" stroke-opacity="1.0" stroke-width="3.0" />
            <path d=" M 513.979, 1033.148 514.416, 1033.073 514.554, 1033.050 519.760, 1032.162 524.331, 1029.648 526.581, 1026.459 527.331, 1025.657 528.139, 1024.792 528.385, 1024.529 530.203, 1022.583 531.499, 1019.770 532.367, 1016.715 532.837, 1011.006 532.932, 1009.847 534.871, 1006.958 535.174, 1006.507 535.185, 1006.490 535.851, 1005.498 541.450, 1004.377 545.133, 1003.872 " fill="none" stroke="rgb(0, 0, 0)" stroke-linecap="butt" stroke-linejoin="round" stroke-opacity="1.0" stroke-width="3.0" />
            <path d=" M 502.413, 595.768 502.424, 595.851 503.069, 600.569 503.404, 602.965 504.463, 605.862 505.147, 611.525 505.478, 615.579 507.820, 620.362 508.038, 620.806 508.269, 623.555 508.504, 628.848 510.922, 634.566 514.054, 640.750 514.614, 641.892 " fill="none" stroke="rgb(0, 0, 0)" stroke-linecap="butt" stroke-linejoin="round" stroke-opacity="1.0" stroke-width="3.0" />
            <path d=" M 803.515, 707.483 803.014, 707.509 802.170, 707.553 795.076, 707.920 791.348, 707.839 790.798, 707.827 787.486, 707.755 787.013, 707.744 786.970, 707.745 786.661, 707.747 784.637, 707.763 784.607, 707.763 784.596, 707.763 784.239, 707.766 783.794, 707.770 782.960, 707.776 781.916, 707.784 781.834, 707.785 780.028, 707.799 776.777, 707.357 774.882, 707.099 774.658, 707.069 774.330, 707.024 773.527, 706.914 772.852, 706.823 771.945, 706.699 771.366, 706.620 770.528, 706.506 765.919, 705.551 756.653, 703.463 754.909, 703.011 " fill="none" stroke="rgb(0, 0, 0)" stroke-linecap="butt" stroke-linejoin="round" stroke-opacity="1.0" stroke-width="3.0" />
            <path d=" M 606.704, 435.549 608.562, 434.455 614.281, 433.772 621.777, 431.607 628.438, 430.597 629.603, 429.008 629.354, 428.305 626.540, 425.218 617.926, 421.686 612.495, 420.912 607.564, 421.209 607.507, 421.213 607.482, 421.170 607.139, 420.586 " fill="none" stroke="rgb(0, 0, 0)" stroke-linecap="butt" stroke-linejoin="round" stroke-opacity="1.0" stroke-width="3.0" />
            <path d=" M 842.624, 685.009 839.362, 686.076 834.633, 687.622 831.056, 689.980 830.362, 690.284 828.346, 691.169 826.766, 691.862 826.133, 692.140 825.770, 692.150 820.439, 692.293 816.237, 694.627 816.036, 694.738 815.267, 695.237 813.968, 696.077 813.172, 696.783 812.771, 697.040 811.517, 697.842 811.093, 698.114 806.359, 701.145 804.804, 701.429 802.747, 701.805 802.365, 701.875 801.216, 702.065 798.987, 702.435 798.735, 702.477 797.132, 702.743 796.984, 702.767 " fill="none" stroke="rgb(0, 0, 0)" stroke-linecap="butt" stroke-linejoin="round" stroke-opacity="1.0" stroke-width="3.0" />
            <path d=" M 293.737, 881.137 292.779, 875.854 292.483, 870.914 292.262, 866.484 292.222, 859.518 292.526, 851.913 292.621, 851.150 293.239, 844.803 293.224, 841.396 292.562, 851.374 292.526, 851.913 " fill="none" stroke="rgb(0, 0, 0)" stroke-linecap="butt" stroke-linejoin="round" stroke-opacity="1.0" stroke-width="3.0" />
            <path d=" M 587.882, 665.032 588.178, 663.910 589.117, 660.347 589.183, 660.094 589.162, 659.984 588.629, 657.222 588.314, 656.394 587.895, 655.294 587.400, 653.996 587.038, 653.045 586.832, 652.497 585.831, 649.835 584.797, 647.088 582.701, 643.195 581.589, 641.129 579.844, 635.964 577.205, 632.735 577.147, 632.663 576.219, 631.528 576.080, 631.357 575.662, 630.846 573.430, 628.114 573.233, 627.873 573.170, 627.790 573.145, 627.757 571.043, 624.978 567.345, 620.367 " fill="none" stroke="rgb(0, 0, 0)" stroke-linecap="butt" stroke-linejoin="round" stroke-opacity="1.0" stroke-width="3.0" />
            <path d=" M 598.173, 382.996 598.541, 382.652 598.941, 382.277 598.976, 382.245 599.825, 381.449 599.827, 381.447 600.099, 381.193 600.202, 381.097 600.507, 380.987 600.671, 380.929 600.689, 380.922 600.744, 380.903 601.000, 380.811 601.940, 380.474 604.543, 379.543 608.776, 378.028 609.940, 377.691 614.836, 376.278 617.303, 375.627 619.726, 374.877 621.149, 373.062 620.996, 371.243 614.757, 367.894 612.628, 366.695 612.562, 366.683 611.011, 366.408 604.317, 365.222 598.190, 366.847 597.674, 366.983 " fill="none" stroke="rgb(0, 0, 0)" stroke-linecap="butt" stroke-linejoin="round" stroke-opacity="1.0" stroke-width="3.0" />
            <path d=" M 886.013, 487.494 886.719, 488.569 888.380, 491.098 890.250, 493.947 893.749, 496.987 897.202, 504.112 900.701, 511.610 901.496, 513.408 905.444, 521.285 906.130, 522.748 902.848, 517.226 900.257, 512.993 " fill="none" stroke="rgb(0, 0, 0)" stroke-linecap="butt" stroke-linejoin="round" stroke-opacity="1.0" stroke-width="3.0" />
            <path d=" M 590.396, 988.019 590.444, 987.973 591.461, 986.530 597.178, 978.326 599.142, 975.507 604.110, 967.585 607.093, 960.768 610.122, 952.861 612.672, 943.191 612.729, 942.978 612.604, 941.403 " fill="none" stroke="rgb(0, 0, 0)" stroke-linecap="butt" stroke-linejoin="round" stroke-opacity="1.0" stroke-width="3.0" />
            <path d=" M 916.513, 716.686 917.134, 715.213 919.113, 705.419 919.524, 702.849 920.868, 694.618 921.873, 689.145 922.094, 687.948 923.680, 678.249 924.631, 673.768 924.916, 669.565 925.257, 664.520 " fill="none" stroke="rgb(0, 0, 0)" stroke-linecap="butt" stroke-linejoin="round" stroke-opacity="1.0" stroke-width="3.0" />
            <path d=" M 592.939, 699.103 594.544, 696.870 595.524, 691.732 595.618, 690.506 595.351, 685.329 595.332, 685.196 595.331, 685.188 595.305, 685.009 594.905, 682.228 594.904, 682.220 594.410, 678.788 593.795, 676.402 593.739, 676.187 593.550, 675.453 592.904, 672.945 592.732, 672.278 592.608, 670.773 592.560, 670.187 592.407, 668.334 592.240, 666.297 592.174, 665.493 591.254, 660.594 591.088, 659.709 590.807, 658.621 590.776, 658.499 590.625, 657.916 589.446, 653.350 589.428, 653.070 589.230, 650.110 589.160, 649.065 589.039, 647.250 589.039, 647.244 " fill="none" stroke="rgb(0, 0, 0)" stroke-linecap="butt" stroke-linejoin="round" stroke-opacity="1.0" stroke-width="3.0" />
            <path d=" M 392.905, 562.590 390.224, 563.516 388.904, 564.063 388.248, 564.568 385.883, 567.927 385.616, 569.209 384.739, 574.975 384.998, 576.590 385.543, 578.801 387.120, 583.099 388.528, 587.236 385.489, 596.763 385.393, 597.063 385.157, 597.644 383.069, 602.071 378.471, 610.951 377.932, 611.991 " fill="none" stroke="rgb(0, 0, 0)" stroke-linecap="butt" stroke-linejoin="round" stroke-opacity="1.0" stroke-width="3.0" />
            <path d=" M 617.612, 461.600 618.916, 461.352 622.333, 459.314 627.266, 457.360 634.212, 456.415 636.238, 455.100 638.271, 450.364 634.494, 447.192 630.978, 445.550 626.527, 443.091 619.633, 441.167 618.128, 441.344 611.779, 441.435 608.443, 440.643 " fill="none" stroke="rgb(0, 0, 0)" stroke-linecap="butt" stroke-linejoin="round" stroke-opacity="1.0" stroke-width="3.0" />
            <path d=" M 367.958, 627.352 364.571, 632.281 360.640, 638.978 357.546, 644.765 354.621, 652.515 350.699, 660.767 350.270, 663.265 348.069, 667.814 344.872, 672.547 344.113, 674.476 343.740, 679.966 " fill="none" stroke="rgb(0, 0, 0)" stroke-linecap="butt" stroke-linejoin="round" stroke-opacity="1.0" stroke-width="3.0" />
            <path d=" M 924.916, 669.565 925.960, 662.970 927.057, 653.031 927.313, 650.714 927.968, 644.921 928.235, 639.336 929.244, 632.236 929.815, 622.253 929.863, 621.419 930.690, 612.439 930.809, 611.147 " fill="none" stroke="rgb(0, 0, 0)" stroke-linecap="butt" stroke-linejoin="round" stroke-opacity="1.0" stroke-width="3.0" />
            <path d=" M 873.292, 549.394 872.792, 548.947 872.631, 548.804 872.541, 548.723 871.841, 548.099 871.612, 547.894 867.953, 544.627 867.941, 544.620 867.742, 544.497 867.232, 544.182 867.046, 544.066 867.006, 544.042 866.924, 544.007 860.715, 541.363 860.180, 541.248 856.550, 540.466 851.913, 539.466 848.518, 539.259 847.169, 539.381 845.294, 542.094 844.013, 544.872 850.382, 551.355 854.120, 555.917 854.629, 556.539 854.665, 556.583 855.855, 558.036 857.127, 559.936 857.330, 560.240 858.386, 561.818 859.238, 562.882 " fill="none" stroke="rgb(0, 0, 0)" stroke-linecap="butt" stroke-linejoin="round" stroke-opacity="1.0" stroke-width="3.0" />
            <path d=" M 874.533, 569.323 867.475, 564.764 862.644, 562.907 859.238, 562.882 857.246, 562.867 854.691, 562.899 854.671, 562.899 854.149, 562.906 852.359, 562.928 846.646, 562.313 841.653, 562.904 839.807, 565.173 838.987, 565.788 840.067, 569.041 848.450, 574.493 848.904, 574.788 849.840, 575.918 850.214, 576.370 850.254, 576.418 850.819, 577.100 850.851, 577.139 854.195, 581.175 " fill="none" stroke="rgb(0, 0, 0)" stroke-linecap="butt" stroke-linejoin="round" stroke-opacity="1.0" stroke-width="3.0" />
            <path d=" M 930.690, 612.439 931.154, 611.362 931.486, 607.966 931.499, 602.462 931.003, 597.242 930.531, 592.235 929.846, 586.642 929.429, 584.932 927.194, 578.333 925.845, 572.585 923.805, 565.625 922.760, 561.646 921.402, 557.991 919.400, 552.601 " fill="none" stroke="rgb(0, 0, 0)" stroke-linecap="butt" stroke-linejoin="round" stroke-opacity="1.0" stroke-width="3.0" />
            <path d=" M 668.456, 795.826 666.183, 795.780 664.092, 796.032 658.061, 796.125 653.058, 796.792 651.333, 796.667 646.456, 796.742 641.698, 797.128 636.774, 797.116 634.121, 797.259 629.279, 797.764 622.994, 798.494 617.957, 798.729 612.904, 799.588 610.296, 799.892 608.033, 800.029 606.222, 800.239 " fill="none" stroke="rgb(0, 0, 0)" stroke-linecap="butt" stroke-linejoin="round" stroke-opacity="1.0" stroke-width="3.0" />
            <path d=" M 805.701, 953.120 809.078, 951.797 812.283, 949.853 818.254, 945.037 823.527, 939.868 825.391, 937.913 829.143, 935.280 831.103, 932.456 835.588, 927.224 837.846, 919.453 838.694, 912.950 839.488, 909.268 839.158, 905.869 839.061, 904.865 " fill="none" stroke="rgb(0, 0, 0)" stroke-linecap="butt" stroke-linejoin="round" stroke-opacity="1.0" stroke-width="3.0" />
            <path d=" M 510.944, 933.908 511.458, 934.059 517.978, 935.969 517.987, 935.978 518.463, 936.519 518.802, 936.904 519.583, 937.793 522.328, 940.911 525.896, 942.187 535.352, 943.230 537.904, 943.511 538.696, 943.657 539.062, 943.724 539.165, 943.743 539.467, 943.798 540.596, 944.005 542.892, 944.279 543.689, 944.374 546.276, 944.683 547.013, 944.771 548.020, 944.891 553.750, 944.722 553.776, 944.722 553.922, 944.717 560.735, 944.517 560.775, 944.516 561.348, 944.499 561.816, 944.485 562.805, 944.456 564.183, 944.415 564.430, 944.408 564.442, 944.408 564.469, 944.407 564.639, 944.402 571.194, 944.209 " fill="none" stroke="rgb(0, 0, 0)" stroke-linecap="butt" stroke-linejoin="round" stroke-opacity="1.0" stroke-width="3.0" />
            <path d=" M 295.420, 890.827 295.512, 891.799 295.752, 892.870 296.210, 894.904 296.505, 897.046 296.717, 898.578 296.858, 899.599 296.896, 899.879 296.942, 900.211 297.367, 903.292 297.884, 906.002 298.128, 907.284 298.618, 909.857 301.489, 918.741 301.799, 920.675 302.442, 924.687 304.166, 930.411 304.721, 935.395 304.736, 935.527 304.836, 936.432 304.848, 936.541 305.208, 937.169 307.325, 940.875 307.841, 942.071 309.657, 946.276 311.605, 951.356 311.937, 952.223 " fill="none" stroke="rgb(0, 0, 0)" stroke-linecap="butt" stroke-linejoin="round" stroke-opacity="1.0" stroke-width="3.0" />
            <path d=" M 337.997, 1005.011 339.058, 1006.652 341.107, 1010.359 343.216, 1014.109 344.254, 1016.925 346.932, 1026.560 347.576, 1028.878 348.716, 1035.527 350.429, 1040.047 353.124, 1046.704 357.069, 1054.443 359.031, 1057.704 360.827, 1060.141 361.319, 1060.808 363.447, 1063.438 " fill="none" stroke="rgb(0, 0, 0)" stroke-linecap="butt" stroke-linejoin="round" stroke-opacity="1.0" stroke-width="3.0" />
            <path d=" M 307.822, 777.948 306.346, 780.432 305.715, 781.494 302.791, 787.085 300.984, 791.803 299.926, 795.045 299.494, 796.867 297.317, 805.356 295.663, 813.742 294.452, 823.668 293.914, 828.072 293.397, 838.059 293.224, 841.396 " fill="none" stroke="rgb(0, 0, 0)" stroke-linecap="butt" stroke-linejoin="round" stroke-opacity="1.0" stroke-width="3.0" />
            <path d=" M 870.189, 592.778 869.710, 592.522 869.152, 592.224 868.186, 591.708 867.224, 591.195 861.134, 586.607 857.410, 586.576 855.477, 586.559 847.602, 586.686 847.568, 586.686 843.587, 586.396 841.029, 586.550 841.016, 586.551 841.005, 586.552 836.824, 586.803 834.782, 587.932 834.528, 588.198 833.137, 592.096 832.183, 593.662 832.715, 594.579 833.371, 595.710 836.349, 598.146 840.730, 601.948 844.764, 607.740 846.999, 610.806 " fill="none" stroke="rgb(0, 0, 0)" stroke-linecap="butt" stroke-linejoin="round" stroke-opacity="1.0" stroke-width="3.0" />
            <path d=" M 306.161, 799.630 304.909, 802.960 304.351, 804.448 302.881, 808.511 300.951, 814.416 299.776, 820.212 300.380, 829.562 299.165, 835.813 298.490, 843.359 297.128, 849.104 297.389, 853.879 298.465, 858.539 299.406, 863.124 300.062, 866.325 " fill="none" stroke="rgb(0, 0, 0)" stroke-linecap="butt" stroke-linejoin="round" stroke-opacity="1.0" stroke-width="3.0" />
            <path d=" M 539.731, 509.215 538.436, 510.626 535.807, 513.490 530.785, 518.388 525.960, 522.664 522.964, 525.412 518.554, 528.242 515.787, 531.815 512.885, 534.318 511.080, 537.251 508.187, 540.163 505.194, 543.779 501.233, 548.619 498.775, 553.925 496.030, 558.424 494.704, 562.009 " fill="none" stroke="rgb(0, 0, 0)" stroke-linecap="butt" stroke-linejoin="round" stroke-opacity="1.0" stroke-width="3.0" />
            <path d=" M 299.033, 893.339 298.381, 891.571 297.290, 888.609 297.266, 888.542 297.193, 888.344 297.103, 888.102 296.824, 886.904 297.104, 888.571 298.090, 894.452 298.198, 895.094 298.653, 895.906 298.976, 896.481 299.876, 898.086 300.921, 899.950 300.981, 900.061 301.118, 900.312 301.283, 900.615 303.908, 905.429 304.002, 906.957 306.806, 914.587 310.455, 923.897 310.740, 924.623 313.511, 931.262 314.635, 936.922 315.062, 938.809 315.325, 939.975 315.642, 941.376 315.898, 942.508 317.117, 947.899 317.395, 949.129 " fill="none" stroke="rgb(0, 0, 0)" stroke-linecap="butt" stroke-linejoin="round" stroke-opacity="1.0" stroke-width="3.0" />
            <path d=" M 902.792, 785.802 904.757, 779.308 906.549, 769.902 907.847, 762.923 909.570, 753.072 910.420, 748.216 912.514, 738.438 913.855, 732.173 915.197, 725.711 915.977, 720.357 916.513, 716.686 916.915, 713.931 " fill="none" stroke="rgb(0, 0, 0)" stroke-linecap="butt" stroke-linejoin="round" stroke-opacity="1.0" stroke-width="3.0" />
            <path d=" M 421.180, 995.224 421.620, 994.405 421.746, 994.170 423.205, 991.458 423.829, 990.298 426.277, 987.564 427.779, 985.886 431.152, 982.434 434.620, 979.648 439.321, 976.428 444.861, 972.721 447.300, 968.874 452.514, 963.603 459.661, 957.357 462.851, 952.916 470.338, 946.287 472.804, 944.103 " fill="none" stroke="rgb(0, 0, 0)" stroke-linecap="butt" stroke-linejoin="round" stroke-opacity="1.0" stroke-width="3.0" />
            <path d=" M 668.259, 804.365 667.414, 809.683 667.493, 816.548 667.526, 819.448 667.127, 823.596 666.560, 829.479 667.833, 832.308 670.228, 835.809 672.287, 837.798 676.391, 841.088 679.953, 842.302 683.190, 842.254 686.988, 841.845 696.248, 838.070 697.078, 837.732 700.980, 831.463 705.400, 829.126 " fill="none" stroke="rgb(0, 0, 0)" stroke-linecap="butt" stroke-linejoin="round" stroke-opacity="1.0" stroke-width="3.0" />
            <path d=" M 362.288, 1025.667 363.477, 1026.201 366.997, 1027.783 368.198, 1027.884 370.971, 1028.119 378.869, 1024.631 382.149, 1023.119 386.837, 1021.884 391.803, 1019.997 393.259, 1019.183 393.317, 1019.150 401.530, 1014.554 408.616, 1009.521 414.596, 1004.625 416.737, 1002.355 419.238, 999.702 420.250, 997.368 420.370, 997.091 421.180, 995.224 421.498, 994.489 421.602, 994.249 422.501, 992.176 422.931, 991.184 " fill="none" stroke="rgb(0, 0, 0)" stroke-linecap="butt" stroke-linejoin="round" stroke-opacity="1.0" stroke-width="3.0" />
            <path d=" M 628.739, 715.680 633.475, 722.537 639.249, 730.702 640.855, 732.973 646.894, 740.665 652.271, 747.181 657.586, 752.155 664.009, 759.821 665.207, 761.251 669.430, 770.316 670.401, 772.400 672.662, 777.158 " fill="none" stroke="rgb(0, 0, 0)" stroke-linecap="butt" stroke-linejoin="round" stroke-opacity="1.0" stroke-width="3.0" />
            <path d=" M 729.079, 791.969 725.476, 788.714 724.044, 787.420 723.150, 786.612 716.217, 780.358 710.133, 772.421 705.829, 766.807 698.694, 762.136 692.201, 760.888 687.442, 762.492 680.432, 767.979 674.418, 775.443 674.049, 775.902 672.801, 777.451 672.513, 777.808 " fill="none" stroke="rgb(0, 0, 0)" stroke-linecap="butt" stroke-linejoin="round" stroke-opacity="1.0" stroke-width="3.0" />
            <path d=" M 540.763, 745.505 540.681, 745.954 539.835, 750.549 539.171, 754.160 538.349, 759.961 538.295, 760.233 538.294, 760.236 536.328, 770.041 535.436, 774.490 533.414, 781.688 532.866, 783.641 531.753, 785.884 530.465, 788.480 527.954, 795.567 525.202, 801.070 522.481, 808.876 521.124, 815.896 520.380, 820.356 " fill="none" stroke="rgb(0, 0, 0)" stroke-linecap="butt" stroke-linejoin="round" stroke-opacity="1.0" stroke-width="3.0" />
            <path d=" M 541.882, 1002.344 545.133, 1003.872 548.286, 1005.355 554.909, 1009.545 558.188, 1011.619 560.835, 1013.092 561.899, 1013.683 565.112, 1015.796 565.222, 1015.868 567.243, 1017.196 567.934, 1017.651 570.129, 1018.272 576.766, 1020.151 579.683, 1019.194 582.467, 1018.280 586.382, 1012.498 588.394, 1010.157 589.518, 1008.562 591.065, 1005.951 591.490, 1005.025 592.755, 1001.410 592.723, 998.722 592.877, 995.560 591.922, 993.132 590.044, 988.357 589.791, 987.716 " fill="none" stroke="rgb(0, 0, 0)" stroke-linecap="butt" stroke-linejoin="round" stroke-opacity="1.0" stroke-width="3.0" />
            <path d=" M 862.941, 530.434 861.050, 530.878 860.168, 531.085 859.683, 531.199 856.969, 531.144 853.361, 529.608 845.921, 528.413 841.872, 529.205 837.390, 529.134 836.203, 529.434 829.783, 529.906 827.560, 530.208 824.947, 531.707 824.711, 533.569 824.984, 534.846 825.359, 535.545 826.102, 537.037 826.390, 539.602 827.349, 541.417 828.150, 543.732 829.159, 544.738 834.878, 547.056 841.223, 549.704 845.440, 552.263 848.098, 554.300 851.132, 556.157 853.908, 557.404 " fill="none" stroke="rgb(0, 0, 0)" stroke-linecap="butt" stroke-linejoin="round" stroke-opacity="1.0" stroke-width="3.0" />
            <path d=" M 529.363, 383.485 526.563, 383.918 524.616, 384.420 524.035, 384.687 521.703, 386.497 521.298, 387.041 518.636, 391.637 516.024, 396.025 513.075, 400.766 511.344, 403.621 510.911, 404.383 508.683, 409.484 506.620, 412.556 504.485, 417.183 500.900, 426.518 500.552, 427.426 496.852, 435.825 495.500, 439.030 492.098, 446.780 488.537, 456.125 487.098, 459.903 484.952, 465.299 " fill="none" stroke="rgb(0, 0, 0)" stroke-linecap="butt" stroke-linejoin="round" stroke-opacity="1.0" stroke-width="3.0" />
            <path d=" M 672.950, 947.323 671.743, 948.670 671.518, 948.920 670.495, 950.061 670.129, 950.524 669.420, 951.421 669.266, 951.616 668.133, 953.051 666.018, 955.674 664.004, 959.700 661.343, 963.599 656.016, 967.779 653.107, 969.310 650.609, 970.624 647.248, 971.523 646.343, 971.765 641.845, 971.820 639.070, 972.237 637.470, 973.071 631.789, 978.020 631.138, 980.636 631.081, 982.093 633.408, 985.580 634.133, 986.345 639.118, 990.783 642.437, 992.227 647.135, 993.435 654.727, 994.233 660.376, 994.421 667.445, 993.940 672.713, 992.598 675.530, 990.620 " fill="none" stroke="rgb(0, 0, 0)" stroke-linecap="butt" stroke-linejoin="round" stroke-opacity="1.0" stroke-width="3.0" />
            <path d=" M 635.380, 575.523 641.345, 570.087 641.996, 567.871 639.588, 562.594 638.429, 560.055 637.202, 559.693 632.947, 558.440 631.927, 555.804 632.035, 554.476 632.132, 553.276 634.764, 548.388 634.782, 548.321 634.924, 547.783 634.968, 547.614 635.515, 545.535 636.487, 539.267 636.466, 539.103 636.073, 535.939 636.272, 535.374 637.273, 532.538 637.293, 532.472 637.327, 532.357 637.759, 530.910 638.259, 529.235 638.996, 526.631 639.435, 523.421 639.583, 522.344 640.034, 519.649 639.484, 513.865 636.634, 508.435 636.755, 507.633 636.760, 507.603 636.766, 507.561 636.801, 507.335 636.860, 506.942 637.204, 504.672 637.211, 504.628 637.248, 504.383 637.358, 503.661 637.485, 502.390 637.535, 501.888 637.702, 500.216 637.772, 499.517 637.456, 498.554 635.125, 493.328 633.344, 486.616 631.272, 482.081 629.607, 480.029 629.087, 479.389 " fill="none" stroke="rgb(0, 0, 0)" stroke-linecap="butt" stroke-linejoin="round" stroke-opacity="1.0" stroke-width="3.0" />
            <path d=" M 513.861, 640.101 514.614, 641.892 518.493, 651.109 518.878, 652.023 521.464, 657.471 525.136, 666.742 528.184, 672.186 532.086, 680.592 533.291, 683.697 533.846, 685.127 534.085, 685.741 534.086, 685.744 534.293, 686.279 534.593, 686.993 535.409, 688.942 535.893, 690.096 536.773, 692.198 538.015, 697.626 538.263, 698.712 538.327, 698.992 538.720, 700.709 539.232, 706.051 539.765, 716.037 539.787, 716.457 539.847, 717.587 539.893, 718.107 540.026, 719.638 540.474, 724.771 540.486, 724.908 540.547, 725.607 540.624, 726.490 540.698, 727.344 540.844, 731.739 540.979, 735.784 540.986, 735.988 540.991, 736.155 540.997, 736.311 540.998, 736.341 541.019, 736.990 540.681, 745.954 " fill="none" stroke="rgb(0, 0, 0)" stroke-linecap="butt" stroke-linejoin="round" stroke-opacity="1.0" stroke-width="3.0" />
            <path d=" M 885.383, 884.230 888.813, 882.647 894.154, 878.383 896.511, 876.789 899.429, 872.020 900.624, 870.309 901.432, 868.422 902.159, 862.540 901.600, 858.528 901.941, 855.183 899.838, 847.547 900.322, 845.325 898.596, 836.712 898.202, 831.150 899.192, 823.115 899.438, 813.739 899.494, 809.641 900.657, 805.747 900.711, 802.636 901.701, 792.685 901.720, 792.493 902.550, 789.282 902.753, 786.041 902.762, 785.899 902.792, 785.422 903.042, 781.458 " fill="none" stroke="rgb(0, 0, 0)" stroke-linecap="butt" stroke-linejoin="round" stroke-opacity="1.0" stroke-width="3.0" />
            <path d=" M 365.089, 1029.539 369.339, 1030.964 373.977, 1032.380 374.660, 1032.626 375.051, 1032.766 375.056, 1032.768 377.619, 1033.691 379.724, 1034.449 381.886, 1035.227 383.504, 1035.489 385.194, 1034.630 387.069, 1033.083 387.474, 1032.749 389.587, 1032.645 393.277, 1032.462 395.348, 1032.677 398.276, 1032.979 400.436, 1033.202 410.273, 1033.974 419.778, 1035.151 423.407, 1035.601 425.458, 1035.634 428.119, 1035.678 429.678, 1035.703 437.863, 1035.837 442.888, 1035.124 448.445, 1035.175 448.457, 1035.175 448.841, 1035.178 458.376, 1035.266 468.163, 1033.211 469.353, 1032.961 474.272, 1032.382 479.028, 1033.150 480.257, 1033.349 480.821, 1033.440 481.425, 1033.537 " fill="none" stroke="rgb(0, 0, 0)" stroke-linecap="butt" stroke-linejoin="round" stroke-opacity="1.0" stroke-width="3.0" />
            <path d=" M 617.770, 408.951 623.974, 407.037 630.737, 404.946 636.975, 402.983 640.506, 402.214 645.898, 401.188 651.235, 400.349 656.290, 399.917 661.334, 399.232 664.821, 398.096 667.170, 395.566 667.099, 392.508 664.048, 390.867 658.930, 389.106 649.613, 387.084 648.077, 386.651 638.142, 385.518 635.503, 385.217 630.329, 384.048 623.746, 383.913 619.056, 384.144 609.842, 385.432 608.308, 385.593 603.539, 386.093 602.611, 386.233 " fill="none" stroke="rgb(0, 0, 0)" stroke-linecap="butt" stroke-linejoin="round" stroke-opacity="1.0" stroke-width="3.0" />
            <path d=" M 743.357, 865.207 742.965, 865.444 736.881, 869.126 730.873, 872.341 727.468, 873.305 721.517, 876.684 719.613, 877.357 718.301, 877.822 718.251, 877.839 717.807, 877.996 717.740, 878.020 717.282, 878.182 716.984, 878.287 716.670, 878.303 716.329, 878.319 713.345, 880.522 713.261, 880.710 714.631, 882.627 714.744, 882.785 716.452, 885.176 723.061, 889.209 732.597, 892.220 734.223, 892.734 743.851, 895.433 748.048, 896.610 750.516, 897.653 757.003, 897.974 762.834, 896.918 768.169, 894.098 774.890, 889.169 779.118, 886.202 782.720, 884.538 784.282, 883.235 790.417, 876.749 792.319, 874.126 793.313, 872.754 " fill="none" stroke="rgb(0, 0, 0)" stroke-linecap="butt" stroke-linejoin="round" stroke-opacity="1.0" stroke-width="3.0" />
            <path d=" M 524.874, 707.470 516.591, 701.868 514.463, 700.428 507.300, 693.451 506.091, 692.273 500.804, 686.758 495.789, 681.527 488.849, 676.084 480.167, 671.121 479.200, 670.568 470.931, 666.631 467.068, 664.893 461.588, 661.578 458.852, 660.087 450.163, 655.136 446.658, 653.138 437.644, 648.875 429.774, 643.738 427.971, 642.562 426.539, 640.517 423.866, 636.704 421.427, 630.510 420.936, 628.268 419.317, 619.159 419.180, 616.302 418.520, 610.923 418.016, 606.903 418.041, 604.216 " fill="none" stroke="rgb(0, 0, 0)" stroke-linecap="butt" stroke-linejoin="round" stroke-opacity="1.0" stroke-width="3.0" />
            <path d=" M 746.515, 700.568 743.453, 698.964 740.073, 697.194 737.037, 694.562 728.628, 689.150 721.206, 684.373 712.589, 679.300 710.542, 678.095 703.611, 675.347 694.204, 671.953 693.719, 671.778 683.999, 669.430 683.214, 669.240 676.370, 667.275 666.449, 666.022 664.265, 665.746 654.288, 665.073 652.567, 664.957 649.366, 664.863 641.899, 665.492 636.567, 665.758 629.289, 665.393 626.061, 666.540 625.187, 667.102 622.590, 669.242 620.883, 669.525 618.355, 671.127 614.865, 680.498 613.454, 684.290 611.440, 691.746 610.296, 696.145 610.329, 699.530 611.124, 704.141 613.727, 705.945 622.085, 708.752 624.314, 710.162 628.739, 715.680 631.568, 719.207 " fill="none" stroke="rgb(0, 0, 0)" stroke-linecap="butt" stroke-linejoin="round" stroke-opacity="1.0" stroke-width="3.0" />
        </g>
    </g>
</svg>
