<?xml version='1.0' encoding='ascii'?>
<svg xmlns="http://www.w3.org/2000/svg" height="1280" version="1.1" width="1280">
    <g id="RenderLayer_LineSet" inkscape:groupmode="lineset" inkscape:label="RenderLayer_LineSet" xmlns:inkscape="http://www.inkscape.org/namespaces/inkscape">
        <g id="strokes" inkscape:groupmode="layer" inkscape:label="strokes" xmlns:inkscape="http://www.inkscape.org/namespaces/inkscape">
            <path d=" M 748.811, 553.062 745.416, 553.213 737.915, 552.388 733.212, 551.213 729.341, 549.448 " fill="none" stroke="rgb(0, 0, 0)" stroke-linecap="butt" stroke-linejoin="round" stroke-opacity="1.0" stroke-width="3.0" />
            <path d=" M 516.040, 846.919 513.679, 846.396 509.318, 845.429 503.555, 843.301 500.707, 840.509 498.546, 838.316 " fill="none" stroke="rgb(0, 0, 0)" stroke-linecap="butt" stroke-linejoin="round" stroke-opacity="1.0" stroke-width="3.0" />
            <path d=" M 917.283, 776.886 915.247, 771.388 914.996, 770.711 914.205, 768.574 911.219, 760.077 910.301, 757.863 " fill="none" stroke="rgb(0, 0, 0)" stroke-linecap="butt" stroke-linejoin="round" stroke-opacity="1.0" stroke-width="3.0" />
            <path d=" M 574.768, 703.979 574.769, 703.713 574.777, 701.108 574.437, 699.928 573.099, 695.283 572.983, 694.879 570.498, 691.366 569.636, 690.881 564.618, 688.063 " fill="none" stroke="rgb(0, 0, 0)" stroke-linecap="butt" stroke-linejoin="round" stroke-opacity="1.0" stroke-width="3.0" />
            <path d=" M 627.684, 790.551 628.115, 790.156 629.804, 788.609 629.924, 788.500 629.962, 788.475 632.017, 787.149 635.219, 785.403 635.482, 783.815 635.164, 782.246 634.605, 779.957 631.955, 776.991 631.157, 775.311 " fill="none" stroke="rgb(0, 0, 0)" stroke-linecap="butt" stroke-linejoin="round" stroke-opacity="1.0" stroke-width="3.0" />
            <path d=" M 402.749, 391.080 398.346, 389.504 394.569, 388.016 389.898, 387.073 383.824, 383.434 " fill="none" stroke="rgb(0, 0, 0)" stroke-linecap="butt" stroke-linejoin="round" stroke-opacity="1.0" stroke-width="3.0" />
            <path d=" M 565.773, 1004.949 572.011, 1008.516 578.647, 1011.321 581.794, 1011.415 583.743, 1010.435 584.529, 1010.040 " fill="none" stroke="rgb(0, 0, 0)" stroke-linecap="butt" stroke-linejoin="round" stroke-opacity="1.0" stroke-width="3.0" />
            <path d=" M 339.951, 428.201 337.672, 431.107 339.831, 428.384 346.044, 420.549 347.153, 419.150 348.279, 417.620 " fill="none" stroke="rgb(0, 0, 0)" stroke-linecap="butt" stroke-linejoin="round" stroke-opacity="1.0" stroke-width="3.0" />
            <path d=" M 501.707, 480.568 501.478, 481.331 501.108, 482.568 501.207, 483.491 501.240, 483.803 501.366, 484.981 501.597, 487.016 503.536, 488.050 503.695, 488.134 505.264, 488.970 509.922, 491.132 512.720, 491.965 514.844, 492.599 " fill="none" stroke="rgb(0, 0, 0)" stroke-linecap="butt" stroke-linejoin="round" stroke-opacity="1.0" stroke-width="3.0" />
            <path d=" M 462.822, 590.445 462.749, 590.882 462.836, 593.765 464.482, 597.206 466.023, 601.109 467.187, 608.803 467.518, 610.997 " fill="none" stroke="rgb(0, 0, 0)" stroke-linecap="butt" stroke-linejoin="round" stroke-opacity="1.0" stroke-width="3.0" />
            <path d=" M 585.948, 832.699 585.920, 832.659 585.471, 832.010 585.335, 831.812 583.628, 829.343 583.565, 829.251 583.273, 828.829 582.561, 827.188 582.552, 827.166 581.255, 824.178 580.096, 821.944 579.728, 821.236 579.227, 820.270 578.648, 819.253 577.808, 817.778 577.677, 817.548 577.491, 817.221 576.963, 816.294 576.949, 816.269 576.247, 813.273 " fill="none" stroke="rgb(0, 0, 0)" stroke-linecap="butt" stroke-linejoin="round" stroke-opacity="1.0" stroke-width="3.0" />
            <path d=" M 600.330, 696.401 598.314, 698.076 595.924, 700.062 594.650, 700.990 594.306, 701.241 594.244, 701.286 593.326, 701.956 593.315, 701.964 593.146, 702.087 593.134, 702.096 592.822, 702.324 592.665, 702.438 591.748, 703.106 591.338, 703.405 591.309, 703.426 591.284, 703.445 590.635, 703.918 590.591, 703.950 590.385, 704.101 589.742, 704.569 585.952, 708.039 585.861, 708.123 585.755, 708.220 585.733, 708.240 585.705, 708.266 585.276, 708.658 585.258, 708.675 585.013, 708.900 583.444, 710.336 " fill="none" stroke="rgb(0, 0, 0)" stroke-linecap="butt" stroke-linejoin="round" stroke-opacity="1.0" stroke-width="3.0" />
            <path d=" M 500.612, 505.796 494.190, 506.720 493.373, 506.838 493.209, 506.862 491.537, 506.546 487.086, 506.582 484.022, 507.851 483.812, 507.938 482.755, 508.007 479.021, 508.252 " fill="none" stroke="rgb(0, 0, 0)" stroke-linecap="butt" stroke-linejoin="round" stroke-opacity="1.0" stroke-width="3.0" />
            <path d=" M 792.295, 780.929 793.143, 783.794 794.698, 788.216 796.034, 790.175 796.177, 790.384 798.915, 792.763 800.634, 793.579 800.877, 793.872 801.000, 794.021 801.328, 794.417 803.104, 799.212 " fill="none" stroke="rgb(0, 0, 0)" stroke-linecap="butt" stroke-linejoin="round" stroke-opacity="1.0" stroke-width="3.0" />
            <path d=" M 296.129, 616.852 296.187, 617.068 297.977, 623.685 299.703, 627.343 300.628, 630.592 302.209, 633.446 303.596, 634.982 303.784, 635.190 303.865, 635.279 305.106, 636.654 " fill="none" stroke="rgb(0, 0, 0)" stroke-linecap="butt" stroke-linejoin="round" stroke-opacity="1.0" stroke-width="3.0" />
            <path d=" M 606.502, 856.943 607.223, 856.368 607.789, 855.916 608.985, 854.963 610.274, 852.032 610.658, 850.668 610.908, 849.782 611.386, 847.301 609.785, 845.403 609.761, 845.375 609.253, 844.773 608.763, 844.192 607.133, 842.686 607.125, 842.679 607.077, 842.634 606.966, 842.532 604.752, 840.487 604.702, 840.357 604.164, 838.957 " fill="none" stroke="rgb(0, 0, 0)" stroke-linecap="butt" stroke-linejoin="round" stroke-opacity="1.0" stroke-width="3.0" />
            <path d=" M 557.756, 644.133 557.942, 644.077 560.054, 643.450 563.766, 642.347 563.796, 642.338 564.086, 642.252 569.166, 639.690 569.796, 639.372 571.802, 638.361 573.272, 637.190 574.543, 635.521 576.407, 633.073 576.657, 632.745 " fill="none" stroke="rgb(0, 0, 0)" stroke-linecap="butt" stroke-linejoin="round" stroke-opacity="1.0" stroke-width="3.0" />
            <path d=" M 872.793, 905.788 873.998, 906.642 873.440, 908.985 872.549, 909.613 870.766, 911.671 869.888, 913.636 869.637, 917.532 869.658, 919.760 869.871, 920.307 871.516, 922.524 873.423, 925.345 " fill="none" stroke="rgb(0, 0, 0)" stroke-linecap="butt" stroke-linejoin="round" stroke-opacity="1.0" stroke-width="3.0" />
            <path d=" M 638.045, 483.376 638.758, 491.873 639.038, 494.212 637.929, 490.621 634.727, 483.120 634.712, 483.063 " fill="none" stroke="rgb(0, 0, 0)" stroke-linecap="butt" stroke-linejoin="round" stroke-opacity="1.0" stroke-width="3.0" />
            <path d=" M 490.608, 382.724 493.123, 382.540 495.533, 381.899 497.262, 381.814 498.951, 381.928 502.531, 381.549 502.905, 381.509 505.782, 381.356 507.795, 381.479 503.611, 380.752 502.531, 381.549 " fill="none" stroke="rgb(0, 0, 0)" stroke-linecap="butt" stroke-linejoin="round" stroke-opacity="1.0" stroke-width="3.0" />
            <path d=" M 543.551, 897.420 544.342, 895.736 545.194, 893.921 546.430, 891.289 548.606, 886.818 552.684, 884.390 554.260, 883.451 558.493, 881.699 " fill="none" stroke="rgb(0, 0, 0)" stroke-linecap="butt" stroke-linejoin="round" stroke-opacity="1.0" stroke-width="3.0" />
            <path d=" M 401.684, 445.844 397.674, 439.699 396.205, 438.355 393.087, 435.500 392.843, 435.277 391.720, 434.249 391.569, 434.111 390.247, 432.681 389.637, 432.023 388.680, 430.988 388.562, 430.861 386.408, 428.533 " fill="none" stroke="rgb(0, 0, 0)" stroke-linecap="butt" stroke-linejoin="round" stroke-opacity="1.0" stroke-width="3.0" />
            <path d=" M 522.682, 652.066 522.164, 651.702 522.120, 651.671 521.960, 651.558 515.965, 647.339 515.220, 646.570 513.605, 644.903 512.320, 641.692 510.965, 638.344 510.762, 637.706 510.565, 637.090 510.413, 636.613 510.297, 636.249 510.028, 635.406 509.772, 634.601 509.759, 634.562 509.600, 634.063 509.561, 633.939 " fill="none" stroke="rgb(0, 0, 0)" stroke-linecap="butt" stroke-linejoin="round" stroke-opacity="1.0" stroke-width="3.0" />
            <path d=" M 768.648, 751.958 771.197, 761.628 772.073, 764.952 773.950, 767.652 776.876, 769.551 780.069, 770.340 " fill="none" stroke="rgb(0, 0, 0)" stroke-linecap="butt" stroke-linejoin="round" stroke-opacity="1.0" stroke-width="3.0" />
            <path d=" M 513.784, 974.310 516.069, 977.118 516.075, 977.127 518.083, 979.595 514.619, 974.758 510.707, 968.941 508.463, 965.482 " fill="none" stroke="rgb(0, 0, 0)" stroke-linecap="butt" stroke-linejoin="round" stroke-opacity="1.0" stroke-width="3.0" />
            <path d=" M 642.286, 521.530 640.329, 524.069 634.632, 529.187 632.190, 530.866 622.682, 534.209 " fill="none" stroke="rgb(0, 0, 0)" stroke-linecap="butt" stroke-linejoin="round" stroke-opacity="1.0" stroke-width="3.0" />
            <path d=" M 360.816, 400.308 360.760, 400.323 360.407, 400.415 359.585, 400.629 355.596, 402.894 355.238, 403.097 351.706, 408.261 351.261, 409.258 351.246, 409.290 351.228, 409.331 350.494, 410.975 350.392, 411.554 349.691, 413.567 348.279, 417.620 347.769, 419.084 " fill="none" stroke="rgb(0, 0, 0)" stroke-linecap="butt" stroke-linejoin="round" stroke-opacity="1.0" stroke-width="3.0" />
            <path d=" M 519.409, 719.628 520.739, 718.797 523.810, 715.545 525.466, 714.147 525.555, 714.071 525.647, 713.994 526.028, 713.672 527.247, 712.643 530.775, 709.665 530.863, 709.602 531.465, 709.175 532.503, 708.440 534.194, 706.699 536.456, 704.228 536.912, 703.314 " fill="none" stroke="rgb(0, 0, 0)" stroke-linecap="butt" stroke-linejoin="round" stroke-opacity="1.0" stroke-width="3.0" />
            <path d=" M 652.821, 459.316 647.394, 459.177 641.134, 459.637 636.576, 462.741 633.583, 466.279 632.849, 469.427 " fill="none" stroke="rgb(0, 0, 0)" stroke-linecap="butt" stroke-linejoin="round" stroke-opacity="1.0" stroke-width="3.0" />
            <path d=" M 619.745, 901.366 622.016, 898.747 622.091, 898.661 622.106, 898.645 625.424, 894.821 626.359, 893.316 626.606, 890.970 624.383, 887.627 622.855, 886.808 621.659, 886.062 618.780, 884.455 617.828, 884.243 616.475, 883.365 " fill="none" stroke="rgb(0, 0, 0)" stroke-linecap="butt" stroke-linejoin="round" stroke-opacity="1.0" stroke-width="3.0" />
            <path d=" M 430.896, 858.953 434.547, 862.090 437.465, 864.961 437.597, 865.091 439.836, 867.294 443.269, 869.606 449.245, 873.556 451.019, 874.550 451.735, 874.952 " fill="none" stroke="rgb(0, 0, 0)" stroke-linecap="butt" stroke-linejoin="round" stroke-opacity="1.0" stroke-width="3.0" />
            <path d=" M 332.870, 471.467 331.037, 474.902 330.594, 475.732 330.390, 476.173 328.468, 480.326 324.288, 485.710 322.214, 492.942 321.575, 495.169 " fill="none" stroke="rgb(0, 0, 0)" stroke-linecap="butt" stroke-linejoin="round" stroke-opacity="1.0" stroke-width="3.0" />
            <path d=" M 312.346, 618.661 316.937, 626.157 317.763, 629.747 317.766, 629.762 318.762, 634.091 318.962, 634.782 317.023, 630.269 316.966, 630.136 315.431, 626.562 " fill="none" stroke="rgb(0, 0, 0)" stroke-linecap="butt" stroke-linejoin="round" stroke-opacity="1.0" stroke-width="3.0" />
            <path d=" M 857.414, 907.320 857.375, 909.483 858.824, 910.275 862.846, 909.900 867.108, 909.084 872.793, 905.788 872.961, 905.691 873.002, 905.667 873.572, 905.337 873.732, 905.341 873.912, 905.346 874.487, 905.361 874.709, 905.367 876.718, 905.419 879.183, 905.144 879.818, 905.073 880.729, 904.971 " fill="none" stroke="rgb(0, 0, 0)" stroke-linecap="butt" stroke-linejoin="round" stroke-opacity="1.0" stroke-width="3.0" />
            <path d=" M 710.145, 458.931 710.000, 464.338 710.776, 465.196 713.047, 467.551 715.712, 475.571 715.896, 480.564 718.390, 484.207 " fill="none" stroke="rgb(0, 0, 0)" stroke-linecap="butt" stroke-linejoin="round" stroke-opacity="1.0" stroke-width="3.0" />
            <path d=" M 569.920, 475.590 572.695, 473.214 572.780, 473.141 576.379, 470.061 577.254, 469.311 578.047, 468.632 579.780, 465.863 581.010, 463.898 582.631, 461.307 583.248, 459.391 583.559, 458.228 582.997, 455.089 582.754, 454.063 582.536, 453.149 " fill="none" stroke="rgb(0, 0, 0)" stroke-linecap="butt" stroke-linejoin="round" stroke-opacity="1.0" stroke-width="3.0" />
            <path d=" M 497.105, 393.151 496.854, 393.191 496.050, 393.321 496.035, 393.324 495.782, 393.364 488.339, 394.567 487.897, 394.638 487.272, 394.739 484.823, 395.134 477.829, 395.108 475.691, 395.100 474.346, 394.916 473.800, 394.841 469.322, 394.228 " fill="none" stroke="rgb(0, 0, 0)" stroke-linecap="butt" stroke-linejoin="round" stroke-opacity="1.0" stroke-width="3.0" />
            <path d=" M 607.794, 913.640 608.544, 913.494 612.513, 912.722 615.426, 912.156 615.461, 912.149 616.634, 911.995 617.126, 911.931 617.575, 911.872 617.833, 911.838 618.056, 911.809 619.805, 911.580 620.503, 911.488 620.623, 911.449 620.896, 911.358 620.934, 911.346 621.132, 911.280 623.398, 907.810 625.664, 905.834 625.472, 904.563 624.858, 902.520 622.118, 898.698 " fill="none" stroke="rgb(0, 0, 0)" stroke-linecap="butt" stroke-linejoin="round" stroke-opacity="1.0" stroke-width="3.0" />
            <path d=" M 587.479, 983.927 589.642, 981.152 590.046, 980.635 590.069, 980.605 590.298, 980.311 590.660, 980.467 590.971, 980.601 592.598, 981.301 595.148, 982.398 597.026, 982.774 598.583, 983.086 599.109, 983.191 599.752, 983.089 602.700, 982.621 609.737, 980.865 611.262, 978.027 610.518, 977.609 " fill="none" stroke="rgb(0, 0, 0)" stroke-linecap="butt" stroke-linejoin="round" stroke-opacity="1.0" stroke-width="3.0" />
            <path d=" M 510.824, 763.029 511.092, 760.060 511.255, 758.258 511.261, 758.192 511.116, 757.688 509.115, 750.756 508.722, 742.533 506.995, 735.976 506.659, 734.742 " fill="none" stroke="rgb(0, 0, 0)" stroke-linecap="butt" stroke-linejoin="round" stroke-opacity="1.0" stroke-width="3.0" />
            <path d=" M 848.777, 581.543 853.329, 582.832 861.378, 585.875 866.413, 589.916 869.677, 592.235 871.760, 593.714 870.789, 592.853 869.677, 592.235 " fill="none" stroke="rgb(0, 0, 0)" stroke-linecap="butt" stroke-linejoin="round" stroke-opacity="1.0" stroke-width="3.0" />
            <path d=" M 746.279, 745.058 746.097, 746.243 746.612, 749.077 750.878, 752.406 754.901, 753.567 757.965, 753.978 764.580, 752.458 769.621, 749.498 " fill="none" stroke="rgb(0, 0, 0)" stroke-linecap="butt" stroke-linejoin="round" stroke-opacity="1.0" stroke-width="3.0" />
            <path d=" M 579.171, 526.163 580.524, 524.586 580.527, 524.581 581.275, 523.710 581.285, 523.697 582.080, 522.771 581.270, 517.911 579.652, 516.784 579.280, 516.525 579.276, 516.522 577.950, 515.599 571.912, 514.140 565.995, 512.717 564.937, 512.462 564.898, 512.453 564.514, 512.360 563.797, 512.188 562.286, 511.825 " fill="none" stroke="rgb(0, 0, 0)" stroke-linecap="butt" stroke-linejoin="round" stroke-opacity="1.0" stroke-width="3.0" />
            <path d=" M 557.650, 431.424 552.697, 429.430 552.413, 429.184 550.077, 427.163 549.875, 426.988 549.771, 426.877 548.982, 426.034 547.368, 425.716 544.546, 425.161 544.424, 425.137 544.422, 425.137 544.237, 425.101 544.178, 425.089 544.025, 425.009 543.225, 424.591 543.042, 424.495 542.768, 424.353 542.458, 424.190 542.316, 424.116 542.103, 424.005 541.177, 423.521 540.643, 423.242 540.175, 422.808 533.055, 416.189 " fill="none" stroke="rgb(0, 0, 0)" stroke-linecap="butt" stroke-linejoin="round" stroke-opacity="1.0" stroke-width="3.0" />
            <path d=" M 539.390, 933.928 543.115, 933.827 548.142, 934.051 548.655, 934.074 551.406, 934.197 551.444, 934.199 551.658, 934.208 551.707, 934.210 551.830, 934.216 552.767, 934.258 554.205, 934.322 554.553, 934.314 555.030, 934.303 559.739, 934.196 560.708, 934.174 563.858, 934.090 567.316, 933.811 568.545, 933.682 568.822, 933.652 568.914, 933.643 569.068, 933.627 569.367, 933.595 " fill="none" stroke="rgb(0, 0, 0)" stroke-linecap="butt" stroke-linejoin="round" stroke-opacity="1.0" stroke-width="3.0" />
            <path d=" M 740.388, 593.851 739.298, 593.001 733.597, 588.557 730.367, 585.669 729.750, 585.118 728.795, 584.263 726.572, 583.358 723.714, 582.552 717.112, 581.517 713.631, 580.170 " fill="none" stroke="rgb(0, 0, 0)" stroke-linecap="butt" stroke-linejoin="round" stroke-opacity="1.0" stroke-width="3.0" />
            <path d=" M 935.511, 824.967 934.886, 823.518 932.270, 817.457 930.396, 812.899 930.225, 812.464 928.999, 807.123 928.203, 803.561 926.786, 799.474 925.531, 795.855 " fill="none" stroke="rgb(0, 0, 0)" stroke-linecap="butt" stroke-linejoin="round" stroke-opacity="1.0" stroke-width="3.0" />
            <path d=" M 844.861, 901.709 843.669, 903.095 848.621, 905.047 851.946, 904.886 857.484, 903.888 857.943, 903.805 858.425, 903.718 859.023, 903.611 865.600, 902.140 870.157, 898.585 870.855, 898.041 870.919, 897.992 " fill="none" stroke="rgb(0, 0, 0)" stroke-linecap="butt" stroke-linejoin="round" stroke-opacity="1.0" stroke-width="3.0" />
            <path d=" M 586.091, 815.025 585.907, 812.442 586.527, 809.261 586.047, 806.626 586.744, 802.366 587.814, 797.325 586.650, 791.980 586.592, 791.713 586.644, 791.529 586.923, 790.545 587.687, 787.850 589.160, 784.707 " fill="none" stroke="rgb(0, 0, 0)" stroke-linecap="butt" stroke-linejoin="round" stroke-opacity="1.0" stroke-width="3.0" />
            <path d=" M 576.063, 549.901 577.575, 550.287 580.031, 549.992 583.251, 548.021 582.302, 542.583 579.961, 539.159 578.787, 535.435 577.573, 531.104 577.966, 529.886 578.033, 529.681 579.171, 526.163 579.223, 526.002 " fill="none" stroke="rgb(0, 0, 0)" stroke-linecap="butt" stroke-linejoin="round" stroke-opacity="1.0" stroke-width="3.0" />
            <path d=" M 497.723, 840.665 498.412, 838.698 498.469, 838.535 498.546, 838.316 498.980, 837.076 499.063, 835.627 499.061, 832.818 501.404, 823.971 501.894, 821.341 502.555, 817.254 502.496, 815.043 502.410, 812.572 503.961, 809.832 " fill="none" stroke="rgb(0, 0, 0)" stroke-linecap="butt" stroke-linejoin="round" stroke-opacity="1.0" stroke-width="3.0" />
            <path d=" M 468.103, 387.030 465.164, 385.139 465.064, 385.076 464.181, 384.508 463.339, 384.500 460.643, 384.476 455.571, 382.341 451.261, 379.297 445.065, 377.193 438.410, 374.332 " fill="none" stroke="rgb(0, 0, 0)" stroke-linecap="butt" stroke-linejoin="round" stroke-opacity="1.0" stroke-width="3.0" />
            <path d=" M 318.470, 640.607 320.541, 645.136 323.299, 651.737 325.014, 657.622 328.186, 663.196 331.878, 670.471 " fill="none" stroke="rgb(0, 0, 0)" stroke-linecap="butt" stroke-linejoin="round" stroke-opacity="1.0" stroke-width="3.0" />
            <path d=" M 465.105, 531.889 464.762, 531.224 461.372, 528.462 459.482, 524.265 455.648, 518.250 449.342, 510.489 448.020, 508.861 445.352, 505.410 " fill="none" stroke="rgb(0, 0, 0)" stroke-linecap="butt" stroke-linejoin="round" stroke-opacity="1.0" stroke-width="3.0" />
            <path d=" M 351.261, 409.258 349.652, 411.365 347.015, 415.061 341.684, 421.168 337.175, 426.538 331.770, 434.952 331.372, 435.571 331.145, 436.062 " fill="none" stroke="rgb(0, 0, 0)" stroke-linecap="butt" stroke-linejoin="round" stroke-opacity="1.0" stroke-width="3.0" />
            <path d=" M 604.845, 826.564 604.948, 826.573 604.962, 826.574 605.961, 826.662 614.632, 829.324 624.514, 827.788 625.285, 827.668 626.977, 826.265 626.581, 822.496 626.634, 820.781 626.582, 819.278 626.024, 818.471 625.954, 818.370 625.700, 818.004 624.404, 816.130 " fill="none" stroke="rgb(0, 0, 0)" stroke-linecap="butt" stroke-linejoin="round" stroke-opacity="1.0" stroke-width="3.0" />
            <path d=" M 562.716, 509.399 564.908, 502.457 567.200, 495.930 568.841, 489.426 570.172, 484.792 570.593, 483.324 572.092, 476.345 " fill="none" stroke="rgb(0, 0, 0)" stroke-linecap="butt" stroke-linejoin="round" stroke-opacity="1.0" stroke-width="3.0" />
            <path d=" M 639.038, 494.212 641.125, 501.691 644.805, 510.989 645.325, 512.302 645.371, 512.411 646.385, 514.822 647.631, 517.784 649.813, 519.902 652.626, 521.295 654.773, 523.775 " fill="none" stroke="rgb(0, 0, 0)" stroke-linecap="butt" stroke-linejoin="round" stroke-opacity="1.0" stroke-width="3.0" />
            <path d=" M 781.659, 771.063 783.367, 776.941 784.254, 778.418 788.819, 779.616 790.039, 780.134 792.295, 780.929 793.048, 781.195 796.129, 780.200 796.446, 780.097 797.276, 779.829 797.883, 779.633 800.640, 777.256 804.027, 773.261 807.773, 770.893 " fill="none" stroke="rgb(0, 0, 0)" stroke-linecap="butt" stroke-linejoin="round" stroke-opacity="1.0" stroke-width="3.0" />
            <path d=" M 704.865, 643.943 707.807, 645.138 711.366, 645.212 714.309, 643.943 722.941, 640.338 729.464, 636.860 737.690, 633.659 " fill="none" stroke="rgb(0, 0, 0)" stroke-linecap="butt" stroke-linejoin="round" stroke-opacity="1.0" stroke-width="3.0" />
            <path d=" M 901.652, 946.409 902.663, 944.668 902.675, 944.646 906.430, 938.175 908.983, 935.163 911.305, 932.425 914.837, 927.202 917.808, 920.885 919.116, 916.732 919.479, 915.579 " fill="none" stroke="rgb(0, 0, 0)" stroke-linecap="butt" stroke-linejoin="round" stroke-opacity="1.0" stroke-width="3.0" />
            <path d=" M 596.308, 415.060 596.943, 414.010 597.042, 413.845 597.812, 412.570 597.941, 412.356 599.798, 411.121 600.790, 410.461 601.214, 409.340 600.466, 406.013 597.482, 400.051 596.726, 398.810 595.819, 397.830 585.938, 396.296 582.894, 395.824 580.378, 395.627 " fill="none" stroke="rgb(0, 0, 0)" stroke-linecap="butt" stroke-linejoin="round" stroke-opacity="1.0" stroke-width="3.0" />
            <path d=" M 764.922, 746.707 766.480, 748.097 767.227, 748.568 769.621, 749.498 769.715, 749.535 770.293, 749.759 770.459, 749.823 771.895, 750.381 772.017, 750.429 775.412, 751.747 778.699, 753.198 780.044, 753.793 783.433, 757.147 785.828, 757.997 790.601, 760.899 792.578, 761.770 797.787, 760.484 " fill="none" stroke="rgb(0, 0, 0)" stroke-linecap="butt" stroke-linejoin="round" stroke-opacity="1.0" stroke-width="3.0" />
            <path d=" M 836.083, 882.259 835.258, 882.193 829.337, 882.410 825.726, 883.877 825.901, 886.461 829.641, 889.217 832.907, 890.883 838.327, 893.771 841.472, 895.270 846.955, 898.321 847.029, 898.364 " fill="none" stroke="rgb(0, 0, 0)" stroke-linecap="butt" stroke-linejoin="round" stroke-opacity="1.0" stroke-width="3.0" />
            <path d=" M 626.238, 818.273 627.552, 817.824 629.263, 816.891 633.274, 815.039 637.561, 812.661 638.258, 810.555 637.863, 808.791 633.878, 802.559 631.694, 799.652 631.366, 798.627 630.580, 796.178 629.873, 793.957 629.228, 791.931 628.220, 790.213 628.115, 790.156 " fill="none" stroke="rgb(0, 0, 0)" stroke-linecap="butt" stroke-linejoin="round" stroke-opacity="1.0" stroke-width="3.0" />
            <path d=" M 911.219, 760.077 912.500, 763.474 916.866, 771.776 917.018, 772.160 918.711, 776.450 922.125, 783.538 918.696, 775.117 917.552, 772.543 917.018, 772.160 " fill="none" stroke="rgb(0, 0, 0)" stroke-linecap="butt" stroke-linejoin="round" stroke-opacity="1.0" stroke-width="3.0" />
            <path d=" M 660.031, 673.993 669.420, 670.553 671.379, 669.836 676.124, 668.889 684.478, 667.187 694.456, 666.520 694.672, 666.505 696.367, 666.392 697.695, 666.303 " fill="none" stroke="rgb(0, 0, 0)" stroke-linecap="butt" stroke-linejoin="round" stroke-opacity="1.0" stroke-width="3.0" />
            <path d=" M 482.976, 552.408 478.122, 546.992 478.110, 546.979 476.688, 545.393 471.669, 539.348 469.599, 536.855 467.986, 534.074 465.105, 531.889 460.270, 528.223 457.848, 524.138 457.449, 523.465 " fill="none" stroke="rgb(0, 0, 0)" stroke-linecap="butt" stroke-linejoin="round" stroke-opacity="1.0" stroke-width="3.0" />
            <path d=" M 604.799, 832.167 604.762, 831.350 604.865, 827.089 604.876, 826.636 604.845, 826.564 604.836, 826.543 604.800, 826.459 604.753, 826.352 604.561, 825.909 604.479, 825.723 604.447, 825.649 604.107, 824.867 604.106, 824.864 604.057, 824.752 603.960, 824.529 603.945, 824.494 603.577, 823.648 603.356, 823.140 601.438, 820.788 600.827, 820.039 601.653, 816.016 601.732, 815.630 601.725, 814.420 601.035, 813.003 596.691, 811.874 590.408, 812.928 586.091, 815.025 584.671, 815.715 584.477, 815.859 584.451, 815.878 582.890, 817.032 " fill="none" stroke="rgb(0, 0, 0)" stroke-linecap="butt" stroke-linejoin="round" stroke-opacity="1.0" stroke-width="3.0" />
            <path d=" M 584.823, 1022.948 584.932, 1023.017 585.280, 1023.237 585.545, 1023.405 588.323, 1025.162 591.781, 1027.349 595.139, 1027.956 598.196, 1028.508 598.206, 1028.510 598.513, 1028.468 604.974, 1027.583 605.817, 1027.359 607.579, 1026.890 609.375, 1024.686 608.395, 1022.093 607.621, 1021.082 607.568, 1021.013 607.141, 1020.456 607.049, 1020.336 606.841, 1020.064 606.327, 1019.393 602.774, 1018.080 600.894, 1016.340 600.381, 1015.864 " fill="none" stroke="rgb(0, 0, 0)" stroke-linecap="butt" stroke-linejoin="round" stroke-opacity="1.0" stroke-width="3.0" />
            <path d=" M 613.885, 933.592 613.923, 933.573 616.075, 932.440 616.914, 931.998 624.594, 927.955 632.265, 923.689 632.401, 921.826 631.138, 918.973 630.209, 917.628 629.768, 917.346 626.780, 915.435 624.337, 914.665 620.979, 913.391 620.915, 913.367 620.895, 913.359 618.918, 912.610 618.517, 912.458 " fill="none" stroke="rgb(0, 0, 0)" stroke-linecap="butt" stroke-linejoin="round" stroke-opacity="1.0" stroke-width="3.0" />
            <path d=" M 318.349, 463.475 317.794, 464.512 316.370, 467.176 314.383, 469.383 313.747, 474.712 312.763, 476.807 311.937, 481.671 308.881, 491.192 308.783, 491.496 307.243, 498.870 306.728, 501.956 " fill="none" stroke="rgb(0, 0, 0)" stroke-linecap="butt" stroke-linejoin="round" stroke-opacity="1.0" stroke-width="3.0" />
            <path d=" M 802.000, 801.171 802.402, 802.555 802.939, 804.405 803.913, 806.773 806.693, 807.610 808.041, 807.775 812.228, 809.053 812.754, 809.214 812.781, 809.207 813.165, 809.101 815.209, 808.540 815.268, 808.524 816.015, 808.319 816.186, 808.272 822.524, 802.889 823.683, 802.268 826.698, 800.653 828.461, 799.709 830.250, 798.149 835.623, 796.822 836.203, 796.678 " fill="none" stroke="rgb(0, 0, 0)" stroke-linecap="butt" stroke-linejoin="round" stroke-opacity="1.0" stroke-width="3.0" />
            <path d=" M 522.761, 445.826 519.935, 443.741 516.720, 439.417 514.775, 433.245 514.789, 428.310 514.789, 423.075 515.930, 417.223 515.787, 414.730 515.762, 414.682 515.669, 414.508 514.897, 413.060 514.854, 412.979 514.838, 412.949 514.825, 412.925 514.685, 412.662 514.279, 411.899 513.831, 411.059 512.624, 409.853 512.281, 409.509 512.255, 409.484 511.657, 408.886 510.758, 407.987 " fill="none" stroke="rgb(0, 0, 0)" stroke-linecap="butt" stroke-linejoin="round" stroke-opacity="1.0" stroke-width="3.0" />
            <path d=" M 604.499, 537.822 609.417, 534.022 616.508, 526.971 619.909, 523.589 625.508, 515.304 626.216, 514.256 629.441, 504.790 629.591, 504.349 " fill="none" stroke="rgb(0, 0, 0)" stroke-linecap="butt" stroke-linejoin="round" stroke-opacity="1.0" stroke-width="3.0" />
            <path d=" M 602.516, 796.280 604.268, 797.057 609.384, 799.326 613.896, 800.132 614.397, 800.221 615.360, 800.393 617.467, 799.921 621.567, 797.197 621.873, 796.258 622.016, 795.817 623.260, 791.963 623.503, 791.444 623.693, 791.038 624.370, 789.593 625.734, 786.684 625.756, 786.637 625.764, 786.198 625.835, 782.254 626.312, 779.955 627.380, 775.808 " fill="none" stroke="rgb(0, 0, 0)" stroke-linecap="butt" stroke-linejoin="round" stroke-opacity="1.0" stroke-width="3.0" />
            <path d=" M 494.702, 947.788 494.943, 948.404 499.209, 956.756 503.179, 965.045 504.249, 969.061 504.435, 969.532 505.666, 972.648 506.186, 973.963 507.687, 978.454 508.654, 980.704 510.356, 984.664 512.197, 988.002 " fill="none" stroke="rgb(0, 0, 0)" stroke-linecap="butt" stroke-linejoin="round" stroke-opacity="1.0" stroke-width="3.0" />
            <path d=" M 570.995, 674.303 571.406, 669.654 570.049, 665.404 569.225, 662.823 567.817, 659.750 567.120, 658.230 566.601, 657.858 563.701, 655.782 559.047, 654.887 556.402, 653.970 553.374, 652.921 552.093, 651.778 551.876, 651.585 551.963, 651.336 553.162, 647.907 557.756, 644.133 557.903, 644.012 558.083, 643.863 " fill="none" stroke="rgb(0, 0, 0)" stroke-linecap="butt" stroke-linejoin="round" stroke-opacity="1.0" stroke-width="3.0" />
            <path d=" M 525.894, 494.798 527.795, 494.799 527.814, 494.799 528.442, 494.799 531.613, 492.594 533.774, 489.345 539.372, 486.050 539.863, 485.761 540.098, 485.623 541.474, 484.813 542.461, 484.232 550.000, 479.506 551.015, 478.870 551.018, 478.868 552.387, 477.851 554.938, 475.954 555.608, 475.457 556.428, 474.847 556.526, 474.774 556.630, 474.697 557.643, 473.944 558.039, 473.645 558.534, 473.272 558.760, 473.102 558.835, 473.045 562.676, 470.148 " fill="none" stroke="rgb(0, 0, 0)" stroke-linecap="butt" stroke-linejoin="round" stroke-opacity="1.0" stroke-width="3.0" />
            <path d=" M 607.406, 901.097 607.529, 900.671 607.789, 899.768 608.466, 897.420 608.197, 893.482 608.093, 891.967 607.410, 890.602 606.800, 889.649 606.694, 889.484 606.234, 888.766 606.048, 888.475 605.778, 888.053 607.915, 886.541 609.421, 885.475 610.634, 884.616 611.523, 884.426 615.566, 883.560 616.141, 883.437 616.144, 883.436 616.447, 883.371 616.475, 883.365 619.196, 882.782 621.864, 877.593 621.199, 874.727 621.117, 874.621 620.904, 874.348 618.534, 871.303 616.521, 868.621 616.291, 868.411 " fill="none" stroke="rgb(0, 0, 0)" stroke-linecap="butt" stroke-linejoin="round" stroke-opacity="1.0" stroke-width="3.0" />
            <path d=" M 883.739, 609.082 883.694, 608.039 883.645, 606.916 881.816, 599.901 881.299, 595.420 880.380, 589.778 879.557, 584.845 879.104, 582.790 878.938, 573.015 878.753, 568.568 878.228, 563.348 " fill="none" stroke="rgb(0, 0, 0)" stroke-linecap="butt" stroke-linejoin="round" stroke-opacity="1.0" stroke-width="3.0" />
            <path d=" M 636.739, 931.143 643.468, 929.632 651.122, 927.180 653.222, 925.837 654.334, 923.279 652.889, 921.413 651.367, 919.885 649.782, 919.624 642.060, 919.305 634.575, 918.122 629.768, 917.346 " fill="none" stroke="rgb(0, 0, 0)" stroke-linecap="butt" stroke-linejoin="round" stroke-opacity="1.0" stroke-width="3.0" />
            <path d=" M 582.025, 711.823 582.117, 711.338 582.988, 709.874 582.629, 705.620 582.774, 705.471 582.927, 705.314 583.934, 704.283 584.086, 703.121 584.131, 702.771 584.445, 700.369 585.791, 698.843 586.162, 698.421 586.568, 697.962 587.257, 696.567 587.566, 695.940 587.341, 694.665 587.079, 693.184 586.983, 692.643 587.217, 692.274 588.727, 689.890 590.625, 687.337 590.743, 686.011 588.420, 684.069 585.331, 683.495 584.358, 683.372 583.875, 683.311 582.753, 683.169 581.497, 683.010 580.667, 682.912 579.524, 682.777 573.817, 682.101 " fill="none" stroke="rgb(0, 0, 0)" stroke-linecap="butt" stroke-linejoin="round" stroke-opacity="1.0" stroke-width="3.0" />
            <path d=" M 597.095, 944.745 601.402, 946.004 604.703, 946.337 607.670, 946.636 612.939, 946.031 616.900, 944.035 619.992, 942.626 624.366, 940.640 628.037, 938.256 627.895, 936.199 627.337, 935.297 625.906, 934.462 623.851, 933.263 619.926, 932.826 616.914, 931.998 " fill="none" stroke="rgb(0, 0, 0)" stroke-linecap="butt" stroke-linejoin="round" stroke-opacity="1.0" stroke-width="3.0" />
            <path d=" M 567.966, 861.138 568.103, 858.755 568.139, 858.137 568.171, 857.585 567.159, 853.803 566.554, 852.854 565.868, 851.776 565.646, 851.605 565.482, 851.478 561.521, 848.424 558.803, 846.925 553.837, 845.870 548.207, 844.254 544.429, 844.115 540.673, 843.597 536.306, 843.817 530.334, 845.801 " fill="none" stroke="rgb(0, 0, 0)" stroke-linecap="butt" stroke-linejoin="round" stroke-opacity="1.0" stroke-width="3.0" />
            <path d=" M 460.353, 554.546 459.899, 557.320 461.094, 560.691 461.108, 560.730 461.090, 560.970 460.442, 569.517 461.825, 574.191 460.618, 580.474 460.934, 581.635 462.498, 585.762 462.819, 590.440 462.822, 590.445 464.043, 592.725 466.698, 601.793 " fill="none" stroke="rgb(0, 0, 0)" stroke-linecap="butt" stroke-linejoin="round" stroke-opacity="1.0" stroke-width="3.0" />
            <path d=" M 342.682, 422.984 336.814, 429.409 331.145, 436.062 331.008, 436.223 326.527, 443.003 324.260, 449.165 321.450, 454.973 320.440, 458.259 317.794, 464.512 " fill="none" stroke="rgb(0, 0, 0)" stroke-linecap="butt" stroke-linejoin="round" stroke-opacity="1.0" stroke-width="3.0" />
            <path d=" M 291.239, 563.764 291.235, 563.800 290.333, 571.698 290.077, 578.014 290.812, 583.017 291.139, 586.698 292.849, 594.516 292.503, 598.645 293.273, 605.947 295.013, 610.787 295.721, 612.759 " fill="none" stroke="rgb(0, 0, 0)" stroke-linecap="butt" stroke-linejoin="round" stroke-opacity="1.0" stroke-width="3.0" />
            <path d=" M 527.879, 396.640 528.402, 394.822 528.420, 394.761 528.833, 393.324 528.887, 393.138 528.930, 392.912 528.987, 392.619 528.981, 392.568 528.963, 392.385 528.950, 392.255 528.899, 391.736 528.711, 389.849 528.025, 388.813 525.377, 387.463 523.637, 386.756 522.234, 386.703 518.797, 386.575 512.648, 387.699 506.240, 389.779 502.836, 390.602 502.800, 390.610 497.628, 391.861 496.177, 392.211 495.909, 392.290 495.669, 392.360 495.656, 392.364 495.488, 392.413 495.340, 392.457 494.821, 392.609 488.233, 394.540 487.897, 394.638 " fill="none" stroke="rgb(0, 0, 0)" stroke-linecap="butt" stroke-linejoin="round" stroke-opacity="1.0" stroke-width="3.0" />
            <path d=" M 430.173, 485.476 425.973, 480.206 422.615, 474.978 422.408, 474.657 418.804, 469.231 417.841, 466.941 417.481, 466.357 417.360, 466.161 414.850, 462.089 410.918, 458.907 406.966, 452.952 401.684, 445.844 401.156, 445.134 " fill="none" stroke="rgb(0, 0, 0)" stroke-linecap="butt" stroke-linejoin="round" stroke-opacity="1.0" stroke-width="3.0" />
            <path d=" M 358.170, 786.524 358.352, 788.032 360.237, 794.519 360.684, 800.359 360.701, 800.581 359.718, 802.270 356.934, 807.057 356.018, 809.596 355.521, 812.126 355.503, 814.767 356.090, 817.186 358.046, 820.318 359.283, 821.841 361.905, 823.634 364.864, 824.373 365.438, 824.257 365.440, 824.257 366.458, 824.052 368.397, 823.661 370.341, 822.442 " fill="none" stroke="rgb(0, 0, 0)" stroke-linecap="butt" stroke-linejoin="round" stroke-opacity="1.0" stroke-width="3.0" />
            <path d=" M 879.034, 958.463 879.134, 959.762 879.106, 963.763 881.567, 965.208 884.923, 964.506 886.659, 963.319 889.578, 960.103 891.424, 956.965 892.897, 953.607 894.566, 951.313 897.767, 948.582 900.192, 947.606 901.652, 946.409 902.979, 944.447 904.923, 941.387 907.535, 937.662 908.983, 935.163 " fill="none" stroke="rgb(0, 0, 0)" stroke-linecap="butt" stroke-linejoin="round" stroke-opacity="1.0" stroke-width="3.0" />
            <path d=" M 688.831, 620.493 688.798, 620.524 681.524, 625.853 673.089, 631.282 672.824, 631.463 663.076, 633.694 658.298, 634.788 652.363, 633.658 650.305, 633.267 650.067, 633.221 647.614, 632.755 644.535, 628.256 " fill="none" stroke="rgb(0, 0, 0)" stroke-linecap="butt" stroke-linejoin="round" stroke-opacity="1.0" stroke-width="3.0" />
            <path d=" M 503.064, 590.471 503.377, 590.468 504.151, 590.463 512.649, 590.400 518.339, 590.359 525.676, 589.391 533.418, 590.321 540.345, 592.487 540.903, 592.662 541.866, 592.963 541.951, 593.025 542.554, 593.462 542.695, 593.564 542.782, 593.627 542.790, 593.633 544.377, 594.783 544.516, 594.884 546.431, 596.273 546.975, 596.667 549.104, 599.007 549.814, 599.788 550.412, 600.445 " fill="none" stroke="rgb(0, 0, 0)" stroke-linecap="butt" stroke-linejoin="round" stroke-opacity="1.0" stroke-width="3.0" />
            <path d=" M 565.995, 512.717 565.089, 511.892 564.687, 511.527 562.716, 509.399 562.123, 508.759 561.937, 508.558 560.068, 506.540 558.855, 506.182 558.816, 506.171 558.815, 506.171 558.237, 506.000 558.134, 505.994 557.706, 505.967 557.276, 505.940 556.928, 505.918 556.875, 505.914 556.590, 505.896 556.472, 505.889 555.615, 505.835 552.930, 505.665 547.011, 507.078 546.966, 507.089 546.818, 507.124 546.801, 507.128 546.742, 507.142 546.698, 507.153 546.289, 507.251 546.270, 507.255 546.034, 507.311 545.975, 507.326 544.783, 507.610 544.558, 507.664 543.998, 507.798 542.740, 507.886 541.650, 507.963 541.420, 507.979 541.365, 507.983 541.266, 507.989 541.124, 507.999 541.113, 508.000 538.358, 508.194 538.286, 508.199 538.190, 508.206 534.054, 508.496 524.077, 507.815 522.762, 507.725 522.189, 507.686 520.463, 507.568 518.401, 506.834 " fill="none" stroke="rgb(0, 0, 0)" stroke-linecap="butt" stroke-linejoin="round" stroke-opacity="1.0" stroke-width="3.0" />
            <path d=" M 646.540, 628.949 644.735, 625.516 643.602, 623.152 637.683, 618.868 636.057, 617.409 631.126, 615.750 625.870, 616.322 623.194, 618.683 619.372, 626.634 615.318, 635.776 615.028, 636.430 614.160, 638.492 " fill="none" stroke="rgb(0, 0, 0)" stroke-linecap="butt" stroke-linejoin="round" stroke-opacity="1.0" stroke-width="3.0" />
            <path d=" M 733.395, 744.542 742.549, 744.838 746.279, 745.058 746.739, 745.085 746.908, 745.095 747.205, 745.112 747.267, 745.116 754.344, 745.534 755.503, 745.602 761.966, 746.517 764.922, 746.707 767.318, 746.860 767.826, 746.892 769.469, 747.205 771.313, 747.556 771.540, 747.599 771.642, 747.618 771.875, 747.663 772.234, 747.731 774.169, 748.099 781.189, 749.577 784.811, 750.340 " fill="none" stroke="rgb(0, 0, 0)" stroke-linecap="butt" stroke-linejoin="round" stroke-opacity="1.0" stroke-width="3.0" />
            <path d=" M 584.358, 683.372 584.460, 681.295 585.725, 673.152 585.793, 672.516 586.838, 662.719 586.704, 661.904 585.900, 658.073 584.398, 655.982 583.805, 652.079 582.317, 648.277 581.761, 638.732 581.193, 635.095 582.090, 633.110 581.770, 632.125 " fill="none" stroke="rgb(0, 0, 0)" stroke-linecap="butt" stroke-linejoin="round" stroke-opacity="1.0" stroke-width="3.0" />
            <path d=" M 511.116, 757.688 511.571, 754.354 512.034, 747.470 511.445, 742.757 511.737, 740.740 513.503, 732.186 514.808, 726.387 516.736, 722.409 517.931, 719.941 518.227, 719.330 520.731, 715.761 524.192, 712.391 525.155, 711.452 526.518, 710.126 527.476, 709.193 " fill="none" stroke="rgb(0, 0, 0)" stroke-linecap="butt" stroke-linejoin="round" stroke-opacity="1.0" stroke-width="3.0" />
            <path d=" M 494.885, 813.495 500.494, 809.903 506.093, 805.720 507.610, 803.319 508.546, 801.838 509.769, 799.902 510.424, 792.300 514.263, 784.268 513.528, 777.909 511.117, 774.330 509.804, 769.117 509.703, 768.716 " fill="none" stroke="rgb(0, 0, 0)" stroke-linecap="butt" stroke-linejoin="round" stroke-opacity="1.0" stroke-width="3.0" />
            <path d=" M 814.135, 818.357 814.165, 818.766 814.422, 822.197 814.574, 824.224 813.108, 830.229 812.585, 832.317 813.974, 834.745 816.008, 835.295 819.878, 835.812 822.415, 836.329 824.405, 836.335 832.758, 836.481 833.341, 836.220 833.663, 836.077 836.297, 834.900 836.787, 834.517 836.790, 834.515 838.984, 832.799 838.995, 832.790 839.016, 832.774 842.100, 830.363 842.421, 830.112 842.912, 829.728 843.378, 829.581 843.573, 829.520 844.335, 829.280 844.363, 829.271 844.499, 829.228 844.595, 829.197 845.032, 829.060 847.248, 828.362 847.912, 828.153 848.061, 828.106 848.070, 828.103 848.208, 828.060 " fill="none" stroke="rgb(0, 0, 0)" stroke-linecap="butt" stroke-linejoin="round" stroke-opacity="1.0" stroke-width="3.0" />
            <path d=" M 481.618, 921.286 483.513, 924.844 487.869, 933.919 489.783, 938.412 490.347, 940.316 491.476, 943.031 494.702, 947.788 495.487, 948.944 498.154, 952.408 498.572, 952.952 501.326, 956.528 507.559, 964.348 508.463, 965.482 509.893, 967.276 " fill="none" stroke="rgb(0, 0, 0)" stroke-linecap="butt" stroke-linejoin="round" stroke-opacity="1.0" stroke-width="3.0" />
            <path d=" M 373.747, 827.638 379.816, 831.324 385.341, 834.859 389.017, 837.311 392.898, 839.773 400.148, 843.683 405.513, 846.634 411.493, 850.234 416.756, 853.447 416.815, 853.483 416.819, 853.486 420.783, 855.905 " fill="none" stroke="rgb(0, 0, 0)" stroke-linecap="butt" stroke-linejoin="round" stroke-opacity="1.0" stroke-width="3.0" />
            <path d=" M 591.236, 962.457 591.260, 962.446 592.528, 961.895 598.736, 963.620 602.173, 964.127 606.597, 963.613 610.166, 962.340 611.179, 961.966 617.677, 959.563 621.255, 958.102 622.875, 955.812 620.092, 953.280 618.921, 952.322 613.910, 950.806 605.138, 946.658 604.703, 946.337 " fill="none" stroke="rgb(0, 0, 0)" stroke-linecap="butt" stroke-linejoin="round" stroke-opacity="1.0" stroke-width="3.0" />
            <path d=" M 439.825, 833.338 435.272, 831.695 433.503, 832.988 432.607, 835.792 431.611, 839.140 433.431, 842.271 436.732, 846.962 439.184, 851.886 441.611, 858.187 443.331, 861.966 445.698, 866.714 447.333, 868.891 448.596, 870.570 451.977, 875.070 451.992, 875.091 " fill="none" stroke="rgb(0, 0, 0)" stroke-linecap="butt" stroke-linejoin="round" stroke-opacity="1.0" stroke-width="3.0" />
            <path d=" M 827.669, 847.793 827.417, 847.879 822.489, 852.047 822.582, 855.233 824.131, 857.549 829.185, 858.459 834.705, 859.234 844.656, 860.221 845.622, 860.317 850.221, 860.544 852.364, 859.402 856.441, 857.230 860.015, 855.876 860.396, 855.731 860.532, 855.789 860.717, 855.867 860.975, 855.977 861.107, 856.033 861.917, 856.377 862.998, 856.836 863.279, 857.020 865.084, 858.204 865.224, 858.295 865.599, 858.541 " fill="none" stroke="rgb(0, 0, 0)" stroke-linecap="butt" stroke-linejoin="round" stroke-opacity="1.0" stroke-width="3.0" />
            <path d=" M 487.272, 394.739 482.051, 393.126 480.835, 392.751 480.370, 392.607 471.987, 390.230 470.812, 389.881 469.705, 389.552 465.043, 388.166 461.258, 387.040 453.743, 385.499 449.060, 385.655 439.615, 382.214 433.865, 377.750 " fill="none" stroke="rgb(0, 0, 0)" stroke-linecap="butt" stroke-linejoin="round" stroke-opacity="1.0" stroke-width="3.0" />
            <path d=" M 639.272, 1013.428 637.907, 1012.434 635.465, 1010.657 631.282, 1009.161 627.825, 1007.817 623.420, 1005.651 620.509, 1004.208 619.513, 1003.771 614.828, 1001.301 607.229, 997.772 607.165, 997.743 606.937, 997.637 606.602, 997.481 605.255, 996.856 604.814, 996.510 602.524, 994.710 600.798, 992.451 599.908, 991.423 598.638, 989.957 597.836, 989.404 597.429, 989.124 590.771, 984.537 " fill="none" stroke="rgb(0, 0, 0)" stroke-linecap="butt" stroke-linejoin="round" stroke-opacity="1.0" stroke-width="3.0" />
            <path d=" M 848.624, 867.096 842.557, 872.378 835.377, 876.242 834.739, 876.750 834.095, 878.634 833.990, 878.958 833.902, 880.384 834.607, 881.970 836.083, 882.259 840.221, 883.070 844.121, 883.669 847.639, 883.773 853.196, 884.060 857.950, 883.673 858.309, 883.644 863.201, 881.915 865.450, 880.491 865.537, 880.445 868.453, 878.893 " fill="none" stroke="rgb(0, 0, 0)" stroke-linecap="butt" stroke-linejoin="round" stroke-opacity="1.0" stroke-width="3.0" />
            <path d=" M 577.808, 817.778 578.200, 816.557 579.081, 813.814 579.453, 812.657 579.851, 811.420 579.612, 806.751 580.209, 805.780 580.883, 801.138 580.898, 801.031 580.901, 801.013 581.030, 800.588 581.754, 798.208 583.293, 793.150 583.838, 791.359 585.030, 787.306 585.410, 786.014 584.749, 783.708 583.191, 781.539 581.201, 781.775 576.956, 783.079 576.821, 783.121 573.324, 781.997 573.229, 781.966 573.214, 781.962 572.894, 781.859 572.678, 781.789 572.516, 781.737 572.512, 781.736 571.831, 781.517 570.040, 783.141 571.149, 785.808 572.122, 788.144 " fill="none" stroke="rgb(0, 0, 0)" stroke-linecap="butt" stroke-linejoin="round" stroke-opacity="1.0" stroke-width="3.0" />
            <path d=" M 298.197, 521.883 302.299, 512.763 302.934, 511.352 303.131, 510.913 301.681, 512.113 298.777, 519.055 295.968, 522.495 293.973, 529.389 293.222, 532.195 293.724, 537.132 293.233, 541.880 293.520, 545.175 292.521, 551.315 292.034, 554.313 " fill="none" stroke="rgb(0, 0, 0)" stroke-linecap="butt" stroke-linejoin="round" stroke-opacity="1.0" stroke-width="3.0" />
            <path d=" M 526.015, 710.193 526.451, 709.895 527.476, 709.193 530.523, 707.105 531.403, 706.503 534.168, 704.608 536.912, 703.314 541.375, 701.208 542.025, 700.901 542.431, 700.710 545.135, 699.434 552.437, 696.311 556.932, 693.709 560.664, 690.956 561.917, 690.032 562.216, 689.812 563.027, 689.221 563.041, 689.211 564.157, 688.399 564.360, 688.251 564.618, 688.063 565.058, 687.742 565.754, 687.235 568.199, 684.968 569.822, 683.030 570.677, 680.852 570.903, 680.274 571.267, 679.346 572.145, 677.109 " fill="none" stroke="rgb(0, 0, 0)" stroke-linecap="butt" stroke-linejoin="round" stroke-opacity="1.0" stroke-width="3.0" />
            <path d=" M 454.217, 762.096 454.141, 762.217 449.985, 768.861 447.836, 773.267 445.146, 776.944 442.966, 781.317 441.074, 785.544 439.290, 790.312 439.101, 791.112 437.786, 797.852 436.720, 804.380 436.740, 804.687 436.011, 809.442 435.733, 811.285 435.512, 814.349 435.353, 816.539 " fill="none" stroke="rgb(0, 0, 0)" stroke-linecap="butt" stroke-linejoin="round" stroke-opacity="1.0" stroke-width="3.0" />
            <path d=" M 577.990, 442.763 577.864, 442.616 576.971, 441.579 575.401, 439.756 572.330, 438.805 569.803, 437.032 569.311, 436.688 566.796, 434.544 566.122, 433.970 565.858, 433.745 561.655, 431.966 561.308, 432.011 558.881, 432.328 557.300, 432.534 557.299, 432.534 555.518, 432.767 552.075, 434.067 549.593, 435.004 543.400, 438.495 536.418, 442.133 536.141, 442.278 534.923, 442.913 530.683, 444.755 530.153, 445.132 529.757, 445.414 529.738, 445.427 527.943, 446.705 527.781, 446.820 526.471, 447.752 " fill="none" stroke="rgb(0, 0, 0)" stroke-linecap="butt" stroke-linejoin="round" stroke-opacity="1.0" stroke-width="3.0" />
            <path d=" M 336.355, 730.467 336.488, 732.068 338.321, 736.489 337.965, 740.099 338.929, 744.834 340.468, 747.887 340.505, 752.416 340.581, 753.533 342.420, 756.663 343.952, 758.807 345.130, 761.422 346.892, 765.702 350.157, 771.040 354.016, 777.359 354.518, 781.235 357.004, 783.706 357.942, 784.639 357.951, 784.648 358.325, 785.020 " fill="none" stroke="rgb(0, 0, 0)" stroke-linecap="butt" stroke-linejoin="round" stroke-opacity="1.0" stroke-width="3.0" />
            <path d=" M 758.322, 468.509 756.009, 465.179 753.844, 463.327 748.792, 455.578 747.527, 452.990 745.735, 450.618 741.824, 446.727 738.128, 442.539 733.867, 439.439 730.290, 435.716 723.064, 431.870 713.795, 428.117 713.500, 427.998 " fill="none" stroke="rgb(0, 0, 0)" stroke-linecap="butt" stroke-linejoin="round" stroke-opacity="1.0" stroke-width="3.0" />
            <path d=" M 880.060, 670.583 880.369, 666.232 880.379, 666.089 879.219, 660.211 877.052, 653.931 875.547, 649.286 874.504, 642.505 874.859, 633.650 875.396, 629.177 875.582, 622.678 875.795, 619.023 875.331, 614.616 875.170, 610.017 875.047, 609.398 " fill="none" stroke="rgb(0, 0, 0)" stroke-linecap="butt" stroke-linejoin="round" stroke-opacity="1.0" stroke-width="3.0" />
            <path d=" M 898.639, 671.496 898.012, 667.896 896.901, 661.520 894.769, 653.989 893.058, 646.698 890.468, 637.040 889.973, 635.196 888.236, 627.122 886.456, 619.950 885.061, 613.475 883.694, 608.039 " fill="none" stroke="rgb(0, 0, 0)" stroke-linecap="butt" stroke-linejoin="round" stroke-opacity="1.0" stroke-width="3.0" />
            <path d=" M 703.866, 469.169 698.550, 470.692 690.522, 471.339 683.279, 470.029 678.047, 468.088 668.851, 464.160 667.917, 463.762 667.390, 463.536 667.084, 463.357 661.909, 460.327 657.346, 458.762 657.006, 458.753 655.177, 458.703 647.260, 458.488 641.134, 459.637 " fill="none" stroke="rgb(0, 0, 0)" stroke-linecap="butt" stroke-linejoin="round" stroke-opacity="1.0" stroke-width="3.0" />
            <path d=" M 395.464, 351.998 393.574, 352.243 388.265, 352.931 384.020, 353.354 380.789, 355.272 378.551, 358.893 373.761, 364.614 367.965, 372.763 366.871, 374.301 365.251, 377.545 362.638, 384.098 359.914, 393.720 359.480, 395.250 357.152, 399.723 355.596, 402.894 " fill="none" stroke="rgb(0, 0, 0)" stroke-linecap="butt" stroke-linejoin="round" stroke-opacity="1.0" stroke-width="3.0" />
            <path d=" M 842.302, 490.538 840.847, 489.187 840.032, 488.431 839.895, 488.304 839.776, 488.194 838.575, 487.080 832.444, 485.671 829.587, 484.635 826.749, 483.957 823.789, 484.119 817.206, 484.984 811.886, 483.778 808.078, 482.786 803.458, 482.348 796.597, 482.017 791.348, 479.813 785.515, 480.204 781.301, 479.615 779.447, 479.842 778.942, 481.701 778.557, 483.115 777.642, 484.955 " fill="none" stroke="rgb(0, 0, 0)" stroke-linecap="butt" stroke-linejoin="round" stroke-opacity="1.0" stroke-width="3.0" />
            <path d=" M 705.585, 426.278 704.530, 425.845 700.190, 426.517 696.163, 427.145 690.991, 428.908 689.056, 430.036 684.986, 432.818 681.638, 436.474 678.513, 438.271 678.911, 439.558 681.338, 440.844 683.117, 441.668 685.407, 444.302 686.274, 445.004 690.133, 447.173 696.745, 447.508 700.433, 448.329 705.881, 452.091 705.990, 452.215 707.765, 454.230 710.145, 458.931 710.277, 459.193 " fill="none" stroke="rgb(0, 0, 0)" stroke-linecap="butt" stroke-linejoin="round" stroke-opacity="1.0" stroke-width="3.0" />
            <path d=" M 512.109, 554.633 512.852, 553.468 514.376, 551.079 514.800, 550.413 515.238, 546.776 516.871, 543.885 518.345, 541.241 520.850, 535.744 521.897, 535.275 522.673, 534.927 524.488, 534.113 526.505, 533.208 526.701, 533.120 527.913, 532.577 529.014, 532.083 529.066, 532.060 529.220, 531.991 529.258, 531.980 531.080, 531.433 536.273, 529.875 537.269, 529.577 538.421, 529.465 538.880, 529.421 541.715, 529.148 541.875, 529.132 542.053, 529.115 543.661, 528.960 549.553, 530.692 551.496, 530.969 551.806, 531.013 551.833, 531.017 552.019, 531.044 552.830, 531.159 552.907, 531.170 553.247, 531.219 553.338, 531.232 553.381, 531.263 553.474, 531.330 555.002, 532.430 555.153, 532.539 555.242, 532.603 555.357, 532.685 555.788, 532.995 556.436, 533.462 557.706, 534.376 557.744, 534.403 558.201, 534.733 558.334, 534.828 560.183, 536.159 563.496, 538.168 563.955, 538.447 564.577, 538.823 566.840, 540.196 567.571, 541.043 567.589, 542.323 " fill="none" stroke="rgb(0, 0, 0)" stroke-linecap="butt" stroke-linejoin="round" stroke-opacity="1.0" stroke-width="3.0" />
            <path d=" M 460.912, 373.031 458.081, 371.813 455.463, 370.687 451.953, 369.496 444.549, 366.638 440.603, 365.610 437.763, 364.145 435.430, 363.004 432.138, 361.242 430.410, 358.986 427.002, 355.156 425.258, 353.107 423.797, 352.716 418.017, 350.680 414.415, 349.694 413.587, 349.560 409.132, 349.333 406.135, 349.737 401.310, 351.136 396.738, 351.764 393.574, 352.243 " fill="none" stroke="rgb(0, 0, 0)" stroke-linecap="butt" stroke-linejoin="round" stroke-opacity="1.0" stroke-width="3.0" />
            <path d=" M 616.816, 588.834 621.123, 590.020 624.869, 592.141 631.315, 593.923 638.168, 596.456 644.102, 598.357 648.432, 599.264 652.107, 601.001 656.041, 602.030 660.034, 603.815 664.492, 605.606 668.376, 607.042 672.956, 608.721 677.828, 610.792 682.957, 612.160 686.904, 614.061 " fill="none" stroke="rgb(0, 0, 0)" stroke-linecap="butt" stroke-linejoin="round" stroke-opacity="1.0" stroke-width="3.0" />
            <path d=" M 873.109, 567.999 875.819, 566.487 877.502, 565.433 878.228, 563.348 879.162, 560.662 879.176, 557.549 880.226, 552.303 880.486, 549.901 880.859, 542.939 880.985, 539.440 881.419, 533.617 879.857, 527.584 879.462, 525.300 876.119, 519.466 874.039, 515.618 869.394, 510.613 868.214, 508.437 866.199, 505.877 860.329, 501.501 859.081, 501.192 " fill="none" stroke="rgb(0, 0, 0)" stroke-linecap="butt" stroke-linejoin="round" stroke-opacity="1.0" stroke-width="3.0" />
            <path d=" M 583.743, 1010.435 590.984, 1013.073 592.509, 1013.526 592.624, 1013.560 595.220, 1014.331 595.701, 1014.474 597.553, 1015.025 600.367, 1015.860 600.381, 1015.864 602.470, 1016.485 602.767, 1016.573 602.888, 1016.609 606.384, 1017.165 608.317, 1017.473 616.129, 1018.716 625.936, 1019.340 628.080, 1018.969 638.078, 1018.772 638.359, 1018.766 645.969, 1018.279 648.703, 1017.276 648.942, 1015.598 645.784, 1013.935 643.064, 1013.071 637.907, 1012.434 " fill="none" stroke="rgb(0, 0, 0)" stroke-linecap="butt" stroke-linejoin="round" stroke-opacity="1.0" stroke-width="3.0" />
            <path d=" M 508.654, 980.704 508.821, 981.248 509.767, 985.623 512.794, 990.470 515.229, 992.306 516.707, 993.519 521.921, 997.791 526.455, 1000.577 531.724, 1003.318 539.101, 1006.057 544.208, 1009.221 546.146, 1010.272 552.043, 1013.020 554.977, 1015.118 559.351, 1016.711 561.727, 1017.877 566.562, 1019.594 571.244, 1019.917 571.337, 1019.922 576.555, 1020.218 577.442, 1020.565 " fill="none" stroke="rgb(0, 0, 0)" stroke-linecap="butt" stroke-linejoin="round" stroke-opacity="1.0" stroke-width="3.0" />
            <path d=" M 559.897, 649.912 561.006, 649.049 563.070, 647.445 564.624, 646.238 564.840, 646.040 566.662, 644.368 572.903, 638.158 580.695, 631.890 581.114, 631.552 581.126, 631.542 581.373, 631.344 584.399, 628.909 589.218, 626.078 596.160, 620.551 603.269, 613.519 606.948, 609.880 611.579, 602.785 615.100, 593.425 616.179, 590.555 616.816, 588.834 616.911, 588.576 617.163, 587.896 " fill="none" stroke="rgb(0, 0, 0)" stroke-linecap="butt" stroke-linejoin="round" stroke-opacity="1.0" stroke-width="3.0" />
            <path d=" M 337.672, 431.107 334.681, 434.368 333.692, 435.329 331.921, 437.049 330.092, 439.830 329.925, 440.084 329.170, 441.232 327.763, 445.086 325.979, 450.697 322.923, 460.219 322.087, 462.826 317.799, 471.861 317.608, 472.263 317.493, 472.504 316.365, 476.901 315.158, 481.605 315.108, 481.797 314.909, 482.573 314.264, 485.088 311.799, 490.852 309.123, 497.239 308.648, 498.176 308.399, 498.665 308.360, 498.742 308.274, 498.911 306.728, 501.956 306.365, 502.671 303.131, 510.913 " fill="none" stroke="rgb(0, 0, 0)" stroke-linecap="butt" stroke-linejoin="round" stroke-opacity="1.0" stroke-width="3.0" />
            <path d=" M 910.191, 758.369 910.006, 757.357 909.939, 756.992 909.866, 756.593 909.085, 752.322 907.601, 747.980 904.918, 739.336 904.630, 737.802 901.932, 729.216 900.360, 725.723 897.791, 718.066 894.120, 708.764 894.070, 708.639 891.712, 703.043 888.594, 693.541 888.463, 693.141 885.460, 687.149 883.061, 677.622 882.356, 675.138 " fill="none" stroke="rgb(0, 0, 0)" stroke-linecap="butt" stroke-linejoin="round" stroke-opacity="1.0" stroke-width="3.0" />
            <path d=" M 614.551, 593.769 616.077, 590.337 616.096, 590.294 616.753, 588.817 616.869, 588.557 617.163, 587.896 617.478, 587.187 621.447, 578.008 622.624, 575.284 623.181, 571.612 623.598, 564.448 620.943, 557.068 618.877, 552.349 613.411, 544.525 610.418, 541.814 605.404, 538.432 604.499, 537.822 603.337, 537.038 596.618, 532.881 588.003, 528.921 582.340, 526.176 581.912, 525.890 " fill="none" stroke="rgb(0, 0, 0)" stroke-linecap="butt" stroke-linejoin="round" stroke-opacity="1.0" stroke-width="3.0" />
            <path d=" M 876.013, 922.129 874.997, 923.861 874.510, 924.320 873.423, 925.345 870.975, 927.654 868.937, 930.497 865.180, 936.924 859.985, 943.861 853.834, 950.339 849.775, 954.540 848.650, 958.300 849.125, 960.874 850.739, 962.513 854.189, 962.522 857.753, 963.417 863.554, 964.074 870.163, 962.695 875.421, 960.725 878.519, 958.821 879.034, 958.463 883.003, 955.707 886.020, 953.612 887.997, 951.398 " fill="none" stroke="rgb(0, 0, 0)" stroke-linecap="butt" stroke-linejoin="round" stroke-opacity="1.0" stroke-width="3.0" />
            <path d=" M 920.454, 913.259 924.256, 906.280 926.439, 901.721 927.967, 897.216 931.400, 887.824 932.848, 883.862 933.960, 880.392 935.833, 872.874 938.514, 865.073 940.042, 858.027 940.289, 853.740 940.338, 852.883 940.484, 850.359 941.010, 846.377 940.314, 844.627 939.898, 838.747 940.125, 835.230 938.687, 830.470 937.959, 828.459 936.187, 824.974 934.886, 823.518 " fill="none" stroke="rgb(0, 0, 0)" stroke-linecap="butt" stroke-linejoin="round" stroke-opacity="1.0" stroke-width="3.0" />
            <path d=" M 303.596, 634.982 303.558, 636.809 304.834, 645.997 306.554, 651.834 308.033, 658.535 309.322, 662.264 310.501, 664.919 311.466, 667.507 314.277, 673.818 316.847, 679.697 319.822, 686.140 321.419, 690.522 322.171, 692.384 323.792, 698.156 324.796, 705.347 326.118, 710.425 327.937, 713.533 329.507, 716.623 331.186, 718.877 333.236, 722.221 334.147, 723.757 334.264, 723.954 " fill="none" stroke="rgb(0, 0, 0)" stroke-linecap="butt" stroke-linejoin="round" stroke-opacity="1.0" stroke-width="3.0" />
            <path d=" M 628.012, 507.331 629.591, 504.349 633.475, 497.015 634.190, 492.024 634.870, 485.623 634.712, 483.063 634.497, 479.570 633.550, 472.509 632.849, 469.427 631.452, 463.288 627.604, 454.058 626.451, 451.293 621.375, 442.677 619.550, 439.578 613.601, 432.383 611.676, 429.695 606.328, 423.030 602.173, 418.781 601.746, 418.344 599.927, 416.484 " fill="none" stroke="rgb(0, 0, 0)" stroke-linecap="butt" stroke-linejoin="round" stroke-opacity="1.0" stroke-width="3.0" />
            <path d=" M 588.426, 706.514 585.772, 708.522 585.226, 708.936 585.165, 708.982 584.930, 709.159 584.894, 709.188 584.789, 709.271 584.707, 709.336 583.444, 710.336 582.025, 711.823 582.002, 711.847 581.936, 711.915 581.925, 711.927 581.666, 712.198 581.409, 712.468 578.215, 715.813 574.716, 720.030 572.326, 722.096 570.869, 723.357 570.792, 723.423 570.203, 723.932 569.977, 724.128 568.416, 725.477 567.248, 726.580 566.466, 727.319 563.327, 729.602 562.255, 730.381 560.031, 731.826 559.956, 731.874 559.914, 731.902 559.010, 732.489 558.672, 732.652 558.463, 732.752 556.973, 733.469 556.893, 733.472 556.173, 733.498 555.782, 733.512 555.606, 733.518 555.414, 733.525 555.330, 733.528 555.280, 733.530 555.266, 733.530 553.043, 733.610 552.757, 733.620 551.824, 733.654 550.936, 733.686 545.965, 736.816 544.194, 743.633 545.558, 752.197 545.621, 752.741 545.921, 755.346 546.096, 756.862 548.996, 760.574 549.011, 760.592 550.042, 761.912 554.960, 764.468 558.674, 765.675 558.827, 765.725 559.325, 765.892 559.906, 766.086 563.627, 767.331 570.452, 769.220 570.976, 769.365 571.384, 769.478 " fill="none" stroke="rgb(0, 0, 0)" stroke-linecap="butt" stroke-linejoin="round" stroke-opacity="1.0" stroke-width="3.0" />
            <path d=" M 850.181, 582.498 848.777, 581.543 846.153, 579.757 842.761, 577.956 839.843, 577.111 835.984, 577.746 828.311, 577.127 819.490, 577.044 813.245, 574.460 806.001, 574.386 801.718, 575.072 799.654, 575.275 797.790, 575.905 795.728, 576.762 792.724, 578.319 784.737, 580.283 779.408, 580.629 774.946, 581.379 770.838, 580.509 768.659, 580.025 765.627, 581.100 760.992, 585.807 759.659, 589.738 755.637, 593.795 " fill="none" stroke="rgb(0, 0, 0)" stroke-linecap="butt" stroke-linejoin="round" stroke-opacity="1.0" stroke-width="3.0" />
            <path d=" M 531.572, 917.643 534.181, 917.046 535.691, 916.432 537.087, 915.864 535.601, 916.413 534.624, 916.773 531.572, 917.643 531.177, 917.756 531.096, 917.777 522.712, 919.915 512.811, 921.324 512.238, 921.405 509.255, 920.802 505.812, 919.989 501.818, 918.518 499.997, 917.663 497.106, 915.572 492.771, 913.148 492.422, 912.959 491.515, 912.467 489.922, 911.603 489.649, 911.454 486.883, 909.298 484.282, 907.379 481.244, 905.389 478.818, 902.831 476.809, 901.199 476.252, 900.878 476.239, 900.871 474.979, 900.146 471.534, 896.944 470.232, 895.662 468.183, 893.645 462.577, 887.956 459.546, 884.708 456.760, 882.323 455.357, 878.933 455.093, 878.294 " fill="none" stroke="rgb(0, 0, 0)" stroke-linecap="butt" stroke-linejoin="round" stroke-opacity="1.0" stroke-width="3.0" />
            <path d=" M 416.756, 853.447 416.855, 853.526 418.513, 855.321 420.510, 857.084 427.533, 864.203 430.552, 867.262 437.671, 874.249 444.685, 881.377 446.225, 882.941 452.768, 890.503 453.751, 891.639 455.888, 893.810 462.430, 901.373 464.503, 903.771 469.978, 909.426 477.226, 916.392 481.618, 921.286 486.995, 927.279 487.108, 927.405 487.580, 927.931 491.270, 932.181 " fill="none" stroke="rgb(0, 0, 0)" stroke-linecap="butt" stroke-linejoin="round" stroke-opacity="1.0" stroke-width="3.0" />
            <path d=" M 710.802, 579.096 710.049, 577.810 708.129, 574.528 702.904, 572.775 695.706, 573.722 692.597, 573.637 687.534, 573.730 679.464, 575.135 672.696, 576.116 667.451, 576.989 658.198, 580.781 657.517, 581.060 655.827, 583.188 656.042, 585.464 656.591, 588.859 657.824, 590.917 663.026, 596.562 671.522, 601.836 671.788, 602.001 679.874, 607.144 682.574, 608.675 684.814, 611.014 688.252, 614.603 689.705, 616.121 " fill="none" stroke="rgb(0, 0, 0)" stroke-linecap="butt" stroke-linejoin="round" stroke-opacity="1.0" stroke-width="3.0" />
            <path d=" M 478.816, 402.378 468.759, 401.738 460.695, 399.841 454.024, 398.328 453.910, 398.308 453.681, 398.269 451.312, 397.863 441.353, 396.959 432.676, 396.172 422.713, 395.319 419.339, 395.030 409.343, 394.738 405.458, 394.625 403.291, 394.559 394.830, 394.300 390.815, 393.925 389.105, 391.454 385.858, 391.553 381.093, 392.366 374.059, 394.054 371.600, 394.532 " fill="none" stroke="rgb(0, 0, 0)" stroke-linecap="butt" stroke-linejoin="round" stroke-opacity="1.0" stroke-width="3.0" />
            <path d=" M 582.754, 454.063 584.109, 448.142 586.123, 440.716 586.099, 439.480 586.605, 435.689 587.950, 425.780 587.987, 425.505 587.884, 423.693 587.398, 418.807 587.195, 416.507 587.193, 416.475 587.176, 416.288 586.903, 413.192 585.966, 410.655 585.676, 409.870 584.784, 406.024 581.189, 397.085 580.378, 395.627 576.563, 388.772 572.981, 384.544 570.701, 383.159 561.473, 381.367 557.100, 381.356 550.730, 382.248 546.080, 383.716 538.615, 386.252 532.494, 389.102 531.391, 389.773 530.523, 390.457 528.899, 391.736 " fill="none" stroke="rgb(0, 0, 0)" stroke-linecap="butt" stroke-linejoin="round" stroke-opacity="1.0" stroke-width="3.0" />
            <path d=" M 923.872, 789.002 922.769, 783.129 921.331, 776.600 919.758, 766.725 919.063, 762.365 917.573, 755.746 916.046, 745.863 915.991, 745.503 914.919, 738.351 913.894, 733.445 912.916, 728.766 910.872, 718.977 910.218, 715.846 908.194, 706.053 907.744, 703.876 906.351, 698.051 903.451, 688.501 901.695, 679.100 899.494, 671.154 898.012, 667.896 " fill="none" stroke="rgb(0, 0, 0)" stroke-linecap="butt" stroke-linejoin="round" stroke-opacity="1.0" stroke-width="3.0" />
            <path d=" M 377.437, 812.138 381.058, 805.049 382.418, 802.386 384.963, 796.701 385.346, 796.029 385.374, 795.979 386.140, 794.637 387.384, 790.727 388.593, 786.324 390.580, 778.212 393.151, 770.931 395.559, 761.882 397.516, 758.987 403.840, 753.559 412.619, 748.934 421.529, 745.579 426.367, 743.245 432.406, 739.564 438.996, 737.298 446.216, 734.778 456.009, 732.755 458.040, 732.335 462.771, 730.813 464.998, 729.603 " fill="none" stroke="rgb(0, 0, 0)" stroke-linecap="butt" stroke-linejoin="round" stroke-opacity="1.0" stroke-width="3.0" />
            <path d=" M 616.062, 637.627 613.259, 640.793 613.131, 640.937 611.496, 642.784 609.413, 645.136 607.237, 649.812 602.738, 657.845 599.455, 664.380 598.190, 668.281 596.946, 675.676 598.163, 682.768 602.255, 691.892 603.000, 693.552 603.198, 693.993 606.592, 697.304 608.572, 699.234 615.146, 703.024 615.693, 703.045 622.529, 703.265 625.945, 701.272 626.674, 700.821 632.911, 694.332 638.569, 689.529 643.847, 684.796 650.988, 679.894 659.363, 674.430 660.031, 673.993 660.690, 673.563 " fill="none" stroke="rgb(0, 0, 0)" stroke-linecap="butt" stroke-linejoin="round" stroke-opacity="1.0" stroke-width="3.0" />
            <path d=" M 468.116, 615.639 467.553, 620.367 467.798, 626.824 468.452, 635.797 469.586, 643.902 470.841, 649.619 471.556, 653.021 473.212, 660.860 474.014, 668.426 473.788, 671.569 473.788, 676.534 473.657, 680.436 473.730, 683.334 473.798, 688.410 473.155, 692.566 472.839, 695.359 472.836, 695.390 472.472, 698.618 471.776, 702.714 470.568, 706.797 468.932, 714.710 468.929, 714.724 468.909, 714.820 467.872, 719.839 466.016, 724.968 464.998, 729.603 464.105, 733.673 462.632, 739.576 461.559, 742.260 458.422, 749.243 457.346, 753.906 455.342, 760.062 454.141, 762.217 " fill="none" stroke="rgb(0, 0, 0)" stroke-linecap="butt" stroke-linejoin="round" stroke-opacity="1.0" stroke-width="3.0" />
            <path d=" M 570.452, 769.220 570.986, 769.492 572.747, 770.392 573.912, 770.618 574.144, 770.663 574.548, 770.741 584.033, 772.580 587.600, 773.479 592.867, 774.156 597.465, 774.381 597.697, 774.393 598.167, 774.416 598.192, 774.417 604.034, 774.703 607.143, 774.855 612.734, 774.966 615.546, 774.590 618.141, 774.782 618.286, 774.793 618.876, 774.836 620.120, 774.929 623.890, 775.311 628.009, 774.929 630.633, 774.686 630.851, 774.666 631.724, 774.585 632.054, 774.555 635.857, 774.063 641.782, 772.868 648.483, 771.407 653.302, 770.861 657.813, 769.594 665.904, 766.267 670.099, 764.932 672.505, 763.886 677.626, 761.508 686.914, 757.803 688.424, 757.201 696.182, 753.881 705.316, 749.810 706.461, 749.299 714.542, 746.885 724.159, 745.566 730.622, 744.851 733.395, 744.542 738.116, 744.016 " fill="none" stroke="rgb(0, 0, 0)" stroke-linecap="butt" stroke-linejoin="round" stroke-opacity="1.0" stroke-width="3.0" />
        </g>
    </g>
</svg>
