<?xml version="1.0" encoding="UTF-8" standalone="no"?>
<svg
   xmlns:dc="http://purl.org/dc/elements/1.1/"
   xmlns:cc="http://creativecommons.org/ns#"
   xmlns:rdf="http://www.w3.org/1999/02/22-rdf-syntax-ns#"
   xmlns:svg="http://www.w3.org/2000/svg"
   xmlns="http://www.w3.org/2000/svg"
   xmlns:sodipodi="http://sodipodi.sourceforge.net/DTD/sodipodi-0.dtd"
   xmlns:inkscape="http://www.inkscape.org/namespaces/inkscape"
   height="512"
   version="1.1"
   width="512"
   id="svg2"
   inkscape:version="0.48.4 r9939"
   sodipodi:docname="bunny.svg">
  <metadata
     id="metadata12">
    <rdf:RDF>
      <cc:Work
         rdf:about="">
        <dc:format>image/svg+xml</dc:format>
        <dc:type
           rdf:resource="http://purl.org/dc/dcmitype/StillImage" />
        <dc:title></dc:title>
      </cc:Work>
    </rdf:RDF>
  </metadata>
  <defs
     id="defs10" />
  <sodipodi:namedview
     pagecolor="#ffffff"
     bordercolor="#666666"
     borderopacity="1"
     objecttolerance="10"
     gridtolerance="10"
     guidetolerance="10"
     inkscape:pageopacity="0"
     inkscape:pageshadow="2"
     inkscape:window-width="1366"
     inkscape:window-height="719"
     id="namedview8"
     showgrid="false"
     inkscape:zoom="1.3037281"
     inkscape:cx="184.47191"
     inkscape:cy="499.46961"
     inkscape:window-x="0"
     inkscape:window-y="25"
     inkscape:window-maximized="1"
     inkscape:current-layer="strokes" />
  <g
     id="Outer"
     inkscape:label="Outer"
     style="fill:none;stroke:#000000;stroke-width:0.1;stroke-miterlimit:4;stroke-opacity:1;stroke-dasharray:none"
     transform="matrix(0.55304432,0,0,0.55304432,49.739686,172.52064)">
    <g
       id="strokes"
       inkscape:groupmode="layer"
       inkscape:label="strokes"
       style="fill:none;stroke:#000000;stroke-width:0.1;stroke-miterlimit:4;stroke-opacity:1;stroke-dasharray:none">
      <path
         style="fill:none;stroke:#000000;stroke-width:0.13343081;stroke-linecap:butt;stroke-linejoin:round;stroke-miterlimit:4;stroke-opacity:1;stroke-dasharray:none"
         d="m 15.646576,-396.25488 -24.5751118,-8.07515 -25.7024582,-0.76861 -26.095957,1.73167 -25.755575,-0.57426 -14.886764,-3.63494 -15.84817,-3.72922 -13.32,-6.86068 -7.30231,-13.02932 6.57634,-12.95662 12.26846,-8.52223 14.56125,-6.49764 13.454682,-6.88287 16.171561,-8.48165 15.89217,-9.49197 14.133818,-11.52598 10.896507,-14.58362 2.38022,-13.3488 -4.263142,-13.66763 -9.434719,-9.50242 -13.134515,-0.85315 -17.856085,9.5463 -16.916344,11.1986 -16.338173,12.11753 -16.12154,12.30309 -5.89179,4.76578 -6.07614,4.87636 -3.05595,1.01798 3.16884,-6.80937 7.41797,-13.77646 5.32522,-15.8742 -0.74092,-14.9709 -10.78047,-11.06655 -15.53745,1.90378 -11.85122,9.40973 -8.30739,13.71966 -4.90598,14.83357 -3.75653,13.99592 -4.01279,14.47764 -6.72793,12.54842 -11.90203,8.20824 -13.75031,3.31944 -13.07173,5.21649 -10.22922,8.53827 -5.22278,13.2848 -4.86103,16.46722 -4.03456,16.74822 -2.92508,16.94238 -1.53259,17.04968 3.81153,10.92836 8.44349,6.83109 10.47193,4.93876 9.89684,5.25131 3.13851,17.99125 5.82602,17.6436 8.92597,16.27126 12.43837,13.87424 7.96691,6.51172 10.23749,4.46849 9.51287,3.96305 5.79303,4.99544 -4.79087,7.22226 -0.98185,6.89341 1.34658,6.72103 2.19445,6.70511 -10.77553,8.70193 -4.45233,12.81326 3.24355,11.88094 12.31216,5.90504 13.97557,-0.84391 13.94963,-0.3487 12.34978,3.57931 9.17606,10.94006 12.95626,4.38025 13.742169,1.32473 14.03009,-0.12262 13.819975,0.0382 15.28953,-0.90782 15.388803,-1.07854 15.141809,-2.29422 14.54852019,-4.55489 9.67844401,-6.66349 11.1745628,-7.17958 10.399624,-5.52105 7.353612,-1.68791 -11.612109,1.4543 -10.074066,5.12278 -9.1228518,7.10269 -8.75850501,7.39397 -16.87488819,4.87179 -17.469495,2.20749 -17.71274,0.87947 -17.604661,0.88774 -10.952494,-0.069 -11.116548,-0.18052 -10.874121,-1.35759 -10.22515,-3.60031 -8.0398,-9.3169 -10.04014,-5.27045 -11.43278,-1.58882 -12.21766,1.72804 -14.58325,-1.15591 -9.13573,-9.11246 -1.00313,-12.51145 9.81446,-11.35286 5.46441,-5.90952 -1.96957,-6.29002 -2.48089,-6.85544 3.93043,-7.60579 2.03838,-8.18873 -8.10618,-4.19102 -11.50702,-3.40841 -8.16415,-5.84086 -13.92896,-13.32841 -10.46647,-16.32566 -6.66965,-18.25589 -2.53849,-19.11912 -9.12284,-6.45252 -10.99367,-4.76017 -9.35014,-6.34414 -4.19227,-11.20445 2.02451,-21.45013 3.59626,-21.33676 5.53184,-20.87881 7.83128,-20.07626 11.85606,-8.55383 14.59162,-3.97717 14.13473,-4.58017 10.48538,-10.36281 7.29929,-19.26923 4.90955,-20.56252 7.1736,-19.14308 14.09142,-15.01091 11.18824,-3.42851 10.75997,3.01771 7.5522,8.05525 1.56492,11.68408 -2.22818,11.32463 -6.05158,11.94987 -5.56464,10.28532 -0.76731,6.33103 18.94794,-15.88631 19.34323,-15.54743 20.402966,-13.91722 22.127178,-10.99567 12.740334,0.7195 8.551954,7.86362 3.368541,11.78177 -2.809893,12.47388 -6.938361,16.32249 -11.109823,13.47133 -14.129122,10.55172 -15.996233,7.56369 -14.00463,5.90186 -14.165501,6.01647 -13.2578,7.38871 -11.28152,10.01856 0.6649,13.9379 8.44739,9.47371 12.69633,5.85714 13.4117,3.08815 12.183295,3.41877 12.462424,1.12161 12.523629,-0.91304 12.366915,-2.6852 33.101595,-2.2255 31.874085,9.13962 27.236537,18.91789 19.188939,27.10927 7.91418,16.0159 3.21339,17.11964 0.32111,17.65112 -0.76263,17.61038 8.0961,7.66843 11.72112,4.25359 9.60431,5.90265 1.745711,12.61559 -4.334391,19.27562 -11.32123,15.74571 -16.11675,11.39772 -18.720966,6.2317 -4.423938,1.67136 6.236754,-1.77661 10.21272,-3.61376 7.504,-3.84012 13.14798,-9.00402 11.28231,-11.84053 6.791021,-14.14899 -0.32584,-15.92941 -7.525711,-10.61121 -12.36386,-5.57736 -10.03439,-6.62781 -0.53737,-13.76246 -1.3506,-33.07124 -13.13853,-30.17812 -22.164818,-24.79153 -28.4294628,-16.91152 -17.9062532,-5.45596 -18.501769,-1.53424 -18.661568,1.39343 -18.385604,3.32702 -15.057267,0.6483 -14.568096,-3.09877 -14.397301,-4.55854 -14.54487,-3.73104 -8.79198,-12.37307 2.51844,-13.50989 9.89153,-11.8267 13.32734,-7.3235 17.039499,-7.6383 17.603193,-7.02637 16.457716,-8.70313 13.603071,-12.66858 5.951161,-11.38336 4.145748,-12.78391 0.380118,-12.83427 -5.345732,-11.53438 -11.469752,-5.31908 -11.992014,2.27733 -11.753613,6.2584 -10.754537,6.62414 -14.504062,10.20437 -13.979436,10.90553 -13.73428,11.22927 -13.76858,11.17561 6.82023,-13.98497 7.00381,-14.4929 3.52727,-14.87658 -3.60939,-15.13602 -14.17916,-6.40136 -14.20412,4.90741 -11.58749,11.86723 -6.32924,14.47814 -4.26107,13.84805 -3.46708,14.29998 -4.75056,13.64609 -8.11152,11.8864 -13.27258,5.94656 -14.75569,3.95714 -12.89893,6.1284 -7.70229,12.46037 -5.92197,18.1092 -4.52121,18.55282 -3.13266,18.82626 -1.75631,18.92951 3.6761,10.82631 8.36096,6.66981 10.42549,4.71678 9.86967,4.96718 3.25444,18.16458 5.86513,17.848 9.02719,16.41118 12.74064,13.85409 7.86313,6.32479 10.11395,4.3256 9.36167,3.85933 5.60625,4.92598 -4.5741,7.07225 -1.34227,6.93048 1.08999,6.73791 2.72273,6.49453 -10.42842,8.91935 -5.18575,12.13984 2.35673,11.33198 12.19898,6.4957 13.18323,0.0886 13.70009,-1.06947 12.22149,2.32647 8.74735,10.27645 10.64059,5.84977 12.028905,1.99048 12.560082,0.0986 12.234125,0.17422 17.372998,-0.49734 17.441768,-0.94783 17.235178,-2.25274 16.7532122,-4.41207 10.285955,-6.43166 9.9907908,-7.21777 10.535564,-5.87191 11.920294,-2.39418 -15.533107,1.97067 -13.218523,7.6583 -12.71363481,9.18973 -14.01842619,6.56491 -13.277246,1.54177 -13.380056,0.94498 -13.407688,0.8682 -13.360174,1.31134 -12.972717,0.39593 -13.356677,-0.18076 -12.717813,-2.43867 -11.05613,-6.37781 -10.12505,-10.50234 -13.54723,-1.57019 -14.8748,1.32998 -14.10782,-1.80187 -10.20522,-9.37916 1.7593,-10.94008 7.53007,-11.16641 7.10713,-10.05814 -4.99505,-7.63351 3.70781,-9.85221 2.46451,-8.43038 -8.72496,-3.36806 -18.58208,-9.6736 -15.57448,-13.87483 -11.48285,-17.31676 -6.30714,-19.99937 -0.33588,-12.4292 -6.11782,-7.73424 -9.63949,-5.20619 -10.90094,-4.84508 -5.94145,-16.34278 0.10368,-17.86411 3.14392,-18.25241 3.17918,-17.5077 2.87655,-12.23452 4.75853,-11.87382 7.68874,-9.44377 11.66717,-4.94441 13.02467,-2.77943 12.03963,-5.31164 9.46701,-8.49424 5.30677,-12.32732 5.22007,-17.00301 4.93313,-17.42103 7.0669,-16.20923 11.62134,-13.36756 15.1475,-2.69661 11.50401,6.96826 5.17529,12.73613 -3.83867,14.60699 -3.35462,8.20996 -5.11087,8.97799 -3.944,7.66122 0.14596,4.25966 18.86964,-16.24176 19.45086,-15.87385 20.899347,-13.41597 23.215133,-8.86814 14.500059,3.61574 8.009318,11.93205 1.29544,15.35051 -5.641575,13.87106 -20.274104,18.2183 -23.800788,13.24354 -24.92391,11.6703 -23.64346,13.49853 -6.42434,12.2814 3.90055,11.88056 10.49748,8.9265 13.36644,3.4193 16.115897,5.06693 16.610574,2.09564 16.794336,-0.4661 16.667149,-2.61829 16.640024,-2.14393 16.6733402,0.83916 16.070179,4.20664 14.8305278,7.95846 22.984537,18.67868 17.216495,24.18656 9.57546,27.83381 0.0614,29.62044 3.46943,13.81579 13.14387,7.4173 12.769301,8.11999 2.34577,15.92386 -7.221221,17.9815 -13.29089,14.06477 -16.97804,10.26895 -18.28269,6.59407 9.63679,-3.35134 13.9976,-5.58433 13.95568,-8.28847 9.51102,-11.46376 6.04063,-13.20465 1.370941,-15.2473 -5.126491,-12.61656 -13.4517,-5.31249 -11.26358,-7.61475 -1.80884,-13.29909 1.70053,-15.43141 -0.73541,-14.01171 -7.72186,-21.98727 -12.240059,-19.69933 -15.986559,-16.88275 z"
         id="path6"
         inkscape:connector-curvature="0"
         sodipodi:nodetypes="ccccccccccccccccccccccccccccccccccccccccccccccccccccccccccccccccccccccccccccccccccccccccccccccccccccccccccccccccccccccccccccccccccccccccccccccccccccccccccccccccccccccccccccccccccccccccccccccccccccccccccccccccccccccccccccccccccccccccccccccccccccccccccccccccccccccccccccccccccccccccccccccccccccccccccccccccccccccccccccccccccccccccccccccccccccccccccccccccccccccccccccccccccccccccccccccccccccc" />
    </g>
  </g>
</svg>
