<?xml version="1.0" encoding="UTF-8" standalone="no"?>
<!-- Created with Inkscape (http://www.inkscape.org/) -->

<svg
   xmlns:dc="http://purl.org/dc/elements/1.1/"
   xmlns:cc="http://creativecommons.org/ns#"
   xmlns:rdf="http://www.w3.org/1999/02/22-rdf-syntax-ns#"
   xmlns:svg="http://www.w3.org/2000/svg"
   xmlns="http://www.w3.org/2000/svg"
   xmlns:sodipodi="http://sodipodi.sourceforge.net/DTD/sodipodi-0.dtd"
   xmlns:inkscape="http://www.inkscape.org/namespaces/inkscape"
   width="744.09448819"
   height="1052.3622047"
   id="svg2"
   version="1.1"
   inkscape:version="0.48.4 r9939"
   sodipodi:docname="cat2.svg">
  <defs
     id="defs4" />
  <sodipodi:namedview
     id="base"
     pagecolor="#ffffff"
     bordercolor="#666666"
     borderopacity="1.0"
     inkscape:pageopacity="0.0"
     inkscape:pageshadow="2"
     inkscape:zoom="1.979899"
     inkscape:cx="106.59026"
     inkscape:cy="1046.1468"
     inkscape:document-units="px"
     inkscape:current-layer="layer1"
     showgrid="false"
     inkscape:window-width="1366"
     inkscape:window-height="719"
     inkscape:window-x="0"
     inkscape:window-y="25"
     inkscape:window-maximized="1" />
  <metadata
     id="metadata7">
    <rdf:RDF>
      <cc:Work
         rdf:about="">
        <dc:format>image/svg+xml</dc:format>
        <dc:type
           rdf:resource="http://purl.org/dc/dcmitype/StillImage" />
        <dc:title></dc:title>
      </cc:Work>
    </rdf:RDF>
  </metadata>
  <g
     inkscape:label="Layer 1"
     inkscape:groupmode="layer"
     id="layer1">
    <g
       style="font-size:40px;font-style:normal;font-variant:normal;font-weight:normal;font-stretch:normal;line-height:125%;letter-spacing:0px;word-spacing:0px;fill:#000000;fill-opacity:1;stroke:none;font-family:Ubuntu;-inkscape-font-specification:Ubuntu"
       id="text3858"
       transform="matrix(-2.9979911,0,0,-2.9979911,111.77065,-40.281057)">
      <path
         d="m 8.0078125,-11.288253 10.7031245,0 -5.351562,-13.867187 -5.3515625,13.867187 m -8.2421875,10.56640654 0,-2.07031254 2.5585938,0 10.3906252,-27.089844 3.28125,0 10.410156,27.089844 2.871094,0 0,2.07031254 -10.605469,0 0,-2.07031254 3.242187,0 -2.441406,-6.40625 -12.2656248,0 -2.4414062,6.40625 3.203125,0 0,2.07031254 -8.203125,0"
         style="font-family:DejaVu Serif;-inkscape-font-specification:DejaVu Serif"
         id="path3863"
         inkscape:connector-curvature="0" />
      <path
         d="m 33.515625,-2.792159 0,-26.25 -3.457031,0 0,-2.070312 7.050781,0 0,12.871093 c 0.703116,-1.302064 1.595042,-2.259095 2.675781,-2.871093 1.093738,-0.624979 2.441393,-0.937479 4.042969,-0.9375 2.552066,2.1e-5 4.635397,1.009134 6.25,3.027343 1.614561,2.018246 2.421851,4.654962 2.421875,7.910157 -2.4e-5,3.255215 -0.807314,5.8984415 -2.421875,7.929687 -1.614603,2.0182296 -3.697934,3.02734322 -6.25,3.02734379 -1.601576,-5.7e-7 -2.949231,-0.30598985 -4.042969,-0.91796879 -1.080739,-0.624999 -1.972665,-1.5885397 -2.675781,-2.890625 l 0,3.24218754 -7.050781,0 0,-2.07031254 3.457031,0 m 3.59375,-7.285156 c -8e-6,2.5000066 0.475252,4.4075568 1.425781,5.722656 0.963531,1.3020857 2.356759,1.9531267 4.179688,1.953125 1.835922,1.7e-6 3.222639,-0.7356746 4.160156,-2.2070312 0.950502,-1.4713488 1.425762,-3.6393154 1.425781,-6.5039058 -1.9e-5,-2.877591 -0.475279,-5.045558 -1.425781,-6.503907 -0.937517,-1.458315 -2.324234,-2.187481 -4.160156,-2.1875 -1.822929,1.9e-5 -3.216157,0.657571 -4.179688,1.972657 -0.950529,1.315119 -1.425789,3.216159 -1.425781,5.703125 l 0,2.050781"
         style="font-family:DejaVu Serif;-inkscape-font-specification:DejaVu Serif"
         id="path3865"
         inkscape:connector-curvature="0" />
      <path
         d="m 75.097656,-6.9523152 c -0.507832,2.2135457 -1.484394,3.8997419 -2.929687,5.0585937 -1.445329,1.15885422 -3.313817,1.73828072 -5.605469,1.73828129 -3.020842,-5.7e-7 -5.449225,-0.99609329 -7.285156,-2.98828129 -1.835941,-2.0052039 -2.753908,-4.6614512 -2.753907,-7.9687495 -1e-6,-3.320299 0.917966,-5.970036 2.753907,-7.949219 1.835931,-1.992167 4.264314,-2.98826 7.285156,-2.988281 1.315091,2.1e-5 2.623683,0.156271 3.925781,0.46875 1.302066,0.299499 2.610659,0.761738 3.925781,1.386718 l 0,5.3125 -2.089843,0 c -0.273455,-1.8229 -0.872413,-3.151024 -1.796875,-3.984375 -0.911474,-0.833314 -2.220066,-1.24998 -3.925782,-1.25 -1.940114,2e-5 -3.404956,0.755227 -4.394531,2.265625 -0.98959,1.497412 -1.484381,3.743503 -1.484375,6.738282 -6e-6,2.9947986 0.488275,5.2474005 1.464844,6.757812 0.989575,1.5104188 2.460927,2.2656264 4.414062,2.265625 1.549466,1.4e-6 2.786444,-0.403644 3.710938,-1.2109375 0.924462,-0.8072882 1.555972,-2.0247349 1.894531,-3.6523437 l 2.890625,0"
         style="font-family:DejaVu Serif;-inkscape-font-specification:DejaVu Serif"
         id="path3867"
         inkscape:connector-curvature="0" />
    </g>
  </g>
</svg>
